<?xml version="1.0" encoding="UTF-8" standalone="no"?>
<!DOCTYPE svg PUBLIC "-//W3C//DTD SVG 1.1//EN"
 "http://www.w3.org/Graphics/SVG/1.1/DTD/svg11.dtd">
<!-- Generated by graphviz version 2.42.3 (20191010.1750)
 -->
<!-- Title: tralics/Token.h Pages: 1 -->
<svg width="255pt" height="302pt"
 viewBox="0.00 0.00 254.62 302.00" xmlns="http://www.w3.org/2000/svg" xmlns:xlink="http://www.w3.org/1999/xlink">
<g id="graph0" class="graph" transform="scale(1 1) rotate(0) translate(4 298)">
<title>tralics/Token.h</title>
<!-- Node1 -->
<g id="node1" class="node">
<title>Node1</title>
<g id="a_node1"><a xlink:title=" ">
<polygon fill="#bfbfbf" stroke="black" points="140.16,-275.5 140.16,-293.5 220.07,-293.5 220.07,-275.5 140.16,-275.5"/>
<text text-anchor="middle" x="180.12" y="-281.5" font-family="Helvetica,sans-Serif" font-size="10.00">tralics/Token.h</text>
</a>
</g>
</g>
<!-- Node2 -->
<g id="node2" class="node">
<title>Node2</title>
<g id="a_node2"><a xlink:href="../../d2/d68/_cmd_chr_8h.html" target="_top" xlink:title=" ">
<polygon fill="none" stroke="black" points="81.61,-220.5 81.61,-238.5 142.63,-238.5 142.63,-220.5 81.61,-220.5"/>
<text text-anchor="middle" x="112.12" y="-226.5" font-family="Helvetica,sans-Serif" font-size="10.00">CmdChr.h</text>
</a>
</g>
</g>
<!-- Node1&#45;&gt;Node2 -->
<g id="edge1" class="edge">
<title>Node1&#45;&gt;Node2</title>
<path fill="none" stroke="midnightblue" d="M169.79,-275.45C159.4,-267.36 143.17,-254.7 130.57,-244.88"/>
<polygon fill="midnightblue" stroke="midnightblue" points="132.58,-242.01 122.54,-238.63 128.28,-247.53 132.58,-242.01"/>
</g>
<!-- Node11 -->
<g id="node11" class="node">
<title>Node11</title>
<g id="a_node11"><a xlink:title=" ">
<polygon fill="none" stroke="#bfbfbf" points="160.72,-220.5 160.72,-238.5 199.51,-238.5 199.51,-220.5 160.72,-220.5"/>
<text text-anchor="middle" x="180.12" y="-226.5" font-family="Helvetica,sans-Serif" font-size="10.00">array</text>
</a>
</g>
</g>
<!-- Node1&#45;&gt;Node11 -->
<g id="edge11" class="edge">
<title>Node1&#45;&gt;Node11</title>
<path fill="none" stroke="midnightblue" d="M180.12,-275.22C180.12,-268.18 180.12,-257.81 180.12,-248.83"/>
<polygon fill="midnightblue" stroke="midnightblue" points="183.62,-248.55 180.12,-238.55 176.62,-248.55 183.62,-248.55"/>
</g>
<!-- Node12 -->
<g id="node12" class="node">
<title>Node12</title>
<g id="a_node12"><a xlink:title=" ">
<polygon fill="none" stroke="#bfbfbf" points="217.62,-220.5 217.62,-238.5 246.62,-238.5 246.62,-220.5 217.62,-220.5"/>
<text text-anchor="middle" x="231.73" y="-226.5" font-family="Helvetica,sans-Serif" font-size="10.00">list</text>
</a>
</g>
</g>
<!-- Node1&#45;&gt;Node12 -->
<g id="edge12" class="edge">
<title>Node1&#45;&gt;Node12</title>
<path fill="none" stroke="midnightblue" d="M188.24,-275.22C195.92,-267.39 207.62,-255.46 217.01,-245.89"/>
<polygon fill="midnightblue" stroke="midnightblue" points="219.71,-248.14 224.22,-238.55 214.72,-243.24 219.71,-248.14"/>
</g>
<!-- Node3 -->
<g id="node3" class="node">
<title>Node3</title>
<g id="a_node3"><a xlink:href="../../d8/d47/codepoint_8h.html" target="_top" xlink:title=" ">
<polygon fill="none" stroke="black" points="39.26,-165.5 39.26,-183.5 106.97,-183.5 106.97,-165.5 39.26,-165.5"/>
<text text-anchor="middle" x="73.12" y="-171.5" font-family="Helvetica,sans-Serif" font-size="10.00">codepoint.h</text>
</a>
</g>
</g>
<!-- Node2&#45;&gt;Node3 -->
<g id="edge2" class="edge">
<title>Node2&#45;&gt;Node3</title>
<path fill="none" stroke="midnightblue" d="M106.02,-220.22C100.44,-212.63 92.01,-201.18 85.08,-191.76"/>
<polygon fill="midnightblue" stroke="midnightblue" points="87.78,-189.53 79.04,-183.55 82.15,-193.68 87.78,-189.53"/>
</g>
<!-- Node9 -->
<g id="node9" class="node">
<title>Node9</title>
<g id="a_node9"><a xlink:href="../../d0/d0b/enums_8h.html" target="_top" xlink:title=" ">
<polygon fill="none" stroke="black" points="124.94,-165.5 124.94,-183.5 179.29,-183.5 179.29,-165.5 124.94,-165.5"/>
<text text-anchor="middle" x="152.12" y="-171.5" font-family="Helvetica,sans-Serif" font-size="10.00">enums.h</text>
</a>
</g>
</g>
<!-- Node2&#45;&gt;Node9 -->
<g id="edge8" class="edge">
<title>Node2&#45;&gt;Node9</title>
<path fill="none" stroke="midnightblue" d="M118.37,-220.22C124.09,-212.63 132.74,-201.18 139.84,-191.76"/>
<polygon fill="midnightblue" stroke="midnightblue" points="142.81,-193.64 146.04,-183.55 137.22,-189.42 142.81,-193.64"/>
</g>
<!-- Node4 -->
<g id="node4" class="node">
<title>Node4</title>
<g id="a_node4"><a xlink:href="../../d9/d49/types_8h.html" target="_top" xlink:title=" ">
<polygon fill="none" stroke="black" points="66,-55.5 66,-73.5 114.24,-73.5 114.24,-55.5 66,-55.5"/>
<text text-anchor="middle" x="90.12" y="-61.5" font-family="Helvetica,sans-Serif" font-size="10.00">types.h</text>
</a>
</g>
</g>
<!-- Node3&#45;&gt;Node4 -->
<g id="edge3" class="edge">
<title>Node3&#45;&gt;Node4</title>
<path fill="none" stroke="midnightblue" d="M65.48,-165.29C55.2,-153.2 39.08,-129.88 47.12,-110 51.86,-98.26 61.36,-87.89 70.22,-80.12"/>
<polygon fill="midnightblue" stroke="midnightblue" points="72.49,-82.79 78.03,-73.76 68.07,-77.37 72.49,-82.79"/>
</g>
<!-- Node8 -->
<g id="node8" class="node">
<title>Node8</title>
<g id="a_node8"><a xlink:title=" ">
<polygon fill="none" stroke="#bfbfbf" points="56.6,-110.5 56.6,-128.5 107.63,-128.5 107.63,-110.5 56.6,-110.5"/>
<text text-anchor="middle" x="82.12" y="-116.5" font-family="Helvetica,sans-Serif" font-size="10.00">optional</text>
</a>
</g>
</g>
<!-- Node3&#45;&gt;Node8 -->
<g id="edge7" class="edge">
<title>Node3&#45;&gt;Node8</title>
<path fill="none" stroke="midnightblue" d="M74.52,-165.22C75.73,-158.1 77.52,-147.58 79.05,-138.53"/>
<polygon fill="midnightblue" stroke="midnightblue" points="82.53,-138.99 80.75,-128.55 75.62,-137.82 82.53,-138.99"/>
</g>
<!-- Node5 -->
<g id="node5" class="node">
<title>Node5</title>
<g id="a_node5"><a xlink:title=" ">
<polygon fill="none" stroke="#bfbfbf" points="0,-0.5 0,-18.5 48.23,-18.5 48.23,-0.5 0,-0.5"/>
<text text-anchor="middle" x="24.12" y="-6.5" font-family="Helvetica,sans-Serif" font-size="10.00">cassert</text>
</a>
</g>
</g>
<!-- Node4&#45;&gt;Node5 -->
<g id="edge4" class="edge">
<title>Node4&#45;&gt;Node5</title>
<path fill="none" stroke="midnightblue" d="M80.09,-55.45C70.11,-47.43 54.56,-34.95 42.38,-25.17"/>
<polygon fill="midnightblue" stroke="midnightblue" points="44.22,-22.16 34.23,-18.63 39.84,-27.62 44.22,-22.16"/>
</g>
<!-- Node6 -->
<g id="node6" class="node">
<title>Node6</title>
<g id="a_node6"><a xlink:title=" ">
<polygon fill="none" stroke="#bfbfbf" points="66,-0.5 66,-18.5 114.24,-18.5 114.24,-0.5 66,-0.5"/>
<text text-anchor="middle" x="90.12" y="-6.5" font-family="Helvetica,sans-Serif" font-size="10.00">cstddef</text>
</a>
</g>
</g>
<!-- Node4&#45;&gt;Node6 -->
<g id="edge5" class="edge">
<title>Node4&#45;&gt;Node6</title>
<path fill="none" stroke="midnightblue" d="M90.12,-55.22C90.12,-48.18 90.12,-37.81 90.12,-28.83"/>
<polygon fill="midnightblue" stroke="midnightblue" points="93.62,-28.55 90.12,-18.55 86.62,-28.55 93.62,-28.55"/>
</g>
<!-- Node7 -->
<g id="node7" class="node">
<title>Node7</title>
<g id="a_node7"><a xlink:title=" ">
<polygon fill="none" stroke="#bfbfbf" points="132.05,-0.5 132.05,-18.5 194.18,-18.5 194.18,-0.5 132.05,-0.5"/>
<text text-anchor="middle" x="163.12" y="-6.5" font-family="Helvetica,sans-Serif" font-size="10.00">type_traits</text>
</a>
</g>
</g>
<!-- Node4&#45;&gt;Node7 -->
<g id="edge6" class="edge">
<title>Node4&#45;&gt;Node7</title>
<path fill="none" stroke="midnightblue" d="M101.2,-55.45C112.46,-47.28 130.11,-34.46 143.7,-24.6"/>
<polygon fill="midnightblue" stroke="midnightblue" points="145.89,-27.33 151.92,-18.63 141.78,-21.67 145.89,-27.33"/>
</g>
<!-- Node10 -->
<g id="node10" class="node">
<title>Node10</title>
<g id="a_node10"><a xlink:href="../../d8/db5/consts_8h.html" target="_top" xlink:title=" ">
<polygon fill="none" stroke="black" points="125.5,-110.5 125.5,-128.5 178.74,-128.5 178.74,-110.5 125.5,-110.5"/>
<text text-anchor="middle" x="152.12" y="-116.5" font-family="Helvetica,sans-Serif" font-size="10.00">consts.h</text>
</a>
</g>
</g>
<!-- Node9&#45;&gt;Node10 -->
<g id="edge9" class="edge">
<title>Node9&#45;&gt;Node10</title>
<path fill="none" stroke="midnightblue" d="M152.12,-165.22C152.12,-158.18 152.12,-147.81 152.12,-138.83"/>
<polygon fill="midnightblue" stroke="midnightblue" points="155.62,-138.55 152.12,-128.55 148.62,-138.55 155.62,-138.55"/>
</g>
<!-- Node10&#45;&gt;Node4 -->
<g id="edge10" class="edge">
<title>Node10&#45;&gt;Node4</title>
<path fill="none" stroke="midnightblue" d="M142.7,-110.45C133.32,-102.43 118.71,-89.95 107.27,-80.17"/>
<polygon fill="midnightblue" stroke="midnightblue" points="109.5,-77.46 99.62,-73.63 104.95,-82.78 109.5,-77.46"/>
</g>
</g>
</svg>
