<?xml version="1.0" encoding="UTF-8" standalone="no"?>
<!DOCTYPE svg PUBLIC "-//W3C//DTD SVG 1.1//EN"
 "http://www.w3.org/Graphics/SVG/1.1/DTD/svg11.dtd">
<!-- Generated by graphviz version 2.42.3 (20191010.1750)
 -->
<!-- Title: tralics/globals.h Pages: 1 -->
<svg width="365pt" height="247pt"
 viewBox="0.00 0.00 364.73 247.00" xmlns="http://www.w3.org/2000/svg" xmlns:xlink="http://www.w3.org/1999/xlink">
<g id="graph0" class="graph" transform="scale(1 1) rotate(0) translate(4 243)">
<title>tralics/globals.h</title>
<!-- Node1 -->
<g id="node1" class="node">
<title>Node1</title>
<g id="a_node1"><a xlink:title=" ">
<polygon fill="#bfbfbf" stroke="black" points="174.66,-220.5 174.66,-238.5 259.58,-238.5 259.58,-220.5 174.66,-220.5"/>
<text text-anchor="middle" x="217.12" y="-226.5" font-family="Helvetica,sans-Serif" font-size="10.00">tralics/globals.h</text>
</a>
</g>
</g>
<!-- Node2 -->
<g id="node2" class="node">
<title>Node2</title>
<g id="a_node2"><a xlink:href="../../d8/d47/codepoint_8h.html" target="_top" xlink:title=" ">
<polygon fill="none" stroke="black" points="39.26,-165.5 39.26,-183.5 106.97,-183.5 106.97,-165.5 39.26,-165.5"/>
<text text-anchor="middle" x="73.12" y="-171.5" font-family="Helvetica,sans-Serif" font-size="10.00">codepoint.h</text>
</a>
</g>
</g>
<!-- Node1&#45;&gt;Node2 -->
<g id="edge1" class="edge">
<title>Node1&#45;&gt;Node2</title>
<path fill="none" stroke="midnightblue" d="M195.25,-220.45C171.14,-211.58 132.15,-197.23 104.72,-187.13"/>
<polygon fill="midnightblue" stroke="midnightblue" points="105.79,-183.79 95.19,-183.63 103.37,-190.36 105.79,-183.79"/>
</g>
<!-- Node8 -->
<g id="node8" class="node">
<title>Node8</title>
<g id="a_node8"><a xlink:href="../../d0/d0b/enums_8h.html" target="_top" xlink:title=" ">
<polygon fill="none" stroke="black" points="124.94,-165.5 124.94,-183.5 179.29,-183.5 179.29,-165.5 124.94,-165.5"/>
<text text-anchor="middle" x="152.12" y="-171.5" font-family="Helvetica,sans-Serif" font-size="10.00">enums.h</text>
</a>
</g>
</g>
<!-- Node1&#45;&gt;Node8 -->
<g id="edge7" class="edge">
<title>Node1&#45;&gt;Node8</title>
<path fill="none" stroke="midnightblue" d="M207.24,-220.45C197.41,-212.43 182.1,-199.95 170.1,-190.17"/>
<polygon fill="midnightblue" stroke="midnightblue" points="172.04,-187.23 162.08,-183.63 167.62,-192.66 172.04,-187.23"/>
</g>
<!-- Node10 -->
<g id="node10" class="node">
<title>Node10</title>
<g id="a_node10"><a xlink:title=" ">
<polygon fill="none" stroke="#bfbfbf" points="197.72,-165.5 197.72,-183.5 236.51,-183.5 236.51,-165.5 197.72,-165.5"/>
<text text-anchor="middle" x="217.12" y="-171.5" font-family="Helvetica,sans-Serif" font-size="10.00">array</text>
</a>
</g>
</g>
<!-- Node1&#45;&gt;Node10 -->
<g id="edge10" class="edge">
<title>Node1&#45;&gt;Node10</title>
<path fill="none" stroke="midnightblue" d="M217.12,-220.22C217.12,-213.18 217.12,-202.81 217.12,-193.83"/>
<polygon fill="midnightblue" stroke="midnightblue" points="220.62,-193.55 217.12,-183.55 213.62,-193.55 220.62,-193.55"/>
</g>
<!-- Node11 -->
<g id="node11" class="node">
<title>Node11</title>
<g id="a_node11"><a xlink:title=" ">
<polygon fill="none" stroke="#bfbfbf" points="254.89,-165.5 254.89,-183.5 295.34,-183.5 295.34,-165.5 254.89,-165.5"/>
<text text-anchor="middle" x="275.12" y="-171.5" font-family="Helvetica,sans-Serif" font-size="10.00">string</text>
</a>
</g>
</g>
<!-- Node1&#45;&gt;Node11 -->
<g id="edge11" class="edge">
<title>Node1&#45;&gt;Node11</title>
<path fill="none" stroke="midnightblue" d="M226.18,-220.22C234.91,-212.24 248.32,-199.98 258.9,-190.32"/>
<polygon fill="midnightblue" stroke="midnightblue" points="261.29,-192.88 266.31,-183.55 256.56,-187.71 261.29,-192.88"/>
</g>
<!-- Node12 -->
<g id="node12" class="node">
<title>Node12</title>
<g id="a_node12"><a xlink:title=" ">
<polygon fill="none" stroke="#bfbfbf" points="313.5,-165.5 313.5,-183.5 356.73,-183.5 356.73,-165.5 313.5,-165.5"/>
<text text-anchor="middle" x="335.12" y="-171.5" font-family="Helvetica,sans-Serif" font-size="10.00">vector</text>
</a>
</g>
</g>
<!-- Node1&#45;&gt;Node12 -->
<g id="edge12" class="edge">
<title>Node1&#45;&gt;Node12</title>
<path fill="none" stroke="midnightblue" d="M235.04,-220.45C254.36,-211.77 285.34,-197.86 307.72,-187.8"/>
<polygon fill="midnightblue" stroke="midnightblue" points="309.34,-190.92 317.03,-183.63 306.47,-184.53 309.34,-190.92"/>
</g>
<!-- Node3 -->
<g id="node3" class="node">
<title>Node3</title>
<g id="a_node3"><a xlink:href="../../d9/d49/types_8h.html" target="_top" xlink:title=" ">
<polygon fill="none" stroke="black" points="66,-55.5 66,-73.5 114.24,-73.5 114.24,-55.5 66,-55.5"/>
<text text-anchor="middle" x="90.12" y="-61.5" font-family="Helvetica,sans-Serif" font-size="10.00">types.h</text>
</a>
</g>
</g>
<!-- Node2&#45;&gt;Node3 -->
<g id="edge2" class="edge">
<title>Node2&#45;&gt;Node3</title>
<path fill="none" stroke="midnightblue" d="M65.48,-165.29C55.2,-153.2 39.08,-129.88 47.12,-110 51.86,-98.26 61.36,-87.89 70.22,-80.12"/>
<polygon fill="midnightblue" stroke="midnightblue" points="72.49,-82.79 78.03,-73.76 68.07,-77.37 72.49,-82.79"/>
</g>
<!-- Node7 -->
<g id="node7" class="node">
<title>Node7</title>
<g id="a_node7"><a xlink:title=" ">
<polygon fill="none" stroke="#bfbfbf" points="56.6,-110.5 56.6,-128.5 107.63,-128.5 107.63,-110.5 56.6,-110.5"/>
<text text-anchor="middle" x="82.12" y="-116.5" font-family="Helvetica,sans-Serif" font-size="10.00">optional</text>
</a>
</g>
</g>
<!-- Node2&#45;&gt;Node7 -->
<g id="edge6" class="edge">
<title>Node2&#45;&gt;Node7</title>
<path fill="none" stroke="midnightblue" d="M74.52,-165.22C75.73,-158.1 77.52,-147.58 79.05,-138.53"/>
<polygon fill="midnightblue" stroke="midnightblue" points="82.53,-138.99 80.75,-128.55 75.62,-137.82 82.53,-138.99"/>
</g>
<!-- Node4 -->
<g id="node4" class="node">
<title>Node4</title>
<g id="a_node4"><a xlink:title=" ">
<polygon fill="none" stroke="#bfbfbf" points="0,-0.5 0,-18.5 48.23,-18.5 48.23,-0.5 0,-0.5"/>
<text text-anchor="middle" x="24.12" y="-6.5" font-family="Helvetica,sans-Serif" font-size="10.00">cassert</text>
</a>
</g>
</g>
<!-- Node3&#45;&gt;Node4 -->
<g id="edge3" class="edge">
<title>Node3&#45;&gt;Node4</title>
<path fill="none" stroke="midnightblue" d="M80.09,-55.45C70.11,-47.43 54.56,-34.95 42.38,-25.17"/>
<polygon fill="midnightblue" stroke="midnightblue" points="44.22,-22.16 34.23,-18.63 39.84,-27.62 44.22,-22.16"/>
</g>
<!-- Node5 -->
<g id="node5" class="node">
<title>Node5</title>
<g id="a_node5"><a xlink:title=" ">
<polygon fill="none" stroke="#bfbfbf" points="66,-0.5 66,-18.5 114.24,-18.5 114.24,-0.5 66,-0.5"/>
<text text-anchor="middle" x="90.12" y="-6.5" font-family="Helvetica,sans-Serif" font-size="10.00">cstddef</text>
</a>
</g>
</g>
<!-- Node3&#45;&gt;Node5 -->
<g id="edge4" class="edge">
<title>Node3&#45;&gt;Node5</title>
<path fill="none" stroke="midnightblue" d="M90.12,-55.22C90.12,-48.18 90.12,-37.81 90.12,-28.83"/>
<polygon fill="midnightblue" stroke="midnightblue" points="93.62,-28.55 90.12,-18.55 86.62,-28.55 93.62,-28.55"/>
</g>
<!-- Node6 -->
<g id="node6" class="node">
<title>Node6</title>
<g id="a_node6"><a xlink:title=" ">
<polygon fill="none" stroke="#bfbfbf" points="132.05,-0.5 132.05,-18.5 194.18,-18.5 194.18,-0.5 132.05,-0.5"/>
<text text-anchor="middle" x="163.12" y="-6.5" font-family="Helvetica,sans-Serif" font-size="10.00">type_traits</text>
</a>
</g>
</g>
<!-- Node3&#45;&gt;Node6 -->
<g id="edge5" class="edge">
<title>Node3&#45;&gt;Node6</title>
<path fill="none" stroke="midnightblue" d="M101.2,-55.45C112.46,-47.28 130.11,-34.46 143.7,-24.6"/>
<polygon fill="midnightblue" stroke="midnightblue" points="145.89,-27.33 151.92,-18.63 141.78,-21.67 145.89,-27.33"/>
</g>
<!-- Node9 -->
<g id="node9" class="node">
<title>Node9</title>
<g id="a_node9"><a xlink:href="../../d8/db5/consts_8h.html" target="_top" xlink:title=" ">
<polygon fill="none" stroke="black" points="125.5,-110.5 125.5,-128.5 178.74,-128.5 178.74,-110.5 125.5,-110.5"/>
<text text-anchor="middle" x="152.12" y="-116.5" font-family="Helvetica,sans-Serif" font-size="10.00">consts.h</text>
</a>
</g>
</g>
<!-- Node8&#45;&gt;Node9 -->
<g id="edge8" class="edge">
<title>Node8&#45;&gt;Node9</title>
<path fill="none" stroke="midnightblue" d="M152.12,-165.22C152.12,-158.18 152.12,-147.81 152.12,-138.83"/>
<polygon fill="midnightblue" stroke="midnightblue" points="155.62,-138.55 152.12,-128.55 148.62,-138.55 155.62,-138.55"/>
</g>
<!-- Node9&#45;&gt;Node3 -->
<g id="edge9" class="edge">
<title>Node9&#45;&gt;Node3</title>
<path fill="none" stroke="midnightblue" d="M142.7,-110.45C133.32,-102.43 118.71,-89.95 107.27,-80.17"/>
<polygon fill="midnightblue" stroke="midnightblue" points="109.5,-77.46 99.62,-73.63 104.95,-82.78 109.5,-77.46"/>
</g>
</g>
</svg>
