<?xml version="1.0" encoding="UTF-8" standalone="no"?>
<!DOCTYPE svg PUBLIC "-//W3C//DTD SVG 1.1//EN"
 "http://www.w3.org/Graphics/SVG/1.1/DTD/svg11.dtd">
<!-- Generated by graphviz version 2.42.3 (20191010.1750)
 -->
<!-- Title: tralics/globals.h Pages: 1 -->
<svg width="393pt" height="302pt"
 viewBox="0.00 0.00 393.40 302.00" xmlns="http://www.w3.org/2000/svg" xmlns:xlink="http://www.w3.org/1999/xlink">
<g id="graph0" class="graph" transform="scale(1 1) rotate(0) translate(4 298)">
<title>tralics/globals.h</title>
<!-- Node1 -->
<g id="node1" class="node">
<title>Node1</title>
<g id="a_node1"><a xlink:title=" ">
<polygon fill="#bfbfbf" stroke="black" points="230.72,-275.5 230.72,-293.5 315.64,-293.5 315.64,-275.5 230.72,-275.5"/>
<text text-anchor="middle" x="273.18" y="-281.5" font-family="Helvetica,sans-Serif" font-size="10.00">tralics/globals.h</text>
</a>
</g>
</g>
<!-- Node2 -->
<g id="node2" class="node">
<title>Node2</title>
<g id="a_node2"><a xlink:href="../../d5/daf/_istring_8h.html" target="_top" xlink:title=" ">
<polygon fill="none" stroke="black" points="144.39,-220.5 144.39,-238.5 195.96,-238.5 195.96,-220.5 144.39,-220.5"/>
<text text-anchor="middle" x="170.18" y="-226.5" font-family="Helvetica,sans-Serif" font-size="10.00">Istring.h</text>
</a>
</g>
</g>
<!-- Node1&#45;&gt;Node2 -->
<g id="edge1" class="edge">
<title>Node1&#45;&gt;Node2</title>
<path fill="none" stroke="midnightblue" d="M257.53,-275.45C240.9,-266.89 214.35,-253.23 194.88,-243.21"/>
<polygon fill="midnightblue" stroke="midnightblue" points="196.46,-240.09 185.97,-238.63 193.26,-246.31 196.46,-240.09"/>
</g>
<!-- Node14 -->
<g id="node14" class="node">
<title>Node14</title>
<g id="a_node14"><a xlink:href="../../d8/d47/codepoint_8h.html" target="_top" xlink:title=" ">
<polygon fill="none" stroke="black" points="239.32,-220.5 239.32,-238.5 307.03,-238.5 307.03,-220.5 239.32,-220.5"/>
<text text-anchor="middle" x="273.18" y="-226.5" font-family="Helvetica,sans-Serif" font-size="10.00">codepoint.h</text>
</a>
</g>
</g>
<!-- Node1&#45;&gt;Node14 -->
<g id="edge16" class="edge">
<title>Node1&#45;&gt;Node14</title>
<path fill="none" stroke="midnightblue" d="M273.18,-275.22C273.18,-268.18 273.18,-257.81 273.18,-248.83"/>
<polygon fill="midnightblue" stroke="midnightblue" points="276.68,-248.55 273.18,-238.55 269.68,-248.55 276.68,-248.55"/>
</g>
<!-- Node16 -->
<g id="node16" class="node">
<title>Node16</title>
<g id="a_node16"><a xlink:title=" ">
<polygon fill="none" stroke="#bfbfbf" points="324.95,-220.5 324.95,-238.5 385.4,-238.5 385.4,-220.5 324.95,-220.5"/>
<text text-anchor="middle" x="355.18" y="-226.5" font-family="Helvetica,sans-Serif" font-size="10.00">filesystem</text>
</a>
</g>
</g>
<!-- Node1&#45;&gt;Node16 -->
<g id="edge19" class="edge">
<title>Node1&#45;&gt;Node16</title>
<path fill="none" stroke="midnightblue" d="M285.63,-275.45C298.39,-267.2 318.48,-254.22 333.8,-244.32"/>
<polygon fill="midnightblue" stroke="midnightblue" points="336.11,-246.99 342.61,-238.63 332.31,-241.11 336.11,-246.99"/>
</g>
<!-- Node3 -->
<g id="node3" class="node">
<title>Node3</title>
<g id="a_node3"><a xlink:href="../../dd/d47/_str_hash_8h.html" target="_top" xlink:title=" ">
<polygon fill="none" stroke="black" points="71.95,-165.5 71.95,-183.5 132.41,-183.5 132.41,-165.5 71.95,-165.5"/>
<text text-anchor="middle" x="102.18" y="-171.5" font-family="Helvetica,sans-Serif" font-size="10.00">StrHash.h</text>
</a>
</g>
</g>
<!-- Node2&#45;&gt;Node3 -->
<g id="edge2" class="edge">
<title>Node2&#45;&gt;Node3</title>
<path fill="none" stroke="midnightblue" d="M159.85,-220.45C149.46,-212.36 133.23,-199.7 120.63,-189.88"/>
<polygon fill="midnightblue" stroke="midnightblue" points="122.64,-187.01 112.6,-183.63 118.34,-192.53 122.64,-187.01"/>
</g>
<!-- Node11 -->
<g id="node11" class="node">
<title>Node11</title>
<g id="a_node11"><a xlink:href="../../d0/d0b/enums_8h.html" target="_top" xlink:title=" ">
<polygon fill="none" stroke="black" points="0,-165.5 0,-183.5 54.35,-183.5 54.35,-165.5 0,-165.5"/>
<text text-anchor="middle" x="27.18" y="-171.5" font-family="Helvetica,sans-Serif" font-size="10.00">enums.h</text>
</a>
</g>
</g>
<!-- Node2&#45;&gt;Node11 -->
<g id="edge10" class="edge">
<title>Node2&#45;&gt;Node11</title>
<path fill="none" stroke="midnightblue" d="M148.46,-220.45C124.52,-211.58 85.8,-197.23 58.57,-187.13"/>
<polygon fill="midnightblue" stroke="midnightblue" points="59.69,-183.82 49.1,-183.63 57.26,-190.38 59.69,-183.82"/>
</g>
<!-- Node12 -->
<g id="node12" class="node">
<title>Node12</title>
<g id="a_node12"><a xlink:href="../../d8/d3c/util_8h.html" target="_top" xlink:title=" ">
<polygon fill="none" stroke="black" points="207.62,-165.5 207.62,-183.5 244.74,-183.5 244.74,-165.5 207.62,-165.5"/>
<text text-anchor="middle" x="226.18" y="-171.5" font-family="Helvetica,sans-Serif" font-size="10.00">util.h</text>
</a>
</g>
</g>
<!-- Node2&#45;&gt;Node12 -->
<g id="edge12" class="edge">
<title>Node2&#45;&gt;Node12</title>
<path fill="none" stroke="midnightblue" d="M178.93,-220.22C187.28,-212.32 200.05,-200.22 210.22,-190.61"/>
<polygon fill="midnightblue" stroke="midnightblue" points="212.81,-192.97 217.67,-183.55 208,-187.88 212.81,-192.97"/>
</g>
<!-- Node13 -->
<g id="node13" class="node">
<title>Node13</title>
<g id="a_node13"><a xlink:title=" ">
<polygon fill="none" stroke="#bfbfbf" points="150.79,-165.5 150.79,-183.5 189.57,-183.5 189.57,-165.5 150.79,-165.5"/>
<text text-anchor="middle" x="170.18" y="-171.5" font-family="Helvetica,sans-Serif" font-size="10.00">array</text>
</a>
</g>
</g>
<!-- Node2&#45;&gt;Node13 -->
<g id="edge15" class="edge">
<title>Node2&#45;&gt;Node13</title>
<path fill="none" stroke="midnightblue" d="M170.18,-220.22C170.18,-213.18 170.18,-202.81 170.18,-193.83"/>
<polygon fill="midnightblue" stroke="midnightblue" points="173.68,-193.55 170.18,-183.55 166.68,-193.55 173.68,-193.55"/>
</g>
<!-- Node4 -->
<g id="node4" class="node">
<title>Node4</title>
<g id="a_node4"><a xlink:href="../../d8/db5/consts_8h.html" target="_top" xlink:title=" ">
<polygon fill="none" stroke="black" points="71.56,-110.5 71.56,-128.5 124.8,-128.5 124.8,-110.5 71.56,-110.5"/>
<text text-anchor="middle" x="98.18" y="-116.5" font-family="Helvetica,sans-Serif" font-size="10.00">consts.h</text>
</a>
</g>
</g>
<!-- Node3&#45;&gt;Node4 -->
<g id="edge3" class="edge">
<title>Node3&#45;&gt;Node4</title>
<path fill="none" stroke="midnightblue" d="M101.55,-165.22C101.01,-158.1 100.22,-147.58 99.54,-138.53"/>
<polygon fill="midnightblue" stroke="midnightblue" points="103.03,-138.26 98.78,-128.55 96.05,-138.78 103.03,-138.26"/>
</g>
<!-- Node9 -->
<g id="node9" class="node">
<title>Node9</title>
<g id="a_node9"><a xlink:title=" ">
<polygon fill="none" stroke="#bfbfbf" points="142.95,-110.5 142.95,-128.5 183.4,-128.5 183.4,-110.5 142.95,-110.5"/>
<text text-anchor="middle" x="163.18" y="-116.5" font-family="Helvetica,sans-Serif" font-size="10.00">string</text>
</a>
</g>
</g>
<!-- Node3&#45;&gt;Node9 -->
<g id="edge8" class="edge">
<title>Node3&#45;&gt;Node9</title>
<path fill="none" stroke="midnightblue" d="M111.44,-165.45C120.58,-157.51 134.76,-145.19 145.97,-135.45"/>
<polygon fill="midnightblue" stroke="midnightblue" points="148.57,-137.83 153.83,-128.63 143.98,-132.54 148.57,-137.83"/>
</g>
<!-- Node10 -->
<g id="node10" class="node">
<title>Node10</title>
<g id="a_node10"><a xlink:title=" ">
<polygon fill="none" stroke="#bfbfbf" points="201.56,-110.5 201.56,-128.5 244.79,-128.5 244.79,-110.5 201.56,-110.5"/>
<text text-anchor="middle" x="223.18" y="-116.5" font-family="Helvetica,sans-Serif" font-size="10.00">vector</text>
</a>
</g>
</g>
<!-- Node3&#45;&gt;Node10 -->
<g id="edge9" class="edge">
<title>Node3&#45;&gt;Node10</title>
<path fill="none" stroke="midnightblue" d="M120.55,-165.45C140.45,-156.73 172.42,-142.73 195.39,-132.67"/>
<polygon fill="midnightblue" stroke="midnightblue" points="196.87,-135.84 204.63,-128.63 194.06,-129.43 196.87,-135.84"/>
</g>
<!-- Node5 -->
<g id="node5" class="node">
<title>Node5</title>
<g id="a_node5"><a xlink:href="../../d9/d49/types_8h.html" target="_top" xlink:title=" ">
<polygon fill="none" stroke="black" points="161.06,-55.5 161.06,-73.5 209.3,-73.5 209.3,-55.5 161.06,-55.5"/>
<text text-anchor="middle" x="185.18" y="-61.5" font-family="Helvetica,sans-Serif" font-size="10.00">types.h</text>
</a>
</g>
</g>
<!-- Node4&#45;&gt;Node5 -->
<g id="edge4" class="edge">
<title>Node4&#45;&gt;Node5</title>
<path fill="none" stroke="midnightblue" d="M111.39,-110.45C125.06,-102.12 146.65,-88.97 162.95,-79.04"/>
<polygon fill="midnightblue" stroke="midnightblue" points="165.12,-81.82 171.84,-73.63 161.48,-75.84 165.12,-81.82"/>
</g>
<!-- Node6 -->
<g id="node6" class="node">
<title>Node6</title>
<g id="a_node6"><a xlink:title=" ">
<polygon fill="none" stroke="#bfbfbf" points="95.06,-0.5 95.06,-18.5 143.29,-18.5 143.29,-0.5 95.06,-0.5"/>
<text text-anchor="middle" x="119.18" y="-6.5" font-family="Helvetica,sans-Serif" font-size="10.00">cassert</text>
</a>
</g>
</g>
<!-- Node5&#45;&gt;Node6 -->
<g id="edge5" class="edge">
<title>Node5&#45;&gt;Node6</title>
<path fill="none" stroke="midnightblue" d="M175.15,-55.45C165.17,-47.43 149.62,-34.95 137.44,-25.17"/>
<polygon fill="midnightblue" stroke="midnightblue" points="139.28,-22.16 129.3,-18.63 134.9,-27.62 139.28,-22.16"/>
</g>
<!-- Node7 -->
<g id="node7" class="node">
<title>Node7</title>
<g id="a_node7"><a xlink:title=" ">
<polygon fill="none" stroke="#bfbfbf" points="161.06,-0.5 161.06,-18.5 209.3,-18.5 209.3,-0.5 161.06,-0.5"/>
<text text-anchor="middle" x="185.18" y="-6.5" font-family="Helvetica,sans-Serif" font-size="10.00">cstddef</text>
</a>
</g>
</g>
<!-- Node5&#45;&gt;Node7 -->
<g id="edge6" class="edge">
<title>Node5&#45;&gt;Node7</title>
<path fill="none" stroke="midnightblue" d="M185.18,-55.22C185.18,-48.18 185.18,-37.81 185.18,-28.83"/>
<polygon fill="midnightblue" stroke="midnightblue" points="188.68,-28.55 185.18,-18.55 181.68,-28.55 188.68,-28.55"/>
</g>
<!-- Node8 -->
<g id="node8" class="node">
<title>Node8</title>
<g id="a_node8"><a xlink:title=" ">
<polygon fill="none" stroke="#bfbfbf" points="227.11,-0.5 227.11,-18.5 289.24,-18.5 289.24,-0.5 227.11,-0.5"/>
<text text-anchor="middle" x="258.18" y="-6.5" font-family="Helvetica,sans-Serif" font-size="10.00">type_traits</text>
</a>
</g>
</g>
<!-- Node5&#45;&gt;Node8 -->
<g id="edge7" class="edge">
<title>Node5&#45;&gt;Node8</title>
<path fill="none" stroke="midnightblue" d="M196.26,-55.45C207.52,-47.28 225.18,-34.46 238.76,-24.6"/>
<polygon fill="midnightblue" stroke="midnightblue" points="240.95,-27.33 246.99,-18.63 236.84,-21.67 240.95,-27.33"/>
</g>
<!-- Node11&#45;&gt;Node4 -->
<g id="edge11" class="edge">
<title>Node11&#45;&gt;Node4</title>
<path fill="none" stroke="midnightblue" d="M37.96,-165.45C48.8,-157.36 65.75,-144.7 78.91,-134.88"/>
<polygon fill="midnightblue" stroke="midnightblue" points="81.37,-137.41 87.29,-128.63 77.19,-131.8 81.37,-137.41"/>
</g>
<!-- Node12&#45;&gt;Node9 -->
<g id="edge13" class="edge">
<title>Node12&#45;&gt;Node9</title>
<path fill="none" stroke="midnightblue" d="M216.61,-165.45C207.08,-157.43 192.24,-144.95 180.61,-135.17"/>
<polygon fill="midnightblue" stroke="midnightblue" points="182.74,-132.38 172.84,-128.63 178.23,-137.74 182.74,-132.38"/>
</g>
<!-- Node12&#45;&gt;Node10 -->
<g id="edge14" class="edge">
<title>Node12&#45;&gt;Node10</title>
<path fill="none" stroke="midnightblue" d="M225.71,-165.22C225.31,-158.18 224.72,-147.81 224.21,-138.83"/>
<polygon fill="midnightblue" stroke="midnightblue" points="227.69,-138.34 223.63,-128.55 220.7,-138.73 227.69,-138.34"/>
</g>
<!-- Node14&#45;&gt;Node5 -->
<g id="edge17" class="edge">
<title>Node14&#45;&gt;Node5</title>
<path fill="none" stroke="midnightblue" d="M274.02,-220.22C275.68,-199.71 277.42,-145.59 254.18,-110 245,-95.94 229.65,-85.4 215.76,-78.11"/>
<polygon fill="midnightblue" stroke="midnightblue" points="216.99,-74.82 206.47,-73.58 213.93,-81.11 216.99,-74.82"/>
</g>
<!-- Node15 -->
<g id="node15" class="node">
<title>Node15</title>
<g id="a_node15"><a xlink:title=" ">
<polygon fill="none" stroke="#bfbfbf" points="301.66,-165.5 301.66,-183.5 352.69,-183.5 352.69,-165.5 301.66,-165.5"/>
<text text-anchor="middle" x="327.18" y="-171.5" font-family="Helvetica,sans-Serif" font-size="10.00">optional</text>
</a>
</g>
</g>
<!-- Node14&#45;&gt;Node15 -->
<g id="edge18" class="edge">
<title>Node14&#45;&gt;Node15</title>
<path fill="none" stroke="midnightblue" d="M281.61,-220.22C289.67,-212.32 301.99,-200.22 311.79,-190.61"/>
<polygon fill="midnightblue" stroke="midnightblue" points="314.29,-193.05 318.98,-183.55 309.39,-188.06 314.29,-193.05"/>
</g>
</g>
</svg>
