<?xml version="1.0" encoding="UTF-8" standalone="no"?>
<!DOCTYPE svg PUBLIC "-//W3C//DTD SVG 1.1//EN"
 "http://www.w3.org/Graphics/SVG/1.1/DTD/svg11.dtd">
<!-- Generated by graphviz version 2.42.3 (20191010.1750)
 -->
<!-- Title: txtranslate.cpp Pages: 1 -->
<svg width="824pt" height="797pt"
 viewBox="0.00 0.00 823.81 797.00" xmlns="http://www.w3.org/2000/svg" xmlns:xlink="http://www.w3.org/1999/xlink">
<g id="graph0" class="graph" transform="scale(1 1) rotate(0) translate(4 793)">
<title>txtranslate.cpp</title>
<!-- Node1 -->
<g id="node1" class="node">
<title>Node1</title>
<g id="a_node1"><a xlink:title=" ">
<polygon fill="#bfbfbf" stroke="black" points="574.78,-770.5 574.78,-788.5 655.82,-788.5 655.82,-770.5 574.78,-770.5"/>
<text text-anchor="middle" x="615.3" y="-776.5" font-family="Helvetica,sans-Serif" font-size="10.00">txtranslate.cpp</text>
</a>
</g>
</g>
<!-- Node2 -->
<g id="node2" class="node">
<title>Node2</title>
<g id="a_node2"><a xlink:href="../../db/d59/_saver_8h.html" target="_top" xlink:title=" ">
<polygon fill="none" stroke="black" points="327.9,-715.5 327.9,-733.5 406.7,-733.5 406.7,-715.5 327.9,-715.5"/>
<text text-anchor="middle" x="367.3" y="-721.5" font-family="Helvetica,sans-Serif" font-size="10.00">tralics/Saver.h</text>
</a>
</g>
</g>
<!-- Node1&#45;&gt;Node2 -->
<g id="edge1" class="edge">
<title>Node1&#45;&gt;Node2</title>
<path fill="none" stroke="midnightblue" d="M577.63,-770.45C534.08,-761.14 462.32,-745.81 414.93,-735.68"/>
<polygon fill="midnightblue" stroke="midnightblue" points="415.42,-732.21 404.91,-733.54 413.96,-739.05 415.42,-732.21"/>
</g>
<!-- Node3 -->
<g id="node3" class="node">
<title>Node3</title>
<g id="a_node3"><a xlink:href="../../d2/d1b/txparser_8h.html" target="_top" xlink:title=" ">
<polygon fill="none" stroke="black" points="270.17,-660.5 270.17,-678.5 338.42,-678.5 338.42,-660.5 270.17,-660.5"/>
<text text-anchor="middle" x="304.3" y="-666.5" font-family="Helvetica,sans-Serif" font-size="10.00">../txparser.h</text>
</a>
</g>
</g>
<!-- Node1&#45;&gt;Node3 -->
<g id="edge67" class="edge">
<title>Node1&#45;&gt;Node3</title>
<path fill="none" stroke="midnightblue" d="M592.18,-770.47C537.53,-751.49 400.24,-703.82 337.05,-681.87"/>
<polygon fill="midnightblue" stroke="midnightblue" points="338.17,-678.56 327.57,-678.58 335.87,-685.17 338.17,-678.56"/>
</g>
<!-- Node39 -->
<g id="node39" class="node">
<title>Node39</title>
<g id="a_node39"><a xlink:href="../../d5/d87/globals_8h.html" target="_top" xlink:title=" ">
<polygon fill="none" stroke="black" points="377.84,-275.5 377.84,-293.5 462.76,-293.5 462.76,-275.5 377.84,-275.5"/>
<text text-anchor="middle" x="420.3" y="-281.5" font-family="Helvetica,sans-Serif" font-size="10.00">tralics/globals.h</text>
</a>
</g>
</g>
<!-- Node1&#45;&gt;Node39 -->
<g id="edge51" class="edge">
<title>Node1&#45;&gt;Node39</title>
<path fill="none" stroke="midnightblue" d="M618.1,-770.33C626.33,-745.09 648.67,-666.41 630.3,-605 590.79,-472.97 477.24,-344.95 435.73,-301.27"/>
<polygon fill="midnightblue" stroke="midnightblue" points="438.1,-298.68 428.64,-293.9 433.05,-303.54 438.1,-298.68"/>
</g>
<!-- Node41 -->
<g id="node41" class="node">
<title>Node41</title>
<g id="a_node41"><a xlink:href="../../d7/d79/txinline_8h.html" target="_top" xlink:title=" ">
<polygon fill="none" stroke="black" points="519.57,-715.5 519.57,-733.5 575.03,-733.5 575.03,-715.5 519.57,-715.5"/>
<text text-anchor="middle" x="547.3" y="-721.5" font-family="Helvetica,sans-Serif" font-size="10.00">txinline.h</text>
</a>
</g>
</g>
<!-- Node1&#45;&gt;Node41 -->
<g id="edge58" class="edge">
<title>Node1&#45;&gt;Node41</title>
<path fill="none" stroke="midnightblue" d="M604.97,-770.45C594.59,-762.36 578.35,-749.7 565.75,-739.88"/>
<polygon fill="midnightblue" stroke="midnightblue" points="567.76,-737.01 557.72,-733.63 563.46,-742.53 567.76,-737.01"/>
</g>
<!-- Node46 -->
<g id="node46" class="node">
<title>Node46</title>
<g id="a_node46"><a xlink:title=" ">
<polygon fill="none" stroke="#bfbfbf" points="677.63,-715.5 677.63,-733.5 746.97,-733.5 746.97,-715.5 677.63,-715.5"/>
<text text-anchor="middle" x="712.3" y="-721.5" font-family="Helvetica,sans-Serif" font-size="10.00">fmt/format.h</text>
</a>
</g>
</g>
<!-- Node1&#45;&gt;Node46 -->
<g id="edge68" class="edge">
<title>Node1&#45;&gt;Node46</title>
<path fill="none" stroke="midnightblue" d="M630.03,-770.45C645.56,-761.97 670.25,-748.48 688.53,-738.49"/>
<polygon fill="midnightblue" stroke="midnightblue" points="690.33,-741.49 697.43,-733.63 686.97,-735.35 690.33,-741.49"/>
</g>
<!-- Node47 -->
<g id="node47" class="node">
<title>Node47</title>
<g id="a_node47"><a xlink:title=" ">
<polygon fill="none" stroke="#bfbfbf" points="764.79,-715.5 764.79,-733.5 815.81,-733.5 815.81,-715.5 764.79,-715.5"/>
<text text-anchor="middle" x="790.3" y="-721.5" font-family="Helvetica,sans-Serif" font-size="10.00">unistd.h</text>
</a>
</g>
</g>
<!-- Node1&#45;&gt;Node47 -->
<g id="edge69" class="edge">
<title>Node1&#45;&gt;Node47</title>
<path fill="none" stroke="midnightblue" d="M641.88,-770.45C672.03,-761.32 721.35,-746.38 754.79,-736.26"/>
<polygon fill="midnightblue" stroke="midnightblue" points="756.06,-739.53 764.61,-733.28 754.03,-732.83 756.06,-739.53"/>
</g>
<!-- Node2&#45;&gt;Node3 -->
<g id="edge2" class="edge">
<title>Node2&#45;&gt;Node3</title>
<path fill="none" stroke="midnightblue" d="M357.73,-715.45C348.2,-707.43 333.36,-694.95 321.73,-685.17"/>
<polygon fill="midnightblue" stroke="midnightblue" points="323.86,-682.38 313.96,-678.63 319.36,-687.74 323.86,-682.38"/>
</g>
<!-- Node4 -->
<g id="node4" class="node">
<title>Node4</title>
<g id="a_node4"><a xlink:href="../../d8/dd6/_e_q_t_b_8h.html" target="_top" xlink:title=" ">
<polygon fill="none" stroke="black" points="70.07,-495.5 70.07,-513.5 150.53,-513.5 150.53,-495.5 70.07,-495.5"/>
<text text-anchor="middle" x="110.3" y="-501.5" font-family="Helvetica,sans-Serif" font-size="10.00">tralics/EQTB.h</text>
</a>
</g>
</g>
<!-- Node3&#45;&gt;Node4 -->
<g id="edge3" class="edge">
<title>Node3&#45;&gt;Node4</title>
<path fill="none" stroke="midnightblue" d="M270.1,-667.1C232.56,-664.01 172.08,-654.29 130.3,-624 106.84,-607 103.4,-596.82 95.3,-569 90.8,-553.55 95.91,-535.7 101.35,-522.87"/>
<polygon fill="midnightblue" stroke="midnightblue" points="104.53,-524.33 105.61,-513.79 98.19,-521.36 104.53,-524.33"/>
</g>
<!-- Node23 -->
<g id="node23" class="node">
<title>Node23</title>
<g id="a_node23"><a xlink:href="../../d3/d6b/txcond_8h.html" target="_top" xlink:title=" ">
<polygon fill="none" stroke="black" points="521.4,-275.5 521.4,-293.5 575.2,-293.5 575.2,-275.5 521.4,-275.5"/>
<text text-anchor="middle" x="548.3" y="-281.5" font-family="Helvetica,sans-Serif" font-size="10.00">txcond.h</text>
</a>
</g>
</g>
<!-- Node3&#45;&gt;Node23 -->
<g id="edge25" class="edge">
<title>Node3&#45;&gt;Node23</title>
<path fill="none" stroke="midnightblue" d="M327.68,-660.41C345.63,-653.2 370.01,-641.14 386.3,-624 481.21,-524.14 529.86,-358.29 543.91,-303.61"/>
<polygon fill="midnightblue" stroke="midnightblue" points="547.36,-304.24 546.39,-293.69 540.57,-302.54 547.36,-304.24"/>
</g>
<!-- Node25 -->
<g id="node25" class="node">
<title>Node25</title>
<g id="a_node25"><a xlink:href="../../d7/d4d/txfonts_8h.html" target="_top" xlink:title=" ">
<polygon fill="none" stroke="black" points="323.4,-550.5 323.4,-568.5 377.2,-568.5 377.2,-550.5 323.4,-550.5"/>
<text text-anchor="middle" x="350.3" y="-556.5" font-family="Helvetica,sans-Serif" font-size="10.00">txfonts.h</text>
</a>
</g>
</g>
<!-- Node3&#45;&gt;Node25 -->
<g id="edge28" class="edge">
<title>Node3&#45;&gt;Node25</title>
<path fill="none" stroke="midnightblue" d="M304.25,-660.3C304.48,-647.83 306.05,-623.56 314.3,-605 319.03,-594.35 326.98,-584.12 334.21,-576.16"/>
<polygon fill="midnightblue" stroke="midnightblue" points="336.91,-578.4 341.31,-568.76 331.86,-573.55 336.91,-578.4"/>
</g>
<!-- Node30 -->
<g id="node30" class="node">
<title>Node30</title>
<g id="a_node30"><a xlink:href="../../d7/d7e/txhash_8h.html" target="_top" xlink:title=" ">
<polygon fill="none" stroke="black" points="213.4,-605.5 213.4,-623.5 267.2,-623.5 267.2,-605.5 213.4,-605.5"/>
<text text-anchor="middle" x="240.3" y="-611.5" font-family="Helvetica,sans-Serif" font-size="10.00">txhash.h</text>
</a>
</g>
</g>
<!-- Node3&#45;&gt;Node30 -->
<g id="edge36" class="edge">
<title>Node3&#45;&gt;Node30</title>
<path fill="none" stroke="midnightblue" d="M294.58,-660.45C284.9,-652.43 269.82,-639.95 258.01,-630.17"/>
<polygon fill="midnightblue" stroke="midnightblue" points="260.05,-627.31 250.11,-623.63 255.58,-632.7 260.05,-627.31"/>
</g>
<!-- Node32 -->
<g id="node32" class="node">
<title>Node32</title>
<g id="a_node32"><a xlink:href="../../de/d7c/tximage_8h.html" target="_top" xlink:title=" ">
<polygon fill="none" stroke="black" points="8.62,-330.5 8.62,-348.5 67.98,-348.5 67.98,-330.5 8.62,-330.5"/>
<text text-anchor="middle" x="38.3" y="-336.5" font-family="Helvetica,sans-Serif" font-size="10.00">tximage.h</text>
</a>
</g>
</g>
<!-- Node3&#45;&gt;Node32 -->
<g id="edge39" class="edge">
<title>Node3&#45;&gt;Node32</title>
<path fill="none" stroke="midnightblue" d="M269.84,-666.25C228.78,-662.36 159.1,-651.9 106.3,-624 69.74,-604.68 38.3,-601.85 38.3,-560.5 38.3,-560.5 38.3,-560.5 38.3,-448.5 38.3,-417.02 38.3,-380.37 38.3,-358.88"/>
<polygon fill="midnightblue" stroke="midnightblue" points="41.8,-358.63 38.3,-348.63 34.8,-358.63 41.8,-358.63"/>
</g>
<!-- Node33 -->
<g id="node33" class="node">
<title>Node33</title>
<g id="a_node33"><a xlink:href="../../de/d29/txio_8h.html" target="_top" xlink:title=" ">
<polygon fill="none" stroke="black" points="471.35,-605.5 471.35,-623.5 511.25,-623.5 511.25,-605.5 471.35,-605.5"/>
<text text-anchor="middle" x="491.3" y="-611.5" font-family="Helvetica,sans-Serif" font-size="10.00">txio.h</text>
</a>
</g>
</g>
<!-- Node3&#45;&gt;Node33 -->
<g id="edge42" class="edge">
<title>Node3&#45;&gt;Node33</title>
<path fill="none" stroke="midnightblue" d="M332.7,-660.45C367.48,-650.59 426.12,-633.97 461.51,-623.94"/>
<polygon fill="midnightblue" stroke="midnightblue" points="462.61,-627.27 471.27,-621.18 460.7,-620.54 462.61,-627.27"/>
</g>
<!-- Node35 -->
<g id="node35" class="node">
<title>Node35</title>
<g id="a_node35"><a xlink:href="../../dc/d65/txstack_8h.html" target="_top" xlink:title=" ">
<polygon fill="none" stroke="black" points="139.57,-605.5 139.57,-623.5 195.03,-623.5 195.03,-605.5 139.57,-605.5"/>
<text text-anchor="middle" x="167.3" y="-611.5" font-family="Helvetica,sans-Serif" font-size="10.00">txstack.h</text>
</a>
</g>
</g>
<!-- Node3&#45;&gt;Node35 -->
<g id="edge45" class="edge">
<title>Node3&#45;&gt;Node35</title>
<path fill="none" stroke="midnightblue" d="M283.49,-660.45C260.66,-651.62 223.79,-637.35 197.72,-627.27"/>
<polygon fill="midnightblue" stroke="midnightblue" points="198.89,-623.97 188.3,-623.63 196.37,-630.5 198.89,-623.97"/>
</g>
<!-- Node38 -->
<g id="node38" class="node">
<title>Node38</title>
<g id="a_node38"><a xlink:href="../../d8/d3d/txstats_8h.html" target="_top" xlink:title=" ">
<polygon fill="none" stroke="black" points="323.68,-605.5 323.68,-623.5 376.92,-623.5 376.92,-605.5 323.68,-605.5"/>
<text text-anchor="middle" x="350.3" y="-611.5" font-family="Helvetica,sans-Serif" font-size="10.00">txstats.h</text>
</a>
</g>
</g>
<!-- Node3&#45;&gt;Node38 -->
<g id="edge50" class="edge">
<title>Node3&#45;&gt;Node38</title>
<path fill="none" stroke="midnightblue" d="M311.49,-660.22C318.21,-652.47 328.43,-640.7 336.69,-631.18"/>
<polygon fill="midnightblue" stroke="midnightblue" points="339.4,-633.4 343.31,-623.55 334.11,-628.81 339.4,-633.4"/>
</g>
<!-- Node5 -->
<g id="node5" class="node">
<title>Node5</title>
<g id="a_node5"><a xlink:href="../../d9/d18/txscaled_8h.html" target="_top" xlink:title=" ">
<polygon fill="none" stroke="black" points="88.62,-385.5 88.62,-403.5 157.98,-403.5 157.98,-385.5 88.62,-385.5"/>
<text text-anchor="middle" x="123.3" y="-391.5" font-family="Helvetica,sans-Serif" font-size="10.00">../txscaled.h</text>
</a>
</g>
</g>
<!-- Node4&#45;&gt;Node5 -->
<g id="edge4" class="edge">
<title>Node4&#45;&gt;Node5</title>
<path fill="none" stroke="midnightblue" d="M111.28,-495.38C113.35,-478.18 118.22,-437.7 121.09,-413.89"/>
<polygon fill="midnightblue" stroke="midnightblue" points="124.59,-414.06 122.31,-403.71 117.64,-413.22 124.59,-414.06"/>
</g>
<!-- Node6 -->
<g id="node6" class="node">
<title>Node6</title>
<g id="a_node6"><a xlink:href="../../dc/d91/txtokenlist_8h.html" target="_top" xlink:title=" ">
<polygon fill="none" stroke="black" points="88.9,-330.5 88.9,-348.5 157.7,-348.5 157.7,-330.5 88.9,-330.5"/>
<text text-anchor="middle" x="123.3" y="-336.5" font-family="Helvetica,sans-Serif" font-size="10.00">txtokenlist.h</text>
</a>
</g>
</g>
<!-- Node5&#45;&gt;Node6 -->
<g id="edge5" class="edge">
<title>Node5&#45;&gt;Node6</title>
<path fill="none" stroke="midnightblue" d="M123.3,-385.22C123.3,-378.18 123.3,-367.81 123.3,-358.83"/>
<polygon fill="midnightblue" stroke="midnightblue" points="126.8,-358.55 123.3,-348.55 119.8,-358.55 126.8,-358.55"/>
</g>
<!-- Node7 -->
<g id="node7" class="node">
<title>Node7</title>
<g id="a_node7"><a xlink:href="../../d5/daf/_istring_8h.html" target="_top" xlink:title=" ">
<polygon fill="none" stroke="black" points="185.07,-275.5 185.07,-293.5 265.53,-293.5 265.53,-275.5 185.07,-275.5"/>
<text text-anchor="middle" x="225.3" y="-281.5" font-family="Helvetica,sans-Serif" font-size="10.00">tralics/Istring.h</text>
</a>
</g>
</g>
<!-- Node6&#45;&gt;Node7 -->
<g id="edge6" class="edge">
<title>Node6&#45;&gt;Node7</title>
<path fill="none" stroke="midnightblue" d="M138.79,-330.45C155.19,-321.93 181.32,-308.35 200.57,-298.35"/>
<polygon fill="midnightblue" stroke="midnightblue" points="202.4,-301.34 209.66,-293.63 199.17,-295.13 202.4,-301.34"/>
</g>
<!-- Node17 -->
<g id="node17" class="node">
<title>Node17</title>
<g id="a_node17"><a xlink:href="../../dd/dcd/_token_8h.html" target="_top" xlink:title=" ">
<polygon fill="none" stroke="black" points="83.34,-275.5 83.34,-293.5 163.26,-293.5 163.26,-275.5 83.34,-275.5"/>
<text text-anchor="middle" x="123.3" y="-281.5" font-family="Helvetica,sans-Serif" font-size="10.00">tralics/Token.h</text>
</a>
</g>
</g>
<!-- Node6&#45;&gt;Node17 -->
<g id="edge17" class="edge">
<title>Node6&#45;&gt;Node17</title>
<path fill="none" stroke="midnightblue" d="M123.3,-330.22C123.3,-323.18 123.3,-312.81 123.3,-303.83"/>
<polygon fill="midnightblue" stroke="midnightblue" points="126.8,-303.55 123.3,-293.55 119.8,-303.55 126.8,-303.55"/>
</g>
<!-- Node22 -->
<g id="node22" class="node">
<title>Node22</title>
<g id="a_node22"><a xlink:title=" ">
<polygon fill="none" stroke="#bfbfbf" points="19.91,-275.5 19.91,-293.5 58.69,-293.5 58.69,-275.5 19.91,-275.5"/>
<text text-anchor="middle" x="39.3" y="-281.5" font-family="Helvetica,sans-Serif" font-size="10.00">utility</text>
</a>
</g>
</g>
<!-- Node6&#45;&gt;Node22 -->
<g id="edge24" class="edge">
<title>Node6&#45;&gt;Node22</title>
<path fill="none" stroke="midnightblue" d="M110.54,-330.45C97.34,-322.12 76.5,-308.97 60.76,-299.04"/>
<polygon fill="midnightblue" stroke="midnightblue" points="62.5,-296 52.18,-293.63 58.77,-301.92 62.5,-296"/>
</g>
<!-- Node8 -->
<g id="node8" class="node">
<title>Node8</title>
<g id="a_node8"><a xlink:href="../../d0/d0b/enums_8h.html" target="_top" xlink:title=" ">
<polygon fill="none" stroke="black" points="348.12,-165.5 348.12,-183.5 402.48,-183.5 402.48,-165.5 348.12,-165.5"/>
<text text-anchor="middle" x="375.3" y="-171.5" font-family="Helvetica,sans-Serif" font-size="10.00">enums.h</text>
</a>
</g>
</g>
<!-- Node7&#45;&gt;Node8 -->
<g id="edge7" class="edge">
<title>Node7&#45;&gt;Node8</title>
<path fill="none" stroke="midnightblue" d="M235.2,-275.42C250.43,-263.09 280.61,-239.02 307.3,-220 322.52,-209.16 340.19,-197.62 353.7,-189.01"/>
<polygon fill="midnightblue" stroke="midnightblue" points="355.73,-191.87 362.31,-183.57 351.99,-185.96 355.73,-191.87"/>
</g>
<!-- Node14 -->
<g id="node14" class="node">
<title>Node14</title>
<g id="a_node14"><a xlink:href="../../d8/d3c/util_8h.html" target="_top" xlink:title=" ">
<polygon fill="none" stroke="black" points="66.74,-220.5 66.74,-238.5 103.86,-238.5 103.86,-220.5 66.74,-220.5"/>
<text text-anchor="middle" x="85.3" y="-226.5" font-family="Helvetica,sans-Serif" font-size="10.00">util.h</text>
</a>
</g>
</g>
<!-- Node7&#45;&gt;Node14 -->
<g id="edge13" class="edge">
<title>Node7&#45;&gt;Node14</title>
<path fill="none" stroke="midnightblue" d="M204.04,-275.45C179.89,-266.31 140.38,-251.35 113.63,-241.23"/>
<polygon fill="midnightblue" stroke="midnightblue" points="114.66,-237.87 104.07,-237.6 112.18,-244.42 114.66,-237.87"/>
</g>
<!-- Node15 -->
<g id="node15" class="node">
<title>Node15</title>
<g id="a_node15"><a xlink:title=" ">
<polygon fill="none" stroke="#bfbfbf" points="89.07,-165.5 89.07,-183.5 129.53,-183.5 129.53,-165.5 89.07,-165.5"/>
<text text-anchor="middle" x="109.3" y="-171.5" font-family="Helvetica,sans-Serif" font-size="10.00">string</text>
</a>
</g>
</g>
<!-- Node7&#45;&gt;Node15 -->
<g id="edge16" class="edge">
<title>Node7&#45;&gt;Node15</title>
<path fill="none" stroke="midnightblue" d="M209.36,-275.4C194.59,-267.41 172.52,-254.21 156.3,-239 141.48,-225.11 128.08,-206.05 119.42,-192.44"/>
<polygon fill="midnightblue" stroke="midnightblue" points="122.22,-190.32 113.99,-183.65 116.27,-194 122.22,-190.32"/>
</g>
<!-- Node16 -->
<g id="node16" class="node">
<title>Node16</title>
<g id="a_node16"><a xlink:title=" ">
<polygon fill="none" stroke="#bfbfbf" points="315.91,-220.5 315.91,-238.5 354.69,-238.5 354.69,-220.5 315.91,-220.5"/>
<text text-anchor="middle" x="335.3" y="-226.5" font-family="Helvetica,sans-Serif" font-size="10.00">array</text>
</a>
</g>
</g>
<!-- Node7&#45;&gt;Node16 -->
<g id="edge15" class="edge">
<title>Node7&#45;&gt;Node16</title>
<path fill="none" stroke="midnightblue" d="M242.01,-275.45C259.85,-266.85 288.38,-253.1 309.2,-243.08"/>
<polygon fill="midnightblue" stroke="midnightblue" points="310.95,-246.12 318.44,-238.63 307.91,-239.81 310.95,-246.12"/>
</g>
<!-- Node9 -->
<g id="node9" class="node">
<title>Node9</title>
<g id="a_node9"><a xlink:href="../../d8/db5/consts_8h.html" target="_top" xlink:title=" ">
<polygon fill="none" stroke="black" points="348.68,-110.5 348.68,-128.5 401.92,-128.5 401.92,-110.5 348.68,-110.5"/>
<text text-anchor="middle" x="375.3" y="-116.5" font-family="Helvetica,sans-Serif" font-size="10.00">consts.h</text>
</a>
</g>
</g>
<!-- Node8&#45;&gt;Node9 -->
<g id="edge8" class="edge">
<title>Node8&#45;&gt;Node9</title>
<path fill="none" stroke="midnightblue" d="M375.3,-165.22C375.3,-158.18 375.3,-147.81 375.3,-138.83"/>
<polygon fill="midnightblue" stroke="midnightblue" points="378.8,-138.55 375.3,-128.55 371.8,-138.55 378.8,-138.55"/>
</g>
<!-- Node10 -->
<g id="node10" class="node">
<title>Node10</title>
<g id="a_node10"><a xlink:href="../../d9/d49/types_8h.html" target="_top" xlink:title=" ">
<polygon fill="none" stroke="black" points="289.18,-55.5 289.18,-73.5 337.42,-73.5 337.42,-55.5 289.18,-55.5"/>
<text text-anchor="middle" x="313.3" y="-61.5" font-family="Helvetica,sans-Serif" font-size="10.00">types.h</text>
</a>
</g>
</g>
<!-- Node9&#45;&gt;Node10 -->
<g id="edge9" class="edge">
<title>Node9&#45;&gt;Node10</title>
<path fill="none" stroke="midnightblue" d="M365.88,-110.45C356.51,-102.43 341.9,-89.95 330.46,-80.17"/>
<polygon fill="midnightblue" stroke="midnightblue" points="332.68,-77.46 322.8,-73.63 328.13,-82.78 332.68,-77.46"/>
</g>
<!-- Node11 -->
<g id="node11" class="node">
<title>Node11</title>
<g id="a_node11"><a xlink:title=" ">
<polygon fill="none" stroke="#bfbfbf" points="223.18,-0.5 223.18,-18.5 271.41,-18.5 271.41,-0.5 223.18,-0.5"/>
<text text-anchor="middle" x="247.3" y="-6.5" font-family="Helvetica,sans-Serif" font-size="10.00">cassert</text>
</a>
</g>
</g>
<!-- Node10&#45;&gt;Node11 -->
<g id="edge10" class="edge">
<title>Node10&#45;&gt;Node11</title>
<path fill="none" stroke="midnightblue" d="M303.28,-55.45C293.29,-47.43 277.74,-34.95 265.56,-25.17"/>
<polygon fill="midnightblue" stroke="midnightblue" points="267.41,-22.16 257.42,-18.63 263.02,-27.62 267.41,-22.16"/>
</g>
<!-- Node12 -->
<g id="node12" class="node">
<title>Node12</title>
<g id="a_node12"><a xlink:title=" ">
<polygon fill="none" stroke="#bfbfbf" points="289.18,-0.5 289.18,-18.5 337.42,-18.5 337.42,-0.5 289.18,-0.5"/>
<text text-anchor="middle" x="313.3" y="-6.5" font-family="Helvetica,sans-Serif" font-size="10.00">cstddef</text>
</a>
</g>
</g>
<!-- Node10&#45;&gt;Node12 -->
<g id="edge11" class="edge">
<title>Node10&#45;&gt;Node12</title>
<path fill="none" stroke="midnightblue" d="M313.3,-55.22C313.3,-48.18 313.3,-37.81 313.3,-28.83"/>
<polygon fill="midnightblue" stroke="midnightblue" points="316.8,-28.55 313.3,-18.55 309.8,-28.55 316.8,-28.55"/>
</g>
<!-- Node13 -->
<g id="node13" class="node">
<title>Node13</title>
<g id="a_node13"><a xlink:title=" ">
<polygon fill="none" stroke="#bfbfbf" points="355.23,-0.5 355.23,-18.5 417.37,-18.5 417.37,-0.5 355.23,-0.5"/>
<text text-anchor="middle" x="386.3" y="-6.5" font-family="Helvetica,sans-Serif" font-size="10.00">type_traits</text>
</a>
</g>
</g>
<!-- Node10&#45;&gt;Node13 -->
<g id="edge12" class="edge">
<title>Node10&#45;&gt;Node13</title>
<path fill="none" stroke="midnightblue" d="M324.39,-55.45C335.64,-47.28 353.3,-34.46 366.88,-24.6"/>
<polygon fill="midnightblue" stroke="midnightblue" points="369.07,-27.33 375.11,-18.63 364.96,-21.67 369.07,-27.33"/>
</g>
<!-- Node14&#45;&gt;Node15 -->
<g id="edge14" class="edge">
<title>Node14&#45;&gt;Node15</title>
<path fill="none" stroke="midnightblue" d="M89.05,-220.22C92.34,-212.94 97.25,-202.11 101.4,-192.93"/>
<polygon fill="midnightblue" stroke="midnightblue" points="104.72,-194.1 105.65,-183.55 98.34,-191.22 104.72,-194.1"/>
</g>
<!-- Node18 -->
<g id="node18" class="node">
<title>Node18</title>
<g id="a_node18"><a xlink:href="../../d2/d68/_cmd_chr_8h.html" target="_top" xlink:title=" ">
<polygon fill="none" stroke="black" points="198.79,-220.5 198.79,-238.5 259.81,-238.5 259.81,-220.5 198.79,-220.5"/>
<text text-anchor="middle" x="229.3" y="-226.5" font-family="Helvetica,sans-Serif" font-size="10.00">CmdChr.h</text>
</a>
</g>
</g>
<!-- Node17&#45;&gt;Node18 -->
<g id="edge18" class="edge">
<title>Node17&#45;&gt;Node18</title>
<path fill="none" stroke="midnightblue" d="M139.4,-275.45C156.52,-266.89 183.84,-253.23 203.88,-243.21"/>
<polygon fill="midnightblue" stroke="midnightblue" points="205.67,-246.23 213.05,-238.63 202.54,-239.97 205.67,-246.23"/>
</g>
<!-- Node21 -->
<g id="node21" class="node">
<title>Node21</title>
<g id="a_node21"><a xlink:title=" ">
<polygon fill="none" stroke="#bfbfbf" points="19.8,-220.5 19.8,-238.5 48.8,-238.5 48.8,-220.5 19.8,-220.5"/>
<text text-anchor="middle" x="33.91" y="-226.5" font-family="Helvetica,sans-Serif" font-size="10.00">list</text>
</a>
</g>
</g>
<!-- Node17&#45;&gt;Node21 -->
<g id="edge23" class="edge">
<title>Node17&#45;&gt;Node21</title>
<path fill="none" stroke="midnightblue" d="M109.78,-275.45C95.67,-267.05 73.3,-253.72 56.57,-243.76"/>
<polygon fill="midnightblue" stroke="midnightblue" points="58.33,-240.73 47.94,-238.63 54.74,-246.75 58.33,-240.73"/>
</g>
<!-- Node18&#45;&gt;Node8 -->
<g id="edge22" class="edge">
<title>Node18&#45;&gt;Node8</title>
<path fill="none" stroke="midnightblue" d="M251.47,-220.45C275.91,-211.58 315.44,-197.23 343.25,-187.13"/>
<polygon fill="midnightblue" stroke="midnightblue" points="344.71,-190.33 352.92,-183.63 342.32,-183.75 344.71,-190.33"/>
</g>
<!-- Node19 -->
<g id="node19" class="node">
<title>Node19</title>
<g id="a_node19"><a xlink:href="../../d8/d47/codepoint_8h.html" target="_top" xlink:title=" ">
<polygon fill="none" stroke="black" points="240.44,-165.5 240.44,-183.5 308.15,-183.5 308.15,-165.5 240.44,-165.5"/>
<text text-anchor="middle" x="274.3" y="-171.5" font-family="Helvetica,sans-Serif" font-size="10.00">codepoint.h</text>
</a>
</g>
</g>
<!-- Node18&#45;&gt;Node19 -->
<g id="edge19" class="edge">
<title>Node18&#45;&gt;Node19</title>
<path fill="none" stroke="midnightblue" d="M236.33,-220.22C242.91,-212.47 252.9,-200.7 260.99,-191.18"/>
<polygon fill="midnightblue" stroke="midnightblue" points="263.66,-193.44 267.46,-183.55 258.32,-188.91 263.66,-193.44"/>
</g>
<!-- Node19&#45;&gt;Node10 -->
<g id="edge20" class="edge">
<title>Node19&#45;&gt;Node10</title>
<path fill="none" stroke="midnightblue" d="M271.6,-165.32C267.97,-152.87 262.77,-128.64 270.3,-110 275.05,-98.26 284.54,-87.89 293.41,-80.12"/>
<polygon fill="midnightblue" stroke="midnightblue" points="295.67,-82.79 301.21,-73.76 291.25,-77.37 295.67,-82.79"/>
</g>
<!-- Node20 -->
<g id="node20" class="node">
<title>Node20</title>
<g id="a_node20"><a xlink:title=" ">
<polygon fill="none" stroke="#bfbfbf" points="279.78,-110.5 279.78,-128.5 330.81,-128.5 330.81,-110.5 279.78,-110.5"/>
<text text-anchor="middle" x="305.3" y="-116.5" font-family="Helvetica,sans-Serif" font-size="10.00">optional</text>
</a>
</g>
</g>
<!-- Node19&#45;&gt;Node20 -->
<g id="edge21" class="edge">
<title>Node19&#45;&gt;Node20</title>
<path fill="none" stroke="midnightblue" d="M279.14,-165.22C283.49,-157.79 290.01,-146.65 295.45,-137.34"/>
<polygon fill="midnightblue" stroke="midnightblue" points="298.56,-138.95 300.59,-128.55 292.52,-135.41 298.56,-138.95"/>
</g>
<!-- Node23&#45;&gt;Node8 -->
<g id="edge26" class="edge">
<title>Node23&#45;&gt;Node8</title>
<path fill="none" stroke="midnightblue" d="M557.64,-275.43C571.25,-262.69 593.46,-237.58 579.3,-220 558.78,-194.53 465.81,-182.85 412.74,-178.18"/>
<polygon fill="midnightblue" stroke="midnightblue" points="412.94,-174.69 402.69,-177.34 412.36,-181.66 412.94,-174.69"/>
</g>
<!-- Node24 -->
<g id="node24" class="node">
<title>Node24</title>
<g id="a_node24"><a xlink:title=" ">
<polygon fill="none" stroke="#bfbfbf" points="526.68,-220.5 526.68,-238.5 569.91,-238.5 569.91,-220.5 526.68,-220.5"/>
<text text-anchor="middle" x="548.3" y="-226.5" font-family="Helvetica,sans-Serif" font-size="10.00">vector</text>
</a>
</g>
</g>
<!-- Node23&#45;&gt;Node24 -->
<g id="edge27" class="edge">
<title>Node23&#45;&gt;Node24</title>
<path fill="none" stroke="midnightblue" d="M548.3,-275.22C548.3,-268.18 548.3,-257.81 548.3,-248.83"/>
<polygon fill="midnightblue" stroke="midnightblue" points="551.8,-248.55 548.3,-238.55 544.8,-248.55 551.8,-248.55"/>
</g>
<!-- Node26 -->
<g id="node26" class="node">
<title>Node26</title>
<g id="a_node26"><a xlink:href="../../dc/def/txstring_8h.html" target="_top" xlink:title=" ">
<polygon fill="none" stroke="black" points="251.01,-495.5 251.01,-513.5 307.58,-513.5 307.58,-495.5 251.01,-495.5"/>
<text text-anchor="middle" x="279.3" y="-501.5" font-family="Helvetica,sans-Serif" font-size="10.00">txstring.h</text>
</a>
</g>
</g>
<!-- Node25&#45;&gt;Node26 -->
<g id="edge29" class="edge">
<title>Node25&#45;&gt;Node26</title>
<path fill="none" stroke="midnightblue" d="M339.52,-550.45C328.67,-542.36 311.72,-529.7 298.57,-519.88"/>
<polygon fill="midnightblue" stroke="midnightblue" points="300.29,-516.8 290.18,-513.63 296.1,-522.41 300.29,-516.8"/>
</g>
<!-- Node27 -->
<g id="node27" class="node">
<title>Node27</title>
<g id="a_node27"><a xlink:href="../../d7/d1b/_buffer_8h.html" target="_top" xlink:title=" ">
<polygon fill="none" stroke="black" points="239.7,-440.5 239.7,-458.5 318.89,-458.5 318.89,-440.5 239.7,-440.5"/>
<text text-anchor="middle" x="279.3" y="-446.5" font-family="Helvetica,sans-Serif" font-size="10.00">tralics/Buffer.h</text>
</a>
</g>
</g>
<!-- Node26&#45;&gt;Node27 -->
<g id="edge30" class="edge">
<title>Node26&#45;&gt;Node27</title>
<path fill="none" stroke="midnightblue" d="M279.3,-495.22C279.3,-488.18 279.3,-477.81 279.3,-468.83"/>
<polygon fill="midnightblue" stroke="midnightblue" points="282.8,-468.55 279.3,-458.55 275.8,-468.55 282.8,-468.55"/>
</g>
<!-- Node27&#45;&gt;Node5 -->
<g id="edge33" class="edge">
<title>Node27&#45;&gt;Node5</title>
<path fill="none" stroke="midnightblue" d="M255.61,-440.45C229.19,-431.47 186.26,-416.89 156.5,-406.78"/>
<polygon fill="midnightblue" stroke="midnightblue" points="157.55,-403.44 146.96,-403.54 155.3,-410.07 157.55,-403.44"/>
</g>
<!-- Node27&#45;&gt;Node24 -->
<g id="edge35" class="edge">
<title>Node27&#45;&gt;Node24</title>
<path fill="none" stroke="midnightblue" d="M289.74,-440.17C318.68,-417.07 402.3,-350.21 471.3,-294 491.7,-277.38 515,-258.13 530.57,-245.22"/>
<polygon fill="midnightblue" stroke="midnightblue" points="532.9,-247.84 538.36,-238.76 528.43,-242.45 532.9,-247.84"/>
</g>
<!-- Node28 -->
<g id="node28" class="node">
<title>Node28</title>
<g id="a_node28"><a xlink:href="../../d1/d9e/txid_8h.html" target="_top" xlink:title=" ">
<polygon fill="none" stroke="black" points="201.18,-330.5 201.18,-348.5 249.42,-348.5 249.42,-330.5 201.18,-330.5"/>
<text text-anchor="middle" x="225.3" y="-336.5" font-family="Helvetica,sans-Serif" font-size="10.00">../txid.h</text>
</a>
</g>
</g>
<!-- Node27&#45;&gt;Node28 -->
<g id="edge31" class="edge">
<title>Node27&#45;&gt;Node28</title>
<path fill="none" stroke="midnightblue" d="M272.4,-440.44C265.33,-431.87 254.4,-417.68 247.3,-404 239.74,-389.42 233.84,-371.68 230.06,-358.65"/>
<polygon fill="midnightblue" stroke="midnightblue" points="233.33,-357.34 227.3,-348.63 226.58,-359.2 233.33,-357.34"/>
</g>
<!-- Node29 -->
<g id="node29" class="node">
<title>Node29</title>
<g id="a_node29"><a xlink:title=" ">
<polygon fill="none" stroke="#bfbfbf" points="256.57,-385.5 256.57,-403.5 302.03,-403.5 302.03,-385.5 256.57,-385.5"/>
<text text-anchor="middle" x="279.3" y="-391.5" font-family="Helvetica,sans-Serif" font-size="10.00">cstring</text>
</a>
</g>
</g>
<!-- Node27&#45;&gt;Node29 -->
<g id="edge34" class="edge">
<title>Node27&#45;&gt;Node29</title>
<path fill="none" stroke="midnightblue" d="M279.3,-440.22C279.3,-433.18 279.3,-422.81 279.3,-413.83"/>
<polygon fill="midnightblue" stroke="midnightblue" points="282.8,-413.55 279.3,-403.55 275.8,-413.55 282.8,-413.55"/>
</g>
<!-- Node28&#45;&gt;Node7 -->
<g id="edge32" class="edge">
<title>Node28&#45;&gt;Node7</title>
<path fill="none" stroke="midnightblue" d="M225.3,-330.22C225.3,-323.18 225.3,-312.81 225.3,-303.83"/>
<polygon fill="midnightblue" stroke="midnightblue" points="228.8,-303.55 225.3,-293.55 221.8,-303.55 228.8,-303.55"/>
</g>
<!-- Node31 -->
<g id="node31" class="node">
<title>Node31</title>
<g id="a_node31"><a xlink:href="../../d3/d01/txeqtb_8h.html" target="_top" xlink:title=" ">
<polygon fill="none" stroke="black" points="253.51,-550.5 253.51,-568.5 305.09,-568.5 305.09,-550.5 253.51,-550.5"/>
<text text-anchor="middle" x="279.3" y="-556.5" font-family="Helvetica,sans-Serif" font-size="10.00">txeqtb.h</text>
</a>
</g>
</g>
<!-- Node30&#45;&gt;Node31 -->
<g id="edge37" class="edge">
<title>Node30&#45;&gt;Node31</title>
<path fill="none" stroke="midnightblue" d="M246.39,-605.22C251.98,-597.63 260.41,-586.18 267.33,-576.76"/>
<polygon fill="midnightblue" stroke="midnightblue" points="270.27,-578.68 273.38,-568.55 264.63,-574.53 270.27,-578.68"/>
</g>
<!-- Node31&#45;&gt;Node26 -->
<g id="edge38" class="edge">
<title>Node31&#45;&gt;Node26</title>
<path fill="none" stroke="midnightblue" d="M279.3,-550.22C279.3,-543.18 279.3,-532.81 279.3,-523.83"/>
<polygon fill="midnightblue" stroke="midnightblue" points="282.8,-523.55 279.3,-513.55 275.8,-523.55 282.8,-523.55"/>
</g>
<!-- Node32&#45;&gt;Node15 -->
<g id="edge40" class="edge">
<title>Node32&#45;&gt;Node15</title>
<path fill="none" stroke="midnightblue" d="M31.45,-330.28C24.86,-321.8 15.32,-307.89 11.3,-294 2.15,-262.41 -7.57,-247.62 10.3,-220 25.3,-196.81 55.57,-185.59 78.71,-180.23"/>
<polygon fill="midnightblue" stroke="midnightblue" points="79.67,-183.61 88.76,-178.16 78.26,-176.75 79.67,-183.61"/>
</g>
<!-- Node32&#45;&gt;Node22 -->
<g id="edge41" class="edge">
<title>Node32&#45;&gt;Node22</title>
<path fill="none" stroke="midnightblue" d="M38.46,-330.22C38.59,-323.18 38.78,-312.81 38.95,-303.83"/>
<polygon fill="midnightblue" stroke="midnightblue" points="42.46,-303.61 39.15,-293.55 35.46,-303.48 42.46,-303.61"/>
</g>
<!-- Node33&#45;&gt;Node27 -->
<g id="edge43" class="edge">
<title>Node33&#45;&gt;Node27</title>
<path fill="none" stroke="midnightblue" d="M480.79,-605.42C447.02,-579.45 341.01,-497.95 297.86,-464.77"/>
<polygon fill="midnightblue" stroke="midnightblue" points="299.94,-461.95 289.88,-458.63 295.67,-467.5 299.94,-461.95"/>
</g>
<!-- Node34 -->
<g id="node34" class="node">
<title>Node34</title>
<g id="a_node34"><a xlink:title=" ">
<polygon fill="none" stroke="#bfbfbf" points="513.63,-550.5 513.63,-568.5 562.97,-568.5 562.97,-550.5 513.63,-550.5"/>
<text text-anchor="middle" x="538.3" y="-556.5" font-family="Helvetica,sans-Serif" font-size="10.00">fstream</text>
</a>
</g>
</g>
<!-- Node33&#45;&gt;Node34 -->
<g id="edge44" class="edge">
<title>Node33&#45;&gt;Node34</title>
<path fill="none" stroke="midnightblue" d="M498.64,-605.22C505.51,-597.47 515.95,-585.7 524.39,-576.18"/>
<polygon fill="midnightblue" stroke="midnightblue" points="527.14,-578.35 531.16,-568.55 521.91,-573.71 527.14,-578.35"/>
</g>
<!-- Node36 -->
<g id="node36" class="node">
<title>Node36</title>
<g id="a_node36"><a xlink:href="../../d9/d1c/_xml_8h.html" target="_top" xlink:title=" ">
<polygon fill="none" stroke="black" points="104.07,-550.5 104.07,-568.5 174.53,-568.5 174.53,-550.5 104.07,-550.5"/>
<text text-anchor="middle" x="139.3" y="-556.5" font-family="Helvetica,sans-Serif" font-size="10.00">tralics/Xml.h</text>
</a>
</g>
</g>
<!-- Node35&#45;&gt;Node36 -->
<g id="edge46" class="edge">
<title>Node35&#45;&gt;Node36</title>
<path fill="none" stroke="midnightblue" d="M162.92,-605.22C159.04,-597.86 153.24,-586.88 148.35,-577.64"/>
<polygon fill="midnightblue" stroke="midnightblue" points="151.32,-575.76 143.55,-568.55 145.13,-579.03 151.32,-575.76"/>
</g>
<!-- Node37 -->
<g id="node37" class="node">
<title>Node37</title>
<g id="a_node37"><a xlink:href="../../d4/da4/txatt_8h.html" target="_top" xlink:title=" ">
<polygon fill="none" stroke="black" points="192.68,-550.5 192.68,-568.5 235.92,-568.5 235.92,-550.5 192.68,-550.5"/>
<text text-anchor="middle" x="214.3" y="-556.5" font-family="Helvetica,sans-Serif" font-size="10.00">txatt.h</text>
</a>
</g>
</g>
<!-- Node35&#45;&gt;Node37 -->
<g id="edge48" class="edge">
<title>Node35&#45;&gt;Node37</title>
<path fill="none" stroke="midnightblue" d="M174.64,-605.22C181.51,-597.47 191.95,-585.7 200.39,-576.18"/>
<polygon fill="midnightblue" stroke="midnightblue" points="203.14,-578.35 207.16,-568.55 197.91,-573.71 203.14,-578.35"/>
</g>
<!-- Node36&#45;&gt;Node26 -->
<g id="edge47" class="edge">
<title>Node36&#45;&gt;Node26</title>
<path fill="none" stroke="midnightblue" d="M160.56,-550.45C183.89,-541.62 221.57,-527.35 248.22,-517.27"/>
<polygon fill="midnightblue" stroke="midnightblue" points="249.72,-520.44 257.84,-513.63 247.24,-513.89 249.72,-520.44"/>
</g>
<!-- Node37&#45;&gt;Node26 -->
<g id="edge49" class="edge">
<title>Node37&#45;&gt;Node26</title>
<path fill="none" stroke="midnightblue" d="M224.17,-550.45C234,-542.43 249.32,-529.95 261.31,-520.17"/>
<polygon fill="midnightblue" stroke="midnightblue" points="263.8,-522.66 269.33,-513.63 259.37,-517.23 263.8,-522.66"/>
</g>
<!-- Node39&#45;&gt;Node8 -->
<g id="edge53" class="edge">
<title>Node39&#45;&gt;Node8</title>
<path fill="none" stroke="midnightblue" d="M417.4,-275.2C413.08,-262.99 404.58,-239.53 396.3,-220 392.45,-210.93 387.81,-201 383.87,-192.83"/>
<polygon fill="midnightblue" stroke="midnightblue" points="386.9,-191.06 379.37,-183.61 380.61,-194.13 386.9,-191.06"/>
</g>
<!-- Node39&#45;&gt;Node15 -->
<g id="edge56" class="edge">
<title>Node39&#45;&gt;Node15</title>
<path fill="none" stroke="midnightblue" d="M377.57,-281.36C329.75,-277.61 250.91,-267.3 189.3,-239 163.74,-227.26 139.14,-205.69 124.12,-190.98"/>
<polygon fill="midnightblue" stroke="midnightblue" points="126.35,-188.25 116.82,-183.62 121.38,-193.18 126.35,-188.25"/>
</g>
<!-- Node39&#45;&gt;Node16 -->
<g id="edge54" class="edge">
<title>Node39&#45;&gt;Node16</title>
<path fill="none" stroke="midnightblue" d="M407.39,-275.45C394.03,-267.12 372.94,-253.97 357.01,-244.04"/>
<polygon fill="midnightblue" stroke="midnightblue" points="358.67,-240.95 348.33,-238.63 354.96,-246.89 358.67,-240.95"/>
</g>
<!-- Node39&#45;&gt;Node19 -->
<g id="edge52" class="edge">
<title>Node39&#45;&gt;Node19</title>
<path fill="none" stroke="midnightblue" d="M414.45,-275.18C404.94,-262.1 384.97,-236.53 363.3,-220 345.57,-206.48 323.08,-195.28 305.15,-187.5"/>
<polygon fill="midnightblue" stroke="midnightblue" points="306.3,-184.18 295.72,-183.53 303.58,-190.63 306.3,-184.18"/>
</g>
<!-- Node39&#45;&gt;Node24 -->
<g id="edge57" class="edge">
<title>Node39&#45;&gt;Node24</title>
<path fill="none" stroke="midnightblue" d="M439.74,-275.45C460.88,-266.7 494.91,-252.61 519.23,-242.53"/>
<polygon fill="midnightblue" stroke="midnightblue" points="520.78,-245.68 528.68,-238.63 518.1,-239.22 520.78,-245.68"/>
</g>
<!-- Node40 -->
<g id="node40" class="node">
<title>Node40</title>
<g id="a_node40"><a xlink:title=" ">
<polygon fill="none" stroke="#bfbfbf" points="448.07,-220.5 448.07,-238.5 508.53,-238.5 508.53,-220.5 448.07,-220.5"/>
<text text-anchor="middle" x="478.3" y="-226.5" font-family="Helvetica,sans-Serif" font-size="10.00">filesystem</text>
</a>
</g>
</g>
<!-- Node39&#45;&gt;Node40 -->
<g id="edge55" class="edge">
<title>Node39&#45;&gt;Node40</title>
<path fill="none" stroke="midnightblue" d="M429.36,-275.22C438.1,-267.24 451.51,-254.98 462.08,-245.32"/>
<polygon fill="midnightblue" stroke="midnightblue" points="464.47,-247.88 469.49,-238.55 459.75,-242.71 464.47,-247.88"/>
</g>
<!-- Node42 -->
<g id="node42" class="node">
<title>Node42</title>
<g id="a_node42"><a xlink:href="../../d4/de9/_main_class_8h.html" target="_top" xlink:title=" ">
<polygon fill="none" stroke="black" points="365.34,-660.5 365.34,-678.5 465.25,-678.5 465.25,-660.5 365.34,-660.5"/>
<text text-anchor="middle" x="415.3" y="-666.5" font-family="Helvetica,sans-Serif" font-size="10.00">tralics/MainClass.h</text>
</a>
</g>
</g>
<!-- Node41&#45;&gt;Node42 -->
<g id="edge59" class="edge">
<title>Node41&#45;&gt;Node42</title>
<path fill="none" stroke="midnightblue" d="M527.25,-715.45C505.35,-706.66 470.04,-692.48 444.94,-682.4"/>
<polygon fill="midnightblue" stroke="midnightblue" points="446.12,-679.1 435.54,-678.63 443.51,-685.6 446.12,-679.1"/>
</g>
<!-- Node43 -->
<g id="node43" class="node">
<title>Node43</title>
<g id="a_node43"><a xlink:href="../../d2/d06/txlogger_8h.html" target="_top" xlink:title=" ">
<polygon fill="none" stroke="black" points="561.61,-660.5 561.61,-678.5 620.98,-678.5 620.98,-660.5 561.61,-660.5"/>
<text text-anchor="middle" x="591.3" y="-666.5" font-family="Helvetica,sans-Serif" font-size="10.00">txlogger.h</text>
</a>
</g>
</g>
<!-- Node41&#45;&gt;Node43 -->
<g id="edge62" class="edge">
<title>Node41&#45;&gt;Node43</title>
<path fill="none" stroke="midnightblue" d="M554.17,-715.22C560.54,-707.55 570.18,-695.94 578.04,-686.47"/>
<polygon fill="midnightblue" stroke="midnightblue" points="580.92,-688.48 584.62,-678.55 575.54,-684.01 580.92,-688.48"/>
</g>
<!-- Node45 -->
<g id="node45" class="node">
<title>Node45</title>
<g id="a_node45"><a xlink:href="../../d5/d08/txparam_8h.html" target="_top" xlink:title=" ">
<polygon fill="none" stroke="black" points="483.07,-660.5 483.07,-678.5 543.53,-678.5 543.53,-660.5 483.07,-660.5"/>
<text text-anchor="middle" x="513.3" y="-666.5" font-family="Helvetica,sans-Serif" font-size="10.00">txparam.h</text>
</a>
</g>
</g>
<!-- Node41&#45;&gt;Node45 -->
<g id="edge65" class="edge">
<title>Node41&#45;&gt;Node45</title>
<path fill="none" stroke="midnightblue" d="M541.99,-715.22C537.17,-707.71 529.92,-696.41 523.92,-687.05"/>
<polygon fill="midnightblue" stroke="midnightblue" points="526.81,-685.08 518.46,-678.55 520.92,-688.86 526.81,-685.08"/>
</g>
<!-- Node42&#45;&gt;Node26 -->
<g id="edge61" class="edge">
<title>Node42&#45;&gt;Node26</title>
<path fill="none" stroke="midnightblue" d="M415.66,-660.5C416.17,-639.67 414.68,-583.14 386.3,-550 368.85,-529.64 340.57,-518.41 317.47,-512.34"/>
<polygon fill="midnightblue" stroke="midnightblue" points="318.14,-508.9 307.6,-509.96 316.5,-515.7 318.14,-508.9"/>
</g>
<!-- Node42&#45;&gt;Node33 -->
<g id="edge60" class="edge">
<title>Node42&#45;&gt;Node33</title>
<path fill="none" stroke="midnightblue" d="M426.84,-660.45C438.56,-652.28 456.94,-639.46 471.08,-629.6"/>
<polygon fill="midnightblue" stroke="midnightblue" points="473.45,-632.22 479.65,-623.63 469.44,-626.47 473.45,-632.22"/>
</g>
<!-- Node43&#45;&gt;Node34 -->
<g id="edge63" class="edge">
<title>Node43&#45;&gt;Node34</title>
<path fill="none" stroke="midnightblue" d="M583.81,-660.2C576.43,-651.66 565.29,-637.71 558.3,-624 550.91,-609.51 545.6,-591.75 542.31,-578.71"/>
<polygon fill="midnightblue" stroke="midnightblue" points="545.65,-577.59 539.95,-568.65 538.83,-579.19 545.65,-577.59"/>
</g>
<!-- Node44 -->
<g id="node44" class="node">
<title>Node44</title>
<g id="a_node44"><a xlink:title=" ">
<polygon fill="none" stroke="#bfbfbf" points="567.13,-605.5 567.13,-623.5 621.47,-623.5 621.47,-605.5 567.13,-605.5"/>
<text text-anchor="middle" x="594.3" y="-611.5" font-family="Helvetica,sans-Serif" font-size="10.00">iostream</text>
</a>
</g>
</g>
<!-- Node43&#45;&gt;Node44 -->
<g id="edge64" class="edge">
<title>Node43&#45;&gt;Node44</title>
<path fill="none" stroke="midnightblue" d="M591.77,-660.22C592.17,-653.18 592.75,-642.81 593.26,-633.83"/>
<polygon fill="midnightblue" stroke="midnightblue" points="596.77,-633.73 593.84,-623.55 589.78,-633.34 596.77,-633.73"/>
</g>
<!-- Node45&#45;&gt;Node33 -->
<g id="edge66" class="edge">
<title>Node45&#45;&gt;Node33</title>
<path fill="none" stroke="midnightblue" d="M509.86,-660.22C506.84,-652.94 502.35,-642.11 498.54,-632.93"/>
<polygon fill="midnightblue" stroke="midnightblue" points="501.71,-631.44 494.64,-623.55 495.24,-634.13 501.71,-631.44"/>
</g>
</g>
</svg>
