<?xml version="1.0" encoding="UTF-8" standalone="no"?>
<!DOCTYPE svg PUBLIC "-//W3C//DTD SVG 1.1//EN"
 "http://www.w3.org/Graphics/SVG/1.1/DTD/svg11.dtd">
<!-- Generated by graphviz version 2.42.3 (20191010.1750)
 -->
<!-- Title: txtranslate.cpp Pages: 1 -->
<svg width="876pt" height="742pt"
 viewBox="0.00 0.00 876.39 742.00" xmlns="http://www.w3.org/2000/svg" xmlns:xlink="http://www.w3.org/1999/xlink">
<g id="graph0" class="graph" transform="scale(1 1) rotate(0) translate(4 738)">
<title>txtranslate.cpp</title>
<!-- Node1 -->
<g id="node1" class="node">
<title>Node1</title>
<g id="a_node1"><a xlink:title=" ">
<polygon fill="#bfbfbf" stroke="black" points="331.57,-715.5 331.57,-733.5 412.6,-733.5 412.6,-715.5 331.57,-715.5"/>
<text text-anchor="middle" x="372.08" y="-721.5" font-family="Helvetica,sans-Serif" font-size="10.00">txtranslate.cpp</text>
</a>
</g>
</g>
<!-- Node2 -->
<g id="node2" class="node">
<title>Node2</title>
<g id="a_node2"><a xlink:href="../../db/d59/_saver_8h.html" target="_top" xlink:title=" ">
<polygon fill="none" stroke="black" points="299.68,-660.5 299.68,-678.5 378.49,-678.5 378.49,-660.5 299.68,-660.5"/>
<text text-anchor="middle" x="339.08" y="-666.5" font-family="Helvetica,sans-Serif" font-size="10.00">tralics/Saver.h</text>
</a>
</g>
</g>
<!-- Node1&#45;&gt;Node2 -->
<g id="edge1" class="edge">
<title>Node1&#45;&gt;Node2</title>
<path fill="none" stroke="midnightblue" d="M366.93,-715.22C362.25,-707.71 355.22,-696.41 349.39,-687.05"/>
<polygon fill="midnightblue" stroke="midnightblue" points="352.35,-685.19 344.09,-678.55 346.41,-688.89 352.35,-685.19"/>
</g>
<!-- Node3 -->
<g id="node3" class="node">
<title>Node3</title>
<g id="a_node3"><a xlink:href="../../d2/d1b/txparser_8h.html" target="_top" xlink:title=" ">
<polygon fill="none" stroke="black" points="514.96,-605.5 514.96,-623.5 583.21,-623.5 583.21,-605.5 514.96,-605.5"/>
<text text-anchor="middle" x="549.08" y="-611.5" font-family="Helvetica,sans-Serif" font-size="10.00">../txparser.h</text>
</a>
</g>
</g>
<!-- Node1&#45;&gt;Node3 -->
<g id="edge78" class="edge">
<title>Node1&#45;&gt;Node3</title>
<path fill="none" stroke="midnightblue" d="M376.89,-715.28C385.13,-701.89 403.19,-675.3 425.08,-660 448.98,-643.3 479.81,-632.2 504.75,-625.26"/>
<polygon fill="midnightblue" stroke="midnightblue" points="505.92,-628.57 514.69,-622.63 504.13,-621.81 505.92,-628.57"/>
</g>
<!-- Node42 -->
<g id="node42" class="node">
<title>Node42</title>
<g id="a_node42"><a xlink:href="../../d5/d87/globals_8h.html" target="_top" xlink:title=" ">
<polygon fill="none" stroke="black" points="88.07,-605.5 88.07,-623.5 144.1,-623.5 144.1,-605.5 88.07,-605.5"/>
<text text-anchor="middle" x="116.08" y="-611.5" font-family="Helvetica,sans-Serif" font-size="10.00">globals.h</text>
</a>
</g>
</g>
<!-- Node1&#45;&gt;Node42 -->
<g id="edge66" class="edge">
<title>Node1&#45;&gt;Node42</title>
<path fill="none" stroke="midnightblue" d="M352.84,-715.38C308.16,-696.53 197.2,-649.72 144.61,-627.53"/>
<polygon fill="midnightblue" stroke="midnightblue" points="145.77,-624.23 135.2,-623.56 143.05,-630.68 145.77,-624.23"/>
</g>
<!-- Node44 -->
<g id="node44" class="node">
<title>Node44</title>
<g id="a_node44"><a xlink:href="../../d7/d79/txinline_8h.html" target="_top" xlink:title=" ">
<polygon fill="none" stroke="black" points="244.35,-605.5 244.35,-623.5 299.82,-623.5 299.82,-605.5 244.35,-605.5"/>
<text text-anchor="middle" x="272.08" y="-611.5" font-family="Helvetica,sans-Serif" font-size="10.00">txinline.h</text>
</a>
</g>
</g>
<!-- Node1&#45;&gt;Node44 -->
<g id="edge67" class="edge">
<title>Node1&#45;&gt;Node44</title>
<path fill="none" stroke="midnightblue" d="M346.72,-715.43C328.76,-708.48 305.4,-696.72 291.08,-679 280.69,-666.13 275.97,-647.69 273.84,-634"/>
<polygon fill="midnightblue" stroke="midnightblue" points="277.29,-633.33 272.59,-623.84 270.34,-634.19 277.29,-633.33"/>
</g>
<!-- Node49 -->
<g id="node49" class="node">
<title>Node49</title>
<g id="a_node49"><a xlink:title=" ">
<polygon fill="none" stroke="#bfbfbf" points="434.41,-660.5 434.41,-678.5 503.75,-678.5 503.75,-660.5 434.41,-660.5"/>
<text text-anchor="middle" x="469.08" y="-666.5" font-family="Helvetica,sans-Serif" font-size="10.00">fmt/format.h</text>
</a>
</g>
</g>
<!-- Node1&#45;&gt;Node49 -->
<g id="edge79" class="edge">
<title>Node1&#45;&gt;Node49</title>
<path fill="none" stroke="midnightblue" d="M386.81,-715.45C402.34,-706.97 427.03,-693.48 445.32,-683.49"/>
<polygon fill="midnightblue" stroke="midnightblue" points="447.11,-686.49 454.21,-678.63 443.76,-680.35 447.11,-686.49"/>
</g>
<!-- Node50 -->
<g id="node50" class="node">
<title>Node50</title>
<g id="a_node50"><a xlink:title=" ">
<polygon fill="none" stroke="#bfbfbf" points="521.57,-660.5 521.57,-678.5 572.59,-678.5 572.59,-660.5 521.57,-660.5"/>
<text text-anchor="middle" x="547.08" y="-666.5" font-family="Helvetica,sans-Serif" font-size="10.00">unistd.h</text>
</a>
</g>
</g>
<!-- Node1&#45;&gt;Node50 -->
<g id="edge80" class="edge">
<title>Node1&#45;&gt;Node50</title>
<path fill="none" stroke="midnightblue" d="M398.66,-715.45C428.82,-706.32 478.14,-691.38 511.57,-681.26"/>
<polygon fill="midnightblue" stroke="midnightblue" points="512.84,-684.53 521.4,-678.28 510.81,-677.83 512.84,-684.53"/>
</g>
<!-- Node2&#45;&gt;Node3 -->
<g id="edge2" class="edge">
<title>Node2&#45;&gt;Node3</title>
<path fill="none" stroke="midnightblue" d="M370.98,-660.45C407.47,-651.24 467.35,-636.13 507.48,-626"/>
<polygon fill="midnightblue" stroke="midnightblue" points="508.39,-629.38 517.23,-623.54 506.68,-622.59 508.39,-629.38"/>
</g>
<!-- Node2&#45;&gt;Node42 -->
<g id="edge62" class="edge">
<title>Node2&#45;&gt;Node42</title>
<path fill="none" stroke="midnightblue" d="M305.21,-660.45C264.58,-650.79 196.64,-634.64 154.2,-624.56"/>
<polygon fill="midnightblue" stroke="midnightblue" points="154.79,-621.1 144.25,-622.2 153.17,-627.91 154.79,-621.1"/>
</g>
<!-- Node4 -->
<g id="node4" class="node">
<title>Node4</title>
<g id="a_node4"><a xlink:href="../../d8/dd6/_e_q_t_b_8h.html" target="_top" xlink:title=" ">
<polygon fill="none" stroke="black" points="605.85,-440.5 605.85,-458.5 686.31,-458.5 686.31,-440.5 605.85,-440.5"/>
<text text-anchor="middle" x="646.08" y="-446.5" font-family="Helvetica,sans-Serif" font-size="10.00">tralics/EQTB.h</text>
</a>
</g>
</g>
<!-- Node3&#45;&gt;Node4 -->
<g id="edge3" class="edge">
<title>Node3&#45;&gt;Node4</title>
<path fill="none" stroke="midnightblue" d="M583.42,-609.39C608.47,-604.39 640.78,-593.35 657.08,-569 677.61,-538.34 664.15,-492.79 654.13,-468.05"/>
<polygon fill="midnightblue" stroke="midnightblue" points="657.2,-466.34 650.02,-458.54 650.77,-469.11 657.2,-466.34"/>
</g>
<!-- Node26 -->
<g id="node26" class="node">
<title>Node26</title>
<g id="a_node26"><a xlink:href="../../da/d27/_hashtab_8h.html" target="_top" xlink:title=" ">
<polygon fill="none" stroke="black" points="407.84,-495.5 407.84,-513.5 498.32,-513.5 498.32,-495.5 407.84,-495.5"/>
<text text-anchor="middle" x="453.08" y="-501.5" font-family="Helvetica,sans-Serif" font-size="10.00">tralics/Hashtab.h</text>
</a>
</g>
</g>
<!-- Node3&#45;&gt;Node26 -->
<g id="edge30" class="edge">
<title>Node3&#45;&gt;Node26</title>
<path fill="none" stroke="midnightblue" d="M541.87,-605.38C526.02,-587.56 487.95,-544.72 467.18,-521.36"/>
<polygon fill="midnightblue" stroke="midnightblue" points="469.64,-518.86 460.38,-513.71 464.41,-523.51 469.64,-518.86"/>
</g>
<!-- Node31 -->
<g id="node31" class="node">
<title>Node31</title>
<g id="a_node31"><a xlink:href="../../d3/d6b/txcond_8h.html" target="_top" xlink:title=" ">
<polygon fill="none" stroke="black" points="668.18,-220.5 668.18,-238.5 721.98,-238.5 721.98,-220.5 668.18,-220.5"/>
<text text-anchor="middle" x="695.08" y="-226.5" font-family="Helvetica,sans-Serif" font-size="10.00">txcond.h</text>
</a>
</g>
</g>
<!-- Node3&#45;&gt;Node31 -->
<g id="edge41" class="edge">
<title>Node3&#45;&gt;Node31</title>
<path fill="none" stroke="midnightblue" d="M583.52,-610.68C641.44,-603.86 752.08,-580.95 752.08,-505.5 752.08,-505.5 752.08,-505.5 752.08,-448.5 752.08,-408.47 715.65,-293.12 701.04,-248.46"/>
<polygon fill="midnightblue" stroke="midnightblue" points="704.28,-247.12 697.83,-238.72 697.64,-249.31 704.28,-247.12"/>
</g>
<!-- Node32 -->
<g id="node32" class="node">
<title>Node32</title>
<g id="a_node32"><a xlink:href="../../d7/d4d/txfonts_8h.html" target="_top" xlink:title=" ">
<polygon fill="none" stroke="black" points="746.18,-330.5 746.18,-348.5 799.98,-348.5 799.98,-330.5 746.18,-330.5"/>
<text text-anchor="middle" x="773.08" y="-336.5" font-family="Helvetica,sans-Serif" font-size="10.00">txfonts.h</text>
</a>
</g>
</g>
<!-- Node3&#45;&gt;Node32 -->
<g id="edge44" class="edge">
<title>Node3&#45;&gt;Node32</title>
<path fill="none" stroke="midnightblue" d="M583.21,-610.5C637.19,-605.11 738.94,-592.14 766.08,-569 789.04,-549.43 790.08,-535.67 790.08,-505.5 790.08,-505.5 790.08,-505.5 790.08,-448.5 790.08,-416.48 782.7,-379.77 777.67,-358.45"/>
<polygon fill="midnightblue" stroke="midnightblue" points="781.02,-357.44 775.24,-348.56 774.22,-359.11 781.02,-357.44"/>
</g>
<!-- Node33 -->
<g id="node33" class="node">
<title>Node33</title>
<g id="a_node33"><a xlink:href="../../d7/d7e/txhash_8h.html" target="_top" xlink:title=" ">
<polygon fill="none" stroke="black" points="336.18,-495.5 336.18,-513.5 389.98,-513.5 389.98,-495.5 336.18,-495.5"/>
<text text-anchor="middle" x="363.08" y="-501.5" font-family="Helvetica,sans-Serif" font-size="10.00">txhash.h</text>
</a>
</g>
</g>
<!-- Node3&#45;&gt;Node33 -->
<g id="edge47" class="edge">
<title>Node3&#45;&gt;Node33</title>
<path fill="none" stroke="midnightblue" d="M535.1,-605.38C503.33,-586.93 425.4,-541.69 386.28,-518.97"/>
<polygon fill="midnightblue" stroke="midnightblue" points="387.63,-515.71 377.22,-513.71 384.12,-521.76 387.63,-515.71"/>
</g>
<!-- Node34 -->
<g id="node34" class="node">
<title>Node34</title>
<g id="a_node34"><a xlink:href="../../de/d7c/tximage_8h.html" target="_top" xlink:title=" ">
<polygon fill="none" stroke="black" points="555.41,-330.5 555.41,-348.5 614.76,-348.5 614.76,-330.5 555.41,-330.5"/>
<text text-anchor="middle" x="585.08" y="-336.5" font-family="Helvetica,sans-Serif" font-size="10.00">tximage.h</text>
</a>
</g>
</g>
<!-- Node3&#45;&gt;Node34 -->
<g id="edge50" class="edge">
<title>Node3&#45;&gt;Node34</title>
<path fill="none" stroke="midnightblue" d="M583.27,-607.08C631.6,-595.8 714.08,-567.47 714.08,-505.5 714.08,-505.5 714.08,-505.5 714.08,-448.5 714.08,-399.17 657.93,-367.92 619.72,-352.36"/>
<polygon fill="midnightblue" stroke="midnightblue" points="620.54,-348.93 609.95,-348.57 618.01,-355.46 620.54,-348.93"/>
</g>
<!-- Node35 -->
<g id="node35" class="node">
<title>Node35</title>
<g id="a_node35"><a xlink:href="../../de/d29/txio_8h.html" target="_top" xlink:title=" ">
<polygon fill="none" stroke="black" points="200.13,-495.5 200.13,-513.5 240.03,-513.5 240.03,-495.5 200.13,-495.5"/>
<text text-anchor="middle" x="220.08" y="-501.5" font-family="Helvetica,sans-Serif" font-size="10.00">txio.h</text>
</a>
</g>
</g>
<!-- Node3&#45;&gt;Node35 -->
<g id="edge53" class="edge">
<title>Node3&#45;&gt;Node35</title>
<path fill="none" stroke="midnightblue" d="M524.62,-605.47C465.39,-586.03 314.42,-536.47 249.97,-515.31"/>
<polygon fill="midnightblue" stroke="midnightblue" points="250.99,-511.96 240.4,-512.17 248.81,-518.61 250.99,-511.96"/>
</g>
<!-- Node37 -->
<g id="node37" class="node">
<title>Node37</title>
<g id="a_node37"><a xlink:href="../../dc/d65/txstack_8h.html" target="_top" xlink:title=" ">
<polygon fill="none" stroke="black" points="521.35,-550.5 521.35,-568.5 576.81,-568.5 576.81,-550.5 521.35,-550.5"/>
<text text-anchor="middle" x="549.08" y="-556.5" font-family="Helvetica,sans-Serif" font-size="10.00">txstack.h</text>
</a>
</g>
</g>
<!-- Node3&#45;&gt;Node37 -->
<g id="edge56" class="edge">
<title>Node3&#45;&gt;Node37</title>
<path fill="none" stroke="midnightblue" d="M549.08,-605.22C549.08,-598.18 549.08,-587.81 549.08,-578.83"/>
<polygon fill="midnightblue" stroke="midnightblue" points="552.58,-578.55 549.08,-568.55 545.58,-578.55 552.58,-578.55"/>
</g>
<!-- Node41 -->
<g id="node41" class="node">
<title>Node41</title>
<g id="a_node41"><a xlink:href="../../d8/d3d/txstats_8h.html" target="_top" xlink:title=" ">
<polygon fill="none" stroke="black" points="594.46,-550.5 594.46,-568.5 647.7,-568.5 647.7,-550.5 594.46,-550.5"/>
<text text-anchor="middle" x="621.08" y="-556.5" font-family="Helvetica,sans-Serif" font-size="10.00">txstats.h</text>
</a>
</g>
</g>
<!-- Node3&#45;&gt;Node41 -->
<g id="edge61" class="edge">
<title>Node3&#45;&gt;Node41</title>
<path fill="none" stroke="midnightblue" d="M560.02,-605.45C571.12,-597.28 588.53,-584.46 601.93,-574.6"/>
<polygon fill="midnightblue" stroke="midnightblue" points="604.07,-577.37 610.04,-568.63 599.92,-571.73 604.07,-577.37"/>
</g>
<!-- Node5 -->
<g id="node5" class="node">
<title>Node5</title>
<g id="a_node5"><a xlink:href="../../d9/d18/txscaled_8h.html" target="_top" xlink:title=" ">
<polygon fill="none" stroke="black" points="427.4,-385.5 427.4,-403.5 496.76,-403.5 496.76,-385.5 427.4,-385.5"/>
<text text-anchor="middle" x="462.08" y="-391.5" font-family="Helvetica,sans-Serif" font-size="10.00">../txscaled.h</text>
</a>
</g>
</g>
<!-- Node4&#45;&gt;Node5 -->
<g id="edge4" class="edge">
<title>Node4&#45;&gt;Node5</title>
<path fill="none" stroke="midnightblue" d="M618.14,-440.45C586.57,-431.36 535.03,-416.51 499.88,-406.39"/>
<polygon fill="midnightblue" stroke="midnightblue" points="500.57,-402.94 489.99,-403.54 498.63,-409.67 500.57,-402.94"/>
</g>
<!-- Node6 -->
<g id="node6" class="node">
<title>Node6</title>
<g id="a_node6"><a xlink:href="../../dc/d91/txtokenlist_8h.html" target="_top" xlink:title=" ">
<polygon fill="none" stroke="black" points="427.68,-330.5 427.68,-348.5 496.48,-348.5 496.48,-330.5 427.68,-330.5"/>
<text text-anchor="middle" x="462.08" y="-336.5" font-family="Helvetica,sans-Serif" font-size="10.00">txtokenlist.h</text>
</a>
</g>
</g>
<!-- Node5&#45;&gt;Node6 -->
<g id="edge5" class="edge">
<title>Node5&#45;&gt;Node6</title>
<path fill="none" stroke="midnightblue" d="M462.08,-385.22C462.08,-378.18 462.08,-367.81 462.08,-358.83"/>
<polygon fill="midnightblue" stroke="midnightblue" points="465.58,-358.55 462.08,-348.55 458.58,-358.55 465.58,-358.55"/>
</g>
<!-- Node7 -->
<g id="node7" class="node">
<title>Node7</title>
<g id="a_node7"><a xlink:href="../../d5/daf/_istring_8h.html" target="_top" xlink:title=" ">
<polygon fill="none" stroke="black" points="419.85,-275.5 419.85,-293.5 500.31,-293.5 500.31,-275.5 419.85,-275.5"/>
<text text-anchor="middle" x="460.08" y="-281.5" font-family="Helvetica,sans-Serif" font-size="10.00">tralics/Istring.h</text>
</a>
</g>
</g>
<!-- Node6&#45;&gt;Node7 -->
<g id="edge6" class="edge">
<title>Node6&#45;&gt;Node7</title>
<path fill="none" stroke="midnightblue" d="M461.77,-330.22C461.5,-323.18 461.11,-312.81 460.77,-303.83"/>
<polygon fill="midnightblue" stroke="midnightblue" points="464.26,-303.41 460.39,-293.55 457.27,-303.67 464.26,-303.41"/>
</g>
<!-- Node20 -->
<g id="node20" class="node">
<title>Node20</title>
<g id="a_node20"><a xlink:href="../../dd/dcd/_token_8h.html" target="_top" xlink:title=" ">
<polygon fill="none" stroke="black" points="319.12,-275.5 319.12,-293.5 399.04,-293.5 399.04,-275.5 319.12,-275.5"/>
<text text-anchor="middle" x="359.08" y="-281.5" font-family="Helvetica,sans-Serif" font-size="10.00">tralics/Token.h</text>
</a>
</g>
</g>
<!-- Node6&#45;&gt;Node20 -->
<g id="edge22" class="edge">
<title>Node6&#45;&gt;Node20</title>
<path fill="none" stroke="midnightblue" d="M446.44,-330.45C429.8,-321.89 403.25,-308.23 383.79,-298.21"/>
<polygon fill="midnightblue" stroke="midnightblue" points="385.37,-295.09 374.87,-293.63 382.16,-301.31 385.37,-295.09"/>
</g>
<!-- Node25 -->
<g id="node25" class="node">
<title>Node25</title>
<g id="a_node25"><a xlink:title=" ">
<polygon fill="none" stroke="#bfbfbf" points="518.69,-275.5 518.69,-293.5 557.47,-293.5 557.47,-275.5 518.69,-275.5"/>
<text text-anchor="middle" x="538.08" y="-281.5" font-family="Helvetica,sans-Serif" font-size="10.00">utility</text>
</a>
</g>
</g>
<!-- Node6&#45;&gt;Node25 -->
<g id="edge29" class="edge">
<title>Node6&#45;&gt;Node25</title>
<path fill="none" stroke="midnightblue" d="M473.63,-330.45C485.34,-322.28 503.72,-309.46 517.86,-299.6"/>
<polygon fill="midnightblue" stroke="midnightblue" points="520.23,-302.22 526.43,-293.63 516.23,-296.47 520.23,-302.22"/>
</g>
<!-- Node8 -->
<g id="node8" class="node">
<title>Node8</title>
<g id="a_node8"><a xlink:href="../../dd/d47/_str_hash_8h.html" target="_top" xlink:title=" ">
<polygon fill="none" stroke="black" points="739.85,-220.5 739.85,-238.5 800.31,-238.5 800.31,-220.5 739.85,-220.5"/>
<text text-anchor="middle" x="770.08" y="-226.5" font-family="Helvetica,sans-Serif" font-size="10.00">StrHash.h</text>
</a>
</g>
</g>
<!-- Node7&#45;&gt;Node8 -->
<g id="edge7" class="edge">
<title>Node7&#45;&gt;Node8</title>
<path fill="none" stroke="midnightblue" d="M500.47,-276.61C503.72,-276.06 506.96,-275.52 510.08,-275 605.09,-259.19 631.63,-257.69 729.44,-239.24"/>
<polygon fill="midnightblue" stroke="midnightblue" points="730.29,-242.64 739.46,-237.34 728.98,-235.76 730.29,-242.64"/>
</g>
<!-- Node17 -->
<g id="node17" class="node">
<title>Node17</title>
<g id="a_node17"><a xlink:href="../../d0/d0b/enums_8h.html" target="_top" xlink:title=" ">
<polygon fill="none" stroke="black" points="466.91,-165.5 466.91,-183.5 521.26,-183.5 521.26,-165.5 466.91,-165.5"/>
<text text-anchor="middle" x="494.08" y="-171.5" font-family="Helvetica,sans-Serif" font-size="10.00">enums.h</text>
</a>
</g>
</g>
<!-- Node7&#45;&gt;Node17 -->
<g id="edge16" class="edge">
<title>Node7&#45;&gt;Node17</title>
<path fill="none" stroke="midnightblue" d="M462.93,-275.33C466.01,-266.42 471.03,-251.74 475.08,-239 479.94,-223.73 485.13,-206.29 488.86,-193.56"/>
<polygon fill="midnightblue" stroke="midnightblue" points="492.28,-194.33 491.71,-183.75 485.56,-192.37 492.28,-194.33"/>
</g>
<!-- Node18 -->
<g id="node18" class="node">
<title>Node18</title>
<g id="a_node18"><a xlink:href="../../d8/d3c/util_8h.html" target="_top" xlink:title=" ">
<polygon fill="none" stroke="black" points="613.52,-220.5 613.52,-238.5 650.64,-238.5 650.64,-220.5 613.52,-220.5"/>
<text text-anchor="middle" x="632.08" y="-226.5" font-family="Helvetica,sans-Serif" font-size="10.00">util.h</text>
</a>
</g>
</g>
<!-- Node7&#45;&gt;Node18 -->
<g id="edge18" class="edge">
<title>Node7&#45;&gt;Node18</title>
<path fill="none" stroke="midnightblue" d="M486.21,-275.45C517.75,-265.73 570.63,-249.43 603.32,-239.36"/>
<polygon fill="midnightblue" stroke="midnightblue" points="604.64,-242.62 613.17,-236.33 602.58,-235.93 604.64,-242.62"/>
</g>
<!-- Node19 -->
<g id="node19" class="node">
<title>Node19</title>
<g id="a_node19"><a xlink:title=" ">
<polygon fill="none" stroke="#bfbfbf" points="427.69,-220.5 427.69,-238.5 466.47,-238.5 466.47,-220.5 427.69,-220.5"/>
<text text-anchor="middle" x="447.08" y="-226.5" font-family="Helvetica,sans-Serif" font-size="10.00">array</text>
</a>
</g>
</g>
<!-- Node7&#45;&gt;Node19 -->
<g id="edge21" class="edge">
<title>Node7&#45;&gt;Node19</title>
<path fill="none" stroke="midnightblue" d="M458.05,-275.22C456.3,-268.1 453.72,-257.58 451.5,-248.53"/>
<polygon fill="midnightblue" stroke="midnightblue" points="454.84,-247.43 449.06,-238.55 448.04,-249.1 454.84,-247.43"/>
</g>
<!-- Node9 -->
<g id="node9" class="node">
<title>Node9</title>
<g id="a_node9"><a xlink:href="../../d8/db5/consts_8h.html" target="_top" xlink:title=" ">
<polygon fill="none" stroke="black" points="467.46,-110.5 467.46,-128.5 520.7,-128.5 520.7,-110.5 467.46,-110.5"/>
<text text-anchor="middle" x="494.08" y="-116.5" font-family="Helvetica,sans-Serif" font-size="10.00">consts.h</text>
</a>
</g>
</g>
<!-- Node8&#45;&gt;Node9 -->
<g id="edge8" class="edge">
<title>Node8&#45;&gt;Node9</title>
<path fill="none" stroke="midnightblue" d="M766.89,-220.35C761.04,-206.56 747.21,-178.76 726.08,-165 694.37,-144.35 587.85,-130.35 530.83,-124.14"/>
<polygon fill="midnightblue" stroke="midnightblue" points="531.1,-120.65 520.79,-123.07 530.36,-127.61 531.1,-120.65"/>
</g>
<!-- Node14 -->
<g id="node14" class="node">
<title>Node14</title>
<g id="a_node14"><a xlink:title=" ">
<polygon fill="none" stroke="#bfbfbf" points="611.86,-165.5 611.86,-183.5 652.31,-183.5 652.31,-165.5 611.86,-165.5"/>
<text text-anchor="middle" x="632.08" y="-171.5" font-family="Helvetica,sans-Serif" font-size="10.00">string</text>
</a>
</g>
</g>
<!-- Node8&#45;&gt;Node14 -->
<g id="edge13" class="edge">
<title>Node8&#45;&gt;Node14</title>
<path fill="none" stroke="midnightblue" d="M749.12,-220.45C725.86,-211.51 688.12,-197.02 661.81,-186.92"/>
<polygon fill="midnightblue" stroke="midnightblue" points="662.93,-183.6 652.34,-183.28 660.42,-190.13 662.93,-183.6"/>
</g>
<!-- Node15 -->
<g id="node15" class="node">
<title>Node15</title>
<g id="a_node15"><a xlink:title=" ">
<polygon fill="none" stroke="#bfbfbf" points="781.78,-165.5 781.78,-183.5 868.39,-183.5 868.39,-165.5 781.78,-165.5"/>
<text text-anchor="middle" x="825.08" y="-171.5" font-family="Helvetica,sans-Serif" font-size="10.00">unordered_map</text>
</a>
</g>
</g>
<!-- Node8&#45;&gt;Node15 -->
<g id="edge14" class="edge">
<title>Node8&#45;&gt;Node15</title>
<path fill="none" stroke="midnightblue" d="M778.68,-220.22C786.88,-212.32 799.43,-200.22 809.41,-190.61"/>
<polygon fill="midnightblue" stroke="midnightblue" points="811.96,-193.01 816.73,-183.55 807.1,-187.97 811.96,-193.01"/>
</g>
<!-- Node16 -->
<g id="node16" class="node">
<title>Node16</title>
<g id="a_node16"><a xlink:title=" ">
<polygon fill="none" stroke="#bfbfbf" points="673.47,-165.5 673.47,-183.5 716.7,-183.5 716.7,-165.5 673.47,-165.5"/>
<text text-anchor="middle" x="695.08" y="-171.5" font-family="Helvetica,sans-Serif" font-size="10.00">vector</text>
</a>
</g>
</g>
<!-- Node8&#45;&gt;Node16 -->
<g id="edge15" class="edge">
<title>Node8&#45;&gt;Node16</title>
<path fill="none" stroke="midnightblue" d="M758.69,-220.45C747.13,-212.28 728.99,-199.46 715.03,-189.6"/>
<polygon fill="midnightblue" stroke="midnightblue" points="716.77,-186.54 706.58,-183.63 712.73,-192.25 716.77,-186.54"/>
</g>
<!-- Node10 -->
<g id="node10" class="node">
<title>Node10</title>
<g id="a_node10"><a xlink:href="../../d9/d49/types_8h.html" target="_top" xlink:title=" ">
<polygon fill="none" stroke="black" points="365.96,-55.5 365.96,-73.5 414.2,-73.5 414.2,-55.5 365.96,-55.5"/>
<text text-anchor="middle" x="390.08" y="-61.5" font-family="Helvetica,sans-Serif" font-size="10.00">types.h</text>
</a>
</g>
</g>
<!-- Node9&#45;&gt;Node10 -->
<g id="edge9" class="edge">
<title>Node9&#45;&gt;Node10</title>
<path fill="none" stroke="midnightblue" d="M478.29,-110.45C461.49,-101.89 434.68,-88.23 415.03,-78.21"/>
<polygon fill="midnightblue" stroke="midnightblue" points="416.53,-75.05 406.03,-73.63 413.35,-81.28 416.53,-75.05"/>
</g>
<!-- Node11 -->
<g id="node11" class="node">
<title>Node11</title>
<g id="a_node11"><a xlink:title=" ">
<polygon fill="none" stroke="#bfbfbf" points="299.97,-0.5 299.97,-18.5 348.2,-18.5 348.2,-0.5 299.97,-0.5"/>
<text text-anchor="middle" x="324.08" y="-6.5" font-family="Helvetica,sans-Serif" font-size="10.00">cassert</text>
</a>
</g>
</g>
<!-- Node10&#45;&gt;Node11 -->
<g id="edge10" class="edge">
<title>Node10&#45;&gt;Node11</title>
<path fill="none" stroke="midnightblue" d="M380.06,-55.45C370.08,-47.43 354.53,-34.95 342.35,-25.17"/>
<polygon fill="midnightblue" stroke="midnightblue" points="344.19,-22.16 334.2,-18.63 339.81,-27.62 344.19,-22.16"/>
</g>
<!-- Node12 -->
<g id="node12" class="node">
<title>Node12</title>
<g id="a_node12"><a xlink:title=" ">
<polygon fill="none" stroke="#bfbfbf" points="365.96,-0.5 365.96,-18.5 414.2,-18.5 414.2,-0.5 365.96,-0.5"/>
<text text-anchor="middle" x="390.08" y="-6.5" font-family="Helvetica,sans-Serif" font-size="10.00">cstddef</text>
</a>
</g>
</g>
<!-- Node10&#45;&gt;Node12 -->
<g id="edge11" class="edge">
<title>Node10&#45;&gt;Node12</title>
<path fill="none" stroke="midnightblue" d="M390.08,-55.22C390.08,-48.18 390.08,-37.81 390.08,-28.83"/>
<polygon fill="midnightblue" stroke="midnightblue" points="393.58,-28.55 390.08,-18.55 386.58,-28.55 393.58,-28.55"/>
</g>
<!-- Node13 -->
<g id="node13" class="node">
<title>Node13</title>
<g id="a_node13"><a xlink:title=" ">
<polygon fill="none" stroke="#bfbfbf" points="432.02,-0.5 432.02,-18.5 494.15,-18.5 494.15,-0.5 432.02,-0.5"/>
<text text-anchor="middle" x="463.08" y="-6.5" font-family="Helvetica,sans-Serif" font-size="10.00">type_traits</text>
</a>
</g>
</g>
<!-- Node10&#45;&gt;Node13 -->
<g id="edge12" class="edge">
<title>Node10&#45;&gt;Node13</title>
<path fill="none" stroke="midnightblue" d="M401.17,-55.45C412.42,-47.28 430.08,-34.46 443.66,-24.6"/>
<polygon fill="midnightblue" stroke="midnightblue" points="445.85,-27.33 451.89,-18.63 441.74,-21.67 445.85,-27.33"/>
</g>
<!-- Node17&#45;&gt;Node9 -->
<g id="edge17" class="edge">
<title>Node17&#45;&gt;Node9</title>
<path fill="none" stroke="midnightblue" d="M494.08,-165.22C494.08,-158.18 494.08,-147.81 494.08,-138.83"/>
<polygon fill="midnightblue" stroke="midnightblue" points="497.58,-138.55 494.08,-128.55 490.58,-138.55 497.58,-138.55"/>
</g>
<!-- Node18&#45;&gt;Node14 -->
<g id="edge19" class="edge">
<title>Node18&#45;&gt;Node14</title>
<path fill="none" stroke="midnightblue" d="M632.08,-220.22C632.08,-213.18 632.08,-202.81 632.08,-193.83"/>
<polygon fill="midnightblue" stroke="midnightblue" points="635.58,-193.55 632.08,-183.55 628.58,-193.55 635.58,-193.55"/>
</g>
<!-- Node18&#45;&gt;Node16 -->
<g id="edge20" class="edge">
<title>Node18&#45;&gt;Node16</title>
<path fill="none" stroke="midnightblue" d="M641.65,-220.45C651.18,-212.43 666.02,-199.95 677.65,-190.17"/>
<polygon fill="midnightblue" stroke="midnightblue" points="680.02,-192.74 685.42,-183.63 675.52,-187.38 680.02,-192.74"/>
</g>
<!-- Node21 -->
<g id="node21" class="node">
<title>Node21</title>
<g id="a_node21"><a xlink:href="../../d2/d68/_cmd_chr_8h.html" target="_top" xlink:title=" ">
<polygon fill="none" stroke="black" points="278.57,-220.5 278.57,-238.5 339.59,-238.5 339.59,-220.5 278.57,-220.5"/>
<text text-anchor="middle" x="309.08" y="-226.5" font-family="Helvetica,sans-Serif" font-size="10.00">CmdChr.h</text>
</a>
</g>
</g>
<!-- Node20&#45;&gt;Node21 -->
<g id="edge23" class="edge">
<title>Node20&#45;&gt;Node21</title>
<path fill="none" stroke="midnightblue" d="M351.27,-275.22C343.89,-267.39 332.63,-255.46 323.6,-245.89"/>
<polygon fill="midnightblue" stroke="midnightblue" points="326.08,-243.42 316.68,-238.55 320.99,-248.23 326.08,-243.42"/>
</g>
<!-- Node24 -->
<g id="node24" class="node">
<title>Node24</title>
<g id="a_node24"><a xlink:title=" ">
<polygon fill="none" stroke="#bfbfbf" points="357.58,-220.5 357.58,-238.5 386.58,-238.5 386.58,-220.5 357.58,-220.5"/>
<text text-anchor="middle" x="371.69" y="-226.5" font-family="Helvetica,sans-Serif" font-size="10.00">list</text>
</a>
</g>
</g>
<!-- Node20&#45;&gt;Node24 -->
<g id="edge28" class="edge">
<title>Node20&#45;&gt;Node24</title>
<path fill="none" stroke="midnightblue" d="M361.11,-275.22C362.86,-268.1 365.44,-257.58 367.66,-248.53"/>
<polygon fill="midnightblue" stroke="midnightblue" points="371.12,-249.1 370.11,-238.55 364.33,-247.43 371.12,-249.1"/>
</g>
<!-- Node21&#45;&gt;Node17 -->
<g id="edge27" class="edge">
<title>Node21&#45;&gt;Node17</title>
<path fill="none" stroke="midnightblue" d="M337.18,-220.45C369.1,-211.3 421.34,-196.34 456.69,-186.21"/>
<polygon fill="midnightblue" stroke="midnightblue" points="457.98,-189.48 466.63,-183.37 456.05,-182.75 457.98,-189.48"/>
</g>
<!-- Node22 -->
<g id="node22" class="node">
<title>Node22</title>
<g id="a_node22"><a xlink:href="../../d8/d47/codepoint_8h.html" target="_top" xlink:title=" ">
<polygon fill="none" stroke="black" points="275.23,-165.5 275.23,-183.5 342.94,-183.5 342.94,-165.5 275.23,-165.5"/>
<text text-anchor="middle" x="309.08" y="-171.5" font-family="Helvetica,sans-Serif" font-size="10.00">codepoint.h</text>
</a>
</g>
</g>
<!-- Node21&#45;&gt;Node22 -->
<g id="edge24" class="edge">
<title>Node21&#45;&gt;Node22</title>
<path fill="none" stroke="midnightblue" d="M309.08,-220.22C309.08,-213.18 309.08,-202.81 309.08,-193.83"/>
<polygon fill="midnightblue" stroke="midnightblue" points="312.58,-193.55 309.08,-183.55 305.58,-193.55 312.58,-193.55"/>
</g>
<!-- Node22&#45;&gt;Node10 -->
<g id="edge25" class="edge">
<title>Node22&#45;&gt;Node10</title>
<path fill="none" stroke="midnightblue" d="M309.83,-165.35C311.35,-152.5 315.79,-127.24 328.08,-110 337.43,-96.89 351.87,-86.2 364.47,-78.59"/>
<polygon fill="midnightblue" stroke="midnightblue" points="366.26,-81.59 373.21,-73.6 362.79,-75.51 366.26,-81.59"/>
</g>
<!-- Node23 -->
<g id="node23" class="node">
<title>Node23</title>
<g id="a_node23"><a xlink:title=" ">
<polygon fill="none" stroke="#bfbfbf" points="337.57,-110.5 337.57,-128.5 388.6,-128.5 388.6,-110.5 337.57,-110.5"/>
<text text-anchor="middle" x="363.08" y="-116.5" font-family="Helvetica,sans-Serif" font-size="10.00">optional</text>
</a>
</g>
</g>
<!-- Node22&#45;&gt;Node23 -->
<g id="edge26" class="edge">
<title>Node22&#45;&gt;Node23</title>
<path fill="none" stroke="midnightblue" d="M317.52,-165.22C325.57,-157.32 337.89,-145.22 347.69,-135.61"/>
<polygon fill="midnightblue" stroke="midnightblue" points="350.2,-138.05 354.88,-128.55 345.29,-133.06 350.2,-138.05"/>
</g>
<!-- Node26&#45;&gt;Node15 -->
<g id="edge40" class="edge">
<title>Node26&#45;&gt;Node15</title>
<path fill="none" stroke="midnightblue" d="M461.49,-495.39C475.63,-482.14 505.53,-455.76 535.08,-440 656.44,-375.3 828.08,-478.03 828.08,-340.5 828.08,-340.5 828.08,-340.5 828.08,-283.5 828.08,-252.01 826.79,-215.36 825.9,-193.88"/>
<polygon fill="midnightblue" stroke="midnightblue" points="829.39,-193.47 825.46,-183.63 822.4,-193.77 829.39,-193.47"/>
</g>
<!-- Node27 -->
<g id="node27" class="node">
<title>Node27</title>
<g id="a_node27"><a xlink:href="../../d3/d01/txeqtb_8h.html" target="_top" xlink:title=" ">
<polygon fill="none" stroke="black" points="322.12,-440.5 322.12,-458.5 382.04,-458.5 382.04,-440.5 322.12,-440.5"/>
<text text-anchor="middle" x="352.08" y="-446.5" font-family="Helvetica,sans-Serif" font-size="10.00">../txeqtb.h</text>
</a>
</g>
</g>
<!-- Node26&#45;&gt;Node27 -->
<g id="edge31" class="edge">
<title>Node26&#45;&gt;Node27</title>
<path fill="none" stroke="midnightblue" d="M437.74,-495.45C421.5,-486.93 395.63,-473.35 376.57,-463.35"/>
<polygon fill="midnightblue" stroke="midnightblue" points="378.05,-460.17 367.57,-458.63 374.79,-466.37 378.05,-460.17"/>
</g>
<!-- Node28 -->
<g id="node28" class="node">
<title>Node28</title>
<g id="a_node28"><a xlink:href="../../d7/d1b/_buffer_8h.html" target="_top" xlink:title=" ">
<polygon fill="none" stroke="black" points="437.93,-440.5 437.93,-458.5 488.23,-458.5 488.23,-440.5 437.93,-440.5"/>
<text text-anchor="middle" x="463.08" y="-446.5" font-family="Helvetica,sans-Serif" font-size="10.00">Buffer.h</text>
</a>
</g>
</g>
<!-- Node26&#45;&gt;Node28 -->
<g id="edge35" class="edge">
<title>Node26&#45;&gt;Node28</title>
<path fill="none" stroke="midnightblue" d="M454.64,-495.22C455.99,-488.1 457.97,-477.58 459.68,-468.53"/>
<polygon fill="midnightblue" stroke="midnightblue" points="463.15,-469.03 461.56,-458.55 456.27,-467.73 463.15,-469.03"/>
</g>
<!-- Node27&#45;&gt;Node5 -->
<g id="edge34" class="edge">
<title>Node27&#45;&gt;Node5</title>
<path fill="none" stroke="midnightblue" d="M368.79,-440.45C386.64,-431.85 415.17,-418.1 435.98,-408.08"/>
<polygon fill="midnightblue" stroke="midnightblue" points="437.73,-411.12 445.22,-403.63 434.69,-404.81 437.73,-411.12"/>
</g>
<!-- Node27&#45;&gt;Node20 -->
<g id="edge33" class="edge">
<title>Node27&#45;&gt;Node20</title>
<path fill="none" stroke="midnightblue" d="M351.9,-440.28C351.67,-428.17 351.39,-404.83 352.08,-385 353.08,-356.64 355.67,-323.83 357.4,-303.88"/>
<polygon fill="midnightblue" stroke="midnightblue" points="360.9,-304.02 358.31,-293.75 353.93,-303.39 360.9,-304.02"/>
</g>
<!-- Node27&#45;&gt;Node21 -->
<g id="edge32" class="edge">
<title>Node27&#45;&gt;Node21</title>
<path fill="none" stroke="midnightblue" d="M349.06,-440.28C340.85,-417.46 318.18,-351.25 310.08,-294 307.95,-278.96 307.83,-261.71 308.16,-248.99"/>
<polygon fill="midnightblue" stroke="midnightblue" points="311.67,-248.9 308.56,-238.77 304.67,-248.63 311.67,-248.9"/>
</g>
<!-- Node28&#45;&gt;Node5 -->
<g id="edge38" class="edge">
<title>Node28&#45;&gt;Node5</title>
<path fill="none" stroke="midnightblue" d="M462.93,-440.22C462.79,-433.18 462.6,-422.81 462.43,-413.83"/>
<polygon fill="midnightblue" stroke="midnightblue" points="465.92,-413.48 462.23,-403.55 458.92,-413.61 465.92,-413.48"/>
</g>
<!-- Node29 -->
<g id="node29" class="node">
<title>Node29</title>
<g id="a_node29"><a xlink:href="../../d1/d9e/txid_8h.html" target="_top" xlink:title=" ">
<polygon fill="none" stroke="black" points="360.96,-385.5 360.96,-403.5 409.2,-403.5 409.2,-385.5 360.96,-385.5"/>
<text text-anchor="middle" x="385.08" y="-391.5" font-family="Helvetica,sans-Serif" font-size="10.00">../txid.h</text>
</a>
</g>
</g>
<!-- Node28&#45;&gt;Node29 -->
<g id="edge36" class="edge">
<title>Node28&#45;&gt;Node29</title>
<path fill="none" stroke="midnightblue" d="M451.24,-440.45C439.1,-432.2 419.98,-419.22 405.42,-409.32"/>
<polygon fill="midnightblue" stroke="midnightblue" points="407.28,-406.35 397.04,-403.63 403.34,-412.14 407.28,-406.35"/>
</g>
<!-- Node30 -->
<g id="node30" class="node">
<title>Node30</title>
<g id="a_node30"><a xlink:title=" ">
<polygon fill="none" stroke="#bfbfbf" points="514.36,-385.5 514.36,-403.5 559.81,-403.5 559.81,-385.5 514.36,-385.5"/>
<text text-anchor="middle" x="537.08" y="-391.5" font-family="Helvetica,sans-Serif" font-size="10.00">cstring</text>
</a>
</g>
</g>
<!-- Node28&#45;&gt;Node30 -->
<g id="edge39" class="edge">
<title>Node28&#45;&gt;Node30</title>
<path fill="none" stroke="midnightblue" d="M474.32,-440.45C485.73,-432.28 503.63,-419.46 517.4,-409.6"/>
<polygon fill="midnightblue" stroke="midnightblue" points="519.65,-412.29 525.74,-403.63 515.57,-406.6 519.65,-412.29"/>
</g>
<!-- Node29&#45;&gt;Node7 -->
<g id="edge37" class="edge">
<title>Node29&#45;&gt;Node7</title>
<path fill="none" stroke="midnightblue" d="M388.66,-385.3C394.27,-372.82 405.89,-348.55 419.08,-330 426.46,-319.62 436.05,-309.09 444.1,-300.88"/>
<polygon fill="midnightblue" stroke="midnightblue" points="446.59,-303.33 451.22,-293.8 441.66,-298.37 446.59,-303.33"/>
</g>
<!-- Node31&#45;&gt;Node16 -->
<g id="edge43" class="edge">
<title>Node31&#45;&gt;Node16</title>
<path fill="none" stroke="midnightblue" d="M695.08,-220.22C695.08,-213.18 695.08,-202.81 695.08,-193.83"/>
<polygon fill="midnightblue" stroke="midnightblue" points="698.58,-193.55 695.08,-183.55 691.58,-193.55 698.58,-193.55"/>
</g>
<!-- Node31&#45;&gt;Node17 -->
<g id="edge42" class="edge">
<title>Node31&#45;&gt;Node17</title>
<path fill="none" stroke="midnightblue" d="M667.97,-221.35C632.68,-212.05 570.85,-195.74 531.22,-185.29"/>
<polygon fill="midnightblue" stroke="midnightblue" points="531.96,-181.87 521.4,-182.7 530.18,-188.64 531.96,-181.87"/>
</g>
<!-- Node32&#45;&gt;Node8 -->
<g id="edge46" class="edge">
<title>Node32&#45;&gt;Node8</title>
<path fill="none" stroke="midnightblue" d="M772.86,-330.38C772.38,-313.18 771.25,-272.7 770.59,-248.89"/>
<polygon fill="midnightblue" stroke="midnightblue" points="774.09,-248.61 770.31,-238.71 767.09,-248.81 774.09,-248.61"/>
</g>
<!-- Node32&#45;&gt;Node25 -->
<g id="edge45" class="edge">
<title>Node32&#45;&gt;Node25</title>
<path fill="none" stroke="midnightblue" d="M746.12,-332.42C701.72,-322.41 613.55,-302.52 567.55,-292.15"/>
<polygon fill="midnightblue" stroke="midnightblue" points="568.14,-288.69 557.61,-289.9 566.6,-295.52 568.14,-288.69"/>
</g>
<!-- Node33&#45;&gt;Node27 -->
<g id="edge49" class="edge">
<title>Node33&#45;&gt;Node27</title>
<path fill="none" stroke="midnightblue" d="M361.36,-495.22C359.89,-488.1 357.7,-477.58 355.82,-468.53"/>
<polygon fill="midnightblue" stroke="midnightblue" points="359.21,-467.63 353.75,-458.55 352.36,-469.05 359.21,-467.63"/>
</g>
<!-- Node33&#45;&gt;Node28 -->
<g id="edge48" class="edge">
<title>Node33&#45;&gt;Node28</title>
<path fill="none" stroke="midnightblue" d="M378.27,-495.45C394.35,-486.93 419.96,-473.35 438.84,-463.35"/>
<polygon fill="midnightblue" stroke="midnightblue" points="440.55,-466.4 447.75,-458.63 437.28,-460.22 440.55,-466.4"/>
</g>
<!-- Node34&#45;&gt;Node14 -->
<g id="edge51" class="edge">
<title>Node34&#45;&gt;Node14</title>
<path fill="none" stroke="midnightblue" d="M585.27,-330.46C585.96,-310.9 589.17,-259.58 604.08,-220 607.82,-210.07 613.94,-199.98 619.5,-191.93"/>
<polygon fill="midnightblue" stroke="midnightblue" points="622.35,-193.96 625.4,-183.81 616.69,-189.85 622.35,-193.96"/>
</g>
<!-- Node34&#45;&gt;Node25 -->
<g id="edge52" class="edge">
<title>Node34&#45;&gt;Node25</title>
<path fill="none" stroke="midnightblue" d="M577.74,-330.22C570.87,-322.47 560.43,-310.7 551.99,-301.18"/>
<polygon fill="midnightblue" stroke="midnightblue" points="554.47,-298.71 545.22,-293.55 549.24,-303.35 554.47,-298.71"/>
</g>
<!-- Node35&#45;&gt;Node28 -->
<g id="edge54" class="edge">
<title>Node35&#45;&gt;Node28</title>
<path fill="none" stroke="midnightblue" d="M240.31,-497.35C243.24,-496.52 246.23,-495.71 249.08,-495 311.66,-479.35 385.49,-464.86 428.03,-456.89"/>
<polygon fill="midnightblue" stroke="midnightblue" points="428.7,-460.33 437.9,-455.06 427.42,-453.45 428.7,-460.33"/>
</g>
<!-- Node36 -->
<g id="node36" class="node">
<title>Node36</title>
<g id="a_node36"><a xlink:title=" ">
<polygon fill="none" stroke="#bfbfbf" points="144.41,-440.5 144.41,-458.5 193.75,-458.5 193.75,-440.5 144.41,-440.5"/>
<text text-anchor="middle" x="169.08" y="-446.5" font-family="Helvetica,sans-Serif" font-size="10.00">fstream</text>
</a>
</g>
</g>
<!-- Node35&#45;&gt;Node36 -->
<g id="edge55" class="edge">
<title>Node35&#45;&gt;Node36</title>
<path fill="none" stroke="midnightblue" d="M212.11,-495.22C204.58,-487.39 193.1,-475.46 183.89,-465.89"/>
<polygon fill="midnightblue" stroke="midnightblue" points="186.28,-463.33 176.83,-458.55 181.24,-468.18 186.28,-463.33"/>
</g>
<!-- Node38 -->
<g id="node38" class="node">
<title>Node38</title>
<g id="a_node38"><a xlink:href="../../d9/d1c/_xml_8h.html" target="_top" xlink:title=" ">
<polygon fill="none" stroke="black" points="515.86,-495.5 515.86,-513.5 586.31,-513.5 586.31,-495.5 515.86,-495.5"/>
<text text-anchor="middle" x="551.08" y="-501.5" font-family="Helvetica,sans-Serif" font-size="10.00">tralics/Xml.h</text>
</a>
</g>
</g>
<!-- Node37&#45;&gt;Node38 -->
<g id="edge57" class="edge">
<title>Node37&#45;&gt;Node38</title>
<path fill="none" stroke="midnightblue" d="M549.39,-550.22C549.66,-543.18 550.05,-532.81 550.39,-523.83"/>
<polygon fill="midnightblue" stroke="midnightblue" points="553.9,-523.67 550.78,-513.55 546.9,-523.41 553.9,-523.67"/>
</g>
<!-- Node40 -->
<g id="node40" class="node">
<title>Node40</title>
<g id="a_node40"><a xlink:href="../../d4/da4/txatt_8h.html" target="_top" xlink:title=" ">
<polygon fill="none" stroke="black" points="604.46,-495.5 604.46,-513.5 647.7,-513.5 647.7,-495.5 604.46,-495.5"/>
<text text-anchor="middle" x="626.08" y="-501.5" font-family="Helvetica,sans-Serif" font-size="10.00">txatt.h</text>
</a>
</g>
</g>
<!-- Node37&#45;&gt;Node40 -->
<g id="edge60" class="edge">
<title>Node37&#45;&gt;Node40</title>
<path fill="none" stroke="midnightblue" d="M560.78,-550.45C572.76,-542.2 591.63,-529.22 606.01,-519.32"/>
<polygon fill="midnightblue" stroke="midnightblue" points="608.02,-522.18 614.28,-513.63 604.06,-516.41 608.02,-522.18"/>
</g>
<!-- Node38&#45;&gt;Node28 -->
<g id="edge58" class="edge">
<title>Node38&#45;&gt;Node28</title>
<path fill="none" stroke="midnightblue" d="M537.72,-495.45C523.89,-487.12 502.05,-473.97 485.56,-464.04"/>
<polygon fill="midnightblue" stroke="midnightblue" points="486.95,-460.79 476.57,-458.63 483.33,-466.78 486.95,-460.79"/>
</g>
<!-- Node39 -->
<g id="node39" class="node">
<title>Node39</title>
<g id="a_node39"><a xlink:title=" ">
<polygon fill="none" stroke="#bfbfbf" points="543.91,-440.5 543.91,-458.5 588.25,-458.5 588.25,-440.5 543.91,-440.5"/>
<text text-anchor="middle" x="566.08" y="-446.5" font-family="Helvetica,sans-Serif" font-size="10.00">gsl/gsl</text>
</a>
</g>
</g>
<!-- Node38&#45;&gt;Node39 -->
<g id="edge59" class="edge">
<title>Node38&#45;&gt;Node39</title>
<path fill="none" stroke="midnightblue" d="M553.43,-495.22C555.46,-488.02 558.48,-477.35 561.06,-468.23"/>
<polygon fill="midnightblue" stroke="midnightblue" points="564.45,-469.12 563.8,-458.55 557.71,-467.22 564.45,-469.12"/>
</g>
<!-- Node42&#45;&gt;Node7 -->
<g id="edge63" class="edge">
<title>Node42&#45;&gt;Node7</title>
<path fill="none" stroke="midnightblue" d="M114.41,-605.29C109.48,-578.58 97.51,-492.85 135.08,-440 200.6,-347.85 335.92,-308.77 409.6,-293.79"/>
<polygon fill="midnightblue" stroke="midnightblue" points="410.43,-297.19 419.57,-291.83 409.08,-290.32 410.43,-297.19"/>
</g>
<!-- Node42&#45;&gt;Node22 -->
<g id="edge64" class="edge">
<title>Node42&#45;&gt;Node22</title>
<path fill="none" stroke="midnightblue" d="M88.02,-607.35C66.28,-601.18 36.95,-589.55 19.08,-569 -0.25,-546.77 0.08,-534.96 0.08,-505.5 0.08,-505.5 0.08,-505.5 0.08,-283.5 0.08,-228 179.94,-194.32 265.22,-181.47"/>
<polygon fill="midnightblue" stroke="midnightblue" points="265.75,-184.93 275.13,-180.01 264.73,-178.01 265.75,-184.93"/>
</g>
<!-- Node43 -->
<g id="node43" class="node">
<title>Node43</title>
<g id="a_node43"><a xlink:title=" ">
<polygon fill="none" stroke="#bfbfbf" points="27.86,-550.5 27.86,-568.5 88.31,-568.5 88.31,-550.5 27.86,-550.5"/>
<text text-anchor="middle" x="58.08" y="-556.5" font-family="Helvetica,sans-Serif" font-size="10.00">filesystem</text>
</a>
</g>
</g>
<!-- Node42&#45;&gt;Node43 -->
<g id="edge65" class="edge">
<title>Node42&#45;&gt;Node43</title>
<path fill="none" stroke="midnightblue" d="M107.02,-605.22C98.29,-597.24 84.88,-584.98 74.3,-575.32"/>
<polygon fill="midnightblue" stroke="midnightblue" points="76.63,-572.71 66.89,-568.55 71.91,-577.88 76.63,-572.71"/>
</g>
<!-- Node45 -->
<g id="node45" class="node">
<title>Node45</title>
<g id="a_node45"><a xlink:href="../../d4/de9/_main_class_8h.html" target="_top" xlink:title=" ">
<polygon fill="none" stroke="black" points="222.13,-550.5 222.13,-568.5 322.04,-568.5 322.04,-550.5 222.13,-550.5"/>
<text text-anchor="middle" x="272.08" y="-556.5" font-family="Helvetica,sans-Serif" font-size="10.00">tralics/MainClass.h</text>
</a>
</g>
</g>
<!-- Node44&#45;&gt;Node45 -->
<g id="edge68" class="edge">
<title>Node44&#45;&gt;Node45</title>
<path fill="none" stroke="midnightblue" d="M272.08,-605.22C272.08,-598.18 272.08,-587.81 272.08,-578.83"/>
<polygon fill="midnightblue" stroke="midnightblue" points="275.58,-578.55 272.08,-568.55 268.58,-578.55 275.58,-578.55"/>
</g>
<!-- Node46 -->
<g id="node46" class="node">
<title>Node46</title>
<g id="a_node46"><a xlink:href="../../d2/d06/txlogger_8h.html" target="_top" xlink:title=" ">
<polygon fill="none" stroke="black" points="258.4,-495.5 258.4,-513.5 317.77,-513.5 317.77,-495.5 258.4,-495.5"/>
<text text-anchor="middle" x="288.08" y="-501.5" font-family="Helvetica,sans-Serif" font-size="10.00">txlogger.h</text>
</a>
</g>
</g>
<!-- Node44&#45;&gt;Node46 -->
<g id="edge70" class="edge">
<title>Node44&#45;&gt;Node46</title>
<path fill="none" stroke="midnightblue" d="M290.2,-605.5C304.22,-598.21 322.61,-586 331.08,-569 340,-551.1 323.65,-532.35 308.62,-519.9"/>
<polygon fill="midnightblue" stroke="midnightblue" points="310.62,-517.03 300.57,-513.69 306.34,-522.57 310.62,-517.03"/>
</g>
<!-- Node48 -->
<g id="node48" class="node">
<title>Node48</title>
<g id="a_node48"><a xlink:href="../../d5/d08/txparam_8h.html" target="_top" xlink:title=" ">
<polygon fill="none" stroke="black" points="143.85,-550.5 143.85,-568.5 204.31,-568.5 204.31,-550.5 143.85,-550.5"/>
<text text-anchor="middle" x="174.08" y="-556.5" font-family="Helvetica,sans-Serif" font-size="10.00">txparam.h</text>
</a>
</g>
</g>
<!-- Node44&#45;&gt;Node48 -->
<g id="edge76" class="edge">
<title>Node44&#45;&gt;Node48</title>
<path fill="none" stroke="midnightblue" d="M257.2,-605.45C241.51,-596.97 216.57,-583.48 198.09,-573.49"/>
<polygon fill="midnightblue" stroke="midnightblue" points="199.57,-570.3 189.11,-568.63 196.24,-576.46 199.57,-570.3"/>
</g>
<!-- Node45&#45;&gt;Node35 -->
<g id="edge69" class="edge">
<title>Node45&#45;&gt;Node35</title>
<path fill="none" stroke="midnightblue" d="M263.96,-550.22C256.28,-542.39 244.57,-530.46 235.18,-520.89"/>
<polygon fill="midnightblue" stroke="midnightblue" points="237.48,-518.24 227.98,-513.55 232.49,-523.14 237.48,-518.24"/>
</g>
<!-- Node46&#45;&gt;Node5 -->
<g id="edge73" class="edge">
<title>Node46&#45;&gt;Node5</title>
<path fill="none" stroke="midnightblue" d="M312.49,-495.48C334.08,-487.81 365.97,-475.05 391.08,-459 412.51,-445.3 433.82,-425.14 447.42,-411.23"/>
<polygon fill="midnightblue" stroke="midnightblue" points="450.09,-413.5 454.48,-403.85 445.03,-408.66 450.09,-413.5"/>
</g>
<!-- Node46&#45;&gt;Node28 -->
<g id="edge71" class="edge">
<title>Node46&#45;&gt;Node28</title>
<path fill="none" stroke="midnightblue" d="M314.66,-495.45C344.9,-486.29 394.42,-471.3 427.86,-461.17"/>
<polygon fill="midnightblue" stroke="midnightblue" points="429.12,-464.44 437.68,-458.19 427.09,-457.74 429.12,-464.44"/>
</g>
<!-- Node46&#45;&gt;Node29 -->
<g id="edge72" class="edge">
<title>Node46&#45;&gt;Node29</title>
<path fill="none" stroke="midnightblue" d="M289.59,-495.23C292.3,-482.21 299.1,-456.73 313.08,-440 324.6,-426.22 341.53,-415.45 356.08,-407.96"/>
<polygon fill="midnightblue" stroke="midnightblue" points="357.76,-411.04 365.22,-403.52 354.7,-404.75 357.76,-411.04"/>
</g>
<!-- Node46&#45;&gt;Node36 -->
<g id="edge74" class="edge">
<title>Node46&#45;&gt;Node36</title>
<path fill="none" stroke="midnightblue" d="M270.01,-495.45C250.53,-486.77 219.28,-472.86 196.71,-462.8"/>
<polygon fill="midnightblue" stroke="midnightblue" points="197.88,-459.5 187.33,-458.63 195.04,-465.89 197.88,-459.5"/>
</g>
<!-- Node47 -->
<g id="node47" class="node">
<title>Node47</title>
<g id="a_node47"><a xlink:title=" ">
<polygon fill="none" stroke="#bfbfbf" points="211.91,-440.5 211.91,-458.5 266.25,-458.5 266.25,-440.5 211.91,-440.5"/>
<text text-anchor="middle" x="239.08" y="-446.5" font-family="Helvetica,sans-Serif" font-size="10.00">iostream</text>
</a>
</g>
</g>
<!-- Node46&#45;&gt;Node47 -->
<g id="edge75" class="edge">
<title>Node46&#45;&gt;Node47</title>
<path fill="none" stroke="midnightblue" d="M280.43,-495.22C273.26,-487.47 262.38,-475.7 253.58,-466.18"/>
<polygon fill="midnightblue" stroke="midnightblue" points="255.88,-463.52 246.52,-458.55 250.74,-468.27 255.88,-463.52"/>
</g>
<!-- Node48&#45;&gt;Node35 -->
<g id="edge77" class="edge">
<title>Node48&#45;&gt;Node35</title>
<path fill="none" stroke="midnightblue" d="M181.27,-550.22C187.99,-542.47 198.21,-530.7 206.47,-521.18"/>
<polygon fill="midnightblue" stroke="midnightblue" points="209.18,-523.4 213.1,-513.55 203.9,-518.81 209.18,-523.4"/>
</g>
</g>
</svg>
