<?xml version="1.0" encoding="UTF-8" standalone="no"?>
<!DOCTYPE svg PUBLIC "-//W3C//DTD SVG 1.1//EN"
 "http://www.w3.org/Graphics/SVG/1.1/DTD/svg11.dtd">
<!-- Generated by graphviz version 2.42.3 (20191010.1750)
 -->
<!-- Title: MainClass.cpp Pages: 1 -->
<svg width="652pt" height="742pt"
 viewBox="0.00 0.00 652.00 742.00" xmlns="http://www.w3.org/2000/svg" xmlns:xlink="http://www.w3.org/1999/xlink">
<g id="graph0" class="graph" transform="scale(1 1) rotate(0) translate(4 738)">
<title>MainClass.cpp</title>
<!-- Node1 -->
<g id="node1" class="node">
<title>Node1</title>
<g id="a_node1"><a xlink:title=" ">
<polygon fill="#bfbfbf" stroke="black" points="295.21,-715.5 295.21,-733.5 376.79,-733.5 376.79,-715.5 295.21,-715.5"/>
<text text-anchor="middle" x="336" y="-721.5" font-family="Helvetica,sans-Serif" font-size="10.00">MainClass.cpp</text>
</a>
</g>
</g>
<!-- Node2 -->
<g id="node2" class="node">
<title>Node2</title>
<g id="a_node2"><a xlink:href="../../d5/d87/globals_8h.html" target="_top" xlink:title=" ">
<polygon fill="none" stroke="black" points="122.54,-440.5 122.54,-458.5 207.46,-458.5 207.46,-440.5 122.54,-440.5"/>
<text text-anchor="middle" x="165" y="-446.5" font-family="Helvetica,sans-Serif" font-size="10.00">tralics/globals.h</text>
</a>
</g>
</g>
<!-- Node1&#45;&gt;Node2 -->
<g id="edge1" class="edge">
<title>Node1&#45;&gt;Node2</title>
<path fill="none" stroke="midnightblue" d="M295.14,-719.09C205.59,-708.3 0,-676.85 0,-615.5 0,-615.5 0,-615.5 0,-558.5 0,-503.09 65.95,-474.57 114.46,-461.09"/>
<polygon fill="midnightblue" stroke="midnightblue" points="115.44,-464.46 124.21,-458.52 113.65,-457.69 115.44,-464.46"/>
</g>
<!-- Node13 -->
<g id="node13" class="node">
<title>Node13</title>
<g id="a_node13"><a xlink:href="../../d7/d79/txinline_8h.html" target="_top" xlink:title=" ">
<polygon fill="none" stroke="black" points="157.27,-660.5 157.27,-678.5 212.73,-678.5 212.73,-660.5 157.27,-660.5"/>
<text text-anchor="middle" x="185" y="-666.5" font-family="Helvetica,sans-Serif" font-size="10.00">txinline.h</text>
</a>
</g>
</g>
<!-- Node1&#45;&gt;Node13 -->
<g id="edge13" class="edge">
<title>Node1&#45;&gt;Node13</title>
<path fill="none" stroke="midnightblue" d="M313.07,-715.45C287.68,-706.54 246.55,-692.1 217.77,-682"/>
<polygon fill="midnightblue" stroke="midnightblue" points="218.74,-678.63 208.15,-678.63 216.43,-685.24 218.74,-678.63"/>
</g>
<!-- Node32 -->
<g id="node32" class="node">
<title>Node32</title>
<g id="a_node32"><a xlink:href="../../d2/d1b/txparser_8h.html" target="_top" xlink:title=" ">
<polygon fill="none" stroke="black" points="409.04,-660.5 409.04,-678.5 468.96,-678.5 468.96,-660.5 409.04,-660.5"/>
<text text-anchor="middle" x="439" y="-666.5" font-family="Helvetica,sans-Serif" font-size="10.00">txparser.h</text>
</a>
</g>
</g>
<!-- Node1&#45;&gt;Node32 -->
<g id="edge42" class="edge">
<title>Node1&#45;&gt;Node32</title>
<path fill="none" stroke="midnightblue" d="M351.64,-715.45C368.28,-706.89 394.83,-693.23 414.3,-683.21"/>
<polygon fill="midnightblue" stroke="midnightblue" points="415.92,-686.31 423.21,-678.63 412.72,-680.09 415.92,-686.31"/>
</g>
<!-- Node42 -->
<g id="node42" class="node">
<title>Node42</title>
<g id="a_node42"><a xlink:title=" ">
<polygon fill="none" stroke="#bfbfbf" points="486.97,-660.5 486.97,-678.5 573.03,-678.5 573.03,-660.5 486.97,-660.5"/>
<text text-anchor="middle" x="530" y="-666.5" font-family="Helvetica,sans-Serif" font-size="10.00">spdlog/spdlog.h</text>
</a>
</g>
</g>
<!-- Node1&#45;&gt;Node42 -->
<g id="edge62" class="edge">
<title>Node1&#45;&gt;Node42</title>
<path fill="none" stroke="midnightblue" d="M365.46,-715.45C398.89,-706.32 453.56,-691.38 490.62,-681.26"/>
<polygon fill="midnightblue" stroke="midnightblue" points="491.85,-684.55 500.58,-678.54 490.01,-677.8 491.85,-684.55"/>
</g>
<!-- Node3 -->
<g id="node3" class="node">
<title>Node3</title>
<g id="a_node3"><a xlink:href="../../d8/d47/codepoint_8h.html" target="_top" xlink:title=" ">
<polygon fill="none" stroke="black" points="141.15,-165.5 141.15,-183.5 208.85,-183.5 208.85,-165.5 141.15,-165.5"/>
<text text-anchor="middle" x="175" y="-171.5" font-family="Helvetica,sans-Serif" font-size="10.00">codepoint.h</text>
</a>
</g>
</g>
<!-- Node2&#45;&gt;Node3 -->
<g id="edge2" class="edge">
<title>Node2&#45;&gt;Node3</title>
<path fill="none" stroke="midnightblue" d="M160.03,-440.44C149.73,-422.94 127,-379.86 127,-340.5 127,-340.5 127,-340.5 127,-283.5 127,-248.45 148.38,-212.08 162.6,-191.77"/>
<polygon fill="midnightblue" stroke="midnightblue" points="165.47,-193.77 168.53,-183.62 159.81,-189.65 165.47,-193.77"/>
</g>
<!-- Node9 -->
<g id="node9" class="node">
<title>Node9</title>
<g id="a_node9"><a xlink:href="../../d0/d0b/enums_8h.html" target="_top" xlink:title=" ">
<polygon fill="none" stroke="black" points="249.82,-165.5 249.82,-183.5 304.18,-183.5 304.18,-165.5 249.82,-165.5"/>
<text text-anchor="middle" x="277" y="-171.5" font-family="Helvetica,sans-Serif" font-size="10.00">enums.h</text>
</a>
</g>
</g>
<!-- Node2&#45;&gt;Node9 -->
<g id="edge8" class="edge">
<title>Node2&#45;&gt;Node9</title>
<path fill="none" stroke="midnightblue" d="M165,-440.37C165,-422.38 165,-377.81 165,-340.5 165,-340.5 165,-340.5 165,-283.5 165,-254.04 164.85,-242.39 184,-220 198.47,-203.09 220.82,-192.11 239.98,-185.29"/>
<polygon fill="midnightblue" stroke="midnightblue" points="241.26,-188.55 249.65,-182.09 239.06,-181.9 241.26,-188.55"/>
</g>
<!-- Node11 -->
<g id="node11" class="node">
<title>Node11</title>
<g id="a_node11"><a xlink:title=" ">
<polygon fill="none" stroke="#bfbfbf" points="443.77,-220.5 443.77,-238.5 484.23,-238.5 484.23,-220.5 443.77,-220.5"/>
<text text-anchor="middle" x="464" y="-226.5" font-family="Helvetica,sans-Serif" font-size="10.00">string</text>
</a>
</g>
</g>
<!-- Node2&#45;&gt;Node11 -->
<g id="edge11" class="edge">
<title>Node2&#45;&gt;Node11</title>
<path fill="none" stroke="midnightblue" d="M170.03,-440.18C187.26,-412.4 246.92,-321.91 320,-275 355.26,-252.37 402.75,-240.64 433.37,-235.03"/>
<polygon fill="midnightblue" stroke="midnightblue" points="434.19,-238.44 443.45,-233.29 433,-231.54 434.19,-238.44"/>
</g>
<!-- Node12 -->
<g id="node12" class="node">
<title>Node12</title>
<g id="a_node12"><a xlink:title=" ">
<polygon fill="none" stroke="#bfbfbf" points="510.38,-385.5 510.38,-403.5 553.62,-403.5 553.62,-385.5 510.38,-385.5"/>
<text text-anchor="middle" x="532" y="-391.5" font-family="Helvetica,sans-Serif" font-size="10.00">vector</text>
</a>
</g>
</g>
<!-- Node2&#45;&gt;Node12 -->
<g id="edge12" class="edge">
<title>Node2&#45;&gt;Node12</title>
<path fill="none" stroke="midnightblue" d="M207.82,-442.32C282.33,-431.56 434.18,-409.63 500.18,-400.09"/>
<polygon fill="midnightblue" stroke="midnightblue" points="500.98,-403.52 510.38,-398.62 499.98,-396.59 500.98,-403.52"/>
</g>
<!-- Node4 -->
<g id="node4" class="node">
<title>Node4</title>
<g id="a_node4"><a xlink:href="../../d9/d49/types_8h.html" target="_top" xlink:title=" ">
<polygon fill="none" stroke="black" points="190.88,-55.5 190.88,-73.5 239.12,-73.5 239.12,-55.5 190.88,-55.5"/>
<text text-anchor="middle" x="215" y="-61.5" font-family="Helvetica,sans-Serif" font-size="10.00">types.h</text>
</a>
</g>
</g>
<!-- Node3&#45;&gt;Node4 -->
<g id="edge3" class="edge">
<title>Node3&#45;&gt;Node4</title>
<path fill="none" stroke="midnightblue" d="M172.51,-165.32C169.16,-152.86 164.47,-128.62 172,-110 176.75,-98.26 186.24,-87.89 195.11,-80.12"/>
<polygon fill="midnightblue" stroke="midnightblue" points="197.37,-82.79 202.91,-73.76 192.95,-77.37 197.37,-82.79"/>
</g>
<!-- Node8 -->
<g id="node8" class="node">
<title>Node8</title>
<g id="a_node8"><a xlink:title=" ">
<polygon fill="none" stroke="#bfbfbf" points="181.49,-110.5 181.49,-128.5 232.51,-128.5 232.51,-110.5 181.49,-110.5"/>
<text text-anchor="middle" x="207" y="-116.5" font-family="Helvetica,sans-Serif" font-size="10.00">optional</text>
</a>
</g>
</g>
<!-- Node3&#45;&gt;Node8 -->
<g id="edge7" class="edge">
<title>Node3&#45;&gt;Node8</title>
<path fill="none" stroke="midnightblue" d="M180,-165.22C184.49,-157.79 191.21,-146.65 196.83,-137.34"/>
<polygon fill="midnightblue" stroke="midnightblue" points="199.97,-138.92 202.14,-128.55 193.97,-135.3 199.97,-138.92"/>
</g>
<!-- Node5 -->
<g id="node5" class="node">
<title>Node5</title>
<g id="a_node5"><a xlink:title=" ">
<polygon fill="none" stroke="#bfbfbf" points="122.88,-0.5 122.88,-18.5 171.12,-18.5 171.12,-0.5 122.88,-0.5"/>
<text text-anchor="middle" x="147" y="-6.5" font-family="Helvetica,sans-Serif" font-size="10.00">cassert</text>
</a>
</g>
</g>
<!-- Node4&#45;&gt;Node5 -->
<g id="edge4" class="edge">
<title>Node4&#45;&gt;Node5</title>
<path fill="none" stroke="midnightblue" d="M204.67,-55.45C194.29,-47.36 178.05,-34.7 165.45,-24.88"/>
<polygon fill="midnightblue" stroke="midnightblue" points="167.46,-22.01 157.42,-18.63 163.16,-27.53 167.46,-22.01"/>
</g>
<!-- Node6 -->
<g id="node6" class="node">
<title>Node6</title>
<g id="a_node6"><a xlink:title=" ">
<polygon fill="none" stroke="#bfbfbf" points="189.21,-0.5 189.21,-18.5 240.79,-18.5 240.79,-0.5 189.21,-0.5"/>
<text text-anchor="middle" x="215" y="-6.5" font-family="Helvetica,sans-Serif" font-size="10.00">stddef.h</text>
</a>
</g>
</g>
<!-- Node4&#45;&gt;Node6 -->
<g id="edge5" class="edge">
<title>Node4&#45;&gt;Node6</title>
<path fill="none" stroke="midnightblue" d="M215,-55.22C215,-48.18 215,-37.81 215,-28.83"/>
<polygon fill="midnightblue" stroke="midnightblue" points="218.5,-28.55 215,-18.55 211.5,-28.55 218.5,-28.55"/>
</g>
<!-- Node7 -->
<g id="node7" class="node">
<title>Node7</title>
<g id="a_node7"><a xlink:title=" ">
<polygon fill="none" stroke="#bfbfbf" points="258.93,-0.5 258.93,-18.5 321.07,-18.5 321.07,-0.5 258.93,-0.5"/>
<text text-anchor="middle" x="290" y="-6.5" font-family="Helvetica,sans-Serif" font-size="10.00">type_traits</text>
</a>
</g>
</g>
<!-- Node4&#45;&gt;Node7 -->
<g id="edge6" class="edge">
<title>Node4&#45;&gt;Node7</title>
<path fill="none" stroke="midnightblue" d="M226.39,-55.45C237.95,-47.28 256.09,-34.46 270.05,-24.6"/>
<polygon fill="midnightblue" stroke="midnightblue" points="272.36,-27.25 278.5,-18.63 268.32,-21.54 272.36,-27.25"/>
</g>
<!-- Node10 -->
<g id="node10" class="node">
<title>Node10</title>
<g id="a_node10"><a xlink:href="../../d8/db5/consts_8h.html" target="_top" xlink:title=" ">
<polygon fill="none" stroke="black" points="250.38,-110.5 250.38,-128.5 303.62,-128.5 303.62,-110.5 250.38,-110.5"/>
<text text-anchor="middle" x="277" y="-116.5" font-family="Helvetica,sans-Serif" font-size="10.00">consts.h</text>
</a>
</g>
</g>
<!-- Node9&#45;&gt;Node10 -->
<g id="edge9" class="edge">
<title>Node9&#45;&gt;Node10</title>
<path fill="none" stroke="midnightblue" d="M277,-165.22C277,-158.18 277,-147.81 277,-138.83"/>
<polygon fill="midnightblue" stroke="midnightblue" points="280.5,-138.55 277,-128.55 273.5,-138.55 280.5,-138.55"/>
</g>
<!-- Node10&#45;&gt;Node4 -->
<g id="edge10" class="edge">
<title>Node10&#45;&gt;Node4</title>
<path fill="none" stroke="midnightblue" d="M267.58,-110.45C258.21,-102.43 243.6,-89.95 232.16,-80.17"/>
<polygon fill="midnightblue" stroke="midnightblue" points="234.38,-77.46 224.51,-73.63 229.83,-82.78 234.38,-77.46"/>
</g>
<!-- Node14 -->
<g id="node14" class="node">
<title>Node14</title>
<g id="a_node14"><a xlink:href="../../d4/de9/_main_class_8h.html" target="_top" xlink:title=" ">
<polygon fill="none" stroke="black" points="184.04,-605.5 184.04,-623.5 283.96,-623.5 283.96,-605.5 184.04,-605.5"/>
<text text-anchor="middle" x="234" y="-611.5" font-family="Helvetica,sans-Serif" font-size="10.00">tralics/MainClass.h</text>
</a>
</g>
</g>
<!-- Node13&#45;&gt;Node14 -->
<g id="edge14" class="edge">
<title>Node13&#45;&gt;Node14</title>
<path fill="none" stroke="midnightblue" d="M192.66,-660.22C199.82,-652.47 210.7,-640.7 219.5,-631.18"/>
<polygon fill="midnightblue" stroke="midnightblue" points="222.34,-633.27 226.56,-623.55 217.2,-628.52 222.34,-633.27"/>
</g>
<!-- Node29 -->
<g id="node29" class="node">
<title>Node29</title>
<g id="a_node29"><a xlink:href="../../d2/d06/txlogger_8h.html" target="_top" xlink:title=" ">
<polygon fill="none" stroke="black" points="28.32,-605.5 28.32,-623.5 87.68,-623.5 87.68,-605.5 28.32,-605.5"/>
<text text-anchor="middle" x="58" y="-611.5" font-family="Helvetica,sans-Serif" font-size="10.00">txlogger.h</text>
</a>
</g>
</g>
<!-- Node13&#45;&gt;Node29 -->
<g id="edge37" class="edge">
<title>Node13&#45;&gt;Node29</title>
<path fill="none" stroke="midnightblue" d="M165.71,-660.45C144.73,-651.7 110.97,-637.61 86.84,-627.53"/>
<polygon fill="midnightblue" stroke="midnightblue" points="88.05,-624.25 77.47,-623.63 85.35,-630.71 88.05,-624.25"/>
</g>
<!-- Node31 -->
<g id="node31" class="node">
<title>Node31</title>
<g id="a_node31"><a xlink:href="../../d5/d08/txparam_8h.html" target="_top" xlink:title=" ">
<polygon fill="none" stroke="black" points="105.77,-605.5 105.77,-623.5 166.23,-623.5 166.23,-605.5 105.77,-605.5"/>
<text text-anchor="middle" x="136" y="-611.5" font-family="Helvetica,sans-Serif" font-size="10.00">txparam.h</text>
</a>
</g>
</g>
<!-- Node13&#45;&gt;Node31 -->
<g id="edge40" class="edge">
<title>Node13&#45;&gt;Node31</title>
<path fill="none" stroke="midnightblue" d="M177.34,-660.22C170.18,-652.47 159.3,-640.7 150.5,-631.18"/>
<polygon fill="midnightblue" stroke="midnightblue" points="152.8,-628.52 143.44,-623.55 147.66,-633.27 152.8,-628.52"/>
</g>
<!-- Node15 -->
<g id="node15" class="node">
<title>Node15</title>
<g id="a_node15"><a xlink:href="../../de/d29/txio_8h.html" target="_top" xlink:title=" ">
<polygon fill="none" stroke="black" points="209.88,-550.5 209.88,-568.5 258.12,-568.5 258.12,-550.5 209.88,-550.5"/>
<text text-anchor="middle" x="234" y="-556.5" font-family="Helvetica,sans-Serif" font-size="10.00">../txio.h</text>
</a>
</g>
</g>
<!-- Node14&#45;&gt;Node15 -->
<g id="edge15" class="edge">
<title>Node14&#45;&gt;Node15</title>
<path fill="none" stroke="midnightblue" d="M234,-605.22C234,-598.18 234,-587.81 234,-578.83"/>
<polygon fill="midnightblue" stroke="midnightblue" points="237.5,-578.55 234,-568.55 230.5,-578.55 237.5,-578.55"/>
</g>
<!-- Node28 -->
<g id="node28" class="node">
<title>Node28</title>
<g id="a_node28"><a xlink:href="../../dc/def/txstring_8h.html" target="_top" xlink:title=" ">
<polygon fill="none" stroke="black" points="390.55,-495.5 390.55,-513.5 455.45,-513.5 455.45,-495.5 390.55,-495.5"/>
<text text-anchor="middle" x="423" y="-501.5" font-family="Helvetica,sans-Serif" font-size="10.00">../txstring.h</text>
</a>
</g>
</g>
<!-- Node14&#45;&gt;Node28 -->
<g id="edge35" class="edge">
<title>Node14&#45;&gt;Node28</title>
<path fill="none" stroke="midnightblue" d="M243.15,-605.23C257.88,-592.22 288.12,-566.74 317,-550 340.11,-536.61 368.02,-525.06 389.4,-517.08"/>
<polygon fill="midnightblue" stroke="midnightblue" points="390.83,-520.29 399.02,-513.57 388.43,-513.71 390.83,-520.29"/>
</g>
<!-- Node16 -->
<g id="node16" class="node">
<title>Node16</title>
<g id="a_node16"><a xlink:href="../../dd/d74/txbuffer_8h.html" target="_top" xlink:title=" ">
<polygon fill="none" stroke="black" points="394.52,-440.5 394.52,-458.5 451.48,-458.5 451.48,-440.5 394.52,-440.5"/>
<text text-anchor="middle" x="423" y="-446.5" font-family="Helvetica,sans-Serif" font-size="10.00">txbuffer.h</text>
</a>
</g>
</g>
<!-- Node15&#45;&gt;Node16 -->
<g id="edge16" class="edge">
<title>Node15&#45;&gt;Node16</title>
<path fill="none" stroke="midnightblue" d="M248.21,-550.38C280.57,-531.89 360.06,-486.46 399.72,-463.8"/>
<polygon fill="midnightblue" stroke="midnightblue" points="401.94,-466.56 408.89,-458.56 398.47,-460.49 401.94,-466.56"/>
</g>
<!-- Node27 -->
<g id="node27" class="node">
<title>Node27</title>
<g id="a_node27"><a xlink:title=" ">
<polygon fill="none" stroke="#bfbfbf" points="166.33,-495.5 166.33,-513.5 215.67,-513.5 215.67,-495.5 166.33,-495.5"/>
<text text-anchor="middle" x="191" y="-501.5" font-family="Helvetica,sans-Serif" font-size="10.00">fstream</text>
</a>
</g>
</g>
<!-- Node15&#45;&gt;Node27 -->
<g id="edge34" class="edge">
<title>Node15&#45;&gt;Node27</title>
<path fill="none" stroke="midnightblue" d="M227.28,-550.22C221.06,-542.55 211.64,-530.94 203.96,-521.47"/>
<polygon fill="midnightblue" stroke="midnightblue" points="206.55,-519.11 197.53,-513.55 201.11,-523.52 206.55,-519.11"/>
</g>
<!-- Node16&#45;&gt;Node12 -->
<g id="edge33" class="edge">
<title>Node16&#45;&gt;Node12</title>
<path fill="none" stroke="midnightblue" d="M439.55,-440.45C457.24,-431.85 485.51,-418.1 506.14,-408.08"/>
<polygon fill="midnightblue" stroke="midnightblue" points="507.83,-411.15 515.29,-403.63 504.77,-404.85 507.83,-411.15"/>
</g>
<!-- Node17 -->
<g id="node17" class="node">
<title>Node17</title>
<g id="a_node17"><a xlink:href="../../d1/d9e/txid_8h.html" target="_top" xlink:title=" ">
<polygon fill="none" stroke="black" points="443.05,-330.5 443.05,-348.5 482.95,-348.5 482.95,-330.5 443.05,-330.5"/>
<text text-anchor="middle" x="463" y="-336.5" font-family="Helvetica,sans-Serif" font-size="10.00">txid.h</text>
</a>
</g>
</g>
<!-- Node16&#45;&gt;Node17 -->
<g id="edge17" class="edge">
<title>Node16&#45;&gt;Node17</title>
<path fill="none" stroke="midnightblue" d="M433.89,-440.36C443.61,-432.35 457.2,-419.13 463,-404 468.56,-389.51 468,-371.76 466.38,-358.71"/>
<polygon fill="midnightblue" stroke="midnightblue" points="469.81,-357.99 464.8,-348.65 462.89,-359.08 469.81,-357.99"/>
</g>
<!-- Node20 -->
<g id="node20" class="node">
<title>Node20</title>
<g id="a_node20"><a xlink:href="../../d9/d18/txscaled_8h.html" target="_top" xlink:title=" ">
<polygon fill="none" stroke="black" points="392.49,-385.5 392.49,-403.5 453.51,-403.5 453.51,-385.5 392.49,-385.5"/>
<text text-anchor="middle" x="423" y="-391.5" font-family="Helvetica,sans-Serif" font-size="10.00">txscaled.h</text>
</a>
</g>
</g>
<!-- Node16&#45;&gt;Node20 -->
<g id="edge23" class="edge">
<title>Node16&#45;&gt;Node20</title>
<path fill="none" stroke="midnightblue" d="M423,-440.22C423,-433.18 423,-422.81 423,-413.83"/>
<polygon fill="midnightblue" stroke="midnightblue" points="426.5,-413.55 423,-403.55 419.5,-413.55 426.5,-413.55"/>
</g>
<!-- Node26 -->
<g id="node26" class="node">
<title>Node26</title>
<g id="a_node26"><a xlink:title=" ">
<polygon fill="none" stroke="#bfbfbf" points="329.27,-385.5 329.27,-403.5 374.73,-403.5 374.73,-385.5 329.27,-385.5"/>
<text text-anchor="middle" x="352" y="-391.5" font-family="Helvetica,sans-Serif" font-size="10.00">cstring</text>
</a>
</g>
</g>
<!-- Node16&#45;&gt;Node26 -->
<g id="edge32" class="edge">
<title>Node16&#45;&gt;Node26</title>
<path fill="none" stroke="midnightblue" d="M412.22,-440.45C401.37,-432.36 384.42,-419.7 371.27,-409.88"/>
<polygon fill="midnightblue" stroke="midnightblue" points="372.99,-406.8 362.88,-403.63 368.8,-412.41 372.99,-406.8"/>
</g>
<!-- Node17&#45;&gt;Node11 -->
<g id="edge22" class="edge">
<title>Node17&#45;&gt;Node11</title>
<path fill="none" stroke="midnightblue" d="M465.87,-330.43C468.84,-321.61 473.28,-307.01 475,-294 477.05,-278.56 473.61,-261.13 470.06,-248.45"/>
<polygon fill="midnightblue" stroke="midnightblue" points="473.34,-247.2 467.03,-238.69 466.65,-249.28 473.34,-247.2"/>
</g>
<!-- Node18 -->
<g id="node18" class="node">
<title>Node18</title>
<g id="a_node18"><a xlink:href="../../d5/daf/_istring_8h.html" target="_top" xlink:title=" ">
<polygon fill="none" stroke="black" points="328.77,-275.5 328.77,-293.5 409.23,-293.5 409.23,-275.5 328.77,-275.5"/>
<text text-anchor="middle" x="369" y="-281.5" font-family="Helvetica,sans-Serif" font-size="10.00">tralics/Istring.h</text>
</a>
</g>
</g>
<!-- Node17&#45;&gt;Node18 -->
<g id="edge18" class="edge">
<title>Node17&#45;&gt;Node18</title>
<path fill="none" stroke="midnightblue" d="M448.72,-330.45C433.82,-322.05 410.19,-308.72 392.52,-298.76"/>
<polygon fill="midnightblue" stroke="midnightblue" points="393.84,-295.49 383.41,-293.63 390.4,-301.59 393.84,-295.49"/>
</g>
<!-- Node18&#45;&gt;Node9 -->
<g id="edge19" class="edge">
<title>Node18&#45;&gt;Node9</title>
<path fill="none" stroke="midnightblue" d="M371.22,-275.31C374.21,-262.41 377.98,-237.07 367,-220 355.2,-201.65 333.42,-190.6 314.24,-184.11"/>
<polygon fill="midnightblue" stroke="midnightblue" points="315.1,-180.71 304.52,-181.11 313.04,-187.4 315.1,-180.71"/>
</g>
<!-- Node18&#45;&gt;Node11 -->
<g id="edge21" class="edge">
<title>Node18&#45;&gt;Node11</title>
<path fill="none" stroke="midnightblue" d="M383.43,-275.45C398.49,-267.05 422.37,-253.72 440.23,-243.76"/>
<polygon fill="midnightblue" stroke="midnightblue" points="442.41,-246.55 449.44,-238.63 439,-240.44 442.41,-246.55"/>
</g>
<!-- Node19 -->
<g id="node19" class="node">
<title>Node19</title>
<g id="a_node19"><a xlink:title=" ">
<polygon fill="none" stroke="#bfbfbf" points="319.61,-220.5 319.61,-238.5 358.39,-238.5 358.39,-220.5 319.61,-220.5"/>
<text text-anchor="middle" x="339" y="-226.5" font-family="Helvetica,sans-Serif" font-size="10.00">array</text>
</a>
</g>
</g>
<!-- Node18&#45;&gt;Node19 -->
<g id="edge20" class="edge">
<title>Node18&#45;&gt;Node19</title>
<path fill="none" stroke="midnightblue" d="M364.31,-275.22C360.11,-267.79 353.8,-256.65 348.53,-247.34"/>
<polygon fill="midnightblue" stroke="midnightblue" points="351.53,-245.53 343.56,-238.55 345.44,-248.98 351.53,-245.53"/>
</g>
<!-- Node21 -->
<g id="node21" class="node">
<title>Node21</title>
<g id="a_node21"><a xlink:href="../../dc/d91/txtokenlist_8h.html" target="_top" xlink:title=" ">
<polygon fill="none" stroke="black" points="345.6,-330.5 345.6,-348.5 414.4,-348.5 414.4,-330.5 345.6,-330.5"/>
<text text-anchor="middle" x="380" y="-336.5" font-family="Helvetica,sans-Serif" font-size="10.00">txtokenlist.h</text>
</a>
</g>
</g>
<!-- Node20&#45;&gt;Node21 -->
<g id="edge24" class="edge">
<title>Node20&#45;&gt;Node21</title>
<path fill="none" stroke="midnightblue" d="M416.28,-385.22C410.06,-377.55 400.64,-365.94 392.96,-356.47"/>
<polygon fill="midnightblue" stroke="midnightblue" points="395.55,-354.11 386.53,-348.55 390.11,-358.52 395.55,-354.11"/>
</g>
<!-- Node21&#45;&gt;Node18 -->
<g id="edge25" class="edge">
<title>Node21&#45;&gt;Node18</title>
<path fill="none" stroke="midnightblue" d="M378.28,-330.22C376.8,-323.1 374.62,-312.58 372.74,-303.53"/>
<polygon fill="midnightblue" stroke="midnightblue" points="376.13,-302.63 370.67,-293.55 369.28,-304.05 376.13,-302.63"/>
</g>
<!-- Node22 -->
<g id="node22" class="node">
<title>Node22</title>
<g id="a_node22"><a xlink:href="../../dd/dcd/_token_8h.html" target="_top" xlink:title=" ">
<polygon fill="none" stroke="black" points="193.04,-275.5 193.04,-293.5 272.96,-293.5 272.96,-275.5 193.04,-275.5"/>
<text text-anchor="middle" x="233" y="-281.5" font-family="Helvetica,sans-Serif" font-size="10.00">tralics/Token.h</text>
</a>
</g>
</g>
<!-- Node21&#45;&gt;Node22 -->
<g id="edge26" class="edge">
<title>Node21&#45;&gt;Node22</title>
<path fill="none" stroke="midnightblue" d="M357.67,-330.45C333.07,-321.58 293.27,-307.23 265.27,-297.13"/>
<polygon fill="midnightblue" stroke="midnightblue" points="266.13,-293.72 255.54,-293.63 263.76,-300.31 266.13,-293.72"/>
</g>
<!-- Node25 -->
<g id="node25" class="node">
<title>Node25</title>
<g id="a_node25"><a xlink:title=" ">
<polygon fill="none" stroke="#bfbfbf" points="427.61,-275.5 427.61,-293.5 466.39,-293.5 466.39,-275.5 427.61,-275.5"/>
<text text-anchor="middle" x="447" y="-281.5" font-family="Helvetica,sans-Serif" font-size="10.00">utility</text>
</a>
</g>
</g>
<!-- Node21&#45;&gt;Node25 -->
<g id="edge31" class="edge">
<title>Node21&#45;&gt;Node25</title>
<path fill="none" stroke="midnightblue" d="M390.18,-330.45C400.41,-322.36 416.4,-309.7 428.82,-299.88"/>
<polygon fill="midnightblue" stroke="midnightblue" points="431.06,-302.57 436.73,-293.63 426.71,-297.08 431.06,-302.57"/>
</g>
<!-- Node23 -->
<g id="node23" class="node">
<title>Node23</title>
<g id="a_node23"><a xlink:href="../../d2/d68/_cmd_chr_8h.html" target="_top" xlink:title=" ">
<polygon fill="none" stroke="black" points="193.49,-220.5 193.49,-238.5 254.51,-238.5 254.51,-220.5 193.49,-220.5"/>
<text text-anchor="middle" x="224" y="-226.5" font-family="Helvetica,sans-Serif" font-size="10.00">CmdChr.h</text>
</a>
</g>
</g>
<!-- Node22&#45;&gt;Node23 -->
<g id="edge27" class="edge">
<title>Node22&#45;&gt;Node23</title>
<path fill="none" stroke="midnightblue" d="M231.59,-275.22C230.38,-268.1 228.6,-257.58 227.06,-248.53"/>
<polygon fill="midnightblue" stroke="midnightblue" points="230.49,-247.82 225.37,-238.55 223.59,-248.99 230.49,-247.82"/>
</g>
<!-- Node24 -->
<g id="node24" class="node">
<title>Node24</title>
<g id="a_node24"><a xlink:title=" ">
<polygon fill="none" stroke="#bfbfbf" points="272.5,-220.5 272.5,-238.5 301.5,-238.5 301.5,-220.5 272.5,-220.5"/>
<text text-anchor="middle" x="286.61" y="-226.5" font-family="Helvetica,sans-Serif" font-size="10.00">list</text>
</a>
</g>
</g>
<!-- Node22&#45;&gt;Node24 -->
<g id="edge30" class="edge">
<title>Node22&#45;&gt;Node24</title>
<path fill="none" stroke="midnightblue" d="M241.44,-275.22C249.49,-267.32 261.81,-255.22 271.61,-245.61"/>
<polygon fill="midnightblue" stroke="midnightblue" points="274.11,-248.05 278.8,-238.55 269.21,-243.06 274.11,-248.05"/>
</g>
<!-- Node23&#45;&gt;Node3 -->
<g id="edge28" class="edge">
<title>Node23&#45;&gt;Node3</title>
<path fill="none" stroke="midnightblue" d="M216.34,-220.22C209.18,-212.47 198.3,-200.7 189.5,-191.18"/>
<polygon fill="midnightblue" stroke="midnightblue" points="191.8,-188.52 182.44,-183.55 186.66,-193.27 191.8,-188.52"/>
</g>
<!-- Node23&#45;&gt;Node9 -->
<g id="edge29" class="edge">
<title>Node23&#45;&gt;Node9</title>
<path fill="none" stroke="midnightblue" d="M232.28,-220.22C240.11,-212.39 252.04,-200.46 261.61,-190.89"/>
<polygon fill="midnightblue" stroke="midnightblue" points="264.35,-193.1 268.95,-183.55 259.4,-188.15 264.35,-193.1"/>
</g>
<!-- Node28&#45;&gt;Node16 -->
<g id="edge36" class="edge">
<title>Node28&#45;&gt;Node16</title>
<path fill="none" stroke="midnightblue" d="M423,-495.22C423,-488.18 423,-477.81 423,-468.83"/>
<polygon fill="midnightblue" stroke="midnightblue" points="426.5,-468.55 423,-458.55 419.5,-468.55 426.5,-468.55"/>
</g>
<!-- Node29&#45;&gt;Node27 -->
<g id="edge38" class="edge">
<title>Node29&#45;&gt;Node27</title>
<path fill="none" stroke="midnightblue" d="M68,-605.38C90.33,-587.24 144.56,-543.21 172.96,-520.15"/>
<polygon fill="midnightblue" stroke="midnightblue" points="175.33,-522.73 180.89,-513.71 170.92,-517.3 175.33,-522.73"/>
</g>
<!-- Node30 -->
<g id="node30" class="node">
<title>Node30</title>
<g id="a_node30"><a xlink:title=" ">
<polygon fill="none" stroke="#bfbfbf" points="30.83,-550.5 30.83,-568.5 85.17,-568.5 85.17,-550.5 30.83,-550.5"/>
<text text-anchor="middle" x="58" y="-556.5" font-family="Helvetica,sans-Serif" font-size="10.00">iostream</text>
</a>
</g>
</g>
<!-- Node29&#45;&gt;Node30 -->
<g id="edge39" class="edge">
<title>Node29&#45;&gt;Node30</title>
<path fill="none" stroke="midnightblue" d="M58,-605.22C58,-598.18 58,-587.81 58,-578.83"/>
<polygon fill="midnightblue" stroke="midnightblue" points="61.5,-578.55 58,-568.55 54.5,-578.55 61.5,-578.55"/>
</g>
<!-- Node31&#45;&gt;Node15 -->
<g id="edge41" class="edge">
<title>Node31&#45;&gt;Node15</title>
<path fill="none" stroke="midnightblue" d="M150.88,-605.45C166.57,-596.97 191.51,-583.48 209.99,-573.49"/>
<polygon fill="midnightblue" stroke="midnightblue" points="211.84,-576.46 218.98,-568.63 208.51,-570.3 211.84,-576.46"/>
</g>
<!-- Node32&#45;&gt;Node15 -->
<g id="edge54" class="edge">
<title>Node32&#45;&gt;Node15</title>
<path fill="none" stroke="midnightblue" d="M416.1,-660.5C393.84,-652.39 359.34,-638.94 331,-624 302.72,-609.09 272.19,-588.23 253.09,-574.55"/>
<polygon fill="midnightblue" stroke="midnightblue" points="255.08,-571.67 244.93,-568.64 250.98,-577.34 255.08,-571.67"/>
</g>
<!-- Node33 -->
<g id="node33" class="node">
<title>Node33</title>
<g id="a_node33"><a xlink:href="../../d3/d6b/txcond_8h.html" target="_top" xlink:title=" ">
<polygon fill="none" stroke="black" points="562.1,-440.5 562.1,-458.5 615.9,-458.5 615.9,-440.5 562.1,-440.5"/>
<text text-anchor="middle" x="589" y="-446.5" font-family="Helvetica,sans-Serif" font-size="10.00">txcond.h</text>
</a>
</g>
</g>
<!-- Node32&#45;&gt;Node33 -->
<g id="edge43" class="edge">
<title>Node32&#45;&gt;Node33</title>
<path fill="none" stroke="midnightblue" d="M469.15,-661.45C510.3,-651.53 579.78,-633.59 587,-624 621.98,-577.52 605.33,-502.44 595.03,-468.36"/>
<polygon fill="midnightblue" stroke="midnightblue" points="598.36,-467.28 591.99,-458.82 591.69,-469.41 598.36,-467.28"/>
</g>
<!-- Node34 -->
<g id="node34" class="node">
<title>Node34</title>
<g id="a_node34"><a xlink:href="../../d7/d4d/txfonts_8h.html" target="_top" xlink:title=" ">
<polygon fill="none" stroke="black" points="396.1,-550.5 396.1,-568.5 449.9,-568.5 449.9,-550.5 396.1,-550.5"/>
<text text-anchor="middle" x="423" y="-556.5" font-family="Helvetica,sans-Serif" font-size="10.00">txfonts.h</text>
</a>
</g>
</g>
<!-- Node32&#45;&gt;Node34 -->
<g id="edge46" class="edge">
<title>Node32&#45;&gt;Node34</title>
<path fill="none" stroke="midnightblue" d="M449.62,-660.11C463.34,-648.19 484.43,-625.49 475,-605 469.18,-592.35 457.79,-581.96 447.15,-574.41"/>
<polygon fill="midnightblue" stroke="midnightblue" points="448.81,-571.31 438.53,-568.74 444.97,-577.16 448.81,-571.31"/>
</g>
<!-- Node35 -->
<g id="node35" class="node">
<title>Node35</title>
<g id="a_node35"><a xlink:href="../../d7/d7e/txhash_8h.html" target="_top" xlink:title=" ">
<polygon fill="none" stroke="black" points="412.1,-605.5 412.1,-623.5 465.9,-623.5 465.9,-605.5 412.1,-605.5"/>
<text text-anchor="middle" x="439" y="-611.5" font-family="Helvetica,sans-Serif" font-size="10.00">txhash.h</text>
</a>
</g>
</g>
<!-- Node32&#45;&gt;Node35 -->
<g id="edge48" class="edge">
<title>Node32&#45;&gt;Node35</title>
<path fill="none" stroke="midnightblue" d="M439,-660.22C439,-653.18 439,-642.81 439,-633.83"/>
<polygon fill="midnightblue" stroke="midnightblue" points="442.5,-633.55 439,-623.55 435.5,-633.55 442.5,-633.55"/>
</g>
<!-- Node37 -->
<g id="node37" class="node">
<title>Node37</title>
<g id="a_node37"><a xlink:href="../../de/d7c/tximage_8h.html" target="_top" xlink:title=" ">
<polygon fill="none" stroke="black" points="501.32,-330.5 501.32,-348.5 560.68,-348.5 560.68,-330.5 501.32,-330.5"/>
<text text-anchor="middle" x="531" y="-336.5" font-family="Helvetica,sans-Serif" font-size="10.00">tximage.h</text>
</a>
</g>
</g>
<!-- Node32&#45;&gt;Node37 -->
<g id="edge51" class="edge">
<title>Node32&#45;&gt;Node37</title>
<path fill="none" stroke="midnightblue" d="M469.32,-661.72C514.41,-651.45 595.04,-632.26 606,-624 632.26,-604.2 644,-593.39 644,-560.5 644,-560.5 644,-560.5 644,-448.5 644,-402.07 593.52,-369.45 560.04,-352.93"/>
<polygon fill="midnightblue" stroke="midnightblue" points="561.22,-349.62 550.68,-348.51 558.23,-355.95 561.22,-349.62"/>
</g>
<!-- Node38 -->
<g id="node38" class="node">
<title>Node38</title>
<g id="a_node38"><a xlink:href="../../dc/d65/txstack_8h.html" target="_top" xlink:title=" ">
<polygon fill="none" stroke="black" points="522.27,-605.5 522.27,-623.5 577.73,-623.5 577.73,-605.5 522.27,-605.5"/>
<text text-anchor="middle" x="550" y="-611.5" font-family="Helvetica,sans-Serif" font-size="10.00">txstack.h</text>
</a>
</g>
</g>
<!-- Node32&#45;&gt;Node38 -->
<g id="edge55" class="edge">
<title>Node32&#45;&gt;Node38</title>
<path fill="none" stroke="midnightblue" d="M455.86,-660.45C473.95,-651.81 502.92,-637.98 523.95,-627.94"/>
<polygon fill="midnightblue" stroke="midnightblue" points="525.47,-631.09 532.98,-623.63 522.45,-624.78 525.47,-631.09"/>
</g>
<!-- Node41 -->
<g id="node41" class="node">
<title>Node41</title>
<g id="a_node41"><a xlink:href="../../d8/d3d/txstats_8h.html" target="_top" xlink:title=" ">
<polygon fill="none" stroke="black" points="340.38,-605.5 340.38,-623.5 393.62,-623.5 393.62,-605.5 340.38,-605.5"/>
<text text-anchor="middle" x="367" y="-611.5" font-family="Helvetica,sans-Serif" font-size="10.00">txstats.h</text>
</a>
</g>
</g>
<!-- Node32&#45;&gt;Node41 -->
<g id="edge61" class="edge">
<title>Node32&#45;&gt;Node41</title>
<path fill="none" stroke="midnightblue" d="M428.06,-660.45C416.96,-652.28 399.55,-639.46 386.15,-629.6"/>
<polygon fill="midnightblue" stroke="midnightblue" points="388.17,-626.73 378.04,-623.63 384.02,-632.37 388.17,-626.73"/>
</g>
<!-- Node33&#45;&gt;Node9 -->
<g id="edge44" class="edge">
<title>Node33&#45;&gt;Node9</title>
<path fill="none" stroke="midnightblue" d="M589,-440.37C589,-422.38 589,-377.81 589,-340.5 589,-340.5 589,-340.5 589,-283.5 589,-225.99 397.3,-192.28 314.43,-180.4"/>
<polygon fill="midnightblue" stroke="midnightblue" points="314.8,-176.91 304.41,-178.99 313.83,-183.85 314.8,-176.91"/>
</g>
<!-- Node33&#45;&gt;Node12 -->
<g id="edge45" class="edge">
<title>Node33&#45;&gt;Node12</title>
<path fill="none" stroke="midnightblue" d="M580.09,-440.22C571.59,-432.32 558.59,-420.22 548.25,-410.61"/>
<polygon fill="midnightblue" stroke="midnightblue" points="550.36,-407.8 540.66,-403.55 545.6,-412.92 550.36,-407.8"/>
</g>
<!-- Node34&#45;&gt;Node28 -->
<g id="edge47" class="edge">
<title>Node34&#45;&gt;Node28</title>
<path fill="none" stroke="midnightblue" d="M423,-550.22C423,-543.18 423,-532.81 423,-523.83"/>
<polygon fill="midnightblue" stroke="midnightblue" points="426.5,-523.55 423,-513.55 419.5,-523.55 426.5,-523.55"/>
</g>
<!-- Node36 -->
<g id="node36" class="node">
<title>Node36</title>
<g id="a_node36"><a xlink:href="../../d3/d01/txeqtb_8h.html" target="_top" xlink:title=" ">
<polygon fill="none" stroke="black" points="326.21,-550.5 326.21,-568.5 377.79,-568.5 377.79,-550.5 326.21,-550.5"/>
<text text-anchor="middle" x="352" y="-556.5" font-family="Helvetica,sans-Serif" font-size="10.00">txeqtb.h</text>
</a>
</g>
</g>
<!-- Node35&#45;&gt;Node36 -->
<g id="edge49" class="edge">
<title>Node35&#45;&gt;Node36</title>
<path fill="none" stroke="midnightblue" d="M425.79,-605.45C412.12,-597.12 390.53,-583.97 374.23,-574.04"/>
<polygon fill="midnightblue" stroke="midnightblue" points="375.7,-570.84 365.34,-568.63 372.06,-576.82 375.7,-570.84"/>
</g>
<!-- Node36&#45;&gt;Node28 -->
<g id="edge50" class="edge">
<title>Node36&#45;&gt;Node28</title>
<path fill="none" stroke="midnightblue" d="M362.78,-550.45C373.63,-542.36 390.58,-529.7 403.73,-519.88"/>
<polygon fill="midnightblue" stroke="midnightblue" points="406.2,-522.41 412.12,-513.63 402.01,-516.8 406.2,-522.41"/>
</g>
<!-- Node37&#45;&gt;Node11 -->
<g id="edge52" class="edge">
<title>Node37&#45;&gt;Node11</title>
<path fill="none" stroke="midnightblue" d="M525.96,-330.38C515.05,-312.79 489.03,-270.85 474.42,-247.29"/>
<polygon fill="midnightblue" stroke="midnightblue" points="477.34,-245.36 469.09,-238.71 471.39,-249.05 477.34,-245.36"/>
</g>
<!-- Node37&#45;&gt;Node25 -->
<g id="edge53" class="edge">
<title>Node37&#45;&gt;Node25</title>
<path fill="none" stroke="midnightblue" d="M518.24,-330.45C505.04,-322.12 484.2,-308.97 468.46,-299.04"/>
<polygon fill="midnightblue" stroke="midnightblue" points="470.2,-296 459.88,-293.63 466.47,-301.92 470.2,-296"/>
</g>
<!-- Node39 -->
<g id="node39" class="node">
<title>Node39</title>
<g id="a_node39"><a xlink:href="../../d4/da4/txatt_8h.html" target="_top" xlink:title=" ">
<polygon fill="none" stroke="black" points="468.38,-550.5 468.38,-568.5 511.62,-568.5 511.62,-550.5 468.38,-550.5"/>
<text text-anchor="middle" x="490" y="-556.5" font-family="Helvetica,sans-Serif" font-size="10.00">txatt.h</text>
</a>
</g>
</g>
<!-- Node38&#45;&gt;Node39 -->
<g id="edge56" class="edge">
<title>Node38&#45;&gt;Node39</title>
<path fill="none" stroke="midnightblue" d="M540.89,-605.45C531.9,-597.51 517.95,-585.19 506.93,-575.45"/>
<polygon fill="midnightblue" stroke="midnightblue" points="509.01,-572.62 499.2,-568.63 504.38,-577.87 509.01,-572.62"/>
</g>
<!-- Node40 -->
<g id="node40" class="node">
<title>Node40</title>
<g id="a_node40"><a xlink:href="../../d1/d43/txxml_8h.html" target="_top" xlink:title=" ">
<polygon fill="none" stroke="black" points="529.17,-550.5 529.17,-568.5 576.83,-568.5 576.83,-550.5 529.17,-550.5"/>
<text text-anchor="middle" x="553" y="-556.5" font-family="Helvetica,sans-Serif" font-size="10.00">txxml.h</text>
</a>
</g>
</g>
<!-- Node38&#45;&gt;Node40 -->
<g id="edge58" class="edge">
<title>Node38&#45;&gt;Node40</title>
<path fill="none" stroke="midnightblue" d="M550.47,-605.22C550.87,-598.18 551.45,-587.81 551.96,-578.83"/>
<polygon fill="midnightblue" stroke="midnightblue" points="555.47,-578.73 552.54,-568.55 548.48,-578.34 555.47,-578.73"/>
</g>
<!-- Node39&#45;&gt;Node28 -->
<g id="edge57" class="edge">
<title>Node39&#45;&gt;Node28</title>
<path fill="none" stroke="midnightblue" d="M479.82,-550.45C469.59,-542.36 453.6,-529.7 441.18,-519.88"/>
<polygon fill="midnightblue" stroke="midnightblue" points="443.29,-517.08 433.27,-513.63 438.94,-522.57 443.29,-517.08"/>
</g>
<!-- Node40&#45;&gt;Node12 -->
<g id="edge60" class="edge">
<title>Node40&#45;&gt;Node12</title>
<path fill="none" stroke="midnightblue" d="M551.93,-550.19C548.69,-525.01 538.91,-449.11 534.37,-413.86"/>
<polygon fill="midnightblue" stroke="midnightblue" points="537.79,-413.07 533.04,-403.6 530.85,-413.96 537.79,-413.07"/>
</g>
<!-- Node40&#45;&gt;Node28 -->
<g id="edge59" class="edge">
<title>Node40&#45;&gt;Node28</title>
<path fill="none" stroke="midnightblue" d="M533.26,-550.45C511.69,-541.66 476.91,-527.48 452.19,-517.4"/>
<polygon fill="midnightblue" stroke="midnightblue" points="453.51,-514.16 442.93,-513.63 450.87,-520.64 453.51,-514.16"/>
</g>
</g>
</svg>
