<?xml version="1.0" encoding="UTF-8" standalone="no"?>
<!DOCTYPE svg PUBLIC "-//W3C//DTD SVG 1.1//EN"
 "http://www.w3.org/Graphics/SVG/1.1/DTD/svg11.dtd">
<!-- Generated by graphviz version 2.42.3 (20191010.1750)
 -->
<!-- Title: SaveAuxAftergroup Pages: 1 -->
<svg width="124pt" height="92pt"
 viewBox="0.00 0.00 124.35 92.00" xmlns="http://www.w3.org/2000/svg" xmlns:xlink="http://www.w3.org/1999/xlink">
<g id="graph0" class="graph" transform="scale(1 1) rotate(0) translate(4 88)">
<title>SaveAuxAftergroup</title>
<!-- Node1 -->
<g id="node1" class="node">
<title>Node1</title>
<g id="a_node1"><a xlink:title=" ">
<polygon fill="#bfbfbf" stroke="black" points="9.65,-0.5 9.65,-18.5 112.37,-18.5 112.37,-0.5 9.65,-0.5"/>
<text text-anchor="middle" x="61.01" y="-6.5" font-family="Helvetica,sans-Serif" font-size="10.00">SaveAuxAftergroup</text>
</a>
</g>
</g>
<!-- Node2 -->
<g id="node2" class="node">
<title>Node2</title>
<g id="a_node2"><a xlink:href="../../da/df8/class_save_aux.html" target="_top" xlink:title=" ">
<polygon fill="none" stroke="black" points="0,-65.5 0,-83.5 56.02,-83.5 56.02,-65.5 0,-65.5"/>
<text text-anchor="middle" x="28.01" y="-71.5" font-family="Helvetica,sans-Serif" font-size="10.00">SaveAux</text>
</a>
</g>
</g>
<!-- Node2&#45;&gt;Node1 -->
<g id="edge1" class="edge">
<title>Node2&#45;&gt;Node1</title>
<path fill="none" stroke="midnightblue" d="M36.98,-56.39C43.43,-44.08 51.83,-28.03 56.8,-18.54"/>
<polygon fill="midnightblue" stroke="midnightblue" points="33.87,-54.78 32.33,-65.26 40.07,-58.03 33.87,-54.78"/>
</g>
<!-- Node3 -->
<g id="node3" class="node">
<title>Node3</title>
<g id="a_node3"><a xlink:href="../../d9/d27/struct_token.html" target="_top" xlink:title=" ">
<polygon fill="none" stroke="black" points="73.67,-65.5 73.67,-83.5 116.35,-83.5 116.35,-65.5 73.67,-65.5"/>
<text text-anchor="middle" x="95.01" y="-71.5" font-family="Helvetica,sans-Serif" font-size="10.00">Token</text>
</a>
</g>
</g>
<!-- Node3&#45;&gt;Node1 -->
<g id="edge2" class="edge">
<title>Node3&#45;&gt;Node1</title>
<path fill="none" stroke="#9a32cd" stroke-dasharray="5,2" d="M85.78,-56.39C79.13,-44.08 70.47,-28.03 65.35,-18.54"/>
<polygon fill="#9a32cd" stroke="#9a32cd" points="82.74,-58.13 90.57,-65.26 88.9,-54.8 82.74,-58.13"/>
<text text-anchor="middle" x="93.35" y="-39" font-family="Helvetica,sans-Serif" font-size="10.00"> value</text>
</g>
</g>
</svg>
