<?xml version="1.0" encoding="UTF-8" standalone="no"?>
<!DOCTYPE svg PUBLIC "-//W3C//DTD SVG 1.1//EN"
 "http://www.w3.org/Graphics/SVG/1.1/DTD/svg11.dtd">
<!-- Generated by graphviz version 2.42.3 (20191010.1750)
 -->
<!-- Title: txconfig.cpp Pages: 1 -->
<svg width="696pt" height="742pt"
 viewBox="0.00 0.00 695.66 742.00" xmlns="http://www.w3.org/2000/svg" xmlns:xlink="http://www.w3.org/1999/xlink">
<g id="graph0" class="graph" transform="scale(1 1) rotate(0) translate(4 738)">
<title>txconfig.cpp</title>
<!-- Node1 -->
<g id="node1" class="node">
<title>Node1</title>
<g id="a_node1"><a xlink:title=" ">
<polygon fill="#bfbfbf" stroke="black" points="139.32,-715.5 139.32,-733.5 208.68,-733.5 208.68,-715.5 139.32,-715.5"/>
<text text-anchor="middle" x="174" y="-721.5" font-family="Helvetica,sans-Serif" font-size="10.00">txconfig.cpp</text>
</a>
</g>
</g>
<!-- Node2 -->
<g id="node2" class="node">
<title>Node2</title>
<g id="a_node2"><a xlink:href="../../d5/d87/globals_8h.html" target="_top" xlink:title=" ">
<polygon fill="none" stroke="black" points="174.54,-275.5 174.54,-293.5 259.46,-293.5 259.46,-275.5 174.54,-275.5"/>
<text text-anchor="middle" x="217" y="-281.5" font-family="Helvetica,sans-Serif" font-size="10.00">tralics/globals.h</text>
</a>
</g>
</g>
<!-- Node1&#45;&gt;Node2 -->
<g id="edge1" class="edge">
<title>Node1&#45;&gt;Node2</title>
<path fill="none" stroke="midnightblue" d="M139.21,-717.95C88.43,-707.65 0,-680.39 0,-615.5 0,-615.5 0,-615.5 0,-393.5 0,-320.3 100.18,-296.71 164.41,-289.11"/>
<polygon fill="midnightblue" stroke="midnightblue" points="164.82,-292.59 174.39,-288.03 164.07,-285.63 164.82,-292.59"/>
</g>
<!-- Node15 -->
<g id="node15" class="node">
<title>Node15</title>
<g id="a_node15"><a xlink:href="../../d7/d79/txinline_8h.html" target="_top" xlink:title=" ">
<polygon fill="none" stroke="black" points="146.27,-660.5 146.27,-678.5 201.73,-678.5 201.73,-660.5 146.27,-660.5"/>
<text text-anchor="middle" x="174" y="-666.5" font-family="Helvetica,sans-Serif" font-size="10.00">txinline.h</text>
</a>
</g>
</g>
<!-- Node1&#45;&gt;Node15 -->
<g id="edge15" class="edge">
<title>Node1&#45;&gt;Node15</title>
<path fill="none" stroke="midnightblue" d="M174,-715.22C174,-708.18 174,-697.81 174,-688.83"/>
<polygon fill="midnightblue" stroke="midnightblue" points="177.5,-688.55 174,-678.55 170.5,-688.55 177.5,-688.55"/>
</g>
<!-- Node34 -->
<g id="node34" class="node">
<title>Node34</title>
<g id="a_node34"><a xlink:href="../../d2/d1b/txparser_8h.html" target="_top" xlink:title=" ">
<polygon fill="none" stroke="black" points="430.04,-660.5 430.04,-678.5 489.96,-678.5 489.96,-660.5 430.04,-660.5"/>
<text text-anchor="middle" x="460" y="-666.5" font-family="Helvetica,sans-Serif" font-size="10.00">txparser.h</text>
</a>
</g>
</g>
<!-- Node1&#45;&gt;Node34 -->
<g id="edge45" class="edge">
<title>Node1&#45;&gt;Node34</title>
<path fill="none" stroke="midnightblue" d="M208.78,-717.05C262.04,-707.19 363.51,-688.38 419.83,-677.94"/>
<polygon fill="midnightblue" stroke="midnightblue" points="420.6,-681.36 429.8,-676.1 419.33,-674.48 420.6,-681.36"/>
</g>
<!-- Node3 -->
<g id="node3" class="node">
<title>Node3</title>
<g id="a_node3"><a xlink:href="../../d8/d47/codepoint_8h.html" target="_top" xlink:title=" ">
<polygon fill="none" stroke="black" points="329.15,-165.5 329.15,-183.5 396.85,-183.5 396.85,-165.5 329.15,-165.5"/>
<text text-anchor="middle" x="363" y="-171.5" font-family="Helvetica,sans-Serif" font-size="10.00">codepoint.h</text>
</a>
</g>
</g>
<!-- Node2&#45;&gt;Node3 -->
<g id="edge2" class="edge">
<title>Node2&#45;&gt;Node3</title>
<path fill="none" stroke="midnightblue" d="M222.85,-275.18C232.36,-262.1 252.32,-236.53 274,-220 291.73,-206.48 314.21,-195.28 332.14,-187.5"/>
<polygon fill="midnightblue" stroke="midnightblue" points="333.72,-190.63 341.58,-183.53 331,-184.18 333.72,-190.63"/>
</g>
<!-- Node9 -->
<g id="node9" class="node">
<title>Node9</title>
<g id="a_node9"><a xlink:href="../../d0/d0b/enums_8h.html" target="_top" xlink:title=" ">
<polygon fill="none" stroke="black" points="234.82,-165.5 234.82,-183.5 289.18,-183.5 289.18,-165.5 234.82,-165.5"/>
<text text-anchor="middle" x="262" y="-171.5" font-family="Helvetica,sans-Serif" font-size="10.00">enums.h</text>
</a>
</g>
</g>
<!-- Node2&#45;&gt;Node9 -->
<g id="edge8" class="edge">
<title>Node2&#45;&gt;Node9</title>
<path fill="none" stroke="midnightblue" d="M219.9,-275.2C224.22,-262.99 232.72,-239.53 241,-220 244.85,-210.93 249.49,-201 253.43,-192.83"/>
<polygon fill="midnightblue" stroke="midnightblue" points="256.69,-194.13 257.93,-183.61 250.4,-191.06 256.69,-194.13"/>
</g>
<!-- Node11 -->
<g id="node11" class="node">
<title>Node11</title>
<g id="a_node11"><a xlink:title=" ">
<polygon fill="none" stroke="#bfbfbf" points="282.61,-220.5 282.61,-238.5 321.39,-238.5 321.39,-220.5 282.61,-220.5"/>
<text text-anchor="middle" x="302" y="-226.5" font-family="Helvetica,sans-Serif" font-size="10.00">array</text>
</a>
</g>
</g>
<!-- Node2&#45;&gt;Node11 -->
<g id="edge11" class="edge">
<title>Node2&#45;&gt;Node11</title>
<path fill="none" stroke="midnightblue" d="M229.91,-275.45C243.26,-267.12 264.36,-253.97 280.29,-244.04"/>
<polygon fill="midnightblue" stroke="midnightblue" points="282.34,-246.89 288.97,-238.63 278.63,-240.95 282.34,-246.89"/>
</g>
<!-- Node12 -->
<g id="node12" class="node">
<title>Node12</title>
<g id="a_node12"><a xlink:title=" ">
<polygon fill="none" stroke="#bfbfbf" points="128.77,-220.5 128.77,-238.5 189.23,-238.5 189.23,-220.5 128.77,-220.5"/>
<text text-anchor="middle" x="159" y="-226.5" font-family="Helvetica,sans-Serif" font-size="10.00">filesystem</text>
</a>
</g>
</g>
<!-- Node2&#45;&gt;Node12 -->
<g id="edge12" class="edge">
<title>Node2&#45;&gt;Node12</title>
<path fill="none" stroke="midnightblue" d="M207.94,-275.22C199.2,-267.24 185.79,-254.98 175.22,-245.32"/>
<polygon fill="midnightblue" stroke="midnightblue" points="177.55,-242.71 167.81,-238.55 172.83,-247.88 177.55,-242.71"/>
</g>
<!-- Node13 -->
<g id="node13" class="node">
<title>Node13</title>
<g id="a_node13"><a xlink:title=" ">
<polygon fill="none" stroke="#bfbfbf" points="507.77,-165.5 507.77,-183.5 548.23,-183.5 548.23,-165.5 507.77,-165.5"/>
<text text-anchor="middle" x="528" y="-171.5" font-family="Helvetica,sans-Serif" font-size="10.00">string</text>
</a>
</g>
</g>
<!-- Node2&#45;&gt;Node13 -->
<g id="edge13" class="edge">
<title>Node2&#45;&gt;Node13</title>
<path fill="none" stroke="midnightblue" d="M259.73,-281.36C307.55,-277.61 386.39,-267.3 448,-239 473.56,-227.26 498.16,-205.69 513.18,-190.98"/>
<polygon fill="midnightblue" stroke="midnightblue" points="515.92,-193.18 520.48,-183.62 510.95,-188.25 515.92,-193.18"/>
</g>
<!-- Node14 -->
<g id="node14" class="node">
<title>Node14</title>
<g id="a_node14"><a xlink:title=" ">
<polygon fill="none" stroke="#bfbfbf" points="67.38,-220.5 67.38,-238.5 110.62,-238.5 110.62,-220.5 67.38,-220.5"/>
<text text-anchor="middle" x="89" y="-226.5" font-family="Helvetica,sans-Serif" font-size="10.00">vector</text>
</a>
</g>
</g>
<!-- Node2&#45;&gt;Node14 -->
<g id="edge14" class="edge">
<title>Node2&#45;&gt;Node14</title>
<path fill="none" stroke="midnightblue" d="M197.56,-275.45C176.41,-266.7 142.39,-252.61 118.06,-242.53"/>
<polygon fill="midnightblue" stroke="midnightblue" points="119.2,-239.22 108.62,-238.63 116.52,-245.68 119.2,-239.22"/>
</g>
<!-- Node4 -->
<g id="node4" class="node">
<title>Node4</title>
<g id="a_node4"><a xlink:href="../../d9/d49/types_8h.html" target="_top" xlink:title=" ">
<polygon fill="none" stroke="black" points="299.88,-55.5 299.88,-73.5 348.12,-73.5 348.12,-55.5 299.88,-55.5"/>
<text text-anchor="middle" x="324" y="-61.5" font-family="Helvetica,sans-Serif" font-size="10.00">types.h</text>
</a>
</g>
</g>
<!-- Node3&#45;&gt;Node4 -->
<g id="edge3" class="edge">
<title>Node3&#45;&gt;Node4</title>
<path fill="none" stroke="midnightblue" d="M365.7,-165.32C369.33,-152.87 374.53,-128.64 367,-110 362.25,-98.26 352.76,-87.89 343.89,-80.12"/>
<polygon fill="midnightblue" stroke="midnightblue" points="346.05,-77.37 336.09,-73.76 341.63,-82.79 346.05,-77.37"/>
</g>
<!-- Node8 -->
<g id="node8" class="node">
<title>Node8</title>
<g id="a_node8"><a xlink:title=" ">
<polygon fill="none" stroke="#bfbfbf" points="306.49,-110.5 306.49,-128.5 357.51,-128.5 357.51,-110.5 306.49,-110.5"/>
<text text-anchor="middle" x="332" y="-116.5" font-family="Helvetica,sans-Serif" font-size="10.00">optional</text>
</a>
</g>
</g>
<!-- Node3&#45;&gt;Node8 -->
<g id="edge7" class="edge">
<title>Node3&#45;&gt;Node8</title>
<path fill="none" stroke="midnightblue" d="M358.16,-165.22C353.81,-157.79 347.29,-146.65 341.85,-137.34"/>
<polygon fill="midnightblue" stroke="midnightblue" points="344.78,-135.41 336.71,-128.55 338.74,-138.95 344.78,-135.41"/>
</g>
<!-- Node5 -->
<g id="node5" class="node">
<title>Node5</title>
<g id="a_node5"><a xlink:title=" ">
<polygon fill="none" stroke="#bfbfbf" points="233.88,-0.5 233.88,-18.5 282.12,-18.5 282.12,-0.5 233.88,-0.5"/>
<text text-anchor="middle" x="258" y="-6.5" font-family="Helvetica,sans-Serif" font-size="10.00">cassert</text>
</a>
</g>
</g>
<!-- Node4&#45;&gt;Node5 -->
<g id="edge4" class="edge">
<title>Node4&#45;&gt;Node5</title>
<path fill="none" stroke="midnightblue" d="M313.98,-55.45C303.99,-47.43 288.44,-34.95 276.26,-25.17"/>
<polygon fill="midnightblue" stroke="midnightblue" points="278.11,-22.16 268.12,-18.63 273.72,-27.62 278.11,-22.16"/>
</g>
<!-- Node6 -->
<g id="node6" class="node">
<title>Node6</title>
<g id="a_node6"><a xlink:title=" ">
<polygon fill="none" stroke="#bfbfbf" points="299.88,-0.5 299.88,-18.5 348.12,-18.5 348.12,-0.5 299.88,-0.5"/>
<text text-anchor="middle" x="324" y="-6.5" font-family="Helvetica,sans-Serif" font-size="10.00">cstddef</text>
</a>
</g>
</g>
<!-- Node4&#45;&gt;Node6 -->
<g id="edge5" class="edge">
<title>Node4&#45;&gt;Node6</title>
<path fill="none" stroke="midnightblue" d="M324,-55.22C324,-48.18 324,-37.81 324,-28.83"/>
<polygon fill="midnightblue" stroke="midnightblue" points="327.5,-28.55 324,-18.55 320.5,-28.55 327.5,-28.55"/>
</g>
<!-- Node7 -->
<g id="node7" class="node">
<title>Node7</title>
<g id="a_node7"><a xlink:title=" ">
<polygon fill="none" stroke="#bfbfbf" points="365.93,-0.5 365.93,-18.5 428.07,-18.5 428.07,-0.5 365.93,-0.5"/>
<text text-anchor="middle" x="397" y="-6.5" font-family="Helvetica,sans-Serif" font-size="10.00">type_traits</text>
</a>
</g>
</g>
<!-- Node4&#45;&gt;Node7 -->
<g id="edge6" class="edge">
<title>Node4&#45;&gt;Node7</title>
<path fill="none" stroke="midnightblue" d="M335.09,-55.45C346.34,-47.28 364,-34.46 377.58,-24.6"/>
<polygon fill="midnightblue" stroke="midnightblue" points="379.77,-27.33 385.81,-18.63 375.66,-21.67 379.77,-27.33"/>
</g>
<!-- Node10 -->
<g id="node10" class="node">
<title>Node10</title>
<g id="a_node10"><a xlink:href="../../d8/db5/consts_8h.html" target="_top" xlink:title=" ">
<polygon fill="none" stroke="black" points="235.38,-110.5 235.38,-128.5 288.62,-128.5 288.62,-110.5 235.38,-110.5"/>
<text text-anchor="middle" x="262" y="-116.5" font-family="Helvetica,sans-Serif" font-size="10.00">consts.h</text>
</a>
</g>
</g>
<!-- Node9&#45;&gt;Node10 -->
<g id="edge9" class="edge">
<title>Node9&#45;&gt;Node10</title>
<path fill="none" stroke="midnightblue" d="M262,-165.22C262,-158.18 262,-147.81 262,-138.83"/>
<polygon fill="midnightblue" stroke="midnightblue" points="265.5,-138.55 262,-128.55 258.5,-138.55 265.5,-138.55"/>
</g>
<!-- Node10&#45;&gt;Node4 -->
<g id="edge10" class="edge">
<title>Node10&#45;&gt;Node4</title>
<path fill="none" stroke="midnightblue" d="M271.42,-110.45C280.79,-102.43 295.4,-89.95 306.84,-80.17"/>
<polygon fill="midnightblue" stroke="midnightblue" points="309.17,-82.78 314.49,-73.63 304.62,-77.46 309.17,-82.78"/>
</g>
<!-- Node16 -->
<g id="node16" class="node">
<title>Node16</title>
<g id="a_node16"><a xlink:href="../../d4/de9/_main_class_8h.html" target="_top" xlink:title=" ">
<polygon fill="none" stroke="black" points="260.04,-605.5 260.04,-623.5 359.96,-623.5 359.96,-605.5 260.04,-605.5"/>
<text text-anchor="middle" x="310" y="-611.5" font-family="Helvetica,sans-Serif" font-size="10.00">tralics/MainClass.h</text>
</a>
</g>
</g>
<!-- Node15&#45;&gt;Node16 -->
<g id="edge16" class="edge">
<title>Node15&#45;&gt;Node16</title>
<path fill="none" stroke="midnightblue" d="M194.66,-660.45C217.32,-651.62 253.92,-637.35 279.81,-627.27"/>
<polygon fill="midnightblue" stroke="midnightblue" points="281.1,-630.52 289.15,-623.63 278.56,-624 281.1,-630.52"/>
</g>
<!-- Node31 -->
<g id="node31" class="node">
<title>Node31</title>
<g id="a_node31"><a xlink:href="../../d2/d06/txlogger_8h.html" target="_top" xlink:title=" ">
<polygon fill="none" stroke="black" points="66.32,-605.5 66.32,-623.5 125.68,-623.5 125.68,-605.5 66.32,-605.5"/>
<text text-anchor="middle" x="96" y="-611.5" font-family="Helvetica,sans-Serif" font-size="10.00">txlogger.h</text>
</a>
</g>
</g>
<!-- Node15&#45;&gt;Node31 -->
<g id="edge40" class="edge">
<title>Node15&#45;&gt;Node31</title>
<path fill="none" stroke="midnightblue" d="M162.15,-660.45C150.01,-652.2 130.9,-639.22 116.34,-629.32"/>
<polygon fill="midnightblue" stroke="midnightblue" points="118.2,-626.35 107.96,-623.63 114.26,-632.14 118.2,-626.35"/>
</g>
<!-- Node33 -->
<g id="node33" class="node">
<title>Node33</title>
<g id="a_node33"><a xlink:href="../../d5/d08/txparam_8h.html" target="_top" xlink:title=" ">
<polygon fill="none" stroke="black" points="143.77,-605.5 143.77,-623.5 204.23,-623.5 204.23,-605.5 143.77,-605.5"/>
<text text-anchor="middle" x="174" y="-611.5" font-family="Helvetica,sans-Serif" font-size="10.00">txparam.h</text>
</a>
</g>
</g>
<!-- Node15&#45;&gt;Node33 -->
<g id="edge43" class="edge">
<title>Node15&#45;&gt;Node33</title>
<path fill="none" stroke="midnightblue" d="M174,-660.22C174,-653.18 174,-642.81 174,-633.83"/>
<polygon fill="midnightblue" stroke="midnightblue" points="177.5,-633.55 174,-623.55 170.5,-633.55 177.5,-633.55"/>
</g>
<!-- Node17 -->
<g id="node17" class="node">
<title>Node17</title>
<g id="a_node17"><a xlink:href="../../de/d29/txio_8h.html" target="_top" xlink:title=" ">
<polygon fill="none" stroke="black" points="175.88,-550.5 175.88,-568.5 224.12,-568.5 224.12,-550.5 175.88,-550.5"/>
<text text-anchor="middle" x="200" y="-556.5" font-family="Helvetica,sans-Serif" font-size="10.00">../txio.h</text>
</a>
</g>
</g>
<!-- Node16&#45;&gt;Node17 -->
<g id="edge17" class="edge">
<title>Node16&#45;&gt;Node17</title>
<path fill="none" stroke="midnightblue" d="M293.29,-605.45C275.44,-596.85 246.92,-583.1 226.1,-573.08"/>
<polygon fill="midnightblue" stroke="midnightblue" points="227.39,-569.81 216.86,-568.63 224.35,-576.12 227.39,-569.81"/>
</g>
<!-- Node30 -->
<g id="node30" class="node">
<title>Node30</title>
<g id="a_node30"><a xlink:href="../../dc/def/txstring_8h.html" target="_top" xlink:title=" ">
<polygon fill="none" stroke="black" points="344.55,-495.5 344.55,-513.5 409.45,-513.5 409.45,-495.5 344.55,-495.5"/>
<text text-anchor="middle" x="377" y="-501.5" font-family="Helvetica,sans-Serif" font-size="10.00">../txstring.h</text>
</a>
</g>
</g>
<!-- Node16&#45;&gt;Node30 -->
<g id="edge38" class="edge">
<title>Node16&#45;&gt;Node30</title>
<path fill="none" stroke="midnightblue" d="M298.58,-605.36C282.9,-593.17 258.04,-569.5 271,-550 285.1,-528.79 311.48,-517.67 334.4,-511.85"/>
<polygon fill="midnightblue" stroke="midnightblue" points="335.32,-515.23 344.29,-509.59 333.77,-508.4 335.32,-515.23"/>
</g>
<!-- Node18 -->
<g id="node18" class="node">
<title>Node18</title>
<g id="a_node18"><a xlink:href="../../d7/d1b/_buffer_8h.html" target="_top" xlink:title=" ">
<polygon fill="none" stroke="black" points="336.41,-440.5 336.41,-458.5 415.59,-458.5 415.59,-440.5 336.41,-440.5"/>
<text text-anchor="middle" x="376" y="-446.5" font-family="Helvetica,sans-Serif" font-size="10.00">tralics/Buffer.h</text>
</a>
</g>
</g>
<!-- Node17&#45;&gt;Node18 -->
<g id="edge18" class="edge">
<title>Node17&#45;&gt;Node18</title>
<path fill="none" stroke="midnightblue" d="M213.23,-550.38C243.3,-531.93 317.03,-486.69 354.05,-463.97"/>
<polygon fill="midnightblue" stroke="midnightblue" points="355.93,-466.93 362.62,-458.71 352.26,-460.96 355.93,-466.93"/>
</g>
<!-- Node29 -->
<g id="node29" class="node">
<title>Node29</title>
<g id="a_node29"><a xlink:title=" ">
<polygon fill="none" stroke="#bfbfbf" points="149.33,-495.5 149.33,-513.5 198.67,-513.5 198.67,-495.5 149.33,-495.5"/>
<text text-anchor="middle" x="174" y="-501.5" font-family="Helvetica,sans-Serif" font-size="10.00">fstream</text>
</a>
</g>
</g>
<!-- Node17&#45;&gt;Node29 -->
<g id="edge37" class="edge">
<title>Node17&#45;&gt;Node29</title>
<path fill="none" stroke="midnightblue" d="M195.94,-550.22C192.33,-542.86 186.94,-531.88 182.41,-522.64"/>
<polygon fill="midnightblue" stroke="midnightblue" points="185.5,-520.99 177.95,-513.55 179.21,-524.07 185.5,-520.99"/>
</g>
<!-- Node18&#45;&gt;Node14 -->
<g id="edge36" class="edge">
<title>Node18&#45;&gt;Node14</title>
<path fill="none" stroke="midnightblue" d="M364.45,-440.35C332.48,-417.69 240.26,-351.87 166,-294 145.24,-277.82 122.01,-258.49 106.55,-245.44"/>
<polygon fill="midnightblue" stroke="midnightblue" points="108.72,-242.69 98.82,-238.9 104.19,-248.03 108.72,-242.69"/>
</g>
<!-- Node19 -->
<g id="node19" class="node">
<title>Node19</title>
<g id="a_node19"><a xlink:href="../../d1/d9e/txid_8h.html" target="_top" xlink:title=" ">
<polygon fill="none" stroke="black" points="401.88,-330.5 401.88,-348.5 450.12,-348.5 450.12,-330.5 401.88,-330.5"/>
<text text-anchor="middle" x="426" y="-336.5" font-family="Helvetica,sans-Serif" font-size="10.00">../txid.h</text>
</a>
</g>
</g>
<!-- Node18&#45;&gt;Node19 -->
<g id="edge19" class="edge">
<title>Node18&#45;&gt;Node19</title>
<path fill="none" stroke="midnightblue" d="M382.79,-440.46C389.72,-431.91 400.37,-417.74 407,-404 414.04,-389.41 419.08,-371.67 422.2,-358.65"/>
<polygon fill="midnightblue" stroke="midnightblue" points="425.67,-359.14 424.44,-348.62 418.84,-357.62 425.67,-359.14"/>
</g>
<!-- Node22 -->
<g id="node22" class="node">
<title>Node22</title>
<g id="a_node22"><a xlink:href="../../d9/d18/txscaled_8h.html" target="_top" xlink:title=" ">
<polygon fill="none" stroke="black" points="489.32,-385.5 489.32,-403.5 558.68,-403.5 558.68,-385.5 489.32,-385.5"/>
<text text-anchor="middle" x="524" y="-391.5" font-family="Helvetica,sans-Serif" font-size="10.00">../txscaled.h</text>
</a>
</g>
</g>
<!-- Node18&#45;&gt;Node22 -->
<g id="edge26" class="edge">
<title>Node18&#45;&gt;Node22</title>
<path fill="none" stroke="midnightblue" d="M398.48,-440.45C423.36,-431.54 463.68,-417.1 491.88,-407"/>
<polygon fill="midnightblue" stroke="midnightblue" points="493.08,-410.29 501.31,-403.63 490.72,-403.7 493.08,-410.29"/>
</g>
<!-- Node28 -->
<g id="node28" class="node">
<title>Node28</title>
<g id="a_node28"><a xlink:title=" ">
<polygon fill="none" stroke="#bfbfbf" points="352.27,-385.5 352.27,-403.5 397.73,-403.5 397.73,-385.5 352.27,-385.5"/>
<text text-anchor="middle" x="375" y="-391.5" font-family="Helvetica,sans-Serif" font-size="10.00">cstring</text>
</a>
</g>
</g>
<!-- Node18&#45;&gt;Node28 -->
<g id="edge35" class="edge">
<title>Node18&#45;&gt;Node28</title>
<path fill="none" stroke="midnightblue" d="M375.84,-440.22C375.71,-433.18 375.52,-422.81 375.35,-413.83"/>
<polygon fill="midnightblue" stroke="midnightblue" points="378.84,-413.48 375.15,-403.55 371.84,-413.61 378.84,-413.48"/>
</g>
<!-- Node20 -->
<g id="node20" class="node">
<title>Node20</title>
<g id="a_node20"><a xlink:href="../../d5/daf/_istring_8h.html" target="_top" xlink:title=" ">
<polygon fill="none" stroke="black" points="385.77,-275.5 385.77,-293.5 466.23,-293.5 466.23,-275.5 385.77,-275.5"/>
<text text-anchor="middle" x="426" y="-281.5" font-family="Helvetica,sans-Serif" font-size="10.00">tralics/Istring.h</text>
</a>
</g>
</g>
<!-- Node19&#45;&gt;Node20 -->
<g id="edge20" class="edge">
<title>Node19&#45;&gt;Node20</title>
<path fill="none" stroke="midnightblue" d="M426,-330.22C426,-323.18 426,-312.81 426,-303.83"/>
<polygon fill="midnightblue" stroke="midnightblue" points="429.5,-303.55 426,-293.55 422.5,-303.55 429.5,-303.55"/>
</g>
<!-- Node20&#45;&gt;Node9 -->
<g id="edge21" class="edge">
<title>Node20&#45;&gt;Node9</title>
<path fill="none" stroke="midnightblue" d="M413.89,-275.46C395.69,-263.39 360.22,-239.88 330,-220 314.29,-209.67 296.52,-198.03 283.08,-189.25"/>
<polygon fill="midnightblue" stroke="midnightblue" points="284.83,-186.22 274.55,-183.68 281,-192.08 284.83,-186.22"/>
</g>
<!-- Node20&#45;&gt;Node11 -->
<g id="edge24" class="edge">
<title>Node20&#45;&gt;Node11</title>
<path fill="none" stroke="midnightblue" d="M407.17,-275.45C386.77,-266.73 354.01,-252.73 330.47,-242.67"/>
<polygon fill="midnightblue" stroke="midnightblue" points="331.58,-239.34 321.01,-238.63 328.83,-245.77 331.58,-239.34"/>
</g>
<!-- Node20&#45;&gt;Node13 -->
<g id="edge25" class="edge">
<title>Node20&#45;&gt;Node13</title>
<path fill="none" stroke="midnightblue" d="M437.67,-275.41C449.32,-267.03 467.41,-253.19 481,-239 494.89,-224.49 508.27,-205.8 517.18,-192.46"/>
<polygon fill="midnightblue" stroke="midnightblue" points="520.28,-194.12 522.82,-183.83 514.42,-190.29 520.28,-194.12"/>
</g>
<!-- Node21 -->
<g id="node21" class="node">
<title>Node21</title>
<g id="a_node21"><a xlink:href="../../d8/d3c/util_8h.html" target="_top" xlink:title=" ">
<polygon fill="none" stroke="black" points="533.44,-220.5 533.44,-238.5 570.56,-238.5 570.56,-220.5 533.44,-220.5"/>
<text text-anchor="middle" x="552" y="-226.5" font-family="Helvetica,sans-Serif" font-size="10.00">util.h</text>
</a>
</g>
</g>
<!-- Node20&#45;&gt;Node21 -->
<g id="edge22" class="edge">
<title>Node20&#45;&gt;Node21</title>
<path fill="none" stroke="midnightblue" d="M445.14,-275.45C466.07,-266.64 499.84,-252.44 523.81,-242.36"/>
<polygon fill="midnightblue" stroke="midnightblue" points="525.24,-245.56 533.1,-238.45 522.52,-239.1 525.24,-245.56"/>
</g>
<!-- Node21&#45;&gt;Node13 -->
<g id="edge23" class="edge">
<title>Node21&#45;&gt;Node13</title>
<path fill="none" stroke="midnightblue" d="M548.25,-220.22C544.95,-212.94 540.05,-202.11 535.89,-192.93"/>
<polygon fill="midnightblue" stroke="midnightblue" points="538.96,-191.22 531.65,-183.55 532.58,-194.1 538.96,-191.22"/>
</g>
<!-- Node23 -->
<g id="node23" class="node">
<title>Node23</title>
<g id="a_node23"><a xlink:href="../../dc/d91/txtokenlist_8h.html" target="_top" xlink:title=" ">
<polygon fill="none" stroke="black" points="489.6,-330.5 489.6,-348.5 558.4,-348.5 558.4,-330.5 489.6,-330.5"/>
<text text-anchor="middle" x="524" y="-336.5" font-family="Helvetica,sans-Serif" font-size="10.00">txtokenlist.h</text>
</a>
</g>
</g>
<!-- Node22&#45;&gt;Node23 -->
<g id="edge27" class="edge">
<title>Node22&#45;&gt;Node23</title>
<path fill="none" stroke="midnightblue" d="M524,-385.22C524,-378.18 524,-367.81 524,-358.83"/>
<polygon fill="midnightblue" stroke="midnightblue" points="527.5,-358.55 524,-348.55 520.5,-358.55 527.5,-358.55"/>
</g>
<!-- Node23&#45;&gt;Node20 -->
<g id="edge28" class="edge">
<title>Node23&#45;&gt;Node20</title>
<path fill="none" stroke="midnightblue" d="M509.12,-330.45C493.43,-321.97 468.49,-308.48 450.01,-298.49"/>
<polygon fill="midnightblue" stroke="midnightblue" points="451.49,-295.3 441.02,-293.63 448.16,-301.46 451.49,-295.3"/>
</g>
<!-- Node24 -->
<g id="node24" class="node">
<title>Node24</title>
<g id="a_node24"><a xlink:href="../../dd/dcd/_token_8h.html" target="_top" xlink:title=" ">
<polygon fill="none" stroke="black" points="484.04,-275.5 484.04,-293.5 563.96,-293.5 563.96,-275.5 484.04,-275.5"/>
<text text-anchor="middle" x="524" y="-281.5" font-family="Helvetica,sans-Serif" font-size="10.00">tralics/Token.h</text>
</a>
</g>
</g>
<!-- Node23&#45;&gt;Node24 -->
<g id="edge29" class="edge">
<title>Node23&#45;&gt;Node24</title>
<path fill="none" stroke="midnightblue" d="M524,-330.22C524,-323.18 524,-312.81 524,-303.83"/>
<polygon fill="midnightblue" stroke="midnightblue" points="527.5,-303.55 524,-293.55 520.5,-303.55 527.5,-303.55"/>
</g>
<!-- Node27 -->
<g id="node27" class="node">
<title>Node27</title>
<g id="a_node27"><a xlink:title=" ">
<polygon fill="none" stroke="#bfbfbf" points="581.61,-275.5 581.61,-293.5 620.39,-293.5 620.39,-275.5 581.61,-275.5"/>
<text text-anchor="middle" x="601" y="-281.5" font-family="Helvetica,sans-Serif" font-size="10.00">utility</text>
</a>
</g>
</g>
<!-- Node23&#45;&gt;Node27 -->
<g id="edge34" class="edge">
<title>Node23&#45;&gt;Node27</title>
<path fill="none" stroke="midnightblue" d="M535.69,-330.45C547.68,-322.2 566.54,-309.22 580.92,-299.32"/>
<polygon fill="midnightblue" stroke="midnightblue" points="582.94,-302.18 589.2,-293.63 578.97,-296.41 582.94,-302.18"/>
</g>
<!-- Node25 -->
<g id="node25" class="node">
<title>Node25</title>
<g id="a_node25"><a xlink:href="../../d2/d68/_cmd_chr_8h.html" target="_top" xlink:title=" ">
<polygon fill="none" stroke="black" points="377.49,-220.5 377.49,-238.5 438.51,-238.5 438.51,-220.5 377.49,-220.5"/>
<text text-anchor="middle" x="408" y="-226.5" font-family="Helvetica,sans-Serif" font-size="10.00">CmdChr.h</text>
</a>
</g>
</g>
<!-- Node24&#45;&gt;Node25 -->
<g id="edge30" class="edge">
<title>Node24&#45;&gt;Node25</title>
<path fill="none" stroke="midnightblue" d="M506.38,-275.45C487.39,-266.77 456.93,-252.86 434.93,-242.8"/>
<polygon fill="midnightblue" stroke="midnightblue" points="436.33,-239.6 425.78,-238.63 433.42,-245.96 436.33,-239.6"/>
</g>
<!-- Node26 -->
<g id="node26" class="node">
<title>Node26</title>
<g id="a_node26"><a xlink:title=" ">
<polygon fill="none" stroke="#bfbfbf" points="588.5,-220.5 588.5,-238.5 617.5,-238.5 617.5,-220.5 588.5,-220.5"/>
<text text-anchor="middle" x="602.61" y="-226.5" font-family="Helvetica,sans-Serif" font-size="10.00">list</text>
</a>
</g>
</g>
<!-- Node24&#45;&gt;Node26 -->
<g id="edge33" class="edge">
<title>Node24&#45;&gt;Node26</title>
<path fill="none" stroke="midnightblue" d="M536,-275.45C548.29,-267.2 567.65,-254.22 582.4,-244.32"/>
<polygon fill="midnightblue" stroke="midnightblue" points="584.53,-247.1 590.89,-238.63 580.63,-241.29 584.53,-247.1"/>
</g>
<!-- Node25&#45;&gt;Node3 -->
<g id="edge31" class="edge">
<title>Node25&#45;&gt;Node3</title>
<path fill="none" stroke="midnightblue" d="M400.97,-220.22C394.39,-212.47 384.4,-200.7 376.31,-191.18"/>
<polygon fill="midnightblue" stroke="midnightblue" points="378.97,-188.91 369.83,-183.55 373.64,-193.44 378.97,-188.91"/>
</g>
<!-- Node25&#45;&gt;Node9 -->
<g id="edge32" class="edge">
<title>Node25&#45;&gt;Node9</title>
<path fill="none" stroke="midnightblue" d="M385.83,-220.45C361.39,-211.58 321.86,-197.23 294.05,-187.13"/>
<polygon fill="midnightblue" stroke="midnightblue" points="294.98,-183.75 284.38,-183.63 292.59,-190.33 294.98,-183.75"/>
</g>
<!-- Node30&#45;&gt;Node18 -->
<g id="edge39" class="edge">
<title>Node30&#45;&gt;Node18</title>
<path fill="none" stroke="midnightblue" d="M376.84,-495.22C376.71,-488.18 376.52,-477.81 376.35,-468.83"/>
<polygon fill="midnightblue" stroke="midnightblue" points="379.84,-468.48 376.15,-458.55 372.84,-468.61 379.84,-468.48"/>
</g>
<!-- Node31&#45;&gt;Node29 -->
<g id="edge41" class="edge">
<title>Node31&#45;&gt;Node29</title>
<path fill="none" stroke="midnightblue" d="M102.14,-605.34C108.8,-596.44 119.74,-581.77 129,-569 140.49,-553.15 153.38,-534.91 162.41,-522.06"/>
<polygon fill="midnightblue" stroke="midnightblue" points="165.36,-523.96 168.23,-513.76 159.62,-519.94 165.36,-523.96"/>
</g>
<!-- Node32 -->
<g id="node32" class="node">
<title>Node32</title>
<g id="a_node32"><a xlink:title=" ">
<polygon fill="none" stroke="#bfbfbf" points="65.83,-550.5 65.83,-568.5 120.17,-568.5 120.17,-550.5 65.83,-550.5"/>
<text text-anchor="middle" x="93" y="-556.5" font-family="Helvetica,sans-Serif" font-size="10.00">iostream</text>
</a>
</g>
</g>
<!-- Node31&#45;&gt;Node32 -->
<g id="edge42" class="edge">
<title>Node31&#45;&gt;Node32</title>
<path fill="none" stroke="midnightblue" d="M95.53,-605.22C95.13,-598.18 94.55,-587.81 94.04,-578.83"/>
<polygon fill="midnightblue" stroke="midnightblue" points="97.52,-578.34 93.46,-568.55 90.53,-578.73 97.52,-578.34"/>
</g>
<!-- Node33&#45;&gt;Node17 -->
<g id="edge44" class="edge">
<title>Node33&#45;&gt;Node17</title>
<path fill="none" stroke="midnightblue" d="M178.06,-605.22C181.67,-597.86 187.06,-586.88 191.59,-577.64"/>
<polygon fill="midnightblue" stroke="midnightblue" points="194.79,-579.07 196.05,-568.55 188.5,-575.99 194.79,-579.07"/>
</g>
<!-- Node34&#45;&gt;Node17 -->
<g id="edge59" class="edge">
<title>Node34&#45;&gt;Node17</title>
<path fill="none" stroke="midnightblue" d="M430,-668.29C387.2,-666.7 307.54,-658.82 251,-624 232.61,-612.67 218.01,-592.26 209.22,-577.63"/>
<polygon fill="midnightblue" stroke="midnightblue" points="212.08,-575.57 204.09,-568.61 205.99,-579.03 212.08,-575.57"/>
</g>
<!-- Node35 -->
<g id="node35" class="node">
<title>Node35</title>
<g id="a_node35"><a xlink:href="../../d8/dd6/_e_q_t_b_8h.html" target="_top" xlink:title=" ">
<polygon fill="none" stroke="black" points="512.77,-440.5 512.77,-458.5 593.23,-458.5 593.23,-440.5 512.77,-440.5"/>
<text text-anchor="middle" x="553" y="-446.5" font-family="Helvetica,sans-Serif" font-size="10.00">tralics/EQTB.h</text>
</a>
</g>
</g>
<!-- Node34&#45;&gt;Node35 -->
<g id="edge46" class="edge">
<title>Node34&#45;&gt;Node35</title>
<path fill="none" stroke="midnightblue" d="M490.17,-661.77C511.03,-655.52 537.68,-644.06 553,-624 588.3,-577.77 570.35,-502.57 559.39,-468.4"/>
<polygon fill="midnightblue" stroke="midnightblue" points="562.68,-467.19 556.16,-458.84 556.05,-469.44 562.68,-467.19"/>
</g>
<!-- Node36 -->
<g id="node36" class="node">
<title>Node36</title>
<g id="a_node36"><a xlink:href="../../d3/d6b/txcond_8h.html" target="_top" xlink:title=" ">
<polygon fill="none" stroke="black" points="12.1,-275.5 12.1,-293.5 65.9,-293.5 65.9,-275.5 12.1,-275.5"/>
<text text-anchor="middle" x="39" y="-281.5" font-family="Helvetica,sans-Serif" font-size="10.00">txcond.h</text>
</a>
</g>
</g>
<!-- Node34&#45;&gt;Node36 -->
<g id="edge48" class="edge">
<title>Node34&#45;&gt;Node36</title>
<path fill="none" stroke="midnightblue" d="M429.98,-667.08C341.4,-662.63 85.55,-647.81 57,-624 34.37,-605.13 38,-589.96 38,-560.5 38,-560.5 38,-560.5 38,-393.5 38,-362.02 38.43,-325.37 38.73,-303.88"/>
<polygon fill="midnightblue" stroke="midnightblue" points="42.23,-303.68 38.87,-293.63 35.23,-303.58 42.23,-303.68"/>
</g>
<!-- Node37 -->
<g id="node37" class="node">
<title>Node37</title>
<g id="a_node37"><a xlink:href="../../d7/d4d/txfonts_8h.html" target="_top" xlink:title=" ">
<polygon fill="none" stroke="black" points="350.1,-550.5 350.1,-568.5 403.9,-568.5 403.9,-550.5 350.1,-550.5"/>
<text text-anchor="middle" x="377" y="-556.5" font-family="Helvetica,sans-Serif" font-size="10.00">txfonts.h</text>
</a>
</g>
</g>
<!-- Node34&#45;&gt;Node37 -->
<g id="edge51" class="edge">
<title>Node34&#45;&gt;Node37</title>
<path fill="none" stroke="midnightblue" d="M459.28,-660.33C457.8,-647.45 453.42,-622.15 441,-605 431.42,-591.77 416.64,-581.13 403.7,-573.57"/>
<polygon fill="midnightblue" stroke="midnightblue" points="405.15,-570.37 394.71,-568.62 401.78,-576.5 405.15,-570.37"/>
</g>
<!-- Node38 -->
<g id="node38" class="node">
<title>Node38</title>
<g id="a_node38"><a xlink:href="../../d7/d7e/txhash_8h.html" target="_top" xlink:title=" ">
<polygon fill="none" stroke="black" points="378.1,-605.5 378.1,-623.5 431.9,-623.5 431.9,-605.5 378.1,-605.5"/>
<text text-anchor="middle" x="405" y="-611.5" font-family="Helvetica,sans-Serif" font-size="10.00">txhash.h</text>
</a>
</g>
</g>
<!-- Node34&#45;&gt;Node38 -->
<g id="edge53" class="edge">
<title>Node34&#45;&gt;Node38</title>
<path fill="none" stroke="midnightblue" d="M451.41,-660.22C443.21,-652.32 430.66,-640.22 420.68,-630.61"/>
<polygon fill="midnightblue" stroke="midnightblue" points="422.98,-627.97 413.35,-623.55 418.13,-633.01 422.98,-627.97"/>
</g>
<!-- Node40 -->
<g id="node40" class="node">
<title>Node40</title>
<g id="a_node40"><a xlink:href="../../de/d7c/tximage_8h.html" target="_top" xlink:title=" ">
<polygon fill="none" stroke="black" points="618.32,-330.5 618.32,-348.5 677.68,-348.5 677.68,-330.5 618.32,-330.5"/>
<text text-anchor="middle" x="648" y="-336.5" font-family="Helvetica,sans-Serif" font-size="10.00">tximage.h</text>
</a>
</g>
</g>
<!-- Node34&#45;&gt;Node40 -->
<g id="edge56" class="edge">
<title>Node34&#45;&gt;Node40</title>
<path fill="none" stroke="midnightblue" d="M490.02,-665.82C541.21,-660.64 642.36,-647.67 668,-624 689.65,-604.02 687,-589.96 687,-560.5 687,-560.5 687,-560.5 687,-448.5 687,-414.58 669.77,-378.04 658.21,-357.34"/>
<polygon fill="midnightblue" stroke="midnightblue" points="661.15,-355.43 653.1,-348.54 655.1,-358.95 661.15,-355.43"/>
</g>
<!-- Node41 -->
<g id="node41" class="node">
<title>Node41</title>
<g id="a_node41"><a xlink:href="../../dc/d65/txstack_8h.html" target="_top" xlink:title=" ">
<polygon fill="none" stroke="black" points="488.27,-605.5 488.27,-623.5 543.73,-623.5 543.73,-605.5 488.27,-605.5"/>
<text text-anchor="middle" x="516" y="-611.5" font-family="Helvetica,sans-Serif" font-size="10.00">txstack.h</text>
</a>
</g>
</g>
<!-- Node34&#45;&gt;Node41 -->
<g id="edge60" class="edge">
<title>Node34&#45;&gt;Node41</title>
<path fill="none" stroke="midnightblue" d="M468.75,-660.22C477.1,-652.32 489.88,-640.22 500.04,-630.61"/>
<polygon fill="midnightblue" stroke="midnightblue" points="502.64,-632.97 507.49,-623.55 497.83,-627.88 502.64,-632.97"/>
</g>
<!-- Node44 -->
<g id="node44" class="node">
<title>Node44</title>
<g id="a_node44"><a xlink:href="../../d8/d3d/txstats_8h.html" target="_top" xlink:title=" ">
<polygon fill="none" stroke="black" points="605.38,-605.5 605.38,-623.5 658.62,-623.5 658.62,-605.5 605.38,-605.5"/>
<text text-anchor="middle" x="632" y="-611.5" font-family="Helvetica,sans-Serif" font-size="10.00">txstats.h</text>
</a>
</g>
</g>
<!-- Node34&#45;&gt;Node44 -->
<g id="edge65" class="edge">
<title>Node34&#45;&gt;Node44</title>
<path fill="none" stroke="midnightblue" d="M486.12,-660.45C515.51,-651.4 563.4,-636.64 596.24,-626.52"/>
<polygon fill="midnightblue" stroke="midnightblue" points="597.39,-629.83 605.91,-623.54 595.33,-623.14 597.39,-629.83"/>
</g>
<!-- Node35&#45;&gt;Node22 -->
<g id="edge47" class="edge">
<title>Node35&#45;&gt;Node22</title>
<path fill="none" stroke="midnightblue" d="M548.47,-440.22C544.4,-432.79 538.31,-421.65 533.22,-412.34"/>
<polygon fill="midnightblue" stroke="midnightblue" points="536.28,-410.64 528.4,-403.55 530.13,-414 536.28,-410.64"/>
</g>
<!-- Node36&#45;&gt;Node9 -->
<g id="edge49" class="edge">
<title>Node36&#45;&gt;Node9</title>
<path fill="none" stroke="midnightblue" d="M38.96,-275.12C39.39,-261.48 42.3,-234.55 58,-220 81.82,-197.93 172.21,-184.95 224.33,-179.16"/>
<polygon fill="midnightblue" stroke="midnightblue" points="224.96,-182.61 234.52,-178.06 224.21,-175.65 224.96,-182.61"/>
</g>
<!-- Node36&#45;&gt;Node14 -->
<g id="edge50" class="edge">
<title>Node36&#45;&gt;Node14</title>
<path fill="none" stroke="midnightblue" d="M46.81,-275.22C54.19,-267.39 65.45,-255.46 74.48,-245.89"/>
<polygon fill="midnightblue" stroke="midnightblue" points="77.09,-248.23 81.41,-238.55 72,-243.42 77.09,-248.23"/>
</g>
<!-- Node37&#45;&gt;Node30 -->
<g id="edge52" class="edge">
<title>Node37&#45;&gt;Node30</title>
<path fill="none" stroke="midnightblue" d="M377,-550.22C377,-543.18 377,-532.81 377,-523.83"/>
<polygon fill="midnightblue" stroke="midnightblue" points="380.5,-523.55 377,-513.55 373.5,-523.55 380.5,-523.55"/>
</g>
<!-- Node39 -->
<g id="node39" class="node">
<title>Node39</title>
<g id="a_node39"><a xlink:href="../../d3/d01/txeqtb_8h.html" target="_top" xlink:title=" ">
<polygon fill="none" stroke="black" points="280.21,-550.5 280.21,-568.5 331.79,-568.5 331.79,-550.5 280.21,-550.5"/>
<text text-anchor="middle" x="306" y="-556.5" font-family="Helvetica,sans-Serif" font-size="10.00">txeqtb.h</text>
</a>
</g>
</g>
<!-- Node38&#45;&gt;Node39 -->
<g id="edge54" class="edge">
<title>Node38&#45;&gt;Node39</title>
<path fill="none" stroke="midnightblue" d="M389.96,-605.45C374.05,-596.93 348.69,-583.35 330,-573.35"/>
<polygon fill="midnightblue" stroke="midnightblue" points="331.65,-570.26 321.18,-568.63 328.34,-576.43 331.65,-570.26"/>
</g>
<!-- Node39&#45;&gt;Node30 -->
<g id="edge55" class="edge">
<title>Node39&#45;&gt;Node30</title>
<path fill="none" stroke="midnightblue" d="M316.78,-550.45C327.63,-542.36 344.58,-529.7 357.73,-519.88"/>
<polygon fill="midnightblue" stroke="midnightblue" points="360.2,-522.41 366.12,-513.63 356.01,-516.8 360.2,-522.41"/>
</g>
<!-- Node40&#45;&gt;Node13 -->
<g id="edge57" class="edge">
<title>Node40&#45;&gt;Node13</title>
<path fill="none" stroke="midnightblue" d="M648.97,-330.29C650.95,-309.45 653.32,-253.79 627,-220 610.23,-198.47 580.75,-187.06 558.31,-181.21"/>
<polygon fill="midnightblue" stroke="midnightblue" points="559.1,-177.8 548.56,-178.89 557.48,-184.61 559.1,-177.8"/>
</g>
<!-- Node40&#45;&gt;Node27 -->
<g id="edge58" class="edge">
<title>Node40&#45;&gt;Node27</title>
<path fill="none" stroke="midnightblue" d="M640.66,-330.22C633.79,-322.47 623.35,-310.7 614.9,-301.18"/>
<polygon fill="midnightblue" stroke="midnightblue" points="617.39,-298.71 608.14,-293.55 612.15,-303.35 617.39,-298.71"/>
</g>
<!-- Node42 -->
<g id="node42" class="node">
<title>Node42</title>
<g id="a_node42"><a xlink:href="../../d9/d1c/_xml_8h.html" target="_top" xlink:title=" ">
<polygon fill="none" stroke="black" points="421.77,-550.5 421.77,-568.5 492.23,-568.5 492.23,-550.5 421.77,-550.5"/>
<text text-anchor="middle" x="457" y="-556.5" font-family="Helvetica,sans-Serif" font-size="10.00">tralics/Xml.h</text>
</a>
</g>
</g>
<!-- Node41&#45;&gt;Node42 -->
<g id="edge61" class="edge">
<title>Node41&#45;&gt;Node42</title>
<path fill="none" stroke="midnightblue" d="M507.04,-605.45C498.2,-597.51 484.48,-585.19 473.64,-575.45"/>
<polygon fill="midnightblue" stroke="midnightblue" points="475.82,-572.7 466.05,-568.63 471.15,-577.91 475.82,-572.7"/>
</g>
<!-- Node43 -->
<g id="node43" class="node">
<title>Node43</title>
<g id="a_node43"><a xlink:href="../../d4/da4/txatt_8h.html" target="_top" xlink:title=" ">
<polygon fill="none" stroke="black" points="510.38,-550.5 510.38,-568.5 553.62,-568.5 553.62,-550.5 510.38,-550.5"/>
<text text-anchor="middle" x="532" y="-556.5" font-family="Helvetica,sans-Serif" font-size="10.00">txatt.h</text>
</a>
</g>
</g>
<!-- Node41&#45;&gt;Node43 -->
<g id="edge63" class="edge">
<title>Node41&#45;&gt;Node43</title>
<path fill="none" stroke="midnightblue" d="M518.5,-605.22C520.67,-598.02 523.9,-587.35 526.65,-578.23"/>
<polygon fill="midnightblue" stroke="midnightblue" points="530.03,-579.13 529.57,-568.55 523.33,-577.11 530.03,-579.13"/>
</g>
<!-- Node42&#45;&gt;Node30 -->
<g id="edge62" class="edge">
<title>Node42&#45;&gt;Node30</title>
<path fill="none" stroke="midnightblue" d="M444.85,-550.45C432.4,-542.2 412.8,-529.22 397.86,-519.32"/>
<polygon fill="midnightblue" stroke="midnightblue" points="399.53,-516.23 389.26,-513.63 395.67,-522.07 399.53,-516.23"/>
</g>
<!-- Node43&#45;&gt;Node30 -->
<g id="edge64" class="edge">
<title>Node43&#45;&gt;Node30</title>
<path fill="none" stroke="midnightblue" d="M510.12,-551.02C484.11,-542.12 440.42,-527.18 410.22,-516.86"/>
<polygon fill="midnightblue" stroke="midnightblue" points="411.14,-513.47 400.54,-513.55 408.87,-520.1 411.14,-513.47"/>
</g>
</g>
</svg>
