<?xml version="1.0" encoding="UTF-8" standalone="no"?>
<!DOCTYPE svg PUBLIC "-//W3C//DTD SVG 1.1//EN"
 "http://www.w3.org/Graphics/SVG/1.1/DTD/svg11.dtd">
<!-- Generated by graphviz version 2.42.3 (20191010.1750)
 -->
<!-- Title: txclasses.cpp Pages: 1 -->
<svg width="892pt" height="852pt"
 viewBox="0.00 0.00 891.56 852.00" xmlns="http://www.w3.org/2000/svg" xmlns:xlink="http://www.w3.org/1999/xlink">
<g id="graph0" class="graph" transform="scale(1 1) rotate(0) translate(4 848)">
<title>txclasses.cpp</title>
<!-- Node1 -->
<g id="node1" class="node">
<title>Node1</title>
<g id="a_node1"><a xlink:title=" ">
<polygon fill="#bfbfbf" stroke="black" points="623.99,-825.5 623.99,-843.5 700.01,-843.5 700.01,-825.5 623.99,-825.5"/>
<text text-anchor="middle" x="662" y="-831.5" font-family="Helvetica,sans-Serif" font-size="10.00">txclasses.cpp</text>
</a>
</g>
</g>
<!-- Node2 -->
<g id="node2" class="node">
<title>Node2</title>
<g id="a_node2"><a xlink:href="../../dc/dd7/txclasses_8h.html" target="_top" xlink:title=" ">
<polygon fill="none" stroke="black" points="544.27,-660.5 544.27,-678.5 609.73,-678.5 609.73,-660.5 544.27,-660.5"/>
<text text-anchor="middle" x="577" y="-666.5" font-family="Helvetica,sans-Serif" font-size="10.00">txclasses.h</text>
</a>
</g>
</g>
<!-- Node1&#45;&gt;Node2 -->
<g id="edge1" class="edge">
<title>Node1&#45;&gt;Node2</title>
<path fill="none" stroke="midnightblue" d="M657.67,-825.19C644.37,-799.68 603.92,-722.13 585.87,-687.5"/>
<polygon fill="midnightblue" stroke="midnightblue" points="588.95,-685.85 581.22,-678.6 582.74,-689.08 588.95,-685.85"/>
</g>
<!-- Node25 -->
<g id="node25" class="node">
<title>Node25</title>
<g id="a_node25"><a xlink:href="../../de/d40/_parser_8h.html" target="_top" xlink:title=" ">
<polygon fill="none" stroke="black" points="262.93,-770.5 262.93,-788.5 345.07,-788.5 345.07,-770.5 262.93,-770.5"/>
<text text-anchor="middle" x="304" y="-776.5" font-family="Helvetica,sans-Serif" font-size="10.00">tralics/Parser.h</text>
</a>
</g>
</g>
<!-- Node1&#45;&gt;Node25 -->
<g id="edge28" class="edge">
<title>Node1&#45;&gt;Node25</title>
<path fill="none" stroke="midnightblue" d="M623.69,-827.83C559.04,-818.26 428.27,-798.9 355.61,-788.14"/>
<polygon fill="midnightblue" stroke="midnightblue" points="355.73,-784.62 345.33,-786.62 354.71,-791.55 355.73,-784.62"/>
</g>
<!-- Node29 -->
<g id="node29" class="node">
<title>Node29</title>
<g id="a_node29"><a xlink:href="../../d7/d79/txinline_8h.html" target="_top" xlink:title=" ">
<polygon fill="none" stroke="black" points="381.1,-605.5 381.1,-623.5 444.9,-623.5 444.9,-605.5 381.1,-605.5"/>
<text text-anchor="middle" x="413" y="-611.5" font-family="Helvetica,sans-Serif" font-size="10.00">../txinline.h</text>
</a>
</g>
</g>
<!-- Node1&#45;&gt;Node29 -->
<g id="edge70" class="edge">
<title>Node1&#45;&gt;Node29</title>
<path fill="none" stroke="midnightblue" d="M652.84,-825.48C616.01,-793.24 478.34,-672.71 429.95,-630.34"/>
<polygon fill="midnightblue" stroke="midnightblue" points="432.07,-627.54 422.24,-623.59 427.46,-632.81 432.07,-627.54"/>
</g>
<!-- Node47 -->
<g id="node47" class="node">
<title>Node47</title>
<g id="a_node47"><a xlink:href="../../d8/d3c/util_8h.html" target="_top" xlink:title=" ">
<polygon fill="none" stroke="black" points="657.99,-330.5 657.99,-348.5 724.01,-348.5 724.01,-330.5 657.99,-330.5"/>
<text text-anchor="middle" x="691" y="-336.5" font-family="Helvetica,sans-Serif" font-size="10.00">tralics/util.h</text>
</a>
</g>
</g>
<!-- Node1&#45;&gt;Node47 -->
<g id="edge66" class="edge">
<title>Node1&#45;&gt;Node47</title>
<path fill="none" stroke="midnightblue" d="M665.79,-825.3C673.65,-807.52 691,-763.94 691,-725.5 691,-725.5 691,-725.5 691,-448.5 691,-417.02 691,-380.37 691,-358.88"/>
<polygon fill="midnightblue" stroke="midnightblue" points="694.5,-358.63 691,-348.63 687.5,-358.63 694.5,-358.63"/>
</g>
<!-- Node48 -->
<g id="node48" class="node">
<title>Node48</title>
<g id="a_node48"><a xlink:title=" ">
<polygon fill="none" stroke="#bfbfbf" points="719.33,-770.5 719.33,-788.5 788.67,-788.5 788.67,-770.5 719.33,-770.5"/>
<text text-anchor="middle" x="754" y="-776.5" font-family="Helvetica,sans-Serif" font-size="10.00">fmt/format.h</text>
</a>
</g>
</g>
<!-- Node1&#45;&gt;Node48 -->
<g id="edge71" class="edge">
<title>Node1&#45;&gt;Node48</title>
<path fill="none" stroke="midnightblue" d="M675.97,-825.45C690.56,-817.05 713.69,-803.72 730.98,-793.76"/>
<polygon fill="midnightblue" stroke="midnightblue" points="732.98,-796.65 739.9,-788.63 729.48,-790.58 732.98,-796.65"/>
</g>
<!-- Node49 -->
<g id="node49" class="node">
<title>Node49</title>
<g id="a_node49"><a xlink:title=" ">
<polygon fill="none" stroke="#bfbfbf" points="806.44,-770.5 806.44,-788.5 883.56,-788.5 883.56,-770.5 806.44,-770.5"/>
<text text-anchor="middle" x="845" y="-776.5" font-family="Helvetica,sans-Serif" font-size="10.00">fmt/ostream.h</text>
</a>
</g>
</g>
<!-- Node1&#45;&gt;Node49 -->
<g id="edge72" class="edge">
<title>Node1&#45;&gt;Node49</title>
<path fill="none" stroke="midnightblue" d="M689.79,-825.45C721.19,-816.36 772.45,-801.51 807.41,-791.39"/>
<polygon fill="midnightblue" stroke="midnightblue" points="808.61,-794.68 817.25,-788.54 806.67,-787.96 808.61,-794.68"/>
</g>
<!-- Node3 -->
<g id="node3" class="node">
<title>Node3</title>
<g id="a_node3"><a xlink:href="../../d7/d1b/_buffer_8h.html" target="_top" xlink:title=" ">
<polygon fill="none" stroke="black" points="445.41,-440.5 445.41,-458.5 524.59,-458.5 524.59,-440.5 445.41,-440.5"/>
<text text-anchor="middle" x="485" y="-446.5" font-family="Helvetica,sans-Serif" font-size="10.00">tralics/Buffer.h</text>
</a>
</g>
</g>
<!-- Node2&#45;&gt;Node3 -->
<g id="edge2" class="edge">
<title>Node2&#45;&gt;Node3</title>
<path fill="none" stroke="midnightblue" d="M573.05,-660.22C562.13,-637.24 530.88,-570.66 508,-514 501.83,-498.71 495.5,-481.06 491.04,-468.25"/>
<polygon fill="midnightblue" stroke="midnightblue" points="494.35,-467.11 487.79,-458.79 487.73,-469.39 494.35,-467.11"/>
</g>
<!-- Node4 -->
<g id="node4" class="node">
<title>Node4</title>
<g id="a_node4"><a xlink:href="../../d1/d9e/txid_8h.html" target="_top" xlink:title=" ">
<polygon fill="none" stroke="black" points="337.88,-385.5 337.88,-403.5 386.12,-403.5 386.12,-385.5 337.88,-385.5"/>
<text text-anchor="middle" x="362" y="-391.5" font-family="Helvetica,sans-Serif" font-size="10.00">../txid.h</text>
</a>
</g>
</g>
<!-- Node3&#45;&gt;Node4 -->
<g id="edge3" class="edge">
<title>Node3&#45;&gt;Node4</title>
<path fill="none" stroke="midnightblue" d="M466.32,-440.45C446.09,-431.73 413.59,-417.73 390.24,-407.67"/>
<polygon fill="midnightblue" stroke="midnightblue" points="391.43,-404.37 380.86,-403.63 388.66,-410.8 391.43,-404.37"/>
</g>
<!-- Node14 -->
<g id="node14" class="node">
<title>Node14</title>
<g id="a_node14"><a xlink:href="../../d9/d18/txscaled_8h.html" target="_top" xlink:title=" ">
<polygon fill="none" stroke="black" points="187.32,-385.5 187.32,-403.5 256.68,-403.5 256.68,-385.5 187.32,-385.5"/>
<text text-anchor="middle" x="222" y="-391.5" font-family="Helvetica,sans-Serif" font-size="10.00">../txscaled.h</text>
</a>
</g>
</g>
<!-- Node3&#45;&gt;Node14 -->
<g id="edge13" class="edge">
<title>Node3&#45;&gt;Node14</title>
<path fill="none" stroke="midnightblue" d="M445.34,-440.51C397.41,-430.85 316.98,-414.64 266.84,-404.54"/>
<polygon fill="midnightblue" stroke="midnightblue" points="267.42,-401.08 256.93,-402.54 266.04,-407.95 267.42,-401.08"/>
</g>
<!-- Node22 -->
<g id="node22" class="node">
<title>Node22</title>
<g id="a_node22"><a xlink:title=" ">
<polygon fill="none" stroke="#bfbfbf" points="476.27,-385.5 476.27,-403.5 521.73,-403.5 521.73,-385.5 476.27,-385.5"/>
<text text-anchor="middle" x="499" y="-391.5" font-family="Helvetica,sans-Serif" font-size="10.00">cstring</text>
</a>
</g>
</g>
<!-- Node3&#45;&gt;Node22 -->
<g id="edge25" class="edge">
<title>Node3&#45;&gt;Node22</title>
<path fill="none" stroke="midnightblue" d="M487.19,-440.22C489.09,-433.02 491.91,-422.35 494.32,-413.23"/>
<polygon fill="midnightblue" stroke="midnightblue" points="497.7,-414.11 496.87,-403.55 490.94,-412.32 497.7,-414.11"/>
</g>
<!-- Node23 -->
<g id="node23" class="node">
<title>Node23</title>
<g id="a_node23"><a xlink:title=" ">
<polygon fill="none" stroke="#bfbfbf" points="403.83,-385.5 403.83,-403.5 458.17,-403.5 458.17,-385.5 403.83,-385.5"/>
<text text-anchor="middle" x="431" y="-391.5" font-family="Helvetica,sans-Serif" font-size="10.00">iostream</text>
</a>
</g>
</g>
<!-- Node3&#45;&gt;Node23 -->
<g id="edge26" class="edge">
<title>Node3&#45;&gt;Node23</title>
<path fill="none" stroke="midnightblue" d="M476.56,-440.22C468.51,-432.32 456.19,-420.22 446.39,-410.61"/>
<polygon fill="midnightblue" stroke="midnightblue" points="448.79,-408.06 439.2,-403.55 443.89,-413.05 448.79,-408.06"/>
</g>
<!-- Node24 -->
<g id="node24" class="node">
<title>Node24</title>
<g id="a_node24"><a xlink:title=" ">
<polygon fill="none" stroke="#bfbfbf" points="532.38,-275.5 532.38,-293.5 575.62,-293.5 575.62,-275.5 532.38,-275.5"/>
<text text-anchor="middle" x="554" y="-281.5" font-family="Helvetica,sans-Serif" font-size="10.00">vector</text>
</a>
</g>
</g>
<!-- Node3&#45;&gt;Node24 -->
<g id="edge27" class="edge">
<title>Node3&#45;&gt;Node24</title>
<path fill="none" stroke="midnightblue" d="M496.79,-440.41C507.46,-432.43 522.74,-419.24 531,-404 548.51,-371.7 552.83,-328.07 553.8,-303.77"/>
<polygon fill="midnightblue" stroke="midnightblue" points="557.31,-303.61 554.06,-293.53 550.31,-303.44 557.31,-303.61"/>
</g>
<!-- Node5 -->
<g id="node5" class="node">
<title>Node5</title>
<g id="a_node5"><a xlink:href="../../d5/daf/_istring_8h.html" target="_top" xlink:title=" ">
<polygon fill="none" stroke="black" points="343.77,-275.5 343.77,-293.5 424.23,-293.5 424.23,-275.5 343.77,-275.5"/>
<text text-anchor="middle" x="384" y="-281.5" font-family="Helvetica,sans-Serif" font-size="10.00">tralics/Istring.h</text>
</a>
</g>
</g>
<!-- Node4&#45;&gt;Node5 -->
<g id="edge4" class="edge">
<title>Node4&#45;&gt;Node5</title>
<path fill="none" stroke="midnightblue" d="M385.1,-385.46C401.14,-378.52 421.31,-366.77 431,-349 440.95,-330.75 422.64,-311.85 406.05,-299.46"/>
<polygon fill="midnightblue" stroke="midnightblue" points="407.89,-296.48 397.68,-293.62 403.88,-302.22 407.89,-296.48"/>
</g>
<!-- Node6 -->
<g id="node6" class="node">
<title>Node6</title>
<g id="a_node6"><a xlink:href="../../d0/d0b/enums_8h.html" target="_top" xlink:title=" ">
<polygon fill="none" stroke="black" points="527.82,-165.5 527.82,-183.5 582.18,-183.5 582.18,-165.5 527.82,-165.5"/>
<text text-anchor="middle" x="555" y="-171.5" font-family="Helvetica,sans-Serif" font-size="10.00">enums.h</text>
</a>
</g>
</g>
<!-- Node5&#45;&gt;Node6 -->
<g id="edge5" class="edge">
<title>Node5&#45;&gt;Node6</title>
<path fill="none" stroke="midnightblue" d="M386.93,-275.22C392.12,-261.72 404.18,-234.99 423,-220 450.46,-198.13 489.23,-186.75 517.64,-181"/>
<polygon fill="midnightblue" stroke="midnightblue" points="518.42,-184.42 527.6,-179.13 517.13,-177.54 518.42,-184.42"/>
</g>
<!-- Node12 -->
<g id="node12" class="node">
<title>Node12</title>
<g id="a_node12"><a xlink:title=" ">
<polygon fill="none" stroke="#bfbfbf" points="337.61,-220.5 337.61,-238.5 376.39,-238.5 376.39,-220.5 337.61,-220.5"/>
<text text-anchor="middle" x="357" y="-226.5" font-family="Helvetica,sans-Serif" font-size="10.00">array</text>
</a>
</g>
</g>
<!-- Node5&#45;&gt;Node12 -->
<g id="edge11" class="edge">
<title>Node5&#45;&gt;Node12</title>
<path fill="none" stroke="midnightblue" d="M379.78,-275.22C376.03,-267.86 370.44,-256.88 365.73,-247.64"/>
<polygon fill="midnightblue" stroke="midnightblue" points="368.76,-245.87 361.1,-238.55 362.52,-249.05 368.76,-245.87"/>
</g>
<!-- Node13 -->
<g id="node13" class="node">
<title>Node13</title>
<g id="a_node13"><a xlink:title=" ">
<polygon fill="none" stroke="#bfbfbf" points="431.77,-220.5 431.77,-238.5 472.23,-238.5 472.23,-220.5 431.77,-220.5"/>
<text text-anchor="middle" x="452" y="-226.5" font-family="Helvetica,sans-Serif" font-size="10.00">string</text>
</a>
</g>
</g>
<!-- Node5&#45;&gt;Node13 -->
<g id="edge12" class="edge">
<title>Node5&#45;&gt;Node13</title>
<path fill="none" stroke="midnightblue" d="M394.33,-275.45C404.71,-267.36 420.95,-254.7 433.55,-244.88"/>
<polygon fill="midnightblue" stroke="midnightblue" points="435.84,-247.53 441.58,-238.63 431.54,-242.01 435.84,-247.53"/>
</g>
<!-- Node7 -->
<g id="node7" class="node">
<title>Node7</title>
<g id="a_node7"><a xlink:href="../../d8/db5/consts_8h.html" target="_top" xlink:title=" ">
<polygon fill="none" stroke="black" points="510.38,-110.5 510.38,-128.5 563.62,-128.5 563.62,-110.5 510.38,-110.5"/>
<text text-anchor="middle" x="537" y="-116.5" font-family="Helvetica,sans-Serif" font-size="10.00">consts.h</text>
</a>
</g>
</g>
<!-- Node6&#45;&gt;Node7 -->
<g id="edge6" class="edge">
<title>Node6&#45;&gt;Node7</title>
<path fill="none" stroke="midnightblue" d="M552.19,-165.22C549.74,-158.02 546.12,-147.35 543.02,-138.23"/>
<polygon fill="midnightblue" stroke="midnightblue" points="546.26,-136.89 539.73,-128.55 539.64,-139.14 546.26,-136.89"/>
</g>
<!-- Node8 -->
<g id="node8" class="node">
<title>Node8</title>
<g id="a_node8"><a xlink:href="../../d9/d49/types_8h.html" target="_top" xlink:title=" ">
<polygon fill="none" stroke="black" points="282.88,-55.5 282.88,-73.5 331.12,-73.5 331.12,-55.5 282.88,-55.5"/>
<text text-anchor="middle" x="307" y="-61.5" font-family="Helvetica,sans-Serif" font-size="10.00">types.h</text>
</a>
</g>
</g>
<!-- Node7&#45;&gt;Node8 -->
<g id="edge7" class="edge">
<title>Node7&#45;&gt;Node8</title>
<path fill="none" stroke="midnightblue" d="M510.17,-112.32C468.19,-102.64 387.06,-83.95 341.03,-73.34"/>
<polygon fill="midnightblue" stroke="midnightblue" points="341.76,-69.92 331.23,-71.08 340.19,-76.74 341.76,-69.92"/>
</g>
<!-- Node9 -->
<g id="node9" class="node">
<title>Node9</title>
<g id="a_node9"><a xlink:title=" ">
<polygon fill="none" stroke="#bfbfbf" points="245.88,-0.5 245.88,-18.5 294.12,-18.5 294.12,-0.5 245.88,-0.5"/>
<text text-anchor="middle" x="270" y="-6.5" font-family="Helvetica,sans-Serif" font-size="10.00">cassert</text>
</a>
</g>
</g>
<!-- Node8&#45;&gt;Node9 -->
<g id="edge8" class="edge">
<title>Node8&#45;&gt;Node9</title>
<path fill="none" stroke="midnightblue" d="M301.22,-55.22C295.92,-47.63 287.92,-36.18 281.35,-26.76"/>
<polygon fill="midnightblue" stroke="midnightblue" points="284.21,-24.75 275.62,-18.55 278.47,-28.75 284.21,-24.75"/>
</g>
<!-- Node10 -->
<g id="node10" class="node">
<title>Node10</title>
<g id="a_node10"><a xlink:title=" ">
<polygon fill="none" stroke="#bfbfbf" points="177.88,-0.5 177.88,-18.5 226.12,-18.5 226.12,-0.5 177.88,-0.5"/>
<text text-anchor="middle" x="202" y="-6.5" font-family="Helvetica,sans-Serif" font-size="10.00">cstddef</text>
</a>
</g>
</g>
<!-- Node8&#45;&gt;Node10 -->
<g id="edge9" class="edge">
<title>Node8&#45;&gt;Node10</title>
<path fill="none" stroke="midnightblue" d="M291.05,-55.45C274.09,-46.89 247.03,-33.23 227.18,-23.21"/>
<polygon fill="midnightblue" stroke="midnightblue" points="228.6,-20.01 218.1,-18.63 225.45,-26.26 228.6,-20.01"/>
</g>
<!-- Node11 -->
<g id="node11" class="node">
<title>Node11</title>
<g id="a_node11"><a xlink:title=" ">
<polygon fill="none" stroke="#bfbfbf" points="311.93,-0.5 311.93,-18.5 374.07,-18.5 374.07,-0.5 311.93,-0.5"/>
<text text-anchor="middle" x="343" y="-6.5" font-family="Helvetica,sans-Serif" font-size="10.00">type_traits</text>
</a>
</g>
</g>
<!-- Node8&#45;&gt;Node11 -->
<g id="edge10" class="edge">
<title>Node8&#45;&gt;Node11</title>
<path fill="none" stroke="midnightblue" d="M312.62,-55.22C317.73,-47.71 325.4,-36.41 331.76,-27.05"/>
<polygon fill="midnightblue" stroke="midnightblue" points="334.81,-28.79 337.53,-18.55 329.02,-24.86 334.81,-28.79"/>
</g>
<!-- Node15 -->
<g id="node15" class="node">
<title>Node15</title>
<g id="a_node15"><a xlink:href="../../dc/d91/txtokenlist_8h.html" target="_top" xlink:title=" ">
<polygon fill="none" stroke="black" points="183.6,-330.5 183.6,-348.5 252.4,-348.5 252.4,-330.5 183.6,-330.5"/>
<text text-anchor="middle" x="218" y="-336.5" font-family="Helvetica,sans-Serif" font-size="10.00">txtokenlist.h</text>
</a>
</g>
</g>
<!-- Node14&#45;&gt;Node15 -->
<g id="edge14" class="edge">
<title>Node14&#45;&gt;Node15</title>
<path fill="none" stroke="midnightblue" d="M221.38,-385.22C220.84,-378.1 220.04,-367.58 219.36,-358.53"/>
<polygon fill="midnightblue" stroke="midnightblue" points="222.85,-358.26 218.61,-348.55 215.87,-358.78 222.85,-358.26"/>
</g>
<!-- Node15&#45;&gt;Node5 -->
<g id="edge15" class="edge">
<title>Node15&#45;&gt;Node5</title>
<path fill="none" stroke="midnightblue" d="M243.21,-330.45C271.45,-321.44 317.4,-306.77 349.08,-296.65"/>
<polygon fill="midnightblue" stroke="midnightblue" points="350.36,-299.91 358.82,-293.54 348.23,-293.25 350.36,-299.91"/>
</g>
<!-- Node16 -->
<g id="node16" class="node">
<title>Node16</title>
<g id="a_node16"><a xlink:href="../../dd/dcd/_token_8h.html" target="_top" xlink:title=" ">
<polygon fill="none" stroke="black" points="186.04,-275.5 186.04,-293.5 265.96,-293.5 265.96,-275.5 186.04,-275.5"/>
<text text-anchor="middle" x="226" y="-281.5" font-family="Helvetica,sans-Serif" font-size="10.00">tralics/Token.h</text>
</a>
</g>
</g>
<!-- Node15&#45;&gt;Node16 -->
<g id="edge16" class="edge">
<title>Node15&#45;&gt;Node16</title>
<path fill="none" stroke="midnightblue" d="M219.25,-330.22C220.32,-323.1 221.91,-312.58 223.28,-303.53"/>
<polygon fill="midnightblue" stroke="midnightblue" points="226.75,-303.96 224.78,-293.55 219.83,-302.92 226.75,-303.96"/>
</g>
<!-- Node21 -->
<g id="node21" class="node">
<title>Node21</title>
<g id="a_node21"><a xlink:title=" ">
<polygon fill="none" stroke="#bfbfbf" points="283.61,-275.5 283.61,-293.5 322.39,-293.5 322.39,-275.5 283.61,-275.5"/>
<text text-anchor="middle" x="303" y="-281.5" font-family="Helvetica,sans-Serif" font-size="10.00">utility</text>
</a>
</g>
</g>
<!-- Node15&#45;&gt;Node21 -->
<g id="edge24" class="edge">
<title>Node15&#45;&gt;Node21</title>
<path fill="none" stroke="midnightblue" d="M230.91,-330.45C244.26,-322.12 265.36,-308.97 281.29,-299.04"/>
<polygon fill="midnightblue" stroke="midnightblue" points="283.34,-301.89 289.97,-293.63 279.63,-295.95 283.34,-301.89"/>
</g>
<!-- Node16&#45;&gt;Node12 -->
<g id="edge22" class="edge">
<title>Node16&#45;&gt;Node12</title>
<path fill="none" stroke="midnightblue" d="M245.9,-275.45C267.76,-266.61 303.08,-252.32 328.02,-242.23"/>
<polygon fill="midnightblue" stroke="midnightblue" points="329.39,-245.45 337.35,-238.45 326.76,-238.96 329.39,-245.45"/>
</g>
<!-- Node17 -->
<g id="node17" class="node">
<title>Node17</title>
<g id="a_node17"><a xlink:href="../../d2/d68/_cmd_chr_8h.html" target="_top" xlink:title=" ">
<polygon fill="none" stroke="black" points="258.49,-220.5 258.49,-238.5 319.51,-238.5 319.51,-220.5 258.49,-220.5"/>
<text text-anchor="middle" x="289" y="-226.5" font-family="Helvetica,sans-Serif" font-size="10.00">CmdChr.h</text>
</a>
</g>
</g>
<!-- Node16&#45;&gt;Node17 -->
<g id="edge17" class="edge">
<title>Node16&#45;&gt;Node17</title>
<path fill="none" stroke="midnightblue" d="M235.57,-275.45C245.1,-267.43 259.94,-254.95 271.57,-245.17"/>
<polygon fill="midnightblue" stroke="midnightblue" points="273.94,-247.74 279.34,-238.63 269.44,-242.38 273.94,-247.74"/>
</g>
<!-- Node20 -->
<g id="node20" class="node">
<title>Node20</title>
<g id="a_node20"><a xlink:title=" ">
<polygon fill="none" stroke="#bfbfbf" points="211.5,-220.5 211.5,-238.5 240.5,-238.5 240.5,-220.5 211.5,-220.5"/>
<text text-anchor="middle" x="225.61" y="-226.5" font-family="Helvetica,sans-Serif" font-size="10.00">list</text>
</a>
</g>
</g>
<!-- Node16&#45;&gt;Node20 -->
<g id="edge23" class="edge">
<title>Node16&#45;&gt;Node20</title>
<path fill="none" stroke="midnightblue" d="M226,-275.22C226,-268.18 226,-257.81 226,-248.83"/>
<polygon fill="midnightblue" stroke="midnightblue" points="229.5,-248.55 226,-238.55 222.5,-248.55 229.5,-248.55"/>
</g>
<!-- Node17&#45;&gt;Node6 -->
<g id="edge21" class="edge">
<title>Node17&#45;&gt;Node6</title>
<path fill="none" stroke="midnightblue" d="M319.57,-221.96C322.75,-221.29 325.94,-220.63 329,-220 395.33,-206.42 472.78,-191.34 517.62,-182.68"/>
<polygon fill="midnightblue" stroke="midnightblue" points="518.33,-186.11 527.49,-180.78 517.01,-179.24 518.33,-186.11"/>
</g>
<!-- Node18 -->
<g id="node18" class="node">
<title>Node18</title>
<g id="a_node18"><a xlink:href="../../d8/d47/codepoint_8h.html" target="_top" xlink:title=" ">
<polygon fill="none" stroke="black" points="273.15,-165.5 273.15,-183.5 340.85,-183.5 340.85,-165.5 273.15,-165.5"/>
<text text-anchor="middle" x="307" y="-171.5" font-family="Helvetica,sans-Serif" font-size="10.00">codepoint.h</text>
</a>
</g>
</g>
<!-- Node17&#45;&gt;Node18 -->
<g id="edge18" class="edge">
<title>Node17&#45;&gt;Node18</title>
<path fill="none" stroke="midnightblue" d="M291.81,-220.22C294.26,-213.02 297.88,-202.35 300.98,-193.23"/>
<polygon fill="midnightblue" stroke="midnightblue" points="304.36,-194.14 304.27,-183.55 297.74,-191.89 304.36,-194.14"/>
</g>
<!-- Node18&#45;&gt;Node8 -->
<g id="edge19" class="edge">
<title>Node18&#45;&gt;Node8</title>
<path fill="none" stroke="midnightblue" d="M307,-165.38C307,-148.18 307,-107.7 307,-83.89"/>
<polygon fill="midnightblue" stroke="midnightblue" points="310.5,-83.71 307,-73.71 303.5,-83.71 310.5,-83.71"/>
</g>
<!-- Node19 -->
<g id="node19" class="node">
<title>Node19</title>
<g id="a_node19"><a xlink:title=" ">
<polygon fill="none" stroke="#bfbfbf" points="406.49,-110.5 406.49,-128.5 457.51,-128.5 457.51,-110.5 406.49,-110.5"/>
<text text-anchor="middle" x="432" y="-116.5" font-family="Helvetica,sans-Serif" font-size="10.00">optional</text>
</a>
</g>
</g>
<!-- Node18&#45;&gt;Node19 -->
<g id="edge20" class="edge">
<title>Node18&#45;&gt;Node19</title>
<path fill="none" stroke="midnightblue" d="M325.98,-165.45C346.63,-156.7 379.86,-142.61 403.62,-132.53"/>
<polygon fill="midnightblue" stroke="midnightblue" points="405,-135.75 412.84,-128.63 402.26,-129.31 405,-135.75"/>
</g>
<!-- Node26 -->
<g id="node26" class="node">
<title>Node26</title>
<g id="a_node26"><a xlink:href="../../d3/d6b/txcond_8h.html" target="_top" xlink:title=" ">
<polygon fill="none" stroke="black" points="577.93,-330.5 577.93,-348.5 640.07,-348.5 640.07,-330.5 577.93,-330.5"/>
<text text-anchor="middle" x="609" y="-336.5" font-family="Helvetica,sans-Serif" font-size="10.00">../txcond.h</text>
</a>
</g>
</g>
<!-- Node25&#45;&gt;Node26 -->
<g id="edge29" class="edge">
<title>Node25&#45;&gt;Node26</title>
<path fill="none" stroke="midnightblue" d="M345.29,-778.12C413.13,-775.12 547.74,-758.76 619,-679 671.35,-620.4 653,-584.08 653,-505.5 653,-505.5 653,-505.5 653,-448.5 653,-414.07 633.58,-377.72 620.55,-357.2"/>
<polygon fill="midnightblue" stroke="midnightblue" points="623.37,-355.12 614.93,-348.71 617.53,-358.98 623.37,-355.12"/>
</g>
<!-- Node27 -->
<g id="node27" class="node">
<title>Node27</title>
<g id="a_node27"><a xlink:href="../../d7/d4d/txfonts_8h.html" target="_top" xlink:title=" ">
<polygon fill="none" stroke="black" points="207.93,-715.5 207.93,-733.5 270.07,-733.5 270.07,-715.5 207.93,-715.5"/>
<text text-anchor="middle" x="239" y="-721.5" font-family="Helvetica,sans-Serif" font-size="10.00">../txfonts.h</text>
</a>
</g>
</g>
<!-- Node25&#45;&gt;Node27 -->
<g id="edge32" class="edge">
<title>Node25&#45;&gt;Node27</title>
<path fill="none" stroke="midnightblue" d="M294.13,-770.45C284.3,-762.43 268.98,-749.95 256.99,-740.17"/>
<polygon fill="midnightblue" stroke="midnightblue" points="258.93,-737.23 248.97,-733.63 254.5,-742.66 258.93,-737.23"/>
</g>
<!-- Node36 -->
<g id="node36" class="node">
<title>Node36</title>
<g id="a_node36"><a xlink:href="../../de/d7c/tximage_8h.html" target="_top" xlink:title=" ">
<polygon fill="none" stroke="black" points="354.16,-330.5 354.16,-348.5 421.84,-348.5 421.84,-330.5 354.16,-330.5"/>
<text text-anchor="middle" x="388" y="-336.5" font-family="Helvetica,sans-Serif" font-size="10.00">../tximage.h</text>
</a>
</g>
</g>
<!-- Node25&#45;&gt;Node36 -->
<g id="edge43" class="edge">
<title>Node25&#45;&gt;Node36</title>
<path fill="none" stroke="midnightblue" d="M304.46,-770.23C305.6,-744.73 307.03,-665.34 285,-605 247.71,-502.87 109.55,-469.48 178,-385 179.32,-383.37 282.7,-362.01 343.9,-349.49"/>
<polygon fill="midnightblue" stroke="midnightblue" points="344.97,-352.84 354.07,-347.41 343.57,-345.98 344.97,-352.84"/>
</g>
<!-- Node37 -->
<g id="node37" class="node">
<title>Node37</title>
<g id="a_node37"><a xlink:href="../../dc/d65/txstack_8h.html" target="_top" xlink:title=" ">
<polygon fill="none" stroke="black" points="561.1,-550.5 561.1,-568.5 624.9,-568.5 624.9,-550.5 561.1,-550.5"/>
<text text-anchor="middle" x="593" y="-556.5" font-family="Helvetica,sans-Serif" font-size="10.00">../txstack.h</text>
</a>
</g>
</g>
<!-- Node25&#45;&gt;Node37 -->
<g id="edge46" class="edge">
<title>Node25&#45;&gt;Node37</title>
<path fill="none" stroke="midnightblue" d="M314.63,-770.48C357.56,-738.1 518.49,-616.71 574.02,-574.82"/>
<polygon fill="midnightblue" stroke="midnightblue" points="576.4,-577.41 582.27,-568.59 572.18,-571.82 576.4,-577.41"/>
</g>
<!-- Node41 -->
<g id="node41" class="node">
<title>Node41</title>
<g id="a_node41"><a xlink:href="../../d8/d3d/txstats_8h.html" target="_top" xlink:title=" ">
<polygon fill="none" stroke="black" points="168.21,-55.5 168.21,-73.5 229.79,-73.5 229.79,-55.5 168.21,-55.5"/>
<text text-anchor="middle" x="199" y="-61.5" font-family="Helvetica,sans-Serif" font-size="10.00">../txstats.h</text>
</a>
</g>
</g>
<!-- Node25&#45;&gt;Node41 -->
<g id="edge54" class="edge">
<title>Node25&#45;&gt;Node41</title>
<path fill="none" stroke="midnightblue" d="M262.53,-777.1C214.44,-774.03 133.86,-764.35 72,-734 33.69,-715.21 0,-713.17 0,-670.5 0,-670.5 0,-670.5 0,-173.5 0,-102.3 99.62,-77.79 157.89,-69.54"/>
<polygon fill="midnightblue" stroke="midnightblue" points="158.45,-73 167.91,-68.22 157.54,-66.06 158.45,-73"/>
</g>
<!-- Node42 -->
<g id="node42" class="node">
<title>Node42</title>
<g id="a_node42"><a xlink:href="../../d8/dd6/_e_q_t_b_8h.html" target="_top" xlink:title=" ">
<polygon fill="none" stroke="black" points="28.22,-660.5 28.22,-678.5 79.78,-678.5 79.78,-660.5 28.22,-660.5"/>
<text text-anchor="middle" x="54" y="-666.5" font-family="Helvetica,sans-Serif" font-size="10.00">EQTB.h</text>
</a>
</g>
</g>
<!-- Node25&#45;&gt;Node42 -->
<g id="edge56" class="edge">
<title>Node25&#45;&gt;Node42</title>
<path fill="none" stroke="midnightblue" d="M262.79,-778.97C217.54,-777.54 144.6,-769.27 94,-734 77.83,-722.73 66.8,-702.6 60.49,-688.03"/>
<polygon fill="midnightblue" stroke="midnightblue" points="63.68,-686.58 56.71,-678.6 57.18,-689.18 63.68,-686.58"/>
</g>
<!-- Node43 -->
<g id="node43" class="node">
<title>Node43</title>
<g id="a_node43"><a xlink:href="../../da/d27/_hashtab_8h.html" target="_top" xlink:title=" ">
<polygon fill="none" stroke="black" points="277.21,-495.5 277.21,-513.5 338.79,-513.5 338.79,-495.5 277.21,-495.5"/>
<text text-anchor="middle" x="308" y="-501.5" font-family="Helvetica,sans-Serif" font-size="10.00">Hashtab.h</text>
</a>
</g>
</g>
<!-- Node25&#45;&gt;Node43 -->
<g id="edge58" class="edge">
<title>Node25&#45;&gt;Node43</title>
<path fill="none" stroke="midnightblue" d="M307.34,-770.48C310.81,-761.7 315.98,-747.13 318,-734 329.85,-656.82 317.6,-563.38 311.27,-524.2"/>
<polygon fill="midnightblue" stroke="midnightblue" points="314.65,-523.15 309.54,-513.86 307.74,-524.31 314.65,-523.15"/>
</g>
<!-- Node46 -->
<g id="node46" class="node">
<title>Node46</title>
<g id="a_node46"><a xlink:href="../../d9/dba/_label_info_8h.html" target="_top" xlink:title=" ">
<polygon fill="none" stroke="black" points="270.26,-330.5 270.26,-348.5 335.74,-348.5 335.74,-330.5 270.26,-330.5"/>
<text text-anchor="middle" x="303" y="-336.5" font-family="Helvetica,sans-Serif" font-size="10.00">LabelInfo.h</text>
</a>
</g>
</g>
<!-- Node25&#45;&gt;Node46 -->
<g id="edge63" class="edge">
<title>Node25&#45;&gt;Node46</title>
<path fill="none" stroke="midnightblue" d="M274.8,-770.44C252.53,-763.31 221.88,-751.34 199,-734 126.79,-679.28 92,-651.1 92,-560.5 92,-560.5 92,-560.5 92,-448.5 92,-418.33 93.35,-404.93 116,-385 121.47,-380.19 206.6,-361.21 260.09,-349.65"/>
<polygon fill="midnightblue" stroke="midnightblue" points="260.97,-353.04 270.01,-347.51 259.5,-346.2 260.97,-353.04"/>
</g>
<!-- Node26&#45;&gt;Node6 -->
<g id="edge30" class="edge">
<title>Node26&#45;&gt;Node6</title>
<path fill="none" stroke="midnightblue" d="M606.25,-330.19C597.87,-304.9 572.54,-228.45 560.93,-193.4"/>
<polygon fill="midnightblue" stroke="midnightblue" points="564.15,-191.99 557.68,-183.6 557.5,-194.19 564.15,-191.99"/>
</g>
<!-- Node26&#45;&gt;Node24 -->
<g id="edge31" class="edge">
<title>Node26&#45;&gt;Node24</title>
<path fill="none" stroke="midnightblue" d="M600.41,-330.22C592.21,-322.32 579.66,-310.22 569.68,-300.61"/>
<polygon fill="midnightblue" stroke="midnightblue" points="571.98,-297.97 562.35,-293.55 567.13,-303.01 571.98,-297.97"/>
</g>
<!-- Node28 -->
<g id="node28" class="node">
<title>Node28</title>
<g id="a_node28"><a xlink:href="../../d6/dec/_logger_8h.html" target="_top" xlink:title=" ">
<polygon fill="none" stroke="black" points="191.09,-660.5 191.09,-678.5 274.91,-678.5 274.91,-660.5 191.09,-660.5"/>
<text text-anchor="middle" x="233" y="-666.5" font-family="Helvetica,sans-Serif" font-size="10.00">tralics/Logger.h</text>
</a>
</g>
</g>
<!-- Node27&#45;&gt;Node28 -->
<g id="edge33" class="edge">
<title>Node27&#45;&gt;Node28</title>
<path fill="none" stroke="midnightblue" d="M238.06,-715.22C237.26,-708.1 236.07,-697.58 235.04,-688.53"/>
<polygon fill="midnightblue" stroke="midnightblue" points="238.51,-688.09 233.91,-678.55 231.56,-688.88 238.51,-688.09"/>
</g>
<!-- Node28&#45;&gt;Node29 -->
<g id="edge34" class="edge">
<title>Node28&#45;&gt;Node29</title>
<path fill="none" stroke="midnightblue" d="M260.34,-660.45C291.22,-651.36 341.64,-636.51 376.02,-626.39"/>
<polygon fill="midnightblue" stroke="midnightblue" points="377.1,-629.72 385.7,-623.54 375.12,-623.01 377.1,-629.72"/>
</g>
<!-- Node34 -->
<g id="node34" class="node">
<title>Node34</title>
<g id="a_node34"><a xlink:title=" ">
<polygon fill="none" stroke="#bfbfbf" points="119.94,-605.5 119.94,-623.5 172.06,-623.5 172.06,-605.5 119.94,-605.5"/>
<text text-anchor="middle" x="146" y="-611.5" font-family="Helvetica,sans-Serif" font-size="10.00">memory</text>
</a>
</g>
</g>
<!-- Node28&#45;&gt;Node34 -->
<g id="edge41" class="edge">
<title>Node28&#45;&gt;Node34</title>
<path fill="none" stroke="midnightblue" d="M219.79,-660.45C206.12,-652.12 184.53,-638.97 168.23,-629.04"/>
<polygon fill="midnightblue" stroke="midnightblue" points="169.7,-625.84 159.34,-623.63 166.06,-631.82 169.7,-625.84"/>
</g>
<!-- Node35 -->
<g id="node35" class="node">
<title>Node35</title>
<g id="a_node35"><a xlink:title=" ">
<polygon fill="none" stroke="#bfbfbf" points="189.97,-605.5 189.97,-623.5 276.03,-623.5 276.03,-605.5 189.97,-605.5"/>
<text text-anchor="middle" x="233" y="-611.5" font-family="Helvetica,sans-Serif" font-size="10.00">spdlog/spdlog.h</text>
</a>
</g>
</g>
<!-- Node28&#45;&gt;Node35 -->
<g id="edge42" class="edge">
<title>Node28&#45;&gt;Node35</title>
<path fill="none" stroke="midnightblue" d="M233,-660.22C233,-653.18 233,-642.81 233,-633.83"/>
<polygon fill="midnightblue" stroke="midnightblue" points="236.5,-633.55 233,-623.55 229.5,-633.55 236.5,-633.55"/>
</g>
<!-- Node30 -->
<g id="node30" class="node">
<title>Node30</title>
<g id="a_node30"><a xlink:href="../../d4/de9/_main_class_8h.html" target="_top" xlink:title=" ">
<polygon fill="none" stroke="black" points="327.04,-550.5 327.04,-568.5 426.96,-568.5 426.96,-550.5 327.04,-550.5"/>
<text text-anchor="middle" x="377" y="-556.5" font-family="Helvetica,sans-Serif" font-size="10.00">tralics/MainClass.h</text>
</a>
</g>
</g>
<!-- Node29&#45;&gt;Node30 -->
<g id="edge35" class="edge">
<title>Node29&#45;&gt;Node30</title>
<path fill="none" stroke="midnightblue" d="M407.38,-605.22C402.27,-597.71 394.6,-586.41 388.24,-577.05"/>
<polygon fill="midnightblue" stroke="midnightblue" points="390.98,-574.86 382.47,-568.55 385.19,-578.79 390.98,-574.86"/>
</g>
<!-- Node33 -->
<g id="node33" class="node">
<title>Node33</title>
<g id="a_node33"><a xlink:href="../../d5/d08/txparam_8h.html" target="_top" xlink:title=" ">
<polygon fill="none" stroke="black" points="444.77,-550.5 444.77,-568.5 505.23,-568.5 505.23,-550.5 444.77,-550.5"/>
<text text-anchor="middle" x="475" y="-556.5" font-family="Helvetica,sans-Serif" font-size="10.00">txparam.h</text>
</a>
</g>
</g>
<!-- Node29&#45;&gt;Node33 -->
<g id="edge39" class="edge">
<title>Node29&#45;&gt;Node33</title>
<path fill="none" stroke="midnightblue" d="M422.42,-605.45C431.79,-597.43 446.4,-584.95 457.84,-575.17"/>
<polygon fill="midnightblue" stroke="midnightblue" points="460.17,-577.78 465.49,-568.63 455.62,-572.46 460.17,-577.78"/>
</g>
<!-- Node31 -->
<g id="node31" class="node">
<title>Node31</title>
<g id="a_node31"><a xlink:href="../../de/d29/txio_8h.html" target="_top" xlink:title=" ">
<polygon fill="none" stroke="black" points="395.88,-495.5 395.88,-513.5 444.12,-513.5 444.12,-495.5 395.88,-495.5"/>
<text text-anchor="middle" x="420" y="-501.5" font-family="Helvetica,sans-Serif" font-size="10.00">../txio.h</text>
</a>
</g>
</g>
<!-- Node30&#45;&gt;Node31 -->
<g id="edge36" class="edge">
<title>Node30&#45;&gt;Node31</title>
<path fill="none" stroke="midnightblue" d="M383.72,-550.22C389.94,-542.55 399.36,-530.94 407.04,-521.47"/>
<polygon fill="midnightblue" stroke="midnightblue" points="409.89,-523.52 413.47,-513.55 404.45,-519.11 409.89,-523.52"/>
</g>
<!-- Node31&#45;&gt;Node3 -->
<g id="edge37" class="edge">
<title>Node31&#45;&gt;Node3</title>
<path fill="none" stroke="midnightblue" d="M429.87,-495.45C439.7,-487.43 455.02,-474.95 467.01,-465.17"/>
<polygon fill="midnightblue" stroke="midnightblue" points="469.5,-467.66 475.03,-458.63 465.07,-462.23 469.5,-467.66"/>
</g>
<!-- Node32 -->
<g id="node32" class="node">
<title>Node32</title>
<g id="a_node32"><a xlink:title=" ">
<polygon fill="none" stroke="#bfbfbf" points="378.33,-440.5 378.33,-458.5 427.67,-458.5 427.67,-440.5 378.33,-440.5"/>
<text text-anchor="middle" x="403" y="-446.5" font-family="Helvetica,sans-Serif" font-size="10.00">fstream</text>
</a>
</g>
</g>
<!-- Node31&#45;&gt;Node32 -->
<g id="edge38" class="edge">
<title>Node31&#45;&gt;Node32</title>
<path fill="none" stroke="midnightblue" d="M417.34,-495.22C415.03,-488.02 411.61,-477.35 408.69,-468.23"/>
<polygon fill="midnightblue" stroke="midnightblue" points="411.97,-467 405.58,-458.55 405.3,-469.14 411.97,-467"/>
</g>
<!-- Node33&#45;&gt;Node31 -->
<g id="edge40" class="edge">
<title>Node33&#45;&gt;Node31</title>
<path fill="none" stroke="midnightblue" d="M466.41,-550.22C458.21,-542.32 445.66,-530.22 435.68,-520.61"/>
<polygon fill="midnightblue" stroke="midnightblue" points="437.98,-517.97 428.35,-513.55 433.13,-523.01 437.98,-517.97"/>
</g>
<!-- Node36&#45;&gt;Node13 -->
<g id="edge44" class="edge">
<title>Node36&#45;&gt;Node13</title>
<path fill="none" stroke="midnightblue" d="M398.81,-330.47C409.02,-322.35 424.06,-308.88 433,-294 441.34,-280.11 446.25,-262.3 448.99,-249.08"/>
<polygon fill="midnightblue" stroke="midnightblue" points="452.5,-249.32 450.86,-238.85 445.61,-248.06 452.5,-249.32"/>
</g>
<!-- Node36&#45;&gt;Node21 -->
<g id="edge45" class="edge">
<title>Node36&#45;&gt;Node21</title>
<path fill="none" stroke="midnightblue" d="M375.09,-330.45C361.74,-322.12 340.64,-308.97 324.71,-299.04"/>
<polygon fill="midnightblue" stroke="midnightblue" points="326.37,-295.95 316.03,-293.63 322.66,-301.89 326.37,-295.95"/>
</g>
<!-- Node38 -->
<g id="node38" class="node">
<title>Node38</title>
<g id="a_node38"><a xlink:href="../../d9/d1c/_xml_8h.html" target="_top" xlink:title=" ">
<polygon fill="none" stroke="black" points="516.77,-495.5 516.77,-513.5 587.23,-513.5 587.23,-495.5 516.77,-495.5"/>
<text text-anchor="middle" x="552" y="-501.5" font-family="Helvetica,sans-Serif" font-size="10.00">tralics/Xml.h</text>
</a>
</g>
</g>
<!-- Node37&#45;&gt;Node38 -->
<g id="edge47" class="edge">
<title>Node37&#45;&gt;Node38</title>
<path fill="none" stroke="midnightblue" d="M586.59,-550.22C580.66,-542.55 571.68,-530.94 564.35,-521.47"/>
<polygon fill="midnightblue" stroke="midnightblue" points="567.11,-519.32 558.23,-513.55 561.58,-523.6 567.11,-519.32"/>
</g>
<!-- Node40 -->
<g id="node40" class="node">
<title>Node40</title>
<g id="a_node40"><a xlink:href="../../d4/da4/txatt_8h.html" target="_top" xlink:title=" ">
<polygon fill="none" stroke="black" points="478.38,-330.5 478.38,-348.5 521.62,-348.5 521.62,-330.5 478.38,-330.5"/>
<text text-anchor="middle" x="500" y="-336.5" font-family="Helvetica,sans-Serif" font-size="10.00">txatt.h</text>
</a>
</g>
</g>
<!-- Node37&#45;&gt;Node40 -->
<g id="edge50" class="edge">
<title>Node37&#45;&gt;Node40</title>
<path fill="none" stroke="midnightblue" d="M595.34,-550.35C600.59,-530.55 611.64,-478.74 596,-440 580.94,-402.7 544.45,-371.59 521.05,-354.56"/>
<polygon fill="midnightblue" stroke="midnightblue" points="522.98,-351.64 512.79,-348.73 518.95,-357.36 522.98,-351.64"/>
</g>
<!-- Node38&#45;&gt;Node3 -->
<g id="edge48" class="edge">
<title>Node38&#45;&gt;Node3</title>
<path fill="none" stroke="midnightblue" d="M541.82,-495.45C531.59,-487.36 515.6,-474.7 503.18,-464.88"/>
<polygon fill="midnightblue" stroke="midnightblue" points="505.29,-462.08 495.27,-458.63 500.94,-467.57 505.29,-462.08"/>
</g>
<!-- Node39 -->
<g id="node39" class="node">
<title>Node39</title>
<g id="a_node39"><a xlink:title=" ">
<polygon fill="none" stroke="#bfbfbf" points="542.83,-440.5 542.83,-458.5 587.17,-458.5 587.17,-440.5 542.83,-440.5"/>
<text text-anchor="middle" x="565" y="-446.5" font-family="Helvetica,sans-Serif" font-size="10.00">gsl/gsl</text>
</a>
</g>
</g>
<!-- Node38&#45;&gt;Node39 -->
<g id="edge49" class="edge">
<title>Node38&#45;&gt;Node39</title>
<path fill="none" stroke="midnightblue" d="M554.03,-495.22C555.78,-488.1 558.36,-477.58 560.58,-468.53"/>
<polygon fill="midnightblue" stroke="midnightblue" points="564.04,-469.1 563.03,-458.55 557.24,-467.43 564.04,-469.1"/>
</g>
<!-- Node40&#45;&gt;Node5 -->
<g id="edge51" class="edge">
<title>Node40&#45;&gt;Node5</title>
<path fill="none" stroke="midnightblue" d="M482.38,-330.45C463.39,-321.77 432.93,-307.86 410.93,-297.8"/>
<polygon fill="midnightblue" stroke="midnightblue" points="412.33,-294.6 401.78,-293.63 409.42,-300.96 412.33,-294.6"/>
</g>
<!-- Node40&#45;&gt;Node19 -->
<g id="edge52" class="edge">
<title>Node40&#45;&gt;Node19</title>
<path fill="none" stroke="midnightblue" d="M499.53,-330.26C498.22,-310.7 493.77,-260.1 481,-220 471.3,-189.53 453.57,-156.73 442.3,-137.43"/>
<polygon fill="midnightblue" stroke="midnightblue" points="445.2,-135.46 437.08,-128.66 439.19,-139.04 445.2,-135.46"/>
</g>
<!-- Node40&#45;&gt;Node24 -->
<g id="edge53" class="edge">
<title>Node40&#45;&gt;Node24</title>
<path fill="none" stroke="midnightblue" d="M508.44,-330.22C516.49,-322.32 528.81,-310.22 538.61,-300.61"/>
<polygon fill="midnightblue" stroke="midnightblue" points="541.11,-303.05 545.8,-293.55 536.21,-298.06 541.11,-303.05"/>
</g>
<!-- Node41&#45;&gt;Node10 -->
<g id="edge55" class="edge">
<title>Node41&#45;&gt;Node10</title>
<path fill="none" stroke="midnightblue" d="M199.47,-55.22C199.87,-48.18 200.45,-37.81 200.96,-28.83"/>
<polygon fill="midnightblue" stroke="midnightblue" points="204.47,-28.73 201.54,-18.55 197.48,-28.34 204.47,-28.73"/>
</g>
<!-- Node42&#45;&gt;Node14 -->
<g id="edge57" class="edge">
<title>Node42&#45;&gt;Node14</title>
<path fill="none" stroke="midnightblue" d="M58.2,-660.36C73.86,-630.27 130.76,-522.77 187,-440 193.64,-430.22 201.76,-419.82 208.51,-411.52"/>
<polygon fill="midnightblue" stroke="midnightblue" points="211.25,-413.7 214.93,-403.77 205.86,-409.24 211.25,-413.7"/>
</g>
<!-- Node43&#45;&gt;Node3 -->
<g id="edge61" class="edge">
<title>Node43&#45;&gt;Node3</title>
<path fill="none" stroke="midnightblue" d="M334.88,-495.45C365.12,-486.4 414.41,-471.64 448.2,-461.52"/>
<polygon fill="midnightblue" stroke="midnightblue" points="449.58,-464.76 458.16,-458.54 447.57,-458.05 449.58,-464.76"/>
</g>
<!-- Node44 -->
<g id="node44" class="node">
<title>Node44</title>
<g id="a_node44"><a xlink:href="../../d3/d01/txeqtb_8h.html" target="_top" xlink:title=" ">
<polygon fill="none" stroke="black" points="196.04,-440.5 196.04,-458.5 255.96,-458.5 255.96,-440.5 196.04,-440.5"/>
<text text-anchor="middle" x="226" y="-446.5" font-family="Helvetica,sans-Serif" font-size="10.00">../txeqtb.h</text>
</a>
</g>
</g>
<!-- Node43&#45;&gt;Node44 -->
<g id="edge59" class="edge">
<title>Node43&#45;&gt;Node44</title>
<path fill="none" stroke="midnightblue" d="M295.55,-495.45C282.78,-487.2 262.69,-474.22 247.38,-464.32"/>
<polygon fill="midnightblue" stroke="midnightblue" points="248.87,-461.11 238.57,-458.63 245.07,-466.99 248.87,-461.11"/>
</g>
<!-- Node45 -->
<g id="node45" class="node">
<title>Node45</title>
<g id="a_node45"><a xlink:title=" ">
<polygon fill="none" stroke="#bfbfbf" points="273.7,-440.5 273.7,-458.5 360.3,-458.5 360.3,-440.5 273.7,-440.5"/>
<text text-anchor="middle" x="317" y="-446.5" font-family="Helvetica,sans-Serif" font-size="10.00">unordered_map</text>
</a>
</g>
</g>
<!-- Node43&#45;&gt;Node45 -->
<g id="edge62" class="edge">
<title>Node43&#45;&gt;Node45</title>
<path fill="none" stroke="midnightblue" d="M309.41,-495.22C310.62,-488.1 312.4,-477.58 313.94,-468.53"/>
<polygon fill="midnightblue" stroke="midnightblue" points="317.41,-468.99 315.63,-458.55 310.51,-467.82 317.41,-468.99"/>
</g>
<!-- Node44&#45;&gt;Node14 -->
<g id="edge60" class="edge">
<title>Node44&#45;&gt;Node14</title>
<path fill="none" stroke="midnightblue" d="M225.38,-440.22C224.84,-433.1 224.04,-422.58 223.36,-413.53"/>
<polygon fill="midnightblue" stroke="midnightblue" points="226.85,-413.26 222.61,-403.55 219.87,-413.78 226.85,-413.26"/>
</g>
<!-- Node46&#45;&gt;Node5 -->
<g id="edge64" class="edge">
<title>Node46&#45;&gt;Node5</title>
<path fill="none" stroke="midnightblue" d="M315.3,-330.45C327.91,-322.2 347.76,-309.22 362.88,-299.32"/>
<polygon fill="midnightblue" stroke="midnightblue" points="365.13,-302.03 371.58,-293.63 361.3,-296.17 365.13,-302.03"/>
</g>
<!-- Node46&#45;&gt;Node21 -->
<g id="edge65" class="edge">
<title>Node46&#45;&gt;Node21</title>
<path fill="none" stroke="midnightblue" d="M303,-330.22C303,-323.18 303,-312.81 303,-303.83"/>
<polygon fill="midnightblue" stroke="midnightblue" points="306.5,-303.55 303,-293.55 299.5,-303.55 306.5,-303.55"/>
</g>
<!-- Node47&#45;&gt;Node6 -->
<g id="edge67" class="edge">
<title>Node47&#45;&gt;Node6</title>
<path fill="none" stroke="midnightblue" d="M684.07,-330.19C662.6,-304.47 596.96,-225.79 568.45,-191.62"/>
<polygon fill="midnightblue" stroke="midnightblue" points="570.85,-189.03 561.76,-183.6 565.47,-193.52 570.85,-189.03"/>
</g>
<!-- Node47&#45;&gt;Node13 -->
<g id="edge68" class="edge">
<title>Node47&#45;&gt;Node13</title>
<path fill="none" stroke="midnightblue" d="M679.38,-330.38C660.35,-317.36 621.05,-291.59 585,-275 550.87,-259.29 509.57,-246.36 482.14,-238.55"/>
<polygon fill="midnightblue" stroke="midnightblue" points="482.92,-235.14 472.35,-235.82 481.04,-241.88 482.92,-235.14"/>
</g>
<!-- Node47&#45;&gt;Node24 -->
<g id="edge69" class="edge">
<title>Node47&#45;&gt;Node24</title>
<path fill="none" stroke="midnightblue" d="M670.19,-330.45C647.36,-321.62 610.49,-307.35 584.42,-297.27"/>
<polygon fill="midnightblue" stroke="midnightblue" points="585.59,-293.97 575,-293.63 583.07,-300.5 585.59,-293.97"/>
</g>
</g>
</svg>
