<?xml version="1.0" encoding="UTF-8" standalone="no"?>
<!DOCTYPE svg PUBLIC "-//W3C//DTD SVG 1.1//EN"
 "http://www.w3.org/Graphics/SVG/1.1/DTD/svg11.dtd">
<!-- Generated by graphviz version 2.43.0 (0)
 -->
<!-- Title: txstack.h Pages: 1 -->
<svg width="2353pt" height="137pt"
 viewBox="0.00 0.00 2352.92 137.00" xmlns="http://www.w3.org/2000/svg" xmlns:xlink="http://www.w3.org/1999/xlink">
<g id="graph0" class="graph" transform="scale(1 1) rotate(0) translate(4 133)">
<title>txstack.h</title>
<polygon fill="white" stroke="transparent" points="-4,4 -4,-133 2348.92,-133 2348.92,4 -4,4"/>
<!-- Node1 -->
<g id="node1" class="node">
<title>Node1</title>
<g id="a_node1"><a xlink:title=" ">
<polygon fill="#bfbfbf" stroke="black" points="1087.18,-110.5 1087.18,-128.5 1142.64,-128.5 1142.64,-110.5 1087.18,-110.5"/>
<text text-anchor="middle" x="1114.91" y="-116.5" font-family="Helvetica,sans-Serif" font-size="10.00">txstack.h</text>
</a>
</g>
</g>
<!-- Node2 -->
<g id="node2" class="node">
<title>Node2</title>
<g id="a_node2"><a xlink:href="../../d2/d1b/txparser_8h.html" target="_top" xlink:title=" ">
<polygon fill="white" stroke="black" points="1084.95,-55.5 1084.95,-73.5 1144.87,-73.5 1144.87,-55.5 1084.95,-55.5"/>
<text text-anchor="middle" x="1114.91" y="-61.5" font-family="Helvetica,sans-Serif" font-size="10.00">txparser.h</text>
</a>
</g>
</g>
<!-- Node1&#45;&gt;Node2 -->
<g id="edge1" class="edge">
<title>Node1&#45;&gt;Node2</title>
<path fill="none" stroke="midnightblue" d="M1114.91,-100.17C1114.91,-91.09 1114.91,-80.59 1114.91,-73.55"/>
<polygon fill="midnightblue" stroke="midnightblue" points="1111.41,-100.22 1114.91,-110.22 1118.41,-100.22 1111.41,-100.22"/>
</g>
<!-- Node34 -->
<g id="node34" class="node">
<title>Node34</title>
<g id="a_node34"><a xlink:href="../../d8/d6d/txarray_8h.html" target="_top" xlink:title=" ">
<polygon fill="white" stroke="black" points="521.83,-55.5 521.83,-73.5 575.99,-73.5 575.99,-55.5 521.83,-55.5"/>
<text text-anchor="middle" x="548.91" y="-61.5" font-family="Helvetica,sans-Serif" font-size="10.00">txarray.h</text>
</a>
</g>
</g>
<!-- Node1&#45;&gt;Node34 -->
<g id="edge33" class="edge">
<title>Node1&#45;&gt;Node34</title>
<path fill="none" stroke="midnightblue" d="M1076.82,-114.93C969.85,-104.92 668.49,-76.7 576.15,-68.05"/>
<polygon fill="midnightblue" stroke="midnightblue" points="1076.56,-118.42 1086.84,-115.87 1077.21,-111.45 1076.56,-118.42"/>
</g>
<!-- Node35 -->
<g id="node35" class="node">
<title>Node35</title>
<g id="a_node35"><a xlink:href="../../db/df0/txatt_8_c.html" target="_top" xlink:title=" ">
<polygon fill="white" stroke="black" points="1162.46,-55.5 1162.46,-73.5 1207.36,-73.5 1207.36,-55.5 1162.46,-55.5"/>
<text text-anchor="middle" x="1184.91" y="-61.5" font-family="Helvetica,sans-Serif" font-size="10.00">txatt.C</text>
</a>
</g>
</g>
<!-- Node1&#45;&gt;Node35 -->
<g id="edge35" class="edge">
<title>Node1&#45;&gt;Node35</title>
<path fill="none" stroke="midnightblue" d="M1133.79,-104.21C1146.74,-94.41 1163.45,-81.75 1174.18,-73.63"/>
<polygon fill="midnightblue" stroke="midnightblue" points="1131.4,-101.62 1125.54,-110.45 1135.63,-107.2 1131.4,-101.62"/>
</g>
<!-- Node3 -->
<g id="node3" class="node">
<title>Node3</title>
<g id="a_node3"><a xlink:href="../../d2/dbb/globals_8_c.html" target="_top" xlink:title=" ">
<polygon fill="white" stroke="black" points="74.07,-0.5 74.07,-18.5 131.76,-18.5 131.76,-0.5 74.07,-0.5"/>
<text text-anchor="middle" x="102.91" y="-6.5" font-family="Helvetica,sans-Serif" font-size="10.00">globals.C</text>
</a>
</g>
</g>
<!-- Node2&#45;&gt;Node3 -->
<g id="edge2" class="edge">
<title>Node2&#45;&gt;Node3</title>
<path fill="none" stroke="midnightblue" d="M1074.45,-62.59C914.47,-58.86 325.84,-43.71 140.91,-19 137.96,-18.61 134.91,-18.1 131.86,-17.52"/>
<polygon fill="midnightblue" stroke="midnightblue" points="1074.71,-66.1 1084.79,-62.83 1074.87,-59.1 1074.71,-66.1"/>
</g>
<!-- Node4 -->
<g id="node4" class="node">
<title>Node4</title>
<g id="a_node4"><a xlink:href="../../de/dae/_main_class_8_c.html" target="_top" xlink:title=" ">
<polygon fill="white" stroke="black" points="149.57,-0.5 149.57,-18.5 222.25,-18.5 222.25,-0.5 149.57,-0.5"/>
<text text-anchor="middle" x="185.91" y="-6.5" font-family="Helvetica,sans-Serif" font-size="10.00">MainClass.C</text>
</a>
</g>
</g>
<!-- Node2&#45;&gt;Node4 -->
<g id="edge3" class="edge">
<title>Node2&#45;&gt;Node4</title>
<path fill="none" stroke="midnightblue" d="M1074.34,-63.42C948.61,-62.76 554.51,-57.52 230.91,-19 228.23,-18.68 225.46,-18.3 222.69,-17.87"/>
<polygon fill="midnightblue" stroke="midnightblue" points="1074.62,-66.92 1084.64,-63.47 1074.65,-59.92 1074.62,-66.92"/>
</g>
<!-- Node5 -->
<g id="node5" class="node">
<title>Node5</title>
<g id="a_node5"><a xlink:href="../../dc/d29/tralics_8_c.html" target="_top" xlink:title=" ">
<polygon fill="white" stroke="black" points="239.86,-0.5 239.86,-18.5 291.97,-18.5 291.97,-0.5 239.86,-0.5"/>
<text text-anchor="middle" x="265.91" y="-6.5" font-family="Helvetica,sans-Serif" font-size="10.00">tralics.C</text>
</a>
</g>
</g>
<!-- Node2&#45;&gt;Node5 -->
<g id="edge4" class="edge">
<title>Node2&#45;&gt;Node5</title>
<path fill="none" stroke="midnightblue" d="M1074.67,-63.9C955.7,-64.54 595.51,-62.45 300.91,-19 298.07,-18.58 295.11,-18.04 292.18,-17.43"/>
<polygon fill="midnightblue" stroke="midnightblue" points="1074.8,-67.4 1084.78,-63.84 1074.76,-60.4 1074.8,-67.4"/>
</g>
<!-- Node6 -->
<g id="node6" class="node">
<title>Node6</title>
<g id="a_node6"><a xlink:href="../../d5/d10/txaccent_8_c.html" target="_top" xlink:title=" ">
<polygon fill="white" stroke="black" points="310.29,-0.5 310.29,-18.5 373.53,-18.5 373.53,-0.5 310.29,-0.5"/>
<text text-anchor="middle" x="341.91" y="-6.5" font-family="Helvetica,sans-Serif" font-size="10.00">txaccent.C</text>
</a>
</g>
</g>
<!-- Node2&#45;&gt;Node6 -->
<g id="edge5" class="edge">
<title>Node2&#45;&gt;Node6</title>
<path fill="none" stroke="midnightblue" d="M1074.72,-63.08C963.96,-61.49 645.15,-53.97 382.91,-19 379.89,-18.6 376.75,-18.1 373.62,-17.54"/>
<polygon fill="midnightblue" stroke="midnightblue" points="1074.73,-66.58 1084.78,-63.22 1074.83,-59.58 1074.73,-66.58"/>
</g>
<!-- Node7 -->
<g id="node7" class="node">
<title>Node7</title>
<g id="a_node7"><a xlink:href="../../df/de6/txarray_8_c.html" target="_top" xlink:title=" ">
<polygon fill="white" stroke="black" points="0,-0.5 0,-18.5 55.82,-18.5 55.82,-0.5 0,-0.5"/>
<text text-anchor="middle" x="27.91" y="-6.5" font-family="Helvetica,sans-Serif" font-size="10.00">txarray.C</text>
</a>
</g>
</g>
<!-- Node2&#45;&gt;Node7 -->
<g id="edge6" class="edge">
<title>Node2&#45;&gt;Node7</title>
<path fill="none" stroke="midnightblue" d="M1074.86,-62.79C907.78,-59.65 265.61,-46.07 64.91,-19 62.04,-18.61 59.06,-18.11 56.1,-17.54"/>
<polygon fill="midnightblue" stroke="midnightblue" points="1074.89,-66.29 1084.95,-62.97 1075.02,-59.29 1074.89,-66.29"/>
</g>
<!-- Node8 -->
<g id="node8" class="node">
<title>Node8</title>
<g id="a_node8"><a xlink:href="../../dd/dce/txaux_8_c.html" target="_top" xlink:title=" ">
<polygon fill="white" stroke="black" points="391.96,-0.5 391.96,-18.5 441.86,-18.5 441.86,-0.5 391.96,-0.5"/>
<text text-anchor="middle" x="416.91" y="-6.5" font-family="Helvetica,sans-Serif" font-size="10.00">txaux.C</text>
</a>
</g>
</g>
<!-- Node2&#45;&gt;Node8 -->
<g id="edge7" class="edge">
<title>Node2&#45;&gt;Node8</title>
<path fill="none" stroke="midnightblue" d="M1074.89,-63.29C971.16,-62.22 685.39,-55.87 450.91,-19 448.03,-18.55 445.03,-17.96 442.06,-17.32"/>
<polygon fill="midnightblue" stroke="midnightblue" points="1074.89,-66.79 1084.92,-63.39 1074.95,-59.79 1074.89,-66.79"/>
</g>
<!-- Node9 -->
<g id="node9" class="node">
<title>Node9</title>
<g id="a_node9"><a xlink:href="../../d1/d56/txbib_8_c.html" target="_top" xlink:title=" ">
<polygon fill="white" stroke="black" points="460.35,-0.5 460.35,-18.5 507.47,-18.5 507.47,-0.5 460.35,-0.5"/>
<text text-anchor="middle" x="483.91" y="-6.5" font-family="Helvetica,sans-Serif" font-size="10.00">txbib.C</text>
</a>
</g>
</g>
<!-- Node2&#45;&gt;Node9 -->
<g id="edge8" class="edge">
<title>Node2&#45;&gt;Node9</title>
<path fill="none" stroke="midnightblue" d="M1074.61,-62.97C977.81,-61.15 724.84,-53.24 516.91,-19 513.88,-18.5 510.71,-17.85 507.6,-17.14"/>
<polygon fill="midnightblue" stroke="midnightblue" points="1074.76,-66.47 1084.82,-63.15 1074.89,-59.47 1074.76,-66.47"/>
</g>
<!-- Node10 -->
<g id="node10" class="node">
<title>Node10</title>
<g id="a_node10"><a xlink:href="../../d4/df2/txbuffer_8_c.html" target="_top" xlink:title=" ">
<polygon fill="white" stroke="black" points="525.6,-0.5 525.6,-18.5 584.23,-18.5 584.23,-0.5 525.6,-0.5"/>
<text text-anchor="middle" x="554.91" y="-6.5" font-family="Helvetica,sans-Serif" font-size="10.00">txbuffer.C</text>
</a>
</g>
</g>
<!-- Node2&#45;&gt;Node10 -->
<g id="edge9" class="edge">
<title>Node2&#45;&gt;Node10</title>
<path fill="none" stroke="midnightblue" d="M1074.66,-61.92C986.77,-58.07 771.3,-46.43 592.91,-19 590.11,-18.57 587.2,-18.05 584.3,-17.48"/>
<polygon fill="midnightblue" stroke="midnightblue" points="1074.59,-65.42 1084.73,-62.35 1074.89,-58.43 1074.59,-65.42"/>
</g>
<!-- Node11 -->
<g id="node11" class="node">
<title>Node11</title>
<g id="a_node11"><a xlink:href="../../de/ddd/txclasses_8_c.html" target="_top" xlink:title=" ">
<polygon fill="white" stroke="black" points="602.35,-0.5 602.35,-18.5 669.47,-18.5 669.47,-0.5 602.35,-0.5"/>
<text text-anchor="middle" x="635.91" y="-6.5" font-family="Helvetica,sans-Serif" font-size="10.00">txclasses.C</text>
</a>
</g>
</g>
<!-- Node2&#45;&gt;Node11 -->
<g id="edge10" class="edge">
<title>Node2&#45;&gt;Node11</title>
<path fill="none" stroke="midnightblue" d="M1074.71,-60.66C997.64,-54.94 823.91,-40.68 678.91,-19 675.9,-18.55 672.78,-18.03 669.66,-17.48"/>
<polygon fill="midnightblue" stroke="midnightblue" points="1074.7,-64.17 1084.92,-61.41 1075.21,-57.19 1074.7,-64.17"/>
</g>
<!-- Node12 -->
<g id="node12" class="node">
<title>Node12</title>
<g id="a_node12"><a xlink:href="../../d4/d1e/txcommands_8_c.html" target="_top" xlink:title=" ">
<polygon fill="white" stroke="black" points="687.57,-0.5 687.57,-18.5 770.25,-18.5 770.25,-0.5 687.57,-0.5"/>
<text text-anchor="middle" x="728.91" y="-6.5" font-family="Helvetica,sans-Serif" font-size="10.00">txcommands.C</text>
</a>
</g>
</g>
<!-- Node2&#45;&gt;Node12 -->
<g id="edge11" class="edge">
<title>Node2&#45;&gt;Node12</title>
<path fill="none" stroke="midnightblue" d="M1074.54,-58.58C1011.54,-50.79 886.05,-34.89 779.91,-19 776.81,-18.53 773.59,-18.04 770.37,-17.53"/>
<polygon fill="midnightblue" stroke="midnightblue" points="1074.48,-62.09 1084.84,-59.84 1075.34,-55.15 1074.48,-62.09"/>
</g>
<!-- Node13 -->
<g id="node13" class="node">
<title>Node13</title>
<g id="a_node13"><a xlink:href="../../d9/d64/txconfig_8_c.html" target="_top" xlink:title=" ">
<polygon fill="white" stroke="black" points="788.68,-0.5 788.68,-18.5 849.14,-18.5 849.14,-0.5 788.68,-0.5"/>
<text text-anchor="middle" x="818.91" y="-6.5" font-family="Helvetica,sans-Serif" font-size="10.00">txconfig.C</text>
</a>
</g>
</g>
<!-- Node2&#45;&gt;Node13 -->
<g id="edge12" class="edge">
<title>Node2&#45;&gt;Node13</title>
<path fill="none" stroke="midnightblue" d="M1074.87,-57.12C1024.24,-48.92 934.41,-33.95 857.91,-19 855.19,-18.47 852.37,-17.9 849.54,-17.31"/>
<polygon fill="midnightblue" stroke="midnightblue" points="1074.33,-60.57 1084.76,-58.71 1075.45,-53.66 1074.33,-60.57"/>
</g>
<!-- Node14 -->
<g id="node14" class="node">
<title>Node14</title>
<g id="a_node14"><a xlink:href="../../d1/d79/txerr_8_c.html" target="_top" xlink:title=" ">
<polygon fill="white" stroke="black" points="867.19,-0.5 867.19,-18.5 912.64,-18.5 912.64,-0.5 867.19,-0.5"/>
<text text-anchor="middle" x="889.91" y="-6.5" font-family="Helvetica,sans-Serif" font-size="10.00">txerr.C</text>
</a>
</g>
</g>
<!-- Node2&#45;&gt;Node14 -->
<g id="edge13" class="edge">
<title>Node2&#45;&gt;Node14</title>
<path fill="none" stroke="midnightblue" d="M1074.93,-54.84C1035.62,-46.21 973.98,-32.35 920.91,-19 918.31,-18.35 915.6,-17.64 912.91,-16.92"/>
<polygon fill="midnightblue" stroke="midnightblue" points="1074.39,-58.31 1084.91,-57.03 1075.89,-51.47 1074.39,-58.31"/>
</g>
<!-- Node15 -->
<g id="node15" class="node">
<title>Node15</title>
<g id="a_node15"><a xlink:href="../../d7/d0d/txfonts_8_c.html" target="_top" xlink:title=" ">
<polygon fill="white" stroke="black" points="930.18,-0.5 930.18,-18.5 985.64,-18.5 985.64,-0.5 930.18,-0.5"/>
<text text-anchor="middle" x="957.91" y="-6.5" font-family="Helvetica,sans-Serif" font-size="10.00">txfonts.C</text>
</a>
</g>
</g>
<!-- Node2&#45;&gt;Node15 -->
<g id="edge14" class="edge">
<title>Node2&#45;&gt;Node15</title>
<path fill="none" stroke="midnightblue" d="M1081.46,-52.21C1051.49,-42.09 1008.3,-27.51 981.72,-18.54"/>
<polygon fill="midnightblue" stroke="midnightblue" points="1080.47,-55.57 1091.07,-55.45 1082.71,-48.94 1080.47,-55.57"/>
</g>
<!-- Node16 -->
<g id="node16" class="node">
<title>Node16</title>
<g id="a_node16"><a xlink:href="../../d1/dcd/txfp_8_c.html" target="_top" xlink:title=" ">
<polygon fill="white" stroke="black" points="1003.85,-0.5 1003.85,-18.5 1045.97,-18.5 1045.97,-0.5 1003.85,-0.5"/>
<text text-anchor="middle" x="1024.91" y="-6.5" font-family="Helvetica,sans-Serif" font-size="10.00">txfp.C</text>
</a>
</g>
</g>
<!-- Node2&#45;&gt;Node16 -->
<g id="edge15" class="edge">
<title>Node2&#45;&gt;Node16</title>
<path fill="none" stroke="midnightblue" d="M1092.54,-50.33C1075.66,-40.39 1053.03,-27.06 1038.71,-18.63"/>
<polygon fill="midnightblue" stroke="midnightblue" points="1090.85,-53.39 1101.24,-55.45 1094.4,-47.36 1090.85,-53.39"/>
</g>
<!-- Node17 -->
<g id="node17" class="node">
<title>Node17</title>
<g id="a_node17"><a xlink:href="../../d8/dc2/txio_8_c.html" target="_top" xlink:title=" ">
<polygon fill="white" stroke="black" points="1064.13,-0.5 1064.13,-18.5 1105.69,-18.5 1105.69,-0.5 1064.13,-0.5"/>
<text text-anchor="middle" x="1084.91" y="-6.5" font-family="Helvetica,sans-Serif" font-size="10.00">txio.C</text>
</a>
</g>
</g>
<!-- Node2&#45;&gt;Node17 -->
<g id="edge16" class="edge">
<title>Node2&#45;&gt;Node17</title>
<path fill="none" stroke="midnightblue" d="M1105.21,-46.36C1099.93,-37.02 1093.63,-25.9 1089.47,-18.55"/>
<polygon fill="midnightblue" stroke="midnightblue" points="1102.25,-48.24 1110.22,-55.22 1108.34,-44.79 1102.25,-48.24"/>
</g>
<!-- Node18 -->
<g id="node18" class="node">
<title>Node18</title>
<g id="a_node18"><a xlink:href="../../dc/dcd/txl3_8_c.html" target="_top" xlink:title=" ">
<polygon fill="white" stroke="black" points="1124.13,-0.5 1124.13,-18.5 1165.69,-18.5 1165.69,-0.5 1124.13,-0.5"/>
<text text-anchor="middle" x="1144.91" y="-6.5" font-family="Helvetica,sans-Serif" font-size="10.00">txl3.C</text>
</a>
</g>
</g>
<!-- Node2&#45;&gt;Node18 -->
<g id="edge17" class="edge">
<title>Node2&#45;&gt;Node18</title>
<path fill="none" stroke="midnightblue" d="M1124.61,-46.36C1129.9,-37.02 1136.19,-25.9 1140.36,-18.55"/>
<polygon fill="midnightblue" stroke="midnightblue" points="1121.48,-44.79 1119.6,-55.22 1127.57,-48.24 1121.48,-44.79"/>
</g>
<!-- Node19 -->
<g id="node19" class="node">
<title>Node19</title>
<g id="a_node19"><a xlink:href="../../db/d96/txmath_8_c.html" target="_top" xlink:title=" ">
<polygon fill="white" stroke="black" points="1183.91,-0.5 1183.91,-18.5 1239.92,-18.5 1239.92,-0.5 1183.91,-0.5"/>
<text text-anchor="middle" x="1211.91" y="-6.5" font-family="Helvetica,sans-Serif" font-size="10.00">txmath.C</text>
</a>
</g>
</g>
<!-- Node2&#45;&gt;Node19 -->
<g id="edge18" class="edge">
<title>Node2&#45;&gt;Node19</title>
<path fill="none" stroke="midnightblue" d="M1138.52,-50.6C1156.76,-40.63 1181.46,-27.14 1197.04,-18.63"/>
<polygon fill="midnightblue" stroke="midnightblue" points="1136.74,-47.58 1129.64,-55.45 1140.1,-53.73 1136.74,-47.58"/>
</g>
<!-- Node20 -->
<g id="node20" class="node">
<title>Node20</title>
<g id="a_node20"><a xlink:href="../../d8/dc6/txmath1_8_c.html" target="_top" xlink:title=" ">
<polygon fill="white" stroke="black" points="1258.13,-0.5 1258.13,-18.5 1319.7,-18.5 1319.7,-0.5 1258.13,-0.5"/>
<text text-anchor="middle" x="1288.91" y="-6.5" font-family="Helvetica,sans-Serif" font-size="10.00">txmath1.C</text>
</a>
</g>
</g>
<!-- Node2&#45;&gt;Node20 -->
<g id="edge19" class="edge">
<title>Node2&#45;&gt;Node20</title>
<path fill="none" stroke="midnightblue" d="M1151.13,-52.47C1184.36,-42.35 1232.81,-27.59 1262.52,-18.54"/>
<polygon fill="midnightblue" stroke="midnightblue" points="1149.89,-49.19 1141.34,-55.45 1151.92,-55.88 1149.89,-49.19"/>
</g>
<!-- Node21 -->
<g id="node21" class="node">
<title>Node21</title>
<g id="a_node21"><a xlink:href="../../d7/dd3/txmathboot_8_c.html" target="_top" xlink:title=" ">
<polygon fill="white" stroke="black" points="1338.18,-0.5 1338.18,-18.5 1413.65,-18.5 1413.65,-0.5 1338.18,-0.5"/>
<text text-anchor="middle" x="1375.91" y="-6.5" font-family="Helvetica,sans-Serif" font-size="10.00">txmathboot.C</text>
</a>
</g>
</g>
<!-- Node2&#45;&gt;Node21 -->
<g id="edge20" class="edge">
<title>Node2&#45;&gt;Node21</title>
<path fill="none" stroke="midnightblue" d="M1155.04,-54.79C1225.26,-40.15 1295.94,-26.15 1338.16,-17.87"/>
<polygon fill="midnightblue" stroke="midnightblue" points="1154.21,-51.39 1145.14,-56.86 1155.64,-58.24 1154.21,-51.39"/>
</g>
<!-- Node22 -->
<g id="node22" class="node">
<title>Node22</title>
<g id="a_node22"><a xlink:href="../../dd/d48/txmlio_8_c.html" target="_top" xlink:title=" ">
<polygon fill="white" stroke="black" points="1431.86,-0.5 1431.86,-18.5 1483.97,-18.5 1483.97,-0.5 1431.86,-0.5"/>
<text text-anchor="middle" x="1457.91" y="-6.5" font-family="Helvetica,sans-Serif" font-size="10.00">txmlio.C</text>
</a>
</g>
</g>
<!-- Node2&#45;&gt;Node22 -->
<g id="edge21" class="edge">
<title>Node2&#45;&gt;Node22</title>
<path fill="none" stroke="midnightblue" d="M1155,-54.95C1274.45,-34.49 1307.49,-40.68 1422.91,-19 1425.74,-18.47 1428.68,-17.85 1431.6,-17.2"/>
<polygon fill="midnightblue" stroke="midnightblue" points="1154.35,-51.5 1145.1,-56.67 1155.55,-58.4 1154.35,-51.5"/>
</g>
<!-- Node23 -->
<g id="node23" class="node">
<title>Node23</title>
<g id="a_node23"><a xlink:href="../../d7/dc3/txparser_8_c.html" target="_top" xlink:title=" ">
<polygon fill="white" stroke="black" points="1502.12,-0.5 1502.12,-18.5 1563.7,-18.5 1563.7,-0.5 1502.12,-0.5"/>
<text text-anchor="middle" x="1532.91" y="-6.5" font-family="Helvetica,sans-Serif" font-size="10.00">txparser.C</text>
</a>
</g>
</g>
<!-- Node2&#45;&gt;Node23 -->
<g id="edge22" class="edge">
<title>Node2&#45;&gt;Node23</title>
<path fill="none" stroke="midnightblue" d="M1155.13,-54.98C1305.25,-31.33 1346.49,-42.27 1492.91,-19 1495.86,-18.53 1498.91,-17.99 1501.96,-17.41"/>
<polygon fill="midnightblue" stroke="midnightblue" points="1154.4,-51.55 1145.08,-56.58 1155.51,-58.46 1154.4,-51.55"/>
</g>
<!-- Node24 -->
<g id="node24" class="node">
<title>Node24</title>
<g id="a_node24"><a xlink:href="../../d5/d2e/txparser2_8_c.html" target="_top" xlink:title=" ">
<polygon fill="white" stroke="black" points="1582.07,-0.5 1582.07,-18.5 1649.75,-18.5 1649.75,-0.5 1582.07,-0.5"/>
<text text-anchor="middle" x="1615.91" y="-6.5" font-family="Helvetica,sans-Serif" font-size="10.00">txparser2.C</text>
</a>
</g>
</g>
<!-- Node2&#45;&gt;Node24 -->
<g id="edge23" class="edge">
<title>Node2&#45;&gt;Node24</title>
<path fill="none" stroke="midnightblue" d="M1155.15,-55.01C1340.49,-27.66 1391.1,-44.7 1572.91,-19 1575.78,-18.6 1578.74,-18.12 1581.7,-17.61"/>
<polygon fill="midnightblue" stroke="midnightblue" points="1154.44,-51.58 1145.07,-56.52 1155.48,-58.5 1154.44,-51.58"/>
</g>
<!-- Node25 -->
<g id="node25" class="node">
<title>Node25</title>
<g id="a_node25"><a xlink:href="../../d4/d5c/txparser3_8_c.html" target="_top" xlink:title=" ">
<polygon fill="white" stroke="black" points="1668.07,-0.5 1668.07,-18.5 1735.75,-18.5 1735.75,-0.5 1668.07,-0.5"/>
<text text-anchor="middle" x="1701.91" y="-6.5" font-family="Helvetica,sans-Serif" font-size="10.00">txparser3.C</text>
</a>
</g>
</g>
<!-- Node2&#45;&gt;Node25 -->
<g id="edge24" class="edge">
<title>Node2&#45;&gt;Node25</title>
<path fill="none" stroke="midnightblue" d="M1155.13,-55.04C1378.4,-23.71 1439.16,-48.44 1658.91,-19 1661.78,-18.62 1664.74,-18.16 1667.71,-17.66"/>
<polygon fill="midnightblue" stroke="midnightblue" points="1154.47,-51.6 1145.07,-56.48 1155.46,-58.53 1154.47,-51.6"/>
</g>
<!-- Node26 -->
<g id="node26" class="node">
<title>Node26</title>
<g id="a_node26"><a xlink:href="../../db/d66/txpost_8_c.html" target="_top" xlink:title=" ">
<polygon fill="white" stroke="black" points="1753.57,-0.5 1753.57,-18.5 1806.25,-18.5 1806.25,-0.5 1753.57,-0.5"/>
<text text-anchor="middle" x="1779.91" y="-6.5" font-family="Helvetica,sans-Serif" font-size="10.00">txpost.C</text>
</a>
</g>
</g>
<!-- Node2&#45;&gt;Node26 -->
<g id="edge25" class="edge">
<title>Node2&#45;&gt;Node26</title>
<path fill="none" stroke="midnightblue" d="M1155.23,-55.05C1416.39,-19.86 1488,-57.71 1744.91,-19 1747.63,-18.59 1750.45,-18.07 1753.26,-17.49"/>
<polygon fill="midnightblue" stroke="midnightblue" points="1154.5,-51.62 1145.06,-56.45 1155.45,-58.56 1154.5,-51.62"/>
</g>
<!-- Node27 -->
<g id="node27" class="node">
<title>Node27</title>
<g id="a_node27"><a xlink:href="../../dc/d4c/txra_8_c.html" target="_top" xlink:title=" ">
<polygon fill="white" stroke="black" points="1824.58,-0.5 1824.58,-18.5 1867.25,-18.5 1867.25,-0.5 1824.58,-0.5"/>
<text text-anchor="middle" x="1845.91" y="-6.5" font-family="Helvetica,sans-Serif" font-size="10.00">txra.C</text>
</a>
</g>
</g>
<!-- Node2&#45;&gt;Node27 -->
<g id="edge26" class="edge">
<title>Node2&#45;&gt;Node27</title>
<path fill="none" stroke="midnightblue" d="M1155.1,-55.09C1447.27,-16.67 1527.77,-65.64 1814.91,-19 1818,-18.5 1821.22,-17.81 1824.36,-17.04"/>
<polygon fill="midnightblue" stroke="midnightblue" points="1154.51,-51.63 1145.06,-56.43 1155.44,-58.57 1154.51,-51.63"/>
</g>
<!-- Node28 -->
<g id="node28" class="node">
<title>Node28</title>
<g id="a_node28"><a xlink:href="../../d2/dee/txscan_8_c.html" target="_top" xlink:title=" ">
<polygon fill="white" stroke="black" points="1885.46,-0.5 1885.46,-18.5 1940.36,-18.5 1940.36,-0.5 1885.46,-0.5"/>
<text text-anchor="middle" x="1912.91" y="-6.5" font-family="Helvetica,sans-Serif" font-size="10.00">txscan.C</text>
</a>
</g>
</g>
<!-- Node2&#45;&gt;Node28 -->
<g id="edge27" class="edge">
<title>Node2&#45;&gt;Node28</title>
<path fill="none" stroke="midnightblue" d="M1155.05,-55.1C1474.17,-13.67 1560.93,-62.69 1875.91,-19 1878.92,-18.58 1882.03,-18.04 1885.13,-17.43"/>
<polygon fill="midnightblue" stroke="midnightblue" points="1154.52,-51.64 1145.06,-56.42 1155.43,-58.58 1154.52,-51.64"/>
</g>
<!-- Node29 -->
<g id="node29" class="node">
<title>Node29</title>
<g id="a_node29"><a xlink:href="../../d3/df2/txstack_8_c.html" target="_top" xlink:title=" ">
<polygon fill="white" stroke="black" points="1958.35,-0.5 1958.35,-18.5 2015.47,-18.5 2015.47,-0.5 1958.35,-0.5"/>
<text text-anchor="middle" x="1986.91" y="-6.5" font-family="Helvetica,sans-Serif" font-size="10.00">txstack.C</text>
</a>
</g>
</g>
<!-- Node2&#45;&gt;Node29 -->
<g id="edge28" class="edge">
<title>Node2&#45;&gt;Node29</title>
<path fill="none" stroke="midnightblue" d="M1155,-55.11C1506.39,-10.22 1601.58,-65.35 1948.91,-19 1951.86,-18.61 1954.92,-18.1 1957.96,-17.52"/>
<polygon fill="midnightblue" stroke="midnightblue" points="1154.52,-51.65 1145.06,-56.4 1155.42,-58.59 1154.52,-51.65"/>
</g>
<!-- Node30 -->
<g id="node30" class="node">
<title>Node30</title>
<g id="a_node30"><a xlink:href="../../da/d89/txtitlepage_8_c.html" target="_top" xlink:title=" ">
<polygon fill="white" stroke="black" points="2033.12,-0.5 2033.12,-18.5 2104.71,-18.5 2104.71,-0.5 2033.12,-0.5"/>
<text text-anchor="middle" x="2068.91" y="-6.5" font-family="Helvetica,sans-Serif" font-size="10.00">txtitlepage.C</text>
</a>
</g>
</g>
<!-- Node2&#45;&gt;Node30 -->
<g id="edge29" class="edge">
<title>Node2&#45;&gt;Node30</title>
<path fill="none" stroke="midnightblue" d="M1155.07,-55.11C1539.95,-6.55 1643.37,-63.49 2024.91,-19 2027.54,-18.69 2030.25,-18.32 2032.96,-17.9"/>
<polygon fill="midnightblue" stroke="midnightblue" points="1154.53,-51.65 1145.06,-56.39 1155.42,-58.59 1154.53,-51.65"/>
</g>
<!-- Node31 -->
<g id="node31" class="node">
<title>Node31</title>
<g id="a_node31"><a xlink:href="../../d9/d1e/txtoken_8_c.html" target="_top" xlink:title=" ">
<polygon fill="white" stroke="black" points="2122.79,-0.5 2122.79,-18.5 2181.03,-18.5 2181.03,-0.5 2122.79,-0.5"/>
<text text-anchor="middle" x="2151.91" y="-6.5" font-family="Helvetica,sans-Serif" font-size="10.00">txtoken.C</text>
</a>
</g>
</g>
<!-- Node2&#45;&gt;Node31 -->
<g id="edge30" class="edge">
<title>Node2&#45;&gt;Node31</title>
<path fill="none" stroke="midnightblue" d="M1155.13,-55.11C1579.28,-2.45 1693.79,-73.4 2113.91,-19 2116.73,-18.64 2119.64,-18.16 2122.55,-17.62"/>
<polygon fill="midnightblue" stroke="midnightblue" points="1154.54,-51.66 1145.05,-56.38 1155.41,-58.6 1154.54,-51.66"/>
</g>
<!-- Node32 -->
<g id="node32" class="node">
<title>Node32</title>
<g id="a_node32"><a xlink:href="../../d5/dda/txtranslate_8_c.html" target="_top" xlink:title=" ">
<polygon fill="white" stroke="black" points="2198.85,-0.5 2198.85,-18.5 2270.98,-18.5 2270.98,-0.5 2198.85,-0.5"/>
<text text-anchor="middle" x="2234.91" y="-6.5" font-family="Helvetica,sans-Serif" font-size="10.00">txtranslate.C</text>
</a>
</g>
</g>
<!-- Node2&#45;&gt;Node32 -->
<g id="edge31" class="edge">
<title>Node2&#45;&gt;Node32</title>
<path fill="none" stroke="midnightblue" d="M1155.24,-55.1C1612.85,1.24 1735.36,-69.53 2189.91,-19 2192.76,-18.68 2195.69,-18.29 2198.63,-17.84"/>
<polygon fill="midnightblue" stroke="midnightblue" points="1154.54,-51.66 1145.05,-56.37 1155.41,-58.61 1154.54,-51.66"/>
</g>
<!-- Node33 -->
<g id="node33" class="node">
<title>Node33</title>
<g id="a_node33"><a xlink:href="../../da/d9e/txtrees_8_c.html" target="_top" xlink:title=" ">
<polygon fill="white" stroke="black" points="2288.91,-0.5 2288.91,-18.5 2344.92,-18.5 2344.92,-0.5 2288.91,-0.5"/>
<text text-anchor="middle" x="2316.91" y="-6.5" font-family="Helvetica,sans-Serif" font-size="10.00">txtrees.C</text>
</a>
</g>
</g>
<!-- Node2&#45;&gt;Node33 -->
<g id="edge32" class="edge">
<title>Node2&#45;&gt;Node33</title>
<path fill="none" stroke="midnightblue" d="M1155.01,-55.14C1652.58,5.39 1786.64,-82.93 2279.91,-19 2282.79,-18.63 2285.77,-18.13 2288.73,-17.57"/>
<polygon fill="midnightblue" stroke="midnightblue" points="1154.55,-51.67 1145.05,-56.36 1155.4,-58.61 1154.55,-51.67"/>
</g>
<!-- Node34&#45;&gt;Node7 -->
<g id="edge34" class="edge">
<title>Node34&#45;&gt;Node7</title>
<path fill="none" stroke="midnightblue" d="M511.47,-61.77C429.89,-57.63 230.18,-45.46 64.91,-19 62.05,-18.54 59.08,-17.99 56.12,-17.39"/>
<polygon fill="midnightblue" stroke="midnightblue" points="511.57,-65.28 521.73,-62.28 511.91,-58.29 511.57,-65.28"/>
</g>
</g>
</svg>
