<?xml version="1.0" encoding="UTF-8" standalone="no"?>
<!DOCTYPE svg PUBLIC "-//W3C//DTD SVG 1.1//EN"
 "http://www.w3.org/Graphics/SVG/1.1/DTD/svg11.dtd">
<!-- Generated by graphviz version 2.42.3 (20191010.1750)
 -->
<!-- Title: txparser2.cpp Pages: 1 -->
<svg width="876pt" height="797pt"
 viewBox="0.00 0.00 875.68 797.00" xmlns="http://www.w3.org/2000/svg" xmlns:xlink="http://www.w3.org/1999/xlink">
<g id="graph0" class="graph" transform="scale(1 1) rotate(0) translate(4 793)">
<title>txparser2.cpp</title>
<!-- Node1 -->
<g id="node1" class="node">
<title>Node1</title>
<g id="a_node1"><a xlink:title=" ">
<polygon fill="#bfbfbf" stroke="black" points="273.71,-770.5 273.71,-788.5 350.29,-788.5 350.29,-770.5 273.71,-770.5"/>
<text text-anchor="middle" x="312" y="-776.5" font-family="Helvetica,sans-Serif" font-size="10.00">txparser2.cpp</text>
</a>
</g>
</g>
<!-- Node2 -->
<g id="node2" class="node">
<title>Node2</title>
<g id="a_node2"><a xlink:href="../../da/d5e/txparser2_8h.html" target="_top" xlink:title=" ">
<polygon fill="none" stroke="black" points="278.99,-715.5 278.99,-733.5 345.01,-733.5 345.01,-715.5 278.99,-715.5"/>
<text text-anchor="middle" x="312" y="-721.5" font-family="Helvetica,sans-Serif" font-size="10.00">txparser2.h</text>
</a>
</g>
</g>
<!-- Node1&#45;&gt;Node2 -->
<g id="edge1" class="edge">
<title>Node1&#45;&gt;Node2</title>
<path fill="none" stroke="midnightblue" d="M312,-770.22C312,-763.18 312,-752.81 312,-743.83"/>
<polygon fill="midnightblue" stroke="midnightblue" points="315.5,-743.55 312,-733.55 308.5,-743.55 315.5,-743.55"/>
</g>
<!-- Node3 -->
<g id="node3" class="node">
<title>Node3</title>
<g id="a_node3"><a xlink:href="../../dd/dcd/_token_8h.html" target="_top" xlink:title=" ">
<polygon fill="none" stroke="black" points="422.04,-275.5 422.04,-293.5 501.96,-293.5 501.96,-275.5 422.04,-275.5"/>
<text text-anchor="middle" x="462" y="-281.5" font-family="Helvetica,sans-Serif" font-size="10.00">tralics/Token.h</text>
</a>
</g>
</g>
<!-- Node2&#45;&gt;Node3 -->
<g id="edge2" class="edge">
<title>Node2&#45;&gt;Node3</title>
<path fill="none" stroke="midnightblue" d="M278.91,-719.22C198.61,-707.92 0,-674.04 0,-615.5 0,-615.5 0,-615.5 0,-448.5 0,-361.93 292.13,-309.97 411.8,-292.32"/>
<polygon fill="midnightblue" stroke="midnightblue" points="412.42,-295.76 421.81,-290.86 411.41,-288.84 412.42,-295.76"/>
</g>
<!-- Node14 -->
<g id="node14" class="node">
<title>Node14</title>
<g id="a_node14"><a xlink:href="../../dc/dd7/txclasses_8h.html" target="_top" xlink:title=" ">
<polygon fill="none" stroke="black" points="373.27,-495.5 373.27,-513.5 438.73,-513.5 438.73,-495.5 373.27,-495.5"/>
<text text-anchor="middle" x="406" y="-501.5" font-family="Helvetica,sans-Serif" font-size="10.00">txclasses.h</text>
</a>
</g>
</g>
<!-- Node2&#45;&gt;Node14 -->
<g id="edge14" class="edge">
<title>Node2&#45;&gt;Node14</title>
<path fill="none" stroke="midnightblue" d="M313.52,-715.46C318.55,-689.96 336.3,-609.09 369,-550 374.78,-539.56 383.16,-529.23 390.48,-521.16"/>
<polygon fill="midnightblue" stroke="midnightblue" points="393.25,-523.32 397.58,-513.65 388.16,-518.51 393.25,-523.32"/>
</g>
<!-- Node22 -->
<g id="node22" class="node">
<title>Node22</title>
<g id="a_node22"><a xlink:title=" ">
<polygon fill="none" stroke="#bfbfbf" points="769.61,-275.5 769.61,-293.5 808.39,-293.5 808.39,-275.5 769.61,-275.5"/>
<text text-anchor="middle" x="789" y="-281.5" font-family="Helvetica,sans-Serif" font-size="10.00">utility</text>
</a>
</g>
</g>
<!-- Node2&#45;&gt;Node22 -->
<g id="edge69" class="edge">
<title>Node2&#45;&gt;Node22</title>
<path fill="none" stroke="midnightblue" d="M345.28,-722.95C452.2,-720.28 780,-704.83 780,-615.5 780,-615.5 780,-615.5 780,-393.5 780,-361.76 783.91,-324.96 786.57,-303.55"/>
<polygon fill="midnightblue" stroke="midnightblue" points="790.05,-303.98 787.86,-293.61 783.1,-303.08 790.05,-303.98"/>
</g>
<!-- Node25 -->
<g id="node25" class="node">
<title>Node25</title>
<g id="a_node25"><a xlink:href="../../d7/d79/txinline_8h.html" target="_top" xlink:title=" ">
<polygon fill="none" stroke="black" points="157.27,-660.5 157.27,-678.5 212.73,-678.5 212.73,-660.5 157.27,-660.5"/>
<text text-anchor="middle" x="185" y="-666.5" font-family="Helvetica,sans-Serif" font-size="10.00">txinline.h</text>
</a>
</g>
</g>
<!-- Node2&#45;&gt;Node25 -->
<g id="edge30" class="edge">
<title>Node2&#45;&gt;Node25</title>
<path fill="none" stroke="midnightblue" d="M292.71,-715.45C271.73,-706.7 237.97,-692.61 213.84,-682.53"/>
<polygon fill="midnightblue" stroke="midnightblue" points="215.05,-679.25 204.47,-678.63 212.35,-685.71 215.05,-679.25"/>
</g>
<!-- Node33 -->
<g id="node33" class="node">
<title>Node33</title>
<g id="a_node33"><a xlink:href="../../d2/d1b/txparser_8h.html" target="_top" xlink:title=" ">
<polygon fill="none" stroke="black" points="451.04,-660.5 451.04,-678.5 510.96,-678.5 510.96,-660.5 451.04,-660.5"/>
<text text-anchor="middle" x="481" y="-666.5" font-family="Helvetica,sans-Serif" font-size="10.00">txparser.h</text>
</a>
</g>
</g>
<!-- Node2&#45;&gt;Node33 -->
<g id="edge42" class="edge">
<title>Node2&#45;&gt;Node33</title>
<path fill="none" stroke="midnightblue" d="M337.67,-715.45C366.41,-706.44 413.19,-691.77 445.45,-681.65"/>
<polygon fill="midnightblue" stroke="midnightblue" points="446.87,-684.87 455.37,-678.54 444.78,-678.19 446.87,-684.87"/>
</g>
<!-- Node4 -->
<g id="node4" class="node">
<title>Node4</title>
<g id="a_node4"><a xlink:href="../../d2/d68/_cmd_chr_8h.html" target="_top" xlink:title=" ">
<polygon fill="none" stroke="black" points="472.49,-220.5 472.49,-238.5 533.51,-238.5 533.51,-220.5 472.49,-220.5"/>
<text text-anchor="middle" x="503" y="-226.5" font-family="Helvetica,sans-Serif" font-size="10.00">CmdChr.h</text>
</a>
</g>
</g>
<!-- Node3&#45;&gt;Node4 -->
<g id="edge3" class="edge">
<title>Node3&#45;&gt;Node4</title>
<path fill="none" stroke="midnightblue" d="M468.41,-275.22C474.34,-267.55 483.32,-255.94 490.65,-246.47"/>
<polygon fill="midnightblue" stroke="midnightblue" points="493.42,-248.6 496.77,-238.55 487.89,-244.32 493.42,-248.6"/>
</g>
<!-- Node13 -->
<g id="node13" class="node">
<title>Node13</title>
<g id="a_node13"><a xlink:title=" ">
<polygon fill="none" stroke="#bfbfbf" points="425.5,-220.5 425.5,-238.5 454.5,-238.5 454.5,-220.5 425.5,-220.5"/>
<text text-anchor="middle" x="439.61" y="-226.5" font-family="Helvetica,sans-Serif" font-size="10.00">list</text>
</a>
</g>
</g>
<!-- Node3&#45;&gt;Node13 -->
<g id="edge13" class="edge">
<title>Node3&#45;&gt;Node13</title>
<path fill="none" stroke="midnightblue" d="M458.56,-275.22C455.54,-267.94 451.05,-257.11 447.24,-247.93"/>
<polygon fill="midnightblue" stroke="midnightblue" points="450.41,-246.44 443.34,-238.55 443.94,-249.13 450.41,-246.44"/>
</g>
<!-- Node5 -->
<g id="node5" class="node">
<title>Node5</title>
<g id="a_node5"><a xlink:href="../../d8/d47/codepoint_8h.html" target="_top" xlink:title=" ">
<polygon fill="none" stroke="black" points="548.15,-165.5 548.15,-183.5 615.85,-183.5 615.85,-165.5 548.15,-165.5"/>
<text text-anchor="middle" x="582" y="-171.5" font-family="Helvetica,sans-Serif" font-size="10.00">codepoint.h</text>
</a>
</g>
</g>
<!-- Node4&#45;&gt;Node5 -->
<g id="edge4" class="edge">
<title>Node4&#45;&gt;Node5</title>
<path fill="none" stroke="midnightblue" d="M515,-220.45C527.29,-212.2 546.65,-199.22 561.4,-189.32"/>
<polygon fill="midnightblue" stroke="midnightblue" points="563.53,-192.1 569.89,-183.63 559.63,-186.29 563.53,-192.1"/>
</g>
<!-- Node11 -->
<g id="node11" class="node">
<title>Node11</title>
<g id="a_node11"><a xlink:href="../../d0/d0b/enums_8h.html" target="_top" xlink:title=" ">
<polygon fill="none" stroke="black" points="475.82,-165.5 475.82,-183.5 530.18,-183.5 530.18,-165.5 475.82,-165.5"/>
<text text-anchor="middle" x="503" y="-171.5" font-family="Helvetica,sans-Serif" font-size="10.00">enums.h</text>
</a>
</g>
</g>
<!-- Node4&#45;&gt;Node11 -->
<g id="edge10" class="edge">
<title>Node4&#45;&gt;Node11</title>
<path fill="none" stroke="midnightblue" d="M503,-220.22C503,-213.18 503,-202.81 503,-193.83"/>
<polygon fill="midnightblue" stroke="midnightblue" points="506.5,-193.55 503,-183.55 499.5,-193.55 506.5,-193.55"/>
</g>
<!-- Node6 -->
<g id="node6" class="node">
<title>Node6</title>
<g id="a_node6"><a xlink:href="../../d9/d49/types_8h.html" target="_top" xlink:title=" ">
<polygon fill="none" stroke="black" points="517.88,-55.5 517.88,-73.5 566.12,-73.5 566.12,-55.5 517.88,-55.5"/>
<text text-anchor="middle" x="542" y="-61.5" font-family="Helvetica,sans-Serif" font-size="10.00">types.h</text>
</a>
</g>
</g>
<!-- Node5&#45;&gt;Node6 -->
<g id="edge5" class="edge">
<title>Node5&#45;&gt;Node6</title>
<path fill="none" stroke="midnightblue" d="M578.99,-165.38C572.57,-148.03 557.36,-106.96 548.57,-83.24"/>
<polygon fill="midnightblue" stroke="midnightblue" points="551.8,-81.87 545.04,-73.71 545.23,-84.3 551.8,-81.87"/>
</g>
<!-- Node10 -->
<g id="node10" class="node">
<title>Node10</title>
<g id="a_node10"><a xlink:title=" ">
<polygon fill="none" stroke="#bfbfbf" points="622.49,-110.5 622.49,-128.5 673.51,-128.5 673.51,-110.5 622.49,-110.5"/>
<text text-anchor="middle" x="648" y="-116.5" font-family="Helvetica,sans-Serif" font-size="10.00">optional</text>
</a>
</g>
</g>
<!-- Node5&#45;&gt;Node10 -->
<g id="edge9" class="edge">
<title>Node5&#45;&gt;Node10</title>
<path fill="none" stroke="midnightblue" d="M592.02,-165.45C602.01,-157.43 617.56,-144.95 629.74,-135.17"/>
<polygon fill="midnightblue" stroke="midnightblue" points="632.28,-137.62 637.88,-128.63 627.89,-132.16 632.28,-137.62"/>
</g>
<!-- Node7 -->
<g id="node7" class="node">
<title>Node7</title>
<g id="a_node7"><a xlink:title=" ">
<polygon fill="none" stroke="#bfbfbf" points="451.88,-0.5 451.88,-18.5 500.12,-18.5 500.12,-0.5 451.88,-0.5"/>
<text text-anchor="middle" x="476" y="-6.5" font-family="Helvetica,sans-Serif" font-size="10.00">cassert</text>
</a>
</g>
</g>
<!-- Node6&#45;&gt;Node7 -->
<g id="edge6" class="edge">
<title>Node6&#45;&gt;Node7</title>
<path fill="none" stroke="midnightblue" d="M531.98,-55.45C521.99,-47.43 506.44,-34.95 494.26,-25.17"/>
<polygon fill="midnightblue" stroke="midnightblue" points="496.11,-22.16 486.12,-18.63 491.72,-27.62 496.11,-22.16"/>
</g>
<!-- Node8 -->
<g id="node8" class="node">
<title>Node8</title>
<g id="a_node8"><a xlink:title=" ">
<polygon fill="none" stroke="#bfbfbf" points="517.88,-0.5 517.88,-18.5 566.12,-18.5 566.12,-0.5 517.88,-0.5"/>
<text text-anchor="middle" x="542" y="-6.5" font-family="Helvetica,sans-Serif" font-size="10.00">cstddef</text>
</a>
</g>
</g>
<!-- Node6&#45;&gt;Node8 -->
<g id="edge7" class="edge">
<title>Node6&#45;&gt;Node8</title>
<path fill="none" stroke="midnightblue" d="M542,-55.22C542,-48.18 542,-37.81 542,-28.83"/>
<polygon fill="midnightblue" stroke="midnightblue" points="545.5,-28.55 542,-18.55 538.5,-28.55 545.5,-28.55"/>
</g>
<!-- Node9 -->
<g id="node9" class="node">
<title>Node9</title>
<g id="a_node9"><a xlink:title=" ">
<polygon fill="none" stroke="#bfbfbf" points="583.93,-0.5 583.93,-18.5 646.07,-18.5 646.07,-0.5 583.93,-0.5"/>
<text text-anchor="middle" x="615" y="-6.5" font-family="Helvetica,sans-Serif" font-size="10.00">type_traits</text>
</a>
</g>
</g>
<!-- Node6&#45;&gt;Node9 -->
<g id="edge8" class="edge">
<title>Node6&#45;&gt;Node9</title>
<path fill="none" stroke="midnightblue" d="M553.09,-55.45C564.34,-47.28 582,-34.46 595.58,-24.6"/>
<polygon fill="midnightblue" stroke="midnightblue" points="597.77,-27.33 603.81,-18.63 593.66,-21.67 597.77,-27.33"/>
</g>
<!-- Node12 -->
<g id="node12" class="node">
<title>Node12</title>
<g id="a_node12"><a xlink:href="../../d8/db5/consts_8h.html" target="_top" xlink:title=" ">
<polygon fill="none" stroke="black" points="488.38,-110.5 488.38,-128.5 541.62,-128.5 541.62,-110.5 488.38,-110.5"/>
<text text-anchor="middle" x="515" y="-116.5" font-family="Helvetica,sans-Serif" font-size="10.00">consts.h</text>
</a>
</g>
</g>
<!-- Node11&#45;&gt;Node12 -->
<g id="edge11" class="edge">
<title>Node11&#45;&gt;Node12</title>
<path fill="none" stroke="midnightblue" d="M504.88,-165.22C506.49,-158.1 508.87,-147.58 510.92,-138.53"/>
<polygon fill="midnightblue" stroke="midnightblue" points="514.38,-139.08 513.18,-128.55 507.56,-137.53 514.38,-139.08"/>
</g>
<!-- Node12&#45;&gt;Node6 -->
<g id="edge12" class="edge">
<title>Node12&#45;&gt;Node6</title>
<path fill="none" stroke="midnightblue" d="M519.22,-110.22C522.97,-102.86 528.56,-91.88 533.27,-82.64"/>
<polygon fill="midnightblue" stroke="midnightblue" points="536.48,-84.05 537.9,-73.55 530.24,-80.87 536.48,-84.05"/>
</g>
<!-- Node15 -->
<g id="node15" class="node">
<title>Node15</title>
<g id="a_node15"><a xlink:href="../../dd/d74/txbuffer_8h.html" target="_top" xlink:title=" ">
<polygon fill="none" stroke="black" points="405.52,-440.5 405.52,-458.5 462.48,-458.5 462.48,-440.5 405.52,-440.5"/>
<text text-anchor="middle" x="434" y="-446.5" font-family="Helvetica,sans-Serif" font-size="10.00">txbuffer.h</text>
</a>
</g>
</g>
<!-- Node14&#45;&gt;Node15 -->
<g id="edge15" class="edge">
<title>Node14&#45;&gt;Node15</title>
<path fill="none" stroke="midnightblue" d="M410.38,-495.22C414.26,-487.86 420.06,-476.88 424.95,-467.64"/>
<polygon fill="midnightblue" stroke="midnightblue" points="428.17,-469.03 429.75,-458.55 421.98,-465.76 428.17,-469.03"/>
</g>
<!-- Node15&#45;&gt;Node3 -->
<g id="edge16" class="edge">
<title>Node15&#45;&gt;Node3</title>
<path fill="none" stroke="midnightblue" d="M435.43,-440.19C439.75,-415.01 452.79,-339.11 458.85,-303.86"/>
<polygon fill="midnightblue" stroke="midnightblue" points="462.37,-304.05 460.61,-293.6 455.47,-302.86 462.37,-304.05"/>
</g>
<!-- Node16 -->
<g id="node16" class="node">
<title>Node16</title>
<g id="a_node16"><a xlink:href="../../d1/d9e/txid_8h.html" target="_top" xlink:title=" ">
<polygon fill="none" stroke="black" points="598.05,-330.5 598.05,-348.5 637.95,-348.5 637.95,-330.5 598.05,-330.5"/>
<text text-anchor="middle" x="618" y="-336.5" font-family="Helvetica,sans-Serif" font-size="10.00">txid.h</text>
</a>
</g>
</g>
<!-- Node15&#45;&gt;Node16 -->
<g id="edge17" class="edge">
<title>Node15&#45;&gt;Node16</title>
<path fill="none" stroke="midnightblue" d="M436.19,-440.15C440.19,-426.56 449.97,-399.69 468,-385 468.6,-384.51 544.48,-362.13 588.07,-349.3"/>
<polygon fill="midnightblue" stroke="midnightblue" points="589.27,-352.6 597.87,-346.42 587.29,-345.88 589.27,-352.6"/>
</g>
<!-- Node20 -->
<g id="node20" class="node">
<title>Node20</title>
<g id="a_node20"><a xlink:href="../../d9/d18/txscaled_8h.html" target="_top" xlink:title=" ">
<polygon fill="none" stroke="black" points="538.49,-385.5 538.49,-403.5 599.51,-403.5 599.51,-385.5 538.49,-385.5"/>
<text text-anchor="middle" x="569" y="-391.5" font-family="Helvetica,sans-Serif" font-size="10.00">txscaled.h</text>
</a>
</g>
</g>
<!-- Node15&#45;&gt;Node20 -->
<g id="edge23" class="edge">
<title>Node15&#45;&gt;Node20</title>
<path fill="none" stroke="midnightblue" d="M454.5,-440.45C476.9,-431.66 513.01,-417.48 538.69,-407.4"/>
<polygon fill="midnightblue" stroke="midnightblue" points="540.27,-410.54 548.3,-403.63 537.72,-404.02 540.27,-410.54"/>
</g>
<!-- Node23 -->
<g id="node23" class="node">
<title>Node23</title>
<g id="a_node23"><a xlink:title=" ">
<polygon fill="none" stroke="#bfbfbf" points="337.27,-385.5 337.27,-403.5 382.73,-403.5 382.73,-385.5 337.27,-385.5"/>
<text text-anchor="middle" x="360" y="-391.5" font-family="Helvetica,sans-Serif" font-size="10.00">cstring</text>
</a>
</g>
</g>
<!-- Node15&#45;&gt;Node23 -->
<g id="edge28" class="edge">
<title>Node15&#45;&gt;Node23</title>
<path fill="none" stroke="midnightblue" d="M422.76,-440.45C411.35,-432.28 393.45,-419.46 379.69,-409.6"/>
<polygon fill="midnightblue" stroke="midnightblue" points="381.51,-406.6 371.34,-403.63 377.44,-412.29 381.51,-406.6"/>
</g>
<!-- Node24 -->
<g id="node24" class="node">
<title>Node24</title>
<g id="a_node24"><a xlink:title=" ">
<polygon fill="none" stroke="#bfbfbf" points="477.38,-385.5 477.38,-403.5 520.62,-403.5 520.62,-385.5 477.38,-385.5"/>
<text text-anchor="middle" x="499" y="-391.5" font-family="Helvetica,sans-Serif" font-size="10.00">vector</text>
</a>
</g>
</g>
<!-- Node15&#45;&gt;Node24 -->
<g id="edge29" class="edge">
<title>Node15&#45;&gt;Node24</title>
<path fill="none" stroke="midnightblue" d="M443.87,-440.45C453.7,-432.43 469.02,-419.95 481.01,-410.17"/>
<polygon fill="midnightblue" stroke="midnightblue" points="483.5,-412.66 489.03,-403.63 479.07,-407.23 483.5,-412.66"/>
</g>
<!-- Node17 -->
<g id="node17" class="node">
<title>Node17</title>
<g id="a_node17"><a xlink:href="../../d5/daf/_istring_8h.html" target="_top" xlink:title=" ">
<polygon fill="none" stroke="black" points="557.77,-275.5 557.77,-293.5 638.23,-293.5 638.23,-275.5 557.77,-275.5"/>
<text text-anchor="middle" x="598" y="-281.5" font-family="Helvetica,sans-Serif" font-size="10.00">tralics/Istring.h</text>
</a>
</g>
</g>
<!-- Node16&#45;&gt;Node17 -->
<g id="edge18" class="edge">
<title>Node16&#45;&gt;Node17</title>
<path fill="none" stroke="midnightblue" d="M614.88,-330.22C612.13,-322.94 608.04,-312.11 604.58,-302.93"/>
<polygon fill="midnightblue" stroke="midnightblue" points="607.84,-301.67 601.04,-293.55 601.29,-304.14 607.84,-301.67"/>
</g>
<!-- Node19 -->
<g id="node19" class="node">
<title>Node19</title>
<g id="a_node19"><a xlink:title=" ">
<polygon fill="none" stroke="#bfbfbf" points="707.77,-220.5 707.77,-238.5 748.23,-238.5 748.23,-220.5 707.77,-220.5"/>
<text text-anchor="middle" x="728" y="-226.5" font-family="Helvetica,sans-Serif" font-size="10.00">string</text>
</a>
</g>
</g>
<!-- Node16&#45;&gt;Node19 -->
<g id="edge22" class="edge">
<title>Node16&#45;&gt;Node19</title>
<path fill="none" stroke="midnightblue" d="M626.27,-330.38C644.58,-312.4 688.82,-268.97 712.47,-245.75"/>
<polygon fill="midnightblue" stroke="midnightblue" points="714.95,-248.22 719.64,-238.71 710.05,-243.22 714.95,-248.22"/>
</g>
<!-- Node17&#45;&gt;Node11 -->
<g id="edge19" class="edge">
<title>Node17&#45;&gt;Node11</title>
<path fill="none" stroke="midnightblue" d="M590.93,-275.24C580.5,-263.08 560.37,-239.68 543,-220 534.55,-210.42 524.98,-199.77 517.33,-191.3"/>
<polygon fill="midnightblue" stroke="midnightblue" points="519.72,-188.73 510.42,-183.66 514.53,-193.42 519.72,-188.73"/>
</g>
<!-- Node18 -->
<g id="node18" class="node">
<title>Node18</title>
<g id="a_node18"><a xlink:title=" ">
<polygon fill="none" stroke="#bfbfbf" points="589.61,-220.5 589.61,-238.5 628.39,-238.5 628.39,-220.5 589.61,-220.5"/>
<text text-anchor="middle" x="609" y="-226.5" font-family="Helvetica,sans-Serif" font-size="10.00">array</text>
</a>
</g>
</g>
<!-- Node17&#45;&gt;Node18 -->
<g id="edge20" class="edge">
<title>Node17&#45;&gt;Node18</title>
<path fill="none" stroke="midnightblue" d="M599.72,-275.22C601.2,-268.1 603.38,-257.58 605.26,-248.53"/>
<polygon fill="midnightblue" stroke="midnightblue" points="608.72,-249.05 607.33,-238.55 601.87,-247.63 608.72,-249.05"/>
</g>
<!-- Node17&#45;&gt;Node19 -->
<g id="edge21" class="edge">
<title>Node17&#45;&gt;Node19</title>
<path fill="none" stroke="midnightblue" d="M617.74,-275.45C639.31,-266.66 674.09,-252.48 698.81,-242.4"/>
<polygon fill="midnightblue" stroke="midnightblue" points="700.13,-245.64 708.07,-238.63 697.49,-239.16 700.13,-245.64"/>
</g>
<!-- Node21 -->
<g id="node21" class="node">
<title>Node21</title>
<g id="a_node21"><a xlink:href="../../dc/d91/txtokenlist_8h.html" target="_top" xlink:title=" ">
<polygon fill="none" stroke="black" points="511.6,-330.5 511.6,-348.5 580.4,-348.5 580.4,-330.5 511.6,-330.5"/>
<text text-anchor="middle" x="546" y="-336.5" font-family="Helvetica,sans-Serif" font-size="10.00">txtokenlist.h</text>
</a>
</g>
</g>
<!-- Node20&#45;&gt;Node21 -->
<g id="edge24" class="edge">
<title>Node20&#45;&gt;Node21</title>
<path fill="none" stroke="midnightblue" d="M565.41,-385.22C562.25,-377.94 557.55,-367.11 553.57,-357.93"/>
<polygon fill="midnightblue" stroke="midnightblue" points="556.68,-356.33 549.49,-348.55 550.26,-359.12 556.68,-356.33"/>
</g>
<!-- Node21&#45;&gt;Node3 -->
<g id="edge26" class="edge">
<title>Node21&#45;&gt;Node3</title>
<path fill="none" stroke="midnightblue" d="M533.24,-330.45C520.04,-322.12 499.2,-308.97 483.46,-299.04"/>
<polygon fill="midnightblue" stroke="midnightblue" points="485.2,-296 474.88,-293.63 481.47,-301.92 485.2,-296"/>
</g>
<!-- Node21&#45;&gt;Node17 -->
<g id="edge25" class="edge">
<title>Node21&#45;&gt;Node17</title>
<path fill="none" stroke="midnightblue" d="M554.12,-330.22C561.8,-322.39 573.51,-310.46 582.9,-300.89"/>
<polygon fill="midnightblue" stroke="midnightblue" points="585.6,-303.14 590.1,-293.55 580.6,-298.24 585.6,-303.14"/>
</g>
<!-- Node21&#45;&gt;Node22 -->
<g id="edge27" class="edge">
<title>Node21&#45;&gt;Node22</title>
<path fill="none" stroke="midnightblue" d="M580.56,-330.96C628.47,-320.51 714.27,-301.8 759.4,-291.96"/>
<polygon fill="midnightblue" stroke="midnightblue" points="760.4,-295.32 769.43,-289.77 758.91,-288.48 760.4,-295.32"/>
</g>
<!-- Node26 -->
<g id="node26" class="node">
<title>Node26</title>
<g id="a_node26"><a xlink:href="../../d4/de9/_main_class_8h.html" target="_top" xlink:title=" ">
<polygon fill="none" stroke="black" points="184.04,-605.5 184.04,-623.5 283.96,-623.5 283.96,-605.5 184.04,-605.5"/>
<text text-anchor="middle" x="234" y="-611.5" font-family="Helvetica,sans-Serif" font-size="10.00">tralics/MainClass.h</text>
</a>
</g>
</g>
<!-- Node25&#45;&gt;Node26 -->
<g id="edge31" class="edge">
<title>Node25&#45;&gt;Node26</title>
<path fill="none" stroke="midnightblue" d="M192.66,-660.22C199.82,-652.47 210.7,-640.7 219.5,-631.18"/>
<polygon fill="midnightblue" stroke="midnightblue" points="222.34,-633.27 226.56,-623.55 217.2,-628.52 222.34,-633.27"/>
</g>
<!-- Node30 -->
<g id="node30" class="node">
<title>Node30</title>
<g id="a_node30"><a xlink:href="../../d2/d06/txlogger_8h.html" target="_top" xlink:title=" ">
<polygon fill="none" stroke="black" points="28.32,-605.5 28.32,-623.5 87.68,-623.5 87.68,-605.5 28.32,-605.5"/>
<text text-anchor="middle" x="58" y="-611.5" font-family="Helvetica,sans-Serif" font-size="10.00">txlogger.h</text>
</a>
</g>
</g>
<!-- Node25&#45;&gt;Node30 -->
<g id="edge37" class="edge">
<title>Node25&#45;&gt;Node30</title>
<path fill="none" stroke="midnightblue" d="M165.71,-660.45C144.73,-651.7 110.97,-637.61 86.84,-627.53"/>
<polygon fill="midnightblue" stroke="midnightblue" points="88.05,-624.25 77.47,-623.63 85.35,-630.71 88.05,-624.25"/>
</g>
<!-- Node32 -->
<g id="node32" class="node">
<title>Node32</title>
<g id="a_node32"><a xlink:href="../../d5/d08/txparam_8h.html" target="_top" xlink:title=" ">
<polygon fill="none" stroke="black" points="105.77,-605.5 105.77,-623.5 166.23,-623.5 166.23,-605.5 105.77,-605.5"/>
<text text-anchor="middle" x="136" y="-611.5" font-family="Helvetica,sans-Serif" font-size="10.00">txparam.h</text>
</a>
</g>
</g>
<!-- Node25&#45;&gt;Node32 -->
<g id="edge40" class="edge">
<title>Node25&#45;&gt;Node32</title>
<path fill="none" stroke="midnightblue" d="M177.34,-660.22C170.18,-652.47 159.3,-640.7 150.5,-631.18"/>
<polygon fill="midnightblue" stroke="midnightblue" points="152.8,-628.52 143.44,-623.55 147.66,-633.27 152.8,-628.52"/>
</g>
<!-- Node27 -->
<g id="node27" class="node">
<title>Node27</title>
<g id="a_node27"><a xlink:href="../../de/d29/txio_8h.html" target="_top" xlink:title=" ">
<polygon fill="none" stroke="black" points="197.88,-550.5 197.88,-568.5 246.12,-568.5 246.12,-550.5 197.88,-550.5"/>
<text text-anchor="middle" x="222" y="-556.5" font-family="Helvetica,sans-Serif" font-size="10.00">../txio.h</text>
</a>
</g>
</g>
<!-- Node26&#45;&gt;Node27 -->
<g id="edge32" class="edge">
<title>Node26&#45;&gt;Node27</title>
<path fill="none" stroke="midnightblue" d="M232.12,-605.22C230.51,-598.1 228.13,-587.58 226.08,-578.53"/>
<polygon fill="midnightblue" stroke="midnightblue" points="229.44,-577.53 223.82,-568.55 222.62,-579.08 229.44,-577.53"/>
</g>
<!-- Node29 -->
<g id="node29" class="node">
<title>Node29</title>
<g id="a_node29"><a xlink:href="../../dc/def/txstring_8h.html" target="_top" xlink:title=" ">
<polygon fill="none" stroke="black" points="456.55,-495.5 456.55,-513.5 521.45,-513.5 521.45,-495.5 456.55,-495.5"/>
<text text-anchor="middle" x="489" y="-501.5" font-family="Helvetica,sans-Serif" font-size="10.00">../txstring.h</text>
</a>
</g>
</g>
<!-- Node26&#45;&gt;Node29 -->
<g id="edge35" class="edge">
<title>Node26&#45;&gt;Node29</title>
<path fill="none" stroke="midnightblue" d="M250.01,-605.43C275.09,-592.91 325.3,-568.34 369,-550 397.99,-537.83 431.6,-525.52 455.86,-516.94"/>
<polygon fill="midnightblue" stroke="midnightblue" points="457.04,-520.23 465.32,-513.62 454.72,-513.63 457.04,-520.23"/>
</g>
<!-- Node27&#45;&gt;Node15 -->
<g id="edge33" class="edge">
<title>Node27&#45;&gt;Node15</title>
<path fill="none" stroke="midnightblue" d="M237.93,-550.38C274.55,-531.73 364.92,-485.69 409,-463.23"/>
<polygon fill="midnightblue" stroke="midnightblue" points="410.85,-466.22 418.17,-458.56 407.67,-459.99 410.85,-466.22"/>
</g>
<!-- Node28 -->
<g id="node28" class="node">
<title>Node28</title>
<g id="a_node28"><a xlink:title=" ">
<polygon fill="none" stroke="#bfbfbf" points="131.33,-495.5 131.33,-513.5 180.67,-513.5 180.67,-495.5 131.33,-495.5"/>
<text text-anchor="middle" x="156" y="-501.5" font-family="Helvetica,sans-Serif" font-size="10.00">fstream</text>
</a>
</g>
</g>
<!-- Node27&#45;&gt;Node28 -->
<g id="edge34" class="edge">
<title>Node27&#45;&gt;Node28</title>
<path fill="none" stroke="midnightblue" d="M211.98,-550.45C201.99,-542.43 186.44,-529.95 174.26,-520.17"/>
<polygon fill="midnightblue" stroke="midnightblue" points="176.11,-517.16 166.12,-513.63 171.72,-522.62 176.11,-517.16"/>
</g>
<!-- Node29&#45;&gt;Node15 -->
<g id="edge36" class="edge">
<title>Node29&#45;&gt;Node15</title>
<path fill="none" stroke="midnightblue" d="M480.41,-495.22C472.21,-487.32 459.66,-475.22 449.68,-465.61"/>
<polygon fill="midnightblue" stroke="midnightblue" points="451.98,-462.97 442.35,-458.55 447.13,-468.01 451.98,-462.97"/>
</g>
<!-- Node30&#45;&gt;Node28 -->
<g id="edge38" class="edge">
<title>Node30&#45;&gt;Node28</title>
<path fill="none" stroke="midnightblue" d="M58.53,-605.18C59.75,-592.11 63.78,-566.54 77,-550 88.64,-535.44 106.41,-524.83 122.16,-517.63"/>
<polygon fill="midnightblue" stroke="midnightblue" points="123.81,-520.73 131.63,-513.58 121.06,-514.29 123.81,-520.73"/>
</g>
<!-- Node31 -->
<g id="node31" class="node">
<title>Node31</title>
<g id="a_node31"><a xlink:title=" ">
<polygon fill="none" stroke="#bfbfbf" points="85.83,-550.5 85.83,-568.5 140.17,-568.5 140.17,-550.5 85.83,-550.5"/>
<text text-anchor="middle" x="113" y="-556.5" font-family="Helvetica,sans-Serif" font-size="10.00">iostream</text>
</a>
</g>
</g>
<!-- Node30&#45;&gt;Node31 -->
<g id="edge39" class="edge">
<title>Node30&#45;&gt;Node31</title>
<path fill="none" stroke="midnightblue" d="M66.59,-605.22C74.79,-597.32 87.34,-585.22 97.32,-575.61"/>
<polygon fill="midnightblue" stroke="midnightblue" points="99.87,-578.01 104.65,-568.55 95.02,-572.97 99.87,-578.01"/>
</g>
<!-- Node32&#45;&gt;Node27 -->
<g id="edge41" class="edge">
<title>Node32&#45;&gt;Node27</title>
<path fill="none" stroke="midnightblue" d="M149.06,-605.45C162.57,-597.12 183.92,-583.97 200.03,-574.04"/>
<polygon fill="midnightblue" stroke="midnightblue" points="202.14,-576.85 208.82,-568.63 198.47,-570.89 202.14,-576.85"/>
</g>
<!-- Node33&#45;&gt;Node27 -->
<g id="edge61" class="edge">
<title>Node33&#45;&gt;Node27</title>
<path fill="none" stroke="midnightblue" d="M461.67,-660.47C440.23,-651.57 404.64,-636.77 374,-624 331.07,-606.11 281.35,-585.32 250.78,-572.54"/>
<polygon fill="midnightblue" stroke="midnightblue" points="251.77,-569.16 241.19,-568.53 249.07,-575.62 251.77,-569.16"/>
</g>
<!-- Node34 -->
<g id="node34" class="node">
<title>Node34</title>
<g id="a_node34"><a xlink:href="../../d8/dd6/_e_q_t_b_8h.html" target="_top" xlink:title=" ">
<polygon fill="none" stroke="black" points="599.77,-605.5 599.77,-623.5 680.23,-623.5 680.23,-605.5 599.77,-605.5"/>
<text text-anchor="middle" x="640" y="-611.5" font-family="Helvetica,sans-Serif" font-size="10.00">tralics/EQTB.h</text>
</a>
</g>
</g>
<!-- Node33&#45;&gt;Node34 -->
<g id="edge43" class="edge">
<title>Node33&#45;&gt;Node34</title>
<path fill="none" stroke="midnightblue" d="M505.15,-660.45C532.08,-651.47 575.82,-636.89 606.16,-626.78"/>
<polygon fill="midnightblue" stroke="midnightblue" points="607.51,-630.02 615.89,-623.54 605.29,-623.38 607.51,-630.02"/>
</g>
<!-- Node36 -->
<g id="node36" class="node">
<title>Node36</title>
<g id="a_node36"><a xlink:href="../../d3/d6b/txcond_8h.html" target="_top" xlink:title=" ">
<polygon fill="none" stroke="black" points="318.1,-440.5 318.1,-458.5 371.9,-458.5 371.9,-440.5 318.1,-440.5"/>
<text text-anchor="middle" x="345" y="-446.5" font-family="Helvetica,sans-Serif" font-size="10.00">txcond.h</text>
</a>
</g>
</g>
<!-- Node33&#45;&gt;Node36 -->
<g id="edge50" class="edge">
<title>Node33&#45;&gt;Node36</title>
<path fill="none" stroke="midnightblue" d="M466.97,-660.42C442.71,-645.64 393.18,-611.8 369,-569 350.9,-536.96 346.33,-493.23 345.25,-468.85"/>
<polygon fill="midnightblue" stroke="midnightblue" points="348.74,-468.46 344.96,-458.57 341.75,-468.66 348.74,-468.46"/>
</g>
<!-- Node37 -->
<g id="node37" class="node">
<title>Node37</title>
<g id="a_node37"><a xlink:href="../../d7/d4d/txfonts_8h.html" target="_top" xlink:title=" ">
<polygon fill="none" stroke="black" points="378.1,-550.5 378.1,-568.5 431.9,-568.5 431.9,-550.5 378.1,-550.5"/>
<text text-anchor="middle" x="405" y="-556.5" font-family="Helvetica,sans-Serif" font-size="10.00">txfonts.h</text>
</a>
</g>
</g>
<!-- Node33&#45;&gt;Node37 -->
<g id="edge53" class="edge">
<title>Node33&#45;&gt;Node37</title>
<path fill="none" stroke="midnightblue" d="M473.79,-660.2C466.3,-651.43 454.37,-637.09 445,-624 434,-608.63 422.63,-590.3 414.83,-577.29"/>
<polygon fill="midnightblue" stroke="midnightblue" points="417.74,-575.34 409.64,-568.52 411.72,-578.9 417.74,-575.34"/>
</g>
<!-- Node38 -->
<g id="node38" class="node">
<title>Node38</title>
<g id="a_node38"><a xlink:href="../../d7/d7e/txhash_8h.html" target="_top" xlink:title=" ">
<polygon fill="none" stroke="black" points="454.1,-605.5 454.1,-623.5 507.9,-623.5 507.9,-605.5 454.1,-605.5"/>
<text text-anchor="middle" x="481" y="-611.5" font-family="Helvetica,sans-Serif" font-size="10.00">txhash.h</text>
</a>
</g>
</g>
<!-- Node33&#45;&gt;Node38 -->
<g id="edge55" class="edge">
<title>Node33&#45;&gt;Node38</title>
<path fill="none" stroke="midnightblue" d="M481,-660.22C481,-653.18 481,-642.81 481,-633.83"/>
<polygon fill="midnightblue" stroke="midnightblue" points="484.5,-633.55 481,-623.55 477.5,-633.55 484.5,-633.55"/>
</g>
<!-- Node40 -->
<g id="node40" class="node">
<title>Node40</title>
<g id="a_node40"><a xlink:href="../../de/d7c/tximage_8h.html" target="_top" xlink:title=" ">
<polygon fill="none" stroke="black" points="808.32,-330.5 808.32,-348.5 867.68,-348.5 867.68,-330.5 808.32,-330.5"/>
<text text-anchor="middle" x="838" y="-336.5" font-family="Helvetica,sans-Serif" font-size="10.00">tximage.h</text>
</a>
</g>
</g>
<!-- Node33&#45;&gt;Node40 -->
<g id="edge58" class="edge">
<title>Node33&#45;&gt;Node40</title>
<path fill="none" stroke="midnightblue" d="M511.35,-669.41C564.71,-669.79 677.56,-665.14 761,-624 797.8,-605.86 828,-601.53 828,-560.5 828,-560.5 828,-560.5 828,-448.5 828,-416.74 832.34,-379.94 835.3,-358.54"/>
<polygon fill="midnightblue" stroke="midnightblue" points="838.77,-359 836.73,-348.61 831.84,-358 838.77,-359"/>
</g>
<!-- Node41 -->
<g id="node41" class="node">
<title>Node41</title>
<g id="a_node41"><a xlink:href="../../dc/d65/txstack_8h.html" target="_top" xlink:title=" ">
<polygon fill="none" stroke="black" points="526.27,-605.5 526.27,-623.5 581.73,-623.5 581.73,-605.5 526.27,-605.5"/>
<text text-anchor="middle" x="554" y="-611.5" font-family="Helvetica,sans-Serif" font-size="10.00">txstack.h</text>
</a>
</g>
</g>
<!-- Node33&#45;&gt;Node41 -->
<g id="edge62" class="edge">
<title>Node33&#45;&gt;Node41</title>
<path fill="none" stroke="midnightblue" d="M492.09,-660.45C503.34,-652.28 521,-639.46 534.58,-629.6"/>
<polygon fill="midnightblue" stroke="midnightblue" points="536.77,-632.33 542.81,-623.63 532.66,-626.67 536.77,-632.33"/>
</g>
<!-- Node43 -->
<g id="node43" class="node">
<title>Node43</title>
<g id="a_node43"><a xlink:href="../../d8/d3d/txstats_8h.html" target="_top" xlink:title=" ">
<polygon fill="none" stroke="black" points="698.38,-605.5 698.38,-623.5 751.62,-623.5 751.62,-605.5 698.38,-605.5"/>
<text text-anchor="middle" x="725" y="-611.5" font-family="Helvetica,sans-Serif" font-size="10.00">txstats.h</text>
</a>
</g>
</g>
<!-- Node33&#45;&gt;Node43 -->
<g id="edge68" class="edge">
<title>Node33&#45;&gt;Node43</title>
<path fill="none" stroke="midnightblue" d="M511.01,-662.29C549.66,-654.24 619.17,-639.62 688.5,-624.07"/>
<polygon fill="midnightblue" stroke="midnightblue" points="689.29,-627.48 698.28,-621.88 687.75,-620.65 689.29,-627.48"/>
</g>
<!-- Node34&#45;&gt;Node3 -->
<g id="edge48" class="edge">
<title>Node34&#45;&gt;Node3</title>
<path fill="none" stroke="midnightblue" d="M645.19,-605.37C650.37,-596.74 657.97,-582.5 661,-569 662.85,-560.76 662.19,-558.36 661,-550 656,-514.89 615.11,-391.18 609,-385 574.01,-349.62 542.23,-379.6 503,-349 487.51,-336.92 476.12,-317.26 469.33,-303.01"/>
<polygon fill="midnightblue" stroke="midnightblue" points="472.48,-301.48 465.2,-293.78 466.09,-304.34 472.48,-301.48"/>
</g>
<!-- Node34&#45;&gt;Node19 -->
<g id="edge49" class="edge">
<title>Node34&#45;&gt;Node19</title>
<path fill="none" stroke="midnightblue" d="M656.84,-605.44C685.81,-590.26 742,-554.5 742,-505.5 742,-505.5 742,-505.5 742,-338.5 742,-306.61 735.92,-269.85 731.78,-248.49"/>
<polygon fill="midnightblue" stroke="midnightblue" points="735.18,-247.69 729.77,-238.58 728.32,-249.08 735.18,-247.69"/>
</g>
<!-- Node34&#45;&gt;Node20 -->
<g id="edge44" class="edge">
<title>Node34&#45;&gt;Node20</title>
<path fill="none" stroke="midnightblue" d="M642.71,-605.17C646.29,-592.92 651.62,-569.42 647,-550 634.11,-495.88 599.06,-439.22 580.65,-412.01"/>
<polygon fill="midnightblue" stroke="midnightblue" points="583.45,-409.91 574.9,-403.66 577.69,-413.88 583.45,-409.91"/>
</g>
<!-- Node35 -->
<g id="node35" class="node">
<title>Node35</title>
<g id="a_node35"><a xlink:href="../../d1/d43/txxml_8h.html" target="_top" xlink:title=" ">
<polygon fill="none" stroke="black" points="520,-550.5 520,-568.5 576,-568.5 576,-550.5 520,-550.5"/>
<text text-anchor="middle" x="548" y="-556.5" font-family="Helvetica,sans-Serif" font-size="10.00">../txxml.h</text>
</a>
</g>
</g>
<!-- Node34&#45;&gt;Node35 -->
<g id="edge45" class="edge">
<title>Node34&#45;&gt;Node35</title>
<path fill="none" stroke="midnightblue" d="M626.03,-605.45C611.44,-597.05 588.31,-583.72 571.02,-573.76"/>
<polygon fill="midnightblue" stroke="midnightblue" points="572.52,-570.58 562.1,-568.63 569.02,-576.65 572.52,-570.58"/>
</g>
<!-- Node35&#45;&gt;Node24 -->
<g id="edge47" class="edge">
<title>Node35&#45;&gt;Node24</title>
<path fill="none" stroke="midnightblue" d="M545.74,-550.26C542.39,-538.13 535.88,-514.77 530,-495 521.47,-466.32 511.02,-433.17 504.7,-413.3"/>
<polygon fill="midnightblue" stroke="midnightblue" points="508.02,-412.2 501.64,-403.73 501.35,-414.32 508.02,-412.2"/>
</g>
<!-- Node35&#45;&gt;Node29 -->
<g id="edge46" class="edge">
<title>Node35&#45;&gt;Node29</title>
<path fill="none" stroke="midnightblue" d="M539.04,-550.45C530.2,-542.51 516.48,-530.19 505.64,-520.45"/>
<polygon fill="midnightblue" stroke="midnightblue" points="507.82,-517.7 498.05,-513.63 503.15,-522.91 507.82,-517.7"/>
</g>
<!-- Node36&#45;&gt;Node11 -->
<g id="edge51" class="edge">
<title>Node36&#45;&gt;Node11</title>
<path fill="none" stroke="midnightblue" d="M318.02,-444.92C243.11,-434.25 38,-399.61 38,-340.5 38,-340.5 38,-340.5 38,-283.5 38,-195.89 355.18,-179.32 465.62,-176.21"/>
<polygon fill="midnightblue" stroke="midnightblue" points="465.74,-179.71 475.65,-175.95 465.56,-172.71 465.74,-179.71"/>
</g>
<!-- Node36&#45;&gt;Node24 -->
<g id="edge52" class="edge">
<title>Node36&#45;&gt;Node24</title>
<path fill="none" stroke="midnightblue" d="M368.39,-440.45C394.88,-431.33 438.19,-416.43 467.61,-406.3"/>
<polygon fill="midnightblue" stroke="midnightblue" points="469.07,-409.5 477.38,-402.94 466.79,-402.88 469.07,-409.5"/>
</g>
<!-- Node37&#45;&gt;Node29 -->
<g id="edge54" class="edge">
<title>Node37&#45;&gt;Node29</title>
<path fill="none" stroke="midnightblue" d="M417.76,-550.45C430.96,-542.12 451.8,-528.97 467.54,-519.04"/>
<polygon fill="midnightblue" stroke="midnightblue" points="469.53,-521.92 476.12,-513.63 465.8,-516 469.53,-521.92"/>
</g>
<!-- Node39 -->
<g id="node39" class="node">
<title>Node39</title>
<g id="a_node39"><a xlink:href="../../d3/d01/txeqtb_8h.html" target="_top" xlink:title=" ">
<polygon fill="none" stroke="black" points="450.21,-550.5 450.21,-568.5 501.79,-568.5 501.79,-550.5 450.21,-550.5"/>
<text text-anchor="middle" x="476" y="-556.5" font-family="Helvetica,sans-Serif" font-size="10.00">txeqtb.h</text>
</a>
</g>
</g>
<!-- Node38&#45;&gt;Node39 -->
<g id="edge56" class="edge">
<title>Node38&#45;&gt;Node39</title>
<path fill="none" stroke="midnightblue" d="M480.22,-605.22C479.55,-598.1 478.55,-587.58 477.7,-578.53"/>
<polygon fill="midnightblue" stroke="midnightblue" points="481.18,-578.18 476.76,-568.55 474.21,-578.83 481.18,-578.18"/>
</g>
<!-- Node39&#45;&gt;Node29 -->
<g id="edge57" class="edge">
<title>Node39&#45;&gt;Node29</title>
<path fill="none" stroke="midnightblue" d="M478.03,-550.22C479.78,-543.1 482.36,-532.58 484.58,-523.53"/>
<polygon fill="midnightblue" stroke="midnightblue" points="488.04,-524.1 487.03,-513.55 481.24,-522.43 488.04,-524.1"/>
</g>
<!-- Node40&#45;&gt;Node19 -->
<g id="edge59" class="edge">
<title>Node40&#45;&gt;Node19</title>
<path fill="none" stroke="midnightblue" d="M837.27,-330.09C835.71,-316.89 830.98,-291.16 817,-275 801.6,-257.2 777.38,-245.74 758.09,-238.92"/>
<polygon fill="midnightblue" stroke="midnightblue" points="759.12,-235.57 748.53,-235.76 756.93,-242.22 759.12,-235.57"/>
</g>
<!-- Node40&#45;&gt;Node22 -->
<g id="edge60" class="edge">
<title>Node40&#45;&gt;Node22</title>
<path fill="none" stroke="midnightblue" d="M830.34,-330.22C823.18,-322.47 812.3,-310.7 803.5,-301.18"/>
<polygon fill="midnightblue" stroke="midnightblue" points="805.8,-298.52 796.44,-293.55 800.66,-303.27 805.8,-298.52"/>
</g>
<!-- Node41&#45;&gt;Node35 -->
<g id="edge67" class="edge">
<title>Node41&#45;&gt;Node35</title>
<path fill="none" stroke="midnightblue" d="M553.06,-605.22C552.26,-598.1 551.07,-587.58 550.04,-578.53"/>
<polygon fill="midnightblue" stroke="midnightblue" points="553.51,-578.09 548.91,-568.55 546.56,-578.88 553.51,-578.09"/>
</g>
<!-- Node42 -->
<g id="node42" class="node">
<title>Node42</title>
<g id="a_node42"><a xlink:href="../../d4/da4/txatt_8h.html" target="_top" xlink:title=" ">
<polygon fill="none" stroke="black" points="594.38,-550.5 594.38,-568.5 637.62,-568.5 637.62,-550.5 594.38,-550.5"/>
<text text-anchor="middle" x="616" y="-556.5" font-family="Helvetica,sans-Serif" font-size="10.00">txatt.h</text>
</a>
</g>
</g>
<!-- Node41&#45;&gt;Node42 -->
<g id="edge63" class="edge">
<title>Node41&#45;&gt;Node42</title>
<path fill="none" stroke="midnightblue" d="M563.42,-605.45C572.79,-597.43 587.4,-584.95 598.84,-575.17"/>
<polygon fill="midnightblue" stroke="midnightblue" points="601.17,-577.78 606.49,-568.63 596.62,-572.46 601.17,-577.78"/>
</g>
<!-- Node42&#45;&gt;Node10 -->
<g id="edge65" class="edge">
<title>Node42&#45;&gt;Node10</title>
<path fill="none" stroke="midnightblue" d="M619.28,-550.34C630.4,-521.91 666,-424.37 666,-340.5 666,-340.5 666,-340.5 666,-228.5 666,-196.44 658.18,-159.74 652.85,-138.43"/>
<polygon fill="midnightblue" stroke="midnightblue" points="656.19,-137.35 650.28,-128.55 649.41,-139.11 656.19,-137.35"/>
</g>
<!-- Node42&#45;&gt;Node24 -->
<g id="edge66" class="edge">
<title>Node42&#45;&gt;Node24</title>
<path fill="none" stroke="midnightblue" d="M610.04,-550.19C591.65,-524.58 535.58,-446.46 510.89,-412.06"/>
<polygon fill="midnightblue" stroke="midnightblue" points="513.49,-409.68 504.81,-403.6 507.8,-413.76 513.49,-409.68"/>
</g>
<!-- Node42&#45;&gt;Node29 -->
<g id="edge64" class="edge">
<title>Node42&#45;&gt;Node29</title>
<path fill="none" stroke="midnightblue" d="M596.71,-550.45C575.73,-541.7 541.97,-527.61 517.84,-517.53"/>
<polygon fill="midnightblue" stroke="midnightblue" points="519.05,-514.25 508.47,-513.63 516.35,-520.71 519.05,-514.25"/>
</g>
</g>
</svg>
