<?xml version="1.0" encoding="UTF-8" standalone="no"?>
<!DOCTYPE svg PUBLIC "-//W3C//DTD SVG 1.1//EN"
 "http://www.w3.org/Graphics/SVG/1.1/DTD/svg11.dtd">
<!-- Generated by graphviz version 2.42.3 (20191010.1750)
 -->
<!-- Title: txparser2.cpp Pages: 1 -->
<svg width="755pt" height="742pt"
 viewBox="0.00 0.00 754.70 742.00" xmlns="http://www.w3.org/2000/svg" xmlns:xlink="http://www.w3.org/1999/xlink">
<g id="graph0" class="graph" transform="scale(1 1) rotate(0) translate(4 738)">
<title>txparser2.cpp</title>
<polygon fill="white" stroke="transparent" points="-4,4 -4,-738 750.7,-738 750.7,4 -4,4"/>
<!-- Node1 -->
<g id="node1" class="node">
<title>Node1</title>
<g id="a_node1"><a xlink:title=" ">
<polygon fill="#bfbfbf" stroke="black" points="319.39,-715.5 319.39,-733.5 395.98,-733.5 395.98,-715.5 319.39,-715.5"/>
<text text-anchor="middle" x="357.68" y="-721.5" font-family="Helvetica,sans-Serif" font-size="10.00">txparser2.cpp</text>
</a>
</g>
</g>
<!-- Node2 -->
<g id="node2" class="node">
<title>Node2</title>
<g id="a_node2"><a xlink:href="../../dc/dd7/txclasses_8h.html" target="_top" xlink:title=" ">
<polygon fill="white" stroke="black" points="251.95,-495.5 251.95,-513.5 317.42,-513.5 317.42,-495.5 251.95,-495.5"/>
<text text-anchor="middle" x="284.68" y="-501.5" font-family="Helvetica,sans-Serif" font-size="10.00">txclasses.h</text>
</a>
</g>
</g>
<!-- Node1&#45;&gt;Node2 -->
<g id="edge1" class="edge">
<title>Node1&#45;&gt;Node2</title>
<path fill="none" stroke="midnightblue" d="M355,-715.48C344.45,-683.97 305.67,-568.18 290.67,-523.37"/>
<polygon fill="midnightblue" stroke="midnightblue" points="293.97,-522.19 287.47,-513.82 287.33,-524.42 293.97,-522.19"/>
</g>
<!-- Node25 -->
<g id="node25" class="node">
<title>Node25</title>
<g id="a_node25"><a xlink:href="../../d7/d79/txinline_8h.html" target="_top" xlink:title=" ">
<polygon fill="white" stroke="black" points="128.95,-660.5 128.95,-678.5 184.42,-678.5 184.42,-660.5 128.95,-660.5"/>
<text text-anchor="middle" x="156.68" y="-666.5" font-family="Helvetica,sans-Serif" font-size="10.00">txinline.h</text>
</a>
</g>
</g>
<!-- Node1&#45;&gt;Node25 -->
<g id="edge30" class="edge">
<title>Node1&#45;&gt;Node25</title>
<path fill="none" stroke="midnightblue" d="M327.16,-715.45C291.57,-706.07 232.74,-690.56 194.35,-680.43"/>
<polygon fill="midnightblue" stroke="midnightblue" points="195.14,-677.02 184.58,-677.86 193.36,-683.79 195.14,-677.02"/>
</g>
<!-- Node33 -->
<g id="node33" class="node">
<title>Node33</title>
<g id="a_node33"><a xlink:href="../../d2/d1b/txparser_8h.html" target="_top" xlink:title=" ">
<polygon fill="white" stroke="black" points="429.73,-660.5 429.73,-678.5 489.64,-678.5 489.64,-660.5 429.73,-660.5"/>
<text text-anchor="middle" x="459.68" y="-666.5" font-family="Helvetica,sans-Serif" font-size="10.00">txparser.h</text>
</a>
</g>
</g>
<!-- Node1&#45;&gt;Node33 -->
<g id="edge42" class="edge">
<title>Node1&#45;&gt;Node33</title>
<path fill="none" stroke="midnightblue" d="M373.18,-715.45C389.58,-706.93 415.7,-693.35 434.96,-683.35"/>
<polygon fill="midnightblue" stroke="midnightblue" points="436.79,-686.34 444.05,-678.63 433.56,-680.13 436.79,-686.34"/>
</g>
<!-- Node43 -->
<g id="node43" class="node">
<title>Node43</title>
<g id="a_node43"><a xlink:href="../../da/d5e/txparser2_8h.html" target="_top" xlink:title=" ">
<polygon fill="white" stroke="black" points="680.67,-440.5 680.67,-458.5 746.7,-458.5 746.7,-440.5 680.67,-440.5"/>
<text text-anchor="middle" x="713.68" y="-446.5" font-family="Helvetica,sans-Serif" font-size="10.00">txparser2.h</text>
</a>
</g>
</g>
<!-- Node1&#45;&gt;Node43 -->
<g id="edge59" class="edge">
<title>Node1&#45;&gt;Node43</title>
<path fill="none" stroke="midnightblue" d="M396.14,-719.66C485.91,-709.64 701.68,-678.96 701.68,-615.5 701.68,-615.5 701.68,-615.5 701.68,-558.5 701.68,-526.68 706.89,-489.9 710.45,-468.52"/>
<polygon fill="midnightblue" stroke="midnightblue" points="713.91,-469.04 712.16,-458.59 707.01,-467.85 713.91,-469.04"/>
</g>
<!-- Node3 -->
<g id="node3" class="node">
<title>Node3</title>
<g id="a_node3"><a xlink:href="../../dd/d74/txbuffer_8h.html" target="_top" xlink:title=" ">
<polygon fill="white" stroke="black" points="341.2,-440.5 341.2,-458.5 398.17,-458.5 398.17,-440.5 341.2,-440.5"/>
<text text-anchor="middle" x="369.68" y="-446.5" font-family="Helvetica,sans-Serif" font-size="10.00">txbuffer.h</text>
</a>
</g>
</g>
<!-- Node2&#45;&gt;Node3 -->
<g id="edge2" class="edge">
<title>Node2&#45;&gt;Node3</title>
<path fill="none" stroke="midnightblue" d="M297.59,-495.45C310.95,-487.12 332.04,-473.97 347.97,-464.04"/>
<polygon fill="midnightblue" stroke="midnightblue" points="350.02,-466.89 356.65,-458.63 346.32,-460.95 350.02,-466.89"/>
</g>
<!-- Node4 -->
<g id="node4" class="node">
<title>Node4</title>
<g id="a_node4"><a xlink:href="../../d1/d9e/txid_8h.html" target="_top" xlink:title=" ">
<polygon fill="white" stroke="black" points="532.73,-330.5 532.73,-348.5 572.64,-348.5 572.64,-330.5 532.73,-330.5"/>
<text text-anchor="middle" x="552.68" y="-336.5" font-family="Helvetica,sans-Serif" font-size="10.00">txid.h</text>
</a>
</g>
</g>
<!-- Node3&#45;&gt;Node4 -->
<g id="edge3" class="edge">
<title>Node3&#45;&gt;Node4</title>
<path fill="none" stroke="midnightblue" d="M398.34,-443.38C426.12,-437.38 468.53,-425.43 499.68,-404 517.56,-391.7 532.8,-371.79 542.29,-357.55"/>
<polygon fill="midnightblue" stroke="midnightblue" points="545.47,-359.06 547.9,-348.75 539.57,-355.3 545.47,-359.06"/>
</g>
<!-- Node14 -->
<g id="node14" class="node">
<title>Node14</title>
<g id="a_node14"><a xlink:href="../../d9/d18/txscaled_8h.html" target="_top" xlink:title=" ">
<polygon fill="white" stroke="black" points="429.17,-385.5 429.17,-403.5 490.2,-403.5 490.2,-385.5 429.17,-385.5"/>
<text text-anchor="middle" x="459.68" y="-391.5" font-family="Helvetica,sans-Serif" font-size="10.00">txscaled.h</text>
</a>
</g>
</g>
<!-- Node3&#45;&gt;Node14 -->
<g id="edge13" class="edge">
<title>Node3&#45;&gt;Node14</title>
<path fill="none" stroke="midnightblue" d="M383.35,-440.45C397.63,-432.05 420.25,-418.72 437.16,-408.76"/>
<polygon fill="midnightblue" stroke="midnightblue" points="439.05,-411.72 445.89,-403.63 435.49,-405.68 439.05,-411.72"/>
</g>
<!-- Node20 -->
<g id="node20" class="node">
<title>Node20</title>
<g id="a_node20"><a xlink:title=" ">
<polygon fill="white" stroke="#bfbfbf" points="293.17,-110.5 293.17,-128.5 344.2,-128.5 344.2,-110.5 293.17,-110.5"/>
<text text-anchor="middle" x="318.68" y="-116.5" font-family="Helvetica,sans-Serif" font-size="10.00">optional</text>
</a>
</g>
</g>
<!-- Node3&#45;&gt;Node20 -->
<g id="edge28" class="edge">
<title>Node3&#45;&gt;Node20</title>
<path fill="none" stroke="midnightblue" d="M360.09,-440.36C341.56,-423.67 302.68,-383.53 302.68,-340.5 302.68,-340.5 302.68,-340.5 302.68,-228.5 302.68,-196.53 309.63,-159.8 314.37,-138.46"/>
<polygon fill="midnightblue" stroke="midnightblue" points="317.82,-139.1 316.66,-128.57 311,-137.52 317.82,-139.1"/>
</g>
<!-- Node23 -->
<g id="node23" class="node">
<title>Node23</title>
<g id="a_node23"><a xlink:title=" ">
<polygon fill="white" stroke="#bfbfbf" points="346.96,-385.5 346.96,-403.5 392.41,-403.5 392.41,-385.5 346.96,-385.5"/>
<text text-anchor="middle" x="369.68" y="-391.5" font-family="Helvetica,sans-Serif" font-size="10.00">cstring</text>
</a>
</g>
</g>
<!-- Node3&#45;&gt;Node23 -->
<g id="edge27" class="edge">
<title>Node3&#45;&gt;Node23</title>
<path fill="none" stroke="midnightblue" d="M369.68,-440.22C369.68,-433.18 369.68,-422.81 369.68,-413.83"/>
<polygon fill="midnightblue" stroke="midnightblue" points="373.18,-413.55 369.68,-403.55 366.18,-413.55 373.18,-413.55"/>
</g>
<!-- Node24 -->
<g id="node24" class="node">
<title>Node24</title>
<g id="a_node24"><a xlink:title=" ">
<polygon fill="white" stroke="#bfbfbf" points="571.07,-385.5 571.07,-403.5 614.3,-403.5 614.3,-385.5 571.07,-385.5"/>
<text text-anchor="middle" x="592.68" y="-391.5" font-family="Helvetica,sans-Serif" font-size="10.00">vector</text>
</a>
</g>
</g>
<!-- Node3&#45;&gt;Node24 -->
<g id="edge29" class="edge">
<title>Node3&#45;&gt;Node24</title>
<path fill="none" stroke="midnightblue" d="M398.38,-441.68C440.2,-431.74 517.62,-413.34 561.04,-403.02"/>
<polygon fill="midnightblue" stroke="midnightblue" points="561.87,-406.42 570.79,-400.7 560.26,-399.61 561.87,-406.42"/>
</g>
<!-- Node5 -->
<g id="node5" class="node">
<title>Node5</title>
<g id="a_node5"><a xlink:href="../../dc/de8/txvars_8h.html" target="_top" xlink:title=" ">
<polygon fill="white" stroke="black" points="527.18,-275.5 527.18,-293.5 578.19,-293.5 578.19,-275.5 527.18,-275.5"/>
<text text-anchor="middle" x="552.68" y="-281.5" font-family="Helvetica,sans-Serif" font-size="10.00">txvars.h</text>
</a>
</g>
</g>
<!-- Node4&#45;&gt;Node5 -->
<g id="edge4" class="edge">
<title>Node4&#45;&gt;Node5</title>
<path fill="none" stroke="midnightblue" d="M552.68,-330.22C552.68,-323.18 552.68,-312.81 552.68,-303.83"/>
<polygon fill="midnightblue" stroke="midnightblue" points="556.18,-303.55 552.68,-293.55 549.18,-303.55 556.18,-303.55"/>
</g>
<!-- Node13 -->
<g id="node13" class="node">
<title>Node13</title>
<g id="a_node13"><a xlink:title=" ">
<polygon fill="white" stroke="#bfbfbf" points="590.46,-220.5 590.46,-238.5 630.91,-238.5 630.91,-220.5 590.46,-220.5"/>
<text text-anchor="middle" x="610.68" y="-226.5" font-family="Helvetica,sans-Serif" font-size="10.00">string</text>
</a>
</g>
</g>
<!-- Node4&#45;&gt;Node13 -->
<g id="edge12" class="edge">
<title>Node4&#45;&gt;Node13</title>
<path fill="none" stroke="midnightblue" d="M560.54,-330.22C568.29,-321.69 580.05,-307.75 587.68,-294 595.78,-279.43 601.98,-261.45 605.89,-248.35"/>
<polygon fill="midnightblue" stroke="midnightblue" points="609.27,-249.25 608.63,-238.67 602.54,-247.34 609.27,-249.25"/>
</g>
<!-- Node6 -->
<g id="node6" class="node">
<title>Node6</title>
<g id="a_node6"><a xlink:href="../../d0/d0b/enums_8h.html" target="_top" xlink:title=" ">
<polygon fill="white" stroke="black" points="421.06,-165.5 421.06,-183.5 504.31,-183.5 504.31,-165.5 421.06,-165.5"/>
<text text-anchor="middle" x="462.68" y="-171.5" font-family="Helvetica,sans-Serif" font-size="10.00">tralics/enums.h</text>
</a>
</g>
</g>
<!-- Node5&#45;&gt;Node6 -->
<g id="edge5" class="edge">
<title>Node5&#45;&gt;Node6</title>
<path fill="none" stroke="midnightblue" d="M545.92,-275.38C531.13,-257.63 495.68,-215.1 476.16,-191.67"/>
<polygon fill="midnightblue" stroke="midnightblue" points="478.62,-189.15 469.53,-183.71 473.24,-193.63 478.62,-189.15"/>
</g>
<!-- Node12 -->
<g id="node12" class="node">
<title>Node12</title>
<g id="a_node12"><a xlink:title=" ">
<polygon fill="white" stroke="#bfbfbf" points="533.29,-220.5 533.29,-238.5 572.08,-238.5 572.08,-220.5 533.29,-220.5"/>
<text text-anchor="middle" x="552.68" y="-226.5" font-family="Helvetica,sans-Serif" font-size="10.00">array</text>
</a>
</g>
</g>
<!-- Node5&#45;&gt;Node12 -->
<g id="edge11" class="edge">
<title>Node5&#45;&gt;Node12</title>
<path fill="none" stroke="midnightblue" d="M552.68,-275.22C552.68,-268.18 552.68,-257.81 552.68,-248.83"/>
<polygon fill="midnightblue" stroke="midnightblue" points="556.18,-248.55 552.68,-238.55 549.18,-248.55 556.18,-248.55"/>
</g>
<!-- Node7 -->
<g id="node7" class="node">
<title>Node7</title>
<g id="a_node7"><a xlink:href="../../d8/db5/consts_8h.html" target="_top" xlink:title=" ">
<polygon fill="white" stroke="black" points="424.06,-110.5 424.06,-128.5 477.31,-128.5 477.31,-110.5 424.06,-110.5"/>
<text text-anchor="middle" x="450.68" y="-116.5" font-family="Helvetica,sans-Serif" font-size="10.00">consts.h</text>
</a>
</g>
</g>
<!-- Node6&#45;&gt;Node7 -->
<g id="edge6" class="edge">
<title>Node6&#45;&gt;Node7</title>
<path fill="none" stroke="midnightblue" d="M460.81,-165.22C459.2,-158.1 456.82,-147.58 454.77,-138.53"/>
<polygon fill="midnightblue" stroke="midnightblue" points="458.13,-137.53 452.51,-128.55 451.3,-139.08 458.13,-137.53"/>
</g>
<!-- Node8 -->
<g id="node8" class="node">
<title>Node8</title>
<g id="a_node8"><a xlink:href="../../d9/d49/types_8h.html" target="_top" xlink:title=" ">
<polygon fill="white" stroke="black" points="389.56,-55.5 389.56,-73.5 437.81,-73.5 437.81,-55.5 389.56,-55.5"/>
<text text-anchor="middle" x="413.68" y="-61.5" font-family="Helvetica,sans-Serif" font-size="10.00">types.h</text>
</a>
</g>
</g>
<!-- Node7&#45;&gt;Node8 -->
<g id="edge7" class="edge">
<title>Node7&#45;&gt;Node8</title>
<path fill="none" stroke="midnightblue" d="M444.9,-110.22C439.6,-102.63 431.61,-91.18 425.04,-81.76"/>
<polygon fill="midnightblue" stroke="midnightblue" points="427.9,-79.75 419.3,-73.55 422.16,-83.75 427.9,-79.75"/>
</g>
<!-- Node9 -->
<g id="node9" class="node">
<title>Node9</title>
<g id="a_node9"><a xlink:title=" ">
<polygon fill="white" stroke="#bfbfbf" points="321.57,-0.5 321.57,-18.5 369.8,-18.5 369.8,-0.5 321.57,-0.5"/>
<text text-anchor="middle" x="345.68" y="-6.5" font-family="Helvetica,sans-Serif" font-size="10.00">cassert</text>
</a>
</g>
</g>
<!-- Node8&#45;&gt;Node9 -->
<g id="edge8" class="edge">
<title>Node8&#45;&gt;Node9</title>
<path fill="none" stroke="midnightblue" d="M403.36,-55.45C392.97,-47.36 376.74,-34.7 364.14,-24.88"/>
<polygon fill="midnightblue" stroke="midnightblue" points="366.15,-22.01 356.11,-18.63 361.85,-27.53 366.15,-22.01"/>
</g>
<!-- Node10 -->
<g id="node10" class="node">
<title>Node10</title>
<g id="a_node10"><a xlink:title=" ">
<polygon fill="white" stroke="#bfbfbf" points="387.89,-0.5 387.89,-18.5 439.48,-18.5 439.48,-0.5 387.89,-0.5"/>
<text text-anchor="middle" x="413.68" y="-6.5" font-family="Helvetica,sans-Serif" font-size="10.00">stddef.h</text>
</a>
</g>
</g>
<!-- Node8&#45;&gt;Node10 -->
<g id="edge9" class="edge">
<title>Node8&#45;&gt;Node10</title>
<path fill="none" stroke="midnightblue" d="M413.68,-55.22C413.68,-48.18 413.68,-37.81 413.68,-28.83"/>
<polygon fill="midnightblue" stroke="midnightblue" points="417.18,-28.55 413.68,-18.55 410.18,-28.55 417.18,-28.55"/>
</g>
<!-- Node11 -->
<g id="node11" class="node">
<title>Node11</title>
<g id="a_node11"><a xlink:title=" ">
<polygon fill="white" stroke="#bfbfbf" points="457.62,-0.5 457.62,-18.5 519.75,-18.5 519.75,-0.5 457.62,-0.5"/>
<text text-anchor="middle" x="488.68" y="-6.5" font-family="Helvetica,sans-Serif" font-size="10.00">type_traits</text>
</a>
</g>
</g>
<!-- Node8&#45;&gt;Node11 -->
<g id="edge10" class="edge">
<title>Node8&#45;&gt;Node11</title>
<path fill="none" stroke="midnightblue" d="M425.08,-55.45C436.64,-47.28 454.78,-34.46 468.73,-24.6"/>
<polygon fill="midnightblue" stroke="midnightblue" points="471.04,-27.25 477.19,-18.63 467,-21.54 471.04,-27.25"/>
</g>
<!-- Node15 -->
<g id="node15" class="node">
<title>Node15</title>
<g id="a_node15"><a xlink:href="../../dc/d91/txtokenlist_8h.html" target="_top" xlink:title=" ">
<polygon fill="white" stroke="black" points="434.28,-330.5 434.28,-348.5 503.09,-348.5 503.09,-330.5 434.28,-330.5"/>
<text text-anchor="middle" x="468.68" y="-336.5" font-family="Helvetica,sans-Serif" font-size="10.00">txtokenlist.h</text>
</a>
</g>
</g>
<!-- Node14&#45;&gt;Node15 -->
<g id="edge14" class="edge">
<title>Node14&#45;&gt;Node15</title>
<path fill="none" stroke="midnightblue" d="M461.09,-385.22C462.3,-378.1 464.09,-367.58 465.62,-358.53"/>
<polygon fill="midnightblue" stroke="midnightblue" points="469.09,-358.99 467.32,-348.55 462.19,-357.82 469.09,-358.99"/>
</g>
<!-- Node15&#45;&gt;Node5 -->
<g id="edge25" class="edge">
<title>Node15&#45;&gt;Node5</title>
<path fill="none" stroke="midnightblue" d="M481.44,-330.45C494.64,-322.12 515.49,-308.97 531.23,-299.04"/>
<polygon fill="midnightblue" stroke="midnightblue" points="533.22,-301.92 539.81,-293.63 529.48,-296 533.22,-301.92"/>
</g>
<!-- Node16 -->
<g id="node16" class="node">
<title>Node16</title>
<g id="a_node16"><a xlink:href="../../d5/daf/_istring_8h.html" target="_top" xlink:title=" ">
<polygon fill="white" stroke="black" points="428.45,-275.5 428.45,-293.5 508.92,-293.5 508.92,-275.5 428.45,-275.5"/>
<text text-anchor="middle" x="468.68" y="-281.5" font-family="Helvetica,sans-Serif" font-size="10.00">tralics/Istring.h</text>
</a>
</g>
</g>
<!-- Node15&#45;&gt;Node16 -->
<g id="edge15" class="edge">
<title>Node15&#45;&gt;Node16</title>
<path fill="none" stroke="midnightblue" d="M468.68,-330.22C468.68,-323.18 468.68,-312.81 468.68,-303.83"/>
<polygon fill="midnightblue" stroke="midnightblue" points="472.18,-303.55 468.68,-293.55 465.18,-303.55 472.18,-303.55"/>
</g>
<!-- Node17 -->
<g id="node17" class="node">
<title>Node17</title>
<g id="a_node17"><a xlink:href="../../dd/dcd/_token_8h.html" target="_top" xlink:title=" ">
<polygon fill="white" stroke="black" points="330.73,-275.5 330.73,-293.5 410.64,-293.5 410.64,-275.5 330.73,-275.5"/>
<text text-anchor="middle" x="370.68" y="-281.5" font-family="Helvetica,sans-Serif" font-size="10.00">tralics/Token.h</text>
</a>
</g>
</g>
<!-- Node15&#45;&gt;Node17 -->
<g id="edge18" class="edge">
<title>Node15&#45;&gt;Node17</title>
<path fill="none" stroke="midnightblue" d="M453.8,-330.45C438.12,-321.97 413.17,-308.48 394.7,-298.49"/>
<polygon fill="midnightblue" stroke="midnightblue" points="396.17,-295.3 385.71,-293.63 392.84,-301.46 396.17,-295.3"/>
</g>
<!-- Node22 -->
<g id="node22" class="node">
<title>Node22</title>
<g id="a_node22"><a xlink:title=" ">
<polygon fill="white" stroke="#bfbfbf" points="672.29,-275.5 672.29,-293.5 711.08,-293.5 711.08,-275.5 672.29,-275.5"/>
<text text-anchor="middle" x="691.68" y="-281.5" font-family="Helvetica,sans-Serif" font-size="10.00">utility</text>
</a>
</g>
</g>
<!-- Node15&#45;&gt;Node22 -->
<g id="edge26" class="edge">
<title>Node15&#45;&gt;Node22</title>
<path fill="none" stroke="midnightblue" d="M502.55,-330.45C546.04,-320.11 620.81,-302.34 662.11,-292.53"/>
<polygon fill="midnightblue" stroke="midnightblue" points="663.18,-295.87 672.1,-290.16 661.56,-289.06 663.18,-295.87"/>
</g>
<!-- Node16&#45;&gt;Node6 -->
<g id="edge16" class="edge">
<title>Node16&#45;&gt;Node6</title>
<path fill="none" stroke="midnightblue" d="M468.23,-275.38C467.28,-258.18 465.03,-217.7 463.71,-193.89"/>
<polygon fill="midnightblue" stroke="midnightblue" points="467.19,-193.5 463.14,-183.71 460.2,-193.89 467.19,-193.5"/>
</g>
<!-- Node16&#45;&gt;Node13 -->
<g id="edge17" class="edge">
<title>Node16&#45;&gt;Node13</title>
<path fill="none" stroke="midnightblue" d="M490.25,-275.45C514.44,-266.42 553.81,-251.73 580.92,-241.61"/>
<polygon fill="midnightblue" stroke="midnightblue" points="582.15,-244.88 590.3,-238.11 579.71,-238.33 582.15,-244.88"/>
</g>
<!-- Node18 -->
<g id="node18" class="node">
<title>Node18</title>
<g id="a_node18"><a xlink:href="../../d2/d68/_cmd_chr_8h.html" target="_top" xlink:title=" ">
<polygon fill="white" stroke="black" points="331.17,-220.5 331.17,-238.5 392.19,-238.5 392.19,-220.5 331.17,-220.5"/>
<text text-anchor="middle" x="361.68" y="-226.5" font-family="Helvetica,sans-Serif" font-size="10.00">CmdChr.h</text>
</a>
</g>
</g>
<!-- Node17&#45;&gt;Node18 -->
<g id="edge19" class="edge">
<title>Node17&#45;&gt;Node18</title>
<path fill="none" stroke="midnightblue" d="M369.28,-275.22C368.07,-268.1 366.28,-257.58 364.75,-248.53"/>
<polygon fill="midnightblue" stroke="midnightblue" points="368.18,-247.82 363.05,-238.55 361.28,-248.99 368.18,-247.82"/>
</g>
<!-- Node21 -->
<g id="node21" class="node">
<title>Node21</title>
<g id="a_node21"><a xlink:title=" ">
<polygon fill="white" stroke="#bfbfbf" points="410.18,-220.5 410.18,-238.5 439.18,-238.5 439.18,-220.5 410.18,-220.5"/>
<text text-anchor="middle" x="424.3" y="-226.5" font-family="Helvetica,sans-Serif" font-size="10.00">list</text>
</a>
</g>
</g>
<!-- Node17&#45;&gt;Node21 -->
<g id="edge24" class="edge">
<title>Node17&#45;&gt;Node21</title>
<path fill="none" stroke="midnightblue" d="M379.12,-275.22C387.17,-267.32 399.49,-255.22 409.29,-245.61"/>
<polygon fill="midnightblue" stroke="midnightblue" points="411.8,-248.05 416.48,-238.55 406.89,-243.06 411.8,-248.05"/>
</g>
<!-- Node18&#45;&gt;Node6 -->
<g id="edge23" class="edge">
<title>Node18&#45;&gt;Node6</title>
<path fill="none" stroke="midnightblue" d="M377.02,-220.45C393.26,-211.93 419.13,-198.35 438.2,-188.35"/>
<polygon fill="midnightblue" stroke="midnightblue" points="439.97,-191.37 447.2,-183.63 436.72,-185.17 439.97,-191.37"/>
</g>
<!-- Node19 -->
<g id="node19" class="node">
<title>Node19</title>
<g id="a_node19"><a xlink:href="../../d8/d47/codepoint_8h.html" target="_top" xlink:title=" ">
<polygon fill="white" stroke="black" points="330.83,-165.5 330.83,-183.5 398.54,-183.5 398.54,-165.5 330.83,-165.5"/>
<text text-anchor="middle" x="364.68" y="-171.5" font-family="Helvetica,sans-Serif" font-size="10.00">codepoint.h</text>
</a>
</g>
</g>
<!-- Node18&#45;&gt;Node19 -->
<g id="edge20" class="edge">
<title>Node18&#45;&gt;Node19</title>
<path fill="none" stroke="midnightblue" d="M362.15,-220.22C362.55,-213.18 363.14,-202.81 363.65,-193.83"/>
<polygon fill="midnightblue" stroke="midnightblue" points="367.16,-193.73 364.23,-183.55 360.17,-193.34 367.16,-193.73"/>
</g>
<!-- Node19&#45;&gt;Node8 -->
<g id="edge21" class="edge">
<title>Node19&#45;&gt;Node8</title>
<path fill="none" stroke="midnightblue" d="M368.37,-165.38C376.28,-147.95 395.04,-106.59 405.78,-82.92"/>
<polygon fill="midnightblue" stroke="midnightblue" points="409.01,-84.26 409.96,-73.71 402.64,-81.37 409.01,-84.26"/>
</g>
<!-- Node19&#45;&gt;Node20 -->
<g id="edge22" class="edge">
<title>Node19&#45;&gt;Node20</title>
<path fill="none" stroke="midnightblue" d="M357.5,-165.22C350.77,-157.47 340.56,-145.7 332.29,-136.18"/>
<polygon fill="midnightblue" stroke="midnightblue" points="334.87,-133.81 325.67,-128.55 329.58,-138.4 334.87,-133.81"/>
</g>
<!-- Node26 -->
<g id="node26" class="node">
<title>Node26</title>
<g id="a_node26"><a xlink:href="../../d4/de9/_main_class_8h.html" target="_top" xlink:title=" ">
<polygon fill="white" stroke="black" points="155.73,-605.5 155.73,-623.5 255.64,-623.5 255.64,-605.5 155.73,-605.5"/>
<text text-anchor="middle" x="205.68" y="-611.5" font-family="Helvetica,sans-Serif" font-size="10.00">tralics/MainClass.h</text>
</a>
</g>
</g>
<!-- Node25&#45;&gt;Node26 -->
<g id="edge31" class="edge">
<title>Node25&#45;&gt;Node26</title>
<path fill="none" stroke="midnightblue" d="M164.34,-660.22C171.5,-652.47 182.39,-640.7 191.19,-631.18"/>
<polygon fill="midnightblue" stroke="midnightblue" points="194.02,-633.27 198.24,-623.55 188.88,-628.52 194.02,-633.27"/>
</g>
<!-- Node30 -->
<g id="node30" class="node">
<title>Node30</title>
<g id="a_node30"><a xlink:href="../../d2/d06/txlogger_8h.html" target="_top" xlink:title=" ">
<polygon fill="white" stroke="black" points="0,-605.5 0,-623.5 59.37,-623.5 59.37,-605.5 0,-605.5"/>
<text text-anchor="middle" x="29.68" y="-611.5" font-family="Helvetica,sans-Serif" font-size="10.00">txlogger.h</text>
</a>
</g>
</g>
<!-- Node25&#45;&gt;Node30 -->
<g id="edge37" class="edge">
<title>Node25&#45;&gt;Node30</title>
<path fill="none" stroke="midnightblue" d="M137.4,-660.45C116.42,-651.7 82.65,-637.61 58.52,-627.53"/>
<polygon fill="midnightblue" stroke="midnightblue" points="59.73,-624.25 49.15,-623.63 57.04,-630.71 59.73,-624.25"/>
</g>
<!-- Node32 -->
<g id="node32" class="node">
<title>Node32</title>
<g id="a_node32"><a xlink:href="../../d5/d08/txparam_8h.html" target="_top" xlink:title=" ">
<polygon fill="white" stroke="black" points="77.45,-605.5 77.45,-623.5 137.92,-623.5 137.92,-605.5 77.45,-605.5"/>
<text text-anchor="middle" x="107.68" y="-611.5" font-family="Helvetica,sans-Serif" font-size="10.00">txparam.h</text>
</a>
</g>
</g>
<!-- Node25&#45;&gt;Node32 -->
<g id="edge40" class="edge">
<title>Node25&#45;&gt;Node32</title>
<path fill="none" stroke="midnightblue" d="M149.03,-660.22C141.87,-652.47 130.98,-640.7 122.18,-631.18"/>
<polygon fill="midnightblue" stroke="midnightblue" points="124.49,-628.52 115.13,-623.55 119.35,-633.27 124.49,-628.52"/>
</g>
<!-- Node27 -->
<g id="node27" class="node">
<title>Node27</title>
<g id="a_node27"><a xlink:href="../../de/d29/txio_8h.html" target="_top" xlink:title=" ">
<polygon fill="white" stroke="black" points="169.57,-550.5 169.57,-568.5 217.8,-568.5 217.8,-550.5 169.57,-550.5"/>
<text text-anchor="middle" x="193.68" y="-556.5" font-family="Helvetica,sans-Serif" font-size="10.00">../txio.h</text>
</a>
</g>
</g>
<!-- Node26&#45;&gt;Node27 -->
<g id="edge32" class="edge">
<title>Node26&#45;&gt;Node27</title>
<path fill="none" stroke="midnightblue" d="M203.81,-605.22C202.2,-598.1 199.82,-587.58 197.77,-578.53"/>
<polygon fill="midnightblue" stroke="midnightblue" points="201.13,-577.53 195.51,-568.55 194.3,-579.08 201.13,-577.53"/>
</g>
<!-- Node29 -->
<g id="node29" class="node">
<title>Node29</title>
<g id="a_node29"><a xlink:href="../../dc/def/txstring_8h.html" target="_top" xlink:title=" ">
<polygon fill="white" stroke="black" points="337.23,-495.5 337.23,-513.5 402.14,-513.5 402.14,-495.5 337.23,-495.5"/>
<text text-anchor="middle" x="369.68" y="-501.5" font-family="Helvetica,sans-Serif" font-size="10.00">../txstring.h</text>
</a>
</g>
</g>
<!-- Node26&#45;&gt;Node29 -->
<g id="edge35" class="edge">
<title>Node26&#45;&gt;Node29</title>
<path fill="none" stroke="midnightblue" d="M218.01,-605.38C245.91,-587.01 314.15,-542.07 348.79,-519.26"/>
<polygon fill="midnightblue" stroke="midnightblue" points="350.79,-522.13 357.21,-513.71 346.94,-516.29 350.79,-522.13"/>
</g>
<!-- Node27&#45;&gt;Node3 -->
<g id="edge33" class="edge">
<title>Node27&#45;&gt;Node3</title>
<path fill="none" stroke="midnightblue" d="M197.96,-550.25C205.33,-536.81 221.68,-510.16 242.68,-495 269.14,-475.9 304.53,-464.4 331.23,-457.89"/>
<polygon fill="midnightblue" stroke="midnightblue" points="332.04,-461.29 341,-455.63 330.47,-454.47 332.04,-461.29"/>
</g>
<!-- Node28 -->
<g id="node28" class="node">
<title>Node28</title>
<g id="a_node28"><a xlink:title=" ">
<polygon fill="white" stroke="#bfbfbf" points="125.01,-495.5 125.01,-513.5 174.35,-513.5 174.35,-495.5 125.01,-495.5"/>
<text text-anchor="middle" x="149.68" y="-501.5" font-family="Helvetica,sans-Serif" font-size="10.00">fstream</text>
</a>
</g>
</g>
<!-- Node27&#45;&gt;Node28 -->
<g id="edge34" class="edge">
<title>Node27&#45;&gt;Node28</title>
<path fill="none" stroke="midnightblue" d="M186.81,-550.22C180.44,-542.55 170.8,-530.94 162.94,-521.47"/>
<polygon fill="midnightblue" stroke="midnightblue" points="165.45,-519.01 156.37,-513.55 160.06,-523.48 165.45,-519.01"/>
</g>
<!-- Node29&#45;&gt;Node3 -->
<g id="edge36" class="edge">
<title>Node29&#45;&gt;Node3</title>
<path fill="none" stroke="midnightblue" d="M369.68,-495.22C369.68,-488.18 369.68,-477.81 369.68,-468.83"/>
<polygon fill="midnightblue" stroke="midnightblue" points="373.18,-468.55 369.68,-458.55 366.18,-468.55 373.18,-468.55"/>
</g>
<!-- Node30&#45;&gt;Node28 -->
<g id="edge38" class="edge">
<title>Node30&#45;&gt;Node28</title>
<path fill="none" stroke="midnightblue" d="M38.7,-605.38C58.77,-587.32 107.36,-543.59 133.08,-520.44"/>
<polygon fill="midnightblue" stroke="midnightblue" points="135.47,-523 140.56,-513.71 130.79,-517.8 135.47,-523"/>
</g>
<!-- Node31 -->
<g id="node31" class="node">
<title>Node31</title>
<g id="a_node31"><a xlink:title=" ">
<polygon fill="white" stroke="#bfbfbf" points="2.51,-550.5 2.51,-568.5 56.86,-568.5 56.86,-550.5 2.51,-550.5"/>
<text text-anchor="middle" x="29.68" y="-556.5" font-family="Helvetica,sans-Serif" font-size="10.00">iostream</text>
</a>
</g>
</g>
<!-- Node30&#45;&gt;Node31 -->
<g id="edge39" class="edge">
<title>Node30&#45;&gt;Node31</title>
<path fill="none" stroke="midnightblue" d="M29.68,-605.22C29.68,-598.18 29.68,-587.81 29.68,-578.83"/>
<polygon fill="midnightblue" stroke="midnightblue" points="33.18,-578.55 29.68,-568.55 26.18,-578.55 33.18,-578.55"/>
</g>
<!-- Node32&#45;&gt;Node27 -->
<g id="edge41" class="edge">
<title>Node32&#45;&gt;Node27</title>
<path fill="none" stroke="midnightblue" d="M120.75,-605.45C134.26,-597.12 155.6,-583.97 171.71,-574.04"/>
<polygon fill="midnightblue" stroke="midnightblue" points="173.82,-576.85 180.5,-568.63 170.15,-570.89 173.82,-576.85"/>
</g>
<!-- Node33&#45;&gt;Node27 -->
<g id="edge53" class="edge">
<title>Node33&#45;&gt;Node27</title>
<path fill="none" stroke="midnightblue" d="M437.18,-660.47C413.16,-651.8 374.04,-637.43 340.68,-624 298.52,-607.02 250.24,-585.83 220.87,-572.73"/>
<polygon fill="midnightblue" stroke="midnightblue" points="222.22,-569.5 211.67,-568.61 219.37,-575.89 222.22,-569.5"/>
</g>
<!-- Node34 -->
<g id="node34" class="node">
<title>Node34</title>
<g id="a_node34"><a xlink:href="../../d3/d6b/txcond_8h.html" target="_top" xlink:title=" ">
<polygon fill="white" stroke="black" points="566.78,-440.5 566.78,-458.5 620.59,-458.5 620.59,-440.5 566.78,-440.5"/>
<text text-anchor="middle" x="593.68" y="-446.5" font-family="Helvetica,sans-Serif" font-size="10.00">txcond.h</text>
</a>
</g>
</g>
<!-- Node33&#45;&gt;Node34 -->
<g id="edge43" class="edge">
<title>Node33&#45;&gt;Node34</title>
<path fill="none" stroke="midnightblue" d="M489.9,-668.21C522.08,-666.08 571.63,-657.19 595.68,-624 629.83,-576.9 611.32,-502.14 600.17,-468.25"/>
<polygon fill="midnightblue" stroke="midnightblue" points="603.47,-467.07 596.88,-458.76 596.85,-469.36 603.47,-467.07"/>
</g>
<!-- Node35 -->
<g id="node35" class="node">
<title>Node35</title>
<g id="a_node35"><a xlink:href="../../d7/d4d/txfonts_8h.html" target="_top" xlink:title=" ">
<polygon fill="white" stroke="black" points="393.79,-550.5 393.79,-568.5 447.58,-568.5 447.58,-550.5 393.79,-550.5"/>
<text text-anchor="middle" x="420.68" y="-556.5" font-family="Helvetica,sans-Serif" font-size="10.00">txfonts.h</text>
</a>
</g>
</g>
<!-- Node33&#45;&gt;Node35 -->
<g id="edge45" class="edge">
<title>Node33&#45;&gt;Node35</title>
<path fill="none" stroke="midnightblue" d="M456.75,-660.38C450.49,-643.03 435.66,-601.96 427.09,-578.24"/>
<polygon fill="midnightblue" stroke="midnightblue" points="430.34,-576.93 423.65,-568.71 423.75,-579.31 430.34,-576.93"/>
</g>
<!-- Node36 -->
<g id="node36" class="node">
<title>Node36</title>
<g id="a_node36"><a xlink:href="../../d7/d7e/txhash_8h.html" target="_top" xlink:title=" ">
<polygon fill="white" stroke="black" points="349.78,-605.5 349.78,-623.5 403.59,-623.5 403.59,-605.5 349.78,-605.5"/>
<text text-anchor="middle" x="376.68" y="-611.5" font-family="Helvetica,sans-Serif" font-size="10.00">txhash.h</text>
</a>
</g>
</g>
<!-- Node33&#45;&gt;Node36 -->
<g id="edge47" class="edge">
<title>Node33&#45;&gt;Node36</title>
<path fill="none" stroke="midnightblue" d="M447.08,-660.45C434.04,-652.12 413.44,-638.97 397.89,-629.04"/>
<polygon fill="midnightblue" stroke="midnightblue" points="399.72,-626.06 389.41,-623.63 395.95,-631.96 399.72,-626.06"/>
</g>
<!-- Node38 -->
<g id="node38" class="node">
<title>Node38</title>
<g id="a_node38"><a xlink:href="../../de/d7c/tximage_8h.html" target="_top" xlink:title=" ">
<polygon fill="white" stroke="black" points="623.01,-330.5 623.01,-348.5 682.36,-348.5 682.36,-330.5 623.01,-330.5"/>
<text text-anchor="middle" x="652.68" y="-336.5" font-family="Helvetica,sans-Serif" font-size="10.00">tximage.h</text>
</a>
</g>
</g>
<!-- Node33&#45;&gt;Node38 -->
<g id="edge50" class="edge">
<title>Node33&#45;&gt;Node38</title>
<path fill="none" stroke="midnightblue" d="M489.84,-665.45C544.12,-658.11 652.68,-634.22 652.68,-560.5 652.68,-560.5 652.68,-560.5 652.68,-448.5 652.68,-417.02 652.68,-380.37 652.68,-358.88"/>
<polygon fill="midnightblue" stroke="midnightblue" points="656.18,-358.63 652.68,-348.63 649.18,-358.63 656.18,-358.63"/>
</g>
<!-- Node39 -->
<g id="node39" class="node">
<title>Node39</title>
<g id="a_node39"><a xlink:href="../../dc/d65/txstack_8h.html" target="_top" xlink:title=" ">
<polygon fill="white" stroke="black" points="459.96,-605.5 459.96,-623.5 515.41,-623.5 515.41,-605.5 459.96,-605.5"/>
<text text-anchor="middle" x="487.68" y="-611.5" font-family="Helvetica,sans-Serif" font-size="10.00">txstack.h</text>
</a>
</g>
</g>
<!-- Node33&#45;&gt;Node39 -->
<g id="edge54" class="edge">
<title>Node33&#45;&gt;Node39</title>
<path fill="none" stroke="midnightblue" d="M464.06,-660.22C467.95,-652.86 473.75,-641.88 478.63,-632.64"/>
<polygon fill="midnightblue" stroke="midnightblue" points="481.86,-634.03 483.43,-623.55 475.67,-630.76 481.86,-634.03"/>
</g>
<!-- Node42 -->
<g id="node42" class="node">
<title>Node42</title>
<g id="a_node42"><a xlink:href="../../d8/d3d/txstats_8h.html" target="_top" xlink:title=" ">
<polygon fill="white" stroke="black" points="533.07,-605.5 533.07,-623.5 586.3,-623.5 586.3,-605.5 533.07,-605.5"/>
<text text-anchor="middle" x="559.68" y="-611.5" font-family="Helvetica,sans-Serif" font-size="10.00">txstats.h</text>
</a>
</g>
</g>
<!-- Node33&#45;&gt;Node42 -->
<g id="edge58" class="edge">
<title>Node33&#45;&gt;Node42</title>
<path fill="none" stroke="midnightblue" d="M474.87,-660.45C490.95,-651.93 516.57,-638.35 535.44,-628.35"/>
<polygon fill="midnightblue" stroke="midnightblue" points="537.16,-631.4 544.35,-623.63 533.88,-625.22 537.16,-631.4"/>
</g>
<!-- Node34&#45;&gt;Node24 -->
<g id="edge44" class="edge">
<title>Node34&#45;&gt;Node24</title>
<path fill="none" stroke="midnightblue" d="M593.53,-440.22C593.4,-433.18 593.2,-422.81 593.03,-413.83"/>
<polygon fill="midnightblue" stroke="midnightblue" points="596.52,-413.48 592.84,-403.55 589.53,-413.61 596.52,-413.48"/>
</g>
<!-- Node35&#45;&gt;Node29 -->
<g id="edge46" class="edge">
<title>Node35&#45;&gt;Node29</title>
<path fill="none" stroke="midnightblue" d="M412.72,-550.22C405.19,-542.39 393.71,-530.46 384.5,-520.89"/>
<polygon fill="midnightblue" stroke="midnightblue" points="386.89,-518.33 377.43,-513.55 381.84,-523.18 386.89,-518.33"/>
</g>
<!-- Node37 -->
<g id="node37" class="node">
<title>Node37</title>
<g id="a_node37"><a xlink:href="../../d3/d01/txeqtb_8h.html" target="_top" xlink:title=" ">
<polygon fill="white" stroke="black" points="323.89,-550.5 323.89,-568.5 375.48,-568.5 375.48,-550.5 323.89,-550.5"/>
<text text-anchor="middle" x="349.68" y="-556.5" font-family="Helvetica,sans-Serif" font-size="10.00">txeqtb.h</text>
</a>
</g>
</g>
<!-- Node36&#45;&gt;Node37 -->
<g id="edge48" class="edge">
<title>Node36&#45;&gt;Node37</title>
<path fill="none" stroke="midnightblue" d="M372.47,-605.22C368.72,-597.86 363.12,-586.88 358.42,-577.64"/>
<polygon fill="midnightblue" stroke="midnightblue" points="361.44,-575.87 353.79,-568.55 355.21,-579.05 361.44,-575.87"/>
</g>
<!-- Node37&#45;&gt;Node29 -->
<g id="edge49" class="edge">
<title>Node37&#45;&gt;Node29</title>
<path fill="none" stroke="midnightblue" d="M352.81,-550.22C355.56,-542.94 359.64,-532.11 363.11,-522.93"/>
<polygon fill="midnightblue" stroke="midnightblue" points="366.39,-524.14 366.65,-513.55 359.84,-521.67 366.39,-524.14"/>
</g>
<!-- Node38&#45;&gt;Node13 -->
<g id="edge51" class="edge">
<title>Node38&#45;&gt;Node13</title>
<path fill="none" stroke="midnightblue" d="M649.53,-330.38C642.78,-313.03 626.81,-271.96 617.58,-248.24"/>
<polygon fill="midnightblue" stroke="midnightblue" points="620.76,-246.76 613.88,-238.71 614.24,-249.3 620.76,-246.76"/>
</g>
<!-- Node38&#45;&gt;Node22 -->
<g id="edge52" class="edge">
<title>Node38&#45;&gt;Node22</title>
<path fill="none" stroke="midnightblue" d="M658.78,-330.22C664.36,-322.63 672.79,-311.18 679.72,-301.76"/>
<polygon fill="midnightblue" stroke="midnightblue" points="682.65,-303.68 685.76,-293.55 677.02,-299.53 682.65,-303.68"/>
</g>
<!-- Node40 -->
<g id="node40" class="node">
<title>Node40</title>
<g id="a_node40"><a xlink:href="../../d4/da4/txatt_8h.html" target="_top" xlink:title=" ">
<polygon fill="white" stroke="black" points="466.07,-550.5 466.07,-568.5 509.3,-568.5 509.3,-550.5 466.07,-550.5"/>
<text text-anchor="middle" x="487.68" y="-556.5" font-family="Helvetica,sans-Serif" font-size="10.00">txatt.h</text>
</a>
</g>
</g>
<!-- Node39&#45;&gt;Node40 -->
<g id="edge55" class="edge">
<title>Node39&#45;&gt;Node40</title>
<path fill="none" stroke="midnightblue" d="M487.68,-605.22C487.68,-598.18 487.68,-587.81 487.68,-578.83"/>
<polygon fill="midnightblue" stroke="midnightblue" points="491.18,-578.55 487.68,-568.55 484.18,-578.55 491.18,-578.55"/>
</g>
<!-- Node41 -->
<g id="node41" class="node">
<title>Node41</title>
<g id="a_node41"><a xlink:href="../../d1/d43/txxml_8h.html" target="_top" xlink:title=" ">
<polygon fill="white" stroke="black" points="526.85,-550.5 526.85,-568.5 574.52,-568.5 574.52,-550.5 526.85,-550.5"/>
<text text-anchor="middle" x="550.68" y="-556.5" font-family="Helvetica,sans-Serif" font-size="10.00">txxml.h</text>
</a>
</g>
</g>
<!-- Node39&#45;&gt;Node41 -->
<g id="edge57" class="edge">
<title>Node39&#45;&gt;Node41</title>
<path fill="none" stroke="midnightblue" d="M497.25,-605.45C506.78,-597.43 521.62,-584.95 533.25,-575.17"/>
<polygon fill="midnightblue" stroke="midnightblue" points="535.63,-577.74 541.03,-568.63 531.12,-572.38 535.63,-577.74"/>
</g>
<!-- Node40&#45;&gt;Node29 -->
<g id="edge56" class="edge">
<title>Node40&#45;&gt;Node29</title>
<path fill="none" stroke="midnightblue" d="M469.76,-550.45C450.44,-541.77 419.46,-527.86 397.08,-517.8"/>
<polygon fill="midnightblue" stroke="midnightblue" points="398.33,-514.53 387.77,-513.63 395.46,-520.92 398.33,-514.53"/>
</g>
<!-- Node43&#45;&gt;Node22 -->
<g id="edge60" class="edge">
<title>Node43&#45;&gt;Node22</title>
<path fill="none" stroke="midnightblue" d="M712.56,-440.19C709.16,-415.01 698.92,-339.11 694.16,-303.86"/>
<polygon fill="midnightblue" stroke="midnightblue" points="697.58,-303.04 692.78,-293.6 690.65,-303.98 697.58,-303.04"/>
</g>
</g>
</svg>
