<?xml version="1.0" encoding="UTF-8" standalone="no"?>
<!DOCTYPE svg PUBLIC "-//W3C//DTD SVG 1.1//EN"
 "http://www.w3.org/Graphics/SVG/1.1/DTD/svg11.dtd">
<!-- Generated by graphviz version 2.42.3 (20191010.1750)
 -->
<!-- Title: txparser2.cpp Pages: 1 -->
<svg width="739pt" height="742pt"
 viewBox="0.00 0.00 738.74 742.00" xmlns="http://www.w3.org/2000/svg" xmlns:xlink="http://www.w3.org/1999/xlink">
<g id="graph0" class="graph" transform="scale(1 1) rotate(0) translate(4 738)">
<title>txparser2.cpp</title>
<!-- Node1 -->
<g id="node1" class="node">
<title>Node1</title>
<g id="a_node1"><a xlink:title=" ">
<polygon fill="#bfbfbf" stroke="black" points="273.44,-715.5 273.44,-733.5 350.02,-733.5 350.02,-715.5 273.44,-715.5"/>
<text text-anchor="middle" x="311.73" y="-721.5" font-family="Helvetica,sans-Serif" font-size="10.00">txparser2.cpp</text>
</a>
</g>
</g>
<!-- Node2 -->
<g id="node2" class="node">
<title>Node2</title>
<g id="a_node2"><a xlink:href="../../dc/dd7/txclasses_8h.html" target="_top" xlink:title=" ">
<polygon fill="none" stroke="black" points="0,-495.5 0,-513.5 65.46,-513.5 65.46,-495.5 0,-495.5"/>
<text text-anchor="middle" x="32.73" y="-501.5" font-family="Helvetica,sans-Serif" font-size="10.00">txclasses.h</text>
</a>
</g>
</g>
<!-- Node1&#45;&gt;Node2 -->
<g id="edge1" class="edge">
<title>Node1&#45;&gt;Node2</title>
<path fill="none" stroke="midnightblue" d="M273.39,-724.41C206.26,-723.63 69.13,-710.87 11.73,-624 -8.92,-592.75 9.66,-547.14 22.64,-522.62"/>
<polygon fill="midnightblue" stroke="midnightblue" points="25.76,-524.22 27.58,-513.78 19.65,-520.81 25.76,-524.22"/>
</g>
<!-- Node25 -->
<g id="node25" class="node">
<title>Node25</title>
<g id="a_node25"><a xlink:href="../../d7/d79/txinline_8h.html" target="_top" xlink:title=" ">
<polygon fill="none" stroke="black" points="150,-660.5 150,-678.5 205.47,-678.5 205.47,-660.5 150,-660.5"/>
<text text-anchor="middle" x="177.73" y="-666.5" font-family="Helvetica,sans-Serif" font-size="10.00">txinline.h</text>
</a>
</g>
</g>
<!-- Node1&#45;&gt;Node25 -->
<g id="edge29" class="edge">
<title>Node1&#45;&gt;Node25</title>
<path fill="none" stroke="midnightblue" d="M291.38,-715.45C269.15,-706.66 233.3,-692.48 207.82,-682.4"/>
<polygon fill="midnightblue" stroke="midnightblue" points="208.86,-679.05 198.27,-678.63 206.29,-685.56 208.86,-679.05"/>
</g>
<!-- Node33 -->
<g id="node33" class="node">
<title>Node33</title>
<g id="a_node33"><a xlink:href="../../d2/d1b/txparser_8h.html" target="_top" xlink:title=" ">
<polygon fill="none" stroke="black" points="403.77,-660.5 403.77,-678.5 463.69,-678.5 463.69,-660.5 403.77,-660.5"/>
<text text-anchor="middle" x="433.73" y="-666.5" font-family="Helvetica,sans-Serif" font-size="10.00">txparser.h</text>
</a>
</g>
</g>
<!-- Node1&#45;&gt;Node33 -->
<g id="edge41" class="edge">
<title>Node1&#45;&gt;Node33</title>
<path fill="none" stroke="midnightblue" d="M330.26,-715.45C350.32,-706.73 382.56,-692.73 405.72,-682.67"/>
<polygon fill="midnightblue" stroke="midnightblue" points="407.25,-685.82 415.03,-678.63 404.46,-679.4 407.25,-685.82"/>
</g>
<!-- Node43 -->
<g id="node43" class="node">
<title>Node43</title>
<g id="a_node43"><a xlink:href="../../da/d5e/txparser2_8h.html" target="_top" xlink:title=" ">
<polygon fill="none" stroke="black" points="664.72,-440.5 664.72,-458.5 730.74,-458.5 730.74,-440.5 664.72,-440.5"/>
<text text-anchor="middle" x="697.73" y="-446.5" font-family="Helvetica,sans-Serif" font-size="10.00">txparser2.h</text>
</a>
</g>
</g>
<!-- Node1&#45;&gt;Node43 -->
<g id="edge59" class="edge">
<title>Node1&#45;&gt;Node43</title>
<path fill="none" stroke="midnightblue" d="M350.35,-720.6C445.9,-712.36 685.73,-684.77 685.73,-615.5 685.73,-615.5 685.73,-615.5 685.73,-558.5 685.73,-526.68 690.94,-489.9 694.5,-468.52"/>
<polygon fill="midnightblue" stroke="midnightblue" points="697.96,-469.04 696.21,-458.59 691.06,-467.85 697.96,-469.04"/>
</g>
<!-- Node3 -->
<g id="node3" class="node">
<title>Node3</title>
<g id="a_node3"><a xlink:href="../../dd/d74/txbuffer_8h.html" target="_top" xlink:title=" ">
<polygon fill="none" stroke="black" points="385.25,-440.5 385.25,-458.5 442.21,-458.5 442.21,-440.5 385.25,-440.5"/>
<text text-anchor="middle" x="413.73" y="-446.5" font-family="Helvetica,sans-Serif" font-size="10.00">txbuffer.h</text>
</a>
</g>
</g>
<!-- Node2&#45;&gt;Node3 -->
<g id="edge2" class="edge">
<title>Node2&#45;&gt;Node3</title>
<path fill="none" stroke="midnightblue" d="M65.55,-498.94C135.71,-489.18 300.03,-466.32 375.1,-455.87"/>
<polygon fill="midnightblue" stroke="midnightblue" points="375.65,-459.33 385.08,-454.49 374.69,-452.4 375.65,-459.33"/>
</g>
<!-- Node4 -->
<g id="node4" class="node">
<title>Node4</title>
<g id="a_node4"><a xlink:href="../../d1/d9e/txid_8h.html" target="_top" xlink:title=" ">
<polygon fill="none" stroke="black" points="331.78,-330.5 331.78,-348.5 371.68,-348.5 371.68,-330.5 331.78,-330.5"/>
<text text-anchor="middle" x="351.73" y="-336.5" font-family="Helvetica,sans-Serif" font-size="10.00">txid.h</text>
</a>
</g>
</g>
<!-- Node3&#45;&gt;Node4 -->
<g id="edge3" class="edge">
<title>Node3&#45;&gt;Node4</title>
<path fill="none" stroke="midnightblue" d="M404.64,-440.46C395.69,-432.12 382.17,-418.32 373.73,-404 365.3,-389.71 359.45,-371.71 355.91,-358.52"/>
<polygon fill="midnightblue" stroke="midnightblue" points="359.3,-357.62 353.48,-348.77 352.5,-359.32 359.3,-357.62"/>
</g>
<!-- Node14 -->
<g id="node14" class="node">
<title>Node14</title>
<g id="a_node14"><a xlink:href="../../d9/d18/txscaled_8h.html" target="_top" xlink:title=" ">
<polygon fill="none" stroke="black" points="383.22,-385.5 383.22,-403.5 444.24,-403.5 444.24,-385.5 383.22,-385.5"/>
<text text-anchor="middle" x="413.73" y="-391.5" font-family="Helvetica,sans-Serif" font-size="10.00">txscaled.h</text>
</a>
</g>
</g>
<!-- Node3&#45;&gt;Node14 -->
<g id="edge13" class="edge">
<title>Node3&#45;&gt;Node14</title>
<path fill="none" stroke="midnightblue" d="M413.73,-440.22C413.73,-433.18 413.73,-422.81 413.73,-413.83"/>
<polygon fill="midnightblue" stroke="midnightblue" points="417.23,-413.55 413.73,-403.55 410.23,-413.55 417.23,-413.55"/>
</g>
<!-- Node23 -->
<g id="node23" class="node">
<title>Node23</title>
<g id="a_node23"><a xlink:title=" ">
<polygon fill="none" stroke="#bfbfbf" points="462,-385.5 462,-403.5 507.46,-403.5 507.46,-385.5 462,-385.5"/>
<text text-anchor="middle" x="484.73" y="-391.5" font-family="Helvetica,sans-Serif" font-size="10.00">cstring</text>
</a>
</g>
</g>
<!-- Node3&#45;&gt;Node23 -->
<g id="edge27" class="edge">
<title>Node3&#45;&gt;Node23</title>
<path fill="none" stroke="midnightblue" d="M424.51,-440.45C435.36,-432.36 452.31,-419.7 465.46,-409.88"/>
<polygon fill="midnightblue" stroke="midnightblue" points="467.93,-412.41 473.85,-403.63 463.74,-406.8 467.93,-412.41"/>
</g>
<!-- Node24 -->
<g id="node24" class="node">
<title>Node24</title>
<g id="a_node24"><a xlink:title=" ">
<polygon fill="none" stroke="#bfbfbf" points="534.12,-385.5 534.12,-403.5 577.35,-403.5 577.35,-385.5 534.12,-385.5"/>
<text text-anchor="middle" x="555.73" y="-391.5" font-family="Helvetica,sans-Serif" font-size="10.00">vector</text>
</a>
</g>
</g>
<!-- Node3&#45;&gt;Node24 -->
<g id="edge28" class="edge">
<title>Node3&#45;&gt;Node24</title>
<path fill="none" stroke="midnightblue" d="M435.3,-440.45C459.07,-431.58 497.51,-417.23 524.56,-407.13"/>
<polygon fill="midnightblue" stroke="midnightblue" points="525.82,-410.4 533.96,-403.63 523.37,-403.84 525.82,-410.4"/>
</g>
<!-- Node5 -->
<g id="node5" class="node">
<title>Node5</title>
<g id="a_node5"><a xlink:href="../../dc/de8/txvars_8h.html" target="_top" xlink:title=" ">
<polygon fill="none" stroke="black" points="314.23,-275.5 314.23,-293.5 365.24,-293.5 365.24,-275.5 314.23,-275.5"/>
<text text-anchor="middle" x="339.73" y="-281.5" font-family="Helvetica,sans-Serif" font-size="10.00">txvars.h</text>
</a>
</g>
</g>
<!-- Node4&#45;&gt;Node5 -->
<g id="edge4" class="edge">
<title>Node4&#45;&gt;Node5</title>
<path fill="none" stroke="midnightblue" d="M349.86,-330.22C348.24,-323.1 345.86,-312.58 343.81,-303.53"/>
<polygon fill="midnightblue" stroke="midnightblue" points="347.18,-302.53 341.55,-293.55 340.35,-304.08 347.18,-302.53"/>
</g>
<!-- Node13 -->
<g id="node13" class="node">
<title>Node13</title>
<g id="a_node13"><a xlink:title=" ">
<polygon fill="none" stroke="#bfbfbf" points="547.5,-220.5 547.5,-238.5 587.96,-238.5 587.96,-220.5 547.5,-220.5"/>
<text text-anchor="middle" x="567.73" y="-226.5" font-family="Helvetica,sans-Serif" font-size="10.00">string</text>
</a>
</g>
</g>
<!-- Node4&#45;&gt;Node13 -->
<g id="edge12" class="edge">
<title>Node4&#45;&gt;Node13</title>
<path fill="none" stroke="midnightblue" d="M371.86,-332.6C396.18,-325.11 438.05,-311.1 471.73,-294 500.06,-279.62 530.23,-258.61 549.02,-244.75"/>
<polygon fill="midnightblue" stroke="midnightblue" points="551.37,-247.37 557.28,-238.58 547.18,-241.76 551.37,-247.37"/>
</g>
<!-- Node6 -->
<g id="node6" class="node">
<title>Node6</title>
<g id="a_node6"><a xlink:href="../../d0/d0b/enums_8h.html" target="_top" xlink:title=" ">
<polygon fill="none" stroke="black" points="418.11,-165.5 418.11,-183.5 501.35,-183.5 501.35,-165.5 418.11,-165.5"/>
<text text-anchor="middle" x="459.73" y="-171.5" font-family="Helvetica,sans-Serif" font-size="10.00">tralics/enums.h</text>
</a>
</g>
</g>
<!-- Node5&#45;&gt;Node6 -->
<g id="edge5" class="edge">
<title>Node5&#45;&gt;Node6</title>
<path fill="none" stroke="midnightblue" d="M342.4,-275.09C346.95,-261.89 357.35,-236.16 373.73,-220 388.34,-205.59 408.57,-194.81 425.73,-187.47"/>
<polygon fill="midnightblue" stroke="midnightblue" points="427.47,-190.54 435.42,-183.54 424.84,-184.05 427.47,-190.54"/>
</g>
<!-- Node12 -->
<g id="node12" class="node">
<title>Node12</title>
<g id="a_node12"><a xlink:title=" ">
<polygon fill="none" stroke="#bfbfbf" points="288.34,-220.5 288.34,-238.5 327.12,-238.5 327.12,-220.5 288.34,-220.5"/>
<text text-anchor="middle" x="307.73" y="-226.5" font-family="Helvetica,sans-Serif" font-size="10.00">array</text>
</a>
</g>
</g>
<!-- Node5&#45;&gt;Node12 -->
<g id="edge11" class="edge">
<title>Node5&#45;&gt;Node12</title>
<path fill="none" stroke="midnightblue" d="M334.73,-275.22C330.24,-267.79 323.52,-256.65 317.9,-247.34"/>
<polygon fill="midnightblue" stroke="midnightblue" points="320.76,-245.3 312.59,-238.55 314.76,-248.92 320.76,-245.3"/>
</g>
<!-- Node7 -->
<g id="node7" class="node">
<title>Node7</title>
<g id="a_node7"><a xlink:href="../../d8/db5/consts_8h.html" target="_top" xlink:title=" ">
<polygon fill="none" stroke="black" points="433.11,-110.5 433.11,-128.5 486.35,-128.5 486.35,-110.5 433.11,-110.5"/>
<text text-anchor="middle" x="459.73" y="-116.5" font-family="Helvetica,sans-Serif" font-size="10.00">consts.h</text>
</a>
</g>
</g>
<!-- Node6&#45;&gt;Node7 -->
<g id="edge6" class="edge">
<title>Node6&#45;&gt;Node7</title>
<path fill="none" stroke="midnightblue" d="M459.73,-165.22C459.73,-158.18 459.73,-147.81 459.73,-138.83"/>
<polygon fill="midnightblue" stroke="midnightblue" points="463.23,-138.55 459.73,-128.55 456.23,-138.55 463.23,-138.55"/>
</g>
<!-- Node8 -->
<g id="node8" class="node">
<title>Node8</title>
<g id="a_node8"><a xlink:href="../../d9/d49/types_8h.html" target="_top" xlink:title=" ">
<polygon fill="none" stroke="black" points="373.61,-55.5 373.61,-73.5 421.85,-73.5 421.85,-55.5 373.61,-55.5"/>
<text text-anchor="middle" x="397.73" y="-61.5" font-family="Helvetica,sans-Serif" font-size="10.00">types.h</text>
</a>
</g>
</g>
<!-- Node7&#45;&gt;Node8 -->
<g id="edge7" class="edge">
<title>Node7&#45;&gt;Node8</title>
<path fill="none" stroke="midnightblue" d="M450.31,-110.45C440.94,-102.43 426.33,-89.95 414.89,-80.17"/>
<polygon fill="midnightblue" stroke="midnightblue" points="417.11,-77.46 407.24,-73.63 412.56,-82.78 417.11,-77.46"/>
</g>
<!-- Node9 -->
<g id="node9" class="node">
<title>Node9</title>
<g id="a_node9"><a xlink:title=" ">
<polygon fill="none" stroke="#bfbfbf" points="305.62,-0.5 305.62,-18.5 353.85,-18.5 353.85,-0.5 305.62,-0.5"/>
<text text-anchor="middle" x="329.73" y="-6.5" font-family="Helvetica,sans-Serif" font-size="10.00">cassert</text>
</a>
</g>
</g>
<!-- Node8&#45;&gt;Node9 -->
<g id="edge8" class="edge">
<title>Node8&#45;&gt;Node9</title>
<path fill="none" stroke="midnightblue" d="M387.4,-55.45C377.02,-47.36 360.79,-34.7 348.18,-24.88"/>
<polygon fill="midnightblue" stroke="midnightblue" points="350.2,-22.01 340.16,-18.63 345.89,-27.53 350.2,-22.01"/>
</g>
<!-- Node10 -->
<g id="node10" class="node">
<title>Node10</title>
<g id="a_node10"><a xlink:title=" ">
<polygon fill="none" stroke="#bfbfbf" points="371.94,-0.5 371.94,-18.5 423.52,-18.5 423.52,-0.5 371.94,-0.5"/>
<text text-anchor="middle" x="397.73" y="-6.5" font-family="Helvetica,sans-Serif" font-size="10.00">stddef.h</text>
</a>
</g>
</g>
<!-- Node8&#45;&gt;Node10 -->
<g id="edge9" class="edge">
<title>Node8&#45;&gt;Node10</title>
<path fill="none" stroke="midnightblue" d="M397.73,-55.22C397.73,-48.18 397.73,-37.81 397.73,-28.83"/>
<polygon fill="midnightblue" stroke="midnightblue" points="401.23,-28.55 397.73,-18.55 394.23,-28.55 401.23,-28.55"/>
</g>
<!-- Node11 -->
<g id="node11" class="node">
<title>Node11</title>
<g id="a_node11"><a xlink:title=" ">
<polygon fill="none" stroke="#bfbfbf" points="441.67,-0.5 441.67,-18.5 503.8,-18.5 503.8,-0.5 441.67,-0.5"/>
<text text-anchor="middle" x="472.73" y="-6.5" font-family="Helvetica,sans-Serif" font-size="10.00">type_traits</text>
</a>
</g>
</g>
<!-- Node8&#45;&gt;Node11 -->
<g id="edge10" class="edge">
<title>Node8&#45;&gt;Node11</title>
<path fill="none" stroke="midnightblue" d="M409.12,-55.45C420.69,-47.28 438.83,-34.46 452.78,-24.6"/>
<polygon fill="midnightblue" stroke="midnightblue" points="455.09,-27.25 461.23,-18.63 451.05,-21.54 455.09,-27.25"/>
</g>
<!-- Node15 -->
<g id="node15" class="node">
<title>Node15</title>
<g id="a_node15"><a xlink:href="../../dc/d91/txtokenlist_8h.html" target="_top" xlink:title=" ">
<polygon fill="none" stroke="black" points="389.33,-330.5 389.33,-348.5 458.13,-348.5 458.13,-330.5 389.33,-330.5"/>
<text text-anchor="middle" x="423.73" y="-336.5" font-family="Helvetica,sans-Serif" font-size="10.00">txtokenlist.h</text>
</a>
</g>
</g>
<!-- Node14&#45;&gt;Node15 -->
<g id="edge14" class="edge">
<title>Node14&#45;&gt;Node15</title>
<path fill="none" stroke="midnightblue" d="M415.29,-385.22C416.64,-378.1 418.62,-367.58 420.33,-358.53"/>
<polygon fill="midnightblue" stroke="midnightblue" points="423.8,-359.03 422.21,-348.55 416.92,-357.73 423.8,-359.03"/>
</g>
<!-- Node15&#45;&gt;Node5 -->
<g id="edge25" class="edge">
<title>Node15&#45;&gt;Node5</title>
<path fill="none" stroke="midnightblue" d="M410.97,-330.45C397.78,-322.12 376.93,-308.97 361.19,-299.04"/>
<polygon fill="midnightblue" stroke="midnightblue" points="362.93,-296 352.61,-293.63 359.2,-301.92 362.93,-296"/>
</g>
<!-- Node16 -->
<g id="node16" class="node">
<title>Node16</title>
<g id="a_node16"><a xlink:href="../../d5/daf/_istring_8h.html" target="_top" xlink:title=" ">
<polygon fill="none" stroke="black" points="518.5,-275.5 518.5,-293.5 598.96,-293.5 598.96,-275.5 518.5,-275.5"/>
<text text-anchor="middle" x="558.73" y="-281.5" font-family="Helvetica,sans-Serif" font-size="10.00">tralics/Istring.h</text>
</a>
</g>
</g>
<!-- Node15&#45;&gt;Node16 -->
<g id="edge15" class="edge">
<title>Node15&#45;&gt;Node16</title>
<path fill="none" stroke="midnightblue" d="M444.24,-330.45C466.64,-321.66 502.74,-307.48 528.42,-297.4"/>
<polygon fill="midnightblue" stroke="midnightblue" points="530.01,-300.54 538.03,-293.63 527.45,-294.02 530.01,-300.54"/>
</g>
<!-- Node17 -->
<g id="node17" class="node">
<title>Node17</title>
<g id="a_node17"><a xlink:href="../../dd/dcd/_token_8h.html" target="_top" xlink:title=" ">
<polygon fill="none" stroke="black" points="382.77,-275.5 382.77,-293.5 462.69,-293.5 462.69,-275.5 382.77,-275.5"/>
<text text-anchor="middle" x="422.73" y="-281.5" font-family="Helvetica,sans-Serif" font-size="10.00">tralics/Token.h</text>
</a>
</g>
</g>
<!-- Node15&#45;&gt;Node17 -->
<g id="edge18" class="edge">
<title>Node15&#45;&gt;Node17</title>
<path fill="none" stroke="midnightblue" d="M423.58,-330.22C423.44,-323.18 423.25,-312.81 423.08,-303.83"/>
<polygon fill="midnightblue" stroke="midnightblue" points="426.57,-303.48 422.88,-293.55 419.57,-303.61 426.57,-303.48"/>
</g>
<!-- Node22 -->
<g id="node22" class="node">
<title>Node22</title>
<g id="a_node22"><a xlink:title=" ">
<polygon fill="none" stroke="#bfbfbf" points="617.34,-275.5 617.34,-293.5 656.12,-293.5 656.12,-275.5 617.34,-275.5"/>
<text text-anchor="middle" x="636.73" y="-281.5" font-family="Helvetica,sans-Serif" font-size="10.00">utility</text>
</a>
</g>
</g>
<!-- Node15&#45;&gt;Node22 -->
<g id="edge26" class="edge">
<title>Node15&#45;&gt;Node22</title>
<path fill="none" stroke="midnightblue" d="M458.45,-330.63C493.58,-322.54 549.67,-309.32 607.45,-293.97"/>
<polygon fill="midnightblue" stroke="midnightblue" points="608.35,-297.35 617.11,-291.39 606.55,-290.59 608.35,-297.35"/>
</g>
<!-- Node16&#45;&gt;Node6 -->
<g id="edge16" class="edge">
<title>Node16&#45;&gt;Node6</title>
<path fill="none" stroke="midnightblue" d="M551.23,-275.27C540.19,-263.15 518.9,-239.8 500.73,-220 491.91,-210.38 481.99,-199.61 474.12,-191.08"/>
<polygon fill="midnightblue" stroke="midnightblue" points="476.65,-188.67 467.3,-183.69 471.51,-193.41 476.65,-188.67"/>
</g>
<!-- Node16&#45;&gt;Node13 -->
<g id="edge17" class="edge">
<title>Node16&#45;&gt;Node13</title>
<path fill="none" stroke="midnightblue" d="M560.14,-275.22C561.35,-268.1 563.13,-257.58 564.67,-248.53"/>
<polygon fill="midnightblue" stroke="midnightblue" points="568.14,-248.99 566.36,-238.55 561.24,-247.82 568.14,-248.99"/>
</g>
<!-- Node18 -->
<g id="node18" class="node">
<title>Node18</title>
<g id="a_node18"><a xlink:href="../../d2/d68/_cmd_chr_8h.html" target="_top" xlink:title=" ">
<polygon fill="none" stroke="black" points="383.22,-220.5 383.22,-238.5 444.24,-238.5 444.24,-220.5 383.22,-220.5"/>
<text text-anchor="middle" x="413.73" y="-226.5" font-family="Helvetica,sans-Serif" font-size="10.00">CmdChr.h</text>
</a>
</g>
</g>
<!-- Node17&#45;&gt;Node18 -->
<g id="edge19" class="edge">
<title>Node17&#45;&gt;Node18</title>
<path fill="none" stroke="midnightblue" d="M421.33,-275.22C420.12,-268.1 418.33,-257.58 416.79,-248.53"/>
<polygon fill="midnightblue" stroke="midnightblue" points="420.22,-247.82 415.1,-238.55 413.32,-248.99 420.22,-247.82"/>
</g>
<!-- Node21 -->
<g id="node21" class="node">
<title>Node21</title>
<g id="a_node21"><a xlink:title=" ">
<polygon fill="none" stroke="#bfbfbf" points="462.23,-220.5 462.23,-238.5 491.23,-238.5 491.23,-220.5 462.23,-220.5"/>
<text text-anchor="middle" x="476.34" y="-226.5" font-family="Helvetica,sans-Serif" font-size="10.00">list</text>
</a>
</g>
</g>
<!-- Node17&#45;&gt;Node21 -->
<g id="edge24" class="edge">
<title>Node17&#45;&gt;Node21</title>
<path fill="none" stroke="midnightblue" d="M431.17,-275.22C439.22,-267.32 451.54,-255.22 461.34,-245.61"/>
<polygon fill="midnightblue" stroke="midnightblue" points="463.84,-248.05 468.53,-238.55 458.94,-243.06 463.84,-248.05"/>
</g>
<!-- Node18&#45;&gt;Node6 -->
<g id="edge23" class="edge">
<title>Node18&#45;&gt;Node6</title>
<path fill="none" stroke="midnightblue" d="M420.92,-220.22C427.64,-212.47 437.86,-200.7 446.12,-191.18"/>
<polygon fill="midnightblue" stroke="midnightblue" points="448.83,-193.4 452.75,-183.55 443.55,-188.81 448.83,-193.4"/>
</g>
<!-- Node19 -->
<g id="node19" class="node">
<title>Node19</title>
<g id="a_node19"><a xlink:href="../../d8/d47/codepoint_8h.html" target="_top" xlink:title=" ">
<polygon fill="none" stroke="black" points="332.88,-165.5 332.88,-183.5 400.59,-183.5 400.59,-165.5 332.88,-165.5"/>
<text text-anchor="middle" x="366.73" y="-171.5" font-family="Helvetica,sans-Serif" font-size="10.00">codepoint.h</text>
</a>
</g>
</g>
<!-- Node18&#45;&gt;Node19 -->
<g id="edge20" class="edge">
<title>Node18&#45;&gt;Node19</title>
<path fill="none" stroke="midnightblue" d="M406.39,-220.22C399.52,-212.47 389.08,-200.7 380.64,-191.18"/>
<polygon fill="midnightblue" stroke="midnightblue" points="383.12,-188.71 373.87,-183.55 377.89,-193.35 383.12,-188.71"/>
</g>
<!-- Node19&#45;&gt;Node8 -->
<g id="edge21" class="edge">
<title>Node19&#45;&gt;Node8</title>
<path fill="none" stroke="midnightblue" d="M362.38,-165.4C356.37,-153.04 347.08,-128.93 354.73,-110 359.48,-98.26 368.97,-87.89 377.84,-80.12"/>
<polygon fill="midnightblue" stroke="midnightblue" points="380.11,-82.79 385.64,-73.76 375.68,-77.37 380.11,-82.79"/>
</g>
<!-- Node20 -->
<g id="node20" class="node">
<title>Node20</title>
<g id="a_node20"><a xlink:title=" ">
<polygon fill="none" stroke="#bfbfbf" points="364.22,-110.5 364.22,-128.5 415.25,-128.5 415.25,-110.5 364.22,-110.5"/>
<text text-anchor="middle" x="389.73" y="-116.5" font-family="Helvetica,sans-Serif" font-size="10.00">optional</text>
</a>
</g>
</g>
<!-- Node19&#45;&gt;Node20 -->
<g id="edge22" class="edge">
<title>Node19&#45;&gt;Node20</title>
<path fill="none" stroke="midnightblue" d="M370.33,-165.22C373.48,-157.94 378.18,-147.11 382.17,-137.93"/>
<polygon fill="midnightblue" stroke="midnightblue" points="385.47,-139.12 386.24,-128.55 379.05,-136.33 385.47,-139.12"/>
</g>
<!-- Node26 -->
<g id="node26" class="node">
<title>Node26</title>
<g id="a_node26"><a xlink:href="../../d4/de9/_main_class_8h.html" target="_top" xlink:title=" ">
<polygon fill="none" stroke="black" points="176.78,-605.5 176.78,-623.5 276.69,-623.5 276.69,-605.5 176.78,-605.5"/>
<text text-anchor="middle" x="226.73" y="-611.5" font-family="Helvetica,sans-Serif" font-size="10.00">tralics/MainClass.h</text>
</a>
</g>
</g>
<!-- Node25&#45;&gt;Node26 -->
<g id="edge30" class="edge">
<title>Node25&#45;&gt;Node26</title>
<path fill="none" stroke="midnightblue" d="M185.39,-660.22C192.55,-652.47 203.43,-640.7 212.23,-631.18"/>
<polygon fill="midnightblue" stroke="midnightblue" points="215.07,-633.27 219.29,-623.55 209.93,-628.52 215.07,-633.27"/>
</g>
<!-- Node30 -->
<g id="node30" class="node">
<title>Node30</title>
<g id="a_node30"><a xlink:href="../../d2/d06/txlogger_8h.html" target="_top" xlink:title=" ">
<polygon fill="none" stroke="black" points="21.05,-605.5 21.05,-623.5 80.42,-623.5 80.42,-605.5 21.05,-605.5"/>
<text text-anchor="middle" x="50.73" y="-611.5" font-family="Helvetica,sans-Serif" font-size="10.00">txlogger.h</text>
</a>
</g>
</g>
<!-- Node25&#45;&gt;Node30 -->
<g id="edge36" class="edge">
<title>Node25&#45;&gt;Node30</title>
<path fill="none" stroke="midnightblue" d="M158.44,-660.45C137.46,-651.7 103.7,-637.61 79.57,-627.53"/>
<polygon fill="midnightblue" stroke="midnightblue" points="80.78,-624.25 70.2,-623.63 78.08,-630.71 80.78,-624.25"/>
</g>
<!-- Node32 -->
<g id="node32" class="node">
<title>Node32</title>
<g id="a_node32"><a xlink:href="../../d5/d08/txparam_8h.html" target="_top" xlink:title=" ">
<polygon fill="none" stroke="black" points="98.5,-605.5 98.5,-623.5 158.96,-623.5 158.96,-605.5 98.5,-605.5"/>
<text text-anchor="middle" x="128.73" y="-611.5" font-family="Helvetica,sans-Serif" font-size="10.00">txparam.h</text>
</a>
</g>
</g>
<!-- Node25&#45;&gt;Node32 -->
<g id="edge39" class="edge">
<title>Node25&#45;&gt;Node32</title>
<path fill="none" stroke="midnightblue" d="M170.08,-660.22C162.91,-652.47 152.03,-640.7 143.23,-631.18"/>
<polygon fill="midnightblue" stroke="midnightblue" points="145.53,-628.52 136.17,-623.55 140.39,-633.27 145.53,-628.52"/>
</g>
<!-- Node27 -->
<g id="node27" class="node">
<title>Node27</title>
<g id="a_node27"><a xlink:href="../../de/d29/txio_8h.html" target="_top" xlink:title=" ">
<polygon fill="none" stroke="black" points="202.61,-550.5 202.61,-568.5 250.85,-568.5 250.85,-550.5 202.61,-550.5"/>
<text text-anchor="middle" x="226.73" y="-556.5" font-family="Helvetica,sans-Serif" font-size="10.00">../txio.h</text>
</a>
</g>
</g>
<!-- Node26&#45;&gt;Node27 -->
<g id="edge31" class="edge">
<title>Node26&#45;&gt;Node27</title>
<path fill="none" stroke="midnightblue" d="M226.73,-605.22C226.73,-598.18 226.73,-587.81 226.73,-578.83"/>
<polygon fill="midnightblue" stroke="midnightblue" points="230.23,-578.55 226.73,-568.55 223.23,-578.55 230.23,-578.55"/>
</g>
<!-- Node29 -->
<g id="node29" class="node">
<title>Node29</title>
<g id="a_node29"><a xlink:href="../../dc/def/txstring_8h.html" target="_top" xlink:title=" ">
<polygon fill="none" stroke="black" points="382.28,-495.5 382.28,-513.5 447.18,-513.5 447.18,-495.5 382.28,-495.5"/>
<text text-anchor="middle" x="414.73" y="-501.5" font-family="Helvetica,sans-Serif" font-size="10.00">../txstring.h</text>
</a>
</g>
</g>
<!-- Node26&#45;&gt;Node29 -->
<g id="edge34" class="edge">
<title>Node26&#45;&gt;Node29</title>
<path fill="none" stroke="midnightblue" d="M235.62,-605.2C249.93,-592.15 279.36,-566.61 307.73,-550 330.92,-536.43 359.03,-524.91 380.62,-516.99"/>
<polygon fill="midnightblue" stroke="midnightblue" points="381.81,-520.28 390.04,-513.61 379.45,-513.69 381.81,-520.28"/>
</g>
<!-- Node27&#45;&gt;Node3 -->
<g id="edge32" class="edge">
<title>Node27&#45;&gt;Node3</title>
<path fill="none" stroke="midnightblue" d="M240.79,-550.38C272.81,-531.89 351.46,-486.46 390.69,-463.8"/>
<polygon fill="midnightblue" stroke="midnightblue" points="392.86,-466.6 399.77,-458.56 389.36,-460.53 392.86,-466.6"/>
</g>
<!-- Node28 -->
<g id="node28" class="node">
<title>Node28</title>
<g id="a_node28"><a xlink:title=" ">
<polygon fill="none" stroke="#bfbfbf" points="162.06,-495.5 162.06,-513.5 211.4,-513.5 211.4,-495.5 162.06,-495.5"/>
<text text-anchor="middle" x="186.73" y="-501.5" font-family="Helvetica,sans-Serif" font-size="10.00">fstream</text>
</a>
</g>
</g>
<!-- Node27&#45;&gt;Node28 -->
<g id="edge33" class="edge">
<title>Node27&#45;&gt;Node28</title>
<path fill="none" stroke="midnightblue" d="M220.48,-550.22C214.75,-542.63 206.11,-531.18 199,-521.76"/>
<polygon fill="midnightblue" stroke="midnightblue" points="201.62,-519.42 192.81,-513.55 196.04,-523.64 201.62,-519.42"/>
</g>
<!-- Node29&#45;&gt;Node3 -->
<g id="edge35" class="edge">
<title>Node29&#45;&gt;Node3</title>
<path fill="none" stroke="midnightblue" d="M414.58,-495.22C414.44,-488.18 414.25,-477.81 414.08,-468.83"/>
<polygon fill="midnightblue" stroke="midnightblue" points="417.57,-468.48 413.88,-458.55 410.57,-468.61 417.57,-468.48"/>
</g>
<!-- Node30&#45;&gt;Node28 -->
<g id="edge37" class="edge">
<title>Node30&#45;&gt;Node28</title>
<path fill="none" stroke="midnightblue" d="M50.95,-605.37C51.73,-592.09 55.16,-565.67 69.73,-550 91.16,-526.96 125.77,-515.75 151.8,-510.35"/>
<polygon fill="midnightblue" stroke="midnightblue" points="152.48,-513.79 161.66,-508.5 151.19,-506.91 152.48,-513.79"/>
</g>
<!-- Node31 -->
<g id="node31" class="node">
<title>Node31</title>
<g id="a_node31"><a xlink:title=" ">
<polygon fill="none" stroke="#bfbfbf" points="78.56,-550.5 78.56,-568.5 132.9,-568.5 132.9,-550.5 78.56,-550.5"/>
<text text-anchor="middle" x="105.73" y="-556.5" font-family="Helvetica,sans-Serif" font-size="10.00">iostream</text>
</a>
</g>
</g>
<!-- Node30&#45;&gt;Node31 -->
<g id="edge38" class="edge">
<title>Node30&#45;&gt;Node31</title>
<path fill="none" stroke="midnightblue" d="M59.33,-605.22C67.53,-597.32 80.07,-585.22 90.06,-575.61"/>
<polygon fill="midnightblue" stroke="midnightblue" points="92.61,-578.01 97.38,-568.55 87.75,-572.97 92.61,-578.01"/>
</g>
<!-- Node32&#45;&gt;Node27 -->
<g id="edge40" class="edge">
<title>Node32&#45;&gt;Node27</title>
<path fill="none" stroke="midnightblue" d="M143.62,-605.45C159.3,-596.97 184.25,-583.48 202.72,-573.49"/>
<polygon fill="midnightblue" stroke="midnightblue" points="204.58,-576.46 211.71,-568.63 201.25,-570.3 204.58,-576.46"/>
</g>
<!-- Node33&#45;&gt;Node27 -->
<g id="edge52" class="edge">
<title>Node33&#45;&gt;Node27</title>
<path fill="none" stroke="midnightblue" d="M418.17,-660.38C382.42,-641.73 294.18,-595.69 251.14,-573.23"/>
<polygon fill="midnightblue" stroke="midnightblue" points="252.67,-570.09 242.19,-568.56 249.44,-576.29 252.67,-570.09"/>
</g>
<!-- Node34 -->
<g id="node34" class="node">
<title>Node34</title>
<g id="a_node34"><a xlink:href="../../d3/d6b/txcond_8h.html" target="_top" xlink:title=" ">
<polygon fill="none" stroke="black" points="536.83,-440.5 536.83,-458.5 590.63,-458.5 590.63,-440.5 536.83,-440.5"/>
<text text-anchor="middle" x="563.73" y="-446.5" font-family="Helvetica,sans-Serif" font-size="10.00">txcond.h</text>
</a>
</g>
</g>
<!-- Node33&#45;&gt;Node34 -->
<g id="edge42" class="edge">
<title>Node33&#45;&gt;Node34</title>
<path fill="none" stroke="midnightblue" d="M463.93,-669.03C498.31,-667.81 553.16,-659.88 579.73,-624 614.65,-576.86 587.48,-501.57 572.25,-467.83"/>
<polygon fill="midnightblue" stroke="midnightblue" points="575.42,-466.34 567.99,-458.78 569.08,-469.32 575.42,-466.34"/>
</g>
<!-- Node35 -->
<g id="node35" class="node">
<title>Node35</title>
<g id="a_node35"><a xlink:href="../../d7/d4d/txfonts_8h.html" target="_top" xlink:title=" ">
<polygon fill="none" stroke="black" points="316.83,-550.5 316.83,-568.5 370.63,-568.5 370.63,-550.5 316.83,-550.5"/>
<text text-anchor="middle" x="343.73" y="-556.5" font-family="Helvetica,sans-Serif" font-size="10.00">txfonts.h</text>
</a>
</g>
</g>
<!-- Node33&#45;&gt;Node35 -->
<g id="edge44" class="edge">
<title>Node33&#45;&gt;Node35</title>
<path fill="none" stroke="midnightblue" d="M412.44,-660.4C396.26,-653.19 374.66,-641.12 361.73,-624 351.81,-610.85 347.35,-592.45 345.35,-578.84"/>
<polygon fill="midnightblue" stroke="midnightblue" points="348.81,-578.28 344.19,-568.75 341.86,-579.09 348.81,-578.28"/>
</g>
<!-- Node36 -->
<g id="node36" class="node">
<title>Node36</title>
<g id="a_node36"><a xlink:href="../../d7/d7e/txhash_8h.html" target="_top" xlink:title=" ">
<polygon fill="none" stroke="black" points="442.83,-605.5 442.83,-623.5 496.63,-623.5 496.63,-605.5 442.83,-605.5"/>
<text text-anchor="middle" x="469.73" y="-611.5" font-family="Helvetica,sans-Serif" font-size="10.00">txhash.h</text>
</a>
</g>
</g>
<!-- Node33&#45;&gt;Node36 -->
<g id="edge46" class="edge">
<title>Node33&#45;&gt;Node36</title>
<path fill="none" stroke="midnightblue" d="M439.36,-660.22C444.46,-652.71 452.13,-641.41 458.49,-632.05"/>
<polygon fill="midnightblue" stroke="midnightblue" points="461.54,-633.79 464.26,-623.55 455.75,-629.86 461.54,-633.79"/>
</g>
<!-- Node38 -->
<g id="node38" class="node">
<title>Node38</title>
<g id="a_node38"><a xlink:href="../../de/d7c/tximage_8h.html" target="_top" xlink:title=" ">
<polygon fill="none" stroke="black" points="607.05,-330.5 607.05,-348.5 666.41,-348.5 666.41,-330.5 607.05,-330.5"/>
<text text-anchor="middle" x="636.73" y="-336.5" font-family="Helvetica,sans-Serif" font-size="10.00">tximage.h</text>
</a>
</g>
</g>
<!-- Node33&#45;&gt;Node38 -->
<g id="edge49" class="edge">
<title>Node33&#45;&gt;Node38</title>
<path fill="none" stroke="midnightblue" d="M464.12,-666.14C520.75,-659.92 636.73,-637.75 636.73,-560.5 636.73,-560.5 636.73,-560.5 636.73,-448.5 636.73,-417.02 636.73,-380.37 636.73,-358.88"/>
<polygon fill="midnightblue" stroke="midnightblue" points="640.23,-358.63 636.73,-348.63 633.23,-358.63 640.23,-358.63"/>
</g>
<!-- Node39 -->
<g id="node39" class="node">
<title>Node39</title>
<g id="a_node39"><a xlink:href="../../dc/d65/txstack_8h.html" target="_top" xlink:title=" ">
<polygon fill="none" stroke="black" points="515,-605.5 515,-623.5 570.46,-623.5 570.46,-605.5 515,-605.5"/>
<text text-anchor="middle" x="542.73" y="-611.5" font-family="Helvetica,sans-Serif" font-size="10.00">txstack.h</text>
</a>
</g>
</g>
<!-- Node33&#45;&gt;Node39 -->
<g id="edge53" class="edge">
<title>Node33&#45;&gt;Node39</title>
<path fill="none" stroke="midnightblue" d="M450.29,-660.45C467.97,-651.85 496.24,-638.1 516.87,-628.08"/>
<polygon fill="midnightblue" stroke="midnightblue" points="518.56,-631.15 526.02,-623.63 515.5,-624.85 518.56,-631.15"/>
</g>
<!-- Node42 -->
<g id="node42" class="node">
<title>Node42</title>
<g id="a_node42"><a xlink:href="../../d8/d3d/txstats_8h.html" target="_top" xlink:title=" ">
<polygon fill="none" stroke="black" points="371.11,-605.5 371.11,-623.5 424.35,-623.5 424.35,-605.5 371.11,-605.5"/>
<text text-anchor="middle" x="397.73" y="-611.5" font-family="Helvetica,sans-Serif" font-size="10.00">txstats.h</text>
</a>
</g>
</g>
<!-- Node33&#45;&gt;Node42 -->
<g id="edge58" class="edge">
<title>Node33&#45;&gt;Node42</title>
<path fill="none" stroke="midnightblue" d="M428.11,-660.22C423,-652.71 415.33,-641.41 408.97,-632.05"/>
<polygon fill="midnightblue" stroke="midnightblue" points="411.71,-629.86 403.2,-623.55 405.92,-633.79 411.71,-629.86"/>
</g>
<!-- Node34&#45;&gt;Node24 -->
<g id="edge43" class="edge">
<title>Node34&#45;&gt;Node24</title>
<path fill="none" stroke="midnightblue" d="M562.48,-440.22C561.41,-433.1 559.82,-422.58 558.45,-413.53"/>
<polygon fill="midnightblue" stroke="midnightblue" points="561.9,-412.92 556.95,-403.55 554.98,-413.96 561.9,-412.92"/>
</g>
<!-- Node35&#45;&gt;Node29 -->
<g id="edge45" class="edge">
<title>Node35&#45;&gt;Node29</title>
<path fill="none" stroke="midnightblue" d="M354.51,-550.45C365.36,-542.36 382.31,-529.7 395.46,-519.88"/>
<polygon fill="midnightblue" stroke="midnightblue" points="397.93,-522.41 403.85,-513.63 393.74,-516.8 397.93,-522.41"/>
</g>
<!-- Node37 -->
<g id="node37" class="node">
<title>Node37</title>
<g id="a_node37"><a xlink:href="../../d3/d01/txeqtb_8h.html" target="_top" xlink:title=" ">
<polygon fill="none" stroke="black" points="388.94,-550.5 388.94,-568.5 440.52,-568.5 440.52,-550.5 388.94,-550.5"/>
<text text-anchor="middle" x="414.73" y="-556.5" font-family="Helvetica,sans-Serif" font-size="10.00">txeqtb.h</text>
</a>
</g>
</g>
<!-- Node36&#45;&gt;Node37 -->
<g id="edge47" class="edge">
<title>Node36&#45;&gt;Node37</title>
<path fill="none" stroke="midnightblue" d="M461.14,-605.22C452.94,-597.32 440.39,-585.22 430.41,-575.61"/>
<polygon fill="midnightblue" stroke="midnightblue" points="432.71,-572.97 423.08,-568.55 427.86,-578.01 432.71,-572.97"/>
</g>
<!-- Node37&#45;&gt;Node29 -->
<g id="edge48" class="edge">
<title>Node37&#45;&gt;Node29</title>
<path fill="none" stroke="midnightblue" d="M414.73,-550.22C414.73,-543.18 414.73,-532.81 414.73,-523.83"/>
<polygon fill="midnightblue" stroke="midnightblue" points="418.23,-523.55 414.73,-513.55 411.23,-523.55 418.23,-523.55"/>
</g>
<!-- Node38&#45;&gt;Node13 -->
<g id="edge50" class="edge">
<title>Node38&#45;&gt;Node13</title>
<path fill="none" stroke="midnightblue" d="M645.37,-330.28C657.42,-317.77 676.57,-293.46 664.73,-275 650.16,-252.28 620.76,-241.01 598.12,-235.51"/>
<polygon fill="midnightblue" stroke="midnightblue" points="598.79,-232.08 588.28,-233.37 597.31,-238.92 598.79,-232.08"/>
</g>
<!-- Node38&#45;&gt;Node22 -->
<g id="edge51" class="edge">
<title>Node38&#45;&gt;Node22</title>
<path fill="none" stroke="midnightblue" d="M636.73,-330.22C636.73,-323.18 636.73,-312.81 636.73,-303.83"/>
<polygon fill="midnightblue" stroke="midnightblue" points="640.23,-303.55 636.73,-293.55 633.23,-303.55 640.23,-303.55"/>
</g>
<!-- Node40 -->
<g id="node40" class="node">
<title>Node40</title>
<g id="a_node40"><a xlink:href="../../d4/da4/txatt_8h.html" target="_top" xlink:title=" ">
<polygon fill="none" stroke="black" points="458.11,-550.5 458.11,-568.5 501.35,-568.5 501.35,-550.5 458.11,-550.5"/>
<text text-anchor="middle" x="479.73" y="-556.5" font-family="Helvetica,sans-Serif" font-size="10.00">txatt.h</text>
</a>
</g>
</g>
<!-- Node39&#45;&gt;Node40 -->
<g id="edge54" class="edge">
<title>Node39&#45;&gt;Node40</title>
<path fill="none" stroke="midnightblue" d="M533.16,-605.45C523.63,-597.43 508.79,-584.95 497.16,-575.17"/>
<polygon fill="midnightblue" stroke="midnightblue" points="499.3,-572.38 489.39,-568.63 494.79,-577.74 499.3,-572.38"/>
</g>
<!-- Node41 -->
<g id="node41" class="node">
<title>Node41</title>
<g id="a_node41"><a xlink:href="../../d1/d43/txxml_8h.html" target="_top" xlink:title=" ">
<polygon fill="none" stroke="black" points="518.9,-550.5 518.9,-568.5 566.57,-568.5 566.57,-550.5 518.9,-550.5"/>
<text text-anchor="middle" x="542.73" y="-556.5" font-family="Helvetica,sans-Serif" font-size="10.00">txxml.h</text>
</a>
</g>
</g>
<!-- Node39&#45;&gt;Node41 -->
<g id="edge56" class="edge">
<title>Node39&#45;&gt;Node41</title>
<path fill="none" stroke="midnightblue" d="M542.73,-605.22C542.73,-598.18 542.73,-587.81 542.73,-578.83"/>
<polygon fill="midnightblue" stroke="midnightblue" points="546.23,-578.55 542.73,-568.55 539.23,-578.55 546.23,-578.55"/>
</g>
<!-- Node40&#45;&gt;Node29 -->
<g id="edge55" class="edge">
<title>Node40&#45;&gt;Node29</title>
<path fill="none" stroke="midnightblue" d="M469.86,-550.45C460.03,-542.43 444.71,-529.95 432.72,-520.17"/>
<polygon fill="midnightblue" stroke="midnightblue" points="434.66,-517.23 424.7,-513.63 430.23,-522.66 434.66,-517.23"/>
</g>
<!-- Node41&#45;&gt;Node29 -->
<g id="edge57" class="edge">
<title>Node41&#45;&gt;Node29</title>
<path fill="none" stroke="midnightblue" d="M523.29,-550.45C502.15,-541.7 468.12,-527.61 443.8,-517.53"/>
<polygon fill="midnightblue" stroke="midnightblue" points="444.93,-514.22 434.35,-513.63 442.26,-520.68 444.93,-514.22"/>
</g>
<!-- Node43&#45;&gt;Node22 -->
<g id="edge60" class="edge">
<title>Node43&#45;&gt;Node22</title>
<path fill="none" stroke="midnightblue" d="M697.68,-440.28C697.24,-420.34 694.27,-368.22 675.73,-330 670.42,-319.05 661.67,-308.7 653.8,-300.74"/>
<polygon fill="midnightblue" stroke="midnightblue" points="656.03,-298.03 646.39,-293.65 651.19,-303.09 656.03,-298.03"/>
</g>
</g>
</svg>
