<?xml version="1.0" encoding="UTF-8" standalone="no"?>
<!DOCTYPE svg PUBLIC "-//W3C//DTD SVG 1.1//EN"
 "http://www.w3.org/Graphics/SVG/1.1/DTD/svg11.dtd">
<!-- Generated by graphviz version 2.43.0 (0)
 -->
<!-- Title: Graphical Class Hierarchy Pages: 1 -->
<svg width="212pt" height="175pt"
 viewBox="0.00 0.00 212.00 175.00" xmlns="http://www.w3.org/2000/svg" xmlns:xlink="http://www.w3.org/1999/xlink">
<g id="graph0" class="graph" transform="scale(1 1) rotate(0) translate(4 171)">
<title>Graphical Class Hierarchy</title>
<polygon fill="white" stroke="transparent" points="-4,4 -4,-171 208,-171 208,4 -4,4"/>
<!-- Node12 -->
<g id="node1" class="node">
<title>Node12</title>
<g id="a_node1"><a xlink:title=" ">
<polygon fill="white" stroke="#bfbfbf" points="0,-74.5 0,-92.5 81.6,-92.5 81.6,-74.5 0,-74.5"/>
<text text-anchor="middle" x="40.8" y="-80.5" font-family="Helvetica,sans-Serif" font-size="10.00">unary_function</text>
</a>
</g>
</g>
<!-- Node0 -->
<g id="node2" class="node">
<title>Node0</title>
<g id="a_node2"><a xlink:href="d7/d77/class_math_is_dollar.html" target="_top" xlink:title=" ">
<polygon fill="white" stroke="black" points="124.74,-148.5 124.74,-166.5 196.86,-166.5 196.86,-148.5 124.74,-148.5"/>
<text text-anchor="middle" x="160.8" y="-154.5" font-family="Helvetica,sans-Serif" font-size="10.00">MathIsDollar</text>
</a>
</g>
</g>
<!-- Node12&#45;&gt;Node0 -->
<g id="edge1" class="edge">
<title>Node12&#45;&gt;Node0</title>
<path fill="none" stroke="midnightblue" d="M60.44,-99.2C75.29,-111.21 96.94,-127.68 117.6,-139.5 123.27,-142.74 129.64,-145.76 135.67,-148.35"/>
<polygon fill="midnightblue" stroke="midnightblue" points="62.49,-96.35 52.54,-92.7 58.05,-101.76 62.49,-96.35"/>
</g>
<!-- Node14 -->
<g id="node3" class="node">
<title>Node14</title>
<g id="a_node3"><a xlink:href="de/d2a/class_math_is_over.html" target="_top" xlink:title=" ">
<polygon fill="white" stroke="black" points="126.96,-111.5 126.96,-129.5 194.64,-129.5 194.64,-111.5 126.96,-111.5"/>
<text text-anchor="middle" x="160.8" y="-117.5" font-family="Helvetica,sans-Serif" font-size="10.00">MathIsOver</text>
</a>
</g>
</g>
<!-- Node12&#45;&gt;Node14 -->
<g id="edge2" class="edge">
<title>Node12&#45;&gt;Node14</title>
<path fill="none" stroke="midnightblue" d="M80.51,-95.64C96.9,-100.78 115.66,-106.66 130.82,-111.41"/>
<polygon fill="midnightblue" stroke="midnightblue" points="81.26,-92.2 70.67,-92.55 79.16,-98.88 81.26,-92.2"/>
</g>
<!-- Node15 -->
<g id="node4" class="node">
<title>Node15</title>
<g id="a_node4"><a xlink:href="d2/d71/class_math_is_space.html" target="_top" xlink:title=" ">
<polygon fill="white" stroke="black" points="123.62,-74.5 123.62,-92.5 197.98,-92.5 197.98,-74.5 123.62,-74.5"/>
<text text-anchor="middle" x="160.8" y="-80.5" font-family="Helvetica,sans-Serif" font-size="10.00">MathIsSpace</text>
</a>
</g>
</g>
<!-- Node12&#45;&gt;Node15 -->
<g id="edge3" class="edge">
<title>Node12&#45;&gt;Node15</title>
<path fill="none" stroke="midnightblue" d="M91.78,-83.5C102.42,-83.5 113.45,-83.5 123.46,-83.5"/>
<polygon fill="midnightblue" stroke="midnightblue" points="91.75,-80 81.75,-83.5 91.75,-87 91.75,-80"/>
</g>
<!-- Node16 -->
<g id="node5" class="node">
<title>Node16</title>
<g id="a_node5"><a xlink:href="d4/d33/class_math_p_aux_small.html" target="_top" xlink:title=" ">
<polygon fill="white" stroke="black" points="117.6,-37.5 117.6,-55.5 204,-55.5 204,-37.5 117.6,-37.5"/>
<text text-anchor="middle" x="160.8" y="-43.5" font-family="Helvetica,sans-Serif" font-size="10.00">MathPAuxSmall</text>
</a>
</g>
</g>
<!-- Node12&#45;&gt;Node16 -->
<g id="edge4" class="edge">
<title>Node12&#45;&gt;Node16</title>
<path fill="none" stroke="midnightblue" d="M80.51,-71.36C96.9,-66.22 115.66,-60.34 130.82,-55.59"/>
<polygon fill="midnightblue" stroke="midnightblue" points="79.16,-68.12 70.67,-74.45 81.26,-74.8 79.16,-68.12"/>
</g>
<!-- Node17 -->
<g id="node6" class="node">
<title>Node17</title>
<g id="a_node6"><a xlink:href="d0/db1/class_math_p_aux_type.html" target="_top" xlink:title=" ">
<polygon fill="white" stroke="black" points="119.26,-0.5 119.26,-18.5 202.34,-18.5 202.34,-0.5 119.26,-0.5"/>
<text text-anchor="middle" x="160.8" y="-6.5" font-family="Helvetica,sans-Serif" font-size="10.00">MathPAuxType</text>
</a>
</g>
</g>
<!-- Node12&#45;&gt;Node17 -->
<g id="edge5" class="edge">
<title>Node12&#45;&gt;Node17</title>
<path fill="none" stroke="midnightblue" d="M61.07,-67.82C75.96,-56.13 97.38,-40.22 117.6,-28.5 123.86,-24.87 130.93,-21.45 137.47,-18.53"/>
<polygon fill="midnightblue" stroke="midnightblue" points="58.76,-65.18 53.11,-74.15 63.12,-70.66 58.76,-65.18"/>
</g>
</g>
</svg>
