<?xml version="1.0" encoding="UTF-8" standalone="no"?>
<!DOCTYPE svg PUBLIC "-//W3C//DTD SVG 1.1//EN"
 "http://www.w3.org/Graphics/SVG/1.1/DTD/svg11.dtd">
<!-- Generated by graphviz version 2.42.3 (20191010.1750)
 -->
<!-- Title: Istring.cpp Pages: 1 -->
<svg width="545pt" height="522pt"
 viewBox="0.00 0.00 545.03 522.00" xmlns="http://www.w3.org/2000/svg" xmlns:xlink="http://www.w3.org/1999/xlink">
<g id="graph0" class="graph" transform="scale(1 1) rotate(0) translate(4 518)">
<title>Istring.cpp</title>
<!-- Node1 -->
<g id="node1" class="node">
<title>Node1</title>
<g id="a_node1"><a xlink:title=" ">
<polygon fill="#bfbfbf" stroke="black" points="348.66,-495.5 348.66,-513.5 410.79,-513.5 410.79,-495.5 348.66,-495.5"/>
<text text-anchor="middle" x="379.73" y="-501.5" font-family="Helvetica,sans-Serif" font-size="10.00">Istring.cpp</text>
</a>
</g>
</g>
<!-- Node2 -->
<g id="node2" class="node">
<title>Node2</title>
<g id="a_node2"><a xlink:href="../../d7/d1b/_buffer_8h.html" target="_top" xlink:title=" ">
<polygon fill="none" stroke="black" points="143.13,-440.5 143.13,-458.5 222.32,-458.5 222.32,-440.5 143.13,-440.5"/>
<text text-anchor="middle" x="182.73" y="-446.5" font-family="Helvetica,sans-Serif" font-size="10.00">tralics/Buffer.h</text>
</a>
</g>
</g>
<!-- Node1&#45;&gt;Node2 -->
<g id="edge1" class="edge">
<title>Node1&#45;&gt;Node2</title>
<path fill="none" stroke="midnightblue" d="M349.81,-495.45C315.86,-486.32 260.35,-471.38 222.71,-461.26"/>
<polygon fill="midnightblue" stroke="midnightblue" points="223.17,-457.76 212.6,-458.54 221.35,-464.52 223.17,-457.76"/>
</g>
<!-- Node24 -->
<g id="node24" class="node">
<title>Node24</title>
<g id="a_node24"><a xlink:href="../../d9/dba/_label_info_8h.html" target="_top" xlink:title=" ">
<polygon fill="none" stroke="black" points="323.54,-330.5 323.54,-348.5 417.92,-348.5 417.92,-330.5 323.54,-330.5"/>
<text text-anchor="middle" x="370.73" y="-336.5" font-family="Helvetica,sans-Serif" font-size="10.00">tralics/LabelInfo.h</text>
</a>
</g>
</g>
<!-- Node1&#45;&gt;Node24 -->
<g id="edge27" class="edge">
<title>Node1&#45;&gt;Node24</title>
<path fill="none" stroke="midnightblue" d="M377.83,-495.36C375.87,-486.48 372.92,-471.82 371.73,-459 368.42,-423.6 369.12,-382 369.93,-358.7"/>
<polygon fill="midnightblue" stroke="midnightblue" points="373.43,-358.7 370.33,-348.57 366.43,-358.42 373.43,-358.7"/>
</g>
<!-- Node25 -->
<g id="node25" class="node">
<title>Node25</title>
<g id="a_node25"><a xlink:title=" ">
<polygon fill="none" stroke="#bfbfbf" points="380.67,-440.5 380.67,-458.5 432.78,-458.5 432.78,-440.5 380.67,-440.5"/>
<text text-anchor="middle" x="406.73" y="-446.5" font-family="Helvetica,sans-Serif" font-size="10.00">memory</text>
</a>
</g>
</g>
<!-- Node1&#45;&gt;Node25 -->
<g id="edge30" class="edge">
<title>Node1&#45;&gt;Node25</title>
<path fill="none" stroke="midnightblue" d="M383.95,-495.22C387.69,-487.86 393.29,-476.88 398,-467.64"/>
<polygon fill="midnightblue" stroke="midnightblue" points="401.21,-469.05 402.63,-458.55 394.97,-465.87 401.21,-469.05"/>
</g>
<!-- Node26 -->
<g id="node26" class="node">
<title>Node26</title>
<g id="a_node26"><a xlink:title=" ">
<polygon fill="none" stroke="#bfbfbf" points="450.42,-440.5 450.42,-458.5 537.03,-458.5 537.03,-440.5 450.42,-440.5"/>
<text text-anchor="middle" x="493.73" y="-446.5" font-family="Helvetica,sans-Serif" font-size="10.00">unordered_map</text>
</a>
</g>
</g>
<!-- Node1&#45;&gt;Node26 -->
<g id="edge31" class="edge">
<title>Node1&#45;&gt;Node26</title>
<path fill="none" stroke="midnightblue" d="M397.04,-495.45C415.62,-486.81 445.37,-472.98 466.97,-462.94"/>
<polygon fill="midnightblue" stroke="midnightblue" points="468.66,-466.01 476.25,-458.63 465.71,-459.67 468.66,-466.01"/>
</g>
<!-- Node3 -->
<g id="node3" class="node">
<title>Node3</title>
<g id="a_node3"><a xlink:href="../../d1/d9e/txid_8h.html" target="_top" xlink:title=" ">
<polygon fill="none" stroke="black" points="169.61,-330.5 169.61,-348.5 217.84,-348.5 217.84,-330.5 169.61,-330.5"/>
<text text-anchor="middle" x="193.73" y="-336.5" font-family="Helvetica,sans-Serif" font-size="10.00">../txid.h</text>
</a>
</g>
</g>
<!-- Node2&#45;&gt;Node3 -->
<g id="edge2" class="edge">
<title>Node2&#45;&gt;Node3</title>
<path fill="none" stroke="midnightblue" d="M183.97,-440.31C185.29,-431.4 187.37,-416.71 188.73,-404 190.34,-388.85 191.67,-371.61 192.55,-358.92"/>
<polygon fill="midnightblue" stroke="midnightblue" points="196.05,-358.94 193.22,-348.73 189.07,-358.48 196.05,-358.94"/>
</g>
<!-- Node13 -->
<g id="node13" class="node">
<title>Node13</title>
<g id="a_node13"><a xlink:href="../../d9/d18/txscaled_8h.html" target="_top" xlink:title=" ">
<polygon fill="none" stroke="black" points="236.05,-385.5 236.05,-403.5 305.41,-403.5 305.41,-385.5 236.05,-385.5"/>
<text text-anchor="middle" x="270.73" y="-391.5" font-family="Helvetica,sans-Serif" font-size="10.00">../txscaled.h</text>
</a>
</g>
</g>
<!-- Node2&#45;&gt;Node13 -->
<g id="edge12" class="edge">
<title>Node2&#45;&gt;Node13</title>
<path fill="none" stroke="midnightblue" d="M196.09,-440.45C209.92,-432.12 231.76,-418.97 248.25,-409.04"/>
<polygon fill="midnightblue" stroke="midnightblue" points="250.47,-411.78 257.24,-403.63 246.86,-405.79 250.47,-411.78"/>
</g>
<!-- Node21 -->
<g id="node21" class="node">
<title>Node21</title>
<g id="a_node21"><a xlink:title=" ">
<polygon fill="none" stroke="#bfbfbf" points="0,-385.5 0,-403.5 45.45,-403.5 45.45,-385.5 0,-385.5"/>
<text text-anchor="middle" x="22.73" y="-391.5" font-family="Helvetica,sans-Serif" font-size="10.00">cstring</text>
</a>
</g>
</g>
<!-- Node2&#45;&gt;Node21 -->
<g id="edge24" class="edge">
<title>Node2&#45;&gt;Node21</title>
<path fill="none" stroke="midnightblue" d="M158.43,-440.45C130.94,-431.34 86.03,-416.47 55.46,-406.34"/>
<polygon fill="midnightblue" stroke="midnightblue" points="56.29,-402.93 45.7,-403.11 54.09,-409.58 56.29,-402.93"/>
</g>
<!-- Node22 -->
<g id="node22" class="node">
<title>Node22</title>
<g id="a_node22"><a xlink:title=" ">
<polygon fill="none" stroke="#bfbfbf" points="63.55,-385.5 63.55,-403.5 117.9,-403.5 117.9,-385.5 63.55,-385.5"/>
<text text-anchor="middle" x="90.73" y="-391.5" font-family="Helvetica,sans-Serif" font-size="10.00">iostream</text>
</a>
</g>
</g>
<!-- Node2&#45;&gt;Node22 -->
<g id="edge25" class="edge">
<title>Node2&#45;&gt;Node22</title>
<path fill="none" stroke="midnightblue" d="M168.75,-440.45C154.16,-432.05 131.04,-418.72 113.75,-408.76"/>
<polygon fill="midnightblue" stroke="midnightblue" points="115.24,-405.58 104.83,-403.63 111.75,-411.65 115.24,-405.58"/>
</g>
<!-- Node23 -->
<g id="node23" class="node">
<title>Node23</title>
<g id="a_node23"><a xlink:title=" ">
<polygon fill="none" stroke="#bfbfbf" points="136.11,-385.5 136.11,-403.5 179.34,-403.5 179.34,-385.5 136.11,-385.5"/>
<text text-anchor="middle" x="157.73" y="-391.5" font-family="Helvetica,sans-Serif" font-size="10.00">vector</text>
</a>
</g>
</g>
<!-- Node2&#45;&gt;Node23 -->
<g id="edge26" class="edge">
<title>Node2&#45;&gt;Node23</title>
<path fill="none" stroke="midnightblue" d="M178.82,-440.22C175.35,-432.86 170.17,-421.88 165.81,-412.64"/>
<polygon fill="midnightblue" stroke="midnightblue" points="168.96,-411.1 161.52,-403.55 162.62,-414.09 168.96,-411.1"/>
</g>
<!-- Node4 -->
<g id="node4" class="node">
<title>Node4</title>
<g id="a_node4"><a xlink:href="../../d5/daf/_istring_8h.html" target="_top" xlink:title=" ">
<polygon fill="none" stroke="black" points="154.5,-275.5 154.5,-293.5 234.96,-293.5 234.96,-275.5 154.5,-275.5"/>
<text text-anchor="middle" x="194.73" y="-281.5" font-family="Helvetica,sans-Serif" font-size="10.00">tralics/Istring.h</text>
</a>
</g>
</g>
<!-- Node3&#45;&gt;Node4 -->
<g id="edge3" class="edge">
<title>Node3&#45;&gt;Node4</title>
<path fill="none" stroke="midnightblue" d="M193.88,-330.22C194.02,-323.18 194.21,-312.81 194.38,-303.83"/>
<polygon fill="midnightblue" stroke="midnightblue" points="197.89,-303.61 194.57,-293.55 190.89,-303.48 197.89,-303.61"/>
</g>
<!-- Node5 -->
<g id="node5" class="node">
<title>Node5</title>
<g id="a_node5"><a xlink:href="../../d0/d0b/enums_8h.html" target="_top" xlink:title=" ">
<polygon fill="none" stroke="black" points="180.55,-165.5 180.55,-183.5 234.9,-183.5 234.9,-165.5 180.55,-165.5"/>
<text text-anchor="middle" x="207.73" y="-171.5" font-family="Helvetica,sans-Serif" font-size="10.00">enums.h</text>
</a>
</g>
</g>
<!-- Node4&#45;&gt;Node5 -->
<g id="edge4" class="edge">
<title>Node4&#45;&gt;Node5</title>
<path fill="none" stroke="midnightblue" d="M195.7,-275.38C197.77,-258.18 202.65,-217.7 205.51,-193.89"/>
<polygon fill="midnightblue" stroke="midnightblue" points="209.02,-194.06 206.74,-183.71 202.07,-193.22 209.02,-194.06"/>
</g>
<!-- Node11 -->
<g id="node11" class="node">
<title>Node11</title>
<g id="a_node11"><a xlink:title=" ">
<polygon fill="none" stroke="#bfbfbf" points="214.33,-220.5 214.33,-238.5 253.12,-238.5 253.12,-220.5 214.33,-220.5"/>
<text text-anchor="middle" x="233.73" y="-226.5" font-family="Helvetica,sans-Serif" font-size="10.00">array</text>
</a>
</g>
</g>
<!-- Node4&#45;&gt;Node11 -->
<g id="edge10" class="edge">
<title>Node4&#45;&gt;Node11</title>
<path fill="none" stroke="midnightblue" d="M200.82,-275.22C206.41,-267.63 214.83,-256.18 221.76,-246.76"/>
<polygon fill="midnightblue" stroke="midnightblue" points="224.7,-248.68 227.8,-238.55 219.06,-244.53 224.7,-248.68"/>
</g>
<!-- Node12 -->
<g id="node12" class="node">
<title>Node12</title>
<g id="a_node12"><a xlink:title=" ">
<polygon fill="none" stroke="#bfbfbf" points="118.5,-220.5 118.5,-238.5 158.95,-238.5 158.95,-220.5 118.5,-220.5"/>
<text text-anchor="middle" x="138.73" y="-226.5" font-family="Helvetica,sans-Serif" font-size="10.00">string</text>
</a>
</g>
</g>
<!-- Node4&#45;&gt;Node12 -->
<g id="edge11" class="edge">
<title>Node4&#45;&gt;Node12</title>
<path fill="none" stroke="midnightblue" d="M185.98,-275.22C177.63,-267.32 164.85,-255.22 154.69,-245.61"/>
<polygon fill="midnightblue" stroke="midnightblue" points="156.9,-242.88 147.23,-238.55 152.09,-247.97 156.9,-242.88"/>
</g>
<!-- Node6 -->
<g id="node6" class="node">
<title>Node6</title>
<g id="a_node6"><a xlink:href="../../d8/db5/consts_8h.html" target="_top" xlink:title=" ">
<polygon fill="none" stroke="black" points="181.11,-110.5 181.11,-128.5 234.35,-128.5 234.35,-110.5 181.11,-110.5"/>
<text text-anchor="middle" x="207.73" y="-116.5" font-family="Helvetica,sans-Serif" font-size="10.00">consts.h</text>
</a>
</g>
</g>
<!-- Node5&#45;&gt;Node6 -->
<g id="edge5" class="edge">
<title>Node5&#45;&gt;Node6</title>
<path fill="none" stroke="midnightblue" d="M207.73,-165.22C207.73,-158.18 207.73,-147.81 207.73,-138.83"/>
<polygon fill="midnightblue" stroke="midnightblue" points="211.23,-138.55 207.73,-128.55 204.23,-138.55 211.23,-138.55"/>
</g>
<!-- Node7 -->
<g id="node7" class="node">
<title>Node7</title>
<g id="a_node7"><a xlink:href="../../d9/d49/types_8h.html" target="_top" xlink:title=" ">
<polygon fill="none" stroke="black" points="210.61,-55.5 210.61,-73.5 258.85,-73.5 258.85,-55.5 210.61,-55.5"/>
<text text-anchor="middle" x="234.73" y="-61.5" font-family="Helvetica,sans-Serif" font-size="10.00">types.h</text>
</a>
</g>
</g>
<!-- Node6&#45;&gt;Node7 -->
<g id="edge6" class="edge">
<title>Node6&#45;&gt;Node7</title>
<path fill="none" stroke="midnightblue" d="M211.95,-110.22C215.69,-102.86 221.29,-91.88 226,-82.64"/>
<polygon fill="midnightblue" stroke="midnightblue" points="229.21,-84.05 230.63,-73.55 222.97,-80.87 229.21,-84.05"/>
</g>
<!-- Node8 -->
<g id="node8" class="node">
<title>Node8</title>
<g id="a_node8"><a xlink:title=" ">
<polygon fill="none" stroke="#bfbfbf" points="144.61,-0.5 144.61,-18.5 192.84,-18.5 192.84,-0.5 144.61,-0.5"/>
<text text-anchor="middle" x="168.73" y="-6.5" font-family="Helvetica,sans-Serif" font-size="10.00">cassert</text>
</a>
</g>
</g>
<!-- Node7&#45;&gt;Node8 -->
<g id="edge7" class="edge">
<title>Node7&#45;&gt;Node8</title>
<path fill="none" stroke="midnightblue" d="M224.7,-55.45C214.72,-47.43 199.17,-34.95 186.99,-25.17"/>
<polygon fill="midnightblue" stroke="midnightblue" points="188.83,-22.16 178.84,-18.63 184.45,-27.62 188.83,-22.16"/>
</g>
<!-- Node9 -->
<g id="node9" class="node">
<title>Node9</title>
<g id="a_node9"><a xlink:title=" ">
<polygon fill="none" stroke="#bfbfbf" points="210.61,-0.5 210.61,-18.5 258.85,-18.5 258.85,-0.5 210.61,-0.5"/>
<text text-anchor="middle" x="234.73" y="-6.5" font-family="Helvetica,sans-Serif" font-size="10.00">cstddef</text>
</a>
</g>
</g>
<!-- Node7&#45;&gt;Node9 -->
<g id="edge8" class="edge">
<title>Node7&#45;&gt;Node9</title>
<path fill="none" stroke="midnightblue" d="M234.73,-55.22C234.73,-48.18 234.73,-37.81 234.73,-28.83"/>
<polygon fill="midnightblue" stroke="midnightblue" points="238.23,-28.55 234.73,-18.55 231.23,-28.55 238.23,-28.55"/>
</g>
<!-- Node10 -->
<g id="node10" class="node">
<title>Node10</title>
<g id="a_node10"><a xlink:title=" ">
<polygon fill="none" stroke="#bfbfbf" points="276.66,-0.5 276.66,-18.5 338.79,-18.5 338.79,-0.5 276.66,-0.5"/>
<text text-anchor="middle" x="307.73" y="-6.5" font-family="Helvetica,sans-Serif" font-size="10.00">type_traits</text>
</a>
</g>
</g>
<!-- Node7&#45;&gt;Node10 -->
<g id="edge9" class="edge">
<title>Node7&#45;&gt;Node10</title>
<path fill="none" stroke="midnightblue" d="M245.81,-55.45C257.07,-47.28 274.72,-34.46 288.31,-24.6"/>
<polygon fill="midnightblue" stroke="midnightblue" points="290.5,-27.33 296.54,-18.63 286.39,-21.67 290.5,-27.33"/>
</g>
<!-- Node14 -->
<g id="node14" class="node">
<title>Node14</title>
<g id="a_node14"><a xlink:href="../../dc/d91/txtokenlist_8h.html" target="_top" xlink:title=" ">
<polygon fill="none" stroke="black" points="236.33,-330.5 236.33,-348.5 305.13,-348.5 305.13,-330.5 236.33,-330.5"/>
<text text-anchor="middle" x="270.73" y="-336.5" font-family="Helvetica,sans-Serif" font-size="10.00">txtokenlist.h</text>
</a>
</g>
</g>
<!-- Node13&#45;&gt;Node14 -->
<g id="edge13" class="edge">
<title>Node13&#45;&gt;Node14</title>
<path fill="none" stroke="midnightblue" d="M270.73,-385.22C270.73,-378.18 270.73,-367.81 270.73,-358.83"/>
<polygon fill="midnightblue" stroke="midnightblue" points="274.23,-358.55 270.73,-348.55 267.23,-358.55 274.23,-358.55"/>
</g>
<!-- Node14&#45;&gt;Node4 -->
<g id="edge14" class="edge">
<title>Node14&#45;&gt;Node4</title>
<path fill="none" stroke="midnightblue" d="M259.18,-330.45C247.47,-322.28 229.08,-309.46 214.94,-299.6"/>
<polygon fill="midnightblue" stroke="midnightblue" points="216.58,-296.47 206.38,-293.63 212.58,-302.22 216.58,-296.47"/>
</g>
<!-- Node15 -->
<g id="node15" class="node">
<title>Node15</title>
<g id="a_node15"><a xlink:href="../../dd/dcd/_token_8h.html" target="_top" xlink:title=" ">
<polygon fill="none" stroke="black" points="252.77,-275.5 252.77,-293.5 332.68,-293.5 332.68,-275.5 252.77,-275.5"/>
<text text-anchor="middle" x="292.73" y="-281.5" font-family="Helvetica,sans-Serif" font-size="10.00">tralics/Token.h</text>
</a>
</g>
</g>
<!-- Node14&#45;&gt;Node15 -->
<g id="edge15" class="edge">
<title>Node14&#45;&gt;Node15</title>
<path fill="none" stroke="midnightblue" d="M274.16,-330.22C277.18,-322.94 281.68,-312.11 285.49,-302.93"/>
<polygon fill="midnightblue" stroke="midnightblue" points="288.78,-304.13 289.39,-293.55 282.32,-301.44 288.78,-304.13"/>
</g>
<!-- Node20 -->
<g id="node20" class="node">
<title>Node20</title>
<g id="a_node20"><a xlink:title=" ">
<polygon fill="none" stroke="#bfbfbf" points="350.33,-275.5 350.33,-293.5 389.12,-293.5 389.12,-275.5 350.33,-275.5"/>
<text text-anchor="middle" x="369.73" y="-281.5" font-family="Helvetica,sans-Serif" font-size="10.00">utility</text>
</a>
</g>
</g>
<!-- Node14&#45;&gt;Node20 -->
<g id="edge23" class="edge">
<title>Node14&#45;&gt;Node20</title>
<path fill="none" stroke="midnightblue" d="M285.76,-330.45C301.68,-321.93 327.04,-308.35 345.73,-298.35"/>
<polygon fill="midnightblue" stroke="midnightblue" points="347.38,-301.43 354.55,-293.63 344.08,-295.26 347.38,-301.43"/>
</g>
<!-- Node15&#45;&gt;Node11 -->
<g id="edge21" class="edge">
<title>Node15&#45;&gt;Node11</title>
<path fill="none" stroke="midnightblue" d="M283.77,-275.45C274.93,-267.51 261.21,-255.19 250.37,-245.45"/>
<polygon fill="midnightblue" stroke="midnightblue" points="252.55,-242.7 242.77,-238.63 247.87,-247.91 252.55,-242.7"/>
</g>
<!-- Node16 -->
<g id="node16" class="node">
<title>Node16</title>
<g id="a_node16"><a xlink:href="../../d2/d68/_cmd_chr_8h.html" target="_top" xlink:title=" ">
<polygon fill="none" stroke="black" points="271.22,-220.5 271.22,-238.5 332.24,-238.5 332.24,-220.5 271.22,-220.5"/>
<text text-anchor="middle" x="301.73" y="-226.5" font-family="Helvetica,sans-Serif" font-size="10.00">CmdChr.h</text>
</a>
</g>
</g>
<!-- Node15&#45;&gt;Node16 -->
<g id="edge16" class="edge">
<title>Node15&#45;&gt;Node16</title>
<path fill="none" stroke="midnightblue" d="M294.13,-275.22C295.34,-268.1 297.13,-257.58 298.67,-248.53"/>
<polygon fill="midnightblue" stroke="midnightblue" points="302.14,-248.99 300.36,-238.55 295.23,-247.82 302.14,-248.99"/>
</g>
<!-- Node19 -->
<g id="node19" class="node">
<title>Node19</title>
<g id="a_node19"><a xlink:title=" ">
<polygon fill="none" stroke="#bfbfbf" points="350.23,-220.5 350.23,-238.5 379.23,-238.5 379.23,-220.5 350.23,-220.5"/>
<text text-anchor="middle" x="364.34" y="-226.5" font-family="Helvetica,sans-Serif" font-size="10.00">list</text>
</a>
</g>
</g>
<!-- Node15&#45;&gt;Node19 -->
<g id="edge22" class="edge">
<title>Node15&#45;&gt;Node19</title>
<path fill="none" stroke="midnightblue" d="M303.66,-275.45C314.76,-267.28 332.18,-254.46 345.57,-244.6"/>
<polygon fill="midnightblue" stroke="midnightblue" points="347.71,-247.37 353.69,-238.63 343.56,-241.73 347.71,-247.37"/>
</g>
<!-- Node16&#45;&gt;Node5 -->
<g id="edge20" class="edge">
<title>Node16&#45;&gt;Node5</title>
<path fill="none" stroke="midnightblue" d="M287.45,-220.45C272.54,-212.05 248.92,-198.72 231.25,-188.76"/>
<polygon fill="midnightblue" stroke="midnightblue" points="232.57,-185.49 222.14,-183.63 229.13,-191.59 232.57,-185.49"/>
</g>
<!-- Node17 -->
<g id="node17" class="node">
<title>Node17</title>
<g id="a_node17"><a xlink:href="../../d8/d47/codepoint_8h.html" target="_top" xlink:title=" ">
<polygon fill="none" stroke="black" points="267.87,-165.5 267.87,-183.5 335.58,-183.5 335.58,-165.5 267.87,-165.5"/>
<text text-anchor="middle" x="301.73" y="-171.5" font-family="Helvetica,sans-Serif" font-size="10.00">codepoint.h</text>
</a>
</g>
</g>
<!-- Node16&#45;&gt;Node17 -->
<g id="edge17" class="edge">
<title>Node16&#45;&gt;Node17</title>
<path fill="none" stroke="midnightblue" d="M301.73,-220.22C301.73,-213.18 301.73,-202.81 301.73,-193.83"/>
<polygon fill="midnightblue" stroke="midnightblue" points="305.23,-193.55 301.73,-183.55 298.23,-193.55 305.23,-193.55"/>
</g>
<!-- Node17&#45;&gt;Node7 -->
<g id="edge18" class="edge">
<title>Node17&#45;&gt;Node7</title>
<path fill="none" stroke="midnightblue" d="M296.69,-165.38C285.78,-147.79 259.76,-105.85 245.14,-82.29"/>
<polygon fill="midnightblue" stroke="midnightblue" points="248.07,-80.36 239.82,-73.71 242.12,-84.05 248.07,-80.36"/>
</g>
<!-- Node18 -->
<g id="node18" class="node">
<title>Node18</title>
<g id="a_node18"><a xlink:title=" ">
<polygon fill="none" stroke="#bfbfbf" points="291.21,-110.5 291.21,-128.5 342.24,-128.5 342.24,-110.5 291.21,-110.5"/>
<text text-anchor="middle" x="316.73" y="-116.5" font-family="Helvetica,sans-Serif" font-size="10.00">optional</text>
</a>
</g>
</g>
<!-- Node17&#45;&gt;Node18 -->
<g id="edge19" class="edge">
<title>Node17&#45;&gt;Node18</title>
<path fill="none" stroke="midnightblue" d="M304.07,-165.22C306.11,-158.02 309.13,-147.35 311.71,-138.23"/>
<polygon fill="midnightblue" stroke="midnightblue" points="315.09,-139.12 314.45,-128.55 308.36,-137.22 315.09,-139.12"/>
</g>
<!-- Node24&#45;&gt;Node4 -->
<g id="edge28" class="edge">
<title>Node24&#45;&gt;Node4</title>
<path fill="none" stroke="midnightblue" d="M344,-330.45C313.93,-321.4 264.92,-306.64 231.32,-296.52"/>
<polygon fill="midnightblue" stroke="midnightblue" points="232,-293.07 221.42,-293.54 229.99,-299.77 232,-293.07"/>
</g>
<!-- Node24&#45;&gt;Node20 -->
<g id="edge29" class="edge">
<title>Node24&#45;&gt;Node20</title>
<path fill="none" stroke="midnightblue" d="M370.57,-330.22C370.44,-323.18 370.24,-312.81 370.07,-303.83"/>
<polygon fill="midnightblue" stroke="midnightblue" points="373.57,-303.48 369.88,-293.55 366.57,-303.61 373.57,-303.48"/>
</g>
</g>
</svg>
