<?xml version="1.0" encoding="UTF-8" standalone="no"?>
<!DOCTYPE svg PUBLIC "-//W3C//DTD SVG 1.1//EN"
 "http://www.w3.org/Graphics/SVG/1.1/DTD/svg11.dtd">
<!-- Generated by graphviz version 2.42.3 (20191010.1750)
 -->
<!-- Title: txtoken2.cpp Pages: 1 -->
<svg width="351pt" height="577pt"
 viewBox="0.00 0.00 350.73 577.00" xmlns="http://www.w3.org/2000/svg" xmlns:xlink="http://www.w3.org/1999/xlink">
<g id="graph0" class="graph" transform="scale(1 1) rotate(0) translate(4 573)">
<title>txtoken2.cpp</title>
<!-- Node1 -->
<g id="node1" class="node">
<title>Node1</title>
<g id="a_node1"><a xlink:title=" ">
<polygon fill="#bfbfbf" stroke="black" points="27.88,-550.5 27.88,-568.5 100.58,-568.5 100.58,-550.5 27.88,-550.5"/>
<text text-anchor="middle" x="64.23" y="-556.5" font-family="Helvetica,sans-Serif" font-size="10.00">txtoken2.cpp</text>
</a>
</g>
</g>
<!-- Node2 -->
<g id="node2" class="node">
<title>Node2</title>
<g id="a_node2"><a xlink:href="../../d7/d7e/txhash_8h.html" target="_top" xlink:title=" ">
<polygon fill="none" stroke="black" points="37.33,-495.5 37.33,-513.5 91.13,-513.5 91.13,-495.5 37.33,-495.5"/>
<text text-anchor="middle" x="64.23" y="-501.5" font-family="Helvetica,sans-Serif" font-size="10.00">txhash.h</text>
</a>
</g>
</g>
<!-- Node1&#45;&gt;Node2 -->
<g id="edge1" class="edge">
<title>Node1&#45;&gt;Node2</title>
<path fill="none" stroke="midnightblue" d="M64.23,-550.22C64.23,-543.18 64.23,-532.81 64.23,-523.83"/>
<polygon fill="midnightblue" stroke="midnightblue" points="67.73,-523.55 64.23,-513.55 60.73,-523.55 67.73,-523.55"/>
</g>
<!-- Node3 -->
<g id="node3" class="node">
<title>Node3</title>
<g id="a_node3"><a xlink:href="../../d7/d1b/_buffer_8h.html" target="_top" xlink:title=" ">
<polygon fill="none" stroke="black" points="68.64,-440.5 68.64,-458.5 147.83,-458.5 147.83,-440.5 68.64,-440.5"/>
<text text-anchor="middle" x="108.23" y="-446.5" font-family="Helvetica,sans-Serif" font-size="10.00">tralics/Buffer.h</text>
</a>
</g>
</g>
<!-- Node2&#45;&gt;Node3 -->
<g id="edge2" class="edge">
<title>Node2&#45;&gt;Node3</title>
<path fill="none" stroke="midnightblue" d="M71.11,-495.22C77.47,-487.55 87.11,-475.94 94.97,-466.47"/>
<polygon fill="midnightblue" stroke="midnightblue" points="97.85,-468.48 101.55,-458.55 92.47,-464.01 97.85,-468.48"/>
</g>
<!-- Node26 -->
<g id="node26" class="node">
<title>Node26</title>
<g id="a_node26"><a xlink:href="../../d3/d01/txeqtb_8h.html" target="_top" xlink:title=" ">
<polygon fill="none" stroke="black" points="4.44,-330.5 4.44,-348.5 56.02,-348.5 56.02,-330.5 4.44,-330.5"/>
<text text-anchor="middle" x="30.23" y="-336.5" font-family="Helvetica,sans-Serif" font-size="10.00">txeqtb.h</text>
</a>
</g>
</g>
<!-- Node2&#45;&gt;Node26 -->
<g id="edge31" class="edge">
<title>Node2&#45;&gt;Node26</title>
<path fill="none" stroke="midnightblue" d="M62.5,-495.19C57.22,-469.9 41.28,-393.45 33.97,-358.4"/>
<polygon fill="midnightblue" stroke="midnightblue" points="37.39,-357.67 31.92,-348.6 30.54,-359.1 37.39,-357.67"/>
</g>
<!-- Node4 -->
<g id="node4" class="node">
<title>Node4</title>
<g id="a_node4"><a xlink:href="../../d1/d9e/txid_8h.html" target="_top" xlink:title=" ">
<polygon fill="none" stroke="black" points="80.11,-330.5 80.11,-348.5 128.35,-348.5 128.35,-330.5 80.11,-330.5"/>
<text text-anchor="middle" x="104.23" y="-336.5" font-family="Helvetica,sans-Serif" font-size="10.00">../txid.h</text>
</a>
</g>
</g>
<!-- Node3&#45;&gt;Node4 -->
<g id="edge3" class="edge">
<title>Node3&#45;&gt;Node4</title>
<path fill="none" stroke="midnightblue" d="M103.04,-440.37C97.86,-431.74 90.26,-417.5 87.23,-404 83.69,-388.18 89.31,-370.37 95.02,-357.65"/>
<polygon fill="midnightblue" stroke="midnightblue" points="98.16,-359.18 99.44,-348.67 91.88,-356.09 98.16,-359.18"/>
</g>
<!-- Node17 -->
<g id="node17" class="node">
<title>Node17</title>
<g id="a_node17"><a xlink:href="../../d9/d18/txscaled_8h.html" target="_top" xlink:title=" ">
<polygon fill="none" stroke="black" points="159.55,-385.5 159.55,-403.5 228.91,-403.5 228.91,-385.5 159.55,-385.5"/>
<text text-anchor="middle" x="194.23" y="-391.5" font-family="Helvetica,sans-Serif" font-size="10.00">../txscaled.h</text>
</a>
</g>
</g>
<!-- Node3&#45;&gt;Node17 -->
<g id="edge19" class="edge">
<title>Node3&#45;&gt;Node17</title>
<path fill="none" stroke="midnightblue" d="M121.29,-440.45C134.81,-432.12 156.15,-418.97 172.26,-409.04"/>
<polygon fill="midnightblue" stroke="midnightblue" points="174.37,-411.85 181.05,-403.63 170.7,-405.89 174.37,-411.85"/>
</g>
<!-- Node25 -->
<g id="node25" class="node">
<title>Node25</title>
<g id="a_node25"><a xlink:title=" ">
<polygon fill="none" stroke="#bfbfbf" points="96.5,-385.5 96.5,-403.5 141.96,-403.5 141.96,-385.5 96.5,-385.5"/>
<text text-anchor="middle" x="119.23" y="-391.5" font-family="Helvetica,sans-Serif" font-size="10.00">cstring</text>
</a>
</g>
</g>
<!-- Node3&#45;&gt;Node25 -->
<g id="edge30" class="edge">
<title>Node3&#45;&gt;Node25</title>
<path fill="none" stroke="midnightblue" d="M109.95,-440.22C111.43,-433.1 113.61,-422.58 115.49,-413.53"/>
<polygon fill="midnightblue" stroke="midnightblue" points="118.96,-414.05 117.56,-403.55 112.1,-412.63 118.96,-414.05"/>
</g>
<!-- Node5 -->
<g id="node5" class="node">
<title>Node5</title>
<g id="a_node5"><a xlink:href="../../d5/daf/_istring_8h.html" target="_top" xlink:title=" ">
<polygon fill="none" stroke="black" points="67,-275.5 67,-293.5 147.46,-293.5 147.46,-275.5 67,-275.5"/>
<text text-anchor="middle" x="107.23" y="-281.5" font-family="Helvetica,sans-Serif" font-size="10.00">tralics/Istring.h</text>
</a>
</g>
</g>
<!-- Node4&#45;&gt;Node5 -->
<g id="edge4" class="edge">
<title>Node4&#45;&gt;Node5</title>
<path fill="none" stroke="midnightblue" d="M104.7,-330.22C105.1,-323.18 105.69,-312.81 106.19,-303.83"/>
<polygon fill="midnightblue" stroke="midnightblue" points="109.7,-303.73 106.78,-293.55 102.72,-303.34 109.7,-303.73"/>
</g>
<!-- Node6 -->
<g id="node6" class="node">
<title>Node6</title>
<g id="a_node6"><a xlink:href="../../dd/d47/_str_hash_8h.html" target="_top" xlink:title=" ">
<polygon fill="none" stroke="black" points="0,-220.5 0,-238.5 60.46,-238.5 60.46,-220.5 0,-220.5"/>
<text text-anchor="middle" x="30.23" y="-226.5" font-family="Helvetica,sans-Serif" font-size="10.00">StrHash.h</text>
</a>
</g>
</g>
<!-- Node5&#45;&gt;Node6 -->
<g id="edge5" class="edge">
<title>Node5&#45;&gt;Node6</title>
<path fill="none" stroke="midnightblue" d="M95.54,-275.45C83.55,-267.2 64.69,-254.22 50.31,-244.32"/>
<polygon fill="midnightblue" stroke="midnightblue" points="52.26,-241.41 42.04,-238.63 48.29,-247.18 52.26,-241.41"/>
</g>
<!-- Node14 -->
<g id="node14" class="node">
<title>Node14</title>
<g id="a_node14"><a xlink:href="../../d0/d0b/enums_8h.html" target="_top" xlink:title=" ">
<polygon fill="none" stroke="black" points="166.05,-165.5 166.05,-183.5 220.41,-183.5 220.41,-165.5 166.05,-165.5"/>
<text text-anchor="middle" x="193.23" y="-171.5" font-family="Helvetica,sans-Serif" font-size="10.00">enums.h</text>
</a>
</g>
</g>
<!-- Node5&#45;&gt;Node14 -->
<g id="edge13" class="edge">
<title>Node5&#45;&gt;Node14</title>
<path fill="none" stroke="midnightblue" d="M130.6,-275.43C147.33,-268.42 168.98,-256.59 181.23,-239 190.45,-225.76 193.1,-207.37 193.65,-193.78"/>
<polygon fill="midnightblue" stroke="midnightblue" points="197.15,-193.75 193.72,-183.72 190.15,-193.7 197.15,-193.75"/>
</g>
<!-- Node15 -->
<g id="node15" class="node">
<title>Node15</title>
<g id="a_node15"><a xlink:href="../../d8/d3c/util_8h.html" target="_top" xlink:title=" ">
<polygon fill="none" stroke="black" points="78.67,-220.5 78.67,-238.5 115.79,-238.5 115.79,-220.5 78.67,-220.5"/>
<text text-anchor="middle" x="97.23" y="-226.5" font-family="Helvetica,sans-Serif" font-size="10.00">util.h</text>
</a>
</g>
</g>
<!-- Node5&#45;&gt;Node15 -->
<g id="edge15" class="edge">
<title>Node5&#45;&gt;Node15</title>
<path fill="none" stroke="midnightblue" d="M105.67,-275.22C104.33,-268.1 102.34,-257.58 100.63,-248.53"/>
<polygon fill="midnightblue" stroke="midnightblue" points="104.04,-247.73 98.75,-238.55 97.17,-249.03 104.04,-247.73"/>
</g>
<!-- Node16 -->
<g id="node16" class="node">
<title>Node16</title>
<g id="a_node16"><a xlink:title=" ">
<polygon fill="none" stroke="#bfbfbf" points="133.84,-220.5 133.84,-238.5 172.62,-238.5 172.62,-220.5 133.84,-220.5"/>
<text text-anchor="middle" x="153.23" y="-226.5" font-family="Helvetica,sans-Serif" font-size="10.00">array</text>
</a>
</g>
</g>
<!-- Node5&#45;&gt;Node16 -->
<g id="edge18" class="edge">
<title>Node5&#45;&gt;Node16</title>
<path fill="none" stroke="midnightblue" d="M114.42,-275.22C121.14,-267.47 131.36,-255.7 139.62,-246.18"/>
<polygon fill="midnightblue" stroke="midnightblue" points="142.33,-248.4 146.25,-238.55 137.05,-243.81 142.33,-248.4"/>
</g>
<!-- Node7 -->
<g id="node7" class="node">
<title>Node7</title>
<g id="a_node7"><a xlink:href="../../d8/db5/consts_8h.html" target="_top" xlink:title=" ">
<polygon fill="none" stroke="black" points="151.61,-110.5 151.61,-128.5 204.85,-128.5 204.85,-110.5 151.61,-110.5"/>
<text text-anchor="middle" x="178.23" y="-116.5" font-family="Helvetica,sans-Serif" font-size="10.00">consts.h</text>
</a>
</g>
</g>
<!-- Node6&#45;&gt;Node7 -->
<g id="edge6" class="edge">
<title>Node6&#45;&gt;Node7</title>
<path fill="none" stroke="midnightblue" d="M24.95,-220.16C17.41,-207.05 5.74,-181.44 18.23,-165 33.1,-145.44 99.1,-132.2 141.55,-125.53"/>
<polygon fill="midnightblue" stroke="midnightblue" points="142.16,-128.98 151.53,-124.02 141.11,-122.06 142.16,-128.98"/>
</g>
<!-- Node12 -->
<g id="node12" class="node">
<title>Node12</title>
<g id="a_node12"><a xlink:title=" ">
<polygon fill="none" stroke="#bfbfbf" points="89,-165.5 89,-183.5 129.46,-183.5 129.46,-165.5 89,-165.5"/>
<text text-anchor="middle" x="109.23" y="-171.5" font-family="Helvetica,sans-Serif" font-size="10.00">string</text>
</a>
</g>
</g>
<!-- Node6&#45;&gt;Node12 -->
<g id="edge11" class="edge">
<title>Node6&#45;&gt;Node12</title>
<path fill="none" stroke="midnightblue" d="M42.23,-220.45C54.53,-212.2 73.88,-199.22 88.63,-189.32"/>
<polygon fill="midnightblue" stroke="midnightblue" points="90.77,-192.1 97.12,-183.63 86.87,-186.29 90.77,-192.1"/>
</g>
<!-- Node13 -->
<g id="node13" class="node">
<title>Node13</title>
<g id="a_node13"><a xlink:title=" ">
<polygon fill="none" stroke="#bfbfbf" points="27.62,-165.5 27.62,-183.5 70.85,-183.5 70.85,-165.5 27.62,-165.5"/>
<text text-anchor="middle" x="49.23" y="-171.5" font-family="Helvetica,sans-Serif" font-size="10.00">vector</text>
</a>
</g>
</g>
<!-- Node6&#45;&gt;Node13 -->
<g id="edge12" class="edge">
<title>Node6&#45;&gt;Node13</title>
<path fill="none" stroke="midnightblue" d="M33.2,-220.22C35.78,-213.02 39.61,-202.35 42.88,-193.23"/>
<polygon fill="midnightblue" stroke="midnightblue" points="46.27,-194.14 46.35,-183.55 39.68,-191.78 46.27,-194.14"/>
</g>
<!-- Node8 -->
<g id="node8" class="node">
<title>Node8</title>
<g id="a_node8"><a xlink:href="../../d9/d49/types_8h.html" target="_top" xlink:title=" ">
<polygon fill="none" stroke="black" points="181.11,-55.5 181.11,-73.5 229.35,-73.5 229.35,-55.5 181.11,-55.5"/>
<text text-anchor="middle" x="205.23" y="-61.5" font-family="Helvetica,sans-Serif" font-size="10.00">types.h</text>
</a>
</g>
</g>
<!-- Node7&#45;&gt;Node8 -->
<g id="edge7" class="edge">
<title>Node7&#45;&gt;Node8</title>
<path fill="none" stroke="midnightblue" d="M182.45,-110.22C186.2,-102.86 191.79,-91.88 196.5,-82.64"/>
<polygon fill="midnightblue" stroke="midnightblue" points="199.71,-84.05 201.13,-73.55 193.47,-80.87 199.71,-84.05"/>
</g>
<!-- Node9 -->
<g id="node9" class="node">
<title>Node9</title>
<g id="a_node9"><a xlink:title=" ">
<polygon fill="none" stroke="#bfbfbf" points="115.12,-0.5 115.12,-18.5 163.35,-18.5 163.35,-0.5 115.12,-0.5"/>
<text text-anchor="middle" x="139.23" y="-6.5" font-family="Helvetica,sans-Serif" font-size="10.00">cassert</text>
</a>
</g>
</g>
<!-- Node8&#45;&gt;Node9 -->
<g id="edge8" class="edge">
<title>Node8&#45;&gt;Node9</title>
<path fill="none" stroke="midnightblue" d="M195.21,-55.45C185.23,-47.43 169.67,-34.95 157.5,-25.17"/>
<polygon fill="midnightblue" stroke="midnightblue" points="159.34,-22.16 149.35,-18.63 154.96,-27.62 159.34,-22.16"/>
</g>
<!-- Node10 -->
<g id="node10" class="node">
<title>Node10</title>
<g id="a_node10"><a xlink:title=" ">
<polygon fill="none" stroke="#bfbfbf" points="181.11,-0.5 181.11,-18.5 229.35,-18.5 229.35,-0.5 181.11,-0.5"/>
<text text-anchor="middle" x="205.23" y="-6.5" font-family="Helvetica,sans-Serif" font-size="10.00">cstddef</text>
</a>
</g>
</g>
<!-- Node8&#45;&gt;Node10 -->
<g id="edge9" class="edge">
<title>Node8&#45;&gt;Node10</title>
<path fill="none" stroke="midnightblue" d="M205.23,-55.22C205.23,-48.18 205.23,-37.81 205.23,-28.83"/>
<polygon fill="midnightblue" stroke="midnightblue" points="208.73,-28.55 205.23,-18.55 201.73,-28.55 208.73,-28.55"/>
</g>
<!-- Node11 -->
<g id="node11" class="node">
<title>Node11</title>
<g id="a_node11"><a xlink:title=" ">
<polygon fill="none" stroke="#bfbfbf" points="247.17,-0.5 247.17,-18.5 309.3,-18.5 309.3,-0.5 247.17,-0.5"/>
<text text-anchor="middle" x="278.23" y="-6.5" font-family="Helvetica,sans-Serif" font-size="10.00">type_traits</text>
</a>
</g>
</g>
<!-- Node8&#45;&gt;Node11 -->
<g id="edge10" class="edge">
<title>Node8&#45;&gt;Node11</title>
<path fill="none" stroke="midnightblue" d="M216.32,-55.45C227.57,-47.28 245.23,-34.46 258.81,-24.6"/>
<polygon fill="midnightblue" stroke="midnightblue" points="261,-27.33 267.04,-18.63 256.89,-21.67 261,-27.33"/>
</g>
<!-- Node14&#45;&gt;Node7 -->
<g id="edge14" class="edge">
<title>Node14&#45;&gt;Node7</title>
<path fill="none" stroke="midnightblue" d="M190.89,-165.22C188.85,-158.02 185.83,-147.35 183.25,-138.23"/>
<polygon fill="midnightblue" stroke="midnightblue" points="186.6,-137.22 180.51,-128.55 179.87,-139.12 186.6,-137.22"/>
</g>
<!-- Node15&#45;&gt;Node12 -->
<g id="edge16" class="edge">
<title>Node15&#45;&gt;Node12</title>
<path fill="none" stroke="midnightblue" d="M99.11,-220.22C100.72,-213.1 103.1,-202.58 105.15,-193.53"/>
<polygon fill="midnightblue" stroke="midnightblue" points="108.61,-194.08 107.41,-183.55 101.79,-192.53 108.61,-194.08"/>
</g>
<!-- Node15&#45;&gt;Node13 -->
<g id="edge17" class="edge">
<title>Node15&#45;&gt;Node13</title>
<path fill="none" stroke="midnightblue" d="M89.73,-220.22C82.72,-212.47 72.06,-200.7 63.43,-191.18"/>
<polygon fill="midnightblue" stroke="midnightblue" points="65.83,-188.61 56.52,-183.55 60.64,-193.31 65.83,-188.61"/>
</g>
<!-- Node18 -->
<g id="node18" class="node">
<title>Node18</title>
<g id="a_node18"><a xlink:href="../../dc/d91/txtokenlist_8h.html" target="_top" xlink:title=" ">
<polygon fill="none" stroke="black" points="157.83,-330.5 157.83,-348.5 226.63,-348.5 226.63,-330.5 157.83,-330.5"/>
<text text-anchor="middle" x="192.23" y="-336.5" font-family="Helvetica,sans-Serif" font-size="10.00">txtokenlist.h</text>
</a>
</g>
</g>
<!-- Node17&#45;&gt;Node18 -->
<g id="edge20" class="edge">
<title>Node17&#45;&gt;Node18</title>
<path fill="none" stroke="midnightblue" d="M193.92,-385.22C193.65,-378.18 193.26,-367.81 192.92,-358.83"/>
<polygon fill="midnightblue" stroke="midnightblue" points="196.41,-358.41 192.54,-348.55 189.41,-358.67 196.41,-358.41"/>
</g>
<!-- Node18&#45;&gt;Node5 -->
<g id="edge21" class="edge">
<title>Node18&#45;&gt;Node5</title>
<path fill="none" stroke="midnightblue" d="M179.32,-330.45C165.97,-322.12 144.87,-308.97 128.95,-299.04"/>
<polygon fill="midnightblue" stroke="midnightblue" points="130.6,-295.95 120.26,-293.63 126.9,-301.89 130.6,-295.95"/>
</g>
<!-- Node19 -->
<g id="node19" class="node">
<title>Node19</title>
<g id="a_node19"><a xlink:href="../../dd/dcd/_token_8h.html" target="_top" xlink:title=" ">
<polygon fill="none" stroke="black" points="228.27,-275.5 228.27,-293.5 308.19,-293.5 308.19,-275.5 228.27,-275.5"/>
<text text-anchor="middle" x="268.23" y="-281.5" font-family="Helvetica,sans-Serif" font-size="10.00">tralics/Token.h</text>
</a>
</g>
</g>
<!-- Node18&#45;&gt;Node19 -->
<g id="edge22" class="edge">
<title>Node18&#45;&gt;Node19</title>
<path fill="none" stroke="midnightblue" d="M203.77,-330.45C215.49,-322.28 233.87,-309.46 248.01,-299.6"/>
<polygon fill="midnightblue" stroke="midnightblue" points="250.38,-302.22 256.58,-293.63 246.38,-296.47 250.38,-302.22"/>
</g>
<!-- Node24 -->
<g id="node24" class="node">
<title>Node24</title>
<g id="a_node24"><a xlink:title=" ">
<polygon fill="none" stroke="#bfbfbf" points="171.84,-275.5 171.84,-293.5 210.62,-293.5 210.62,-275.5 171.84,-275.5"/>
<text text-anchor="middle" x="191.23" y="-281.5" font-family="Helvetica,sans-Serif" font-size="10.00">utility</text>
</a>
</g>
</g>
<!-- Node18&#45;&gt;Node24 -->
<g id="edge29" class="edge">
<title>Node18&#45;&gt;Node24</title>
<path fill="none" stroke="midnightblue" d="M192.08,-330.22C191.94,-323.18 191.75,-312.81 191.58,-303.83"/>
<polygon fill="midnightblue" stroke="midnightblue" points="195.07,-303.48 191.38,-293.55 188.07,-303.61 195.07,-303.48"/>
</g>
<!-- Node20 -->
<g id="node20" class="node">
<title>Node20</title>
<g id="a_node20"><a xlink:href="../../d2/d68/_cmd_chr_8h.html" target="_top" xlink:title=" ">
<polygon fill="none" stroke="black" points="234.72,-220.5 234.72,-238.5 295.74,-238.5 295.74,-220.5 234.72,-220.5"/>
<text text-anchor="middle" x="265.23" y="-226.5" font-family="Helvetica,sans-Serif" font-size="10.00">CmdChr.h</text>
</a>
</g>
</g>
<!-- Node19&#45;&gt;Node20 -->
<g id="edge23" class="edge">
<title>Node19&#45;&gt;Node20</title>
<path fill="none" stroke="midnightblue" d="M267.76,-275.22C267.36,-268.18 266.78,-257.81 266.27,-248.83"/>
<polygon fill="midnightblue" stroke="midnightblue" points="269.75,-248.34 265.69,-238.55 262.76,-248.73 269.75,-248.34"/>
</g>
<!-- Node23 -->
<g id="node23" class="node">
<title>Node23</title>
<g id="a_node23"><a xlink:title=" ">
<polygon fill="none" stroke="#bfbfbf" points="313.73,-220.5 313.73,-238.5 342.73,-238.5 342.73,-220.5 313.73,-220.5"/>
<text text-anchor="middle" x="327.84" y="-226.5" font-family="Helvetica,sans-Serif" font-size="10.00">list</text>
</a>
</g>
</g>
<!-- Node19&#45;&gt;Node23 -->
<g id="edge28" class="edge">
<title>Node19&#45;&gt;Node23</title>
<path fill="none" stroke="midnightblue" d="M277.34,-275.45C286.33,-267.51 300.28,-255.19 311.3,-245.45"/>
<polygon fill="midnightblue" stroke="midnightblue" points="313.86,-247.87 319.03,-238.63 309.22,-242.62 313.86,-247.87"/>
</g>
<!-- Node20&#45;&gt;Node14 -->
<g id="edge27" class="edge">
<title>Node20&#45;&gt;Node14</title>
<path fill="none" stroke="midnightblue" d="M254.3,-220.45C243.2,-212.28 225.78,-199.46 212.39,-189.6"/>
<polygon fill="midnightblue" stroke="midnightblue" points="214.4,-186.73 204.27,-183.63 210.25,-192.37 214.4,-186.73"/>
</g>
<!-- Node21 -->
<g id="node21" class="node">
<title>Node21</title>
<g id="a_node21"><a xlink:href="../../d8/d47/codepoint_8h.html" target="_top" xlink:title=" ">
<polygon fill="none" stroke="black" points="238.38,-165.5 238.38,-183.5 306.09,-183.5 306.09,-165.5 238.38,-165.5"/>
<text text-anchor="middle" x="272.23" y="-171.5" font-family="Helvetica,sans-Serif" font-size="10.00">codepoint.h</text>
</a>
</g>
</g>
<!-- Node20&#45;&gt;Node21 -->
<g id="edge24" class="edge">
<title>Node20&#45;&gt;Node21</title>
<path fill="none" stroke="midnightblue" d="M266.33,-220.22C267.27,-213.1 268.66,-202.58 269.85,-193.53"/>
<polygon fill="midnightblue" stroke="midnightblue" points="273.33,-193.92 271.17,-183.55 266.39,-193.01 273.33,-193.92"/>
</g>
<!-- Node21&#45;&gt;Node8 -->
<g id="edge25" class="edge">
<title>Node21&#45;&gt;Node8</title>
<path fill="none" stroke="midnightblue" d="M267.2,-165.38C256.28,-147.79 230.26,-105.85 215.65,-82.29"/>
<polygon fill="midnightblue" stroke="midnightblue" points="218.57,-80.36 210.33,-73.71 212.62,-84.05 218.57,-80.36"/>
</g>
<!-- Node22 -->
<g id="node22" class="node">
<title>Node22</title>
<g id="a_node22"><a xlink:title=" ">
<polygon fill="none" stroke="#bfbfbf" points="261.72,-110.5 261.72,-128.5 312.75,-128.5 312.75,-110.5 261.72,-110.5"/>
<text text-anchor="middle" x="287.23" y="-116.5" font-family="Helvetica,sans-Serif" font-size="10.00">optional</text>
</a>
</g>
</g>
<!-- Node21&#45;&gt;Node22 -->
<g id="edge26" class="edge">
<title>Node21&#45;&gt;Node22</title>
<path fill="none" stroke="midnightblue" d="M274.58,-165.22C276.61,-158.02 279.63,-147.35 282.21,-138.23"/>
<polygon fill="midnightblue" stroke="midnightblue" points="285.6,-139.12 284.95,-128.55 278.86,-137.22 285.6,-139.12"/>
</g>
<!-- Node26&#45;&gt;Node6 -->
<g id="edge32" class="edge">
<title>Node26&#45;&gt;Node6</title>
<path fill="none" stroke="midnightblue" d="M30.23,-330.38C30.23,-313.18 30.23,-272.7 30.23,-248.89"/>
<polygon fill="midnightblue" stroke="midnightblue" points="33.73,-248.71 30.23,-238.71 26.73,-248.71 33.73,-248.71"/>
</g>
</g>
</svg>
