<?xml version="1.0" encoding="UTF-8" standalone="no"?>
<!DOCTYPE svg PUBLIC "-//W3C//DTD SVG 1.1//EN"
 "http://www.w3.org/Graphics/SVG/1.1/DTD/svg11.dtd">
<!-- Generated by graphviz version 2.43.0 (0)
 -->
<!-- Title: txfonts.h Pages: 1 -->
<svg width="365pt" height="522pt"
 viewBox="0.00 0.00 364.78 522.00" xmlns="http://www.w3.org/2000/svg" xmlns:xlink="http://www.w3.org/1999/xlink">
<g id="graph0" class="graph" transform="scale(1 1) rotate(0) translate(4 518)">
<title>txfonts.h</title>
<polygon fill="white" stroke="transparent" points="-4,4 -4,-518 360.78,-518 360.78,4 -4,4"/>
<!-- Node1 -->
<g id="node1" class="node">
<title>Node1</title>
<g id="a_node1"><a xlink:title=" ">
<polygon fill="#bfbfbf" stroke="black" points="168.49,-495.5 168.49,-513.5 222.29,-513.5 222.29,-495.5 168.49,-495.5"/>
<text text-anchor="middle" x="195.39" y="-501.5" font-family="Helvetica,sans-Serif" font-size="10.00">txfonts.h</text>
</a>
</g>
</g>
<!-- Node2 -->
<g id="node2" class="node">
<title>Node2</title>
<g id="a_node2"><a xlink:href="../../dc/def/txstring_8h.html" target="_top" xlink:title=" ">
<polygon fill="white" stroke="black" points="167.11,-440.5 167.11,-458.5 223.68,-458.5 223.68,-440.5 167.11,-440.5"/>
<text text-anchor="middle" x="195.39" y="-446.5" font-family="Helvetica,sans-Serif" font-size="10.00">txstring.h</text>
</a>
</g>
</g>
<!-- Node1&#45;&gt;Node2 -->
<g id="edge1" class="edge">
<title>Node1&#45;&gt;Node2</title>
<path fill="none" stroke="midnightblue" d="M195.39,-495.22C195.39,-488.18 195.39,-477.81 195.39,-468.83"/>
<polygon fill="midnightblue" stroke="midnightblue" points="198.89,-468.55 195.39,-458.55 191.89,-468.55 198.89,-468.55"/>
</g>
<!-- Node3 -->
<g id="node3" class="node">
<title>Node3</title>
<g id="a_node3"><a xlink:href="../../dd/d74/txbuffer_8h.html" target="_top" xlink:title=" ">
<polygon fill="white" stroke="black" points="166.91,-385.5 166.91,-403.5 223.88,-403.5 223.88,-385.5 166.91,-385.5"/>
<text text-anchor="middle" x="195.39" y="-391.5" font-family="Helvetica,sans-Serif" font-size="10.00">txbuffer.h</text>
</a>
</g>
</g>
<!-- Node2&#45;&gt;Node3 -->
<g id="edge2" class="edge">
<title>Node2&#45;&gt;Node3</title>
<path fill="none" stroke="midnightblue" d="M195.39,-440.22C195.39,-433.18 195.39,-422.81 195.39,-413.83"/>
<polygon fill="midnightblue" stroke="midnightblue" points="198.89,-413.55 195.39,-403.55 191.89,-413.55 198.89,-413.55"/>
</g>
<!-- Node4 -->
<g id="node4" class="node">
<title>Node4</title>
<g id="a_node4"><a xlink:href="../../d1/d9e/txid_8h.html" target="_top" xlink:title=" ">
<polygon fill="white" stroke="black" points="72.44,-275.5 72.44,-293.5 112.34,-293.5 112.34,-275.5 72.44,-275.5"/>
<text text-anchor="middle" x="92.39" y="-281.5" font-family="Helvetica,sans-Serif" font-size="10.00">txid.h</text>
</a>
</g>
</g>
<!-- Node3&#45;&gt;Node4 -->
<g id="edge3" class="edge">
<title>Node3&#45;&gt;Node4</title>
<path fill="none" stroke="midnightblue" d="M174.55,-385.38C158,-378.02 135.26,-365.77 120.39,-349 108.79,-335.91 101.34,-317.24 97.07,-303.54"/>
<polygon fill="midnightblue" stroke="midnightblue" points="100.4,-302.47 94.3,-293.81 93.67,-304.38 100.4,-302.47"/>
</g>
<!-- Node11 -->
<g id="node11" class="node">
<title>Node11</title>
<g id="a_node11"><a xlink:href="../../d9/d18/txscaled_8h.html" target="_top" xlink:title=" ">
<polygon fill="white" stroke="black" points="129.88,-330.5 129.88,-348.5 190.9,-348.5 190.9,-330.5 129.88,-330.5"/>
<text text-anchor="middle" x="160.39" y="-336.5" font-family="Helvetica,sans-Serif" font-size="10.00">txscaled.h</text>
</a>
</g>
</g>
<!-- Node3&#45;&gt;Node11 -->
<g id="edge10" class="edge">
<title>Node3&#45;&gt;Node11</title>
<path fill="none" stroke="midnightblue" d="M189.92,-385.22C184.96,-377.71 177.5,-366.41 171.32,-357.05"/>
<polygon fill="midnightblue" stroke="midnightblue" points="174.14,-354.97 165.71,-348.55 168.3,-358.82 174.14,-354.97"/>
</g>
<!-- Node19 -->
<g id="node19" class="node">
<title>Node19</title>
<g id="a_node19"><a xlink:title=" ">
<polygon fill="white" stroke="#bfbfbf" points="208.67,-330.5 208.67,-348.5 254.12,-348.5 254.12,-330.5 208.67,-330.5"/>
<text text-anchor="middle" x="231.39" y="-336.5" font-family="Helvetica,sans-Serif" font-size="10.00">cstring</text>
</a>
</g>
</g>
<!-- Node3&#45;&gt;Node19 -->
<g id="edge23" class="edge">
<title>Node3&#45;&gt;Node19</title>
<path fill="none" stroke="midnightblue" d="M201.02,-385.22C206.12,-377.71 213.79,-366.41 220.15,-357.05"/>
<polygon fill="midnightblue" stroke="midnightblue" points="223.2,-358.79 225.92,-348.55 217.41,-354.86 223.2,-358.79"/>
</g>
<!-- Node20 -->
<g id="node20" class="node">
<title>Node20</title>
<g id="a_node20"><a xlink:title=" ">
<polygon fill="white" stroke="#bfbfbf" points="271.78,-330.5 271.78,-348.5 315.01,-348.5 315.01,-330.5 271.78,-330.5"/>
<text text-anchor="middle" x="293.39" y="-336.5" font-family="Helvetica,sans-Serif" font-size="10.00">vector</text>
</a>
</g>
</g>
<!-- Node3&#45;&gt;Node20 -->
<g id="edge24" class="edge">
<title>Node3&#45;&gt;Node20</title>
<path fill="none" stroke="midnightblue" d="M210.28,-385.45C225.96,-376.97 250.91,-363.48 269.38,-353.49"/>
<polygon fill="midnightblue" stroke="midnightblue" points="271.24,-356.46 278.37,-348.63 267.91,-350.3 271.24,-356.46"/>
</g>
<!-- Node5 -->
<g id="node5" class="node">
<title>Node5</title>
<g id="a_node5"><a xlink:href="../../dc/de8/txvars_8h.html" target="_top" xlink:title=" ">
<polygon fill="white" stroke="black" points="14.89,-220.5 14.89,-238.5 65.9,-238.5 65.9,-220.5 14.89,-220.5"/>
<text text-anchor="middle" x="40.39" y="-226.5" font-family="Helvetica,sans-Serif" font-size="10.00">txvars.h</text>
</a>
</g>
</g>
<!-- Node4&#45;&gt;Node5 -->
<g id="edge4" class="edge">
<title>Node4&#45;&gt;Node5</title>
<path fill="none" stroke="midnightblue" d="M84.27,-275.22C76.59,-267.39 64.88,-255.46 55.49,-245.89"/>
<polygon fill="midnightblue" stroke="midnightblue" points="57.79,-243.24 48.29,-238.55 52.79,-248.14 57.79,-243.24"/>
</g>
<!-- Node10 -->
<g id="node10" class="node">
<title>Node10</title>
<g id="a_node10"><a xlink:title=" ">
<polygon fill="white" stroke="#bfbfbf" points="94.17,-165.5 94.17,-183.5 134.62,-183.5 134.62,-165.5 94.17,-165.5"/>
<text text-anchor="middle" x="114.39" y="-171.5" font-family="Helvetica,sans-Serif" font-size="10.00">string</text>
</a>
</g>
</g>
<!-- Node4&#45;&gt;Node10 -->
<g id="edge9" class="edge">
<title>Node4&#45;&gt;Node10</title>
<path fill="none" stroke="midnightblue" d="M94.05,-275.38C97.56,-258.1 105.87,-217.33 110.71,-193.56"/>
<polygon fill="midnightblue" stroke="midnightblue" points="114.15,-194.21 112.72,-183.71 107.29,-192.81 114.15,-194.21"/>
</g>
<!-- Node6 -->
<g id="node6" class="node">
<title>Node6</title>
<g id="a_node6"><a xlink:href="../../d0/d0b/enums_8h.html" target="_top" xlink:title=" ">
<polygon fill="white" stroke="black" points="134.77,-110.5 134.77,-128.5 218.01,-128.5 218.01,-110.5 134.77,-110.5"/>
<text text-anchor="middle" x="176.39" y="-116.5" font-family="Helvetica,sans-Serif" font-size="10.00">tralics/enums.h</text>
</a>
</g>
</g>
<!-- Node5&#45;&gt;Node6 -->
<g id="edge5" class="edge">
<title>Node5&#45;&gt;Node6</title>
<path fill="none" stroke="midnightblue" d="M44.57,-220.08C51.49,-206.86 66.45,-181.1 85.39,-165 102.2,-150.71 124.39,-139.74 142.65,-132.27"/>
<polygon fill="midnightblue" stroke="midnightblue" points="144.02,-135.49 152.06,-128.58 141.47,-128.97 144.02,-135.49"/>
</g>
<!-- Node9 -->
<g id="node9" class="node">
<title>Node9</title>
<g id="a_node9"><a xlink:title=" ">
<polygon fill="white" stroke="#bfbfbf" points="0,-165.5 0,-183.5 38.78,-183.5 38.78,-165.5 0,-165.5"/>
<text text-anchor="middle" x="19.39" y="-171.5" font-family="Helvetica,sans-Serif" font-size="10.00">array</text>
</a>
</g>
</g>
<!-- Node5&#45;&gt;Node9 -->
<g id="edge8" class="edge">
<title>Node5&#45;&gt;Node9</title>
<path fill="none" stroke="midnightblue" d="M37.11,-220.22C34.23,-212.94 29.94,-202.11 26.3,-192.93"/>
<polygon fill="midnightblue" stroke="midnightblue" points="29.52,-191.56 22.58,-183.55 23.01,-194.14 29.52,-191.56"/>
</g>
<!-- Node7 -->
<g id="node7" class="node">
<title>Node7</title>
<g id="a_node7"><a xlink:href="../../d8/db5/consts_8h.html" target="_top" xlink:title=" ">
<polygon fill="white" stroke="black" points="156.77,-55.5 156.77,-73.5 210.01,-73.5 210.01,-55.5 156.77,-55.5"/>
<text text-anchor="middle" x="183.39" y="-61.5" font-family="Helvetica,sans-Serif" font-size="10.00">consts.h</text>
</a>
</g>
</g>
<!-- Node6&#45;&gt;Node7 -->
<g id="edge6" class="edge">
<title>Node6&#45;&gt;Node7</title>
<path fill="none" stroke="midnightblue" d="M177.49,-110.22C178.43,-103.1 179.82,-92.58 181.01,-83.53"/>
<polygon fill="midnightblue" stroke="midnightblue" points="184.49,-83.92 182.33,-73.55 177.55,-83.01 184.49,-83.92"/>
</g>
<!-- Node8 -->
<g id="node8" class="node">
<title>Node8</title>
<g id="a_node8"><a xlink:href="../../d9/d49/types_8h.html" target="_top" xlink:title=" ">
<polygon fill="white" stroke="black" points="198.27,-0.5 198.27,-18.5 246.51,-18.5 246.51,-0.5 198.27,-0.5"/>
<text text-anchor="middle" x="222.39" y="-6.5" font-family="Helvetica,sans-Serif" font-size="10.00">types.h</text>
</a>
</g>
</g>
<!-- Node7&#45;&gt;Node8 -->
<g id="edge7" class="edge">
<title>Node7&#45;&gt;Node8</title>
<path fill="none" stroke="midnightblue" d="M189.49,-55.22C195.07,-47.63 203.5,-36.18 210.43,-26.76"/>
<polygon fill="midnightblue" stroke="midnightblue" points="213.36,-28.68 216.47,-18.55 207.72,-24.53 213.36,-28.68"/>
</g>
<!-- Node12 -->
<g id="node12" class="node">
<title>Node12</title>
<g id="a_node12"><a xlink:href="../../dc/d91/txtokenlist_8h.html" target="_top" xlink:title=" ">
<polygon fill="white" stroke="black" points="129.99,-275.5 129.99,-293.5 198.79,-293.5 198.79,-275.5 129.99,-275.5"/>
<text text-anchor="middle" x="164.39" y="-281.5" font-family="Helvetica,sans-Serif" font-size="10.00">txtokenlist.h</text>
</a>
</g>
</g>
<!-- Node11&#45;&gt;Node12 -->
<g id="edge11" class="edge">
<title>Node11&#45;&gt;Node12</title>
<path fill="none" stroke="midnightblue" d="M161.02,-330.22C161.55,-323.1 162.35,-312.58 163.03,-303.53"/>
<polygon fill="midnightblue" stroke="midnightblue" points="166.52,-303.78 163.78,-293.55 159.54,-303.26 166.52,-303.78"/>
</g>
<!-- Node12&#45;&gt;Node5 -->
<g id="edge21" class="edge">
<title>Node12&#45;&gt;Node5</title>
<path fill="none" stroke="midnightblue" d="M145.56,-275.45C125.17,-266.73 92.4,-252.73 68.86,-242.67"/>
<polygon fill="midnightblue" stroke="midnightblue" points="69.97,-239.34 59.4,-238.63 67.22,-245.77 69.97,-239.34"/>
</g>
<!-- Node13 -->
<g id="node13" class="node">
<title>Node13</title>
<g id="a_node13"><a xlink:href="../../d5/daf/_istring_8h.html" target="_top" xlink:title=" ">
<polygon fill="white" stroke="black" points="122.16,-220.5 122.16,-238.5 202.62,-238.5 202.62,-220.5 122.16,-220.5"/>
<text text-anchor="middle" x="162.39" y="-226.5" font-family="Helvetica,sans-Serif" font-size="10.00">tralics/Istring.h</text>
</a>
</g>
</g>
<!-- Node12&#45;&gt;Node13 -->
<g id="edge12" class="edge">
<title>Node12&#45;&gt;Node13</title>
<path fill="none" stroke="midnightblue" d="M164.08,-275.22C163.81,-268.18 163.42,-257.81 163.08,-248.83"/>
<polygon fill="midnightblue" stroke="midnightblue" points="166.57,-248.41 162.7,-238.55 159.58,-248.67 166.57,-248.41"/>
</g>
<!-- Node14 -->
<g id="node14" class="node">
<title>Node14</title>
<g id="a_node14"><a xlink:href="../../dd/dcd/_token_8h.html" target="_top" xlink:title=" ">
<polygon fill="white" stroke="black" points="220.43,-220.5 220.43,-238.5 300.35,-238.5 300.35,-220.5 220.43,-220.5"/>
<text text-anchor="middle" x="260.39" y="-226.5" font-family="Helvetica,sans-Serif" font-size="10.00">tralics/Token.h</text>
</a>
</g>
</g>
<!-- Node12&#45;&gt;Node14 -->
<g id="edge15" class="edge">
<title>Node12&#45;&gt;Node14</title>
<path fill="none" stroke="midnightblue" d="M178.97,-275.45C194.34,-266.97 218.77,-253.48 236.87,-243.49"/>
<polygon fill="midnightblue" stroke="midnightblue" points="238.61,-246.52 245.67,-238.63 235.23,-240.39 238.61,-246.52"/>
</g>
<!-- Node18 -->
<g id="node18" class="node">
<title>Node18</title>
<g id="a_node18"><a xlink:title=" ">
<polygon fill="white" stroke="#bfbfbf" points="318,-220.5 318,-238.5 356.78,-238.5 356.78,-220.5 318,-220.5"/>
<text text-anchor="middle" x="337.39" y="-226.5" font-family="Helvetica,sans-Serif" font-size="10.00">utility</text>
</a>
</g>
</g>
<!-- Node12&#45;&gt;Node18 -->
<g id="edge22" class="edge">
<title>Node12&#45;&gt;Node18</title>
<path fill="none" stroke="midnightblue" d="M190.67,-275.45C222.22,-265.78 275.02,-249.61 307.93,-239.53"/>
<polygon fill="midnightblue" stroke="midnightblue" points="309.33,-242.76 317.86,-236.48 307.28,-236.07 309.33,-242.76"/>
</g>
<!-- Node13&#45;&gt;Node6 -->
<g id="edge13" class="edge">
<title>Node13&#45;&gt;Node6</title>
<path fill="none" stroke="midnightblue" d="M163.44,-220.38C165.67,-203.18 170.92,-162.7 174.01,-138.89"/>
<polygon fill="midnightblue" stroke="midnightblue" points="177.51,-139.08 175.33,-128.71 170.57,-138.18 177.51,-139.08"/>
</g>
<!-- Node13&#45;&gt;Node10 -->
<g id="edge14" class="edge">
<title>Node13&#45;&gt;Node10</title>
<path fill="none" stroke="midnightblue" d="M154.89,-220.22C147.88,-212.47 137.22,-200.7 128.59,-191.18"/>
<polygon fill="midnightblue" stroke="midnightblue" points="130.99,-188.61 121.68,-183.55 125.8,-193.31 130.99,-188.61"/>
</g>
<!-- Node15 -->
<g id="node15" class="node">
<title>Node15</title>
<g id="a_node15"><a xlink:href="../../d2/d68/_cmd_chr_8h.html" target="_top" xlink:title=" ">
<polygon fill="white" stroke="black" points="237.88,-165.5 237.88,-183.5 298.9,-183.5 298.9,-165.5 237.88,-165.5"/>
<text text-anchor="middle" x="268.39" y="-171.5" font-family="Helvetica,sans-Serif" font-size="10.00">CmdChr.h</text>
</a>
</g>
</g>
<!-- Node14&#45;&gt;Node15 -->
<g id="edge16" class="edge">
<title>Node14&#45;&gt;Node15</title>
<path fill="none" stroke="midnightblue" d="M261.64,-220.22C262.72,-213.1 264.3,-202.58 265.67,-193.53"/>
<polygon fill="midnightblue" stroke="midnightblue" points="269.14,-193.96 267.18,-183.55 262.22,-192.92 269.14,-193.96"/>
</g>
<!-- Node17 -->
<g id="node17" class="node">
<title>Node17</title>
<g id="a_node17"><a xlink:title=" ">
<polygon fill="white" stroke="#bfbfbf" points="190.89,-165.5 190.89,-183.5 219.89,-183.5 219.89,-165.5 190.89,-165.5"/>
<text text-anchor="middle" x="205" y="-171.5" font-family="Helvetica,sans-Serif" font-size="10.00">list</text>
</a>
</g>
</g>
<!-- Node14&#45;&gt;Node17 -->
<g id="edge20" class="edge">
<title>Node14&#45;&gt;Node17</title>
<path fill="none" stroke="midnightblue" d="M251.8,-220.22C243.6,-212.32 231.05,-200.22 221.07,-190.61"/>
<polygon fill="midnightblue" stroke="midnightblue" points="223.37,-187.97 213.74,-183.55 218.52,-193.01 223.37,-187.97"/>
</g>
<!-- Node15&#45;&gt;Node6 -->
<g id="edge19" class="edge">
<title>Node15&#45;&gt;Node6</title>
<path fill="none" stroke="midnightblue" d="M254.42,-165.45C239.83,-157.05 216.71,-143.72 199.41,-133.76"/>
<polygon fill="midnightblue" stroke="midnightblue" points="200.91,-130.58 190.5,-128.63 197.41,-136.65 200.91,-130.58"/>
</g>
<!-- Node16 -->
<g id="node16" class="node">
<title>Node16</title>
<g id="a_node16"><a xlink:href="../../d8/d47/codepoint_8h.html" target="_top" xlink:title=" ">
<polygon fill="white" stroke="black" points="230.54,-55.5 230.54,-73.5 298.25,-73.5 298.25,-55.5 230.54,-55.5"/>
<text text-anchor="middle" x="264.39" y="-61.5" font-family="Helvetica,sans-Serif" font-size="10.00">codepoint.h</text>
</a>
</g>
</g>
<!-- Node15&#45;&gt;Node16 -->
<g id="edge17" class="edge">
<title>Node15&#45;&gt;Node16</title>
<path fill="none" stroke="midnightblue" d="M268.09,-165.38C267.45,-148.18 265.95,-107.7 265.07,-83.89"/>
<polygon fill="midnightblue" stroke="midnightblue" points="268.56,-83.58 264.7,-73.71 261.57,-83.83 268.56,-83.58"/>
</g>
<!-- Node16&#45;&gt;Node8 -->
<g id="edge18" class="edge">
<title>Node16&#45;&gt;Node8</title>
<path fill="none" stroke="midnightblue" d="M257.83,-55.22C251.75,-47.55 242.55,-35.94 235.05,-26.47"/>
<polygon fill="midnightblue" stroke="midnightblue" points="237.72,-24.21 228.77,-18.55 232.24,-28.56 237.72,-24.21"/>
</g>
</g>
</svg>
