<?xml version="1.0" encoding="UTF-8" standalone="no"?>
<!DOCTYPE svg PUBLIC "-//W3C//DTD SVG 1.1//EN"
 "http://www.w3.org/Graphics/SVG/1.1/DTD/svg11.dtd">
<!-- Generated by graphviz version 2.43.0 (0)
 -->
<!-- Title: SaveAuxDim Pages: 1 -->
<svg width="140pt" height="92pt"
 viewBox="0.00 0.00 139.86 92.00" xmlns="http://www.w3.org/2000/svg" xmlns:xlink="http://www.w3.org/1999/xlink">
<g id="graph0" class="graph" transform="scale(1 1) rotate(0) translate(4 88)">
<title>SaveAuxDim</title>
<polygon fill="white" stroke="transparent" points="-4,4 -4,-88 135.86,-88 135.86,4 -4,4"/>
<!-- Node1 -->
<g id="node1" class="node">
<title>Node1</title>
<g id="a_node1"><a xlink:title=" ">
<polygon fill="#bfbfbf" stroke="black" points="28.11,-0.5 28.11,-18.5 101.91,-18.5 101.91,-0.5 28.11,-0.5"/>
<text text-anchor="middle" x="65.01" y="-6.5" font-family="Helvetica,sans-Serif" font-size="10.00">SaveAuxDim</text>
</a>
</g>
</g>
<!-- Node2 -->
<g id="node2" class="node">
<title>Node2</title>
<g id="a_node2"><a xlink:href="../../da/df8/class_save_aux.html" target="_top" xlink:title=" ">
<polygon fill="white" stroke="black" points="0,-65.5 0,-83.5 56.02,-83.5 56.02,-65.5 0,-65.5"/>
<text text-anchor="middle" x="28.01" y="-71.5" font-family="Helvetica,sans-Serif" font-size="10.00">SaveAux</text>
</a>
</g>
</g>
<!-- Node2&#45;&gt;Node1 -->
<g id="edge1" class="edge">
<title>Node2&#45;&gt;Node1</title>
<path fill="none" stroke="midnightblue" d="M38.06,-56.39C45.29,-44.08 54.72,-28.03 60.29,-18.54"/>
<polygon fill="midnightblue" stroke="midnightblue" points="34.9,-54.87 32.85,-65.26 40.93,-58.41 34.9,-54.87"/>
</g>
<!-- Node3 -->
<g id="node3" class="node">
<title>Node3</title>
<g id="a_node3"><a xlink:href="../../de/d34/class_scaled_int.html" target="_top" xlink:title=" ">
<polygon fill="white" stroke="black" points="74.17,-65.5 74.17,-83.5 131.86,-83.5 131.86,-65.5 74.17,-65.5"/>
<text text-anchor="middle" x="103.01" y="-71.5" font-family="Helvetica,sans-Serif" font-size="10.00">ScaledInt</text>
</a>
</g>
</g>
<!-- Node3&#45;&gt;Node1 -->
<g id="edge2" class="edge">
<title>Node3&#45;&gt;Node1</title>
<path fill="none" stroke="#9a32cd" stroke-dasharray="5,2" d="M92.69,-56.39C85.26,-44.08 75.59,-28.03 69.86,-18.54"/>
<polygon fill="#9a32cd" stroke="#9a32cd" points="89.88,-58.51 98.04,-65.26 95.88,-54.89 89.88,-58.51"/>
<text text-anchor="middle" x="93.79" y="-39" font-family="Helvetica,sans-Serif" font-size="10.00"> val</text>
</g>
</g>
</svg>
