<?xml version="1.0" encoding="UTF-8" standalone="no"?>
<!DOCTYPE svg PUBLIC "-//W3C//DTD SVG 1.1//EN"
 "http://www.w3.org/Graphics/SVG/1.1/DTD/svg11.dtd">
<!-- Generated by graphviz version 2.42.3 (20191010.1750)
 -->
<!-- Title: TitlePage Pages: 1 -->
<svg width="324pt" height="328pt"
 viewBox="0.00 0.00 323.64 328.00" xmlns="http://www.w3.org/2000/svg" xmlns:xlink="http://www.w3.org/1999/xlink">
<g id="graph0" class="graph" transform="scale(1 1) rotate(0) translate(4 324)">
<title>TitlePage</title>
<!-- Node1 -->
<g id="node1" class="node">
<title>Node1</title>
<g id="a_node1"><a xlink:title=" ">
<polygon fill="#bfbfbf" stroke="black" points="159.55,-0.5 159.55,-18.5 217.43,-18.5 217.43,-0.5 159.55,-0.5"/>
<text text-anchor="middle" x="188.49" y="-6.5" font-family="Helvetica,sans-Serif" font-size="10.00">TitlePage</text>
</a>
</g>
</g>
<!-- Node2 -->
<g id="node2" class="node">
<title>Node2</title>
<g id="a_node2"><a xlink:title=" ">
<polygon fill="none" stroke="#bfbfbf" points="177.34,-65.5 177.34,-83.5 315.64,-83.5 315.64,-65.5 177.34,-65.5"/>
<text text-anchor="middle" x="246.49" y="-71.5" font-family="Helvetica,sans-Serif" font-size="10.00">std::vector&lt; TitlePageAux &gt;</text>
</a>
</g>
</g>
<!-- Node2&#45;&gt;Node1 -->
<g id="edge1" class="edge">
<title>Node2&#45;&gt;Node1</title>
<path fill="none" stroke="#9a32cd" stroke-dasharray="5,2" d="M232.07,-57.83C220.58,-45.36 204.98,-28.4 195.89,-18.54"/>
<polygon fill="#9a32cd" stroke="#9a32cd" points="229.56,-60.28 238.91,-65.26 234.71,-55.54 229.56,-60.28"/>
<text text-anchor="middle" x="239.4" y="-39" font-family="Helvetica,sans-Serif" font-size="10.00"> bigtable</text>
</g>
<!-- Node3 -->
<g id="node3" class="node">
<title>Node3</title>
<g id="a_node3"><a xlink:href="../../d7/d65/class_title_page_aux.html" target="_top" xlink:title=" ">
<polygon fill="none" stroke="black" points="230.94,-135.5 230.94,-153.5 306.05,-153.5 306.05,-135.5 230.94,-135.5"/>
<text text-anchor="middle" x="268.49" y="-141.5" font-family="Helvetica,sans-Serif" font-size="10.00">TitlePageAux</text>
</a>
</g>
</g>
<!-- Node3&#45;&gt;Node2 -->
<g id="edge2" class="edge">
<title>Node3&#45;&gt;Node2</title>
<path fill="none" stroke="#9a32cd" stroke-dasharray="5,2" d="M262.74,-125.7C258.32,-112.06 252.44,-93.88 249.1,-83.56"/>
<polygon fill="#9a32cd" stroke="#9a32cd" points="259.48,-127 265.88,-135.43 266.14,-124.84 259.48,-127"/>
<text text-anchor="middle" x="279.17" y="-104" font-family="Helvetica,sans-Serif" font-size="10.00"> elements</text>
</g>
<!-- Node4 -->
<g id="node4" class="node">
<title>Node4</title>
<g id="a_node4"><a xlink:title="STL class.">
<polygon fill="none" stroke="#bfbfbf" points="199.82,-235.5 199.82,-253.5 259.17,-253.5 259.17,-235.5 199.82,-235.5"/>
<text text-anchor="middle" x="229.49" y="-241.5" font-family="Helvetica,sans-Serif" font-size="10.00">std::string</text>
</a>
</g>
</g>
<!-- Node4&#45;&gt;Node3 -->
<g id="edge3" class="edge">
<title>Node4&#45;&gt;Node3</title>
<path fill="none" stroke="#9a32cd" stroke-dasharray="5,2" d="M236.46,-226C244.95,-204.65 258.97,-169.44 265.26,-153.63"/>
<polygon fill="#9a32cd" stroke="#9a32cd" points="233.13,-224.89 232.69,-235.48 239.63,-227.48 233.13,-224.89"/>
<text text-anchor="middle" x="262.63" y="-209" font-family="Helvetica,sans-Serif" font-size="10.00"> T2</text>
<text text-anchor="middle" x="262.63" y="-199" font-family="Helvetica,sans-Serif" font-size="10.00">T3</text>
<text text-anchor="middle" x="262.63" y="-189" font-family="Helvetica,sans-Serif" font-size="10.00">T4</text>
<text text-anchor="middle" x="262.63" y="-179" font-family="Helvetica,sans-Serif" font-size="10.00">T1</text>
</g>
<!-- Node9 -->
<g id="node9" class="node">
<title>Node9</title>
<g id="a_node9"><a xlink:href="../../d9/d20/struct_istring.html" target="_top" xlink:title=" ">
<polygon fill="none" stroke="black" points="169.88,-135.5 169.88,-153.5 213.11,-153.5 213.11,-135.5 169.88,-135.5"/>
<text text-anchor="middle" x="191.49" y="-141.5" font-family="Helvetica,sans-Serif" font-size="10.00">Istring</text>
</a>
</g>
</g>
<!-- Node4&#45;&gt;Node9 -->
<g id="edge9" class="edge">
<title>Node4&#45;&gt;Node9</title>
<path fill="none" stroke="#9a32cd" stroke-dasharray="5,2" d="M218.19,-227.07C216.23,-223.82 214.34,-220.37 212.81,-217 202.86,-195.06 196.11,-167.26 193.17,-153.69"/>
<polygon fill="#9a32cd" stroke="#9a32cd" points="215.26,-228.98 223.63,-235.47 221.13,-225.17 215.26,-228.98"/>
<text text-anchor="middle" x="225.84" y="-199" font-family="Helvetica,sans-Serif" font-size="10.00"> value</text>
<text text-anchor="middle" x="225.84" y="-189" font-family="Helvetica,sans-Serif" font-size="10.00">name</text>
</g>
<!-- Node5 -->
<g id="node5" class="node">
<title>Node5</title>
<g id="a_node5"><a xlink:title="STL class.">
<polygon fill="none" stroke="#bfbfbf" points="182.45,-291.5 182.45,-319.5 276.54,-319.5 276.54,-291.5 182.45,-291.5"/>
<text text-anchor="start" x="190.45" y="-307.5" font-family="Helvetica,sans-Serif" font-size="10.00">std::basic_string&lt;</text>
<text text-anchor="middle" x="229.49" y="-297.5" font-family="Helvetica,sans-Serif" font-size="10.00"> char &gt;</text>
</a>
</g>
</g>
<!-- Node5&#45;&gt;Node4 -->
<g id="edge4" class="edge">
<title>Node5&#45;&gt;Node4</title>
<path fill="none" stroke="midnightblue" d="M229.49,-281.39C229.49,-271.59 229.49,-260.82 229.49,-253.65"/>
<polygon fill="midnightblue" stroke="midnightblue" points="225.99,-281.41 229.49,-291.41 232.99,-281.41 225.99,-281.41"/>
</g>
<!-- Node6 -->
<g id="node6" class="node">
<title>Node6</title>
<g id="a_node6"><a xlink:href="../../d6/d9a/class_xml.html" target="_top" xlink:title=" ">
<polygon fill="none" stroke="black" points="120.88,-65.5 120.88,-83.5 154.1,-83.5 154.1,-65.5 120.88,-65.5"/>
<text text-anchor="middle" x="137.49" y="-71.5" font-family="Helvetica,sans-Serif" font-size="10.00">Xml</text>
</a>
</g>
</g>
<!-- Node6&#45;&gt;Node1 -->
<g id="edge5" class="edge">
<title>Node6&#45;&gt;Node1</title>
<path fill="none" stroke="#9a32cd" stroke-dasharray="5,2" d="M150.47,-57.47C160.54,-45.03 174.08,-28.31 181.99,-18.54"/>
<polygon fill="#9a32cd" stroke="#9a32cd" points="147.73,-55.29 144.16,-65.26 153.17,-59.69 147.73,-55.29"/>
<text text-anchor="middle" x="178.44" y="-39" font-family="Helvetica,sans-Serif" font-size="10.00"> Data</text>
</g>
<!-- Node7 -->
<g id="node7" class="node">
<title>Node7</title>
<g id="a_node7"><a xlink:title="STL class.">
<polygon fill="none" stroke="#bfbfbf" points="0,-130.5 0,-158.5 102.99,-158.5 102.99,-130.5 0,-130.5"/>
<text text-anchor="start" x="8" y="-146.5" font-family="Helvetica,sans-Serif" font-size="10.00">std::vector&lt; gsl::not</text>
<text text-anchor="middle" x="51.49" y="-136.5" font-family="Helvetica,sans-Serif" font-size="10.00">_null&lt; Xml * &gt; &gt;</text>
</a>
</g>
</g>
<!-- Node7&#45;&gt;Node6 -->
<g id="edge6" class="edge">
<title>Node7&#45;&gt;Node6</title>
<path fill="none" stroke="midnightblue" d="M76.36,-123.83C93.13,-110.58 114.41,-93.75 126.93,-83.86"/>
<polygon fill="midnightblue" stroke="midnightblue" points="73.75,-121.44 68.08,-130.39 78.09,-126.93 73.75,-121.44"/>
</g>
<!-- Node8 -->
<g id="node8" class="node">
<title>Node8</title>
<g id="a_node8"><a xlink:title=" ">
<polygon fill="none" stroke="#bfbfbf" points="36.99,-235.5 36.99,-253.5 65.99,-253.5 65.99,-235.5 36.99,-235.5"/>
<text text-anchor="middle" x="51.05" y="-241.5" font-family="Helvetica,sans-Serif" font-size="10.00">T</text>
</a>
</g>
</g>
<!-- Node8&#45;&gt;Node7 -->
<g id="edge7" class="edge">
<title>Node8&#45;&gt;Node7</title>
<path fill="none" stroke="#9a32cd" stroke-dasharray="5,2" d="M51.49,-225.25C51.49,-205.84 51.49,-175.65 51.49,-158.52"/>
<polygon fill="#9a32cd" stroke="#9a32cd" points="47.99,-225.48 51.49,-235.48 54.99,-225.48 47.99,-225.48"/>
<text text-anchor="middle" x="73.17" y="-194" font-family="Helvetica,sans-Serif" font-size="10.00"> elements</text>
</g>
<!-- Node9&#45;&gt;Node6 -->
<g id="edge8" class="edge">
<title>Node9&#45;&gt;Node6</title>
<path fill="none" stroke="#9a32cd" stroke-dasharray="5,2" d="M178.63,-127.3C167.68,-113.51 152.41,-94.29 143.89,-83.56"/>
<polygon fill="#9a32cd" stroke="#9a32cd" points="176.13,-129.78 185.09,-135.43 181.61,-125.42 176.13,-129.78"/>
<text text-anchor="middle" x="180.39" y="-104" font-family="Helvetica,sans-Serif" font-size="10.00"> name</text>
</g>
<!-- Node10 -->
<g id="node10" class="node">
<title>Node10</title>
<g id="a_node10"><a xlink:href="../../de/d3f/class_xid.html" target="_top" xlink:title=" ">
<polygon fill="none" stroke="black" points="121.27,-135.5 121.27,-153.5 151.72,-153.5 151.72,-135.5 121.27,-135.5"/>
<text text-anchor="middle" x="136.49" y="-141.5" font-family="Helvetica,sans-Serif" font-size="10.00">Xid</text>
</a>
</g>
</g>
<!-- Node10&#45;&gt;Node6 -->
<g id="edge10" class="edge">
<title>Node10&#45;&gt;Node6</title>
<path fill="none" stroke="#9a32cd" stroke-dasharray="5,2" d="M136.76,-125.3C136.96,-111.7 137.22,-93.78 137.38,-83.56"/>
<polygon fill="#9a32cd" stroke="#9a32cd" points="133.26,-125.38 136.61,-135.43 140.26,-125.49 133.26,-125.38"/>
<text text-anchor="middle" x="142.77" y="-104" font-family="Helvetica,sans-Serif" font-size="10.00"> id</text>
</g>
</g>
</svg>
