<?xml version="1.0" encoding="UTF-8" standalone="no"?>
<!DOCTYPE svg PUBLIC "-//W3C//DTD SVG 1.1//EN"
 "http://www.w3.org/Graphics/SVG/1.1/DTD/svg11.dtd">
<!-- Generated by graphviz version 2.42.3 (20191010.1750)
 -->
<!-- Title: StrHash_record Pages: 1 -->
<svg width="183pt" height="298pt"
 viewBox="0.00 0.00 182.63 298.00" xmlns="http://www.w3.org/2000/svg" xmlns:xlink="http://www.w3.org/1999/xlink">
<g id="graph0" class="graph" transform="scale(1 1) rotate(0) translate(4 294)">
<title>StrHash_record</title>
<!-- Node1 -->
<g id="node1" class="node">
<title>Node1</title>
<g id="a_node1"><a xlink:title=" ">
<polygon fill="#bfbfbf" stroke="black" points="0,-0.5 0,-18.5 86.03,-18.5 86.03,-0.5 0,-0.5"/>
<text text-anchor="middle" x="43.01" y="-6.5" font-family="Helvetica,sans-Serif" font-size="10.00">StrHash_record</text>
</a>
</g>
</g>
<!-- Node2 -->
<g id="node2" class="node">
<title>Node2</title>
<g id="a_node2"><a xlink:title="STL class.">
<polygon fill="none" stroke="#bfbfbf" points="43.34,-205.5 43.34,-223.5 102.69,-223.5 102.69,-205.5 43.34,-205.5"/>
<text text-anchor="middle" x="73.01" y="-211.5" font-family="Helvetica,sans-Serif" font-size="10.00">std::string</text>
</a>
</g>
</g>
<!-- Node2&#45;&gt;Node1 -->
<g id="edge1" class="edge">
<title>Node2&#45;&gt;Node1</title>
<path fill="none" stroke="#9a32cd" stroke-dasharray="5,2" d="M67.86,-195.65C62.73,-177.31 54.99,-147.88 50.33,-122 47.32,-105.27 47.32,-100.95 46.01,-84 44.19,-60.32 43.43,-32.25 43.16,-18.67"/>
<polygon fill="#9a32cd" stroke="#9a32cd" points="64.56,-196.84 70.66,-205.5 71.29,-194.92 64.56,-196.84"/>
<text text-anchor="middle" x="64.36" y="-114" font-family="Helvetica,sans-Serif" font-size="10.00"> value</text>
<text text-anchor="middle" x="64.36" y="-104" font-family="Helvetica,sans-Serif" font-size="10.00">name</text>
</g>
<!-- Node4 -->
<g id="node4" class="node">
<title>Node4</title>
<g id="a_node4"><a xlink:href="../../dc/df1/class_label_info.html" target="_top" xlink:title=" ">
<polygon fill="none" stroke="black" points="55.44,-65.5 55.44,-83.5 112.59,-83.5 112.59,-65.5 55.44,-65.5"/>
<text text-anchor="middle" x="84.01" y="-71.5" font-family="Helvetica,sans-Serif" font-size="10.00">LabelInfo</text>
</a>
</g>
</g>
<!-- Node2&#45;&gt;Node4 -->
<g id="edge4" class="edge">
<title>Node2&#45;&gt;Node4</title>
<path fill="none" stroke="#9a32cd" stroke-dasharray="5,2" d="M74.47,-195.2C76.9,-164.79 81.66,-105.07 83.38,-83.5"/>
<polygon fill="#9a32cd" stroke="#9a32cd" points="70.98,-195.03 73.67,-205.28 77.95,-195.59 70.98,-195.03"/>
<text text-anchor="middle" x="99.3" y="-146.5" font-family="Helvetica,sans-Serif" font-size="10.00"> filename</text>
</g>
<!-- Node5 -->
<g id="node5" class="node">
<title>Node5</title>
<g id="a_node5"><a xlink:href="../../d9/d20/struct_istring.html" target="_top" xlink:title=" ">
<polygon fill="none" stroke="black" points="131.4,-140.5 131.4,-158.5 174.63,-158.5 174.63,-140.5 131.4,-140.5"/>
<text text-anchor="middle" x="153.01" y="-146.5" font-family="Helvetica,sans-Serif" font-size="10.00">Istring</text>
</a>
</g>
</g>
<!-- Node2&#45;&gt;Node5 -->
<g id="edge6" class="edge">
<title>Node2&#45;&gt;Node5</title>
<path fill="none" stroke="#9a32cd" stroke-dasharray="5,2" d="M91.57,-198.89C107.51,-186.33 129.92,-168.69 142.81,-158.54"/>
<polygon fill="#9a32cd" stroke="#9a32cd" points="89.16,-196.33 83.47,-205.26 93.5,-201.83 89.16,-196.33"/>
<text text-anchor="middle" x="131.91" y="-179" font-family="Helvetica,sans-Serif" font-size="10.00"> name</text>
</g>
<!-- Node3 -->
<g id="node3" class="node">
<title>Node3</title>
<g id="a_node3"><a xlink:title="STL class.">
<polygon fill="none" stroke="#bfbfbf" points="25.97,-261.5 25.97,-289.5 120.06,-289.5 120.06,-261.5 25.97,-261.5"/>
<text text-anchor="start" x="33.97" y="-277.5" font-family="Helvetica,sans-Serif" font-size="10.00">std::basic_string&lt;</text>
<text text-anchor="middle" x="73.01" y="-267.5" font-family="Helvetica,sans-Serif" font-size="10.00"> char &gt;</text>
</a>
</g>
</g>
<!-- Node3&#45;&gt;Node2 -->
<g id="edge2" class="edge">
<title>Node3&#45;&gt;Node2</title>
<path fill="none" stroke="midnightblue" d="M73.01,-251.39C73.01,-241.59 73.01,-230.82 73.01,-223.65"/>
<polygon fill="midnightblue" stroke="midnightblue" points="69.51,-251.41 73.01,-261.41 76.51,-251.41 69.51,-251.41"/>
</g>
<!-- Node4&#45;&gt;Node1 -->
<g id="edge3" class="edge">
<title>Node4&#45;&gt;Node1</title>
<path fill="none" stroke="#9a32cd" stroke-dasharray="5,2" d="M73.12,-56.75C65.07,-44.39 54.48,-28.12 48.25,-18.54"/>
<polygon fill="#9a32cd" stroke="#9a32cd" points="70.27,-58.79 78.65,-65.26 76.13,-54.97 70.27,-58.79"/>
<text text-anchor="middle" x="82.14" y="-39" font-family="Helvetica,sans-Serif" font-size="10.00"> labinfo</text>
</g>
<!-- Node5&#45;&gt;Node4 -->
<g id="edge5" class="edge">
<title>Node5&#45;&gt;Node4</title>
<path fill="none" stroke="#9a32cd" stroke-dasharray="5,2" d="M138.28,-132.91C124.1,-117.91 103.18,-95.78 91.91,-83.85"/>
<polygon fill="#9a32cd" stroke="#9a32cd" points="135.95,-135.55 145.37,-140.41 141.04,-130.74 135.95,-135.55"/>
<text text-anchor="middle" x="139.52" y="-114" font-family="Helvetica,sans-Serif" font-size="10.00"> id</text>
<text text-anchor="middle" x="139.52" y="-104" font-family="Helvetica,sans-Serif" font-size="10.00">name</text>
</g>
</g>
</svg>
