<?xml version="1.0" encoding="UTF-8" standalone="no"?>
<!DOCTYPE svg PUBLIC "-//W3C//DTD SVG 1.1//EN"
 "http://www.w3.org/Graphics/SVG/1.1/DTD/svg11.dtd">
<!-- Generated by graphviz version 2.43.0 (0)
 -->
<!-- Title: txstats.h Pages: 1 -->
<svg width="2261pt" height="137pt"
 viewBox="0.00 0.00 2261.06 137.00" xmlns="http://www.w3.org/2000/svg" xmlns:xlink="http://www.w3.org/1999/xlink">
<g id="graph0" class="graph" transform="scale(1 1) rotate(0) translate(4 133)">
<title>txstats.h</title>
<polygon fill="white" stroke="transparent" points="-4,4 -4,-133 2257.06,-133 2257.06,4 -4,4"/>
<!-- Node1 -->
<g id="node1" class="node">
<title>Node1</title>
<g id="a_node1"><a xlink:title=" ">
<polygon fill="#bfbfbf" stroke="black" points="1056.44,-110.5 1056.44,-128.5 1109.67,-128.5 1109.67,-110.5 1056.44,-110.5"/>
<text text-anchor="middle" x="1083.06" y="-116.5" font-family="Helvetica,sans-Serif" font-size="10.00">txstats.h</text>
</a>
</g>
</g>
<!-- Node2 -->
<g id="node2" class="node">
<title>Node2</title>
<g id="a_node2"><a xlink:href="../../d2/d1b/txparser_8h.html" target="_top" xlink:title=" ">
<polygon fill="white" stroke="black" points="1053.1,-55.5 1053.1,-73.5 1113.01,-73.5 1113.01,-55.5 1053.1,-55.5"/>
<text text-anchor="middle" x="1083.06" y="-61.5" font-family="Helvetica,sans-Serif" font-size="10.00">txparser.h</text>
</a>
</g>
</g>
<!-- Node1&#45;&gt;Node2 -->
<g id="edge1" class="edge">
<title>Node1&#45;&gt;Node2</title>
<path fill="none" stroke="midnightblue" d="M1083.06,-100.17C1083.06,-91.09 1083.06,-80.59 1083.06,-73.55"/>
<polygon fill="midnightblue" stroke="midnightblue" points="1079.56,-100.22 1083.06,-110.22 1086.56,-100.22 1079.56,-100.22"/>
</g>
<!-- Node3 -->
<g id="node3" class="node">
<title>Node3</title>
<g id="a_node3"><a xlink:href="../../dc/d29/tralics_8_c.html" target="_top" xlink:title=" ">
<polygon fill="white" stroke="black" points="0,-0.5 0,-18.5 52.11,-18.5 52.11,-0.5 0,-0.5"/>
<text text-anchor="middle" x="26.06" y="-6.5" font-family="Helvetica,sans-Serif" font-size="10.00">tralics.C</text>
</a>
</g>
</g>
<!-- Node2&#45;&gt;Node3 -->
<g id="edge2" class="edge">
<title>Node2&#45;&gt;Node3</title>
<path fill="none" stroke="midnightblue" d="M1042.74,-62.79C878.02,-59.74 255.7,-46.6 61.06,-19 58.21,-18.6 55.25,-18.06 52.32,-17.46"/>
<polygon fill="midnightblue" stroke="midnightblue" points="1042.86,-66.3 1052.92,-62.98 1042.98,-59.3 1042.86,-66.3"/>
</g>
<!-- Node4 -->
<g id="node4" class="node">
<title>Node4</title>
<g id="a_node4"><a xlink:href="../../d5/d10/txaccent_8_c.html" target="_top" xlink:title=" ">
<polygon fill="white" stroke="black" points="70.44,-0.5 70.44,-18.5 133.68,-18.5 133.68,-0.5 70.44,-0.5"/>
<text text-anchor="middle" x="102.06" y="-6.5" font-family="Helvetica,sans-Serif" font-size="10.00">txaccent.C</text>
</a>
</g>
</g>
<!-- Node2&#45;&gt;Node4 -->
<g id="edge3" class="edge">
<title>Node2&#45;&gt;Node4</title>
<path fill="none" stroke="midnightblue" d="M1042.55,-63.85C911.75,-64.49 489.1,-62.79 143.06,-19 140.03,-18.62 136.89,-18.13 133.76,-17.59"/>
<polygon fill="midnightblue" stroke="midnightblue" points="1042.9,-67.35 1052.88,-63.79 1042.86,-60.35 1042.9,-67.35"/>
</g>
<!-- Node5 -->
<g id="node5" class="node">
<title>Node5</title>
<g id="a_node5"><a xlink:href="../../df/de6/txarray_8_c.html" target="_top" xlink:title=" ">
<polygon fill="white" stroke="black" points="152.14,-0.5 152.14,-18.5 207.97,-18.5 207.97,-0.5 152.14,-0.5"/>
<text text-anchor="middle" x="180.06" y="-6.5" font-family="Helvetica,sans-Serif" font-size="10.00">txarray.C</text>
</a>
</g>
</g>
<!-- Node2&#45;&gt;Node5 -->
<g id="edge4" class="edge">
<title>Node2&#45;&gt;Node5</title>
<path fill="none" stroke="midnightblue" d="M1042.81,-63.92C918.98,-64.67 532.89,-63.05 217.06,-19 214.18,-18.6 211.21,-18.09 208.24,-17.51"/>
<polygon fill="midnightblue" stroke="midnightblue" points="1042.99,-67.42 1052.96,-63.85 1042.94,-60.42 1042.99,-67.42"/>
</g>
<!-- Node6 -->
<g id="node6" class="node">
<title>Node6</title>
<g id="a_node6"><a xlink:href="../../dd/dce/txaux_8_c.html" target="_top" xlink:title=" ">
<polygon fill="white" stroke="black" points="226.11,-0.5 226.11,-18.5 276.01,-18.5 276.01,-0.5 226.11,-0.5"/>
<text text-anchor="middle" x="251.06" y="-6.5" font-family="Helvetica,sans-Serif" font-size="10.00">txaux.C</text>
</a>
</g>
</g>
<!-- Node2&#45;&gt;Node6 -->
<g id="edge5" class="edge">
<title>Node2&#45;&gt;Node6</title>
<path fill="none" stroke="midnightblue" d="M1042.43,-63.94C924.58,-64.62 572.75,-62.58 285.06,-19 282.17,-18.56 279.17,-17.99 276.2,-17.35"/>
<polygon fill="midnightblue" stroke="midnightblue" points="1042.8,-67.43 1052.77,-63.87 1042.75,-60.43 1042.8,-67.43"/>
</g>
<!-- Node7 -->
<g id="node7" class="node">
<title>Node7</title>
<g id="a_node7"><a xlink:href="../../d1/d56/txbib_8_c.html" target="_top" xlink:title=" ">
<polygon fill="white" stroke="black" points="294.5,-0.5 294.5,-18.5 341.62,-18.5 341.62,-0.5 294.5,-0.5"/>
<text text-anchor="middle" x="318.06" y="-6.5" font-family="Helvetica,sans-Serif" font-size="10.00">txbib.C</text>
</a>
</g>
</g>
<!-- Node2&#45;&gt;Node7 -->
<g id="edge6" class="edge">
<title>Node2&#45;&gt;Node7</title>
<path fill="none" stroke="midnightblue" d="M1042.77,-63.74C931.76,-63.84 612.39,-60.21 351.06,-19 348.02,-18.52 344.85,-17.89 341.74,-17.18"/>
<polygon fill="midnightblue" stroke="midnightblue" points="1042.86,-67.24 1052.85,-63.72 1042.84,-60.24 1042.86,-67.24"/>
</g>
<!-- Node8 -->
<g id="node8" class="node">
<title>Node8</title>
<g id="a_node8"><a xlink:href="../../d4/df2/txbuffer_8_c.html" target="_top" xlink:title=" ">
<polygon fill="white" stroke="black" points="359.74,-0.5 359.74,-18.5 418.37,-18.5 418.37,-0.5 359.74,-0.5"/>
<text text-anchor="middle" x="389.06" y="-6.5" font-family="Helvetica,sans-Serif" font-size="10.00">txbuffer.C</text>
</a>
</g>
</g>
<!-- Node2&#45;&gt;Node8 -->
<g id="edge7" class="edge">
<title>Node2&#45;&gt;Node8</title>
<path fill="none" stroke="midnightblue" d="M1042.53,-62.89C939.32,-60.89 658.37,-52.52 427.06,-19 424.25,-18.59 421.34,-18.09 418.43,-17.54"/>
<polygon fill="midnightblue" stroke="midnightblue" points="1042.74,-66.4 1052.81,-63.08 1042.87,-59.4 1042.74,-66.4"/>
</g>
<!-- Node9 -->
<g id="node9" class="node">
<title>Node9</title>
<g id="a_node9"><a xlink:href="../../de/ddd/txclasses_8_c.html" target="_top" xlink:title=" ">
<polygon fill="white" stroke="black" points="436.5,-0.5 436.5,-18.5 503.62,-18.5 503.62,-0.5 436.5,-0.5"/>
<text text-anchor="middle" x="470.06" y="-6.5" font-family="Helvetica,sans-Serif" font-size="10.00">txclasses.C</text>
</a>
</g>
</g>
<!-- Node2&#45;&gt;Node9 -->
<g id="edge8" class="edge">
<title>Node2&#45;&gt;Node9</title>
<path fill="none" stroke="midnightblue" d="M1042.81,-61.98C949.38,-58.1 710.71,-46.16 513.06,-19 510.04,-18.59 506.92,-18.09 503.79,-17.56"/>
<polygon fill="midnightblue" stroke="midnightblue" points="1042.82,-65.48 1052.95,-62.39 1043.1,-58.49 1042.82,-65.48"/>
</g>
<!-- Node10 -->
<g id="node10" class="node">
<title>Node10</title>
<g id="a_node10"><a xlink:href="../../d4/d1e/txcommands_8_c.html" target="_top" xlink:title=" ">
<polygon fill="white" stroke="black" points="521.71,-0.5 521.71,-18.5 604.4,-18.5 604.4,-0.5 521.71,-0.5"/>
<text text-anchor="middle" x="563.06" y="-6.5" font-family="Helvetica,sans-Serif" font-size="10.00">txcommands.C</text>
</a>
</g>
</g>
<!-- Node2&#45;&gt;Node10 -->
<g id="edge9" class="edge">
<title>Node2&#45;&gt;Node10</title>
<path fill="none" stroke="midnightblue" d="M1042.79,-60.64C961.53,-54.66 772.2,-39.65 614.06,-19 610.94,-18.59 607.72,-18.14 604.49,-17.66"/>
<polygon fill="midnightblue" stroke="midnightblue" points="1042.84,-64.15 1053.07,-61.39 1043.35,-57.17 1042.84,-64.15"/>
</g>
<!-- Node11 -->
<g id="node11" class="node">
<title>Node11</title>
<g id="a_node11"><a xlink:href="../../d9/d64/txconfig_8_c.html" target="_top" xlink:title=" ">
<polygon fill="white" stroke="black" points="622.83,-0.5 622.83,-18.5 683.29,-18.5 683.29,-0.5 622.83,-0.5"/>
<text text-anchor="middle" x="653.06" y="-6.5" font-family="Helvetica,sans-Serif" font-size="10.00">txconfig.C</text>
</a>
</g>
</g>
<!-- Node2&#45;&gt;Node11 -->
<g id="edge10" class="edge">
<title>Node2&#45;&gt;Node11</title>
<path fill="none" stroke="midnightblue" d="M1042.69,-60.26C971.55,-54.26 819.32,-40.05 692.06,-19 689.32,-18.55 686.49,-18.03 683.66,-17.48"/>
<polygon fill="midnightblue" stroke="midnightblue" points="1042.73,-63.78 1052.99,-61.12 1043.32,-56.8 1042.73,-63.78"/>
</g>
<!-- Node12 -->
<g id="node12" class="node">
<title>Node12</title>
<g id="a_node12"><a xlink:href="../../d1/d79/txerr_8_c.html" target="_top" xlink:title=" ">
<polygon fill="white" stroke="black" points="701.33,-0.5 701.33,-18.5 746.78,-18.5 746.78,-0.5 701.33,-0.5"/>
<text text-anchor="middle" x="724.06" y="-6.5" font-family="Helvetica,sans-Serif" font-size="10.00">txerr.C</text>
</a>
</g>
</g>
<!-- Node2&#45;&gt;Node12 -->
<g id="edge11" class="edge">
<title>Node2&#45;&gt;Node12</title>
<path fill="none" stroke="midnightblue" d="M1042.83,-59.78C980.68,-53.64 857.79,-39.96 755.06,-19 752.43,-18.46 749.7,-17.83 747,-17.16"/>
<polygon fill="midnightblue" stroke="midnightblue" points="1042.69,-63.28 1052.98,-60.77 1043.37,-56.32 1042.69,-63.28"/>
</g>
<!-- Node13 -->
<g id="node13" class="node">
<title>Node13</title>
<g id="a_node13"><a xlink:href="../../d7/d0d/txfonts_8_c.html" target="_top" xlink:title=" ">
<polygon fill="white" stroke="black" points="764.33,-0.5 764.33,-18.5 819.79,-18.5 819.79,-0.5 764.33,-0.5"/>
<text text-anchor="middle" x="792.06" y="-6.5" font-family="Helvetica,sans-Serif" font-size="10.00">txfonts.C</text>
</a>
</g>
</g>
<!-- Node2&#45;&gt;Node13 -->
<g id="edge12" class="edge">
<title>Node2&#45;&gt;Node13</title>
<path fill="none" stroke="midnightblue" d="M1042.74,-57.11C992.54,-48.99 904.23,-34.21 829.06,-19 826.09,-18.4 822.99,-17.74 819.9,-17.06"/>
<polygon fill="midnightblue" stroke="midnightblue" points="1042.42,-60.6 1052.85,-58.73 1043.54,-53.69 1042.42,-60.6"/>
</g>
<!-- Node14 -->
<g id="node14" class="node">
<title>Node14</title>
<g id="a_node14"><a xlink:href="../../d1/dcd/txfp_8_c.html" target="_top" xlink:title=" ">
<polygon fill="white" stroke="black" points="838,-0.5 838,-18.5 880.12,-18.5 880.12,-0.5 838,-0.5"/>
<text text-anchor="middle" x="859.06" y="-6.5" font-family="Helvetica,sans-Serif" font-size="10.00">txfp.C</text>
</a>
</g>
</g>
<!-- Node2&#45;&gt;Node14 -->
<g id="edge13" class="edge">
<title>Node2&#45;&gt;Node14</title>
<path fill="none" stroke="midnightblue" d="M1043.05,-54.94C1003.72,-46.39 942.06,-32.58 889.06,-19 886.22,-18.27 883.25,-17.48 880.33,-16.67"/>
<polygon fill="midnightblue" stroke="midnightblue" points="1042.52,-58.41 1053.03,-57.11 1044,-51.57 1042.52,-58.41"/>
</g>
<!-- Node15 -->
<g id="node15" class="node">
<title>Node15</title>
<g id="a_node15"><a xlink:href="../../d8/dc2/txio_8_c.html" target="_top" xlink:title=" ">
<polygon fill="white" stroke="black" points="898.28,-0.5 898.28,-18.5 939.84,-18.5 939.84,-0.5 898.28,-0.5"/>
<text text-anchor="middle" x="919.06" y="-6.5" font-family="Helvetica,sans-Serif" font-size="10.00">txio.C</text>
</a>
</g>
</g>
<!-- Node2&#45;&gt;Node15 -->
<g id="edge14" class="edge">
<title>Node2&#45;&gt;Node15</title>
<path fill="none" stroke="midnightblue" d="M1048.5,-52.33C1015.68,-41.73 967.4,-26.12 940.03,-17.28"/>
<polygon fill="midnightblue" stroke="midnightblue" points="1047.56,-55.71 1058.15,-55.45 1049.71,-49.04 1047.56,-55.71"/>
</g>
<!-- Node16 -->
<g id="node16" class="node">
<title>Node16</title>
<g id="a_node16"><a xlink:href="../../dc/dcd/txl3_8_c.html" target="_top" xlink:title=" ">
<polygon fill="white" stroke="black" points="958.28,-0.5 958.28,-18.5 999.84,-18.5 999.84,-0.5 958.28,-0.5"/>
<text text-anchor="middle" x="979.06" y="-6.5" font-family="Helvetica,sans-Serif" font-size="10.00">txl3.C</text>
</a>
</g>
</g>
<!-- Node2&#45;&gt;Node16 -->
<g id="edge15" class="edge">
<title>Node2&#45;&gt;Node16</title>
<path fill="none" stroke="midnightblue" d="M1058.29,-50.88C1038.67,-40.88 1011.86,-27.22 995,-18.63"/>
<polygon fill="midnightblue" stroke="midnightblue" points="1056.76,-54.03 1067.26,-55.45 1059.94,-47.79 1056.76,-54.03"/>
</g>
<!-- Node17 -->
<g id="node17" class="node">
<title>Node17</title>
<g id="a_node17"><a xlink:href="../../d4/da2/txmain_8_c.html" target="_top" xlink:title=" ">
<polygon fill="white" stroke="black" points="1018.33,-0.5 1018.33,-18.5 1073.78,-18.5 1073.78,-0.5 1018.33,-0.5"/>
<text text-anchor="middle" x="1046.06" y="-6.5" font-family="Helvetica,sans-Serif" font-size="10.00">txmain.C</text>
</a>
</g>
</g>
<!-- Node2&#45;&gt;Node17 -->
<g id="edge16" class="edge">
<title>Node2&#45;&gt;Node17</title>
<path fill="none" stroke="midnightblue" d="M1071.5,-46.95C1064.9,-37.49 1056.92,-26.06 1051.68,-18.55"/>
<polygon fill="midnightblue" stroke="midnightblue" points="1068.68,-49.02 1077.28,-55.22 1074.42,-45.02 1068.68,-49.02"/>
</g>
<!-- Node18 -->
<g id="node18" class="node">
<title>Node18</title>
<g id="a_node18"><a xlink:href="../../db/d96/txmath_8_c.html" target="_top" xlink:title=" ">
<polygon fill="white" stroke="black" points="1092.05,-0.5 1092.05,-18.5 1148.06,-18.5 1148.06,-0.5 1092.05,-0.5"/>
<text text-anchor="middle" x="1120.06" y="-6.5" font-family="Helvetica,sans-Serif" font-size="10.00">txmath.C</text>
</a>
</g>
</g>
<!-- Node2&#45;&gt;Node18 -->
<g id="edge17" class="edge">
<title>Node2&#45;&gt;Node18</title>
<path fill="none" stroke="midnightblue" d="M1094.61,-46.95C1101.21,-37.49 1109.19,-26.06 1114.44,-18.55"/>
<polygon fill="midnightblue" stroke="midnightblue" points="1091.69,-45.02 1088.84,-55.22 1097.43,-49.02 1091.69,-45.02"/>
</g>
<!-- Node19 -->
<g id="node19" class="node">
<title>Node19</title>
<g id="a_node19"><a xlink:href="../../d8/dc6/txmath1_8_c.html" target="_top" xlink:title=" ">
<polygon fill="white" stroke="black" points="1166.27,-0.5 1166.27,-18.5 1227.84,-18.5 1227.84,-0.5 1166.27,-0.5"/>
<text text-anchor="middle" x="1197.06" y="-6.5" font-family="Helvetica,sans-Serif" font-size="10.00">txmath1.C</text>
</a>
</g>
</g>
<!-- Node2&#45;&gt;Node19 -->
<g id="edge18" class="edge">
<title>Node2&#45;&gt;Node19</title>
<path fill="none" stroke="midnightblue" d="M1109.62,-51.15C1131.17,-41.13 1160.93,-27.29 1179.58,-18.63"/>
<polygon fill="midnightblue" stroke="midnightblue" points="1107.96,-48.06 1100.37,-55.45 1110.91,-54.41 1107.96,-48.06"/>
</g>
<!-- Node20 -->
<g id="node20" class="node">
<title>Node20</title>
<g id="a_node20"><a xlink:href="../../d7/dd3/txmathboot_8_c.html" target="_top" xlink:title=" ">
<polygon fill="white" stroke="black" points="1246.32,-0.5 1246.32,-18.5 1321.79,-18.5 1321.79,-0.5 1246.32,-0.5"/>
<text text-anchor="middle" x="1284.06" y="-6.5" font-family="Helvetica,sans-Serif" font-size="10.00">txmathboot.C</text>
</a>
</g>
</g>
<!-- Node2&#45;&gt;Node20 -->
<g id="edge19" class="edge">
<title>Node2&#45;&gt;Node20</title>
<path fill="none" stroke="midnightblue" d="M1122.96,-52.98C1161.33,-42.86 1218.52,-27.78 1253.43,-18.58"/>
<polygon fill="midnightblue" stroke="midnightblue" points="1121.93,-49.63 1113.15,-55.57 1123.71,-56.4 1121.93,-49.63"/>
</g>
<!-- Node21 -->
<g id="node21" class="node">
<title>Node21</title>
<g id="a_node21"><a xlink:href="../../dd/d48/txmlio_8_c.html" target="_top" xlink:title=" ">
<polygon fill="white" stroke="black" points="1340,-0.5 1340,-18.5 1392.11,-18.5 1392.11,-0.5 1340,-0.5"/>
<text text-anchor="middle" x="1366.06" y="-6.5" font-family="Helvetica,sans-Serif" font-size="10.00">txmlio.C</text>
</a>
</g>
</g>
<!-- Node2&#45;&gt;Node21 -->
<g id="edge20" class="edge">
<title>Node2&#45;&gt;Node21</title>
<path fill="none" stroke="midnightblue" d="M1123.25,-57.06C1172.42,-49 1258.13,-34.38 1331.06,-19 1333.87,-18.41 1336.8,-17.75 1339.72,-17.08"/>
<polygon fill="midnightblue" stroke="midnightblue" points="1122.64,-53.61 1113.33,-58.68 1123.76,-60.52 1122.64,-53.61"/>
</g>
<!-- Node22 -->
<g id="node22" class="node">
<title>Node22</title>
<g id="a_node22"><a xlink:href="../../d7/dc3/txparser_8_c.html" target="_top" xlink:title=" ">
<polygon fill="white" stroke="black" points="1410.27,-0.5 1410.27,-18.5 1471.84,-18.5 1471.84,-0.5 1410.27,-0.5"/>
<text text-anchor="middle" x="1441.06" y="-6.5" font-family="Helvetica,sans-Serif" font-size="10.00">txparser.C</text>
</a>
</g>
</g>
<!-- Node2&#45;&gt;Node22 -->
<g id="edge21" class="edge">
<title>Node2&#45;&gt;Node22</title>
<path fill="none" stroke="midnightblue" d="M1123.71,-58.74C1184.32,-51.44 1301.87,-36.46 1401.06,-19 1403.99,-18.48 1407.04,-17.91 1410.09,-17.31"/>
<polygon fill="midnightblue" stroke="midnightblue" points="1122.93,-55.31 1113.42,-59.97 1123.77,-62.26 1122.93,-55.31"/>
</g>
<!-- Node23 -->
<g id="node23" class="node">
<title>Node23</title>
<g id="a_node23"><a xlink:href="../../d5/d2e/txparser2_8_c.html" target="_top" xlink:title=" ">
<polygon fill="white" stroke="black" points="1490.21,-0.5 1490.21,-18.5 1557.9,-18.5 1557.9,-0.5 1490.21,-0.5"/>
<text text-anchor="middle" x="1524.06" y="-6.5" font-family="Helvetica,sans-Serif" font-size="10.00">txparser2.C</text>
</a>
</g>
</g>
<!-- Node2&#45;&gt;Node23 -->
<g id="edge22" class="edge">
<title>Node2&#45;&gt;Node23</title>
<path fill="none" stroke="midnightblue" d="M1123.12,-60.14C1195.04,-53.86 1350.73,-39.13 1481.06,-19 1483.91,-18.56 1486.87,-18.06 1489.83,-17.53"/>
<polygon fill="midnightblue" stroke="midnightblue" points="1122.79,-56.66 1113.13,-61.01 1123.39,-63.63 1122.79,-56.66"/>
</g>
<!-- Node24 -->
<g id="node24" class="node">
<title>Node24</title>
<g id="a_node24"><a xlink:href="../../d4/d5c/txparser3_8_c.html" target="_top" xlink:title=" ">
<polygon fill="white" stroke="black" points="1576.21,-0.5 1576.21,-18.5 1643.9,-18.5 1643.9,-0.5 1576.21,-0.5"/>
<text text-anchor="middle" x="1610.06" y="-6.5" font-family="Helvetica,sans-Serif" font-size="10.00">txparser3.C</text>
</a>
</g>
</g>
<!-- Node2&#45;&gt;Node24 -->
<g id="edge23" class="edge">
<title>Node2&#45;&gt;Node24</title>
<path fill="none" stroke="midnightblue" d="M1123.24,-61.22C1206.39,-56.18 1403.27,-42.65 1567.06,-19 1569.92,-18.59 1572.88,-18.11 1575.84,-17.59"/>
<polygon fill="midnightblue" stroke="midnightblue" points="1122.98,-57.73 1113.2,-61.82 1123.39,-64.71 1122.98,-57.73"/>
</g>
<!-- Node25 -->
<g id="node25" class="node">
<title>Node25</title>
<g id="a_node25"><a xlink:href="../../db/d66/txpost_8_c.html" target="_top" xlink:title=" ">
<polygon fill="white" stroke="black" points="1661.72,-0.5 1661.72,-18.5 1714.4,-18.5 1714.4,-0.5 1661.72,-0.5"/>
<text text-anchor="middle" x="1688.06" y="-6.5" font-family="Helvetica,sans-Serif" font-size="10.00">txpost.C</text>
</a>
</g>
</g>
<!-- Node2&#45;&gt;Node25 -->
<g id="edge24" class="edge">
<title>Node2&#45;&gt;Node25</title>
<path fill="none" stroke="midnightblue" d="M1123.39,-62.57C1217,-59.93 1456.03,-50.41 1653.06,-19 1655.77,-18.57 1658.59,-18.03 1661.39,-17.44"/>
<polygon fill="midnightblue" stroke="midnightblue" points="1123.13,-59.08 1113.23,-62.85 1123.32,-66.07 1123.13,-59.08"/>
</g>
<!-- Node26 -->
<g id="node26" class="node">
<title>Node26</title>
<g id="a_node26"><a xlink:href="../../dc/d4c/txra_8_c.html" target="_top" xlink:title=" ">
<polygon fill="white" stroke="black" points="1732.72,-0.5 1732.72,-18.5 1775.39,-18.5 1775.39,-0.5 1732.72,-0.5"/>
<text text-anchor="middle" x="1754.06" y="-6.5" font-family="Helvetica,sans-Serif" font-size="10.00">txra.C</text>
</a>
</g>
</g>
<!-- Node2&#45;&gt;Node26 -->
<g id="edge25" class="edge">
<title>Node2&#45;&gt;Node26</title>
<path fill="none" stroke="midnightblue" d="M1123.42,-63.46C1224.93,-62.75 1498.76,-57.16 1723.06,-19 1726.14,-18.48 1729.35,-17.77 1732.5,-17"/>
<polygon fill="midnightblue" stroke="midnightblue" points="1123.28,-59.96 1113.3,-63.52 1123.32,-66.96 1123.28,-59.96"/>
</g>
<!-- Node27 -->
<g id="node27" class="node">
<title>Node27</title>
<g id="a_node27"><a xlink:href="../../d2/dee/txscan_8_c.html" target="_top" xlink:title=" ">
<polygon fill="white" stroke="black" points="1793.61,-0.5 1793.61,-18.5 1848.51,-18.5 1848.51,-0.5 1793.61,-0.5"/>
<text text-anchor="middle" x="1821.06" y="-6.5" font-family="Helvetica,sans-Serif" font-size="10.00">txscan.C</text>
</a>
</g>
</g>
<!-- Node2&#45;&gt;Node27 -->
<g id="edge26" class="edge">
<title>Node2&#45;&gt;Node27</title>
<path fill="none" stroke="midnightblue" d="M1123.41,-63.22C1231.22,-62 1534.72,-55.31 1784.06,-19 1787.06,-18.56 1790.17,-18.01 1793.27,-17.39"/>
<polygon fill="midnightblue" stroke="midnightblue" points="1123.26,-59.73 1113.3,-63.33 1123.34,-66.73 1123.26,-59.73"/>
</g>
<!-- Node28 -->
<g id="node28" class="node">
<title>Node28</title>
<g id="a_node28"><a xlink:href="../../d3/df2/txstack_8_c.html" target="_top" xlink:title=" ">
<polygon fill="white" stroke="black" points="1866.5,-0.5 1866.5,-18.5 1923.62,-18.5 1923.62,-0.5 1866.5,-0.5"/>
<text text-anchor="middle" x="1895.06" y="-6.5" font-family="Helvetica,sans-Serif" font-size="10.00">txstack.C</text>
</a>
</g>
</g>
<!-- Node2&#45;&gt;Node28 -->
<g id="edge27" class="edge">
<title>Node2&#45;&gt;Node28</title>
<path fill="none" stroke="midnightblue" d="M1123.21,-63.49C1238.16,-62.96 1578.16,-57.95 1857.06,-19 1860,-18.59 1863.06,-18.07 1866.1,-17.49"/>
<polygon fill="midnightblue" stroke="midnightblue" points="1123.1,-59.99 1113.11,-63.52 1123.12,-66.99 1123.1,-59.99"/>
</g>
<!-- Node29 -->
<g id="node29" class="node">
<title>Node29</title>
<g id="a_node29"><a xlink:href="../../da/d89/txtitlepage_8_c.html" target="_top" xlink:title=" ">
<polygon fill="white" stroke="black" points="1941.26,-0.5 1941.26,-18.5 2012.85,-18.5 2012.85,-0.5 1941.26,-0.5"/>
<text text-anchor="middle" x="1977.06" y="-6.5" font-family="Helvetica,sans-Serif" font-size="10.00">txtitlepage.C</text>
</a>
</g>
</g>
<!-- Node2&#45;&gt;Node29 -->
<g id="edge28" class="edge">
<title>Node2&#45;&gt;Node29</title>
<path fill="none" stroke="midnightblue" d="M1123.33,-63.37C1245.6,-62.54 1623.06,-56.87 1933.06,-19 1935.68,-18.68 1938.39,-18.29 1941.1,-17.87"/>
<polygon fill="midnightblue" stroke="midnightblue" points="1123.28,-59.87 1113.3,-63.43 1123.32,-66.87 1123.28,-59.87"/>
</g>
<!-- Node30 -->
<g id="node30" class="node">
<title>Node30</title>
<g id="a_node30"><a xlink:href="../../d9/d1e/txtoken_8_c.html" target="_top" xlink:title=" ">
<polygon fill="white" stroke="black" points="2030.94,-0.5 2030.94,-18.5 2089.18,-18.5 2089.18,-0.5 2030.94,-0.5"/>
<text text-anchor="middle" x="2060.06" y="-6.5" font-family="Helvetica,sans-Serif" font-size="10.00">txtoken.C</text>
</a>
</g>
</g>
<!-- Node2&#45;&gt;Node30 -->
<g id="edge29" class="edge">
<title>Node2&#45;&gt;Node30</title>
<path fill="none" stroke="midnightblue" d="M1123.55,-64.07C1254.3,-65.37 1676.73,-65.45 2022.06,-19 2024.87,-18.62 2027.78,-18.14 2030.69,-17.6"/>
<polygon fill="midnightblue" stroke="midnightblue" points="1123.26,-60.57 1113.23,-63.96 1123.19,-67.56 1123.26,-60.57"/>
</g>
<!-- Node31 -->
<g id="node31" class="node">
<title>Node31</title>
<g id="a_node31"><a xlink:href="../../d5/dda/txtranslate_8_c.html" target="_top" xlink:title=" ">
<polygon fill="white" stroke="black" points="2106.99,-0.5 2106.99,-18.5 2179.12,-18.5 2179.12,-0.5 2106.99,-0.5"/>
<text text-anchor="middle" x="2143.06" y="-6.5" font-family="Helvetica,sans-Serif" font-size="10.00">txtranslate.C</text>
</a>
</g>
</g>
<!-- Node2&#45;&gt;Node31 -->
<g id="edge30" class="edge">
<title>Node2&#45;&gt;Node31</title>
<path fill="none" stroke="midnightblue" d="M1123.09,-63.79C1259.81,-64.36 1720.66,-62.69 2098.06,-19 2100.9,-18.67 2103.83,-18.27 2106.78,-17.81"/>
<polygon fill="midnightblue" stroke="midnightblue" points="1123.09,-60.29 1113.07,-63.75 1123.06,-67.29 1123.09,-60.29"/>
</g>
<!-- Node32 -->
<g id="node32" class="node">
<title>Node32</title>
<g id="a_node32"><a xlink:href="../../da/d9e/txtrees_8_c.html" target="_top" xlink:title=" ">
<polygon fill="white" stroke="black" points="2197.05,-0.5 2197.05,-18.5 2253.06,-18.5 2253.06,-0.5 2197.05,-0.5"/>
<text text-anchor="middle" x="2225.06" y="-6.5" font-family="Helvetica,sans-Serif" font-size="10.00">txtrees.C</text>
</a>
</g>
</g>
<!-- Node2&#45;&gt;Node32 -->
<g id="edge31" class="edge">
<title>Node2&#45;&gt;Node32</title>
<path fill="none" stroke="midnightblue" d="M1123.21,-62.88C1295.88,-60.07 1976.03,-47.37 2188.06,-19 2190.93,-18.62 2193.91,-18.11 2196.87,-17.54"/>
<polygon fill="midnightblue" stroke="midnightblue" points="1122.99,-59.38 1113.04,-63.05 1123.1,-66.38 1122.99,-59.38"/>
</g>
</g>
</svg>
