<?xml version="1.0" encoding="UTF-8" standalone="no"?>
<!DOCTYPE svg PUBLIC "-//W3C//DTD SVG 1.1//EN"
 "http://www.w3.org/Graphics/SVG/1.1/DTD/svg11.dtd">
<!-- Generated by graphviz version 2.42.3 (20191010.1750)
 -->
<!-- Title: txmath1.cpp Pages: 1 -->
<svg width="883pt" height="742pt"
 viewBox="0.00 0.00 882.50 742.00" xmlns="http://www.w3.org/2000/svg" xmlns:xlink="http://www.w3.org/1999/xlink">
<g id="graph0" class="graph" transform="scale(1 1) rotate(0) translate(4 738)">
<title>txmath1.cpp</title>
<!-- Node1 -->
<g id="node1" class="node">
<title>Node1</title>
<g id="a_node1"><a xlink:title=" ">
<polygon fill="#bfbfbf" stroke="black" points="422.26,-715.5 422.26,-733.5 492.74,-733.5 492.74,-715.5 422.26,-715.5"/>
<text text-anchor="middle" x="457.5" y="-721.5" font-family="Helvetica,sans-Serif" font-size="10.00">txmath1.cpp</text>
</a>
</g>
</g>
<!-- Node2 -->
<g id="node2" class="node">
<title>Node2</title>
<g id="a_node2"><a xlink:href="../../db/dd3/txmath1_8h.html" target="_top" xlink:title=" ">
<polygon fill="none" stroke="black" points="53.54,-660.5 53.54,-678.5 113.46,-678.5 113.46,-660.5 53.54,-660.5"/>
<text text-anchor="middle" x="83.5" y="-666.5" font-family="Helvetica,sans-Serif" font-size="10.00">txmath1.h</text>
</a>
</g>
</g>
<!-- Node1&#45;&gt;Node2 -->
<g id="edge1" class="edge">
<title>Node1&#45;&gt;Node2</title>
<path fill="none" stroke="midnightblue" d="M421.98,-718.47C352.11,-708.57 197.26,-686.62 123.74,-676.2"/>
<polygon fill="midnightblue" stroke="midnightblue" points="123.9,-672.69 113.51,-674.75 122.92,-679.62 123.9,-672.69"/>
</g>
<!-- Node28 -->
<g id="node28" class="node">
<title>Node28</title>
<g id="a_node28"><a xlink:href="../../d7/d79/txinline_8h.html" target="_top" xlink:title=" ">
<polygon fill="none" stroke="black" points="259.77,-660.5 259.77,-678.5 315.23,-678.5 315.23,-660.5 259.77,-660.5"/>
<text text-anchor="middle" x="287.5" y="-666.5" font-family="Helvetica,sans-Serif" font-size="10.00">txinline.h</text>
</a>
</g>
</g>
<!-- Node1&#45;&gt;Node28 -->
<g id="edge32" class="edge">
<title>Node1&#45;&gt;Node28</title>
<path fill="none" stroke="midnightblue" d="M431.68,-715.45C402.64,-706.4 355.3,-691.64 322.84,-681.52"/>
<polygon fill="midnightblue" stroke="midnightblue" points="323.87,-678.17 313.28,-678.54 321.79,-684.86 323.87,-678.17"/>
</g>
<!-- Node34 -->
<g id="node34" class="node">
<title>Node34</title>
<g id="a_node34"><a xlink:href="../../d2/d1b/txparser_8h.html" target="_top" xlink:title=" ">
<polygon fill="none" stroke="black" points="566.54,-660.5 566.54,-678.5 626.46,-678.5 626.46,-660.5 566.54,-660.5"/>
<text text-anchor="middle" x="596.5" y="-666.5" font-family="Helvetica,sans-Serif" font-size="10.00">txparser.h</text>
</a>
</g>
</g>
<!-- Node1&#45;&gt;Node34 -->
<g id="edge43" class="edge">
<title>Node1&#45;&gt;Node34</title>
<path fill="none" stroke="midnightblue" d="M478.61,-715.45C501.78,-706.62 539.18,-692.35 565.64,-682.27"/>
<polygon fill="midnightblue" stroke="midnightblue" points="567.09,-685.46 575.19,-678.63 564.6,-678.92 567.09,-685.46"/>
</g>
<!-- Node44 -->
<g id="node44" class="node">
<title>Node44</title>
<g id="a_node44"><a xlink:title=" ">
<polygon fill="none" stroke="#bfbfbf" points="644.94,-660.5 644.94,-678.5 702.06,-678.5 702.06,-660.5 644.94,-660.5"/>
<text text-anchor="middle" x="673.5" y="-666.5" font-family="Helvetica,sans-Serif" font-size="10.00">algorithm</text>
</a>
</g>
</g>
<!-- Node1&#45;&gt;Node44 -->
<g id="edge63" class="edge">
<title>Node1&#45;&gt;Node44</title>
<path fill="none" stroke="midnightblue" d="M490.31,-715.45C529.15,-705.92 593.75,-690.07 634.94,-679.96"/>
<polygon fill="midnightblue" stroke="midnightblue" points="636,-683.3 644.88,-677.52 634.34,-676.51 636,-683.3"/>
</g>
<!-- Node3 -->
<g id="node3" class="node">
<title>Node3</title>
<g id="a_node3"><a xlink:href="../../d0/d0b/enums_8h.html" target="_top" xlink:title=" ">
<polygon fill="none" stroke="black" points="138.88,-165.5 138.88,-183.5 222.12,-183.5 222.12,-165.5 138.88,-165.5"/>
<text text-anchor="middle" x="180.5" y="-171.5" font-family="Helvetica,sans-Serif" font-size="10.00">tralics/enums.h</text>
</a>
</g>
</g>
<!-- Node2&#45;&gt;Node3 -->
<g id="edge2" class="edge">
<title>Node2&#45;&gt;Node3</title>
<path fill="none" stroke="midnightblue" d="M83.29,-660.4C82.91,-641.15 82.63,-591.18 88.5,-550 108.43,-410.15 158,-246.43 174.82,-193.19"/>
<polygon fill="midnightblue" stroke="midnightblue" points="178.19,-194.14 177.89,-183.55 171.52,-192.02 178.19,-194.14"/>
</g>
<!-- Node9 -->
<g id="node9" class="node">
<title>Node9</title>
<g id="a_node9"><a xlink:href="../../df/d79/txmath_8h.html" target="_top" xlink:title=" ">
<polygon fill="none" stroke="black" points="461.33,-605.5 461.33,-623.5 515.67,-623.5 515.67,-605.5 461.33,-605.5"/>
<text text-anchor="middle" x="488.5" y="-611.5" font-family="Helvetica,sans-Serif" font-size="10.00">txmath.h</text>
</a>
</g>
</g>
<!-- Node2&#45;&gt;Node9 -->
<g id="edge8" class="edge">
<title>Node2&#45;&gt;Node9</title>
<path fill="none" stroke="midnightblue" d="M113.61,-664.56C186.33,-655.04 371.41,-630.82 451.09,-620.4"/>
<polygon fill="midnightblue" stroke="midnightblue" points="451.7,-623.85 461.16,-619.08 450.79,-616.91 451.7,-623.85"/>
</g>
<!-- Node23 -->
<g id="node23" class="node">
<title>Node23</title>
<g id="a_node23"><a xlink:title=" ">
<polygon fill="none" stroke="#bfbfbf" points="0,-220.5 0,-238.5 29,-238.5 29,-220.5 0,-220.5"/>
<text text-anchor="middle" x="14.11" y="-226.5" font-family="Helvetica,sans-Serif" font-size="10.00">list</text>
</a>
</g>
</g>
<!-- Node2&#45;&gt;Node23 -->
<g id="edge31" class="edge">
<title>Node2&#45;&gt;Node23</title>
<path fill="none" stroke="midnightblue" d="M70.77,-660.38C59.13,-652.38 42.15,-639.17 31.5,-624 14.16,-599.31 7.5,-590.67 7.5,-560.5 7.5,-560.5 7.5,-560.5 7.5,-338.5 7.5,-306.95 10.51,-270.33 12.58,-248.86"/>
<polygon fill="midnightblue" stroke="midnightblue" points="16.1,-248.92 13.61,-238.62 9.13,-248.22 16.1,-248.92"/>
</g>
<!-- Node27 -->
<g id="node27" class="node">
<title>Node27</title>
<g id="a_node27"><a xlink:title=" ">
<polygon fill="none" stroke="#bfbfbf" points="97.33,-550.5 97.33,-568.5 151.67,-568.5 151.67,-550.5 97.33,-550.5"/>
<text text-anchor="middle" x="124.5" y="-556.5" font-family="Helvetica,sans-Serif" font-size="10.00">iostream</text>
</a>
</g>
</g>
<!-- Node2&#45;&gt;Node27 -->
<g id="edge30" class="edge">
<title>Node2&#45;&gt;Node27</title>
<path fill="none" stroke="midnightblue" d="M85.52,-660.13C88.6,-647.84 94.91,-624.27 102.5,-605 106.18,-595.65 111.07,-585.59 115.31,-577.4"/>
<polygon fill="midnightblue" stroke="midnightblue" points="118.43,-578.99 120.02,-568.51 112.24,-575.71 118.43,-578.99"/>
</g>
<!-- Node4 -->
<g id="node4" class="node">
<title>Node4</title>
<g id="a_node4"><a xlink:href="../../d8/db5/consts_8h.html" target="_top" xlink:title=" ">
<polygon fill="none" stroke="black" points="153.88,-110.5 153.88,-128.5 207.12,-128.5 207.12,-110.5 153.88,-110.5"/>
<text text-anchor="middle" x="180.5" y="-116.5" font-family="Helvetica,sans-Serif" font-size="10.00">consts.h</text>
</a>
</g>
</g>
<!-- Node3&#45;&gt;Node4 -->
<g id="edge3" class="edge">
<title>Node3&#45;&gt;Node4</title>
<path fill="none" stroke="midnightblue" d="M180.5,-165.22C180.5,-158.18 180.5,-147.81 180.5,-138.83"/>
<polygon fill="midnightblue" stroke="midnightblue" points="184,-138.55 180.5,-128.55 177,-138.55 184,-138.55"/>
</g>
<!-- Node5 -->
<g id="node5" class="node">
<title>Node5</title>
<g id="a_node5"><a xlink:href="../../d9/d49/types_8h.html" target="_top" xlink:title=" ">
<polygon fill="none" stroke="black" points="128.38,-55.5 128.38,-73.5 176.62,-73.5 176.62,-55.5 128.38,-55.5"/>
<text text-anchor="middle" x="152.5" y="-61.5" font-family="Helvetica,sans-Serif" font-size="10.00">types.h</text>
</a>
</g>
</g>
<!-- Node4&#45;&gt;Node5 -->
<g id="edge4" class="edge">
<title>Node4&#45;&gt;Node5</title>
<path fill="none" stroke="midnightblue" d="M176.12,-110.22C172.24,-102.86 166.44,-91.88 161.55,-82.64"/>
<polygon fill="midnightblue" stroke="midnightblue" points="164.52,-80.76 156.75,-73.55 158.33,-84.03 164.52,-80.76"/>
</g>
<!-- Node6 -->
<g id="node6" class="node">
<title>Node6</title>
<g id="a_node6"><a xlink:title=" ">
<polygon fill="none" stroke="#bfbfbf" points="62.38,-0.5 62.38,-18.5 110.62,-18.5 110.62,-0.5 62.38,-0.5"/>
<text text-anchor="middle" x="86.5" y="-6.5" font-family="Helvetica,sans-Serif" font-size="10.00">cassert</text>
</a>
</g>
</g>
<!-- Node5&#45;&gt;Node6 -->
<g id="edge5" class="edge">
<title>Node5&#45;&gt;Node6</title>
<path fill="none" stroke="midnightblue" d="M142.48,-55.45C132.49,-47.43 116.94,-34.95 104.76,-25.17"/>
<polygon fill="midnightblue" stroke="midnightblue" points="106.61,-22.16 96.62,-18.63 102.22,-27.62 106.61,-22.16"/>
</g>
<!-- Node7 -->
<g id="node7" class="node">
<title>Node7</title>
<g id="a_node7"><a xlink:title=" ">
<polygon fill="none" stroke="#bfbfbf" points="128.38,-0.5 128.38,-18.5 176.62,-18.5 176.62,-0.5 128.38,-0.5"/>
<text text-anchor="middle" x="152.5" y="-6.5" font-family="Helvetica,sans-Serif" font-size="10.00">cstddef</text>
</a>
</g>
</g>
<!-- Node5&#45;&gt;Node7 -->
<g id="edge6" class="edge">
<title>Node5&#45;&gt;Node7</title>
<path fill="none" stroke="midnightblue" d="M152.5,-55.22C152.5,-48.18 152.5,-37.81 152.5,-28.83"/>
<polygon fill="midnightblue" stroke="midnightblue" points="156,-28.55 152.5,-18.55 149,-28.55 156,-28.55"/>
</g>
<!-- Node8 -->
<g id="node8" class="node">
<title>Node8</title>
<g id="a_node8"><a xlink:title=" ">
<polygon fill="none" stroke="#bfbfbf" points="194.43,-0.5 194.43,-18.5 256.57,-18.5 256.57,-0.5 194.43,-0.5"/>
<text text-anchor="middle" x="225.5" y="-6.5" font-family="Helvetica,sans-Serif" font-size="10.00">type_traits</text>
</a>
</g>
</g>
<!-- Node5&#45;&gt;Node8 -->
<g id="edge7" class="edge">
<title>Node5&#45;&gt;Node8</title>
<path fill="none" stroke="midnightblue" d="M163.59,-55.45C174.84,-47.28 192.5,-34.46 206.08,-24.6"/>
<polygon fill="midnightblue" stroke="midnightblue" points="208.27,-27.33 214.31,-18.63 204.16,-21.67 208.27,-27.33"/>
</g>
<!-- Node10 -->
<g id="node10" class="node">
<title>Node10</title>
<g id="a_node10"><a xlink:href="../../d9/d1c/_xml_8h.html" target="_top" xlink:title=" ">
<polygon fill="none" stroke="black" points="496.27,-550.5 496.27,-568.5 566.73,-568.5 566.73,-550.5 496.27,-550.5"/>
<text text-anchor="middle" x="531.5" y="-556.5" font-family="Helvetica,sans-Serif" font-size="10.00">tralics/Xml.h</text>
</a>
</g>
</g>
<!-- Node9&#45;&gt;Node10 -->
<g id="edge9" class="edge">
<title>Node9&#45;&gt;Node10</title>
<path fill="none" stroke="midnightblue" d="M495.22,-605.22C501.44,-597.55 510.86,-585.94 518.54,-576.47"/>
<polygon fill="midnightblue" stroke="midnightblue" points="521.39,-578.52 524.97,-568.55 515.95,-574.11 521.39,-578.52"/>
</g>
<!-- Node11 -->
<g id="node11" class="node">
<title>Node11</title>
<g id="a_node11"><a xlink:href="../../dc/def/txstring_8h.html" target="_top" xlink:title=" ">
<polygon fill="none" stroke="black" points="562.05,-495.5 562.05,-513.5 626.95,-513.5 626.95,-495.5 562.05,-495.5"/>
<text text-anchor="middle" x="594.5" y="-501.5" font-family="Helvetica,sans-Serif" font-size="10.00">../txstring.h</text>
</a>
</g>
</g>
<!-- Node10&#45;&gt;Node11 -->
<g id="edge10" class="edge">
<title>Node10&#45;&gt;Node11</title>
<path fill="none" stroke="midnightblue" d="M541.07,-550.45C550.6,-542.43 565.44,-529.95 577.07,-520.17"/>
<polygon fill="midnightblue" stroke="midnightblue" points="579.44,-522.74 584.84,-513.63 574.94,-517.38 579.44,-522.74"/>
</g>
<!-- Node12 -->
<g id="node12" class="node">
<title>Node12</title>
<g id="a_node12"><a xlink:href="../../dd/d74/txbuffer_8h.html" target="_top" xlink:title=" ">
<polygon fill="none" stroke="black" points="501.02,-440.5 501.02,-458.5 557.98,-458.5 557.98,-440.5 501.02,-440.5"/>
<text text-anchor="middle" x="529.5" y="-446.5" font-family="Helvetica,sans-Serif" font-size="10.00">txbuffer.h</text>
</a>
</g>
</g>
<!-- Node11&#45;&gt;Node12 -->
<g id="edge11" class="edge">
<title>Node11&#45;&gt;Node12</title>
<path fill="none" stroke="midnightblue" d="M584.63,-495.45C574.8,-487.43 559.48,-474.95 547.49,-465.17"/>
<polygon fill="midnightblue" stroke="midnightblue" points="549.43,-462.23 539.47,-458.63 545,-467.66 549.43,-462.23"/>
</g>
<!-- Node13 -->
<g id="node13" class="node">
<title>Node13</title>
<g id="a_node13"><a xlink:href="../../d1/d9e/txid_8h.html" target="_top" xlink:title=" ">
<polygon fill="none" stroke="black" points="476.55,-330.5 476.55,-348.5 516.45,-348.5 516.45,-330.5 476.55,-330.5"/>
<text text-anchor="middle" x="496.5" y="-336.5" font-family="Helvetica,sans-Serif" font-size="10.00">txid.h</text>
</a>
</g>
</g>
<!-- Node12&#45;&gt;Node13 -->
<g id="edge12" class="edge">
<title>Node12&#45;&gt;Node13</title>
<path fill="none" stroke="midnightblue" d="M526.89,-440.31C524.05,-431.39 519.4,-416.7 515.5,-404 510.8,-388.68 505.59,-371.25 501.82,-358.53"/>
<polygon fill="midnightblue" stroke="midnightblue" points="505.12,-357.33 498.92,-348.73 498.4,-359.31 505.12,-357.33"/>
</g>
<!-- Node17 -->
<g id="node17" class="node">
<title>Node17</title>
<g id="a_node17"><a xlink:href="../../d9/d18/txscaled_8h.html" target="_top" xlink:title=" ">
<polygon fill="none" stroke="black" points="399.99,-385.5 399.99,-403.5 461.01,-403.5 461.01,-385.5 399.99,-385.5"/>
<text text-anchor="middle" x="430.5" y="-391.5" font-family="Helvetica,sans-Serif" font-size="10.00">txscaled.h</text>
</a>
</g>
</g>
<!-- Node12&#45;&gt;Node17 -->
<g id="edge17" class="edge">
<title>Node12&#45;&gt;Node17</title>
<path fill="none" stroke="midnightblue" d="M514.46,-440.45C498.55,-431.93 473.19,-418.35 454.5,-408.35"/>
<polygon fill="midnightblue" stroke="midnightblue" points="456.15,-405.26 445.68,-403.63 452.84,-411.43 456.15,-405.26"/>
</g>
<!-- Node25 -->
<g id="node25" class="node">
<title>Node25</title>
<g id="a_node25"><a xlink:title=" ">
<polygon fill="none" stroke="#bfbfbf" points="524.77,-385.5 524.77,-403.5 570.23,-403.5 570.23,-385.5 524.77,-385.5"/>
<text text-anchor="middle" x="547.5" y="-391.5" font-family="Helvetica,sans-Serif" font-size="10.00">cstring</text>
</a>
</g>
</g>
<!-- Node12&#45;&gt;Node25 -->
<g id="edge28" class="edge">
<title>Node12&#45;&gt;Node25</title>
<path fill="none" stroke="midnightblue" d="M532.31,-440.22C534.76,-433.02 538.38,-422.35 541.48,-413.23"/>
<polygon fill="midnightblue" stroke="midnightblue" points="544.86,-414.14 544.77,-403.55 538.24,-411.89 544.86,-414.14"/>
</g>
<!-- Node26 -->
<g id="node26" class="node">
<title>Node26</title>
<g id="a_node26"><a xlink:title=" ">
<polygon fill="none" stroke="#bfbfbf" points="673.88,-385.5 673.88,-403.5 717.12,-403.5 717.12,-385.5 673.88,-385.5"/>
<text text-anchor="middle" x="695.5" y="-391.5" font-family="Helvetica,sans-Serif" font-size="10.00">vector</text>
</a>
</g>
</g>
<!-- Node12&#45;&gt;Node26 -->
<g id="edge29" class="edge">
<title>Node12&#45;&gt;Node26</title>
<path fill="none" stroke="midnightblue" d="M554.71,-440.45C584.01,-431.1 632.38,-415.65 664.1,-405.53"/>
<polygon fill="midnightblue" stroke="midnightblue" points="665.3,-408.82 673.76,-402.44 663.17,-402.15 665.3,-408.82"/>
</g>
<!-- Node14 -->
<g id="node14" class="node">
<title>Node14</title>
<g id="a_node14"><a xlink:href="../../d5/daf/_istring_8h.html" target="_top" xlink:title=" ">
<polygon fill="none" stroke="black" points="386.27,-275.5 386.27,-293.5 466.73,-293.5 466.73,-275.5 386.27,-275.5"/>
<text text-anchor="middle" x="426.5" y="-281.5" font-family="Helvetica,sans-Serif" font-size="10.00">tralics/Istring.h</text>
</a>
</g>
</g>
<!-- Node13&#45;&gt;Node14 -->
<g id="edge13" class="edge">
<title>Node13&#45;&gt;Node14</title>
<path fill="none" stroke="midnightblue" d="M485.87,-330.45C475.18,-322.36 458.47,-309.7 445.5,-299.88"/>
<polygon fill="midnightblue" stroke="midnightblue" points="447.32,-296.87 437.23,-293.63 443.09,-302.45 447.32,-296.87"/>
</g>
<!-- Node14&#45;&gt;Node3 -->
<g id="edge14" class="edge">
<title>Node14&#45;&gt;Node3</title>
<path fill="none" stroke="midnightblue" d="M408.01,-275.38C365.17,-256.57 258.89,-209.92 208.23,-187.67"/>
<polygon fill="midnightblue" stroke="midnightblue" points="209.43,-184.38 198.87,-183.56 206.62,-190.79 209.43,-184.38"/>
</g>
<!-- Node15 -->
<g id="node15" class="node">
<title>Node15</title>
<g id="a_node15"><a xlink:title=" ">
<polygon fill="none" stroke="#bfbfbf" points="407.11,-220.5 407.11,-238.5 445.89,-238.5 445.89,-220.5 407.11,-220.5"/>
<text text-anchor="middle" x="426.5" y="-226.5" font-family="Helvetica,sans-Serif" font-size="10.00">array</text>
</a>
</g>
</g>
<!-- Node14&#45;&gt;Node15 -->
<g id="edge15" class="edge">
<title>Node14&#45;&gt;Node15</title>
<path fill="none" stroke="midnightblue" d="M426.5,-275.22C426.5,-268.18 426.5,-257.81 426.5,-248.83"/>
<polygon fill="midnightblue" stroke="midnightblue" points="430,-248.55 426.5,-238.55 423,-248.55 430,-248.55"/>
</g>
<!-- Node16 -->
<g id="node16" class="node">
<title>Node16</title>
<g id="a_node16"><a xlink:title=" ">
<polygon fill="none" stroke="#bfbfbf" points="503.27,-220.5 503.27,-238.5 543.73,-238.5 543.73,-220.5 503.27,-220.5"/>
<text text-anchor="middle" x="523.5" y="-226.5" font-family="Helvetica,sans-Serif" font-size="10.00">string</text>
</a>
</g>
</g>
<!-- Node14&#45;&gt;Node16 -->
<g id="edge16" class="edge">
<title>Node14&#45;&gt;Node16</title>
<path fill="none" stroke="midnightblue" d="M441.23,-275.45C456.76,-266.97 481.45,-253.48 499.73,-243.49"/>
<polygon fill="midnightblue" stroke="midnightblue" points="501.53,-246.49 508.63,-238.63 498.18,-240.35 501.53,-246.49"/>
</g>
<!-- Node18 -->
<g id="node18" class="node">
<title>Node18</title>
<g id="a_node18"><a xlink:href="../../dc/d91/txtokenlist_8h.html" target="_top" xlink:title=" ">
<polygon fill="none" stroke="black" points="390.1,-330.5 390.1,-348.5 458.9,-348.5 458.9,-330.5 390.1,-330.5"/>
<text text-anchor="middle" x="424.5" y="-336.5" font-family="Helvetica,sans-Serif" font-size="10.00">txtokenlist.h</text>
</a>
</g>
</g>
<!-- Node17&#45;&gt;Node18 -->
<g id="edge18" class="edge">
<title>Node17&#45;&gt;Node18</title>
<path fill="none" stroke="midnightblue" d="M429.56,-385.22C428.76,-378.1 427.57,-367.58 426.54,-358.53"/>
<polygon fill="midnightblue" stroke="midnightblue" points="430.01,-358.09 425.41,-348.55 423.06,-358.88 430.01,-358.09"/>
</g>
<!-- Node18&#45;&gt;Node14 -->
<g id="edge19" class="edge">
<title>Node18&#45;&gt;Node14</title>
<path fill="none" stroke="midnightblue" d="M424.81,-330.22C425.08,-323.18 425.47,-312.81 425.81,-303.83"/>
<polygon fill="midnightblue" stroke="midnightblue" points="429.32,-303.67 426.2,-293.55 422.32,-303.41 429.32,-303.67"/>
</g>
<!-- Node19 -->
<g id="node19" class="node">
<title>Node19</title>
<g id="a_node19"><a xlink:href="../../dd/dcd/_token_8h.html" target="_top" xlink:title=" ">
<polygon fill="none" stroke="black" points="35.54,-275.5 35.54,-293.5 115.46,-293.5 115.46,-275.5 35.54,-275.5"/>
<text text-anchor="middle" x="75.5" y="-281.5" font-family="Helvetica,sans-Serif" font-size="10.00">tralics/Token.h</text>
</a>
</g>
</g>
<!-- Node18&#45;&gt;Node19 -->
<g id="edge20" class="edge">
<title>Node18&#45;&gt;Node19</title>
<path fill="none" stroke="midnightblue" d="M390.08,-333.27C328.12,-323.86 197.6,-304.04 125.68,-293.12"/>
<polygon fill="midnightblue" stroke="midnightblue" points="125.92,-289.62 115.51,-291.58 124.87,-296.54 125.92,-289.62"/>
</g>
<!-- Node24 -->
<g id="node24" class="node">
<title>Node24</title>
<g id="a_node24"><a xlink:title=" ">
<polygon fill="none" stroke="#bfbfbf" points="492.11,-275.5 492.11,-293.5 530.89,-293.5 530.89,-275.5 492.11,-275.5"/>
<text text-anchor="middle" x="511.5" y="-281.5" font-family="Helvetica,sans-Serif" font-size="10.00">utility</text>
</a>
</g>
</g>
<!-- Node18&#45;&gt;Node24 -->
<g id="edge27" class="edge">
<title>Node18&#45;&gt;Node24</title>
<path fill="none" stroke="midnightblue" d="M437.71,-330.45C451.38,-322.12 472.97,-308.97 489.27,-299.04"/>
<polygon fill="midnightblue" stroke="midnightblue" points="491.44,-301.82 498.16,-293.63 487.8,-295.84 491.44,-301.82"/>
</g>
<!-- Node20 -->
<g id="node20" class="node">
<title>Node20</title>
<g id="a_node20"><a xlink:href="../../d2/d68/_cmd_chr_8h.html" target="_top" xlink:title=" ">
<polygon fill="none" stroke="black" points="48.99,-220.5 48.99,-238.5 110.01,-238.5 110.01,-220.5 48.99,-220.5"/>
<text text-anchor="middle" x="79.5" y="-226.5" font-family="Helvetica,sans-Serif" font-size="10.00">CmdChr.h</text>
</a>
</g>
</g>
<!-- Node19&#45;&gt;Node20 -->
<g id="edge21" class="edge">
<title>Node19&#45;&gt;Node20</title>
<path fill="none" stroke="midnightblue" d="M76.12,-275.22C76.66,-268.1 77.46,-257.58 78.14,-248.53"/>
<polygon fill="midnightblue" stroke="midnightblue" points="81.63,-248.78 78.89,-238.55 74.65,-248.26 81.63,-248.78"/>
</g>
<!-- Node19&#45;&gt;Node23 -->
<g id="edge26" class="edge">
<title>Node19&#45;&gt;Node23</title>
<path fill="none" stroke="midnightblue" d="M66.24,-275.45C57.1,-267.51 42.92,-255.19 31.71,-245.45"/>
<polygon fill="midnightblue" stroke="midnightblue" points="33.7,-242.54 23.85,-238.63 29.1,-247.83 33.7,-242.54"/>
</g>
<!-- Node20&#45;&gt;Node3 -->
<g id="edge25" class="edge">
<title>Node20&#45;&gt;Node3</title>
<path fill="none" stroke="midnightblue" d="M94.84,-220.45C111.08,-211.93 136.95,-198.35 156.01,-188.35"/>
<polygon fill="midnightblue" stroke="midnightblue" points="157.79,-191.37 165.02,-183.63 154.53,-185.17 157.79,-191.37"/>
</g>
<!-- Node21 -->
<g id="node21" class="node">
<title>Node21</title>
<g id="a_node21"><a xlink:href="../../d8/d47/codepoint_8h.html" target="_top" xlink:title=" ">
<polygon fill="none" stroke="black" points="45.65,-165.5 45.65,-183.5 113.35,-183.5 113.35,-165.5 45.65,-165.5"/>
<text text-anchor="middle" x="79.5" y="-171.5" font-family="Helvetica,sans-Serif" font-size="10.00">codepoint.h</text>
</a>
</g>
</g>
<!-- Node20&#45;&gt;Node21 -->
<g id="edge22" class="edge">
<title>Node20&#45;&gt;Node21</title>
<path fill="none" stroke="midnightblue" d="M79.5,-220.22C79.5,-213.18 79.5,-202.81 79.5,-193.83"/>
<polygon fill="midnightblue" stroke="midnightblue" points="83,-193.55 79.5,-183.55 76,-193.55 83,-193.55"/>
</g>
<!-- Node21&#45;&gt;Node5 -->
<g id="edge23" class="edge">
<title>Node21&#45;&gt;Node5</title>
<path fill="none" stroke="midnightblue" d="M84.99,-165.38C96.88,-147.79 125.23,-105.85 141.15,-82.29"/>
<polygon fill="midnightblue" stroke="midnightblue" points="144.25,-83.96 146.95,-73.71 138.45,-80.04 144.25,-83.96"/>
</g>
<!-- Node22 -->
<g id="node22" class="node">
<title>Node22</title>
<g id="a_node22"><a xlink:title=" ">
<polygon fill="none" stroke="#bfbfbf" points="45.99,-110.5 45.99,-128.5 97.01,-128.5 97.01,-110.5 45.99,-110.5"/>
<text text-anchor="middle" x="71.5" y="-116.5" font-family="Helvetica,sans-Serif" font-size="10.00">optional</text>
</a>
</g>
</g>
<!-- Node21&#45;&gt;Node22 -->
<g id="edge24" class="edge">
<title>Node21&#45;&gt;Node22</title>
<path fill="none" stroke="midnightblue" d="M78.25,-165.22C77.18,-158.1 75.59,-147.58 74.22,-138.53"/>
<polygon fill="midnightblue" stroke="midnightblue" points="77.67,-137.92 72.72,-128.55 70.75,-138.96 77.67,-137.92"/>
</g>
<!-- Node29 -->
<g id="node29" class="node">
<title>Node29</title>
<g id="a_node29"><a xlink:href="../../d4/de9/_main_class_8h.html" target="_top" xlink:title=" ">
<polygon fill="none" stroke="black" points="305.54,-605.5 305.54,-623.5 405.46,-623.5 405.46,-605.5 305.54,-605.5"/>
<text text-anchor="middle" x="355.5" y="-611.5" font-family="Helvetica,sans-Serif" font-size="10.00">tralics/MainClass.h</text>
</a>
</g>
</g>
<!-- Node28&#45;&gt;Node29 -->
<g id="edge33" class="edge">
<title>Node28&#45;&gt;Node29</title>
<path fill="none" stroke="midnightblue" d="M297.83,-660.45C308.21,-652.36 324.45,-639.7 337.05,-629.88"/>
<polygon fill="midnightblue" stroke="midnightblue" points="339.34,-632.53 345.08,-623.63 335.04,-627.01 339.34,-632.53"/>
</g>
<!-- Node32 -->
<g id="node32" class="node">
<title>Node32</title>
<g id="a_node32"><a xlink:href="../../d2/d06/txlogger_8h.html" target="_top" xlink:title=" ">
<polygon fill="none" stroke="black" points="111.82,-605.5 111.82,-623.5 171.18,-623.5 171.18,-605.5 111.82,-605.5"/>
<text text-anchor="middle" x="141.5" y="-611.5" font-family="Helvetica,sans-Serif" font-size="10.00">txlogger.h</text>
</a>
</g>
</g>
<!-- Node28&#45;&gt;Node32 -->
<g id="edge38" class="edge">
<title>Node28&#45;&gt;Node32</title>
<path fill="none" stroke="midnightblue" d="M265.33,-660.45C240.89,-651.58 201.36,-637.23 173.55,-627.13"/>
<polygon fill="midnightblue" stroke="midnightblue" points="174.48,-623.75 163.88,-623.63 172.09,-630.33 174.48,-623.75"/>
</g>
<!-- Node33 -->
<g id="node33" class="node">
<title>Node33</title>
<g id="a_node33"><a xlink:href="../../d5/d08/txparam_8h.html" target="_top" xlink:title=" ">
<polygon fill="none" stroke="black" points="189.27,-605.5 189.27,-623.5 249.73,-623.5 249.73,-605.5 189.27,-605.5"/>
<text text-anchor="middle" x="219.5" y="-611.5" font-family="Helvetica,sans-Serif" font-size="10.00">txparam.h</text>
</a>
</g>
</g>
<!-- Node28&#45;&gt;Node33 -->
<g id="edge41" class="edge">
<title>Node28&#45;&gt;Node33</title>
<path fill="none" stroke="midnightblue" d="M277.17,-660.45C266.79,-652.36 250.55,-639.7 237.95,-629.88"/>
<polygon fill="midnightblue" stroke="midnightblue" points="239.96,-627.01 229.92,-623.63 235.66,-632.53 239.96,-627.01"/>
</g>
<!-- Node29&#45;&gt;Node11 -->
<g id="edge37" class="edge">
<title>Node29&#45;&gt;Node11</title>
<path fill="none" stroke="midnightblue" d="M371.62,-605.39C396.36,-593.04 445.26,-568.93 487.5,-550 513.45,-538.37 543.37,-526.02 564.96,-517.28"/>
<polygon fill="midnightblue" stroke="midnightblue" points="566.28,-520.53 574.25,-513.54 563.66,-514.03 566.28,-520.53"/>
</g>
<!-- Node30 -->
<g id="node30" class="node">
<title>Node30</title>
<g id="a_node30"><a xlink:href="../../de/d29/txio_8h.html" target="_top" xlink:title=" ">
<polygon fill="none" stroke="black" points="253.38,-550.5 253.38,-568.5 301.62,-568.5 301.62,-550.5 253.38,-550.5"/>
<text text-anchor="middle" x="277.5" y="-556.5" font-family="Helvetica,sans-Serif" font-size="10.00">../txio.h</text>
</a>
</g>
</g>
<!-- Node29&#45;&gt;Node30 -->
<g id="edge34" class="edge">
<title>Node29&#45;&gt;Node30</title>
<path fill="none" stroke="midnightblue" d="M343.65,-605.45C331.51,-597.2 312.4,-584.22 297.84,-574.32"/>
<polygon fill="midnightblue" stroke="midnightblue" points="299.7,-571.35 289.46,-568.63 295.76,-577.14 299.7,-571.35"/>
</g>
<!-- Node30&#45;&gt;Node12 -->
<g id="edge35" class="edge">
<title>Node30&#45;&gt;Node12</title>
<path fill="none" stroke="midnightblue" d="M301.86,-558.3C341.92,-556.9 422.92,-549.5 479.5,-514 497.66,-502.61 511.95,-482.2 520.52,-467.6"/>
<polygon fill="midnightblue" stroke="midnightblue" points="523.73,-469.04 525.52,-458.59 517.61,-465.64 523.73,-469.04"/>
</g>
<!-- Node31 -->
<g id="node31" class="node">
<title>Node31</title>
<g id="a_node31"><a xlink:title=" ">
<polygon fill="none" stroke="#bfbfbf" points="201.83,-495.5 201.83,-513.5 251.17,-513.5 251.17,-495.5 201.83,-495.5"/>
<text text-anchor="middle" x="226.5" y="-501.5" font-family="Helvetica,sans-Serif" font-size="10.00">fstream</text>
</a>
</g>
</g>
<!-- Node30&#45;&gt;Node31 -->
<g id="edge36" class="edge">
<title>Node30&#45;&gt;Node31</title>
<path fill="none" stroke="midnightblue" d="M269.53,-550.22C262,-542.39 250.52,-530.46 241.31,-520.89"/>
<polygon fill="midnightblue" stroke="midnightblue" points="243.7,-518.33 234.25,-513.55 238.66,-523.18 243.7,-518.33"/>
</g>
<!-- Node32&#45;&gt;Node27 -->
<g id="edge40" class="edge">
<title>Node32&#45;&gt;Node27</title>
<path fill="none" stroke="midnightblue" d="M138.84,-605.22C136.53,-598.02 133.11,-587.35 130.19,-578.23"/>
<polygon fill="midnightblue" stroke="midnightblue" points="133.47,-577 127.08,-568.55 126.8,-579.14 133.47,-577"/>
</g>
<!-- Node32&#45;&gt;Node31 -->
<g id="edge39" class="edge">
<title>Node32&#45;&gt;Node31</title>
<path fill="none" stroke="midnightblue" d="M147.89,-605.38C161.86,-587.63 195.33,-545.1 213.78,-521.67"/>
<polygon fill="midnightblue" stroke="midnightblue" points="216.6,-523.73 220.04,-513.71 211.1,-519.41 216.6,-523.73"/>
</g>
<!-- Node33&#45;&gt;Node30 -->
<g id="edge42" class="edge">
<title>Node33&#45;&gt;Node30</title>
<path fill="none" stroke="midnightblue" d="M228.56,-605.22C237.3,-597.24 250.71,-584.98 261.28,-575.32"/>
<polygon fill="midnightblue" stroke="midnightblue" points="263.67,-577.88 268.69,-568.55 258.95,-572.71 263.67,-577.88"/>
</g>
<!-- Node34&#45;&gt;Node30 -->
<g id="edge57" class="edge">
<title>Node34&#45;&gt;Node30</title>
<path fill="none" stroke="midnightblue" d="M566.45,-668.02C498.63,-666.32 336.5,-658.64 296.5,-624 283.6,-612.83 279.27,-593.28 277.91,-578.82"/>
<polygon fill="midnightblue" stroke="midnightblue" points="281.39,-578.36 277.35,-568.56 274.4,-578.74 281.39,-578.36"/>
</g>
<!-- Node35 -->
<g id="node35" class="node">
<title>Node35</title>
<g id="a_node35"><a xlink:href="../../d8/dd6/_e_q_t_b_8h.html" target="_top" xlink:title=" ">
<polygon fill="none" stroke="black" points="390.27,-495.5 390.27,-513.5 470.73,-513.5 470.73,-495.5 390.27,-495.5"/>
<text text-anchor="middle" x="430.5" y="-501.5" font-family="Helvetica,sans-Serif" font-size="10.00">tralics/EQTB.h</text>
</a>
</g>
</g>
<!-- Node34&#45;&gt;Node35 -->
<g id="edge44" class="edge">
<title>Node34&#45;&gt;Node35</title>
<path fill="none" stroke="midnightblue" d="M566.33,-667.9C533.35,-665.52 481.38,-656.45 452.5,-624 427.65,-596.08 426.77,-549.42 428.5,-523.77"/>
<polygon fill="midnightblue" stroke="midnightblue" points="432.01,-523.88 429.41,-513.61 425.04,-523.26 432.01,-523.88"/>
</g>
<!-- Node36 -->
<g id="node36" class="node">
<title>Node36</title>
<g id="a_node36"><a xlink:href="../../d3/d6b/txcond_8h.html" target="_top" xlink:title=" ">
<polygon fill="none" stroke="black" points="754.6,-440.5 754.6,-458.5 808.4,-458.5 808.4,-440.5 754.6,-440.5"/>
<text text-anchor="middle" x="781.5" y="-446.5" font-family="Helvetica,sans-Serif" font-size="10.00">txcond.h</text>
</a>
</g>
</g>
<!-- Node34&#45;&gt;Node36 -->
<g id="edge46" class="edge">
<title>Node34&#45;&gt;Node36</title>
<path fill="none" stroke="midnightblue" d="M626.64,-661.67C677.97,-649.96 777.09,-627.03 779.5,-624 815.88,-578.26 798.27,-502.21 787.61,-468.05"/>
<polygon fill="midnightblue" stroke="midnightblue" points="790.92,-466.93 784.46,-458.52 784.27,-469.12 790.92,-466.93"/>
</g>
<!-- Node37 -->
<g id="node37" class="node">
<title>Node37</title>
<g id="a_node37"><a xlink:href="../../d7/d4d/txfonts_8h.html" target="_top" xlink:title=" ">
<polygon fill="none" stroke="black" points="646.6,-550.5 646.6,-568.5 700.4,-568.5 700.4,-550.5 646.6,-550.5"/>
<text text-anchor="middle" x="673.5" y="-556.5" font-family="Helvetica,sans-Serif" font-size="10.00">txfonts.h</text>
</a>
</g>
</g>
<!-- Node34&#45;&gt;Node37 -->
<g id="edge49" class="edge">
<title>Node34&#45;&gt;Node37</title>
<path fill="none" stroke="midnightblue" d="M620.91,-660.47C637.64,-653.6 658.68,-641.92 669.5,-624 677.71,-610.41 677.96,-592.06 676.6,-578.58"/>
<polygon fill="midnightblue" stroke="midnightblue" points="680.06,-578.04 675.22,-568.61 673.13,-579 680.06,-578.04"/>
</g>
<!-- Node38 -->
<g id="node38" class="node">
<title>Node38</title>
<g id="a_node38"><a xlink:href="../../d7/d7e/txhash_8h.html" target="_top" xlink:title=" ">
<polygon fill="none" stroke="black" points="716.6,-605.5 716.6,-623.5 770.4,-623.5 770.4,-605.5 716.6,-605.5"/>
<text text-anchor="middle" x="743.5" y="-611.5" font-family="Helvetica,sans-Serif" font-size="10.00">txhash.h</text>
</a>
</g>
</g>
<!-- Node34&#45;&gt;Node38 -->
<g id="edge51" class="edge">
<title>Node34&#45;&gt;Node38</title>
<path fill="none" stroke="midnightblue" d="M618.83,-660.45C643.43,-651.58 683.23,-637.23 711.23,-627.13"/>
<polygon fill="midnightblue" stroke="midnightblue" points="712.74,-630.31 720.96,-623.63 710.37,-623.72 712.74,-630.31"/>
</g>
<!-- Node40 -->
<g id="node40" class="node">
<title>Node40</title>
<g id="a_node40"><a xlink:href="../../de/d7c/tximage_8h.html" target="_top" xlink:title=" ">
<polygon fill="none" stroke="black" points="534.82,-330.5 534.82,-348.5 594.18,-348.5 594.18,-330.5 534.82,-330.5"/>
<text text-anchor="middle" x="564.5" y="-336.5" font-family="Helvetica,sans-Serif" font-size="10.00">tximage.h</text>
</a>
</g>
</g>
<!-- Node34&#45;&gt;Node40 -->
<g id="edge54" class="edge">
<title>Node34&#45;&gt;Node40</title>
<path fill="none" stroke="midnightblue" d="M626.66,-661.89C682.88,-649.58 798.06,-624.32 798.5,-624 825.19,-604.78 836.5,-593.39 836.5,-560.5 836.5,-560.5 836.5,-560.5 836.5,-448.5 836.5,-399.19 680.1,-362.56 604.49,-347.74"/>
<polygon fill="midnightblue" stroke="midnightblue" points="604.87,-344.24 594.39,-345.79 603.54,-351.12 604.87,-344.24"/>
</g>
<!-- Node41 -->
<g id="node41" class="node">
<title>Node41</title>
<g id="a_node41"><a xlink:href="../../dc/d65/txstack_8h.html" target="_top" xlink:title=" ">
<polygon fill="none" stroke="black" points="604.77,-605.5 604.77,-623.5 660.23,-623.5 660.23,-605.5 604.77,-605.5"/>
<text text-anchor="middle" x="632.5" y="-611.5" font-family="Helvetica,sans-Serif" font-size="10.00">txstack.h</text>
</a>
</g>
</g>
<!-- Node34&#45;&gt;Node41 -->
<g id="edge58" class="edge">
<title>Node34&#45;&gt;Node41</title>
<path fill="none" stroke="midnightblue" d="M602.12,-660.22C607.23,-652.71 614.9,-641.41 621.26,-632.05"/>
<polygon fill="midnightblue" stroke="midnightblue" points="624.31,-633.79 627.03,-623.55 618.52,-629.86 624.31,-633.79"/>
</g>
<!-- Node43 -->
<g id="node43" class="node">
<title>Node43</title>
<g id="a_node43"><a xlink:href="../../d8/d3d/txstats_8h.html" target="_top" xlink:title=" ">
<polygon fill="none" stroke="black" points="533.88,-605.5 533.88,-623.5 587.12,-623.5 587.12,-605.5 533.88,-605.5"/>
<text text-anchor="middle" x="560.5" y="-611.5" font-family="Helvetica,sans-Serif" font-size="10.00">txstats.h</text>
</a>
</g>
</g>
<!-- Node34&#45;&gt;Node43 -->
<g id="edge62" class="edge">
<title>Node34&#45;&gt;Node43</title>
<path fill="none" stroke="midnightblue" d="M590.88,-660.22C585.77,-652.71 578.1,-641.41 571.74,-632.05"/>
<polygon fill="midnightblue" stroke="midnightblue" points="574.48,-629.86 565.97,-623.55 568.69,-633.79 574.48,-629.86"/>
</g>
<!-- Node35&#45;&gt;Node17 -->
<g id="edge45" class="edge">
<title>Node35&#45;&gt;Node17</title>
<path fill="none" stroke="midnightblue" d="M430.5,-495.38C430.5,-478.18 430.5,-437.7 430.5,-413.89"/>
<polygon fill="midnightblue" stroke="midnightblue" points="434,-413.71 430.5,-403.71 427,-413.71 434,-413.71"/>
</g>
<!-- Node36&#45;&gt;Node3 -->
<g id="edge47" class="edge">
<title>Node36&#45;&gt;Node3</title>
<path fill="none" stroke="midnightblue" d="M796.44,-440.29C822.73,-424.62 874.5,-387.76 874.5,-340.5 874.5,-340.5 874.5,-340.5 874.5,-283.5 874.5,-218.55 393.74,-186.9 232.5,-178.11"/>
<polygon fill="midnightblue" stroke="midnightblue" points="232.52,-174.61 222.35,-177.57 232.15,-181.6 232.52,-174.61"/>
</g>
<!-- Node36&#45;&gt;Node26 -->
<g id="edge48" class="edge">
<title>Node36&#45;&gt;Node26</title>
<path fill="none" stroke="midnightblue" d="M768.44,-440.45C754.93,-432.12 733.58,-418.97 717.47,-409.04"/>
<polygon fill="midnightblue" stroke="midnightblue" points="719.03,-405.89 708.68,-403.63 715.36,-411.85 719.03,-405.89"/>
</g>
<!-- Node37&#45;&gt;Node11 -->
<g id="edge50" class="edge">
<title>Node37&#45;&gt;Node11</title>
<path fill="none" stroke="midnightblue" d="M661.5,-550.45C649.21,-542.2 629.85,-529.22 615.1,-519.32"/>
<polygon fill="midnightblue" stroke="midnightblue" points="616.87,-516.29 606.61,-513.63 612.97,-522.1 616.87,-516.29"/>
</g>
<!-- Node39 -->
<g id="node39" class="node">
<title>Node39</title>
<g id="a_node39"><a xlink:href="../../d3/d01/txeqtb_8h.html" target="_top" xlink:title=" ">
<polygon fill="none" stroke="black" points="718.71,-550.5 718.71,-568.5 770.29,-568.5 770.29,-550.5 718.71,-550.5"/>
<text text-anchor="middle" x="744.5" y="-556.5" font-family="Helvetica,sans-Serif" font-size="10.00">txeqtb.h</text>
</a>
</g>
</g>
<!-- Node38&#45;&gt;Node39 -->
<g id="edge52" class="edge">
<title>Node38&#45;&gt;Node39</title>
<path fill="none" stroke="midnightblue" d="M743.66,-605.22C743.79,-598.18 743.98,-587.81 744.15,-578.83"/>
<polygon fill="midnightblue" stroke="midnightblue" points="747.66,-578.61 744.35,-568.55 740.66,-578.48 747.66,-578.61"/>
</g>
<!-- Node39&#45;&gt;Node11 -->
<g id="edge53" class="edge">
<title>Node39&#45;&gt;Node11</title>
<path fill="none" stroke="midnightblue" d="M721.72,-550.45C696.5,-541.54 655.64,-527.1 627.05,-517"/>
<polygon fill="midnightblue" stroke="midnightblue" points="628.09,-513.66 617.5,-513.63 625.76,-520.26 628.09,-513.66"/>
</g>
<!-- Node40&#45;&gt;Node16 -->
<g id="edge55" class="edge">
<title>Node40&#45;&gt;Node16</title>
<path fill="none" stroke="midnightblue" d="M561.42,-330.38C554.83,-313.03 539.24,-271.96 530.24,-248.24"/>
<polygon fill="midnightblue" stroke="midnightblue" points="533.44,-246.82 526.62,-238.71 526.89,-249.3 533.44,-246.82"/>
</g>
<!-- Node40&#45;&gt;Node24 -->
<g id="edge56" class="edge">
<title>Node40&#45;&gt;Node24</title>
<path fill="none" stroke="midnightblue" d="M556.22,-330.22C548.39,-322.39 536.46,-310.46 526.89,-300.89"/>
<polygon fill="midnightblue" stroke="midnightblue" points="529.1,-298.15 519.55,-293.55 524.15,-303.1 529.1,-298.15"/>
</g>
<!-- Node41&#45;&gt;Node10 -->
<g id="edge59" class="edge">
<title>Node41&#45;&gt;Node10</title>
<path fill="none" stroke="midnightblue" d="M617.16,-605.45C600.92,-596.93 575.05,-583.35 555.99,-573.35"/>
<polygon fill="midnightblue" stroke="midnightblue" points="557.47,-570.17 546.98,-568.63 554.21,-576.37 557.47,-570.17"/>
</g>
<!-- Node42 -->
<g id="node42" class="node">
<title>Node42</title>
<g id="a_node42"><a xlink:href="../../d4/da4/txatt_8h.html" target="_top" xlink:title=" ">
<polygon fill="none" stroke="black" points="584.88,-550.5 584.88,-568.5 628.12,-568.5 628.12,-550.5 584.88,-550.5"/>
<text text-anchor="middle" x="606.5" y="-556.5" font-family="Helvetica,sans-Serif" font-size="10.00">txatt.h</text>
</a>
</g>
</g>
<!-- Node41&#45;&gt;Node42 -->
<g id="edge60" class="edge">
<title>Node41&#45;&gt;Node42</title>
<path fill="none" stroke="midnightblue" d="M628.44,-605.22C624.83,-597.86 619.44,-586.88 614.91,-577.64"/>
<polygon fill="midnightblue" stroke="midnightblue" points="618,-575.99 610.45,-568.55 611.71,-579.07 618,-575.99"/>
</g>
<!-- Node42&#45;&gt;Node11 -->
<g id="edge61" class="edge">
<title>Node42&#45;&gt;Node11</title>
<path fill="none" stroke="midnightblue" d="M604.62,-550.22C603.01,-543.1 600.63,-532.58 598.58,-523.53"/>
<polygon fill="midnightblue" stroke="midnightblue" points="601.94,-522.53 596.32,-513.55 595.12,-524.08 601.94,-522.53"/>
</g>
</g>
</svg>
