<?xml version="1.0" encoding="UTF-8" standalone="no"?>
<!DOCTYPE svg PUBLIC "-//W3C//DTD SVG 1.1//EN"
 "http://www.w3.org/Graphics/SVG/1.1/DTD/svg11.dtd">
<!-- Generated by graphviz version 2.42.3 (20191010.1750)
 -->
<!-- Title: txmath1.cpp Pages: 1 -->
<svg width="799pt" height="742pt"
 viewBox="0.00 0.00 798.59 742.00" xmlns="http://www.w3.org/2000/svg" xmlns:xlink="http://www.w3.org/1999/xlink">
<g id="graph0" class="graph" transform="scale(1 1) rotate(0) translate(4 738)">
<title>txmath1.cpp</title>
<!-- Node1 -->
<g id="node1" class="node">
<title>Node1</title>
<g id="a_node1"><a xlink:title=" ">
<polygon fill="#bfbfbf" stroke="black" points="480.45,-715.5 480.45,-733.5 550.92,-733.5 550.92,-715.5 480.45,-715.5"/>
<text text-anchor="middle" x="515.68" y="-721.5" font-family="Helvetica,sans-Serif" font-size="10.00">txmath1.cpp</text>
</a>
</g>
</g>
<!-- Node2 -->
<g id="node2" class="node">
<title>Node2</title>
<g id="a_node2"><a xlink:href="../../db/dd3/txmath1_8h.html" target="_top" xlink:title=" ">
<polygon fill="none" stroke="black" points="346.73,-660.5 346.73,-678.5 406.64,-678.5 406.64,-660.5 346.73,-660.5"/>
<text text-anchor="middle" x="376.68" y="-666.5" font-family="Helvetica,sans-Serif" font-size="10.00">txmath1.h</text>
</a>
</g>
</g>
<!-- Node1&#45;&gt;Node2 -->
<g id="edge1" class="edge">
<title>Node1&#45;&gt;Node2</title>
<path fill="none" stroke="midnightblue" d="M494.57,-715.45C471.41,-706.62 434,-692.35 407.55,-682.27"/>
<polygon fill="midnightblue" stroke="midnightblue" points="408.59,-678.92 397.99,-678.63 406.09,-685.46 408.59,-678.92"/>
</g>
<!-- Node28 -->
<g id="node28" class="node">
<title>Node28</title>
<g id="a_node28"><a xlink:href="../../d7/d79/txinline_8h.html" target="_top" xlink:title=" ">
<polygon fill="none" stroke="black" points="147.95,-660.5 147.95,-678.5 203.42,-678.5 203.42,-660.5 147.95,-660.5"/>
<text text-anchor="middle" x="175.68" y="-666.5" font-family="Helvetica,sans-Serif" font-size="10.00">txinline.h</text>
</a>
</g>
</g>
<!-- Node1&#45;&gt;Node28 -->
<g id="edge30" class="edge">
<title>Node1&#45;&gt;Node28</title>
<path fill="none" stroke="midnightblue" d="M480.26,-717.98C415.84,-707.94 280.07,-686.77 213.75,-676.43"/>
<polygon fill="midnightblue" stroke="midnightblue" points="214.15,-672.95 203.73,-674.87 213.07,-679.87 214.15,-672.95"/>
</g>
<!-- Node34 -->
<g id="node34" class="node">
<title>Node34</title>
<g id="a_node34"><a xlink:href="../../d2/d1b/txparser_8h.html" target="_top" xlink:title=" ">
<polygon fill="none" stroke="black" points="485.73,-660.5 485.73,-678.5 545.64,-678.5 545.64,-660.5 485.73,-660.5"/>
<text text-anchor="middle" x="515.68" y="-666.5" font-family="Helvetica,sans-Serif" font-size="10.00">txparser.h</text>
</a>
</g>
</g>
<!-- Node1&#45;&gt;Node34 -->
<g id="edge41" class="edge">
<title>Node1&#45;&gt;Node34</title>
<path fill="none" stroke="midnightblue" d="M515.68,-715.22C515.68,-708.18 515.68,-697.81 515.68,-688.83"/>
<polygon fill="midnightblue" stroke="midnightblue" points="519.18,-688.55 515.68,-678.55 512.18,-688.55 519.18,-688.55"/>
</g>
<!-- Node44 -->
<g id="node44" class="node">
<title>Node44</title>
<g id="a_node44"><a xlink:title=" ">
<polygon fill="none" stroke="#bfbfbf" points="564.12,-660.5 564.12,-678.5 621.25,-678.5 621.25,-660.5 564.12,-660.5"/>
<text text-anchor="middle" x="592.68" y="-666.5" font-family="Helvetica,sans-Serif" font-size="10.00">algorithm</text>
</a>
</g>
</g>
<!-- Node1&#45;&gt;Node44 -->
<g id="edge61" class="edge">
<title>Node1&#45;&gt;Node44</title>
<path fill="none" stroke="midnightblue" d="M527.38,-715.45C539.36,-707.2 558.23,-694.22 572.61,-684.32"/>
<polygon fill="midnightblue" stroke="midnightblue" points="574.63,-687.18 580.88,-678.63 570.66,-681.41 574.63,-687.18"/>
</g>
<!-- Node45 -->
<g id="node45" class="node">
<title>Node45</title>
<g id="a_node45"><a xlink:title=" ">
<polygon fill="none" stroke="#bfbfbf" points="639.01,-660.5 639.01,-678.5 708.36,-678.5 708.36,-660.5 639.01,-660.5"/>
<text text-anchor="middle" x="673.68" y="-666.5" font-family="Helvetica,sans-Serif" font-size="10.00">fmt/format.h</text>
</a>
</g>
</g>
<!-- Node1&#45;&gt;Node45 -->
<g id="edge62" class="edge">
<title>Node1&#45;&gt;Node45</title>
<path fill="none" stroke="midnightblue" d="M539.68,-715.45C566.44,-706.47 609.91,-691.89 640.05,-681.78"/>
<polygon fill="midnightblue" stroke="midnightblue" points="641.35,-685.04 649.72,-678.54 639.13,-678.4 641.35,-685.04"/>
</g>
<!-- Node3 -->
<g id="node3" class="node">
<title>Node3</title>
<g id="a_node3"><a xlink:href="../../df/d79/txmath_8h.html" target="_top" xlink:title=" ">
<polygon fill="none" stroke="black" points="349.51,-605.5 349.51,-623.5 403.86,-623.5 403.86,-605.5 349.51,-605.5"/>
<text text-anchor="middle" x="376.68" y="-611.5" font-family="Helvetica,sans-Serif" font-size="10.00">txmath.h</text>
</a>
</g>
</g>
<!-- Node2&#45;&gt;Node3 -->
<g id="edge2" class="edge">
<title>Node2&#45;&gt;Node3</title>
<path fill="none" stroke="midnightblue" d="M376.68,-660.22C376.68,-653.18 376.68,-642.81 376.68,-633.83"/>
<polygon fill="midnightblue" stroke="midnightblue" points="380.18,-633.55 376.68,-623.55 373.18,-633.55 380.18,-633.55"/>
</g>
<!-- Node27 -->
<g id="node27" class="node">
<title>Node27</title>
<g id="a_node27"><a xlink:title=" ">
<polygon fill="none" stroke="#bfbfbf" points="118.51,-550.5 118.51,-568.5 172.86,-568.5 172.86,-550.5 118.51,-550.5"/>
<text text-anchor="middle" x="145.68" y="-556.5" font-family="Helvetica,sans-Serif" font-size="10.00">iostream</text>
</a>
</g>
</g>
<!-- Node2&#45;&gt;Node27 -->
<g id="edge29" class="edge">
<title>Node2&#45;&gt;Node27</title>
<path fill="none" stroke="midnightblue" d="M346.47,-668.49C305.98,-667.02 233.56,-659.18 184.68,-624 168.8,-612.57 158.07,-592.47 151.95,-577.94"/>
<polygon fill="midnightblue" stroke="midnightblue" points="155.18,-576.61 148.3,-568.55 148.66,-579.14 155.18,-576.61"/>
</g>
<!-- Node4 -->
<g id="node4" class="node">
<title>Node4</title>
<g id="a_node4"><a xlink:href="../../d9/d1c/_xml_8h.html" target="_top" xlink:title=" ">
<polygon fill="none" stroke="black" points="361.46,-550.5 361.46,-568.5 431.91,-568.5 431.91,-550.5 361.46,-550.5"/>
<text text-anchor="middle" x="396.68" y="-556.5" font-family="Helvetica,sans-Serif" font-size="10.00">tralics/Xml.h</text>
</a>
</g>
</g>
<!-- Node3&#45;&gt;Node4 -->
<g id="edge3" class="edge">
<title>Node3&#45;&gt;Node4</title>
<path fill="none" stroke="midnightblue" d="M379.81,-605.22C382.56,-597.94 386.64,-587.11 390.11,-577.93"/>
<polygon fill="midnightblue" stroke="midnightblue" points="393.39,-579.14 393.65,-568.55 386.84,-576.67 393.39,-579.14"/>
</g>
<!-- Node5 -->
<g id="node5" class="node">
<title>Node5</title>
<g id="a_node5"><a xlink:href="../../dc/def/txstring_8h.html" target="_top" xlink:title=" ">
<polygon fill="none" stroke="black" points="443.23,-495.5 443.23,-513.5 508.14,-513.5 508.14,-495.5 443.23,-495.5"/>
<text text-anchor="middle" x="475.68" y="-501.5" font-family="Helvetica,sans-Serif" font-size="10.00">../txstring.h</text>
</a>
</g>
</g>
<!-- Node4&#45;&gt;Node5 -->
<g id="edge4" class="edge">
<title>Node4&#45;&gt;Node5</title>
<path fill="none" stroke="midnightblue" d="M408.68,-550.45C420.98,-542.2 440.33,-529.22 455.09,-519.32"/>
<polygon fill="midnightblue" stroke="midnightblue" points="457.22,-522.1 463.57,-513.63 453.32,-516.29 457.22,-522.1"/>
</g>
<!-- Node6 -->
<g id="node6" class="node">
<title>Node6</title>
<g id="a_node6"><a xlink:href="../../d7/d1b/_buffer_8h.html" target="_top" xlink:title=" ">
<polygon fill="none" stroke="black" points="439.09,-440.5 439.09,-458.5 518.28,-458.5 518.28,-440.5 439.09,-440.5"/>
<text text-anchor="middle" x="478.68" y="-446.5" font-family="Helvetica,sans-Serif" font-size="10.00">tralics/Buffer.h</text>
</a>
</g>
</g>
<!-- Node5&#45;&gt;Node6 -->
<g id="edge5" class="edge">
<title>Node5&#45;&gt;Node6</title>
<path fill="none" stroke="midnightblue" d="M476.15,-495.22C476.55,-488.18 477.14,-477.81 477.65,-468.83"/>
<polygon fill="midnightblue" stroke="midnightblue" points="481.16,-468.73 478.23,-458.55 474.17,-468.34 481.16,-468.73"/>
</g>
<!-- Node7 -->
<g id="node7" class="node">
<title>Node7</title>
<g id="a_node7"><a xlink:href="../../d1/d9e/txid_8h.html" target="_top" xlink:title=" ">
<polygon fill="none" stroke="black" points="496.57,-330.5 496.57,-348.5 544.8,-348.5 544.8,-330.5 496.57,-330.5"/>
<text text-anchor="middle" x="520.68" y="-336.5" font-family="Helvetica,sans-Serif" font-size="10.00">../txid.h</text>
</a>
</g>
</g>
<!-- Node6&#45;&gt;Node7 -->
<g id="edge6" class="edge">
<title>Node6&#45;&gt;Node7</title>
<path fill="none" stroke="midnightblue" d="M481.09,-440.16C484.7,-427.92 491.93,-404.41 499.68,-385 503.34,-375.85 507.96,-365.92 511.94,-357.76"/>
<polygon fill="midnightblue" stroke="midnightblue" points="515.19,-359.08 516.51,-348.57 508.92,-355.96 515.19,-359.08"/>
</g>
<!-- Node17 -->
<g id="node17" class="node">
<title>Node17</title>
<g id="a_node17"><a xlink:href="../../d9/d18/txscaled_8h.html" target="_top" xlink:title=" ">
<polygon fill="none" stroke="black" points="383,-385.5 383,-403.5 452.36,-403.5 452.36,-385.5 383,-385.5"/>
<text text-anchor="middle" x="417.68" y="-391.5" font-family="Helvetica,sans-Serif" font-size="10.00">../txscaled.h</text>
</a>
</g>
</g>
<!-- Node6&#45;&gt;Node17 -->
<g id="edge16" class="edge">
<title>Node6&#45;&gt;Node17</title>
<path fill="none" stroke="midnightblue" d="M469.42,-440.45C460.28,-432.51 446.1,-420.19 434.89,-410.45"/>
<polygon fill="midnightblue" stroke="midnightblue" points="436.88,-407.54 427.04,-403.63 432.29,-412.83 436.88,-407.54"/>
</g>
<!-- Node25 -->
<g id="node25" class="node">
<title>Node25</title>
<g id="a_node25"><a xlink:title=" ">
<polygon fill="none" stroke="#bfbfbf" points="508.96,-385.5 508.96,-403.5 554.41,-403.5 554.41,-385.5 508.96,-385.5"/>
<text text-anchor="middle" x="531.68" y="-391.5" font-family="Helvetica,sans-Serif" font-size="10.00">cstring</text>
</a>
</g>
</g>
<!-- Node6&#45;&gt;Node25 -->
<g id="edge27" class="edge">
<title>Node6&#45;&gt;Node25</title>
<path fill="none" stroke="midnightblue" d="M486.97,-440.22C494.79,-432.39 506.72,-420.46 516.29,-410.89"/>
<polygon fill="midnightblue" stroke="midnightblue" points="519.04,-413.1 523.64,-403.55 514.09,-408.15 519.04,-413.1"/>
</g>
<!-- Node26 -->
<g id="node26" class="node">
<title>Node26</title>
<g id="a_node26"><a xlink:title=" ">
<polygon fill="none" stroke="#bfbfbf" points="692.07,-385.5 692.07,-403.5 735.3,-403.5 735.3,-385.5 692.07,-385.5"/>
<text text-anchor="middle" x="713.68" y="-391.5" font-family="Helvetica,sans-Serif" font-size="10.00">vector</text>
</a>
</g>
</g>
<!-- Node6&#45;&gt;Node26 -->
<g id="edge28" class="edge">
<title>Node6&#45;&gt;Node26</title>
<path fill="none" stroke="midnightblue" d="M514.38,-440.45C560.02,-430.16 638.37,-412.49 682,-402.65"/>
<polygon fill="midnightblue" stroke="midnightblue" points="682.8,-406.05 691.79,-400.44 681.26,-399.22 682.8,-406.05"/>
</g>
<!-- Node8 -->
<g id="node8" class="node">
<title>Node8</title>
<g id="a_node8"><a xlink:href="../../d5/daf/_istring_8h.html" target="_top" xlink:title=" ">
<polygon fill="none" stroke="black" points="490.45,-275.5 490.45,-293.5 570.92,-293.5 570.92,-275.5 490.45,-275.5"/>
<text text-anchor="middle" x="530.68" y="-281.5" font-family="Helvetica,sans-Serif" font-size="10.00">tralics/Istring.h</text>
</a>
</g>
</g>
<!-- Node7&#45;&gt;Node8 -->
<g id="edge7" class="edge">
<title>Node7&#45;&gt;Node8</title>
<path fill="none" stroke="midnightblue" d="M522.25,-330.22C523.59,-323.1 525.58,-312.58 527.28,-303.53"/>
<polygon fill="midnightblue" stroke="midnightblue" points="530.75,-304.03 529.17,-293.55 523.87,-302.73 530.75,-304.03"/>
</g>
<!-- Node9 -->
<g id="node9" class="node">
<title>Node9</title>
<g id="a_node9"><a xlink:href="../../d0/d0b/enums_8h.html" target="_top" xlink:title=" ">
<polygon fill="none" stroke="black" points="546.51,-165.5 546.51,-183.5 600.86,-183.5 600.86,-165.5 546.51,-165.5"/>
<text text-anchor="middle" x="573.68" y="-171.5" font-family="Helvetica,sans-Serif" font-size="10.00">enums.h</text>
</a>
</g>
</g>
<!-- Node8&#45;&gt;Node9 -->
<g id="edge8" class="edge">
<title>Node8&#45;&gt;Node9</title>
<path fill="none" stroke="midnightblue" d="M536.93,-275.42C543.28,-266.84 552.97,-252.64 558.68,-239 564.85,-224.29 568.77,-206.56 571.05,-193.58"/>
<polygon fill="midnightblue" stroke="midnightblue" points="574.52,-194.01 572.65,-183.58 567.61,-192.91 574.52,-194.01"/>
</g>
<!-- Node15 -->
<g id="node15" class="node">
<title>Node15</title>
<g id="a_node15"><a xlink:title=" ">
<polygon fill="none" stroke="#bfbfbf" points="511.29,-220.5 511.29,-238.5 550.08,-238.5 550.08,-220.5 511.29,-220.5"/>
<text text-anchor="middle" x="530.68" y="-226.5" font-family="Helvetica,sans-Serif" font-size="10.00">array</text>
</a>
</g>
</g>
<!-- Node8&#45;&gt;Node15 -->
<g id="edge14" class="edge">
<title>Node8&#45;&gt;Node15</title>
<path fill="none" stroke="midnightblue" d="M530.68,-275.22C530.68,-268.18 530.68,-257.81 530.68,-248.83"/>
<polygon fill="midnightblue" stroke="midnightblue" points="534.18,-248.55 530.68,-238.55 527.18,-248.55 534.18,-248.55"/>
</g>
<!-- Node16 -->
<g id="node16" class="node">
<title>Node16</title>
<g id="a_node16"><a xlink:title=" ">
<polygon fill="none" stroke="#bfbfbf" points="620.46,-220.5 620.46,-238.5 660.91,-238.5 660.91,-220.5 620.46,-220.5"/>
<text text-anchor="middle" x="640.68" y="-226.5" font-family="Helvetica,sans-Serif" font-size="10.00">string</text>
</a>
</g>
</g>
<!-- Node8&#45;&gt;Node16 -->
<g id="edge15" class="edge">
<title>Node8&#45;&gt;Node16</title>
<path fill="none" stroke="midnightblue" d="M547.39,-275.45C565.24,-266.85 593.77,-253.1 614.58,-243.08"/>
<polygon fill="midnightblue" stroke="midnightblue" points="616.33,-246.12 623.82,-238.63 613.29,-239.81 616.33,-246.12"/>
</g>
<!-- Node10 -->
<g id="node10" class="node">
<title>Node10</title>
<g id="a_node10"><a xlink:href="../../d8/db5/consts_8h.html" target="_top" xlink:title=" ">
<polygon fill="none" stroke="black" points="544.06,-110.5 544.06,-128.5 597.31,-128.5 597.31,-110.5 544.06,-110.5"/>
<text text-anchor="middle" x="570.68" y="-116.5" font-family="Helvetica,sans-Serif" font-size="10.00">consts.h</text>
</a>
</g>
</g>
<!-- Node9&#45;&gt;Node10 -->
<g id="edge9" class="edge">
<title>Node9&#45;&gt;Node10</title>
<path fill="none" stroke="midnightblue" d="M573.22,-165.22C572.82,-158.18 572.23,-147.81 571.72,-138.83"/>
<polygon fill="midnightblue" stroke="midnightblue" points="575.2,-138.34 571.14,-128.55 568.21,-138.73 575.2,-138.34"/>
</g>
<!-- Node11 -->
<g id="node11" class="node">
<title>Node11</title>
<g id="a_node11"><a xlink:href="../../d9/d49/types_8h.html" target="_top" xlink:title=" ">
<polygon fill="none" stroke="black" points="515.56,-55.5 515.56,-73.5 563.81,-73.5 563.81,-55.5 515.56,-55.5"/>
<text text-anchor="middle" x="539.68" y="-61.5" font-family="Helvetica,sans-Serif" font-size="10.00">types.h</text>
</a>
</g>
</g>
<!-- Node10&#45;&gt;Node11 -->
<g id="edge10" class="edge">
<title>Node10&#45;&gt;Node11</title>
<path fill="none" stroke="midnightblue" d="M565.84,-110.22C561.49,-102.79 554.98,-91.65 549.54,-82.34"/>
<polygon fill="midnightblue" stroke="midnightblue" points="552.46,-80.41 544.39,-73.55 546.42,-83.95 552.46,-80.41"/>
</g>
<!-- Node12 -->
<g id="node12" class="node">
<title>Node12</title>
<g id="a_node12"><a xlink:title=" ">
<polygon fill="none" stroke="#bfbfbf" points="449.57,-0.5 449.57,-18.5 497.8,-18.5 497.8,-0.5 449.57,-0.5"/>
<text text-anchor="middle" x="473.68" y="-6.5" font-family="Helvetica,sans-Serif" font-size="10.00">cassert</text>
</a>
</g>
</g>
<!-- Node11&#45;&gt;Node12 -->
<g id="edge11" class="edge">
<title>Node11&#45;&gt;Node12</title>
<path fill="none" stroke="midnightblue" d="M529.66,-55.45C519.68,-47.43 504.13,-34.95 491.95,-25.17"/>
<polygon fill="midnightblue" stroke="midnightblue" points="493.79,-22.16 483.8,-18.63 489.41,-27.62 493.79,-22.16"/>
</g>
<!-- Node13 -->
<g id="node13" class="node">
<title>Node13</title>
<g id="a_node13"><a xlink:title=" ">
<polygon fill="none" stroke="#bfbfbf" points="515.56,-0.5 515.56,-18.5 563.81,-18.5 563.81,-0.5 515.56,-0.5"/>
<text text-anchor="middle" x="539.68" y="-6.5" font-family="Helvetica,sans-Serif" font-size="10.00">cstddef</text>
</a>
</g>
</g>
<!-- Node11&#45;&gt;Node13 -->
<g id="edge12" class="edge">
<title>Node11&#45;&gt;Node13</title>
<path fill="none" stroke="midnightblue" d="M539.68,-55.22C539.68,-48.18 539.68,-37.81 539.68,-28.83"/>
<polygon fill="midnightblue" stroke="midnightblue" points="543.18,-28.55 539.68,-18.55 536.18,-28.55 543.18,-28.55"/>
</g>
<!-- Node14 -->
<g id="node14" class="node">
<title>Node14</title>
<g id="a_node14"><a xlink:title=" ">
<polygon fill="none" stroke="#bfbfbf" points="581.62,-0.5 581.62,-18.5 643.75,-18.5 643.75,-0.5 581.62,-0.5"/>
<text text-anchor="middle" x="612.68" y="-6.5" font-family="Helvetica,sans-Serif" font-size="10.00">type_traits</text>
</a>
</g>
</g>
<!-- Node11&#45;&gt;Node14 -->
<g id="edge13" class="edge">
<title>Node11&#45;&gt;Node14</title>
<path fill="none" stroke="midnightblue" d="M550.77,-55.45C562.03,-47.28 579.68,-34.46 593.26,-24.6"/>
<polygon fill="midnightblue" stroke="midnightblue" points="595.46,-27.33 601.49,-18.63 591.34,-21.67 595.46,-27.33"/>
</g>
<!-- Node18 -->
<g id="node18" class="node">
<title>Node18</title>
<g id="a_node18"><a xlink:href="../../dc/d91/txtokenlist_8h.html" target="_top" xlink:title=" ">
<polygon fill="none" stroke="black" points="404.28,-330.5 404.28,-348.5 473.09,-348.5 473.09,-330.5 404.28,-330.5"/>
<text text-anchor="middle" x="438.68" y="-336.5" font-family="Helvetica,sans-Serif" font-size="10.00">txtokenlist.h</text>
</a>
</g>
</g>
<!-- Node17&#45;&gt;Node18 -->
<g id="edge17" class="edge">
<title>Node17&#45;&gt;Node18</title>
<path fill="none" stroke="midnightblue" d="M420.97,-385.22C423.85,-377.94 428.14,-367.11 431.78,-357.93"/>
<polygon fill="midnightblue" stroke="midnightblue" points="435.07,-359.14 435.5,-348.55 428.56,-356.56 435.07,-359.14"/>
</g>
<!-- Node18&#45;&gt;Node8 -->
<g id="edge18" class="edge">
<title>Node18&#45;&gt;Node8</title>
<path fill="none" stroke="midnightblue" d="M452.66,-330.45C467.25,-322.05 490.37,-308.72 507.66,-298.76"/>
<polygon fill="midnightblue" stroke="midnightblue" points="509.66,-301.65 516.58,-293.63 506.17,-295.58 509.66,-301.65"/>
</g>
<!-- Node19 -->
<g id="node19" class="node">
<title>Node19</title>
<g id="a_node19"><a xlink:href="../../dd/dcd/_token_8h.html" target="_top" xlink:title=" ">
<polygon fill="none" stroke="black" points="392.73,-275.5 392.73,-293.5 472.64,-293.5 472.64,-275.5 392.73,-275.5"/>
<text text-anchor="middle" x="432.68" y="-281.5" font-family="Helvetica,sans-Serif" font-size="10.00">tralics/Token.h</text>
</a>
</g>
</g>
<!-- Node18&#45;&gt;Node19 -->
<g id="edge19" class="edge">
<title>Node18&#45;&gt;Node19</title>
<path fill="none" stroke="midnightblue" d="M437.75,-330.22C436.94,-323.1 435.75,-312.58 434.73,-303.53"/>
<polygon fill="midnightblue" stroke="midnightblue" points="438.2,-303.09 433.6,-293.55 431.24,-303.88 438.2,-303.09"/>
</g>
<!-- Node24 -->
<g id="node24" class="node">
<title>Node24</title>
<g id="a_node24"><a xlink:title=" ">
<polygon fill="none" stroke="#bfbfbf" points="589.29,-275.5 589.29,-293.5 628.08,-293.5 628.08,-275.5 589.29,-275.5"/>
<text text-anchor="middle" x="608.68" y="-281.5" font-family="Helvetica,sans-Serif" font-size="10.00">utility</text>
</a>
</g>
</g>
<!-- Node18&#45;&gt;Node24 -->
<g id="edge26" class="edge">
<title>Node18&#45;&gt;Node24</title>
<path fill="none" stroke="midnightblue" d="M464.5,-330.45C495.35,-320.83 546.83,-304.78 579.21,-294.69"/>
<polygon fill="midnightblue" stroke="midnightblue" points="580.49,-297.96 589,-291.64 578.41,-291.27 580.49,-297.96"/>
</g>
<!-- Node20 -->
<g id="node20" class="node">
<title>Node20</title>
<g id="a_node20"><a xlink:href="../../d2/d68/_cmd_chr_8h.html" target="_top" xlink:title=" ">
<polygon fill="none" stroke="black" points="385.17,-220.5 385.17,-238.5 446.19,-238.5 446.19,-220.5 385.17,-220.5"/>
<text text-anchor="middle" x="415.68" y="-226.5" font-family="Helvetica,sans-Serif" font-size="10.00">CmdChr.h</text>
</a>
</g>
</g>
<!-- Node19&#45;&gt;Node20 -->
<g id="edge20" class="edge">
<title>Node19&#45;&gt;Node20</title>
<path fill="none" stroke="midnightblue" d="M430.03,-275.22C427.72,-268.02 424.3,-257.35 421.37,-248.23"/>
<polygon fill="midnightblue" stroke="midnightblue" points="424.65,-247 418.27,-238.55 417.99,-249.14 424.65,-247"/>
</g>
<!-- Node23 -->
<g id="node23" class="node">
<title>Node23</title>
<g id="a_node23"><a xlink:title=" ">
<polygon fill="none" stroke="#bfbfbf" points="464.18,-220.5 464.18,-238.5 493.18,-238.5 493.18,-220.5 464.18,-220.5"/>
<text text-anchor="middle" x="478.3" y="-226.5" font-family="Helvetica,sans-Serif" font-size="10.00">list</text>
</a>
</g>
</g>
<!-- Node19&#45;&gt;Node23 -->
<g id="edge25" class="edge">
<title>Node19&#45;&gt;Node23</title>
<path fill="none" stroke="midnightblue" d="M439.87,-275.22C446.6,-267.47 456.81,-255.7 465.08,-246.18"/>
<polygon fill="midnightblue" stroke="midnightblue" points="467.79,-248.4 471.7,-238.55 462.5,-243.81 467.79,-248.4"/>
</g>
<!-- Node20&#45;&gt;Node9 -->
<g id="edge24" class="edge">
<title>Node20&#45;&gt;Node9</title>
<path fill="none" stroke="midnightblue" d="M439.68,-220.45C466.44,-211.47 509.91,-196.89 540.05,-186.78"/>
<polygon fill="midnightblue" stroke="midnightblue" points="541.35,-190.04 549.72,-183.54 539.13,-183.4 541.35,-190.04"/>
</g>
<!-- Node21 -->
<g id="node21" class="node">
<title>Node21</title>
<g id="a_node21"><a xlink:href="../../d8/d47/codepoint_8h.html" target="_top" xlink:title=" ">
<polygon fill="none" stroke="black" points="407.83,-165.5 407.83,-183.5 475.54,-183.5 475.54,-165.5 407.83,-165.5"/>
<text text-anchor="middle" x="441.68" y="-171.5" font-family="Helvetica,sans-Serif" font-size="10.00">codepoint.h</text>
</a>
</g>
</g>
<!-- Node20&#45;&gt;Node21 -->
<g id="edge21" class="edge">
<title>Node20&#45;&gt;Node21</title>
<path fill="none" stroke="midnightblue" d="M419.75,-220.22C423.36,-212.86 428.74,-201.88 433.28,-192.64"/>
<polygon fill="midnightblue" stroke="midnightblue" points="436.47,-194.07 437.74,-183.55 430.19,-190.99 436.47,-194.07"/>
</g>
<!-- Node21&#45;&gt;Node11 -->
<g id="edge22" class="edge">
<title>Node21&#45;&gt;Node11</title>
<path fill="none" stroke="midnightblue" d="M449.05,-165.38C465.23,-147.56 504.09,-104.72 525.3,-81.36"/>
<polygon fill="midnightblue" stroke="midnightblue" points="528.11,-83.47 532.23,-73.71 522.92,-78.77 528.11,-83.47"/>
</g>
<!-- Node22 -->
<g id="node22" class="node">
<title>Node22</title>
<g id="a_node22"><a xlink:title=" ">
<polygon fill="none" stroke="#bfbfbf" points="416.17,-110.5 416.17,-128.5 467.2,-128.5 467.2,-110.5 416.17,-110.5"/>
<text text-anchor="middle" x="441.68" y="-116.5" font-family="Helvetica,sans-Serif" font-size="10.00">optional</text>
</a>
</g>
</g>
<!-- Node21&#45;&gt;Node22 -->
<g id="edge23" class="edge">
<title>Node21&#45;&gt;Node22</title>
<path fill="none" stroke="midnightblue" d="M441.68,-165.22C441.68,-158.18 441.68,-147.81 441.68,-138.83"/>
<polygon fill="midnightblue" stroke="midnightblue" points="445.18,-138.55 441.68,-128.55 438.18,-138.55 445.18,-138.55"/>
</g>
<!-- Node29 -->
<g id="node29" class="node">
<title>Node29</title>
<g id="a_node29"><a xlink:href="../../d4/de9/_main_class_8h.html" target="_top" xlink:title=" ">
<polygon fill="none" stroke="black" points="193.73,-605.5 193.73,-623.5 293.64,-623.5 293.64,-605.5 193.73,-605.5"/>
<text text-anchor="middle" x="243.68" y="-611.5" font-family="Helvetica,sans-Serif" font-size="10.00">tralics/MainClass.h</text>
</a>
</g>
</g>
<!-- Node28&#45;&gt;Node29 -->
<g id="edge31" class="edge">
<title>Node28&#45;&gt;Node29</title>
<path fill="none" stroke="midnightblue" d="M186.01,-660.45C196.4,-652.36 212.63,-639.7 225.23,-629.88"/>
<polygon fill="midnightblue" stroke="midnightblue" points="227.52,-632.53 233.26,-623.63 223.22,-627.01 227.52,-632.53"/>
</g>
<!-- Node32 -->
<g id="node32" class="node">
<title>Node32</title>
<g id="a_node32"><a xlink:href="../../d2/d06/txlogger_8h.html" target="_top" xlink:title=" ">
<polygon fill="none" stroke="black" points="0,-605.5 0,-623.5 59.37,-623.5 59.37,-605.5 0,-605.5"/>
<text text-anchor="middle" x="29.68" y="-611.5" font-family="Helvetica,sans-Serif" font-size="10.00">txlogger.h</text>
</a>
</g>
</g>
<!-- Node28&#45;&gt;Node32 -->
<g id="edge36" class="edge">
<title>Node28&#45;&gt;Node32</title>
<path fill="none" stroke="midnightblue" d="M153.51,-660.45C129.07,-651.58 89.54,-637.23 61.73,-627.13"/>
<polygon fill="midnightblue" stroke="midnightblue" points="62.66,-623.75 52.07,-623.63 60.27,-630.33 62.66,-623.75"/>
</g>
<!-- Node33 -->
<g id="node33" class="node">
<title>Node33</title>
<g id="a_node33"><a xlink:href="../../d5/d08/txparam_8h.html" target="_top" xlink:title=" ">
<polygon fill="none" stroke="black" points="77.45,-605.5 77.45,-623.5 137.92,-623.5 137.92,-605.5 77.45,-605.5"/>
<text text-anchor="middle" x="107.68" y="-611.5" font-family="Helvetica,sans-Serif" font-size="10.00">txparam.h</text>
</a>
</g>
</g>
<!-- Node28&#45;&gt;Node33 -->
<g id="edge39" class="edge">
<title>Node28&#45;&gt;Node33</title>
<path fill="none" stroke="midnightblue" d="M165.36,-660.45C154.97,-652.36 138.74,-639.7 126.14,-629.88"/>
<polygon fill="midnightblue" stroke="midnightblue" points="128.15,-627.01 118.11,-623.63 123.85,-632.53 128.15,-627.01"/>
</g>
<!-- Node29&#45;&gt;Node5 -->
<g id="edge35" class="edge">
<title>Node29&#45;&gt;Node5</title>
<path fill="none" stroke="midnightblue" d="M256.04,-605.31C275.84,-592.4 316.18,-567.07 352.68,-550 381.07,-536.73 414.59,-524.84 439.47,-516.69"/>
<polygon fill="midnightblue" stroke="midnightblue" points="440.78,-519.95 449.22,-513.54 438.63,-513.28 440.78,-519.95"/>
</g>
<!-- Node30 -->
<g id="node30" class="node">
<title>Node30</title>
<g id="a_node30"><a xlink:href="../../de/d29/txio_8h.html" target="_top" xlink:title=" ">
<polygon fill="none" stroke="black" points="219.57,-550.5 219.57,-568.5 267.8,-568.5 267.8,-550.5 219.57,-550.5"/>
<text text-anchor="middle" x="243.68" y="-556.5" font-family="Helvetica,sans-Serif" font-size="10.00">../txio.h</text>
</a>
</g>
</g>
<!-- Node29&#45;&gt;Node30 -->
<g id="edge32" class="edge">
<title>Node29&#45;&gt;Node30</title>
<path fill="none" stroke="midnightblue" d="M243.68,-605.22C243.68,-598.18 243.68,-587.81 243.68,-578.83"/>
<polygon fill="midnightblue" stroke="midnightblue" points="247.18,-578.55 243.68,-568.55 240.18,-578.55 247.18,-578.55"/>
</g>
<!-- Node30&#45;&gt;Node6 -->
<g id="edge33" class="edge">
<title>Node30&#45;&gt;Node6</title>
<path fill="none" stroke="midnightblue" d="M252.53,-550.31C267.4,-536.96 298.8,-510.42 329.68,-495 361.26,-479.23 399.44,-467.97 429.24,-460.71"/>
<polygon fill="midnightblue" stroke="midnightblue" points="430.08,-464.11 439.01,-458.41 428.47,-457.3 430.08,-464.11"/>
</g>
<!-- Node31 -->
<g id="node31" class="node">
<title>Node31</title>
<g id="a_node31"><a xlink:title=" ">
<polygon fill="none" stroke="#bfbfbf" points="123.01,-495.5 123.01,-513.5 172.35,-513.5 172.35,-495.5 123.01,-495.5"/>
<text text-anchor="middle" x="147.68" y="-501.5" font-family="Helvetica,sans-Serif" font-size="10.00">fstream</text>
</a>
</g>
</g>
<!-- Node30&#45;&gt;Node31 -->
<g id="edge34" class="edge">
<title>Node30&#45;&gt;Node31</title>
<path fill="none" stroke="midnightblue" d="M229.1,-550.45C213.74,-541.97 189.3,-528.48 171.21,-518.49"/>
<polygon fill="midnightblue" stroke="midnightblue" points="172.85,-515.39 162.4,-513.63 169.46,-521.52 172.85,-515.39"/>
</g>
<!-- Node32&#45;&gt;Node27 -->
<g id="edge38" class="edge">
<title>Node32&#45;&gt;Node27</title>
<path fill="none" stroke="midnightblue" d="M47.3,-605.45C66.29,-596.77 96.76,-582.86 118.75,-572.8"/>
<polygon fill="midnightblue" stroke="midnightblue" points="120.26,-575.96 127.9,-568.63 117.35,-569.6 120.26,-575.96"/>
</g>
<!-- Node32&#45;&gt;Node31 -->
<g id="edge37" class="edge">
<title>Node32&#45;&gt;Node31</title>
<path fill="none" stroke="midnightblue" d="M38.55,-605.38C58.2,-587.4 105.65,-543.97 131.03,-520.75"/>
<polygon fill="midnightblue" stroke="midnightblue" points="133.7,-523.05 138.71,-513.71 128.97,-517.88 133.7,-523.05"/>
</g>
<!-- Node33&#45;&gt;Node30 -->
<g id="edge40" class="edge">
<title>Node33&#45;&gt;Node30</title>
<path fill="none" stroke="midnightblue" d="M128.34,-605.45C151.01,-596.62 187.6,-582.35 213.49,-572.27"/>
<polygon fill="midnightblue" stroke="midnightblue" points="214.79,-575.52 222.83,-568.63 212.25,-569 214.79,-575.52"/>
</g>
<!-- Node34&#45;&gt;Node30 -->
<g id="edge55" class="edge">
<title>Node34&#45;&gt;Node30</title>
<path fill="none" stroke="midnightblue" d="M485.59,-663.96C449.91,-657.89 389.18,-645.33 340.68,-624 310.94,-610.92 280.14,-589.08 261.44,-574.74"/>
<polygon fill="midnightblue" stroke="midnightblue" points="263.55,-571.95 253.52,-568.55 259.24,-577.46 263.55,-571.95"/>
</g>
<!-- Node35 -->
<g id="node35" class="node">
<title>Node35</title>
<g id="a_node35"><a xlink:href="../../d8/dd6/_e_q_t_b_8h.html" target="_top" xlink:title=" ">
<polygon fill="none" stroke="black" points="338.46,-495.5 338.46,-513.5 418.91,-513.5 418.91,-495.5 338.46,-495.5"/>
<text text-anchor="middle" x="378.68" y="-501.5" font-family="Helvetica,sans-Serif" font-size="10.00">tralics/EQTB.h</text>
</a>
</g>
</g>
<!-- Node34&#45;&gt;Node35 -->
<g id="edge42" class="edge">
<title>Node34&#45;&gt;Node35</title>
<path fill="none" stroke="midnightblue" d="M502.71,-660.43C483.21,-648.32 445.17,-624.76 412.68,-605 386.11,-588.84 368.01,-596.06 352.68,-569 343.92,-553.52 354.22,-534.5 364.33,-521.33"/>
<polygon fill="midnightblue" stroke="midnightblue" points="367.04,-523.55 370.75,-513.62 361.66,-519.07 367.04,-523.55"/>
</g>
<!-- Node36 -->
<g id="node36" class="node">
<title>Node36</title>
<g id="a_node36"><a xlink:href="../../d3/d6b/txcond_8h.html" target="_top" xlink:title=" ">
<polygon fill="none" stroke="black" points="736.78,-440.5 736.78,-458.5 790.59,-458.5 790.59,-440.5 736.78,-440.5"/>
<text text-anchor="middle" x="763.68" y="-446.5" font-family="Helvetica,sans-Serif" font-size="10.00">txcond.h</text>
</a>
</g>
</g>
<!-- Node34&#45;&gt;Node36 -->
<g id="edge44" class="edge">
<title>Node34&#45;&gt;Node36</title>
<path fill="none" stroke="midnightblue" d="M545.9,-661.81C548.86,-661.18 551.83,-660.57 554.68,-660 598.32,-651.26 722.02,-657.18 751.68,-624 790.73,-580.33 777.49,-503.21 768.78,-468.41"/>
<polygon fill="midnightblue" stroke="midnightblue" points="772.15,-467.46 766.19,-458.7 765.39,-469.27 772.15,-467.46"/>
</g>
<!-- Node37 -->
<g id="node37" class="node">
<title>Node37</title>
<g id="a_node37"><a xlink:href="../../d7/d4d/txfonts_8h.html" target="_top" xlink:title=" ">
<polygon fill="none" stroke="black" points="511.79,-550.5 511.79,-568.5 565.58,-568.5 565.58,-550.5 511.79,-550.5"/>
<text text-anchor="middle" x="538.68" y="-556.5" font-family="Helvetica,sans-Serif" font-size="10.00">txfonts.h</text>
</a>
</g>
</g>
<!-- Node34&#45;&gt;Node37 -->
<g id="edge47" class="edge">
<title>Node34&#45;&gt;Node37</title>
<path fill="none" stroke="midnightblue" d="M517.41,-660.38C521.09,-643.1 529.78,-602.33 534.84,-578.56"/>
<polygon fill="midnightblue" stroke="midnightblue" points="538.28,-579.22 536.94,-568.71 531.43,-577.76 538.28,-579.22"/>
</g>
<!-- Node38 -->
<g id="node38" class="node">
<title>Node38</title>
<g id="a_node38"><a xlink:href="../../d7/d7e/txhash_8h.html" target="_top" xlink:title=" ">
<polygon fill="none" stroke="black" points="576.78,-605.5 576.78,-623.5 630.59,-623.5 630.59,-605.5 576.78,-605.5"/>
<text text-anchor="middle" x="603.68" y="-611.5" font-family="Helvetica,sans-Serif" font-size="10.00">txhash.h</text>
</a>
</g>
</g>
<!-- Node34&#45;&gt;Node38 -->
<g id="edge49" class="edge">
<title>Node34&#45;&gt;Node38</title>
<path fill="none" stroke="midnightblue" d="M529.05,-660.45C542.88,-652.12 564.71,-638.97 581.2,-629.04"/>
<polygon fill="midnightblue" stroke="midnightblue" points="583.43,-631.78 590.19,-623.63 579.82,-625.79 583.43,-631.78"/>
</g>
<!-- Node40 -->
<g id="node40" class="node">
<title>Node40</title>
<g id="a_node40"><a xlink:href="../../de/d7c/tximage_8h.html" target="_top" xlink:title=" ">
<polygon fill="none" stroke="black" points="626.01,-330.5 626.01,-348.5 685.36,-348.5 685.36,-330.5 626.01,-330.5"/>
<text text-anchor="middle" x="655.68" y="-336.5" font-family="Helvetica,sans-Serif" font-size="10.00">tximage.h</text>
</a>
</g>
</g>
<!-- Node34&#45;&gt;Node40 -->
<g id="edge52" class="edge">
<title>Node34&#45;&gt;Node40</title>
<path fill="none" stroke="midnightblue" d="M545.7,-661.34C578.23,-652.98 627.19,-638.45 639.68,-624 674.84,-583.36 663.68,-559.24 663.68,-505.5 663.68,-505.5 663.68,-505.5 663.68,-448.5 663.68,-416.79 660.21,-379.97 657.84,-358.55"/>
<polygon fill="midnightblue" stroke="midnightblue" points="661.32,-358.15 656.7,-348.61 654.36,-358.95 661.32,-358.15"/>
</g>
<!-- Node41 -->
<g id="node41" class="node">
<title>Node41</title>
<g id="a_node41"><a xlink:href="../../dc/d65/txstack_8h.html" target="_top" xlink:title=" ">
<polygon fill="none" stroke="black" points="459.96,-605.5 459.96,-623.5 515.41,-623.5 515.41,-605.5 459.96,-605.5"/>
<text text-anchor="middle" x="487.68" y="-611.5" font-family="Helvetica,sans-Serif" font-size="10.00">txstack.h</text>
</a>
</g>
</g>
<!-- Node34&#45;&gt;Node41 -->
<g id="edge56" class="edge">
<title>Node34&#45;&gt;Node41</title>
<path fill="none" stroke="midnightblue" d="M511.31,-660.22C507.42,-652.86 501.62,-641.88 496.74,-632.64"/>
<polygon fill="midnightblue" stroke="midnightblue" points="499.7,-630.76 491.94,-623.55 493.51,-634.03 499.7,-630.76"/>
</g>
<!-- Node43 -->
<g id="node43" class="node">
<title>Node43</title>
<g id="a_node43"><a xlink:href="../../d8/d3d/txstats_8h.html" target="_top" xlink:title=" ">
<polygon fill="none" stroke="black" points="689.07,-605.5 689.07,-623.5 742.3,-623.5 742.3,-605.5 689.07,-605.5"/>
<text text-anchor="middle" x="715.68" y="-611.5" font-family="Helvetica,sans-Serif" font-size="10.00">txstats.h</text>
</a>
</g>
</g>
<!-- Node34&#45;&gt;Node43 -->
<g id="edge60" class="edge">
<title>Node34&#45;&gt;Node43</title>
<path fill="none" stroke="midnightblue" d="M546.06,-660.45C581.77,-650.99 641,-635.29 679.18,-625.17"/>
<polygon fill="midnightblue" stroke="midnightblue" points="680.1,-628.55 688.87,-622.6 678.31,-621.78 680.1,-628.55"/>
</g>
<!-- Node35&#45;&gt;Node17 -->
<g id="edge43" class="edge">
<title>Node35&#45;&gt;Node17</title>
<path fill="none" stroke="midnightblue" d="M381.62,-495.38C387.88,-478.03 402.71,-436.96 411.28,-413.24"/>
<polygon fill="midnightblue" stroke="midnightblue" points="414.61,-414.31 414.72,-403.71 408.03,-411.93 414.61,-414.31"/>
</g>
<!-- Node36&#45;&gt;Node9 -->
<g id="edge45" class="edge">
<title>Node36&#45;&gt;Node9</title>
<path fill="none" stroke="midnightblue" d="M763.68,-440.37C763.68,-422.38 763.68,-377.81 763.68,-340.5 763.68,-340.5 763.68,-340.5 763.68,-283.5 763.68,-213.99 666.39,-188.66 611.05,-179.87"/>
<polygon fill="midnightblue" stroke="midnightblue" points="611.31,-176.37 600.91,-178.37 610.29,-183.3 611.31,-176.37"/>
</g>
<!-- Node36&#45;&gt;Node26 -->
<g id="edge46" class="edge">
<title>Node36&#45;&gt;Node26</title>
<path fill="none" stroke="midnightblue" d="M755.87,-440.22C748.49,-432.39 737.23,-420.46 728.21,-410.89"/>
<polygon fill="midnightblue" stroke="midnightblue" points="730.69,-408.42 721.28,-403.55 725.59,-413.23 730.69,-408.42"/>
</g>
<!-- Node37&#45;&gt;Node5 -->
<g id="edge48" class="edge">
<title>Node37&#45;&gt;Node5</title>
<path fill="none" stroke="midnightblue" d="M529.12,-550.45C519.59,-542.43 504.74,-529.95 493.12,-520.17"/>
<polygon fill="midnightblue" stroke="midnightblue" points="495.25,-517.38 485.34,-513.63 490.74,-522.74 495.25,-517.38"/>
</g>
<!-- Node39 -->
<g id="node39" class="node">
<title>Node39</title>
<g id="a_node39"><a xlink:href="../../d3/d01/txeqtb_8h.html" target="_top" xlink:title=" ">
<polygon fill="none" stroke="black" points="583.89,-550.5 583.89,-568.5 635.48,-568.5 635.48,-550.5 583.89,-550.5"/>
<text text-anchor="middle" x="609.68" y="-556.5" font-family="Helvetica,sans-Serif" font-size="10.00">txeqtb.h</text>
</a>
</g>
</g>
<!-- Node38&#45;&gt;Node39 -->
<g id="edge50" class="edge">
<title>Node38&#45;&gt;Node39</title>
<path fill="none" stroke="midnightblue" d="M604.62,-605.22C605.43,-598.1 606.62,-587.58 607.64,-578.53"/>
<polygon fill="midnightblue" stroke="midnightblue" points="611.13,-578.88 608.77,-568.55 604.17,-578.09 611.13,-578.88"/>
</g>
<!-- Node39&#45;&gt;Node5 -->
<g id="edge51" class="edge">
<title>Node39&#45;&gt;Node5</title>
<path fill="none" stroke="midnightblue" d="M589.33,-550.45C567.1,-541.66 531.26,-527.48 505.77,-517.4"/>
<polygon fill="midnightblue" stroke="midnightblue" points="506.81,-514.05 496.23,-513.63 504.24,-520.56 506.81,-514.05"/>
</g>
<!-- Node40&#45;&gt;Node16 -->
<g id="edge53" class="edge">
<title>Node40&#45;&gt;Node16</title>
<path fill="none" stroke="midnightblue" d="M654.56,-330.38C652.17,-313.18 646.55,-272.7 643.24,-248.89"/>
<polygon fill="midnightblue" stroke="midnightblue" points="646.67,-248.14 641.83,-238.71 639.73,-249.1 646.67,-248.14"/>
</g>
<!-- Node40&#45;&gt;Node24 -->
<g id="edge54" class="edge">
<title>Node40&#45;&gt;Node24</title>
<path fill="none" stroke="midnightblue" d="M648.34,-330.22C641.47,-322.47 631.03,-310.7 622.59,-301.18"/>
<polygon fill="midnightblue" stroke="midnightblue" points="625.08,-298.71 615.82,-293.55 619.84,-303.35 625.08,-298.71"/>
</g>
<!-- Node41&#45;&gt;Node4 -->
<g id="edge57" class="edge">
<title>Node41&#45;&gt;Node4</title>
<path fill="none" stroke="midnightblue" d="M473.86,-605.45C459.43,-597.05 436.56,-583.72 419.45,-573.76"/>
<polygon fill="midnightblue" stroke="midnightblue" points="421.04,-570.63 410.64,-568.63 417.52,-576.68 421.04,-570.63"/>
</g>
<!-- Node42 -->
<g id="node42" class="node">
<title>Node42</title>
<g id="a_node42"><a xlink:href="../../d4/da4/txatt_8h.html" target="_top" xlink:title=" ">
<polygon fill="none" stroke="black" points="450.07,-550.5 450.07,-568.5 493.3,-568.5 493.3,-550.5 450.07,-550.5"/>
<text text-anchor="middle" x="471.68" y="-556.5" font-family="Helvetica,sans-Serif" font-size="10.00">txatt.h</text>
</a>
</g>
</g>
<!-- Node41&#45;&gt;Node42 -->
<g id="edge58" class="edge">
<title>Node41&#45;&gt;Node42</title>
<path fill="none" stroke="midnightblue" d="M485.18,-605.22C483.01,-598.02 479.79,-587.35 477.04,-578.23"/>
<polygon fill="midnightblue" stroke="midnightblue" points="480.36,-577.11 474.11,-568.55 473.65,-579.13 480.36,-577.11"/>
</g>
<!-- Node42&#45;&gt;Node5 -->
<g id="edge59" class="edge">
<title>Node42&#45;&gt;Node5</title>
<path fill="none" stroke="midnightblue" d="M472.31,-550.22C472.85,-543.1 473.64,-532.58 474.32,-523.53"/>
<polygon fill="midnightblue" stroke="midnightblue" points="477.81,-523.78 475.08,-513.55 470.83,-523.26 477.81,-523.78"/>
</g>
</g>
</svg>
