<?xml version="1.0" encoding="UTF-8" standalone="no"?>
<!DOCTYPE svg PUBLIC "-//W3C//DTD SVG 1.1//EN"
 "http://www.w3.org/Graphics/SVG/1.1/DTD/svg11.dtd">
<!-- Generated by graphviz version 2.42.3 (20191010.1750)
 -->
<!-- Title: txmath1.cpp Pages: 1 -->
<svg width="828pt" height="687pt"
 viewBox="0.00 0.00 828.36 687.00" xmlns="http://www.w3.org/2000/svg" xmlns:xlink="http://www.w3.org/1999/xlink">
<g id="graph0" class="graph" transform="scale(1 1) rotate(0) translate(4 683)">
<title>txmath1.cpp</title>
<!-- Node1 -->
<g id="node1" class="node">
<title>Node1</title>
<g id="a_node1"><a xlink:title=" ">
<polygon fill="#bfbfbf" stroke="black" points="461.45,-660.5 461.45,-678.5 531.92,-678.5 531.92,-660.5 461.45,-660.5"/>
<text text-anchor="middle" x="496.68" y="-666.5" font-family="Helvetica,sans-Serif" font-size="10.00">txmath1.cpp</text>
</a>
</g>
</g>
<!-- Node2 -->
<g id="node2" class="node">
<title>Node2</title>
<g id="a_node2"><a xlink:href="../../db/dd3/txmath1_8h.html" target="_top" xlink:title=" ">
<polygon fill="none" stroke="black" points="308.73,-605.5 308.73,-623.5 368.64,-623.5 368.64,-605.5 308.73,-605.5"/>
<text text-anchor="middle" x="338.68" y="-611.5" font-family="Helvetica,sans-Serif" font-size="10.00">txmath1.h</text>
</a>
</g>
</g>
<!-- Node1&#45;&gt;Node2 -->
<g id="edge1" class="edge">
<title>Node1&#45;&gt;Node2</title>
<path fill="none" stroke="midnightblue" d="M472.69,-660.45C445.93,-651.47 402.46,-636.89 372.32,-626.78"/>
<polygon fill="midnightblue" stroke="midnightblue" points="373.24,-623.4 362.65,-623.54 371.02,-630.04 373.24,-623.4"/>
</g>
<!-- Node30 -->
<g id="node30" class="node">
<title>Node30</title>
<g id="a_node30"><a xlink:href="../../d7/d79/txinline_8h.html" target="_top" xlink:title=" ">
<polygon fill="none" stroke="black" points="147.95,-605.5 147.95,-623.5 203.42,-623.5 203.42,-605.5 147.95,-605.5"/>
<text text-anchor="middle" x="175.68" y="-611.5" font-family="Helvetica,sans-Serif" font-size="10.00">txinline.h</text>
</a>
</g>
</g>
<!-- Node1&#45;&gt;Node30 -->
<g id="edge35" class="edge">
<title>Node1&#45;&gt;Node30</title>
<path fill="none" stroke="midnightblue" d="M461.41,-662.68C400.6,-652.64 276.52,-632.15 213.79,-621.79"/>
<polygon fill="midnightblue" stroke="midnightblue" points="213.99,-618.28 203.55,-620.1 212.85,-625.18 213.99,-618.28"/>
</g>
<!-- Node36 -->
<g id="node36" class="node">
<title>Node36</title>
<g id="a_node36"><a xlink:href="../../d2/d1b/txparser_8h.html" target="_top" xlink:title=" ">
<polygon fill="none" stroke="black" points="466.73,-605.5 466.73,-623.5 526.64,-623.5 526.64,-605.5 466.73,-605.5"/>
<text text-anchor="middle" x="496.68" y="-611.5" font-family="Helvetica,sans-Serif" font-size="10.00">txparser.h</text>
</a>
</g>
</g>
<!-- Node1&#45;&gt;Node36 -->
<g id="edge45" class="edge">
<title>Node1&#45;&gt;Node36</title>
<path fill="none" stroke="midnightblue" d="M496.68,-660.22C496.68,-653.18 496.68,-642.81 496.68,-633.83"/>
<polygon fill="midnightblue" stroke="midnightblue" points="500.18,-633.55 496.68,-623.55 493.18,-633.55 500.18,-633.55"/>
</g>
<!-- Node46 -->
<g id="node46" class="node">
<title>Node46</title>
<g id="a_node46"><a xlink:title=" ">
<polygon fill="none" stroke="#bfbfbf" points="545.12,-605.5 545.12,-623.5 602.25,-623.5 602.25,-605.5 545.12,-605.5"/>
<text text-anchor="middle" x="573.68" y="-611.5" font-family="Helvetica,sans-Serif" font-size="10.00">algorithm</text>
</a>
</g>
</g>
<!-- Node1&#45;&gt;Node46 -->
<g id="edge67" class="edge">
<title>Node1&#45;&gt;Node46</title>
<path fill="none" stroke="midnightblue" d="M508.38,-660.45C520.36,-652.2 539.23,-639.22 553.61,-629.32"/>
<polygon fill="midnightblue" stroke="midnightblue" points="555.63,-632.18 561.88,-623.63 551.66,-626.41 555.63,-632.18"/>
</g>
<!-- Node47 -->
<g id="node47" class="node">
<title>Node47</title>
<g id="a_node47"><a xlink:title=" ">
<polygon fill="none" stroke="#bfbfbf" points="620.01,-605.5 620.01,-623.5 689.36,-623.5 689.36,-605.5 620.01,-605.5"/>
<text text-anchor="middle" x="654.68" y="-611.5" font-family="Helvetica,sans-Serif" font-size="10.00">fmt/format.h</text>
</a>
</g>
</g>
<!-- Node1&#45;&gt;Node47 -->
<g id="edge68" class="edge">
<title>Node1&#45;&gt;Node47</title>
<path fill="none" stroke="midnightblue" d="M520.68,-660.45C547.44,-651.47 590.91,-636.89 621.05,-626.78"/>
<polygon fill="midnightblue" stroke="midnightblue" points="622.35,-630.04 630.72,-623.54 620.13,-623.4 622.35,-630.04"/>
</g>
<!-- Node3 -->
<g id="node3" class="node">
<title>Node3</title>
<g id="a_node3"><a xlink:href="../../df/d79/txmath_8h.html" target="_top" xlink:title=" ">
<polygon fill="none" stroke="black" points="311.51,-550.5 311.51,-568.5 365.86,-568.5 365.86,-550.5 311.51,-550.5"/>
<text text-anchor="middle" x="338.68" y="-556.5" font-family="Helvetica,sans-Serif" font-size="10.00">txmath.h</text>
</a>
</g>
</g>
<!-- Node2&#45;&gt;Node3 -->
<g id="edge2" class="edge">
<title>Node2&#45;&gt;Node3</title>
<path fill="none" stroke="midnightblue" d="M338.68,-605.22C338.68,-598.18 338.68,-587.81 338.68,-578.83"/>
<polygon fill="midnightblue" stroke="midnightblue" points="342.18,-578.55 338.68,-568.55 335.18,-578.55 342.18,-578.55"/>
</g>
<!-- Node29 -->
<g id="node29" class="node">
<title>Node29</title>
<g id="a_node29"><a xlink:title=" ">
<polygon fill="none" stroke="#bfbfbf" points="118.51,-495.5 118.51,-513.5 172.86,-513.5 172.86,-495.5 118.51,-495.5"/>
<text text-anchor="middle" x="145.68" y="-501.5" font-family="Helvetica,sans-Serif" font-size="10.00">iostream</text>
</a>
</g>
</g>
<!-- Node2&#45;&gt;Node29 -->
<g id="edge34" class="edge">
<title>Node2&#45;&gt;Node29</title>
<path fill="none" stroke="midnightblue" d="M308.6,-611.24C275.28,-607.39 221.44,-596.98 184.68,-569 169.28,-557.27 158.55,-537.55 152.31,-523.19"/>
<polygon fill="midnightblue" stroke="midnightblue" points="155.53,-521.84 148.54,-513.88 149.04,-524.46 155.53,-521.84"/>
</g>
<!-- Node4 -->
<g id="node4" class="node">
<title>Node4</title>
<g id="a_node4"><a xlink:href="../../d9/d1c/_xml_8h.html" target="_top" xlink:title=" ">
<polygon fill="none" stroke="black" points="507.46,-495.5 507.46,-513.5 577.91,-513.5 577.91,-495.5 507.46,-495.5"/>
<text text-anchor="middle" x="542.68" y="-501.5" font-family="Helvetica,sans-Serif" font-size="10.00">tralics/Xml.h</text>
</a>
</g>
</g>
<!-- Node3&#45;&gt;Node4 -->
<g id="edge3" class="edge">
<title>Node3&#45;&gt;Node4</title>
<path fill="none" stroke="midnightblue" d="M366.2,-551.35C401.09,-542.29 461.55,-526.58 501.83,-516.11"/>
<polygon fill="midnightblue" stroke="midnightblue" points="502.81,-519.48 511.61,-513.57 501.05,-512.7 502.81,-519.48"/>
</g>
<!-- Node5 -->
<g id="node5" class="node">
<title>Node5</title>
<g id="a_node5"><a xlink:href="../../d7/d1b/_buffer_8h.html" target="_top" xlink:title=" ">
<polygon fill="none" stroke="black" points="517.54,-440.5 517.54,-458.5 567.83,-458.5 567.83,-440.5 517.54,-440.5"/>
<text text-anchor="middle" x="542.68" y="-446.5" font-family="Helvetica,sans-Serif" font-size="10.00">Buffer.h</text>
</a>
</g>
</g>
<!-- Node4&#45;&gt;Node5 -->
<g id="edge4" class="edge">
<title>Node4&#45;&gt;Node5</title>
<path fill="none" stroke="midnightblue" d="M542.68,-495.22C542.68,-488.18 542.68,-477.81 542.68,-468.83"/>
<polygon fill="midnightblue" stroke="midnightblue" points="546.18,-468.55 542.68,-458.55 539.18,-468.55 546.18,-468.55"/>
</g>
<!-- Node28 -->
<g id="node28" class="node">
<title>Node28</title>
<g id="a_node28"><a xlink:title=" ">
<polygon fill="none" stroke="#bfbfbf" points="585.51,-440.5 585.51,-458.5 629.86,-458.5 629.86,-440.5 585.51,-440.5"/>
<text text-anchor="middle" x="607.68" y="-446.5" font-family="Helvetica,sans-Serif" font-size="10.00">gsl/gsl</text>
</a>
</g>
</g>
<!-- Node4&#45;&gt;Node28 -->
<g id="edge33" class="edge">
<title>Node4&#45;&gt;Node28</title>
<path fill="none" stroke="midnightblue" d="M552.56,-495.45C562.39,-487.43 577.7,-474.95 589.7,-465.17"/>
<polygon fill="midnightblue" stroke="midnightblue" points="592.18,-467.66 597.72,-458.63 587.76,-462.23 592.18,-467.66"/>
</g>
<!-- Node6 -->
<g id="node6" class="node">
<title>Node6</title>
<g id="a_node6"><a xlink:href="../../d1/d9e/txid_8h.html" target="_top" xlink:title=" ">
<polygon fill="none" stroke="black" points="512.57,-385.5 512.57,-403.5 560.8,-403.5 560.8,-385.5 512.57,-385.5"/>
<text text-anchor="middle" x="536.68" y="-391.5" font-family="Helvetica,sans-Serif" font-size="10.00">../txid.h</text>
</a>
</g>
</g>
<!-- Node5&#45;&gt;Node6 -->
<g id="edge5" class="edge">
<title>Node5&#45;&gt;Node6</title>
<path fill="none" stroke="midnightblue" d="M541.75,-440.22C540.94,-433.1 539.75,-422.58 538.73,-413.53"/>
<polygon fill="midnightblue" stroke="midnightblue" points="542.2,-413.09 537.6,-403.55 535.24,-413.88 542.2,-413.09"/>
</g>
<!-- Node19 -->
<g id="node19" class="node">
<title>Node19</title>
<g id="a_node19"><a xlink:href="../../d9/d18/txscaled_8h.html" target="_top" xlink:title=" ">
<polygon fill="none" stroke="black" points="425,-385.5 425,-403.5 494.36,-403.5 494.36,-385.5 425,-385.5"/>
<text text-anchor="middle" x="459.68" y="-391.5" font-family="Helvetica,sans-Serif" font-size="10.00">../txscaled.h</text>
</a>
</g>
</g>
<!-- Node5&#45;&gt;Node19 -->
<g id="edge21" class="edge">
<title>Node5&#45;&gt;Node19</title>
<path fill="none" stroke="midnightblue" d="M530.08,-440.45C517.04,-432.12 496.44,-418.97 480.89,-409.04"/>
<polygon fill="midnightblue" stroke="midnightblue" points="482.72,-406.06 472.41,-403.63 478.95,-411.96 482.72,-406.06"/>
</g>
<!-- Node27 -->
<g id="node27" class="node">
<title>Node27</title>
<g id="a_node27"><a xlink:title=" ">
<polygon fill="none" stroke="#bfbfbf" points="578.96,-385.5 578.96,-403.5 624.41,-403.5 624.41,-385.5 578.96,-385.5"/>
<text text-anchor="middle" x="601.68" y="-391.5" font-family="Helvetica,sans-Serif" font-size="10.00">cstring</text>
</a>
</g>
</g>
<!-- Node5&#45;&gt;Node27 -->
<g id="edge32" class="edge">
<title>Node5&#45;&gt;Node27</title>
<path fill="none" stroke="midnightblue" d="M551.65,-440.45C560.48,-432.51 574.2,-420.19 585.04,-410.45"/>
<polygon fill="midnightblue" stroke="midnightblue" points="587.54,-412.91 592.64,-403.63 582.86,-407.7 587.54,-412.91"/>
</g>
<!-- Node7 -->
<g id="node7" class="node">
<title>Node7</title>
<g id="a_node7"><a xlink:href="../../d5/daf/_istring_8h.html" target="_top" xlink:title=" ">
<polygon fill="none" stroke="black" points="495.45,-275.5 495.45,-293.5 575.92,-293.5 575.92,-275.5 495.45,-275.5"/>
<text text-anchor="middle" x="535.68" y="-281.5" font-family="Helvetica,sans-Serif" font-size="10.00">tralics/Istring.h</text>
</a>
</g>
</g>
<!-- Node6&#45;&gt;Node7 -->
<g id="edge6" class="edge">
<title>Node6&#45;&gt;Node7</title>
<path fill="none" stroke="midnightblue" d="M536.61,-385.38C536.45,-368.18 536.08,-327.7 535.85,-303.89"/>
<polygon fill="midnightblue" stroke="midnightblue" points="539.35,-303.68 535.76,-293.71 532.35,-303.74 539.35,-303.68"/>
</g>
<!-- Node8 -->
<g id="node8" class="node">
<title>Node8</title>
<g id="a_node8"><a xlink:href="../../dd/d47/_str_hash_8h.html" target="_top" xlink:title=" ">
<polygon fill="none" stroke="black" points="628.45,-220.5 628.45,-238.5 688.92,-238.5 688.92,-220.5 628.45,-220.5"/>
<text text-anchor="middle" x="658.68" y="-226.5" font-family="Helvetica,sans-Serif" font-size="10.00">StrHash.h</text>
</a>
</g>
</g>
<!-- Node7&#45;&gt;Node8 -->
<g id="edge7" class="edge">
<title>Node7&#45;&gt;Node8</title>
<path fill="none" stroke="midnightblue" d="M554.37,-275.45C574.59,-266.73 607.09,-252.73 630.44,-242.67"/>
<polygon fill="midnightblue" stroke="midnightblue" points="632.03,-245.8 639.83,-238.63 629.26,-239.37 632.03,-245.8"/>
</g>
<!-- Node16 -->
<g id="node16" class="node">
<title>Node16</title>
<g id="a_node16"><a xlink:href="../../d0/d0b/enums_8h.html" target="_top" xlink:title=" ">
<polygon fill="none" stroke="black" points="406.51,-165.5 406.51,-183.5 460.86,-183.5 460.86,-165.5 406.51,-165.5"/>
<text text-anchor="middle" x="433.68" y="-171.5" font-family="Helvetica,sans-Serif" font-size="10.00">enums.h</text>
</a>
</g>
</g>
<!-- Node7&#45;&gt;Node16 -->
<g id="edge15" class="edge">
<title>Node7&#45;&gt;Node16</title>
<path fill="none" stroke="midnightblue" d="M528.02,-275.38C511.11,-257.48 470.37,-214.35 448.37,-191.05"/>
<polygon fill="midnightblue" stroke="midnightblue" points="450.85,-188.58 441.44,-183.71 445.76,-193.39 450.85,-188.58"/>
</g>
<!-- Node17 -->
<g id="node17" class="node">
<title>Node17</title>
<g id="a_node17"><a xlink:href="../../d8/d3c/util_8h.html" target="_top" xlink:title=" ">
<polygon fill="none" stroke="black" points="573.12,-220.5 573.12,-238.5 610.25,-238.5 610.25,-220.5 573.12,-220.5"/>
<text text-anchor="middle" x="591.68" y="-226.5" font-family="Helvetica,sans-Serif" font-size="10.00">util.h</text>
</a>
</g>
</g>
<!-- Node7&#45;&gt;Node17 -->
<g id="edge17" class="edge">
<title>Node7&#45;&gt;Node17</title>
<path fill="none" stroke="midnightblue" d="M544.43,-275.22C552.78,-267.32 565.56,-255.22 575.72,-245.61"/>
<polygon fill="midnightblue" stroke="midnightblue" points="578.32,-247.97 583.18,-238.55 573.51,-242.88 578.32,-247.97"/>
</g>
<!-- Node18 -->
<g id="node18" class="node">
<title>Node18</title>
<g id="a_node18"><a xlink:title=" ">
<polygon fill="none" stroke="#bfbfbf" points="516.29,-220.5 516.29,-238.5 555.08,-238.5 555.08,-220.5 516.29,-220.5"/>
<text text-anchor="middle" x="535.68" y="-226.5" font-family="Helvetica,sans-Serif" font-size="10.00">array</text>
</a>
</g>
</g>
<!-- Node7&#45;&gt;Node18 -->
<g id="edge20" class="edge">
<title>Node7&#45;&gt;Node18</title>
<path fill="none" stroke="midnightblue" d="M535.68,-275.22C535.68,-268.18 535.68,-257.81 535.68,-248.83"/>
<polygon fill="midnightblue" stroke="midnightblue" points="539.18,-248.55 535.68,-238.55 532.18,-248.55 539.18,-248.55"/>
</g>
<!-- Node9 -->
<g id="node9" class="node">
<title>Node9</title>
<g id="a_node9"><a xlink:href="../../d8/db5/consts_8h.html" target="_top" xlink:title=" ">
<polygon fill="none" stroke="black" points="407.06,-110.5 407.06,-128.5 460.31,-128.5 460.31,-110.5 407.06,-110.5"/>
<text text-anchor="middle" x="433.68" y="-116.5" font-family="Helvetica,sans-Serif" font-size="10.00">consts.h</text>
</a>
</g>
</g>
<!-- Node8&#45;&gt;Node9 -->
<g id="edge8" class="edge">
<title>Node8&#45;&gt;Node9</title>
<path fill="none" stroke="midnightblue" d="M654.41,-220.49C646.72,-206.9 629.26,-179.42 606.68,-165 564.81,-138.27 507.61,-127.57 470.65,-123.3"/>
<polygon fill="midnightblue" stroke="midnightblue" points="470.64,-119.78 460.33,-122.22 469.91,-126.74 470.64,-119.78"/>
</g>
<!-- Node14 -->
<g id="node14" class="node">
<title>Node14</title>
<g id="a_node14"><a xlink:title=" ">
<polygon fill="none" stroke="#bfbfbf" points="653.46,-165.5 653.46,-183.5 693.91,-183.5 693.91,-165.5 653.46,-165.5"/>
<text text-anchor="middle" x="673.68" y="-171.5" font-family="Helvetica,sans-Serif" font-size="10.00">string</text>
</a>
</g>
</g>
<!-- Node8&#45;&gt;Node14 -->
<g id="edge13" class="edge">
<title>Node8&#45;&gt;Node14</title>
<path fill="none" stroke="midnightblue" d="M661.03,-220.22C663.07,-213.02 666.09,-202.35 668.67,-193.23"/>
<polygon fill="midnightblue" stroke="midnightblue" points="672.05,-194.12 671.41,-183.55 665.32,-192.22 672.05,-194.12"/>
</g>
<!-- Node15 -->
<g id="node15" class="node">
<title>Node15</title>
<g id="a_node15"><a xlink:title=" ">
<polygon fill="none" stroke="#bfbfbf" points="554.07,-165.5 554.07,-183.5 597.3,-183.5 597.3,-165.5 554.07,-165.5"/>
<text text-anchor="middle" x="575.68" y="-171.5" font-family="Helvetica,sans-Serif" font-size="10.00">vector</text>
</a>
</g>
</g>
<!-- Node8&#45;&gt;Node15 -->
<g id="edge14" class="edge">
<title>Node8&#45;&gt;Node15</title>
<path fill="none" stroke="midnightblue" d="M646.08,-220.45C633.04,-212.12 612.44,-198.97 596.89,-189.04"/>
<polygon fill="midnightblue" stroke="midnightblue" points="598.72,-186.06 588.41,-183.63 594.95,-191.96 598.72,-186.06"/>
</g>
<!-- Node10 -->
<g id="node10" class="node">
<title>Node10</title>
<g id="a_node10"><a xlink:href="../../d9/d49/types_8h.html" target="_top" xlink:title=" ">
<polygon fill="none" stroke="black" points="380.56,-55.5 380.56,-73.5 428.81,-73.5 428.81,-55.5 380.56,-55.5"/>
<text text-anchor="middle" x="404.68" y="-61.5" font-family="Helvetica,sans-Serif" font-size="10.00">types.h</text>
</a>
</g>
</g>
<!-- Node9&#45;&gt;Node10 -->
<g id="edge9" class="edge">
<title>Node9&#45;&gt;Node10</title>
<path fill="none" stroke="midnightblue" d="M429.15,-110.22C425.09,-102.79 418.99,-91.65 413.9,-82.34"/>
<polygon fill="midnightblue" stroke="midnightblue" points="416.96,-80.64 409.09,-73.55 410.82,-84 416.96,-80.64"/>
</g>
<!-- Node11 -->
<g id="node11" class="node">
<title>Node11</title>
<g id="a_node11"><a xlink:title=" ">
<polygon fill="none" stroke="#bfbfbf" points="314.57,-0.5 314.57,-18.5 362.8,-18.5 362.8,-0.5 314.57,-0.5"/>
<text text-anchor="middle" x="338.68" y="-6.5" font-family="Helvetica,sans-Serif" font-size="10.00">cassert</text>
</a>
</g>
</g>
<!-- Node10&#45;&gt;Node11 -->
<g id="edge10" class="edge">
<title>Node10&#45;&gt;Node11</title>
<path fill="none" stroke="midnightblue" d="M394.66,-55.45C384.68,-47.43 369.13,-34.95 356.95,-25.17"/>
<polygon fill="midnightblue" stroke="midnightblue" points="358.79,-22.16 348.8,-18.63 354.41,-27.62 358.79,-22.16"/>
</g>
<!-- Node12 -->
<g id="node12" class="node">
<title>Node12</title>
<g id="a_node12"><a xlink:title=" ">
<polygon fill="none" stroke="#bfbfbf" points="380.56,-0.5 380.56,-18.5 428.81,-18.5 428.81,-0.5 380.56,-0.5"/>
<text text-anchor="middle" x="404.68" y="-6.5" font-family="Helvetica,sans-Serif" font-size="10.00">cstddef</text>
</a>
</g>
</g>
<!-- Node10&#45;&gt;Node12 -->
<g id="edge11" class="edge">
<title>Node10&#45;&gt;Node12</title>
<path fill="none" stroke="midnightblue" d="M404.68,-55.22C404.68,-48.18 404.68,-37.81 404.68,-28.83"/>
<polygon fill="midnightblue" stroke="midnightblue" points="408.18,-28.55 404.68,-18.55 401.18,-28.55 408.18,-28.55"/>
</g>
<!-- Node13 -->
<g id="node13" class="node">
<title>Node13</title>
<g id="a_node13"><a xlink:title=" ">
<polygon fill="none" stroke="#bfbfbf" points="446.62,-0.5 446.62,-18.5 508.75,-18.5 508.75,-0.5 446.62,-0.5"/>
<text text-anchor="middle" x="477.68" y="-6.5" font-family="Helvetica,sans-Serif" font-size="10.00">type_traits</text>
</a>
</g>
</g>
<!-- Node10&#45;&gt;Node13 -->
<g id="edge12" class="edge">
<title>Node10&#45;&gt;Node13</title>
<path fill="none" stroke="midnightblue" d="M415.77,-55.45C427.03,-47.28 444.68,-34.46 458.26,-24.6"/>
<polygon fill="midnightblue" stroke="midnightblue" points="460.46,-27.33 466.49,-18.63 456.34,-21.67 460.46,-27.33"/>
</g>
<!-- Node16&#45;&gt;Node9 -->
<g id="edge16" class="edge">
<title>Node16&#45;&gt;Node9</title>
<path fill="none" stroke="midnightblue" d="M433.68,-165.22C433.68,-158.18 433.68,-147.81 433.68,-138.83"/>
<polygon fill="midnightblue" stroke="midnightblue" points="437.18,-138.55 433.68,-128.55 430.18,-138.55 437.18,-138.55"/>
</g>
<!-- Node17&#45;&gt;Node14 -->
<g id="edge18" class="edge">
<title>Node17&#45;&gt;Node14</title>
<path fill="none" stroke="midnightblue" d="M604.14,-220.45C616.9,-212.2 636.99,-199.22 652.3,-189.32"/>
<polygon fill="midnightblue" stroke="midnightblue" points="654.61,-191.99 661.11,-183.63 650.81,-186.11 654.61,-191.99"/>
</g>
<!-- Node17&#45;&gt;Node15 -->
<g id="edge19" class="edge">
<title>Node17&#45;&gt;Node15</title>
<path fill="none" stroke="midnightblue" d="M589.18,-220.22C587.01,-213.02 583.79,-202.35 581.04,-193.23"/>
<polygon fill="midnightblue" stroke="midnightblue" points="584.36,-192.11 578.11,-183.55 577.65,-194.13 584.36,-192.11"/>
</g>
<!-- Node20 -->
<g id="node20" class="node">
<title>Node20</title>
<g id="a_node20"><a xlink:href="../../dc/d91/txtokenlist_8h.html" target="_top" xlink:title=" ">
<polygon fill="none" stroke="black" points="433.28,-330.5 433.28,-348.5 502.09,-348.5 502.09,-330.5 433.28,-330.5"/>
<text text-anchor="middle" x="467.68" y="-336.5" font-family="Helvetica,sans-Serif" font-size="10.00">txtokenlist.h</text>
</a>
</g>
</g>
<!-- Node19&#45;&gt;Node20 -->
<g id="edge22" class="edge">
<title>Node19&#45;&gt;Node20</title>
<path fill="none" stroke="midnightblue" d="M460.93,-385.22C462.01,-378.1 463.6,-367.58 464.96,-358.53"/>
<polygon fill="midnightblue" stroke="midnightblue" points="468.44,-358.96 466.47,-348.55 461.52,-357.92 468.44,-358.96"/>
</g>
<!-- Node20&#45;&gt;Node7 -->
<g id="edge23" class="edge">
<title>Node20&#45;&gt;Node7</title>
<path fill="none" stroke="midnightblue" d="M478.01,-330.45C488.4,-322.36 504.63,-309.7 517.23,-299.88"/>
<polygon fill="midnightblue" stroke="midnightblue" points="519.52,-302.53 525.26,-293.63 515.22,-297.01 519.52,-302.53"/>
</g>
<!-- Node21 -->
<g id="node21" class="node">
<title>Node21</title>
<g id="a_node21"><a xlink:href="../../dd/dcd/_token_8h.html" target="_top" xlink:title=" ">
<polygon fill="none" stroke="black" points="283.73,-275.5 283.73,-293.5 363.64,-293.5 363.64,-275.5 283.73,-275.5"/>
<text text-anchor="middle" x="323.68" y="-281.5" font-family="Helvetica,sans-Serif" font-size="10.00">tralics/Token.h</text>
</a>
</g>
</g>
<!-- Node20&#45;&gt;Node21 -->
<g id="edge24" class="edge">
<title>Node20&#45;&gt;Node21</title>
<path fill="none" stroke="midnightblue" d="M445.81,-330.45C421.71,-321.58 382.72,-307.23 355.29,-297.13"/>
<polygon fill="midnightblue" stroke="midnightblue" points="356.35,-293.79 345.76,-293.63 353.94,-300.36 356.35,-293.79"/>
</g>
<!-- Node26 -->
<g id="node26" class="node">
<title>Node26</title>
<g id="a_node26"><a xlink:title=" ">
<polygon fill="none" stroke="#bfbfbf" points="724.29,-275.5 724.29,-293.5 763.08,-293.5 763.08,-275.5 724.29,-275.5"/>
<text text-anchor="middle" x="743.68" y="-281.5" font-family="Helvetica,sans-Serif" font-size="10.00">utility</text>
</a>
</g>
</g>
<!-- Node20&#45;&gt;Node26 -->
<g id="edge31" class="edge">
<title>Node20&#45;&gt;Node26</title>
<path fill="none" stroke="midnightblue" d="M502.36,-331.84C557.1,-321.33 662.6,-301.07 714.04,-291.19"/>
<polygon fill="midnightblue" stroke="midnightblue" points="714.99,-294.57 724.15,-289.25 713.67,-287.7 714.99,-294.57"/>
</g>
<!-- Node22 -->
<g id="node22" class="node">
<title>Node22</title>
<g id="a_node22"><a xlink:href="../../d2/d68/_cmd_chr_8h.html" target="_top" xlink:title=" ">
<polygon fill="none" stroke="black" points="281.17,-220.5 281.17,-238.5 342.19,-238.5 342.19,-220.5 281.17,-220.5"/>
<text text-anchor="middle" x="311.68" y="-226.5" font-family="Helvetica,sans-Serif" font-size="10.00">CmdChr.h</text>
</a>
</g>
</g>
<!-- Node21&#45;&gt;Node22 -->
<g id="edge25" class="edge">
<title>Node21&#45;&gt;Node22</title>
<path fill="none" stroke="midnightblue" d="M321.81,-275.22C320.2,-268.1 317.82,-257.58 315.77,-248.53"/>
<polygon fill="midnightblue" stroke="midnightblue" points="319.13,-247.53 313.51,-238.55 312.3,-249.08 319.13,-247.53"/>
</g>
<!-- Node25 -->
<g id="node25" class="node">
<title>Node25</title>
<g id="a_node25"><a xlink:title=" ">
<polygon fill="none" stroke="#bfbfbf" points="360.18,-220.5 360.18,-238.5 389.18,-238.5 389.18,-220.5 360.18,-220.5"/>
<text text-anchor="middle" x="374.3" y="-226.5" font-family="Helvetica,sans-Serif" font-size="10.00">list</text>
</a>
</g>
</g>
<!-- Node21&#45;&gt;Node25 -->
<g id="edge30" class="edge">
<title>Node21&#45;&gt;Node25</title>
<path fill="none" stroke="midnightblue" d="M331.65,-275.22C339.18,-267.39 350.66,-255.46 359.87,-245.89"/>
<polygon fill="midnightblue" stroke="midnightblue" points="362.53,-248.18 366.94,-238.55 357.48,-243.33 362.53,-248.18"/>
</g>
<!-- Node22&#45;&gt;Node16 -->
<g id="edge29" class="edge">
<title>Node22&#45;&gt;Node16</title>
<path fill="none" stroke="midnightblue" d="M330.21,-220.45C350.28,-211.73 382.51,-197.73 405.67,-187.67"/>
<polygon fill="midnightblue" stroke="midnightblue" points="407.2,-190.82 414.98,-183.63 404.41,-184.4 407.2,-190.82"/>
</g>
<!-- Node23 -->
<g id="node23" class="node">
<title>Node23</title>
<g id="a_node23"><a xlink:href="../../d8/d47/codepoint_8h.html" target="_top" xlink:title=" ">
<polygon fill="none" stroke="black" points="281.83,-165.5 281.83,-183.5 349.54,-183.5 349.54,-165.5 281.83,-165.5"/>
<text text-anchor="middle" x="315.68" y="-171.5" font-family="Helvetica,sans-Serif" font-size="10.00">codepoint.h</text>
</a>
</g>
</g>
<!-- Node22&#45;&gt;Node23 -->
<g id="edge26" class="edge">
<title>Node22&#45;&gt;Node23</title>
<path fill="none" stroke="midnightblue" d="M312.31,-220.22C312.85,-213.1 313.64,-202.58 314.32,-193.53"/>
<polygon fill="midnightblue" stroke="midnightblue" points="317.81,-193.78 315.08,-183.55 310.83,-193.26 317.81,-193.78"/>
</g>
<!-- Node23&#45;&gt;Node10 -->
<g id="edge27" class="edge">
<title>Node23&#45;&gt;Node10</title>
<path fill="none" stroke="midnightblue" d="M322.37,-165.38C337,-147.63 372.05,-105.1 391.36,-81.67"/>
<polygon fill="midnightblue" stroke="midnightblue" points="394.26,-83.65 397.92,-73.71 388.86,-79.2 394.26,-83.65"/>
</g>
<!-- Node24 -->
<g id="node24" class="node">
<title>Node24</title>
<g id="a_node24"><a xlink:title=" ">
<polygon fill="none" stroke="#bfbfbf" points="290.17,-110.5 290.17,-128.5 341.2,-128.5 341.2,-110.5 290.17,-110.5"/>
<text text-anchor="middle" x="315.68" y="-116.5" font-family="Helvetica,sans-Serif" font-size="10.00">optional</text>
</a>
</g>
</g>
<!-- Node23&#45;&gt;Node24 -->
<g id="edge28" class="edge">
<title>Node23&#45;&gt;Node24</title>
<path fill="none" stroke="midnightblue" d="M315.68,-165.22C315.68,-158.18 315.68,-147.81 315.68,-138.83"/>
<polygon fill="midnightblue" stroke="midnightblue" points="319.18,-138.55 315.68,-128.55 312.18,-138.55 319.18,-138.55"/>
</g>
<!-- Node31 -->
<g id="node31" class="node">
<title>Node31</title>
<g id="a_node31"><a xlink:href="../../d4/de9/_main_class_8h.html" target="_top" xlink:title=" ">
<polygon fill="none" stroke="black" points="193.73,-550.5 193.73,-568.5 293.64,-568.5 293.64,-550.5 193.73,-550.5"/>
<text text-anchor="middle" x="243.68" y="-556.5" font-family="Helvetica,sans-Serif" font-size="10.00">tralics/MainClass.h</text>
</a>
</g>
</g>
<!-- Node30&#45;&gt;Node31 -->
<g id="edge36" class="edge">
<title>Node30&#45;&gt;Node31</title>
<path fill="none" stroke="midnightblue" d="M186.01,-605.45C196.4,-597.36 212.63,-584.7 225.23,-574.88"/>
<polygon fill="midnightblue" stroke="midnightblue" points="227.52,-577.53 233.26,-568.63 223.22,-572.01 227.52,-577.53"/>
</g>
<!-- Node34 -->
<g id="node34" class="node">
<title>Node34</title>
<g id="a_node34"><a xlink:href="../../d2/d06/txlogger_8h.html" target="_top" xlink:title=" ">
<polygon fill="none" stroke="black" points="0,-550.5 0,-568.5 59.37,-568.5 59.37,-550.5 0,-550.5"/>
<text text-anchor="middle" x="29.68" y="-556.5" font-family="Helvetica,sans-Serif" font-size="10.00">txlogger.h</text>
</a>
</g>
</g>
<!-- Node30&#45;&gt;Node34 -->
<g id="edge40" class="edge">
<title>Node30&#45;&gt;Node34</title>
<path fill="none" stroke="midnightblue" d="M153.51,-605.45C129.07,-596.58 89.54,-582.23 61.73,-572.13"/>
<polygon fill="midnightblue" stroke="midnightblue" points="62.66,-568.75 52.07,-568.63 60.27,-575.33 62.66,-568.75"/>
</g>
<!-- Node35 -->
<g id="node35" class="node">
<title>Node35</title>
<g id="a_node35"><a xlink:href="../../d5/d08/txparam_8h.html" target="_top" xlink:title=" ">
<polygon fill="none" stroke="black" points="77.45,-550.5 77.45,-568.5 137.92,-568.5 137.92,-550.5 77.45,-550.5"/>
<text text-anchor="middle" x="107.68" y="-556.5" font-family="Helvetica,sans-Serif" font-size="10.00">txparam.h</text>
</a>
</g>
</g>
<!-- Node30&#45;&gt;Node35 -->
<g id="edge43" class="edge">
<title>Node30&#45;&gt;Node35</title>
<path fill="none" stroke="midnightblue" d="M165.36,-605.45C154.97,-597.36 138.74,-584.7 126.14,-574.88"/>
<polygon fill="midnightblue" stroke="midnightblue" points="128.15,-572.01 118.11,-568.63 123.85,-577.53 128.15,-572.01"/>
</g>
<!-- Node32 -->
<g id="node32" class="node">
<title>Node32</title>
<g id="a_node32"><a xlink:href="../../de/d29/txio_8h.html" target="_top" xlink:title=" ">
<polygon fill="none" stroke="black" points="219.57,-495.5 219.57,-513.5 267.8,-513.5 267.8,-495.5 219.57,-495.5"/>
<text text-anchor="middle" x="243.68" y="-501.5" font-family="Helvetica,sans-Serif" font-size="10.00">../txio.h</text>
</a>
</g>
</g>
<!-- Node31&#45;&gt;Node32 -->
<g id="edge37" class="edge">
<title>Node31&#45;&gt;Node32</title>
<path fill="none" stroke="midnightblue" d="M243.68,-550.22C243.68,-543.18 243.68,-532.81 243.68,-523.83"/>
<polygon fill="midnightblue" stroke="midnightblue" points="247.18,-523.55 243.68,-513.55 240.18,-523.55 247.18,-523.55"/>
</g>
<!-- Node32&#45;&gt;Node5 -->
<g id="edge38" class="edge">
<title>Node32&#45;&gt;Node5</title>
<path fill="none" stroke="midnightblue" d="M267.92,-500.08C313.09,-493.57 413.38,-478.47 507.52,-459.11"/>
<polygon fill="midnightblue" stroke="midnightblue" points="508.41,-462.5 517.48,-457.03 506.98,-455.64 508.41,-462.5"/>
</g>
<!-- Node33 -->
<g id="node33" class="node">
<title>Node33</title>
<g id="a_node33"><a xlink:title=" ">
<polygon fill="none" stroke="#bfbfbf" points="133.01,-440.5 133.01,-458.5 182.35,-458.5 182.35,-440.5 133.01,-440.5"/>
<text text-anchor="middle" x="157.68" y="-446.5" font-family="Helvetica,sans-Serif" font-size="10.00">fstream</text>
</a>
</g>
</g>
<!-- Node32&#45;&gt;Node33 -->
<g id="edge39" class="edge">
<title>Node32&#45;&gt;Node33</title>
<path fill="none" stroke="midnightblue" d="M230.62,-495.45C217.11,-487.12 195.77,-473.97 179.65,-464.04"/>
<polygon fill="midnightblue" stroke="midnightblue" points="181.22,-460.89 170.87,-458.63 177.55,-466.85 181.22,-460.89"/>
</g>
<!-- Node34&#45;&gt;Node29 -->
<g id="edge42" class="edge">
<title>Node34&#45;&gt;Node29</title>
<path fill="none" stroke="midnightblue" d="M47.3,-550.45C66.29,-541.77 96.76,-527.86 118.75,-517.8"/>
<polygon fill="midnightblue" stroke="midnightblue" points="120.26,-520.96 127.9,-513.63 117.35,-514.6 120.26,-520.96"/>
</g>
<!-- Node34&#45;&gt;Node33 -->
<g id="edge41" class="edge">
<title>Node34&#45;&gt;Node33</title>
<path fill="none" stroke="midnightblue" d="M39.31,-550.38C60.71,-532.32 112.54,-488.59 139.97,-465.44"/>
<polygon fill="midnightblue" stroke="midnightblue" points="142.57,-467.84 147.95,-458.71 138.05,-462.49 142.57,-467.84"/>
</g>
<!-- Node35&#45;&gt;Node32 -->
<g id="edge44" class="edge">
<title>Node35&#45;&gt;Node32</title>
<path fill="none" stroke="midnightblue" d="M128.34,-550.45C151.01,-541.62 187.6,-527.35 213.49,-517.27"/>
<polygon fill="midnightblue" stroke="midnightblue" points="214.79,-520.52 222.83,-513.63 212.25,-514 214.79,-520.52"/>
</g>
<!-- Node36&#45;&gt;Node32 -->
<g id="edge61" class="edge">
<title>Node36&#45;&gt;Node32</title>
<path fill="none" stroke="midnightblue" d="M482.75,-605.35C460.44,-592.51 415.09,-567.26 374.68,-550 342.56,-536.28 304.66,-523.79 277.91,-515.56"/>
<polygon fill="midnightblue" stroke="midnightblue" points="278.83,-512.18 268.24,-512.62 276.79,-518.87 278.83,-512.18"/>
</g>
<!-- Node37 -->
<g id="node37" class="node">
<title>Node37</title>
<g id="a_node37"><a xlink:href="../../d8/dd6/_e_q_t_b_8h.html" target="_top" xlink:title=" ">
<polygon fill="none" stroke="black" points="419.46,-440.5 419.46,-458.5 499.91,-458.5 499.91,-440.5 419.46,-440.5"/>
<text text-anchor="middle" x="459.68" y="-446.5" font-family="Helvetica,sans-Serif" font-size="10.00">tralics/EQTB.h</text>
</a>
</g>
</g>
<!-- Node36&#45;&gt;Node37 -->
<g id="edge46" class="edge">
<title>Node36&#45;&gt;Node37</title>
<path fill="none" stroke="midnightblue" d="M494.8,-605.19C489.06,-579.9 471.7,-503.45 463.75,-468.4"/>
<polygon fill="midnightblue" stroke="midnightblue" points="467.15,-467.57 461.52,-458.6 460.32,-469.12 467.15,-467.57"/>
</g>
<!-- Node38 -->
<g id="node38" class="node">
<title>Node38</title>
<g id="a_node38"><a xlink:href="../../d3/d6b/txcond_8h.html" target="_top" xlink:title=" ">
<polygon fill="none" stroke="black" points="406.78,-220.5 406.78,-238.5 460.59,-238.5 460.59,-220.5 406.78,-220.5"/>
<text text-anchor="middle" x="433.68" y="-226.5" font-family="Helvetica,sans-Serif" font-size="10.00">txcond.h</text>
</a>
</g>
</g>
<!-- Node36&#45;&gt;Node38 -->
<g id="edge48" class="edge">
<title>Node36&#45;&gt;Node38</title>
<path fill="none" stroke="midnightblue" d="M489.47,-605.47C465.75,-578.19 391.68,-485.82 391.68,-395.5 391.68,-395.5 391.68,-395.5 391.68,-338.5 391.68,-304.29 410.22,-267.87 422.66,-247.27"/>
<polygon fill="midnightblue" stroke="midnightblue" points="425.66,-249.08 428.02,-238.75 419.74,-245.35 425.66,-249.08"/>
</g>
<!-- Node39 -->
<g id="node39" class="node">
<title>Node39</title>
<g id="a_node39"><a xlink:href="../../d7/d4d/txfonts_8h.html" target="_top" xlink:title=" ">
<polygon fill="none" stroke="black" points="688.79,-330.5 688.79,-348.5 742.58,-348.5 742.58,-330.5 688.79,-330.5"/>
<text text-anchor="middle" x="715.68" y="-336.5" font-family="Helvetica,sans-Serif" font-size="10.00">txfonts.h</text>
</a>
</g>
</g>
<!-- Node36&#45;&gt;Node39 -->
<g id="edge51" class="edge">
<title>Node36&#45;&gt;Node39</title>
<path fill="none" stroke="midnightblue" d="M526.77,-606.62C573.52,-595.82 659.62,-575.46 672.68,-569 713.38,-548.88 752.68,-550.89 752.68,-505.5 752.68,-505.5 752.68,-505.5 752.68,-448.5 752.68,-414.78 736.34,-378.17 725.38,-357.41"/>
<polygon fill="midnightblue" stroke="midnightblue" points="728.4,-355.66 720.52,-348.58 722.27,-359.03 728.4,-355.66"/>
</g>
<!-- Node40 -->
<g id="node40" class="node">
<title>Node40</title>
<g id="a_node40"><a xlink:href="../../d7/d7e/txhash_8h.html" target="_top" xlink:title=" ">
<polygon fill="none" stroke="black" points="595.78,-495.5 595.78,-513.5 649.59,-513.5 649.59,-495.5 595.78,-495.5"/>
<text text-anchor="middle" x="622.68" y="-501.5" font-family="Helvetica,sans-Serif" font-size="10.00">txhash.h</text>
</a>
</g>
</g>
<!-- Node36&#45;&gt;Node40 -->
<g id="edge54" class="edge">
<title>Node36&#45;&gt;Node40</title>
<path fill="none" stroke="midnightblue" d="M509.96,-605.32C523.29,-596.88 544.16,-582.99 560.68,-569 578.41,-554 596.75,-534.65 608.84,-521.27"/>
<polygon fill="midnightblue" stroke="midnightblue" points="611.46,-523.6 615.5,-513.81 606.23,-518.94 611.46,-523.6"/>
</g>
<!-- Node42 -->
<g id="node42" class="node">
<title>Node42</title>
<g id="a_node42"><a xlink:href="../../de/d7c/tximage_8h.html" target="_top" xlink:title=" ">
<polygon fill="none" stroke="black" points="761.01,-330.5 761.01,-348.5 820.36,-348.5 820.36,-330.5 761.01,-330.5"/>
<text text-anchor="middle" x="790.68" y="-336.5" font-family="Helvetica,sans-Serif" font-size="10.00">tximage.h</text>
</a>
</g>
</g>
<!-- Node36&#45;&gt;Node42 -->
<g id="edge58" class="edge">
<title>Node36&#45;&gt;Node42</title>
<path fill="none" stroke="midnightblue" d="M526.91,-606.88C529.88,-606.24 532.84,-605.6 535.68,-605 654.68,-579.72 790.68,-627.16 790.68,-505.5 790.68,-505.5 790.68,-505.5 790.68,-448.5 790.68,-417.02 790.68,-380.37 790.68,-358.88"/>
<polygon fill="midnightblue" stroke="midnightblue" points="794.18,-358.63 790.68,-348.63 787.18,-358.63 794.18,-358.63"/>
</g>
<!-- Node43 -->
<g id="node43" class="node">
<title>Node43</title>
<g id="a_node43"><a xlink:href="../../dc/d65/txstack_8h.html" target="_top" xlink:title=" ">
<polygon fill="none" stroke="black" points="607.96,-550.5 607.96,-568.5 663.41,-568.5 663.41,-550.5 607.96,-550.5"/>
<text text-anchor="middle" x="635.68" y="-556.5" font-family="Helvetica,sans-Serif" font-size="10.00">txstack.h</text>
</a>
</g>
</g>
<!-- Node36&#45;&gt;Node43 -->
<g id="edge62" class="edge">
<title>Node36&#45;&gt;Node43</title>
<path fill="none" stroke="midnightblue" d="M517.8,-605.45C540.96,-596.62 578.37,-582.35 604.82,-572.27"/>
<polygon fill="midnightblue" stroke="midnightblue" points="606.28,-575.46 614.37,-568.63 603.78,-568.92 606.28,-575.46"/>
</g>
<!-- Node45 -->
<g id="node45" class="node">
<title>Node45</title>
<g id="a_node45"><a xlink:href="../../d8/d3d/txstats_8h.html" target="_top" xlink:title=" ">
<polygon fill="none" stroke="black" points="498.07,-550.5 498.07,-568.5 551.3,-568.5 551.3,-550.5 498.07,-550.5"/>
<text text-anchor="middle" x="524.68" y="-556.5" font-family="Helvetica,sans-Serif" font-size="10.00">txstats.h</text>
</a>
</g>
</g>
<!-- Node36&#45;&gt;Node45 -->
<g id="edge66" class="edge">
<title>Node36&#45;&gt;Node45</title>
<path fill="none" stroke="midnightblue" d="M501.06,-605.22C504.95,-597.86 510.75,-586.88 515.63,-577.64"/>
<polygon fill="midnightblue" stroke="midnightblue" points="518.86,-579.03 520.43,-568.55 512.67,-575.76 518.86,-579.03"/>
</g>
<!-- Node37&#45;&gt;Node19 -->
<g id="edge47" class="edge">
<title>Node37&#45;&gt;Node19</title>
<path fill="none" stroke="midnightblue" d="M459.68,-440.22C459.68,-433.18 459.68,-422.81 459.68,-413.83"/>
<polygon fill="midnightblue" stroke="midnightblue" points="463.18,-413.55 459.68,-403.55 456.18,-413.55 463.18,-413.55"/>
</g>
<!-- Node38&#45;&gt;Node15 -->
<g id="edge50" class="edge">
<title>Node38&#45;&gt;Node15</title>
<path fill="none" stroke="midnightblue" d="M455.25,-220.45C479.02,-211.58 517.47,-197.23 544.51,-187.13"/>
<polygon fill="midnightblue" stroke="midnightblue" points="545.77,-190.4 553.91,-183.63 543.32,-183.84 545.77,-190.4"/>
</g>
<!-- Node38&#45;&gt;Node16 -->
<g id="edge49" class="edge">
<title>Node38&#45;&gt;Node16</title>
<path fill="none" stroke="midnightblue" d="M433.68,-220.22C433.68,-213.18 433.68,-202.81 433.68,-193.83"/>
<polygon fill="midnightblue" stroke="midnightblue" points="437.18,-193.55 433.68,-183.55 430.18,-193.55 437.18,-193.55"/>
</g>
<!-- Node39&#45;&gt;Node8 -->
<g id="edge53" class="edge">
<title>Node39&#45;&gt;Node8</title>
<path fill="none" stroke="midnightblue" d="M711.4,-330.38C702.16,-312.87 680.17,-271.22 667.71,-247.6"/>
<polygon fill="midnightblue" stroke="midnightblue" points="670.78,-245.92 663.02,-238.71 664.59,-249.19 670.78,-245.92"/>
</g>
<!-- Node39&#45;&gt;Node26 -->
<g id="edge52" class="edge">
<title>Node39&#45;&gt;Node26</title>
<path fill="none" stroke="midnightblue" d="M720.06,-330.22C723.95,-322.86 729.75,-311.88 734.63,-302.64"/>
<polygon fill="midnightblue" stroke="midnightblue" points="737.86,-304.03 739.43,-293.55 731.67,-300.76 737.86,-304.03"/>
</g>
<!-- Node40&#45;&gt;Node5 -->
<g id="edge55" class="edge">
<title>Node40&#45;&gt;Node5</title>
<path fill="none" stroke="midnightblue" d="M610.53,-495.45C598.08,-487.2 578.48,-474.22 563.54,-464.32"/>
<polygon fill="midnightblue" stroke="midnightblue" points="565.22,-461.23 554.95,-458.63 561.35,-467.07 565.22,-461.23"/>
</g>
<!-- Node41 -->
<g id="node41" class="node">
<title>Node41</title>
<g id="a_node41"><a xlink:href="../../d3/d01/txeqtb_8h.html" target="_top" xlink:title=" ">
<polygon fill="none" stroke="black" points="578.89,-330.5 578.89,-348.5 630.48,-348.5 630.48,-330.5 578.89,-330.5"/>
<text text-anchor="middle" x="604.68" y="-336.5" font-family="Helvetica,sans-Serif" font-size="10.00">txeqtb.h</text>
</a>
</g>
</g>
<!-- Node40&#45;&gt;Node41 -->
<g id="edge56" class="edge">
<title>Node40&#45;&gt;Node41</title>
<path fill="none" stroke="midnightblue" d="M626.65,-495.21C630.6,-486.44 636.4,-472.1 638.68,-459 642.06,-439.61 636.08,-391.89 633.68,-385 630.17,-374.87 623.87,-364.77 618.03,-356.75"/>
<polygon fill="midnightblue" stroke="midnightblue" points="620.7,-354.48 611.82,-348.7 615.16,-358.75 620.7,-354.48"/>
</g>
<!-- Node41&#45;&gt;Node8 -->
<g id="edge57" class="edge">
<title>Node41&#45;&gt;Node8</title>
<path fill="none" stroke="midnightblue" d="M608.74,-330.38C617.46,-312.95 638.14,-271.59 649.97,-247.92"/>
<polygon fill="midnightblue" stroke="midnightblue" points="653.24,-249.22 654.58,-238.71 646.98,-246.09 653.24,-249.22"/>
</g>
<!-- Node42&#45;&gt;Node14 -->
<g id="edge59" class="edge">
<title>Node42&#45;&gt;Node14</title>
<path fill="none" stroke="midnightblue" d="M789.51,-330.17C787.45,-317.52 782.35,-293.02 771.68,-275 750.76,-239.63 714.58,-207.48 692.52,-189.79"/>
<polygon fill="midnightblue" stroke="midnightblue" points="694.58,-186.95 684.55,-183.53 690.26,-192.46 694.58,-186.95"/>
</g>
<!-- Node42&#45;&gt;Node26 -->
<g id="edge60" class="edge">
<title>Node42&#45;&gt;Node26</title>
<path fill="none" stroke="midnightblue" d="M783.34,-330.22C776.47,-322.47 766.03,-310.7 757.59,-301.18"/>
<polygon fill="midnightblue" stroke="midnightblue" points="760.08,-298.71 750.82,-293.55 754.84,-303.35 760.08,-298.71"/>
</g>
<!-- Node43&#45;&gt;Node4 -->
<g id="edge63" class="edge">
<title>Node43&#45;&gt;Node4</title>
<path fill="none" stroke="midnightblue" d="M621.56,-550.45C606.81,-542.05 583.44,-528.72 565.96,-518.76"/>
<polygon fill="midnightblue" stroke="midnightblue" points="567.36,-515.54 556.94,-513.63 563.9,-521.62 567.36,-515.54"/>
</g>
<!-- Node44 -->
<g id="node44" class="node">
<title>Node44</title>
<g id="a_node44"><a xlink:href="../../d4/da4/txatt_8h.html" target="_top" xlink:title=" ">
<polygon fill="none" stroke="black" points="681.07,-385.5 681.07,-403.5 724.3,-403.5 724.3,-385.5 681.07,-385.5"/>
<text text-anchor="middle" x="702.68" y="-391.5" font-family="Helvetica,sans-Serif" font-size="10.00">txatt.h</text>
</a>
</g>
</g>
<!-- Node43&#45;&gt;Node44 -->
<g id="edge64" class="edge">
<title>Node43&#45;&gt;Node44</title>
<path fill="none" stroke="midnightblue" d="M640.23,-550.44C645.1,-541.64 652.92,-527.04 658.68,-514 674.16,-479 688.97,-436.7 696.84,-413.28"/>
<polygon fill="midnightblue" stroke="midnightblue" points="700.2,-414.28 700.03,-403.68 693.55,-412.07 700.2,-414.28"/>
</g>
<!-- Node44&#45;&gt;Node8 -->
<g id="edge65" class="edge">
<title>Node44&#45;&gt;Node8</title>
<path fill="none" stroke="midnightblue" d="M697.48,-385.3C692.21,-376.62 684.2,-362.35 679.68,-349 668.06,-314.64 662.55,-272.39 660.2,-248.75"/>
<polygon fill="midnightblue" stroke="midnightblue" points="663.68,-248.4 659.29,-238.76 656.71,-249.03 663.68,-248.4"/>
</g>
</g>
</svg>
