<?xml version="1.0" encoding="UTF-8" standalone="no"?>
<!DOCTYPE svg PUBLIC "-//W3C//DTD SVG 1.1//EN"
 "http://www.w3.org/Graphics/SVG/1.1/DTD/svg11.dtd">
<!-- Generated by graphviz version 2.42.3 (20191010.1750)
 -->
<!-- Title: txmath1.cpp Pages: 1 -->
<svg width="786pt" height="687pt"
 viewBox="0.00 0.00 785.77 687.00" xmlns="http://www.w3.org/2000/svg" xmlns:xlink="http://www.w3.org/1999/xlink">
<g id="graph0" class="graph" transform="scale(1 1) rotate(0) translate(4 683)">
<title>txmath1.cpp</title>
<!-- Node1 -->
<g id="node1" class="node">
<title>Node1</title>
<g id="a_node1"><a xlink:title=" ">
<polygon fill="#bfbfbf" stroke="black" points="399.68,-660.5 399.68,-678.5 470.15,-678.5 470.15,-660.5 399.68,-660.5"/>
<text text-anchor="middle" x="434.91" y="-666.5" font-family="Helvetica,sans-Serif" font-size="10.00">txmath1.cpp</text>
</a>
</g>
</g>
<!-- Node2 -->
<g id="node2" class="node">
<title>Node2</title>
<g id="a_node2"><a xlink:href="../../db/dd3/txmath1_8h.html" target="_top" xlink:title=" ">
<polygon fill="none" stroke="black" points="259.96,-605.5 259.96,-623.5 319.87,-623.5 319.87,-605.5 259.96,-605.5"/>
<text text-anchor="middle" x="289.91" y="-611.5" font-family="Helvetica,sans-Serif" font-size="10.00">txmath1.h</text>
</a>
</g>
</g>
<!-- Node1&#45;&gt;Node2 -->
<g id="edge1" class="edge">
<title>Node1&#45;&gt;Node2</title>
<path fill="none" stroke="midnightblue" d="M412.89,-660.45C388.62,-651.58 349.36,-637.23 321.74,-627.13"/>
<polygon fill="midnightblue" stroke="midnightblue" points="322.74,-623.77 312.14,-623.63 320.33,-630.35 322.74,-623.77"/>
</g>
<!-- Node31 -->
<g id="node31" class="node">
<title>Node31</title>
<g id="a_node31"><a xlink:href="../../d7/d79/txinline_8h.html" target="_top" xlink:title=" ">
<polygon fill="none" stroke="black" points="100.18,-605.5 100.18,-623.5 155.65,-623.5 155.65,-605.5 100.18,-605.5"/>
<text text-anchor="middle" x="127.91" y="-611.5" font-family="Helvetica,sans-Serif" font-size="10.00">txinline.h</text>
</a>
</g>
</g>
<!-- Node1&#45;&gt;Node31 -->
<g id="edge36" class="edge">
<title>Node1&#45;&gt;Node31</title>
<path fill="none" stroke="midnightblue" d="M399.4,-662.37C341.18,-652.32 225.94,-632.42 166.06,-622.09"/>
<polygon fill="midnightblue" stroke="midnightblue" points="166.34,-618.58 155.89,-620.33 165.15,-625.48 166.34,-618.58"/>
</g>
<!-- Node37 -->
<g id="node37" class="node">
<title>Node37</title>
<g id="a_node37"><a xlink:href="../../d2/d1b/txparser_8h.html" target="_top" xlink:title=" ">
<polygon fill="none" stroke="black" points="404.96,-605.5 404.96,-623.5 464.87,-623.5 464.87,-605.5 404.96,-605.5"/>
<text text-anchor="middle" x="434.91" y="-611.5" font-family="Helvetica,sans-Serif" font-size="10.00">txparser.h</text>
</a>
</g>
</g>
<!-- Node1&#45;&gt;Node37 -->
<g id="edge49" class="edge">
<title>Node1&#45;&gt;Node37</title>
<path fill="none" stroke="midnightblue" d="M434.91,-660.22C434.91,-653.18 434.91,-642.81 434.91,-633.83"/>
<polygon fill="midnightblue" stroke="midnightblue" points="438.41,-633.55 434.91,-623.55 431.41,-633.55 438.41,-633.55"/>
</g>
<!-- Node48 -->
<g id="node48" class="node">
<title>Node48</title>
<g id="a_node48"><a xlink:title=" ">
<polygon fill="none" stroke="#bfbfbf" points="483.35,-605.5 483.35,-623.5 540.48,-623.5 540.48,-605.5 483.35,-605.5"/>
<text text-anchor="middle" x="511.91" y="-611.5" font-family="Helvetica,sans-Serif" font-size="10.00">algorithm</text>
</a>
</g>
</g>
<!-- Node1&#45;&gt;Node48 -->
<g id="edge76" class="edge">
<title>Node1&#45;&gt;Node48</title>
<path fill="none" stroke="midnightblue" d="M446.61,-660.45C458.59,-652.2 477.46,-639.22 491.84,-629.32"/>
<polygon fill="midnightblue" stroke="midnightblue" points="493.86,-632.18 500.11,-623.63 489.89,-626.41 493.86,-632.18"/>
</g>
<!-- Node49 -->
<g id="node49" class="node">
<title>Node49</title>
<g id="a_node49"><a xlink:title=" ">
<polygon fill="none" stroke="#bfbfbf" points="558.24,-605.5 558.24,-623.5 627.59,-623.5 627.59,-605.5 558.24,-605.5"/>
<text text-anchor="middle" x="592.91" y="-611.5" font-family="Helvetica,sans-Serif" font-size="10.00">fmt/format.h</text>
</a>
</g>
</g>
<!-- Node1&#45;&gt;Node49 -->
<g id="edge77" class="edge">
<title>Node1&#45;&gt;Node49</title>
<path fill="none" stroke="midnightblue" d="M458.91,-660.45C485.67,-651.47 529.14,-636.89 559.28,-626.78"/>
<polygon fill="midnightblue" stroke="midnightblue" points="560.58,-630.04 568.95,-623.54 558.36,-623.4 560.58,-630.04"/>
</g>
<!-- Node3 -->
<g id="node3" class="node">
<title>Node3</title>
<g id="a_node3"><a xlink:href="../../df/d79/txmath_8h.html" target="_top" xlink:title=" ">
<polygon fill="none" stroke="black" points="262.74,-550.5 262.74,-568.5 317.09,-568.5 317.09,-550.5 262.74,-550.5"/>
<text text-anchor="middle" x="289.91" y="-556.5" font-family="Helvetica,sans-Serif" font-size="10.00">txmath.h</text>
</a>
</g>
</g>
<!-- Node2&#45;&gt;Node3 -->
<g id="edge2" class="edge">
<title>Node2&#45;&gt;Node3</title>
<path fill="none" stroke="midnightblue" d="M289.91,-605.22C289.91,-598.18 289.91,-587.81 289.91,-578.83"/>
<polygon fill="midnightblue" stroke="midnightblue" points="293.41,-578.55 289.91,-568.55 286.41,-578.55 293.41,-578.55"/>
</g>
<!-- Node30 -->
<g id="node30" class="node">
<title>Node30</title>
<g id="a_node30"><a xlink:title=" ">
<polygon fill="none" stroke="#bfbfbf" points="28.74,-440.5 28.74,-458.5 83.09,-458.5 83.09,-440.5 28.74,-440.5"/>
<text text-anchor="middle" x="55.91" y="-446.5" font-family="Helvetica,sans-Serif" font-size="10.00">iostream</text>
</a>
</g>
</g>
<!-- Node2&#45;&gt;Node30 -->
<g id="edge35" class="edge">
<title>Node2&#45;&gt;Node30</title>
<path fill="none" stroke="midnightblue" d="M259.77,-610.72C192.61,-604.21 35.34,-587.18 19.91,-569 -5.49,-539.07 23.65,-491.56 42.46,-466.77"/>
<polygon fill="midnightblue" stroke="midnightblue" points="45.35,-468.75 48.8,-458.73 39.86,-464.41 45.35,-468.75"/>
</g>
<!-- Node4 -->
<g id="node4" class="node">
<title>Node4</title>
<g id="a_node4"><a xlink:href="../../d9/d1c/_xml_8h.html" target="_top" xlink:title=" ">
<polygon fill="none" stroke="black" points="253.69,-495.5 253.69,-513.5 324.14,-513.5 324.14,-495.5 253.69,-495.5"/>
<text text-anchor="middle" x="288.91" y="-501.5" font-family="Helvetica,sans-Serif" font-size="10.00">tralics/Xml.h</text>
</a>
</g>
</g>
<!-- Node3&#45;&gt;Node4 -->
<g id="edge3" class="edge">
<title>Node3&#45;&gt;Node4</title>
<path fill="none" stroke="midnightblue" d="M289.76,-550.22C289.62,-543.18 289.43,-532.81 289.26,-523.83"/>
<polygon fill="midnightblue" stroke="midnightblue" points="292.75,-523.48 289.07,-513.55 285.76,-523.61 292.75,-523.48"/>
</g>
<!-- Node5 -->
<g id="node5" class="node">
<title>Node5</title>
<g id="a_node5"><a xlink:href="../../d7/d1b/_buffer_8h.html" target="_top" xlink:title=" ">
<polygon fill="none" stroke="black" points="361.77,-440.5 361.77,-458.5 412.06,-458.5 412.06,-440.5 361.77,-440.5"/>
<text text-anchor="middle" x="386.91" y="-446.5" font-family="Helvetica,sans-Serif" font-size="10.00">Buffer.h</text>
</a>
</g>
</g>
<!-- Node4&#45;&gt;Node5 -->
<g id="edge4" class="edge">
<title>Node4&#45;&gt;Node5</title>
<path fill="none" stroke="midnightblue" d="M303.8,-495.45C319.48,-486.97 344.43,-473.48 362.9,-463.49"/>
<polygon fill="midnightblue" stroke="midnightblue" points="364.76,-466.46 371.89,-458.63 361.43,-460.3 364.76,-466.46"/>
</g>
<!-- Node29 -->
<g id="node29" class="node">
<title>Node29</title>
<g id="a_node29"><a xlink:title=" ">
<polygon fill="none" stroke="#bfbfbf" points="244.74,-440.5 244.74,-458.5 289.09,-458.5 289.09,-440.5 244.74,-440.5"/>
<text text-anchor="middle" x="266.91" y="-446.5" font-family="Helvetica,sans-Serif" font-size="10.00">gsl/gsl</text>
</a>
</g>
</g>
<!-- Node4&#45;&gt;Node29 -->
<g id="edge34" class="edge">
<title>Node4&#45;&gt;Node29</title>
<path fill="none" stroke="midnightblue" d="M285.48,-495.22C282.46,-487.94 277.96,-477.11 274.15,-467.93"/>
<polygon fill="midnightblue" stroke="midnightblue" points="277.32,-466.44 270.26,-458.55 270.86,-469.13 277.32,-466.44"/>
</g>
<!-- Node6 -->
<g id="node6" class="node">
<title>Node6</title>
<g id="a_node6"><a xlink:href="../../d1/d9e/txid_8h.html" target="_top" xlink:title=" ">
<polygon fill="none" stroke="black" points="326.8,-385.5 326.8,-403.5 375.03,-403.5 375.03,-385.5 326.8,-385.5"/>
<text text-anchor="middle" x="350.91" y="-391.5" font-family="Helvetica,sans-Serif" font-size="10.00">../txid.h</text>
</a>
</g>
</g>
<!-- Node5&#45;&gt;Node6 -->
<g id="edge5" class="edge">
<title>Node5&#45;&gt;Node6</title>
<path fill="none" stroke="midnightblue" d="M381.29,-440.22C376.19,-432.71 368.51,-421.41 362.16,-412.05"/>
<polygon fill="midnightblue" stroke="midnightblue" points="364.9,-409.86 356.38,-403.55 359.11,-413.79 364.9,-409.86"/>
</g>
<!-- Node20 -->
<g id="node20" class="node">
<title>Node20</title>
<g id="a_node20"><a xlink:href="../../d9/d18/txscaled_8h.html" target="_top" xlink:title=" ">
<polygon fill="none" stroke="black" points="456.23,-385.5 456.23,-403.5 525.59,-403.5 525.59,-385.5 456.23,-385.5"/>
<text text-anchor="middle" x="490.91" y="-391.5" font-family="Helvetica,sans-Serif" font-size="10.00">../txscaled.h</text>
</a>
</g>
</g>
<!-- Node5&#45;&gt;Node20 -->
<g id="edge22" class="edge">
<title>Node5&#45;&gt;Node20</title>
<path fill="none" stroke="midnightblue" d="M402.71,-440.45C419.51,-431.89 446.31,-418.23 465.97,-408.21"/>
<polygon fill="midnightblue" stroke="midnightblue" points="467.65,-411.28 474.97,-403.63 464.47,-405.05 467.65,-411.28"/>
</g>
<!-- Node28 -->
<g id="node28" class="node">
<title>Node28</title>
<g id="a_node28"><a xlink:title=" ">
<polygon fill="none" stroke="#bfbfbf" points="393.19,-385.5 393.19,-403.5 438.64,-403.5 438.64,-385.5 393.19,-385.5"/>
<text text-anchor="middle" x="415.91" y="-391.5" font-family="Helvetica,sans-Serif" font-size="10.00">cstring</text>
</a>
</g>
</g>
<!-- Node5&#45;&gt;Node28 -->
<g id="edge33" class="edge">
<title>Node5&#45;&gt;Node28</title>
<path fill="none" stroke="midnightblue" d="M391.45,-440.22C395.51,-432.79 401.61,-421.65 406.7,-412.34"/>
<polygon fill="midnightblue" stroke="midnightblue" points="409.78,-414 411.51,-403.55 403.64,-410.64 409.78,-414"/>
</g>
<!-- Node7 -->
<g id="node7" class="node">
<title>Node7</title>
<g id="a_node7"><a xlink:href="../../d5/daf/_istring_8h.html" target="_top" xlink:title=" ">
<polygon fill="none" stroke="black" points="372.68,-275.5 372.68,-293.5 453.15,-293.5 453.15,-275.5 372.68,-275.5"/>
<text text-anchor="middle" x="412.91" y="-281.5" font-family="Helvetica,sans-Serif" font-size="10.00">tralics/Istring.h</text>
</a>
</g>
</g>
<!-- Node6&#45;&gt;Node7 -->
<g id="edge6" class="edge">
<title>Node6&#45;&gt;Node7</title>
<path fill="none" stroke="midnightblue" d="M359.73,-385.39C368.41,-377 381.55,-363.15 389.91,-349 398.39,-334.65 404.55,-316.65 408.35,-303.48"/>
<polygon fill="midnightblue" stroke="midnightblue" points="411.75,-304.31 410.98,-293.74 404.99,-302.48 411.75,-304.31"/>
</g>
<!-- Node8 -->
<g id="node8" class="node">
<title>Node8</title>
<g id="a_node8"><a xlink:href="../../dd/d47/_str_hash_8h.html" target="_top" xlink:title=" ">
<polygon fill="none" stroke="black" points="326.68,-220.5 326.68,-238.5 387.15,-238.5 387.15,-220.5 326.68,-220.5"/>
<text text-anchor="middle" x="356.91" y="-226.5" font-family="Helvetica,sans-Serif" font-size="10.00">StrHash.h</text>
</a>
</g>
</g>
<!-- Node7&#45;&gt;Node8 -->
<g id="edge7" class="edge">
<title>Node7&#45;&gt;Node8</title>
<path fill="none" stroke="midnightblue" d="M404.16,-275.22C395.81,-267.32 383.04,-255.22 372.87,-245.61"/>
<polygon fill="midnightblue" stroke="midnightblue" points="375.09,-242.88 365.42,-238.55 370.28,-247.97 375.09,-242.88"/>
</g>
<!-- Node17 -->
<g id="node17" class="node">
<title>Node17</title>
<g id="a_node17"><a xlink:href="../../d0/d0b/enums_8h.html" target="_top" xlink:title=" ">
<polygon fill="none" stroke="black" points="622.74,-165.5 622.74,-183.5 677.09,-183.5 677.09,-165.5 622.74,-165.5"/>
<text text-anchor="middle" x="649.91" y="-171.5" font-family="Helvetica,sans-Serif" font-size="10.00">enums.h</text>
</a>
</g>
</g>
<!-- Node7&#45;&gt;Node17 -->
<g id="edge16" class="edge">
<title>Node7&#45;&gt;Node17</title>
<path fill="none" stroke="midnightblue" d="M430.68,-275.45C450.01,-266.66 481.77,-252.07 508.91,-239 525.93,-230.81 529.8,-227.97 546.91,-220 571.76,-208.43 600.41,-196.13 621.18,-187.41"/>
<polygon fill="midnightblue" stroke="midnightblue" points="622.53,-190.63 630.41,-183.55 619.83,-184.18 622.53,-190.63"/>
</g>
<!-- Node18 -->
<g id="node18" class="node">
<title>Node18</title>
<g id="a_node18"><a xlink:href="../../d8/d3c/util_8h.html" target="_top" xlink:title=" ">
<polygon fill="none" stroke="black" points="462.35,-220.5 462.35,-238.5 499.48,-238.5 499.48,-220.5 462.35,-220.5"/>
<text text-anchor="middle" x="480.91" y="-226.5" font-family="Helvetica,sans-Serif" font-size="10.00">util.h</text>
</a>
</g>
</g>
<!-- Node7&#45;&gt;Node18 -->
<g id="edge18" class="edge">
<title>Node7&#45;&gt;Node18</title>
<path fill="none" stroke="midnightblue" d="M423.24,-275.45C433.63,-267.36 449.86,-254.7 462.46,-244.88"/>
<polygon fill="midnightblue" stroke="midnightblue" points="464.75,-247.53 470.49,-238.63 460.45,-242.01 464.75,-247.53"/>
</g>
<!-- Node19 -->
<g id="node19" class="node">
<title>Node19</title>
<g id="a_node19"><a xlink:title=" ">
<polygon fill="none" stroke="#bfbfbf" points="405.52,-220.5 405.52,-238.5 444.31,-238.5 444.31,-220.5 405.52,-220.5"/>
<text text-anchor="middle" x="424.91" y="-226.5" font-family="Helvetica,sans-Serif" font-size="10.00">array</text>
</a>
</g>
</g>
<!-- Node7&#45;&gt;Node19 -->
<g id="edge21" class="edge">
<title>Node7&#45;&gt;Node19</title>
<path fill="none" stroke="midnightblue" d="M414.79,-275.22C416.4,-268.1 418.78,-257.58 420.83,-248.53"/>
<polygon fill="midnightblue" stroke="midnightblue" points="424.3,-249.08 423.09,-238.55 417.47,-247.53 424.3,-249.08"/>
</g>
<!-- Node9 -->
<g id="node9" class="node">
<title>Node9</title>
<g id="a_node9"><a xlink:href="../../d8/db5/consts_8h.html" target="_top" xlink:title=" ">
<polygon fill="none" stroke="black" points="615.29,-110.5 615.29,-128.5 668.53,-128.5 668.53,-110.5 615.29,-110.5"/>
<text text-anchor="middle" x="641.91" y="-116.5" font-family="Helvetica,sans-Serif" font-size="10.00">consts.h</text>
</a>
</g>
</g>
<!-- Node8&#45;&gt;Node9 -->
<g id="edge8" class="edge">
<title>Node8&#45;&gt;Node9</title>
<path fill="none" stroke="midnightblue" d="M366.24,-220.35C382.24,-206.8 416.43,-179.69 449.91,-165 501.26,-142.48 565.53,-130.55 605.15,-124.89"/>
<polygon fill="midnightblue" stroke="midnightblue" points="605.72,-128.35 615.16,-123.52 604.77,-121.41 605.72,-128.35"/>
</g>
<!-- Node14 -->
<g id="node14" class="node">
<title>Node14</title>
<g id="a_node14"><a xlink:title=" ">
<polygon fill="none" stroke="#bfbfbf" points="458.69,-165.5 458.69,-183.5 499.14,-183.5 499.14,-165.5 458.69,-165.5"/>
<text text-anchor="middle" x="478.91" y="-171.5" font-family="Helvetica,sans-Serif" font-size="10.00">string</text>
</a>
</g>
</g>
<!-- Node8&#45;&gt;Node14 -->
<g id="edge13" class="edge">
<title>Node8&#45;&gt;Node14</title>
<path fill="none" stroke="midnightblue" d="M375.44,-220.45C395.51,-211.73 427.74,-197.73 450.9,-187.67"/>
<polygon fill="midnightblue" stroke="midnightblue" points="452.43,-190.82 460.21,-183.63 449.64,-184.4 452.43,-190.82"/>
</g>
<!-- Node15 -->
<g id="node15" class="node">
<title>Node15</title>
<g id="a_node15"><a xlink:title=" ">
<polygon fill="none" stroke="#bfbfbf" points="284.61,-165.5 284.61,-183.5 371.22,-183.5 371.22,-165.5 284.61,-165.5"/>
<text text-anchor="middle" x="327.91" y="-171.5" font-family="Helvetica,sans-Serif" font-size="10.00">unordered_map</text>
</a>
</g>
</g>
<!-- Node8&#45;&gt;Node15 -->
<g id="edge14" class="edge">
<title>Node8&#45;&gt;Node15</title>
<path fill="none" stroke="midnightblue" d="M352.38,-220.22C348.32,-212.79 342.22,-201.65 337.13,-192.34"/>
<polygon fill="midnightblue" stroke="midnightblue" points="340.19,-190.64 332.32,-183.55 334.05,-194 340.19,-190.64"/>
</g>
<!-- Node16 -->
<g id="node16" class="node">
<title>Node16</title>
<g id="a_node16"><a xlink:title=" ">
<polygon fill="none" stroke="#bfbfbf" points="517.3,-165.5 517.3,-183.5 560.53,-183.5 560.53,-165.5 517.3,-165.5"/>
<text text-anchor="middle" x="538.91" y="-171.5" font-family="Helvetica,sans-Serif" font-size="10.00">vector</text>
</a>
</g>
</g>
<!-- Node8&#45;&gt;Node16 -->
<g id="edge15" class="edge">
<title>Node8&#45;&gt;Node16</title>
<path fill="none" stroke="midnightblue" d="M384.56,-220.45C417.68,-210.8 473.04,-194.68 507.68,-184.59"/>
<polygon fill="midnightblue" stroke="midnightblue" points="508.67,-187.95 517.3,-181.8 506.72,-181.23 508.67,-187.95"/>
</g>
<!-- Node10 -->
<g id="node10" class="node">
<title>Node10</title>
<g id="a_node10"><a xlink:href="../../d9/d49/types_8h.html" target="_top" xlink:title=" ">
<polygon fill="none" stroke="black" points="644.79,-55.5 644.79,-73.5 693.03,-73.5 693.03,-55.5 644.79,-55.5"/>
<text text-anchor="middle" x="668.91" y="-61.5" font-family="Helvetica,sans-Serif" font-size="10.00">types.h</text>
</a>
</g>
</g>
<!-- Node9&#45;&gt;Node10 -->
<g id="edge9" class="edge">
<title>Node9&#45;&gt;Node10</title>
<path fill="none" stroke="midnightblue" d="M646.13,-110.22C649.88,-102.86 655.47,-91.88 660.18,-82.64"/>
<polygon fill="midnightblue" stroke="midnightblue" points="663.39,-84.05 664.81,-73.55 657.16,-80.87 663.39,-84.05"/>
</g>
<!-- Node11 -->
<g id="node11" class="node">
<title>Node11</title>
<g id="a_node11"><a xlink:title=" ">
<polygon fill="none" stroke="#bfbfbf" points="578.8,-0.5 578.8,-18.5 627.03,-18.5 627.03,-0.5 578.8,-0.5"/>
<text text-anchor="middle" x="602.91" y="-6.5" font-family="Helvetica,sans-Serif" font-size="10.00">cassert</text>
</a>
</g>
</g>
<!-- Node10&#45;&gt;Node11 -->
<g id="edge10" class="edge">
<title>Node10&#45;&gt;Node11</title>
<path fill="none" stroke="midnightblue" d="M658.89,-55.45C648.91,-47.43 633.36,-34.95 621.18,-25.17"/>
<polygon fill="midnightblue" stroke="midnightblue" points="623.02,-22.16 613.03,-18.63 618.64,-27.62 623.02,-22.16"/>
</g>
<!-- Node12 -->
<g id="node12" class="node">
<title>Node12</title>
<g id="a_node12"><a xlink:title=" ">
<polygon fill="none" stroke="#bfbfbf" points="644.79,-0.5 644.79,-18.5 693.03,-18.5 693.03,-0.5 644.79,-0.5"/>
<text text-anchor="middle" x="668.91" y="-6.5" font-family="Helvetica,sans-Serif" font-size="10.00">cstddef</text>
</a>
</g>
</g>
<!-- Node10&#45;&gt;Node12 -->
<g id="edge11" class="edge">
<title>Node10&#45;&gt;Node12</title>
<path fill="none" stroke="midnightblue" d="M668.91,-55.22C668.91,-48.18 668.91,-37.81 668.91,-28.83"/>
<polygon fill="midnightblue" stroke="midnightblue" points="672.41,-28.55 668.91,-18.55 665.41,-28.55 672.41,-28.55"/>
</g>
<!-- Node13 -->
<g id="node13" class="node">
<title>Node13</title>
<g id="a_node13"><a xlink:title=" ">
<polygon fill="none" stroke="#bfbfbf" points="710.85,-0.5 710.85,-18.5 772.98,-18.5 772.98,-0.5 710.85,-0.5"/>
<text text-anchor="middle" x="741.91" y="-6.5" font-family="Helvetica,sans-Serif" font-size="10.00">type_traits</text>
</a>
</g>
</g>
<!-- Node10&#45;&gt;Node13 -->
<g id="edge12" class="edge">
<title>Node10&#45;&gt;Node13</title>
<path fill="none" stroke="midnightblue" d="M680,-55.45C691.26,-47.28 708.91,-34.46 722.49,-24.6"/>
<polygon fill="midnightblue" stroke="midnightblue" points="724.69,-27.33 730.72,-18.63 720.57,-21.67 724.69,-27.33"/>
</g>
<!-- Node17&#45;&gt;Node9 -->
<g id="edge17" class="edge">
<title>Node17&#45;&gt;Node9</title>
<path fill="none" stroke="midnightblue" d="M648.66,-165.22C647.59,-158.1 646,-147.58 644.64,-138.53"/>
<polygon fill="midnightblue" stroke="midnightblue" points="648.08,-137.92 643.13,-128.55 641.16,-138.96 648.08,-137.92"/>
</g>
<!-- Node18&#45;&gt;Node14 -->
<g id="edge19" class="edge">
<title>Node18&#45;&gt;Node14</title>
<path fill="none" stroke="midnightblue" d="M480.6,-220.22C480.34,-213.18 479.94,-202.81 479.61,-193.83"/>
<polygon fill="midnightblue" stroke="midnightblue" points="483.09,-193.41 479.22,-183.55 476.1,-193.67 483.09,-193.41"/>
</g>
<!-- Node18&#45;&gt;Node16 -->
<g id="edge20" class="edge">
<title>Node18&#45;&gt;Node16</title>
<path fill="none" stroke="midnightblue" d="M489.98,-220.22C498.71,-212.24 512.12,-199.98 522.69,-190.32"/>
<polygon fill="midnightblue" stroke="midnightblue" points="525.08,-192.88 530.1,-183.55 520.36,-187.71 525.08,-192.88"/>
</g>
<!-- Node21 -->
<g id="node21" class="node">
<title>Node21</title>
<g id="a_node21"><a xlink:href="../../dc/d91/txtokenlist_8h.html" target="_top" xlink:title=" ">
<polygon fill="none" stroke="black" points="456.51,-330.5 456.51,-348.5 525.32,-348.5 525.32,-330.5 456.51,-330.5"/>
<text text-anchor="middle" x="490.91" y="-336.5" font-family="Helvetica,sans-Serif" font-size="10.00">txtokenlist.h</text>
</a>
</g>
</g>
<!-- Node20&#45;&gt;Node21 -->
<g id="edge23" class="edge">
<title>Node20&#45;&gt;Node21</title>
<path fill="none" stroke="midnightblue" d="M490.91,-385.22C490.91,-378.18 490.91,-367.81 490.91,-358.83"/>
<polygon fill="midnightblue" stroke="midnightblue" points="494.41,-358.55 490.91,-348.55 487.41,-358.55 494.41,-358.55"/>
</g>
<!-- Node21&#45;&gt;Node7 -->
<g id="edge24" class="edge">
<title>Node21&#45;&gt;Node7</title>
<path fill="none" stroke="midnightblue" d="M479.07,-330.45C466.93,-322.2 447.82,-309.22 433.25,-299.32"/>
<polygon fill="midnightblue" stroke="midnightblue" points="435.11,-296.35 424.87,-293.63 431.18,-302.14 435.11,-296.35"/>
</g>
<!-- Node22 -->
<g id="node22" class="node">
<title>Node22</title>
<g id="a_node22"><a xlink:href="../../dd/dcd/_token_8h.html" target="_top" xlink:title=" ">
<polygon fill="none" stroke="black" points="527.96,-275.5 527.96,-293.5 607.87,-293.5 607.87,-275.5 527.96,-275.5"/>
<text text-anchor="middle" x="567.91" y="-281.5" font-family="Helvetica,sans-Serif" font-size="10.00">tralics/Token.h</text>
</a>
</g>
</g>
<!-- Node21&#45;&gt;Node22 -->
<g id="edge25" class="edge">
<title>Node21&#45;&gt;Node22</title>
<path fill="none" stroke="midnightblue" d="M502.61,-330.45C514.59,-322.2 533.46,-309.22 547.84,-299.32"/>
<polygon fill="midnightblue" stroke="midnightblue" points="549.86,-302.18 556.11,-293.63 545.89,-296.41 549.86,-302.18"/>
</g>
<!-- Node27 -->
<g id="node27" class="node">
<title>Node27</title>
<g id="a_node27"><a xlink:title=" ">
<polygon fill="none" stroke="#bfbfbf" points="471.52,-275.5 471.52,-293.5 510.31,-293.5 510.31,-275.5 471.52,-275.5"/>
<text text-anchor="middle" x="490.91" y="-281.5" font-family="Helvetica,sans-Serif" font-size="10.00">utility</text>
</a>
</g>
</g>
<!-- Node21&#45;&gt;Node27 -->
<g id="edge32" class="edge">
<title>Node21&#45;&gt;Node27</title>
<path fill="none" stroke="midnightblue" d="M490.91,-330.22C490.91,-323.18 490.91,-312.81 490.91,-303.83"/>
<polygon fill="midnightblue" stroke="midnightblue" points="494.41,-303.55 490.91,-293.55 487.41,-303.55 494.41,-303.55"/>
</g>
<!-- Node23 -->
<g id="node23" class="node">
<title>Node23</title>
<g id="a_node23"><a xlink:href="../../d2/d68/_cmd_chr_8h.html" target="_top" xlink:title=" ">
<polygon fill="none" stroke="black" points="713.4,-220.5 713.4,-238.5 774.42,-238.5 774.42,-220.5 713.4,-220.5"/>
<text text-anchor="middle" x="743.91" y="-226.5" font-family="Helvetica,sans-Serif" font-size="10.00">CmdChr.h</text>
</a>
</g>
</g>
<!-- Node22&#45;&gt;Node23 -->
<g id="edge26" class="edge">
<title>Node22&#45;&gt;Node23</title>
<path fill="none" stroke="midnightblue" d="M594.64,-275.45C624.71,-266.4 673.72,-251.64 707.32,-241.52"/>
<polygon fill="midnightblue" stroke="midnightblue" points="708.65,-244.77 717.22,-238.54 706.64,-238.07 708.65,-244.77"/>
</g>
<!-- Node26 -->
<g id="node26" class="node">
<title>Node26</title>
<g id="a_node26"><a xlink:title=" ">
<polygon fill="none" stroke="#bfbfbf" points="556.41,-220.5 556.41,-238.5 585.41,-238.5 585.41,-220.5 556.41,-220.5"/>
<text text-anchor="middle" x="570.52" y="-226.5" font-family="Helvetica,sans-Serif" font-size="10.00">list</text>
</a>
</g>
</g>
<!-- Node22&#45;&gt;Node26 -->
<g id="edge31" class="edge">
<title>Node22&#45;&gt;Node26</title>
<path fill="none" stroke="midnightblue" d="M568.38,-275.22C568.78,-268.18 569.37,-257.81 569.88,-248.83"/>
<polygon fill="midnightblue" stroke="midnightblue" points="573.39,-248.73 570.46,-238.55 566.4,-248.34 573.39,-248.73"/>
</g>
<!-- Node23&#45;&gt;Node17 -->
<g id="edge30" class="edge">
<title>Node23&#45;&gt;Node17</title>
<path fill="none" stroke="midnightblue" d="M729.64,-220.45C714.73,-212.05 691.1,-198.72 673.43,-188.76"/>
<polygon fill="midnightblue" stroke="midnightblue" points="674.75,-185.49 664.32,-183.63 671.32,-191.59 674.75,-185.49"/>
</g>
<!-- Node24 -->
<g id="node24" class="node">
<title>Node24</title>
<g id="a_node24"><a xlink:href="../../d8/d47/codepoint_8h.html" target="_top" xlink:title=" ">
<polygon fill="none" stroke="black" points="710.06,-165.5 710.06,-183.5 777.77,-183.5 777.77,-165.5 710.06,-165.5"/>
<text text-anchor="middle" x="743.91" y="-171.5" font-family="Helvetica,sans-Serif" font-size="10.00">codepoint.h</text>
</a>
</g>
</g>
<!-- Node23&#45;&gt;Node24 -->
<g id="edge27" class="edge">
<title>Node23&#45;&gt;Node24</title>
<path fill="none" stroke="midnightblue" d="M743.91,-220.22C743.91,-213.18 743.91,-202.81 743.91,-193.83"/>
<polygon fill="midnightblue" stroke="midnightblue" points="747.41,-193.55 743.91,-183.55 740.41,-193.55 747.41,-193.55"/>
</g>
<!-- Node24&#45;&gt;Node10 -->
<g id="edge28" class="edge">
<title>Node24&#45;&gt;Node10</title>
<path fill="none" stroke="midnightblue" d="M738.28,-165.38C726.01,-147.71 696.67,-105.47 680.36,-81.98"/>
<polygon fill="midnightblue" stroke="midnightblue" points="683.2,-79.93 674.62,-73.71 677.45,-83.92 683.2,-79.93"/>
</g>
<!-- Node25 -->
<g id="node25" class="node">
<title>Node25</title>
<g id="a_node25"><a xlink:title=" ">
<polygon fill="none" stroke="#bfbfbf" points="725.4,-110.5 725.4,-128.5 776.43,-128.5 776.43,-110.5 725.4,-110.5"/>
<text text-anchor="middle" x="750.91" y="-116.5" font-family="Helvetica,sans-Serif" font-size="10.00">optional</text>
</a>
</g>
</g>
<!-- Node24&#45;&gt;Node25 -->
<g id="edge29" class="edge">
<title>Node24&#45;&gt;Node25</title>
<path fill="none" stroke="midnightblue" d="M745.01,-165.22C745.95,-158.1 747.34,-147.58 748.53,-138.53"/>
<polygon fill="midnightblue" stroke="midnightblue" points="752.01,-138.92 749.85,-128.55 745.07,-138.01 752.01,-138.92"/>
</g>
<!-- Node32 -->
<g id="node32" class="node">
<title>Node32</title>
<g id="a_node32"><a xlink:href="../../d4/de9/_main_class_8h.html" target="_top" xlink:title=" ">
<polygon fill="none" stroke="black" points="28.96,-550.5 28.96,-568.5 128.87,-568.5 128.87,-550.5 28.96,-550.5"/>
<text text-anchor="middle" x="78.91" y="-556.5" font-family="Helvetica,sans-Serif" font-size="10.00">tralics/MainClass.h</text>
</a>
</g>
</g>
<!-- Node31&#45;&gt;Node32 -->
<g id="edge37" class="edge">
<title>Node31&#45;&gt;Node32</title>
<path fill="none" stroke="midnightblue" d="M120.26,-605.22C113.1,-597.47 102.21,-585.7 93.41,-576.18"/>
<polygon fill="midnightblue" stroke="midnightblue" points="95.71,-573.52 86.36,-568.55 90.57,-578.27 95.71,-573.52"/>
</g>
<!-- Node35 -->
<g id="node35" class="node">
<title>Node35</title>
<g id="a_node35"><a xlink:href="../../d2/d06/txlogger_8h.html" target="_top" xlink:title=" ">
<polygon fill="none" stroke="black" points="91.23,-495.5 91.23,-513.5 150.6,-513.5 150.6,-495.5 91.23,-495.5"/>
<text text-anchor="middle" x="120.91" y="-501.5" font-family="Helvetica,sans-Serif" font-size="10.00">txlogger.h</text>
</a>
</g>
</g>
<!-- Node31&#45;&gt;Node35 -->
<g id="edge41" class="edge">
<title>Node31&#45;&gt;Node35</title>
<path fill="none" stroke="midnightblue" d="M99.9,-610.55C74.23,-606.2 37.63,-595.46 19.91,-569 1.48,-541.47 45.52,-523.55 81.15,-513.98"/>
<polygon fill="midnightblue" stroke="midnightblue" points="82.09,-517.35 90.92,-511.5 80.37,-510.57 82.09,-517.35"/>
</g>
<!-- Node36 -->
<g id="node36" class="node">
<title>Node36</title>
<g id="a_node36"><a xlink:href="../../d5/d08/txparam_8h.html" target="_top" xlink:title=" ">
<polygon fill="none" stroke="black" points="146.68,-550.5 146.68,-568.5 207.15,-568.5 207.15,-550.5 146.68,-550.5"/>
<text text-anchor="middle" x="176.91" y="-556.5" font-family="Helvetica,sans-Serif" font-size="10.00">txparam.h</text>
</a>
</g>
</g>
<!-- Node31&#45;&gt;Node36 -->
<g id="edge47" class="edge">
<title>Node31&#45;&gt;Node36</title>
<path fill="none" stroke="midnightblue" d="M135.57,-605.22C142.73,-597.47 153.61,-585.7 162.42,-576.18"/>
<polygon fill="midnightblue" stroke="midnightblue" points="165.25,-578.27 169.47,-568.55 160.11,-573.52 165.25,-578.27"/>
</g>
<!-- Node33 -->
<g id="node33" class="node">
<title>Node33</title>
<g id="a_node33"><a xlink:href="../../de/d29/txio_8h.html" target="_top" xlink:title=" ">
<polygon fill="none" stroke="black" points="177.8,-495.5 177.8,-513.5 226.03,-513.5 226.03,-495.5 177.8,-495.5"/>
<text text-anchor="middle" x="201.91" y="-501.5" font-family="Helvetica,sans-Serif" font-size="10.00">../txio.h</text>
</a>
</g>
</g>
<!-- Node32&#45;&gt;Node33 -->
<g id="edge38" class="edge">
<title>Node32&#45;&gt;Node33</title>
<path fill="none" stroke="midnightblue" d="M97.59,-550.45C117.82,-541.73 150.32,-527.73 173.67,-517.67"/>
<polygon fill="midnightblue" stroke="midnightblue" points="175.26,-520.8 183.06,-513.63 172.49,-514.37 175.26,-520.8"/>
</g>
<!-- Node33&#45;&gt;Node5 -->
<g id="edge39" class="edge">
<title>Node33&#45;&gt;Node5</title>
<path fill="none" stroke="midnightblue" d="M226.1,-496.57C258.15,-487.39 314.92,-471.12 351.72,-460.58"/>
<polygon fill="midnightblue" stroke="midnightblue" points="352.89,-463.89 361.54,-457.77 350.96,-457.16 352.89,-463.89"/>
</g>
<!-- Node34 -->
<g id="node34" class="node">
<title>Node34</title>
<g id="a_node34"><a xlink:title=" ">
<polygon fill="none" stroke="#bfbfbf" points="177.24,-440.5 177.24,-458.5 226.58,-458.5 226.58,-440.5 177.24,-440.5"/>
<text text-anchor="middle" x="201.91" y="-446.5" font-family="Helvetica,sans-Serif" font-size="10.00">fstream</text>
</a>
</g>
</g>
<!-- Node33&#45;&gt;Node34 -->
<g id="edge40" class="edge">
<title>Node33&#45;&gt;Node34</title>
<path fill="none" stroke="midnightblue" d="M201.91,-495.22C201.91,-488.18 201.91,-477.81 201.91,-468.83"/>
<polygon fill="midnightblue" stroke="midnightblue" points="205.41,-468.55 201.91,-458.55 198.41,-468.55 205.41,-468.55"/>
</g>
<!-- Node35&#45;&gt;Node5 -->
<g id="edge42" class="edge">
<title>Node35&#45;&gt;Node5</title>
<path fill="none" stroke="midnightblue" d="M150.65,-497.57C200.09,-487.72 298.97,-468.02 351.77,-457.5"/>
<polygon fill="midnightblue" stroke="midnightblue" points="352.57,-460.91 361.69,-455.53 351.2,-454.05 352.57,-460.91"/>
</g>
<!-- Node35&#45;&gt;Node6 -->
<g id="edge43" class="edge">
<title>Node35&#45;&gt;Node6</title>
<path fill="none" stroke="midnightblue" d="M120.13,-495.16C119.35,-481.58 119.96,-454.74 134.91,-440 160.15,-415.11 261.87,-402.95 316.24,-398.12"/>
<polygon fill="midnightblue" stroke="midnightblue" points="316.78,-401.59 326.45,-397.25 316.19,-394.61 316.78,-401.59"/>
</g>
<!-- Node35&#45;&gt;Node20 -->
<g id="edge44" class="edge">
<title>Node35&#45;&gt;Node20</title>
<path fill="none" stroke="midnightblue" d="M124.39,-495.2C130.75,-481.18 145.68,-453.05 167.91,-440 273.37,-378.1 321.6,-421.83 446.31,-404.08"/>
<polygon fill="midnightblue" stroke="midnightblue" points="446.86,-407.54 456.22,-402.57 445.8,-400.62 446.86,-407.54"/>
</g>
<!-- Node35&#45;&gt;Node30 -->
<g id="edge46" class="edge">
<title>Node35&#45;&gt;Node30</title>
<path fill="none" stroke="midnightblue" d="M111.04,-495.45C101.21,-487.43 85.9,-474.95 73.9,-465.17"/>
<polygon fill="midnightblue" stroke="midnightblue" points="75.84,-462.23 65.88,-458.63 71.42,-467.66 75.84,-462.23"/>
</g>
<!-- Node35&#45;&gt;Node34 -->
<g id="edge45" class="edge">
<title>Node35&#45;&gt;Node34</title>
<path fill="none" stroke="midnightblue" d="M133.22,-495.45C145.82,-487.2 165.67,-474.22 180.79,-464.32"/>
<polygon fill="midnightblue" stroke="midnightblue" points="183.04,-467.03 189.5,-458.63 179.21,-461.17 183.04,-467.03"/>
</g>
<!-- Node36&#45;&gt;Node33 -->
<g id="edge48" class="edge">
<title>Node36&#45;&gt;Node33</title>
<path fill="none" stroke="midnightblue" d="M180.82,-550.22C184.29,-542.86 189.47,-531.88 193.83,-522.64"/>
<polygon fill="midnightblue" stroke="midnightblue" points="197.02,-524.09 198.12,-513.55 190.69,-521.1 197.02,-524.09"/>
</g>
<!-- Node37&#45;&gt;Node33 -->
<g id="edge71" class="edge">
<title>Node37&#45;&gt;Node33</title>
<path fill="none" stroke="midnightblue" d="M404.77,-611.89C366.89,-608.64 301.12,-598.79 253.91,-569 235.51,-557.39 220.55,-537.02 211.48,-522.49"/>
<polygon fill="midnightblue" stroke="midnightblue" points="214.29,-520.35 206.18,-513.54 208.26,-523.92 214.29,-520.35"/>
</g>
<!-- Node38 -->
<g id="node38" class="node">
<title>Node38</title>
<g id="a_node38"><a xlink:href="../../d8/dd6/_e_q_t_b_8h.html" target="_top" xlink:title=" ">
<polygon fill="none" stroke="black" points="445.68,-440.5 445.68,-458.5 526.14,-458.5 526.14,-440.5 445.68,-440.5"/>
<text text-anchor="middle" x="485.91" y="-446.5" font-family="Helvetica,sans-Serif" font-size="10.00">tralics/EQTB.h</text>
</a>
</g>
</g>
<!-- Node37&#45;&gt;Node38 -->
<g id="edge50" class="edge">
<title>Node37&#45;&gt;Node38</title>
<path fill="none" stroke="midnightblue" d="M447.61,-605.47C459.17,-597.53 475.92,-584.37 485.91,-569 504.31,-540.71 509.04,-528.19 502.91,-495 501.22,-485.84 497.73,-476.12 494.35,-468.12"/>
<polygon fill="midnightblue" stroke="midnightblue" points="497.43,-466.44 490.12,-458.76 491.05,-469.32 497.43,-466.44"/>
</g>
<!-- Node39 -->
<g id="node39" class="node">
<title>Node39</title>
<g id="a_node39"><a xlink:href="../../da/d27/_hashtab_8h.html" target="_top" xlink:title=" ">
<polygon fill="none" stroke="black" points="403.67,-495.5 403.67,-513.5 494.15,-513.5 494.15,-495.5 403.67,-495.5"/>
<text text-anchor="middle" x="448.91" y="-501.5" font-family="Helvetica,sans-Serif" font-size="10.00">tralics/Hashtab.h</text>
</a>
</g>
</g>
<!-- Node37&#45;&gt;Node39 -->
<g id="edge52" class="edge">
<title>Node37&#45;&gt;Node39</title>
<path fill="none" stroke="midnightblue" d="M444.4,-605.44C453.19,-597.28 465.68,-583.8 470.91,-569 476.5,-553.22 468.92,-535.19 461.17,-522.38"/>
<polygon fill="midnightblue" stroke="midnightblue" points="463.88,-520.13 455.43,-513.73 458.04,-524 463.88,-520.13"/>
</g>
<!-- Node41 -->
<g id="node41" class="node">
<title>Node41</title>
<g id="a_node41"><a xlink:href="../../d3/d6b/txcond_8h.html" target="_top" xlink:title=" ">
<polygon fill="none" stroke="black" points="642.01,-220.5 642.01,-238.5 695.82,-238.5 695.82,-220.5 642.01,-220.5"/>
<text text-anchor="middle" x="668.91" y="-226.5" font-family="Helvetica,sans-Serif" font-size="10.00">txcond.h</text>
</a>
</g>
</g>
<!-- Node37&#45;&gt;Node41 -->
<g id="edge59" class="edge">
<title>Node37&#45;&gt;Node41</title>
<path fill="none" stroke="midnightblue" d="M465.13,-605.98C505,-595.92 572.91,-578.29 596.91,-569 655.03,-546.52 721.91,-567.81 721.91,-505.5 721.91,-505.5 721.91,-505.5 721.91,-393.5 721.91,-337.87 693.65,-276.56 678.4,-247.53"/>
<polygon fill="midnightblue" stroke="midnightblue" points="681.45,-245.81 673.62,-238.68 675.29,-249.14 681.45,-245.81"/>
</g>
<!-- Node42 -->
<g id="node42" class="node">
<title>Node42</title>
<g id="a_node42"><a xlink:href="../../d7/d4d/txfonts_8h.html" target="_top" xlink:title=" ">
<polygon fill="none" stroke="black" points="327.01,-330.5 327.01,-348.5 380.81,-348.5 380.81,-330.5 327.01,-330.5"/>
<text text-anchor="middle" x="353.91" y="-336.5" font-family="Helvetica,sans-Serif" font-size="10.00">txfonts.h</text>
</a>
</g>
</g>
<!-- Node37&#45;&gt;Node42 -->
<g id="edge62" class="edge">
<title>Node37&#45;&gt;Node42</title>
<path fill="none" stroke="midnightblue" d="M404.68,-610.71C310.36,-601.94 27.34,-575.17 19.91,-569 -2.74,-550.17 0.91,-534.96 0.91,-505.5 0.91,-505.5 0.91,-505.5 0.91,-448.5 0.91,-383 225.97,-353.24 316.68,-343.91"/>
<polygon fill="midnightblue" stroke="midnightblue" points="317.2,-347.38 326.8,-342.9 316.5,-340.41 317.2,-347.38"/>
</g>
<!-- Node43 -->
<g id="node43" class="node">
<title>Node43</title>
<g id="a_node43"><a xlink:href="../../d7/d7e/txhash_8h.html" target="_top" xlink:title=" ">
<polygon fill="none" stroke="black" points="550.01,-495.5 550.01,-513.5 603.82,-513.5 603.82,-495.5 550.01,-495.5"/>
<text text-anchor="middle" x="576.91" y="-501.5" font-family="Helvetica,sans-Serif" font-size="10.00">txhash.h</text>
</a>
</g>
</g>
<!-- Node37&#45;&gt;Node43 -->
<g id="edge65" class="edge">
<title>Node37&#45;&gt;Node43</title>
<path fill="none" stroke="midnightblue" d="M465.09,-606.77C488.31,-600.32 520.04,-588.6 541.91,-569 555.81,-556.55 565.35,-537.23 570.92,-523.17"/>
<polygon fill="midnightblue" stroke="midnightblue" points="574.25,-524.24 574.41,-513.64 567.68,-521.83 574.25,-524.24"/>
</g>
<!-- Node44 -->
<g id="node44" class="node">
<title>Node44</title>
<g id="a_node44"><a xlink:href="../../de/d7c/tximage_8h.html" target="_top" xlink:title=" ">
<polygon fill="none" stroke="black" points="596.24,-330.5 596.24,-348.5 655.59,-348.5 655.59,-330.5 596.24,-330.5"/>
<text text-anchor="middle" x="625.91" y="-336.5" font-family="Helvetica,sans-Serif" font-size="10.00">tximage.h</text>
</a>
</g>
</g>
<!-- Node37&#45;&gt;Node44 -->
<g id="edge68" class="edge">
<title>Node37&#45;&gt;Node44</title>
<path fill="none" stroke="midnightblue" d="M464.88,-606.96C492.06,-600.17 532.55,-587.87 563.91,-569 599.34,-547.68 631.91,-546.85 631.91,-505.5 631.91,-505.5 631.91,-505.5 631.91,-448.5 631.91,-416.97 629.33,-380.34 627.56,-358.86"/>
<polygon fill="midnightblue" stroke="midnightblue" points="631.02,-358.28 626.67,-348.62 624.05,-358.88 631.02,-358.28"/>
</g>
<!-- Node45 -->
<g id="node45" class="node">
<title>Node45</title>
<g id="a_node45"><a xlink:href="../../dc/d65/txstack_8h.html" target="_top" xlink:title=" ">
<polygon fill="none" stroke="black" points="335.18,-550.5 335.18,-568.5 390.64,-568.5 390.64,-550.5 335.18,-550.5"/>
<text text-anchor="middle" x="362.91" y="-556.5" font-family="Helvetica,sans-Serif" font-size="10.00">txstack.h</text>
</a>
</g>
</g>
<!-- Node37&#45;&gt;Node45 -->
<g id="edge72" class="edge">
<title>Node37&#45;&gt;Node45</title>
<path fill="none" stroke="midnightblue" d="M423.98,-605.45C412.88,-597.28 395.46,-584.46 382.07,-574.6"/>
<polygon fill="midnightblue" stroke="midnightblue" points="384.08,-571.73 373.95,-568.63 379.93,-577.37 384.08,-571.73"/>
</g>
<!-- Node47 -->
<g id="node47" class="node">
<title>Node47</title>
<g id="a_node47"><a xlink:href="../../d8/d3d/txstats_8h.html" target="_top" xlink:title=" ">
<polygon fill="none" stroke="black" points="408.3,-550.5 408.3,-568.5 461.53,-568.5 461.53,-550.5 408.3,-550.5"/>
<text text-anchor="middle" x="434.91" y="-556.5" font-family="Helvetica,sans-Serif" font-size="10.00">txstats.h</text>
</a>
</g>
</g>
<!-- Node37&#45;&gt;Node47 -->
<g id="edge75" class="edge">
<title>Node37&#45;&gt;Node47</title>
<path fill="none" stroke="midnightblue" d="M434.91,-605.22C434.91,-598.18 434.91,-587.81 434.91,-578.83"/>
<polygon fill="midnightblue" stroke="midnightblue" points="438.41,-578.55 434.91,-568.55 431.41,-578.55 438.41,-578.55"/>
</g>
<!-- Node38&#45;&gt;Node20 -->
<g id="edge51" class="edge">
<title>Node38&#45;&gt;Node20</title>
<path fill="none" stroke="midnightblue" d="M486.7,-440.22C487.37,-433.1 488.36,-422.58 489.21,-413.53"/>
<polygon fill="midnightblue" stroke="midnightblue" points="492.7,-413.83 490.15,-403.55 485.73,-413.18 492.7,-413.83"/>
</g>
<!-- Node39&#45;&gt;Node5 -->
<g id="edge57" class="edge">
<title>Node39&#45;&gt;Node5</title>
<path fill="none" stroke="midnightblue" d="M439.5,-495.45C430.12,-487.43 415.51,-474.95 404.07,-465.17"/>
<polygon fill="midnightblue" stroke="midnightblue" points="406.29,-462.46 396.42,-458.63 401.75,-467.78 406.29,-462.46"/>
</g>
<!-- Node39&#45;&gt;Node15 -->
<g id="edge58" class="edge">
<title>Node39&#45;&gt;Node15</title>
<path fill="none" stroke="midnightblue" d="M421.3,-495.41C400.7,-488.33 372.82,-476.42 352.91,-459 309.37,-420.88 298.91,-398.38 298.91,-340.5 298.91,-340.5 298.91,-340.5 298.91,-283.5 298.91,-250.62 311.61,-213.97 320.2,-192.93"/>
<polygon fill="midnightblue" stroke="midnightblue" points="323.43,-194.27 324.12,-183.7 316.99,-191.53 323.43,-194.27"/>
</g>
<!-- Node40 -->
<g id="node40" class="node">
<title>Node40</title>
<g id="a_node40"><a xlink:href="../../d3/d01/txeqtb_8h.html" target="_top" xlink:title=" ">
<polygon fill="none" stroke="black" points="543.96,-440.5 543.96,-458.5 603.87,-458.5 603.87,-440.5 543.96,-440.5"/>
<text text-anchor="middle" x="573.91" y="-446.5" font-family="Helvetica,sans-Serif" font-size="10.00">../txeqtb.h</text>
</a>
</g>
</g>
<!-- Node39&#45;&gt;Node40 -->
<g id="edge53" class="edge">
<title>Node39&#45;&gt;Node40</title>
<path fill="none" stroke="midnightblue" d="M467.9,-495.45C488.55,-486.7 521.78,-472.61 545.53,-462.53"/>
<polygon fill="midnightblue" stroke="midnightblue" points="546.91,-465.75 554.75,-458.63 544.18,-459.31 546.91,-465.75"/>
</g>
<!-- Node40&#45;&gt;Node20 -->
<g id="edge56" class="edge">
<title>Node40&#45;&gt;Node20</title>
<path fill="none" stroke="midnightblue" d="M561.31,-440.45C548.27,-432.12 527.67,-418.97 512.12,-409.04"/>
<polygon fill="midnightblue" stroke="midnightblue" points="513.95,-406.06 503.64,-403.63 510.18,-411.96 513.95,-406.06"/>
</g>
<!-- Node40&#45;&gt;Node22 -->
<g id="edge55" class="edge">
<title>Node40&#45;&gt;Node22</title>
<path fill="none" stroke="midnightblue" d="M573.61,-440.19C572.68,-415.01 569.89,-339.11 568.59,-303.86"/>
<polygon fill="midnightblue" stroke="midnightblue" points="572.08,-303.46 568.21,-293.6 565.08,-303.72 572.08,-303.46"/>
</g>
<!-- Node40&#45;&gt;Node23 -->
<g id="edge54" class="edge">
<title>Node40&#45;&gt;Node23</title>
<path fill="none" stroke="midnightblue" d="M582.16,-440.37C598.7,-423.86 636.77,-384.94 664.91,-349 691.99,-314.42 719.53,-270.78 733.85,-247.3"/>
<polygon fill="midnightblue" stroke="midnightblue" points="736.96,-248.92 739.14,-238.55 730.97,-245.3 736.96,-248.92"/>
</g>
<!-- Node41&#45;&gt;Node16 -->
<g id="edge61" class="edge">
<title>Node41&#45;&gt;Node16</title>
<path fill="none" stroke="midnightblue" d="M649.17,-220.45C627.6,-211.66 592.83,-197.48 568.1,-187.4"/>
<polygon fill="midnightblue" stroke="midnightblue" points="569.43,-184.16 558.84,-183.63 566.78,-190.64 569.43,-184.16"/>
</g>
<!-- Node41&#45;&gt;Node17 -->
<g id="edge60" class="edge">
<title>Node41&#45;&gt;Node17</title>
<path fill="none" stroke="midnightblue" d="M665.95,-220.22C663.36,-213.02 659.54,-202.35 656.27,-193.23"/>
<polygon fill="midnightblue" stroke="midnightblue" points="659.47,-191.78 652.8,-183.55 652.88,-194.14 659.47,-191.78"/>
</g>
<!-- Node42&#45;&gt;Node8 -->
<g id="edge64" class="edge">
<title>Node42&#45;&gt;Node8</title>
<path fill="none" stroke="midnightblue" d="M354.14,-330.38C354.62,-313.18 355.74,-272.7 356.4,-248.89"/>
<polygon fill="midnightblue" stroke="midnightblue" points="359.91,-248.81 356.69,-238.71 352.91,-248.61 359.91,-248.81"/>
</g>
<!-- Node42&#45;&gt;Node27 -->
<g id="edge63" class="edge">
<title>Node42&#45;&gt;Node27</title>
<path fill="none" stroke="midnightblue" d="M374.72,-330.45C397.95,-321.46 435.71,-306.86 461.85,-296.74"/>
<polygon fill="midnightblue" stroke="midnightblue" points="463.18,-299.98 471.25,-293.11 460.66,-293.45 463.18,-299.98"/>
</g>
<!-- Node43&#45;&gt;Node5 -->
<g id="edge66" class="edge">
<title>Node43&#45;&gt;Node5</title>
<path fill="none" stroke="midnightblue" d="M549.69,-495.91C516.11,-486.54 458.96,-470.6 422.09,-460.31"/>
<polygon fill="midnightblue" stroke="midnightblue" points="422.84,-456.89 412.26,-457.57 420.96,-463.63 422.84,-456.89"/>
</g>
<!-- Node43&#45;&gt;Node40 -->
<g id="edge67" class="edge">
<title>Node43&#45;&gt;Node40</title>
<path fill="none" stroke="midnightblue" d="M576.45,-495.22C576.05,-488.18 575.46,-477.81 574.95,-468.83"/>
<polygon fill="midnightblue" stroke="midnightblue" points="578.43,-468.34 574.37,-458.55 571.44,-468.73 578.43,-468.34"/>
</g>
<!-- Node44&#45;&gt;Node14 -->
<g id="edge69" class="edge">
<title>Node44&#45;&gt;Node14</title>
<path fill="none" stroke="midnightblue" d="M626.33,-330.21C626.92,-308.69 625.37,-250.62 593.91,-220 587.53,-213.78 540.81,-196.83 508.92,-185.74"/>
<polygon fill="midnightblue" stroke="midnightblue" points="509.75,-182.32 499.16,-182.36 507.47,-188.94 509.75,-182.32"/>
</g>
<!-- Node44&#45;&gt;Node27 -->
<g id="edge70" class="edge">
<title>Node44&#45;&gt;Node27</title>
<path fill="none" stroke="midnightblue" d="M605.41,-330.45C582.75,-321.55 546.06,-307.15 520.34,-297.05"/>
<polygon fill="midnightblue" stroke="midnightblue" points="521.32,-293.68 510.73,-293.28 518.76,-300.19 521.32,-293.68"/>
</g>
<!-- Node45&#45;&gt;Node4 -->
<g id="edge73" class="edge">
<title>Node45&#45;&gt;Node4</title>
<path fill="none" stroke="midnightblue" d="M351.67,-550.45C340.27,-542.28 322.37,-529.46 308.6,-519.6"/>
<polygon fill="midnightblue" stroke="midnightblue" points="310.43,-516.6 300.26,-513.63 306.35,-522.29 310.43,-516.6"/>
</g>
<!-- Node46 -->
<g id="node46" class="node">
<title>Node46</title>
<g id="a_node46"><a xlink:href="../../d4/da4/txatt_8h.html" target="_top" xlink:title=" ">
<polygon fill="none" stroke="black" points="342.3,-495.5 342.3,-513.5 385.53,-513.5 385.53,-495.5 342.3,-495.5"/>
<text text-anchor="middle" x="363.91" y="-501.5" font-family="Helvetica,sans-Serif" font-size="10.00">txatt.h</text>
</a>
</g>
</g>
<!-- Node45&#45;&gt;Node46 -->
<g id="edge74" class="edge">
<title>Node45&#45;&gt;Node46</title>
<path fill="none" stroke="midnightblue" d="M363.07,-550.22C363.2,-543.18 363.4,-532.81 363.57,-523.83"/>
<polygon fill="midnightblue" stroke="midnightblue" points="367.07,-523.61 363.76,-513.55 360.07,-523.48 367.07,-523.61"/>
</g>
</g>
</svg>
