<?xml version="1.0" encoding="UTF-8" standalone="no"?>
<!DOCTYPE svg PUBLIC "-//W3C//DTD SVG 1.1//EN"
 "http://www.w3.org/Graphics/SVG/1.1/DTD/svg11.dtd">
<!-- Generated by graphviz version 2.42.3 (20191010.1750)
 -->
<!-- Title: txmath1.cpp Pages: 1 -->
<svg width="725pt" height="742pt"
 viewBox="0.00 0.00 724.75 742.00" xmlns="http://www.w3.org/2000/svg" xmlns:xlink="http://www.w3.org/1999/xlink">
<g id="graph0" class="graph" transform="scale(1 1) rotate(0) translate(4 738)">
<title>txmath1.cpp</title>
<!-- Node1 -->
<g id="node1" class="node">
<title>Node1</title>
<g id="a_node1"><a xlink:title=" ">
<polygon fill="#bfbfbf" stroke="black" points="474.45,-715.5 474.45,-733.5 544.92,-733.5 544.92,-715.5 474.45,-715.5"/>
<text text-anchor="middle" x="509.68" y="-721.5" font-family="Helvetica,sans-Serif" font-size="10.00">txmath1.cpp</text>
</a>
</g>
</g>
<!-- Node2 -->
<g id="node2" class="node">
<title>Node2</title>
<g id="a_node2"><a xlink:href="../../d7/d79/txinline_8h.html" target="_top" xlink:title=" ">
<polygon fill="none" stroke="black" points="128.95,-660.5 128.95,-678.5 184.42,-678.5 184.42,-660.5 128.95,-660.5"/>
<text text-anchor="middle" x="156.68" y="-666.5" font-family="Helvetica,sans-Serif" font-size="10.00">txinline.h</text>
</a>
</g>
</g>
<!-- Node1&#45;&gt;Node2 -->
<g id="edge1" class="edge">
<title>Node1&#45;&gt;Node2</title>
<path fill="none" stroke="midnightblue" d="M474.22,-718.18C407.37,-708.14 263.27,-686.5 194.59,-676.19"/>
<polygon fill="midnightblue" stroke="midnightblue" points="195.03,-672.72 184.62,-674.69 193.99,-679.64 195.03,-672.72"/>
</g>
<!-- Node31 -->
<g id="node31" class="node">
<title>Node31</title>
<g id="a_node31"><a xlink:href="../../df/d79/txmath_8h.html" target="_top" xlink:title=" ">
<polygon fill="none" stroke="black" points="557.51,-660.5 557.51,-678.5 611.86,-678.5 611.86,-660.5 557.51,-660.5"/>
<text text-anchor="middle" x="584.68" y="-666.5" font-family="Helvetica,sans-Serif" font-size="10.00">txmath.h</text>
</a>
</g>
</g>
<!-- Node1&#45;&gt;Node31 -->
<g id="edge37" class="edge">
<title>Node1&#45;&gt;Node31</title>
<path fill="none" stroke="midnightblue" d="M521.08,-715.45C532.64,-707.28 550.78,-694.46 564.73,-684.6"/>
<polygon fill="midnightblue" stroke="midnightblue" points="567.04,-687.25 573.19,-678.63 563,-681.54 567.04,-687.25"/>
</g>
<!-- Node33 -->
<g id="node33" class="node">
<title>Node33</title>
<g id="a_node33"><a xlink:href="../../db/dd3/txmath1_8h.html" target="_top" xlink:title=" ">
<polygon fill="none" stroke="black" points="479.73,-660.5 479.73,-678.5 539.64,-678.5 539.64,-660.5 479.73,-660.5"/>
<text text-anchor="middle" x="509.68" y="-666.5" font-family="Helvetica,sans-Serif" font-size="10.00">txmath1.h</text>
</a>
</g>
</g>
<!-- Node1&#45;&gt;Node33 -->
<g id="edge41" class="edge">
<title>Node1&#45;&gt;Node33</title>
<path fill="none" stroke="midnightblue" d="M509.68,-715.22C509.68,-708.18 509.68,-697.81 509.68,-688.83"/>
<polygon fill="midnightblue" stroke="midnightblue" points="513.18,-688.55 509.68,-678.55 506.18,-688.55 513.18,-688.55"/>
</g>
<!-- Node34 -->
<g id="node34" class="node">
<title>Node34</title>
<g id="a_node34"><a xlink:href="../../d2/d1b/txparser_8h.html" target="_top" xlink:title=" ">
<polygon fill="none" stroke="black" points="401.73,-660.5 401.73,-678.5 461.64,-678.5 461.64,-660.5 401.73,-660.5"/>
<text text-anchor="middle" x="431.68" y="-666.5" font-family="Helvetica,sans-Serif" font-size="10.00">txparser.h</text>
</a>
</g>
</g>
<!-- Node1&#45;&gt;Node34 -->
<g id="edge42" class="edge">
<title>Node1&#45;&gt;Node34</title>
<path fill="none" stroke="midnightblue" d="M497.84,-715.45C485.7,-707.2 466.59,-694.22 452.02,-684.32"/>
<polygon fill="midnightblue" stroke="midnightblue" points="453.88,-681.35 443.64,-678.63 449.95,-687.14 453.88,-681.35"/>
</g>
<!-- Node43 -->
<g id="node43" class="node">
<title>Node43</title>
<g id="a_node43"><a xlink:title=" ">
<polygon fill="none" stroke="#bfbfbf" points="630.12,-660.5 630.12,-678.5 687.25,-678.5 687.25,-660.5 630.12,-660.5"/>
<text text-anchor="middle" x="658.68" y="-666.5" font-family="Helvetica,sans-Serif" font-size="10.00">algorithm</text>
</a>
</g>
</g>
<!-- Node1&#45;&gt;Node43 -->
<g id="edge60" class="edge">
<title>Node1&#45;&gt;Node43</title>
<path fill="none" stroke="midnightblue" d="M532.31,-715.45C557.37,-706.54 597.95,-692.1 626.35,-682"/>
<polygon fill="midnightblue" stroke="midnightblue" points="627.59,-685.27 635.84,-678.63 625.25,-678.68 627.59,-685.27"/>
</g>
<!-- Node3 -->
<g id="node3" class="node">
<title>Node3</title>
<g id="a_node3"><a xlink:href="../../d4/de9/_main_class_8h.html" target="_top" xlink:title=" ">
<polygon fill="none" stroke="black" points="155.73,-605.5 155.73,-623.5 255.64,-623.5 255.64,-605.5 155.73,-605.5"/>
<text text-anchor="middle" x="205.68" y="-611.5" font-family="Helvetica,sans-Serif" font-size="10.00">tralics/MainClass.h</text>
</a>
</g>
</g>
<!-- Node2&#45;&gt;Node3 -->
<g id="edge2" class="edge">
<title>Node2&#45;&gt;Node3</title>
<path fill="none" stroke="midnightblue" d="M164.34,-660.22C171.5,-652.47 182.39,-640.7 191.19,-631.18"/>
<polygon fill="midnightblue" stroke="midnightblue" points="194.02,-633.27 198.24,-623.55 188.88,-628.52 194.02,-633.27"/>
</g>
<!-- Node28 -->
<g id="node28" class="node">
<title>Node28</title>
<g id="a_node28"><a xlink:href="../../d2/d06/txlogger_8h.html" target="_top" xlink:title=" ">
<polygon fill="none" stroke="black" points="0,-605.5 0,-623.5 59.37,-623.5 59.37,-605.5 0,-605.5"/>
<text text-anchor="middle" x="29.68" y="-611.5" font-family="Helvetica,sans-Serif" font-size="10.00">txlogger.h</text>
</a>
</g>
</g>
<!-- Node2&#45;&gt;Node28 -->
<g id="edge32" class="edge">
<title>Node2&#45;&gt;Node28</title>
<path fill="none" stroke="midnightblue" d="M137.4,-660.45C116.42,-651.7 82.65,-637.61 58.52,-627.53"/>
<polygon fill="midnightblue" stroke="midnightblue" points="59.73,-624.25 49.15,-623.63 57.04,-630.71 59.73,-624.25"/>
</g>
<!-- Node30 -->
<g id="node30" class="node">
<title>Node30</title>
<g id="a_node30"><a xlink:href="../../d5/d08/txparam_8h.html" target="_top" xlink:title=" ">
<polygon fill="none" stroke="black" points="77.45,-605.5 77.45,-623.5 137.92,-623.5 137.92,-605.5 77.45,-605.5"/>
<text text-anchor="middle" x="107.68" y="-611.5" font-family="Helvetica,sans-Serif" font-size="10.00">txparam.h</text>
</a>
</g>
</g>
<!-- Node2&#45;&gt;Node30 -->
<g id="edge35" class="edge">
<title>Node2&#45;&gt;Node30</title>
<path fill="none" stroke="midnightblue" d="M149.03,-660.22C141.87,-652.47 130.98,-640.7 122.18,-631.18"/>
<polygon fill="midnightblue" stroke="midnightblue" points="124.49,-628.52 115.13,-623.55 119.35,-633.27 124.49,-628.52"/>
</g>
<!-- Node4 -->
<g id="node4" class="node">
<title>Node4</title>
<g id="a_node4"><a xlink:href="../../de/d29/txio_8h.html" target="_top" xlink:title=" ">
<polygon fill="none" stroke="black" points="181.57,-550.5 181.57,-568.5 229.8,-568.5 229.8,-550.5 181.57,-550.5"/>
<text text-anchor="middle" x="205.68" y="-556.5" font-family="Helvetica,sans-Serif" font-size="10.00">../txio.h</text>
</a>
</g>
</g>
<!-- Node3&#45;&gt;Node4 -->
<g id="edge3" class="edge">
<title>Node3&#45;&gt;Node4</title>
<path fill="none" stroke="midnightblue" d="M205.68,-605.22C205.68,-598.18 205.68,-587.81 205.68,-578.83"/>
<polygon fill="midnightblue" stroke="midnightblue" points="209.18,-578.55 205.68,-568.55 202.18,-578.55 209.18,-578.55"/>
</g>
<!-- Node27 -->
<g id="node27" class="node">
<title>Node27</title>
<g id="a_node27"><a xlink:href="../../dc/def/txstring_8h.html" target="_top" xlink:title=" ">
<polygon fill="none" stroke="black" points="409.23,-495.5 409.23,-513.5 474.14,-513.5 474.14,-495.5 409.23,-495.5"/>
<text text-anchor="middle" x="441.68" y="-501.5" font-family="Helvetica,sans-Serif" font-size="10.00">../txstring.h</text>
</a>
</g>
</g>
<!-- Node3&#45;&gt;Node27 -->
<g id="edge30" class="edge">
<title>Node3&#45;&gt;Node27</title>
<path fill="none" stroke="midnightblue" d="M222.67,-605.35C248.2,-593.13 298.02,-569.43 340.68,-550 365.26,-538.81 393.39,-526.45 413.71,-517.61"/>
<polygon fill="midnightblue" stroke="midnightblue" points="415.23,-520.76 423.01,-513.56 412.44,-514.34 415.23,-520.76"/>
</g>
<!-- Node5 -->
<g id="node5" class="node">
<title>Node5</title>
<g id="a_node5"><a xlink:href="../../dd/d74/txbuffer_8h.html" target="_top" xlink:title=" ">
<polygon fill="none" stroke="black" points="402.2,-440.5 402.2,-458.5 459.17,-458.5 459.17,-440.5 402.2,-440.5"/>
<text text-anchor="middle" x="430.68" y="-446.5" font-family="Helvetica,sans-Serif" font-size="10.00">txbuffer.h</text>
</a>
</g>
</g>
<!-- Node4&#45;&gt;Node5 -->
<g id="edge4" class="edge">
<title>Node4&#45;&gt;Node5</title>
<path fill="none" stroke="midnightblue" d="M222.6,-550.38C261.62,-531.65 358.17,-485.31 404.74,-462.95"/>
<polygon fill="midnightblue" stroke="midnightblue" points="406.38,-466.05 413.88,-458.56 403.35,-459.74 406.38,-466.05"/>
</g>
<!-- Node26 -->
<g id="node26" class="node">
<title>Node26</title>
<g id="a_node26"><a xlink:title=" ">
<polygon fill="none" stroke="#bfbfbf" points="93.01,-495.5 93.01,-513.5 142.35,-513.5 142.35,-495.5 93.01,-495.5"/>
<text text-anchor="middle" x="117.68" y="-501.5" font-family="Helvetica,sans-Serif" font-size="10.00">fstream</text>
</a>
</g>
</g>
<!-- Node4&#45;&gt;Node26 -->
<g id="edge29" class="edge">
<title>Node4&#45;&gt;Node26</title>
<path fill="none" stroke="midnightblue" d="M192.32,-550.45C178.49,-542.12 156.65,-528.97 140.17,-519.04"/>
<polygon fill="midnightblue" stroke="midnightblue" points="141.55,-515.79 131.18,-513.63 137.94,-521.78 141.55,-515.79"/>
</g>
<!-- Node6 -->
<g id="node6" class="node">
<title>Node6</title>
<g id="a_node6"><a xlink:href="../../d1/d9e/txid_8h.html" target="_top" xlink:title=" ">
<polygon fill="none" stroke="black" points="392.73,-330.5 392.73,-348.5 432.64,-348.5 432.64,-330.5 392.73,-330.5"/>
<text text-anchor="middle" x="412.68" y="-336.5" font-family="Helvetica,sans-Serif" font-size="10.00">txid.h</text>
</a>
</g>
</g>
<!-- Node5&#45;&gt;Node6 -->
<g id="edge5" class="edge">
<title>Node5&#45;&gt;Node6</title>
<path fill="none" stroke="midnightblue" d="M429.33,-440.38C426.46,-423.18 419.72,-382.7 415.75,-358.89"/>
<polygon fill="midnightblue" stroke="midnightblue" points="419.15,-358 414.05,-348.71 412.24,-359.15 419.15,-358"/>
</g>
<!-- Node16 -->
<g id="node16" class="node">
<title>Node16</title>
<g id="a_node16"><a xlink:href="../../d9/d18/txscaled_8h.html" target="_top" xlink:title=" ">
<polygon fill="none" stroke="black" points="454.17,-385.5 454.17,-403.5 515.2,-403.5 515.2,-385.5 454.17,-385.5"/>
<text text-anchor="middle" x="484.68" y="-391.5" font-family="Helvetica,sans-Serif" font-size="10.00">txscaled.h</text>
</a>
</g>
</g>
<!-- Node5&#45;&gt;Node16 -->
<g id="edge16" class="edge">
<title>Node5&#45;&gt;Node16</title>
<path fill="none" stroke="midnightblue" d="M439.12,-440.22C447.17,-432.32 459.49,-420.22 469.29,-410.61"/>
<polygon fill="midnightblue" stroke="midnightblue" points="471.8,-413.05 476.48,-403.55 466.89,-408.06 471.8,-413.05"/>
</g>
<!-- Node24 -->
<g id="node24" class="node">
<title>Node24</title>
<g id="a_node24"><a xlink:title=" ">
<polygon fill="none" stroke="#bfbfbf" points="351.96,-385.5 351.96,-403.5 397.41,-403.5 397.41,-385.5 351.96,-385.5"/>
<text text-anchor="middle" x="374.68" y="-391.5" font-family="Helvetica,sans-Serif" font-size="10.00">cstring</text>
</a>
</g>
</g>
<!-- Node5&#45;&gt;Node24 -->
<g id="edge27" class="edge">
<title>Node5&#45;&gt;Node24</title>
<path fill="none" stroke="midnightblue" d="M421.93,-440.22C413.58,-432.32 400.81,-420.22 390.65,-410.61"/>
<polygon fill="midnightblue" stroke="midnightblue" points="392.86,-407.88 383.19,-403.55 388.05,-412.97 392.86,-407.88"/>
</g>
<!-- Node25 -->
<g id="node25" class="node">
<title>Node25</title>
<g id="a_node25"><a xlink:title=" ">
<polygon fill="none" stroke="#bfbfbf" points="553.07,-385.5 553.07,-403.5 596.3,-403.5 596.3,-385.5 553.07,-385.5"/>
<text text-anchor="middle" x="574.68" y="-391.5" font-family="Helvetica,sans-Serif" font-size="10.00">vector</text>
</a>
</g>
</g>
<!-- Node5&#45;&gt;Node25 -->
<g id="edge28" class="edge">
<title>Node5&#45;&gt;Node25</title>
<path fill="none" stroke="midnightblue" d="M452.56,-440.45C476.66,-431.58 515.65,-417.23 543.08,-407.13"/>
<polygon fill="midnightblue" stroke="midnightblue" points="544.43,-410.36 552.61,-403.63 542.01,-403.79 544.43,-410.36"/>
</g>
<!-- Node7 -->
<g id="node7" class="node">
<title>Node7</title>
<g id="a_node7"><a xlink:href="../../d5/daf/_istring_8h.html" target="_top" xlink:title=" ">
<polygon fill="none" stroke="black" points="423.45,-275.5 423.45,-293.5 503.92,-293.5 503.92,-275.5 423.45,-275.5"/>
<text text-anchor="middle" x="463.68" y="-281.5" font-family="Helvetica,sans-Serif" font-size="10.00">tralics/Istring.h</text>
</a>
</g>
</g>
<!-- Node6&#45;&gt;Node7 -->
<g id="edge6" class="edge">
<title>Node6&#45;&gt;Node7</title>
<path fill="none" stroke="midnightblue" d="M420.65,-330.22C428.18,-322.39 439.66,-310.46 448.87,-300.89"/>
<polygon fill="midnightblue" stroke="midnightblue" points="451.53,-303.18 455.94,-293.55 446.48,-298.33 451.53,-303.18"/>
</g>
<!-- Node15 -->
<g id="node15" class="node">
<title>Node15</title>
<g id="a_node15"><a xlink:title=" ">
<polygon fill="none" stroke="#bfbfbf" points="357.46,-220.5 357.46,-238.5 397.91,-238.5 397.91,-220.5 357.46,-220.5"/>
<text text-anchor="middle" x="377.68" y="-226.5" font-family="Helvetica,sans-Serif" font-size="10.00">string</text>
</a>
</g>
</g>
<!-- Node6&#45;&gt;Node15 -->
<g id="edge15" class="edge">
<title>Node6&#45;&gt;Node15</title>
<path fill="none" stroke="midnightblue" d="M410.05,-330.38C404.43,-313.03 391.12,-271.96 383.43,-248.24"/>
<polygon fill="midnightblue" stroke="midnightblue" points="386.76,-247.15 380.35,-238.71 380.1,-249.3 386.76,-247.15"/>
</g>
<!-- Node8 -->
<g id="node8" class="node">
<title>Node8</title>
<g id="a_node8"><a xlink:href="../../d0/d0b/enums_8h.html" target="_top" xlink:title=" ">
<polygon fill="none" stroke="black" points="521.51,-165.5 521.51,-183.5 575.86,-183.5 575.86,-165.5 521.51,-165.5"/>
<text text-anchor="middle" x="548.68" y="-171.5" font-family="Helvetica,sans-Serif" font-size="10.00">enums.h</text>
</a>
</g>
</g>
<!-- Node7&#45;&gt;Node8 -->
<g id="edge7" class="edge">
<title>Node7&#45;&gt;Node8</title>
<path fill="none" stroke="midnightblue" d="M467.88,-275.25C474.45,-262.71 487.95,-238.36 502.68,-220 511.2,-209.39 522.1,-198.74 531.15,-190.52"/>
<polygon fill="midnightblue" stroke="midnightblue" points="533.66,-192.98 538.82,-183.73 529.02,-187.74 533.66,-192.98"/>
</g>
<!-- Node14 -->
<g id="node14" class="node">
<title>Node14</title>
<g id="a_node14"><a xlink:title=" ">
<polygon fill="none" stroke="#bfbfbf" points="416.29,-220.5 416.29,-238.5 455.08,-238.5 455.08,-220.5 416.29,-220.5"/>
<text text-anchor="middle" x="435.68" y="-226.5" font-family="Helvetica,sans-Serif" font-size="10.00">array</text>
</a>
</g>
</g>
<!-- Node7&#45;&gt;Node14 -->
<g id="edge13" class="edge">
<title>Node7&#45;&gt;Node14</title>
<path fill="none" stroke="midnightblue" d="M459.31,-275.22C455.42,-267.86 449.62,-256.88 444.74,-247.64"/>
<polygon fill="midnightblue" stroke="midnightblue" points="447.7,-245.76 439.94,-238.55 441.51,-249.03 447.7,-245.76"/>
</g>
<!-- Node7&#45;&gt;Node15 -->
<g id="edge14" class="edge">
<title>Node7&#45;&gt;Node15</title>
<path fill="none" stroke="midnightblue" d="M450.62,-275.45C437.11,-267.12 415.77,-253.97 399.65,-244.04"/>
<polygon fill="midnightblue" stroke="midnightblue" points="401.22,-240.89 390.87,-238.63 397.55,-246.85 401.22,-240.89"/>
</g>
<!-- Node9 -->
<g id="node9" class="node">
<title>Node9</title>
<g id="a_node9"><a xlink:href="../../d8/db5/consts_8h.html" target="_top" xlink:title=" ">
<polygon fill="none" stroke="black" points="522.06,-110.5 522.06,-128.5 575.31,-128.5 575.31,-110.5 522.06,-110.5"/>
<text text-anchor="middle" x="548.68" y="-116.5" font-family="Helvetica,sans-Serif" font-size="10.00">consts.h</text>
</a>
</g>
</g>
<!-- Node8&#45;&gt;Node9 -->
<g id="edge8" class="edge">
<title>Node8&#45;&gt;Node9</title>
<path fill="none" stroke="midnightblue" d="M548.68,-165.22C548.68,-158.18 548.68,-147.81 548.68,-138.83"/>
<polygon fill="midnightblue" stroke="midnightblue" points="552.18,-138.55 548.68,-128.55 545.18,-138.55 552.18,-138.55"/>
</g>
<!-- Node10 -->
<g id="node10" class="node">
<title>Node10</title>
<g id="a_node10"><a xlink:href="../../d9/d49/types_8h.html" target="_top" xlink:title=" ">
<polygon fill="none" stroke="black" points="586.56,-55.5 586.56,-73.5 634.81,-73.5 634.81,-55.5 586.56,-55.5"/>
<text text-anchor="middle" x="610.68" y="-61.5" font-family="Helvetica,sans-Serif" font-size="10.00">types.h</text>
</a>
</g>
</g>
<!-- Node9&#45;&gt;Node10 -->
<g id="edge9" class="edge">
<title>Node9&#45;&gt;Node10</title>
<path fill="none" stroke="midnightblue" d="M558.1,-110.45C567.48,-102.43 582.09,-89.95 593.53,-80.17"/>
<polygon fill="midnightblue" stroke="midnightblue" points="595.85,-82.78 601.18,-73.63 591.3,-77.46 595.85,-82.78"/>
</g>
<!-- Node11 -->
<g id="node11" class="node">
<title>Node11</title>
<g id="a_node11"><a xlink:title=" ">
<polygon fill="none" stroke="#bfbfbf" points="518.57,-0.5 518.57,-18.5 566.8,-18.5 566.8,-0.5 518.57,-0.5"/>
<text text-anchor="middle" x="542.68" y="-6.5" font-family="Helvetica,sans-Serif" font-size="10.00">cassert</text>
</a>
</g>
</g>
<!-- Node10&#45;&gt;Node11 -->
<g id="edge10" class="edge">
<title>Node10&#45;&gt;Node11</title>
<path fill="none" stroke="midnightblue" d="M600.36,-55.45C589.97,-47.36 573.74,-34.7 561.14,-24.88"/>
<polygon fill="midnightblue" stroke="midnightblue" points="563.15,-22.01 553.11,-18.63 558.85,-27.53 563.15,-22.01"/>
</g>
<!-- Node12 -->
<g id="node12" class="node">
<title>Node12</title>
<g id="a_node12"><a xlink:title=" ">
<polygon fill="none" stroke="#bfbfbf" points="584.89,-0.5 584.89,-18.5 636.48,-18.5 636.48,-0.5 584.89,-0.5"/>
<text text-anchor="middle" x="610.68" y="-6.5" font-family="Helvetica,sans-Serif" font-size="10.00">stddef.h</text>
</a>
</g>
</g>
<!-- Node10&#45;&gt;Node12 -->
<g id="edge11" class="edge">
<title>Node10&#45;&gt;Node12</title>
<path fill="none" stroke="midnightblue" d="M610.68,-55.22C610.68,-48.18 610.68,-37.81 610.68,-28.83"/>
<polygon fill="midnightblue" stroke="midnightblue" points="614.18,-28.55 610.68,-18.55 607.18,-28.55 614.18,-28.55"/>
</g>
<!-- Node13 -->
<g id="node13" class="node">
<title>Node13</title>
<g id="a_node13"><a xlink:title=" ">
<polygon fill="none" stroke="#bfbfbf" points="654.62,-0.5 654.62,-18.5 716.75,-18.5 716.75,-0.5 654.62,-0.5"/>
<text text-anchor="middle" x="685.68" y="-6.5" font-family="Helvetica,sans-Serif" font-size="10.00">type_traits</text>
</a>
</g>
</g>
<!-- Node10&#45;&gt;Node13 -->
<g id="edge12" class="edge">
<title>Node10&#45;&gt;Node13</title>
<path fill="none" stroke="midnightblue" d="M622.08,-55.45C633.64,-47.28 651.78,-34.46 665.73,-24.6"/>
<polygon fill="midnightblue" stroke="midnightblue" points="668.04,-27.25 674.19,-18.63 664,-21.54 668.04,-27.25"/>
</g>
<!-- Node17 -->
<g id="node17" class="node">
<title>Node17</title>
<g id="a_node17"><a xlink:href="../../dc/d91/txtokenlist_8h.html" target="_top" xlink:title=" ">
<polygon fill="none" stroke="black" points="450.28,-330.5 450.28,-348.5 519.09,-348.5 519.09,-330.5 450.28,-330.5"/>
<text text-anchor="middle" x="484.68" y="-336.5" font-family="Helvetica,sans-Serif" font-size="10.00">txtokenlist.h</text>
</a>
</g>
</g>
<!-- Node16&#45;&gt;Node17 -->
<g id="edge17" class="edge">
<title>Node16&#45;&gt;Node17</title>
<path fill="none" stroke="midnightblue" d="M484.68,-385.22C484.68,-378.18 484.68,-367.81 484.68,-358.83"/>
<polygon fill="midnightblue" stroke="midnightblue" points="488.18,-358.55 484.68,-348.55 481.18,-358.55 488.18,-358.55"/>
</g>
<!-- Node17&#45;&gt;Node7 -->
<g id="edge18" class="edge">
<title>Node17&#45;&gt;Node7</title>
<path fill="none" stroke="midnightblue" d="M481.4,-330.22C478.52,-322.94 474.23,-312.11 470.59,-302.93"/>
<polygon fill="midnightblue" stroke="midnightblue" points="473.81,-301.56 466.87,-293.55 467.3,-304.14 473.81,-301.56"/>
</g>
<!-- Node18 -->
<g id="node18" class="node">
<title>Node18</title>
<g id="a_node18"><a xlink:href="../../dd/dcd/_token_8h.html" target="_top" xlink:title=" ">
<polygon fill="none" stroke="black" points="521.73,-275.5 521.73,-293.5 601.64,-293.5 601.64,-275.5 521.73,-275.5"/>
<text text-anchor="middle" x="561.68" y="-281.5" font-family="Helvetica,sans-Serif" font-size="10.00">tralics/Token.h</text>
</a>
</g>
</g>
<!-- Node17&#45;&gt;Node18 -->
<g id="edge19" class="edge">
<title>Node17&#45;&gt;Node18</title>
<path fill="none" stroke="midnightblue" d="M496.38,-330.45C508.36,-322.2 527.23,-309.22 541.61,-299.32"/>
<polygon fill="midnightblue" stroke="midnightblue" points="543.63,-302.18 549.88,-293.63 539.66,-296.41 543.63,-302.18"/>
</g>
<!-- Node23 -->
<g id="node23" class="node">
<title>Node23</title>
<g id="a_node23"><a xlink:title=" ">
<polygon fill="none" stroke="#bfbfbf" points="329.29,-275.5 329.29,-293.5 368.08,-293.5 368.08,-275.5 329.29,-275.5"/>
<text text-anchor="middle" x="348.68" y="-281.5" font-family="Helvetica,sans-Serif" font-size="10.00">utility</text>
</a>
</g>
</g>
<!-- Node17&#45;&gt;Node23 -->
<g id="edge26" class="edge">
<title>Node17&#45;&gt;Node23</title>
<path fill="none" stroke="midnightblue" d="M464.03,-330.45C440.97,-321.46 403.48,-306.86 377.53,-296.74"/>
<polygon fill="midnightblue" stroke="midnightblue" points="378.8,-293.48 368.21,-293.11 376.26,-300 378.8,-293.48"/>
</g>
<!-- Node19 -->
<g id="node19" class="node">
<title>Node19</title>
<g id="a_node19"><a xlink:href="../../d2/d68/_cmd_chr_8h.html" target="_top" xlink:title=" ">
<polygon fill="none" stroke="black" points="558.17,-220.5 558.17,-238.5 619.19,-238.5 619.19,-220.5 558.17,-220.5"/>
<text text-anchor="middle" x="588.68" y="-226.5" font-family="Helvetica,sans-Serif" font-size="10.00">CmdChr.h</text>
</a>
</g>
</g>
<!-- Node18&#45;&gt;Node19 -->
<g id="edge20" class="edge">
<title>Node18&#45;&gt;Node19</title>
<path fill="none" stroke="midnightblue" d="M565.9,-275.22C569.65,-267.86 575.25,-256.88 579.95,-247.64"/>
<polygon fill="midnightblue" stroke="midnightblue" points="583.16,-249.05 584.58,-238.55 576.93,-245.87 583.16,-249.05"/>
</g>
<!-- Node22 -->
<g id="node22" class="node">
<title>Node22</title>
<g id="a_node22"><a xlink:title=" ">
<polygon fill="none" stroke="#bfbfbf" points="511.18,-220.5 511.18,-238.5 540.18,-238.5 540.18,-220.5 511.18,-220.5"/>
<text text-anchor="middle" x="525.3" y="-226.5" font-family="Helvetica,sans-Serif" font-size="10.00">list</text>
</a>
</g>
</g>
<!-- Node18&#45;&gt;Node22 -->
<g id="edge25" class="edge">
<title>Node18&#45;&gt;Node22</title>
<path fill="none" stroke="midnightblue" d="M556.06,-275.22C550.96,-267.71 543.28,-256.41 536.93,-247.05"/>
<polygon fill="midnightblue" stroke="midnightblue" points="539.67,-244.86 531.15,-238.55 533.88,-248.79 539.67,-244.86"/>
</g>
<!-- Node19&#45;&gt;Node8 -->
<g id="edge24" class="edge">
<title>Node19&#45;&gt;Node8</title>
<path fill="none" stroke="midnightblue" d="M582.43,-220.22C576.71,-212.63 568.06,-201.18 560.96,-191.76"/>
<polygon fill="midnightblue" stroke="midnightblue" points="563.58,-189.42 554.76,-183.55 557.99,-193.64 563.58,-189.42"/>
</g>
<!-- Node20 -->
<g id="node20" class="node">
<title>Node20</title>
<g id="a_node20"><a xlink:href="../../d8/d47/codepoint_8h.html" target="_top" xlink:title=" ">
<polygon fill="none" stroke="black" points="593.83,-165.5 593.83,-183.5 661.54,-183.5 661.54,-165.5 593.83,-165.5"/>
<text text-anchor="middle" x="627.68" y="-171.5" font-family="Helvetica,sans-Serif" font-size="10.00">codepoint.h</text>
</a>
</g>
</g>
<!-- Node19&#45;&gt;Node20 -->
<g id="edge21" class="edge">
<title>Node19&#45;&gt;Node20</title>
<path fill="none" stroke="midnightblue" d="M594.78,-220.22C600.36,-212.63 608.79,-201.18 615.72,-191.76"/>
<polygon fill="midnightblue" stroke="midnightblue" points="618.65,-193.68 621.76,-183.55 613.02,-189.53 618.65,-193.68"/>
</g>
<!-- Node20&#45;&gt;Node10 -->
<g id="edge22" class="edge">
<title>Node20&#45;&gt;Node10</title>
<path fill="none" stroke="midnightblue" d="M635.32,-165.29C645.6,-153.2 661.72,-129.88 653.68,-110 648.94,-98.26 639.44,-87.89 630.58,-80.12"/>
<polygon fill="midnightblue" stroke="midnightblue" points="632.73,-77.37 622.77,-73.76 628.31,-82.79 632.73,-77.37"/>
</g>
<!-- Node21 -->
<g id="node21" class="node">
<title>Node21</title>
<g id="a_node21"><a xlink:title=" ">
<polygon fill="none" stroke="#bfbfbf" points="593.17,-110.5 593.17,-128.5 644.2,-128.5 644.2,-110.5 593.17,-110.5"/>
<text text-anchor="middle" x="618.68" y="-116.5" font-family="Helvetica,sans-Serif" font-size="10.00">optional</text>
</a>
</g>
</g>
<!-- Node20&#45;&gt;Node21 -->
<g id="edge23" class="edge">
<title>Node20&#45;&gt;Node21</title>
<path fill="none" stroke="midnightblue" d="M626.28,-165.22C625.07,-158.1 623.28,-147.58 621.75,-138.53"/>
<polygon fill="midnightblue" stroke="midnightblue" points="625.18,-137.82 620.05,-128.55 618.28,-138.99 625.18,-137.82"/>
</g>
<!-- Node27&#45;&gt;Node5 -->
<g id="edge31" class="edge">
<title>Node27&#45;&gt;Node5</title>
<path fill="none" stroke="midnightblue" d="M439.97,-495.22C438.49,-488.1 436.3,-477.58 434.43,-468.53"/>
<polygon fill="midnightblue" stroke="midnightblue" points="437.81,-467.63 432.36,-458.55 430.96,-469.05 437.81,-467.63"/>
</g>
<!-- Node28&#45;&gt;Node26 -->
<g id="edge33" class="edge">
<title>Node28&#45;&gt;Node26</title>
<path fill="none" stroke="midnightblue" d="M30.33,-605.27C31.71,-592.33 35.97,-566.93 48.68,-550 58.98,-536.3 74.83,-525.65 88.74,-518.21"/>
<polygon fill="midnightblue" stroke="midnightblue" points="90.61,-521.19 97.97,-513.57 87.46,-514.93 90.61,-521.19"/>
</g>
<!-- Node29 -->
<g id="node29" class="node">
<title>Node29</title>
<g id="a_node29"><a xlink:title=" ">
<polygon fill="none" stroke="#bfbfbf" points="57.51,-550.5 57.51,-568.5 111.86,-568.5 111.86,-550.5 57.51,-550.5"/>
<text text-anchor="middle" x="84.68" y="-556.5" font-family="Helvetica,sans-Serif" font-size="10.00">iostream</text>
</a>
</g>
</g>
<!-- Node28&#45;&gt;Node29 -->
<g id="edge34" class="edge">
<title>Node28&#45;&gt;Node29</title>
<path fill="none" stroke="midnightblue" d="M38.28,-605.22C46.48,-597.32 59.03,-585.22 69.01,-575.61"/>
<polygon fill="midnightblue" stroke="midnightblue" points="71.56,-578.01 76.33,-568.55 66.7,-572.97 71.56,-578.01"/>
</g>
<!-- Node30&#45;&gt;Node4 -->
<g id="edge36" class="edge">
<title>Node30&#45;&gt;Node4</title>
<path fill="none" stroke="midnightblue" d="M122.57,-605.45C138.25,-596.97 163.2,-583.48 181.67,-573.49"/>
<polygon fill="midnightblue" stroke="midnightblue" points="183.53,-576.46 190.66,-568.63 180.2,-570.3 183.53,-576.46"/>
</g>
<!-- Node32 -->
<g id="node32" class="node">
<title>Node32</title>
<g id="a_node32"><a xlink:href="../../d1/d43/txxml_8h.html" target="_top" xlink:title=" ">
<polygon fill="none" stroke="black" points="551.85,-550.5 551.85,-568.5 599.52,-568.5 599.52,-550.5 551.85,-550.5"/>
<text text-anchor="middle" x="575.68" y="-556.5" font-family="Helvetica,sans-Serif" font-size="10.00">txxml.h</text>
</a>
</g>
</g>
<!-- Node31&#45;&gt;Node32 -->
<g id="edge38" class="edge">
<title>Node31&#45;&gt;Node32</title>
<path fill="none" stroke="midnightblue" d="M588.4,-660.24C593.37,-648.09 601.1,-624.71 596.68,-605 594.53,-595.4 590.07,-585.43 585.8,-577.37"/>
<polygon fill="midnightblue" stroke="midnightblue" points="588.84,-575.62 580.88,-568.63 582.74,-579.06 588.84,-575.62"/>
</g>
<!-- Node32&#45;&gt;Node25 -->
<g id="edge40" class="edge">
<title>Node32&#45;&gt;Node25</title>
<path fill="none" stroke="midnightblue" d="M575.63,-550.19C575.48,-525.01 575.01,-449.11 574.8,-413.86"/>
<polygon fill="midnightblue" stroke="midnightblue" points="578.3,-413.58 574.73,-403.6 571.3,-413.62 578.3,-413.58"/>
</g>
<!-- Node32&#45;&gt;Node27 -->
<g id="edge39" class="edge">
<title>Node32&#45;&gt;Node27</title>
<path fill="none" stroke="midnightblue" d="M555.33,-550.45C533.1,-541.66 497.26,-527.48 471.77,-517.4"/>
<polygon fill="midnightblue" stroke="midnightblue" points="472.81,-514.05 462.23,-513.63 470.24,-520.56 472.81,-514.05"/>
</g>
<!-- Node34&#45;&gt;Node4 -->
<g id="edge54" class="edge">
<title>Node34&#45;&gt;Node4</title>
<path fill="none" stroke="midnightblue" d="M403.91,-660.4C378.32,-652.5 339.6,-639.44 307.68,-624 277.56,-609.42 245.14,-588.18 225.12,-574.35"/>
<polygon fill="midnightblue" stroke="midnightblue" points="227.05,-571.43 216.85,-568.56 223.04,-577.16 227.05,-571.43"/>
</g>
<!-- Node35 -->
<g id="node35" class="node">
<title>Node35</title>
<g id="a_node35"><a xlink:href="../../d3/d6b/txcond_8h.html" target="_top" xlink:title=" ">
<polygon fill="none" stroke="black" points="602.78,-440.5 602.78,-458.5 656.59,-458.5 656.59,-440.5 602.78,-440.5"/>
<text text-anchor="middle" x="629.68" y="-446.5" font-family="Helvetica,sans-Serif" font-size="10.00">txcond.h</text>
</a>
</g>
</g>
<!-- Node34&#45;&gt;Node35 -->
<g id="edge43" class="edge">
<title>Node34&#45;&gt;Node35</title>
<path fill="none" stroke="midnightblue" d="M462,-661.18C508.35,-649.88 591.97,-628.95 596.68,-624 637.53,-581.11 635.53,-504.17 632.08,-468.98"/>
<polygon fill="midnightblue" stroke="midnightblue" points="635.52,-468.29 630.92,-458.75 628.57,-469.08 635.52,-468.29"/>
</g>
<!-- Node36 -->
<g id="node36" class="node">
<title>Node36</title>
<g id="a_node36"><a xlink:href="../../d7/d4d/txfonts_8h.html" target="_top" xlink:title=" ">
<polygon fill="none" stroke="black" points="349.79,-550.5 349.79,-568.5 403.58,-568.5 403.58,-550.5 349.79,-550.5"/>
<text text-anchor="middle" x="376.68" y="-556.5" font-family="Helvetica,sans-Serif" font-size="10.00">txfonts.h</text>
</a>
</g>
</g>
<!-- Node34&#45;&gt;Node36 -->
<g id="edge46" class="edge">
<title>Node34&#45;&gt;Node36</title>
<path fill="none" stroke="midnightblue" d="M430.29,-660.29C427.94,-647.8 422.46,-623.52 412.68,-605 407.18,-594.56 399.03,-584.23 391.88,-576.16"/>
<polygon fill="midnightblue" stroke="midnightblue" points="394.3,-573.62 384.95,-568.65 389.16,-578.37 394.3,-573.62"/>
</g>
<!-- Node37 -->
<g id="node37" class="node">
<title>Node37</title>
<g id="a_node37"><a xlink:href="../../d7/d7e/txhash_8h.html" target="_top" xlink:title=" ">
<polygon fill="none" stroke="black" points="459.78,-605.5 459.78,-623.5 513.59,-623.5 513.59,-605.5 459.78,-605.5"/>
<text text-anchor="middle" x="486.68" y="-611.5" font-family="Helvetica,sans-Serif" font-size="10.00">txhash.h</text>
</a>
</g>
</g>
<!-- Node34&#45;&gt;Node37 -->
<g id="edge48" class="edge">
<title>Node34&#45;&gt;Node37</title>
<path fill="none" stroke="midnightblue" d="M440.28,-660.22C448.48,-652.32 461.03,-640.22 471.01,-630.61"/>
<polygon fill="midnightblue" stroke="midnightblue" points="473.56,-633.01 478.33,-623.55 468.7,-627.97 473.56,-633.01"/>
</g>
<!-- Node39 -->
<g id="node39" class="node">
<title>Node39</title>
<g id="a_node39"><a xlink:href="../../de/d7c/tximage_8h.html" target="_top" xlink:title=" ">
<polygon fill="none" stroke="black" points="292.01,-330.5 292.01,-348.5 351.36,-348.5 351.36,-330.5 292.01,-330.5"/>
<text text-anchor="middle" x="321.68" y="-336.5" font-family="Helvetica,sans-Serif" font-size="10.00">tximage.h</text>
</a>
</g>
</g>
<!-- Node34&#45;&gt;Node39 -->
<g id="edge51" class="edge">
<title>Node34&#45;&gt;Node39</title>
<path fill="none" stroke="midnightblue" d="M401.51,-660.65C381.6,-653.99 356.38,-642.51 340.68,-624 321.63,-601.53 321.68,-589.96 321.68,-560.5 321.68,-560.5 321.68,-560.5 321.68,-448.5 321.68,-417.02 321.68,-380.37 321.68,-358.88"/>
<polygon fill="midnightblue" stroke="midnightblue" points="325.18,-358.63 321.68,-348.63 318.18,-358.63 325.18,-358.63"/>
</g>
<!-- Node40 -->
<g id="node40" class="node">
<title>Node40</title>
<g id="a_node40"><a xlink:href="../../dc/d65/txstack_8h.html" target="_top" xlink:title=" ">
<polygon fill="none" stroke="black" points="531.96,-605.5 531.96,-623.5 587.41,-623.5 587.41,-605.5 531.96,-605.5"/>
<text text-anchor="middle" x="559.68" y="-611.5" font-family="Helvetica,sans-Serif" font-size="10.00">txstack.h</text>
</a>
</g>
</g>
<!-- Node34&#45;&gt;Node40 -->
<g id="edge55" class="edge">
<title>Node34&#45;&gt;Node40</title>
<path fill="none" stroke="midnightblue" d="M451.13,-660.45C472.27,-651.7 506.3,-637.61 530.62,-627.53"/>
<polygon fill="midnightblue" stroke="midnightblue" points="532.16,-630.68 540.06,-623.63 529.48,-624.22 532.16,-630.68"/>
</g>
<!-- Node42 -->
<g id="node42" class="node">
<title>Node42</title>
<g id="a_node42"><a xlink:href="../../d8/d3d/txstats_8h.html" target="_top" xlink:title=" ">
<polygon fill="none" stroke="black" points="350.07,-605.5 350.07,-623.5 403.3,-623.5 403.3,-605.5 350.07,-605.5"/>
<text text-anchor="middle" x="376.68" y="-611.5" font-family="Helvetica,sans-Serif" font-size="10.00">txstats.h</text>
</a>
</g>
</g>
<!-- Node34&#45;&gt;Node42 -->
<g id="edge59" class="edge">
<title>Node34&#45;&gt;Node42</title>
<path fill="none" stroke="midnightblue" d="M423.09,-660.22C414.89,-652.32 402.34,-640.22 392.36,-630.61"/>
<polygon fill="midnightblue" stroke="midnightblue" points="394.67,-627.97 385.04,-623.55 389.81,-633.01 394.67,-627.97"/>
</g>
<!-- Node35&#45;&gt;Node8 -->
<g id="edge44" class="edge">
<title>Node35&#45;&gt;Node8</title>
<path fill="none" stroke="midnightblue" d="M631.96,-440.45C636.81,-422.61 647.68,-378.33 647.68,-340.5 647.68,-340.5 647.68,-340.5 647.68,-283.5 647.68,-254.04 647.14,-242.96 628.68,-220 616.89,-205.33 598.89,-194.71 582.95,-187.53"/>
<polygon fill="midnightblue" stroke="midnightblue" points="583.94,-184.15 573.36,-183.5 581.23,-190.6 583.94,-184.15"/>
</g>
<!-- Node35&#45;&gt;Node25 -->
<g id="edge45" class="edge">
<title>Node35&#45;&gt;Node25</title>
<path fill="none" stroke="midnightblue" d="M621.09,-440.22C612.89,-432.32 600.34,-420.22 590.36,-410.61"/>
<polygon fill="midnightblue" stroke="midnightblue" points="592.67,-407.97 583.04,-403.55 587.81,-413.01 592.67,-407.97"/>
</g>
<!-- Node36&#45;&gt;Node27 -->
<g id="edge47" class="edge">
<title>Node36&#45;&gt;Node27</title>
<path fill="none" stroke="midnightblue" d="M386.56,-550.45C396.39,-542.43 411.7,-529.95 423.7,-520.17"/>
<polygon fill="midnightblue" stroke="midnightblue" points="426.18,-522.66 431.72,-513.63 421.76,-517.23 426.18,-522.66"/>
</g>
<!-- Node38 -->
<g id="node38" class="node">
<title>Node38</title>
<g id="a_node38"><a xlink:href="../../d3/d01/txeqtb_8h.html" target="_top" xlink:title=" ">
<polygon fill="none" stroke="black" points="421.89,-550.5 421.89,-568.5 473.48,-568.5 473.48,-550.5 421.89,-550.5"/>
<text text-anchor="middle" x="447.68" y="-556.5" font-family="Helvetica,sans-Serif" font-size="10.00">txeqtb.h</text>
</a>
</g>
</g>
<!-- Node37&#45;&gt;Node38 -->
<g id="edge49" class="edge">
<title>Node37&#45;&gt;Node38</title>
<path fill="none" stroke="midnightblue" d="M480.59,-605.22C475.01,-597.63 466.58,-586.18 459.65,-576.76"/>
<polygon fill="midnightblue" stroke="midnightblue" points="462.35,-574.53 453.61,-568.55 456.72,-578.68 462.35,-574.53"/>
</g>
<!-- Node38&#45;&gt;Node27 -->
<g id="edge50" class="edge">
<title>Node38&#45;&gt;Node27</title>
<path fill="none" stroke="midnightblue" d="M446.75,-550.22C445.94,-543.1 444.75,-532.58 443.73,-523.53"/>
<polygon fill="midnightblue" stroke="midnightblue" points="447.2,-523.09 442.6,-513.55 440.24,-523.88 447.2,-523.09"/>
</g>
<!-- Node39&#45;&gt;Node15 -->
<g id="edge52" class="edge">
<title>Node39&#45;&gt;Node15</title>
<path fill="none" stroke="midnightblue" d="M319.28,-330.17C316.1,-317.52 311.88,-293.03 320.68,-275 327.22,-261.6 339.96,-251.06 351.73,-243.61"/>
<polygon fill="midnightblue" stroke="midnightblue" points="353.57,-246.59 360.43,-238.51 350.04,-240.54 353.57,-246.59"/>
</g>
<!-- Node39&#45;&gt;Node23 -->
<g id="edge53" class="edge">
<title>Node39&#45;&gt;Node23</title>
<path fill="none" stroke="midnightblue" d="M325.9,-330.22C329.65,-322.86 335.25,-311.88 339.95,-302.64"/>
<polygon fill="midnightblue" stroke="midnightblue" points="343.16,-304.05 344.58,-293.55 336.93,-300.87 343.16,-304.05"/>
</g>
<!-- Node40&#45;&gt;Node32 -->
<g id="edge58" class="edge">
<title>Node40&#45;&gt;Node32</title>
<path fill="none" stroke="midnightblue" d="M562.18,-605.22C564.36,-598.02 567.58,-587.35 570.33,-578.23"/>
<polygon fill="midnightblue" stroke="midnightblue" points="573.72,-579.13 573.25,-568.55 567.01,-577.11 573.72,-579.13"/>
</g>
<!-- Node41 -->
<g id="node41" class="node">
<title>Node41</title>
<g id="a_node41"><a xlink:href="../../d4/da4/txatt_8h.html" target="_top" xlink:title=" ">
<polygon fill="none" stroke="black" points="491.07,-550.5 491.07,-568.5 534.3,-568.5 534.3,-550.5 491.07,-550.5"/>
<text text-anchor="middle" x="512.68" y="-556.5" font-family="Helvetica,sans-Serif" font-size="10.00">txatt.h</text>
</a>
</g>
</g>
<!-- Node40&#45;&gt;Node41 -->
<g id="edge56" class="edge">
<title>Node40&#45;&gt;Node41</title>
<path fill="none" stroke="midnightblue" d="M552.34,-605.22C545.47,-597.47 535.03,-585.7 526.59,-576.18"/>
<polygon fill="midnightblue" stroke="midnightblue" points="529.08,-573.71 519.82,-568.55 523.84,-578.35 529.08,-573.71"/>
</g>
<!-- Node41&#45;&gt;Node27 -->
<g id="edge57" class="edge">
<title>Node41&#45;&gt;Node27</title>
<path fill="none" stroke="midnightblue" d="M501.9,-550.45C491.06,-542.36 474.11,-529.7 460.95,-519.88"/>
<polygon fill="midnightblue" stroke="midnightblue" points="462.68,-516.8 452.57,-513.63 458.49,-522.41 462.68,-516.8"/>
</g>
</g>
</svg>
