<?xml version="1.0" encoding="UTF-8" standalone="no"?>
<!DOCTYPE svg PUBLIC "-//W3C//DTD SVG 1.1//EN"
 "http://www.w3.org/Graphics/SVG/1.1/DTD/svg11.dtd">
<!-- Generated by graphviz version 2.42.3 (20191010.1750)
 -->
<!-- Title: txmath1.cpp Pages: 1 -->
<svg width="790pt" height="742pt"
 viewBox="0.00 0.00 789.59 742.00" xmlns="http://www.w3.org/2000/svg" xmlns:xlink="http://www.w3.org/1999/xlink">
<g id="graph0" class="graph" transform="scale(1 1) rotate(0) translate(4 738)">
<title>txmath1.cpp</title>
<!-- Node1 -->
<g id="node1" class="node">
<title>Node1</title>
<g id="a_node1"><a xlink:title=" ">
<polygon fill="#bfbfbf" stroke="black" points="487.45,-715.5 487.45,-733.5 557.92,-733.5 557.92,-715.5 487.45,-715.5"/>
<text text-anchor="middle" x="522.68" y="-721.5" font-family="Helvetica,sans-Serif" font-size="10.00">txmath1.cpp</text>
</a>
</g>
</g>
<!-- Node2 -->
<g id="node2" class="node">
<title>Node2</title>
<g id="a_node2"><a xlink:href="../../db/dd3/txmath1_8h.html" target="_top" xlink:title=" ">
<polygon fill="none" stroke="black" points="346.73,-660.5 346.73,-678.5 406.64,-678.5 406.64,-660.5 346.73,-660.5"/>
<text text-anchor="middle" x="376.68" y="-666.5" font-family="Helvetica,sans-Serif" font-size="10.00">txmath1.h</text>
</a>
</g>
</g>
<!-- Node1&#45;&gt;Node2 -->
<g id="edge1" class="edge">
<title>Node1&#45;&gt;Node2</title>
<path fill="none" stroke="midnightblue" d="M500.51,-715.45C476.07,-706.58 436.54,-692.23 408.73,-682.13"/>
<polygon fill="midnightblue" stroke="midnightblue" points="409.66,-678.75 399.07,-678.63 407.27,-685.33 409.66,-678.75"/>
</g>
<!-- Node29 -->
<g id="node29" class="node">
<title>Node29</title>
<g id="a_node29"><a xlink:href="../../d7/d79/txinline_8h.html" target="_top" xlink:title=" ">
<polygon fill="none" stroke="black" points="147.95,-660.5 147.95,-678.5 203.42,-678.5 203.42,-660.5 147.95,-660.5"/>
<text text-anchor="middle" x="175.68" y="-666.5" font-family="Helvetica,sans-Serif" font-size="10.00">txinline.h</text>
</a>
</g>
</g>
<!-- Node1&#45;&gt;Node29 -->
<g id="edge32" class="edge">
<title>Node1&#45;&gt;Node29</title>
<path fill="none" stroke="midnightblue" d="M487.18,-718.08C421.43,-708.03 281.28,-686.63 213.69,-676.31"/>
<polygon fill="midnightblue" stroke="midnightblue" points="213.91,-672.8 203.49,-674.75 212.85,-679.72 213.91,-672.8"/>
</g>
<!-- Node35 -->
<g id="node35" class="node">
<title>Node35</title>
<g id="a_node35"><a xlink:href="../../d2/d1b/txparser_8h.html" target="_top" xlink:title=" ">
<polygon fill="none" stroke="black" points="492.73,-660.5 492.73,-678.5 552.64,-678.5 552.64,-660.5 492.73,-660.5"/>
<text text-anchor="middle" x="522.68" y="-666.5" font-family="Helvetica,sans-Serif" font-size="10.00">txparser.h</text>
</a>
</g>
</g>
<!-- Node1&#45;&gt;Node35 -->
<g id="edge43" class="edge">
<title>Node1&#45;&gt;Node35</title>
<path fill="none" stroke="midnightblue" d="M522.68,-715.22C522.68,-708.18 522.68,-697.81 522.68,-688.83"/>
<polygon fill="midnightblue" stroke="midnightblue" points="526.18,-688.55 522.68,-678.55 519.18,-688.55 526.18,-688.55"/>
</g>
<!-- Node45 -->
<g id="node45" class="node">
<title>Node45</title>
<g id="a_node45"><a xlink:title=" ">
<polygon fill="none" stroke="#bfbfbf" points="571.12,-660.5 571.12,-678.5 628.25,-678.5 628.25,-660.5 571.12,-660.5"/>
<text text-anchor="middle" x="599.68" y="-666.5" font-family="Helvetica,sans-Serif" font-size="10.00">algorithm</text>
</a>
</g>
</g>
<!-- Node1&#45;&gt;Node45 -->
<g id="edge63" class="edge">
<title>Node1&#45;&gt;Node45</title>
<path fill="none" stroke="midnightblue" d="M534.38,-715.45C546.36,-707.2 565.23,-694.22 579.61,-684.32"/>
<polygon fill="midnightblue" stroke="midnightblue" points="581.63,-687.18 587.88,-678.63 577.66,-681.41 581.63,-687.18"/>
</g>
<!-- Node46 -->
<g id="node46" class="node">
<title>Node46</title>
<g id="a_node46"><a xlink:title=" ">
<polygon fill="none" stroke="#bfbfbf" points="646.01,-660.5 646.01,-678.5 715.36,-678.5 715.36,-660.5 646.01,-660.5"/>
<text text-anchor="middle" x="680.68" y="-666.5" font-family="Helvetica,sans-Serif" font-size="10.00">fmt/format.h</text>
</a>
</g>
</g>
<!-- Node1&#45;&gt;Node46 -->
<g id="edge64" class="edge">
<title>Node1&#45;&gt;Node46</title>
<path fill="none" stroke="midnightblue" d="M546.68,-715.45C573.44,-706.47 616.91,-691.89 647.05,-681.78"/>
<polygon fill="midnightblue" stroke="midnightblue" points="648.35,-685.04 656.72,-678.54 646.13,-678.4 648.35,-685.04"/>
</g>
<!-- Node3 -->
<g id="node3" class="node">
<title>Node3</title>
<g id="a_node3"><a xlink:href="../../df/d79/txmath_8h.html" target="_top" xlink:title=" ">
<polygon fill="none" stroke="black" points="349.51,-605.5 349.51,-623.5 403.86,-623.5 403.86,-605.5 349.51,-605.5"/>
<text text-anchor="middle" x="376.68" y="-611.5" font-family="Helvetica,sans-Serif" font-size="10.00">txmath.h</text>
</a>
</g>
</g>
<!-- Node2&#45;&gt;Node3 -->
<g id="edge2" class="edge">
<title>Node2&#45;&gt;Node3</title>
<path fill="none" stroke="midnightblue" d="M376.68,-660.22C376.68,-653.18 376.68,-642.81 376.68,-633.83"/>
<polygon fill="midnightblue" stroke="midnightblue" points="380.18,-633.55 376.68,-623.55 373.18,-633.55 380.18,-633.55"/>
</g>
<!-- Node28 -->
<g id="node28" class="node">
<title>Node28</title>
<g id="a_node28"><a xlink:title=" ">
<polygon fill="none" stroke="#bfbfbf" points="118.51,-550.5 118.51,-568.5 172.86,-568.5 172.86,-550.5 118.51,-550.5"/>
<text text-anchor="middle" x="145.68" y="-556.5" font-family="Helvetica,sans-Serif" font-size="10.00">iostream</text>
</a>
</g>
</g>
<!-- Node2&#45;&gt;Node28 -->
<g id="edge31" class="edge">
<title>Node2&#45;&gt;Node28</title>
<path fill="none" stroke="midnightblue" d="M346.47,-668.49C305.98,-667.02 233.56,-659.18 184.68,-624 168.8,-612.57 158.07,-592.47 151.95,-577.94"/>
<polygon fill="midnightblue" stroke="midnightblue" points="155.18,-576.61 148.3,-568.55 148.66,-579.14 155.18,-576.61"/>
</g>
<!-- Node4 -->
<g id="node4" class="node">
<title>Node4</title>
<g id="a_node4"><a xlink:href="../../d9/d1c/_xml_8h.html" target="_top" xlink:title=" ">
<polygon fill="none" stroke="black" points="437.46,-550.5 437.46,-568.5 507.91,-568.5 507.91,-550.5 437.46,-550.5"/>
<text text-anchor="middle" x="472.68" y="-556.5" font-family="Helvetica,sans-Serif" font-size="10.00">tralics/Xml.h</text>
</a>
</g>
</g>
<!-- Node3&#45;&gt;Node4 -->
<g id="edge3" class="edge">
<title>Node3&#45;&gt;Node4</title>
<path fill="none" stroke="midnightblue" d="M391.26,-605.45C406.63,-596.97 431.07,-583.48 449.16,-573.49"/>
<polygon fill="midnightblue" stroke="midnightblue" points="450.9,-576.52 457.97,-568.63 447.52,-570.39 450.9,-576.52"/>
</g>
<!-- Node5 -->
<g id="node5" class="node">
<title>Node5</title>
<g id="a_node5"><a xlink:href="../../dc/def/txstring_8h.html" target="_top" xlink:title=" ">
<polygon fill="none" stroke="black" points="516.23,-495.5 516.23,-513.5 581.14,-513.5 581.14,-495.5 516.23,-495.5"/>
<text text-anchor="middle" x="548.68" y="-501.5" font-family="Helvetica,sans-Serif" font-size="10.00">../txstring.h</text>
</a>
</g>
</g>
<!-- Node4&#45;&gt;Node5 -->
<g id="edge4" class="edge">
<title>Node4&#45;&gt;Node5</title>
<path fill="none" stroke="midnightblue" d="M484.23,-550.45C495.95,-542.28 514.33,-529.46 528.47,-519.6"/>
<polygon fill="midnightblue" stroke="midnightblue" points="530.83,-522.22 537.03,-513.63 526.83,-516.47 530.83,-522.22"/>
</g>
<!-- Node6 -->
<g id="node6" class="node">
<title>Node6</title>
<g id="a_node6"><a xlink:href="../../d7/d1b/_buffer_8h.html" target="_top" xlink:title=" ">
<polygon fill="none" stroke="black" points="509.09,-440.5 509.09,-458.5 588.28,-458.5 588.28,-440.5 509.09,-440.5"/>
<text text-anchor="middle" x="548.68" y="-446.5" font-family="Helvetica,sans-Serif" font-size="10.00">tralics/Buffer.h</text>
</a>
</g>
</g>
<!-- Node5&#45;&gt;Node6 -->
<g id="edge5" class="edge">
<title>Node5&#45;&gt;Node6</title>
<path fill="none" stroke="midnightblue" d="M548.68,-495.22C548.68,-488.18 548.68,-477.81 548.68,-468.83"/>
<polygon fill="midnightblue" stroke="midnightblue" points="552.18,-468.55 548.68,-458.55 545.18,-468.55 552.18,-468.55"/>
</g>
<!-- Node7 -->
<g id="node7" class="node">
<title>Node7</title>
<g id="a_node7"><a xlink:href="../../d1/d9e/txid_8h.html" target="_top" xlink:title=" ">
<polygon fill="none" stroke="black" points="492.57,-330.5 492.57,-348.5 540.8,-348.5 540.8,-330.5 492.57,-330.5"/>
<text text-anchor="middle" x="516.68" y="-336.5" font-family="Helvetica,sans-Serif" font-size="10.00">../txid.h</text>
</a>
</g>
</g>
<!-- Node6&#45;&gt;Node7 -->
<g id="edge6" class="edge">
<title>Node6&#45;&gt;Node7</title>
<path fill="none" stroke="midnightblue" d="M540.83,-440.47C533.26,-432.14 522.31,-418.34 517.68,-404 512.92,-389.23 513.09,-371.5 514.21,-358.54"/>
<polygon fill="midnightblue" stroke="midnightblue" points="517.7,-358.89 515.34,-348.56 510.74,-358.11 517.7,-358.89"/>
</g>
<!-- Node18 -->
<g id="node18" class="node">
<title>Node18</title>
<g id="a_node18"><a xlink:href="../../d9/d18/txscaled_8h.html" target="_top" xlink:title=" ">
<polygon fill="none" stroke="black" points="590,-385.5 590,-403.5 659.36,-403.5 659.36,-385.5 590,-385.5"/>
<text text-anchor="middle" x="624.68" y="-391.5" font-family="Helvetica,sans-Serif" font-size="10.00">../txscaled.h</text>
</a>
</g>
</g>
<!-- Node6&#45;&gt;Node18 -->
<g id="edge18" class="edge">
<title>Node6&#45;&gt;Node18</title>
<path fill="none" stroke="midnightblue" d="M560.23,-440.45C571.95,-432.28 590.33,-419.46 604.47,-409.6"/>
<polygon fill="midnightblue" stroke="midnightblue" points="606.83,-412.22 613.03,-403.63 602.83,-406.47 606.83,-412.22"/>
</g>
<!-- Node26 -->
<g id="node26" class="node">
<title>Node26</title>
<g id="a_node26"><a xlink:title=" ">
<polygon fill="none" stroke="#bfbfbf" points="526.96,-385.5 526.96,-403.5 572.41,-403.5 572.41,-385.5 526.96,-385.5"/>
<text text-anchor="middle" x="549.68" y="-391.5" font-family="Helvetica,sans-Serif" font-size="10.00">cstring</text>
</a>
</g>
</g>
<!-- Node6&#45;&gt;Node26 -->
<g id="edge29" class="edge">
<title>Node6&#45;&gt;Node26</title>
<path fill="none" stroke="midnightblue" d="M548.84,-440.22C548.97,-433.18 549.17,-422.81 549.34,-413.83"/>
<polygon fill="midnightblue" stroke="midnightblue" points="552.84,-413.61 549.53,-403.55 545.84,-413.48 552.84,-413.61"/>
</g>
<!-- Node27 -->
<g id="node27" class="node">
<title>Node27</title>
<g id="a_node27"><a xlink:title=" ">
<polygon fill="none" stroke="#bfbfbf" points="681.07,-385.5 681.07,-403.5 724.3,-403.5 724.3,-385.5 681.07,-385.5"/>
<text text-anchor="middle" x="702.68" y="-391.5" font-family="Helvetica,sans-Serif" font-size="10.00">vector</text>
</a>
</g>
</g>
<!-- Node6&#45;&gt;Node27 -->
<g id="edge30" class="edge">
<title>Node6&#45;&gt;Node27</title>
<path fill="none" stroke="midnightblue" d="M572.07,-440.45C598.57,-431.33 641.87,-416.43 671.29,-406.3"/>
<polygon fill="midnightblue" stroke="midnightblue" points="672.75,-409.5 681.07,-402.94 670.47,-402.88 672.75,-409.5"/>
</g>
<!-- Node8 -->
<g id="node8" class="node">
<title>Node8</title>
<g id="a_node8"><a xlink:href="../../d5/daf/_istring_8h.html" target="_top" xlink:title=" ">
<polygon fill="none" stroke="black" points="494.45,-275.5 494.45,-293.5 574.92,-293.5 574.92,-275.5 494.45,-275.5"/>
<text text-anchor="middle" x="534.68" y="-281.5" font-family="Helvetica,sans-Serif" font-size="10.00">tralics/Istring.h</text>
</a>
</g>
</g>
<!-- Node7&#45;&gt;Node8 -->
<g id="edge7" class="edge">
<title>Node7&#45;&gt;Node8</title>
<path fill="none" stroke="midnightblue" d="M519.5,-330.22C521.94,-323.02 525.57,-312.35 528.66,-303.23"/>
<polygon fill="midnightblue" stroke="midnightblue" points="532.05,-304.14 531.95,-293.55 525.42,-301.89 532.05,-304.14"/>
</g>
<!-- Node9 -->
<g id="node9" class="node">
<title>Node9</title>
<g id="a_node9"><a xlink:href="../../d0/d0b/enums_8h.html" target="_top" xlink:title=" ">
<polygon fill="none" stroke="black" points="660.51,-165.5 660.51,-183.5 714.86,-183.5 714.86,-165.5 660.51,-165.5"/>
<text text-anchor="middle" x="687.68" y="-171.5" font-family="Helvetica,sans-Serif" font-size="10.00">enums.h</text>
</a>
</g>
</g>
<!-- Node8&#45;&gt;Node9 -->
<g id="edge8" class="edge">
<title>Node8&#45;&gt;Node9</title>
<path fill="none" stroke="midnightblue" d="M542.9,-275.5C556.11,-262.86 583.17,-237.87 608.68,-220 625.66,-208.11 646.07,-196.68 661.9,-188.38"/>
<polygon fill="midnightblue" stroke="midnightblue" points="663.8,-191.33 671.08,-183.64 660.59,-185.11 663.8,-191.33"/>
</g>
<!-- Node15 -->
<g id="node15" class="node">
<title>Node15</title>
<g id="a_node15"><a xlink:href="../../d8/d3c/util_8h.html" target="_top" xlink:title=" ">
<polygon fill="none" stroke="black" points="430.12,-220.5 430.12,-238.5 467.25,-238.5 467.25,-220.5 430.12,-220.5"/>
<text text-anchor="middle" x="448.68" y="-226.5" font-family="Helvetica,sans-Serif" font-size="10.00">util.h</text>
</a>
</g>
</g>
<!-- Node8&#45;&gt;Node15 -->
<g id="edge14" class="edge">
<title>Node8&#45;&gt;Node15</title>
<path fill="none" stroke="midnightblue" d="M521.62,-275.45C508.11,-267.12 486.77,-253.97 470.65,-244.04"/>
<polygon fill="midnightblue" stroke="midnightblue" points="472.22,-240.89 461.87,-238.63 468.55,-246.85 472.22,-240.89"/>
</g>
<!-- Node16 -->
<g id="node16" class="node">
<title>Node16</title>
<g id="a_node16"><a xlink:title=" ">
<polygon fill="none" stroke="#bfbfbf" points="428.46,-165.5 428.46,-183.5 468.91,-183.5 468.91,-165.5 428.46,-165.5"/>
<text text-anchor="middle" x="448.68" y="-171.5" font-family="Helvetica,sans-Serif" font-size="10.00">string</text>
</a>
</g>
</g>
<!-- Node8&#45;&gt;Node16 -->
<g id="edge17" class="edge">
<title>Node8&#45;&gt;Node16</title>
<path fill="none" stroke="midnightblue" d="M528.22,-275.38C514.09,-257.63 480.22,-215.1 461.56,-191.67"/>
<polygon fill="midnightblue" stroke="midnightblue" points="464.19,-189.35 455.22,-183.71 458.71,-193.71 464.19,-189.35"/>
</g>
<!-- Node17 -->
<g id="node17" class="node">
<title>Node17</title>
<g id="a_node17"><a xlink:title=" ">
<polygon fill="none" stroke="#bfbfbf" points="523.29,-220.5 523.29,-238.5 562.08,-238.5 562.08,-220.5 523.29,-220.5"/>
<text text-anchor="middle" x="542.68" y="-226.5" font-family="Helvetica,sans-Serif" font-size="10.00">array</text>
</a>
</g>
</g>
<!-- Node8&#45;&gt;Node17 -->
<g id="edge16" class="edge">
<title>Node8&#45;&gt;Node17</title>
<path fill="none" stroke="midnightblue" d="M535.93,-275.22C537.01,-268.1 538.6,-257.58 539.96,-248.53"/>
<polygon fill="midnightblue" stroke="midnightblue" points="543.44,-248.96 541.47,-238.55 536.52,-247.92 543.44,-248.96"/>
</g>
<!-- Node10 -->
<g id="node10" class="node">
<title>Node10</title>
<g id="a_node10"><a xlink:href="../../d8/db5/consts_8h.html" target="_top" xlink:title=" ">
<polygon fill="none" stroke="black" points="661.06,-110.5 661.06,-128.5 714.31,-128.5 714.31,-110.5 661.06,-110.5"/>
<text text-anchor="middle" x="687.68" y="-116.5" font-family="Helvetica,sans-Serif" font-size="10.00">consts.h</text>
</a>
</g>
</g>
<!-- Node9&#45;&gt;Node10 -->
<g id="edge9" class="edge">
<title>Node9&#45;&gt;Node10</title>
<path fill="none" stroke="midnightblue" d="M687.68,-165.22C687.68,-158.18 687.68,-147.81 687.68,-138.83"/>
<polygon fill="midnightblue" stroke="midnightblue" points="691.18,-138.55 687.68,-128.55 684.18,-138.55 691.18,-138.55"/>
</g>
<!-- Node11 -->
<g id="node11" class="node">
<title>Node11</title>
<g id="a_node11"><a xlink:href="../../d9/d49/types_8h.html" target="_top" xlink:title=" ">
<polygon fill="none" stroke="black" points="601.56,-55.5 601.56,-73.5 649.81,-73.5 649.81,-55.5 601.56,-55.5"/>
<text text-anchor="middle" x="625.68" y="-61.5" font-family="Helvetica,sans-Serif" font-size="10.00">types.h</text>
</a>
</g>
</g>
<!-- Node10&#45;&gt;Node11 -->
<g id="edge10" class="edge">
<title>Node10&#45;&gt;Node11</title>
<path fill="none" stroke="midnightblue" d="M678.27,-110.45C668.89,-102.43 654.28,-89.95 642.84,-80.17"/>
<polygon fill="midnightblue" stroke="midnightblue" points="645.07,-77.46 635.19,-73.63 640.52,-82.78 645.07,-77.46"/>
</g>
<!-- Node12 -->
<g id="node12" class="node">
<title>Node12</title>
<g id="a_node12"><a xlink:title=" ">
<polygon fill="none" stroke="#bfbfbf" points="535.57,-0.5 535.57,-18.5 583.8,-18.5 583.8,-0.5 535.57,-0.5"/>
<text text-anchor="middle" x="559.68" y="-6.5" font-family="Helvetica,sans-Serif" font-size="10.00">cassert</text>
</a>
</g>
</g>
<!-- Node11&#45;&gt;Node12 -->
<g id="edge11" class="edge">
<title>Node11&#45;&gt;Node12</title>
<path fill="none" stroke="midnightblue" d="M615.66,-55.45C605.68,-47.43 590.13,-34.95 577.95,-25.17"/>
<polygon fill="midnightblue" stroke="midnightblue" points="579.79,-22.16 569.8,-18.63 575.41,-27.62 579.79,-22.16"/>
</g>
<!-- Node13 -->
<g id="node13" class="node">
<title>Node13</title>
<g id="a_node13"><a xlink:title=" ">
<polygon fill="none" stroke="#bfbfbf" points="601.56,-0.5 601.56,-18.5 649.81,-18.5 649.81,-0.5 601.56,-0.5"/>
<text text-anchor="middle" x="625.68" y="-6.5" font-family="Helvetica,sans-Serif" font-size="10.00">cstddef</text>
</a>
</g>
</g>
<!-- Node11&#45;&gt;Node13 -->
<g id="edge12" class="edge">
<title>Node11&#45;&gt;Node13</title>
<path fill="none" stroke="midnightblue" d="M625.68,-55.22C625.68,-48.18 625.68,-37.81 625.68,-28.83"/>
<polygon fill="midnightblue" stroke="midnightblue" points="629.18,-28.55 625.68,-18.55 622.18,-28.55 629.18,-28.55"/>
</g>
<!-- Node14 -->
<g id="node14" class="node">
<title>Node14</title>
<g id="a_node14"><a xlink:title=" ">
<polygon fill="none" stroke="#bfbfbf" points="667.62,-0.5 667.62,-18.5 729.75,-18.5 729.75,-0.5 667.62,-0.5"/>
<text text-anchor="middle" x="698.68" y="-6.5" font-family="Helvetica,sans-Serif" font-size="10.00">type_traits</text>
</a>
</g>
</g>
<!-- Node11&#45;&gt;Node14 -->
<g id="edge13" class="edge">
<title>Node11&#45;&gt;Node14</title>
<path fill="none" stroke="midnightblue" d="M636.77,-55.45C648.03,-47.28 665.68,-34.46 679.26,-24.6"/>
<polygon fill="midnightblue" stroke="midnightblue" points="681.46,-27.33 687.49,-18.63 677.34,-21.67 681.46,-27.33"/>
</g>
<!-- Node15&#45;&gt;Node16 -->
<g id="edge15" class="edge">
<title>Node15&#45;&gt;Node16</title>
<path fill="none" stroke="midnightblue" d="M448.68,-220.22C448.68,-213.18 448.68,-202.81 448.68,-193.83"/>
<polygon fill="midnightblue" stroke="midnightblue" points="452.18,-193.55 448.68,-183.55 445.18,-193.55 452.18,-193.55"/>
</g>
<!-- Node19 -->
<g id="node19" class="node">
<title>Node19</title>
<g id="a_node19"><a xlink:href="../../dc/d91/txtokenlist_8h.html" target="_top" xlink:title=" ">
<polygon fill="none" stroke="black" points="568.28,-330.5 568.28,-348.5 637.09,-348.5 637.09,-330.5 568.28,-330.5"/>
<text text-anchor="middle" x="602.68" y="-336.5" font-family="Helvetica,sans-Serif" font-size="10.00">txtokenlist.h</text>
</a>
</g>
</g>
<!-- Node18&#45;&gt;Node19 -->
<g id="edge19" class="edge">
<title>Node18&#45;&gt;Node19</title>
<path fill="none" stroke="midnightblue" d="M621.25,-385.22C618.23,-377.94 613.73,-367.11 609.92,-357.93"/>
<polygon fill="midnightblue" stroke="midnightblue" points="613.09,-356.44 606.03,-348.55 606.63,-359.13 613.09,-356.44"/>
</g>
<!-- Node19&#45;&gt;Node8 -->
<g id="edge20" class="edge">
<title>Node19&#45;&gt;Node8</title>
<path fill="none" stroke="midnightblue" d="M592.36,-330.45C581.97,-322.36 565.74,-309.7 553.14,-299.88"/>
<polygon fill="midnightblue" stroke="midnightblue" points="555.15,-297.01 545.11,-293.63 550.85,-302.53 555.15,-297.01"/>
</g>
<!-- Node20 -->
<g id="node20" class="node">
<title>Node20</title>
<g id="a_node20"><a xlink:href="../../dd/dcd/_token_8h.html" target="_top" xlink:title=" ">
<polygon fill="none" stroke="black" points="608.73,-275.5 608.73,-293.5 688.64,-293.5 688.64,-275.5 608.73,-275.5"/>
<text text-anchor="middle" x="648.68" y="-281.5" font-family="Helvetica,sans-Serif" font-size="10.00">tralics/Token.h</text>
</a>
</g>
</g>
<!-- Node19&#45;&gt;Node20 -->
<g id="edge21" class="edge">
<title>Node19&#45;&gt;Node20</title>
<path fill="none" stroke="midnightblue" d="M609.87,-330.22C616.6,-322.47 626.81,-310.7 635.08,-301.18"/>
<polygon fill="midnightblue" stroke="midnightblue" points="637.79,-303.4 641.7,-293.55 632.5,-298.81 637.79,-303.4"/>
</g>
<!-- Node25 -->
<g id="node25" class="node">
<title>Node25</title>
<g id="a_node25"><a xlink:title=" ">
<polygon fill="none" stroke="#bfbfbf" points="433.29,-275.5 433.29,-293.5 472.08,-293.5 472.08,-275.5 433.29,-275.5"/>
<text text-anchor="middle" x="452.68" y="-281.5" font-family="Helvetica,sans-Serif" font-size="10.00">utility</text>
</a>
</g>
</g>
<!-- Node19&#45;&gt;Node25 -->
<g id="edge28" class="edge">
<title>Node19&#45;&gt;Node25</title>
<path fill="none" stroke="midnightblue" d="M579.9,-330.45C553.66,-321.18 510.47,-305.92 481.81,-295.79"/>
<polygon fill="midnightblue" stroke="midnightblue" points="482.92,-292.47 472.33,-292.44 480.59,-299.07 482.92,-292.47"/>
</g>
<!-- Node21 -->
<g id="node21" class="node">
<title>Node21</title>
<g id="a_node21"><a xlink:href="../../d2/d68/_cmd_chr_8h.html" target="_top" xlink:title=" ">
<polygon fill="none" stroke="black" points="618.17,-220.5 618.17,-238.5 679.19,-238.5 679.19,-220.5 618.17,-220.5"/>
<text text-anchor="middle" x="648.68" y="-226.5" font-family="Helvetica,sans-Serif" font-size="10.00">CmdChr.h</text>
</a>
</g>
</g>
<!-- Node20&#45;&gt;Node21 -->
<g id="edge22" class="edge">
<title>Node20&#45;&gt;Node21</title>
<path fill="none" stroke="midnightblue" d="M648.68,-275.22C648.68,-268.18 648.68,-257.81 648.68,-248.83"/>
<polygon fill="midnightblue" stroke="midnightblue" points="652.18,-248.55 648.68,-238.55 645.18,-248.55 652.18,-248.55"/>
</g>
<!-- Node24 -->
<g id="node24" class="node">
<title>Node24</title>
<g id="a_node24"><a xlink:title=" ">
<polygon fill="none" stroke="#bfbfbf" points="697.18,-220.5 697.18,-238.5 726.18,-238.5 726.18,-220.5 697.18,-220.5"/>
<text text-anchor="middle" x="711.3" y="-226.5" font-family="Helvetica,sans-Serif" font-size="10.00">list</text>
</a>
</g>
</g>
<!-- Node20&#45;&gt;Node24 -->
<g id="edge27" class="edge">
<title>Node20&#45;&gt;Node24</title>
<path fill="none" stroke="midnightblue" d="M658.25,-275.45C667.78,-267.43 682.62,-254.95 694.25,-245.17"/>
<polygon fill="midnightblue" stroke="midnightblue" points="696.63,-247.74 702.03,-238.63 692.12,-242.38 696.63,-247.74"/>
</g>
<!-- Node21&#45;&gt;Node9 -->
<g id="edge26" class="edge">
<title>Node21&#45;&gt;Node9</title>
<path fill="none" stroke="midnightblue" d="M654.78,-220.22C660.36,-212.63 668.79,-201.18 675.72,-191.76"/>
<polygon fill="midnightblue" stroke="midnightblue" points="678.65,-193.68 681.76,-183.55 673.02,-189.53 678.65,-193.68"/>
</g>
<!-- Node22 -->
<g id="node22" class="node">
<title>Node22</title>
<g id="a_node22"><a xlink:href="../../d8/d47/codepoint_8h.html" target="_top" xlink:title=" ">
<polygon fill="none" stroke="black" points="574.83,-165.5 574.83,-183.5 642.54,-183.5 642.54,-165.5 574.83,-165.5"/>
<text text-anchor="middle" x="608.68" y="-171.5" font-family="Helvetica,sans-Serif" font-size="10.00">codepoint.h</text>
</a>
</g>
</g>
<!-- Node21&#45;&gt;Node22 -->
<g id="edge23" class="edge">
<title>Node21&#45;&gt;Node22</title>
<path fill="none" stroke="midnightblue" d="M642.43,-220.22C636.71,-212.63 628.06,-201.18 620.96,-191.76"/>
<polygon fill="midnightblue" stroke="midnightblue" points="623.58,-189.42 614.76,-183.55 617.99,-193.64 623.58,-189.42"/>
</g>
<!-- Node22&#45;&gt;Node11 -->
<g id="edge24" class="edge">
<title>Node22&#45;&gt;Node11</title>
<path fill="none" stroke="midnightblue" d="M601.05,-165.29C590.77,-153.2 574.65,-129.88 582.68,-110 587.43,-98.26 596.93,-87.89 605.79,-80.12"/>
<polygon fill="midnightblue" stroke="midnightblue" points="608.06,-82.79 613.6,-73.76 603.64,-77.37 608.06,-82.79"/>
</g>
<!-- Node23 -->
<g id="node23" class="node">
<title>Node23</title>
<g id="a_node23"><a xlink:title=" ">
<polygon fill="none" stroke="#bfbfbf" points="592.17,-110.5 592.17,-128.5 643.2,-128.5 643.2,-110.5 592.17,-110.5"/>
<text text-anchor="middle" x="617.68" y="-116.5" font-family="Helvetica,sans-Serif" font-size="10.00">optional</text>
</a>
</g>
</g>
<!-- Node22&#45;&gt;Node23 -->
<g id="edge25" class="edge">
<title>Node22&#45;&gt;Node23</title>
<path fill="none" stroke="midnightblue" d="M610.09,-165.22C611.3,-158.1 613.09,-147.58 614.62,-138.53"/>
<polygon fill="midnightblue" stroke="midnightblue" points="618.09,-138.99 616.32,-128.55 611.19,-137.82 618.09,-138.99"/>
</g>
<!-- Node30 -->
<g id="node30" class="node">
<title>Node30</title>
<g id="a_node30"><a xlink:href="../../d4/de9/_main_class_8h.html" target="_top" xlink:title=" ">
<polygon fill="none" stroke="black" points="193.73,-605.5 193.73,-623.5 293.64,-623.5 293.64,-605.5 193.73,-605.5"/>
<text text-anchor="middle" x="243.68" y="-611.5" font-family="Helvetica,sans-Serif" font-size="10.00">tralics/MainClass.h</text>
</a>
</g>
</g>
<!-- Node29&#45;&gt;Node30 -->
<g id="edge33" class="edge">
<title>Node29&#45;&gt;Node30</title>
<path fill="none" stroke="midnightblue" d="M186.01,-660.45C196.4,-652.36 212.63,-639.7 225.23,-629.88"/>
<polygon fill="midnightblue" stroke="midnightblue" points="227.52,-632.53 233.26,-623.63 223.22,-627.01 227.52,-632.53"/>
</g>
<!-- Node33 -->
<g id="node33" class="node">
<title>Node33</title>
<g id="a_node33"><a xlink:href="../../d2/d06/txlogger_8h.html" target="_top" xlink:title=" ">
<polygon fill="none" stroke="black" points="0,-605.5 0,-623.5 59.37,-623.5 59.37,-605.5 0,-605.5"/>
<text text-anchor="middle" x="29.68" y="-611.5" font-family="Helvetica,sans-Serif" font-size="10.00">txlogger.h</text>
</a>
</g>
</g>
<!-- Node29&#45;&gt;Node33 -->
<g id="edge38" class="edge">
<title>Node29&#45;&gt;Node33</title>
<path fill="none" stroke="midnightblue" d="M153.51,-660.45C129.07,-651.58 89.54,-637.23 61.73,-627.13"/>
<polygon fill="midnightblue" stroke="midnightblue" points="62.66,-623.75 52.07,-623.63 60.27,-630.33 62.66,-623.75"/>
</g>
<!-- Node34 -->
<g id="node34" class="node">
<title>Node34</title>
<g id="a_node34"><a xlink:href="../../d5/d08/txparam_8h.html" target="_top" xlink:title=" ">
<polygon fill="none" stroke="black" points="77.45,-605.5 77.45,-623.5 137.92,-623.5 137.92,-605.5 77.45,-605.5"/>
<text text-anchor="middle" x="107.68" y="-611.5" font-family="Helvetica,sans-Serif" font-size="10.00">txparam.h</text>
</a>
</g>
</g>
<!-- Node29&#45;&gt;Node34 -->
<g id="edge41" class="edge">
<title>Node29&#45;&gt;Node34</title>
<path fill="none" stroke="midnightblue" d="M165.36,-660.45C154.97,-652.36 138.74,-639.7 126.14,-629.88"/>
<polygon fill="midnightblue" stroke="midnightblue" points="128.15,-627.01 118.11,-623.63 123.85,-632.53 128.15,-627.01"/>
</g>
<!-- Node30&#45;&gt;Node5 -->
<g id="edge37" class="edge">
<title>Node30&#45;&gt;Node5</title>
<path fill="none" stroke="midnightblue" d="M266.61,-605.38C320.28,-586.38 454.24,-538.94 516.25,-516.99"/>
<polygon fill="midnightblue" stroke="midnightblue" points="517.65,-520.2 525.91,-513.56 515.32,-513.6 517.65,-520.2"/>
</g>
<!-- Node31 -->
<g id="node31" class="node">
<title>Node31</title>
<g id="a_node31"><a xlink:href="../../de/d29/txio_8h.html" target="_top" xlink:title=" ">
<polygon fill="none" stroke="black" points="219.57,-550.5 219.57,-568.5 267.8,-568.5 267.8,-550.5 219.57,-550.5"/>
<text text-anchor="middle" x="243.68" y="-556.5" font-family="Helvetica,sans-Serif" font-size="10.00">../txio.h</text>
</a>
</g>
</g>
<!-- Node30&#45;&gt;Node31 -->
<g id="edge34" class="edge">
<title>Node30&#45;&gt;Node31</title>
<path fill="none" stroke="midnightblue" d="M243.68,-605.22C243.68,-598.18 243.68,-587.81 243.68,-578.83"/>
<polygon fill="midnightblue" stroke="midnightblue" points="247.18,-578.55 243.68,-568.55 240.18,-578.55 247.18,-578.55"/>
</g>
<!-- Node31&#45;&gt;Node6 -->
<g id="edge35" class="edge">
<title>Node31&#45;&gt;Node6</title>
<path fill="none" stroke="midnightblue" d="M266.61,-550.38C320.28,-531.38 454.24,-483.94 516.25,-461.99"/>
<polygon fill="midnightblue" stroke="midnightblue" points="517.65,-465.2 525.91,-458.56 515.32,-458.6 517.65,-465.2"/>
</g>
<!-- Node32 -->
<g id="node32" class="node">
<title>Node32</title>
<g id="a_node32"><a xlink:title=" ">
<polygon fill="none" stroke="#bfbfbf" points="123.01,-495.5 123.01,-513.5 172.35,-513.5 172.35,-495.5 123.01,-495.5"/>
<text text-anchor="middle" x="147.68" y="-501.5" font-family="Helvetica,sans-Serif" font-size="10.00">fstream</text>
</a>
</g>
</g>
<!-- Node31&#45;&gt;Node32 -->
<g id="edge36" class="edge">
<title>Node31&#45;&gt;Node32</title>
<path fill="none" stroke="midnightblue" d="M229.1,-550.45C213.74,-541.97 189.3,-528.48 171.21,-518.49"/>
<polygon fill="midnightblue" stroke="midnightblue" points="172.85,-515.39 162.4,-513.63 169.46,-521.52 172.85,-515.39"/>
</g>
<!-- Node33&#45;&gt;Node28 -->
<g id="edge40" class="edge">
<title>Node33&#45;&gt;Node28</title>
<path fill="none" stroke="midnightblue" d="M47.3,-605.45C66.29,-596.77 96.76,-582.86 118.75,-572.8"/>
<polygon fill="midnightblue" stroke="midnightblue" points="120.26,-575.96 127.9,-568.63 117.35,-569.6 120.26,-575.96"/>
</g>
<!-- Node33&#45;&gt;Node32 -->
<g id="edge39" class="edge">
<title>Node33&#45;&gt;Node32</title>
<path fill="none" stroke="midnightblue" d="M38.55,-605.38C58.2,-587.4 105.65,-543.97 131.03,-520.75"/>
<polygon fill="midnightblue" stroke="midnightblue" points="133.7,-523.05 138.71,-513.71 128.97,-517.88 133.7,-523.05"/>
</g>
<!-- Node34&#45;&gt;Node31 -->
<g id="edge42" class="edge">
<title>Node34&#45;&gt;Node31</title>
<path fill="none" stroke="midnightblue" d="M128.34,-605.45C151.01,-596.62 187.6,-582.35 213.49,-572.27"/>
<polygon fill="midnightblue" stroke="midnightblue" points="214.79,-575.52 222.83,-568.63 212.25,-569 214.79,-575.52"/>
</g>
<!-- Node35&#45;&gt;Node31 -->
<g id="edge57" class="edge">
<title>Node35&#45;&gt;Node31</title>
<path fill="none" stroke="midnightblue" d="M492.69,-664.37C455.77,-658.57 391.7,-646.16 340.68,-624 310.88,-611.06 280.09,-589.19 261.41,-574.79"/>
<polygon fill="midnightblue" stroke="midnightblue" points="263.53,-572.01 253.5,-568.58 259.21,-577.51 263.53,-572.01"/>
</g>
<!-- Node36 -->
<g id="node36" class="node">
<title>Node36</title>
<g id="a_node36"><a xlink:href="../../d8/dd6/_e_q_t_b_8h.html" target="_top" xlink:title=" ">
<polygon fill="none" stroke="black" points="668.46,-495.5 668.46,-513.5 748.91,-513.5 748.91,-495.5 668.46,-495.5"/>
<text text-anchor="middle" x="708.68" y="-501.5" font-family="Helvetica,sans-Serif" font-size="10.00">tralics/EQTB.h</text>
</a>
</g>
</g>
<!-- Node35&#45;&gt;Node36 -->
<g id="edge44" class="edge">
<title>Node35&#45;&gt;Node36</title>
<path fill="none" stroke="midnightblue" d="M552.85,-661.93C605.98,-650.3 710.96,-627.02 713.68,-624 738.55,-596.45 725.92,-548.95 716.27,-523.25"/>
<polygon fill="midnightblue" stroke="midnightblue" points="719.41,-521.67 712.43,-513.69 712.91,-524.28 719.41,-521.67"/>
</g>
<!-- Node37 -->
<g id="node37" class="node">
<title>Node37</title>
<g id="a_node37"><a xlink:href="../../d3/d6b/txcond_8h.html" target="_top" xlink:title=" ">
<polygon fill="none" stroke="black" points="727.78,-440.5 727.78,-458.5 781.59,-458.5 781.59,-440.5 727.78,-440.5"/>
<text text-anchor="middle" x="754.68" y="-446.5" font-family="Helvetica,sans-Serif" font-size="10.00">txcond.h</text>
</a>
</g>
</g>
<!-- Node35&#45;&gt;Node37 -->
<g id="edge46" class="edge">
<title>Node35&#45;&gt;Node37</title>
<path fill="none" stroke="midnightblue" d="M552.91,-661.89C555.88,-661.25 558.84,-660.61 561.68,-660 638.06,-643.68 678.22,-678.99 733.68,-624 775.68,-582.36 765.9,-503.56 758.84,-468.31"/>
<polygon fill="midnightblue" stroke="midnightblue" points="762.26,-467.54 756.72,-458.5 755.41,-469.02 762.26,-467.54"/>
</g>
<!-- Node38 -->
<g id="node38" class="node">
<title>Node38</title>
<g id="a_node38"><a xlink:href="../../d7/d4d/txfonts_8h.html" target="_top" xlink:title=" ">
<polygon fill="none" stroke="black" points="587.79,-550.5 587.79,-568.5 641.58,-568.5 641.58,-550.5 587.79,-550.5"/>
<text text-anchor="middle" x="614.68" y="-556.5" font-family="Helvetica,sans-Serif" font-size="10.00">txfonts.h</text>
</a>
</g>
</g>
<!-- Node35&#45;&gt;Node38 -->
<g id="edge49" class="edge">
<title>Node35&#45;&gt;Node38</title>
<path fill="none" stroke="midnightblue" d="M544.2,-660.42C560.57,-653.22 582.45,-641.16 595.68,-624 605.79,-610.9 610.54,-592.49 612.76,-578.86"/>
<polygon fill="midnightblue" stroke="midnightblue" points="616.25,-579.14 614.09,-568.77 609.31,-578.22 616.25,-579.14"/>
</g>
<!-- Node39 -->
<g id="node39" class="node">
<title>Node39</title>
<g id="a_node39"><a xlink:href="../../d7/d7e/txhash_8h.html" target="_top" xlink:title=" ">
<polygon fill="none" stroke="black" points="650.78,-605.5 650.78,-623.5 704.59,-623.5 704.59,-605.5 650.78,-605.5"/>
<text text-anchor="middle" x="677.68" y="-611.5" font-family="Helvetica,sans-Serif" font-size="10.00">txhash.h</text>
</a>
</g>
</g>
<!-- Node35&#45;&gt;Node39 -->
<g id="edge51" class="edge">
<title>Node35&#45;&gt;Node39</title>
<path fill="none" stroke="midnightblue" d="M546.23,-660.45C572.48,-651.47 615.12,-636.89 644.69,-626.78"/>
<polygon fill="midnightblue" stroke="midnightblue" points="645.85,-630.09 654.18,-623.54 643.58,-623.46 645.85,-630.09"/>
</g>
<!-- Node41 -->
<g id="node41" class="node">
<title>Node41</title>
<g id="a_node41"><a xlink:href="../../de/d7c/tximage_8h.html" target="_top" xlink:title=" ">
<polygon fill="none" stroke="black" points="380.01,-330.5 380.01,-348.5 439.36,-348.5 439.36,-330.5 380.01,-330.5"/>
<text text-anchor="middle" x="409.68" y="-336.5" font-family="Helvetica,sans-Serif" font-size="10.00">tximage.h</text>
</a>
</g>
</g>
<!-- Node35&#45;&gt;Node41 -->
<g id="edge54" class="edge">
<title>Node35&#45;&gt;Node41</title>
<path fill="none" stroke="midnightblue" d="M502.85,-660.46C486.85,-653.09 464.77,-640.76 450.68,-624 414.83,-581.33 409.68,-561.23 409.68,-505.5 409.68,-505.5 409.68,-505.5 409.68,-448.5 409.68,-417.02 409.68,-380.37 409.68,-358.88"/>
<polygon fill="midnightblue" stroke="midnightblue" points="413.18,-358.63 409.68,-348.63 406.18,-358.63 413.18,-358.63"/>
</g>
<!-- Node42 -->
<g id="node42" class="node">
<title>Node42</title>
<g id="a_node42"><a xlink:href="../../dc/d65/txstack_8h.html" target="_top" xlink:title=" ">
<polygon fill="none" stroke="black" points="530.96,-605.5 530.96,-623.5 586.41,-623.5 586.41,-605.5 530.96,-605.5"/>
<text text-anchor="middle" x="558.68" y="-611.5" font-family="Helvetica,sans-Serif" font-size="10.00">txstack.h</text>
</a>
</g>
</g>
<!-- Node35&#45;&gt;Node42 -->
<g id="edge58" class="edge">
<title>Node35&#45;&gt;Node42</title>
<path fill="none" stroke="midnightblue" d="M528.31,-660.22C533.41,-652.71 541.08,-641.41 547.44,-632.05"/>
<polygon fill="midnightblue" stroke="midnightblue" points="550.49,-633.79 553.22,-623.55 544.7,-629.86 550.49,-633.79"/>
</g>
<!-- Node44 -->
<g id="node44" class="node">
<title>Node44</title>
<g id="a_node44"><a xlink:href="../../d8/d3d/txstats_8h.html" target="_top" xlink:title=" ">
<polygon fill="none" stroke="black" points="460.07,-605.5 460.07,-623.5 513.3,-623.5 513.3,-605.5 460.07,-605.5"/>
<text text-anchor="middle" x="486.68" y="-611.5" font-family="Helvetica,sans-Serif" font-size="10.00">txstats.h</text>
</a>
</g>
</g>
<!-- Node35&#45;&gt;Node44 -->
<g id="edge62" class="edge">
<title>Node35&#45;&gt;Node44</title>
<path fill="none" stroke="midnightblue" d="M517.06,-660.22C511.96,-652.71 504.28,-641.41 497.93,-632.05"/>
<polygon fill="midnightblue" stroke="midnightblue" points="500.67,-629.86 492.15,-623.55 494.88,-633.79 500.67,-629.86"/>
</g>
<!-- Node36&#45;&gt;Node18 -->
<g id="edge45" class="edge">
<title>Node36&#45;&gt;Node18</title>
<path fill="none" stroke="midnightblue" d="M702.37,-495.38C688.57,-477.63 655.48,-435.1 637.26,-411.67"/>
<polygon fill="midnightblue" stroke="midnightblue" points="639.97,-409.46 631.07,-403.71 634.45,-413.75 639.97,-409.46"/>
</g>
<!-- Node37&#45;&gt;Node9 -->
<g id="edge47" class="edge">
<title>Node37&#45;&gt;Node9</title>
<path fill="none" stroke="midnightblue" d="M754.68,-440.37C754.68,-422.38 754.68,-377.81 754.68,-340.5 754.68,-340.5 754.68,-340.5 754.68,-283.5 754.68,-253.91 750.37,-245.09 734.68,-220 727.5,-208.51 716.64,-197.96 707.18,-190.02"/>
<polygon fill="midnightblue" stroke="midnightblue" points="709.34,-187.27 699.34,-183.76 704.97,-192.74 709.34,-187.27"/>
</g>
<!-- Node37&#45;&gt;Node27 -->
<g id="edge48" class="edge">
<title>Node37&#45;&gt;Node27</title>
<path fill="none" stroke="midnightblue" d="M746.56,-440.22C738.88,-432.39 727.18,-420.46 717.79,-410.89"/>
<polygon fill="midnightblue" stroke="midnightblue" points="720.08,-408.24 710.58,-403.55 715.09,-413.14 720.08,-408.24"/>
</g>
<!-- Node38&#45;&gt;Node5 -->
<g id="edge50" class="edge">
<title>Node38&#45;&gt;Node5</title>
<path fill="none" stroke="midnightblue" d="M604.66,-550.45C594.68,-542.43 579.13,-529.95 566.95,-520.17"/>
<polygon fill="midnightblue" stroke="midnightblue" points="568.79,-517.16 558.8,-513.63 564.41,-522.62 568.79,-517.16"/>
</g>
<!-- Node40 -->
<g id="node40" class="node">
<title>Node40</title>
<g id="a_node40"><a xlink:href="../../d3/d01/txeqtb_8h.html" target="_top" xlink:title=" ">
<polygon fill="none" stroke="black" points="659.89,-550.5 659.89,-568.5 711.48,-568.5 711.48,-550.5 659.89,-550.5"/>
<text text-anchor="middle" x="685.68" y="-556.5" font-family="Helvetica,sans-Serif" font-size="10.00">txeqtb.h</text>
</a>
</g>
</g>
<!-- Node39&#45;&gt;Node40 -->
<g id="edge52" class="edge">
<title>Node39&#45;&gt;Node40</title>
<path fill="none" stroke="midnightblue" d="M678.93,-605.22C680.01,-598.1 681.6,-587.58 682.96,-578.53"/>
<polygon fill="midnightblue" stroke="midnightblue" points="686.44,-578.96 684.47,-568.55 679.52,-577.92 686.44,-578.96"/>
</g>
<!-- Node40&#45;&gt;Node5 -->
<g id="edge53" class="edge">
<title>Node40&#45;&gt;Node5</title>
<path fill="none" stroke="midnightblue" d="M664.88,-550.45C642.04,-541.62 605.18,-527.35 579.1,-517.27"/>
<polygon fill="midnightblue" stroke="midnightblue" points="580.28,-513.97 569.69,-513.63 577.75,-520.5 580.28,-513.97"/>
</g>
<!-- Node41&#45;&gt;Node16 -->
<g id="edge55" class="edge">
<title>Node41&#45;&gt;Node16</title>
<path fill="none" stroke="midnightblue" d="M409.17,-330.47C408.19,-310.96 407.21,-259.72 420.68,-220 424.09,-209.95 430.18,-199.85 435.81,-191.82"/>
<polygon fill="midnightblue" stroke="midnightblue" points="438.65,-193.86 441.8,-183.75 433.03,-189.69 438.65,-193.86"/>
</g>
<!-- Node41&#45;&gt;Node25 -->
<g id="edge56" class="edge">
<title>Node41&#45;&gt;Node25</title>
<path fill="none" stroke="midnightblue" d="M416.4,-330.22C422.62,-322.55 432.05,-310.94 439.73,-301.47"/>
<polygon fill="midnightblue" stroke="midnightblue" points="442.57,-303.52 446.15,-293.55 437.14,-299.11 442.57,-303.52"/>
</g>
<!-- Node42&#45;&gt;Node4 -->
<g id="edge59" class="edge">
<title>Node42&#45;&gt;Node4</title>
<path fill="none" stroke="midnightblue" d="M545.62,-605.45C532.11,-597.12 510.77,-583.97 494.65,-574.04"/>
<polygon fill="midnightblue" stroke="midnightblue" points="496.22,-570.89 485.87,-568.63 492.55,-576.85 496.22,-570.89"/>
</g>
<!-- Node43 -->
<g id="node43" class="node">
<title>Node43</title>
<g id="a_node43"><a xlink:href="../../d4/da4/txatt_8h.html" target="_top" xlink:title=" ">
<polygon fill="none" stroke="black" points="526.07,-550.5 526.07,-568.5 569.3,-568.5 569.3,-550.5 526.07,-550.5"/>
<text text-anchor="middle" x="547.68" y="-556.5" font-family="Helvetica,sans-Serif" font-size="10.00">txatt.h</text>
</a>
</g>
</g>
<!-- Node42&#45;&gt;Node43 -->
<g id="edge60" class="edge">
<title>Node42&#45;&gt;Node43</title>
<path fill="none" stroke="midnightblue" d="M556.97,-605.22C555.49,-598.1 553.3,-587.58 551.43,-578.53"/>
<polygon fill="midnightblue" stroke="midnightblue" points="554.81,-577.63 549.36,-568.55 547.96,-579.05 554.81,-577.63"/>
</g>
<!-- Node43&#45;&gt;Node5 -->
<g id="edge61" class="edge">
<title>Node43&#45;&gt;Node5</title>
<path fill="none" stroke="midnightblue" d="M547.84,-550.22C547.97,-543.18 548.17,-532.81 548.34,-523.83"/>
<polygon fill="midnightblue" stroke="midnightblue" points="551.84,-523.61 548.53,-513.55 544.84,-523.48 551.84,-523.61"/>
</g>
</g>
</svg>
