<?xml version="1.0" encoding="UTF-8" standalone="no"?>
<!DOCTYPE svg PUBLIC "-//W3C//DTD SVG 1.1//EN"
 "http://www.w3.org/Graphics/SVG/1.1/DTD/svg11.dtd">
<!-- Generated by graphviz version 2.42.3 (20191010.1750)
 -->
<!-- Title: txmath1.cpp Pages: 1 -->
<svg width="704pt" height="742pt"
 viewBox="0.00 0.00 704.35 742.00" xmlns="http://www.w3.org/2000/svg" xmlns:xlink="http://www.w3.org/1999/xlink">
<g id="graph0" class="graph" transform="scale(1 1) rotate(0) translate(4 738)">
<title>txmath1.cpp</title>
<!-- Node1 -->
<g id="node1" class="node">
<title>Node1</title>
<g id="a_node1"><a xlink:title=" ">
<polygon fill="#bfbfbf" stroke="black" points="432.45,-715.5 432.45,-733.5 502.92,-733.5 502.92,-715.5 432.45,-715.5"/>
<text text-anchor="middle" x="467.68" y="-721.5" font-family="Helvetica,sans-Serif" font-size="10.00">txmath1.cpp</text>
</a>
</g>
</g>
<!-- Node2 -->
<g id="node2" class="node">
<title>Node2</title>
<g id="a_node2"><a xlink:href="../../d7/d79/txinline_8h.html" target="_top" xlink:title=" ">
<polygon fill="none" stroke="black" points="147.95,-660.5 147.95,-678.5 203.42,-678.5 203.42,-660.5 147.95,-660.5"/>
<text text-anchor="middle" x="175.68" y="-666.5" font-family="Helvetica,sans-Serif" font-size="10.00">txinline.h</text>
</a>
</g>
</g>
<!-- Node1&#45;&gt;Node2 -->
<g id="edge1" class="edge">
<title>Node1&#45;&gt;Node2</title>
<path fill="none" stroke="midnightblue" d="M432.17,-717.05C376.8,-707 270.36,-687.68 213.57,-677.38"/>
<polygon fill="midnightblue" stroke="midnightblue" points="214.03,-673.9 203.57,-675.56 212.78,-680.79 214.03,-673.9"/>
</g>
<!-- Node32 -->
<g id="node32" class="node">
<title>Node32</title>
<g id="a_node32"><a xlink:href="../../df/d79/txmath_8h.html" target="_top" xlink:title=" ">
<polygon fill="none" stroke="black" points="311.51,-605.5 311.51,-623.5 365.86,-623.5 365.86,-605.5 311.51,-605.5"/>
<text text-anchor="middle" x="338.68" y="-611.5" font-family="Helvetica,sans-Serif" font-size="10.00">txmath.h</text>
</a>
</g>
</g>
<!-- Node1&#45;&gt;Node32 -->
<g id="edge39" class="edge">
<title>Node1&#45;&gt;Node32</title>
<path fill="none" stroke="midnightblue" d="M457.99,-715.38C436.32,-697.24 383.73,-653.21 356.18,-630.15"/>
<polygon fill="midnightblue" stroke="midnightblue" points="358.41,-627.45 348.49,-623.71 353.91,-632.81 358.41,-627.45"/>
</g>
<!-- Node34 -->
<g id="node34" class="node">
<title>Node34</title>
<g id="a_node34"><a xlink:href="../../db/dd3/txmath1_8h.html" target="_top" xlink:title=" ">
<polygon fill="none" stroke="black" points="515.73,-660.5 515.73,-678.5 575.64,-678.5 575.64,-660.5 515.73,-660.5"/>
<text text-anchor="middle" x="545.68" y="-666.5" font-family="Helvetica,sans-Serif" font-size="10.00">txmath1.h</text>
</a>
</g>
</g>
<!-- Node1&#45;&gt;Node34 -->
<g id="edge43" class="edge">
<title>Node1&#45;&gt;Node34</title>
<path fill="none" stroke="midnightblue" d="M479.53,-715.45C491.67,-707.2 510.78,-694.22 525.35,-684.32"/>
<polygon fill="midnightblue" stroke="midnightblue" points="527.42,-687.14 533.73,-678.63 523.49,-681.35 527.42,-687.14"/>
</g>
<!-- Node35 -->
<g id="node35" class="node">
<title>Node35</title>
<g id="a_node35"><a xlink:href="../../d2/d1b/txparser_8h.html" target="_top" xlink:title=" ">
<polygon fill="none" stroke="black" points="437.73,-660.5 437.73,-678.5 497.64,-678.5 497.64,-660.5 437.73,-660.5"/>
<text text-anchor="middle" x="467.68" y="-666.5" font-family="Helvetica,sans-Serif" font-size="10.00">txparser.h</text>
</a>
</g>
</g>
<!-- Node1&#45;&gt;Node35 -->
<g id="edge44" class="edge">
<title>Node1&#45;&gt;Node35</title>
<path fill="none" stroke="midnightblue" d="M467.68,-715.22C467.68,-708.18 467.68,-697.81 467.68,-688.83"/>
<polygon fill="midnightblue" stroke="midnightblue" points="471.18,-688.55 467.68,-678.55 464.18,-688.55 471.18,-688.55"/>
</g>
<!-- Node44 -->
<g id="node44" class="node">
<title>Node44</title>
<g id="a_node44"><a xlink:title=" ">
<polygon fill="none" stroke="#bfbfbf" points="594.12,-660.5 594.12,-678.5 651.25,-678.5 651.25,-660.5 594.12,-660.5"/>
<text text-anchor="middle" x="622.68" y="-666.5" font-family="Helvetica,sans-Serif" font-size="10.00">algorithm</text>
</a>
</g>
</g>
<!-- Node1&#45;&gt;Node44 -->
<g id="edge61" class="edge">
<title>Node1&#45;&gt;Node44</title>
<path fill="none" stroke="midnightblue" d="M491.23,-715.45C517.48,-706.47 560.12,-691.89 589.69,-681.78"/>
<polygon fill="midnightblue" stroke="midnightblue" points="590.85,-685.09 599.18,-678.54 588.58,-678.46 590.85,-685.09"/>
</g>
<!-- Node3 -->
<g id="node3" class="node">
<title>Node3</title>
<g id="a_node3"><a xlink:href="../../d4/de9/_main_class_8h.html" target="_top" xlink:title=" ">
<polygon fill="none" stroke="black" points="193.73,-605.5 193.73,-623.5 293.64,-623.5 293.64,-605.5 193.73,-605.5"/>
<text text-anchor="middle" x="243.68" y="-611.5" font-family="Helvetica,sans-Serif" font-size="10.00">tralics/MainClass.h</text>
</a>
</g>
</g>
<!-- Node2&#45;&gt;Node3 -->
<g id="edge2" class="edge">
<title>Node2&#45;&gt;Node3</title>
<path fill="none" stroke="midnightblue" d="M186.01,-660.45C196.4,-652.36 212.63,-639.7 225.23,-629.88"/>
<polygon fill="midnightblue" stroke="midnightblue" points="227.52,-632.53 233.26,-623.63 223.22,-627.01 227.52,-632.53"/>
</g>
<!-- Node29 -->
<g id="node29" class="node">
<title>Node29</title>
<g id="a_node29"><a xlink:href="../../d2/d06/txlogger_8h.html" target="_top" xlink:title=" ">
<polygon fill="none" stroke="black" points="0,-605.5 0,-623.5 59.37,-623.5 59.37,-605.5 0,-605.5"/>
<text text-anchor="middle" x="29.68" y="-611.5" font-family="Helvetica,sans-Serif" font-size="10.00">txlogger.h</text>
</a>
</g>
</g>
<!-- Node2&#45;&gt;Node29 -->
<g id="edge34" class="edge">
<title>Node2&#45;&gt;Node29</title>
<path fill="none" stroke="midnightblue" d="M153.51,-660.45C129.07,-651.58 89.54,-637.23 61.73,-627.13"/>
<polygon fill="midnightblue" stroke="midnightblue" points="62.66,-623.75 52.07,-623.63 60.27,-630.33 62.66,-623.75"/>
</g>
<!-- Node31 -->
<g id="node31" class="node">
<title>Node31</title>
<g id="a_node31"><a xlink:href="../../d5/d08/txparam_8h.html" target="_top" xlink:title=" ">
<polygon fill="none" stroke="black" points="77.45,-605.5 77.45,-623.5 137.92,-623.5 137.92,-605.5 77.45,-605.5"/>
<text text-anchor="middle" x="107.68" y="-611.5" font-family="Helvetica,sans-Serif" font-size="10.00">txparam.h</text>
</a>
</g>
</g>
<!-- Node2&#45;&gt;Node31 -->
<g id="edge37" class="edge">
<title>Node2&#45;&gt;Node31</title>
<path fill="none" stroke="midnightblue" d="M165.36,-660.45C154.97,-652.36 138.74,-639.7 126.14,-629.88"/>
<polygon fill="midnightblue" stroke="midnightblue" points="128.15,-627.01 118.11,-623.63 123.85,-632.53 128.15,-627.01"/>
</g>
<!-- Node4 -->
<g id="node4" class="node">
<title>Node4</title>
<g id="a_node4"><a xlink:href="../../de/d29/txio_8h.html" target="_top" xlink:title=" ">
<polygon fill="none" stroke="black" points="141.57,-550.5 141.57,-568.5 189.8,-568.5 189.8,-550.5 141.57,-550.5"/>
<text text-anchor="middle" x="165.68" y="-556.5" font-family="Helvetica,sans-Serif" font-size="10.00">../txio.h</text>
</a>
</g>
</g>
<!-- Node3&#45;&gt;Node4 -->
<g id="edge3" class="edge">
<title>Node3&#45;&gt;Node4</title>
<path fill="none" stroke="midnightblue" d="M231.84,-605.45C219.7,-597.2 200.59,-584.22 186.02,-574.32"/>
<polygon fill="midnightblue" stroke="midnightblue" points="187.88,-571.35 177.64,-568.63 183.95,-577.14 187.88,-571.35"/>
</g>
<!-- Node28 -->
<g id="node28" class="node">
<title>Node28</title>
<g id="a_node28"><a xlink:href="../../dc/def/txstring_8h.html" target="_top" xlink:title=" ">
<polygon fill="none" stroke="black" points="376.23,-495.5 376.23,-513.5 441.14,-513.5 441.14,-495.5 376.23,-495.5"/>
<text text-anchor="middle" x="408.68" y="-501.5" font-family="Helvetica,sans-Serif" font-size="10.00">../txstring.h</text>
</a>
</g>
</g>
<!-- Node3&#45;&gt;Node28 -->
<g id="edge32" class="edge">
<title>Node3&#45;&gt;Node28</title>
<path fill="none" stroke="midnightblue" d="M249.09,-605.42C258.29,-592.22 278.18,-565.9 300.68,-550 321.65,-535.18 348.3,-524.14 369.88,-516.76"/>
<polygon fill="midnightblue" stroke="midnightblue" points="370.99,-520.08 379.39,-513.62 368.8,-513.43 370.99,-520.08"/>
</g>
<!-- Node5 -->
<g id="node5" class="node">
<title>Node5</title>
<g id="a_node5"><a xlink:href="../../dd/d74/txbuffer_8h.html" target="_top" xlink:title=" ">
<polygon fill="none" stroke="black" points="404.2,-440.5 404.2,-458.5 461.17,-458.5 461.17,-440.5 404.2,-440.5"/>
<text text-anchor="middle" x="432.68" y="-446.5" font-family="Helvetica,sans-Serif" font-size="10.00">txbuffer.h</text>
</a>
</g>
</g>
<!-- Node4&#45;&gt;Node5 -->
<g id="edge4" class="edge">
<title>Node4&#45;&gt;Node5</title>
<path fill="none" stroke="midnightblue" d="M185.75,-550.38C232.45,-531.49 348.56,-484.53 403.28,-462.4"/>
<polygon fill="midnightblue" stroke="midnightblue" points="404.79,-465.56 412.75,-458.56 402.16,-459.07 404.79,-465.56"/>
</g>
<!-- Node27 -->
<g id="node27" class="node">
<title>Node27</title>
<g id="a_node27"><a xlink:title=" ">
<polygon fill="none" stroke="#bfbfbf" points="73.01,-495.5 73.01,-513.5 122.35,-513.5 122.35,-495.5 73.01,-495.5"/>
<text text-anchor="middle" x="97.68" y="-501.5" font-family="Helvetica,sans-Serif" font-size="10.00">fstream</text>
</a>
</g>
</g>
<!-- Node4&#45;&gt;Node27 -->
<g id="edge31" class="edge">
<title>Node4&#45;&gt;Node27</title>
<path fill="none" stroke="midnightblue" d="M155.36,-550.45C144.97,-542.36 128.74,-529.7 116.14,-519.88"/>
<polygon fill="midnightblue" stroke="midnightblue" points="118.15,-517.01 108.11,-513.63 113.85,-522.53 118.15,-517.01"/>
</g>
<!-- Node6 -->
<g id="node6" class="node">
<title>Node6</title>
<g id="a_node6"><a xlink:href="../../d1/d9e/txid_8h.html" target="_top" xlink:title=" ">
<polygon fill="none" stroke="black" points="443.73,-330.5 443.73,-348.5 483.64,-348.5 483.64,-330.5 443.73,-330.5"/>
<text text-anchor="middle" x="463.68" y="-336.5" font-family="Helvetica,sans-Serif" font-size="10.00">txid.h</text>
</a>
</g>
</g>
<!-- Node5&#45;&gt;Node6 -->
<g id="edge5" class="edge">
<title>Node5&#45;&gt;Node6</title>
<path fill="none" stroke="midnightblue" d="M435.01,-440.38C439.97,-423.1 451.68,-382.33 458.5,-358.56"/>
<polygon fill="midnightblue" stroke="midnightblue" points="461.93,-359.29 461.33,-348.71 455.2,-357.36 461.93,-359.29"/>
</g>
<!-- Node16 -->
<g id="node16" class="node">
<title>Node16</title>
<g id="a_node16"><a xlink:href="../../d9/d18/txscaled_8h.html" target="_top" xlink:title=" ">
<polygon fill="none" stroke="black" points="355.17,-385.5 355.17,-403.5 416.2,-403.5 416.2,-385.5 355.17,-385.5"/>
<text text-anchor="middle" x="385.68" y="-391.5" font-family="Helvetica,sans-Serif" font-size="10.00">txscaled.h</text>
</a>
</g>
</g>
<!-- Node5&#45;&gt;Node16 -->
<g id="edge15" class="edge">
<title>Node5&#45;&gt;Node16</title>
<path fill="none" stroke="midnightblue" d="M425.34,-440.22C418.47,-432.47 408.03,-420.7 399.59,-411.18"/>
<polygon fill="midnightblue" stroke="midnightblue" points="402.08,-408.71 392.82,-403.55 396.84,-413.35 402.08,-408.71"/>
</g>
<!-- Node25 -->
<g id="node25" class="node">
<title>Node25</title>
<g id="a_node25"><a xlink:title=" ">
<polygon fill="none" stroke="#bfbfbf" points="472.96,-385.5 472.96,-403.5 518.41,-403.5 518.41,-385.5 472.96,-385.5"/>
<text text-anchor="middle" x="495.68" y="-391.5" font-family="Helvetica,sans-Serif" font-size="10.00">cstring</text>
</a>
</g>
</g>
<!-- Node5&#45;&gt;Node25 -->
<g id="edge29" class="edge">
<title>Node5&#45;&gt;Node25</title>
<path fill="none" stroke="midnightblue" d="M442.25,-440.45C451.78,-432.43 466.62,-419.95 478.25,-410.17"/>
<polygon fill="midnightblue" stroke="midnightblue" points="480.63,-412.74 486.03,-403.63 476.12,-407.38 480.63,-412.74"/>
</g>
<!-- Node26 -->
<g id="node26" class="node">
<title>Node26</title>
<g id="a_node26"><a xlink:title=" ">
<polygon fill="none" stroke="#bfbfbf" points="554.07,-385.5 554.07,-403.5 597.3,-403.5 597.3,-385.5 554.07,-385.5"/>
<text text-anchor="middle" x="575.68" y="-391.5" font-family="Helvetica,sans-Serif" font-size="10.00">vector</text>
</a>
</g>
</g>
<!-- Node5&#45;&gt;Node26 -->
<g id="edge30" class="edge">
<title>Node5&#45;&gt;Node26</title>
<path fill="none" stroke="midnightblue" d="M454.4,-440.45C478.34,-431.58 517.06,-417.23 544.29,-407.13"/>
<polygon fill="midnightblue" stroke="midnightblue" points="545.6,-410.38 553.76,-403.63 543.17,-403.82 545.6,-410.38"/>
</g>
<!-- Node7 -->
<g id="node7" class="node">
<title>Node7</title>
<g id="a_node7"><a xlink:href="../../dc/de8/txvars_8h.html" target="_top" xlink:title=" ">
<polygon fill="none" stroke="black" points="438.18,-275.5 438.18,-293.5 489.19,-293.5 489.19,-275.5 438.18,-275.5"/>
<text text-anchor="middle" x="463.68" y="-281.5" font-family="Helvetica,sans-Serif" font-size="10.00">txvars.h</text>
</a>
</g>
</g>
<!-- Node6&#45;&gt;Node7 -->
<g id="edge6" class="edge">
<title>Node6&#45;&gt;Node7</title>
<path fill="none" stroke="midnightblue" d="M463.68,-330.22C463.68,-323.18 463.68,-312.81 463.68,-303.83"/>
<polygon fill="midnightblue" stroke="midnightblue" points="467.18,-303.55 463.68,-293.55 460.18,-303.55 467.18,-303.55"/>
</g>
<!-- Node15 -->
<g id="node15" class="node">
<title>Node15</title>
<g id="a_node15"><a xlink:title=" ">
<polygon fill="none" stroke="#bfbfbf" points="553.46,-220.5 553.46,-238.5 593.91,-238.5 593.91,-220.5 553.46,-220.5"/>
<text text-anchor="middle" x="573.68" y="-226.5" font-family="Helvetica,sans-Serif" font-size="10.00">string</text>
</a>
</g>
</g>
<!-- Node6&#45;&gt;Node15 -->
<g id="edge14" class="edge">
<title>Node6&#45;&gt;Node15</title>
<path fill="none" stroke="midnightblue" d="M483.65,-333.8C504.32,-327.93 536.14,-315.86 554.68,-294 565.38,-281.38 570.06,-262.91 572.1,-249.14"/>
<polygon fill="midnightblue" stroke="midnightblue" points="575.61,-249.24 573.27,-238.91 568.66,-248.45 575.61,-249.24"/>
</g>
<!-- Node8 -->
<g id="node8" class="node">
<title>Node8</title>
<g id="a_node8"><a xlink:href="../../d0/d0b/enums_8h.html" target="_top" xlink:title=" ">
<polygon fill="none" stroke="black" points="346.06,-165.5 346.06,-183.5 429.31,-183.5 429.31,-165.5 346.06,-165.5"/>
<text text-anchor="middle" x="387.68" y="-171.5" font-family="Helvetica,sans-Serif" font-size="10.00">tralics/enums.h</text>
</a>
</g>
</g>
<!-- Node7&#45;&gt;Node8 -->
<g id="edge7" class="edge">
<title>Node7&#45;&gt;Node8</title>
<path fill="none" stroke="midnightblue" d="M457.97,-275.38C445.54,-257.71 415.81,-215.47 399.28,-191.98"/>
<polygon fill="midnightblue" stroke="midnightblue" points="402.08,-189.88 393.46,-183.71 396.36,-193.9 402.08,-189.88"/>
</g>
<!-- Node14 -->
<g id="node14" class="node">
<title>Node14</title>
<g id="a_node14"><a xlink:title=" ">
<polygon fill="none" stroke="#bfbfbf" points="445.29,-220.5 445.29,-238.5 484.08,-238.5 484.08,-220.5 445.29,-220.5"/>
<text text-anchor="middle" x="464.68" y="-226.5" font-family="Helvetica,sans-Serif" font-size="10.00">array</text>
</a>
</g>
</g>
<!-- Node7&#45;&gt;Node14 -->
<g id="edge13" class="edge">
<title>Node7&#45;&gt;Node14</title>
<path fill="none" stroke="midnightblue" d="M463.84,-275.22C463.97,-268.18 464.17,-257.81 464.34,-248.83"/>
<polygon fill="midnightblue" stroke="midnightblue" points="467.84,-248.61 464.53,-238.55 460.84,-248.48 467.84,-248.61"/>
</g>
<!-- Node9 -->
<g id="node9" class="node">
<title>Node9</title>
<g id="a_node9"><a xlink:href="../../d8/db5/consts_8h.html" target="_top" xlink:title=" ">
<polygon fill="none" stroke="black" points="361.06,-110.5 361.06,-128.5 414.31,-128.5 414.31,-110.5 361.06,-110.5"/>
<text text-anchor="middle" x="387.68" y="-116.5" font-family="Helvetica,sans-Serif" font-size="10.00">consts.h</text>
</a>
</g>
</g>
<!-- Node8&#45;&gt;Node9 -->
<g id="edge8" class="edge">
<title>Node8&#45;&gt;Node9</title>
<path fill="none" stroke="midnightblue" d="M387.68,-165.22C387.68,-158.18 387.68,-147.81 387.68,-138.83"/>
<polygon fill="midnightblue" stroke="midnightblue" points="391.18,-138.55 387.68,-128.55 384.18,-138.55 391.18,-138.55"/>
</g>
<!-- Node10 -->
<g id="node10" class="node">
<title>Node10</title>
<g id="a_node10"><a xlink:href="../../d9/d49/types_8h.html" target="_top" xlink:title=" ">
<polygon fill="none" stroke="black" points="335.56,-55.5 335.56,-73.5 383.81,-73.5 383.81,-55.5 335.56,-55.5"/>
<text text-anchor="middle" x="359.68" y="-61.5" font-family="Helvetica,sans-Serif" font-size="10.00">types.h</text>
</a>
</g>
</g>
<!-- Node9&#45;&gt;Node10 -->
<g id="edge9" class="edge">
<title>Node9&#45;&gt;Node10</title>
<path fill="none" stroke="midnightblue" d="M383.31,-110.22C379.42,-102.86 373.62,-91.88 368.74,-82.64"/>
<polygon fill="midnightblue" stroke="midnightblue" points="371.7,-80.76 363.94,-73.55 365.51,-84.03 371.7,-80.76"/>
</g>
<!-- Node11 -->
<g id="node11" class="node">
<title>Node11</title>
<g id="a_node11"><a xlink:title=" ">
<polygon fill="none" stroke="#bfbfbf" points="267.57,-0.5 267.57,-18.5 315.8,-18.5 315.8,-0.5 267.57,-0.5"/>
<text text-anchor="middle" x="291.68" y="-6.5" font-family="Helvetica,sans-Serif" font-size="10.00">cassert</text>
</a>
</g>
</g>
<!-- Node10&#45;&gt;Node11 -->
<g id="edge10" class="edge">
<title>Node10&#45;&gt;Node11</title>
<path fill="none" stroke="midnightblue" d="M349.36,-55.45C338.97,-47.36 322.74,-34.7 310.14,-24.88"/>
<polygon fill="midnightblue" stroke="midnightblue" points="312.15,-22.01 302.11,-18.63 307.85,-27.53 312.15,-22.01"/>
</g>
<!-- Node12 -->
<g id="node12" class="node">
<title>Node12</title>
<g id="a_node12"><a xlink:title=" ">
<polygon fill="none" stroke="#bfbfbf" points="333.89,-0.5 333.89,-18.5 385.48,-18.5 385.48,-0.5 333.89,-0.5"/>
<text text-anchor="middle" x="359.68" y="-6.5" font-family="Helvetica,sans-Serif" font-size="10.00">stddef.h</text>
</a>
</g>
</g>
<!-- Node10&#45;&gt;Node12 -->
<g id="edge11" class="edge">
<title>Node10&#45;&gt;Node12</title>
<path fill="none" stroke="midnightblue" d="M359.68,-55.22C359.68,-48.18 359.68,-37.81 359.68,-28.83"/>
<polygon fill="midnightblue" stroke="midnightblue" points="363.18,-28.55 359.68,-18.55 356.18,-28.55 363.18,-28.55"/>
</g>
<!-- Node13 -->
<g id="node13" class="node">
<title>Node13</title>
<g id="a_node13"><a xlink:title=" ">
<polygon fill="none" stroke="#bfbfbf" points="403.62,-0.5 403.62,-18.5 465.75,-18.5 465.75,-0.5 403.62,-0.5"/>
<text text-anchor="middle" x="434.68" y="-6.5" font-family="Helvetica,sans-Serif" font-size="10.00">type_traits</text>
</a>
</g>
</g>
<!-- Node10&#45;&gt;Node13 -->
<g id="edge12" class="edge">
<title>Node10&#45;&gt;Node13</title>
<path fill="none" stroke="midnightblue" d="M371.08,-55.45C382.64,-47.28 400.78,-34.46 414.73,-24.6"/>
<polygon fill="midnightblue" stroke="midnightblue" points="417.04,-27.25 423.19,-18.63 413,-21.54 417.04,-27.25"/>
</g>
<!-- Node17 -->
<g id="node17" class="node">
<title>Node17</title>
<g id="a_node17"><a xlink:href="../../dc/d91/txtokenlist_8h.html" target="_top" xlink:title=" ">
<polygon fill="none" stroke="black" points="351.28,-330.5 351.28,-348.5 420.09,-348.5 420.09,-330.5 351.28,-330.5"/>
<text text-anchor="middle" x="385.68" y="-336.5" font-family="Helvetica,sans-Serif" font-size="10.00">txtokenlist.h</text>
</a>
</g>
</g>
<!-- Node16&#45;&gt;Node17 -->
<g id="edge16" class="edge">
<title>Node16&#45;&gt;Node17</title>
<path fill="none" stroke="midnightblue" d="M385.68,-385.22C385.68,-378.18 385.68,-367.81 385.68,-358.83"/>
<polygon fill="midnightblue" stroke="midnightblue" points="389.18,-358.55 385.68,-348.55 382.18,-358.55 389.18,-358.55"/>
</g>
<!-- Node17&#45;&gt;Node7 -->
<g id="edge27" class="edge">
<title>Node17&#45;&gt;Node7</title>
<path fill="none" stroke="midnightblue" d="M397.53,-330.45C409.67,-322.2 428.78,-309.22 443.35,-299.32"/>
<polygon fill="midnightblue" stroke="midnightblue" points="445.42,-302.14 451.73,-293.63 441.49,-296.35 445.42,-302.14"/>
</g>
<!-- Node18 -->
<g id="node18" class="node">
<title>Node18</title>
<g id="a_node18"><a xlink:href="../../d5/daf/_istring_8h.html" target="_top" xlink:title=" ">
<polygon fill="none" stroke="black" points="339.45,-275.5 339.45,-293.5 419.92,-293.5 419.92,-275.5 339.45,-275.5"/>
<text text-anchor="middle" x="379.68" y="-281.5" font-family="Helvetica,sans-Serif" font-size="10.00">tralics/Istring.h</text>
</a>
</g>
</g>
<!-- Node17&#45;&gt;Node18 -->
<g id="edge17" class="edge">
<title>Node17&#45;&gt;Node18</title>
<path fill="none" stroke="midnightblue" d="M384.75,-330.22C383.94,-323.1 382.75,-312.58 381.73,-303.53"/>
<polygon fill="midnightblue" stroke="midnightblue" points="385.2,-303.09 380.6,-293.55 378.24,-303.88 385.2,-303.09"/>
</g>
<!-- Node19 -->
<g id="node19" class="node">
<title>Node19</title>
<g id="a_node19"><a xlink:href="../../dd/dcd/_token_8h.html" target="_top" xlink:title=" ">
<polygon fill="none" stroke="black" points="241.73,-275.5 241.73,-293.5 321.64,-293.5 321.64,-275.5 241.73,-275.5"/>
<text text-anchor="middle" x="281.68" y="-281.5" font-family="Helvetica,sans-Serif" font-size="10.00">tralics/Token.h</text>
</a>
</g>
</g>
<!-- Node17&#45;&gt;Node19 -->
<g id="edge20" class="edge">
<title>Node17&#45;&gt;Node19</title>
<path fill="none" stroke="midnightblue" d="M369.89,-330.45C353.09,-321.89 326.29,-308.23 306.63,-298.21"/>
<polygon fill="midnightblue" stroke="midnightblue" points="308.13,-295.05 297.63,-293.63 304.95,-301.28 308.13,-295.05"/>
</g>
<!-- Node24 -->
<g id="node24" class="node">
<title>Node24</title>
<g id="a_node24"><a xlink:title=" ">
<polygon fill="none" stroke="#bfbfbf" points="507.29,-275.5 507.29,-293.5 546.08,-293.5 546.08,-275.5 507.29,-275.5"/>
<text text-anchor="middle" x="526.68" y="-281.5" font-family="Helvetica,sans-Serif" font-size="10.00">utility</text>
</a>
</g>
</g>
<!-- Node17&#45;&gt;Node24 -->
<g id="edge28" class="edge">
<title>Node17&#45;&gt;Node24</title>
<path fill="none" stroke="midnightblue" d="M407.1,-330.45C431.15,-321.41 470.32,-306.69 497.23,-296.57"/>
<polygon fill="midnightblue" stroke="midnightblue" points="498.76,-299.73 506.89,-292.94 496.3,-293.18 498.76,-299.73"/>
</g>
<!-- Node18&#45;&gt;Node8 -->
<g id="edge18" class="edge">
<title>Node18&#45;&gt;Node8</title>
<path fill="none" stroke="midnightblue" d="M380.29,-275.38C381.56,-258.18 384.56,-217.7 386.32,-193.89"/>
<polygon fill="midnightblue" stroke="midnightblue" points="389.83,-193.94 387.08,-183.71 382.85,-193.43 389.83,-193.94"/>
</g>
<!-- Node18&#45;&gt;Node15 -->
<g id="edge19" class="edge">
<title>Node18&#45;&gt;Node15</title>
<path fill="none" stroke="midnightblue" d="M409.15,-275.45C445.33,-265.57 506.39,-248.89 543.08,-238.86"/>
<polygon fill="midnightblue" stroke="midnightblue" points="544.46,-242.11 553.19,-236.1 542.62,-235.36 544.46,-242.11"/>
</g>
<!-- Node20 -->
<g id="node20" class="node">
<title>Node20</title>
<g id="a_node20"><a xlink:href="../../d2/d68/_cmd_chr_8h.html" target="_top" xlink:title=" ">
<polygon fill="none" stroke="black" points="273.17,-220.5 273.17,-238.5 334.19,-238.5 334.19,-220.5 273.17,-220.5"/>
<text text-anchor="middle" x="303.68" y="-226.5" font-family="Helvetica,sans-Serif" font-size="10.00">CmdChr.h</text>
</a>
</g>
</g>
<!-- Node19&#45;&gt;Node20 -->
<g id="edge21" class="edge">
<title>Node19&#45;&gt;Node20</title>
<path fill="none" stroke="midnightblue" d="M285.12,-275.22C288.14,-267.94 292.64,-257.11 296.45,-247.93"/>
<polygon fill="midnightblue" stroke="midnightblue" points="299.74,-249.13 300.34,-238.55 293.28,-246.44 299.74,-249.13"/>
</g>
<!-- Node23 -->
<g id="node23" class="node">
<title>Node23</title>
<g id="a_node23"><a xlink:title=" ">
<polygon fill="none" stroke="#bfbfbf" points="226.18,-220.5 226.18,-238.5 255.18,-238.5 255.18,-220.5 226.18,-220.5"/>
<text text-anchor="middle" x="240.3" y="-226.5" font-family="Helvetica,sans-Serif" font-size="10.00">list</text>
</a>
</g>
</g>
<!-- Node19&#45;&gt;Node23 -->
<g id="edge26" class="edge">
<title>Node19&#45;&gt;Node23</title>
<path fill="none" stroke="midnightblue" d="M275.28,-275.22C269.35,-267.55 260.36,-255.94 253.04,-246.47"/>
<polygon fill="midnightblue" stroke="midnightblue" points="255.8,-244.32 246.91,-238.55 250.26,-248.6 255.8,-244.32"/>
</g>
<!-- Node20&#45;&gt;Node8 -->
<g id="edge25" class="edge">
<title>Node20&#45;&gt;Node8</title>
<path fill="none" stroke="midnightblue" d="M316.44,-220.45C329.64,-212.12 350.49,-198.97 366.23,-189.04"/>
<polygon fill="midnightblue" stroke="midnightblue" points="368.22,-191.92 374.81,-183.63 364.48,-186 368.22,-191.92"/>
</g>
<!-- Node21 -->
<g id="node21" class="node">
<title>Node21</title>
<g id="a_node21"><a xlink:href="../../d8/d47/codepoint_8h.html" target="_top" xlink:title=" ">
<polygon fill="none" stroke="black" points="260.83,-165.5 260.83,-183.5 328.54,-183.5 328.54,-165.5 260.83,-165.5"/>
<text text-anchor="middle" x="294.68" y="-171.5" font-family="Helvetica,sans-Serif" font-size="10.00">codepoint.h</text>
</a>
</g>
</g>
<!-- Node20&#45;&gt;Node21 -->
<g id="edge22" class="edge">
<title>Node20&#45;&gt;Node21</title>
<path fill="none" stroke="midnightblue" d="M302.28,-220.22C301.07,-213.1 299.28,-202.58 297.75,-193.53"/>
<polygon fill="midnightblue" stroke="midnightblue" points="301.18,-192.82 296.05,-183.55 294.28,-193.99 301.18,-192.82"/>
</g>
<!-- Node21&#45;&gt;Node10 -->
<g id="edge23" class="edge">
<title>Node21&#45;&gt;Node10</title>
<path fill="none" stroke="midnightblue" d="M299.57,-165.38C310.16,-147.79 335.4,-105.85 349.58,-82.29"/>
<polygon fill="midnightblue" stroke="midnightblue" points="352.58,-84.08 354.74,-73.71 346.59,-80.47 352.58,-84.08"/>
</g>
<!-- Node22 -->
<g id="node22" class="node">
<title>Node22</title>
<g id="a_node22"><a xlink:title=" ">
<polygon fill="none" stroke="#bfbfbf" points="253.17,-110.5 253.17,-128.5 304.2,-128.5 304.2,-110.5 253.17,-110.5"/>
<text text-anchor="middle" x="278.68" y="-116.5" font-family="Helvetica,sans-Serif" font-size="10.00">optional</text>
</a>
</g>
</g>
<!-- Node21&#45;&gt;Node22 -->
<g id="edge24" class="edge">
<title>Node21&#45;&gt;Node22</title>
<path fill="none" stroke="midnightblue" d="M292.18,-165.22C290.01,-158.02 286.79,-147.35 284.04,-138.23"/>
<polygon fill="midnightblue" stroke="midnightblue" points="287.36,-137.11 281.11,-128.55 280.65,-139.13 287.36,-137.11"/>
</g>
<!-- Node28&#45;&gt;Node5 -->
<g id="edge33" class="edge">
<title>Node28&#45;&gt;Node5</title>
<path fill="none" stroke="midnightblue" d="M412.43,-495.22C415.73,-487.94 420.63,-477.11 424.79,-467.93"/>
<polygon fill="midnightblue" stroke="midnightblue" points="428.1,-469.1 429.04,-458.55 421.73,-466.22 428.1,-469.1"/>
</g>
<!-- Node29&#45;&gt;Node27 -->
<g id="edge35" class="edge">
<title>Node29&#45;&gt;Node27</title>
<path fill="none" stroke="midnightblue" d="M30.73,-605.09C32.63,-592.34 37.52,-567.72 48.68,-550 56.07,-538.27 67.38,-527.71 77.27,-519.83"/>
<polygon fill="midnightblue" stroke="midnightblue" points="79.61,-522.45 85.47,-513.62 75.38,-516.87 79.61,-522.45"/>
</g>
<!-- Node30 -->
<g id="node30" class="node">
<title>Node30</title>
<g id="a_node30"><a xlink:title=" ">
<polygon fill="none" stroke="#bfbfbf" points="57.51,-550.5 57.51,-568.5 111.86,-568.5 111.86,-550.5 57.51,-550.5"/>
<text text-anchor="middle" x="84.68" y="-556.5" font-family="Helvetica,sans-Serif" font-size="10.00">iostream</text>
</a>
</g>
</g>
<!-- Node29&#45;&gt;Node30 -->
<g id="edge36" class="edge">
<title>Node29&#45;&gt;Node30</title>
<path fill="none" stroke="midnightblue" d="M38.28,-605.22C46.48,-597.32 59.03,-585.22 69.01,-575.61"/>
<polygon fill="midnightblue" stroke="midnightblue" points="71.56,-578.01 76.33,-568.55 66.7,-572.97 71.56,-578.01"/>
</g>
<!-- Node31&#45;&gt;Node4 -->
<g id="edge38" class="edge">
<title>Node31&#45;&gt;Node4</title>
<path fill="none" stroke="midnightblue" d="M116.75,-605.22C125.48,-597.24 138.89,-584.98 149.47,-575.32"/>
<polygon fill="midnightblue" stroke="midnightblue" points="151.85,-577.88 156.88,-568.55 147.13,-572.71 151.85,-577.88"/>
</g>
<!-- Node32&#45;&gt;Node19 -->
<g id="edge40" class="edge">
<title>Node32&#45;&gt;Node19</title>
<path fill="none" stroke="midnightblue" d="M329.94,-605.44C321.36,-597.09 308.46,-583.27 300.68,-569 286.59,-543.13 281.68,-534.96 281.68,-505.5 281.68,-505.5 281.68,-505.5 281.68,-393.5 281.68,-362.02 281.68,-325.37 281.68,-303.88"/>
<polygon fill="midnightblue" stroke="midnightblue" points="285.18,-303.63 281.68,-293.63 278.18,-303.63 285.18,-303.63"/>
</g>
<!-- Node33 -->
<g id="node33" class="node">
<title>Node33</title>
<g id="a_node33"><a xlink:href="../../d1/d43/txxml_8h.html" target="_top" xlink:title=" ">
<polygon fill="none" stroke="black" points="309.85,-550.5 309.85,-568.5 357.52,-568.5 357.52,-550.5 309.85,-550.5"/>
<text text-anchor="middle" x="333.68" y="-556.5" font-family="Helvetica,sans-Serif" font-size="10.00">txxml.h</text>
</a>
</g>
</g>
<!-- Node32&#45;&gt;Node33 -->
<g id="edge41" class="edge">
<title>Node32&#45;&gt;Node33</title>
<path fill="none" stroke="midnightblue" d="M337.9,-605.22C337.23,-598.1 336.24,-587.58 335.39,-578.53"/>
<polygon fill="midnightblue" stroke="midnightblue" points="338.87,-578.18 334.44,-568.55 331.9,-578.83 338.87,-578.18"/>
</g>
<!-- Node33&#45;&gt;Node28 -->
<g id="edge42" class="edge">
<title>Node33&#45;&gt;Node28</title>
<path fill="none" stroke="midnightblue" d="M345.08,-550.45C356.64,-542.28 374.78,-529.46 388.73,-519.6"/>
<polygon fill="midnightblue" stroke="midnightblue" points="391.04,-522.25 397.19,-513.63 387,-516.54 391.04,-522.25"/>
</g>
<!-- Node35&#45;&gt;Node4 -->
<g id="edge55" class="edge">
<title>Node35&#45;&gt;Node4</title>
<path fill="none" stroke="midnightblue" d="M437.39,-667.71C372.29,-665.39 221.95,-656.56 184.68,-624 171.83,-612.77 167.49,-593.23 166.12,-578.79"/>
<polygon fill="midnightblue" stroke="midnightblue" points="169.6,-578.34 165.55,-568.55 162.61,-578.73 169.6,-578.34"/>
</g>
<!-- Node36 -->
<g id="node36" class="node">
<title>Node36</title>
<g id="a_node36"><a xlink:href="../../d3/d6b/txcond_8h.html" target="_top" xlink:title=" ">
<polygon fill="none" stroke="black" points="554.78,-440.5 554.78,-458.5 608.59,-458.5 608.59,-440.5 554.78,-440.5"/>
<text text-anchor="middle" x="581.68" y="-446.5" font-family="Helvetica,sans-Serif" font-size="10.00">txcond.h</text>
</a>
</g>
</g>
<!-- Node35&#45;&gt;Node36 -->
<g id="edge45" class="edge">
<title>Node35&#45;&gt;Node36</title>
<path fill="none" stroke="midnightblue" d="M491.64,-660.46C517.07,-651.42 554.79,-636.39 563.68,-624 597.64,-576.7 590.75,-502.59 585.21,-468.61"/>
<polygon fill="midnightblue" stroke="midnightblue" points="588.65,-467.96 583.44,-458.73 581.75,-469.19 588.65,-467.96"/>
</g>
<!-- Node37 -->
<g id="node37" class="node">
<title>Node37</title>
<g id="a_node37"><a xlink:href="../../d7/d4d/txfonts_8h.html" target="_top" xlink:title=" ">
<polygon fill="none" stroke="black" points="436.79,-550.5 436.79,-568.5 490.58,-568.5 490.58,-550.5 436.79,-550.5"/>
<text text-anchor="middle" x="463.68" y="-556.5" font-family="Helvetica,sans-Serif" font-size="10.00">txfonts.h</text>
</a>
</g>
</g>
<!-- Node35&#45;&gt;Node37 -->
<g id="edge47" class="edge">
<title>Node35&#45;&gt;Node37</title>
<path fill="none" stroke="midnightblue" d="M467.38,-660.38C466.75,-643.18 465.25,-602.7 464.37,-578.89"/>
<polygon fill="midnightblue" stroke="midnightblue" points="467.86,-578.58 463.99,-568.71 460.86,-578.83 467.86,-578.58"/>
</g>
<!-- Node38 -->
<g id="node38" class="node">
<title>Node38</title>
<g id="a_node38"><a xlink:href="../../d7/d7e/txhash_8h.html" target="_top" xlink:title=" ">
<polygon fill="none" stroke="black" points="500.78,-605.5 500.78,-623.5 554.59,-623.5 554.59,-605.5 500.78,-605.5"/>
<text text-anchor="middle" x="527.68" y="-611.5" font-family="Helvetica,sans-Serif" font-size="10.00">txhash.h</text>
</a>
</g>
</g>
<!-- Node35&#45;&gt;Node38 -->
<g id="edge49" class="edge">
<title>Node35&#45;&gt;Node38</title>
<path fill="none" stroke="midnightblue" d="M476.8,-660.45C485.78,-652.51 499.73,-640.19 510.76,-630.45"/>
<polygon fill="midnightblue" stroke="midnightblue" points="513.31,-632.87 518.49,-623.63 508.67,-627.62 513.31,-632.87"/>
</g>
<!-- Node40 -->
<g id="node40" class="node">
<title>Node40</title>
<g id="a_node40"><a xlink:href="../../de/d7c/tximage_8h.html" target="_top" xlink:title=" ">
<polygon fill="none" stroke="black" points="582.01,-330.5 582.01,-348.5 641.36,-348.5 641.36,-330.5 582.01,-330.5"/>
<text text-anchor="middle" x="611.68" y="-336.5" font-family="Helvetica,sans-Serif" font-size="10.00">tximage.h</text>
</a>
</g>
</g>
<!-- Node35&#45;&gt;Node40 -->
<g id="edge52" class="edge">
<title>Node35&#45;&gt;Node40</title>
<path fill="none" stroke="midnightblue" d="M497.91,-661.89C500.88,-661.25 503.84,-660.61 506.68,-660 582.19,-643.78 619.88,-676.32 676.68,-624 698.35,-604.04 695.68,-589.96 695.68,-560.5 695.68,-560.5 695.68,-560.5 695.68,-448.5 695.68,-407.67 657.81,-372.98 632.93,-354.59"/>
<polygon fill="midnightblue" stroke="midnightblue" points="634.62,-351.5 624.44,-348.57 630.57,-357.21 634.62,-351.5"/>
</g>
<!-- Node41 -->
<g id="node41" class="node">
<title>Node41</title>
<g id="a_node41"><a xlink:href="../../dc/d65/txstack_8h.html" target="_top" xlink:title=" ">
<polygon fill="none" stroke="black" points="383.96,-605.5 383.96,-623.5 439.41,-623.5 439.41,-605.5 383.96,-605.5"/>
<text text-anchor="middle" x="411.68" y="-611.5" font-family="Helvetica,sans-Serif" font-size="10.00">txstack.h</text>
</a>
</g>
</g>
<!-- Node35&#45;&gt;Node41 -->
<g id="edge56" class="edge">
<title>Node35&#45;&gt;Node41</title>
<path fill="none" stroke="midnightblue" d="M458.93,-660.22C450.58,-652.32 437.81,-640.22 427.65,-630.61"/>
<polygon fill="midnightblue" stroke="midnightblue" points="429.86,-627.88 420.19,-623.55 425.05,-632.97 429.86,-627.88"/>
</g>
<!-- Node43 -->
<g id="node43" class="node">
<title>Node43</title>
<g id="a_node43"><a xlink:href="../../d8/d3d/txstats_8h.html" target="_top" xlink:title=" ">
<polygon fill="none" stroke="black" points="614.07,-605.5 614.07,-623.5 667.3,-623.5 667.3,-605.5 614.07,-605.5"/>
<text text-anchor="middle" x="640.68" y="-611.5" font-family="Helvetica,sans-Serif" font-size="10.00">txstats.h</text>
</a>
</g>
</g>
<!-- Node35&#45;&gt;Node43 -->
<g id="edge60" class="edge">
<title>Node35&#45;&gt;Node43</title>
<path fill="none" stroke="midnightblue" d="M493.96,-660.45C523.51,-651.4 571.69,-636.64 604.72,-626.52"/>
<polygon fill="midnightblue" stroke="midnightblue" points="605.91,-629.81 614.45,-623.54 603.86,-623.12 605.91,-629.81"/>
</g>
<!-- Node36&#45;&gt;Node26 -->
<g id="edge46" class="edge">
<title>Node36&#45;&gt;Node26</title>
<path fill="none" stroke="midnightblue" d="M580.75,-440.22C579.94,-433.1 578.75,-422.58 577.73,-413.53"/>
<polygon fill="midnightblue" stroke="midnightblue" points="581.2,-413.09 576.6,-403.55 574.24,-413.88 581.2,-413.09"/>
</g>
<!-- Node37&#45;&gt;Node28 -->
<g id="edge48" class="edge">
<title>Node37&#45;&gt;Node28</title>
<path fill="none" stroke="midnightblue" d="M455.09,-550.22C446.89,-542.32 434.34,-530.22 424.36,-520.61"/>
<polygon fill="midnightblue" stroke="midnightblue" points="426.67,-517.97 417.04,-513.55 421.81,-523.01 426.67,-517.97"/>
</g>
<!-- Node39 -->
<g id="node39" class="node">
<title>Node39</title>
<g id="a_node39"><a xlink:href="../../d3/d01/txeqtb_8h.html" target="_top" xlink:title=" ">
<polygon fill="none" stroke="black" points="508.89,-550.5 508.89,-568.5 560.48,-568.5 560.48,-550.5 508.89,-550.5"/>
<text text-anchor="middle" x="534.68" y="-556.5" font-family="Helvetica,sans-Serif" font-size="10.00">txeqtb.h</text>
</a>
</g>
</g>
<!-- Node38&#45;&gt;Node39 -->
<g id="edge50" class="edge">
<title>Node38&#45;&gt;Node39</title>
<path fill="none" stroke="midnightblue" d="M528.78,-605.22C529.72,-598.1 531.11,-587.58 532.3,-578.53"/>
<polygon fill="midnightblue" stroke="midnightblue" points="535.78,-578.92 533.62,-568.55 528.84,-578.01 535.78,-578.92"/>
</g>
<!-- Node39&#45;&gt;Node28 -->
<g id="edge51" class="edge">
<title>Node39&#45;&gt;Node28</title>
<path fill="none" stroke="midnightblue" d="M515.55,-550.45C494.73,-541.7 461.24,-527.61 437.3,-517.53"/>
<polygon fill="midnightblue" stroke="midnightblue" points="438.58,-514.28 428,-513.63 435.86,-520.73 438.58,-514.28"/>
</g>
<!-- Node40&#45;&gt;Node15 -->
<g id="edge53" class="edge">
<title>Node40&#45;&gt;Node15</title>
<path fill="none" stroke="midnightblue" d="M608.83,-330.38C602.72,-313.03 588.27,-271.96 579.93,-248.24"/>
<polygon fill="midnightblue" stroke="midnightblue" points="583.19,-246.98 576.57,-238.71 576.59,-249.31 583.19,-246.98"/>
</g>
<!-- Node40&#45;&gt;Node24 -->
<g id="edge54" class="edge">
<title>Node40&#45;&gt;Node24</title>
<path fill="none" stroke="midnightblue" d="M598.77,-330.45C585.42,-322.12 564.33,-308.97 548.4,-299.04"/>
<polygon fill="midnightblue" stroke="midnightblue" points="550.05,-295.95 539.72,-293.63 546.35,-301.89 550.05,-295.95"/>
</g>
<!-- Node41&#45;&gt;Node33 -->
<g id="edge59" class="edge">
<title>Node41&#45;&gt;Node33</title>
<path fill="none" stroke="midnightblue" d="M399.84,-605.45C387.7,-597.2 368.59,-584.22 354.02,-574.32"/>
<polygon fill="midnightblue" stroke="midnightblue" points="355.88,-571.35 345.64,-568.63 351.95,-577.14 355.88,-571.35"/>
</g>
<!-- Node42 -->
<g id="node42" class="node">
<title>Node42</title>
<g id="a_node42"><a xlink:href="../../d4/da4/txatt_8h.html" target="_top" xlink:title=" ">
<polygon fill="none" stroke="black" points="375.07,-550.5 375.07,-568.5 418.3,-568.5 418.3,-550.5 375.07,-550.5"/>
<text text-anchor="middle" x="396.68" y="-556.5" font-family="Helvetica,sans-Serif" font-size="10.00">txatt.h</text>
</a>
</g>
</g>
<!-- Node41&#45;&gt;Node42 -->
<g id="edge57" class="edge">
<title>Node41&#45;&gt;Node42</title>
<path fill="none" stroke="midnightblue" d="M409.34,-605.22C407.3,-598.02 404.28,-587.35 401.7,-578.23"/>
<polygon fill="midnightblue" stroke="midnightblue" points="405.05,-577.22 398.96,-568.55 398.32,-579.12 405.05,-577.22"/>
</g>
<!-- Node42&#45;&gt;Node28 -->
<g id="edge58" class="edge">
<title>Node42&#45;&gt;Node28</title>
<path fill="none" stroke="midnightblue" d="M398.56,-550.22C400.17,-543.1 402.55,-532.58 404.6,-523.53"/>
<polygon fill="midnightblue" stroke="midnightblue" points="408.07,-524.08 406.86,-513.55 401.24,-522.53 408.07,-524.08"/>
</g>
</g>
</svg>
