<?xml version="1.0" encoding="UTF-8" standalone="no"?>
<!DOCTYPE svg PUBLIC "-//W3C//DTD SVG 1.1//EN"
 "http://www.w3.org/Graphics/SVG/1.1/DTD/svg11.dtd">
<!-- Generated by graphviz version 2.43.0 (0)
 -->
<!-- Title: txxml.h Pages: 1 -->
<svg width="2351pt" height="192pt"
 viewBox="0.00 0.00 2350.70 192.00" xmlns="http://www.w3.org/2000/svg" xmlns:xlink="http://www.w3.org/1999/xlink">
<g id="graph0" class="graph" transform="scale(1 1) rotate(0) translate(4 188)">
<title>txxml.h</title>
<polygon fill="white" stroke="transparent" points="-4,4 -4,-188 2346.7,-188 2346.7,4 -4,4"/>
<!-- Node1 -->
<g id="node1" class="node">
<title>Node1</title>
<g id="a_node1"><a xlink:title=" ">
<polygon fill="#bfbfbf" stroke="black" points="1082.08,-165.5 1082.08,-183.5 1129.75,-183.5 1129.75,-165.5 1082.08,-165.5"/>
<text text-anchor="middle" x="1105.91" y="-171.5" font-family="Helvetica,sans-Serif" font-size="10.00">txxml.h</text>
</a>
</g>
</g>
<!-- Node2 -->
<g id="node2" class="node">
<title>Node2</title>
<g id="a_node2"><a xlink:href="../../dc/d65/txstack_8h.html" target="_top" xlink:title=" ">
<polygon fill="white" stroke="black" points="1050.18,-110.5 1050.18,-128.5 1105.64,-128.5 1105.64,-110.5 1050.18,-110.5"/>
<text text-anchor="middle" x="1077.91" y="-116.5" font-family="Helvetica,sans-Serif" font-size="10.00">txstack.h</text>
</a>
</g>
</g>
<!-- Node1&#45;&gt;Node2 -->
<g id="edge1" class="edge">
<title>Node1&#45;&gt;Node2</title>
<path fill="none" stroke="midnightblue" d="M1096.86,-156.36C1091.92,-147.02 1086.05,-135.9 1082.16,-128.55"/>
<polygon fill="midnightblue" stroke="midnightblue" points="1093.77,-158.01 1101.54,-165.22 1099.96,-154.74 1093.77,-158.01"/>
</g>
<!-- Node37 -->
<g id="node37" class="node">
<title>Node37</title>
<g id="a_node37"><a xlink:href="../../df/d79/txmath_8h.html" target="_top" xlink:title=" ">
<polygon fill="white" stroke="black" points="2134.74,-55.5 2134.74,-73.5 2189.09,-73.5 2189.09,-55.5 2134.74,-55.5"/>
<text text-anchor="middle" x="2161.91" y="-61.5" font-family="Helvetica,sans-Serif" font-size="10.00">txmath.h</text>
</a>
</g>
</g>
<!-- Node1&#45;&gt;Node37 -->
<g id="edge37" class="edge">
<title>Node1&#45;&gt;Node37</title>
<path fill="none" stroke="midnightblue" d="M1140.28,-169.98C1302.39,-153.41 1988.72,-83.21 2134.59,-68.29"/>
<polygon fill="midnightblue" stroke="midnightblue" points="1139.54,-166.54 1129.95,-171.04 1140.26,-173.51 1139.54,-166.54"/>
</g>
<!-- Node3 -->
<g id="node3" class="node">
<title>Node3</title>
<g id="a_node3"><a xlink:href="../../d2/d1b/txparser_8h.html" target="_top" xlink:title=" ">
<polygon fill="white" stroke="black" points="1085.95,-55.5 1085.95,-73.5 1145.87,-73.5 1145.87,-55.5 1085.95,-55.5"/>
<text text-anchor="middle" x="1115.91" y="-61.5" font-family="Helvetica,sans-Serif" font-size="10.00">txparser.h</text>
</a>
</g>
</g>
<!-- Node2&#45;&gt;Node3 -->
<g id="edge2" class="edge">
<title>Node2&#45;&gt;Node3</title>
<path fill="none" stroke="midnightblue" d="M1089.78,-101.95C1096.56,-92.49 1104.76,-81.06 1110.14,-73.55"/>
<polygon fill="midnightblue" stroke="midnightblue" points="1086.83,-100.05 1083.85,-110.22 1092.52,-104.13 1086.83,-100.05"/>
</g>
<!-- Node35 -->
<g id="node35" class="node">
<title>Node35</title>
<g id="a_node35"><a xlink:href="../../d8/d6d/txarray_8h.html" target="_top" xlink:title=" ">
<polygon fill="white" stroke="black" points="1013.83,-55.5 1013.83,-73.5 1067.99,-73.5 1067.99,-55.5 1013.83,-55.5"/>
<text text-anchor="middle" x="1040.91" y="-61.5" font-family="Helvetica,sans-Serif" font-size="10.00">txarray.h</text>
</a>
</g>
</g>
<!-- Node2&#45;&gt;Node35 -->
<g id="edge34" class="edge">
<title>Node2&#45;&gt;Node35</title>
<path fill="none" stroke="midnightblue" d="M1066.36,-101.95C1059.76,-92.49 1051.77,-81.06 1046.53,-73.55"/>
<polygon fill="midnightblue" stroke="midnightblue" points="1063.54,-104.02 1072.13,-110.22 1069.28,-100.02 1063.54,-104.02"/>
</g>
<!-- Node36 -->
<g id="node36" class="node">
<title>Node36</title>
<g id="a_node36"><a xlink:href="../../db/df0/txatt_8_c.html" target="_top" xlink:title=" ">
<polygon fill="white" stroke="black" points="950.46,-55.5 950.46,-73.5 995.36,-73.5 995.36,-55.5 950.46,-55.5"/>
<text text-anchor="middle" x="972.91" y="-61.5" font-family="Helvetica,sans-Serif" font-size="10.00">txatt.C</text>
</a>
</g>
</g>
<!-- Node2&#45;&gt;Node36 -->
<g id="edge36" class="edge">
<title>Node2&#45;&gt;Node36</title>
<path fill="none" stroke="midnightblue" d="M1052.9,-105.88C1033.1,-95.88 1006.03,-82.22 989.01,-73.63"/>
<polygon fill="midnightblue" stroke="midnightblue" points="1051.46,-109.07 1061.96,-110.45 1054.61,-102.82 1051.46,-109.07"/>
</g>
<!-- Node4 -->
<g id="node4" class="node">
<title>Node4</title>
<g id="a_node4"><a xlink:href="../../d2/dbb/globals_8_c.html" target="_top" xlink:title=" ">
<polygon fill="white" stroke="black" points="1327.07,-0.5 1327.07,-18.5 1384.76,-18.5 1384.76,-0.5 1327.07,-0.5"/>
<text text-anchor="middle" x="1355.91" y="-6.5" font-family="Helvetica,sans-Serif" font-size="10.00">globals.C</text>
</a>
</g>
</g>
<!-- Node3&#45;&gt;Node4 -->
<g id="edge3" class="edge">
<title>Node3&#45;&gt;Node4</title>
<path fill="none" stroke="midnightblue" d="M1155.85,-54.74C1196.61,-45.79 1261.68,-31.48 1317.91,-19 1320.82,-18.36 1323.84,-17.68 1326.87,-17.01"/>
<polygon fill="midnightblue" stroke="midnightblue" points="1155.05,-51.33 1146.04,-56.9 1156.55,-58.17 1155.05,-51.33"/>
</g>
<!-- Node5 -->
<g id="node5" class="node">
<title>Node5</title>
<g id="a_node5"><a xlink:href="../../de/dae/_main_class_8_c.html" target="_top" xlink:title=" ">
<polygon fill="white" stroke="black" points="1402.57,-0.5 1402.57,-18.5 1475.25,-18.5 1475.25,-0.5 1402.57,-0.5"/>
<text text-anchor="middle" x="1438.91" y="-6.5" font-family="Helvetica,sans-Serif" font-size="10.00">MainClass.C</text>
</a>
</g>
</g>
<!-- Node3&#45;&gt;Node5 -->
<g id="edge4" class="edge">
<title>Node3&#45;&gt;Node5</title>
<path fill="none" stroke="midnightblue" d="M1156.2,-57.41C1210.33,-49.15 1309.5,-33.73 1393.91,-19 1396.58,-18.54 1399.32,-18.04 1402.09,-17.54"/>
<polygon fill="midnightblue" stroke="midnightblue" points="1155.35,-54 1145.99,-58.97 1156.4,-60.92 1155.35,-54"/>
</g>
<!-- Node6 -->
<g id="node6" class="node">
<title>Node6</title>
<g id="a_node6"><a xlink:href="../../dc/d29/tralics_8_c.html" target="_top" xlink:title=" ">
<polygon fill="white" stroke="black" points="1492.86,-0.5 1492.86,-18.5 1544.97,-18.5 1544.97,-0.5 1492.86,-0.5"/>
<text text-anchor="middle" x="1518.91" y="-6.5" font-family="Helvetica,sans-Serif" font-size="10.00">tralics.C</text>
</a>
</g>
</g>
<!-- Node3&#45;&gt;Node6 -->
<g id="edge5" class="edge">
<title>Node3&#45;&gt;Node6</title>
<path fill="none" stroke="midnightblue" d="M1156.42,-60.18C1224.45,-54.24 1365.8,-40.41 1483.91,-19 1486.74,-18.49 1489.69,-17.88 1492.61,-17.24"/>
<polygon fill="midnightblue" stroke="midnightblue" points="1155.81,-56.72 1146.14,-61.06 1156.41,-63.69 1155.81,-56.72"/>
</g>
<!-- Node7 -->
<g id="node7" class="node">
<title>Node7</title>
<g id="a_node7"><a xlink:href="../../d5/d10/txaccent_8_c.html" target="_top" xlink:title=" ">
<polygon fill="white" stroke="black" points="1563.29,-0.5 1563.29,-18.5 1626.53,-18.5 1626.53,-0.5 1563.29,-0.5"/>
<text text-anchor="middle" x="1594.91" y="-6.5" font-family="Helvetica,sans-Serif" font-size="10.00">txaccent.C</text>
</a>
</g>
</g>
<!-- Node3&#45;&gt;Node7 -->
<g id="edge6" class="edge">
<title>Node3&#45;&gt;Node7</title>
<path fill="none" stroke="midnightblue" d="M1156.32,-60.8C1233.77,-55.3 1408.35,-41.42 1553.91,-19 1556.93,-18.54 1560.06,-17.99 1563.19,-17.41"/>
<polygon fill="midnightblue" stroke="midnightblue" points="1155.78,-57.32 1146.05,-61.51 1156.27,-64.31 1155.78,-57.32"/>
</g>
<!-- Node8 -->
<g id="node8" class="node">
<title>Node8</title>
<g id="a_node8"><a xlink:href="../../df/de6/txarray_8_c.html" target="_top" xlink:title=" ">
<polygon fill="white" stroke="black" points="0,-0.5 0,-18.5 55.82,-18.5 55.82,-0.5 0,-0.5"/>
<text text-anchor="middle" x="27.91" y="-6.5" font-family="Helvetica,sans-Serif" font-size="10.00">txarray.C</text>
</a>
</g>
</g>
<!-- Node3&#45;&gt;Node8 -->
<g id="edge7" class="edge">
<title>Node3&#45;&gt;Node8</title>
<path fill="none" stroke="midnightblue" d="M1075.82,-55.13C628.6,-0 507.87,-77.22 64.91,-19 62.04,-18.62 59.06,-18.12 56.09,-17.56"/>
<polygon fill="midnightblue" stroke="midnightblue" points="1075.41,-58.61 1085.77,-56.37 1076.28,-51.66 1075.41,-58.61"/>
</g>
<!-- Node9 -->
<g id="node9" class="node">
<title>Node9</title>
<g id="a_node9"><a xlink:href="../../dd/dce/txaux_8_c.html" target="_top" xlink:title=" ">
<polygon fill="white" stroke="black" points="1644.96,-0.5 1644.96,-18.5 1694.86,-18.5 1694.86,-0.5 1644.96,-0.5"/>
<text text-anchor="middle" x="1669.91" y="-6.5" font-family="Helvetica,sans-Serif" font-size="10.00">txaux.C</text>
</a>
</g>
</g>
<!-- Node3&#45;&gt;Node9 -->
<g id="edge8" class="edge">
<title>Node3&#45;&gt;Node9</title>
<path fill="none" stroke="midnightblue" d="M1156.07,-62.25C1243.72,-59.03 1458.56,-48.56 1635.91,-19 1638.79,-18.52 1641.79,-17.92 1644.76,-17.26"/>
<polygon fill="midnightblue" stroke="midnightblue" points="1155.89,-58.75 1146.02,-62.6 1156.14,-65.75 1155.89,-58.75"/>
</g>
<!-- Node10 -->
<g id="node10" class="node">
<title>Node10</title>
<g id="a_node10"><a xlink:href="../../d1/d56/txbib_8_c.html" target="_top" xlink:title=" ">
<polygon fill="white" stroke="black" points="1713.35,-0.5 1713.35,-18.5 1760.47,-18.5 1760.47,-0.5 1713.35,-0.5"/>
<text text-anchor="middle" x="1736.91" y="-6.5" font-family="Helvetica,sans-Serif" font-size="10.00">txbib.C</text>
</a>
</g>
</g>
<!-- Node3&#45;&gt;Node10 -->
<g id="edge9" class="edge">
<title>Node3&#45;&gt;Node10</title>
<path fill="none" stroke="midnightblue" d="M1156.23,-62.9C1251.91,-60.93 1499.95,-52.71 1703.91,-19 1706.95,-18.5 1710.11,-17.85 1713.23,-17.13"/>
<polygon fill="midnightblue" stroke="midnightblue" points="1156.05,-59.4 1146.12,-63.09 1156.19,-66.4 1156.05,-59.4"/>
</g>
<!-- Node11 -->
<g id="node11" class="node">
<title>Node11</title>
<g id="a_node11"><a xlink:href="../../d4/df2/txbuffer_8_c.html" target="_top" xlink:title=" ">
<polygon fill="white" stroke="black" points="1778.6,-0.5 1778.6,-18.5 1837.23,-18.5 1837.23,-0.5 1778.6,-0.5"/>
<text text-anchor="middle" x="1807.91" y="-6.5" font-family="Helvetica,sans-Serif" font-size="10.00">txbuffer.C</text>
</a>
</g>
</g>
<!-- Node3&#45;&gt;Node11 -->
<g id="edge10" class="edge">
<title>Node3&#45;&gt;Node11</title>
<path fill="none" stroke="midnightblue" d="M1156.32,-62.88C1259.21,-60.85 1539.31,-52.44 1769.91,-19 1772.72,-18.59 1775.63,-18.09 1778.54,-17.53"/>
<polygon fill="midnightblue" stroke="midnightblue" points="1156,-59.39 1146.07,-63.08 1156.13,-66.39 1156,-59.39"/>
</g>
<!-- Node12 -->
<g id="node12" class="node">
<title>Node12</title>
<g id="a_node12"><a xlink:href="../../de/ddd/txclasses_8_c.html" target="_top" xlink:title=" ">
<polygon fill="white" stroke="black" points="1855.35,-0.5 1855.35,-18.5 1922.47,-18.5 1922.47,-0.5 1855.35,-0.5"/>
<text text-anchor="middle" x="1888.91" y="-6.5" font-family="Helvetica,sans-Serif" font-size="10.00">txclasses.C</text>
</a>
</g>
</g>
<!-- Node3&#45;&gt;Node12 -->
<g id="edge11" class="edge">
<title>Node3&#45;&gt;Node12</title>
<path fill="none" stroke="midnightblue" d="M1155.98,-62.94C1266.39,-61.01 1584.23,-52.69 1845.91,-19 1848.93,-18.61 1852.06,-18.14 1855.18,-17.61"/>
<polygon fill="midnightblue" stroke="midnightblue" points="1155.89,-59.44 1145.95,-63.11 1156.01,-66.44 1155.89,-59.44"/>
</g>
<!-- Node13 -->
<g id="node13" class="node">
<title>Node13</title>
<g id="a_node13"><a xlink:href="../../d4/d1e/txcommands_8_c.html" target="_top" xlink:title=" ">
<polygon fill="white" stroke="black" points="1940.57,-0.5 1940.57,-18.5 2023.25,-18.5 2023.25,-0.5 1940.57,-0.5"/>
<text text-anchor="middle" x="1981.91" y="-6.5" font-family="Helvetica,sans-Serif" font-size="10.00">txcommands.C</text>
</a>
</g>
</g>
<!-- Node3&#45;&gt;Node13 -->
<g id="edge12" class="edge">
<title>Node3&#45;&gt;Node13</title>
<path fill="none" stroke="midnightblue" d="M1156.12,-62.93C1275.04,-60.88 1635.25,-52.2 1931.91,-19 1934.71,-18.69 1937.59,-18.32 1940.49,-17.92"/>
<polygon fill="midnightblue" stroke="midnightblue" points="1155.96,-59.43 1146.02,-63.09 1156.08,-66.43 1155.96,-59.43"/>
</g>
<!-- Node14 -->
<g id="node14" class="node">
<title>Node14</title>
<g id="a_node14"><a xlink:href="../../d9/d64/txconfig_8_c.html" target="_top" xlink:title=" ">
<polygon fill="white" stroke="black" points="73.68,-0.5 73.68,-18.5 134.14,-18.5 134.14,-0.5 73.68,-0.5"/>
<text text-anchor="middle" x="103.91" y="-6.5" font-family="Helvetica,sans-Serif" font-size="10.00">txconfig.C</text>
</a>
</g>
</g>
<!-- Node3&#45;&gt;Node14 -->
<g id="edge13" class="edge">
<title>Node3&#45;&gt;Node14</title>
<path fill="none" stroke="midnightblue" d="M1075.66,-55.1C663.03,-3.67 551.69,-71.01 142.91,-19 140.16,-18.65 137.32,-18.2 134.48,-17.7"/>
<polygon fill="midnightblue" stroke="midnightblue" points="1075.41,-58.6 1085.77,-56.38 1076.29,-51.66 1075.41,-58.6"/>
</g>
<!-- Node15 -->
<g id="node15" class="node">
<title>Node15</title>
<g id="a_node15"><a xlink:href="../../d1/d79/txerr_8_c.html" target="_top" xlink:title=" ">
<polygon fill="white" stroke="black" points="152.19,-0.5 152.19,-18.5 197.64,-18.5 197.64,-0.5 152.19,-0.5"/>
<text text-anchor="middle" x="174.91" y="-6.5" font-family="Helvetica,sans-Serif" font-size="10.00">txerr.C</text>
</a>
</g>
</g>
<!-- Node3&#45;&gt;Node15 -->
<g id="edge14" class="edge">
<title>Node3&#45;&gt;Node15</title>
<path fill="none" stroke="midnightblue" d="M1075.75,-55.11C690.84,-6.8 585.47,-78.1 205.91,-19 203.27,-18.59 200.52,-18.03 197.81,-17.4"/>
<polygon fill="midnightblue" stroke="midnightblue" points="1075.41,-58.6 1085.77,-56.39 1076.29,-51.65 1075.41,-58.6"/>
</g>
<!-- Node16 -->
<g id="node16" class="node">
<title>Node16</title>
<g id="a_node16"><a xlink:href="../../d7/d0d/txfonts_8_c.html" target="_top" xlink:title=" ">
<polygon fill="white" stroke="black" points="215.18,-0.5 215.18,-18.5 270.64,-18.5 270.64,-0.5 215.18,-0.5"/>
<text text-anchor="middle" x="242.91" y="-6.5" font-family="Helvetica,sans-Serif" font-size="10.00">txfonts.C</text>
</a>
</g>
</g>
<!-- Node3&#45;&gt;Node16 -->
<g id="edge15" class="edge">
<title>Node3&#45;&gt;Node16</title>
<path fill="none" stroke="midnightblue" d="M1075.8,-55.11C723.55,-10.14 627.99,-66.45 279.91,-19 276.91,-18.59 273.79,-18.05 270.69,-17.45"/>
<polygon fill="midnightblue" stroke="midnightblue" points="1075.4,-58.59 1085.77,-56.4 1076.3,-51.65 1075.4,-58.59"/>
</g>
<!-- Node17 -->
<g id="node17" class="node">
<title>Node17</title>
<g id="a_node17"><a xlink:href="../../d1/dcd/txfp_8_c.html" target="_top" xlink:title=" ">
<polygon fill="white" stroke="black" points="288.85,-0.5 288.85,-18.5 330.97,-18.5 330.97,-0.5 288.85,-0.5"/>
<text text-anchor="middle" x="309.91" y="-6.5" font-family="Helvetica,sans-Serif" font-size="10.00">txfp.C</text>
</a>
</g>
</g>
<!-- Node3&#45;&gt;Node17 -->
<g id="edge16" class="edge">
<title>Node3&#45;&gt;Node17</title>
<path fill="none" stroke="midnightblue" d="M1075.57,-55.08C749.97,-13.15 660.22,-71.5 339.91,-19 337.03,-18.53 334.02,-17.88 331.08,-17.14"/>
<polygon fill="midnightblue" stroke="midnightblue" points="1075.4,-58.58 1085.77,-56.41 1076.3,-51.64 1075.4,-58.58"/>
</g>
<!-- Node18 -->
<g id="node18" class="node">
<title>Node18</title>
<g id="a_node18"><a xlink:href="../../d8/dc2/txio_8_c.html" target="_top" xlink:title=" ">
<polygon fill="white" stroke="black" points="349.13,-0.5 349.13,-18.5 390.69,-18.5 390.69,-0.5 349.13,-0.5"/>
<text text-anchor="middle" x="369.91" y="-6.5" font-family="Helvetica,sans-Serif" font-size="10.00">txio.C</text>
</a>
</g>
</g>
<!-- Node3&#45;&gt;Node18 -->
<g id="edge17" class="edge">
<title>Node3&#45;&gt;Node18</title>
<path fill="none" stroke="midnightblue" d="M1075.49,-55.06C776.44,-15.98 693.81,-67.82 399.91,-19 396.92,-18.5 393.8,-17.82 390.76,-17.05"/>
<polygon fill="midnightblue" stroke="midnightblue" points="1075.39,-58.58 1085.76,-56.43 1076.31,-51.64 1075.39,-58.58"/>
</g>
<!-- Node19 -->
<g id="node19" class="node">
<title>Node19</title>
<g id="a_node19"><a xlink:href="../../dc/dcd/txl3_8_c.html" target="_top" xlink:title=" ">
<polygon fill="white" stroke="black" points="409.13,-0.5 409.13,-18.5 450.69,-18.5 450.69,-0.5 409.13,-0.5"/>
<text text-anchor="middle" x="429.91" y="-6.5" font-family="Helvetica,sans-Serif" font-size="10.00">txl3.C</text>
</a>
</g>
</g>
<!-- Node3&#45;&gt;Node19 -->
<g id="edge18" class="edge">
<title>Node3&#45;&gt;Node19</title>
<path fill="none" stroke="midnightblue" d="M1075.56,-55.06C802.94,-18.77 727.46,-64.15 459.91,-19 456.92,-18.5 453.81,-17.81 450.76,-17.03"/>
<polygon fill="midnightblue" stroke="midnightblue" points="1075.38,-58.57 1085.76,-56.44 1076.32,-51.63 1075.38,-58.57"/>
</g>
<!-- Node20 -->
<g id="node20" class="node">
<title>Node20</title>
<g id="a_node20"><a xlink:href="../../db/d96/txmath_8_c.html" target="_top" xlink:title=" ">
<polygon fill="white" stroke="black" points="2206.91,-0.5 2206.91,-18.5 2262.92,-18.5 2262.92,-0.5 2206.91,-0.5"/>
<text text-anchor="middle" x="2234.91" y="-6.5" font-family="Helvetica,sans-Serif" font-size="10.00">txmath.C</text>
</a>
</g>
</g>
<!-- Node3&#45;&gt;Node20 -->
<g id="edge19" class="edge">
<title>Node3&#45;&gt;Node20</title>
<path fill="none" stroke="midnightblue" d="M1156.36,-62.84C1327.24,-59.88 1990.76,-46.81 2197.91,-19 2200.79,-18.61 2203.77,-18.11 2206.73,-17.54"/>
<polygon fill="midnightblue" stroke="midnightblue" points="1156.22,-59.34 1146.28,-63.01 1156.34,-66.34 1156.22,-59.34"/>
</g>
<!-- Node21 -->
<g id="node21" class="node">
<title>Node21</title>
<g id="a_node21"><a xlink:href="../../d8/dc6/txmath1_8_c.html" target="_top" xlink:title=" ">
<polygon fill="white" stroke="black" points="2281.13,-0.5 2281.13,-18.5 2342.7,-18.5 2342.7,-0.5 2281.13,-0.5"/>
<text text-anchor="middle" x="2311.91" y="-6.5" font-family="Helvetica,sans-Serif" font-size="10.00">txmath1.C</text>
</a>
</g>
</g>
<!-- Node3&#45;&gt;Node21 -->
<g id="edge20" class="edge">
<title>Node3&#45;&gt;Node21</title>
<path fill="none" stroke="midnightblue" d="M1156.17,-62.87C1333.87,-59.97 2049.13,-46.75 2271.91,-19 2274.87,-18.63 2277.94,-18.15 2280.99,-17.62"/>
<polygon fill="midnightblue" stroke="midnightblue" points="1155.9,-59.38 1145.96,-63.04 1156.01,-66.38 1155.9,-59.38"/>
</g>
<!-- Node22 -->
<g id="node22" class="node">
<title>Node22</title>
<g id="a_node22"><a xlink:href="../../d7/dd3/txmathboot_8_c.html" target="_top" xlink:title=" ">
<polygon fill="white" stroke="black" points="2041.18,-0.5 2041.18,-18.5 2116.65,-18.5 2116.65,-0.5 2041.18,-0.5"/>
<text text-anchor="middle" x="2078.91" y="-6.5" font-family="Helvetica,sans-Serif" font-size="10.00">txmathboot.C</text>
</a>
</g>
</g>
<!-- Node3&#45;&gt;Node22 -->
<g id="edge21" class="edge">
<title>Node3&#45;&gt;Node22</title>
<path fill="none" stroke="midnightblue" d="M1156.22,-63.41C1284.55,-62.74 1694.96,-57.49 2031.91,-19 2034.88,-18.66 2037.94,-18.25 2041.01,-17.79"/>
<polygon fill="midnightblue" stroke="midnightblue" points="1156.06,-59.91 1146.07,-63.46 1156.09,-66.91 1156.06,-59.91"/>
</g>
<!-- Node23 -->
<g id="node23" class="node">
<title>Node23</title>
<g id="a_node23"><a xlink:href="../../dd/d48/txmlio_8_c.html" target="_top" xlink:title=" ">
<polygon fill="white" stroke="black" points="468.86,-0.5 468.86,-18.5 520.97,-18.5 520.97,-0.5 468.86,-0.5"/>
<text text-anchor="middle" x="494.91" y="-6.5" font-family="Helvetica,sans-Serif" font-size="10.00">txmlio.C</text>
</a>
</g>
</g>
<!-- Node3&#45;&gt;Node23 -->
<g id="edge22" class="edge">
<title>Node3&#45;&gt;Node23</title>
<path fill="none" stroke="midnightblue" d="M1075.6,-55.05C833.86,-21.91 767.45,-55.38 529.91,-19 527.07,-18.56 524.12,-18.01 521.19,-17.4"/>
<polygon fill="midnightblue" stroke="midnightblue" points="1075.37,-58.55 1085.76,-56.46 1076.34,-51.62 1075.37,-58.55"/>
</g>
<!-- Node24 -->
<g id="node24" class="node">
<title>Node24</title>
<g id="a_node24"><a xlink:href="../../d7/dc3/txparser_8_c.html" target="_top" xlink:title=" ">
<polygon fill="white" stroke="black" points="539.12,-0.5 539.12,-18.5 600.7,-18.5 600.7,-0.5 539.12,-0.5"/>
<text text-anchor="middle" x="569.91" y="-6.5" font-family="Helvetica,sans-Serif" font-size="10.00">txparser.C</text>
</a>
</g>
</g>
<!-- Node3&#45;&gt;Node24 -->
<g id="edge23" class="edge">
<title>Node3&#45;&gt;Node24</title>
<path fill="none" stroke="midnightblue" d="M1075.8,-55.05C869.19,-25.5 812.73,-48.24 609.91,-19 606.96,-18.57 603.9,-18.06 600.85,-17.5"/>
<polygon fill="midnightblue" stroke="midnightblue" points="1075.35,-58.52 1085.75,-56.5 1076.36,-51.6 1075.35,-58.52"/>
</g>
<!-- Node25 -->
<g id="node25" class="node">
<title>Node25</title>
<g id="a_node25"><a xlink:href="../../d5/d2e/txparser2_8_c.html" target="_top" xlink:title=" ">
<polygon fill="white" stroke="black" points="619.07,-0.5 619.07,-18.5 686.75,-18.5 686.75,-0.5 619.07,-0.5"/>
<text text-anchor="middle" x="652.91" y="-6.5" font-family="Helvetica,sans-Serif" font-size="10.00">txparser2.C</text>
</a>
</g>
</g>
<!-- Node3&#45;&gt;Node25 -->
<g id="edge24" class="edge">
<title>Node3&#45;&gt;Node25</title>
<path fill="none" stroke="midnightblue" d="M1075.78,-55.01C907.1,-29.39 861.02,-43.06 695.91,-19 693.05,-18.58 690.09,-18.1 687.13,-17.59"/>
<polygon fill="midnightblue" stroke="midnightblue" points="1075.33,-58.48 1085.75,-56.55 1076.4,-51.57 1075.33,-58.48"/>
</g>
<!-- Node26 -->
<g id="node26" class="node">
<title>Node26</title>
<g id="a_node26"><a xlink:href="../../d4/d5c/txparser3_8_c.html" target="_top" xlink:title=" ">
<polygon fill="white" stroke="black" points="705.07,-0.5 705.07,-18.5 772.75,-18.5 772.75,-0.5 705.07,-0.5"/>
<text text-anchor="middle" x="738.91" y="-6.5" font-family="Helvetica,sans-Serif" font-size="10.00">txparser3.C</text>
</a>
</g>
</g>
<!-- Node3&#45;&gt;Node26 -->
<g id="edge25" class="edge">
<title>Node3&#45;&gt;Node26</title>
<path fill="none" stroke="midnightblue" d="M1075.73,-54.95C944.95,-33.23 909.16,-39.31 781.91,-19 779.06,-18.54 776.1,-18.04 773.14,-17.5"/>
<polygon fill="midnightblue" stroke="midnightblue" points="1075.29,-58.42 1085.73,-56.63 1076.45,-51.52 1075.29,-58.42"/>
</g>
<!-- Node27 -->
<g id="node27" class="node">
<title>Node27</title>
<g id="a_node27"><a xlink:href="../../db/d66/txpost_8_c.html" target="_top" xlink:title=" ">
<polygon fill="white" stroke="black" points="790.57,-0.5 790.57,-18.5 843.25,-18.5 843.25,-0.5 790.57,-0.5"/>
<text text-anchor="middle" x="816.91" y="-6.5" font-family="Helvetica,sans-Serif" font-size="10.00">txpost.C</text>
</a>
</g>
</g>
<!-- Node3&#45;&gt;Node27 -->
<g id="edge26" class="edge">
<title>Node3&#45;&gt;Node27</title>
<path fill="none" stroke="midnightblue" d="M1075.83,-54.89C976.14,-36.38 948.73,-37.99 852.91,-19 849.89,-18.4 846.73,-17.73 843.6,-17.03"/>
<polygon fill="midnightblue" stroke="midnightblue" points="1075.24,-58.34 1085.71,-56.75 1076.53,-51.46 1075.24,-58.34"/>
</g>
<!-- Node28 -->
<g id="node28" class="node">
<title>Node28</title>
<g id="a_node28"><a xlink:href="../../dc/d4c/txra_8_c.html" target="_top" xlink:title=" ">
<polygon fill="white" stroke="black" points="861.58,-0.5 861.58,-18.5 904.25,-18.5 904.25,-0.5 861.58,-0.5"/>
<text text-anchor="middle" x="882.91" y="-6.5" font-family="Helvetica,sans-Serif" font-size="10.00">txra.C</text>
</a>
</g>
</g>
<!-- Node3&#45;&gt;Node28 -->
<g id="edge27" class="edge">
<title>Node3&#45;&gt;Node28</title>
<path fill="none" stroke="midnightblue" d="M1075.9,-54.76C1017.89,-42.09 916.89,-20 912.91,-19 910.18,-18.31 907.32,-17.56 904.5,-16.78"/>
<polygon fill="midnightblue" stroke="midnightblue" points="1075.33,-58.22 1085.85,-56.93 1076.83,-51.38 1075.33,-58.22"/>
</g>
<!-- Node29 -->
<g id="node29" class="node">
<title>Node29</title>
<g id="a_node29"><a xlink:href="../../d2/dee/txscan_8_c.html" target="_top" xlink:title=" ">
<polygon fill="white" stroke="black" points="2134.46,-0.5 2134.46,-18.5 2189.36,-18.5 2189.36,-0.5 2134.46,-0.5"/>
<text text-anchor="middle" x="2161.91" y="-6.5" font-family="Helvetica,sans-Serif" font-size="10.00">txscan.C</text>
</a>
</g>
</g>
<!-- Node3&#45;&gt;Node29 -->
<g id="edge28" class="edge">
<title>Node3&#45;&gt;Node29</title>
<path fill="none" stroke="midnightblue" d="M1156.29,-62.73C1319.87,-59.47 1933.68,-45.69 2125.91,-19 2128.58,-18.63 2131.35,-18.15 2134.1,-17.61"/>
<polygon fill="midnightblue" stroke="midnightblue" points="1156.11,-59.24 1146.18,-62.93 1156.25,-66.24 1156.11,-59.24"/>
</g>
<!-- Node30 -->
<g id="node30" class="node">
<title>Node30</title>
<g id="a_node30"><a xlink:href="../../d3/df2/txstack_8_c.html" target="_top" xlink:title=" ">
<polygon fill="white" stroke="black" points="922.35,-0.5 922.35,-18.5 979.47,-18.5 979.47,-0.5 922.35,-0.5"/>
<text text-anchor="middle" x="950.91" y="-6.5" font-family="Helvetica,sans-Serif" font-size="10.00">txstack.C</text>
</a>
</g>
</g>
<!-- Node3&#45;&gt;Node30 -->
<g id="edge29" class="edge">
<title>Node3&#45;&gt;Node30</title>
<path fill="none" stroke="midnightblue" d="M1081.16,-52.34C1049.66,-42.22 1003.99,-27.55 975.94,-18.54"/>
<polygon fill="midnightblue" stroke="midnightblue" points="1080.26,-55.72 1090.85,-55.45 1082.4,-49.06 1080.26,-55.72"/>
</g>
<!-- Node31 -->
<g id="node31" class="node">
<title>Node31</title>
<g id="a_node31"><a xlink:href="../../da/d89/txtitlepage_8_c.html" target="_top" xlink:title=" ">
<polygon fill="white" stroke="black" points="997.12,-0.5 997.12,-18.5 1068.71,-18.5 1068.71,-0.5 997.12,-0.5"/>
<text text-anchor="middle" x="1032.91" y="-6.5" font-family="Helvetica,sans-Serif" font-size="10.00">txtitlepage.C</text>
</a>
</g>
</g>
<!-- Node3&#45;&gt;Node31 -->
<g id="edge30" class="edge">
<title>Node3&#45;&gt;Node31</title>
<path fill="none" stroke="midnightblue" d="M1094.85,-50.05C1079.33,-40.14 1058.72,-26.98 1045.64,-18.63"/>
<polygon fill="midnightblue" stroke="midnightblue" points="1092.99,-53.02 1103.31,-55.45 1096.76,-47.12 1092.99,-53.02"/>
</g>
<!-- Node32 -->
<g id="node32" class="node">
<title>Node32</title>
<g id="a_node32"><a xlink:href="../../d9/d1e/txtoken_8_c.html" target="_top" xlink:title=" ">
<polygon fill="white" stroke="black" points="1086.79,-0.5 1086.79,-18.5 1145.03,-18.5 1145.03,-0.5 1086.79,-0.5"/>
<text text-anchor="middle" x="1115.91" y="-6.5" font-family="Helvetica,sans-Serif" font-size="10.00">txtoken.C</text>
</a>
</g>
</g>
<!-- Node3&#45;&gt;Node32 -->
<g id="edge31" class="edge">
<title>Node3&#45;&gt;Node32</title>
<path fill="none" stroke="midnightblue" d="M1115.91,-45.17C1115.91,-36.09 1115.91,-25.59 1115.91,-18.55"/>
<polygon fill="midnightblue" stroke="midnightblue" points="1112.41,-45.22 1115.91,-55.22 1119.41,-45.22 1112.41,-45.22"/>
</g>
<!-- Node33 -->
<g id="node33" class="node">
<title>Node33</title>
<g id="a_node33"><a xlink:href="../../d5/dda/txtranslate_8_c.html" target="_top" xlink:title=" ">
<polygon fill="white" stroke="black" points="1162.85,-0.5 1162.85,-18.5 1234.98,-18.5 1234.98,-0.5 1162.85,-0.5"/>
<text text-anchor="middle" x="1198.91" y="-6.5" font-family="Helvetica,sans-Serif" font-size="10.00">txtranslate.C</text>
</a>
</g>
</g>
<!-- Node3&#45;&gt;Node33 -->
<g id="edge32" class="edge">
<title>Node3&#45;&gt;Node33</title>
<path fill="none" stroke="midnightblue" d="M1136.97,-50.05C1152.5,-40.14 1173.1,-26.98 1186.19,-18.63"/>
<polygon fill="midnightblue" stroke="midnightblue" points="1135.06,-47.12 1128.52,-55.45 1138.83,-53.02 1135.06,-47.12"/>
</g>
<!-- Node34 -->
<g id="node34" class="node">
<title>Node34</title>
<g id="a_node34"><a xlink:href="../../da/d9e/txtrees_8_c.html" target="_top" xlink:title=" ">
<polygon fill="white" stroke="black" points="1252.91,-0.5 1252.91,-18.5 1308.92,-18.5 1308.92,-0.5 1252.91,-0.5"/>
<text text-anchor="middle" x="1280.91" y="-6.5" font-family="Helvetica,sans-Serif" font-size="10.00">txtrees.C</text>
</a>
</g>
</g>
<!-- Node3&#45;&gt;Node34 -->
<g id="edge33" class="edge">
<title>Node3&#45;&gt;Node34</title>
<path fill="none" stroke="midnightblue" d="M1150.66,-52.34C1182.17,-42.22 1227.84,-27.55 1255.89,-18.54"/>
<polygon fill="midnightblue" stroke="midnightblue" points="1149.42,-49.06 1140.97,-55.45 1151.56,-55.72 1149.42,-49.06"/>
</g>
<!-- Node35&#45;&gt;Node8 -->
<g id="edge35" class="edge">
<title>Node35&#45;&gt;Node8</title>
<path fill="none" stroke="midnightblue" d="M1003.36,-55.27C588.1,-1.19 475.58,-73.55 64.91,-19 62.04,-18.62 59.06,-18.12 56.09,-17.55"/>
<polygon fill="midnightblue" stroke="midnightblue" points="1003.17,-58.77 1013.54,-56.61 1004.08,-51.83 1003.17,-58.77"/>
</g>
<!-- Node37&#45;&gt;Node20 -->
<g id="edge38" class="edge">
<title>Node37&#45;&gt;Node20</title>
<path fill="none" stroke="midnightblue" d="M2181.21,-49.49C2194.76,-39.65 2212.43,-26.83 2223.72,-18.63"/>
<polygon fill="midnightblue" stroke="midnightblue" points="2179.04,-46.74 2173,-55.45 2183.15,-52.41 2179.04,-46.74"/>
</g>
<!-- Node37&#45;&gt;Node21 -->
<g id="edge39" class="edge">
<title>Node37&#45;&gt;Node21</title>
<path fill="none" stroke="midnightblue" d="M2194.22,-52.08C2222.74,-42.01 2263.61,-27.57 2288.92,-18.63"/>
<polygon fill="midnightblue" stroke="midnightblue" points="2192.96,-48.82 2184.69,-55.45 2195.29,-55.42 2192.96,-48.82"/>
</g>
<!-- Node37&#45;&gt;Node22 -->
<g id="edge40" class="edge">
<title>Node37&#45;&gt;Node22</title>
<path fill="none" stroke="midnightblue" d="M2140.85,-50.05C2125.33,-40.14 2104.72,-26.98 2091.64,-18.63"/>
<polygon fill="midnightblue" stroke="midnightblue" points="2138.99,-53.02 2149.31,-55.45 2142.76,-47.12 2138.99,-53.02"/>
</g>
<!-- Node37&#45;&gt;Node29 -->
<g id="edge41" class="edge">
<title>Node37&#45;&gt;Node29</title>
<path fill="none" stroke="midnightblue" d="M2161.91,-45.17C2161.91,-36.09 2161.91,-25.59 2161.91,-18.55"/>
<polygon fill="midnightblue" stroke="midnightblue" points="2158.41,-45.22 2161.91,-55.22 2165.41,-45.22 2158.41,-45.22"/>
</g>
</g>
</svg>
