<?xml version="1.0" encoding="UTF-8" standalone="no"?>
<!DOCTYPE svg PUBLIC "-//W3C//DTD SVG 1.1//EN"
 "http://www.w3.org/Graphics/SVG/1.1/DTD/svg11.dtd">
<!-- Generated by graphviz version 2.42.3 (20191010.1750)
 -->
<!-- Title: txxml.h Pages: 1 -->
<svg width="2614pt" height="247pt"
 viewBox="0.00 0.00 2614.26 247.00" xmlns="http://www.w3.org/2000/svg" xmlns:xlink="http://www.w3.org/1999/xlink">
<g id="graph0" class="graph" transform="scale(1 1) rotate(0) translate(4 243)">
<title>txxml.h</title>
<!-- Node1 -->
<g id="node1" class="node">
<title>Node1</title>
<g id="a_node1"><a xlink:title=" ">
<polygon fill="#bfbfbf" stroke="black" points="444.53,-220.5 444.53,-238.5 492.2,-238.5 492.2,-220.5 444.53,-220.5"/>
<text text-anchor="middle" x="468.36" y="-226.5" font-family="Helvetica,sans-Serif" font-size="10.00">txxml.h</text>
</a>
</g>
</g>
<!-- Node2 -->
<g id="node2" class="node">
<title>Node2</title>
<g id="a_node2"><a xlink:href="../../dc/d65/txstack_8h.html" target="_top" xlink:title=" ">
<polygon fill="none" stroke="black" points="945.63,-165.5 945.63,-183.5 1001.09,-183.5 1001.09,-165.5 945.63,-165.5"/>
<text text-anchor="middle" x="973.36" y="-171.5" font-family="Helvetica,sans-Serif" font-size="10.00">txstack.h</text>
</a>
</g>
</g>
<!-- Node1&#45;&gt;Node2 -->
<g id="edge1" class="edge">
<title>Node1&#45;&gt;Node2</title>
<path fill="none" stroke="midnightblue" d="M502.51,-224.92C596.77,-215.02 859.34,-187.47 945.55,-178.42"/>
<polygon fill="midnightblue" stroke="midnightblue" points="501.96,-221.45 492.38,-225.98 502.69,-228.42 501.96,-221.45"/>
</g>
<!-- Node8 -->
<g id="node8" class="node">
<title>Node8</title>
<g id="a_node8"><a xlink:href="../../d7/de8/txarray_8cpp.html" target="_top" xlink:title=" ">
<polygon fill="none" stroke="black" points="0,-55.5 0,-73.5 64.73,-73.5 64.73,-55.5 0,-55.5"/>
<text text-anchor="middle" x="32.36" y="-61.5" font-family="Helvetica,sans-Serif" font-size="10.00">txarray.cpp</text>
</a>
</g>
</g>
<!-- Node1&#45;&gt;Node8 -->
<g id="edge38" class="edge">
<title>Node1&#45;&gt;Node8</title>
<path fill="none" stroke="midnightblue" d="M434.44,-226.47C364.31,-220.88 200.38,-200.55 86.36,-129 63.56,-114.69 45.39,-87.65 37.15,-73.94"/>
<polygon fill="midnightblue" stroke="midnightblue" points="434.25,-229.96 444.48,-227.22 434.77,-222.98 434.25,-229.96"/>
</g>
<!-- Node38 -->
<g id="node38" class="node">
<title>Node38</title>
<g id="a_node38"><a xlink:href="../../d6/dcb/txbib_8h.html" target="_top" xlink:title=" ">
<polygon fill="none" stroke="black" points="179.63,-110.5 179.63,-128.5 225.09,-128.5 225.09,-110.5 179.63,-110.5"/>
<text text-anchor="middle" x="202.36" y="-116.5" font-family="Helvetica,sans-Serif" font-size="10.00">txbib.h</text>
</a>
</g>
</g>
<!-- Node1&#45;&gt;Node38 -->
<g id="edge39" class="edge">
<title>Node1&#45;&gt;Node38</title>
<path fill="none" stroke="midnightblue" d="M438.91,-216.54C384.29,-194.36 268.62,-147.4 222.23,-128.56"/>
<polygon fill="midnightblue" stroke="midnightblue" points="437.79,-219.86 448.37,-220.38 440.42,-213.38 437.79,-219.86"/>
</g>
<!-- Node39 -->
<g id="node39" class="node">
<title>Node39</title>
<g id="a_node39"><a xlink:href="../../df/d79/txmath_8h.html" target="_top" xlink:title=" ">
<polygon fill="none" stroke="black" points="2360.19,-110.5 2360.19,-128.5 2414.54,-128.5 2414.54,-110.5 2360.19,-110.5"/>
<text text-anchor="middle" x="2387.36" y="-116.5" font-family="Helvetica,sans-Serif" font-size="10.00">txmath.h</text>
</a>
</g>
</g>
<!-- Node1&#45;&gt;Node39 -->
<g id="edge42" class="edge">
<title>Node1&#45;&gt;Node39</title>
<path fill="none" stroke="midnightblue" d="M502.39,-226.59C739.8,-213.22 2145.54,-134.11 2359.95,-122.04"/>
<polygon fill="midnightblue" stroke="midnightblue" points="502.07,-223.1 492.28,-227.15 502.46,-230.09 502.07,-223.1"/>
</g>
<!-- Node3 -->
<g id="node3" class="node">
<title>Node3</title>
<g id="a_node3"><a xlink:href="../../d2/d1b/txparser_8h.html" target="_top" xlink:title=" ">
<polygon fill="none" stroke="black" points="1182.4,-110.5 1182.4,-128.5 1242.32,-128.5 1242.32,-110.5 1182.4,-110.5"/>
<text text-anchor="middle" x="1212.36" y="-116.5" font-family="Helvetica,sans-Serif" font-size="10.00">txparser.h</text>
</a>
</g>
</g>
<!-- Node2&#45;&gt;Node3 -->
<g id="edge2" class="edge">
<title>Node2&#45;&gt;Node3</title>
<path fill="none" stroke="midnightblue" d="M1011.1,-165.13C1058.39,-154.64 1138.51,-136.88 1182.03,-127.23"/>
<polygon fill="midnightblue" stroke="midnightblue" points="1010.25,-161.73 1001.25,-167.32 1011.77,-168.57 1010.25,-161.73"/>
</g>
<!-- Node36 -->
<g id="node36" class="node">
<title>Node36</title>
<g id="a_node36"><a xlink:href="../../d8/d6d/txarray_8h.html" target="_top" xlink:title=" ">
<polygon fill="none" stroke="black" points="95.28,-110.5 95.28,-128.5 149.44,-128.5 149.44,-110.5 95.28,-110.5"/>
<text text-anchor="middle" x="122.36" y="-116.5" font-family="Helvetica,sans-Serif" font-size="10.00">txarray.h</text>
</a>
</g>
</g>
<!-- Node2&#45;&gt;Node36 -->
<g id="edge35" class="edge">
<title>Node2&#45;&gt;Node36</title>
<path fill="none" stroke="midnightblue" d="M935.44,-173.01C820.1,-171.18 463.57,-162.96 170.36,-129 163.64,-128.22 156.43,-127.1 149.69,-125.92"/>
<polygon fill="midnightblue" stroke="midnightblue" points="935.47,-176.51 945.52,-173.16 935.58,-169.51 935.47,-176.51"/>
</g>
<!-- Node37 -->
<g id="node37" class="node">
<title>Node37</title>
<g id="a_node37"><a xlink:href="../../d5/d6d/txatt_8cpp.html" target="_top" xlink:title=" ">
<polygon fill="none" stroke="black" points="1260.46,-110.5 1260.46,-128.5 1314.26,-128.5 1314.26,-110.5 1260.46,-110.5"/>
<text text-anchor="middle" x="1287.36" y="-116.5" font-family="Helvetica,sans-Serif" font-size="10.00">txatt.cpp</text>
</a>
</g>
</g>
<!-- Node2&#45;&gt;Node37 -->
<g id="edge37" class="edge">
<title>Node2&#45;&gt;Node37</title>
<path fill="none" stroke="midnightblue" d="M1011.18,-168.34C1064.81,-160.82 1165.95,-145.9 1251.36,-129 1254.26,-128.43 1257.28,-127.79 1260.28,-127.12"/>
<polygon fill="midnightblue" stroke="midnightblue" points="1010.52,-164.9 1001.1,-169.75 1011.49,-171.83 1010.52,-164.9"/>
</g>
<!-- Node4 -->
<g id="node4" class="node">
<title>Node4</title>
<g id="a_node4"><a xlink:href="../../da/d77/globals_8cpp.html" target="_top" xlink:title=" ">
<polygon fill="none" stroke="black" points="266.07,-55.5 266.07,-73.5 332.66,-73.5 332.66,-55.5 266.07,-55.5"/>
<text text-anchor="middle" x="299.36" y="-61.5" font-family="Helvetica,sans-Serif" font-size="10.00">globals.cpp</text>
</a>
</g>
</g>
<!-- Node3&#45;&gt;Node4 -->
<g id="edge3" class="edge">
<title>Node3&#45;&gt;Node4</title>
<path fill="none" stroke="midnightblue" d="M1171.94,-118.56C1047.53,-118.31 659.58,-114.1 341.36,-74 338.56,-73.65 335.66,-73.21 332.76,-72.72"/>
<polygon fill="midnightblue" stroke="midnightblue" points="1172.13,-122.06 1182.13,-118.58 1172.14,-115.06 1172.13,-122.06"/>
</g>
<!-- Node5 -->
<g id="node5" class="node">
<title>Node5</title>
<g id="a_node5"><a xlink:href="../../df/d37/_main_class_8cpp.html" target="_top" xlink:title=" ">
<polygon fill="none" stroke="black" points="350.57,-55.5 350.57,-73.5 432.15,-73.5 432.15,-55.5 350.57,-55.5"/>
<text text-anchor="middle" x="391.36" y="-61.5" font-family="Helvetica,sans-Serif" font-size="10.00">MainClass.cpp</text>
</a>
</g>
</g>
<!-- Node3&#45;&gt;Node5 -->
<g id="edge4" class="edge">
<title>Node3&#45;&gt;Node5</title>
<path fill="none" stroke="midnightblue" d="M1172,-117.8C1057.19,-115.45 719.07,-106.1 440.36,-74 437.7,-73.69 434.97,-73.34 432.22,-72.95"/>
<polygon fill="midnightblue" stroke="midnightblue" points="1172.02,-121.3 1182.09,-118 1172.16,-114.3 1172.02,-121.3"/>
</g>
<!-- Node6 -->
<g id="node6" class="node">
<title>Node6</title>
<g id="a_node6"><a xlink:href="../../d5/ddd/tralics_8cpp.html" target="_top" xlink:title=" ">
<polygon fill="none" stroke="black" points="449.86,-55.5 449.86,-73.5 510.87,-73.5 510.87,-55.5 449.86,-55.5"/>
<text text-anchor="middle" x="480.36" y="-61.5" font-family="Helvetica,sans-Serif" font-size="10.00">tralics.cpp</text>
</a>
</g>
</g>
<!-- Node3&#45;&gt;Node6 -->
<g id="edge5" class="edge">
<title>Node3&#45;&gt;Node6</title>
<path fill="none" stroke="midnightblue" d="M1172.18,-117.95C1065.51,-116.06 766.49,-107.88 520.36,-74 517.41,-73.59 514.35,-73.09 511.29,-72.54"/>
<polygon fill="midnightblue" stroke="midnightblue" points="1172.13,-121.45 1182.19,-118.12 1172.25,-114.45 1172.13,-121.45"/>
</g>
<!-- Node7 -->
<g id="node7" class="node">
<title>Node7</title>
<g id="a_node7"><a xlink:href="../../dd/dce/txaccent_8cpp.html" target="_top" xlink:title=" ">
<polygon fill="none" stroke="black" points="529.29,-55.5 529.29,-73.5 601.43,-73.5 601.43,-55.5 529.29,-55.5"/>
<text text-anchor="middle" x="565.36" y="-61.5" font-family="Helvetica,sans-Serif" font-size="10.00">txaccent.cpp</text>
</a>
</g>
</g>
<!-- Node3&#45;&gt;Node7 -->
<g id="edge6" class="edge">
<title>Node3&#45;&gt;Node7</title>
<path fill="none" stroke="midnightblue" d="M1171.92,-117.09C1074.77,-113.35 820.69,-101.55 610.36,-74 607.52,-73.63 604.6,-73.19 601.66,-72.72"/>
<polygon fill="midnightblue" stroke="midnightblue" points="1172.05,-120.6 1182.17,-117.47 1172.31,-113.6 1172.05,-120.6"/>
</g>
<!-- Node3&#45;&gt;Node8 -->
<g id="edge7" class="edge">
<title>Node3&#45;&gt;Node8</title>
<path fill="none" stroke="midnightblue" d="M1172.12,-117.82C996.08,-114.71 292.69,-100.83 73.36,-74 70.62,-73.66 67.79,-73.24 64.96,-72.76"/>
<polygon fill="midnightblue" stroke="midnightblue" points="1172.18,-121.32 1182.24,-118 1172.31,-114.32 1172.18,-121.32"/>
</g>
<!-- Node9 -->
<g id="node9" class="node">
<title>Node9</title>
<g id="a_node9"><a xlink:href="../../d1/daa/txaux_8cpp.html" target="_top" xlink:title=" ">
<polygon fill="none" stroke="black" points="618.96,-55.5 618.96,-73.5 677.76,-73.5 677.76,-55.5 618.96,-55.5"/>
<text text-anchor="middle" x="648.36" y="-61.5" font-family="Helvetica,sans-Serif" font-size="10.00">txaux.cpp</text>
</a>
</g>
</g>
<!-- Node3&#45;&gt;Node9 -->
<g id="edge8" class="edge">
<title>Node3&#45;&gt;Node9</title>
<path fill="none" stroke="midnightblue" d="M1172.12,-116.96C1083.77,-113.17 866.33,-101.61 686.36,-74 683.69,-73.59 680.92,-73.1 678.16,-72.57"/>
<polygon fill="midnightblue" stroke="midnightblue" points="1172.11,-120.46 1182.24,-117.38 1172.4,-113.47 1172.11,-120.46"/>
</g>
<!-- Node10 -->
<g id="node10" class="node">
<title>Node10</title>
<g id="a_node10"><a xlink:href="../../d1/ddd/txbib_8cpp.html" target="_top" xlink:title=" ">
<polygon fill="none" stroke="black" points="82.35,-55.5 82.35,-73.5 138.38,-73.5 138.38,-55.5 82.35,-55.5"/>
<text text-anchor="middle" x="110.36" y="-61.5" font-family="Helvetica,sans-Serif" font-size="10.00">txbib.cpp</text>
</a>
</g>
</g>
<!-- Node3&#45;&gt;Node10 -->
<g id="edge9" class="edge">
<title>Node3&#45;&gt;Node10</title>
<path fill="none" stroke="midnightblue" d="M1172.02,-117.81C1002.99,-114.76 351.04,-101.41 147.36,-74 144.49,-73.61 141.51,-73.11 138.55,-72.54"/>
<polygon fill="midnightblue" stroke="midnightblue" points="1172.16,-121.31 1182.22,-117.99 1172.29,-114.31 1172.16,-121.31"/>
</g>
<!-- Node11 -->
<g id="node11" class="node">
<title>Node11</title>
<g id="a_node11"><a xlink:href="../../de/d74/txbuffer_8cpp.html" target="_top" xlink:title=" ">
<polygon fill="none" stroke="black" points="695.6,-55.5 695.6,-73.5 763.13,-73.5 763.13,-55.5 695.6,-55.5"/>
<text text-anchor="middle" x="729.36" y="-61.5" font-family="Helvetica,sans-Serif" font-size="10.00">txbuffer.cpp</text>
</a>
</g>
</g>
<!-- Node3&#45;&gt;Node11 -->
<g id="edge10" class="edge">
<title>Node3&#45;&gt;Node11</title>
<path fill="none" stroke="midnightblue" d="M1172.08,-115.7C1094.45,-110.03 918.87,-95.84 772.36,-74 769.5,-73.57 766.54,-73.09 763.58,-72.57"/>
<polygon fill="midnightblue" stroke="midnightblue" points="1172.14,-119.22 1182.37,-116.45 1172.64,-112.24 1172.14,-119.22"/>
</g>
<!-- Node12 -->
<g id="node12" class="node">
<title>Node12</title>
<g id="a_node12"><a xlink:href="../../d4/dee/txclasses_8cpp.html" target="_top" xlink:title=" ">
<polygon fill="none" stroke="black" points="781.35,-55.5 781.35,-73.5 857.38,-73.5 857.38,-55.5 781.35,-55.5"/>
<text text-anchor="middle" x="819.36" y="-61.5" font-family="Helvetica,sans-Serif" font-size="10.00">txclasses.cpp</text>
</a>
</g>
</g>
<!-- Node3&#45;&gt;Node12 -->
<g id="edge11" class="edge">
<title>Node3&#45;&gt;Node12</title>
<path fill="none" stroke="midnightblue" d="M1172.04,-113.99C1107.4,-106.61 976.64,-91.05 866.36,-74 863.49,-73.56 860.53,-73.08 857.55,-72.58"/>
<polygon fill="midnightblue" stroke="midnightblue" points="1171.88,-117.49 1182.21,-115.15 1172.67,-110.54 1171.88,-117.49"/>
</g>
<!-- Node13 -->
<g id="node13" class="node">
<title>Node13</title>
<g id="a_node13"><a xlink:href="../../df/d9e/txcommands_8cpp.html" target="_top" xlink:title=" ">
<polygon fill="none" stroke="black" points="156.57,-55.5 156.57,-73.5 248.16,-73.5 248.16,-55.5 156.57,-55.5"/>
<text text-anchor="middle" x="202.36" y="-61.5" font-family="Helvetica,sans-Serif" font-size="10.00">txcommands.cpp</text>
</a>
</g>
</g>
<!-- Node3&#45;&gt;Node13 -->
<g id="edge12" class="edge">
<title>Node3&#45;&gt;Node13</title>
<path fill="none" stroke="midnightblue" d="M1172.14,-118.16C1040.5,-116.72 610.71,-109.43 257.36,-74 254.38,-73.7 251.32,-73.35 248.23,-72.96"/>
<polygon fill="midnightblue" stroke="midnightblue" points="1172.13,-121.66 1182.17,-118.27 1172.21,-114.66 1172.13,-121.66"/>
</g>
<!-- Node14 -->
<g id="node14" class="node">
<title>Node14</title>
<g id="a_node14"><a xlink:href="../../df/d98/txconfig_8cpp.html" target="_top" xlink:title=" ">
<polygon fill="none" stroke="black" points="875.68,-55.5 875.68,-73.5 945.04,-73.5 945.04,-55.5 875.68,-55.5"/>
<text text-anchor="middle" x="910.36" y="-61.5" font-family="Helvetica,sans-Serif" font-size="10.00">txconfig.cpp</text>
</a>
</g>
</g>
<!-- Node3&#45;&gt;Node14 -->
<g id="edge13" class="edge">
<title>Node3&#45;&gt;Node14</title>
<path fill="none" stroke="midnightblue" d="M1172.22,-111.83C1121.44,-103.34 1031.33,-88.07 954.36,-74 951.45,-73.47 948.44,-72.91 945.42,-72.34"/>
<polygon fill="midnightblue" stroke="midnightblue" points="1171.7,-115.29 1182.14,-113.49 1172.85,-108.39 1171.7,-115.29"/>
</g>
<!-- Node15 -->
<g id="node15" class="node">
<title>Node15</title>
<g id="a_node15"><a xlink:href="../../d8/d02/txerr_8cpp.html" target="_top" xlink:title=" ">
<polygon fill="none" stroke="black" points="963.19,-55.5 963.19,-73.5 1017.54,-73.5 1017.54,-55.5 963.19,-55.5"/>
<text text-anchor="middle" x="990.36" y="-61.5" font-family="Helvetica,sans-Serif" font-size="10.00">txerr.cpp</text>
</a>
</g>
</g>
<!-- Node3&#45;&gt;Node15 -->
<g id="edge14" class="edge">
<title>Node3&#45;&gt;Node15</title>
<path fill="none" stroke="midnightblue" d="M1172,-108.86C1127.24,-98.18 1056.26,-81.23 1017.61,-72.01"/>
<polygon fill="midnightblue" stroke="midnightblue" points="1171.42,-112.32 1181.96,-111.24 1173.05,-105.52 1171.42,-112.32"/>
</g>
<!-- Node16 -->
<g id="node16" class="node">
<title>Node16</title>
<g id="a_node16"><a xlink:href="../../d6/dc0/txfonts_8cpp.html" target="_top" xlink:title=" ">
<polygon fill="none" stroke="black" points="1035.18,-55.5 1035.18,-73.5 1099.54,-73.5 1099.54,-55.5 1035.18,-55.5"/>
<text text-anchor="middle" x="1067.36" y="-61.5" font-family="Helvetica,sans-Serif" font-size="10.00">txfonts.cpp</text>
</a>
</g>
</g>
<!-- Node3&#45;&gt;Node16 -->
<g id="edge15" class="edge">
<title>Node3&#45;&gt;Node16</title>
<path fill="none" stroke="midnightblue" d="M1180.77,-106.95C1153.22,-96.88 1113.95,-82.53 1089.59,-73.63"/>
<polygon fill="midnightblue" stroke="midnightblue" points="1179.75,-110.3 1190.34,-110.45 1182.15,-103.73 1179.75,-110.3"/>
</g>
<!-- Node17 -->
<g id="node17" class="node">
<title>Node17</title>
<g id="a_node17"><a xlink:href="../../d7/d80/txfp_8cpp.html" target="_top" xlink:title=" ">
<polygon fill="none" stroke="black" points="1117.85,-55.5 1117.85,-73.5 1168.87,-73.5 1168.87,-55.5 1117.85,-55.5"/>
<text text-anchor="middle" x="1143.36" y="-61.5" font-family="Helvetica,sans-Serif" font-size="10.00">txfp.cpp</text>
</a>
</g>
</g>
<!-- Node3&#45;&gt;Node17 -->
<g id="edge16" class="edge">
<title>Node3&#45;&gt;Node17</title>
<path fill="none" stroke="midnightblue" d="M1193.76,-104.21C1180.99,-94.41 1164.52,-81.75 1153.94,-73.63"/>
<polygon fill="midnightblue" stroke="midnightblue" points="1191.82,-107.13 1201.88,-110.45 1196.08,-101.58 1191.82,-107.13"/>
</g>
<!-- Node18 -->
<g id="node18" class="node">
<title>Node18</title>
<g id="a_node18"><a xlink:href="../../d0/d1f/txio_8cpp.html" target="_top" xlink:title=" ">
<polygon fill="none" stroke="black" points="1187.13,-55.5 1187.13,-73.5 1237.59,-73.5 1237.59,-55.5 1187.13,-55.5"/>
<text text-anchor="middle" x="1212.36" y="-61.5" font-family="Helvetica,sans-Serif" font-size="10.00">txio.cpp</text>
</a>
</g>
</g>
<!-- Node3&#45;&gt;Node18 -->
<g id="edge17" class="edge">
<title>Node3&#45;&gt;Node18</title>
<path fill="none" stroke="midnightblue" d="M1212.36,-100.17C1212.36,-91.09 1212.36,-80.59 1212.36,-73.55"/>
<polygon fill="midnightblue" stroke="midnightblue" points="1208.86,-100.22 1212.36,-110.22 1215.86,-100.22 1208.86,-100.22"/>
</g>
<!-- Node19 -->
<g id="node19" class="node">
<title>Node19</title>
<g id="a_node19"><a xlink:href="../../d0/dc3/txl3_8cpp.html" target="_top" xlink:title=" ">
<polygon fill="none" stroke="black" points="1255.13,-55.5 1255.13,-73.5 1305.59,-73.5 1305.59,-55.5 1255.13,-55.5"/>
<text text-anchor="middle" x="1280.36" y="-61.5" font-family="Helvetica,sans-Serif" font-size="10.00">txl3.cpp</text>
</a>
</g>
</g>
<!-- Node3&#45;&gt;Node19 -->
<g id="edge18" class="edge">
<title>Node3&#45;&gt;Node19</title>
<path fill="none" stroke="midnightblue" d="M1230.7,-104.21C1243.28,-94.41 1259.52,-81.75 1269.94,-73.63"/>
<polygon fill="midnightblue" stroke="midnightblue" points="1228.43,-101.54 1222.69,-110.45 1232.73,-107.06 1228.43,-101.54"/>
</g>
<!-- Node20 -->
<g id="node20" class="node">
<title>Node20</title>
<g id="a_node20"><a xlink:href="../../d4/dd9/txmath_8cpp.html" target="_top" xlink:title=" ">
<polygon fill="none" stroke="black" points="2268.91,-55.5 2268.91,-73.5 2333.82,-73.5 2333.82,-55.5 2268.91,-55.5"/>
<text text-anchor="middle" x="2301.36" y="-61.5" font-family="Helvetica,sans-Serif" font-size="10.00">txmath.cpp</text>
</a>
</g>
</g>
<!-- Node3&#45;&gt;Node20 -->
<g id="edge19" class="edge">
<title>Node3&#45;&gt;Node20</title>
<path fill="none" stroke="midnightblue" d="M1252.75,-110.09C1697.95,-55.14 1817.55,-126.24 2259.36,-74 2262.47,-73.63 2265.68,-73.16 2268.89,-72.62"/>
<polygon fill="midnightblue" stroke="midnightblue" points="1251.99,-106.66 1242.5,-111.37 1252.86,-113.61 1251.99,-106.66"/>
</g>
<!-- Node21 -->
<g id="node21" class="node">
<title>Node21</title>
<g id="a_node21"><a xlink:href="../../dc/d78/txmath1_8cpp.html" target="_top" xlink:title=" ">
<polygon fill="none" stroke="black" points="2352.13,-55.5 2352.13,-73.5 2422.6,-73.5 2422.6,-55.5 2352.13,-55.5"/>
<text text-anchor="middle" x="2387.36" y="-61.5" font-family="Helvetica,sans-Serif" font-size="10.00">txmath1.cpp</text>
</a>
</g>
</g>
<!-- Node3&#45;&gt;Node21 -->
<g id="edge20" class="edge">
<title>Node3&#45;&gt;Node21</title>
<path fill="none" stroke="midnightblue" d="M1252.51,-110.13C1734.56,-51.14 1863.43,-126.82 2342.36,-74 2345.52,-73.65 2348.8,-73.2 2352.07,-72.7"/>
<polygon fill="midnightblue" stroke="midnightblue" points="1252,-106.66 1242.5,-111.36 1252.86,-113.61 1252,-106.66"/>
</g>
<!-- Node22 -->
<g id="node22" class="node">
<title>Node22</title>
<g id="a_node22"><a xlink:href="../../d9/d59/txmathboot_8cpp.html" target="_top" xlink:title=" ">
<polygon fill="none" stroke="black" points="2440.18,-55.5 2440.18,-73.5 2524.55,-73.5 2524.55,-55.5 2440.18,-55.5"/>
<text text-anchor="middle" x="2482.36" y="-61.5" font-family="Helvetica,sans-Serif" font-size="10.00">txmathboot.cpp</text>
</a>
</g>
</g>
<!-- Node3&#45;&gt;Node22 -->
<g id="edge21" class="edge">
<title>Node3&#45;&gt;Node22</title>
<path fill="none" stroke="midnightblue" d="M1252.54,-110.13C1773.87,-46.86 1912.5,-124.92 2431.36,-74 2434.22,-73.72 2437.16,-73.38 2440.12,-72.99"/>
<polygon fill="midnightblue" stroke="midnightblue" points="1252,-106.67 1242.5,-111.36 1252.85,-113.62 1252,-106.67"/>
</g>
<!-- Node23 -->
<g id="node23" class="node">
<title>Node23</title>
<g id="a_node23"><a xlink:href="../../de/de4/txmlio_8cpp.html" target="_top" xlink:title=" ">
<polygon fill="none" stroke="black" points="1323.86,-55.5 1323.86,-73.5 1384.87,-73.5 1384.87,-55.5 1323.86,-55.5"/>
<text text-anchor="middle" x="1354.36" y="-61.5" font-family="Helvetica,sans-Serif" font-size="10.00">txmlio.cpp</text>
</a>
</g>
</g>
<!-- Node3&#45;&gt;Node23 -->
<g id="edge22" class="edge">
<title>Node3&#45;&gt;Node23</title>
<path fill="none" stroke="midnightblue" d="M1243.3,-106.95C1270.28,-96.88 1308.74,-82.53 1332.59,-73.63"/>
<polygon fill="midnightblue" stroke="midnightblue" points="1242.07,-103.67 1233.93,-110.45 1244.52,-110.23 1242.07,-103.67"/>
</g>
<!-- Node24 -->
<g id="node24" class="node">
<title>Node24</title>
<g id="a_node24"><a xlink:href="../../df/da9/txparser_8cpp.html" target="_top" xlink:title=" ">
<polygon fill="none" stroke="black" points="1403.12,-55.5 1403.12,-73.5 1473.6,-73.5 1473.6,-55.5 1403.12,-55.5"/>
<text text-anchor="middle" x="1438.36" y="-61.5" font-family="Helvetica,sans-Serif" font-size="10.00">txparser.cpp</text>
</a>
</g>
</g>
<!-- Node3&#45;&gt;Node24 -->
<g id="edge23" class="edge">
<title>Node3&#45;&gt;Node24</title>
<path fill="none" stroke="midnightblue" d="M1252.24,-109.15C1295.36,-99.04 1363.39,-83.08 1404.16,-73.52"/>
<polygon fill="midnightblue" stroke="midnightblue" points="1251.31,-105.77 1242.37,-111.46 1252.91,-112.59 1251.31,-105.77"/>
</g>
<!-- Node25 -->
<g id="node25" class="node">
<title>Node25</title>
<g id="a_node25"><a xlink:href="../../da/d5e/txparser2_8h.html" target="_top" xlink:title=" ">
<polygon fill="none" stroke="black" points="1491.35,-55.5 1491.35,-73.5 1557.38,-73.5 1557.38,-55.5 1491.35,-55.5"/>
<text text-anchor="middle" x="1524.36" y="-61.5" font-family="Helvetica,sans-Serif" font-size="10.00">txparser2.h</text>
</a>
</g>
</g>
<!-- Node3&#45;&gt;Node25 -->
<g id="edge24" class="edge">
<title>Node3&#45;&gt;Node25</title>
<path fill="none" stroke="midnightblue" d="M1252.41,-109.9C1355.18,-90.99 1383.18,-91.76 1482.36,-74 1485.15,-73.5 1488.03,-72.96 1490.92,-72.41"/>
<polygon fill="midnightblue" stroke="midnightblue" points="1251.75,-106.46 1242.56,-111.73 1253.03,-113.35 1251.75,-106.46"/>
</g>
<!-- Node27 -->
<g id="node27" class="node">
<title>Node27</title>
<g id="a_node27"><a xlink:href="../../de/da4/txparser3_8cpp.html" target="_top" xlink:title=" ">
<polygon fill="none" stroke="black" points="1575.07,-55.5 1575.07,-73.5 1651.66,-73.5 1651.66,-55.5 1575.07,-55.5"/>
<text text-anchor="middle" x="1613.36" y="-61.5" font-family="Helvetica,sans-Serif" font-size="10.00">txparser3.cpp</text>
</a>
</g>
</g>
<!-- Node3&#45;&gt;Node27 -->
<g id="edge26" class="edge">
<title>Node3&#45;&gt;Node27</title>
<path fill="none" stroke="midnightblue" d="M1252.75,-109.93C1392.15,-87.31 1430.23,-94.07 1566.36,-74 1569.15,-73.59 1572.03,-73.14 1574.92,-72.66"/>
<polygon fill="midnightblue" stroke="midnightblue" points="1251.84,-106.53 1242.54,-111.61 1252.97,-113.44 1251.84,-106.53"/>
</g>
<!-- Node28 -->
<g id="node28" class="node">
<title>Node28</title>
<g id="a_node28"><a xlink:href="../../d6/d4a/txpost_8cpp.html" target="_top" xlink:title=" ">
<polygon fill="none" stroke="black" points="1669.57,-55.5 1669.57,-73.5 1731.15,-73.5 1731.15,-55.5 1669.57,-55.5"/>
<text text-anchor="middle" x="1700.36" y="-61.5" font-family="Helvetica,sans-Serif" font-size="10.00">txpost.cpp</text>
</a>
</g>
</g>
<!-- Node3&#45;&gt;Node28 -->
<g id="edge27" class="edge">
<title>Node3&#45;&gt;Node28</title>
<path fill="none" stroke="midnightblue" d="M1252.65,-110C1433.54,-83.17 1483.15,-100.53 1660.36,-74 1663.31,-73.56 1666.37,-73.03 1669.42,-72.46"/>
<polygon fill="midnightblue" stroke="midnightblue" points="1251.89,-106.58 1242.53,-111.53 1252.94,-113.5 1251.89,-106.58"/>
</g>
<!-- Node29 -->
<g id="node29" class="node">
<title>Node29</title>
<g id="a_node29"><a xlink:href="../../d3/dd3/txra_8cpp.html" target="_top" xlink:title=" ">
<polygon fill="none" stroke="black" points="1749.58,-55.5 1749.58,-73.5 1801.15,-73.5 1801.15,-55.5 1749.58,-55.5"/>
<text text-anchor="middle" x="1775.36" y="-61.5" font-family="Helvetica,sans-Serif" font-size="10.00">txra.cpp</text>
</a>
</g>
</g>
<!-- Node3&#45;&gt;Node29 -->
<g id="edge28" class="edge">
<title>Node3&#45;&gt;Node29</title>
<path fill="none" stroke="midnightblue" d="M1252.6,-110.04C1468.82,-79.59 1528.34,-107.32 1740.36,-74 1743.33,-73.53 1746.41,-72.94 1749.46,-72.29"/>
<polygon fill="midnightblue" stroke="midnightblue" points="1251.92,-106.6 1242.52,-111.49 1252.92,-113.53 1251.92,-106.6"/>
</g>
<!-- Node30 -->
<g id="node30" class="node">
<title>Node30</title>
<g id="a_node30"><a xlink:href="../../df/d8f/txscan_8cpp.html" target="_top" xlink:title=" ">
<polygon fill="none" stroke="black" points="2542.46,-55.5 2542.46,-73.5 2606.26,-73.5 2606.26,-55.5 2542.46,-55.5"/>
<text text-anchor="middle" x="2574.36" y="-61.5" font-family="Helvetica,sans-Serif" font-size="10.00">txscan.cpp</text>
</a>
</g>
</g>
<!-- Node3&#45;&gt;Node30 -->
<g id="edge29" class="edge">
<title>Node3&#45;&gt;Node30</title>
<path fill="none" stroke="midnightblue" d="M1252.56,-110.13C1818.95,-42.16 1970.52,-139.72 2533.36,-74 2536.25,-73.66 2539.24,-73.22 2542.22,-72.72"/>
<polygon fill="midnightblue" stroke="midnightblue" points="1252.01,-106.67 1242.5,-111.35 1252.85,-113.62 1252.01,-106.67"/>
</g>
<!-- Node31 -->
<g id="node31" class="node">
<title>Node31</title>
<g id="a_node31"><a xlink:href="../../d5/dbc/txstack_8cpp.html" target="_top" xlink:title=" ">
<polygon fill="none" stroke="black" points="1819.35,-55.5 1819.35,-73.5 1885.37,-73.5 1885.37,-55.5 1819.35,-55.5"/>
<text text-anchor="middle" x="1852.36" y="-61.5" font-family="Helvetica,sans-Serif" font-size="10.00">txstack.cpp</text>
</a>
</g>
</g>
<!-- Node3&#45;&gt;Node31 -->
<g id="edge30" class="edge">
<title>Node3&#45;&gt;Node31</title>
<path fill="none" stroke="midnightblue" d="M1252.52,-110.07C1499.67,-76.21 1566.82,-106.33 1810.36,-74 1813.17,-73.63 1816.06,-73.18 1818.96,-72.68"/>
<polygon fill="midnightblue" stroke="midnightblue" points="1251.94,-106.61 1242.52,-111.46 1252.9,-113.55 1251.94,-106.61"/>
</g>
<!-- Node32 -->
<g id="node32" class="node">
<title>Node32</title>
<g id="a_node32"><a xlink:href="../../d1/dc8/txtitlepage_8cpp.html" target="_top" xlink:title=" ">
<polygon fill="none" stroke="black" points="1903.12,-55.5 1903.12,-73.5 1983.61,-73.5 1983.61,-55.5 1903.12,-55.5"/>
<text text-anchor="middle" x="1943.36" y="-61.5" font-family="Helvetica,sans-Serif" font-size="10.00">txtitlepage.cpp</text>
</a>
</g>
</g>
<!-- Node3&#45;&gt;Node32 -->
<g id="edge31" class="edge">
<title>Node3&#45;&gt;Node32</title>
<path fill="none" stroke="midnightblue" d="M1252.71,-110.06C1536.76,-72.22 1613.32,-106.13 1894.36,-74 1897.19,-73.68 1900.11,-73.29 1903.04,-72.88"/>
<polygon fill="midnightblue" stroke="midnightblue" points="1251.95,-106.63 1242.51,-111.43 1252.89,-113.56 1251.95,-106.63"/>
</g>
<!-- Node33 -->
<g id="node33" class="node">
<title>Node33</title>
<g id="a_node33"><a xlink:href="../../d7/d6c/txtoken_8cpp.html" target="_top" xlink:title=" ">
<polygon fill="none" stroke="black" points="2001.79,-55.5 2001.79,-73.5 2068.93,-73.5 2068.93,-55.5 2001.79,-55.5"/>
<text text-anchor="middle" x="2035.36" y="-61.5" font-family="Helvetica,sans-Serif" font-size="10.00">txtoken.cpp</text>
</a>
</g>
</g>
<!-- Node3&#45;&gt;Node33 -->
<g id="edge32" class="edge">
<title>Node3&#45;&gt;Node33</title>
<path fill="none" stroke="midnightblue" d="M1252.76,-110.07C1580.04,-67.71 1668.44,-113.67 1992.36,-74 1995.38,-73.63 1998.51,-73.17 2001.64,-72.65"/>
<polygon fill="midnightblue" stroke="midnightblue" points="1251.97,-106.64 1242.51,-111.41 1252.88,-113.58 1251.97,-106.64"/>
</g>
<!-- Node34 -->
<g id="node34" class="node">
<title>Node34</title>
<g id="a_node34"><a xlink:href="../../dd/da4/txtranslate_8cpp.html" target="_top" xlink:title=" ">
<polygon fill="none" stroke="black" points="2086.85,-55.5 2086.85,-73.5 2167.88,-73.5 2167.88,-55.5 2086.85,-55.5"/>
<text text-anchor="middle" x="2127.36" y="-61.5" font-family="Helvetica,sans-Serif" font-size="10.00">txtranslate.cpp</text>
</a>
</g>
</g>
<!-- Node3&#45;&gt;Node34 -->
<g id="edge33" class="edge">
<title>Node3&#45;&gt;Node34</title>
<path fill="none" stroke="midnightblue" d="M1252.57,-110.1C1617.97,-63.57 1715.89,-113.16 2078.36,-74 2081.11,-73.7 2083.94,-73.35 2086.78,-72.95"/>
<polygon fill="midnightblue" stroke="midnightblue" points="1251.98,-106.65 1242.51,-111.4 1252.87,-113.59 1251.98,-106.65"/>
</g>
<!-- Node35 -->
<g id="node35" class="node">
<title>Node35</title>
<g id="a_node35"><a xlink:href="../../d0/d93/txtrees_8cpp.html" target="_top" xlink:title=" ">
<polygon fill="none" stroke="black" points="2185.91,-55.5 2185.91,-73.5 2250.82,-73.5 2250.82,-55.5 2185.91,-55.5"/>
<text text-anchor="middle" x="2218.36" y="-61.5" font-family="Helvetica,sans-Serif" font-size="10.00">txtrees.cpp</text>
</a>
</g>
</g>
<!-- Node3&#45;&gt;Node35 -->
<g id="edge34" class="edge">
<title>Node3&#45;&gt;Node35</title>
<path fill="none" stroke="midnightblue" d="M1252.53,-110.11C1661.7,-59 1771.83,-123.57 2177.36,-74 2180.1,-73.66 2182.94,-73.24 2185.77,-72.76"/>
<polygon fill="midnightblue" stroke="midnightblue" points="1251.99,-106.66 1242.51,-111.38 1252.87,-113.6 1251.99,-106.66"/>
</g>
<!-- Node26 -->
<g id="node26" class="node">
<title>Node26</title>
<g id="a_node26"><a xlink:href="../../d0/d24/txparser2_8cpp.html" target="_top" xlink:title=" ">
<polygon fill="none" stroke="black" points="1486.07,-0.5 1486.07,-18.5 1562.66,-18.5 1562.66,-0.5 1486.07,-0.5"/>
<text text-anchor="middle" x="1524.36" y="-6.5" font-family="Helvetica,sans-Serif" font-size="10.00">txparser2.cpp</text>
</a>
</g>
</g>
<!-- Node25&#45;&gt;Node26 -->
<g id="edge25" class="edge">
<title>Node25&#45;&gt;Node26</title>
<path fill="none" stroke="midnightblue" d="M1524.36,-45.17C1524.36,-36.09 1524.36,-25.59 1524.36,-18.55"/>
<polygon fill="midnightblue" stroke="midnightblue" points="1520.86,-45.22 1524.36,-55.22 1527.86,-45.22 1520.86,-45.22"/>
</g>
<!-- Node36&#45;&gt;Node8 -->
<g id="edge36" class="edge">
<title>Node36&#45;&gt;Node8</title>
<path fill="none" stroke="midnightblue" d="M99.99,-105.33C83.11,-95.39 60.48,-82.06 46.16,-73.63"/>
<polygon fill="midnightblue" stroke="midnightblue" points="98.3,-108.39 108.69,-110.45 101.85,-102.36 98.3,-108.39"/>
</g>
<!-- Node38&#45;&gt;Node10 -->
<g id="edge40" class="edge">
<title>Node38&#45;&gt;Node10</title>
<path fill="none" stroke="midnightblue" d="M179.5,-105.33C162.24,-95.39 139.11,-82.06 124.47,-73.63"/>
<polygon fill="midnightblue" stroke="midnightblue" points="177.98,-108.49 188.39,-110.45 181.47,-102.43 177.98,-108.49"/>
</g>
<!-- Node38&#45;&gt;Node13 -->
<g id="edge41" class="edge">
<title>Node38&#45;&gt;Node13</title>
<path fill="none" stroke="midnightblue" d="M202.36,-100.17C202.36,-91.09 202.36,-80.59 202.36,-73.55"/>
<polygon fill="midnightblue" stroke="midnightblue" points="198.86,-100.22 202.36,-110.22 205.86,-100.22 198.86,-100.22"/>
</g>
<!-- Node39&#45;&gt;Node20 -->
<g id="edge43" class="edge">
<title>Node39&#45;&gt;Node20</title>
<path fill="none" stroke="midnightblue" d="M2365.54,-105.05C2349.46,-95.14 2328.11,-81.98 2314.55,-73.63"/>
<polygon fill="midnightblue" stroke="midnightblue" points="2363.95,-108.18 2374.3,-110.45 2367.62,-102.22 2363.95,-108.18"/>
</g>
<!-- Node39&#45;&gt;Node21 -->
<g id="edge44" class="edge">
<title>Node39&#45;&gt;Node21</title>
<path fill="none" stroke="midnightblue" d="M2387.36,-100.17C2387.36,-91.09 2387.36,-80.59 2387.36,-73.55"/>
<polygon fill="midnightblue" stroke="midnightblue" points="2383.86,-100.22 2387.36,-110.22 2390.86,-100.22 2383.86,-100.22"/>
</g>
<!-- Node39&#45;&gt;Node22 -->
<g id="edge45" class="edge">
<title>Node39&#45;&gt;Node22</title>
<path fill="none" stroke="midnightblue" d="M2410.97,-105.33C2428.79,-95.39 2452.68,-82.06 2467.8,-73.63"/>
<polygon fill="midnightblue" stroke="midnightblue" points="2408.82,-102.52 2401.79,-110.45 2412.23,-108.63 2408.82,-102.52"/>
</g>
<!-- Node39&#45;&gt;Node30 -->
<g id="edge46" class="edge">
<title>Node39&#45;&gt;Node30</title>
<path fill="none" stroke="midnightblue" d="M2424.58,-107.95C2460.3,-97.83 2513.47,-82.76 2545.91,-73.56"/>
<polygon fill="midnightblue" stroke="midnightblue" points="2423.22,-104.7 2414.55,-110.79 2425.13,-111.43 2423.22,-104.7"/>
</g>
</g>
</svg>
