<?xml version="1.0" encoding="UTF-8" standalone="no"?>
<!DOCTYPE svg PUBLIC "-//W3C//DTD SVG 1.1//EN"
 "http://www.w3.org/Graphics/SVG/1.1/DTD/svg11.dtd">
<!-- Generated by graphviz version 2.43.0 (0)
 -->
<!-- Title: txfp.C Pages: 1 -->
<svg width="668pt" height="742pt"
 viewBox="0.00 0.00 667.62 742.00" xmlns="http://www.w3.org/2000/svg" xmlns:xlink="http://www.w3.org/1999/xlink">
<g id="graph0" class="graph" transform="scale(1 1) rotate(0) translate(4 738)">
<title>txfp.C</title>
<polygon fill="white" stroke="transparent" points="-4,4 -4,-738 663.62,-738 663.62,4 -4,4"/>
<!-- Node1 -->
<g id="node1" class="node">
<title>Node1</title>
<g id="a_node1"><a xlink:title=" ">
<polygon fill="#bfbfbf" stroke="black" points="315.94,-715.5 315.94,-733.5 358.06,-733.5 358.06,-715.5 315.94,-715.5"/>
<text text-anchor="middle" x="337" y="-721.5" font-family="Helvetica,sans-Serif" font-size="10.00">txfp.C</text>
</a>
</g>
</g>
<!-- Node2 -->
<g id="node2" class="node">
<title>Node2</title>
<g id="a_node2"><a xlink:href="../../d0/de6/txfp_8h.html" target="_top" xlink:title=" ">
<polygon fill="white" stroke="black" points="150.77,-330.5 150.77,-348.5 191.23,-348.5 191.23,-330.5 150.77,-330.5"/>
<text text-anchor="middle" x="171" y="-336.5" font-family="Helvetica,sans-Serif" font-size="10.00">txfp.h</text>
</a>
</g>
</g>
<!-- Node1&#45;&gt;Node2 -->
<g id="edge1" class="edge">
<title>Node1&#45;&gt;Node2</title>
<path fill="none" stroke="midnightblue" d="M315.92,-721.39C242.14,-713.41 0,-682.16 0,-615.5 0,-615.5 0,-615.5 0,-448.5 0,-382.75 91.5,-355.4 140.63,-345.46"/>
<polygon fill="midnightblue" stroke="midnightblue" points="141.54,-348.85 150.71,-343.54 140.23,-341.97 141.54,-348.85"/>
</g>
<!-- Node13 -->
<g id="node13" class="node">
<title>Node13</title>
<g id="a_node13"><a xlink:href="../../d7/d79/txinline_8h.html" target="_top" xlink:title=" ">
<polygon fill="white" stroke="black" points="157.27,-660.5 157.27,-678.5 212.73,-678.5 212.73,-660.5 157.27,-660.5"/>
<text text-anchor="middle" x="185" y="-666.5" font-family="Helvetica,sans-Serif" font-size="10.00">txinline.h</text>
</a>
</g>
</g>
<!-- Node1&#45;&gt;Node13 -->
<g id="edge13" class="edge">
<title>Node1&#45;&gt;Node13</title>
<path fill="none" stroke="midnightblue" d="M315.87,-716.13C290.43,-707.26 247.45,-692.28 217.72,-681.91"/>
<polygon fill="midnightblue" stroke="midnightblue" points="218.79,-678.58 208.19,-678.59 216.48,-685.18 218.79,-678.58"/>
</g>
<!-- Node31 -->
<g id="node31" class="node">
<title>Node31</title>
<g id="a_node31"><a xlink:href="../../d2/d1b/txparser_8h.html" target="_top" xlink:title=" ">
<polygon fill="white" stroke="black" points="411.04,-660.5 411.04,-678.5 470.96,-678.5 470.96,-660.5 411.04,-660.5"/>
<text text-anchor="middle" x="441" y="-666.5" font-family="Helvetica,sans-Serif" font-size="10.00">txparser.h</text>
</a>
</g>
</g>
<!-- Node1&#45;&gt;Node31 -->
<g id="edge40" class="edge">
<title>Node1&#45;&gt;Node31</title>
<path fill="none" stroke="midnightblue" d="M352.8,-715.45C369.59,-706.89 396.4,-693.23 416.06,-683.21"/>
<polygon fill="midnightblue" stroke="midnightblue" points="417.74,-686.28 425.06,-678.63 414.56,-680.05 417.74,-686.28"/>
</g>
<!-- Node41 -->
<g id="node41" class="node">
<title>Node41</title>
<g id="a_node41"><a xlink:title=" ">
<polygon fill="white" stroke="#bfbfbf" points="489.33,-660.5 489.33,-678.5 558.67,-678.5 558.67,-660.5 489.33,-660.5"/>
<text text-anchor="middle" x="524" y="-666.5" font-family="Helvetica,sans-Serif" font-size="10.00">fmt/format.h</text>
</a>
</g>
</g>
<!-- Node1&#45;&gt;Node41 -->
<g id="edge57" class="edge">
<title>Node1&#45;&gt;Node41</title>
<path fill="none" stroke="midnightblue" d="M358.09,-717.52C389.04,-708.75 447.27,-692.25 485.85,-681.31"/>
<polygon fill="midnightblue" stroke="midnightblue" points="487.02,-684.62 495.69,-678.52 485.12,-677.88 487.02,-684.62"/>
</g>
<!-- Node3 -->
<g id="node3" class="node">
<title>Node3</title>
<g id="a_node3"><a xlink:href="../../dd/dcd/_token_8h.html" target="_top" xlink:title=" ">
<polygon fill="white" stroke="black" points="131.04,-275.5 131.04,-293.5 210.96,-293.5 210.96,-275.5 131.04,-275.5"/>
<text text-anchor="middle" x="171" y="-281.5" font-family="Helvetica,sans-Serif" font-size="10.00">tralics/Token.h</text>
</a>
</g>
</g>
<!-- Node2&#45;&gt;Node3 -->
<g id="edge2" class="edge">
<title>Node2&#45;&gt;Node3</title>
<path fill="none" stroke="midnightblue" d="M171,-330.22C171,-323.18 171,-312.81 171,-303.83"/>
<polygon fill="midnightblue" stroke="midnightblue" points="174.5,-303.55 171,-293.55 167.5,-303.55 174.5,-303.55"/>
</g>
<!-- Node12 -->
<g id="node12" class="node">
<title>Node12</title>
<g id="a_node12"><a xlink:title=" ">
<polygon fill="white" stroke="#bfbfbf" points="238.61,-220.5 238.61,-238.5 277.39,-238.5 277.39,-220.5 238.61,-220.5"/>
<text text-anchor="middle" x="258" y="-226.5" font-family="Helvetica,sans-Serif" font-size="10.00">array</text>
</a>
</g>
</g>
<!-- Node2&#45;&gt;Node12 -->
<g id="edge12" class="edge">
<title>Node2&#45;&gt;Node12</title>
<path fill="none" stroke="midnightblue" d="M181.59,-330.42C192.12,-322.05 208.35,-308.22 220,-294 231.81,-279.59 242.43,-261.12 249.43,-247.83"/>
<polygon fill="midnightblue" stroke="midnightblue" points="252.6,-249.31 254.02,-238.82 246.36,-246.13 252.6,-249.31"/>
</g>
<!-- Node4 -->
<g id="node4" class="node">
<title>Node4</title>
<g id="a_node4"><a xlink:href="../../d2/d68/_cmd_chr_8h.html" target="_top" xlink:title=" ">
<polygon fill="white" stroke="black" points="159.49,-220.5 159.49,-238.5 220.51,-238.5 220.51,-220.5 159.49,-220.5"/>
<text text-anchor="middle" x="190" y="-226.5" font-family="Helvetica,sans-Serif" font-size="10.00">CmdChr.h</text>
</a>
</g>
</g>
<!-- Node3&#45;&gt;Node4 -->
<g id="edge3" class="edge">
<title>Node3&#45;&gt;Node4</title>
<path fill="none" stroke="midnightblue" d="M173.97,-275.22C176.55,-268.02 180.38,-257.35 183.64,-248.23"/>
<polygon fill="midnightblue" stroke="midnightblue" points="187.03,-249.14 187.11,-238.55 180.44,-246.78 187.03,-249.14"/>
</g>
<!-- Node11 -->
<g id="node11" class="node">
<title>Node11</title>
<g id="a_node11"><a xlink:title=" ">
<polygon fill="white" stroke="#bfbfbf" points="112.5,-220.5 112.5,-238.5 141.5,-238.5 141.5,-220.5 112.5,-220.5"/>
<text text-anchor="middle" x="126.61" y="-226.5" font-family="Helvetica,sans-Serif" font-size="10.00">list</text>
</a>
</g>
</g>
<!-- Node3&#45;&gt;Node11 -->
<g id="edge11" class="edge">
<title>Node3&#45;&gt;Node11</title>
<path fill="none" stroke="midnightblue" d="M164.12,-275.22C157.76,-267.55 148.12,-255.94 140.26,-246.47"/>
<polygon fill="midnightblue" stroke="midnightblue" points="142.76,-244.01 133.68,-238.55 137.38,-248.48 142.76,-244.01"/>
</g>
<!-- Node5 -->
<g id="node5" class="node">
<title>Node5</title>
<g id="a_node5"><a xlink:href="../../d8/d47/codepoint_8h.html" target="_top" xlink:title=" ">
<polygon fill="white" stroke="black" points="183.15,-110.5 183.15,-128.5 250.85,-128.5 250.85,-110.5 183.15,-110.5"/>
<text text-anchor="middle" x="217" y="-116.5" font-family="Helvetica,sans-Serif" font-size="10.00">codepoint.h</text>
</a>
</g>
</g>
<!-- Node4&#45;&gt;Node5 -->
<g id="edge4" class="edge">
<title>Node4&#45;&gt;Node5</title>
<path fill="none" stroke="midnightblue" d="M192.03,-220.38C196.35,-203.1 206.54,-162.33 212.48,-138.56"/>
<polygon fill="midnightblue" stroke="midnightblue" points="215.92,-139.26 214.95,-128.71 209.13,-137.56 215.92,-139.26"/>
</g>
<!-- Node9 -->
<g id="node9" class="node">
<title>Node9</title>
<g id="a_node9"><a xlink:href="../../d0/d0b/enums_8h.html" target="_top" xlink:title=" ">
<polygon fill="white" stroke="black" points="274.82,-165.5 274.82,-183.5 329.18,-183.5 329.18,-165.5 274.82,-165.5"/>
<text text-anchor="middle" x="302" y="-171.5" font-family="Helvetica,sans-Serif" font-size="10.00">enums.h</text>
</a>
</g>
</g>
<!-- Node4&#45;&gt;Node9 -->
<g id="edge8" class="edge">
<title>Node4&#45;&gt;Node9</title>
<path fill="none" stroke="midnightblue" d="M207.01,-220.45C225.27,-211.81 254.49,-197.98 275.71,-187.94"/>
<polygon fill="midnightblue" stroke="midnightblue" points="277.29,-191.07 284.83,-183.63 274.29,-184.74 277.29,-191.07"/>
</g>
<!-- Node6 -->
<g id="node6" class="node">
<title>Node6</title>
<g id="a_node6"><a xlink:href="../../d9/d49/types_8h.html" target="_top" xlink:title=" ">
<polygon fill="white" stroke="black" points="231.88,-55.5 231.88,-73.5 280.12,-73.5 280.12,-55.5 231.88,-55.5"/>
<text text-anchor="middle" x="256" y="-61.5" font-family="Helvetica,sans-Serif" font-size="10.00">types.h</text>
</a>
</g>
</g>
<!-- Node5&#45;&gt;Node6 -->
<g id="edge5" class="edge">
<title>Node5&#45;&gt;Node6</title>
<path fill="none" stroke="midnightblue" d="M223.09,-110.22C228.68,-102.63 237.11,-91.18 244.04,-81.76"/>
<polygon fill="midnightblue" stroke="midnightblue" points="246.97,-83.68 250.08,-73.55 241.33,-79.53 246.97,-83.68"/>
</g>
<!-- Node7 -->
<g id="node7" class="node">
<title>Node7</title>
<g id="a_node7"><a xlink:title=" ">
<polygon fill="white" stroke="#bfbfbf" points="195.88,-0.5 195.88,-18.5 244.12,-18.5 244.12,-0.5 195.88,-0.5"/>
<text text-anchor="middle" x="220" y="-6.5" font-family="Helvetica,sans-Serif" font-size="10.00">cassert</text>
</a>
</g>
</g>
<!-- Node6&#45;&gt;Node7 -->
<g id="edge6" class="edge">
<title>Node6&#45;&gt;Node7</title>
<path fill="none" stroke="midnightblue" d="M250.38,-55.22C245.27,-47.71 237.6,-36.41 231.24,-27.05"/>
<polygon fill="midnightblue" stroke="midnightblue" points="233.98,-24.86 225.47,-18.55 228.19,-28.79 233.98,-24.86"/>
</g>
<!-- Node8 -->
<g id="node8" class="node">
<title>Node8</title>
<g id="a_node8"><a xlink:title=" ">
<polygon fill="white" stroke="#bfbfbf" points="261.93,-0.5 261.93,-18.5 324.07,-18.5 324.07,-0.5 261.93,-0.5"/>
<text text-anchor="middle" x="293" y="-6.5" font-family="Helvetica,sans-Serif" font-size="10.00">type_traits</text>
</a>
</g>
</g>
<!-- Node6&#45;&gt;Node8 -->
<g id="edge7" class="edge">
<title>Node6&#45;&gt;Node8</title>
<path fill="none" stroke="midnightblue" d="M261.78,-55.22C267.08,-47.63 275.08,-36.18 281.65,-26.76"/>
<polygon fill="midnightblue" stroke="midnightblue" points="284.53,-28.75 287.38,-18.55 278.79,-24.75 284.53,-28.75"/>
</g>
<!-- Node10 -->
<g id="node10" class="node">
<title>Node10</title>
<g id="a_node10"><a xlink:href="../../d8/db5/consts_8h.html" target="_top" xlink:title=" ">
<polygon fill="white" stroke="black" points="273.38,-110.5 273.38,-128.5 326.62,-128.5 326.62,-110.5 273.38,-110.5"/>
<text text-anchor="middle" x="300" y="-116.5" font-family="Helvetica,sans-Serif" font-size="10.00">consts.h</text>
</a>
</g>
</g>
<!-- Node9&#45;&gt;Node10 -->
<g id="edge9" class="edge">
<title>Node9&#45;&gt;Node10</title>
<path fill="none" stroke="midnightblue" d="M301.69,-165.22C301.42,-158.18 301.03,-147.81 300.69,-138.83"/>
<polygon fill="midnightblue" stroke="midnightblue" points="304.18,-138.41 300.3,-128.55 297.18,-138.67 304.18,-138.41"/>
</g>
<!-- Node10&#45;&gt;Node6 -->
<g id="edge10" class="edge">
<title>Node10&#45;&gt;Node6</title>
<path fill="none" stroke="midnightblue" d="M293.12,-110.22C286.76,-102.55 277.12,-90.94 269.26,-81.47"/>
<polygon fill="midnightblue" stroke="midnightblue" points="271.76,-79.01 262.68,-73.55 266.38,-83.48 271.76,-79.01"/>
</g>
<!-- Node14 -->
<g id="node14" class="node">
<title>Node14</title>
<g id="a_node14"><a xlink:href="../../d4/de9/_main_class_8h.html" target="_top" xlink:title=" ">
<polygon fill="white" stroke="black" points="184.04,-605.5 184.04,-623.5 283.96,-623.5 283.96,-605.5 184.04,-605.5"/>
<text text-anchor="middle" x="234" y="-611.5" font-family="Helvetica,sans-Serif" font-size="10.00">tralics/MainClass.h</text>
</a>
</g>
</g>
<!-- Node13&#45;&gt;Node14 -->
<g id="edge14" class="edge">
<title>Node13&#45;&gt;Node14</title>
<path fill="none" stroke="midnightblue" d="M192.66,-660.22C199.82,-652.47 210.7,-640.7 219.5,-631.18"/>
<polygon fill="midnightblue" stroke="midnightblue" points="222.34,-633.27 226.56,-623.55 217.2,-628.52 222.34,-633.27"/>
</g>
<!-- Node28 -->
<g id="node28" class="node">
<title>Node28</title>
<g id="a_node28"><a xlink:href="../../d2/d06/txlogger_8h.html" target="_top" xlink:title=" ">
<polygon fill="white" stroke="black" points="28.32,-605.5 28.32,-623.5 87.68,-623.5 87.68,-605.5 28.32,-605.5"/>
<text text-anchor="middle" x="58" y="-611.5" font-family="Helvetica,sans-Serif" font-size="10.00">txlogger.h</text>
</a>
</g>
</g>
<!-- Node13&#45;&gt;Node28 -->
<g id="edge35" class="edge">
<title>Node13&#45;&gt;Node28</title>
<path fill="none" stroke="midnightblue" d="M165.71,-660.45C144.73,-651.7 110.97,-637.61 86.84,-627.53"/>
<polygon fill="midnightblue" stroke="midnightblue" points="88.05,-624.25 77.47,-623.63 85.35,-630.71 88.05,-624.25"/>
</g>
<!-- Node30 -->
<g id="node30" class="node">
<title>Node30</title>
<g id="a_node30"><a xlink:href="../../d5/d08/txparam_8h.html" target="_top" xlink:title=" ">
<polygon fill="white" stroke="black" points="105.77,-605.5 105.77,-623.5 166.23,-623.5 166.23,-605.5 105.77,-605.5"/>
<text text-anchor="middle" x="136" y="-611.5" font-family="Helvetica,sans-Serif" font-size="10.00">txparam.h</text>
</a>
</g>
</g>
<!-- Node13&#45;&gt;Node30 -->
<g id="edge38" class="edge">
<title>Node13&#45;&gt;Node30</title>
<path fill="none" stroke="midnightblue" d="M177.34,-660.22C170.18,-652.47 159.3,-640.7 150.5,-631.18"/>
<polygon fill="midnightblue" stroke="midnightblue" points="152.8,-628.52 143.44,-623.55 147.66,-633.27 152.8,-628.52"/>
</g>
<!-- Node15 -->
<g id="node15" class="node">
<title>Node15</title>
<g id="a_node15"><a xlink:href="../../de/d29/txio_8h.html" target="_top" xlink:title=" ">
<polygon fill="white" stroke="black" points="157.88,-550.5 157.88,-568.5 206.12,-568.5 206.12,-550.5 157.88,-550.5"/>
<text text-anchor="middle" x="182" y="-556.5" font-family="Helvetica,sans-Serif" font-size="10.00">../txio.h</text>
</a>
</g>
</g>
<!-- Node14&#45;&gt;Node15 -->
<g id="edge15" class="edge">
<title>Node14&#45;&gt;Node15</title>
<path fill="none" stroke="midnightblue" d="M225.88,-605.22C218.2,-597.39 206.49,-585.46 197.1,-575.89"/>
<polygon fill="midnightblue" stroke="midnightblue" points="199.4,-573.24 189.9,-568.55 194.4,-578.14 199.4,-573.24"/>
</g>
<!-- Node27 -->
<g id="node27" class="node">
<title>Node27</title>
<g id="a_node27"><a xlink:href="../../dc/def/txstring_8h.html" target="_top" xlink:title=" ">
<polygon fill="white" stroke="black" points="324.55,-495.5 324.55,-513.5 389.45,-513.5 389.45,-495.5 324.55,-495.5"/>
<text text-anchor="middle" x="357" y="-501.5" font-family="Helvetica,sans-Serif" font-size="10.00">../txstring.h</text>
</a>
</g>
</g>
<!-- Node14&#45;&gt;Node27 -->
<g id="edge33" class="edge">
<title>Node14&#45;&gt;Node27</title>
<path fill="none" stroke="midnightblue" d="M234.29,-605.44C235.18,-592.25 238.75,-565.97 253,-550 269.03,-532.04 293.55,-521.07 314.76,-514.53"/>
<polygon fill="midnightblue" stroke="midnightblue" points="315.89,-517.84 324.54,-511.74 313.97,-511.11 315.89,-517.84"/>
</g>
<!-- Node16 -->
<g id="node16" class="node">
<title>Node16</title>
<g id="a_node16"><a xlink:href="../../dd/d74/txbuffer_8h.html" target="_top" xlink:title=" ">
<polygon fill="white" stroke="black" points="328.52,-440.5 328.52,-458.5 385.48,-458.5 385.48,-440.5 328.52,-440.5"/>
<text text-anchor="middle" x="357" y="-446.5" font-family="Helvetica,sans-Serif" font-size="10.00">txbuffer.h</text>
</a>
</g>
</g>
<!-- Node15&#45;&gt;Node16 -->
<g id="edge16" class="edge">
<title>Node15&#45;&gt;Node16</title>
<path fill="none" stroke="midnightblue" d="M195.15,-550.38C225.05,-531.93 298.36,-486.69 335.17,-463.97"/>
<polygon fill="midnightblue" stroke="midnightblue" points="337.02,-466.94 343.69,-458.71 333.35,-460.99 337.02,-466.94"/>
</g>
<!-- Node26 -->
<g id="node26" class="node">
<title>Node26</title>
<g id="a_node26"><a xlink:title=" ">
<polygon fill="white" stroke="#bfbfbf" points="95.33,-495.5 95.33,-513.5 144.67,-513.5 144.67,-495.5 95.33,-495.5"/>
<text text-anchor="middle" x="120" y="-501.5" font-family="Helvetica,sans-Serif" font-size="10.00">fstream</text>
</a>
</g>
</g>
<!-- Node15&#45;&gt;Node26 -->
<g id="edge32" class="edge">
<title>Node15&#45;&gt;Node26</title>
<path fill="none" stroke="midnightblue" d="M172.58,-550.45C163.21,-542.43 148.6,-529.95 137.16,-520.17"/>
<polygon fill="midnightblue" stroke="midnightblue" points="139.38,-517.46 129.51,-513.63 134.83,-522.78 139.38,-517.46"/>
</g>
<!-- Node17 -->
<g id="node17" class="node">
<title>Node17</title>
<g id="a_node17"><a xlink:href="../../d1/d9e/txid_8h.html" target="_top" xlink:title=" ">
<polygon fill="white" stroke="black" points="405.05,-330.5 405.05,-348.5 444.95,-348.5 444.95,-330.5 405.05,-330.5"/>
<text text-anchor="middle" x="425" y="-336.5" font-family="Helvetica,sans-Serif" font-size="10.00">txid.h</text>
</a>
</g>
</g>
<!-- Node16&#45;&gt;Node17 -->
<g id="edge17" class="edge">
<title>Node16&#45;&gt;Node17</title>
<path fill="none" stroke="midnightblue" d="M365.85,-440.31C374.61,-431.85 387.98,-417.96 397,-404 406.3,-389.61 413.91,-371.62 418.83,-358.46"/>
<polygon fill="midnightblue" stroke="midnightblue" points="422.24,-359.33 422.32,-348.73 415.65,-356.97 422.24,-359.33"/>
</g>
<!-- Node20 -->
<g id="node20" class="node">
<title>Node20</title>
<g id="a_node20"><a xlink:href="../../d9/d18/txscaled_8h.html" target="_top" xlink:title=" ">
<polygon fill="white" stroke="black" points="326.49,-385.5 326.49,-403.5 387.51,-403.5 387.51,-385.5 326.49,-385.5"/>
<text text-anchor="middle" x="357" y="-391.5" font-family="Helvetica,sans-Serif" font-size="10.00">txscaled.h</text>
</a>
</g>
</g>
<!-- Node16&#45;&gt;Node20 -->
<g id="edge22" class="edge">
<title>Node16&#45;&gt;Node20</title>
<path fill="none" stroke="midnightblue" d="M357,-440.22C357,-433.18 357,-422.81 357,-413.83"/>
<polygon fill="midnightblue" stroke="midnightblue" points="360.5,-413.55 357,-403.55 353.5,-413.55 360.5,-413.55"/>
</g>
<!-- Node24 -->
<g id="node24" class="node">
<title>Node24</title>
<g id="a_node24"><a xlink:title=" ">
<polygon fill="white" stroke="#bfbfbf" points="263.27,-385.5 263.27,-403.5 308.73,-403.5 308.73,-385.5 263.27,-385.5"/>
<text text-anchor="middle" x="286" y="-391.5" font-family="Helvetica,sans-Serif" font-size="10.00">cstring</text>
</a>
</g>
</g>
<!-- Node16&#45;&gt;Node24 -->
<g id="edge30" class="edge">
<title>Node16&#45;&gt;Node24</title>
<path fill="none" stroke="midnightblue" d="M346.22,-440.45C335.37,-432.36 318.42,-419.7 305.27,-409.88"/>
<polygon fill="midnightblue" stroke="midnightblue" points="306.99,-406.8 296.88,-403.63 302.8,-412.41 306.99,-406.8"/>
</g>
<!-- Node25 -->
<g id="node25" class="node">
<title>Node25</title>
<g id="a_node25"><a xlink:title=" ">
<polygon fill="white" stroke="#bfbfbf" points="464.38,-385.5 464.38,-403.5 507.62,-403.5 507.62,-385.5 464.38,-385.5"/>
<text text-anchor="middle" x="486" y="-391.5" font-family="Helvetica,sans-Serif" font-size="10.00">vector</text>
</a>
</g>
</g>
<!-- Node16&#45;&gt;Node25 -->
<g id="edge31" class="edge">
<title>Node16&#45;&gt;Node25</title>
<path fill="none" stroke="midnightblue" d="M376.59,-440.45C397.9,-431.7 432.2,-417.61 456.71,-407.53"/>
<polygon fill="midnightblue" stroke="midnightblue" points="458.3,-410.66 466.22,-403.63 455.64,-404.19 458.3,-410.66"/>
</g>
<!-- Node18 -->
<g id="node18" class="node">
<title>Node18</title>
<g id="a_node18"><a xlink:href="../../dc/de8/txvars_8h.html" target="_top" xlink:title=" ">
<polygon fill="white" stroke="black" points="267.5,-275.5 267.5,-293.5 318.5,-293.5 318.5,-275.5 267.5,-275.5"/>
<text text-anchor="middle" x="293" y="-281.5" font-family="Helvetica,sans-Serif" font-size="10.00">txvars.h</text>
</a>
</g>
</g>
<!-- Node17&#45;&gt;Node18 -->
<g id="edge18" class="edge">
<title>Node17&#45;&gt;Node18</title>
<path fill="none" stroke="midnightblue" d="M404.95,-330.45C383.05,-321.66 347.74,-307.48 322.64,-297.4"/>
<polygon fill="midnightblue" stroke="midnightblue" points="323.82,-294.1 313.24,-293.63 321.21,-300.6 323.82,-294.1"/>
</g>
<!-- Node19 -->
<g id="node19" class="node">
<title>Node19</title>
<g id="a_node19"><a xlink:title=" ">
<polygon fill="white" stroke="#bfbfbf" points="424.77,-220.5 424.77,-238.5 465.23,-238.5 465.23,-220.5 424.77,-220.5"/>
<text text-anchor="middle" x="445" y="-226.5" font-family="Helvetica,sans-Serif" font-size="10.00">string</text>
</a>
</g>
</g>
<!-- Node17&#45;&gt;Node19 -->
<g id="edge21" class="edge">
<title>Node17&#45;&gt;Node19</title>
<path fill="none" stroke="midnightblue" d="M426.5,-330.38C429.7,-313.1 437.25,-272.33 441.66,-248.56"/>
<polygon fill="midnightblue" stroke="midnightblue" points="445.1,-249.18 443.48,-238.71 438.22,-247.91 445.1,-249.18"/>
</g>
<!-- Node18&#45;&gt;Node9 -->
<g id="edge19" class="edge">
<title>Node18&#45;&gt;Node9</title>
<path fill="none" stroke="midnightblue" d="M293.68,-275.38C295.11,-258.18 298.48,-217.7 300.47,-193.89"/>
<polygon fill="midnightblue" stroke="midnightblue" points="303.97,-193.97 301.32,-183.71 297,-193.39 303.97,-193.97"/>
</g>
<!-- Node18&#45;&gt;Node12 -->
<g id="edge20" class="edge">
<title>Node18&#45;&gt;Node12</title>
<path fill="none" stroke="midnightblue" d="M287.53,-275.22C282.57,-267.71 275.11,-256.41 268.93,-247.05"/>
<polygon fill="midnightblue" stroke="midnightblue" points="271.75,-244.97 263.32,-238.55 265.91,-248.82 271.75,-244.97"/>
</g>
<!-- Node21 -->
<g id="node21" class="node">
<title>Node21</title>
<g id="a_node21"><a xlink:href="../../dc/d91/txtokenlist_8h.html" target="_top" xlink:title=" ">
<polygon fill="white" stroke="black" points="318.6,-330.5 318.6,-348.5 387.4,-348.5 387.4,-330.5 318.6,-330.5"/>
<text text-anchor="middle" x="353" y="-336.5" font-family="Helvetica,sans-Serif" font-size="10.00">txtokenlist.h</text>
</a>
</g>
</g>
<!-- Node20&#45;&gt;Node21 -->
<g id="edge23" class="edge">
<title>Node20&#45;&gt;Node21</title>
<path fill="none" stroke="midnightblue" d="M356.38,-385.22C355.84,-378.1 355.04,-367.58 354.36,-358.53"/>
<polygon fill="midnightblue" stroke="midnightblue" points="357.85,-358.26 353.61,-348.55 350.87,-358.78 357.85,-358.26"/>
</g>
<!-- Node21&#45;&gt;Node3 -->
<g id="edge27" class="edge">
<title>Node21&#45;&gt;Node3</title>
<path fill="none" stroke="midnightblue" d="M325.36,-330.45C294.13,-321.36 243.15,-306.51 208.39,-296.39"/>
<polygon fill="midnightblue" stroke="midnightblue" points="209.18,-292.97 198.6,-293.54 207.23,-299.69 209.18,-292.97"/>
</g>
<!-- Node21&#45;&gt;Node18 -->
<g id="edge28" class="edge">
<title>Node21&#45;&gt;Node18</title>
<path fill="none" stroke="midnightblue" d="M343.89,-330.45C334.9,-322.51 320.95,-310.19 309.93,-300.45"/>
<polygon fill="midnightblue" stroke="midnightblue" points="312.01,-297.62 302.2,-293.63 307.38,-302.87 312.01,-297.62"/>
</g>
<!-- Node22 -->
<g id="node22" class="node">
<title>Node22</title>
<g id="a_node22"><a xlink:href="../../d5/daf/_istring_8h.html" target="_top" xlink:title=" ">
<polygon fill="white" stroke="black" points="336.77,-275.5 336.77,-293.5 417.23,-293.5 417.23,-275.5 336.77,-275.5"/>
<text text-anchor="middle" x="377" y="-281.5" font-family="Helvetica,sans-Serif" font-size="10.00">tralics/Istring.h</text>
</a>
</g>
</g>
<!-- Node21&#45;&gt;Node22 -->
<g id="edge24" class="edge">
<title>Node21&#45;&gt;Node22</title>
<path fill="none" stroke="midnightblue" d="M356.75,-330.22C360.05,-322.94 364.95,-312.11 369.11,-302.93"/>
<polygon fill="midnightblue" stroke="midnightblue" points="372.42,-304.1 373.35,-293.55 366.04,-301.22 372.42,-304.1"/>
</g>
<!-- Node23 -->
<g id="node23" class="node">
<title>Node23</title>
<g id="a_node23"><a xlink:title=" ">
<polygon fill="white" stroke="#bfbfbf" points="472.61,-275.5 472.61,-293.5 511.39,-293.5 511.39,-275.5 472.61,-275.5"/>
<text text-anchor="middle" x="492" y="-281.5" font-family="Helvetica,sans-Serif" font-size="10.00">utility</text>
</a>
</g>
</g>
<!-- Node21&#45;&gt;Node23 -->
<g id="edge29" class="edge">
<title>Node21&#45;&gt;Node23</title>
<path fill="none" stroke="midnightblue" d="M374.11,-330.45C397.82,-321.41 436.43,-306.69 462.97,-296.57"/>
<polygon fill="midnightblue" stroke="midnightblue" points="464.39,-299.77 472.49,-292.94 461.9,-293.23 464.39,-299.77"/>
</g>
<!-- Node22&#45;&gt;Node9 -->
<g id="edge25" class="edge">
<title>Node22&#45;&gt;Node9</title>
<path fill="none" stroke="midnightblue" d="M371.36,-275.38C359.09,-257.71 329.76,-215.47 313.44,-191.98"/>
<polygon fill="midnightblue" stroke="midnightblue" points="316.28,-189.93 307.7,-183.71 310.53,-193.92 316.28,-189.93"/>
</g>
<!-- Node22&#45;&gt;Node19 -->
<g id="edge26" class="edge">
<title>Node22&#45;&gt;Node19</title>
<path fill="none" stroke="midnightblue" d="M387.33,-275.45C397.71,-267.36 413.95,-254.7 426.55,-244.88"/>
<polygon fill="midnightblue" stroke="midnightblue" points="428.84,-247.53 434.58,-238.63 424.54,-242.01 428.84,-247.53"/>
</g>
<!-- Node27&#45;&gt;Node16 -->
<g id="edge34" class="edge">
<title>Node27&#45;&gt;Node16</title>
<path fill="none" stroke="midnightblue" d="M357,-495.22C357,-488.18 357,-477.81 357,-468.83"/>
<polygon fill="midnightblue" stroke="midnightblue" points="360.5,-468.55 357,-458.55 353.5,-468.55 360.5,-468.55"/>
</g>
<!-- Node28&#45;&gt;Node26 -->
<g id="edge36" class="edge">
<title>Node28&#45;&gt;Node26</title>
<path fill="none" stroke="midnightblue" d="M59.19,-605.18C61.28,-592.54 66.42,-568.08 77,-550 83.5,-538.9 93.32,-528.45 101.94,-520.47"/>
<polygon fill="midnightblue" stroke="midnightblue" points="104.51,-522.87 109.69,-513.63 99.88,-517.62 104.51,-522.87"/>
</g>
<!-- Node29 -->
<g id="node29" class="node">
<title>Node29</title>
<g id="a_node29"><a xlink:title=" ">
<polygon fill="white" stroke="#bfbfbf" points="85.83,-550.5 85.83,-568.5 140.17,-568.5 140.17,-550.5 85.83,-550.5"/>
<text text-anchor="middle" x="113" y="-556.5" font-family="Helvetica,sans-Serif" font-size="10.00">iostream</text>
</a>
</g>
</g>
<!-- Node28&#45;&gt;Node29 -->
<g id="edge37" class="edge">
<title>Node28&#45;&gt;Node29</title>
<path fill="none" stroke="midnightblue" d="M66.59,-605.22C74.79,-597.32 87.34,-585.22 97.32,-575.61"/>
<polygon fill="midnightblue" stroke="midnightblue" points="99.87,-578.01 104.65,-568.55 95.02,-572.97 99.87,-578.01"/>
</g>
<!-- Node30&#45;&gt;Node15 -->
<g id="edge39" class="edge">
<title>Node30&#45;&gt;Node15</title>
<path fill="none" stroke="midnightblue" d="M143.19,-605.22C149.91,-597.47 160.13,-585.7 168.39,-576.18"/>
<polygon fill="midnightblue" stroke="midnightblue" points="171.1,-578.4 175.01,-568.55 165.82,-573.81 171.1,-578.4"/>
</g>
<!-- Node31&#45;&gt;Node15 -->
<g id="edge51" class="edge">
<title>Node31&#45;&gt;Node15</title>
<path fill="none" stroke="midnightblue" d="M419.7,-660.46C397.39,-651.9 361.42,-637.73 331,-624 313.79,-616.23 310.22,-612.74 293,-605 266.28,-592.99 235.29,-580.7 212.85,-572.08"/>
<polygon fill="midnightblue" stroke="midnightblue" points="214.09,-568.81 203.5,-568.52 211.59,-575.35 214.09,-568.81"/>
</g>
<!-- Node32 -->
<g id="node32" class="node">
<title>Node32</title>
<g id="a_node32"><a xlink:href="../../d3/d6b/txcond_8h.html" target="_top" xlink:title=" ">
<polygon fill="white" stroke="black" points="466.1,-440.5 466.1,-458.5 519.9,-458.5 519.9,-440.5 466.1,-440.5"/>
<text text-anchor="middle" x="493" y="-446.5" font-family="Helvetica,sans-Serif" font-size="10.00">txcond.h</text>
</a>
</g>
</g>
<!-- Node31&#45;&gt;Node32 -->
<g id="edge41" class="edge">
<title>Node31&#45;&gt;Node32</title>
<path fill="none" stroke="midnightblue" d="M452.92,-660.41C464.3,-652.24 481.39,-638.75 493,-624 509.97,-602.45 514.6,-595.67 521,-569 529.64,-532.99 513.34,-490.78 502.19,-467.71"/>
<polygon fill="midnightblue" stroke="midnightblue" points="505.19,-465.88 497.54,-458.55 498.95,-469.05 505.19,-465.88"/>
</g>
<!-- Node33 -->
<g id="node33" class="node">
<title>Node33</title>
<g id="a_node33"><a xlink:href="../../d7/d4d/txfonts_8h.html" target="_top" xlink:title=" ">
<polygon fill="white" stroke="black" points="458.1,-550.5 458.1,-568.5 511.9,-568.5 511.9,-550.5 458.1,-550.5"/>
<text text-anchor="middle" x="485" y="-556.5" font-family="Helvetica,sans-Serif" font-size="10.00">txfonts.h</text>
</a>
</g>
</g>
<!-- Node31&#45;&gt;Node33 -->
<g id="edge43" class="edge">
<title>Node31&#45;&gt;Node33</title>
<path fill="none" stroke="midnightblue" d="M450.08,-660.28C458.58,-652.01 470.85,-638.44 477,-624 483.13,-609.61 484.94,-591.85 485.32,-578.77"/>
<polygon fill="midnightblue" stroke="midnightblue" points="488.82,-578.7 485.37,-568.69 481.82,-578.67 488.82,-578.7"/>
</g>
<!-- Node34 -->
<g id="node34" class="node">
<title>Node34</title>
<g id="a_node34"><a xlink:href="../../d7/d7e/txhash_8h.html" target="_top" xlink:title=" ">
<polygon fill="white" stroke="black" points="414.1,-605.5 414.1,-623.5 467.9,-623.5 467.9,-605.5 414.1,-605.5"/>
<text text-anchor="middle" x="441" y="-611.5" font-family="Helvetica,sans-Serif" font-size="10.00">txhash.h</text>
</a>
</g>
</g>
<!-- Node31&#45;&gt;Node34 -->
<g id="edge45" class="edge">
<title>Node31&#45;&gt;Node34</title>
<path fill="none" stroke="midnightblue" d="M441,-660.22C441,-653.18 441,-642.81 441,-633.83"/>
<polygon fill="midnightblue" stroke="midnightblue" points="444.5,-633.55 441,-623.55 437.5,-633.55 444.5,-633.55"/>
</g>
<!-- Node36 -->
<g id="node36" class="node">
<title>Node36</title>
<g id="a_node36"><a xlink:href="../../de/d7c/tximage_8h.html" target="_top" xlink:title=" ">
<polygon fill="white" stroke="black" points="509.32,-330.5 509.32,-348.5 568.68,-348.5 568.68,-330.5 509.32,-330.5"/>
<text text-anchor="middle" x="539" y="-336.5" font-family="Helvetica,sans-Serif" font-size="10.00">tximage.h</text>
</a>
</g>
</g>
<!-- Node31&#45;&gt;Node36 -->
<g id="edge48" class="edge">
<title>Node31&#45;&gt;Node36</title>
<path fill="none" stroke="midnightblue" d="M468.72,-660.46C508.76,-646.95 578,-615.62 578,-560.5 578,-560.5 578,-560.5 578,-448.5 578,-414.58 560.77,-378.04 549.21,-357.34"/>
<polygon fill="midnightblue" stroke="midnightblue" points="552.15,-355.43 544.1,-348.54 546.1,-358.95 552.15,-355.43"/>
</g>
<!-- Node37 -->
<g id="node37" class="node">
<title>Node37</title>
<g id="a_node37"><a xlink:href="../../dc/d65/txstack_8h.html" target="_top" xlink:title=" ">
<polygon fill="white" stroke="black" points="340.27,-605.5 340.27,-623.5 395.73,-623.5 395.73,-605.5 340.27,-605.5"/>
<text text-anchor="middle" x="368" y="-611.5" font-family="Helvetica,sans-Serif" font-size="10.00">txstack.h</text>
</a>
</g>
</g>
<!-- Node31&#45;&gt;Node37 -->
<g id="edge52" class="edge">
<title>Node31&#45;&gt;Node37</title>
<path fill="none" stroke="midnightblue" d="M429.91,-660.45C418.66,-652.28 401,-639.46 387.42,-629.6"/>
<polygon fill="midnightblue" stroke="midnightblue" points="389.34,-626.67 379.19,-623.63 385.23,-632.33 389.34,-626.67"/>
</g>
<!-- Node40 -->
<g id="node40" class="node">
<title>Node40</title>
<g id="a_node40"><a xlink:href="../../d8/d3d/txstats_8h.html" target="_top" xlink:title=" ">
<polygon fill="white" stroke="black" points="606.38,-605.5 606.38,-623.5 659.62,-623.5 659.62,-605.5 606.38,-605.5"/>
<text text-anchor="middle" x="633" y="-611.5" font-family="Helvetica,sans-Serif" font-size="10.00">txstats.h</text>
</a>
</g>
</g>
<!-- Node31&#45;&gt;Node40 -->
<g id="edge56" class="edge">
<title>Node31&#45;&gt;Node40</title>
<path fill="none" stroke="midnightblue" d="M470.16,-660.45C504.01,-651.11 559.87,-635.69 596.55,-625.56"/>
<polygon fill="midnightblue" stroke="midnightblue" points="597.65,-628.89 606.36,-622.86 595.78,-622.14 597.65,-628.89"/>
</g>
<!-- Node32&#45;&gt;Node25 -->
<g id="edge42" class="edge">
<title>Node32&#45;&gt;Node25</title>
<path fill="none" stroke="midnightblue" d="M491.91,-440.22C490.97,-433.1 489.58,-422.58 488.38,-413.53"/>
<polygon fill="midnightblue" stroke="midnightblue" points="491.84,-413.01 487.06,-403.55 484.9,-413.92 491.84,-413.01"/>
</g>
<!-- Node33&#45;&gt;Node27 -->
<g id="edge44" class="edge">
<title>Node33&#45;&gt;Node27</title>
<path fill="none" stroke="midnightblue" d="M465.56,-550.45C444.41,-541.7 410.39,-527.61 386.06,-517.53"/>
<polygon fill="midnightblue" stroke="midnightblue" points="387.2,-514.22 376.62,-513.63 384.52,-520.68 387.2,-514.22"/>
</g>
<!-- Node35 -->
<g id="node35" class="node">
<title>Node35</title>
<g id="a_node35"><a xlink:href="../../d3/d01/txeqtb_8h.html" target="_top" xlink:title=" ">
<polygon fill="white" stroke="black" points="388.21,-550.5 388.21,-568.5 439.79,-568.5 439.79,-550.5 388.21,-550.5"/>
<text text-anchor="middle" x="414" y="-556.5" font-family="Helvetica,sans-Serif" font-size="10.00">txeqtb.h</text>
</a>
</g>
</g>
<!-- Node34&#45;&gt;Node35 -->
<g id="edge46" class="edge">
<title>Node34&#45;&gt;Node35</title>
<path fill="none" stroke="midnightblue" d="M436.78,-605.22C433.03,-597.86 427.44,-586.88 422.73,-577.64"/>
<polygon fill="midnightblue" stroke="midnightblue" points="425.76,-575.87 418.1,-568.55 419.52,-579.05 425.76,-575.87"/>
</g>
<!-- Node35&#45;&gt;Node27 -->
<g id="edge47" class="edge">
<title>Node35&#45;&gt;Node27</title>
<path fill="none" stroke="midnightblue" d="M405.09,-550.22C396.59,-542.32 383.59,-530.22 373.25,-520.61"/>
<polygon fill="midnightblue" stroke="midnightblue" points="375.36,-517.8 365.66,-513.55 370.6,-522.92 375.36,-517.8"/>
</g>
<!-- Node36&#45;&gt;Node19 -->
<g id="edge49" class="edge">
<title>Node36&#45;&gt;Node19</title>
<path fill="none" stroke="midnightblue" d="M538.43,-330.22C537.15,-317.19 533.03,-291.69 520,-275 508.35,-260.08 490.18,-249.12 474.65,-241.81"/>
<polygon fill="midnightblue" stroke="midnightblue" points="475.96,-238.56 465.4,-237.72 473.14,-244.96 475.96,-238.56"/>
</g>
<!-- Node36&#45;&gt;Node23 -->
<g id="edge50" class="edge">
<title>Node36&#45;&gt;Node23</title>
<path fill="none" stroke="midnightblue" d="M531.66,-330.22C524.79,-322.47 514.35,-310.7 505.9,-301.18"/>
<polygon fill="midnightblue" stroke="midnightblue" points="508.39,-298.71 499.14,-293.55 503.15,-303.35 508.39,-298.71"/>
</g>
<!-- Node38 -->
<g id="node38" class="node">
<title>Node38</title>
<g id="a_node38"><a xlink:href="../../d4/da4/txatt_8h.html" target="_top" xlink:title=" ">
<polygon fill="white" stroke="black" points="327.38,-550.5 327.38,-568.5 370.62,-568.5 370.62,-550.5 327.38,-550.5"/>
<text text-anchor="middle" x="349" y="-556.5" font-family="Helvetica,sans-Serif" font-size="10.00">txatt.h</text>
</a>
</g>
</g>
<!-- Node37&#45;&gt;Node38 -->
<g id="edge53" class="edge">
<title>Node37&#45;&gt;Node38</title>
<path fill="none" stroke="midnightblue" d="M365.03,-605.22C362.45,-598.02 358.62,-587.35 355.36,-578.23"/>
<polygon fill="midnightblue" stroke="midnightblue" points="358.56,-576.78 351.89,-568.55 351.97,-579.14 358.56,-576.78"/>
</g>
<!-- Node39 -->
<g id="node39" class="node">
<title>Node39</title>
<g id="a_node39"><a xlink:href="../../d1/d43/txxml_8h.html" target="_top" xlink:title=" ">
<polygon fill="white" stroke="black" points="262.17,-550.5 262.17,-568.5 309.83,-568.5 309.83,-550.5 262.17,-550.5"/>
<text text-anchor="middle" x="286" y="-556.5" font-family="Helvetica,sans-Serif" font-size="10.00">txxml.h</text>
</a>
</g>
</g>
<!-- Node37&#45;&gt;Node39 -->
<g id="edge55" class="edge">
<title>Node37&#45;&gt;Node39</title>
<path fill="none" stroke="midnightblue" d="M355.55,-605.45C342.78,-597.2 322.69,-584.22 307.38,-574.32"/>
<polygon fill="midnightblue" stroke="midnightblue" points="308.87,-571.11 298.57,-568.63 305.07,-576.99 308.87,-571.11"/>
</g>
<!-- Node38&#45;&gt;Node27 -->
<g id="edge54" class="edge">
<title>Node38&#45;&gt;Node27</title>
<path fill="none" stroke="midnightblue" d="M350.25,-550.22C351.32,-543.1 352.91,-532.58 354.28,-523.53"/>
<polygon fill="midnightblue" stroke="midnightblue" points="357.75,-523.96 355.78,-513.55 350.83,-522.92 357.75,-523.96"/>
</g>
</g>
</svg>
