<?xml version="1.0" encoding="UTF-8" standalone="no"?>
<!DOCTYPE svg PUBLIC "-//W3C//DTD SVG 1.1//EN"
 "http://www.w3.org/Graphics/SVG/1.1/DTD/svg11.dtd">
<!-- Generated by graphviz version 2.42.3 (20191010.1750)
 -->
<!-- Title: txmlio.cpp Pages: 1 -->
<svg width="805pt" height="742pt"
 viewBox="0.00 0.00 804.91 742.00" xmlns="http://www.w3.org/2000/svg" xmlns:xlink="http://www.w3.org/1999/xlink">
<g id="graph0" class="graph" transform="scale(1 1) rotate(0) translate(4 738)">
<title>txmlio.cpp</title>
<!-- Node1 -->
<g id="node1" class="node">
<title>Node1</title>
<g id="a_node1"><a xlink:title=" ">
<polygon fill="#bfbfbf" stroke="black" points="128.18,-715.5 128.18,-733.5 189.19,-733.5 189.19,-715.5 128.18,-715.5"/>
<text text-anchor="middle" x="158.68" y="-721.5" font-family="Helvetica,sans-Serif" font-size="10.00">txmlio.cpp</text>
</a>
</g>
</g>
<!-- Node2 -->
<g id="node2" class="node">
<title>Node2</title>
<g id="a_node2"><a xlink:href="../../dc/d84/txmlio_8h.html" target="_top" xlink:title=" ">
<polygon fill="none" stroke="black" points="62.46,-660.5 62.46,-678.5 112.91,-678.5 112.91,-660.5 62.46,-660.5"/>
<text text-anchor="middle" x="87.68" y="-666.5" font-family="Helvetica,sans-Serif" font-size="10.00">txmlio.h</text>
</a>
</g>
</g>
<!-- Node1&#45;&gt;Node2 -->
<g id="edge1" class="edge">
<title>Node1&#45;&gt;Node2</title>
<path fill="none" stroke="midnightblue" d="M147.9,-715.45C137.06,-707.36 120.11,-694.7 106.95,-684.88"/>
<polygon fill="midnightblue" stroke="midnightblue" points="108.68,-681.8 98.57,-678.63 104.49,-687.41 108.68,-681.8"/>
</g>
<!-- Node27 -->
<g id="node27" class="node">
<title>Node27</title>
<g id="a_node27"><a xlink:href="../../d7/d79/txinline_8h.html" target="_top" xlink:title=" ">
<polygon fill="none" stroke="black" points="130.95,-660.5 130.95,-678.5 186.42,-678.5 186.42,-660.5 130.95,-660.5"/>
<text text-anchor="middle" x="158.68" y="-666.5" font-family="Helvetica,sans-Serif" font-size="10.00">txinline.h</text>
</a>
</g>
</g>
<!-- Node1&#45;&gt;Node27 -->
<g id="edge30" class="edge">
<title>Node1&#45;&gt;Node27</title>
<path fill="none" stroke="midnightblue" d="M158.68,-715.22C158.68,-708.18 158.68,-697.81 158.68,-688.83"/>
<polygon fill="midnightblue" stroke="midnightblue" points="162.18,-688.55 158.68,-678.55 155.18,-688.55 162.18,-688.55"/>
</g>
<!-- Node33 -->
<g id="node33" class="node">
<title>Node33</title>
<g id="a_node33"><a xlink:href="../../d2/d1b/txparser_8h.html" target="_top" xlink:title=" ">
<polygon fill="none" stroke="black" points="456.73,-660.5 456.73,-678.5 516.64,-678.5 516.64,-660.5 456.73,-660.5"/>
<text text-anchor="middle" x="486.68" y="-666.5" font-family="Helvetica,sans-Serif" font-size="10.00">txparser.h</text>
</a>
</g>
</g>
<!-- Node1&#45;&gt;Node33 -->
<g id="edge40" class="edge">
<title>Node1&#45;&gt;Node33</title>
<path fill="none" stroke="midnightblue" d="M189.25,-718.56C248.73,-708.95 380.01,-687.74 446.47,-677"/>
<polygon fill="midnightblue" stroke="midnightblue" points="447.24,-680.42 456.56,-675.37 446.13,-673.51 447.24,-680.42"/>
</g>
<!-- Node3 -->
<g id="node3" class="node">
<title>Node3</title>
<g id="a_node3"><a xlink:href="../../de/d29/txio_8h.html" target="_top" xlink:title=" ">
<polygon fill="none" stroke="black" points="174.73,-550.5 174.73,-568.5 214.64,-568.5 214.64,-550.5 174.73,-550.5"/>
<text text-anchor="middle" x="194.68" y="-556.5" font-family="Helvetica,sans-Serif" font-size="10.00">txio.h</text>
</a>
</g>
</g>
<!-- Node2&#45;&gt;Node3 -->
<g id="edge2" class="edge">
<title>Node2&#45;&gt;Node3</title>
<path fill="none" stroke="midnightblue" d="M88.12,-660.11C89.23,-646.94 93.1,-621.24 106.68,-605 121.75,-587 145.91,-575.51 165.12,-568.73"/>
<polygon fill="midnightblue" stroke="midnightblue" points="166.22,-572.05 174.63,-565.6 164.04,-565.4 166.22,-572.05"/>
</g>
<!-- Node4 -->
<g id="node4" class="node">
<title>Node4</title>
<g id="a_node4"><a xlink:href="../../d7/d1b/_buffer_8h.html" target="_top" xlink:title=" ">
<polygon fill="none" stroke="black" points="443.09,-440.5 443.09,-458.5 522.28,-458.5 522.28,-440.5 443.09,-440.5"/>
<text text-anchor="middle" x="482.68" y="-446.5" font-family="Helvetica,sans-Serif" font-size="10.00">tralics/Buffer.h</text>
</a>
</g>
</g>
<!-- Node3&#45;&gt;Node4 -->
<g id="edge3" class="edge">
<title>Node3&#45;&gt;Node4</title>
<path fill="none" stroke="midnightblue" d="M214.94,-550.91C264.56,-532.3 392.48,-484.33 451.73,-462.11"/>
<polygon fill="midnightblue" stroke="midnightblue" points="453.16,-465.31 461.29,-458.52 450.7,-458.76 453.16,-465.31"/>
</g>
<!-- Node26 -->
<g id="node26" class="node">
<title>Node26</title>
<g id="a_node26"><a xlink:title=" ">
<polygon fill="none" stroke="#bfbfbf" points="131.01,-495.5 131.01,-513.5 180.35,-513.5 180.35,-495.5 131.01,-495.5"/>
<text text-anchor="middle" x="155.68" y="-501.5" font-family="Helvetica,sans-Serif" font-size="10.00">fstream</text>
</a>
</g>
</g>
<!-- Node3&#45;&gt;Node26 -->
<g id="edge29" class="edge">
<title>Node3&#45;&gt;Node26</title>
<path fill="none" stroke="midnightblue" d="M188.59,-550.22C183.01,-542.63 174.58,-531.18 167.65,-521.76"/>
<polygon fill="midnightblue" stroke="midnightblue" points="170.35,-519.53 161.61,-513.55 164.72,-523.68 170.35,-519.53"/>
</g>
<!-- Node5 -->
<g id="node5" class="node">
<title>Node5</title>
<g id="a_node5"><a xlink:href="../../d1/d9e/txid_8h.html" target="_top" xlink:title=" ">
<polygon fill="none" stroke="black" points="428.57,-330.5 428.57,-348.5 476.8,-348.5 476.8,-330.5 428.57,-330.5"/>
<text text-anchor="middle" x="452.68" y="-336.5" font-family="Helvetica,sans-Serif" font-size="10.00">../txid.h</text>
</a>
</g>
</g>
<!-- Node4&#45;&gt;Node5 -->
<g id="edge4" class="edge">
<title>Node4&#45;&gt;Node5</title>
<path fill="none" stroke="midnightblue" d="M474.78,-440.48C467.18,-432.16 456.2,-418.37 451.68,-404 447.04,-389.19 447.8,-371.47 449.43,-358.52"/>
<polygon fill="midnightblue" stroke="midnightblue" points="452.9,-358.97 450.98,-348.55 445.99,-357.9 452.9,-358.97"/>
</g>
<!-- Node16 -->
<g id="node16" class="node">
<title>Node16</title>
<g id="a_node16"><a xlink:href="../../d9/d18/txscaled_8h.html" target="_top" xlink:title=" ">
<polygon fill="none" stroke="black" points="585,-385.5 585,-403.5 654.36,-403.5 654.36,-385.5 585,-385.5"/>
<text text-anchor="middle" x="619.68" y="-391.5" font-family="Helvetica,sans-Serif" font-size="10.00">../txscaled.h</text>
</a>
</g>
</g>
<!-- Node4&#45;&gt;Node16 -->
<g id="edge16" class="edge">
<title>Node4&#45;&gt;Node16</title>
<path fill="none" stroke="midnightblue" d="M503.49,-440.45C526.32,-431.62 563.19,-417.35 589.27,-407.27"/>
<polygon fill="midnightblue" stroke="midnightblue" points="590.62,-410.5 598.68,-403.63 588.09,-403.97 590.62,-410.5"/>
</g>
<!-- Node24 -->
<g id="node24" class="node">
<title>Node24</title>
<g id="a_node24"><a xlink:title=" ">
<polygon fill="none" stroke="#bfbfbf" points="460.96,-385.5 460.96,-403.5 506.41,-403.5 506.41,-385.5 460.96,-385.5"/>
<text text-anchor="middle" x="483.68" y="-391.5" font-family="Helvetica,sans-Serif" font-size="10.00">cstring</text>
</a>
</g>
</g>
<!-- Node4&#45;&gt;Node24 -->
<g id="edge27" class="edge">
<title>Node4&#45;&gt;Node24</title>
<path fill="none" stroke="midnightblue" d="M482.84,-440.22C482.97,-433.18 483.17,-422.81 483.34,-413.83"/>
<polygon fill="midnightblue" stroke="midnightblue" points="486.84,-413.61 483.53,-403.55 479.84,-413.48 486.84,-413.61"/>
</g>
<!-- Node25 -->
<g id="node25" class="node">
<title>Node25</title>
<g id="a_node25"><a xlink:title=" ">
<polygon fill="none" stroke="#bfbfbf" points="524.07,-385.5 524.07,-403.5 567.3,-403.5 567.3,-385.5 524.07,-385.5"/>
<text text-anchor="middle" x="545.68" y="-391.5" font-family="Helvetica,sans-Serif" font-size="10.00">vector</text>
</a>
</g>
</g>
<!-- Node4&#45;&gt;Node25 -->
<g id="edge28" class="edge">
<title>Node4&#45;&gt;Node25</title>
<path fill="none" stroke="midnightblue" d="M492.25,-440.45C501.78,-432.43 516.62,-419.95 528.25,-410.17"/>
<polygon fill="midnightblue" stroke="midnightblue" points="530.63,-412.74 536.03,-403.63 526.12,-407.38 530.63,-412.74"/>
</g>
<!-- Node6 -->
<g id="node6" class="node">
<title>Node6</title>
<g id="a_node6"><a xlink:href="../../d5/daf/_istring_8h.html" target="_top" xlink:title=" ">
<polygon fill="none" stroke="black" points="427.45,-275.5 427.45,-293.5 507.92,-293.5 507.92,-275.5 427.45,-275.5"/>
<text text-anchor="middle" x="467.68" y="-281.5" font-family="Helvetica,sans-Serif" font-size="10.00">tralics/Istring.h</text>
</a>
</g>
</g>
<!-- Node5&#45;&gt;Node6 -->
<g id="edge5" class="edge">
<title>Node5&#45;&gt;Node6</title>
<path fill="none" stroke="midnightblue" d="M455.03,-330.22C457.07,-323.02 460.09,-312.35 462.67,-303.23"/>
<polygon fill="midnightblue" stroke="midnightblue" points="466.05,-304.12 465.41,-293.55 459.32,-302.22 466.05,-304.12"/>
</g>
<!-- Node7 -->
<g id="node7" class="node">
<title>Node7</title>
<g id="a_node7"><a xlink:href="../../d0/d0b/enums_8h.html" target="_top" xlink:title=" ">
<polygon fill="none" stroke="black" points="593.51,-165.5 593.51,-183.5 647.86,-183.5 647.86,-165.5 593.51,-165.5"/>
<text text-anchor="middle" x="620.68" y="-171.5" font-family="Helvetica,sans-Serif" font-size="10.00">enums.h</text>
</a>
</g>
</g>
<!-- Node6&#45;&gt;Node7 -->
<g id="edge6" class="edge">
<title>Node6&#45;&gt;Node7</title>
<path fill="none" stroke="midnightblue" d="M475.9,-275.5C489.11,-262.86 516.17,-237.87 541.68,-220 558.66,-208.11 579.07,-196.68 594.9,-188.38"/>
<polygon fill="midnightblue" stroke="midnightblue" points="596.8,-191.33 604.08,-183.64 593.59,-185.11 596.8,-191.33"/>
</g>
<!-- Node13 -->
<g id="node13" class="node">
<title>Node13</title>
<g id="a_node13"><a xlink:href="../../d8/d3c/util_8h.html" target="_top" xlink:title=" ">
<polygon fill="none" stroke="black" points="363.12,-220.5 363.12,-238.5 400.25,-238.5 400.25,-220.5 363.12,-220.5"/>
<text text-anchor="middle" x="381.68" y="-226.5" font-family="Helvetica,sans-Serif" font-size="10.00">util.h</text>
</a>
</g>
</g>
<!-- Node6&#45;&gt;Node13 -->
<g id="edge12" class="edge">
<title>Node6&#45;&gt;Node13</title>
<path fill="none" stroke="midnightblue" d="M454.62,-275.45C441.11,-267.12 419.77,-253.97 403.65,-244.04"/>
<polygon fill="midnightblue" stroke="midnightblue" points="405.22,-240.89 394.87,-238.63 401.55,-246.85 405.22,-240.89"/>
</g>
<!-- Node14 -->
<g id="node14" class="node">
<title>Node14</title>
<g id="a_node14"><a xlink:title=" ">
<polygon fill="none" stroke="#bfbfbf" points="361.46,-165.5 361.46,-183.5 401.91,-183.5 401.91,-165.5 361.46,-165.5"/>
<text text-anchor="middle" x="381.68" y="-171.5" font-family="Helvetica,sans-Serif" font-size="10.00">string</text>
</a>
</g>
</g>
<!-- Node6&#45;&gt;Node14 -->
<g id="edge15" class="edge">
<title>Node6&#45;&gt;Node14</title>
<path fill="none" stroke="midnightblue" d="M461.22,-275.38C447.09,-257.63 413.22,-215.1 394.56,-191.67"/>
<polygon fill="midnightblue" stroke="midnightblue" points="397.19,-189.35 388.22,-183.71 391.71,-193.71 397.19,-189.35"/>
</g>
<!-- Node15 -->
<g id="node15" class="node">
<title>Node15</title>
<g id="a_node15"><a xlink:title=" ">
<polygon fill="none" stroke="#bfbfbf" points="456.29,-220.5 456.29,-238.5 495.08,-238.5 495.08,-220.5 456.29,-220.5"/>
<text text-anchor="middle" x="475.68" y="-226.5" font-family="Helvetica,sans-Serif" font-size="10.00">array</text>
</a>
</g>
</g>
<!-- Node6&#45;&gt;Node15 -->
<g id="edge14" class="edge">
<title>Node6&#45;&gt;Node15</title>
<path fill="none" stroke="midnightblue" d="M468.93,-275.22C470.01,-268.1 471.6,-257.58 472.96,-248.53"/>
<polygon fill="midnightblue" stroke="midnightblue" points="476.44,-248.96 474.47,-238.55 469.52,-247.92 476.44,-248.96"/>
</g>
<!-- Node8 -->
<g id="node8" class="node">
<title>Node8</title>
<g id="a_node8"><a xlink:href="../../d8/db5/consts_8h.html" target="_top" xlink:title=" ">
<polygon fill="none" stroke="black" points="594.06,-110.5 594.06,-128.5 647.31,-128.5 647.31,-110.5 594.06,-110.5"/>
<text text-anchor="middle" x="620.68" y="-116.5" font-family="Helvetica,sans-Serif" font-size="10.00">consts.h</text>
</a>
</g>
</g>
<!-- Node7&#45;&gt;Node8 -->
<g id="edge7" class="edge">
<title>Node7&#45;&gt;Node8</title>
<path fill="none" stroke="midnightblue" d="M620.68,-165.22C620.68,-158.18 620.68,-147.81 620.68,-138.83"/>
<polygon fill="midnightblue" stroke="midnightblue" points="624.18,-138.55 620.68,-128.55 617.18,-138.55 624.18,-138.55"/>
</g>
<!-- Node9 -->
<g id="node9" class="node">
<title>Node9</title>
<g id="a_node9"><a xlink:href="../../d9/d49/types_8h.html" target="_top" xlink:title=" ">
<polygon fill="none" stroke="black" points="534.56,-55.5 534.56,-73.5 582.81,-73.5 582.81,-55.5 534.56,-55.5"/>
<text text-anchor="middle" x="558.68" y="-61.5" font-family="Helvetica,sans-Serif" font-size="10.00">types.h</text>
</a>
</g>
</g>
<!-- Node8&#45;&gt;Node9 -->
<g id="edge8" class="edge">
<title>Node8&#45;&gt;Node9</title>
<path fill="none" stroke="midnightblue" d="M611.27,-110.45C601.89,-102.43 587.28,-89.95 575.84,-80.17"/>
<polygon fill="midnightblue" stroke="midnightblue" points="578.07,-77.46 568.19,-73.63 573.52,-82.78 578.07,-77.46"/>
</g>
<!-- Node10 -->
<g id="node10" class="node">
<title>Node10</title>
<g id="a_node10"><a xlink:title=" ">
<polygon fill="none" stroke="#bfbfbf" points="468.57,-0.5 468.57,-18.5 516.8,-18.5 516.8,-0.5 468.57,-0.5"/>
<text text-anchor="middle" x="492.68" y="-6.5" font-family="Helvetica,sans-Serif" font-size="10.00">cassert</text>
</a>
</g>
</g>
<!-- Node9&#45;&gt;Node10 -->
<g id="edge9" class="edge">
<title>Node9&#45;&gt;Node10</title>
<path fill="none" stroke="midnightblue" d="M548.66,-55.45C538.68,-47.43 523.13,-34.95 510.95,-25.17"/>
<polygon fill="midnightblue" stroke="midnightblue" points="512.79,-22.16 502.8,-18.63 508.41,-27.62 512.79,-22.16"/>
</g>
<!-- Node11 -->
<g id="node11" class="node">
<title>Node11</title>
<g id="a_node11"><a xlink:title=" ">
<polygon fill="none" stroke="#bfbfbf" points="534.56,-0.5 534.56,-18.5 582.81,-18.5 582.81,-0.5 534.56,-0.5"/>
<text text-anchor="middle" x="558.68" y="-6.5" font-family="Helvetica,sans-Serif" font-size="10.00">cstddef</text>
</a>
</g>
</g>
<!-- Node9&#45;&gt;Node11 -->
<g id="edge10" class="edge">
<title>Node9&#45;&gt;Node11</title>
<path fill="none" stroke="midnightblue" d="M558.68,-55.22C558.68,-48.18 558.68,-37.81 558.68,-28.83"/>
<polygon fill="midnightblue" stroke="midnightblue" points="562.18,-28.55 558.68,-18.55 555.18,-28.55 562.18,-28.55"/>
</g>
<!-- Node12 -->
<g id="node12" class="node">
<title>Node12</title>
<g id="a_node12"><a xlink:title=" ">
<polygon fill="none" stroke="#bfbfbf" points="600.62,-0.5 600.62,-18.5 662.75,-18.5 662.75,-0.5 600.62,-0.5"/>
<text text-anchor="middle" x="631.68" y="-6.5" font-family="Helvetica,sans-Serif" font-size="10.00">type_traits</text>
</a>
</g>
</g>
<!-- Node9&#45;&gt;Node12 -->
<g id="edge11" class="edge">
<title>Node9&#45;&gt;Node12</title>
<path fill="none" stroke="midnightblue" d="M569.77,-55.45C581.03,-47.28 598.68,-34.46 612.26,-24.6"/>
<polygon fill="midnightblue" stroke="midnightblue" points="614.46,-27.33 620.49,-18.63 610.34,-21.67 614.46,-27.33"/>
</g>
<!-- Node13&#45;&gt;Node14 -->
<g id="edge13" class="edge">
<title>Node13&#45;&gt;Node14</title>
<path fill="none" stroke="midnightblue" d="M381.68,-220.22C381.68,-213.18 381.68,-202.81 381.68,-193.83"/>
<polygon fill="midnightblue" stroke="midnightblue" points="385.18,-193.55 381.68,-183.55 378.18,-193.55 385.18,-193.55"/>
</g>
<!-- Node17 -->
<g id="node17" class="node">
<title>Node17</title>
<g id="a_node17"><a xlink:href="../../dc/d91/txtokenlist_8h.html" target="_top" xlink:title=" ">
<polygon fill="none" stroke="black" points="533.28,-330.5 533.28,-348.5 602.09,-348.5 602.09,-330.5 533.28,-330.5"/>
<text text-anchor="middle" x="567.68" y="-336.5" font-family="Helvetica,sans-Serif" font-size="10.00">txtokenlist.h</text>
</a>
</g>
</g>
<!-- Node16&#45;&gt;Node17 -->
<g id="edge17" class="edge">
<title>Node16&#45;&gt;Node17</title>
<path fill="none" stroke="midnightblue" d="M611.56,-385.22C603.88,-377.39 592.18,-365.46 582.79,-355.89"/>
<polygon fill="midnightblue" stroke="midnightblue" points="585.08,-353.24 575.58,-348.55 580.09,-358.14 585.08,-353.24"/>
</g>
<!-- Node17&#45;&gt;Node6 -->
<g id="edge18" class="edge">
<title>Node17&#45;&gt;Node6</title>
<path fill="none" stroke="midnightblue" d="M552.5,-330.45C536.42,-321.93 510.8,-308.35 491.93,-298.35"/>
<polygon fill="midnightblue" stroke="midnightblue" points="493.49,-295.22 483.02,-293.63 490.21,-301.4 493.49,-295.22"/>
</g>
<!-- Node18 -->
<g id="node18" class="node">
<title>Node18</title>
<g id="a_node18"><a xlink:href="../../dd/dcd/_token_8h.html" target="_top" xlink:title=" ">
<polygon fill="none" stroke="black" points="541.73,-275.5 541.73,-293.5 621.64,-293.5 621.64,-275.5 541.73,-275.5"/>
<text text-anchor="middle" x="581.68" y="-281.5" font-family="Helvetica,sans-Serif" font-size="10.00">tralics/Token.h</text>
</a>
</g>
</g>
<!-- Node17&#45;&gt;Node18 -->
<g id="edge19" class="edge">
<title>Node17&#45;&gt;Node18</title>
<path fill="none" stroke="midnightblue" d="M569.87,-330.22C571.77,-323.02 574.59,-312.35 577,-303.23"/>
<polygon fill="midnightblue" stroke="midnightblue" points="580.39,-304.11 579.56,-293.55 573.62,-302.32 580.39,-304.11"/>
</g>
<!-- Node23 -->
<g id="node23" class="node">
<title>Node23</title>
<g id="a_node23"><a xlink:title=" ">
<polygon fill="none" stroke="#bfbfbf" points="366.29,-275.5 366.29,-293.5 405.08,-293.5 405.08,-275.5 366.29,-275.5"/>
<text text-anchor="middle" x="385.68" y="-281.5" font-family="Helvetica,sans-Serif" font-size="10.00">utility</text>
</a>
</g>
</g>
<!-- Node17&#45;&gt;Node23 -->
<g id="edge26" class="edge">
<title>Node17&#45;&gt;Node23</title>
<path fill="none" stroke="midnightblue" d="M540.04,-330.45C506.34,-320.64 449.61,-304.12 415.12,-294.07"/>
<polygon fill="midnightblue" stroke="midnightblue" points="415.76,-290.61 405.18,-291.18 413.8,-297.33 415.76,-290.61"/>
</g>
<!-- Node19 -->
<g id="node19" class="node">
<title>Node19</title>
<g id="a_node19"><a xlink:href="../../d2/d68/_cmd_chr_8h.html" target="_top" xlink:title=" ">
<polygon fill="none" stroke="black" points="551.17,-220.5 551.17,-238.5 612.19,-238.5 612.19,-220.5 551.17,-220.5"/>
<text text-anchor="middle" x="581.68" y="-226.5" font-family="Helvetica,sans-Serif" font-size="10.00">CmdChr.h</text>
</a>
</g>
</g>
<!-- Node18&#45;&gt;Node19 -->
<g id="edge20" class="edge">
<title>Node18&#45;&gt;Node19</title>
<path fill="none" stroke="midnightblue" d="M581.68,-275.22C581.68,-268.18 581.68,-257.81 581.68,-248.83"/>
<polygon fill="midnightblue" stroke="midnightblue" points="585.18,-248.55 581.68,-238.55 578.18,-248.55 585.18,-248.55"/>
</g>
<!-- Node22 -->
<g id="node22" class="node">
<title>Node22</title>
<g id="a_node22"><a xlink:title=" ">
<polygon fill="none" stroke="#bfbfbf" points="630.18,-220.5 630.18,-238.5 659.18,-238.5 659.18,-220.5 630.18,-220.5"/>
<text text-anchor="middle" x="644.3" y="-226.5" font-family="Helvetica,sans-Serif" font-size="10.00">list</text>
</a>
</g>
</g>
<!-- Node18&#45;&gt;Node22 -->
<g id="edge25" class="edge">
<title>Node18&#45;&gt;Node22</title>
<path fill="none" stroke="midnightblue" d="M591.25,-275.45C600.78,-267.43 615.62,-254.95 627.25,-245.17"/>
<polygon fill="midnightblue" stroke="midnightblue" points="629.63,-247.74 635.03,-238.63 625.12,-242.38 629.63,-247.74"/>
</g>
<!-- Node19&#45;&gt;Node7 -->
<g id="edge24" class="edge">
<title>Node19&#45;&gt;Node7</title>
<path fill="none" stroke="midnightblue" d="M587.78,-220.22C593.36,-212.63 601.79,-201.18 608.72,-191.76"/>
<polygon fill="midnightblue" stroke="midnightblue" points="611.65,-193.68 614.76,-183.55 606.02,-189.53 611.65,-193.68"/>
</g>
<!-- Node20 -->
<g id="node20" class="node">
<title>Node20</title>
<g id="a_node20"><a xlink:href="../../d8/d47/codepoint_8h.html" target="_top" xlink:title=" ">
<polygon fill="none" stroke="black" points="507.83,-165.5 507.83,-183.5 575.54,-183.5 575.54,-165.5 507.83,-165.5"/>
<text text-anchor="middle" x="541.68" y="-171.5" font-family="Helvetica,sans-Serif" font-size="10.00">codepoint.h</text>
</a>
</g>
</g>
<!-- Node19&#45;&gt;Node20 -->
<g id="edge21" class="edge">
<title>Node19&#45;&gt;Node20</title>
<path fill="none" stroke="midnightblue" d="M575.43,-220.22C569.71,-212.63 561.06,-201.18 553.96,-191.76"/>
<polygon fill="midnightblue" stroke="midnightblue" points="556.58,-189.42 547.76,-183.55 550.99,-193.64 556.58,-189.42"/>
</g>
<!-- Node20&#45;&gt;Node9 -->
<g id="edge22" class="edge">
<title>Node20&#45;&gt;Node9</title>
<path fill="none" stroke="midnightblue" d="M534.05,-165.29C523.77,-153.2 507.65,-129.88 515.68,-110 520.43,-98.26 529.93,-87.89 538.79,-80.12"/>
<polygon fill="midnightblue" stroke="midnightblue" points="541.06,-82.79 546.6,-73.76 536.64,-77.37 541.06,-82.79"/>
</g>
<!-- Node21 -->
<g id="node21" class="node">
<title>Node21</title>
<g id="a_node21"><a xlink:title=" ">
<polygon fill="none" stroke="#bfbfbf" points="525.17,-110.5 525.17,-128.5 576.2,-128.5 576.2,-110.5 525.17,-110.5"/>
<text text-anchor="middle" x="550.68" y="-116.5" font-family="Helvetica,sans-Serif" font-size="10.00">optional</text>
</a>
</g>
</g>
<!-- Node20&#45;&gt;Node21 -->
<g id="edge23" class="edge">
<title>Node20&#45;&gt;Node21</title>
<path fill="none" stroke="midnightblue" d="M543.09,-165.22C544.3,-158.1 546.09,-147.58 547.62,-138.53"/>
<polygon fill="midnightblue" stroke="midnightblue" points="551.09,-138.99 549.32,-128.55 544.19,-137.82 551.09,-138.99"/>
</g>
<!-- Node28 -->
<g id="node28" class="node">
<title>Node28</title>
<g id="a_node28"><a xlink:href="../../d4/de9/_main_class_8h.html" target="_top" xlink:title=" ">
<polygon fill="none" stroke="black" points="193.73,-605.5 193.73,-623.5 293.64,-623.5 293.64,-605.5 193.73,-605.5"/>
<text text-anchor="middle" x="243.68" y="-611.5" font-family="Helvetica,sans-Serif" font-size="10.00">tralics/MainClass.h</text>
</a>
</g>
</g>
<!-- Node27&#45;&gt;Node28 -->
<g id="edge31" class="edge">
<title>Node27&#45;&gt;Node28</title>
<path fill="none" stroke="midnightblue" d="M171.59,-660.45C184.95,-652.12 206.04,-638.97 221.97,-629.04"/>
<polygon fill="midnightblue" stroke="midnightblue" points="224.02,-631.89 230.65,-623.63 220.32,-625.95 224.02,-631.89"/>
</g>
<!-- Node30 -->
<g id="node30" class="node">
<title>Node30</title>
<g id="a_node30"><a xlink:href="../../d2/d06/txlogger_8h.html" target="_top" xlink:title=" ">
<polygon fill="none" stroke="black" points="0,-605.5 0,-623.5 59.37,-623.5 59.37,-605.5 0,-605.5"/>
<text text-anchor="middle" x="29.68" y="-611.5" font-family="Helvetica,sans-Serif" font-size="10.00">txlogger.h</text>
</a>
</g>
</g>
<!-- Node27&#45;&gt;Node30 -->
<g id="edge35" class="edge">
<title>Node27&#45;&gt;Node30</title>
<path fill="none" stroke="midnightblue" d="M139.09,-660.45C117.78,-651.7 83.49,-637.61 58.98,-627.53"/>
<polygon fill="midnightblue" stroke="midnightblue" points="60.04,-624.19 49.46,-623.63 57.38,-630.66 60.04,-624.19"/>
</g>
<!-- Node32 -->
<g id="node32" class="node">
<title>Node32</title>
<g id="a_node32"><a xlink:href="../../d5/d08/txparam_8h.html" target="_top" xlink:title=" ">
<polygon fill="none" stroke="black" points="115.45,-605.5 115.45,-623.5 175.92,-623.5 175.92,-605.5 115.45,-605.5"/>
<text text-anchor="middle" x="145.68" y="-611.5" font-family="Helvetica,sans-Serif" font-size="10.00">txparam.h</text>
</a>
</g>
</g>
<!-- Node27&#45;&gt;Node32 -->
<g id="edge38" class="edge">
<title>Node27&#45;&gt;Node32</title>
<path fill="none" stroke="midnightblue" d="M156.65,-660.22C154.91,-653.1 152.33,-642.58 150.11,-633.53"/>
<polygon fill="midnightblue" stroke="midnightblue" points="153.44,-632.43 147.66,-623.55 146.64,-634.1 153.44,-632.43"/>
</g>
<!-- Node28&#45;&gt;Node3 -->
<g id="edge32" class="edge">
<title>Node28&#45;&gt;Node3</title>
<path fill="none" stroke="midnightblue" d="M236.03,-605.22C228.87,-597.47 217.98,-585.7 209.18,-576.18"/>
<polygon fill="midnightblue" stroke="midnightblue" points="211.49,-573.52 202.13,-568.55 206.35,-578.27 211.49,-573.52"/>
</g>
<!-- Node29 -->
<g id="node29" class="node">
<title>Node29</title>
<g id="a_node29"><a xlink:href="../../dc/def/txstring_8h.html" target="_top" xlink:title=" ">
<polygon fill="none" stroke="black" points="449.23,-495.5 449.23,-513.5 514.14,-513.5 514.14,-495.5 449.23,-495.5"/>
<text text-anchor="middle" x="481.68" y="-501.5" font-family="Helvetica,sans-Serif" font-size="10.00">../txstring.h</text>
</a>
</g>
</g>
<!-- Node28&#45;&gt;Node29 -->
<g id="edge33" class="edge">
<title>Node28&#45;&gt;Node29</title>
<path fill="none" stroke="midnightblue" d="M260.65,-605.31C286.16,-593.04 335.95,-569.28 378.68,-550 403.82,-538.66 432.66,-526.25 453.42,-517.43"/>
<polygon fill="midnightblue" stroke="midnightblue" points="454.78,-520.65 462.62,-513.52 452.05,-514.2 454.78,-520.65"/>
</g>
<!-- Node29&#45;&gt;Node4 -->
<g id="edge34" class="edge">
<title>Node29&#45;&gt;Node4</title>
<path fill="none" stroke="midnightblue" d="M481.84,-495.22C481.97,-488.18 482.17,-477.81 482.34,-468.83"/>
<polygon fill="midnightblue" stroke="midnightblue" points="485.84,-468.61 482.53,-458.55 478.84,-468.48 485.84,-468.61"/>
</g>
<!-- Node30&#45;&gt;Node26 -->
<g id="edge36" class="edge">
<title>Node30&#45;&gt;Node26</title>
<path fill="none" stroke="midnightblue" d="M39.16,-605.38C60.23,-587.32 111.24,-543.59 138.25,-520.44"/>
<polygon fill="midnightblue" stroke="midnightblue" points="140.79,-522.88 146.1,-513.71 136.23,-517.56 140.79,-522.88"/>
</g>
<!-- Node31 -->
<g id="node31" class="node">
<title>Node31</title>
<g id="a_node31"><a xlink:title=" ">
<polygon fill="none" stroke="#bfbfbf" points="2.51,-550.5 2.51,-568.5 56.86,-568.5 56.86,-550.5 2.51,-550.5"/>
<text text-anchor="middle" x="29.68" y="-556.5" font-family="Helvetica,sans-Serif" font-size="10.00">iostream</text>
</a>
</g>
</g>
<!-- Node30&#45;&gt;Node31 -->
<g id="edge37" class="edge">
<title>Node30&#45;&gt;Node31</title>
<path fill="none" stroke="midnightblue" d="M29.68,-605.22C29.68,-598.18 29.68,-587.81 29.68,-578.83"/>
<polygon fill="midnightblue" stroke="midnightblue" points="33.18,-578.55 29.68,-568.55 26.18,-578.55 33.18,-578.55"/>
</g>
<!-- Node32&#45;&gt;Node3 -->
<g id="edge39" class="edge">
<title>Node32&#45;&gt;Node3</title>
<path fill="none" stroke="midnightblue" d="M153.34,-605.22C160.5,-597.47 171.39,-585.7 180.19,-576.18"/>
<polygon fill="midnightblue" stroke="midnightblue" points="183.02,-578.27 187.24,-568.55 177.88,-573.52 183.02,-578.27"/>
</g>
<!-- Node33&#45;&gt;Node3 -->
<g id="edge54" class="edge">
<title>Node33&#45;&gt;Node3</title>
<path fill="none" stroke="midnightblue" d="M458.01,-660.46C429.3,-652.17 383.99,-638.46 345.68,-624 326.14,-616.62 321.9,-613.2 302.68,-605 276.16,-593.68 245.77,-581.2 224,-572.35"/>
<polygon fill="midnightblue" stroke="midnightblue" points="225.23,-569.07 214.65,-568.55 222.6,-575.56 225.23,-569.07"/>
</g>
<!-- Node34 -->
<g id="node34" class="node">
<title>Node34</title>
<g id="a_node34"><a xlink:href="../../d8/dd6/_e_q_t_b_8h.html" target="_top" xlink:title=" ">
<polygon fill="none" stroke="black" points="716.46,-495.5 716.46,-513.5 796.91,-513.5 796.91,-495.5 716.46,-495.5"/>
<text text-anchor="middle" x="756.68" y="-501.5" font-family="Helvetica,sans-Serif" font-size="10.00">tralics/EQTB.h</text>
</a>
</g>
</g>
<!-- Node33&#45;&gt;Node34 -->
<g id="edge41" class="edge">
<title>Node33&#45;&gt;Node34</title>
<path fill="none" stroke="midnightblue" d="M516.68,-665.67C569.04,-660.21 674.25,-646.68 702.68,-624 734.56,-598.58 748.32,-550.18 753.67,-523.78"/>
<polygon fill="midnightblue" stroke="midnightblue" points="757.17,-524.12 755.53,-513.66 750.28,-522.86 757.17,-524.12"/>
</g>
<!-- Node35 -->
<g id="node35" class="node">
<title>Node35</title>
<g id="a_node35"><a xlink:href="../../d3/d6b/txcond_8h.html" target="_top" xlink:title=" ">
<polygon fill="none" stroke="black" points="660.78,-440.5 660.78,-458.5 714.59,-458.5 714.59,-440.5 660.78,-440.5"/>
<text text-anchor="middle" x="687.68" y="-446.5" font-family="Helvetica,sans-Serif" font-size="10.00">txcond.h</text>
</a>
</g>
</g>
<!-- Node33&#45;&gt;Node35 -->
<g id="edge43" class="edge">
<title>Node33&#45;&gt;Node35</title>
<path fill="none" stroke="midnightblue" d="M516.87,-662.64C544.67,-656.25 586.25,-644.17 617.68,-624 646,-605.83 654.93,-599.23 669.68,-569 685.61,-536.38 688.19,-493.19 688.22,-468.98"/>
<polygon fill="midnightblue" stroke="midnightblue" points="691.71,-468.7 688.07,-458.75 684.71,-468.8 691.71,-468.7"/>
</g>
<!-- Node36 -->
<g id="node36" class="node">
<title>Node36</title>
<g id="a_node36"><a xlink:href="../../d7/d4d/txfonts_8h.html" target="_top" xlink:title=" ">
<polygon fill="none" stroke="black" points="606.79,-550.5 606.79,-568.5 660.58,-568.5 660.58,-550.5 606.79,-550.5"/>
<text text-anchor="middle" x="633.68" y="-556.5" font-family="Helvetica,sans-Serif" font-size="10.00">txfonts.h</text>
</a>
</g>
</g>
<!-- Node33&#45;&gt;Node36 -->
<g id="edge46" class="edge">
<title>Node33&#45;&gt;Node36</title>
<path fill="none" stroke="midnightblue" d="M516.74,-661.81C540.33,-655.34 572.89,-643.58 595.68,-624 610.13,-611.59 620.59,-592.27 626.83,-578.19"/>
<polygon fill="midnightblue" stroke="midnightblue" points="630.19,-579.23 630.78,-568.65 623.72,-576.55 630.19,-579.23"/>
</g>
<!-- Node37 -->
<g id="node37" class="node">
<title>Node37</title>
<g id="a_node37"><a xlink:href="../../d7/d7e/txhash_8h.html" target="_top" xlink:title=" ">
<polygon fill="none" stroke="black" points="387.78,-605.5 387.78,-623.5 441.59,-623.5 441.59,-605.5 387.78,-605.5"/>
<text text-anchor="middle" x="414.68" y="-611.5" font-family="Helvetica,sans-Serif" font-size="10.00">txhash.h</text>
</a>
</g>
</g>
<!-- Node33&#45;&gt;Node37 -->
<g id="edge48" class="edge">
<title>Node33&#45;&gt;Node37</title>
<path fill="none" stroke="midnightblue" d="M475.75,-660.45C464.65,-652.28 447.23,-639.46 433.84,-629.6"/>
<polygon fill="midnightblue" stroke="midnightblue" points="435.85,-626.73 425.72,-623.63 431.7,-632.37 435.85,-626.73"/>
</g>
<!-- Node39 -->
<g id="node39" class="node">
<title>Node39</title>
<g id="a_node39"><a xlink:href="../../de/d7c/tximage_8h.html" target="_top" xlink:title=" ">
<polygon fill="none" stroke="black" points="330.01,-330.5 330.01,-348.5 389.36,-348.5 389.36,-330.5 330.01,-330.5"/>
<text text-anchor="middle" x="359.68" y="-336.5" font-family="Helvetica,sans-Serif" font-size="10.00">tximage.h</text>
</a>
</g>
</g>
<!-- Node33&#45;&gt;Node39 -->
<g id="edge51" class="edge">
<title>Node33&#45;&gt;Node39</title>
<path fill="none" stroke="midnightblue" d="M456.48,-663.42C432.22,-657.81 398.95,-646.41 378.68,-624 358.92,-602.15 359.68,-589.96 359.68,-560.5 359.68,-560.5 359.68,-560.5 359.68,-448.5 359.68,-417.02 359.68,-380.37 359.68,-358.88"/>
<polygon fill="midnightblue" stroke="midnightblue" points="363.18,-358.63 359.68,-348.63 356.18,-358.63 363.18,-358.63"/>
</g>
<!-- Node40 -->
<g id="node40" class="node">
<title>Node40</title>
<g id="a_node40"><a xlink:href="../../dc/d65/txstack_8h.html" target="_top" xlink:title=" ">
<polygon fill="none" stroke="black" points="530.96,-605.5 530.96,-623.5 586.41,-623.5 586.41,-605.5 530.96,-605.5"/>
<text text-anchor="middle" x="558.68" y="-611.5" font-family="Helvetica,sans-Serif" font-size="10.00">txstack.h</text>
</a>
</g>
</g>
<!-- Node33&#45;&gt;Node40 -->
<g id="edge55" class="edge">
<title>Node33&#45;&gt;Node40</title>
<path fill="none" stroke="midnightblue" d="M497.62,-660.45C508.72,-652.28 526.13,-639.46 539.53,-629.6"/>
<polygon fill="midnightblue" stroke="midnightblue" points="541.67,-632.37 547.65,-623.63 537.52,-626.73 541.67,-632.37"/>
</g>
<!-- Node43 -->
<g id="node43" class="node">
<title>Node43</title>
<g id="a_node43"><a xlink:href="../../d8/d3d/txstats_8h.html" target="_top" xlink:title=" ">
<polygon fill="none" stroke="black" points="460.07,-605.5 460.07,-623.5 513.3,-623.5 513.3,-605.5 460.07,-605.5"/>
<text text-anchor="middle" x="486.68" y="-611.5" font-family="Helvetica,sans-Serif" font-size="10.00">txstats.h</text>
</a>
</g>
</g>
<!-- Node33&#45;&gt;Node43 -->
<g id="edge60" class="edge">
<title>Node33&#45;&gt;Node43</title>
<path fill="none" stroke="midnightblue" d="M486.68,-660.22C486.68,-653.18 486.68,-642.81 486.68,-633.83"/>
<polygon fill="midnightblue" stroke="midnightblue" points="490.18,-633.55 486.68,-623.55 483.18,-633.55 490.18,-633.55"/>
</g>
<!-- Node34&#45;&gt;Node16 -->
<g id="edge42" class="edge">
<title>Node34&#45;&gt;Node16</title>
<path fill="none" stroke="midnightblue" d="M754.43,-495.38C750.37,-482.12 740.63,-455.72 723.68,-440 706.73,-424.27 683.38,-413.6 663.09,-406.66"/>
<polygon fill="midnightblue" stroke="midnightblue" points="664.01,-403.28 653.42,-403.55 661.87,-409.94 664.01,-403.28"/>
</g>
<!-- Node35&#45;&gt;Node7 -->
<g id="edge44" class="edge">
<title>Node35&#45;&gt;Node7</title>
<path fill="none" stroke="midnightblue" d="M687.68,-440.37C687.68,-422.38 687.68,-377.81 687.68,-340.5 687.68,-340.5 687.68,-340.5 687.68,-283.5 687.68,-254.04 684.26,-245.01 668.68,-220 661.44,-208.36 650.36,-197.81 640.67,-189.9"/>
<polygon fill="midnightblue" stroke="midnightblue" points="642.69,-187.04 632.65,-183.68 638.4,-192.57 642.69,-187.04"/>
</g>
<!-- Node35&#45;&gt;Node25 -->
<g id="edge45" class="edge">
<title>Node35&#45;&gt;Node25</title>
<path fill="none" stroke="midnightblue" d="M666.12,-440.45C642.35,-431.58 603.9,-417.23 576.85,-407.13"/>
<polygon fill="midnightblue" stroke="midnightblue" points="578.05,-403.84 567.45,-403.63 575.6,-410.4 578.05,-403.84"/>
</g>
<!-- Node36&#45;&gt;Node29 -->
<g id="edge47" class="edge">
<title>Node36&#45;&gt;Node29</title>
<path fill="none" stroke="midnightblue" d="M610.6,-550.45C585.04,-541.54 543.64,-527.1 514.67,-517"/>
<polygon fill="midnightblue" stroke="midnightblue" points="515.58,-513.61 504.99,-513.63 513.28,-520.22 515.58,-513.61"/>
</g>
<!-- Node38 -->
<g id="node38" class="node">
<title>Node38</title>
<g id="a_node38"><a xlink:href="../../d3/d01/txeqtb_8h.html" target="_top" xlink:title=" ">
<polygon fill="none" stroke="black" points="387.89,-550.5 387.89,-568.5 439.48,-568.5 439.48,-550.5 387.89,-550.5"/>
<text text-anchor="middle" x="413.68" y="-556.5" font-family="Helvetica,sans-Serif" font-size="10.00">txeqtb.h</text>
</a>
</g>
</g>
<!-- Node37&#45;&gt;Node38 -->
<g id="edge49" class="edge">
<title>Node37&#45;&gt;Node38</title>
<path fill="none" stroke="midnightblue" d="M414.53,-605.22C414.4,-598.18 414.2,-587.81 414.03,-578.83"/>
<polygon fill="midnightblue" stroke="midnightblue" points="417.52,-578.48 413.84,-568.55 410.53,-578.61 417.52,-578.48"/>
</g>
<!-- Node38&#45;&gt;Node29 -->
<g id="edge50" class="edge">
<title>Node38&#45;&gt;Node29</title>
<path fill="none" stroke="midnightblue" d="M424.01,-550.45C434.4,-542.36 450.63,-529.7 463.23,-519.88"/>
<polygon fill="midnightblue" stroke="midnightblue" points="465.52,-522.53 471.26,-513.63 461.22,-517.01 465.52,-522.53"/>
</g>
<!-- Node39&#45;&gt;Node14 -->
<g id="edge52" class="edge">
<title>Node39&#45;&gt;Node14</title>
<path fill="none" stroke="midnightblue" d="M357.46,-330.24C352.56,-310.65 342.15,-259.98 353.68,-220 356.63,-209.8 362.67,-199.69 368.39,-191.69"/>
<polygon fill="midnightblue" stroke="midnightblue" points="371.24,-193.73 374.53,-183.66 365.68,-189.48 371.24,-193.73"/>
</g>
<!-- Node39&#45;&gt;Node23 -->
<g id="edge53" class="edge">
<title>Node39&#45;&gt;Node23</title>
<path fill="none" stroke="midnightblue" d="M363.75,-330.22C367.36,-322.86 372.74,-311.88 377.28,-302.64"/>
<polygon fill="midnightblue" stroke="midnightblue" points="380.47,-304.07 381.74,-293.55 374.19,-300.99 380.47,-304.07"/>
</g>
<!-- Node41 -->
<g id="node41" class="node">
<title>Node41</title>
<g id="a_node41"><a xlink:href="../../d9/d1c/_xml_8h.html" target="_top" xlink:title=" ">
<polygon fill="none" stroke="black" points="518.46,-550.5 518.46,-568.5 588.91,-568.5 588.91,-550.5 518.46,-550.5"/>
<text text-anchor="middle" x="553.68" y="-556.5" font-family="Helvetica,sans-Serif" font-size="10.00">tralics/Xml.h</text>
</a>
</g>
</g>
<!-- Node40&#45;&gt;Node41 -->
<g id="edge56" class="edge">
<title>Node40&#45;&gt;Node41</title>
<path fill="none" stroke="midnightblue" d="M557.9,-605.22C557.23,-598.1 556.24,-587.58 555.39,-578.53"/>
<polygon fill="midnightblue" stroke="midnightblue" points="558.87,-578.18 554.44,-568.55 551.9,-578.83 558.87,-578.18"/>
</g>
<!-- Node42 -->
<g id="node42" class="node">
<title>Node42</title>
<g id="a_node42"><a xlink:href="../../d4/da4/txatt_8h.html" target="_top" xlink:title=" ">
<polygon fill="none" stroke="black" points="457.07,-550.5 457.07,-568.5 500.3,-568.5 500.3,-550.5 457.07,-550.5"/>
<text text-anchor="middle" x="478.68" y="-556.5" font-family="Helvetica,sans-Serif" font-size="10.00">txatt.h</text>
</a>
</g>
</g>
<!-- Node40&#45;&gt;Node42 -->
<g id="edge58" class="edge">
<title>Node40&#45;&gt;Node42</title>
<path fill="none" stroke="midnightblue" d="M546.53,-605.45C534.08,-597.2 514.48,-584.22 499.54,-574.32"/>
<polygon fill="midnightblue" stroke="midnightblue" points="501.22,-571.23 490.95,-568.63 497.35,-577.07 501.22,-571.23"/>
</g>
<!-- Node41&#45;&gt;Node29 -->
<g id="edge57" class="edge">
<title>Node41&#45;&gt;Node29</title>
<path fill="none" stroke="midnightblue" d="M542.75,-550.45C531.65,-542.28 514.23,-529.46 500.84,-519.6"/>
<polygon fill="midnightblue" stroke="midnightblue" points="502.85,-516.73 492.72,-513.63 498.7,-522.37 502.85,-516.73"/>
</g>
<!-- Node42&#45;&gt;Node29 -->
<g id="edge59" class="edge">
<title>Node42&#45;&gt;Node29</title>
<path fill="none" stroke="midnightblue" d="M479.15,-550.22C479.55,-543.18 480.14,-532.81 480.65,-523.83"/>
<polygon fill="midnightblue" stroke="midnightblue" points="484.16,-523.73 481.23,-513.55 477.17,-523.34 484.16,-523.73"/>
</g>
</g>
</svg>
