<?xml version="1.0" encoding="UTF-8" standalone="no"?>
<!DOCTYPE svg PUBLIC "-//W3C//DTD SVG 1.1//EN"
 "http://www.w3.org/Graphics/SVG/1.1/DTD/svg11.dtd">
<!-- Generated by graphviz version 2.42.3 (20191010.1750)
 -->
<!-- Title: txmath.h Pages: 1 -->
<svg width="112pt" height="82pt"
 viewBox="0.00 0.00 112.23 82.00" xmlns="http://www.w3.org/2000/svg" xmlns:xlink="http://www.w3.org/1999/xlink">
<g id="graph0" class="graph" transform="scale(1 1) rotate(0) translate(4 78)">
<title>txmath.h</title>
<!-- Node1 -->
<g id="node1" class="node">
<title>Node1</title>
<g id="a_node1"><a xlink:title=" ">
<polygon fill="#bfbfbf" stroke="black" points="26.66,-55.5 26.66,-73.5 81.01,-73.5 81.01,-55.5 26.66,-55.5"/>
<text text-anchor="middle" x="53.83" y="-61.5" font-family="Helvetica,sans-Serif" font-size="10.00">txmath.h</text>
</a>
</g>
</g>
<!-- Node2 -->
<g id="node2" class="node">
<title>Node2</title>
<g id="a_node2"><a xlink:href="../../d1/d43/txxml_8h.html" target="_top" xlink:title=" ">
<polygon fill="none" stroke="black" points="0,-0.5 0,-18.5 47.67,-18.5 47.67,-0.5 0,-0.5"/>
<text text-anchor="middle" x="23.83" y="-6.5" font-family="Helvetica,sans-Serif" font-size="10.00">txxml.h</text>
</a>
</g>
</g>
<!-- Node1&#45;&gt;Node2 -->
<g id="edge1" class="edge">
<title>Node1&#45;&gt;Node2</title>
<path fill="none" stroke="midnightblue" d="M49.15,-55.22C44.94,-47.79 38.63,-36.65 33.37,-27.34"/>
<polygon fill="midnightblue" stroke="midnightblue" points="36.36,-25.53 28.39,-18.55 30.27,-28.98 36.36,-25.53"/>
</g>
<!-- Node3 -->
<g id="node3" class="node">
<title>Node3</title>
<g id="a_node3"><a xlink:title=" ">
<polygon fill="none" stroke="#bfbfbf" points="65.44,-0.5 65.44,-18.5 104.23,-18.5 104.23,-0.5 65.44,-0.5"/>
<text text-anchor="middle" x="84.83" y="-6.5" font-family="Helvetica,sans-Serif" font-size="10.00">utility</text>
</a>
</g>
</g>
<!-- Node1&#45;&gt;Node3 -->
<g id="edge2" class="edge">
<title>Node1&#45;&gt;Node3</title>
<path fill="none" stroke="midnightblue" d="M58.68,-55.22C63.03,-47.79 69.54,-36.65 74.98,-27.34"/>
<polygon fill="midnightblue" stroke="midnightblue" points="78.1,-28.95 80.13,-18.55 72.06,-25.41 78.1,-28.95"/>
</g>
</g>
</svg>
