<?xml version="1.0" encoding="UTF-8" standalone="no"?>
<!DOCTYPE svg PUBLIC "-//W3C//DTD SVG 1.1//EN"
 "http://www.w3.org/Graphics/SVG/1.1/DTD/svg11.dtd">
<!-- Generated by graphviz version 2.42.3 (20191010.1750)
 -->
<!-- Title: txmath.h Pages: 1 -->
<svg width="335pt" height="632pt"
 viewBox="0.00 0.00 334.73 632.00" xmlns="http://www.w3.org/2000/svg" xmlns:xlink="http://www.w3.org/1999/xlink">
<g id="graph0" class="graph" transform="scale(1 1) rotate(0) translate(4 628)">
<title>txmath.h</title>
<!-- Node1 -->
<g id="node1" class="node">
<title>Node1</title>
<g id="a_node1"><a xlink:title=" ">
<polygon fill="#bfbfbf" stroke="black" points="249.94,-605.5 249.94,-623.5 304.29,-623.5 304.29,-605.5 249.94,-605.5"/>
<text text-anchor="middle" x="277.12" y="-611.5" font-family="Helvetica,sans-Serif" font-size="10.00">txmath.h</text>
</a>
</g>
</g>
<!-- Node2 -->
<g id="node2" class="node">
<title>Node2</title>
<g id="a_node2"><a xlink:href="../../d1/d43/txxml_8h.html" target="_top" xlink:title=" ">
<polygon fill="none" stroke="black" points="253.28,-550.5 253.28,-568.5 300.95,-568.5 300.95,-550.5 253.28,-550.5"/>
<text text-anchor="middle" x="277.12" y="-556.5" font-family="Helvetica,sans-Serif" font-size="10.00">txxml.h</text>
</a>
</g>
</g>
<!-- Node1&#45;&gt;Node2 -->
<g id="edge1" class="edge">
<title>Node1&#45;&gt;Node2</title>
<path fill="none" stroke="midnightblue" d="M277.12,-605.22C277.12,-598.18 277.12,-587.81 277.12,-578.83"/>
<polygon fill="midnightblue" stroke="midnightblue" points="280.62,-578.55 277.12,-568.55 273.62,-578.55 280.62,-578.55"/>
</g>
<!-- Node3 -->
<g id="node3" class="node">
<title>Node3</title>
<g id="a_node3"><a xlink:href="../../dc/def/txstring_8h.html" target="_top" xlink:title=" ">
<polygon fill="none" stroke="black" points="220.83,-495.5 220.83,-513.5 277.4,-513.5 277.4,-495.5 220.83,-495.5"/>
<text text-anchor="middle" x="249.12" y="-501.5" font-family="Helvetica,sans-Serif" font-size="10.00">txstring.h</text>
</a>
</g>
</g>
<!-- Node2&#45;&gt;Node3 -->
<g id="edge2" class="edge">
<title>Node2&#45;&gt;Node3</title>
<path fill="none" stroke="midnightblue" d="M272.74,-550.22C268.86,-542.86 263.05,-531.88 258.17,-522.64"/>
<polygon fill="midnightblue" stroke="midnightblue" points="261.13,-520.76 253.37,-513.55 254.94,-524.03 261.13,-520.76"/>
</g>
<!-- Node24 -->
<g id="node24" class="node">
<title>Node24</title>
<g id="a_node24"><a xlink:title=" ">
<polygon fill="none" stroke="#bfbfbf" points="283.5,-385.5 283.5,-403.5 326.73,-403.5 326.73,-385.5 283.5,-385.5"/>
<text text-anchor="middle" x="305.12" y="-391.5" font-family="Helvetica,sans-Serif" font-size="10.00">vector</text>
</a>
</g>
</g>
<!-- Node2&#45;&gt;Node24 -->
<g id="edge28" class="edge">
<title>Node2&#45;&gt;Node24</title>
<path fill="none" stroke="midnightblue" d="M278.87,-550.32C280.77,-541.4 283.81,-526.72 286.12,-514 292.54,-478.57 298.95,-436.98 302.43,-413.69"/>
<polygon fill="midnightblue" stroke="midnightblue" points="305.93,-413.97 303.94,-403.57 299.01,-412.94 305.93,-413.97"/>
</g>
<!-- Node4 -->
<g id="node4" class="node">
<title>Node4</title>
<g id="a_node4"><a xlink:href="../../dd/d74/txbuffer_8h.html" target="_top" xlink:title=" ">
<polygon fill="none" stroke="black" points="220.63,-440.5 220.63,-458.5 277.6,-458.5 277.6,-440.5 220.63,-440.5"/>
<text text-anchor="middle" x="249.12" y="-446.5" font-family="Helvetica,sans-Serif" font-size="10.00">txbuffer.h</text>
</a>
</g>
</g>
<!-- Node3&#45;&gt;Node4 -->
<g id="edge3" class="edge">
<title>Node3&#45;&gt;Node4</title>
<path fill="none" stroke="midnightblue" d="M249.12,-495.22C249.12,-488.18 249.12,-477.81 249.12,-468.83"/>
<polygon fill="midnightblue" stroke="midnightblue" points="252.62,-468.55 249.12,-458.55 245.62,-468.55 252.62,-468.55"/>
</g>
<!-- Node5 -->
<g id="node5" class="node">
<title>Node5</title>
<g id="a_node5"><a xlink:href="../../d1/d9e/txid_8h.html" target="_top" xlink:title=" ">
<polygon fill="none" stroke="black" points="235.17,-330.5 235.17,-348.5 275.07,-348.5 275.07,-330.5 235.17,-330.5"/>
<text text-anchor="middle" x="255.12" y="-336.5" font-family="Helvetica,sans-Serif" font-size="10.00">txid.h</text>
</a>
</g>
</g>
<!-- Node4&#45;&gt;Node5 -->
<g id="edge4" class="edge">
<title>Node4&#45;&gt;Node5</title>
<path fill="none" stroke="midnightblue" d="M249.57,-440.38C250.52,-423.18 252.77,-382.7 254.09,-358.89"/>
<polygon fill="midnightblue" stroke="midnightblue" points="257.6,-358.89 254.66,-348.71 250.61,-358.5 257.6,-358.89"/>
</g>
<!-- Node15 -->
<g id="node15" class="node">
<title>Node15</title>
<g id="a_node15"><a xlink:href="../../d9/d18/txscaled_8h.html" target="_top" xlink:title=" ">
<polygon fill="none" stroke="black" points="102.6,-385.5 102.6,-403.5 163.63,-403.5 163.63,-385.5 102.6,-385.5"/>
<text text-anchor="middle" x="133.12" y="-391.5" font-family="Helvetica,sans-Serif" font-size="10.00">txscaled.h</text>
</a>
</g>
</g>
<!-- Node4&#45;&gt;Node15 -->
<g id="edge15" class="edge">
<title>Node4&#45;&gt;Node15</title>
<path fill="none" stroke="midnightblue" d="M231.5,-440.45C212.51,-431.77 182.04,-417.86 160.05,-407.8"/>
<polygon fill="midnightblue" stroke="midnightblue" points="161.45,-404.6 150.9,-403.63 158.54,-410.96 161.45,-404.6"/>
</g>
<!-- Node23 -->
<g id="node23" class="node">
<title>Node23</title>
<g id="a_node23"><a xlink:title=" ">
<polygon fill="none" stroke="#bfbfbf" points="181.39,-385.5 181.39,-403.5 226.84,-403.5 226.84,-385.5 181.39,-385.5"/>
<text text-anchor="middle" x="204.12" y="-391.5" font-family="Helvetica,sans-Serif" font-size="10.00">cstring</text>
</a>
</g>
</g>
<!-- Node4&#45;&gt;Node23 -->
<g id="edge26" class="edge">
<title>Node4&#45;&gt;Node23</title>
<path fill="none" stroke="midnightblue" d="M242.08,-440.22C235.51,-432.47 225.51,-420.7 217.43,-411.18"/>
<polygon fill="midnightblue" stroke="midnightblue" points="220.09,-408.91 210.95,-403.55 214.75,-413.44 220.09,-408.91"/>
</g>
<!-- Node4&#45;&gt;Node24 -->
<g id="edge27" class="edge">
<title>Node4&#45;&gt;Node24</title>
<path fill="none" stroke="midnightblue" d="M257.87,-440.22C266.22,-432.32 278.99,-420.22 289.16,-410.61"/>
<polygon fill="midnightblue" stroke="midnightblue" points="291.75,-412.97 296.61,-403.55 286.94,-407.88 291.75,-412.97"/>
</g>
<!-- Node6 -->
<g id="node6" class="node">
<title>Node6</title>
<g id="a_node6"><a xlink:href="../../d5/daf/_istring_8h.html" target="_top" xlink:title=" ">
<polygon fill="none" stroke="black" points="170.88,-275.5 170.88,-293.5 251.35,-293.5 251.35,-275.5 170.88,-275.5"/>
<text text-anchor="middle" x="211.12" y="-281.5" font-family="Helvetica,sans-Serif" font-size="10.00">tralics/Istring.h</text>
</a>
</g>
</g>
<!-- Node5&#45;&gt;Node6 -->
<g id="edge5" class="edge">
<title>Node5&#45;&gt;Node6</title>
<path fill="none" stroke="midnightblue" d="M248.24,-330.22C241.87,-322.55 232.23,-310.94 224.37,-301.47"/>
<polygon fill="midnightblue" stroke="midnightblue" points="226.88,-299.01 217.8,-293.55 221.49,-303.48 226.88,-299.01"/>
</g>
<!-- Node14 -->
<g id="node14" class="node">
<title>Node14</title>
<g id="a_node14"><a xlink:title=" ">
<polygon fill="none" stroke="#bfbfbf" points="250.89,-220.5 250.89,-238.5 291.34,-238.5 291.34,-220.5 250.89,-220.5"/>
<text text-anchor="middle" x="271.12" y="-226.5" font-family="Helvetica,sans-Serif" font-size="10.00">string</text>
</a>
</g>
</g>
<!-- Node5&#45;&gt;Node14 -->
<g id="edge14" class="edge">
<title>Node5&#45;&gt;Node14</title>
<path fill="none" stroke="midnightblue" d="M256.32,-330.38C258.87,-313.18 264.86,-272.7 268.39,-248.89"/>
<polygon fill="midnightblue" stroke="midnightblue" points="271.9,-249.12 269.9,-238.71 264.97,-248.09 271.9,-249.12"/>
</g>
<!-- Node7 -->
<g id="node7" class="node">
<title>Node7</title>
<g id="a_node7"><a xlink:href="../../d0/d0b/enums_8h.html" target="_top" xlink:title=" ">
<polygon fill="none" stroke="black" points="126.94,-165.5 126.94,-183.5 181.29,-183.5 181.29,-165.5 126.94,-165.5"/>
<text text-anchor="middle" x="154.12" y="-171.5" font-family="Helvetica,sans-Serif" font-size="10.00">enums.h</text>
</a>
</g>
</g>
<!-- Node6&#45;&gt;Node7 -->
<g id="edge6" class="edge">
<title>Node6&#45;&gt;Node7</title>
<path fill="none" stroke="midnightblue" d="M210.53,-275.2C209.35,-262.59 205.9,-238.15 196.12,-220 190.08,-208.8 180.5,-198.34 172.02,-190.38"/>
<polygon fill="midnightblue" stroke="midnightblue" points="174.16,-187.61 164.37,-183.57 169.51,-192.84 174.16,-187.61"/>
</g>
<!-- Node13 -->
<g id="node13" class="node">
<title>Node13</title>
<g id="a_node13"><a xlink:title=" ">
<polygon fill="none" stroke="#bfbfbf" points="148.72,-220.5 148.72,-238.5 187.51,-238.5 187.51,-220.5 148.72,-220.5"/>
<text text-anchor="middle" x="168.12" y="-226.5" font-family="Helvetica,sans-Serif" font-size="10.00">array</text>
</a>
</g>
</g>
<!-- Node6&#45;&gt;Node13 -->
<g id="edge12" class="edge">
<title>Node6&#45;&gt;Node13</title>
<path fill="none" stroke="midnightblue" d="M204.4,-275.22C198.18,-267.55 188.75,-255.94 181.07,-246.47"/>
<polygon fill="midnightblue" stroke="midnightblue" points="183.66,-244.11 174.65,-238.55 178.23,-248.52 183.66,-244.11"/>
</g>
<!-- Node6&#45;&gt;Node14 -->
<g id="edge13" class="edge">
<title>Node6&#45;&gt;Node14</title>
<path fill="none" stroke="midnightblue" d="M220.23,-275.45C229.22,-267.51 243.17,-255.19 254.19,-245.45"/>
<polygon fill="midnightblue" stroke="midnightblue" points="256.74,-247.87 261.92,-238.63 252.11,-242.62 256.74,-247.87"/>
</g>
<!-- Node8 -->
<g id="node8" class="node">
<title>Node8</title>
<g id="a_node8"><a xlink:href="../../d8/db5/consts_8h.html" target="_top" xlink:title=" ">
<polygon fill="none" stroke="black" points="127.5,-110.5 127.5,-128.5 180.74,-128.5 180.74,-110.5 127.5,-110.5"/>
<text text-anchor="middle" x="154.12" y="-116.5" font-family="Helvetica,sans-Serif" font-size="10.00">consts.h</text>
</a>
</g>
</g>
<!-- Node7&#45;&gt;Node8 -->
<g id="edge7" class="edge">
<title>Node7&#45;&gt;Node8</title>
<path fill="none" stroke="midnightblue" d="M154.12,-165.22C154.12,-158.18 154.12,-147.81 154.12,-138.83"/>
<polygon fill="midnightblue" stroke="midnightblue" points="157.62,-138.55 154.12,-128.55 150.62,-138.55 157.62,-138.55"/>
</g>
<!-- Node9 -->
<g id="node9" class="node">
<title>Node9</title>
<g id="a_node9"><a xlink:href="../../d9/d49/types_8h.html" target="_top" xlink:title=" ">
<polygon fill="none" stroke="black" points="68,-55.5 68,-73.5 116.24,-73.5 116.24,-55.5 68,-55.5"/>
<text text-anchor="middle" x="92.12" y="-61.5" font-family="Helvetica,sans-Serif" font-size="10.00">types.h</text>
</a>
</g>
</g>
<!-- Node8&#45;&gt;Node9 -->
<g id="edge8" class="edge">
<title>Node8&#45;&gt;Node9</title>
<path fill="none" stroke="midnightblue" d="M144.7,-110.45C135.32,-102.43 120.71,-89.95 109.27,-80.17"/>
<polygon fill="midnightblue" stroke="midnightblue" points="111.5,-77.46 101.62,-73.63 106.95,-82.78 111.5,-77.46"/>
</g>
<!-- Node10 -->
<g id="node10" class="node">
<title>Node10</title>
<g id="a_node10"><a xlink:title=" ">
<polygon fill="none" stroke="#bfbfbf" points="0,-0.5 0,-18.5 48.23,-18.5 48.23,-0.5 0,-0.5"/>
<text text-anchor="middle" x="24.12" y="-6.5" font-family="Helvetica,sans-Serif" font-size="10.00">cassert</text>
</a>
</g>
</g>
<!-- Node9&#45;&gt;Node10 -->
<g id="edge9" class="edge">
<title>Node9&#45;&gt;Node10</title>
<path fill="none" stroke="midnightblue" d="M81.79,-55.45C71.4,-47.36 55.17,-34.7 42.57,-24.88"/>
<polygon fill="midnightblue" stroke="midnightblue" points="44.58,-22.01 34.54,-18.63 40.28,-27.53 44.58,-22.01"/>
</g>
<!-- Node11 -->
<g id="node11" class="node">
<title>Node11</title>
<g id="a_node11"><a xlink:title=" ">
<polygon fill="none" stroke="#bfbfbf" points="66.33,-0.5 66.33,-18.5 117.91,-18.5 117.91,-0.5 66.33,-0.5"/>
<text text-anchor="middle" x="92.12" y="-6.5" font-family="Helvetica,sans-Serif" font-size="10.00">stddef.h</text>
</a>
</g>
</g>
<!-- Node9&#45;&gt;Node11 -->
<g id="edge10" class="edge">
<title>Node9&#45;&gt;Node11</title>
<path fill="none" stroke="midnightblue" d="M92.12,-55.22C92.12,-48.18 92.12,-37.81 92.12,-28.83"/>
<polygon fill="midnightblue" stroke="midnightblue" points="95.62,-28.55 92.12,-18.55 88.62,-28.55 95.62,-28.55"/>
</g>
<!-- Node12 -->
<g id="node12" class="node">
<title>Node12</title>
<g id="a_node12"><a xlink:title=" ">
<polygon fill="none" stroke="#bfbfbf" points="136.05,-0.5 136.05,-18.5 198.18,-18.5 198.18,-0.5 136.05,-0.5"/>
<text text-anchor="middle" x="167.12" y="-6.5" font-family="Helvetica,sans-Serif" font-size="10.00">type_traits</text>
</a>
</g>
</g>
<!-- Node9&#45;&gt;Node12 -->
<g id="edge11" class="edge">
<title>Node9&#45;&gt;Node12</title>
<path fill="none" stroke="midnightblue" d="M103.51,-55.45C115.07,-47.28 133.21,-34.46 147.16,-24.6"/>
<polygon fill="midnightblue" stroke="midnightblue" points="149.47,-27.25 155.62,-18.63 145.43,-21.54 149.47,-27.25"/>
</g>
<!-- Node16 -->
<g id="node16" class="node">
<title>Node16</title>
<g id="a_node16"><a xlink:href="../../dc/d91/txtokenlist_8h.html" target="_top" xlink:title=" ">
<polygon fill="none" stroke="black" points="98.71,-330.5 98.71,-348.5 167.52,-348.5 167.52,-330.5 98.71,-330.5"/>
<text text-anchor="middle" x="133.12" y="-336.5" font-family="Helvetica,sans-Serif" font-size="10.00">txtokenlist.h</text>
</a>
</g>
</g>
<!-- Node15&#45;&gt;Node16 -->
<g id="edge16" class="edge">
<title>Node15&#45;&gt;Node16</title>
<path fill="none" stroke="midnightblue" d="M133.12,-385.22C133.12,-378.18 133.12,-367.81 133.12,-358.83"/>
<polygon fill="midnightblue" stroke="midnightblue" points="136.62,-358.55 133.12,-348.55 129.62,-358.55 136.62,-358.55"/>
</g>
<!-- Node16&#45;&gt;Node6 -->
<g id="edge17" class="edge">
<title>Node16&#45;&gt;Node6</title>
<path fill="none" stroke="midnightblue" d="M144.96,-330.45C157.1,-322.2 176.21,-309.22 190.78,-299.32"/>
<polygon fill="midnightblue" stroke="midnightblue" points="192.85,-302.14 199.16,-293.63 188.92,-296.35 192.85,-302.14"/>
</g>
<!-- Node17 -->
<g id="node17" class="node">
<title>Node17</title>
<g id="a_node17"><a xlink:href="../../dd/dcd/_token_8h.html" target="_top" xlink:title=" ">
<polygon fill="none" stroke="black" points="16.16,-275.5 16.16,-293.5 96.07,-293.5 96.07,-275.5 16.16,-275.5"/>
<text text-anchor="middle" x="56.12" y="-281.5" font-family="Helvetica,sans-Serif" font-size="10.00">tralics/Token.h</text>
</a>
</g>
</g>
<!-- Node16&#45;&gt;Node17 -->
<g id="edge18" class="edge">
<title>Node16&#45;&gt;Node17</title>
<path fill="none" stroke="midnightblue" d="M121.42,-330.45C109.44,-322.2 90.57,-309.22 76.19,-299.32"/>
<polygon fill="midnightblue" stroke="midnightblue" points="78.14,-296.41 67.92,-293.63 74.17,-302.18 78.14,-296.41"/>
</g>
<!-- Node22 -->
<g id="node22" class="node">
<title>Node22</title>
<g id="a_node22"><a xlink:title=" ">
<polygon fill="none" stroke="#bfbfbf" points="113.72,-275.5 113.72,-293.5 152.51,-293.5 152.51,-275.5 113.72,-275.5"/>
<text text-anchor="middle" x="133.12" y="-281.5" font-family="Helvetica,sans-Serif" font-size="10.00">utility</text>
</a>
</g>
</g>
<!-- Node16&#45;&gt;Node22 -->
<g id="edge25" class="edge">
<title>Node16&#45;&gt;Node22</title>
<path fill="none" stroke="midnightblue" d="M133.12,-330.22C133.12,-323.18 133.12,-312.81 133.12,-303.83"/>
<polygon fill="midnightblue" stroke="midnightblue" points="136.62,-303.55 133.12,-293.55 129.62,-303.55 136.62,-303.55"/>
</g>
<!-- Node18 -->
<g id="node18" class="node">
<title>Node18</title>
<g id="a_node18"><a xlink:href="../../d2/d68/_cmd_chr_8h.html" target="_top" xlink:title=" ">
<polygon fill="none" stroke="black" points="22.61,-220.5 22.61,-238.5 83.63,-238.5 83.63,-220.5 22.61,-220.5"/>
<text text-anchor="middle" x="53.12" y="-226.5" font-family="Helvetica,sans-Serif" font-size="10.00">CmdChr.h</text>
</a>
</g>
</g>
<!-- Node17&#45;&gt;Node18 -->
<g id="edge19" class="edge">
<title>Node17&#45;&gt;Node18</title>
<path fill="none" stroke="midnightblue" d="M55.65,-275.22C55.25,-268.18 54.66,-257.81 54.15,-248.83"/>
<polygon fill="midnightblue" stroke="midnightblue" points="57.63,-248.34 53.57,-238.55 50.64,-248.73 57.63,-248.34"/>
</g>
<!-- Node21 -->
<g id="node21" class="node">
<title>Node21</title>
<g id="a_node21"><a xlink:title=" ">
<polygon fill="none" stroke="#bfbfbf" points="101.62,-220.5 101.62,-238.5 130.62,-238.5 130.62,-220.5 101.62,-220.5"/>
<text text-anchor="middle" x="115.73" y="-226.5" font-family="Helvetica,sans-Serif" font-size="10.00">list</text>
</a>
</g>
</g>
<!-- Node17&#45;&gt;Node21 -->
<g id="edge24" class="edge">
<title>Node17&#45;&gt;Node21</title>
<path fill="none" stroke="midnightblue" d="M65.23,-275.45C74.22,-267.51 88.17,-255.19 99.19,-245.45"/>
<polygon fill="midnightblue" stroke="midnightblue" points="101.74,-247.87 106.92,-238.63 97.11,-242.62 101.74,-247.87"/>
</g>
<!-- Node18&#45;&gt;Node7 -->
<g id="edge23" class="edge">
<title>Node18&#45;&gt;Node7</title>
<path fill="none" stroke="midnightblue" d="M68.46,-220.45C84.7,-211.93 110.57,-198.35 129.63,-188.35"/>
<polygon fill="midnightblue" stroke="midnightblue" points="131.4,-191.37 138.63,-183.63 128.15,-185.17 131.4,-191.37"/>
</g>
<!-- Node19 -->
<g id="node19" class="node">
<title>Node19</title>
<g id="a_node19"><a xlink:href="../../d8/d47/codepoint_8h.html" target="_top" xlink:title=" ">
<polygon fill="none" stroke="black" points="19.26,-165.5 19.26,-183.5 86.97,-183.5 86.97,-165.5 19.26,-165.5"/>
<text text-anchor="middle" x="53.12" y="-171.5" font-family="Helvetica,sans-Serif" font-size="10.00">codepoint.h</text>
</a>
</g>
</g>
<!-- Node18&#45;&gt;Node19 -->
<g id="edge20" class="edge">
<title>Node18&#45;&gt;Node19</title>
<path fill="none" stroke="midnightblue" d="M53.12,-220.22C53.12,-213.18 53.12,-202.81 53.12,-193.83"/>
<polygon fill="midnightblue" stroke="midnightblue" points="56.62,-193.55 53.12,-183.55 49.62,-193.55 56.62,-193.55"/>
</g>
<!-- Node19&#45;&gt;Node9 -->
<g id="edge21" class="edge">
<title>Node19&#45;&gt;Node9</title>
<path fill="none" stroke="midnightblue" d="M50.42,-165.32C46.78,-152.87 41.58,-128.64 49.12,-110 53.86,-98.26 63.36,-87.89 72.22,-80.12"/>
<polygon fill="midnightblue" stroke="midnightblue" points="74.49,-82.79 80.03,-73.76 70.07,-77.37 74.49,-82.79"/>
</g>
<!-- Node20 -->
<g id="node20" class="node">
<title>Node20</title>
<g id="a_node20"><a xlink:title=" ">
<polygon fill="none" stroke="#bfbfbf" points="58.6,-110.5 58.6,-128.5 109.63,-128.5 109.63,-110.5 58.6,-110.5"/>
<text text-anchor="middle" x="84.12" y="-116.5" font-family="Helvetica,sans-Serif" font-size="10.00">optional</text>
</a>
</g>
</g>
<!-- Node19&#45;&gt;Node20 -->
<g id="edge22" class="edge">
<title>Node19&#45;&gt;Node20</title>
<path fill="none" stroke="midnightblue" d="M57.96,-165.22C62.31,-157.79 68.82,-146.65 74.26,-137.34"/>
<polygon fill="midnightblue" stroke="midnightblue" points="77.38,-138.95 79.41,-128.55 71.34,-135.41 77.38,-138.95"/>
</g>
</g>
</svg>
