<?xml version="1.0" encoding="UTF-8" standalone="no"?>
<!DOCTYPE svg PUBLIC "-//W3C//DTD SVG 1.1//EN"
 "http://www.w3.org/Graphics/SVG/1.1/DTD/svg11.dtd">
<!-- Generated by graphviz version 2.42.3 (20191010.1750)
 -->
<!-- Title: txparser.h Pages: 1 -->
<svg width="2615pt" height="137pt"
 viewBox="0.00 0.00 2614.75 137.00" xmlns="http://www.w3.org/2000/svg" xmlns:xlink="http://www.w3.org/1999/xlink">
<g id="graph0" class="graph" transform="scale(1 1) rotate(0) translate(4 133)">
<title>txparser.h</title>
<!-- Node1 -->
<g id="node1" class="node">
<title>Node1</title>
<g id="a_node1"><a xlink:title=" ">
<polygon fill="#bfbfbf" stroke="black" points="1250.34,-110.5 1250.34,-128.5 1310.25,-128.5 1310.25,-110.5 1250.34,-110.5"/>
<text text-anchor="middle" x="1280.3" y="-116.5" font-family="Helvetica,sans-Serif" font-size="10.00">txparser.h</text>
</a>
</g>
</g>
<!-- Node2 -->
<g id="node2" class="node">
<title>Node2</title>
<g id="a_node2"><a xlink:href="../../da/d77/globals_8cpp.html" target="_top" xlink:title=" ">
<polygon fill="none" stroke="black" points="0,-55.5 0,-73.5 66.59,-73.5 66.59,-55.5 0,-55.5"/>
<text text-anchor="middle" x="33.3" y="-61.5" font-family="Helvetica,sans-Serif" font-size="10.00">globals.cpp</text>
</a>
</g>
</g>
<!-- Node1&#45;&gt;Node2 -->
<g id="edge1" class="edge">
<title>Node1&#45;&gt;Node2</title>
<path fill="none" stroke="midnightblue" d="M1240.12,-117.9C1057.97,-115.02 308.42,-101.71 75.3,-74 72.49,-73.67 69.59,-73.24 66.69,-72.77"/>
<polygon fill="midnightblue" stroke="midnightblue" points="1240.27,-121.4 1250.32,-118.06 1240.38,-114.4 1240.27,-121.4"/>
</g>
<!-- Node3 -->
<g id="node3" class="node">
<title>Node3</title>
<g id="a_node3"><a xlink:href="../../df/d37/_main_class_8cpp.html" target="_top" xlink:title=" ">
<polygon fill="none" stroke="black" points="84.5,-55.5 84.5,-73.5 166.09,-73.5 166.09,-55.5 84.5,-55.5"/>
<text text-anchor="middle" x="125.3" y="-61.5" font-family="Helvetica,sans-Serif" font-size="10.00">MainClass.cpp</text>
</a>
</g>
</g>
<!-- Node1&#45;&gt;Node3 -->
<g id="edge2" class="edge">
<title>Node1&#45;&gt;Node3</title>
<path fill="none" stroke="midnightblue" d="M1240.12,-118.79C1095.64,-119.42 589.09,-118.13 174.3,-74 171.63,-73.72 168.9,-73.38 166.15,-73"/>
<polygon fill="midnightblue" stroke="midnightblue" points="1240.29,-122.29 1250.28,-118.74 1240.26,-115.29 1240.29,-122.29"/>
</g>
<!-- Node4 -->
<g id="node4" class="node">
<title>Node4</title>
<g id="a_node4"><a xlink:href="../../d5/ddd/tralics_8cpp.html" target="_top" xlink:title=" ">
<polygon fill="none" stroke="black" points="183.79,-55.5 183.79,-73.5 244.8,-73.5 244.8,-55.5 183.79,-55.5"/>
<text text-anchor="middle" x="214.3" y="-61.5" font-family="Helvetica,sans-Serif" font-size="10.00">tralics.cpp</text>
</a>
</g>
</g>
<!-- Node1&#45;&gt;Node4 -->
<g id="edge3" class="edge">
<title>Node1&#45;&gt;Node4</title>
<path fill="none" stroke="midnightblue" d="M1239.84,-117.64C1074.56,-114.01 450.08,-98.87 254.3,-74 251.34,-73.62 248.27,-73.14 245.22,-72.6"/>
<polygon fill="midnightblue" stroke="midnightblue" points="1239.98,-121.15 1250.05,-117.87 1240.13,-114.15 1239.98,-121.15"/>
</g>
<!-- Node5 -->
<g id="node5" class="node">
<title>Node5</title>
<g id="a_node5"><a xlink:href="../../dd/dce/txaccent_8cpp.html" target="_top" xlink:title=" ">
<polygon fill="none" stroke="black" points="263.22,-55.5 263.22,-73.5 335.37,-73.5 335.37,-55.5 263.22,-55.5"/>
<text text-anchor="middle" x="299.3" y="-61.5" font-family="Helvetica,sans-Serif" font-size="10.00">txaccent.cpp</text>
</a>
</g>
</g>
<!-- Node1&#45;&gt;Node5 -->
<g id="edge4" class="edge">
<title>Node1&#45;&gt;Node5</title>
<path fill="none" stroke="midnightblue" d="M1239.99,-118.58C1109.84,-118.42 689.24,-114.58 344.3,-74 341.45,-73.67 338.52,-73.26 335.58,-72.8"/>
<polygon fill="midnightblue" stroke="midnightblue" points="1240.27,-122.08 1250.27,-118.59 1240.27,-115.08 1240.27,-122.08"/>
</g>
<!-- Node6 -->
<g id="node6" class="node">
<title>Node6</title>
<g id="a_node6"><a xlink:href="../../d7/de8/txarray_8cpp.html" target="_top" xlink:title=" ">
<polygon fill="none" stroke="black" points="352.93,-55.5 352.93,-73.5 417.66,-73.5 417.66,-55.5 352.93,-55.5"/>
<text text-anchor="middle" x="385.3" y="-61.5" font-family="Helvetica,sans-Serif" font-size="10.00">txarray.cpp</text>
</a>
</g>
</g>
<!-- Node1&#45;&gt;Node6 -->
<g id="edge5" class="edge">
<title>Node1&#45;&gt;Node6</title>
<path fill="none" stroke="midnightblue" d="M1240.28,-118.5C1117.99,-118.07 738.57,-113.4 427.3,-74 424.2,-73.61 420.98,-73.12 417.78,-72.57"/>
<polygon fill="midnightblue" stroke="midnightblue" points="1240.3,-122 1250.31,-118.53 1240.32,-115 1240.3,-122"/>
</g>
<!-- Node7 -->
<g id="node7" class="node">
<title>Node7</title>
<g id="a_node7"><a xlink:href="../../d1/daa/txaux_8cpp.html" target="_top" xlink:title=" ">
<polygon fill="none" stroke="black" points="435.89,-55.5 435.89,-73.5 494.7,-73.5 494.7,-55.5 435.89,-55.5"/>
<text text-anchor="middle" x="465.3" y="-61.5" font-family="Helvetica,sans-Serif" font-size="10.00">txaux.cpp</text>
</a>
</g>
</g>
<!-- Node1&#45;&gt;Node7 -->
<g id="edge6" class="edge">
<title>Node1&#45;&gt;Node7</title>
<path fill="none" stroke="midnightblue" d="M1239.99,-118.5C1124.59,-118 783.27,-113.07 503.3,-74 500.62,-73.63 497.85,-73.16 495.08,-72.64"/>
<polygon fill="midnightblue" stroke="midnightblue" points="1240.11,-122 1250.12,-118.53 1240.14,-115 1240.11,-122"/>
</g>
<!-- Node8 -->
<g id="node8" class="node">
<title>Node8</title>
<g id="a_node8"><a xlink:href="../../d1/ddd/txbib_8cpp.html" target="_top" xlink:title=" ">
<polygon fill="none" stroke="black" points="512.28,-55.5 512.28,-73.5 568.31,-73.5 568.31,-55.5 512.28,-55.5"/>
<text text-anchor="middle" x="540.3" y="-61.5" font-family="Helvetica,sans-Serif" font-size="10.00">txbib.cpp</text>
</a>
</g>
</g>
<!-- Node1&#45;&gt;Node8 -->
<g id="edge7" class="edge">
<title>Node1&#45;&gt;Node8</title>
<path fill="none" stroke="midnightblue" d="M1240.21,-118.24C1132.42,-117.04 827.64,-110.43 577.3,-74 574.43,-73.58 571.45,-73.06 568.49,-72.47"/>
<polygon fill="midnightblue" stroke="midnightblue" points="1240.27,-121.74 1250.31,-118.34 1240.34,-114.74 1240.27,-121.74"/>
</g>
<!-- Node9 -->
<g id="node9" class="node">
<title>Node9</title>
<g id="a_node9"><a xlink:href="../../de/d74/txbuffer_8cpp.html" target="_top" xlink:title=" ">
<polygon fill="none" stroke="black" points="586.53,-55.5 586.53,-73.5 654.06,-73.5 654.06,-55.5 586.53,-55.5"/>
<text text-anchor="middle" x="620.3" y="-61.5" font-family="Helvetica,sans-Serif" font-size="10.00">txbuffer.cpp</text>
</a>
</g>
</g>
<!-- Node1&#45;&gt;Node9 -->
<g id="edge8" class="edge">
<title>Node1&#45;&gt;Node9</title>
<path fill="none" stroke="midnightblue" d="M1240.19,-117.32C1141.61,-114.04 879.73,-103.08 663.3,-74 660.43,-73.61 657.47,-73.16 654.5,-72.66"/>
<polygon fill="midnightblue" stroke="midnightblue" points="1240.2,-120.82 1250.3,-117.65 1240.42,-113.82 1240.2,-120.82"/>
</g>
<!-- Node10 -->
<g id="node10" class="node">
<title>Node10</title>
<g id="a_node10"><a xlink:href="../../d4/dee/txclasses_8cpp.html" target="_top" xlink:title=" ">
<polygon fill="none" stroke="black" points="672.28,-55.5 672.28,-73.5 748.31,-73.5 748.31,-55.5 672.28,-55.5"/>
<text text-anchor="middle" x="710.3" y="-61.5" font-family="Helvetica,sans-Serif" font-size="10.00">txclasses.cpp</text>
</a>
</g>
</g>
<!-- Node1&#45;&gt;Node10 -->
<g id="edge9" class="edge">
<title>Node1&#45;&gt;Node10</title>
<path fill="none" stroke="midnightblue" d="M1240.04,-116.37C1152.15,-111.43 936.55,-97.78 757.3,-74 754.42,-73.62 751.45,-73.18 748.47,-72.71"/>
<polygon fill="midnightblue" stroke="midnightblue" points="1239.94,-119.87 1250.12,-116.93 1240.33,-112.88 1239.94,-119.87"/>
</g>
<!-- Node11 -->
<g id="node11" class="node">
<title>Node11</title>
<g id="a_node11"><a xlink:href="../../df/d9e/txcommands_8cpp.html" target="_top" xlink:title=" ">
<polygon fill="none" stroke="black" points="766.5,-55.5 766.5,-73.5 858.09,-73.5 858.09,-55.5 766.5,-55.5"/>
<text text-anchor="middle" x="812.3" y="-61.5" font-family="Helvetica,sans-Serif" font-size="10.00">txcommands.cpp</text>
</a>
</g>
</g>
<!-- Node1&#45;&gt;Node11 -->
<g id="edge10" class="edge">
<title>Node1&#45;&gt;Node11</title>
<path fill="none" stroke="midnightblue" d="M1239.82,-114.81C1165.62,-107.91 1002.9,-92.08 866.3,-74 863.66,-73.65 860.96,-73.28 858.23,-72.89"/>
<polygon fill="midnightblue" stroke="midnightblue" points="1239.83,-118.33 1250.11,-115.77 1240.47,-111.36 1239.83,-118.33"/>
</g>
<!-- Node12 -->
<g id="node12" class="node">
<title>Node12</title>
<g id="a_node12"><a xlink:href="../../df/d98/txconfig_8cpp.html" target="_top" xlink:title=" ">
<polygon fill="none" stroke="black" points="875.61,-55.5 875.61,-73.5 944.98,-73.5 944.98,-55.5 875.61,-55.5"/>
<text text-anchor="middle" x="910.3" y="-61.5" font-family="Helvetica,sans-Serif" font-size="10.00">txconfig.cpp</text>
</a>
</g>
</g>
<!-- Node1&#45;&gt;Node12 -->
<g id="edge11" class="edge">
<title>Node1&#45;&gt;Node12</title>
<path fill="none" stroke="midnightblue" d="M1240.01,-113.73C1178.33,-106.26 1056.86,-90.89 954.3,-74 951.38,-73.52 948.36,-72.99 945.33,-72.45"/>
<polygon fill="midnightblue" stroke="midnightblue" points="1239.75,-117.22 1250.1,-114.94 1240.59,-110.27 1239.75,-117.22"/>
</g>
<!-- Node13 -->
<g id="node13" class="node">
<title>Node13</title>
<g id="a_node13"><a xlink:href="../../d8/d02/txerr_8cpp.html" target="_top" xlink:title=" ">
<polygon fill="none" stroke="black" points="963.12,-55.5 963.12,-73.5 1017.47,-73.5 1017.47,-55.5 963.12,-55.5"/>
<text text-anchor="middle" x="990.3" y="-61.5" font-family="Helvetica,sans-Serif" font-size="10.00">txerr.cpp</text>
</a>
</g>
</g>
<!-- Node1&#45;&gt;Node13 -->
<g id="edge12" class="edge">
<title>Node1&#45;&gt;Node13</title>
<path fill="none" stroke="midnightblue" d="M1239.96,-112.18C1189.75,-104.14 1101.42,-89.44 1026.3,-74 1023.53,-73.43 1020.65,-72.81 1017.78,-72.16"/>
<polygon fill="midnightblue" stroke="midnightblue" points="1239.65,-115.68 1250.08,-113.79 1240.76,-108.76 1239.65,-115.68"/>
</g>
<!-- Node14 -->
<g id="node14" class="node">
<title>Node14</title>
<g id="a_node14"><a xlink:href="../../d6/dc0/txfonts_8cpp.html" target="_top" xlink:title=" ">
<polygon fill="none" stroke="black" points="1035.12,-55.5 1035.12,-73.5 1099.48,-73.5 1099.48,-55.5 1035.12,-55.5"/>
<text text-anchor="middle" x="1067.3" y="-61.5" font-family="Helvetica,sans-Serif" font-size="10.00">txfonts.cpp</text>
</a>
</g>
</g>
<!-- Node1&#45;&gt;Node14 -->
<g id="edge13" class="edge">
<title>Node1&#45;&gt;Node14</title>
<path fill="none" stroke="midnightblue" d="M1240.38,-108.57C1199.7,-98.44 1137.36,-82.93 1099.65,-73.55"/>
<polygon fill="midnightblue" stroke="midnightblue" points="1239.68,-112 1250.23,-111.02 1241.37,-105.21 1239.68,-112"/>
</g>
<!-- Node15 -->
<g id="node15" class="node">
<title>Node15</title>
<g id="a_node15"><a xlink:href="../../d7/d80/txfp_8cpp.html" target="_top" xlink:title=" ">
<polygon fill="none" stroke="black" points="1117.79,-55.5 1117.79,-73.5 1168.81,-73.5 1168.81,-55.5 1117.79,-55.5"/>
<text text-anchor="middle" x="1143.3" y="-61.5" font-family="Helvetica,sans-Serif" font-size="10.00">txfp.cpp</text>
</a>
</g>
</g>
<!-- Node1&#45;&gt;Node15 -->
<g id="edge14" class="edge">
<title>Node1&#45;&gt;Node15</title>
<path fill="none" stroke="midnightblue" d="M1250.1,-106.82C1224.09,-96.76 1187.21,-82.49 1164.3,-73.63"/>
<polygon fill="midnightblue" stroke="midnightblue" points="1248.9,-110.11 1259.49,-110.45 1251.42,-103.58 1248.9,-110.11"/>
</g>
<!-- Node16 -->
<g id="node16" class="node">
<title>Node16</title>
<g id="a_node16"><a xlink:href="../../d0/d1f/txio_8cpp.html" target="_top" xlink:title=" ">
<polygon fill="none" stroke="black" points="1187.06,-55.5 1187.06,-73.5 1237.53,-73.5 1237.53,-55.5 1187.06,-55.5"/>
<text text-anchor="middle" x="1212.3" y="-61.5" font-family="Helvetica,sans-Serif" font-size="10.00">txio.cpp</text>
</a>
</g>
</g>
<!-- Node1&#45;&gt;Node16 -->
<g id="edge15" class="edge">
<title>Node1&#45;&gt;Node16</title>
<path fill="none" stroke="midnightblue" d="M1261.96,-104.21C1249.38,-94.41 1233.14,-81.75 1222.72,-73.63"/>
<polygon fill="midnightblue" stroke="midnightblue" points="1259.93,-107.06 1269.97,-110.45 1264.23,-101.54 1259.93,-107.06"/>
</g>
<!-- Node17 -->
<g id="node17" class="node">
<title>Node17</title>
<g id="a_node17"><a xlink:href="../../d0/dc3/txl3_8cpp.html" target="_top" xlink:title=" ">
<polygon fill="none" stroke="black" points="1255.06,-55.5 1255.06,-73.5 1305.53,-73.5 1305.53,-55.5 1255.06,-55.5"/>
<text text-anchor="middle" x="1280.3" y="-61.5" font-family="Helvetica,sans-Serif" font-size="10.00">txl3.cpp</text>
</a>
</g>
</g>
<!-- Node1&#45;&gt;Node17 -->
<g id="edge16" class="edge">
<title>Node1&#45;&gt;Node17</title>
<path fill="none" stroke="midnightblue" d="M1280.3,-100.17C1280.3,-91.09 1280.3,-80.59 1280.3,-73.55"/>
<polygon fill="midnightblue" stroke="midnightblue" points="1276.8,-100.22 1280.3,-110.22 1283.8,-100.22 1276.8,-100.22"/>
</g>
<!-- Node18 -->
<g id="node18" class="node">
<title>Node18</title>
<g id="a_node18"><a xlink:href="../../d4/dd9/txmath_8cpp.html" target="_top" xlink:title=" ">
<polygon fill="none" stroke="black" points="1323.84,-55.5 1323.84,-73.5 1388.75,-73.5 1388.75,-55.5 1323.84,-55.5"/>
<text text-anchor="middle" x="1356.3" y="-61.5" font-family="Helvetica,sans-Serif" font-size="10.00">txmath.cpp</text>
</a>
</g>
</g>
<!-- Node1&#45;&gt;Node18 -->
<g id="edge17" class="edge">
<title>Node1&#45;&gt;Node18</title>
<path fill="none" stroke="midnightblue" d="M1300.38,-104.49C1314.5,-94.65 1332.89,-81.83 1344.64,-73.63"/>
<polygon fill="midnightblue" stroke="midnightblue" points="1298.04,-101.86 1291.84,-110.45 1302.04,-107.6 1298.04,-101.86"/>
</g>
<!-- Node19 -->
<g id="node19" class="node">
<title>Node19</title>
<g id="a_node19"><a xlink:href="../../dc/d78/txmath1_8cpp.html" target="_top" xlink:title=" ">
<polygon fill="none" stroke="black" points="1407.06,-55.5 1407.06,-73.5 1477.53,-73.5 1477.53,-55.5 1407.06,-55.5"/>
<text text-anchor="middle" x="1442.3" y="-61.5" font-family="Helvetica,sans-Serif" font-size="10.00">txmath1.cpp</text>
</a>
</g>
</g>
<!-- Node1&#45;&gt;Node19 -->
<g id="edge18" class="edge">
<title>Node1&#45;&gt;Node19</title>
<path fill="none" stroke="midnightblue" d="M1314.41,-107.34C1345.35,-97.22 1390.18,-82.55 1417.73,-73.54"/>
<polygon fill="midnightblue" stroke="midnightblue" points="1313.32,-104.01 1304.9,-110.45 1315.49,-110.67 1313.32,-104.01"/>
</g>
<!-- Node20 -->
<g id="node20" class="node">
<title>Node20</title>
<g id="a_node20"><a xlink:href="../../d9/d59/txmathboot_8cpp.html" target="_top" xlink:title=" ">
<polygon fill="none" stroke="black" points="1495.11,-55.5 1495.11,-73.5 1579.48,-73.5 1579.48,-55.5 1495.11,-55.5"/>
<text text-anchor="middle" x="1537.3" y="-61.5" font-family="Helvetica,sans-Serif" font-size="10.00">txmathboot.cpp</text>
</a>
</g>
</g>
<!-- Node1&#45;&gt;Node20 -->
<g id="edge19" class="edge">
<title>Node1&#45;&gt;Node20</title>
<path fill="none" stroke="midnightblue" d="M1320.11,-110.29C1368.65,-100.28 1450.14,-83.47 1498.3,-73.54"/>
<polygon fill="midnightblue" stroke="midnightblue" points="1319.37,-106.87 1310.28,-112.32 1320.78,-113.72 1319.37,-106.87"/>
</g>
<!-- Node21 -->
<g id="node21" class="node">
<title>Node21</title>
<g id="a_node21"><a xlink:href="../../de/de4/txmlio_8cpp.html" target="_top" xlink:title=" ">
<polygon fill="none" stroke="black" points="1597.79,-55.5 1597.79,-73.5 1658.8,-73.5 1658.8,-55.5 1597.79,-55.5"/>
<text text-anchor="middle" x="1628.3" y="-61.5" font-family="Helvetica,sans-Serif" font-size="10.00">txmlio.cpp</text>
</a>
</g>
</g>
<!-- Node1&#45;&gt;Node21 -->
<g id="edge20" class="edge">
<title>Node1&#45;&gt;Node21</title>
<path fill="none" stroke="midnightblue" d="M1320.59,-113.54C1379.54,-106.09 1492.71,-91.04 1588.3,-74 1591.37,-73.45 1594.57,-72.84 1597.76,-72.2"/>
<polygon fill="midnightblue" stroke="midnightblue" points="1320.05,-110.08 1310.57,-114.8 1320.93,-117.02 1320.05,-110.08"/>
</g>
<!-- Node22 -->
<g id="node22" class="node">
<title>Node22</title>
<g id="a_node22"><a xlink:href="../../df/da9/txparser_8cpp.html" target="_top" xlink:title=" ">
<polygon fill="none" stroke="black" points="1677.06,-55.5 1677.06,-73.5 1747.53,-73.5 1747.53,-55.5 1677.06,-55.5"/>
<text text-anchor="middle" x="1712.3" y="-61.5" font-family="Helvetica,sans-Serif" font-size="10.00">txparser.cpp</text>
</a>
</g>
</g>
<!-- Node1&#45;&gt;Node22 -->
<g id="edge21" class="edge">
<title>Node1&#45;&gt;Node22</title>
<path fill="none" stroke="midnightblue" d="M1320.84,-114.88C1391.58,-108.34 1542.08,-93.4 1668.3,-74 1671.06,-73.57 1673.92,-73.1 1676.79,-72.6"/>
<polygon fill="midnightblue" stroke="midnightblue" points="1320.22,-111.42 1310.59,-115.82 1320.86,-118.39 1320.22,-111.42"/>
</g>
<!-- Node23 -->
<g id="node23" class="node">
<title>Node23</title>
<g id="a_node23"><a xlink:href="../../da/d5e/txparser2_8h.html" target="_top" xlink:title=" ">
<polygon fill="none" stroke="black" points="1765.28,-55.5 1765.28,-73.5 1831.31,-73.5 1831.31,-55.5 1765.28,-55.5"/>
<text text-anchor="middle" x="1798.3" y="-61.5" font-family="Helvetica,sans-Serif" font-size="10.00">txparser2.h</text>
</a>
</g>
</g>
<!-- Node1&#45;&gt;Node23 -->
<g id="edge22" class="edge">
<title>Node1&#45;&gt;Node23</title>
<path fill="none" stroke="midnightblue" d="M1320.67,-116.18C1402.95,-111.13 1595.82,-97.67 1756.3,-74 1759.09,-73.59 1761.98,-73.11 1764.88,-72.6"/>
<polygon fill="midnightblue" stroke="midnightblue" points="1320.27,-112.7 1310.5,-116.8 1320.7,-119.69 1320.27,-112.7"/>
</g>
<!-- Node25 -->
<g id="node25" class="node">
<title>Node25</title>
<g id="a_node25"><a xlink:href="../../de/da4/txparser3_8cpp.html" target="_top" xlink:title=" ">
<polygon fill="none" stroke="black" points="1849,-55.5 1849,-73.5 1925.59,-73.5 1925.59,-55.5 1849,-55.5"/>
<text text-anchor="middle" x="1887.3" y="-61.5" font-family="Helvetica,sans-Serif" font-size="10.00">txparser3.cpp</text>
</a>
</g>
</g>
<!-- Node1&#45;&gt;Node25 -->
<g id="edge24" class="edge">
<title>Node1&#45;&gt;Node25</title>
<path fill="none" stroke="midnightblue" d="M1320.47,-116.68C1412.65,-112.22 1646.36,-99.18 1840.3,-74 1843.09,-73.64 1845.97,-73.22 1848.87,-72.77"/>
<polygon fill="midnightblue" stroke="midnightblue" points="1320.28,-113.19 1310.45,-117.16 1320.61,-120.18 1320.28,-113.19"/>
</g>
<!-- Node26 -->
<g id="node26" class="node">
<title>Node26</title>
<g id="a_node26"><a xlink:href="../../d6/d4a/txpost_8cpp.html" target="_top" xlink:title=" ">
<polygon fill="none" stroke="black" points="1943.5,-55.5 1943.5,-73.5 2005.09,-73.5 2005.09,-55.5 1943.5,-55.5"/>
<text text-anchor="middle" x="1974.3" y="-61.5" font-family="Helvetica,sans-Serif" font-size="10.00">txpost.cpp</text>
</a>
</g>
</g>
<!-- Node1&#45;&gt;Node26 -->
<g id="edge25" class="edge">
<title>Node1&#45;&gt;Node26</title>
<path fill="none" stroke="midnightblue" d="M1320.68,-117.74C1423.53,-115.36 1703.51,-106.21 1934.3,-74 1937.25,-73.59 1940.31,-73.08 1943.36,-72.52"/>
<polygon fill="midnightblue" stroke="midnightblue" points="1320.36,-114.24 1310.44,-117.96 1320.51,-121.24 1320.36,-114.24"/>
</g>
<!-- Node27 -->
<g id="node27" class="node">
<title>Node27</title>
<g id="a_node27"><a xlink:href="../../d3/dd3/txra_8cpp.html" target="_top" xlink:title=" ">
<polygon fill="none" stroke="black" points="2023.51,-55.5 2023.51,-73.5 2075.08,-73.5 2075.08,-55.5 2023.51,-55.5"/>
<text text-anchor="middle" x="2049.3" y="-61.5" font-family="Helvetica,sans-Serif" font-size="10.00">txra.cpp</text>
</a>
</g>
</g>
<!-- Node1&#45;&gt;Node27 -->
<g id="edge26" class="edge">
<title>Node1&#45;&gt;Node27</title>
<path fill="none" stroke="midnightblue" d="M1320.66,-118.56C1431.9,-118.19 1751.97,-113.49 2014.3,-74 2017.26,-73.55 2020.35,-72.98 2023.4,-72.33"/>
<polygon fill="midnightblue" stroke="midnightblue" points="1320.55,-115.06 1310.56,-118.58 1320.57,-122.06 1320.55,-115.06"/>
</g>
<!-- Node28 -->
<g id="node28" class="node">
<title>Node28</title>
<g id="a_node28"><a xlink:href="../../df/d8f/txscan_8cpp.html" target="_top" xlink:title=" ">
<polygon fill="none" stroke="black" points="2093.39,-55.5 2093.39,-73.5 2157.2,-73.5 2157.2,-55.5 2093.39,-55.5"/>
<text text-anchor="middle" x="2125.3" y="-61.5" font-family="Helvetica,sans-Serif" font-size="10.00">txscan.cpp</text>
</a>
</g>
</g>
<!-- Node1&#45;&gt;Node28 -->
<g id="edge27" class="edge">
<title>Node1&#45;&gt;Node28</title>
<path fill="none" stroke="midnightblue" d="M1320.38,-118.39C1438.13,-117.61 1792.98,-112.04 2084.3,-74 2087.18,-73.62 2090.16,-73.16 2093.14,-72.64"/>
<polygon fill="midnightblue" stroke="midnightblue" points="1320.36,-114.89 1310.38,-118.45 1320.4,-121.89 1320.36,-114.89"/>
</g>
<!-- Node29 -->
<g id="node29" class="node">
<title>Node29</title>
<g id="a_node29"><a xlink:href="../../d5/dbc/txstack_8cpp.html" target="_top" xlink:title=" ">
<polygon fill="none" stroke="black" points="2175.29,-55.5 2175.29,-73.5 2241.31,-73.5 2241.31,-55.5 2175.29,-55.5"/>
<text text-anchor="middle" x="2208.3" y="-61.5" font-family="Helvetica,sans-Serif" font-size="10.00">txstack.cpp</text>
</a>
</g>
</g>
<!-- Node1&#45;&gt;Node29 -->
<g id="edge28" class="edge">
<title>Node1&#45;&gt;Node29</title>
<path fill="none" stroke="midnightblue" d="M1320.55,-118.61C1446.16,-118.51 1841.86,-114.75 2166.3,-74 2169.1,-73.65 2172,-73.21 2174.9,-72.73"/>
<polygon fill="midnightblue" stroke="midnightblue" points="1320.27,-115.11 1310.27,-118.61 1320.27,-122.11 1320.27,-115.11"/>
</g>
<!-- Node30 -->
<g id="node30" class="node">
<title>Node30</title>
<g id="a_node30"><a xlink:href="../../d1/dc8/txtitlepage_8cpp.html" target="_top" xlink:title=" ">
<polygon fill="none" stroke="black" points="2259.05,-55.5 2259.05,-73.5 2339.54,-73.5 2339.54,-55.5 2259.05,-55.5"/>
<text text-anchor="middle" x="2299.3" y="-61.5" font-family="Helvetica,sans-Serif" font-size="10.00">txtitlepage.cpp</text>
</a>
</g>
</g>
<!-- Node1&#45;&gt;Node30 -->
<g id="edge29" class="edge">
<title>Node1&#45;&gt;Node30</title>
<path fill="none" stroke="midnightblue" d="M1320.72,-118.46C1453.98,-117.96 1891.33,-113.21 2250.3,-74 2253.13,-73.69 2256.04,-73.32 2258.98,-72.91"/>
<polygon fill="midnightblue" stroke="midnightblue" points="1320.56,-114.96 1310.57,-118.5 1320.59,-121.96 1320.56,-114.96"/>
</g>
<!-- Node31 -->
<g id="node31" class="node">
<title>Node31</title>
<g id="a_node31"><a xlink:href="../../d7/d6c/txtoken_8cpp.html" target="_top" xlink:title=" ">
<polygon fill="none" stroke="black" points="2357.72,-55.5 2357.72,-73.5 2424.87,-73.5 2424.87,-55.5 2357.72,-55.5"/>
<text text-anchor="middle" x="2391.3" y="-61.5" font-family="Helvetica,sans-Serif" font-size="10.00">txtoken.cpp</text>
</a>
</g>
</g>
<!-- Node1&#45;&gt;Node31 -->
<g id="edge30" class="edge">
<title>Node1&#45;&gt;Node31</title>
<path fill="none" stroke="midnightblue" d="M1320.98,-119.05C1463.04,-120.48 1950.03,-121.38 2348.3,-74 2351.32,-73.64 2354.45,-73.19 2357.57,-72.67"/>
<polygon fill="midnightblue" stroke="midnightblue" points="1320.62,-115.54 1310.59,-118.93 1320.55,-122.54 1320.62,-115.54"/>
</g>
<!-- Node32 -->
<g id="node32" class="node">
<title>Node32</title>
<g id="a_node32"><a xlink:href="../../dd/da4/txtranslate_8cpp.html" target="_top" xlink:title=" ">
<polygon fill="none" stroke="black" points="2442.78,-55.5 2442.78,-73.5 2523.81,-73.5 2523.81,-55.5 2442.78,-55.5"/>
<text text-anchor="middle" x="2483.3" y="-61.5" font-family="Helvetica,sans-Serif" font-size="10.00">txtranslate.cpp</text>
</a>
</g>
</g>
<!-- Node1&#45;&gt;Node32 -->
<g id="edge31" class="edge">
<title>Node1&#45;&gt;Node32</title>
<path fill="none" stroke="midnightblue" d="M1320.71,-118.88C1469.4,-119.89 2000.03,-119.83 2434.3,-74 2437.04,-73.71 2439.87,-73.36 2442.71,-72.97"/>
<polygon fill="midnightblue" stroke="midnightblue" points="1320.29,-115.38 1310.27,-118.81 1320.24,-122.38 1320.29,-115.38"/>
</g>
<!-- Node33 -->
<g id="node33" class="node">
<title>Node33</title>
<g id="a_node33"><a xlink:href="../../d0/d93/txtrees_8cpp.html" target="_top" xlink:title=" ">
<polygon fill="none" stroke="black" points="2541.84,-55.5 2541.84,-73.5 2606.75,-73.5 2606.75,-55.5 2541.84,-55.5"/>
<text text-anchor="middle" x="2574.3" y="-61.5" font-family="Helvetica,sans-Serif" font-size="10.00">txtrees.cpp</text>
</a>
</g>
</g>
<!-- Node1&#45;&gt;Node33 -->
<g id="edge32" class="edge">
<title>Node1&#45;&gt;Node33</title>
<path fill="none" stroke="midnightblue" d="M1320.56,-117.99C1507.31,-115.46 2290.3,-103.29 2533.3,-74 2536.04,-73.67 2538.87,-73.25 2541.7,-72.77"/>
<polygon fill="midnightblue" stroke="midnightblue" points="1320.32,-114.49 1310.37,-118.12 1320.41,-121.49 1320.32,-114.49"/>
</g>
<!-- Node24 -->
<g id="node24" class="node">
<title>Node24</title>
<g id="a_node24"><a xlink:href="../../d0/d24/txparser2_8cpp.html" target="_top" xlink:title=" ">
<polygon fill="none" stroke="black" points="1760,-0.5 1760,-18.5 1836.59,-18.5 1836.59,-0.5 1760,-0.5"/>
<text text-anchor="middle" x="1798.3" y="-6.5" font-family="Helvetica,sans-Serif" font-size="10.00">txparser2.cpp</text>
</a>
</g>
</g>
<!-- Node23&#45;&gt;Node24 -->
<g id="edge23" class="edge">
<title>Node23&#45;&gt;Node24</title>
<path fill="none" stroke="midnightblue" d="M1798.3,-45.17C1798.3,-36.09 1798.3,-25.59 1798.3,-18.55"/>
<polygon fill="midnightblue" stroke="midnightblue" points="1794.8,-45.22 1798.3,-55.22 1801.8,-45.22 1794.8,-45.22"/>
</g>
</g>
</svg>
