<?xml version="1.0" encoding="UTF-8" standalone="no"?>
<!DOCTYPE svg PUBLIC "-//W3C//DTD SVG 1.1//EN"
 "http://www.w3.org/Graphics/SVG/1.1/DTD/svg11.dtd">
<!-- Generated by graphviz version 2.42.3 (20191010.1750)
 -->
<!-- Title: txparser.h Pages: 1 -->
<svg width="2352pt" height="137pt"
 viewBox="0.00 0.00 2351.88 137.00" xmlns="http://www.w3.org/2000/svg" xmlns:xlink="http://www.w3.org/1999/xlink">
<g id="graph0" class="graph" transform="scale(1 1) rotate(0) translate(4 133)">
<title>txparser.h</title>
<!-- Node1 -->
<g id="node1" class="node">
<title>Node1</title>
<g id="a_node1"><a xlink:title=" ">
<polygon fill="#bfbfbf" stroke="black" points="992.47,-110.5 992.47,-128.5 1052.39,-128.5 1052.39,-110.5 992.47,-110.5"/>
<text text-anchor="middle" x="1022.43" y="-116.5" font-family="Helvetica,sans-Serif" font-size="10.00">txparser.h</text>
</a>
</g>
</g>
<!-- Node2 -->
<g id="node2" class="node">
<title>Node2</title>
<g id="a_node2"><a xlink:href="../../dc/dcf/_buffer_8cpp.html" target="_top" xlink:title=" ">
<polygon fill="none" stroke="black" points="0,-55.5 0,-73.5 60.86,-73.5 60.86,-55.5 0,-55.5"/>
<text text-anchor="middle" x="30.43" y="-61.5" font-family="Helvetica,sans-Serif" font-size="10.00">Buffer.cpp</text>
</a>
</g>
</g>
<!-- Node1&#45;&gt;Node2 -->
<g id="edge1" class="edge">
<title>Node1&#45;&gt;Node2</title>
<path fill="none" stroke="midnightblue" d="M982.24,-118.95C850.73,-119.93 421.54,-119.21 70.43,-74 67.33,-73.6 64.12,-73.09 60.92,-72.51"/>
<polygon fill="midnightblue" stroke="midnightblue" points="982.29,-122.45 992.26,-118.87 982.23,-115.45 982.29,-122.45"/>
</g>
<!-- Node3 -->
<g id="node3" class="node">
<title>Node3</title>
<g id="a_node3"><a xlink:href="../../da/d77/globals_8cpp.html" target="_top" xlink:title=" ">
<polygon fill="none" stroke="black" points="79.13,-55.5 79.13,-73.5 145.72,-73.5 145.72,-55.5 79.13,-55.5"/>
<text text-anchor="middle" x="112.43" y="-61.5" font-family="Helvetica,sans-Serif" font-size="10.00">globals.cpp</text>
</a>
</g>
</g>
<!-- Node1&#45;&gt;Node3 -->
<g id="edge2" class="edge">
<title>Node1&#45;&gt;Node3</title>
<path fill="none" stroke="midnightblue" d="M982.14,-118.55C858.16,-118.27 471.55,-113.99 154.43,-74 151.62,-73.65 148.73,-73.21 145.83,-72.72"/>
<polygon fill="midnightblue" stroke="midnightblue" points="982.3,-122.05 992.3,-118.57 982.31,-115.05 982.3,-122.05"/>
</g>
<!-- Node4 -->
<g id="node4" class="node">
<title>Node4</title>
<g id="a_node4"><a xlink:href="../../df/d37/_main_class_8cpp.html" target="_top" xlink:title=" ">
<polygon fill="none" stroke="black" points="163.64,-55.5 163.64,-73.5 245.22,-73.5 245.22,-55.5 163.64,-55.5"/>
<text text-anchor="middle" x="204.43" y="-61.5" font-family="Helvetica,sans-Serif" font-size="10.00">MainClass.cpp</text>
</a>
</g>
</g>
<!-- Node1&#45;&gt;Node4 -->
<g id="edge3" class="edge">
<title>Node1&#45;&gt;Node4</title>
<path fill="none" stroke="midnightblue" d="M982.17,-117.5C868.39,-114.38 534.85,-103.25 259.43,-74 254.82,-73.51 250,-72.91 245.22,-72.25"/>
<polygon fill="midnightblue" stroke="midnightblue" points="982.08,-121 992.17,-117.77 982.27,-114 982.08,-121"/>
</g>
<!-- Node5 -->
<g id="node5" class="node">
<title>Node5</title>
<g id="a_node5"><a xlink:href="../../db/d59/_saver_8h.html" target="_top" xlink:title=" ">
<polygon fill="none" stroke="black" points="415.03,-55.5 415.03,-73.5 493.83,-73.5 493.83,-55.5 415.03,-55.5"/>
<text text-anchor="middle" x="454.43" y="-61.5" font-family="Helvetica,sans-Serif" font-size="10.00">tralics/Saver.h</text>
</a>
</g>
</g>
<!-- Node1&#45;&gt;Node5 -->
<g id="edge4" class="edge">
<title>Node1&#45;&gt;Node5</title>
<path fill="none" stroke="midnightblue" d="M982.25,-116.03C895.4,-110.47 683.78,-95.73 507.43,-74 503.08,-73.46 498.54,-72.84 494.03,-72.17"/>
<polygon fill="midnightblue" stroke="midnightblue" points="982.25,-119.54 992.45,-116.68 982.7,-112.55 982.25,-119.54"/>
</g>
<!-- Node6 -->
<g id="node6" class="node">
<title>Node6</title>
<g id="a_node6"><a xlink:href="../../dd/dce/txaccent_8cpp.html" target="_top" xlink:title=" ">
<polygon fill="none" stroke="black" points="118.36,-0.5 118.36,-18.5 190.5,-18.5 190.5,-0.5 118.36,-0.5"/>
<text text-anchor="middle" x="154.43" y="-6.5" font-family="Helvetica,sans-Serif" font-size="10.00">txaccent.cpp</text>
</a>
</g>
</g>
<!-- Node1&#45;&gt;Node6 -->
<g id="edge14" class="edge">
<title>Node1&#45;&gt;Node6</title>
<path fill="none" stroke="midnightblue" d="M982.05,-117.58C852.06,-114.38 445.56,-102.28 317.43,-74 288.51,-67.62 209.07,-34.11 172.86,-18.51"/>
<polygon fill="midnightblue" stroke="midnightblue" points="982.26,-121.09 992.34,-117.83 982.43,-114.09 982.26,-121.09"/>
</g>
<!-- Node7 -->
<g id="node7" class="node">
<title>Node7</title>
<g id="a_node7"><a xlink:href="../../d7/de8/txarray_8cpp.html" target="_top" xlink:title=" ">
<polygon fill="none" stroke="black" points="208.07,-0.5 208.07,-18.5 272.79,-18.5 272.79,-0.5 208.07,-0.5"/>
<text text-anchor="middle" x="240.43" y="-6.5" font-family="Helvetica,sans-Serif" font-size="10.00">txarray.cpp</text>
</a>
</g>
</g>
<!-- Node1&#45;&gt;Node7 -->
<g id="edge15" class="edge">
<title>Node1&#45;&gt;Node7</title>
<path fill="none" stroke="midnightblue" d="M981.98,-117.81C858.06,-115.38 485.05,-105.55 368.43,-74 322.93,-61.69 274.46,-32.67 252.49,-18.53"/>
<polygon fill="midnightblue" stroke="midnightblue" points="982.1,-121.31 992.17,-118.01 982.23,-114.32 982.1,-121.31"/>
</g>
<!-- Node8 -->
<g id="node8" class="node">
<title>Node8</title>
<g id="a_node8"><a xlink:href="../../df/d9e/txcommands_8cpp.html" target="_top" xlink:title=" ">
<polygon fill="none" stroke="black" points="290.64,-0.5 290.64,-18.5 382.22,-18.5 382.22,-0.5 290.64,-0.5"/>
<text text-anchor="middle" x="336.43" y="-6.5" font-family="Helvetica,sans-Serif" font-size="10.00">txcommands.cpp</text>
</a>
</g>
</g>
<!-- Node1&#45;&gt;Node8 -->
<g id="edge19" class="edge">
<title>Node1&#45;&gt;Node8</title>
<path fill="none" stroke="midnightblue" d="M982.15,-117.31C852.32,-113.23 450.18,-98.72 397.43,-74 371.13,-61.67 350.27,-32.67 341.26,-18.53"/>
<polygon fill="midnightblue" stroke="midnightblue" points="982.34,-120.81 992.44,-117.63 982.55,-113.82 982.34,-120.81"/>
</g>
<!-- Node9 -->
<g id="node9" class="node">
<title>Node9</title>
<g id="a_node9"><a xlink:href="../../d0/d1f/txio_8cpp.html" target="_top" xlink:title=" ">
<polygon fill="none" stroke="black" points="400.2,-0.5 400.2,-18.5 450.66,-18.5 450.66,-0.5 400.2,-0.5"/>
<text text-anchor="middle" x="425.43" y="-6.5" font-family="Helvetica,sans-Serif" font-size="10.00">txio.cpp</text>
</a>
</g>
</g>
<!-- Node1&#45;&gt;Node9 -->
<g id="edge24" class="edge">
<title>Node1&#45;&gt;Node9</title>
<path fill="none" stroke="midnightblue" d="M982.1,-118.69C851.38,-118.89 445.58,-116.09 406.43,-74 391.85,-58.33 408.49,-31.91 418.67,-18.63"/>
<polygon fill="midnightblue" stroke="midnightblue" points="982.11,-122.19 992.1,-118.67 982.09,-115.19 982.11,-122.19"/>
</g>
<!-- Node10 -->
<g id="node10" class="node">
<title>Node10</title>
<g id="a_node10"><a xlink:href="../../df/da9/txparser_8cpp.html" target="_top" xlink:title=" ">
<polygon fill="none" stroke="black" points="468.19,-0.5 468.19,-18.5 538.67,-18.5 538.67,-0.5 468.19,-0.5"/>
<text text-anchor="middle" x="503.43" y="-6.5" font-family="Helvetica,sans-Serif" font-size="10.00">txparser.cpp</text>
</a>
</g>
</g>
<!-- Node1&#45;&gt;Node10 -->
<g id="edge30" class="edge">
<title>Node1&#45;&gt;Node10</title>
<path fill="none" stroke="midnightblue" d="M981.95,-116.88C872.64,-112.2 577.29,-97.5 540.43,-74 520.2,-61.1 509.73,-32.9 505.59,-18.83"/>
<polygon fill="midnightblue" stroke="midnightblue" points="982.09,-120.39 992.23,-117.31 982.39,-113.39 982.09,-120.39"/>
</g>
<!-- Node12 -->
<g id="node12" class="node">
<title>Node12</title>
<g id="a_node12"><a xlink:href="../../df/d8f/txscan_8cpp.html" target="_top" xlink:title=" ">
<polygon fill="none" stroke="black" points="651.53,-0.5 651.53,-18.5 715.33,-18.5 715.33,-0.5 651.53,-0.5"/>
<text text-anchor="middle" x="683.43" y="-6.5" font-family="Helvetica,sans-Serif" font-size="10.00">txscan.cpp</text>
</a>
</g>
</g>
<!-- Node1&#45;&gt;Node12 -->
<g id="edge36" class="edge">
<title>Node1&#45;&gt;Node12</title>
<path fill="none" stroke="midnightblue" d="M982.36,-118.96C903.28,-118.97 731.33,-114.24 691.43,-74 676.88,-59.33 679.25,-32.45 681.63,-18.86"/>
<polygon fill="midnightblue" stroke="midnightblue" points="982.44,-122.46 992.43,-118.93 982.42,-115.46 982.44,-122.46"/>
</g>
<!-- Node13 -->
<g id="node13" class="node">
<title>Node13</title>
<g id="a_node13"><a xlink:href="../../dd/da4/txtranslate_8cpp.html" target="_top" xlink:title=" ">
<polygon fill="none" stroke="black" points="732.91,-0.5 732.91,-18.5 813.95,-18.5 813.95,-0.5 732.91,-0.5"/>
<text text-anchor="middle" x="773.43" y="-6.5" font-family="Helvetica,sans-Serif" font-size="10.00">txtranslate.cpp</text>
</a>
</g>
</g>
<!-- Node1&#45;&gt;Node13 -->
<g id="edge40" class="edge">
<title>Node1&#45;&gt;Node13</title>
<path fill="none" stroke="midnightblue" d="M981.97,-119.19C903.79,-119.57 736.5,-115.4 700.43,-74 680.9,-51.58 723.27,-29.81 751.28,-18.51"/>
<polygon fill="midnightblue" stroke="midnightblue" points="982.41,-122.69 992.38,-119.11 982.36,-115.69 982.41,-122.69"/>
</g>
<!-- Node14 -->
<g id="node14" class="node">
<title>Node14</title>
<g id="a_node14"><a xlink:href="../../d5/ddd/tralics_8cpp.html" target="_top" xlink:title=" ">
<polygon fill="none" stroke="black" points="709.92,-55.5 709.92,-73.5 770.94,-73.5 770.94,-55.5 709.92,-55.5"/>
<text text-anchor="middle" x="740.43" y="-61.5" font-family="Helvetica,sans-Serif" font-size="10.00">tralics.cpp</text>
</a>
</g>
</g>
<!-- Node1&#45;&gt;Node14 -->
<g id="edge13" class="edge">
<title>Node1&#45;&gt;Node14</title>
<path fill="none" stroke="midnightblue" d="M982.19,-111.45C934.12,-102.95 851.29,-88.04 780.43,-74 777.36,-73.39 774.17,-72.74 770.99,-72.08"/>
<polygon fill="midnightblue" stroke="midnightblue" points="981.74,-114.92 992.2,-113.22 982.96,-108.03 981.74,-114.92"/>
</g>
<!-- Node15 -->
<g id="node15" class="node">
<title>Node15</title>
<g id="a_node15"><a xlink:href="../../d1/daa/txaux_8cpp.html" target="_top" xlink:title=" ">
<polygon fill="none" stroke="black" points="789.03,-55.5 789.03,-73.5 847.83,-73.5 847.83,-55.5 789.03,-55.5"/>
<text text-anchor="middle" x="818.43" y="-61.5" font-family="Helvetica,sans-Serif" font-size="10.00">txaux.cpp</text>
</a>
</g>
</g>
<!-- Node1&#45;&gt;Node15 -->
<g id="edge16" class="edge">
<title>Node1&#45;&gt;Node15</title>
<path fill="none" stroke="midnightblue" d="M982.5,-108.13C942.99,-97.86 883.43,-82.39 847.99,-73.18"/>
<polygon fill="midnightblue" stroke="midnightblue" points="981.77,-111.55 992.33,-110.68 983.53,-104.78 981.77,-111.55"/>
</g>
<!-- Node16 -->
<g id="node16" class="node">
<title>Node16</title>
<g id="a_node16"><a xlink:href="../../d1/ddd/txbib_8cpp.html" target="_top" xlink:title=" ">
<polygon fill="none" stroke="black" points="865.42,-55.5 865.42,-73.5 921.44,-73.5 921.44,-55.5 865.42,-55.5"/>
<text text-anchor="middle" x="893.43" y="-61.5" font-family="Helvetica,sans-Serif" font-size="10.00">txbib.cpp</text>
</a>
</g>
</g>
<!-- Node1&#45;&gt;Node16 -->
<g id="edge17" class="edge">
<title>Node1&#45;&gt;Node16</title>
<path fill="none" stroke="midnightblue" d="M993.35,-106.55C968.89,-96.5 934.59,-82.41 913.21,-73.63"/>
<polygon fill="midnightblue" stroke="midnightblue" points="992.26,-109.89 1002.84,-110.45 994.92,-103.41 992.26,-109.89"/>
</g>
<!-- Node17 -->
<g id="node17" class="node">
<title>Node17</title>
<g id="a_node17"><a xlink:href="../../d4/dee/txclasses_8cpp.html" target="_top" xlink:title=" ">
<polygon fill="none" stroke="black" points="939.42,-55.5 939.42,-73.5 1015.44,-73.5 1015.44,-55.5 939.42,-55.5"/>
<text text-anchor="middle" x="977.43" y="-61.5" font-family="Helvetica,sans-Serif" font-size="10.00">txclasses.cpp</text>
</a>
</g>
</g>
<!-- Node1&#45;&gt;Node17 -->
<g id="edge18" class="edge">
<title>Node1&#45;&gt;Node17</title>
<path fill="none" stroke="midnightblue" d="M1008.87,-102.53C1000.75,-92.97 990.77,-81.21 984.26,-73.55"/>
<polygon fill="midnightblue" stroke="midnightblue" points="1006.26,-104.86 1015.4,-110.22 1011.59,-100.33 1006.26,-104.86"/>
</g>
<!-- Node18 -->
<g id="node18" class="node">
<title>Node18</title>
<g id="a_node18"><a xlink:href="../../df/d98/txconfig_8cpp.html" target="_top" xlink:title=" ">
<polygon fill="none" stroke="black" points="1033.75,-55.5 1033.75,-73.5 1103.11,-73.5 1103.11,-55.5 1033.75,-55.5"/>
<text text-anchor="middle" x="1068.43" y="-61.5" font-family="Helvetica,sans-Serif" font-size="10.00">txconfig.cpp</text>
</a>
</g>
</g>
<!-- Node1&#45;&gt;Node18 -->
<g id="edge20" class="edge">
<title>Node1&#45;&gt;Node18</title>
<path fill="none" stroke="midnightblue" d="M1036.29,-102.53C1044.59,-92.97 1054.79,-81.21 1061.44,-73.55"/>
<polygon fill="midnightblue" stroke="midnightblue" points="1033.53,-100.37 1029.62,-110.22 1038.81,-104.96 1033.53,-100.37"/>
</g>
<!-- Node19 -->
<g id="node19" class="node">
<title>Node19</title>
<g id="a_node19"><a xlink:href="../../d8/d02/txerr_8cpp.html" target="_top" xlink:title=" ">
<polygon fill="none" stroke="black" points="1121.25,-55.5 1121.25,-73.5 1175.61,-73.5 1175.61,-55.5 1121.25,-55.5"/>
<text text-anchor="middle" x="1148.43" y="-61.5" font-family="Helvetica,sans-Serif" font-size="10.00">txerr.cpp</text>
</a>
</g>
</g>
<!-- Node1&#45;&gt;Node19 -->
<g id="edge21" class="edge">
<title>Node1&#45;&gt;Node19</title>
<path fill="none" stroke="midnightblue" d="M1050.83,-106.55C1074.72,-96.5 1108.23,-82.41 1129.11,-73.63"/>
<polygon fill="midnightblue" stroke="midnightblue" points="1049.43,-103.35 1041.57,-110.45 1052.14,-109.8 1049.43,-103.35"/>
</g>
<!-- Node20 -->
<g id="node20" class="node">
<title>Node20</title>
<g id="a_node20"><a xlink:href="../../d6/dc0/txfonts_8cpp.html" target="_top" xlink:title=" ">
<polygon fill="none" stroke="black" points="1193.25,-55.5 1193.25,-73.5 1257.61,-73.5 1257.61,-55.5 1193.25,-55.5"/>
<text text-anchor="middle" x="1225.43" y="-61.5" font-family="Helvetica,sans-Serif" font-size="10.00">txfonts.cpp</text>
</a>
</g>
</g>
<!-- Node1&#45;&gt;Node20 -->
<g id="edge22" class="edge">
<title>Node1&#45;&gt;Node20</title>
<path fill="none" stroke="midnightblue" d="M1062.73,-107.98C1101.48,-97.86 1159.24,-82.78 1194.5,-73.58"/>
<polygon fill="midnightblue" stroke="midnightblue" points="1061.61,-104.65 1052.82,-110.57 1063.38,-111.43 1061.61,-104.65"/>
</g>
<!-- Node21 -->
<g id="node21" class="node">
<title>Node21</title>
<g id="a_node21"><a xlink:href="../../d7/d80/txfp_8cpp.html" target="_top" xlink:title=" ">
<polygon fill="none" stroke="black" points="1275.92,-55.5 1275.92,-73.5 1326.94,-73.5 1326.94,-55.5 1275.92,-55.5"/>
<text text-anchor="middle" x="1301.43" y="-61.5" font-family="Helvetica,sans-Serif" font-size="10.00">txfp.cpp</text>
</a>
</g>
</g>
<!-- Node1&#45;&gt;Node21 -->
<g id="edge23" class="edge">
<title>Node1&#45;&gt;Node21</title>
<path fill="none" stroke="midnightblue" d="M1062.67,-111.89C1111.16,-103.77 1195.01,-89.17 1266.43,-74 1269.49,-73.35 1272.69,-72.63 1275.85,-71.89"/>
<polygon fill="midnightblue" stroke="midnightblue" points="1061.88,-108.48 1052.59,-113.58 1063.03,-115.38 1061.88,-108.48"/>
</g>
<!-- Node22 -->
<g id="node22" class="node">
<title>Node22</title>
<g id="a_node22"><a xlink:href="../../d0/dc3/txl3_8cpp.html" target="_top" xlink:title=" ">
<polygon fill="none" stroke="black" points="1345.2,-55.5 1345.2,-73.5 1395.66,-73.5 1395.66,-55.5 1345.2,-55.5"/>
<text text-anchor="middle" x="1370.43" y="-61.5" font-family="Helvetica,sans-Serif" font-size="10.00">txl3.cpp</text>
</a>
</g>
</g>
<!-- Node1&#45;&gt;Node22 -->
<g id="edge25" class="edge">
<title>Node1&#45;&gt;Node22</title>
<path fill="none" stroke="midnightblue" d="M1062.65,-114.16C1122.6,-107.38 1238.81,-93.07 1336.43,-74 1339.18,-73.46 1342.03,-72.85 1344.87,-72.19"/>
<polygon fill="midnightblue" stroke="midnightblue" points="1062.02,-110.71 1052.48,-115.3 1062.8,-117.66 1062.02,-110.71"/>
</g>
<!-- Node23 -->
<g id="node23" class="node">
<title>Node23</title>
<g id="a_node23"><a xlink:href="../../d4/dd9/txmath_8cpp.html" target="_top" xlink:title=" ">
<polygon fill="none" stroke="black" points="1413.97,-55.5 1413.97,-73.5 1478.88,-73.5 1478.88,-55.5 1413.97,-55.5"/>
<text text-anchor="middle" x="1446.43" y="-61.5" font-family="Helvetica,sans-Serif" font-size="10.00">txmath.cpp</text>
</a>
</g>
</g>
<!-- Node1&#45;&gt;Node23 -->
<g id="edge26" class="edge">
<title>Node1&#45;&gt;Node23</title>
<path fill="none" stroke="midnightblue" d="M1062.89,-114.91C1132.78,-108.46 1280.56,-93.71 1404.43,-74 1407.51,-73.51 1410.72,-72.95 1413.92,-72.36"/>
<polygon fill="midnightblue" stroke="midnightblue" points="1062.39,-111.44 1052.75,-115.84 1063.03,-118.41 1062.39,-111.44"/>
</g>
<!-- Node24 -->
<g id="node24" class="node">
<title>Node24</title>
<g id="a_node24"><a xlink:href="../../dc/d78/txmath1_8cpp.html" target="_top" xlink:title=" ">
<polygon fill="none" stroke="black" points="1497.19,-55.5 1497.19,-73.5 1567.67,-73.5 1567.67,-55.5 1497.19,-55.5"/>
<text text-anchor="middle" x="1532.43" y="-61.5" font-family="Helvetica,sans-Serif" font-size="10.00">txmath1.cpp</text>
</a>
</g>
</g>
<!-- Node1&#45;&gt;Node24 -->
<g id="edge27" class="edge">
<title>Node1&#45;&gt;Node24</title>
<path fill="none" stroke="midnightblue" d="M1062.69,-115.89C1143.48,-110.38 1331.05,-96.2 1487.43,-74 1490.58,-73.55 1493.84,-73.04 1497.11,-72.49"/>
<polygon fill="midnightblue" stroke="midnightblue" points="1062.2,-112.41 1052.46,-116.58 1062.67,-119.4 1062.2,-112.41"/>
</g>
<!-- Node25 -->
<g id="node25" class="node">
<title>Node25</title>
<g id="a_node25"><a xlink:href="../../d9/d59/txmathboot_8cpp.html" target="_top" xlink:title=" ">
<polygon fill="none" stroke="black" points="1585.24,-55.5 1585.24,-73.5 1669.62,-73.5 1669.62,-55.5 1585.24,-55.5"/>
<text text-anchor="middle" x="1627.43" y="-61.5" font-family="Helvetica,sans-Serif" font-size="10.00">txmathboot.cpp</text>
</a>
</g>
</g>
<!-- Node1&#45;&gt;Node25 -->
<g id="edge28" class="edge">
<title>Node1&#45;&gt;Node25</title>
<path fill="none" stroke="midnightblue" d="M1062.76,-116.44C1154.32,-111.5 1384.82,-97.62 1576.43,-74 1579.28,-73.65 1582.22,-73.25 1585.17,-72.83"/>
<polygon fill="midnightblue" stroke="midnightblue" points="1062.35,-112.96 1052.55,-116.98 1062.72,-119.95 1062.35,-112.96"/>
</g>
<!-- Node26 -->
<g id="node26" class="node">
<title>Node26</title>
<g id="a_node26"><a xlink:href="../../de/de4/txmlio_8cpp.html" target="_top" xlink:title=" ">
<polygon fill="none" stroke="black" points="1687.92,-55.5 1687.92,-73.5 1748.94,-73.5 1748.94,-55.5 1687.92,-55.5"/>
<text text-anchor="middle" x="1718.43" y="-61.5" font-family="Helvetica,sans-Serif" font-size="10.00">txmlio.cpp</text>
</a>
</g>
</g>
<!-- Node1&#45;&gt;Node26 -->
<g id="edge29" class="edge">
<title>Node1&#45;&gt;Node26</title>
<path fill="none" stroke="midnightblue" d="M1062.94,-117.75C1166.1,-115.39 1446.94,-106.28 1678.43,-74 1681.38,-73.59 1684.44,-73.08 1687.5,-72.53"/>
<polygon fill="midnightblue" stroke="midnightblue" points="1062.58,-114.25 1052.66,-117.97 1062.74,-121.25 1062.58,-114.25"/>
</g>
<!-- Node27 -->
<g id="node27" class="node">
<title>Node27</title>
<g id="a_node27"><a xlink:href="../../da/d5e/txparser2_8h.html" target="_top" xlink:title=" ">
<polygon fill="none" stroke="black" points="549.42,-55.5 549.42,-73.5 615.44,-73.5 615.44,-55.5 549.42,-55.5"/>
<text text-anchor="middle" x="582.43" y="-61.5" font-family="Helvetica,sans-Serif" font-size="10.00">txparser2.h</text>
</a>
</g>
</g>
<!-- Node1&#45;&gt;Node27 -->
<g id="edge31" class="edge">
<title>Node1&#45;&gt;Node27</title>
<path fill="none" stroke="midnightblue" d="M981.93,-114.81C910.54,-108.1 757.7,-92.84 629.43,-74 624.92,-73.34 620.17,-72.57 615.51,-71.77"/>
<polygon fill="midnightblue" stroke="midnightblue" points="981.98,-118.33 992.27,-115.77 982.63,-111.36 981.98,-118.33"/>
</g>
<!-- Node28 -->
<g id="node28" class="node">
<title>Node28</title>
<g id="a_node28"><a xlink:href="../../de/da4/txparser3_8cpp.html" target="_top" xlink:title=" ">
<polygon fill="none" stroke="black" points="1767.14,-55.5 1767.14,-73.5 1843.72,-73.5 1843.72,-55.5 1767.14,-55.5"/>
<text text-anchor="middle" x="1805.43" y="-61.5" font-family="Helvetica,sans-Serif" font-size="10.00">txparser3.cpp</text>
</a>
</g>
</g>
<!-- Node1&#45;&gt;Node28 -->
<g id="edge33" class="edge">
<title>Node1&#45;&gt;Node28</title>
<path fill="none" stroke="midnightblue" d="M1062.8,-117.74C1174.05,-115.28 1494.33,-105.75 1758.43,-74 1761.23,-73.66 1764.11,-73.27 1767.01,-72.83"/>
<polygon fill="midnightblue" stroke="midnightblue" points="1062.61,-114.24 1052.69,-117.95 1062.76,-121.24 1062.61,-114.24"/>
</g>
<!-- Node29 -->
<g id="node29" class="node">
<title>Node29</title>
<g id="a_node29"><a xlink:href="../../d6/d4a/txpost_8cpp.html" target="_top" xlink:title=" ">
<polygon fill="none" stroke="black" points="1861.64,-55.5 1861.64,-73.5 1923.22,-73.5 1923.22,-55.5 1861.64,-55.5"/>
<text text-anchor="middle" x="1892.43" y="-61.5" font-family="Helvetica,sans-Serif" font-size="10.00">txpost.cpp</text>
</a>
</g>
</g>
<!-- Node1&#45;&gt;Node29 -->
<g id="edge34" class="edge">
<title>Node1&#45;&gt;Node29</title>
<path fill="none" stroke="midnightblue" d="M1062.98,-118.56C1183.71,-118.25 1551.09,-113.85 1852.43,-74 1855.39,-73.61 1858.45,-73.12 1861.5,-72.57"/>
<polygon fill="midnightblue" stroke="midnightblue" points="1062.73,-115.06 1052.73,-118.57 1062.74,-122.06 1062.73,-115.06"/>
</g>
<!-- Node30 -->
<g id="node30" class="node">
<title>Node30</title>
<g id="a_node30"><a xlink:href="../../d3/dd3/txra_8cpp.html" target="_top" xlink:title=" ">
<polygon fill="none" stroke="black" points="1941.64,-55.5 1941.64,-73.5 1993.21,-73.5 1993.21,-55.5 1941.64,-55.5"/>
<text text-anchor="middle" x="1967.43" y="-61.5" font-family="Helvetica,sans-Serif" font-size="10.00">txra.cpp</text>
</a>
</g>
</g>
<!-- Node1&#45;&gt;Node30 -->
<g id="edge35" class="edge">
<title>Node1&#45;&gt;Node30</title>
<path fill="none" stroke="midnightblue" d="M1062.72,-117.55C1215.73,-113.76 1760.82,-98.81 1932.43,-74 1935.4,-73.57 1938.49,-73 1941.54,-72.37"/>
<polygon fill="midnightblue" stroke="midnightblue" points="1062.3,-114.05 1052.39,-117.8 1062.47,-121.05 1062.3,-114.05"/>
</g>
<!-- Node31 -->
<g id="node31" class="node">
<title>Node31</title>
<g id="a_node31"><a xlink:href="../../d5/dbc/txstack_8cpp.html" target="_top" xlink:title=" ">
<polygon fill="none" stroke="black" points="2011.42,-55.5 2011.42,-73.5 2077.44,-73.5 2077.44,-55.5 2011.42,-55.5"/>
<text text-anchor="middle" x="2044.43" y="-61.5" font-family="Helvetica,sans-Serif" font-size="10.00">txstack.cpp</text>
</a>
</g>
</g>
<!-- Node1&#45;&gt;Node31 -->
<g id="edge37" class="edge">
<title>Node1&#45;&gt;Node31</title>
<path fill="none" stroke="midnightblue" d="M1062.86,-118.89C1197.09,-119.72 1639.94,-118.64 2002.43,-74 2005.24,-73.65 2008.13,-73.22 2011.03,-72.74"/>
<polygon fill="midnightblue" stroke="midnightblue" points="1062.67,-115.39 1052.64,-118.82 1062.62,-122.39 1062.67,-115.39"/>
</g>
<!-- Node32 -->
<g id="node32" class="node">
<title>Node32</title>
<g id="a_node32"><a xlink:href="../../d1/dc8/txtitlepage_8cpp.html" target="_top" xlink:title=" ">
<polygon fill="none" stroke="black" points="2095.19,-55.5 2095.19,-73.5 2175.67,-73.5 2175.67,-55.5 2095.19,-55.5"/>
<text text-anchor="middle" x="2135.43" y="-61.5" font-family="Helvetica,sans-Serif" font-size="10.00">txtitlepage.cpp</text>
</a>
</g>
</g>
<!-- Node1&#45;&gt;Node32 -->
<g id="edge38" class="edge">
<title>Node1&#45;&gt;Node32</title>
<path fill="none" stroke="midnightblue" d="M1062.92,-118.7C1204.33,-118.98 1689.13,-116.58 2086.43,-74 2089.26,-73.7 2092.18,-73.33 2095.11,-72.92"/>
<polygon fill="midnightblue" stroke="midnightblue" points="1062.59,-115.2 1052.58,-118.67 1062.57,-122.2 1062.59,-115.2"/>
</g>
<!-- Node33 -->
<g id="node33" class="node">
<title>Node33</title>
<g id="a_node33"><a xlink:href="../../d7/d6c/txtoken_8cpp.html" target="_top" xlink:title=" ">
<polygon fill="none" stroke="black" points="2193.86,-55.5 2193.86,-73.5 2261,-73.5 2261,-55.5 2193.86,-55.5"/>
<text text-anchor="middle" x="2227.43" y="-61.5" font-family="Helvetica,sans-Serif" font-size="10.00">txtoken.cpp</text>
</a>
</g>
</g>
<!-- Node1&#45;&gt;Node33 -->
<g id="edge39" class="edge">
<title>Node1&#45;&gt;Node33</title>
<path fill="none" stroke="midnightblue" d="M1062.88,-117.8C1241.47,-114.6 1960.3,-100.28 2184.43,-74 2187.45,-73.65 2190.58,-73.19 2193.71,-72.69"/>
<polygon fill="midnightblue" stroke="midnightblue" points="1062.56,-114.31 1052.63,-117.99 1062.69,-121.31 1062.56,-114.31"/>
</g>
<!-- Node34 -->
<g id="node34" class="node">
<title>Node34</title>
<g id="a_node34"><a xlink:href="../../d0/d93/txtrees_8cpp.html" target="_top" xlink:title=" ">
<polygon fill="none" stroke="black" points="2278.97,-55.5 2278.97,-73.5 2343.88,-73.5 2343.88,-55.5 2278.97,-55.5"/>
<text text-anchor="middle" x="2311.43" y="-61.5" font-family="Helvetica,sans-Serif" font-size="10.00">txtrees.cpp</text>
</a>
</g>
</g>
<!-- Node1&#45;&gt;Node34 -->
<g id="edge41" class="edge">
<title>Node1&#45;&gt;Node34</title>
<path fill="none" stroke="midnightblue" d="M1062.84,-117.98C1249.39,-115.42 2028.54,-103.18 2270.43,-74 2273.17,-73.67 2276,-73.25 2278.84,-72.77"/>
<polygon fill="midnightblue" stroke="midnightblue" points="1062.6,-114.48 1052.65,-118.12 1062.7,-121.48 1062.6,-114.48"/>
</g>
<!-- Node5&#45;&gt;Node6 -->
<g id="edge5" class="edge">
<title>Node5&#45;&gt;Node6</title>
<path fill="none" stroke="midnightblue" d="M404.47,-54.99C353.03,-46.19 270.58,-31.93 199.43,-19 196.61,-18.49 193.7,-17.95 190.77,-17.41"/>
<polygon fill="midnightblue" stroke="midnightblue" points="404.2,-58.5 414.65,-56.73 405.38,-51.6 404.2,-58.5"/>
</g>
<!-- Node5&#45;&gt;Node7 -->
<g id="edge6" class="edge">
<title>Node5&#45;&gt;Node7</title>
<path fill="none" stroke="midnightblue" d="M411.99,-52.99C371.07,-42.86 310.05,-27.74 272.89,-18.54"/>
<polygon fill="midnightblue" stroke="midnightblue" points="411.38,-56.44 421.93,-55.45 413.06,-49.65 411.38,-56.44"/>
</g>
<!-- Node5&#45;&gt;Node8 -->
<g id="edge7" class="edge">
<title>Node5&#45;&gt;Node8</title>
<path fill="none" stroke="midnightblue" d="M427.23,-51.28C404.9,-41.25 373.91,-27.33 354.52,-18.63"/>
<polygon fill="midnightblue" stroke="midnightblue" points="425.95,-54.55 436.51,-55.45 428.82,-48.16 425.95,-54.55"/>
</g>
<!-- Node5&#45;&gt;Node9 -->
<g id="edge8" class="edge">
<title>Node5&#45;&gt;Node9</title>
<path fill="none" stroke="midnightblue" d="M445.05,-46.36C439.94,-37.02 433.86,-25.9 429.83,-18.55"/>
<polygon fill="midnightblue" stroke="midnightblue" points="442.03,-48.13 449.9,-55.22 448.17,-44.77 442.03,-48.13"/>
</g>
<!-- Node5&#45;&gt;Node10 -->
<g id="edge9" class="edge">
<title>Node5&#45;&gt;Node10</title>
<path fill="none" stroke="midnightblue" d="M468.92,-47.82C477.82,-38.21 488.83,-26.29 495.99,-18.55"/>
<polygon fill="midnightblue" stroke="midnightblue" points="466.3,-45.5 462.09,-55.22 471.44,-50.25 466.3,-45.5"/>
</g>
<!-- Node11 -->
<g id="node11" class="node">
<title>Node11</title>
<g id="a_node11"><a xlink:href="../../d0/d24/txparser2_8cpp.html" target="_top" xlink:title=" ">
<polygon fill="none" stroke="black" points="557.14,-0.5 557.14,-18.5 633.72,-18.5 633.72,-0.5 557.14,-0.5"/>
<text text-anchor="middle" x="595.43" y="-6.5" font-family="Helvetica,sans-Serif" font-size="10.00">txparser2.cpp</text>
</a>
</g>
</g>
<!-- Node5&#45;&gt;Node11 -->
<g id="edge10" class="edge">
<title>Node5&#45;&gt;Node11</title>
<path fill="none" stroke="midnightblue" d="M485.5,-51.82C512.28,-41.76 550.23,-27.49 573.81,-18.63"/>
<polygon fill="midnightblue" stroke="midnightblue" points="483.97,-48.66 475.84,-55.45 486.44,-55.21 483.97,-48.66"/>
</g>
<!-- Node5&#45;&gt;Node12 -->
<g id="edge11" class="edge">
<title>Node5&#45;&gt;Node12</title>
<path fill="none" stroke="midnightblue" d="M499.22,-53.13C543.96,-42.78 611.62,-27.12 651.29,-17.94"/>
<polygon fill="midnightblue" stroke="midnightblue" points="498.16,-49.79 489.21,-55.45 499.74,-56.61 498.16,-49.79"/>
</g>
<!-- Node5&#45;&gt;Node13 -->
<g id="edge12" class="edge">
<title>Node5&#45;&gt;Node13</title>
<path fill="none" stroke="midnightblue" d="M504.28,-55.41C558.48,-46.59 647.64,-31.99 724.43,-19 727.15,-18.54 729.96,-18.06 732.79,-17.58"/>
<polygon fill="midnightblue" stroke="midnightblue" points="503.56,-51.98 494.25,-57.04 504.68,-58.89 503.56,-51.98"/>
</g>
<!-- Node27&#45;&gt;Node11 -->
<g id="edge32" class="edge">
<title>Node27&#45;&gt;Node11</title>
<path fill="none" stroke="midnightblue" d="M586.85,-45.47C589.09,-36.33 591.71,-25.67 593.45,-18.55"/>
<polygon fill="midnightblue" stroke="midnightblue" points="583.44,-44.67 584.46,-55.22 590.24,-46.34 583.44,-44.67"/>
</g>
</g>
</svg>
