<?xml version="1.0" encoding="UTF-8" standalone="no"?>
<!DOCTYPE svg PUBLIC "-//W3C//DTD SVG 1.1//EN"
 "http://www.w3.org/Graphics/SVG/1.1/DTD/svg11.dtd">
<!-- Generated by graphviz version 2.42.3 (20191010.1750)
 -->
<!-- Title: ColSpec Pages: 1 -->
<svg width="285pt" height="328pt"
 viewBox="0.00 0.00 284.54 328.00" xmlns="http://www.w3.org/2000/svg" xmlns:xlink="http://www.w3.org/1999/xlink">
<g id="graph0" class="graph" transform="scale(1 1) rotate(0) translate(4 324)">
<title>ColSpec</title>
<!-- Node1 -->
<g id="node1" class="node">
<title>Node1</title>
<g id="a_node1"><a xlink:title=" ">
<polygon fill="#bfbfbf" stroke="black" points="186.59,-0.5 186.59,-18.5 240.39,-18.5 240.39,-0.5 186.59,-0.5"/>
<text text-anchor="middle" x="213.49" y="-6.5" font-family="Helvetica,sans-Serif" font-size="10.00">ColSpec</text>
</a>
</g>
</g>
<!-- Node2 -->
<g id="node2" class="node">
<title>Node2</title>
<g id="a_node2"><a xlink:href="../../d6/d9a/class_xml.html" target="_top" xlink:title=" ">
<polygon fill="none" stroke="black" points="131.88,-65.5 131.88,-83.5 165.1,-83.5 165.1,-65.5 131.88,-65.5"/>
<text text-anchor="middle" x="148.49" y="-71.5" font-family="Helvetica,sans-Serif" font-size="10.00">Xml</text>
</a>
</g>
</g>
<!-- Node2&#45;&gt;Node1 -->
<g id="edge1" class="edge">
<title>Node2&#45;&gt;Node1</title>
<path fill="none" stroke="#9a32cd" stroke-dasharray="5,2" d="M160.91,-57.06C166.17,-50.53 172.55,-43.13 178.93,-37 185.91,-30.3 194.55,-23.67 201.45,-18.72"/>
<polygon fill="#9a32cd" stroke="#9a32cd" points="157.94,-55.18 154.55,-65.22 163.46,-59.49 157.94,-55.18"/>
<text text-anchor="middle" x="188.77" y="-39" font-family="Helvetica,sans-Serif" font-size="10.00"> xval</text>
</g>
<!-- Node3 -->
<g id="node3" class="node">
<title>Node3</title>
<g id="a_node3"><a xlink:title="STL class.">
<polygon fill="none" stroke="#bfbfbf" points="0,-150.5 0,-178.5 102.99,-178.5 102.99,-150.5 0,-150.5"/>
<text text-anchor="start" x="8" y="-166.5" font-family="Helvetica,sans-Serif" font-size="10.00">std::vector&lt; gsl::not</text>
<text text-anchor="middle" x="51.49" y="-156.5" font-family="Helvetica,sans-Serif" font-size="10.00">_null&lt; Xml * &gt; &gt;</text>
</a>
</g>
</g>
<!-- Node3&#45;&gt;Node2 -->
<g id="edge2" class="edge">
<title>Node3&#45;&gt;Node2</title>
<path fill="none" stroke="midnightblue" d="M73.7,-143.36C94.51,-124.48 124.58,-97.2 139.46,-83.7"/>
<polygon fill="midnightblue" stroke="midnightblue" points="71.28,-140.82 66.23,-150.13 75.98,-146.01 71.28,-140.82"/>
</g>
<!-- Node4 -->
<g id="node4" class="node">
<title>Node4</title>
<g id="a_node4"><a xlink:title=" ">
<polygon fill="none" stroke="#bfbfbf" points="36.99,-235.5 36.99,-253.5 65.99,-253.5 65.99,-235.5 36.99,-235.5"/>
<text text-anchor="middle" x="51.05" y="-241.5" font-family="Helvetica,sans-Serif" font-size="10.00">T</text>
</a>
</g>
</g>
<!-- Node4&#45;&gt;Node3 -->
<g id="edge3" class="edge">
<title>Node4&#45;&gt;Node3</title>
<path fill="none" stroke="#9a32cd" stroke-dasharray="5,2" d="M51.49,-225.32C51.49,-210.99 51.49,-191.35 51.49,-178.54"/>
<polygon fill="#9a32cd" stroke="#9a32cd" points="47.99,-225.45 51.49,-235.45 54.99,-225.45 47.99,-225.45"/>
<text text-anchor="middle" x="73.17" y="-204" font-family="Helvetica,sans-Serif" font-size="10.00"> elements</text>
</g>
<!-- Node5 -->
<g id="node5" class="node">
<title>Node5</title>
<g id="a_node5"><a xlink:href="../../d9/d20/struct_istring.html" target="_top" xlink:title=" ">
<polygon fill="none" stroke="black" points="180.88,-155.5 180.88,-173.5 224.11,-173.5 224.11,-155.5 180.88,-155.5"/>
<text text-anchor="middle" x="202.49" y="-161.5" font-family="Helvetica,sans-Serif" font-size="10.00">Istring</text>
</a>
</g>
</g>
<!-- Node5&#45;&gt;Node1 -->
<g id="edge9" class="edge">
<title>Node5&#45;&gt;Node1</title>
<path fill="none" stroke="#9a32cd" stroke-dasharray="5,2" d="M203.82,-145.11C206.21,-111.76 211.19,-42.58 212.9,-18.77"/>
<polygon fill="#9a32cd" stroke="#9a32cd" points="200.31,-145.05 203.09,-155.27 207.29,-145.55 200.31,-145.05"/>
<text text-anchor="middle" x="213.77" y="-71.5" font-family="Helvetica,sans-Serif" font-size="10.00"> id</text>
</g>
<!-- Node5&#45;&gt;Node2 -->
<g id="edge4" class="edge">
<title>Node5&#45;&gt;Node2</title>
<path fill="none" stroke="#9a32cd" stroke-dasharray="5,2" d="M185.51,-148.5C180.62,-143.58 175.56,-137.87 171.7,-132 161.33,-116.23 154.16,-95.08 150.75,-83.65"/>
<polygon fill="#9a32cd" stroke="#9a32cd" points="183.21,-151.14 192.88,-155.47 188.02,-146.05 183.21,-151.14"/>
<text text-anchor="middle" x="185.39" y="-114" font-family="Helvetica,sans-Serif" font-size="10.00"> name</text>
</g>
<!-- Node6 -->
<g id="node6" class="node">
<title>Node6</title>
<g id="a_node6"><a xlink:title="STL class.">
<polygon fill="none" stroke="#bfbfbf" points="199.82,-235.5 199.82,-253.5 259.17,-253.5 259.17,-235.5 199.82,-235.5"/>
<text text-anchor="middle" x="229.49" y="-241.5" font-family="Helvetica,sans-Serif" font-size="10.00">std::string</text>
</a>
</g>
</g>
<!-- Node6&#45;&gt;Node1 -->
<g id="edge8" class="edge">
<title>Node6&#45;&gt;Node1</title>
<path fill="none" stroke="#9a32cd" stroke-dasharray="5,2" d="M236.41,-225.72C237.28,-222.84 238.02,-219.87 238.49,-217 239.94,-208.23 238.88,-205.88 238.49,-197 235.38,-125.69 241.49,-106.33 224.49,-37 222.93,-30.61 220.05,-23.77 217.63,-18.63"/>
<polygon fill="#9a32cd" stroke="#9a32cd" points="233.05,-224.73 233.05,-235.32 239.66,-227.05 233.05,-224.73"/>
<text text-anchor="middle" x="251.5" y="-124" font-family="Helvetica,sans-Serif" font-size="10.00"> model</text>
<text text-anchor="middle" x="251.5" y="-114" font-family="Helvetica,sans-Serif" font-size="10.00">value</text>
<text text-anchor="middle" x="251.5" y="-104" font-family="Helvetica,sans-Serif" font-size="10.00">name</text>
</g>
<!-- Node6&#45;&gt;Node5 -->
<g id="edge5" class="edge">
<title>Node6&#45;&gt;Node5</title>
<path fill="none" stroke="#9a32cd" stroke-dasharray="5,2" d="M216.81,-226.68C214.9,-223.58 213.13,-220.28 211.81,-217 205.96,-202.51 203.76,-184.24 202.95,-173.81"/>
<polygon fill="#9a32cd" stroke="#9a32cd" points="214.09,-228.91 222.64,-235.17 219.87,-224.95 214.09,-228.91"/>
<text text-anchor="middle" x="224.84" y="-209" font-family="Helvetica,sans-Serif" font-size="10.00"> value</text>
<text text-anchor="middle" x="224.84" y="-199" font-family="Helvetica,sans-Serif" font-size="10.00">name</text>
</g>
<!-- Node7 -->
<g id="node7" class="node">
<title>Node7</title>
<g id="a_node7"><a xlink:title="STL class.">
<polygon fill="none" stroke="#bfbfbf" points="182.45,-291.5 182.45,-319.5 276.54,-319.5 276.54,-291.5 182.45,-291.5"/>
<text text-anchor="start" x="190.45" y="-307.5" font-family="Helvetica,sans-Serif" font-size="10.00">std::basic_string&lt;</text>
<text text-anchor="middle" x="229.49" y="-297.5" font-family="Helvetica,sans-Serif" font-size="10.00"> char &gt;</text>
</a>
</g>
</g>
<!-- Node7&#45;&gt;Node6 -->
<g id="edge6" class="edge">
<title>Node7&#45;&gt;Node6</title>
<path fill="none" stroke="midnightblue" d="M229.49,-281.39C229.49,-271.59 229.49,-260.82 229.49,-253.65"/>
<polygon fill="midnightblue" stroke="midnightblue" points="225.99,-281.41 229.49,-291.41 232.99,-281.41 225.99,-281.41"/>
</g>
<!-- Node8 -->
<g id="node8" class="node">
<title>Node8</title>
<g id="a_node8"><a xlink:href="../../de/d3f/class_xid.html" target="_top" xlink:title=" ">
<polygon fill="none" stroke="black" points="121.27,-155.5 121.27,-173.5 151.72,-173.5 151.72,-155.5 121.27,-155.5"/>
<text text-anchor="middle" x="136.49" y="-161.5" font-family="Helvetica,sans-Serif" font-size="10.00">Xid</text>
</a>
</g>
</g>
<!-- Node8&#45;&gt;Node2 -->
<g id="edge7" class="edge">
<title>Node8&#45;&gt;Node2</title>
<path fill="none" stroke="#9a32cd" stroke-dasharray="5,2" d="M135.23,-145.12C134.8,-132.8 135.02,-116.27 137.93,-102 139.24,-95.59 142.01,-88.75 144.38,-83.62"/>
<polygon fill="#9a32cd" stroke="#9a32cd" points="131.76,-145.64 135.78,-155.44 138.75,-145.27 131.76,-145.64"/>
<text text-anchor="middle" x="142.77" y="-114" font-family="Helvetica,sans-Serif" font-size="10.00"> id</text>
</g>
</g>
</svg>
