<?xml version="1.0" encoding="UTF-8" standalone="no"?>
<!DOCTYPE svg PUBLIC "-//W3C//DTD SVG 1.1//EN"
 "http://www.w3.org/Graphics/SVG/1.1/DTD/svg11.dtd">
<!-- Generated by graphviz version 2.42.3 (20191010.1750)
 -->
<!-- Title: ArrayInfo Pages: 1 -->
<svg width="303pt" height="372pt"
 viewBox="0.00 0.00 302.94 372.00" xmlns="http://www.w3.org/2000/svg" xmlns:xlink="http://www.w3.org/1999/xlink">
<g id="graph0" class="graph" transform="scale(1 1) rotate(0) translate(4 368)">
<title>ArrayInfo</title>
<!-- Node1 -->
<g id="node1" class="node">
<title>Node1</title>
<g id="a_node1"><a xlink:title=" ">
<polygon fill="#bfbfbf" stroke="black" points="164.43,-0.5 164.43,-18.5 221,-18.5 221,-0.5 164.43,-0.5"/>
<text text-anchor="middle" x="192.72" y="-6.5" font-family="Helvetica,sans-Serif" font-size="10.00">ArrayInfo</text>
</a>
</g>
</g>
<!-- Node2 -->
<g id="node2" class="node">
<title>Node2</title>
<g id="a_node2"><a xlink:title=" ">
<polygon fill="none" stroke="#bfbfbf" points="0,-75.5 0,-93.5 121.43,-93.5 121.43,-75.5 0,-75.5"/>
<text text-anchor="middle" x="60.72" y="-81.5" font-family="Helvetica,sans-Serif" font-size="10.00">std::vector&lt; TokenList &gt;</text>
</a>
</g>
</g>
<!-- Node2&#45;&gt;Node1 -->
<g id="edge1" class="edge">
<title>Node2&#45;&gt;Node1</title>
<path fill="none" stroke="#9a32cd" stroke-dasharray="5,2" d="M84.2,-70.51C111.37,-55.49 155.28,-31.2 178.02,-18.63"/>
<polygon fill="#9a32cd" stroke="#9a32cd" points="82.41,-67.51 75.35,-75.41 85.79,-73.63 82.41,-67.51"/>
<text text-anchor="middle" x="160.51" y="-49" font-family="Helvetica,sans-Serif" font-size="10.00"> u_table</text>
<text text-anchor="middle" x="160.51" y="-39" font-family="Helvetica,sans-Serif" font-size="10.00">v_table</text>
</g>
<!-- Node3 -->
<g id="node3" class="node">
<title>Node3</title>
<g id="a_node3"><a xlink:title="STL class.">
<polygon fill="none" stroke="#bfbfbf" points="25.66,-140.5 25.66,-158.5 95.77,-158.5 95.77,-140.5 25.66,-140.5"/>
<text text-anchor="middle" x="60.72" y="-146.5" font-family="Helvetica,sans-Serif" font-size="10.00">std::list&lt; T &gt;</text>
</a>
</g>
</g>
<!-- Node3&#45;&gt;Node2 -->
<g id="edge2" class="edge">
<title>Node3&#45;&gt;Node2</title>
<path fill="none" stroke="#9a32cd" stroke-dasharray="5,2" d="M60.72,-129.91C60.72,-117.81 60.72,-102.65 60.72,-93.54"/>
<polygon fill="#9a32cd" stroke="#9a32cd" points="57.22,-130.26 60.72,-140.26 64.22,-130.26 57.22,-130.26"/>
<text text-anchor="middle" x="82.39" y="-114" font-family="Helvetica,sans-Serif" font-size="10.00"> elements</text>
</g>
<!-- Node4 -->
<g id="node4" class="node">
<title>Node4</title>
<g id="a_node4"><a xlink:title=" ">
<polygon fill="none" stroke="#bfbfbf" points="46.22,-205.5 46.22,-223.5 75.22,-223.5 75.22,-205.5 46.22,-205.5"/>
<text text-anchor="middle" x="60.27" y="-211.5" font-family="Helvetica,sans-Serif" font-size="10.00">T</text>
</a>
</g>
</g>
<!-- Node4&#45;&gt;Node3 -->
<g id="edge3" class="edge">
<title>Node4&#45;&gt;Node3</title>
<path fill="none" stroke="#9a32cd" stroke-dasharray="5,2" d="M60.72,-194.91C60.72,-182.81 60.72,-167.65 60.72,-158.54"/>
<polygon fill="#9a32cd" stroke="#9a32cd" points="57.22,-195.26 60.72,-205.26 64.22,-195.26 57.22,-195.26"/>
<text text-anchor="middle" x="82.39" y="-179" font-family="Helvetica,sans-Serif" font-size="10.00"> elements</text>
</g>
<!-- Node5 -->
<g id="node5" class="node">
<title>Node5</title>
<g id="a_node5"><a xlink:title=" ">
<polygon fill="none" stroke="#bfbfbf" points="139.41,-75.5 139.41,-93.5 246.02,-93.5 246.02,-75.5 139.41,-75.5"/>
<text text-anchor="middle" x="192.72" y="-81.5" font-family="Helvetica,sans-Serif" font-size="10.00">std::vector&lt; AttList &gt;</text>
</a>
</g>
</g>
<!-- Node5&#45;&gt;Node1 -->
<g id="edge4" class="edge">
<title>Node5&#45;&gt;Node1</title>
<path fill="none" stroke="#9a32cd" stroke-dasharray="5,2" d="M192.72,-65.35C192.72,-50.48 192.72,-30.12 192.72,-18.85"/>
<polygon fill="#9a32cd" stroke="#9a32cd" points="189.22,-65.41 192.72,-75.41 196.22,-65.41 189.22,-65.41"/>
<text text-anchor="middle" x="207.72" y="-44" font-family="Helvetica,sans-Serif" font-size="10.00"> attribs</text>
</g>
<!-- Node6 -->
<g id="node6" class="node">
<title>Node6</title>
<g id="a_node6"><a xlink:href="../../d5/d61/class_att_list.html" target="_top" xlink:title=" ">
<polygon fill="none" stroke="black" points="170.82,-140.5 170.82,-158.5 214.61,-158.5 214.61,-140.5 170.82,-140.5"/>
<text text-anchor="middle" x="192.72" y="-146.5" font-family="Helvetica,sans-Serif" font-size="10.00">AttList</text>
</a>
</g>
</g>
<!-- Node6&#45;&gt;Node5 -->
<g id="edge5" class="edge">
<title>Node6&#45;&gt;Node5</title>
<path fill="none" stroke="#9a32cd" stroke-dasharray="5,2" d="M192.72,-129.91C192.72,-117.81 192.72,-102.65 192.72,-93.54"/>
<polygon fill="#9a32cd" stroke="#9a32cd" points="189.22,-130.26 192.72,-140.26 196.22,-130.26 189.22,-130.26"/>
<text text-anchor="middle" x="214.39" y="-114" font-family="Helvetica,sans-Serif" font-size="10.00"> elements</text>
</g>
<!-- Node7 -->
<g id="node7" class="node">
<title>Node7</title>
<g id="a_node7"><a xlink:title=" ">
<polygon fill="none" stroke="#bfbfbf" points="138.3,-205.5 138.3,-223.5 247.13,-223.5 247.13,-205.5 138.3,-205.5"/>
<text text-anchor="middle" x="192.72" y="-211.5" font-family="Helvetica,sans-Serif" font-size="10.00">std::vector&lt; AttPair &gt;</text>
</a>
</g>
</g>
<!-- Node7&#45;&gt;Node6 -->
<g id="edge6" class="edge">
<title>Node7&#45;&gt;Node6</title>
<path fill="none" stroke="#9a32cd" stroke-dasharray="5,2" d="M192.72,-194.91C192.72,-182.81 192.72,-167.65 192.72,-158.54"/>
<polygon fill="#9a32cd" stroke="#9a32cd" points="189.22,-195.26 192.72,-205.26 196.22,-195.26 189.22,-195.26"/>
<text text-anchor="middle" x="200.5" y="-179" font-family="Helvetica,sans-Serif" font-size="10.00"> val</text>
</g>
<!-- Node8 -->
<g id="node8" class="node">
<title>Node8</title>
<g id="a_node8"><a xlink:href="../../d6/d34/struct_att_pair.html" target="_top" xlink:title=" ">
<polygon fill="none" stroke="black" points="169.71,-270.5 169.71,-288.5 215.72,-288.5 215.72,-270.5 169.71,-270.5"/>
<text text-anchor="middle" x="192.72" y="-276.5" font-family="Helvetica,sans-Serif" font-size="10.00">AttPair</text>
</a>
</g>
</g>
<!-- Node8&#45;&gt;Node7 -->
<g id="edge7" class="edge">
<title>Node8&#45;&gt;Node7</title>
<path fill="none" stroke="#9a32cd" stroke-dasharray="5,2" d="M192.72,-259.91C192.72,-247.81 192.72,-232.65 192.72,-223.54"/>
<polygon fill="#9a32cd" stroke="#9a32cd" points="189.22,-260.26 192.72,-270.26 196.22,-260.26 189.22,-260.26"/>
<text text-anchor="middle" x="214.39" y="-244" font-family="Helvetica,sans-Serif" font-size="10.00"> elements</text>
</g>
<!-- Node9 -->
<g id="node9" class="node">
<title>Node9</title>
<g id="a_node9"><a xlink:href="../../d9/d20/struct_istring.html" target="_top" xlink:title=" ">
<polygon fill="none" stroke="black" points="171.1,-345.5 171.1,-363.5 214.33,-363.5 214.33,-345.5 171.1,-345.5"/>
<text text-anchor="middle" x="192.72" y="-351.5" font-family="Helvetica,sans-Serif" font-size="10.00">Istring</text>
</a>
</g>
</g>
<!-- Node9&#45;&gt;Node8 -->
<g id="edge8" class="edge">
<title>Node9&#45;&gt;Node8</title>
<path fill="none" stroke="#9a32cd" stroke-dasharray="5,2" d="M192.72,-335.35C192.72,-320.48 192.72,-300.12 192.72,-288.85"/>
<polygon fill="#9a32cd" stroke="#9a32cd" points="189.22,-335.41 192.72,-345.41 196.22,-335.41 189.22,-335.41"/>
<text text-anchor="middle" x="206.06" y="-319" font-family="Helvetica,sans-Serif" font-size="10.00"> value</text>
<text text-anchor="middle" x="206.06" y="-309" font-family="Helvetica,sans-Serif" font-size="10.00">name</text>
</g>
<!-- Node10 -->
<g id="node10" class="node">
<title>Node10</title>
<g id="a_node10"><a xlink:href="../../de/d3f/class_xid.html" target="_top" xlink:title=" ">
<polygon fill="none" stroke="black" points="264.49,-75.5 264.49,-93.5 294.94,-93.5 294.94,-75.5 264.49,-75.5"/>
<text text-anchor="middle" x="279.72" y="-81.5" font-family="Helvetica,sans-Serif" font-size="10.00">Xid</text>
</a>
</g>
</g>
<!-- Node10&#45;&gt;Node1 -->
<g id="edge9" class="edge">
<title>Node10&#45;&gt;Node1</title>
<path fill="none" stroke="#9a32cd" stroke-dasharray="5,2" d="M263.35,-68.71C252.99,-59.44 239.22,-47.34 226.72,-37 219.11,-30.7 210.3,-23.85 203.56,-18.7"/>
<polygon fill="#9a32cd" stroke="#9a32cd" points="261.07,-71.36 270.85,-75.44 265.75,-66.15 261.07,-71.36"/>
<text text-anchor="middle" x="254" y="-44" font-family="Helvetica,sans-Serif" font-size="10.00"> id</text>
</g>
</g>
</svg>
