<?xml version="1.0" encoding="UTF-8" standalone="no"?>
<!DOCTYPE svg PUBLIC "-//W3C//DTD SVG 1.1//EN"
 "http://www.w3.org/Graphics/SVG/1.1/DTD/svg11.dtd">
<!-- Generated by graphviz version 2.42.3 (20191010.1750)
 -->
<!-- Title: Stack::StackSlot Pages: 1 -->
<svg width="258pt" height="309pt"
 viewBox="0.00 0.00 257.54 309.00" xmlns="http://www.w3.org/2000/svg" xmlns:xlink="http://www.w3.org/1999/xlink">
<g id="graph0" class="graph" transform="scale(1 1) rotate(0) translate(4 305)">
<title>Stack::StackSlot</title>
<!-- Node1 -->
<g id="node1" class="node">
<title>Node1</title>
<g id="a_node1"><a xlink:title=" ">
<polygon fill="#bfbfbf" stroke="black" points="142.09,-0.5 142.09,-18.5 230.9,-18.5 230.9,-0.5 142.09,-0.5"/>
<text text-anchor="middle" x="186.49" y="-6.5" font-family="Helvetica,sans-Serif" font-size="10.00">Stack::StackSlot</text>
</a>
</g>
</g>
<!-- Node2 -->
<g id="node2" class="node">
<title>Node2</title>
<g id="a_node2"><a xlink:href="../../d6/d9a/class_xml.html" target="_top" xlink:title=" ">
<polygon fill="none" stroke="black" points="131.88,-66 131.88,-84 165.1,-84 165.1,-66 131.88,-66"/>
<text text-anchor="middle" x="148.49" y="-72" font-family="Helvetica,sans-Serif" font-size="10.00">Xml</text>
</a>
</g>
</g>
<!-- Node2&#45;&gt;Node1 -->
<g id="edge1" class="edge">
<title>Node2&#45;&gt;Node1</title>
<path fill="none" stroke="#9a32cd" stroke-dasharray="5,2" d="M158.65,-57.04C166.07,-44.62 175.83,-28.33 181.6,-18.68"/>
<polygon fill="#9a32cd" stroke="#9a32cd" points="155.44,-55.58 153.31,-65.96 161.44,-59.17 155.44,-55.58"/>
<text text-anchor="middle" x="177.56" y="-39" font-family="Helvetica,sans-Serif" font-size="10.00"> obj</text>
</g>
<!-- Node3 -->
<g id="node3" class="node">
<title>Node3</title>
<g id="a_node3"><a xlink:title="STL class.">
<polygon fill="none" stroke="#bfbfbf" points="0,-131.5 0,-159.5 102.99,-159.5 102.99,-131.5 0,-131.5"/>
<text text-anchor="start" x="8" y="-147.5" font-family="Helvetica,sans-Serif" font-size="10.00">std::vector&lt; gsl::not</text>
<text text-anchor="middle" x="51.49" y="-137.5" font-family="Helvetica,sans-Serif" font-size="10.00">_null&lt; Xml * &gt; &gt;</text>
</a>
</g>
</g>
<!-- Node3&#45;&gt;Node2 -->
<g id="edge2" class="edge">
<title>Node3&#45;&gt;Node2</title>
<path fill="none" stroke="midnightblue" d="M78.61,-125.35C97.91,-111.72 122.86,-94.1 137.13,-84.03"/>
<polygon fill="midnightblue" stroke="midnightblue" points="76.35,-122.66 70.2,-131.29 80.38,-128.38 76.35,-122.66"/>
</g>
<!-- Node4 -->
<g id="node4" class="node">
<title>Node4</title>
<g id="a_node4"><a xlink:title=" ">
<polygon fill="none" stroke="#bfbfbf" points="36.99,-216.5 36.99,-234.5 65.99,-234.5 65.99,-216.5 36.99,-216.5"/>
<text text-anchor="middle" x="51.05" y="-222.5" font-family="Helvetica,sans-Serif" font-size="10.00">T</text>
</a>
</g>
</g>
<!-- Node4&#45;&gt;Node3 -->
<g id="edge3" class="edge">
<title>Node4&#45;&gt;Node3</title>
<path fill="none" stroke="#9a32cd" stroke-dasharray="5,2" d="M51.49,-206.32C51.49,-191.99 51.49,-172.35 51.49,-159.54"/>
<polygon fill="#9a32cd" stroke="#9a32cd" points="47.99,-206.45 51.49,-216.45 54.99,-206.45 47.99,-206.45"/>
<text text-anchor="middle" x="73.17" y="-185" font-family="Helvetica,sans-Serif" font-size="10.00"> elements</text>
</g>
<!-- Node5 -->
<g id="node5" class="node">
<title>Node5</title>
<g id="a_node5"><a xlink:href="../../d9/d20/struct_istring.html" target="_top" xlink:title=" ">
<polygon fill="none" stroke="black" points="180.88,-136.5 180.88,-154.5 224.11,-154.5 224.11,-136.5 180.88,-136.5"/>
<text text-anchor="middle" x="202.49" y="-142.5" font-family="Helvetica,sans-Serif" font-size="10.00">Istring</text>
</a>
</g>
</g>
<!-- Node5&#45;&gt;Node1 -->
<g id="edge8" class="edge">
<title>Node5&#45;&gt;Node1</title>
<path fill="none" stroke="#9a32cd" stroke-dasharray="5,2" d="M201.43,-126.09C200.94,-118.88 200.3,-110.54 199.49,-103 196.17,-71.72 190.42,-34.73 187.83,-18.64"/>
<polygon fill="#9a32cd" stroke="#9a32cd" points="197.95,-126.45 202.06,-136.22 204.93,-126.02 197.95,-126.45"/>
<text text-anchor="middle" x="210.66" y="-77" font-family="Helvetica,sans-Serif" font-size="10.00"> frame</text>
<text text-anchor="middle" x="210.66" y="-67" font-family="Helvetica,sans-Serif" font-size="10.00">uid</text>
</g>
<!-- Node5&#45;&gt;Node2 -->
<g id="edge4" class="edge">
<title>Node5&#45;&gt;Node2</title>
<path fill="none" stroke="#9a32cd" stroke-dasharray="5,2" d="M186.32,-129.28C181.39,-124.3 176.11,-118.6 171.7,-113 164.38,-103.71 157.37,-92 153,-84.27"/>
<polygon fill="#9a32cd" stroke="#9a32cd" points="184.01,-131.91 193.61,-136.4 188.9,-126.91 184.01,-131.91"/>
<text text-anchor="middle" x="185.39" y="-105" font-family="Helvetica,sans-Serif" font-size="10.00"> name</text>
</g>
<!-- Node6 -->
<g id="node6" class="node">
<title>Node6</title>
<g id="a_node6"><a xlink:title="STL class.">
<polygon fill="none" stroke="#bfbfbf" points="172.82,-216.5 172.82,-234.5 232.17,-234.5 232.17,-216.5 172.82,-216.5"/>
<text text-anchor="middle" x="202.49" y="-222.5" font-family="Helvetica,sans-Serif" font-size="10.00">std::string</text>
</a>
</g>
</g>
<!-- Node6&#45;&gt;Node5 -->
<g id="edge5" class="edge">
<title>Node6&#45;&gt;Node5</title>
<path fill="none" stroke="#9a32cd" stroke-dasharray="5,2" d="M202.49,-206C202.49,-189.69 202.49,-166.7 202.49,-154.63"/>
<polygon fill="#9a32cd" stroke="#9a32cd" points="198.99,-206.45 202.49,-216.45 205.99,-206.45 198.99,-206.45"/>
<text text-anchor="middle" x="215.84" y="-190" font-family="Helvetica,sans-Serif" font-size="10.00"> value</text>
<text text-anchor="middle" x="215.84" y="-180" font-family="Helvetica,sans-Serif" font-size="10.00">name</text>
</g>
<!-- Node7 -->
<g id="node7" class="node">
<title>Node7</title>
<g id="a_node7"><a xlink:title="STL class.">
<polygon fill="none" stroke="#bfbfbf" points="155.45,-272.5 155.45,-300.5 249.54,-300.5 249.54,-272.5 155.45,-272.5"/>
<text text-anchor="start" x="163.45" y="-288.5" font-family="Helvetica,sans-Serif" font-size="10.00">std::basic_string&lt;</text>
<text text-anchor="middle" x="202.49" y="-278.5" font-family="Helvetica,sans-Serif" font-size="10.00"> char &gt;</text>
</a>
</g>
</g>
<!-- Node7&#45;&gt;Node6 -->
<g id="edge6" class="edge">
<title>Node7&#45;&gt;Node6</title>
<path fill="none" stroke="midnightblue" d="M202.49,-262.39C202.49,-252.59 202.49,-241.82 202.49,-234.65"/>
<polygon fill="midnightblue" stroke="midnightblue" points="198.99,-262.41 202.49,-272.41 205.99,-262.41 198.99,-262.41"/>
</g>
<!-- Node8 -->
<g id="node8" class="node">
<title>Node8</title>
<g id="a_node8"><a xlink:href="../../de/d3f/class_xid.html" target="_top" xlink:title=" ">
<polygon fill="none" stroke="black" points="121.27,-136.5 121.27,-154.5 151.72,-154.5 151.72,-136.5 121.27,-136.5"/>
<text text-anchor="middle" x="136.49" y="-142.5" font-family="Helvetica,sans-Serif" font-size="10.00">Xid</text>
</a>
</g>
</g>
<!-- Node8&#45;&gt;Node2 -->
<g id="edge7" class="edge">
<title>Node8&#45;&gt;Node2</title>
<path fill="none" stroke="#9a32cd" stroke-dasharray="5,2" d="M135.8,-126.23C135.87,-118.93 136.38,-110.51 137.93,-103 139.28,-96.49 142.04,-89.52 144.41,-84.29"/>
<polygon fill="#9a32cd" stroke="#9a32cd" points="132.31,-126.51 135.98,-136.45 139.31,-126.39 132.31,-126.51"/>
<text text-anchor="middle" x="142.77" y="-105" font-family="Helvetica,sans-Serif" font-size="10.00"> id</text>
</g>
</g>
</svg>
