<?xml version="1.0" encoding="UTF-8" standalone="no"?>
<!DOCTYPE svg PUBLIC "-//W3C//DTD SVG 1.1//EN"
 "http://www.w3.org/Graphics/SVG/1.1/DTD/svg11.dtd">
<!-- Generated by graphviz version 2.42.3 (20191010.1750)
 -->
<!-- Title: Stack::StackSlot Pages: 1 -->
<svg width="318pt" height="382pt"
 viewBox="0.00 0.00 317.93 382.00" xmlns="http://www.w3.org/2000/svg" xmlns:xlink="http://www.w3.org/1999/xlink">
<g id="graph0" class="graph" transform="scale(1 1) rotate(0) translate(4 378)">
<title>Stack::StackSlot</title>
<!-- Node1 -->
<g id="node1" class="node">
<title>Node1</title>
<g id="a_node1"><a xlink:title=" ">
<polygon fill="#bfbfbf" stroke="black" points="100.09,-0.5 100.09,-18.5 188.9,-18.5 188.9,-0.5 100.09,-0.5"/>
<text text-anchor="middle" x="144.49" y="-6.5" font-family="Helvetica,sans-Serif" font-size="10.00">Stack::StackSlot</text>
</a>
</g>
</g>
<!-- Node2 -->
<g id="node2" class="node">
<title>Node2</title>
<g id="a_node2"><a xlink:href="../../d6/d9a/class_xml.html" target="_top" xlink:title=" ">
<polygon fill="none" stroke="black" points="89.88,-66 89.88,-84 123.1,-84 123.1,-66 89.88,-66"/>
<text text-anchor="middle" x="106.49" y="-72" font-family="Helvetica,sans-Serif" font-size="10.00">Xml</text>
</a>
</g>
</g>
<!-- Node2&#45;&gt;Node1 -->
<g id="edge1" class="edge">
<title>Node2&#45;&gt;Node1</title>
<path fill="none" stroke="#9a32cd" stroke-dasharray="5,2" d="M116.65,-57.04C124.07,-44.62 133.83,-28.33 139.6,-18.68"/>
<polygon fill="#9a32cd" stroke="#9a32cd" points="113.44,-55.58 111.31,-65.96 119.44,-59.17 113.44,-55.58"/>
<text text-anchor="middle" x="135.56" y="-39" font-family="Helvetica,sans-Serif" font-size="10.00"> obj</text>
</g>
<!-- Node3 -->
<g id="node3" class="node">
<title>Node3</title>
<g id="a_node3"><a xlink:title="STL class.">
<polygon fill="none" stroke="#bfbfbf" points="0,-233.5 0,-261.5 102.99,-261.5 102.99,-233.5 0,-233.5"/>
<text text-anchor="start" x="8" y="-249.5" font-family="Helvetica,sans-Serif" font-size="10.00">std::vector&lt; gsl::not</text>
<text text-anchor="middle" x="51.49" y="-239.5" font-family="Helvetica,sans-Serif" font-size="10.00">_null&lt; Xml * &gt; &gt;</text>
</a>
</g>
</g>
<!-- Node3&#45;&gt;Node2 -->
<g id="edge2" class="edge">
<title>Node3&#45;&gt;Node2</title>
<path fill="none" stroke="midnightblue" d="M52.51,-222.99C54.19,-199.11 58.65,-161.41 70.49,-131 77.53,-112.92 91.1,-94.6 99.42,-84.33"/>
<polygon fill="midnightblue" stroke="midnightblue" points="49,-223.03 51.9,-233.22 55.99,-223.44 49,-223.03"/>
</g>
<!-- Node4 -->
<g id="node4" class="node">
<title>Node4</title>
<g id="a_node4"><a xlink:title=" ">
<polygon fill="none" stroke="#bfbfbf" points="69.99,-355.5 69.99,-373.5 98.99,-373.5 98.99,-355.5 69.99,-355.5"/>
<text text-anchor="middle" x="84.05" y="-361.5" font-family="Helvetica,sans-Serif" font-size="10.00">T</text>
</a>
</g>
</g>
<!-- Node4&#45;&gt;Node3 -->
<g id="edge3" class="edge">
<title>Node4&#45;&gt;Node3</title>
<path fill="none" stroke="#9a32cd" stroke-dasharray="5,2" d="M79.27,-345.3C72.61,-322.08 61.24,-282.45 55.32,-261.84"/>
<polygon fill="#9a32cd" stroke="#9a32cd" points="76,-346.58 82.12,-355.23 82.73,-344.65 76,-346.58"/>
<text text-anchor="middle" x="98.17" y="-329" font-family="Helvetica,sans-Serif" font-size="10.00"> elements</text>
</g>
<!-- Node7 -->
<g id="node7" class="node">
<title>Node7</title>
<g id="a_node7"><a xlink:title="STL class.">
<polygon fill="none" stroke="#bfbfbf" points="203.06,-280.5 203.06,-308.5 309.93,-308.5 309.93,-280.5 203.06,-280.5"/>
<text text-anchor="start" x="211.06" y="-296.5" font-family="Helvetica,sans-Serif" font-size="10.00">std::vector&lt; StrHash</text>
<text text-anchor="middle" x="256.49" y="-286.5" font-family="Helvetica,sans-Serif" font-size="10.00">_record &gt;</text>
</a>
</g>
</g>
<!-- Node4&#45;&gt;Node7 -->
<g id="edge7" class="edge">
<title>Node4&#45;&gt;Node7</title>
<path fill="none" stroke="#9a32cd" stroke-dasharray="5,2" d="M108.83,-353.88C138.84,-342.01 189.99,-321.79 223.51,-308.54"/>
<polygon fill="#9a32cd" stroke="#9a32cd" points="107.17,-350.77 99.16,-357.7 109.74,-357.28 107.17,-350.77"/>
<text text-anchor="middle" x="197.17" y="-329" font-family="Helvetica,sans-Serif" font-size="10.00"> elements</text>
</g>
<!-- Node5 -->
<g id="node5" class="node">
<title>Node5</title>
<g id="a_node5"><a xlink:href="../../d9/d20/struct_istring.html" target="_top" xlink:title=" ">
<polygon fill="none" stroke="black" points="138.88,-131.5 138.88,-149.5 182.11,-149.5 182.11,-131.5 138.88,-131.5"/>
<text text-anchor="middle" x="160.49" y="-137.5" font-family="Helvetica,sans-Serif" font-size="10.00">Istring</text>
</a>
</g>
</g>
<!-- Node5&#45;&gt;Node1 -->
<g id="edge10" class="edge">
<title>Node5&#45;&gt;Node1</title>
<path fill="none" stroke="#9a32cd" stroke-dasharray="5,2" d="M159.2,-121.26C158.73,-115.42 158.15,-108.93 157.49,-103 154.01,-71.73 148.34,-34.73 145.8,-18.65"/>
<polygon fill="#9a32cd" stroke="#9a32cd" points="155.72,-121.66 159.96,-131.37 162.7,-121.14 155.72,-121.66"/>
<text text-anchor="middle" x="168.66" y="-77" font-family="Helvetica,sans-Serif" font-size="10.00"> frame</text>
<text text-anchor="middle" x="168.66" y="-67" font-family="Helvetica,sans-Serif" font-size="10.00">uid</text>
</g>
<!-- Node5&#45;&gt;Node2 -->
<g id="edge4" class="edge">
<title>Node5&#45;&gt;Node2</title>
<path fill="none" stroke="#9a32cd" stroke-dasharray="5,2" d="M141.74,-124.93C137.55,-121.26 133.29,-117.17 129.7,-113 121.89,-103.92 114.88,-91.95 110.66,-84.12"/>
<polygon fill="#9a32cd" stroke="#9a32cd" points="139.58,-127.69 149.51,-131.38 144.05,-122.3 139.58,-127.69"/>
<text text-anchor="middle" x="143.39" y="-105" font-family="Helvetica,sans-Serif" font-size="10.00"> name</text>
</g>
<!-- Node6 -->
<g id="node6" class="node">
<title>Node6</title>
<g id="a_node6"><a xlink:href="../../de/df7/class_str_hash.html" target="_top" xlink:title="The string_hash table.">
<polygon fill="none" stroke="black" points="134.43,-196.5 134.43,-214.5 186.56,-214.5 186.56,-196.5 134.43,-196.5"/>
<text text-anchor="middle" x="160.49" y="-202.5" font-family="Helvetica,sans-Serif" font-size="10.00">StrHash</text>
</a>
</g>
</g>
<!-- Node6&#45;&gt;Node5 -->
<g id="edge5" class="edge">
<title>Node6&#45;&gt;Node5</title>
<path fill="none" stroke="#9a32cd" stroke-dasharray="5,2" d="M160.49,-185.91C160.49,-173.81 160.49,-158.65 160.49,-149.54"/>
<polygon fill="#9a32cd" stroke="#9a32cd" points="156.99,-186.26 160.49,-196.26 163.99,-186.26 156.99,-186.26"/>
<text text-anchor="middle" x="168.83" y="-170" font-family="Helvetica,sans-Serif" font-size="10.00"> SH</text>
</g>
<!-- Node7&#45;&gt;Node6 -->
<g id="edge6" class="edge">
<title>Node7&#45;&gt;Node6</title>
<path fill="none" stroke="midnightblue" d="M234.25,-273.34C213.66,-254.68 184.1,-227.89 169.44,-214.61"/>
<polygon fill="midnightblue" stroke="midnightblue" points="232.15,-276.16 241.91,-280.29 236.85,-270.98 232.15,-276.16"/>
</g>
<!-- Node8 -->
<g id="node8" class="node">
<title>Node8</title>
<g id="a_node8"><a xlink:title=" ">
<polygon fill="none" stroke="#bfbfbf" points="79.75,-285.5 79.75,-303.5 185.24,-303.5 185.24,-285.5 79.75,-285.5"/>
<text text-anchor="middle" x="132.49" y="-291.5" font-family="Helvetica,sans-Serif" font-size="10.00">std::vector&lt; size_t &gt;</text>
</a>
</g>
</g>
<!-- Node8&#45;&gt;Node6 -->
<g id="edge8" class="edge">
<title>Node8&#45;&gt;Node6</title>
<path fill="none" stroke="#9a32cd" stroke-dasharray="5,2" d="M138.2,-275.79C144.22,-257.06 153.46,-228.35 157.92,-214.51"/>
<polygon fill="#9a32cd" stroke="#9a32cd" points="134.81,-274.88 135.08,-285.47 141.47,-277.02 134.81,-274.88"/>
<text text-anchor="middle" x="161.33" y="-244.5" font-family="Helvetica,sans-Serif" font-size="10.00"> next</text>
</g>
<!-- Node9 -->
<g id="node9" class="node">
<title>Node9</title>
<g id="a_node9"><a xlink:href="../../de/d3f/class_xid.html" target="_top" xlink:title=" ">
<polygon fill="none" stroke="black" points="79.27,-131.5 79.27,-149.5 109.72,-149.5 109.72,-131.5 79.27,-131.5"/>
<text text-anchor="middle" x="94.49" y="-137.5" font-family="Helvetica,sans-Serif" font-size="10.00">Xid</text>
</a>
</g>
</g>
<!-- Node9&#45;&gt;Node2 -->
<g id="edge9" class="edge">
<title>Node9&#45;&gt;Node2</title>
<path fill="none" stroke="#9a32cd" stroke-dasharray="5,2" d="M94.03,-121.13C94.2,-115.28 94.71,-108.83 95.93,-103 97.29,-96.5 100.06,-89.52 102.42,-84.29"/>
<polygon fill="#9a32cd" stroke="#9a32cd" points="90.53,-121.29 94.04,-131.29 97.53,-121.28 90.53,-121.29"/>
<text text-anchor="middle" x="100.77" y="-105" font-family="Helvetica,sans-Serif" font-size="10.00"> id</text>
</g>
</g>
</svg>
