<?xml version="1.0" encoding="UTF-8" standalone="no"?>
<!DOCTYPE svg PUBLIC "-//W3C//DTD SVG 1.1//EN"
 "http://www.w3.org/Graphics/SVG/1.1/DTD/svg11.dtd">
<!-- Generated by graphviz version 2.42.3 (20191010.1750)
 -->
<!-- Title: txcommands.cpp Pages: 1 -->
<svg width="913pt" height="742pt"
 viewBox="0.00 0.00 913.30 742.00" xmlns="http://www.w3.org/2000/svg" xmlns:xlink="http://www.w3.org/1999/xlink">
<g id="graph0" class="graph" transform="scale(1 1) rotate(0) translate(4 738)">
<title>txcommands.cpp</title>
<!-- Node1 -->
<g id="node1" class="node">
<title>Node1</title>
<g id="a_node1"><a xlink:title=" ">
<polygon fill="#bfbfbf" stroke="black" points="71.21,-715.5 71.21,-733.5 162.79,-733.5 162.79,-715.5 71.21,-715.5"/>
<text text-anchor="middle" x="117" y="-721.5" font-family="Helvetica,sans-Serif" font-size="10.00">txcommands.cpp</text>
</a>
</g>
</g>
<!-- Node2 -->
<g id="node2" class="node">
<title>Node2</title>
<g id="a_node2"><a xlink:href="../../d5/d87/globals_8h.html" target="_top" xlink:title=" ">
<polygon fill="none" stroke="black" points="276.54,-330.5 276.54,-348.5 361.46,-348.5 361.46,-330.5 276.54,-330.5"/>
<text text-anchor="middle" x="319" y="-336.5" font-family="Helvetica,sans-Serif" font-size="10.00">tralics/globals.h</text>
</a>
</g>
</g>
<!-- Node1&#45;&gt;Node2 -->
<g id="edge1" class="edge">
<title>Node1&#45;&gt;Node2</title>
<path fill="none" stroke="midnightblue" d="M96.08,-715.46C62.43,-700.99 0,-667.19 0,-615.5 0,-615.5 0,-615.5 0,-448.5 0,-392.97 175.59,-360.39 266.22,-347.27"/>
<polygon fill="midnightblue" stroke="midnightblue" points="266.9,-350.71 276.31,-345.84 265.92,-343.78 266.9,-350.71"/>
</g>
<!-- Node19 -->
<g id="node19" class="node">
<title>Node19</title>
<g id="a_node19"><a xlink:href="../../d6/dcb/txbib_8h.html" target="_top" xlink:title=" ">
<polygon fill="none" stroke="black" points="131.27,-660.5 131.27,-678.5 176.73,-678.5 176.73,-660.5 131.27,-660.5"/>
<text text-anchor="middle" x="154" y="-666.5" font-family="Helvetica,sans-Serif" font-size="10.00">txbib.h</text>
</a>
</g>
</g>
<!-- Node1&#45;&gt;Node19 -->
<g id="edge22" class="edge">
<title>Node1&#45;&gt;Node19</title>
<path fill="none" stroke="midnightblue" d="M122.78,-715.22C128.08,-707.63 136.08,-696.18 142.65,-686.76"/>
<polygon fill="midnightblue" stroke="midnightblue" points="145.53,-688.75 148.38,-678.55 139.79,-684.75 145.53,-688.75"/>
</g>
<!-- Node38 -->
<g id="node38" class="node">
<title>Node38</title>
<g id="a_node38"><a xlink:href="../../dc/dd7/txclasses_8h.html" target="_top" xlink:title=" ">
<polygon fill="none" stroke="black" points="45.27,-660.5 45.27,-678.5 110.73,-678.5 110.73,-660.5 45.27,-660.5"/>
<text text-anchor="middle" x="78" y="-666.5" font-family="Helvetica,sans-Serif" font-size="10.00">txclasses.h</text>
</a>
</g>
</g>
<!-- Node1&#45;&gt;Node38 -->
<g id="edge51" class="edge">
<title>Node1&#45;&gt;Node38</title>
<path fill="none" stroke="midnightblue" d="M110.91,-715.22C105.32,-707.63 96.89,-696.18 89.96,-686.76"/>
<polygon fill="midnightblue" stroke="midnightblue" points="92.67,-684.53 83.92,-678.55 87.03,-688.68 92.67,-684.53"/>
</g>
<!-- Node39 -->
<g id="node39" class="node">
<title>Node39</title>
<g id="a_node39"><a xlink:href="../../d2/d1b/txparser_8h.html" target="_top" xlink:title=" ">
<polygon fill="none" stroke="black" points="535.04,-605.5 535.04,-623.5 594.96,-623.5 594.96,-605.5 535.04,-605.5"/>
<text text-anchor="middle" x="565" y="-611.5" font-family="Helvetica,sans-Serif" font-size="10.00">txparser.h</text>
</a>
</g>
</g>
<!-- Node1&#45;&gt;Node39 -->
<g id="edge53" class="edge">
<title>Node1&#45;&gt;Node39</title>
<path fill="none" stroke="midnightblue" d="M150.31,-715.47C231.16,-695.98 437.57,-646.22 524.95,-625.15"/>
<polygon fill="midnightblue" stroke="midnightblue" points="525.86,-628.54 534.76,-622.79 524.22,-621.73 525.86,-628.54"/>
</g>
<!-- Node3 -->
<g id="node3" class="node">
<title>Node3</title>
<g id="a_node3"><a xlink:href="../../d5/daf/_istring_8h.html" target="_top" xlink:title=" ">
<polygon fill="none" stroke="black" points="494.21,-275.5 494.21,-293.5 545.79,-293.5 545.79,-275.5 494.21,-275.5"/>
<text text-anchor="middle" x="520" y="-281.5" font-family="Helvetica,sans-Serif" font-size="10.00">Istring.h</text>
</a>
</g>
</g>
<!-- Node2&#45;&gt;Node3 -->
<g id="edge2" class="edge">
<title>Node2&#45;&gt;Node3</title>
<path fill="none" stroke="midnightblue" d="M349.53,-330.45C385.72,-320.91 445.95,-305.03 484.27,-294.92"/>
<polygon fill="midnightblue" stroke="midnightblue" points="485.21,-298.29 493.99,-292.36 483.43,-291.52 485.21,-298.29"/>
</g>
<!-- Node16 -->
<g id="node16" class="node">
<title>Node16</title>
<g id="a_node16"><a xlink:href="../../d8/d47/codepoint_8h.html" target="_top" xlink:title=" ">
<polygon fill="none" stroke="black" points="415.15,-165.5 415.15,-183.5 482.85,-183.5 482.85,-165.5 415.15,-165.5"/>
<text text-anchor="middle" x="449" y="-171.5" font-family="Helvetica,sans-Serif" font-size="10.00">codepoint.h</text>
</a>
</g>
</g>
<!-- Node2&#45;&gt;Node16 -->
<g id="edge18" class="edge">
<title>Node2&#45;&gt;Node16</title>
<path fill="none" stroke="midnightblue" d="M320.35,-330.3C324.14,-309.51 336.68,-253.93 367,-220 379.99,-205.46 398.9,-194.76 415.28,-187.49"/>
<polygon fill="midnightblue" stroke="midnightblue" points="416.69,-190.7 424.57,-183.61 413.99,-184.24 416.69,-190.7"/>
</g>
<!-- Node18 -->
<g id="node18" class="node">
<title>Node18</title>
<g id="a_node18"><a xlink:title=" ">
<polygon fill="none" stroke="#bfbfbf" points="259.77,-275.5 259.77,-293.5 320.23,-293.5 320.23,-275.5 259.77,-275.5"/>
<text text-anchor="middle" x="290" y="-281.5" font-family="Helvetica,sans-Serif" font-size="10.00">filesystem</text>
</a>
</g>
</g>
<!-- Node2&#45;&gt;Node18 -->
<g id="edge21" class="edge">
<title>Node2&#45;&gt;Node18</title>
<path fill="none" stroke="midnightblue" d="M314.47,-330.22C310.4,-322.79 304.31,-311.65 299.22,-302.34"/>
<polygon fill="midnightblue" stroke="midnightblue" points="302.28,-300.64 294.4,-293.55 296.13,-304 302.28,-300.64"/>
</g>
<!-- Node4 -->
<g id="node4" class="node">
<title>Node4</title>
<g id="a_node4"><a xlink:href="../../dd/d47/_str_hash_8h.html" target="_top" xlink:title=" ">
<polygon fill="none" stroke="black" points="761.77,-220.5 761.77,-238.5 822.23,-238.5 822.23,-220.5 761.77,-220.5"/>
<text text-anchor="middle" x="792" y="-226.5" font-family="Helvetica,sans-Serif" font-size="10.00">StrHash.h</text>
</a>
</g>
</g>
<!-- Node3&#45;&gt;Node4 -->
<g id="edge3" class="edge">
<title>Node3&#45;&gt;Node4</title>
<path fill="none" stroke="midnightblue" d="M545.96,-277.03C549,-276.32 552.07,-275.63 555,-275 623.68,-260.22 704.16,-245.7 751.45,-237.44"/>
<polygon fill="midnightblue" stroke="midnightblue" points="752.34,-240.84 761.59,-235.68 751.14,-233.95 752.34,-240.84"/>
</g>
<!-- Node13 -->
<g id="node13" class="node">
<title>Node13</title>
<g id="a_node13"><a xlink:href="../../d0/d0b/enums_8h.html" target="_top" xlink:title=" ">
<polygon fill="none" stroke="black" points="507.82,-165.5 507.82,-183.5 562.18,-183.5 562.18,-165.5 507.82,-165.5"/>
<text text-anchor="middle" x="535" y="-171.5" font-family="Helvetica,sans-Serif" font-size="10.00">enums.h</text>
</a>
</g>
</g>
<!-- Node3&#45;&gt;Node13 -->
<g id="edge12" class="edge">
<title>Node3&#45;&gt;Node13</title>
<path fill="none" stroke="midnightblue" d="M521.13,-275.38C523.52,-258.18 529.14,-217.7 532.45,-193.89"/>
<polygon fill="midnightblue" stroke="midnightblue" points="535.95,-194.1 533.86,-183.71 529.02,-193.14 535.95,-194.1"/>
</g>
<!-- Node14 -->
<g id="node14" class="node">
<title>Node14</title>
<g id="a_node14"><a xlink:href="../../d8/d3c/util_8h.html" target="_top" xlink:title=" ">
<polygon fill="none" stroke="black" points="621.44,-220.5 621.44,-238.5 658.56,-238.5 658.56,-220.5 621.44,-220.5"/>
<text text-anchor="middle" x="640" y="-226.5" font-family="Helvetica,sans-Serif" font-size="10.00">util.h</text>
</a>
</g>
</g>
<!-- Node3&#45;&gt;Node14 -->
<g id="edge14" class="edge">
<title>Node3&#45;&gt;Node14</title>
<path fill="none" stroke="midnightblue" d="M538.23,-275.45C557.96,-266.73 589.67,-252.73 612.45,-242.67"/>
<polygon fill="midnightblue" stroke="midnightblue" points="613.87,-245.87 621.6,-238.63 611.04,-239.46 613.87,-245.87"/>
</g>
<!-- Node15 -->
<g id="node15" class="node">
<title>Node15</title>
<g id="a_node15"><a xlink:title=" ">
<polygon fill="none" stroke="#bfbfbf" points="375.61,-220.5 375.61,-238.5 414.39,-238.5 414.39,-220.5 375.61,-220.5"/>
<text text-anchor="middle" x="395" y="-226.5" font-family="Helvetica,sans-Serif" font-size="10.00">array</text>
</a>
</g>
</g>
<!-- Node3&#45;&gt;Node15 -->
<g id="edge17" class="edge">
<title>Node3&#45;&gt;Node15</title>
<path fill="none" stroke="midnightblue" d="M501.02,-275.45C480.37,-266.7 447.14,-252.61 423.38,-242.53"/>
<polygon fill="midnightblue" stroke="midnightblue" points="424.74,-239.31 414.16,-238.63 422,-245.75 424.74,-239.31"/>
</g>
<!-- Node5 -->
<g id="node5" class="node">
<title>Node5</title>
<g id="a_node5"><a xlink:href="../../d8/db5/consts_8h.html" target="_top" xlink:title=" ">
<polygon fill="none" stroke="black" points="516.38,-110.5 516.38,-128.5 569.62,-128.5 569.62,-110.5 516.38,-110.5"/>
<text text-anchor="middle" x="543" y="-116.5" font-family="Helvetica,sans-Serif" font-size="10.00">consts.h</text>
</a>
</g>
</g>
<!-- Node4&#45;&gt;Node5 -->
<g id="edge4" class="edge">
<title>Node4&#45;&gt;Node5</title>
<path fill="none" stroke="midnightblue" d="M790.73,-220.44C788.12,-206.77 780.85,-179.17 763,-165 735.12,-142.86 634.96,-129.66 579.9,-123.91"/>
<polygon fill="midnightblue" stroke="midnightblue" points="580.15,-120.42 569.85,-122.89 579.45,-127.38 580.15,-120.42"/>
</g>
<!-- Node10 -->
<g id="node10" class="node">
<title>Node10</title>
<g id="a_node10"><a xlink:title=" ">
<polygon fill="none" stroke="#bfbfbf" points="713.77,-165.5 713.77,-183.5 754.23,-183.5 754.23,-165.5 713.77,-165.5"/>
<text text-anchor="middle" x="734" y="-171.5" font-family="Helvetica,sans-Serif" font-size="10.00">string</text>
</a>
</g>
</g>
<!-- Node4&#45;&gt;Node10 -->
<g id="edge9" class="edge">
<title>Node4&#45;&gt;Node10</title>
<path fill="none" stroke="midnightblue" d="M782.94,-220.22C774.2,-212.24 760.79,-199.98 750.22,-190.32"/>
<polygon fill="midnightblue" stroke="midnightblue" points="752.55,-187.71 742.81,-183.55 747.83,-192.88 752.55,-187.71"/>
</g>
<!-- Node11 -->
<g id="node11" class="node">
<title>Node11</title>
<g id="a_node11"><a xlink:title=" ">
<polygon fill="none" stroke="#bfbfbf" points="818.7,-165.5 818.7,-183.5 905.3,-183.5 905.3,-165.5 818.7,-165.5"/>
<text text-anchor="middle" x="862" y="-171.5" font-family="Helvetica,sans-Serif" font-size="10.00">unordered_map</text>
</a>
</g>
</g>
<!-- Node4&#45;&gt;Node11 -->
<g id="edge10" class="edge">
<title>Node4&#45;&gt;Node11</title>
<path fill="none" stroke="midnightblue" d="M802.63,-220.45C813.32,-212.36 830.03,-199.7 843,-189.88"/>
<polygon fill="midnightblue" stroke="midnightblue" points="845.41,-192.45 851.27,-183.63 841.18,-186.87 845.41,-192.45"/>
</g>
<!-- Node12 -->
<g id="node12" class="node">
<title>Node12</title>
<g id="a_node12"><a xlink:title=" ">
<polygon fill="none" stroke="#bfbfbf" points="618.38,-165.5 618.38,-183.5 661.62,-183.5 661.62,-165.5 618.38,-165.5"/>
<text text-anchor="middle" x="640" y="-171.5" font-family="Helvetica,sans-Serif" font-size="10.00">vector</text>
</a>
</g>
</g>
<!-- Node4&#45;&gt;Node12 -->
<g id="edge11" class="edge">
<title>Node4&#45;&gt;Node12</title>
<path fill="none" stroke="midnightblue" d="M768.91,-220.45C742.91,-211.38 700.51,-196.6 671.48,-186.48"/>
<polygon fill="midnightblue" stroke="midnightblue" points="672.42,-183.1 661.82,-183.11 670.11,-189.71 672.42,-183.1"/>
</g>
<!-- Node6 -->
<g id="node6" class="node">
<title>Node6</title>
<g id="a_node6"><a xlink:href="../../d9/d49/types_8h.html" target="_top" xlink:title=" ">
<polygon fill="none" stroke="black" points="490.88,-55.5 490.88,-73.5 539.12,-73.5 539.12,-55.5 490.88,-55.5"/>
<text text-anchor="middle" x="515" y="-61.5" font-family="Helvetica,sans-Serif" font-size="10.00">types.h</text>
</a>
</g>
</g>
<!-- Node5&#45;&gt;Node6 -->
<g id="edge5" class="edge">
<title>Node5&#45;&gt;Node6</title>
<path fill="none" stroke="midnightblue" d="M538.62,-110.22C534.74,-102.86 528.94,-91.88 524.05,-82.64"/>
<polygon fill="midnightblue" stroke="midnightblue" points="527.02,-80.76 519.25,-73.55 520.83,-84.03 527.02,-80.76"/>
</g>
<!-- Node7 -->
<g id="node7" class="node">
<title>Node7</title>
<g id="a_node7"><a xlink:title=" ">
<polygon fill="none" stroke="#bfbfbf" points="424.88,-0.5 424.88,-18.5 473.12,-18.5 473.12,-0.5 424.88,-0.5"/>
<text text-anchor="middle" x="449" y="-6.5" font-family="Helvetica,sans-Serif" font-size="10.00">cassert</text>
</a>
</g>
</g>
<!-- Node6&#45;&gt;Node7 -->
<g id="edge6" class="edge">
<title>Node6&#45;&gt;Node7</title>
<path fill="none" stroke="midnightblue" d="M504.98,-55.45C494.99,-47.43 479.44,-34.95 467.26,-25.17"/>
<polygon fill="midnightblue" stroke="midnightblue" points="469.11,-22.16 459.12,-18.63 464.72,-27.62 469.11,-22.16"/>
</g>
<!-- Node8 -->
<g id="node8" class="node">
<title>Node8</title>
<g id="a_node8"><a xlink:title=" ">
<polygon fill="none" stroke="#bfbfbf" points="490.88,-0.5 490.88,-18.5 539.12,-18.5 539.12,-0.5 490.88,-0.5"/>
<text text-anchor="middle" x="515" y="-6.5" font-family="Helvetica,sans-Serif" font-size="10.00">cstddef</text>
</a>
</g>
</g>
<!-- Node6&#45;&gt;Node8 -->
<g id="edge7" class="edge">
<title>Node6&#45;&gt;Node8</title>
<path fill="none" stroke="midnightblue" d="M515,-55.22C515,-48.18 515,-37.81 515,-28.83"/>
<polygon fill="midnightblue" stroke="midnightblue" points="518.5,-28.55 515,-18.55 511.5,-28.55 518.5,-28.55"/>
</g>
<!-- Node9 -->
<g id="node9" class="node">
<title>Node9</title>
<g id="a_node9"><a xlink:title=" ">
<polygon fill="none" stroke="#bfbfbf" points="556.93,-0.5 556.93,-18.5 619.07,-18.5 619.07,-0.5 556.93,-0.5"/>
<text text-anchor="middle" x="588" y="-6.5" font-family="Helvetica,sans-Serif" font-size="10.00">type_traits</text>
</a>
</g>
</g>
<!-- Node6&#45;&gt;Node9 -->
<g id="edge8" class="edge">
<title>Node6&#45;&gt;Node9</title>
<path fill="none" stroke="midnightblue" d="M526.09,-55.45C537.34,-47.28 555,-34.46 568.58,-24.6"/>
<polygon fill="midnightblue" stroke="midnightblue" points="570.77,-27.33 576.81,-18.63 566.66,-21.67 570.77,-27.33"/>
</g>
<!-- Node13&#45;&gt;Node5 -->
<g id="edge13" class="edge">
<title>Node13&#45;&gt;Node5</title>
<path fill="none" stroke="midnightblue" d="M536.25,-165.22C537.32,-158.1 538.91,-147.58 540.28,-138.53"/>
<polygon fill="midnightblue" stroke="midnightblue" points="543.75,-138.96 541.78,-128.55 536.83,-137.92 543.75,-138.96"/>
</g>
<!-- Node14&#45;&gt;Node10 -->
<g id="edge15" class="edge">
<title>Node14&#45;&gt;Node10</title>
<path fill="none" stroke="midnightblue" d="M654.28,-220.45C669.18,-212.05 692.81,-198.72 710.48,-188.76"/>
<polygon fill="midnightblue" stroke="midnightblue" points="712.6,-191.59 719.59,-183.63 709.16,-185.49 712.6,-191.59"/>
</g>
<!-- Node14&#45;&gt;Node12 -->
<g id="edge16" class="edge">
<title>Node14&#45;&gt;Node12</title>
<path fill="none" stroke="midnightblue" d="M640,-220.22C640,-213.18 640,-202.81 640,-193.83"/>
<polygon fill="midnightblue" stroke="midnightblue" points="643.5,-193.55 640,-183.55 636.5,-193.55 643.5,-193.55"/>
</g>
<!-- Node16&#45;&gt;Node6 -->
<g id="edge19" class="edge">
<title>Node16&#45;&gt;Node6</title>
<path fill="none" stroke="midnightblue" d="M453.96,-165.38C464.71,-147.79 490.34,-105.85 504.74,-82.29"/>
<polygon fill="midnightblue" stroke="midnightblue" points="507.75,-84.07 509.98,-73.71 501.78,-80.42 507.75,-84.07"/>
</g>
<!-- Node17 -->
<g id="node17" class="node">
<title>Node17</title>
<g id="a_node17"><a xlink:title=" ">
<polygon fill="none" stroke="#bfbfbf" points="408.49,-110.5 408.49,-128.5 459.51,-128.5 459.51,-110.5 408.49,-110.5"/>
<text text-anchor="middle" x="434" y="-116.5" font-family="Helvetica,sans-Serif" font-size="10.00">optional</text>
</a>
</g>
</g>
<!-- Node16&#45;&gt;Node17 -->
<g id="edge20" class="edge">
<title>Node16&#45;&gt;Node17</title>
<path fill="none" stroke="midnightblue" d="M446.66,-165.22C444.62,-158.02 441.6,-147.35 439.02,-138.23"/>
<polygon fill="midnightblue" stroke="midnightblue" points="442.37,-137.22 436.28,-128.55 435.63,-139.12 442.37,-137.22"/>
</g>
<!-- Node20 -->
<g id="node20" class="node">
<title>Node20</title>
<g id="a_node20"><a xlink:href="../../d9/d1c/_xml_8h.html" target="_top" xlink:title=" ">
<polygon fill="none" stroke="black" points="293.77,-495.5 293.77,-513.5 364.23,-513.5 364.23,-495.5 293.77,-495.5"/>
<text text-anchor="middle" x="329" y="-501.5" font-family="Helvetica,sans-Serif" font-size="10.00">tralics/Xml.h</text>
</a>
</g>
</g>
<!-- Node19&#45;&gt;Node20 -->
<g id="edge23" class="edge">
<title>Node19&#45;&gt;Node20</title>
<path fill="none" stroke="midnightblue" d="M169.11,-660.29C196.1,-645.06 253.3,-610.21 291,-569 303.72,-555.1 314.33,-536.29 321.08,-522.76"/>
<polygon fill="midnightblue" stroke="midnightblue" points="324.3,-524.14 325.46,-513.6 317.99,-521.11 324.3,-524.14"/>
</g>
<!-- Node31 -->
<g id="node31" class="node">
<title>Node31</title>
<g id="a_node31"><a xlink:href="../../d7/d79/txinline_8h.html" target="_top" xlink:title=" ">
<polygon fill="none" stroke="black" points="126.27,-605.5 126.27,-623.5 181.73,-623.5 181.73,-605.5 126.27,-605.5"/>
<text text-anchor="middle" x="154" y="-611.5" font-family="Helvetica,sans-Serif" font-size="10.00">txinline.h</text>
</a>
</g>
</g>
<!-- Node19&#45;&gt;Node31 -->
<g id="edge38" class="edge">
<title>Node19&#45;&gt;Node31</title>
<path fill="none" stroke="midnightblue" d="M154,-660.22C154,-653.18 154,-642.81 154,-633.83"/>
<polygon fill="midnightblue" stroke="midnightblue" points="157.5,-633.55 154,-623.55 150.5,-633.55 157.5,-633.55"/>
</g>
<!-- Node21 -->
<g id="node21" class="node">
<title>Node21</title>
<g id="a_node21"><a xlink:href="../../d7/d1b/_buffer_8h.html" target="_top" xlink:title=" ">
<polygon fill="none" stroke="black" points="297.85,-440.5 297.85,-458.5 348.15,-458.5 348.15,-440.5 297.85,-440.5"/>
<text text-anchor="middle" x="323" y="-446.5" font-family="Helvetica,sans-Serif" font-size="10.00">Buffer.h</text>
</a>
</g>
</g>
<!-- Node20&#45;&gt;Node21 -->
<g id="edge24" class="edge">
<title>Node20&#45;&gt;Node21</title>
<path fill="none" stroke="midnightblue" d="M328.06,-495.22C327.26,-488.1 326.07,-477.58 325.04,-468.53"/>
<polygon fill="midnightblue" stroke="midnightblue" points="328.51,-468.09 323.91,-458.55 321.56,-468.88 328.51,-468.09"/>
</g>
<!-- Node30 -->
<g id="node30" class="node">
<title>Node30</title>
<g id="a_node30"><a xlink:title=" ">
<polygon fill="none" stroke="#bfbfbf" points="365.83,-440.5 365.83,-458.5 410.17,-458.5 410.17,-440.5 365.83,-440.5"/>
<text text-anchor="middle" x="388" y="-446.5" font-family="Helvetica,sans-Serif" font-size="10.00">gsl/gsl</text>
</a>
</g>
</g>
<!-- Node20&#45;&gt;Node30 -->
<g id="edge37" class="edge">
<title>Node20&#45;&gt;Node30</title>
<path fill="none" stroke="midnightblue" d="M337.96,-495.45C346.8,-487.51 360.52,-475.19 371.36,-465.45"/>
<polygon fill="midnightblue" stroke="midnightblue" points="373.85,-467.91 378.95,-458.63 369.18,-462.7 373.85,-467.91"/>
</g>
<!-- Node22 -->
<g id="node22" class="node">
<title>Node22</title>
<g id="a_node22"><a xlink:href="../../d1/d9e/txid_8h.html" target="_top" xlink:title=" ">
<polygon fill="none" stroke="black" points="235.88,-385.5 235.88,-403.5 284.12,-403.5 284.12,-385.5 235.88,-385.5"/>
<text text-anchor="middle" x="260" y="-391.5" font-family="Helvetica,sans-Serif" font-size="10.00">../txid.h</text>
</a>
</g>
</g>
<!-- Node21&#45;&gt;Node22 -->
<g id="edge25" class="edge">
<title>Node21&#45;&gt;Node22</title>
<path fill="none" stroke="midnightblue" d="M313.43,-440.45C303.9,-432.43 289.06,-419.95 277.43,-410.17"/>
<polygon fill="midnightblue" stroke="midnightblue" points="279.56,-407.38 269.66,-403.63 275.06,-412.74 279.56,-407.38"/>
</g>
<!-- Node23 -->
<g id="node23" class="node">
<title>Node23</title>
<g id="a_node23"><a xlink:href="../../d9/d18/txscaled_8h.html" target="_top" xlink:title=" ">
<polygon fill="none" stroke="black" points="368.32,-385.5 368.32,-403.5 437.68,-403.5 437.68,-385.5 368.32,-385.5"/>
<text text-anchor="middle" x="403" y="-391.5" font-family="Helvetica,sans-Serif" font-size="10.00">../txscaled.h</text>
</a>
</g>
</g>
<!-- Node21&#45;&gt;Node23 -->
<g id="edge27" class="edge">
<title>Node21&#45;&gt;Node23</title>
<path fill="none" stroke="midnightblue" d="M335.15,-440.45C347.6,-432.2 367.2,-419.22 382.14,-409.32"/>
<polygon fill="midnightblue" stroke="midnightblue" points="384.33,-412.07 390.74,-403.63 380.47,-406.23 384.33,-412.07"/>
</g>
<!-- Node29 -->
<g id="node29" class="node">
<title>Node29</title>
<g id="a_node29"><a xlink:title=" ">
<polygon fill="none" stroke="#bfbfbf" points="302.27,-385.5 302.27,-403.5 347.73,-403.5 347.73,-385.5 302.27,-385.5"/>
<text text-anchor="middle" x="325" y="-391.5" font-family="Helvetica,sans-Serif" font-size="10.00">cstring</text>
</a>
</g>
</g>
<!-- Node21&#45;&gt;Node29 -->
<g id="edge36" class="edge">
<title>Node21&#45;&gt;Node29</title>
<path fill="none" stroke="midnightblue" d="M323.31,-440.22C323.58,-433.18 323.97,-422.81 324.31,-413.83"/>
<polygon fill="midnightblue" stroke="midnightblue" points="327.82,-413.67 324.7,-403.55 320.82,-413.41 327.82,-413.67"/>
</g>
<!-- Node22&#45;&gt;Node3 -->
<g id="edge26" class="edge">
<title>Node22&#45;&gt;Node3</title>
<path fill="none" stroke="midnightblue" d="M280.31,-385.4C302.42,-376.55 338.78,-361.92 370,-349 412.49,-331.41 461.53,-310.55 491.65,-297.66"/>
<polygon fill="midnightblue" stroke="midnightblue" points="493.28,-300.77 501.1,-293.62 490.53,-294.33 493.28,-300.77"/>
</g>
<!-- Node24 -->
<g id="node24" class="node">
<title>Node24</title>
<g id="a_node24"><a xlink:href="../../dc/d91/txtokenlist_8h.html" target="_top" xlink:title=" ">
<polygon fill="none" stroke="black" points="497.6,-330.5 497.6,-348.5 566.4,-348.5 566.4,-330.5 497.6,-330.5"/>
<text text-anchor="middle" x="532" y="-336.5" font-family="Helvetica,sans-Serif" font-size="10.00">txtokenlist.h</text>
</a>
</g>
</g>
<!-- Node23&#45;&gt;Node24 -->
<g id="edge28" class="edge">
<title>Node23&#45;&gt;Node24</title>
<path fill="none" stroke="midnightblue" d="M422.59,-385.45C443.9,-376.7 478.2,-362.61 502.71,-352.53"/>
<polygon fill="midnightblue" stroke="midnightblue" points="504.3,-355.66 512.22,-348.63 501.64,-349.19 504.3,-355.66"/>
</g>
<!-- Node24&#45;&gt;Node3 -->
<g id="edge29" class="edge">
<title>Node24&#45;&gt;Node3</title>
<path fill="none" stroke="midnightblue" d="M530.12,-330.22C528.51,-323.1 526.13,-312.58 524.08,-303.53"/>
<polygon fill="midnightblue" stroke="midnightblue" points="527.44,-302.53 521.82,-293.55 520.62,-304.08 527.44,-302.53"/>
</g>
<!-- Node25 -->
<g id="node25" class="node">
<title>Node25</title>
<g id="a_node25"><a xlink:href="../../dd/dcd/_token_8h.html" target="_top" xlink:title=" ">
<polygon fill="none" stroke="black" points="564.04,-275.5 564.04,-293.5 643.96,-293.5 643.96,-275.5 564.04,-275.5"/>
<text text-anchor="middle" x="604" y="-281.5" font-family="Helvetica,sans-Serif" font-size="10.00">tralics/Token.h</text>
</a>
</g>
</g>
<!-- Node24&#45;&gt;Node25 -->
<g id="edge30" class="edge">
<title>Node24&#45;&gt;Node25</title>
<path fill="none" stroke="midnightblue" d="M542.94,-330.45C554.04,-322.28 571.45,-309.46 584.85,-299.6"/>
<polygon fill="midnightblue" stroke="midnightblue" points="586.98,-302.37 592.96,-293.63 582.83,-296.73 586.98,-302.37"/>
</g>
<!-- Node28 -->
<g id="node28" class="node">
<title>Node28</title>
<g id="a_node28"><a xlink:title=" ">
<polygon fill="none" stroke="#bfbfbf" points="761.61,-275.5 761.61,-293.5 800.39,-293.5 800.39,-275.5 761.61,-275.5"/>
<text text-anchor="middle" x="781" y="-281.5" font-family="Helvetica,sans-Serif" font-size="10.00">utility</text>
</a>
</g>
</g>
<!-- Node24&#45;&gt;Node28 -->
<g id="edge35" class="edge">
<title>Node24&#45;&gt;Node28</title>
<path fill="none" stroke="midnightblue" d="M566.62,-331.13C615.84,-320.65 705.18,-301.64 751.45,-291.79"/>
<polygon fill="midnightblue" stroke="midnightblue" points="752.39,-295.17 761.44,-289.66 750.93,-288.32 752.39,-295.17"/>
</g>
<!-- Node26 -->
<g id="node26" class="node">
<title>Node26</title>
<g id="a_node26"><a xlink:href="../../d2/d68/_cmd_chr_8h.html" target="_top" xlink:title=" ">
<polygon fill="none" stroke="black" points="432.49,-220.5 432.49,-238.5 493.51,-238.5 493.51,-220.5 432.49,-220.5"/>
<text text-anchor="middle" x="463" y="-226.5" font-family="Helvetica,sans-Serif" font-size="10.00">CmdChr.h</text>
</a>
</g>
</g>
<!-- Node25&#45;&gt;Node26 -->
<g id="edge31" class="edge">
<title>Node25&#45;&gt;Node26</title>
<path fill="none" stroke="midnightblue" d="M582.59,-275.45C559.09,-266.62 521.14,-252.35 494.3,-242.27"/>
<polygon fill="midnightblue" stroke="midnightblue" points="495.21,-238.87 484.62,-238.63 492.75,-245.42 495.21,-238.87"/>
</g>
<!-- Node27 -->
<g id="node27" class="node">
<title>Node27</title>
<g id="a_node27"><a xlink:title=" ">
<polygon fill="none" stroke="#bfbfbf" points="676.5,-220.5 676.5,-238.5 705.5,-238.5 705.5,-220.5 676.5,-220.5"/>
<text text-anchor="middle" x="690.61" y="-226.5" font-family="Helvetica,sans-Serif" font-size="10.00">list</text>
</a>
</g>
</g>
<!-- Node25&#45;&gt;Node27 -->
<g id="edge34" class="edge">
<title>Node25&#45;&gt;Node27</title>
<path fill="none" stroke="midnightblue" d="M617.21,-275.45C630.88,-267.12 652.47,-253.97 668.77,-244.04"/>
<polygon fill="midnightblue" stroke="midnightblue" points="670.94,-246.82 677.66,-238.63 667.3,-240.84 670.94,-246.82"/>
</g>
<!-- Node26&#45;&gt;Node13 -->
<g id="edge33" class="edge">
<title>Node26&#45;&gt;Node13</title>
<path fill="none" stroke="midnightblue" d="M473.94,-220.45C485.04,-212.28 502.45,-199.46 515.85,-189.6"/>
<polygon fill="midnightblue" stroke="midnightblue" points="517.98,-192.37 523.96,-183.63 513.83,-186.73 517.98,-192.37"/>
</g>
<!-- Node26&#45;&gt;Node16 -->
<g id="edge32" class="edge">
<title>Node26&#45;&gt;Node16</title>
<path fill="none" stroke="midnightblue" d="M460.81,-220.22C458.91,-213.02 456.09,-202.35 453.68,-193.23"/>
<polygon fill="midnightblue" stroke="midnightblue" points="457.06,-192.32 451.13,-183.55 450.3,-194.11 457.06,-192.32"/>
</g>
<!-- Node32 -->
<g id="node32" class="node">
<title>Node32</title>
<g id="a_node32"><a xlink:href="../../d4/de9/_main_class_8h.html" target="_top" xlink:title=" ">
<polygon fill="none" stroke="black" points="104.04,-550.5 104.04,-568.5 203.96,-568.5 203.96,-550.5 104.04,-550.5"/>
<text text-anchor="middle" x="154" y="-556.5" font-family="Helvetica,sans-Serif" font-size="10.00">tralics/MainClass.h</text>
</a>
</g>
</g>
<!-- Node31&#45;&gt;Node32 -->
<g id="edge39" class="edge">
<title>Node31&#45;&gt;Node32</title>
<path fill="none" stroke="midnightblue" d="M154,-605.22C154,-598.18 154,-587.81 154,-578.83"/>
<polygon fill="midnightblue" stroke="midnightblue" points="157.5,-578.55 154,-568.55 150.5,-578.55 157.5,-578.55"/>
</g>
<!-- Node35 -->
<g id="node35" class="node">
<title>Node35</title>
<g id="a_node35"><a xlink:href="../../d2/d06/txlogger_8h.html" target="_top" xlink:title=" ">
<polygon fill="none" stroke="black" points="52.32,-495.5 52.32,-513.5 111.68,-513.5 111.68,-495.5 52.32,-495.5"/>
<text text-anchor="middle" x="82" y="-501.5" font-family="Helvetica,sans-Serif" font-size="10.00">txlogger.h</text>
</a>
</g>
</g>
<!-- Node31&#45;&gt;Node35 -->
<g id="edge43" class="edge">
<title>Node31&#45;&gt;Node35</title>
<path fill="none" stroke="midnightblue" d="M137.59,-605.45C124.01,-597.92 105.34,-585.38 95,-569 86.45,-555.46 83.39,-537.35 82.36,-523.94"/>
<polygon fill="midnightblue" stroke="midnightblue" points="85.84,-523.42 81.88,-513.59 78.84,-523.74 85.84,-523.42"/>
</g>
<!-- Node37 -->
<g id="node37" class="node">
<title>Node37</title>
<g id="a_node37"><a xlink:href="../../d5/d08/txparam_8h.html" target="_top" xlink:title=" ">
<polygon fill="none" stroke="black" points="221.77,-550.5 221.77,-568.5 282.23,-568.5 282.23,-550.5 221.77,-550.5"/>
<text text-anchor="middle" x="252" y="-556.5" font-family="Helvetica,sans-Serif" font-size="10.00">txparam.h</text>
</a>
</g>
</g>
<!-- Node31&#45;&gt;Node37 -->
<g id="edge49" class="edge">
<title>Node31&#45;&gt;Node37</title>
<path fill="none" stroke="midnightblue" d="M168.88,-605.45C184.57,-596.97 209.51,-583.48 227.99,-573.49"/>
<polygon fill="midnightblue" stroke="midnightblue" points="229.84,-576.46 236.98,-568.63 226.51,-570.3 229.84,-576.46"/>
</g>
<!-- Node33 -->
<g id="node33" class="node">
<title>Node33</title>
<g id="a_node33"><a xlink:href="../../de/d29/txio_8h.html" target="_top" xlink:title=" ">
<polygon fill="none" stroke="black" points="227.88,-495.5 227.88,-513.5 276.12,-513.5 276.12,-495.5 227.88,-495.5"/>
<text text-anchor="middle" x="252" y="-501.5" font-family="Helvetica,sans-Serif" font-size="10.00">../txio.h</text>
</a>
</g>
</g>
<!-- Node32&#45;&gt;Node33 -->
<g id="edge40" class="edge">
<title>Node32&#45;&gt;Node33</title>
<path fill="none" stroke="midnightblue" d="M168.88,-550.45C184.57,-541.97 209.51,-528.48 227.99,-518.49"/>
<polygon fill="midnightblue" stroke="midnightblue" points="229.84,-521.46 236.98,-513.63 226.51,-515.3 229.84,-521.46"/>
</g>
<!-- Node33&#45;&gt;Node21 -->
<g id="edge41" class="edge">
<title>Node33&#45;&gt;Node21</title>
<path fill="none" stroke="midnightblue" d="M262.78,-495.45C273.63,-487.36 290.58,-474.7 303.73,-464.88"/>
<polygon fill="midnightblue" stroke="midnightblue" points="306.2,-467.41 312.12,-458.63 302.01,-461.8 306.2,-467.41"/>
</g>
<!-- Node34 -->
<g id="node34" class="node">
<title>Node34</title>
<g id="a_node34"><a xlink:title=" ">
<polygon fill="none" stroke="#bfbfbf" points="224.33,-440.5 224.33,-458.5 273.67,-458.5 273.67,-440.5 224.33,-440.5"/>
<text text-anchor="middle" x="249" y="-446.5" font-family="Helvetica,sans-Serif" font-size="10.00">fstream</text>
</a>
</g>
</g>
<!-- Node33&#45;&gt;Node34 -->
<g id="edge42" class="edge">
<title>Node33&#45;&gt;Node34</title>
<path fill="none" stroke="midnightblue" d="M251.53,-495.22C251.13,-488.18 250.55,-477.81 250.04,-468.83"/>
<polygon fill="midnightblue" stroke="midnightblue" points="253.52,-468.34 249.46,-458.55 246.53,-468.73 253.52,-468.34"/>
</g>
<!-- Node35&#45;&gt;Node21 -->
<g id="edge44" class="edge">
<title>Node35&#45;&gt;Node21</title>
<path fill="none" stroke="midnightblue" d="M112.04,-496.89C156.71,-487.07 240.47,-468.65 287.9,-458.22"/>
<polygon fill="midnightblue" stroke="midnightblue" points="288.71,-461.62 297.72,-456.06 287.21,-454.79 288.71,-461.62"/>
</g>
<!-- Node35&#45;&gt;Node22 -->
<g id="edge45" class="edge">
<title>Node35&#45;&gt;Node22</title>
<path fill="none" stroke="midnightblue" d="M93.76,-495.38C111.82,-483 147.6,-458.87 179,-440 197.74,-428.74 219.48,-416.86 235.71,-408.21"/>
<polygon fill="midnightblue" stroke="midnightblue" points="237.37,-411.29 244.57,-403.52 234.1,-405.11 237.37,-411.29"/>
</g>
<!-- Node35&#45;&gt;Node23 -->
<g id="edge46" class="edge">
<title>Node35&#45;&gt;Node23</title>
<path fill="none" stroke="midnightblue" d="M100.38,-495.43C119.99,-486.74 151.91,-472.35 179,-459 195.23,-451 198.06,-446.36 215,-440 240.89,-430.28 311.43,-414.62 358.36,-404.7"/>
<polygon fill="midnightblue" stroke="midnightblue" points="359.21,-408.1 368.28,-402.62 357.77,-401.25 359.21,-408.1"/>
</g>
<!-- Node35&#45;&gt;Node34 -->
<g id="edge47" class="edge">
<title>Node35&#45;&gt;Node34</title>
<path fill="none" stroke="midnightblue" d="M107.36,-495.45C135.93,-486.38 182.53,-471.59 214.42,-461.47"/>
<polygon fill="midnightblue" stroke="midnightblue" points="215.74,-464.73 224.22,-458.37 213.63,-458.05 215.74,-464.73"/>
</g>
<!-- Node36 -->
<g id="node36" class="node">
<title>Node36</title>
<g id="a_node36"><a xlink:title=" ">
<polygon fill="none" stroke="#bfbfbf" points="54.83,-440.5 54.83,-458.5 109.17,-458.5 109.17,-440.5 54.83,-440.5"/>
<text text-anchor="middle" x="82" y="-446.5" font-family="Helvetica,sans-Serif" font-size="10.00">iostream</text>
</a>
</g>
</g>
<!-- Node35&#45;&gt;Node36 -->
<g id="edge48" class="edge">
<title>Node35&#45;&gt;Node36</title>
<path fill="none" stroke="midnightblue" d="M82,-495.22C82,-488.18 82,-477.81 82,-468.83"/>
<polygon fill="midnightblue" stroke="midnightblue" points="85.5,-468.55 82,-458.55 78.5,-468.55 85.5,-468.55"/>
</g>
<!-- Node37&#45;&gt;Node33 -->
<g id="edge50" class="edge">
<title>Node37&#45;&gt;Node33</title>
<path fill="none" stroke="midnightblue" d="M252,-550.22C252,-543.18 252,-532.81 252,-523.83"/>
<polygon fill="midnightblue" stroke="midnightblue" points="255.5,-523.55 252,-513.55 248.5,-523.55 255.5,-523.55"/>
</g>
<!-- Node38&#45;&gt;Node21 -->
<g id="edge52" class="edge">
<title>Node38&#45;&gt;Node21</title>
<path fill="none" stroke="midnightblue" d="M76.69,-660.31C73.85,-639.52 69.29,-583.97 95,-550 119.4,-517.76 230.1,-479.45 287.79,-461.2"/>
<polygon fill="midnightblue" stroke="midnightblue" points="289.08,-464.46 297.58,-458.13 286.99,-457.78 289.08,-464.46"/>
</g>
<!-- Node39&#45;&gt;Node33 -->
<g id="edge75" class="edge">
<title>Node39&#45;&gt;Node33</title>
<path fill="none" stroke="midnightblue" d="M534.71,-609.42C495.19,-603.5 424.31,-590.76 367,-569 332.11,-555.76 294.84,-533.5 272.49,-519.16"/>
<polygon fill="midnightblue" stroke="midnightblue" points="274.16,-516.08 263.87,-513.55 270.34,-521.94 274.16,-516.08"/>
</g>
<!-- Node40 -->
<g id="node40" class="node">
<title>Node40</title>
<g id="a_node40"><a xlink:href="../../d8/dd6/_e_q_t_b_8h.html" target="_top" xlink:title=" ">
<polygon fill="none" stroke="black" points="558.77,-550.5 558.77,-568.5 639.23,-568.5 639.23,-550.5 558.77,-550.5"/>
<text text-anchor="middle" x="599" y="-556.5" font-family="Helvetica,sans-Serif" font-size="10.00">tralics/EQTB.h</text>
</a>
</g>
</g>
<!-- Node39&#45;&gt;Node40 -->
<g id="edge54" class="edge">
<title>Node39&#45;&gt;Node40</title>
<path fill="none" stroke="midnightblue" d="M570.31,-605.22C575.13,-597.71 582.38,-586.41 588.38,-577.05"/>
<polygon fill="midnightblue" stroke="midnightblue" points="591.38,-578.86 593.84,-568.55 585.49,-575.08 591.38,-578.86"/>
</g>
<!-- Node41 -->
<g id="node41" class="node">
<title>Node41</title>
<g id="a_node41"><a xlink:href="../../da/d27/_hashtab_8h.html" target="_top" xlink:title=" ">
<polygon fill="none" stroke="black" points="582.76,-495.5 582.76,-513.5 673.24,-513.5 673.24,-495.5 582.76,-495.5"/>
<text text-anchor="middle" x="628" y="-501.5" font-family="Helvetica,sans-Serif" font-size="10.00">tralics/Hashtab.h</text>
</a>
</g>
</g>
<!-- Node39&#45;&gt;Node41 -->
<g id="edge56" class="edge">
<title>Node39&#45;&gt;Node41</title>
<path fill="none" stroke="midnightblue" d="M595.09,-605.91C613.87,-599.45 636.58,-588.08 648,-569 656.69,-554.48 648.89,-535.79 640.63,-522.45"/>
<polygon fill="midnightblue" stroke="midnightblue" points="643.28,-520.12 634.76,-513.83 637.49,-524.06 643.28,-520.12"/>
</g>
<!-- Node43 -->
<g id="node43" class="node">
<title>Node43</title>
<g id="a_node43"><a xlink:href="../../d3/d6b/txcond_8h.html" target="_top" xlink:title=" ">
<polygon fill="none" stroke="black" points="550.1,-220.5 550.1,-238.5 603.9,-238.5 603.9,-220.5 550.1,-220.5"/>
<text text-anchor="middle" x="577" y="-226.5" font-family="Helvetica,sans-Serif" font-size="10.00">txcond.h</text>
</a>
</g>
</g>
<!-- Node39&#45;&gt;Node43 -->
<g id="edge63" class="edge">
<title>Node39&#45;&gt;Node43</title>
<path fill="none" stroke="midnightblue" d="M595.37,-606.56C616.94,-600.17 645.14,-588.62 663,-569 680.41,-549.88 677.72,-539.51 682,-514 695.83,-431.58 774.8,-458.47 653,-275 643.29,-260.37 626.99,-249.91 611.98,-242.83"/>
<polygon fill="midnightblue" stroke="midnightblue" points="612.95,-239.43 602.38,-238.65 610.15,-245.85 612.95,-239.43"/>
</g>
<!-- Node44 -->
<g id="node44" class="node">
<title>Node44</title>
<g id="a_node44"><a xlink:href="../../d7/d4d/txfonts_8h.html" target="_top" xlink:title=" ">
<polygon fill="none" stroke="black" points="791.1,-330.5 791.1,-348.5 844.9,-348.5 844.9,-330.5 791.1,-330.5"/>
<text text-anchor="middle" x="818" y="-336.5" font-family="Helvetica,sans-Serif" font-size="10.00">txfonts.h</text>
</a>
</g>
</g>
<!-- Node39&#45;&gt;Node44 -->
<g id="edge66" class="edge">
<title>Node39&#45;&gt;Node44</title>
<path fill="none" stroke="midnightblue" d="M595.24,-613.09C658.71,-610.47 800,-594.63 800,-505.5 800,-505.5 800,-505.5 800,-448.5 800,-416.44 807.82,-379.74 813.15,-358.43"/>
<polygon fill="midnightblue" stroke="midnightblue" points="816.59,-359.11 815.72,-348.55 809.81,-357.35 816.59,-359.11"/>
</g>
<!-- Node45 -->
<g id="node45" class="node">
<title>Node45</title>
<g id="a_node45"><a xlink:href="../../d7/d7e/txhash_8h.html" target="_top" xlink:title=" ">
<polygon fill="none" stroke="black" points="451.1,-495.5 451.1,-513.5 504.9,-513.5 504.9,-495.5 451.1,-495.5"/>
<text text-anchor="middle" x="478" y="-501.5" font-family="Helvetica,sans-Serif" font-size="10.00">txhash.h</text>
</a>
</g>
</g>
<!-- Node39&#45;&gt;Node45 -->
<g id="edge69" class="edge">
<title>Node39&#45;&gt;Node45</title>
<path fill="none" stroke="midnightblue" d="M558.46,-605.38C544.16,-587.63 509.9,-545.1 491.02,-521.67"/>
<polygon fill="midnightblue" stroke="midnightblue" points="493.61,-519.3 484.62,-513.71 488.16,-523.69 493.61,-519.3"/>
</g>
<!-- Node46 -->
<g id="node46" class="node">
<title>Node46</title>
<g id="a_node46"><a xlink:href="../../de/d7c/tximage_8h.html" target="_top" xlink:title=" ">
<polygon fill="none" stroke="black" points="713.32,-330.5 713.32,-348.5 772.68,-348.5 772.68,-330.5 713.32,-330.5"/>
<text text-anchor="middle" x="743" y="-336.5" font-family="Helvetica,sans-Serif" font-size="10.00">tximage.h</text>
</a>
</g>
</g>
<!-- Node39&#45;&gt;Node46 -->
<g id="edge72" class="edge">
<title>Node39&#45;&gt;Node46</title>
<path fill="none" stroke="midnightblue" d="M595.21,-612.56C629.39,-609.91 684.75,-600.62 719,-569 741.17,-548.54 743,-535.67 743,-505.5 743,-505.5 743,-505.5 743,-448.5 743,-417.02 743,-380.37 743,-358.88"/>
<polygon fill="midnightblue" stroke="midnightblue" points="746.5,-358.63 743,-348.63 739.5,-358.63 746.5,-358.63"/>
</g>
<!-- Node47 -->
<g id="node47" class="node">
<title>Node47</title>
<g id="a_node47"><a xlink:href="../../dc/d65/txstack_8h.html" target="_top" xlink:title=" ">
<polygon fill="none" stroke="black" points="376.27,-550.5 376.27,-568.5 431.73,-568.5 431.73,-550.5 376.27,-550.5"/>
<text text-anchor="middle" x="404" y="-556.5" font-family="Helvetica,sans-Serif" font-size="10.00">txstack.h</text>
</a>
</g>
</g>
<!-- Node39&#45;&gt;Node47 -->
<g id="edge76" class="edge">
<title>Node39&#45;&gt;Node47</title>
<path fill="none" stroke="midnightblue" d="M540.55,-605.45C513.28,-596.47 468.98,-581.89 438.27,-571.78"/>
<polygon fill="midnightblue" stroke="midnightblue" points="439.01,-568.34 428.42,-568.54 436.82,-574.99 439.01,-568.34"/>
</g>
<!-- Node49 -->
<g id="node49" class="node">
<title>Node49</title>
<g id="a_node49"><a xlink:href="../../d8/d3d/txstats_8h.html" target="_top" xlink:title=" ">
<polygon fill="none" stroke="black" points="449.38,-550.5 449.38,-568.5 502.62,-568.5 502.62,-550.5 449.38,-550.5"/>
<text text-anchor="middle" x="476" y="-556.5" font-family="Helvetica,sans-Serif" font-size="10.00">txstats.h</text>
</a>
</g>
</g>
<!-- Node39&#45;&gt;Node49 -->
<g id="edge79" class="edge">
<title>Node39&#45;&gt;Node49</title>
<path fill="none" stroke="midnightblue" d="M551.48,-605.45C537.37,-597.05 515,-583.72 498.27,-573.76"/>
<polygon fill="midnightblue" stroke="midnightblue" points="500.03,-570.73 489.64,-568.63 496.45,-576.75 500.03,-570.73"/>
</g>
<!-- Node40&#45;&gt;Node23 -->
<g id="edge55" class="edge">
<title>Node40&#45;&gt;Node23</title>
<path fill="none" stroke="midnightblue" d="M589.28,-550.42C558.19,-524.56 460.87,-443.63 420.66,-410.19"/>
<polygon fill="midnightblue" stroke="midnightblue" points="422.7,-407.34 412.78,-403.63 418.23,-412.72 422.7,-407.34"/>
</g>
<!-- Node41&#45;&gt;Node11 -->
<g id="edge62" class="edge">
<title>Node41&#45;&gt;Node11</title>
<path fill="none" stroke="midnightblue" d="M673.51,-503.06C744.36,-499.7 873,-481.73 873,-395.5 873,-395.5 873,-395.5 873,-283.5 873,-251.71 868.22,-214.92 864.97,-193.53"/>
<polygon fill="midnightblue" stroke="midnightblue" points="868.42,-192.93 863.39,-183.6 861.5,-194.02 868.42,-192.93"/>
</g>
<!-- Node41&#45;&gt;Node21 -->
<g id="edge61" class="edge">
<title>Node41&#45;&gt;Node21</title>
<path fill="none" stroke="midnightblue" d="M582.72,-497.23C530.79,-489.78 442.92,-476.38 358.24,-459.11"/>
<polygon fill="midnightblue" stroke="midnightblue" points="358.7,-455.64 348.2,-457.04 357.29,-462.49 358.7,-455.64"/>
</g>
<!-- Node42 -->
<g id="node42" class="node">
<title>Node42</title>
<g id="a_node42"><a xlink:href="../../d3/d01/txeqtb_8h.html" target="_top" xlink:title=" ">
<polygon fill="none" stroke="black" points="561.04,-440.5 561.04,-458.5 620.96,-458.5 620.96,-440.5 561.04,-440.5"/>
<text text-anchor="middle" x="591" y="-446.5" font-family="Helvetica,sans-Serif" font-size="10.00">../txeqtb.h</text>
</a>
</g>
</g>
<!-- Node41&#45;&gt;Node42 -->
<g id="edge57" class="edge">
<title>Node41&#45;&gt;Node42</title>
<path fill="none" stroke="midnightblue" d="M622.22,-495.22C616.92,-487.63 608.92,-476.18 602.35,-466.76"/>
<polygon fill="midnightblue" stroke="midnightblue" points="605.21,-464.75 596.62,-458.55 599.47,-468.75 605.21,-464.75"/>
</g>
<!-- Node42&#45;&gt;Node23 -->
<g id="edge60" class="edge">
<title>Node42&#45;&gt;Node23</title>
<path fill="none" stroke="midnightblue" d="M562.45,-440.45C530.05,-431.32 477.08,-416.38 441.16,-406.26"/>
<polygon fill="midnightblue" stroke="midnightblue" points="442.09,-402.88 431.51,-403.54 440.19,-409.62 442.09,-402.88"/>
</g>
<!-- Node42&#45;&gt;Node25 -->
<g id="edge59" class="edge">
<title>Node42&#45;&gt;Node25</title>
<path fill="none" stroke="midnightblue" d="M591.66,-440.19C593.67,-415.01 599.72,-339.11 602.54,-303.86"/>
<polygon fill="midnightblue" stroke="midnightblue" points="606.05,-303.84 603.35,-293.6 599.07,-303.29 606.05,-303.84"/>
</g>
<!-- Node42&#45;&gt;Node26 -->
<g id="edge58" class="edge">
<title>Node42&#45;&gt;Node26</title>
<path fill="none" stroke="midnightblue" d="M578.71,-440.26C556.95,-425 511.82,-390.09 489,-349 471.07,-316.72 465.51,-273.08 463.78,-248.77"/>
<polygon fill="midnightblue" stroke="midnightblue" points="467.26,-248.32 463.2,-238.53 460.27,-248.71 467.26,-248.32"/>
</g>
<!-- Node43&#45;&gt;Node12 -->
<g id="edge65" class="edge">
<title>Node43&#45;&gt;Node12</title>
<path fill="none" stroke="midnightblue" d="M586.57,-220.45C596.1,-212.43 610.94,-199.95 622.57,-190.17"/>
<polygon fill="midnightblue" stroke="midnightblue" points="624.94,-192.74 630.34,-183.63 620.44,-187.38 624.94,-192.74"/>
</g>
<!-- Node43&#45;&gt;Node13 -->
<g id="edge64" class="edge">
<title>Node43&#45;&gt;Node13</title>
<path fill="none" stroke="midnightblue" d="M570.44,-220.22C564.36,-212.55 555.16,-200.94 547.65,-191.47"/>
<polygon fill="midnightblue" stroke="midnightblue" points="550.33,-189.21 541.38,-183.55 544.85,-193.56 550.33,-189.21"/>
</g>
<!-- Node44&#45;&gt;Node4 -->
<g id="edge68" class="edge">
<title>Node44&#45;&gt;Node4</title>
<path fill="none" stroke="midnightblue" d="M817.42,-330.16C816.43,-317.92 814.01,-294.4 809,-275 806.64,-265.87 803.01,-256.04 799.71,-247.95"/>
<polygon fill="midnightblue" stroke="midnightblue" points="802.83,-246.35 795.69,-238.52 796.39,-249.09 802.83,-246.35"/>
</g>
<!-- Node44&#45;&gt;Node28 -->
<g id="edge67" class="edge">
<title>Node44&#45;&gt;Node28</title>
<path fill="none" stroke="midnightblue" d="M812.22,-330.22C806.92,-322.63 798.92,-311.18 792.35,-301.76"/>
<polygon fill="midnightblue" stroke="midnightblue" points="795.21,-299.75 786.62,-293.55 789.47,-303.75 795.21,-299.75"/>
</g>
<!-- Node45&#45;&gt;Node21 -->
<g id="edge70" class="edge">
<title>Node45&#45;&gt;Node21</title>
<path fill="none" stroke="midnightblue" d="M454.46,-495.45C428.21,-486.47 385.56,-471.89 355.99,-461.78"/>
<polygon fill="midnightblue" stroke="midnightblue" points="357.1,-458.46 346.51,-458.54 354.84,-465.09 357.1,-458.46"/>
</g>
<!-- Node45&#45;&gt;Node42 -->
<g id="edge71" class="edge">
<title>Node45&#45;&gt;Node42</title>
<path fill="none" stroke="midnightblue" d="M495.16,-495.45C513.58,-486.81 543.07,-472.98 564.48,-462.94"/>
<polygon fill="midnightblue" stroke="midnightblue" points="566.11,-466.04 573.68,-458.63 563.14,-459.7 566.11,-466.04"/>
</g>
<!-- Node46&#45;&gt;Node10 -->
<g id="edge73" class="edge">
<title>Node46&#45;&gt;Node10</title>
<path fill="none" stroke="midnightblue" d="M742.54,-330.19C741.15,-305.01 736.96,-229.11 735.01,-193.86"/>
<polygon fill="midnightblue" stroke="midnightblue" points="738.49,-193.39 734.45,-183.6 731.5,-193.77 738.49,-193.39"/>
</g>
<!-- Node46&#45;&gt;Node28 -->
<g id="edge74" class="edge">
<title>Node46&#45;&gt;Node28</title>
<path fill="none" stroke="midnightblue" d="M748.94,-330.22C754.38,-322.63 762.59,-311.18 769.34,-301.76"/>
<polygon fill="midnightblue" stroke="midnightblue" points="772.25,-303.72 775.23,-293.55 766.56,-299.64 772.25,-303.72"/>
</g>
<!-- Node47&#45;&gt;Node20 -->
<g id="edge77" class="edge">
<title>Node47&#45;&gt;Node20</title>
<path fill="none" stroke="midnightblue" d="M392.61,-550.45C381.05,-542.28 362.91,-529.46 348.95,-519.6"/>
<polygon fill="midnightblue" stroke="midnightblue" points="350.68,-516.54 340.5,-513.63 346.64,-522.25 350.68,-516.54"/>
</g>
<!-- Node48 -->
<g id="node48" class="node">
<title>Node48</title>
<g id="a_node48"><a xlink:href="../../d4/da4/txatt_8h.html" target="_top" xlink:title=" ">
<polygon fill="none" stroke="black" points="382.38,-495.5 382.38,-513.5 425.62,-513.5 425.62,-495.5 382.38,-495.5"/>
<text text-anchor="middle" x="404" y="-501.5" font-family="Helvetica,sans-Serif" font-size="10.00">txatt.h</text>
</a>
</g>
</g>
<!-- Node47&#45;&gt;Node48 -->
<g id="edge78" class="edge">
<title>Node47&#45;&gt;Node48</title>
<path fill="none" stroke="midnightblue" d="M404,-550.22C404,-543.18 404,-532.81 404,-523.83"/>
<polygon fill="midnightblue" stroke="midnightblue" points="407.5,-523.55 404,-513.55 400.5,-523.55 407.5,-523.55"/>
</g>
</g>
</svg>
