<?xml version="1.0" encoding="UTF-8" standalone="no"?>
<!DOCTYPE svg PUBLIC "-//W3C//DTD SVG 1.1//EN"
 "http://www.w3.org/Graphics/SVG/1.1/DTD/svg11.dtd">
<!-- Generated by graphviz version 2.42.3 (20191010.1750)
 -->
<!-- Title: txcommands.cpp Pages: 1 -->
<svg width="758pt" height="742pt"
 viewBox="0.00 0.00 758.15 742.00" xmlns="http://www.w3.org/2000/svg" xmlns:xlink="http://www.w3.org/1999/xlink">
<g id="graph0" class="graph" transform="scale(1 1) rotate(0) translate(4 738)">
<title>txcommands.cpp</title>
<!-- Node1 -->
<g id="node1" class="node">
<title>Node1</title>
<g id="a_node1"><a xlink:title=" ">
<polygon fill="#bfbfbf" stroke="black" points="359.89,-715.5 359.89,-733.5 451.48,-733.5 451.48,-715.5 359.89,-715.5"/>
<text text-anchor="middle" x="405.68" y="-721.5" font-family="Helvetica,sans-Serif" font-size="10.00">txcommands.cpp</text>
</a>
</g>
</g>
<!-- Node2 -->
<g id="node2" class="node">
<title>Node2</title>
<g id="a_node2"><a xlink:href="../../d5/d87/globals_8h.html" target="_top" xlink:title=" ">
<polygon fill="none" stroke="black" points="665.22,-440.5 665.22,-458.5 750.15,-458.5 750.15,-440.5 665.22,-440.5"/>
<text text-anchor="middle" x="707.68" y="-446.5" font-family="Helvetica,sans-Serif" font-size="10.00">tralics/globals.h</text>
</a>
</g>
</g>
<!-- Node1&#45;&gt;Node2 -->
<g id="edge1" class="edge">
<title>Node1&#45;&gt;Node2</title>
<path fill="none" stroke="midnightblue" d="M451.48,-716.04C532.51,-701.53 692.68,-666.41 692.68,-615.5 692.68,-615.5 692.68,-615.5 692.68,-558.5 692.68,-526.57 699.2,-489.83 703.64,-468.48"/>
<polygon fill="midnightblue" stroke="midnightblue" points="707.09,-469.09 705.78,-458.58 700.25,-467.61 707.09,-469.09"/>
</g>
<!-- Node13 -->
<g id="node13" class="node">
<title>Node13</title>
<g id="a_node13"><a xlink:href="../../d6/dcb/txbib_8h.html" target="_top" xlink:title=" ">
<polygon fill="none" stroke="black" points="254.95,-660.5 254.95,-678.5 300.42,-678.5 300.42,-660.5 254.95,-660.5"/>
<text text-anchor="middle" x="277.68" y="-666.5" font-family="Helvetica,sans-Serif" font-size="10.00">txbib.h</text>
</a>
</g>
</g>
<!-- Node1&#45;&gt;Node13 -->
<g id="edge13" class="edge">
<title>Node1&#45;&gt;Node13</title>
<path fill="none" stroke="midnightblue" d="M386.24,-715.45C365.1,-706.7 331.07,-692.61 306.75,-682.53"/>
<polygon fill="midnightblue" stroke="midnightblue" points="307.89,-679.22 297.31,-678.63 305.21,-685.68 307.89,-679.22"/>
</g>
<!-- Node14 -->
<g id="node14" class="node">
<title>Node14</title>
<g id="a_node14"><a xlink:href="../../d7/d79/txinline_8h.html" target="_top" xlink:title=" ">
<polygon fill="none" stroke="black" points="81.95,-605.5 81.95,-623.5 137.42,-623.5 137.42,-605.5 81.95,-605.5"/>
<text text-anchor="middle" x="109.68" y="-611.5" font-family="Helvetica,sans-Serif" font-size="10.00">txinline.h</text>
</a>
</g>
</g>
<!-- Node1&#45;&gt;Node14 -->
<g id="edge48" class="edge">
<title>Node1&#45;&gt;Node14</title>
<path fill="none" stroke="midnightblue" d="M370.51,-715.5C337.74,-707.62 287.74,-694.54 245.68,-679 205.41,-664.11 160.64,-642.09 133.85,-628.28"/>
<polygon fill="midnightblue" stroke="midnightblue" points="135.32,-625.09 124.83,-623.59 132.09,-631.31 135.32,-625.09"/>
</g>
<!-- Node34 -->
<g id="node34" class="node">
<title>Node34</title>
<g id="a_node34"><a xlink:href="../../dc/dd7/txclasses_8h.html" target="_top" xlink:title=" ">
<polygon fill="none" stroke="black" points="512.95,-660.5 512.95,-678.5 578.42,-678.5 578.42,-660.5 512.95,-660.5"/>
<text text-anchor="middle" x="545.68" y="-666.5" font-family="Helvetica,sans-Serif" font-size="10.00">txclasses.h</text>
</a>
</g>
</g>
<!-- Node1&#45;&gt;Node34 -->
<g id="edge46" class="edge">
<title>Node1&#45;&gt;Node34</title>
<path fill="none" stroke="midnightblue" d="M426.95,-715.45C450.28,-706.62 487.96,-692.35 514.6,-682.27"/>
<polygon fill="midnightblue" stroke="midnightblue" points="516.11,-685.44 524.22,-678.63 513.63,-678.89 516.11,-685.44"/>
</g>
<!-- Node35 -->
<g id="node35" class="node">
<title>Node35</title>
<g id="a_node35"><a xlink:href="../../d2/d1b/txparser_8h.html" target="_top" xlink:title=" ">
<polygon fill="none" stroke="black" points="375.73,-660.5 375.73,-678.5 435.64,-678.5 435.64,-660.5 375.73,-660.5"/>
<text text-anchor="middle" x="405.68" y="-666.5" font-family="Helvetica,sans-Serif" font-size="10.00">txparser.h</text>
</a>
</g>
</g>
<!-- Node1&#45;&gt;Node35 -->
<g id="edge49" class="edge">
<title>Node1&#45;&gt;Node35</title>
<path fill="none" stroke="midnightblue" d="M405.68,-715.22C405.68,-708.18 405.68,-697.81 405.68,-688.83"/>
<polygon fill="midnightblue" stroke="midnightblue" points="409.18,-688.55 405.68,-678.55 402.18,-688.55 409.18,-688.55"/>
</g>
<!-- Node3 -->
<g id="node3" class="node">
<title>Node3</title>
<g id="a_node3"><a xlink:href="../../d8/d47/codepoint_8h.html" target="_top" xlink:title=" ">
<polygon fill="none" stroke="black" points="394.83,-165.5 394.83,-183.5 462.54,-183.5 462.54,-165.5 394.83,-165.5"/>
<text text-anchor="middle" x="428.68" y="-171.5" font-family="Helvetica,sans-Serif" font-size="10.00">codepoint.h</text>
</a>
</g>
</g>
<!-- Node2&#45;&gt;Node3 -->
<g id="edge2" class="edge">
<title>Node2&#45;&gt;Node3</title>
<path fill="none" stroke="midnightblue" d="M697.35,-440.48C678.89,-426.63 638.54,-398.41 599.68,-385 485.66,-345.65 424.66,-424.61 330.68,-349 285.98,-313.03 295.51,-260.97 335.68,-220 350.56,-204.83 371.62,-194.17 389.95,-187.08"/>
<polygon fill="midnightblue" stroke="midnightblue" points="391.31,-190.31 399.51,-183.61 388.92,-183.74 391.31,-190.31"/>
</g>
<!-- Node9 -->
<g id="node9" class="node">
<title>Node9</title>
<g id="a_node9"><a xlink:href="../../d0/d0b/enums_8h.html" target="_top" xlink:title=" ">
<polygon fill="none" stroke="black" points="528.51,-165.5 528.51,-183.5 582.86,-183.5 582.86,-165.5 528.51,-165.5"/>
<text text-anchor="middle" x="555.68" y="-171.5" font-family="Helvetica,sans-Serif" font-size="10.00">enums.h</text>
</a>
</g>
</g>
<!-- Node2&#45;&gt;Node9 -->
<g id="edge8" class="edge">
<title>Node2&#45;&gt;Node9</title>
<path fill="none" stroke="midnightblue" d="M711.21,-440.27C718.53,-422.45 734.68,-378.77 734.68,-340.5 734.68,-340.5 734.68,-340.5 734.68,-283.5 734.68,-217.83 645.27,-191.04 592.83,-180.97"/>
<polygon fill="midnightblue" stroke="midnightblue" points="593.33,-177.51 582.87,-179.18 592.09,-184.4 593.33,-177.51"/>
</g>
<!-- Node11 -->
<g id="node11" class="node">
<title>Node11</title>
<g id="a_node11"><a xlink:title=" ">
<polygon fill="none" stroke="#bfbfbf" points="586.46,-220.5 586.46,-238.5 626.91,-238.5 626.91,-220.5 586.46,-220.5"/>
<text text-anchor="middle" x="606.68" y="-226.5" font-family="Helvetica,sans-Serif" font-size="10.00">string</text>
</a>
</g>
</g>
<!-- Node2&#45;&gt;Node11 -->
<g id="edge11" class="edge">
<title>Node2&#45;&gt;Node11</title>
<path fill="none" stroke="midnightblue" d="M703.97,-440.48C689.34,-408.91 635.5,-292.69 614.83,-248.09"/>
<polygon fill="midnightblue" stroke="midnightblue" points="617.92,-246.43 610.54,-238.82 611.57,-249.37 617.92,-246.43"/>
</g>
<!-- Node12 -->
<g id="node12" class="node">
<title>Node12</title>
<g id="a_node12"><a xlink:title=" ">
<polygon fill="none" stroke="#bfbfbf" points="547.07,-385.5 547.07,-403.5 590.3,-403.5 590.3,-385.5 547.07,-385.5"/>
<text text-anchor="middle" x="568.68" y="-391.5" font-family="Helvetica,sans-Serif" font-size="10.00">vector</text>
</a>
</g>
</g>
<!-- Node2&#45;&gt;Node12 -->
<g id="edge12" class="edge">
<title>Node2&#45;&gt;Node12</title>
<path fill="none" stroke="midnightblue" d="M686.57,-440.45C663.41,-431.62 626,-417.35 599.55,-407.27"/>
<polygon fill="midnightblue" stroke="midnightblue" points="600.59,-403.92 589.99,-403.63 598.09,-410.46 600.59,-403.92"/>
</g>
<!-- Node4 -->
<g id="node4" class="node">
<title>Node4</title>
<g id="a_node4"><a xlink:href="../../d9/d49/types_8h.html" target="_top" xlink:title=" ">
<polygon fill="none" stroke="black" points="495.56,-55.5 495.56,-73.5 543.81,-73.5 543.81,-55.5 495.56,-55.5"/>
<text text-anchor="middle" x="519.68" y="-61.5" font-family="Helvetica,sans-Serif" font-size="10.00">types.h</text>
</a>
</g>
</g>
<!-- Node3&#45;&gt;Node4 -->
<g id="edge3" class="edge">
<title>Node3&#45;&gt;Node4</title>
<path fill="none" stroke="midnightblue" d="M435.52,-165.38C450.48,-147.63 486.32,-105.1 506.06,-81.67"/>
<polygon fill="midnightblue" stroke="midnightblue" points="509,-83.61 512.77,-73.71 503.65,-79.1 509,-83.61"/>
</g>
<!-- Node8 -->
<g id="node8" class="node">
<title>Node8</title>
<g id="a_node8"><a xlink:title=" ">
<polygon fill="none" stroke="#bfbfbf" points="403.17,-110.5 403.17,-128.5 454.2,-128.5 454.2,-110.5 403.17,-110.5"/>
<text text-anchor="middle" x="428.68" y="-116.5" font-family="Helvetica,sans-Serif" font-size="10.00">optional</text>
</a>
</g>
</g>
<!-- Node3&#45;&gt;Node8 -->
<g id="edge7" class="edge">
<title>Node3&#45;&gt;Node8</title>
<path fill="none" stroke="midnightblue" d="M428.68,-165.22C428.68,-158.18 428.68,-147.81 428.68,-138.83"/>
<polygon fill="midnightblue" stroke="midnightblue" points="432.18,-138.55 428.68,-128.55 425.18,-138.55 432.18,-138.55"/>
</g>
<!-- Node5 -->
<g id="node5" class="node">
<title>Node5</title>
<g id="a_node5"><a xlink:title=" ">
<polygon fill="none" stroke="#bfbfbf" points="427.57,-0.5 427.57,-18.5 475.8,-18.5 475.8,-0.5 427.57,-0.5"/>
<text text-anchor="middle" x="451.68" y="-6.5" font-family="Helvetica,sans-Serif" font-size="10.00">cassert</text>
</a>
</g>
</g>
<!-- Node4&#45;&gt;Node5 -->
<g id="edge4" class="edge">
<title>Node4&#45;&gt;Node5</title>
<path fill="none" stroke="midnightblue" d="M509.36,-55.45C498.97,-47.36 482.74,-34.7 470.14,-24.88"/>
<polygon fill="midnightblue" stroke="midnightblue" points="472.15,-22.01 462.11,-18.63 467.85,-27.53 472.15,-22.01"/>
</g>
<!-- Node6 -->
<g id="node6" class="node">
<title>Node6</title>
<g id="a_node6"><a xlink:title=" ">
<polygon fill="none" stroke="#bfbfbf" points="493.89,-0.5 493.89,-18.5 545.48,-18.5 545.48,-0.5 493.89,-0.5"/>
<text text-anchor="middle" x="519.68" y="-6.5" font-family="Helvetica,sans-Serif" font-size="10.00">stddef.h</text>
</a>
</g>
</g>
<!-- Node4&#45;&gt;Node6 -->
<g id="edge5" class="edge">
<title>Node4&#45;&gt;Node6</title>
<path fill="none" stroke="midnightblue" d="M519.68,-55.22C519.68,-48.18 519.68,-37.81 519.68,-28.83"/>
<polygon fill="midnightblue" stroke="midnightblue" points="523.18,-28.55 519.68,-18.55 516.18,-28.55 523.18,-28.55"/>
</g>
<!-- Node7 -->
<g id="node7" class="node">
<title>Node7</title>
<g id="a_node7"><a xlink:title=" ">
<polygon fill="none" stroke="#bfbfbf" points="563.62,-0.5 563.62,-18.5 625.75,-18.5 625.75,-0.5 563.62,-0.5"/>
<text text-anchor="middle" x="594.68" y="-6.5" font-family="Helvetica,sans-Serif" font-size="10.00">type_traits</text>
</a>
</g>
</g>
<!-- Node4&#45;&gt;Node7 -->
<g id="edge6" class="edge">
<title>Node4&#45;&gt;Node7</title>
<path fill="none" stroke="midnightblue" d="M531.08,-55.45C542.64,-47.28 560.78,-34.46 574.73,-24.6"/>
<polygon fill="midnightblue" stroke="midnightblue" points="577.04,-27.25 583.19,-18.63 573,-21.54 577.04,-27.25"/>
</g>
<!-- Node10 -->
<g id="node10" class="node">
<title>Node10</title>
<g id="a_node10"><a xlink:href="../../d8/db5/consts_8h.html" target="_top" xlink:title=" ">
<polygon fill="none" stroke="black" points="525.06,-110.5 525.06,-128.5 578.31,-128.5 578.31,-110.5 525.06,-110.5"/>
<text text-anchor="middle" x="551.68" y="-116.5" font-family="Helvetica,sans-Serif" font-size="10.00">consts.h</text>
</a>
</g>
</g>
<!-- Node9&#45;&gt;Node10 -->
<g id="edge9" class="edge">
<title>Node9&#45;&gt;Node10</title>
<path fill="none" stroke="midnightblue" d="M555.06,-165.22C554.52,-158.1 553.73,-147.58 553.05,-138.53"/>
<polygon fill="midnightblue" stroke="midnightblue" points="556.53,-138.26 552.29,-128.55 549.55,-138.78 556.53,-138.26"/>
</g>
<!-- Node10&#45;&gt;Node4 -->
<g id="edge10" class="edge">
<title>Node10&#45;&gt;Node4</title>
<path fill="none" stroke="midnightblue" d="M546.68,-110.22C542.2,-102.79 535.47,-91.65 529.85,-82.34"/>
<polygon fill="midnightblue" stroke="midnightblue" points="532.71,-80.3 524.54,-73.55 526.72,-83.92 532.71,-80.3"/>
</g>
<!-- Node13&#45;&gt;Node14 -->
<g id="edge14" class="edge">
<title>Node13&#45;&gt;Node14</title>
<path fill="none" stroke="midnightblue" d="M254.68,-661.24C226.34,-652.3 177.9,-637.02 144.87,-626.6"/>
<polygon fill="midnightblue" stroke="midnightblue" points="145.75,-623.21 135.16,-623.54 143.64,-629.88 145.75,-623.21"/>
</g>
<!-- Node33 -->
<g id="node33" class="node">
<title>Node33</title>
<g id="a_node33"><a xlink:href="../../d1/d43/txxml_8h.html" target="_top" xlink:title=" ">
<polygon fill="none" stroke="black" points="448.85,-550.5 448.85,-568.5 496.52,-568.5 496.52,-550.5 448.85,-550.5"/>
<text text-anchor="middle" x="472.68" y="-556.5" font-family="Helvetica,sans-Serif" font-size="10.00">txxml.h</text>
</a>
</g>
</g>
<!-- Node13&#45;&gt;Node33 -->
<g id="edge43" class="edge">
<title>Node13&#45;&gt;Node33</title>
<path fill="none" stroke="midnightblue" d="M277.7,-660.17C278.19,-646.61 281.21,-619.78 296.68,-605 342.15,-561.57 373.73,-583.18 438.74,-569.27"/>
<polygon fill="midnightblue" stroke="midnightblue" points="439.65,-572.65 448.58,-566.94 438.05,-565.83 439.65,-572.65"/>
</g>
<!-- Node15 -->
<g id="node15" class="node">
<title>Node15</title>
<g id="a_node15"><a xlink:href="../../d4/de9/_main_class_8h.html" target="_top" xlink:title=" ">
<polygon fill="none" stroke="black" points="193.73,-550.5 193.73,-568.5 293.64,-568.5 293.64,-550.5 193.73,-550.5"/>
<text text-anchor="middle" x="243.68" y="-556.5" font-family="Helvetica,sans-Serif" font-size="10.00">tralics/MainClass.h</text>
</a>
</g>
</g>
<!-- Node14&#45;&gt;Node15 -->
<g id="edge15" class="edge">
<title>Node14&#45;&gt;Node15</title>
<path fill="none" stroke="midnightblue" d="M130.04,-605.45C152.27,-596.66 188.11,-582.48 213.6,-572.4"/>
<polygon fill="midnightblue" stroke="midnightblue" points="215.13,-575.56 223.14,-568.63 212.55,-569.05 215.13,-575.56"/>
</g>
<!-- Node30 -->
<g id="node30" class="node">
<title>Node30</title>
<g id="a_node30"><a xlink:href="../../d2/d06/txlogger_8h.html" target="_top" xlink:title=" ">
<polygon fill="none" stroke="black" points="0,-550.5 0,-568.5 59.37,-568.5 59.37,-550.5 0,-550.5"/>
<text text-anchor="middle" x="29.68" y="-556.5" font-family="Helvetica,sans-Serif" font-size="10.00">txlogger.h</text>
</a>
</g>
</g>
<!-- Node14&#45;&gt;Node30 -->
<g id="edge38" class="edge">
<title>Node14&#45;&gt;Node30</title>
<path fill="none" stroke="midnightblue" d="M97.53,-605.45C85.08,-597.2 65.48,-584.22 50.54,-574.32"/>
<polygon fill="midnightblue" stroke="midnightblue" points="52.22,-571.23 41.95,-568.63 48.35,-577.07 52.22,-571.23"/>
</g>
<!-- Node32 -->
<g id="node32" class="node">
<title>Node32</title>
<g id="a_node32"><a xlink:href="../../d5/d08/txparam_8h.html" target="_top" xlink:title=" ">
<polygon fill="none" stroke="black" points="77.45,-550.5 77.45,-568.5 137.92,-568.5 137.92,-550.5 77.45,-550.5"/>
<text text-anchor="middle" x="107.68" y="-556.5" font-family="Helvetica,sans-Serif" font-size="10.00">txparam.h</text>
</a>
</g>
</g>
<!-- Node14&#45;&gt;Node32 -->
<g id="edge41" class="edge">
<title>Node14&#45;&gt;Node32</title>
<path fill="none" stroke="midnightblue" d="M109.37,-605.22C109.11,-598.18 108.72,-587.81 108.38,-578.83"/>
<polygon fill="midnightblue" stroke="midnightblue" points="111.86,-578.41 107.99,-568.55 104.87,-578.67 111.86,-578.41"/>
</g>
<!-- Node16 -->
<g id="node16" class="node">
<title>Node16</title>
<g id="a_node16"><a xlink:href="../../de/d29/txio_8h.html" target="_top" xlink:title=" ">
<polygon fill="none" stroke="black" points="141.57,-495.5 141.57,-513.5 189.8,-513.5 189.8,-495.5 141.57,-495.5"/>
<text text-anchor="middle" x="165.68" y="-501.5" font-family="Helvetica,sans-Serif" font-size="10.00">../txio.h</text>
</a>
</g>
</g>
<!-- Node15&#45;&gt;Node16 -->
<g id="edge16" class="edge">
<title>Node15&#45;&gt;Node16</title>
<path fill="none" stroke="midnightblue" d="M231.84,-550.45C219.7,-542.2 200.59,-529.22 186.02,-519.32"/>
<polygon fill="midnightblue" stroke="midnightblue" points="187.88,-516.35 177.64,-513.63 183.95,-522.14 187.88,-516.35"/>
</g>
<!-- Node29 -->
<g id="node29" class="node">
<title>Node29</title>
<g id="a_node29"><a xlink:href="../../dc/def/txstring_8h.html" target="_top" xlink:title=" ">
<polygon fill="none" stroke="black" points="397.23,-495.5 397.23,-513.5 462.14,-513.5 462.14,-495.5 397.23,-495.5"/>
<text text-anchor="middle" x="429.68" y="-501.5" font-family="Helvetica,sans-Serif" font-size="10.00">../txstring.h</text>
</a>
</g>
</g>
<!-- Node15&#45;&gt;Node29 -->
<g id="edge36" class="edge">
<title>Node15&#45;&gt;Node29</title>
<path fill="none" stroke="midnightblue" d="M271.93,-550.45C303.85,-541.36 355.95,-526.51 391.47,-516.39"/>
<polygon fill="midnightblue" stroke="midnightblue" points="392.82,-519.64 401.47,-513.54 390.9,-512.91 392.82,-519.64"/>
</g>
<!-- Node17 -->
<g id="node17" class="node">
<title>Node17</title>
<g id="a_node17"><a xlink:href="../../dd/d74/txbuffer_8h.html" target="_top" xlink:title=" ">
<polygon fill="none" stroke="black" points="421.2,-440.5 421.2,-458.5 478.17,-458.5 478.17,-440.5 421.2,-440.5"/>
<text text-anchor="middle" x="449.68" y="-446.5" font-family="Helvetica,sans-Serif" font-size="10.00">txbuffer.h</text>
</a>
</g>
</g>
<!-- Node16&#45;&gt;Node17 -->
<g id="edge17" class="edge">
<title>Node16&#45;&gt;Node17</title>
<path fill="none" stroke="midnightblue" d="M189.9,-498.98C239.12,-489.79 351.24,-468.87 410.81,-457.76"/>
<polygon fill="midnightblue" stroke="midnightblue" points="411.76,-461.14 420.94,-455.86 410.47,-454.26 411.76,-461.14"/>
</g>
<!-- Node28 -->
<g id="node28" class="node">
<title>Node28</title>
<g id="a_node28"><a xlink:title=" ">
<polygon fill="none" stroke="#bfbfbf" points="73.01,-440.5 73.01,-458.5 122.35,-458.5 122.35,-440.5 73.01,-440.5"/>
<text text-anchor="middle" x="97.68" y="-446.5" font-family="Helvetica,sans-Serif" font-size="10.00">fstream</text>
</a>
</g>
</g>
<!-- Node16&#45;&gt;Node28 -->
<g id="edge35" class="edge">
<title>Node16&#45;&gt;Node28</title>
<path fill="none" stroke="midnightblue" d="M155.36,-495.45C144.97,-487.36 128.74,-474.7 116.14,-464.88"/>
<polygon fill="midnightblue" stroke="midnightblue" points="118.15,-462.01 108.11,-458.63 113.85,-467.53 118.15,-462.01"/>
</g>
<!-- Node17&#45;&gt;Node12 -->
<g id="edge34" class="edge">
<title>Node17&#45;&gt;Node12</title>
<path fill="none" stroke="midnightblue" d="M467.76,-440.45C487.24,-431.77 518.49,-417.86 541.06,-407.8"/>
<polygon fill="midnightblue" stroke="midnightblue" points="542.73,-410.89 550.44,-403.63 539.88,-404.5 542.73,-410.89"/>
</g>
<!-- Node18 -->
<g id="node18" class="node">
<title>Node18</title>
<g id="a_node18"><a xlink:href="../../d1/d9e/txid_8h.html" target="_top" xlink:title=" ">
<polygon fill="none" stroke="black" points="503.73,-330.5 503.73,-348.5 543.64,-348.5 543.64,-330.5 503.73,-330.5"/>
<text text-anchor="middle" x="523.68" y="-336.5" font-family="Helvetica,sans-Serif" font-size="10.00">txid.h</text>
</a>
</g>
</g>
<!-- Node17&#45;&gt;Node18 -->
<g id="edge18" class="edge">
<title>Node17&#45;&gt;Node18</title>
<path fill="none" stroke="midnightblue" d="M457.99,-440.48C466.57,-431.94 480.02,-417.78 489.68,-404 500,-389.3 509.44,-371.11 515.74,-357.97"/>
<polygon fill="midnightblue" stroke="midnightblue" points="519.02,-359.22 520.08,-348.68 512.68,-356.26 519.02,-359.22"/>
</g>
<!-- Node21 -->
<g id="node21" class="node">
<title>Node21</title>
<g id="a_node21"><a xlink:href="../../d9/d18/txscaled_8h.html" target="_top" xlink:title=" ">
<polygon fill="none" stroke="black" points="419.17,-385.5 419.17,-403.5 480.2,-403.5 480.2,-385.5 419.17,-385.5"/>
<text text-anchor="middle" x="449.68" y="-391.5" font-family="Helvetica,sans-Serif" font-size="10.00">txscaled.h</text>
</a>
</g>
</g>
<!-- Node17&#45;&gt;Node21 -->
<g id="edge24" class="edge">
<title>Node17&#45;&gt;Node21</title>
<path fill="none" stroke="midnightblue" d="M449.68,-440.22C449.68,-433.18 449.68,-422.81 449.68,-413.83"/>
<polygon fill="midnightblue" stroke="midnightblue" points="453.18,-413.55 449.68,-403.55 446.18,-413.55 453.18,-413.55"/>
</g>
<!-- Node27 -->
<g id="node27" class="node">
<title>Node27</title>
<g id="a_node27"><a xlink:title=" ">
<polygon fill="none" stroke="#bfbfbf" points="355.96,-385.5 355.96,-403.5 401.41,-403.5 401.41,-385.5 355.96,-385.5"/>
<text text-anchor="middle" x="378.68" y="-391.5" font-family="Helvetica,sans-Serif" font-size="10.00">cstring</text>
</a>
</g>
</g>
<!-- Node17&#45;&gt;Node27 -->
<g id="edge33" class="edge">
<title>Node17&#45;&gt;Node27</title>
<path fill="none" stroke="midnightblue" d="M438.9,-440.45C428.06,-432.36 411.11,-419.7 397.95,-409.88"/>
<polygon fill="midnightblue" stroke="midnightblue" points="399.68,-406.8 389.57,-403.63 395.49,-412.41 399.68,-406.8"/>
</g>
<!-- Node18&#45;&gt;Node11 -->
<g id="edge23" class="edge">
<title>Node18&#45;&gt;Node11</title>
<path fill="none" stroke="midnightblue" d="M543.83,-331.72C560.75,-324.92 584.14,-312.75 596.68,-294 605.61,-280.67 607.66,-262.29 607.75,-248.73"/>
<polygon fill="midnightblue" stroke="midnightblue" points="611.25,-248.59 607.47,-238.69 604.25,-248.79 611.25,-248.59"/>
</g>
<!-- Node19 -->
<g id="node19" class="node">
<title>Node19</title>
<g id="a_node19"><a xlink:href="../../d5/daf/_istring_8h.html" target="_top" xlink:title=" ">
<polygon fill="none" stroke="black" points="474.45,-275.5 474.45,-293.5 554.92,-293.5 554.92,-275.5 474.45,-275.5"/>
<text text-anchor="middle" x="514.68" y="-281.5" font-family="Helvetica,sans-Serif" font-size="10.00">tralics/Istring.h</text>
</a>
</g>
</g>
<!-- Node18&#45;&gt;Node19 -->
<g id="edge19" class="edge">
<title>Node18&#45;&gt;Node19</title>
<path fill="none" stroke="midnightblue" d="M522.28,-330.22C521.07,-323.1 519.28,-312.58 517.75,-303.53"/>
<polygon fill="midnightblue" stroke="midnightblue" points="521.18,-302.82 516.05,-293.55 514.28,-303.99 521.18,-302.82"/>
</g>
<!-- Node19&#45;&gt;Node9 -->
<g id="edge20" class="edge">
<title>Node19&#45;&gt;Node9</title>
<path fill="none" stroke="midnightblue" d="M519.16,-275.49C523.94,-266.72 531.51,-252.15 536.68,-239 542.55,-224.09 547.66,-206.62 551.09,-193.78"/>
<polygon fill="midnightblue" stroke="midnightblue" points="554.54,-194.43 553.66,-183.87 547.76,-192.67 554.54,-194.43"/>
</g>
<!-- Node19&#45;&gt;Node11 -->
<g id="edge22" class="edge">
<title>Node19&#45;&gt;Node11</title>
<path fill="none" stroke="midnightblue" d="M528.66,-275.45C543.25,-267.05 566.37,-253.72 583.66,-243.76"/>
<polygon fill="midnightblue" stroke="midnightblue" points="585.66,-246.65 592.58,-238.63 582.17,-240.58 585.66,-246.65"/>
</g>
<!-- Node20 -->
<g id="node20" class="node">
<title>Node20</title>
<g id="a_node20"><a xlink:title=" ">
<polygon fill="none" stroke="#bfbfbf" points="489.29,-220.5 489.29,-238.5 528.08,-238.5 528.08,-220.5 489.29,-220.5"/>
<text text-anchor="middle" x="508.68" y="-226.5" font-family="Helvetica,sans-Serif" font-size="10.00">array</text>
</a>
</g>
</g>
<!-- Node19&#45;&gt;Node20 -->
<g id="edge21" class="edge">
<title>Node19&#45;&gt;Node20</title>
<path fill="none" stroke="midnightblue" d="M513.75,-275.22C512.94,-268.1 511.75,-257.58 510.73,-248.53"/>
<polygon fill="midnightblue" stroke="midnightblue" points="514.2,-248.09 509.6,-238.55 507.24,-248.88 514.2,-248.09"/>
</g>
<!-- Node22 -->
<g id="node22" class="node">
<title>Node22</title>
<g id="a_node22"><a xlink:href="../../dc/d91/txtokenlist_8h.html" target="_top" xlink:title=" ">
<polygon fill="none" stroke="black" points="339.28,-330.5 339.28,-348.5 408.09,-348.5 408.09,-330.5 339.28,-330.5"/>
<text text-anchor="middle" x="373.68" y="-336.5" font-family="Helvetica,sans-Serif" font-size="10.00">txtokenlist.h</text>
</a>
</g>
</g>
<!-- Node21&#45;&gt;Node22 -->
<g id="edge25" class="edge">
<title>Node21&#45;&gt;Node22</title>
<path fill="none" stroke="midnightblue" d="M438.14,-385.45C426.42,-377.28 408.04,-364.46 393.9,-354.6"/>
<polygon fill="midnightblue" stroke="midnightblue" points="395.54,-351.47 385.34,-348.63 391.54,-357.22 395.54,-351.47"/>
</g>
<!-- Node22&#45;&gt;Node19 -->
<g id="edge26" class="edge">
<title>Node22&#45;&gt;Node19</title>
<path fill="none" stroke="midnightblue" d="M395.1,-330.45C418.6,-321.62 456.54,-307.35 483.38,-297.27"/>
<polygon fill="midnightblue" stroke="midnightblue" points="484.94,-300.42 493.07,-293.63 482.48,-293.87 484.94,-300.42"/>
</g>
<!-- Node23 -->
<g id="node23" class="node">
<title>Node23</title>
<g id="a_node23"><a xlink:href="../../dd/dcd/_token_8h.html" target="_top" xlink:title=" ">
<polygon fill="none" stroke="black" points="319.73,-275.5 319.73,-293.5 399.64,-293.5 399.64,-275.5 319.73,-275.5"/>
<text text-anchor="middle" x="359.68" y="-281.5" font-family="Helvetica,sans-Serif" font-size="10.00">tralics/Token.h</text>
</a>
</g>
</g>
<!-- Node22&#45;&gt;Node23 -->
<g id="edge27" class="edge">
<title>Node22&#45;&gt;Node23</title>
<path fill="none" stroke="midnightblue" d="M371.5,-330.22C369.6,-323.02 366.78,-312.35 364.37,-303.23"/>
<polygon fill="midnightblue" stroke="midnightblue" points="367.75,-302.32 361.81,-293.55 360.98,-304.11 367.75,-302.32"/>
</g>
<!-- Node26 -->
<g id="node26" class="node">
<title>Node26</title>
<g id="a_node26"><a xlink:title=" ">
<polygon fill="none" stroke="#bfbfbf" points="417.29,-275.5 417.29,-293.5 456.08,-293.5 456.08,-275.5 417.29,-275.5"/>
<text text-anchor="middle" x="436.68" y="-281.5" font-family="Helvetica,sans-Serif" font-size="10.00">utility</text>
</a>
</g>
</g>
<!-- Node22&#45;&gt;Node26 -->
<g id="edge32" class="edge">
<title>Node22&#45;&gt;Node26</title>
<path fill="none" stroke="midnightblue" d="M383.25,-330.45C392.78,-322.43 407.62,-309.95 419.25,-300.17"/>
<polygon fill="midnightblue" stroke="midnightblue" points="421.63,-302.74 427.03,-293.63 417.12,-297.38 421.63,-302.74"/>
</g>
<!-- Node24 -->
<g id="node24" class="node">
<title>Node24</title>
<g id="a_node24"><a xlink:href="../../d2/d68/_cmd_chr_8h.html" target="_top" xlink:title=" ">
<polygon fill="none" stroke="black" points="398.17,-220.5 398.17,-238.5 459.19,-238.5 459.19,-220.5 398.17,-220.5"/>
<text text-anchor="middle" x="428.68" y="-226.5" font-family="Helvetica,sans-Serif" font-size="10.00">CmdChr.h</text>
</a>
</g>
</g>
<!-- Node23&#45;&gt;Node24 -->
<g id="edge28" class="edge">
<title>Node23&#45;&gt;Node24</title>
<path fill="none" stroke="midnightblue" d="M370.16,-275.45C380.7,-267.36 397.17,-254.7 409.96,-244.88"/>
<polygon fill="midnightblue" stroke="midnightblue" points="412.31,-247.49 418.11,-238.63 408.04,-241.94 412.31,-247.49"/>
</g>
<!-- Node25 -->
<g id="node25" class="node">
<title>Node25</title>
<g id="a_node25"><a xlink:title=" ">
<polygon fill="none" stroke="#bfbfbf" points="345.18,-220.5 345.18,-238.5 374.18,-238.5 374.18,-220.5 345.18,-220.5"/>
<text text-anchor="middle" x="359.3" y="-226.5" font-family="Helvetica,sans-Serif" font-size="10.00">list</text>
</a>
</g>
</g>
<!-- Node23&#45;&gt;Node25 -->
<g id="edge31" class="edge">
<title>Node23&#45;&gt;Node25</title>
<path fill="none" stroke="midnightblue" d="M359.68,-275.22C359.68,-268.18 359.68,-257.81 359.68,-248.83"/>
<polygon fill="midnightblue" stroke="midnightblue" points="363.18,-248.55 359.68,-238.55 356.18,-248.55 363.18,-248.55"/>
</g>
<!-- Node24&#45;&gt;Node3 -->
<g id="edge29" class="edge">
<title>Node24&#45;&gt;Node3</title>
<path fill="none" stroke="midnightblue" d="M428.68,-220.22C428.68,-213.18 428.68,-202.81 428.68,-193.83"/>
<polygon fill="midnightblue" stroke="midnightblue" points="432.18,-193.55 428.68,-183.55 425.18,-193.55 432.18,-193.55"/>
</g>
<!-- Node24&#45;&gt;Node9 -->
<g id="edge30" class="edge">
<title>Node24&#45;&gt;Node9</title>
<path fill="none" stroke="midnightblue" d="M447.97,-220.45C468.95,-211.7 502.71,-197.61 526.85,-187.53"/>
<polygon fill="midnightblue" stroke="midnightblue" points="528.33,-190.71 536.21,-183.63 525.64,-184.25 528.33,-190.71"/>
</g>
<!-- Node29&#45;&gt;Node17 -->
<g id="edge37" class="edge">
<title>Node29&#45;&gt;Node17</title>
<path fill="none" stroke="midnightblue" d="M432.81,-495.22C435.56,-487.94 439.64,-477.11 443.11,-467.93"/>
<polygon fill="midnightblue" stroke="midnightblue" points="446.39,-469.14 446.65,-458.55 439.84,-466.67 446.39,-469.14"/>
</g>
<!-- Node30&#45;&gt;Node28 -->
<g id="edge39" class="edge">
<title>Node30&#45;&gt;Node28</title>
<path fill="none" stroke="midnightblue" d="M30.73,-550.09C32.63,-537.34 37.52,-512.72 48.68,-495 56.07,-483.27 67.38,-472.71 77.27,-464.83"/>
<polygon fill="midnightblue" stroke="midnightblue" points="79.61,-467.45 85.47,-458.62 75.38,-461.87 79.61,-467.45"/>
</g>
<!-- Node31 -->
<g id="node31" class="node">
<title>Node31</title>
<g id="a_node31"><a xlink:title=" ">
<polygon fill="none" stroke="#bfbfbf" points="57.51,-495.5 57.51,-513.5 111.86,-513.5 111.86,-495.5 57.51,-495.5"/>
<text text-anchor="middle" x="84.68" y="-501.5" font-family="Helvetica,sans-Serif" font-size="10.00">iostream</text>
</a>
</g>
</g>
<!-- Node30&#45;&gt;Node31 -->
<g id="edge40" class="edge">
<title>Node30&#45;&gt;Node31</title>
<path fill="none" stroke="midnightblue" d="M38.28,-550.22C46.48,-542.32 59.03,-530.22 69.01,-520.61"/>
<polygon fill="midnightblue" stroke="midnightblue" points="71.56,-523.01 76.33,-513.55 66.7,-517.97 71.56,-523.01"/>
</g>
<!-- Node32&#45;&gt;Node16 -->
<g id="edge42" class="edge">
<title>Node32&#45;&gt;Node16</title>
<path fill="none" stroke="midnightblue" d="M116.75,-550.22C125.48,-542.24 138.89,-529.98 149.47,-520.32"/>
<polygon fill="midnightblue" stroke="midnightblue" points="151.85,-522.88 156.88,-513.55 147.13,-517.71 151.85,-522.88"/>
</g>
<!-- Node33&#45;&gt;Node12 -->
<g id="edge45" class="edge">
<title>Node33&#45;&gt;Node12</title>
<path fill="none" stroke="midnightblue" d="M477.58,-550.19C492.6,-524.68 538.28,-447.13 558.67,-412.5"/>
<polygon fill="midnightblue" stroke="midnightblue" points="561.86,-413.99 563.92,-403.6 555.83,-410.44 561.86,-413.99"/>
</g>
<!-- Node33&#45;&gt;Node29 -->
<g id="edge44" class="edge">
<title>Node33&#45;&gt;Node29</title>
<path fill="none" stroke="midnightblue" d="M465.97,-550.22C459.74,-542.55 450.32,-530.94 442.64,-521.47"/>
<polygon fill="midnightblue" stroke="midnightblue" points="445.23,-519.11 436.22,-513.55 439.8,-523.52 445.23,-519.11"/>
</g>
<!-- Node34&#45;&gt;Node17 -->
<g id="edge47" class="edge">
<title>Node34&#45;&gt;Node17</title>
<path fill="none" stroke="midnightblue" d="M556.57,-660.36C566.3,-652.35 579.88,-639.13 585.68,-624 591.41,-609.07 592.35,-569.58 581.68,-550 558.8,-507.98 509.72,-478.48 478.28,-463.02"/>
<polygon fill="midnightblue" stroke="midnightblue" points="479.68,-459.81 469.14,-458.68 476.67,-466.13 479.68,-459.81"/>
</g>
<!-- Node35&#45;&gt;Node16 -->
<g id="edge61" class="edge">
<title>Node35&#45;&gt;Node16</title>
<path fill="none" stroke="midnightblue" d="M375.49,-667.19C337.59,-664.25 271.94,-654.72 225.68,-624 190.72,-600.78 175.15,-550.68 169.06,-523.66"/>
<polygon fill="midnightblue" stroke="midnightblue" points="172.45,-522.73 167.01,-513.64 165.59,-524.14 172.45,-522.73"/>
</g>
<!-- Node36 -->
<g id="node36" class="node">
<title>Node36</title>
<g id="a_node36"><a xlink:href="../../d3/d6b/txcond_8h.html" target="_top" xlink:title=" ">
<polygon fill="none" stroke="black" points="593.78,-440.5 593.78,-458.5 647.59,-458.5 647.59,-440.5 593.78,-440.5"/>
<text text-anchor="middle" x="620.68" y="-446.5" font-family="Helvetica,sans-Serif" font-size="10.00">txcond.h</text>
</a>
</g>
</g>
<!-- Node35&#45;&gt;Node36 -->
<g id="edge50" class="edge">
<title>Node35&#45;&gt;Node36</title>
<path fill="none" stroke="midnightblue" d="M435.9,-664.95C481.63,-658.95 565.26,-645.33 585.68,-624 626.74,-581.13 625.76,-504.17 622.81,-468.98"/>
<polygon fill="midnightblue" stroke="midnightblue" points="626.27,-468.36 621.79,-458.75 619.3,-469.05 626.27,-468.36"/>
</g>
<!-- Node37 -->
<g id="node37" class="node">
<title>Node37</title>
<g id="a_node37"><a xlink:href="../../d7/d4d/txfonts_8h.html" target="_top" xlink:title=" ">
<polygon fill="none" stroke="black" points="305.79,-605.5 305.79,-623.5 359.58,-623.5 359.58,-605.5 305.79,-605.5"/>
<text text-anchor="middle" x="332.68" y="-611.5" font-family="Helvetica,sans-Serif" font-size="10.00">txfonts.h</text>
</a>
</g>
</g>
<!-- Node35&#45;&gt;Node37 -->
<g id="edge53" class="edge">
<title>Node35&#45;&gt;Node37</title>
<path fill="none" stroke="midnightblue" d="M394.6,-660.45C383.34,-652.28 365.69,-639.46 352.1,-629.6"/>
<polygon fill="midnightblue" stroke="midnightblue" points="354.02,-626.67 343.88,-623.63 349.91,-632.33 354.02,-626.67"/>
</g>
<!-- Node38 -->
<g id="node38" class="node">
<title>Node38</title>
<g id="a_node38"><a xlink:href="../../d7/d7e/txhash_8h.html" target="_top" xlink:title=" ">
<polygon fill="none" stroke="black" points="522.78,-605.5 522.78,-623.5 576.59,-623.5 576.59,-605.5 522.78,-605.5"/>
<text text-anchor="middle" x="549.68" y="-611.5" font-family="Helvetica,sans-Serif" font-size="10.00">txhash.h</text>
</a>
</g>
</g>
<!-- Node35&#45;&gt;Node38 -->
<g id="edge55" class="edge">
<title>Node35&#45;&gt;Node38</title>
<path fill="none" stroke="midnightblue" d="M427.56,-660.45C451.66,-651.58 490.65,-637.23 518.08,-627.13"/>
<polygon fill="midnightblue" stroke="midnightblue" points="519.43,-630.36 527.61,-623.63 517.01,-623.79 519.43,-630.36"/>
</g>
<!-- Node40 -->
<g id="node40" class="node">
<title>Node40</title>
<g id="a_node40"><a xlink:href="../../de/d7c/tximage_8h.html" target="_top" xlink:title=" ">
<polygon fill="none" stroke="black" points="426.01,-330.5 426.01,-348.5 485.36,-348.5 485.36,-330.5 426.01,-330.5"/>
<text text-anchor="middle" x="455.68" y="-336.5" font-family="Helvetica,sans-Serif" font-size="10.00">tximage.h</text>
</a>
</g>
</g>
<!-- Node35&#45;&gt;Node40 -->
<g id="edge58" class="edge">
<title>Node35&#45;&gt;Node40</title>
<path fill="none" stroke="midnightblue" d="M375.67,-665.34C349.89,-660.85 314.18,-650.04 296.68,-624 291.98,-616.99 295.65,-613.38 296.68,-605 302.28,-559.75 321.68,-551.1 321.68,-505.5 321.68,-505.5 321.68,-505.5 321.68,-448.5 321.68,-418.17 325.37,-406.58 346.68,-385 357.33,-374.22 392.22,-360.99 419.69,-351.78"/>
<polygon fill="midnightblue" stroke="midnightblue" points="421.01,-355.03 429.42,-348.57 418.82,-348.38 421.01,-355.03"/>
</g>
<!-- Node41 -->
<g id="node41" class="node">
<title>Node41</title>
<g id="a_node41"><a xlink:href="../../dc/d65/txstack_8h.html" target="_top" xlink:title=" ">
<polygon fill="none" stroke="black" points="377.96,-605.5 377.96,-623.5 433.41,-623.5 433.41,-605.5 377.96,-605.5"/>
<text text-anchor="middle" x="405.68" y="-611.5" font-family="Helvetica,sans-Serif" font-size="10.00">txstack.h</text>
</a>
</g>
</g>
<!-- Node35&#45;&gt;Node41 -->
<g id="edge62" class="edge">
<title>Node35&#45;&gt;Node41</title>
<path fill="none" stroke="midnightblue" d="M405.68,-660.22C405.68,-653.18 405.68,-642.81 405.68,-633.83"/>
<polygon fill="midnightblue" stroke="midnightblue" points="409.18,-633.55 405.68,-623.55 402.18,-633.55 409.18,-633.55"/>
</g>
<!-- Node43 -->
<g id="node43" class="node">
<title>Node43</title>
<g id="a_node43"><a xlink:href="../../d8/d3d/txstats_8h.html" target="_top" xlink:title=" ">
<polygon fill="none" stroke="black" points="451.07,-605.5 451.07,-623.5 504.3,-623.5 504.3,-605.5 451.07,-605.5"/>
<text text-anchor="middle" x="477.68" y="-611.5" font-family="Helvetica,sans-Serif" font-size="10.00">txstats.h</text>
</a>
</g>
</g>
<!-- Node35&#45;&gt;Node43 -->
<g id="edge66" class="edge">
<title>Node35&#45;&gt;Node43</title>
<path fill="none" stroke="midnightblue" d="M416.62,-660.45C427.72,-652.28 445.13,-639.46 458.53,-629.6"/>
<polygon fill="midnightblue" stroke="midnightblue" points="460.67,-632.37 466.65,-623.63 456.52,-626.73 460.67,-632.37"/>
</g>
<!-- Node36&#45;&gt;Node9 -->
<g id="edge51" class="edge">
<title>Node36&#45;&gt;Node9</title>
<path fill="none" stroke="midnightblue" d="M624.3,-440.26C637.46,-408.92 679.82,-295.05 635.68,-220 626.26,-203.97 608.73,-193.29 592.48,-186.43"/>
<polygon fill="midnightblue" stroke="midnightblue" points="593.72,-183.16 583.13,-182.82 591.2,-189.69 593.72,-183.16"/>
</g>
<!-- Node36&#45;&gt;Node12 -->
<g id="edge52" class="edge">
<title>Node36&#45;&gt;Node12</title>
<path fill="none" stroke="midnightblue" d="M612.56,-440.22C604.88,-432.39 593.18,-420.46 583.79,-410.89"/>
<polygon fill="midnightblue" stroke="midnightblue" points="586.08,-408.24 576.58,-403.55 581.09,-413.14 586.08,-408.24"/>
</g>
<!-- Node37&#45;&gt;Node29 -->
<g id="edge54" class="edge">
<title>Node37&#45;&gt;Node29</title>
<path fill="none" stroke="midnightblue" d="M337.81,-605.24C345.78,-592.67 361.98,-568.29 378.68,-550 388.59,-539.15 400.98,-528.29 411.07,-520.01"/>
<polygon fill="midnightblue" stroke="midnightblue" points="413.29,-522.72 418.9,-513.72 408.91,-517.26 413.29,-522.72"/>
</g>
<!-- Node39 -->
<g id="node39" class="node">
<title>Node39</title>
<g id="a_node39"><a xlink:href="../../d3/d01/txeqtb_8h.html" target="_top" xlink:title=" ">
<polygon fill="none" stroke="black" points="520.89,-550.5 520.89,-568.5 572.48,-568.5 572.48,-550.5 520.89,-550.5"/>
<text text-anchor="middle" x="546.68" y="-556.5" font-family="Helvetica,sans-Serif" font-size="10.00">txeqtb.h</text>
</a>
</g>
</g>
<!-- Node38&#45;&gt;Node39 -->
<g id="edge56" class="edge">
<title>Node38&#45;&gt;Node39</title>
<path fill="none" stroke="midnightblue" d="M549.22,-605.22C548.82,-598.18 548.23,-587.81 547.72,-578.83"/>
<polygon fill="midnightblue" stroke="midnightblue" points="551.2,-578.34 547.14,-568.55 544.21,-578.73 551.2,-578.34"/>
</g>
<!-- Node39&#45;&gt;Node29 -->
<g id="edge57" class="edge">
<title>Node39&#45;&gt;Node29</title>
<path fill="none" stroke="midnightblue" d="M528.91,-550.45C509.76,-541.77 479.04,-527.86 456.85,-517.8"/>
<polygon fill="midnightblue" stroke="midnightblue" points="458.17,-514.56 447.62,-513.63 455.29,-520.94 458.17,-514.56"/>
</g>
<!-- Node40&#45;&gt;Node11 -->
<g id="edge59" class="edge">
<title>Node40&#45;&gt;Node11</title>
<path fill="none" stroke="midnightblue" d="M485.65,-331.27C508.82,-324.54 540.72,-312.69 563.68,-294 579.14,-281.42 591.22,-261.84 598.59,-247.75"/>
<polygon fill="midnightblue" stroke="midnightblue" points="601.8,-249.15 603.11,-238.64 595.53,-246.05 601.8,-249.15"/>
</g>
<!-- Node40&#45;&gt;Node26 -->
<g id="edge60" class="edge">
<title>Node40&#45;&gt;Node26</title>
<path fill="none" stroke="midnightblue" d="M452.72,-330.22C450.14,-323.02 446.31,-312.35 443.04,-303.23"/>
<polygon fill="midnightblue" stroke="midnightblue" points="446.24,-301.78 439.57,-293.55 439.65,-304.14 446.24,-301.78"/>
</g>
<!-- Node41&#45;&gt;Node33 -->
<g id="edge65" class="edge">
<title>Node41&#45;&gt;Node33</title>
<path fill="none" stroke="midnightblue" d="M415.86,-605.45C426.09,-597.36 442.09,-584.7 454.5,-574.88"/>
<polygon fill="midnightblue" stroke="midnightblue" points="456.74,-577.57 462.41,-568.63 452.4,-572.08 456.74,-577.57"/>
</g>
<!-- Node42 -->
<g id="node42" class="node">
<title>Node42</title>
<g id="a_node42"><a xlink:href="../../d4/da4/txatt_8h.html" target="_top" xlink:title=" ">
<polygon fill="none" stroke="black" points="388.07,-550.5 388.07,-568.5 431.3,-568.5 431.3,-550.5 388.07,-550.5"/>
<text text-anchor="middle" x="409.68" y="-556.5" font-family="Helvetica,sans-Serif" font-size="10.00">txatt.h</text>
</a>
</g>
</g>
<!-- Node41&#45;&gt;Node42 -->
<g id="edge63" class="edge">
<title>Node41&#45;&gt;Node42</title>
<path fill="none" stroke="midnightblue" d="M406.31,-605.22C406.85,-598.1 407.64,-587.58 408.32,-578.53"/>
<polygon fill="midnightblue" stroke="midnightblue" points="411.81,-578.78 409.08,-568.55 404.83,-578.26 411.81,-578.78"/>
</g>
<!-- Node42&#45;&gt;Node29 -->
<g id="edge64" class="edge">
<title>Node42&#45;&gt;Node29</title>
<path fill="none" stroke="midnightblue" d="M412.81,-550.22C415.56,-542.94 419.64,-532.11 423.11,-522.93"/>
<polygon fill="midnightblue" stroke="midnightblue" points="426.39,-524.14 426.65,-513.55 419.84,-521.67 426.39,-524.14"/>
</g>
</g>
</svg>
