<?xml version="1.0" encoding="UTF-8" standalone="no"?>
<!DOCTYPE svg PUBLIC "-//W3C//DTD SVG 1.1//EN"
 "http://www.w3.org/Graphics/SVG/1.1/DTD/svg11.dtd">
<!-- Generated by graphviz version 2.42.3 (20191010.1750)
 -->
<!-- Title: txcommands.cpp Pages: 1 -->
<svg width="746pt" height="797pt"
 viewBox="0.00 0.00 746.00 797.00" xmlns="http://www.w3.org/2000/svg" xmlns:xlink="http://www.w3.org/1999/xlink">
<g id="graph0" class="graph" transform="scale(1 1) rotate(0) translate(4 793)">
<title>txcommands.cpp</title>
<!-- Node1 -->
<g id="node1" class="node">
<title>Node1</title>
<g id="a_node1"><a xlink:title=" ">
<polygon fill="#bfbfbf" stroke="black" points="511.21,-770.5 511.21,-788.5 602.79,-788.5 602.79,-770.5 511.21,-770.5"/>
<text text-anchor="middle" x="557" y="-776.5" font-family="Helvetica,sans-Serif" font-size="10.00">txcommands.cpp</text>
</a>
</g>
</g>
<!-- Node2 -->
<g id="node2" class="node">
<title>Node2</title>
<g id="a_node2"><a xlink:href="../../db/d59/_saver_8h.html" target="_top" xlink:title=" ">
<polygon fill="none" stroke="black" points="285.6,-715.5 285.6,-733.5 364.4,-733.5 364.4,-715.5 285.6,-715.5"/>
<text text-anchor="middle" x="325" y="-721.5" font-family="Helvetica,sans-Serif" font-size="10.00">tralics/Saver.h</text>
</a>
</g>
</g>
<!-- Node1&#45;&gt;Node2 -->
<g id="edge1" class="edge">
<title>Node1&#45;&gt;Node2</title>
<path fill="none" stroke="midnightblue" d="M521.76,-770.45C481.19,-761.18 414.45,-745.94 370.12,-735.81"/>
<polygon fill="midnightblue" stroke="midnightblue" points="370.71,-732.35 360.19,-733.54 369.16,-739.18 370.71,-732.35"/>
</g>
<!-- Node3 -->
<g id="node3" class="node">
<title>Node3</title>
<g id="a_node3"><a xlink:href="../../d2/d1b/txparser_8h.html" target="_top" xlink:title=" ">
<polygon fill="none" stroke="black" points="239.87,-660.5 239.87,-678.5 308.13,-678.5 308.13,-660.5 239.87,-660.5"/>
<text text-anchor="middle" x="274" y="-666.5" font-family="Helvetica,sans-Serif" font-size="10.00">../txparser.h</text>
</a>
</g>
</g>
<!-- Node1&#45;&gt;Node3 -->
<g id="edge71" class="edge">
<title>Node1&#45;&gt;Node3</title>
<path fill="none" stroke="midnightblue" d="M535.73,-770.38C486.13,-751.45 362.65,-704.33 304.81,-682.26"/>
<polygon fill="midnightblue" stroke="midnightblue" points="305.72,-678.86 295.13,-678.56 303.23,-685.4 305.72,-678.86"/>
</g>
<!-- Node39 -->
<g id="node39" class="node">
<title>Node39</title>
<g id="a_node39"><a xlink:href="../../d5/d87/globals_8h.html" target="_top" xlink:title=" ">
<polygon fill="none" stroke="black" points="484.54,-275.5 484.54,-293.5 569.46,-293.5 569.46,-275.5 484.54,-275.5"/>
<text text-anchor="middle" x="527" y="-281.5" font-family="Helvetica,sans-Serif" font-size="10.00">tralics/globals.h</text>
</a>
</g>
</g>
<!-- Node1&#45;&gt;Node39 -->
<g id="edge51" class="edge">
<title>Node1&#45;&gt;Node39</title>
<path fill="none" stroke="midnightblue" d="M603.12,-775.57C636.65,-771.18 681.21,-760.39 711,-734 733.95,-713.66 738,-701.17 738,-670.5 738,-670.5 738,-670.5 738,-393.5 738,-322.55 642.31,-298.18 579.81,-289.83"/>
<polygon fill="midnightblue" stroke="midnightblue" points="580.05,-286.34 569.7,-288.58 579.19,-293.28 580.05,-286.34"/>
</g>
<!-- Node41 -->
<g id="node41" class="node">
<title>Node41</title>
<g id="a_node41"><a xlink:href="../../d6/dcb/txbib_8h.html" target="_top" xlink:title=" ">
<polygon fill="none" stroke="black" points="534.27,-660.5 534.27,-678.5 579.73,-678.5 579.73,-660.5 534.27,-660.5"/>
<text text-anchor="middle" x="557" y="-666.5" font-family="Helvetica,sans-Serif" font-size="10.00">txbib.h</text>
</a>
</g>
</g>
<!-- Node1&#45;&gt;Node41 -->
<g id="edge58" class="edge">
<title>Node1&#45;&gt;Node41</title>
<path fill="none" stroke="midnightblue" d="M557,-770.38C557,-753.18 557,-712.7 557,-688.89"/>
<polygon fill="midnightblue" stroke="midnightblue" points="560.5,-688.71 557,-678.71 553.5,-688.71 560.5,-688.71"/>
</g>
<!-- Node47 -->
<g id="node47" class="node">
<title>Node47</title>
<g id="a_node47"><a xlink:href="../../dc/dd7/txclasses_8h.html" target="_top" xlink:title=" ">
<polygon fill="none" stroke="black" points="636.27,-715.5 636.27,-733.5 701.73,-733.5 701.73,-715.5 636.27,-715.5"/>
<text text-anchor="middle" x="669" y="-721.5" font-family="Helvetica,sans-Serif" font-size="10.00">txclasses.h</text>
</a>
</g>
</g>
<!-- Node1&#45;&gt;Node47 -->
<g id="edge69" class="edge">
<title>Node1&#45;&gt;Node47</title>
<path fill="none" stroke="midnightblue" d="M574.01,-770.45C592.27,-761.81 621.49,-747.98 642.71,-737.94"/>
<polygon fill="midnightblue" stroke="midnightblue" points="644.29,-741.07 651.83,-733.63 641.29,-734.74 644.29,-741.07"/>
</g>
<!-- Node2&#45;&gt;Node3 -->
<g id="edge2" class="edge">
<title>Node2&#45;&gt;Node3</title>
<path fill="none" stroke="midnightblue" d="M317.03,-715.22C309.5,-707.39 298.02,-695.46 288.81,-685.89"/>
<polygon fill="midnightblue" stroke="midnightblue" points="291.2,-683.33 281.75,-678.55 286.16,-688.18 291.2,-683.33"/>
</g>
<!-- Node4 -->
<g id="node4" class="node">
<title>Node4</title>
<g id="a_node4"><a xlink:href="../../d8/dd6/_e_q_t_b_8h.html" target="_top" xlink:title=" ">
<polygon fill="none" stroke="black" points="71.77,-440.5 71.77,-458.5 152.23,-458.5 152.23,-440.5 71.77,-440.5"/>
<text text-anchor="middle" x="112" y="-446.5" font-family="Helvetica,sans-Serif" font-size="10.00">tralics/EQTB.h</text>
</a>
</g>
</g>
<!-- Node3&#45;&gt;Node4 -->
<g id="edge3" class="edge">
<title>Node3&#45;&gt;Node4</title>
<path fill="none" stroke="midnightblue" d="M239.72,-666.59C184.48,-662.71 79.67,-651.79 57,-624 17.76,-575.9 71.13,-499.46 98.08,-466.49"/>
<polygon fill="midnightblue" stroke="midnightblue" points="100.84,-468.65 104.59,-458.75 95.48,-464.15 100.84,-468.65"/>
</g>
<!-- Node23 -->
<g id="node23" class="node">
<title>Node23</title>
<g id="a_node23"><a xlink:href="../../d3/d6b/txcond_8h.html" target="_top" xlink:title=" ">
<polygon fill="none" stroke="black" points="312.1,-275.5 312.1,-293.5 365.9,-293.5 365.9,-275.5 312.1,-275.5"/>
<text text-anchor="middle" x="339" y="-281.5" font-family="Helvetica,sans-Serif" font-size="10.00">txcond.h</text>
</a>
</g>
</g>
<!-- Node3&#45;&gt;Node23 -->
<g id="edge25" class="edge">
<title>Node3&#45;&gt;Node23</title>
<path fill="none" stroke="midnightblue" d="M298.78,-660.44C315.39,-653.59 335.98,-641.97 346,-624 350.11,-616.62 346.46,-613.43 346,-605 343.55,-560.58 335,-549.99 335,-505.5 335,-505.5 335,-505.5 335,-393.5 335,-362 336.72,-325.36 337.9,-303.87"/>
<polygon fill="midnightblue" stroke="midnightblue" points="341.41,-303.81 338.49,-293.63 334.43,-303.41 341.41,-303.81"/>
</g>
<!-- Node25 -->
<g id="node25" class="node">
<title>Node25</title>
<g id="a_node25"><a xlink:href="../../d7/d4d/txfonts_8h.html" target="_top" xlink:title=" ">
<polygon fill="none" stroke="black" points="138.1,-605.5 138.1,-623.5 191.9,-623.5 191.9,-605.5 138.1,-605.5"/>
<text text-anchor="middle" x="165" y="-611.5" font-family="Helvetica,sans-Serif" font-size="10.00">txfonts.h</text>
</a>
</g>
</g>
<!-- Node3&#45;&gt;Node25 -->
<g id="edge28" class="edge">
<title>Node3&#45;&gt;Node25</title>
<path fill="none" stroke="midnightblue" d="M257.45,-660.45C239.76,-651.85 211.49,-638.1 190.86,-628.08"/>
<polygon fill="midnightblue" stroke="midnightblue" points="192.23,-624.85 181.71,-623.63 189.17,-631.15 192.23,-624.85"/>
</g>
<!-- Node30 -->
<g id="node30" class="node">
<title>Node30</title>
<g id="a_node30"><a xlink:href="../../d7/d7e/txhash_8h.html" target="_top" xlink:title=" ">
<polygon fill="none" stroke="black" points="66.1,-605.5 66.1,-623.5 119.9,-623.5 119.9,-605.5 66.1,-605.5"/>
<text text-anchor="middle" x="93" y="-611.5" font-family="Helvetica,sans-Serif" font-size="10.00">txhash.h</text>
</a>
</g>
</g>
<!-- Node3&#45;&gt;Node30 -->
<g id="edge36" class="edge">
<title>Node3&#45;&gt;Node30</title>
<path fill="none" stroke="midnightblue" d="M246.51,-660.45C215.37,-651.33 164.46,-636.42 129.88,-626.3"/>
<polygon fill="midnightblue" stroke="midnightblue" points="130.74,-622.9 120.16,-623.45 128.77,-629.62 130.74,-622.9"/>
</g>
<!-- Node32 -->
<g id="node32" class="node">
<title>Node32</title>
<g id="a_node32"><a xlink:href="../../de/d7c/tximage_8h.html" target="_top" xlink:title=" ">
<polygon fill="none" stroke="black" points="2.32,-330.5 2.32,-348.5 61.68,-348.5 61.68,-330.5 2.32,-330.5"/>
<text text-anchor="middle" x="32" y="-336.5" font-family="Helvetica,sans-Serif" font-size="10.00">tximage.h</text>
</a>
</g>
</g>
<!-- Node3&#45;&gt;Node32 -->
<g id="edge39" class="edge">
<title>Node3&#45;&gt;Node32</title>
<path fill="none" stroke="midnightblue" d="M239.65,-665.13C183.44,-659.08 74.88,-645.02 43,-624 14.54,-605.24 0,-594.58 0,-560.5 0,-560.5 0,-560.5 0,-448.5 0,-415.38 14.01,-378.8 23.49,-357.85"/>
<polygon fill="midnightblue" stroke="midnightblue" points="26.72,-359.19 27.82,-348.66 20.39,-356.21 26.72,-359.19"/>
</g>
<!-- Node33 -->
<g id="node33" class="node">
<title>Node33</title>
<g id="a_node33"><a xlink:href="../../de/d29/txio_8h.html" target="_top" xlink:title=" ">
<polygon fill="none" stroke="black" points="471.05,-495.5 471.05,-513.5 510.95,-513.5 510.95,-495.5 471.05,-495.5"/>
<text text-anchor="middle" x="491" y="-501.5" font-family="Helvetica,sans-Serif" font-size="10.00">txio.h</text>
</a>
</g>
</g>
<!-- Node3&#45;&gt;Node33 -->
<g id="edge42" class="edge">
<title>Node3&#45;&gt;Node33</title>
<path fill="none" stroke="midnightblue" d="M308.47,-660.85C353.23,-649.06 430.52,-622.03 472,-569 482.19,-555.97 486.93,-537.55 489.12,-523.9"/>
<polygon fill="midnightblue" stroke="midnightblue" points="492.62,-524.15 490.43,-513.79 485.68,-523.25 492.62,-524.15"/>
</g>
<!-- Node35 -->
<g id="node35" class="node">
<title>Node35</title>
<g id="a_node35"><a xlink:href="../../dc/d65/txstack_8h.html" target="_top" xlink:title=" ">
<polygon fill="none" stroke="black" points="210.27,-605.5 210.27,-623.5 265.73,-623.5 265.73,-605.5 210.27,-605.5"/>
<text text-anchor="middle" x="238" y="-611.5" font-family="Helvetica,sans-Serif" font-size="10.00">txstack.h</text>
</a>
</g>
</g>
<!-- Node3&#45;&gt;Node35 -->
<g id="edge45" class="edge">
<title>Node3&#45;&gt;Node35</title>
<path fill="none" stroke="midnightblue" d="M268.38,-660.22C263.27,-652.71 255.6,-641.41 249.24,-632.05"/>
<polygon fill="midnightblue" stroke="midnightblue" points="251.98,-629.86 243.47,-623.55 246.19,-633.79 251.98,-629.86"/>
</g>
<!-- Node38 -->
<g id="node38" class="node">
<title>Node38</title>
<g id="a_node38"><a xlink:href="../../d8/d3d/txstats_8h.html" target="_top" xlink:title=" ">
<polygon fill="none" stroke="black" points="283.38,-605.5 283.38,-623.5 336.62,-623.5 336.62,-605.5 283.38,-605.5"/>
<text text-anchor="middle" x="310" y="-611.5" font-family="Helvetica,sans-Serif" font-size="10.00">txstats.h</text>
</a>
</g>
</g>
<!-- Node3&#45;&gt;Node38 -->
<g id="edge50" class="edge">
<title>Node3&#45;&gt;Node38</title>
<path fill="none" stroke="midnightblue" d="M279.62,-660.22C284.73,-652.71 292.4,-641.41 298.76,-632.05"/>
<polygon fill="midnightblue" stroke="midnightblue" points="301.81,-633.79 304.53,-623.55 296.02,-629.86 301.81,-633.79"/>
</g>
<!-- Node5 -->
<g id="node5" class="node">
<title>Node5</title>
<g id="a_node5"><a xlink:href="../../d9/d18/txscaled_8h.html" target="_top" xlink:title=" ">
<polygon fill="none" stroke="black" points="121.32,-385.5 121.32,-403.5 190.68,-403.5 190.68,-385.5 121.32,-385.5"/>
<text text-anchor="middle" x="156" y="-391.5" font-family="Helvetica,sans-Serif" font-size="10.00">../txscaled.h</text>
</a>
</g>
</g>
<!-- Node4&#45;&gt;Node5 -->
<g id="edge4" class="edge">
<title>Node4&#45;&gt;Node5</title>
<path fill="none" stroke="midnightblue" d="M118.88,-440.22C125.24,-432.55 134.88,-420.94 142.74,-411.47"/>
<polygon fill="midnightblue" stroke="midnightblue" points="145.62,-413.48 149.32,-403.55 140.24,-409.01 145.62,-413.48"/>
</g>
<!-- Node6 -->
<g id="node6" class="node">
<title>Node6</title>
<g id="a_node6"><a xlink:href="../../dc/d91/txtokenlist_8h.html" target="_top" xlink:title=" ">
<polygon fill="none" stroke="black" points="121.6,-330.5 121.6,-348.5 190.4,-348.5 190.4,-330.5 121.6,-330.5"/>
<text text-anchor="middle" x="156" y="-336.5" font-family="Helvetica,sans-Serif" font-size="10.00">txtokenlist.h</text>
</a>
</g>
</g>
<!-- Node5&#45;&gt;Node6 -->
<g id="edge5" class="edge">
<title>Node5&#45;&gt;Node6</title>
<path fill="none" stroke="midnightblue" d="M156,-385.22C156,-378.18 156,-367.81 156,-358.83"/>
<polygon fill="midnightblue" stroke="midnightblue" points="159.5,-358.55 156,-348.55 152.5,-358.55 159.5,-358.55"/>
</g>
<!-- Node7 -->
<g id="node7" class="node">
<title>Node7</title>
<g id="a_node7"><a xlink:href="../../d5/daf/_istring_8h.html" target="_top" xlink:title=" ">
<polygon fill="none" stroke="black" points="213.77,-275.5 213.77,-293.5 294.23,-293.5 294.23,-275.5 213.77,-275.5"/>
<text text-anchor="middle" x="254" y="-281.5" font-family="Helvetica,sans-Serif" font-size="10.00">tralics/Istring.h</text>
</a>
</g>
</g>
<!-- Node6&#45;&gt;Node7 -->
<g id="edge6" class="edge">
<title>Node6&#45;&gt;Node7</title>
<path fill="none" stroke="midnightblue" d="M170.88,-330.45C186.57,-321.97 211.51,-308.48 229.99,-298.49"/>
<polygon fill="midnightblue" stroke="midnightblue" points="231.84,-301.46 238.98,-293.63 228.51,-295.3 231.84,-301.46"/>
</g>
<!-- Node17 -->
<g id="node17" class="node">
<title>Node17</title>
<g id="a_node17"><a xlink:href="../../dd/dcd/_token_8h.html" target="_top" xlink:title=" ">
<polygon fill="none" stroke="black" points="116.04,-275.5 116.04,-293.5 195.96,-293.5 195.96,-275.5 116.04,-275.5"/>
<text text-anchor="middle" x="156" y="-281.5" font-family="Helvetica,sans-Serif" font-size="10.00">tralics/Token.h</text>
</a>
</g>
</g>
<!-- Node6&#45;&gt;Node17 -->
<g id="edge17" class="edge">
<title>Node6&#45;&gt;Node17</title>
<path fill="none" stroke="midnightblue" d="M156,-330.22C156,-323.18 156,-312.81 156,-303.83"/>
<polygon fill="midnightblue" stroke="midnightblue" points="159.5,-303.55 156,-293.55 152.5,-303.55 159.5,-303.55"/>
</g>
<!-- Node22 -->
<g id="node22" class="node">
<title>Node22</title>
<g id="a_node22"><a xlink:title=" ">
<polygon fill="none" stroke="#bfbfbf" points="59.61,-275.5 59.61,-293.5 98.39,-293.5 98.39,-275.5 59.61,-275.5"/>
<text text-anchor="middle" x="79" y="-281.5" font-family="Helvetica,sans-Serif" font-size="10.00">utility</text>
</a>
</g>
</g>
<!-- Node6&#45;&gt;Node22 -->
<g id="edge24" class="edge">
<title>Node6&#45;&gt;Node22</title>
<path fill="none" stroke="midnightblue" d="M144.31,-330.45C132.32,-322.2 113.46,-309.22 99.08,-299.32"/>
<polygon fill="midnightblue" stroke="midnightblue" points="101.03,-296.41 90.8,-293.63 97.06,-302.18 101.03,-296.41"/>
</g>
<!-- Node8 -->
<g id="node8" class="node">
<title>Node8</title>
<g id="a_node8"><a xlink:href="../../d0/d0b/enums_8h.html" target="_top" xlink:title=" ">
<polygon fill="none" stroke="black" points="286.82,-165.5 286.82,-183.5 341.18,-183.5 341.18,-165.5 286.82,-165.5"/>
<text text-anchor="middle" x="314" y="-171.5" font-family="Helvetica,sans-Serif" font-size="10.00">enums.h</text>
</a>
</g>
</g>
<!-- Node7&#45;&gt;Node8 -->
<g id="edge7" class="edge">
<title>Node7&#45;&gt;Node8</title>
<path fill="none" stroke="midnightblue" d="M258.51,-275.38C268.24,-257.87 291.38,-216.22 304.5,-192.6"/>
<polygon fill="midnightblue" stroke="midnightblue" points="307.64,-194.15 309.44,-183.71 301.52,-190.75 307.64,-194.15"/>
</g>
<!-- Node14 -->
<g id="node14" class="node">
<title>Node14</title>
<g id="a_node14"><a xlink:href="../../d8/d3c/util_8h.html" target="_top" xlink:title=" ">
<polygon fill="none" stroke="black" points="111.44,-220.5 111.44,-238.5 148.56,-238.5 148.56,-220.5 111.44,-220.5"/>
<text text-anchor="middle" x="130" y="-226.5" font-family="Helvetica,sans-Serif" font-size="10.00">util.h</text>
</a>
</g>
</g>
<!-- Node7&#45;&gt;Node14 -->
<g id="edge13" class="edge">
<title>Node7&#45;&gt;Node14</title>
<path fill="none" stroke="midnightblue" d="M235.17,-275.45C214.66,-266.68 181.63,-252.57 158.06,-242.49"/>
<polygon fill="midnightblue" stroke="midnightblue" points="159.17,-239.16 148.6,-238.45 156.42,-245.6 159.17,-239.16"/>
</g>
<!-- Node15 -->
<g id="node15" class="node">
<title>Node15</title>
<g id="a_node15"><a xlink:title=" ">
<polygon fill="none" stroke="#bfbfbf" points="133.77,-165.5 133.77,-183.5 174.23,-183.5 174.23,-165.5 133.77,-165.5"/>
<text text-anchor="middle" x="154" y="-171.5" font-family="Helvetica,sans-Serif" font-size="10.00">string</text>
</a>
</g>
</g>
<!-- Node7&#45;&gt;Node15 -->
<g id="edge16" class="edge">
<title>Node7&#45;&gt;Node15</title>
<path fill="none" stroke="midnightblue" d="M241.02,-275.38C228.56,-267.18 209.67,-253.67 196,-239 182.78,-224.82 170.93,-206.06 163.21,-192.61"/>
<polygon fill="midnightblue" stroke="midnightblue" points="166.08,-190.56 158.16,-183.52 159.96,-193.96 166.08,-190.56"/>
</g>
<!-- Node16 -->
<g id="node16" class="node">
<title>Node16</title>
<g id="a_node16"><a xlink:title=" ">
<polygon fill="none" stroke="#bfbfbf" points="360.61,-220.5 360.61,-238.5 399.39,-238.5 399.39,-220.5 360.61,-220.5"/>
<text text-anchor="middle" x="380" y="-226.5" font-family="Helvetica,sans-Serif" font-size="10.00">array</text>
</a>
</g>
</g>
<!-- Node7&#45;&gt;Node16 -->
<g id="edge15" class="edge">
<title>Node7&#45;&gt;Node16</title>
<path fill="none" stroke="midnightblue" d="M273.14,-275.45C293.95,-266.7 327.45,-252.61 351.39,-242.53"/>
<polygon fill="midnightblue" stroke="midnightblue" points="352.82,-245.73 360.68,-238.63 350.11,-239.28 352.82,-245.73"/>
</g>
<!-- Node9 -->
<g id="node9" class="node">
<title>Node9</title>
<g id="a_node9"><a xlink:href="../../d8/db5/consts_8h.html" target="_top" xlink:title=" ">
<polygon fill="none" stroke="black" points="287.38,-110.5 287.38,-128.5 340.62,-128.5 340.62,-110.5 287.38,-110.5"/>
<text text-anchor="middle" x="314" y="-116.5" font-family="Helvetica,sans-Serif" font-size="10.00">consts.h</text>
</a>
</g>
</g>
<!-- Node8&#45;&gt;Node9 -->
<g id="edge8" class="edge">
<title>Node8&#45;&gt;Node9</title>
<path fill="none" stroke="midnightblue" d="M314,-165.22C314,-158.18 314,-147.81 314,-138.83"/>
<polygon fill="midnightblue" stroke="midnightblue" points="317.5,-138.55 314,-128.55 310.5,-138.55 317.5,-138.55"/>
</g>
<!-- Node10 -->
<g id="node10" class="node">
<title>Node10</title>
<g id="a_node10"><a xlink:href="../../d9/d49/types_8h.html" target="_top" xlink:title=" ">
<polygon fill="none" stroke="black" points="316.88,-55.5 316.88,-73.5 365.12,-73.5 365.12,-55.5 316.88,-55.5"/>
<text text-anchor="middle" x="341" y="-61.5" font-family="Helvetica,sans-Serif" font-size="10.00">types.h</text>
</a>
</g>
</g>
<!-- Node9&#45;&gt;Node10 -->
<g id="edge9" class="edge">
<title>Node9&#45;&gt;Node10</title>
<path fill="none" stroke="midnightblue" d="M318.22,-110.22C321.97,-102.86 327.56,-91.88 332.27,-82.64"/>
<polygon fill="midnightblue" stroke="midnightblue" points="335.48,-84.05 336.9,-73.55 329.24,-80.87 335.48,-84.05"/>
</g>
<!-- Node11 -->
<g id="node11" class="node">
<title>Node11</title>
<g id="a_node11"><a xlink:title=" ">
<polygon fill="none" stroke="#bfbfbf" points="250.88,-0.5 250.88,-18.5 299.12,-18.5 299.12,-0.5 250.88,-0.5"/>
<text text-anchor="middle" x="275" y="-6.5" font-family="Helvetica,sans-Serif" font-size="10.00">cassert</text>
</a>
</g>
</g>
<!-- Node10&#45;&gt;Node11 -->
<g id="edge10" class="edge">
<title>Node10&#45;&gt;Node11</title>
<path fill="none" stroke="midnightblue" d="M330.98,-55.45C320.99,-47.43 305.44,-34.95 293.26,-25.17"/>
<polygon fill="midnightblue" stroke="midnightblue" points="295.11,-22.16 285.12,-18.63 290.72,-27.62 295.11,-22.16"/>
</g>
<!-- Node12 -->
<g id="node12" class="node">
<title>Node12</title>
<g id="a_node12"><a xlink:title=" ">
<polygon fill="none" stroke="#bfbfbf" points="316.88,-0.5 316.88,-18.5 365.12,-18.5 365.12,-0.5 316.88,-0.5"/>
<text text-anchor="middle" x="341" y="-6.5" font-family="Helvetica,sans-Serif" font-size="10.00">cstddef</text>
</a>
</g>
</g>
<!-- Node10&#45;&gt;Node12 -->
<g id="edge11" class="edge">
<title>Node10&#45;&gt;Node12</title>
<path fill="none" stroke="midnightblue" d="M341,-55.22C341,-48.18 341,-37.81 341,-28.83"/>
<polygon fill="midnightblue" stroke="midnightblue" points="344.5,-28.55 341,-18.55 337.5,-28.55 344.5,-28.55"/>
</g>
<!-- Node13 -->
<g id="node13" class="node">
<title>Node13</title>
<g id="a_node13"><a xlink:title=" ">
<polygon fill="none" stroke="#bfbfbf" points="382.93,-0.5 382.93,-18.5 445.07,-18.5 445.07,-0.5 382.93,-0.5"/>
<text text-anchor="middle" x="414" y="-6.5" font-family="Helvetica,sans-Serif" font-size="10.00">type_traits</text>
</a>
</g>
</g>
<!-- Node10&#45;&gt;Node13 -->
<g id="edge12" class="edge">
<title>Node10&#45;&gt;Node13</title>
<path fill="none" stroke="midnightblue" d="M352.09,-55.45C363.34,-47.28 381,-34.46 394.58,-24.6"/>
<polygon fill="midnightblue" stroke="midnightblue" points="396.77,-27.33 402.81,-18.63 392.66,-21.67 396.77,-27.33"/>
</g>
<!-- Node14&#45;&gt;Node15 -->
<g id="edge14" class="edge">
<title>Node14&#45;&gt;Node15</title>
<path fill="none" stroke="midnightblue" d="M133.75,-220.22C137.05,-212.94 141.95,-202.11 146.11,-192.93"/>
<polygon fill="midnightblue" stroke="midnightblue" points="149.42,-194.1 150.35,-183.55 143.04,-191.22 149.42,-194.1"/>
</g>
<!-- Node18 -->
<g id="node18" class="node">
<title>Node18</title>
<g id="a_node18"><a xlink:href="../../d2/d68/_cmd_chr_8h.html" target="_top" xlink:title=" ">
<polygon fill="none" stroke="black" points="205.49,-220.5 205.49,-238.5 266.51,-238.5 266.51,-220.5 205.49,-220.5"/>
<text text-anchor="middle" x="236" y="-226.5" font-family="Helvetica,sans-Serif" font-size="10.00">CmdChr.h</text>
</a>
</g>
</g>
<!-- Node17&#45;&gt;Node18 -->
<g id="edge18" class="edge">
<title>Node17&#45;&gt;Node18</title>
<path fill="none" stroke="midnightblue" d="M168.15,-275.45C180.6,-267.2 200.2,-254.22 215.14,-244.32"/>
<polygon fill="midnightblue" stroke="midnightblue" points="217.33,-247.07 223.74,-238.63 213.47,-241.23 217.33,-247.07"/>
</g>
<!-- Node21 -->
<g id="node21" class="node">
<title>Node21</title>
<g id="a_node21"><a xlink:title=" ">
<polygon fill="none" stroke="#bfbfbf" points="64.5,-220.5 64.5,-238.5 93.5,-238.5 93.5,-220.5 64.5,-220.5"/>
<text text-anchor="middle" x="78.61" y="-226.5" font-family="Helvetica,sans-Serif" font-size="10.00">list</text>
</a>
</g>
</g>
<!-- Node17&#45;&gt;Node21 -->
<g id="edge23" class="edge">
<title>Node17&#45;&gt;Node21</title>
<path fill="none" stroke="midnightblue" d="M144.31,-275.45C132.32,-267.2 113.46,-254.22 99.08,-244.32"/>
<polygon fill="midnightblue" stroke="midnightblue" points="101.03,-241.41 90.8,-238.63 97.06,-247.18 101.03,-241.41"/>
</g>
<!-- Node18&#45;&gt;Node8 -->
<g id="edge22" class="edge">
<title>Node18&#45;&gt;Node8</title>
<path fill="none" stroke="midnightblue" d="M247.85,-220.45C259.99,-212.2 279.1,-199.22 293.66,-189.32"/>
<polygon fill="midnightblue" stroke="midnightblue" points="295.74,-192.14 302.04,-183.63 291.8,-186.35 295.74,-192.14"/>
</g>
<!-- Node19 -->
<g id="node19" class="node">
<title>Node19</title>
<g id="a_node19"><a xlink:href="../../d8/d47/codepoint_8h.html" target="_top" xlink:title=" ">
<polygon fill="none" stroke="black" points="374.15,-165.5 374.15,-183.5 441.85,-183.5 441.85,-165.5 374.15,-165.5"/>
<text text-anchor="middle" x="408" y="-171.5" font-family="Helvetica,sans-Serif" font-size="10.00">codepoint.h</text>
</a>
</g>
</g>
<!-- Node18&#45;&gt;Node19 -->
<g id="edge19" class="edge">
<title>Node18&#45;&gt;Node19</title>
<path fill="none" stroke="midnightblue" d="M262.12,-220.45C291.51,-211.4 339.4,-196.64 372.24,-186.52"/>
<polygon fill="midnightblue" stroke="midnightblue" points="373.39,-189.83 381.91,-183.54 371.33,-183.14 373.39,-189.83"/>
</g>
<!-- Node19&#45;&gt;Node10 -->
<g id="edge20" class="edge">
<title>Node19&#45;&gt;Node10</title>
<path fill="none" stroke="midnightblue" d="M402.96,-165.38C392.05,-147.79 366.03,-105.85 351.42,-82.29"/>
<polygon fill="midnightblue" stroke="midnightblue" points="354.34,-80.36 346.09,-73.71 348.39,-84.05 354.34,-80.36"/>
</g>
<!-- Node20 -->
<g id="node20" class="node">
<title>Node20</title>
<g id="a_node20"><a xlink:title=" ">
<polygon fill="none" stroke="#bfbfbf" points="397.49,-110.5 397.49,-128.5 448.51,-128.5 448.51,-110.5 397.49,-110.5"/>
<text text-anchor="middle" x="423" y="-116.5" font-family="Helvetica,sans-Serif" font-size="10.00">optional</text>
</a>
</g>
</g>
<!-- Node19&#45;&gt;Node20 -->
<g id="edge21" class="edge">
<title>Node19&#45;&gt;Node20</title>
<path fill="none" stroke="midnightblue" d="M410.34,-165.22C412.38,-158.02 415.4,-147.35 417.98,-138.23"/>
<polygon fill="midnightblue" stroke="midnightblue" points="421.37,-139.12 420.72,-128.55 414.63,-137.22 421.37,-139.12"/>
</g>
<!-- Node23&#45;&gt;Node8 -->
<g id="edge26" class="edge">
<title>Node23&#45;&gt;Node8</title>
<path fill="none" stroke="midnightblue" d="M337.12,-275.38C333.12,-258.1 323.68,-217.33 318.18,-193.56"/>
<polygon fill="midnightblue" stroke="midnightblue" points="321.57,-192.66 315.9,-183.71 314.75,-194.24 321.57,-192.66"/>
</g>
<!-- Node24 -->
<g id="node24" class="node">
<title>Node24</title>
<g id="a_node24"><a xlink:title=" ">
<polygon fill="none" stroke="#bfbfbf" points="417.38,-220.5 417.38,-238.5 460.62,-238.5 460.62,-220.5 417.38,-220.5"/>
<text text-anchor="middle" x="439" y="-226.5" font-family="Helvetica,sans-Serif" font-size="10.00">vector</text>
</a>
</g>
</g>
<!-- Node23&#45;&gt;Node24 -->
<g id="edge27" class="edge">
<title>Node23&#45;&gt;Node24</title>
<path fill="none" stroke="midnightblue" d="M354.19,-275.45C370.27,-266.93 395.88,-253.35 414.76,-243.35"/>
<polygon fill="midnightblue" stroke="midnightblue" points="416.47,-246.4 423.67,-238.63 413.19,-240.22 416.47,-246.4"/>
</g>
<!-- Node26 -->
<g id="node26" class="node">
<title>Node26</title>
<g id="a_node26"><a xlink:href="../../dc/def/txstring_8h.html" target="_top" xlink:title=" ">
<polygon fill="none" stroke="black" points="205.71,-495.5 205.71,-513.5 262.29,-513.5 262.29,-495.5 205.71,-495.5"/>
<text text-anchor="middle" x="234" y="-501.5" font-family="Helvetica,sans-Serif" font-size="10.00">txstring.h</text>
</a>
</g>
</g>
<!-- Node25&#45;&gt;Node26 -->
<g id="edge29" class="edge">
<title>Node25&#45;&gt;Node26</title>
<path fill="none" stroke="midnightblue" d="M162.87,-605.47C159.98,-592.8 156.21,-567.77 166,-550 173.91,-535.64 188.65,-525.15 202.38,-517.97"/>
<polygon fill="midnightblue" stroke="midnightblue" points="204.14,-521.01 211.64,-513.53 201.11,-514.7 204.14,-521.01"/>
</g>
<!-- Node27 -->
<g id="node27" class="node">
<title>Node27</title>
<g id="a_node27"><a xlink:href="../../d7/d1b/_buffer_8h.html" target="_top" xlink:title=" ">
<polygon fill="none" stroke="black" points="399.41,-440.5 399.41,-458.5 478.59,-458.5 478.59,-440.5 399.41,-440.5"/>
<text text-anchor="middle" x="439" y="-446.5" font-family="Helvetica,sans-Serif" font-size="10.00">tralics/Buffer.h</text>
</a>
</g>
</g>
<!-- Node26&#45;&gt;Node27 -->
<g id="edge30" class="edge">
<title>Node26&#45;&gt;Node27</title>
<path fill="none" stroke="midnightblue" d="M262.5,-496.13C297.7,-487.03 357.81,-471.49 397.97,-461.11"/>
<polygon fill="midnightblue" stroke="midnightblue" points="398.91,-464.48 407.72,-458.59 397.16,-457.7 398.91,-464.48"/>
</g>
<!-- Node27&#45;&gt;Node5 -->
<g id="edge33" class="edge">
<title>Node27&#45;&gt;Node5</title>
<path fill="none" stroke="midnightblue" d="M399.35,-441.07C347.19,-431.31 255.74,-414.18 201.03,-403.93"/>
<polygon fill="midnightblue" stroke="midnightblue" points="201.4,-400.44 190.93,-402.04 200.12,-407.32 201.4,-400.44"/>
</g>
<!-- Node27&#45;&gt;Node24 -->
<g id="edge35" class="edge">
<title>Node27&#45;&gt;Node24</title>
<path fill="none" stroke="midnightblue" d="M439,-440.48C439,-409.11 439,-294.16 439,-248.94"/>
<polygon fill="midnightblue" stroke="midnightblue" points="442.5,-248.82 439,-238.82 435.5,-248.82 442.5,-248.82"/>
</g>
<!-- Node28 -->
<g id="node28" class="node">
<title>Node28</title>
<g id="a_node28"><a xlink:href="../../d1/d9e/txid_8h.html" target="_top" xlink:title=" ">
<polygon fill="none" stroke="black" points="362.88,-330.5 362.88,-348.5 411.12,-348.5 411.12,-330.5 362.88,-330.5"/>
<text text-anchor="middle" x="387" y="-336.5" font-family="Helvetica,sans-Serif" font-size="10.00">../txid.h</text>
</a>
</g>
</g>
<!-- Node27&#45;&gt;Node28 -->
<g id="edge31" class="edge">
<title>Node27&#45;&gt;Node28</title>
<path fill="none" stroke="midnightblue" d="M435.09,-440.38C426.7,-422.95 406.78,-381.59 395.39,-357.92"/>
<polygon fill="midnightblue" stroke="midnightblue" points="398.45,-356.2 390.95,-348.71 392.14,-359.24 398.45,-356.2"/>
</g>
<!-- Node29 -->
<g id="node29" class="node">
<title>Node29</title>
<g id="a_node29"><a xlink:title=" ">
<polygon fill="none" stroke="#bfbfbf" points="467.27,-385.5 467.27,-403.5 512.73,-403.5 512.73,-385.5 467.27,-385.5"/>
<text text-anchor="middle" x="490" y="-391.5" font-family="Helvetica,sans-Serif" font-size="10.00">cstring</text>
</a>
</g>
</g>
<!-- Node27&#45;&gt;Node29 -->
<g id="edge34" class="edge">
<title>Node27&#45;&gt;Node29</title>
<path fill="none" stroke="midnightblue" d="M446.97,-440.22C454.5,-432.39 465.98,-420.46 475.19,-410.89"/>
<polygon fill="midnightblue" stroke="midnightblue" points="477.84,-413.18 482.25,-403.55 472.8,-408.33 477.84,-413.18"/>
</g>
<!-- Node28&#45;&gt;Node7 -->
<g id="edge32" class="edge">
<title>Node28&#45;&gt;Node7</title>
<path fill="none" stroke="midnightblue" d="M366.8,-330.45C344.73,-321.66 309.16,-307.48 283.86,-297.4"/>
<polygon fill="midnightblue" stroke="midnightblue" points="284.98,-294.08 274.39,-293.63 282.38,-300.58 284.98,-294.08"/>
</g>
<!-- Node31 -->
<g id="node31" class="node">
<title>Node31</title>
<g id="a_node31"><a xlink:href="../../d3/d01/txeqtb_8h.html" target="_top" xlink:title=" ">
<polygon fill="none" stroke="black" points="67.21,-550.5 67.21,-568.5 118.79,-568.5 118.79,-550.5 67.21,-550.5"/>
<text text-anchor="middle" x="93" y="-556.5" font-family="Helvetica,sans-Serif" font-size="10.00">txeqtb.h</text>
</a>
</g>
</g>
<!-- Node30&#45;&gt;Node31 -->
<g id="edge37" class="edge">
<title>Node30&#45;&gt;Node31</title>
<path fill="none" stroke="midnightblue" d="M93,-605.22C93,-598.18 93,-587.81 93,-578.83"/>
<polygon fill="midnightblue" stroke="midnightblue" points="96.5,-578.55 93,-568.55 89.5,-578.55 96.5,-578.55"/>
</g>
<!-- Node31&#45;&gt;Node26 -->
<g id="edge38" class="edge">
<title>Node31&#45;&gt;Node26</title>
<path fill="none" stroke="midnightblue" d="M114.41,-550.45C137.91,-541.62 175.86,-527.35 202.7,-517.27"/>
<polygon fill="midnightblue" stroke="midnightblue" points="204.25,-520.42 212.38,-513.63 201.79,-513.87 204.25,-520.42"/>
</g>
<!-- Node32&#45;&gt;Node15 -->
<g id="edge40" class="edge">
<title>Node32&#45;&gt;Node15</title>
<path fill="none" stroke="midnightblue" d="M31.2,-330.27C29.62,-309.4 28.32,-253.67 55,-220 71.87,-198.71 101.14,-187.28 123.49,-181.37"/>
<polygon fill="midnightblue" stroke="midnightblue" points="124.61,-184.7 133.51,-178.95 122.97,-177.89 124.61,-184.7"/>
</g>
<!-- Node32&#45;&gt;Node22 -->
<g id="edge41" class="edge">
<title>Node32&#45;&gt;Node22</title>
<path fill="none" stroke="midnightblue" d="M39.34,-330.22C46.21,-322.47 56.65,-310.7 65.1,-301.18"/>
<polygon fill="midnightblue" stroke="midnightblue" points="67.85,-303.35 71.86,-293.55 62.61,-298.71 67.85,-303.35"/>
</g>
<!-- Node33&#45;&gt;Node27 -->
<g id="edge43" class="edge">
<title>Node33&#45;&gt;Node27</title>
<path fill="none" stroke="midnightblue" d="M482.88,-495.22C475.2,-487.39 463.49,-475.46 454.1,-465.89"/>
<polygon fill="midnightblue" stroke="midnightblue" points="456.4,-463.24 446.9,-458.55 451.4,-468.14 456.4,-463.24"/>
</g>
<!-- Node34 -->
<g id="node34" class="node">
<title>Node34</title>
<g id="a_node34"><a xlink:title=" ">
<polygon fill="none" stroke="#bfbfbf" points="586.33,-440.5 586.33,-458.5 635.67,-458.5 635.67,-440.5 586.33,-440.5"/>
<text text-anchor="middle" x="611" y="-446.5" font-family="Helvetica,sans-Serif" font-size="10.00">fstream</text>
</a>
</g>
</g>
<!-- Node33&#45;&gt;Node34 -->
<g id="edge44" class="edge">
<title>Node33&#45;&gt;Node34</title>
<path fill="none" stroke="midnightblue" d="M509.23,-495.45C528.96,-486.73 560.67,-472.73 583.45,-462.67"/>
<polygon fill="midnightblue" stroke="midnightblue" points="584.87,-465.87 592.6,-458.63 582.04,-459.46 584.87,-465.87"/>
</g>
<!-- Node36 -->
<g id="node36" class="node">
<title>Node36</title>
<g id="a_node36"><a xlink:href="../../d9/d1c/_xml_8h.html" target="_top" xlink:title=" ">
<polygon fill="none" stroke="black" points="236.77,-550.5 236.77,-568.5 307.23,-568.5 307.23,-550.5 236.77,-550.5"/>
<text text-anchor="middle" x="272" y="-556.5" font-family="Helvetica,sans-Serif" font-size="10.00">tralics/Xml.h</text>
</a>
</g>
</g>
<!-- Node35&#45;&gt;Node36 -->
<g id="edge46" class="edge">
<title>Node35&#45;&gt;Node36</title>
<path fill="none" stroke="midnightblue" d="M243.31,-605.22C248.13,-597.71 255.38,-586.41 261.38,-577.05"/>
<polygon fill="midnightblue" stroke="midnightblue" points="264.38,-578.86 266.84,-568.55 258.49,-575.08 264.38,-578.86"/>
</g>
<!-- Node37 -->
<g id="node37" class="node">
<title>Node37</title>
<g id="a_node37"><a xlink:href="../../d4/da4/txatt_8h.html" target="_top" xlink:title=" ">
<polygon fill="none" stroke="black" points="175.38,-550.5 175.38,-568.5 218.62,-568.5 218.62,-550.5 175.38,-550.5"/>
<text text-anchor="middle" x="197" y="-556.5" font-family="Helvetica,sans-Serif" font-size="10.00">txatt.h</text>
</a>
</g>
</g>
<!-- Node35&#45;&gt;Node37 -->
<g id="edge48" class="edge">
<title>Node35&#45;&gt;Node37</title>
<path fill="none" stroke="midnightblue" d="M231.59,-605.22C225.66,-597.55 216.68,-585.94 209.35,-576.47"/>
<polygon fill="midnightblue" stroke="midnightblue" points="212.11,-574.32 203.23,-568.55 206.58,-578.6 212.11,-574.32"/>
</g>
<!-- Node36&#45;&gt;Node26 -->
<g id="edge47" class="edge">
<title>Node36&#45;&gt;Node26</title>
<path fill="none" stroke="midnightblue" d="M266.06,-550.22C260.62,-542.63 252.41,-531.18 245.66,-521.76"/>
<polygon fill="midnightblue" stroke="midnightblue" points="248.44,-519.64 239.77,-513.55 242.75,-523.72 248.44,-519.64"/>
</g>
<!-- Node37&#45;&gt;Node26 -->
<g id="edge49" class="edge">
<title>Node37&#45;&gt;Node26</title>
<path fill="none" stroke="midnightblue" d="M202.78,-550.22C208.08,-542.63 216.08,-531.18 222.65,-521.76"/>
<polygon fill="midnightblue" stroke="midnightblue" points="225.53,-523.75 228.38,-513.55 219.79,-519.75 225.53,-523.75"/>
</g>
<!-- Node39&#45;&gt;Node8 -->
<g id="edge53" class="edge">
<title>Node39&#45;&gt;Node8</title>
<path fill="none" stroke="midnightblue" d="M526.29,-275.1C524.68,-261.43 519.48,-234.46 503,-220 491.62,-210.01 403.16,-192.13 351.39,-182.35"/>
<polygon fill="midnightblue" stroke="midnightblue" points="351.72,-178.85 341.25,-180.45 350.43,-185.73 351.72,-178.85"/>
</g>
<!-- Node39&#45;&gt;Node15 -->
<g id="edge56" class="edge">
<title>Node39&#45;&gt;Node15</title>
<path fill="none" stroke="midnightblue" d="M522.27,-275.21C513.8,-261.2 494.58,-233.1 470,-220 420.92,-193.85 254.48,-181.35 184.94,-177.17"/>
<polygon fill="midnightblue" stroke="midnightblue" points="184.83,-173.66 174.64,-176.57 184.42,-180.64 184.83,-173.66"/>
</g>
<!-- Node39&#45;&gt;Node16 -->
<g id="edge54" class="edge">
<title>Node39&#45;&gt;Node16</title>
<path fill="none" stroke="midnightblue" d="M504.67,-275.45C479.21,-266.27 437.47,-251.22 409.38,-241.09"/>
<polygon fill="midnightblue" stroke="midnightblue" points="410.3,-237.7 399.71,-237.6 407.93,-244.29 410.3,-237.7"/>
</g>
<!-- Node39&#45;&gt;Node19 -->
<g id="edge52" class="edge">
<title>Node39&#45;&gt;Node19</title>
<path fill="none" stroke="midnightblue" d="M532.58,-275.26C540.59,-262.29 553.14,-236.86 541,-220 520.87,-192.04 482.36,-181.39 451.94,-177.46"/>
<polygon fill="midnightblue" stroke="midnightblue" points="452.29,-173.98 441.97,-176.37 451.53,-180.94 452.29,-173.98"/>
</g>
<!-- Node39&#45;&gt;Node24 -->
<g id="edge57" class="edge">
<title>Node39&#45;&gt;Node24</title>
<path fill="none" stroke="midnightblue" d="M513.63,-275.45C499.81,-267.12 477.97,-253.97 461.48,-244.04"/>
<polygon fill="midnightblue" stroke="midnightblue" points="462.86,-240.79 452.49,-238.63 459.25,-246.78 462.86,-240.79"/>
</g>
<!-- Node40 -->
<g id="node40" class="node">
<title>Node40</title>
<g id="a_node40"><a xlink:title=" ">
<polygon fill="none" stroke="#bfbfbf" points="592.77,-220.5 592.77,-238.5 653.23,-238.5 653.23,-220.5 592.77,-220.5"/>
<text text-anchor="middle" x="623" y="-226.5" font-family="Helvetica,sans-Serif" font-size="10.00">filesystem</text>
</a>
</g>
</g>
<!-- Node39&#45;&gt;Node40 -->
<g id="edge55" class="edge">
<title>Node39&#45;&gt;Node40</title>
<path fill="none" stroke="midnightblue" d="M541.58,-275.45C556.95,-266.97 581.38,-253.48 599.48,-243.49"/>
<polygon fill="midnightblue" stroke="midnightblue" points="601.22,-246.52 608.28,-238.63 597.84,-240.39 601.22,-246.52"/>
</g>
<!-- Node41&#45;&gt;Node36 -->
<g id="edge59" class="edge">
<title>Node41&#45;&gt;Node36</title>
<path fill="none" stroke="midnightblue" d="M535.58,-660.38C485.53,-641.42 360.76,-594.14 302.67,-572.12"/>
<polygon fill="midnightblue" stroke="midnightblue" points="303.87,-568.84 293.28,-568.56 301.39,-575.38 303.87,-568.84"/>
</g>
<!-- Node42 -->
<g id="node42" class="node">
<title>Node42</title>
<g id="a_node42"><a xlink:href="../../d7/d79/txinline_8h.html" target="_top" xlink:title=" ">
<polygon fill="none" stroke="black" points="557.27,-605.5 557.27,-623.5 612.73,-623.5 612.73,-605.5 557.27,-605.5"/>
<text text-anchor="middle" x="585" y="-611.5" font-family="Helvetica,sans-Serif" font-size="10.00">txinline.h</text>
</a>
</g>
</g>
<!-- Node41&#45;&gt;Node42 -->
<g id="edge60" class="edge">
<title>Node41&#45;&gt;Node42</title>
<path fill="none" stroke="midnightblue" d="M561.38,-660.22C565.26,-652.86 571.06,-641.88 575.95,-632.64"/>
<polygon fill="midnightblue" stroke="midnightblue" points="579.17,-634.03 580.75,-623.55 572.98,-630.76 579.17,-634.03"/>
</g>
<!-- Node43 -->
<g id="node43" class="node">
<title>Node43</title>
<g id="a_node43"><a xlink:href="../../d4/de9/_main_class_8h.html" target="_top" xlink:title=" ">
<polygon fill="none" stroke="black" points="363.04,-550.5 363.04,-568.5 462.96,-568.5 462.96,-550.5 363.04,-550.5"/>
<text text-anchor="middle" x="413" y="-556.5" font-family="Helvetica,sans-Serif" font-size="10.00">tralics/MainClass.h</text>
</a>
</g>
</g>
<!-- Node42&#45;&gt;Node43 -->
<g id="edge61" class="edge">
<title>Node42&#45;&gt;Node43</title>
<path fill="none" stroke="midnightblue" d="M558.88,-605.45C529.49,-596.4 481.6,-581.64 448.76,-571.52"/>
<polygon fill="midnightblue" stroke="midnightblue" points="449.67,-568.14 439.09,-568.54 447.61,-574.83 449.67,-568.14"/>
</g>
<!-- Node44 -->
<g id="node44" class="node">
<title>Node44</title>
<g id="a_node44"><a xlink:href="../../d2/d06/txlogger_8h.html" target="_top" xlink:title=" ">
<polygon fill="none" stroke="black" points="597.32,-550.5 597.32,-568.5 656.68,-568.5 656.68,-550.5 597.32,-550.5"/>
<text text-anchor="middle" x="627" y="-556.5" font-family="Helvetica,sans-Serif" font-size="10.00">txlogger.h</text>
</a>
</g>
</g>
<!-- Node42&#45;&gt;Node44 -->
<g id="edge64" class="edge">
<title>Node42&#45;&gt;Node44</title>
<path fill="none" stroke="midnightblue" d="M591.56,-605.22C597.64,-597.55 606.84,-585.94 614.35,-576.47"/>
<polygon fill="midnightblue" stroke="midnightblue" points="617.15,-578.56 620.62,-568.55 611.67,-574.21 617.15,-578.56"/>
</g>
<!-- Node46 -->
<g id="node46" class="node">
<title>Node46</title>
<g id="a_node46"><a xlink:href="../../d5/d08/txparam_8h.html" target="_top" xlink:title=" ">
<polygon fill="none" stroke="black" points="518.77,-550.5 518.77,-568.5 579.23,-568.5 579.23,-550.5 518.77,-550.5"/>
<text text-anchor="middle" x="549" y="-556.5" font-family="Helvetica,sans-Serif" font-size="10.00">txparam.h</text>
</a>
</g>
</g>
<!-- Node42&#45;&gt;Node46 -->
<g id="edge67" class="edge">
<title>Node42&#45;&gt;Node46</title>
<path fill="none" stroke="midnightblue" d="M579.38,-605.22C574.27,-597.71 566.6,-586.41 560.24,-577.05"/>
<polygon fill="midnightblue" stroke="midnightblue" points="562.98,-574.86 554.47,-568.55 557.19,-578.79 562.98,-574.86"/>
</g>
<!-- Node43&#45;&gt;Node26 -->
<g id="edge63" class="edge">
<title>Node43&#45;&gt;Node26</title>
<path fill="none" stroke="midnightblue" d="M385.81,-550.45C355.1,-541.36 304.96,-526.51 270.77,-516.39"/>
<polygon fill="midnightblue" stroke="midnightblue" points="271.73,-513.02 261.15,-513.54 269.74,-519.73 271.73,-513.02"/>
</g>
<!-- Node43&#45;&gt;Node33 -->
<g id="edge62" class="edge">
<title>Node43&#45;&gt;Node33</title>
<path fill="none" stroke="midnightblue" d="M424.85,-550.45C436.99,-542.2 456.1,-529.22 470.66,-519.32"/>
<polygon fill="midnightblue" stroke="midnightblue" points="472.74,-522.14 479.04,-513.63 468.8,-516.35 472.74,-522.14"/>
</g>
<!-- Node44&#45;&gt;Node34 -->
<g id="edge65" class="edge">
<title>Node44&#45;&gt;Node34</title>
<path fill="none" stroke="midnightblue" d="M632.05,-550.18C638.82,-537.96 649.28,-514.48 643,-495 639.61,-484.49 632.72,-474.37 626.2,-466.44"/>
<polygon fill="midnightblue" stroke="midnightblue" points="628.69,-463.97 619.45,-458.78 623.44,-468.6 628.69,-463.97"/>
</g>
<!-- Node45 -->
<g id="node45" class="node">
<title>Node45</title>
<g id="a_node45"><a xlink:title=" ">
<polygon fill="none" stroke="#bfbfbf" points="579.83,-495.5 579.83,-513.5 634.17,-513.5 634.17,-495.5 579.83,-495.5"/>
<text text-anchor="middle" x="607" y="-501.5" font-family="Helvetica,sans-Serif" font-size="10.00">iostream</text>
</a>
</g>
</g>
<!-- Node44&#45;&gt;Node45 -->
<g id="edge66" class="edge">
<title>Node44&#45;&gt;Node45</title>
<path fill="none" stroke="midnightblue" d="M623.88,-550.22C621.13,-542.94 617.04,-532.11 613.58,-522.93"/>
<polygon fill="midnightblue" stroke="midnightblue" points="616.84,-521.67 610.04,-513.55 610.29,-524.14 616.84,-521.67"/>
</g>
<!-- Node46&#45;&gt;Node33 -->
<g id="edge68" class="edge">
<title>Node46&#45;&gt;Node33</title>
<path fill="none" stroke="midnightblue" d="M539.94,-550.22C531.2,-542.24 517.79,-529.98 507.22,-520.32"/>
<polygon fill="midnightblue" stroke="midnightblue" points="509.55,-517.71 499.81,-513.55 504.83,-522.88 509.55,-517.71"/>
</g>
<!-- Node47&#45;&gt;Node27 -->
<g id="edge70" class="edge">
<title>Node47&#45;&gt;Node27</title>
<path fill="none" stroke="midnightblue" d="M671.35,-715.48C680.64,-681.91 711.09,-551.74 643,-495 619.96,-475.8 541.48,-462.83 488.85,-456.06"/>
<polygon fill="midnightblue" stroke="midnightblue" points="489.05,-452.55 478.69,-454.78 488.18,-459.5 489.05,-452.55"/>
</g>
</g>
</svg>
