<?xml version="1.0" encoding="UTF-8" standalone="no"?>
<!DOCTYPE svg PUBLIC "-//W3C//DTD SVG 1.1//EN"
 "http://www.w3.org/Graphics/SVG/1.1/DTD/svg11.dtd">
<!-- Generated by graphviz version 2.42.3 (20191010.1750)
 -->
<!-- Title: txcommands.cpp Pages: 1 -->
<svg width="791pt" height="742pt"
 viewBox="0.00 0.00 790.90 742.00" xmlns="http://www.w3.org/2000/svg" xmlns:xlink="http://www.w3.org/1999/xlink">
<g id="graph0" class="graph" transform="scale(1 1) rotate(0) translate(4 738)">
<title>txcommands.cpp</title>
<!-- Node1 -->
<g id="node1" class="node">
<title>Node1</title>
<g id="a_node1"><a xlink:title=" ">
<polygon fill="#bfbfbf" stroke="black" points="347.21,-715.5 347.21,-733.5 438.79,-733.5 438.79,-715.5 347.21,-715.5"/>
<text text-anchor="middle" x="393" y="-721.5" font-family="Helvetica,sans-Serif" font-size="10.00">txcommands.cpp</text>
</a>
</g>
</g>
<!-- Node2 -->
<g id="node2" class="node">
<title>Node2</title>
<g id="a_node2"><a xlink:href="../../d5/d87/globals_8h.html" target="_top" xlink:title=" ">
<polygon fill="none" stroke="black" points="277.54,-275.5 277.54,-293.5 362.46,-293.5 362.46,-275.5 277.54,-275.5"/>
<text text-anchor="middle" x="320" y="-281.5" font-family="Helvetica,sans-Serif" font-size="10.00">tralics/globals.h</text>
</a>
</g>
</g>
<!-- Node1&#45;&gt;Node2 -->
<g id="edge1" class="edge">
<title>Node1&#45;&gt;Node2</title>
<path fill="none" stroke="midnightblue" d="M347.15,-720.59C243.48,-712.76 0,-686.79 0,-615.5 0,-615.5 0,-615.5 0,-393.5 0,-337.75 176.59,-305.23 267.4,-292.19"/>
<polygon fill="midnightblue" stroke="midnightblue" points="268.09,-295.63 277.51,-290.77 267.12,-288.7 268.09,-295.63"/>
</g>
<!-- Node14 -->
<g id="node14" class="node">
<title>Node14</title>
<g id="a_node14"><a xlink:href="../../d6/dcb/txbib_8h.html" target="_top" xlink:title=" ">
<polygon fill="none" stroke="black" points="251.27,-660.5 251.27,-678.5 296.73,-678.5 296.73,-660.5 251.27,-660.5"/>
<text text-anchor="middle" x="274" y="-666.5" font-family="Helvetica,sans-Serif" font-size="10.00">txbib.h</text>
</a>
</g>
</g>
<!-- Node1&#45;&gt;Node14 -->
<g id="edge14" class="edge">
<title>Node1&#45;&gt;Node14</title>
<path fill="none" stroke="midnightblue" d="M374.93,-715.45C355.44,-706.77 324.19,-692.86 301.63,-682.8"/>
<polygon fill="midnightblue" stroke="midnightblue" points="302.8,-679.5 292.24,-678.63 299.95,-685.89 302.8,-679.5"/>
</g>
<!-- Node34 -->
<g id="node34" class="node">
<title>Node34</title>
<g id="a_node34"><a xlink:href="../../dc/dd7/txclasses_8h.html" target="_top" xlink:title=" ">
<polygon fill="none" stroke="black" points="606.27,-660.5 606.27,-678.5 671.73,-678.5 671.73,-660.5 606.27,-660.5"/>
<text text-anchor="middle" x="639" y="-666.5" font-family="Helvetica,sans-Serif" font-size="10.00">txclasses.h</text>
</a>
</g>
</g>
<!-- Node1&#45;&gt;Node34 -->
<g id="edge45" class="edge">
<title>Node1&#45;&gt;Node34</title>
<path fill="none" stroke="midnightblue" d="M430.36,-715.45C474.94,-705.85 549.31,-689.82 596.17,-679.73"/>
<polygon fill="midnightblue" stroke="midnightblue" points="596.98,-683.13 606.02,-677.6 595.51,-676.29 596.98,-683.13"/>
</g>
<!-- Node35 -->
<g id="node35" class="node">
<title>Node35</title>
<g id="a_node35"><a xlink:href="../../d2/d1b/txparser_8h.html" target="_top" xlink:title=" ">
<polygon fill="none" stroke="black" points="486.04,-660.5 486.04,-678.5 545.96,-678.5 545.96,-660.5 486.04,-660.5"/>
<text text-anchor="middle" x="516" y="-666.5" font-family="Helvetica,sans-Serif" font-size="10.00">txparser.h</text>
</a>
</g>
</g>
<!-- Node1&#45;&gt;Node35 -->
<g id="edge47" class="edge">
<title>Node1&#45;&gt;Node35</title>
<path fill="none" stroke="midnightblue" d="M411.68,-715.45C431.91,-706.73 464.41,-692.73 487.76,-682.67"/>
<polygon fill="midnightblue" stroke="midnightblue" points="489.34,-685.8 497.14,-678.63 486.57,-679.37 489.34,-685.8"/>
</g>
<!-- Node3 -->
<g id="node3" class="node">
<title>Node3</title>
<g id="a_node3"><a xlink:href="../../d8/d47/codepoint_8h.html" target="_top" xlink:title=" ">
<polygon fill="none" stroke="black" points="423.15,-165.5 423.15,-183.5 490.85,-183.5 490.85,-165.5 423.15,-165.5"/>
<text text-anchor="middle" x="457" y="-171.5" font-family="Helvetica,sans-Serif" font-size="10.00">codepoint.h</text>
</a>
</g>
</g>
<!-- Node2&#45;&gt;Node3 -->
<g id="edge2" class="edge">
<title>Node2&#45;&gt;Node3</title>
<path fill="none" stroke="midnightblue" d="M311.83,-275.39C299.95,-262.6 280.7,-237.42 294,-220 308.42,-201.11 369.87,-188.31 413.05,-181.45"/>
<polygon fill="midnightblue" stroke="midnightblue" points="413.7,-184.9 423.05,-179.92 412.63,-177.98 413.7,-184.9"/>
</g>
<!-- Node9 -->
<g id="node9" class="node">
<title>Node9</title>
<g id="a_node9"><a xlink:href="../../d0/d0b/enums_8h.html" target="_top" xlink:title=" ">
<polygon fill="none" stroke="black" points="523.82,-165.5 523.82,-183.5 578.18,-183.5 578.18,-165.5 523.82,-165.5"/>
<text text-anchor="middle" x="551" y="-171.5" font-family="Helvetica,sans-Serif" font-size="10.00">enums.h</text>
</a>
</g>
</g>
<!-- Node2&#45;&gt;Node9 -->
<g id="edge8" class="edge">
<title>Node2&#45;&gt;Node9</title>
<path fill="none" stroke="midnightblue" d="M318.16,-275.26C315.68,-261.84 313.06,-235.2 327,-220 333.3,-213.13 451.3,-192.33 513.43,-181.78"/>
<polygon fill="midnightblue" stroke="midnightblue" points="514.35,-185.17 523.62,-180.05 513.18,-178.27 514.35,-185.17"/>
</g>
<!-- Node11 -->
<g id="node11" class="node">
<title>Node11</title>
<g id="a_node11"><a xlink:title=" ">
<polygon fill="none" stroke="#bfbfbf" points="335.61,-220.5 335.61,-238.5 374.39,-238.5 374.39,-220.5 335.61,-220.5"/>
<text text-anchor="middle" x="355" y="-226.5" font-family="Helvetica,sans-Serif" font-size="10.00">array</text>
</a>
</g>
</g>
<!-- Node2&#45;&gt;Node11 -->
<g id="edge11" class="edge">
<title>Node2&#45;&gt;Node11</title>
<path fill="none" stroke="midnightblue" d="M325.47,-275.22C330.43,-267.71 337.89,-256.41 344.07,-247.05"/>
<polygon fill="midnightblue" stroke="midnightblue" points="347.09,-248.82 349.68,-238.55 341.25,-244.97 347.09,-248.82"/>
</g>
<!-- Node12 -->
<g id="node12" class="node">
<title>Node12</title>
<g id="a_node12"><a xlink:title=" ">
<polygon fill="none" stroke="#bfbfbf" points="453.77,-220.5 453.77,-238.5 494.23,-238.5 494.23,-220.5 453.77,-220.5"/>
<text text-anchor="middle" x="474" y="-226.5" font-family="Helvetica,sans-Serif" font-size="10.00">string</text>
</a>
</g>
</g>
<!-- Node2&#45;&gt;Node12 -->
<g id="edge12" class="edge">
<title>Node2&#45;&gt;Node12</title>
<path fill="none" stroke="midnightblue" d="M343.39,-275.45C370.18,-266.23 414.18,-251.09 443.61,-240.96"/>
<polygon fill="midnightblue" stroke="midnightblue" points="445.04,-244.17 453.36,-237.6 442.76,-237.55 445.04,-244.17"/>
</g>
<!-- Node13 -->
<g id="node13" class="node">
<title>Node13</title>
<g id="a_node13"><a xlink:title=" ">
<polygon fill="none" stroke="#bfbfbf" points="392.38,-220.5 392.38,-238.5 435.62,-238.5 435.62,-220.5 392.38,-220.5"/>
<text text-anchor="middle" x="414" y="-226.5" font-family="Helvetica,sans-Serif" font-size="10.00">vector</text>
</a>
</g>
</g>
<!-- Node2&#45;&gt;Node13 -->
<g id="edge13" class="edge">
<title>Node2&#45;&gt;Node13</title>
<path fill="none" stroke="midnightblue" d="M334.28,-275.45C349.18,-267.05 372.81,-253.72 390.48,-243.76"/>
<polygon fill="midnightblue" stroke="midnightblue" points="392.6,-246.59 399.59,-238.63 389.16,-240.49 392.6,-246.59"/>
</g>
<!-- Node4 -->
<g id="node4" class="node">
<title>Node4</title>
<g id="a_node4"><a xlink:href="../../d9/d49/types_8h.html" target="_top" xlink:title=" ">
<polygon fill="none" stroke="black" points="498.88,-55.5 498.88,-73.5 547.12,-73.5 547.12,-55.5 498.88,-55.5"/>
<text text-anchor="middle" x="523" y="-61.5" font-family="Helvetica,sans-Serif" font-size="10.00">types.h</text>
</a>
</g>
</g>
<!-- Node3&#45;&gt;Node4 -->
<g id="edge3" class="edge">
<title>Node3&#45;&gt;Node4</title>
<path fill="none" stroke="midnightblue" d="M461.96,-165.38C472.71,-147.79 498.34,-105.85 512.74,-82.29"/>
<polygon fill="midnightblue" stroke="midnightblue" points="515.75,-84.07 517.98,-73.71 509.78,-80.42 515.75,-84.07"/>
</g>
<!-- Node8 -->
<g id="node8" class="node">
<title>Node8</title>
<g id="a_node8"><a xlink:title=" ">
<polygon fill="none" stroke="#bfbfbf" points="416.49,-110.5 416.49,-128.5 467.51,-128.5 467.51,-110.5 416.49,-110.5"/>
<text text-anchor="middle" x="442" y="-116.5" font-family="Helvetica,sans-Serif" font-size="10.00">optional</text>
</a>
</g>
</g>
<!-- Node3&#45;&gt;Node8 -->
<g id="edge7" class="edge">
<title>Node3&#45;&gt;Node8</title>
<path fill="none" stroke="midnightblue" d="M454.66,-165.22C452.62,-158.02 449.6,-147.35 447.02,-138.23"/>
<polygon fill="midnightblue" stroke="midnightblue" points="450.37,-137.22 444.28,-128.55 443.63,-139.12 450.37,-137.22"/>
</g>
<!-- Node5 -->
<g id="node5" class="node">
<title>Node5</title>
<g id="a_node5"><a xlink:title=" ">
<polygon fill="none" stroke="#bfbfbf" points="432.88,-0.5 432.88,-18.5 481.12,-18.5 481.12,-0.5 432.88,-0.5"/>
<text text-anchor="middle" x="457" y="-6.5" font-family="Helvetica,sans-Serif" font-size="10.00">cassert</text>
</a>
</g>
</g>
<!-- Node4&#45;&gt;Node5 -->
<g id="edge4" class="edge">
<title>Node4&#45;&gt;Node5</title>
<path fill="none" stroke="midnightblue" d="M512.98,-55.45C502.99,-47.43 487.44,-34.95 475.26,-25.17"/>
<polygon fill="midnightblue" stroke="midnightblue" points="477.11,-22.16 467.12,-18.63 472.72,-27.62 477.11,-22.16"/>
</g>
<!-- Node6 -->
<g id="node6" class="node">
<title>Node6</title>
<g id="a_node6"><a xlink:title=" ">
<polygon fill="none" stroke="#bfbfbf" points="498.88,-0.5 498.88,-18.5 547.12,-18.5 547.12,-0.5 498.88,-0.5"/>
<text text-anchor="middle" x="523" y="-6.5" font-family="Helvetica,sans-Serif" font-size="10.00">cstddef</text>
</a>
</g>
</g>
<!-- Node4&#45;&gt;Node6 -->
<g id="edge5" class="edge">
<title>Node4&#45;&gt;Node6</title>
<path fill="none" stroke="midnightblue" d="M523,-55.22C523,-48.18 523,-37.81 523,-28.83"/>
<polygon fill="midnightblue" stroke="midnightblue" points="526.5,-28.55 523,-18.55 519.5,-28.55 526.5,-28.55"/>
</g>
<!-- Node7 -->
<g id="node7" class="node">
<title>Node7</title>
<g id="a_node7"><a xlink:title=" ">
<polygon fill="none" stroke="#bfbfbf" points="564.93,-0.5 564.93,-18.5 627.07,-18.5 627.07,-0.5 564.93,-0.5"/>
<text text-anchor="middle" x="596" y="-6.5" font-family="Helvetica,sans-Serif" font-size="10.00">type_traits</text>
</a>
</g>
</g>
<!-- Node4&#45;&gt;Node7 -->
<g id="edge6" class="edge">
<title>Node4&#45;&gt;Node7</title>
<path fill="none" stroke="midnightblue" d="M534.09,-55.45C545.34,-47.28 563,-34.46 576.58,-24.6"/>
<polygon fill="midnightblue" stroke="midnightblue" points="578.77,-27.33 584.81,-18.63 574.66,-21.67 578.77,-27.33"/>
</g>
<!-- Node10 -->
<g id="node10" class="node">
<title>Node10</title>
<g id="a_node10"><a xlink:href="../../d8/db5/consts_8h.html" target="_top" xlink:title=" ">
<polygon fill="none" stroke="black" points="524.38,-110.5 524.38,-128.5 577.62,-128.5 577.62,-110.5 524.38,-110.5"/>
<text text-anchor="middle" x="551" y="-116.5" font-family="Helvetica,sans-Serif" font-size="10.00">consts.h</text>
</a>
</g>
</g>
<!-- Node9&#45;&gt;Node10 -->
<g id="edge9" class="edge">
<title>Node9&#45;&gt;Node10</title>
<path fill="none" stroke="midnightblue" d="M551,-165.22C551,-158.18 551,-147.81 551,-138.83"/>
<polygon fill="midnightblue" stroke="midnightblue" points="554.5,-138.55 551,-128.55 547.5,-138.55 554.5,-138.55"/>
</g>
<!-- Node10&#45;&gt;Node4 -->
<g id="edge10" class="edge">
<title>Node10&#45;&gt;Node4</title>
<path fill="none" stroke="midnightblue" d="M546.62,-110.22C542.74,-102.86 536.94,-91.88 532.05,-82.64"/>
<polygon fill="midnightblue" stroke="midnightblue" points="535.02,-80.76 527.25,-73.55 528.83,-84.03 535.02,-80.76"/>
</g>
<!-- Node15 -->
<g id="node15" class="node">
<title>Node15</title>
<g id="a_node15"><a xlink:href="../../d9/d1c/_xml_8h.html" target="_top" xlink:title=" ">
<polygon fill="none" stroke="black" points="339.77,-550.5 339.77,-568.5 410.23,-568.5 410.23,-550.5 339.77,-550.5"/>
<text text-anchor="middle" x="375" y="-556.5" font-family="Helvetica,sans-Serif" font-size="10.00">tralics/Xml.h</text>
</a>
</g>
</g>
<!-- Node14&#45;&gt;Node15 -->
<g id="edge15" class="edge">
<title>Node14&#45;&gt;Node15</title>
<path fill="none" stroke="midnightblue" d="M281.59,-660.38C298.33,-642.48 338.67,-599.35 360.46,-576.05"/>
<polygon fill="midnightblue" stroke="midnightblue" points="363.05,-578.41 367.32,-568.71 357.93,-573.62 363.05,-578.41"/>
</g>
<!-- Node27 -->
<g id="node27" class="node">
<title>Node27</title>
<g id="a_node27"><a xlink:href="../../d7/d79/txinline_8h.html" target="_top" xlink:title=" ">
<polygon fill="none" stroke="black" points="149.27,-605.5 149.27,-623.5 204.73,-623.5 204.73,-605.5 149.27,-605.5"/>
<text text-anchor="middle" x="177" y="-611.5" font-family="Helvetica,sans-Serif" font-size="10.00">txinline.h</text>
</a>
</g>
</g>
<!-- Node14&#45;&gt;Node27 -->
<g id="edge34" class="edge">
<title>Node14&#45;&gt;Node27</title>
<path fill="none" stroke="midnightblue" d="M259.27,-660.45C243.74,-651.97 219.05,-638.48 200.77,-628.49"/>
<polygon fill="midnightblue" stroke="midnightblue" points="202.32,-625.35 191.87,-623.63 198.97,-631.49 202.32,-625.35"/>
</g>
<!-- Node16 -->
<g id="node16" class="node">
<title>Node16</title>
<g id="a_node16"><a xlink:href="../../dc/def/txstring_8h.html" target="_top" xlink:title=" ">
<polygon fill="none" stroke="black" points="420.55,-495.5 420.55,-513.5 485.45,-513.5 485.45,-495.5 420.55,-495.5"/>
<text text-anchor="middle" x="453" y="-501.5" font-family="Helvetica,sans-Serif" font-size="10.00">../txstring.h</text>
</a>
</g>
</g>
<!-- Node15&#45;&gt;Node16 -->
<g id="edge16" class="edge">
<title>Node15&#45;&gt;Node16</title>
<path fill="none" stroke="midnightblue" d="M386.85,-550.45C398.99,-542.2 418.1,-529.22 432.66,-519.32"/>
<polygon fill="midnightblue" stroke="midnightblue" points="434.74,-522.14 441.04,-513.63 430.8,-516.35 434.74,-522.14"/>
</g>
<!-- Node17 -->
<g id="node17" class="node">
<title>Node17</title>
<g id="a_node17"><a xlink:href="../../dd/d74/txbuffer_8h.html" target="_top" xlink:title=" ">
<polygon fill="none" stroke="black" points="430.52,-440.5 430.52,-458.5 487.48,-458.5 487.48,-440.5 430.52,-440.5"/>
<text text-anchor="middle" x="459" y="-446.5" font-family="Helvetica,sans-Serif" font-size="10.00">txbuffer.h</text>
</a>
</g>
</g>
<!-- Node16&#45;&gt;Node17 -->
<g id="edge17" class="edge">
<title>Node16&#45;&gt;Node17</title>
<path fill="none" stroke="midnightblue" d="M453.94,-495.22C454.74,-488.1 455.93,-477.58 456.96,-468.53"/>
<polygon fill="midnightblue" stroke="midnightblue" points="460.44,-468.88 458.09,-458.55 453.49,-468.09 460.44,-468.88"/>
</g>
<!-- Node17&#45;&gt;Node13 -->
<g id="edge33" class="edge">
<title>Node17&#45;&gt;Node13</title>
<path fill="none" stroke="midnightblue" d="M451.07,-440.46C443.41,-432.11 432.21,-418.31 427,-404 407.49,-350.41 409.69,-281.49 412.19,-249"/>
<polygon fill="midnightblue" stroke="midnightblue" points="415.69,-249.05 413.08,-238.78 408.72,-248.44 415.69,-249.05"/>
</g>
<!-- Node18 -->
<g id="node18" class="node">
<title>Node18</title>
<g id="a_node18"><a xlink:href="../../d1/d9e/txid_8h.html" target="_top" xlink:title=" ">
<polygon fill="none" stroke="black" points="480.05,-330.5 480.05,-348.5 519.95,-348.5 519.95,-330.5 480.05,-330.5"/>
<text text-anchor="middle" x="500" y="-336.5" font-family="Helvetica,sans-Serif" font-size="10.00">txid.h</text>
</a>
</g>
</g>
<!-- Node17&#45;&gt;Node18 -->
<g id="edge18" class="edge">
<title>Node17&#45;&gt;Node18</title>
<path fill="none" stroke="midnightblue" d="M466.73,-440.38C474.24,-431.98 485.32,-418.13 491,-404 496.84,-389.46 498.98,-371.71 499.72,-358.68"/>
<polygon fill="midnightblue" stroke="midnightblue" points="503.22,-358.75 500.07,-348.64 496.23,-358.51 503.22,-358.75"/>
</g>
<!-- Node20 -->
<g id="node20" class="node">
<title>Node20</title>
<g id="a_node20"><a xlink:href="../../d9/d18/txscaled_8h.html" target="_top" xlink:title=" ">
<polygon fill="none" stroke="black" points="546.49,-385.5 546.49,-403.5 607.51,-403.5 607.51,-385.5 546.49,-385.5"/>
<text text-anchor="middle" x="577" y="-391.5" font-family="Helvetica,sans-Serif" font-size="10.00">txscaled.h</text>
</a>
</g>
</g>
<!-- Node17&#45;&gt;Node20 -->
<g id="edge23" class="edge">
<title>Node17&#45;&gt;Node20</title>
<path fill="none" stroke="midnightblue" d="M476.92,-440.45C496.24,-431.77 527.23,-417.86 549.61,-407.8"/>
<polygon fill="midnightblue" stroke="midnightblue" points="551.22,-410.92 558.91,-403.63 548.35,-404.53 551.22,-410.92"/>
</g>
<!-- Node26 -->
<g id="node26" class="node">
<title>Node26</title>
<g id="a_node26"><a xlink:title=" ">
<polygon fill="none" stroke="#bfbfbf" points="436.27,-385.5 436.27,-403.5 481.73,-403.5 481.73,-385.5 436.27,-385.5"/>
<text text-anchor="middle" x="459" y="-391.5" font-family="Helvetica,sans-Serif" font-size="10.00">cstring</text>
</a>
</g>
</g>
<!-- Node17&#45;&gt;Node26 -->
<g id="edge32" class="edge">
<title>Node17&#45;&gt;Node26</title>
<path fill="none" stroke="midnightblue" d="M459,-440.22C459,-433.18 459,-422.81 459,-413.83"/>
<polygon fill="midnightblue" stroke="midnightblue" points="462.5,-413.55 459,-403.55 455.5,-413.55 462.5,-413.55"/>
</g>
<!-- Node19 -->
<g id="node19" class="node">
<title>Node19</title>
<g id="a_node19"><a xlink:href="../../d5/daf/_istring_8h.html" target="_top" xlink:title=" ">
<polygon fill="none" stroke="black" points="438.77,-275.5 438.77,-293.5 519.23,-293.5 519.23,-275.5 438.77,-275.5"/>
<text text-anchor="middle" x="479" y="-281.5" font-family="Helvetica,sans-Serif" font-size="10.00">tralics/Istring.h</text>
</a>
</g>
</g>
<!-- Node18&#45;&gt;Node19 -->
<g id="edge19" class="edge">
<title>Node18&#45;&gt;Node19</title>
<path fill="none" stroke="midnightblue" d="M496.72,-330.22C493.84,-322.94 489.54,-312.11 485.91,-302.93"/>
<polygon fill="midnightblue" stroke="midnightblue" points="489.13,-301.56 482.19,-293.55 482.62,-304.14 489.13,-301.56"/>
</g>
<!-- Node19&#45;&gt;Node9 -->
<g id="edge20" class="edge">
<title>Node19&#45;&gt;Node9</title>
<path fill="none" stroke="midnightblue" d="M484.41,-275.38C496.14,-257.79 524.1,-215.85 539.81,-192.29"/>
<polygon fill="midnightblue" stroke="midnightblue" points="542.89,-193.97 545.53,-183.71 537.07,-190.09 542.89,-193.97"/>
</g>
<!-- Node19&#45;&gt;Node11 -->
<g id="edge21" class="edge">
<title>Node19&#45;&gt;Node11</title>
<path fill="none" stroke="midnightblue" d="M460.17,-275.45C439.77,-266.73 407.01,-252.73 383.47,-242.67"/>
<polygon fill="midnightblue" stroke="midnightblue" points="384.58,-239.34 374.01,-238.63 381.83,-245.77 384.58,-239.34"/>
</g>
<!-- Node19&#45;&gt;Node12 -->
<g id="edge22" class="edge">
<title>Node19&#45;&gt;Node12</title>
<path fill="none" stroke="midnightblue" d="M478.22,-275.22C477.55,-268.1 476.55,-257.58 475.7,-248.53"/>
<polygon fill="midnightblue" stroke="midnightblue" points="479.18,-248.18 474.76,-238.55 472.21,-248.83 479.18,-248.18"/>
</g>
<!-- Node21 -->
<g id="node21" class="node">
<title>Node21</title>
<g id="a_node21"><a xlink:href="../../dc/d91/txtokenlist_8h.html" target="_top" xlink:title=" ">
<polygon fill="none" stroke="black" points="542.6,-330.5 542.6,-348.5 611.4,-348.5 611.4,-330.5 542.6,-330.5"/>
<text text-anchor="middle" x="577" y="-336.5" font-family="Helvetica,sans-Serif" font-size="10.00">txtokenlist.h</text>
</a>
</g>
</g>
<!-- Node20&#45;&gt;Node21 -->
<g id="edge24" class="edge">
<title>Node20&#45;&gt;Node21</title>
<path fill="none" stroke="midnightblue" d="M577,-385.22C577,-378.18 577,-367.81 577,-358.83"/>
<polygon fill="midnightblue" stroke="midnightblue" points="580.5,-358.55 577,-348.55 573.5,-358.55 580.5,-358.55"/>
</g>
<!-- Node21&#45;&gt;Node19 -->
<g id="edge25" class="edge">
<title>Node21&#45;&gt;Node19</title>
<path fill="none" stroke="midnightblue" d="M562.12,-330.45C546.43,-321.97 521.49,-308.48 503.01,-298.49"/>
<polygon fill="midnightblue" stroke="midnightblue" points="504.49,-295.3 494.02,-293.63 501.16,-301.46 504.49,-295.3"/>
</g>
<!-- Node22 -->
<g id="node22" class="node">
<title>Node22</title>
<g id="a_node22"><a xlink:href="../../dd/dcd/_token_8h.html" target="_top" xlink:title=" ">
<polygon fill="none" stroke="black" points="537.04,-275.5 537.04,-293.5 616.96,-293.5 616.96,-275.5 537.04,-275.5"/>
<text text-anchor="middle" x="577" y="-281.5" font-family="Helvetica,sans-Serif" font-size="10.00">tralics/Token.h</text>
</a>
</g>
</g>
<!-- Node21&#45;&gt;Node22 -->
<g id="edge26" class="edge">
<title>Node21&#45;&gt;Node22</title>
<path fill="none" stroke="midnightblue" d="M577,-330.22C577,-323.18 577,-312.81 577,-303.83"/>
<polygon fill="midnightblue" stroke="midnightblue" points="580.5,-303.55 577,-293.55 573.5,-303.55 580.5,-303.55"/>
</g>
<!-- Node25 -->
<g id="node25" class="node">
<title>Node25</title>
<g id="a_node25"><a xlink:title=" ">
<polygon fill="none" stroke="#bfbfbf" points="634.61,-275.5 634.61,-293.5 673.39,-293.5 673.39,-275.5 634.61,-275.5"/>
<text text-anchor="middle" x="654" y="-281.5" font-family="Helvetica,sans-Serif" font-size="10.00">utility</text>
</a>
</g>
</g>
<!-- Node21&#45;&gt;Node25 -->
<g id="edge31" class="edge">
<title>Node21&#45;&gt;Node25</title>
<path fill="none" stroke="midnightblue" d="M588.69,-330.45C600.68,-322.2 619.54,-309.22 633.92,-299.32"/>
<polygon fill="midnightblue" stroke="midnightblue" points="635.94,-302.18 642.2,-293.63 631.97,-296.41 635.94,-302.18"/>
</g>
<!-- Node23 -->
<g id="node23" class="node">
<title>Node23</title>
<g id="a_node23"><a xlink:href="../../d2/d68/_cmd_chr_8h.html" target="_top" xlink:title=" ">
<polygon fill="none" stroke="black" points="550.49,-220.5 550.49,-238.5 611.51,-238.5 611.51,-220.5 550.49,-220.5"/>
<text text-anchor="middle" x="581" y="-226.5" font-family="Helvetica,sans-Serif" font-size="10.00">CmdChr.h</text>
</a>
</g>
</g>
<!-- Node22&#45;&gt;Node23 -->
<g id="edge27" class="edge">
<title>Node22&#45;&gt;Node23</title>
<path fill="none" stroke="midnightblue" d="M577.62,-275.22C578.16,-268.1 578.96,-257.58 579.64,-248.53"/>
<polygon fill="midnightblue" stroke="midnightblue" points="583.13,-248.78 580.39,-238.55 576.15,-248.26 583.13,-248.78"/>
</g>
<!-- Node24 -->
<g id="node24" class="node">
<title>Node24</title>
<g id="a_node24"><a xlink:title=" ">
<polygon fill="none" stroke="#bfbfbf" points="629.5,-220.5 629.5,-238.5 658.5,-238.5 658.5,-220.5 629.5,-220.5"/>
<text text-anchor="middle" x="643.61" y="-226.5" font-family="Helvetica,sans-Serif" font-size="10.00">list</text>
</a>
</g>
</g>
<!-- Node22&#45;&gt;Node24 -->
<g id="edge30" class="edge">
<title>Node22&#45;&gt;Node24</title>
<path fill="none" stroke="midnightblue" d="M587.18,-275.45C597.41,-267.36 613.4,-254.7 625.82,-244.88"/>
<polygon fill="midnightblue" stroke="midnightblue" points="628.06,-247.57 633.73,-238.63 623.71,-242.08 628.06,-247.57"/>
</g>
<!-- Node23&#45;&gt;Node3 -->
<g id="edge28" class="edge">
<title>Node23&#45;&gt;Node3</title>
<path fill="none" stroke="midnightblue" d="M562.17,-220.45C541.77,-211.73 509.01,-197.73 485.47,-187.67"/>
<polygon fill="midnightblue" stroke="midnightblue" points="486.58,-184.34 476.01,-183.63 483.83,-190.77 486.58,-184.34"/>
</g>
<!-- Node23&#45;&gt;Node9 -->
<g id="edge29" class="edge">
<title>Node23&#45;&gt;Node9</title>
<path fill="none" stroke="midnightblue" d="M576.31,-220.22C572.11,-212.79 565.8,-201.65 560.53,-192.34"/>
<polygon fill="midnightblue" stroke="midnightblue" points="563.53,-190.53 555.56,-183.55 557.44,-193.98 563.53,-190.53"/>
</g>
<!-- Node28 -->
<g id="node28" class="node">
<title>Node28</title>
<g id="a_node28"><a xlink:href="../../d4/de9/_main_class_8h.html" target="_top" xlink:title=" ">
<polygon fill="none" stroke="black" points="184.04,-550.5 184.04,-568.5 283.96,-568.5 283.96,-550.5 184.04,-550.5"/>
<text text-anchor="middle" x="234" y="-556.5" font-family="Helvetica,sans-Serif" font-size="10.00">tralics/MainClass.h</text>
</a>
</g>
</g>
<!-- Node27&#45;&gt;Node28 -->
<g id="edge35" class="edge">
<title>Node27&#45;&gt;Node28</title>
<path fill="none" stroke="midnightblue" d="M185.91,-605.22C194.41,-597.32 207.41,-585.22 217.75,-575.61"/>
<polygon fill="midnightblue" stroke="midnightblue" points="220.4,-577.92 225.34,-568.55 215.64,-572.8 220.4,-577.92"/>
</g>
<!-- Node31 -->
<g id="node31" class="node">
<title>Node31</title>
<g id="a_node31"><a xlink:href="../../d2/d06/txlogger_8h.html" target="_top" xlink:title=" ">
<polygon fill="none" stroke="black" points="28.32,-550.5 28.32,-568.5 87.68,-568.5 87.68,-550.5 28.32,-550.5"/>
<text text-anchor="middle" x="58" y="-556.5" font-family="Helvetica,sans-Serif" font-size="10.00">txlogger.h</text>
</a>
</g>
</g>
<!-- Node27&#45;&gt;Node31 -->
<g id="edge40" class="edge">
<title>Node27&#45;&gt;Node31</title>
<path fill="none" stroke="midnightblue" d="M158.93,-605.45C139.44,-596.77 108.19,-582.86 85.63,-572.8"/>
<polygon fill="midnightblue" stroke="midnightblue" points="86.8,-569.5 76.24,-568.63 83.95,-575.89 86.8,-569.5"/>
</g>
<!-- Node33 -->
<g id="node33" class="node">
<title>Node33</title>
<g id="a_node33"><a xlink:href="../../d5/d08/txparam_8h.html" target="_top" xlink:title=" ">
<polygon fill="none" stroke="black" points="105.77,-550.5 105.77,-568.5 166.23,-568.5 166.23,-550.5 105.77,-550.5"/>
<text text-anchor="middle" x="136" y="-556.5" font-family="Helvetica,sans-Serif" font-size="10.00">txparam.h</text>
</a>
</g>
</g>
<!-- Node27&#45;&gt;Node33 -->
<g id="edge43" class="edge">
<title>Node27&#45;&gt;Node33</title>
<path fill="none" stroke="midnightblue" d="M170.59,-605.22C164.66,-597.55 155.68,-585.94 148.35,-576.47"/>
<polygon fill="midnightblue" stroke="midnightblue" points="151.11,-574.32 142.23,-568.55 145.58,-578.6 151.11,-574.32"/>
</g>
<!-- Node28&#45;&gt;Node16 -->
<g id="edge39" class="edge">
<title>Node28&#45;&gt;Node16</title>
<path fill="none" stroke="midnightblue" d="M267.26,-550.45C305.62,-541.17 368.76,-525.89 410.61,-515.76"/>
<polygon fill="midnightblue" stroke="midnightblue" points="411.6,-519.12 420.5,-513.37 409.96,-512.32 411.6,-519.12"/>
</g>
<!-- Node29 -->
<g id="node29" class="node">
<title>Node29</title>
<g id="a_node29"><a xlink:href="../../de/d29/txio_8h.html" target="_top" xlink:title=" ">
<polygon fill="none" stroke="black" points="209.88,-495.5 209.88,-513.5 258.12,-513.5 258.12,-495.5 209.88,-495.5"/>
<text text-anchor="middle" x="234" y="-501.5" font-family="Helvetica,sans-Serif" font-size="10.00">../txio.h</text>
</a>
</g>
</g>
<!-- Node28&#45;&gt;Node29 -->
<g id="edge36" class="edge">
<title>Node28&#45;&gt;Node29</title>
<path fill="none" stroke="midnightblue" d="M234,-550.22C234,-543.18 234,-532.81 234,-523.83"/>
<polygon fill="midnightblue" stroke="midnightblue" points="237.5,-523.55 234,-513.55 230.5,-523.55 237.5,-523.55"/>
</g>
<!-- Node29&#45;&gt;Node17 -->
<g id="edge37" class="edge">
<title>Node29&#45;&gt;Node17</title>
<path fill="none" stroke="midnightblue" d="M258.51,-497.73C297.47,-488.55 373.89,-470.55 420.3,-459.62"/>
<polygon fill="midnightblue" stroke="midnightblue" points="421.36,-462.96 430.29,-457.26 419.75,-456.15 421.36,-462.96"/>
</g>
<!-- Node30 -->
<g id="node30" class="node">
<title>Node30</title>
<g id="a_node30"><a xlink:title=" ">
<polygon fill="none" stroke="#bfbfbf" points="183.33,-440.5 183.33,-458.5 232.67,-458.5 232.67,-440.5 183.33,-440.5"/>
<text text-anchor="middle" x="208" y="-446.5" font-family="Helvetica,sans-Serif" font-size="10.00">fstream</text>
</a>
</g>
</g>
<!-- Node29&#45;&gt;Node30 -->
<g id="edge38" class="edge">
<title>Node29&#45;&gt;Node30</title>
<path fill="none" stroke="midnightblue" d="M229.94,-495.22C226.33,-487.86 220.94,-476.88 216.41,-467.64"/>
<polygon fill="midnightblue" stroke="midnightblue" points="219.5,-465.99 211.95,-458.55 213.21,-469.07 219.5,-465.99"/>
</g>
<!-- Node31&#45;&gt;Node30 -->
<g id="edge41" class="edge">
<title>Node31&#45;&gt;Node30</title>
<path fill="none" stroke="midnightblue" d="M69.27,-550.38C94.58,-532.17 156.15,-487.83 188.07,-464.85"/>
<polygon fill="midnightblue" stroke="midnightblue" points="190.52,-467.4 196.59,-458.71 186.43,-461.71 190.52,-467.4"/>
</g>
<!-- Node32 -->
<g id="node32" class="node">
<title>Node32</title>
<g id="a_node32"><a xlink:title=" ">
<polygon fill="none" stroke="#bfbfbf" points="30.83,-495.5 30.83,-513.5 85.17,-513.5 85.17,-495.5 30.83,-495.5"/>
<text text-anchor="middle" x="58" y="-501.5" font-family="Helvetica,sans-Serif" font-size="10.00">iostream</text>
</a>
</g>
</g>
<!-- Node31&#45;&gt;Node32 -->
<g id="edge42" class="edge">
<title>Node31&#45;&gt;Node32</title>
<path fill="none" stroke="midnightblue" d="M58,-550.22C58,-543.18 58,-532.81 58,-523.83"/>
<polygon fill="midnightblue" stroke="midnightblue" points="61.5,-523.55 58,-513.55 54.5,-523.55 61.5,-523.55"/>
</g>
<!-- Node33&#45;&gt;Node29 -->
<g id="edge44" class="edge">
<title>Node33&#45;&gt;Node29</title>
<path fill="none" stroke="midnightblue" d="M150.88,-550.45C166.57,-541.97 191.51,-528.48 209.99,-518.49"/>
<polygon fill="midnightblue" stroke="midnightblue" points="211.84,-521.46 218.98,-513.63 208.51,-515.3 211.84,-521.46"/>
</g>
<!-- Node34&#45;&gt;Node17 -->
<g id="edge46" class="edge">
<title>Node34&#45;&gt;Node17</title>
<path fill="none" stroke="midnightblue" d="M637.97,-660.41C636.22,-648.08 632.02,-623.99 624,-605 612.73,-578.31 608.58,-571.35 589,-550 555.86,-513.87 508.36,-481.25 480.89,-463.82"/>
<polygon fill="midnightblue" stroke="midnightblue" points="482.73,-460.84 472.4,-458.51 479.02,-466.78 482.73,-460.84"/>
</g>
<!-- Node35&#45;&gt;Node29 -->
<g id="edge61" class="edge">
<title>Node35&#45;&gt;Node29</title>
<path fill="none" stroke="midnightblue" d="M485.79,-668.3C446.89,-666.57 378.98,-658.36 334,-624 304.12,-601.18 317.66,-578.38 293,-550 282.54,-537.96 268.33,-527.12 256.47,-519.15"/>
<polygon fill="midnightblue" stroke="midnightblue" points="258.26,-516.14 247.97,-513.65 254.46,-522.02 258.26,-516.14"/>
</g>
<!-- Node36 -->
<g id="node36" class="node">
<title>Node36</title>
<g id="a_node36"><a xlink:href="../../d8/dd6/_e_q_t_b_8h.html" target="_top" xlink:title=" ">
<polygon fill="none" stroke="black" points="570.77,-440.5 570.77,-458.5 651.23,-458.5 651.23,-440.5 570.77,-440.5"/>
<text text-anchor="middle" x="611" y="-446.5" font-family="Helvetica,sans-Serif" font-size="10.00">tralics/EQTB.h</text>
</a>
</g>
</g>
<!-- Node35&#45;&gt;Node36 -->
<g id="edge48" class="edge">
<title>Node35&#45;&gt;Node36</title>
<path fill="none" stroke="midnightblue" d="M546,-665.21C571.53,-660.64 606.74,-649.78 624,-624 656.45,-575.53 632.55,-501.47 618.85,-468"/>
<polygon fill="midnightblue" stroke="midnightblue" points="621.99,-466.46 614.84,-458.64 615.56,-469.21 621.99,-466.46"/>
</g>
<!-- Node37 -->
<g id="node37" class="node">
<title>Node37</title>
<g id="a_node37"><a xlink:href="../../d3/d6b/txcond_8h.html" target="_top" xlink:title=" ">
<polygon fill="none" stroke="black" points="729.1,-275.5 729.1,-293.5 782.9,-293.5 782.9,-275.5 729.1,-275.5"/>
<text text-anchor="middle" x="756" y="-281.5" font-family="Helvetica,sans-Serif" font-size="10.00">txcond.h</text>
</a>
</g>
</g>
<!-- Node35&#45;&gt;Node37 -->
<g id="edge50" class="edge">
<title>Node35&#45;&gt;Node37</title>
<path fill="none" stroke="midnightblue" d="M545.97,-664.08C592.96,-656.72 681.36,-641.1 708,-624 738,-604.74 757,-596.15 757,-560.5 757,-560.5 757,-560.5 757,-393.5 757,-362.02 756.57,-325.37 756.27,-303.88"/>
<polygon fill="midnightblue" stroke="midnightblue" points="759.77,-303.58 756.13,-293.63 752.77,-303.68 759.77,-303.58"/>
</g>
<!-- Node38 -->
<g id="node38" class="node">
<title>Node38</title>
<g id="a_node38"><a xlink:href="../../d7/d4d/txfonts_8h.html" target="_top" xlink:title=" ">
<polygon fill="none" stroke="black" points="417.1,-605.5 417.1,-623.5 470.9,-623.5 470.9,-605.5 417.1,-605.5"/>
<text text-anchor="middle" x="444" y="-611.5" font-family="Helvetica,sans-Serif" font-size="10.00">txfonts.h</text>
</a>
</g>
</g>
<!-- Node35&#45;&gt;Node38 -->
<g id="edge53" class="edge">
<title>Node35&#45;&gt;Node38</title>
<path fill="none" stroke="midnightblue" d="M505.06,-660.45C493.96,-652.28 476.55,-639.46 463.15,-629.6"/>
<polygon fill="midnightblue" stroke="midnightblue" points="465.17,-626.73 455.04,-623.63 461.02,-632.37 465.17,-626.73"/>
</g>
<!-- Node39 -->
<g id="node39" class="node">
<title>Node39</title>
<g id="a_node39"><a xlink:href="../../d7/d7e/txhash_8h.html" target="_top" xlink:title=" ">
<polygon fill="none" stroke="black" points="489.1,-605.5 489.1,-623.5 542.9,-623.5 542.9,-605.5 489.1,-605.5"/>
<text text-anchor="middle" x="516" y="-611.5" font-family="Helvetica,sans-Serif" font-size="10.00">txhash.h</text>
</a>
</g>
</g>
<!-- Node35&#45;&gt;Node39 -->
<g id="edge55" class="edge">
<title>Node35&#45;&gt;Node39</title>
<path fill="none" stroke="midnightblue" d="M516,-660.22C516,-653.18 516,-642.81 516,-633.83"/>
<polygon fill="midnightblue" stroke="midnightblue" points="519.5,-633.55 516,-623.55 512.5,-633.55 519.5,-633.55"/>
</g>
<!-- Node41 -->
<g id="node41" class="node">
<title>Node41</title>
<g id="a_node41"><a xlink:href="../../de/d7c/tximage_8h.html" target="_top" xlink:title=" ">
<polygon fill="none" stroke="black" points="669.32,-330.5 669.32,-348.5 728.68,-348.5 728.68,-330.5 669.32,-330.5"/>
<text text-anchor="middle" x="699" y="-336.5" font-family="Helvetica,sans-Serif" font-size="10.00">tximage.h</text>
</a>
</g>
</g>
<!-- Node35&#45;&gt;Node41 -->
<g id="edge58" class="edge">
<title>Node35&#45;&gt;Node41</title>
<path fill="none" stroke="midnightblue" d="M546.39,-666.14C603.02,-659.92 719,-637.75 719,-560.5 719,-560.5 719,-560.5 719,-448.5 719,-416.33 710.32,-379.67 704.39,-358.4"/>
<polygon fill="midnightblue" stroke="midnightblue" points="707.68,-357.16 701.53,-348.53 700.96,-359.11 707.68,-357.16"/>
</g>
<!-- Node42 -->
<g id="node42" class="node">
<title>Node42</title>
<g id="a_node42"><a xlink:href="../../dc/d65/txstack_8h.html" target="_top" xlink:title=" ">
<polygon fill="none" stroke="black" points="343.27,-605.5 343.27,-623.5 398.73,-623.5 398.73,-605.5 343.27,-605.5"/>
<text text-anchor="middle" x="371" y="-611.5" font-family="Helvetica,sans-Serif" font-size="10.00">txstack.h</text>
</a>
</g>
</g>
<!-- Node35&#45;&gt;Node42 -->
<g id="edge62" class="edge">
<title>Node35&#45;&gt;Node42</title>
<path fill="none" stroke="midnightblue" d="M493.98,-660.45C469.71,-651.58 430.45,-637.23 402.83,-627.13"/>
<polygon fill="midnightblue" stroke="midnightblue" points="403.82,-623.77 393.23,-623.63 401.42,-630.35 403.82,-623.77"/>
</g>
<!-- Node44 -->
<g id="node44" class="node">
<title>Node44</title>
<g id="a_node44"><a xlink:href="../../d8/d3d/txstats_8h.html" target="_top" xlink:title=" ">
<polygon fill="none" stroke="black" points="561.38,-605.5 561.38,-623.5 614.62,-623.5 614.62,-605.5 561.38,-605.5"/>
<text text-anchor="middle" x="588" y="-611.5" font-family="Helvetica,sans-Serif" font-size="10.00">txstats.h</text>
</a>
</g>
</g>
<!-- Node35&#45;&gt;Node44 -->
<g id="edge66" class="edge">
<title>Node35&#45;&gt;Node44</title>
<path fill="none" stroke="midnightblue" d="M526.94,-660.45C538.04,-652.28 555.45,-639.46 568.85,-629.6"/>
<polygon fill="midnightblue" stroke="midnightblue" points="570.98,-632.37 576.96,-623.63 566.83,-626.73 570.98,-632.37"/>
</g>
<!-- Node36&#45;&gt;Node20 -->
<g id="edge49" class="edge">
<title>Node36&#45;&gt;Node20</title>
<path fill="none" stroke="midnightblue" d="M605.69,-440.22C600.87,-432.71 593.62,-421.41 587.62,-412.05"/>
<polygon fill="midnightblue" stroke="midnightblue" points="590.51,-410.08 582.16,-403.55 584.62,-413.86 590.51,-410.08"/>
</g>
<!-- Node37&#45;&gt;Node9 -->
<g id="edge51" class="edge">
<title>Node37&#45;&gt;Node9</title>
<path fill="none" stroke="midnightblue" d="M746.14,-275.18C730.28,-262.1 697.77,-236.53 667,-220 641.4,-206.24 610.61,-194.64 587.19,-186.73"/>
<polygon fill="midnightblue" stroke="midnightblue" points="588.23,-183.39 577.64,-183.58 586.03,-190.04 588.23,-183.39"/>
</g>
<!-- Node37&#45;&gt;Node13 -->
<g id="edge52" class="edge">
<title>Node37&#45;&gt;Node13</title>
<path fill="none" stroke="midnightblue" d="M728.98,-280.08C666.99,-272.16 515.16,-252.35 445.92,-238.9"/>
<polygon fill="midnightblue" stroke="midnightblue" points="446.43,-235.43 435.93,-236.88 445.04,-242.29 446.43,-235.43"/>
</g>
<!-- Node38&#45;&gt;Node16 -->
<g id="edge54" class="edge">
<title>Node38&#45;&gt;Node16</title>
<path fill="none" stroke="midnightblue" d="M453.74,-605.49C462.77,-597.38 475.6,-583.93 481,-569 486.99,-552.43 477,-534.07 467.33,-521.37"/>
<polygon fill="midnightblue" stroke="midnightblue" points="469.96,-519.05 460.89,-513.57 464.56,-523.51 469.96,-519.05"/>
</g>
<!-- Node40 -->
<g id="node40" class="node">
<title>Node40</title>
<g id="a_node40"><a xlink:href="../../d3/d01/txeqtb_8h.html" target="_top" xlink:title=" ">
<polygon fill="none" stroke="black" points="528.21,-550.5 528.21,-568.5 579.79,-568.5 579.79,-550.5 528.21,-550.5"/>
<text text-anchor="middle" x="554" y="-556.5" font-family="Helvetica,sans-Serif" font-size="10.00">txeqtb.h</text>
</a>
</g>
</g>
<!-- Node39&#45;&gt;Node40 -->
<g id="edge56" class="edge">
<title>Node39&#45;&gt;Node40</title>
<path fill="none" stroke="midnightblue" d="M521.94,-605.22C527.38,-597.63 535.59,-586.18 542.34,-576.76"/>
<polygon fill="midnightblue" stroke="midnightblue" points="545.25,-578.72 548.23,-568.55 539.56,-574.64 545.25,-578.72"/>
</g>
<!-- Node40&#45;&gt;Node16 -->
<g id="edge57" class="edge">
<title>Node40&#45;&gt;Node16</title>
<path fill="none" stroke="midnightblue" d="M538.66,-550.45C522.42,-541.93 496.55,-528.35 477.49,-518.35"/>
<polygon fill="midnightblue" stroke="midnightblue" points="478.97,-515.17 468.48,-513.63 475.71,-521.37 478.97,-515.17"/>
</g>
<!-- Node41&#45;&gt;Node12 -->
<g id="edge59" class="edge">
<title>Node41&#45;&gt;Node12</title>
<path fill="none" stroke="midnightblue" d="M699.33,-330.13C699.39,-316.52 697.39,-289.62 682,-275 669.2,-262.84 559.44,-244.01 504.73,-235.27"/>
<polygon fill="midnightblue" stroke="midnightblue" points="504.99,-231.76 494.57,-233.66 503.9,-238.68 504.99,-231.76"/>
</g>
<!-- Node41&#45;&gt;Node25 -->
<g id="edge60" class="edge">
<title>Node41&#45;&gt;Node25</title>
<path fill="none" stroke="midnightblue" d="M691.97,-330.22C685.39,-322.47 675.4,-310.7 667.31,-301.18"/>
<polygon fill="midnightblue" stroke="midnightblue" points="669.97,-298.91 660.83,-293.55 664.64,-303.44 669.97,-298.91"/>
</g>
<!-- Node42&#45;&gt;Node15 -->
<g id="edge63" class="edge">
<title>Node42&#45;&gt;Node15</title>
<path fill="none" stroke="midnightblue" d="M371.62,-605.22C372.16,-598.1 372.96,-587.58 373.64,-578.53"/>
<polygon fill="midnightblue" stroke="midnightblue" points="377.13,-578.78 374.39,-568.55 370.15,-578.26 377.13,-578.78"/>
</g>
<!-- Node43 -->
<g id="node43" class="node">
<title>Node43</title>
<g id="a_node43"><a xlink:href="../../d4/da4/txatt_8h.html" target="_top" xlink:title=" ">
<polygon fill="none" stroke="black" points="428.38,-550.5 428.38,-568.5 471.62,-568.5 471.62,-550.5 428.38,-550.5"/>
<text text-anchor="middle" x="450" y="-556.5" font-family="Helvetica,sans-Serif" font-size="10.00">txatt.h</text>
</a>
</g>
</g>
<!-- Node42&#45;&gt;Node43 -->
<g id="edge64" class="edge">
<title>Node42&#45;&gt;Node43</title>
<path fill="none" stroke="midnightblue" d="M383,-605.45C395.29,-597.2 414.65,-584.22 429.4,-574.32"/>
<polygon fill="midnightblue" stroke="midnightblue" points="431.53,-577.1 437.89,-568.63 427.63,-571.29 431.53,-577.1"/>
</g>
<!-- Node43&#45;&gt;Node16 -->
<g id="edge65" class="edge">
<title>Node43&#45;&gt;Node16</title>
<path fill="none" stroke="midnightblue" d="M450.47,-550.22C450.87,-543.18 451.45,-532.81 451.96,-523.83"/>
<polygon fill="midnightblue" stroke="midnightblue" points="455.47,-523.73 452.54,-513.55 448.48,-523.34 455.47,-523.73"/>
</g>
</g>
</svg>
