<?xml version="1.0" encoding="UTF-8" standalone="no"?>
<!DOCTYPE svg PUBLIC "-//W3C//DTD SVG 1.1//EN"
 "http://www.w3.org/Graphics/SVG/1.1/DTD/svg11.dtd">
<!-- Generated by graphviz version 2.42.3 (20191010.1750)
 -->
<!-- Title: txcommands.cpp Pages: 1 -->
<svg width="827pt" height="742pt"
 viewBox="0.00 0.00 826.62 742.00" xmlns="http://www.w3.org/2000/svg" xmlns:xlink="http://www.w3.org/1999/xlink">
<g id="graph0" class="graph" transform="scale(1 1) rotate(0) translate(4 738)">
<title>txcommands.cpp</title>
<!-- Node1 -->
<g id="node1" class="node">
<title>Node1</title>
<g id="a_node1"><a xlink:title=" ">
<polygon fill="#bfbfbf" stroke="black" points="126.21,-715.5 126.21,-733.5 217.79,-733.5 217.79,-715.5 126.21,-715.5"/>
<text text-anchor="middle" x="172" y="-721.5" font-family="Helvetica,sans-Serif" font-size="10.00">txcommands.cpp</text>
</a>
</g>
</g>
<!-- Node2 -->
<g id="node2" class="node">
<title>Node2</title>
<g id="a_node2"><a xlink:href="../../d5/d87/globals_8h.html" target="_top" xlink:title=" ">
<polygon fill="none" stroke="black" points="175.54,-440.5 175.54,-458.5 260.46,-458.5 260.46,-440.5 175.54,-440.5"/>
<text text-anchor="middle" x="218" y="-446.5" font-family="Helvetica,sans-Serif" font-size="10.00">tralics/globals.h</text>
</a>
</g>
</g>
<!-- Node1&#45;&gt;Node2 -->
<g id="edge1" class="edge">
<title>Node1&#45;&gt;Node2</title>
<path fill="none" stroke="midnightblue" d="M126.81,-715.42C75.85,-703.4 0,-675.44 0,-615.5 0,-615.5 0,-615.5 0,-558.5 0,-484.93 100.92,-461.48 165.43,-454"/>
<polygon fill="midnightblue" stroke="midnightblue" points="165.88,-457.47 175.45,-452.93 165.14,-450.51 165.88,-457.47"/>
</g>
<!-- Node14 -->
<g id="node14" class="node">
<title>Node14</title>
<g id="a_node14"><a xlink:href="../../d6/dcb/txbib_8h.html" target="_top" xlink:title=" ">
<polygon fill="none" stroke="black" points="149.27,-660.5 149.27,-678.5 194.73,-678.5 194.73,-660.5 149.27,-660.5"/>
<text text-anchor="middle" x="172" y="-666.5" font-family="Helvetica,sans-Serif" font-size="10.00">txbib.h</text>
</a>
</g>
</g>
<!-- Node1&#45;&gt;Node14 -->
<g id="edge14" class="edge">
<title>Node1&#45;&gt;Node14</title>
<path fill="none" stroke="midnightblue" d="M172,-715.22C172,-708.18 172,-697.81 172,-688.83"/>
<polygon fill="midnightblue" stroke="midnightblue" points="175.5,-688.55 172,-678.55 168.5,-688.55 175.5,-688.55"/>
</g>
<!-- Node15 -->
<g id="node15" class="node">
<title>Node15</title>
<g id="a_node15"><a xlink:href="../../d7/d79/txinline_8h.html" target="_top" xlink:title=" ">
<polygon fill="none" stroke="black" points="90.27,-605.5 90.27,-623.5 145.73,-623.5 145.73,-605.5 90.27,-605.5"/>
<text text-anchor="middle" x="118" y="-611.5" font-family="Helvetica,sans-Serif" font-size="10.00">txinline.h</text>
</a>
</g>
</g>
<!-- Node1&#45;&gt;Node15 -->
<g id="edge48" class="edge">
<title>Node1&#45;&gt;Node15</title>
<path fill="none" stroke="midnightblue" d="M165.1,-715.44C158.03,-706.87 147.1,-692.68 140,-679 132.44,-664.42 126.54,-646.68 122.76,-633.65"/>
<polygon fill="midnightblue" stroke="midnightblue" points="126.03,-632.34 120,-623.63 119.28,-634.2 126.03,-632.34"/>
</g>
<!-- Node34 -->
<g id="node34" class="node">
<title>Node34</title>
<g id="a_node34"><a xlink:href="../../dc/dd7/txclasses_8h.html" target="_top" xlink:title=" ">
<polygon fill="none" stroke="black" points="255.27,-660.5 255.27,-678.5 320.73,-678.5 320.73,-660.5 255.27,-660.5"/>
<text text-anchor="middle" x="288" y="-666.5" font-family="Helvetica,sans-Serif" font-size="10.00">txclasses.h</text>
</a>
</g>
</g>
<!-- Node1&#45;&gt;Node34 -->
<g id="edge46" class="edge">
<title>Node1&#45;&gt;Node34</title>
<path fill="none" stroke="midnightblue" d="M189.62,-715.45C208.61,-706.77 239.07,-692.86 261.07,-682.8"/>
<polygon fill="midnightblue" stroke="midnightblue" points="262.58,-685.96 270.22,-678.63 259.67,-679.6 262.58,-685.96"/>
</g>
<!-- Node35 -->
<g id="node35" class="node">
<title>Node35</title>
<g id="a_node35"><a xlink:href="../../d2/d1b/txparser_8h.html" target="_top" xlink:title=" ">
<polygon fill="none" stroke="black" points="486.04,-660.5 486.04,-678.5 545.96,-678.5 545.96,-660.5 486.04,-660.5"/>
<text text-anchor="middle" x="516" y="-666.5" font-family="Helvetica,sans-Serif" font-size="10.00">txparser.h</text>
</a>
</g>
</g>
<!-- Node1&#45;&gt;Node35 -->
<g id="edge49" class="edge">
<title>Node1&#45;&gt;Node35</title>
<path fill="none" stroke="midnightblue" d="M218.04,-716.41C285.85,-705.96 411.48,-686.6 475.79,-676.7"/>
<polygon fill="midnightblue" stroke="midnightblue" points="476.58,-680.11 485.94,-675.13 475.52,-673.2 476.58,-680.11"/>
</g>
<!-- Node3 -->
<g id="node3" class="node">
<title>Node3</title>
<g id="a_node3"><a xlink:href="../../d8/d47/codepoint_8h.html" target="_top" xlink:title=" ">
<polygon fill="none" stroke="black" points="367.15,-165.5 367.15,-183.5 434.85,-183.5 434.85,-165.5 367.15,-165.5"/>
<text text-anchor="middle" x="401" y="-171.5" font-family="Helvetica,sans-Serif" font-size="10.00">codepoint.h</text>
</a>
</g>
</g>
<!-- Node2&#45;&gt;Node3 -->
<g id="edge2" class="edge">
<title>Node2&#45;&gt;Node3</title>
<path fill="none" stroke="midnightblue" d="M215.59,-440.46C210.48,-422.63 199,-378.39 199,-340.5 199,-340.5 199,-340.5 199,-283.5 199,-253.33 200.46,-240.06 223,-220 259.81,-187.25 317.12,-177.83 356.72,-175.5"/>
<polygon fill="midnightblue" stroke="midnightblue" points="357.05,-178.99 366.88,-175.04 356.73,-172 357.05,-178.99"/>
</g>
<!-- Node9 -->
<g id="node9" class="node">
<title>Node9</title>
<g id="a_node9"><a xlink:href="../../d0/d0b/enums_8h.html" target="_top" xlink:title=" ">
<polygon fill="none" stroke="black" points="452.82,-165.5 452.82,-183.5 507.18,-183.5 507.18,-165.5 452.82,-165.5"/>
<text text-anchor="middle" x="480" y="-171.5" font-family="Helvetica,sans-Serif" font-size="10.00">enums.h</text>
</a>
</g>
</g>
<!-- Node2&#45;&gt;Node9 -->
<g id="edge8" class="edge">
<title>Node2&#45;&gt;Node9</title>
<path fill="none" stroke="midnightblue" d="M220.41,-440.46C225.52,-422.63 237,-378.39 237,-340.5 237,-340.5 237,-340.5 237,-283.5 237,-252.83 240.21,-239.36 264,-220 324.81,-170.52 361.36,-198.94 442.4,-184.12"/>
<polygon fill="midnightblue" stroke="midnightblue" points="443.39,-187.49 452.5,-182.09 442.01,-180.63 443.39,-187.49"/>
</g>
<!-- Node11 -->
<g id="node11" class="node">
<title>Node11</title>
<g id="a_node11"><a xlink:title=" ">
<polygon fill="none" stroke="#bfbfbf" points="272.61,-220.5 272.61,-238.5 311.39,-238.5 311.39,-220.5 272.61,-220.5"/>
<text text-anchor="middle" x="292" y="-226.5" font-family="Helvetica,sans-Serif" font-size="10.00">array</text>
</a>
</g>
</g>
<!-- Node2&#45;&gt;Node11 -->
<g id="edge11" class="edge">
<title>Node2&#45;&gt;Node11</title>
<path fill="none" stroke="midnightblue" d="M225.71,-440.31C233.24,-431.85 244.51,-417.96 251,-404 275.63,-351 286.23,-281.8 290.1,-249.13"/>
<polygon fill="midnightblue" stroke="midnightblue" points="293.62,-249.16 291.23,-238.84 286.66,-248.4 293.62,-249.16"/>
</g>
<!-- Node12 -->
<g id="node12" class="node">
<title>Node12</title>
<g id="a_node12"><a xlink:title=" ">
<polygon fill="none" stroke="#bfbfbf" points="390.77,-220.5 390.77,-238.5 431.23,-238.5 431.23,-220.5 390.77,-220.5"/>
<text text-anchor="middle" x="411" y="-226.5" font-family="Helvetica,sans-Serif" font-size="10.00">string</text>
</a>
</g>
</g>
<!-- Node2&#45;&gt;Node12 -->
<g id="edge12" class="edge">
<title>Node2&#45;&gt;Node12</title>
<path fill="none" stroke="midnightblue" d="M240.67,-440.45C275.3,-426.99 341.15,-396.6 377,-349 399.79,-318.74 407.32,-273.69 409.79,-248.76"/>
<polygon fill="midnightblue" stroke="midnightblue" points="413.3,-248.82 410.63,-238.56 406.33,-248.24 413.3,-248.82"/>
</g>
<!-- Node13 -->
<g id="node13" class="node">
<title>Node13</title>
<g id="a_node13"><a xlink:title=" ">
<polygon fill="none" stroke="#bfbfbf" points="559.38,-385.5 559.38,-403.5 602.62,-403.5 602.62,-385.5 559.38,-385.5"/>
<text text-anchor="middle" x="581" y="-391.5" font-family="Helvetica,sans-Serif" font-size="10.00">vector</text>
</a>
</g>
</g>
<!-- Node2&#45;&gt;Node13 -->
<g id="edge13" class="edge">
<title>Node2&#45;&gt;Node13</title>
<path fill="none" stroke="midnightblue" d="M260.56,-441.28C263.41,-440.84 266.25,-440.4 269,-440 390.83,-422.08 425.46,-428.92 549.28,-404.11"/>
<polygon fill="midnightblue" stroke="midnightblue" points="550.04,-407.52 559.14,-402.1 548.64,-400.66 550.04,-407.52"/>
</g>
<!-- Node4 -->
<g id="node4" class="node">
<title>Node4</title>
<g id="a_node4"><a xlink:href="../../d9/d49/types_8h.html" target="_top" xlink:title=" ">
<polygon fill="none" stroke="black" points="415.88,-55.5 415.88,-73.5 464.12,-73.5 464.12,-55.5 415.88,-55.5"/>
<text text-anchor="middle" x="440" y="-61.5" font-family="Helvetica,sans-Serif" font-size="10.00">types.h</text>
</a>
</g>
</g>
<!-- Node3&#45;&gt;Node4 -->
<g id="edge3" class="edge">
<title>Node3&#45;&gt;Node4</title>
<path fill="none" stroke="midnightblue" d="M403.93,-165.38C410.2,-148.03 425.03,-106.96 433.59,-83.24"/>
<polygon fill="midnightblue" stroke="midnightblue" points="436.93,-84.31 437.03,-73.71 430.35,-81.93 436.93,-84.31"/>
</g>
<!-- Node8 -->
<g id="node8" class="node">
<title>Node8</title>
<g id="a_node8"><a xlink:title=" ">
<polygon fill="none" stroke="#bfbfbf" points="631.49,-110.5 631.49,-128.5 682.51,-128.5 682.51,-110.5 631.49,-110.5"/>
<text text-anchor="middle" x="657" y="-116.5" font-family="Helvetica,sans-Serif" font-size="10.00">optional</text>
</a>
</g>
</g>
<!-- Node3&#45;&gt;Node8 -->
<g id="edge7" class="edge">
<title>Node3&#45;&gt;Node8</title>
<path fill="none" stroke="midnightblue" d="M434.99,-166.46C483.5,-156.42 572.15,-138.07 621.48,-127.85"/>
<polygon fill="midnightblue" stroke="midnightblue" points="622.3,-131.26 631.38,-125.8 620.88,-124.4 622.3,-131.26"/>
</g>
<!-- Node5 -->
<g id="node5" class="node">
<title>Node5</title>
<g id="a_node5"><a xlink:title=" ">
<polygon fill="none" stroke="#bfbfbf" points="349.88,-0.5 349.88,-18.5 398.12,-18.5 398.12,-0.5 349.88,-0.5"/>
<text text-anchor="middle" x="374" y="-6.5" font-family="Helvetica,sans-Serif" font-size="10.00">cassert</text>
</a>
</g>
</g>
<!-- Node4&#45;&gt;Node5 -->
<g id="edge4" class="edge">
<title>Node4&#45;&gt;Node5</title>
<path fill="none" stroke="midnightblue" d="M429.98,-55.45C419.99,-47.43 404.44,-34.95 392.26,-25.17"/>
<polygon fill="midnightblue" stroke="midnightblue" points="394.11,-22.16 384.12,-18.63 389.72,-27.62 394.11,-22.16"/>
</g>
<!-- Node6 -->
<g id="node6" class="node">
<title>Node6</title>
<g id="a_node6"><a xlink:title=" ">
<polygon fill="none" stroke="#bfbfbf" points="415.88,-0.5 415.88,-18.5 464.12,-18.5 464.12,-0.5 415.88,-0.5"/>
<text text-anchor="middle" x="440" y="-6.5" font-family="Helvetica,sans-Serif" font-size="10.00">cstddef</text>
</a>
</g>
</g>
<!-- Node4&#45;&gt;Node6 -->
<g id="edge5" class="edge">
<title>Node4&#45;&gt;Node6</title>
<path fill="none" stroke="midnightblue" d="M440,-55.22C440,-48.18 440,-37.81 440,-28.83"/>
<polygon fill="midnightblue" stroke="midnightblue" points="443.5,-28.55 440,-18.55 436.5,-28.55 443.5,-28.55"/>
</g>
<!-- Node7 -->
<g id="node7" class="node">
<title>Node7</title>
<g id="a_node7"><a xlink:title=" ">
<polygon fill="none" stroke="#bfbfbf" points="481.93,-0.5 481.93,-18.5 544.07,-18.5 544.07,-0.5 481.93,-0.5"/>
<text text-anchor="middle" x="513" y="-6.5" font-family="Helvetica,sans-Serif" font-size="10.00">type_traits</text>
</a>
</g>
</g>
<!-- Node4&#45;&gt;Node7 -->
<g id="edge6" class="edge">
<title>Node4&#45;&gt;Node7</title>
<path fill="none" stroke="midnightblue" d="M451.09,-55.45C462.34,-47.28 480,-34.46 493.58,-24.6"/>
<polygon fill="midnightblue" stroke="midnightblue" points="495.77,-27.33 501.81,-18.63 491.66,-21.67 495.77,-27.33"/>
</g>
<!-- Node10 -->
<g id="node10" class="node">
<title>Node10</title>
<g id="a_node10"><a xlink:href="../../d8/db5/consts_8h.html" target="_top" xlink:title=" ">
<polygon fill="none" stroke="black" points="447.38,-110.5 447.38,-128.5 500.62,-128.5 500.62,-110.5 447.38,-110.5"/>
<text text-anchor="middle" x="474" y="-116.5" font-family="Helvetica,sans-Serif" font-size="10.00">consts.h</text>
</a>
</g>
</g>
<!-- Node9&#45;&gt;Node10 -->
<g id="edge9" class="edge">
<title>Node9&#45;&gt;Node10</title>
<path fill="none" stroke="midnightblue" d="M479.06,-165.22C478.26,-158.1 477.07,-147.58 476.04,-138.53"/>
<polygon fill="midnightblue" stroke="midnightblue" points="479.51,-138.09 474.91,-128.55 472.56,-138.88 479.51,-138.09"/>
</g>
<!-- Node10&#45;&gt;Node4 -->
<g id="edge10" class="edge">
<title>Node10&#45;&gt;Node4</title>
<path fill="none" stroke="midnightblue" d="M468.69,-110.22C463.87,-102.71 456.62,-91.41 450.62,-82.05"/>
<polygon fill="midnightblue" stroke="midnightblue" points="453.51,-80.08 445.16,-73.55 447.62,-83.86 453.51,-80.08"/>
</g>
<!-- Node14&#45;&gt;Node15 -->
<g id="edge15" class="edge">
<title>Node14&#45;&gt;Node15</title>
<path fill="none" stroke="midnightblue" d="M163.56,-660.22C155.51,-652.32 143.19,-640.22 133.39,-630.61"/>
<polygon fill="midnightblue" stroke="midnightblue" points="135.79,-628.06 126.2,-623.55 130.89,-633.05 135.79,-628.06"/>
</g>
<!-- Node33 -->
<g id="node33" class="node">
<title>Node33</title>
<g id="a_node33"><a xlink:href="../../d1/d43/txxml_8h.html" target="_top" xlink:title=" ">
<polygon fill="none" stroke="black" points="454.17,-550.5 454.17,-568.5 501.83,-568.5 501.83,-550.5 454.17,-550.5"/>
<text text-anchor="middle" x="478" y="-556.5" font-family="Helvetica,sans-Serif" font-size="10.00">txxml.h</text>
</a>
</g>
</g>
<!-- Node14&#45;&gt;Node33 -->
<g id="edge43" class="edge">
<title>Node14&#45;&gt;Node33</title>
<path fill="none" stroke="midnightblue" d="M195,-660.38C248.85,-641.38 383.25,-593.94 445.46,-571.99"/>
<polygon fill="midnightblue" stroke="midnightblue" points="446.89,-575.19 455.15,-568.56 444.56,-568.59 446.89,-575.19"/>
</g>
<!-- Node16 -->
<g id="node16" class="node">
<title>Node16</title>
<g id="a_node16"><a xlink:href="../../d4/de9/_main_class_8h.html" target="_top" xlink:title=" ">
<polygon fill="none" stroke="black" points="222.04,-550.5 222.04,-568.5 321.96,-568.5 321.96,-550.5 222.04,-550.5"/>
<text text-anchor="middle" x="272" y="-556.5" font-family="Helvetica,sans-Serif" font-size="10.00">tralics/MainClass.h</text>
</a>
</g>
</g>
<!-- Node15&#45;&gt;Node16 -->
<g id="edge16" class="edge">
<title>Node15&#45;&gt;Node16</title>
<path fill="none" stroke="midnightblue" d="M141.39,-605.45C167.36,-596.51 209.47,-582.02 238.84,-571.91"/>
<polygon fill="midnightblue" stroke="midnightblue" points="240.33,-575.1 248.64,-568.54 238.05,-568.48 240.33,-575.1"/>
</g>
<!-- Node30 -->
<g id="node30" class="node">
<title>Node30</title>
<g id="a_node30"><a xlink:href="../../d2/d06/txlogger_8h.html" target="_top" xlink:title=" ">
<polygon fill="none" stroke="black" points="28.32,-550.5 28.32,-568.5 87.68,-568.5 87.68,-550.5 28.32,-550.5"/>
<text text-anchor="middle" x="58" y="-556.5" font-family="Helvetica,sans-Serif" font-size="10.00">txlogger.h</text>
</a>
</g>
</g>
<!-- Node15&#45;&gt;Node30 -->
<g id="edge38" class="edge">
<title>Node15&#45;&gt;Node30</title>
<path fill="none" stroke="midnightblue" d="M108.89,-605.45C99.9,-597.51 85.95,-585.19 74.93,-575.45"/>
<polygon fill="midnightblue" stroke="midnightblue" points="77.01,-572.62 67.2,-568.63 72.38,-577.87 77.01,-572.62"/>
</g>
<!-- Node32 -->
<g id="node32" class="node">
<title>Node32</title>
<g id="a_node32"><a xlink:href="../../d5/d08/txparam_8h.html" target="_top" xlink:title=" ">
<polygon fill="none" stroke="black" points="105.77,-550.5 105.77,-568.5 166.23,-568.5 166.23,-550.5 105.77,-550.5"/>
<text text-anchor="middle" x="136" y="-556.5" font-family="Helvetica,sans-Serif" font-size="10.00">txparam.h</text>
</a>
</g>
</g>
<!-- Node15&#45;&gt;Node32 -->
<g id="edge41" class="edge">
<title>Node15&#45;&gt;Node32</title>
<path fill="none" stroke="midnightblue" d="M120.81,-605.22C123.26,-598.02 126.88,-587.35 129.98,-578.23"/>
<polygon fill="midnightblue" stroke="midnightblue" points="133.36,-579.14 133.27,-568.55 126.74,-576.89 133.36,-579.14"/>
</g>
<!-- Node17 -->
<g id="node17" class="node">
<title>Node17</title>
<g id="a_node17"><a xlink:href="../../de/d29/txio_8h.html" target="_top" xlink:title=" ">
<polygon fill="none" stroke="black" points="247.88,-495.5 247.88,-513.5 296.12,-513.5 296.12,-495.5 247.88,-495.5"/>
<text text-anchor="middle" x="272" y="-501.5" font-family="Helvetica,sans-Serif" font-size="10.00">../txio.h</text>
</a>
</g>
</g>
<!-- Node16&#45;&gt;Node17 -->
<g id="edge17" class="edge">
<title>Node16&#45;&gt;Node17</title>
<path fill="none" stroke="midnightblue" d="M272,-550.22C272,-543.18 272,-532.81 272,-523.83"/>
<polygon fill="midnightblue" stroke="midnightblue" points="275.5,-523.55 272,-513.55 268.5,-523.55 275.5,-523.55"/>
</g>
<!-- Node29 -->
<g id="node29" class="node">
<title>Node29</title>
<g id="a_node29"><a xlink:href="../../dc/def/txstring_8h.html" target="_top" xlink:title=" ">
<polygon fill="none" stroke="black" points="476.55,-495.5 476.55,-513.5 541.45,-513.5 541.45,-495.5 476.55,-495.5"/>
<text text-anchor="middle" x="509" y="-501.5" font-family="Helvetica,sans-Serif" font-size="10.00">../txstring.h</text>
</a>
</g>
</g>
<!-- Node16&#45;&gt;Node29 -->
<g id="edge36" class="edge">
<title>Node16&#45;&gt;Node29</title>
<path fill="none" stroke="midnightblue" d="M308,-550.45C350.61,-540.92 421.49,-525.07 466.69,-514.96"/>
<polygon fill="midnightblue" stroke="midnightblue" points="467.49,-518.37 476.49,-512.77 465.96,-511.54 467.49,-518.37"/>
</g>
<!-- Node18 -->
<g id="node18" class="node">
<title>Node18</title>
<g id="a_node18"><a xlink:href="../../dd/d74/txbuffer_8h.html" target="_top" xlink:title=" ">
<polygon fill="none" stroke="black" points="411.52,-440.5 411.52,-458.5 468.48,-458.5 468.48,-440.5 411.52,-440.5"/>
<text text-anchor="middle" x="440" y="-446.5" font-family="Helvetica,sans-Serif" font-size="10.00">txbuffer.h</text>
</a>
</g>
</g>
<!-- Node17&#45;&gt;Node18 -->
<g id="edge18" class="edge">
<title>Node17&#45;&gt;Node18</title>
<path fill="none" stroke="midnightblue" d="M296.43,-495.79C324.96,-486.79 372.4,-471.83 404.88,-461.58"/>
<polygon fill="midnightblue" stroke="midnightblue" points="405.96,-464.91 414.44,-458.56 403.85,-458.23 405.96,-464.91"/>
</g>
<!-- Node28 -->
<g id="node28" class="node">
<title>Node28</title>
<g id="a_node28"><a xlink:title=" ">
<polygon fill="none" stroke="#bfbfbf" points="278.33,-440.5 278.33,-458.5 327.67,-458.5 327.67,-440.5 278.33,-440.5"/>
<text text-anchor="middle" x="303" y="-446.5" font-family="Helvetica,sans-Serif" font-size="10.00">fstream</text>
</a>
</g>
</g>
<!-- Node17&#45;&gt;Node28 -->
<g id="edge35" class="edge">
<title>Node17&#45;&gt;Node28</title>
<path fill="none" stroke="midnightblue" d="M276.84,-495.22C281.19,-487.79 287.71,-476.65 293.15,-467.34"/>
<polygon fill="midnightblue" stroke="midnightblue" points="296.26,-468.95 298.29,-458.55 290.22,-465.41 296.26,-468.95"/>
</g>
<!-- Node18&#45;&gt;Node13 -->
<g id="edge34" class="edge">
<title>Node18&#45;&gt;Node13</title>
<path fill="none" stroke="midnightblue" d="M461.41,-440.45C484.91,-431.62 522.86,-417.35 549.7,-407.27"/>
<polygon fill="midnightblue" stroke="midnightblue" points="551.25,-410.42 559.38,-403.63 548.79,-403.87 551.25,-410.42"/>
</g>
<!-- Node19 -->
<g id="node19" class="node">
<title>Node19</title>
<g id="a_node19"><a xlink:href="../../d1/d9e/txid_8h.html" target="_top" xlink:title=" ">
<polygon fill="none" stroke="black" points="328.05,-330.5 328.05,-348.5 367.95,-348.5 367.95,-330.5 328.05,-330.5"/>
<text text-anchor="middle" x="348" y="-336.5" font-family="Helvetica,sans-Serif" font-size="10.00">txid.h</text>
</a>
</g>
</g>
<!-- Node18&#45;&gt;Node19 -->
<g id="edge19" class="edge">
<title>Node18&#45;&gt;Node19</title>
<path fill="none" stroke="midnightblue" d="M433.09,-440.38C417.9,-422.56 381.41,-379.72 361.51,-356.36"/>
<polygon fill="midnightblue" stroke="midnightblue" points="364.14,-354.05 355,-348.71 358.82,-358.59 364.14,-354.05"/>
</g>
<!-- Node21 -->
<g id="node21" class="node">
<title>Node21</title>
<g id="a_node21"><a xlink:href="../../d9/d18/txscaled_8h.html" target="_top" xlink:title=" ">
<polygon fill="none" stroke="black" points="480.49,-385.5 480.49,-403.5 541.51,-403.5 541.51,-385.5 480.49,-385.5"/>
<text text-anchor="middle" x="511" y="-391.5" font-family="Helvetica,sans-Serif" font-size="10.00">txscaled.h</text>
</a>
</g>
</g>
<!-- Node18&#45;&gt;Node21 -->
<g id="edge24" class="edge">
<title>Node18&#45;&gt;Node21</title>
<path fill="none" stroke="midnightblue" d="M450.78,-440.45C461.63,-432.36 478.58,-419.7 491.73,-409.88"/>
<polygon fill="midnightblue" stroke="midnightblue" points="494.2,-412.41 500.12,-403.63 490.01,-406.8 494.2,-412.41"/>
</g>
<!-- Node27 -->
<g id="node27" class="node">
<title>Node27</title>
<g id="a_node27"><a xlink:title=" ">
<polygon fill="none" stroke="#bfbfbf" points="417.27,-385.5 417.27,-403.5 462.73,-403.5 462.73,-385.5 417.27,-385.5"/>
<text text-anchor="middle" x="440" y="-391.5" font-family="Helvetica,sans-Serif" font-size="10.00">cstring</text>
</a>
</g>
</g>
<!-- Node18&#45;&gt;Node27 -->
<g id="edge33" class="edge">
<title>Node18&#45;&gt;Node27</title>
<path fill="none" stroke="midnightblue" d="M440,-440.22C440,-433.18 440,-422.81 440,-413.83"/>
<polygon fill="midnightblue" stroke="midnightblue" points="443.5,-413.55 440,-403.55 436.5,-413.55 443.5,-413.55"/>
</g>
<!-- Node20 -->
<g id="node20" class="node">
<title>Node20</title>
<g id="a_node20"><a xlink:href="../../d5/daf/_istring_8h.html" target="_top" xlink:title=" ">
<polygon fill="none" stroke="black" points="302.77,-275.5 302.77,-293.5 383.23,-293.5 383.23,-275.5 302.77,-275.5"/>
<text text-anchor="middle" x="343" y="-281.5" font-family="Helvetica,sans-Serif" font-size="10.00">tralics/Istring.h</text>
</a>
</g>
</g>
<!-- Node19&#45;&gt;Node20 -->
<g id="edge20" class="edge">
<title>Node19&#45;&gt;Node20</title>
<path fill="none" stroke="midnightblue" d="M347.22,-330.22C346.55,-323.1 345.55,-312.58 344.7,-303.53"/>
<polygon fill="midnightblue" stroke="midnightblue" points="348.18,-303.18 343.76,-293.55 341.21,-303.83 348.18,-303.18"/>
</g>
<!-- Node20&#45;&gt;Node9 -->
<g id="edge21" class="edge">
<title>Node20&#45;&gt;Node9</title>
<path fill="none" stroke="midnightblue" d="M346.11,-275.42C351.55,-262.23 363.96,-235.92 382,-220 399.5,-204.56 423.25,-193.59 442.99,-186.41"/>
<polygon fill="midnightblue" stroke="midnightblue" points="444.29,-189.66 452.6,-183.09 442,-183.04 444.29,-189.66"/>
</g>
<!-- Node20&#45;&gt;Node11 -->
<g id="edge22" class="edge">
<title>Node20&#45;&gt;Node11</title>
<path fill="none" stroke="midnightblue" d="M335.03,-275.22C327.5,-267.39 316.02,-255.46 306.81,-245.89"/>
<polygon fill="midnightblue" stroke="midnightblue" points="309.2,-243.33 299.75,-238.55 304.16,-248.18 309.2,-243.33"/>
</g>
<!-- Node20&#45;&gt;Node12 -->
<g id="edge23" class="edge">
<title>Node20&#45;&gt;Node12</title>
<path fill="none" stroke="midnightblue" d="M353.33,-275.45C363.71,-267.36 379.95,-254.7 392.55,-244.88"/>
<polygon fill="midnightblue" stroke="midnightblue" points="394.84,-247.53 400.58,-238.63 390.54,-242.01 394.84,-247.53"/>
</g>
<!-- Node22 -->
<g id="node22" class="node">
<title>Node22</title>
<g id="a_node22"><a xlink:href="../../dc/d91/txtokenlist_8h.html" target="_top" xlink:title=" ">
<polygon fill="none" stroke="black" points="476.6,-330.5 476.6,-348.5 545.4,-348.5 545.4,-330.5 476.6,-330.5"/>
<text text-anchor="middle" x="511" y="-336.5" font-family="Helvetica,sans-Serif" font-size="10.00">txtokenlist.h</text>
</a>
</g>
</g>
<!-- Node21&#45;&gt;Node22 -->
<g id="edge25" class="edge">
<title>Node21&#45;&gt;Node22</title>
<path fill="none" stroke="midnightblue" d="M511,-385.22C511,-378.18 511,-367.81 511,-358.83"/>
<polygon fill="midnightblue" stroke="midnightblue" points="514.5,-358.55 511,-348.55 507.5,-358.55 514.5,-358.55"/>
</g>
<!-- Node22&#45;&gt;Node20 -->
<g id="edge26" class="edge">
<title>Node22&#45;&gt;Node20</title>
<path fill="none" stroke="midnightblue" d="M485.48,-330.45C456.91,-321.44 410.41,-306.77 378.34,-296.65"/>
<polygon fill="midnightblue" stroke="midnightblue" points="379.07,-293.21 368.48,-293.54 376.96,-299.88 379.07,-293.21"/>
</g>
<!-- Node23 -->
<g id="node23" class="node">
<title>Node23</title>
<g id="a_node23"><a xlink:href="../../dd/dcd/_token_8h.html" target="_top" xlink:title=" ">
<polygon fill="none" stroke="black" points="471.04,-275.5 471.04,-293.5 550.96,-293.5 550.96,-275.5 471.04,-275.5"/>
<text text-anchor="middle" x="511" y="-281.5" font-family="Helvetica,sans-Serif" font-size="10.00">tralics/Token.h</text>
</a>
</g>
</g>
<!-- Node22&#45;&gt;Node23 -->
<g id="edge27" class="edge">
<title>Node22&#45;&gt;Node23</title>
<path fill="none" stroke="midnightblue" d="M511,-330.22C511,-323.18 511,-312.81 511,-303.83"/>
<polygon fill="midnightblue" stroke="midnightblue" points="514.5,-303.55 511,-293.55 507.5,-303.55 514.5,-303.55"/>
</g>
<!-- Node26 -->
<g id="node26" class="node">
<title>Node26</title>
<g id="a_node26"><a xlink:title=" ">
<polygon fill="none" stroke="#bfbfbf" points="621.61,-275.5 621.61,-293.5 660.39,-293.5 660.39,-275.5 621.61,-275.5"/>
<text text-anchor="middle" x="641" y="-281.5" font-family="Helvetica,sans-Serif" font-size="10.00">utility</text>
</a>
</g>
</g>
<!-- Node22&#45;&gt;Node26 -->
<g id="edge32" class="edge">
<title>Node22&#45;&gt;Node26</title>
<path fill="none" stroke="midnightblue" d="M530.74,-330.45C552.34,-321.64 587.18,-307.44 611.91,-297.36"/>
<polygon fill="midnightblue" stroke="midnightblue" points="613.56,-300.47 621.5,-293.45 610.91,-293.99 613.56,-300.47"/>
</g>
<!-- Node24 -->
<g id="node24" class="node">
<title>Node24</title>
<g id="a_node24"><a xlink:href="../../d2/d68/_cmd_chr_8h.html" target="_top" xlink:title=" ">
<polygon fill="none" stroke="black" points="449.49,-220.5 449.49,-238.5 510.51,-238.5 510.51,-220.5 449.49,-220.5"/>
<text text-anchor="middle" x="480" y="-226.5" font-family="Helvetica,sans-Serif" font-size="10.00">CmdChr.h</text>
</a>
</g>
</g>
<!-- Node23&#45;&gt;Node24 -->
<g id="edge28" class="edge">
<title>Node23&#45;&gt;Node24</title>
<path fill="none" stroke="midnightblue" d="M506.16,-275.22C501.81,-267.79 495.29,-256.65 489.85,-247.34"/>
<polygon fill="midnightblue" stroke="midnightblue" points="492.78,-245.41 484.71,-238.55 486.74,-248.95 492.78,-245.41"/>
</g>
<!-- Node25 -->
<g id="node25" class="node">
<title>Node25</title>
<g id="a_node25"><a xlink:title=" ">
<polygon fill="none" stroke="#bfbfbf" points="528.5,-220.5 528.5,-238.5 557.5,-238.5 557.5,-220.5 528.5,-220.5"/>
<text text-anchor="middle" x="542.61" y="-226.5" font-family="Helvetica,sans-Serif" font-size="10.00">list</text>
</a>
</g>
</g>
<!-- Node23&#45;&gt;Node25 -->
<g id="edge31" class="edge">
<title>Node23&#45;&gt;Node25</title>
<path fill="none" stroke="midnightblue" d="M516,-275.22C520.49,-267.79 527.21,-256.65 532.83,-247.34"/>
<polygon fill="midnightblue" stroke="midnightblue" points="535.97,-248.92 538.14,-238.55 529.97,-245.3 535.97,-248.92"/>
</g>
<!-- Node24&#45;&gt;Node3 -->
<g id="edge29" class="edge">
<title>Node24&#45;&gt;Node3</title>
<path fill="none" stroke="midnightblue" d="M468,-220.45C455.71,-212.2 436.35,-199.22 421.6,-189.32"/>
<polygon fill="midnightblue" stroke="midnightblue" points="423.37,-186.29 413.11,-183.63 419.47,-192.1 423.37,-186.29"/>
</g>
<!-- Node24&#45;&gt;Node9 -->
<g id="edge30" class="edge">
<title>Node24&#45;&gt;Node9</title>
<path fill="none" stroke="midnightblue" d="M480,-220.22C480,-213.18 480,-202.81 480,-193.83"/>
<polygon fill="midnightblue" stroke="midnightblue" points="483.5,-193.55 480,-183.55 476.5,-193.55 483.5,-193.55"/>
</g>
<!-- Node29&#45;&gt;Node18 -->
<g id="edge37" class="edge">
<title>Node29&#45;&gt;Node18</title>
<path fill="none" stroke="midnightblue" d="M498.52,-495.45C487.98,-487.36 471.51,-474.7 458.72,-464.88"/>
<polygon fill="midnightblue" stroke="midnightblue" points="460.64,-461.94 450.58,-458.63 456.38,-467.49 460.64,-461.94"/>
</g>
<!-- Node30&#45;&gt;Node28 -->
<g id="edge39" class="edge">
<title>Node30&#45;&gt;Node28</title>
<path fill="none" stroke="midnightblue" d="M57.92,-550.06C58.27,-536.35 61.09,-509.32 77,-495 139.21,-439.03 181.07,-474.73 268.17,-458.9"/>
<polygon fill="midnightblue" stroke="midnightblue" points="269.04,-462.29 278.16,-456.89 267.66,-455.43 269.04,-462.29"/>
</g>
<!-- Node31 -->
<g id="node31" class="node">
<title>Node31</title>
<g id="a_node31"><a xlink:title=" ">
<polygon fill="none" stroke="#bfbfbf" points="85.83,-495.5 85.83,-513.5 140.17,-513.5 140.17,-495.5 85.83,-495.5"/>
<text text-anchor="middle" x="113" y="-501.5" font-family="Helvetica,sans-Serif" font-size="10.00">iostream</text>
</a>
</g>
</g>
<!-- Node30&#45;&gt;Node31 -->
<g id="edge40" class="edge">
<title>Node30&#45;&gt;Node31</title>
<path fill="none" stroke="midnightblue" d="M66.59,-550.22C74.79,-542.32 87.34,-530.22 97.32,-520.61"/>
<polygon fill="midnightblue" stroke="midnightblue" points="99.87,-523.01 104.65,-513.55 95.02,-517.97 99.87,-523.01"/>
</g>
<!-- Node32&#45;&gt;Node17 -->
<g id="edge42" class="edge">
<title>Node32&#45;&gt;Node17</title>
<path fill="none" stroke="midnightblue" d="M156.66,-550.45C179.32,-541.62 215.92,-527.35 241.81,-517.27"/>
<polygon fill="midnightblue" stroke="midnightblue" points="243.1,-520.52 251.15,-513.63 240.56,-514 243.1,-520.52"/>
</g>
<!-- Node33&#45;&gt;Node13 -->
<g id="edge45" class="edge">
<title>Node33&#45;&gt;Node13</title>
<path fill="none" stroke="midnightblue" d="M499.39,-550.47C515.62,-543.3 537.25,-531.25 550,-514 572.37,-483.74 578.63,-438.68 580.36,-413.75"/>
<polygon fill="midnightblue" stroke="midnightblue" points="583.86,-413.73 580.88,-403.56 576.87,-413.37 583.86,-413.73"/>
</g>
<!-- Node33&#45;&gt;Node29 -->
<g id="edge44" class="edge">
<title>Node33&#45;&gt;Node29</title>
<path fill="none" stroke="midnightblue" d="M482.84,-550.22C487.19,-542.79 493.71,-531.65 499.15,-522.34"/>
<polygon fill="midnightblue" stroke="midnightblue" points="502.26,-523.95 504.29,-513.55 496.22,-520.41 502.26,-523.95"/>
</g>
<!-- Node34&#45;&gt;Node18 -->
<g id="edge47" class="edge">
<title>Node34&#45;&gt;Node18</title>
<path fill="none" stroke="midnightblue" d="M291.45,-660.43C305.31,-628.06 356.84,-508.76 369,-495 380.93,-481.5 397.94,-470.64 412.32,-463.04"/>
<polygon fill="midnightblue" stroke="midnightblue" points="413.95,-466.13 421.31,-458.51 410.8,-459.88 413.95,-466.13"/>
</g>
<!-- Node35&#45;&gt;Node17 -->
<g id="edge64" class="edge">
<title>Node35&#45;&gt;Node17</title>
<path fill="none" stroke="midnightblue" d="M485.81,-669.16C422.65,-668.7 277.14,-657.57 213,-569 199.25,-550.02 224.07,-530.63 245.62,-518.35"/>
<polygon fill="midnightblue" stroke="midnightblue" points="247.39,-521.38 254.53,-513.55 244.07,-515.21 247.39,-521.38"/>
</g>
<!-- Node36 -->
<g id="node36" class="node">
<title>Node36</title>
<g id="a_node36"><a xlink:href="../../d8/dd6/_e_q_t_b_8h.html" target="_top" xlink:title=" ">
<polygon fill="none" stroke="black" points="377.77,-495.5 377.77,-513.5 458.23,-513.5 458.23,-495.5 377.77,-495.5"/>
<text text-anchor="middle" x="418" y="-501.5" font-family="Helvetica,sans-Serif" font-size="10.00">tralics/EQTB.h</text>
</a>
</g>
</g>
<!-- Node35&#45;&gt;Node36 -->
<g id="edge50" class="edge">
<title>Node35&#45;&gt;Node36</title>
<path fill="none" stroke="midnightblue" d="M485.99,-665.34C460.2,-660.85 424.5,-650.04 407,-624 386.42,-593.37 399.91,-547.81 409.94,-523.06"/>
<polygon fill="midnightblue" stroke="midnightblue" points="413.3,-524.12 414.05,-513.55 406.87,-521.34 413.3,-524.12"/>
</g>
<!-- Node37 -->
<g id="node37" class="node">
<title>Node37</title>
<g id="a_node37"><a xlink:href="../../d3/d6b/txcond_8h.html" target="_top" xlink:title=" ">
<polygon fill="none" stroke="black" points="727.1,-440.5 727.1,-458.5 780.9,-458.5 780.9,-440.5 727.1,-440.5"/>
<text text-anchor="middle" x="754" y="-446.5" font-family="Helvetica,sans-Serif" font-size="10.00">txcond.h</text>
</a>
</g>
</g>
<!-- Node35&#45;&gt;Node37 -->
<g id="edge52" class="edge">
<title>Node35&#45;&gt;Node37</title>
<path fill="none" stroke="midnightblue" d="M546.14,-665.57C595.33,-660.18 689.7,-647.07 713,-624 755.48,-581.93 757.2,-504.57 755.48,-469.12"/>
<polygon fill="midnightblue" stroke="midnightblue" points="758.95,-468.58 754.82,-458.82 751.97,-469.03 758.95,-468.58"/>
</g>
<!-- Node38 -->
<g id="node38" class="node">
<title>Node38</title>
<g id="a_node38"><a xlink:href="../../d7/d4d/txfonts_8h.html" target="_top" xlink:title=" ">
<polygon fill="none" stroke="black" points="416.1,-605.5 416.1,-623.5 469.9,-623.5 469.9,-605.5 416.1,-605.5"/>
<text text-anchor="middle" x="443" y="-611.5" font-family="Helvetica,sans-Serif" font-size="10.00">txfonts.h</text>
</a>
</g>
</g>
<!-- Node35&#45;&gt;Node38 -->
<g id="edge55" class="edge">
<title>Node35&#45;&gt;Node38</title>
<path fill="none" stroke="midnightblue" d="M504.91,-660.45C493.66,-652.28 476,-639.46 462.42,-629.6"/>
<polygon fill="midnightblue" stroke="midnightblue" points="464.34,-626.67 454.19,-623.63 460.23,-632.33 464.34,-626.67"/>
</g>
<!-- Node39 -->
<g id="node39" class="node">
<title>Node39</title>
<g id="a_node39"><a xlink:href="../../d7/d7e/txhash_8h.html" target="_top" xlink:title=" ">
<polygon fill="none" stroke="black" points="562.1,-605.5 562.1,-623.5 615.9,-623.5 615.9,-605.5 562.1,-605.5"/>
<text text-anchor="middle" x="589" y="-611.5" font-family="Helvetica,sans-Serif" font-size="10.00">txhash.h</text>
</a>
</g>
</g>
<!-- Node35&#45;&gt;Node39 -->
<g id="edge57" class="edge">
<title>Node35&#45;&gt;Node39</title>
<path fill="none" stroke="midnightblue" d="M527.09,-660.45C538.34,-652.28 556,-639.46 569.58,-629.6"/>
<polygon fill="midnightblue" stroke="midnightblue" points="571.77,-632.33 577.81,-623.63 567.66,-626.67 571.77,-632.33"/>
</g>
<!-- Node41 -->
<g id="node41" class="node">
<title>Node41</title>
<g id="a_node41"><a xlink:href="../../de/d7c/tximage_8h.html" target="_top" xlink:title=" ">
<polygon fill="none" stroke="black" points="669.32,-330.5 669.32,-348.5 728.68,-348.5 728.68,-330.5 669.32,-330.5"/>
<text text-anchor="middle" x="699" y="-336.5" font-family="Helvetica,sans-Serif" font-size="10.00">tximage.h</text>
</a>
</g>
</g>
<!-- Node35&#45;&gt;Node41 -->
<g id="edge61" class="edge">
<title>Node35&#45;&gt;Node41</title>
<path fill="none" stroke="midnightblue" d="M546.22,-664.64C598.2,-656.13 699,-630.59 699,-560.5 699,-560.5 699,-560.5 699,-448.5 699,-417.02 699,-380.37 699,-358.88"/>
<polygon fill="midnightblue" stroke="midnightblue" points="702.5,-358.63 699,-348.63 695.5,-358.63 702.5,-358.63"/>
</g>
<!-- Node42 -->
<g id="node42" class="node">
<title>Node42</title>
<g id="a_node42"><a xlink:href="../../dc/d65/txstack_8h.html" target="_top" xlink:title=" ">
<polygon fill="none" stroke="black" points="488.27,-605.5 488.27,-623.5 543.73,-623.5 543.73,-605.5 488.27,-605.5"/>
<text text-anchor="middle" x="516" y="-611.5" font-family="Helvetica,sans-Serif" font-size="10.00">txstack.h</text>
</a>
</g>
</g>
<!-- Node35&#45;&gt;Node42 -->
<g id="edge65" class="edge">
<title>Node35&#45;&gt;Node42</title>
<path fill="none" stroke="midnightblue" d="M516,-660.22C516,-653.18 516,-642.81 516,-633.83"/>
<polygon fill="midnightblue" stroke="midnightblue" points="519.5,-633.55 516,-623.55 512.5,-633.55 519.5,-633.55"/>
</g>
<!-- Node44 -->
<g id="node44" class="node">
<title>Node44</title>
<g id="a_node44"><a xlink:href="../../d8/d3d/txstats_8h.html" target="_top" xlink:title=" ">
<polygon fill="none" stroke="black" points="765.38,-605.5 765.38,-623.5 818.62,-623.5 818.62,-605.5 765.38,-605.5"/>
<text text-anchor="middle" x="792" y="-611.5" font-family="Helvetica,sans-Serif" font-size="10.00">txstats.h</text>
</a>
</g>
</g>
<!-- Node35&#45;&gt;Node44 -->
<g id="edge71" class="edge">
<title>Node35&#45;&gt;Node44</title>
<path fill="none" stroke="midnightblue" d="M546.08,-662.98C590.81,-654.72 677.48,-638.58 751,-624 752.28,-623.75 753.59,-623.48 754.91,-623.22"/>
<polygon fill="midnightblue" stroke="midnightblue" points="756.01,-626.57 765.11,-621.14 754.61,-619.71 756.01,-626.57"/>
</g>
<!-- Node36&#45;&gt;Node21 -->
<g id="edge51" class="edge">
<title>Node36&#45;&gt;Node21</title>
<path fill="none" stroke="midnightblue" d="M432.02,-495.39C444.92,-487.4 463.98,-474.2 477,-459 488.81,-445.21 498.16,-426.64 504.04,-413.14"/>
<polygon fill="midnightblue" stroke="midnightblue" points="507.4,-414.17 508,-403.6 500.93,-411.49 507.4,-414.17"/>
</g>
<!-- Node37&#45;&gt;Node9 -->
<g id="edge53" class="edge">
<title>Node37&#45;&gt;Node9</title>
<path fill="none" stroke="midnightblue" d="M754.38,-440.37C755.19,-422.38 757,-377.83 757,-340.5 757,-340.5 757,-340.5 757,-283.5 757,-232.66 592.99,-196.12 517.37,-181.97"/>
<polygon fill="midnightblue" stroke="midnightblue" points="517.79,-178.48 507.32,-180.12 516.52,-185.37 517.79,-178.48"/>
</g>
<!-- Node37&#45;&gt;Node13 -->
<g id="edge54" class="edge">
<title>Node37&#45;&gt;Node13</title>
<path fill="none" stroke="midnightblue" d="M727.73,-440.45C696.8,-430.98 645.49,-415.26 612.47,-405.14"/>
<polygon fill="midnightblue" stroke="midnightblue" points="613.44,-401.78 602.85,-402.2 611.39,-408.47 613.44,-401.78"/>
</g>
<!-- Node38&#45;&gt;Node29 -->
<g id="edge56" class="edge">
<title>Node38&#45;&gt;Node29</title>
<path fill="none" stroke="midnightblue" d="M441.09,-605.49C438.52,-592.84 435.32,-567.84 445,-550 452.53,-536.12 466.49,-525.65 479.46,-518.36"/>
<polygon fill="midnightblue" stroke="midnightblue" points="481.35,-521.33 488.62,-513.62 478.13,-515.11 481.35,-521.33"/>
</g>
<!-- Node39&#45;&gt;Node26 -->
<g id="edge60" class="edge">
<title>Node39&#45;&gt;Node26</title>
<path fill="none" stroke="midnightblue" d="M604.57,-605.48C617.27,-597.97 634.34,-585.44 642,-569 684.65,-477.51 658.32,-350.66 646.16,-303.82"/>
<polygon fill="midnightblue" stroke="midnightblue" points="649.48,-302.67 643.49,-293.93 642.72,-304.5 649.48,-302.67"/>
</g>
<!-- Node40 -->
<g id="node40" class="node">
<title>Node40</title>
<g id="a_node40"><a xlink:href="../../d3/d01/txeqtb_8h.html" target="_top" xlink:title=" ">
<polygon fill="none" stroke="black" points="520.21,-550.5 520.21,-568.5 571.79,-568.5 571.79,-550.5 520.21,-550.5"/>
<text text-anchor="middle" x="546" y="-556.5" font-family="Helvetica,sans-Serif" font-size="10.00">txeqtb.h</text>
</a>
</g>
</g>
<!-- Node39&#45;&gt;Node40 -->
<g id="edge58" class="edge">
<title>Node39&#45;&gt;Node40</title>
<path fill="none" stroke="midnightblue" d="M582.28,-605.22C576.06,-597.55 566.64,-585.94 558.96,-576.47"/>
<polygon fill="midnightblue" stroke="midnightblue" points="561.55,-574.11 552.53,-568.55 556.11,-578.52 561.55,-574.11"/>
</g>
<!-- Node40&#45;&gt;Node29 -->
<g id="edge59" class="edge">
<title>Node40&#45;&gt;Node29</title>
<path fill="none" stroke="midnightblue" d="M540.22,-550.22C534.92,-542.63 526.92,-531.18 520.35,-521.76"/>
<polygon fill="midnightblue" stroke="midnightblue" points="523.21,-519.75 514.62,-513.55 517.47,-523.75 523.21,-519.75"/>
</g>
<!-- Node41&#45;&gt;Node12 -->
<g id="edge62" class="edge">
<title>Node41&#45;&gt;Node12</title>
<path fill="none" stroke="midnightblue" d="M697.66,-330.35C694.93,-316.54 687.35,-288.74 669,-275 589.1,-215.18 543.44,-258.63 441.55,-238.97"/>
<polygon fill="midnightblue" stroke="midnightblue" points="442.01,-235.49 431.51,-236.87 440.58,-242.34 442.01,-235.49"/>
</g>
<!-- Node41&#45;&gt;Node26 -->
<g id="edge63" class="edge">
<title>Node41&#45;&gt;Node26</title>
<path fill="none" stroke="midnightblue" d="M689.94,-330.22C681.2,-322.24 667.79,-309.98 657.22,-300.32"/>
<polygon fill="midnightblue" stroke="midnightblue" points="659.55,-297.71 649.81,-293.55 654.83,-302.88 659.55,-297.71"/>
</g>
<!-- Node42&#45;&gt;Node33 -->
<g id="edge70" class="edge">
<title>Node42&#45;&gt;Node33</title>
<path fill="none" stroke="midnightblue" d="M510.06,-605.22C504.62,-597.63 496.41,-586.18 489.66,-576.76"/>
<polygon fill="midnightblue" stroke="midnightblue" points="492.44,-574.64 483.77,-568.55 486.75,-578.72 492.44,-574.64"/>
</g>
<!-- Node43 -->
<g id="node43" class="node">
<title>Node43</title>
<g id="a_node43"><a xlink:href="../../d4/da4/txatt_8h.html" target="_top" xlink:title=" ">
<polygon fill="none" stroke="black" points="589.38,-550.5 589.38,-568.5 632.62,-568.5 632.62,-550.5 589.38,-550.5"/>
<text text-anchor="middle" x="611" y="-556.5" font-family="Helvetica,sans-Serif" font-size="10.00">txatt.h</text>
</a>
</g>
</g>
<!-- Node42&#45;&gt;Node43 -->
<g id="edge66" class="edge">
<title>Node42&#45;&gt;Node43</title>
<path fill="none" stroke="midnightblue" d="M530.43,-605.45C545.49,-597.05 569.37,-583.72 587.23,-573.76"/>
<polygon fill="midnightblue" stroke="midnightblue" points="589.41,-576.55 596.44,-568.63 586,-570.44 589.41,-576.55"/>
</g>
<!-- Node43&#45;&gt;Node8 -->
<g id="edge68" class="edge">
<title>Node43&#45;&gt;Node8</title>
<path fill="none" stroke="midnightblue" d="M632.95,-556.75C684.5,-551.32 809,-529.99 809,-450.5 809,-450.5 809,-450.5 809,-228.5 809,-171.62 737.39,-141.94 692.48,-128.92"/>
<polygon fill="midnightblue" stroke="midnightblue" points="693.36,-125.53 682.78,-126.25 691.49,-132.28 693.36,-125.53"/>
</g>
<!-- Node43&#45;&gt;Node13 -->
<g id="edge69" class="edge">
<title>Node43&#45;&gt;Node13</title>
<path fill="none" stroke="midnightblue" d="M609.47,-550.19C604.84,-525.01 590.87,-449.11 584.38,-413.86"/>
<polygon fill="midnightblue" stroke="midnightblue" points="587.74,-412.8 582.49,-403.6 580.86,-414.07 587.74,-412.8"/>
</g>
<!-- Node43&#45;&gt;Node29 -->
<g id="edge67" class="edge">
<title>Node43&#45;&gt;Node29</title>
<path fill="none" stroke="midnightblue" d="M595.51,-550.45C579.11,-541.93 552.98,-528.35 533.73,-518.35"/>
<polygon fill="midnightblue" stroke="midnightblue" points="535.12,-515.13 524.64,-513.63 531.9,-521.34 535.12,-515.13"/>
</g>
</g>
</svg>
