<?xml version="1.0" encoding="UTF-8" standalone="no"?>
<!DOCTYPE svg PUBLIC "-//W3C//DTD SVG 1.1//EN"
 "http://www.w3.org/Graphics/SVG/1.1/DTD/svg11.dtd">
<!-- Generated by graphviz version 2.42.3 (20191010.1750)
 -->
<!-- Title: txcommands.cpp Pages: 1 -->
<svg width="854pt" height="742pt"
 viewBox="0.00 0.00 854.00 742.00" xmlns="http://www.w3.org/2000/svg" xmlns:xlink="http://www.w3.org/1999/xlink">
<g id="graph0" class="graph" transform="scale(1 1) rotate(0) translate(4 738)">
<title>txcommands.cpp</title>
<!-- Node1 -->
<g id="node1" class="node">
<title>Node1</title>
<g id="a_node1"><a xlink:title=" ">
<polygon fill="#bfbfbf" stroke="black" points="255.21,-715.5 255.21,-733.5 346.79,-733.5 346.79,-715.5 255.21,-715.5"/>
<text text-anchor="middle" x="301" y="-721.5" font-family="Helvetica,sans-Serif" font-size="10.00">txcommands.cpp</text>
</a>
</g>
</g>
<!-- Node2 -->
<g id="node2" class="node">
<title>Node2</title>
<g id="a_node2"><a xlink:href="../../d5/d87/globals_8h.html" target="_top" xlink:title=" ">
<polygon fill="none" stroke="black" points="163.54,-440.5 163.54,-458.5 248.46,-458.5 248.46,-440.5 163.54,-440.5"/>
<text text-anchor="middle" x="206" y="-446.5" font-family="Helvetica,sans-Serif" font-size="10.00">tralics/globals.h</text>
</a>
</g>
</g>
<!-- Node1&#45;&gt;Node2 -->
<g id="edge1" class="edge">
<title>Node1&#45;&gt;Node2</title>
<path fill="none" stroke="midnightblue" d="M254.96,-716.78C170.64,-703.17 0,-669.01 0,-615.5 0,-615.5 0,-615.5 0,-558.5 0,-489.41 92.02,-464.43 153.06,-455.46"/>
<polygon fill="midnightblue" stroke="midnightblue" points="153.88,-458.88 163.32,-454.06 152.93,-451.94 153.88,-458.88"/>
</g>
<!-- Node14 -->
<g id="node14" class="node">
<title>Node14</title>
<g id="a_node14"><a xlink:href="../../d6/dcb/txbib_8h.html" target="_top" xlink:title=" ">
<polygon fill="none" stroke="black" points="278.27,-660.5 278.27,-678.5 323.73,-678.5 323.73,-660.5 278.27,-660.5"/>
<text text-anchor="middle" x="301" y="-666.5" font-family="Helvetica,sans-Serif" font-size="10.00">txbib.h</text>
</a>
</g>
</g>
<!-- Node1&#45;&gt;Node14 -->
<g id="edge14" class="edge">
<title>Node1&#45;&gt;Node14</title>
<path fill="none" stroke="midnightblue" d="M301,-715.22C301,-708.18 301,-697.81 301,-688.83"/>
<polygon fill="midnightblue" stroke="midnightblue" points="304.5,-688.55 301,-678.55 297.5,-688.55 304.5,-688.55"/>
</g>
<!-- Node15 -->
<g id="node15" class="node">
<title>Node15</title>
<g id="a_node15"><a xlink:href="../../d7/d79/txinline_8h.html" target="_top" xlink:title=" ">
<polygon fill="none" stroke="black" points="190.27,-605.5 190.27,-623.5 245.73,-623.5 245.73,-605.5 190.27,-605.5"/>
<text text-anchor="middle" x="218" y="-611.5" font-family="Helvetica,sans-Serif" font-size="10.00">txinline.h</text>
</a>
</g>
</g>
<!-- Node1&#45;&gt;Node15 -->
<g id="edge50" class="edge">
<title>Node1&#45;&gt;Node15</title>
<path fill="none" stroke="midnightblue" d="M294.76,-715.38C281.12,-697.63 248.43,-655.1 230.42,-631.67"/>
<polygon fill="midnightblue" stroke="midnightblue" points="233.18,-629.51 224.31,-623.71 227.63,-633.77 233.18,-629.51"/>
</g>
<!-- Node34 -->
<g id="node34" class="node">
<title>Node34</title>
<g id="a_node34"><a xlink:href="../../dc/dd7/txclasses_8h.html" target="_top" xlink:title=" ">
<polygon fill="none" stroke="black" points="348.27,-660.5 348.27,-678.5 413.73,-678.5 413.73,-660.5 348.27,-660.5"/>
<text text-anchor="middle" x="381" y="-666.5" font-family="Helvetica,sans-Serif" font-size="10.00">txclasses.h</text>
</a>
</g>
</g>
<!-- Node1&#45;&gt;Node34 -->
<g id="edge48" class="edge">
<title>Node1&#45;&gt;Node34</title>
<path fill="none" stroke="midnightblue" d="M313.15,-715.45C325.6,-707.2 345.2,-694.22 360.14,-684.32"/>
<polygon fill="midnightblue" stroke="midnightblue" points="362.33,-687.07 368.74,-678.63 358.47,-681.23 362.33,-687.07"/>
</g>
<!-- Node35 -->
<g id="node35" class="node">
<title>Node35</title>
<g id="a_node35"><a xlink:href="../../d2/d1b/txparser_8h.html" target="_top" xlink:title=" ">
<polygon fill="none" stroke="black" points="451.04,-660.5 451.04,-678.5 510.96,-678.5 510.96,-660.5 451.04,-660.5"/>
<text text-anchor="middle" x="481" y="-666.5" font-family="Helvetica,sans-Serif" font-size="10.00">txparser.h</text>
</a>
</g>
</g>
<!-- Node1&#45;&gt;Node35 -->
<g id="edge51" class="edge">
<title>Node1&#45;&gt;Node35</title>
<path fill="none" stroke="midnightblue" d="M328.34,-715.45C359.22,-706.36 409.64,-691.51 444.02,-681.39"/>
<polygon fill="midnightblue" stroke="midnightblue" points="445.1,-684.72 453.7,-678.54 443.12,-678.01 445.1,-684.72"/>
</g>
<!-- Node3 -->
<g id="node3" class="node">
<title>Node3</title>
<g id="a_node3"><a xlink:href="../../d8/d47/codepoint_8h.html" target="_top" xlink:title=" ">
<polygon fill="none" stroke="black" points="659.15,-165.5 659.15,-183.5 726.85,-183.5 726.85,-165.5 659.15,-165.5"/>
<text text-anchor="middle" x="693" y="-171.5" font-family="Helvetica,sans-Serif" font-size="10.00">codepoint.h</text>
</a>
</g>
</g>
<!-- Node2&#45;&gt;Node3 -->
<g id="edge2" class="edge">
<title>Node2&#45;&gt;Node3</title>
<path fill="none" stroke="midnightblue" d="M206,-440.37C206,-422.38 206,-377.81 206,-340.5 206,-340.5 206,-340.5 206,-283.5 206,-247.3 225.15,-237.2 257,-220 330.07,-180.52 546.49,-193.47 629,-184 635.36,-183.27 642.06,-182.44 648.64,-181.6"/>
<polygon fill="midnightblue" stroke="midnightblue" points="649.36,-185.04 658.82,-180.27 648.45,-178.09 649.36,-185.04"/>
</g>
<!-- Node9 -->
<g id="node9" class="node">
<title>Node9</title>
<g id="a_node9"><a xlink:href="../../d0/d0b/enums_8h.html" target="_top" xlink:title=" ">
<polygon fill="none" stroke="black" points="565.82,-165.5 565.82,-183.5 620.18,-183.5 620.18,-165.5 565.82,-165.5"/>
<text text-anchor="middle" x="593" y="-171.5" font-family="Helvetica,sans-Serif" font-size="10.00">enums.h</text>
</a>
</g>
</g>
<!-- Node2&#45;&gt;Node9 -->
<g id="edge8" class="edge">
<title>Node2&#45;&gt;Node9</title>
<path fill="none" stroke="midnightblue" d="M201.03,-440.44C190.73,-422.94 168,-379.86 168,-340.5 168,-340.5 168,-340.5 168,-283.5 168,-253.33 168.17,-238.5 192,-220 248.1,-176.46 466.88,-173.98 555.46,-174.82"/>
<polygon fill="midnightblue" stroke="midnightblue" points="555.56,-178.33 565.6,-174.94 555.64,-171.33 555.56,-178.33"/>
</g>
<!-- Node11 -->
<g id="node11" class="node">
<title>Node11</title>
<g id="a_node11"><a xlink:title=" ">
<polygon fill="none" stroke="#bfbfbf" points="265.61,-220.5 265.61,-238.5 304.39,-238.5 304.39,-220.5 265.61,-220.5"/>
<text text-anchor="middle" x="285" y="-226.5" font-family="Helvetica,sans-Serif" font-size="10.00">array</text>
</a>
</g>
</g>
<!-- Node2&#45;&gt;Node11 -->
<g id="edge11" class="edge">
<title>Node2&#45;&gt;Node11</title>
<path fill="none" stroke="midnightblue" d="M208.67,-440.13C219.05,-407.67 256.4,-291.14 263,-275 266.8,-265.7 271.71,-255.64 275.92,-247.44"/>
<polygon fill="midnightblue" stroke="midnightblue" points="279.04,-249.02 280.59,-238.54 272.84,-245.77 279.04,-249.02"/>
</g>
<!-- Node12 -->
<g id="node12" class="node">
<title>Node12</title>
<g id="a_node12"><a xlink:title=" ">
<polygon fill="none" stroke="#bfbfbf" points="397.77,-220.5 397.77,-238.5 438.23,-238.5 438.23,-220.5 397.77,-220.5"/>
<text text-anchor="middle" x="418" y="-226.5" font-family="Helvetica,sans-Serif" font-size="10.00">string</text>
</a>
</g>
</g>
<!-- Node2&#45;&gt;Node12 -->
<g id="edge12" class="edge">
<title>Node2&#45;&gt;Node12</title>
<path fill="none" stroke="midnightblue" d="M214.57,-440.29C238.27,-417.49 306.6,-351.32 361,-294 376.06,-278.13 392.71,-259.45 404.1,-246.47"/>
<polygon fill="midnightblue" stroke="midnightblue" points="406.82,-248.68 410.77,-238.85 401.55,-244.08 406.82,-248.68"/>
</g>
<!-- Node13 -->
<g id="node13" class="node">
<title>Node13</title>
<g id="a_node13"><a xlink:title=" ">
<polygon fill="none" stroke="#bfbfbf" points="597.38,-385.5 597.38,-403.5 640.62,-403.5 640.62,-385.5 597.38,-385.5"/>
<text text-anchor="middle" x="619" y="-391.5" font-family="Helvetica,sans-Serif" font-size="10.00">vector</text>
</a>
</g>
</g>
<!-- Node2&#45;&gt;Node13 -->
<g id="edge13" class="edge">
<title>Node2&#45;&gt;Node13</title>
<path fill="none" stroke="midnightblue" d="M248.55,-441.22C251.41,-440.79 254.24,-440.38 257,-440 400.74,-420.25 441.49,-431.78 586.95,-404.12"/>
<polygon fill="midnightblue" stroke="midnightblue" points="587.99,-407.48 597.15,-402.15 586.67,-400.61 587.99,-407.48"/>
</g>
<!-- Node4 -->
<g id="node4" class="node">
<title>Node4</title>
<g id="a_node4"><a xlink:href="../../d9/d49/types_8h.html" target="_top" xlink:title=" ">
<polygon fill="none" stroke="black" points="620.88,-55.5 620.88,-73.5 669.12,-73.5 669.12,-55.5 620.88,-55.5"/>
<text text-anchor="middle" x="645" y="-61.5" font-family="Helvetica,sans-Serif" font-size="10.00">types.h</text>
</a>
</g>
</g>
<!-- Node3&#45;&gt;Node4 -->
<g id="edge3" class="edge">
<title>Node3&#45;&gt;Node4</title>
<path fill="none" stroke="midnightblue" d="M689.39,-165.38C681.64,-147.95 663.26,-106.59 652.74,-82.92"/>
<polygon fill="midnightblue" stroke="midnightblue" points="655.91,-81.43 648.65,-73.71 649.51,-84.27 655.91,-81.43"/>
</g>
<!-- Node8 -->
<g id="node8" class="node">
<title>Node8</title>
<g id="a_node8"><a xlink:title=" ">
<polygon fill="none" stroke="#bfbfbf" points="763.49,-110.5 763.49,-128.5 814.51,-128.5 814.51,-110.5 763.49,-110.5"/>
<text text-anchor="middle" x="789" y="-116.5" font-family="Helvetica,sans-Serif" font-size="10.00">optional</text>
</a>
</g>
</g>
<!-- Node3&#45;&gt;Node8 -->
<g id="edge7" class="edge">
<title>Node3&#45;&gt;Node8</title>
<path fill="none" stroke="midnightblue" d="M707.58,-165.45C722.95,-156.97 747.38,-143.48 765.48,-133.49"/>
<polygon fill="midnightblue" stroke="midnightblue" points="767.22,-136.52 774.28,-128.63 763.84,-130.39 767.22,-136.52"/>
</g>
<!-- Node5 -->
<g id="node5" class="node">
<title>Node5</title>
<g id="a_node5"><a xlink:title=" ">
<polygon fill="none" stroke="#bfbfbf" points="554.88,-0.5 554.88,-18.5 603.12,-18.5 603.12,-0.5 554.88,-0.5"/>
<text text-anchor="middle" x="579" y="-6.5" font-family="Helvetica,sans-Serif" font-size="10.00">cassert</text>
</a>
</g>
</g>
<!-- Node4&#45;&gt;Node5 -->
<g id="edge4" class="edge">
<title>Node4&#45;&gt;Node5</title>
<path fill="none" stroke="midnightblue" d="M634.98,-55.45C624.99,-47.43 609.44,-34.95 597.26,-25.17"/>
<polygon fill="midnightblue" stroke="midnightblue" points="599.11,-22.16 589.12,-18.63 594.72,-27.62 599.11,-22.16"/>
</g>
<!-- Node6 -->
<g id="node6" class="node">
<title>Node6</title>
<g id="a_node6"><a xlink:title=" ">
<polygon fill="none" stroke="#bfbfbf" points="620.88,-0.5 620.88,-18.5 669.12,-18.5 669.12,-0.5 620.88,-0.5"/>
<text text-anchor="middle" x="645" y="-6.5" font-family="Helvetica,sans-Serif" font-size="10.00">cstddef</text>
</a>
</g>
</g>
<!-- Node4&#45;&gt;Node6 -->
<g id="edge5" class="edge">
<title>Node4&#45;&gt;Node6</title>
<path fill="none" stroke="midnightblue" d="M645,-55.22C645,-48.18 645,-37.81 645,-28.83"/>
<polygon fill="midnightblue" stroke="midnightblue" points="648.5,-28.55 645,-18.55 641.5,-28.55 648.5,-28.55"/>
</g>
<!-- Node7 -->
<g id="node7" class="node">
<title>Node7</title>
<g id="a_node7"><a xlink:title=" ">
<polygon fill="none" stroke="#bfbfbf" points="686.93,-0.5 686.93,-18.5 749.07,-18.5 749.07,-0.5 686.93,-0.5"/>
<text text-anchor="middle" x="718" y="-6.5" font-family="Helvetica,sans-Serif" font-size="10.00">type_traits</text>
</a>
</g>
</g>
<!-- Node4&#45;&gt;Node7 -->
<g id="edge6" class="edge">
<title>Node4&#45;&gt;Node7</title>
<path fill="none" stroke="midnightblue" d="M656.09,-55.45C667.34,-47.28 685,-34.46 698.58,-24.6"/>
<polygon fill="midnightblue" stroke="midnightblue" points="700.77,-27.33 706.81,-18.63 696.66,-21.67 700.77,-27.33"/>
</g>
<!-- Node10 -->
<g id="node10" class="node">
<title>Node10</title>
<g id="a_node10"><a xlink:href="../../d8/db5/consts_8h.html" target="_top" xlink:title=" ">
<polygon fill="none" stroke="black" points="591.38,-110.5 591.38,-128.5 644.62,-128.5 644.62,-110.5 591.38,-110.5"/>
<text text-anchor="middle" x="618" y="-116.5" font-family="Helvetica,sans-Serif" font-size="10.00">consts.h</text>
</a>
</g>
</g>
<!-- Node9&#45;&gt;Node10 -->
<g id="edge9" class="edge">
<title>Node9&#45;&gt;Node10</title>
<path fill="none" stroke="midnightblue" d="M596.91,-165.22C600.38,-157.86 605.56,-146.88 609.92,-137.64"/>
<polygon fill="midnightblue" stroke="midnightblue" points="613.1,-139.09 614.2,-128.55 606.77,-136.1 613.1,-139.09"/>
</g>
<!-- Node10&#45;&gt;Node4 -->
<g id="edge10" class="edge">
<title>Node10&#45;&gt;Node4</title>
<path fill="none" stroke="midnightblue" d="M622.22,-110.22C625.97,-102.86 631.56,-91.88 636.27,-82.64"/>
<polygon fill="midnightblue" stroke="midnightblue" points="639.48,-84.05 640.9,-73.55 633.24,-80.87 639.48,-84.05"/>
</g>
<!-- Node14&#45;&gt;Node15 -->
<g id="edge15" class="edge">
<title>Node14&#45;&gt;Node15</title>
<path fill="none" stroke="midnightblue" d="M288.39,-660.45C275.35,-652.12 254.76,-638.97 239.2,-629.04"/>
<polygon fill="midnightblue" stroke="midnightblue" points="241.04,-626.06 230.72,-623.63 237.27,-631.96 241.04,-626.06"/>
</g>
<!-- Node33 -->
<g id="node33" class="node">
<title>Node33</title>
<g id="a_node33"><a xlink:href="../../d1/d43/txxml_8h.html" target="_top" xlink:title=" ">
<polygon fill="none" stroke="black" points="563.17,-550.5 563.17,-568.5 610.83,-568.5 610.83,-550.5 563.17,-550.5"/>
<text text-anchor="middle" x="587" y="-556.5" font-family="Helvetica,sans-Serif" font-size="10.00">txxml.h</text>
</a>
</g>
</g>
<!-- Node14&#45;&gt;Node33 -->
<g id="edge45" class="edge">
<title>Node14&#45;&gt;Node33</title>
<path fill="none" stroke="midnightblue" d="M317.6,-660.45C344.14,-647.75 397.94,-622.69 445,-605 481.56,-591.26 524.46,-578.23 553.46,-569.86"/>
<polygon fill="midnightblue" stroke="midnightblue" points="554.46,-573.22 563.11,-567.1 552.53,-566.49 554.46,-573.22"/>
</g>
<!-- Node16 -->
<g id="node16" class="node">
<title>Node16</title>
<g id="a_node16"><a xlink:href="../../d4/de9/_main_class_8h.html" target="_top" xlink:title=" ">
<polygon fill="none" stroke="black" points="184.04,-550.5 184.04,-568.5 283.96,-568.5 283.96,-550.5 184.04,-550.5"/>
<text text-anchor="middle" x="234" y="-556.5" font-family="Helvetica,sans-Serif" font-size="10.00">tralics/MainClass.h</text>
</a>
</g>
</g>
<!-- Node15&#45;&gt;Node16 -->
<g id="edge16" class="edge">
<title>Node15&#45;&gt;Node16</title>
<path fill="none" stroke="midnightblue" d="M220.5,-605.22C222.67,-598.02 225.9,-587.35 228.65,-578.23"/>
<polygon fill="midnightblue" stroke="midnightblue" points="232.03,-579.13 231.57,-568.55 225.33,-577.11 232.03,-579.13"/>
</g>
<!-- Node30 -->
<g id="node30" class="node">
<title>Node30</title>
<g id="a_node30"><a xlink:href="../../d2/d06/txlogger_8h.html" target="_top" xlink:title=" ">
<polygon fill="none" stroke="black" points="28.32,-550.5 28.32,-568.5 87.68,-568.5 87.68,-550.5 28.32,-550.5"/>
<text text-anchor="middle" x="58" y="-556.5" font-family="Helvetica,sans-Serif" font-size="10.00">txlogger.h</text>
</a>
</g>
</g>
<!-- Node15&#45;&gt;Node30 -->
<g id="edge40" class="edge">
<title>Node15&#45;&gt;Node30</title>
<path fill="none" stroke="midnightblue" d="M193.7,-605.45C166.6,-596.47 122.58,-581.89 92.06,-571.78"/>
<polygon fill="midnightblue" stroke="midnightblue" points="92.86,-568.36 82.27,-568.54 90.66,-575.01 92.86,-568.36"/>
</g>
<!-- Node32 -->
<g id="node32" class="node">
<title>Node32</title>
<g id="a_node32"><a xlink:href="../../d5/d08/txparam_8h.html" target="_top" xlink:title=" ">
<polygon fill="none" stroke="black" points="105.77,-550.5 105.77,-568.5 166.23,-568.5 166.23,-550.5 105.77,-550.5"/>
<text text-anchor="middle" x="136" y="-556.5" font-family="Helvetica,sans-Serif" font-size="10.00">txparam.h</text>
</a>
</g>
</g>
<!-- Node15&#45;&gt;Node32 -->
<g id="edge43" class="edge">
<title>Node15&#45;&gt;Node32</title>
<path fill="none" stroke="midnightblue" d="M205.55,-605.45C192.78,-597.2 172.69,-584.22 157.38,-574.32"/>
<polygon fill="midnightblue" stroke="midnightblue" points="158.87,-571.11 148.57,-568.63 155.07,-576.99 158.87,-571.11"/>
</g>
<!-- Node17 -->
<g id="node17" class="node">
<title>Node17</title>
<g id="a_node17"><a xlink:href="../../de/d29/txio_8h.html" target="_top" xlink:title=" ">
<polygon fill="none" stroke="black" points="266.88,-495.5 266.88,-513.5 315.12,-513.5 315.12,-495.5 266.88,-495.5"/>
<text text-anchor="middle" x="291" y="-501.5" font-family="Helvetica,sans-Serif" font-size="10.00">../txio.h</text>
</a>
</g>
</g>
<!-- Node16&#45;&gt;Node17 -->
<g id="edge17" class="edge">
<title>Node16&#45;&gt;Node17</title>
<path fill="none" stroke="midnightblue" d="M242.91,-550.22C251.41,-542.32 264.41,-530.22 274.75,-520.61"/>
<polygon fill="midnightblue" stroke="midnightblue" points="277.4,-522.92 282.34,-513.55 272.64,-517.8 277.4,-522.92"/>
</g>
<!-- Node29 -->
<g id="node29" class="node">
<title>Node29</title>
<g id="a_node29"><a xlink:href="../../dc/def/txstring_8h.html" target="_top" xlink:title=" ">
<polygon fill="none" stroke="black" points="453.55,-495.5 453.55,-513.5 518.45,-513.5 518.45,-495.5 453.55,-495.5"/>
<text text-anchor="middle" x="486" y="-501.5" font-family="Helvetica,sans-Serif" font-size="10.00">../txstring.h</text>
</a>
</g>
</g>
<!-- Node16&#45;&gt;Node29 -->
<g id="edge38" class="edge">
<title>Node16&#45;&gt;Node29</title>
<path fill="none" stroke="midnightblue" d="M272.27,-550.45C318.32,-540.77 395.41,-524.55 443.34,-514.47"/>
<polygon fill="midnightblue" stroke="midnightblue" points="444.33,-517.84 453.39,-512.36 442.89,-510.99 444.33,-517.84"/>
</g>
<!-- Node18 -->
<g id="node18" class="node">
<title>Node18</title>
<g id="a_node18"><a xlink:href="../../dd/d74/txbuffer_8h.html" target="_top" xlink:title=" ">
<polygon fill="none" stroke="black" points="433.52,-440.5 433.52,-458.5 490.48,-458.5 490.48,-440.5 433.52,-440.5"/>
<text text-anchor="middle" x="462" y="-446.5" font-family="Helvetica,sans-Serif" font-size="10.00">txbuffer.h</text>
</a>
</g>
</g>
<!-- Node17&#45;&gt;Node18 -->
<g id="edge18" class="edge">
<title>Node17&#45;&gt;Node18</title>
<path fill="none" stroke="midnightblue" d="M315.14,-496.02C344.09,-487.05 392.88,-471.92 426.22,-461.59"/>
<polygon fill="midnightblue" stroke="midnightblue" points="427.51,-464.85 436.03,-458.55 425.44,-458.17 427.51,-464.85"/>
</g>
<!-- Node28 -->
<g id="node28" class="node">
<title>Node28</title>
<g id="a_node28"><a xlink:title=" ">
<polygon fill="none" stroke="#bfbfbf" points="266.33,-440.5 266.33,-458.5 315.67,-458.5 315.67,-440.5 266.33,-440.5"/>
<text text-anchor="middle" x="291" y="-446.5" font-family="Helvetica,sans-Serif" font-size="10.00">fstream</text>
</a>
</g>
</g>
<!-- Node17&#45;&gt;Node28 -->
<g id="edge37" class="edge">
<title>Node17&#45;&gt;Node28</title>
<path fill="none" stroke="midnightblue" d="M291,-495.22C291,-488.18 291,-477.81 291,-468.83"/>
<polygon fill="midnightblue" stroke="midnightblue" points="294.5,-468.55 291,-458.55 287.5,-468.55 294.5,-468.55"/>
</g>
<!-- Node18&#45;&gt;Node13 -->
<g id="edge36" class="edge">
<title>Node18&#45;&gt;Node13</title>
<path fill="none" stroke="midnightblue" d="M485.84,-440.45C512.97,-431.29 557.39,-416.3 587.39,-406.17"/>
<polygon fill="midnightblue" stroke="midnightblue" points="588.61,-409.45 596.96,-402.94 586.37,-402.82 588.61,-409.45"/>
</g>
<!-- Node19 -->
<g id="node19" class="node">
<title>Node19</title>
<g id="a_node19"><a xlink:href="../../dd/dcd/_token_8h.html" target="_top" xlink:title=" ">
<polygon fill="none" stroke="black" points="621.04,-275.5 621.04,-293.5 700.96,-293.5 700.96,-275.5 621.04,-275.5"/>
<text text-anchor="middle" x="661" y="-281.5" font-family="Helvetica,sans-Serif" font-size="10.00">tralics/Token.h</text>
</a>
</g>
</g>
<!-- Node18&#45;&gt;Node19 -->
<g id="edge19" class="edge">
<title>Node18&#45;&gt;Node19</title>
<path fill="none" stroke="midnightblue" d="M466.56,-440.2C474.04,-427.16 490.02,-401.64 509,-385 533.83,-363.23 546.16,-366.77 574,-349 598.56,-333.32 625.46,-313.2 642.75,-299.86"/>
<polygon fill="midnightblue" stroke="midnightblue" points="645.1,-302.46 650.85,-293.55 640.81,-296.93 645.1,-302.46"/>
</g>
<!-- Node22 -->
<g id="node22" class="node">
<title>Node22</title>
<g id="a_node22"><a xlink:href="../../d1/d9e/txid_8h.html" target="_top" xlink:title=" ">
<polygon fill="none" stroke="black" points="361.05,-330.5 361.05,-348.5 400.95,-348.5 400.95,-330.5 361.05,-330.5"/>
<text text-anchor="middle" x="381" y="-336.5" font-family="Helvetica,sans-Serif" font-size="10.00">txid.h</text>
</a>
</g>
</g>
<!-- Node18&#45;&gt;Node22 -->
<g id="edge24" class="edge">
<title>Node18&#45;&gt;Node22</title>
<path fill="none" stroke="midnightblue" d="M448.61,-440.47C436.36,-432.54 418.44,-419.37 407,-404 396.78,-390.26 389.84,-371.93 385.72,-358.49"/>
<polygon fill="midnightblue" stroke="midnightblue" points="389,-357.24 382.91,-348.57 382.26,-359.15 389,-357.24"/>
</g>
<!-- Node24 -->
<g id="node24" class="node">
<title>Node24</title>
<g id="a_node24"><a xlink:href="../../d9/d18/txscaled_8h.html" target="_top" xlink:title=" ">
<polygon fill="none" stroke="black" points="518.49,-385.5 518.49,-403.5 579.51,-403.5 579.51,-385.5 518.49,-385.5"/>
<text text-anchor="middle" x="549" y="-391.5" font-family="Helvetica,sans-Serif" font-size="10.00">txscaled.h</text>
</a>
</g>
</g>
<!-- Node18&#45;&gt;Node24 -->
<g id="edge30" class="edge">
<title>Node18&#45;&gt;Node24</title>
<path fill="none" stroke="midnightblue" d="M475.21,-440.45C488.88,-432.12 510.47,-418.97 526.77,-409.04"/>
<polygon fill="midnightblue" stroke="midnightblue" points="528.94,-411.82 535.66,-403.63 525.3,-405.84 528.94,-411.82"/>
</g>
<!-- Node27 -->
<g id="node27" class="node">
<title>Node27</title>
<g id="a_node27"><a xlink:title=" ">
<polygon fill="none" stroke="#bfbfbf" points="416.27,-385.5 416.27,-403.5 461.73,-403.5 461.73,-385.5 416.27,-385.5"/>
<text text-anchor="middle" x="439" y="-391.5" font-family="Helvetica,sans-Serif" font-size="10.00">cstring</text>
</a>
</g>
</g>
<!-- Node18&#45;&gt;Node27 -->
<g id="edge35" class="edge">
<title>Node18&#45;&gt;Node27</title>
<path fill="none" stroke="midnightblue" d="M458.41,-440.22C455.25,-432.94 450.55,-422.11 446.57,-412.93"/>
<polygon fill="midnightblue" stroke="midnightblue" points="449.68,-411.33 442.49,-403.55 443.26,-414.12 449.68,-411.33"/>
</g>
<!-- Node20 -->
<g id="node20" class="node">
<title>Node20</title>
<g id="a_node20"><a xlink:href="../../d2/d68/_cmd_chr_8h.html" target="_top" xlink:title=" ">
<polygon fill="none" stroke="black" points="668.49,-220.5 668.49,-238.5 729.51,-238.5 729.51,-220.5 668.49,-220.5"/>
<text text-anchor="middle" x="699" y="-226.5" font-family="Helvetica,sans-Serif" font-size="10.00">CmdChr.h</text>
</a>
</g>
</g>
<!-- Node19&#45;&gt;Node20 -->
<g id="edge20" class="edge">
<title>Node19&#45;&gt;Node20</title>
<path fill="none" stroke="midnightblue" d="M666.94,-275.22C672.38,-267.63 680.59,-256.18 687.34,-246.76"/>
<polygon fill="midnightblue" stroke="midnightblue" points="690.25,-248.72 693.23,-238.55 684.56,-244.64 690.25,-248.72"/>
</g>
<!-- Node21 -->
<g id="node21" class="node">
<title>Node21</title>
<g id="a_node21"><a xlink:title=" ">
<polygon fill="none" stroke="#bfbfbf" points="621.5,-220.5 621.5,-238.5 650.5,-238.5 650.5,-220.5 621.5,-220.5"/>
<text text-anchor="middle" x="635.61" y="-226.5" font-family="Helvetica,sans-Serif" font-size="10.00">list</text>
</a>
</g>
</g>
<!-- Node19&#45;&gt;Node21 -->
<g id="edge23" class="edge">
<title>Node19&#45;&gt;Node21</title>
<path fill="none" stroke="midnightblue" d="M657.09,-275.22C653.62,-267.86 648.44,-256.88 644.08,-247.64"/>
<polygon fill="midnightblue" stroke="midnightblue" points="647.23,-246.1 639.8,-238.55 640.9,-249.09 647.23,-246.1"/>
</g>
<!-- Node20&#45;&gt;Node3 -->
<g id="edge21" class="edge">
<title>Node20&#45;&gt;Node3</title>
<path fill="none" stroke="midnightblue" d="M698.06,-220.22C697.26,-213.1 696.07,-202.58 695.04,-193.53"/>
<polygon fill="midnightblue" stroke="midnightblue" points="698.51,-193.09 693.91,-183.55 691.56,-193.88 698.51,-193.09"/>
</g>
<!-- Node20&#45;&gt;Node9 -->
<g id="edge22" class="edge">
<title>Node20&#45;&gt;Node9</title>
<path fill="none" stroke="midnightblue" d="M682.9,-220.45C665.78,-211.89 638.46,-198.23 618.42,-188.21"/>
<polygon fill="midnightblue" stroke="midnightblue" points="619.76,-184.97 609.25,-183.63 616.63,-191.23 619.76,-184.97"/>
</g>
<!-- Node22&#45;&gt;Node12 -->
<g id="edge29" class="edge">
<title>Node22&#45;&gt;Node12</title>
<path fill="none" stroke="midnightblue" d="M383.78,-330.38C389.73,-313.03 403.8,-271.96 411.92,-248.24"/>
<polygon fill="midnightblue" stroke="midnightblue" points="415.26,-249.31 415.19,-238.71 408.63,-247.04 415.26,-249.31"/>
</g>
<!-- Node23 -->
<g id="node23" class="node">
<title>Node23</title>
<g id="a_node23"><a xlink:href="../../d5/daf/_istring_8h.html" target="_top" xlink:title=" ">
<polygon fill="none" stroke="black" points="271.77,-275.5 271.77,-293.5 352.23,-293.5 352.23,-275.5 271.77,-275.5"/>
<text text-anchor="middle" x="312" y="-281.5" font-family="Helvetica,sans-Serif" font-size="10.00">tralics/Istring.h</text>
</a>
</g>
</g>
<!-- Node22&#45;&gt;Node23 -->
<g id="edge25" class="edge">
<title>Node22&#45;&gt;Node23</title>
<path fill="none" stroke="midnightblue" d="M370.52,-330.45C359.98,-322.36 343.51,-309.7 330.72,-299.88"/>
<polygon fill="midnightblue" stroke="midnightblue" points="332.64,-296.94 322.58,-293.63 328.38,-302.49 332.64,-296.94"/>
</g>
<!-- Node23&#45;&gt;Node9 -->
<g id="edge26" class="edge">
<title>Node23&#45;&gt;Node9</title>
<path fill="none" stroke="midnightblue" d="M319.21,-275.45C331.91,-261.81 359.7,-234.23 389,-220 443.26,-193.64 513.17,-182.75 555.46,-178.35"/>
<polygon fill="midnightblue" stroke="midnightblue" points="555.98,-181.82 565.59,-177.37 555.3,-174.85 555.98,-181.82"/>
</g>
<!-- Node23&#45;&gt;Node11 -->
<g id="edge27" class="edge">
<title>Node23&#45;&gt;Node11</title>
<path fill="none" stroke="midnightblue" d="M307.78,-275.22C304.03,-267.86 298.44,-256.88 293.73,-247.64"/>
<polygon fill="midnightblue" stroke="midnightblue" points="296.76,-245.87 289.1,-238.55 290.52,-249.05 296.76,-245.87"/>
</g>
<!-- Node23&#45;&gt;Node12 -->
<g id="edge28" class="edge">
<title>Node23&#45;&gt;Node12</title>
<path fill="none" stroke="midnightblue" d="M328.1,-275.45C345.22,-266.89 372.54,-253.23 392.58,-243.21"/>
<polygon fill="midnightblue" stroke="midnightblue" points="394.37,-246.23 401.75,-238.63 391.24,-239.97 394.37,-246.23"/>
</g>
<!-- Node25 -->
<g id="node25" class="node">
<title>Node25</title>
<g id="a_node25"><a xlink:href="../../dc/d91/txtokenlist_8h.html" target="_top" xlink:title=" ">
<polygon fill="none" stroke="black" points="496.6,-330.5 496.6,-348.5 565.4,-348.5 565.4,-330.5 496.6,-330.5"/>
<text text-anchor="middle" x="531" y="-336.5" font-family="Helvetica,sans-Serif" font-size="10.00">txtokenlist.h</text>
</a>
</g>
</g>
<!-- Node24&#45;&gt;Node25 -->
<g id="edge31" class="edge">
<title>Node24&#45;&gt;Node25</title>
<path fill="none" stroke="midnightblue" d="M546.19,-385.22C543.74,-378.02 540.12,-367.35 537.02,-358.23"/>
<polygon fill="midnightblue" stroke="midnightblue" points="540.26,-356.89 533.73,-348.55 533.64,-359.14 540.26,-356.89"/>
</g>
<!-- Node25&#45;&gt;Node19 -->
<g id="edge33" class="edge">
<title>Node25&#45;&gt;Node19</title>
<path fill="none" stroke="midnightblue" d="M550.74,-330.45C572.31,-321.66 607.09,-307.48 631.81,-297.4"/>
<polygon fill="midnightblue" stroke="midnightblue" points="633.13,-300.64 641.07,-293.63 630.49,-294.16 633.13,-300.64"/>
</g>
<!-- Node25&#45;&gt;Node23 -->
<g id="edge32" class="edge">
<title>Node25&#45;&gt;Node23</title>
<path fill="none" stroke="midnightblue" d="M497.74,-330.45C459.6,-321.22 396.97,-306.06 355.12,-295.93"/>
<polygon fill="midnightblue" stroke="midnightblue" points="355.76,-292.49 345.21,-293.54 354.11,-299.29 355.76,-292.49"/>
</g>
<!-- Node26 -->
<g id="node26" class="node">
<title>Node26</title>
<g id="a_node26"><a xlink:title=" ">
<polygon fill="none" stroke="#bfbfbf" points="497.61,-275.5 497.61,-293.5 536.39,-293.5 536.39,-275.5 497.61,-275.5"/>
<text text-anchor="middle" x="517" y="-281.5" font-family="Helvetica,sans-Serif" font-size="10.00">utility</text>
</a>
</g>
</g>
<!-- Node25&#45;&gt;Node26 -->
<g id="edge34" class="edge">
<title>Node25&#45;&gt;Node26</title>
<path fill="none" stroke="midnightblue" d="M528.81,-330.22C526.91,-323.02 524.09,-312.35 521.68,-303.23"/>
<polygon fill="midnightblue" stroke="midnightblue" points="525.06,-302.32 519.13,-293.55 518.3,-304.11 525.06,-302.32"/>
</g>
<!-- Node29&#45;&gt;Node18 -->
<g id="edge39" class="edge">
<title>Node29&#45;&gt;Node18</title>
<path fill="none" stroke="midnightblue" d="M482.25,-495.22C478.95,-487.94 474.05,-477.11 469.89,-467.93"/>
<polygon fill="midnightblue" stroke="midnightblue" points="472.96,-466.22 465.65,-458.55 466.58,-469.1 472.96,-466.22"/>
</g>
<!-- Node30&#45;&gt;Node28 -->
<g id="edge41" class="edge">
<title>Node30&#45;&gt;Node28</title>
<path fill="none" stroke="midnightblue" d="M57.94,-550.09C58.32,-536.4 61.18,-509.41 77,-495 134.96,-442.21 174.24,-474.16 255.97,-458.95"/>
<polygon fill="midnightblue" stroke="midnightblue" points="257.06,-462.3 266.15,-456.86 255.65,-455.45 257.06,-462.3"/>
</g>
<!-- Node31 -->
<g id="node31" class="node">
<title>Node31</title>
<g id="a_node31"><a xlink:title=" ">
<polygon fill="none" stroke="#bfbfbf" points="85.83,-495.5 85.83,-513.5 140.17,-513.5 140.17,-495.5 85.83,-495.5"/>
<text text-anchor="middle" x="113" y="-501.5" font-family="Helvetica,sans-Serif" font-size="10.00">iostream</text>
</a>
</g>
</g>
<!-- Node30&#45;&gt;Node31 -->
<g id="edge42" class="edge">
<title>Node30&#45;&gt;Node31</title>
<path fill="none" stroke="midnightblue" d="M66.59,-550.22C74.79,-542.32 87.34,-530.22 97.32,-520.61"/>
<polygon fill="midnightblue" stroke="midnightblue" points="99.87,-523.01 104.65,-513.55 95.02,-517.97 99.87,-523.01"/>
</g>
<!-- Node32&#45;&gt;Node17 -->
<g id="edge44" class="edge">
<title>Node32&#45;&gt;Node17</title>
<path fill="none" stroke="midnightblue" d="M159.54,-550.45C185.79,-541.47 228.44,-526.89 258.01,-516.78"/>
<polygon fill="midnightblue" stroke="midnightblue" points="259.16,-520.09 267.49,-513.54 256.9,-513.46 259.16,-520.09"/>
</g>
<!-- Node33&#45;&gt;Node13 -->
<g id="edge47" class="edge">
<title>Node33&#45;&gt;Node13</title>
<path fill="none" stroke="midnightblue" d="M587.51,-550.34C588.84,-530.97 593.04,-480.74 603,-440 605.22,-430.91 608.64,-421.08 611.75,-412.99"/>
<polygon fill="midnightblue" stroke="midnightblue" points="615.06,-414.13 615.52,-403.54 608.56,-411.53 615.06,-414.13"/>
</g>
<!-- Node33&#45;&gt;Node29 -->
<g id="edge46" class="edge">
<title>Node33&#45;&gt;Node29</title>
<path fill="none" stroke="midnightblue" d="M571.66,-550.45C555.42,-541.93 529.55,-528.35 510.49,-518.35"/>
<polygon fill="midnightblue" stroke="midnightblue" points="511.97,-515.17 501.48,-513.63 508.71,-521.37 511.97,-515.17"/>
</g>
<!-- Node34&#45;&gt;Node18 -->
<g id="edge49" class="edge">
<title>Node34&#45;&gt;Node18</title>
<path fill="none" stroke="midnightblue" d="M380.64,-660.27C379.85,-634.22 380.17,-551.88 412,-495 418.83,-482.8 430.28,-472.24 440.5,-464.47"/>
<polygon fill="midnightblue" stroke="midnightblue" points="442.58,-467.29 448.67,-458.63 438.5,-461.6 442.58,-467.29"/>
</g>
<!-- Node35&#45;&gt;Node17 -->
<g id="edge68" class="edge">
<title>Node35&#45;&gt;Node17</title>
<path fill="none" stroke="midnightblue" d="M450.72,-662.48C413.35,-654.51 352.67,-639.62 336,-624 307.18,-597 296.65,-549.63 292.93,-523.71"/>
<polygon fill="midnightblue" stroke="midnightblue" points="296.4,-523.24 291.69,-513.75 289.46,-524.1 296.4,-523.24"/>
</g>
<!-- Node36 -->
<g id="node36" class="node">
<title>Node36</title>
<g id="a_node36"><a xlink:href="../../d8/dd6/_e_q_t_b_8h.html" target="_top" xlink:title=" ">
<polygon fill="none" stroke="black" points="743.77,-605.5 743.77,-623.5 824.23,-623.5 824.23,-605.5 743.77,-605.5"/>
<text text-anchor="middle" x="784" y="-611.5" font-family="Helvetica,sans-Serif" font-size="10.00">tralics/EQTB.h</text>
</a>
</g>
</g>
<!-- Node35&#45;&gt;Node36 -->
<g id="edge52" class="edge">
<title>Node35&#45;&gt;Node36</title>
<path fill="none" stroke="midnightblue" d="M511.16,-663.22C563.13,-654.13 670.07,-635.43 733.53,-624.33"/>
<polygon fill="midnightblue" stroke="midnightblue" points="734.47,-627.72 743.71,-622.55 733.26,-620.82 734.47,-627.72"/>
</g>
<!-- Node37 -->
<g id="node37" class="node">
<title>Node37</title>
<g id="a_node37"><a xlink:href="../../d3/d6b/txcond_8h.html" target="_top" xlink:title=" ">
<polygon fill="none" stroke="black" points="612.1,-440.5 612.1,-458.5 665.9,-458.5 665.9,-440.5 612.1,-440.5"/>
<text text-anchor="middle" x="639" y="-446.5" font-family="Helvetica,sans-Serif" font-size="10.00">txcond.h</text>
</a>
</g>
</g>
<!-- Node35&#45;&gt;Node37 -->
<g id="edge57" class="edge">
<title>Node35&#45;&gt;Node37</title>
<path fill="none" stroke="midnightblue" d="M471.51,-660.44C462.72,-652.28 450.24,-638.8 445,-624 425.87,-569.95 409.28,-539.84 445,-495 464.2,-470.9 550.77,-458.78 601.55,-453.65"/>
<polygon fill="midnightblue" stroke="midnightblue" points="602.19,-457.1 611.81,-452.66 601.52,-450.14 602.19,-457.1"/>
</g>
<!-- Node38 -->
<g id="node38" class="node">
<title>Node38</title>
<g id="a_node38"><a xlink:href="../../d7/d4d/txfonts_8h.html" target="_top" xlink:title=" ">
<polygon fill="none" stroke="black" points="598.1,-605.5 598.1,-623.5 651.9,-623.5 651.9,-605.5 598.1,-605.5"/>
<text text-anchor="middle" x="625" y="-611.5" font-family="Helvetica,sans-Serif" font-size="10.00">txfonts.h</text>
</a>
</g>
</g>
<!-- Node35&#45;&gt;Node38 -->
<g id="edge60" class="edge">
<title>Node35&#45;&gt;Node38</title>
<path fill="none" stroke="midnightblue" d="M502.87,-660.45C526.98,-651.58 565.96,-637.23 593.39,-627.13"/>
<polygon fill="midnightblue" stroke="midnightblue" points="594.75,-630.36 602.92,-623.63 592.33,-623.79 594.75,-630.36"/>
</g>
<!-- Node39 -->
<g id="node39" class="node">
<title>Node39</title>
<g id="a_node39"><a xlink:href="../../d7/d7e/txhash_8h.html" target="_top" xlink:title=" ">
<polygon fill="none" stroke="black" points="454.1,-605.5 454.1,-623.5 507.9,-623.5 507.9,-605.5 454.1,-605.5"/>
<text text-anchor="middle" x="481" y="-611.5" font-family="Helvetica,sans-Serif" font-size="10.00">txhash.h</text>
</a>
</g>
</g>
<!-- Node35&#45;&gt;Node39 -->
<g id="edge62" class="edge">
<title>Node35&#45;&gt;Node39</title>
<path fill="none" stroke="midnightblue" d="M481,-660.22C481,-653.18 481,-642.81 481,-633.83"/>
<polygon fill="midnightblue" stroke="midnightblue" points="484.5,-633.55 481,-623.55 477.5,-633.55 484.5,-633.55"/>
</g>
<!-- Node41 -->
<g id="node41" class="node">
<title>Node41</title>
<g id="a_node41"><a xlink:href="../../de/d7c/tximage_8h.html" target="_top" xlink:title=" ">
<polygon fill="none" stroke="black" points="419.32,-330.5 419.32,-348.5 478.68,-348.5 478.68,-330.5 419.32,-330.5"/>
<text text-anchor="middle" x="449" y="-336.5" font-family="Helvetica,sans-Serif" font-size="10.00">tximage.h</text>
</a>
</g>
</g>
<!-- Node35&#45;&gt;Node41 -->
<g id="edge65" class="edge">
<title>Node35&#45;&gt;Node41</title>
<path fill="none" stroke="midnightblue" d="M455.43,-660.43C417.31,-646.63 350,-614.59 350,-560.5 350,-560.5 350,-560.5 350,-448.5 350,-404.89 394.4,-371.25 423.73,-353.79"/>
<polygon fill="midnightblue" stroke="midnightblue" points="425.7,-356.7 432.65,-348.7 422.23,-350.62 425.7,-356.7"/>
</g>
<!-- Node42 -->
<g id="node42" class="node">
<title>Node42</title>
<g id="a_node42"><a xlink:href="../../dc/d65/txstack_8h.html" target="_top" xlink:title=" ">
<polygon fill="none" stroke="black" points="670.27,-605.5 670.27,-623.5 725.73,-623.5 725.73,-605.5 670.27,-605.5"/>
<text text-anchor="middle" x="698" y="-611.5" font-family="Helvetica,sans-Serif" font-size="10.00">txstack.h</text>
</a>
</g>
</g>
<!-- Node35&#45;&gt;Node42 -->
<g id="edge69" class="edge">
<title>Node35&#45;&gt;Node42</title>
<path fill="none" stroke="midnightblue" d="M511.17,-661.13C550.12,-651.62 617.9,-635.06 660.22,-624.73"/>
<polygon fill="midnightblue" stroke="midnightblue" points="661.26,-628.08 670.14,-622.3 659.6,-621.28 661.26,-628.08"/>
</g>
<!-- Node44 -->
<g id="node44" class="node">
<title>Node44</title>
<g id="a_node44"><a xlink:href="../../d8/d3d/txstats_8h.html" target="_top" xlink:title=" ">
<polygon fill="none" stroke="black" points="526.38,-605.5 526.38,-623.5 579.62,-623.5 579.62,-605.5 526.38,-605.5"/>
<text text-anchor="middle" x="553" y="-611.5" font-family="Helvetica,sans-Serif" font-size="10.00">txstats.h</text>
</a>
</g>
</g>
<!-- Node35&#45;&gt;Node44 -->
<g id="edge75" class="edge">
<title>Node35&#45;&gt;Node44</title>
<path fill="none" stroke="midnightblue" d="M491.94,-660.45C503.04,-652.28 520.45,-639.46 533.85,-629.6"/>
<polygon fill="midnightblue" stroke="midnightblue" points="535.98,-632.37 541.96,-623.63 531.83,-626.73 535.98,-632.37"/>
</g>
<!-- Node36&#45;&gt;Node12 -->
<g id="edge56" class="edge">
<title>Node36&#45;&gt;Node12</title>
<path fill="none" stroke="midnightblue" d="M787.14,-605.24C793.64,-587.34 808,-543.53 808,-505.5 808,-505.5 808,-505.5 808,-338.5 808,-263.99 540.28,-238.81 448.47,-232.37"/>
<polygon fill="midnightblue" stroke="midnightblue" points="448.63,-228.87 438.42,-231.69 448.16,-235.85 448.63,-228.87"/>
</g>
<!-- Node36&#45;&gt;Node19 -->
<g id="edge55" class="edge">
<title>Node36&#45;&gt;Node19</title>
<path fill="none" stroke="midnightblue" d="M782.23,-605.42C778.46,-587.52 770,-543.12 770,-505.5 770,-505.5 770,-505.5 770,-393.5 770,-347.92 721.3,-315.02 689.01,-298.21"/>
<polygon fill="midnightblue" stroke="midnightblue" points="690.5,-295.05 679.99,-293.71 687.37,-301.31 690.5,-295.05"/>
</g>
<!-- Node36&#45;&gt;Node24 -->
<g id="edge53" class="edge">
<title>Node36&#45;&gt;Node24</title>
<path fill="none" stroke="midnightblue" d="M773.29,-605.34C744.47,-583.19 663.42,-519.53 603,-459 587.88,-443.85 572.21,-425.02 561.67,-411.81"/>
<polygon fill="midnightblue" stroke="midnightblue" points="564.2,-409.37 555.26,-403.68 558.7,-413.7 564.2,-409.37"/>
</g>
<!-- Node36&#45;&gt;Node33 -->
<g id="edge54" class="edge">
<title>Node36&#45;&gt;Node33</title>
<path fill="none" stroke="midnightblue" d="M754.08,-605.45C718.27,-595.82 658.44,-579.72 620.94,-569.63"/>
<polygon fill="midnightblue" stroke="midnightblue" points="621.56,-566.17 610.99,-566.95 619.74,-572.93 621.56,-566.17"/>
</g>
<!-- Node37&#45;&gt;Node9 -->
<g id="edge58" class="edge">
<title>Node37&#45;&gt;Node9</title>
<path fill="none" stroke="midnightblue" d="M642.38,-440.25C646.91,-428.12 653.96,-404.75 650,-385 641.39,-342.03 624,-336.15 612,-294 602.14,-259.37 596.94,-217.5 594.59,-193.94"/>
<polygon fill="midnightblue" stroke="midnightblue" points="598.05,-193.32 593.64,-183.69 591.08,-193.97 598.05,-193.32"/>
</g>
<!-- Node37&#45;&gt;Node13 -->
<g id="edge59" class="edge">
<title>Node37&#45;&gt;Node13</title>
<path fill="none" stroke="midnightblue" d="M635.88,-440.22C633.13,-432.94 629.04,-422.11 625.58,-412.93"/>
<polygon fill="midnightblue" stroke="midnightblue" points="628.84,-411.67 622.04,-403.55 622.29,-414.14 628.84,-411.67"/>
</g>
<!-- Node38&#45;&gt;Node29 -->
<g id="edge61" class="edge">
<title>Node38&#45;&gt;Node29</title>
<path fill="none" stroke="midnightblue" d="M610.32,-605.41C595.57,-597.02 572.45,-583.19 554,-569 534.7,-554.16 514.56,-534.78 501.25,-521.36"/>
<polygon fill="midnightblue" stroke="midnightblue" points="503.41,-518.56 493.92,-513.86 498.41,-523.45 503.41,-518.56"/>
</g>
<!-- Node40 -->
<g id="node40" class="node">
<title>Node40</title>
<g id="a_node40"><a xlink:href="../../d3/d01/txeqtb_8h.html" target="_top" xlink:title=" ">
<polygon fill="none" stroke="black" points="455.21,-550.5 455.21,-568.5 506.79,-568.5 506.79,-550.5 455.21,-550.5"/>
<text text-anchor="middle" x="481" y="-556.5" font-family="Helvetica,sans-Serif" font-size="10.00">txeqtb.h</text>
</a>
</g>
</g>
<!-- Node39&#45;&gt;Node40 -->
<g id="edge63" class="edge">
<title>Node39&#45;&gt;Node40</title>
<path fill="none" stroke="midnightblue" d="M481,-605.22C481,-598.18 481,-587.81 481,-578.83"/>
<polygon fill="midnightblue" stroke="midnightblue" points="484.5,-578.55 481,-568.55 477.5,-578.55 484.5,-578.55"/>
</g>
<!-- Node40&#45;&gt;Node29 -->
<g id="edge64" class="edge">
<title>Node40&#45;&gt;Node29</title>
<path fill="none" stroke="midnightblue" d="M481.78,-550.22C482.45,-543.1 483.45,-532.58 484.3,-523.53"/>
<polygon fill="midnightblue" stroke="midnightblue" points="487.79,-523.83 485.24,-513.55 480.82,-523.18 487.79,-523.83"/>
</g>
<!-- Node41&#45;&gt;Node12 -->
<g id="edge66" class="edge">
<title>Node41&#45;&gt;Node12</title>
<path fill="none" stroke="midnightblue" d="M446.91,-330.25C443.81,-318.1 437.74,-294.72 432,-275 429.42,-266.13 426.36,-256.34 423.76,-248.2"/>
<polygon fill="midnightblue" stroke="midnightblue" points="427.09,-247.11 420.69,-238.67 420.43,-249.26 427.09,-247.11"/>
</g>
<!-- Node41&#45;&gt;Node26 -->
<g id="edge67" class="edge">
<title>Node41&#45;&gt;Node26</title>
<path fill="none" stroke="midnightblue" d="M459.33,-330.45C469.71,-322.36 485.95,-309.7 498.55,-299.88"/>
<polygon fill="midnightblue" stroke="midnightblue" points="500.84,-302.53 506.58,-293.63 496.54,-297.01 500.84,-302.53"/>
</g>
<!-- Node42&#45;&gt;Node33 -->
<g id="edge74" class="edge">
<title>Node42&#45;&gt;Node33</title>
<path fill="none" stroke="midnightblue" d="M681.14,-605.45C663.05,-596.81 634.08,-582.98 613.05,-572.94"/>
<polygon fill="midnightblue" stroke="midnightblue" points="614.55,-569.78 604.02,-568.63 611.53,-576.09 614.55,-569.78"/>
</g>
<!-- Node43 -->
<g id="node43" class="node">
<title>Node43</title>
<g id="a_node43"><a xlink:href="../../d4/da4/txatt_8h.html" target="_top" xlink:title=" ">
<polygon fill="none" stroke="black" points="628.38,-550.5 628.38,-568.5 671.62,-568.5 671.62,-550.5 628.38,-550.5"/>
<text text-anchor="middle" x="650" y="-556.5" font-family="Helvetica,sans-Serif" font-size="10.00">txatt.h</text>
</a>
</g>
</g>
<!-- Node42&#45;&gt;Node43 -->
<g id="edge70" class="edge">
<title>Node42&#45;&gt;Node43</title>
<path fill="none" stroke="midnightblue" d="M690.5,-605.22C683.48,-597.47 672.82,-585.7 664.2,-576.18"/>
<polygon fill="midnightblue" stroke="midnightblue" points="666.6,-573.61 657.29,-568.55 661.41,-578.31 666.6,-573.61"/>
</g>
<!-- Node43&#45;&gt;Node8 -->
<g id="edge72" class="edge">
<title>Node43&#45;&gt;Node8</title>
<path fill="none" stroke="midnightblue" d="M661.97,-550.44C704.52,-520.73 846,-412.4 846,-285.5 846,-285.5 846,-285.5 846,-228.5 846,-192.3 820.65,-156.35 803.76,-136.42"/>
<polygon fill="midnightblue" stroke="midnightblue" points="806.17,-133.85 796.93,-128.67 800.92,-138.48 806.17,-133.85"/>
</g>
<!-- Node43&#45;&gt;Node13 -->
<g id="edge73" class="edge">
<title>Node43&#45;&gt;Node13</title>
<path fill="none" stroke="midnightblue" d="M655.16,-550.31C666.96,-530.43 693.55,-478.44 675,-440 668.65,-426.85 656.33,-416.39 644.85,-408.93"/>
<polygon fill="midnightblue" stroke="midnightblue" points="646.33,-405.74 635.96,-403.59 642.73,-411.74 646.33,-405.74"/>
</g>
<!-- Node43&#45;&gt;Node29 -->
<g id="edge71" class="edge">
<title>Node43&#45;&gt;Node29</title>
<path fill="none" stroke="midnightblue" d="M628.22,-551.46C600.66,-542.56 552.88,-527.11 520.38,-516.61"/>
<polygon fill="midnightblue" stroke="midnightblue" points="521.41,-513.27 510.82,-513.52 519.26,-519.93 521.41,-513.27"/>
</g>
</g>
</svg>
