<?xml version="1.0" encoding="UTF-8" standalone="no"?>
<!DOCTYPE svg PUBLIC "-//W3C//DTD SVG 1.1//EN"
 "http://www.w3.org/Graphics/SVG/1.1/DTD/svg11.dtd">
<!-- Generated by graphviz version 2.43.0 (0)
 -->
<!-- Title: txstring.h Pages: 1 -->
<svg width="2406pt" height="302pt"
 viewBox="0.00 0.00 2405.85 302.00" xmlns="http://www.w3.org/2000/svg" xmlns:xlink="http://www.w3.org/1999/xlink">
<g id="graph0" class="graph" transform="scale(1 1) rotate(0) translate(4 298)">
<title>txstring.h</title>
<polygon fill="white" stroke="transparent" points="-4,4 -4,-298 2401.85,-298 2401.85,4 -4,4"/>
<!-- Node1 -->
<g id="node1" class="node">
<title>Node1</title>
<g id="a_node1"><a xlink:title=" ">
<polygon fill="#bfbfbf" stroke="black" points="1215.12,-275.5 1215.12,-293.5 1271.69,-293.5 1271.69,-275.5 1215.12,-275.5"/>
<text text-anchor="middle" x="1243.4" y="-281.5" font-family="Helvetica,sans-Serif" font-size="10.00">txstring.h</text>
</a>
</g>
</g>
<!-- Node2 -->
<g id="node2" class="node">
<title>Node2</title>
<g id="a_node2"><a xlink:href="../../d7/d4d/txfonts_8h.html" target="_top" xlink:title=" ">
<polygon fill="white" stroke="black" points="1216.5,-220.5 1216.5,-238.5 1270.3,-238.5 1270.3,-220.5 1216.5,-220.5"/>
<text text-anchor="middle" x="1243.4" y="-226.5" font-family="Helvetica,sans-Serif" font-size="10.00">txfonts.h</text>
</a>
</g>
</g>
<!-- Node1&#45;&gt;Node2 -->
<g id="edge1" class="edge">
<title>Node1&#45;&gt;Node2</title>
<path fill="none" stroke="midnightblue" d="M1243.4,-265.17C1243.4,-256.09 1243.4,-245.59 1243.4,-238.55"/>
<polygon fill="midnightblue" stroke="midnightblue" points="1239.9,-265.22 1243.4,-275.22 1246.9,-265.22 1239.9,-265.22"/>
</g>
<!-- Node38 -->
<g id="node38" class="node">
<title>Node38</title>
<g id="a_node38"><a xlink:href="../../d3/d01/txeqtb_8h.html" target="_top" xlink:title=" ">
<polygon fill="white" stroke="black" points="1144.61,-220.5 1144.61,-238.5 1196.19,-238.5 1196.19,-220.5 1144.61,-220.5"/>
<text text-anchor="middle" x="1170.4" y="-226.5" font-family="Helvetica,sans-Serif" font-size="10.00">txeqtb.h</text>
</a>
</g>
</g>
<!-- Node1&#45;&gt;Node38 -->
<g id="edge37" class="edge">
<title>Node1&#45;&gt;Node38</title>
<path fill="none" stroke="midnightblue" d="M1224.11,-269.49C1210.55,-259.65 1192.89,-246.83 1181.59,-238.63"/>
<polygon fill="midnightblue" stroke="midnightblue" points="1222.17,-272.41 1232.31,-275.45 1226.28,-266.74 1222.17,-272.41"/>
</g>
<!-- Node42 -->
<g id="node42" class="node">
<title>Node42</title>
<g id="a_node42"><a xlink:href="../../d4/da4/txatt_8h.html" target="_top" xlink:title=" ">
<polygon fill="white" stroke="black" points="1292.78,-220.5 1292.78,-238.5 1336.02,-238.5 1336.02,-220.5 1292.78,-220.5"/>
<text text-anchor="middle" x="1314.4" y="-226.5" font-family="Helvetica,sans-Serif" font-size="10.00">txatt.h</text>
</a>
</g>
</g>
<!-- Node1&#45;&gt;Node42 -->
<g id="edge71" class="edge">
<title>Node1&#45;&gt;Node42</title>
<path fill="none" stroke="midnightblue" d="M1262.54,-269.21C1275.68,-259.41 1292.64,-246.75 1303.52,-238.63"/>
<polygon fill="midnightblue" stroke="midnightblue" points="1260.1,-266.66 1254.18,-275.45 1264.29,-272.27 1260.1,-266.66"/>
</g>
<!-- Node3 -->
<g id="node3" class="node">
<title>Node3</title>
<g id="a_node3"><a xlink:href="../../d2/d06/txlogger_8h.html" target="_top" xlink:title=" ">
<polygon fill="white" stroke="black" points="1213.72,-165.5 1213.72,-183.5 1273.09,-183.5 1273.09,-165.5 1213.72,-165.5"/>
<text text-anchor="middle" x="1243.4" y="-171.5" font-family="Helvetica,sans-Serif" font-size="10.00">txlogger.h</text>
</a>
</g>
</g>
<!-- Node2&#45;&gt;Node3 -->
<g id="edge2" class="edge">
<title>Node2&#45;&gt;Node3</title>
<path fill="none" stroke="midnightblue" d="M1243.4,-210.17C1243.4,-201.09 1243.4,-190.59 1243.4,-183.55"/>
<polygon fill="midnightblue" stroke="midnightblue" points="1239.9,-210.22 1243.4,-220.22 1246.9,-210.22 1239.9,-210.22"/>
</g>
<!-- Node4 -->
<g id="node4" class="node">
<title>Node4</title>
<g id="a_node4"><a xlink:href="../../d7/d79/txinline_8h.html" target="_top" xlink:title=" ">
<polygon fill="white" stroke="black" points="1215.67,-110.5 1215.67,-128.5 1271.13,-128.5 1271.13,-110.5 1215.67,-110.5"/>
<text text-anchor="middle" x="1243.4" y="-116.5" font-family="Helvetica,sans-Serif" font-size="10.00">txinline.h</text>
</a>
</g>
</g>
<!-- Node3&#45;&gt;Node4 -->
<g id="edge3" class="edge">
<title>Node3&#45;&gt;Node4</title>
<path fill="none" stroke="midnightblue" d="M1243.4,-155.17C1243.4,-146.09 1243.4,-135.59 1243.4,-128.55"/>
<polygon fill="midnightblue" stroke="midnightblue" points="1239.9,-155.22 1243.4,-165.22 1246.9,-155.22 1239.9,-155.22"/>
</g>
<!-- Node5 -->
<g id="node5" class="node">
<title>Node5</title>
<g id="a_node5"><a xlink:href="../../d4/dbc/_istring_8_c.html" target="_top" xlink:title=" ">
<polygon fill="white" stroke="black" points="2218.79,-55.5 2218.79,-73.5 2272.02,-73.5 2272.02,-55.5 2218.79,-55.5"/>
<text text-anchor="middle" x="2245.4" y="-61.5" font-family="Helvetica,sans-Serif" font-size="10.00">Istring.C</text>
</a>
</g>
</g>
<!-- Node4&#45;&gt;Node5 -->
<g id="edge4" class="edge">
<title>Node4&#45;&gt;Node5</title>
<path fill="none" stroke="midnightblue" d="M1281.46,-117.69C1437.06,-114.24 2025.33,-99.74 2209.4,-74 2212.45,-73.57 2215.63,-73.01 2218.77,-72.37"/>
<polygon fill="midnightblue" stroke="midnightblue" points="1281.35,-114.19 1271.43,-117.91 1281.5,-121.19 1281.35,-114.19"/>
</g>
<!-- Node6 -->
<g id="node6" class="node">
<title>Node6</title>
<g id="a_node6"><a xlink:href="../../dc/d29/tralics_8_c.html" target="_top" xlink:title=" ">
<polygon fill="white" stroke="black" points="956.34,-55.5 956.34,-73.5 1008.46,-73.5 1008.46,-55.5 956.34,-55.5"/>
<text text-anchor="middle" x="982.4" y="-61.5" font-family="Helvetica,sans-Serif" font-size="10.00">tralics.C</text>
</a>
</g>
</g>
<!-- Node4&#45;&gt;Node6 -->
<g id="edge5" class="edge">
<title>Node4&#45;&gt;Node6</title>
<path fill="none" stroke="midnightblue" d="M1205.4,-110.21C1205.06,-110.14 1204.73,-110.07 1204.4,-110 1121.49,-92.99 1100.1,-91.99 1017.4,-74 1014.59,-73.39 1011.66,-72.72 1008.74,-72.04"/>
<polygon fill="midnightblue" stroke="midnightblue" points="1204.79,-113.65 1215.3,-112.29 1206.23,-106.8 1204.79,-113.65"/>
</g>
<!-- Node7 -->
<g id="node7" class="node">
<title>Node7</title>
<g id="a_node7"><a xlink:href="../../d5/d10/txaccent_8_c.html" target="_top" xlink:title=" ">
<polygon fill="white" stroke="black" points="874.78,-55.5 874.78,-73.5 938.02,-73.5 938.02,-55.5 874.78,-55.5"/>
<text text-anchor="middle" x="906.4" y="-61.5" font-family="Helvetica,sans-Serif" font-size="10.00">txaccent.C</text>
</a>
</g>
</g>
<!-- Node4&#45;&gt;Node7 -->
<g id="edge6" class="edge">
<title>Node4&#45;&gt;Node7</title>
<path fill="none" stroke="midnightblue" d="M1205.4,-110.18C1205.07,-110.12 1204.73,-110.06 1204.4,-110 1090.86,-89.71 1061.04,-93.72 947.4,-74 944.39,-73.48 941.27,-72.9 938.15,-72.29"/>
<polygon fill="midnightblue" stroke="midnightblue" points="1204.85,-113.64 1215.33,-112.12 1206.19,-106.77 1204.85,-113.64"/>
</g>
<!-- Node8 -->
<g id="node8" class="node">
<title>Node8</title>
<g id="a_node8"><a xlink:href="../../df/de6/txarray_8_c.html" target="_top" xlink:title=" ">
<polygon fill="white" stroke="black" points="2144.49,-55.5 2144.49,-73.5 2200.31,-73.5 2200.31,-55.5 2144.49,-55.5"/>
<text text-anchor="middle" x="2172.4" y="-61.5" font-family="Helvetica,sans-Serif" font-size="10.00">txarray.C</text>
</a>
</g>
</g>
<!-- Node4&#45;&gt;Node8 -->
<g id="edge7" class="edge">
<title>Node4&#45;&gt;Node8</title>
<path fill="none" stroke="midnightblue" d="M1281.41,-118.98C1405.1,-120.05 1807.09,-119.54 2135.4,-74 2138.27,-73.6 2141.25,-73.09 2144.21,-72.51"/>
<polygon fill="midnightblue" stroke="midnightblue" points="1281.35,-115.48 1271.31,-118.89 1281.28,-122.48 1281.35,-115.48"/>
</g>
<!-- Node9 -->
<g id="node9" class="node">
<title>Node9</title>
<g id="a_node9"><a xlink:href="../../db/df0/txatt_8_c.html" target="_top" xlink:title=" ">
<polygon fill="white" stroke="black" points="2352.95,-55.5 2352.95,-73.5 2397.85,-73.5 2397.85,-55.5 2352.95,-55.5"/>
<text text-anchor="middle" x="2375.4" y="-61.5" font-family="Helvetica,sans-Serif" font-size="10.00">txatt.C</text>
</a>
</g>
</g>
<!-- Node4&#45;&gt;Node9 -->
<g id="edge8" class="edge">
<title>Node4&#45;&gt;Node9</title>
<path fill="none" stroke="midnightblue" d="M1281.46,-118.12C1450.33,-116.26 2132.96,-106.82 2344.4,-74 2347.16,-73.57 2350.02,-72.99 2352.84,-72.32"/>
<polygon fill="midnightblue" stroke="midnightblue" points="1281.27,-114.62 1271.31,-118.23 1281.35,-121.62 1281.27,-114.62"/>
</g>
<!-- Node10 -->
<g id="node10" class="node">
<title>Node10</title>
<g id="a_node10"><a xlink:href="../../dd/dce/txaux_8_c.html" target="_top" xlink:title=" ">
<polygon fill="white" stroke="black" points="1026.45,-55.5 1026.45,-73.5 1076.35,-73.5 1076.35,-55.5 1026.45,-55.5"/>
<text text-anchor="middle" x="1051.4" y="-61.5" font-family="Helvetica,sans-Serif" font-size="10.00">txaux.C</text>
</a>
</g>
</g>
<!-- Node4&#45;&gt;Node10 -->
<g id="edge9" class="edge">
<title>Node4&#45;&gt;Node10</title>
<path fill="none" stroke="midnightblue" d="M1205.75,-108.11C1167.57,-97.57 1109.55,-81.55 1076.6,-72.46"/>
<polygon fill="midnightblue" stroke="midnightblue" points="1204.91,-111.51 1215.48,-110.79 1206.77,-104.76 1204.91,-111.51"/>
</g>
<!-- Node11 -->
<g id="node11" class="node">
<title>Node11</title>
<g id="a_node11"><a xlink:href="../../d6/dcb/txbib_8h.html" target="_top" xlink:title=" ">
<polygon fill="white" stroke="black" points="2289.67,-55.5 2289.67,-73.5 2335.13,-73.5 2335.13,-55.5 2289.67,-55.5"/>
<text text-anchor="middle" x="2312.4" y="-61.5" font-family="Helvetica,sans-Serif" font-size="10.00">txbib.h</text>
</a>
</g>
</g>
<!-- Node4&#45;&gt;Node11 -->
<g id="edge10" class="edge">
<title>Node4&#45;&gt;Node11</title>
<path fill="none" stroke="midnightblue" d="M1281.64,-118.01C1444.76,-115.75 2083.05,-105.04 2281.4,-74 2284.05,-73.59 2286.79,-73.03 2289.5,-72.4"/>
<polygon fill="midnightblue" stroke="midnightblue" points="1281.55,-114.51 1271.59,-118.15 1281.64,-121.51 1281.55,-114.51"/>
</g>
<!-- Node13 -->
<g id="node13" class="node">
<title>Node13</title>
<g id="a_node13"><a xlink:href="../../d4/df2/txbuffer_8_c.html" target="_top" xlink:title=" ">
<polygon fill="white" stroke="black" points="1094.09,-55.5 1094.09,-73.5 1152.71,-73.5 1152.71,-55.5 1094.09,-55.5"/>
<text text-anchor="middle" x="1123.4" y="-61.5" font-family="Helvetica,sans-Serif" font-size="10.00">txbuffer.C</text>
</a>
</g>
</g>
<!-- Node4&#45;&gt;Node13 -->
<g id="edge12" class="edge">
<title>Node4&#45;&gt;Node13</title>
<path fill="none" stroke="midnightblue" d="M1215.74,-106.28C1193.03,-96.25 1161.51,-82.33 1141.8,-73.63"/>
<polygon fill="midnightblue" stroke="midnightblue" points="1214.61,-109.61 1225.18,-110.45 1217.44,-103.21 1214.61,-109.61"/>
</g>
<!-- Node14 -->
<g id="node14" class="node">
<title>Node14</title>
<g id="a_node14"><a xlink:href="../../de/ddd/txclasses_8_c.html" target="_top" xlink:title=" ">
<polygon fill="white" stroke="black" points="1170.84,-55.5 1170.84,-73.5 1237.96,-73.5 1237.96,-55.5 1170.84,-55.5"/>
<text text-anchor="middle" x="1204.4" y="-61.5" font-family="Helvetica,sans-Serif" font-size="10.00">txclasses.C</text>
</a>
</g>
</g>
<!-- Node4&#45;&gt;Node14 -->
<g id="edge13" class="edge">
<title>Node4&#45;&gt;Node14</title>
<path fill="none" stroke="midnightblue" d="M1231.22,-101.95C1224.26,-92.49 1215.85,-81.06 1210.32,-73.55"/>
<polygon fill="midnightblue" stroke="midnightblue" points="1228.56,-104.24 1237.31,-110.22 1234.2,-100.09 1228.56,-104.24"/>
</g>
<!-- Node15 -->
<g id="node15" class="node">
<title>Node15</title>
<g id="a_node15"><a xlink:href="../../d4/d1e/txcommands_8_c.html" target="_top" xlink:title=" ">
<polygon fill="white" stroke="black" points="1256.06,-55.5 1256.06,-73.5 1338.74,-73.5 1338.74,-55.5 1256.06,-55.5"/>
<text text-anchor="middle" x="1297.4" y="-61.5" font-family="Helvetica,sans-Serif" font-size="10.00">txcommands.C</text>
</a>
</g>
</g>
<!-- Node4&#45;&gt;Node15 -->
<g id="edge14" class="edge">
<title>Node4&#45;&gt;Node15</title>
<path fill="none" stroke="midnightblue" d="M1259.08,-103.11C1268.93,-93.44 1281.23,-81.37 1289.2,-73.55"/>
<polygon fill="midnightblue" stroke="midnightblue" points="1256.52,-100.72 1251.84,-110.22 1261.43,-105.71 1256.52,-100.72"/>
</g>
<!-- Node16 -->
<g id="node16" class="node">
<title>Node16</title>
<g id="a_node16"><a xlink:href="../../d9/d64/txconfig_8_c.html" target="_top" xlink:title=" ">
<polygon fill="white" stroke="black" points="1357.17,-55.5 1357.17,-73.5 1417.63,-73.5 1417.63,-55.5 1357.17,-55.5"/>
<text text-anchor="middle" x="1387.4" y="-61.5" font-family="Helvetica,sans-Serif" font-size="10.00">txconfig.C</text>
</a>
</g>
</g>
<!-- Node4&#45;&gt;Node16 -->
<g id="edge15" class="edge">
<title>Node4&#45;&gt;Node16</title>
<path fill="none" stroke="midnightblue" d="M1274.78,-106.95C1302.14,-96.88 1341.13,-82.53 1365.32,-73.63"/>
<polygon fill="midnightblue" stroke="midnightblue" points="1273.45,-103.71 1265.27,-110.45 1275.86,-110.28 1273.45,-103.71"/>
</g>
<!-- Node17 -->
<g id="node17" class="node">
<title>Node17</title>
<g id="a_node17"><a xlink:href="../../d1/d79/txerr_8_c.html" target="_top" xlink:title=" ">
<polygon fill="white" stroke="black" points="1435.67,-55.5 1435.67,-73.5 1481.13,-73.5 1481.13,-55.5 1435.67,-55.5"/>
<text text-anchor="middle" x="1458.4" y="-61.5" font-family="Helvetica,sans-Serif" font-size="10.00">txerr.C</text>
</a>
</g>
</g>
<!-- Node4&#45;&gt;Node17 -->
<g id="edge16" class="edge">
<title>Node4&#45;&gt;Node17</title>
<path fill="none" stroke="midnightblue" d="M1281.22,-109.55C1318.26,-100.72 1376.29,-86.75 1426.4,-74 1429.3,-73.26 1432.34,-72.47 1435.34,-71.69"/>
<polygon fill="midnightblue" stroke="midnightblue" points="1280.27,-106.18 1271.35,-111.9 1281.89,-112.99 1280.27,-106.18"/>
</g>
<!-- Node18 -->
<g id="node18" class="node">
<title>Node18</title>
<g id="a_node18"><a xlink:href="../../d7/d0d/txfonts_8_c.html" target="_top" xlink:title=" ">
<polygon fill="white" stroke="black" points="1498.67,-55.5 1498.67,-73.5 1554.13,-73.5 1554.13,-55.5 1498.67,-55.5"/>
<text text-anchor="middle" x="1526.4" y="-61.5" font-family="Helvetica,sans-Serif" font-size="10.00">txfonts.C</text>
</a>
</g>
</g>
<!-- Node4&#45;&gt;Node18 -->
<g id="edge17" class="edge">
<title>Node4&#45;&gt;Node18</title>
<path fill="none" stroke="midnightblue" d="M1281.34,-112.32C1329.93,-104.24 1416.68,-89.33 1490.4,-74 1493.04,-73.45 1495.78,-72.85 1498.53,-72.24"/>
<polygon fill="midnightblue" stroke="midnightblue" points="1280.57,-108.89 1271.28,-113.98 1281.71,-115.8 1280.57,-108.89"/>
</g>
<!-- Node19 -->
<g id="node19" class="node">
<title>Node19</title>
<g id="a_node19"><a xlink:href="../../d1/dcd/txfp_8_c.html" target="_top" xlink:title=" ">
<polygon fill="white" stroke="black" points="1572.34,-55.5 1572.34,-73.5 1614.46,-73.5 1614.46,-55.5 1572.34,-55.5"/>
<text text-anchor="middle" x="1593.4" y="-61.5" font-family="Helvetica,sans-Serif" font-size="10.00">txfp.C</text>
</a>
</g>
</g>
<!-- Node4&#45;&gt;Node19 -->
<g id="edge18" class="edge">
<title>Node4&#45;&gt;Node19</title>
<path fill="none" stroke="midnightblue" d="M1281.64,-114.91C1341.96,-108.85 1462.68,-95.17 1563.4,-74 1566.26,-73.4 1569.25,-72.67 1572.19,-71.9"/>
<polygon fill="midnightblue" stroke="midnightblue" points="1281.05,-111.45 1271.45,-115.91 1281.74,-118.41 1281.05,-111.45"/>
</g>
<!-- Node20 -->
<g id="node20" class="node">
<title>Node20</title>
<g id="a_node20"><a xlink:href="../../d8/dc2/txio_8_c.html" target="_top" xlink:title=" ">
<polygon fill="white" stroke="black" points="1632.62,-55.5 1632.62,-73.5 1674.18,-73.5 1674.18,-55.5 1632.62,-55.5"/>
<text text-anchor="middle" x="1653.4" y="-61.5" font-family="Helvetica,sans-Serif" font-size="10.00">txio.C</text>
</a>
</g>
</g>
<!-- Node4&#45;&gt;Node20 -->
<g id="edge19" class="edge">
<title>Node4&#45;&gt;Node20</title>
<path fill="none" stroke="midnightblue" d="M1281.64,-116.05C1350.5,-111.19 1499.72,-98.6 1623.4,-74 1626.37,-73.41 1629.48,-72.67 1632.52,-71.87"/>
<polygon fill="midnightblue" stroke="midnightblue" points="1281.03,-112.58 1271.29,-116.76 1281.51,-119.57 1281.03,-112.58"/>
</g>
<!-- Node21 -->
<g id="node21" class="node">
<title>Node21</title>
<g id="a_node21"><a xlink:href="../../dc/dcd/txl3_8_c.html" target="_top" xlink:title=" ">
<polygon fill="white" stroke="black" points="1692.62,-55.5 1692.62,-73.5 1734.18,-73.5 1734.18,-55.5 1692.62,-55.5"/>
<text text-anchor="middle" x="1713.4" y="-61.5" font-family="Helvetica,sans-Serif" font-size="10.00">txl3.C</text>
</a>
</g>
</g>
<!-- Node4&#45;&gt;Node21 -->
<g id="edge20" class="edge">
<title>Node4&#45;&gt;Node21</title>
<path fill="none" stroke="midnightblue" d="M1281.3,-116.91C1357.88,-113.19 1536.28,-102.06 1683.4,-74 1686.38,-73.43 1689.49,-72.71 1692.53,-71.92"/>
<polygon fill="midnightblue" stroke="midnightblue" points="1281.01,-113.42 1271.19,-117.38 1281.34,-120.41 1281.01,-113.42"/>
</g>
<!-- Node22 -->
<g id="node22" class="node">
<title>Node22</title>
<g id="a_node22"><a xlink:href="../../d4/da2/txmain_8_c.html" target="_top" xlink:title=" ">
<polygon fill="white" stroke="black" points="1752.67,-55.5 1752.67,-73.5 1808.13,-73.5 1808.13,-55.5 1752.67,-55.5"/>
<text text-anchor="middle" x="1780.4" y="-61.5" font-family="Helvetica,sans-Serif" font-size="10.00">txmain.C</text>
</a>
</g>
</g>
<!-- Node4&#45;&gt;Node22 -->
<g id="edge21" class="edge">
<title>Node4&#45;&gt;Node22</title>
<path fill="none" stroke="midnightblue" d="M1281.26,-116.9C1365.02,-112.99 1572.13,-101.16 1743.4,-74 1746.4,-73.53 1749.51,-72.95 1752.6,-72.32"/>
<polygon fill="midnightblue" stroke="midnightblue" points="1281.04,-113.41 1271.21,-117.36 1281.36,-120.4 1281.04,-113.41"/>
</g>
<!-- Node23 -->
<g id="node23" class="node">
<title>Node23</title>
<g id="a_node23"><a xlink:href="../../db/d96/txmath_8_c.html" target="_top" xlink:title=" ">
<polygon fill="white" stroke="black" points="1826.4,-55.5 1826.4,-73.5 1882.41,-73.5 1882.41,-55.5 1826.4,-55.5"/>
<text text-anchor="middle" x="1854.4" y="-61.5" font-family="Helvetica,sans-Serif" font-size="10.00">txmath.C</text>
</a>
</g>
</g>
<!-- Node4&#45;&gt;Node23 -->
<g id="edge22" class="edge">
<title>Node4&#45;&gt;Node23</title>
<path fill="none" stroke="midnightblue" d="M1281.61,-117.5C1374.08,-114.64 1617.1,-104.6 1817.4,-74 1820.27,-73.56 1823.24,-73.02 1826.2,-72.43"/>
<polygon fill="midnightblue" stroke="midnightblue" points="1281.24,-114.01 1271.34,-117.8 1281.44,-121 1281.24,-114.01"/>
</g>
<!-- Node24 -->
<g id="node24" class="node">
<title>Node24</title>
<g id="a_node24"><a xlink:href="../../d8/dc6/txmath1_8_c.html" target="_top" xlink:title=" ">
<polygon fill="white" stroke="black" points="1900.62,-55.5 1900.62,-73.5 1962.19,-73.5 1962.19,-55.5 1900.62,-55.5"/>
<text text-anchor="middle" x="1931.4" y="-61.5" font-family="Helvetica,sans-Serif" font-size="10.00">txmath1.C</text>
</a>
</g>
</g>
<!-- Node4&#45;&gt;Node24 -->
<g id="edge23" class="edge">
<title>Node4&#45;&gt;Node24</title>
<path fill="none" stroke="midnightblue" d="M1281.58,-117.75C1381.96,-115.38 1661.35,-106.18 1891.4,-74 1894.35,-73.59 1897.41,-73.08 1900.47,-72.52"/>
<polygon fill="midnightblue" stroke="midnightblue" points="1281.25,-114.26 1271.34,-117.99 1281.41,-121.26 1281.25,-114.26"/>
</g>
<!-- Node25 -->
<g id="node25" class="node">
<title>Node25</title>
<g id="a_node25"><a xlink:href="../../d7/dd3/txmathboot_8_c.html" target="_top" xlink:title=" ">
<polygon fill="white" stroke="black" points="1980.66,-55.5 1980.66,-73.5 2056.14,-73.5 2056.14,-55.5 1980.66,-55.5"/>
<text text-anchor="middle" x="2018.4" y="-61.5" font-family="Helvetica,sans-Serif" font-size="10.00">txmathboot.C</text>
</a>
</g>
</g>
<!-- Node4&#45;&gt;Node25 -->
<g id="edge24" class="edge">
<title>Node4&#45;&gt;Node25</title>
<path fill="none" stroke="midnightblue" d="M1281.38,-117.76C1389.58,-115.3 1708.61,-105.68 1971.4,-74 1974.36,-73.64 1977.42,-73.22 1980.49,-72.75"/>
<polygon fill="midnightblue" stroke="midnightblue" points="1281.2,-114.26 1271.28,-117.98 1281.35,-121.26 1281.2,-114.26"/>
</g>
<!-- Node26 -->
<g id="node26" class="node">
<title>Node26</title>
<g id="a_node26"><a xlink:href="../../dd/d48/txmlio_8_c.html" target="_top" xlink:title=" ">
<polygon fill="white" stroke="black" points="2074.34,-55.5 2074.34,-73.5 2126.46,-73.5 2126.46,-55.5 2074.34,-55.5"/>
<text text-anchor="middle" x="2100.4" y="-61.5" font-family="Helvetica,sans-Serif" font-size="10.00">txmlio.C</text>
</a>
</g>
</g>
<!-- Node4&#45;&gt;Node26 -->
<g id="edge25" class="edge">
<title>Node4&#45;&gt;Node26</title>
<path fill="none" stroke="midnightblue" d="M1281.53,-118.92C1399.04,-119.68 1765.81,-118.1 2065.4,-74 2068.25,-73.58 2071.2,-73.04 2074.13,-72.43"/>
<polygon fill="midnightblue" stroke="midnightblue" points="1281.29,-115.42 1271.26,-118.84 1281.23,-122.42 1281.29,-115.42"/>
</g>
<!-- Node27 -->
<g id="node27" class="node">
<title>Node27</title>
<g id="a_node27"><a xlink:href="../../d7/dc3/txparser_8_c.html" target="_top" xlink:title=" ">
<polygon fill="white" stroke="black" points="13.61,-55.5 13.61,-73.5 75.19,-73.5 75.19,-55.5 13.61,-55.5"/>
<text text-anchor="middle" x="44.4" y="-61.5" font-family="Helvetica,sans-Serif" font-size="10.00">txparser.C</text>
</a>
</g>
</g>
<!-- Node4&#45;&gt;Node27 -->
<g id="edge26" class="edge">
<title>Node4&#45;&gt;Node27</title>
<path fill="none" stroke="midnightblue" d="M1205.41,-110.13C1205.07,-110.08 1204.74,-110.04 1204.4,-110 710.15,-48.72 578.81,-134 84.4,-74 81.44,-73.64 78.38,-73.17 75.32,-72.64"/>
<polygon fill="midnightblue" stroke="midnightblue" points="1204.95,-113.6 1215.39,-111.75 1206.08,-106.69 1204.95,-113.6"/>
</g>
<!-- Node28 -->
<g id="node28" class="node">
<title>Node28</title>
<g id="a_node28"><a xlink:href="../../d5/d2e/txparser2_8_c.html" target="_top" xlink:title=" ">
<polygon fill="white" stroke="black" points="93.56,-55.5 93.56,-73.5 161.24,-73.5 161.24,-55.5 93.56,-55.5"/>
<text text-anchor="middle" x="127.4" y="-61.5" font-family="Helvetica,sans-Serif" font-size="10.00">txparser2.C</text>
</a>
</g>
</g>
<!-- Node4&#45;&gt;Node28 -->
<g id="edge27" class="edge">
<title>Node4&#45;&gt;Node28</title>
<path fill="none" stroke="midnightblue" d="M1205.41,-110.13C1205.07,-110.09 1204.74,-110.04 1204.4,-110 748.14,-52.81 627.2,-126.76 170.4,-74 167.53,-73.67 164.56,-73.25 161.59,-72.77"/>
<polygon fill="midnightblue" stroke="midnightblue" points="1204.95,-113.6 1215.39,-111.76 1206.08,-106.69 1204.95,-113.6"/>
</g>
<!-- Node29 -->
<g id="node29" class="node">
<title>Node29</title>
<g id="a_node29"><a xlink:href="../../d4/d5c/txparser3_8_c.html" target="_top" xlink:title=" ">
<polygon fill="white" stroke="black" points="179.56,-55.5 179.56,-73.5 247.24,-73.5 247.24,-55.5 179.56,-55.5"/>
<text text-anchor="middle" x="213.4" y="-61.5" font-family="Helvetica,sans-Serif" font-size="10.00">txparser3.C</text>
</a>
</g>
</g>
<!-- Node4&#45;&gt;Node29 -->
<g id="edge28" class="edge">
<title>Node4&#45;&gt;Node29</title>
<path fill="none" stroke="midnightblue" d="M1205.41,-110.13C1205.07,-110.09 1204.74,-110.04 1204.4,-110 786.12,-56.9 675.18,-123.03 256.4,-74 253.53,-73.66 250.56,-73.24 247.59,-72.76"/>
<polygon fill="midnightblue" stroke="midnightblue" points="1204.95,-113.6 1215.38,-111.77 1206.09,-106.7 1204.95,-113.6"/>
</g>
<!-- Node30 -->
<g id="node30" class="node">
<title>Node30</title>
<g id="a_node30"><a xlink:href="../../db/d66/txpost_8_c.html" target="_top" xlink:title=" ">
<polygon fill="white" stroke="black" points="265.06,-55.5 265.06,-73.5 317.74,-73.5 317.74,-55.5 265.06,-55.5"/>
<text text-anchor="middle" x="291.4" y="-61.5" font-family="Helvetica,sans-Serif" font-size="10.00">txpost.C</text>
</a>
</g>
</g>
<!-- Node4&#45;&gt;Node30 -->
<g id="edge29" class="edge">
<title>Node4&#45;&gt;Node30</title>
<path fill="none" stroke="midnightblue" d="M1205.41,-110.13C1205.07,-110.09 1204.74,-110.04 1204.4,-110 817.48,-60.28 713.88,-127.06 327.4,-74 324.35,-73.58 321.17,-73.02 318.03,-72.39"/>
<polygon fill="midnightblue" stroke="midnightblue" points="1204.95,-113.6 1215.38,-111.78 1206.09,-106.7 1204.95,-113.6"/>
</g>
<!-- Node31 -->
<g id="node31" class="node">
<title>Node31</title>
<g id="a_node31"><a xlink:href="../../dc/d4c/txra_8_c.html" target="_top" xlink:title=" ">
<polygon fill="white" stroke="black" points="336.07,-55.5 336.07,-73.5 378.74,-73.5 378.74,-55.5 336.07,-55.5"/>
<text text-anchor="middle" x="357.4" y="-61.5" font-family="Helvetica,sans-Serif" font-size="10.00">txra.C</text>
</a>
</g>
</g>
<!-- Node4&#45;&gt;Node31 -->
<g id="edge30" class="edge">
<title>Node4&#45;&gt;Node31</title>
<path fill="none" stroke="midnightblue" d="M1205.41,-110.13C1205.07,-110.09 1204.74,-110.04 1204.4,-110 844.41,-63.18 747.02,-130.35 388.4,-74 385.31,-73.51 382.09,-72.84 378.95,-72.07"/>
<polygon fill="midnightblue" stroke="midnightblue" points="1204.94,-113.61 1215.38,-111.8 1206.09,-106.7 1204.94,-113.61"/>
</g>
<!-- Node32 -->
<g id="node32" class="node">
<title>Node32</title>
<g id="a_node32"><a xlink:href="../../d2/dee/txscan_8_c.html" target="_top" xlink:title=" ">
<polygon fill="white" stroke="black" points="396.95,-55.5 396.95,-73.5 451.85,-73.5 451.85,-55.5 396.95,-55.5"/>
<text text-anchor="middle" x="424.4" y="-61.5" font-family="Helvetica,sans-Serif" font-size="10.00">txscan.C</text>
</a>
</g>
</g>
<!-- Node4&#45;&gt;Node32 -->
<g id="edge31" class="edge">
<title>Node4&#45;&gt;Node32</title>
<path fill="none" stroke="midnightblue" d="M1205.41,-110.14C1205.07,-110.09 1204.74,-110.04 1204.4,-110 876.2,-66.6 788.21,-120.23 460.4,-74 457.73,-73.62 454.97,-73.14 452.21,-72.6"/>
<polygon fill="midnightblue" stroke="midnightblue" points="1204.94,-113.61 1215.38,-111.81 1206.1,-106.7 1204.94,-113.61"/>
</g>
<!-- Node33 -->
<g id="node33" class="node">
<title>Node33</title>
<g id="a_node33"><a xlink:href="../../d3/df2/txstack_8_c.html" target="_top" xlink:title=" ">
<polygon fill="white" stroke="black" points="469.84,-55.5 469.84,-73.5 526.96,-73.5 526.96,-55.5 469.84,-55.5"/>
<text text-anchor="middle" x="498.4" y="-61.5" font-family="Helvetica,sans-Serif" font-size="10.00">txstack.C</text>
</a>
</g>
</g>
<!-- Node4&#45;&gt;Node33 -->
<g id="edge32" class="edge">
<title>Node4&#45;&gt;Node33</title>
<path fill="none" stroke="midnightblue" d="M1205.41,-110.14C1205.07,-110.09 1204.74,-110.05 1204.4,-110 909.31,-70.17 830.26,-115.49 535.4,-74 532.66,-73.61 529.82,-73.13 526.99,-72.58"/>
<polygon fill="midnightblue" stroke="midnightblue" points="1204.93,-113.61 1215.38,-111.83 1206.1,-106.71 1204.93,-113.61"/>
</g>
<!-- Node34 -->
<g id="node34" class="node">
<title>Node34</title>
<g id="a_node34"><a xlink:href="../../da/d89/txtitlepage_8_c.html" target="_top" xlink:title=" ">
<polygon fill="white" stroke="black" points="544.61,-55.5 544.61,-73.5 616.19,-73.5 616.19,-55.5 544.61,-55.5"/>
<text text-anchor="middle" x="580.4" y="-61.5" font-family="Helvetica,sans-Serif" font-size="10.00">txtitlepage.C</text>
</a>
</g>
</g>
<!-- Node4&#45;&gt;Node34 -->
<g id="edge33" class="edge">
<title>Node4&#45;&gt;Node34</title>
<path fill="none" stroke="midnightblue" d="M1205.41,-110.14C1205.07,-110.09 1204.74,-110.05 1204.4,-110 949.03,-74.44 881.24,-105.99 625.4,-74 622.4,-73.63 619.3,-73.17 616.2,-72.68"/>
<polygon fill="midnightblue" stroke="midnightblue" points="1204.93,-113.61 1215.37,-111.86 1206.11,-106.71 1204.93,-113.61"/>
</g>
<!-- Node35 -->
<g id="node35" class="node">
<title>Node35</title>
<g id="a_node35"><a xlink:href="../../d9/d1e/txtoken_8_c.html" target="_top" xlink:title=" ">
<polygon fill="white" stroke="black" points="634.28,-55.5 634.28,-73.5 692.52,-73.5 692.52,-55.5 634.28,-55.5"/>
<text text-anchor="middle" x="663.4" y="-61.5" font-family="Helvetica,sans-Serif" font-size="10.00">txtoken.C</text>
</a>
</g>
</g>
<!-- Node4&#45;&gt;Node35 -->
<g id="edge34" class="edge">
<title>Node4&#45;&gt;Node35</title>
<path fill="none" stroke="midnightblue" d="M1205.41,-110.15C1205.07,-110.1 1204.74,-110.05 1204.4,-110 982.56,-78.05 923.15,-106.55 701.4,-74 698.59,-73.59 695.68,-73.08 692.78,-72.52"/>
<polygon fill="midnightblue" stroke="midnightblue" points="1204.92,-113.62 1215.37,-111.89 1206.12,-106.72 1204.92,-113.62"/>
</g>
<!-- Node36 -->
<g id="node36" class="node">
<title>Node36</title>
<g id="a_node36"><a xlink:href="../../d5/dda/txtranslate_8_c.html" target="_top" xlink:title=" ">
<polygon fill="white" stroke="black" points="710.33,-55.5 710.33,-73.5 782.47,-73.5 782.47,-55.5 710.33,-55.5"/>
<text text-anchor="middle" x="746.4" y="-61.5" font-family="Helvetica,sans-Serif" font-size="10.00">txtranslate.C</text>
</a>
</g>
</g>
<!-- Node4&#45;&gt;Node36 -->
<g id="edge35" class="edge">
<title>Node4&#45;&gt;Node36</title>
<path fill="none" stroke="midnightblue" d="M1205.41,-110.16C1205.07,-110.1 1204.73,-110.05 1204.4,-110 1022.24,-82.33 973.93,-99.13 791.4,-74 788.57,-73.61 785.64,-73.16 782.7,-72.68"/>
<polygon fill="midnightblue" stroke="midnightblue" points="1204.9,-113.62 1215.36,-111.94 1206.14,-106.73 1204.9,-113.62"/>
</g>
<!-- Node37 -->
<g id="node37" class="node">
<title>Node37</title>
<g id="a_node37"><a xlink:href="../../da/d9e/txtrees_8_c.html" target="_top" xlink:title=" ">
<polygon fill="white" stroke="black" points="800.4,-55.5 800.4,-73.5 856.41,-73.5 856.41,-55.5 800.4,-55.5"/>
<text text-anchor="middle" x="828.4" y="-61.5" font-family="Helvetica,sans-Serif" font-size="10.00">txtrees.C</text>
</a>
</g>
</g>
<!-- Node4&#45;&gt;Node37 -->
<g id="edge36" class="edge">
<title>Node4&#45;&gt;Node37</title>
<path fill="none" stroke="midnightblue" d="M1205.41,-110.16C1205.07,-110.11 1204.73,-110.05 1204.4,-110 1054.83,-85.83 1014.84,-99.01 865.4,-74 862.54,-73.52 859.57,-72.96 856.61,-72.35"/>
<polygon fill="midnightblue" stroke="midnightblue" points="1204.88,-113.63 1215.35,-112 1206.15,-106.74 1204.88,-113.63"/>
</g>
<!-- Node12 -->
<g id="node12" class="node">
<title>Node12</title>
<g id="a_node12"><a xlink:href="../../d1/d56/txbib_8_c.html" target="_top" xlink:title=" ">
<polygon fill="white" stroke="black" points="1124.84,-0.5 1124.84,-18.5 1171.96,-18.5 1171.96,-0.5 1124.84,-0.5"/>
<text text-anchor="middle" x="1148.4" y="-6.5" font-family="Helvetica,sans-Serif" font-size="10.00">txbib.C</text>
</a>
</g>
</g>
<!-- Node11&#45;&gt;Node12 -->
<g id="edge11" class="edge">
<title>Node11&#45;&gt;Node12</title>
<path fill="none" stroke="midnightblue" d="M2279.31,-55.07C2035.82,-20.02 1312.98,-11.96 1172.28,-10.7"/>
<polygon fill="midnightblue" stroke="midnightblue" points="2279.1,-58.57 2289.5,-56.6 2280.13,-51.65 2279.1,-58.57"/>
</g>
<!-- Node39 -->
<g id="node39" class="node">
<title>Node39</title>
<g id="a_node39"><a xlink:href="../../d7/d7e/txhash_8h.html" target="_top" xlink:title=" ">
<polygon fill="white" stroke="black" points="1138.5,-165.5 1138.5,-183.5 1192.3,-183.5 1192.3,-165.5 1138.5,-165.5"/>
<text text-anchor="middle" x="1165.4" y="-171.5" font-family="Helvetica,sans-Serif" font-size="10.00">txhash.h</text>
</a>
</g>
</g>
<!-- Node38&#45;&gt;Node39 -->
<g id="edge38" class="edge">
<title>Node38&#45;&gt;Node39</title>
<path fill="none" stroke="midnightblue" d="M1168.67,-210.17C1167.82,-201.09 1166.82,-190.59 1166.16,-183.55"/>
<polygon fill="midnightblue" stroke="midnightblue" points="1165.2,-210.59 1169.62,-220.22 1172.16,-209.93 1165.2,-210.59"/>
</g>
<!-- Node40 -->
<g id="node40" class="node">
<title>Node40</title>
<g id="a_node40"><a xlink:href="../../d2/d1b/txparser_8h.html" target="_top" xlink:title=" ">
<polygon fill="white" stroke="black" points="1135.44,-110.5 1135.44,-128.5 1195.36,-128.5 1195.36,-110.5 1135.44,-110.5"/>
<text text-anchor="middle" x="1165.4" y="-116.5" font-family="Helvetica,sans-Serif" font-size="10.00">txparser.h</text>
</a>
</g>
</g>
<!-- Node39&#45;&gt;Node40 -->
<g id="edge39" class="edge">
<title>Node39&#45;&gt;Node40</title>
<path fill="none" stroke="midnightblue" d="M1165.4,-155.17C1165.4,-146.09 1165.4,-135.59 1165.4,-128.55"/>
<polygon fill="midnightblue" stroke="midnightblue" points="1161.9,-155.22 1165.4,-165.22 1168.9,-155.22 1161.9,-155.22"/>
</g>
<!-- Node41 -->
<g id="node41" class="node">
<title>Node41</title>
<g id="a_node41"><a xlink:href="../../de/da5/txtoken2_8_c.html" target="_top" xlink:title=" ">
<polygon fill="white" stroke="black" points="1053.5,-110.5 1053.5,-128.5 1117.3,-128.5 1117.3,-110.5 1053.5,-110.5"/>
<text text-anchor="middle" x="1085.4" y="-116.5" font-family="Helvetica,sans-Serif" font-size="10.00">txtoken2.C</text>
</a>
</g>
</g>
<!-- Node39&#45;&gt;Node41 -->
<g id="edge70" class="edge">
<title>Node39&#45;&gt;Node41</title>
<path fill="none" stroke="midnightblue" d="M1144.68,-159.77C1129.77,-149.89 1110.16,-136.9 1097.67,-128.63"/>
<polygon fill="midnightblue" stroke="midnightblue" points="1142.98,-162.85 1153.25,-165.45 1146.85,-157.01 1142.98,-162.85"/>
</g>
<!-- Node40&#45;&gt;Node6 -->
<g id="edge40" class="edge">
<title>Node40&#45;&gt;Node6</title>
<path fill="none" stroke="midnightblue" d="M1127.61,-107.56C1092.09,-97.27 1039.86,-82.14 1008.67,-73.11"/>
<polygon fill="midnightblue" stroke="midnightblue" points="1127.03,-111.03 1137.61,-110.45 1128.98,-104.31 1127.03,-111.03"/>
</g>
<!-- Node40&#45;&gt;Node7 -->
<g id="edge41" class="edge">
<title>Node40&#45;&gt;Node7</title>
<path fill="none" stroke="midnightblue" d="M1125.15,-109.76C1045.32,-93.1 1023.8,-89.6 947.4,-74 944.41,-73.39 941.3,-72.75 938.18,-72.11"/>
<polygon fill="midnightblue" stroke="midnightblue" points="1124.67,-113.24 1135.18,-111.86 1126.11,-106.39 1124.67,-113.24"/>
</g>
<!-- Node40&#45;&gt;Node8 -->
<g id="edge42" class="edge">
<title>Node40&#45;&gt;Node8</title>
<path fill="none" stroke="midnightblue" d="M1205.75,-110.08C1205.97,-110.05 1206.18,-110.03 1206.4,-110 1616.55,-59.89 1725.81,-128.5 2135.4,-74 2138.28,-73.62 2141.25,-73.12 2144.22,-72.55"/>
<polygon fill="midnightblue" stroke="midnightblue" points="1205.11,-106.64 1195.76,-111.62 1206.17,-113.56 1205.11,-106.64"/>
</g>
<!-- Node40&#45;&gt;Node10 -->
<g id="edge43" class="edge">
<title>Node40&#45;&gt;Node10</title>
<path fill="none" stroke="midnightblue" d="M1138.83,-106.15C1117.28,-96.13 1087.52,-82.29 1068.88,-73.63"/>
<polygon fill="midnightblue" stroke="midnightblue" points="1137.54,-109.41 1148.09,-110.45 1140.49,-103.06 1137.54,-109.41"/>
</g>
<!-- Node40&#45;&gt;Node12 -->
<g id="edge44" class="edge">
<title>Node40&#45;&gt;Node12</title>
<path fill="none" stroke="midnightblue" d="M1125.15,-110.54C998.07,-103.35 46.35,-117.31 4.4,-74 -1.47,-67.93 -1.45,-61.09 4.4,-55 44.64,-13.17 964.2,-10.63 1124.63,-10.5"/>
<polygon fill="midnightblue" stroke="midnightblue" points="1125.01,-114.04 1135.26,-111.36 1125.58,-107.07 1125.01,-114.04"/>
</g>
<!-- Node40&#45;&gt;Node13 -->
<g id="edge45" class="edge">
<title>Node40&#45;&gt;Node13</title>
<path fill="none" stroke="midnightblue" d="M1152.52,-102.24C1144.98,-92.73 1135.79,-81.14 1129.78,-73.55"/>
<polygon fill="midnightblue" stroke="midnightblue" points="1149.88,-104.56 1158.84,-110.22 1155.37,-100.21 1149.88,-104.56"/>
</g>
<!-- Node40&#45;&gt;Node14 -->
<g id="edge46" class="edge">
<title>Node40&#45;&gt;Node14</title>
<path fill="none" stroke="midnightblue" d="M1177.58,-101.95C1184.54,-92.49 1192.95,-81.06 1198.48,-73.55"/>
<polygon fill="midnightblue" stroke="midnightblue" points="1174.6,-100.09 1171.49,-110.22 1180.24,-104.24 1174.6,-100.09"/>
</g>
<!-- Node40&#45;&gt;Node15 -->
<g id="edge47" class="edge">
<title>Node40&#45;&gt;Node15</title>
<path fill="none" stroke="midnightblue" d="M1194.82,-106.69C1219.87,-96.63 1255.18,-82.45 1277.16,-73.63"/>
<polygon fill="midnightblue" stroke="midnightblue" points="1193.42,-103.48 1185.45,-110.45 1196.03,-109.97 1193.42,-103.48"/>
</g>
<!-- Node40&#45;&gt;Node16 -->
<g id="edge48" class="edge">
<title>Node40&#45;&gt;Node16</title>
<path fill="none" stroke="midnightblue" d="M1205.78,-108.86C1249.35,-98.46 1317.77,-82.12 1357.01,-72.76"/>
<polygon fill="midnightblue" stroke="midnightblue" points="1204.72,-105.52 1195.8,-111.24 1206.34,-112.32 1204.72,-105.52"/>
</g>
<!-- Node40&#45;&gt;Node17 -->
<g id="edge49" class="edge">
<title>Node40&#45;&gt;Node17</title>
<path fill="none" stroke="midnightblue" d="M1205.39,-110.19C1205.73,-110.12 1206.07,-110.06 1206.4,-110 1303.82,-91.94 1329.52,-94.74 1426.4,-74 1429.32,-73.37 1432.38,-72.65 1435.39,-71.9"/>
<polygon fill="midnightblue" stroke="midnightblue" points="1204.53,-106.79 1195.38,-112.13 1205.86,-113.66 1204.53,-106.79"/>
</g>
<!-- Node40&#45;&gt;Node18 -->
<g id="edge50" class="edge">
<title>Node40&#45;&gt;Node18</title>
<path fill="none" stroke="midnightblue" d="M1205.75,-110.11C1205.97,-110.07 1206.19,-110.04 1206.4,-110 1331.9,-89.07 1365.2,-96.65 1490.4,-74 1493.05,-73.52 1495.81,-72.97 1498.55,-72.38"/>
<polygon fill="midnightblue" stroke="midnightblue" points="1205.01,-106.69 1195.8,-111.92 1206.27,-113.57 1205.01,-106.69"/>
</g>
<!-- Node40&#45;&gt;Node19 -->
<g id="edge51" class="edge">
<title>Node40&#45;&gt;Node19</title>
<path fill="none" stroke="midnightblue" d="M1205.75,-110.1C1205.97,-110.07 1206.19,-110.03 1206.4,-110 1364.02,-85.78 1406.75,-103.85 1563.4,-74 1566.27,-73.45 1569.27,-72.76 1572.21,-72"/>
<polygon fill="midnightblue" stroke="midnightblue" points="1205.04,-106.67 1195.79,-111.83 1206.24,-113.57 1205.04,-106.67"/>
</g>
<!-- Node40&#45;&gt;Node20 -->
<g id="edge52" class="edge">
<title>Node40&#45;&gt;Node20</title>
<path fill="none" stroke="midnightblue" d="M1205.75,-110.1C1205.97,-110.06 1206.18,-110.03 1206.4,-110 1390.46,-83.07 1440.42,-107.51 1623.4,-74 1626.38,-73.45 1629.5,-72.74 1632.54,-71.96"/>
<polygon fill="midnightblue" stroke="midnightblue" points="1205.05,-106.66 1195.78,-111.78 1206.22,-113.57 1205.05,-106.66"/>
</g>
<!-- Node40&#45;&gt;Node21 -->
<g id="edge53" class="edge">
<title>Node40&#45;&gt;Node21</title>
<path fill="none" stroke="midnightblue" d="M1205.75,-110.09C1205.97,-110.06 1206.18,-110.03 1206.4,-110 1416.93,-80.36 1474.07,-111.17 1683.4,-74 1686.39,-73.47 1689.5,-72.77 1692.54,-71.99"/>
<polygon fill="midnightblue" stroke="midnightblue" points="1205.07,-106.66 1195.77,-111.75 1206.21,-113.56 1205.07,-106.66"/>
</g>
<!-- Node40&#45;&gt;Node22 -->
<g id="edge54" class="edge">
<title>Node40&#45;&gt;Node22</title>
<path fill="none" stroke="midnightblue" d="M1205.75,-110.09C1205.97,-110.06 1206.18,-110.03 1206.4,-110 1443.4,-77.64 1506.76,-108.89 1743.4,-74 1746.4,-73.56 1749.52,-73 1752.61,-72.38"/>
<polygon fill="midnightblue" stroke="midnightblue" points="1205.08,-106.65 1195.77,-111.72 1206.2,-113.56 1205.08,-106.65"/>
</g>
<!-- Node40&#45;&gt;Node23 -->
<g id="edge55" class="edge">
<title>Node40&#45;&gt;Node23</title>
<path fill="none" stroke="midnightblue" d="M1205.75,-110.09C1205.97,-110.06 1206.18,-110.03 1206.4,-110 1476.07,-74.29 1548.13,-112.59 1817.4,-74 1820.27,-73.59 1823.25,-73.07 1826.21,-72.49"/>
<polygon fill="midnightblue" stroke="midnightblue" points="1205.08,-106.65 1195.77,-111.69 1206.2,-113.56 1205.08,-106.65"/>
</g>
<!-- Node40&#45;&gt;Node24 -->
<g id="edge56" class="edge">
<title>Node40&#45;&gt;Node24</title>
<path fill="none" stroke="midnightblue" d="M1205.75,-110.09C1205.97,-110.06 1206.18,-110.03 1206.4,-110 1508.75,-70.94 1589.15,-113.81 1891.4,-74 1894.36,-73.61 1897.42,-73.12 1900.47,-72.57"/>
<polygon fill="midnightblue" stroke="midnightblue" points="1205.09,-106.65 1195.76,-111.67 1206.19,-113.56 1205.09,-106.65"/>
</g>
<!-- Node40&#45;&gt;Node25 -->
<g id="edge57" class="edge">
<title>Node40&#45;&gt;Node25</title>
<path fill="none" stroke="midnightblue" d="M1205.75,-110.08C1205.97,-110.06 1206.18,-110.03 1206.4,-110 1544.09,-67.32 1633.19,-112.37 1971.4,-74 1974.37,-73.66 1977.43,-73.25 1980.5,-72.8"/>
<polygon fill="midnightblue" stroke="midnightblue" points="1205.1,-106.64 1195.76,-111.65 1206.18,-113.56 1205.1,-106.64"/>
</g>
<!-- Node40&#45;&gt;Node26 -->
<g id="edge58" class="edge">
<title>Node40&#45;&gt;Node26</title>
<path fill="none" stroke="midnightblue" d="M1205.75,-110.08C1205.97,-110.05 1206.18,-110.03 1206.4,-110 1585.62,-63.06 1687.03,-127.35 2065.4,-74 2068.25,-73.6 2071.2,-73.07 2074.13,-72.46"/>
<polygon fill="midnightblue" stroke="midnightblue" points="1205.1,-106.64 1195.76,-111.63 1206.18,-113.56 1205.1,-106.64"/>
</g>
<!-- Node40&#45;&gt;Node27 -->
<g id="edge59" class="edge">
<title>Node40&#45;&gt;Node27</title>
<path fill="none" stroke="midnightblue" d="M1125.02,-110.1C664.79,-53.56 540.98,-129.96 84.4,-74 81.44,-73.64 78.38,-73.16 75.32,-72.63"/>
<polygon fill="midnightblue" stroke="midnightblue" points="1124.9,-113.61 1135.26,-111.37 1125.77,-106.66 1124.9,-113.61"/>
</g>
<!-- Node40&#45;&gt;Node28 -->
<g id="edge60" class="edge">
<title>Node40&#45;&gt;Node28</title>
<path fill="none" stroke="midnightblue" d="M1125.22,-110.12C702.82,-57.56 589.41,-122.99 170.4,-74 167.53,-73.66 164.56,-73.24 161.59,-72.76"/>
<polygon fill="midnightblue" stroke="midnightblue" points="1124.9,-113.6 1135.26,-111.38 1125.77,-106.66 1124.9,-113.6"/>
</g>
<!-- Node40&#45;&gt;Node29 -->
<g id="edge61" class="edge">
<title>Node40&#45;&gt;Node29</title>
<path fill="none" stroke="midnightblue" d="M1125.25,-110.11C740.81,-61.61 637.41,-119.27 256.4,-74 253.53,-73.66 250.56,-73.23 247.59,-72.75"/>
<polygon fill="midnightblue" stroke="midnightblue" points="1124.89,-113.59 1135.26,-111.39 1125.78,-106.65 1124.89,-113.59"/>
</g>
<!-- Node40&#45;&gt;Node30 -->
<g id="edge62" class="edge">
<title>Node40&#45;&gt;Node30</title>
<path fill="none" stroke="midnightblue" d="M1125.27,-110.11C772.15,-65.07 676.2,-122.6 327.4,-74 324.35,-73.57 321.17,-73.01 318.03,-72.37"/>
<polygon fill="midnightblue" stroke="midnightblue" points="1124.89,-113.59 1135.26,-111.4 1125.79,-106.65 1124.89,-113.59"/>
</g>
<!-- Node40&#45;&gt;Node31 -->
<g id="edge63" class="edge">
<title>Node40&#45;&gt;Node31</title>
<path fill="none" stroke="midnightblue" d="M1125.04,-110.08C799.02,-68.08 709.37,-125.2 388.4,-74 385.31,-73.51 382.1,-72.82 378.95,-72.06"/>
<polygon fill="midnightblue" stroke="midnightblue" points="1124.88,-113.58 1135.25,-111.41 1125.79,-106.64 1124.88,-113.58"/>
</g>
<!-- Node40&#45;&gt;Node32 -->
<g id="edge64" class="edge">
<title>Node40&#45;&gt;Node32</title>
<path fill="none" stroke="midnightblue" d="M1125.14,-110.08C830.84,-71.33 750.51,-115.75 460.4,-74 457.73,-73.62 454.97,-73.13 452.22,-72.58"/>
<polygon fill="midnightblue" stroke="midnightblue" points="1124.88,-113.57 1135.25,-111.43 1125.8,-106.63 1124.88,-113.57"/>
</g>
<!-- Node40&#45;&gt;Node33 -->
<g id="edge65" class="edge">
<title>Node40&#45;&gt;Node33</title>
<path fill="none" stroke="midnightblue" d="M1125.08,-110.05C863.93,-74.82 792.55,-111.11 535.4,-74 532.66,-73.6 529.82,-73.11 527,-72.56"/>
<polygon fill="midnightblue" stroke="midnightblue" points="1124.87,-113.56 1135.25,-111.45 1125.82,-106.62 1124.87,-113.56"/>
</g>
<!-- Node40&#45;&gt;Node34 -->
<g id="edge66" class="edge">
<title>Node40&#45;&gt;Node34</title>
<path fill="none" stroke="midnightblue" d="M1125.26,-110.05C903.69,-78.86 843.54,-102.34 625.4,-74 622.4,-73.61 619.31,-73.15 616.2,-72.65"/>
<polygon fill="midnightblue" stroke="midnightblue" points="1124.85,-113.53 1135.24,-111.48 1125.84,-106.6 1124.85,-113.53"/>
</g>
<!-- Node40&#45;&gt;Node35 -->
<g id="edge67" class="edge">
<title>Node40&#45;&gt;Node35</title>
<path fill="none" stroke="midnightblue" d="M1125.3,-110.04C937.2,-82.46 885.57,-102.26 701.4,-74 698.59,-73.57 695.69,-73.05 692.78,-72.49"/>
<polygon fill="midnightblue" stroke="midnightblue" points="1124.83,-113.51 1135.24,-111.52 1125.86,-106.58 1124.83,-113.51"/>
</g>
<!-- Node40&#45;&gt;Node36 -->
<g id="edge68" class="edge">
<title>Node40&#45;&gt;Node36</title>
<path fill="none" stroke="midnightblue" d="M1125.29,-109.99C976.86,-86.43 936.35,-95.44 791.4,-74 788.57,-73.58 785.64,-73.11 782.71,-72.61"/>
<polygon fill="midnightblue" stroke="midnightblue" points="1124.8,-113.45 1135.23,-111.59 1125.91,-106.54 1124.8,-113.45"/>
</g>
<!-- Node40&#45;&gt;Node37 -->
<g id="edge69" class="edge">
<title>Node40&#45;&gt;Node37</title>
<path fill="none" stroke="midnightblue" d="M1125.24,-109.92C1009.38,-89.8 977.43,-94.55 865.4,-74 862.55,-73.48 859.58,-72.88 856.63,-72.26"/>
<polygon fill="midnightblue" stroke="midnightblue" points="1124.76,-113.39 1135.21,-111.68 1125.97,-106.5 1124.76,-113.39"/>
</g>
<!-- Node43 -->
<g id="node43" class="node">
<title>Node43</title>
<g id="a_node43"><a xlink:href="../../dc/d65/txstack_8h.html" target="_top" xlink:title=" ">
<polygon fill="white" stroke="black" points="1439.67,-165.5 1439.67,-183.5 1495.13,-183.5 1495.13,-165.5 1439.67,-165.5"/>
<text text-anchor="middle" x="1467.4" y="-171.5" font-family="Helvetica,sans-Serif" font-size="10.00">txstack.h</text>
</a>
</g>
</g>
<!-- Node42&#45;&gt;Node43 -->
<g id="edge72" class="edge">
<title>Node42&#45;&gt;Node43</title>
<path fill="none" stroke="midnightblue" d="M1346.06,-217.53C1375.31,-207.4 1418.1,-192.58 1444.27,-183.51"/>
<polygon fill="midnightblue" stroke="midnightblue" points="1344.63,-214.33 1336.32,-220.91 1346.92,-220.94 1344.63,-214.33"/>
</g>
<!-- Node43&#45;&gt;Node9 -->
<g id="edge76" class="edge">
<title>Node43&#45;&gt;Node9</title>
<path fill="none" stroke="midnightblue" d="M1505.35,-171.64C1627.93,-165.11 2023.92,-139.96 2344.4,-74 2347.13,-73.44 2349.98,-72.77 2352.8,-72.06"/>
<polygon fill="midnightblue" stroke="midnightblue" points="1505.14,-168.15 1495.34,-172.16 1505.5,-175.14 1505.14,-168.15"/>
</g>
<!-- Node43&#45;&gt;Node40 -->
<g id="edge73" class="edge">
<title>Node43&#45;&gt;Node40</title>
<path fill="none" stroke="midnightblue" d="M1429.65,-167.5C1378.83,-159.31 1285.63,-143.96 1206.4,-129 1202.83,-128.33 1199.09,-127.59 1195.38,-126.84"/>
<polygon fill="midnightblue" stroke="midnightblue" points="1429.1,-170.95 1439.53,-169.08 1430.21,-164.04 1429.1,-170.95"/>
</g>
<!-- Node44 -->
<g id="node44" class="node">
<title>Node44</title>
<g id="a_node44"><a xlink:href="../../d8/d6d/txarray_8h.html" target="_top" xlink:title=" ">
<polygon fill="white" stroke="black" points="1886.32,-110.5 1886.32,-128.5 1940.48,-128.5 1940.48,-110.5 1886.32,-110.5"/>
<text text-anchor="middle" x="1913.4" y="-116.5" font-family="Helvetica,sans-Serif" font-size="10.00">txarray.h</text>
</a>
</g>
</g>
<!-- Node43&#45;&gt;Node44 -->
<g id="edge74" class="edge">
<title>Node43&#45;&gt;Node44</title>
<path fill="none" stroke="midnightblue" d="M1505.38,-168.99C1593.4,-158.53 1809.63,-132.83 1886.08,-123.75"/>
<polygon fill="midnightblue" stroke="midnightblue" points="1504.82,-165.53 1495.3,-170.18 1505.64,-172.48 1504.82,-165.53"/>
</g>
<!-- Node44&#45;&gt;Node8 -->
<g id="edge75" class="edge">
<title>Node44&#45;&gt;Node8</title>
<path fill="none" stroke="midnightblue" d="M1950.79,-111.34C1994.96,-102.8 2070.65,-87.92 2135.4,-74 2138.24,-73.39 2141.19,-72.74 2144.14,-72.08"/>
<polygon fill="midnightblue" stroke="midnightblue" points="1949.95,-107.93 1940.79,-113.27 1951.28,-114.81 1949.95,-107.93"/>
</g>
</g>
</svg>
