<?xml version="1.0" encoding="UTF-8" standalone="no"?>
<!DOCTYPE svg PUBLIC "-//W3C//DTD SVG 1.1//EN"
 "http://www.w3.org/Graphics/SVG/1.1/DTD/svg11.dtd">
<!-- Generated by graphviz version 2.42.3 (20191010.1750)
 -->
<!-- Title: txstring.h Pages: 1 -->
<svg width="2497pt" height="302pt"
 viewBox="0.00 0.00 2496.85 302.00" xmlns="http://www.w3.org/2000/svg" xmlns:xlink="http://www.w3.org/1999/xlink">
<g id="graph0" class="graph" transform="scale(1 1) rotate(0) translate(4 298)">
<title>txstring.h</title>
<polygon fill="white" stroke="transparent" points="-4,4 -4,-298 2492.85,-298 2492.85,4 -4,4"/>
<!-- Node1 -->
<g id="node1" class="node">
<title>Node1</title>
<g id="a_node1"><a xlink:title=" ">
<polygon fill="#bfbfbf" stroke="black" points="1235.16,-275.5 1235.16,-293.5 1291.73,-293.5 1291.73,-275.5 1235.16,-275.5"/>
<text text-anchor="middle" x="1263.45" y="-281.5" font-family="Helvetica,sans-Serif" font-size="10.00">txstring.h</text>
</a>
</g>
</g>
<!-- Node2 -->
<g id="node2" class="node">
<title>Node2</title>
<g id="a_node2"><a xlink:href="../../d4/de9/_main_class_8h.html" target="_top" xlink:title=" ">
<polygon fill="white" stroke="black" points="1166.49,-220.5 1166.49,-238.5 1266.4,-238.5 1266.4,-220.5 1166.49,-220.5"/>
<text text-anchor="middle" x="1216.45" y="-226.5" font-family="Helvetica,sans-Serif" font-size="10.00">tralics/MainClass.h</text>
</a>
</g>
</g>
<!-- Node1&#45;&gt;Node2 -->
<g id="edge1" class="edge">
<title>Node1&#45;&gt;Node2</title>
<path fill="none" stroke="midnightblue" d="M1249.29,-267.53C1240.81,-257.97 1230.38,-246.21 1223.59,-238.55"/>
<polygon fill="midnightblue" stroke="midnightblue" points="1246.85,-270.06 1256.1,-275.22 1252.09,-265.41 1246.85,-270.06"/>
</g>
<!-- Node38 -->
<g id="node38" class="node">
<title>Node38</title>
<g id="a_node38"><a xlink:href="../../d7/d4d/txfonts_8h.html" target="_top" xlink:title=" ">
<polygon fill="white" stroke="black" points="1284.55,-220.5 1284.55,-238.5 1338.35,-238.5 1338.35,-220.5 1284.55,-220.5"/>
<text text-anchor="middle" x="1311.45" y="-226.5" font-family="Helvetica,sans-Serif" font-size="10.00">txfonts.h</text>
</a>
</g>
</g>
<!-- Node1&#45;&gt;Node38 -->
<g id="edge37" class="edge">
<title>Node1&#45;&gt;Node38</title>
<path fill="none" stroke="midnightblue" d="M1277.91,-267.53C1286.57,-257.97 1297.22,-246.21 1304.16,-238.55"/>
<polygon fill="midnightblue" stroke="midnightblue" points="1275.07,-265.46 1270.95,-275.22 1280.26,-270.16 1275.07,-265.46"/>
</g>
<!-- Node40 -->
<g id="node40" class="node">
<title>Node40</title>
<g id="a_node40"><a xlink:href="../../d3/d01/txeqtb_8h.html" target="_top" xlink:title=" ">
<polygon fill="white" stroke="black" points="1356.66,-220.5 1356.66,-238.5 1408.24,-238.5 1408.24,-220.5 1356.66,-220.5"/>
<text text-anchor="middle" x="1382.45" y="-226.5" font-family="Helvetica,sans-Serif" font-size="10.00">txeqtb.h</text>
</a>
</g>
</g>
<!-- Node1&#45;&gt;Node40 -->
<g id="edge70" class="edge">
<title>Node1&#45;&gt;Node40</title>
<path fill="none" stroke="midnightblue" d="M1290.88,-271.28C1313.4,-261.25 1344.65,-247.33 1364.2,-238.63"/>
<polygon fill="midnightblue" stroke="midnightblue" points="1289.23,-268.18 1281.52,-275.45 1292.08,-274.58 1289.23,-268.18"/>
</g>
<!-- Node43 -->
<g id="node43" class="node">
<title>Node43</title>
<g id="a_node43"><a xlink:href="../../d4/da4/txatt_8h.html" target="_top" xlink:title=" ">
<polygon fill="white" stroke="black" points="846.83,-220.5 846.83,-238.5 890.07,-238.5 890.07,-220.5 846.83,-220.5"/>
<text text-anchor="middle" x="868.45" y="-226.5" font-family="Helvetica,sans-Serif" font-size="10.00">txatt.h</text>
</a>
</g>
</g>
<!-- Node1&#45;&gt;Node43 -->
<g id="edge74" class="edge">
<title>Node1&#45;&gt;Node43</title>
<path fill="none" stroke="midnightblue" d="M1224.91,-278.33C1143.06,-267.35 954.09,-241.99 890.09,-233.4"/>
<polygon fill="midnightblue" stroke="midnightblue" points="1224.66,-281.83 1235.04,-279.69 1225.6,-274.89 1224.66,-281.83"/>
</g>
<!-- Node3 -->
<g id="node3" class="node">
<title>Node3</title>
<g id="a_node3"><a xlink:href="../../d7/d79/txinline_8h.html" target="_top" xlink:title=" ">
<polygon fill="white" stroke="black" points="1202.71,-110.5 1202.71,-128.5 1258.18,-128.5 1258.18,-110.5 1202.71,-110.5"/>
<text text-anchor="middle" x="1230.45" y="-116.5" font-family="Helvetica,sans-Serif" font-size="10.00">txinline.h</text>
</a>
</g>
</g>
<!-- Node2&#45;&gt;Node3 -->
<g id="edge2" class="edge">
<title>Node2&#45;&gt;Node3</title>
<path fill="none" stroke="midnightblue" d="M1218.81,-210.24C1221.89,-186.49 1227.14,-146 1229.38,-128.71"/>
<polygon fill="midnightblue" stroke="midnightblue" points="1215.32,-210.02 1217.5,-220.38 1222.26,-210.92 1215.32,-210.02"/>
</g>
<!-- Node4 -->
<g id="node4" class="node">
<title>Node4</title>
<g id="a_node4"><a xlink:href="../../d2/dbb/globals_8_c.html" target="_top" xlink:title=" ">
<polygon fill="white" stroke="black" points="965.6,-55.5 965.6,-73.5 1023.29,-73.5 1023.29,-55.5 965.6,-55.5"/>
<text text-anchor="middle" x="994.45" y="-61.5" font-family="Helvetica,sans-Serif" font-size="10.00">globals.C</text>
</a>
</g>
</g>
<!-- Node3&#45;&gt;Node4 -->
<g id="edge3" class="edge">
<title>Node3&#45;&gt;Node4</title>
<path fill="none" stroke="midnightblue" d="M1192.63,-110.01C1145.54,-99.43 1066.12,-81.6 1023.52,-72.03"/>
<polygon fill="midnightblue" stroke="midnightblue" points="1191.93,-113.44 1202.45,-112.21 1193.46,-106.61 1191.93,-113.44"/>
</g>
<!-- Node5 -->
<g id="node5" class="node">
<title>Node5</title>
<g id="a_node5"><a xlink:href="../../d4/dbc/_istring_8_c.html" target="_top" xlink:title=" ">
<polygon fill="white" stroke="black" points="199.83,-55.5 199.83,-73.5 253.06,-73.5 253.06,-55.5 199.83,-55.5"/>
<text text-anchor="middle" x="226.45" y="-61.5" font-family="Helvetica,sans-Serif" font-size="10.00">Istring.C</text>
</a>
</g>
</g>
<!-- Node3&#45;&gt;Node5 -->
<g id="edge4" class="edge">
<title>Node3&#45;&gt;Node5</title>
<path fill="none" stroke="midnightblue" d="M1192.27,-117.73C1036.17,-114.42 446.01,-100.4 261.45,-74 258.72,-73.61 255.9,-73.1 253.1,-72.53"/>
<polygon fill="midnightblue" stroke="midnightblue" points="1192.26,-121.23 1202.33,-117.94 1192.41,-114.23 1192.26,-121.23"/>
</g>
<!-- Node6 -->
<g id="node6" class="node">
<title>Node6</title>
<g id="a_node6"><a xlink:href="../../de/dae/_main_class_8_c.html" target="_top" xlink:title=" ">
<polygon fill="white" stroke="black" points="1041.11,-55.5 1041.11,-73.5 1113.79,-73.5 1113.79,-55.5 1041.11,-55.5"/>
<text text-anchor="middle" x="1077.45" y="-61.5" font-family="Helvetica,sans-Serif" font-size="10.00">MainClass.C</text>
</a>
</g>
</g>
<!-- Node3&#45;&gt;Node6 -->
<g id="edge5" class="edge">
<title>Node3&#45;&gt;Node6</title>
<path fill="none" stroke="midnightblue" d="M1197.49,-107.08C1168.4,-97.01 1126.72,-82.57 1100.9,-73.63"/>
<polygon fill="midnightblue" stroke="midnightblue" points="1196.62,-110.48 1207.21,-110.45 1198.91,-103.87 1196.62,-110.48"/>
</g>
<!-- Node7 -->
<g id="node7" class="node">
<title>Node7</title>
<g id="a_node7"><a xlink:href="../../dc/d29/tralics_8_c.html" target="_top" xlink:title=" ">
<polygon fill="white" stroke="black" points="1131.39,-55.5 1131.39,-73.5 1183.5,-73.5 1183.5,-55.5 1131.39,-55.5"/>
<text text-anchor="middle" x="1157.45" y="-61.5" font-family="Helvetica,sans-Serif" font-size="10.00">tralics.C</text>
</a>
</g>
</g>
<!-- Node3&#45;&gt;Node7 -->
<g id="edge6" class="edge">
<title>Node3&#45;&gt;Node7</title>
<path fill="none" stroke="midnightblue" d="M1211.15,-104.49C1197.6,-94.65 1179.93,-81.83 1168.64,-73.63"/>
<polygon fill="midnightblue" stroke="midnightblue" points="1209.21,-107.41 1219.36,-110.45 1213.33,-101.74 1209.21,-107.41"/>
</g>
<!-- Node8 -->
<g id="node8" class="node">
<title>Node8</title>
<g id="a_node8"><a xlink:href="../../d5/d10/txaccent_8_c.html" target="_top" xlink:title=" ">
<polygon fill="white" stroke="black" points="1201.83,-55.5 1201.83,-73.5 1265.07,-73.5 1265.07,-55.5 1201.83,-55.5"/>
<text text-anchor="middle" x="1233.45" y="-61.5" font-family="Helvetica,sans-Serif" font-size="10.00">txaccent.C</text>
</a>
</g>
</g>
<!-- Node3&#45;&gt;Node8 -->
<g id="edge7" class="edge">
<title>Node3&#45;&gt;Node8</title>
<path fill="none" stroke="midnightblue" d="M1231.49,-100.17C1232,-91.09 1232.59,-80.59 1232.99,-73.55"/>
<polygon fill="midnightblue" stroke="midnightblue" points="1227.99,-100.04 1230.92,-110.22 1234.98,-100.43 1227.99,-100.04"/>
</g>
<!-- Node9 -->
<g id="node9" class="node">
<title>Node9</title>
<g id="a_node9"><a xlink:href="../../df/de6/txarray_8_c.html" target="_top" xlink:title=" ">
<polygon fill="white" stroke="black" points="62.54,-55.5 62.54,-73.5 118.36,-73.5 118.36,-55.5 62.54,-55.5"/>
<text text-anchor="middle" x="90.45" y="-61.5" font-family="Helvetica,sans-Serif" font-size="10.00">txarray.C</text>
</a>
</g>
</g>
<!-- Node3&#45;&gt;Node9 -->
<g id="edge8" class="edge">
<title>Node3&#45;&gt;Node9</title>
<path fill="none" stroke="midnightblue" d="M1192.35,-117.91C1023.3,-115.16 339.91,-102.44 127.45,-74 124.57,-73.62 121.59,-73.11 118.63,-72.54"/>
<polygon fill="midnightblue" stroke="midnightblue" points="1192.46,-121.41 1202.51,-118.08 1192.57,-114.41 1192.46,-121.41"/>
</g>
<!-- Node10 -->
<g id="node10" class="node">
<title>Node10</title>
<g id="a_node10"><a xlink:href="../../db/df0/txatt_8_c.html" target="_top" xlink:title=" ">
<polygon fill="white" stroke="black" points="0,-55.5 0,-73.5 44.9,-73.5 44.9,-55.5 0,-55.5"/>
<text text-anchor="middle" x="22.45" y="-61.5" font-family="Helvetica,sans-Serif" font-size="10.00">txatt.C</text>
</a>
</g>
</g>
<!-- Node3&#45;&gt;Node10 -->
<g id="edge9" class="edge">
<title>Node3&#45;&gt;Node10</title>
<path fill="none" stroke="midnightblue" d="M1192.63,-118.24C1017.1,-116.84 280.72,-108.98 53.45,-74 50.69,-73.58 47.83,-72.99 45.01,-72.33"/>
<polygon fill="midnightblue" stroke="midnightblue" points="1192.65,-121.74 1202.68,-118.32 1192.71,-114.74 1192.65,-121.74"/>
</g>
<!-- Node11 -->
<g id="node11" class="node">
<title>Node11</title>
<g id="a_node11"><a xlink:href="../../dd/dce/txaux_8_c.html" target="_top" xlink:title=" ">
<polygon fill="white" stroke="black" points="1283.5,-55.5 1283.5,-73.5 1333.4,-73.5 1333.4,-55.5 1283.5,-55.5"/>
<text text-anchor="middle" x="1308.45" y="-61.5" font-family="Helvetica,sans-Serif" font-size="10.00">txaux.C</text>
</a>
</g>
</g>
<!-- Node3&#45;&gt;Node11 -->
<g id="edge10" class="edge">
<title>Node3&#45;&gt;Node11</title>
<path fill="none" stroke="midnightblue" d="M1250.65,-104.77C1265.19,-94.89 1284.31,-81.9 1296.49,-73.63"/>
<polygon fill="midnightblue" stroke="midnightblue" points="1248.6,-101.94 1242.29,-110.45 1252.53,-107.73 1248.6,-101.94"/>
</g>
<!-- Node12 -->
<g id="node12" class="node">
<title>Node12</title>
<g id="a_node12"><a xlink:href="../../d6/dcb/txbib_8h.html" target="_top" xlink:title=" ">
<polygon fill="white" stroke="black" points="136.72,-55.5 136.72,-73.5 182.18,-73.5 182.18,-55.5 136.72,-55.5"/>
<text text-anchor="middle" x="159.45" y="-61.5" font-family="Helvetica,sans-Serif" font-size="10.00">txbib.h</text>
</a>
</g>
</g>
<!-- Node3&#45;&gt;Node12 -->
<g id="edge11" class="edge">
<title>Node3&#45;&gt;Node12</title>
<path fill="none" stroke="midnightblue" d="M1192.67,-118.02C1030.11,-115.78 389.4,-105.13 190.45,-74 187.8,-73.59 185.06,-73.03 182.35,-72.4"/>
<polygon fill="midnightblue" stroke="midnightblue" points="1192.63,-121.52 1202.68,-118.16 1192.73,-114.52 1192.63,-121.52"/>
</g>
<!-- Node14 -->
<g id="node14" class="node">
<title>Node14</title>
<g id="a_node14"><a xlink:href="../../d4/df2/txbuffer_8_c.html" target="_top" xlink:title=" ">
<polygon fill="white" stroke="black" points="1351.13,-55.5 1351.13,-73.5 1409.76,-73.5 1409.76,-55.5 1351.13,-55.5"/>
<text text-anchor="middle" x="1380.45" y="-61.5" font-family="Helvetica,sans-Serif" font-size="10.00">txbuffer.C</text>
</a>
</g>
</g>
<!-- Node3&#45;&gt;Node14 -->
<g id="edge13" class="edge">
<title>Node3&#45;&gt;Node14</title>
<path fill="none" stroke="midnightblue" d="M1262.76,-107.08C1291.28,-97.01 1332.14,-82.57 1357.45,-73.63"/>
<polygon fill="midnightblue" stroke="midnightblue" points="1261.49,-103.82 1253.23,-110.45 1263.82,-110.42 1261.49,-103.82"/>
</g>
<!-- Node15 -->
<g id="node15" class="node">
<title>Node15</title>
<g id="a_node15"><a xlink:href="../../de/ddd/txclasses_8_c.html" target="_top" xlink:title=" ">
<polygon fill="white" stroke="black" points="1427.89,-55.5 1427.89,-73.5 1495.01,-73.5 1495.01,-55.5 1427.89,-55.5"/>
<text text-anchor="middle" x="1461.45" y="-61.5" font-family="Helvetica,sans-Serif" font-size="10.00">txclasses.C</text>
</a>
</g>
</g>
<!-- Node3&#45;&gt;Node15 -->
<g id="edge14" class="edge">
<title>Node3&#45;&gt;Node15</title>
<path fill="none" stroke="midnightblue" d="M1268.12,-109.86C1312.46,-99.68 1385.4,-82.95 1427.88,-73.2"/>
<polygon fill="midnightblue" stroke="midnightblue" points="1267.28,-106.46 1258.31,-112.11 1268.84,-113.28 1267.28,-106.46"/>
</g>
<!-- Node16 -->
<g id="node16" class="node">
<title>Node16</title>
<g id="a_node16"><a xlink:href="../../d4/d1e/txcommands_8_c.html" target="_top" xlink:title=" ">
<polygon fill="white" stroke="black" points="1513.11,-55.5 1513.11,-73.5 1595.79,-73.5 1595.79,-55.5 1513.11,-55.5"/>
<text text-anchor="middle" x="1554.45" y="-61.5" font-family="Helvetica,sans-Serif" font-size="10.00">txcommands.C</text>
</a>
</g>
</g>
<!-- Node3&#45;&gt;Node16 -->
<g id="edge15" class="edge">
<title>Node3&#45;&gt;Node16</title>
<path fill="none" stroke="midnightblue" d="M1268.56,-110.71C1269.87,-110.46 1271.17,-110.23 1272.45,-110 1375.17,-91.65 1401.46,-90.74 1504.45,-74 1507.23,-73.55 1510.1,-73.08 1512.98,-72.6"/>
<polygon fill="midnightblue" stroke="midnightblue" points="1267.59,-107.33 1258.43,-112.65 1268.91,-114.2 1267.59,-107.33"/>
</g>
<!-- Node17 -->
<g id="node17" class="node">
<title>Node17</title>
<g id="a_node17"><a xlink:href="../../d9/d64/txconfig_8_c.html" target="_top" xlink:title=" ">
<polygon fill="white" stroke="black" points="1614.22,-55.5 1614.22,-73.5 1674.68,-73.5 1674.68,-55.5 1614.22,-55.5"/>
<text text-anchor="middle" x="1644.45" y="-61.5" font-family="Helvetica,sans-Serif" font-size="10.00">txconfig.C</text>
</a>
</g>
</g>
<!-- Node3&#45;&gt;Node17 -->
<g id="edge16" class="edge">
<title>Node3&#45;&gt;Node17</title>
<path fill="none" stroke="midnightblue" d="M1268.55,-110.63C1269.86,-110.41 1271.17,-110.2 1272.45,-110 1419.12,-87.26 1457.89,-97.46 1604.45,-74 1607.53,-73.51 1610.74,-72.93 1613.93,-72.32"/>
<polygon fill="midnightblue" stroke="midnightblue" points="1267.61,-107.24 1258.4,-112.47 1268.86,-114.13 1267.61,-107.24"/>
</g>
<!-- Node18 -->
<g id="node18" class="node">
<title>Node18</title>
<g id="a_node18"><a xlink:href="../../d1/d79/txerr_8_c.html" target="_top" xlink:title=" ">
<polygon fill="white" stroke="black" points="1692.72,-55.5 1692.72,-73.5 1738.17,-73.5 1738.17,-55.5 1692.72,-55.5"/>
<text text-anchor="middle" x="1715.45" y="-61.5" font-family="Helvetica,sans-Serif" font-size="10.00">txerr.C</text>
</a>
</g>
</g>
<!-- Node3&#45;&gt;Node18 -->
<g id="edge17" class="edge">
<title>Node3&#45;&gt;Node18</title>
<path fill="none" stroke="midnightblue" d="M1268.55,-110.6C1269.86,-110.39 1271.16,-110.19 1272.45,-110 1453.93,-83.77 1502.84,-105.65 1683.45,-74 1686.39,-73.48 1689.46,-72.83 1692.48,-72.11"/>
<polygon fill="midnightblue" stroke="midnightblue" points="1267.62,-107.2 1258.39,-112.39 1268.84,-114.1 1267.62,-107.2"/>
</g>
<!-- Node19 -->
<g id="node19" class="node">
<title>Node19</title>
<g id="a_node19"><a xlink:href="../../d7/d0d/txfonts_8_c.html" target="_top" xlink:title=" ">
<polygon fill="white" stroke="black" points="1755.72,-55.5 1755.72,-73.5 1811.18,-73.5 1811.18,-55.5 1755.72,-55.5"/>
<text text-anchor="middle" x="1783.45" y="-61.5" font-family="Helvetica,sans-Serif" font-size="10.00">txfonts.C</text>
</a>
</g>
</g>
<!-- Node3&#45;&gt;Node19 -->
<g id="edge18" class="edge">
<title>Node3&#45;&gt;Node19</title>
<path fill="none" stroke="midnightblue" d="M1268.54,-110.58C1269.86,-110.37 1271.16,-110.18 1272.45,-110 1482.16,-80.95 1538.23,-106.42 1747.45,-74 1750.11,-73.59 1752.87,-73.08 1755.62,-72.52"/>
<polygon fill="midnightblue" stroke="midnightblue" points="1267.63,-107.18 1258.38,-112.34 1268.83,-114.08 1267.63,-107.18"/>
</g>
<!-- Node20 -->
<g id="node20" class="node">
<title>Node20</title>
<g id="a_node20"><a xlink:href="../../d1/dcd/txfp_8_c.html" target="_top" xlink:title=" ">
<polygon fill="white" stroke="black" points="1829.39,-55.5 1829.39,-73.5 1871.51,-73.5 1871.51,-55.5 1829.39,-55.5"/>
<text text-anchor="middle" x="1850.45" y="-61.5" font-family="Helvetica,sans-Serif" font-size="10.00">txfp.C</text>
</a>
</g>
</g>
<!-- Node3&#45;&gt;Node20 -->
<g id="edge19" class="edge">
<title>Node3&#45;&gt;Node20</title>
<path fill="none" stroke="midnightblue" d="M1268.54,-110.56C1269.86,-110.36 1271.16,-110.17 1272.45,-110 1514.38,-77.72 1579.92,-115.5 1820.45,-74 1823.33,-73.5 1826.33,-72.84 1829.27,-72.1"/>
<polygon fill="midnightblue" stroke="midnightblue" points="1267.64,-107.16 1258.37,-112.31 1268.82,-114.06 1267.64,-107.16"/>
</g>
<!-- Node21 -->
<g id="node21" class="node">
<title>Node21</title>
<g id="a_node21"><a xlink:href="../../d8/dc2/txio_8_c.html" target="_top" xlink:title=" ">
<polygon fill="white" stroke="black" points="1889.67,-55.5 1889.67,-73.5 1931.23,-73.5 1931.23,-55.5 1889.67,-55.5"/>
<text text-anchor="middle" x="1910.45" y="-61.5" font-family="Helvetica,sans-Serif" font-size="10.00">txio.C</text>
</a>
</g>
</g>
<!-- Node3&#45;&gt;Node21 -->
<g id="edge20" class="edge">
<title>Node3&#45;&gt;Node21</title>
<path fill="none" stroke="midnightblue" d="M1268.54,-110.55C1269.86,-110.35 1271.16,-110.17 1272.45,-110 1540.88,-75.07 1613.55,-119.16 1880.45,-74 1883.44,-73.49 1886.55,-72.8 1889.6,-72.03"/>
<polygon fill="midnightblue" stroke="midnightblue" points="1267.64,-107.15 1258.37,-112.28 1268.82,-114.05 1267.64,-107.15"/>
</g>
<!-- Node22 -->
<g id="node22" class="node">
<title>Node22</title>
<g id="a_node22"><a xlink:href="../../dc/dcd/txl3_8_c.html" target="_top" xlink:title=" ">
<polygon fill="white" stroke="black" points="1949.67,-55.5 1949.67,-73.5 1991.23,-73.5 1991.23,-55.5 1949.67,-55.5"/>
<text text-anchor="middle" x="1970.45" y="-61.5" font-family="Helvetica,sans-Serif" font-size="10.00">txl3.C</text>
</a>
</g>
</g>
<!-- Node3&#45;&gt;Node22 -->
<g id="edge21" class="edge">
<title>Node3&#45;&gt;Node22</title>
<path fill="none" stroke="midnightblue" d="M1268.54,-110.54C1269.85,-110.35 1271.16,-110.16 1272.45,-110 1567.38,-72.41 1647.17,-122.83 1940.45,-74 1943.44,-73.5 1946.56,-72.82 1949.6,-72.05"/>
<polygon fill="midnightblue" stroke="midnightblue" points="1267.65,-107.14 1258.37,-112.26 1268.81,-114.04 1267.65,-107.14"/>
</g>
<!-- Node23 -->
<g id="node23" class="node">
<title>Node23</title>
<g id="a_node23"><a xlink:href="../../db/d96/txmath_8_c.html" target="_top" xlink:title=" ">
<polygon fill="white" stroke="black" points="2009.44,-55.5 2009.44,-73.5 2065.45,-73.5 2065.45,-55.5 2009.44,-55.5"/>
<text text-anchor="middle" x="2037.45" y="-61.5" font-family="Helvetica,sans-Serif" font-size="10.00">txmath.C</text>
</a>
</g>
</g>
<!-- Node3&#45;&gt;Node23 -->
<g id="edge22" class="edge">
<title>Node3&#45;&gt;Node23</title>
<path fill="none" stroke="midnightblue" d="M1268.54,-110.53C1269.85,-110.34 1271.16,-110.16 1272.45,-110 1593.89,-69.76 1679.56,-118.44 2000.45,-74 2003.32,-73.6 2006.3,-73.09 2009.26,-72.51"/>
<polygon fill="midnightblue" stroke="midnightblue" points="1267.65,-107.13 1258.37,-112.24 1268.81,-114.04 1267.65,-107.13"/>
</g>
<!-- Node24 -->
<g id="node24" class="node">
<title>Node24</title>
<g id="a_node24"><a xlink:href="../../d8/dc6/txmath1_8_c.html" target="_top" xlink:title=" ">
<polygon fill="white" stroke="black" points="2083.66,-55.5 2083.66,-73.5 2145.23,-73.5 2145.23,-55.5 2083.66,-55.5"/>
<text text-anchor="middle" x="2114.45" y="-61.5" font-family="Helvetica,sans-Serif" font-size="10.00">txmath1.C</text>
</a>
</g>
</g>
<!-- Node3&#45;&gt;Node24 -->
<g id="edge23" class="edge">
<title>Node3&#45;&gt;Node24</title>
<path fill="none" stroke="midnightblue" d="M1268.54,-110.53C1269.85,-110.33 1271.16,-110.16 1272.45,-110 1626.59,-66.48 1720.52,-119.24 2074.45,-74 2077.41,-73.62 2080.47,-73.14 2083.53,-72.6"/>
<polygon fill="midnightblue" stroke="midnightblue" points="1267.65,-107.12 1258.36,-112.22 1268.8,-114.03 1267.65,-107.12"/>
</g>
<!-- Node25 -->
<g id="node25" class="node">
<title>Node25</title>
<g id="a_node25"><a xlink:href="../../d7/dd3/txmathboot_8_c.html" target="_top" xlink:title=" ">
<polygon fill="white" stroke="black" points="2163.71,-55.5 2163.71,-73.5 2239.18,-73.5 2239.18,-55.5 2163.71,-55.5"/>
<text text-anchor="middle" x="2201.45" y="-61.5" font-family="Helvetica,sans-Serif" font-size="10.00">txmathboot.C</text>
</a>
</g>
</g>
<!-- Node3&#45;&gt;Node25 -->
<g id="edge24" class="edge">
<title>Node3&#45;&gt;Node25</title>
<path fill="none" stroke="midnightblue" d="M1268.53,-110.52C1269.85,-110.33 1271.16,-110.16 1272.45,-110 1661.94,-62.94 1764.49,-117.01 2154.45,-74 2157.42,-73.67 2160.48,-73.27 2163.55,-72.82"/>
<polygon fill="midnightblue" stroke="midnightblue" points="1267.65,-107.12 1258.36,-112.21 1268.8,-114.02 1267.65,-107.12"/>
</g>
<!-- Node26 -->
<g id="node26" class="node">
<title>Node26</title>
<g id="a_node26"><a xlink:href="../../dd/d48/txmlio_8_c.html" target="_top" xlink:title=" ">
<polygon fill="white" stroke="black" points="2257.39,-55.5 2257.39,-73.5 2309.5,-73.5 2309.5,-55.5 2257.39,-55.5"/>
<text text-anchor="middle" x="2283.45" y="-61.5" font-family="Helvetica,sans-Serif" font-size="10.00">txmlio.C</text>
</a>
</g>
</g>
<!-- Node3&#45;&gt;Node26 -->
<g id="edge25" class="edge">
<title>Node3&#45;&gt;Node26</title>
<path fill="none" stroke="midnightblue" d="M1268.53,-110.51C1269.85,-110.32 1271.16,-110.15 1272.45,-110 1703.49,-58.78 1818.48,-133.52 2248.45,-74 2251.3,-73.61 2254.25,-73.08 2257.18,-72.48"/>
<polygon fill="midnightblue" stroke="midnightblue" points="1267.66,-107.11 1258.36,-112.19 1268.8,-114.02 1267.66,-107.11"/>
</g>
<!-- Node27 -->
<g id="node27" class="node">
<title>Node27</title>
<g id="a_node27"><a xlink:href="../../d7/dc3/txparser_8_c.html" target="_top" xlink:title=" ">
<polygon fill="white" stroke="black" points="2327.66,-55.5 2327.66,-73.5 2389.24,-73.5 2389.24,-55.5 2327.66,-55.5"/>
<text text-anchor="middle" x="2358.45" y="-61.5" font-family="Helvetica,sans-Serif" font-size="10.00">txparser.C</text>
</a>
</g>
</g>
<!-- Node3&#45;&gt;Node27 -->
<g id="edge26" class="edge">
<title>Node3&#45;&gt;Node27</title>
<path fill="none" stroke="midnightblue" d="M1268.53,-110.51C1269.85,-110.32 1271.16,-110.15 1272.45,-110 1734.43,-55.68 1856.74,-130.56 2318.45,-74 2321.41,-73.64 2324.47,-73.17 2327.53,-72.63"/>
<polygon fill="midnightblue" stroke="midnightblue" points="1267.66,-107.1 1258.36,-112.18 1268.79,-114.01 1267.66,-107.1"/>
</g>
<!-- Node28 -->
<g id="node28" class="node">
<title>Node28</title>
<g id="a_node28"><a xlink:href="../../d5/d2e/txparser2_8_c.html" target="_top" xlink:title=" ">
<polygon fill="white" stroke="black" points="2407.61,-55.5 2407.61,-73.5 2475.29,-73.5 2475.29,-55.5 2407.61,-55.5"/>
<text text-anchor="middle" x="2441.45" y="-61.5" font-family="Helvetica,sans-Serif" font-size="10.00">txparser2.C</text>
</a>
</g>
</g>
<!-- Node3&#45;&gt;Node28 -->
<g id="edge27" class="edge">
<title>Node3&#45;&gt;Node28</title>
<path fill="none" stroke="midnightblue" d="M1268.53,-110.5C1269.85,-110.32 1271.16,-110.15 1272.45,-110 1769.79,-52.14 1900.97,-130.74 2398.45,-74 2401.32,-73.67 2404.29,-73.25 2407.26,-72.78"/>
<polygon fill="midnightblue" stroke="midnightblue" points="1267.66,-107.1 1258.36,-112.17 1268.79,-114.01 1267.66,-107.1"/>
</g>
<!-- Node29 -->
<g id="node29" class="node">
<title>Node29</title>
<g id="a_node29"><a xlink:href="../../d4/d5c/txparser3_8_c.html" target="_top" xlink:title=" ">
<polygon fill="white" stroke="black" points="270.61,-55.5 270.61,-73.5 338.29,-73.5 338.29,-55.5 270.61,-55.5"/>
<text text-anchor="middle" x="304.45" y="-61.5" font-family="Helvetica,sans-Serif" font-size="10.00">txparser3.C</text>
</a>
</g>
</g>
<!-- Node3&#45;&gt;Node29 -->
<g id="edge28" class="edge">
<title>Node3&#45;&gt;Node29</title>
<path fill="none" stroke="midnightblue" d="M1192.46,-118.55C1069.69,-118.28 672.73,-114.13 347.45,-74 344.58,-73.65 341.61,-73.21 338.64,-72.72"/>
<polygon fill="midnightblue" stroke="midnightblue" points="1192.48,-122.05 1202.48,-118.56 1192.49,-115.05 1192.48,-122.05"/>
</g>
<!-- Node30 -->
<g id="node30" class="node">
<title>Node30</title>
<g id="a_node30"><a xlink:href="../../db/d66/txpost_8_c.html" target="_top" xlink:title=" ">
<polygon fill="white" stroke="black" points="356.11,-55.5 356.11,-73.5 408.79,-73.5 408.79,-55.5 356.11,-55.5"/>
<text text-anchor="middle" x="382.45" y="-61.5" font-family="Helvetica,sans-Serif" font-size="10.00">txpost.C</text>
</a>
</g>
</g>
<!-- Node3&#45;&gt;Node30 -->
<g id="edge29" class="edge">
<title>Node3&#45;&gt;Node30</title>
<path fill="none" stroke="midnightblue" d="M1192.4,-118.8C1075.92,-119.2 714.19,-116.67 418.45,-74 415.4,-73.56 412.22,-72.99 409.08,-72.34"/>
<polygon fill="midnightblue" stroke="midnightblue" points="1192.6,-122.3 1202.58,-118.75 1192.56,-115.3 1192.6,-122.3"/>
</g>
<!-- Node31 -->
<g id="node31" class="node">
<title>Node31</title>
<g id="a_node31"><a xlink:href="../../dc/d4c/txra_8_c.html" target="_top" xlink:title=" ">
<polygon fill="white" stroke="black" points="427.11,-55.5 427.11,-73.5 469.78,-73.5 469.78,-55.5 427.11,-55.5"/>
<text text-anchor="middle" x="448.45" y="-61.5" font-family="Helvetica,sans-Serif" font-size="10.00">txra.C</text>
</a>
</g>
</g>
<!-- Node3&#45;&gt;Node31 -->
<g id="edge30" class="edge">
<title>Node3&#45;&gt;Node31</title>
<path fill="none" stroke="midnightblue" d="M1192.6,-119.03C1081.99,-119.98 750.05,-118.61 479.45,-74 476.36,-73.49 473.15,-72.8 470,-72.03"/>
<polygon fill="midnightblue" stroke="midnightblue" points="1192.63,-122.53 1202.6,-118.93 1192.56,-115.53 1192.63,-122.53"/>
</g>
<!-- Node32 -->
<g id="node32" class="node">
<title>Node32</title>
<g id="a_node32"><a xlink:href="../../d2/dee/txscan_8_c.html" target="_top" xlink:title=" ">
<polygon fill="white" stroke="black" points="488,-55.5 488,-73.5 542.9,-73.5 542.9,-55.5 488,-55.5"/>
<text text-anchor="middle" x="515.45" y="-61.5" font-family="Helvetica,sans-Serif" font-size="10.00">txscan.C</text>
</a>
</g>
</g>
<!-- Node3&#45;&gt;Node32 -->
<g id="edge31" class="edge">
<title>Node3&#45;&gt;Node32</title>
<path fill="none" stroke="midnightblue" d="M1192.18,-118.22C1088.45,-116.97 793.49,-110.25 551.45,-74 548.78,-73.6 546.02,-73.1 543.27,-72.55"/>
<polygon fill="midnightblue" stroke="midnightblue" points="1192.42,-121.72 1202.46,-118.33 1192.5,-114.72 1192.42,-121.72"/>
</g>
<!-- Node33 -->
<g id="node33" class="node">
<title>Node33</title>
<g id="a_node33"><a xlink:href="../../d3/df2/txstack_8_c.html" target="_top" xlink:title=" ">
<polygon fill="white" stroke="black" points="560.89,-55.5 560.89,-73.5 618.01,-73.5 618.01,-55.5 560.89,-55.5"/>
<text text-anchor="middle" x="589.45" y="-61.5" font-family="Helvetica,sans-Serif" font-size="10.00">txstack.C</text>
</a>
</g>
</g>
<!-- Node3&#45;&gt;Node33 -->
<g id="edge32" class="edge">
<title>Node3&#45;&gt;Node33</title>
<path fill="none" stroke="midnightblue" d="M1192.54,-117.71C1097.02,-115.28 838.9,-106.04 626.45,-74 623.71,-73.59 620.88,-73.08 618.05,-72.52"/>
<polygon fill="midnightblue" stroke="midnightblue" points="1192.5,-121.21 1202.59,-117.95 1192.68,-114.21 1192.5,-121.21"/>
</g>
<!-- Node34 -->
<g id="node34" class="node">
<title>Node34</title>
<g id="a_node34"><a xlink:href="../../da/d89/txtitlepage_8_c.html" target="_top" xlink:title=" ">
<polygon fill="white" stroke="black" points="635.66,-55.5 635.66,-73.5 707.24,-73.5 707.24,-55.5 635.66,-55.5"/>
<text text-anchor="middle" x="671.45" y="-61.5" font-family="Helvetica,sans-Serif" font-size="10.00">txtitlepage.C</text>
</a>
</g>
</g>
<!-- Node3&#45;&gt;Node34 -->
<g id="edge33" class="edge">
<title>Node3&#45;&gt;Node34</title>
<path fill="none" stroke="midnightblue" d="M1192.48,-116.52C1107.11,-111.78 893.63,-98.34 716.45,-74 713.46,-73.59 710.36,-73.11 707.26,-72.6"/>
<polygon fill="midnightblue" stroke="midnightblue" points="1192.3,-120.02 1202.48,-117.07 1192.69,-113.03 1192.3,-120.02"/>
</g>
<!-- Node35 -->
<g id="node35" class="node">
<title>Node35</title>
<g id="a_node35"><a xlink:href="../../d9/d1e/txtoken_8_c.html" target="_top" xlink:title=" ">
<polygon fill="white" stroke="black" points="725.33,-55.5 725.33,-73.5 783.57,-73.5 783.57,-55.5 725.33,-55.5"/>
<text text-anchor="middle" x="754.45" y="-61.5" font-family="Helvetica,sans-Serif" font-size="10.00">txtoken.C</text>
</a>
</g>
</g>
<!-- Node3&#45;&gt;Node35 -->
<g id="edge34" class="edge">
<title>Node3&#45;&gt;Node35</title>
<path fill="none" stroke="midnightblue" d="M1192.56,-116.17C1116.4,-111.16 939.45,-97.82 792.45,-74 789.65,-73.55 786.74,-73.01 783.84,-72.44"/>
<polygon fill="midnightblue" stroke="midnightblue" points="1192.42,-119.67 1202.63,-116.83 1192.87,-112.69 1192.42,-119.67"/>
</g>
<!-- Node36 -->
<g id="node36" class="node">
<title>Node36</title>
<g id="a_node36"><a xlink:href="../../d5/dda/txtranslate_8_c.html" target="_top" xlink:title=" ">
<polygon fill="white" stroke="black" points="801.38,-55.5 801.38,-73.5 873.51,-73.5 873.51,-55.5 801.38,-55.5"/>
<text text-anchor="middle" x="837.45" y="-61.5" font-family="Helvetica,sans-Serif" font-size="10.00">txtranslate.C</text>
</a>
</g>
</g>
<!-- Node3&#45;&gt;Node36 -->
<g id="edge35" class="edge">
<title>Node3&#45;&gt;Node36</title>
<path fill="none" stroke="midnightblue" d="M1192.35,-114.38C1128.22,-107.28 994.71,-91.76 882.45,-74 879.62,-73.55 876.7,-73.06 873.77,-72.55"/>
<polygon fill="midnightblue" stroke="midnightblue" points="1192.08,-117.87 1202.4,-115.49 1192.84,-110.91 1192.08,-117.87"/>
</g>
<!-- Node37 -->
<g id="node37" class="node">
<title>Node37</title>
<g id="a_node37"><a xlink:href="../../da/d9e/txtrees_8_c.html" target="_top" xlink:title=" ">
<polygon fill="white" stroke="black" points="891.44,-55.5 891.44,-73.5 947.45,-73.5 947.45,-55.5 891.44,-55.5"/>
<text text-anchor="middle" x="919.45" y="-61.5" font-family="Helvetica,sans-Serif" font-size="10.00">txtrees.C</text>
</a>
</g>
</g>
<!-- Node3&#45;&gt;Node37 -->
<g id="edge36" class="edge">
<title>Node3&#45;&gt;Node37</title>
<path fill="none" stroke="midnightblue" d="M1192.36,-113.11C1139.31,-105.42 1040.25,-90.41 956.45,-74 953.6,-73.44 950.64,-72.83 947.69,-72.19"/>
<polygon fill="midnightblue" stroke="midnightblue" points="1191.94,-116.59 1202.34,-114.55 1192.94,-109.66 1191.94,-116.59"/>
</g>
<!-- Node13 -->
<g id="node13" class="node">
<title>Node13</title>
<g id="a_node13"><a xlink:href="../../d1/d56/txbib_8_c.html" target="_top" xlink:title=" ">
<polygon fill="white" stroke="black" points="1307.89,-0.5 1307.89,-18.5 1355.01,-18.5 1355.01,-0.5 1307.89,-0.5"/>
<text text-anchor="middle" x="1331.45" y="-6.5" font-family="Helvetica,sans-Serif" font-size="10.00">txbib.C</text>
</a>
</g>
</g>
<!-- Node12&#45;&gt;Node13 -->
<g id="edge12" class="edge">
<title>Node12&#45;&gt;Node13</title>
<path fill="none" stroke="midnightblue" d="M192.25,-55.11C437.32,-19.78 1167.24,-11.9 1307.87,-10.69"/>
<polygon fill="midnightblue" stroke="midnightblue" points="191.72,-51.65 182.34,-56.59 192.75,-58.57 191.72,-51.65"/>
</g>
<!-- Node39 -->
<g id="node39" class="node">
<title>Node39</title>
<g id="a_node39"><a xlink:href="../../d2/d1b/txparser_8h.html" target="_top" xlink:title=" ">
<polygon fill="white" stroke="black" points="1281.49,-110.5 1281.49,-128.5 1341.41,-128.5 1341.41,-110.5 1281.49,-110.5"/>
<text text-anchor="middle" x="1311.45" y="-116.5" font-family="Helvetica,sans-Serif" font-size="10.00">txparser.h</text>
</a>
</g>
</g>
<!-- Node38&#45;&gt;Node39 -->
<g id="edge38" class="edge">
<title>Node38&#45;&gt;Node39</title>
<path fill="none" stroke="midnightblue" d="M1311.45,-210.24C1311.45,-186.49 1311.45,-146 1311.45,-128.71"/>
<polygon fill="midnightblue" stroke="midnightblue" points="1307.95,-210.38 1311.45,-220.38 1314.95,-210.38 1307.95,-210.38"/>
</g>
<!-- Node39&#45;&gt;Node4 -->
<g id="edge39" class="edge">
<title>Node39&#45;&gt;Node4</title>
<path fill="none" stroke="midnightblue" d="M1271.25,-110.67C1269.97,-110.44 1268.7,-110.22 1267.45,-110 1163.33,-91.98 1136.29,-93.54 1032.45,-74 1029.53,-73.45 1026.48,-72.84 1023.45,-72.2"/>
<polygon fill="midnightblue" stroke="midnightblue" points="1270.71,-114.13 1281.18,-112.49 1271.98,-107.24 1270.71,-114.13"/>
</g>
<!-- Node39&#45;&gt;Node6 -->
<g id="edge40" class="edge">
<title>Node39&#45;&gt;Node6</title>
<path fill="none" stroke="midnightblue" d="M1271.43,-109.44C1226.83,-99.33 1155.4,-83.16 1112.79,-73.51"/>
<polygon fill="midnightblue" stroke="midnightblue" points="1270.81,-112.88 1281.34,-111.68 1272.36,-106.06 1270.81,-112.88"/>
</g>
<!-- Node39&#45;&gt;Node7 -->
<g id="edge41" class="edge">
<title>Node39&#45;&gt;Node7</title>
<path fill="none" stroke="midnightblue" d="M1278.25,-107.07C1248.87,-96.96 1206.76,-82.47 1180.8,-73.54"/>
<polygon fill="midnightblue" stroke="midnightblue" points="1277.46,-110.51 1288.06,-110.45 1279.74,-103.89 1277.46,-110.51"/>
</g>
<!-- Node39&#45;&gt;Node8 -->
<g id="edge42" class="edge">
<title>Node39&#45;&gt;Node8</title>
<path fill="none" stroke="midnightblue" d="M1291.24,-104.77C1276.71,-94.89 1257.59,-81.9 1245.41,-73.63"/>
<polygon fill="midnightblue" stroke="midnightblue" points="1289.36,-107.73 1299.6,-110.45 1293.3,-101.94 1289.36,-107.73"/>
</g>
<!-- Node39&#45;&gt;Node9 -->
<g id="edge43" class="edge">
<title>Node39&#45;&gt;Node9</title>
<path fill="none" stroke="midnightblue" d="M1271.28,-110.47C1269.99,-110.3 1268.71,-110.14 1267.45,-110 763.66,-53.75 630.18,-139.06 127.45,-74 124.57,-73.63 121.59,-73.13 118.63,-72.57"/>
<polygon fill="midnightblue" stroke="midnightblue" points="1270.83,-113.94 1281.25,-112.01 1271.9,-107.02 1270.83,-113.94"/>
</g>
<!-- Node39&#45;&gt;Node11 -->
<g id="edge44" class="edge">
<title>Node39&#45;&gt;Node11</title>
<path fill="none" stroke="midnightblue" d="M1310.41,-100.17C1309.9,-91.09 1309.3,-80.59 1308.9,-73.55"/>
<polygon fill="midnightblue" stroke="midnightblue" points="1306.92,-100.43 1310.98,-110.22 1313.91,-100.04 1306.92,-100.43"/>
</g>
<!-- Node39&#45;&gt;Node13 -->
<g id="edge45" class="edge">
<title>Node39&#45;&gt;Node13</title>
<path fill="none" stroke="midnightblue" d="M1351.79,-110.54C1480.16,-103.32 2442.05,-117.77 2484.45,-74 2490.32,-67.93 2490.3,-61.09 2484.45,-55 2443.87,-12.82 1516.11,-10.57 1355.14,-10.49"/>
<polygon fill="midnightblue" stroke="midnightblue" points="1351.27,-107.07 1341.59,-111.36 1351.84,-114.04 1351.27,-107.07"/>
</g>
<!-- Node39&#45;&gt;Node14 -->
<g id="edge46" class="edge">
<title>Node39&#45;&gt;Node14</title>
<path fill="none" stroke="midnightblue" d="M1330.05,-104.21C1342.82,-94.41 1359.3,-81.75 1369.87,-73.63"/>
<polygon fill="midnightblue" stroke="midnightblue" points="1327.73,-101.58 1321.93,-110.45 1331.99,-107.13 1327.73,-101.58"/>
</g>
<!-- Node39&#45;&gt;Node15 -->
<g id="edge47" class="edge">
<title>Node39&#45;&gt;Node15</title>
<path fill="none" stroke="midnightblue" d="M1343.76,-107.08C1372.28,-97.01 1413.14,-82.57 1438.45,-73.63"/>
<polygon fill="midnightblue" stroke="midnightblue" points="1342.49,-103.82 1334.23,-110.45 1344.82,-110.42 1342.49,-103.82"/>
</g>
<!-- Node39&#45;&gt;Node16 -->
<g id="edge48" class="edge">
<title>Node39&#45;&gt;Node16</title>
<path fill="none" stroke="midnightblue" d="M1351.67,-109.73C1397.77,-99.67 1472.7,-83.33 1517.41,-73.58"/>
<polygon fill="midnightblue" stroke="midnightblue" points="1350.76,-106.34 1341.73,-111.89 1352.25,-113.18 1350.76,-106.34"/>
</g>
<!-- Node39&#45;&gt;Node17 -->
<g id="edge49" class="edge">
<title>Node39&#45;&gt;Node17</title>
<path fill="none" stroke="midnightblue" d="M1351.7,-109.9C1464.41,-90.05 1495.35,-93.3 1604.45,-74 1607.52,-73.46 1610.72,-72.85 1613.92,-72.21"/>
<polygon fill="midnightblue" stroke="midnightblue" points="1350.87,-106.49 1341.64,-111.69 1352.1,-113.38 1350.87,-106.49"/>
</g>
<!-- Node39&#45;&gt;Node18 -->
<g id="edge50" class="edge">
<title>Node39&#45;&gt;Node18</title>
<path fill="none" stroke="midnightblue" d="M1351.5,-110C1499.14,-86.74 1540.23,-100.6 1683.45,-74 1686.39,-73.45 1689.45,-72.78 1692.47,-72.05"/>
<polygon fill="midnightblue" stroke="midnightblue" points="1350.94,-106.55 1341.62,-111.59 1352.05,-113.46 1350.94,-106.55"/>
</g>
<!-- Node39&#45;&gt;Node19 -->
<g id="edge51" class="edge">
<title>Node39&#45;&gt;Node19</title>
<path fill="none" stroke="midnightblue" d="M1351.71,-110C1527.35,-83.79 1575.82,-101.9 1747.45,-74 1750.11,-73.57 1752.87,-73.05 1755.62,-72.48"/>
<polygon fill="midnightblue" stroke="midnightblue" points="1350.97,-106.58 1341.61,-111.54 1352.03,-113.5 1350.97,-106.58"/>
</g>
<!-- Node39&#45;&gt;Node20 -->
<g id="edge52" class="edge">
<title>Node39&#45;&gt;Node20</title>
<path fill="none" stroke="midnightblue" d="M1351.62,-110.05C1559.54,-80.58 1617.42,-110.16 1820.45,-74 1823.33,-73.49 1826.32,-72.81 1829.27,-72.07"/>
<polygon fill="midnightblue" stroke="midnightblue" points="1351,-106.6 1341.61,-111.5 1352,-113.53 1351,-106.6"/>
</g>
<!-- Node39&#45;&gt;Node21 -->
<g id="edge53" class="edge">
<title>Node39&#45;&gt;Node21</title>
<path fill="none" stroke="midnightblue" d="M1351.8,-110.04C1586.03,-77.82 1651.13,-113.83 1880.45,-74 1883.44,-73.48 1886.55,-72.78 1889.6,-72.01"/>
<polygon fill="midnightblue" stroke="midnightblue" points="1351.02,-106.61 1341.6,-111.47 1351.99,-113.55 1351.02,-106.61"/>
</g>
<!-- Node39&#45;&gt;Node22 -->
<g id="edge54" class="edge">
<title>Node39&#45;&gt;Node22</title>
<path fill="none" stroke="midnightblue" d="M1351.75,-110.06C1612.5,-75.03 1684.75,-117.5 1940.45,-74 1943.44,-73.49 1946.55,-72.8 1949.6,-72.03"/>
<polygon fill="midnightblue" stroke="midnightblue" points="1351.03,-106.62 1341.6,-111.45 1351.98,-113.56 1351.03,-106.62"/>
</g>
<!-- Node39&#45;&gt;Node23 -->
<g id="edge55" class="edge">
<title>Node39&#45;&gt;Node23</title>
<path fill="none" stroke="midnightblue" d="M1351.9,-110.05C1638.98,-72.08 1717.33,-114.06 2000.45,-74 2003.32,-73.59 2006.3,-73.08 2009.26,-72.5"/>
<polygon fill="midnightblue" stroke="midnightblue" points="1351.04,-106.63 1341.6,-111.43 1351.97,-113.57 1351.04,-106.63"/>
</g>
<!-- Node39&#45;&gt;Node24 -->
<g id="edge56" class="edge">
<title>Node39&#45;&gt;Node24</title>
<path fill="none" stroke="midnightblue" d="M1351.62,-110.09C1671.59,-68.53 1758.25,-115.19 2074.45,-74 2077.41,-73.61 2080.47,-73.13 2083.52,-72.58"/>
<polygon fill="midnightblue" stroke="midnightblue" points="1351.05,-106.64 1341.6,-111.42 1351.97,-113.58 1351.05,-106.64"/>
</g>
<!-- Node39&#45;&gt;Node25 -->
<g id="edge57" class="edge">
<title>Node39&#45;&gt;Node25</title>
<path fill="none" stroke="midnightblue" d="M1351.64,-110.1C1706.9,-64.67 1802.29,-113.55 2154.45,-74 2157.41,-73.67 2160.48,-73.26 2163.55,-72.8"/>
<polygon fill="midnightblue" stroke="midnightblue" points="1351.06,-106.65 1341.59,-111.4 1351.96,-113.59 1351.06,-106.65"/>
</g>
<!-- Node39&#45;&gt;Node26 -->
<g id="edge58" class="edge">
<title>Node39&#45;&gt;Node26</title>
<path fill="none" stroke="midnightblue" d="M1351.62,-110.11C1748.43,-60.43 1856.16,-128.94 2248.45,-74 2251.3,-73.6 2254.25,-73.07 2257.18,-72.47"/>
<polygon fill="midnightblue" stroke="midnightblue" points="1351.07,-106.65 1341.59,-111.39 1351.95,-113.6 1351.07,-106.65"/>
</g>
<!-- Node39&#45;&gt;Node27 -->
<g id="edge59" class="edge">
<title>Node39&#45;&gt;Node27</title>
<path fill="none" stroke="midnightblue" d="M1351.75,-110.1C1779.36,-57.05 1894.53,-126.53 2318.45,-74 2321.41,-73.63 2324.47,-73.16 2327.53,-72.62"/>
<polygon fill="midnightblue" stroke="midnightblue" points="1351.08,-106.66 1341.59,-111.38 1351.95,-113.6 1351.08,-106.66"/>
</g>
<!-- Node39&#45;&gt;Node28 -->
<g id="edge60" class="edge">
<title>Node39&#45;&gt;Node28</title>
<path fill="none" stroke="midnightblue" d="M1351.55,-110.13C1814.65,-53.2 1938.74,-126.98 2398.45,-74 2401.32,-73.67 2404.29,-73.25 2407.26,-72.77"/>
<polygon fill="midnightblue" stroke="midnightblue" points="1351.08,-106.66 1341.59,-111.37 1351.94,-113.61 1351.08,-106.66"/>
</g>
<!-- Node39&#45;&gt;Node29 -->
<g id="edge61" class="edge">
<title>Node39&#45;&gt;Node29</title>
<path fill="none" stroke="midnightblue" d="M1271.28,-110.48C1269.99,-110.31 1268.71,-110.15 1267.45,-110 860.95,-63.06 753.85,-121.82 347.45,-74 344.58,-73.66 341.61,-73.24 338.64,-72.76"/>
<polygon fill="midnightblue" stroke="midnightblue" points="1270.82,-113.95 1281.25,-112.04 1271.91,-107.04 1270.82,-113.95"/>
</g>
<!-- Node39&#45;&gt;Node30 -->
<g id="edge62" class="edge">
<title>Node39&#45;&gt;Node30</title>
<path fill="none" stroke="midnightblue" d="M1271.28,-110.49C1269.99,-110.31 1268.71,-110.15 1267.45,-110 892.34,-66.06 792.58,-125.62 418.45,-74 415.39,-73.58 412.22,-73.02 409.08,-72.38"/>
<polygon fill="midnightblue" stroke="midnightblue" points="1270.82,-113.96 1281.24,-112.05 1271.91,-107.04 1270.82,-113.96"/>
</g>
<!-- Node39&#45;&gt;Node31 -->
<g id="edge63" class="edge">
<title>Node39&#45;&gt;Node31</title>
<path fill="none" stroke="midnightblue" d="M1271.28,-110.49C1269.99,-110.31 1268.71,-110.15 1267.45,-110 919.31,-68.64 825.74,-128.69 479.45,-74 476.36,-73.51 473.14,-72.83 469.99,-72.07"/>
<polygon fill="midnightblue" stroke="midnightblue" points="1270.82,-113.96 1281.24,-112.07 1271.91,-107.05 1270.82,-113.96"/>
</g>
<!-- Node39&#45;&gt;Node32 -->
<g id="edge64" class="edge">
<title>Node39&#45;&gt;Node32</title>
<path fill="none" stroke="midnightblue" d="M1271.27,-110.5C1269.99,-110.32 1268.71,-110.15 1267.45,-110 951.14,-71.69 866.91,-118.79 551.45,-74 548.78,-73.62 546.01,-73.14 543.26,-72.59"/>
<polygon fill="midnightblue" stroke="midnightblue" points="1270.81,-113.97 1281.24,-112.08 1271.91,-107.06 1270.81,-113.97"/>
</g>
<!-- Node39&#45;&gt;Node33 -->
<g id="edge65" class="edge">
<title>Node39&#45;&gt;Node33</title>
<path fill="none" stroke="midnightblue" d="M1271.27,-110.51C1269.99,-110.33 1268.71,-110.16 1267.45,-110 984.28,-74.86 908.96,-114.09 626.45,-74 623.71,-73.61 620.87,-73.12 618.04,-72.57"/>
<polygon fill="midnightblue" stroke="midnightblue" points="1270.81,-113.98 1281.24,-112.11 1271.92,-107.07 1270.81,-113.98"/>
</g>
<!-- Node39&#45;&gt;Node34 -->
<g id="edge66" class="edge">
<title>Node39&#45;&gt;Node34</title>
<path fill="none" stroke="midnightblue" d="M1271.27,-110.53C1269.98,-110.34 1268.71,-110.16 1267.45,-110 1024.05,-78.66 959.91,-104.83 716.45,-74 713.45,-73.62 710.35,-73.17 707.25,-72.67"/>
<polygon fill="midnightblue" stroke="midnightblue" points="1270.8,-113.99 1281.23,-112.15 1271.92,-107.09 1270.8,-113.99"/>
</g>
<!-- Node39&#45;&gt;Node35 -->
<g id="edge67" class="edge">
<title>Node39&#45;&gt;Node35</title>
<path fill="none" stroke="midnightblue" d="M1271.27,-110.54C1269.98,-110.35 1268.71,-110.17 1267.45,-110 1057.61,-81.87 1001.85,-105.19 792.45,-74 789.64,-73.58 786.73,-73.07 783.83,-72.51"/>
<polygon fill="midnightblue" stroke="midnightblue" points="1270.79,-114.01 1281.23,-112.19 1271.93,-107.1 1270.79,-114.01"/>
</g>
<!-- Node39&#45;&gt;Node36 -->
<g id="edge68" class="edge">
<title>Node39&#45;&gt;Node36</title>
<path fill="none" stroke="midnightblue" d="M1271.27,-110.57C1269.98,-110.37 1268.7,-110.18 1267.45,-110 1097.32,-85.67 1052.63,-97.98 882.45,-74 879.61,-73.6 876.69,-73.15 873.75,-72.66"/>
<polygon fill="midnightblue" stroke="midnightblue" points="1270.77,-114.04 1281.22,-112.26 1271.94,-107.14 1270.77,-114.04"/>
</g>
<!-- Node39&#45;&gt;Node37 -->
<g id="edge69" class="edge">
<title>Node39&#45;&gt;Node37</title>
<path fill="none" stroke="midnightblue" d="M1271.26,-110.61C1269.98,-110.4 1268.7,-110.19 1267.45,-110 1129.93,-88.79 1093.58,-97.61 956.45,-74 953.59,-73.51 950.62,-72.93 947.67,-72.32"/>
<polygon fill="midnightblue" stroke="midnightblue" points="1270.75,-114.07 1281.2,-112.35 1271.96,-107.18 1270.75,-114.07"/>
</g>
<!-- Node41 -->
<g id="node41" class="node">
<title>Node41</title>
<g id="a_node41"><a xlink:href="../../d7/d7e/txhash_8h.html" target="_top" xlink:title=" ">
<polygon fill="white" stroke="black" points="1355.55,-165.5 1355.55,-183.5 1409.35,-183.5 1409.35,-165.5 1355.55,-165.5"/>
<text text-anchor="middle" x="1382.45" y="-171.5" font-family="Helvetica,sans-Serif" font-size="10.00">txhash.h</text>
</a>
</g>
</g>
<!-- Node40&#45;&gt;Node41 -->
<g id="edge71" class="edge">
<title>Node40&#45;&gt;Node41</title>
<path fill="none" stroke="midnightblue" d="M1382.45,-210.17C1382.45,-201.09 1382.45,-190.59 1382.45,-183.55"/>
<polygon fill="midnightblue" stroke="midnightblue" points="1378.95,-210.22 1382.45,-220.22 1385.95,-210.22 1378.95,-210.22"/>
</g>
<!-- Node41&#45;&gt;Node39 -->
<g id="edge72" class="edge">
<title>Node41&#45;&gt;Node39</title>
<path fill="none" stroke="midnightblue" d="M1363.3,-159.21C1350.17,-149.41 1333.21,-136.75 1322.33,-128.63"/>
<polygon fill="midnightblue" stroke="midnightblue" points="1361.56,-162.27 1371.66,-165.45 1365.75,-156.66 1361.56,-162.27"/>
</g>
<!-- Node42 -->
<g id="node42" class="node">
<title>Node42</title>
<g id="a_node42"><a xlink:href="../../de/da5/txtoken2_8_c.html" target="_top" xlink:title=" ">
<polygon fill="white" stroke="black" points="1359.55,-110.5 1359.55,-128.5 1423.35,-128.5 1423.35,-110.5 1359.55,-110.5"/>
<text text-anchor="middle" x="1391.45" y="-116.5" font-family="Helvetica,sans-Serif" font-size="10.00">txtoken2.C</text>
</a>
</g>
</g>
<!-- Node41&#45;&gt;Node42 -->
<g id="edge73" class="edge">
<title>Node41&#45;&gt;Node42</title>
<path fill="none" stroke="midnightblue" d="M1385.56,-155.17C1387.1,-146.09 1388.88,-135.59 1390.08,-128.55"/>
<polygon fill="midnightblue" stroke="midnightblue" points="1382.08,-154.77 1383.85,-165.22 1388.98,-155.95 1382.08,-154.77"/>
</g>
<!-- Node44 -->
<g id="node44" class="node">
<title>Node44</title>
<g id="a_node44"><a xlink:href="../../dc/d65/txstack_8h.html" target="_top" xlink:title=" ">
<polygon fill="white" stroke="black" points="324.72,-165.5 324.72,-183.5 380.18,-183.5 380.18,-165.5 324.72,-165.5"/>
<text text-anchor="middle" x="352.45" y="-171.5" font-family="Helvetica,sans-Serif" font-size="10.00">txstack.h</text>
</a>
</g>
</g>
<!-- Node43&#45;&gt;Node44 -->
<g id="edge75" class="edge">
<title>Node43&#45;&gt;Node44</title>
<path fill="none" stroke="midnightblue" d="M836.59,-225.23C742.83,-215.6 468.91,-187.46 380.39,-178.37"/>
<polygon fill="midnightblue" stroke="midnightblue" points="836.3,-228.72 846.61,-226.26 837.02,-221.75 836.3,-228.72"/>
</g>
<!-- Node44&#45;&gt;Node10 -->
<g id="edge79" class="edge">
<title>Node44&#45;&gt;Node10</title>
<path fill="none" stroke="midnightblue" d="M318.17,-162.28C250.54,-140.15 101.61,-91.41 44.94,-72.86"/>
<polygon fill="midnightblue" stroke="midnightblue" points="317.32,-165.69 327.91,-165.47 319.5,-159.03 317.32,-165.69"/>
</g>
<!-- Node44&#45;&gt;Node39 -->
<g id="edge76" class="edge">
<title>Node44&#45;&gt;Node39</title>
<path fill="none" stroke="midnightblue" d="M390.52,-173.58C516.19,-173.44 929.13,-169.7 1267.45,-129 1271.93,-128.46 1276.64,-127.73 1281.24,-126.92"/>
<polygon fill="midnightblue" stroke="midnightblue" points="390.27,-170.08 380.27,-173.59 390.27,-177.08 390.27,-170.08"/>
</g>
<!-- Node45 -->
<g id="node45" class="node">
<title>Node45</title>
<g id="a_node45"><a xlink:href="../../d8/d6d/txarray_8h.html" target="_top" xlink:title=" ">
<polygon fill="white" stroke="black" points="257.37,-110.5 257.37,-128.5 311.53,-128.5 311.53,-110.5 257.37,-110.5"/>
<text text-anchor="middle" x="284.45" y="-116.5" font-family="Helvetica,sans-Serif" font-size="10.00">txarray.h</text>
</a>
</g>
</g>
<!-- Node44&#45;&gt;Node45 -->
<g id="edge77" class="edge">
<title>Node44&#45;&gt;Node45</title>
<path fill="none" stroke="midnightblue" d="M334.11,-159.21C321.53,-149.41 305.29,-136.75 294.87,-128.63"/>
<polygon fill="midnightblue" stroke="midnightblue" points="332.08,-162.06 342.12,-165.45 336.38,-156.54 332.08,-162.06"/>
</g>
<!-- Node45&#45;&gt;Node9 -->
<g id="edge78" class="edge">
<title>Node45&#45;&gt;Node9</title>
<path fill="none" stroke="midnightblue" d="M247.03,-108.28C209.49,-98.02 152.52,-82.46 118.64,-73.2"/>
<polygon fill="midnightblue" stroke="midnightblue" points="246.5,-111.76 257.06,-111.02 248.34,-105.01 246.5,-111.76"/>
</g>
</g>
</svg>
