<?xml version="1.0" encoding="UTF-8" standalone="no"?>
<!DOCTYPE svg PUBLIC "-//W3C//DTD SVG 1.1//EN"
 "http://www.w3.org/Graphics/SVG/1.1/DTD/svg11.dtd">
<!-- Generated by graphviz version 2.43.0 (0)
 -->
<!-- Title: txstring.h Pages: 1 -->
<svg width="2522pt" height="302pt"
 viewBox="0.00 0.00 2522.36 302.00" xmlns="http://www.w3.org/2000/svg" xmlns:xlink="http://www.w3.org/1999/xlink">
<g id="graph0" class="graph" transform="scale(1 1) rotate(0) translate(4 298)">
<title>txstring.h</title>
<polygon fill="white" stroke="transparent" points="-4,4 -4,-298 2518.36,-298 2518.36,4 -4,4"/>
<!-- Node1 -->
<g id="node1" class="node">
<title>Node1</title>
<g id="a_node1"><a xlink:title=" ">
<polygon fill="#bfbfbf" stroke="black" points="1286.16,-275.5 1286.16,-293.5 1342.73,-293.5 1342.73,-275.5 1286.16,-275.5"/>
<text text-anchor="middle" x="1314.45" y="-281.5" font-family="Helvetica,sans-Serif" font-size="10.00">txstring.h</text>
</a>
</g>
</g>
<!-- Node2 -->
<g id="node2" class="node">
<title>Node2</title>
<g id="a_node2"><a xlink:href="../../d4/de9/_main_class_8h.html" target="_top" xlink:title=" ">
<polygon fill="white" stroke="black" points="1146.49,-165.5 1146.49,-183.5 1246.4,-183.5 1246.4,-165.5 1146.49,-165.5"/>
<text text-anchor="middle" x="1196.45" y="-171.5" font-family="Helvetica,sans-Serif" font-size="10.00">tralics/MainClass.h</text>
</a>
</g>
</g>
<!-- Node1&#45;&gt;Node2 -->
<g id="edge1" class="edge">
<title>Node1&#45;&gt;Node2</title>
<path fill="none" stroke="midnightblue" d="M1292.05,-269.97C1279.26,-261.76 1263.27,-250.63 1250.45,-239 1230.94,-221.3 1211.88,-196.67 1202.49,-183.91"/>
<polygon fill="midnightblue" stroke="midnightblue" points="1290.38,-273.05 1300.71,-275.4 1294.1,-267.12 1290.38,-273.05"/>
</g>
<!-- Node38 -->
<g id="node38" class="node">
<title>Node38</title>
<g id="a_node38"><a xlink:href="../../d7/d4d/txfonts_8h.html" target="_top" xlink:title=" ">
<polygon fill="white" stroke="black" points="1321.55,-220.5 1321.55,-238.5 1375.35,-238.5 1375.35,-220.5 1321.55,-220.5"/>
<text text-anchor="middle" x="1348.45" y="-226.5" font-family="Helvetica,sans-Serif" font-size="10.00">txfonts.h</text>
</a>
</g>
</g>
<!-- Node1&#45;&gt;Node38 -->
<g id="edge38" class="edge">
<title>Node1&#45;&gt;Node38</title>
<path fill="none" stroke="midnightblue" d="M1325.25,-266.66C1331.28,-257.26 1338.52,-245.98 1343.28,-238.55"/>
<polygon fill="midnightblue" stroke="midnightblue" points="1322.21,-264.91 1319.76,-275.22 1328.11,-268.69 1322.21,-264.91"/>
</g>
<!-- Node40 -->
<g id="node40" class="node">
<title>Node40</title>
<g id="a_node40"><a xlink:href="../../d3/d01/txeqtb_8h.html" target="_top" xlink:title=" ">
<polygon fill="white" stroke="black" points="1393.66,-220.5 1393.66,-238.5 1445.24,-238.5 1445.24,-220.5 1393.66,-220.5"/>
<text text-anchor="middle" x="1419.45" y="-226.5" font-family="Helvetica,sans-Serif" font-size="10.00">txeqtb.h</text>
</a>
</g>
</g>
<!-- Node1&#45;&gt;Node40 -->
<g id="edge71" class="edge">
<title>Node1&#45;&gt;Node40</title>
<path fill="none" stroke="midnightblue" d="M1339.46,-270.88C1359.26,-260.88 1386.33,-247.22 1403.35,-238.63"/>
<polygon fill="midnightblue" stroke="midnightblue" points="1337.75,-267.82 1330.4,-275.45 1340.9,-274.07 1337.75,-267.82"/>
</g>
<!-- Node43 -->
<g id="node43" class="node">
<title>Node43</title>
<g id="a_node43"><a xlink:href="../../d4/da4/txatt_8h.html" target="_top" xlink:title=" ">
<polygon fill="white" stroke="black" points="1259.83,-220.5 1259.83,-238.5 1303.07,-238.5 1303.07,-220.5 1259.83,-220.5"/>
<text text-anchor="middle" x="1281.45" y="-226.5" font-family="Helvetica,sans-Serif" font-size="10.00">txatt.h</text>
</a>
</g>
</g>
<!-- Node1&#45;&gt;Node43 -->
<g id="edge75" class="edge">
<title>Node1&#45;&gt;Node43</title>
<path fill="none" stroke="midnightblue" d="M1303.96,-266.66C1298.11,-257.26 1291.09,-245.98 1286.46,-238.55"/>
<polygon fill="midnightblue" stroke="midnightblue" points="1301.04,-268.58 1309.29,-275.22 1306.98,-264.88 1301.04,-268.58"/>
</g>
<!-- Node3 -->
<g id="node3" class="node">
<title>Node3</title>
<g id="a_node3"><a xlink:href="../../d7/d79/txinline_8h.html" target="_top" xlink:title=" ">
<polygon fill="white" stroke="black" points="1170.71,-110.5 1170.71,-128.5 1226.18,-128.5 1226.18,-110.5 1170.71,-110.5"/>
<text text-anchor="middle" x="1198.45" y="-116.5" font-family="Helvetica,sans-Serif" font-size="10.00">txinline.h</text>
</a>
</g>
</g>
<!-- Node2&#45;&gt;Node3 -->
<g id="edge2" class="edge">
<title>Node2&#45;&gt;Node3</title>
<path fill="none" stroke="midnightblue" d="M1197.14,-155.17C1197.48,-146.09 1197.88,-135.59 1198.14,-128.55"/>
<polygon fill="midnightblue" stroke="midnightblue" points="1193.64,-155.09 1196.76,-165.22 1200.64,-155.36 1193.64,-155.09"/>
</g>
<!-- Node6 -->
<g id="node6" class="node">
<title>Node6</title>
<g id="a_node6"><a xlink:href="../../de/dae/_main_class_8_c.html" target="_top" xlink:title=" ">
<polygon fill="white" stroke="black" points="63.11,-55.5 63.11,-73.5 135.79,-73.5 135.79,-55.5 63.11,-55.5"/>
<text text-anchor="middle" x="99.45" y="-61.5" font-family="Helvetica,sans-Serif" font-size="10.00">MainClass.C</text>
</a>
</g>
</g>
<!-- Node2&#45;&gt;Node6 -->
<g id="edge37" class="edge">
<title>Node2&#45;&gt;Node6</title>
<path fill="none" stroke="midnightblue" d="M1136.23,-169.76C974.94,-159.32 519.93,-127.1 144.45,-74 141.77,-73.62 139.01,-73.19 136.24,-72.74"/>
<polygon fill="midnightblue" stroke="midnightblue" points="1136.22,-173.27 1146.43,-170.42 1136.67,-166.28 1136.22,-173.27"/>
</g>
<!-- Node4 -->
<g id="node4" class="node">
<title>Node4</title>
<g id="a_node4"><a xlink:href="../../d2/dbb/globals_8_c.html" target="_top" xlink:title=" ">
<polygon fill="white" stroke="black" points="287.6,-55.5 287.6,-73.5 345.29,-73.5 345.29,-55.5 287.6,-55.5"/>
<text text-anchor="middle" x="316.45" y="-61.5" font-family="Helvetica,sans-Serif" font-size="10.00">globals.C</text>
</a>
</g>
</g>
<!-- Node3&#45;&gt;Node4 -->
<g id="edge3" class="edge">
<title>Node3&#45;&gt;Node4</title>
<path fill="none" stroke="midnightblue" d="M1160.67,-117.35C1018.21,-112.88 513.64,-95.84 354.45,-74 351.5,-73.6 348.44,-73.08 345.4,-72.5"/>
<polygon fill="midnightblue" stroke="midnightblue" points="1160.56,-120.85 1170.67,-117.66 1160.78,-113.85 1160.56,-120.85"/>
</g>
<!-- Node5 -->
<g id="node5" class="node">
<title>Node5</title>
<g id="a_node5"><a xlink:href="../../d4/dbc/_istring_8_c.html" target="_top" xlink:title=" ">
<polygon fill="white" stroke="black" points="216.83,-55.5 216.83,-73.5 270.06,-73.5 270.06,-55.5 216.83,-55.5"/>
<text text-anchor="middle" x="243.45" y="-61.5" font-family="Helvetica,sans-Serif" font-size="10.00">Istring.C</text>
</a>
</g>
</g>
<!-- Node3&#45;&gt;Node5 -->
<g id="edge4" class="edge">
<title>Node3&#45;&gt;Node5</title>
<path fill="none" stroke="midnightblue" d="M1160.13,-117.08C997.22,-110.97 366.54,-86.71 278.45,-74 275.73,-73.61 272.9,-73.1 270.1,-72.52"/>
<polygon fill="midnightblue" stroke="midnightblue" points="1160.48,-120.59 1170.6,-117.47 1160.74,-113.6 1160.48,-120.59"/>
</g>
<!-- Node3&#45;&gt;Node6 -->
<g id="edge5" class="edge">
<title>Node3&#45;&gt;Node6</title>
<path fill="none" stroke="midnightblue" d="M1160.39,-117.22C983.61,-111.23 246.81,-85.77 144.45,-74 141.76,-73.69 139,-73.31 136.22,-72.89"/>
<polygon fill="midnightblue" stroke="midnightblue" points="1160.4,-120.72 1170.52,-117.56 1160.64,-113.73 1160.4,-120.72"/>
</g>
<!-- Node7 -->
<g id="node7" class="node">
<title>Node7</title>
<g id="a_node7"><a xlink:href="../../dc/d29/tralics_8_c.html" target="_top" xlink:title=" ">
<polygon fill="white" stroke="black" points="363.39,-55.5 363.39,-73.5 415.5,-73.5 415.5,-55.5 363.39,-55.5"/>
<text text-anchor="middle" x="389.45" y="-61.5" font-family="Helvetica,sans-Serif" font-size="10.00">tralics.C</text>
</a>
</g>
</g>
<!-- Node3&#45;&gt;Node7 -->
<g id="edge6" class="edge">
<title>Node3&#45;&gt;Node7</title>
<path fill="none" stroke="midnightblue" d="M1160.31,-117.22C1025.1,-112.55 568.97,-95.52 424.45,-74 421.6,-73.58 418.65,-73.03 415.72,-72.42"/>
<polygon fill="midnightblue" stroke="midnightblue" points="1160.47,-120.73 1170.58,-117.57 1160.71,-113.73 1160.47,-120.73"/>
</g>
<!-- Node8 -->
<g id="node8" class="node">
<title>Node8</title>
<g id="a_node8"><a xlink:href="../../d5/d10/txaccent_8_c.html" target="_top" xlink:title=" ">
<polygon fill="white" stroke="black" points="433.83,-55.5 433.83,-73.5 497.07,-73.5 497.07,-55.5 433.83,-55.5"/>
<text text-anchor="middle" x="465.45" y="-61.5" font-family="Helvetica,sans-Serif" font-size="10.00">txaccent.C</text>
</a>
</g>
</g>
<!-- Node3&#45;&gt;Node8 -->
<g id="edge7" class="edge">
<title>Node3&#45;&gt;Node8</title>
<path fill="none" stroke="midnightblue" d="M1160.55,-117.93C1055.93,-115.94 754.43,-107.51 506.45,-74 503.42,-73.59 500.29,-73.09 497.16,-72.53"/>
<polygon fill="midnightblue" stroke="midnightblue" points="1160.56,-121.43 1170.62,-118.11 1160.69,-114.43 1160.56,-121.43"/>
</g>
<!-- Node9 -->
<g id="node9" class="node">
<title>Node9</title>
<g id="a_node9"><a xlink:href="../../df/de6/txarray_8_c.html" target="_top" xlink:title=" ">
<polygon fill="white" stroke="black" points="2458.54,-55.5 2458.54,-73.5 2514.36,-73.5 2514.36,-55.5 2458.54,-55.5"/>
<text text-anchor="middle" x="2486.45" y="-61.5" font-family="Helvetica,sans-Serif" font-size="10.00">txarray.C</text>
</a>
</g>
</g>
<!-- Node3&#45;&gt;Node9 -->
<g id="edge8" class="edge">
<title>Node3&#45;&gt;Node9</title>
<path fill="none" stroke="midnightblue" d="M1236.3,-115.12C1257.26,-113.36 1283.78,-111.31 1307.45,-110 1797.63,-82.91 1921.82,-109.67 2411.45,-74 2427,-72.87 2444.3,-70.95 2458.36,-69.22"/>
<polygon fill="midnightblue" stroke="midnightblue" points="1235.87,-111.65 1226.2,-115.99 1236.46,-118.62 1235.87,-111.65"/>
</g>
<!-- Node10 -->
<g id="node10" class="node">
<title>Node10</title>
<g id="a_node10"><a xlink:href="../../db/df0/txatt_8_c.html" target="_top" xlink:title=" ">
<polygon fill="white" stroke="black" points="0,-55.5 0,-73.5 44.9,-73.5 44.9,-55.5 0,-55.5"/>
<text text-anchor="middle" x="22.45" y="-61.5" font-family="Helvetica,sans-Serif" font-size="10.00">txatt.C</text>
</a>
</g>
</g>
<!-- Node3&#45;&gt;Node10 -->
<g id="edge9" class="edge">
<title>Node3&#45;&gt;Node10</title>
<path fill="none" stroke="midnightblue" d="M1160.4,-117.26C968.12,-110.94 110.27,-82.39 54.45,-74 51.38,-73.54 48.18,-72.89 45.04,-72.16"/>
<polygon fill="midnightblue" stroke="midnightblue" points="1160.47,-120.76 1170.58,-117.59 1160.7,-113.76 1160.47,-120.76"/>
</g>
<!-- Node11 -->
<g id="node11" class="node">
<title>Node11</title>
<g id="a_node11"><a xlink:href="../../dd/dce/txaux_8_c.html" target="_top" xlink:title=" ">
<polygon fill="white" stroke="black" points="515.5,-55.5 515.5,-73.5 565.4,-73.5 565.4,-55.5 515.5,-55.5"/>
<text text-anchor="middle" x="540.45" y="-61.5" font-family="Helvetica,sans-Serif" font-size="10.00">txaux.C</text>
</a>
</g>
</g>
<!-- Node3&#45;&gt;Node11 -->
<g id="edge10" class="edge">
<title>Node3&#45;&gt;Node11</title>
<path fill="none" stroke="midnightblue" d="M1160.29,-118.08C1062.36,-116.51 794.39,-109.06 574.45,-74 571.56,-73.54 568.57,-72.95 565.6,-72.31"/>
<polygon fill="midnightblue" stroke="midnightblue" points="1160.52,-121.58 1170.57,-118.23 1160.63,-114.58 1160.52,-121.58"/>
</g>
<!-- Node12 -->
<g id="node12" class="node">
<title>Node12</title>
<g id="a_node12"><a xlink:href="../../d6/dcb/txbib_8h.html" target="_top" xlink:title=" ">
<polygon fill="white" stroke="black" points="153.72,-55.5 153.72,-73.5 199.18,-73.5 199.18,-55.5 153.72,-55.5"/>
<text text-anchor="middle" x="176.45" y="-61.5" font-family="Helvetica,sans-Serif" font-size="10.00">txbib.h</text>
</a>
</g>
</g>
<!-- Node3&#45;&gt;Node12 -->
<g id="edge11" class="edge">
<title>Node3&#45;&gt;Node12</title>
<path fill="none" stroke="midnightblue" d="M1160.21,-117.29C989.68,-111.81 302.7,-89 207.45,-74 204.8,-73.58 202.06,-73.02 199.35,-72.39"/>
<polygon fill="midnightblue" stroke="midnightblue" points="1160.35,-120.79 1170.46,-117.62 1160.58,-113.8 1160.35,-120.79"/>
</g>
<!-- Node14 -->
<g id="node14" class="node">
<title>Node14</title>
<g id="a_node14"><a xlink:href="../../d4/df2/txbuffer_8_c.html" target="_top" xlink:title=" ">
<polygon fill="white" stroke="black" points="583.13,-55.5 583.13,-73.5 641.76,-73.5 641.76,-55.5 583.13,-55.5"/>
<text text-anchor="middle" x="612.45" y="-61.5" font-family="Helvetica,sans-Serif" font-size="10.00">txbuffer.C</text>
</a>
</g>
</g>
<!-- Node3&#45;&gt;Node14 -->
<g id="edge13" class="edge">
<title>Node3&#45;&gt;Node14</title>
<path fill="none" stroke="midnightblue" d="M1160.44,-117.23C1071.05,-113.86 840.66,-102.85 650.45,-74 647.64,-73.57 644.73,-73.06 641.83,-72.5"/>
<polygon fill="midnightblue" stroke="midnightblue" points="1160.51,-120.74 1170.63,-117.61 1160.77,-113.74 1160.51,-120.74"/>
</g>
<!-- Node15 -->
<g id="node15" class="node">
<title>Node15</title>
<g id="a_node15"><a xlink:href="../../de/ddd/txclasses_8_c.html" target="_top" xlink:title=" ">
<polygon fill="white" stroke="black" points="659.89,-55.5 659.89,-73.5 727.01,-73.5 727.01,-55.5 659.89,-55.5"/>
<text text-anchor="middle" x="693.45" y="-61.5" font-family="Helvetica,sans-Serif" font-size="10.00">txclasses.C</text>
</a>
</g>
</g>
<!-- Node3&#45;&gt;Node15 -->
<g id="edge14" class="edge">
<title>Node3&#45;&gt;Node15</title>
<path fill="none" stroke="midnightblue" d="M1160.48,-116.12C1081.34,-110.89 893.06,-96.96 736.45,-74 733.44,-73.56 730.32,-73.05 727.19,-72.5"/>
<polygon fill="midnightblue" stroke="midnightblue" points="1160.26,-119.62 1170.47,-116.78 1160.72,-112.63 1160.26,-119.62"/>
</g>
<!-- Node16 -->
<g id="node16" class="node">
<title>Node16</title>
<g id="a_node16"><a xlink:href="../../d4/d1e/txcommands_8_c.html" target="_top" xlink:title=" ">
<polygon fill="white" stroke="black" points="745.11,-55.5 745.11,-73.5 827.79,-73.5 827.79,-55.5 745.11,-55.5"/>
<text text-anchor="middle" x="786.45" y="-61.5" font-family="Helvetica,sans-Serif" font-size="10.00">txcommands.C</text>
</a>
</g>
</g>
<!-- Node3&#45;&gt;Node16 -->
<g id="edge15" class="edge">
<title>Node3&#45;&gt;Node16</title>
<path fill="none" stroke="midnightblue" d="M1159.97,-114.3C1093.9,-106.97 954.66,-90.98 837.45,-74 834.34,-73.55 831.13,-73.06 827.9,-72.56"/>
<polygon fill="midnightblue" stroke="midnightblue" points="1159.98,-117.82 1170.31,-115.44 1160.75,-110.87 1159.98,-117.82"/>
</g>
<!-- Node17 -->
<g id="node17" class="node">
<title>Node17</title>
<g id="a_node17"><a xlink:href="../../d9/d64/txconfig_8_c.html" target="_top" xlink:title=" ">
<polygon fill="white" stroke="black" points="846.22,-55.5 846.22,-73.5 906.68,-73.5 906.68,-55.5 846.22,-55.5"/>
<text text-anchor="middle" x="876.45" y="-61.5" font-family="Helvetica,sans-Serif" font-size="10.00">txconfig.C</text>
</a>
</g>
</g>
<!-- Node3&#45;&gt;Node17 -->
<g id="edge16" class="edge">
<title>Node3&#45;&gt;Node17</title>
<path fill="none" stroke="midnightblue" d="M1160.42,-113.24C1105.98,-105.55 1002.75,-90.36 915.45,-74 912.72,-73.49 909.9,-72.93 907.07,-72.35"/>
<polygon fill="midnightblue" stroke="midnightblue" points="1160.25,-116.75 1170.64,-114.68 1161.22,-109.82 1160.25,-116.75"/>
</g>
<!-- Node18 -->
<g id="node18" class="node">
<title>Node18</title>
<g id="a_node18"><a xlink:href="../../d1/d79/txerr_8_c.html" target="_top" xlink:title=" ">
<polygon fill="white" stroke="black" points="924.72,-55.5 924.72,-73.5 970.17,-73.5 970.17,-55.5 924.72,-55.5"/>
<text text-anchor="middle" x="947.45" y="-61.5" font-family="Helvetica,sans-Serif" font-size="10.00">txerr.C</text>
</a>
</g>
</g>
<!-- Node3&#45;&gt;Node18 -->
<g id="edge17" class="edge">
<title>Node3&#45;&gt;Node18</title>
<path fill="none" stroke="midnightblue" d="M1160.57,-111.65C1116.59,-103.51 1041.97,-89.11 978.45,-74 975.84,-73.38 973.12,-72.69 970.43,-71.99"/>
<polygon fill="midnightblue" stroke="midnightblue" points="1160.06,-115.11 1170.53,-113.48 1161.33,-108.23 1160.06,-115.11"/>
</g>
<!-- Node19 -->
<g id="node19" class="node">
<title>Node19</title>
<g id="a_node19"><a xlink:href="../../d7/d0d/txfonts_8_c.html" target="_top" xlink:title=" ">
<polygon fill="white" stroke="black" points="987.72,-55.5 987.72,-73.5 1043.18,-73.5 1043.18,-55.5 987.72,-55.5"/>
<text text-anchor="middle" x="1015.45" y="-61.5" font-family="Helvetica,sans-Serif" font-size="10.00">txfonts.C</text>
</a>
</g>
</g>
<!-- Node3&#45;&gt;Node19 -->
<g id="edge18" class="edge">
<title>Node3&#45;&gt;Node19</title>
<path fill="none" stroke="midnightblue" d="M1160.81,-107.6C1125.84,-97.47 1074.58,-82.63 1043.2,-73.54"/>
<polygon fill="midnightblue" stroke="midnightblue" points="1160.08,-111.03 1170.65,-110.45 1162.02,-104.31 1160.08,-111.03"/>
</g>
<!-- Node20 -->
<g id="node20" class="node">
<title>Node20</title>
<g id="a_node20"><a xlink:href="../../d1/dcd/txfp_8_c.html" target="_top" xlink:title=" ">
<polygon fill="white" stroke="black" points="1061.39,-55.5 1061.39,-73.5 1103.51,-73.5 1103.51,-55.5 1061.39,-55.5"/>
<text text-anchor="middle" x="1082.45" y="-61.5" font-family="Helvetica,sans-Serif" font-size="10.00">txfp.C</text>
</a>
</g>
</g>
<!-- Node3&#45;&gt;Node20 -->
<g id="edge19" class="edge">
<title>Node3&#45;&gt;Node20</title>
<path fill="none" stroke="midnightblue" d="M1171.71,-106.28C1149.76,-96.25 1119.29,-82.33 1100.23,-73.63"/>
<polygon fill="midnightblue" stroke="midnightblue" points="1170.28,-109.48 1180.83,-110.45 1173.19,-103.11 1170.28,-109.48"/>
</g>
<!-- Node21 -->
<g id="node21" class="node">
<title>Node21</title>
<g id="a_node21"><a xlink:href="../../d8/dc2/txio_8_c.html" target="_top" xlink:title=" ">
<polygon fill="white" stroke="black" points="1121.67,-55.5 1121.67,-73.5 1163.23,-73.5 1163.23,-55.5 1121.67,-55.5"/>
<text text-anchor="middle" x="1142.45" y="-61.5" font-family="Helvetica,sans-Serif" font-size="10.00">txio.C</text>
</a>
</g>
</g>
<!-- Node3&#45;&gt;Node21 -->
<g id="edge20" class="edge">
<title>Node3&#45;&gt;Node21</title>
<path fill="none" stroke="midnightblue" d="M1182.19,-103.11C1171.97,-93.44 1159.22,-81.37 1150.95,-73.55"/>
<polygon fill="midnightblue" stroke="midnightblue" points="1180.03,-105.89 1189.7,-110.22 1184.84,-100.8 1180.03,-105.89"/>
</g>
<!-- Node22 -->
<g id="node22" class="node">
<title>Node22</title>
<g id="a_node22"><a xlink:href="../../dc/dcd/txl3_8_c.html" target="_top" xlink:title=" ">
<polygon fill="white" stroke="black" points="1181.67,-55.5 1181.67,-73.5 1223.23,-73.5 1223.23,-55.5 1181.67,-55.5"/>
<text text-anchor="middle" x="1202.45" y="-61.5" font-family="Helvetica,sans-Serif" font-size="10.00">txl3.C</text>
</a>
</g>
</g>
<!-- Node3&#45;&gt;Node22 -->
<g id="edge21" class="edge">
<title>Node3&#45;&gt;Node22</title>
<path fill="none" stroke="midnightblue" d="M1199.83,-100.17C1200.52,-91.09 1201.31,-80.59 1201.84,-73.55"/>
<polygon fill="midnightblue" stroke="midnightblue" points="1196.34,-99.98 1199.07,-110.22 1203.32,-100.51 1196.34,-99.98"/>
</g>
<!-- Node23 -->
<g id="node23" class="node">
<title>Node23</title>
<g id="a_node23"><a xlink:href="../../db/d96/txmath_8_c.html" target="_top" xlink:title=" ">
<polygon fill="white" stroke="black" points="1241.44,-55.5 1241.44,-73.5 1297.45,-73.5 1297.45,-55.5 1241.44,-55.5"/>
<text text-anchor="middle" x="1269.45" y="-61.5" font-family="Helvetica,sans-Serif" font-size="10.00">txmath.C</text>
</a>
</g>
</g>
<!-- Node3&#45;&gt;Node23 -->
<g id="edge22" class="edge">
<title>Node3&#45;&gt;Node23</title>
<path fill="none" stroke="midnightblue" d="M1217.59,-104.21C1230.73,-94.41 1247.68,-81.75 1258.56,-73.63"/>
<polygon fill="midnightblue" stroke="midnightblue" points="1215.15,-101.66 1209.23,-110.45 1219.34,-107.27 1215.15,-101.66"/>
</g>
<!-- Node24 -->
<g id="node24" class="node">
<title>Node24</title>
<g id="a_node24"><a xlink:href="../../d8/dc6/txmath1_8_c.html" target="_top" xlink:title=" ">
<polygon fill="white" stroke="black" points="1315.66,-55.5 1315.66,-73.5 1377.23,-73.5 1377.23,-55.5 1315.66,-55.5"/>
<text text-anchor="middle" x="1346.45" y="-61.5" font-family="Helvetica,sans-Serif" font-size="10.00">txmath1.C</text>
</a>
</g>
</g>
<!-- Node3&#45;&gt;Node24 -->
<g id="edge23" class="edge">
<title>Node3&#45;&gt;Node24</title>
<path fill="none" stroke="midnightblue" d="M1230.7,-106.95C1258.82,-96.88 1298.9,-82.53 1323.76,-73.63"/>
<polygon fill="midnightblue" stroke="midnightblue" points="1229.16,-103.78 1220.93,-110.45 1231.52,-110.37 1229.16,-103.78"/>
</g>
<!-- Node25 -->
<g id="node25" class="node">
<title>Node25</title>
<g id="a_node25"><a xlink:href="../../d7/dd3/txmathboot_8_c.html" target="_top" xlink:title=" ">
<polygon fill="white" stroke="black" points="1395.71,-55.5 1395.71,-73.5 1471.18,-73.5 1471.18,-55.5 1395.71,-55.5"/>
<text text-anchor="middle" x="1433.45" y="-61.5" font-family="Helvetica,sans-Serif" font-size="10.00">txmathboot.C</text>
</a>
</g>
</g>
<!-- Node3&#45;&gt;Node25 -->
<g id="edge24" class="edge">
<title>Node3&#45;&gt;Node25</title>
<path fill="none" stroke="midnightblue" d="M1236.19,-109.99C1280.77,-99.93 1354.37,-83.34 1397.95,-73.51"/>
<polygon fill="midnightblue" stroke="midnightblue" points="1235.31,-106.6 1226.33,-112.21 1236.85,-113.43 1235.31,-106.6"/>
</g>
<!-- Node26 -->
<g id="node26" class="node">
<title>Node26</title>
<g id="a_node26"><a xlink:href="../../dd/d48/txmlio_8_c.html" target="_top" xlink:title=" ">
<polygon fill="white" stroke="black" points="1489.39,-55.5 1489.39,-73.5 1541.5,-73.5 1541.5,-55.5 1489.39,-55.5"/>
<text text-anchor="middle" x="1515.45" y="-61.5" font-family="Helvetica,sans-Serif" font-size="10.00">txmlio.C</text>
</a>
</g>
</g>
<!-- Node3&#45;&gt;Node26 -->
<g id="edge25" class="edge">
<title>Node3&#45;&gt;Node26</title>
<path fill="none" stroke="midnightblue" d="M1236.4,-113.52C1290.71,-106.15 1393.65,-91.36 1480.45,-74 1483.27,-73.44 1486.21,-72.8 1489.13,-72.14"/>
<polygon fill="midnightblue" stroke="midnightblue" points="1235.64,-110.09 1226.2,-114.89 1236.58,-117.02 1235.64,-110.09"/>
</g>
<!-- Node27 -->
<g id="node27" class="node">
<title>Node27</title>
<g id="a_node27"><a xlink:href="../../d7/dc3/txparser_8_c.html" target="_top" xlink:title=" ">
<polygon fill="white" stroke="black" points="1559.66,-55.5 1559.66,-73.5 1621.24,-73.5 1621.24,-55.5 1559.66,-55.5"/>
<text text-anchor="middle" x="1590.45" y="-61.5" font-family="Helvetica,sans-Serif" font-size="10.00">txparser.C</text>
</a>
</g>
</g>
<!-- Node3&#45;&gt;Node27 -->
<g id="edge26" class="edge">
<title>Node3&#45;&gt;Node27</title>
<path fill="none" stroke="midnightblue" d="M1236.54,-114.74C1301.28,-108.11 1436.82,-93.22 1550.45,-74 1553.39,-73.5 1556.44,-72.94 1559.49,-72.35"/>
<polygon fill="midnightblue" stroke="midnightblue" points="1236,-111.28 1226.4,-115.77 1236.7,-118.24 1236,-111.28"/>
</g>
<!-- Node28 -->
<g id="node28" class="node">
<title>Node28</title>
<g id="a_node28"><a xlink:href="../../d5/d2e/txparser2_8_c.html" target="_top" xlink:title=" ">
<polygon fill="white" stroke="black" points="1639.61,-55.5 1639.61,-73.5 1707.29,-73.5 1707.29,-55.5 1639.61,-55.5"/>
<text text-anchor="middle" x="1673.45" y="-61.5" font-family="Helvetica,sans-Serif" font-size="10.00">txparser2.C</text>
</a>
</g>
</g>
<!-- Node3&#45;&gt;Node28 -->
<g id="edge27" class="edge">
<title>Node3&#45;&gt;Node28</title>
<path fill="none" stroke="midnightblue" d="M1236.32,-115.05C1327.01,-106.73 1554.69,-85.36 1630.45,-74 1633.31,-73.57 1636.27,-73.08 1639.23,-72.56"/>
<polygon fill="midnightblue" stroke="midnightblue" points="1235.85,-111.58 1226.22,-115.98 1236.49,-118.55 1235.85,-111.58"/>
</g>
<!-- Node29 -->
<g id="node29" class="node">
<title>Node29</title>
<g id="a_node29"><a xlink:href="../../d4/d5c/txparser3_8_c.html" target="_top" xlink:title=" ">
<polygon fill="white" stroke="black" points="1725.61,-55.5 1725.61,-73.5 1793.29,-73.5 1793.29,-55.5 1725.61,-55.5"/>
<text text-anchor="middle" x="1759.45" y="-61.5" font-family="Helvetica,sans-Serif" font-size="10.00">txparser3.C</text>
</a>
</g>
</g>
<!-- Node3&#45;&gt;Node29 -->
<g id="edge28" class="edge">
<title>Node3&#45;&gt;Node29</title>
<path fill="none" stroke="midnightblue" d="M1236.55,-115.47C1348.14,-106.56 1669.32,-80.66 1716.45,-74 1719.31,-73.6 1722.27,-73.12 1725.24,-72.61"/>
<polygon fill="midnightblue" stroke="midnightblue" points="1236.12,-111.99 1226.43,-116.28 1236.67,-118.97 1236.12,-111.99"/>
</g>
<!-- Node30 -->
<g id="node30" class="node">
<title>Node30</title>
<g id="a_node30"><a xlink:href="../../db/d66/txpost_8_c.html" target="_top" xlink:title=" ">
<polygon fill="white" stroke="black" points="1811.11,-55.5 1811.11,-73.5 1863.79,-73.5 1863.79,-55.5 1811.11,-55.5"/>
<text text-anchor="middle" x="1837.45" y="-61.5" font-family="Helvetica,sans-Serif" font-size="10.00">txpost.C</text>
</a>
</g>
</g>
<!-- Node3&#45;&gt;Node30 -->
<g id="edge29" class="edge">
<title>Node3&#45;&gt;Node30</title>
<path fill="none" stroke="midnightblue" d="M1236.33,-115.5C1257.29,-113.85 1283.81,-111.78 1307.45,-110 1527.41,-93.43 1584.53,-108.15 1802.45,-74 1805.17,-73.57 1807.98,-73.04 1810.79,-72.46"/>
<polygon fill="midnightblue" stroke="midnightblue" points="1235.92,-112.02 1226.22,-116.29 1236.47,-119 1235.92,-112.02"/>
</g>
<!-- Node31 -->
<g id="node31" class="node">
<title>Node31</title>
<g id="a_node31"><a xlink:href="../../dc/d4c/txra_8_c.html" target="_top" xlink:title=" ">
<polygon fill="white" stroke="black" points="1882.11,-55.5 1882.11,-73.5 1924.78,-73.5 1924.78,-55.5 1882.11,-55.5"/>
<text text-anchor="middle" x="1903.45" y="-61.5" font-family="Helvetica,sans-Serif" font-size="10.00">txra.C</text>
</a>
</g>
</g>
<!-- Node3&#45;&gt;Node31 -->
<g id="edge30" class="edge">
<title>Node3&#45;&gt;Node31</title>
<path fill="none" stroke="midnightblue" d="M1236.32,-115.41C1257.28,-113.74 1283.8,-111.68 1307.45,-110 1558.44,-92.22 1624.27,-115.48 1872.45,-74 1875.53,-73.48 1878.75,-72.79 1881.89,-72.01"/>
<polygon fill="midnightblue" stroke="midnightblue" points="1235.9,-111.94 1226.22,-116.23 1236.46,-118.91 1235.9,-111.94"/>
</g>
<!-- Node32 -->
<g id="node32" class="node">
<title>Node32</title>
<g id="a_node32"><a xlink:href="../../d2/dee/txscan_8_c.html" target="_top" xlink:title=" ">
<polygon fill="white" stroke="black" points="1943,-55.5 1943,-73.5 1997.9,-73.5 1997.9,-55.5 1943,-55.5"/>
<text text-anchor="middle" x="1970.45" y="-61.5" font-family="Helvetica,sans-Serif" font-size="10.00">txscan.C</text>
</a>
</g>
</g>
<!-- Node3&#45;&gt;Node32 -->
<g id="edge31" class="edge">
<title>Node3&#45;&gt;Node32</title>
<path fill="none" stroke="midnightblue" d="M1236.32,-115.36C1257.28,-113.66 1283.8,-111.6 1307.45,-110 1585.49,-91.17 1657.56,-113.34 1933.45,-74 1936.45,-73.57 1939.57,-73.02 1942.66,-72.41"/>
<polygon fill="midnightblue" stroke="midnightblue" points="1235.9,-111.88 1226.21,-116.18 1236.46,-118.86 1235.9,-111.88"/>
</g>
<!-- Node33 -->
<g id="node33" class="node">
<title>Node33</title>
<g id="a_node33"><a xlink:href="../../d3/df2/txstack_8_c.html" target="_top" xlink:title=" ">
<polygon fill="white" stroke="black" points="2015.89,-55.5 2015.89,-73.5 2073.01,-73.5 2073.01,-55.5 2015.89,-55.5"/>
<text text-anchor="middle" x="2044.45" y="-61.5" font-family="Helvetica,sans-Serif" font-size="10.00">txstack.C</text>
</a>
</g>
</g>
<!-- Node3&#45;&gt;Node33 -->
<g id="edge32" class="edge">
<title>Node3&#45;&gt;Node33</title>
<path fill="none" stroke="midnightblue" d="M1236.32,-115.3C1257.27,-113.59 1283.79,-111.53 1307.45,-110 1617.88,-89.91 1698.23,-116.1 2006.45,-74 2009.4,-73.6 2012.45,-73.08 2015.49,-72.5"/>
<polygon fill="midnightblue" stroke="midnightblue" points="1235.89,-111.82 1226.21,-116.13 1236.46,-118.8 1235.89,-111.82"/>
</g>
<!-- Node34 -->
<g id="node34" class="node">
<title>Node34</title>
<g id="a_node34"><a xlink:href="../../da/d89/txtitlepage_8_c.html" target="_top" xlink:title=" ">
<polygon fill="white" stroke="black" points="2090.66,-55.5 2090.66,-73.5 2162.24,-73.5 2162.24,-55.5 2090.66,-55.5"/>
<text text-anchor="middle" x="2126.45" y="-61.5" font-family="Helvetica,sans-Serif" font-size="10.00">txtitlepage.C</text>
</a>
</g>
</g>
<!-- Node3&#45;&gt;Node34 -->
<g id="edge33" class="edge">
<title>Node3&#45;&gt;Node34</title>
<path fill="none" stroke="midnightblue" d="M1236.31,-115.25C1257.27,-113.53 1283.79,-111.47 1307.45,-110 1651.6,-88.59 1740.06,-114.81 2082.45,-74 2085.07,-73.69 2087.78,-73.31 2090.5,-72.88"/>
<polygon fill="midnightblue" stroke="midnightblue" points="1235.88,-111.78 1226.21,-116.09 1236.46,-118.75 1235.88,-111.78"/>
</g>
<!-- Node35 -->
<g id="node35" class="node">
<title>Node35</title>
<g id="a_node35"><a xlink:href="../../d9/d1e/txtoken_8_c.html" target="_top" xlink:title=" ">
<polygon fill="white" stroke="black" points="2180.33,-55.5 2180.33,-73.5 2238.57,-73.5 2238.57,-55.5 2180.33,-55.5"/>
<text text-anchor="middle" x="2209.45" y="-61.5" font-family="Helvetica,sans-Serif" font-size="10.00">txtoken.C</text>
</a>
</g>
</g>
<!-- Node3&#45;&gt;Node35 -->
<g id="edge34" class="edge">
<title>Node3&#45;&gt;Node35</title>
<path fill="none" stroke="midnightblue" d="M1236.31,-115.21C1257.26,-113.47 1283.78,-111.42 1307.45,-110 1691.1,-87.06 1790.4,-124.15 2171.45,-74 2174.26,-73.63 2177.18,-73.15 2180.08,-72.61"/>
<polygon fill="midnightblue" stroke="midnightblue" points="1235.88,-111.73 1226.21,-116.06 1236.46,-118.71 1235.88,-111.73"/>
</g>
<!-- Node36 -->
<g id="node36" class="node">
<title>Node36</title>
<g id="a_node36"><a xlink:href="../../d5/dda/txtranslate_8_c.html" target="_top" xlink:title=" ">
<polygon fill="white" stroke="black" points="2256.38,-55.5 2256.38,-73.5 2328.51,-73.5 2328.51,-55.5 2256.38,-55.5"/>
<text text-anchor="middle" x="2292.45" y="-61.5" font-family="Helvetica,sans-Serif" font-size="10.00">txtranslate.C</text>
</a>
</g>
</g>
<!-- Node3&#45;&gt;Node36 -->
<g id="edge35" class="edge">
<title>Node3&#45;&gt;Node36</title>
<path fill="none" stroke="midnightblue" d="M1236.31,-115.18C1257.26,-113.43 1283.78,-111.38 1307.45,-110 1724.83,-85.74 1832.01,-120.93 2247.45,-74 2250.29,-73.68 2253.23,-73.28 2256.17,-72.83"/>
<polygon fill="midnightblue" stroke="midnightblue" points="1235.87,-111.7 1226.2,-116.03 1236.46,-118.68 1235.87,-111.7"/>
</g>
<!-- Node37 -->
<g id="node37" class="node">
<title>Node37</title>
<g id="a_node37"><a xlink:href="../../da/d9e/txtrees_8_c.html" target="_top" xlink:title=" ">
<polygon fill="white" stroke="black" points="2346.44,-55.5 2346.44,-73.5 2402.45,-73.5 2402.45,-55.5 2346.44,-55.5"/>
<text text-anchor="middle" x="2374.45" y="-61.5" font-family="Helvetica,sans-Serif" font-size="10.00">txtrees.C</text>
</a>
</g>
</g>
<!-- Node3&#45;&gt;Node37 -->
<g id="edge36" class="edge">
<title>Node3&#45;&gt;Node37</title>
<path fill="none" stroke="midnightblue" d="M1236.31,-115.15C1257.26,-113.39 1283.78,-111.34 1307.45,-110 1764.78,-84.19 1883.28,-133.55 2337.45,-74 2340.32,-73.62 2343.3,-73.12 2346.27,-72.56"/>
<polygon fill="midnightblue" stroke="midnightblue" points="1235.87,-111.67 1226.2,-116.01 1236.46,-118.65 1235.87,-111.67"/>
</g>
<!-- Node13 -->
<g id="node13" class="node">
<title>Node13</title>
<g id="a_node13"><a xlink:href="../../d1/d56/txbib_8_c.html" target="_top" xlink:title=" ">
<polygon fill="white" stroke="black" points="1279.89,-0.5 1279.89,-18.5 1327.01,-18.5 1327.01,-0.5 1279.89,-0.5"/>
<text text-anchor="middle" x="1303.45" y="-6.5" font-family="Helvetica,sans-Serif" font-size="10.00">txbib.C</text>
</a>
</g>
</g>
<!-- Node12&#45;&gt;Node13 -->
<g id="edge12" class="edge">
<title>Node12&#45;&gt;Node13</title>
<path fill="none" stroke="midnightblue" d="M209.54,-55.06C445.14,-21.05 1141.24,-12.19 1279.45,-10.73"/>
<polygon fill="midnightblue" stroke="midnightblue" points="208.71,-51.65 199.35,-56.6 209.75,-58.57 208.71,-51.65"/>
</g>
<!-- Node39 -->
<g id="node39" class="node">
<title>Node39</title>
<g id="a_node39"><a xlink:href="../../d2/d1b/txparser_8h.html" target="_top" xlink:title=" ">
<polygon fill="white" stroke="black" points="1316.49,-110.5 1316.49,-128.5 1376.41,-128.5 1376.41,-110.5 1316.49,-110.5"/>
<text text-anchor="middle" x="1346.45" y="-116.5" font-family="Helvetica,sans-Serif" font-size="10.00">txparser.h</text>
</a>
</g>
</g>
<!-- Node38&#45;&gt;Node39 -->
<g id="edge39" class="edge">
<title>Node38&#45;&gt;Node39</title>
<path fill="none" stroke="midnightblue" d="M1348.11,-210.24C1347.67,-186.49 1346.92,-146 1346.6,-128.71"/>
<polygon fill="midnightblue" stroke="midnightblue" points="1344.61,-210.45 1348.3,-220.38 1351.61,-210.32 1344.61,-210.45"/>
</g>
<!-- Node39&#45;&gt;Node4 -->
<g id="edge40" class="edge">
<title>Node39&#45;&gt;Node4</title>
<path fill="none" stroke="midnightblue" d="M1306.12,-115.07C1285.07,-113.36 1258.89,-111.38 1235.45,-110 844.24,-87.04 743,-124.98 354.45,-74 351.5,-73.61 348.44,-73.11 345.4,-72.54"/>
<polygon fill="midnightblue" stroke="midnightblue" points="1306.06,-118.57 1316.32,-115.9 1306.64,-111.6 1306.06,-118.57"/>
</g>
<!-- Node39&#45;&gt;Node6 -->
<g id="edge41" class="edge">
<title>Node39&#45;&gt;Node6</title>
<path fill="none" stroke="midnightblue" d="M1306.13,-114.99C1285.08,-113.26 1258.89,-111.28 1235.45,-110 751.02,-83.47 626.68,-127.18 144.45,-74 141.76,-73.7 138.99,-73.34 136.22,-72.92"/>
<polygon fill="midnightblue" stroke="midnightblue" points="1306.06,-118.5 1316.32,-115.84 1306.64,-111.52 1306.06,-118.5"/>
</g>
<!-- Node39&#45;&gt;Node7 -->
<g id="edge42" class="edge">
<title>Node39&#45;&gt;Node7</title>
<path fill="none" stroke="midnightblue" d="M1306.12,-115.1C1285.07,-113.4 1258.88,-111.42 1235.45,-110 875.31,-88.22 781.65,-124.81 424.45,-74 421.6,-73.59 418.65,-73.06 415.72,-72.46"/>
<polygon fill="midnightblue" stroke="midnightblue" points="1306.06,-118.61 1316.31,-115.93 1306.63,-111.63 1306.06,-118.61"/>
</g>
<!-- Node39&#45;&gt;Node8 -->
<g id="edge43" class="edge">
<title>Node39&#45;&gt;Node8</title>
<path fill="none" stroke="midnightblue" d="M1306.12,-115.15C1285.07,-113.46 1258.88,-111.48 1235.45,-110 911.69,-89.61 828.24,-115.05 506.45,-74 503.42,-73.61 500.28,-73.13 497.15,-72.58"/>
<polygon fill="midnightblue" stroke="midnightblue" points="1306.06,-118.65 1316.31,-115.97 1306.63,-111.68 1306.06,-118.65"/>
</g>
<!-- Node39&#45;&gt;Node9 -->
<g id="edge44" class="edge">
<title>Node39&#45;&gt;Node9</title>
<path fill="none" stroke="midnightblue" d="M1386.65,-110.12C1854.53,-52.71 1980.03,-128.51 2444.45,-74 2448.88,-73.48 2453.54,-72.74 2458.08,-71.9"/>
<polygon fill="midnightblue" stroke="midnightblue" points="1386.08,-106.66 1376.59,-111.37 1386.94,-113.61 1386.08,-106.66"/>
</g>
<!-- Node39&#45;&gt;Node11 -->
<g id="edge45" class="edge">
<title>Node39&#45;&gt;Node11</title>
<path fill="none" stroke="midnightblue" d="M1306.12,-115.2C1285.06,-113.53 1258.88,-111.53 1235.45,-110 941.86,-90.77 865.37,-117.88 574.45,-74 571.56,-73.56 568.56,-72.99 565.59,-72.35"/>
<polygon fill="midnightblue" stroke="midnightblue" points="1306.06,-118.7 1316.31,-116.01 1306.62,-111.73 1306.06,-118.7"/>
</g>
<!-- Node39&#45;&gt;Node13 -->
<g id="edge46" class="edge">
<title>Node39&#45;&gt;Node13</title>
<path fill="none" stroke="midnightblue" d="M1386.62,-110.55C1506.32,-103.69 2373.22,-113.59 2411.45,-74 2417.31,-67.93 2417.3,-61.09 2411.45,-55 2372.56,-14.52 1484.72,-10.86 1327.22,-10.53"/>
<polygon fill="midnightblue" stroke="midnightblue" points="1386.27,-107.07 1376.59,-111.37 1386.84,-114.04 1386.27,-107.07"/>
</g>
<!-- Node39&#45;&gt;Node14 -->
<g id="edge47" class="edge">
<title>Node39&#45;&gt;Node14</title>
<path fill="none" stroke="midnightblue" d="M1306.11,-115.27C1285.06,-113.61 1258.87,-111.62 1235.45,-110 975.58,-92.05 908.36,-110.55 650.45,-74 647.64,-73.6 644.73,-73.11 641.82,-72.55"/>
<polygon fill="midnightblue" stroke="midnightblue" points="1306.06,-118.77 1316.31,-116.07 1306.61,-111.79 1306.06,-118.77"/>
</g>
<!-- Node39&#45;&gt;Node15 -->
<g id="edge48" class="edge">
<title>Node39&#45;&gt;Node15</title>
<path fill="none" stroke="midnightblue" d="M1306.1,-115.37C1285.05,-113.74 1258.86,-111.74 1235.45,-110 1013.71,-93.51 956.82,-103.62 736.45,-74 733.43,-73.59 730.31,-73.11 727.18,-72.58"/>
<polygon fill="midnightblue" stroke="midnightblue" points="1306.06,-118.87 1316.3,-116.16 1306.6,-111.9 1306.06,-118.87"/>
</g>
<!-- Node39&#45;&gt;Node16 -->
<g id="edge49" class="edge">
<title>Node39&#45;&gt;Node16</title>
<path fill="none" stroke="midnightblue" d="M1306.41,-115.41C1202.89,-107.34 928.16,-85.51 837.45,-74 834.33,-73.6 831.11,-73.16 827.88,-72.68"/>
<polygon fill="midnightblue" stroke="midnightblue" points="1306.21,-118.9 1316.46,-116.19 1306.76,-111.92 1306.21,-118.9"/>
</g>
<!-- Node39&#45;&gt;Node17 -->
<g id="edge50" class="edge">
<title>Node39&#45;&gt;Node17</title>
<path fill="none" stroke="midnightblue" d="M1306.32,-114.94C1214.3,-106.67 990.28,-85.98 915.45,-74 912.71,-73.56 909.88,-73.05 907.04,-72.51"/>
<polygon fill="midnightblue" stroke="midnightblue" points="1306.08,-118.43 1316.35,-115.83 1306.71,-111.46 1306.08,-118.43"/>
</g>
<!-- Node39&#45;&gt;Node18 -->
<g id="edge51" class="edge">
<title>Node39&#45;&gt;Node18</title>
<path fill="none" stroke="midnightblue" d="M1305.87,-115.56C1237.74,-110.18 1096.23,-97.14 978.45,-74 975.82,-73.48 973.09,-72.86 970.38,-72.19"/>
<polygon fill="midnightblue" stroke="midnightblue" points="1305.92,-119.07 1316.16,-116.36 1306.46,-112.09 1305.92,-119.07"/>
</g>
<!-- Node39&#45;&gt;Node19 -->
<g id="edge52" class="edge">
<title>Node39&#45;&gt;Node19</title>
<path fill="none" stroke="midnightblue" d="M1306.27,-113.4C1249.5,-105.97 1142.68,-91.17 1052.45,-74 1049.47,-73.43 1046.37,-72.8 1043.28,-72.13"/>
<polygon fill="midnightblue" stroke="midnightblue" points="1305.9,-116.88 1316.27,-114.7 1306.81,-109.94 1305.9,-116.88"/>
</g>
<!-- Node39&#45;&gt;Node20 -->
<g id="edge53" class="edge">
<title>Node39&#45;&gt;Node20</title>
<path fill="none" stroke="midnightblue" d="M1306.31,-111.98C1259.53,-104.11 1179.98,-89.96 1112.45,-74 1109.6,-73.33 1106.62,-72.56 1103.69,-71.77"/>
<polygon fill="midnightblue" stroke="midnightblue" points="1305.91,-115.46 1316.35,-113.65 1307.06,-108.55 1305.91,-115.46"/>
</g>
<!-- Node39&#45;&gt;Node21 -->
<g id="edge54" class="edge">
<title>Node39&#45;&gt;Node21</title>
<path fill="none" stroke="midnightblue" d="M1306.29,-108.54C1270.97,-99.71 1218.21,-86.33 1172.45,-74 1169.52,-73.21 1166.44,-72.36 1163.41,-71.51"/>
<polygon fill="midnightblue" stroke="midnightblue" points="1305.66,-111.99 1316.21,-111.02 1307.36,-105.2 1305.66,-111.99"/>
</g>
<!-- Node39&#45;&gt;Node22 -->
<g id="edge55" class="edge">
<title>Node39&#45;&gt;Node22</title>
<path fill="none" stroke="midnightblue" d="M1314.96,-106.91C1287.24,-96.71 1247.66,-82.14 1223.58,-73.28"/>
<polygon fill="midnightblue" stroke="midnightblue" points="1313.98,-110.28 1324.58,-110.45 1316.4,-103.71 1313.98,-110.28"/>
</g>
<!-- Node39&#45;&gt;Node23 -->
<g id="edge56" class="edge">
<title>Node39&#45;&gt;Node23</title>
<path fill="none" stroke="midnightblue" d="M1326.5,-104.77C1312.15,-94.89 1293.28,-81.9 1281.25,-73.63"/>
<polygon fill="midnightblue" stroke="midnightblue" points="1324.53,-107.66 1334.75,-110.45 1328.5,-101.9 1324.53,-107.66"/>
</g>
<!-- Node39&#45;&gt;Node24 -->
<g id="edge57" class="edge">
<title>Node39&#45;&gt;Node24</title>
<path fill="none" stroke="midnightblue" d="M1346.45,-100.17C1346.45,-91.09 1346.45,-80.59 1346.45,-73.55"/>
<polygon fill="midnightblue" stroke="midnightblue" points="1342.95,-100.22 1346.45,-110.22 1349.95,-100.22 1342.95,-100.22"/>
</g>
<!-- Node39&#45;&gt;Node25 -->
<g id="edge58" class="edge">
<title>Node39&#45;&gt;Node25</title>
<path fill="none" stroke="midnightblue" d="M1368.53,-105.05C1384.8,-95.14 1406.39,-81.98 1420.11,-73.63"/>
<polygon fill="midnightblue" stroke="midnightblue" points="1366.38,-102.26 1359.66,-110.45 1370.02,-108.24 1366.38,-102.26"/>
</g>
<!-- Node39&#45;&gt;Node26 -->
<g id="edge59" class="edge">
<title>Node39&#45;&gt;Node26</title>
<path fill="none" stroke="midnightblue" d="M1382.04,-107.34C1414.31,-97.22 1461.09,-82.55 1489.82,-73.54"/>
<polygon fill="midnightblue" stroke="midnightblue" points="1380.61,-104.12 1372.12,-110.45 1382.7,-110.8 1380.61,-104.12"/>
</g>
<!-- Node39&#45;&gt;Node27 -->
<g id="edge60" class="edge">
<title>Node39&#45;&gt;Node27</title>
<path fill="none" stroke="midnightblue" d="M1386.6,-109.75C1453.89,-95.12 1521.29,-80.5 1559.54,-72.2"/>
<polygon fill="midnightblue" stroke="midnightblue" points="1385.71,-106.36 1376.68,-111.91 1387.2,-113.2 1385.71,-106.36"/>
</g>
<!-- Node39&#45;&gt;Node28 -->
<g id="edge61" class="edge">
<title>Node39&#45;&gt;Node28</title>
<path fill="none" stroke="midnightblue" d="M1386.71,-109.88C1495.45,-90.39 1525.16,-92.13 1630.45,-74 1633.3,-73.51 1636.25,-72.98 1639.21,-72.43"/>
<polygon fill="midnightblue" stroke="midnightblue" points="1385.86,-106.48 1376.64,-111.71 1387.1,-113.37 1385.86,-106.48"/>
</g>
<!-- Node39&#45;&gt;Node29 -->
<g id="edge62" class="edge">
<title>Node39&#45;&gt;Node29</title>
<path fill="none" stroke="midnightblue" d="M1386.88,-109.93C1533.29,-86.65 1573.46,-95.87 1716.45,-74 1719.31,-73.56 1722.26,-73.07 1725.23,-72.54"/>
<polygon fill="midnightblue" stroke="midnightblue" points="1385.94,-106.54 1376.62,-111.59 1387.05,-113.45 1385.94,-106.54"/>
</g>
<!-- Node39&#45;&gt;Node30 -->
<g id="edge63" class="edge">
<title>Node39&#45;&gt;Node30</title>
<path fill="none" stroke="midnightblue" d="M1386.64,-110.02C1571.15,-82.89 1622.09,-103.51 1802.45,-74 1805.16,-73.56 1807.98,-73.01 1810.78,-72.42"/>
<polygon fill="midnightblue" stroke="midnightblue" points="1385.98,-106.58 1376.61,-111.53 1387.02,-113.51 1385.98,-106.58"/>
</g>
<!-- Node39&#45;&gt;Node31 -->
<g id="edge64" class="edge">
<title>Node39&#45;&gt;Node31</title>
<path fill="none" stroke="midnightblue" d="M1386.65,-110.05C1602.03,-79.77 1661.81,-110.31 1872.45,-74 1875.53,-73.47 1878.74,-72.76 1881.89,-71.99"/>
<polygon fill="midnightblue" stroke="midnightblue" points="1386.01,-106.6 1376.61,-111.49 1387,-113.53 1386.01,-106.6"/>
</g>
<!-- Node39&#45;&gt;Node32 -->
<g id="edge65" class="edge">
<title>Node39&#45;&gt;Node32</title>
<path fill="none" stroke="midnightblue" d="M1386.77,-110.04C1628.94,-76.82 1695.26,-108.95 1933.45,-74 1936.45,-73.56 1939.56,-73 1942.66,-72.39"/>
<polygon fill="midnightblue" stroke="midnightblue" points="1386.02,-106.61 1376.6,-111.46 1386.99,-113.55 1386.02,-106.61"/>
</g>
<!-- Node39&#45;&gt;Node33 -->
<g id="edge66" class="edge">
<title>Node39&#45;&gt;Node33</title>
<path fill="none" stroke="midnightblue" d="M1386.86,-110.05C1661.17,-73.41 1735.99,-111.83 2006.45,-74 2009.39,-73.59 2012.45,-73.07 2015.49,-72.49"/>
<polygon fill="midnightblue" stroke="midnightblue" points="1386.04,-106.63 1376.6,-111.44 1386.98,-113.56 1386.04,-106.63"/>
</g>
<!-- Node39&#45;&gt;Node34 -->
<g id="edge67" class="edge">
<title>Node39&#45;&gt;Node34</title>
<path fill="none" stroke="midnightblue" d="M1386.71,-110.08C1694.68,-69.74 1777.84,-111.11 2082.45,-74 2085.07,-73.68 2087.78,-73.3 2090.49,-72.87"/>
<polygon fill="midnightblue" stroke="midnightblue" points="1386.05,-106.63 1376.6,-111.42 1386.97,-113.57 1386.05,-106.63"/>
</g>
<!-- Node39&#45;&gt;Node35 -->
<g id="edge68" class="edge">
<title>Node39&#45;&gt;Node35</title>
<path fill="none" stroke="midnightblue" d="M1386.68,-110.09C1733.98,-65.66 1828.13,-119.9 2171.45,-74 2174.26,-73.62 2177.18,-73.14 2180.08,-72.6"/>
<polygon fill="midnightblue" stroke="midnightblue" points="1386.06,-106.65 1376.59,-111.4 1386.96,-113.59 1386.06,-106.65"/>
</g>
<!-- Node39&#45;&gt;Node36 -->
<g id="edge69" class="edge">
<title>Node39&#45;&gt;Node36</title>
<path fill="none" stroke="midnightblue" d="M1386.79,-110.09C1767.54,-61.98 1869.85,-117.32 2247.45,-74 2250.29,-73.67 2253.23,-73.27 2256.17,-72.82"/>
<polygon fill="midnightblue" stroke="midnightblue" points="1386.07,-106.65 1376.59,-111.39 1386.96,-113.59 1386.07,-106.65"/>
</g>
<!-- Node39&#45;&gt;Node37 -->
<g id="edge70" class="edge">
<title>Node39&#45;&gt;Node37</title>
<path fill="none" stroke="midnightblue" d="M1386.59,-110.12C1807.27,-57.84 1920.99,-129.21 2337.45,-74 2340.32,-73.62 2343.3,-73.12 2346.27,-72.55"/>
<polygon fill="midnightblue" stroke="midnightblue" points="1386.08,-106.66 1376.59,-111.38 1386.95,-113.6 1386.08,-106.66"/>
</g>
<!-- Node41 -->
<g id="node41" class="node">
<title>Node41</title>
<g id="a_node41"><a xlink:href="../../d7/d7e/txhash_8h.html" target="_top" xlink:title=" ">
<polygon fill="white" stroke="black" points="1392.55,-165.5 1392.55,-183.5 1446.35,-183.5 1446.35,-165.5 1392.55,-165.5"/>
<text text-anchor="middle" x="1419.45" y="-171.5" font-family="Helvetica,sans-Serif" font-size="10.00">txhash.h</text>
</a>
</g>
</g>
<!-- Node40&#45;&gt;Node41 -->
<g id="edge72" class="edge">
<title>Node40&#45;&gt;Node41</title>
<path fill="none" stroke="midnightblue" d="M1419.45,-210.17C1419.45,-201.09 1419.45,-190.59 1419.45,-183.55"/>
<polygon fill="midnightblue" stroke="midnightblue" points="1415.95,-210.22 1419.45,-220.22 1422.95,-210.22 1415.95,-210.22"/>
</g>
<!-- Node41&#45;&gt;Node39 -->
<g id="edge73" class="edge">
<title>Node41&#45;&gt;Node39</title>
<path fill="none" stroke="midnightblue" d="M1400.15,-159.49C1386.6,-149.65 1368.93,-136.83 1357.64,-128.63"/>
<polygon fill="midnightblue" stroke="midnightblue" points="1398.21,-162.41 1408.36,-165.45 1402.33,-156.74 1398.21,-162.41"/>
</g>
<!-- Node42 -->
<g id="node42" class="node">
<title>Node42</title>
<g id="a_node42"><a xlink:href="../../de/da5/txtoken2_8_c.html" target="_top" xlink:title=" ">
<polygon fill="white" stroke="black" points="1466.55,-110.5 1466.55,-128.5 1530.35,-128.5 1530.35,-110.5 1466.55,-110.5"/>
<text text-anchor="middle" x="1498.45" y="-116.5" font-family="Helvetica,sans-Serif" font-size="10.00">txtoken2.C</text>
</a>
</g>
</g>
<!-- Node41&#45;&gt;Node42 -->
<g id="edge74" class="edge">
<title>Node41&#45;&gt;Node42</title>
<path fill="none" stroke="midnightblue" d="M1439.91,-159.77C1454.63,-149.89 1474,-136.9 1486.34,-128.63"/>
<polygon fill="midnightblue" stroke="midnightblue" points="1437.8,-156.97 1431.45,-165.45 1441.7,-162.79 1437.8,-156.97"/>
</g>
<!-- Node44 -->
<g id="node44" class="node">
<title>Node44</title>
<g id="a_node44"><a xlink:href="../../dc/d65/txstack_8h.html" target="_top" xlink:title=" ">
<polygon fill="white" stroke="black" points="1264.72,-165.5 1264.72,-183.5 1320.18,-183.5 1320.18,-165.5 1264.72,-165.5"/>
<text text-anchor="middle" x="1292.45" y="-171.5" font-family="Helvetica,sans-Serif" font-size="10.00">txstack.h</text>
</a>
</g>
</g>
<!-- Node43&#45;&gt;Node44 -->
<g id="edge76" class="edge">
<title>Node43&#45;&gt;Node44</title>
<path fill="none" stroke="midnightblue" d="M1285.25,-210.17C1287.14,-201.09 1289.32,-190.59 1290.78,-183.55"/>
<polygon fill="midnightblue" stroke="midnightblue" points="1281.77,-209.72 1283.17,-220.22 1288.63,-211.14 1281.77,-209.72"/>
</g>
<!-- Node44&#45;&gt;Node10 -->
<g id="edge80" class="edge">
<title>Node44&#45;&gt;Node10</title>
<path fill="none" stroke="midnightblue" d="M1254.45,-165.1C724.37,-85.62 578.9,-162.75 54.45,-74 51.39,-73.48 48.19,-72.8 45.06,-72.06"/>
<polygon fill="midnightblue" stroke="midnightblue" points="1254.24,-168.61 1264.65,-166.64 1255.29,-161.69 1254.24,-168.61"/>
</g>
<!-- Node44&#45;&gt;Node39 -->
<g id="edge77" class="edge">
<title>Node44&#45;&gt;Node39</title>
<path fill="none" stroke="midnightblue" d="M1308.13,-158.11C1317.98,-148.44 1330.28,-136.37 1338.25,-128.55"/>
<polygon fill="midnightblue" stroke="midnightblue" points="1305.57,-155.72 1300.89,-165.22 1310.47,-160.71 1305.57,-155.72"/>
</g>
<!-- Node45 -->
<g id="node45" class="node">
<title>Node45</title>
<g id="a_node45"><a xlink:href="../../d8/d6d/txarray_8h.html" target="_top" xlink:title=" ">
<polygon fill="white" stroke="black" points="1394.37,-110.5 1394.37,-128.5 1448.53,-128.5 1448.53,-110.5 1394.37,-110.5"/>
<text text-anchor="middle" x="1421.45" y="-116.5" font-family="Helvetica,sans-Serif" font-size="10.00">txarray.h</text>
</a>
</g>
</g>
<!-- Node44&#45;&gt;Node45 -->
<g id="edge78" class="edge">
<title>Node44&#45;&gt;Node45</title>
<path fill="none" stroke="midnightblue" d="M1321.53,-161.55C1345.98,-151.5 1380.29,-137.41 1401.67,-128.63"/>
<polygon fill="midnightblue" stroke="midnightblue" points="1319.96,-158.41 1312.04,-165.45 1322.62,-164.89 1319.96,-158.41"/>
</g>
<!-- Node45&#45;&gt;Node9 -->
<g id="edge79" class="edge">
<title>Node45&#45;&gt;Node9</title>
<path fill="none" stroke="midnightblue" d="M1458.88,-110.1C1894.24,-52.4 2011.85,-125.32 2444.45,-74 2448.88,-73.47 2453.54,-72.73 2458.08,-71.89"/>
<polygon fill="midnightblue" stroke="midnightblue" points="1458.31,-106.65 1448.86,-111.44 1459.24,-113.58 1458.31,-106.65"/>
</g>
</g>
</svg>
