<?xml version="1.0" encoding="UTF-8" standalone="no"?>
<!DOCTYPE svg PUBLIC "-//W3C//DTD SVG 1.1//EN"
 "http://www.w3.org/Graphics/SVG/1.1/DTD/svg11.dtd">
<!-- Generated by graphviz version 2.42.3 (20191010.1750)
 -->
<!-- Title: txparser.cpp Pages: 1 -->
<svg width="777pt" height="742pt"
 viewBox="0.00 0.00 776.67 742.00" xmlns="http://www.w3.org/2000/svg" xmlns:xlink="http://www.w3.org/1999/xlink">
<g id="graph0" class="graph" transform="scale(1 1) rotate(0) translate(4 738)">
<title>txparser.cpp</title>
<!-- Node1 -->
<g id="node1" class="node">
<title>Node1</title>
<g id="a_node1"><a xlink:title=" ">
<polygon fill="#bfbfbf" stroke="black" points="366.76,-715.5 366.76,-733.5 437.24,-733.5 437.24,-715.5 366.76,-715.5"/>
<text text-anchor="middle" x="402" y="-721.5" font-family="Helvetica,sans-Serif" font-size="10.00">txparser.cpp</text>
</a>
</g>
</g>
<!-- Node2 -->
<g id="node2" class="node">
<title>Node2</title>
<g id="a_node2"><a xlink:href="../../d2/d1b/txparser_8h.html" target="_top" xlink:title=" ">
<polygon fill="none" stroke="black" points="306.04,-660.5 306.04,-678.5 365.96,-678.5 365.96,-660.5 306.04,-660.5"/>
<text text-anchor="middle" x="336" y="-666.5" font-family="Helvetica,sans-Serif" font-size="10.00">txparser.h</text>
</a>
</g>
</g>
<!-- Node1&#45;&gt;Node2 -->
<g id="edge1" class="edge">
<title>Node1&#45;&gt;Node2</title>
<path fill="none" stroke="midnightblue" d="M391.98,-715.45C381.99,-707.43 366.44,-694.95 354.26,-685.17"/>
<polygon fill="midnightblue" stroke="midnightblue" points="356.11,-682.16 346.12,-678.63 351.72,-687.62 356.11,-682.16"/>
</g>
<!-- Node37 -->
<g id="node37" class="node">
<title>Node37</title>
<g id="a_node37"><a xlink:href="../../d7/d79/txinline_8h.html" target="_top" xlink:title=" ">
<polygon fill="none" stroke="black" points="509.27,-660.5 509.27,-678.5 564.73,-678.5 564.73,-660.5 509.27,-660.5"/>
<text text-anchor="middle" x="537" y="-666.5" font-family="Helvetica,sans-Serif" font-size="10.00">txinline.h</text>
</a>
</g>
</g>
<!-- Node1&#45;&gt;Node37 -->
<g id="edge56" class="edge">
<title>Node1&#45;&gt;Node37</title>
<path fill="none" stroke="midnightblue" d="M422.5,-715.45C444.9,-706.66 481.01,-692.48 506.69,-682.4"/>
<polygon fill="midnightblue" stroke="midnightblue" points="508.27,-685.54 516.3,-678.63 505.72,-679.02 508.27,-685.54"/>
</g>
<!-- Node3 -->
<g id="node3" class="node">
<title>Node3</title>
<g id="a_node3"><a xlink:href="../../d8/dd6/_e_q_t_b_8h.html" target="_top" xlink:title=" ">
<polygon fill="none" stroke="black" points="210.77,-605.5 210.77,-623.5 291.23,-623.5 291.23,-605.5 210.77,-605.5"/>
<text text-anchor="middle" x="251" y="-611.5" font-family="Helvetica,sans-Serif" font-size="10.00">tralics/EQTB.h</text>
</a>
</g>
</g>
<!-- Node2&#45;&gt;Node3 -->
<g id="edge2" class="edge">
<title>Node2&#45;&gt;Node3</title>
<path fill="none" stroke="midnightblue" d="M323.09,-660.45C309.74,-652.12 288.64,-638.97 272.71,-629.04"/>
<polygon fill="midnightblue" stroke="midnightblue" points="274.37,-625.95 264.03,-623.63 270.66,-631.89 274.37,-625.95"/>
</g>
<!-- Node27 -->
<g id="node27" class="node">
<title>Node27</title>
<g id="a_node27"><a xlink:href="../../d3/d6b/txcond_8h.html" target="_top" xlink:title=" ">
<polygon fill="none" stroke="black" points="28.1,-440.5 28.1,-458.5 81.9,-458.5 81.9,-440.5 28.1,-440.5"/>
<text text-anchor="middle" x="55" y="-446.5" font-family="Helvetica,sans-Serif" font-size="10.00">txcond.h</text>
</a>
</g>
</g>
<!-- Node2&#45;&gt;Node27 -->
<g id="edge35" class="edge">
<title>Node2&#45;&gt;Node27</title>
<path fill="none" stroke="midnightblue" d="M305.9,-668.37C240.55,-667.37 88.97,-661.04 57,-624 18.81,-579.76 37.36,-502.93 48.58,-468.31"/>
<polygon fill="midnightblue" stroke="midnightblue" points="51.96,-469.25 51.88,-458.65 45.33,-466.98 51.96,-469.25"/>
</g>
<!-- Node28 -->
<g id="node28" class="node">
<title>Node28</title>
<g id="a_node28"><a xlink:href="../../d7/d4d/txfonts_8h.html" target="_top" xlink:title=" ">
<polygon fill="none" stroke="black" points="396.1,-550.5 396.1,-568.5 449.9,-568.5 449.9,-550.5 396.1,-550.5"/>
<text text-anchor="middle" x="423" y="-556.5" font-family="Helvetica,sans-Serif" font-size="10.00">txfonts.h</text>
</a>
</g>
</g>
<!-- Node2&#45;&gt;Node28 -->
<g id="edge38" class="edge">
<title>Node2&#45;&gt;Node28</title>
<path fill="none" stroke="midnightblue" d="M342.64,-660.31C349.87,-651.38 361.77,-636.69 372,-624 384.98,-607.9 399.77,-589.47 410.07,-576.63"/>
<polygon fill="midnightblue" stroke="midnightblue" points="412.88,-578.72 416.41,-568.73 407.42,-574.34 412.88,-578.72"/>
</g>
<!-- Node29 -->
<g id="node29" class="node">
<title>Node29</title>
<g id="a_node29"><a xlink:href="../../d7/d7e/txhash_8h.html" target="_top" xlink:title=" ">
<polygon fill="none" stroke="black" points="309.1,-605.5 309.1,-623.5 362.9,-623.5 362.9,-605.5 309.1,-605.5"/>
<text text-anchor="middle" x="336" y="-611.5" font-family="Helvetica,sans-Serif" font-size="10.00">txhash.h</text>
</a>
</g>
</g>
<!-- Node2&#45;&gt;Node29 -->
<g id="edge40" class="edge">
<title>Node2&#45;&gt;Node29</title>
<path fill="none" stroke="midnightblue" d="M336,-660.22C336,-653.18 336,-642.81 336,-633.83"/>
<polygon fill="midnightblue" stroke="midnightblue" points="339.5,-633.55 336,-623.55 332.5,-633.55 339.5,-633.55"/>
</g>
<!-- Node31 -->
<g id="node31" class="node">
<title>Node31</title>
<g id="a_node31"><a xlink:href="../../de/d7c/tximage_8h.html" target="_top" xlink:title=" ">
<polygon fill="none" stroke="black" points="487.32,-330.5 487.32,-348.5 546.68,-348.5 546.68,-330.5 487.32,-330.5"/>
<text text-anchor="middle" x="517" y="-336.5" font-family="Helvetica,sans-Serif" font-size="10.00">tximage.h</text>
</a>
</g>
</g>
<!-- Node2&#45;&gt;Node31 -->
<g id="edge43" class="edge">
<title>Node2&#45;&gt;Node31</title>
<path fill="none" stroke="midnightblue" d="M366.11,-665.99C439.49,-659.61 623.11,-642.02 644,-624 666.31,-604.76 663,-589.96 663,-560.5 663,-560.5 663,-560.5 663,-448.5 663,-395.41 599.84,-365.44 556.6,-351.14"/>
<polygon fill="midnightblue" stroke="midnightblue" points="557.49,-347.75 546.9,-348.08 555.38,-354.42 557.49,-347.75"/>
</g>
<!-- Node32 -->
<g id="node32" class="node">
<title>Node32</title>
<g id="a_node32"><a xlink:href="../../de/d29/txio_8h.html" target="_top" xlink:title=" ">
<polygon fill="none" stroke="black" points="527.05,-550.5 527.05,-568.5 566.95,-568.5 566.95,-550.5 527.05,-550.5"/>
<text text-anchor="middle" x="547" y="-556.5" font-family="Helvetica,sans-Serif" font-size="10.00">txio.h</text>
</a>
</g>
</g>
<!-- Node2&#45;&gt;Node32 -->
<g id="edge46" class="edge">
<title>Node2&#45;&gt;Node32</title>
<path fill="none" stroke="midnightblue" d="M366.01,-665.22C413.96,-659.4 504.8,-645.78 528,-624 540.31,-612.44 544.75,-593.26 546.3,-579"/>
<polygon fill="midnightblue" stroke="midnightblue" points="549.8,-579.08 547.02,-568.86 542.82,-578.59 549.8,-579.08"/>
</g>
<!-- Node34 -->
<g id="node34" class="node">
<title>Node34</title>
<g id="a_node34"><a xlink:href="../../dc/d65/txstack_8h.html" target="_top" xlink:title=" ">
<polygon fill="none" stroke="black" points="66.27,-605.5 66.27,-623.5 121.73,-623.5 121.73,-605.5 66.27,-605.5"/>
<text text-anchor="middle" x="94" y="-611.5" font-family="Helvetica,sans-Serif" font-size="10.00">txstack.h</text>
</a>
</g>
</g>
<!-- Node2&#45;&gt;Node34 -->
<g id="edge49" class="edge">
<title>Node2&#45;&gt;Node34</title>
<path fill="none" stroke="midnightblue" d="M305.94,-662.19C267.67,-654.13 199.26,-639.57 131.83,-624.39"/>
<polygon fill="midnightblue" stroke="midnightblue" points="132.42,-620.93 121.9,-622.14 130.88,-627.76 132.42,-620.93"/>
</g>
<!-- Node36 -->
<g id="node36" class="node">
<title>Node36</title>
<g id="a_node36"><a xlink:href="../../d8/d3d/txstats_8h.html" target="_top" xlink:title=" ">
<polygon fill="none" stroke="black" points="139.38,-605.5 139.38,-623.5 192.62,-623.5 192.62,-605.5 139.38,-605.5"/>
<text text-anchor="middle" x="166" y="-611.5" font-family="Helvetica,sans-Serif" font-size="10.00">txstats.h</text>
</a>
</g>
</g>
<!-- Node2&#45;&gt;Node36 -->
<g id="edge55" class="edge">
<title>Node2&#45;&gt;Node36</title>
<path fill="none" stroke="midnightblue" d="M310.18,-660.45C281.14,-651.4 233.8,-636.64 201.34,-626.52"/>
<polygon fill="midnightblue" stroke="midnightblue" points="202.37,-623.17 191.78,-623.54 200.29,-629.86 202.37,-623.17"/>
</g>
<!-- Node4 -->
<g id="node4" class="node">
<title>Node4</title>
<g id="a_node4"><a xlink:href="../../d9/d18/txscaled_8h.html" target="_top" xlink:title=" ">
<polygon fill="none" stroke="black" points="224.32,-385.5 224.32,-403.5 293.68,-403.5 293.68,-385.5 224.32,-385.5"/>
<text text-anchor="middle" x="259" y="-391.5" font-family="Helvetica,sans-Serif" font-size="10.00">../txscaled.h</text>
</a>
</g>
</g>
<!-- Node3&#45;&gt;Node4 -->
<g id="edge3" class="edge">
<title>Node3&#45;&gt;Node4</title>
<path fill="none" stroke="midnightblue" d="M251.29,-605.48C252.45,-574.11 256.66,-459.16 258.32,-413.94"/>
<polygon fill="midnightblue" stroke="midnightblue" points="261.83,-413.94 258.69,-403.82 254.83,-413.69 261.83,-413.94"/>
</g>
<!-- Node14 -->
<g id="node14" class="node">
<title>Node14</title>
<g id="a_node14"><a xlink:title=" ">
<polygon fill="none" stroke="#bfbfbf" points="380.77,-220.5 380.77,-238.5 421.23,-238.5 421.23,-220.5 380.77,-220.5"/>
<text text-anchor="middle" x="401" y="-226.5" font-family="Helvetica,sans-Serif" font-size="10.00">string</text>
</a>
</g>
</g>
<!-- Node3&#45;&gt;Node14 -->
<g id="edge34" class="edge">
<title>Node3&#45;&gt;Node14</title>
<path fill="none" stroke="midnightblue" d="M287.07,-605.48C308.03,-599.02 333.33,-587.8 349,-569 429.67,-472.2 412.41,-303.69 404.08,-248.54"/>
<polygon fill="midnightblue" stroke="midnightblue" points="407.52,-247.87 402.48,-238.56 400.61,-248.98 407.52,-247.87"/>
</g>
<!-- Node15 -->
<g id="node15" class="node">
<title>Node15</title>
<g id="a_node15"><a xlink:href="../../dd/dcd/_token_8h.html" target="_top" xlink:title=" ">
<polygon fill="none" stroke="black" points="138.04,-275.5 138.04,-293.5 217.96,-293.5 217.96,-275.5 138.04,-275.5"/>
<text text-anchor="middle" x="178" y="-281.5" font-family="Helvetica,sans-Serif" font-size="10.00">tralics/Token.h</text>
</a>
</g>
</g>
<!-- Node3&#45;&gt;Node15 -->
<g id="edge33" class="edge">
<title>Node3&#45;&gt;Node15</title>
<path fill="none" stroke="midnightblue" d="M248.09,-605.42C236.74,-573.44 195.31,-452.47 180,-349 177.78,-333.96 177.37,-316.71 177.46,-303.99"/>
<polygon fill="midnightblue" stroke="midnightblue" points="180.97,-303.84 177.66,-293.77 173.97,-303.71 180.97,-303.84"/>
</g>
<!-- Node21 -->
<g id="node21" class="node">
<title>Node21</title>
<g id="a_node21"><a xlink:href="../../d1/d43/txxml_8h.html" target="_top" xlink:title=" ">
<polygon fill="none" stroke="black" points="128,-550.5 128,-568.5 184,-568.5 184,-550.5 128,-550.5"/>
<text text-anchor="middle" x="156" y="-556.5" font-family="Helvetica,sans-Serif" font-size="10.00">../txxml.h</text>
</a>
</g>
</g>
<!-- Node3&#45;&gt;Node21 -->
<g id="edge22" class="edge">
<title>Node3&#45;&gt;Node21</title>
<path fill="none" stroke="midnightblue" d="M236.57,-605.45C221.51,-597.05 197.63,-583.72 179.77,-573.76"/>
<polygon fill="midnightblue" stroke="midnightblue" points="181,-570.44 170.56,-568.63 177.59,-576.55 181,-570.44"/>
</g>
<!-- Node5 -->
<g id="node5" class="node">
<title>Node5</title>
<g id="a_node5"><a xlink:href="../../dc/d91/txtokenlist_8h.html" target="_top" xlink:title=" ">
<polygon fill="none" stroke="black" points="246.6,-330.5 246.6,-348.5 315.4,-348.5 315.4,-330.5 246.6,-330.5"/>
<text text-anchor="middle" x="281" y="-336.5" font-family="Helvetica,sans-Serif" font-size="10.00">txtokenlist.h</text>
</a>
</g>
</g>
<!-- Node4&#45;&gt;Node5 -->
<g id="edge4" class="edge">
<title>Node4&#45;&gt;Node5</title>
<path fill="none" stroke="midnightblue" d="M262.44,-385.22C265.46,-377.94 269.95,-367.11 273.76,-357.93"/>
<polygon fill="midnightblue" stroke="midnightblue" points="277.06,-359.13 277.66,-348.55 270.59,-356.44 277.06,-359.13"/>
</g>
<!-- Node6 -->
<g id="node6" class="node">
<title>Node6</title>
<g id="a_node6"><a xlink:href="../../d5/daf/_istring_8h.html" target="_top" xlink:title=" ">
<polygon fill="none" stroke="black" points="266.77,-275.5 266.77,-293.5 347.23,-293.5 347.23,-275.5 266.77,-275.5"/>
<text text-anchor="middle" x="307" y="-281.5" font-family="Helvetica,sans-Serif" font-size="10.00">tralics/Istring.h</text>
</a>
</g>
</g>
<!-- Node5&#45;&gt;Node6 -->
<g id="edge5" class="edge">
<title>Node5&#45;&gt;Node6</title>
<path fill="none" stroke="midnightblue" d="M285.06,-330.22C288.67,-322.86 294.06,-311.88 298.59,-302.64"/>
<polygon fill="midnightblue" stroke="midnightblue" points="301.79,-304.07 303.05,-293.55 295.5,-300.99 301.79,-304.07"/>
</g>
<!-- Node5&#45;&gt;Node15 -->
<g id="edge14" class="edge">
<title>Node5&#45;&gt;Node15</title>
<path fill="none" stroke="midnightblue" d="M265.36,-330.45C248.72,-321.89 222.17,-308.23 202.7,-298.21"/>
<polygon fill="midnightblue" stroke="midnightblue" points="204.28,-295.09 193.79,-293.63 201.08,-301.31 204.28,-295.09"/>
</g>
<!-- Node20 -->
<g id="node20" class="node">
<title>Node20</title>
<g id="a_node20"><a xlink:title=" ">
<polygon fill="none" stroke="#bfbfbf" points="450.61,-275.5 450.61,-293.5 489.39,-293.5 489.39,-275.5 450.61,-275.5"/>
<text text-anchor="middle" x="470" y="-281.5" font-family="Helvetica,sans-Serif" font-size="10.00">utility</text>
</a>
</g>
</g>
<!-- Node5&#45;&gt;Node20 -->
<g id="edge21" class="edge">
<title>Node5&#45;&gt;Node20</title>
<path fill="none" stroke="midnightblue" d="M309.71,-330.45C345.14,-320.51 405.07,-303.71 440.75,-293.7"/>
<polygon fill="midnightblue" stroke="midnightblue" points="441.88,-297.02 450.56,-290.95 439.99,-290.28 441.88,-297.02"/>
</g>
<!-- Node7 -->
<g id="node7" class="node">
<title>Node7</title>
<g id="a_node7"><a xlink:href="../../d0/d0b/enums_8h.html" target="_top" xlink:title=" ">
<polygon fill="none" stroke="black" points="150.82,-165.5 150.82,-183.5 205.18,-183.5 205.18,-165.5 150.82,-165.5"/>
<text text-anchor="middle" x="178" y="-171.5" font-family="Helvetica,sans-Serif" font-size="10.00">enums.h</text>
</a>
</g>
</g>
<!-- Node6&#45;&gt;Node7 -->
<g id="edge6" class="edge">
<title>Node6&#45;&gt;Node7</title>
<path fill="none" stroke="midnightblue" d="M297.3,-275.38C275.64,-257.24 223.05,-213.21 195.49,-190.15"/>
<polygon fill="midnightblue" stroke="midnightblue" points="197.72,-187.45 187.81,-183.71 193.23,-192.81 197.72,-187.45"/>
</g>
<!-- Node13 -->
<g id="node13" class="node">
<title>Node13</title>
<g id="a_node13"><a xlink:title=" ">
<polygon fill="none" stroke="#bfbfbf" points="287.61,-220.5 287.61,-238.5 326.39,-238.5 326.39,-220.5 287.61,-220.5"/>
<text text-anchor="middle" x="307" y="-226.5" font-family="Helvetica,sans-Serif" font-size="10.00">array</text>
</a>
</g>
</g>
<!-- Node6&#45;&gt;Node13 -->
<g id="edge12" class="edge">
<title>Node6&#45;&gt;Node13</title>
<path fill="none" stroke="midnightblue" d="M307,-275.22C307,-268.18 307,-257.81 307,-248.83"/>
<polygon fill="midnightblue" stroke="midnightblue" points="310.5,-248.55 307,-238.55 303.5,-248.55 310.5,-248.55"/>
</g>
<!-- Node6&#45;&gt;Node14 -->
<g id="edge13" class="edge">
<title>Node6&#45;&gt;Node14</title>
<path fill="none" stroke="midnightblue" d="M321.28,-275.45C336.18,-267.05 359.81,-253.72 377.48,-243.76"/>
<polygon fill="midnightblue" stroke="midnightblue" points="379.6,-246.59 386.59,-238.63 376.16,-240.49 379.6,-246.59"/>
</g>
<!-- Node8 -->
<g id="node8" class="node">
<title>Node8</title>
<g id="a_node8"><a xlink:href="../../d8/db5/consts_8h.html" target="_top" xlink:title=" ">
<polygon fill="none" stroke="black" points="145.38,-110.5 145.38,-128.5 198.62,-128.5 198.62,-110.5 145.38,-110.5"/>
<text text-anchor="middle" x="172" y="-116.5" font-family="Helvetica,sans-Serif" font-size="10.00">consts.h</text>
</a>
</g>
</g>
<!-- Node7&#45;&gt;Node8 -->
<g id="edge7" class="edge">
<title>Node7&#45;&gt;Node8</title>
<path fill="none" stroke="midnightblue" d="M177.06,-165.22C176.26,-158.1 175.07,-147.58 174.04,-138.53"/>
<polygon fill="midnightblue" stroke="midnightblue" points="177.51,-138.09 172.91,-128.55 170.56,-138.88 177.51,-138.09"/>
</g>
<!-- Node9 -->
<g id="node9" class="node">
<title>Node9</title>
<g id="a_node9"><a xlink:href="../../d9/d49/types_8h.html" target="_top" xlink:title=" ">
<polygon fill="none" stroke="black" points="113.88,-55.5 113.88,-73.5 162.12,-73.5 162.12,-55.5 113.88,-55.5"/>
<text text-anchor="middle" x="138" y="-61.5" font-family="Helvetica,sans-Serif" font-size="10.00">types.h</text>
</a>
</g>
</g>
<!-- Node8&#45;&gt;Node9 -->
<g id="edge8" class="edge">
<title>Node8&#45;&gt;Node9</title>
<path fill="none" stroke="midnightblue" d="M166.69,-110.22C161.87,-102.71 154.62,-91.41 148.62,-82.05"/>
<polygon fill="midnightblue" stroke="midnightblue" points="151.51,-80.08 143.16,-73.55 145.62,-83.86 151.51,-80.08"/>
</g>
<!-- Node10 -->
<g id="node10" class="node">
<title>Node10</title>
<g id="a_node10"><a xlink:title=" ">
<polygon fill="none" stroke="#bfbfbf" points="47.88,-0.5 47.88,-18.5 96.12,-18.5 96.12,-0.5 47.88,-0.5"/>
<text text-anchor="middle" x="72" y="-6.5" font-family="Helvetica,sans-Serif" font-size="10.00">cassert</text>
</a>
</g>
</g>
<!-- Node9&#45;&gt;Node10 -->
<g id="edge9" class="edge">
<title>Node9&#45;&gt;Node10</title>
<path fill="none" stroke="midnightblue" d="M127.98,-55.45C117.99,-47.43 102.44,-34.95 90.26,-25.17"/>
<polygon fill="midnightblue" stroke="midnightblue" points="92.11,-22.16 82.12,-18.63 87.72,-27.62 92.11,-22.16"/>
</g>
<!-- Node11 -->
<g id="node11" class="node">
<title>Node11</title>
<g id="a_node11"><a xlink:title=" ">
<polygon fill="none" stroke="#bfbfbf" points="113.88,-0.5 113.88,-18.5 162.12,-18.5 162.12,-0.5 113.88,-0.5"/>
<text text-anchor="middle" x="138" y="-6.5" font-family="Helvetica,sans-Serif" font-size="10.00">cstddef</text>
</a>
</g>
</g>
<!-- Node9&#45;&gt;Node11 -->
<g id="edge10" class="edge">
<title>Node9&#45;&gt;Node11</title>
<path fill="none" stroke="midnightblue" d="M138,-55.22C138,-48.18 138,-37.81 138,-28.83"/>
<polygon fill="midnightblue" stroke="midnightblue" points="141.5,-28.55 138,-18.55 134.5,-28.55 141.5,-28.55"/>
</g>
<!-- Node12 -->
<g id="node12" class="node">
<title>Node12</title>
<g id="a_node12"><a xlink:title=" ">
<polygon fill="none" stroke="#bfbfbf" points="179.93,-0.5 179.93,-18.5 242.07,-18.5 242.07,-0.5 179.93,-0.5"/>
<text text-anchor="middle" x="211" y="-6.5" font-family="Helvetica,sans-Serif" font-size="10.00">type_traits</text>
</a>
</g>
</g>
<!-- Node9&#45;&gt;Node12 -->
<g id="edge11" class="edge">
<title>Node9&#45;&gt;Node12</title>
<path fill="none" stroke="midnightblue" d="M149.09,-55.45C160.34,-47.28 178,-34.46 191.58,-24.6"/>
<polygon fill="midnightblue" stroke="midnightblue" points="193.77,-27.33 199.81,-18.63 189.66,-21.67 193.77,-27.33"/>
</g>
<!-- Node16 -->
<g id="node16" class="node">
<title>Node16</title>
<g id="a_node16"><a xlink:href="../../d2/d68/_cmd_chr_8h.html" target="_top" xlink:title=" ">
<polygon fill="none" stroke="black" points="147.49,-220.5 147.49,-238.5 208.51,-238.5 208.51,-220.5 147.49,-220.5"/>
<text text-anchor="middle" x="178" y="-226.5" font-family="Helvetica,sans-Serif" font-size="10.00">CmdChr.h</text>
</a>
</g>
</g>
<!-- Node15&#45;&gt;Node16 -->
<g id="edge15" class="edge">
<title>Node15&#45;&gt;Node16</title>
<path fill="none" stroke="midnightblue" d="M178,-275.22C178,-268.18 178,-257.81 178,-248.83"/>
<polygon fill="midnightblue" stroke="midnightblue" points="181.5,-248.55 178,-238.55 174.5,-248.55 181.5,-248.55"/>
</g>
<!-- Node19 -->
<g id="node19" class="node">
<title>Node19</title>
<g id="a_node19"><a xlink:title=" ">
<polygon fill="none" stroke="#bfbfbf" points="100.5,-220.5 100.5,-238.5 129.5,-238.5 129.5,-220.5 100.5,-220.5"/>
<text text-anchor="middle" x="114.61" y="-226.5" font-family="Helvetica,sans-Serif" font-size="10.00">list</text>
</a>
</g>
</g>
<!-- Node15&#45;&gt;Node19 -->
<g id="edge20" class="edge">
<title>Node15&#45;&gt;Node19</title>
<path fill="none" stroke="midnightblue" d="M168.43,-275.45C158.9,-267.43 144.06,-254.95 132.43,-245.17"/>
<polygon fill="midnightblue" stroke="midnightblue" points="134.56,-242.38 124.66,-238.63 130.06,-247.74 134.56,-242.38"/>
</g>
<!-- Node16&#45;&gt;Node7 -->
<g id="edge19" class="edge">
<title>Node16&#45;&gt;Node7</title>
<path fill="none" stroke="midnightblue" d="M178,-220.22C178,-213.18 178,-202.81 178,-193.83"/>
<polygon fill="midnightblue" stroke="midnightblue" points="181.5,-193.55 178,-183.55 174.5,-193.55 181.5,-193.55"/>
</g>
<!-- Node17 -->
<g id="node17" class="node">
<title>Node17</title>
<g id="a_node17"><a xlink:href="../../d8/d47/codepoint_8h.html" target="_top" xlink:title=" ">
<polygon fill="none" stroke="black" points="65.15,-165.5 65.15,-183.5 132.85,-183.5 132.85,-165.5 65.15,-165.5"/>
<text text-anchor="middle" x="99" y="-171.5" font-family="Helvetica,sans-Serif" font-size="10.00">codepoint.h</text>
</a>
</g>
</g>
<!-- Node16&#45;&gt;Node17 -->
<g id="edge16" class="edge">
<title>Node16&#45;&gt;Node17</title>
<path fill="none" stroke="midnightblue" d="M166,-220.45C153.71,-212.2 134.35,-199.22 119.6,-189.32"/>
<polygon fill="midnightblue" stroke="midnightblue" points="121.37,-186.29 111.11,-183.63 117.47,-192.1 121.37,-186.29"/>
</g>
<!-- Node17&#45;&gt;Node9 -->
<g id="edge17" class="edge">
<title>Node17&#45;&gt;Node9</title>
<path fill="none" stroke="midnightblue" d="M101.93,-165.38C108.2,-148.03 123.03,-106.96 131.59,-83.24"/>
<polygon fill="midnightblue" stroke="midnightblue" points="134.93,-84.31 135.03,-73.71 128.35,-81.93 134.93,-84.31"/>
</g>
<!-- Node18 -->
<g id="node18" class="node">
<title>Node18</title>
<g id="a_node18"><a xlink:title=" ">
<polygon fill="none" stroke="#bfbfbf" points="11.49,-110.5 11.49,-128.5 62.51,-128.5 62.51,-110.5 11.49,-110.5"/>
<text text-anchor="middle" x="37" y="-116.5" font-family="Helvetica,sans-Serif" font-size="10.00">optional</text>
</a>
</g>
</g>
<!-- Node17&#45;&gt;Node18 -->
<g id="edge18" class="edge">
<title>Node17&#45;&gt;Node18</title>
<path fill="none" stroke="midnightblue" d="M89.58,-165.45C80.21,-157.43 65.6,-144.95 54.16,-135.17"/>
<polygon fill="midnightblue" stroke="midnightblue" points="56.38,-132.46 46.51,-128.63 51.83,-137.78 56.38,-132.46"/>
</g>
<!-- Node22 -->
<g id="node22" class="node">
<title>Node22</title>
<g id="a_node22"><a xlink:href="../../dc/def/txstring_8h.html" target="_top" xlink:title=" ">
<polygon fill="none" stroke="black" points="285.71,-495.5 285.71,-513.5 342.29,-513.5 342.29,-495.5 285.71,-495.5"/>
<text text-anchor="middle" x="314" y="-501.5" font-family="Helvetica,sans-Serif" font-size="10.00">txstring.h</text>
</a>
</g>
</g>
<!-- Node21&#45;&gt;Node22 -->
<g id="edge23" class="edge">
<title>Node21&#45;&gt;Node22</title>
<path fill="none" stroke="midnightblue" d="M180,-550.45C206.76,-541.47 250.23,-526.89 280.37,-516.78"/>
<polygon fill="midnightblue" stroke="midnightblue" points="281.67,-520.04 290.04,-513.54 279.44,-513.4 281.67,-520.04"/>
</g>
<!-- Node26 -->
<g id="node26" class="node">
<title>Node26</title>
<g id="a_node26"><a xlink:title=" ">
<polygon fill="none" stroke="#bfbfbf" points="86.38,-385.5 86.38,-403.5 129.62,-403.5 129.62,-385.5 86.38,-385.5"/>
<text text-anchor="middle" x="108" y="-391.5" font-family="Helvetica,sans-Serif" font-size="10.00">vector</text>
</a>
</g>
</g>
<!-- Node21&#45;&gt;Node26 -->
<g id="edge32" class="edge">
<title>Node21&#45;&gt;Node26</title>
<path fill="none" stroke="midnightblue" d="M153.55,-550.19C146.11,-524.9 123.59,-448.45 113.27,-413.4"/>
<polygon fill="midnightblue" stroke="midnightblue" points="116.57,-412.2 110.38,-403.6 109.85,-414.18 116.57,-412.2"/>
</g>
<!-- Node23 -->
<g id="node23" class="node">
<title>Node23</title>
<g id="a_node23"><a xlink:href="../../dd/d74/txbuffer_8h.html" target="_top" xlink:title=" ">
<polygon fill="none" stroke="black" points="285.52,-440.5 285.52,-458.5 342.48,-458.5 342.48,-440.5 285.52,-440.5"/>
<text text-anchor="middle" x="314" y="-446.5" font-family="Helvetica,sans-Serif" font-size="10.00">txbuffer.h</text>
</a>
</g>
</g>
<!-- Node22&#45;&gt;Node23 -->
<g id="edge24" class="edge">
<title>Node22&#45;&gt;Node23</title>
<path fill="none" stroke="midnightblue" d="M314,-495.22C314,-488.18 314,-477.81 314,-468.83"/>
<polygon fill="midnightblue" stroke="midnightblue" points="317.5,-468.55 314,-458.55 310.5,-468.55 317.5,-468.55"/>
</g>
<!-- Node23&#45;&gt;Node4 -->
<g id="edge29" class="edge">
<title>Node23&#45;&gt;Node4</title>
<path fill="none" stroke="midnightblue" d="M305.41,-440.22C297.21,-432.32 284.66,-420.22 274.68,-410.61"/>
<polygon fill="midnightblue" stroke="midnightblue" points="276.98,-407.97 267.35,-403.55 272.13,-413.01 276.98,-407.97"/>
</g>
<!-- Node23&#45;&gt;Node15 -->
<g id="edge25" class="edge">
<title>Node23&#45;&gt;Node15</title>
<path fill="none" stroke="midnightblue" d="M285.44,-442.44C263.29,-436.32 233.38,-424.72 215,-404 189.58,-375.33 181.62,-329.34 179.13,-303.9"/>
<polygon fill="midnightblue" stroke="midnightblue" points="182.61,-303.49 178.33,-293.8 175.63,-304.05 182.61,-303.49"/>
</g>
<!-- Node24 -->
<g id="node24" class="node">
<title>Node24</title>
<g id="a_node24"><a xlink:href="../../d1/d9e/txid_8h.html" target="_top" xlink:title=" ">
<polygon fill="none" stroke="black" points="355.05,-330.5 355.05,-348.5 394.95,-348.5 394.95,-330.5 355.05,-330.5"/>
<text text-anchor="middle" x="375" y="-336.5" font-family="Helvetica,sans-Serif" font-size="10.00">txid.h</text>
</a>
</g>
</g>
<!-- Node23&#45;&gt;Node24 -->
<g id="edge26" class="edge">
<title>Node23&#45;&gt;Node24</title>
<path fill="none" stroke="midnightblue" d="M328.47,-440.27C340.61,-432.55 357.31,-419.83 366,-404 373.54,-390.26 375.51,-372.43 375.75,-359.16"/>
<polygon fill="midnightblue" stroke="midnightblue" points="379.25,-358.85 375.62,-348.9 372.25,-358.94 379.25,-358.85"/>
</g>
<!-- Node25 -->
<g id="node25" class="node">
<title>Node25</title>
<g id="a_node25"><a xlink:title=" ">
<polygon fill="none" stroke="#bfbfbf" points="311.27,-385.5 311.27,-403.5 356.73,-403.5 356.73,-385.5 311.27,-385.5"/>
<text text-anchor="middle" x="334" y="-391.5" font-family="Helvetica,sans-Serif" font-size="10.00">cstring</text>
</a>
</g>
</g>
<!-- Node23&#45;&gt;Node25 -->
<g id="edge30" class="edge">
<title>Node23&#45;&gt;Node25</title>
<path fill="none" stroke="midnightblue" d="M317.12,-440.22C319.87,-432.94 323.96,-422.11 327.42,-412.93"/>
<polygon fill="midnightblue" stroke="midnightblue" points="330.71,-414.14 330.96,-403.55 324.16,-411.67 330.71,-414.14"/>
</g>
<!-- Node23&#45;&gt;Node26 -->
<g id="edge31" class="edge">
<title>Node23&#45;&gt;Node26</title>
<path fill="none" stroke="midnightblue" d="M285.36,-441.13C247.02,-431.27 179.24,-413.83 139.5,-403.6"/>
<polygon fill="midnightblue" stroke="midnightblue" points="140.35,-400.21 129.8,-401.11 138.61,-406.99 140.35,-400.21"/>
</g>
<!-- Node24&#45;&gt;Node6 -->
<g id="edge27" class="edge">
<title>Node24&#45;&gt;Node6</title>
<path fill="none" stroke="midnightblue" d="M364.67,-330.45C354.29,-322.36 338.05,-309.7 325.45,-299.88"/>
<polygon fill="midnightblue" stroke="midnightblue" points="327.46,-297.01 317.42,-293.63 323.16,-302.53 327.46,-297.01"/>
</g>
<!-- Node24&#45;&gt;Node14 -->
<g id="edge28" class="edge">
<title>Node24&#45;&gt;Node14</title>
<path fill="none" stroke="midnightblue" d="M376.95,-330.38C381.11,-313.1 390.93,-272.33 396.65,-248.56"/>
<polygon fill="midnightblue" stroke="midnightblue" points="400.09,-249.25 399.02,-238.71 393.28,-247.61 400.09,-249.25"/>
</g>
<!-- Node27&#45;&gt;Node7 -->
<g id="edge36" class="edge">
<title>Node27&#45;&gt;Node7</title>
<path fill="none" stroke="midnightblue" d="M55.13,-440.37C55.4,-422.38 56,-377.81 56,-340.5 56,-340.5 56,-340.5 56,-283.5 56,-251.27 67.86,-242.43 91,-220 106,-205.45 126.71,-194.6 144.16,-187.26"/>
<polygon fill="midnightblue" stroke="midnightblue" points="145.48,-190.5 153.47,-183.54 142.88,-184 145.48,-190.5"/>
</g>
<!-- Node27&#45;&gt;Node26 -->
<g id="edge37" class="edge">
<title>Node27&#45;&gt;Node26</title>
<path fill="none" stroke="midnightblue" d="M63.28,-440.22C71.11,-432.39 83.04,-420.46 92.61,-410.89"/>
<polygon fill="midnightblue" stroke="midnightblue" points="95.35,-413.1 99.95,-403.55 90.4,-408.15 95.35,-413.1"/>
</g>
<!-- Node28&#45;&gt;Node22 -->
<g id="edge39" class="edge">
<title>Node28&#45;&gt;Node22</title>
<path fill="none" stroke="midnightblue" d="M406.45,-550.45C388.76,-541.85 360.49,-528.1 339.86,-518.08"/>
<polygon fill="midnightblue" stroke="midnightblue" points="341.23,-514.85 330.71,-513.63 338.17,-521.15 341.23,-514.85"/>
</g>
<!-- Node30 -->
<g id="node30" class="node">
<title>Node30</title>
<g id="a_node30"><a xlink:href="../../d3/d01/txeqtb_8h.html" target="_top" xlink:title=" ">
<polygon fill="none" stroke="black" points="288.21,-550.5 288.21,-568.5 339.79,-568.5 339.79,-550.5 288.21,-550.5"/>
<text text-anchor="middle" x="314" y="-556.5" font-family="Helvetica,sans-Serif" font-size="10.00">txeqtb.h</text>
</a>
</g>
</g>
<!-- Node29&#45;&gt;Node30 -->
<g id="edge41" class="edge">
<title>Node29&#45;&gt;Node30</title>
<path fill="none" stroke="midnightblue" d="M332.56,-605.22C329.54,-597.94 325.05,-587.11 321.24,-577.93"/>
<polygon fill="midnightblue" stroke="midnightblue" points="324.41,-576.44 317.34,-568.55 317.94,-579.13 324.41,-576.44"/>
</g>
<!-- Node30&#45;&gt;Node22 -->
<g id="edge42" class="edge">
<title>Node30&#45;&gt;Node22</title>
<path fill="none" stroke="midnightblue" d="M314,-550.22C314,-543.18 314,-532.81 314,-523.83"/>
<polygon fill="midnightblue" stroke="midnightblue" points="317.5,-523.55 314,-513.55 310.5,-523.55 317.5,-523.55"/>
</g>
<!-- Node31&#45;&gt;Node14 -->
<g id="edge44" class="edge">
<title>Node31&#45;&gt;Node14</title>
<path fill="none" stroke="midnightblue" d="M516.67,-330.48C515.71,-317.35 512.04,-291.15 498,-275 480.68,-255.08 452.61,-243.55 431.1,-237.24"/>
<polygon fill="midnightblue" stroke="midnightblue" points="432.02,-233.87 421.45,-234.63 430.19,-240.62 432.02,-233.87"/>
</g>
<!-- Node31&#45;&gt;Node20 -->
<g id="edge45" class="edge">
<title>Node31&#45;&gt;Node20</title>
<path fill="none" stroke="midnightblue" d="M509.66,-330.22C502.79,-322.47 492.35,-310.7 483.9,-301.18"/>
<polygon fill="midnightblue" stroke="midnightblue" points="486.39,-298.71 477.14,-293.55 481.15,-303.35 486.39,-298.71"/>
</g>
<!-- Node32&#45;&gt;Node23 -->
<g id="edge47" class="edge">
<title>Node32&#45;&gt;Node23</title>
<path fill="none" stroke="midnightblue" d="M529.49,-550.38C488.99,-531.61 388.67,-485.11 340.56,-462.81"/>
<polygon fill="midnightblue" stroke="midnightblue" points="341.94,-459.59 331.4,-458.56 339,-465.95 341.94,-459.59"/>
</g>
<!-- Node33 -->
<g id="node33" class="node">
<title>Node33</title>
<g id="a_node33"><a xlink:title=" ">
<polygon fill="none" stroke="#bfbfbf" points="719.33,-495.5 719.33,-513.5 768.67,-513.5 768.67,-495.5 719.33,-495.5"/>
<text text-anchor="middle" x="744" y="-501.5" font-family="Helvetica,sans-Serif" font-size="10.00">fstream</text>
</a>
</g>
</g>
<!-- Node32&#45;&gt;Node33 -->
<g id="edge48" class="edge">
<title>Node32&#45;&gt;Node33</title>
<path fill="none" stroke="midnightblue" d="M566.97,-553.13C600.34,-544.15 667.82,-526 709.15,-514.88"/>
<polygon fill="midnightblue" stroke="midnightblue" points="710.31,-518.19 719.05,-512.21 708.49,-511.43 710.31,-518.19"/>
</g>
<!-- Node34&#45;&gt;Node21 -->
<g id="edge54" class="edge">
<title>Node34&#45;&gt;Node21</title>
<path fill="none" stroke="midnightblue" d="M103.42,-605.45C112.79,-597.43 127.4,-584.95 138.84,-575.17"/>
<polygon fill="midnightblue" stroke="midnightblue" points="141.17,-577.78 146.49,-568.63 136.62,-572.46 141.17,-577.78"/>
</g>
<!-- Node35 -->
<g id="node35" class="node">
<title>Node35</title>
<g id="a_node35"><a xlink:href="../../d4/da4/txatt_8h.html" target="_top" xlink:title=" ">
<polygon fill="none" stroke="black" points="66.38,-550.5 66.38,-568.5 109.62,-568.5 109.62,-550.5 66.38,-550.5"/>
<text text-anchor="middle" x="88" y="-556.5" font-family="Helvetica,sans-Serif" font-size="10.00">txatt.h</text>
</a>
</g>
</g>
<!-- Node34&#45;&gt;Node35 -->
<g id="edge50" class="edge">
<title>Node34&#45;&gt;Node35</title>
<path fill="none" stroke="midnightblue" d="M93.06,-605.22C92.26,-598.1 91.07,-587.58 90.04,-578.53"/>
<polygon fill="midnightblue" stroke="midnightblue" points="93.51,-578.09 88.91,-568.55 86.56,-578.88 93.51,-578.09"/>
</g>
<!-- Node35&#45;&gt;Node18 -->
<g id="edge52" class="edge">
<title>Node35&#45;&gt;Node18</title>
<path fill="none" stroke="midnightblue" d="M74.25,-550.33C49.5,-534.47 0,-496.94 0,-450.5 0,-450.5 0,-450.5 0,-228.5 0,-194.78 16.35,-158.17 27.31,-137.41"/>
<polygon fill="midnightblue" stroke="midnightblue" points="30.42,-139.03 32.16,-128.58 24.28,-135.66 30.42,-139.03"/>
</g>
<!-- Node35&#45;&gt;Node22 -->
<g id="edge51" class="edge">
<title>Node35&#45;&gt;Node22</title>
<path fill="none" stroke="midnightblue" d="M109.65,-552.44C112.78,-551.6 115.97,-550.76 119,-550 173.1,-536.42 236.09,-522.36 275.51,-513.77"/>
<polygon fill="midnightblue" stroke="midnightblue" points="276.46,-517.14 285.49,-511.6 274.97,-510.3 276.46,-517.14"/>
</g>
<!-- Node35&#45;&gt;Node26 -->
<g id="edge53" class="edge">
<title>Node35&#45;&gt;Node26</title>
<path fill="none" stroke="midnightblue" d="M89.02,-550.19C92.11,-525.01 101.42,-449.11 105.75,-413.86"/>
<polygon fill="midnightblue" stroke="midnightblue" points="109.26,-413.95 107.01,-403.6 102.31,-413.1 109.26,-413.95"/>
</g>
<!-- Node38 -->
<g id="node38" class="node">
<title>Node38</title>
<g id="a_node38"><a xlink:href="../../d4/de9/_main_class_8h.html" target="_top" xlink:title=" ">
<polygon fill="none" stroke="black" points="419.04,-605.5 419.04,-623.5 518.96,-623.5 518.96,-605.5 419.04,-605.5"/>
<text text-anchor="middle" x="469" y="-611.5" font-family="Helvetica,sans-Serif" font-size="10.00">tralics/MainClass.h</text>
</a>
</g>
</g>
<!-- Node37&#45;&gt;Node38 -->
<g id="edge57" class="edge">
<title>Node37&#45;&gt;Node38</title>
<path fill="none" stroke="midnightblue" d="M526.67,-660.45C516.29,-652.36 500.05,-639.7 487.45,-629.88"/>
<polygon fill="midnightblue" stroke="midnightblue" points="489.46,-627.01 479.42,-623.63 485.16,-632.53 489.46,-627.01"/>
</g>
<!-- Node39 -->
<g id="node39" class="node">
<title>Node39</title>
<g id="a_node39"><a xlink:href="../../d2/d06/txlogger_8h.html" target="_top" xlink:title=" ">
<polygon fill="none" stroke="black" points="691.32,-605.5 691.32,-623.5 750.68,-623.5 750.68,-605.5 691.32,-605.5"/>
<text text-anchor="middle" x="721" y="-611.5" font-family="Helvetica,sans-Serif" font-size="10.00">txlogger.h</text>
</a>
</g>
</g>
<!-- Node37&#45;&gt;Node39 -->
<g id="edge60" class="edge">
<title>Node37&#45;&gt;Node39</title>
<path fill="none" stroke="midnightblue" d="M564.95,-660.45C596.51,-651.36 648.06,-636.51 683.2,-626.39"/>
<polygon fill="midnightblue" stroke="midnightblue" points="684.45,-629.67 693.09,-623.54 682.52,-622.94 684.45,-629.67"/>
</g>
<!-- Node41 -->
<g id="node41" class="node">
<title>Node41</title>
<g id="a_node41"><a xlink:href="../../d5/d08/txparam_8h.html" target="_top" xlink:title=" ">
<polygon fill="none" stroke="black" points="574.77,-605.5 574.77,-623.5 635.23,-623.5 635.23,-605.5 574.77,-605.5"/>
<text text-anchor="middle" x="605" y="-611.5" font-family="Helvetica,sans-Serif" font-size="10.00">txparam.h</text>
</a>
</g>
</g>
<!-- Node37&#45;&gt;Node41 -->
<g id="edge63" class="edge">
<title>Node37&#45;&gt;Node41</title>
<path fill="none" stroke="midnightblue" d="M547.33,-660.45C557.71,-652.36 573.95,-639.7 586.55,-629.88"/>
<polygon fill="midnightblue" stroke="midnightblue" points="588.84,-632.53 594.58,-623.63 584.54,-627.01 588.84,-632.53"/>
</g>
<!-- Node38&#45;&gt;Node22 -->
<g id="edge59" class="edge">
<title>Node38&#45;&gt;Node22</title>
<path fill="none" stroke="midnightblue" d="M470.22,-605.37C471.72,-592.1 472.6,-565.68 459,-550 445.04,-533.91 390.81,-520.38 352.79,-512.61"/>
<polygon fill="midnightblue" stroke="midnightblue" points="353.03,-509.09 342.54,-510.57 351.66,-515.95 353.03,-509.09"/>
</g>
<!-- Node38&#45;&gt;Node32 -->
<g id="edge58" class="edge">
<title>Node38&#45;&gt;Node32</title>
<path fill="none" stroke="midnightblue" d="M480.85,-605.45C492.99,-597.2 512.1,-584.22 526.66,-574.32"/>
<polygon fill="midnightblue" stroke="midnightblue" points="528.74,-577.14 535.04,-568.63 524.8,-571.35 528.74,-577.14"/>
</g>
<!-- Node39&#45;&gt;Node33 -->
<g id="edge61" class="edge">
<title>Node39&#45;&gt;Node33</title>
<path fill="none" stroke="midnightblue" d="M729.71,-605.27C737.78,-597 749.23,-583.43 754,-569 758.98,-553.93 755.34,-536.01 751.12,-523.06"/>
<polygon fill="midnightblue" stroke="midnightblue" points="754.35,-521.7 747.62,-513.52 747.78,-524.11 754.35,-521.7"/>
</g>
<!-- Node40 -->
<g id="node40" class="node">
<title>Node40</title>
<g id="a_node40"><a xlink:title=" ">
<polygon fill="none" stroke="#bfbfbf" points="690.83,-550.5 690.83,-568.5 745.17,-568.5 745.17,-550.5 690.83,-550.5"/>
<text text-anchor="middle" x="718" y="-556.5" font-family="Helvetica,sans-Serif" font-size="10.00">iostream</text>
</a>
</g>
</g>
<!-- Node39&#45;&gt;Node40 -->
<g id="edge62" class="edge">
<title>Node39&#45;&gt;Node40</title>
<path fill="none" stroke="midnightblue" d="M720.53,-605.22C720.13,-598.18 719.55,-587.81 719.04,-578.83"/>
<polygon fill="midnightblue" stroke="midnightblue" points="722.52,-578.34 718.46,-568.55 715.53,-578.73 722.52,-578.34"/>
</g>
<!-- Node41&#45;&gt;Node32 -->
<g id="edge64" class="edge">
<title>Node41&#45;&gt;Node32</title>
<path fill="none" stroke="midnightblue" d="M595.94,-605.22C587.2,-597.24 573.79,-584.98 563.22,-575.32"/>
<polygon fill="midnightblue" stroke="midnightblue" points="565.55,-572.71 555.81,-568.55 560.83,-577.88 565.55,-572.71"/>
</g>
</g>
</svg>
