<?xml version="1.0" encoding="UTF-8" standalone="no"?>
<!DOCTYPE svg PUBLIC "-//W3C//DTD SVG 1.1//EN"
 "http://www.w3.org/Graphics/SVG/1.1/DTD/svg11.dtd">
<!-- Generated by graphviz version 2.42.3 (20191010.1750)
 -->
<!-- Title: txparser.cpp Pages: 1 -->
<svg width="737pt" height="907pt"
 viewBox="0.00 0.00 736.79 907.00" xmlns="http://www.w3.org/2000/svg" xmlns:xlink="http://www.w3.org/1999/xlink">
<g id="graph0" class="graph" transform="scale(1 1) rotate(0) translate(4 903)">
<title>txparser.cpp</title>
<!-- Node1 -->
<g id="node1" class="node">
<title>Node1</title>
<g id="a_node1"><a xlink:title=" ">
<polygon fill="#bfbfbf" stroke="black" points="40.76,-880.5 40.76,-898.5 111.24,-898.5 111.24,-880.5 40.76,-880.5"/>
<text text-anchor="middle" x="76" y="-886.5" font-family="Helvetica,sans-Serif" font-size="10.00">txparser.cpp</text>
</a>
</g>
</g>
<!-- Node2 -->
<g id="node2" class="node">
<title>Node2</title>
<g id="a_node2"><a xlink:href="../../db/d59/_saver_8h.html" target="_top" xlink:title=" ">
<polygon fill="none" stroke="black" points="36.6,-825.5 36.6,-843.5 115.4,-843.5 115.4,-825.5 36.6,-825.5"/>
<text text-anchor="middle" x="76" y="-831.5" font-family="Helvetica,sans-Serif" font-size="10.00">tralics/Saver.h</text>
</a>
</g>
</g>
<!-- Node1&#45;&gt;Node2 -->
<g id="edge1" class="edge">
<title>Node1&#45;&gt;Node2</title>
<path fill="none" stroke="midnightblue" d="M76,-880.22C76,-873.18 76,-862.81 76,-853.83"/>
<polygon fill="midnightblue" stroke="midnightblue" points="79.5,-853.55 76,-843.55 72.5,-853.55 79.5,-853.55"/>
</g>
<!-- Node49 -->
<g id="node49" class="node">
<title>Node49</title>
<g id="a_node49"><a xlink:href="../../d8/d3c/util_8h.html" target="_top" xlink:title=" ">
<polygon fill="none" stroke="black" points="16.99,-330.5 16.99,-348.5 83.01,-348.5 83.01,-330.5 16.99,-330.5"/>
<text text-anchor="middle" x="50" y="-336.5" font-family="Helvetica,sans-Serif" font-size="10.00">tralics/util.h</text>
</a>
</g>
</g>
<!-- Node1&#45;&gt;Node49 -->
<g id="edge70" class="edge">
<title>Node1&#45;&gt;Node49</title>
<path fill="none" stroke="midnightblue" d="M64.79,-880.39C43.65,-864.07 0,-824.98 0,-780.5 0,-780.5 0,-780.5 0,-448.5 0,-413.2 22.27,-376.92 37.08,-356.69"/>
<polygon fill="midnightblue" stroke="midnightblue" points="39.98,-358.65 43.26,-348.58 34.41,-354.41 39.98,-358.65"/>
</g>
<!-- Node50 -->
<g id="node50" class="node">
<title>Node50</title>
<g id="a_node50"><a xlink:title=" ">
<polygon fill="none" stroke="#bfbfbf" points="133.33,-825.5 133.33,-843.5 202.67,-843.5 202.67,-825.5 133.33,-825.5"/>
<text text-anchor="middle" x="168" y="-831.5" font-family="Helvetica,sans-Serif" font-size="10.00">fmt/format.h</text>
</a>
</g>
</g>
<!-- Node1&#45;&gt;Node50 -->
<g id="edge74" class="edge">
<title>Node1&#45;&gt;Node50</title>
<path fill="none" stroke="midnightblue" d="M89.97,-880.45C104.56,-872.05 127.69,-858.72 144.98,-848.76"/>
<polygon fill="midnightblue" stroke="midnightblue" points="146.98,-851.65 153.9,-843.63 143.48,-845.58 146.98,-851.65"/>
</g>
<!-- Node3 -->
<g id="node3" class="node">
<title>Node3</title>
<g id="a_node3"><a xlink:href="../../de/d40/_parser_8h.html" target="_top" xlink:title=" ">
<polygon fill="none" stroke="black" points="465.38,-770.5 465.38,-788.5 518.62,-788.5 518.62,-770.5 465.38,-770.5"/>
<text text-anchor="middle" x="492" y="-776.5" font-family="Helvetica,sans-Serif" font-size="10.00">Parser.h</text>
</a>
</g>
</g>
<!-- Node2&#45;&gt;Node3 -->
<g id="edge2" class="edge">
<title>Node2&#45;&gt;Node3</title>
<path fill="none" stroke="midnightblue" d="M115.52,-826.32C118.39,-825.86 121.24,-825.41 124,-825 244.84,-807.01 388.83,-791.23 455.18,-784.27"/>
<polygon fill="midnightblue" stroke="midnightblue" points="455.57,-787.75 465.15,-783.24 454.84,-780.79 455.57,-787.75"/>
</g>
<!-- Node47 -->
<g id="node47" class="node">
<title>Node47</title>
<g id="a_node47"><a xlink:href="../../d5/d87/globals_8h.html" target="_top" xlink:title=" ">
<polygon fill="none" stroke="black" points="223.99,-330.5 223.99,-348.5 280.01,-348.5 280.01,-330.5 223.99,-330.5"/>
<text text-anchor="middle" x="252" y="-336.5" font-family="Helvetica,sans-Serif" font-size="10.00">globals.h</text>
</a>
</g>
</g>
<!-- Node2&#45;&gt;Node47 -->
<g id="edge65" class="edge">
<title>Node2&#45;&gt;Node47</title>
<path fill="none" stroke="midnightblue" d="M76,-825.37C76,-807.38 76,-762.81 76,-725.5 76,-725.5 76,-725.5 76,-448.5 76,-384.31 162.11,-357.08 213.86,-346.51"/>
<polygon fill="midnightblue" stroke="midnightblue" points="214.56,-349.94 223.72,-344.61 213.24,-343.06 214.56,-349.94"/>
</g>
<!-- Node4 -->
<g id="node4" class="node">
<title>Node4</title>
<g id="a_node4"><a xlink:href="../../d3/d6b/txcond_8h.html" target="_top" xlink:title=" ">
<polygon fill="none" stroke="black" points="100.93,-330.5 100.93,-348.5 163.07,-348.5 163.07,-330.5 100.93,-330.5"/>
<text text-anchor="middle" x="132" y="-336.5" font-family="Helvetica,sans-Serif" font-size="10.00">../txcond.h</text>
</a>
</g>
</g>
<!-- Node3&#45;&gt;Node4 -->
<g id="edge3" class="edge">
<title>Node3&#45;&gt;Node4</title>
<path fill="none" stroke="midnightblue" d="M465.07,-776.09C407.77,-770.6 275.85,-755.91 237,-734 119.7,-667.84 38,-640.17 38,-505.5 38,-505.5 38,-505.5 38,-448.5 38,-418.33 42.96,-408.4 62,-385 73,-371.48 89.25,-360.79 103.33,-353.29"/>
<polygon fill="midnightblue" stroke="midnightblue" points="105.27,-356.22 112.63,-348.6 102.13,-349.97 105.27,-356.22"/>
</g>
<!-- Node12 -->
<g id="node12" class="node">
<title>Node12</title>
<g id="a_node12"><a xlink:href="../../d7/d4d/txfonts_8h.html" target="_top" xlink:title=" ">
<polygon fill="none" stroke="black" points="377.93,-715.5 377.93,-733.5 440.07,-733.5 440.07,-715.5 377.93,-715.5"/>
<text text-anchor="middle" x="409" y="-721.5" font-family="Helvetica,sans-Serif" font-size="10.00">../txfonts.h</text>
</a>
</g>
</g>
<!-- Node3&#45;&gt;Node12 -->
<g id="edge11" class="edge">
<title>Node3&#45;&gt;Node12</title>
<path fill="none" stroke="midnightblue" d="M479.39,-770.45C466.35,-762.12 445.76,-748.97 430.2,-739.04"/>
<polygon fill="midnightblue" stroke="midnightblue" points="432.04,-736.06 421.72,-733.63 428.27,-741.96 432.04,-736.06"/>
</g>
<!-- Node36 -->
<g id="node36" class="node">
<title>Node36</title>
<g id="a_node36"><a xlink:href="../../de/d7c/tximage_8h.html" target="_top" xlink:title=" ">
<polygon fill="none" stroke="black" points="603.16,-330.5 603.16,-348.5 670.84,-348.5 670.84,-330.5 603.16,-330.5"/>
<text text-anchor="middle" x="637" y="-336.5" font-family="Helvetica,sans-Serif" font-size="10.00">../tximage.h</text>
</a>
</g>
</g>
<!-- Node3&#45;&gt;Node36 -->
<g id="edge42" class="edge">
<title>Node3&#45;&gt;Node36</title>
<path fill="none" stroke="midnightblue" d="M518.81,-772.77C542.62,-766.56 577.24,-754.65 601,-734 625.66,-712.58 638,-703.16 638,-670.5 638,-670.5 638,-670.5 638,-448.5 638,-417.02 637.57,-380.37 637.27,-358.88"/>
<polygon fill="midnightblue" stroke="midnightblue" points="640.77,-358.58 637.13,-348.63 633.77,-358.68 640.77,-358.58"/>
</g>
<!-- Node37 -->
<g id="node37" class="node">
<title>Node37</title>
<g id="a_node37"><a xlink:href="../../dc/d65/txstack_8h.html" target="_top" xlink:title=" ">
<polygon fill="none" stroke="black" points="470.1,-550.5 470.1,-568.5 533.9,-568.5 533.9,-550.5 470.1,-550.5"/>
<text text-anchor="middle" x="502" y="-556.5" font-family="Helvetica,sans-Serif" font-size="10.00">../txstack.h</text>
</a>
</g>
</g>
<!-- Node3&#45;&gt;Node37 -->
<g id="edge45" class="edge">
<title>Node3&#45;&gt;Node37</title>
<path fill="none" stroke="midnightblue" d="M492.37,-770.48C493.81,-739.11 499.08,-624.16 501.15,-578.94"/>
<polygon fill="midnightblue" stroke="midnightblue" points="504.66,-578.97 501.62,-568.82 497.66,-578.65 504.66,-578.97"/>
</g>
<!-- Node41 -->
<g id="node41" class="node">
<title>Node41</title>
<g id="a_node41"><a xlink:href="../../d8/d3d/txstats_8h.html" target="_top" xlink:title=" ">
<polygon fill="none" stroke="black" points="667.21,-660.5 667.21,-678.5 728.79,-678.5 728.79,-660.5 667.21,-660.5"/>
<text text-anchor="middle" x="698" y="-666.5" font-family="Helvetica,sans-Serif" font-size="10.00">../txstats.h</text>
</a>
</g>
</g>
<!-- Node3&#45;&gt;Node41 -->
<g id="edge53" class="edge">
<title>Node3&#45;&gt;Node41</title>
<path fill="none" stroke="midnightblue" d="M518.64,-776.48C552.38,-772.79 611.05,-762.48 652,-734 668.89,-722.26 681.87,-702.25 689.67,-687.83"/>
<polygon fill="midnightblue" stroke="midnightblue" points="692.79,-689.4 694.23,-678.9 686.56,-686.22 692.79,-689.4"/>
</g>
<!-- Node42 -->
<g id="node42" class="node">
<title>Node42</title>
<g id="a_node42"><a xlink:href="../../d8/dd6/_e_q_t_b_8h.html" target="_top" xlink:title=" ">
<polygon fill="none" stroke="black" points="520.22,-715.5 520.22,-733.5 571.78,-733.5 571.78,-715.5 520.22,-715.5"/>
<text text-anchor="middle" x="546" y="-721.5" font-family="Helvetica,sans-Serif" font-size="10.00">EQTB.h</text>
</a>
</g>
</g>
<!-- Node3&#45;&gt;Node42 -->
<g id="edge55" class="edge">
<title>Node3&#45;&gt;Node42</title>
<path fill="none" stroke="midnightblue" d="M500.44,-770.22C508.49,-762.32 520.81,-750.22 530.61,-740.61"/>
<polygon fill="midnightblue" stroke="midnightblue" points="533.11,-743.05 537.8,-733.55 528.21,-738.06 533.11,-743.05"/>
</g>
<!-- Node43 -->
<g id="node43" class="node">
<title>Node43</title>
<g id="a_node43"><a xlink:href="../../da/d27/_hashtab_8h.html" target="_top" xlink:title=" ">
<polygon fill="none" stroke="black" points="192.21,-495.5 192.21,-513.5 253.79,-513.5 253.79,-495.5 192.21,-495.5"/>
<text text-anchor="middle" x="223" y="-501.5" font-family="Helvetica,sans-Serif" font-size="10.00">Hashtab.h</text>
</a>
</g>
</g>
<!-- Node3&#45;&gt;Node43 -->
<g id="edge57" class="edge">
<title>Node3&#45;&gt;Node43</title>
<path fill="none" stroke="midnightblue" d="M465.13,-774.54C392.55,-763.09 198,-727.12 198,-670.5 198,-670.5 198,-670.5 198,-613.5 198,-581.05 208.84,-544.5 216.25,-523.32"/>
<polygon fill="midnightblue" stroke="midnightblue" points="219.6,-524.35 219.73,-513.75 213.02,-521.95 219.6,-524.35"/>
</g>
<!-- Node46 -->
<g id="node46" class="node">
<title>Node46</title>
<g id="a_node46"><a xlink:href="../../d9/dba/_label_info_8h.html" target="_top" xlink:title=" ">
<polygon fill="none" stroke="black" points="519.26,-330.5 519.26,-348.5 584.74,-348.5 584.74,-330.5 519.26,-330.5"/>
<text text-anchor="middle" x="552" y="-336.5" font-family="Helvetica,sans-Serif" font-size="10.00">LabelInfo.h</text>
</a>
</g>
</g>
<!-- Node3&#45;&gt;Node46 -->
<g id="edge62" class="edge">
<title>Node3&#45;&gt;Node46</title>
<path fill="none" stroke="midnightblue" d="M519.01,-771.34C538.83,-764.74 564.99,-753.04 581,-734 599.95,-711.45 600,-699.96 600,-670.5 600,-670.5 600,-670.5 600,-448.5 600,-413.45 578.62,-377.08 564.4,-356.77"/>
<polygon fill="midnightblue" stroke="midnightblue" points="567.19,-354.65 558.47,-348.62 561.53,-358.77 567.19,-354.65"/>
</g>
<!-- Node5 -->
<g id="node5" class="node">
<title>Node5</title>
<g id="a_node5"><a xlink:href="../../d0/d0b/enums_8h.html" target="_top" xlink:title=" ">
<polygon fill="none" stroke="black" points="243.38,-165.5 243.38,-183.5 326.62,-183.5 326.62,-165.5 243.38,-165.5"/>
<text text-anchor="middle" x="285" y="-171.5" font-family="Helvetica,sans-Serif" font-size="10.00">tralics/enums.h</text>
</a>
</g>
</g>
<!-- Node4&#45;&gt;Node5 -->
<g id="edge4" class="edge">
<title>Node4&#45;&gt;Node5</title>
<path fill="none" stroke="midnightblue" d="M133.11,-330.13C135.1,-317.44 140.11,-292.89 151,-275 176.27,-233.51 225.91,-203.69 257.17,-188.05"/>
<polygon fill="midnightblue" stroke="midnightblue" points="258.76,-191.16 266.23,-183.65 255.7,-184.87 258.76,-191.16"/>
</g>
<!-- Node11 -->
<g id="node11" class="node">
<title>Node11</title>
<g id="a_node11"><a xlink:title=" ">
<polygon fill="none" stroke="#bfbfbf" points="160.38,-275.5 160.38,-293.5 203.62,-293.5 203.62,-275.5 160.38,-275.5"/>
<text text-anchor="middle" x="182" y="-281.5" font-family="Helvetica,sans-Serif" font-size="10.00">vector</text>
</a>
</g>
</g>
<!-- Node4&#45;&gt;Node11 -->
<g id="edge10" class="edge">
<title>Node4&#45;&gt;Node11</title>
<path fill="none" stroke="midnightblue" d="M139.81,-330.22C147.19,-322.39 158.45,-310.46 167.48,-300.89"/>
<polygon fill="midnightblue" stroke="midnightblue" points="170.09,-303.23 174.41,-293.55 165,-298.42 170.09,-303.23"/>
</g>
<!-- Node6 -->
<g id="node6" class="node">
<title>Node6</title>
<g id="a_node6"><a xlink:href="../../d8/db5/consts_8h.html" target="_top" xlink:title=" ">
<polygon fill="none" stroke="black" points="329.38,-110.5 329.38,-128.5 382.62,-128.5 382.62,-110.5 329.38,-110.5"/>
<text text-anchor="middle" x="356" y="-116.5" font-family="Helvetica,sans-Serif" font-size="10.00">consts.h</text>
</a>
</g>
</g>
<!-- Node5&#45;&gt;Node6 -->
<g id="edge5" class="edge">
<title>Node5&#45;&gt;Node6</title>
<path fill="none" stroke="midnightblue" d="M295.78,-165.45C306.63,-157.36 323.58,-144.7 336.73,-134.88"/>
<polygon fill="midnightblue" stroke="midnightblue" points="339.2,-137.41 345.12,-128.63 335.01,-131.8 339.2,-137.41"/>
</g>
<!-- Node7 -->
<g id="node7" class="node">
<title>Node7</title>
<g id="a_node7"><a xlink:href="../../d9/d49/types_8h.html" target="_top" xlink:title=" ">
<polygon fill="none" stroke="black" points="457.88,-55.5 457.88,-73.5 506.12,-73.5 506.12,-55.5 457.88,-55.5"/>
<text text-anchor="middle" x="482" y="-61.5" font-family="Helvetica,sans-Serif" font-size="10.00">types.h</text>
</a>
</g>
</g>
<!-- Node6&#45;&gt;Node7 -->
<g id="edge6" class="edge">
<title>Node6&#45;&gt;Node7</title>
<path fill="none" stroke="midnightblue" d="M375.14,-110.45C395.95,-101.7 429.45,-87.61 453.39,-77.53"/>
<polygon fill="midnightblue" stroke="midnightblue" points="454.82,-80.73 462.68,-73.63 452.11,-74.28 454.82,-80.73"/>
</g>
<!-- Node8 -->
<g id="node8" class="node">
<title>Node8</title>
<g id="a_node8"><a xlink:title=" ">
<polygon fill="none" stroke="#bfbfbf" points="494.88,-0.5 494.88,-18.5 543.12,-18.5 543.12,-0.5 494.88,-0.5"/>
<text text-anchor="middle" x="519" y="-6.5" font-family="Helvetica,sans-Serif" font-size="10.00">cassert</text>
</a>
</g>
</g>
<!-- Node7&#45;&gt;Node8 -->
<g id="edge7" class="edge">
<title>Node7&#45;&gt;Node8</title>
<path fill="none" stroke="midnightblue" d="M487.78,-55.22C493.08,-47.63 501.08,-36.18 507.65,-26.76"/>
<polygon fill="midnightblue" stroke="midnightblue" points="510.53,-28.75 513.38,-18.55 504.79,-24.75 510.53,-28.75"/>
</g>
<!-- Node9 -->
<g id="node9" class="node">
<title>Node9</title>
<g id="a_node9"><a xlink:title=" ">
<polygon fill="none" stroke="#bfbfbf" points="617.88,-0.5 617.88,-18.5 666.12,-18.5 666.12,-0.5 617.88,-0.5"/>
<text text-anchor="middle" x="642" y="-6.5" font-family="Helvetica,sans-Serif" font-size="10.00">cstddef</text>
</a>
</g>
</g>
<!-- Node7&#45;&gt;Node9 -->
<g id="edge8" class="edge">
<title>Node7&#45;&gt;Node9</title>
<path fill="none" stroke="midnightblue" d="M506.3,-55.45C533.4,-46.47 577.42,-31.89 607.94,-21.78"/>
<polygon fill="midnightblue" stroke="midnightblue" points="609.34,-25.01 617.73,-18.54 607.14,-18.36 609.34,-25.01"/>
</g>
<!-- Node10 -->
<g id="node10" class="node">
<title>Node10</title>
<g id="a_node10"><a xlink:title=" ">
<polygon fill="none" stroke="#bfbfbf" points="414.93,-0.5 414.93,-18.5 477.07,-18.5 477.07,-0.5 414.93,-0.5"/>
<text text-anchor="middle" x="446" y="-6.5" font-family="Helvetica,sans-Serif" font-size="10.00">type_traits</text>
</a>
</g>
</g>
<!-- Node7&#45;&gt;Node10 -->
<g id="edge9" class="edge">
<title>Node7&#45;&gt;Node10</title>
<path fill="none" stroke="midnightblue" d="M476.38,-55.22C471.27,-47.71 463.6,-36.41 457.24,-27.05"/>
<polygon fill="midnightblue" stroke="midnightblue" points="459.98,-24.86 451.47,-18.55 454.19,-28.79 459.98,-24.86"/>
</g>
<!-- Node13 -->
<g id="node13" class="node">
<title>Node13</title>
<g id="a_node13"><a xlink:href="../../d6/dec/_logger_8h.html" target="_top" xlink:title=" ">
<polygon fill="none" stroke="black" points="320.09,-660.5 320.09,-678.5 403.91,-678.5 403.91,-660.5 320.09,-660.5"/>
<text text-anchor="middle" x="362" y="-666.5" font-family="Helvetica,sans-Serif" font-size="10.00">tralics/Logger.h</text>
</a>
</g>
</g>
<!-- Node12&#45;&gt;Node13 -->
<g id="edge12" class="edge">
<title>Node12&#45;&gt;Node13</title>
<path fill="none" stroke="midnightblue" d="M401.66,-715.22C394.79,-707.47 384.35,-695.7 375.9,-686.18"/>
<polygon fill="midnightblue" stroke="midnightblue" points="378.39,-683.71 369.14,-678.55 373.15,-688.35 378.39,-683.71"/>
</g>
<!-- Node14 -->
<g id="node14" class="node">
<title>Node14</title>
<g id="a_node14"><a xlink:href="../../d7/d79/txinline_8h.html" target="_top" xlink:title=" ">
<polygon fill="none" stroke="black" points="400.1,-605.5 400.1,-623.5 463.9,-623.5 463.9,-605.5 400.1,-605.5"/>
<text text-anchor="middle" x="432" y="-611.5" font-family="Helvetica,sans-Serif" font-size="10.00">../txinline.h</text>
</a>
</g>
</g>
<!-- Node13&#45;&gt;Node14 -->
<g id="edge13" class="edge">
<title>Node13&#45;&gt;Node14</title>
<path fill="none" stroke="midnightblue" d="M372.63,-660.45C383.32,-652.36 400.03,-639.7 413,-629.88"/>
<polygon fill="midnightblue" stroke="midnightblue" points="415.41,-632.45 421.27,-623.63 411.18,-626.87 415.41,-632.45"/>
</g>
<!-- Node34 -->
<g id="node34" class="node">
<title>Node34</title>
<g id="a_node34"><a xlink:title=" ">
<polygon fill="none" stroke="#bfbfbf" points="225.94,-605.5 225.94,-623.5 278.06,-623.5 278.06,-605.5 225.94,-605.5"/>
<text text-anchor="middle" x="252" y="-611.5" font-family="Helvetica,sans-Serif" font-size="10.00">memory</text>
</a>
</g>
</g>
<!-- Node13&#45;&gt;Node34 -->
<g id="edge40" class="edge">
<title>Node13&#45;&gt;Node34</title>
<path fill="none" stroke="midnightblue" d="M345.29,-660.45C327.44,-651.85 298.92,-638.1 278.1,-628.08"/>
<polygon fill="midnightblue" stroke="midnightblue" points="279.39,-624.81 268.86,-623.63 276.35,-631.12 279.39,-624.81"/>
</g>
<!-- Node35 -->
<g id="node35" class="node">
<title>Node35</title>
<g id="a_node35"><a xlink:title=" ">
<polygon fill="none" stroke="#bfbfbf" points="295.97,-605.5 295.97,-623.5 382.03,-623.5 382.03,-605.5 295.97,-605.5"/>
<text text-anchor="middle" x="339" y="-611.5" font-family="Helvetica,sans-Serif" font-size="10.00">spdlog/spdlog.h</text>
</a>
</g>
</g>
<!-- Node13&#45;&gt;Node35 -->
<g id="edge41" class="edge">
<title>Node13&#45;&gt;Node35</title>
<path fill="none" stroke="midnightblue" d="M358.41,-660.22C355.25,-652.94 350.55,-642.11 346.57,-632.93"/>
<polygon fill="midnightblue" stroke="midnightblue" points="349.68,-631.33 342.49,-623.55 343.26,-634.12 349.68,-631.33"/>
</g>
<!-- Node15 -->
<g id="node15" class="node">
<title>Node15</title>
<g id="a_node15"><a xlink:href="../../d4/de9/_main_class_8h.html" target="_top" xlink:title=" ">
<polygon fill="none" stroke="black" points="274.04,-550.5 274.04,-568.5 373.96,-568.5 373.96,-550.5 274.04,-550.5"/>
<text text-anchor="middle" x="324" y="-556.5" font-family="Helvetica,sans-Serif" font-size="10.00">tralics/MainClass.h</text>
</a>
</g>
</g>
<!-- Node14&#45;&gt;Node15 -->
<g id="edge14" class="edge">
<title>Node14&#45;&gt;Node15</title>
<path fill="none" stroke="midnightblue" d="M415.6,-605.45C398.07,-596.85 370.06,-583.1 349.63,-573.08"/>
<polygon fill="midnightblue" stroke="midnightblue" points="351.08,-569.89 340.56,-568.63 347.99,-576.17 351.08,-569.89"/>
</g>
<!-- Node33 -->
<g id="node33" class="node">
<title>Node33</title>
<g id="a_node33"><a xlink:href="../../d5/d08/txparam_8h.html" target="_top" xlink:title=" ">
<polygon fill="none" stroke="black" points="391.77,-550.5 391.77,-568.5 452.23,-568.5 452.23,-550.5 391.77,-550.5"/>
<text text-anchor="middle" x="422" y="-556.5" font-family="Helvetica,sans-Serif" font-size="10.00">txparam.h</text>
</a>
</g>
</g>
<!-- Node14&#45;&gt;Node33 -->
<g id="edge38" class="edge">
<title>Node14&#45;&gt;Node33</title>
<path fill="none" stroke="midnightblue" d="M430.44,-605.22C429.09,-598.1 427.11,-587.58 425.4,-578.53"/>
<polygon fill="midnightblue" stroke="midnightblue" points="428.81,-577.73 423.52,-568.55 421.93,-579.03 428.81,-577.73"/>
</g>
<!-- Node16 -->
<g id="node16" class="node">
<title>Node16</title>
<g id="a_node16"><a xlink:href="../../de/d29/txio_8h.html" target="_top" xlink:title=" ">
<polygon fill="none" stroke="black" points="329.88,-495.5 329.88,-513.5 378.12,-513.5 378.12,-495.5 329.88,-495.5"/>
<text text-anchor="middle" x="354" y="-501.5" font-family="Helvetica,sans-Serif" font-size="10.00">../txio.h</text>
</a>
</g>
</g>
<!-- Node15&#45;&gt;Node16 -->
<g id="edge15" class="edge">
<title>Node15&#45;&gt;Node16</title>
<path fill="none" stroke="midnightblue" d="M328.69,-550.22C332.89,-542.79 339.2,-531.65 344.47,-522.34"/>
<polygon fill="midnightblue" stroke="midnightblue" points="347.56,-523.98 349.44,-513.55 341.47,-520.53 347.56,-523.98"/>
</g>
<!-- Node17 -->
<g id="node17" class="node">
<title>Node17</title>
<g id="a_node17"><a xlink:href="../../d7/d1b/_buffer_8h.html" target="_top" xlink:title=" ">
<polygon fill="none" stroke="black" points="208.41,-440.5 208.41,-458.5 287.59,-458.5 287.59,-440.5 208.41,-440.5"/>
<text text-anchor="middle" x="248" y="-446.5" font-family="Helvetica,sans-Serif" font-size="10.00">tralics/Buffer.h</text>
</a>
</g>
</g>
<!-- Node16&#45;&gt;Node17 -->
<g id="edge16" class="edge">
<title>Node16&#45;&gt;Node17</title>
<path fill="none" stroke="midnightblue" d="M337.9,-495.45C320.78,-486.89 293.46,-473.23 273.42,-463.21"/>
<polygon fill="midnightblue" stroke="midnightblue" points="274.76,-459.97 264.25,-458.63 271.63,-466.23 274.76,-459.97"/>
</g>
<!-- Node32 -->
<g id="node32" class="node">
<title>Node32</title>
<g id="a_node32"><a xlink:title=" ">
<polygon fill="none" stroke="#bfbfbf" points="384.33,-440.5 384.33,-458.5 433.67,-458.5 433.67,-440.5 384.33,-440.5"/>
<text text-anchor="middle" x="409" y="-446.5" font-family="Helvetica,sans-Serif" font-size="10.00">fstream</text>
</a>
</g>
</g>
<!-- Node16&#45;&gt;Node32 -->
<g id="edge37" class="edge">
<title>Node16&#45;&gt;Node32</title>
<path fill="none" stroke="midnightblue" d="M362.59,-495.22C370.79,-487.32 383.34,-475.22 393.32,-465.61"/>
<polygon fill="midnightblue" stroke="midnightblue" points="395.87,-468.01 400.65,-458.55 391.02,-462.97 395.87,-468.01"/>
</g>
<!-- Node17&#45;&gt;Node11 -->
<g id="edge36" class="edge">
<title>Node17&#45;&gt;Node11</title>
<path fill="none" stroke="midnightblue" d="M238.75,-440.22C230.03,-431.91 217.26,-418.32 210,-404 193.32,-371.11 186.37,-328.02 183.64,-303.9"/>
<polygon fill="midnightblue" stroke="midnightblue" points="187.09,-303.31 182.61,-293.71 180.13,-304.01 187.09,-303.31"/>
</g>
<!-- Node18 -->
<g id="node18" class="node">
<title>Node18</title>
<g id="a_node18"><a xlink:href="../../d1/d9e/txid_8h.html" target="_top" xlink:title=" ">
<polygon fill="none" stroke="black" points="354.88,-385.5 354.88,-403.5 403.12,-403.5 403.12,-385.5 354.88,-385.5"/>
<text text-anchor="middle" x="379" y="-391.5" font-family="Helvetica,sans-Serif" font-size="10.00">../txid.h</text>
</a>
</g>
</g>
<!-- Node17&#45;&gt;Node18 -->
<g id="edge17" class="edge">
<title>Node17&#45;&gt;Node18</title>
<path fill="none" stroke="midnightblue" d="M267.9,-440.45C289.63,-431.66 324.67,-417.48 349.59,-407.4"/>
<polygon fill="midnightblue" stroke="midnightblue" points="350.96,-410.62 358.92,-403.63 348.33,-404.13 350.96,-410.62"/>
</g>
<!-- Node22 -->
<g id="node22" class="node">
<title>Node22</title>
<g id="a_node22"><a xlink:href="../../d9/d18/txscaled_8h.html" target="_top" xlink:title=" ">
<polygon fill="none" stroke="black" points="502.32,-385.5 502.32,-403.5 571.68,-403.5 571.68,-385.5 502.32,-385.5"/>
<text text-anchor="middle" x="537" y="-391.5" font-family="Helvetica,sans-Serif" font-size="10.00">../txscaled.h</text>
</a>
</g>
</g>
<!-- Node17&#45;&gt;Node22 -->
<g id="edge22" class="edge">
<title>Node17&#45;&gt;Node22</title>
<path fill="none" stroke="midnightblue" d="M287.88,-441.19C341.38,-431.38 436.11,-414 492.07,-403.74"/>
<polygon fill="midnightblue" stroke="midnightblue" points="492.84,-407.16 502.05,-401.91 491.58,-400.27 492.84,-407.16"/>
</g>
<!-- Node30 -->
<g id="node30" class="node">
<title>Node30</title>
<g id="a_node30"><a xlink:title=" ">
<polygon fill="none" stroke="#bfbfbf" points="219.27,-385.5 219.27,-403.5 264.73,-403.5 264.73,-385.5 219.27,-385.5"/>
<text text-anchor="middle" x="242" y="-391.5" font-family="Helvetica,sans-Serif" font-size="10.00">cstring</text>
</a>
</g>
</g>
<!-- Node17&#45;&gt;Node30 -->
<g id="edge34" class="edge">
<title>Node17&#45;&gt;Node30</title>
<path fill="none" stroke="midnightblue" d="M247.06,-440.22C246.26,-433.1 245.07,-422.58 244.04,-413.53"/>
<polygon fill="midnightblue" stroke="midnightblue" points="247.51,-413.09 242.91,-403.55 240.56,-413.88 247.51,-413.09"/>
</g>
<!-- Node31 -->
<g id="node31" class="node">
<title>Node31</title>
<g id="a_node31"><a xlink:title=" ">
<polygon fill="none" stroke="#bfbfbf" points="282.83,-385.5 282.83,-403.5 337.17,-403.5 337.17,-385.5 282.83,-385.5"/>
<text text-anchor="middle" x="310" y="-391.5" font-family="Helvetica,sans-Serif" font-size="10.00">iostream</text>
</a>
</g>
</g>
<!-- Node17&#45;&gt;Node31 -->
<g id="edge35" class="edge">
<title>Node17&#45;&gt;Node31</title>
<path fill="none" stroke="midnightblue" d="M257.42,-440.45C266.79,-432.43 281.4,-419.95 292.84,-410.17"/>
<polygon fill="midnightblue" stroke="midnightblue" points="295.17,-412.78 300.49,-403.63 290.62,-407.46 295.17,-412.78"/>
</g>
<!-- Node19 -->
<g id="node19" class="node">
<title>Node19</title>
<g id="a_node19"><a xlink:href="../../d5/daf/_istring_8h.html" target="_top" xlink:title=" ">
<polygon fill="none" stroke="black" points="299.77,-275.5 299.77,-293.5 380.23,-293.5 380.23,-275.5 299.77,-275.5"/>
<text text-anchor="middle" x="340" y="-281.5" font-family="Helvetica,sans-Serif" font-size="10.00">tralics/Istring.h</text>
</a>
</g>
</g>
<!-- Node18&#45;&gt;Node19 -->
<g id="edge18" class="edge">
<title>Node18&#45;&gt;Node19</title>
<path fill="none" stroke="midnightblue" d="M375.52,-385.36C371.77,-376.48 365.71,-361.83 361,-349 355.43,-333.83 349.71,-316.38 345.64,-303.61"/>
<polygon fill="midnightblue" stroke="midnightblue" points="348.89,-302.27 342.55,-293.78 342.21,-304.37 348.89,-302.27"/>
</g>
<!-- Node19&#45;&gt;Node5 -->
<g id="edge19" class="edge">
<title>Node19&#45;&gt;Node5</title>
<path fill="none" stroke="midnightblue" d="M331.74,-275.35C323.63,-266.93 311.42,-253.06 304,-239 296.44,-224.67 291.45,-206.9 288.49,-193.81"/>
<polygon fill="midnightblue" stroke="midnightblue" points="291.85,-192.79 286.4,-183.71 285,-194.21 291.85,-192.79"/>
</g>
<!-- Node20 -->
<g id="node20" class="node">
<title>Node20</title>
<g id="a_node20"><a xlink:title=" ">
<polygon fill="none" stroke="#bfbfbf" points="312.61,-220.5 312.61,-238.5 351.39,-238.5 351.39,-220.5 312.61,-220.5"/>
<text text-anchor="middle" x="332" y="-226.5" font-family="Helvetica,sans-Serif" font-size="10.00">array</text>
</a>
</g>
</g>
<!-- Node19&#45;&gt;Node20 -->
<g id="edge20" class="edge">
<title>Node19&#45;&gt;Node20</title>
<path fill="none" stroke="midnightblue" d="M338.75,-275.22C337.68,-268.1 336.09,-257.58 334.72,-248.53"/>
<polygon fill="midnightblue" stroke="midnightblue" points="338.17,-247.92 333.22,-238.55 331.25,-248.96 338.17,-247.92"/>
</g>
<!-- Node21 -->
<g id="node21" class="node">
<title>Node21</title>
<g id="a_node21"><a xlink:title=" ">
<polygon fill="none" stroke="#bfbfbf" points="216.77,-220.5 216.77,-238.5 257.23,-238.5 257.23,-220.5 216.77,-220.5"/>
<text text-anchor="middle" x="237" y="-226.5" font-family="Helvetica,sans-Serif" font-size="10.00">string</text>
</a>
</g>
</g>
<!-- Node19&#45;&gt;Node21 -->
<g id="edge21" class="edge">
<title>Node19&#45;&gt;Node21</title>
<path fill="none" stroke="midnightblue" d="M324.36,-275.45C307.72,-266.89 281.17,-253.23 261.7,-243.21"/>
<polygon fill="midnightblue" stroke="midnightblue" points="263.28,-240.09 252.79,-238.63 260.08,-246.31 263.28,-240.09"/>
</g>
<!-- Node23 -->
<g id="node23" class="node">
<title>Node23</title>
<g id="a_node23"><a xlink:href="../../dc/d91/txtokenlist_8h.html" target="_top" xlink:title=" ">
<polygon fill="none" stroke="black" points="432.6,-330.5 432.6,-348.5 501.4,-348.5 501.4,-330.5 432.6,-330.5"/>
<text text-anchor="middle" x="467" y="-336.5" font-family="Helvetica,sans-Serif" font-size="10.00">txtokenlist.h</text>
</a>
</g>
</g>
<!-- Node22&#45;&gt;Node23 -->
<g id="edge23" class="edge">
<title>Node22&#45;&gt;Node23</title>
<path fill="none" stroke="midnightblue" d="M526.37,-385.45C515.68,-377.36 498.97,-364.7 486,-354.88"/>
<polygon fill="midnightblue" stroke="midnightblue" points="487.82,-351.87 477.73,-348.63 483.59,-357.45 487.82,-351.87"/>
</g>
<!-- Node23&#45;&gt;Node19 -->
<g id="edge24" class="edge">
<title>Node23&#45;&gt;Node19</title>
<path fill="none" stroke="midnightblue" d="M447.71,-330.45C426.73,-321.7 392.97,-307.61 368.84,-297.53"/>
<polygon fill="midnightblue" stroke="midnightblue" points="370.05,-294.25 359.47,-293.63 367.35,-300.71 370.05,-294.25"/>
</g>
<!-- Node24 -->
<g id="node24" class="node">
<title>Node24</title>
<g id="a_node24"><a xlink:href="../../dd/dcd/_token_8h.html" target="_top" xlink:title=" ">
<polygon fill="none" stroke="black" points="398.04,-275.5 398.04,-293.5 477.96,-293.5 477.96,-275.5 398.04,-275.5"/>
<text text-anchor="middle" x="438" y="-281.5" font-family="Helvetica,sans-Serif" font-size="10.00">tralics/Token.h</text>
</a>
</g>
</g>
<!-- Node23&#45;&gt;Node24 -->
<g id="edge25" class="edge">
<title>Node23&#45;&gt;Node24</title>
<path fill="none" stroke="midnightblue" d="M462.47,-330.22C458.4,-322.79 452.31,-311.65 447.22,-302.34"/>
<polygon fill="midnightblue" stroke="midnightblue" points="450.28,-300.64 442.4,-293.55 444.13,-304 450.28,-300.64"/>
</g>
<!-- Node29 -->
<g id="node29" class="node">
<title>Node29</title>
<g id="a_node29"><a xlink:title=" ">
<polygon fill="none" stroke="#bfbfbf" points="571.61,-275.5 571.61,-293.5 610.39,-293.5 610.39,-275.5 571.61,-275.5"/>
<text text-anchor="middle" x="591" y="-281.5" font-family="Helvetica,sans-Serif" font-size="10.00">utility</text>
</a>
</g>
</g>
<!-- Node23&#45;&gt;Node29 -->
<g id="edge33" class="edge">
<title>Node23&#45;&gt;Node29</title>
<path fill="none" stroke="midnightblue" d="M485.83,-330.45C506.23,-321.73 538.99,-307.73 562.53,-297.67"/>
<polygon fill="midnightblue" stroke="midnightblue" points="564.17,-300.77 571.99,-293.63 561.42,-294.34 564.17,-300.77"/>
</g>
<!-- Node24&#45;&gt;Node20 -->
<g id="edge31" class="edge">
<title>Node24&#45;&gt;Node20</title>
<path fill="none" stroke="midnightblue" d="M421.9,-275.45C404.78,-266.89 377.46,-253.23 357.42,-243.21"/>
<polygon fill="midnightblue" stroke="midnightblue" points="358.76,-239.97 348.25,-238.63 355.63,-246.23 358.76,-239.97"/>
</g>
<!-- Node25 -->
<g id="node25" class="node">
<title>Node25</title>
<g id="a_node25"><a xlink:href="../../d2/d68/_cmd_chr_8h.html" target="_top" xlink:title=" ">
<polygon fill="none" stroke="black" points="369.49,-220.5 369.49,-238.5 430.51,-238.5 430.51,-220.5 369.49,-220.5"/>
<text text-anchor="middle" x="400" y="-226.5" font-family="Helvetica,sans-Serif" font-size="10.00">CmdChr.h</text>
</a>
</g>
</g>
<!-- Node24&#45;&gt;Node25 -->
<g id="edge26" class="edge">
<title>Node24&#45;&gt;Node25</title>
<path fill="none" stroke="midnightblue" d="M432.06,-275.22C426.62,-267.63 418.41,-256.18 411.66,-246.76"/>
<polygon fill="midnightblue" stroke="midnightblue" points="414.44,-244.64 405.77,-238.55 408.75,-248.72 414.44,-244.64"/>
</g>
<!-- Node28 -->
<g id="node28" class="node">
<title>Node28</title>
<g id="a_node28"><a xlink:title=" ">
<polygon fill="none" stroke="#bfbfbf" points="448.5,-220.5 448.5,-238.5 477.5,-238.5 477.5,-220.5 448.5,-220.5"/>
<text text-anchor="middle" x="462.61" y="-226.5" font-family="Helvetica,sans-Serif" font-size="10.00">list</text>
</a>
</g>
</g>
<!-- Node24&#45;&gt;Node28 -->
<g id="edge32" class="edge">
<title>Node24&#45;&gt;Node28</title>
<path fill="none" stroke="midnightblue" d="M441.91,-275.22C445.38,-267.86 450.56,-256.88 454.92,-247.64"/>
<polygon fill="midnightblue" stroke="midnightblue" points="458.1,-249.09 459.2,-238.55 451.77,-246.1 458.1,-249.09"/>
</g>
<!-- Node25&#45;&gt;Node5 -->
<g id="edge30" class="edge">
<title>Node25&#45;&gt;Node5</title>
<path fill="none" stroke="midnightblue" d="M382.53,-220.45C363.79,-211.81 333.78,-197.98 311.99,-187.94"/>
<polygon fill="midnightblue" stroke="midnightblue" points="313.18,-184.63 302.63,-183.63 310.25,-190.99 313.18,-184.63"/>
</g>
<!-- Node26 -->
<g id="node26" class="node">
<title>Node26</title>
<g id="a_node26"><a xlink:href="../../d8/d47/codepoint_8h.html" target="_top" xlink:title=" ">
<polygon fill="none" stroke="black" points="448.15,-165.5 448.15,-183.5 515.85,-183.5 515.85,-165.5 448.15,-165.5"/>
<text text-anchor="middle" x="482" y="-171.5" font-family="Helvetica,sans-Serif" font-size="10.00">codepoint.h</text>
</a>
</g>
</g>
<!-- Node25&#45;&gt;Node26 -->
<g id="edge27" class="edge">
<title>Node25&#45;&gt;Node26</title>
<path fill="none" stroke="midnightblue" d="M412.45,-220.45C425.22,-212.2 445.31,-199.22 460.62,-189.32"/>
<polygon fill="midnightblue" stroke="midnightblue" points="462.93,-191.99 469.43,-183.63 459.13,-186.11 462.93,-191.99"/>
</g>
<!-- Node26&#45;&gt;Node7 -->
<g id="edge28" class="edge">
<title>Node26&#45;&gt;Node7</title>
<path fill="none" stroke="midnightblue" d="M482,-165.38C482,-148.18 482,-107.7 482,-83.89"/>
<polygon fill="midnightblue" stroke="midnightblue" points="485.5,-83.71 482,-73.71 478.5,-83.71 485.5,-83.71"/>
</g>
<!-- Node27 -->
<g id="node27" class="node">
<title>Node27</title>
<g id="a_node27"><a xlink:title=" ">
<polygon fill="none" stroke="#bfbfbf" points="514.49,-110.5 514.49,-128.5 565.51,-128.5 565.51,-110.5 514.49,-110.5"/>
<text text-anchor="middle" x="540" y="-116.5" font-family="Helvetica,sans-Serif" font-size="10.00">optional</text>
</a>
</g>
</g>
<!-- Node26&#45;&gt;Node27 -->
<g id="edge29" class="edge">
<title>Node26&#45;&gt;Node27</title>
<path fill="none" stroke="midnightblue" d="M491.06,-165.22C499.8,-157.24 513.21,-144.98 523.78,-135.32"/>
<polygon fill="midnightblue" stroke="midnightblue" points="526.17,-137.88 531.19,-128.55 521.45,-132.71 526.17,-137.88"/>
</g>
<!-- Node33&#45;&gt;Node16 -->
<g id="edge39" class="edge">
<title>Node33&#45;&gt;Node16</title>
<path fill="none" stroke="midnightblue" d="M411.67,-550.45C401.29,-542.36 385.05,-529.7 372.45,-519.88"/>
<polygon fill="midnightblue" stroke="midnightblue" points="374.46,-517.01 364.42,-513.63 370.16,-522.53 374.46,-517.01"/>
</g>
<!-- Node36&#45;&gt;Node21 -->
<g id="edge43" class="edge">
<title>Node36&#45;&gt;Node21</title>
<path fill="none" stroke="midnightblue" d="M637.34,-330.39C637.43,-316.66 635.42,-288.95 619,-275 565.3,-229.39 373.95,-247.43 304,-239 292.06,-237.56 278.93,-235.91 267.48,-234.45"/>
<polygon fill="midnightblue" stroke="midnightblue" points="267.88,-230.97 257.52,-233.17 266.99,-237.91 267.88,-230.97"/>
</g>
<!-- Node36&#45;&gt;Node29 -->
<g id="edge44" class="edge">
<title>Node36&#45;&gt;Node29</title>
<path fill="none" stroke="midnightblue" d="M629.81,-330.22C623.09,-322.47 612.87,-310.7 604.61,-301.18"/>
<polygon fill="midnightblue" stroke="midnightblue" points="607.18,-298.81 597.99,-293.55 601.9,-303.4 607.18,-298.81"/>
</g>
<!-- Node38 -->
<g id="node38" class="node">
<title>Node38</title>
<g id="a_node38"><a xlink:href="../../d9/d1c/_xml_8h.html" target="_top" xlink:title=" ">
<polygon fill="none" stroke="black" points="425.77,-495.5 425.77,-513.5 496.23,-513.5 496.23,-495.5 425.77,-495.5"/>
<text text-anchor="middle" x="461" y="-501.5" font-family="Helvetica,sans-Serif" font-size="10.00">tralics/Xml.h</text>
</a>
</g>
</g>
<!-- Node37&#45;&gt;Node38 -->
<g id="edge46" class="edge">
<title>Node37&#45;&gt;Node38</title>
<path fill="none" stroke="midnightblue" d="M495.59,-550.22C489.66,-542.55 480.68,-530.94 473.35,-521.47"/>
<polygon fill="midnightblue" stroke="midnightblue" points="476.11,-519.32 467.23,-513.55 470.58,-523.6 476.11,-519.32"/>
</g>
<!-- Node40 -->
<g id="node40" class="node">
<title>Node40</title>
<g id="a_node40"><a xlink:href="../../d4/da4/txatt_8h.html" target="_top" xlink:title=" ">
<polygon fill="none" stroke="black" points="370.38,-330.5 370.38,-348.5 413.62,-348.5 413.62,-330.5 370.38,-330.5"/>
<text text-anchor="middle" x="392" y="-336.5" font-family="Helvetica,sans-Serif" font-size="10.00">txatt.h</text>
</a>
</g>
</g>
<!-- Node37&#45;&gt;Node40 -->
<g id="edge49" class="edge">
<title>Node37&#45;&gt;Node40</title>
<path fill="none" stroke="midnightblue" d="M504.54,-550.26C510.24,-530.28 522.2,-478.07 505,-440 486.99,-400.15 444.27,-369.9 416.82,-353.71"/>
<polygon fill="midnightblue" stroke="midnightblue" points="418.24,-350.49 407.82,-348.58 414.77,-356.57 418.24,-350.49"/>
</g>
<!-- Node38&#45;&gt;Node17 -->
<g id="edge47" class="edge">
<title>Node38&#45;&gt;Node17</title>
<path fill="none" stroke="midnightblue" d="M428.65,-495.45C391.64,-486.24 330.9,-471.13 290.2,-461"/>
<polygon fill="midnightblue" stroke="midnightblue" points="290.85,-457.56 280.3,-458.54 289.16,-464.35 290.85,-457.56"/>
</g>
<!-- Node39 -->
<g id="node39" class="node">
<title>Node39</title>
<g id="a_node39"><a xlink:title=" ">
<polygon fill="none" stroke="#bfbfbf" points="451.83,-440.5 451.83,-458.5 496.17,-458.5 496.17,-440.5 451.83,-440.5"/>
<text text-anchor="middle" x="474" y="-446.5" font-family="Helvetica,sans-Serif" font-size="10.00">gsl/gsl</text>
</a>
</g>
</g>
<!-- Node38&#45;&gt;Node39 -->
<g id="edge48" class="edge">
<title>Node38&#45;&gt;Node39</title>
<path fill="none" stroke="midnightblue" d="M463.03,-495.22C464.78,-488.1 467.36,-477.58 469.58,-468.53"/>
<polygon fill="midnightblue" stroke="midnightblue" points="473.04,-469.1 472.03,-458.55 466.24,-467.43 473.04,-469.1"/>
</g>
<!-- Node40&#45;&gt;Node11 -->
<g id="edge52" class="edge">
<title>Node40&#45;&gt;Node11</title>
<path fill="none" stroke="midnightblue" d="M370.19,-333.26C338.15,-325.52 276.25,-310.41 213.7,-294.13"/>
<polygon fill="midnightblue" stroke="midnightblue" points="214.22,-290.65 203.66,-291.51 212.45,-297.42 214.22,-290.65"/>
</g>
<!-- Node40&#45;&gt;Node19 -->
<g id="edge50" class="edge">
<title>Node40&#45;&gt;Node19</title>
<path fill="none" stroke="midnightblue" d="M383.88,-330.22C376.2,-322.39 364.49,-310.46 355.1,-300.89"/>
<polygon fill="midnightblue" stroke="midnightblue" points="357.4,-298.24 347.9,-293.55 352.4,-303.14 357.4,-298.24"/>
</g>
<!-- Node40&#45;&gt;Node27 -->
<g id="edge51" class="edge">
<title>Node40&#45;&gt;Node27</title>
<path fill="none" stroke="midnightblue" d="M413.92,-332.67C443.5,-324.36 493.88,-308.51 506,-294 544.02,-248.5 544.02,-172.88 541.73,-138.5"/>
<polygon fill="midnightblue" stroke="midnightblue" points="545.22,-138.21 540.92,-128.53 538.24,-138.78 545.22,-138.21"/>
</g>
<!-- Node41&#45;&gt;Node9 -->
<g id="edge54" class="edge">
<title>Node41&#45;&gt;Node9</title>
<path fill="none" stroke="midnightblue" d="M698.13,-660.37C698.4,-642.38 699,-597.81 699,-560.5 699,-560.5 699,-560.5 699,-118.5 699,-82.3 673.65,-46.35 656.76,-26.42"/>
<polygon fill="midnightblue" stroke="midnightblue" points="659.17,-23.85 649.93,-18.67 653.92,-28.48 659.17,-23.85"/>
</g>
<!-- Node42&#45;&gt;Node22 -->
<g id="edge56" class="edge">
<title>Node42&#45;&gt;Node22</title>
<path fill="none" stroke="midnightblue" d="M548.03,-715.43C552.33,-697.56 562,-653.22 562,-615.5 562,-615.5 562,-615.5 562,-503.5 562,-471.05 551.16,-434.5 543.75,-413.32"/>
<polygon fill="midnightblue" stroke="midnightblue" points="546.98,-411.95 540.27,-403.75 540.4,-414.35 546.98,-411.95"/>
</g>
<!-- Node43&#45;&gt;Node17 -->
<g id="edge60" class="edge">
<title>Node43&#45;&gt;Node17</title>
<path fill="none" stroke="midnightblue" d="M226.91,-495.22C230.38,-487.86 235.56,-476.88 239.92,-467.64"/>
<polygon fill="midnightblue" stroke="midnightblue" points="243.1,-469.09 244.2,-458.55 236.77,-466.1 243.1,-469.09"/>
</g>
<!-- Node44 -->
<g id="node44" class="node">
<title>Node44</title>
<g id="a_node44"><a xlink:href="../../d3/d01/txeqtb_8h.html" target="_top" xlink:title=" ">
<polygon fill="none" stroke="black" points="306.04,-440.5 306.04,-458.5 365.96,-458.5 365.96,-440.5 306.04,-440.5"/>
<text text-anchor="middle" x="336" y="-446.5" font-family="Helvetica,sans-Serif" font-size="10.00">../txeqtb.h</text>
</a>
</g>
</g>
<!-- Node43&#45;&gt;Node44 -->
<g id="edge58" class="edge">
<title>Node43&#45;&gt;Node44</title>
<path fill="none" stroke="midnightblue" d="M240.16,-495.45C258.58,-486.81 288.07,-472.98 309.48,-462.94"/>
<polygon fill="midnightblue" stroke="midnightblue" points="311.11,-466.04 318.68,-458.63 308.14,-459.7 311.11,-466.04"/>
</g>
<!-- Node45 -->
<g id="node45" class="node">
<title>Node45</title>
<g id="a_node45"><a xlink:title=" ">
<polygon fill="none" stroke="#bfbfbf" points="103.7,-440.5 103.7,-458.5 190.3,-458.5 190.3,-440.5 103.7,-440.5"/>
<text text-anchor="middle" x="147" y="-446.5" font-family="Helvetica,sans-Serif" font-size="10.00">unordered_map</text>
</a>
</g>
</g>
<!-- Node43&#45;&gt;Node45 -->
<g id="edge61" class="edge">
<title>Node43&#45;&gt;Node45</title>
<path fill="none" stroke="midnightblue" d="M211.46,-495.45C199.74,-487.28 181.36,-474.46 167.22,-464.6"/>
<polygon fill="midnightblue" stroke="midnightblue" points="168.86,-461.47 158.65,-458.63 164.85,-467.22 168.86,-461.47"/>
</g>
<!-- Node44&#45;&gt;Node22 -->
<g id="edge59" class="edge">
<title>Node44&#45;&gt;Node22</title>
<path fill="none" stroke="midnightblue" d="M366.09,-440.57C400.78,-431.42 457.94,-416.35 496.51,-406.18"/>
<polygon fill="midnightblue" stroke="midnightblue" points="497.6,-409.51 506.37,-403.58 495.81,-402.74 497.6,-409.51"/>
</g>
<!-- Node46&#45;&gt;Node19 -->
<g id="edge63" class="edge">
<title>Node46&#45;&gt;Node19</title>
<path fill="none" stroke="midnightblue" d="M519.8,-330.45C482.96,-321.24 422.51,-306.13 382,-296"/>
<polygon fill="midnightblue" stroke="midnightblue" points="382.7,-292.57 372.15,-293.54 381.01,-299.36 382.7,-292.57"/>
</g>
<!-- Node46&#45;&gt;Node29 -->
<g id="edge64" class="edge">
<title>Node46&#45;&gt;Node29</title>
<path fill="none" stroke="midnightblue" d="M558.09,-330.22C563.68,-322.63 572.11,-311.18 579.04,-301.76"/>
<polygon fill="midnightblue" stroke="midnightblue" points="581.97,-303.68 585.08,-293.55 576.33,-299.53 581.97,-303.68"/>
</g>
<!-- Node47&#45;&gt;Node11 -->
<g id="edge69" class="edge">
<title>Node47&#45;&gt;Node11</title>
<path fill="none" stroke="midnightblue" d="M241.37,-330.45C230.68,-322.36 213.97,-309.7 201,-299.88"/>
<polygon fill="midnightblue" stroke="midnightblue" points="202.82,-296.87 192.73,-293.63 198.59,-302.45 202.82,-296.87"/>
</g>
<!-- Node47&#45;&gt;Node19 -->
<g id="edge66" class="edge">
<title>Node47&#45;&gt;Node19</title>
<path fill="none" stroke="midnightblue" d="M265.37,-330.45C279.19,-322.12 301.03,-308.97 317.52,-299.04"/>
<polygon fill="midnightblue" stroke="midnightblue" points="319.75,-301.78 326.51,-293.63 316.14,-295.79 319.75,-301.78"/>
</g>
<!-- Node47&#45;&gt;Node26 -->
<g id="edge67" class="edge">
<title>Node47&#45;&gt;Node26</title>
<path fill="none" stroke="midnightblue" d="M280.25,-335.18C339.81,-327.88 473.85,-309.87 487,-294 510.68,-265.42 498.53,-218.34 489.27,-192.98"/>
<polygon fill="midnightblue" stroke="midnightblue" points="492.49,-191.6 485.59,-183.56 485.97,-194.15 492.49,-191.6"/>
</g>
<!-- Node48 -->
<g id="node48" class="node">
<title>Node48</title>
<g id="a_node48"><a xlink:title=" ">
<polygon fill="none" stroke="#bfbfbf" points="221.77,-275.5 221.77,-293.5 282.23,-293.5 282.23,-275.5 221.77,-275.5"/>
<text text-anchor="middle" x="252" y="-281.5" font-family="Helvetica,sans-Serif" font-size="10.00">filesystem</text>
</a>
</g>
</g>
<!-- Node47&#45;&gt;Node48 -->
<g id="edge68" class="edge">
<title>Node47&#45;&gt;Node48</title>
<path fill="none" stroke="midnightblue" d="M252,-330.22C252,-323.18 252,-312.81 252,-303.83"/>
<polygon fill="midnightblue" stroke="midnightblue" points="255.5,-303.55 252,-293.55 248.5,-303.55 255.5,-303.55"/>
</g>
<!-- Node49&#45;&gt;Node5 -->
<g id="edge71" class="edge">
<title>Node49&#45;&gt;Node5</title>
<path fill="none" stroke="midnightblue" d="M57.04,-330.22C75.25,-309.22 126.23,-253.2 179,-220 201.17,-206.05 228.46,-194.71 249.8,-186.97"/>
<polygon fill="midnightblue" stroke="midnightblue" points="251.18,-190.2 259.45,-183.57 248.85,-183.59 251.18,-190.2"/>
</g>
<!-- Node49&#45;&gt;Node11 -->
<g id="edge73" class="edge">
<title>Node49&#45;&gt;Node11</title>
<path fill="none" stroke="midnightblue" d="M70.05,-330.45C91.95,-321.66 127.26,-307.48 152.36,-297.4"/>
<polygon fill="midnightblue" stroke="midnightblue" points="153.79,-300.6 161.76,-293.63 151.18,-294.1 153.79,-300.6"/>
</g>
<!-- Node49&#45;&gt;Node21 -->
<g id="edge72" class="edge">
<title>Node49&#45;&gt;Node21</title>
<path fill="none" stroke="midnightblue" d="M62.24,-330.34C81.03,-317.91 118.27,-293.71 151,-275 170.76,-263.7 193.68,-251.9 210.89,-243.3"/>
<polygon fill="midnightblue" stroke="midnightblue" points="212.89,-246.21 220.29,-238.63 209.78,-239.94 212.89,-246.21"/>
</g>
</g>
</svg>
