<?xml version="1.0" encoding="UTF-8" standalone="no"?>
<!DOCTYPE svg PUBLIC "-//W3C//DTD SVG 1.1//EN"
 "http://www.w3.org/Graphics/SVG/1.1/DTD/svg11.dtd">
<!-- Generated by graphviz version 2.43.0 (0)
 -->
<!-- Title: ParamDataSlot Pages: 1 -->
<svg width="102pt" height="168pt"
 viewBox="0.00 0.00 102.10 168.00" xmlns="http://www.w3.org/2000/svg" xmlns:xlink="http://www.w3.org/1999/xlink">
<g id="graph0" class="graph" transform="scale(1 1) rotate(0) translate(4 164)">
<title>ParamDataSlot</title>
<polygon fill="white" stroke="transparent" points="-4,4 -4,-164 98.1,-164 98.1,4 -4,4"/>
<!-- Node1 -->
<g id="node1" class="node">
<title>Node1</title>
<g id="a_node1"><a xlink:title=" ">
<polygon fill="#bfbfbf" stroke="black" points="5.14,-0.5 5.14,-18.5 88.95,-18.5 88.95,-0.5 5.14,-0.5"/>
<text text-anchor="middle" x="47.05" y="-6.5" font-family="Helvetica,sans-Serif" font-size="10.00">ParamDataSlot</text>
</a>
</g>
</g>
<!-- Node2 -->
<g id="node2" class="node">
<title>Node2</title>
<g id="a_node2"><a xlink:title="STL class.">
<polygon fill="white" stroke="#bfbfbf" points="17.37,-75.5 17.37,-93.5 76.72,-93.5 76.72,-75.5 17.37,-75.5"/>
<text text-anchor="middle" x="47.05" y="-81.5" font-family="Helvetica,sans-Serif" font-size="10.00">std::string</text>
</a>
</g>
</g>
<!-- Node2&#45;&gt;Node1 -->
<g id="edge1" class="edge">
<title>Node2&#45;&gt;Node1</title>
<path fill="none" stroke="#9a32cd" stroke-dasharray="5,2" d="M47.05,-65.35C47.05,-50.48 47.05,-30.12 47.05,-18.85"/>
<polygon fill="#9a32cd" stroke="#9a32cd" points="43.55,-65.41 47.05,-75.41 50.55,-65.41 43.55,-65.41"/>
<text text-anchor="middle" x="59" y="-49" font-family="Helvetica,sans-Serif" font-size="10.00"> key</text>
<text text-anchor="middle" x="59" y="-39" font-family="Helvetica,sans-Serif" font-size="10.00">value</text>
</g>
<!-- Node3 -->
<g id="node3" class="node">
<title>Node3</title>
<g id="a_node3"><a xlink:title="STL class.">
<polygon fill="white" stroke="#bfbfbf" points="0,-131.5 0,-159.5 94.1,-159.5 94.1,-131.5 0,-131.5"/>
<text text-anchor="start" x="8" y="-147.5" font-family="Helvetica,sans-Serif" font-size="10.00">std::basic_string&lt;</text>
<text text-anchor="middle" x="47.05" y="-137.5" font-family="Helvetica,sans-Serif" font-size="10.00"> char &gt;</text>
</a>
</g>
</g>
<!-- Node3&#45;&gt;Node2 -->
<g id="edge2" class="edge">
<title>Node3&#45;&gt;Node2</title>
<path fill="none" stroke="midnightblue" d="M47.05,-121.39C47.05,-111.59 47.05,-100.82 47.05,-93.65"/>
<polygon fill="midnightblue" stroke="midnightblue" points="43.55,-121.41 47.05,-131.41 50.55,-121.41 43.55,-121.41"/>
</g>
</g>
</svg>
