<?xml version="1.0" encoding="UTF-8" standalone="no"?>
<!DOCTYPE svg PUBLIC "-//W3C//DTD SVG 1.1//EN"
 "http://www.w3.org/Graphics/SVG/1.1/DTD/svg11.dtd">
<!-- Generated by graphviz version 2.42.3 (20191010.1750)
 -->
<!-- Title: txmlio.h Pages: 1 -->
<svg width="327pt" height="577pt"
 viewBox="0.00 0.00 326.62 577.00" xmlns="http://www.w3.org/2000/svg" xmlns:xlink="http://www.w3.org/1999/xlink">
<g id="graph0" class="graph" transform="scale(1 1) rotate(0) translate(4 573)">
<title>txmlio.h</title>
<!-- Node1 -->
<g id="node1" class="node">
<title>Node1</title>
<g id="a_node1"><a xlink:title=" ">
<polygon fill="#bfbfbf" stroke="black" points="145,-550.5 145,-568.5 195.45,-568.5 195.45,-550.5 145,-550.5"/>
<text text-anchor="middle" x="170.23" y="-556.5" font-family="Helvetica,sans-Serif" font-size="10.00">txmlio.h</text>
</a>
</g>
</g>
<!-- Node2 -->
<g id="node2" class="node">
<title>Node2</title>
<g id="a_node2"><a xlink:href="../../dd/d74/txbuffer_8h.html" target="_top" xlink:title=" ">
<polygon fill="none" stroke="black" points="117.74,-440.5 117.74,-458.5 174.71,-458.5 174.71,-440.5 117.74,-440.5"/>
<text text-anchor="middle" x="146.23" y="-446.5" font-family="Helvetica,sans-Serif" font-size="10.00">txbuffer.h</text>
</a>
</g>
</g>
<!-- Node1&#45;&gt;Node2 -->
<g id="edge1" class="edge">
<title>Node1&#45;&gt;Node2</title>
<path fill="none" stroke="midnightblue" d="M168.42,-550.38C164.58,-533.1 155.52,-492.33 150.24,-468.56"/>
<polygon fill="midnightblue" stroke="midnightblue" points="153.64,-467.71 148.05,-458.71 146.8,-469.23 153.64,-467.71"/>
</g>
<!-- Node12 -->
<g id="node12" class="node">
<title>Node12</title>
<g id="a_node12"><a xlink:title=" ">
<polygon fill="none" stroke="#bfbfbf" points="0,-220.5 0,-238.5 40.45,-238.5 40.45,-220.5 0,-220.5"/>
<text text-anchor="middle" x="20.23" y="-226.5" font-family="Helvetica,sans-Serif" font-size="10.00">string</text>
</a>
</g>
</g>
<!-- Node1&#45;&gt;Node12 -->
<g id="edge28" class="edge">
<title>Node1&#45;&gt;Node12</title>
<path fill="none" stroke="midnightblue" d="M144.72,-553.66C99.32,-543.41 9.23,-514.95 9.23,-450.5 9.23,-450.5 9.23,-450.5 9.23,-338.5 9.23,-306.71 14,-269.92 17.26,-248.53"/>
<polygon fill="midnightblue" stroke="midnightblue" points="20.73,-249.02 18.83,-238.6 13.81,-247.93 20.73,-249.02"/>
</g>
<!-- Node20 -->
<g id="node20" class="node">
<title>Node20</title>
<g id="a_node20"><a xlink:title=" ">
<polygon fill="none" stroke="#bfbfbf" points="279.83,-275.5 279.83,-293.5 318.62,-293.5 318.62,-275.5 279.83,-275.5"/>
<text text-anchor="middle" x="299.23" y="-281.5" font-family="Helvetica,sans-Serif" font-size="10.00">utility</text>
</a>
</g>
</g>
<!-- Node1&#45;&gt;Node20 -->
<g id="edge29" class="edge">
<title>Node1&#45;&gt;Node20</title>
<path fill="none" stroke="midnightblue" d="M193.74,-550.43C229.95,-536.33 295.23,-503.56 295.23,-450.5 295.23,-450.5 295.23,-450.5 295.23,-393.5 295.23,-362 296.95,-325.36 298.13,-303.87"/>
<polygon fill="midnightblue" stroke="midnightblue" points="301.64,-303.81 298.72,-293.63 294.65,-303.41 301.64,-303.81"/>
</g>
<!-- Node23 -->
<g id="node23" class="node">
<title>Node23</title>
<g id="a_node23"><a xlink:href="../../de/d29/txio_8h.html" target="_top" xlink:title=" ">
<polygon fill="none" stroke="black" points="174.28,-495.5 174.28,-513.5 214.18,-513.5 214.18,-495.5 174.28,-495.5"/>
<text text-anchor="middle" x="194.23" y="-501.5" font-family="Helvetica,sans-Serif" font-size="10.00">txio.h</text>
</a>
</g>
</g>
<!-- Node1&#45;&gt;Node23 -->
<g id="edge25" class="edge">
<title>Node1&#45;&gt;Node23</title>
<path fill="none" stroke="midnightblue" d="M173.98,-550.22C177.27,-542.94 182.18,-532.11 186.33,-522.93"/>
<polygon fill="midnightblue" stroke="midnightblue" points="189.64,-524.1 190.58,-513.55 183.27,-521.22 189.64,-524.1"/>
</g>
<!-- Node3 -->
<g id="node3" class="node">
<title>Node3</title>
<g id="a_node3"><a xlink:href="../../d1/d9e/txid_8h.html" target="_top" xlink:title=" ">
<polygon fill="none" stroke="black" points="117.28,-330.5 117.28,-348.5 157.18,-348.5 157.18,-330.5 117.28,-330.5"/>
<text text-anchor="middle" x="137.23" y="-336.5" font-family="Helvetica,sans-Serif" font-size="10.00">txid.h</text>
</a>
</g>
</g>
<!-- Node2&#45;&gt;Node3 -->
<g id="edge2" class="edge">
<title>Node2&#45;&gt;Node3</title>
<path fill="none" stroke="midnightblue" d="M148.62,-440.23C151.8,-428.07 156.65,-404.67 153.23,-385 151.64,-375.89 148.35,-366.18 145.17,-358.16"/>
<polygon fill="midnightblue" stroke="midnightblue" points="148.32,-356.63 141.19,-348.79 141.87,-359.37 148.32,-356.63"/>
</g>
<!-- Node13 -->
<g id="node13" class="node">
<title>Node13</title>
<g id="a_node13"><a xlink:href="../../d9/d18/txscaled_8h.html" target="_top" xlink:title=" ">
<polygon fill="none" stroke="black" points="200.71,-385.5 200.71,-403.5 261.74,-403.5 261.74,-385.5 200.71,-385.5"/>
<text text-anchor="middle" x="231.23" y="-391.5" font-family="Helvetica,sans-Serif" font-size="10.00">txscaled.h</text>
</a>
</g>
</g>
<!-- Node2&#45;&gt;Node13 -->
<g id="edge12" class="edge">
<title>Node2&#45;&gt;Node13</title>
<path fill="none" stroke="midnightblue" d="M159.14,-440.45C172.49,-432.12 193.59,-418.97 209.51,-409.04"/>
<polygon fill="midnightblue" stroke="midnightblue" points="211.56,-411.89 218.2,-403.63 207.86,-405.95 211.56,-411.89"/>
</g>
<!-- Node21 -->
<g id="node21" class="node">
<title>Node21</title>
<g id="a_node21"><a xlink:title=" ">
<polygon fill="none" stroke="#bfbfbf" points="37.5,-385.5 37.5,-403.5 82.95,-403.5 82.95,-385.5 37.5,-385.5"/>
<text text-anchor="middle" x="60.23" y="-391.5" font-family="Helvetica,sans-Serif" font-size="10.00">cstring</text>
</a>
</g>
</g>
<!-- Node2&#45;&gt;Node21 -->
<g id="edge23" class="edge">
<title>Node2&#45;&gt;Node21</title>
<path fill="none" stroke="midnightblue" d="M133.17,-440.45C119.65,-432.12 98.31,-418.97 82.2,-409.04"/>
<polygon fill="midnightblue" stroke="midnightblue" points="83.76,-405.89 73.41,-403.63 80.09,-411.85 83.76,-405.89"/>
</g>
<!-- Node22 -->
<g id="node22" class="node">
<title>Node22</title>
<g id="a_node22"><a xlink:title=" ">
<polygon fill="none" stroke="#bfbfbf" points="100.61,-385.5 100.61,-403.5 143.84,-403.5 143.84,-385.5 100.61,-385.5"/>
<text text-anchor="middle" x="122.23" y="-391.5" font-family="Helvetica,sans-Serif" font-size="10.00">vector</text>
</a>
</g>
</g>
<!-- Node2&#45;&gt;Node22 -->
<g id="edge24" class="edge">
<title>Node2&#45;&gt;Node22</title>
<path fill="none" stroke="midnightblue" d="M142.48,-440.22C139.18,-432.94 134.28,-422.11 130.12,-412.93"/>
<polygon fill="midnightblue" stroke="midnightblue" points="133.19,-411.22 125.87,-403.55 126.81,-414.1 133.19,-411.22"/>
</g>
<!-- Node4 -->
<g id="node4" class="node">
<title>Node4</title>
<g id="a_node4"><a xlink:href="../../d5/daf/_istring_8h.html" target="_top" xlink:title=" ">
<polygon fill="none" stroke="black" points="84,-275.5 84,-293.5 164.46,-293.5 164.46,-275.5 84,-275.5"/>
<text text-anchor="middle" x="124.23" y="-281.5" font-family="Helvetica,sans-Serif" font-size="10.00">tralics/Istring.h</text>
</a>
</g>
</g>
<!-- Node3&#45;&gt;Node4 -->
<g id="edge3" class="edge">
<title>Node3&#45;&gt;Node4</title>
<path fill="none" stroke="midnightblue" d="M135.2,-330.22C133.45,-323.1 130.87,-312.58 128.65,-303.53"/>
<polygon fill="midnightblue" stroke="midnightblue" points="131.98,-302.43 126.2,-293.55 125.18,-304.1 131.98,-302.43"/>
</g>
<!-- Node5 -->
<g id="node5" class="node">
<title>Node5</title>
<g id="a_node5"><a xlink:href="../../d0/d0b/enums_8h.html" target="_top" xlink:title=" ">
<polygon fill="none" stroke="black" points="106.05,-165.5 106.05,-183.5 160.4,-183.5 160.4,-165.5 106.05,-165.5"/>
<text text-anchor="middle" x="133.23" y="-171.5" font-family="Helvetica,sans-Serif" font-size="10.00">enums.h</text>
</a>
</g>
</g>
<!-- Node4&#45;&gt;Node5 -->
<g id="edge4" class="edge">
<title>Node4&#45;&gt;Node5</title>
<path fill="none" stroke="midnightblue" d="M124.9,-275.38C126.34,-258.18 129.71,-217.7 131.69,-193.89"/>
<polygon fill="midnightblue" stroke="midnightblue" points="135.2,-193.97 132.54,-183.71 128.22,-193.39 135.2,-193.97"/>
</g>
<!-- Node11 -->
<g id="node11" class="node">
<title>Node11</title>
<g id="a_node11"><a xlink:title=" ">
<polygon fill="none" stroke="#bfbfbf" points="66.83,-220.5 66.83,-238.5 105.62,-238.5 105.62,-220.5 66.83,-220.5"/>
<text text-anchor="middle" x="86.23" y="-226.5" font-family="Helvetica,sans-Serif" font-size="10.00">array</text>
</a>
</g>
</g>
<!-- Node4&#45;&gt;Node11 -->
<g id="edge10" class="edge">
<title>Node4&#45;&gt;Node11</title>
<path fill="none" stroke="midnightblue" d="M118.29,-275.22C112.85,-267.63 104.64,-256.18 97.88,-246.76"/>
<polygon fill="midnightblue" stroke="midnightblue" points="100.67,-244.64 92,-238.55 94.98,-248.72 100.67,-244.64"/>
</g>
<!-- Node4&#45;&gt;Node12 -->
<g id="edge11" class="edge">
<title>Node4&#45;&gt;Node12</title>
<path fill="none" stroke="midnightblue" d="M108.43,-275.45C91.63,-266.89 64.83,-253.23 45.17,-243.21"/>
<polygon fill="midnightblue" stroke="midnightblue" points="46.67,-240.05 36.17,-238.63 43.49,-246.28 46.67,-240.05"/>
</g>
<!-- Node6 -->
<g id="node6" class="node">
<title>Node6</title>
<g id="a_node6"><a xlink:href="../../d8/db5/consts_8h.html" target="_top" xlink:title=" ">
<polygon fill="none" stroke="black" points="106.61,-110.5 106.61,-128.5 159.85,-128.5 159.85,-110.5 106.61,-110.5"/>
<text text-anchor="middle" x="133.23" y="-116.5" font-family="Helvetica,sans-Serif" font-size="10.00">consts.h</text>
</a>
</g>
</g>
<!-- Node5&#45;&gt;Node6 -->
<g id="edge5" class="edge">
<title>Node5&#45;&gt;Node6</title>
<path fill="none" stroke="midnightblue" d="M133.23,-165.22C133.23,-158.18 133.23,-147.81 133.23,-138.83"/>
<polygon fill="midnightblue" stroke="midnightblue" points="136.73,-138.55 133.23,-128.55 129.73,-138.55 136.73,-138.55"/>
</g>
<!-- Node7 -->
<g id="node7" class="node">
<title>Node7</title>
<g id="a_node7"><a xlink:href="../../d9/d49/types_8h.html" target="_top" xlink:title=" ">
<polygon fill="none" stroke="black" points="136.11,-55.5 136.11,-73.5 184.35,-73.5 184.35,-55.5 136.11,-55.5"/>
<text text-anchor="middle" x="160.23" y="-61.5" font-family="Helvetica,sans-Serif" font-size="10.00">types.h</text>
</a>
</g>
</g>
<!-- Node6&#45;&gt;Node7 -->
<g id="edge6" class="edge">
<title>Node6&#45;&gt;Node7</title>
<path fill="none" stroke="midnightblue" d="M137.45,-110.22C141.19,-102.86 146.79,-91.88 151.5,-82.64"/>
<polygon fill="midnightblue" stroke="midnightblue" points="154.71,-84.05 156.13,-73.55 148.47,-80.87 154.71,-84.05"/>
</g>
<!-- Node8 -->
<g id="node8" class="node">
<title>Node8</title>
<g id="a_node8"><a xlink:title=" ">
<polygon fill="none" stroke="#bfbfbf" points="70.11,-0.5 70.11,-18.5 118.34,-18.5 118.34,-0.5 70.11,-0.5"/>
<text text-anchor="middle" x="94.23" y="-6.5" font-family="Helvetica,sans-Serif" font-size="10.00">cassert</text>
</a>
</g>
</g>
<!-- Node7&#45;&gt;Node8 -->
<g id="edge7" class="edge">
<title>Node7&#45;&gt;Node8</title>
<path fill="none" stroke="midnightblue" d="M150.2,-55.45C140.22,-47.43 124.67,-34.95 112.49,-25.17"/>
<polygon fill="midnightblue" stroke="midnightblue" points="114.33,-22.16 104.34,-18.63 109.95,-27.62 114.33,-22.16"/>
</g>
<!-- Node9 -->
<g id="node9" class="node">
<title>Node9</title>
<g id="a_node9"><a xlink:title=" ">
<polygon fill="none" stroke="#bfbfbf" points="136.11,-0.5 136.11,-18.5 184.35,-18.5 184.35,-0.5 136.11,-0.5"/>
<text text-anchor="middle" x="160.23" y="-6.5" font-family="Helvetica,sans-Serif" font-size="10.00">cstddef</text>
</a>
</g>
</g>
<!-- Node7&#45;&gt;Node9 -->
<g id="edge8" class="edge">
<title>Node7&#45;&gt;Node9</title>
<path fill="none" stroke="midnightblue" d="M160.23,-55.22C160.23,-48.18 160.23,-37.81 160.23,-28.83"/>
<polygon fill="midnightblue" stroke="midnightblue" points="163.73,-28.55 160.23,-18.55 156.73,-28.55 163.73,-28.55"/>
</g>
<!-- Node10 -->
<g id="node10" class="node">
<title>Node10</title>
<g id="a_node10"><a xlink:title=" ">
<polygon fill="none" stroke="#bfbfbf" points="202.16,-0.5 202.16,-18.5 264.29,-18.5 264.29,-0.5 202.16,-0.5"/>
<text text-anchor="middle" x="233.23" y="-6.5" font-family="Helvetica,sans-Serif" font-size="10.00">type_traits</text>
</a>
</g>
</g>
<!-- Node7&#45;&gt;Node10 -->
<g id="edge9" class="edge">
<title>Node7&#45;&gt;Node10</title>
<path fill="none" stroke="midnightblue" d="M171.31,-55.45C182.57,-47.28 200.22,-34.46 213.81,-24.6"/>
<polygon fill="midnightblue" stroke="midnightblue" points="216,-27.33 222.04,-18.63 211.89,-21.67 216,-27.33"/>
</g>
<!-- Node14 -->
<g id="node14" class="node">
<title>Node14</title>
<g id="a_node14"><a xlink:href="../../dc/d91/txtokenlist_8h.html" target="_top" xlink:title=" ">
<polygon fill="none" stroke="black" points="191.83,-330.5 191.83,-348.5 260.63,-348.5 260.63,-330.5 191.83,-330.5"/>
<text text-anchor="middle" x="226.23" y="-336.5" font-family="Helvetica,sans-Serif" font-size="10.00">txtokenlist.h</text>
</a>
</g>
</g>
<!-- Node13&#45;&gt;Node14 -->
<g id="edge13" class="edge">
<title>Node13&#45;&gt;Node14</title>
<path fill="none" stroke="midnightblue" d="M230.45,-385.22C229.77,-378.1 228.78,-367.58 227.93,-358.53"/>
<polygon fill="midnightblue" stroke="midnightblue" points="231.41,-358.18 226.99,-348.55 224.44,-358.83 231.41,-358.18"/>
</g>
<!-- Node14&#45;&gt;Node4 -->
<g id="edge14" class="edge">
<title>Node14&#45;&gt;Node4</title>
<path fill="none" stroke="midnightblue" d="M210.73,-330.45C194.33,-321.93 168.21,-308.35 148.95,-298.35"/>
<polygon fill="midnightblue" stroke="midnightblue" points="150.35,-295.13 139.86,-293.63 147.12,-301.34 150.35,-295.13"/>
</g>
<!-- Node15 -->
<g id="node15" class="node">
<title>Node15</title>
<g id="a_node15"><a xlink:href="../../dd/dcd/_token_8h.html" target="_top" xlink:title=" ">
<polygon fill="none" stroke="black" points="182.27,-275.5 182.27,-293.5 262.18,-293.5 262.18,-275.5 182.27,-275.5"/>
<text text-anchor="middle" x="222.23" y="-281.5" font-family="Helvetica,sans-Serif" font-size="10.00">tralics/Token.h</text>
</a>
</g>
</g>
<!-- Node14&#45;&gt;Node15 -->
<g id="edge15" class="edge">
<title>Node14&#45;&gt;Node15</title>
<path fill="none" stroke="midnightblue" d="M225.6,-330.22C225.06,-323.1 224.27,-312.58 223.59,-303.53"/>
<polygon fill="midnightblue" stroke="midnightblue" points="227.08,-303.26 222.83,-293.55 220.1,-303.78 227.08,-303.26"/>
</g>
<!-- Node14&#45;&gt;Node20 -->
<g id="edge22" class="edge">
<title>Node14&#45;&gt;Node20</title>
<path fill="none" stroke="midnightblue" d="M237.31,-330.45C248.57,-322.28 266.22,-309.46 279.81,-299.6"/>
<polygon fill="midnightblue" stroke="midnightblue" points="282,-302.33 288.04,-293.63 277.89,-296.67 282,-302.33"/>
</g>
<!-- Node16 -->
<g id="node16" class="node">
<title>Node16</title>
<g id="a_node16"><a xlink:href="../../d2/d68/_cmd_chr_8h.html" target="_top" xlink:title=" ">
<polygon fill="none" stroke="black" points="171.72,-220.5 171.72,-238.5 232.74,-238.5 232.74,-220.5 171.72,-220.5"/>
<text text-anchor="middle" x="202.23" y="-226.5" font-family="Helvetica,sans-Serif" font-size="10.00">CmdChr.h</text>
</a>
</g>
</g>
<!-- Node15&#45;&gt;Node16 -->
<g id="edge16" class="edge">
<title>Node15&#45;&gt;Node16</title>
<path fill="none" stroke="midnightblue" d="M219.1,-275.22C216.36,-267.94 212.27,-257.11 208.81,-247.93"/>
<polygon fill="midnightblue" stroke="midnightblue" points="212.07,-246.67 205.26,-238.55 205.52,-249.14 212.07,-246.67"/>
</g>
<!-- Node19 -->
<g id="node19" class="node">
<title>Node19</title>
<g id="a_node19"><a xlink:title=" ">
<polygon fill="none" stroke="#bfbfbf" points="250.73,-220.5 250.73,-238.5 279.73,-238.5 279.73,-220.5 250.73,-220.5"/>
<text text-anchor="middle" x="264.84" y="-226.5" font-family="Helvetica,sans-Serif" font-size="10.00">list</text>
</a>
</g>
</g>
<!-- Node15&#45;&gt;Node19 -->
<g id="edge21" class="edge">
<title>Node15&#45;&gt;Node19</title>
<path fill="none" stroke="midnightblue" d="M228.95,-275.22C235.17,-267.55 244.59,-255.94 252.27,-246.47"/>
<polygon fill="midnightblue" stroke="midnightblue" points="255.11,-248.52 258.7,-238.55 249.68,-244.11 255.11,-248.52"/>
</g>
<!-- Node16&#45;&gt;Node5 -->
<g id="edge20" class="edge">
<title>Node16&#45;&gt;Node5</title>
<path fill="none" stroke="midnightblue" d="M191.75,-220.45C181.21,-212.36 164.74,-199.7 151.95,-189.88"/>
<polygon fill="midnightblue" stroke="midnightblue" points="153.87,-186.94 143.8,-183.63 149.6,-192.49 153.87,-186.94"/>
</g>
<!-- Node17 -->
<g id="node17" class="node">
<title>Node17</title>
<g id="a_node17"><a xlink:href="../../d8/d47/codepoint_8h.html" target="_top" xlink:title=" ">
<polygon fill="none" stroke="black" points="178.37,-165.5 178.37,-183.5 246.08,-183.5 246.08,-165.5 178.37,-165.5"/>
<text text-anchor="middle" x="212.23" y="-171.5" font-family="Helvetica,sans-Serif" font-size="10.00">codepoint.h</text>
</a>
</g>
</g>
<!-- Node16&#45;&gt;Node17 -->
<g id="edge17" class="edge">
<title>Node16&#45;&gt;Node17</title>
<path fill="none" stroke="midnightblue" d="M203.79,-220.22C205.13,-213.1 207.12,-202.58 208.82,-193.53"/>
<polygon fill="midnightblue" stroke="midnightblue" points="212.29,-194.03 210.71,-183.55 205.41,-192.73 212.29,-194.03"/>
</g>
<!-- Node17&#45;&gt;Node7 -->
<g id="edge18" class="edge">
<title>Node17&#45;&gt;Node7</title>
<path fill="none" stroke="midnightblue" d="M208.32,-165.38C199.92,-147.95 180.01,-106.59 168.61,-82.92"/>
<polygon fill="midnightblue" stroke="midnightblue" points="171.67,-81.2 164.18,-73.71 165.37,-84.24 171.67,-81.2"/>
</g>
<!-- Node18 -->
<g id="node18" class="node">
<title>Node18</title>
<g id="a_node18"><a xlink:title=" ">
<polygon fill="none" stroke="#bfbfbf" points="216.71,-110.5 216.71,-128.5 267.74,-128.5 267.74,-110.5 216.71,-110.5"/>
<text text-anchor="middle" x="242.23" y="-116.5" font-family="Helvetica,sans-Serif" font-size="10.00">optional</text>
</a>
</g>
</g>
<!-- Node17&#45;&gt;Node18 -->
<g id="edge19" class="edge">
<title>Node17&#45;&gt;Node18</title>
<path fill="none" stroke="midnightblue" d="M216.91,-165.22C221.12,-157.79 227.43,-146.65 232.69,-137.34"/>
<polygon fill="midnightblue" stroke="midnightblue" points="235.79,-138.98 237.67,-128.55 229.7,-135.53 235.79,-138.98"/>
</g>
<!-- Node23&#45;&gt;Node2 -->
<g id="edge26" class="edge">
<title>Node23&#45;&gt;Node2</title>
<path fill="none" stroke="midnightblue" d="M186.73,-495.22C179.71,-487.47 169.05,-475.7 160.43,-466.18"/>
<polygon fill="midnightblue" stroke="midnightblue" points="162.82,-463.61 153.52,-458.55 157.64,-468.31 162.82,-463.61"/>
</g>
<!-- Node24 -->
<g id="node24" class="node">
<title>Node24</title>
<g id="a_node24"><a xlink:title=" ">
<polygon fill="none" stroke="#bfbfbf" points="192.56,-440.5 192.56,-458.5 241.9,-458.5 241.9,-440.5 192.56,-440.5"/>
<text text-anchor="middle" x="217.23" y="-446.5" font-family="Helvetica,sans-Serif" font-size="10.00">fstream</text>
</a>
</g>
</g>
<!-- Node23&#45;&gt;Node24 -->
<g id="edge27" class="edge">
<title>Node23&#45;&gt;Node24</title>
<path fill="none" stroke="midnightblue" d="M197.82,-495.22C200.98,-487.94 205.68,-477.11 209.66,-467.93"/>
<polygon fill="midnightblue" stroke="midnightblue" points="212.96,-469.12 213.73,-458.55 206.54,-466.33 212.96,-469.12"/>
</g>
</g>
</svg>
