<?xml version="1.0" encoding="UTF-8" standalone="no"?>
<!DOCTYPE svg PUBLIC "-//W3C//DTD SVG 1.1//EN"
 "http://www.w3.org/Graphics/SVG/1.1/DTD/svg11.dtd">
<!-- Generated by graphviz version 2.42.3 (20191010.1750)
 -->
<!-- Title: txscan.cpp Pages: 1 -->
<svg width="658pt" height="742pt"
 viewBox="0.00 0.00 657.80 742.00" xmlns="http://www.w3.org/2000/svg" xmlns:xlink="http://www.w3.org/1999/xlink">
<g id="graph0" class="graph" transform="scale(1 1) rotate(0) translate(4 738)">
<title>txscan.cpp</title>
<!-- Node1 -->
<g id="node1" class="node">
<title>Node1</title>
<g id="a_node1"><a xlink:title=" ">
<polygon fill="#bfbfbf" stroke="black" points="337.21,-715.5 337.21,-733.5 401.02,-733.5 401.02,-715.5 337.21,-715.5"/>
<text text-anchor="middle" x="369.12" y="-721.5" font-family="Helvetica,sans-Serif" font-size="10.00">txscan.cpp</text>
</a>
</g>
</g>
<!-- Node2 -->
<g id="node2" class="node">
<title>Node2</title>
<g id="a_node2"><a xlink:href="../../db/d59/_saver_8h.html" target="_top" xlink:title=" ">
<polygon fill="none" stroke="black" points="207.71,-660.5 207.71,-678.5 286.52,-678.5 286.52,-660.5 207.71,-660.5"/>
<text text-anchor="middle" x="247.12" y="-666.5" font-family="Helvetica,sans-Serif" font-size="10.00">tralics/Saver.h</text>
</a>
</g>
</g>
<!-- Node1&#45;&gt;Node2 -->
<g id="edge1" class="edge">
<title>Node1&#45;&gt;Node2</title>
<path fill="none" stroke="midnightblue" d="M350.59,-715.45C330.52,-706.73 298.29,-692.73 275.13,-682.67"/>
<polygon fill="midnightblue" stroke="midnightblue" points="276.39,-679.4 265.82,-678.63 273.6,-685.82 276.39,-679.4"/>
</g>
<!-- Node3 -->
<g id="node3" class="node">
<title>Node3</title>
<g id="a_node3"><a xlink:href="../../d2/d1b/txparser_8h.html" target="_top" xlink:title=" ">
<polygon fill="none" stroke="black" points="236.99,-605.5 236.99,-623.5 305.24,-623.5 305.24,-605.5 236.99,-605.5"/>
<text text-anchor="middle" x="271.12" y="-611.5" font-family="Helvetica,sans-Serif" font-size="10.00">../txparser.h</text>
</a>
</g>
</g>
<!-- Node1&#45;&gt;Node3 -->
<g id="edge70" class="edge">
<title>Node1&#45;&gt;Node3</title>
<path fill="none" stroke="midnightblue" d="M361.75,-715.38C345.57,-697.56 306.71,-654.72 285.5,-631.36"/>
<polygon fill="midnightblue" stroke="midnightblue" points="287.88,-628.77 278.57,-623.71 282.7,-633.47 287.88,-628.77"/>
</g>
<!-- Node42 -->
<g id="node42" class="node">
<title>Node42</title>
<g id="a_node42"><a xlink:href="../../d7/d79/txinline_8h.html" target="_top" xlink:title=" ">
<polygon fill="none" stroke="black" points="416.38,-660.5 416.38,-678.5 471.85,-678.5 471.85,-660.5 416.38,-660.5"/>
<text text-anchor="middle" x="444.12" y="-666.5" font-family="Helvetica,sans-Serif" font-size="10.00">txinline.h</text>
</a>
</g>
</g>
<!-- Node1&#45;&gt;Node42 -->
<g id="edge60" class="edge">
<title>Node1&#45;&gt;Node42</title>
<path fill="none" stroke="midnightblue" d="M380.51,-715.45C392.07,-707.28 410.21,-694.46 424.16,-684.6"/>
<polygon fill="midnightblue" stroke="midnightblue" points="426.47,-687.25 432.62,-678.63 422.43,-681.54 426.47,-687.25"/>
</g>
<!-- Node47 -->
<g id="node47" class="node">
<title>Node47</title>
<g id="a_node47"><a xlink:href="../../df/d79/txmath_8h.html" target="_top" xlink:title=" ">
<polygon fill="none" stroke="black" points="341.94,-660.5 341.94,-678.5 396.29,-678.5 396.29,-660.5 341.94,-660.5"/>
<text text-anchor="middle" x="369.12" y="-666.5" font-family="Helvetica,sans-Serif" font-size="10.00">txmath.h</text>
</a>
</g>
</g>
<!-- Node1&#45;&gt;Node47 -->
<g id="edge68" class="edge">
<title>Node1&#45;&gt;Node47</title>
<path fill="none" stroke="midnightblue" d="M369.12,-715.22C369.12,-708.18 369.12,-697.81 369.12,-688.83"/>
<polygon fill="midnightblue" stroke="midnightblue" points="372.62,-688.55 369.12,-678.55 365.62,-688.55 372.62,-688.55"/>
</g>
<!-- Node48 -->
<g id="node48" class="node">
<title>Node48</title>
<g id="a_node48"><a xlink:title=" ">
<polygon fill="none" stroke="#bfbfbf" points="489.44,-660.5 489.44,-678.5 558.79,-678.5 558.79,-660.5 489.44,-660.5"/>
<text text-anchor="middle" x="524.12" y="-666.5" font-family="Helvetica,sans-Serif" font-size="10.00">fmt/format.h</text>
</a>
</g>
</g>
<!-- Node1&#45;&gt;Node48 -->
<g id="edge71" class="edge">
<title>Node1&#45;&gt;Node48</title>
<path fill="none" stroke="midnightblue" d="M392.66,-715.45C418.91,-706.47 461.55,-691.89 491.12,-681.78"/>
<polygon fill="midnightblue" stroke="midnightblue" points="492.28,-685.09 500.61,-678.54 490.01,-678.46 492.28,-685.09"/>
</g>
<!-- Node2&#45;&gt;Node3 -->
<g id="edge2" class="edge">
<title>Node2&#45;&gt;Node3</title>
<path fill="none" stroke="midnightblue" d="M250.87,-660.22C254.16,-652.94 259.06,-642.11 263.22,-632.93"/>
<polygon fill="midnightblue" stroke="midnightblue" points="266.53,-634.1 267.47,-623.55 260.16,-631.22 266.53,-634.1"/>
</g>
<!-- Node40 -->
<g id="node40" class="node">
<title>Node40</title>
<g id="a_node40"><a xlink:href="../../d5/d87/globals_8h.html" target="_top" xlink:title=" ">
<polygon fill="none" stroke="black" points="19.1,-330.5 19.1,-348.5 75.13,-348.5 75.13,-330.5 19.1,-330.5"/>
<text text-anchor="middle" x="47.12" y="-336.5" font-family="Helvetica,sans-Serif" font-size="10.00">globals.h</text>
</a>
</g>
</g>
<!-- Node2&#45;&gt;Node40 -->
<g id="edge56" class="edge">
<title>Node2&#45;&gt;Node40</title>
<path fill="none" stroke="midnightblue" d="M207.29,-663.73C151.57,-654.59 57.12,-628.99 57.12,-560.5 57.12,-560.5 57.12,-560.5 57.12,-448.5 57.12,-416.74 52.77,-379.94 49.81,-358.54"/>
<polygon fill="midnightblue" stroke="midnightblue" points="53.27,-358 48.38,-348.61 46.34,-359 53.27,-358"/>
</g>
<!-- Node4 -->
<g id="node4" class="node">
<title>Node4</title>
<g id="a_node4"><a xlink:href="../../d8/dd6/_e_q_t_b_8h.html" target="_top" xlink:title=" ">
<polygon fill="none" stroke="black" points="181.89,-440.5 181.89,-458.5 262.34,-458.5 262.34,-440.5 181.89,-440.5"/>
<text text-anchor="middle" x="222.12" y="-446.5" font-family="Helvetica,sans-Serif" font-size="10.00">tralics/EQTB.h</text>
</a>
</g>
</g>
<!-- Node3&#45;&gt;Node4 -->
<g id="edge3" class="edge">
<title>Node3&#45;&gt;Node4</title>
<path fill="none" stroke="midnightblue" d="M268.62,-605.19C261.02,-579.9 238.03,-503.45 227.5,-468.4"/>
<polygon fill="midnightblue" stroke="midnightblue" points="230.78,-467.17 224.55,-458.6 224.08,-469.18 230.78,-467.17"/>
</g>
<!-- Node25 -->
<g id="node25" class="node">
<title>Node25</title>
<g id="a_node25"><a xlink:href="../../d3/d6b/txcond_8h.html" target="_top" xlink:title=" ">
<polygon fill="none" stroke="black" points="106.21,-220.5 106.21,-238.5 160.02,-238.5 160.02,-220.5 106.21,-220.5"/>
<text text-anchor="middle" x="133.12" y="-226.5" font-family="Helvetica,sans-Serif" font-size="10.00">txcond.h</text>
</a>
</g>
</g>
<!-- Node3&#45;&gt;Node25 -->
<g id="edge29" class="edge">
<title>Node3&#45;&gt;Node25</title>
<path fill="none" stroke="midnightblue" d="M236.92,-607.31C188.06,-596.26 104.12,-568.17 104.12,-505.5 104.12,-505.5 104.12,-505.5 104.12,-338.5 104.12,-305.62 116.81,-268.97 125.4,-247.93"/>
<polygon fill="midnightblue" stroke="midnightblue" points="128.64,-249.27 129.32,-238.7 122.19,-246.53 128.64,-249.27"/>
</g>
<!-- Node26 -->
<g id="node26" class="node">
<title>Node26</title>
<g id="a_node26"><a xlink:href="../../d7/d4d/txfonts_8h.html" target="_top" xlink:title=" ">
<polygon fill="none" stroke="black" points="396.22,-330.5 396.22,-348.5 450.01,-348.5 450.01,-330.5 396.22,-330.5"/>
<text text-anchor="middle" x="423.12" y="-336.5" font-family="Helvetica,sans-Serif" font-size="10.00">txfonts.h</text>
</a>
</g>
</g>
<!-- Node3&#45;&gt;Node26 -->
<g id="edge32" class="edge">
<title>Node3&#45;&gt;Node26</title>
<path fill="none" stroke="midnightblue" d="M273.52,-605.46C278.63,-587.63 290.12,-543.39 290.12,-505.5 290.12,-505.5 290.12,-505.5 290.12,-448.5 290.12,-418 294.61,-406.62 316.12,-385 326.67,-374.39 361.08,-361.09 388.06,-351.8"/>
<polygon fill="midnightblue" stroke="midnightblue" points="389.25,-355.09 397.61,-348.58 387.01,-348.46 389.25,-355.09"/>
</g>
<!-- Node27 -->
<g id="node27" class="node">
<title>Node27</title>
<g id="a_node27"><a xlink:href="../../d7/d7e/txhash_8h.html" target="_top" xlink:title=" ">
<polygon fill="none" stroke="black" points="457.21,-495.5 457.21,-513.5 511.02,-513.5 511.02,-495.5 457.21,-495.5"/>
<text text-anchor="middle" x="484.12" y="-501.5" font-family="Helvetica,sans-Serif" font-size="10.00">txhash.h</text>
</a>
</g>
</g>
<!-- Node3&#45;&gt;Node27 -->
<g id="edge35" class="edge">
<title>Node3&#45;&gt;Node27</title>
<path fill="none" stroke="midnightblue" d="M284.6,-605.49C305.73,-593.06 348.07,-568.6 385.12,-550 408.45,-538.28 435.54,-526.21 455.47,-517.6"/>
<polygon fill="midnightblue" stroke="midnightblue" points="457.1,-520.71 464.91,-513.55 454.34,-514.28 457.1,-520.71"/>
</g>
<!-- Node32 -->
<g id="node32" class="node">
<title>Node32</title>
<g id="a_node32"><a xlink:href="../../de/d7c/tximage_8h.html" target="_top" xlink:title=" ">
<polygon fill="none" stroke="black" points="318.44,-330.5 318.44,-348.5 377.79,-348.5 377.79,-330.5 318.44,-330.5"/>
<text text-anchor="middle" x="348.12" y="-336.5" font-family="Helvetica,sans-Serif" font-size="10.00">tximage.h</text>
</a>
</g>
</g>
<!-- Node3&#45;&gt;Node32 -->
<g id="edge43" class="edge">
<title>Node3&#45;&gt;Node32</title>
<path fill="none" stroke="midnightblue" d="M236.82,-607.75C212.5,-601.96 180.81,-590.63 161.12,-569 141.28,-547.22 142.12,-534.96 142.12,-505.5 142.12,-505.5 142.12,-505.5 142.12,-448.5 142.12,-374.41 247.94,-351.04 307.89,-343.75"/>
<polygon fill="midnightblue" stroke="midnightblue" points="308.61,-347.19 318.16,-342.61 307.83,-340.24 308.61,-347.19"/>
</g>
<!-- Node33 -->
<g id="node33" class="node">
<title>Node33</title>
<g id="a_node33"><a xlink:href="../../de/d29/txio_8h.html" target="_top" xlink:title=" ">
<polygon fill="none" stroke="black" points="468.17,-550.5 468.17,-568.5 508.07,-568.5 508.07,-550.5 468.17,-550.5"/>
<text text-anchor="middle" x="488.12" y="-556.5" font-family="Helvetica,sans-Serif" font-size="10.00">txio.h</text>
</a>
</g>
</g>
<!-- Node3&#45;&gt;Node33 -->
<g id="edge46" class="edge">
<title>Node3&#45;&gt;Node33</title>
<path fill="none" stroke="midnightblue" d="M305.56,-605.92C341.37,-597.91 399.26,-584.62 458.05,-569.18"/>
<polygon fill="midnightblue" stroke="midnightblue" points="459.1,-572.52 467.87,-566.58 457.31,-565.75 459.1,-572.52"/>
</g>
<!-- Node35 -->
<g id="node35" class="node">
<title>Node35</title>
<g id="a_node35"><a xlink:href="../../dc/d65/txstack_8h.html" target="_top" xlink:title=" ">
<polygon fill="none" stroke="black" points="394.39,-550.5 394.39,-568.5 449.84,-568.5 449.84,-550.5 394.39,-550.5"/>
<text text-anchor="middle" x="422.12" y="-556.5" font-family="Helvetica,sans-Serif" font-size="10.00">txstack.h</text>
</a>
</g>
</g>
<!-- Node3&#45;&gt;Node35 -->
<g id="edge49" class="edge">
<title>Node3&#45;&gt;Node35</title>
<path fill="none" stroke="midnightblue" d="M294.05,-605.45C319.44,-596.54 360.57,-582.1 389.35,-572"/>
<polygon fill="midnightblue" stroke="midnightblue" points="390.69,-575.24 398.97,-568.63 388.37,-568.63 390.69,-575.24"/>
</g>
<!-- Node39 -->
<g id="node39" class="node">
<title>Node39</title>
<g id="a_node39"><a xlink:href="../../d8/d3d/txstats_8h.html" target="_top" xlink:title=" ">
<polygon fill="none" stroke="black" points="170.5,-550.5 170.5,-568.5 223.73,-568.5 223.73,-550.5 170.5,-550.5"/>
<text text-anchor="middle" x="197.12" y="-556.5" font-family="Helvetica,sans-Serif" font-size="10.00">txstats.h</text>
</a>
</g>
</g>
<!-- Node3&#45;&gt;Node39 -->
<g id="edge55" class="edge">
<title>Node3&#45;&gt;Node39</title>
<path fill="none" stroke="midnightblue" d="M259.88,-605.45C248.47,-597.28 230.57,-584.46 216.8,-574.6"/>
<polygon fill="midnightblue" stroke="midnightblue" points="218.63,-571.6 208.46,-568.63 214.55,-577.29 218.63,-571.6"/>
</g>
<!-- Node5 -->
<g id="node5" class="node">
<title>Node5</title>
<g id="a_node5"><a xlink:href="../../d9/d18/txscaled_8h.html" target="_top" xlink:title=" ">
<polygon fill="none" stroke="black" points="192.44,-385.5 192.44,-403.5 261.8,-403.5 261.8,-385.5 192.44,-385.5"/>
<text text-anchor="middle" x="227.12" y="-391.5" font-family="Helvetica,sans-Serif" font-size="10.00">../txscaled.h</text>
</a>
</g>
</g>
<!-- Node4&#45;&gt;Node5 -->
<g id="edge4" class="edge">
<title>Node4&#45;&gt;Node5</title>
<path fill="none" stroke="midnightblue" d="M222.9,-440.22C223.57,-433.1 224.56,-422.58 225.41,-413.53"/>
<polygon fill="midnightblue" stroke="midnightblue" points="228.9,-413.83 226.36,-403.55 221.93,-413.18 228.9,-413.83"/>
</g>
<!-- Node6 -->
<g id="node6" class="node">
<title>Node6</title>
<g id="a_node6"><a xlink:href="../../dc/d91/txtokenlist_8h.html" target="_top" xlink:title=" ">
<polygon fill="none" stroke="black" points="192.71,-330.5 192.71,-348.5 261.52,-348.5 261.52,-330.5 192.71,-330.5"/>
<text text-anchor="middle" x="227.12" y="-336.5" font-family="Helvetica,sans-Serif" font-size="10.00">txtokenlist.h</text>
</a>
</g>
</g>
<!-- Node5&#45;&gt;Node6 -->
<g id="edge5" class="edge">
<title>Node5&#45;&gt;Node6</title>
<path fill="none" stroke="midnightblue" d="M227.12,-385.22C227.12,-378.18 227.12,-367.81 227.12,-358.83"/>
<polygon fill="midnightblue" stroke="midnightblue" points="230.62,-358.55 227.12,-348.55 223.62,-358.55 230.62,-358.55"/>
</g>
<!-- Node7 -->
<g id="node7" class="node">
<title>Node7</title>
<g id="a_node7"><a xlink:href="../../d5/daf/_istring_8h.html" target="_top" xlink:title=" ">
<polygon fill="none" stroke="black" points="229.88,-275.5 229.88,-293.5 310.35,-293.5 310.35,-275.5 229.88,-275.5"/>
<text text-anchor="middle" x="270.12" y="-281.5" font-family="Helvetica,sans-Serif" font-size="10.00">tralics/Istring.h</text>
</a>
</g>
</g>
<!-- Node6&#45;&gt;Node7 -->
<g id="edge6" class="edge">
<title>Node6&#45;&gt;Node7</title>
<path fill="none" stroke="midnightblue" d="M233.83,-330.22C240.06,-322.55 249.48,-310.94 257.16,-301.47"/>
<polygon fill="midnightblue" stroke="midnightblue" points="260,-303.52 263.58,-293.55 254.57,-299.11 260,-303.52"/>
</g>
<!-- Node19 -->
<g id="node19" class="node">
<title>Node19</title>
<g id="a_node19"><a xlink:href="../../dd/dcd/_token_8h.html" target="_top" xlink:title=" ">
<polygon fill="none" stroke="black" points="132.16,-275.5 132.16,-293.5 212.07,-293.5 212.07,-275.5 132.16,-275.5"/>
<text text-anchor="middle" x="172.12" y="-281.5" font-family="Helvetica,sans-Serif" font-size="10.00">tralics/Token.h</text>
</a>
</g>
</g>
<!-- Node6&#45;&gt;Node19 -->
<g id="edge21" class="edge">
<title>Node6&#45;&gt;Node19</title>
<path fill="none" stroke="midnightblue" d="M218.52,-330.22C210.32,-322.32 197.77,-310.22 187.79,-300.61"/>
<polygon fill="midnightblue" stroke="midnightblue" points="190.1,-297.97 180.47,-293.55 185.24,-303.01 190.1,-297.97"/>
</g>
<!-- Node24 -->
<g id="node24" class="node">
<title>Node24</title>
<g id="a_node24"><a xlink:title=" ">
<polygon fill="none" stroke="#bfbfbf" points="328.72,-275.5 328.72,-293.5 367.51,-293.5 367.51,-275.5 328.72,-275.5"/>
<text text-anchor="middle" x="348.12" y="-281.5" font-family="Helvetica,sans-Serif" font-size="10.00">utility</text>
</a>
</g>
</g>
<!-- Node6&#45;&gt;Node24 -->
<g id="edge28" class="edge">
<title>Node6&#45;&gt;Node24</title>
<path fill="none" stroke="midnightblue" d="M245.49,-330.45C265.39,-321.73 297.36,-307.73 320.33,-297.67"/>
<polygon fill="midnightblue" stroke="midnightblue" points="321.81,-300.84 329.57,-293.63 319,-294.43 321.81,-300.84"/>
</g>
<!-- Node8 -->
<g id="node8" class="node">
<title>Node8</title>
<g id="a_node8"><a xlink:href="../../dd/d47/_str_hash_8h.html" target="_top" xlink:title=" ">
<polygon fill="none" stroke="black" points="422.88,-220.5 422.88,-238.5 483.35,-238.5 483.35,-220.5 422.88,-220.5"/>
<text text-anchor="middle" x="453.12" y="-226.5" font-family="Helvetica,sans-Serif" font-size="10.00">StrHash.h</text>
</a>
</g>
</g>
<!-- Node7&#45;&gt;Node8 -->
<g id="edge7" class="edge">
<title>Node7&#45;&gt;Node8</title>
<path fill="none" stroke="midnightblue" d="M297.91,-275.45C329.31,-266.36 380.57,-251.51 415.52,-241.39"/>
<polygon fill="midnightblue" stroke="midnightblue" points="416.73,-244.68 425.36,-238.54 414.78,-237.96 416.73,-244.68"/>
</g>
<!-- Node16 -->
<g id="node16" class="node">
<title>Node16</title>
<g id="a_node16"><a xlink:href="../../d0/d0b/enums_8h.html" target="_top" xlink:title=" ">
<polygon fill="none" stroke="black" points="112.94,-165.5 112.94,-183.5 167.29,-183.5 167.29,-165.5 112.94,-165.5"/>
<text text-anchor="middle" x="140.12" y="-171.5" font-family="Helvetica,sans-Serif" font-size="10.00">enums.h</text>
</a>
</g>
</g>
<!-- Node7&#45;&gt;Node16 -->
<g id="edge15" class="edge">
<title>Node7&#45;&gt;Node16</title>
<path fill="none" stroke="midnightblue" d="M264.4,-275.34C255.11,-262.49 235.71,-237.21 215.12,-220 200.25,-207.57 181.51,-196.45 166.48,-188.43"/>
<polygon fill="midnightblue" stroke="midnightblue" points="167.7,-185.13 157.21,-183.63 164.48,-191.34 167.7,-185.13"/>
</g>
<!-- Node17 -->
<g id="node17" class="node">
<title>Node17</title>
<g id="a_node17"><a xlink:href="../../d8/d3c/util_8h.html" target="_top" xlink:title=" ">
<polygon fill="none" stroke="black" points="263.55,-220.5 263.55,-238.5 300.68,-238.5 300.68,-220.5 263.55,-220.5"/>
<text text-anchor="middle" x="282.12" y="-226.5" font-family="Helvetica,sans-Serif" font-size="10.00">util.h</text>
</a>
</g>
</g>
<!-- Node7&#45;&gt;Node17 -->
<g id="edge17" class="edge">
<title>Node7&#45;&gt;Node17</title>
<path fill="none" stroke="midnightblue" d="M271.99,-275.22C273.6,-268.1 275.98,-257.58 278.03,-248.53"/>
<polygon fill="midnightblue" stroke="midnightblue" points="281.5,-249.08 280.29,-238.55 274.67,-247.53 281.5,-249.08"/>
</g>
<!-- Node18 -->
<g id="node18" class="node">
<title>Node18</title>
<g id="a_node18"><a xlink:title=" ">
<polygon fill="none" stroke="#bfbfbf" points="318.72,-220.5 318.72,-238.5 357.51,-238.5 357.51,-220.5 318.72,-220.5"/>
<text text-anchor="middle" x="338.12" y="-226.5" font-family="Helvetica,sans-Serif" font-size="10.00">array</text>
</a>
</g>
</g>
<!-- Node7&#45;&gt;Node18 -->
<g id="edge20" class="edge">
<title>Node7&#45;&gt;Node18</title>
<path fill="none" stroke="midnightblue" d="M280.44,-275.45C290.83,-267.36 307.06,-254.7 319.66,-244.88"/>
<polygon fill="midnightblue" stroke="midnightblue" points="321.96,-247.53 327.69,-238.63 317.65,-242.01 321.96,-247.53"/>
</g>
<!-- Node9 -->
<g id="node9" class="node">
<title>Node9</title>
<g id="a_node9"><a xlink:href="../../d8/db5/consts_8h.html" target="_top" xlink:title=" ">
<polygon fill="none" stroke="black" points="125.5,-110.5 125.5,-128.5 178.74,-128.5 178.74,-110.5 125.5,-110.5"/>
<text text-anchor="middle" x="152.12" y="-116.5" font-family="Helvetica,sans-Serif" font-size="10.00">consts.h</text>
</a>
</g>
</g>
<!-- Node8&#45;&gt;Node9 -->
<g id="edge8" class="edge">
<title>Node8&#45;&gt;Node9</title>
<path fill="none" stroke="midnightblue" d="M451.9,-220.37C449.38,-206.59 442.22,-178.83 424.12,-165 387.91,-137.35 255.1,-126.21 189.41,-122.32"/>
<polygon fill="midnightblue" stroke="midnightblue" points="189.28,-118.81 179.09,-121.74 188.88,-125.8 189.28,-118.81"/>
</g>
<!-- Node14 -->
<g id="node14" class="node">
<title>Node14</title>
<g id="a_node14"><a xlink:title=" ">
<polygon fill="none" stroke="#bfbfbf" points="374.89,-165.5 374.89,-183.5 415.34,-183.5 415.34,-165.5 374.89,-165.5"/>
<text text-anchor="middle" x="395.12" y="-171.5" font-family="Helvetica,sans-Serif" font-size="10.00">string</text>
</a>
</g>
</g>
<!-- Node8&#45;&gt;Node14 -->
<g id="edge13" class="edge">
<title>Node8&#45;&gt;Node14</title>
<path fill="none" stroke="midnightblue" d="M444.05,-220.22C435.32,-212.24 421.91,-199.98 411.33,-190.32"/>
<polygon fill="midnightblue" stroke="midnightblue" points="413.67,-187.71 403.92,-183.55 408.95,-192.88 413.67,-187.71"/>
</g>
<!-- Node15 -->
<g id="node15" class="node">
<title>Node15</title>
<g id="a_node15"><a xlink:title=" ">
<polygon fill="none" stroke="#bfbfbf" points="260.5,-165.5 260.5,-183.5 303.73,-183.5 303.73,-165.5 260.5,-165.5"/>
<text text-anchor="middle" x="282.12" y="-171.5" font-family="Helvetica,sans-Serif" font-size="10.00">vector</text>
</a>
</g>
</g>
<!-- Node8&#45;&gt;Node15 -->
<g id="edge14" class="edge">
<title>Node8&#45;&gt;Node15</title>
<path fill="none" stroke="midnightblue" d="M427.14,-220.45C396.79,-211.04 346.58,-195.48 313.92,-185.36"/>
<polygon fill="midnightblue" stroke="midnightblue" points="314.57,-181.89 303.98,-182.28 312.49,-188.58 314.57,-181.89"/>
</g>
<!-- Node10 -->
<g id="node10" class="node">
<title>Node10</title>
<g id="a_node10"><a xlink:href="../../d9/d49/types_8h.html" target="_top" xlink:title=" ">
<polygon fill="none" stroke="black" points="66,-55.5 66,-73.5 114.24,-73.5 114.24,-55.5 66,-55.5"/>
<text text-anchor="middle" x="90.12" y="-61.5" font-family="Helvetica,sans-Serif" font-size="10.00">types.h</text>
</a>
</g>
</g>
<!-- Node9&#45;&gt;Node10 -->
<g id="edge9" class="edge">
<title>Node9&#45;&gt;Node10</title>
<path fill="none" stroke="midnightblue" d="M142.7,-110.45C133.32,-102.43 118.71,-89.95 107.27,-80.17"/>
<polygon fill="midnightblue" stroke="midnightblue" points="109.5,-77.46 99.62,-73.63 104.95,-82.78 109.5,-77.46"/>
</g>
<!-- Node11 -->
<g id="node11" class="node">
<title>Node11</title>
<g id="a_node11"><a xlink:title=" ">
<polygon fill="none" stroke="#bfbfbf" points="0,-0.5 0,-18.5 48.23,-18.5 48.23,-0.5 0,-0.5"/>
<text text-anchor="middle" x="24.12" y="-6.5" font-family="Helvetica,sans-Serif" font-size="10.00">cassert</text>
</a>
</g>
</g>
<!-- Node10&#45;&gt;Node11 -->
<g id="edge10" class="edge">
<title>Node10&#45;&gt;Node11</title>
<path fill="none" stroke="midnightblue" d="M80.09,-55.45C70.11,-47.43 54.56,-34.95 42.38,-25.17"/>
<polygon fill="midnightblue" stroke="midnightblue" points="44.22,-22.16 34.23,-18.63 39.84,-27.62 44.22,-22.16"/>
</g>
<!-- Node12 -->
<g id="node12" class="node">
<title>Node12</title>
<g id="a_node12"><a xlink:title=" ">
<polygon fill="none" stroke="#bfbfbf" points="66,-0.5 66,-18.5 114.24,-18.5 114.24,-0.5 66,-0.5"/>
<text text-anchor="middle" x="90.12" y="-6.5" font-family="Helvetica,sans-Serif" font-size="10.00">cstddef</text>
</a>
</g>
</g>
<!-- Node10&#45;&gt;Node12 -->
<g id="edge11" class="edge">
<title>Node10&#45;&gt;Node12</title>
<path fill="none" stroke="midnightblue" d="M90.12,-55.22C90.12,-48.18 90.12,-37.81 90.12,-28.83"/>
<polygon fill="midnightblue" stroke="midnightblue" points="93.62,-28.55 90.12,-18.55 86.62,-28.55 93.62,-28.55"/>
</g>
<!-- Node13 -->
<g id="node13" class="node">
<title>Node13</title>
<g id="a_node13"><a xlink:title=" ">
<polygon fill="none" stroke="#bfbfbf" points="132.05,-0.5 132.05,-18.5 194.18,-18.5 194.18,-0.5 132.05,-0.5"/>
<text text-anchor="middle" x="163.12" y="-6.5" font-family="Helvetica,sans-Serif" font-size="10.00">type_traits</text>
</a>
</g>
</g>
<!-- Node10&#45;&gt;Node13 -->
<g id="edge12" class="edge">
<title>Node10&#45;&gt;Node13</title>
<path fill="none" stroke="midnightblue" d="M101.2,-55.45C112.46,-47.28 130.11,-34.46 143.7,-24.6"/>
<polygon fill="midnightblue" stroke="midnightblue" points="145.89,-27.33 151.92,-18.63 141.78,-21.67 145.89,-27.33"/>
</g>
<!-- Node16&#45;&gt;Node9 -->
<g id="edge16" class="edge">
<title>Node16&#45;&gt;Node9</title>
<path fill="none" stroke="midnightblue" d="M141.99,-165.22C143.6,-158.1 145.98,-147.58 148.03,-138.53"/>
<polygon fill="midnightblue" stroke="midnightblue" points="151.5,-139.08 150.29,-128.55 144.67,-137.53 151.5,-139.08"/>
</g>
<!-- Node17&#45;&gt;Node14 -->
<g id="edge18" class="edge">
<title>Node17&#45;&gt;Node14</title>
<path fill="none" stroke="midnightblue" d="M299.28,-220.45C317.7,-211.81 347.19,-197.98 368.59,-187.94"/>
<polygon fill="midnightblue" stroke="midnightblue" points="370.22,-191.04 377.79,-183.63 367.25,-184.7 370.22,-191.04"/>
</g>
<!-- Node17&#45;&gt;Node15 -->
<g id="edge19" class="edge">
<title>Node17&#45;&gt;Node15</title>
<path fill="none" stroke="midnightblue" d="M282.12,-220.22C282.12,-213.18 282.12,-202.81 282.12,-193.83"/>
<polygon fill="midnightblue" stroke="midnightblue" points="285.62,-193.55 282.12,-183.55 278.62,-193.55 285.62,-193.55"/>
</g>
<!-- Node20 -->
<g id="node20" class="node">
<title>Node20</title>
<g id="a_node20"><a xlink:href="../../d2/d68/_cmd_chr_8h.html" target="_top" xlink:title=" ">
<polygon fill="none" stroke="black" points="27.61,-220.5 27.61,-238.5 88.63,-238.5 88.63,-220.5 27.61,-220.5"/>
<text text-anchor="middle" x="58.12" y="-226.5" font-family="Helvetica,sans-Serif" font-size="10.00">CmdChr.h</text>
</a>
</g>
</g>
<!-- Node19&#45;&gt;Node20 -->
<g id="edge22" class="edge">
<title>Node19&#45;&gt;Node20</title>
<path fill="none" stroke="midnightblue" d="M154.8,-275.45C136.22,-266.81 106.47,-252.98 84.87,-242.94"/>
<polygon fill="midnightblue" stroke="midnightblue" points="86.14,-239.67 75.59,-238.63 83.19,-246.01 86.14,-239.67"/>
</g>
<!-- Node23 -->
<g id="node23" class="node">
<title>Node23</title>
<g id="a_node23"><a xlink:title=" ">
<polygon fill="none" stroke="#bfbfbf" points="177.62,-220.5 177.62,-238.5 206.62,-238.5 206.62,-220.5 177.62,-220.5"/>
<text text-anchor="middle" x="191.73" y="-226.5" font-family="Helvetica,sans-Serif" font-size="10.00">list</text>
</a>
</g>
</g>
<!-- Node19&#45;&gt;Node23 -->
<g id="edge27" class="edge">
<title>Node19&#45;&gt;Node23</title>
<path fill="none" stroke="midnightblue" d="M175.24,-275.22C177.99,-267.94 182.07,-257.11 185.54,-247.93"/>
<polygon fill="midnightblue" stroke="midnightblue" points="188.82,-249.14 189.08,-238.55 182.27,-246.67 188.82,-249.14"/>
</g>
<!-- Node20&#45;&gt;Node16 -->
<g id="edge26" class="edge">
<title>Node20&#45;&gt;Node16</title>
<path fill="none" stroke="midnightblue" d="M70.57,-220.45C83.33,-212.2 103.42,-199.22 118.74,-189.32"/>
<polygon fill="midnightblue" stroke="midnightblue" points="121.05,-191.99 127.54,-183.63 117.25,-186.11 121.05,-191.99"/>
</g>
<!-- Node21 -->
<g id="node21" class="node">
<title>Node21</title>
<g id="a_node21"><a xlink:href="../../d8/d47/codepoint_8h.html" target="_top" xlink:title=" ">
<polygon fill="none" stroke="black" points="16.26,-165.5 16.26,-183.5 83.97,-183.5 83.97,-165.5 16.26,-165.5"/>
<text text-anchor="middle" x="50.12" y="-171.5" font-family="Helvetica,sans-Serif" font-size="10.00">codepoint.h</text>
</a>
</g>
</g>
<!-- Node20&#45;&gt;Node21 -->
<g id="edge23" class="edge">
<title>Node20&#45;&gt;Node21</title>
<path fill="none" stroke="midnightblue" d="M56.87,-220.22C55.79,-213.1 54.2,-202.58 52.84,-193.53"/>
<polygon fill="midnightblue" stroke="midnightblue" points="56.28,-192.92 51.33,-183.55 49.36,-193.96 56.28,-192.92"/>
</g>
<!-- Node21&#45;&gt;Node10 -->
<g id="edge24" class="edge">
<title>Node21&#45;&gt;Node10</title>
<path fill="none" stroke="midnightblue" d="M47.62,-165.32C44.28,-152.86 39.59,-128.62 47.12,-110 51.86,-98.26 61.36,-87.89 70.22,-80.12"/>
<polygon fill="midnightblue" stroke="midnightblue" points="72.49,-82.79 78.03,-73.76 68.07,-77.37 72.49,-82.79"/>
</g>
<!-- Node22 -->
<g id="node22" class="node">
<title>Node22</title>
<g id="a_node22"><a xlink:title=" ">
<polygon fill="none" stroke="#bfbfbf" points="56.6,-110.5 56.6,-128.5 107.63,-128.5 107.63,-110.5 56.6,-110.5"/>
<text text-anchor="middle" x="82.12" y="-116.5" font-family="Helvetica,sans-Serif" font-size="10.00">optional</text>
</a>
</g>
</g>
<!-- Node21&#45;&gt;Node22 -->
<g id="edge25" class="edge">
<title>Node21&#45;&gt;Node22</title>
<path fill="none" stroke="midnightblue" d="M55.12,-165.22C59.6,-157.79 66.33,-146.65 71.95,-137.34"/>
<polygon fill="midnightblue" stroke="midnightblue" points="75.08,-138.92 77.26,-128.55 69.09,-135.3 75.08,-138.92"/>
</g>
<!-- Node25&#45;&gt;Node15 -->
<g id="edge31" class="edge">
<title>Node25&#45;&gt;Node15</title>
<path fill="none" stroke="midnightblue" d="M155.75,-220.45C181.09,-211.44 222.33,-196.77 250.77,-186.65"/>
<polygon fill="midnightblue" stroke="midnightblue" points="252,-189.93 260.25,-183.28 249.65,-183.33 252,-189.93"/>
</g>
<!-- Node25&#45;&gt;Node16 -->
<g id="edge30" class="edge">
<title>Node25&#45;&gt;Node16</title>
<path fill="none" stroke="midnightblue" d="M134.21,-220.22C135.15,-213.1 136.54,-202.58 137.73,-193.53"/>
<polygon fill="midnightblue" stroke="midnightblue" points="141.21,-193.92 139.05,-183.55 134.27,-193.01 141.21,-193.92"/>
</g>
<!-- Node26&#45;&gt;Node8 -->
<g id="edge34" class="edge">
<title>Node26&#45;&gt;Node8</title>
<path fill="none" stroke="midnightblue" d="M425.37,-330.38C430.17,-313.1 441.5,-272.33 448.1,-248.56"/>
<polygon fill="midnightblue" stroke="midnightblue" points="451.53,-249.28 450.83,-238.71 444.79,-247.41 451.53,-249.28"/>
</g>
<!-- Node26&#45;&gt;Node24 -->
<g id="edge33" class="edge">
<title>Node26&#45;&gt;Node24</title>
<path fill="none" stroke="midnightblue" d="M411.72,-330.45C400.16,-322.28 382.02,-309.46 368.07,-299.6"/>
<polygon fill="midnightblue" stroke="midnightblue" points="369.8,-296.54 359.61,-293.63 365.76,-302.25 369.8,-296.54"/>
</g>
<!-- Node28 -->
<g id="node28" class="node">
<title>Node28</title>
<g id="a_node28"><a xlink:href="../../d7/d1b/_buffer_8h.html" target="_top" xlink:title=" ">
<polygon fill="none" stroke="black" points="380.52,-440.5 380.52,-458.5 459.71,-458.5 459.71,-440.5 380.52,-440.5"/>
<text text-anchor="middle" x="420.12" y="-446.5" font-family="Helvetica,sans-Serif" font-size="10.00">tralics/Buffer.h</text>
</a>
</g>
</g>
<!-- Node27&#45;&gt;Node28 -->
<g id="edge36" class="edge">
<title>Node27&#45;&gt;Node28</title>
<path fill="none" stroke="midnightblue" d="M474.4,-495.45C464.72,-487.43 449.64,-474.95 437.83,-465.17"/>
<polygon fill="midnightblue" stroke="midnightblue" points="439.86,-462.31 429.93,-458.63 435.4,-467.7 439.86,-462.31"/>
</g>
<!-- Node31 -->
<g id="node31" class="node">
<title>Node31</title>
<g id="a_node31"><a xlink:href="../../d3/d01/txeqtb_8h.html" target="_top" xlink:title=" ">
<polygon fill="none" stroke="black" points="477.33,-440.5 477.33,-458.5 528.91,-458.5 528.91,-440.5 477.33,-440.5"/>
<text text-anchor="middle" x="503.12" y="-446.5" font-family="Helvetica,sans-Serif" font-size="10.00">txeqtb.h</text>
</a>
</g>
</g>
<!-- Node27&#45;&gt;Node31 -->
<g id="edge41" class="edge">
<title>Node27&#45;&gt;Node31</title>
<path fill="none" stroke="midnightblue" d="M487.08,-495.22C489.67,-488.02 493.49,-477.35 496.76,-468.23"/>
<polygon fill="midnightblue" stroke="midnightblue" points="500.15,-469.14 500.23,-458.55 493.56,-466.78 500.15,-469.14"/>
</g>
<!-- Node28&#45;&gt;Node5 -->
<g id="edge39" class="edge">
<title>Node28&#45;&gt;Node5</title>
<path fill="none" stroke="midnightblue" d="M390.8,-440.45C357.55,-431.32 303.16,-416.38 266.29,-406.26"/>
<polygon fill="midnightblue" stroke="midnightblue" points="266.96,-402.81 256.39,-403.54 265.1,-409.56 266.96,-402.81"/>
</g>
<!-- Node29 -->
<g id="node29" class="node">
<title>Node29</title>
<g id="a_node29"><a xlink:href="../../d1/d9e/txid_8h.html" target="_top" xlink:title=" ">
<polygon fill="none" stroke="black" points="325,-385.5 325,-403.5 373.23,-403.5 373.23,-385.5 325,-385.5"/>
<text text-anchor="middle" x="349.12" y="-391.5" font-family="Helvetica,sans-Serif" font-size="10.00">../txid.h</text>
</a>
</g>
</g>
<!-- Node28&#45;&gt;Node29 -->
<g id="edge37" class="edge">
<title>Node28&#45;&gt;Node29</title>
<path fill="none" stroke="midnightblue" d="M409.33,-440.45C398.49,-432.36 381.54,-419.7 368.38,-409.88"/>
<polygon fill="midnightblue" stroke="midnightblue" points="370.11,-406.8 360,-403.63 365.92,-412.41 370.11,-406.8"/>
</g>
<!-- Node30 -->
<g id="node30" class="node">
<title>Node30</title>
<g id="a_node30"><a xlink:title=" ">
<polygon fill="none" stroke="#bfbfbf" points="397.39,-385.5 397.39,-403.5 442.84,-403.5 442.84,-385.5 397.39,-385.5"/>
<text text-anchor="middle" x="420.12" y="-391.5" font-family="Helvetica,sans-Serif" font-size="10.00">cstring</text>
</a>
</g>
</g>
<!-- Node28&#45;&gt;Node30 -->
<g id="edge40" class="edge">
<title>Node28&#45;&gt;Node30</title>
<path fill="none" stroke="midnightblue" d="M420.12,-440.22C420.12,-433.18 420.12,-422.81 420.12,-413.83"/>
<polygon fill="midnightblue" stroke="midnightblue" points="423.62,-413.55 420.12,-403.55 416.62,-413.55 423.62,-413.55"/>
</g>
<!-- Node29&#45;&gt;Node7 -->
<g id="edge38" class="edge">
<title>Node29&#45;&gt;Node7</title>
<path fill="none" stroke="midnightblue" d="M340.97,-385.36C332.53,-376.72 319.19,-362.48 309.12,-349 297.89,-333.97 286.86,-315.59 279.42,-302.48"/>
<polygon fill="midnightblue" stroke="midnightblue" points="282.41,-300.65 274.48,-293.62 276.29,-304.06 282.41,-300.65"/>
</g>
<!-- Node31&#45;&gt;Node8 -->
<g id="edge42" class="edge">
<title>Node31&#45;&gt;Node8</title>
<path fill="none" stroke="midnightblue" d="M501.28,-440.48C494.07,-409.04 467.6,-293.67 457.28,-248.66"/>
<polygon fill="midnightblue" stroke="midnightblue" points="460.67,-247.79 455.02,-238.82 453.85,-249.35 460.67,-247.79"/>
</g>
<!-- Node32&#45;&gt;Node14 -->
<g id="edge44" class="edge">
<title>Node32&#45;&gt;Node14</title>
<path fill="none" stroke="midnightblue" d="M354.8,-330.19C361.32,-321.63 370.97,-307.67 376.12,-294 388.93,-259.99 393.1,-217.3 394.46,-193.56"/>
<polygon fill="midnightblue" stroke="midnightblue" points="397.96,-193.7 394.93,-183.54 390.97,-193.37 397.96,-193.7"/>
</g>
<!-- Node32&#45;&gt;Node24 -->
<g id="edge45" class="edge">
<title>Node32&#45;&gt;Node24</title>
<path fill="none" stroke="midnightblue" d="M348.12,-330.22C348.12,-323.18 348.12,-312.81 348.12,-303.83"/>
<polygon fill="midnightblue" stroke="midnightblue" points="351.62,-303.55 348.12,-293.55 344.62,-303.55 351.62,-303.55"/>
</g>
<!-- Node33&#45;&gt;Node28 -->
<g id="edge47" class="edge">
<title>Node33&#45;&gt;Node28</title>
<path fill="none" stroke="midnightblue" d="M479.27,-550.31C470.51,-541.85 457.14,-527.96 448.12,-514 438.82,-499.61 431.21,-481.62 426.28,-468.46"/>
<polygon fill="midnightblue" stroke="midnightblue" points="429.47,-466.97 422.8,-458.73 422.88,-469.33 429.47,-466.97"/>
</g>
<!-- Node34 -->
<g id="node34" class="node">
<title>Node34</title>
<g id="a_node34"><a xlink:title=" ">
<polygon fill="none" stroke="#bfbfbf" points="590.45,-495.5 590.45,-513.5 639.79,-513.5 639.79,-495.5 590.45,-495.5"/>
<text text-anchor="middle" x="615.12" y="-501.5" font-family="Helvetica,sans-Serif" font-size="10.00">fstream</text>
</a>
</g>
</g>
<!-- Node33&#45;&gt;Node34 -->
<g id="edge48" class="edge">
<title>Node33&#45;&gt;Node34</title>
<path fill="none" stroke="midnightblue" d="M507.4,-550.45C528.38,-541.7 562.15,-527.61 586.28,-517.53"/>
<polygon fill="midnightblue" stroke="midnightblue" points="587.76,-520.71 595.65,-513.63 585.07,-514.25 587.76,-520.71"/>
</g>
<!-- Node36 -->
<g id="node36" class="node">
<title>Node36</title>
<g id="a_node36"><a xlink:href="../../d9/d1c/_xml_8h.html" target="_top" xlink:title=" ">
<polygon fill="none" stroke="black" points="330.89,-495.5 330.89,-513.5 401.34,-513.5 401.34,-495.5 330.89,-495.5"/>
<text text-anchor="middle" x="366.12" y="-501.5" font-family="Helvetica,sans-Serif" font-size="10.00">tralics/Xml.h</text>
</a>
</g>
</g>
<!-- Node35&#45;&gt;Node36 -->
<g id="edge50" class="edge">
<title>Node35&#45;&gt;Node36</title>
<path fill="none" stroke="midnightblue" d="M413.37,-550.22C405.02,-542.32 392.24,-530.22 382.08,-520.61"/>
<polygon fill="midnightblue" stroke="midnightblue" points="384.29,-517.88 374.62,-513.55 379.48,-522.97 384.29,-517.88"/>
</g>
<!-- Node38 -->
<g id="node38" class="node">
<title>Node38</title>
<g id="a_node38"><a xlink:href="../../d4/da4/txatt_8h.html" target="_top" xlink:title=" ">
<polygon fill="none" stroke="black" points="521.5,-385.5 521.5,-403.5 564.73,-403.5 564.73,-385.5 521.5,-385.5"/>
<text text-anchor="middle" x="543.12" y="-391.5" font-family="Helvetica,sans-Serif" font-size="10.00">txatt.h</text>
</a>
</g>
</g>
<!-- Node35&#45;&gt;Node38 -->
<g id="edge53" class="edge">
<title>Node35&#45;&gt;Node38</title>
<path fill="none" stroke="midnightblue" d="M449.87,-552.42C471.79,-546.25 501.66,-534.6 520.12,-514 545.09,-486.11 546.41,-439.44 544.93,-413.78"/>
<polygon fill="midnightblue" stroke="midnightblue" points="548.4,-413.31 544.12,-403.62 541.42,-413.86 548.4,-413.31"/>
</g>
<!-- Node36&#45;&gt;Node28 -->
<g id="edge51" class="edge">
<title>Node36&#45;&gt;Node28</title>
<path fill="none" stroke="midnightblue" d="M374.55,-495.22C382.6,-487.32 394.93,-475.22 404.73,-465.61"/>
<polygon fill="midnightblue" stroke="midnightblue" points="407.23,-468.05 411.91,-458.55 402.33,-463.06 407.23,-468.05"/>
</g>
<!-- Node37 -->
<g id="node37" class="node">
<title>Node37</title>
<g id="a_node37"><a xlink:title=" ">
<polygon fill="none" stroke="#bfbfbf" points="317.94,-440.5 317.94,-458.5 362.29,-458.5 362.29,-440.5 317.94,-440.5"/>
<text text-anchor="middle" x="340.12" y="-446.5" font-family="Helvetica,sans-Serif" font-size="10.00">gsl/gsl</text>
</a>
</g>
</g>
<!-- Node36&#45;&gt;Node37 -->
<g id="edge52" class="edge">
<title>Node36&#45;&gt;Node37</title>
<path fill="none" stroke="midnightblue" d="M362.05,-495.22C358.45,-487.86 353.06,-476.88 348.52,-467.64"/>
<polygon fill="midnightblue" stroke="midnightblue" points="351.61,-465.99 344.06,-458.55 345.33,-469.07 351.61,-465.99"/>
</g>
<!-- Node38&#45;&gt;Node8 -->
<g id="edge54" class="edge">
<title>Node38&#45;&gt;Node8</title>
<path fill="none" stroke="midnightblue" d="M541.76,-385.41C538.09,-365.31 526.58,-312.07 502.12,-275 494.48,-263.43 483.16,-252.88 473.32,-244.96"/>
<polygon fill="midnightblue" stroke="midnightblue" points="475.25,-242.03 465.19,-238.72 470.99,-247.58 475.25,-242.03"/>
</g>
<!-- Node40&#45;&gt;Node7 -->
<g id="edge57" class="edge">
<title>Node40&#45;&gt;Node7</title>
<path fill="none" stroke="midnightblue" d="M75.36,-331.79C113.41,-322.74 181.53,-306.55 226.28,-295.92"/>
<polygon fill="midnightblue" stroke="midnightblue" points="227.36,-299.26 236.28,-293.54 225.74,-292.45 227.36,-299.26"/>
</g>
<!-- Node40&#45;&gt;Node21 -->
<g id="edge58" class="edge">
<title>Node40&#45;&gt;Node21</title>
<path fill="none" stroke="midnightblue" d="M36.23,-330.36C26.5,-322.35 12.92,-309.13 7.12,-294 4.09,-286.12 6.28,-283.4 7.12,-275 9.57,-250.19 8.17,-242.86 18.12,-220 22.58,-209.75 29.68,-199.53 36.07,-191.48"/>
<polygon fill="midnightblue" stroke="midnightblue" points="38.84,-193.61 42.55,-183.69 33.47,-189.14 38.84,-193.61"/>
</g>
<!-- Node41 -->
<g id="node41" class="node">
<title>Node41</title>
<g id="a_node41"><a xlink:title=" ">
<polygon fill="none" stroke="#bfbfbf" points="15.89,-275.5 15.89,-293.5 76.34,-293.5 76.34,-275.5 15.89,-275.5"/>
<text text-anchor="middle" x="46.12" y="-281.5" font-family="Helvetica,sans-Serif" font-size="10.00">filesystem</text>
</a>
</g>
</g>
<!-- Node40&#45;&gt;Node41 -->
<g id="edge59" class="edge">
<title>Node40&#45;&gt;Node41</title>
<path fill="none" stroke="midnightblue" d="M46.96,-330.22C46.83,-323.18 46.63,-312.81 46.46,-303.83"/>
<polygon fill="midnightblue" stroke="midnightblue" points="49.96,-303.48 46.27,-293.55 42.96,-303.61 49.96,-303.48"/>
</g>
<!-- Node43 -->
<g id="node43" class="node">
<title>Node43</title>
<g id="a_node43"><a xlink:href="../../d4/de9/_main_class_8h.html" target="_top" xlink:title=" ">
<polygon fill="none" stroke="black" points="394.16,-605.5 394.16,-623.5 494.07,-623.5 494.07,-605.5 394.16,-605.5"/>
<text text-anchor="middle" x="444.12" y="-611.5" font-family="Helvetica,sans-Serif" font-size="10.00">tralics/MainClass.h</text>
</a>
</g>
</g>
<!-- Node42&#45;&gt;Node43 -->
<g id="edge61" class="edge">
<title>Node42&#45;&gt;Node43</title>
<path fill="none" stroke="midnightblue" d="M444.12,-660.22C444.12,-653.18 444.12,-642.81 444.12,-633.83"/>
<polygon fill="midnightblue" stroke="midnightblue" points="447.62,-633.55 444.12,-623.55 440.62,-633.55 447.62,-633.55"/>
</g>
<!-- Node44 -->
<g id="node44" class="node">
<title>Node44</title>
<g id="a_node44"><a xlink:href="../../d2/d06/txlogger_8h.html" target="_top" xlink:title=" ">
<polygon fill="none" stroke="black" points="590.43,-605.5 590.43,-623.5 649.8,-623.5 649.8,-605.5 590.43,-605.5"/>
<text text-anchor="middle" x="620.12" y="-611.5" font-family="Helvetica,sans-Serif" font-size="10.00">txlogger.h</text>
</a>
</g>
</g>
<!-- Node42&#45;&gt;Node44 -->
<g id="edge63" class="edge">
<title>Node42&#45;&gt;Node44</title>
<path fill="none" stroke="midnightblue" d="M470.85,-660.45C500.91,-651.4 549.92,-636.64 583.53,-626.52"/>
<polygon fill="midnightblue" stroke="midnightblue" points="584.86,-629.77 593.42,-623.54 582.84,-623.07 584.86,-629.77"/>
</g>
<!-- Node46 -->
<g id="node46" class="node">
<title>Node46</title>
<g id="a_node46"><a xlink:href="../../d5/d08/txparam_8h.html" target="_top" xlink:title=" ">
<polygon fill="none" stroke="black" points="511.88,-605.5 511.88,-623.5 572.35,-623.5 572.35,-605.5 511.88,-605.5"/>
<text text-anchor="middle" x="542.12" y="-611.5" font-family="Helvetica,sans-Serif" font-size="10.00">txparam.h</text>
</a>
</g>
</g>
<!-- Node42&#45;&gt;Node46 -->
<g id="edge66" class="edge">
<title>Node42&#45;&gt;Node46</title>
<path fill="none" stroke="midnightblue" d="M459,-660.45C474.69,-651.97 499.63,-638.48 518.1,-628.49"/>
<polygon fill="midnightblue" stroke="midnightblue" points="519.96,-631.46 527.09,-623.63 516.63,-625.3 519.96,-631.46"/>
</g>
<!-- Node43&#45;&gt;Node33 -->
<g id="edge62" class="edge">
<title>Node43&#45;&gt;Node33</title>
<path fill="none" stroke="midnightblue" d="M450.99,-605.22C457.36,-597.55 467,-585.94 474.86,-576.47"/>
<polygon fill="midnightblue" stroke="midnightblue" points="477.74,-578.48 481.43,-568.55 472.35,-574.01 477.74,-578.48"/>
</g>
<!-- Node44&#45;&gt;Node34 -->
<g id="edge64" class="edge">
<title>Node44&#45;&gt;Node34</title>
<path fill="none" stroke="midnightblue" d="M619.74,-605.38C618.94,-588.18 617.07,-547.7 615.97,-523.89"/>
<polygon fill="midnightblue" stroke="midnightblue" points="619.45,-523.54 615.5,-513.71 612.46,-523.86 619.45,-523.54"/>
</g>
<!-- Node45 -->
<g id="node45" class="node">
<title>Node45</title>
<g id="a_node45"><a xlink:title=" ">
<polygon fill="none" stroke="#bfbfbf" points="537.94,-550.5 537.94,-568.5 592.29,-568.5 592.29,-550.5 537.94,-550.5"/>
<text text-anchor="middle" x="565.12" y="-556.5" font-family="Helvetica,sans-Serif" font-size="10.00">iostream</text>
</a>
</g>
</g>
<!-- Node44&#45;&gt;Node45 -->
<g id="edge65" class="edge">
<title>Node44&#45;&gt;Node45</title>
<path fill="none" stroke="midnightblue" d="M611.52,-605.22C603.32,-597.32 590.77,-585.22 580.79,-575.61"/>
<polygon fill="midnightblue" stroke="midnightblue" points="583.1,-572.97 573.47,-568.55 578.24,-578.01 583.1,-572.97"/>
</g>
<!-- Node46&#45;&gt;Node33 -->
<g id="edge67" class="edge">
<title>Node46&#45;&gt;Node33</title>
<path fill="none" stroke="midnightblue" d="M533.68,-605.22C525.63,-597.32 513.31,-585.22 503.51,-575.61"/>
<polygon fill="midnightblue" stroke="midnightblue" points="505.91,-573.06 496.32,-568.55 501,-578.05 505.91,-573.06"/>
</g>
<!-- Node47&#45;&gt;Node36 -->
<g id="edge69" class="edge">
<title>Node47&#45;&gt;Node36</title>
<path fill="none" stroke="midnightblue" d="M368.96,-660.19C368.5,-635.01 367.1,-559.11 366.45,-523.86"/>
<polygon fill="midnightblue" stroke="midnightblue" points="369.95,-523.53 366.26,-513.6 362.95,-523.66 369.95,-523.53"/>
</g>
</g>
</svg>
