<?xml version="1.0" encoding="UTF-8" standalone="no"?>
<!DOCTYPE svg PUBLIC "-//W3C//DTD SVG 1.1//EN"
 "http://www.w3.org/Graphics/SVG/1.1/DTD/svg11.dtd">
<!-- Generated by graphviz version 2.42.3 (20191010.1750)
 -->
<!-- Title: SaveAuxFont Pages: 1 -->
<svg width="151pt" height="233pt"
 viewBox="0.00 0.00 151.06 233.00" xmlns="http://www.w3.org/2000/svg" xmlns:xlink="http://www.w3.org/1999/xlink">
<g id="graph0" class="graph" transform="scale(1 1) rotate(0) translate(4 229)">
<title>SaveAuxFont</title>
<!-- Node1 -->
<g id="node1" class="node">
<title>Node1</title>
<g id="a_node1"><a xlink:title=" ">
<polygon fill="#bfbfbf" stroke="black" points="6,-0.5 6,-18.5 82.03,-18.5 82.03,-0.5 6,-0.5"/>
<text text-anchor="middle" x="44.01" y="-6.5" font-family="Helvetica,sans-Serif" font-size="10.00">SaveAuxFont</text>
</a>
</g>
</g>
<!-- Node2 -->
<g id="node2" class="node">
<title>Node2</title>
<g id="a_node2"><a xlink:href="../../da/df8/class_save_aux.html" target="_top" xlink:title=" ">
<polygon fill="none" stroke="black" points="0,-65.5 0,-83.5 56.02,-83.5 56.02,-65.5 0,-65.5"/>
<text text-anchor="middle" x="28.01" y="-71.5" font-family="Helvetica,sans-Serif" font-size="10.00">SaveAux</text>
</a>
</g>
</g>
<!-- Node2&#45;&gt;Node1 -->
<g id="edge1" class="edge">
<title>Node2&#45;&gt;Node1</title>
<path fill="none" stroke="midnightblue" d="M32.64,-55.28C35.73,-43.13 39.63,-27.75 41.97,-18.54"/>
<polygon fill="midnightblue" stroke="midnightblue" points="29.17,-54.71 30.1,-65.26 35.96,-56.43 29.17,-54.71"/>
</g>
<!-- Node3 -->
<g id="node3" class="node">
<title>Node3</title>
<g id="a_node3"><a xlink:href="../../d9/d20/struct_istring.html" target="_top" xlink:title=" ">
<polygon fill="none" stroke="black" points="74.4,-65.5 74.4,-83.5 117.63,-83.5 117.63,-65.5 74.4,-65.5"/>
<text text-anchor="middle" x="96.01" y="-71.5" font-family="Helvetica,sans-Serif" font-size="10.00">Istring</text>
</a>
</g>
</g>
<!-- Node3&#45;&gt;Node1 -->
<g id="edge2" class="edge">
<title>Node3&#45;&gt;Node1</title>
<path fill="none" stroke="#9a32cd" stroke-dasharray="5,2" d="M82.78,-57.47C72.52,-45.03 58.71,-28.31 50.65,-18.54"/>
<polygon fill="#9a32cd" stroke="#9a32cd" points="80.15,-59.78 89.21,-65.26 85.55,-55.32 80.15,-59.78"/>
<text text-anchor="middle" x="85.24" y="-39" font-family="Helvetica,sans-Serif" font-size="10.00"> color</text>
</g>
<!-- Node4 -->
<g id="node4" class="node">
<title>Node4</title>
<g id="a_node4"><a xlink:title="STL class.">
<polygon fill="none" stroke="#bfbfbf" points="66.34,-140.5 66.34,-158.5 125.69,-158.5 125.69,-140.5 66.34,-140.5"/>
<text text-anchor="middle" x="96.01" y="-146.5" font-family="Helvetica,sans-Serif" font-size="10.00">std::string</text>
</a>
</g>
</g>
<!-- Node4&#45;&gt;Node3 -->
<g id="edge3" class="edge">
<title>Node4&#45;&gt;Node3</title>
<path fill="none" stroke="#9a32cd" stroke-dasharray="5,2" d="M96.01,-130.35C96.01,-115.48 96.01,-95.12 96.01,-83.85"/>
<polygon fill="#9a32cd" stroke="#9a32cd" points="92.51,-130.41 96.01,-140.41 99.51,-130.41 92.51,-130.41"/>
<text text-anchor="middle" x="109.35" y="-114" font-family="Helvetica,sans-Serif" font-size="10.00"> value</text>
<text text-anchor="middle" x="109.35" y="-104" font-family="Helvetica,sans-Serif" font-size="10.00">name</text>
</g>
<!-- Node5 -->
<g id="node5" class="node">
<title>Node5</title>
<g id="a_node5"><a xlink:title="STL class.">
<polygon fill="none" stroke="#bfbfbf" points="48.96,-196.5 48.96,-224.5 143.06,-224.5 143.06,-196.5 48.96,-196.5"/>
<text text-anchor="start" x="56.96" y="-212.5" font-family="Helvetica,sans-Serif" font-size="10.00">std::basic_string&lt;</text>
<text text-anchor="middle" x="96.01" y="-202.5" font-family="Helvetica,sans-Serif" font-size="10.00"> char &gt;</text>
</a>
</g>
</g>
<!-- Node5&#45;&gt;Node4 -->
<g id="edge4" class="edge">
<title>Node5&#45;&gt;Node4</title>
<path fill="none" stroke="midnightblue" d="M96.01,-186.39C96.01,-176.59 96.01,-165.82 96.01,-158.65"/>
<polygon fill="midnightblue" stroke="midnightblue" points="92.51,-186.41 96.01,-196.41 99.51,-186.41 92.51,-186.41"/>
</g>
</g>
</svg>
