<?xml version="1.0" encoding="UTF-8" standalone="no"?>
<!DOCTYPE svg PUBLIC "-//W3C//DTD SVG 1.1//EN"
 "http://www.w3.org/Graphics/SVG/1.1/DTD/svg11.dtd">
<!-- Generated by graphviz version 2.42.3 (20191010.1750)
 -->
<!-- Title: txatt.h Pages: 1 -->
<svg width="2608pt" height="247pt"
 viewBox="0.00 0.00 2607.82 247.00" xmlns="http://www.w3.org/2000/svg" xmlns:xlink="http://www.w3.org/1999/xlink">
<g id="graph0" class="graph" transform="scale(1 1) rotate(0) translate(4 243)">
<title>txatt.h</title>
<!-- Node1 -->
<g id="node1" class="node">
<title>Node1</title>
<g id="a_node1"><a xlink:title=" ">
<polygon fill="#bfbfbf" stroke="black" points="1217.74,-220.5 1217.74,-238.5 1260.98,-238.5 1260.98,-220.5 1217.74,-220.5"/>
<text text-anchor="middle" x="1239.36" y="-226.5" font-family="Helvetica,sans-Serif" font-size="10.00">txatt.h</text>
</a>
</g>
</g>
<!-- Node2 -->
<g id="node2" class="node">
<title>Node2</title>
<g id="a_node2"><a xlink:href="../../dc/d65/txstack_8h.html" target="_top" xlink:title=" ">
<polygon fill="none" stroke="black" points="1211.63,-165.5 1211.63,-183.5 1267.09,-183.5 1267.09,-165.5 1211.63,-165.5"/>
<text text-anchor="middle" x="1239.36" y="-171.5" font-family="Helvetica,sans-Serif" font-size="10.00">txstack.h</text>
</a>
</g>
</g>
<!-- Node1&#45;&gt;Node2 -->
<g id="edge1" class="edge">
<title>Node1&#45;&gt;Node2</title>
<path fill="none" stroke="midnightblue" d="M1239.36,-210.17C1239.36,-201.09 1239.36,-190.59 1239.36,-183.55"/>
<polygon fill="midnightblue" stroke="midnightblue" points="1235.86,-210.22 1239.36,-220.22 1242.86,-210.22 1235.86,-210.22"/>
</g>
<!-- Node3 -->
<g id="node3" class="node">
<title>Node3</title>
<g id="a_node3"><a xlink:href="../../d2/d1b/txparser_8h.html" target="_top" xlink:title=" ">
<polygon fill="none" stroke="black" points="1209.4,-110.5 1209.4,-128.5 1269.32,-128.5 1269.32,-110.5 1209.4,-110.5"/>
<text text-anchor="middle" x="1239.36" y="-116.5" font-family="Helvetica,sans-Serif" font-size="10.00">txparser.h</text>
</a>
</g>
</g>
<!-- Node2&#45;&gt;Node3 -->
<g id="edge2" class="edge">
<title>Node2&#45;&gt;Node3</title>
<path fill="none" stroke="midnightblue" d="M1239.36,-155.17C1239.36,-146.09 1239.36,-135.59 1239.36,-128.55"/>
<polygon fill="midnightblue" stroke="midnightblue" points="1235.86,-155.22 1239.36,-165.22 1242.86,-155.22 1235.86,-155.22"/>
</g>
<!-- Node36 -->
<g id="node36" class="node">
<title>Node36</title>
<g id="a_node36"><a xlink:href="../../d8/d6d/txarray_8h.html" target="_top" xlink:title=" ">
<polygon fill="none" stroke="black" points="588.28,-110.5 588.28,-128.5 642.44,-128.5 642.44,-110.5 588.28,-110.5"/>
<text text-anchor="middle" x="615.36" y="-116.5" font-family="Helvetica,sans-Serif" font-size="10.00">txarray.h</text>
</a>
</g>
</g>
<!-- Node2&#45;&gt;Node36 -->
<g id="edge35" class="edge">
<title>Node2&#45;&gt;Node36</title>
<path fill="none" stroke="midnightblue" d="M1201.21,-170.26C1085.77,-160.45 742.06,-131.26 642.6,-122.81"/>
<polygon fill="midnightblue" stroke="midnightblue" points="1201.08,-173.76 1211.34,-171.12 1201.67,-166.79 1201.08,-173.76"/>
</g>
<!-- Node37 -->
<g id="node37" class="node">
<title>Node37</title>
<g id="a_node37"><a xlink:href="../../d5/d6d/txatt_8cpp.html" target="_top" xlink:title=" ">
<polygon fill="none" stroke="black" points="1287.46,-110.5 1287.46,-128.5 1341.26,-128.5 1341.26,-110.5 1287.46,-110.5"/>
<text text-anchor="middle" x="1314.36" y="-116.5" font-family="Helvetica,sans-Serif" font-size="10.00">txatt.cpp</text>
</a>
</g>
</g>
<!-- Node2&#45;&gt;Node37 -->
<g id="edge37" class="edge">
<title>Node2&#45;&gt;Node37</title>
<path fill="none" stroke="midnightblue" d="M1259.19,-159.49C1273.11,-149.65 1291.26,-136.83 1302.86,-128.63"/>
<polygon fill="midnightblue" stroke="midnightblue" points="1256.9,-156.82 1250.75,-165.45 1260.94,-162.54 1256.9,-156.82"/>
</g>
<!-- Node4 -->
<g id="node4" class="node">
<title>Node4</title>
<g id="a_node4"><a xlink:href="../../dc/dcf/_buffer_8cpp.html" target="_top" xlink:title=" ">
<polygon fill="none" stroke="black" points="82.93,-55.5 82.93,-73.5 143.79,-73.5 143.79,-55.5 82.93,-55.5"/>
<text text-anchor="middle" x="113.36" y="-61.5" font-family="Helvetica,sans-Serif" font-size="10.00">Buffer.cpp</text>
</a>
</g>
</g>
<!-- Node3&#45;&gt;Node4 -->
<g id="edge3" class="edge">
<title>Node3&#45;&gt;Node4</title>
<path fill="none" stroke="midnightblue" d="M1199.35,-117.76C1028.78,-114.49 361.73,-100.22 153.36,-74 150.26,-73.61 147.05,-73.1 143.85,-72.53"/>
<polygon fill="midnightblue" stroke="midnightblue" points="1199.33,-121.26 1209.4,-117.96 1199.47,-114.27 1199.33,-121.26"/>
</g>
<!-- Node5 -->
<g id="node5" class="node">
<title>Node5</title>
<g id="a_node5"><a xlink:href="../../da/d77/globals_8cpp.html" target="_top" xlink:title=" ">
<polygon fill="none" stroke="black" points="162.07,-55.5 162.07,-73.5 228.66,-73.5 228.66,-55.5 162.07,-55.5"/>
<text text-anchor="middle" x="195.36" y="-61.5" font-family="Helvetica,sans-Serif" font-size="10.00">globals.cpp</text>
</a>
</g>
</g>
<!-- Node3&#45;&gt;Node5 -->
<g id="edge4" class="edge">
<title>Node3&#45;&gt;Node5</title>
<path fill="none" stroke="midnightblue" d="M1198.95,-118.95C1062.84,-119.98 608.84,-119.56 237.36,-74 234.56,-73.66 231.66,-73.23 228.76,-72.75"/>
<polygon fill="midnightblue" stroke="midnightblue" points="1199.33,-122.45 1209.3,-118.86 1199.27,-115.45 1199.33,-122.45"/>
</g>
<!-- Node6 -->
<g id="node6" class="node">
<title>Node6</title>
<g id="a_node6"><a xlink:href="../../df/d37/_main_class_8cpp.html" target="_top" xlink:title=" ">
<polygon fill="none" stroke="black" points="246.57,-55.5 246.57,-73.5 328.15,-73.5 328.15,-55.5 246.57,-55.5"/>
<text text-anchor="middle" x="287.36" y="-61.5" font-family="Helvetica,sans-Serif" font-size="10.00">MainClass.cpp</text>
</a>
</g>
</g>
<!-- Node3&#45;&gt;Node6 -->
<g id="edge5" class="edge">
<title>Node3&#45;&gt;Node6</title>
<path fill="none" stroke="midnightblue" d="M1199.2,-118.27C1072.24,-117.18 668.29,-110.83 336.36,-74 333.7,-73.7 330.97,-73.36 328.22,-72.97"/>
<polygon fill="midnightblue" stroke="midnightblue" points="1199.22,-121.77 1209.25,-118.35 1199.27,-114.77 1199.22,-121.77"/>
</g>
<!-- Node7 -->
<g id="node7" class="node">
<title>Node7</title>
<g id="a_node7"><a xlink:href="../../d5/ddd/tralics_8cpp.html" target="_top" xlink:title=" ">
<polygon fill="none" stroke="black" points="345.86,-55.5 345.86,-73.5 406.87,-73.5 406.87,-55.5 345.86,-55.5"/>
<text text-anchor="middle" x="376.36" y="-61.5" font-family="Helvetica,sans-Serif" font-size="10.00">tralics.cpp</text>
</a>
</g>
</g>
<!-- Node3&#45;&gt;Node7 -->
<g id="edge6" class="edge">
<title>Node3&#45;&gt;Node7</title>
<path fill="none" stroke="midnightblue" d="M1199.15,-118.53C1079.45,-118.15 715.16,-113.58 416.36,-74 413.41,-73.61 410.34,-73.12 407.29,-72.57"/>
<polygon fill="midnightblue" stroke="midnightblue" points="1199.3,-122.03 1209.31,-118.56 1199.32,-115.03 1199.3,-122.03"/>
</g>
<!-- Node8 -->
<g id="node8" class="node">
<title>Node8</title>
<g id="a_node8"><a xlink:href="../../dd/dce/txaccent_8cpp.html" target="_top" xlink:title=" ">
<polygon fill="none" stroke="black" points="425.29,-55.5 425.29,-73.5 497.43,-73.5 497.43,-55.5 425.29,-55.5"/>
<text text-anchor="middle" x="461.36" y="-61.5" font-family="Helvetica,sans-Serif" font-size="10.00">txaccent.cpp</text>
</a>
</g>
</g>
<!-- Node3&#45;&gt;Node8 -->
<g id="edge7" class="edge">
<title>Node3&#45;&gt;Node8</title>
<path fill="none" stroke="midnightblue" d="M1199.15,-117.84C1088.32,-115.63 769.26,-106.68 506.36,-74 503.52,-73.65 500.59,-73.23 497.65,-72.76"/>
<polygon fill="midnightblue" stroke="midnightblue" points="1199.15,-121.34 1209.21,-118.03 1199.28,-114.34 1199.15,-121.34"/>
</g>
<!-- Node9 -->
<g id="node9" class="node">
<title>Node9</title>
<g id="a_node9"><a xlink:href="../../d7/de8/txarray_8cpp.html" target="_top" xlink:title=" ">
<polygon fill="none" stroke="black" points="0,-55.5 0,-73.5 64.73,-73.5 64.73,-55.5 0,-55.5"/>
<text text-anchor="middle" x="32.36" y="-61.5" font-family="Helvetica,sans-Serif" font-size="10.00">txarray.cpp</text>
</a>
</g>
</g>
<!-- Node3&#45;&gt;Node9 -->
<g id="edge8" class="edge">
<title>Node3&#45;&gt;Node9</title>
<path fill="none" stroke="midnightblue" d="M1199.09,-117.84C1020.53,-114.75 299.13,-100.86 74.36,-74 71.26,-73.63 68.05,-73.15 64.84,-72.61"/>
<polygon fill="midnightblue" stroke="midnightblue" points="1199.29,-121.34 1209.35,-118.01 1199.41,-114.34 1199.29,-121.34"/>
</g>
<!-- Node10 -->
<g id="node10" class="node">
<title>Node10</title>
<g id="a_node10"><a xlink:href="../../d1/daa/txaux_8cpp.html" target="_top" xlink:title=" ">
<polygon fill="none" stroke="black" points="514.96,-55.5 514.96,-73.5 573.76,-73.5 573.76,-55.5 514.96,-55.5"/>
<text text-anchor="middle" x="544.36" y="-61.5" font-family="Helvetica,sans-Serif" font-size="10.00">txaux.cpp</text>
</a>
</g>
</g>
<!-- Node3&#45;&gt;Node10 -->
<g id="edge9" class="edge">
<title>Node3&#45;&gt;Node10</title>
<path fill="none" stroke="midnightblue" d="M1199.14,-117.91C1096.07,-115.92 814.3,-107.6 582.36,-74 579.69,-73.61 576.92,-73.14 574.15,-72.61"/>
<polygon fill="midnightblue" stroke="midnightblue" points="1199.33,-121.41 1209.4,-118.09 1199.46,-114.41 1199.33,-121.41"/>
</g>
<!-- Node11 -->
<g id="node11" class="node">
<title>Node11</title>
<g id="a_node11"><a xlink:href="../../d1/ddd/txbib_8cpp.html" target="_top" xlink:title=" ">
<polygon fill="none" stroke="black" points="591.35,-55.5 591.35,-73.5 647.38,-73.5 647.38,-55.5 591.35,-55.5"/>
<text text-anchor="middle" x="619.36" y="-61.5" font-family="Helvetica,sans-Serif" font-size="10.00">txbib.cpp</text>
</a>
</g>
</g>
<!-- Node3&#45;&gt;Node11 -->
<g id="edge10" class="edge">
<title>Node3&#45;&gt;Node11</title>
<path fill="none" stroke="midnightblue" d="M1199.11,-117.5C1104.11,-114.69 858.77,-104.8 656.36,-74 653.5,-73.56 650.52,-73.03 647.56,-72.44"/>
<polygon fill="midnightblue" stroke="midnightblue" points="1199.05,-121 1209.15,-117.79 1199.25,-114 1199.05,-121"/>
</g>
<!-- Node12 -->
<g id="node12" class="node">
<title>Node12</title>
<g id="a_node12"><a xlink:href="../../d4/dee/txclasses_8cpp.html" target="_top" xlink:title=" ">
<polygon fill="none" stroke="black" points="665.35,-55.5 665.35,-73.5 741.38,-73.5 741.38,-55.5 665.35,-55.5"/>
<text text-anchor="middle" x="703.36" y="-61.5" font-family="Helvetica,sans-Serif" font-size="10.00">txclasses.cpp</text>
</a>
</g>
</g>
<!-- Node3&#45;&gt;Node12 -->
<g id="edge11" class="edge">
<title>Node3&#45;&gt;Node12</title>
<path fill="none" stroke="midnightblue" d="M1199.11,-116.04C1115.33,-110.66 916.23,-96.5 750.36,-74 747.49,-73.61 744.52,-73.17 741.54,-72.69"/>
<polygon fill="midnightblue" stroke="midnightblue" points="1199.01,-119.54 1209.21,-116.68 1199.45,-112.56 1199.01,-119.54"/>
</g>
<!-- Node13 -->
<g id="node13" class="node">
<title>Node13</title>
<g id="a_node13"><a xlink:href="../../df/d9e/txcommands_8cpp.html" target="_top" xlink:title=" ">
<polygon fill="none" stroke="black" points="759.57,-55.5 759.57,-73.5 851.16,-73.5 851.16,-55.5 759.57,-55.5"/>
<text text-anchor="middle" x="805.36" y="-61.5" font-family="Helvetica,sans-Serif" font-size="10.00">txcommands.cpp</text>
</a>
</g>
</g>
<!-- Node3&#45;&gt;Node13 -->
<g id="edge12" class="edge">
<title>Node3&#45;&gt;Node13</title>
<path fill="none" stroke="midnightblue" d="M1199.2,-114.32C1129.8,-106.99 982.98,-90.96 859.36,-74 856.73,-73.64 854.03,-73.25 851.3,-72.86"/>
<polygon fill="midnightblue" stroke="midnightblue" points="1198.95,-117.82 1209.26,-115.38 1199.68,-110.86 1198.95,-117.82"/>
</g>
<!-- Node14 -->
<g id="node14" class="node">
<title>Node14</title>
<g id="a_node14"><a xlink:href="../../df/d98/txconfig_8cpp.html" target="_top" xlink:title=" ">
<polygon fill="none" stroke="black" points="868.68,-55.5 868.68,-73.5 938.04,-73.5 938.04,-55.5 868.68,-55.5"/>
<text text-anchor="middle" x="903.36" y="-61.5" font-family="Helvetica,sans-Serif" font-size="10.00">txconfig.cpp</text>
</a>
</g>
</g>
<!-- Node3&#45;&gt;Node14 -->
<g id="edge13" class="edge">
<title>Node3&#45;&gt;Node14</title>
<path fill="none" stroke="midnightblue" d="M1199.09,-112.88C1142.69,-104.89 1037.03,-89.49 947.36,-74 944.45,-73.5 941.43,-72.96 938.4,-72.4"/>
<polygon fill="midnightblue" stroke="midnightblue" points="1198.64,-116.35 1209.03,-114.28 1199.62,-109.42 1198.64,-116.35"/>
</g>
<!-- Node15 -->
<g id="node15" class="node">
<title>Node15</title>
<g id="a_node15"><a xlink:href="../../d8/d02/txerr_8cpp.html" target="_top" xlink:title=" ">
<polygon fill="none" stroke="black" points="956.19,-55.5 956.19,-73.5 1010.54,-73.5 1010.54,-55.5 956.19,-55.5"/>
<text text-anchor="middle" x="983.36" y="-61.5" font-family="Helvetica,sans-Serif" font-size="10.00">txerr.cpp</text>
</a>
</g>
</g>
<!-- Node3&#45;&gt;Node15 -->
<g id="edge14" class="edge">
<title>Node3&#45;&gt;Node15</title>
<path fill="none" stroke="midnightblue" d="M1199,-110.74C1154.81,-102.15 1081.91,-87.71 1019.36,-74 1016.6,-73.4 1013.73,-72.75 1010.86,-72.09"/>
<polygon fill="midnightblue" stroke="midnightblue" points="1198.57,-114.22 1209.05,-112.69 1199.9,-107.35 1198.57,-114.22"/>
</g>
<!-- Node16 -->
<g id="node16" class="node">
<title>Node16</title>
<g id="a_node16"><a xlink:href="../../d6/dc0/txfonts_8cpp.html" target="_top" xlink:title=" ">
<polygon fill="none" stroke="black" points="1028.18,-55.5 1028.18,-73.5 1092.54,-73.5 1092.54,-55.5 1028.18,-55.5"/>
<text text-anchor="middle" x="1060.36" y="-61.5" font-family="Helvetica,sans-Serif" font-size="10.00">txfonts.cpp</text>
</a>
</g>
</g>
<!-- Node3&#45;&gt;Node16 -->
<g id="edge15" class="edge">
<title>Node3&#45;&gt;Node16</title>
<path fill="none" stroke="midnightblue" d="M1202.55,-107.6C1168.35,-97.47 1118.21,-82.63 1087.51,-73.54"/>
<polygon fill="midnightblue" stroke="midnightblue" points="1201.59,-110.97 1212.18,-110.45 1203.58,-104.26 1201.59,-110.97"/>
</g>
<!-- Node17 -->
<g id="node17" class="node">
<title>Node17</title>
<g id="a_node17"><a xlink:href="../../d7/d80/txfp_8cpp.html" target="_top" xlink:title=" ">
<polygon fill="none" stroke="black" points="1110.85,-55.5 1110.85,-73.5 1161.87,-73.5 1161.87,-55.5 1110.85,-55.5"/>
<text text-anchor="middle" x="1136.36" y="-61.5" font-family="Helvetica,sans-Serif" font-size="10.00">txfp.cpp</text>
</a>
</g>
</g>
<!-- Node3&#45;&gt;Node17 -->
<g id="edge16" class="edge">
<title>Node3&#45;&gt;Node17</title>
<path fill="none" stroke="midnightblue" d="M1214.57,-105.74C1195.16,-95.76 1168.77,-82.18 1152.15,-73.63"/>
<polygon fill="midnightblue" stroke="midnightblue" points="1213.23,-108.99 1223.72,-110.45 1216.43,-102.76 1213.23,-108.99"/>
</g>
<!-- Node18 -->
<g id="node18" class="node">
<title>Node18</title>
<g id="a_node18"><a xlink:href="../../d0/d1f/txio_8cpp.html" target="_top" xlink:title=" ">
<polygon fill="none" stroke="black" points="1180.13,-55.5 1180.13,-73.5 1230.59,-73.5 1230.59,-55.5 1180.13,-55.5"/>
<text text-anchor="middle" x="1205.36" y="-61.5" font-family="Helvetica,sans-Serif" font-size="10.00">txio.cpp</text>
</a>
</g>
</g>
<!-- Node3&#45;&gt;Node18 -->
<g id="edge17" class="edge">
<title>Node3&#45;&gt;Node18</title>
<path fill="none" stroke="midnightblue" d="M1228.56,-101.66C1222.53,-92.26 1215.29,-80.98 1210.53,-73.55"/>
<polygon fill="midnightblue" stroke="midnightblue" points="1225.7,-103.69 1234.05,-110.22 1231.6,-99.91 1225.7,-103.69"/>
</g>
<!-- Node19 -->
<g id="node19" class="node">
<title>Node19</title>
<g id="a_node19"><a xlink:href="../../d0/dc3/txl3_8cpp.html" target="_top" xlink:title=" ">
<polygon fill="none" stroke="black" points="1248.13,-55.5 1248.13,-73.5 1298.59,-73.5 1298.59,-55.5 1248.13,-55.5"/>
<text text-anchor="middle" x="1273.36" y="-61.5" font-family="Helvetica,sans-Serif" font-size="10.00">txl3.cpp</text>
</a>
</g>
</g>
<!-- Node3&#45;&gt;Node19 -->
<g id="edge18" class="edge">
<title>Node3&#45;&gt;Node19</title>
<path fill="none" stroke="midnightblue" d="M1250.17,-101.66C1256.2,-92.26 1263.43,-80.98 1268.2,-73.55"/>
<polygon fill="midnightblue" stroke="midnightblue" points="1247.13,-99.91 1244.68,-110.22 1253.02,-103.69 1247.13,-99.91"/>
</g>
<!-- Node20 -->
<g id="node20" class="node">
<title>Node20</title>
<g id="a_node20"><a xlink:href="../../d4/dd9/txmath_8cpp.html" target="_top" xlink:title=" ">
<polygon fill="none" stroke="black" points="1316.91,-55.5 1316.91,-73.5 1381.82,-73.5 1381.82,-55.5 1316.91,-55.5"/>
<text text-anchor="middle" x="1349.36" y="-61.5" font-family="Helvetica,sans-Serif" font-size="10.00">txmath.cpp</text>
</a>
</g>
</g>
<!-- Node3&#45;&gt;Node20 -->
<g id="edge19" class="edge">
<title>Node3&#45;&gt;Node20</title>
<path fill="none" stroke="midnightblue" d="M1265.28,-106.01C1286.05,-96.01 1314.59,-82.26 1332.5,-73.63"/>
<polygon fill="midnightblue" stroke="midnightblue" points="1263.56,-102.96 1256.07,-110.45 1266.6,-109.26 1263.56,-102.96"/>
</g>
<!-- Node21 -->
<g id="node21" class="node">
<title>Node21</title>
<g id="a_node21"><a xlink:href="../../dc/d78/txmath1_8cpp.html" target="_top" xlink:title=" ">
<polygon fill="none" stroke="black" points="1400.13,-55.5 1400.13,-73.5 1470.6,-73.5 1470.6,-55.5 1400.13,-55.5"/>
<text text-anchor="middle" x="1435.36" y="-61.5" font-family="Helvetica,sans-Serif" font-size="10.00">txmath1.cpp</text>
</a>
</g>
</g>
<!-- Node3&#45;&gt;Node21 -->
<g id="edge20" class="edge">
<title>Node3&#45;&gt;Node21</title>
<path fill="none" stroke="midnightblue" d="M1279.19,-107.73C1316.65,-97.6 1371.88,-82.67 1405.64,-73.54"/>
<polygon fill="midnightblue" stroke="midnightblue" points="1277.87,-104.46 1269.13,-110.45 1279.7,-111.22 1277.87,-104.46"/>
</g>
<!-- Node22 -->
<g id="node22" class="node">
<title>Node22</title>
<g id="a_node22"><a xlink:href="../../d9/d59/txmathboot_8cpp.html" target="_top" xlink:title=" ">
<polygon fill="none" stroke="black" points="1488.18,-55.5 1488.18,-73.5 1572.55,-73.5 1572.55,-55.5 1488.18,-55.5"/>
<text text-anchor="middle" x="1530.36" y="-61.5" font-family="Helvetica,sans-Serif" font-size="10.00">txmathboot.cpp</text>
</a>
</g>
</g>
<!-- Node3&#45;&gt;Node22 -->
<g id="edge21" class="edge">
<title>Node3&#45;&gt;Node22</title>
<path fill="none" stroke="midnightblue" d="M1279.62,-109.83C1331.65,-99.82 1431.07,-82.57 1488.05,-72.76"/>
<polygon fill="midnightblue" stroke="midnightblue" points="1278.72,-106.44 1269.57,-111.79 1280.06,-113.31 1278.72,-106.44"/>
</g>
<!-- Node23 -->
<g id="node23" class="node">
<title>Node23</title>
<g id="a_node23"><a xlink:href="../../de/de4/txmlio_8cpp.html" target="_top" xlink:title=" ">
<polygon fill="none" stroke="black" points="1590.86,-55.5 1590.86,-73.5 1651.87,-73.5 1651.87,-55.5 1590.86,-55.5"/>
<text text-anchor="middle" x="1621.36" y="-61.5" font-family="Helvetica,sans-Serif" font-size="10.00">txmlio.cpp</text>
</a>
</g>
</g>
<!-- Node3&#45;&gt;Node23 -->
<g id="edge22" class="edge">
<title>Node3&#45;&gt;Node23</title>
<path fill="none" stroke="midnightblue" d="M1279.79,-109.92C1413.89,-87.94 1450.83,-95.58 1581.36,-74 1584.44,-73.49 1587.65,-72.91 1590.84,-72.28"/>
<polygon fill="midnightblue" stroke="midnightblue" points="1278.83,-106.53 1269.54,-111.62 1279.98,-113.43 1278.83,-106.53"/>
</g>
<!-- Node24 -->
<g id="node24" class="node">
<title>Node24</title>
<g id="a_node24"><a xlink:href="../../df/da9/txparser_8cpp.html" target="_top" xlink:title=" ">
<polygon fill="none" stroke="black" points="1670.12,-55.5 1670.12,-73.5 1740.6,-73.5 1740.6,-55.5 1670.12,-55.5"/>
<text text-anchor="middle" x="1705.36" y="-61.5" font-family="Helvetica,sans-Serif" font-size="10.00">txparser.cpp</text>
</a>
</g>
</g>
<!-- Node3&#45;&gt;Node24 -->
<g id="edge23" class="edge">
<title>Node3&#45;&gt;Node24</title>
<path fill="none" stroke="midnightblue" d="M1279.54,-110.01C1449.06,-84.29 1495.34,-97.78 1661.36,-74 1664.14,-73.6 1667,-73.15 1669.87,-72.66"/>
<polygon fill="midnightblue" stroke="midnightblue" points="1278.88,-106.57 1269.53,-111.55 1279.95,-113.48 1278.88,-106.57"/>
</g>
<!-- Node25 -->
<g id="node25" class="node">
<title>Node25</title>
<g id="a_node25"><a xlink:href="../../da/d5e/txparser2_8h.html" target="_top" xlink:title=" ">
<polygon fill="none" stroke="black" points="1758.35,-55.5 1758.35,-73.5 1824.38,-73.5 1824.38,-55.5 1758.35,-55.5"/>
<text text-anchor="middle" x="1791.36" y="-61.5" font-family="Helvetica,sans-Serif" font-size="10.00">txparser2.h</text>
</a>
</g>
</g>
<!-- Node3&#45;&gt;Node25 -->
<g id="edge24" class="edge">
<title>Node3&#45;&gt;Node25</title>
<path fill="none" stroke="midnightblue" d="M1279.56,-110.04C1487.86,-80.29 1544.66,-102.43 1749.36,-74 1752.16,-73.61 1755.06,-73.15 1757.96,-72.65"/>
<polygon fill="midnightblue" stroke="midnightblue" points="1278.91,-106.6 1269.52,-111.5 1279.92,-113.52 1278.91,-106.6"/>
</g>
<!-- Node27 -->
<g id="node27" class="node">
<title>Node27</title>
<g id="a_node27"><a xlink:href="../../de/da4/txparser3_8cpp.html" target="_top" xlink:title=" ">
<polygon fill="none" stroke="black" points="1842.07,-55.5 1842.07,-73.5 1918.66,-73.5 1918.66,-55.5 1842.07,-55.5"/>
<text text-anchor="middle" x="1880.36" y="-61.5" font-family="Helvetica,sans-Serif" font-size="10.00">txparser3.cpp</text>
</a>
</g>
</g>
<!-- Node3&#45;&gt;Node27 -->
<g id="edge26" class="edge">
<title>Node3&#45;&gt;Node27</title>
<path fill="none" stroke="midnightblue" d="M1279.45,-110.08C1524.88,-76.32 1591.25,-103.65 1833.36,-74 1836.16,-73.66 1839.05,-73.26 1841.94,-72.82"/>
<polygon fill="midnightblue" stroke="midnightblue" points="1278.94,-106.61 1269.52,-111.46 1279.9,-113.55 1278.94,-106.61"/>
</g>
<!-- Node28 -->
<g id="node28" class="node">
<title>Node28</title>
<g id="a_node28"><a xlink:href="../../d6/d4a/txpost_8cpp.html" target="_top" xlink:title=" ">
<polygon fill="none" stroke="black" points="1936.57,-55.5 1936.57,-73.5 1998.15,-73.5 1998.15,-55.5 1936.57,-55.5"/>
<text text-anchor="middle" x="1967.36" y="-61.5" font-family="Helvetica,sans-Serif" font-size="10.00">txpost.cpp</text>
</a>
</g>
</g>
<!-- Node3&#45;&gt;Node28 -->
<g id="edge27" class="edge">
<title>Node3&#45;&gt;Node28</title>
<path fill="none" stroke="midnightblue" d="M1279.8,-110.05C1566.44,-72.07 1644.36,-111.69 1927.36,-74 1930.32,-73.61 1933.38,-73.11 1936.44,-72.56"/>
<polygon fill="midnightblue" stroke="midnightblue" points="1278.96,-106.63 1269.51,-111.43 1279.89,-113.57 1278.96,-106.63"/>
</g>
<!-- Node29 -->
<g id="node29" class="node">
<title>Node29</title>
<g id="a_node29"><a xlink:href="../../d3/dd3/txra_8cpp.html" target="_top" xlink:title=" ">
<polygon fill="none" stroke="black" points="2016.58,-55.5 2016.58,-73.5 2068.15,-73.5 2068.15,-55.5 2016.58,-55.5"/>
<text text-anchor="middle" x="2042.36" y="-61.5" font-family="Helvetica,sans-Serif" font-size="10.00">txra.cpp</text>
</a>
</g>
</g>
<!-- Node3&#45;&gt;Node29 -->
<g id="edge28" class="edge">
<title>Node3&#45;&gt;Node29</title>
<path fill="none" stroke="midnightblue" d="M1279.6,-110.09C1601.73,-68.39 1689.61,-120.01 2007.36,-74 2010.33,-73.57 2013.42,-73 2016.48,-72.36"/>
<polygon fill="midnightblue" stroke="midnightblue" points="1278.97,-106.64 1269.51,-111.41 1279.88,-113.58 1278.97,-106.64"/>
</g>
<!-- Node30 -->
<g id="node30" class="node">
<title>Node30</title>
<g id="a_node30"><a xlink:href="../../df/d8f/txscan_8cpp.html" target="_top" xlink:title=" ">
<polygon fill="none" stroke="black" points="2086.46,-55.5 2086.46,-73.5 2150.26,-73.5 2150.26,-55.5 2086.46,-55.5"/>
<text text-anchor="middle" x="2118.36" y="-61.5" font-family="Helvetica,sans-Serif" font-size="10.00">txscan.cpp</text>
</a>
</g>
</g>
<!-- Node3&#45;&gt;Node30 -->
<g id="edge29" class="edge">
<title>Node3&#45;&gt;Node30</title>
<path fill="none" stroke="midnightblue" d="M1279.5,-110.11C1632.61,-64.98 1727.92,-117.81 2077.36,-74 2080.25,-73.64 2083.23,-73.18 2086.21,-72.67"/>
<polygon fill="midnightblue" stroke="midnightblue" points="1278.98,-106.65 1269.51,-111.4 1279.87,-113.59 1278.98,-106.65"/>
</g>
<!-- Node31 -->
<g id="node31" class="node">
<title>Node31</title>
<g id="a_node31"><a xlink:href="../../d5/dbc/txstack_8cpp.html" target="_top" xlink:title=" ">
<polygon fill="none" stroke="black" points="2168.35,-55.5 2168.35,-73.5 2234.37,-73.5 2234.37,-55.5 2168.35,-55.5"/>
<text text-anchor="middle" x="2201.36" y="-61.5" font-family="Helvetica,sans-Serif" font-size="10.00">txstack.cpp</text>
</a>
</g>
</g>
<!-- Node3&#45;&gt;Node31 -->
<g id="edge30" class="edge">
<title>Node3&#45;&gt;Node31</title>
<path fill="none" stroke="midnightblue" d="M1279.63,-110.1C1668.84,-61.12 1773.64,-120.61 2159.36,-74 2162.17,-73.66 2165.07,-73.24 2167.97,-72.76"/>
<polygon fill="midnightblue" stroke="midnightblue" points="1278.98,-106.65 1269.51,-111.39 1279.87,-113.6 1278.98,-106.65"/>
</g>
<!-- Node32 -->
<g id="node32" class="node">
<title>Node32</title>
<g id="a_node32"><a xlink:href="../../d1/dc8/txtitlepage_8cpp.html" target="_top" xlink:title=" ">
<polygon fill="none" stroke="black" points="2252.12,-55.5 2252.12,-73.5 2332.61,-73.5 2332.61,-55.5 2252.12,-55.5"/>
<text text-anchor="middle" x="2292.36" y="-61.5" font-family="Helvetica,sans-Serif" font-size="10.00">txtitlepage.cpp</text>
</a>
</g>
</g>
<!-- Node3&#45;&gt;Node32 -->
<g id="edge31" class="edge">
<title>Node3&#45;&gt;Node32</title>
<path fill="none" stroke="midnightblue" d="M1279.63,-110.1C1705.93,-57.06 1819.85,-118.43 2243.36,-74 2246.2,-73.7 2249.11,-73.34 2252.05,-72.94"/>
<polygon fill="midnightblue" stroke="midnightblue" points="1278.99,-106.66 1269.5,-111.38 1279.86,-113.6 1278.99,-106.66"/>
</g>
<!-- Node33 -->
<g id="node33" class="node">
<title>Node33</title>
<g id="a_node33"><a xlink:href="../../d7/d6c/txtoken_8cpp.html" target="_top" xlink:title=" ">
<polygon fill="none" stroke="black" points="2350.79,-55.5 2350.79,-73.5 2417.93,-73.5 2417.93,-55.5 2350.79,-55.5"/>
<text text-anchor="middle" x="2384.36" y="-61.5" font-family="Helvetica,sans-Serif" font-size="10.00">txtoken.cpp</text>
</a>
</g>
</g>
<!-- Node3&#45;&gt;Node33 -->
<g id="edge32" class="edge">
<title>Node3&#45;&gt;Node33</title>
<path fill="none" stroke="midnightblue" d="M1279.6,-110.11C1749.21,-52.51 1875.07,-127.63 2341.36,-74 2344.39,-73.65 2347.52,-73.21 2350.64,-72.7"/>
<polygon fill="midnightblue" stroke="midnightblue" points="1279,-106.66 1269.5,-111.37 1279.86,-113.61 1279,-106.66"/>
</g>
<!-- Node34 -->
<g id="node34" class="node">
<title>Node34</title>
<g id="a_node34"><a xlink:href="../../dd/da4/txtranslate_8cpp.html" target="_top" xlink:title=" ">
<polygon fill="none" stroke="black" points="2435.85,-55.5 2435.85,-73.5 2516.88,-73.5 2516.88,-55.5 2435.85,-55.5"/>
<text text-anchor="middle" x="2476.36" y="-61.5" font-family="Helvetica,sans-Serif" font-size="10.00">txtranslate.cpp</text>
</a>
</g>
</g>
<!-- Node3&#45;&gt;Node34 -->
<g id="edge33" class="edge">
<title>Node3&#45;&gt;Node34</title>
<path fill="none" stroke="midnightblue" d="M1279.66,-110.11C1787.2,-48.37 1922.43,-125.45 2427.36,-74 2430.11,-73.72 2432.94,-73.38 2435.78,-72.99"/>
<polygon fill="midnightblue" stroke="midnightblue" points="1279,-106.67 1269.5,-111.36 1279.85,-113.61 1279,-106.67"/>
</g>
<!-- Node35 -->
<g id="node35" class="node">
<title>Node35</title>
<g id="a_node35"><a xlink:href="../../d0/d93/txtrees_8cpp.html" target="_top" xlink:title=" ">
<polygon fill="none" stroke="black" points="2534.91,-55.5 2534.91,-73.5 2599.82,-73.5 2599.82,-55.5 2534.91,-55.5"/>
<text text-anchor="middle" x="2567.36" y="-61.5" font-family="Helvetica,sans-Serif" font-size="10.00">txtrees.cpp</text>
</a>
</g>
</g>
<!-- Node3&#45;&gt;Node35 -->
<g id="edge34" class="edge">
<title>Node3&#45;&gt;Node35</title>
<path fill="none" stroke="midnightblue" d="M1279.7,-110.11C1830.95,-43.79 1978.6,-138.18 2526.36,-74 2529.11,-73.68 2531.94,-73.27 2534.77,-72.79"/>
<polygon fill="midnightblue" stroke="midnightblue" points="1279.01,-106.67 1269.5,-111.35 1279.85,-113.62 1279.01,-106.67"/>
</g>
<!-- Node26 -->
<g id="node26" class="node">
<title>Node26</title>
<g id="a_node26"><a xlink:href="../../d0/d24/txparser2_8cpp.html" target="_top" xlink:title=" ">
<polygon fill="none" stroke="black" points="1753.07,-0.5 1753.07,-18.5 1829.66,-18.5 1829.66,-0.5 1753.07,-0.5"/>
<text text-anchor="middle" x="1791.36" y="-6.5" font-family="Helvetica,sans-Serif" font-size="10.00">txparser2.cpp</text>
</a>
</g>
</g>
<!-- Node25&#45;&gt;Node26 -->
<g id="edge25" class="edge">
<title>Node25&#45;&gt;Node26</title>
<path fill="none" stroke="midnightblue" d="M1791.36,-45.17C1791.36,-36.09 1791.36,-25.59 1791.36,-18.55"/>
<polygon fill="midnightblue" stroke="midnightblue" points="1787.86,-45.22 1791.36,-55.22 1794.86,-45.22 1787.86,-45.22"/>
</g>
<!-- Node36&#45;&gt;Node9 -->
<g id="edge36" class="edge">
<title>Node36&#45;&gt;Node9</title>
<path fill="none" stroke="midnightblue" d="M578.2,-116.95C490.26,-112.96 262.65,-100.7 74.36,-74 71.27,-73.56 68.06,-73.04 64.86,-72.47"/>
<polygon fill="midnightblue" stroke="midnightblue" points="578.07,-120.45 588.22,-117.4 578.38,-113.46 578.07,-120.45"/>
</g>
</g>
</svg>
