<?xml version="1.0" encoding="UTF-8" standalone="no"?>
<!DOCTYPE svg PUBLIC "-//W3C//DTD SVG 1.1//EN"
 "http://www.w3.org/Graphics/SVG/1.1/DTD/svg11.dtd">
<!-- Generated by graphviz version 2.43.0 (0)
 -->
<!-- Title: txfonts.h Pages: 1 -->
<svg width="2484pt" height="247pt"
 viewBox="0.00 0.00 2483.85 247.00" xmlns="http://www.w3.org/2000/svg" xmlns:xlink="http://www.w3.org/1999/xlink">
<g id="graph0" class="graph" transform="scale(1 1) rotate(0) translate(4 243)">
<title>txfonts.h</title>
<polygon fill="white" stroke="transparent" points="-4,4 -4,-243 2479.85,-243 2479.85,4 -4,4"/>
<!-- Node1 -->
<g id="node1" class="node">
<title>Node1</title>
<g id="a_node1"><a xlink:title=" ">
<polygon fill="#bfbfbf" stroke="black" points="595.95,-220.5 595.95,-238.5 649.74,-238.5 649.74,-220.5 595.95,-220.5"/>
<text text-anchor="middle" x="622.84" y="-226.5" font-family="Helvetica,sans-Serif" font-size="10.00">txfonts.h</text>
</a>
</g>
</g>
<!-- Node2 -->
<g id="node2" class="node">
<title>Node2</title>
<g id="a_node2"><a xlink:href="../../d2/d06/txlogger_8h.html" target="_top" xlink:title=" ">
<polygon fill="white" stroke="black" points="593.16,-165.5 593.16,-183.5 652.53,-183.5 652.53,-165.5 593.16,-165.5"/>
<text text-anchor="middle" x="622.84" y="-171.5" font-family="Helvetica,sans-Serif" font-size="10.00">txlogger.h</text>
</a>
</g>
</g>
<!-- Node1&#45;&gt;Node2 -->
<g id="edge1" class="edge">
<title>Node1&#45;&gt;Node2</title>
<path fill="none" stroke="midnightblue" d="M622.84,-210.17C622.84,-201.09 622.84,-190.59 622.84,-183.55"/>
<polygon fill="midnightblue" stroke="midnightblue" points="619.34,-210.22 622.84,-220.22 626.34,-210.22 619.34,-210.22"/>
</g>
<!-- Node3 -->
<g id="node3" class="node">
<title>Node3</title>
<g id="a_node3"><a xlink:href="../../d7/d79/txinline_8h.html" target="_top" xlink:title=" ">
<polygon fill="white" stroke="black" points="1158.11,-110.5 1158.11,-128.5 1213.58,-128.5 1213.58,-110.5 1158.11,-110.5"/>
<text text-anchor="middle" x="1185.84" y="-116.5" font-family="Helvetica,sans-Serif" font-size="10.00">txinline.h</text>
</a>
</g>
</g>
<!-- Node2&#45;&gt;Node3 -->
<g id="edge2" class="edge">
<title>Node2&#45;&gt;Node3</title>
<path fill="none" stroke="midnightblue" d="M662.86,-169.73C770.81,-159.57 1066.01,-131.78 1158.06,-123.12"/>
<polygon fill="midnightblue" stroke="midnightblue" points="662.34,-166.27 652.72,-170.69 663,-173.24 662.34,-166.27"/>
</g>
<!-- Node4 -->
<g id="node4" class="node">
<title>Node4</title>
<g id="a_node4"><a xlink:href="../../d2/dbb/globals_8_c.html" target="_top" xlink:title=" ">
<polygon fill="white" stroke="black" points="0,-55.5 0,-73.5 57.69,-73.5 57.69,-55.5 0,-55.5"/>
<text text-anchor="middle" x="28.84" y="-61.5" font-family="Helvetica,sans-Serif" font-size="10.00">globals.C</text>
</a>
</g>
</g>
<!-- Node2&#45;&gt;Node4 -->
<g id="edge37" class="edge">
<title>Node2&#45;&gt;Node4</title>
<path fill="none" stroke="midnightblue" d="M583.23,-167.11C491.8,-152.21 259.08,-113.43 65.84,-74 63.26,-73.47 60.58,-72.9 57.9,-72.32"/>
<polygon fill="midnightblue" stroke="midnightblue" points="582.73,-170.57 593.16,-168.72 583.85,-163.66 582.73,-170.57"/>
</g>
<!-- Node3&#45;&gt;Node4 -->
<g id="edge3" class="edge">
<title>Node3&#45;&gt;Node4</title>
<path fill="none" stroke="midnightblue" d="M1147.73,-117.94C977.02,-115.28 281.83,-102.84 65.84,-74 63.23,-73.65 60.53,-73.2 57.84,-72.7"/>
<polygon fill="midnightblue" stroke="midnightblue" points="1147.92,-121.44 1157.97,-118.1 1148.03,-114.44 1147.92,-121.44"/>
</g>
<!-- Node5 -->
<g id="node5" class="node">
<title>Node5</title>
<g id="a_node5"><a xlink:href="../../d4/dbc/_istring_8_c.html" target="_top" xlink:title=" ">
<polygon fill="white" stroke="black" points="75.23,-55.5 75.23,-73.5 128.46,-73.5 128.46,-55.5 75.23,-55.5"/>
<text text-anchor="middle" x="101.84" y="-61.5" font-family="Helvetica,sans-Serif" font-size="10.00">Istring.C</text>
</a>
</g>
</g>
<!-- Node3&#45;&gt;Node5 -->
<g id="edge4" class="edge">
<title>Node3&#45;&gt;Node5</title>
<path fill="none" stroke="midnightblue" d="M1147.8,-117.85C984.1,-114.91 338.86,-101.74 137.84,-74 134.79,-73.58 131.62,-73.02 128.48,-72.38"/>
<polygon fill="midnightblue" stroke="midnightblue" points="1147.82,-121.35 1157.88,-118.03 1147.94,-114.35 1147.82,-121.35"/>
</g>
<!-- Node6 -->
<g id="node6" class="node">
<title>Node6</title>
<g id="a_node6"><a xlink:href="../../de/dae/_main_class_8_c.html" target="_top" xlink:title=" ">
<polygon fill="white" stroke="black" points="146.5,-55.5 146.5,-73.5 219.18,-73.5 219.18,-55.5 146.5,-55.5"/>
<text text-anchor="middle" x="182.84" y="-61.5" font-family="Helvetica,sans-Serif" font-size="10.00">MainClass.C</text>
</a>
</g>
</g>
<!-- Node3&#45;&gt;Node6 -->
<g id="edge5" class="edge">
<title>Node3&#45;&gt;Node6</title>
<path fill="none" stroke="midnightblue" d="M1147.72,-118.64C1018.25,-118.73 583.72,-115.67 227.84,-74 225.16,-73.69 222.39,-73.3 219.62,-72.88"/>
<polygon fill="midnightblue" stroke="midnightblue" points="1147.91,-122.14 1157.91,-118.63 1147.9,-115.14 1147.91,-122.14"/>
</g>
<!-- Node7 -->
<g id="node7" class="node">
<title>Node7</title>
<g id="a_node7"><a xlink:href="../../dc/d29/tralics_8_c.html" target="_top" xlink:title=" ">
<polygon fill="white" stroke="black" points="236.79,-55.5 236.79,-73.5 288.9,-73.5 288.9,-55.5 236.79,-55.5"/>
<text text-anchor="middle" x="262.84" y="-61.5" font-family="Helvetica,sans-Serif" font-size="10.00">tralics.C</text>
</a>
</g>
</g>
<!-- Node3&#45;&gt;Node7 -->
<g id="edge6" class="edge">
<title>Node3&#45;&gt;Node7</title>
<path fill="none" stroke="midnightblue" d="M1147.57,-117.54C999.7,-113.69 465.69,-98.37 297.84,-74 295,-73.59 292.04,-73.05 289.11,-72.44"/>
<polygon fill="midnightblue" stroke="midnightblue" points="1147.85,-121.05 1157.93,-117.81 1148.03,-114.05 1147.85,-121.05"/>
</g>
<!-- Node8 -->
<g id="node8" class="node">
<title>Node8</title>
<g id="a_node8"><a xlink:href="../../d5/d10/txaccent_8_c.html" target="_top" xlink:title=" ">
<polygon fill="white" stroke="black" points="307.22,-55.5 307.22,-73.5 370.47,-73.5 370.47,-55.5 307.22,-55.5"/>
<text text-anchor="middle" x="338.84" y="-61.5" font-family="Helvetica,sans-Serif" font-size="10.00">txaccent.C</text>
</a>
</g>
</g>
<!-- Node3&#45;&gt;Node8 -->
<g id="edge7" class="edge">
<title>Node3&#45;&gt;Node8</title>
<path fill="none" stroke="midnightblue" d="M1147.73,-118.41C1031.83,-117.71 673.62,-112.34 379.84,-74 376.82,-73.6 373.68,-73.11 370.55,-72.56"/>
<polygon fill="midnightblue" stroke="midnightblue" points="1147.85,-121.91 1157.86,-118.46 1147.88,-114.91 1147.85,-121.91"/>
</g>
<!-- Node9 -->
<g id="node9" class="node">
<title>Node9</title>
<g id="a_node9"><a xlink:href="../../df/de6/txarray_8_c.html" target="_top" xlink:title=" ">
<polygon fill="white" stroke="black" points="388.93,-55.5 388.93,-73.5 444.76,-73.5 444.76,-55.5 388.93,-55.5"/>
<text text-anchor="middle" x="416.84" y="-61.5" font-family="Helvetica,sans-Serif" font-size="10.00">txarray.C</text>
</a>
</g>
</g>
<!-- Node3&#45;&gt;Node9 -->
<g id="edge8" class="edge">
<title>Node3&#45;&gt;Node9</title>
<path fill="none" stroke="midnightblue" d="M1147.96,-118.4C1039.31,-117.63 717.57,-112.04 453.84,-74 450.97,-73.59 448,-73.06 445.04,-72.48"/>
<polygon fill="midnightblue" stroke="midnightblue" points="1148.07,-121.9 1158.09,-118.46 1148.11,-114.9 1148.07,-121.9"/>
</g>
<!-- Node10 -->
<g id="node10" class="node">
<title>Node10</title>
<g id="a_node10"><a xlink:href="../../db/df0/txatt_8_c.html" target="_top" xlink:title=" ">
<polygon fill="white" stroke="black" points="462.4,-55.5 462.4,-73.5 507.29,-73.5 507.29,-55.5 462.4,-55.5"/>
<text text-anchor="middle" x="484.84" y="-61.5" font-family="Helvetica,sans-Serif" font-size="10.00">txatt.C</text>
</a>
</g>
</g>
<!-- Node3&#45;&gt;Node10 -->
<g id="edge9" class="edge">
<title>Node3&#45;&gt;Node10</title>
<path fill="none" stroke="midnightblue" d="M1147.65,-118.64C1044.79,-118.44 753.72,-114.09 515.84,-74 513.09,-73.54 510.23,-72.93 507.41,-72.25"/>
<polygon fill="midnightblue" stroke="midnightblue" points="1147.85,-122.14 1157.85,-118.65 1147.85,-115.14 1147.85,-122.14"/>
</g>
<!-- Node11 -->
<g id="node11" class="node">
<title>Node11</title>
<g id="a_node11"><a xlink:href="../../dd/dce/txaux_8_c.html" target="_top" xlink:title=" ">
<polygon fill="white" stroke="black" points="524.89,-55.5 524.89,-73.5 574.8,-73.5 574.8,-55.5 524.89,-55.5"/>
<text text-anchor="middle" x="549.84" y="-61.5" font-family="Helvetica,sans-Serif" font-size="10.00">txaux.C</text>
</a>
</g>
</g>
<!-- Node3&#45;&gt;Node11 -->
<g id="edge10" class="edge">
<title>Node3&#45;&gt;Node11</title>
<path fill="none" stroke="midnightblue" d="M1148.02,-117.95C1052.73,-116.07 795.28,-107.99 583.84,-74 580.96,-73.54 577.96,-72.95 575,-72.3"/>
<polygon fill="midnightblue" stroke="midnightblue" points="1147.98,-121.45 1158.05,-118.13 1148.11,-114.45 1147.98,-121.45"/>
</g>
<!-- Node12 -->
<g id="node12" class="node">
<title>Node12</title>
<g id="a_node12"><a xlink:href="../../d6/dcb/txbib_8h.html" target="_top" xlink:title=" ">
<polygon fill="white" stroke="black" points="593.11,-55.5 593.11,-73.5 638.58,-73.5 638.58,-55.5 593.11,-55.5"/>
<text text-anchor="middle" x="615.84" y="-61.5" font-family="Helvetica,sans-Serif" font-size="10.00">txbib.h</text>
</a>
</g>
</g>
<!-- Node3&#45;&gt;Node12 -->
<g id="edge11" class="edge">
<title>Node3&#45;&gt;Node12</title>
<path fill="none" stroke="midnightblue" d="M1147.82,-117.66C1059.44,-115.22 833.55,-106.08 647.84,-74 644.9,-73.49 641.83,-72.84 638.81,-72.12"/>
<polygon fill="midnightblue" stroke="midnightblue" points="1147.82,-121.17 1157.91,-117.93 1148,-114.17 1147.82,-121.17"/>
</g>
<!-- Node14 -->
<g id="node14" class="node">
<title>Node14</title>
<g id="a_node14"><a xlink:href="../../d4/df2/txbuffer_8_c.html" target="_top" xlink:title=" ">
<polygon fill="white" stroke="black" points="656.53,-55.5 656.53,-73.5 715.16,-73.5 715.16,-55.5 656.53,-55.5"/>
<text text-anchor="middle" x="685.84" y="-61.5" font-family="Helvetica,sans-Serif" font-size="10.00">txbuffer.C</text>
</a>
</g>
</g>
<!-- Node3&#45;&gt;Node14 -->
<g id="edge13" class="edge">
<title>Node3&#45;&gt;Node14</title>
<path fill="none" stroke="midnightblue" d="M1147.63,-116.43C1068.29,-111.77 880.03,-98.89 723.84,-74 721.04,-73.55 718.13,-73.02 715.23,-72.45"/>
<polygon fill="midnightblue" stroke="midnightblue" points="1147.91,-119.95 1158.09,-117.03 1148.31,-112.96 1147.91,-119.95"/>
</g>
<!-- Node15 -->
<g id="node15" class="node">
<title>Node15</title>
<g id="a_node15"><a xlink:href="../../de/ddd/txclasses_8_c.html" target="_top" xlink:title=" ">
<polygon fill="white" stroke="black" points="733.28,-55.5 733.28,-73.5 800.41,-73.5 800.41,-55.5 733.28,-55.5"/>
<text text-anchor="middle" x="766.84" y="-61.5" font-family="Helvetica,sans-Serif" font-size="10.00">txclasses.C</text>
</a>
</g>
</g>
<!-- Node3&#45;&gt;Node15 -->
<g id="edge14" class="edge">
<title>Node3&#45;&gt;Node15</title>
<path fill="none" stroke="midnightblue" d="M1147.68,-114.97C1079.59,-108.45 932.8,-93.4 809.84,-74 806.84,-73.53 803.72,-72.99 800.6,-72.43"/>
<polygon fill="midnightblue" stroke="midnightblue" points="1147.63,-118.48 1157.91,-115.94 1148.29,-111.51 1147.63,-118.48"/>
</g>
<!-- Node16 -->
<g id="node16" class="node">
<title>Node16</title>
<g id="a_node16"><a xlink:href="../../d4/d1e/txcommands_8_c.html" target="_top" xlink:title=" ">
<polygon fill="white" stroke="black" points="818.5,-55.5 818.5,-73.5 901.19,-73.5 901.19,-55.5 818.5,-55.5"/>
<text text-anchor="middle" x="859.84" y="-61.5" font-family="Helvetica,sans-Serif" font-size="10.00">txcommands.C</text>
</a>
</g>
</g>
<!-- Node3&#45;&gt;Node16 -->
<g id="edge15" class="edge">
<title>Node3&#45;&gt;Node16</title>
<path fill="none" stroke="midnightblue" d="M1147.74,-112.39C1094.65,-103.87 995.41,-87.89 910.84,-74 907.74,-73.49 904.54,-72.96 901.31,-72.43"/>
<polygon fill="midnightblue" stroke="midnightblue" points="1147.3,-115.87 1157.73,-114 1148.41,-108.96 1147.3,-115.87"/>
</g>
<!-- Node17 -->
<g id="node17" class="node">
<title>Node17</title>
<g id="a_node17"><a xlink:href="../../d9/d64/txconfig_8_c.html" target="_top" xlink:title=" ">
<polygon fill="white" stroke="black" points="919.61,-55.5 919.61,-73.5 980.08,-73.5 980.08,-55.5 919.61,-55.5"/>
<text text-anchor="middle" x="949.84" y="-61.5" font-family="Helvetica,sans-Serif" font-size="10.00">txconfig.C</text>
</a>
</g>
</g>
<!-- Node3&#45;&gt;Node17 -->
<g id="edge16" class="edge">
<title>Node3&#45;&gt;Node17</title>
<path fill="none" stroke="midnightblue" d="M1147.85,-109.97C1101.28,-99.51 1023.3,-82 980.42,-72.37"/>
<polygon fill="midnightblue" stroke="midnightblue" points="1147.32,-113.44 1157.85,-112.21 1148.86,-106.61 1147.32,-113.44"/>
</g>
<!-- Node18 -->
<g id="node18" class="node">
<title>Node18</title>
<g id="a_node18"><a xlink:href="../../d1/d79/txerr_8_c.html" target="_top" xlink:title=" ">
<polygon fill="white" stroke="black" points="998.12,-55.5 998.12,-73.5 1043.57,-73.5 1043.57,-55.5 998.12,-55.5"/>
<text text-anchor="middle" x="1020.84" y="-61.5" font-family="Helvetica,sans-Serif" font-size="10.00">txerr.C</text>
</a>
</g>
</g>
<!-- Node3&#45;&gt;Node18 -->
<g id="edge17" class="edge">
<title>Node3&#45;&gt;Node18</title>
<path fill="none" stroke="midnightblue" d="M1150.86,-107.26C1118.55,-96.88 1071.5,-81.77 1043.74,-72.86"/>
<polygon fill="midnightblue" stroke="midnightblue" points="1150.19,-110.72 1160.78,-110.45 1152.33,-104.06 1150.19,-110.72"/>
</g>
<!-- Node19 -->
<g id="node19" class="node">
<title>Node19</title>
<g id="a_node19"><a xlink:href="../../d7/d0d/txfonts_8_c.html" target="_top" xlink:title=" ">
<polygon fill="white" stroke="black" points="1061.12,-55.5 1061.12,-73.5 1116.57,-73.5 1116.57,-55.5 1061.12,-55.5"/>
<text text-anchor="middle" x="1088.84" y="-61.5" font-family="Helvetica,sans-Serif" font-size="10.00">txfonts.C</text>
</a>
</g>
</g>
<!-- Node3&#45;&gt;Node19 -->
<g id="edge18" class="edge">
<title>Node3&#45;&gt;Node19</title>
<path fill="none" stroke="midnightblue" d="M1162.24,-105.6C1143.99,-95.63 1119.3,-82.14 1103.72,-73.63"/>
<polygon fill="midnightblue" stroke="midnightblue" points="1160.66,-108.73 1171.11,-110.45 1164.02,-102.58 1160.66,-108.73"/>
</g>
<!-- Node20 -->
<g id="node20" class="node">
<title>Node20</title>
<g id="a_node20"><a xlink:href="../../d1/dcd/txfp_8_c.html" target="_top" xlink:title=" ">
<polygon fill="white" stroke="black" points="1134.79,-55.5 1134.79,-73.5 1176.9,-73.5 1176.9,-55.5 1134.79,-55.5"/>
<text text-anchor="middle" x="1155.84" y="-61.5" font-family="Helvetica,sans-Serif" font-size="10.00">txfp.C</text>
</a>
</g>
</g>
<!-- Node3&#45;&gt;Node20 -->
<g id="edge19" class="edge">
<title>Node3&#45;&gt;Node20</title>
<path fill="none" stroke="midnightblue" d="M1176.14,-101.36C1170.86,-92.02 1164.56,-80.9 1160.4,-73.55"/>
<polygon fill="midnightblue" stroke="midnightblue" points="1173.19,-103.24 1181.16,-110.22 1179.28,-99.79 1173.19,-103.24"/>
</g>
<!-- Node21 -->
<g id="node21" class="node">
<title>Node21</title>
<g id="a_node21"><a xlink:href="../../d8/dc2/txio_8_c.html" target="_top" xlink:title=" ">
<polygon fill="white" stroke="black" points="1195.06,-55.5 1195.06,-73.5 1236.63,-73.5 1236.63,-55.5 1195.06,-55.5"/>
<text text-anchor="middle" x="1215.84" y="-61.5" font-family="Helvetica,sans-Serif" font-size="10.00">txio.C</text>
</a>
</g>
</g>
<!-- Node3&#45;&gt;Node21 -->
<g id="edge20" class="edge">
<title>Node3&#45;&gt;Node21</title>
<path fill="none" stroke="midnightblue" d="M1195.54,-101.36C1200.83,-92.02 1207.13,-80.9 1211.29,-73.55"/>
<polygon fill="midnightblue" stroke="midnightblue" points="1192.41,-99.79 1190.53,-110.22 1198.5,-103.24 1192.41,-99.79"/>
</g>
<!-- Node22 -->
<g id="node22" class="node">
<title>Node22</title>
<g id="a_node22"><a xlink:href="../../dc/dcd/txl3_8_c.html" target="_top" xlink:title=" ">
<polygon fill="white" stroke="black" points="1255.06,-55.5 1255.06,-73.5 1296.63,-73.5 1296.63,-55.5 1255.06,-55.5"/>
<text text-anchor="middle" x="1275.84" y="-61.5" font-family="Helvetica,sans-Serif" font-size="10.00">txl3.C</text>
</a>
</g>
</g>
<!-- Node3&#45;&gt;Node22 -->
<g id="edge21" class="edge">
<title>Node3&#45;&gt;Node22</title>
<path fill="none" stroke="midnightblue" d="M1208.21,-105.33C1225.1,-95.39 1247.72,-82.06 1262.05,-73.63"/>
<polygon fill="midnightblue" stroke="midnightblue" points="1206.35,-102.36 1199.51,-110.45 1209.91,-108.39 1206.35,-102.36"/>
</g>
<!-- Node23 -->
<g id="node23" class="node">
<title>Node23</title>
<g id="a_node23"><a xlink:href="../../db/d96/txmath_8_c.html" target="_top" xlink:title=" ">
<polygon fill="white" stroke="black" points="1314.84,-55.5 1314.84,-73.5 1370.85,-73.5 1370.85,-55.5 1314.84,-55.5"/>
<text text-anchor="middle" x="1342.84" y="-61.5" font-family="Helvetica,sans-Serif" font-size="10.00">txmath.C</text>
</a>
</g>
</g>
<!-- Node3&#45;&gt;Node23 -->
<g id="edge22" class="edge">
<title>Node3&#45;&gt;Node23</title>
<path fill="none" stroke="midnightblue" d="M1219.3,-107.21C1249.26,-97.09 1292.46,-82.51 1319.03,-73.54"/>
<polygon fill="midnightblue" stroke="midnightblue" points="1218.04,-103.94 1209.69,-110.45 1220.28,-110.57 1218.04,-103.94"/>
</g>
<!-- Node24 -->
<g id="node24" class="node">
<title>Node24</title>
<g id="a_node24"><a xlink:href="../../d8/dc6/txmath1_8_c.html" target="_top" xlink:title=" ">
<polygon fill="white" stroke="black" points="1389.06,-55.5 1389.06,-73.5 1450.63,-73.5 1450.63,-55.5 1389.06,-55.5"/>
<text text-anchor="middle" x="1419.84" y="-61.5" font-family="Helvetica,sans-Serif" font-size="10.00">txmath1.C</text>
</a>
</g>
</g>
<!-- Node3&#45;&gt;Node24 -->
<g id="edge23" class="edge">
<title>Node3&#45;&gt;Node24</title>
<path fill="none" stroke="midnightblue" d="M1223.46,-109.98C1269.35,-99.59 1346.08,-82.21 1388.78,-72.54"/>
<polygon fill="midnightblue" stroke="midnightblue" points="1222.59,-106.59 1213.61,-112.21 1224.13,-113.42 1222.59,-106.59"/>
</g>
<!-- Node25 -->
<g id="node25" class="node">
<title>Node25</title>
<g id="a_node25"><a xlink:href="../../d7/dd3/txmathboot_8_c.html" target="_top" xlink:title=" ">
<polygon fill="white" stroke="black" points="1469.11,-55.5 1469.11,-73.5 1544.58,-73.5 1544.58,-55.5 1469.11,-55.5"/>
<text text-anchor="middle" x="1506.84" y="-61.5" font-family="Helvetica,sans-Serif" font-size="10.00">txmathboot.C</text>
</a>
</g>
</g>
<!-- Node3&#45;&gt;Node25 -->
<g id="edge24" class="edge">
<title>Node3&#45;&gt;Node25</title>
<path fill="none" stroke="midnightblue" d="M1223.83,-112.55C1276.76,-104.21 1375.68,-88.44 1459.84,-74 1462.79,-73.5 1465.83,-72.96 1468.89,-72.42"/>
<polygon fill="midnightblue" stroke="midnightblue" points="1223.21,-109.11 1213.88,-114.12 1224.3,-116.02 1223.21,-109.11"/>
</g>
<!-- Node26 -->
<g id="node26" class="node">
<title>Node26</title>
<g id="a_node26"><a xlink:href="../../dd/d48/txmlio_8_c.html" target="_top" xlink:title=" ">
<polygon fill="white" stroke="black" points="1562.79,-55.5 1562.79,-73.5 1614.9,-73.5 1614.9,-55.5 1562.79,-55.5"/>
<text text-anchor="middle" x="1588.84" y="-61.5" font-family="Helvetica,sans-Serif" font-size="10.00">txmlio.C</text>
</a>
</g>
</g>
<!-- Node3&#45;&gt;Node26 -->
<g id="edge25" class="edge">
<title>Node3&#45;&gt;Node26</title>
<path fill="none" stroke="midnightblue" d="M1223.79,-115.4C1290.78,-109.59 1434.23,-95.68 1553.84,-74 1556.68,-73.49 1559.62,-72.88 1562.54,-72.24"/>
<polygon fill="midnightblue" stroke="midnightblue" points="1223.38,-111.92 1213.71,-116.26 1223.97,-118.9 1223.38,-111.92"/>
</g>
<!-- Node27 -->
<g id="node27" class="node">
<title>Node27</title>
<g id="a_node27"><a xlink:href="../../d7/dc3/txparser_8_c.html" target="_top" xlink:title=" ">
<polygon fill="white" stroke="black" points="1633.06,-55.5 1633.06,-73.5 1694.63,-73.5 1694.63,-55.5 1633.06,-55.5"/>
<text text-anchor="middle" x="1663.84" y="-61.5" font-family="Helvetica,sans-Serif" font-size="10.00">txparser.C</text>
</a>
</g>
</g>
<!-- Node3&#45;&gt;Node27 -->
<g id="edge26" class="edge">
<title>Node3&#45;&gt;Node27</title>
<path fill="none" stroke="midnightblue" d="M1223.71,-116.04C1299.83,-110.78 1476.72,-97.04 1623.84,-74 1626.79,-73.54 1629.85,-73 1632.9,-72.42"/>
<polygon fill="midnightblue" stroke="midnightblue" points="1223.39,-112.55 1213.65,-116.72 1223.87,-119.54 1223.39,-112.55"/>
</g>
<!-- Node28 -->
<g id="node28" class="node">
<title>Node28</title>
<g id="a_node28"><a xlink:href="../../d5/d2e/txparser2_8_c.html" target="_top" xlink:title=" ">
<polygon fill="white" stroke="black" points="1713,-55.5 1713,-73.5 1780.69,-73.5 1780.69,-55.5 1713,-55.5"/>
<text text-anchor="middle" x="1746.84" y="-61.5" font-family="Helvetica,sans-Serif" font-size="10.00">txparser2.C</text>
</a>
</g>
</g>
<!-- Node3&#45;&gt;Node28 -->
<g id="edge27" class="edge">
<title>Node3&#45;&gt;Node28</title>
<path fill="none" stroke="midnightblue" d="M1223.82,-116.66C1309.67,-112.2 1525.18,-99.26 1703.84,-74 1706.71,-73.6 1709.67,-73.12 1712.63,-72.61"/>
<polygon fill="midnightblue" stroke="midnightblue" points="1223.57,-113.17 1213.76,-117.18 1223.93,-120.16 1223.57,-113.17"/>
</g>
<!-- Node29 -->
<g id="node29" class="node">
<title>Node29</title>
<g id="a_node29"><a xlink:href="../../d4/d5c/txparser3_8_c.html" target="_top" xlink:title=" ">
<polygon fill="white" stroke="black" points="1799,-55.5 1799,-73.5 1866.69,-73.5 1866.69,-55.5 1799,-55.5"/>
<text text-anchor="middle" x="1832.84" y="-61.5" font-family="Helvetica,sans-Serif" font-size="10.00">txparser3.C</text>
</a>
</g>
</g>
<!-- Node3&#45;&gt;Node29 -->
<g id="edge28" class="edge">
<title>Node3&#45;&gt;Node29</title>
<path fill="none" stroke="midnightblue" d="M1223.7,-117.31C1319.09,-113.97 1576.93,-102.78 1789.84,-74 1792.71,-73.61 1795.67,-73.15 1798.64,-72.65"/>
<polygon fill="midnightblue" stroke="midnightblue" points="1223.54,-113.81 1213.66,-117.65 1223.78,-120.81 1223.54,-113.81"/>
</g>
<!-- Node30 -->
<g id="node30" class="node">
<title>Node30</title>
<g id="a_node30"><a xlink:href="../../db/d66/txpost_8_c.html" target="_top" xlink:title=" ">
<polygon fill="white" stroke="black" points="1884.5,-55.5 1884.5,-73.5 1937.18,-73.5 1937.18,-55.5 1884.5,-55.5"/>
<text text-anchor="middle" x="1910.84" y="-61.5" font-family="Helvetica,sans-Serif" font-size="10.00">txpost.C</text>
</a>
</g>
</g>
<!-- Node3&#45;&gt;Node30 -->
<g id="edge29" class="edge">
<title>Node3&#45;&gt;Node30</title>
<path fill="none" stroke="midnightblue" d="M1223.7,-118.36C1328.18,-117.48 1629.18,-111.61 1875.84,-74 1878.56,-73.59 1881.38,-73.06 1884.19,-72.48"/>
<polygon fill="midnightblue" stroke="midnightblue" points="1223.61,-114.86 1213.64,-118.44 1223.66,-121.86 1223.61,-114.86"/>
</g>
<!-- Node31 -->
<g id="node31" class="node">
<title>Node31</title>
<g id="a_node31"><a xlink:href="../../dc/d4c/txra_8_c.html" target="_top" xlink:title=" ">
<polygon fill="white" stroke="black" points="1955.51,-55.5 1955.51,-73.5 1998.18,-73.5 1998.18,-55.5 1955.51,-55.5"/>
<text text-anchor="middle" x="1976.84" y="-61.5" font-family="Helvetica,sans-Serif" font-size="10.00">txra.C</text>
</a>
</g>
</g>
<!-- Node3&#45;&gt;Node31 -->
<g id="edge30" class="edge">
<title>Node3&#45;&gt;Node31</title>
<path fill="none" stroke="midnightblue" d="M1223.76,-119.07C1335.31,-120.14 1671.68,-119.1 1945.84,-74 1948.93,-73.49 1952.15,-72.8 1955.29,-72.03"/>
<polygon fill="midnightblue" stroke="midnightblue" points="1223.72,-115.57 1213.68,-118.96 1223.64,-122.57 1223.72,-115.57"/>
</g>
<!-- Node32 -->
<g id="node32" class="node">
<title>Node32</title>
<g id="a_node32"><a xlink:href="../../d2/dee/txscan_8_c.html" target="_top" xlink:title=" ">
<polygon fill="white" stroke="black" points="2016.39,-55.5 2016.39,-73.5 2071.3,-73.5 2071.3,-55.5 2016.39,-55.5"/>
<text text-anchor="middle" x="2043.84" y="-61.5" font-family="Helvetica,sans-Serif" font-size="10.00">txscan.C</text>
</a>
</g>
</g>
<!-- Node3&#45;&gt;Node32 -->
<g id="edge31" class="edge">
<title>Node3&#45;&gt;Node32</title>
<path fill="none" stroke="midnightblue" d="M1223.9,-118.75C1341.2,-119.03 1707.35,-116.2 2006.84,-74 2009.85,-73.58 2012.96,-73.03 2016.06,-72.42"/>
<polygon fill="midnightblue" stroke="midnightblue" points="1223.66,-115.25 1213.65,-118.72 1223.64,-122.25 1223.66,-115.25"/>
</g>
<!-- Node33 -->
<g id="node33" class="node">
<title>Node33</title>
<g id="a_node33"><a xlink:href="../../d3/df2/txstack_8_c.html" target="_top" xlink:title=" ">
<polygon fill="white" stroke="black" points="2089.29,-55.5 2089.29,-73.5 2146.4,-73.5 2146.4,-55.5 2089.29,-55.5"/>
<text text-anchor="middle" x="2117.84" y="-61.5" font-family="Helvetica,sans-Serif" font-size="10.00">txstack.C</text>
</a>
</g>
</g>
<!-- Node3&#45;&gt;Node33 -->
<g id="edge32" class="edge">
<title>Node3&#45;&gt;Node33</title>
<path fill="none" stroke="midnightblue" d="M1223.93,-118.91C1347.86,-119.77 1750.66,-118.68 2079.84,-74 2082.79,-73.6 2085.85,-73.09 2088.89,-72.51"/>
<polygon fill="midnightblue" stroke="midnightblue" points="1223.84,-115.41 1213.81,-118.84 1223.78,-122.41 1223.84,-115.41"/>
</g>
<!-- Node34 -->
<g id="node34" class="node">
<title>Node34</title>
<g id="a_node34"><a xlink:href="../../da/d89/txtitlepage_8_c.html" target="_top" xlink:title=" ">
<polygon fill="white" stroke="black" points="2164.05,-55.5 2164.05,-73.5 2235.64,-73.5 2235.64,-55.5 2164.05,-55.5"/>
<text text-anchor="middle" x="2199.84" y="-61.5" font-family="Helvetica,sans-Serif" font-size="10.00">txtitlepage.C</text>
</a>
</g>
</g>
<!-- Node3&#45;&gt;Node34 -->
<g id="edge33" class="edge">
<title>Node3&#45;&gt;Node34</title>
<path fill="none" stroke="midnightblue" d="M1224.01,-118.73C1354.57,-119.1 1795.19,-116.88 2155.84,-74 2158.47,-73.69 2161.18,-73.31 2163.89,-72.89"/>
<polygon fill="midnightblue" stroke="midnightblue" points="1223.76,-115.23 1213.74,-118.7 1223.73,-122.23 1223.76,-115.23"/>
</g>
<!-- Node35 -->
<g id="node35" class="node">
<title>Node35</title>
<g id="a_node35"><a xlink:href="../../d9/d1e/txtoken_8_c.html" target="_top" xlink:title=" ">
<polygon fill="white" stroke="black" points="2253.72,-55.5 2253.72,-73.5 2311.97,-73.5 2311.97,-55.5 2253.72,-55.5"/>
<text text-anchor="middle" x="2282.84" y="-61.5" font-family="Helvetica,sans-Serif" font-size="10.00">txtoken.C</text>
</a>
</g>
</g>
<!-- Node3&#45;&gt;Node35 -->
<g id="edge34" class="edge">
<title>Node3&#45;&gt;Node35</title>
<path fill="none" stroke="midnightblue" d="M1223.73,-117.81C1388.23,-114.69 2041.33,-100.82 2244.84,-74 2247.66,-73.63 2250.57,-73.15 2253.48,-72.61"/>
<polygon fill="midnightblue" stroke="midnightblue" points="1223.55,-114.32 1213.62,-118 1223.68,-121.31 1223.55,-114.32"/>
</g>
<!-- Node36 -->
<g id="node36" class="node">
<title>Node36</title>
<g id="a_node36"><a xlink:href="../../d5/dda/txtranslate_8_c.html" target="_top" xlink:title=" ">
<polygon fill="white" stroke="black" points="2329.78,-55.5 2329.78,-73.5 2401.91,-73.5 2401.91,-55.5 2329.78,-55.5"/>
<text text-anchor="middle" x="2365.84" y="-61.5" font-family="Helvetica,sans-Serif" font-size="10.00">txtranslate.C</text>
</a>
</g>
</g>
<!-- Node3&#45;&gt;Node36 -->
<g id="edge35" class="edge">
<title>Node3&#45;&gt;Node36</title>
<path fill="none" stroke="midnightblue" d="M1223.91,-117.76C1395.86,-114.32 2101.21,-98.91 2320.84,-74 2323.69,-73.68 2326.62,-73.28 2329.57,-72.83"/>
<polygon fill="midnightblue" stroke="midnightblue" points="1223.75,-114.27 1213.82,-117.96 1223.89,-121.26 1223.75,-114.27"/>
</g>
<!-- Node37 -->
<g id="node37" class="node">
<title>Node37</title>
<g id="a_node37"><a xlink:href="../../da/d9e/txtrees_8_c.html" target="_top" xlink:title=" ">
<polygon fill="white" stroke="black" points="2419.84,-55.5 2419.84,-73.5 2475.85,-73.5 2475.85,-55.5 2419.84,-55.5"/>
<text text-anchor="middle" x="2447.84" y="-61.5" font-family="Helvetica,sans-Serif" font-size="10.00">txtrees.C</text>
</a>
</g>
</g>
<!-- Node3&#45;&gt;Node37 -->
<g id="edge36" class="edge">
<title>Node3&#45;&gt;Node37</title>
<path fill="none" stroke="midnightblue" d="M1223.72,-118.09C1403.61,-116 2172.95,-105.36 2410.84,-74 2413.72,-73.62 2416.7,-73.12 2419.66,-72.55"/>
<polygon fill="midnightblue" stroke="midnightblue" points="1223.64,-114.59 1213.68,-118.21 1223.72,-121.59 1223.64,-114.59"/>
</g>
<!-- Node13 -->
<g id="node13" class="node">
<title>Node13</title>
<g id="a_node13"><a xlink:href="../../d1/d56/txbib_8_c.html" target="_top" xlink:title=" ">
<polygon fill="white" stroke="black" points="592.28,-0.5 592.28,-18.5 639.41,-18.5 639.41,-0.5 592.28,-0.5"/>
<text text-anchor="middle" x="615.84" y="-6.5" font-family="Helvetica,sans-Serif" font-size="10.00">txbib.C</text>
</a>
</g>
</g>
<!-- Node12&#45;&gt;Node13 -->
<g id="edge12" class="edge">
<title>Node12&#45;&gt;Node13</title>
<path fill="none" stroke="midnightblue" d="M615.84,-45.17C615.84,-36.09 615.84,-25.59 615.84,-18.55"/>
<polygon fill="midnightblue" stroke="midnightblue" points="612.34,-45.22 615.84,-55.22 619.34,-45.22 612.34,-45.22"/>
</g>
</g>
</svg>
