<?xml version="1.0" encoding="UTF-8" standalone="no"?>
<!DOCTYPE svg PUBLIC "-//W3C//DTD SVG 1.1//EN"
 "http://www.w3.org/Graphics/SVG/1.1/DTD/svg11.dtd">
<!-- Generated by graphviz version 2.42.3 (20191010.1750)
 -->
<!-- Title: txl3.cpp Pages: 1 -->
<svg width="756pt" height="742pt"
 viewBox="0.00 0.00 755.68 742.00" xmlns="http://www.w3.org/2000/svg" xmlns:xlink="http://www.w3.org/1999/xlink">
<g id="graph0" class="graph" transform="scale(1 1) rotate(0) translate(4 738)">
<title>txl3.cpp</title>
<!-- Node1 -->
<g id="node1" class="node">
<title>Node1</title>
<g id="a_node1"><a xlink:title=" ">
<polygon fill="#bfbfbf" stroke="black" points="406.45,-715.5 406.45,-733.5 456.92,-733.5 456.92,-715.5 406.45,-715.5"/>
<text text-anchor="middle" x="431.68" y="-721.5" font-family="Helvetica,sans-Serif" font-size="10.00">txl3.cpp</text>
</a>
</g>
</g>
<!-- Node2 -->
<g id="node2" class="node">
<title>Node2</title>
<g id="a_node2"><a xlink:href="../../d7/d79/txinline_8h.html" target="_top" xlink:title=" ">
<polygon fill="none" stroke="black" points="147.95,-660.5 147.95,-678.5 203.42,-678.5 203.42,-660.5 147.95,-660.5"/>
<text text-anchor="middle" x="175.68" y="-666.5" font-family="Helvetica,sans-Serif" font-size="10.00">txinline.h</text>
</a>
</g>
</g>
<!-- Node1&#45;&gt;Node2 -->
<g id="edge1" class="edge">
<title>Node1&#45;&gt;Node2</title>
<path fill="none" stroke="midnightblue" d="M406.2,-718.22C361.03,-708.87 266.69,-689.34 213.78,-678.39"/>
<polygon fill="midnightblue" stroke="midnightblue" points="214.27,-674.91 203.77,-676.31 212.85,-681.77 214.27,-674.91"/>
</g>
<!-- Node31 -->
<g id="node31" class="node">
<title>Node31</title>
<g id="a_node31"><a xlink:href="../../d2/d1b/txparser_8h.html" target="_top" xlink:title=" ">
<polygon fill="none" stroke="black" points="401.73,-660.5 401.73,-678.5 461.64,-678.5 461.64,-660.5 401.73,-660.5"/>
<text text-anchor="middle" x="431.68" y="-666.5" font-family="Helvetica,sans-Serif" font-size="10.00">txparser.h</text>
</a>
</g>
</g>
<!-- Node1&#45;&gt;Node31 -->
<g id="edge36" class="edge">
<title>Node1&#45;&gt;Node31</title>
<path fill="none" stroke="midnightblue" d="M431.68,-715.22C431.68,-708.18 431.68,-697.81 431.68,-688.83"/>
<polygon fill="midnightblue" stroke="midnightblue" points="435.18,-688.55 431.68,-678.55 428.18,-688.55 435.18,-688.55"/>
</g>
<!-- Node42 -->
<g id="node42" class="node">
<title>Node42</title>
<g id="a_node42"><a xlink:title=" ">
<polygon fill="none" stroke="#bfbfbf" points="480.01,-660.5 480.01,-678.5 549.36,-678.5 549.36,-660.5 480.01,-660.5"/>
<text text-anchor="middle" x="514.68" y="-666.5" font-family="Helvetica,sans-Serif" font-size="10.00">fmt/format.h</text>
</a>
</g>
</g>
<!-- Node1&#45;&gt;Node42 -->
<g id="edge61" class="edge">
<title>Node1&#45;&gt;Node42</title>
<path fill="none" stroke="midnightblue" d="M444.29,-715.45C457.33,-707.12 477.93,-693.97 493.48,-684.04"/>
<polygon fill="midnightblue" stroke="midnightblue" points="495.42,-686.96 501.96,-678.63 491.65,-681.06 495.42,-686.96"/>
</g>
<!-- Node3 -->
<g id="node3" class="node">
<title>Node3</title>
<g id="a_node3"><a xlink:href="../../d4/de9/_main_class_8h.html" target="_top" xlink:title=" ">
<polygon fill="none" stroke="black" points="193.73,-605.5 193.73,-623.5 293.64,-623.5 293.64,-605.5 193.73,-605.5"/>
<text text-anchor="middle" x="243.68" y="-611.5" font-family="Helvetica,sans-Serif" font-size="10.00">tralics/MainClass.h</text>
</a>
</g>
</g>
<!-- Node2&#45;&gt;Node3 -->
<g id="edge2" class="edge">
<title>Node2&#45;&gt;Node3</title>
<path fill="none" stroke="midnightblue" d="M186.01,-660.45C196.4,-652.36 212.63,-639.7 225.23,-629.88"/>
<polygon fill="midnightblue" stroke="midnightblue" points="227.52,-632.53 233.26,-623.63 223.22,-627.01 227.52,-632.53"/>
</g>
<!-- Node28 -->
<g id="node28" class="node">
<title>Node28</title>
<g id="a_node28"><a xlink:href="../../d2/d06/txlogger_8h.html" target="_top" xlink:title=" ">
<polygon fill="none" stroke="black" points="0,-605.5 0,-623.5 59.37,-623.5 59.37,-605.5 0,-605.5"/>
<text text-anchor="middle" x="29.68" y="-611.5" font-family="Helvetica,sans-Serif" font-size="10.00">txlogger.h</text>
</a>
</g>
</g>
<!-- Node2&#45;&gt;Node28 -->
<g id="edge31" class="edge">
<title>Node2&#45;&gt;Node28</title>
<path fill="none" stroke="midnightblue" d="M153.51,-660.45C129.07,-651.58 89.54,-637.23 61.73,-627.13"/>
<polygon fill="midnightblue" stroke="midnightblue" points="62.66,-623.75 52.07,-623.63 60.27,-630.33 62.66,-623.75"/>
</g>
<!-- Node30 -->
<g id="node30" class="node">
<title>Node30</title>
<g id="a_node30"><a xlink:href="../../d5/d08/txparam_8h.html" target="_top" xlink:title=" ">
<polygon fill="none" stroke="black" points="77.45,-605.5 77.45,-623.5 137.92,-623.5 137.92,-605.5 77.45,-605.5"/>
<text text-anchor="middle" x="107.68" y="-611.5" font-family="Helvetica,sans-Serif" font-size="10.00">txparam.h</text>
</a>
</g>
</g>
<!-- Node2&#45;&gt;Node30 -->
<g id="edge34" class="edge">
<title>Node2&#45;&gt;Node30</title>
<path fill="none" stroke="midnightblue" d="M165.36,-660.45C154.97,-652.36 138.74,-639.7 126.14,-629.88"/>
<polygon fill="midnightblue" stroke="midnightblue" points="128.15,-627.01 118.11,-623.63 123.85,-632.53 128.15,-627.01"/>
</g>
<!-- Node4 -->
<g id="node4" class="node">
<title>Node4</title>
<g id="a_node4"><a xlink:href="../../de/d29/txio_8h.html" target="_top" xlink:title=" ">
<polygon fill="none" stroke="black" points="141.57,-550.5 141.57,-568.5 189.8,-568.5 189.8,-550.5 141.57,-550.5"/>
<text text-anchor="middle" x="165.68" y="-556.5" font-family="Helvetica,sans-Serif" font-size="10.00">../txio.h</text>
</a>
</g>
</g>
<!-- Node3&#45;&gt;Node4 -->
<g id="edge3" class="edge">
<title>Node3&#45;&gt;Node4</title>
<path fill="none" stroke="midnightblue" d="M231.84,-605.45C219.7,-597.2 200.59,-584.22 186.02,-574.32"/>
<polygon fill="midnightblue" stroke="midnightblue" points="187.88,-571.35 177.64,-568.63 183.95,-577.14 187.88,-571.35"/>
</g>
<!-- Node27 -->
<g id="node27" class="node">
<title>Node27</title>
<g id="a_node27"><a xlink:href="../../dc/def/txstring_8h.html" target="_top" xlink:title=" ">
<polygon fill="none" stroke="black" points="427.23,-495.5 427.23,-513.5 492.14,-513.5 492.14,-495.5 427.23,-495.5"/>
<text text-anchor="middle" x="459.68" y="-501.5" font-family="Helvetica,sans-Serif" font-size="10.00">../txstring.h</text>
</a>
</g>
</g>
<!-- Node3&#45;&gt;Node27 -->
<g id="edge29" class="edge">
<title>Node3&#45;&gt;Node27</title>
<path fill="none" stroke="midnightblue" d="M258.19,-605.39C280.46,-593.04 324.5,-568.93 362.68,-550 385.83,-538.53 412.54,-526.35 432.07,-517.64"/>
<polygon fill="midnightblue" stroke="midnightblue" points="433.58,-520.8 441.29,-513.54 430.73,-514.4 433.58,-520.8"/>
</g>
<!-- Node5 -->
<g id="node5" class="node">
<title>Node5</title>
<g id="a_node5"><a xlink:href="../../dd/d74/txbuffer_8h.html" target="_top" xlink:title=" ">
<polygon fill="none" stroke="black" points="412.2,-440.5 412.2,-458.5 469.17,-458.5 469.17,-440.5 412.2,-440.5"/>
<text text-anchor="middle" x="440.68" y="-446.5" font-family="Helvetica,sans-Serif" font-size="10.00">txbuffer.h</text>
</a>
</g>
</g>
<!-- Node4&#45;&gt;Node5 -->
<g id="edge4" class="edge">
<title>Node4&#45;&gt;Node5</title>
<path fill="none" stroke="midnightblue" d="M189.94,-556.29C227.63,-552.12 301.83,-540.96 358.68,-514 384.22,-501.89 409.26,-480.77 424.82,-466.23"/>
<polygon fill="midnightblue" stroke="midnightblue" points="427.64,-468.38 432.43,-458.93 422.79,-463.32 427.64,-468.38"/>
</g>
<!-- Node26 -->
<g id="node26" class="node">
<title>Node26</title>
<g id="a_node26"><a xlink:title=" ">
<polygon fill="none" stroke="#bfbfbf" points="73.01,-495.5 73.01,-513.5 122.35,-513.5 122.35,-495.5 73.01,-495.5"/>
<text text-anchor="middle" x="97.68" y="-501.5" font-family="Helvetica,sans-Serif" font-size="10.00">fstream</text>
</a>
</g>
</g>
<!-- Node4&#45;&gt;Node26 -->
<g id="edge28" class="edge">
<title>Node4&#45;&gt;Node26</title>
<path fill="none" stroke="midnightblue" d="M155.36,-550.45C144.97,-542.36 128.74,-529.7 116.14,-519.88"/>
<polygon fill="midnightblue" stroke="midnightblue" points="118.15,-517.01 108.11,-513.63 113.85,-522.53 118.15,-517.01"/>
</g>
<!-- Node6 -->
<g id="node6" class="node">
<title>Node6</title>
<g id="a_node6"><a xlink:href="../../d1/d9e/txid_8h.html" target="_top" xlink:title=" ">
<polygon fill="none" stroke="black" points="454.73,-330.5 454.73,-348.5 494.64,-348.5 494.64,-330.5 454.73,-330.5"/>
<text text-anchor="middle" x="474.68" y="-336.5" font-family="Helvetica,sans-Serif" font-size="10.00">txid.h</text>
</a>
</g>
</g>
<!-- Node5&#45;&gt;Node6 -->
<g id="edge5" class="edge">
<title>Node5&#45;&gt;Node6</title>
<path fill="none" stroke="midnightblue" d="M439.07,-440.41C436.97,-428.08 434.25,-404.01 440.68,-385 444.34,-374.2 451.78,-363.96 458.77,-356.03"/>
<polygon fill="midnightblue" stroke="midnightblue" points="461.39,-358.35 465.72,-348.67 456.3,-353.54 461.39,-358.35"/>
</g>
<!-- Node16 -->
<g id="node16" class="node">
<title>Node16</title>
<g id="a_node16"><a xlink:href="../../d9/d18/txscaled_8h.html" target="_top" xlink:title=" ">
<polygon fill="none" stroke="black" points="332.17,-385.5 332.17,-403.5 393.2,-403.5 393.2,-385.5 332.17,-385.5"/>
<text text-anchor="middle" x="362.68" y="-391.5" font-family="Helvetica,sans-Serif" font-size="10.00">txscaled.h</text>
</a>
</g>
</g>
<!-- Node5&#45;&gt;Node16 -->
<g id="edge15" class="edge">
<title>Node5&#45;&gt;Node16</title>
<path fill="none" stroke="midnightblue" d="M428.84,-440.45C416.7,-432.2 397.59,-419.22 383.02,-409.32"/>
<polygon fill="midnightblue" stroke="midnightblue" points="384.88,-406.35 374.64,-403.63 380.95,-412.14 384.88,-406.35"/>
</g>
<!-- Node24 -->
<g id="node24" class="node">
<title>Node24</title>
<g id="a_node24"><a xlink:title=" ">
<polygon fill="none" stroke="#bfbfbf" points="449.96,-385.5 449.96,-403.5 495.41,-403.5 495.41,-385.5 449.96,-385.5"/>
<text text-anchor="middle" x="472.68" y="-391.5" font-family="Helvetica,sans-Serif" font-size="10.00">cstring</text>
</a>
</g>
</g>
<!-- Node5&#45;&gt;Node24 -->
<g id="edge26" class="edge">
<title>Node5&#45;&gt;Node24</title>
<path fill="none" stroke="midnightblue" d="M445.68,-440.22C450.17,-432.79 456.9,-421.65 462.51,-412.34"/>
<polygon fill="midnightblue" stroke="midnightblue" points="465.65,-413.92 467.82,-403.55 459.66,-410.3 465.65,-413.92"/>
</g>
<!-- Node25 -->
<g id="node25" class="node">
<title>Node25</title>
<g id="a_node25"><a xlink:title=" ">
<polygon fill="none" stroke="#bfbfbf" points="559.07,-385.5 559.07,-403.5 602.3,-403.5 602.3,-385.5 559.07,-385.5"/>
<text text-anchor="middle" x="580.68" y="-391.5" font-family="Helvetica,sans-Serif" font-size="10.00">vector</text>
</a>
</g>
</g>
<!-- Node5&#45;&gt;Node25 -->
<g id="edge27" class="edge">
<title>Node5&#45;&gt;Node25</title>
<path fill="none" stroke="midnightblue" d="M461.95,-440.45C485.28,-431.62 522.96,-417.35 549.6,-407.27"/>
<polygon fill="midnightblue" stroke="midnightblue" points="551.11,-410.44 559.22,-403.63 548.63,-403.89 551.11,-410.44"/>
</g>
<!-- Node7 -->
<g id="node7" class="node">
<title>Node7</title>
<g id="a_node7"><a xlink:href="../../d5/daf/_istring_8h.html" target="_top" xlink:title=" ">
<polygon fill="none" stroke="black" points="444.45,-275.5 444.45,-293.5 524.92,-293.5 524.92,-275.5 444.45,-275.5"/>
<text text-anchor="middle" x="484.68" y="-281.5" font-family="Helvetica,sans-Serif" font-size="10.00">tralics/Istring.h</text>
</a>
</g>
</g>
<!-- Node6&#45;&gt;Node7 -->
<g id="edge6" class="edge">
<title>Node6&#45;&gt;Node7</title>
<path fill="none" stroke="midnightblue" d="M476.25,-330.22C477.59,-323.1 479.58,-312.58 481.28,-303.53"/>
<polygon fill="midnightblue" stroke="midnightblue" points="484.75,-304.03 483.17,-293.55 477.87,-302.73 484.75,-304.03"/>
</g>
<!-- Node8 -->
<g id="node8" class="node">
<title>Node8</title>
<g id="a_node8"><a xlink:href="../../d0/d0b/enums_8h.html" target="_top" xlink:title=" ">
<polygon fill="none" stroke="black" points="513.51,-165.5 513.51,-183.5 567.86,-183.5 567.86,-165.5 513.51,-165.5"/>
<text text-anchor="middle" x="540.68" y="-171.5" font-family="Helvetica,sans-Serif" font-size="10.00">enums.h</text>
</a>
</g>
</g>
<!-- Node7&#45;&gt;Node8 -->
<g id="edge7" class="edge">
<title>Node7&#45;&gt;Node8</title>
<path fill="none" stroke="midnightblue" d="M493.19,-275.4C501.53,-267.01 514.09,-253.17 521.68,-239 529.34,-224.72 534.32,-206.95 537.25,-193.84"/>
<polygon fill="midnightblue" stroke="midnightblue" points="540.75,-194.22 539.32,-183.72 533.89,-192.82 540.75,-194.22"/>
</g>
<!-- Node14 -->
<g id="node14" class="node">
<title>Node14</title>
<g id="a_node14"><a xlink:title=" ">
<polygon fill="none" stroke="#bfbfbf" points="474.29,-220.5 474.29,-238.5 513.08,-238.5 513.08,-220.5 474.29,-220.5"/>
<text text-anchor="middle" x="493.68" y="-226.5" font-family="Helvetica,sans-Serif" font-size="10.00">array</text>
</a>
</g>
</g>
<!-- Node7&#45;&gt;Node14 -->
<g id="edge13" class="edge">
<title>Node7&#45;&gt;Node14</title>
<path fill="none" stroke="midnightblue" d="M486.09,-275.22C487.3,-268.1 489.09,-257.58 490.62,-248.53"/>
<polygon fill="midnightblue" stroke="midnightblue" points="494.09,-248.99 492.32,-238.55 487.19,-247.82 494.09,-248.99"/>
</g>
<!-- Node15 -->
<g id="node15" class="node">
<title>Node15</title>
<g id="a_node15"><a xlink:title=" ">
<polygon fill="none" stroke="#bfbfbf" points="579.46,-220.5 579.46,-238.5 619.91,-238.5 619.91,-220.5 579.46,-220.5"/>
<text text-anchor="middle" x="599.68" y="-226.5" font-family="Helvetica,sans-Serif" font-size="10.00">string</text>
</a>
</g>
</g>
<!-- Node7&#45;&gt;Node15 -->
<g id="edge14" class="edge">
<title>Node7&#45;&gt;Node15</title>
<path fill="none" stroke="midnightblue" d="M502.15,-275.45C520.89,-266.81 550.91,-252.98 572.69,-242.94"/>
<polygon fill="midnightblue" stroke="midnightblue" points="574.44,-245.99 582.05,-238.63 571.51,-239.63 574.44,-245.99"/>
</g>
<!-- Node9 -->
<g id="node9" class="node">
<title>Node9</title>
<g id="a_node9"><a xlink:href="../../d8/db5/consts_8h.html" target="_top" xlink:title=" ">
<polygon fill="none" stroke="black" points="508.06,-110.5 508.06,-128.5 561.31,-128.5 561.31,-110.5 508.06,-110.5"/>
<text text-anchor="middle" x="534.68" y="-116.5" font-family="Helvetica,sans-Serif" font-size="10.00">consts.h</text>
</a>
</g>
</g>
<!-- Node8&#45;&gt;Node9 -->
<g id="edge8" class="edge">
<title>Node8&#45;&gt;Node9</title>
<path fill="none" stroke="midnightblue" d="M539.75,-165.22C538.94,-158.1 537.75,-147.58 536.73,-138.53"/>
<polygon fill="midnightblue" stroke="midnightblue" points="540.2,-138.09 535.6,-128.55 533.24,-138.88 540.2,-138.09"/>
</g>
<!-- Node10 -->
<g id="node10" class="node">
<title>Node10</title>
<g id="a_node10"><a xlink:href="../../d9/d49/types_8h.html" target="_top" xlink:title=" ">
<polygon fill="none" stroke="black" points="476.56,-55.5 476.56,-73.5 524.81,-73.5 524.81,-55.5 476.56,-55.5"/>
<text text-anchor="middle" x="500.68" y="-61.5" font-family="Helvetica,sans-Serif" font-size="10.00">types.h</text>
</a>
</g>
</g>
<!-- Node9&#45;&gt;Node10 -->
<g id="edge9" class="edge">
<title>Node9&#45;&gt;Node10</title>
<path fill="none" stroke="midnightblue" d="M529.37,-110.22C524.55,-102.71 517.31,-91.41 511.3,-82.05"/>
<polygon fill="midnightblue" stroke="midnightblue" points="514.19,-80.08 505.85,-73.55 508.3,-83.86 514.19,-80.08"/>
</g>
<!-- Node11 -->
<g id="node11" class="node">
<title>Node11</title>
<g id="a_node11"><a xlink:title=" ">
<polygon fill="none" stroke="#bfbfbf" points="410.57,-0.5 410.57,-18.5 458.8,-18.5 458.8,-0.5 410.57,-0.5"/>
<text text-anchor="middle" x="434.68" y="-6.5" font-family="Helvetica,sans-Serif" font-size="10.00">cassert</text>
</a>
</g>
</g>
<!-- Node10&#45;&gt;Node11 -->
<g id="edge10" class="edge">
<title>Node10&#45;&gt;Node11</title>
<path fill="none" stroke="midnightblue" d="M490.66,-55.45C480.68,-47.43 465.13,-34.95 452.95,-25.17"/>
<polygon fill="midnightblue" stroke="midnightblue" points="454.79,-22.16 444.8,-18.63 450.41,-27.62 454.79,-22.16"/>
</g>
<!-- Node12 -->
<g id="node12" class="node">
<title>Node12</title>
<g id="a_node12"><a xlink:title=" ">
<polygon fill="none" stroke="#bfbfbf" points="476.56,-0.5 476.56,-18.5 524.81,-18.5 524.81,-0.5 476.56,-0.5"/>
<text text-anchor="middle" x="500.68" y="-6.5" font-family="Helvetica,sans-Serif" font-size="10.00">cstddef</text>
</a>
</g>
</g>
<!-- Node10&#45;&gt;Node12 -->
<g id="edge11" class="edge">
<title>Node10&#45;&gt;Node12</title>
<path fill="none" stroke="midnightblue" d="M500.68,-55.22C500.68,-48.18 500.68,-37.81 500.68,-28.83"/>
<polygon fill="midnightblue" stroke="midnightblue" points="504.18,-28.55 500.68,-18.55 497.18,-28.55 504.18,-28.55"/>
</g>
<!-- Node13 -->
<g id="node13" class="node">
<title>Node13</title>
<g id="a_node13"><a xlink:title=" ">
<polygon fill="none" stroke="#bfbfbf" points="542.62,-0.5 542.62,-18.5 604.75,-18.5 604.75,-0.5 542.62,-0.5"/>
<text text-anchor="middle" x="573.68" y="-6.5" font-family="Helvetica,sans-Serif" font-size="10.00">type_traits</text>
</a>
</g>
</g>
<!-- Node10&#45;&gt;Node13 -->
<g id="edge12" class="edge">
<title>Node10&#45;&gt;Node13</title>
<path fill="none" stroke="midnightblue" d="M511.77,-55.45C523.03,-47.28 540.68,-34.46 554.26,-24.6"/>
<polygon fill="midnightblue" stroke="midnightblue" points="556.46,-27.33 562.49,-18.63 552.34,-21.67 556.46,-27.33"/>
</g>
<!-- Node17 -->
<g id="node17" class="node">
<title>Node17</title>
<g id="a_node17"><a xlink:href="../../dc/d91/txtokenlist_8h.html" target="_top" xlink:title=" ">
<polygon fill="none" stroke="black" points="356.28,-330.5 356.28,-348.5 425.09,-348.5 425.09,-330.5 356.28,-330.5"/>
<text text-anchor="middle" x="390.68" y="-336.5" font-family="Helvetica,sans-Serif" font-size="10.00">txtokenlist.h</text>
</a>
</g>
</g>
<!-- Node16&#45;&gt;Node17 -->
<g id="edge16" class="edge">
<title>Node16&#45;&gt;Node17</title>
<path fill="none" stroke="midnightblue" d="M367.06,-385.22C370.95,-377.86 376.75,-366.88 381.63,-357.64"/>
<polygon fill="midnightblue" stroke="midnightblue" points="384.86,-359.03 386.43,-348.55 378.67,-355.76 384.86,-359.03"/>
</g>
<!-- Node17&#45;&gt;Node7 -->
<g id="edge17" class="edge">
<title>Node17&#45;&gt;Node7</title>
<path fill="none" stroke="midnightblue" d="M404.96,-330.45C419.87,-322.05 443.49,-308.72 461.16,-298.76"/>
<polygon fill="midnightblue" stroke="midnightblue" points="463.28,-301.59 470.27,-293.63 459.84,-295.49 463.28,-301.59"/>
</g>
<!-- Node18 -->
<g id="node18" class="node">
<title>Node18</title>
<g id="a_node18"><a xlink:href="../../dd/dcd/_token_8h.html" target="_top" xlink:title=" ">
<polygon fill="none" stroke="black" points="346.73,-275.5 346.73,-293.5 426.64,-293.5 426.64,-275.5 346.73,-275.5"/>
<text text-anchor="middle" x="386.68" y="-281.5" font-family="Helvetica,sans-Serif" font-size="10.00">tralics/Token.h</text>
</a>
</g>
</g>
<!-- Node17&#45;&gt;Node18 -->
<g id="edge18" class="edge">
<title>Node17&#45;&gt;Node18</title>
<path fill="none" stroke="midnightblue" d="M390.06,-330.22C389.52,-323.1 388.73,-312.58 388.05,-303.53"/>
<polygon fill="midnightblue" stroke="midnightblue" points="391.53,-303.26 387.29,-293.55 384.55,-303.78 391.53,-303.26"/>
</g>
<!-- Node23 -->
<g id="node23" class="node">
<title>Node23</title>
<g id="a_node23"><a xlink:title=" ">
<polygon fill="none" stroke="#bfbfbf" points="543.29,-275.5 543.29,-293.5 582.08,-293.5 582.08,-275.5 543.29,-275.5"/>
<text text-anchor="middle" x="562.68" y="-281.5" font-family="Helvetica,sans-Serif" font-size="10.00">utility</text>
</a>
</g>
</g>
<!-- Node17&#45;&gt;Node23 -->
<g id="edge25" class="edge">
<title>Node17&#45;&gt;Node23</title>
<path fill="none" stroke="midnightblue" d="M416.81,-330.45C448.18,-320.78 500.67,-304.61 533.39,-294.53"/>
<polygon fill="midnightblue" stroke="midnightblue" points="534.74,-297.77 543.27,-291.48 532.68,-291.08 534.74,-297.77"/>
</g>
<!-- Node19 -->
<g id="node19" class="node">
<title>Node19</title>
<g id="a_node19"><a xlink:href="../../d2/d68/_cmd_chr_8h.html" target="_top" xlink:title=" ">
<polygon fill="none" stroke="black" points="348.17,-220.5 348.17,-238.5 409.19,-238.5 409.19,-220.5 348.17,-220.5"/>
<text text-anchor="middle" x="378.68" y="-226.5" font-family="Helvetica,sans-Serif" font-size="10.00">CmdChr.h</text>
</a>
</g>
</g>
<!-- Node18&#45;&gt;Node19 -->
<g id="edge19" class="edge">
<title>Node18&#45;&gt;Node19</title>
<path fill="none" stroke="midnightblue" d="M385.43,-275.22C384.36,-268.1 382.77,-257.58 381.41,-248.53"/>
<polygon fill="midnightblue" stroke="midnightblue" points="384.85,-247.92 379.9,-238.55 377.93,-248.96 384.85,-247.92"/>
</g>
<!-- Node22 -->
<g id="node22" class="node">
<title>Node22</title>
<g id="a_node22"><a xlink:title=" ">
<polygon fill="none" stroke="#bfbfbf" points="427.18,-220.5 427.18,-238.5 456.18,-238.5 456.18,-220.5 427.18,-220.5"/>
<text text-anchor="middle" x="441.3" y="-226.5" font-family="Helvetica,sans-Serif" font-size="10.00">list</text>
</a>
</g>
</g>
<!-- Node18&#45;&gt;Node22 -->
<g id="edge24" class="edge">
<title>Node18&#45;&gt;Node22</title>
<path fill="none" stroke="midnightblue" d="M395.28,-275.22C403.48,-267.32 416.03,-255.22 426.01,-245.61"/>
<polygon fill="midnightblue" stroke="midnightblue" points="428.56,-248.01 433.33,-238.55 423.7,-242.97 428.56,-248.01"/>
</g>
<!-- Node19&#45;&gt;Node8 -->
<g id="edge23" class="edge">
<title>Node19&#45;&gt;Node8</title>
<path fill="none" stroke="midnightblue" d="M403.29,-220.45C430.84,-211.44 475.69,-196.77 506.6,-186.65"/>
<polygon fill="midnightblue" stroke="midnightblue" points="507.7,-189.97 516.11,-183.54 505.52,-183.32 507.7,-189.97"/>
</g>
<!-- Node20 -->
<g id="node20" class="node">
<title>Node20</title>
<g id="a_node20"><a xlink:href="../../d8/d47/codepoint_8h.html" target="_top" xlink:title=" ">
<polygon fill="none" stroke="black" points="427.83,-165.5 427.83,-183.5 495.54,-183.5 495.54,-165.5 427.83,-165.5"/>
<text text-anchor="middle" x="461.68" y="-171.5" font-family="Helvetica,sans-Serif" font-size="10.00">codepoint.h</text>
</a>
</g>
</g>
<!-- Node19&#45;&gt;Node20 -->
<g id="edge20" class="edge">
<title>Node19&#45;&gt;Node20</title>
<path fill="none" stroke="midnightblue" d="M391.29,-220.45C404.33,-212.12 424.93,-198.97 440.48,-189.04"/>
<polygon fill="midnightblue" stroke="midnightblue" points="442.42,-191.96 448.96,-183.63 438.65,-186.06 442.42,-191.96"/>
</g>
<!-- Node20&#45;&gt;Node10 -->
<g id="edge21" class="edge">
<title>Node20&#45;&gt;Node10</title>
<path fill="none" stroke="midnightblue" d="M464.62,-165.38C470.88,-148.03 485.71,-106.96 494.28,-83.24"/>
<polygon fill="midnightblue" stroke="midnightblue" points="497.61,-84.31 497.72,-73.71 491.03,-81.93 497.61,-84.31"/>
</g>
<!-- Node21 -->
<g id="node21" class="node">
<title>Node21</title>
<g id="a_node21"><a xlink:title=" ">
<polygon fill="none" stroke="#bfbfbf" points="650.17,-110.5 650.17,-128.5 701.2,-128.5 701.2,-110.5 650.17,-110.5"/>
<text text-anchor="middle" x="675.68" y="-116.5" font-family="Helvetica,sans-Serif" font-size="10.00">optional</text>
</a>
</g>
</g>
<!-- Node20&#45;&gt;Node21 -->
<g id="edge22" class="edge">
<title>Node20&#45;&gt;Node21</title>
<path fill="none" stroke="midnightblue" d="M494.19,-165.45C533.53,-155.71 599.55,-139.36 640.19,-129.29"/>
<polygon fill="midnightblue" stroke="midnightblue" points="641.08,-132.68 649.95,-126.87 639.4,-125.88 641.08,-132.68"/>
</g>
<!-- Node27&#45;&gt;Node5 -->
<g id="edge30" class="edge">
<title>Node27&#45;&gt;Node5</title>
<path fill="none" stroke="midnightblue" d="M456.72,-495.22C454.14,-488.02 450.31,-477.35 447.04,-468.23"/>
<polygon fill="midnightblue" stroke="midnightblue" points="450.24,-466.78 443.57,-458.55 443.65,-469.14 450.24,-466.78"/>
</g>
<!-- Node28&#45;&gt;Node26 -->
<g id="edge32" class="edge">
<title>Node28&#45;&gt;Node26</title>
<path fill="none" stroke="midnightblue" d="M30.73,-605.09C32.63,-592.34 37.52,-567.72 48.68,-550 56.07,-538.27 67.38,-527.71 77.27,-519.83"/>
<polygon fill="midnightblue" stroke="midnightblue" points="79.61,-522.45 85.47,-513.62 75.38,-516.87 79.61,-522.45"/>
</g>
<!-- Node29 -->
<g id="node29" class="node">
<title>Node29</title>
<g id="a_node29"><a xlink:title=" ">
<polygon fill="none" stroke="#bfbfbf" points="57.51,-550.5 57.51,-568.5 111.86,-568.5 111.86,-550.5 57.51,-550.5"/>
<text text-anchor="middle" x="84.68" y="-556.5" font-family="Helvetica,sans-Serif" font-size="10.00">iostream</text>
</a>
</g>
</g>
<!-- Node28&#45;&gt;Node29 -->
<g id="edge33" class="edge">
<title>Node28&#45;&gt;Node29</title>
<path fill="none" stroke="midnightblue" d="M38.28,-605.22C46.48,-597.32 59.03,-585.22 69.01,-575.61"/>
<polygon fill="midnightblue" stroke="midnightblue" points="71.56,-578.01 76.33,-568.55 66.7,-572.97 71.56,-578.01"/>
</g>
<!-- Node30&#45;&gt;Node4 -->
<g id="edge35" class="edge">
<title>Node30&#45;&gt;Node4</title>
<path fill="none" stroke="midnightblue" d="M116.75,-605.22C125.48,-597.24 138.89,-584.98 149.47,-575.32"/>
<polygon fill="midnightblue" stroke="midnightblue" points="151.85,-577.88 156.88,-568.55 147.13,-572.71 151.85,-577.88"/>
</g>
<!-- Node31&#45;&gt;Node4 -->
<g id="edge51" class="edge">
<title>Node31&#45;&gt;Node4</title>
<path fill="none" stroke="midnightblue" d="M401.69,-666.95C343.1,-663.31 216.37,-652.3 184.68,-624 171.95,-612.63 167.6,-593.11 166.19,-578.71"/>
<polygon fill="midnightblue" stroke="midnightblue" points="169.67,-578.28 165.58,-568.51 162.68,-578.7 169.67,-578.28"/>
</g>
<!-- Node32 -->
<g id="node32" class="node">
<title>Node32</title>
<g id="a_node32"><a xlink:href="../../d8/dd6/_e_q_t_b_8h.html" target="_top" xlink:title=" ">
<polygon fill="none" stroke="black" points="269.46,-495.5 269.46,-513.5 349.91,-513.5 349.91,-495.5 269.46,-495.5"/>
<text text-anchor="middle" x="309.68" y="-501.5" font-family="Helvetica,sans-Serif" font-size="10.00">tralics/EQTB.h</text>
</a>
</g>
</g>
<!-- Node31&#45;&gt;Node32 -->
<g id="edge37" class="edge">
<title>Node31&#45;&gt;Node32</title>
<path fill="none" stroke="midnightblue" d="M401.3,-660.82C381.3,-654.24 356.06,-642.78 340.68,-624 316.74,-594.75 311.1,-548.98 309.89,-523.74"/>
<polygon fill="midnightblue" stroke="midnightblue" points="313.39,-523.61 309.6,-513.72 306.39,-523.82 313.39,-523.61"/>
</g>
<!-- Node33 -->
<g id="node33" class="node">
<title>Node33</title>
<g id="a_node33"><a xlink:href="../../d3/d6b/txcond_8h.html" target="_top" xlink:title=" ">
<polygon fill="none" stroke="black" points="665.78,-440.5 665.78,-458.5 719.59,-458.5 719.59,-440.5 665.78,-440.5"/>
<text text-anchor="middle" x="692.68" y="-446.5" font-family="Helvetica,sans-Serif" font-size="10.00">txcond.h</text>
</a>
</g>
</g>
<!-- Node31&#45;&gt;Node33 -->
<g id="edge39" class="edge">
<title>Node31&#45;&gt;Node33</title>
<path fill="none" stroke="midnightblue" d="M461.88,-661.73C464.85,-661.12 467.82,-660.53 470.68,-660 521.97,-650.44 668.74,-663.62 702.68,-624 740.93,-579.36 715.17,-502.16 700.67,-467.83"/>
<polygon fill="midnightblue" stroke="midnightblue" points="703.86,-466.37 696.62,-458.63 697.45,-469.2 703.86,-466.37"/>
</g>
<!-- Node34 -->
<g id="node34" class="node">
<title>Node34</title>
<g id="a_node34"><a xlink:href="../../d7/d4d/txfonts_8h.html" target="_top" xlink:title=" ">
<polygon fill="none" stroke="black" points="371.79,-550.5 371.79,-568.5 425.58,-568.5 425.58,-550.5 371.79,-550.5"/>
<text text-anchor="middle" x="398.68" y="-556.5" font-family="Helvetica,sans-Serif" font-size="10.00">txfonts.h</text>
</a>
</g>
</g>
<!-- Node31&#45;&gt;Node34 -->
<g id="edge42" class="edge">
<title>Node31&#45;&gt;Node34</title>
<path fill="none" stroke="midnightblue" d="M429.26,-660.27C425.69,-648.15 418.76,-624.8 412.68,-605 409.98,-596.17 406.9,-586.38 404.33,-578.23"/>
<polygon fill="midnightblue" stroke="midnightblue" points="407.66,-577.16 401.3,-568.69 400.99,-579.28 407.66,-577.16"/>
</g>
<!-- Node35 -->
<g id="node35" class="node">
<title>Node35</title>
<g id="a_node35"><a xlink:href="../../d7/d7e/txhash_8h.html" target="_top" xlink:title=" ">
<polygon fill="none" stroke="black" points="459.78,-605.5 459.78,-623.5 513.59,-623.5 513.59,-605.5 459.78,-605.5"/>
<text text-anchor="middle" x="486.68" y="-611.5" font-family="Helvetica,sans-Serif" font-size="10.00">txhash.h</text>
</a>
</g>
</g>
<!-- Node31&#45;&gt;Node35 -->
<g id="edge44" class="edge">
<title>Node31&#45;&gt;Node35</title>
<path fill="none" stroke="midnightblue" d="M440.28,-660.22C448.48,-652.32 461.03,-640.22 471.01,-630.61"/>
<polygon fill="midnightblue" stroke="midnightblue" points="473.56,-633.01 478.33,-623.55 468.7,-627.97 473.56,-633.01"/>
</g>
<!-- Node37 -->
<g id="node37" class="node">
<title>Node37</title>
<g id="a_node37"><a xlink:href="../../de/d7c/tximage_8h.html" target="_top" xlink:title=" ">
<polygon fill="none" stroke="black" points="580.01,-330.5 580.01,-348.5 639.36,-348.5 639.36,-330.5 580.01,-330.5"/>
<text text-anchor="middle" x="609.68" y="-336.5" font-family="Helvetica,sans-Serif" font-size="10.00">tximage.h</text>
</a>
</g>
</g>
<!-- Node31&#45;&gt;Node37 -->
<g id="edge48" class="edge">
<title>Node31&#45;&gt;Node37</title>
<path fill="none" stroke="midnightblue" d="M461.8,-661.53C511.53,-649.95 606.03,-627.67 612.68,-624 643.51,-606.99 655.92,-601.4 669.68,-569 686.27,-529.95 636.86,-404.78 617.29,-358.19"/>
<polygon fill="midnightblue" stroke="midnightblue" points="620.44,-356.65 613.31,-348.81 614,-359.39 620.44,-356.65"/>
</g>
<!-- Node38 -->
<g id="node38" class="node">
<title>Node38</title>
<g id="a_node38"><a xlink:href="../../dc/d65/txstack_8h.html" target="_top" xlink:title=" ">
<polygon fill="none" stroke="black" points="547.96,-605.5 547.96,-623.5 603.41,-623.5 603.41,-605.5 547.96,-605.5"/>
<text text-anchor="middle" x="575.68" y="-611.5" font-family="Helvetica,sans-Serif" font-size="10.00">txstack.h</text>
</a>
</g>
</g>
<!-- Node31&#45;&gt;Node38 -->
<g id="edge52" class="edge">
<title>Node31&#45;&gt;Node38</title>
<path fill="none" stroke="midnightblue" d="M453.56,-660.45C477.66,-651.58 516.65,-637.23 544.08,-627.13"/>
<polygon fill="midnightblue" stroke="midnightblue" points="545.43,-630.36 553.61,-623.63 543.01,-623.79 545.43,-630.36"/>
</g>
<!-- Node41 -->
<g id="node41" class="node">
<title>Node41</title>
<g id="a_node41"><a xlink:href="../../d8/d3d/txstats_8h.html" target="_top" xlink:title=" ">
<polygon fill="none" stroke="black" points="350.07,-605.5 350.07,-623.5 403.3,-623.5 403.3,-605.5 350.07,-605.5"/>
<text text-anchor="middle" x="376.68" y="-611.5" font-family="Helvetica,sans-Serif" font-size="10.00">txstats.h</text>
</a>
</g>
</g>
<!-- Node31&#45;&gt;Node41 -->
<g id="edge60" class="edge">
<title>Node31&#45;&gt;Node41</title>
<path fill="none" stroke="midnightblue" d="M423.09,-660.22C414.89,-652.32 402.34,-640.22 392.36,-630.61"/>
<polygon fill="midnightblue" stroke="midnightblue" points="394.67,-627.97 385.04,-623.55 389.81,-633.01 394.67,-627.97"/>
</g>
<!-- Node32&#45;&gt;Node16 -->
<g id="edge38" class="edge">
<title>Node32&#45;&gt;Node16</title>
<path fill="none" stroke="midnightblue" d="M313.67,-495.38C322.22,-477.95 342.52,-436.59 354.13,-412.92"/>
<polygon fill="midnightblue" stroke="midnightblue" points="357.39,-414.23 358.65,-403.71 351.11,-411.15 357.39,-414.23"/>
</g>
<!-- Node33&#45;&gt;Node8 -->
<g id="edge40" class="edge">
<title>Node33&#45;&gt;Node8</title>
<path fill="none" stroke="midnightblue" d="M690.78,-440.42C686.75,-422.54 677.68,-378.17 677.68,-340.5 677.68,-340.5 677.68,-340.5 677.68,-283.5 677.68,-232.44 618.26,-201.79 577.69,-186.81"/>
<polygon fill="midnightblue" stroke="midnightblue" points="578.67,-183.45 568.08,-183.43 576.35,-190.05 578.67,-183.45"/>
</g>
<!-- Node33&#45;&gt;Node25 -->
<g id="edge41" class="edge">
<title>Node33&#45;&gt;Node25</title>
<path fill="none" stroke="midnightblue" d="M675.67,-440.45C657.42,-431.81 628.19,-417.98 606.97,-407.94"/>
<polygon fill="midnightblue" stroke="midnightblue" points="608.39,-404.74 597.86,-403.63 605.4,-411.07 608.39,-404.74"/>
</g>
<!-- Node34&#45;&gt;Node27 -->
<g id="edge43" class="edge">
<title>Node34&#45;&gt;Node27</title>
<path fill="none" stroke="midnightblue" d="M407.95,-550.45C417.09,-542.51 431.27,-530.19 442.48,-520.45"/>
<polygon fill="midnightblue" stroke="midnightblue" points="445.08,-522.83 450.33,-513.63 440.49,-517.54 445.08,-522.83"/>
</g>
<!-- Node35&#45;&gt;Node23 -->
<g id="edge47" class="edge">
<title>Node35&#45;&gt;Node23</title>
<path fill="none" stroke="midnightblue" d="M491.52,-605.42C501.55,-587.89 523.68,-544.74 523.68,-505.5 523.68,-505.5 523.68,-505.5 523.68,-393.5 523.68,-359.58 540.91,-323.04 552.47,-302.34"/>
<polygon fill="midnightblue" stroke="midnightblue" points="555.59,-303.95 557.59,-293.54 549.54,-300.43 555.59,-303.95"/>
</g>
<!-- Node36 -->
<g id="node36" class="node">
<title>Node36</title>
<g id="a_node36"><a xlink:href="../../d3/d01/txeqtb_8h.html" target="_top" xlink:title=" ">
<polygon fill="none" stroke="black" points="443.89,-550.5 443.89,-568.5 495.48,-568.5 495.48,-550.5 443.89,-550.5"/>
<text text-anchor="middle" x="469.68" y="-556.5" font-family="Helvetica,sans-Serif" font-size="10.00">txeqtb.h</text>
</a>
</g>
</g>
<!-- Node35&#45;&gt;Node36 -->
<g id="edge45" class="edge">
<title>Node35&#45;&gt;Node36</title>
<path fill="none" stroke="midnightblue" d="M484.03,-605.22C481.72,-598.02 478.3,-587.35 475.37,-578.23"/>
<polygon fill="midnightblue" stroke="midnightblue" points="478.65,-577 472.27,-568.55 471.99,-579.14 478.65,-577"/>
</g>
<!-- Node36&#45;&gt;Node27 -->
<g id="edge46" class="edge">
<title>Node36&#45;&gt;Node27</title>
<path fill="none" stroke="midnightblue" d="M468.12,-550.22C466.78,-543.1 464.79,-532.58 463.09,-523.53"/>
<polygon fill="midnightblue" stroke="midnightblue" points="466.5,-522.73 461.2,-513.55 459.62,-524.03 466.5,-522.73"/>
</g>
<!-- Node37&#45;&gt;Node15 -->
<g id="edge49" class="edge">
<title>Node37&#45;&gt;Node15</title>
<path fill="none" stroke="midnightblue" d="M608.93,-330.38C607.34,-313.18 603.59,-272.7 601.39,-248.89"/>
<polygon fill="midnightblue" stroke="midnightblue" points="604.85,-248.35 600.44,-238.71 597.88,-248.99 604.85,-248.35"/>
</g>
<!-- Node37&#45;&gt;Node23 -->
<g id="edge50" class="edge">
<title>Node37&#45;&gt;Node23</title>
<path fill="none" stroke="midnightblue" d="M602.34,-330.22C595.47,-322.47 585.03,-310.7 576.59,-301.18"/>
<polygon fill="midnightblue" stroke="midnightblue" points="579.08,-298.71 569.82,-293.55 573.84,-303.35 579.08,-298.71"/>
</g>
<!-- Node39 -->
<g id="node39" class="node">
<title>Node39</title>
<g id="a_node39"><a xlink:href="../../d4/da4/txatt_8h.html" target="_top" xlink:title=" ">
<polygon fill="none" stroke="black" points="617.07,-550.5 617.07,-568.5 660.3,-568.5 660.3,-550.5 617.07,-550.5"/>
<text text-anchor="middle" x="638.68" y="-556.5" font-family="Helvetica,sans-Serif" font-size="10.00">txatt.h</text>
</a>
</g>
</g>
<!-- Node38&#45;&gt;Node39 -->
<g id="edge53" class="edge">
<title>Node38&#45;&gt;Node39</title>
<path fill="none" stroke="midnightblue" d="M585.25,-605.45C594.78,-597.43 609.62,-584.95 621.25,-575.17"/>
<polygon fill="midnightblue" stroke="midnightblue" points="623.63,-577.74 629.03,-568.63 619.12,-572.38 623.63,-577.74"/>
</g>
<!-- Node40 -->
<g id="node40" class="node">
<title>Node40</title>
<g id="a_node40"><a xlink:href="../../d1/d43/txxml_8h.html" target="_top" xlink:title=" ">
<polygon fill="none" stroke="black" points="551.85,-550.5 551.85,-568.5 599.52,-568.5 599.52,-550.5 551.85,-550.5"/>
<text text-anchor="middle" x="575.68" y="-556.5" font-family="Helvetica,sans-Serif" font-size="10.00">txxml.h</text>
</a>
</g>
</g>
<!-- Node38&#45;&gt;Node40 -->
<g id="edge57" class="edge">
<title>Node38&#45;&gt;Node40</title>
<path fill="none" stroke="midnightblue" d="M575.68,-605.22C575.68,-598.18 575.68,-587.81 575.68,-578.83"/>
<polygon fill="midnightblue" stroke="midnightblue" points="579.18,-578.55 575.68,-568.55 572.18,-578.55 579.18,-578.55"/>
</g>
<!-- Node39&#45;&gt;Node21 -->
<g id="edge55" class="edge">
<title>Node39&#45;&gt;Node21</title>
<path fill="none" stroke="midnightblue" d="M649.53,-550.3C677.1,-528.44 747.68,-465.63 747.68,-395.5 747.68,-395.5 747.68,-395.5 747.68,-228.5 747.68,-189.91 715.46,-154.61 694.13,-135.48"/>
<polygon fill="midnightblue" stroke="midnightblue" points="696.17,-132.62 686.31,-128.74 691.6,-137.92 696.17,-132.62"/>
</g>
<!-- Node39&#45;&gt;Node25 -->
<g id="edge56" class="edge">
<title>Node39&#45;&gt;Node25</title>
<path fill="none" stroke="midnightblue" d="M635.73,-550.19C626.73,-524.9 599.53,-448.45 587.06,-413.4"/>
<polygon fill="midnightblue" stroke="midnightblue" points="590.22,-411.85 583.57,-403.6 583.62,-414.19 590.22,-411.85"/>
</g>
<!-- Node39&#45;&gt;Node27 -->
<g id="edge54" class="edge">
<title>Node39&#45;&gt;Node27</title>
<path fill="none" stroke="midnightblue" d="M616.74,-552C586.78,-543.13 532.7,-527.12 496.49,-516.4"/>
<polygon fill="midnightblue" stroke="midnightblue" points="497.37,-513.01 486.79,-513.52 495.38,-519.72 497.37,-513.01"/>
</g>
<!-- Node40&#45;&gt;Node25 -->
<g id="edge59" class="edge">
<title>Node40&#45;&gt;Node25</title>
<path fill="none" stroke="midnightblue" d="M575.94,-550.19C576.71,-525.01 579.04,-449.11 580.12,-413.86"/>
<polygon fill="midnightblue" stroke="midnightblue" points="583.63,-413.7 580.44,-403.6 576.63,-413.49 583.63,-413.7"/>
</g>
<!-- Node40&#45;&gt;Node27 -->
<g id="edge58" class="edge">
<title>Node40&#45;&gt;Node27</title>
<path fill="none" stroke="midnightblue" d="M558.07,-550.45C539.07,-541.77 508.61,-527.86 486.61,-517.8"/>
<polygon fill="midnightblue" stroke="midnightblue" points="488.02,-514.6 477.47,-513.63 485.11,-520.96 488.02,-514.6"/>
</g>
</g>
</svg>
