<?xml version="1.0" encoding="UTF-8" standalone="no"?>
<!DOCTYPE svg PUBLIC "-//W3C//DTD SVG 1.1//EN"
 "http://www.w3.org/Graphics/SVG/1.1/DTD/svg11.dtd">
<!-- Generated by graphviz version 2.43.0 (0)
 -->
<!-- Title: txatt.C Pages: 1 -->
<svg width="428pt" height="687pt"
 viewBox="0.00 0.00 428.34 687.00" xmlns="http://www.w3.org/2000/svg" xmlns:xlink="http://www.w3.org/1999/xlink">
<g id="graph0" class="graph" transform="scale(1 1) rotate(0) translate(4 683)">
<title>txatt.C</title>
<polygon fill="white" stroke="transparent" points="-4,4 -4,-683 424.34,-683 424.34,4 -4,4"/>
<!-- Node1 -->
<g id="node1" class="node">
<title>Node1</title>
<g id="a_node1"><a xlink:title=" ">
<polygon fill="#bfbfbf" stroke="black" points="244.06,-660.5 244.06,-678.5 288.95,-678.5 288.95,-660.5 244.06,-660.5"/>
<text text-anchor="middle" x="266.5" y="-666.5" font-family="Helvetica,sans-Serif" font-size="10.00">txatt.C</text>
</a>
</g>
</g>
<!-- Node2 -->
<g id="node2" class="node">
<title>Node2</title>
<g id="a_node2"><a xlink:href="../../d7/d79/txinline_8h.html" target="_top" xlink:title=" ">
<polygon fill="white" stroke="black" points="202.77,-605.5 202.77,-623.5 258.24,-623.5 258.24,-605.5 202.77,-605.5"/>
<text text-anchor="middle" x="230.5" y="-611.5" font-family="Helvetica,sans-Serif" font-size="10.00">txinline.h</text>
</a>
</g>
</g>
<!-- Node1&#45;&gt;Node2 -->
<g id="edge1" class="edge">
<title>Node1&#45;&gt;Node2</title>
<path fill="none" stroke="midnightblue" d="M260.88,-660.22C255.78,-652.71 248.1,-641.41 241.75,-632.05"/>
<polygon fill="midnightblue" stroke="midnightblue" points="244.49,-629.86 235.97,-623.55 238.7,-633.79 244.49,-629.86"/>
</g>
<!-- Node29 -->
<g id="node29" class="node">
<title>Node29</title>
<g id="a_node29"><a xlink:href="../../dc/d65/txstack_8h.html" target="_top" xlink:title=" ">
<polygon fill="white" stroke="black" points="316.78,-605.5 316.78,-623.5 372.23,-623.5 372.23,-605.5 316.78,-605.5"/>
<text text-anchor="middle" x="344.5" y="-611.5" font-family="Helvetica,sans-Serif" font-size="10.00">txstack.h</text>
</a>
</g>
</g>
<!-- Node1&#45;&gt;Node29 -->
<g id="edge37" class="edge">
<title>Node1&#45;&gt;Node29</title>
<path fill="none" stroke="midnightblue" d="M278.35,-660.45C290.49,-652.2 309.6,-639.22 324.17,-629.32"/>
<polygon fill="midnightblue" stroke="midnightblue" points="326.24,-632.14 332.55,-623.63 322.31,-626.35 326.24,-632.14"/>
</g>
<!-- Node3 -->
<g id="node3" class="node">
<title>Node3</title>
<g id="a_node3"><a xlink:href="../../d4/de9/_main_class_8h.html" target="_top" xlink:title=" ">
<polygon fill="white" stroke="black" points="110.55,-550.5 110.55,-568.5 210.46,-568.5 210.46,-550.5 110.55,-550.5"/>
<text text-anchor="middle" x="160.5" y="-556.5" font-family="Helvetica,sans-Serif" font-size="10.00">tralics/MainClass.h</text>
</a>
</g>
</g>
<!-- Node2&#45;&gt;Node3 -->
<g id="edge2" class="edge">
<title>Node2&#45;&gt;Node3</title>
<path fill="none" stroke="midnightblue" d="M219.87,-605.45C209.18,-597.36 192.47,-584.7 179.5,-574.88"/>
<polygon fill="midnightblue" stroke="midnightblue" points="181.32,-571.87 171.24,-568.63 177.1,-577.45 181.32,-571.87"/>
</g>
<!-- Node25 -->
<g id="node25" class="node">
<title>Node25</title>
<g id="a_node25"><a xlink:href="../../d2/d06/txlogger_8h.html" target="_top" xlink:title=" ">
<polygon fill="white" stroke="black" points="228.82,-550.5 228.82,-568.5 288.19,-568.5 288.19,-550.5 228.82,-550.5"/>
<text text-anchor="middle" x="258.5" y="-556.5" font-family="Helvetica,sans-Serif" font-size="10.00">txlogger.h</text>
</a>
</g>
</g>
<!-- Node2&#45;&gt;Node25 -->
<g id="edge30" class="edge">
<title>Node2&#45;&gt;Node25</title>
<path fill="none" stroke="midnightblue" d="M234.88,-605.22C238.77,-597.86 244.57,-586.88 249.45,-577.64"/>
<polygon fill="midnightblue" stroke="midnightblue" points="252.68,-579.03 254.25,-568.55 246.49,-575.76 252.68,-579.03"/>
</g>
<!-- Node28 -->
<g id="node28" class="node">
<title>Node28</title>
<g id="a_node28"><a xlink:href="../../d5/d08/txparam_8h.html" target="_top" xlink:title=" ">
<polygon fill="white" stroke="black" points="32.27,-550.5 32.27,-568.5 92.74,-568.5 92.74,-550.5 32.27,-550.5"/>
<text text-anchor="middle" x="62.5" y="-556.5" font-family="Helvetica,sans-Serif" font-size="10.00">txparam.h</text>
</a>
</g>
</g>
<!-- Node2&#45;&gt;Node28 -->
<g id="edge35" class="edge">
<title>Node2&#45;&gt;Node28</title>
<path fill="none" stroke="midnightblue" d="M204.99,-605.45C176.41,-596.44 129.91,-581.77 97.85,-571.65"/>
<polygon fill="midnightblue" stroke="midnightblue" points="98.57,-568.21 87.98,-568.54 96.47,-574.88 98.57,-568.21"/>
</g>
<!-- Node4 -->
<g id="node4" class="node">
<title>Node4</title>
<g id="a_node4"><a xlink:href="../../de/d29/txio_8h.html" target="_top" xlink:title=" ">
<polygon fill="white" stroke="black" points="84.39,-495.5 84.39,-513.5 132.62,-513.5 132.62,-495.5 84.39,-495.5"/>
<text text-anchor="middle" x="108.5" y="-501.5" font-family="Helvetica,sans-Serif" font-size="10.00">../txio.h</text>
</a>
</g>
</g>
<!-- Node3&#45;&gt;Node4 -->
<g id="edge3" class="edge">
<title>Node3&#45;&gt;Node4</title>
<path fill="none" stroke="midnightblue" d="M152.38,-550.22C144.7,-542.39 133,-530.46 123.61,-520.89"/>
<polygon fill="midnightblue" stroke="midnightblue" points="125.9,-518.24 116.4,-513.55 120.91,-523.14 125.9,-518.24"/>
</g>
<!-- Node24 -->
<g id="node24" class="node">
<title>Node24</title>
<g id="a_node24"><a xlink:href="../../dc/def/txstring_8h.html" target="_top" xlink:title=" ">
<polygon fill="white" stroke="black" points="218.05,-440.5 218.05,-458.5 282.96,-458.5 282.96,-440.5 218.05,-440.5"/>
<text text-anchor="middle" x="250.5" y="-446.5" font-family="Helvetica,sans-Serif" font-size="10.00">../txstring.h</text>
</a>
</g>
</g>
<!-- Node3&#45;&gt;Node24 -->
<g id="edge28" class="edge">
<title>Node3&#45;&gt;Node24</title>
<path fill="none" stroke="midnightblue" d="M167.27,-550.38C182.06,-532.63 217.51,-490.1 237.03,-466.67"/>
<polygon fill="midnightblue" stroke="midnightblue" points="239.95,-468.63 243.66,-458.71 234.57,-464.15 239.95,-468.63"/>
</g>
<!-- Node5 -->
<g id="node5" class="node">
<title>Node5</title>
<g id="a_node5"><a xlink:href="../../dd/d74/txbuffer_8h.html" target="_top" xlink:title=" ">
<polygon fill="white" stroke="black" points="152.02,-385.5 152.02,-403.5 208.99,-403.5 208.99,-385.5 152.02,-385.5"/>
<text text-anchor="middle" x="180.5" y="-391.5" font-family="Helvetica,sans-Serif" font-size="10.00">txbuffer.h</text>
</a>
</g>
</g>
<!-- Node4&#45;&gt;Node5 -->
<g id="edge4" class="edge">
<title>Node4&#45;&gt;Node5</title>
<path fill="none" stroke="midnightblue" d="M111.62,-495.27C116.56,-482.75 126.91,-458.44 139.5,-440 146.62,-429.59 156.07,-419.16 164.11,-411.02"/>
<polygon fill="midnightblue" stroke="midnightblue" points="166.85,-413.23 171.53,-403.73 161.95,-408.24 166.85,-413.23"/>
</g>
<!-- Node23 -->
<g id="node23" class="node">
<title>Node23</title>
<g id="a_node23"><a xlink:title=" ">
<polygon fill="white" stroke="#bfbfbf" points="148.83,-440.5 148.83,-458.5 198.17,-458.5 198.17,-440.5 148.83,-440.5"/>
<text text-anchor="middle" x="173.5" y="-446.5" font-family="Helvetica,sans-Serif" font-size="10.00">fstream</text>
</a>
</g>
</g>
<!-- Node4&#45;&gt;Node23 -->
<g id="edge27" class="edge">
<title>Node4&#45;&gt;Node23</title>
<path fill="none" stroke="midnightblue" d="M118.38,-495.45C128.21,-487.43 143.52,-474.95 155.52,-465.17"/>
<polygon fill="midnightblue" stroke="midnightblue" points="158,-467.66 163.54,-458.63 153.58,-462.23 158,-467.66"/>
</g>
<!-- Node6 -->
<g id="node6" class="node">
<title>Node6</title>
<g id="a_node6"><a xlink:href="../../d1/d9e/txid_8h.html" target="_top" xlink:title=" ">
<polygon fill="white" stroke="black" points="57.55,-275.5 57.55,-293.5 97.46,-293.5 97.46,-275.5 57.55,-275.5"/>
<text text-anchor="middle" x="77.5" y="-281.5" font-family="Helvetica,sans-Serif" font-size="10.00">txid.h</text>
</a>
</g>
</g>
<!-- Node5&#45;&gt;Node6 -->
<g id="edge5" class="edge">
<title>Node5&#45;&gt;Node6</title>
<path fill="none" stroke="midnightblue" d="M159.66,-385.38C143.11,-378.02 120.37,-365.77 105.5,-349 93.9,-335.91 86.45,-317.24 82.18,-303.54"/>
<polygon fill="midnightblue" stroke="midnightblue" points="85.51,-302.47 79.41,-293.81 78.78,-304.38 85.51,-302.47"/>
</g>
<!-- Node13 -->
<g id="node13" class="node">
<title>Node13</title>
<g id="a_node13"><a xlink:href="../../d9/d18/txscaled_8h.html" target="_top" xlink:title=" ">
<polygon fill="white" stroke="black" points="114.99,-330.5 114.99,-348.5 176.02,-348.5 176.02,-330.5 114.99,-330.5"/>
<text text-anchor="middle" x="145.5" y="-336.5" font-family="Helvetica,sans-Serif" font-size="10.00">txscaled.h</text>
</a>
</g>
</g>
<!-- Node5&#45;&gt;Node13 -->
<g id="edge12" class="edge">
<title>Node5&#45;&gt;Node13</title>
<path fill="none" stroke="midnightblue" d="M175.04,-385.22C170.08,-377.71 162.62,-366.41 156.44,-357.05"/>
<polygon fill="midnightblue" stroke="midnightblue" points="159.25,-354.97 150.82,-348.55 153.41,-358.82 159.25,-354.97"/>
</g>
<!-- Node21 -->
<g id="node21" class="node">
<title>Node21</title>
<g id="a_node21"><a xlink:title=" ">
<polygon fill="white" stroke="#bfbfbf" points="193.78,-330.5 193.78,-348.5 239.23,-348.5 239.23,-330.5 193.78,-330.5"/>
<text text-anchor="middle" x="216.5" y="-336.5" font-family="Helvetica,sans-Serif" font-size="10.00">cstring</text>
</a>
</g>
</g>
<!-- Node5&#45;&gt;Node21 -->
<g id="edge25" class="edge">
<title>Node5&#45;&gt;Node21</title>
<path fill="none" stroke="midnightblue" d="M186.13,-385.22C191.23,-377.71 198.9,-366.41 205.26,-357.05"/>
<polygon fill="midnightblue" stroke="midnightblue" points="208.31,-358.79 211.04,-348.55 202.52,-354.86 208.31,-358.79"/>
</g>
<!-- Node22 -->
<g id="node22" class="node">
<title>Node22</title>
<g id="a_node22"><a xlink:title=" ">
<polygon fill="white" stroke="#bfbfbf" points="256.89,-330.5 256.89,-348.5 300.12,-348.5 300.12,-330.5 256.89,-330.5"/>
<text text-anchor="middle" x="278.5" y="-336.5" font-family="Helvetica,sans-Serif" font-size="10.00">vector</text>
</a>
</g>
</g>
<!-- Node5&#45;&gt;Node22 -->
<g id="edge26" class="edge">
<title>Node5&#45;&gt;Node22</title>
<path fill="none" stroke="midnightblue" d="M195.39,-385.45C211.07,-376.97 236.02,-363.48 254.49,-353.49"/>
<polygon fill="midnightblue" stroke="midnightblue" points="256.35,-356.46 263.48,-348.63 253.02,-350.3 256.35,-356.46"/>
</g>
<!-- Node7 -->
<g id="node7" class="node">
<title>Node7</title>
<g id="a_node7"><a xlink:href="../../dc/de8/txvars_8h.html" target="_top" xlink:title=" ">
<polygon fill="white" stroke="black" points="0,-220.5 0,-238.5 51.01,-238.5 51.01,-220.5 0,-220.5"/>
<text text-anchor="middle" x="25.5" y="-226.5" font-family="Helvetica,sans-Serif" font-size="10.00">txvars.h</text>
</a>
</g>
</g>
<!-- Node6&#45;&gt;Node7 -->
<g id="edge6" class="edge">
<title>Node6&#45;&gt;Node7</title>
<path fill="none" stroke="midnightblue" d="M69.38,-275.22C61.7,-267.39 50,-255.46 40.61,-245.89"/>
<polygon fill="midnightblue" stroke="midnightblue" points="42.9,-243.24 33.4,-238.55 37.91,-248.14 42.9,-243.24"/>
</g>
<!-- Node12 -->
<g id="node12" class="node">
<title>Node12</title>
<g id="a_node12"><a xlink:title=" ">
<polygon fill="white" stroke="#bfbfbf" points="79.28,-165.5 79.28,-183.5 119.73,-183.5 119.73,-165.5 79.28,-165.5"/>
<text text-anchor="middle" x="99.5" y="-171.5" font-family="Helvetica,sans-Serif" font-size="10.00">string</text>
</a>
</g>
</g>
<!-- Node6&#45;&gt;Node12 -->
<g id="edge11" class="edge">
<title>Node6&#45;&gt;Node12</title>
<path fill="none" stroke="midnightblue" d="M79.16,-275.38C82.68,-258.1 90.98,-217.33 95.83,-193.56"/>
<polygon fill="midnightblue" stroke="midnightblue" points="99.27,-194.21 97.83,-183.71 92.41,-192.81 99.27,-194.21"/>
</g>
<!-- Node8 -->
<g id="node8" class="node">
<title>Node8</title>
<g id="a_node8"><a xlink:href="../../d0/d0b/enums_8h.html" target="_top" xlink:title=" ">
<polygon fill="white" stroke="black" points="101.88,-110.5 101.88,-128.5 185.13,-128.5 185.13,-110.5 101.88,-110.5"/>
<text text-anchor="middle" x="143.5" y="-116.5" font-family="Helvetica,sans-Serif" font-size="10.00">tralics/enums.h</text>
</a>
</g>
</g>
<!-- Node7&#45;&gt;Node8 -->
<g id="edge7" class="edge">
<title>Node7&#45;&gt;Node8</title>
<path fill="none" stroke="midnightblue" d="M20.34,-220.24C12.95,-207.25 1.5,-181.8 13.5,-165 31.23,-140.2 63.66,-129.07 91.69,-124.14"/>
<polygon fill="midnightblue" stroke="midnightblue" points="92.43,-127.57 101.79,-122.59 91.37,-120.65 92.43,-127.57"/>
</g>
<!-- Node11 -->
<g id="node11" class="node">
<title>Node11</title>
<g id="a_node11"><a xlink:title=" ">
<polygon fill="white" stroke="#bfbfbf" points="22.11,-165.5 22.11,-183.5 60.9,-183.5 60.9,-165.5 22.11,-165.5"/>
<text text-anchor="middle" x="41.5" y="-171.5" font-family="Helvetica,sans-Serif" font-size="10.00">array</text>
</a>
</g>
</g>
<!-- Node7&#45;&gt;Node11 -->
<g id="edge10" class="edge">
<title>Node7&#45;&gt;Node11</title>
<path fill="none" stroke="midnightblue" d="M28,-220.22C30.18,-213.02 33.4,-202.35 36.15,-193.23"/>
<polygon fill="midnightblue" stroke="midnightblue" points="39.54,-194.13 39.07,-183.55 32.83,-192.11 39.54,-194.13"/>
</g>
<!-- Node9 -->
<g id="node9" class="node">
<title>Node9</title>
<g id="a_node9"><a xlink:href="../../d8/db5/consts_8h.html" target="_top" xlink:title=" ">
<polygon fill="white" stroke="black" points="112.88,-55.5 112.88,-73.5 166.13,-73.5 166.13,-55.5 112.88,-55.5"/>
<text text-anchor="middle" x="139.5" y="-61.5" font-family="Helvetica,sans-Serif" font-size="10.00">consts.h</text>
</a>
</g>
</g>
<!-- Node8&#45;&gt;Node9 -->
<g id="edge8" class="edge">
<title>Node8&#45;&gt;Node9</title>
<path fill="none" stroke="midnightblue" d="M142.88,-110.22C142.34,-103.1 141.55,-92.58 140.87,-83.53"/>
<polygon fill="midnightblue" stroke="midnightblue" points="144.36,-83.26 140.11,-73.55 137.37,-83.78 144.36,-83.26"/>
</g>
<!-- Node10 -->
<g id="node10" class="node">
<title>Node10</title>
<g id="a_node10"><a xlink:href="../../d9/d49/types_8h.html" target="_top" xlink:title=" ">
<polygon fill="white" stroke="black" points="154.38,-0.5 154.38,-18.5 202.63,-18.5 202.63,-0.5 154.38,-0.5"/>
<text text-anchor="middle" x="178.5" y="-6.5" font-family="Helvetica,sans-Serif" font-size="10.00">types.h</text>
</a>
</g>
</g>
<!-- Node9&#45;&gt;Node10 -->
<g id="edge9" class="edge">
<title>Node9&#45;&gt;Node10</title>
<path fill="none" stroke="midnightblue" d="M145.6,-55.22C151.18,-47.63 159.61,-36.18 166.54,-26.76"/>
<polygon fill="midnightblue" stroke="midnightblue" points="169.47,-28.68 172.58,-18.55 163.84,-24.53 169.47,-28.68"/>
</g>
<!-- Node14 -->
<g id="node14" class="node">
<title>Node14</title>
<g id="a_node14"><a xlink:href="../../dc/d91/txtokenlist_8h.html" target="_top" xlink:title=" ">
<polygon fill="white" stroke="black" points="115.1,-275.5 115.1,-293.5 183.91,-293.5 183.91,-275.5 115.1,-275.5"/>
<text text-anchor="middle" x="149.5" y="-281.5" font-family="Helvetica,sans-Serif" font-size="10.00">txtokenlist.h</text>
</a>
</g>
</g>
<!-- Node13&#45;&gt;Node14 -->
<g id="edge13" class="edge">
<title>Node13&#45;&gt;Node14</title>
<path fill="none" stroke="midnightblue" d="M146.13,-330.22C146.67,-323.1 147.46,-312.58 148.14,-303.53"/>
<polygon fill="midnightblue" stroke="midnightblue" points="151.63,-303.78 148.9,-293.55 144.65,-303.26 151.63,-303.78"/>
</g>
<!-- Node14&#45;&gt;Node7 -->
<g id="edge23" class="edge">
<title>Node14&#45;&gt;Node7</title>
<path fill="none" stroke="midnightblue" d="M130.67,-275.45C110.28,-266.73 77.52,-252.73 53.98,-242.67"/>
<polygon fill="midnightblue" stroke="midnightblue" points="55.09,-239.34 44.52,-238.63 52.33,-245.77 55.09,-239.34"/>
</g>
<!-- Node15 -->
<g id="node15" class="node">
<title>Node15</title>
<g id="a_node15"><a xlink:href="../../d5/daf/_istring_8h.html" target="_top" xlink:title=" ">
<polygon fill="white" stroke="black" points="107.27,-220.5 107.27,-238.5 187.74,-238.5 187.74,-220.5 107.27,-220.5"/>
<text text-anchor="middle" x="147.5" y="-226.5" font-family="Helvetica,sans-Serif" font-size="10.00">tralics/Istring.h</text>
</a>
</g>
</g>
<!-- Node14&#45;&gt;Node15 -->
<g id="edge14" class="edge">
<title>Node14&#45;&gt;Node15</title>
<path fill="none" stroke="midnightblue" d="M149.19,-275.22C148.93,-268.18 148.54,-257.81 148.2,-248.83"/>
<polygon fill="midnightblue" stroke="midnightblue" points="151.68,-248.41 147.81,-238.55 144.69,-248.67 151.68,-248.41"/>
</g>
<!-- Node16 -->
<g id="node16" class="node">
<title>Node16</title>
<g id="a_node16"><a xlink:href="../../dd/dcd/_token_8h.html" target="_top" xlink:title=" ">
<polygon fill="white" stroke="black" points="205.55,-220.5 205.55,-238.5 285.46,-238.5 285.46,-220.5 205.55,-220.5"/>
<text text-anchor="middle" x="245.5" y="-226.5" font-family="Helvetica,sans-Serif" font-size="10.00">tralics/Token.h</text>
</a>
</g>
</g>
<!-- Node14&#45;&gt;Node16 -->
<g id="edge17" class="edge">
<title>Node14&#45;&gt;Node16</title>
<path fill="none" stroke="midnightblue" d="M164.09,-275.45C179.45,-266.97 203.89,-253.48 221.98,-243.49"/>
<polygon fill="midnightblue" stroke="midnightblue" points="223.72,-246.52 230.79,-238.63 220.34,-240.39 223.72,-246.52"/>
</g>
<!-- Node20 -->
<g id="node20" class="node">
<title>Node20</title>
<g id="a_node20"><a xlink:title=" ">
<polygon fill="white" stroke="#bfbfbf" points="303.11,-220.5 303.11,-238.5 341.9,-238.5 341.9,-220.5 303.11,-220.5"/>
<text text-anchor="middle" x="322.5" y="-226.5" font-family="Helvetica,sans-Serif" font-size="10.00">utility</text>
</a>
</g>
</g>
<!-- Node14&#45;&gt;Node20 -->
<g id="edge24" class="edge">
<title>Node14&#45;&gt;Node20</title>
<path fill="none" stroke="midnightblue" d="M175.78,-275.45C207.34,-265.78 260.13,-249.61 293.04,-239.53"/>
<polygon fill="midnightblue" stroke="midnightblue" points="294.44,-242.76 302.98,-236.48 292.39,-236.07 294.44,-242.76"/>
</g>
<!-- Node15&#45;&gt;Node8 -->
<g id="edge15" class="edge">
<title>Node15&#45;&gt;Node8</title>
<path fill="none" stroke="midnightblue" d="M147.2,-220.38C146.57,-203.18 145.07,-162.7 144.19,-138.89"/>
<polygon fill="midnightblue" stroke="midnightblue" points="147.68,-138.58 143.81,-128.71 140.68,-138.83 147.68,-138.58"/>
</g>
<!-- Node15&#45;&gt;Node12 -->
<g id="edge16" class="edge">
<title>Node15&#45;&gt;Node12</title>
<path fill="none" stroke="midnightblue" d="M140,-220.22C132.99,-212.47 122.33,-200.7 113.71,-191.18"/>
<polygon fill="midnightblue" stroke="midnightblue" points="116.1,-188.61 106.8,-183.55 110.91,-193.31 116.1,-188.61"/>
</g>
<!-- Node17 -->
<g id="node17" class="node">
<title>Node17</title>
<g id="a_node17"><a xlink:href="../../d2/d68/_cmd_chr_8h.html" target="_top" xlink:title=" ">
<polygon fill="white" stroke="black" points="182,-165.5 182,-183.5 243.01,-183.5 243.01,-165.5 182,-165.5"/>
<text text-anchor="middle" x="212.5" y="-171.5" font-family="Helvetica,sans-Serif" font-size="10.00">CmdChr.h</text>
</a>
</g>
</g>
<!-- Node16&#45;&gt;Node17 -->
<g id="edge18" class="edge">
<title>Node16&#45;&gt;Node17</title>
<path fill="none" stroke="midnightblue" d="M240.35,-220.22C235.67,-212.71 228.64,-201.41 222.81,-192.05"/>
<polygon fill="midnightblue" stroke="midnightblue" points="225.77,-190.19 217.52,-183.55 219.83,-193.89 225.77,-190.19"/>
</g>
<!-- Node19 -->
<g id="node19" class="node">
<title>Node19</title>
<g id="a_node19"><a xlink:title=" ">
<polygon fill="white" stroke="#bfbfbf" points="261,-165.5 261,-183.5 290,-183.5 290,-165.5 261,-165.5"/>
<text text-anchor="middle" x="275.12" y="-171.5" font-family="Helvetica,sans-Serif" font-size="10.00">list</text>
</a>
</g>
</g>
<!-- Node16&#45;&gt;Node19 -->
<g id="edge22" class="edge">
<title>Node16&#45;&gt;Node19</title>
<path fill="none" stroke="midnightblue" d="M250.19,-220.22C254.4,-212.79 260.71,-201.65 265.97,-192.34"/>
<polygon fill="midnightblue" stroke="midnightblue" points="269.07,-193.98 270.95,-183.55 262.98,-190.53 269.07,-193.98"/>
</g>
<!-- Node17&#45;&gt;Node8 -->
<g id="edge21" class="edge">
<title>Node17&#45;&gt;Node8</title>
<path fill="none" stroke="midnightblue" d="M202.03,-165.45C191.49,-157.36 175.02,-144.7 162.23,-134.88"/>
<polygon fill="midnightblue" stroke="midnightblue" points="164.15,-131.94 154.08,-128.63 159.88,-137.49 164.15,-131.94"/>
</g>
<!-- Node18 -->
<g id="node18" class="node">
<title>Node18</title>
<g id="a_node18"><a xlink:href="../../d8/d47/codepoint_8h.html" target="_top" xlink:title=" ">
<polygon fill="white" stroke="black" points="183.65,-55.5 183.65,-73.5 251.36,-73.5 251.36,-55.5 183.65,-55.5"/>
<text text-anchor="middle" x="217.5" y="-61.5" font-family="Helvetica,sans-Serif" font-size="10.00">codepoint.h</text>
</a>
</g>
</g>
<!-- Node17&#45;&gt;Node18 -->
<g id="edge19" class="edge">
<title>Node17&#45;&gt;Node18</title>
<path fill="none" stroke="midnightblue" d="M212.88,-165.38C213.68,-148.18 215.55,-107.7 216.65,-83.89"/>
<polygon fill="midnightblue" stroke="midnightblue" points="220.16,-83.86 217.12,-73.71 213.17,-83.54 220.16,-83.86"/>
</g>
<!-- Node18&#45;&gt;Node10 -->
<g id="edge20" class="edge">
<title>Node18&#45;&gt;Node10</title>
<path fill="none" stroke="midnightblue" d="M211.41,-55.22C205.83,-47.63 197.4,-36.18 190.47,-26.76"/>
<polygon fill="midnightblue" stroke="midnightblue" points="193.17,-24.53 184.43,-18.55 187.54,-28.68 193.17,-24.53"/>
</g>
<!-- Node24&#45;&gt;Node5 -->
<g id="edge29" class="edge">
<title>Node24&#45;&gt;Node5</title>
<path fill="none" stroke="midnightblue" d="M239.87,-440.45C229.18,-432.36 212.47,-419.7 199.5,-409.88"/>
<polygon fill="midnightblue" stroke="midnightblue" points="201.32,-406.87 191.24,-403.63 197.1,-412.45 201.32,-406.87"/>
</g>
<!-- Node25&#45;&gt;Node23 -->
<g id="edge33" class="edge">
<title>Node25&#45;&gt;Node23</title>
<path fill="none" stroke="midnightblue" d="M250.28,-550.28C241.74,-541.58 228.14,-527.28 217.5,-514 205.23,-498.67 192.6,-480.1 184.04,-467.01"/>
<polygon fill="midnightblue" stroke="midnightblue" points="186.95,-465.07 178.58,-458.57 181.07,-468.87 186.95,-465.07"/>
</g>
<!-- Node26 -->
<g id="node26" class="node">
<title>Node26</title>
<g id="a_node26"><a xlink:href="../../d7/d4d/txfonts_8h.html" target="_top" xlink:title=" ">
<polygon fill="white" stroke="black" points="226.61,-495.5 226.61,-513.5 280.4,-513.5 280.4,-495.5 226.61,-495.5"/>
<text text-anchor="middle" x="253.5" y="-501.5" font-family="Helvetica,sans-Serif" font-size="10.00">txfonts.h</text>
</a>
</g>
</g>
<!-- Node25&#45;&gt;Node26 -->
<g id="edge31" class="edge">
<title>Node25&#45;&gt;Node26</title>
<path fill="none" stroke="midnightblue" d="M257.72,-550.22C257.05,-543.1 256.06,-532.58 255.21,-523.53"/>
<polygon fill="midnightblue" stroke="midnightblue" points="258.69,-523.18 254.26,-513.55 251.72,-523.83 258.69,-523.18"/>
</g>
<!-- Node27 -->
<g id="node27" class="node">
<title>Node27</title>
<g id="a_node27"><a xlink:title=" ">
<polygon fill="white" stroke="#bfbfbf" points="298.33,-495.5 298.33,-513.5 352.68,-513.5 352.68,-495.5 298.33,-495.5"/>
<text text-anchor="middle" x="325.5" y="-501.5" font-family="Helvetica,sans-Serif" font-size="10.00">iostream</text>
</a>
</g>
</g>
<!-- Node25&#45;&gt;Node27 -->
<g id="edge34" class="edge">
<title>Node25&#45;&gt;Node27</title>
<path fill="none" stroke="midnightblue" d="M268.68,-550.45C278.91,-542.36 294.91,-529.7 307.32,-519.88"/>
<polygon fill="midnightblue" stroke="midnightblue" points="309.56,-522.57 315.23,-513.63 305.22,-517.08 309.56,-522.57"/>
</g>
<!-- Node26&#45;&gt;Node24 -->
<g id="edge32" class="edge">
<title>Node26&#45;&gt;Node24</title>
<path fill="none" stroke="midnightblue" d="M253.04,-495.22C252.64,-488.18 252.05,-477.81 251.54,-468.83"/>
<polygon fill="midnightblue" stroke="midnightblue" points="255.02,-468.34 250.96,-458.55 248.03,-468.73 255.02,-468.34"/>
</g>
<!-- Node28&#45;&gt;Node4 -->
<g id="edge36" class="edge">
<title>Node28&#45;&gt;Node4</title>
<path fill="none" stroke="midnightblue" d="M69.69,-550.22C76.42,-542.47 86.63,-530.7 94.9,-521.18"/>
<polygon fill="midnightblue" stroke="midnightblue" points="97.61,-523.4 101.52,-513.55 92.32,-518.81 97.61,-523.4"/>
</g>
<!-- Node30 -->
<g id="node30" class="node">
<title>Node30</title>
<g id="a_node30"><a xlink:href="../../d4/da4/txatt_8h.html" target="_top" xlink:title=" ">
<polygon fill="white" stroke="black" points="370.89,-495.5 370.89,-513.5 414.12,-513.5 414.12,-495.5 370.89,-495.5"/>
<text text-anchor="middle" x="392.5" y="-501.5" font-family="Helvetica,sans-Serif" font-size="10.00">txatt.h</text>
</a>
</g>
</g>
<!-- Node29&#45;&gt;Node30 -->
<g id="edge38" class="edge">
<title>Node29&#45;&gt;Node30</title>
<path fill="none" stroke="midnightblue" d="M346.14,-605.41C348.81,-593.08 354.7,-569 363.5,-550 368.07,-540.15 374.57,-529.95 380.26,-521.81"/>
<polygon fill="midnightblue" stroke="midnightblue" points="383.16,-523.76 386.19,-513.61 377.49,-519.66 383.16,-523.76"/>
</g>
<!-- Node31 -->
<g id="node31" class="node">
<title>Node31</title>
<g id="a_node31"><a xlink:href="../../d1/d43/txxml_8h.html" target="_top" xlink:title=" ">
<polygon fill="white" stroke="black" points="372.67,-550.5 372.67,-568.5 420.34,-568.5 420.34,-550.5 372.67,-550.5"/>
<text text-anchor="middle" x="396.5" y="-556.5" font-family="Helvetica,sans-Serif" font-size="10.00">txxml.h</text>
</a>
</g>
</g>
<!-- Node29&#45;&gt;Node31 -->
<g id="edge40" class="edge">
<title>Node29&#45;&gt;Node31</title>
<path fill="none" stroke="midnightblue" d="M352.63,-605.22C360.31,-597.39 372.01,-585.46 381.4,-575.89"/>
<polygon fill="midnightblue" stroke="midnightblue" points="384.1,-578.14 388.61,-568.55 379.11,-573.24 384.1,-578.14"/>
</g>
<!-- Node30&#45;&gt;Node24 -->
<g id="edge39" class="edge">
<title>Node30&#45;&gt;Node24</title>
<path fill="none" stroke="midnightblue" d="M370.94,-495.45C347.17,-486.58 308.72,-472.23 281.68,-462.13"/>
<polygon fill="midnightblue" stroke="midnightblue" points="282.87,-458.84 272.27,-458.63 280.42,-465.4 282.87,-458.84"/>
</g>
</g>
</svg>
