<?xml version="1.0" encoding="UTF-8" standalone="no"?>
<!DOCTYPE svg PUBLIC "-//W3C//DTD SVG 1.1//EN"
 "http://www.w3.org/Graphics/SVG/1.1/DTD/svg11.dtd">
<!-- Generated by graphviz version 2.43.0 (0)
 -->
<!-- Title: txatt.C Pages: 1 -->
<svg width="432pt" height="687pt"
 viewBox="0.00 0.00 432.19 687.00" xmlns="http://www.w3.org/2000/svg" xmlns:xlink="http://www.w3.org/1999/xlink">
<g id="graph0" class="graph" transform="scale(1 1) rotate(0) translate(4 683)">
<title>txatt.C</title>
<polygon fill="white" stroke="transparent" points="-4,4 -4,-683 428.19,-683 428.19,4 -4,4"/>
<!-- Node1 -->
<g id="node1" class="node">
<title>Node1</title>
<g id="a_node1"><a xlink:title=" ">
<polygon fill="#bfbfbf" stroke="black" points="166.78,-660.5 166.78,-678.5 211.68,-678.5 211.68,-660.5 166.78,-660.5"/>
<text text-anchor="middle" x="189.23" y="-666.5" font-family="Helvetica,sans-Serif" font-size="10.00">txatt.C</text>
</a>
</g>
</g>
<!-- Node2 -->
<g id="node2" class="node">
<title>Node2</title>
<g id="a_node2"><a xlink:href="../../d7/d79/txinline_8h.html" target="_top" xlink:title=" ">
<polygon fill="white" stroke="black" points="125.5,-605.5 125.5,-623.5 180.97,-623.5 180.97,-605.5 125.5,-605.5"/>
<text text-anchor="middle" x="153.23" y="-611.5" font-family="Helvetica,sans-Serif" font-size="10.00">txinline.h</text>
</a>
</g>
</g>
<!-- Node1&#45;&gt;Node2 -->
<g id="edge1" class="edge">
<title>Node1&#45;&gt;Node2</title>
<path fill="none" stroke="midnightblue" d="M183.61,-660.22C178.5,-652.71 170.83,-641.41 164.47,-632.05"/>
<polygon fill="midnightblue" stroke="midnightblue" points="167.21,-629.86 158.7,-623.55 161.42,-633.79 167.21,-629.86"/>
</g>
<!-- Node28 -->
<g id="node28" class="node">
<title>Node28</title>
<g id="a_node28"><a xlink:href="../../dc/d65/txstack_8h.html" target="_top" xlink:title=" ">
<polygon fill="white" stroke="black" points="224.5,-605.5 224.5,-623.5 279.96,-623.5 279.96,-605.5 224.5,-605.5"/>
<text text-anchor="middle" x="252.23" y="-611.5" font-family="Helvetica,sans-Serif" font-size="10.00">txstack.h</text>
</a>
</g>
</g>
<!-- Node1&#45;&gt;Node28 -->
<g id="edge35" class="edge">
<title>Node1&#45;&gt;Node28</title>
<path fill="none" stroke="midnightblue" d="M198.8,-660.45C208.33,-652.43 223.17,-639.95 234.8,-630.17"/>
<polygon fill="midnightblue" stroke="midnightblue" points="237.17,-632.74 242.57,-623.63 232.67,-627.38 237.17,-632.74"/>
</g>
<!-- Node3 -->
<g id="node3" class="node">
<title>Node3</title>
<g id="a_node3"><a xlink:href="../../d2/d06/txlogger_8h.html" target="_top" xlink:title=" ">
<polygon fill="white" stroke="black" points="123.55,-550.5 123.55,-568.5 182.92,-568.5 182.92,-550.5 123.55,-550.5"/>
<text text-anchor="middle" x="153.23" y="-556.5" font-family="Helvetica,sans-Serif" font-size="10.00">txlogger.h</text>
</a>
</g>
</g>
<!-- Node2&#45;&gt;Node3 -->
<g id="edge2" class="edge">
<title>Node2&#45;&gt;Node3</title>
<path fill="none" stroke="midnightblue" d="M153.23,-605.22C153.23,-598.18 153.23,-587.81 153.23,-578.83"/>
<polygon fill="midnightblue" stroke="midnightblue" points="156.73,-578.55 153.23,-568.55 149.73,-578.55 156.73,-578.55"/>
</g>
<!-- Node26 -->
<g id="node26" class="node">
<title>Node26</title>
<g id="a_node26"><a xlink:href="../../d5/d08/txparam_8h.html" target="_top" xlink:title=" ">
<polygon fill="white" stroke="black" points="0,-440.5 0,-458.5 60.46,-458.5 60.46,-440.5 0,-440.5"/>
<text text-anchor="middle" x="30.23" y="-446.5" font-family="Helvetica,sans-Serif" font-size="10.00">txparam.h</text>
</a>
</g>
</g>
<!-- Node2&#45;&gt;Node26 -->
<g id="edge30" class="edge">
<title>Node2&#45;&gt;Node26</title>
<path fill="none" stroke="midnightblue" d="M140.64,-605.27C118.32,-590.03 71.86,-555.15 47.23,-514 38.98,-500.22 34.66,-482.39 32.45,-469.14"/>
<polygon fill="midnightblue" stroke="midnightblue" points="35.86,-468.29 31,-458.88 28.93,-469.27 35.86,-468.29"/>
</g>
<!-- Node4 -->
<g id="node4" class="node">
<title>Node4</title>
<g id="a_node4"><a xlink:href="../../d7/d4d/txfonts_8h.html" target="_top" xlink:title=" ">
<polygon fill="white" stroke="black" points="196.33,-495.5 196.33,-513.5 250.13,-513.5 250.13,-495.5 196.33,-495.5"/>
<text text-anchor="middle" x="223.23" y="-501.5" font-family="Helvetica,sans-Serif" font-size="10.00">txfonts.h</text>
</a>
</g>
</g>
<!-- Node3&#45;&gt;Node4 -->
<g id="edge3" class="edge">
<title>Node3&#45;&gt;Node4</title>
<path fill="none" stroke="midnightblue" d="M163.86,-550.45C174.55,-542.36 191.26,-529.7 204.24,-519.88"/>
<polygon fill="midnightblue" stroke="midnightblue" points="206.64,-522.45 212.5,-513.63 202.41,-516.87 206.64,-522.45"/>
</g>
<!-- Node24 -->
<g id="node24" class="node">
<title>Node24</title>
<g id="a_node24"><a xlink:title=" ">
<polygon fill="white" stroke="#bfbfbf" points="128.56,-495.5 128.56,-513.5 177.9,-513.5 177.9,-495.5 128.56,-495.5"/>
<text text-anchor="middle" x="153.23" y="-501.5" font-family="Helvetica,sans-Serif" font-size="10.00">fstream</text>
</a>
</g>
</g>
<!-- Node3&#45;&gt;Node24 -->
<g id="edge28" class="edge">
<title>Node3&#45;&gt;Node24</title>
<path fill="none" stroke="midnightblue" d="M153.23,-550.22C153.23,-543.18 153.23,-532.81 153.23,-523.83"/>
<polygon fill="midnightblue" stroke="midnightblue" points="156.73,-523.55 153.23,-513.55 149.73,-523.55 156.73,-523.55"/>
</g>
<!-- Node25 -->
<g id="node25" class="node">
<title>Node25</title>
<g id="a_node25"><a xlink:title=" ">
<polygon fill="white" stroke="#bfbfbf" points="56.06,-495.5 56.06,-513.5 110.4,-513.5 110.4,-495.5 56.06,-495.5"/>
<text text-anchor="middle" x="83.23" y="-501.5" font-family="Helvetica,sans-Serif" font-size="10.00">iostream</text>
</a>
</g>
</g>
<!-- Node3&#45;&gt;Node25 -->
<g id="edge29" class="edge">
<title>Node3&#45;&gt;Node25</title>
<path fill="none" stroke="midnightblue" d="M142.6,-550.45C131.91,-542.36 115.2,-529.7 102.23,-519.88"/>
<polygon fill="midnightblue" stroke="midnightblue" points="104.05,-516.87 93.96,-513.63 99.82,-522.45 104.05,-516.87"/>
</g>
<!-- Node5 -->
<g id="node5" class="node">
<title>Node5</title>
<g id="a_node5"><a xlink:href="../../dc/def/txstring_8h.html" target="_top" xlink:title=" ">
<polygon fill="white" stroke="black" points="194.95,-440.5 194.95,-458.5 251.52,-458.5 251.52,-440.5 194.95,-440.5"/>
<text text-anchor="middle" x="223.23" y="-446.5" font-family="Helvetica,sans-Serif" font-size="10.00">txstring.h</text>
</a>
</g>
</g>
<!-- Node4&#45;&gt;Node5 -->
<g id="edge4" class="edge">
<title>Node4&#45;&gt;Node5</title>
<path fill="none" stroke="midnightblue" d="M223.23,-495.22C223.23,-488.18 223.23,-477.81 223.23,-468.83"/>
<polygon fill="midnightblue" stroke="midnightblue" points="226.73,-468.55 223.23,-458.55 219.73,-468.55 226.73,-468.55"/>
</g>
<!-- Node6 -->
<g id="node6" class="node">
<title>Node6</title>
<g id="a_node6"><a xlink:href="../../dd/d74/txbuffer_8h.html" target="_top" xlink:title=" ">
<polygon fill="white" stroke="black" points="193.75,-385.5 193.75,-403.5 250.71,-403.5 250.71,-385.5 193.75,-385.5"/>
<text text-anchor="middle" x="222.23" y="-391.5" font-family="Helvetica,sans-Serif" font-size="10.00">txbuffer.h</text>
</a>
</g>
</g>
<!-- Node5&#45;&gt;Node6 -->
<g id="edge5" class="edge">
<title>Node5&#45;&gt;Node6</title>
<path fill="none" stroke="midnightblue" d="M223.08,-440.22C222.94,-433.18 222.75,-422.81 222.58,-413.83"/>
<polygon fill="midnightblue" stroke="midnightblue" points="226.07,-413.48 222.38,-403.55 219.07,-413.61 226.07,-413.48"/>
</g>
<!-- Node7 -->
<g id="node7" class="node">
<title>Node7</title>
<g id="a_node7"><a xlink:href="../../d1/d9e/txid_8h.html" target="_top" xlink:title=" ">
<polygon fill="white" stroke="black" points="89.28,-275.5 89.28,-293.5 129.18,-293.5 129.18,-275.5 89.28,-275.5"/>
<text text-anchor="middle" x="109.23" y="-281.5" font-family="Helvetica,sans-Serif" font-size="10.00">txid.h</text>
</a>
</g>
</g>
<!-- Node6&#45;&gt;Node7 -->
<g id="edge6" class="edge">
<title>Node6&#45;&gt;Node7</title>
<path fill="none" stroke="midnightblue" d="M193.73,-386.73C172.8,-380.34 145.17,-368.72 128.23,-349 117.34,-336.32 112.69,-317.57 110.71,-303.73"/>
<polygon fill="midnightblue" stroke="midnightblue" points="114.15,-303.07 109.59,-293.51 107.19,-303.83 114.15,-303.07"/>
</g>
<!-- Node14 -->
<g id="node14" class="node">
<title>Node14</title>
<g id="a_node14"><a xlink:href="../../d9/d18/txscaled_8h.html" target="_top" xlink:title=" ">
<polygon fill="white" stroke="black" points="261.72,-330.5 261.72,-348.5 322.74,-348.5 322.74,-330.5 261.72,-330.5"/>
<text text-anchor="middle" x="292.23" y="-336.5" font-family="Helvetica,sans-Serif" font-size="10.00">txscaled.h</text>
</a>
</g>
</g>
<!-- Node6&#45;&gt;Node14 -->
<g id="edge13" class="edge">
<title>Node6&#45;&gt;Node14</title>
<path fill="none" stroke="midnightblue" d="M232.86,-385.45C243.55,-377.36 260.26,-364.7 273.24,-354.88"/>
<polygon fill="midnightblue" stroke="midnightblue" points="275.64,-357.45 281.5,-348.63 271.41,-351.87 275.64,-357.45"/>
</g>
<!-- Node22 -->
<g id="node22" class="node">
<title>Node22</title>
<g id="a_node22"><a xlink:title=" ">
<polygon fill="white" stroke="#bfbfbf" points="137.5,-330.5 137.5,-348.5 182.96,-348.5 182.96,-330.5 137.5,-330.5"/>
<text text-anchor="middle" x="160.23" y="-336.5" font-family="Helvetica,sans-Serif" font-size="10.00">cstring</text>
</a>
</g>
</g>
<!-- Node6&#45;&gt;Node22 -->
<g id="edge26" class="edge">
<title>Node6&#45;&gt;Node22</title>
<path fill="none" stroke="midnightblue" d="M212.81,-385.45C203.44,-377.43 188.83,-364.95 177.39,-355.17"/>
<polygon fill="midnightblue" stroke="midnightblue" points="179.61,-352.46 169.74,-348.63 175.06,-357.78 179.61,-352.46"/>
</g>
<!-- Node23 -->
<g id="node23" class="node">
<title>Node23</title>
<g id="a_node23"><a xlink:title=" ">
<polygon fill="white" stroke="#bfbfbf" points="200.62,-330.5 200.62,-348.5 243.85,-348.5 243.85,-330.5 200.62,-330.5"/>
<text text-anchor="middle" x="222.23" y="-336.5" font-family="Helvetica,sans-Serif" font-size="10.00">vector</text>
</a>
</g>
</g>
<!-- Node6&#45;&gt;Node23 -->
<g id="edge27" class="edge">
<title>Node6&#45;&gt;Node23</title>
<path fill="none" stroke="midnightblue" d="M222.23,-385.22C222.23,-378.18 222.23,-367.81 222.23,-358.83"/>
<polygon fill="midnightblue" stroke="midnightblue" points="225.73,-358.55 222.23,-348.55 218.73,-358.55 225.73,-358.55"/>
</g>
<!-- Node8 -->
<g id="node8" class="node">
<title>Node8</title>
<g id="a_node8"><a xlink:href="../../dc/de8/txvars_8h.html" target="_top" xlink:title=" ">
<polygon fill="white" stroke="black" points="176.73,-220.5 176.73,-238.5 227.74,-238.5 227.74,-220.5 176.73,-220.5"/>
<text text-anchor="middle" x="202.23" y="-226.5" font-family="Helvetica,sans-Serif" font-size="10.00">txvars.h</text>
</a>
</g>
</g>
<!-- Node7&#45;&gt;Node8 -->
<g id="edge7" class="edge">
<title>Node7&#45;&gt;Node8</title>
<path fill="none" stroke="midnightblue" d="M123.36,-275.45C138.1,-267.05 161.48,-253.72 178.96,-243.76"/>
<polygon fill="midnightblue" stroke="midnightblue" points="181.02,-246.62 187.97,-238.63 177.55,-240.54 181.02,-246.62"/>
</g>
<!-- Node13 -->
<g id="node13" class="node">
<title>Node13</title>
<g id="a_node13"><a xlink:title=" ">
<polygon fill="white" stroke="#bfbfbf" points="72,-165.5 72,-183.5 112.46,-183.5 112.46,-165.5 72,-165.5"/>
<text text-anchor="middle" x="92.23" y="-171.5" font-family="Helvetica,sans-Serif" font-size="10.00">string</text>
</a>
</g>
</g>
<!-- Node7&#45;&gt;Node13 -->
<g id="edge12" class="edge">
<title>Node7&#45;&gt;Node13</title>
<path fill="none" stroke="midnightblue" d="M107.95,-275.38C105.25,-258.18 98.87,-217.7 95.13,-193.89"/>
<polygon fill="midnightblue" stroke="midnightblue" points="98.54,-193.05 93.52,-183.71 91.62,-194.13 98.54,-193.05"/>
</g>
<!-- Node9 -->
<g id="node9" class="node">
<title>Node9</title>
<g id="a_node9"><a xlink:href="../../d0/d0b/enums_8h.html" target="_top" xlink:title=" ">
<polygon fill="white" stroke="black" points="254.61,-110.5 254.61,-128.5 337.85,-128.5 337.85,-110.5 254.61,-110.5"/>
<text text-anchor="middle" x="296.23" y="-116.5" font-family="Helvetica,sans-Serif" font-size="10.00">tralics/enums.h</text>
</a>
</g>
</g>
<!-- Node8&#45;&gt;Node9 -->
<g id="edge8" class="edge">
<title>Node8&#45;&gt;Node9</title>
<path fill="none" stroke="midnightblue" d="M209.3,-220.38C224.81,-202.56 262.09,-159.72 282.43,-136.36"/>
<polygon fill="midnightblue" stroke="midnightblue" points="285.16,-138.55 289.08,-128.71 279.88,-133.96 285.16,-138.55"/>
</g>
<!-- Node12 -->
<g id="node12" class="node">
<title>Node12</title>
<g id="a_node12"><a xlink:title=" ">
<polygon fill="white" stroke="#bfbfbf" points="5.84,-165.5 5.84,-183.5 44.62,-183.5 44.62,-165.5 5.84,-165.5"/>
<text text-anchor="middle" x="25.23" y="-171.5" font-family="Helvetica,sans-Serif" font-size="10.00">array</text>
</a>
</g>
</g>
<!-- Node8&#45;&gt;Node12 -->
<g id="edge11" class="edge">
<title>Node8&#45;&gt;Node12</title>
<path fill="none" stroke="midnightblue" d="M176.49,-220.79C144.08,-211.09 88.54,-194.46 54.53,-184.27"/>
<polygon fill="midnightblue" stroke="midnightblue" points="55.3,-180.85 44.72,-181.33 53.29,-187.56 55.3,-180.85"/>
</g>
<!-- Node10 -->
<g id="node10" class="node">
<title>Node10</title>
<g id="a_node10"><a xlink:href="../../d8/db5/consts_8h.html" target="_top" xlink:title=" ">
<polygon fill="white" stroke="black" points="276.61,-55.5 276.61,-73.5 329.85,-73.5 329.85,-55.5 276.61,-55.5"/>
<text text-anchor="middle" x="303.23" y="-61.5" font-family="Helvetica,sans-Serif" font-size="10.00">consts.h</text>
</a>
</g>
</g>
<!-- Node9&#45;&gt;Node10 -->
<g id="edge9" class="edge">
<title>Node9&#45;&gt;Node10</title>
<path fill="none" stroke="midnightblue" d="M297.33,-110.22C298.27,-103.1 299.66,-92.58 300.85,-83.53"/>
<polygon fill="midnightblue" stroke="midnightblue" points="304.33,-83.92 302.17,-73.55 297.39,-83.01 304.33,-83.92"/>
</g>
<!-- Node11 -->
<g id="node11" class="node">
<title>Node11</title>
<g id="a_node11"><a xlink:href="../../d9/d49/types_8h.html" target="_top" xlink:title=" ">
<polygon fill="white" stroke="black" points="318.11,-0.5 318.11,-18.5 366.35,-18.5 366.35,-0.5 318.11,-0.5"/>
<text text-anchor="middle" x="342.23" y="-6.5" font-family="Helvetica,sans-Serif" font-size="10.00">types.h</text>
</a>
</g>
</g>
<!-- Node10&#45;&gt;Node11 -->
<g id="edge10" class="edge">
<title>Node10&#45;&gt;Node11</title>
<path fill="none" stroke="midnightblue" d="M309.33,-55.22C314.91,-47.63 323.34,-36.18 330.27,-26.76"/>
<polygon fill="midnightblue" stroke="midnightblue" points="333.2,-28.68 336.31,-18.55 327.56,-24.53 333.2,-28.68"/>
</g>
<!-- Node15 -->
<g id="node15" class="node">
<title>Node15</title>
<g id="a_node15"><a xlink:href="../../dc/d91/txtokenlist_8h.html" target="_top" xlink:title=" ">
<polygon fill="white" stroke="black" points="251.83,-275.5 251.83,-293.5 320.63,-293.5 320.63,-275.5 251.83,-275.5"/>
<text text-anchor="middle" x="286.23" y="-281.5" font-family="Helvetica,sans-Serif" font-size="10.00">txtokenlist.h</text>
</a>
</g>
</g>
<!-- Node14&#45;&gt;Node15 -->
<g id="edge14" class="edge">
<title>Node14&#45;&gt;Node15</title>
<path fill="none" stroke="midnightblue" d="M291.29,-330.22C290.49,-323.1 289.3,-312.58 288.27,-303.53"/>
<polygon fill="midnightblue" stroke="midnightblue" points="291.75,-303.09 287.14,-293.55 284.79,-303.88 291.75,-303.09"/>
</g>
<!-- Node15&#45;&gt;Node8 -->
<g id="edge24" class="edge">
<title>Node15&#45;&gt;Node8</title>
<path fill="none" stroke="midnightblue" d="M273.47,-275.45C260.28,-267.12 239.43,-253.97 223.69,-244.04"/>
<polygon fill="midnightblue" stroke="midnightblue" points="225.43,-241 215.11,-238.63 221.7,-246.92 225.43,-241"/>
</g>
<!-- Node16 -->
<g id="node16" class="node">
<title>Node16</title>
<g id="a_node16"><a xlink:href="../../d5/daf/_istring_8h.html" target="_top" xlink:title=" ">
<polygon fill="white" stroke="black" points="246,-220.5 246,-238.5 326.46,-238.5 326.46,-220.5 246,-220.5"/>
<text text-anchor="middle" x="286.23" y="-226.5" font-family="Helvetica,sans-Serif" font-size="10.00">tralics/Istring.h</text>
</a>
</g>
</g>
<!-- Node15&#45;&gt;Node16 -->
<g id="edge15" class="edge">
<title>Node15&#45;&gt;Node16</title>
<path fill="none" stroke="midnightblue" d="M286.23,-275.22C286.23,-268.18 286.23,-257.81 286.23,-248.83"/>
<polygon fill="midnightblue" stroke="midnightblue" points="289.73,-248.55 286.23,-238.55 282.73,-248.55 289.73,-248.55"/>
</g>
<!-- Node17 -->
<g id="node17" class="node">
<title>Node17</title>
<g id="a_node17"><a xlink:href="../../dd/dcd/_token_8h.html" target="_top" xlink:title=" ">
<polygon fill="white" stroke="black" points="344.27,-220.5 344.27,-238.5 424.19,-238.5 424.19,-220.5 344.27,-220.5"/>
<text text-anchor="middle" x="384.23" y="-226.5" font-family="Helvetica,sans-Serif" font-size="10.00">tralics/Token.h</text>
</a>
</g>
</g>
<!-- Node15&#45;&gt;Node17 -->
<g id="edge18" class="edge">
<title>Node15&#45;&gt;Node17</title>
<path fill="none" stroke="midnightblue" d="M301.12,-275.45C316.8,-266.97 341.75,-253.48 360.22,-243.49"/>
<polygon fill="midnightblue" stroke="midnightblue" points="362.08,-246.46 369.21,-238.63 358.75,-240.3 362.08,-246.46"/>
</g>
<!-- Node21 -->
<g id="node21" class="node">
<title>Node21</title>
<g id="a_node21"><a xlink:title=" ">
<polygon fill="white" stroke="#bfbfbf" points="119.84,-220.5 119.84,-238.5 158.62,-238.5 158.62,-220.5 119.84,-220.5"/>
<text text-anchor="middle" x="139.23" y="-226.5" font-family="Helvetica,sans-Serif" font-size="10.00">utility</text>
</a>
</g>
</g>
<!-- Node15&#45;&gt;Node21 -->
<g id="edge25" class="edge">
<title>Node15&#45;&gt;Node21</title>
<path fill="none" stroke="midnightblue" d="M263.91,-275.45C238.44,-266.27 196.7,-251.22 168.61,-241.09"/>
<polygon fill="midnightblue" stroke="midnightblue" points="169.53,-237.7 158.94,-237.6 167.16,-244.29 169.53,-237.7"/>
</g>
<!-- Node16&#45;&gt;Node9 -->
<g id="edge16" class="edge">
<title>Node16&#45;&gt;Node9</title>
<path fill="none" stroke="midnightblue" d="M286.98,-220.38C288.58,-203.18 292.32,-162.7 294.53,-138.89"/>
<polygon fill="midnightblue" stroke="midnightblue" points="298.03,-138.99 295.47,-128.71 291.06,-138.35 298.03,-138.99"/>
</g>
<!-- Node16&#45;&gt;Node13 -->
<g id="edge17" class="edge">
<title>Node16&#45;&gt;Node13</title>
<path fill="none" stroke="midnightblue" d="M256.77,-220.45C220.59,-210.57 159.53,-193.89 122.84,-183.86"/>
<polygon fill="midnightblue" stroke="midnightblue" points="123.3,-180.36 112.73,-181.1 121.45,-187.11 123.3,-180.36"/>
</g>
<!-- Node18 -->
<g id="node18" class="node">
<title>Node18</title>
<g id="a_node18"><a xlink:href="../../d2/d68/_cmd_chr_8h.html" target="_top" xlink:title=" ">
<polygon fill="white" stroke="black" points="357.72,-165.5 357.72,-183.5 418.74,-183.5 418.74,-165.5 357.72,-165.5"/>
<text text-anchor="middle" x="388.23" y="-171.5" font-family="Helvetica,sans-Serif" font-size="10.00">CmdChr.h</text>
</a>
</g>
</g>
<!-- Node17&#45;&gt;Node18 -->
<g id="edge19" class="edge">
<title>Node17&#45;&gt;Node18</title>
<path fill="none" stroke="midnightblue" d="M384.86,-220.22C385.39,-213.1 386.19,-202.58 386.87,-193.53"/>
<polygon fill="midnightblue" stroke="midnightblue" points="390.36,-193.78 387.62,-183.55 383.38,-193.26 390.36,-193.78"/>
</g>
<!-- Node20 -->
<g id="node20" class="node">
<title>Node20</title>
<g id="a_node20"><a xlink:title=" ">
<polygon fill="white" stroke="#bfbfbf" points="310.73,-165.5 310.73,-183.5 339.73,-183.5 339.73,-165.5 310.73,-165.5"/>
<text text-anchor="middle" x="324.84" y="-171.5" font-family="Helvetica,sans-Serif" font-size="10.00">list</text>
</a>
</g>
</g>
<!-- Node17&#45;&gt;Node20 -->
<g id="edge23" class="edge">
<title>Node17&#45;&gt;Node20</title>
<path fill="none" stroke="midnightblue" d="M375.27,-220.45C366.43,-212.51 352.72,-200.19 341.88,-190.45"/>
<polygon fill="midnightblue" stroke="midnightblue" points="344.05,-187.7 334.28,-183.63 339.38,-192.91 344.05,-187.7"/>
</g>
<!-- Node18&#45;&gt;Node9 -->
<g id="edge22" class="edge">
<title>Node18&#45;&gt;Node9</title>
<path fill="none" stroke="midnightblue" d="M374.26,-165.45C359.67,-157.05 336.55,-143.72 319.25,-133.76"/>
<polygon fill="midnightblue" stroke="midnightblue" points="320.75,-130.58 310.34,-128.63 317.25,-136.65 320.75,-130.58"/>
</g>
<!-- Node19 -->
<g id="node19" class="node">
<title>Node19</title>
<g id="a_node19"><a xlink:href="../../d8/d47/codepoint_8h.html" target="_top" xlink:title=" ">
<polygon fill="white" stroke="black" points="350.38,-55.5 350.38,-73.5 418.09,-73.5 418.09,-55.5 350.38,-55.5"/>
<text text-anchor="middle" x="384.23" y="-61.5" font-family="Helvetica,sans-Serif" font-size="10.00">codepoint.h</text>
</a>
</g>
</g>
<!-- Node18&#45;&gt;Node19 -->
<g id="edge20" class="edge">
<title>Node18&#45;&gt;Node19</title>
<path fill="none" stroke="midnightblue" d="M387.93,-165.38C387.29,-148.18 385.79,-107.7 384.91,-83.89"/>
<polygon fill="midnightblue" stroke="midnightblue" points="388.4,-83.58 384.54,-73.71 381.41,-83.83 388.4,-83.58"/>
</g>
<!-- Node19&#45;&gt;Node11 -->
<g id="edge21" class="edge">
<title>Node19&#45;&gt;Node11</title>
<path fill="none" stroke="midnightblue" d="M377.67,-55.22C371.59,-47.55 362.39,-35.94 354.89,-26.47"/>
<polygon fill="midnightblue" stroke="midnightblue" points="357.56,-24.21 348.61,-18.55 352.08,-28.56 357.56,-24.21"/>
</g>
<!-- Node27 -->
<g id="node27" class="node">
<title>Node27</title>
<g id="a_node27"><a xlink:href="../../de/d29/txio_8h.html" target="_top" xlink:title=" ">
<polygon fill="white" stroke="black" points="28.28,-275.5 28.28,-293.5 68.18,-293.5 68.18,-275.5 28.28,-275.5"/>
<text text-anchor="middle" x="48.23" y="-281.5" font-family="Helvetica,sans-Serif" font-size="10.00">txio.h</text>
</a>
</g>
</g>
<!-- Node26&#45;&gt;Node27 -->
<g id="edge31" class="edge">
<title>Node26&#45;&gt;Node27</title>
<path fill="none" stroke="midnightblue" d="M31.15,-440.19C33.93,-415.01 42.31,-339.11 46.2,-303.86"/>
<polygon fill="midnightblue" stroke="midnightblue" points="49.72,-303.92 47.34,-293.6 42.76,-303.15 49.72,-303.92"/>
</g>
<!-- Node27&#45;&gt;Node12 -->
<g id="edge32" class="edge">
<title>Node27&#45;&gt;Node12</title>
<path fill="none" stroke="midnightblue" d="M46.5,-275.38C42.82,-258.1 34.14,-217.33 29.08,-193.56"/>
<polygon fill="midnightblue" stroke="midnightblue" points="32.49,-192.76 26.98,-183.71 25.64,-194.22 32.49,-192.76"/>
</g>
<!-- Node27&#45;&gt;Node13 -->
<g id="edge33" class="edge">
<title>Node27&#45;&gt;Node13</title>
<path fill="none" stroke="midnightblue" d="M51.54,-275.38C58.61,-258.03 75.34,-216.96 85,-193.24"/>
<polygon fill="midnightblue" stroke="midnightblue" points="88.35,-194.29 88.89,-183.71 81.87,-191.65 88.35,-194.29"/>
</g>
<!-- Node27&#45;&gt;Node21 -->
<g id="edge34" class="edge">
<title>Node27&#45;&gt;Node21</title>
<path fill="none" stroke="midnightblue" d="M62.05,-275.45C76.48,-267.05 99.36,-253.72 116.46,-243.76"/>
<polygon fill="midnightblue" stroke="midnightblue" points="118.4,-246.68 125.28,-238.63 114.88,-240.63 118.4,-246.68"/>
</g>
<!-- Node29 -->
<g id="node29" class="node">
<title>Node29</title>
<g id="a_node29"><a xlink:href="../../d4/da4/txatt_8h.html" target="_top" xlink:title=" ">
<polygon fill="white" stroke="black" points="230.61,-550.5 230.61,-568.5 273.85,-568.5 273.85,-550.5 230.61,-550.5"/>
<text text-anchor="middle" x="252.23" y="-556.5" font-family="Helvetica,sans-Serif" font-size="10.00">txatt.h</text>
</a>
</g>
</g>
<!-- Node28&#45;&gt;Node29 -->
<g id="edge36" class="edge">
<title>Node28&#45;&gt;Node29</title>
<path fill="none" stroke="midnightblue" d="M252.23,-605.22C252.23,-598.18 252.23,-587.81 252.23,-578.83"/>
<polygon fill="midnightblue" stroke="midnightblue" points="255.73,-578.55 252.23,-568.55 248.73,-578.55 255.73,-578.55"/>
</g>
<!-- Node30 -->
<g id="node30" class="node">
<title>Node30</title>
<g id="a_node30"><a xlink:href="../../d1/d43/txxml_8h.html" target="_top" xlink:title=" ">
<polygon fill="white" stroke="black" points="291.4,-550.5 291.4,-568.5 339.07,-568.5 339.07,-550.5 291.4,-550.5"/>
<text text-anchor="middle" x="315.23" y="-556.5" font-family="Helvetica,sans-Serif" font-size="10.00">txxml.h</text>
</a>
</g>
</g>
<!-- Node28&#45;&gt;Node30 -->
<g id="edge38" class="edge">
<title>Node28&#45;&gt;Node30</title>
<path fill="none" stroke="midnightblue" d="M261.8,-605.45C271.33,-597.43 286.17,-584.95 297.8,-575.17"/>
<polygon fill="midnightblue" stroke="midnightblue" points="300.17,-577.74 305.57,-568.63 295.67,-572.38 300.17,-577.74"/>
</g>
<!-- Node29&#45;&gt;Node5 -->
<g id="edge37" class="edge">
<title>Node29&#45;&gt;Node5</title>
<path fill="none" stroke="midnightblue" d="M255.34,-550.42C259.59,-538.1 265.97,-514.03 259.23,-495 255.3,-483.9 247.3,-473.54 239.83,-465.61"/>
<polygon fill="midnightblue" stroke="midnightblue" points="242.28,-463.12 232.72,-458.56 237.36,-468.09 242.28,-463.12"/>
</g>
</g>
</svg>
