<?xml version="1.0" encoding="UTF-8" standalone="no"?>
<!DOCTYPE svg PUBLIC "-//W3C//DTD SVG 1.1//EN"
 "http://www.w3.org/Graphics/SVG/1.1/DTD/svg11.dtd">
<!-- Generated by graphviz version 2.42.3 (20191010.1750)
 -->
<!-- Title: txatt.C Pages: 1 -->
<svg width="442pt" height="687pt"
 viewBox="0.00 0.00 442.01 687.00" xmlns="http://www.w3.org/2000/svg" xmlns:xlink="http://www.w3.org/1999/xlink">
<g id="graph0" class="graph" transform="scale(1 1) rotate(0) translate(4 683)">
<title>txatt.C</title>
<polygon fill="white" stroke="transparent" points="-4,4 -4,-683 438.01,-683 438.01,4 -4,4"/>
<!-- Node1 -->
<g id="node1" class="node">
<title>Node1</title>
<g id="a_node1"><a xlink:title=" ">
<polygon fill="#bfbfbf" stroke="black" points="231.94,-660.5 231.94,-678.5 276.84,-678.5 276.84,-660.5 231.94,-660.5"/>
<text text-anchor="middle" x="254.39" y="-666.5" font-family="Helvetica,sans-Serif" font-size="10.00">txatt.C</text>
</a>
</g>
</g>
<!-- Node2 -->
<g id="node2" class="node">
<title>Node2</title>
<g id="a_node2"><a xlink:href="../../d7/d79/txinline_8h.html" target="_top" xlink:title=" ">
<polygon fill="white" stroke="black" points="180.66,-605.5 180.66,-623.5 236.13,-623.5 236.13,-605.5 180.66,-605.5"/>
<text text-anchor="middle" x="208.39" y="-611.5" font-family="Helvetica,sans-Serif" font-size="10.00">txinline.h</text>
</a>
</g>
</g>
<!-- Node1&#45;&gt;Node2 -->
<g id="edge1" class="edge">
<title>Node1&#45;&gt;Node2</title>
<path fill="none" stroke="midnightblue" d="M247.2,-660.22C240.48,-652.47 230.26,-640.7 222,-631.18"/>
<polygon fill="midnightblue" stroke="midnightblue" points="224.58,-628.81 215.38,-623.55 219.29,-633.4 224.58,-628.81"/>
</g>
<!-- Node31 -->
<g id="node31" class="node">
<title>Node31</title>
<g id="a_node31"><a xlink:href="../../dc/d65/txstack_8h.html" target="_top" xlink:title=" ">
<polygon fill="white" stroke="black" points="321.66,-605.5 321.66,-623.5 377.12,-623.5 377.12,-605.5 321.66,-605.5"/>
<text text-anchor="middle" x="349.39" y="-611.5" font-family="Helvetica,sans-Serif" font-size="10.00">txstack.h</text>
</a>
</g>
</g>
<!-- Node1&#45;&gt;Node31 -->
<g id="edge38" class="edge">
<title>Node1&#45;&gt;Node31</title>
<path fill="none" stroke="midnightblue" d="M268.82,-660.45C283.89,-652.05 307.76,-638.72 325.62,-628.76"/>
<polygon fill="midnightblue" stroke="midnightblue" points="327.8,-631.55 334.83,-623.63 324.39,-625.44 327.8,-631.55"/>
</g>
<!-- Node3 -->
<g id="node3" class="node">
<title>Node3</title>
<g id="a_node3"><a xlink:href="../../d4/de9/_main_class_8h.html" target="_top" xlink:title=" ">
<polygon fill="white" stroke="black" points="207.44,-550.5 207.44,-568.5 307.35,-568.5 307.35,-550.5 207.44,-550.5"/>
<text text-anchor="middle" x="257.39" y="-556.5" font-family="Helvetica,sans-Serif" font-size="10.00">tralics/MainClass.h</text>
</a>
</g>
</g>
<!-- Node2&#45;&gt;Node3 -->
<g id="edge2" class="edge">
<title>Node2&#45;&gt;Node3</title>
<path fill="none" stroke="midnightblue" d="M216.05,-605.22C223.21,-597.47 234.09,-585.7 242.9,-576.18"/>
<polygon fill="midnightblue" stroke="midnightblue" points="245.73,-578.27 249.95,-568.55 240.59,-573.52 245.73,-578.27"/>
</g>
<!-- Node28 -->
<g id="node28" class="node">
<title>Node28</title>
<g id="a_node28"><a xlink:href="../../d2/d06/txlogger_8h.html" target="_top" xlink:title=" ">
<polygon fill="white" stroke="black" points="51.71,-550.5 51.71,-568.5 111.08,-568.5 111.08,-550.5 51.71,-550.5"/>
<text text-anchor="middle" x="81.39" y="-556.5" font-family="Helvetica,sans-Serif" font-size="10.00">txlogger.h</text>
</a>
</g>
</g>
<!-- Node2&#45;&gt;Node28 -->
<g id="edge33" class="edge">
<title>Node2&#45;&gt;Node28</title>
<path fill="none" stroke="midnightblue" d="M189.1,-605.45C168.12,-596.7 134.36,-582.61 110.23,-572.53"/>
<polygon fill="midnightblue" stroke="midnightblue" points="111.44,-569.25 100.86,-568.63 108.74,-575.71 111.44,-569.25"/>
</g>
<!-- Node30 -->
<g id="node30" class="node">
<title>Node30</title>
<g id="a_node30"><a xlink:href="../../d5/d08/txparam_8h.html" target="_top" xlink:title=" ">
<polygon fill="white" stroke="black" points="129.16,-550.5 129.16,-568.5 189.62,-568.5 189.62,-550.5 129.16,-550.5"/>
<text text-anchor="middle" x="159.39" y="-556.5" font-family="Helvetica,sans-Serif" font-size="10.00">txparam.h</text>
</a>
</g>
</g>
<!-- Node2&#45;&gt;Node30 -->
<g id="edge36" class="edge">
<title>Node2&#45;&gt;Node30</title>
<path fill="none" stroke="midnightblue" d="M200.74,-605.22C193.57,-597.47 182.69,-585.7 173.89,-576.18"/>
<polygon fill="midnightblue" stroke="midnightblue" points="176.19,-573.52 166.83,-568.55 171.05,-578.27 176.19,-573.52"/>
</g>
<!-- Node4 -->
<g id="node4" class="node">
<title>Node4</title>
<g id="a_node4"><a xlink:href="../../de/d29/txio_8h.html" target="_top" xlink:title=" ">
<polygon fill="white" stroke="black" points="170.27,-495.5 170.27,-513.5 218.51,-513.5 218.51,-495.5 170.27,-495.5"/>
<text text-anchor="middle" x="194.39" y="-501.5" font-family="Helvetica,sans-Serif" font-size="10.00">../txio.h</text>
</a>
</g>
</g>
<!-- Node3&#45;&gt;Node4 -->
<g id="edge3" class="edge">
<title>Node3&#45;&gt;Node4</title>
<path fill="none" stroke="midnightblue" d="M247.82,-550.45C238.29,-542.43 223.45,-529.95 211.83,-520.17"/>
<polygon fill="midnightblue" stroke="midnightblue" points="213.96,-517.38 204.05,-513.63 209.45,-522.74 213.96,-517.38"/>
</g>
<!-- Node27 -->
<g id="node27" class="node">
<title>Node27</title>
<g id="a_node27"><a xlink:href="../../dc/def/txstring_8h.html" target="_top" xlink:title=" ">
<polygon fill="white" stroke="black" points="236.94,-495.5 236.94,-513.5 301.84,-513.5 301.84,-495.5 236.94,-495.5"/>
<text text-anchor="middle" x="269.39" y="-501.5" font-family="Helvetica,sans-Serif" font-size="10.00">../txstring.h</text>
</a>
</g>
</g>
<!-- Node3&#45;&gt;Node27 -->
<g id="edge31" class="edge">
<title>Node3&#45;&gt;Node27</title>
<path fill="none" stroke="midnightblue" d="M259.27,-550.22C260.88,-543.1 263.26,-532.58 265.31,-523.53"/>
<polygon fill="midnightblue" stroke="midnightblue" points="268.77,-524.08 267.57,-513.55 261.95,-522.53 268.77,-524.08"/>
</g>
<!-- Node5 -->
<g id="node5" class="node">
<title>Node5</title>
<g id="a_node5"><a xlink:href="../../dd/d74/txbuffer_8h.html" target="_top" xlink:title=" ">
<polygon fill="white" stroke="black" points="202.91,-440.5 202.91,-458.5 259.88,-458.5 259.88,-440.5 202.91,-440.5"/>
<text text-anchor="middle" x="231.39" y="-446.5" font-family="Helvetica,sans-Serif" font-size="10.00">txbuffer.h</text>
</a>
</g>
</g>
<!-- Node4&#45;&gt;Node5 -->
<g id="edge4" class="edge">
<title>Node4&#45;&gt;Node5</title>
<path fill="none" stroke="midnightblue" d="M200.17,-495.22C205.47,-487.63 213.47,-476.18 220.04,-466.76"/>
<polygon fill="midnightblue" stroke="midnightblue" points="222.92,-468.75 225.77,-458.55 217.18,-464.75 222.92,-468.75"/>
</g>
<!-- Node26 -->
<g id="node26" class="node">
<title>Node26</title>
<g id="a_node26"><a xlink:title=" ">
<polygon fill="white" stroke="#bfbfbf" points="109.72,-440.5 109.72,-458.5 159.06,-458.5 159.06,-440.5 109.72,-440.5"/>
<text text-anchor="middle" x="134.39" y="-446.5" font-family="Helvetica,sans-Serif" font-size="10.00">fstream</text>
</a>
</g>
</g>
<!-- Node4&#45;&gt;Node26 -->
<g id="edge30" class="edge">
<title>Node4&#45;&gt;Node26</title>
<path fill="none" stroke="midnightblue" d="M185.28,-495.45C176.29,-487.51 162.34,-475.19 151.32,-465.45"/>
<polygon fill="midnightblue" stroke="midnightblue" points="153.4,-462.62 143.59,-458.63 148.77,-467.87 153.4,-462.62"/>
</g>
<!-- Node6 -->
<g id="node6" class="node">
<title>Node6</title>
<g id="a_node6"><a xlink:href="../../d1/d9e/txid_8h.html" target="_top" xlink:title=" ">
<polygon fill="white" stroke="black" points="72.44,-330.5 72.44,-348.5 112.34,-348.5 112.34,-330.5 72.44,-330.5"/>
<text text-anchor="middle" x="92.39" y="-336.5" font-family="Helvetica,sans-Serif" font-size="10.00">txid.h</text>
</a>
</g>
</g>
<!-- Node5&#45;&gt;Node6 -->
<g id="edge5" class="edge">
<title>Node5&#45;&gt;Node6</title>
<path fill="none" stroke="midnightblue" d="M202.55,-443.29C177.96,-437.51 143.08,-425.93 120.39,-404 107.68,-391.71 100.34,-372.64 96.39,-358.61"/>
<polygon fill="midnightblue" stroke="midnightblue" points="99.72,-357.51 93.91,-348.65 92.93,-359.2 99.72,-357.51"/>
</g>
<!-- Node15 -->
<g id="node15" class="node">
<title>Node15</title>
<g id="a_node15"><a xlink:href="../../d9/d18/txscaled_8h.html" target="_top" xlink:title=" ">
<polygon fill="white" stroke="black" points="129.88,-385.5 129.88,-403.5 190.9,-403.5 190.9,-385.5 129.88,-385.5"/>
<text text-anchor="middle" x="160.39" y="-391.5" font-family="Helvetica,sans-Serif" font-size="10.00">txscaled.h</text>
</a>
</g>
</g>
<!-- Node5&#45;&gt;Node15 -->
<g id="edge14" class="edge">
<title>Node5&#45;&gt;Node15</title>
<path fill="none" stroke="midnightblue" d="M220.61,-440.45C209.77,-432.36 192.82,-419.7 179.66,-409.88"/>
<polygon fill="midnightblue" stroke="midnightblue" points="181.38,-406.8 171.28,-403.63 177.2,-412.41 181.38,-406.8"/>
</g>
<!-- Node23 -->
<g id="node23" class="node">
<title>Node23</title>
<g id="a_node23"><a xlink:title=" ">
<polygon fill="white" stroke="#bfbfbf" points="208.67,-385.5 208.67,-403.5 254.12,-403.5 254.12,-385.5 208.67,-385.5"/>
<text text-anchor="middle" x="231.39" y="-391.5" font-family="Helvetica,sans-Serif" font-size="10.00">cstring</text>
</a>
</g>
</g>
<!-- Node5&#45;&gt;Node23 -->
<g id="edge27" class="edge">
<title>Node5&#45;&gt;Node23</title>
<path fill="none" stroke="midnightblue" d="M231.39,-440.22C231.39,-433.18 231.39,-422.81 231.39,-413.83"/>
<polygon fill="midnightblue" stroke="midnightblue" points="234.89,-413.55 231.39,-403.55 227.89,-413.55 234.89,-413.55"/>
</g>
<!-- Node24 -->
<g id="node24" class="node">
<title>Node24</title>
<g id="a_node24"><a xlink:title=" ">
<polygon fill="white" stroke="#bfbfbf" points="271.88,-385.5 271.88,-403.5 322.91,-403.5 322.91,-385.5 271.88,-385.5"/>
<text text-anchor="middle" x="297.39" y="-391.5" font-family="Helvetica,sans-Serif" font-size="10.00">optional</text>
</a>
</g>
</g>
<!-- Node5&#45;&gt;Node24 -->
<g id="edge28" class="edge">
<title>Node5&#45;&gt;Node24</title>
<path fill="none" stroke="midnightblue" d="M241.42,-440.45C251.4,-432.43 266.95,-419.95 279.13,-410.17"/>
<polygon fill="midnightblue" stroke="midnightblue" points="281.67,-412.62 287.27,-403.63 277.28,-407.16 281.67,-412.62"/>
</g>
<!-- Node25 -->
<g id="node25" class="node">
<title>Node25</title>
<g id="a_node25"><a xlink:title=" ">
<polygon fill="white" stroke="#bfbfbf" points="340.78,-385.5 340.78,-403.5 384.01,-403.5 384.01,-385.5 340.78,-385.5"/>
<text text-anchor="middle" x="362.39" y="-391.5" font-family="Helvetica,sans-Serif" font-size="10.00">vector</text>
</a>
</g>
</g>
<!-- Node5&#45;&gt;Node25 -->
<g id="edge29" class="edge">
<title>Node5&#45;&gt;Node25</title>
<path fill="none" stroke="midnightblue" d="M251.29,-440.45C273.02,-431.66 308.06,-417.48 332.98,-407.4"/>
<polygon fill="midnightblue" stroke="midnightblue" points="334.35,-410.62 342.31,-403.63 331.73,-404.13 334.35,-410.62"/>
</g>
<!-- Node7 -->
<g id="node7" class="node">
<title>Node7</title>
<g id="a_node7"><a xlink:href="../../dc/de8/txvars_8h.html" target="_top" xlink:title=" ">
<polygon fill="white" stroke="black" points="14.89,-275.5 14.89,-293.5 65.9,-293.5 65.9,-275.5 14.89,-275.5"/>
<text text-anchor="middle" x="40.39" y="-281.5" font-family="Helvetica,sans-Serif" font-size="10.00">txvars.h</text>
</a>
</g>
</g>
<!-- Node6&#45;&gt;Node7 -->
<g id="edge6" class="edge">
<title>Node6&#45;&gt;Node7</title>
<path fill="none" stroke="midnightblue" d="M84.27,-330.22C76.59,-322.39 64.88,-310.46 55.49,-300.89"/>
<polygon fill="midnightblue" stroke="midnightblue" points="57.79,-298.24 48.29,-293.55 52.79,-303.14 57.79,-298.24"/>
</g>
<!-- Node14 -->
<g id="node14" class="node">
<title>Node14</title>
<g id="a_node14"><a xlink:title=" ">
<polygon fill="white" stroke="#bfbfbf" points="94.17,-220.5 94.17,-238.5 134.62,-238.5 134.62,-220.5 94.17,-220.5"/>
<text text-anchor="middle" x="114.39" y="-226.5" font-family="Helvetica,sans-Serif" font-size="10.00">string</text>
</a>
</g>
</g>
<!-- Node6&#45;&gt;Node14 -->
<g id="edge13" class="edge">
<title>Node6&#45;&gt;Node14</title>
<path fill="none" stroke="midnightblue" d="M94.05,-330.38C97.56,-313.1 105.87,-272.33 110.71,-248.56"/>
<polygon fill="midnightblue" stroke="midnightblue" points="114.15,-249.21 112.72,-238.71 107.29,-247.81 114.15,-249.21"/>
</g>
<!-- Node8 -->
<g id="node8" class="node">
<title>Node8</title>
<g id="a_node8"><a xlink:href="../../d0/d0b/enums_8h.html" target="_top" xlink:title=" ">
<polygon fill="white" stroke="black" points="134.77,-165.5 134.77,-183.5 218.01,-183.5 218.01,-165.5 134.77,-165.5"/>
<text text-anchor="middle" x="176.39" y="-171.5" font-family="Helvetica,sans-Serif" font-size="10.00">tralics/enums.h</text>
</a>
</g>
</g>
<!-- Node7&#45;&gt;Node8 -->
<g id="edge7" class="edge">
<title>Node7&#45;&gt;Node8</title>
<path fill="none" stroke="midnightblue" d="M44.57,-275.08C51.49,-261.86 66.45,-236.1 85.39,-220 102.2,-205.71 124.39,-194.74 142.65,-187.27"/>
<polygon fill="midnightblue" stroke="midnightblue" points="144.02,-190.49 152.06,-183.58 141.47,-183.97 144.02,-190.49"/>
</g>
<!-- Node13 -->
<g id="node13" class="node">
<title>Node13</title>
<g id="a_node13"><a xlink:title=" ">
<polygon fill="white" stroke="#bfbfbf" points="0,-220.5 0,-238.5 38.78,-238.5 38.78,-220.5 0,-220.5"/>
<text text-anchor="middle" x="19.39" y="-226.5" font-family="Helvetica,sans-Serif" font-size="10.00">array</text>
</a>
</g>
</g>
<!-- Node7&#45;&gt;Node13 -->
<g id="edge12" class="edge">
<title>Node7&#45;&gt;Node13</title>
<path fill="none" stroke="midnightblue" d="M37.11,-275.22C34.23,-267.94 29.94,-257.11 26.3,-247.93"/>
<polygon fill="midnightblue" stroke="midnightblue" points="29.52,-246.56 22.58,-238.55 23.01,-249.14 29.52,-246.56"/>
</g>
<!-- Node9 -->
<g id="node9" class="node">
<title>Node9</title>
<g id="a_node9"><a xlink:href="../../d8/db5/consts_8h.html" target="_top" xlink:title=" ">
<polygon fill="white" stroke="black" points="156.77,-110.5 156.77,-128.5 210.01,-128.5 210.01,-110.5 156.77,-110.5"/>
<text text-anchor="middle" x="183.39" y="-116.5" font-family="Helvetica,sans-Serif" font-size="10.00">consts.h</text>
</a>
</g>
</g>
<!-- Node8&#45;&gt;Node9 -->
<g id="edge8" class="edge">
<title>Node8&#45;&gt;Node9</title>
<path fill="none" stroke="midnightblue" d="M177.49,-165.22C178.43,-158.1 179.82,-147.58 181.01,-138.53"/>
<polygon fill="midnightblue" stroke="midnightblue" points="184.49,-138.92 182.33,-128.55 177.55,-138.01 184.49,-138.92"/>
</g>
<!-- Node10 -->
<g id="node10" class="node">
<title>Node10</title>
<g id="a_node10"><a xlink:href="../../d9/d49/types_8h.html" target="_top" xlink:title=" ">
<polygon fill="white" stroke="black" points="198.27,-55.5 198.27,-73.5 246.51,-73.5 246.51,-55.5 198.27,-55.5"/>
<text text-anchor="middle" x="222.39" y="-61.5" font-family="Helvetica,sans-Serif" font-size="10.00">types.h</text>
</a>
</g>
</g>
<!-- Node9&#45;&gt;Node10 -->
<g id="edge9" class="edge">
<title>Node9&#45;&gt;Node10</title>
<path fill="none" stroke="midnightblue" d="M189.49,-110.22C195.07,-102.63 203.5,-91.18 210.43,-81.76"/>
<polygon fill="midnightblue" stroke="midnightblue" points="213.36,-83.68 216.47,-73.55 207.72,-79.53 213.36,-83.68"/>
</g>
<!-- Node11 -->
<g id="node11" class="node">
<title>Node11</title>
<g id="a_node11"><a xlink:title=" ">
<polygon fill="white" stroke="#bfbfbf" points="162.28,-0.5 162.28,-18.5 210.51,-18.5 210.51,-0.5 162.28,-0.5"/>
<text text-anchor="middle" x="186.39" y="-6.5" font-family="Helvetica,sans-Serif" font-size="10.00">cassert</text>
</a>
</g>
</g>
<!-- Node10&#45;&gt;Node11 -->
<g id="edge10" class="edge">
<title>Node10&#45;&gt;Node11</title>
<path fill="none" stroke="midnightblue" d="M216.77,-55.22C211.66,-47.71 203.99,-36.41 197.63,-27.05"/>
<polygon fill="midnightblue" stroke="midnightblue" points="200.37,-24.86 191.86,-18.55 194.58,-28.79 200.37,-24.86"/>
</g>
<!-- Node12 -->
<g id="node12" class="node">
<title>Node12</title>
<g id="a_node12"><a xlink:title=" ">
<polygon fill="white" stroke="#bfbfbf" points="228.33,-0.5 228.33,-18.5 290.46,-18.5 290.46,-0.5 228.33,-0.5"/>
<text text-anchor="middle" x="259.39" y="-6.5" font-family="Helvetica,sans-Serif" font-size="10.00">type_traits</text>
</a>
</g>
</g>
<!-- Node10&#45;&gt;Node12 -->
<g id="edge11" class="edge">
<title>Node10&#45;&gt;Node12</title>
<path fill="none" stroke="midnightblue" d="M228.17,-55.22C233.47,-47.63 241.47,-36.18 248.04,-26.76"/>
<polygon fill="midnightblue" stroke="midnightblue" points="250.92,-28.75 253.77,-18.55 245.18,-24.75 250.92,-28.75"/>
</g>
<!-- Node16 -->
<g id="node16" class="node">
<title>Node16</title>
<g id="a_node16"><a xlink:href="../../dc/d91/txtokenlist_8h.html" target="_top" xlink:title=" ">
<polygon fill="white" stroke="black" points="129.99,-330.5 129.99,-348.5 198.79,-348.5 198.79,-330.5 129.99,-330.5"/>
<text text-anchor="middle" x="164.39" y="-336.5" font-family="Helvetica,sans-Serif" font-size="10.00">txtokenlist.h</text>
</a>
</g>
</g>
<!-- Node15&#45;&gt;Node16 -->
<g id="edge15" class="edge">
<title>Node15&#45;&gt;Node16</title>
<path fill="none" stroke="midnightblue" d="M161.02,-385.22C161.55,-378.1 162.35,-367.58 163.03,-358.53"/>
<polygon fill="midnightblue" stroke="midnightblue" points="166.52,-358.78 163.78,-348.55 159.54,-358.26 166.52,-358.78"/>
</g>
<!-- Node16&#45;&gt;Node7 -->
<g id="edge25" class="edge">
<title>Node16&#45;&gt;Node7</title>
<path fill="none" stroke="midnightblue" d="M145.56,-330.45C125.17,-321.73 92.4,-307.73 68.86,-297.67"/>
<polygon fill="midnightblue" stroke="midnightblue" points="69.97,-294.34 59.4,-293.63 67.22,-300.77 69.97,-294.34"/>
</g>
<!-- Node17 -->
<g id="node17" class="node">
<title>Node17</title>
<g id="a_node17"><a xlink:href="../../d5/daf/_istring_8h.html" target="_top" xlink:title=" ">
<polygon fill="white" stroke="black" points="122.16,-275.5 122.16,-293.5 202.62,-293.5 202.62,-275.5 122.16,-275.5"/>
<text text-anchor="middle" x="162.39" y="-281.5" font-family="Helvetica,sans-Serif" font-size="10.00">tralics/Istring.h</text>
</a>
</g>
</g>
<!-- Node16&#45;&gt;Node17 -->
<g id="edge16" class="edge">
<title>Node16&#45;&gt;Node17</title>
<path fill="none" stroke="midnightblue" d="M164.08,-330.22C163.81,-323.18 163.42,-312.81 163.08,-303.83"/>
<polygon fill="midnightblue" stroke="midnightblue" points="166.57,-303.41 162.7,-293.55 159.58,-303.67 166.57,-303.41"/>
</g>
<!-- Node18 -->
<g id="node18" class="node">
<title>Node18</title>
<g id="a_node18"><a xlink:href="../../dd/dcd/_token_8h.html" target="_top" xlink:title=" ">
<polygon fill="white" stroke="black" points="220.43,-275.5 220.43,-293.5 300.35,-293.5 300.35,-275.5 220.43,-275.5"/>
<text text-anchor="middle" x="260.39" y="-281.5" font-family="Helvetica,sans-Serif" font-size="10.00">tralics/Token.h</text>
</a>
</g>
</g>
<!-- Node16&#45;&gt;Node18 -->
<g id="edge19" class="edge">
<title>Node16&#45;&gt;Node18</title>
<path fill="none" stroke="midnightblue" d="M178.97,-330.45C194.34,-321.97 218.77,-308.48 236.87,-298.49"/>
<polygon fill="midnightblue" stroke="midnightblue" points="238.61,-301.52 245.67,-293.63 235.23,-295.39 238.61,-301.52"/>
</g>
<!-- Node22 -->
<g id="node22" class="node">
<title>Node22</title>
<g id="a_node22"><a xlink:title=" ">
<polygon fill="white" stroke="#bfbfbf" points="318,-275.5 318,-293.5 356.78,-293.5 356.78,-275.5 318,-275.5"/>
<text text-anchor="middle" x="337.39" y="-281.5" font-family="Helvetica,sans-Serif" font-size="10.00">utility</text>
</a>
</g>
</g>
<!-- Node16&#45;&gt;Node22 -->
<g id="edge26" class="edge">
<title>Node16&#45;&gt;Node22</title>
<path fill="none" stroke="midnightblue" d="M190.67,-330.45C222.22,-320.78 275.02,-304.61 307.93,-294.53"/>
<polygon fill="midnightblue" stroke="midnightblue" points="309.33,-297.76 317.86,-291.48 307.28,-291.07 309.33,-297.76"/>
</g>
<!-- Node17&#45;&gt;Node8 -->
<g id="edge17" class="edge">
<title>Node17&#45;&gt;Node8</title>
<path fill="none" stroke="midnightblue" d="M163.44,-275.38C165.67,-258.18 170.92,-217.7 174.01,-193.89"/>
<polygon fill="midnightblue" stroke="midnightblue" points="177.51,-194.08 175.33,-183.71 170.57,-193.18 177.51,-194.08"/>
</g>
<!-- Node17&#45;&gt;Node14 -->
<g id="edge18" class="edge">
<title>Node17&#45;&gt;Node14</title>
<path fill="none" stroke="midnightblue" d="M154.89,-275.22C147.88,-267.47 137.22,-255.7 128.59,-246.18"/>
<polygon fill="midnightblue" stroke="midnightblue" points="130.99,-243.61 121.68,-238.55 125.8,-248.31 130.99,-243.61"/>
</g>
<!-- Node19 -->
<g id="node19" class="node">
<title>Node19</title>
<g id="a_node19"><a xlink:href="../../d2/d68/_cmd_chr_8h.html" target="_top" xlink:title=" ">
<polygon fill="white" stroke="black" points="237.88,-220.5 237.88,-238.5 298.9,-238.5 298.9,-220.5 237.88,-220.5"/>
<text text-anchor="middle" x="268.39" y="-226.5" font-family="Helvetica,sans-Serif" font-size="10.00">CmdChr.h</text>
</a>
</g>
</g>
<!-- Node18&#45;&gt;Node19 -->
<g id="edge20" class="edge">
<title>Node18&#45;&gt;Node19</title>
<path fill="none" stroke="midnightblue" d="M261.64,-275.22C262.72,-268.1 264.3,-257.58 265.67,-248.53"/>
<polygon fill="midnightblue" stroke="midnightblue" points="269.14,-248.96 267.18,-238.55 262.22,-247.92 269.14,-248.96"/>
</g>
<!-- Node21 -->
<g id="node21" class="node">
<title>Node21</title>
<g id="a_node21"><a xlink:title=" ">
<polygon fill="white" stroke="#bfbfbf" points="190.89,-220.5 190.89,-238.5 219.89,-238.5 219.89,-220.5 190.89,-220.5"/>
<text text-anchor="middle" x="205" y="-226.5" font-family="Helvetica,sans-Serif" font-size="10.00">list</text>
</a>
</g>
</g>
<!-- Node18&#45;&gt;Node21 -->
<g id="edge24" class="edge">
<title>Node18&#45;&gt;Node21</title>
<path fill="none" stroke="midnightblue" d="M251.8,-275.22C243.6,-267.32 231.05,-255.22 221.07,-245.61"/>
<polygon fill="midnightblue" stroke="midnightblue" points="223.37,-242.97 213.74,-238.55 218.52,-248.01 223.37,-242.97"/>
</g>
<!-- Node19&#45;&gt;Node8 -->
<g id="edge23" class="edge">
<title>Node19&#45;&gt;Node8</title>
<path fill="none" stroke="midnightblue" d="M254.42,-220.45C239.83,-212.05 216.71,-198.72 199.41,-188.76"/>
<polygon fill="midnightblue" stroke="midnightblue" points="200.91,-185.58 190.5,-183.63 197.41,-191.65 200.91,-185.58"/>
</g>
<!-- Node20 -->
<g id="node20" class="node">
<title>Node20</title>
<g id="a_node20"><a xlink:href="../../d8/d47/codepoint_8h.html" target="_top" xlink:title=" ">
<polygon fill="white" stroke="black" points="230.54,-110.5 230.54,-128.5 298.25,-128.5 298.25,-110.5 230.54,-110.5"/>
<text text-anchor="middle" x="264.39" y="-116.5" font-family="Helvetica,sans-Serif" font-size="10.00">codepoint.h</text>
</a>
</g>
</g>
<!-- Node19&#45;&gt;Node20 -->
<g id="edge21" class="edge">
<title>Node19&#45;&gt;Node20</title>
<path fill="none" stroke="midnightblue" d="M268.09,-220.38C267.45,-203.18 265.95,-162.7 265.07,-138.89"/>
<polygon fill="midnightblue" stroke="midnightblue" points="268.56,-138.58 264.7,-128.71 261.57,-138.83 268.56,-138.58"/>
</g>
<!-- Node20&#45;&gt;Node10 -->
<g id="edge22" class="edge">
<title>Node20&#45;&gt;Node10</title>
<path fill="none" stroke="midnightblue" d="M257.83,-110.22C251.75,-102.55 242.55,-90.94 235.05,-81.47"/>
<polygon fill="midnightblue" stroke="midnightblue" points="237.72,-79.21 228.77,-73.55 232.24,-83.56 237.72,-79.21"/>
</g>
<!-- Node27&#45;&gt;Node5 -->
<g id="edge32" class="edge">
<title>Node27&#45;&gt;Node5</title>
<path fill="none" stroke="midnightblue" d="M263.45,-495.22C258.01,-487.63 249.8,-476.18 243.05,-466.76"/>
<polygon fill="midnightblue" stroke="midnightblue" points="245.83,-464.64 237.16,-458.55 240.15,-468.72 245.83,-464.64"/>
</g>
<!-- Node28&#45;&gt;Node26 -->
<g id="edge34" class="edge">
<title>Node28&#45;&gt;Node26</title>
<path fill="none" stroke="midnightblue" d="M80.77,-550.2C80.18,-537.58 80.45,-513.14 89.39,-495 95.2,-483.23 105.38,-472.76 114.59,-464.93"/>
<polygon fill="midnightblue" stroke="midnightblue" points="116.99,-467.5 122.63,-458.53 112.63,-462.02 116.99,-467.5"/>
</g>
<!-- Node29 -->
<g id="node29" class="node">
<title>Node29</title>
<g id="a_node29"><a xlink:title=" ">
<polygon fill="white" stroke="#bfbfbf" points="98.22,-495.5 98.22,-513.5 152.56,-513.5 152.56,-495.5 98.22,-495.5"/>
<text text-anchor="middle" x="125.39" y="-501.5" font-family="Helvetica,sans-Serif" font-size="10.00">iostream</text>
</a>
</g>
</g>
<!-- Node28&#45;&gt;Node29 -->
<g id="edge35" class="edge">
<title>Node28&#45;&gt;Node29</title>
<path fill="none" stroke="midnightblue" d="M88.27,-550.22C94.63,-542.55 104.27,-530.94 112.13,-521.47"/>
<polygon fill="midnightblue" stroke="midnightblue" points="115.01,-523.48 118.71,-513.55 109.63,-519.01 115.01,-523.48"/>
</g>
<!-- Node30&#45;&gt;Node4 -->
<g id="edge37" class="edge">
<title>Node30&#45;&gt;Node4</title>
<path fill="none" stroke="midnightblue" d="M164.86,-550.22C169.82,-542.71 177.28,-531.41 183.46,-522.05"/>
<polygon fill="midnightblue" stroke="midnightblue" points="186.49,-523.82 189.08,-513.55 180.64,-519.97 186.49,-523.82"/>
</g>
<!-- Node32 -->
<g id="node32" class="node">
<title>Node32</title>
<g id="a_node32"><a xlink:href="../../d4/da4/txatt_8h.html" target="_top" xlink:title=" ">
<polygon fill="white" stroke="black" points="390.77,-550.5 390.77,-568.5 434.01,-568.5 434.01,-550.5 390.77,-550.5"/>
<text text-anchor="middle" x="412.39" y="-556.5" font-family="Helvetica,sans-Serif" font-size="10.00">txatt.h</text>
</a>
</g>
</g>
<!-- Node31&#45;&gt;Node32 -->
<g id="edge39" class="edge">
<title>Node31&#45;&gt;Node32</title>
<path fill="none" stroke="midnightblue" d="M358.96,-605.45C368.49,-597.43 383.33,-584.95 394.96,-575.17"/>
<polygon fill="midnightblue" stroke="midnightblue" points="397.33,-577.74 402.73,-568.63 392.83,-572.38 397.33,-577.74"/>
</g>
<!-- Node33 -->
<g id="node33" class="node">
<title>Node33</title>
<g id="a_node33"><a xlink:href="../../d1/d43/txxml_8h.html" target="_top" xlink:title=" ">
<polygon fill="white" stroke="black" points="325.56,-550.5 325.56,-568.5 373.23,-568.5 373.23,-550.5 325.56,-550.5"/>
<text text-anchor="middle" x="349.39" y="-556.5" font-family="Helvetica,sans-Serif" font-size="10.00">txxml.h</text>
</a>
</g>
</g>
<!-- Node31&#45;&gt;Node33 -->
<g id="edge41" class="edge">
<title>Node31&#45;&gt;Node33</title>
<path fill="none" stroke="midnightblue" d="M349.39,-605.22C349.39,-598.18 349.39,-587.81 349.39,-578.83"/>
<polygon fill="midnightblue" stroke="midnightblue" points="352.89,-578.55 349.39,-568.55 345.89,-578.55 352.89,-578.55"/>
</g>
<!-- Node32&#45;&gt;Node27 -->
<g id="edge40" class="edge">
<title>Node32&#45;&gt;Node27</title>
<path fill="none" stroke="midnightblue" d="M390.67,-550.45C366.74,-541.58 328.02,-527.23 300.78,-517.13"/>
<polygon fill="midnightblue" stroke="midnightblue" points="301.91,-513.82 291.31,-513.63 299.47,-520.38 301.91,-513.82"/>
</g>
</g>
</svg>
