<?xml version="1.0" encoding="UTF-8" standalone="no"?>
<!DOCTYPE svg PUBLIC "-//W3C//DTD SVG 1.1//EN"
 "http://www.w3.org/Graphics/SVG/1.1/DTD/svg11.dtd">
<!-- Generated by graphviz version 2.42.3 (20191010.1750)
 -->
<!-- Title: txparser.h Pages: 1 -->
<svg width="664pt" height="687pt"
 viewBox="0.00 0.00 663.62 687.00" xmlns="http://www.w3.org/2000/svg" xmlns:xlink="http://www.w3.org/1999/xlink">
<g id="graph0" class="graph" transform="scale(1 1) rotate(0) translate(4 683)">
<title>txparser.h</title>
<!-- Node1 -->
<g id="node1" class="node">
<title>Node1</title>
<g id="a_node1"><a xlink:title=" ">
<polygon fill="#bfbfbf" stroke="black" points="327.04,-660.5 327.04,-678.5 386.96,-678.5 386.96,-660.5 327.04,-660.5"/>
<text text-anchor="middle" x="357" y="-666.5" font-family="Helvetica,sans-Serif" font-size="10.00">txparser.h</text>
</a>
</g>
</g>
<!-- Node2 -->
<g id="node2" class="node">
<title>Node2</title>
<g id="a_node2"><a xlink:href="../../d8/dd6/_e_q_t_b_8h.html" target="_top" xlink:title=" ">
<polygon fill="none" stroke="black" points="15.77,-495.5 15.77,-513.5 96.23,-513.5 96.23,-495.5 15.77,-495.5"/>
<text text-anchor="middle" x="56" y="-501.5" font-family="Helvetica,sans-Serif" font-size="10.00">tralics/EQTB.h</text>
</a>
</g>
</g>
<!-- Node1&#45;&gt;Node2 -->
<g id="edge1" class="edge">
<title>Node1&#45;&gt;Node2</title>
<path fill="none" stroke="midnightblue" d="M326.88,-666.53C268.65,-662.18 143.46,-650 110,-624 77.81,-598.98 64.18,-550.42 58.93,-523.89"/>
<polygon fill="midnightblue" stroke="midnightblue" points="62.31,-522.94 57.12,-513.71 55.42,-524.16 62.31,-522.94"/>
</g>
<!-- Node20 -->
<g id="node20" class="node">
<title>Node20</title>
<g id="a_node20"><a xlink:href="../../d3/d6b/txcond_8h.html" target="_top" xlink:title=" ">
<polygon fill="none" stroke="black" points="94.1,-440.5 94.1,-458.5 147.9,-458.5 147.9,-440.5 94.1,-440.5"/>
<text text-anchor="middle" x="121" y="-446.5" font-family="Helvetica,sans-Serif" font-size="10.00">txcond.h</text>
</a>
</g>
</g>
<!-- Node1&#45;&gt;Node20 -->
<g id="edge21" class="edge">
<title>Node1&#45;&gt;Node20</title>
<path fill="none" stroke="midnightblue" d="M326.87,-664.28C279.21,-655.8 187.77,-631.81 148,-569 128.12,-537.6 122.82,-493.33 121.44,-468.75"/>
<polygon fill="midnightblue" stroke="midnightblue" points="124.93,-468.53 121.04,-458.68 117.94,-468.81 124.93,-468.53"/>
</g>
<!-- Node22 -->
<g id="node22" class="node">
<title>Node22</title>
<g id="a_node22"><a xlink:href="../../d7/d4d/txfonts_8h.html" target="_top" xlink:title=" ">
<polygon fill="none" stroke="black" points="365.1,-550.5 365.1,-568.5 418.9,-568.5 418.9,-550.5 365.1,-550.5"/>
<text text-anchor="middle" x="392" y="-556.5" font-family="Helvetica,sans-Serif" font-size="10.00">txfonts.h</text>
</a>
</g>
</g>
<!-- Node1&#45;&gt;Node22 -->
<g id="edge24" class="edge">
<title>Node1&#45;&gt;Node22</title>
<path fill="none" stroke="midnightblue" d="M359.63,-660.38C365.26,-643.03 378.56,-601.96 386.25,-578.24"/>
<polygon fill="midnightblue" stroke="midnightblue" points="389.59,-579.3 389.34,-568.71 382.93,-577.15 389.59,-579.3"/>
</g>
<!-- Node27 -->
<g id="node27" class="node">
<title>Node27</title>
<g id="a_node27"><a xlink:href="../../d7/d7e/txhash_8h.html" target="_top" xlink:title=" ">
<polygon fill="none" stroke="black" points="227.1,-605.5 227.1,-623.5 280.9,-623.5 280.9,-605.5 227.1,-605.5"/>
<text text-anchor="middle" x="254" y="-611.5" font-family="Helvetica,sans-Serif" font-size="10.00">txhash.h</text>
</a>
</g>
</g>
<!-- Node1&#45;&gt;Node27 -->
<g id="edge32" class="edge">
<title>Node1&#45;&gt;Node27</title>
<path fill="none" stroke="midnightblue" d="M341.36,-660.45C324.72,-651.89 298.17,-638.23 278.7,-628.21"/>
<polygon fill="midnightblue" stroke="midnightblue" points="280.28,-625.09 269.79,-623.63 277.08,-631.31 280.28,-625.09"/>
</g>
<!-- Node29 -->
<g id="node29" class="node">
<title>Node29</title>
<g id="a_node29"><a xlink:href="../../de/d7c/tximage_8h.html" target="_top" xlink:title=" ">
<polygon fill="none" stroke="black" points="265.32,-330.5 265.32,-348.5 324.68,-348.5 324.68,-330.5 265.32,-330.5"/>
<text text-anchor="middle" x="295" y="-336.5" font-family="Helvetica,sans-Serif" font-size="10.00">tximage.h</text>
</a>
</g>
</g>
<!-- Node1&#45;&gt;Node29 -->
<g id="edge36" class="edge">
<title>Node1&#45;&gt;Node29</title>
<path fill="none" stroke="midnightblue" d="M387.17,-667.08C446.8,-662.47 574,-642.98 574,-560.5 574,-560.5 574,-560.5 574,-503.5 574,-394.2 412.39,-356.86 335.17,-345.25"/>
<polygon fill="midnightblue" stroke="midnightblue" points="335.25,-341.73 324.86,-343.78 334.26,-348.66 335.25,-341.73"/>
</g>
<!-- Node30 -->
<g id="node30" class="node">
<title>Node30</title>
<g id="a_node30"><a xlink:href="../../de/d29/txio_8h.html" target="_top" xlink:title=" ">
<polygon fill="none" stroke="black" points="302.05,-605.5 302.05,-623.5 341.95,-623.5 341.95,-605.5 302.05,-605.5"/>
<text text-anchor="middle" x="322" y="-611.5" font-family="Helvetica,sans-Serif" font-size="10.00">txio.h</text>
</a>
</g>
</g>
<!-- Node1&#45;&gt;Node30 -->
<g id="edge39" class="edge">
<title>Node1&#45;&gt;Node30</title>
<path fill="none" stroke="midnightblue" d="M351.53,-660.22C346.57,-652.71 339.11,-641.41 332.93,-632.05"/>
<polygon fill="midnightblue" stroke="midnightblue" points="335.75,-629.97 327.32,-623.55 329.91,-633.82 335.75,-629.97"/>
</g>
<!-- Node32 -->
<g id="node32" class="node">
<title>Node32</title>
<g id="a_node32"><a xlink:href="../../dc/d65/txstack_8h.html" target="_top" xlink:title=" ">
<polygon fill="none" stroke="black" points="433.27,-605.5 433.27,-623.5 488.73,-623.5 488.73,-605.5 433.27,-605.5"/>
<text text-anchor="middle" x="461" y="-611.5" font-family="Helvetica,sans-Serif" font-size="10.00">txstack.h</text>
</a>
</g>
</g>
<!-- Node1&#45;&gt;Node32 -->
<g id="edge42" class="edge">
<title>Node1&#45;&gt;Node32</title>
<path fill="none" stroke="midnightblue" d="M372.8,-660.45C389.59,-651.89 416.4,-638.23 436.06,-628.21"/>
<polygon fill="midnightblue" stroke="midnightblue" points="437.74,-631.28 445.06,-623.63 434.56,-625.05 437.74,-631.28"/>
</g>
<!-- Node35 -->
<g id="node35" class="node">
<title>Node35</title>
<g id="a_node35"><a xlink:href="../../d8/d3d/txstats_8h.html" target="_top" xlink:title=" ">
<polygon fill="none" stroke="black" points="602.38,-605.5 602.38,-623.5 655.62,-623.5 655.62,-605.5 602.38,-605.5"/>
<text text-anchor="middle" x="629" y="-611.5" font-family="Helvetica,sans-Serif" font-size="10.00">txstats.h</text>
</a>
</g>
</g>
<!-- Node1&#45;&gt;Node35 -->
<g id="edge50" class="edge">
<title>Node1&#45;&gt;Node35</title>
<path fill="none" stroke="midnightblue" d="M387.3,-662.8C431.47,-654.47 516.11,-638.38 588,-624 589.28,-623.74 590.59,-623.48 591.91,-623.21"/>
<polygon fill="midnightblue" stroke="midnightblue" points="593.01,-626.56 602.1,-621.13 591.61,-619.7 593.01,-626.56"/>
</g>
<!-- Node3 -->
<g id="node3" class="node">
<title>Node3</title>
<g id="a_node3"><a xlink:href="../../d9/d18/txscaled_8h.html" target="_top" xlink:title=" ">
<polygon fill="none" stroke="black" points="50.32,-385.5 50.32,-403.5 119.68,-403.5 119.68,-385.5 50.32,-385.5"/>
<text text-anchor="middle" x="85" y="-391.5" font-family="Helvetica,sans-Serif" font-size="10.00">../txscaled.h</text>
</a>
</g>
</g>
<!-- Node2&#45;&gt;Node3 -->
<g id="edge2" class="edge">
<title>Node2&#45;&gt;Node3</title>
<path fill="none" stroke="midnightblue" d="M58.18,-495.38C62.82,-478.1 73.77,-437.33 80.15,-413.56"/>
<polygon fill="midnightblue" stroke="midnightblue" points="83.58,-414.28 82.79,-403.71 76.82,-412.46 83.58,-414.28"/>
</g>
<!-- Node4 -->
<g id="node4" class="node">
<title>Node4</title>
<g id="a_node4"><a xlink:href="../../dc/d91/txtokenlist_8h.html" target="_top" xlink:title=" ">
<polygon fill="none" stroke="black" points="50.6,-330.5 50.6,-348.5 119.4,-348.5 119.4,-330.5 50.6,-330.5"/>
<text text-anchor="middle" x="85" y="-336.5" font-family="Helvetica,sans-Serif" font-size="10.00">txtokenlist.h</text>
</a>
</g>
</g>
<!-- Node3&#45;&gt;Node4 -->
<g id="edge3" class="edge">
<title>Node3&#45;&gt;Node4</title>
<path fill="none" stroke="midnightblue" d="M85,-385.22C85,-378.18 85,-367.81 85,-358.83"/>
<polygon fill="midnightblue" stroke="midnightblue" points="88.5,-358.55 85,-348.55 81.5,-358.55 88.5,-358.55"/>
</g>
<!-- Node5 -->
<g id="node5" class="node">
<title>Node5</title>
<g id="a_node5"><a xlink:href="../../d5/daf/_istring_8h.html" target="_top" xlink:title=" ">
<polygon fill="none" stroke="black" points="129.77,-275.5 129.77,-293.5 210.23,-293.5 210.23,-275.5 129.77,-275.5"/>
<text text-anchor="middle" x="170" y="-281.5" font-family="Helvetica,sans-Serif" font-size="10.00">tralics/Istring.h</text>
</a>
</g>
</g>
<!-- Node4&#45;&gt;Node5 -->
<g id="edge4" class="edge">
<title>Node4&#45;&gt;Node5</title>
<path fill="none" stroke="midnightblue" d="M97.91,-330.45C111.26,-322.12 132.36,-308.97 148.29,-299.04"/>
<polygon fill="midnightblue" stroke="midnightblue" points="150.34,-301.89 156.97,-293.63 146.63,-295.95 150.34,-301.89"/>
</g>
<!-- Node14 -->
<g id="node14" class="node">
<title>Node14</title>
<g id="a_node14"><a xlink:href="../../dd/dcd/_token_8h.html" target="_top" xlink:title=" ">
<polygon fill="none" stroke="black" points="32.04,-275.5 32.04,-293.5 111.96,-293.5 111.96,-275.5 32.04,-275.5"/>
<text text-anchor="middle" x="72" y="-281.5" font-family="Helvetica,sans-Serif" font-size="10.00">tralics/Token.h</text>
</a>
</g>
</g>
<!-- Node4&#45;&gt;Node14 -->
<g id="edge13" class="edge">
<title>Node4&#45;&gt;Node14</title>
<path fill="none" stroke="midnightblue" d="M82.97,-330.22C81.22,-323.1 78.64,-312.58 76.42,-303.53"/>
<polygon fill="midnightblue" stroke="midnightblue" points="79.76,-302.43 73.97,-293.55 72.96,-304.1 79.76,-302.43"/>
</g>
<!-- Node19 -->
<g id="node19" class="node">
<title>Node19</title>
<g id="a_node19"><a xlink:title=" ">
<polygon fill="none" stroke="#bfbfbf" points="228.61,-275.5 228.61,-293.5 267.39,-293.5 267.39,-275.5 228.61,-275.5"/>
<text text-anchor="middle" x="248" y="-281.5" font-family="Helvetica,sans-Serif" font-size="10.00">utility</text>
</a>
</g>
</g>
<!-- Node4&#45;&gt;Node19 -->
<g id="edge20" class="edge">
<title>Node4&#45;&gt;Node19</title>
<path fill="none" stroke="midnightblue" d="M109.76,-330.45C138.88,-320.98 187.2,-305.27 218.31,-295.15"/>
<polygon fill="midnightblue" stroke="midnightblue" points="219.72,-298.37 228.15,-291.95 217.56,-291.72 219.72,-298.37"/>
</g>
<!-- Node6 -->
<g id="node6" class="node">
<title>Node6</title>
<g id="a_node6"><a xlink:href="../../d0/d0b/enums_8h.html" target="_top" xlink:title=" ">
<polygon fill="none" stroke="black" points="78.82,-165.5 78.82,-183.5 133.18,-183.5 133.18,-165.5 78.82,-165.5"/>
<text text-anchor="middle" x="106" y="-171.5" font-family="Helvetica,sans-Serif" font-size="10.00">enums.h</text>
</a>
</g>
</g>
<!-- Node5&#45;&gt;Node6 -->
<g id="edge5" class="edge">
<title>Node5&#45;&gt;Node6</title>
<path fill="none" stroke="midnightblue" d="M179.51,-275.4C192.82,-263.04 214.09,-238.94 202,-220 194.8,-208.72 164.71,-195.87 140.11,-186.89"/>
<polygon fill="midnightblue" stroke="midnightblue" points="141.27,-183.59 130.67,-183.53 138.92,-190.18 141.27,-183.59"/>
</g>
<!-- Node12 -->
<g id="node12" class="node">
<title>Node12</title>
<g id="a_node12"><a xlink:title=" ">
<polygon fill="none" stroke="#bfbfbf" points="154.61,-220.5 154.61,-238.5 193.39,-238.5 193.39,-220.5 154.61,-220.5"/>
<text text-anchor="middle" x="174" y="-226.5" font-family="Helvetica,sans-Serif" font-size="10.00">array</text>
</a>
</g>
</g>
<!-- Node5&#45;&gt;Node12 -->
<g id="edge11" class="edge">
<title>Node5&#45;&gt;Node12</title>
<path fill="none" stroke="midnightblue" d="M170.62,-275.22C171.16,-268.1 171.96,-257.58 172.64,-248.53"/>
<polygon fill="midnightblue" stroke="midnightblue" points="176.13,-248.78 173.39,-238.55 169.15,-248.26 176.13,-248.78"/>
</g>
<!-- Node13 -->
<g id="node13" class="node">
<title>Node13</title>
<g id="a_node13"><a xlink:title=" ">
<polygon fill="none" stroke="#bfbfbf" points="261.77,-220.5 261.77,-238.5 302.23,-238.5 302.23,-220.5 261.77,-220.5"/>
<text text-anchor="middle" x="282" y="-226.5" font-family="Helvetica,sans-Serif" font-size="10.00">string</text>
</a>
</g>
</g>
<!-- Node5&#45;&gt;Node13 -->
<g id="edge12" class="edge">
<title>Node5&#45;&gt;Node13</title>
<path fill="none" stroke="midnightblue" d="M187.01,-275.45C205.27,-266.81 234.49,-252.98 255.71,-242.94"/>
<polygon fill="midnightblue" stroke="midnightblue" points="257.29,-246.07 264.83,-238.63 254.29,-239.74 257.29,-246.07"/>
</g>
<!-- Node7 -->
<g id="node7" class="node">
<title>Node7</title>
<g id="a_node7"><a xlink:href="../../d8/db5/consts_8h.html" target="_top" xlink:title=" ">
<polygon fill="none" stroke="black" points="91.38,-110.5 91.38,-128.5 144.62,-128.5 144.62,-110.5 91.38,-110.5"/>
<text text-anchor="middle" x="118" y="-116.5" font-family="Helvetica,sans-Serif" font-size="10.00">consts.h</text>
</a>
</g>
</g>
<!-- Node6&#45;&gt;Node7 -->
<g id="edge6" class="edge">
<title>Node6&#45;&gt;Node7</title>
<path fill="none" stroke="midnightblue" d="M107.88,-165.22C109.49,-158.1 111.87,-147.58 113.92,-138.53"/>
<polygon fill="midnightblue" stroke="midnightblue" points="117.38,-139.08 116.18,-128.55 110.56,-137.53 117.38,-139.08"/>
</g>
<!-- Node8 -->
<g id="node8" class="node">
<title>Node8</title>
<g id="a_node8"><a xlink:href="../../d9/d49/types_8h.html" target="_top" xlink:title=" ">
<polygon fill="none" stroke="black" points="120.88,-55.5 120.88,-73.5 169.12,-73.5 169.12,-55.5 120.88,-55.5"/>
<text text-anchor="middle" x="145" y="-61.5" font-family="Helvetica,sans-Serif" font-size="10.00">types.h</text>
</a>
</g>
</g>
<!-- Node7&#45;&gt;Node8 -->
<g id="edge7" class="edge">
<title>Node7&#45;&gt;Node8</title>
<path fill="none" stroke="midnightblue" d="M122.22,-110.22C125.97,-102.86 131.56,-91.88 136.27,-82.64"/>
<polygon fill="midnightblue" stroke="midnightblue" points="139.48,-84.05 140.9,-73.55 133.24,-80.87 139.48,-84.05"/>
</g>
<!-- Node9 -->
<g id="node9" class="node">
<title>Node9</title>
<g id="a_node9"><a xlink:title=" ">
<polygon fill="none" stroke="#bfbfbf" points="54.88,-0.5 54.88,-18.5 103.12,-18.5 103.12,-0.5 54.88,-0.5"/>
<text text-anchor="middle" x="79" y="-6.5" font-family="Helvetica,sans-Serif" font-size="10.00">cassert</text>
</a>
</g>
</g>
<!-- Node8&#45;&gt;Node9 -->
<g id="edge8" class="edge">
<title>Node8&#45;&gt;Node9</title>
<path fill="none" stroke="midnightblue" d="M134.98,-55.45C124.99,-47.43 109.44,-34.95 97.26,-25.17"/>
<polygon fill="midnightblue" stroke="midnightblue" points="99.11,-22.16 89.12,-18.63 94.72,-27.62 99.11,-22.16"/>
</g>
<!-- Node10 -->
<g id="node10" class="node">
<title>Node10</title>
<g id="a_node10"><a xlink:title=" ">
<polygon fill="none" stroke="#bfbfbf" points="120.88,-0.5 120.88,-18.5 169.12,-18.5 169.12,-0.5 120.88,-0.5"/>
<text text-anchor="middle" x="145" y="-6.5" font-family="Helvetica,sans-Serif" font-size="10.00">cstddef</text>
</a>
</g>
</g>
<!-- Node8&#45;&gt;Node10 -->
<g id="edge9" class="edge">
<title>Node8&#45;&gt;Node10</title>
<path fill="none" stroke="midnightblue" d="M145,-55.22C145,-48.18 145,-37.81 145,-28.83"/>
<polygon fill="midnightblue" stroke="midnightblue" points="148.5,-28.55 145,-18.55 141.5,-28.55 148.5,-28.55"/>
</g>
<!-- Node11 -->
<g id="node11" class="node">
<title>Node11</title>
<g id="a_node11"><a xlink:title=" ">
<polygon fill="none" stroke="#bfbfbf" points="186.93,-0.5 186.93,-18.5 249.07,-18.5 249.07,-0.5 186.93,-0.5"/>
<text text-anchor="middle" x="218" y="-6.5" font-family="Helvetica,sans-Serif" font-size="10.00">type_traits</text>
</a>
</g>
</g>
<!-- Node8&#45;&gt;Node11 -->
<g id="edge10" class="edge">
<title>Node8&#45;&gt;Node11</title>
<path fill="none" stroke="midnightblue" d="M156.09,-55.45C167.34,-47.28 185,-34.46 198.58,-24.6"/>
<polygon fill="midnightblue" stroke="midnightblue" points="200.77,-27.33 206.81,-18.63 196.66,-21.67 200.77,-27.33"/>
</g>
<!-- Node15 -->
<g id="node15" class="node">
<title>Node15</title>
<g id="a_node15"><a xlink:href="../../d2/d68/_cmd_chr_8h.html" target="_top" xlink:title=" ">
<polygon fill="none" stroke="black" points="75.49,-220.5 75.49,-238.5 136.51,-238.5 136.51,-220.5 75.49,-220.5"/>
<text text-anchor="middle" x="106" y="-226.5" font-family="Helvetica,sans-Serif" font-size="10.00">CmdChr.h</text>
</a>
</g>
</g>
<!-- Node14&#45;&gt;Node15 -->
<g id="edge14" class="edge">
<title>Node14&#45;&gt;Node15</title>
<path fill="none" stroke="midnightblue" d="M77.31,-275.22C82.13,-267.71 89.38,-256.41 95.38,-247.05"/>
<polygon fill="midnightblue" stroke="midnightblue" points="98.38,-248.86 100.84,-238.55 92.49,-245.08 98.38,-248.86"/>
</g>
<!-- Node18 -->
<g id="node18" class="node">
<title>Node18</title>
<g id="a_node18"><a xlink:title=" ">
<polygon fill="none" stroke="#bfbfbf" points="28.5,-220.5 28.5,-238.5 57.5,-238.5 57.5,-220.5 28.5,-220.5"/>
<text text-anchor="middle" x="42.61" y="-226.5" font-family="Helvetica,sans-Serif" font-size="10.00">list</text>
</a>
</g>
</g>
<!-- Node14&#45;&gt;Node18 -->
<g id="edge19" class="edge">
<title>Node14&#45;&gt;Node18</title>
<path fill="none" stroke="midnightblue" d="M67.47,-275.22C63.4,-267.79 57.31,-256.65 52.22,-247.34"/>
<polygon fill="midnightblue" stroke="midnightblue" points="55.28,-245.64 47.4,-238.55 49.13,-249 55.28,-245.64"/>
</g>
<!-- Node15&#45;&gt;Node6 -->
<g id="edge18" class="edge">
<title>Node15&#45;&gt;Node6</title>
<path fill="none" stroke="midnightblue" d="M106,-220.22C106,-213.18 106,-202.81 106,-193.83"/>
<polygon fill="midnightblue" stroke="midnightblue" points="109.5,-193.55 106,-183.55 102.5,-193.55 109.5,-193.55"/>
</g>
<!-- Node16 -->
<g id="node16" class="node">
<title>Node16</title>
<g id="a_node16"><a xlink:href="../../d8/d47/codepoint_8h.html" target="_top" xlink:title=" ">
<polygon fill="none" stroke="black" points="151.15,-165.5 151.15,-183.5 218.85,-183.5 218.85,-165.5 151.15,-165.5"/>
<text text-anchor="middle" x="185" y="-171.5" font-family="Helvetica,sans-Serif" font-size="10.00">codepoint.h</text>
</a>
</g>
</g>
<!-- Node15&#45;&gt;Node16 -->
<g id="edge15" class="edge">
<title>Node15&#45;&gt;Node16</title>
<path fill="none" stroke="midnightblue" d="M118,-220.45C130.29,-212.2 149.65,-199.22 164.4,-189.32"/>
<polygon fill="midnightblue" stroke="midnightblue" points="166.53,-192.1 172.89,-183.63 162.63,-186.29 166.53,-192.1"/>
</g>
<!-- Node16&#45;&gt;Node8 -->
<g id="edge16" class="edge">
<title>Node16&#45;&gt;Node8</title>
<path fill="none" stroke="midnightblue" d="M181.99,-165.38C175.57,-148.03 160.36,-106.96 151.57,-83.24"/>
<polygon fill="midnightblue" stroke="midnightblue" points="154.8,-81.87 148.04,-73.71 148.23,-84.3 154.8,-81.87"/>
</g>
<!-- Node17 -->
<g id="node17" class="node">
<title>Node17</title>
<g id="a_node17"><a xlink:title=" ">
<polygon fill="none" stroke="#bfbfbf" points="334.49,-110.5 334.49,-128.5 385.51,-128.5 385.51,-110.5 334.49,-110.5"/>
<text text-anchor="middle" x="360" y="-116.5" font-family="Helvetica,sans-Serif" font-size="10.00">optional</text>
</a>
</g>
</g>
<!-- Node16&#45;&gt;Node17 -->
<g id="edge17" class="edge">
<title>Node16&#45;&gt;Node17</title>
<path fill="none" stroke="midnightblue" d="M211.58,-165.45C241.73,-156.32 291.05,-141.38 324.49,-131.26"/>
<polygon fill="midnightblue" stroke="midnightblue" points="325.76,-134.53 334.31,-128.28 323.73,-127.83 325.76,-134.53"/>
</g>
<!-- Node20&#45;&gt;Node6 -->
<g id="edge22" class="edge">
<title>Node20&#45;&gt;Node6</title>
<path fill="none" stroke="midnightblue" d="M98.81,-440.44C63.88,-426.15 0,-392.87 0,-340.5 0,-340.5 0,-340.5 0,-283.5 0,-254.04 0.15,-242.64 19,-220 32.01,-204.38 51.9,-193.63 69.38,-186.62"/>
<polygon fill="midnightblue" stroke="midnightblue" points="70.64,-189.88 78.78,-183.1 68.19,-183.33 70.64,-189.88"/>
</g>
<!-- Node21 -->
<g id="node21" class="node">
<title>Node21</title>
<g id="a_node21"><a xlink:title=" ">
<polygon fill="none" stroke="#bfbfbf" points="368.38,-385.5 368.38,-403.5 411.62,-403.5 411.62,-385.5 368.38,-385.5"/>
<text text-anchor="middle" x="390" y="-391.5" font-family="Helvetica,sans-Serif" font-size="10.00">vector</text>
</a>
</g>
</g>
<!-- Node20&#45;&gt;Node21 -->
<g id="edge23" class="edge">
<title>Node20&#45;&gt;Node21</title>
<path fill="none" stroke="midnightblue" d="M148.02,-443.18C198.11,-433.31 305.1,-412.23 358.43,-401.72"/>
<polygon fill="midnightblue" stroke="midnightblue" points="359.21,-405.13 368.35,-399.77 357.86,-398.27 359.21,-405.13"/>
</g>
<!-- Node23 -->
<g id="node23" class="node">
<title>Node23</title>
<g id="a_node23"><a xlink:href="../../dc/def/txstring_8h.html" target="_top" xlink:title=" ">
<polygon fill="none" stroke="black" points="363.71,-495.5 363.71,-513.5 420.29,-513.5 420.29,-495.5 363.71,-495.5"/>
<text text-anchor="middle" x="392" y="-501.5" font-family="Helvetica,sans-Serif" font-size="10.00">txstring.h</text>
</a>
</g>
</g>
<!-- Node22&#45;&gt;Node23 -->
<g id="edge25" class="edge">
<title>Node22&#45;&gt;Node23</title>
<path fill="none" stroke="midnightblue" d="M392,-550.22C392,-543.18 392,-532.81 392,-523.83"/>
<polygon fill="midnightblue" stroke="midnightblue" points="395.5,-523.55 392,-513.55 388.5,-523.55 395.5,-523.55"/>
</g>
<!-- Node24 -->
<g id="node24" class="node">
<title>Node24</title>
<g id="a_node24"><a xlink:href="../../dd/d74/txbuffer_8h.html" target="_top" xlink:title=" ">
<polygon fill="none" stroke="black" points="226.52,-440.5 226.52,-458.5 283.48,-458.5 283.48,-440.5 226.52,-440.5"/>
<text text-anchor="middle" x="255" y="-446.5" font-family="Helvetica,sans-Serif" font-size="10.00">txbuffer.h</text>
</a>
</g>
</g>
<!-- Node23&#45;&gt;Node24 -->
<g id="edge26" class="edge">
<title>Node23&#45;&gt;Node24</title>
<path fill="none" stroke="midnightblue" d="M371.19,-495.45C348.36,-486.62 311.49,-472.35 285.42,-462.27"/>
<polygon fill="midnightblue" stroke="midnightblue" points="286.59,-458.97 276,-458.63 284.07,-465.5 286.59,-458.97"/>
</g>
<!-- Node24&#45;&gt;Node3 -->
<g id="edge29" class="edge">
<title>Node24&#45;&gt;Node3</title>
<path fill="none" stroke="midnightblue" d="M229.18,-440.45C200.14,-431.4 152.8,-416.64 120.34,-406.52"/>
<polygon fill="midnightblue" stroke="midnightblue" points="121.37,-403.17 110.78,-403.54 119.29,-409.86 121.37,-403.17"/>
</g>
<!-- Node24&#45;&gt;Node21 -->
<g id="edge31" class="edge">
<title>Node24&#45;&gt;Node21</title>
<path fill="none" stroke="midnightblue" d="M275.5,-440.45C297.9,-431.66 334.01,-417.48 359.69,-407.4"/>
<polygon fill="midnightblue" stroke="midnightblue" points="361.27,-410.54 369.3,-403.63 358.72,-404.02 361.27,-410.54"/>
</g>
<!-- Node25 -->
<g id="node25" class="node">
<title>Node25</title>
<g id="a_node25"><a xlink:href="../../d1/d9e/txid_8h.html" target="_top" xlink:title=" ">
<polygon fill="none" stroke="black" points="137.05,-330.5 137.05,-348.5 176.95,-348.5 176.95,-330.5 137.05,-330.5"/>
<text text-anchor="middle" x="157" y="-336.5" font-family="Helvetica,sans-Serif" font-size="10.00">txid.h</text>
</a>
</g>
</g>
<!-- Node24&#45;&gt;Node25 -->
<g id="edge27" class="edge">
<title>Node24&#45;&gt;Node25</title>
<path fill="none" stroke="midnightblue" d="M258.41,-440.29C263.2,-427.37 270.13,-402 259,-385 243.24,-360.92 211.28,-349.8 187.32,-344.71"/>
<polygon fill="midnightblue" stroke="midnightblue" points="187.76,-341.23 177.28,-342.82 186.46,-348.11 187.76,-341.23"/>
</g>
<!-- Node26 -->
<g id="node26" class="node">
<title>Node26</title>
<g id="a_node26"><a xlink:title=" ">
<polygon fill="none" stroke="#bfbfbf" points="204.27,-385.5 204.27,-403.5 249.73,-403.5 249.73,-385.5 204.27,-385.5"/>
<text text-anchor="middle" x="227" y="-391.5" font-family="Helvetica,sans-Serif" font-size="10.00">cstring</text>
</a>
</g>
</g>
<!-- Node24&#45;&gt;Node26 -->
<g id="edge30" class="edge">
<title>Node24&#45;&gt;Node26</title>
<path fill="none" stroke="midnightblue" d="M250.62,-440.22C246.74,-432.86 240.94,-421.88 236.05,-412.64"/>
<polygon fill="midnightblue" stroke="midnightblue" points="239.02,-410.76 231.25,-403.55 232.83,-414.03 239.02,-410.76"/>
</g>
<!-- Node25&#45;&gt;Node5 -->
<g id="edge28" class="edge">
<title>Node25&#45;&gt;Node5</title>
<path fill="none" stroke="midnightblue" d="M159.03,-330.22C160.78,-323.1 163.36,-312.58 165.58,-303.53"/>
<polygon fill="midnightblue" stroke="midnightblue" points="169.04,-304.1 168.03,-293.55 162.24,-302.43 169.04,-304.1"/>
</g>
<!-- Node27&#45;&gt;Node19 -->
<g id="edge35" class="edge">
<title>Node27&#45;&gt;Node19</title>
<path fill="none" stroke="midnightblue" d="M241.09,-605.38C229.91,-597.56 214.41,-584.64 207,-569 171.9,-494.95 175.14,-464.51 195,-385 202.87,-353.49 222.81,-321.01 235.86,-302.07"/>
<polygon fill="midnightblue" stroke="midnightblue" points="238.87,-303.88 241.8,-293.7 233.16,-299.83 238.87,-303.88"/>
</g>
<!-- Node28 -->
<g id="node28" class="node">
<title>Node28</title>
<g id="a_node28"><a xlink:href="../../d3/d01/txeqtb_8h.html" target="_top" xlink:title=" ">
<polygon fill="none" stroke="black" points="228.21,-550.5 228.21,-568.5 279.79,-568.5 279.79,-550.5 228.21,-550.5"/>
<text text-anchor="middle" x="254" y="-556.5" font-family="Helvetica,sans-Serif" font-size="10.00">txeqtb.h</text>
</a>
</g>
</g>
<!-- Node27&#45;&gt;Node28 -->
<g id="edge33" class="edge">
<title>Node27&#45;&gt;Node28</title>
<path fill="none" stroke="midnightblue" d="M254,-605.22C254,-598.18 254,-587.81 254,-578.83"/>
<polygon fill="midnightblue" stroke="midnightblue" points="257.5,-578.55 254,-568.55 250.5,-578.55 257.5,-578.55"/>
</g>
<!-- Node28&#45;&gt;Node23 -->
<g id="edge34" class="edge">
<title>Node28&#45;&gt;Node23</title>
<path fill="none" stroke="midnightblue" d="M274.96,-550.45C297.96,-541.62 335.1,-527.35 361.36,-517.27"/>
<polygon fill="midnightblue" stroke="midnightblue" points="362.76,-520.48 370.84,-513.63 360.25,-513.94 362.76,-520.48"/>
</g>
<!-- Node29&#45;&gt;Node13 -->
<g id="edge37" class="edge">
<title>Node29&#45;&gt;Node13</title>
<path fill="none" stroke="midnightblue" d="M294.02,-330.38C291.95,-313.18 287.08,-272.7 284.21,-248.89"/>
<polygon fill="midnightblue" stroke="midnightblue" points="287.66,-248.22 282.99,-238.71 280.71,-249.06 287.66,-248.22"/>
</g>
<!-- Node29&#45;&gt;Node19 -->
<g id="edge38" class="edge">
<title>Node29&#45;&gt;Node19</title>
<path fill="none" stroke="midnightblue" d="M287.66,-330.22C280.79,-322.47 270.35,-310.7 261.9,-301.18"/>
<polygon fill="midnightblue" stroke="midnightblue" points="264.39,-298.71 255.14,-293.55 259.15,-303.35 264.39,-298.71"/>
</g>
<!-- Node30&#45;&gt;Node24 -->
<g id="edge40" class="edge">
<title>Node30&#45;&gt;Node24</title>
<path fill="none" stroke="midnightblue" d="M301.79,-607.66C274.6,-599.34 228.52,-583.49 219,-569 197.64,-536.5 224.44,-490.76 242,-466.72"/>
<polygon fill="midnightblue" stroke="midnightblue" points="244.88,-468.72 248.17,-458.64 239.32,-464.47 244.88,-468.72"/>
</g>
<!-- Node31 -->
<g id="node31" class="node">
<title>Node31</title>
<g id="a_node31"><a xlink:title=" ">
<polygon fill="none" stroke="#bfbfbf" points="297.33,-550.5 297.33,-568.5 346.67,-568.5 346.67,-550.5 297.33,-550.5"/>
<text text-anchor="middle" x="322" y="-556.5" font-family="Helvetica,sans-Serif" font-size="10.00">fstream</text>
</a>
</g>
</g>
<!-- Node30&#45;&gt;Node31 -->
<g id="edge41" class="edge">
<title>Node30&#45;&gt;Node31</title>
<path fill="none" stroke="midnightblue" d="M322,-605.22C322,-598.18 322,-587.81 322,-578.83"/>
<polygon fill="midnightblue" stroke="midnightblue" points="325.5,-578.55 322,-568.55 318.5,-578.55 325.5,-578.55"/>
</g>
<!-- Node33 -->
<g id="node33" class="node">
<title>Node33</title>
<g id="a_node33"><a xlink:href="../../d4/da4/txatt_8h.html" target="_top" xlink:title=" ">
<polygon fill="none" stroke="black" points="502.38,-550.5 502.38,-568.5 545.62,-568.5 545.62,-550.5 502.38,-550.5"/>
<text text-anchor="middle" x="524" y="-556.5" font-family="Helvetica,sans-Serif" font-size="10.00">txatt.h</text>
</a>
</g>
</g>
<!-- Node32&#45;&gt;Node33 -->
<g id="edge43" class="edge">
<title>Node32&#45;&gt;Node33</title>
<path fill="none" stroke="midnightblue" d="M470.57,-605.45C480.1,-597.43 494.94,-584.95 506.57,-575.17"/>
<polygon fill="midnightblue" stroke="midnightblue" points="508.94,-577.74 514.34,-568.63 504.44,-572.38 508.94,-577.74"/>
</g>
<!-- Node34 -->
<g id="node34" class="node">
<title>Node34</title>
<g id="a_node34"><a xlink:href="../../d1/d43/txxml_8h.html" target="_top" xlink:title=" ">
<polygon fill="none" stroke="black" points="437.17,-550.5 437.17,-568.5 484.83,-568.5 484.83,-550.5 437.17,-550.5"/>
<text text-anchor="middle" x="461" y="-556.5" font-family="Helvetica,sans-Serif" font-size="10.00">txxml.h</text>
</a>
</g>
</g>
<!-- Node32&#45;&gt;Node34 -->
<g id="edge47" class="edge">
<title>Node32&#45;&gt;Node34</title>
<path fill="none" stroke="midnightblue" d="M461,-605.22C461,-598.18 461,-587.81 461,-578.83"/>
<polygon fill="midnightblue" stroke="midnightblue" points="464.5,-578.55 461,-568.55 457.5,-578.55 464.5,-578.55"/>
</g>
<!-- Node33&#45;&gt;Node17 -->
<g id="edge45" class="edge">
<title>Node33&#45;&gt;Node17</title>
<path fill="none" stroke="midnightblue" d="M525.52,-550.41C528.75,-532.48 536,-488.04 536,-450.5 536,-450.5 536,-450.5 536,-228.5 536,-163.27 447.08,-136.2 395.65,-126.01"/>
<polygon fill="midnightblue" stroke="midnightblue" points="396.06,-122.52 385.59,-124.13 394.78,-129.41 396.06,-122.52"/>
</g>
<!-- Node33&#45;&gt;Node21 -->
<g id="edge46" class="edge">
<title>Node33&#45;&gt;Node21</title>
<path fill="none" stroke="midnightblue" d="M517.43,-550.44C501.81,-531.26 461.18,-481.43 427,-440 419.22,-430.57 410.47,-420.04 403.44,-411.6"/>
<polygon fill="midnightblue" stroke="midnightblue" points="405.93,-409.13 396.84,-403.69 400.55,-413.61 405.93,-409.13"/>
</g>
<!-- Node33&#45;&gt;Node23 -->
<g id="edge44" class="edge">
<title>Node33&#45;&gt;Node23</title>
<path fill="none" stroke="midnightblue" d="M503.95,-550.45C482.05,-541.66 446.74,-527.48 421.64,-517.4"/>
<polygon fill="midnightblue" stroke="midnightblue" points="422.82,-514.1 412.24,-513.63 420.21,-520.6 422.82,-514.1"/>
</g>
<!-- Node34&#45;&gt;Node21 -->
<g id="edge49" class="edge">
<title>Node34&#45;&gt;Node21</title>
<path fill="none" stroke="midnightblue" d="M457.38,-550.19C446.32,-524.79 412.78,-447.79 397.6,-412.95"/>
<polygon fill="midnightblue" stroke="midnightblue" points="400.73,-411.37 393.53,-403.6 394.31,-414.16 400.73,-411.37"/>
</g>
<!-- Node34&#45;&gt;Node23 -->
<g id="edge48" class="edge">
<title>Node34&#45;&gt;Node23</title>
<path fill="none" stroke="midnightblue" d="M450.52,-550.45C439.98,-542.36 423.51,-529.7 410.72,-519.88"/>
<polygon fill="midnightblue" stroke="midnightblue" points="412.64,-516.94 402.58,-513.63 408.38,-522.49 412.64,-516.94"/>
</g>
</g>
</svg>
