<?xml version="1.0" encoding="UTF-8" standalone="no"?>
<!DOCTYPE svg PUBLIC "-//W3C//DTD SVG 1.1//EN"
 "http://www.w3.org/Graphics/SVG/1.1/DTD/svg11.dtd">
<!-- Generated by graphviz version 2.43.0 (0)
 -->
<!-- Title: txparser.h Pages: 1 -->
<svg width="521pt" height="632pt"
 viewBox="0.00 0.00 520.52 632.00" xmlns="http://www.w3.org/2000/svg" xmlns:xlink="http://www.w3.org/1999/xlink">
<g id="graph0" class="graph" transform="scale(1 1) rotate(0) translate(4 628)">
<title>txparser.h</title>
<polygon fill="white" stroke="transparent" points="-4,4 -4,-628 516.52,-628 516.52,4 -4,4"/>
<!-- Node1 -->
<g id="node1" class="node">
<title>Node1</title>
<g id="a_node1"><a xlink:title=" ">
<polygon fill="#bfbfbf" stroke="black" points="240.94,-605.5 240.94,-623.5 300.86,-623.5 300.86,-605.5 240.94,-605.5"/>
<text text-anchor="middle" x="270.9" y="-611.5" font-family="Helvetica,sans-Serif" font-size="10.00">txparser.h</text>
</a>
</g>
</g>
<!-- Node2 -->
<g id="node2" class="node">
<title>Node2</title>
<g id="a_node2"><a xlink:href="../../d3/d6b/txcond_8h.html" target="_top" xlink:title=" ">
<polygon fill="white" stroke="black" points="0,-440.5 0,-458.5 53.8,-458.5 53.8,-440.5 0,-440.5"/>
<text text-anchor="middle" x="26.9" y="-446.5" font-family="Helvetica,sans-Serif" font-size="10.00">txcond.h</text>
</a>
</g>
</g>
<!-- Node1&#45;&gt;Node2 -->
<g id="edge1" class="edge">
<title>Node1&#45;&gt;Node2</title>
<path fill="none" stroke="midnightblue" d="M240.73,-610.88C188.71,-604.54 83.27,-583.37 36.9,-514 27.99,-500.66 25.93,-482.28 25.84,-468.73"/>
<polygon fill="midnightblue" stroke="midnightblue" points="29.34,-468.79 26.12,-458.69 22.34,-468.59 29.34,-468.79"/>
</g>
<!-- Node4 -->
<g id="node4" class="node">
<title>Node4</title>
<g id="a_node4"><a xlink:href="../../d7/d4d/txfonts_8h.html" target="_top" xlink:title=" ">
<polygon fill="white" stroke="black" points="46,-495.5 46,-513.5 99.8,-513.5 99.8,-495.5 46,-495.5"/>
<text text-anchor="middle" x="72.9" y="-501.5" font-family="Helvetica,sans-Serif" font-size="10.00">txfonts.h</text>
</a>
</g>
</g>
<!-- Node1&#45;&gt;Node4 -->
<g id="edge3" class="edge">
<title>Node1&#45;&gt;Node4</title>
<path fill="none" stroke="midnightblue" d="M246.1,-605.4C223.28,-597.5 188.85,-584.44 160.9,-569 135.06,-554.72 107.89,-534.14 90.69,-520.31"/>
<polygon fill="midnightblue" stroke="midnightblue" points="92.63,-517.37 82.67,-513.77 88.2,-522.8 92.63,-517.37"/>
</g>
<!-- Node23 -->
<g id="node23" class="node">
<title>Node23</title>
<g id="a_node23"><a xlink:href="../../d7/d7e/txhash_8h.html" target="_top" xlink:title=" ">
<polygon fill="white" stroke="black" points="244,-550.5 244,-568.5 297.8,-568.5 297.8,-550.5 244,-550.5"/>
<text text-anchor="middle" x="270.9" y="-556.5" font-family="Helvetica,sans-Serif" font-size="10.00">txhash.h</text>
</a>
</g>
</g>
<!-- Node1&#45;&gt;Node23 -->
<g id="edge28" class="edge">
<title>Node1&#45;&gt;Node23</title>
<path fill="none" stroke="midnightblue" d="M270.9,-605.22C270.9,-598.18 270.9,-587.81 270.9,-578.83"/>
<polygon fill="midnightblue" stroke="midnightblue" points="274.4,-578.55 270.9,-568.55 267.4,-578.55 274.4,-578.55"/>
</g>
<!-- Node25 -->
<g id="node25" class="node">
<title>Node25</title>
<g id="a_node25"><a xlink:href="../../de/d7c/tximage_8h.html" target="_top" xlink:title=" ">
<polygon fill="white" stroke="black" points="365.22,-275.5 365.22,-293.5 424.58,-293.5 424.58,-275.5 365.22,-275.5"/>
<text text-anchor="middle" x="394.9" y="-281.5" font-family="Helvetica,sans-Serif" font-size="10.00">tximage.h</text>
</a>
</g>
</g>
<!-- Node1&#45;&gt;Node25 -->
<g id="edge31" class="edge">
<title>Node1&#45;&gt;Node25</title>
<path fill="none" stroke="midnightblue" d="M301,-607.49C347.34,-596.29 430.9,-567.5 430.9,-505.5 430.9,-505.5 430.9,-505.5 430.9,-393.5 430.9,-359.87 415,-323.23 404.33,-302.44"/>
<polygon fill="midnightblue" stroke="midnightblue" points="407.4,-300.77 399.61,-293.59 401.23,-304.06 407.4,-300.77"/>
</g>
<!-- Node26 -->
<g id="node26" class="node">
<title>Node26</title>
<g id="a_node26"><a xlink:href="../../de/d29/txio_8h.html" target="_top" xlink:title=" ">
<polygon fill="white" stroke="black" points="315.95,-550.5 315.95,-568.5 355.85,-568.5 355.85,-550.5 315.95,-550.5"/>
<text text-anchor="middle" x="335.9" y="-556.5" font-family="Helvetica,sans-Serif" font-size="10.00">txio.h</text>
</a>
</g>
</g>
<!-- Node1&#45;&gt;Node26 -->
<g id="edge34" class="edge">
<title>Node1&#45;&gt;Node26</title>
<path fill="none" stroke="midnightblue" d="M280.77,-605.45C290.6,-597.43 305.92,-584.95 317.91,-575.17"/>
<polygon fill="midnightblue" stroke="midnightblue" points="320.4,-577.66 325.94,-568.63 315.97,-572.23 320.4,-577.66"/>
</g>
<!-- Node28 -->
<g id="node28" class="node">
<title>Node28</title>
<g id="a_node28"><a xlink:href="../../dc/d65/txstack_8h.html" target="_top" xlink:title=" ">
<polygon fill="white" stroke="black" points="170.17,-550.5 170.17,-568.5 225.63,-568.5 225.63,-550.5 170.17,-550.5"/>
<text text-anchor="middle" x="197.9" y="-556.5" font-family="Helvetica,sans-Serif" font-size="10.00">txstack.h</text>
</a>
</g>
</g>
<!-- Node1&#45;&gt;Node28 -->
<g id="edge37" class="edge">
<title>Node1&#45;&gt;Node28</title>
<path fill="none" stroke="midnightblue" d="M259.81,-605.45C248.56,-597.28 230.9,-584.46 217.32,-574.6"/>
<polygon fill="midnightblue" stroke="midnightblue" points="219.24,-571.67 209.09,-568.63 215.13,-577.33 219.24,-571.67"/>
</g>
<!-- Node31 -->
<g id="node31" class="node">
<title>Node31</title>
<g id="a_node31"><a xlink:href="../../d8/d3d/txstats_8h.html" target="_top" xlink:title=" ">
<polygon fill="white" stroke="black" points="459.28,-550.5 459.28,-568.5 512.52,-568.5 512.52,-550.5 459.28,-550.5"/>
<text text-anchor="middle" x="485.9" y="-556.5" font-family="Helvetica,sans-Serif" font-size="10.00">txstats.h</text>
</a>
</g>
</g>
<!-- Node1&#45;&gt;Node31 -->
<g id="edge41" class="edge">
<title>Node1&#45;&gt;Node31</title>
<path fill="none" stroke="midnightblue" d="M301.25,-606.02C340.17,-596.42 407.62,-579.8 449.33,-569.51"/>
<polygon fill="midnightblue" stroke="midnightblue" points="450.22,-572.9 459.1,-567.11 448.55,-566.1 450.22,-572.9"/>
</g>
<!-- Node3 -->
<g id="node3" class="node">
<title>Node3</title>
<g id="a_node3"><a xlink:title=" ">
<polygon fill="white" stroke="#bfbfbf" points="28.29,-330.5 28.29,-348.5 71.52,-348.5 71.52,-330.5 28.29,-330.5"/>
<text text-anchor="middle" x="49.9" y="-336.5" font-family="Helvetica,sans-Serif" font-size="10.00">vector</text>
</a>
</g>
</g>
<!-- Node2&#45;&gt;Node3 -->
<g id="edge2" class="edge">
<title>Node2&#45;&gt;Node3</title>
<path fill="none" stroke="midnightblue" d="M28.63,-440.38C32.31,-423.1 40.99,-382.33 46.05,-358.56"/>
<polygon fill="midnightblue" stroke="midnightblue" points="49.49,-359.22 48.15,-348.71 42.65,-357.76 49.49,-359.22"/>
</g>
<!-- Node5 -->
<g id="node5" class="node">
<title>Node5</title>
<g id="a_node5"><a xlink:href="../../dc/def/txstring_8h.html" target="_top" xlink:title=" ">
<polygon fill="white" stroke="black" points="125.62,-440.5 125.62,-458.5 182.19,-458.5 182.19,-440.5 125.62,-440.5"/>
<text text-anchor="middle" x="153.9" y="-446.5" font-family="Helvetica,sans-Serif" font-size="10.00">txstring.h</text>
</a>
</g>
</g>
<!-- Node4&#45;&gt;Node5 -->
<g id="edge4" class="edge">
<title>Node4&#45;&gt;Node5</title>
<path fill="none" stroke="midnightblue" d="M85.2,-495.45C97.81,-487.2 117.66,-474.22 132.78,-464.32"/>
<polygon fill="midnightblue" stroke="midnightblue" points="135.03,-467.03 141.48,-458.63 131.2,-461.17 135.03,-467.03"/>
</g>
<!-- Node6 -->
<g id="node6" class="node">
<title>Node6</title>
<g id="a_node6"><a xlink:href="../../dd/d74/txbuffer_8h.html" target="_top" xlink:title=" ">
<polygon fill="white" stroke="black" points="152.42,-385.5 152.42,-403.5 209.38,-403.5 209.38,-385.5 152.42,-385.5"/>
<text text-anchor="middle" x="180.9" y="-391.5" font-family="Helvetica,sans-Serif" font-size="10.00">txbuffer.h</text>
</a>
</g>
</g>
<!-- Node5&#45;&gt;Node6 -->
<g id="edge5" class="edge">
<title>Node5&#45;&gt;Node6</title>
<path fill="none" stroke="midnightblue" d="M158.12,-440.22C161.87,-432.86 167.46,-421.88 172.17,-412.64"/>
<polygon fill="midnightblue" stroke="midnightblue" points="175.38,-414.05 176.8,-403.55 169.14,-410.87 175.38,-414.05"/>
</g>
<!-- Node6&#45;&gt;Node3 -->
<g id="edge27" class="edge">
<title>Node6&#45;&gt;Node3</title>
<path fill="none" stroke="midnightblue" d="M161.01,-385.45C139.27,-376.66 104.23,-362.48 79.32,-352.4"/>
<polygon fill="midnightblue" stroke="midnightblue" points="80.57,-349.13 69.98,-348.63 77.94,-355.62 80.57,-349.13"/>
</g>
<!-- Node7 -->
<g id="node7" class="node">
<title>Node7</title>
<g id="a_node7"><a xlink:href="../../d1/d9e/txid_8h.html" target="_top" xlink:title=" ">
<polygon fill="white" stroke="black" points="225.95,-275.5 225.95,-293.5 265.85,-293.5 265.85,-275.5 225.95,-275.5"/>
<text text-anchor="middle" x="245.9" y="-281.5" font-family="Helvetica,sans-Serif" font-size="10.00">txid.h</text>
</a>
</g>
</g>
<!-- Node6&#45;&gt;Node7 -->
<g id="edge6" class="edge">
<title>Node6&#45;&gt;Node7</title>
<path fill="none" stroke="midnightblue" d="M192.35,-385.21C202.78,-377.1 217.9,-363.81 226.9,-349 235.32,-335.16 240.22,-317.34 242.93,-304.1"/>
<polygon fill="midnightblue" stroke="midnightblue" points="246.45,-304.33 244.78,-293.86 239.56,-303.08 246.45,-304.33"/>
</g>
<!-- Node14 -->
<g id="node14" class="node">
<title>Node14</title>
<g id="a_node14"><a xlink:href="../../d9/d18/txscaled_8h.html" target="_top" xlink:title=" ">
<polygon fill="white" stroke="black" points="93.39,-330.5 93.39,-348.5 154.41,-348.5 154.41,-330.5 93.39,-330.5"/>
<text text-anchor="middle" x="123.9" y="-336.5" font-family="Helvetica,sans-Serif" font-size="10.00">txscaled.h</text>
</a>
</g>
</g>
<!-- Node6&#45;&gt;Node14 -->
<g id="edge13" class="edge">
<title>Node6&#45;&gt;Node14</title>
<path fill="none" stroke="midnightblue" d="M172,-385.22C163.5,-377.32 150.49,-365.22 140.15,-355.61"/>
<polygon fill="midnightblue" stroke="midnightblue" points="142.27,-352.8 132.56,-348.55 137.5,-357.92 142.27,-352.8"/>
</g>
<!-- Node22 -->
<g id="node22" class="node">
<title>Node22</title>
<g id="a_node22"><a xlink:title=" ">
<polygon fill="white" stroke="#bfbfbf" points="172.17,-330.5 172.17,-348.5 217.63,-348.5 217.63,-330.5 172.17,-330.5"/>
<text text-anchor="middle" x="194.9" y="-336.5" font-family="Helvetica,sans-Serif" font-size="10.00">cstring</text>
</a>
</g>
</g>
<!-- Node6&#45;&gt;Node22 -->
<g id="edge26" class="edge">
<title>Node6&#45;&gt;Node22</title>
<path fill="none" stroke="midnightblue" d="M183.09,-385.22C184.99,-378.02 187.81,-367.35 190.22,-358.23"/>
<polygon fill="midnightblue" stroke="midnightblue" points="193.61,-359.11 192.78,-348.55 186.84,-357.32 193.61,-359.11"/>
</g>
<!-- Node8 -->
<g id="node8" class="node">
<title>Node8</title>
<g id="a_node8"><a xlink:href="../../dc/de8/txvars_8h.html" target="_top" xlink:title=" ">
<polygon fill="white" stroke="black" points="123.4,-220.5 123.4,-238.5 174.41,-238.5 174.41,-220.5 123.4,-220.5"/>
<text text-anchor="middle" x="148.9" y="-226.5" font-family="Helvetica,sans-Serif" font-size="10.00">txvars.h</text>
</a>
</g>
</g>
<!-- Node7&#45;&gt;Node8 -->
<g id="edge7" class="edge">
<title>Node7&#45;&gt;Node8</title>
<path fill="none" stroke="midnightblue" d="M231.17,-275.45C215.64,-266.97 190.95,-253.48 172.67,-243.49"/>
<polygon fill="midnightblue" stroke="midnightblue" points="174.23,-240.35 163.77,-238.63 170.87,-246.49 174.23,-240.35"/>
</g>
<!-- Node13 -->
<g id="node13" class="node">
<title>Node13</title>
<g id="a_node13"><a xlink:title=" ">
<polygon fill="white" stroke="#bfbfbf" points="280.67,-165.5 280.67,-183.5 321.13,-183.5 321.13,-165.5 280.67,-165.5"/>
<text text-anchor="middle" x="300.9" y="-171.5" font-family="Helvetica,sans-Serif" font-size="10.00">string</text>
</a>
</g>
</g>
<!-- Node7&#45;&gt;Node13 -->
<g id="edge12" class="edge">
<title>Node7&#45;&gt;Node13</title>
<path fill="none" stroke="midnightblue" d="M254.16,-275.35C262.27,-266.93 274.48,-253.06 281.9,-239 289.46,-224.67 294.45,-206.9 297.41,-193.81"/>
<polygon fill="midnightblue" stroke="midnightblue" points="300.9,-194.21 299.51,-183.71 294.05,-192.79 300.9,-194.21"/>
</g>
<!-- Node9 -->
<g id="node9" class="node">
<title>Node9</title>
<g id="a_node9"><a xlink:href="../../d0/d0b/enums_8h.html" target="_top" xlink:title=" ">
<polygon fill="white" stroke="black" points="147.28,-110.5 147.28,-128.5 230.52,-128.5 230.52,-110.5 147.28,-110.5"/>
<text text-anchor="middle" x="188.9" y="-116.5" font-family="Helvetica,sans-Serif" font-size="10.00">tralics/enums.h</text>
</a>
</g>
</g>
<!-- Node8&#45;&gt;Node9 -->
<g id="edge8" class="edge">
<title>Node8&#45;&gt;Node9</title>
<path fill="none" stroke="midnightblue" d="M154.99,-220.42C161.17,-211.83 170.56,-197.63 175.9,-184 181.68,-169.25 185.04,-151.52 186.89,-138.55"/>
<polygon fill="midnightblue" stroke="midnightblue" points="190.37,-138.93 188.14,-128.57 183.42,-138.05 190.37,-138.93"/>
</g>
<!-- Node12 -->
<g id="node12" class="node">
<title>Node12</title>
<g id="a_node12"><a xlink:title=" ">
<polygon fill="white" stroke="#bfbfbf" points="128.51,-165.5 128.51,-183.5 167.29,-183.5 167.29,-165.5 128.51,-165.5"/>
<text text-anchor="middle" x="147.9" y="-171.5" font-family="Helvetica,sans-Serif" font-size="10.00">array</text>
</a>
</g>
</g>
<!-- Node8&#45;&gt;Node12 -->
<g id="edge11" class="edge">
<title>Node8&#45;&gt;Node12</title>
<path fill="none" stroke="midnightblue" d="M148.75,-220.22C148.61,-213.18 148.42,-202.81 148.25,-193.83"/>
<polygon fill="midnightblue" stroke="midnightblue" points="151.74,-193.48 148.05,-183.55 144.74,-193.61 151.74,-193.48"/>
</g>
<!-- Node10 -->
<g id="node10" class="node">
<title>Node10</title>
<g id="a_node10"><a xlink:href="../../d8/db5/consts_8h.html" target="_top" xlink:title=" ">
<polygon fill="white" stroke="black" points="157.28,-55.5 157.28,-73.5 210.52,-73.5 210.52,-55.5 157.28,-55.5"/>
<text text-anchor="middle" x="183.9" y="-61.5" font-family="Helvetica,sans-Serif" font-size="10.00">consts.h</text>
</a>
</g>
</g>
<!-- Node9&#45;&gt;Node10 -->
<g id="edge9" class="edge">
<title>Node9&#45;&gt;Node10</title>
<path fill="none" stroke="midnightblue" d="M188.12,-110.22C187.45,-103.1 186.46,-92.58 185.6,-83.53"/>
<polygon fill="midnightblue" stroke="midnightblue" points="189.08,-83.18 184.66,-73.55 182.12,-83.83 189.08,-83.18"/>
</g>
<!-- Node11 -->
<g id="node11" class="node">
<title>Node11</title>
<g id="a_node11"><a xlink:href="../../d9/d49/types_8h.html" target="_top" xlink:title=" ">
<polygon fill="white" stroke="black" points="110.78,-0.5 110.78,-18.5 159.02,-18.5 159.02,-0.5 110.78,-0.5"/>
<text text-anchor="middle" x="134.9" y="-6.5" font-family="Helvetica,sans-Serif" font-size="10.00">types.h</text>
</a>
</g>
</g>
<!-- Node10&#45;&gt;Node11 -->
<g id="edge10" class="edge">
<title>Node10&#45;&gt;Node11</title>
<path fill="none" stroke="midnightblue" d="M176.25,-55.22C169.08,-47.47 158.2,-35.7 149.4,-26.18"/>
<polygon fill="midnightblue" stroke="midnightblue" points="151.7,-23.52 142.34,-18.55 146.56,-28.27 151.7,-23.52"/>
</g>
<!-- Node15 -->
<g id="node15" class="node">
<title>Node15</title>
<g id="a_node15"><a xlink:href="../../dc/d91/txtokenlist_8h.html" target="_top" xlink:title=" ">
<polygon fill="white" stroke="black" points="114.5,-275.5 114.5,-293.5 183.3,-293.5 183.3,-275.5 114.5,-275.5"/>
<text text-anchor="middle" x="148.9" y="-281.5" font-family="Helvetica,sans-Serif" font-size="10.00">txtokenlist.h</text>
</a>
</g>
</g>
<!-- Node14&#45;&gt;Node15 -->
<g id="edge14" class="edge">
<title>Node14&#45;&gt;Node15</title>
<path fill="none" stroke="midnightblue" d="M127.81,-330.22C131.28,-322.86 136.46,-311.88 140.82,-302.64"/>
<polygon fill="midnightblue" stroke="midnightblue" points="144,-304.09 145.1,-293.55 137.67,-301.1 144,-304.09"/>
</g>
<!-- Node15&#45;&gt;Node8 -->
<g id="edge24" class="edge">
<title>Node15&#45;&gt;Node8</title>
<path fill="none" stroke="midnightblue" d="M148.9,-275.22C148.9,-268.18 148.9,-257.81 148.9,-248.83"/>
<polygon fill="midnightblue" stroke="midnightblue" points="152.4,-248.55 148.9,-238.55 145.4,-248.55 152.4,-248.55"/>
</g>
<!-- Node16 -->
<g id="node16" class="node">
<title>Node16</title>
<g id="a_node16"><a xlink:href="../../d5/daf/_istring_8h.html" target="_top" xlink:title=" ">
<polygon fill="white" stroke="black" points="192.67,-220.5 192.67,-238.5 273.13,-238.5 273.13,-220.5 192.67,-220.5"/>
<text text-anchor="middle" x="232.9" y="-226.5" font-family="Helvetica,sans-Serif" font-size="10.00">tralics/Istring.h</text>
</a>
</g>
</g>
<!-- Node15&#45;&gt;Node16 -->
<g id="edge15" class="edge">
<title>Node15&#45;&gt;Node16</title>
<path fill="none" stroke="midnightblue" d="M161.66,-275.45C174.86,-267.12 195.7,-253.97 211.44,-244.04"/>
<polygon fill="midnightblue" stroke="midnightblue" points="213.43,-246.92 220.02,-238.63 209.7,-241 213.43,-246.92"/>
</g>
<!-- Node17 -->
<g id="node17" class="node">
<title>Node17</title>
<g id="a_node17"><a xlink:href="../../dd/dcd/_token_8h.html" target="_top" xlink:title=" ">
<polygon fill="white" stroke="black" points="25.94,-220.5 25.94,-238.5 105.86,-238.5 105.86,-220.5 25.94,-220.5"/>
<text text-anchor="middle" x="65.9" y="-226.5" font-family="Helvetica,sans-Serif" font-size="10.00">tralics/Token.h</text>
</a>
</g>
</g>
<!-- Node15&#45;&gt;Node17 -->
<g id="edge18" class="edge">
<title>Node15&#45;&gt;Node17</title>
<path fill="none" stroke="midnightblue" d="M136.3,-275.45C123.25,-267.12 102.66,-253.97 87.1,-244.04"/>
<polygon fill="midnightblue" stroke="midnightblue" points="88.94,-241.06 78.63,-238.63 85.17,-246.96 88.94,-241.06"/>
</g>
<!-- Node21 -->
<g id="node21" class="node">
<title>Node21</title>
<g id="a_node21"><a xlink:title=" ">
<polygon fill="white" stroke="#bfbfbf" points="328.51,-220.5 328.51,-238.5 367.29,-238.5 367.29,-220.5 328.51,-220.5"/>
<text text-anchor="middle" x="347.9" y="-226.5" font-family="Helvetica,sans-Serif" font-size="10.00">utility</text>
</a>
</g>
</g>
<!-- Node15&#45;&gt;Node21 -->
<g id="edge25" class="edge">
<title>Node15&#45;&gt;Node21</title>
<path fill="none" stroke="midnightblue" d="M179.13,-275.45C216.89,-265.39 281.09,-248.29 318.48,-238.34"/>
<polygon fill="midnightblue" stroke="midnightblue" points="319.51,-241.68 328.27,-235.73 317.71,-234.92 319.51,-241.68"/>
</g>
<!-- Node16&#45;&gt;Node9 -->
<g id="edge16" class="edge">
<title>Node16&#45;&gt;Node9</title>
<path fill="none" stroke="midnightblue" d="M229.59,-220.38C222.52,-203.03 205.79,-161.96 196.13,-138.24"/>
<polygon fill="midnightblue" stroke="midnightblue" points="199.26,-136.65 192.25,-128.71 192.78,-139.29 199.26,-136.65"/>
</g>
<!-- Node16&#45;&gt;Node13 -->
<g id="edge17" class="edge">
<title>Node16&#45;&gt;Node13</title>
<path fill="none" stroke="midnightblue" d="M243.23,-220.45C253.61,-212.36 269.85,-199.7 282.45,-189.88"/>
<polygon fill="midnightblue" stroke="midnightblue" points="284.74,-192.53 290.48,-183.63 280.44,-187.01 284.74,-192.53"/>
</g>
<!-- Node18 -->
<g id="node18" class="node">
<title>Node18</title>
<g id="a_node18"><a xlink:href="../../d2/d68/_cmd_chr_8h.html" target="_top" xlink:title=" ">
<polygon fill="white" stroke="black" points="2.39,-165.5 2.39,-183.5 63.41,-183.5 63.41,-165.5 2.39,-165.5"/>
<text text-anchor="middle" x="32.9" y="-171.5" font-family="Helvetica,sans-Serif" font-size="10.00">CmdChr.h</text>
</a>
</g>
</g>
<!-- Node17&#45;&gt;Node18 -->
<g id="edge19" class="edge">
<title>Node17&#45;&gt;Node18</title>
<path fill="none" stroke="midnightblue" d="M60.75,-220.22C56.07,-212.71 49.03,-201.41 43.21,-192.05"/>
<polygon fill="midnightblue" stroke="midnightblue" points="46.17,-190.19 37.91,-183.55 40.23,-193.89 46.17,-190.19"/>
</g>
<!-- Node20 -->
<g id="node20" class="node">
<title>Node20</title>
<g id="a_node20"><a xlink:title=" ">
<polygon fill="white" stroke="#bfbfbf" points="81.4,-165.5 81.4,-183.5 110.4,-183.5 110.4,-165.5 81.4,-165.5"/>
<text text-anchor="middle" x="95.51" y="-171.5" font-family="Helvetica,sans-Serif" font-size="10.00">list</text>
</a>
</g>
</g>
<!-- Node17&#45;&gt;Node20 -->
<g id="edge23" class="edge">
<title>Node17&#45;&gt;Node20</title>
<path fill="none" stroke="midnightblue" d="M70.59,-220.22C74.8,-212.79 81.1,-201.65 86.37,-192.34"/>
<polygon fill="midnightblue" stroke="midnightblue" points="89.46,-193.98 91.35,-183.55 83.37,-190.53 89.46,-193.98"/>
</g>
<!-- Node18&#45;&gt;Node9 -->
<g id="edge22" class="edge">
<title>Node18&#45;&gt;Node9</title>
<path fill="none" stroke="midnightblue" d="M56.59,-165.45C83.01,-156.47 125.94,-141.89 155.7,-131.78"/>
<polygon fill="midnightblue" stroke="midnightblue" points="156.9,-135.07 165.24,-128.54 154.65,-128.44 156.9,-135.07"/>
</g>
<!-- Node19 -->
<g id="node19" class="node">
<title>Node19</title>
<g id="a_node19"><a xlink:href="../../d8/d47/codepoint_8h.html" target="_top" xlink:title=" ">
<polygon fill="white" stroke="black" points="62.05,-55.5 62.05,-73.5 129.76,-73.5 129.76,-55.5 62.05,-55.5"/>
<text text-anchor="middle" x="95.9" y="-61.5" font-family="Helvetica,sans-Serif" font-size="10.00">codepoint.h</text>
</a>
</g>
</g>
<!-- Node18&#45;&gt;Node19 -->
<g id="edge20" class="edge">
<title>Node18&#45;&gt;Node19</title>
<path fill="none" stroke="midnightblue" d="M37.64,-165.38C47.85,-147.87 72.15,-106.22 85.92,-82.6"/>
<polygon fill="midnightblue" stroke="midnightblue" points="89.1,-84.11 91.11,-73.71 83.05,-80.59 89.1,-84.11"/>
</g>
<!-- Node19&#45;&gt;Node11 -->
<g id="edge21" class="edge">
<title>Node19&#45;&gt;Node11</title>
<path fill="none" stroke="midnightblue" d="M102,-55.22C107.58,-47.63 116.01,-36.18 122.94,-26.76"/>
<polygon fill="midnightblue" stroke="midnightblue" points="125.87,-28.68 128.98,-18.55 120.23,-24.53 125.87,-28.68"/>
</g>
<!-- Node24 -->
<g id="node24" class="node">
<title>Node24</title>
<g id="a_node24"><a xlink:href="../../d3/d01/txeqtb_8h.html" target="_top" xlink:title=" ">
<polygon fill="white" stroke="black" points="245.11,-495.5 245.11,-513.5 296.69,-513.5 296.69,-495.5 245.11,-495.5"/>
<text text-anchor="middle" x="270.9" y="-501.5" font-family="Helvetica,sans-Serif" font-size="10.00">txeqtb.h</text>
</a>
</g>
</g>
<!-- Node23&#45;&gt;Node24 -->
<g id="edge29" class="edge">
<title>Node23&#45;&gt;Node24</title>
<path fill="none" stroke="midnightblue" d="M270.9,-550.22C270.9,-543.18 270.9,-532.81 270.9,-523.83"/>
<polygon fill="midnightblue" stroke="midnightblue" points="274.4,-523.55 270.9,-513.55 267.4,-523.55 274.4,-523.55"/>
</g>
<!-- Node24&#45;&gt;Node5 -->
<g id="edge30" class="edge">
<title>Node24&#45;&gt;Node5</title>
<path fill="none" stroke="midnightblue" d="M253.13,-495.45C233.98,-486.77 203.25,-472.86 181.06,-462.8"/>
<polygon fill="midnightblue" stroke="midnightblue" points="182.39,-459.56 171.84,-458.63 179.5,-465.94 182.39,-459.56"/>
</g>
<!-- Node25&#45;&gt;Node13 -->
<g id="edge32" class="edge">
<title>Node25&#45;&gt;Node13</title>
<path fill="none" stroke="midnightblue" d="M394.33,-275.22C393.05,-262.19 388.93,-236.69 375.9,-220 364.25,-205.08 346.08,-194.12 330.55,-186.81"/>
<polygon fill="midnightblue" stroke="midnightblue" points="331.86,-183.56 321.3,-182.72 329.04,-189.96 331.86,-183.56"/>
</g>
<!-- Node25&#45;&gt;Node21 -->
<g id="edge33" class="edge">
<title>Node25&#45;&gt;Node21</title>
<path fill="none" stroke="midnightblue" d="M387.56,-275.22C380.69,-267.47 370.25,-255.7 361.81,-246.18"/>
<polygon fill="midnightblue" stroke="midnightblue" points="364.29,-243.71 355.04,-238.55 359.06,-248.35 364.29,-243.71"/>
</g>
<!-- Node26&#45;&gt;Node6 -->
<g id="edge35" class="edge">
<title>Node26&#45;&gt;Node6</title>
<path fill="none" stroke="midnightblue" d="M333.42,-550.43C329.24,-537.7 319.83,-512.59 305.9,-495 276.63,-458.05 231.13,-426.3 203.85,-409.14"/>
<polygon fill="midnightblue" stroke="midnightblue" points="205.37,-405.96 195.02,-403.69 201.69,-411.92 205.37,-405.96"/>
</g>
<!-- Node27 -->
<g id="node27" class="node">
<title>Node27</title>
<g id="a_node27"><a xlink:title=" ">
<polygon fill="white" stroke="#bfbfbf" points="353.23,-495.5 353.23,-513.5 402.57,-513.5 402.57,-495.5 353.23,-495.5"/>
<text text-anchor="middle" x="377.9" y="-501.5" font-family="Helvetica,sans-Serif" font-size="10.00">fstream</text>
</a>
</g>
</g>
<!-- Node26&#45;&gt;Node27 -->
<g id="edge36" class="edge">
<title>Node26&#45;&gt;Node27</title>
<path fill="none" stroke="midnightblue" d="M342.46,-550.22C348.54,-542.55 357.74,-530.94 365.25,-521.47"/>
<polygon fill="midnightblue" stroke="midnightblue" points="368.05,-523.56 371.52,-513.55 362.57,-519.21 368.05,-523.56"/>
</g>
<!-- Node29 -->
<g id="node29" class="node">
<title>Node29</title>
<g id="a_node29"><a xlink:href="../../d4/da4/txatt_8h.html" target="_top" xlink:title=" ">
<polygon fill="white" stroke="black" points="118.28,-495.5 118.28,-513.5 161.52,-513.5 161.52,-495.5 118.28,-495.5"/>
<text text-anchor="middle" x="139.9" y="-501.5" font-family="Helvetica,sans-Serif" font-size="10.00">txatt.h</text>
</a>
</g>
</g>
<!-- Node28&#45;&gt;Node29 -->
<g id="edge38" class="edge">
<title>Node28&#45;&gt;Node29</title>
<path fill="none" stroke="midnightblue" d="M188.84,-550.22C180.11,-542.24 166.7,-529.98 156.12,-520.32"/>
<polygon fill="midnightblue" stroke="midnightblue" points="158.45,-517.71 148.71,-513.55 153.73,-522.88 158.45,-517.71"/>
</g>
<!-- Node30 -->
<g id="node30" class="node">
<title>Node30</title>
<g id="a_node30"><a xlink:href="../../d1/d43/txxml_8h.html" target="_top" xlink:title=" ">
<polygon fill="white" stroke="black" points="179.07,-495.5 179.07,-513.5 226.74,-513.5 226.74,-495.5 179.07,-495.5"/>
<text text-anchor="middle" x="202.9" y="-501.5" font-family="Helvetica,sans-Serif" font-size="10.00">txxml.h</text>
</a>
</g>
</g>
<!-- Node28&#45;&gt;Node30 -->
<g id="edge40" class="edge">
<title>Node28&#45;&gt;Node30</title>
<path fill="none" stroke="midnightblue" d="M198.68,-550.22C199.35,-543.1 200.35,-532.58 201.2,-523.53"/>
<polygon fill="midnightblue" stroke="midnightblue" points="204.69,-523.83 202.14,-513.55 197.72,-523.18 204.69,-523.83"/>
</g>
<!-- Node29&#45;&gt;Node5 -->
<g id="edge39" class="edge">
<title>Node29&#45;&gt;Node5</title>
<path fill="none" stroke="midnightblue" d="M142.09,-495.22C143.99,-488.02 146.81,-477.35 149.22,-468.23"/>
<polygon fill="midnightblue" stroke="midnightblue" points="152.61,-469.11 151.78,-458.55 145.84,-467.32 152.61,-469.11"/>
</g>
</g>
</svg>
