<?xml version="1.0" encoding="UTF-8" standalone="no"?>
<!DOCTYPE svg PUBLIC "-//W3C//DTD SVG 1.1//EN"
 "http://www.w3.org/Graphics/SVG/1.1/DTD/svg11.dtd">
<!-- Generated by graphviz version 2.42.3 (20191010.1750)
 -->
<!-- Title: txparser.h Pages: 1 -->
<svg width="479pt" height="687pt"
 viewBox="0.00 0.00 479.30 687.00" xmlns="http://www.w3.org/2000/svg" xmlns:xlink="http://www.w3.org/1999/xlink">
<g id="graph0" class="graph" transform="scale(1 1) rotate(0) translate(4 683)">
<title>txparser.h</title>
<polygon fill="white" stroke="transparent" points="-4,4 -4,-683 475.3,-683 475.3,4 -4,4"/>
<!-- Node1 -->
<g id="node1" class="node">
<title>Node1</title>
<g id="a_node1"><a xlink:title=" ">
<polygon fill="#bfbfbf" stroke="black" points="169.72,-660.5 169.72,-678.5 229.64,-678.5 229.64,-660.5 169.72,-660.5"/>
<text text-anchor="middle" x="199.68" y="-666.5" font-family="Helvetica,sans-Serif" font-size="10.00">txparser.h</text>
</a>
</g>
</g>
<!-- Node2 -->
<g id="node2" class="node">
<title>Node2</title>
<g id="a_node2"><a xlink:href="../../d3/d6b/txcond_8h.html" target="_top" xlink:title=" ">
<polygon fill="white" stroke="black" points="58.78,-495.5 58.78,-513.5 112.58,-513.5 112.58,-495.5 58.78,-495.5"/>
<text text-anchor="middle" x="85.68" y="-501.5" font-family="Helvetica,sans-Serif" font-size="10.00">txcond.h</text>
</a>
</g>
</g>
<!-- Node1&#45;&gt;Node2 -->
<g id="edge1" class="edge">
<title>Node1&#45;&gt;Node2</title>
<path fill="none" stroke="midnightblue" d="M183.84,-660.43C157.77,-646.13 106.71,-613.59 86.68,-569 80.32,-554.84 80.65,-537.06 82.24,-523.91"/>
<polygon fill="midnightblue" stroke="midnightblue" points="85.74,-524.18 83.82,-513.76 78.82,-523.1 85.74,-524.18"/>
</g>
<!-- Node4 -->
<g id="node4" class="node">
<title>Node4</title>
<g id="a_node4"><a xlink:href="../../d7/d4d/txfonts_8h.html" target="_top" xlink:title=" ">
<polygon fill="white" stroke="black" points="95.78,-550.5 95.78,-568.5 149.58,-568.5 149.58,-550.5 95.78,-550.5"/>
<text text-anchor="middle" x="122.68" y="-556.5" font-family="Helvetica,sans-Serif" font-size="10.00">txfonts.h</text>
</a>
</g>
</g>
<!-- Node1&#45;&gt;Node4 -->
<g id="edge3" class="edge">
<title>Node1&#45;&gt;Node4</title>
<path fill="none" stroke="midnightblue" d="M192.24,-660.23C184.52,-651.49 172.24,-637.17 162.68,-624 151.58,-608.71 140.22,-590.36 132.45,-577.33"/>
<polygon fill="midnightblue" stroke="midnightblue" points="135.37,-575.38 127.28,-568.54 129.33,-578.93 135.37,-575.38"/>
</g>
<!-- Node26 -->
<g id="node26" class="node">
<title>Node26</title>
<g id="a_node26"><a xlink:href="../../d7/d7e/txhash_8h.html" target="_top" xlink:title=" ">
<polygon fill="white" stroke="black" points="272.78,-605.5 272.78,-623.5 326.58,-623.5 326.58,-605.5 272.78,-605.5"/>
<text text-anchor="middle" x="299.68" y="-611.5" font-family="Helvetica,sans-Serif" font-size="10.00">txhash.h</text>
</a>
</g>
</g>
<!-- Node1&#45;&gt;Node26 -->
<g id="edge31" class="edge">
<title>Node1&#45;&gt;Node26</title>
<path fill="none" stroke="midnightblue" d="M214.87,-660.45C230.94,-651.93 256.56,-638.35 275.43,-628.35"/>
<polygon fill="midnightblue" stroke="midnightblue" points="277.15,-631.4 284.35,-623.63 273.87,-625.22 277.15,-631.4"/>
</g>
<!-- Node28 -->
<g id="node28" class="node">
<title>Node28</title>
<g id="a_node28"><a xlink:href="../../de/d7c/tximage_8h.html" target="_top" xlink:title=" ">
<polygon fill="white" stroke="black" points="0,-330.5 0,-348.5 59.35,-348.5 59.35,-330.5 0,-330.5"/>
<text text-anchor="middle" x="29.68" y="-336.5" font-family="Helvetica,sans-Serif" font-size="10.00">tximage.h</text>
</a>
</g>
</g>
<!-- Node1&#45;&gt;Node28 -->
<g id="edge34" class="edge">
<title>Node1&#45;&gt;Node28</title>
<path fill="none" stroke="midnightblue" d="M169.68,-663.52C120.87,-653.52 29.68,-626.06 29.68,-560.5 29.68,-560.5 29.68,-560.5 29.68,-448.5 29.68,-417.02 29.68,-380.37 29.68,-358.88"/>
<polygon fill="midnightblue" stroke="midnightblue" points="33.18,-358.63 29.68,-348.63 26.18,-358.63 33.18,-358.63"/>
</g>
<!-- Node29 -->
<g id="node29" class="node">
<title>Node29</title>
<g id="a_node29"><a xlink:href="../../de/d29/txio_8h.html" target="_top" xlink:title=" ">
<polygon fill="white" stroke="black" points="359.73,-605.5 359.73,-623.5 399.63,-623.5 399.63,-605.5 359.73,-605.5"/>
<text text-anchor="middle" x="379.68" y="-611.5" font-family="Helvetica,sans-Serif" font-size="10.00">txio.h</text>
</a>
</g>
</g>
<!-- Node1&#45;&gt;Node29 -->
<g id="edge37" class="edge">
<title>Node1&#45;&gt;Node29</title>
<path fill="none" stroke="midnightblue" d="M227.02,-660.45C260.08,-650.71 315.55,-634.38 349.74,-624.31"/>
<polygon fill="midnightblue" stroke="midnightblue" points="351.02,-627.59 359.62,-621.41 349.04,-620.87 351.02,-627.59"/>
</g>
<!-- Node31 -->
<g id="node31" class="node">
<title>Node31</title>
<g id="a_node31"><a xlink:href="../../dc/d65/txstack_8h.html" target="_top" xlink:title=" ">
<polygon fill="white" stroke="black" points="171.95,-605.5 171.95,-623.5 227.41,-623.5 227.41,-605.5 171.95,-605.5"/>
<text text-anchor="middle" x="199.68" y="-611.5" font-family="Helvetica,sans-Serif" font-size="10.00">txstack.h</text>
</a>
</g>
</g>
<!-- Node1&#45;&gt;Node31 -->
<g id="edge40" class="edge">
<title>Node1&#45;&gt;Node31</title>
<path fill="none" stroke="midnightblue" d="M199.68,-660.22C199.68,-653.18 199.68,-642.81 199.68,-633.83"/>
<polygon fill="midnightblue" stroke="midnightblue" points="203.18,-633.55 199.68,-623.55 196.18,-633.55 203.18,-633.55"/>
</g>
<!-- Node34 -->
<g id="node34" class="node">
<title>Node34</title>
<g id="a_node34"><a xlink:href="../../d8/d3d/txstats_8h.html" target="_top" xlink:title=" ">
<polygon fill="white" stroke="black" points="418.06,-605.5 418.06,-623.5 471.3,-623.5 471.3,-605.5 418.06,-605.5"/>
<text text-anchor="middle" x="444.68" y="-611.5" font-family="Helvetica,sans-Serif" font-size="10.00">txstats.h</text>
</a>
</g>
</g>
<!-- Node1&#45;&gt;Node34 -->
<g id="edge44" class="edge">
<title>Node1&#45;&gt;Node34</title>
<path fill="none" stroke="midnightblue" d="M229.83,-662.3C268.67,-654.26 338.51,-639.65 408.14,-624.08"/>
<polygon fill="midnightblue" stroke="midnightblue" points="408.96,-627.48 417.96,-621.88 407.43,-620.65 408.96,-627.48"/>
</g>
<!-- Node3 -->
<g id="node3" class="node">
<title>Node3</title>
<g id="a_node3"><a xlink:title=" ">
<polygon fill="white" stroke="#bfbfbf" points="66.06,-385.5 66.06,-403.5 109.29,-403.5 109.29,-385.5 66.06,-385.5"/>
<text text-anchor="middle" x="87.68" y="-391.5" font-family="Helvetica,sans-Serif" font-size="10.00">vector</text>
</a>
</g>
</g>
<!-- Node2&#45;&gt;Node3 -->
<g id="edge2" class="edge">
<title>Node2&#45;&gt;Node3</title>
<path fill="none" stroke="midnightblue" d="M85.83,-495.38C86.15,-478.18 86.9,-437.7 87.34,-413.89"/>
<polygon fill="midnightblue" stroke="midnightblue" points="90.84,-413.77 87.53,-403.71 83.84,-413.65 90.84,-413.77"/>
</g>
<!-- Node5 -->
<g id="node5" class="node">
<title>Node5</title>
<g id="a_node5"><a xlink:href="../../dc/def/txstring_8h.html" target="_top" xlink:title=" ">
<polygon fill="white" stroke="black" points="226.39,-495.5 226.39,-513.5 282.96,-513.5 282.96,-495.5 226.39,-495.5"/>
<text text-anchor="middle" x="254.68" y="-501.5" font-family="Helvetica,sans-Serif" font-size="10.00">txstring.h</text>
</a>
</g>
</g>
<!-- Node4&#45;&gt;Node5 -->
<g id="edge4" class="edge">
<title>Node4&#45;&gt;Node5</title>
<path fill="none" stroke="midnightblue" d="M142.73,-550.45C164.63,-541.66 199.93,-527.48 225.04,-517.4"/>
<polygon fill="midnightblue" stroke="midnightblue" points="226.46,-520.6 234.44,-513.63 223.86,-514.1 226.46,-520.6"/>
</g>
<!-- Node6 -->
<g id="node6" class="node">
<title>Node6</title>
<g id="a_node6"><a xlink:href="../../dd/d74/txbuffer_8h.html" target="_top" xlink:title=" ">
<polygon fill="white" stroke="black" points="226.19,-440.5 226.19,-458.5 283.16,-458.5 283.16,-440.5 226.19,-440.5"/>
<text text-anchor="middle" x="254.68" y="-446.5" font-family="Helvetica,sans-Serif" font-size="10.00">txbuffer.h</text>
</a>
</g>
</g>
<!-- Node5&#45;&gt;Node6 -->
<g id="edge5" class="edge">
<title>Node5&#45;&gt;Node6</title>
<path fill="none" stroke="midnightblue" d="M254.68,-495.22C254.68,-488.18 254.68,-477.81 254.68,-468.83"/>
<polygon fill="midnightblue" stroke="midnightblue" points="258.18,-468.55 254.68,-458.55 251.18,-468.55 258.18,-468.55"/>
</g>
<!-- Node6&#45;&gt;Node3 -->
<g id="edge30" class="edge">
<title>Node6&#45;&gt;Node3</title>
<path fill="none" stroke="midnightblue" d="M229.31,-440.45C199.84,-431.1 151.17,-415.65 119.27,-405.53"/>
<polygon fill="midnightblue" stroke="midnightblue" points="120.13,-402.13 109.54,-402.44 118.02,-408.8 120.13,-402.13"/>
</g>
<!-- Node7 -->
<g id="node7" class="node">
<title>Node7</title>
<g id="a_node7"><a xlink:href="../../d1/d9e/txid_8h.html" target="_top" xlink:title=" ">
<polygon fill="white" stroke="black" points="174.73,-330.5 174.73,-348.5 214.63,-348.5 214.63,-330.5 174.73,-330.5"/>
<text text-anchor="middle" x="194.68" y="-336.5" font-family="Helvetica,sans-Serif" font-size="10.00">txid.h</text>
</a>
</g>
</g>
<!-- Node6&#45;&gt;Node7 -->
<g id="edge6" class="edge">
<title>Node6&#45;&gt;Node7</title>
<path fill="none" stroke="midnightblue" d="M249.28,-440.44C243.46,-431.63 234.04,-417.03 226.68,-404 218.05,-388.73 209.15,-370.86 202.93,-357.97"/>
<polygon fill="midnightblue" stroke="midnightblue" points="206.04,-356.37 198.57,-348.85 199.72,-359.38 206.04,-356.37"/>
</g>
<!-- Node16 -->
<g id="node16" class="node">
<title>Node16</title>
<g id="a_node16"><a xlink:href="../../d9/d18/txscaled_8h.html" target="_top" xlink:title=" ">
<polygon fill="white" stroke="black" points="236.17,-385.5 236.17,-403.5 297.19,-403.5 297.19,-385.5 236.17,-385.5"/>
<text text-anchor="middle" x="266.68" y="-391.5" font-family="Helvetica,sans-Serif" font-size="10.00">txscaled.h</text>
</a>
</g>
</g>
<!-- Node6&#45;&gt;Node16 -->
<g id="edge15" class="edge">
<title>Node6&#45;&gt;Node16</title>
<path fill="none" stroke="midnightblue" d="M256.55,-440.22C258.16,-433.1 260.55,-422.58 262.6,-413.53"/>
<polygon fill="midnightblue" stroke="midnightblue" points="266.06,-414.08 264.85,-403.55 259.23,-412.53 266.06,-414.08"/>
</g>
<!-- Node24 -->
<g id="node24" class="node">
<title>Node24</title>
<g id="a_node24"><a xlink:title=" ">
<polygon fill="white" stroke="#bfbfbf" points="314.95,-385.5 314.95,-403.5 360.4,-403.5 360.4,-385.5 314.95,-385.5"/>
<text text-anchor="middle" x="337.68" y="-391.5" font-family="Helvetica,sans-Serif" font-size="10.00">cstring</text>
</a>
</g>
</g>
<!-- Node6&#45;&gt;Node24 -->
<g id="edge28" class="edge">
<title>Node6&#45;&gt;Node24</title>
<path fill="none" stroke="midnightblue" d="M267.28,-440.45C280.32,-432.12 300.92,-418.97 316.47,-409.04"/>
<polygon fill="midnightblue" stroke="midnightblue" points="318.41,-411.96 324.95,-403.63 314.64,-406.06 318.41,-411.96"/>
</g>
<!-- Node25 -->
<g id="node25" class="node">
<title>Node25</title>
<g id="a_node25"><a xlink:title=" ">
<polygon fill="white" stroke="#bfbfbf" points="128.16,-385.5 128.16,-403.5 179.19,-403.5 179.19,-385.5 128.16,-385.5"/>
<text text-anchor="middle" x="153.68" y="-391.5" font-family="Helvetica,sans-Serif" font-size="10.00">optional</text>
</a>
</g>
</g>
<!-- Node6&#45;&gt;Node25 -->
<g id="edge29" class="edge">
<title>Node6&#45;&gt;Node25</title>
<path fill="none" stroke="midnightblue" d="M239.34,-440.45C223.1,-431.93 197.23,-418.35 178.16,-408.35"/>
<polygon fill="midnightblue" stroke="midnightblue" points="179.64,-405.17 169.16,-403.63 176.39,-411.37 179.64,-405.17"/>
</g>
<!-- Node8 -->
<g id="node8" class="node">
<title>Node8</title>
<g id="a_node8"><a xlink:href="../../dc/de8/txvars_8h.html" target="_top" xlink:title=" ">
<polygon fill="white" stroke="black" points="244.17,-275.5 244.17,-293.5 295.18,-293.5 295.18,-275.5 244.17,-275.5"/>
<text text-anchor="middle" x="269.68" y="-281.5" font-family="Helvetica,sans-Serif" font-size="10.00">txvars.h</text>
</a>
</g>
</g>
<!-- Node7&#45;&gt;Node8 -->
<g id="edge7" class="edge">
<title>Node7&#45;&gt;Node8</title>
<path fill="none" stroke="midnightblue" d="M206.07,-330.45C217.63,-322.28 235.77,-309.46 249.72,-299.6"/>
<polygon fill="midnightblue" stroke="midnightblue" points="252.03,-302.25 258.18,-293.63 247.99,-296.54 252.03,-302.25"/>
</g>
<!-- Node15 -->
<g id="node15" class="node">
<title>Node15</title>
<g id="a_node15"><a xlink:title=" ">
<polygon fill="white" stroke="#bfbfbf" points="40.45,-220.5 40.45,-238.5 80.9,-238.5 80.9,-220.5 40.45,-220.5"/>
<text text-anchor="middle" x="60.68" y="-226.5" font-family="Helvetica,sans-Serif" font-size="10.00">string</text>
</a>
</g>
</g>
<!-- Node7&#45;&gt;Node15 -->
<g id="edge14" class="edge">
<title>Node7&#45;&gt;Node15</title>
<path fill="none" stroke="midnightblue" d="M174.62,-336.15C149,-332.08 104.96,-321.35 79.68,-294 68.33,-281.72 63.74,-262.92 61.9,-248.96"/>
<polygon fill="midnightblue" stroke="midnightblue" points="65.34,-248.24 60.9,-238.62 58.37,-248.91 65.34,-248.24"/>
</g>
<!-- Node9 -->
<g id="node9" class="node">
<title>Node9</title>
<g id="a_node9"><a xlink:href="../../d0/d0b/enums_8h.html" target="_top" xlink:title=" ">
<polygon fill="white" stroke="black" points="224.05,-165.5 224.05,-183.5 307.3,-183.5 307.3,-165.5 224.05,-165.5"/>
<text text-anchor="middle" x="265.68" y="-171.5" font-family="Helvetica,sans-Serif" font-size="10.00">tralics/enums.h</text>
</a>
</g>
</g>
<!-- Node8&#45;&gt;Node9 -->
<g id="edge8" class="edge">
<title>Node8&#45;&gt;Node9</title>
<path fill="none" stroke="midnightblue" d="M262.78,-275.29C256.14,-266.83 246.57,-252.92 242.68,-239 238.15,-222.8 245.91,-204.82 253.62,-192.14"/>
<polygon fill="midnightblue" stroke="midnightblue" points="256.68,-193.86 259.3,-183.59 250.85,-189.99 256.68,-193.86"/>
</g>
<!-- Node14 -->
<g id="node14" class="node">
<title>Node14</title>
<g id="a_node14"><a xlink:title=" ">
<polygon fill="white" stroke="#bfbfbf" points="251.29,-220.5 251.29,-238.5 290.07,-238.5 290.07,-220.5 251.29,-220.5"/>
<text text-anchor="middle" x="270.68" y="-226.5" font-family="Helvetica,sans-Serif" font-size="10.00">array</text>
</a>
</g>
</g>
<!-- Node8&#45;&gt;Node14 -->
<g id="edge13" class="edge">
<title>Node8&#45;&gt;Node14</title>
<path fill="none" stroke="midnightblue" d="M269.83,-275.22C269.97,-268.18 270.16,-257.81 270.33,-248.83"/>
<polygon fill="midnightblue" stroke="midnightblue" points="273.84,-248.61 270.53,-238.55 266.84,-248.48 273.84,-248.61"/>
</g>
<!-- Node10 -->
<g id="node10" class="node">
<title>Node10</title>
<g id="a_node10"><a xlink:href="../../d8/db5/consts_8h.html" target="_top" xlink:title=" ">
<polygon fill="white" stroke="black" points="260.06,-110.5 260.06,-128.5 313.3,-128.5 313.3,-110.5 260.06,-110.5"/>
<text text-anchor="middle" x="286.68" y="-116.5" font-family="Helvetica,sans-Serif" font-size="10.00">consts.h</text>
</a>
</g>
</g>
<!-- Node9&#45;&gt;Node10 -->
<g id="edge9" class="edge">
<title>Node9&#45;&gt;Node10</title>
<path fill="none" stroke="midnightblue" d="M268.96,-165.22C271.84,-157.94 276.13,-147.11 279.77,-137.93"/>
<polygon fill="midnightblue" stroke="midnightblue" points="283.06,-139.14 283.49,-128.55 276.55,-136.56 283.06,-139.14"/>
</g>
<!-- Node11 -->
<g id="node11" class="node">
<title>Node11</title>
<g id="a_node11"><a xlink:href="../../d9/d49/types_8h.html" target="_top" xlink:title=" ">
<polygon fill="white" stroke="black" points="301.56,-55.5 301.56,-73.5 349.8,-73.5 349.8,-55.5 301.56,-55.5"/>
<text text-anchor="middle" x="325.68" y="-61.5" font-family="Helvetica,sans-Serif" font-size="10.00">types.h</text>
</a>
</g>
</g>
<!-- Node10&#45;&gt;Node11 -->
<g id="edge10" class="edge">
<title>Node10&#45;&gt;Node11</title>
<path fill="none" stroke="midnightblue" d="M292.77,-110.22C298.36,-102.63 306.78,-91.18 313.71,-81.76"/>
<polygon fill="midnightblue" stroke="midnightblue" points="316.65,-83.68 319.75,-73.55 311.01,-79.53 316.65,-83.68"/>
</g>
<!-- Node12 -->
<g id="node12" class="node">
<title>Node12</title>
<g id="a_node12"><a xlink:title=" ">
<polygon fill="white" stroke="#bfbfbf" points="265.56,-0.5 265.56,-18.5 313.79,-18.5 313.79,-0.5 265.56,-0.5"/>
<text text-anchor="middle" x="289.68" y="-6.5" font-family="Helvetica,sans-Serif" font-size="10.00">cassert</text>
</a>
</g>
</g>
<!-- Node11&#45;&gt;Node12 -->
<g id="edge11" class="edge">
<title>Node11&#45;&gt;Node12</title>
<path fill="none" stroke="midnightblue" d="M320.05,-55.22C314.95,-47.71 307.28,-36.41 300.92,-27.05"/>
<polygon fill="midnightblue" stroke="midnightblue" points="303.66,-24.86 295.14,-18.55 297.87,-28.79 303.66,-24.86"/>
</g>
<!-- Node13 -->
<g id="node13" class="node">
<title>Node13</title>
<g id="a_node13"><a xlink:title=" ">
<polygon fill="white" stroke="#bfbfbf" points="331.61,-0.5 331.61,-18.5 393.74,-18.5 393.74,-0.5 331.61,-0.5"/>
<text text-anchor="middle" x="362.68" y="-6.5" font-family="Helvetica,sans-Serif" font-size="10.00">type_traits</text>
</a>
</g>
</g>
<!-- Node11&#45;&gt;Node13 -->
<g id="edge12" class="edge">
<title>Node11&#45;&gt;Node13</title>
<path fill="none" stroke="midnightblue" d="M331.46,-55.22C336.76,-47.63 344.75,-36.18 351.33,-26.76"/>
<polygon fill="midnightblue" stroke="midnightblue" points="354.2,-28.75 357.06,-18.55 348.46,-24.75 354.2,-28.75"/>
</g>
<!-- Node17 -->
<g id="node17" class="node">
<title>Node17</title>
<g id="a_node17"><a xlink:href="../../dc/d91/txtokenlist_8h.html" target="_top" xlink:title=" ">
<polygon fill="white" stroke="black" points="232.28,-330.5 232.28,-348.5 301.08,-348.5 301.08,-330.5 232.28,-330.5"/>
<text text-anchor="middle" x="266.68" y="-336.5" font-family="Helvetica,sans-Serif" font-size="10.00">txtokenlist.h</text>
</a>
</g>
</g>
<!-- Node16&#45;&gt;Node17 -->
<g id="edge16" class="edge">
<title>Node16&#45;&gt;Node17</title>
<path fill="none" stroke="midnightblue" d="M266.68,-385.22C266.68,-378.18 266.68,-367.81 266.68,-358.83"/>
<polygon fill="midnightblue" stroke="midnightblue" points="270.18,-358.55 266.68,-348.55 263.18,-358.55 270.18,-358.55"/>
</g>
<!-- Node17&#45;&gt;Node8 -->
<g id="edge26" class="edge">
<title>Node17&#45;&gt;Node8</title>
<path fill="none" stroke="midnightblue" d="M267.15,-330.22C267.54,-323.18 268.13,-312.81 268.64,-303.83"/>
<polygon fill="midnightblue" stroke="midnightblue" points="272.15,-303.73 269.22,-293.55 265.16,-303.34 272.15,-303.73"/>
</g>
<!-- Node18 -->
<g id="node18" class="node">
<title>Node18</title>
<g id="a_node18"><a xlink:href="../../d5/daf/_istring_8h.html" target="_top" xlink:title=" ">
<polygon fill="white" stroke="black" points="145.45,-275.5 145.45,-293.5 225.91,-293.5 225.91,-275.5 145.45,-275.5"/>
<text text-anchor="middle" x="185.68" y="-281.5" font-family="Helvetica,sans-Serif" font-size="10.00">tralics/Istring.h</text>
</a>
</g>
</g>
<!-- Node17&#45;&gt;Node18 -->
<g id="edge17" class="edge">
<title>Node17&#45;&gt;Node18</title>
<path fill="none" stroke="midnightblue" d="M254.38,-330.45C241.77,-322.2 221.92,-309.22 206.8,-299.32"/>
<polygon fill="midnightblue" stroke="midnightblue" points="208.38,-296.17 198.1,-293.63 204.55,-302.03 208.38,-296.17"/>
</g>
<!-- Node19 -->
<g id="node19" class="node">
<title>Node19</title>
<g id="a_node19"><a xlink:href="../../dd/dcd/_token_8h.html" target="_top" xlink:title=" ">
<polygon fill="white" stroke="black" points="312.72,-275.5 312.72,-293.5 392.64,-293.5 392.64,-275.5 312.72,-275.5"/>
<text text-anchor="middle" x="352.68" y="-281.5" font-family="Helvetica,sans-Serif" font-size="10.00">tralics/Token.h</text>
</a>
</g>
</g>
<!-- Node17&#45;&gt;Node19 -->
<g id="edge20" class="edge">
<title>Node17&#45;&gt;Node19</title>
<path fill="none" stroke="midnightblue" d="M279.74,-330.45C293.25,-322.12 314.59,-308.97 330.71,-299.04"/>
<polygon fill="midnightblue" stroke="midnightblue" points="332.82,-301.85 339.49,-293.63 329.14,-295.89 332.82,-301.85"/>
</g>
<!-- Node23 -->
<g id="node23" class="node">
<title>Node23</title>
<g id="a_node23"><a xlink:title=" ">
<polygon fill="white" stroke="#bfbfbf" points="88.29,-275.5 88.29,-293.5 127.07,-293.5 127.07,-275.5 88.29,-275.5"/>
<text text-anchor="middle" x="107.68" y="-281.5" font-family="Helvetica,sans-Serif" font-size="10.00">utility</text>
</a>
</g>
</g>
<!-- Node17&#45;&gt;Node23 -->
<g id="edge27" class="edge">
<title>Node17&#45;&gt;Node23</title>
<path fill="none" stroke="midnightblue" d="M242.53,-330.45C214.27,-321.03 167.5,-305.44 137.14,-295.32"/>
<polygon fill="midnightblue" stroke="midnightblue" points="138.11,-291.96 127.52,-292.11 135.9,-298.6 138.11,-291.96"/>
</g>
<!-- Node18&#45;&gt;Node9 -->
<g id="edge18" class="edge">
<title>Node18&#45;&gt;Node9</title>
<path fill="none" stroke="midnightblue" d="M191.69,-275.38C204.78,-257.71 236.07,-215.47 253.47,-191.98"/>
<polygon fill="midnightblue" stroke="midnightblue" points="256.45,-193.83 259.59,-183.71 250.83,-189.66 256.45,-193.83"/>
</g>
<!-- Node18&#45;&gt;Node15 -->
<g id="edge19" class="edge">
<title>Node18&#45;&gt;Node15</title>
<path fill="none" stroke="midnightblue" d="M166.69,-275.45C146.04,-266.7 112.81,-252.61 89.06,-242.53"/>
<polygon fill="midnightblue" stroke="midnightblue" points="90.41,-239.31 79.84,-238.63 87.68,-245.75 90.41,-239.31"/>
</g>
<!-- Node20 -->
<g id="node20" class="node">
<title>Node20</title>
<g id="a_node20"><a xlink:href="../../d2/d68/_cmd_chr_8h.html" target="_top" xlink:title=" ">
<polygon fill="white" stroke="black" points="355.17,-220.5 355.17,-238.5 416.19,-238.5 416.19,-220.5 355.17,-220.5"/>
<text text-anchor="middle" x="385.68" y="-226.5" font-family="Helvetica,sans-Serif" font-size="10.00">CmdChr.h</text>
</a>
</g>
</g>
<!-- Node19&#45;&gt;Node20 -->
<g id="edge21" class="edge">
<title>Node19&#45;&gt;Node20</title>
<path fill="none" stroke="midnightblue" d="M357.83,-275.22C362.51,-267.71 369.54,-256.41 375.37,-247.05"/>
<polygon fill="midnightblue" stroke="midnightblue" points="378.35,-248.89 380.67,-238.55 372.41,-245.19 378.35,-248.89"/>
</g>
<!-- Node22 -->
<g id="node22" class="node">
<title>Node22</title>
<g id="a_node22"><a xlink:title=" ">
<polygon fill="white" stroke="#bfbfbf" points="308.18,-220.5 308.18,-238.5 337.18,-238.5 337.18,-220.5 308.18,-220.5"/>
<text text-anchor="middle" x="322.29" y="-226.5" font-family="Helvetica,sans-Serif" font-size="10.00">list</text>
</a>
</g>
</g>
<!-- Node19&#45;&gt;Node22 -->
<g id="edge25" class="edge">
<title>Node19&#45;&gt;Node22</title>
<path fill="none" stroke="midnightblue" d="M347.99,-275.22C343.78,-267.79 337.48,-256.65 332.21,-247.34"/>
<polygon fill="midnightblue" stroke="midnightblue" points="335.21,-245.53 327.23,-238.55 329.11,-248.98 335.21,-245.53"/>
</g>
<!-- Node20&#45;&gt;Node9 -->
<g id="edge24" class="edge">
<title>Node20&#45;&gt;Node9</title>
<path fill="none" stroke="midnightblue" d="M367.45,-220.45C347.72,-211.73 316.01,-197.73 293.23,-187.67"/>
<polygon fill="midnightblue" stroke="midnightblue" points="294.64,-184.46 284.07,-183.63 291.81,-190.87 294.64,-184.46"/>
</g>
<!-- Node21 -->
<g id="node21" class="node">
<title>Node21</title>
<g id="a_node21"><a xlink:href="../../d8/d47/codepoint_8h.html" target="_top" xlink:title=" ">
<polygon fill="white" stroke="black" points="340.82,-110.5 340.82,-128.5 408.53,-128.5 408.53,-110.5 340.82,-110.5"/>
<text text-anchor="middle" x="374.68" y="-116.5" font-family="Helvetica,sans-Serif" font-size="10.00">codepoint.h</text>
</a>
</g>
</g>
<!-- Node20&#45;&gt;Node21 -->
<g id="edge22" class="edge">
<title>Node20&#45;&gt;Node21</title>
<path fill="none" stroke="midnightblue" d="M384.85,-220.38C383.1,-203.18 378.98,-162.7 376.55,-138.89"/>
<polygon fill="midnightblue" stroke="midnightblue" points="380.01,-138.31 375.51,-128.71 373.05,-139.01 380.01,-138.31"/>
</g>
<!-- Node21&#45;&gt;Node11 -->
<g id="edge23" class="edge">
<title>Node21&#45;&gt;Node11</title>
<path fill="none" stroke="midnightblue" d="M367.02,-110.22C359.86,-102.47 348.98,-90.7 340.17,-81.18"/>
<polygon fill="midnightblue" stroke="midnightblue" points="342.48,-78.52 333.12,-73.55 337.34,-83.27 342.48,-78.52"/>
</g>
<!-- Node27 -->
<g id="node27" class="node">
<title>Node27</title>
<g id="a_node27"><a xlink:href="../../d3/d01/txeqtb_8h.html" target="_top" xlink:title=" ">
<polygon fill="white" stroke="black" points="293.89,-550.5 293.89,-568.5 345.47,-568.5 345.47,-550.5 293.89,-550.5"/>
<text text-anchor="middle" x="319.68" y="-556.5" font-family="Helvetica,sans-Serif" font-size="10.00">txeqtb.h</text>
</a>
</g>
</g>
<!-- Node26&#45;&gt;Node27 -->
<g id="edge32" class="edge">
<title>Node26&#45;&gt;Node27</title>
<path fill="none" stroke="midnightblue" d="M302.8,-605.22C305.55,-597.94 309.63,-587.11 313.1,-577.93"/>
<polygon fill="midnightblue" stroke="midnightblue" points="316.38,-579.14 316.64,-568.55 309.83,-576.67 316.38,-579.14"/>
</g>
<!-- Node27&#45;&gt;Node5 -->
<g id="edge33" class="edge">
<title>Node27&#45;&gt;Node5</title>
<path fill="none" stroke="midnightblue" d="M309.81,-550.45C299.97,-542.43 284.66,-529.95 272.66,-520.17"/>
<polygon fill="midnightblue" stroke="midnightblue" points="274.6,-517.23 264.64,-513.63 270.18,-522.66 274.6,-517.23"/>
</g>
<!-- Node28&#45;&gt;Node15 -->
<g id="edge35" class="edge">
<title>Node28&#45;&gt;Node15</title>
<path fill="none" stroke="midnightblue" d="M31.76,-330.25C34.86,-318.1 40.94,-294.72 46.68,-275 49.26,-266.13 52.32,-256.34 54.92,-248.2"/>
<polygon fill="midnightblue" stroke="midnightblue" points="58.25,-249.26 57.99,-238.67 51.59,-247.11 58.25,-249.26"/>
</g>
<!-- Node28&#45;&gt;Node23 -->
<g id="edge36" class="edge">
<title>Node28&#45;&gt;Node23</title>
<path fill="none" stroke="midnightblue" d="M41.52,-330.45C53.66,-322.2 72.77,-309.22 87.34,-299.32"/>
<polygon fill="midnightblue" stroke="midnightblue" points="89.42,-302.14 95.72,-293.63 85.48,-296.35 89.42,-302.14"/>
</g>
<!-- Node29&#45;&gt;Node6 -->
<g id="edge38" class="edge">
<title>Node29&#45;&gt;Node6</title>
<path fill="none" stroke="midnightblue" d="M391.96,-605.3C408.17,-593.42 433.37,-570.57 421.68,-550 394.32,-501.85 333.42,-474.55 293.22,-461.15"/>
<polygon fill="midnightblue" stroke="midnightblue" points="294.07,-457.74 283.47,-458.04 291.94,-464.41 294.07,-457.74"/>
</g>
<!-- Node30 -->
<g id="node30" class="node">
<title>Node30</title>
<g id="a_node30"><a xlink:title=" ">
<polygon fill="white" stroke="#bfbfbf" points="363.01,-550.5 363.01,-568.5 412.35,-568.5 412.35,-550.5 363.01,-550.5"/>
<text text-anchor="middle" x="387.68" y="-556.5" font-family="Helvetica,sans-Serif" font-size="10.00">fstream</text>
</a>
</g>
</g>
<!-- Node29&#45;&gt;Node30 -->
<g id="edge39" class="edge">
<title>Node29&#45;&gt;Node30</title>
<path fill="none" stroke="midnightblue" d="M380.93,-605.22C382,-598.1 383.59,-587.58 384.96,-578.53"/>
<polygon fill="midnightblue" stroke="midnightblue" points="388.43,-578.96 386.46,-568.55 381.51,-577.92 388.43,-578.96"/>
</g>
<!-- Node32 -->
<g id="node32" class="node">
<title>Node32</title>
<g id="a_node32"><a xlink:href="../../d4/da4/txatt_8h.html" target="_top" xlink:title=" ">
<polygon fill="white" stroke="black" points="233.06,-550.5 233.06,-568.5 276.3,-568.5 276.3,-550.5 233.06,-550.5"/>
<text text-anchor="middle" x="254.68" y="-556.5" font-family="Helvetica,sans-Serif" font-size="10.00">txatt.h</text>
</a>
</g>
</g>
<!-- Node31&#45;&gt;Node32 -->
<g id="edge41" class="edge">
<title>Node31&#45;&gt;Node32</title>
<path fill="none" stroke="midnightblue" d="M208.27,-605.22C216.47,-597.32 229.02,-585.22 239,-575.61"/>
<polygon fill="midnightblue" stroke="midnightblue" points="241.55,-578.01 246.32,-568.55 236.69,-572.97 241.55,-578.01"/>
</g>
<!-- Node33 -->
<g id="node33" class="node">
<title>Node33</title>
<g id="a_node33"><a xlink:href="../../d1/d43/txxml_8h.html" target="_top" xlink:title=" ">
<polygon fill="white" stroke="black" points="167.84,-550.5 167.84,-568.5 215.51,-568.5 215.51,-550.5 167.84,-550.5"/>
<text text-anchor="middle" x="191.68" y="-556.5" font-family="Helvetica,sans-Serif" font-size="10.00">txxml.h</text>
</a>
</g>
</g>
<!-- Node31&#45;&gt;Node33 -->
<g id="edge43" class="edge">
<title>Node31&#45;&gt;Node33</title>
<path fill="none" stroke="midnightblue" d="M198.43,-605.22C197.35,-598.1 195.76,-587.58 194.4,-578.53"/>
<polygon fill="midnightblue" stroke="midnightblue" points="197.85,-577.92 192.89,-568.55 190.92,-578.96 197.85,-577.92"/>
</g>
<!-- Node32&#45;&gt;Node5 -->
<g id="edge42" class="edge">
<title>Node32&#45;&gt;Node5</title>
<path fill="none" stroke="midnightblue" d="M254.68,-550.22C254.68,-543.18 254.68,-532.81 254.68,-523.83"/>
<polygon fill="midnightblue" stroke="midnightblue" points="258.18,-523.55 254.68,-513.55 251.18,-523.55 258.18,-523.55"/>
</g>
</g>
</svg>
