<?xml version="1.0" encoding="UTF-8" standalone="no"?>
<!DOCTYPE svg PUBLIC "-//W3C//DTD SVG 1.1//EN"
 "http://www.w3.org/Graphics/SVG/1.1/DTD/svg11.dtd">
<!-- Generated by graphviz version 2.42.3 (20191010.1750)
 -->
<!-- Title: txparser.h Pages: 1 -->
<svg width="484pt" height="687pt"
 viewBox="0.00 0.00 484.10 687.00" xmlns="http://www.w3.org/2000/svg" xmlns:xlink="http://www.w3.org/1999/xlink">
<g id="graph0" class="graph" transform="scale(1 1) rotate(0) translate(4 683)">
<title>txparser.h</title>
<!-- Node1 -->
<g id="node1" class="node">
<title>Node1</title>
<g id="a_node1"><a xlink:title=" ">
<polygon fill="#bfbfbf" stroke="black" points="220.52,-660.5 220.52,-678.5 280.44,-678.5 280.44,-660.5 220.52,-660.5"/>
<text text-anchor="middle" x="250.48" y="-666.5" font-family="Helvetica,sans-Serif" font-size="10.00">txparser.h</text>
</a>
</g>
</g>
<!-- Node2 -->
<g id="node2" class="node">
<title>Node2</title>
<g id="a_node2"><a xlink:href="../../d3/d6b/txcond_8h.html" target="_top" xlink:title=" ">
<polygon fill="none" stroke="black" points="76.58,-495.5 76.58,-513.5 130.38,-513.5 130.38,-495.5 76.58,-495.5"/>
<text text-anchor="middle" x="103.48" y="-501.5" font-family="Helvetica,sans-Serif" font-size="10.00">txcond.h</text>
</a>
</g>
</g>
<!-- Node1&#45;&gt;Node2 -->
<g id="edge1" class="edge">
<title>Node1&#45;&gt;Node2</title>
<path fill="none" stroke="midnightblue" d="M220.47,-664.07C193.39,-658.7 153.86,-647.3 127.48,-624 101.13,-600.72 97.91,-585.13 99.48,-550 99.87,-541.36 100.68,-531.81 101.47,-523.78"/>
<polygon fill="midnightblue" stroke="midnightblue" points="104.96,-524 102.52,-513.69 98,-523.27 104.96,-524"/>
</g>
<!-- Node4 -->
<g id="node4" class="node">
<title>Node4</title>
<g id="a_node4"><a xlink:href="../../d7/d4d/txfonts_8h.html" target="_top" xlink:title=" ">
<polygon fill="none" stroke="black" points="305.58,-550.5 305.58,-568.5 359.38,-568.5 359.38,-550.5 305.58,-550.5"/>
<text text-anchor="middle" x="332.48" y="-556.5" font-family="Helvetica,sans-Serif" font-size="10.00">txfonts.h</text>
</a>
</g>
</g>
<!-- Node1&#45;&gt;Node4 -->
<g id="edge3" class="edge">
<title>Node1&#45;&gt;Node4</title>
<path fill="none" stroke="midnightblue" d="M257.49,-660.45C265.08,-651.65 277.44,-637.07 287.48,-624 299.4,-608.48 312.24,-590.19 321.14,-577.24"/>
<polygon fill="midnightblue" stroke="midnightblue" points="324.11,-579.1 326.86,-568.87 318.33,-575.15 324.11,-579.1"/>
</g>
<!-- Node27 -->
<g id="node27" class="node">
<title>Node27</title>
<g id="a_node27"><a xlink:href="../../d7/d7e/txhash_8h.html" target="_top" xlink:title=" ">
<polygon fill="none" stroke="black" points="136.58,-605.5 136.58,-623.5 190.38,-623.5 190.38,-605.5 136.58,-605.5"/>
<text text-anchor="middle" x="163.48" y="-611.5" font-family="Helvetica,sans-Serif" font-size="10.00">txhash.h</text>
</a>
</g>
</g>
<!-- Node1&#45;&gt;Node27 -->
<g id="edge33" class="edge">
<title>Node1&#45;&gt;Node27</title>
<path fill="none" stroke="midnightblue" d="M237.27,-660.45C223.6,-652.12 202.01,-638.97 185.71,-629.04"/>
<polygon fill="midnightblue" stroke="midnightblue" points="187.18,-625.84 176.82,-623.63 183.54,-631.82 187.18,-625.84"/>
</g>
<!-- Node29 -->
<g id="node29" class="node">
<title>Node29</title>
<g id="a_node29"><a xlink:href="../../de/d7c/tximage_8h.html" target="_top" xlink:title=" ">
<polygon fill="none" stroke="black" points="1.8,-330.5 1.8,-348.5 61.16,-348.5 61.16,-330.5 1.8,-330.5"/>
<text text-anchor="middle" x="31.48" y="-336.5" font-family="Helvetica,sans-Serif" font-size="10.00">tximage.h</text>
</a>
</g>
</g>
<!-- Node1&#45;&gt;Node29 -->
<g id="edge36" class="edge">
<title>Node1&#45;&gt;Node29</title>
<path fill="none" stroke="midnightblue" d="M220.13,-666.94C160.87,-662.08 35.48,-642.16 35.48,-560.5 35.48,-560.5 35.48,-560.5 35.48,-448.5 35.48,-417 33.76,-380.36 32.58,-358.87"/>
<polygon fill="midnightblue" stroke="midnightblue" points="36.06,-358.41 31.99,-348.63 29.07,-358.81 36.06,-358.41"/>
</g>
<!-- Node30 -->
<g id="node30" class="node">
<title>Node30</title>
<g id="a_node30"><a xlink:href="../../de/d29/txio_8h.html" target="_top" xlink:title=" ">
<polygon fill="none" stroke="black" points="364.53,-605.5 364.53,-623.5 404.43,-623.5 404.43,-605.5 364.53,-605.5"/>
<text text-anchor="middle" x="384.48" y="-611.5" font-family="Helvetica,sans-Serif" font-size="10.00">txio.h</text>
</a>
</g>
</g>
<!-- Node1&#45;&gt;Node30 -->
<g id="edge39" class="edge">
<title>Node1&#45;&gt;Node30</title>
<path fill="none" stroke="midnightblue" d="M270.83,-660.45C293.2,-651.61 329.33,-637.32 354.84,-627.23"/>
<polygon fill="midnightblue" stroke="midnightblue" points="356.36,-630.38 364.38,-623.45 353.79,-623.88 356.36,-630.38"/>
</g>
<!-- Node32 -->
<g id="node32" class="node">
<title>Node32</title>
<g id="a_node32"><a xlink:href="../../dc/d65/txstack_8h.html" target="_top" xlink:title=" ">
<polygon fill="none" stroke="black" points="222.75,-605.5 222.75,-623.5 278.21,-623.5 278.21,-605.5 222.75,-605.5"/>
<text text-anchor="middle" x="250.48" y="-611.5" font-family="Helvetica,sans-Serif" font-size="10.00">txstack.h</text>
</a>
</g>
</g>
<!-- Node1&#45;&gt;Node32 -->
<g id="edge42" class="edge">
<title>Node1&#45;&gt;Node32</title>
<path fill="none" stroke="midnightblue" d="M250.48,-660.22C250.48,-653.18 250.48,-642.81 250.48,-633.83"/>
<polygon fill="midnightblue" stroke="midnightblue" points="253.98,-633.55 250.48,-623.55 246.98,-633.55 253.98,-633.55"/>
</g>
<!-- Node35 -->
<g id="node35" class="node">
<title>Node35</title>
<g id="a_node35"><a xlink:href="../../d8/d3d/txstats_8h.html" target="_top" xlink:title=" ">
<polygon fill="none" stroke="black" points="422.86,-605.5 422.86,-623.5 476.1,-623.5 476.1,-605.5 422.86,-605.5"/>
<text text-anchor="middle" x="449.48" y="-611.5" font-family="Helvetica,sans-Serif" font-size="10.00">txstats.h</text>
</a>
</g>
</g>
<!-- Node1&#45;&gt;Node35 -->
<g id="edge46" class="edge">
<title>Node1&#45;&gt;Node35</title>
<path fill="none" stroke="midnightblue" d="M280.7,-660.45C316.09,-651.03 374.67,-635.42 412.67,-625.3"/>
<polygon fill="midnightblue" stroke="midnightblue" points="414.04,-628.56 422.8,-622.6 412.24,-621.8 414.04,-628.56"/>
</g>
<!-- Node3 -->
<g id="node3" class="node">
<title>Node3</title>
<g id="a_node3"><a xlink:title=" ">
<polygon fill="none" stroke="#bfbfbf" points="111.87,-385.5 111.87,-403.5 155.1,-403.5 155.1,-385.5 111.87,-385.5"/>
<text text-anchor="middle" x="133.48" y="-391.5" font-family="Helvetica,sans-Serif" font-size="10.00">vector</text>
</a>
</g>
</g>
<!-- Node2&#45;&gt;Node3 -->
<g id="edge2" class="edge">
<title>Node2&#45;&gt;Node3</title>
<path fill="none" stroke="midnightblue" d="M105.74,-495.38C110.54,-478.1 121.86,-437.33 128.46,-413.56"/>
<polygon fill="midnightblue" stroke="midnightblue" points="131.9,-414.28 131.2,-403.71 125.15,-412.41 131.9,-414.28"/>
</g>
<!-- Node5 -->
<g id="node5" class="node">
<title>Node5</title>
<g id="a_node5"><a xlink:href="../../dc/def/txstring_8h.html" target="_top" xlink:title=" ">
<polygon fill="none" stroke="black" points="293.2,-495.5 293.2,-513.5 349.77,-513.5 349.77,-495.5 293.2,-495.5"/>
<text text-anchor="middle" x="321.48" y="-501.5" font-family="Helvetica,sans-Serif" font-size="10.00">txstring.h</text>
</a>
</g>
</g>
<!-- Node4&#45;&gt;Node5 -->
<g id="edge4" class="edge">
<title>Node4&#45;&gt;Node5</title>
<path fill="none" stroke="midnightblue" d="M330.76,-550.22C329.28,-543.1 327.1,-532.58 325.22,-523.53"/>
<polygon fill="midnightblue" stroke="midnightblue" points="328.61,-522.63 323.15,-513.55 321.76,-524.05 328.61,-522.63"/>
</g>
<!-- Node6 -->
<g id="node6" class="node">
<title>Node6</title>
<g id="a_node6"><a xlink:href="../../dd/d74/txbuffer_8h.html" target="_top" xlink:title=" ">
<polygon fill="none" stroke="black" points="297,-440.5 297,-458.5 353.96,-458.5 353.96,-440.5 297,-440.5"/>
<text text-anchor="middle" x="325.48" y="-446.5" font-family="Helvetica,sans-Serif" font-size="10.00">txbuffer.h</text>
</a>
</g>
</g>
<!-- Node5&#45;&gt;Node6 -->
<g id="edge5" class="edge">
<title>Node5&#45;&gt;Node6</title>
<path fill="none" stroke="midnightblue" d="M322.11,-495.22C322.64,-488.1 323.44,-477.58 324.12,-468.53"/>
<polygon fill="midnightblue" stroke="midnightblue" points="327.61,-468.78 324.87,-458.55 320.63,-468.26 327.61,-468.78"/>
</g>
<!-- Node6&#45;&gt;Node3 -->
<g id="edge32" class="edge">
<title>Node6&#45;&gt;Node3</title>
<path fill="none" stroke="midnightblue" d="M296.74,-440.57C261.36,-430.8 201.48,-414.27 164.91,-404.18"/>
<polygon fill="midnightblue" stroke="midnightblue" points="165.83,-400.8 155.26,-401.51 163.96,-407.55 165.83,-400.8"/>
</g>
<!-- Node7 -->
<g id="node7" class="node">
<title>Node7</title>
<g id="a_node7"><a xlink:href="../../d1/d9e/txid_8h.html" target="_top" xlink:title=" ">
<polygon fill="none" stroke="black" points="305.53,-330.5 305.53,-348.5 345.43,-348.5 345.43,-330.5 305.53,-330.5"/>
<text text-anchor="middle" x="325.48" y="-336.5" font-family="Helvetica,sans-Serif" font-size="10.00">txid.h</text>
</a>
</g>
</g>
<!-- Node6&#45;&gt;Node7 -->
<g id="edge6" class="edge">
<title>Node6&#45;&gt;Node7</title>
<path fill="none" stroke="midnightblue" d="M325.48,-440.38C325.48,-423.18 325.48,-382.7 325.48,-358.89"/>
<polygon fill="midnightblue" stroke="midnightblue" points="328.98,-358.71 325.48,-348.71 321.98,-358.71 328.98,-358.71"/>
</g>
<!-- Node17 -->
<g id="node17" class="node">
<title>Node17</title>
<g id="a_node17"><a xlink:href="../../d9/d18/txscaled_8h.html" target="_top" xlink:title=" ">
<polygon fill="none" stroke="black" points="225.97,-385.5 225.97,-403.5 286.99,-403.5 286.99,-385.5 225.97,-385.5"/>
<text text-anchor="middle" x="256.48" y="-391.5" font-family="Helvetica,sans-Serif" font-size="10.00">txscaled.h</text>
</a>
</g>
</g>
<!-- Node6&#45;&gt;Node17 -->
<g id="edge16" class="edge">
<title>Node6&#45;&gt;Node17</title>
<path fill="none" stroke="midnightblue" d="M315,-440.45C304.46,-432.36 287.99,-419.7 275.2,-409.88"/>
<polygon fill="midnightblue" stroke="midnightblue" points="277.12,-406.94 267.06,-403.63 272.86,-412.49 277.12,-406.94"/>
</g>
<!-- Node23 -->
<g id="node23" class="node">
<title>Node23</title>
<g id="a_node23"><a xlink:title=" ">
<polygon fill="none" stroke="#bfbfbf" points="337.97,-110.5 337.97,-128.5 389,-128.5 389,-110.5 337.97,-110.5"/>
<text text-anchor="middle" x="363.48" y="-116.5" font-family="Helvetica,sans-Serif" font-size="10.00">optional</text>
</a>
</g>
</g>
<!-- Node6&#45;&gt;Node23 -->
<g id="edge31" class="edge">
<title>Node6&#45;&gt;Node23</title>
<path fill="none" stroke="midnightblue" d="M333.41,-440.33C349.07,-423.29 382.48,-382.05 382.48,-340.5 382.48,-340.5 382.48,-340.5 382.48,-228.5 382.48,-196.39 374.23,-159.7 368.6,-138.41"/>
<polygon fill="midnightblue" stroke="midnightblue" points="371.92,-137.26 365.89,-128.54 365.17,-139.11 371.92,-137.26"/>
</g>
<!-- Node26 -->
<g id="node26" class="node">
<title>Node26</title>
<g id="a_node26"><a xlink:title=" ">
<polygon fill="none" stroke="#bfbfbf" points="410.75,-385.5 410.75,-403.5 456.21,-403.5 456.21,-385.5 410.75,-385.5"/>
<text text-anchor="middle" x="433.48" y="-391.5" font-family="Helvetica,sans-Serif" font-size="10.00">cstring</text>
</a>
</g>
</g>
<!-- Node6&#45;&gt;Node26 -->
<g id="edge30" class="edge">
<title>Node6&#45;&gt;Node26</title>
<path fill="none" stroke="midnightblue" d="M341.88,-440.45C359.41,-431.85 387.42,-418.1 407.86,-408.08"/>
<polygon fill="midnightblue" stroke="midnightblue" points="409.49,-411.17 416.92,-403.63 406.4,-404.89 409.49,-411.17"/>
</g>
<!-- Node8 -->
<g id="node8" class="node">
<title>Node8</title>
<g id="a_node8"><a xlink:href="../../dc/de8/txvars_8h.html" target="_top" xlink:title=" ">
<polygon fill="none" stroke="black" points="302.98,-275.5 302.98,-293.5 353.99,-293.5 353.99,-275.5 302.98,-275.5"/>
<text text-anchor="middle" x="328.48" y="-281.5" font-family="Helvetica,sans-Serif" font-size="10.00">txvars.h</text>
</a>
</g>
</g>
<!-- Node7&#45;&gt;Node8 -->
<g id="edge7" class="edge">
<title>Node7&#45;&gt;Node8</title>
<path fill="none" stroke="midnightblue" d="M325.95,-330.22C326.35,-323.18 326.94,-312.81 327.44,-303.83"/>
<polygon fill="midnightblue" stroke="midnightblue" points="330.95,-303.73 328.03,-293.55 323.97,-303.34 330.95,-303.73"/>
</g>
<!-- Node16 -->
<g id="node16" class="node">
<title>Node16</title>
<g id="a_node16"><a xlink:title=" ">
<polygon fill="none" stroke="#bfbfbf" points="54.25,-220.5 54.25,-238.5 94.71,-238.5 94.71,-220.5 54.25,-220.5"/>
<text text-anchor="middle" x="74.48" y="-226.5" font-family="Helvetica,sans-Serif" font-size="10.00">string</text>
</a>
</g>
</g>
<!-- Node7&#45;&gt;Node16 -->
<g id="edge15" class="edge">
<title>Node7&#45;&gt;Node16</title>
<path fill="none" stroke="midnightblue" d="M305.47,-332.61C279.81,-324.82 234.13,-310.19 196.48,-294 186.7,-289.79 131.31,-260.62 98.62,-243.31"/>
<polygon fill="midnightblue" stroke="midnightblue" points="100.15,-240.16 89.67,-238.57 96.87,-246.34 100.15,-240.16"/>
</g>
<!-- Node9 -->
<g id="node9" class="node">
<title>Node9</title>
<g id="a_node9"><a xlink:href="../../d0/d0b/enums_8h.html" target="_top" xlink:title=" ">
<polygon fill="none" stroke="black" points="166.86,-165.5 166.86,-183.5 250.1,-183.5 250.1,-165.5 166.86,-165.5"/>
<text text-anchor="middle" x="208.48" y="-171.5" font-family="Helvetica,sans-Serif" font-size="10.00">tralics/enums.h</text>
</a>
</g>
</g>
<!-- Node8&#45;&gt;Node9 -->
<g id="edge8" class="edge">
<title>Node8&#45;&gt;Node9</title>
<path fill="none" stroke="midnightblue" d="M304.19,-275.45C277.82,-266.28 238.07,-250.99 227.48,-239 216.41,-226.46 211.79,-207.7 209.86,-193.82"/>
<polygon fill="midnightblue" stroke="midnightblue" points="213.31,-193.13 208.79,-183.55 206.34,-193.86 213.31,-193.13"/>
</g>
<!-- Node15 -->
<g id="node15" class="node">
<title>Node15</title>
<g id="a_node15"><a xlink:title=" ">
<polygon fill="none" stroke="#bfbfbf" points="316.09,-220.5 316.09,-238.5 354.87,-238.5 354.87,-220.5 316.09,-220.5"/>
<text text-anchor="middle" x="335.48" y="-226.5" font-family="Helvetica,sans-Serif" font-size="10.00">array</text>
</a>
</g>
</g>
<!-- Node8&#45;&gt;Node15 -->
<g id="edge14" class="edge">
<title>Node8&#45;&gt;Node15</title>
<path fill="none" stroke="midnightblue" d="M329.57,-275.22C330.52,-268.1 331.9,-257.58 333.1,-248.53"/>
<polygon fill="midnightblue" stroke="midnightblue" points="336.58,-248.92 334.42,-238.55 329.64,-248.01 336.58,-248.92"/>
</g>
<!-- Node10 -->
<g id="node10" class="node">
<title>Node10</title>
<g id="a_node10"><a xlink:href="../../d8/db5/consts_8h.html" target="_top" xlink:title=" ">
<polygon fill="none" stroke="black" points="200.86,-110.5 200.86,-128.5 254.1,-128.5 254.1,-110.5 200.86,-110.5"/>
<text text-anchor="middle" x="227.48" y="-116.5" font-family="Helvetica,sans-Serif" font-size="10.00">consts.h</text>
</a>
</g>
</g>
<!-- Node9&#45;&gt;Node10 -->
<g id="edge9" class="edge">
<title>Node9&#45;&gt;Node10</title>
<path fill="none" stroke="midnightblue" d="M211.45,-165.22C214.03,-158.02 217.86,-147.35 221.12,-138.23"/>
<polygon fill="midnightblue" stroke="midnightblue" points="224.52,-139.14 224.6,-128.55 217.93,-136.78 224.52,-139.14"/>
</g>
<!-- Node11 -->
<g id="node11" class="node">
<title>Node11</title>
<g id="a_node11"><a xlink:href="../../d9/d49/types_8h.html" target="_top" xlink:title=" ">
<polygon fill="none" stroke="black" points="230.36,-55.5 230.36,-73.5 278.6,-73.5 278.6,-55.5 230.36,-55.5"/>
<text text-anchor="middle" x="254.48" y="-61.5" font-family="Helvetica,sans-Serif" font-size="10.00">types.h</text>
</a>
</g>
</g>
<!-- Node10&#45;&gt;Node11 -->
<g id="edge10" class="edge">
<title>Node10&#45;&gt;Node11</title>
<path fill="none" stroke="midnightblue" d="M231.7,-110.22C235.45,-102.86 241.04,-91.88 245.75,-82.64"/>
<polygon fill="midnightblue" stroke="midnightblue" points="248.96,-84.05 250.38,-73.55 242.72,-80.87 248.96,-84.05"/>
</g>
<!-- Node12 -->
<g id="node12" class="node">
<title>Node12</title>
<g id="a_node12"><a xlink:title=" ">
<polygon fill="none" stroke="#bfbfbf" points="162.37,-0.5 162.37,-18.5 210.6,-18.5 210.6,-0.5 162.37,-0.5"/>
<text text-anchor="middle" x="186.48" y="-6.5" font-family="Helvetica,sans-Serif" font-size="10.00">cassert</text>
</a>
</g>
</g>
<!-- Node11&#45;&gt;Node12 -->
<g id="edge11" class="edge">
<title>Node11&#45;&gt;Node12</title>
<path fill="none" stroke="midnightblue" d="M244.15,-55.45C233.77,-47.36 217.54,-34.7 204.93,-24.88"/>
<polygon fill="midnightblue" stroke="midnightblue" points="206.94,-22.01 196.91,-18.63 202.64,-27.53 206.94,-22.01"/>
</g>
<!-- Node13 -->
<g id="node13" class="node">
<title>Node13</title>
<g id="a_node13"><a xlink:title=" ">
<polygon fill="none" stroke="#bfbfbf" points="228.69,-0.5 228.69,-18.5 280.27,-18.5 280.27,-0.5 228.69,-0.5"/>
<text text-anchor="middle" x="254.48" y="-6.5" font-family="Helvetica,sans-Serif" font-size="10.00">stddef.h</text>
</a>
</g>
</g>
<!-- Node11&#45;&gt;Node13 -->
<g id="edge12" class="edge">
<title>Node11&#45;&gt;Node13</title>
<path fill="none" stroke="midnightblue" d="M254.48,-55.22C254.48,-48.18 254.48,-37.81 254.48,-28.83"/>
<polygon fill="midnightblue" stroke="midnightblue" points="257.98,-28.55 254.48,-18.55 250.98,-28.55 257.98,-28.55"/>
</g>
<!-- Node14 -->
<g id="node14" class="node">
<title>Node14</title>
<g id="a_node14"><a xlink:title=" ">
<polygon fill="none" stroke="#bfbfbf" points="298.41,-0.5 298.41,-18.5 360.55,-18.5 360.55,-0.5 298.41,-0.5"/>
<text text-anchor="middle" x="329.48" y="-6.5" font-family="Helvetica,sans-Serif" font-size="10.00">type_traits</text>
</a>
</g>
</g>
<!-- Node11&#45;&gt;Node14 -->
<g id="edge13" class="edge">
<title>Node11&#45;&gt;Node14</title>
<path fill="none" stroke="midnightblue" d="M265.87,-55.45C277.44,-47.28 295.57,-34.46 309.53,-24.6"/>
<polygon fill="midnightblue" stroke="midnightblue" points="311.84,-27.25 317.98,-18.63 307.8,-21.54 311.84,-27.25"/>
</g>
<!-- Node18 -->
<g id="node18" class="node">
<title>Node18</title>
<g id="a_node18"><a xlink:href="../../dc/d91/txtokenlist_8h.html" target="_top" xlink:title=" ">
<polygon fill="none" stroke="black" points="211.08,-330.5 211.08,-348.5 279.88,-348.5 279.88,-330.5 211.08,-330.5"/>
<text text-anchor="middle" x="245.48" y="-336.5" font-family="Helvetica,sans-Serif" font-size="10.00">txtokenlist.h</text>
</a>
</g>
</g>
<!-- Node17&#45;&gt;Node18 -->
<g id="edge17" class="edge">
<title>Node17&#45;&gt;Node18</title>
<path fill="none" stroke="midnightblue" d="M254.76,-385.22C253.28,-378.1 251.1,-367.58 249.22,-358.53"/>
<polygon fill="midnightblue" stroke="midnightblue" points="252.61,-357.63 247.15,-348.55 245.76,-359.05 252.61,-357.63"/>
</g>
<!-- Node18&#45;&gt;Node8 -->
<g id="edge28" class="edge">
<title>Node18&#45;&gt;Node8</title>
<path fill="none" stroke="midnightblue" d="M258.09,-330.45C271.13,-322.12 291.73,-308.97 307.28,-299.04"/>
<polygon fill="midnightblue" stroke="midnightblue" points="309.21,-301.96 315.76,-293.63 305.44,-296.06 309.21,-301.96"/>
</g>
<!-- Node19 -->
<g id="node19" class="node">
<title>Node19</title>
<g id="a_node19"><a xlink:href="../../d5/daf/_istring_8h.html" target="_top" xlink:title=" ">
<polygon fill="none" stroke="black" points="69.25,-275.5 69.25,-293.5 149.71,-293.5 149.71,-275.5 69.25,-275.5"/>
<text text-anchor="middle" x="109.48" y="-281.5" font-family="Helvetica,sans-Serif" font-size="10.00">tralics/Istring.h</text>
</a>
</g>
</g>
<!-- Node18&#45;&gt;Node19 -->
<g id="edge18" class="edge">
<title>Node18&#45;&gt;Node19</title>
<path fill="none" stroke="midnightblue" d="M224.83,-330.45C202.16,-321.62 165.56,-307.35 139.68,-297.27"/>
<polygon fill="midnightblue" stroke="midnightblue" points="140.92,-294 130.33,-293.63 138.38,-300.52 140.92,-294"/>
</g>
<!-- Node20 -->
<g id="node20" class="node">
<title>Node20</title>
<g id="a_node20"><a xlink:href="../../dd/dcd/_token_8h.html" target="_top" xlink:title=" ">
<polygon fill="none" stroke="black" points="205.52,-275.5 205.52,-293.5 285.44,-293.5 285.44,-275.5 205.52,-275.5"/>
<text text-anchor="middle" x="245.48" y="-281.5" font-family="Helvetica,sans-Serif" font-size="10.00">tralics/Token.h</text>
</a>
</g>
</g>
<!-- Node18&#45;&gt;Node20 -->
<g id="edge21" class="edge">
<title>Node18&#45;&gt;Node20</title>
<path fill="none" stroke="midnightblue" d="M245.48,-330.22C245.48,-323.18 245.48,-312.81 245.48,-303.83"/>
<polygon fill="midnightblue" stroke="midnightblue" points="248.98,-303.55 245.48,-293.55 241.98,-303.55 248.98,-303.55"/>
</g>
<!-- Node25 -->
<g id="node25" class="node">
<title>Node25</title>
<g id="a_node25"><a xlink:title=" ">
<polygon fill="none" stroke="#bfbfbf" points="12.09,-275.5 12.09,-293.5 50.87,-293.5 50.87,-275.5 12.09,-275.5"/>
<text text-anchor="middle" x="31.48" y="-281.5" font-family="Helvetica,sans-Serif" font-size="10.00">utility</text>
</a>
</g>
</g>
<!-- Node18&#45;&gt;Node25 -->
<g id="edge29" class="edge">
<title>Node18&#45;&gt;Node25</title>
<path fill="none" stroke="midnightblue" d="M210.92,-330.72C175.62,-322.66 119.03,-309.41 60.83,-293.99"/>
<polygon fill="midnightblue" stroke="midnightblue" points="61.66,-290.59 51.1,-291.39 59.86,-297.35 61.66,-290.59"/>
</g>
<!-- Node19&#45;&gt;Node9 -->
<g id="edge19" class="edge">
<title>Node19&#45;&gt;Node9</title>
<path fill="none" stroke="midnightblue" d="M112.07,-275.29C116.47,-262.36 126.41,-236.99 141.48,-220 153,-207.01 169.13,-196.15 182.68,-188.4"/>
<polygon fill="midnightblue" stroke="midnightblue" points="184.46,-191.42 191.56,-183.55 181.1,-185.28 184.46,-191.42"/>
</g>
<!-- Node19&#45;&gt;Node16 -->
<g id="edge20" class="edge">
<title>Node19&#45;&gt;Node16</title>
<path fill="none" stroke="midnightblue" d="M104.01,-275.22C99.05,-267.71 91.59,-256.41 85.41,-247.05"/>
<polygon fill="midnightblue" stroke="midnightblue" points="88.23,-244.97 79.8,-238.55 82.39,-248.82 88.23,-244.97"/>
</g>
<!-- Node21 -->
<g id="node21" class="node">
<title>Node21</title>
<g id="a_node21"><a xlink:href="../../d2/d68/_cmd_chr_8h.html" target="_top" xlink:title=" ">
<polygon fill="none" stroke="black" points="236.97,-220.5 236.97,-238.5 297.99,-238.5 297.99,-220.5 236.97,-220.5"/>
<text text-anchor="middle" x="267.48" y="-226.5" font-family="Helvetica,sans-Serif" font-size="10.00">CmdChr.h</text>
</a>
</g>
</g>
<!-- Node20&#45;&gt;Node21 -->
<g id="edge22" class="edge">
<title>Node20&#45;&gt;Node21</title>
<path fill="none" stroke="midnightblue" d="M248.92,-275.22C251.94,-267.94 256.43,-257.11 260.24,-247.93"/>
<polygon fill="midnightblue" stroke="midnightblue" points="263.54,-249.13 264.14,-238.55 257.07,-246.44 263.54,-249.13"/>
</g>
<!-- Node24 -->
<g id="node24" class="node">
<title>Node24</title>
<g id="a_node24"><a xlink:title=" ">
<polygon fill="none" stroke="#bfbfbf" points="150.98,-220.5 150.98,-238.5 179.98,-238.5 179.98,-220.5 150.98,-220.5"/>
<text text-anchor="middle" x="165.09" y="-226.5" font-family="Helvetica,sans-Serif" font-size="10.00">list</text>
</a>
</g>
</g>
<!-- Node20&#45;&gt;Node24 -->
<g id="edge27" class="edge">
<title>Node20&#45;&gt;Node24</title>
<path fill="none" stroke="midnightblue" d="M233.33,-275.45C220.88,-267.2 201.28,-254.22 186.34,-244.32"/>
<polygon fill="midnightblue" stroke="midnightblue" points="188.02,-241.23 177.75,-238.63 184.15,-247.07 188.02,-241.23"/>
</g>
<!-- Node21&#45;&gt;Node9 -->
<g id="edge26" class="edge">
<title>Node21&#45;&gt;Node9</title>
<path fill="none" stroke="midnightblue" d="M258.52,-220.45C249.68,-212.51 235.96,-200.19 225.13,-190.45"/>
<polygon fill="midnightblue" stroke="midnightblue" points="227.3,-187.7 217.53,-183.63 222.63,-192.91 227.3,-187.7"/>
</g>
<!-- Node22 -->
<g id="node22" class="node">
<title>Node22</title>
<g id="a_node22"><a xlink:href="../../d8/d47/codepoint_8h.html" target="_top" xlink:title=" ">
<polygon fill="none" stroke="black" points="267.63,-165.5 267.63,-183.5 335.34,-183.5 335.34,-165.5 267.63,-165.5"/>
<text text-anchor="middle" x="301.48" y="-171.5" font-family="Helvetica,sans-Serif" font-size="10.00">codepoint.h</text>
</a>
</g>
</g>
<!-- Node21&#45;&gt;Node22 -->
<g id="edge23" class="edge">
<title>Node21&#45;&gt;Node22</title>
<path fill="none" stroke="midnightblue" d="M272.79,-220.22C277.61,-212.71 284.86,-201.41 290.86,-192.05"/>
<polygon fill="midnightblue" stroke="midnightblue" points="293.86,-193.86 296.32,-183.55 287.97,-190.08 293.86,-193.86"/>
</g>
<!-- Node22&#45;&gt;Node11 -->
<g id="edge24" class="edge">
<title>Node22&#45;&gt;Node11</title>
<path fill="none" stroke="midnightblue" d="M297.95,-165.38C290.36,-147.95 272.36,-106.59 262.06,-82.92"/>
<polygon fill="midnightblue" stroke="midnightblue" points="265.25,-81.48 258.05,-73.71 258.84,-84.28 265.25,-81.48"/>
</g>
<!-- Node22&#45;&gt;Node23 -->
<g id="edge25" class="edge">
<title>Node22&#45;&gt;Node23</title>
<path fill="none" stroke="midnightblue" d="M310.9,-165.45C320.27,-157.43 334.88,-144.95 346.32,-135.17"/>
<polygon fill="midnightblue" stroke="midnightblue" points="348.65,-137.78 353.98,-128.63 344.1,-132.46 348.65,-137.78"/>
</g>
<!-- Node28 -->
<g id="node28" class="node">
<title>Node28</title>
<g id="a_node28"><a xlink:href="../../d3/d01/txeqtb_8h.html" target="_top" xlink:title=" ">
<polygon fill="none" stroke="black" points="108.69,-550.5 108.69,-568.5 160.27,-568.5 160.27,-550.5 108.69,-550.5"/>
<text text-anchor="middle" x="134.48" y="-556.5" font-family="Helvetica,sans-Serif" font-size="10.00">txeqtb.h</text>
</a>
</g>
</g>
<!-- Node27&#45;&gt;Node28 -->
<g id="edge34" class="edge">
<title>Node27&#45;&gt;Node28</title>
<path fill="none" stroke="midnightblue" d="M158.95,-605.22C154.88,-597.79 148.79,-586.65 143.7,-577.34"/>
<polygon fill="midnightblue" stroke="midnightblue" points="146.76,-575.64 138.89,-568.55 140.62,-579 146.76,-575.64"/>
</g>
<!-- Node28&#45;&gt;Node5 -->
<g id="edge35" class="edge">
<title>Node28&#45;&gt;Node5</title>
<path fill="none" stroke="midnightblue" d="M160.48,-551.13C192.31,-542.11 246.49,-526.75 283.12,-516.37"/>
<polygon fill="midnightblue" stroke="midnightblue" points="284.28,-519.68 292.95,-513.59 282.37,-512.95 284.28,-519.68"/>
</g>
<!-- Node29&#45;&gt;Node16 -->
<g id="edge37" class="edge">
<title>Node29&#45;&gt;Node16</title>
<path fill="none" stroke="midnightblue" d="M23.15,-330.46C11.49,-318.19 -7.14,-294.19 3.48,-275 12.26,-259.13 29.33,-248.16 44.54,-241.09"/>
<polygon fill="midnightblue" stroke="midnightblue" points="46.32,-244.13 54.15,-236.99 43.58,-237.69 46.32,-244.13"/>
</g>
<!-- Node29&#45;&gt;Node25 -->
<g id="edge38" class="edge">
<title>Node29&#45;&gt;Node25</title>
<path fill="none" stroke="midnightblue" d="M31.48,-330.22C31.48,-323.18 31.48,-312.81 31.48,-303.83"/>
<polygon fill="midnightblue" stroke="midnightblue" points="34.98,-303.55 31.48,-293.55 27.98,-303.55 34.98,-303.55"/>
</g>
<!-- Node30&#45;&gt;Node6 -->
<g id="edge40" class="edge">
<title>Node30&#45;&gt;Node6</title>
<path fill="none" stroke="midnightblue" d="M399.54,-605.48C418.29,-594.33 446.71,-572.9 436.48,-550 418.83,-510.47 376.85,-480.12 349.88,-463.83"/>
<polygon fill="midnightblue" stroke="midnightblue" points="351.43,-460.68 341.02,-458.66 347.9,-466.72 351.43,-460.68"/>
</g>
<!-- Node31 -->
<g id="node31" class="node">
<title>Node31</title>
<g id="a_node31"><a xlink:title=" ">
<polygon fill="none" stroke="#bfbfbf" points="377.81,-550.5 377.81,-568.5 427.15,-568.5 427.15,-550.5 377.81,-550.5"/>
<text text-anchor="middle" x="402.48" y="-556.5" font-family="Helvetica,sans-Serif" font-size="10.00">fstream</text>
</a>
</g>
</g>
<!-- Node30&#45;&gt;Node31 -->
<g id="edge41" class="edge">
<title>Node30&#45;&gt;Node31</title>
<path fill="none" stroke="midnightblue" d="M387.29,-605.22C389.74,-598.02 393.36,-587.35 396.46,-578.23"/>
<polygon fill="midnightblue" stroke="midnightblue" points="399.85,-579.14 399.75,-568.55 393.22,-576.89 399.85,-579.14"/>
</g>
<!-- Node33 -->
<g id="node33" class="node">
<title>Node33</title>
<g id="a_node33"><a xlink:href="../../d4/da4/txatt_8h.html" target="_top" xlink:title=" ">
<polygon fill="none" stroke="black" points="243.86,-550.5 243.86,-568.5 287.1,-568.5 287.1,-550.5 243.86,-550.5"/>
<text text-anchor="middle" x="265.48" y="-556.5" font-family="Helvetica,sans-Serif" font-size="10.00">txatt.h</text>
</a>
</g>
</g>
<!-- Node32&#45;&gt;Node33 -->
<g id="edge43" class="edge">
<title>Node32&#45;&gt;Node33</title>
<path fill="none" stroke="midnightblue" d="M252.82,-605.22C254.86,-598.02 257.88,-587.35 260.46,-578.23"/>
<polygon fill="midnightblue" stroke="midnightblue" points="263.85,-579.12 263.2,-568.55 257.11,-577.22 263.85,-579.12"/>
</g>
<!-- Node34 -->
<g id="node34" class="node">
<title>Node34</title>
<g id="a_node34"><a xlink:href="../../d1/d43/txxml_8h.html" target="_top" xlink:title=" ">
<polygon fill="none" stroke="black" points="178.65,-550.5 178.65,-568.5 226.32,-568.5 226.32,-550.5 178.65,-550.5"/>
<text text-anchor="middle" x="202.48" y="-556.5" font-family="Helvetica,sans-Serif" font-size="10.00">txxml.h</text>
</a>
</g>
</g>
<!-- Node32&#45;&gt;Node34 -->
<g id="edge45" class="edge">
<title>Node32&#45;&gt;Node34</title>
<path fill="none" stroke="midnightblue" d="M242.98,-605.22C235.97,-597.47 225.3,-585.7 216.68,-576.18"/>
<polygon fill="midnightblue" stroke="midnightblue" points="219.08,-573.61 209.77,-568.55 213.89,-578.31 219.08,-573.61"/>
</g>
<!-- Node33&#45;&gt;Node5 -->
<g id="edge44" class="edge">
<title>Node33&#45;&gt;Node5</title>
<path fill="none" stroke="midnightblue" d="M274.23,-550.22C282.58,-542.32 295.36,-530.22 305.52,-520.61"/>
<polygon fill="midnightblue" stroke="midnightblue" points="308.12,-522.97 312.98,-513.55 303.31,-517.88 308.12,-522.97"/>
</g>
</g>
</svg>
