<?xml version="1.0" encoding="UTF-8" standalone="no"?>
<!DOCTYPE svg PUBLIC "-//W3C//DTD SVG 1.1//EN"
 "http://www.w3.org/Graphics/SVG/1.1/DTD/svg11.dtd">
<!-- Generated by graphviz version 2.42.3 (20191010.1750)
 -->
<!-- Title: txlogger.h Pages: 1 -->
<svg width="2640pt" height="192pt"
 viewBox="0.00 0.00 2639.88 192.00" xmlns="http://www.w3.org/2000/svg" xmlns:xlink="http://www.w3.org/1999/xlink">
<g id="graph0" class="graph" transform="scale(1 1) rotate(0) translate(4 188)">
<title>txlogger.h</title>
<!-- Node1 -->
<g id="node1" class="node">
<title>Node1</title>
<g id="a_node1"><a xlink:title=" ">
<polygon fill="#bfbfbf" stroke="black" points="1241.74,-165.5 1241.74,-183.5 1301.11,-183.5 1301.11,-165.5 1241.74,-165.5"/>
<text text-anchor="middle" x="1271.43" y="-171.5" font-family="Helvetica,sans-Serif" font-size="10.00">txlogger.h</text>
</a>
</g>
</g>
<!-- Node2 -->
<g id="node2" class="node">
<title>Node2</title>
<g id="a_node2"><a xlink:href="../../d7/d79/txinline_8h.html" target="_top" xlink:title=" ">
<polygon fill="none" stroke="black" points="1243.7,-110.5 1243.7,-128.5 1299.16,-128.5 1299.16,-110.5 1243.7,-110.5"/>
<text text-anchor="middle" x="1271.43" y="-116.5" font-family="Helvetica,sans-Serif" font-size="10.00">txinline.h</text>
</a>
</g>
</g>
<!-- Node1&#45;&gt;Node2 -->
<g id="edge1" class="edge">
<title>Node1&#45;&gt;Node2</title>
<path fill="none" stroke="midnightblue" d="M1271.43,-155.17C1271.43,-146.09 1271.43,-135.59 1271.43,-128.55"/>
<polygon fill="midnightblue" stroke="midnightblue" points="1267.93,-155.22 1271.43,-165.22 1274.93,-155.22 1267.93,-155.22"/>
</g>
<!-- Node3 -->
<g id="node3" class="node">
<title>Node3</title>
<g id="a_node3"><a xlink:href="../../dc/dcf/_buffer_8cpp.html" target="_top" xlink:title=" ">
<polygon fill="none" stroke="black" points="0,-55.5 0,-73.5 60.86,-73.5 60.86,-55.5 0,-55.5"/>
<text text-anchor="middle" x="30.43" y="-61.5" font-family="Helvetica,sans-Serif" font-size="10.00">Buffer.cpp</text>
</a>
</g>
</g>
<!-- Node2&#45;&gt;Node3 -->
<g id="edge2" class="edge">
<title>Node2&#45;&gt;Node3</title>
<path fill="none" stroke="midnightblue" d="M1233.47,-117.97C1055.6,-115.38 303.54,-102.87 70.43,-74 67.33,-73.62 64.11,-73.11 60.91,-72.54"/>
<polygon fill="midnightblue" stroke="midnightblue" points="1233.59,-121.48 1243.64,-118.12 1233.69,-114.48 1233.59,-121.48"/>
</g>
<!-- Node4 -->
<g id="node4" class="node">
<title>Node4</title>
<g id="a_node4"><a xlink:href="../../da/d77/globals_8cpp.html" target="_top" xlink:title=" ">
<polygon fill="none" stroke="black" points="79.13,-55.5 79.13,-73.5 145.72,-73.5 145.72,-55.5 79.13,-55.5"/>
<text text-anchor="middle" x="112.43" y="-61.5" font-family="Helvetica,sans-Serif" font-size="10.00">globals.cpp</text>
</a>
</g>
</g>
<!-- Node2&#45;&gt;Node4 -->
<g id="edge3" class="edge">
<title>Node2&#45;&gt;Node4</title>
<path fill="none" stroke="midnightblue" d="M1233.43,-117.8C1063.26,-114.56 370.19,-99.96 154.43,-74 151.62,-73.66 148.72,-73.24 145.82,-72.76"/>
<polygon fill="midnightblue" stroke="midnightblue" points="1233.58,-121.31 1243.65,-118 1233.71,-114.31 1233.58,-121.31"/>
</g>
<!-- Node5 -->
<g id="node5" class="node">
<title>Node5</title>
<g id="a_node5"><a xlink:href="../../d0/d4b/_istring_8cpp.html" target="_top" xlink:title=" ">
<polygon fill="none" stroke="black" points="163.36,-55.5 163.36,-73.5 225.5,-73.5 225.5,-55.5 163.36,-55.5"/>
<text text-anchor="middle" x="194.43" y="-61.5" font-family="Helvetica,sans-Serif" font-size="10.00">Istring.cpp</text>
</a>
</g>
</g>
<!-- Node2&#45;&gt;Node5 -->
<g id="edge4" class="edge">
<title>Node2&#45;&gt;Node5</title>
<path fill="none" stroke="midnightblue" d="M1233.27,-117.71C1070.48,-114.23 433.41,-99.23 234.43,-74 231.61,-73.64 228.7,-73.19 225.79,-72.68"/>
<polygon fill="midnightblue" stroke="midnightblue" points="1233.22,-121.21 1243.29,-117.93 1233.37,-114.22 1233.22,-121.21"/>
</g>
<!-- Node6 -->
<g id="node6" class="node">
<title>Node6</title>
<g id="a_node6"><a xlink:href="../../df/d37/_main_class_8cpp.html" target="_top" xlink:title=" ">
<polygon fill="none" stroke="black" points="243.64,-55.5 243.64,-73.5 325.22,-73.5 325.22,-55.5 243.64,-55.5"/>
<text text-anchor="middle" x="284.43" y="-61.5" font-family="Helvetica,sans-Serif" font-size="10.00">MainClass.cpp</text>
</a>
</g>
</g>
<!-- Node2&#45;&gt;Node6 -->
<g id="edge5" class="edge">
<title>Node2&#45;&gt;Node6</title>
<path fill="none" stroke="midnightblue" d="M1233.26,-118.39C1105.51,-117.65 681.38,-112.28 333.43,-74 330.77,-73.71 328.03,-73.36 325.28,-72.98"/>
<polygon fill="midnightblue" stroke="midnightblue" points="1233.3,-121.89 1243.32,-118.44 1233.34,-114.89 1233.3,-121.89"/>
</g>
<!-- Node7 -->
<g id="node7" class="node">
<title>Node7</title>
<g id="a_node7"><a xlink:href="../../d5/ddd/tralics_8cpp.html" target="_top" xlink:title=" ">
<polygon fill="none" stroke="black" points="342.92,-55.5 342.92,-73.5 403.94,-73.5 403.94,-55.5 342.92,-55.5"/>
<text text-anchor="middle" x="373.43" y="-61.5" font-family="Helvetica,sans-Serif" font-size="10.00">tralics.cpp</text>
</a>
</g>
</g>
<!-- Node2&#45;&gt;Node7 -->
<g id="edge6" class="edge">
<title>Node2&#45;&gt;Node7</title>
<path fill="none" stroke="midnightblue" d="M1233.31,-118.66C1112.6,-118.7 728.17,-115.34 413.43,-74 410.47,-73.61 407.41,-73.12 404.35,-72.57"/>
<polygon fill="midnightblue" stroke="midnightblue" points="1233.51,-122.16 1243.51,-118.65 1233.5,-115.16 1233.51,-122.16"/>
</g>
<!-- Node8 -->
<g id="node8" class="node">
<title>Node8</title>
<g id="a_node8"><a xlink:href="../../dd/dce/txaccent_8cpp.html" target="_top" xlink:title=" ">
<polygon fill="none" stroke="black" points="422.36,-55.5 422.36,-73.5 494.5,-73.5 494.5,-55.5 422.36,-55.5"/>
<text text-anchor="middle" x="458.43" y="-61.5" font-family="Helvetica,sans-Serif" font-size="10.00">txaccent.cpp</text>
</a>
</g>
</g>
<!-- Node2&#45;&gt;Node8 -->
<g id="edge7" class="edge">
<title>Node2&#45;&gt;Node8</title>
<path fill="none" stroke="midnightblue" d="M1233.27,-118.03C1120.97,-116.26 782.09,-108.25 503.43,-74 500.59,-73.65 497.66,-73.23 494.72,-72.77"/>
<polygon fill="midnightblue" stroke="midnightblue" points="1233.36,-121.53 1243.42,-118.18 1233.47,-114.53 1233.36,-121.53"/>
</g>
<!-- Node9 -->
<g id="node9" class="node">
<title>Node9</title>
<g id="a_node9"><a xlink:href="../../d7/de8/txarray_8cpp.html" target="_top" xlink:title=" ">
<polygon fill="none" stroke="black" points="512.07,-55.5 512.07,-73.5 576.79,-73.5 576.79,-55.5 512.07,-55.5"/>
<text text-anchor="middle" x="544.43" y="-61.5" font-family="Helvetica,sans-Serif" font-size="10.00">txarray.cpp</text>
</a>
</g>
</g>
<!-- Node2&#45;&gt;Node9 -->
<g id="edge8" class="edge">
<title>Node2&#45;&gt;Node9</title>
<path fill="none" stroke="midnightblue" d="M1233.5,-117.9C1129.45,-115.84 830.98,-107.25 585.43,-74 582.69,-73.63 579.86,-73.18 577.03,-72.69"/>
<polygon fill="midnightblue" stroke="midnightblue" points="1233.45,-121.4 1243.52,-118.09 1233.59,-114.4 1233.45,-121.4"/>
</g>
<!-- Node10 -->
<g id="node10" class="node">
<title>Node10</title>
<g id="a_node10"><a xlink:href="../../d5/d6d/txatt_8cpp.html" target="_top" xlink:title=" ">
<polygon fill="none" stroke="black" points="594.53,-55.5 594.53,-73.5 648.33,-73.5 648.33,-55.5 594.53,-55.5"/>
<text text-anchor="middle" x="621.43" y="-61.5" font-family="Helvetica,sans-Serif" font-size="10.00">txatt.cpp</text>
</a>
</g>
</g>
<!-- Node2&#45;&gt;Node10 -->
<g id="edge9" class="edge">
<title>Node2&#45;&gt;Node10</title>
<path fill="none" stroke="midnightblue" d="M1233.23,-117.85C1136.37,-115.73 873.55,-107.13 657.43,-74 654.51,-73.55 651.48,-72.99 648.47,-72.37"/>
<polygon fill="midnightblue" stroke="midnightblue" points="1233.34,-121.35 1243.41,-118.06 1233.48,-114.35 1233.34,-121.35"/>
</g>
<!-- Node11 -->
<g id="node11" class="node">
<title>Node11</title>
<g id="a_node11"><a xlink:href="../../d1/daa/txaux_8cpp.html" target="_top" xlink:title=" ">
<polygon fill="none" stroke="black" points="666.03,-55.5 666.03,-73.5 724.83,-73.5 724.83,-55.5 666.03,-55.5"/>
<text text-anchor="middle" x="695.43" y="-61.5" font-family="Helvetica,sans-Serif" font-size="10.00">txaux.cpp</text>
</a>
</g>
</g>
<!-- Node2&#45;&gt;Node11 -->
<g id="edge10" class="edge">
<title>Node2&#45;&gt;Node11</title>
<path fill="none" stroke="midnightblue" d="M1233.49,-117.16C1145.28,-113.64 919.73,-102.4 733.43,-74 730.76,-73.59 727.99,-73.1 725.23,-72.57"/>
<polygon fill="midnightblue" stroke="midnightblue" points="1233.42,-120.66 1243.55,-117.55 1233.7,-113.66 1233.42,-120.66"/>
</g>
<!-- Node12 -->
<g id="node12" class="node">
<title>Node12</title>
<g id="a_node12"><a xlink:href="../../d6/dcb/txbib_8h.html" target="_top" xlink:title=" ">
<polygon fill="none" stroke="black" points="742.7,-55.5 742.7,-73.5 788.16,-73.5 788.16,-55.5 742.7,-55.5"/>
<text text-anchor="middle" x="765.43" y="-61.5" font-family="Helvetica,sans-Serif" font-size="10.00">txbib.h</text>
</a>
</g>
</g>
<!-- Node2&#45;&gt;Node12 -->
<g id="edge11" class="edge">
<title>Node2&#45;&gt;Node12</title>
<path fill="none" stroke="midnightblue" d="M1233.23,-117.07C1152.3,-113.56 957.84,-102.63 797.43,-74 794.49,-73.47 791.42,-72.81 788.4,-72.09"/>
<polygon fill="midnightblue" stroke="midnightblue" points="1233.29,-120.57 1243.43,-117.49 1233.59,-113.58 1233.29,-120.57"/>
</g>
<!-- Node15 -->
<g id="node15" class="node">
<title>Node15</title>
<g id="a_node15"><a xlink:href="../../d4/dee/txclasses_8cpp.html" target="_top" xlink:title=" ">
<polygon fill="none" stroke="black" points="806.42,-55.5 806.42,-73.5 882.44,-73.5 882.44,-55.5 806.42,-55.5"/>
<text text-anchor="middle" x="844.43" y="-61.5" font-family="Helvetica,sans-Serif" font-size="10.00">txclasses.cpp</text>
</a>
</g>
</g>
<!-- Node2&#45;&gt;Node15 -->
<g id="edge14" class="edge">
<title>Node2&#45;&gt;Node15</title>
<path fill="none" stroke="midnightblue" d="M1232.89,-114.79C1164.13,-107.99 1015.84,-92.52 891.43,-74 888.56,-73.57 885.59,-73.1 882.62,-72.61"/>
<polygon fill="midnightblue" stroke="midnightblue" points="1232.93,-118.31 1243.22,-115.8 1233.61,-111.34 1232.93,-118.31"/>
</g>
<!-- Node16 -->
<g id="node16" class="node">
<title>Node16</title>
<g id="a_node16"><a xlink:href="../../df/d98/txconfig_8cpp.html" target="_top" xlink:title=" ">
<polygon fill="none" stroke="black" points="900.75,-55.5 900.75,-73.5 970.11,-73.5 970.11,-55.5 900.75,-55.5"/>
<text text-anchor="middle" x="935.43" y="-61.5" font-family="Helvetica,sans-Serif" font-size="10.00">txconfig.cpp</text>
</a>
</g>
</g>
<!-- Node2&#45;&gt;Node16 -->
<g id="edge15" class="edge">
<title>Node2&#45;&gt;Node16</title>
<path fill="none" stroke="midnightblue" d="M1233.46,-113.2C1177.68,-105.31 1070.34,-89.7 979.43,-74 976.52,-73.5 973.5,-72.96 970.47,-72.4"/>
<polygon fill="midnightblue" stroke="midnightblue" points="1233.2,-116.7 1243.59,-114.63 1234.18,-109.77 1233.2,-116.7"/>
</g>
<!-- Node17 -->
<g id="node17" class="node">
<title>Node17</title>
<g id="a_node17"><a xlink:href="../../d8/d02/txerr_8cpp.html" target="_top" xlink:title=" ">
<polygon fill="none" stroke="black" points="988.25,-55.5 988.25,-73.5 1042.61,-73.5 1042.61,-55.5 988.25,-55.5"/>
<text text-anchor="middle" x="1015.43" y="-61.5" font-family="Helvetica,sans-Serif" font-size="10.00">txerr.cpp</text>
</a>
</g>
</g>
<!-- Node2&#45;&gt;Node17 -->
<g id="edge16" class="edge">
<title>Node2&#45;&gt;Node17</title>
<path fill="none" stroke="midnightblue" d="M1233.64,-111.24C1189.75,-102.72 1115.21,-87.98 1051.43,-74 1048.67,-73.4 1045.79,-72.75 1042.93,-72.09"/>
<polygon fill="midnightblue" stroke="midnightblue" points="1233.1,-114.7 1243.59,-113.17 1234.43,-107.83 1233.1,-114.7"/>
</g>
<!-- Node18 -->
<g id="node18" class="node">
<title>Node18</title>
<g id="a_node18"><a xlink:href="../../d6/dc0/txfonts_8cpp.html" target="_top" xlink:title=" ">
<polygon fill="none" stroke="black" points="1060.25,-55.5 1060.25,-73.5 1124.61,-73.5 1124.61,-55.5 1060.25,-55.5"/>
<text text-anchor="middle" x="1092.43" y="-61.5" font-family="Helvetica,sans-Serif" font-size="10.00">txfonts.cpp</text>
</a>
</g>
</g>
<!-- Node2&#45;&gt;Node18 -->
<g id="edge17" class="edge">
<title>Node2&#45;&gt;Node18</title>
<path fill="none" stroke="midnightblue" d="M1234.61,-107.6C1200.41,-97.47 1150.27,-82.63 1119.58,-73.54"/>
<polygon fill="midnightblue" stroke="midnightblue" points="1233.66,-110.97 1244.24,-110.45 1235.65,-104.26 1233.66,-110.97"/>
</g>
<!-- Node19 -->
<g id="node19" class="node">
<title>Node19</title>
<g id="a_node19"><a xlink:href="../../d7/d80/txfp_8cpp.html" target="_top" xlink:title=" ">
<polygon fill="none" stroke="black" points="1142.92,-55.5 1142.92,-73.5 1193.94,-73.5 1193.94,-55.5 1142.92,-55.5"/>
<text text-anchor="middle" x="1168.43" y="-61.5" font-family="Helvetica,sans-Serif" font-size="10.00">txfp.cpp</text>
</a>
</g>
</g>
<!-- Node2&#45;&gt;Node19 -->
<g id="edge18" class="edge">
<title>Node2&#45;&gt;Node19</title>
<path fill="none" stroke="midnightblue" d="M1246.63,-105.74C1227.23,-95.76 1200.84,-82.18 1184.22,-73.63"/>
<polygon fill="midnightblue" stroke="midnightblue" points="1245.29,-108.99 1255.79,-110.45 1248.5,-102.76 1245.29,-108.99"/>
</g>
<!-- Node20 -->
<g id="node20" class="node">
<title>Node20</title>
<g id="a_node20"><a xlink:href="../../d0/d1f/txio_8cpp.html" target="_top" xlink:title=" ">
<polygon fill="none" stroke="black" points="1212.2,-55.5 1212.2,-73.5 1262.66,-73.5 1262.66,-55.5 1212.2,-55.5"/>
<text text-anchor="middle" x="1237.43" y="-61.5" font-family="Helvetica,sans-Serif" font-size="10.00">txio.cpp</text>
</a>
</g>
</g>
<!-- Node2&#45;&gt;Node20 -->
<g id="edge19" class="edge">
<title>Node2&#45;&gt;Node20</title>
<path fill="none" stroke="midnightblue" d="M1260.62,-101.66C1254.6,-92.26 1247.36,-80.98 1242.59,-73.55"/>
<polygon fill="midnightblue" stroke="midnightblue" points="1257.77,-103.69 1266.12,-110.22 1263.66,-99.91 1257.77,-103.69"/>
</g>
<!-- Node21 -->
<g id="node21" class="node">
<title>Node21</title>
<g id="a_node21"><a xlink:href="../../d0/dc3/txl3_8cpp.html" target="_top" xlink:title=" ">
<polygon fill="none" stroke="black" points="1280.2,-55.5 1280.2,-73.5 1330.66,-73.5 1330.66,-55.5 1280.2,-55.5"/>
<text text-anchor="middle" x="1305.43" y="-61.5" font-family="Helvetica,sans-Serif" font-size="10.00">txl3.cpp</text>
</a>
</g>
</g>
<!-- Node2&#45;&gt;Node21 -->
<g id="edge20" class="edge">
<title>Node2&#45;&gt;Node21</title>
<path fill="none" stroke="midnightblue" d="M1282.23,-101.66C1288.26,-92.26 1295.5,-80.98 1300.27,-73.55"/>
<polygon fill="midnightblue" stroke="midnightblue" points="1279.2,-99.91 1276.74,-110.22 1285.09,-103.69 1279.2,-99.91"/>
</g>
<!-- Node22 -->
<g id="node22" class="node">
<title>Node22</title>
<g id="a_node22"><a xlink:href="../../d4/dd9/txmath_8cpp.html" target="_top" xlink:title=" ">
<polygon fill="none" stroke="black" points="1348.97,-55.5 1348.97,-73.5 1413.88,-73.5 1413.88,-55.5 1348.97,-55.5"/>
<text text-anchor="middle" x="1381.43" y="-61.5" font-family="Helvetica,sans-Serif" font-size="10.00">txmath.cpp</text>
</a>
</g>
</g>
<!-- Node2&#45;&gt;Node22 -->
<g id="edge21" class="edge">
<title>Node2&#45;&gt;Node22</title>
<path fill="none" stroke="midnightblue" d="M1297.35,-106.01C1318.12,-96.01 1346.65,-82.26 1364.57,-73.63"/>
<polygon fill="midnightblue" stroke="midnightblue" points="1295.63,-102.96 1288.14,-110.45 1298.66,-109.26 1295.63,-102.96"/>
</g>
<!-- Node23 -->
<g id="node23" class="node">
<title>Node23</title>
<g id="a_node23"><a xlink:href="../../dc/d78/txmath1_8cpp.html" target="_top" xlink:title=" ">
<polygon fill="none" stroke="black" points="1432.19,-55.5 1432.19,-73.5 1502.67,-73.5 1502.67,-55.5 1432.19,-55.5"/>
<text text-anchor="middle" x="1467.43" y="-61.5" font-family="Helvetica,sans-Serif" font-size="10.00">txmath1.cpp</text>
</a>
</g>
</g>
<!-- Node2&#45;&gt;Node23 -->
<g id="edge22" class="edge">
<title>Node2&#45;&gt;Node23</title>
<path fill="none" stroke="midnightblue" d="M1309.55,-108.19C1347.06,-98.05 1403.53,-82.78 1437.8,-73.51"/>
<polygon fill="midnightblue" stroke="midnightblue" points="1308.25,-104.92 1299.51,-110.91 1310.08,-111.67 1308.25,-104.92"/>
</g>
<!-- Node24 -->
<g id="node24" class="node">
<title>Node24</title>
<g id="a_node24"><a xlink:href="../../d9/d59/txmathboot_8cpp.html" target="_top" xlink:title=" ">
<polygon fill="none" stroke="black" points="1520.24,-55.5 1520.24,-73.5 1604.62,-73.5 1604.62,-55.5 1520.24,-55.5"/>
<text text-anchor="middle" x="1562.43" y="-61.5" font-family="Helvetica,sans-Serif" font-size="10.00">txmathboot.cpp</text>
</a>
</g>
</g>
<!-- Node2&#45;&gt;Node24 -->
<g id="edge23" class="edge">
<title>Node2&#45;&gt;Node24</title>
<path fill="none" stroke="midnightblue" d="M1309.25,-111.61C1363.6,-101.71 1463.46,-83.52 1520.17,-73.2"/>
<polygon fill="midnightblue" stroke="midnightblue" points="1308.54,-108.18 1299.33,-113.42 1309.8,-115.07 1308.54,-108.18"/>
</g>
<!-- Node25 -->
<g id="node25" class="node">
<title>Node25</title>
<g id="a_node25"><a xlink:href="../../de/de4/txmlio_8cpp.html" target="_top" xlink:title=" ">
<polygon fill="none" stroke="black" points="1622.92,-55.5 1622.92,-73.5 1683.94,-73.5 1683.94,-55.5 1622.92,-55.5"/>
<text text-anchor="middle" x="1653.43" y="-61.5" font-family="Helvetica,sans-Serif" font-size="10.00">txmlio.cpp</text>
</a>
</g>
</g>
<!-- Node2&#45;&gt;Node25 -->
<g id="edge24" class="edge">
<title>Node2&#45;&gt;Node25</title>
<path fill="none" stroke="midnightblue" d="M1309.79,-114.52C1373.2,-107.72 1503.8,-92.75 1613.43,-74 1616.51,-73.47 1619.71,-72.88 1622.9,-72.25"/>
<polygon fill="midnightblue" stroke="midnightblue" points="1309.04,-111.08 1299.47,-115.62 1309.79,-118.04 1309.04,-111.08"/>
</g>
<!-- Node26 -->
<g id="node26" class="node">
<title>Node26</title>
<g id="a_node26"><a xlink:href="../../df/da9/txparser_8cpp.html" target="_top" xlink:title=" ">
<polygon fill="none" stroke="black" points="1702.19,-55.5 1702.19,-73.5 1772.67,-73.5 1772.67,-55.5 1702.19,-55.5"/>
<text text-anchor="middle" x="1737.43" y="-61.5" font-family="Helvetica,sans-Serif" font-size="10.00">txparser.cpp</text>
</a>
</g>
</g>
<!-- Node2&#45;&gt;Node26 -->
<g id="edge25" class="edge">
<title>Node2&#45;&gt;Node26</title>
<path fill="none" stroke="midnightblue" d="M1309.41,-115.59C1383.51,-109.68 1552.45,-95.01 1693.43,-74 1696.2,-73.59 1699.06,-73.12 1701.93,-72.63"/>
<polygon fill="midnightblue" stroke="midnightblue" points="1308.88,-112.13 1299.18,-116.4 1309.43,-119.1 1308.88,-112.13"/>
</g>
<!-- Node27 -->
<g id="node27" class="node">
<title>Node27</title>
<g id="a_node27"><a xlink:href="../../da/d5e/txparser2_8h.html" target="_top" xlink:title=" ">
<polygon fill="none" stroke="black" points="1790.42,-55.5 1790.42,-73.5 1856.44,-73.5 1856.44,-55.5 1790.42,-55.5"/>
<text text-anchor="middle" x="1823.43" y="-61.5" font-family="Helvetica,sans-Serif" font-size="10.00">txparser2.h</text>
</a>
</g>
</g>
<!-- Node2&#45;&gt;Node27 -->
<g id="edge26" class="edge">
<title>Node2&#45;&gt;Node27</title>
<path fill="none" stroke="midnightblue" d="M1309.39,-116.65C1394.31,-112.2 1605.96,-99.33 1781.43,-74 1784.23,-73.6 1787.12,-73.12 1790.02,-72.62"/>
<polygon fill="midnightblue" stroke="midnightblue" points="1309,-113.17 1299.2,-117.18 1309.36,-120.16 1309,-113.17"/>
</g>
<!-- Node29 -->
<g id="node29" class="node">
<title>Node29</title>
<g id="a_node29"><a xlink:href="../../de/da4/txparser3_8cpp.html" target="_top" xlink:title=" ">
<polygon fill="none" stroke="black" points="1874.14,-55.5 1874.14,-73.5 1950.72,-73.5 1950.72,-55.5 1874.14,-55.5"/>
<text text-anchor="middle" x="1912.43" y="-61.5" font-family="Helvetica,sans-Serif" font-size="10.00">txparser3.cpp</text>
</a>
</g>
</g>
<!-- Node2&#45;&gt;Node29 -->
<g id="edge28" class="edge">
<title>Node2&#45;&gt;Node29</title>
<path fill="none" stroke="midnightblue" d="M1309.58,-117.02C1404.08,-113.06 1656.52,-100.64 1865.43,-74 1868.23,-73.64 1871.11,-73.23 1874.01,-72.79"/>
<polygon fill="midnightblue" stroke="midnightblue" points="1309.21,-113.53 1299.37,-117.44 1309.5,-120.53 1309.21,-113.53"/>
</g>
<!-- Node30 -->
<g id="node30" class="node">
<title>Node30</title>
<g id="a_node30"><a xlink:href="../../d6/d4a/txpost_8cpp.html" target="_top" xlink:title=" ">
<polygon fill="none" stroke="black" points="1968.64,-55.5 1968.64,-73.5 2030.22,-73.5 2030.22,-55.5 1968.64,-55.5"/>
<text text-anchor="middle" x="1999.43" y="-61.5" font-family="Helvetica,sans-Serif" font-size="10.00">txpost.cpp</text>
</a>
</g>
</g>
<!-- Node2&#45;&gt;Node30 -->
<g id="edge29" class="edge">
<title>Node2&#45;&gt;Node30</title>
<path fill="none" stroke="midnightblue" d="M1309.48,-117.97C1413.85,-116.1 1713.25,-107.94 1959.43,-74 1962.38,-73.59 1965.44,-73.09 1968.5,-72.54"/>
<polygon fill="midnightblue" stroke="midnightblue" points="1309.37,-114.47 1299.43,-118.14 1309.49,-121.47 1309.37,-114.47"/>
</g>
<!-- Node31 -->
<g id="node31" class="node">
<title>Node31</title>
<g id="a_node31"><a xlink:href="../../d3/dd3/txra_8cpp.html" target="_top" xlink:title=" ">
<polygon fill="none" stroke="black" points="2048.64,-55.5 2048.64,-73.5 2100.21,-73.5 2100.21,-55.5 2048.64,-55.5"/>
<text text-anchor="middle" x="2074.43" y="-61.5" font-family="Helvetica,sans-Serif" font-size="10.00">txra.cpp</text>
</a>
</g>
</g>
<!-- Node2&#45;&gt;Node31 -->
<g id="edge30" class="edge">
<title>Node2&#45;&gt;Node31</title>
<path fill="none" stroke="midnightblue" d="M1309.3,-118.71C1421.45,-118.83 1761.42,-115.47 2039.43,-74 2042.4,-73.56 2045.48,-72.98 2048.54,-72.34"/>
<polygon fill="midnightblue" stroke="midnightblue" points="1309.17,-115.21 1299.17,-118.69 1309.16,-122.21 1309.17,-115.21"/>
</g>
<!-- Node32 -->
<g id="node32" class="node">
<title>Node32</title>
<g id="a_node32"><a xlink:href="../../df/d8f/txscan_8cpp.html" target="_top" xlink:title=" ">
<polygon fill="none" stroke="black" points="2118.53,-55.5 2118.53,-73.5 2182.33,-73.5 2182.33,-55.5 2118.53,-55.5"/>
<text text-anchor="middle" x="2150.43" y="-61.5" font-family="Helvetica,sans-Serif" font-size="10.00">txscan.cpp</text>
</a>
</g>
</g>
<!-- Node2&#45;&gt;Node32 -->
<g id="edge31" class="edge">
<title>Node2&#45;&gt;Node32</title>
<path fill="none" stroke="midnightblue" d="M1309.46,-118.52C1428.24,-118.16 1802.63,-113.72 2109.43,-74 2112.31,-73.63 2115.3,-73.16 2118.28,-72.65"/>
<polygon fill="midnightblue" stroke="midnightblue" points="1309.41,-115.02 1299.42,-118.55 1309.43,-122.02 1309.41,-115.02"/>
</g>
<!-- Node33 -->
<g id="node33" class="node">
<title>Node33</title>
<g id="a_node33"><a xlink:href="../../d5/dbc/txstack_8cpp.html" target="_top" xlink:title=" ">
<polygon fill="none" stroke="black" points="2200.42,-55.5 2200.42,-73.5 2266.44,-73.5 2266.44,-55.5 2200.42,-55.5"/>
<text text-anchor="middle" x="2233.43" y="-61.5" font-family="Helvetica,sans-Serif" font-size="10.00">txstack.cpp</text>
</a>
</g>
</g>
<!-- Node2&#45;&gt;Node33 -->
<g id="edge32" class="edge">
<title>Node2&#45;&gt;Node33</title>
<path fill="none" stroke="midnightblue" d="M1309.72,-118.72C1436.13,-118.99 1851.45,-116.38 2191.43,-74 2194.23,-73.65 2197.13,-73.22 2200.03,-72.73"/>
<polygon fill="midnightblue" stroke="midnightblue" points="1309.42,-115.22 1299.41,-118.69 1309.4,-122.22 1309.42,-115.22"/>
</g>
<!-- Node34 -->
<g id="node34" class="node">
<title>Node34</title>
<g id="a_node34"><a xlink:href="../../d1/dc8/txtitlepage_8cpp.html" target="_top" xlink:title=" ">
<polygon fill="none" stroke="black" points="2284.19,-55.5 2284.19,-73.5 2364.67,-73.5 2364.67,-55.5 2284.19,-55.5"/>
<text text-anchor="middle" x="2324.43" y="-61.5" font-family="Helvetica,sans-Serif" font-size="10.00">txtitlepage.cpp</text>
</a>
</g>
</g>
<!-- Node2&#45;&gt;Node34 -->
<g id="edge33" class="edge">
<title>Node2&#45;&gt;Node34</title>
<path fill="none" stroke="midnightblue" d="M1309.59,-118.56C1442.96,-118.38 1900.5,-114.66 2275.43,-74 2278.26,-73.69 2281.18,-73.32 2284.11,-72.91"/>
<polygon fill="midnightblue" stroke="midnightblue" points="1309.47,-115.06 1299.48,-118.56 1309.48,-122.06 1309.47,-115.06"/>
</g>
<!-- Node35 -->
<g id="node35" class="node">
<title>Node35</title>
<g id="a_node35"><a xlink:href="../../d7/d6c/txtoken_8cpp.html" target="_top" xlink:title=" ">
<polygon fill="none" stroke="black" points="2382.86,-55.5 2382.86,-73.5 2450,-73.5 2450,-55.5 2382.86,-55.5"/>
<text text-anchor="middle" x="2416.43" y="-61.5" font-family="Helvetica,sans-Serif" font-size="10.00">txtoken.cpp</text>
</a>
</g>
</g>
<!-- Node2&#45;&gt;Node35 -->
<g id="edge34" class="edge">
<title>Node2&#45;&gt;Node35</title>
<path fill="none" stroke="midnightblue" d="M1309.47,-117.76C1478.29,-114.33 2160.74,-99.16 2373.43,-74 2376.45,-73.64 2379.58,-73.19 2382.71,-72.68"/>
<polygon fill="midnightblue" stroke="midnightblue" points="1309.25,-114.26 1299.33,-117.96 1309.39,-121.26 1309.25,-114.26"/>
</g>
<!-- Node36 -->
<g id="node36" class="node">
<title>Node36</title>
<g id="a_node36"><a xlink:href="../../dd/da4/txtranslate_8cpp.html" target="_top" xlink:title=" ">
<polygon fill="none" stroke="black" points="2467.91,-55.5 2467.91,-73.5 2548.95,-73.5 2548.95,-55.5 2467.91,-55.5"/>
<text text-anchor="middle" x="2508.43" y="-61.5" font-family="Helvetica,sans-Serif" font-size="10.00">txtranslate.cpp</text>
</a>
</g>
</g>
<!-- Node2&#45;&gt;Node36 -->
<g id="edge35" class="edge">
<title>Node2&#45;&gt;Node36</title>
<path fill="none" stroke="midnightblue" d="M1310,-118.93C1458.76,-120.21 2009.36,-121.25 2459.43,-74 2462.18,-73.71 2465,-73.36 2467.85,-72.97"/>
<polygon fill="midnightblue" stroke="midnightblue" points="1309.62,-115.43 1299.59,-118.84 1309.56,-122.43 1309.62,-115.43"/>
</g>
<!-- Node37 -->
<g id="node37" class="node">
<title>Node37</title>
<g id="a_node37"><a xlink:href="../../d0/d93/txtrees_8cpp.html" target="_top" xlink:title=" ">
<polygon fill="none" stroke="black" points="2566.97,-55.5 2566.97,-73.5 2631.88,-73.5 2631.88,-55.5 2566.97,-55.5"/>
<text text-anchor="middle" x="2599.43" y="-61.5" font-family="Helvetica,sans-Serif" font-size="10.00">txtrees.cpp</text>
</a>
</g>
</g>
<!-- Node2&#45;&gt;Node37 -->
<g id="edge36" class="edge">
<title>Node2&#45;&gt;Node37</title>
<path fill="none" stroke="midnightblue" d="M1309.4,-118.06C1494.93,-115.76 2307.34,-104.15 2558.43,-74 2561.17,-73.67 2564,-73.25 2566.84,-72.78"/>
<polygon fill="midnightblue" stroke="midnightblue" points="1309.27,-114.56 1299.31,-118.18 1309.35,-121.56 1309.27,-114.56"/>
</g>
<!-- Node13 -->
<g id="node13" class="node">
<title>Node13</title>
<g id="a_node13"><a xlink:href="../../d1/ddd/txbib_8cpp.html" target="_top" xlink:title=" ">
<polygon fill="none" stroke="black" points="691.42,-0.5 691.42,-18.5 747.44,-18.5 747.44,-0.5 691.42,-0.5"/>
<text text-anchor="middle" x="719.43" y="-6.5" font-family="Helvetica,sans-Serif" font-size="10.00">txbib.cpp</text>
</a>
</g>
</g>
<!-- Node12&#45;&gt;Node13 -->
<g id="edge12" class="edge">
<title>Node12&#45;&gt;Node13</title>
<path fill="none" stroke="midnightblue" d="M751.57,-47.53C743.27,-37.97 733.07,-26.21 726.42,-18.55"/>
<polygon fill="midnightblue" stroke="midnightblue" points="749.04,-49.96 758.24,-55.22 754.33,-45.37 749.04,-49.96"/>
</g>
<!-- Node14 -->
<g id="node14" class="node">
<title>Node14</title>
<g id="a_node14"><a xlink:href="../../df/d9e/txcommands_8cpp.html" target="_top" xlink:title=" ">
<polygon fill="none" stroke="black" points="765.64,-0.5 765.64,-18.5 857.22,-18.5 857.22,-0.5 765.64,-0.5"/>
<text text-anchor="middle" x="811.43" y="-6.5" font-family="Helvetica,sans-Serif" font-size="10.00">txcommands.cpp</text>
</a>
</g>
</g>
<!-- Node12&#45;&gt;Node14 -->
<g id="edge13" class="edge">
<title>Node12&#45;&gt;Node14</title>
<path fill="none" stroke="midnightblue" d="M779.29,-47.53C787.59,-37.97 797.79,-26.21 804.44,-18.55"/>
<polygon fill="midnightblue" stroke="midnightblue" points="776.53,-45.37 772.62,-55.22 781.81,-49.96 776.53,-45.37"/>
</g>
<!-- Node28 -->
<g id="node28" class="node">
<title>Node28</title>
<g id="a_node28"><a xlink:href="../../d0/d24/txparser2_8cpp.html" target="_top" xlink:title=" ">
<polygon fill="none" stroke="black" points="1785.14,-0.5 1785.14,-18.5 1861.72,-18.5 1861.72,-0.5 1785.14,-0.5"/>
<text text-anchor="middle" x="1823.43" y="-6.5" font-family="Helvetica,sans-Serif" font-size="10.00">txparser2.cpp</text>
</a>
</g>
</g>
<!-- Node27&#45;&gt;Node28 -->
<g id="edge27" class="edge">
<title>Node27&#45;&gt;Node28</title>
<path fill="none" stroke="midnightblue" d="M1823.43,-45.17C1823.43,-36.09 1823.43,-25.59 1823.43,-18.55"/>
<polygon fill="midnightblue" stroke="midnightblue" points="1819.93,-45.22 1823.43,-55.22 1826.93,-45.22 1819.93,-45.22"/>
</g>
</g>
</svg>
