<?xml version="1.0" encoding="UTF-8" standalone="no"?>
<!DOCTYPE svg PUBLIC "-//W3C//DTD SVG 1.1//EN"
 "http://www.w3.org/Graphics/SVG/1.1/DTD/svg11.dtd">
<!-- Generated by graphviz version 2.43.0 (0)
 -->
<!-- Title: tximage.h Pages: 1 -->
<svg width="106pt" height="82pt"
 viewBox="0.00 0.00 105.62 82.00" xmlns="http://www.w3.org/2000/svg" xmlns:xlink="http://www.w3.org/1999/xlink">
<g id="graph0" class="graph" transform="scale(1 1) rotate(0) translate(4 78)">
<title>tximage.h</title>
<polygon fill="white" stroke="transparent" points="-4,4 -4,-78 101.62,-78 101.62,4 -4,4"/>
<!-- Node1 -->
<g id="node1" class="node">
<title>Node1</title>
<g id="a_node1"><a xlink:title=" ">
<polygon fill="#bfbfbf" stroke="black" points="19.55,-55.5 19.55,-73.5 78.9,-73.5 78.9,-55.5 19.55,-55.5"/>
<text text-anchor="middle" x="49.23" y="-61.5" font-family="Helvetica,sans-Serif" font-size="10.00">tximage.h</text>
</a>
</g>
</g>
<!-- Node2 -->
<g id="node2" class="node">
<title>Node2</title>
<g id="a_node2"><a xlink:title=" ">
<polygon fill="white" stroke="#bfbfbf" points="0,-0.5 0,-18.5 40.45,-18.5 40.45,-0.5 0,-0.5"/>
<text text-anchor="middle" x="20.23" y="-6.5" font-family="Helvetica,sans-Serif" font-size="10.00">string</text>
</a>
</g>
</g>
<!-- Node1&#45;&gt;Node2 -->
<g id="edge1" class="edge">
<title>Node1&#45;&gt;Node2</title>
<path fill="none" stroke="midnightblue" d="M44.7,-55.22C40.63,-47.79 34.53,-36.65 29.44,-27.34"/>
<polygon fill="midnightblue" stroke="midnightblue" points="32.5,-25.64 24.63,-18.55 26.36,-29 32.5,-25.64"/>
</g>
<!-- Node3 -->
<g id="node3" class="node">
<title>Node3</title>
<g id="a_node3"><a xlink:title=" ">
<polygon fill="white" stroke="#bfbfbf" points="58.83,-0.5 58.83,-18.5 97.62,-18.5 97.62,-0.5 58.83,-0.5"/>
<text text-anchor="middle" x="78.23" y="-6.5" font-family="Helvetica,sans-Serif" font-size="10.00">utility</text>
</a>
</g>
</g>
<!-- Node1&#45;&gt;Node3 -->
<g id="edge2" class="edge">
<title>Node1&#45;&gt;Node3</title>
<path fill="none" stroke="midnightblue" d="M53.76,-55.22C57.82,-47.79 63.92,-36.65 69.01,-27.34"/>
<polygon fill="midnightblue" stroke="midnightblue" points="72.09,-29 73.82,-18.55 65.95,-25.64 72.09,-29"/>
</g>
</g>
</svg>
