<?xml version="1.0" encoding="UTF-8" standalone="no"?>
<!DOCTYPE svg PUBLIC "-//W3C//DTD SVG 1.1//EN"
 "http://www.w3.org/Graphics/SVG/1.1/DTD/svg11.dtd">
<!-- Generated by graphviz version 2.42.3 (20191010.1750)
 -->
<!-- Title: Macro Pages: 1 -->
<svg width="228pt" height="232pt"
 viewBox="0.00 0.00 228.00 232.00" xmlns="http://www.w3.org/2000/svg" xmlns:xlink="http://www.w3.org/1999/xlink">
<g id="graph0" class="graph" transform="scale(1 1) rotate(0) translate(4 228)">
<title>Macro</title>
<!-- Node1 -->
<g id="node1" class="node">
<title>Node1</title>
<g id="a_node1"><a xlink:title=" ">
<polygon fill="#bfbfbf" stroke="black" points="82.54,-0.5 82.54,-18.5 126.32,-18.5 126.32,-0.5 82.54,-0.5"/>
<text text-anchor="middle" x="104.43" y="-6.5" font-family="Helvetica,sans-Serif" font-size="10.00">Macro</text>
</a>
</g>
</g>
<!-- Node2 -->
<g id="node2" class="node">
<title>Node2</title>
<g id="a_node2"><a xlink:title=" ">
<polygon fill="none" stroke="#bfbfbf" points="0,-70.5 0,-88.5 90.86,-88.5 90.86,-70.5 0,-70.5"/>
<text text-anchor="middle" x="45.43" y="-76.5" font-family="Helvetica,sans-Serif" font-size="10.00">std::list&lt; Token &gt;</text>
</a>
</g>
</g>
<!-- Node2&#45;&gt;Node1 -->
<g id="edge1" class="edge">
<title>Node2&#45;&gt;Node1</title>
<path fill="none" stroke="#9a32cd" stroke-dasharray="5,2" d="M59.15,-62.69C71.13,-48.88 88.04,-29.39 97.44,-18.56"/>
<polygon fill="#9a32cd" stroke="#9a32cd" points="56.34,-60.59 52.43,-70.43 61.63,-65.17 56.34,-60.59"/>
<text text-anchor="middle" x="92.66" y="-39" font-family="Helvetica,sans-Serif" font-size="10.00"> body</text>
</g>
<!-- Node3 -->
<g id="node3" class="node">
<title>Node3</title>
<g id="a_node3"><a xlink:href="../../d9/d27/struct_token.html" target="_top" xlink:title=" ">
<polygon fill="none" stroke="black" points="24.09,-140.5 24.09,-158.5 66.77,-158.5 66.77,-140.5 24.09,-140.5"/>
<text text-anchor="middle" x="45.43" y="-146.5" font-family="Helvetica,sans-Serif" font-size="10.00">Token</text>
</a>
</g>
</g>
<!-- Node3&#45;&gt;Node2 -->
<g id="edge2" class="edge">
<title>Node3&#45;&gt;Node2</title>
<path fill="none" stroke="#9a32cd" stroke-dasharray="5,2" d="M45.43,-130.3C45.43,-116.7 45.43,-98.78 45.43,-88.56"/>
<polygon fill="#9a32cd" stroke="#9a32cd" points="41.93,-130.43 45.43,-140.43 48.93,-130.43 41.93,-130.43"/>
<text text-anchor="middle" x="67.11" y="-114" font-family="Helvetica,sans-Serif" font-size="10.00"> elements</text>
</g>
<!-- Node4 -->
<g id="node4" class="node">
<title>Node4</title>
<g id="a_node4"><a xlink:title=" ">
<polygon fill="none" stroke="#bfbfbf" points="108.86,-65.5 108.86,-93.5 220,-93.5 220,-65.5 108.86,-65.5"/>
<text text-anchor="start" x="116.86" y="-81.5" font-family="Helvetica,sans-Serif" font-size="10.00">std::array&lt; TokenList,</text>
<text text-anchor="middle" x="164.43" y="-71.5" font-family="Helvetica,sans-Serif" font-size="10.00"> 10 &gt;</text>
</a>
</g>
</g>
<!-- Node4&#45;&gt;Node1 -->
<g id="edge3" class="edge">
<title>Node4&#45;&gt;Node1</title>
<path fill="none" stroke="#9a32cd" stroke-dasharray="5,2" d="M146.11,-57.73C134.57,-44.65 120.3,-28.48 111.8,-18.86"/>
<polygon fill="#9a32cd" stroke="#9a32cd" points="143.62,-60.21 152.86,-65.39 148.87,-55.57 143.62,-60.21"/>
<text text-anchor="middle" x="158.21" y="-39" font-family="Helvetica,sans-Serif" font-size="10.00"> delimiters</text>
</g>
<!-- Node5 -->
<g id="node5" class="node">
<title>Node5</title>
<g id="a_node5"><a xlink:title="STL class.">
<polygon fill="none" stroke="#bfbfbf" points="129.38,-140.5 129.38,-158.5 199.49,-158.5 199.49,-140.5 129.38,-140.5"/>
<text text-anchor="middle" x="164.43" y="-146.5" font-family="Helvetica,sans-Serif" font-size="10.00">std::list&lt; T &gt;</text>
</a>
</g>
</g>
<!-- Node5&#45;&gt;Node4 -->
<g id="edge4" class="edge">
<title>Node5&#45;&gt;Node4</title>
<path fill="none" stroke="#9a32cd" stroke-dasharray="5,2" d="M164.43,-130.21C164.43,-118.69 164.43,-104.08 164.43,-93.69"/>
<polygon fill="#9a32cd" stroke="#9a32cd" points="160.93,-130.43 164.43,-140.43 167.93,-130.43 160.93,-130.43"/>
<text text-anchor="middle" x="186.11" y="-114" font-family="Helvetica,sans-Serif" font-size="10.00"> elements</text>
</g>
<!-- Node6 -->
<g id="node6" class="node">
<title>Node6</title>
<g id="a_node6"><a xlink:title=" ">
<polygon fill="none" stroke="#bfbfbf" points="149.93,-205.5 149.93,-223.5 178.93,-223.5 178.93,-205.5 149.93,-205.5"/>
<text text-anchor="middle" x="163.99" y="-211.5" font-family="Helvetica,sans-Serif" font-size="10.00">T</text>
</a>
</g>
</g>
<!-- Node6&#45;&gt;Node5 -->
<g id="edge5" class="edge">
<title>Node6&#45;&gt;Node5</title>
<path fill="none" stroke="#9a32cd" stroke-dasharray="5,2" d="M164.43,-194.91C164.43,-182.81 164.43,-167.65 164.43,-158.54"/>
<polygon fill="#9a32cd" stroke="#9a32cd" points="160.93,-195.26 164.43,-205.26 167.93,-195.26 160.93,-195.26"/>
<text text-anchor="middle" x="186.11" y="-179" font-family="Helvetica,sans-Serif" font-size="10.00"> elements</text>
</g>
</g>
</svg>
