<?xml version="1.0" encoding="UTF-8" standalone="no"?>
<!DOCTYPE svg PUBLIC "-//W3C//DTD SVG 1.1//EN"
 "http://www.w3.org/Graphics/SVG/1.1/DTD/svg11.dtd">
<!-- Generated by graphviz version 2.42.3 (20191010.1750)
 -->
<!-- Title: txpost.cpp Pages: 1 -->
<svg width="776pt" height="742pt"
 viewBox="0.00 0.00 775.68 742.00" xmlns="http://www.w3.org/2000/svg" xmlns:xlink="http://www.w3.org/1999/xlink">
<g id="graph0" class="graph" transform="scale(1 1) rotate(0) translate(4 738)">
<title>txpost.cpp</title>
<polygon fill="white" stroke="transparent" points="-4,4 -4,-738 771.68,-738 771.68,4 -4,4"/>
<!-- Node1 -->
<g id="node1" class="node">
<title>Node1</title>
<g id="a_node1"><a xlink:title=" ">
<polygon fill="#bfbfbf" stroke="black" points="548.89,-715.5 548.89,-733.5 610.48,-733.5 610.48,-715.5 548.89,-715.5"/>
<text text-anchor="middle" x="579.68" y="-721.5" font-family="Helvetica,sans-Serif" font-size="10.00">txpost.cpp</text>
</a>
</g>
</g>
<!-- Node2 -->
<g id="node2" class="node">
<title>Node2</title>
<g id="a_node2"><a xlink:href="../../d7/d79/txinline_8h.html" target="_top" xlink:title=" ">
<polygon fill="white" stroke="black" points="147.95,-660.5 147.95,-678.5 203.42,-678.5 203.42,-660.5 147.95,-660.5"/>
<text text-anchor="middle" x="175.68" y="-666.5" font-family="Helvetica,sans-Serif" font-size="10.00">txinline.h</text>
</a>
</g>
</g>
<!-- Node1&#45;&gt;Node2 -->
<g id="edge1" class="edge">
<title>Node1&#45;&gt;Node2</title>
<path fill="none" stroke="midnightblue" d="M548.65,-719.43C475.62,-709.85 293.08,-685.9 213.63,-675.48"/>
<polygon fill="midnightblue" stroke="midnightblue" points="213.94,-671.99 203.57,-674.16 213.03,-678.93 213.94,-671.99"/>
</g>
<!-- Node32 -->
<g id="node32" class="node">
<title>Node32</title>
<g id="a_node32"><a xlink:href="../../d2/d1b/txparser_8h.html" target="_top" xlink:title=" ">
<polygon fill="white" stroke="black" points="447.73,-660.5 447.73,-678.5 507.64,-678.5 507.64,-660.5 447.73,-660.5"/>
<text text-anchor="middle" x="477.68" y="-666.5" font-family="Helvetica,sans-Serif" font-size="10.00">txparser.h</text>
</a>
</g>
</g>
<!-- Node1&#45;&gt;Node32 -->
<g id="edge40" class="edge">
<title>Node1&#45;&gt;Node32</title>
<path fill="none" stroke="midnightblue" d="M564.19,-715.45C547.79,-706.93 521.67,-693.35 502.41,-683.35"/>
<polygon fill="midnightblue" stroke="midnightblue" points="503.81,-680.13 493.32,-678.63 500.58,-686.34 503.81,-680.13"/>
</g>
<!-- Node42 -->
<g id="node42" class="node">
<title>Node42</title>
<g id="a_node42"><a xlink:href="../../dd/dae/txpost_8h.html" target="_top" xlink:title=" ">
<polygon fill="white" stroke="black" points="645.17,-440.5 645.17,-458.5 696.19,-458.5 696.19,-440.5 645.17,-440.5"/>
<text text-anchor="middle" x="670.68" y="-446.5" font-family="Helvetica,sans-Serif" font-size="10.00">txpost.h</text>
</a>
</g>
</g>
<!-- Node1&#45;&gt;Node42 -->
<g id="edge57" class="edge">
<title>Node1&#45;&gt;Node42</title>
<path fill="none" stroke="midnightblue" d="M590.6,-715.32C611.19,-698.88 653.68,-659.59 653.68,-615.5 653.68,-615.5 653.68,-615.5 653.68,-558.5 653.68,-526.48 661.07,-489.77 666.1,-468.45"/>
<polygon fill="midnightblue" stroke="midnightblue" points="669.54,-469.11 668.53,-458.56 662.75,-467.44 669.54,-469.11"/>
</g>
<!-- Node43 -->
<g id="node43" class="node">
<title>Node43</title>
<g id="a_node43"><a xlink:href="../../d0/dd4/txtrees_8h.html" target="_top" xlink:title=" ">
<polygon fill="white" stroke="black" points="683.51,-660.5 683.51,-678.5 737.86,-678.5 737.86,-660.5 683.51,-660.5"/>
<text text-anchor="middle" x="710.68" y="-666.5" font-family="Helvetica,sans-Serif" font-size="10.00">txtrees.h</text>
</a>
</g>
</g>
<!-- Node1&#45;&gt;Node43 -->
<g id="edge59" class="edge">
<title>Node1&#45;&gt;Node43</title>
<path fill="none" stroke="midnightblue" d="M599.58,-715.45C621.32,-706.66 656.36,-692.48 681.27,-682.4"/>
<polygon fill="midnightblue" stroke="midnightblue" points="682.64,-685.62 690.6,-678.63 680.02,-679.13 682.64,-685.62"/>
</g>
<!-- Node3 -->
<g id="node3" class="node">
<title>Node3</title>
<g id="a_node3"><a xlink:href="../../d4/de9/_main_class_8h.html" target="_top" xlink:title=" ">
<polygon fill="white" stroke="black" points="193.73,-605.5 193.73,-623.5 293.64,-623.5 293.64,-605.5 193.73,-605.5"/>
<text text-anchor="middle" x="243.68" y="-611.5" font-family="Helvetica,sans-Serif" font-size="10.00">tralics/MainClass.h</text>
</a>
</g>
</g>
<!-- Node2&#45;&gt;Node3 -->
<g id="edge2" class="edge">
<title>Node2&#45;&gt;Node3</title>
<path fill="none" stroke="midnightblue" d="M186.01,-660.45C196.4,-652.36 212.63,-639.7 225.23,-629.88"/>
<polygon fill="midnightblue" stroke="midnightblue" points="227.52,-632.53 233.26,-623.63 223.22,-627.01 227.52,-632.53"/>
</g>
<!-- Node29 -->
<g id="node29" class="node">
<title>Node29</title>
<g id="a_node29"><a xlink:href="../../d2/d06/txlogger_8h.html" target="_top" xlink:title=" ">
<polygon fill="white" stroke="black" points="0,-605.5 0,-623.5 59.37,-623.5 59.37,-605.5 0,-605.5"/>
<text text-anchor="middle" x="29.68" y="-611.5" font-family="Helvetica,sans-Serif" font-size="10.00">txlogger.h</text>
</a>
</g>
</g>
<!-- Node2&#45;&gt;Node29 -->
<g id="edge35" class="edge">
<title>Node2&#45;&gt;Node29</title>
<path fill="none" stroke="midnightblue" d="M153.51,-660.45C129.07,-651.58 89.54,-637.23 61.73,-627.13"/>
<polygon fill="midnightblue" stroke="midnightblue" points="62.66,-623.75 52.07,-623.63 60.27,-630.33 62.66,-623.75"/>
</g>
<!-- Node31 -->
<g id="node31" class="node">
<title>Node31</title>
<g id="a_node31"><a xlink:href="../../d5/d08/txparam_8h.html" target="_top" xlink:title=" ">
<polygon fill="white" stroke="black" points="77.45,-605.5 77.45,-623.5 137.92,-623.5 137.92,-605.5 77.45,-605.5"/>
<text text-anchor="middle" x="107.68" y="-611.5" font-family="Helvetica,sans-Serif" font-size="10.00">txparam.h</text>
</a>
</g>
</g>
<!-- Node2&#45;&gt;Node31 -->
<g id="edge38" class="edge">
<title>Node2&#45;&gt;Node31</title>
<path fill="none" stroke="midnightblue" d="M165.36,-660.45C154.97,-652.36 138.74,-639.7 126.14,-629.88"/>
<polygon fill="midnightblue" stroke="midnightblue" points="128.15,-627.01 118.11,-623.63 123.85,-632.53 128.15,-627.01"/>
</g>
<!-- Node4 -->
<g id="node4" class="node">
<title>Node4</title>
<g id="a_node4"><a xlink:href="../../de/d29/txio_8h.html" target="_top" xlink:title=" ">
<polygon fill="white" stroke="black" points="135.57,-550.5 135.57,-568.5 183.8,-568.5 183.8,-550.5 135.57,-550.5"/>
<text text-anchor="middle" x="159.68" y="-556.5" font-family="Helvetica,sans-Serif" font-size="10.00">../txio.h</text>
</a>
</g>
</g>
<!-- Node3&#45;&gt;Node4 -->
<g id="edge3" class="edge">
<title>Node3&#45;&gt;Node4</title>
<path fill="none" stroke="midnightblue" d="M230.93,-605.45C217.73,-597.12 196.88,-583.97 181.14,-574.04"/>
<polygon fill="midnightblue" stroke="midnightblue" points="182.89,-571 172.56,-568.63 179.15,-576.92 182.89,-571"/>
</g>
<!-- Node28 -->
<g id="node28" class="node">
<title>Node28</title>
<g id="a_node28"><a xlink:href="../../dc/def/txstring_8h.html" target="_top" xlink:title=" ">
<polygon fill="white" stroke="black" points="304.23,-495.5 304.23,-513.5 369.14,-513.5 369.14,-495.5 304.23,-495.5"/>
<text text-anchor="middle" x="336.68" y="-501.5" font-family="Helvetica,sans-Serif" font-size="10.00">../txstring.h</text>
</a>
</g>
</g>
<!-- Node3&#45;&gt;Node28 -->
<g id="edge33" class="edge">
<title>Node3&#45;&gt;Node28</title>
<path fill="none" stroke="midnightblue" d="M238.46,-605.35C230.95,-592.5 219.22,-567.24 230.68,-550 244.78,-528.79 271.17,-517.67 294.08,-511.85"/>
<polygon fill="midnightblue" stroke="midnightblue" points="295,-515.23 303.98,-509.59 293.45,-508.4 295,-515.23"/>
</g>
<!-- Node5 -->
<g id="node5" class="node">
<title>Node5</title>
<g id="a_node5"><a xlink:href="../../dd/d74/txbuffer_8h.html" target="_top" xlink:title=" ">
<polygon fill="white" stroke="black" points="313.2,-440.5 313.2,-458.5 370.17,-458.5 370.17,-440.5 313.2,-440.5"/>
<text text-anchor="middle" x="341.68" y="-446.5" font-family="Helvetica,sans-Serif" font-size="10.00">txbuffer.h</text>
</a>
</g>
</g>
<!-- Node4&#45;&gt;Node5 -->
<g id="edge4" class="edge">
<title>Node4&#45;&gt;Node5</title>
<path fill="none" stroke="midnightblue" d="M173.36,-550.38C204.46,-531.93 280.7,-486.69 318.98,-463.97"/>
<polygon fill="midnightblue" stroke="midnightblue" points="321.03,-466.82 327.85,-458.71 317.46,-460.81 321.03,-466.82"/>
</g>
<!-- Node27 -->
<g id="node27" class="node">
<title>Node27</title>
<g id="a_node27"><a xlink:title=" ">
<polygon fill="white" stroke="#bfbfbf" points="93.01,-495.5 93.01,-513.5 142.35,-513.5 142.35,-495.5 93.01,-495.5"/>
<text text-anchor="middle" x="117.68" y="-501.5" font-family="Helvetica,sans-Serif" font-size="10.00">fstream</text>
</a>
</g>
</g>
<!-- Node4&#45;&gt;Node27 -->
<g id="edge32" class="edge">
<title>Node4&#45;&gt;Node27</title>
<path fill="none" stroke="midnightblue" d="M153.12,-550.22C147.05,-542.55 137.84,-530.94 130.34,-521.47"/>
<polygon fill="midnightblue" stroke="midnightblue" points="133.02,-519.21 124.06,-513.55 127.53,-523.56 133.02,-519.21"/>
</g>
<!-- Node6 -->
<g id="node6" class="node">
<title>Node6</title>
<g id="a_node6"><a xlink:href="../../d1/d9e/txid_8h.html" target="_top" xlink:title=" ">
<polygon fill="white" stroke="black" points="440.73,-330.5 440.73,-348.5 480.64,-348.5 480.64,-330.5 440.73,-330.5"/>
<text text-anchor="middle" x="460.68" y="-336.5" font-family="Helvetica,sans-Serif" font-size="10.00">txid.h</text>
</a>
</g>
</g>
<!-- Node5&#45;&gt;Node6 -->
<g id="edge5" class="edge">
<title>Node5&#45;&gt;Node6</title>
<path fill="none" stroke="midnightblue" d="M350.63,-440.38C370.53,-422.32 418.71,-378.59 444.22,-355.44"/>
<polygon fill="midnightblue" stroke="midnightblue" points="446.58,-358.02 451.64,-348.71 441.88,-352.84 446.58,-358.02"/>
</g>
<!-- Node16 -->
<g id="node16" class="node">
<title>Node16</title>
<g id="a_node16"><a xlink:href="../../d9/d18/txscaled_8h.html" target="_top" xlink:title=" ">
<polygon fill="white" stroke="black" points="311.17,-385.5 311.17,-403.5 372.2,-403.5 372.2,-385.5 311.17,-385.5"/>
<text text-anchor="middle" x="341.68" y="-391.5" font-family="Helvetica,sans-Serif" font-size="10.00">txscaled.h</text>
</a>
</g>
</g>
<!-- Node5&#45;&gt;Node16 -->
<g id="edge15" class="edge">
<title>Node5&#45;&gt;Node16</title>
<path fill="none" stroke="midnightblue" d="M341.68,-440.22C341.68,-433.18 341.68,-422.81 341.68,-413.83"/>
<polygon fill="midnightblue" stroke="midnightblue" points="345.18,-413.55 341.68,-403.55 338.18,-413.55 345.18,-413.55"/>
</g>
<!-- Node22 -->
<g id="node22" class="node">
<title>Node22</title>
<g id="a_node22"><a xlink:title=" ">
<polygon fill="white" stroke="#bfbfbf" points="245.17,-110.5 245.17,-128.5 296.2,-128.5 296.2,-110.5 245.17,-110.5"/>
<text text-anchor="middle" x="270.68" y="-116.5" font-family="Helvetica,sans-Serif" font-size="10.00">optional</text>
</a>
</g>
</g>
<!-- Node5&#45;&gt;Node22 -->
<g id="edge30" class="edge">
<title>Node5&#45;&gt;Node22</title>
<path fill="none" stroke="midnightblue" d="M328.09,-440.29C303.62,-424.36 254.68,-386.73 254.68,-340.5 254.68,-340.5 254.68,-340.5 254.68,-228.5 254.68,-196.53 261.63,-159.8 266.37,-138.46"/>
<polygon fill="midnightblue" stroke="midnightblue" points="269.82,-139.1 268.66,-128.57 263,-137.52 269.82,-139.1"/>
</g>
<!-- Node25 -->
<g id="node25" class="node">
<title>Node25</title>
<g id="a_node25"><a xlink:title=" ">
<polygon fill="white" stroke="#bfbfbf" points="428.96,-385.5 428.96,-403.5 474.41,-403.5 474.41,-385.5 428.96,-385.5"/>
<text text-anchor="middle" x="451.68" y="-391.5" font-family="Helvetica,sans-Serif" font-size="10.00">cstring</text>
</a>
</g>
</g>
<!-- Node5&#45;&gt;Node25 -->
<g id="edge29" class="edge">
<title>Node5&#45;&gt;Node25</title>
<path fill="none" stroke="midnightblue" d="M358.39,-440.45C376.24,-431.85 404.77,-418.1 425.58,-408.08"/>
<polygon fill="midnightblue" stroke="midnightblue" points="427.33,-411.12 434.82,-403.63 424.29,-404.81 427.33,-411.12"/>
</g>
<!-- Node26 -->
<g id="node26" class="node">
<title>Node26</title>
<g id="a_node26"><a xlink:title=" ">
<polygon fill="white" stroke="#bfbfbf" points="493.07,-385.5 493.07,-403.5 536.3,-403.5 536.3,-385.5 493.07,-385.5"/>
<text text-anchor="middle" x="514.68" y="-391.5" font-family="Helvetica,sans-Serif" font-size="10.00">vector</text>
</a>
</g>
</g>
<!-- Node5&#45;&gt;Node26 -->
<g id="edge31" class="edge">
<title>Node5&#45;&gt;Node26</title>
<path fill="none" stroke="midnightblue" d="M367.96,-440.45C398.88,-430.98 450.19,-415.26 483.21,-405.14"/>
<polygon fill="midnightblue" stroke="midnightblue" points="484.29,-408.47 492.83,-402.2 482.24,-401.78 484.29,-408.47"/>
</g>
<!-- Node7 -->
<g id="node7" class="node">
<title>Node7</title>
<g id="a_node7"><a xlink:href="../../dc/de8/txvars_8h.html" target="_top" xlink:title=" ">
<polygon fill="white" stroke="black" points="399.18,-275.5 399.18,-293.5 450.19,-293.5 450.19,-275.5 399.18,-275.5"/>
<text text-anchor="middle" x="424.68" y="-281.5" font-family="Helvetica,sans-Serif" font-size="10.00">txvars.h</text>
</a>
</g>
</g>
<!-- Node6&#45;&gt;Node7 -->
<g id="edge6" class="edge">
<title>Node6&#45;&gt;Node7</title>
<path fill="none" stroke="midnightblue" d="M455.06,-330.22C449.96,-322.71 442.28,-311.41 435.93,-302.05"/>
<polygon fill="midnightblue" stroke="midnightblue" points="438.67,-299.86 430.15,-293.55 432.88,-303.79 438.67,-299.86"/>
</g>
<!-- Node15 -->
<g id="node15" class="node">
<title>Node15</title>
<g id="a_node15"><a xlink:title=" ">
<polygon fill="white" stroke="#bfbfbf" points="556.46,-220.5 556.46,-238.5 596.91,-238.5 596.91,-220.5 556.46,-220.5"/>
<text text-anchor="middle" x="576.68" y="-226.5" font-family="Helvetica,sans-Serif" font-size="10.00">string</text>
</a>
</g>
</g>
<!-- Node6&#45;&gt;Node15 -->
<g id="edge14" class="edge">
<title>Node6&#45;&gt;Node15</title>
<path fill="none" stroke="midnightblue" d="M480.74,-334.47C502.71,-329.03 537.5,-317.21 557.68,-294 568.66,-281.38 573.29,-262.63 575.25,-248.77"/>
<polygon fill="midnightblue" stroke="midnightblue" points="578.77,-248.84 576.35,-238.52 571.81,-248.09 578.77,-248.84"/>
</g>
<!-- Node8 -->
<g id="node8" class="node">
<title>Node8</title>
<g id="a_node8"><a xlink:href="../../d0/d0b/enums_8h.html" target="_top" xlink:title=" ">
<polygon fill="white" stroke="black" points="373.06,-165.5 373.06,-183.5 456.31,-183.5 456.31,-165.5 373.06,-165.5"/>
<text text-anchor="middle" x="414.68" y="-171.5" font-family="Helvetica,sans-Serif" font-size="10.00">tralics/enums.h</text>
</a>
</g>
</g>
<!-- Node7&#45;&gt;Node8 -->
<g id="edge7" class="edge">
<title>Node7&#45;&gt;Node8</title>
<path fill="none" stroke="midnightblue" d="M423.93,-275.38C422.34,-258.18 418.59,-217.7 416.39,-193.89"/>
<polygon fill="midnightblue" stroke="midnightblue" points="419.85,-193.35 415.44,-183.71 412.88,-193.99 419.85,-193.35"/>
</g>
<!-- Node14 -->
<g id="node14" class="node">
<title>Node14</title>
<g id="a_node14"><a xlink:title=" ">
<polygon fill="white" stroke="#bfbfbf" points="447.29,-220.5 447.29,-238.5 486.08,-238.5 486.08,-220.5 447.29,-220.5"/>
<text text-anchor="middle" x="466.68" y="-226.5" font-family="Helvetica,sans-Serif" font-size="10.00">array</text>
</a>
</g>
</g>
<!-- Node7&#45;&gt;Node14 -->
<g id="edge13" class="edge">
<title>Node7&#45;&gt;Node14</title>
<path fill="none" stroke="midnightblue" d="M431.25,-275.22C437.32,-267.55 446.53,-255.94 454.03,-246.47"/>
<polygon fill="midnightblue" stroke="midnightblue" points="456.84,-248.56 460.31,-238.55 451.35,-244.21 456.84,-248.56"/>
</g>
<!-- Node9 -->
<g id="node9" class="node">
<title>Node9</title>
<g id="a_node9"><a xlink:href="../../d8/db5/consts_8h.html" target="_top" xlink:title=" ">
<polygon fill="white" stroke="black" points="376.06,-110.5 376.06,-128.5 429.31,-128.5 429.31,-110.5 376.06,-110.5"/>
<text text-anchor="middle" x="402.68" y="-116.5" font-family="Helvetica,sans-Serif" font-size="10.00">consts.h</text>
</a>
</g>
</g>
<!-- Node8&#45;&gt;Node9 -->
<g id="edge8" class="edge">
<title>Node8&#45;&gt;Node9</title>
<path fill="none" stroke="midnightblue" d="M412.81,-165.22C411.2,-158.1 408.82,-147.58 406.77,-138.53"/>
<polygon fill="midnightblue" stroke="midnightblue" points="410.13,-137.53 404.51,-128.55 403.3,-139.08 410.13,-137.53"/>
</g>
<!-- Node10 -->
<g id="node10" class="node">
<title>Node10</title>
<g id="a_node10"><a xlink:href="../../d9/d49/types_8h.html" target="_top" xlink:title=" ">
<polygon fill="white" stroke="black" points="341.56,-55.5 341.56,-73.5 389.81,-73.5 389.81,-55.5 341.56,-55.5"/>
<text text-anchor="middle" x="365.68" y="-61.5" font-family="Helvetica,sans-Serif" font-size="10.00">types.h</text>
</a>
</g>
</g>
<!-- Node9&#45;&gt;Node10 -->
<g id="edge9" class="edge">
<title>Node9&#45;&gt;Node10</title>
<path fill="none" stroke="midnightblue" d="M396.9,-110.22C391.6,-102.63 383.61,-91.18 377.04,-81.76"/>
<polygon fill="midnightblue" stroke="midnightblue" points="379.9,-79.75 371.3,-73.55 374.16,-83.75 379.9,-79.75"/>
</g>
<!-- Node11 -->
<g id="node11" class="node">
<title>Node11</title>
<g id="a_node11"><a xlink:title=" ">
<polygon fill="white" stroke="#bfbfbf" points="273.57,-0.5 273.57,-18.5 321.8,-18.5 321.8,-0.5 273.57,-0.5"/>
<text text-anchor="middle" x="297.68" y="-6.5" font-family="Helvetica,sans-Serif" font-size="10.00">cassert</text>
</a>
</g>
</g>
<!-- Node10&#45;&gt;Node11 -->
<g id="edge10" class="edge">
<title>Node10&#45;&gt;Node11</title>
<path fill="none" stroke="midnightblue" d="M355.36,-55.45C344.97,-47.36 328.74,-34.7 316.14,-24.88"/>
<polygon fill="midnightblue" stroke="midnightblue" points="318.15,-22.01 308.11,-18.63 313.85,-27.53 318.15,-22.01"/>
</g>
<!-- Node12 -->
<g id="node12" class="node">
<title>Node12</title>
<g id="a_node12"><a xlink:title=" ">
<polygon fill="white" stroke="#bfbfbf" points="339.89,-0.5 339.89,-18.5 391.48,-18.5 391.48,-0.5 339.89,-0.5"/>
<text text-anchor="middle" x="365.68" y="-6.5" font-family="Helvetica,sans-Serif" font-size="10.00">stddef.h</text>
</a>
</g>
</g>
<!-- Node10&#45;&gt;Node12 -->
<g id="edge11" class="edge">
<title>Node10&#45;&gt;Node12</title>
<path fill="none" stroke="midnightblue" d="M365.68,-55.22C365.68,-48.18 365.68,-37.81 365.68,-28.83"/>
<polygon fill="midnightblue" stroke="midnightblue" points="369.18,-28.55 365.68,-18.55 362.18,-28.55 369.18,-28.55"/>
</g>
<!-- Node13 -->
<g id="node13" class="node">
<title>Node13</title>
<g id="a_node13"><a xlink:title=" ">
<polygon fill="white" stroke="#bfbfbf" points="409.62,-0.5 409.62,-18.5 471.75,-18.5 471.75,-0.5 409.62,-0.5"/>
<text text-anchor="middle" x="440.68" y="-6.5" font-family="Helvetica,sans-Serif" font-size="10.00">type_traits</text>
</a>
</g>
</g>
<!-- Node10&#45;&gt;Node13 -->
<g id="edge12" class="edge">
<title>Node10&#45;&gt;Node13</title>
<path fill="none" stroke="midnightblue" d="M377.08,-55.45C388.64,-47.28 406.78,-34.46 420.73,-24.6"/>
<polygon fill="midnightblue" stroke="midnightblue" points="423.04,-27.25 429.19,-18.63 419,-21.54 423.04,-27.25"/>
</g>
<!-- Node17 -->
<g id="node17" class="node">
<title>Node17</title>
<g id="a_node17"><a xlink:href="../../dc/d91/txtokenlist_8h.html" target="_top" xlink:title=" ">
<polygon fill="white" stroke="black" points="354.28,-330.5 354.28,-348.5 423.09,-348.5 423.09,-330.5 354.28,-330.5"/>
<text text-anchor="middle" x="388.68" y="-336.5" font-family="Helvetica,sans-Serif" font-size="10.00">txtokenlist.h</text>
</a>
</g>
</g>
<!-- Node16&#45;&gt;Node17 -->
<g id="edge16" class="edge">
<title>Node16&#45;&gt;Node17</title>
<path fill="none" stroke="midnightblue" d="M349.03,-385.22C355.9,-377.47 366.34,-365.7 374.78,-356.18"/>
<polygon fill="midnightblue" stroke="midnightblue" points="377.53,-358.35 381.55,-348.55 372.29,-353.71 377.53,-358.35"/>
</g>
<!-- Node17&#45;&gt;Node7 -->
<g id="edge27" class="edge">
<title>Node17&#45;&gt;Node7</title>
<path fill="none" stroke="midnightblue" d="M394.31,-330.22C399.41,-322.71 407.08,-311.41 413.44,-302.05"/>
<polygon fill="midnightblue" stroke="midnightblue" points="416.49,-303.79 419.22,-293.55 410.7,-299.86 416.49,-303.79"/>
</g>
<!-- Node18 -->
<g id="node18" class="node">
<title>Node18</title>
<g id="a_node18"><a xlink:href="../../d5/daf/_istring_8h.html" target="_top" xlink:title=" ">
<polygon fill="white" stroke="black" points="468.45,-275.5 468.45,-293.5 548.92,-293.5 548.92,-275.5 468.45,-275.5"/>
<text text-anchor="middle" x="508.68" y="-281.5" font-family="Helvetica,sans-Serif" font-size="10.00">tralics/Istring.h</text>
</a>
</g>
</g>
<!-- Node17&#45;&gt;Node18 -->
<g id="edge17" class="edge">
<title>Node17&#45;&gt;Node18</title>
<path fill="none" stroke="midnightblue" d="M406.91,-330.45C426.65,-321.73 458.35,-307.73 481.13,-297.67"/>
<polygon fill="midnightblue" stroke="midnightblue" points="482.55,-300.87 490.29,-293.63 479.73,-294.46 482.55,-300.87"/>
</g>
<!-- Node19 -->
<g id="node19" class="node">
<title>Node19</title>
<g id="a_node19"><a xlink:href="../../dd/dcd/_token_8h.html" target="_top" xlink:title=" ">
<polygon fill="white" stroke="black" points="301.73,-275.5 301.73,-293.5 381.64,-293.5 381.64,-275.5 301.73,-275.5"/>
<text text-anchor="middle" x="341.68" y="-281.5" font-family="Helvetica,sans-Serif" font-size="10.00">tralics/Token.h</text>
</a>
</g>
</g>
<!-- Node17&#45;&gt;Node19 -->
<g id="edge20" class="edge">
<title>Node17&#45;&gt;Node19</title>
<path fill="none" stroke="midnightblue" d="M381.34,-330.22C374.47,-322.47 364.03,-310.7 355.59,-301.18"/>
<polygon fill="midnightblue" stroke="midnightblue" points="358.08,-298.71 348.82,-293.55 352.84,-303.35 358.08,-298.71"/>
</g>
<!-- Node24 -->
<g id="node24" class="node">
<title>Node24</title>
<g id="a_node24"><a xlink:title=" ">
<polygon fill="white" stroke="#bfbfbf" points="648.29,-275.5 648.29,-293.5 687.08,-293.5 687.08,-275.5 648.29,-275.5"/>
<text text-anchor="middle" x="667.68" y="-281.5" font-family="Helvetica,sans-Serif" font-size="10.00">utility</text>
</a>
</g>
</g>
<!-- Node17&#45;&gt;Node24 -->
<g id="edge28" class="edge">
<title>Node17&#45;&gt;Node24</title>
<path fill="none" stroke="midnightblue" d="M423.41,-331.61C426.21,-331.06 428.99,-330.52 431.68,-330 505.97,-315.65 593.51,-299.29 638.2,-290.97"/>
<polygon fill="midnightblue" stroke="midnightblue" points="638.9,-294.4 648.09,-289.13 637.62,-287.52 638.9,-294.4"/>
</g>
<!-- Node18&#45;&gt;Node8 -->
<g id="edge18" class="edge">
<title>Node18&#45;&gt;Node8</title>
<path fill="none" stroke="midnightblue" d="M508.93,-275.21C508.9,-262.18 507.09,-236.66 494.68,-220 483.68,-205.22 466.23,-194.7 450.44,-187.61"/>
<polygon fill="midnightblue" stroke="midnightblue" points="451.47,-184.25 440.89,-183.64 448.78,-190.71 451.47,-184.25"/>
</g>
<!-- Node18&#45;&gt;Node15 -->
<g id="edge19" class="edge">
<title>Node18&#45;&gt;Node15</title>
<path fill="none" stroke="midnightblue" d="M519.01,-275.45C529.4,-267.36 545.63,-254.7 558.23,-244.88"/>
<polygon fill="midnightblue" stroke="midnightblue" points="560.52,-247.53 566.26,-238.63 556.22,-242.01 560.52,-247.53"/>
</g>
<!-- Node20 -->
<g id="node20" class="node">
<title>Node20</title>
<g id="a_node20"><a xlink:href="../../d2/d68/_cmd_chr_8h.html" target="_top" xlink:title=" ">
<polygon fill="white" stroke="black" points="283.17,-220.5 283.17,-238.5 344.19,-238.5 344.19,-220.5 283.17,-220.5"/>
<text text-anchor="middle" x="313.68" y="-226.5" font-family="Helvetica,sans-Serif" font-size="10.00">CmdChr.h</text>
</a>
</g>
</g>
<!-- Node19&#45;&gt;Node20 -->
<g id="edge21" class="edge">
<title>Node19&#45;&gt;Node20</title>
<path fill="none" stroke="midnightblue" d="M337.31,-275.22C333.42,-267.86 327.62,-256.88 322.74,-247.64"/>
<polygon fill="midnightblue" stroke="midnightblue" points="325.7,-245.76 317.94,-238.55 319.51,-249.03 325.7,-245.76"/>
</g>
<!-- Node23 -->
<g id="node23" class="node">
<title>Node23</title>
<g id="a_node23"><a xlink:title=" ">
<polygon fill="white" stroke="#bfbfbf" points="362.18,-220.5 362.18,-238.5 391.18,-238.5 391.18,-220.5 362.18,-220.5"/>
<text text-anchor="middle" x="376.3" y="-226.5" font-family="Helvetica,sans-Serif" font-size="10.00">list</text>
</a>
</g>
</g>
<!-- Node19&#45;&gt;Node23 -->
<g id="edge26" class="edge">
<title>Node19&#45;&gt;Node23</title>
<path fill="none" stroke="midnightblue" d="M347.15,-275.22C352.11,-267.71 359.57,-256.41 365.75,-247.05"/>
<polygon fill="midnightblue" stroke="midnightblue" points="368.78,-248.82 371.37,-238.55 362.94,-244.97 368.78,-248.82"/>
</g>
<!-- Node20&#45;&gt;Node8 -->
<g id="edge25" class="edge">
<title>Node20&#45;&gt;Node8</title>
<path fill="none" stroke="midnightblue" d="M329.02,-220.45C345.26,-211.93 371.13,-198.35 390.2,-188.35"/>
<polygon fill="midnightblue" stroke="midnightblue" points="391.97,-191.37 399.2,-183.63 388.72,-185.17 391.97,-191.37"/>
</g>
<!-- Node21 -->
<g id="node21" class="node">
<title>Node21</title>
<g id="a_node21"><a xlink:href="../../d8/d47/codepoint_8h.html" target="_top" xlink:title=" ">
<polygon fill="white" stroke="black" points="282.83,-165.5 282.83,-183.5 350.54,-183.5 350.54,-165.5 282.83,-165.5"/>
<text text-anchor="middle" x="316.68" y="-171.5" font-family="Helvetica,sans-Serif" font-size="10.00">codepoint.h</text>
</a>
</g>
</g>
<!-- Node20&#45;&gt;Node21 -->
<g id="edge22" class="edge">
<title>Node20&#45;&gt;Node21</title>
<path fill="none" stroke="midnightblue" d="M314.15,-220.22C314.55,-213.18 315.14,-202.81 315.65,-193.83"/>
<polygon fill="midnightblue" stroke="midnightblue" points="319.16,-193.73 316.23,-183.55 312.17,-193.34 319.16,-193.73"/>
</g>
<!-- Node21&#45;&gt;Node10 -->
<g id="edge23" class="edge">
<title>Node21&#45;&gt;Node10</title>
<path fill="none" stroke="midnightblue" d="M320.37,-165.38C328.28,-147.95 347.04,-106.59 357.78,-82.92"/>
<polygon fill="midnightblue" stroke="midnightblue" points="361.01,-84.26 361.96,-73.71 354.64,-81.37 361.01,-84.26"/>
</g>
<!-- Node21&#45;&gt;Node22 -->
<g id="edge24" class="edge">
<title>Node21&#45;&gt;Node22</title>
<path fill="none" stroke="midnightblue" d="M309.5,-165.22C302.77,-157.47 292.56,-145.7 284.29,-136.18"/>
<polygon fill="midnightblue" stroke="midnightblue" points="286.87,-133.81 277.67,-128.55 281.58,-138.4 286.87,-133.81"/>
</g>
<!-- Node28&#45;&gt;Node5 -->
<g id="edge34" class="edge">
<title>Node28&#45;&gt;Node5</title>
<path fill="none" stroke="midnightblue" d="M337.47,-495.22C338.14,-488.1 339.13,-477.58 339.98,-468.53"/>
<polygon fill="midnightblue" stroke="midnightblue" points="343.47,-468.83 340.93,-458.55 336.5,-468.18 343.47,-468.83"/>
</g>
<!-- Node29&#45;&gt;Node27 -->
<g id="edge36" class="edge">
<title>Node29&#45;&gt;Node27</title>
<path fill="none" stroke="midnightblue" d="M30.33,-605.27C31.71,-592.33 35.97,-566.93 48.68,-550 58.98,-536.3 74.83,-525.65 88.74,-518.21"/>
<polygon fill="midnightblue" stroke="midnightblue" points="90.61,-521.19 97.97,-513.57 87.46,-514.93 90.61,-521.19"/>
</g>
<!-- Node30 -->
<g id="node30" class="node">
<title>Node30</title>
<g id="a_node30"><a xlink:title=" ">
<polygon fill="white" stroke="#bfbfbf" points="57.51,-550.5 57.51,-568.5 111.86,-568.5 111.86,-550.5 57.51,-550.5"/>
<text text-anchor="middle" x="84.68" y="-556.5" font-family="Helvetica,sans-Serif" font-size="10.00">iostream</text>
</a>
</g>
</g>
<!-- Node29&#45;&gt;Node30 -->
<g id="edge37" class="edge">
<title>Node29&#45;&gt;Node30</title>
<path fill="none" stroke="midnightblue" d="M38.28,-605.22C46.48,-597.32 59.03,-585.22 69.01,-575.61"/>
<polygon fill="midnightblue" stroke="midnightblue" points="71.56,-578.01 76.33,-568.55 66.7,-572.97 71.56,-578.01"/>
</g>
<!-- Node31&#45;&gt;Node4 -->
<g id="edge39" class="edge">
<title>Node31&#45;&gt;Node4</title>
<path fill="none" stroke="midnightblue" d="M115.81,-605.22C123.49,-597.39 135.19,-585.46 144.58,-575.89"/>
<polygon fill="midnightblue" stroke="midnightblue" points="147.28,-578.14 151.79,-568.55 142.29,-573.24 147.28,-578.14"/>
</g>
<!-- Node32&#45;&gt;Node4 -->
<g id="edge51" class="edge">
<title>Node32&#45;&gt;Node4</title>
<path fill="none" stroke="midnightblue" d="M447.53,-667.65C381.12,-665.2 224.91,-656.08 184.68,-624 170.94,-613.04 164.73,-593.46 161.94,-578.93"/>
<polygon fill="midnightblue" stroke="midnightblue" points="165.33,-577.97 160.35,-568.62 158.41,-579.04 165.33,-577.97"/>
</g>
<!-- Node33 -->
<g id="node33" class="node">
<title>Node33</title>
<g id="a_node33"><a xlink:href="../../d3/d6b/txcond_8h.html" target="_top" xlink:title=" ">
<polygon fill="white" stroke="black" points="490.78,-495.5 490.78,-513.5 544.59,-513.5 544.59,-495.5 490.78,-495.5"/>
<text text-anchor="middle" x="517.68" y="-501.5" font-family="Helvetica,sans-Serif" font-size="10.00">txcond.h</text>
</a>
</g>
</g>
<!-- Node32&#45;&gt;Node33 -->
<g id="edge41" class="edge">
<title>Node32&#45;&gt;Node33</title>
<path fill="none" stroke="midnightblue" d="M479.72,-660.19C485.93,-634.9 504.69,-558.45 513.29,-523.4"/>
<polygon fill="midnightblue" stroke="midnightblue" points="516.71,-524.14 515.7,-513.6 509.92,-522.47 516.71,-524.14"/>
</g>
<!-- Node34 -->
<g id="node34" class="node">
<title>Node34</title>
<g id="a_node34"><a xlink:href="../../d7/d4d/txfonts_8h.html" target="_top" xlink:title=" ">
<polygon fill="white" stroke="black" points="309.79,-550.5 309.79,-568.5 363.58,-568.5 363.58,-550.5 309.79,-550.5"/>
<text text-anchor="middle" x="336.68" y="-556.5" font-family="Helvetica,sans-Serif" font-size="10.00">txfonts.h</text>
</a>
</g>
</g>
<!-- Node32&#45;&gt;Node34 -->
<g id="edge43" class="edge">
<title>Node32&#45;&gt;Node34</title>
<path fill="none" stroke="midnightblue" d="M464.97,-660.32C451.68,-651.64 430.35,-637.38 412.68,-624 391.64,-608.06 368.49,-588.39 353.34,-575.21"/>
<polygon fill="midnightblue" stroke="midnightblue" points="355.64,-572.57 345.81,-568.61 351.03,-577.84 355.64,-572.57"/>
</g>
<!-- Node35 -->
<g id="node35" class="node">
<title>Node35</title>
<g id="a_node35"><a xlink:href="../../d7/d7e/txhash_8h.html" target="_top" xlink:title=" ">
<polygon fill="white" stroke="black" points="311.78,-605.5 311.78,-623.5 365.59,-623.5 365.59,-605.5 311.78,-605.5"/>
<text text-anchor="middle" x="338.68" y="-611.5" font-family="Helvetica,sans-Serif" font-size="10.00">txhash.h</text>
</a>
</g>
</g>
<!-- Node32&#45;&gt;Node35 -->
<g id="edge45" class="edge">
<title>Node32&#45;&gt;Node35</title>
<path fill="none" stroke="midnightblue" d="M456.57,-660.45C433.41,-651.62 396,-637.35 369.55,-627.27"/>
<polygon fill="midnightblue" stroke="midnightblue" points="370.59,-623.92 359.99,-623.63 368.09,-630.46 370.59,-623.92"/>
</g>
<!-- Node37 -->
<g id="node37" class="node">
<title>Node37</title>
<g id="a_node37"><a xlink:href="../../de/d7c/tximage_8h.html" target="_top" xlink:title=" ">
<polygon fill="white" stroke="black" points="585.01,-330.5 585.01,-348.5 644.36,-348.5 644.36,-330.5 585.01,-330.5"/>
<text text-anchor="middle" x="614.68" y="-336.5" font-family="Helvetica,sans-Serif" font-size="10.00">tximage.h</text>
</a>
</g>
</g>
<!-- Node32&#45;&gt;Node37 -->
<g id="edge48" class="edge">
<title>Node32&#45;&gt;Node37</title>
<path fill="none" stroke="midnightblue" d="M507.73,-664.85C534.64,-660.02 573.33,-648.97 596.68,-624 616.8,-602.48 615.68,-589.96 615.68,-560.5 615.68,-560.5 615.68,-560.5 615.68,-448.5 615.68,-417.02 615.25,-380.37 614.96,-358.88"/>
<polygon fill="midnightblue" stroke="midnightblue" points="618.45,-358.58 614.81,-348.63 611.46,-358.68 618.45,-358.58"/>
</g>
<!-- Node38 -->
<g id="node38" class="node">
<title>Node38</title>
<g id="a_node38"><a xlink:href="../../dc/d65/txstack_8h.html" target="_top" xlink:title=" ">
<polygon fill="white" stroke="black" points="421.96,-605.5 421.96,-623.5 477.41,-623.5 477.41,-605.5 421.96,-605.5"/>
<text text-anchor="middle" x="449.68" y="-611.5" font-family="Helvetica,sans-Serif" font-size="10.00">txstack.h</text>
</a>
</g>
</g>
<!-- Node32&#45;&gt;Node38 -->
<g id="edge52" class="edge">
<title>Node32&#45;&gt;Node38</title>
<path fill="none" stroke="midnightblue" d="M473.31,-660.22C469.42,-652.86 463.62,-641.88 458.74,-632.64"/>
<polygon fill="midnightblue" stroke="midnightblue" points="461.7,-630.76 453.94,-623.55 455.51,-634.03 461.7,-630.76"/>
</g>
<!-- Node41 -->
<g id="node41" class="node">
<title>Node41</title>
<g id="a_node41"><a xlink:href="../../d8/d3d/txstats_8h.html" target="_top" xlink:title=" ">
<polygon fill="white" stroke="black" points="534.07,-605.5 534.07,-623.5 587.3,-623.5 587.3,-605.5 534.07,-605.5"/>
<text text-anchor="middle" x="560.68" y="-611.5" font-family="Helvetica,sans-Serif" font-size="10.00">txstats.h</text>
</a>
</g>
</g>
<!-- Node32&#45;&gt;Node41 -->
<g id="edge56" class="edge">
<title>Node32&#45;&gt;Node41</title>
<path fill="none" stroke="midnightblue" d="M490.29,-660.45C503.33,-652.12 523.93,-638.97 539.48,-629.04"/>
<polygon fill="midnightblue" stroke="midnightblue" points="541.42,-631.96 547.96,-623.63 537.65,-626.06 541.42,-631.96"/>
</g>
<!-- Node33&#45;&gt;Node26 -->
<g id="edge42" class="edge">
<title>Node33&#45;&gt;Node26</title>
<path fill="none" stroke="midnightblue" d="M517.46,-495.38C516.98,-478.18 515.86,-437.7 515.2,-413.89"/>
<polygon fill="midnightblue" stroke="midnightblue" points="518.69,-413.61 514.91,-403.71 511.69,-413.81 518.69,-413.61"/>
</g>
<!-- Node34&#45;&gt;Node28 -->
<g id="edge44" class="edge">
<title>Node34&#45;&gt;Node28</title>
<path fill="none" stroke="midnightblue" d="M336.68,-550.22C336.68,-543.18 336.68,-532.81 336.68,-523.83"/>
<polygon fill="midnightblue" stroke="midnightblue" points="340.18,-523.55 336.68,-513.55 333.18,-523.55 340.18,-523.55"/>
</g>
<!-- Node36 -->
<g id="node36" class="node">
<title>Node36</title>
<g id="a_node36"><a xlink:href="../../d3/d01/txeqtb_8h.html" target="_top" xlink:title=" ">
<polygon fill="white" stroke="black" points="239.89,-550.5 239.89,-568.5 291.48,-568.5 291.48,-550.5 239.89,-550.5"/>
<text text-anchor="middle" x="265.68" y="-556.5" font-family="Helvetica,sans-Serif" font-size="10.00">txeqtb.h</text>
</a>
</g>
</g>
<!-- Node35&#45;&gt;Node36 -->
<g id="edge46" class="edge">
<title>Node35&#45;&gt;Node36</title>
<path fill="none" stroke="midnightblue" d="M327.6,-605.45C316.34,-597.28 298.69,-584.46 285.1,-574.6"/>
<polygon fill="midnightblue" stroke="midnightblue" points="287.02,-571.67 276.88,-568.63 282.91,-577.33 287.02,-571.67"/>
</g>
<!-- Node36&#45;&gt;Node28 -->
<g id="edge47" class="edge">
<title>Node36&#45;&gt;Node28</title>
<path fill="none" stroke="midnightblue" d="M276.47,-550.45C287.31,-542.36 304.26,-529.7 317.42,-519.88"/>
<polygon fill="midnightblue" stroke="midnightblue" points="319.88,-522.41 325.8,-513.63 315.69,-516.8 319.88,-522.41"/>
</g>
<!-- Node37&#45;&gt;Node15 -->
<g id="edge49" class="edge">
<title>Node37&#45;&gt;Node15</title>
<path fill="none" stroke="midnightblue" d="M611.83,-330.38C605.72,-313.03 591.27,-271.96 582.93,-248.24"/>
<polygon fill="midnightblue" stroke="midnightblue" points="586.19,-246.98 579.57,-238.71 579.59,-249.31 586.19,-246.98"/>
</g>
<!-- Node37&#45;&gt;Node24 -->
<g id="edge50" class="edge">
<title>Node37&#45;&gt;Node24</title>
<path fill="none" stroke="midnightblue" d="M622.97,-330.22C630.79,-322.39 642.72,-310.46 652.29,-300.89"/>
<polygon fill="midnightblue" stroke="midnightblue" points="655.04,-303.1 659.64,-293.55 650.09,-298.15 655.04,-303.1"/>
</g>
<!-- Node39 -->
<g id="node39" class="node">
<title>Node39</title>
<g id="a_node39"><a xlink:href="../../d4/da4/txatt_8h.html" target="_top" xlink:title=" ">
<polygon fill="white" stroke="black" points="382.07,-550.5 382.07,-568.5 425.3,-568.5 425.3,-550.5 382.07,-550.5"/>
<text text-anchor="middle" x="403.68" y="-556.5" font-family="Helvetica,sans-Serif" font-size="10.00">txatt.h</text>
</a>
</g>
</g>
<!-- Node38&#45;&gt;Node39 -->
<g id="edge53" class="edge">
<title>Node38&#45;&gt;Node39</title>
<path fill="none" stroke="midnightblue" d="M442.5,-605.22C435.77,-597.47 425.56,-585.7 417.29,-576.18"/>
<polygon fill="midnightblue" stroke="midnightblue" points="419.87,-573.81 410.67,-568.55 414.58,-578.4 419.87,-573.81"/>
</g>
<!-- Node40 -->
<g id="node40" class="node">
<title>Node40</title>
<g id="a_node40"><a xlink:href="../../d1/d43/txxml_8h.html" target="_top" xlink:title=" ">
<polygon fill="white" stroke="black" points="442.85,-550.5 442.85,-568.5 490.52,-568.5 490.52,-550.5 442.85,-550.5"/>
<text text-anchor="middle" x="466.68" y="-556.5" font-family="Helvetica,sans-Serif" font-size="10.00">txxml.h</text>
</a>
</g>
</g>
<!-- Node38&#45;&gt;Node40 -->
<g id="edge55" class="edge">
<title>Node38&#45;&gt;Node40</title>
<path fill="none" stroke="midnightblue" d="M452.34,-605.22C454.65,-598.02 458.07,-587.35 461,-578.23"/>
<polygon fill="midnightblue" stroke="midnightblue" points="464.38,-579.14 464.1,-568.55 457.72,-577 464.38,-579.14"/>
</g>
<!-- Node39&#45;&gt;Node28 -->
<g id="edge54" class="edge">
<title>Node39&#45;&gt;Node28</title>
<path fill="none" stroke="midnightblue" d="M393.51,-550.45C383.28,-542.36 367.28,-529.7 354.87,-519.88"/>
<polygon fill="midnightblue" stroke="midnightblue" points="356.97,-517.08 346.96,-513.63 352.63,-522.57 356.97,-517.08"/>
</g>
<!-- Node42&#45;&gt;Node24 -->
<g id="edge58" class="edge">
<title>Node42&#45;&gt;Node24</title>
<path fill="none" stroke="midnightblue" d="M670.53,-440.19C670.07,-415.01 668.67,-339.11 668.02,-303.86"/>
<polygon fill="midnightblue" stroke="midnightblue" points="671.52,-303.53 667.83,-293.6 664.52,-303.66 671.52,-303.53"/>
</g>
<!-- Node43&#45;&gt;Node24 -->
<g id="edge61" class="edge">
<title>Node43&#45;&gt;Node24</title>
<path fill="none" stroke="midnightblue" d="M719.43,-660.44C728.01,-652.09 740.91,-638.27 748.68,-624 762.78,-598.13 767.68,-589.96 767.68,-560.5 767.68,-560.5 767.68,-560.5 767.68,-393.5 767.68,-349.69 722.83,-316.12 693.21,-298.72"/>
<polygon fill="midnightblue" stroke="midnightblue" points="694.63,-295.51 684.2,-293.65 691.19,-301.61 694.63,-295.51"/>
</g>
<!-- Node44 -->
<g id="node44" class="node">
<title>Node44</title>
<g id="a_node44"><a xlink:title=" ">
<polygon fill="white" stroke="#bfbfbf" points="682.12,-605.5 682.12,-623.5 739.25,-623.5 739.25,-605.5 682.12,-605.5"/>
<text text-anchor="middle" x="710.68" y="-611.5" font-family="Helvetica,sans-Serif" font-size="10.00">algorithm</text>
</a>
</g>
</g>
<!-- Node43&#45;&gt;Node44 -->
<g id="edge60" class="edge">
<title>Node43&#45;&gt;Node44</title>
<path fill="none" stroke="midnightblue" d="M710.68,-660.22C710.68,-653.18 710.68,-642.81 710.68,-633.83"/>
<polygon fill="midnightblue" stroke="midnightblue" points="714.18,-633.55 710.68,-623.55 707.18,-633.55 714.18,-633.55"/>
</g>
</g>
</svg>
