<?xml version="1.0" encoding="UTF-8" standalone="no"?>
<!DOCTYPE svg PUBLIC "-//W3C//DTD SVG 1.1//EN"
 "http://www.w3.org/Graphics/SVG/1.1/DTD/svg11.dtd">
<!-- Generated by graphviz version 2.42.3 (20191010.1750)
 -->
<!-- Title: WordList Pages: 1 -->
<svg width="122pt" height="158pt"
 viewBox="0.00 0.00 122.37 158.00" xmlns="http://www.w3.org/2000/svg" xmlns:xlink="http://www.w3.org/1999/xlink">
<g id="graph0" class="graph" transform="scale(1 1) rotate(0) translate(4 154)">
<title>WordList</title>
<!-- Node1 -->
<g id="node1" class="node">
<title>Node1</title>
<g id="a_node1"><a xlink:title=" ">
<polygon fill="#bfbfbf" stroke="black" points="19.41,-0.5 19.41,-18.5 74.69,-18.5 74.69,-0.5 19.41,-0.5"/>
<text text-anchor="middle" x="47.05" y="-6.5" font-family="Helvetica,sans-Serif" font-size="10.00">WordList</text>
</a>
</g>
</g>
<!-- Node1&#45;&gt;Node1 -->
<g id="edge1" class="edge">
<title>Node1&#45;&gt;Node1</title>
<path fill="none" stroke="#9a32cd" stroke-dasharray="5,2" d="M85.3,-14.63C89.77,-13.69 92.69,-11.98 92.69,-9.5 92.69,-5.44 84.84,-3.44 75.12,-3.5"/>
<polygon fill="#9a32cd" stroke="#9a32cd" points="84.79,-11.16 75.12,-15.5 85.39,-18.13 84.79,-11.16"/>
<text text-anchor="middle" x="103.53" y="-6.5" font-family="Helvetica,sans-Serif" font-size="10.00"> next</text>
</g>
<!-- Node2 -->
<g id="node2" class="node">
<title>Node2</title>
<g id="a_node2"><a xlink:title="STL class.">
<polygon fill="none" stroke="#bfbfbf" points="17.37,-65.5 17.37,-83.5 76.72,-83.5 76.72,-65.5 17.37,-65.5"/>
<text text-anchor="middle" x="47.05" y="-71.5" font-family="Helvetica,sans-Serif" font-size="10.00">std::string</text>
</a>
</g>
</g>
<!-- Node2&#45;&gt;Node1 -->
<g id="edge2" class="edge">
<title>Node2&#45;&gt;Node1</title>
<path fill="none" stroke="#9a32cd" stroke-dasharray="5,2" d="M47.05,-54.91C47.05,-42.81 47.05,-27.65 47.05,-18.54"/>
<polygon fill="#9a32cd" stroke="#9a32cd" points="43.55,-55.26 47.05,-65.26 50.55,-55.26 43.55,-55.26"/>
<text text-anchor="middle" x="60.94" y="-39" font-family="Helvetica,sans-Serif" font-size="10.00"> name</text>
</g>
<!-- Node3 -->
<g id="node3" class="node">
<title>Node3</title>
<g id="a_node3"><a xlink:title="STL class.">
<polygon fill="none" stroke="#bfbfbf" points="0,-121.5 0,-149.5 94.1,-149.5 94.1,-121.5 0,-121.5"/>
<text text-anchor="start" x="8" y="-137.5" font-family="Helvetica,sans-Serif" font-size="10.00">std::basic_string&lt;</text>
<text text-anchor="middle" x="47.05" y="-127.5" font-family="Helvetica,sans-Serif" font-size="10.00"> char &gt;</text>
</a>
</g>
</g>
<!-- Node3&#45;&gt;Node2 -->
<g id="edge3" class="edge">
<title>Node3&#45;&gt;Node2</title>
<path fill="none" stroke="midnightblue" d="M47.05,-111.39C47.05,-101.59 47.05,-90.82 47.05,-83.65"/>
<polygon fill="midnightblue" stroke="midnightblue" points="43.55,-111.41 47.05,-121.41 50.55,-111.41 43.55,-111.41"/>
</g>
</g>
</svg>
