<?xml version="1.0" encoding="UTF-8" standalone="no"?>
<!DOCTYPE svg PUBLIC "-//W3C//DTD SVG 1.1//EN"
 "http://www.w3.org/Graphics/SVG/1.1/DTD/svg11.dtd">
<!-- Generated by graphviz version 2.42.3 (20191010.1750)
 -->
<!-- Title: txfp.cpp Pages: 1 -->
<svg width="874pt" height="742pt"
 viewBox="0.00 0.00 873.62 742.00" xmlns="http://www.w3.org/2000/svg" xmlns:xlink="http://www.w3.org/1999/xlink">
<g id="graph0" class="graph" transform="scale(1 1) rotate(0) translate(4 738)">
<title>txfp.cpp</title>
<!-- Node1 -->
<g id="node1" class="node">
<title>Node1</title>
<g id="a_node1"><a xlink:title=" ">
<polygon fill="#bfbfbf" stroke="black" points="312.49,-715.5 312.49,-733.5 363.51,-733.5 363.51,-715.5 312.49,-715.5"/>
<text text-anchor="middle" x="338" y="-721.5" font-family="Helvetica,sans-Serif" font-size="10.00">txfp.cpp</text>
</a>
</g>
</g>
<!-- Node2 -->
<g id="node2" class="node">
<title>Node2</title>
<g id="a_node2"><a xlink:href="../../d0/de6/txfp_8h.html" target="_top" xlink:title=" ">
<polygon fill="none" stroke="black" points="326.77,-330.5 326.77,-348.5 367.23,-348.5 367.23,-330.5 326.77,-330.5"/>
<text text-anchor="middle" x="347" y="-336.5" font-family="Helvetica,sans-Serif" font-size="10.00">txfp.h</text>
</a>
</g>
</g>
<!-- Node1&#45;&gt;Node2 -->
<g id="edge1" class="edge">
<title>Node1&#45;&gt;Node2</title>
<path fill="none" stroke="midnightblue" d="M312.32,-720.91C233.44,-712.23 0,-681.03 0,-615.5 0,-615.5 0,-615.5 0,-448.5 0,-382.47 231.94,-352.22 316.57,-343.38"/>
<polygon fill="midnightblue" stroke="midnightblue" points="316.99,-346.85 326.59,-342.36 316.29,-339.89 316.99,-346.85"/>
</g>
<!-- Node15 -->
<g id="node15" class="node">
<title>Node15</title>
<g id="a_node15"><a xlink:href="../../d7/d79/txinline_8h.html" target="_top" xlink:title=" ">
<polygon fill="none" stroke="black" points="176.27,-660.5 176.27,-678.5 231.73,-678.5 231.73,-660.5 176.27,-660.5"/>
<text text-anchor="middle" x="204" y="-666.5" font-family="Helvetica,sans-Serif" font-size="10.00">txinline.h</text>
</a>
</g>
</g>
<!-- Node1&#45;&gt;Node15 -->
<g id="edge15" class="edge">
<title>Node1&#45;&gt;Node15</title>
<path fill="none" stroke="midnightblue" d="M317.65,-715.45C295.41,-706.66 259.57,-692.48 234.09,-682.4"/>
<polygon fill="midnightblue" stroke="midnightblue" points="235.13,-679.05 224.54,-678.63 232.55,-685.56 235.13,-679.05"/>
</g>
<!-- Node32 -->
<g id="node32" class="node">
<title>Node32</title>
<g id="a_node32"><a xlink:href="../../d2/d1b/txparser_8h.html" target="_top" xlink:title=" ">
<polygon fill="none" stroke="black" points="402.04,-660.5 402.04,-678.5 461.96,-678.5 461.96,-660.5 402.04,-660.5"/>
<text text-anchor="middle" x="432" y="-666.5" font-family="Helvetica,sans-Serif" font-size="10.00">txparser.h</text>
</a>
</g>
</g>
<!-- Node1&#45;&gt;Node32 -->
<g id="edge41" class="edge">
<title>Node1&#45;&gt;Node32</title>
<path fill="none" stroke="midnightblue" d="M352.28,-715.45C367.18,-707.05 390.81,-693.72 408.48,-683.76"/>
<polygon fill="midnightblue" stroke="midnightblue" points="410.6,-686.59 417.59,-678.63 407.16,-680.49 410.6,-686.59"/>
</g>
<!-- Node43 -->
<g id="node43" class="node">
<title>Node43</title>
<g id="a_node43"><a xlink:title=" ">
<polygon fill="none" stroke="#bfbfbf" points="480.33,-660.5 480.33,-678.5 549.67,-678.5 549.67,-660.5 480.33,-660.5"/>
<text text-anchor="middle" x="515" y="-666.5" font-family="Helvetica,sans-Serif" font-size="10.00">fmt/format.h</text>
</a>
</g>
</g>
<!-- Node1&#45;&gt;Node43 -->
<g id="edge68" class="edge">
<title>Node1&#45;&gt;Node43</title>
<path fill="none" stroke="midnightblue" d="M363.74,-715.79C393.93,-706.75 444.21,-691.7 478.44,-681.45"/>
<polygon fill="midnightblue" stroke="midnightblue" points="479.5,-684.79 488.07,-678.56 477.49,-678.08 479.5,-684.79"/>
</g>
<!-- Node3 -->
<g id="node3" class="node">
<title>Node3</title>
<g id="a_node3"><a xlink:href="../../dd/dcd/_token_8h.html" target="_top" xlink:title=" ">
<polygon fill="none" stroke="black" points="375.04,-275.5 375.04,-293.5 454.96,-293.5 454.96,-275.5 375.04,-275.5"/>
<text text-anchor="middle" x="415" y="-281.5" font-family="Helvetica,sans-Serif" font-size="10.00">tralics/Token.h</text>
</a>
</g>
</g>
<!-- Node2&#45;&gt;Node3 -->
<g id="edge2" class="edge">
<title>Node2&#45;&gt;Node3</title>
<path fill="none" stroke="midnightblue" d="M357.33,-330.45C367.71,-322.36 383.95,-309.7 396.55,-299.88"/>
<polygon fill="midnightblue" stroke="midnightblue" points="398.84,-302.53 404.58,-293.63 394.54,-297.01 398.84,-302.53"/>
</g>
<!-- Node14 -->
<g id="node14" class="node">
<title>Node14</title>
<g id="a_node14"><a xlink:title=" ">
<polygon fill="none" stroke="#bfbfbf" points="336.61,-220.5 336.61,-238.5 375.39,-238.5 375.39,-220.5 336.61,-220.5"/>
<text text-anchor="middle" x="356" y="-226.5" font-family="Helvetica,sans-Serif" font-size="10.00">array</text>
</a>
</g>
</g>
<!-- Node2&#45;&gt;Node14 -->
<g id="edge14" class="edge">
<title>Node2&#45;&gt;Node14</title>
<path fill="none" stroke="midnightblue" d="M347.68,-330.38C349.11,-313.18 352.48,-272.7 354.47,-248.89"/>
<polygon fill="midnightblue" stroke="midnightblue" points="357.97,-248.97 355.32,-238.71 351,-248.39 357.97,-248.97"/>
</g>
<!-- Node4 -->
<g id="node4" class="node">
<title>Node4</title>
<g id="a_node4"><a xlink:href="../../d2/d68/_cmd_chr_8h.html" target="_top" xlink:title=" ">
<polygon fill="none" stroke="black" points="393.49,-220.5 393.49,-238.5 454.51,-238.5 454.51,-220.5 393.49,-220.5"/>
<text text-anchor="middle" x="424" y="-226.5" font-family="Helvetica,sans-Serif" font-size="10.00">CmdChr.h</text>
</a>
</g>
</g>
<!-- Node3&#45;&gt;Node4 -->
<g id="edge3" class="edge">
<title>Node3&#45;&gt;Node4</title>
<path fill="none" stroke="midnightblue" d="M416.41,-275.22C417.62,-268.1 419.4,-257.58 420.94,-248.53"/>
<polygon fill="midnightblue" stroke="midnightblue" points="424.41,-248.99 422.63,-238.55 417.51,-247.82 424.41,-248.99"/>
</g>
<!-- Node13 -->
<g id="node13" class="node">
<title>Node13</title>
<g id="a_node13"><a xlink:title=" ">
<polygon fill="none" stroke="#bfbfbf" points="289.5,-220.5 289.5,-238.5 318.5,-238.5 318.5,-220.5 289.5,-220.5"/>
<text text-anchor="middle" x="303.61" y="-226.5" font-family="Helvetica,sans-Serif" font-size="10.00">list</text>
</a>
</g>
</g>
<!-- Node3&#45;&gt;Node13 -->
<g id="edge13" class="edge">
<title>Node3&#45;&gt;Node13</title>
<path fill="none" stroke="midnightblue" d="M398.14,-275.45C379.4,-266.5 348.98,-251.98 327.81,-241.87"/>
<polygon fill="midnightblue" stroke="midnightblue" points="329.07,-238.59 318.53,-237.44 326.05,-244.91 329.07,-238.59"/>
</g>
<!-- Node5 -->
<g id="node5" class="node">
<title>Node5</title>
<g id="a_node5"><a xlink:href="../../d8/d47/codepoint_8h.html" target="_top" xlink:title=" ">
<polygon fill="none" stroke="black" points="390.15,-165.5 390.15,-183.5 457.85,-183.5 457.85,-165.5 390.15,-165.5"/>
<text text-anchor="middle" x="424" y="-171.5" font-family="Helvetica,sans-Serif" font-size="10.00">codepoint.h</text>
</a>
</g>
</g>
<!-- Node4&#45;&gt;Node5 -->
<g id="edge4" class="edge">
<title>Node4&#45;&gt;Node5</title>
<path fill="none" stroke="midnightblue" d="M424,-220.22C424,-213.18 424,-202.81 424,-193.83"/>
<polygon fill="midnightblue" stroke="midnightblue" points="427.5,-193.55 424,-183.55 420.5,-193.55 427.5,-193.55"/>
</g>
<!-- Node11 -->
<g id="node11" class="node">
<title>Node11</title>
<g id="a_node11"><a xlink:href="../../d0/d0b/enums_8h.html" target="_top" xlink:title=" ">
<polygon fill="none" stroke="black" points="496.82,-165.5 496.82,-183.5 551.18,-183.5 551.18,-165.5 496.82,-165.5"/>
<text text-anchor="middle" x="524" y="-171.5" font-family="Helvetica,sans-Serif" font-size="10.00">enums.h</text>
</a>
</g>
</g>
<!-- Node4&#45;&gt;Node11 -->
<g id="edge10" class="edge">
<title>Node4&#45;&gt;Node11</title>
<path fill="none" stroke="midnightblue" d="M439.19,-220.45C455.27,-211.93 480.88,-198.35 499.76,-188.35"/>
<polygon fill="midnightblue" stroke="midnightblue" points="501.47,-191.4 508.67,-183.63 498.19,-185.22 501.47,-191.4"/>
</g>
<!-- Node6 -->
<g id="node6" class="node">
<title>Node6</title>
<g id="a_node6"><a xlink:href="../../d9/d49/types_8h.html" target="_top" xlink:title=" ">
<polygon fill="none" stroke="black" points="448.88,-55.5 448.88,-73.5 497.12,-73.5 497.12,-55.5 448.88,-55.5"/>
<text text-anchor="middle" x="473" y="-61.5" font-family="Helvetica,sans-Serif" font-size="10.00">types.h</text>
</a>
</g>
</g>
<!-- Node5&#45;&gt;Node6 -->
<g id="edge5" class="edge">
<title>Node5&#45;&gt;Node6</title>
<path fill="none" stroke="midnightblue" d="M423.1,-165.24C422.1,-152.68 421.58,-128.31 430,-110 435.36,-98.34 445.08,-87.88 453.92,-80.03"/>
<polygon fill="midnightblue" stroke="midnightblue" points="456.2,-82.68 461.65,-73.6 451.72,-77.31 456.2,-82.68"/>
</g>
<!-- Node10 -->
<g id="node10" class="node">
<title>Node10</title>
<g id="a_node10"><a xlink:title=" ">
<polygon fill="none" stroke="#bfbfbf" points="439.49,-110.5 439.49,-128.5 490.51,-128.5 490.51,-110.5 439.49,-110.5"/>
<text text-anchor="middle" x="465" y="-116.5" font-family="Helvetica,sans-Serif" font-size="10.00">optional</text>
</a>
</g>
</g>
<!-- Node5&#45;&gt;Node10 -->
<g id="edge9" class="edge">
<title>Node5&#45;&gt;Node10</title>
<path fill="none" stroke="midnightblue" d="M430.41,-165.22C436.34,-157.55 445.32,-145.94 452.65,-136.47"/>
<polygon fill="midnightblue" stroke="midnightblue" points="455.42,-138.6 458.77,-128.55 449.89,-134.32 455.42,-138.6"/>
</g>
<!-- Node7 -->
<g id="node7" class="node">
<title>Node7</title>
<g id="a_node7"><a xlink:title=" ">
<polygon fill="none" stroke="#bfbfbf" points="382.88,-0.5 382.88,-18.5 431.12,-18.5 431.12,-0.5 382.88,-0.5"/>
<text text-anchor="middle" x="407" y="-6.5" font-family="Helvetica,sans-Serif" font-size="10.00">cassert</text>
</a>
</g>
</g>
<!-- Node6&#45;&gt;Node7 -->
<g id="edge6" class="edge">
<title>Node6&#45;&gt;Node7</title>
<path fill="none" stroke="midnightblue" d="M462.98,-55.45C452.99,-47.43 437.44,-34.95 425.26,-25.17"/>
<polygon fill="midnightblue" stroke="midnightblue" points="427.11,-22.16 417.12,-18.63 422.72,-27.62 427.11,-22.16"/>
</g>
<!-- Node8 -->
<g id="node8" class="node">
<title>Node8</title>
<g id="a_node8"><a xlink:title=" ">
<polygon fill="none" stroke="#bfbfbf" points="448.88,-0.5 448.88,-18.5 497.12,-18.5 497.12,-0.5 448.88,-0.5"/>
<text text-anchor="middle" x="473" y="-6.5" font-family="Helvetica,sans-Serif" font-size="10.00">cstddef</text>
</a>
</g>
</g>
<!-- Node6&#45;&gt;Node8 -->
<g id="edge7" class="edge">
<title>Node6&#45;&gt;Node8</title>
<path fill="none" stroke="midnightblue" d="M473,-55.22C473,-48.18 473,-37.81 473,-28.83"/>
<polygon fill="midnightblue" stroke="midnightblue" points="476.5,-28.55 473,-18.55 469.5,-28.55 476.5,-28.55"/>
</g>
<!-- Node9 -->
<g id="node9" class="node">
<title>Node9</title>
<g id="a_node9"><a xlink:title=" ">
<polygon fill="none" stroke="#bfbfbf" points="514.93,-0.5 514.93,-18.5 577.07,-18.5 577.07,-0.5 514.93,-0.5"/>
<text text-anchor="middle" x="546" y="-6.5" font-family="Helvetica,sans-Serif" font-size="10.00">type_traits</text>
</a>
</g>
</g>
<!-- Node6&#45;&gt;Node9 -->
<g id="edge8" class="edge">
<title>Node6&#45;&gt;Node9</title>
<path fill="none" stroke="midnightblue" d="M484.09,-55.45C495.34,-47.28 513,-34.46 526.58,-24.6"/>
<polygon fill="midnightblue" stroke="midnightblue" points="528.77,-27.33 534.81,-18.63 524.66,-21.67 528.77,-27.33"/>
</g>
<!-- Node12 -->
<g id="node12" class="node">
<title>Node12</title>
<g id="a_node12"><a xlink:href="../../d8/db5/consts_8h.html" target="_top" xlink:title=" ">
<polygon fill="none" stroke="black" points="508.38,-110.5 508.38,-128.5 561.62,-128.5 561.62,-110.5 508.38,-110.5"/>
<text text-anchor="middle" x="535" y="-116.5" font-family="Helvetica,sans-Serif" font-size="10.00">consts.h</text>
</a>
</g>
</g>
<!-- Node11&#45;&gt;Node12 -->
<g id="edge11" class="edge">
<title>Node11&#45;&gt;Node12</title>
<path fill="none" stroke="midnightblue" d="M525.72,-165.22C527.2,-158.1 529.38,-147.58 531.26,-138.53"/>
<polygon fill="midnightblue" stroke="midnightblue" points="534.72,-139.05 533.33,-128.55 527.87,-137.63 534.72,-139.05"/>
</g>
<!-- Node12&#45;&gt;Node6 -->
<g id="edge12" class="edge">
<title>Node12&#45;&gt;Node6</title>
<path fill="none" stroke="midnightblue" d="M525.58,-110.45C516.21,-102.43 501.6,-89.95 490.16,-80.17"/>
<polygon fill="midnightblue" stroke="midnightblue" points="492.38,-77.46 482.51,-73.63 487.83,-82.78 492.38,-77.46"/>
</g>
<!-- Node16 -->
<g id="node16" class="node">
<title>Node16</title>
<g id="a_node16"><a xlink:href="../../d4/de9/_main_class_8h.html" target="_top" xlink:title=" ">
<polygon fill="none" stroke="black" points="222.04,-605.5 222.04,-623.5 321.96,-623.5 321.96,-605.5 222.04,-605.5"/>
<text text-anchor="middle" x="272" y="-611.5" font-family="Helvetica,sans-Serif" font-size="10.00">tralics/MainClass.h</text>
</a>
</g>
</g>
<!-- Node15&#45;&gt;Node16 -->
<g id="edge16" class="edge">
<title>Node15&#45;&gt;Node16</title>
<path fill="none" stroke="midnightblue" d="M214.33,-660.45C224.71,-652.36 240.95,-639.7 253.55,-629.88"/>
<polygon fill="midnightblue" stroke="midnightblue" points="255.84,-632.53 261.58,-623.63 251.54,-627.01 255.84,-632.53"/>
</g>
<!-- Node29 -->
<g id="node29" class="node">
<title>Node29</title>
<g id="a_node29"><a xlink:href="../../d2/d06/txlogger_8h.html" target="_top" xlink:title=" ">
<polygon fill="none" stroke="black" points="28.32,-605.5 28.32,-623.5 87.68,-623.5 87.68,-605.5 28.32,-605.5"/>
<text text-anchor="middle" x="58" y="-611.5" font-family="Helvetica,sans-Serif" font-size="10.00">txlogger.h</text>
</a>
</g>
</g>
<!-- Node15&#45;&gt;Node29 -->
<g id="edge36" class="edge">
<title>Node15&#45;&gt;Node29</title>
<path fill="none" stroke="midnightblue" d="M181.83,-660.45C157.39,-651.58 117.86,-637.23 90.05,-627.13"/>
<polygon fill="midnightblue" stroke="midnightblue" points="90.98,-623.75 80.38,-623.63 88.59,-630.33 90.98,-623.75"/>
</g>
<!-- Node31 -->
<g id="node31" class="node">
<title>Node31</title>
<g id="a_node31"><a xlink:href="../../d5/d08/txparam_8h.html" target="_top" xlink:title=" ">
<polygon fill="none" stroke="black" points="105.77,-605.5 105.77,-623.5 166.23,-623.5 166.23,-605.5 105.77,-605.5"/>
<text text-anchor="middle" x="136" y="-611.5" font-family="Helvetica,sans-Serif" font-size="10.00">txparam.h</text>
</a>
</g>
</g>
<!-- Node15&#45;&gt;Node31 -->
<g id="edge39" class="edge">
<title>Node15&#45;&gt;Node31</title>
<path fill="none" stroke="midnightblue" d="M193.67,-660.45C183.29,-652.36 167.05,-639.7 154.45,-629.88"/>
<polygon fill="midnightblue" stroke="midnightblue" points="156.46,-627.01 146.42,-623.63 152.16,-632.53 156.46,-627.01"/>
</g>
<!-- Node17 -->
<g id="node17" class="node">
<title>Node17</title>
<g id="a_node17"><a xlink:href="../../de/d29/txio_8h.html" target="_top" xlink:title=" ">
<polygon fill="none" stroke="black" points="169.88,-550.5 169.88,-568.5 218.12,-568.5 218.12,-550.5 169.88,-550.5"/>
<text text-anchor="middle" x="194" y="-556.5" font-family="Helvetica,sans-Serif" font-size="10.00">../txio.h</text>
</a>
</g>
</g>
<!-- Node16&#45;&gt;Node17 -->
<g id="edge17" class="edge">
<title>Node16&#45;&gt;Node17</title>
<path fill="none" stroke="midnightblue" d="M260.15,-605.45C248.01,-597.2 228.9,-584.22 214.34,-574.32"/>
<polygon fill="midnightblue" stroke="midnightblue" points="216.2,-571.35 205.96,-568.63 212.26,-577.14 216.2,-571.35"/>
</g>
<!-- Node28 -->
<g id="node28" class="node">
<title>Node28</title>
<g id="a_node28"><a xlink:href="../../dc/def/txstring_8h.html" target="_top" xlink:title=" ">
<polygon fill="none" stroke="black" points="364.55,-495.5 364.55,-513.5 429.45,-513.5 429.45,-495.5 364.55,-495.5"/>
<text text-anchor="middle" x="397" y="-501.5" font-family="Helvetica,sans-Serif" font-size="10.00">../txstring.h</text>
</a>
</g>
</g>
<!-- Node16&#45;&gt;Node28 -->
<g id="edge34" class="edge">
<title>Node16&#45;&gt;Node28</title>
<path fill="none" stroke="midnightblue" d="M273.02,-605.42C275.08,-592.22 280.92,-565.91 296,-550 311.74,-533.39 334.79,-522.59 354.89,-515.8"/>
<polygon fill="midnightblue" stroke="midnightblue" points="355.99,-519.12 364.47,-512.78 353.88,-512.44 355.99,-519.12"/>
</g>
<!-- Node18 -->
<g id="node18" class="node">
<title>Node18</title>
<g id="a_node18"><a xlink:href="../../dd/d74/txbuffer_8h.html" target="_top" xlink:title=" ">
<polygon fill="none" stroke="black" points="377.52,-440.5 377.52,-458.5 434.48,-458.5 434.48,-440.5 377.52,-440.5"/>
<text text-anchor="middle" x="406" y="-446.5" font-family="Helvetica,sans-Serif" font-size="10.00">txbuffer.h</text>
</a>
</g>
</g>
<!-- Node17&#45;&gt;Node18 -->
<g id="edge18" class="edge">
<title>Node17&#45;&gt;Node18</title>
<path fill="none" stroke="midnightblue" d="M209.93,-550.38C246.55,-531.73 336.92,-485.69 381,-463.23"/>
<polygon fill="midnightblue" stroke="midnightblue" points="382.85,-466.22 390.17,-458.56 379.67,-459.99 382.85,-466.22"/>
</g>
<!-- Node27 -->
<g id="node27" class="node">
<title>Node27</title>
<g id="a_node27"><a xlink:title=" ">
<polygon fill="none" stroke="#bfbfbf" points="136.33,-495.5 136.33,-513.5 185.67,-513.5 185.67,-495.5 136.33,-495.5"/>
<text text-anchor="middle" x="161" y="-501.5" font-family="Helvetica,sans-Serif" font-size="10.00">fstream</text>
</a>
</g>
</g>
<!-- Node17&#45;&gt;Node27 -->
<g id="edge33" class="edge">
<title>Node17&#45;&gt;Node27</title>
<path fill="none" stroke="midnightblue" d="M188.84,-550.22C184.17,-542.71 177.13,-531.41 171.31,-522.05"/>
<polygon fill="midnightblue" stroke="midnightblue" points="174.27,-520.19 166.01,-513.55 168.33,-523.89 174.27,-520.19"/>
</g>
<!-- Node18&#45;&gt;Node3 -->
<g id="edge19" class="edge">
<title>Node18&#45;&gt;Node3</title>
<path fill="none" stroke="midnightblue" d="M406.46,-440.19C407.85,-415.01 412.04,-339.11 413.99,-303.86"/>
<polygon fill="midnightblue" stroke="midnightblue" points="417.5,-303.77 414.55,-293.6 410.51,-303.39 417.5,-303.77"/>
</g>
<!-- Node19 -->
<g id="node19" class="node">
<title>Node19</title>
<g id="a_node19"><a xlink:href="../../d1/d9e/txid_8h.html" target="_top" xlink:title=" ">
<polygon fill="none" stroke="black" points="603.05,-330.5 603.05,-348.5 642.95,-348.5 642.95,-330.5 603.05,-330.5"/>
<text text-anchor="middle" x="623" y="-336.5" font-family="Helvetica,sans-Serif" font-size="10.00">txid.h</text>
</a>
</g>
</g>
<!-- Node18&#45;&gt;Node19 -->
<g id="edge20" class="edge">
<title>Node18&#45;&gt;Node19</title>
<path fill="none" stroke="midnightblue" d="M416.44,-440.41C433.57,-427.42 469.01,-401.69 502,-385 531.84,-369.9 568.07,-357.27 593.06,-349.37"/>
<polygon fill="midnightblue" stroke="midnightblue" points="594.19,-352.68 602.7,-346.38 592.12,-346 594.19,-352.68"/>
</g>
<!-- Node22 -->
<g id="node22" class="node">
<title>Node22</title>
<g id="a_node22"><a xlink:href="../../d9/d18/txscaled_8h.html" target="_top" xlink:title=" ">
<polygon fill="none" stroke="black" points="572.49,-385.5 572.49,-403.5 633.51,-403.5 633.51,-385.5 572.49,-385.5"/>
<text text-anchor="middle" x="603" y="-391.5" font-family="Helvetica,sans-Serif" font-size="10.00">txscaled.h</text>
</a>
</g>
</g>
<!-- Node18&#45;&gt;Node22 -->
<g id="edge26" class="edge">
<title>Node18&#45;&gt;Node22</title>
<path fill="none" stroke="midnightblue" d="M434.65,-440.79C468.54,-431.67 525.17,-416.44 563.28,-406.19"/>
<polygon fill="midnightblue" stroke="midnightblue" points="564.28,-409.54 573.03,-403.56 562.46,-402.78 564.28,-409.54"/>
</g>
<!-- Node25 -->
<g id="node25" class="node">
<title>Node25</title>
<g id="a_node25"><a xlink:title=" ">
<polygon fill="none" stroke="#bfbfbf" points="333.27,-385.5 333.27,-403.5 378.73,-403.5 378.73,-385.5 333.27,-385.5"/>
<text text-anchor="middle" x="356" y="-391.5" font-family="Helvetica,sans-Serif" font-size="10.00">cstring</text>
</a>
</g>
</g>
<!-- Node18&#45;&gt;Node25 -->
<g id="edge31" class="edge">
<title>Node18&#45;&gt;Node25</title>
<path fill="none" stroke="midnightblue" d="M398.19,-440.22C390.81,-432.39 379.55,-420.46 370.52,-410.89"/>
<polygon fill="midnightblue" stroke="midnightblue" points="373,-408.42 363.59,-403.55 367.91,-413.23 373,-408.42"/>
</g>
<!-- Node26 -->
<g id="node26" class="node">
<title>Node26</title>
<g id="a_node26"><a xlink:title=" ">
<polygon fill="none" stroke="#bfbfbf" points="511.38,-385.5 511.38,-403.5 554.62,-403.5 554.62,-385.5 511.38,-385.5"/>
<text text-anchor="middle" x="533" y="-391.5" font-family="Helvetica,sans-Serif" font-size="10.00">vector</text>
</a>
</g>
</g>
<!-- Node18&#45;&gt;Node26 -->
<g id="edge32" class="edge">
<title>Node18&#45;&gt;Node26</title>
<path fill="none" stroke="midnightblue" d="M425.29,-440.45C446.27,-431.7 480.03,-417.61 504.16,-407.53"/>
<polygon fill="midnightblue" stroke="midnightblue" points="505.65,-410.71 513.53,-403.63 502.95,-404.25 505.65,-410.71"/>
</g>
<!-- Node20 -->
<g id="node20" class="node">
<title>Node20</title>
<g id="a_node20"><a xlink:href="../../d5/daf/_istring_8h.html" target="_top" xlink:title=" ">
<polygon fill="none" stroke="black" points="510.77,-275.5 510.77,-293.5 591.23,-293.5 591.23,-275.5 510.77,-275.5"/>
<text text-anchor="middle" x="551" y="-281.5" font-family="Helvetica,sans-Serif" font-size="10.00">tralics/Istring.h</text>
</a>
</g>
</g>
<!-- Node19&#45;&gt;Node20 -->
<g id="edge21" class="edge">
<title>Node19&#45;&gt;Node20</title>
<path fill="none" stroke="midnightblue" d="M612.06,-330.45C600.96,-322.28 583.55,-309.46 570.15,-299.6"/>
<polygon fill="midnightblue" stroke="midnightblue" points="572.17,-296.73 562.04,-293.63 568.02,-302.37 572.17,-296.73"/>
</g>
<!-- Node21 -->
<g id="node21" class="node">
<title>Node21</title>
<g id="a_node21"><a xlink:title=" ">
<polygon fill="none" stroke="#bfbfbf" points="674.77,-220.5 674.77,-238.5 715.23,-238.5 715.23,-220.5 674.77,-220.5"/>
<text text-anchor="middle" x="695" y="-226.5" font-family="Helvetica,sans-Serif" font-size="10.00">string</text>
</a>
</g>
</g>
<!-- Node19&#45;&gt;Node21 -->
<g id="edge25" class="edge">
<title>Node19&#45;&gt;Node21</title>
<path fill="none" stroke="midnightblue" d="M629.81,-330.18C636.89,-321.39 648.16,-307.04 657,-294 667.34,-278.75 678.02,-260.65 685.42,-247.69"/>
<polygon fill="midnightblue" stroke="midnightblue" points="688.51,-249.34 690.37,-238.91 682.41,-245.9 688.51,-249.34"/>
</g>
<!-- Node20&#45;&gt;Node11 -->
<g id="edge22" class="edge">
<title>Node20&#45;&gt;Node11</title>
<path fill="none" stroke="midnightblue" d="M548.97,-275.38C544.65,-258.1 534.46,-217.33 528.52,-193.56"/>
<polygon fill="midnightblue" stroke="midnightblue" points="531.87,-192.56 526.05,-183.71 525.08,-194.26 531.87,-192.56"/>
</g>
<!-- Node20&#45;&gt;Node14 -->
<g id="edge23" class="edge">
<title>Node20&#45;&gt;Node14</title>
<path fill="none" stroke="midnightblue" d="M519.52,-275.45C487.85,-267.29 437.39,-254.07 385.3,-239.3"/>
<polygon fill="midnightblue" stroke="midnightblue" points="386.13,-235.9 375.56,-236.53 384.22,-242.64 386.13,-235.9"/>
</g>
<!-- Node20&#45;&gt;Node21 -->
<g id="edge24" class="edge">
<title>Node20&#45;&gt;Node21</title>
<path fill="none" stroke="midnightblue" d="M572.87,-275.45C597.4,-266.42 637.33,-251.73 664.82,-241.61"/>
<polygon fill="midnightblue" stroke="midnightblue" points="666.15,-244.85 674.33,-238.11 663.73,-238.28 666.15,-244.85"/>
</g>
<!-- Node23 -->
<g id="node23" class="node">
<title>Node23</title>
<g id="a_node23"><a xlink:href="../../dc/d91/txtokenlist_8h.html" target="_top" xlink:title=" ">
<polygon fill="none" stroke="black" points="516.6,-330.5 516.6,-348.5 585.4,-348.5 585.4,-330.5 516.6,-330.5"/>
<text text-anchor="middle" x="551" y="-336.5" font-family="Helvetica,sans-Serif" font-size="10.00">txtokenlist.h</text>
</a>
</g>
</g>
<!-- Node22&#45;&gt;Node23 -->
<g id="edge27" class="edge">
<title>Node22&#45;&gt;Node23</title>
<path fill="none" stroke="midnightblue" d="M594.88,-385.22C587.2,-377.39 575.49,-365.46 566.1,-355.89"/>
<polygon fill="midnightblue" stroke="midnightblue" points="568.4,-353.24 558.9,-348.55 563.4,-358.14 568.4,-353.24"/>
</g>
<!-- Node23&#45;&gt;Node3 -->
<g id="edge29" class="edge">
<title>Node23&#45;&gt;Node3</title>
<path fill="none" stroke="midnightblue" d="M530.34,-330.45C507.68,-321.62 471.08,-307.35 445.19,-297.27"/>
<polygon fill="midnightblue" stroke="midnightblue" points="446.44,-294 435.85,-293.63 443.9,-300.52 446.44,-294"/>
</g>
<!-- Node23&#45;&gt;Node20 -->
<g id="edge28" class="edge">
<title>Node23&#45;&gt;Node20</title>
<path fill="none" stroke="midnightblue" d="M551,-330.22C551,-323.18 551,-312.81 551,-303.83"/>
<polygon fill="midnightblue" stroke="midnightblue" points="554.5,-303.55 551,-293.55 547.5,-303.55 554.5,-303.55"/>
</g>
<!-- Node24 -->
<g id="node24" class="node">
<title>Node24</title>
<g id="a_node24"><a xlink:title=" ">
<polygon fill="none" stroke="#bfbfbf" points="609.61,-275.5 609.61,-293.5 648.39,-293.5 648.39,-275.5 609.61,-275.5"/>
<text text-anchor="middle" x="629" y="-281.5" font-family="Helvetica,sans-Serif" font-size="10.00">utility</text>
</a>
</g>
</g>
<!-- Node23&#45;&gt;Node24 -->
<g id="edge30" class="edge">
<title>Node23&#45;&gt;Node24</title>
<path fill="none" stroke="midnightblue" d="M562.85,-330.45C574.99,-322.2 594.1,-309.22 608.66,-299.32"/>
<polygon fill="midnightblue" stroke="midnightblue" points="610.74,-302.14 617.04,-293.63 606.8,-296.35 610.74,-302.14"/>
</g>
<!-- Node28&#45;&gt;Node18 -->
<g id="edge35" class="edge">
<title>Node28&#45;&gt;Node18</title>
<path fill="none" stroke="midnightblue" d="M398.41,-495.22C399.62,-488.1 401.4,-477.58 402.94,-468.53"/>
<polygon fill="midnightblue" stroke="midnightblue" points="406.41,-468.99 404.63,-458.55 399.51,-467.82 406.41,-468.99"/>
</g>
<!-- Node29&#45;&gt;Node27 -->
<g id="edge37" class="edge">
<title>Node29&#45;&gt;Node27</title>
<path fill="none" stroke="midnightblue" d="M65.74,-605.38C82.82,-587.48 123.95,-544.35 146.17,-521.05"/>
<polygon fill="midnightblue" stroke="midnightblue" points="148.8,-523.36 153.17,-513.71 143.73,-518.53 148.8,-523.36"/>
</g>
<!-- Node30 -->
<g id="node30" class="node">
<title>Node30</title>
<g id="a_node30"><a xlink:title=" ">
<polygon fill="none" stroke="#bfbfbf" points="30.83,-550.5 30.83,-568.5 85.17,-568.5 85.17,-550.5 30.83,-550.5"/>
<text text-anchor="middle" x="58" y="-556.5" font-family="Helvetica,sans-Serif" font-size="10.00">iostream</text>
</a>
</g>
</g>
<!-- Node29&#45;&gt;Node30 -->
<g id="edge38" class="edge">
<title>Node29&#45;&gt;Node30</title>
<path fill="none" stroke="midnightblue" d="M58,-605.22C58,-598.18 58,-587.81 58,-578.83"/>
<polygon fill="midnightblue" stroke="midnightblue" points="61.5,-578.55 58,-568.55 54.5,-578.55 61.5,-578.55"/>
</g>
<!-- Node31&#45;&gt;Node17 -->
<g id="edge40" class="edge">
<title>Node31&#45;&gt;Node17</title>
<path fill="none" stroke="midnightblue" d="M145.06,-605.22C153.8,-597.24 167.21,-584.98 177.78,-575.32"/>
<polygon fill="midnightblue" stroke="midnightblue" points="180.17,-577.88 185.19,-568.55 175.45,-572.71 180.17,-577.88"/>
</g>
<!-- Node32&#45;&gt;Node17 -->
<g id="edge60" class="edge">
<title>Node32&#45;&gt;Node17</title>
<path fill="none" stroke="midnightblue" d="M401.68,-666.15C348.23,-661.4 240.28,-648.93 213,-624 200.53,-612.61 196.11,-593.41 194.62,-579.1"/>
<polygon fill="midnightblue" stroke="midnightblue" points="198.09,-578.66 193.94,-568.91 191.11,-579.12 198.09,-578.66"/>
</g>
<!-- Node33 -->
<g id="node33" class="node">
<title>Node33</title>
<g id="a_node33"><a xlink:href="../../d8/dd6/_e_q_t_b_8h.html" target="_top" xlink:title=" ">
<polygon fill="none" stroke="black" points="590.77,-605.5 590.77,-623.5 671.23,-623.5 671.23,-605.5 590.77,-605.5"/>
<text text-anchor="middle" x="631" y="-611.5" font-family="Helvetica,sans-Serif" font-size="10.00">tralics/EQTB.h</text>
</a>
</g>
</g>
<!-- Node32&#45;&gt;Node33 -->
<g id="edge42" class="edge">
<title>Node32&#45;&gt;Node33</title>
<path fill="none" stroke="midnightblue" d="M462.22,-660.45C496.66,-651.28 553.07,-636.26 591.09,-626.13"/>
<polygon fill="midnightblue" stroke="midnightblue" points="592.06,-629.49 600.82,-623.54 590.25,-622.73 592.06,-629.49"/>
</g>
<!-- Node35 -->
<g id="node35" class="node">
<title>Node35</title>
<g id="a_node35"><a xlink:href="../../d3/d6b/txcond_8h.html" target="_top" xlink:title=" ">
<polygon fill="none" stroke="black" points="452.1,-440.5 452.1,-458.5 505.9,-458.5 505.9,-440.5 452.1,-440.5"/>
<text text-anchor="middle" x="479" y="-446.5" font-family="Helvetica,sans-Serif" font-size="10.00">txcond.h</text>
</a>
</g>
</g>
<!-- Node32&#45;&gt;Node35 -->
<g id="edge49" class="edge">
<title>Node32&#45;&gt;Node35</title>
<path fill="none" stroke="midnightblue" d="M433.73,-660.48C440.51,-629.04 465.38,-513.67 475.09,-468.66"/>
<polygon fill="midnightblue" stroke="midnightblue" points="478.52,-469.34 477.21,-458.82 471.68,-467.86 478.52,-469.34"/>
</g>
<!-- Node36 -->
<g id="node36" class="node">
<title>Node36</title>
<g id="a_node36"><a xlink:href="../../d7/d4d/txfonts_8h.html" target="_top" xlink:title=" ">
<polygon fill="none" stroke="black" points="305.1,-550.5 305.1,-568.5 358.9,-568.5 358.9,-550.5 305.1,-550.5"/>
<text text-anchor="middle" x="332" y="-556.5" font-family="Helvetica,sans-Serif" font-size="10.00">txfonts.h</text>
</a>
</g>
</g>
<!-- Node32&#45;&gt;Node36 -->
<g id="edge52" class="edge">
<title>Node32&#45;&gt;Node36</title>
<path fill="none" stroke="midnightblue" d="M417.13,-660.48C403.42,-652.56 383.11,-639.4 369,-624 356.36,-610.21 346.06,-591.38 339.57,-577.82"/>
<polygon fill="midnightblue" stroke="midnightblue" points="342.71,-576.27 335.37,-568.64 336.35,-579.19 342.71,-576.27"/>
</g>
<!-- Node37 -->
<g id="node37" class="node">
<title>Node37</title>
<g id="a_node37"><a xlink:href="../../d7/d7e/txhash_8h.html" target="_top" xlink:title=" ">
<polygon fill="none" stroke="black" points="378.1,-605.5 378.1,-623.5 431.9,-623.5 431.9,-605.5 378.1,-605.5"/>
<text text-anchor="middle" x="405" y="-611.5" font-family="Helvetica,sans-Serif" font-size="10.00">txhash.h</text>
</a>
</g>
</g>
<!-- Node32&#45;&gt;Node37 -->
<g id="edge54" class="edge">
<title>Node32&#45;&gt;Node37</title>
<path fill="none" stroke="midnightblue" d="M427.78,-660.22C424.03,-652.86 418.44,-641.88 413.73,-632.64"/>
<polygon fill="midnightblue" stroke="midnightblue" points="416.76,-630.87 409.1,-623.55 410.52,-634.05 416.76,-630.87"/>
</g>
<!-- Node39 -->
<g id="node39" class="node">
<title>Node39</title>
<g id="a_node39"><a xlink:href="../../de/d7c/tximage_8h.html" target="_top" xlink:title=" ">
<polygon fill="none" stroke="black" points="735.32,-330.5 735.32,-348.5 794.68,-348.5 794.68,-330.5 735.32,-330.5"/>
<text text-anchor="middle" x="765" y="-336.5" font-family="Helvetica,sans-Serif" font-size="10.00">tximage.h</text>
</a>
</g>
</g>
<!-- Node32&#45;&gt;Node39 -->
<g id="edge57" class="edge">
<title>Node32&#45;&gt;Node39</title>
<path fill="none" stroke="midnightblue" d="M462.21,-661.78C465.17,-661.16 468.14,-660.56 471,-660 614.27,-632.06 784,-706.47 784,-560.5 784,-560.5 784,-560.5 784,-448.5 784,-416.39 775.75,-379.7 770.12,-358.41"/>
<polygon fill="midnightblue" stroke="midnightblue" points="773.43,-357.26 767.41,-348.54 766.69,-359.11 773.43,-357.26"/>
</g>
<!-- Node40 -->
<g id="node40" class="node">
<title>Node40</title>
<g id="a_node40"><a xlink:href="../../dc/d65/txstack_8h.html" target="_top" xlink:title=" ">
<polygon fill="none" stroke="black" points="488.27,-605.5 488.27,-623.5 543.73,-623.5 543.73,-605.5 488.27,-605.5"/>
<text text-anchor="middle" x="516" y="-611.5" font-family="Helvetica,sans-Serif" font-size="10.00">txstack.h</text>
</a>
</g>
</g>
<!-- Node32&#45;&gt;Node40 -->
<g id="edge61" class="edge">
<title>Node32&#45;&gt;Node40</title>
<path fill="none" stroke="midnightblue" d="M444.76,-660.45C457.96,-652.12 478.8,-638.97 494.54,-629.04"/>
<polygon fill="midnightblue" stroke="midnightblue" points="496.53,-631.92 503.12,-623.63 492.8,-626 496.53,-631.92"/>
</g>
<!-- Node42 -->
<g id="node42" class="node">
<title>Node42</title>
<g id="a_node42"><a xlink:href="../../d8/d3d/txstats_8h.html" target="_top" xlink:title=" ">
<polygon fill="none" stroke="black" points="812.38,-605.5 812.38,-623.5 865.62,-623.5 865.62,-605.5 812.38,-605.5"/>
<text text-anchor="middle" x="839" y="-611.5" font-family="Helvetica,sans-Serif" font-size="10.00">txstats.h</text>
</a>
</g>
</g>
<!-- Node32&#45;&gt;Node42 -->
<g id="edge67" class="edge">
<title>Node32&#45;&gt;Node42</title>
<path fill="none" stroke="midnightblue" d="M462.17,-661.6C465.15,-661.01 468.13,-660.47 471,-660 615.29,-636.4 653.59,-646.87 798,-624 799.29,-623.8 800.61,-623.58 801.93,-623.35"/>
<polygon fill="midnightblue" stroke="midnightblue" points="802.97,-626.72 812.16,-621.44 801.69,-619.83 802.97,-626.72"/>
</g>
<!-- Node33&#45;&gt;Node3 -->
<g id="edge47" class="edge">
<title>Node33&#45;&gt;Node3</title>
<path fill="none" stroke="midnightblue" d="M634.8,-605.33C649.11,-573.24 696.24,-454.3 643,-385 605.17,-335.76 564.45,-374.88 508,-349 479.44,-335.91 450.09,-314.23 432.19,-299.9"/>
<polygon fill="midnightblue" stroke="midnightblue" points="434.34,-297.14 424.38,-293.53 429.92,-302.57 434.34,-297.14"/>
</g>
<!-- Node33&#45;&gt;Node21 -->
<g id="edge48" class="edge">
<title>Node33&#45;&gt;Node21</title>
<path fill="none" stroke="midnightblue" d="M642.21,-605.39C663.35,-589.07 707,-549.98 707,-505.5 707,-505.5 707,-505.5 707,-393.5 707,-340.9 700.71,-279 697.24,-248.85"/>
<polygon fill="midnightblue" stroke="midnightblue" points="700.68,-248.14 696.02,-238.63 693.72,-248.97 700.68,-248.14"/>
</g>
<!-- Node33&#45;&gt;Node22 -->
<g id="edge43" class="edge">
<title>Node33&#45;&gt;Node22</title>
<path fill="none" stroke="midnightblue" d="M629.97,-605.48C625.94,-574.11 611.18,-459.16 605.37,-413.94"/>
<polygon fill="midnightblue" stroke="midnightblue" points="608.81,-413.3 604.07,-403.82 601.87,-414.19 608.81,-413.3"/>
</g>
<!-- Node34 -->
<g id="node34" class="node">
<title>Node34</title>
<g id="a_node34"><a xlink:href="../../d1/d43/txxml_8h.html" target="_top" xlink:title=" ">
<polygon fill="none" stroke="black" points="485,-550.5 485,-568.5 541,-568.5 541,-550.5 485,-550.5"/>
<text text-anchor="middle" x="513" y="-556.5" font-family="Helvetica,sans-Serif" font-size="10.00">../txxml.h</text>
</a>
</g>
</g>
<!-- Node33&#45;&gt;Node34 -->
<g id="edge44" class="edge">
<title>Node33&#45;&gt;Node34</title>
<path fill="none" stroke="midnightblue" d="M613.08,-605.45C593.76,-596.77 562.77,-582.86 540.39,-572.8"/>
<polygon fill="midnightblue" stroke="midnightblue" points="541.65,-569.53 531.09,-568.63 538.78,-575.92 541.65,-569.53"/>
</g>
<!-- Node34&#45;&gt;Node26 -->
<g id="edge46" class="edge">
<title>Node34&#45;&gt;Node26</title>
<path fill="none" stroke="midnightblue" d="M514.02,-550.19C517.11,-525.01 526.42,-449.11 530.75,-413.86"/>
<polygon fill="midnightblue" stroke="midnightblue" points="534.26,-413.95 532.01,-403.6 527.31,-413.1 534.26,-413.95"/>
</g>
<!-- Node34&#45;&gt;Node28 -->
<g id="edge45" class="edge">
<title>Node34&#45;&gt;Node28</title>
<path fill="none" stroke="midnightblue" d="M495.38,-550.45C476.39,-541.77 445.93,-527.86 423.93,-517.8"/>
<polygon fill="midnightblue" stroke="midnightblue" points="425.33,-514.6 414.78,-513.63 422.42,-520.96 425.33,-514.6"/>
</g>
<!-- Node35&#45;&gt;Node11 -->
<g id="edge50" class="edge">
<title>Node35&#45;&gt;Node11</title>
<path fill="none" stroke="midnightblue" d="M479.51,-440.37C480.58,-422.39 483,-377.84 483,-340.5 483,-340.5 483,-340.5 483,-283.5 483,-249.37 501.11,-212.9 513.26,-192.28"/>
<polygon fill="midnightblue" stroke="midnightblue" points="516.4,-193.86 518.64,-183.5 510.43,-190.2 516.4,-193.86"/>
</g>
<!-- Node35&#45;&gt;Node26 -->
<g id="edge51" class="edge">
<title>Node35&#45;&gt;Node26</title>
<path fill="none" stroke="midnightblue" d="M487.44,-440.22C495.49,-432.32 507.81,-420.22 517.61,-410.61"/>
<polygon fill="midnightblue" stroke="midnightblue" points="520.11,-413.05 524.8,-403.55 515.21,-408.06 520.11,-413.05"/>
</g>
<!-- Node36&#45;&gt;Node28 -->
<g id="edge53" class="edge">
<title>Node36&#45;&gt;Node28</title>
<path fill="none" stroke="midnightblue" d="M341.87,-550.45C351.7,-542.43 367.02,-529.95 379.01,-520.17"/>
<polygon fill="midnightblue" stroke="midnightblue" points="381.5,-522.66 387.03,-513.63 377.07,-517.23 381.5,-522.66"/>
</g>
<!-- Node38 -->
<g id="node38" class="node">
<title>Node38</title>
<g id="a_node38"><a xlink:href="../../d3/d01/txeqtb_8h.html" target="_top" xlink:title=" ">
<polygon fill="none" stroke="black" points="377.21,-550.5 377.21,-568.5 428.79,-568.5 428.79,-550.5 377.21,-550.5"/>
<text text-anchor="middle" x="403" y="-556.5" font-family="Helvetica,sans-Serif" font-size="10.00">txeqtb.h</text>
</a>
</g>
</g>
<!-- Node37&#45;&gt;Node38 -->
<g id="edge55" class="edge">
<title>Node37&#45;&gt;Node38</title>
<path fill="none" stroke="midnightblue" d="M404.69,-605.22C404.42,-598.18 404.03,-587.81 403.69,-578.83"/>
<polygon fill="midnightblue" stroke="midnightblue" points="407.18,-578.41 403.3,-568.55 400.18,-578.67 407.18,-578.41"/>
</g>
<!-- Node38&#45;&gt;Node28 -->
<g id="edge56" class="edge">
<title>Node38&#45;&gt;Node28</title>
<path fill="none" stroke="midnightblue" d="M402.06,-550.22C401.26,-543.1 400.07,-532.58 399.04,-523.53"/>
<polygon fill="midnightblue" stroke="midnightblue" points="402.51,-523.09 397.91,-513.55 395.56,-523.88 402.51,-523.09"/>
</g>
<!-- Node39&#45;&gt;Node21 -->
<g id="edge58" class="edge">
<title>Node39&#45;&gt;Node21</title>
<path fill="none" stroke="midnightblue" d="M760.5,-330.1C753.8,-317.78 740.64,-294.17 728,-275 721.62,-265.33 713.94,-254.91 707.6,-246.58"/>
<polygon fill="midnightblue" stroke="midnightblue" points="710.24,-244.28 701.36,-238.51 704.7,-248.56 710.24,-244.28"/>
</g>
<!-- Node39&#45;&gt;Node24 -->
<g id="edge59" class="edge">
<title>Node39&#45;&gt;Node24</title>
<path fill="none" stroke="midnightblue" d="M744.34,-330.45C721.28,-321.46 683.8,-306.86 657.85,-296.74"/>
<polygon fill="midnightblue" stroke="midnightblue" points="659.11,-293.48 648.52,-293.11 656.57,-300 659.11,-293.48"/>
</g>
<!-- Node40&#45;&gt;Node34 -->
<g id="edge66" class="edge">
<title>Node40&#45;&gt;Node34</title>
<path fill="none" stroke="midnightblue" d="M515.53,-605.22C515.13,-598.18 514.55,-587.81 514.04,-578.83"/>
<polygon fill="midnightblue" stroke="midnightblue" points="517.52,-578.34 513.46,-568.55 510.53,-578.73 517.52,-578.34"/>
</g>
<!-- Node41 -->
<g id="node41" class="node">
<title>Node41</title>
<g id="a_node41"><a xlink:href="../../d4/da4/txatt_8h.html" target="_top" xlink:title=" ">
<polygon fill="none" stroke="black" points="559.38,-550.5 559.38,-568.5 602.62,-568.5 602.62,-550.5 559.38,-550.5"/>
<text text-anchor="middle" x="581" y="-556.5" font-family="Helvetica,sans-Serif" font-size="10.00">txatt.h</text>
</a>
</g>
</g>
<!-- Node40&#45;&gt;Node41 -->
<g id="edge62" class="edge">
<title>Node40&#45;&gt;Node41</title>
<path fill="none" stroke="midnightblue" d="M525.87,-605.45C535.7,-597.43 551.02,-584.95 563.01,-575.17"/>
<polygon fill="midnightblue" stroke="midnightblue" points="565.5,-577.66 571.03,-568.63 561.07,-572.23 565.5,-577.66"/>
</g>
<!-- Node41&#45;&gt;Node10 -->
<g id="edge64" class="edge">
<title>Node41&#45;&gt;Node10</title>
<path fill="none" stroke="midnightblue" d="M602.9,-550.95C662.47,-528.86 823,-458.4 823,-340.5 823,-340.5 823,-340.5 823,-228.5 823,-220.14 591.06,-155.27 500.56,-130.27"/>
<polygon fill="midnightblue" stroke="midnightblue" points="501.32,-126.85 490.75,-127.57 499.46,-133.6 501.32,-126.85"/>
</g>
<!-- Node41&#45;&gt;Node26 -->
<g id="edge65" class="edge">
<title>Node41&#45;&gt;Node26</title>
<path fill="none" stroke="midnightblue" d="M578.55,-550.19C571.11,-524.9 548.59,-448.45 538.27,-413.4"/>
<polygon fill="midnightblue" stroke="midnightblue" points="541.57,-412.2 535.38,-403.6 534.85,-414.18 541.57,-412.2"/>
</g>
<!-- Node41&#45;&gt;Node28 -->
<g id="edge63" class="edge">
<title>Node41&#45;&gt;Node28</title>
<path fill="none" stroke="midnightblue" d="M559.17,-552.21C528.54,-543.39 472.37,-527.21 434.85,-516.4"/>
<polygon fill="midnightblue" stroke="midnightblue" points="435.37,-512.91 424.8,-513.51 433.44,-519.64 435.37,-512.91"/>
</g>
</g>
</svg>
