<?xml version="1.0" encoding="UTF-8" standalone="no"?>
<!DOCTYPE svg PUBLIC "-//W3C//DTD SVG 1.1//EN"
 "http://www.w3.org/Graphics/SVG/1.1/DTD/svg11.dtd">
<!-- Generated by graphviz version 2.42.3 (20191010.1750)
 -->
<!-- Title: txfp.cpp Pages: 1 -->
<svg width="808pt" height="687pt"
 viewBox="0.00 0.00 807.51 687.00" xmlns="http://www.w3.org/2000/svg" xmlns:xlink="http://www.w3.org/1999/xlink">
<g id="graph0" class="graph" transform="scale(1 1) rotate(0) translate(4 683)">
<title>txfp.cpp</title>
<!-- Node1 -->
<g id="node1" class="node">
<title>Node1</title>
<g id="a_node1"><a xlink:title=" ">
<polygon fill="#bfbfbf" stroke="black" points="313.49,-660.5 313.49,-678.5 364.51,-678.5 364.51,-660.5 313.49,-660.5"/>
<text text-anchor="middle" x="339" y="-666.5" font-family="Helvetica,sans-Serif" font-size="10.00">txfp.cpp</text>
</a>
</g>
</g>
<!-- Node2 -->
<g id="node2" class="node">
<title>Node2</title>
<g id="a_node2"><a xlink:href="../../d0/de6/txfp_8h.html" target="_top" xlink:title=" ">
<polygon fill="none" stroke="black" points="281.77,-330.5 281.77,-348.5 322.23,-348.5 322.23,-330.5 281.77,-330.5"/>
<text text-anchor="middle" x="302" y="-336.5" font-family="Helvetica,sans-Serif" font-size="10.00">txfp.h</text>
</a>
</g>
</g>
<!-- Node1&#45;&gt;Node2 -->
<g id="edge1" class="edge">
<title>Node1&#45;&gt;Node2</title>
<path fill="none" stroke="midnightblue" d="M313.24,-665.92C234.13,-657.29 0,-626.21 0,-560.5 0,-560.5 0,-560.5 0,-448.5 0,-391.2 195.21,-356.23 271.74,-344.72"/>
<polygon fill="midnightblue" stroke="midnightblue" points="272.33,-348.17 281.72,-343.25 271.31,-341.24 272.33,-348.17"/>
</g>
<!-- Node15 -->
<g id="node15" class="node">
<title>Node15</title>
<g id="a_node15"><a xlink:href="../../d7/d79/txinline_8h.html" target="_top" xlink:title=" ">
<polygon fill="none" stroke="black" points="156.27,-605.5 156.27,-623.5 211.73,-623.5 211.73,-605.5 156.27,-605.5"/>
<text text-anchor="middle" x="184" y="-611.5" font-family="Helvetica,sans-Serif" font-size="10.00">txinline.h</text>
</a>
</g>
</g>
<!-- Node1&#45;&gt;Node15 -->
<g id="edge15" class="edge">
<title>Node1&#45;&gt;Node15</title>
<path fill="none" stroke="midnightblue" d="M315.46,-660.45C289.21,-651.47 246.56,-636.89 216.99,-626.78"/>
<polygon fill="midnightblue" stroke="midnightblue" points="218.1,-623.46 207.51,-623.54 215.84,-630.09 218.1,-623.46"/>
</g>
<!-- Node34 -->
<g id="node34" class="node">
<title>Node34</title>
<g id="a_node34"><a xlink:href="../../d2/d1b/txparser_8h.html" target="_top" xlink:title=" ">
<polygon fill="none" stroke="black" points="415.04,-605.5 415.04,-623.5 474.96,-623.5 474.96,-605.5 415.04,-605.5"/>
<text text-anchor="middle" x="445" y="-611.5" font-family="Helvetica,sans-Serif" font-size="10.00">txparser.h</text>
</a>
</g>
</g>
<!-- Node1&#45;&gt;Node34 -->
<g id="edge46" class="edge">
<title>Node1&#45;&gt;Node34</title>
<path fill="none" stroke="midnightblue" d="M355.1,-660.45C372.22,-651.89 399.54,-638.23 419.58,-628.21"/>
<polygon fill="midnightblue" stroke="midnightblue" points="421.37,-631.23 428.75,-623.63 418.24,-624.97 421.37,-631.23"/>
</g>
<!-- Node47 -->
<g id="node47" class="node">
<title>Node47</title>
<g id="a_node47"><a xlink:title=" ">
<polygon fill="none" stroke="#bfbfbf" points="493.33,-605.5 493.33,-623.5 562.67,-623.5 562.67,-605.5 493.33,-605.5"/>
<text text-anchor="middle" x="528" y="-611.5" font-family="Helvetica,sans-Serif" font-size="10.00">fmt/format.h</text>
</a>
</g>
</g>
<!-- Node1&#45;&gt;Node47 -->
<g id="edge75" class="edge">
<title>Node1&#45;&gt;Node47</title>
<path fill="none" stroke="midnightblue" d="M364.88,-661.24C397.04,-652.22 452.2,-636.76 489.37,-626.33"/>
<polygon fill="midnightblue" stroke="midnightblue" points="490.66,-629.61 499.34,-623.54 488.77,-622.87 490.66,-629.61"/>
</g>
<!-- Node3 -->
<g id="node3" class="node">
<title>Node3</title>
<g id="a_node3"><a xlink:href="../../dd/dcd/_token_8h.html" target="_top" xlink:title=" ">
<polygon fill="none" stroke="black" points="460.04,-275.5 460.04,-293.5 539.96,-293.5 539.96,-275.5 460.04,-275.5"/>
<text text-anchor="middle" x="500" y="-281.5" font-family="Helvetica,sans-Serif" font-size="10.00">tralics/Token.h</text>
</a>
</g>
</g>
<!-- Node2&#45;&gt;Node3 -->
<g id="edge2" class="edge">
<title>Node2&#45;&gt;Node3</title>
<path fill="none" stroke="midnightblue" d="M322.44,-333.03C354.85,-324.35 418.59,-307.29 460.23,-296.15"/>
<polygon fill="midnightblue" stroke="midnightblue" points="461.29,-299.48 470.05,-293.52 459.48,-292.72 461.29,-299.48"/>
</g>
<!-- Node14 -->
<g id="node14" class="node">
<title>Node14</title>
<g id="a_node14"><a xlink:title=" ">
<polygon fill="none" stroke="#bfbfbf" points="325.61,-220.5 325.61,-238.5 364.39,-238.5 364.39,-220.5 325.61,-220.5"/>
<text text-anchor="middle" x="345" y="-226.5" font-family="Helvetica,sans-Serif" font-size="10.00">array</text>
</a>
</g>
</g>
<!-- Node2&#45;&gt;Node14 -->
<g id="edge14" class="edge">
<title>Node2&#45;&gt;Node14</title>
<path fill="none" stroke="midnightblue" d="M305.23,-330.38C312.14,-313.03 328.49,-271.96 337.94,-248.24"/>
<polygon fill="midnightblue" stroke="midnightblue" points="341.28,-249.3 341.73,-238.71 334.78,-246.71 341.28,-249.3"/>
</g>
<!-- Node4 -->
<g id="node4" class="node">
<title>Node4</title>
<g id="a_node4"><a xlink:href="../../d2/d68/_cmd_chr_8h.html" target="_top" xlink:title=" ">
<polygon fill="none" stroke="black" points="726.49,-220.5 726.49,-238.5 787.51,-238.5 787.51,-220.5 726.49,-220.5"/>
<text text-anchor="middle" x="757" y="-226.5" font-family="Helvetica,sans-Serif" font-size="10.00">CmdChr.h</text>
</a>
</g>
</g>
<!-- Node3&#45;&gt;Node4 -->
<g id="edge3" class="edge">
<title>Node3&#45;&gt;Node4</title>
<path fill="none" stroke="midnightblue" d="M540.21,-275.46C581.93,-267.08 649.32,-253.43 716.45,-239.31"/>
<polygon fill="midnightblue" stroke="midnightblue" points="717.29,-242.71 726.35,-237.22 715.84,-235.86 717.29,-242.71"/>
</g>
<!-- Node13 -->
<g id="node13" class="node">
<title>Node13</title>
<g id="a_node13"><a xlink:title=" ">
<polygon fill="none" stroke="#bfbfbf" points="555.5,-220.5 555.5,-238.5 584.5,-238.5 584.5,-220.5 555.5,-220.5"/>
<text text-anchor="middle" x="569.61" y="-226.5" font-family="Helvetica,sans-Serif" font-size="10.00">list</text>
</a>
</g>
</g>
<!-- Node3&#45;&gt;Node13 -->
<g id="edge13" class="edge">
<title>Node3&#45;&gt;Node13</title>
<path fill="none" stroke="midnightblue" d="M510.63,-275.45C521.32,-267.36 538.03,-254.7 551,-244.88"/>
<polygon fill="midnightblue" stroke="midnightblue" points="553.41,-247.45 559.27,-238.63 549.18,-241.87 553.41,-247.45"/>
</g>
<!-- Node5 -->
<g id="node5" class="node">
<title>Node5</title>
<g id="a_node5"><a xlink:href="../../d8/d47/codepoint_8h.html" target="_top" xlink:title=" ">
<polygon fill="none" stroke="black" points="725.15,-165.5 725.15,-183.5 792.85,-183.5 792.85,-165.5 725.15,-165.5"/>
<text text-anchor="middle" x="759" y="-171.5" font-family="Helvetica,sans-Serif" font-size="10.00">codepoint.h</text>
</a>
</g>
</g>
<!-- Node4&#45;&gt;Node5 -->
<g id="edge4" class="edge">
<title>Node4&#45;&gt;Node5</title>
<path fill="none" stroke="midnightblue" d="M757.31,-220.22C757.58,-213.18 757.97,-202.81 758.31,-193.83"/>
<polygon fill="midnightblue" stroke="midnightblue" points="761.82,-193.67 758.7,-183.55 754.82,-193.41 761.82,-193.67"/>
</g>
<!-- Node11 -->
<g id="node11" class="node">
<title>Node11</title>
<g id="a_node11"><a xlink:href="../../d0/d0b/enums_8h.html" target="_top" xlink:title=" ">
<polygon fill="none" stroke="black" points="652.82,-165.5 652.82,-183.5 707.18,-183.5 707.18,-165.5 652.82,-165.5"/>
<text text-anchor="middle" x="680" y="-171.5" font-family="Helvetica,sans-Serif" font-size="10.00">enums.h</text>
</a>
</g>
</g>
<!-- Node4&#45;&gt;Node11 -->
<g id="edge10" class="edge">
<title>Node4&#45;&gt;Node11</title>
<path fill="none" stroke="midnightblue" d="M745.31,-220.45C733.32,-212.2 714.46,-199.22 700.08,-189.32"/>
<polygon fill="midnightblue" stroke="midnightblue" points="702.03,-186.41 691.8,-183.63 698.06,-192.18 702.03,-186.41"/>
</g>
<!-- Node6 -->
<g id="node6" class="node">
<title>Node6</title>
<g id="a_node6"><a xlink:href="../../d9/d49/types_8h.html" target="_top" xlink:title=" ">
<polygon fill="none" stroke="black" points="667.88,-55.5 667.88,-73.5 716.12,-73.5 716.12,-55.5 667.88,-55.5"/>
<text text-anchor="middle" x="692" y="-61.5" font-family="Helvetica,sans-Serif" font-size="10.00">types.h</text>
</a>
</g>
</g>
<!-- Node5&#45;&gt;Node6 -->
<g id="edge5" class="edge">
<title>Node5&#45;&gt;Node6</title>
<path fill="none" stroke="midnightblue" d="M753.96,-165.38C743.05,-147.79 717.03,-105.85 702.42,-82.29"/>
<polygon fill="midnightblue" stroke="midnightblue" points="705.34,-80.36 697.09,-73.71 699.39,-84.05 705.34,-80.36"/>
</g>
<!-- Node10 -->
<g id="node10" class="node">
<title>Node10</title>
<g id="a_node10"><a xlink:title=" ">
<polygon fill="none" stroke="#bfbfbf" points="748.49,-110.5 748.49,-128.5 799.51,-128.5 799.51,-110.5 748.49,-110.5"/>
<text text-anchor="middle" x="774" y="-116.5" font-family="Helvetica,sans-Serif" font-size="10.00">optional</text>
</a>
</g>
</g>
<!-- Node5&#45;&gt;Node10 -->
<g id="edge9" class="edge">
<title>Node5&#45;&gt;Node10</title>
<path fill="none" stroke="midnightblue" d="M761.34,-165.22C763.38,-158.02 766.4,-147.35 768.98,-138.23"/>
<polygon fill="midnightblue" stroke="midnightblue" points="772.37,-139.12 771.72,-128.55 765.63,-137.22 772.37,-139.12"/>
</g>
<!-- Node7 -->
<g id="node7" class="node">
<title>Node7</title>
<g id="a_node7"><a xlink:title=" ">
<polygon fill="none" stroke="#bfbfbf" points="601.88,-0.5 601.88,-18.5 650.12,-18.5 650.12,-0.5 601.88,-0.5"/>
<text text-anchor="middle" x="626" y="-6.5" font-family="Helvetica,sans-Serif" font-size="10.00">cassert</text>
</a>
</g>
</g>
<!-- Node6&#45;&gt;Node7 -->
<g id="edge6" class="edge">
<title>Node6&#45;&gt;Node7</title>
<path fill="none" stroke="midnightblue" d="M681.98,-55.45C671.99,-47.43 656.44,-34.95 644.26,-25.17"/>
<polygon fill="midnightblue" stroke="midnightblue" points="646.11,-22.16 636.12,-18.63 641.72,-27.62 646.11,-22.16"/>
</g>
<!-- Node8 -->
<g id="node8" class="node">
<title>Node8</title>
<g id="a_node8"><a xlink:title=" ">
<polygon fill="none" stroke="#bfbfbf" points="667.88,-0.5 667.88,-18.5 716.12,-18.5 716.12,-0.5 667.88,-0.5"/>
<text text-anchor="middle" x="692" y="-6.5" font-family="Helvetica,sans-Serif" font-size="10.00">cstddef</text>
</a>
</g>
</g>
<!-- Node6&#45;&gt;Node8 -->
<g id="edge7" class="edge">
<title>Node6&#45;&gt;Node8</title>
<path fill="none" stroke="midnightblue" d="M692,-55.22C692,-48.18 692,-37.81 692,-28.83"/>
<polygon fill="midnightblue" stroke="midnightblue" points="695.5,-28.55 692,-18.55 688.5,-28.55 695.5,-28.55"/>
</g>
<!-- Node9 -->
<g id="node9" class="node">
<title>Node9</title>
<g id="a_node9"><a xlink:title=" ">
<polygon fill="none" stroke="#bfbfbf" points="733.93,-0.5 733.93,-18.5 796.07,-18.5 796.07,-0.5 733.93,-0.5"/>
<text text-anchor="middle" x="765" y="-6.5" font-family="Helvetica,sans-Serif" font-size="10.00">type_traits</text>
</a>
</g>
</g>
<!-- Node6&#45;&gt;Node9 -->
<g id="edge8" class="edge">
<title>Node6&#45;&gt;Node9</title>
<path fill="none" stroke="midnightblue" d="M703.09,-55.45C714.34,-47.28 732,-34.46 745.58,-24.6"/>
<polygon fill="midnightblue" stroke="midnightblue" points="747.77,-27.33 753.81,-18.63 743.66,-21.67 747.77,-27.33"/>
</g>
<!-- Node12 -->
<g id="node12" class="node">
<title>Node12</title>
<g id="a_node12"><a xlink:href="../../d8/db5/consts_8h.html" target="_top" xlink:title=" ">
<polygon fill="none" stroke="black" points="638.38,-110.5 638.38,-128.5 691.62,-128.5 691.62,-110.5 638.38,-110.5"/>
<text text-anchor="middle" x="665" y="-116.5" font-family="Helvetica,sans-Serif" font-size="10.00">consts.h</text>
</a>
</g>
</g>
<!-- Node11&#45;&gt;Node12 -->
<g id="edge11" class="edge">
<title>Node11&#45;&gt;Node12</title>
<path fill="none" stroke="midnightblue" d="M677.66,-165.22C675.62,-158.02 672.6,-147.35 670.02,-138.23"/>
<polygon fill="midnightblue" stroke="midnightblue" points="673.37,-137.22 667.28,-128.55 666.63,-139.12 673.37,-137.22"/>
</g>
<!-- Node12&#45;&gt;Node6 -->
<g id="edge12" class="edge">
<title>Node12&#45;&gt;Node6</title>
<path fill="none" stroke="midnightblue" d="M669.22,-110.22C672.97,-102.86 678.56,-91.88 683.27,-82.64"/>
<polygon fill="midnightblue" stroke="midnightblue" points="686.48,-84.05 687.9,-73.55 680.24,-80.87 686.48,-84.05"/>
</g>
<!-- Node16 -->
<g id="node16" class="node">
<title>Node16</title>
<g id="a_node16"><a xlink:href="../../d4/de9/_main_class_8h.html" target="_top" xlink:title=" ">
<polygon fill="none" stroke="black" points="85.04,-550.5 85.04,-568.5 184.96,-568.5 184.96,-550.5 85.04,-550.5"/>
<text text-anchor="middle" x="135" y="-556.5" font-family="Helvetica,sans-Serif" font-size="10.00">tralics/MainClass.h</text>
</a>
</g>
</g>
<!-- Node15&#45;&gt;Node16 -->
<g id="edge16" class="edge">
<title>Node15&#45;&gt;Node16</title>
<path fill="none" stroke="midnightblue" d="M176.34,-605.22C169.18,-597.47 158.3,-585.7 149.5,-576.18"/>
<polygon fill="midnightblue" stroke="midnightblue" points="151.8,-573.52 142.44,-568.55 146.66,-578.27 151.8,-573.52"/>
</g>
<!-- Node31 -->
<g id="node31" class="node">
<title>Node31</title>
<g id="a_node31"><a xlink:href="../../d2/d06/txlogger_8h.html" target="_top" xlink:title=" ">
<polygon fill="none" stroke="black" points="89.32,-495.5 89.32,-513.5 148.68,-513.5 148.68,-495.5 89.32,-495.5"/>
<text text-anchor="middle" x="119" y="-501.5" font-family="Helvetica,sans-Serif" font-size="10.00">txlogger.h</text>
</a>
</g>
</g>
<!-- Node15&#45;&gt;Node31 -->
<g id="edge38" class="edge">
<title>Node15&#45;&gt;Node31</title>
<path fill="none" stroke="midnightblue" d="M155.98,-610.55C130.32,-606.2 93.71,-595.46 76,-569 64.58,-551.95 82.5,-532.41 98.57,-519.56"/>
<polygon fill="midnightblue" stroke="midnightblue" points="100.74,-522.31 106.64,-513.5 96.54,-516.71 100.74,-522.31"/>
</g>
<!-- Node33 -->
<g id="node33" class="node">
<title>Node33</title>
<g id="a_node33"><a xlink:href="../../d5/d08/txparam_8h.html" target="_top" xlink:title=" ">
<polygon fill="none" stroke="black" points="202.77,-550.5 202.77,-568.5 263.23,-568.5 263.23,-550.5 202.77,-550.5"/>
<text text-anchor="middle" x="233" y="-556.5" font-family="Helvetica,sans-Serif" font-size="10.00">txparam.h</text>
</a>
</g>
</g>
<!-- Node15&#45;&gt;Node33 -->
<g id="edge44" class="edge">
<title>Node15&#45;&gt;Node33</title>
<path fill="none" stroke="midnightblue" d="M191.66,-605.22C198.82,-597.47 209.7,-585.7 218.5,-576.18"/>
<polygon fill="midnightblue" stroke="midnightblue" points="221.34,-578.27 225.56,-568.55 216.2,-573.52 221.34,-578.27"/>
</g>
<!-- Node17 -->
<g id="node17" class="node">
<title>Node17</title>
<g id="a_node17"><a xlink:href="../../de/d29/txio_8h.html" target="_top" xlink:title=" ">
<polygon fill="none" stroke="black" points="176.88,-495.5 176.88,-513.5 225.12,-513.5 225.12,-495.5 176.88,-495.5"/>
<text text-anchor="middle" x="201" y="-501.5" font-family="Helvetica,sans-Serif" font-size="10.00">../txio.h</text>
</a>
</g>
</g>
<!-- Node16&#45;&gt;Node17 -->
<g id="edge17" class="edge">
<title>Node16&#45;&gt;Node17</title>
<path fill="none" stroke="midnightblue" d="M145.02,-550.45C155.01,-542.43 170.56,-529.95 182.74,-520.17"/>
<polygon fill="midnightblue" stroke="midnightblue" points="185.28,-522.62 190.88,-513.63 180.89,-517.16 185.28,-522.62"/>
</g>
<!-- Node18 -->
<g id="node18" class="node">
<title>Node18</title>
<g id="a_node18"><a xlink:href="../../d7/d1b/_buffer_8h.html" target="_top" xlink:title=" ">
<polygon fill="none" stroke="black" points="306.41,-440.5 306.41,-458.5 385.59,-458.5 385.59,-440.5 306.41,-440.5"/>
<text text-anchor="middle" x="346" y="-446.5" font-family="Helvetica,sans-Serif" font-size="10.00">tralics/Buffer.h</text>
</a>
</g>
</g>
<!-- Node17&#45;&gt;Node18 -->
<g id="edge18" class="edge">
<title>Node17&#45;&gt;Node18</title>
<path fill="none" stroke="midnightblue" d="M223.02,-495.45C247.29,-486.58 286.55,-472.23 314.17,-462.13"/>
<polygon fill="midnightblue" stroke="midnightblue" points="315.58,-465.35 323.77,-458.63 313.18,-458.77 315.58,-465.35"/>
</g>
<!-- Node30 -->
<g id="node30" class="node">
<title>Node30</title>
<g id="a_node30"><a xlink:title=" ">
<polygon fill="none" stroke="#bfbfbf" points="176.33,-440.5 176.33,-458.5 225.67,-458.5 225.67,-440.5 176.33,-440.5"/>
<text text-anchor="middle" x="201" y="-446.5" font-family="Helvetica,sans-Serif" font-size="10.00">fstream</text>
</a>
</g>
</g>
<!-- Node17&#45;&gt;Node30 -->
<g id="edge37" class="edge">
<title>Node17&#45;&gt;Node30</title>
<path fill="none" stroke="midnightblue" d="M201,-495.22C201,-488.18 201,-477.81 201,-468.83"/>
<polygon fill="midnightblue" stroke="midnightblue" points="204.5,-468.55 201,-458.55 197.5,-468.55 204.5,-468.55"/>
</g>
<!-- Node19 -->
<g id="node19" class="node">
<title>Node19</title>
<g id="a_node19"><a xlink:href="../../d1/d9e/txid_8h.html" target="_top" xlink:title=" ">
<polygon fill="none" stroke="black" points="264.88,-385.5 264.88,-403.5 313.12,-403.5 313.12,-385.5 264.88,-385.5"/>
<text text-anchor="middle" x="289" y="-391.5" font-family="Helvetica,sans-Serif" font-size="10.00">../txid.h</text>
</a>
</g>
</g>
<!-- Node18&#45;&gt;Node19 -->
<g id="edge19" class="edge">
<title>Node18&#45;&gt;Node19</title>
<path fill="none" stroke="midnightblue" d="M337.09,-440.22C328.59,-432.32 315.59,-420.22 305.25,-410.61"/>
<polygon fill="midnightblue" stroke="midnightblue" points="307.36,-407.8 297.66,-403.55 302.6,-412.92 307.36,-407.8"/>
</g>
<!-- Node26 -->
<g id="node26" class="node">
<title>Node26</title>
<g id="a_node26"><a xlink:href="../../d9/d18/txscaled_8h.html" target="_top" xlink:title=" ">
<polygon fill="none" stroke="black" points="454.32,-385.5 454.32,-403.5 523.68,-403.5 523.68,-385.5 454.32,-385.5"/>
<text text-anchor="middle" x="489" y="-391.5" font-family="Helvetica,sans-Serif" font-size="10.00">../txscaled.h</text>
</a>
</g>
</g>
<!-- Node18&#45;&gt;Node26 -->
<g id="edge31" class="edge">
<title>Node18&#45;&gt;Node26</title>
<path fill="none" stroke="midnightblue" d="M367.72,-440.45C391.66,-431.58 430.37,-417.23 457.61,-407.13"/>
<polygon fill="midnightblue" stroke="midnightblue" points="458.92,-410.38 467.08,-403.63 456.48,-403.82 458.92,-410.38"/>
</g>
<!-- Node29 -->
<g id="node29" class="node">
<title>Node29</title>
<g id="a_node29"><a xlink:title=" ">
<polygon fill="none" stroke="#bfbfbf" points="331.27,-385.5 331.27,-403.5 376.73,-403.5 376.73,-385.5 331.27,-385.5"/>
<text text-anchor="middle" x="354" y="-391.5" font-family="Helvetica,sans-Serif" font-size="10.00">cstring</text>
</a>
</g>
</g>
<!-- Node18&#45;&gt;Node29 -->
<g id="edge36" class="edge">
<title>Node18&#45;&gt;Node29</title>
<path fill="none" stroke="midnightblue" d="M347.25,-440.22C348.32,-433.1 349.91,-422.58 351.28,-413.53"/>
<polygon fill="midnightblue" stroke="midnightblue" points="354.75,-413.96 352.78,-403.55 347.83,-412.92 354.75,-413.96"/>
</g>
<!-- Node20 -->
<g id="node20" class="node">
<title>Node20</title>
<g id="a_node20"><a xlink:href="../../d5/daf/_istring_8h.html" target="_top" xlink:title=" ">
<polygon fill="none" stroke="black" points="361.77,-275.5 361.77,-293.5 442.23,-293.5 442.23,-275.5 361.77,-275.5"/>
<text text-anchor="middle" x="402" y="-281.5" font-family="Helvetica,sans-Serif" font-size="10.00">tralics/Istring.h</text>
</a>
</g>
</g>
<!-- Node19&#45;&gt;Node20 -->
<g id="edge20" class="edge">
<title>Node19&#45;&gt;Node20</title>
<path fill="none" stroke="midnightblue" d="M297.49,-385.38C316.31,-367.4 361.75,-323.97 386.05,-300.75"/>
<polygon fill="midnightblue" stroke="midnightblue" points="388.6,-303.15 393.41,-293.71 383.76,-298.09 388.6,-303.15"/>
</g>
<!-- Node20&#45;&gt;Node11 -->
<g id="edge26" class="edge">
<title>Node20&#45;&gt;Node11</title>
<path fill="none" stroke="midnightblue" d="M422.07,-275.46C443.5,-266.8 478.37,-252.43 508,-239 525.56,-231.04 529.15,-227.3 547,-220 578.78,-207.01 615.89,-194.83 642.83,-186.51"/>
<polygon fill="midnightblue" stroke="midnightblue" points="644.08,-189.79 652.62,-183.51 642.03,-183.09 644.08,-189.79"/>
</g>
<!-- Node20&#45;&gt;Node14 -->
<g id="edge30" class="edge">
<title>Node20&#45;&gt;Node14</title>
<path fill="none" stroke="midnightblue" d="M393.09,-275.22C384.59,-267.32 371.59,-255.22 361.25,-245.61"/>
<polygon fill="midnightblue" stroke="midnightblue" points="363.36,-242.8 353.66,-238.55 358.6,-247.92 363.36,-242.8"/>
</g>
<!-- Node21 -->
<g id="node21" class="node">
<title>Node21</title>
<g id="a_node21"><a xlink:href="../../dd/d47/_str_hash_8h.html" target="_top" xlink:title=" ">
<polygon fill="none" stroke="black" points="438.77,-220.5 438.77,-238.5 499.23,-238.5 499.23,-220.5 438.77,-220.5"/>
<text text-anchor="middle" x="469" y="-226.5" font-family="Helvetica,sans-Serif" font-size="10.00">StrHash.h</text>
</a>
</g>
</g>
<!-- Node20&#45;&gt;Node21 -->
<g id="edge21" class="edge">
<title>Node20&#45;&gt;Node21</title>
<path fill="none" stroke="midnightblue" d="M412.18,-275.45C422.41,-267.36 438.4,-254.7 450.82,-244.88"/>
<polygon fill="midnightblue" stroke="midnightblue" points="453.06,-247.57 458.73,-238.63 448.71,-242.08 453.06,-247.57"/>
</g>
<!-- Node25 -->
<g id="node25" class="node">
<title>Node25</title>
<g id="a_node25"><a xlink:href="../../d8/d3c/util_8h.html" target="_top" xlink:title=" ">
<polygon fill="none" stroke="black" points="383.44,-220.5 383.44,-238.5 420.56,-238.5 420.56,-220.5 383.44,-220.5"/>
<text text-anchor="middle" x="402" y="-226.5" font-family="Helvetica,sans-Serif" font-size="10.00">util.h</text>
</a>
</g>
</g>
<!-- Node20&#45;&gt;Node25 -->
<g id="edge27" class="edge">
<title>Node20&#45;&gt;Node25</title>
<path fill="none" stroke="midnightblue" d="M402,-275.22C402,-268.18 402,-257.81 402,-248.83"/>
<polygon fill="midnightblue" stroke="midnightblue" points="405.5,-248.55 402,-238.55 398.5,-248.55 405.5,-248.55"/>
</g>
<!-- Node21&#45;&gt;Node12 -->
<g id="edge22" class="edge">
<title>Node21&#45;&gt;Node12</title>
<path fill="none" stroke="midnightblue" d="M467.52,-220.29C465.62,-206.89 464.05,-180.31 478,-165 497.89,-143.17 579.68,-130.25 628.26,-124.36"/>
<polygon fill="midnightblue" stroke="midnightblue" points="628.85,-127.81 638.38,-123.18 628.04,-120.86 628.85,-127.81"/>
</g>
<!-- Node22 -->
<g id="node22" class="node">
<title>Node22</title>
<g id="a_node22"><a xlink:title=" ">
<polygon fill="none" stroke="#bfbfbf" points="381.77,-165.5 381.77,-183.5 422.23,-183.5 422.23,-165.5 381.77,-165.5"/>
<text text-anchor="middle" x="402" y="-171.5" font-family="Helvetica,sans-Serif" font-size="10.00">string</text>
</a>
</g>
</g>
<!-- Node21&#45;&gt;Node22 -->
<g id="edge23" class="edge">
<title>Node21&#45;&gt;Node22</title>
<path fill="none" stroke="midnightblue" d="M458.82,-220.45C448.59,-212.36 432.6,-199.7 420.18,-189.88"/>
<polygon fill="midnightblue" stroke="midnightblue" points="422.29,-187.08 412.27,-183.63 417.94,-192.57 422.29,-187.08"/>
</g>
<!-- Node23 -->
<g id="node23" class="node">
<title>Node23</title>
<g id="a_node23"><a xlink:title=" ">
<polygon fill="none" stroke="#bfbfbf" points="548.7,-165.5 548.7,-183.5 635.3,-183.5 635.3,-165.5 548.7,-165.5"/>
<text text-anchor="middle" x="592" y="-171.5" font-family="Helvetica,sans-Serif" font-size="10.00">unordered_map</text>
</a>
</g>
</g>
<!-- Node21&#45;&gt;Node23 -->
<g id="edge24" class="edge">
<title>Node21&#45;&gt;Node23</title>
<path fill="none" stroke="midnightblue" d="M487.68,-220.45C507.91,-211.73 540.41,-197.73 563.76,-187.67"/>
<polygon fill="midnightblue" stroke="midnightblue" points="565.34,-190.8 573.14,-183.63 562.57,-184.37 565.34,-190.8"/>
</g>
<!-- Node24 -->
<g id="node24" class="node">
<title>Node24</title>
<g id="a_node24"><a xlink:title=" ">
<polygon fill="none" stroke="#bfbfbf" points="487.38,-165.5 487.38,-183.5 530.62,-183.5 530.62,-165.5 487.38,-165.5"/>
<text text-anchor="middle" x="509" y="-171.5" font-family="Helvetica,sans-Serif" font-size="10.00">vector</text>
</a>
</g>
</g>
<!-- Node21&#45;&gt;Node24 -->
<g id="edge25" class="edge">
<title>Node21&#45;&gt;Node24</title>
<path fill="none" stroke="midnightblue" d="M475.25,-220.22C480.98,-212.63 489.62,-201.18 496.73,-191.76"/>
<polygon fill="midnightblue" stroke="midnightblue" points="499.69,-193.64 502.92,-183.55 494.11,-189.42 499.69,-193.64"/>
</g>
<!-- Node25&#45;&gt;Node22 -->
<g id="edge28" class="edge">
<title>Node25&#45;&gt;Node22</title>
<path fill="none" stroke="midnightblue" d="M402,-220.22C402,-213.18 402,-202.81 402,-193.83"/>
<polygon fill="midnightblue" stroke="midnightblue" points="405.5,-193.55 402,-183.55 398.5,-193.55 405.5,-193.55"/>
</g>
<!-- Node25&#45;&gt;Node24 -->
<g id="edge29" class="edge">
<title>Node25&#45;&gt;Node24</title>
<path fill="none" stroke="midnightblue" d="M418.25,-220.45C435.61,-211.85 463.36,-198.1 483.61,-188.08"/>
<polygon fill="midnightblue" stroke="midnightblue" points="485.19,-191.2 492.6,-183.63 482.08,-184.93 485.19,-191.2"/>
</g>
<!-- Node27 -->
<g id="node27" class="node">
<title>Node27</title>
<g id="a_node27"><a xlink:href="../../dc/d91/txtokenlist_8h.html" target="_top" xlink:title=" ">
<polygon fill="none" stroke="black" points="455.6,-330.5 455.6,-348.5 524.4,-348.5 524.4,-330.5 455.6,-330.5"/>
<text text-anchor="middle" x="490" y="-336.5" font-family="Helvetica,sans-Serif" font-size="10.00">txtokenlist.h</text>
</a>
</g>
</g>
<!-- Node26&#45;&gt;Node27 -->
<g id="edge32" class="edge">
<title>Node26&#45;&gt;Node27</title>
<path fill="none" stroke="midnightblue" d="M489.16,-385.22C489.29,-378.18 489.48,-367.81 489.65,-358.83"/>
<polygon fill="midnightblue" stroke="midnightblue" points="493.16,-358.61 489.85,-348.55 486.16,-358.48 493.16,-358.61"/>
</g>
<!-- Node27&#45;&gt;Node3 -->
<g id="edge34" class="edge">
<title>Node27&#45;&gt;Node3</title>
<path fill="none" stroke="midnightblue" d="M491.56,-330.22C492.91,-323.1 494.89,-312.58 496.6,-303.53"/>
<polygon fill="midnightblue" stroke="midnightblue" points="500.07,-304.03 498.48,-293.55 493.19,-302.73 500.07,-304.03"/>
</g>
<!-- Node27&#45;&gt;Node20 -->
<g id="edge33" class="edge">
<title>Node27&#45;&gt;Node20</title>
<path fill="none" stroke="midnightblue" d="M476.63,-330.45C462.81,-322.12 440.97,-308.97 424.48,-299.04"/>
<polygon fill="midnightblue" stroke="midnightblue" points="425.86,-295.79 415.49,-293.63 422.25,-301.78 425.86,-295.79"/>
</g>
<!-- Node28 -->
<g id="node28" class="node">
<title>Node28</title>
<g id="a_node28"><a xlink:title=" ">
<polygon fill="none" stroke="#bfbfbf" points="557.61,-275.5 557.61,-293.5 596.39,-293.5 596.39,-275.5 557.61,-275.5"/>
<text text-anchor="middle" x="577" y="-281.5" font-family="Helvetica,sans-Serif" font-size="10.00">utility</text>
</a>
</g>
</g>
<!-- Node27&#45;&gt;Node28 -->
<g id="edge35" class="edge">
<title>Node27&#45;&gt;Node28</title>
<path fill="none" stroke="midnightblue" d="M503.21,-330.45C516.88,-322.12 538.47,-308.97 554.77,-299.04"/>
<polygon fill="midnightblue" stroke="midnightblue" points="556.94,-301.82 563.66,-293.63 553.3,-295.84 556.94,-301.82"/>
</g>
<!-- Node31&#45;&gt;Node18 -->
<g id="edge39" class="edge">
<title>Node31&#45;&gt;Node18</title>
<path fill="none" stroke="midnightblue" d="M149.14,-496.46C188.27,-487.33 256.87,-471.31 301.86,-460.8"/>
<polygon fill="midnightblue" stroke="midnightblue" points="302.7,-464.2 311.65,-458.52 301.11,-457.39 302.7,-464.2"/>
</g>
<!-- Node31&#45;&gt;Node19 -->
<g id="edge40" class="edge">
<title>Node31&#45;&gt;Node19</title>
<path fill="none" stroke="midnightblue" d="M118.49,-495.27C118.13,-481.86 119.46,-455.25 134,-440 165.34,-407.13 219.2,-398.05 254.45,-395.81"/>
<polygon fill="midnightblue" stroke="midnightblue" points="254.93,-399.29 264.75,-395.31 254.6,-392.3 254.93,-399.29"/>
</g>
<!-- Node31&#45;&gt;Node26 -->
<g id="edge41" class="edge">
<title>Node31&#45;&gt;Node26</title>
<path fill="none" stroke="midnightblue" d="M122.62,-495.22C129.21,-481.23 144.59,-453.14 167,-440 190.46,-426.24 361.14,-407.97 444.05,-399.79"/>
<polygon fill="midnightblue" stroke="midnightblue" points="444.57,-403.25 454.19,-398.79 443.89,-396.29 444.57,-403.25"/>
</g>
<!-- Node31&#45;&gt;Node30 -->
<g id="edge42" class="edge">
<title>Node31&#45;&gt;Node30</title>
<path fill="none" stroke="midnightblue" d="M131.45,-495.45C144.22,-487.2 164.31,-474.22 179.62,-464.32"/>
<polygon fill="midnightblue" stroke="midnightblue" points="181.93,-466.99 188.43,-458.63 178.13,-461.11 181.93,-466.99"/>
</g>
<!-- Node32 -->
<g id="node32" class="node">
<title>Node32</title>
<g id="a_node32"><a xlink:title=" ">
<polygon fill="none" stroke="#bfbfbf" points="27.83,-440.5 27.83,-458.5 82.17,-458.5 82.17,-440.5 27.83,-440.5"/>
<text text-anchor="middle" x="55" y="-446.5" font-family="Helvetica,sans-Serif" font-size="10.00">iostream</text>
</a>
</g>
</g>
<!-- Node31&#45;&gt;Node32 -->
<g id="edge43" class="edge">
<title>Node31&#45;&gt;Node32</title>
<path fill="none" stroke="midnightblue" d="M109.28,-495.45C99.6,-487.43 84.52,-474.95 72.71,-465.17"/>
<polygon fill="midnightblue" stroke="midnightblue" points="74.75,-462.31 64.81,-458.63 70.28,-467.7 74.75,-462.31"/>
</g>
<!-- Node33&#45;&gt;Node17 -->
<g id="edge45" class="edge">
<title>Node33&#45;&gt;Node17</title>
<path fill="none" stroke="midnightblue" d="M228,-550.22C223.51,-542.79 216.79,-531.65 211.17,-522.34"/>
<polygon fill="midnightblue" stroke="midnightblue" points="214.03,-520.3 205.86,-513.55 208.03,-523.92 214.03,-520.3"/>
</g>
<!-- Node34&#45;&gt;Node17 -->
<g id="edge68" class="edge">
<title>Node34&#45;&gt;Node17</title>
<path fill="none" stroke="midnightblue" d="M414.83,-605.52C387.01,-597.7 344.88,-584.7 310,-569 277.82,-554.51 242.96,-533.1 221.55,-519.23"/>
<polygon fill="midnightblue" stroke="midnightblue" points="223.26,-516.16 212.98,-513.61 219.42,-522.02 223.26,-516.16"/>
</g>
<!-- Node35 -->
<g id="node35" class="node">
<title>Node35</title>
<g id="a_node35"><a xlink:href="../../d8/dd6/_e_q_t_b_8h.html" target="_top" xlink:title=" ">
<polygon fill="none" stroke="black" points="472.77,-550.5 472.77,-568.5 553.23,-568.5 553.23,-550.5 472.77,-550.5"/>
<text text-anchor="middle" x="513" y="-556.5" font-family="Helvetica,sans-Serif" font-size="10.00">tralics/EQTB.h</text>
</a>
</g>
</g>
<!-- Node34&#45;&gt;Node35 -->
<g id="edge47" class="edge">
<title>Node34&#45;&gt;Node35</title>
<path fill="none" stroke="midnightblue" d="M455.33,-605.45C465.71,-597.36 481.95,-584.7 494.55,-574.88"/>
<polygon fill="midnightblue" stroke="midnightblue" points="496.84,-577.53 502.58,-568.63 492.54,-572.01 496.84,-577.53"/>
</g>
<!-- Node36 -->
<g id="node36" class="node">
<title>Node36</title>
<g id="a_node36"><a xlink:href="../../da/d27/_hashtab_8h.html" target="_top" xlink:title=" ">
<polygon fill="none" stroke="black" points="540.76,-495.5 540.76,-513.5 631.24,-513.5 631.24,-495.5 540.76,-495.5"/>
<text text-anchor="middle" x="586" y="-501.5" font-family="Helvetica,sans-Serif" font-size="10.00">tralics/Hashtab.h</text>
</a>
</g>
</g>
<!-- Node34&#45;&gt;Node36 -->
<g id="edge49" class="edge">
<title>Node34&#45;&gt;Node36</title>
<path fill="none" stroke="midnightblue" d="M474.04,-605.44C504.39,-596.51 549.34,-581.69 562,-569 574.22,-556.76 580.32,-537.68 583.29,-523.63"/>
<polygon fill="midnightblue" stroke="midnightblue" points="586.76,-524.13 585.07,-513.67 579.87,-522.9 586.76,-524.13"/>
</g>
<!-- Node38 -->
<g id="node38" class="node">
<title>Node38</title>
<g id="a_node38"><a xlink:href="../../d3/d6b/txcond_8h.html" target="_top" xlink:title=" ">
<polygon fill="none" stroke="black" points="655.1,-220.5 655.1,-238.5 708.9,-238.5 708.9,-220.5 655.1,-220.5"/>
<text text-anchor="middle" x="682" y="-226.5" font-family="Helvetica,sans-Serif" font-size="10.00">txcond.h</text>
</a>
</g>
</g>
<!-- Node34&#45;&gt;Node38 -->
<g id="edge56" class="edge">
<title>Node34&#45;&gt;Node38</title>
<path fill="none" stroke="midnightblue" d="M475.2,-606.72C478.17,-606.12 481.14,-605.53 484,-605 535.95,-595.37 679.14,-603.68 719,-569 741.22,-549.66 738,-534.96 738,-505.5 738,-505.5 738,-505.5 738,-393.5 738,-337.56 708.13,-276.39 692.02,-247.47"/>
<polygon fill="midnightblue" stroke="midnightblue" points="694.98,-245.58 686.97,-238.64 688.9,-249.06 694.98,-245.58"/>
</g>
<!-- Node39 -->
<g id="node39" class="node">
<title>Node39</title>
<g id="a_node39"><a xlink:href="../../d7/d4d/txfonts_8h.html" target="_top" xlink:title=" ">
<polygon fill="none" stroke="black" points="580.1,-330.5 580.1,-348.5 633.9,-348.5 633.9,-330.5 580.1,-330.5"/>
<text text-anchor="middle" x="607" y="-336.5" font-family="Helvetica,sans-Serif" font-size="10.00">txfonts.h</text>
</a>
</g>
</g>
<!-- Node34&#45;&gt;Node39 -->
<g id="edge59" class="edge">
<title>Node34&#45;&gt;Node39</title>
<path fill="none" stroke="midnightblue" d="M474.81,-605.49C509.31,-595.92 563.73,-579.86 582,-569 612.53,-550.84 625.97,-546.64 640,-514 663.16,-460.11 633.28,-389.88 616.7,-357.82"/>
<polygon fill="midnightblue" stroke="midnightblue" points="619.68,-355.98 611.86,-348.82 613.51,-359.29 619.68,-355.98"/>
</g>
<!-- Node40 -->
<g id="node40" class="node">
<title>Node40</title>
<g id="a_node40"><a xlink:href="../../d7/d7e/txhash_8h.html" target="_top" xlink:title=" ">
<polygon fill="none" stroke="black" points="431.1,-495.5 431.1,-513.5 484.9,-513.5 484.9,-495.5 431.1,-495.5"/>
<text text-anchor="middle" x="458" y="-501.5" font-family="Helvetica,sans-Serif" font-size="10.00">txhash.h</text>
</a>
</g>
</g>
<!-- Node34&#45;&gt;Node40 -->
<g id="edge62" class="edge">
<title>Node34&#45;&gt;Node40</title>
<path fill="none" stroke="midnightblue" d="M445.98,-605.38C448.05,-588.18 452.92,-547.7 455.79,-523.89"/>
<polygon fill="midnightblue" stroke="midnightblue" points="459.29,-524.06 457.01,-513.71 452.34,-523.22 459.29,-524.06"/>
</g>
<!-- Node41 -->
<g id="node41" class="node">
<title>Node41</title>
<g id="a_node41"><a xlink:href="../../de/d7c/tximage_8h.html" target="_top" xlink:title=" ">
<polygon fill="none" stroke="black" points="378.32,-330.5 378.32,-348.5 437.68,-348.5 437.68,-330.5 378.32,-330.5"/>
<text text-anchor="middle" x="408" y="-336.5" font-family="Helvetica,sans-Serif" font-size="10.00">tximage.h</text>
</a>
</g>
</g>
<!-- Node34&#45;&gt;Node41 -->
<g id="edge65" class="edge">
<title>Node34&#45;&gt;Node41</title>
<path fill="none" stroke="midnightblue" d="M442.68,-605.32C437.98,-588.42 427.32,-548.34 422,-514 413.3,-457.86 409.83,-390.62 408.6,-358.85"/>
<polygon fill="midnightblue" stroke="midnightblue" points="412.08,-358.37 408.23,-348.5 405.09,-358.62 412.08,-358.37"/>
</g>
<!-- Node42 -->
<g id="node42" class="node">
<title>Node42</title>
<g id="a_node42"><a xlink:href="../../dc/d65/txstack_8h.html" target="_top" xlink:title=" ">
<polygon fill="none" stroke="black" points="319.27,-550.5 319.27,-568.5 374.73,-568.5 374.73,-550.5 319.27,-550.5"/>
<text text-anchor="middle" x="347" y="-556.5" font-family="Helvetica,sans-Serif" font-size="10.00">txstack.h</text>
</a>
</g>
</g>
<!-- Node34&#45;&gt;Node42 -->
<g id="edge69" class="edge">
<title>Node34&#45;&gt;Node42</title>
<path fill="none" stroke="midnightblue" d="M430.12,-605.45C414.43,-596.97 389.49,-583.48 371.01,-573.49"/>
<polygon fill="midnightblue" stroke="midnightblue" points="372.49,-570.3 362.02,-568.63 369.16,-576.46 372.49,-570.3"/>
</g>
<!-- Node46 -->
<g id="node46" class="node">
<title>Node46</title>
<g id="a_node46"><a xlink:href="../../d8/d3d/txstats_8h.html" target="_top" xlink:title=" ">
<polygon fill="none" stroke="black" points="656.38,-550.5 656.38,-568.5 709.62,-568.5 709.62,-550.5 656.38,-550.5"/>
<text text-anchor="middle" x="683" y="-556.5" font-family="Helvetica,sans-Serif" font-size="10.00">txstats.h</text>
</a>
</g>
</g>
<!-- Node34&#45;&gt;Node46 -->
<g id="edge74" class="edge">
<title>Node34&#45;&gt;Node46</title>
<path fill="none" stroke="midnightblue" d="M475.14,-606.79C518.73,-597.08 599.25,-579.15 646.26,-568.68"/>
<polygon fill="midnightblue" stroke="midnightblue" points="647.03,-572.09 656.03,-566.5 645.51,-565.26 647.03,-572.09"/>
</g>
<!-- Node35&#45;&gt;Node26 -->
<g id="edge48" class="edge">
<title>Node35&#45;&gt;Node26</title>
<path fill="none" stroke="midnightblue" d="M511.78,-550.19C508.07,-525.01 496.89,-449.11 491.7,-413.86"/>
<polygon fill="midnightblue" stroke="midnightblue" points="495.11,-412.98 490.19,-403.6 488.19,-414 495.11,-412.98"/>
</g>
<!-- Node36&#45;&gt;Node18 -->
<g id="edge54" class="edge">
<title>Node36&#45;&gt;Node18</title>
<path fill="none" stroke="midnightblue" d="M549.55,-495.45C507.49,-486.16 438.25,-470.87 392.38,-460.74"/>
<polygon fill="midnightblue" stroke="midnightblue" points="392.92,-457.28 382.4,-458.54 391.41,-464.11 392.92,-457.28"/>
</g>
<!-- Node36&#45;&gt;Node23 -->
<g id="edge55" class="edge">
<title>Node36&#45;&gt;Node23</title>
<path fill="none" stroke="midnightblue" d="M590.16,-495.42C601.45,-472.95 632.55,-407.54 643,-349 653.51,-290.15 620.18,-222.87 602.4,-192.25"/>
<polygon fill="midnightblue" stroke="midnightblue" points="605.39,-190.43 597.25,-183.65 599.39,-194.03 605.39,-190.43"/>
</g>
<!-- Node37 -->
<g id="node37" class="node">
<title>Node37</title>
<g id="a_node37"><a xlink:href="../../d3/d01/txeqtb_8h.html" target="_top" xlink:title=" ">
<polygon fill="none" stroke="black" points="533.04,-440.5 533.04,-458.5 592.96,-458.5 592.96,-440.5 533.04,-440.5"/>
<text text-anchor="middle" x="563" y="-446.5" font-family="Helvetica,sans-Serif" font-size="10.00">../txeqtb.h</text>
</a>
</g>
</g>
<!-- Node36&#45;&gt;Node37 -->
<g id="edge50" class="edge">
<title>Node36&#45;&gt;Node37</title>
<path fill="none" stroke="midnightblue" d="M582.41,-495.22C579.25,-487.94 574.55,-477.11 570.57,-467.93"/>
<polygon fill="midnightblue" stroke="midnightblue" points="573.68,-466.33 566.49,-458.55 567.26,-469.12 573.68,-466.33"/>
</g>
<!-- Node37&#45;&gt;Node3 -->
<g id="edge52" class="edge">
<title>Node37&#45;&gt;Node3</title>
<path fill="none" stroke="midnightblue" d="M562.05,-440.37C559.51,-420.63 551.47,-368.92 533,-330 528.16,-319.79 520.81,-309.58 514.27,-301.52"/>
<polygon fill="midnightblue" stroke="midnightblue" points="516.79,-299.08 507.66,-293.71 511.45,-303.61 516.79,-299.08"/>
</g>
<!-- Node37&#45;&gt;Node4 -->
<g id="edge51" class="edge">
<title>Node37&#45;&gt;Node4</title>
<path fill="none" stroke="midnightblue" d="M570.13,-440.48C598.59,-408.51 704.29,-289.74 742.82,-246.43"/>
<polygon fill="midnightblue" stroke="midnightblue" points="745.56,-248.62 749.59,-238.82 740.33,-243.97 745.56,-248.62"/>
</g>
<!-- Node37&#45;&gt;Node26 -->
<g id="edge53" class="edge">
<title>Node37&#45;&gt;Node26</title>
<path fill="none" stroke="midnightblue" d="M551.76,-440.45C540.35,-432.28 522.45,-419.46 508.69,-409.6"/>
<polygon fill="midnightblue" stroke="midnightblue" points="510.51,-406.6 500.34,-403.63 506.44,-412.29 510.51,-406.6"/>
</g>
<!-- Node38&#45;&gt;Node11 -->
<g id="edge57" class="edge">
<title>Node38&#45;&gt;Node11</title>
<path fill="none" stroke="midnightblue" d="M681.69,-220.22C681.42,-213.18 681.03,-202.81 680.69,-193.83"/>
<polygon fill="midnightblue" stroke="midnightblue" points="684.18,-193.41 680.3,-183.55 677.18,-193.67 684.18,-193.41"/>
</g>
<!-- Node38&#45;&gt;Node24 -->
<g id="edge58" class="edge">
<title>Node38&#45;&gt;Node24</title>
<path fill="none" stroke="midnightblue" d="M655.73,-220.45C624.8,-210.98 573.49,-195.26 540.47,-185.14"/>
<polygon fill="midnightblue" stroke="midnightblue" points="541.44,-181.78 530.85,-182.2 539.39,-188.47 541.44,-181.78"/>
</g>
<!-- Node39&#45;&gt;Node21 -->
<g id="edge61" class="edge">
<title>Node39&#45;&gt;Node21</title>
<path fill="none" stroke="midnightblue" d="M609.5,-330.11C612.88,-316.94 617.17,-291.24 605,-275 582.98,-245.62 541.06,-235.33 509.55,-231.88"/>
<polygon fill="midnightblue" stroke="midnightblue" points="509.59,-228.37 499.31,-230.96 508.96,-235.34 509.59,-228.37"/>
</g>
<!-- Node39&#45;&gt;Node28 -->
<g id="edge60" class="edge">
<title>Node39&#45;&gt;Node28</title>
<path fill="none" stroke="midnightblue" d="M602.31,-330.22C598.11,-322.79 591.8,-311.65 586.53,-302.34"/>
<polygon fill="midnightblue" stroke="midnightblue" points="589.53,-300.53 581.56,-293.55 583.44,-303.98 589.53,-300.53"/>
</g>
<!-- Node40&#45;&gt;Node18 -->
<g id="edge63" class="edge">
<title>Node40&#45;&gt;Node18</title>
<path fill="none" stroke="midnightblue" d="M440.99,-495.45C422.73,-486.81 393.51,-472.98 372.29,-462.94"/>
<polygon fill="midnightblue" stroke="midnightblue" points="373.71,-459.74 363.17,-458.63 370.71,-466.07 373.71,-459.74"/>
</g>
<!-- Node40&#45;&gt;Node37 -->
<g id="edge64" class="edge">
<title>Node40&#45;&gt;Node37</title>
<path fill="none" stroke="midnightblue" d="M473.95,-495.45C490.91,-486.89 517.97,-473.23 537.82,-463.21"/>
<polygon fill="midnightblue" stroke="midnightblue" points="539.55,-466.26 546.9,-458.63 536.4,-460.01 539.55,-466.26"/>
</g>
<!-- Node41&#45;&gt;Node22 -->
<g id="edge66" class="edge">
<title>Node41&#45;&gt;Node22</title>
<path fill="none" stroke="midnightblue" d="M395.16,-330.33C373.22,-315.43 329.64,-281.4 317,-239 314.59,-230.91 312.63,-227.22 317,-220 328.9,-200.34 352.66,-188.95 372.04,-182.62"/>
<polygon fill="midnightblue" stroke="midnightblue" points="373.1,-185.96 381.69,-179.76 371.1,-179.25 373.1,-185.96"/>
</g>
<!-- Node41&#45;&gt;Node28 -->
<g id="edge67" class="edge">
<title>Node41&#45;&gt;Node28</title>
<path fill="none" stroke="midnightblue" d="M433.67,-330.45C464.33,-320.83 515.51,-304.78 547.7,-294.69"/>
<polygon fill="midnightblue" stroke="midnightblue" points="548.93,-297.97 557.43,-291.64 546.84,-291.29 548.93,-297.97"/>
</g>
<!-- Node43 -->
<g id="node43" class="node">
<title>Node43</title>
<g id="a_node43"><a xlink:href="../../d9/d1c/_xml_8h.html" target="_top" xlink:title=" ">
<polygon fill="none" stroke="black" points="304.77,-495.5 304.77,-513.5 375.23,-513.5 375.23,-495.5 304.77,-495.5"/>
<text text-anchor="middle" x="340" y="-501.5" font-family="Helvetica,sans-Serif" font-size="10.00">tralics/Xml.h</text>
</a>
</g>
</g>
<!-- Node42&#45;&gt;Node43 -->
<g id="edge70" class="edge">
<title>Node42&#45;&gt;Node43</title>
<path fill="none" stroke="midnightblue" d="M345.91,-550.22C344.97,-543.1 343.58,-532.58 342.38,-523.53"/>
<polygon fill="midnightblue" stroke="midnightblue" points="345.84,-523.01 341.06,-513.55 338.9,-523.92 345.84,-523.01"/>
</g>
<!-- Node45 -->
<g id="node45" class="node">
<title>Node45</title>
<g id="a_node45"><a xlink:href="../../d4/da4/txatt_8h.html" target="_top" xlink:title=" ">
<polygon fill="none" stroke="black" points="243.38,-495.5 243.38,-513.5 286.62,-513.5 286.62,-495.5 243.38,-495.5"/>
<text text-anchor="middle" x="265" y="-501.5" font-family="Helvetica,sans-Serif" font-size="10.00">txatt.h</text>
</a>
</g>
</g>
<!-- Node42&#45;&gt;Node45 -->
<g id="edge73" class="edge">
<title>Node42&#45;&gt;Node45</title>
<path fill="none" stroke="midnightblue" d="M334.55,-550.45C321.78,-542.2 301.69,-529.22 286.38,-519.32"/>
<polygon fill="midnightblue" stroke="midnightblue" points="287.87,-516.11 277.57,-513.63 284.07,-521.99 287.87,-516.11"/>
</g>
<!-- Node43&#45;&gt;Node18 -->
<g id="edge71" class="edge">
<title>Node43&#45;&gt;Node18</title>
<path fill="none" stroke="midnightblue" d="M340.94,-495.22C341.74,-488.1 342.93,-477.58 343.96,-468.53"/>
<polygon fill="midnightblue" stroke="midnightblue" points="347.44,-468.88 345.09,-458.55 340.49,-468.09 347.44,-468.88"/>
</g>
<!-- Node44 -->
<g id="node44" class="node">
<title>Node44</title>
<g id="a_node44"><a xlink:title=" ">
<polygon fill="none" stroke="#bfbfbf" points="243.83,-440.5 243.83,-458.5 288.17,-458.5 288.17,-440.5 243.83,-440.5"/>
<text text-anchor="middle" x="266" y="-446.5" font-family="Helvetica,sans-Serif" font-size="10.00">gsl/gsl</text>
</a>
</g>
</g>
<!-- Node43&#45;&gt;Node44 -->
<g id="edge72" class="edge">
<title>Node43&#45;&gt;Node44</title>
<path fill="none" stroke="midnightblue" d="M328.76,-495.45C317.35,-487.28 299.45,-474.46 285.69,-464.6"/>
<polygon fill="midnightblue" stroke="midnightblue" points="287.51,-461.6 277.34,-458.63 283.44,-467.29 287.51,-461.6"/>
</g>
</g>
</svg>
