<?xml version="1.0" encoding="UTF-8" standalone="no"?>
<!DOCTYPE svg PUBLIC "-//W3C//DTD SVG 1.1//EN"
 "http://www.w3.org/Graphics/SVG/1.1/DTD/svg11.dtd">
<!-- Generated by graphviz version 2.42.3 (20191010.1750)
 -->
<!-- Title: txfp.cpp Pages: 1 -->
<svg width="733pt" height="742pt"
 viewBox="0.00 0.00 733.00 742.00" xmlns="http://www.w3.org/2000/svg" xmlns:xlink="http://www.w3.org/1999/xlink">
<g id="graph0" class="graph" transform="scale(1 1) rotate(0) translate(4 738)">
<title>txfp.cpp</title>
<!-- Node1 -->
<g id="node1" class="node">
<title>Node1</title>
<g id="a_node1"><a xlink:title=" ">
<polygon fill="#bfbfbf" stroke="black" points="323.49,-715.5 323.49,-733.5 374.51,-733.5 374.51,-715.5 323.49,-715.5"/>
<text text-anchor="middle" x="349" y="-721.5" font-family="Helvetica,sans-Serif" font-size="10.00">txfp.cpp</text>
</a>
</g>
</g>
<!-- Node2 -->
<g id="node2" class="node">
<title>Node2</title>
<g id="a_node2"><a xlink:href="../../d0/de6/txfp_8h.html" target="_top" xlink:title=" ">
<polygon fill="none" stroke="black" points="206.77,-330.5 206.77,-348.5 247.23,-348.5 247.23,-330.5 206.77,-330.5"/>
<text text-anchor="middle" x="227" y="-336.5" font-family="Helvetica,sans-Serif" font-size="10.00">txfp.h</text>
</a>
</g>
</g>
<!-- Node1&#45;&gt;Node2 -->
<g id="edge1" class="edge">
<title>Node1&#45;&gt;Node2</title>
<path fill="none" stroke="midnightblue" d="M323.28,-720.22C248.77,-709.99 38,-675.73 38,-615.5 38,-615.5 38,-615.5 38,-448.5 38,-376.4 142.97,-351.78 196.45,-343.92"/>
<polygon fill="midnightblue" stroke="midnightblue" points="196.98,-347.38 206.41,-342.56 196.03,-340.44 196.98,-347.38"/>
</g>
<!-- Node15 -->
<g id="node15" class="node">
<title>Node15</title>
<g id="a_node15"><a xlink:href="../../d7/d79/txinline_8h.html" target="_top" xlink:title=" ">
<polygon fill="none" stroke="black" points="195.27,-660.5 195.27,-678.5 250.73,-678.5 250.73,-660.5 195.27,-660.5"/>
<text text-anchor="middle" x="223" y="-666.5" font-family="Helvetica,sans-Serif" font-size="10.00">txinline.h</text>
</a>
</g>
</g>
<!-- Node1&#45;&gt;Node15 -->
<g id="edge15" class="edge">
<title>Node1&#45;&gt;Node15</title>
<path fill="none" stroke="midnightblue" d="M329.86,-715.45C309.05,-706.7 275.55,-692.61 251.61,-682.53"/>
<polygon fill="midnightblue" stroke="midnightblue" points="252.89,-679.28 242.32,-678.63 250.18,-685.73 252.89,-679.28"/>
</g>
<!-- Node33 -->
<g id="node33" class="node">
<title>Node33</title>
<g id="a_node33"><a xlink:href="../../d2/d1b/txparser_8h.html" target="_top" xlink:title=" ">
<polygon fill="none" stroke="black" points="423.04,-660.5 423.04,-678.5 482.96,-678.5 482.96,-660.5 423.04,-660.5"/>
<text text-anchor="middle" x="453" y="-666.5" font-family="Helvetica,sans-Serif" font-size="10.00">txparser.h</text>
</a>
</g>
</g>
<!-- Node1&#45;&gt;Node33 -->
<g id="edge41" class="edge">
<title>Node1&#45;&gt;Node33</title>
<path fill="none" stroke="midnightblue" d="M364.8,-715.45C381.59,-706.89 408.4,-693.23 428.06,-683.21"/>
<polygon fill="midnightblue" stroke="midnightblue" points="429.74,-686.28 437.06,-678.63 426.56,-680.05 429.74,-686.28"/>
</g>
<!-- Node44 -->
<g id="node44" class="node">
<title>Node44</title>
<g id="a_node44"><a xlink:title=" ">
<polygon fill="none" stroke="#bfbfbf" points="501.33,-660.5 501.33,-678.5 570.67,-678.5 570.67,-660.5 501.33,-660.5"/>
<text text-anchor="middle" x="536" y="-666.5" font-family="Helvetica,sans-Serif" font-size="10.00">fmt/format.h</text>
</a>
</g>
</g>
<!-- Node1&#45;&gt;Node44 -->
<g id="edge62" class="edge">
<title>Node1&#45;&gt;Node44</title>
<path fill="none" stroke="midnightblue" d="M374.61,-716.24C406.43,-707.22 461,-691.76 497.78,-681.33"/>
<polygon fill="midnightblue" stroke="midnightblue" points="498.98,-684.63 507.65,-678.54 497.07,-677.9 498.98,-684.63"/>
</g>
<!-- Node3 -->
<g id="node3" class="node">
<title>Node3</title>
<g id="a_node3"><a xlink:href="../../dd/dcd/_token_8h.html" target="_top" xlink:title=" ">
<polygon fill="none" stroke="black" points="187.04,-275.5 187.04,-293.5 266.96,-293.5 266.96,-275.5 187.04,-275.5"/>
<text text-anchor="middle" x="227" y="-281.5" font-family="Helvetica,sans-Serif" font-size="10.00">tralics/Token.h</text>
</a>
</g>
</g>
<!-- Node2&#45;&gt;Node3 -->
<g id="edge2" class="edge">
<title>Node2&#45;&gt;Node3</title>
<path fill="none" stroke="midnightblue" d="M227,-330.22C227,-323.18 227,-312.81 227,-303.83"/>
<polygon fill="midnightblue" stroke="midnightblue" points="230.5,-303.55 227,-293.55 223.5,-303.55 230.5,-303.55"/>
</g>
<!-- Node14 -->
<g id="node14" class="node">
<title>Node14</title>
<g id="a_node14"><a xlink:title=" ">
<polygon fill="none" stroke="#bfbfbf" points="275.61,-220.5 275.61,-238.5 314.39,-238.5 314.39,-220.5 275.61,-220.5"/>
<text text-anchor="middle" x="295" y="-226.5" font-family="Helvetica,sans-Serif" font-size="10.00">array</text>
</a>
</g>
</g>
<!-- Node2&#45;&gt;Node14 -->
<g id="edge14" class="edge">
<title>Node2&#45;&gt;Node14</title>
<path fill="none" stroke="midnightblue" d="M239.22,-330.38C250.34,-322.37 266.45,-309.17 276,-294 284.72,-280.16 289.62,-262.1 292.24,-248.78"/>
<polygon fill="midnightblue" stroke="midnightblue" points="295.7,-249.36 293.95,-238.91 288.8,-248.16 295.7,-249.36"/>
</g>
<!-- Node4 -->
<g id="node4" class="node">
<title>Node4</title>
<g id="a_node4"><a xlink:href="../../d2/d68/_cmd_chr_8h.html" target="_top" xlink:title=" ">
<polygon fill="none" stroke="black" points="196.49,-220.5 196.49,-238.5 257.51,-238.5 257.51,-220.5 196.49,-220.5"/>
<text text-anchor="middle" x="227" y="-226.5" font-family="Helvetica,sans-Serif" font-size="10.00">CmdChr.h</text>
</a>
</g>
</g>
<!-- Node3&#45;&gt;Node4 -->
<g id="edge3" class="edge">
<title>Node3&#45;&gt;Node4</title>
<path fill="none" stroke="midnightblue" d="M227,-275.22C227,-268.18 227,-257.81 227,-248.83"/>
<polygon fill="midnightblue" stroke="midnightblue" points="230.5,-248.55 227,-238.55 223.5,-248.55 230.5,-248.55"/>
</g>
<!-- Node13 -->
<g id="node13" class="node">
<title>Node13</title>
<g id="a_node13"><a xlink:title=" ">
<polygon fill="none" stroke="#bfbfbf" points="149.5,-220.5 149.5,-238.5 178.5,-238.5 178.5,-220.5 149.5,-220.5"/>
<text text-anchor="middle" x="163.61" y="-226.5" font-family="Helvetica,sans-Serif" font-size="10.00">list</text>
</a>
</g>
</g>
<!-- Node3&#45;&gt;Node13 -->
<g id="edge13" class="edge">
<title>Node3&#45;&gt;Node13</title>
<path fill="none" stroke="midnightblue" d="M217.43,-275.45C207.9,-267.43 193.06,-254.95 181.43,-245.17"/>
<polygon fill="midnightblue" stroke="midnightblue" points="183.56,-242.38 173.66,-238.63 179.06,-247.74 183.56,-242.38"/>
</g>
<!-- Node5 -->
<g id="node5" class="node">
<title>Node5</title>
<g id="a_node5"><a xlink:href="../../d8/d47/codepoint_8h.html" target="_top" xlink:title=" ">
<polygon fill="none" stroke="black" points="232.15,-165.5 232.15,-183.5 299.85,-183.5 299.85,-165.5 232.15,-165.5"/>
<text text-anchor="middle" x="266" y="-171.5" font-family="Helvetica,sans-Serif" font-size="10.00">codepoint.h</text>
</a>
</g>
</g>
<!-- Node4&#45;&gt;Node5 -->
<g id="edge4" class="edge">
<title>Node4&#45;&gt;Node5</title>
<path fill="none" stroke="midnightblue" d="M233.09,-220.22C238.68,-212.63 247.11,-201.18 254.04,-191.76"/>
<polygon fill="midnightblue" stroke="midnightblue" points="256.97,-193.68 260.08,-183.55 251.33,-189.53 256.97,-193.68"/>
</g>
<!-- Node11 -->
<g id="node11" class="node">
<title>Node11</title>
<g id="a_node11"><a xlink:href="../../d0/d0b/enums_8h.html" target="_top" xlink:title=" ">
<polygon fill="none" stroke="black" points="159.82,-165.5 159.82,-183.5 214.18,-183.5 214.18,-165.5 159.82,-165.5"/>
<text text-anchor="middle" x="187" y="-171.5" font-family="Helvetica,sans-Serif" font-size="10.00">enums.h</text>
</a>
</g>
</g>
<!-- Node4&#45;&gt;Node11 -->
<g id="edge10" class="edge">
<title>Node4&#45;&gt;Node11</title>
<path fill="none" stroke="midnightblue" d="M220.75,-220.22C215.02,-212.63 206.38,-201.18 199.27,-191.76"/>
<polygon fill="midnightblue" stroke="midnightblue" points="201.89,-189.42 193.08,-183.55 196.31,-193.64 201.89,-189.42"/>
</g>
<!-- Node6 -->
<g id="node6" class="node">
<title>Node6</title>
<g id="a_node6"><a xlink:href="../../d9/d49/types_8h.html" target="_top" xlink:title=" ">
<polygon fill="none" stroke="black" points="224.88,-55.5 224.88,-73.5 273.12,-73.5 273.12,-55.5 224.88,-55.5"/>
<text text-anchor="middle" x="249" y="-61.5" font-family="Helvetica,sans-Serif" font-size="10.00">types.h</text>
</a>
</g>
</g>
<!-- Node5&#45;&gt;Node6 -->
<g id="edge5" class="edge">
<title>Node5&#45;&gt;Node6</title>
<path fill="none" stroke="midnightblue" d="M273.64,-165.29C283.92,-153.2 300.04,-129.88 292,-110 287.25,-98.26 277.76,-87.89 268.89,-80.12"/>
<polygon fill="midnightblue" stroke="midnightblue" points="271.05,-77.37 261.09,-73.76 266.63,-82.79 271.05,-77.37"/>
</g>
<!-- Node10 -->
<g id="node10" class="node">
<title>Node10</title>
<g id="a_node10"><a xlink:title=" ">
<polygon fill="none" stroke="#bfbfbf" points="231.49,-110.5 231.49,-128.5 282.51,-128.5 282.51,-110.5 231.49,-110.5"/>
<text text-anchor="middle" x="257" y="-116.5" font-family="Helvetica,sans-Serif" font-size="10.00">optional</text>
</a>
</g>
</g>
<!-- Node5&#45;&gt;Node10 -->
<g id="edge9" class="edge">
<title>Node5&#45;&gt;Node10</title>
<path fill="none" stroke="midnightblue" d="M264.59,-165.22C263.38,-158.1 261.6,-147.58 260.06,-138.53"/>
<polygon fill="midnightblue" stroke="midnightblue" points="263.49,-137.82 258.37,-128.55 256.59,-138.99 263.49,-137.82"/>
</g>
<!-- Node7 -->
<g id="node7" class="node">
<title>Node7</title>
<g id="a_node7"><a xlink:title=" ">
<polygon fill="none" stroke="#bfbfbf" points="158.88,-0.5 158.88,-18.5 207.12,-18.5 207.12,-0.5 158.88,-0.5"/>
<text text-anchor="middle" x="183" y="-6.5" font-family="Helvetica,sans-Serif" font-size="10.00">cassert</text>
</a>
</g>
</g>
<!-- Node6&#45;&gt;Node7 -->
<g id="edge6" class="edge">
<title>Node6&#45;&gt;Node7</title>
<path fill="none" stroke="midnightblue" d="M238.98,-55.45C228.99,-47.43 213.44,-34.95 201.26,-25.17"/>
<polygon fill="midnightblue" stroke="midnightblue" points="203.11,-22.16 193.12,-18.63 198.72,-27.62 203.11,-22.16"/>
</g>
<!-- Node8 -->
<g id="node8" class="node">
<title>Node8</title>
<g id="a_node8"><a xlink:title=" ">
<polygon fill="none" stroke="#bfbfbf" points="224.88,-0.5 224.88,-18.5 273.12,-18.5 273.12,-0.5 224.88,-0.5"/>
<text text-anchor="middle" x="249" y="-6.5" font-family="Helvetica,sans-Serif" font-size="10.00">cstddef</text>
</a>
</g>
</g>
<!-- Node6&#45;&gt;Node8 -->
<g id="edge7" class="edge">
<title>Node6&#45;&gt;Node8</title>
<path fill="none" stroke="midnightblue" d="M249,-55.22C249,-48.18 249,-37.81 249,-28.83"/>
<polygon fill="midnightblue" stroke="midnightblue" points="252.5,-28.55 249,-18.55 245.5,-28.55 252.5,-28.55"/>
</g>
<!-- Node9 -->
<g id="node9" class="node">
<title>Node9</title>
<g id="a_node9"><a xlink:title=" ">
<polygon fill="none" stroke="#bfbfbf" points="290.93,-0.5 290.93,-18.5 353.07,-18.5 353.07,-0.5 290.93,-0.5"/>
<text text-anchor="middle" x="322" y="-6.5" font-family="Helvetica,sans-Serif" font-size="10.00">type_traits</text>
</a>
</g>
</g>
<!-- Node6&#45;&gt;Node9 -->
<g id="edge8" class="edge">
<title>Node6&#45;&gt;Node9</title>
<path fill="none" stroke="midnightblue" d="M260.09,-55.45C271.34,-47.28 289,-34.46 302.58,-24.6"/>
<polygon fill="midnightblue" stroke="midnightblue" points="304.77,-27.33 310.81,-18.63 300.66,-21.67 304.77,-27.33"/>
</g>
<!-- Node12 -->
<g id="node12" class="node">
<title>Node12</title>
<g id="a_node12"><a xlink:href="../../d8/db5/consts_8h.html" target="_top" xlink:title=" ">
<polygon fill="none" stroke="black" points="160.38,-110.5 160.38,-128.5 213.62,-128.5 213.62,-110.5 160.38,-110.5"/>
<text text-anchor="middle" x="187" y="-116.5" font-family="Helvetica,sans-Serif" font-size="10.00">consts.h</text>
</a>
</g>
</g>
<!-- Node11&#45;&gt;Node12 -->
<g id="edge11" class="edge">
<title>Node11&#45;&gt;Node12</title>
<path fill="none" stroke="midnightblue" d="M187,-165.22C187,-158.18 187,-147.81 187,-138.83"/>
<polygon fill="midnightblue" stroke="midnightblue" points="190.5,-138.55 187,-128.55 183.5,-138.55 190.5,-138.55"/>
</g>
<!-- Node12&#45;&gt;Node6 -->
<g id="edge12" class="edge">
<title>Node12&#45;&gt;Node6</title>
<path fill="none" stroke="midnightblue" d="M196.42,-110.45C205.79,-102.43 220.4,-89.95 231.84,-80.17"/>
<polygon fill="midnightblue" stroke="midnightblue" points="234.17,-82.78 239.49,-73.63 229.62,-77.46 234.17,-82.78"/>
</g>
<!-- Node16 -->
<g id="node16" class="node">
<title>Node16</title>
<g id="a_node16"><a xlink:href="../../d4/de9/_main_class_8h.html" target="_top" xlink:title=" ">
<polygon fill="none" stroke="black" points="222.04,-605.5 222.04,-623.5 321.96,-623.5 321.96,-605.5 222.04,-605.5"/>
<text text-anchor="middle" x="272" y="-611.5" font-family="Helvetica,sans-Serif" font-size="10.00">tralics/MainClass.h</text>
</a>
</g>
</g>
<!-- Node15&#45;&gt;Node16 -->
<g id="edge16" class="edge">
<title>Node15&#45;&gt;Node16</title>
<path fill="none" stroke="midnightblue" d="M230.66,-660.22C237.82,-652.47 248.7,-640.7 257.5,-631.18"/>
<polygon fill="midnightblue" stroke="midnightblue" points="260.34,-633.27 264.56,-623.55 255.2,-628.52 260.34,-633.27"/>
</g>
<!-- Node30 -->
<g id="node30" class="node">
<title>Node30</title>
<g id="a_node30"><a xlink:href="../../d2/d06/txlogger_8h.html" target="_top" xlink:title=" ">
<polygon fill="none" stroke="black" points="66.32,-605.5 66.32,-623.5 125.68,-623.5 125.68,-605.5 66.32,-605.5"/>
<text text-anchor="middle" x="96" y="-611.5" font-family="Helvetica,sans-Serif" font-size="10.00">txlogger.h</text>
</a>
</g>
</g>
<!-- Node15&#45;&gt;Node30 -->
<g id="edge36" class="edge">
<title>Node15&#45;&gt;Node30</title>
<path fill="none" stroke="midnightblue" d="M203.71,-660.45C182.73,-651.7 148.97,-637.61 124.84,-627.53"/>
<polygon fill="midnightblue" stroke="midnightblue" points="126.05,-624.25 115.47,-623.63 123.35,-630.71 126.05,-624.25"/>
</g>
<!-- Node32 -->
<g id="node32" class="node">
<title>Node32</title>
<g id="a_node32"><a xlink:href="../../d5/d08/txparam_8h.html" target="_top" xlink:title=" ">
<polygon fill="none" stroke="black" points="143.77,-605.5 143.77,-623.5 204.23,-623.5 204.23,-605.5 143.77,-605.5"/>
<text text-anchor="middle" x="174" y="-611.5" font-family="Helvetica,sans-Serif" font-size="10.00">txparam.h</text>
</a>
</g>
</g>
<!-- Node15&#45;&gt;Node32 -->
<g id="edge39" class="edge">
<title>Node15&#45;&gt;Node32</title>
<path fill="none" stroke="midnightblue" d="M215.34,-660.22C208.18,-652.47 197.3,-640.7 188.5,-631.18"/>
<polygon fill="midnightblue" stroke="midnightblue" points="190.8,-628.52 181.44,-623.55 185.66,-633.27 190.8,-628.52"/>
</g>
<!-- Node17 -->
<g id="node17" class="node">
<title>Node17</title>
<g id="a_node17"><a xlink:href="../../de/d29/txio_8h.html" target="_top" xlink:title=" ">
<polygon fill="none" stroke="black" points="242.88,-550.5 242.88,-568.5 291.12,-568.5 291.12,-550.5 242.88,-550.5"/>
<text text-anchor="middle" x="267" y="-556.5" font-family="Helvetica,sans-Serif" font-size="10.00">../txio.h</text>
</a>
</g>
</g>
<!-- Node16&#45;&gt;Node17 -->
<g id="edge17" class="edge">
<title>Node16&#45;&gt;Node17</title>
<path fill="none" stroke="midnightblue" d="M271.22,-605.22C270.55,-598.1 269.55,-587.58 268.7,-578.53"/>
<polygon fill="midnightblue" stroke="midnightblue" points="272.18,-578.18 267.76,-568.55 265.21,-578.83 272.18,-578.18"/>
</g>
<!-- Node29 -->
<g id="node29" class="node">
<title>Node29</title>
<g id="a_node29"><a xlink:href="../../dc/def/txstring_8h.html" target="_top" xlink:title=" ">
<polygon fill="none" stroke="black" points="431.55,-495.5 431.55,-513.5 496.45,-513.5 496.45,-495.5 431.55,-495.5"/>
<text text-anchor="middle" x="464" y="-501.5" font-family="Helvetica,sans-Serif" font-size="10.00">../txstring.h</text>
</a>
</g>
</g>
<!-- Node16&#45;&gt;Node29 -->
<g id="edge34" class="edge">
<title>Node16&#45;&gt;Node29</title>
<path fill="none" stroke="midnightblue" d="M284.61,-605.35C303.99,-592.93 342.36,-568.73 376,-550 396.44,-538.61 420.14,-526.7 437.79,-518.07"/>
<polygon fill="midnightblue" stroke="midnightblue" points="439.45,-521.15 446.92,-513.63 436.4,-514.86 439.45,-521.15"/>
</g>
<!-- Node18 -->
<g id="node18" class="node">
<title>Node18</title>
<g id="a_node18"><a xlink:href="../../d7/d1b/_buffer_8h.html" target="_top" xlink:title=" ">
<polygon fill="none" stroke="black" points="358.41,-440.5 358.41,-458.5 437.59,-458.5 437.59,-440.5 358.41,-440.5"/>
<text text-anchor="middle" x="398" y="-446.5" font-family="Helvetica,sans-Serif" font-size="10.00">tralics/Buffer.h</text>
</a>
</g>
</g>
<!-- Node17&#45;&gt;Node18 -->
<g id="edge18" class="edge">
<title>Node17&#45;&gt;Node18</title>
<path fill="none" stroke="midnightblue" d="M276.85,-550.38C298.85,-532.24 352.26,-488.21 380.24,-465.15"/>
<polygon fill="midnightblue" stroke="midnightblue" points="382.55,-467.77 388.04,-458.71 378.1,-462.37 382.55,-467.77"/>
</g>
<!-- Node28 -->
<g id="node28" class="node">
<title>Node28</title>
<g id="a_node28"><a xlink:title=" ">
<polygon fill="none" stroke="#bfbfbf" points="199.33,-495.5 199.33,-513.5 248.67,-513.5 248.67,-495.5 199.33,-495.5"/>
<text text-anchor="middle" x="224" y="-501.5" font-family="Helvetica,sans-Serif" font-size="10.00">fstream</text>
</a>
</g>
</g>
<!-- Node17&#45;&gt;Node28 -->
<g id="edge33" class="edge">
<title>Node17&#45;&gt;Node28</title>
<path fill="none" stroke="midnightblue" d="M260.28,-550.22C254.06,-542.55 244.64,-530.94 236.96,-521.47"/>
<polygon fill="midnightblue" stroke="midnightblue" points="239.55,-519.11 230.53,-513.55 234.11,-523.52 239.55,-519.11"/>
</g>
<!-- Node19 -->
<g id="node19" class="node">
<title>Node19</title>
<g id="a_node19"><a xlink:href="../../d1/d9e/txid_8h.html" target="_top" xlink:title=" ">
<polygon fill="none" stroke="black" points="330.88,-330.5 330.88,-348.5 379.12,-348.5 379.12,-330.5 330.88,-330.5"/>
<text text-anchor="middle" x="355" y="-336.5" font-family="Helvetica,sans-Serif" font-size="10.00">../txid.h</text>
</a>
</g>
</g>
<!-- Node18&#45;&gt;Node19 -->
<g id="edge19" class="edge">
<title>Node18&#45;&gt;Node19</title>
<path fill="none" stroke="midnightblue" d="M392.87,-440.22C387.61,-431.47 379.44,-417.14 374,-404 367.87,-389.2 362.79,-371.72 359.43,-358.85"/>
<polygon fill="midnightblue" stroke="midnightblue" points="362.76,-357.75 356.93,-348.91 355.97,-359.46 362.76,-357.75"/>
</g>
<!-- Node23 -->
<g id="node23" class="node">
<title>Node23</title>
<g id="a_node23"><a xlink:href="../../d9/d18/txscaled_8h.html" target="_top" xlink:title=" ">
<polygon fill="none" stroke="black" points="446.32,-385.5 446.32,-403.5 515.68,-403.5 515.68,-385.5 446.32,-385.5"/>
<text text-anchor="middle" x="481" y="-391.5" font-family="Helvetica,sans-Serif" font-size="10.00">../txscaled.h</text>
</a>
</g>
</g>
<!-- Node18&#45;&gt;Node23 -->
<g id="edge26" class="edge">
<title>Node18&#45;&gt;Node23</title>
<path fill="none" stroke="midnightblue" d="M410.61,-440.45C423.65,-432.12 444.24,-418.97 459.8,-409.04"/>
<polygon fill="midnightblue" stroke="midnightblue" points="461.73,-411.96 468.28,-403.63 457.96,-406.06 461.73,-411.96"/>
</g>
<!-- Node26 -->
<g id="node26" class="node">
<title>Node26</title>
<g id="a_node26"><a xlink:title=" ">
<polygon fill="none" stroke="#bfbfbf" points="383.27,-385.5 383.27,-403.5 428.73,-403.5 428.73,-385.5 383.27,-385.5"/>
<text text-anchor="middle" x="406" y="-391.5" font-family="Helvetica,sans-Serif" font-size="10.00">cstring</text>
</a>
</g>
</g>
<!-- Node18&#45;&gt;Node26 -->
<g id="edge31" class="edge">
<title>Node18&#45;&gt;Node26</title>
<path fill="none" stroke="midnightblue" d="M399.25,-440.22C400.32,-433.1 401.91,-422.58 403.28,-413.53"/>
<polygon fill="midnightblue" stroke="midnightblue" points="406.75,-413.96 404.78,-403.55 399.83,-412.92 406.75,-413.96"/>
</g>
<!-- Node27 -->
<g id="node27" class="node">
<title>Node27</title>
<g id="a_node27"><a xlink:title=" ">
<polygon fill="none" stroke="#bfbfbf" points="283.38,-385.5 283.38,-403.5 326.62,-403.5 326.62,-385.5 283.38,-385.5"/>
<text text-anchor="middle" x="305" y="-391.5" font-family="Helvetica,sans-Serif" font-size="10.00">vector</text>
</a>
</g>
</g>
<!-- Node18&#45;&gt;Node27 -->
<g id="edge32" class="edge">
<title>Node18&#45;&gt;Node27</title>
<path fill="none" stroke="midnightblue" d="M383.88,-440.45C369.13,-432.05 345.75,-418.72 328.27,-408.76"/>
<polygon fill="midnightblue" stroke="midnightblue" points="329.68,-405.54 319.26,-403.63 326.21,-411.62 329.68,-405.54"/>
</g>
<!-- Node20 -->
<g id="node20" class="node">
<title>Node20</title>
<g id="a_node20"><a xlink:href="../../d5/daf/_istring_8h.html" target="_top" xlink:title=" ">
<polygon fill="none" stroke="black" points="331.77,-275.5 331.77,-293.5 412.23,-293.5 412.23,-275.5 331.77,-275.5"/>
<text text-anchor="middle" x="372" y="-281.5" font-family="Helvetica,sans-Serif" font-size="10.00">tralics/Istring.h</text>
</a>
</g>
</g>
<!-- Node19&#45;&gt;Node20 -->
<g id="edge20" class="edge">
<title>Node19&#45;&gt;Node20</title>
<path fill="none" stroke="midnightblue" d="M357.66,-330.22C359.97,-323.02 363.39,-312.35 366.31,-303.23"/>
<polygon fill="midnightblue" stroke="midnightblue" points="369.7,-304.14 369.42,-293.55 363.03,-302 369.7,-304.14"/>
</g>
<!-- Node20&#45;&gt;Node11 -->
<g id="edge21" class="edge">
<title>Node20&#45;&gt;Node11</title>
<path fill="none" stroke="midnightblue" d="M367.76,-275.2C360.44,-261.69 344.16,-234.94 323,-220 306.89,-208.62 258.42,-194.23 223.95,-184.95"/>
<polygon fill="midnightblue" stroke="midnightblue" points="224.76,-181.54 214.19,-182.36 222.96,-188.31 224.76,-181.54"/>
</g>
<!-- Node20&#45;&gt;Node14 -->
<g id="edge24" class="edge">
<title>Node20&#45;&gt;Node14</title>
<path fill="none" stroke="midnightblue" d="M360.31,-275.45C348.32,-267.2 329.46,-254.22 315.08,-244.32"/>
<polygon fill="midnightblue" stroke="midnightblue" points="317.03,-241.41 306.8,-238.63 313.06,-247.18 317.03,-241.41"/>
</g>
<!-- Node21 -->
<g id="node21" class="node">
<title>Node21</title>
<g id="a_node21"><a xlink:href="../../d8/d3c/util_8h.html" target="_top" xlink:title=" ">
<polygon fill="none" stroke="black" points="408.44,-220.5 408.44,-238.5 445.56,-238.5 445.56,-220.5 408.44,-220.5"/>
<text text-anchor="middle" x="427" y="-226.5" font-family="Helvetica,sans-Serif" font-size="10.00">util.h</text>
</a>
</g>
</g>
<!-- Node20&#45;&gt;Node21 -->
<g id="edge22" class="edge">
<title>Node20&#45;&gt;Node21</title>
<path fill="none" stroke="midnightblue" d="M380.59,-275.22C388.79,-267.32 401.34,-255.22 411.32,-245.61"/>
<polygon fill="midnightblue" stroke="midnightblue" points="413.87,-248.01 418.65,-238.55 409.02,-242.97 413.87,-248.01"/>
</g>
<!-- Node22 -->
<g id="node22" class="node">
<title>Node22</title>
<g id="a_node22"><a xlink:title=" ">
<polygon fill="none" stroke="#bfbfbf" points="406.77,-165.5 406.77,-183.5 447.23,-183.5 447.23,-165.5 406.77,-165.5"/>
<text text-anchor="middle" x="427" y="-171.5" font-family="Helvetica,sans-Serif" font-size="10.00">string</text>
</a>
</g>
</g>
<!-- Node20&#45;&gt;Node22 -->
<g id="edge25" class="edge">
<title>Node20&#45;&gt;Node22</title>
<path fill="none" stroke="midnightblue" d="M374.93,-275.49C379.51,-263.26 388.9,-239.32 399,-220 403.93,-210.58 410.16,-200.53 415.5,-192.36"/>
<polygon fill="midnightblue" stroke="midnightblue" points="418.58,-194.05 421.22,-183.79 412.76,-190.17 418.58,-194.05"/>
</g>
<!-- Node21&#45;&gt;Node22 -->
<g id="edge23" class="edge">
<title>Node21&#45;&gt;Node22</title>
<path fill="none" stroke="midnightblue" d="M427,-220.22C427,-213.18 427,-202.81 427,-193.83"/>
<polygon fill="midnightblue" stroke="midnightblue" points="430.5,-193.55 427,-183.55 423.5,-193.55 430.5,-193.55"/>
</g>
<!-- Node24 -->
<g id="node24" class="node">
<title>Node24</title>
<g id="a_node24"><a xlink:href="../../dc/d91/txtokenlist_8h.html" target="_top" xlink:title=" ">
<polygon fill="none" stroke="black" points="397.6,-330.5 397.6,-348.5 466.4,-348.5 466.4,-330.5 397.6,-330.5"/>
<text text-anchor="middle" x="432" y="-336.5" font-family="Helvetica,sans-Serif" font-size="10.00">txtokenlist.h</text>
</a>
</g>
</g>
<!-- Node23&#45;&gt;Node24 -->
<g id="edge27" class="edge">
<title>Node23&#45;&gt;Node24</title>
<path fill="none" stroke="midnightblue" d="M473.34,-385.22C466.18,-377.47 455.3,-365.7 446.5,-356.18"/>
<polygon fill="midnightblue" stroke="midnightblue" points="448.8,-353.52 439.44,-348.55 443.66,-358.27 448.8,-353.52"/>
</g>
<!-- Node24&#45;&gt;Node3 -->
<g id="edge29" class="edge">
<title>Node24&#45;&gt;Node3</title>
<path fill="none" stroke="midnightblue" d="M400.86,-330.45C365.32,-321.26 307.03,-306.19 267.86,-296.06"/>
<polygon fill="midnightblue" stroke="midnightblue" points="268.65,-292.65 258.09,-293.54 266.9,-299.43 268.65,-292.65"/>
</g>
<!-- Node24&#45;&gt;Node20 -->
<g id="edge28" class="edge">
<title>Node24&#45;&gt;Node20</title>
<path fill="none" stroke="midnightblue" d="M422.89,-330.45C413.9,-322.51 399.95,-310.19 388.93,-300.45"/>
<polygon fill="midnightblue" stroke="midnightblue" points="391.01,-297.62 381.2,-293.63 386.38,-302.87 391.01,-297.62"/>
</g>
<!-- Node25 -->
<g id="node25" class="node">
<title>Node25</title>
<g id="a_node25"><a xlink:title=" ">
<polygon fill="none" stroke="#bfbfbf" points="434.61,-275.5 434.61,-293.5 473.39,-293.5 473.39,-275.5 434.61,-275.5"/>
<text text-anchor="middle" x="454" y="-281.5" font-family="Helvetica,sans-Serif" font-size="10.00">utility</text>
</a>
</g>
</g>
<!-- Node24&#45;&gt;Node25 -->
<g id="edge30" class="edge">
<title>Node24&#45;&gt;Node25</title>
<path fill="none" stroke="midnightblue" d="M435.44,-330.22C438.46,-322.94 442.95,-312.11 446.76,-302.93"/>
<polygon fill="midnightblue" stroke="midnightblue" points="450.06,-304.13 450.66,-293.55 443.59,-301.44 450.06,-304.13"/>
</g>
<!-- Node29&#45;&gt;Node18 -->
<g id="edge35" class="edge">
<title>Node29&#45;&gt;Node18</title>
<path fill="none" stroke="midnightblue" d="M453.98,-495.45C443.99,-487.43 428.44,-474.95 416.26,-465.17"/>
<polygon fill="midnightblue" stroke="midnightblue" points="418.11,-462.16 408.12,-458.63 413.72,-467.62 418.11,-462.16"/>
</g>
<!-- Node30&#45;&gt;Node28 -->
<g id="edge37" class="edge">
<title>Node30&#45;&gt;Node28</title>
<path fill="none" stroke="midnightblue" d="M105.62,-605.38C127.03,-587.32 178.85,-543.59 206.29,-520.44"/>
<polygon fill="midnightblue" stroke="midnightblue" points="208.88,-522.84 214.27,-513.71 204.37,-517.49 208.88,-522.84"/>
</g>
<!-- Node31 -->
<g id="node31" class="node">
<title>Node31</title>
<g id="a_node31"><a xlink:title=" ">
<polygon fill="none" stroke="#bfbfbf" points="68.83,-550.5 68.83,-568.5 123.17,-568.5 123.17,-550.5 68.83,-550.5"/>
<text text-anchor="middle" x="96" y="-556.5" font-family="Helvetica,sans-Serif" font-size="10.00">iostream</text>
</a>
</g>
</g>
<!-- Node30&#45;&gt;Node31 -->
<g id="edge38" class="edge">
<title>Node30&#45;&gt;Node31</title>
<path fill="none" stroke="midnightblue" d="M96,-605.22C96,-598.18 96,-587.81 96,-578.83"/>
<polygon fill="midnightblue" stroke="midnightblue" points="99.5,-578.55 96,-568.55 92.5,-578.55 99.5,-578.55"/>
</g>
<!-- Node32&#45;&gt;Node17 -->
<g id="edge40" class="edge">
<title>Node32&#45;&gt;Node17</title>
<path fill="none" stroke="midnightblue" d="M188.12,-605.45C202.87,-597.05 226.25,-583.72 243.73,-573.76"/>
<polygon fill="midnightblue" stroke="midnightblue" points="245.79,-576.62 252.74,-568.63 242.32,-570.54 245.79,-576.62"/>
</g>
<!-- Node33&#45;&gt;Node17 -->
<g id="edge55" class="edge">
<title>Node33&#45;&gt;Node17</title>
<path fill="none" stroke="midnightblue" d="M438.38,-660.4C422.48,-651.55 396.35,-636.92 374,-624 344.52,-606.95 310.76,-586.82 289.18,-573.86"/>
<polygon fill="midnightblue" stroke="midnightblue" points="290.83,-570.77 280.46,-568.62 287.22,-576.77 290.83,-570.77"/>
</g>
<!-- Node34 -->
<g id="node34" class="node">
<title>Node34</title>
<g id="a_node34"><a xlink:href="../../d8/dd6/_e_q_t_b_8h.html" target="_top" xlink:title=" ">
<polygon fill="none" stroke="black" points="577.77,-495.5 577.77,-513.5 658.23,-513.5 658.23,-495.5 577.77,-495.5"/>
<text text-anchor="middle" x="618" y="-501.5" font-family="Helvetica,sans-Serif" font-size="10.00">tralics/EQTB.h</text>
</a>
</g>
</g>
<!-- Node33&#45;&gt;Node34 -->
<g id="edge42" class="edge">
<title>Node33&#45;&gt;Node34</title>
<path fill="none" stroke="midnightblue" d="M483.23,-661.89C486.19,-661.25 489.15,-660.61 492,-660 567.94,-643.73 611.38,-682.03 663,-624 684.91,-599.37 681.49,-580.08 668,-550 662.35,-537.41 651.18,-526.92 640.83,-519.3"/>
<polygon fill="midnightblue" stroke="midnightblue" points="642.7,-516.34 632.47,-513.59 638.75,-522.12 642.7,-516.34"/>
</g>
<!-- Node35 -->
<g id="node35" class="node">
<title>Node35</title>
<g id="a_node35"><a xlink:href="../../d3/d6b/txcond_8h.html" target="_top" xlink:title=" ">
<polygon fill="none" stroke="black" points="278.1,-440.5 278.1,-458.5 331.9,-458.5 331.9,-440.5 278.1,-440.5"/>
<text text-anchor="middle" x="305" y="-446.5" font-family="Helvetica,sans-Serif" font-size="10.00">txcond.h</text>
</a>
</g>
</g>
<!-- Node33&#45;&gt;Node35 -->
<g id="edge44" class="edge">
<title>Node33&#45;&gt;Node35</title>
<path fill="none" stroke="midnightblue" d="M446.27,-660.49C432.45,-643.9 400.15,-604.35 376,-569 352.2,-534.15 327.57,-491.22 314.5,-467.79"/>
<polygon fill="midnightblue" stroke="midnightblue" points="317.4,-465.81 309.5,-458.75 311.28,-469.2 317.4,-465.81"/>
</g>
<!-- Node36 -->
<g id="node36" class="node">
<title>Node36</title>
<g id="a_node36"><a xlink:href="../../d7/d4d/txfonts_8h.html" target="_top" xlink:title=" ">
<polygon fill="none" stroke="black" points="385.1,-550.5 385.1,-568.5 438.9,-568.5 438.9,-550.5 385.1,-550.5"/>
<text text-anchor="middle" x="412" y="-556.5" font-family="Helvetica,sans-Serif" font-size="10.00">txfonts.h</text>
</a>
</g>
</g>
<!-- Node33&#45;&gt;Node36 -->
<g id="edge47" class="edge">
<title>Node33&#45;&gt;Node36</title>
<path fill="none" stroke="midnightblue" d="M449.92,-660.38C443.33,-643.03 427.74,-601.96 418.74,-578.24"/>
<polygon fill="midnightblue" stroke="midnightblue" points="421.94,-576.82 415.12,-568.71 415.39,-579.3 421.94,-576.82"/>
</g>
<!-- Node37 -->
<g id="node37" class="node">
<title>Node37</title>
<g id="a_node37"><a xlink:href="../../d7/d7e/txhash_8h.html" target="_top" xlink:title=" ">
<polygon fill="none" stroke="black" points="526.1,-605.5 526.1,-623.5 579.9,-623.5 579.9,-605.5 526.1,-605.5"/>
<text text-anchor="middle" x="553" y="-611.5" font-family="Helvetica,sans-Serif" font-size="10.00">txhash.h</text>
</a>
</g>
</g>
<!-- Node33&#45;&gt;Node37 -->
<g id="edge49" class="edge">
<title>Node33&#45;&gt;Node37</title>
<path fill="none" stroke="midnightblue" d="M468.19,-660.45C484.27,-651.93 509.88,-638.35 528.76,-628.35"/>
<polygon fill="midnightblue" stroke="midnightblue" points="530.47,-631.4 537.67,-623.63 527.19,-625.22 530.47,-631.4"/>
</g>
<!-- Node39 -->
<g id="node39" class="node">
<title>Node39</title>
<g id="a_node39"><a xlink:href="../../de/d7c/tximage_8h.html" target="_top" xlink:title=" ">
<polygon fill="none" stroke="black" points="484.32,-330.5 484.32,-348.5 543.68,-348.5 543.68,-330.5 484.32,-330.5"/>
<text text-anchor="middle" x="514" y="-336.5" font-family="Helvetica,sans-Serif" font-size="10.00">tximage.h</text>
</a>
</g>
</g>
<!-- Node33&#45;&gt;Node39 -->
<g id="edge52" class="edge">
<title>Node33&#45;&gt;Node39</title>
<path fill="none" stroke="midnightblue" d="M483.22,-661.83C486.18,-661.2 489.15,-660.58 492,-660 576.65,-642.8 611.05,-671.8 683,-624 711.18,-605.28 725,-594.34 725,-560.5 725,-560.5 725,-560.5 725,-448.5 725,-372.45 615.04,-349.92 553.88,-343.27"/>
<polygon fill="midnightblue" stroke="midnightblue" points="554.08,-339.77 543.78,-342.26 553.39,-346.74 554.08,-339.77"/>
</g>
<!-- Node40 -->
<g id="node40" class="node">
<title>Node40</title>
<g id="a_node40"><a xlink:href="../../dc/d65/txstack_8h.html" target="_top" xlink:title=" ">
<polygon fill="none" stroke="black" points="598.27,-605.5 598.27,-623.5 653.73,-623.5 653.73,-605.5 598.27,-605.5"/>
<text text-anchor="middle" x="626" y="-611.5" font-family="Helvetica,sans-Serif" font-size="10.00">txstack.h</text>
</a>
</g>
</g>
<!-- Node33&#45;&gt;Node40 -->
<g id="edge56" class="edge">
<title>Node33&#45;&gt;Node40</title>
<path fill="none" stroke="midnightblue" d="M479.27,-660.45C508.83,-651.4 557,-636.64 590.03,-626.52"/>
<polygon fill="midnightblue" stroke="midnightblue" points="591.23,-629.81 599.76,-623.54 589.18,-623.12 591.23,-629.81"/>
</g>
<!-- Node43 -->
<g id="node43" class="node">
<title>Node43</title>
<g id="a_node43"><a xlink:href="../../d8/d3d/txstats_8h.html" target="_top" xlink:title=" ">
<polygon fill="none" stroke="black" points="454.38,-605.5 454.38,-623.5 507.62,-623.5 507.62,-605.5 454.38,-605.5"/>
<text text-anchor="middle" x="481" y="-611.5" font-family="Helvetica,sans-Serif" font-size="10.00">txstats.h</text>
</a>
</g>
</g>
<!-- Node33&#45;&gt;Node43 -->
<g id="edge61" class="edge">
<title>Node33&#45;&gt;Node43</title>
<path fill="none" stroke="midnightblue" d="M457.38,-660.22C461.26,-652.86 467.06,-641.88 471.95,-632.64"/>
<polygon fill="midnightblue" stroke="midnightblue" points="475.17,-634.03 476.75,-623.55 468.98,-630.76 475.17,-634.03"/>
</g>
<!-- Node34&#45;&gt;Node23 -->
<g id="edge43" class="edge">
<title>Node34&#45;&gt;Node23</title>
<path fill="none" stroke="midnightblue" d="M607.7,-495.38C584.69,-477.24 528.84,-433.21 499.58,-410.15"/>
<polygon fill="midnightblue" stroke="midnightblue" points="501.44,-407.15 491.42,-403.71 497.1,-412.65 501.44,-407.15"/>
</g>
<!-- Node35&#45;&gt;Node11 -->
<g id="edge45" class="edge">
<title>Node35&#45;&gt;Node11</title>
<path fill="none" stroke="midnightblue" d="M277.93,-444.85C203.29,-434.04 0,-399.2 0,-340.5 0,-340.5 0,-340.5 0,-283.5 0,-215 95.27,-189.26 149.81,-180.14"/>
<polygon fill="midnightblue" stroke="midnightblue" points="150.47,-183.58 159.81,-178.58 149.39,-176.67 150.47,-183.58"/>
</g>
<!-- Node35&#45;&gt;Node27 -->
<g id="edge46" class="edge">
<title>Node35&#45;&gt;Node27</title>
<path fill="none" stroke="midnightblue" d="M305,-440.22C305,-433.18 305,-422.81 305,-413.83"/>
<polygon fill="midnightblue" stroke="midnightblue" points="308.5,-413.55 305,-403.55 301.5,-413.55 308.5,-413.55"/>
</g>
<!-- Node36&#45;&gt;Node29 -->
<g id="edge48" class="edge">
<title>Node36&#45;&gt;Node29</title>
<path fill="none" stroke="midnightblue" d="M420.12,-550.22C427.8,-542.39 439.51,-530.46 448.9,-520.89"/>
<polygon fill="midnightblue" stroke="midnightblue" points="451.6,-523.14 456.1,-513.55 446.6,-518.24 451.6,-523.14"/>
</g>
<!-- Node38 -->
<g id="node38" class="node">
<title>Node38</title>
<g id="a_node38"><a xlink:href="../../d3/d01/txeqtb_8h.html" target="_top" xlink:title=" ">
<polygon fill="none" stroke="black" points="457.21,-550.5 457.21,-568.5 508.79,-568.5 508.79,-550.5 457.21,-550.5"/>
<text text-anchor="middle" x="483" y="-556.5" font-family="Helvetica,sans-Serif" font-size="10.00">txeqtb.h</text>
</a>
</g>
</g>
<!-- Node37&#45;&gt;Node38 -->
<g id="edge50" class="edge">
<title>Node37&#45;&gt;Node38</title>
<path fill="none" stroke="midnightblue" d="M542.37,-605.45C531.68,-597.36 514.97,-584.7 502,-574.88"/>
<polygon fill="midnightblue" stroke="midnightblue" points="503.82,-571.87 493.73,-568.63 499.59,-577.45 503.82,-571.87"/>
</g>
<!-- Node38&#45;&gt;Node29 -->
<g id="edge51" class="edge">
<title>Node38&#45;&gt;Node29</title>
<path fill="none" stroke="midnightblue" d="M480.03,-550.22C477.45,-543.02 473.62,-532.35 470.36,-523.23"/>
<polygon fill="midnightblue" stroke="midnightblue" points="473.56,-521.78 466.89,-513.55 466.97,-524.14 473.56,-521.78"/>
</g>
<!-- Node39&#45;&gt;Node22 -->
<g id="edge53" class="edge">
<title>Node39&#45;&gt;Node22</title>
<path fill="none" stroke="midnightblue" d="M510.27,-330.31C501.33,-310.86 477.74,-260.48 455,-220 449.67,-210.52 443.24,-200.22 437.88,-191.92"/>
<polygon fill="midnightblue" stroke="midnightblue" points="440.81,-190.01 432.41,-183.55 434.95,-193.84 440.81,-190.01"/>
</g>
<!-- Node39&#45;&gt;Node25 -->
<g id="edge54" class="edge">
<title>Node39&#45;&gt;Node25</title>
<path fill="none" stroke="midnightblue" d="M504.89,-330.45C495.9,-322.51 481.95,-310.19 470.93,-300.45"/>
<polygon fill="midnightblue" stroke="midnightblue" points="473.01,-297.62 463.2,-293.63 468.38,-302.87 473.01,-297.62"/>
</g>
<!-- Node41 -->
<g id="node41" class="node">
<title>Node41</title>
<g id="a_node41"><a xlink:href="../../d9/d1c/_xml_8h.html" target="_top" xlink:title=" ">
<polygon fill="none" stroke="black" points="526.77,-550.5 526.77,-568.5 597.23,-568.5 597.23,-550.5 526.77,-550.5"/>
<text text-anchor="middle" x="562" y="-556.5" font-family="Helvetica,sans-Serif" font-size="10.00">tralics/Xml.h</text>
</a>
</g>
</g>
<!-- Node40&#45;&gt;Node41 -->
<g id="edge57" class="edge">
<title>Node40&#45;&gt;Node41</title>
<path fill="none" stroke="midnightblue" d="M616.28,-605.45C606.6,-597.43 591.52,-584.95 579.71,-575.17"/>
<polygon fill="midnightblue" stroke="midnightblue" points="581.75,-572.31 571.81,-568.63 577.28,-577.7 581.75,-572.31"/>
</g>
<!-- Node42 -->
<g id="node42" class="node">
<title>Node42</title>
<g id="a_node42"><a xlink:href="../../d4/da4/txatt_8h.html" target="_top" xlink:title=" ">
<polygon fill="none" stroke="black" points="615.38,-550.5 615.38,-568.5 658.62,-568.5 658.62,-550.5 615.38,-550.5"/>
<text text-anchor="middle" x="637" y="-556.5" font-family="Helvetica,sans-Serif" font-size="10.00">txatt.h</text>
</a>
</g>
</g>
<!-- Node40&#45;&gt;Node42 -->
<g id="edge59" class="edge">
<title>Node40&#45;&gt;Node42</title>
<path fill="none" stroke="midnightblue" d="M627.72,-605.22C629.2,-598.1 631.38,-587.58 633.26,-578.53"/>
<polygon fill="midnightblue" stroke="midnightblue" points="636.72,-579.05 635.33,-568.55 629.87,-577.63 636.72,-579.05"/>
</g>
<!-- Node41&#45;&gt;Node29 -->
<g id="edge58" class="edge">
<title>Node41&#45;&gt;Node29</title>
<path fill="none" stroke="midnightblue" d="M547.12,-550.45C531.43,-541.97 506.49,-528.48 488.01,-518.49"/>
<polygon fill="midnightblue" stroke="midnightblue" points="489.49,-515.3 479.02,-513.63 486.16,-521.46 489.49,-515.3"/>
</g>
<!-- Node42&#45;&gt;Node29 -->
<g id="edge60" class="edge">
<title>Node42&#45;&gt;Node29</title>
<path fill="none" stroke="midnightblue" d="M615.09,-551.79C586.13,-542.91 534.72,-527.16 500,-516.53"/>
<polygon fill="midnightblue" stroke="midnightblue" points="500.84,-513.12 490.25,-513.54 498.78,-519.82 500.84,-513.12"/>
</g>
</g>
</svg>
