<?xml version="1.0" encoding="UTF-8" standalone="no"?>
<!DOCTYPE svg PUBLIC "-//W3C//DTD SVG 1.1//EN"
 "http://www.w3.org/Graphics/SVG/1.1/DTD/svg11.dtd">
<!-- Generated by graphviz version 2.42.3 (20191010.1750)
 -->
<!-- Title: txhash.h Pages: 1 -->
<svg width="473pt" height="522pt"
 viewBox="0.00 0.00 472.68 522.00" xmlns="http://www.w3.org/2000/svg" xmlns:xlink="http://www.w3.org/1999/xlink">
<g id="graph0" class="graph" transform="scale(1 1) rotate(0) translate(4 518)">
<title>txhash.h</title>
<!-- Node1 -->
<g id="node1" class="node">
<title>Node1</title>
<g id="a_node1"><a xlink:title=" ">
<polygon fill="#bfbfbf" stroke="black" points="391.22,-495.5 391.22,-513.5 445.02,-513.5 445.02,-495.5 391.22,-495.5"/>
<text text-anchor="middle" x="418.12" y="-501.5" font-family="Helvetica,sans-Serif" font-size="10.00">txhash.h</text>
</a>
</g>
</g>
<!-- Node2 -->
<g id="node2" class="node">
<title>Node2</title>
<g id="a_node2"><a xlink:href="../../d7/d1b/_buffer_8h.html" target="_top" xlink:title=" ">
<polygon fill="none" stroke="black" points="148.52,-440.5 148.52,-458.5 227.71,-458.5 227.71,-440.5 148.52,-440.5"/>
<text text-anchor="middle" x="188.12" y="-446.5" font-family="Helvetica,sans-Serif" font-size="10.00">tralics/Buffer.h</text>
</a>
</g>
</g>
<!-- Node1&#45;&gt;Node2 -->
<g id="edge1" class="edge">
<title>Node1&#45;&gt;Node2</title>
<path fill="none" stroke="midnightblue" d="M390.83,-497.21C351.81,-488.22 279.61,-471.58 232.75,-460.78"/>
<polygon fill="midnightblue" stroke="midnightblue" points="233.39,-457.34 222.86,-458.51 231.82,-464.16 233.39,-457.34"/>
</g>
<!-- Node20 -->
<g id="node20" class="node">
<title>Node20</title>
<g id="a_node20"><a xlink:title=" ">
<polygon fill="none" stroke="#bfbfbf" points="408.73,-275.5 408.73,-293.5 447.51,-293.5 447.51,-275.5 408.73,-275.5"/>
<text text-anchor="middle" x="428.12" y="-281.5" font-family="Helvetica,sans-Serif" font-size="10.00">utility</text>
</a>
</g>
</g>
<!-- Node1&#45;&gt;Node20 -->
<g id="edge33" class="edge">
<title>Node1&#45;&gt;Node20</title>
<path fill="none" stroke="midnightblue" d="M427.35,-495.38C435.9,-487.19 448.04,-473.68 453.12,-459 472.08,-404.22 448.99,-334.91 435.92,-303.02"/>
<polygon fill="midnightblue" stroke="midnightblue" points="439.09,-301.54 431.95,-293.71 432.66,-304.28 439.09,-301.54"/>
</g>
<!-- Node24 -->
<g id="node24" class="node">
<title>Node24</title>
<g id="a_node24"><a xlink:href="../../d3/d01/txeqtb_8h.html" target="_top" xlink:title=" ">
<polygon fill="none" stroke="black" points="392.33,-440.5 392.33,-458.5 443.91,-458.5 443.91,-440.5 392.33,-440.5"/>
<text text-anchor="middle" x="418.12" y="-446.5" font-family="Helvetica,sans-Serif" font-size="10.00">txeqtb.h</text>
</a>
</g>
</g>
<!-- Node1&#45;&gt;Node24 -->
<g id="edge28" class="edge">
<title>Node1&#45;&gt;Node24</title>
<path fill="none" stroke="midnightblue" d="M418.12,-495.22C418.12,-488.18 418.12,-477.81 418.12,-468.83"/>
<polygon fill="midnightblue" stroke="midnightblue" points="421.62,-468.55 418.12,-458.55 414.62,-468.55 421.62,-468.55"/>
</g>
<!-- Node3 -->
<g id="node3" class="node">
<title>Node3</title>
<g id="a_node3"><a xlink:href="../../d1/d9e/txid_8h.html" target="_top" xlink:title=" ">
<polygon fill="none" stroke="black" points="0,-330.5 0,-348.5 48.24,-348.5 48.24,-330.5 0,-330.5"/>
<text text-anchor="middle" x="24.12" y="-336.5" font-family="Helvetica,sans-Serif" font-size="10.00">../txid.h</text>
</a>
</g>
</g>
<!-- Node2&#45;&gt;Node3 -->
<g id="edge2" class="edge">
<title>Node2&#45;&gt;Node3</title>
<path fill="none" stroke="midnightblue" d="M148.28,-441.77C121.58,-435.62 86.9,-424.27 62.12,-404 47.38,-391.94 36.97,-372.56 30.82,-358.38"/>
<polygon fill="midnightblue" stroke="midnightblue" points="33.92,-356.72 26.94,-348.75 27.43,-359.34 33.92,-356.72"/>
</g>
<!-- Node4 -->
<g id="node4" class="node">
<title>Node4</title>
<g id="a_node4"><a xlink:href="../../d5/daf/_istring_8h.html" target="_top" xlink:title=" ">
<polygon fill="none" stroke="black" points="180.89,-275.5 180.89,-293.5 261.35,-293.5 261.35,-275.5 180.89,-275.5"/>
<text text-anchor="middle" x="221.12" y="-281.5" font-family="Helvetica,sans-Serif" font-size="10.00">tralics/Istring.h</text>
</a>
</g>
</g>
<!-- Node2&#45;&gt;Node4 -->
<g id="edge24" class="edge">
<title>Node2&#45;&gt;Node4</title>
<path fill="none" stroke="midnightblue" d="M153.53,-440.46C121.72,-431.14 81.39,-413.33 95.12,-385 115.41,-343.13 162.81,-313.55 193.34,-298.05"/>
<polygon fill="midnightblue" stroke="midnightblue" points="195.17,-301.05 202.61,-293.51 192.09,-294.76 195.17,-301.05"/>
</g>
<!-- Node13 -->
<g id="node13" class="node">
<title>Node13</title>
<g id="a_node13"><a xlink:href="../../d9/d18/txscaled_8h.html" target="_top" xlink:title=" ">
<polygon fill="none" stroke="black" points="301.44,-385.5 301.44,-403.5 370.8,-403.5 370.8,-385.5 301.44,-385.5"/>
<text text-anchor="middle" x="336.12" y="-391.5" font-family="Helvetica,sans-Serif" font-size="10.00">../txscaled.h</text>
</a>
</g>
</g>
<!-- Node2&#45;&gt;Node13 -->
<g id="edge12" class="edge">
<title>Node2&#45;&gt;Node13</title>
<path fill="none" stroke="midnightblue" d="M210.6,-440.45C235.48,-431.54 275.79,-417.1 304,-407"/>
<polygon fill="midnightblue" stroke="midnightblue" points="305.19,-410.29 313.43,-403.63 302.83,-403.7 305.19,-410.29"/>
</g>
<!-- Node21 -->
<g id="node21" class="node">
<title>Node21</title>
<g id="a_node21"><a xlink:title=" ">
<polygon fill="none" stroke="#bfbfbf" points="165.39,-385.5 165.39,-403.5 210.84,-403.5 210.84,-385.5 165.39,-385.5"/>
<text text-anchor="middle" x="188.12" y="-391.5" font-family="Helvetica,sans-Serif" font-size="10.00">cstring</text>
</a>
</g>
</g>
<!-- Node2&#45;&gt;Node21 -->
<g id="edge25" class="edge">
<title>Node2&#45;&gt;Node21</title>
<path fill="none" stroke="midnightblue" d="M188.12,-440.22C188.12,-433.18 188.12,-422.81 188.12,-413.83"/>
<polygon fill="midnightblue" stroke="midnightblue" points="191.62,-413.55 188.12,-403.55 184.62,-413.55 191.62,-413.55"/>
</g>
<!-- Node22 -->
<g id="node22" class="node">
<title>Node22</title>
<g id="a_node22"><a xlink:title=" ">
<polygon fill="none" stroke="#bfbfbf" points="228.95,-385.5 228.95,-403.5 283.29,-403.5 283.29,-385.5 228.95,-385.5"/>
<text text-anchor="middle" x="256.12" y="-391.5" font-family="Helvetica,sans-Serif" font-size="10.00">iostream</text>
</a>
</g>
</g>
<!-- Node2&#45;&gt;Node22 -->
<g id="edge26" class="edge">
<title>Node2&#45;&gt;Node22</title>
<path fill="none" stroke="midnightblue" d="M198.45,-440.45C208.83,-432.36 225.06,-419.7 237.67,-409.88"/>
<polygon fill="midnightblue" stroke="midnightblue" points="239.96,-412.53 245.69,-403.63 235.65,-407.01 239.96,-412.53"/>
</g>
<!-- Node23 -->
<g id="node23" class="node">
<title>Node23</title>
<g id="a_node23"><a xlink:title=" ">
<polygon fill="none" stroke="#bfbfbf" points="104.5,-385.5 104.5,-403.5 147.73,-403.5 147.73,-385.5 104.5,-385.5"/>
<text text-anchor="middle" x="126.12" y="-391.5" font-family="Helvetica,sans-Serif" font-size="10.00">vector</text>
</a>
</g>
</g>
<!-- Node2&#45;&gt;Node23 -->
<g id="edge27" class="edge">
<title>Node2&#45;&gt;Node23</title>
<path fill="none" stroke="midnightblue" d="M178.7,-440.45C169.32,-432.43 154.72,-419.95 143.27,-410.17"/>
<polygon fill="midnightblue" stroke="midnightblue" points="145.5,-407.46 135.62,-403.63 140.95,-412.78 145.5,-407.46"/>
</g>
<!-- Node3&#45;&gt;Node4 -->
<g id="edge3" class="edge">
<title>Node3&#45;&gt;Node4</title>
<path fill="none" stroke="midnightblue" d="M48.27,-332C81.52,-323.06 141.78,-306.84 181.63,-296.12"/>
<polygon fill="midnightblue" stroke="midnightblue" points="182.54,-299.5 191.29,-293.52 180.73,-292.74 182.54,-299.5"/>
</g>
<!-- Node5 -->
<g id="node5" class="node">
<title>Node5</title>
<g id="a_node5"><a xlink:href="../../d0/d0b/enums_8h.html" target="_top" xlink:title=" ">
<polygon fill="none" stroke="black" points="285.94,-165.5 285.94,-183.5 340.3,-183.5 340.3,-165.5 285.94,-165.5"/>
<text text-anchor="middle" x="313.12" y="-171.5" font-family="Helvetica,sans-Serif" font-size="10.00">enums.h</text>
</a>
</g>
</g>
<!-- Node4&#45;&gt;Node5 -->
<g id="edge4" class="edge">
<title>Node4&#45;&gt;Node5</title>
<path fill="none" stroke="midnightblue" d="M225.84,-275.24C233.21,-262.68 248.24,-238.31 264.12,-220 273.43,-209.26 285.19,-198.5 294.86,-190.26"/>
<polygon fill="midnightblue" stroke="midnightblue" points="297.26,-192.81 302.7,-183.72 292.77,-187.44 297.26,-192.81"/>
</g>
<!-- Node11 -->
<g id="node11" class="node">
<title>Node11</title>
<g id="a_node11"><a xlink:title=" ">
<polygon fill="none" stroke="#bfbfbf" points="272.73,-220.5 272.73,-238.5 311.51,-238.5 311.51,-220.5 272.73,-220.5"/>
<text text-anchor="middle" x="292.12" y="-226.5" font-family="Helvetica,sans-Serif" font-size="10.00">array</text>
</a>
</g>
</g>
<!-- Node4&#45;&gt;Node11 -->
<g id="edge10" class="edge">
<title>Node4&#45;&gt;Node11</title>
<path fill="none" stroke="midnightblue" d="M231.9,-275.45C242.74,-267.36 259.69,-254.7 272.85,-244.88"/>
<polygon fill="midnightblue" stroke="midnightblue" points="275.31,-247.41 281.23,-238.63 271.13,-241.8 275.31,-247.41"/>
</g>
<!-- Node12 -->
<g id="node12" class="node">
<title>Node12</title>
<g id="a_node12"><a xlink:title=" ">
<polygon fill="none" stroke="#bfbfbf" points="176.89,-220.5 176.89,-238.5 217.34,-238.5 217.34,-220.5 176.89,-220.5"/>
<text text-anchor="middle" x="197.12" y="-226.5" font-family="Helvetica,sans-Serif" font-size="10.00">string</text>
</a>
</g>
</g>
<!-- Node4&#45;&gt;Node12 -->
<g id="edge11" class="edge">
<title>Node4&#45;&gt;Node12</title>
<path fill="none" stroke="midnightblue" d="M217.37,-275.22C214.07,-267.94 209.17,-257.11 205.01,-247.93"/>
<polygon fill="midnightblue" stroke="midnightblue" points="208.08,-246.22 200.76,-238.55 201.7,-249.1 208.08,-246.22"/>
</g>
<!-- Node6 -->
<g id="node6" class="node">
<title>Node6</title>
<g id="a_node6"><a xlink:href="../../d8/db5/consts_8h.html" target="_top" xlink:title=" ">
<polygon fill="none" stroke="black" points="286.5,-110.5 286.5,-128.5 339.74,-128.5 339.74,-110.5 286.5,-110.5"/>
<text text-anchor="middle" x="313.12" y="-116.5" font-family="Helvetica,sans-Serif" font-size="10.00">consts.h</text>
</a>
</g>
</g>
<!-- Node5&#45;&gt;Node6 -->
<g id="edge5" class="edge">
<title>Node5&#45;&gt;Node6</title>
<path fill="none" stroke="midnightblue" d="M313.12,-165.22C313.12,-158.18 313.12,-147.81 313.12,-138.83"/>
<polygon fill="midnightblue" stroke="midnightblue" points="316.62,-138.55 313.12,-128.55 309.62,-138.55 316.62,-138.55"/>
</g>
<!-- Node7 -->
<g id="node7" class="node">
<title>Node7</title>
<g id="a_node7"><a xlink:href="../../d9/d49/types_8h.html" target="_top" xlink:title=" ">
<polygon fill="none" stroke="black" points="316,-55.5 316,-73.5 364.24,-73.5 364.24,-55.5 316,-55.5"/>
<text text-anchor="middle" x="340.12" y="-61.5" font-family="Helvetica,sans-Serif" font-size="10.00">types.h</text>
</a>
</g>
</g>
<!-- Node6&#45;&gt;Node7 -->
<g id="edge6" class="edge">
<title>Node6&#45;&gt;Node7</title>
<path fill="none" stroke="midnightblue" d="M317.34,-110.22C321.08,-102.86 326.68,-91.88 331.39,-82.64"/>
<polygon fill="midnightblue" stroke="midnightblue" points="334.6,-84.05 336.02,-73.55 328.36,-80.87 334.6,-84.05"/>
</g>
<!-- Node8 -->
<g id="node8" class="node">
<title>Node8</title>
<g id="a_node8"><a xlink:title=" ">
<polygon fill="none" stroke="#bfbfbf" points="250,-0.5 250,-18.5 298.23,-18.5 298.23,-0.5 250,-0.5"/>
<text text-anchor="middle" x="274.12" y="-6.5" font-family="Helvetica,sans-Serif" font-size="10.00">cassert</text>
</a>
</g>
</g>
<!-- Node7&#45;&gt;Node8 -->
<g id="edge7" class="edge">
<title>Node7&#45;&gt;Node8</title>
<path fill="none" stroke="midnightblue" d="M330.09,-55.45C320.11,-47.43 304.56,-34.95 292.38,-25.17"/>
<polygon fill="midnightblue" stroke="midnightblue" points="294.23,-22.16 284.24,-18.63 289.84,-27.62 294.23,-22.16"/>
</g>
<!-- Node9 -->
<g id="node9" class="node">
<title>Node9</title>
<g id="a_node9"><a xlink:title=" ">
<polygon fill="none" stroke="#bfbfbf" points="316,-0.5 316,-18.5 364.24,-18.5 364.24,-0.5 316,-0.5"/>
<text text-anchor="middle" x="340.12" y="-6.5" font-family="Helvetica,sans-Serif" font-size="10.00">cstddef</text>
</a>
</g>
</g>
<!-- Node7&#45;&gt;Node9 -->
<g id="edge8" class="edge">
<title>Node7&#45;&gt;Node9</title>
<path fill="none" stroke="midnightblue" d="M340.12,-55.22C340.12,-48.18 340.12,-37.81 340.12,-28.83"/>
<polygon fill="midnightblue" stroke="midnightblue" points="343.62,-28.55 340.12,-18.55 336.62,-28.55 343.62,-28.55"/>
</g>
<!-- Node10 -->
<g id="node10" class="node">
<title>Node10</title>
<g id="a_node10"><a xlink:title=" ">
<polygon fill="none" stroke="#bfbfbf" points="382.05,-0.5 382.05,-18.5 444.18,-18.5 444.18,-0.5 382.05,-0.5"/>
<text text-anchor="middle" x="413.12" y="-6.5" font-family="Helvetica,sans-Serif" font-size="10.00">type_traits</text>
</a>
</g>
</g>
<!-- Node7&#45;&gt;Node10 -->
<g id="edge9" class="edge">
<title>Node7&#45;&gt;Node10</title>
<path fill="none" stroke="midnightblue" d="M351.21,-55.45C362.46,-47.28 380.12,-34.46 393.7,-24.6"/>
<polygon fill="midnightblue" stroke="midnightblue" points="395.89,-27.33 401.93,-18.63 391.78,-21.67 395.89,-27.33"/>
</g>
<!-- Node14 -->
<g id="node14" class="node">
<title>Node14</title>
<g id="a_node14"><a xlink:href="../../dc/d91/txtokenlist_8h.html" target="_top" xlink:title=" ">
<polygon fill="none" stroke="black" points="302.72,-330.5 302.72,-348.5 371.52,-348.5 371.52,-330.5 302.72,-330.5"/>
<text text-anchor="middle" x="337.12" y="-336.5" font-family="Helvetica,sans-Serif" font-size="10.00">txtokenlist.h</text>
</a>
</g>
</g>
<!-- Node13&#45;&gt;Node14 -->
<g id="edge13" class="edge">
<title>Node13&#45;&gt;Node14</title>
<path fill="none" stroke="midnightblue" d="M336.27,-385.22C336.41,-378.18 336.6,-367.81 336.77,-358.83"/>
<polygon fill="midnightblue" stroke="midnightblue" points="340.28,-358.61 336.97,-348.55 333.28,-358.48 340.28,-358.61"/>
</g>
<!-- Node14&#45;&gt;Node4 -->
<g id="edge14" class="edge">
<title>Node14&#45;&gt;Node4</title>
<path fill="none" stroke="midnightblue" d="M319.5,-330.45C300.51,-321.77 270.05,-307.86 248.05,-297.8"/>
<polygon fill="midnightblue" stroke="midnightblue" points="249.45,-294.6 238.9,-293.63 246.54,-300.96 249.45,-294.6"/>
</g>
<!-- Node15 -->
<g id="node15" class="node">
<title>Node15</title>
<g id="a_node15"><a xlink:href="../../dd/dcd/_token_8h.html" target="_top" xlink:title=" ">
<polygon fill="none" stroke="black" points="304.16,-275.5 304.16,-293.5 384.08,-293.5 384.08,-275.5 304.16,-275.5"/>
<text text-anchor="middle" x="344.12" y="-281.5" font-family="Helvetica,sans-Serif" font-size="10.00">tralics/Token.h</text>
</a>
</g>
</g>
<!-- Node14&#45;&gt;Node15 -->
<g id="edge15" class="edge">
<title>Node14&#45;&gt;Node15</title>
<path fill="none" stroke="midnightblue" d="M338.21,-330.22C339.15,-323.1 340.54,-312.58 341.74,-303.53"/>
<polygon fill="midnightblue" stroke="midnightblue" points="345.22,-303.92 343.06,-293.55 338.28,-303.01 345.22,-303.92"/>
</g>
<!-- Node14&#45;&gt;Node20 -->
<g id="edge23" class="edge">
<title>Node14&#45;&gt;Node20</title>
<path fill="none" stroke="midnightblue" d="M350.94,-330.45C365.37,-322.05 388.24,-308.72 405.35,-298.76"/>
<polygon fill="midnightblue" stroke="midnightblue" points="407.29,-301.68 414.17,-293.63 403.76,-295.63 407.29,-301.68"/>
</g>
<!-- Node15&#45;&gt;Node11 -->
<g id="edge21" class="edge">
<title>Node15&#45;&gt;Node11</title>
<path fill="none" stroke="midnightblue" d="M335.99,-275.22C328.32,-267.39 316.61,-255.46 307.22,-245.89"/>
<polygon fill="midnightblue" stroke="midnightblue" points="309.52,-243.24 300.02,-238.55 304.52,-248.14 309.52,-243.24"/>
</g>
<!-- Node16 -->
<g id="node16" class="node">
<title>Node16</title>
<g id="a_node16"><a xlink:href="../../d2/d68/_cmd_chr_8h.html" target="_top" xlink:title=" ">
<polygon fill="none" stroke="black" points="376.61,-220.5 376.61,-238.5 437.63,-238.5 437.63,-220.5 376.61,-220.5"/>
<text text-anchor="middle" x="407.12" y="-226.5" font-family="Helvetica,sans-Serif" font-size="10.00">CmdChr.h</text>
</a>
</g>
</g>
<!-- Node15&#45;&gt;Node16 -->
<g id="edge16" class="edge">
<title>Node15&#45;&gt;Node16</title>
<path fill="none" stroke="midnightblue" d="M353.69,-275.45C363.21,-267.43 378.06,-254.95 389.68,-245.17"/>
<polygon fill="midnightblue" stroke="midnightblue" points="392.06,-247.74 397.46,-238.63 387.55,-242.38 392.06,-247.74"/>
</g>
<!-- Node19 -->
<g id="node19" class="node">
<title>Node19</title>
<g id="a_node19"><a xlink:title=" ">
<polygon fill="none" stroke="#bfbfbf" points="329.62,-220.5 329.62,-238.5 358.62,-238.5 358.62,-220.5 329.62,-220.5"/>
<text text-anchor="middle" x="343.73" y="-226.5" font-family="Helvetica,sans-Serif" font-size="10.00">list</text>
</a>
</g>
</g>
<!-- Node15&#45;&gt;Node19 -->
<g id="edge22" class="edge">
<title>Node15&#45;&gt;Node19</title>
<path fill="none" stroke="midnightblue" d="M344.12,-275.22C344.12,-268.18 344.12,-257.81 344.12,-248.83"/>
<polygon fill="midnightblue" stroke="midnightblue" points="347.62,-248.55 344.12,-238.55 340.62,-248.55 347.62,-248.55"/>
</g>
<!-- Node16&#45;&gt;Node5 -->
<g id="edge20" class="edge">
<title>Node16&#45;&gt;Node5</title>
<path fill="none" stroke="midnightblue" d="M392.84,-220.45C377.93,-212.05 354.31,-198.72 336.64,-188.76"/>
<polygon fill="midnightblue" stroke="midnightblue" points="337.96,-185.49 327.53,-183.63 334.52,-191.59 337.96,-185.49"/>
</g>
<!-- Node17 -->
<g id="node17" class="node">
<title>Node17</title>
<g id="a_node17"><a xlink:href="../../d8/d47/codepoint_8h.html" target="_top" xlink:title=" ">
<polygon fill="none" stroke="black" points="373.26,-165.5 373.26,-183.5 440.97,-183.5 440.97,-165.5 373.26,-165.5"/>
<text text-anchor="middle" x="407.12" y="-171.5" font-family="Helvetica,sans-Serif" font-size="10.00">codepoint.h</text>
</a>
</g>
</g>
<!-- Node16&#45;&gt;Node17 -->
<g id="edge17" class="edge">
<title>Node16&#45;&gt;Node17</title>
<path fill="none" stroke="midnightblue" d="M407.12,-220.22C407.12,-213.18 407.12,-202.81 407.12,-193.83"/>
<polygon fill="midnightblue" stroke="midnightblue" points="410.62,-193.55 407.12,-183.55 403.62,-193.55 410.62,-193.55"/>
</g>
<!-- Node17&#45;&gt;Node7 -->
<g id="edge18" class="edge">
<title>Node17&#45;&gt;Node7</title>
<path fill="none" stroke="midnightblue" d="M402.08,-165.38C391.17,-147.79 365.15,-105.85 350.53,-82.29"/>
<polygon fill="midnightblue" stroke="midnightblue" points="353.46,-80.36 345.21,-73.71 347.51,-84.05 353.46,-80.36"/>
</g>
<!-- Node18 -->
<g id="node18" class="node">
<title>Node18</title>
<g id="a_node18"><a xlink:title=" ">
<polygon fill="none" stroke="#bfbfbf" points="396.6,-110.5 396.6,-128.5 447.63,-128.5 447.63,-110.5 396.6,-110.5"/>
<text text-anchor="middle" x="422.12" y="-116.5" font-family="Helvetica,sans-Serif" font-size="10.00">optional</text>
</a>
</g>
</g>
<!-- Node17&#45;&gt;Node18 -->
<g id="edge19" class="edge">
<title>Node17&#45;&gt;Node18</title>
<path fill="none" stroke="midnightblue" d="M409.46,-165.22C411.5,-158.02 414.52,-147.35 417.1,-138.23"/>
<polygon fill="midnightblue" stroke="midnightblue" points="420.48,-139.12 419.84,-128.55 413.75,-137.22 420.48,-139.12"/>
</g>
<!-- Node24&#45;&gt;Node13 -->
<g id="edge31" class="edge">
<title>Node24&#45;&gt;Node13</title>
<path fill="none" stroke="midnightblue" d="M405.66,-440.45C392.9,-432.2 372.81,-419.22 357.5,-409.32"/>
<polygon fill="midnightblue" stroke="midnightblue" points="358.99,-406.11 348.69,-403.63 355.19,-411.99 358.99,-406.11"/>
</g>
<!-- Node24&#45;&gt;Node15 -->
<g id="edge30" class="edge">
<title>Node24&#45;&gt;Node15</title>
<path fill="none" stroke="midnightblue" d="M416.59,-440.33C412.64,-420.49 400.96,-368.59 380.12,-330 374.51,-319.62 366.36,-309.29 359.23,-301.2"/>
<polygon fill="midnightblue" stroke="midnightblue" points="361.66,-298.68 352.32,-293.68 356.51,-303.41 361.66,-298.68"/>
</g>
<!-- Node24&#45;&gt;Node16 -->
<g id="edge29" class="edge">
<title>Node24&#45;&gt;Node16</title>
<path fill="none" stroke="midnightblue" d="M423.45,-440.18C439.15,-414.53 482.58,-334.78 456.12,-275 450.59,-262.52 439.65,-252.04 429.51,-244.4"/>
<polygon fill="midnightblue" stroke="midnightblue" points="431.51,-241.53 421.31,-238.66 427.49,-247.26 431.51,-241.53"/>
</g>
<!-- Node24&#45;&gt;Node20 -->
<g id="edge32" class="edge">
<title>Node24&#45;&gt;Node20</title>
<path fill="none" stroke="midnightblue" d="M418.63,-440.19C420.17,-415.01 424.83,-339.11 426.99,-303.86"/>
<polygon fill="midnightblue" stroke="midnightblue" points="430.5,-303.79 427.62,-293.6 423.52,-303.36 430.5,-303.79"/>
</g>
</g>
</svg>
