<?xml version="1.0" encoding="UTF-8" standalone="no"?>
<!DOCTYPE svg PUBLIC "-//W3C//DTD SVG 1.1//EN"
 "http://www.w3.org/Graphics/SVG/1.1/DTD/svg11.dtd">
<!-- Generated by graphviz version 2.42.3 (20191010.1750)
 -->
<!-- Title: txscaled.h Pages: 1 -->
<svg width="325pt" height="412pt"
 viewBox="0.00 0.00 324.62 412.00" xmlns="http://www.w3.org/2000/svg" xmlns:xlink="http://www.w3.org/1999/xlink">
<g id="graph0" class="graph" transform="scale(1 1) rotate(0) translate(4 408)">
<title>txscaled.h</title>
<!-- Node1 -->
<g id="node1" class="node">
<title>Node1</title>
<g id="a_node1"><a xlink:title=" ">
<polygon fill="#bfbfbf" stroke="black" points="147.71,-385.5 147.71,-403.5 208.74,-403.5 208.74,-385.5 147.71,-385.5"/>
<text text-anchor="middle" x="178.23" y="-391.5" font-family="Helvetica,sans-Serif" font-size="10.00">txscaled.h</text>
</a>
</g>
</g>
<!-- Node2 -->
<g id="node2" class="node">
<title>Node2</title>
<g id="a_node2"><a xlink:href="../../dc/d91/txtokenlist_8h.html" target="_top" xlink:title=" ">
<polygon fill="none" stroke="black" points="143.83,-330.5 143.83,-348.5 212.63,-348.5 212.63,-330.5 143.83,-330.5"/>
<text text-anchor="middle" x="178.23" y="-336.5" font-family="Helvetica,sans-Serif" font-size="10.00">txtokenlist.h</text>
</a>
</g>
</g>
<!-- Node1&#45;&gt;Node2 -->
<g id="edge1" class="edge">
<title>Node1&#45;&gt;Node2</title>
<path fill="none" stroke="midnightblue" d="M178.23,-385.22C178.23,-378.18 178.23,-367.81 178.23,-358.83"/>
<polygon fill="midnightblue" stroke="midnightblue" points="181.73,-358.55 178.23,-348.55 174.73,-358.55 181.73,-358.55"/>
</g>
<!-- Node3 -->
<g id="node3" class="node">
<title>Node3</title>
<g id="a_node3"><a xlink:href="../../d5/daf/_istring_8h.html" target="_top" xlink:title=" ">
<polygon fill="none" stroke="black" points="13,-275.5 13,-293.5 93.46,-293.5 93.46,-275.5 13,-275.5"/>
<text text-anchor="middle" x="53.23" y="-281.5" font-family="Helvetica,sans-Serif" font-size="10.00">tralics/Istring.h</text>
</a>
</g>
</g>
<!-- Node2&#45;&gt;Node3 -->
<g id="edge2" class="edge">
<title>Node2&#45;&gt;Node3</title>
<path fill="none" stroke="midnightblue" d="M159.24,-330.45C138.59,-321.7 105.36,-307.61 81.61,-297.53"/>
<polygon fill="midnightblue" stroke="midnightblue" points="82.96,-294.31 72.39,-293.63 80.23,-300.75 82.96,-294.31"/>
</g>
<!-- Node11 -->
<g id="node11" class="node">
<title>Node11</title>
<g id="a_node11"><a xlink:href="../../dd/dcd/_token_8h.html" target="_top" xlink:title=" ">
<polygon fill="none" stroke="black" points="180.27,-275.5 180.27,-293.5 260.18,-293.5 260.18,-275.5 180.27,-275.5"/>
<text text-anchor="middle" x="220.23" y="-281.5" font-family="Helvetica,sans-Serif" font-size="10.00">tralics/Token.h</text>
</a>
</g>
</g>
<!-- Node2&#45;&gt;Node11 -->
<g id="edge10" class="edge">
<title>Node2&#45;&gt;Node11</title>
<path fill="none" stroke="midnightblue" d="M184.79,-330.22C190.87,-322.55 200.07,-310.94 207.57,-301.47"/>
<polygon fill="midnightblue" stroke="midnightblue" points="210.38,-303.56 213.85,-293.55 204.89,-299.21 210.38,-303.56"/>
</g>
<!-- Node16 -->
<g id="node16" class="node">
<title>Node16</title>
<g id="a_node16"><a xlink:href="../../dc/de8/txvars_8h.html" target="_top" xlink:title=" ">
<polygon fill="none" stroke="black" points="111.72,-275.5 111.72,-293.5 162.73,-293.5 162.73,-275.5 111.72,-275.5"/>
<text text-anchor="middle" x="137.23" y="-281.5" font-family="Helvetica,sans-Serif" font-size="10.00">txvars.h</text>
</a>
</g>
</g>
<!-- Node2&#45;&gt;Node16 -->
<g id="edge17" class="edge">
<title>Node2&#45;&gt;Node16</title>
<path fill="none" stroke="midnightblue" d="M171.82,-330.22C165.89,-322.55 156.91,-310.94 149.58,-301.47"/>
<polygon fill="midnightblue" stroke="midnightblue" points="152.34,-299.32 143.45,-293.55 146.8,-303.6 152.34,-299.32"/>
</g>
<!-- Node18 -->
<g id="node18" class="node">
<title>Node18</title>
<g id="a_node18"><a xlink:title=" ">
<polygon fill="none" stroke="#bfbfbf" points="277.83,-275.5 277.83,-293.5 316.62,-293.5 316.62,-275.5 277.83,-275.5"/>
<text text-anchor="middle" x="297.23" y="-281.5" font-family="Helvetica,sans-Serif" font-size="10.00">utility</text>
</a>
</g>
</g>
<!-- Node2&#45;&gt;Node18 -->
<g id="edge20" class="edge">
<title>Node2&#45;&gt;Node18</title>
<path fill="none" stroke="midnightblue" d="M196.3,-330.45C215.78,-321.77 247.03,-307.86 269.6,-297.8"/>
<polygon fill="midnightblue" stroke="midnightblue" points="271.27,-300.89 278.98,-293.63 268.42,-294.5 271.27,-300.89"/>
</g>
<!-- Node4 -->
<g id="node4" class="node">
<title>Node4</title>
<g id="a_node4"><a xlink:href="../../d0/d0b/enums_8h.html" target="_top" xlink:title=" ">
<polygon fill="none" stroke="black" points="98.05,-165.5 98.05,-183.5 152.4,-183.5 152.4,-165.5 98.05,-165.5"/>
<text text-anchor="middle" x="125.23" y="-171.5" font-family="Helvetica,sans-Serif" font-size="10.00">enums.h</text>
</a>
</g>
</g>
<!-- Node3&#45;&gt;Node4 -->
<g id="edge3" class="edge">
<title>Node3&#45;&gt;Node4</title>
<path fill="none" stroke="midnightblue" d="M58.64,-275.38C70.37,-257.79 98.33,-215.85 114.03,-192.29"/>
<polygon fill="midnightblue" stroke="midnightblue" points="117.12,-193.97 119.75,-183.71 111.29,-190.09 117.12,-193.97"/>
</g>
<!-- Node10 -->
<g id="node10" class="node">
<title>Node10</title>
<g id="a_node10"><a xlink:title=" ">
<polygon fill="none" stroke="#bfbfbf" points="0,-220.5 0,-238.5 40.45,-238.5 40.45,-220.5 0,-220.5"/>
<text text-anchor="middle" x="20.23" y="-226.5" font-family="Helvetica,sans-Serif" font-size="10.00">string</text>
</a>
</g>
</g>
<!-- Node3&#45;&gt;Node10 -->
<g id="edge9" class="edge">
<title>Node3&#45;&gt;Node10</title>
<path fill="none" stroke="midnightblue" d="M48.07,-275.22C43.39,-267.71 36.36,-256.41 30.53,-247.05"/>
<polygon fill="midnightblue" stroke="midnightblue" points="33.5,-245.19 25.24,-238.55 27.55,-248.89 33.5,-245.19"/>
</g>
<!-- Node5 -->
<g id="node5" class="node">
<title>Node5</title>
<g id="a_node5"><a xlink:href="../../d8/db5/consts_8h.html" target="_top" xlink:title=" ">
<polygon fill="none" stroke="black" points="107.61,-110.5 107.61,-128.5 160.85,-128.5 160.85,-110.5 107.61,-110.5"/>
<text text-anchor="middle" x="134.23" y="-116.5" font-family="Helvetica,sans-Serif" font-size="10.00">consts.h</text>
</a>
</g>
</g>
<!-- Node4&#45;&gt;Node5 -->
<g id="edge4" class="edge">
<title>Node4&#45;&gt;Node5</title>
<path fill="none" stroke="midnightblue" d="M126.63,-165.22C127.84,-158.1 129.63,-147.58 131.17,-138.53"/>
<polygon fill="midnightblue" stroke="midnightblue" points="134.64,-138.99 132.86,-128.55 127.73,-137.82 134.64,-138.99"/>
</g>
<!-- Node6 -->
<g id="node6" class="node">
<title>Node6</title>
<g id="a_node6"><a xlink:href="../../d9/d49/types_8h.html" target="_top" xlink:title=" ">
<polygon fill="none" stroke="black" points="172.11,-55.5 172.11,-73.5 220.35,-73.5 220.35,-55.5 172.11,-55.5"/>
<text text-anchor="middle" x="196.23" y="-61.5" font-family="Helvetica,sans-Serif" font-size="10.00">types.h</text>
</a>
</g>
</g>
<!-- Node5&#45;&gt;Node6 -->
<g id="edge5" class="edge">
<title>Node5&#45;&gt;Node6</title>
<path fill="none" stroke="midnightblue" d="M143.64,-110.45C153.02,-102.43 167.63,-89.95 179.07,-80.17"/>
<polygon fill="midnightblue" stroke="midnightblue" points="181.39,-82.78 186.72,-73.63 176.85,-77.46 181.39,-82.78"/>
</g>
<!-- Node7 -->
<g id="node7" class="node">
<title>Node7</title>
<g id="a_node7"><a xlink:title=" ">
<polygon fill="none" stroke="#bfbfbf" points="104.11,-0.5 104.11,-18.5 152.34,-18.5 152.34,-0.5 104.11,-0.5"/>
<text text-anchor="middle" x="128.23" y="-6.5" font-family="Helvetica,sans-Serif" font-size="10.00">cassert</text>
</a>
</g>
</g>
<!-- Node6&#45;&gt;Node7 -->
<g id="edge6" class="edge">
<title>Node6&#45;&gt;Node7</title>
<path fill="none" stroke="midnightblue" d="M185.9,-55.45C175.51,-47.36 159.28,-34.7 146.68,-24.88"/>
<polygon fill="midnightblue" stroke="midnightblue" points="148.69,-22.01 138.65,-18.63 144.39,-27.53 148.69,-22.01"/>
</g>
<!-- Node8 -->
<g id="node8" class="node">
<title>Node8</title>
<g id="a_node8"><a xlink:title=" ">
<polygon fill="none" stroke="#bfbfbf" points="170.44,-0.5 170.44,-18.5 222.02,-18.5 222.02,-0.5 170.44,-0.5"/>
<text text-anchor="middle" x="196.23" y="-6.5" font-family="Helvetica,sans-Serif" font-size="10.00">stddef.h</text>
</a>
</g>
</g>
<!-- Node6&#45;&gt;Node8 -->
<g id="edge7" class="edge">
<title>Node6&#45;&gt;Node8</title>
<path fill="none" stroke="midnightblue" d="M196.23,-55.22C196.23,-48.18 196.23,-37.81 196.23,-28.83"/>
<polygon fill="midnightblue" stroke="midnightblue" points="199.73,-28.55 196.23,-18.55 192.73,-28.55 199.73,-28.55"/>
</g>
<!-- Node9 -->
<g id="node9" class="node">
<title>Node9</title>
<g id="a_node9"><a xlink:title=" ">
<polygon fill="none" stroke="#bfbfbf" points="240.16,-0.5 240.16,-18.5 302.29,-18.5 302.29,-0.5 240.16,-0.5"/>
<text text-anchor="middle" x="271.23" y="-6.5" font-family="Helvetica,sans-Serif" font-size="10.00">type_traits</text>
</a>
</g>
</g>
<!-- Node6&#45;&gt;Node9 -->
<g id="edge8" class="edge">
<title>Node6&#45;&gt;Node9</title>
<path fill="none" stroke="midnightblue" d="M207.62,-55.45C219.18,-47.28 237.32,-34.46 251.27,-24.6"/>
<polygon fill="midnightblue" stroke="midnightblue" points="253.58,-27.25 259.73,-18.63 249.54,-21.54 253.58,-27.25"/>
</g>
<!-- Node12 -->
<g id="node12" class="node">
<title>Node12</title>
<g id="a_node12"><a xlink:href="../../d2/d68/_cmd_chr_8h.html" target="_top" xlink:title=" ">
<polygon fill="none" stroke="black" points="237.72,-220.5 237.72,-238.5 298.74,-238.5 298.74,-220.5 237.72,-220.5"/>
<text text-anchor="middle" x="268.23" y="-226.5" font-family="Helvetica,sans-Serif" font-size="10.00">CmdChr.h</text>
</a>
</g>
</g>
<!-- Node11&#45;&gt;Node12 -->
<g id="edge11" class="edge">
<title>Node11&#45;&gt;Node12</title>
<path fill="none" stroke="midnightblue" d="M227.73,-275.22C234.74,-267.47 245.4,-255.7 254.03,-246.18"/>
<polygon fill="midnightblue" stroke="midnightblue" points="256.82,-248.31 260.94,-238.55 251.63,-243.61 256.82,-248.31"/>
</g>
<!-- Node15 -->
<g id="node15" class="node">
<title>Node15</title>
<g id="a_node15"><a xlink:title=" ">
<polygon fill="none" stroke="#bfbfbf" points="190.73,-220.5 190.73,-238.5 219.73,-238.5 219.73,-220.5 190.73,-220.5"/>
<text text-anchor="middle" x="204.84" y="-226.5" font-family="Helvetica,sans-Serif" font-size="10.00">list</text>
</a>
</g>
</g>
<!-- Node11&#45;&gt;Node15 -->
<g id="edge16" class="edge">
<title>Node11&#45;&gt;Node15</title>
<path fill="none" stroke="midnightblue" d="M217.88,-275.22C215.85,-268.02 212.82,-257.35 210.24,-248.23"/>
<polygon fill="midnightblue" stroke="midnightblue" points="213.6,-247.22 207.5,-238.55 206.86,-249.12 213.6,-247.22"/>
</g>
<!-- Node12&#45;&gt;Node4 -->
<g id="edge15" class="edge">
<title>Node12&#45;&gt;Node4</title>
<path fill="none" stroke="midnightblue" d="M246.51,-220.45C222.57,-211.58 183.85,-197.23 156.62,-187.13"/>
<polygon fill="midnightblue" stroke="midnightblue" points="157.74,-183.82 147.15,-183.63 155.31,-190.38 157.74,-183.82"/>
</g>
<!-- Node13 -->
<g id="node13" class="node">
<title>Node13</title>
<g id="a_node13"><a xlink:href="../../d8/d47/codepoint_8h.html" target="_top" xlink:title=" ">
<polygon fill="none" stroke="black" points="229.37,-165.5 229.37,-183.5 297.08,-183.5 297.08,-165.5 229.37,-165.5"/>
<text text-anchor="middle" x="263.23" y="-171.5" font-family="Helvetica,sans-Serif" font-size="10.00">codepoint.h</text>
</a>
</g>
</g>
<!-- Node12&#45;&gt;Node13 -->
<g id="edge12" class="edge">
<title>Node12&#45;&gt;Node13</title>
<path fill="none" stroke="midnightblue" d="M267.45,-220.22C266.77,-213.1 265.78,-202.58 264.93,-193.53"/>
<polygon fill="midnightblue" stroke="midnightblue" points="268.41,-193.18 263.99,-183.55 261.44,-193.83 268.41,-193.18"/>
</g>
<!-- Node13&#45;&gt;Node6 -->
<g id="edge13" class="edge">
<title>Node13&#45;&gt;Node6</title>
<path fill="none" stroke="midnightblue" d="M262.16,-165.11C260.23,-152.37 255.3,-127.78 244.23,-110 236.98,-98.36 225.9,-87.81 216.21,-79.9"/>
<polygon fill="midnightblue" stroke="midnightblue" points="218.23,-77.04 208.19,-73.68 213.94,-82.57 218.23,-77.04"/>
</g>
<!-- Node14 -->
<g id="node14" class="node">
<title>Node14</title>
<g id="a_node14"><a xlink:title=" ">
<polygon fill="none" stroke="#bfbfbf" points="183.71,-110.5 183.71,-128.5 234.74,-128.5 234.74,-110.5 183.71,-110.5"/>
<text text-anchor="middle" x="209.23" y="-116.5" font-family="Helvetica,sans-Serif" font-size="10.00">optional</text>
</a>
</g>
</g>
<!-- Node13&#45;&gt;Node14 -->
<g id="edge14" class="edge">
<title>Node13&#45;&gt;Node14</title>
<path fill="none" stroke="midnightblue" d="M254.79,-165.22C246.74,-157.32 234.42,-145.22 224.62,-135.61"/>
<polygon fill="midnightblue" stroke="midnightblue" points="227.02,-133.06 217.43,-128.55 222.11,-138.05 227.02,-133.06"/>
</g>
<!-- Node16&#45;&gt;Node4 -->
<g id="edge18" class="edge">
<title>Node16&#45;&gt;Node4</title>
<path fill="none" stroke="midnightblue" d="M134.36,-275.43C131.39,-266.61 126.95,-252.01 125.23,-239 123.23,-223.94 123.38,-206.69 123.95,-193.98"/>
<polygon fill="midnightblue" stroke="midnightblue" points="127.46,-193.95 124.54,-183.77 120.47,-193.55 127.46,-193.95"/>
</g>
<!-- Node17 -->
<g id="node17" class="node">
<title>Node17</title>
<g id="a_node17"><a xlink:title=" ">
<polygon fill="none" stroke="#bfbfbf" points="133.83,-220.5 133.83,-238.5 172.62,-238.5 172.62,-220.5 133.83,-220.5"/>
<text text-anchor="middle" x="153.23" y="-226.5" font-family="Helvetica,sans-Serif" font-size="10.00">array</text>
</a>
</g>
</g>
<!-- Node16&#45;&gt;Node17 -->
<g id="edge19" class="edge">
<title>Node16&#45;&gt;Node17</title>
<path fill="none" stroke="midnightblue" d="M139.73,-275.22C141.9,-268.02 145.12,-257.35 147.87,-248.23"/>
<polygon fill="midnightblue" stroke="midnightblue" points="151.26,-249.13 150.8,-238.55 144.56,-247.11 151.26,-249.13"/>
</g>
</g>
</svg>
