<?xml version="1.0" encoding="UTF-8" standalone="no"?>
<!DOCTYPE svg PUBLIC "-//W3C//DTD SVG 1.1//EN"
 "http://www.w3.org/Graphics/SVG/1.1/DTD/svg11.dtd">
<!-- Generated by graphviz version 2.42.3 (20191010.1750)
 -->
<!-- Title: txscaled.h Pages: 1 -->
<svg width="262pt" height="412pt"
 viewBox="0.00 0.00 262.15 412.00" xmlns="http://www.w3.org/2000/svg" xmlns:xlink="http://www.w3.org/1999/xlink">
<g id="graph0" class="graph" transform="scale(1 1) rotate(0) translate(4 408)">
<title>txscaled.h</title>
<!-- Node1 -->
<g id="node1" class="node">
<title>Node1</title>
<g id="a_node1"><a xlink:title=" ">
<polygon fill="#bfbfbf" stroke="black" points="127.24,-385.5 127.24,-403.5 188.27,-403.5 188.27,-385.5 127.24,-385.5"/>
<text text-anchor="middle" x="157.75" y="-391.5" font-family="Helvetica,sans-Serif" font-size="10.00">txscaled.h</text>
</a>
</g>
</g>
<!-- Node2 -->
<g id="node2" class="node">
<title>Node2</title>
<g id="a_node2"><a xlink:href="../../dc/d91/txtokenlist_8h.html" target="_top" xlink:title=" ">
<polygon fill="none" stroke="black" points="123.35,-330.5 123.35,-348.5 192.16,-348.5 192.16,-330.5 123.35,-330.5"/>
<text text-anchor="middle" x="157.75" y="-336.5" font-family="Helvetica,sans-Serif" font-size="10.00">txtokenlist.h</text>
</a>
</g>
</g>
<!-- Node1&#45;&gt;Node2 -->
<g id="edge1" class="edge">
<title>Node1&#45;&gt;Node2</title>
<path fill="none" stroke="midnightblue" d="M157.75,-385.22C157.75,-378.18 157.75,-367.81 157.75,-358.83"/>
<polygon fill="midnightblue" stroke="midnightblue" points="161.25,-358.55 157.75,-348.55 154.25,-358.55 161.25,-358.55"/>
</g>
<!-- Node3 -->
<g id="node3" class="node">
<title>Node3</title>
<g id="a_node3"><a xlink:href="../../d5/daf/_istring_8h.html" target="_top" xlink:title=" ">
<polygon fill="none" stroke="black" points="5.52,-275.5 5.52,-293.5 85.99,-293.5 85.99,-275.5 5.52,-275.5"/>
<text text-anchor="middle" x="45.75" y="-281.5" font-family="Helvetica,sans-Serif" font-size="10.00">tralics/Istring.h</text>
</a>
</g>
</g>
<!-- Node2&#45;&gt;Node3 -->
<g id="edge2" class="edge">
<title>Node2&#45;&gt;Node3</title>
<path fill="none" stroke="midnightblue" d="M140.74,-330.45C122.49,-321.81 93.26,-307.98 72.04,-297.94"/>
<polygon fill="midnightblue" stroke="midnightblue" points="73.46,-294.74 62.92,-293.63 70.47,-301.07 73.46,-294.74"/>
</g>
<!-- Node12 -->
<g id="node12" class="node">
<title>Node12</title>
<g id="a_node12"><a xlink:href="../../dd/dcd/_token_8h.html" target="_top" xlink:title=" ">
<polygon fill="none" stroke="black" points="117.8,-275.5 117.8,-293.5 197.71,-293.5 197.71,-275.5 117.8,-275.5"/>
<text text-anchor="middle" x="157.75" y="-281.5" font-family="Helvetica,sans-Serif" font-size="10.00">tralics/Token.h</text>
</a>
</g>
</g>
<!-- Node2&#45;&gt;Node12 -->
<g id="edge11" class="edge">
<title>Node2&#45;&gt;Node12</title>
<path fill="none" stroke="midnightblue" d="M157.75,-330.22C157.75,-323.18 157.75,-312.81 157.75,-303.83"/>
<polygon fill="midnightblue" stroke="midnightblue" points="161.25,-303.55 157.75,-293.55 154.25,-303.55 161.25,-303.55"/>
</g>
<!-- Node17 -->
<g id="node17" class="node">
<title>Node17</title>
<g id="a_node17"><a xlink:title=" ">
<polygon fill="none" stroke="#bfbfbf" points="215.36,-275.5 215.36,-293.5 254.15,-293.5 254.15,-275.5 215.36,-275.5"/>
<text text-anchor="middle" x="234.75" y="-281.5" font-family="Helvetica,sans-Serif" font-size="10.00">utility</text>
</a>
</g>
</g>
<!-- Node2&#45;&gt;Node17 -->
<g id="edge18" class="edge">
<title>Node2&#45;&gt;Node17</title>
<path fill="none" stroke="midnightblue" d="M169.45,-330.45C181.43,-322.2 200.3,-309.22 214.68,-299.32"/>
<polygon fill="midnightblue" stroke="midnightblue" points="216.7,-302.18 222.95,-293.63 212.73,-296.41 216.7,-302.18"/>
</g>
<!-- Node4 -->
<g id="node4" class="node">
<title>Node4</title>
<g id="a_node4"><a xlink:href="../../d0/d0b/enums_8h.html" target="_top" xlink:title=" ">
<polygon fill="none" stroke="black" points="36.58,-165.5 36.58,-183.5 90.93,-183.5 90.93,-165.5 36.58,-165.5"/>
<text text-anchor="middle" x="63.75" y="-171.5" font-family="Helvetica,sans-Serif" font-size="10.00">enums.h</text>
</a>
</g>
</g>
<!-- Node3&#45;&gt;Node4 -->
<g id="edge3" class="edge">
<title>Node3&#45;&gt;Node4</title>
<path fill="none" stroke="midnightblue" d="M33.49,-275.49C17.28,-263.83 -8.05,-241.25 2.75,-220 9.73,-206.27 23.15,-195.77 35.63,-188.43"/>
<polygon fill="midnightblue" stroke="midnightblue" points="37.33,-191.49 44.45,-183.64 33.99,-185.34 37.33,-191.49"/>
</g>
<!-- Node10 -->
<g id="node10" class="node">
<title>Node10</title>
<g id="a_node10"><a xlink:title=" ">
<polygon fill="none" stroke="#bfbfbf" points="11.36,-220.5 11.36,-238.5 50.15,-238.5 50.15,-220.5 11.36,-220.5"/>
<text text-anchor="middle" x="30.75" y="-226.5" font-family="Helvetica,sans-Serif" font-size="10.00">array</text>
</a>
</g>
</g>
<!-- Node3&#45;&gt;Node10 -->
<g id="edge9" class="edge">
<title>Node3&#45;&gt;Node10</title>
<path fill="none" stroke="midnightblue" d="M43.41,-275.22C41.37,-268.02 38.35,-257.35 35.77,-248.23"/>
<polygon fill="midnightblue" stroke="midnightblue" points="39.12,-247.22 33.03,-238.55 32.39,-249.12 39.12,-247.22"/>
</g>
<!-- Node11 -->
<g id="node11" class="node">
<title>Node11</title>
<g id="a_node11"><a xlink:title=" ">
<polygon fill="none" stroke="#bfbfbf" points="68.53,-220.5 68.53,-238.5 108.98,-238.5 108.98,-220.5 68.53,-220.5"/>
<text text-anchor="middle" x="88.75" y="-226.5" font-family="Helvetica,sans-Serif" font-size="10.00">string</text>
</a>
</g>
</g>
<!-- Node3&#45;&gt;Node11 -->
<g id="edge10" class="edge">
<title>Node3&#45;&gt;Node11</title>
<path fill="none" stroke="midnightblue" d="M52.47,-275.22C58.69,-267.55 68.12,-255.94 75.8,-246.47"/>
<polygon fill="midnightblue" stroke="midnightblue" points="78.64,-248.52 82.22,-238.55 73.2,-244.11 78.64,-248.52"/>
</g>
<!-- Node5 -->
<g id="node5" class="node">
<title>Node5</title>
<g id="a_node5"><a xlink:href="../../d8/db5/consts_8h.html" target="_top" xlink:title=" ">
<polygon fill="none" stroke="black" points="37.13,-110.5 37.13,-128.5 90.37,-128.5 90.37,-110.5 37.13,-110.5"/>
<text text-anchor="middle" x="63.75" y="-116.5" font-family="Helvetica,sans-Serif" font-size="10.00">consts.h</text>
</a>
</g>
</g>
<!-- Node4&#45;&gt;Node5 -->
<g id="edge4" class="edge">
<title>Node4&#45;&gt;Node5</title>
<path fill="none" stroke="midnightblue" d="M63.75,-165.22C63.75,-158.18 63.75,-147.81 63.75,-138.83"/>
<polygon fill="midnightblue" stroke="midnightblue" points="67.25,-138.55 63.75,-128.55 60.25,-138.55 67.25,-138.55"/>
</g>
<!-- Node6 -->
<g id="node6" class="node">
<title>Node6</title>
<g id="a_node6"><a xlink:href="../../d9/d49/types_8h.html" target="_top" xlink:title=" ">
<polygon fill="none" stroke="black" points="66.63,-55.5 66.63,-73.5 114.87,-73.5 114.87,-55.5 66.63,-55.5"/>
<text text-anchor="middle" x="90.75" y="-61.5" font-family="Helvetica,sans-Serif" font-size="10.00">types.h</text>
</a>
</g>
</g>
<!-- Node5&#45;&gt;Node6 -->
<g id="edge5" class="edge">
<title>Node5&#45;&gt;Node6</title>
<path fill="none" stroke="midnightblue" d="M67.97,-110.22C71.72,-102.86 77.32,-91.88 82.02,-82.64"/>
<polygon fill="midnightblue" stroke="midnightblue" points="85.23,-84.05 86.65,-73.55 79,-80.87 85.23,-84.05"/>
</g>
<!-- Node7 -->
<g id="node7" class="node">
<title>Node7</title>
<g id="a_node7"><a xlink:title=" ">
<polygon fill="none" stroke="#bfbfbf" points="0.64,-0.5 0.64,-18.5 48.87,-18.5 48.87,-0.5 0.64,-0.5"/>
<text text-anchor="middle" x="24.75" y="-6.5" font-family="Helvetica,sans-Serif" font-size="10.00">cassert</text>
</a>
</g>
</g>
<!-- Node6&#45;&gt;Node7 -->
<g id="edge6" class="edge">
<title>Node6&#45;&gt;Node7</title>
<path fill="none" stroke="midnightblue" d="M80.73,-55.45C70.75,-47.43 55.2,-34.95 43.02,-25.17"/>
<polygon fill="midnightblue" stroke="midnightblue" points="44.86,-22.16 34.87,-18.63 40.48,-27.62 44.86,-22.16"/>
</g>
<!-- Node8 -->
<g id="node8" class="node">
<title>Node8</title>
<g id="a_node8"><a xlink:title=" ">
<polygon fill="none" stroke="#bfbfbf" points="66.63,-0.5 66.63,-18.5 114.87,-18.5 114.87,-0.5 66.63,-0.5"/>
<text text-anchor="middle" x="90.75" y="-6.5" font-family="Helvetica,sans-Serif" font-size="10.00">cstddef</text>
</a>
</g>
</g>
<!-- Node6&#45;&gt;Node8 -->
<g id="edge7" class="edge">
<title>Node6&#45;&gt;Node8</title>
<path fill="none" stroke="midnightblue" d="M90.75,-55.22C90.75,-48.18 90.75,-37.81 90.75,-28.83"/>
<polygon fill="midnightblue" stroke="midnightblue" points="94.25,-28.55 90.75,-18.55 87.25,-28.55 94.25,-28.55"/>
</g>
<!-- Node9 -->
<g id="node9" class="node">
<title>Node9</title>
<g id="a_node9"><a xlink:title=" ">
<polygon fill="none" stroke="#bfbfbf" points="132.69,-0.5 132.69,-18.5 194.82,-18.5 194.82,-0.5 132.69,-0.5"/>
<text text-anchor="middle" x="163.75" y="-6.5" font-family="Helvetica,sans-Serif" font-size="10.00">type_traits</text>
</a>
</g>
</g>
<!-- Node6&#45;&gt;Node9 -->
<g id="edge8" class="edge">
<title>Node6&#45;&gt;Node9</title>
<path fill="none" stroke="midnightblue" d="M101.84,-55.45C113.1,-47.28 130.75,-34.46 144.33,-24.6"/>
<polygon fill="midnightblue" stroke="midnightblue" points="146.53,-27.33 152.56,-18.63 142.41,-21.67 146.53,-27.33"/>
</g>
<!-- Node13 -->
<g id="node13" class="node">
<title>Node13</title>
<g id="a_node13"><a xlink:href="../../d2/d68/_cmd_chr_8h.html" target="_top" xlink:title=" ">
<polygon fill="none" stroke="black" points="127.24,-220.5 127.24,-238.5 188.26,-238.5 188.26,-220.5 127.24,-220.5"/>
<text text-anchor="middle" x="157.75" y="-226.5" font-family="Helvetica,sans-Serif" font-size="10.00">CmdChr.h</text>
</a>
</g>
</g>
<!-- Node12&#45;&gt;Node13 -->
<g id="edge12" class="edge">
<title>Node12&#45;&gt;Node13</title>
<path fill="none" stroke="midnightblue" d="M157.75,-275.22C157.75,-268.18 157.75,-257.81 157.75,-248.83"/>
<polygon fill="midnightblue" stroke="midnightblue" points="161.25,-248.55 157.75,-238.55 154.25,-248.55 161.25,-248.55"/>
</g>
<!-- Node16 -->
<g id="node16" class="node">
<title>Node16</title>
<g id="a_node16"><a xlink:title=" ">
<polygon fill="none" stroke="#bfbfbf" points="206.25,-220.5 206.25,-238.5 235.25,-238.5 235.25,-220.5 206.25,-220.5"/>
<text text-anchor="middle" x="220.36" y="-226.5" font-family="Helvetica,sans-Serif" font-size="10.00">list</text>
</a>
</g>
</g>
<!-- Node12&#45;&gt;Node16 -->
<g id="edge17" class="edge">
<title>Node12&#45;&gt;Node16</title>
<path fill="none" stroke="midnightblue" d="M167.32,-275.45C176.85,-267.43 191.69,-254.95 203.32,-245.17"/>
<polygon fill="midnightblue" stroke="midnightblue" points="205.7,-247.74 211.1,-238.63 201.19,-242.38 205.7,-247.74"/>
</g>
<!-- Node13&#45;&gt;Node4 -->
<g id="edge16" class="edge">
<title>Node13&#45;&gt;Node4</title>
<path fill="none" stroke="midnightblue" d="M143.48,-220.45C128.57,-212.05 104.94,-198.72 87.27,-188.76"/>
<polygon fill="midnightblue" stroke="midnightblue" points="88.59,-185.49 78.16,-183.63 85.16,-191.59 88.59,-185.49"/>
</g>
<!-- Node14 -->
<g id="node14" class="node">
<title>Node14</title>
<g id="a_node14"><a xlink:href="../../d8/d47/codepoint_8h.html" target="_top" xlink:title=" ">
<polygon fill="none" stroke="black" points="123.9,-165.5 123.9,-183.5 191.61,-183.5 191.61,-165.5 123.9,-165.5"/>
<text text-anchor="middle" x="157.75" y="-171.5" font-family="Helvetica,sans-Serif" font-size="10.00">codepoint.h</text>
</a>
</g>
</g>
<!-- Node13&#45;&gt;Node14 -->
<g id="edge13" class="edge">
<title>Node13&#45;&gt;Node14</title>
<path fill="none" stroke="midnightblue" d="M157.75,-220.22C157.75,-213.18 157.75,-202.81 157.75,-193.83"/>
<polygon fill="midnightblue" stroke="midnightblue" points="161.25,-193.55 157.75,-183.55 154.25,-193.55 161.25,-193.55"/>
</g>
<!-- Node14&#45;&gt;Node6 -->
<g id="edge14" class="edge">
<title>Node14&#45;&gt;Node6</title>
<path fill="none" stroke="midnightblue" d="M152.72,-165.38C141.81,-147.79 115.78,-105.85 101.17,-82.29"/>
<polygon fill="midnightblue" stroke="midnightblue" points="104.09,-80.36 95.85,-73.71 98.15,-84.05 104.09,-80.36"/>
</g>
<!-- Node15 -->
<g id="node15" class="node">
<title>Node15</title>
<g id="a_node15"><a xlink:title=" ">
<polygon fill="none" stroke="#bfbfbf" points="147.24,-110.5 147.24,-128.5 198.27,-128.5 198.27,-110.5 147.24,-110.5"/>
<text text-anchor="middle" x="172.75" y="-116.5" font-family="Helvetica,sans-Serif" font-size="10.00">optional</text>
</a>
</g>
</g>
<!-- Node14&#45;&gt;Node15 -->
<g id="edge15" class="edge">
<title>Node14&#45;&gt;Node15</title>
<path fill="none" stroke="midnightblue" d="M160.1,-165.22C162.14,-158.02 165.16,-147.35 167.74,-138.23"/>
<polygon fill="midnightblue" stroke="midnightblue" points="171.12,-139.12 170.48,-128.55 164.38,-137.22 171.12,-139.12"/>
</g>
</g>
</svg>
