<?xml version="1.0" encoding="UTF-8" standalone="no"?>
<!DOCTYPE svg PUBLIC "-//W3C//DTD SVG 1.1//EN"
 "http://www.w3.org/Graphics/SVG/1.1/DTD/svg11.dtd">
<!-- Generated by graphviz version 2.42.3 (20191010.1750)
 -->
<!-- Title: txtrees.cpp Pages: 1 -->
<svg width="801pt" height="687pt"
 viewBox="0.00 0.00 800.90 687.00" xmlns="http://www.w3.org/2000/svg" xmlns:xlink="http://www.w3.org/1999/xlink">
<g id="graph0" class="graph" transform="scale(1 1) rotate(0) translate(4 683)">
<title>txtrees.cpp</title>
<!-- Node1 -->
<g id="node1" class="node">
<title>Node1</title>
<g id="a_node1"><a xlink:title=" ">
<polygon fill="#bfbfbf" stroke="black" points="288.54,-660.5 288.54,-678.5 353.46,-678.5 353.46,-660.5 288.54,-660.5"/>
<text text-anchor="middle" x="321" y="-666.5" font-family="Helvetica,sans-Serif" font-size="10.00">txtrees.cpp</text>
</a>
</g>
</g>
<!-- Node2 -->
<g id="node2" class="node">
<title>Node2</title>
<g id="a_node2"><a xlink:href="../../d0/dd4/txtrees_8h.html" target="_top" xlink:title=" ">
<polygon fill="none" stroke="black" points="217.83,-330.5 217.83,-348.5 272.17,-348.5 272.17,-330.5 217.83,-330.5"/>
<text text-anchor="middle" x="245" y="-336.5" font-family="Helvetica,sans-Serif" font-size="10.00">txtrees.h</text>
</a>
</g>
</g>
<!-- Node1&#45;&gt;Node2 -->
<g id="edge1" class="edge">
<title>Node1&#45;&gt;Node2</title>
<path fill="none" stroke="midnightblue" d="M288.45,-664.6C206.85,-653.93 0,-620.92 0,-560.5 0,-560.5 0,-560.5 0,-448.5 0,-359.15 138.12,-343.09 206.95,-340.63"/>
<polygon fill="midnightblue" stroke="midnightblue" points="207.47,-344.12 217.37,-340.35 207.28,-337.12 207.47,-344.12"/>
</g>
<!-- Node7 -->
<g id="node7" class="node">
<title>Node7</title>
<g id="a_node7"><a xlink:href="../../d7/d79/txinline_8h.html" target="_top" xlink:title=" ">
<polygon fill="none" stroke="black" points="177.27,-605.5 177.27,-623.5 232.73,-623.5 232.73,-605.5 177.27,-605.5"/>
<text text-anchor="middle" x="205" y="-611.5" font-family="Helvetica,sans-Serif" font-size="10.00">txinline.h</text>
</a>
</g>
</g>
<!-- Node1&#45;&gt;Node7 -->
<g id="edge6" class="edge">
<title>Node1&#45;&gt;Node7</title>
<path fill="none" stroke="midnightblue" d="M303.38,-660.45C284.39,-651.77 253.93,-637.86 231.93,-627.8"/>
<polygon fill="midnightblue" stroke="midnightblue" points="233.33,-624.6 222.78,-623.63 230.42,-630.96 233.33,-624.6"/>
</g>
<!-- Node34 -->
<g id="node34" class="node">
<title>Node34</title>
<g id="a_node34"><a xlink:href="../../d2/d1b/txparser_8h.html" target="_top" xlink:title=" ">
<polygon fill="none" stroke="black" points="385.04,-605.5 385.04,-623.5 444.96,-623.5 444.96,-605.5 385.04,-605.5"/>
<text text-anchor="middle" x="415" y="-611.5" font-family="Helvetica,sans-Serif" font-size="10.00">txparser.h</text>
</a>
</g>
</g>
<!-- Node1&#45;&gt;Node34 -->
<g id="edge44" class="edge">
<title>Node1&#45;&gt;Node34</title>
<path fill="none" stroke="midnightblue" d="M335.28,-660.45C350.18,-652.05 373.81,-638.72 391.48,-628.76"/>
<polygon fill="midnightblue" stroke="midnightblue" points="393.6,-631.59 400.59,-623.63 390.16,-625.49 393.6,-631.59"/>
</g>
<!-- Node46 -->
<g id="node46" class="node">
<title>Node46</title>
<g id="a_node46"><a xlink:title=" ">
<polygon fill="none" stroke="#bfbfbf" points="463.33,-605.5 463.33,-623.5 532.67,-623.5 532.67,-605.5 463.33,-605.5"/>
<text text-anchor="middle" x="498" y="-611.5" font-family="Helvetica,sans-Serif" font-size="10.00">fmt/format.h</text>
</a>
</g>
</g>
<!-- Node1&#45;&gt;Node46 -->
<g id="edge68" class="edge">
<title>Node1&#45;&gt;Node46</title>
<path fill="none" stroke="midnightblue" d="M347.88,-660.45C378.12,-651.4 427.41,-636.64 461.2,-626.52"/>
<polygon fill="midnightblue" stroke="midnightblue" points="462.58,-629.76 471.16,-623.54 460.57,-623.05 462.58,-629.76"/>
</g>
<!-- Node3 -->
<g id="node3" class="node">
<title>Node3</title>
<g id="a_node3"><a xlink:title=" ">
<polygon fill="none" stroke="#bfbfbf" points="159.44,-275.5 159.44,-293.5 216.56,-293.5 216.56,-275.5 159.44,-275.5"/>
<text text-anchor="middle" x="188" y="-281.5" font-family="Helvetica,sans-Serif" font-size="10.00">algorithm</text>
</a>
</g>
</g>
<!-- Node2&#45;&gt;Node3 -->
<g id="edge2" class="edge">
<title>Node2&#45;&gt;Node3</title>
<path fill="none" stroke="midnightblue" d="M236.09,-330.22C227.59,-322.32 214.59,-310.22 204.25,-300.61"/>
<polygon fill="midnightblue" stroke="midnightblue" points="206.36,-297.8 196.66,-293.55 201.6,-302.92 206.36,-297.8"/>
</g>
<!-- Node4 -->
<g id="node4" class="node">
<title>Node4</title>
<g id="a_node4"><a xlink:title=" ">
<polygon fill="none" stroke="#bfbfbf" points="320.77,-165.5 320.77,-183.5 361.23,-183.5 361.23,-165.5 320.77,-165.5"/>
<text text-anchor="middle" x="341" y="-171.5" font-family="Helvetica,sans-Serif" font-size="10.00">string</text>
</a>
</g>
</g>
<!-- Node2&#45;&gt;Node4 -->
<g id="edge3" class="edge">
<title>Node2&#45;&gt;Node4</title>
<path fill="none" stroke="midnightblue" d="M244.55,-330.47C243.81,-310.06 244.4,-255.31 269,-220 279.34,-205.16 296.37,-194.31 311.28,-187.04"/>
<polygon fill="midnightblue" stroke="midnightblue" points="313.01,-190.09 320.67,-182.77 310.12,-183.72 313.01,-190.09"/>
</g>
<!-- Node5 -->
<g id="node5" class="node">
<title>Node5</title>
<g id="a_node5"><a xlink:title=" ">
<polygon fill="none" stroke="#bfbfbf" points="348.61,-275.5 348.61,-293.5 387.39,-293.5 387.39,-275.5 348.61,-275.5"/>
<text text-anchor="middle" x="368" y="-281.5" font-family="Helvetica,sans-Serif" font-size="10.00">utility</text>
</a>
</g>
</g>
<!-- Node2&#45;&gt;Node5 -->
<g id="edge4" class="edge">
<title>Node2&#45;&gt;Node5</title>
<path fill="none" stroke="midnightblue" d="M263.68,-330.45C283.91,-321.73 316.41,-307.73 339.76,-297.67"/>
<polygon fill="midnightblue" stroke="midnightblue" points="341.34,-300.8 349.14,-293.63 338.57,-294.37 341.34,-300.8"/>
</g>
<!-- Node6 -->
<g id="node6" class="node">
<title>Node6</title>
<g id="a_node6"><a xlink:title=" ">
<polygon fill="none" stroke="#bfbfbf" points="456.38,-165.5 456.38,-183.5 499.62,-183.5 499.62,-165.5 456.38,-165.5"/>
<text text-anchor="middle" x="478" y="-171.5" font-family="Helvetica,sans-Serif" font-size="10.00">vector</text>
</a>
</g>
</g>
<!-- Node2&#45;&gt;Node6 -->
<g id="edge5" class="edge">
<title>Node2&#45;&gt;Node6</title>
<path fill="none" stroke="midnightblue" d="M252.24,-330.33C270.95,-309.58 323.19,-254.1 376,-220 398.18,-205.68 425.74,-193.97 446.62,-186.16"/>
<polygon fill="midnightblue" stroke="midnightblue" points="448.08,-189.35 456.28,-182.65 445.69,-182.78 448.08,-189.35"/>
</g>
<!-- Node8 -->
<g id="node8" class="node">
<title>Node8</title>
<g id="a_node8"><a xlink:href="../../d4/de9/_main_class_8h.html" target="_top" xlink:title=" ">
<polygon fill="none" stroke="black" points="106.04,-550.5 106.04,-568.5 205.96,-568.5 205.96,-550.5 106.04,-550.5"/>
<text text-anchor="middle" x="156" y="-556.5" font-family="Helvetica,sans-Serif" font-size="10.00">tralics/MainClass.h</text>
</a>
</g>
</g>
<!-- Node7&#45;&gt;Node8 -->
<g id="edge7" class="edge">
<title>Node7&#45;&gt;Node8</title>
<path fill="none" stroke="midnightblue" d="M197.34,-605.22C190.18,-597.47 179.3,-585.7 170.5,-576.18"/>
<polygon fill="midnightblue" stroke="midnightblue" points="172.8,-573.52 163.44,-568.55 167.66,-578.27 172.8,-573.52"/>
</g>
<!-- Node31 -->
<g id="node31" class="node">
<title>Node31</title>
<g id="a_node31"><a xlink:href="../../d2/d06/txlogger_8h.html" target="_top" xlink:title=" ">
<polygon fill="none" stroke="black" points="28.32,-550.5 28.32,-568.5 87.68,-568.5 87.68,-550.5 28.32,-550.5"/>
<text text-anchor="middle" x="58" y="-556.5" font-family="Helvetica,sans-Serif" font-size="10.00">txlogger.h</text>
</a>
</g>
</g>
<!-- Node7&#45;&gt;Node31 -->
<g id="edge39" class="edge">
<title>Node7&#45;&gt;Node31</title>
<path fill="none" stroke="midnightblue" d="M182.67,-605.45C158.07,-596.58 118.27,-582.23 90.27,-572.13"/>
<polygon fill="midnightblue" stroke="midnightblue" points="91.13,-568.72 80.54,-568.63 88.76,-575.31 91.13,-568.72"/>
</g>
<!-- Node33 -->
<g id="node33" class="node">
<title>Node33</title>
<g id="a_node33"><a xlink:href="../../d5/d08/txparam_8h.html" target="_top" xlink:title=" ">
<polygon fill="none" stroke="black" points="223.77,-550.5 223.77,-568.5 284.23,-568.5 284.23,-550.5 223.77,-550.5"/>
<text text-anchor="middle" x="254" y="-556.5" font-family="Helvetica,sans-Serif" font-size="10.00">txparam.h</text>
</a>
</g>
</g>
<!-- Node7&#45;&gt;Node33 -->
<g id="edge42" class="edge">
<title>Node7&#45;&gt;Node33</title>
<path fill="none" stroke="midnightblue" d="M212.66,-605.22C219.82,-597.47 230.7,-585.7 239.5,-576.18"/>
<polygon fill="midnightblue" stroke="midnightblue" points="242.34,-578.27 246.56,-568.55 237.2,-573.52 242.34,-578.27"/>
</g>
<!-- Node9 -->
<g id="node9" class="node">
<title>Node9</title>
<g id="a_node9"><a xlink:href="../../de/d29/txio_8h.html" target="_top" xlink:title=" ">
<polygon fill="none" stroke="black" points="229.88,-495.5 229.88,-513.5 278.12,-513.5 278.12,-495.5 229.88,-495.5"/>
<text text-anchor="middle" x="254" y="-501.5" font-family="Helvetica,sans-Serif" font-size="10.00">../txio.h</text>
</a>
</g>
</g>
<!-- Node8&#45;&gt;Node9 -->
<g id="edge8" class="edge">
<title>Node8&#45;&gt;Node9</title>
<path fill="none" stroke="midnightblue" d="M170.88,-550.45C186.57,-541.97 211.51,-528.48 229.99,-518.49"/>
<polygon fill="midnightblue" stroke="midnightblue" points="231.84,-521.46 238.98,-513.63 228.51,-515.3 231.84,-521.46"/>
</g>
<!-- Node10 -->
<g id="node10" class="node">
<title>Node10</title>
<g id="a_node10"><a xlink:href="../../d7/d1b/_buffer_8h.html" target="_top" xlink:title=" ">
<polygon fill="none" stroke="black" points="457.41,-440.5 457.41,-458.5 536.59,-458.5 536.59,-440.5 457.41,-440.5"/>
<text text-anchor="middle" x="497" y="-446.5" font-family="Helvetica,sans-Serif" font-size="10.00">tralics/Buffer.h</text>
</a>
</g>
</g>
<!-- Node9&#45;&gt;Node10 -->
<g id="edge9" class="edge">
<title>Node9&#45;&gt;Node10</title>
<path fill="none" stroke="midnightblue" d="M278.19,-498.22C318.14,-489.51 398.61,-471.96 450.04,-460.74"/>
<polygon fill="midnightblue" stroke="midnightblue" points="450.89,-464.14 459.92,-458.59 449.4,-457.3 450.89,-464.14"/>
</g>
<!-- Node30 -->
<g id="node30" class="node">
<title>Node30</title>
<g id="a_node30"><a xlink:title=" ">
<polygon fill="none" stroke="#bfbfbf" points="203.33,-440.5 203.33,-458.5 252.67,-458.5 252.67,-440.5 203.33,-440.5"/>
<text text-anchor="middle" x="228" y="-446.5" font-family="Helvetica,sans-Serif" font-size="10.00">fstream</text>
</a>
</g>
</g>
<!-- Node9&#45;&gt;Node30 -->
<g id="edge38" class="edge">
<title>Node9&#45;&gt;Node30</title>
<path fill="none" stroke="midnightblue" d="M249.94,-495.22C246.33,-487.86 240.94,-476.88 236.41,-467.64"/>
<polygon fill="midnightblue" stroke="midnightblue" points="239.5,-465.99 231.95,-458.55 233.21,-469.07 239.5,-465.99"/>
</g>
<!-- Node11 -->
<g id="node11" class="node">
<title>Node11</title>
<g id="a_node11"><a xlink:href="../../d1/d9e/txid_8h.html" target="_top" xlink:title=" ">
<polygon fill="none" stroke="black" points="480.88,-330.5 480.88,-348.5 529.12,-348.5 529.12,-330.5 480.88,-330.5"/>
<text text-anchor="middle" x="505" y="-336.5" font-family="Helvetica,sans-Serif" font-size="10.00">../txid.h</text>
</a>
</g>
</g>
<!-- Node10&#45;&gt;Node11 -->
<g id="edge10" class="edge">
<title>Node10&#45;&gt;Node11</title>
<path fill="none" stroke="midnightblue" d="M509.36,-440.31C520.01,-432.44 534.64,-419.48 541,-404 548.1,-386.72 535.09,-368.29 522.77,-355.76"/>
<polygon fill="midnightblue" stroke="midnightblue" points="525.05,-353.1 515.38,-348.78 520.25,-358.19 525.05,-353.1"/>
</g>
<!-- Node22 -->
<g id="node22" class="node">
<title>Node22</title>
<g id="a_node22"><a xlink:href="../../d9/d18/txscaled_8h.html" target="_top" xlink:title=" ">
<polygon fill="none" stroke="black" points="649.32,-385.5 649.32,-403.5 718.68,-403.5 718.68,-385.5 649.32,-385.5"/>
<text text-anchor="middle" x="684" y="-391.5" font-family="Helvetica,sans-Serif" font-size="10.00">../txscaled.h</text>
</a>
</g>
</g>
<!-- Node10&#45;&gt;Node22 -->
<g id="edge26" class="edge">
<title>Node10&#45;&gt;Node22</title>
<path fill="none" stroke="midnightblue" d="M525.4,-440.45C557.48,-431.36 609.87,-416.51 645.58,-406.39"/>
<polygon fill="midnightblue" stroke="midnightblue" points="646.97,-409.63 655.64,-403.54 645.06,-402.9 646.97,-409.63"/>
</g>
<!-- Node29 -->
<g id="node29" class="node">
<title>Node29</title>
<g id="a_node29"><a xlink:title=" ">
<polygon fill="none" stroke="#bfbfbf" points="486.27,-385.5 486.27,-403.5 531.73,-403.5 531.73,-385.5 486.27,-385.5"/>
<text text-anchor="middle" x="509" y="-391.5" font-family="Helvetica,sans-Serif" font-size="10.00">cstring</text>
</a>
</g>
</g>
<!-- Node10&#45;&gt;Node29 -->
<g id="edge37" class="edge">
<title>Node10&#45;&gt;Node29</title>
<path fill="none" stroke="midnightblue" d="M498.88,-440.22C500.49,-433.1 502.87,-422.58 504.92,-413.53"/>
<polygon fill="midnightblue" stroke="midnightblue" points="508.38,-414.08 507.18,-403.55 501.56,-412.53 508.38,-414.08"/>
</g>
<!-- Node12 -->
<g id="node12" class="node">
<title>Node12</title>
<g id="a_node12"><a xlink:href="../../d5/daf/_istring_8h.html" target="_top" xlink:title=" ">
<polygon fill="none" stroke="black" points="531.77,-275.5 531.77,-293.5 612.23,-293.5 612.23,-275.5 531.77,-275.5"/>
<text text-anchor="middle" x="572" y="-281.5" font-family="Helvetica,sans-Serif" font-size="10.00">tralics/Istring.h</text>
</a>
</g>
</g>
<!-- Node11&#45;&gt;Node12 -->
<g id="edge11" class="edge">
<title>Node11&#45;&gt;Node12</title>
<path fill="none" stroke="midnightblue" d="M515.18,-330.45C525.41,-322.36 541.4,-309.7 553.82,-299.88"/>
<polygon fill="midnightblue" stroke="midnightblue" points="556.06,-302.57 561.73,-293.63 551.71,-297.08 556.06,-302.57"/>
</g>
<!-- Node13 -->
<g id="node13" class="node">
<title>Node13</title>
<g id="a_node13"><a xlink:href="../../dd/d47/_str_hash_8h.html" target="_top" xlink:title=" ">
<polygon fill="none" stroke="black" points="384.77,-220.5 384.77,-238.5 445.23,-238.5 445.23,-220.5 384.77,-220.5"/>
<text text-anchor="middle" x="415" y="-226.5" font-family="Helvetica,sans-Serif" font-size="10.00">StrHash.h</text>
</a>
</g>
</g>
<!-- Node12&#45;&gt;Node13 -->
<g id="edge12" class="edge">
<title>Node12&#45;&gt;Node13</title>
<path fill="none" stroke="midnightblue" d="M548.16,-275.45C521.57,-266.47 478.37,-251.89 448.42,-241.78"/>
<polygon fill="midnightblue" stroke="midnightblue" points="449.41,-238.42 438.81,-238.54 447.17,-245.05 449.41,-238.42"/>
</g>
<!-- Node19 -->
<g id="node19" class="node">
<title>Node19</title>
<g id="a_node19"><a xlink:href="../../d0/d0b/enums_8h.html" target="_top" xlink:title=" ">
<polygon fill="none" stroke="black" points="557.82,-165.5 557.82,-183.5 612.18,-183.5 612.18,-165.5 557.82,-165.5"/>
<text text-anchor="middle" x="585" y="-171.5" font-family="Helvetica,sans-Serif" font-size="10.00">enums.h</text>
</a>
</g>
</g>
<!-- Node12&#45;&gt;Node19 -->
<g id="edge20" class="edge">
<title>Node12&#45;&gt;Node19</title>
<path fill="none" stroke="midnightblue" d="M572.98,-275.38C575.05,-258.18 579.92,-217.7 582.79,-193.89"/>
<polygon fill="midnightblue" stroke="midnightblue" points="586.29,-194.06 584.01,-183.71 579.34,-193.22 586.29,-194.06"/>
</g>
<!-- Node20 -->
<g id="node20" class="node">
<title>Node20</title>
<g id="a_node20"><a xlink:href="../../d8/d3c/util_8h.html" target="_top" xlink:title=" ">
<polygon fill="none" stroke="black" points="463.44,-220.5 463.44,-238.5 500.56,-238.5 500.56,-220.5 463.44,-220.5"/>
<text text-anchor="middle" x="482" y="-226.5" font-family="Helvetica,sans-Serif" font-size="10.00">util.h</text>
</a>
</g>
</g>
<!-- Node12&#45;&gt;Node20 -->
<g id="edge22" class="edge">
<title>Node12&#45;&gt;Node20</title>
<path fill="none" stroke="midnightblue" d="M558.33,-275.45C544.06,-267.05 521.44,-253.72 504.52,-243.76"/>
<polygon fill="midnightblue" stroke="midnightblue" points="506.19,-240.68 495.8,-238.63 502.64,-246.72 506.19,-240.68"/>
</g>
<!-- Node21 -->
<g id="node21" class="node">
<title>Node21</title>
<g id="a_node21"><a xlink:title=" ">
<polygon fill="none" stroke="#bfbfbf" points="518.61,-220.5 518.61,-238.5 557.39,-238.5 557.39,-220.5 518.61,-220.5"/>
<text text-anchor="middle" x="538" y="-226.5" font-family="Helvetica,sans-Serif" font-size="10.00">array</text>
</a>
</g>
</g>
<!-- Node12&#45;&gt;Node21 -->
<g id="edge25" class="edge">
<title>Node12&#45;&gt;Node21</title>
<path fill="none" stroke="midnightblue" d="M566.69,-275.22C561.87,-267.71 554.62,-256.41 548.62,-247.05"/>
<polygon fill="midnightblue" stroke="midnightblue" points="551.51,-245.08 543.16,-238.55 545.62,-248.86 551.51,-245.08"/>
</g>
<!-- Node13&#45;&gt;Node4 -->
<g id="edge18" class="edge">
<title>Node13&#45;&gt;Node4</title>
<path fill="none" stroke="midnightblue" d="M403.76,-220.45C392.35,-212.28 374.45,-199.46 360.69,-189.6"/>
<polygon fill="midnightblue" stroke="midnightblue" points="362.51,-186.6 352.34,-183.63 358.44,-192.29 362.51,-186.6"/>
</g>
<!-- Node13&#45;&gt;Node6 -->
<g id="edge19" class="edge">
<title>Node13&#45;&gt;Node6</title>
<path fill="none" stroke="midnightblue" d="M424.57,-220.45C434.1,-212.43 448.94,-199.95 460.57,-190.17"/>
<polygon fill="midnightblue" stroke="midnightblue" points="462.94,-192.74 468.34,-183.63 458.44,-187.38 462.94,-192.74"/>
</g>
<!-- Node14 -->
<g id="node14" class="node">
<title>Node14</title>
<g id="a_node14"><a xlink:href="../../d8/db5/consts_8h.html" target="_top" xlink:title=" ">
<polygon fill="none" stroke="black" points="543.38,-110.5 543.38,-128.5 596.62,-128.5 596.62,-110.5 543.38,-110.5"/>
<text text-anchor="middle" x="570" y="-116.5" font-family="Helvetica,sans-Serif" font-size="10.00">consts.h</text>
</a>
</g>
</g>
<!-- Node13&#45;&gt;Node14 -->
<g id="edge13" class="edge">
<title>Node13&#45;&gt;Node14</title>
<path fill="none" stroke="midnightblue" d="M417.02,-220.27C420.71,-206.85 429.82,-180.24 447,-165 471.22,-143.52 506.61,-132.16 533.22,-126.31"/>
<polygon fill="midnightblue" stroke="midnightblue" points="534.2,-129.69 543.31,-124.27 532.81,-122.83 534.2,-129.69"/>
</g>
<!-- Node15 -->
<g id="node15" class="node">
<title>Node15</title>
<g id="a_node15"><a xlink:href="../../d9/d49/types_8h.html" target="_top" xlink:title=" ">
<polygon fill="none" stroke="black" points="572.88,-55.5 572.88,-73.5 621.12,-73.5 621.12,-55.5 572.88,-55.5"/>
<text text-anchor="middle" x="597" y="-61.5" font-family="Helvetica,sans-Serif" font-size="10.00">types.h</text>
</a>
</g>
</g>
<!-- Node14&#45;&gt;Node15 -->
<g id="edge14" class="edge">
<title>Node14&#45;&gt;Node15</title>
<path fill="none" stroke="midnightblue" d="M574.22,-110.22C577.97,-102.86 583.56,-91.88 588.27,-82.64"/>
<polygon fill="midnightblue" stroke="midnightblue" points="591.48,-84.05 592.9,-73.55 585.24,-80.87 591.48,-84.05"/>
</g>
<!-- Node16 -->
<g id="node16" class="node">
<title>Node16</title>
<g id="a_node16"><a xlink:title=" ">
<polygon fill="none" stroke="#bfbfbf" points="506.88,-0.5 506.88,-18.5 555.12,-18.5 555.12,-0.5 506.88,-0.5"/>
<text text-anchor="middle" x="531" y="-6.5" font-family="Helvetica,sans-Serif" font-size="10.00">cassert</text>
</a>
</g>
</g>
<!-- Node15&#45;&gt;Node16 -->
<g id="edge15" class="edge">
<title>Node15&#45;&gt;Node16</title>
<path fill="none" stroke="midnightblue" d="M586.98,-55.45C576.99,-47.43 561.44,-34.95 549.26,-25.17"/>
<polygon fill="midnightblue" stroke="midnightblue" points="551.11,-22.16 541.12,-18.63 546.72,-27.62 551.11,-22.16"/>
</g>
<!-- Node17 -->
<g id="node17" class="node">
<title>Node17</title>
<g id="a_node17"><a xlink:title=" ">
<polygon fill="none" stroke="#bfbfbf" points="572.88,-0.5 572.88,-18.5 621.12,-18.5 621.12,-0.5 572.88,-0.5"/>
<text text-anchor="middle" x="597" y="-6.5" font-family="Helvetica,sans-Serif" font-size="10.00">cstddef</text>
</a>
</g>
</g>
<!-- Node15&#45;&gt;Node17 -->
<g id="edge16" class="edge">
<title>Node15&#45;&gt;Node17</title>
<path fill="none" stroke="midnightblue" d="M597,-55.22C597,-48.18 597,-37.81 597,-28.83"/>
<polygon fill="midnightblue" stroke="midnightblue" points="600.5,-28.55 597,-18.55 593.5,-28.55 600.5,-28.55"/>
</g>
<!-- Node18 -->
<g id="node18" class="node">
<title>Node18</title>
<g id="a_node18"><a xlink:title=" ">
<polygon fill="none" stroke="#bfbfbf" points="638.93,-0.5 638.93,-18.5 701.07,-18.5 701.07,-0.5 638.93,-0.5"/>
<text text-anchor="middle" x="670" y="-6.5" font-family="Helvetica,sans-Serif" font-size="10.00">type_traits</text>
</a>
</g>
</g>
<!-- Node15&#45;&gt;Node18 -->
<g id="edge17" class="edge">
<title>Node15&#45;&gt;Node18</title>
<path fill="none" stroke="midnightblue" d="M608.09,-55.45C619.34,-47.28 637,-34.46 650.58,-24.6"/>
<polygon fill="midnightblue" stroke="midnightblue" points="652.77,-27.33 658.81,-18.63 648.66,-21.67 652.77,-27.33"/>
</g>
<!-- Node19&#45;&gt;Node14 -->
<g id="edge21" class="edge">
<title>Node19&#45;&gt;Node14</title>
<path fill="none" stroke="midnightblue" d="M582.66,-165.22C580.62,-158.02 577.6,-147.35 575.02,-138.23"/>
<polygon fill="midnightblue" stroke="midnightblue" points="578.37,-137.22 572.28,-128.55 571.63,-139.12 578.37,-137.22"/>
</g>
<!-- Node20&#45;&gt;Node4 -->
<g id="edge23" class="edge">
<title>Node20&#45;&gt;Node4</title>
<path fill="none" stroke="midnightblue" d="M463.28,-221.46C439.79,-212.63 399.22,-197.39 371.3,-186.89"/>
<polygon fill="midnightblue" stroke="midnightblue" points="372.23,-183.5 361.63,-183.26 369.76,-190.05 372.23,-183.5"/>
</g>
<!-- Node20&#45;&gt;Node6 -->
<g id="edge24" class="edge">
<title>Node20&#45;&gt;Node6</title>
<path fill="none" stroke="midnightblue" d="M481.38,-220.22C480.84,-213.1 480.04,-202.58 479.36,-193.53"/>
<polygon fill="midnightblue" stroke="midnightblue" points="482.85,-193.26 478.61,-183.55 475.87,-193.78 482.85,-193.26"/>
</g>
<!-- Node23 -->
<g id="node23" class="node">
<title>Node23</title>
<g id="a_node23"><a xlink:href="../../dc/d91/txtokenlist_8h.html" target="_top" xlink:title=" ">
<polygon fill="none" stroke="black" points="610.6,-330.5 610.6,-348.5 679.4,-348.5 679.4,-330.5 610.6,-330.5"/>
<text text-anchor="middle" x="645" y="-336.5" font-family="Helvetica,sans-Serif" font-size="10.00">txtokenlist.h</text>
</a>
</g>
</g>
<!-- Node22&#45;&gt;Node23 -->
<g id="edge27" class="edge">
<title>Node22&#45;&gt;Node23</title>
<path fill="none" stroke="midnightblue" d="M677.91,-385.22C672.32,-377.63 663.89,-366.18 656.96,-356.76"/>
<polygon fill="midnightblue" stroke="midnightblue" points="659.67,-354.53 650.92,-348.55 654.03,-358.68 659.67,-354.53"/>
</g>
<!-- Node23&#45;&gt;Node5 -->
<g id="edge36" class="edge">
<title>Node23&#45;&gt;Node5</title>
<path fill="none" stroke="midnightblue" d="M610.48,-331.89C555.53,-321.38 449.11,-301.02 397.5,-291.14"/>
<polygon fill="midnightblue" stroke="midnightblue" points="398.13,-287.7 387.65,-289.26 396.81,-294.58 398.13,-287.7"/>
</g>
<!-- Node23&#45;&gt;Node12 -->
<g id="edge28" class="edge">
<title>Node23&#45;&gt;Node12</title>
<path fill="none" stroke="midnightblue" d="M633.91,-330.45C622.66,-322.28 605,-309.46 591.42,-299.6"/>
<polygon fill="midnightblue" stroke="midnightblue" points="593.34,-296.67 583.19,-293.63 589.23,-302.33 593.34,-296.67"/>
</g>
<!-- Node24 -->
<g id="node24" class="node">
<title>Node24</title>
<g id="a_node24"><a xlink:href="../../dd/dcd/_token_8h.html" target="_top" xlink:title=" ">
<polygon fill="none" stroke="black" points="630.04,-275.5 630.04,-293.5 709.96,-293.5 709.96,-275.5 630.04,-275.5"/>
<text text-anchor="middle" x="670" y="-281.5" font-family="Helvetica,sans-Serif" font-size="10.00">tralics/Token.h</text>
</a>
</g>
</g>
<!-- Node23&#45;&gt;Node24 -->
<g id="edge29" class="edge">
<title>Node23&#45;&gt;Node24</title>
<path fill="none" stroke="midnightblue" d="M648.91,-330.22C652.38,-322.86 657.56,-311.88 661.92,-302.64"/>
<polygon fill="midnightblue" stroke="midnightblue" points="665.1,-304.09 666.2,-293.55 658.77,-301.1 665.1,-304.09"/>
</g>
<!-- Node25 -->
<g id="node25" class="node">
<title>Node25</title>
<g id="a_node25"><a xlink:href="../../d2/d68/_cmd_chr_8h.html" target="_top" xlink:title=" ">
<polygon fill="none" stroke="black" points="613.49,-220.5 613.49,-238.5 674.51,-238.5 674.51,-220.5 613.49,-220.5"/>
<text text-anchor="middle" x="644" y="-226.5" font-family="Helvetica,sans-Serif" font-size="10.00">CmdChr.h</text>
</a>
</g>
</g>
<!-- Node24&#45;&gt;Node25 -->
<g id="edge30" class="edge">
<title>Node24&#45;&gt;Node25</title>
<path fill="none" stroke="midnightblue" d="M665.94,-275.22C662.33,-267.86 656.94,-256.88 652.41,-247.64"/>
<polygon fill="midnightblue" stroke="midnightblue" points="655.5,-245.99 647.95,-238.55 649.21,-249.07 655.5,-245.99"/>
</g>
<!-- Node28 -->
<g id="node28" class="node">
<title>Node28</title>
<g id="a_node28"><a xlink:title=" ">
<polygon fill="none" stroke="#bfbfbf" points="692.5,-220.5 692.5,-238.5 721.5,-238.5 721.5,-220.5 692.5,-220.5"/>
<text text-anchor="middle" x="706.61" y="-226.5" font-family="Helvetica,sans-Serif" font-size="10.00">list</text>
</a>
</g>
</g>
<!-- Node24&#45;&gt;Node28 -->
<g id="edge35" class="edge">
<title>Node24&#45;&gt;Node28</title>
<path fill="none" stroke="midnightblue" d="M675.78,-275.22C681.08,-267.63 689.08,-256.18 695.65,-246.76"/>
<polygon fill="midnightblue" stroke="midnightblue" points="698.53,-248.75 701.38,-238.55 692.79,-244.75 698.53,-248.75"/>
</g>
<!-- Node25&#45;&gt;Node19 -->
<g id="edge34" class="edge">
<title>Node25&#45;&gt;Node19</title>
<path fill="none" stroke="midnightblue" d="M635.04,-220.45C626.2,-212.51 612.48,-200.19 601.64,-190.45"/>
<polygon fill="midnightblue" stroke="midnightblue" points="603.82,-187.7 594.05,-183.63 599.15,-192.91 603.82,-187.7"/>
</g>
<!-- Node26 -->
<g id="node26" class="node">
<title>Node26</title>
<g id="a_node26"><a xlink:href="../../d8/d47/codepoint_8h.html" target="_top" xlink:title=" ">
<polygon fill="none" stroke="black" points="630.15,-165.5 630.15,-183.5 697.85,-183.5 697.85,-165.5 630.15,-165.5"/>
<text text-anchor="middle" x="664" y="-171.5" font-family="Helvetica,sans-Serif" font-size="10.00">codepoint.h</text>
</a>
</g>
</g>
<!-- Node25&#45;&gt;Node26 -->
<g id="edge31" class="edge">
<title>Node25&#45;&gt;Node26</title>
<path fill="none" stroke="midnightblue" d="M647.12,-220.22C649.87,-212.94 653.96,-202.11 657.42,-192.93"/>
<polygon fill="midnightblue" stroke="midnightblue" points="660.71,-194.14 660.96,-183.55 654.16,-191.67 660.71,-194.14"/>
</g>
<!-- Node26&#45;&gt;Node15 -->
<g id="edge32" class="edge">
<title>Node26&#45;&gt;Node15</title>
<path fill="none" stroke="midnightblue" d="M658.96,-165.38C648.05,-147.79 622.03,-105.85 607.42,-82.29"/>
<polygon fill="midnightblue" stroke="midnightblue" points="610.34,-80.36 602.09,-73.71 604.39,-84.05 610.34,-80.36"/>
</g>
<!-- Node27 -->
<g id="node27" class="node">
<title>Node27</title>
<g id="a_node27"><a xlink:title=" ">
<polygon fill="none" stroke="#bfbfbf" points="653.49,-110.5 653.49,-128.5 704.51,-128.5 704.51,-110.5 653.49,-110.5"/>
<text text-anchor="middle" x="679" y="-116.5" font-family="Helvetica,sans-Serif" font-size="10.00">optional</text>
</a>
</g>
</g>
<!-- Node26&#45;&gt;Node27 -->
<g id="edge33" class="edge">
<title>Node26&#45;&gt;Node27</title>
<path fill="none" stroke="midnightblue" d="M666.34,-165.22C668.38,-158.02 671.4,-147.35 673.98,-138.23"/>
<polygon fill="midnightblue" stroke="midnightblue" points="677.37,-139.12 676.72,-128.55 670.63,-137.22 677.37,-139.12"/>
</g>
<!-- Node31&#45;&gt;Node30 -->
<g id="edge40" class="edge">
<title>Node31&#45;&gt;Node30</title>
<path fill="none" stroke="midnightblue" d="M70.78,-550.38C99.7,-532.01 170.44,-487.07 206.34,-464.26"/>
<polygon fill="midnightblue" stroke="midnightblue" points="208.51,-467.03 215.07,-458.71 204.76,-461.12 208.51,-467.03"/>
</g>
<!-- Node32 -->
<g id="node32" class="node">
<title>Node32</title>
<g id="a_node32"><a xlink:title=" ">
<polygon fill="none" stroke="#bfbfbf" points="30.83,-495.5 30.83,-513.5 85.17,-513.5 85.17,-495.5 30.83,-495.5"/>
<text text-anchor="middle" x="58" y="-501.5" font-family="Helvetica,sans-Serif" font-size="10.00">iostream</text>
</a>
</g>
</g>
<!-- Node31&#45;&gt;Node32 -->
<g id="edge41" class="edge">
<title>Node31&#45;&gt;Node32</title>
<path fill="none" stroke="midnightblue" d="M58,-550.22C58,-543.18 58,-532.81 58,-523.83"/>
<polygon fill="midnightblue" stroke="midnightblue" points="61.5,-523.55 58,-513.55 54.5,-523.55 61.5,-523.55"/>
</g>
<!-- Node33&#45;&gt;Node9 -->
<g id="edge43" class="edge">
<title>Node33&#45;&gt;Node9</title>
<path fill="none" stroke="midnightblue" d="M254,-550.22C254,-543.18 254,-532.81 254,-523.83"/>
<polygon fill="midnightblue" stroke="midnightblue" points="257.5,-523.55 254,-513.55 250.5,-523.55 257.5,-523.55"/>
</g>
<!-- Node34&#45;&gt;Node9 -->
<g id="edge60" class="edge">
<title>Node34&#45;&gt;Node9</title>
<path fill="none" stroke="midnightblue" d="M399.16,-605.45C382.92,-597 357.12,-583.02 336,-569 312.84,-553.63 287.78,-533.7 271.55,-520.3"/>
<polygon fill="midnightblue" stroke="midnightblue" points="273.43,-517.31 263.5,-513.6 268.95,-522.69 273.43,-517.31"/>
</g>
<!-- Node35 -->
<g id="node35" class="node">
<title>Node35</title>
<g id="a_node35"><a xlink:href="../../d8/dd6/_e_q_t_b_8h.html" target="_top" xlink:title=" ">
<polygon fill="none" stroke="black" points="654.77,-440.5 654.77,-458.5 735.23,-458.5 735.23,-440.5 654.77,-440.5"/>
<text text-anchor="middle" x="695" y="-446.5" font-family="Helvetica,sans-Serif" font-size="10.00">tralics/EQTB.h</text>
</a>
</g>
</g>
<!-- Node34&#45;&gt;Node35 -->
<g id="edge45" class="edge">
<title>Node34&#45;&gt;Node35</title>
<path fill="none" stroke="midnightblue" d="M445.19,-606.82C496.16,-595.46 594.39,-573.22 601,-569 641.47,-543.21 672.06,-493.85 686.25,-467.72"/>
<polygon fill="midnightblue" stroke="midnightblue" points="689.47,-469.13 691.02,-458.65 683.27,-465.87 689.47,-469.13"/>
</g>
<!-- Node36 -->
<g id="node36" class="node">
<title>Node36</title>
<g id="a_node36"><a xlink:href="../../d3/d6b/txcond_8h.html" target="_top" xlink:title=" ">
<polygon fill="none" stroke="black" points="739.1,-220.5 739.1,-238.5 792.9,-238.5 792.9,-220.5 739.1,-220.5"/>
<text text-anchor="middle" x="766" y="-226.5" font-family="Helvetica,sans-Serif" font-size="10.00">txcond.h</text>
</a>
</g>
</g>
<!-- Node34&#45;&gt;Node36 -->
<g id="edge47" class="edge">
<title>Node34&#45;&gt;Node36</title>
<path fill="none" stroke="midnightblue" d="M445.23,-606.89C448.19,-606.25 451.15,-605.61 454,-605 595.92,-574.68 765,-650.62 765,-505.5 765,-505.5 765,-505.5 765,-338.5 765,-307.02 765.43,-270.37 765.73,-248.88"/>
<polygon fill="midnightblue" stroke="midnightblue" points="769.23,-248.68 765.87,-238.63 762.23,-248.58 769.23,-248.68"/>
</g>
<!-- Node37 -->
<g id="node37" class="node">
<title>Node37</title>
<g id="a_node37"><a xlink:href="../../d7/d4d/txfonts_8h.html" target="_top" xlink:title=" ">
<polygon fill="none" stroke="black" points="370.1,-330.5 370.1,-348.5 423.9,-348.5 423.9,-330.5 370.1,-330.5"/>
<text text-anchor="middle" x="397" y="-336.5" font-family="Helvetica,sans-Serif" font-size="10.00">txfonts.h</text>
</a>
</g>
</g>
<!-- Node34&#45;&gt;Node37 -->
<g id="edge50" class="edge">
<title>Node34&#45;&gt;Node37</title>
<path fill="none" stroke="midnightblue" d="M411.47,-605.27C404.15,-587.45 388,-543.77 388,-505.5 388,-505.5 388,-505.5 388,-448.5 388,-416.76 391.91,-379.96 394.57,-358.55"/>
<polygon fill="midnightblue" stroke="midnightblue" points="398.05,-358.98 395.86,-348.61 391.1,-358.08 398.05,-358.98"/>
</g>
<!-- Node38 -->
<g id="node38" class="node">
<title>Node38</title>
<g id="a_node38"><a xlink:href="../../d7/d7e/txhash_8h.html" target="_top" xlink:title=" ">
<polygon fill="none" stroke="black" points="457.1,-495.5 457.1,-513.5 510.9,-513.5 510.9,-495.5 457.1,-495.5"/>
<text text-anchor="middle" x="484" y="-501.5" font-family="Helvetica,sans-Serif" font-size="10.00">txhash.h</text>
</a>
</g>
</g>
<!-- Node34&#45;&gt;Node38 -->
<g id="edge53" class="edge">
<title>Node34&#45;&gt;Node38</title>
<path fill="none" stroke="midnightblue" d="M434.85,-605.4C449.73,-598.2 469.17,-586.14 479,-569 486.83,-555.35 487.5,-537.25 486.55,-523.87"/>
<polygon fill="midnightblue" stroke="midnightblue" points="489.99,-523.12 485.44,-513.56 483.03,-523.87 489.99,-523.12"/>
</g>
<!-- Node40 -->
<g id="node40" class="node">
<title>Node40</title>
<g id="a_node40"><a xlink:href="../../de/d7c/tximage_8h.html" target="_top" xlink:title=" ">
<polygon fill="none" stroke="black" points="292.32,-330.5 292.32,-348.5 351.68,-348.5 351.68,-330.5 292.32,-330.5"/>
<text text-anchor="middle" x="322" y="-336.5" font-family="Helvetica,sans-Serif" font-size="10.00">tximage.h</text>
</a>
</g>
</g>
<!-- Node34&#45;&gt;Node40 -->
<g id="edge57" class="edge">
<title>Node34&#45;&gt;Node40</title>
<path fill="none" stroke="midnightblue" d="M405.69,-605.3C387.71,-588.5 350,-548.17 350,-505.5 350,-505.5 350,-505.5 350,-448.5 350,-415.84 337.85,-379.35 329.56,-358.25"/>
<polygon fill="midnightblue" stroke="midnightblue" points="332.69,-356.64 325.66,-348.71 326.21,-359.29 332.69,-356.64"/>
</g>
<!-- Node41 -->
<g id="node41" class="node">
<title>Node41</title>
<g id="a_node41"><a xlink:href="../../dc/d65/txstack_8h.html" target="_top" xlink:title=" ">
<polygon fill="none" stroke="black" points="536.27,-550.5 536.27,-568.5 591.73,-568.5 591.73,-550.5 536.27,-550.5"/>
<text text-anchor="middle" x="564" y="-556.5" font-family="Helvetica,sans-Serif" font-size="10.00">txstack.h</text>
</a>
</g>
</g>
<!-- Node34&#45;&gt;Node41 -->
<g id="edge61" class="edge">
<title>Node34&#45;&gt;Node41</title>
<path fill="none" stroke="midnightblue" d="M437.63,-605.45C462.68,-596.54 503.27,-582.1 531.67,-572"/>
<polygon fill="midnightblue" stroke="midnightblue" points="532.91,-575.27 541.16,-568.63 530.56,-568.68 532.91,-575.27"/>
</g>
<!-- Node45 -->
<g id="node45" class="node">
<title>Node45</title>
<g id="a_node45"><a xlink:href="../../d8/d3d/txstats_8h.html" target="_top" xlink:title=" ">
<polygon fill="none" stroke="black" points="416.38,-550.5 416.38,-568.5 469.62,-568.5 469.62,-550.5 416.38,-550.5"/>
<text text-anchor="middle" x="443" y="-556.5" font-family="Helvetica,sans-Serif" font-size="10.00">txstats.h</text>
</a>
</g>
</g>
<!-- Node34&#45;&gt;Node45 -->
<g id="edge67" class="edge">
<title>Node34&#45;&gt;Node45</title>
<path fill="none" stroke="midnightblue" d="M419.38,-605.22C423.26,-597.86 429.06,-586.88 433.95,-577.64"/>
<polygon fill="midnightblue" stroke="midnightblue" points="437.17,-579.03 438.75,-568.55 430.98,-575.76 437.17,-579.03"/>
</g>
<!-- Node35&#45;&gt;Node22 -->
<g id="edge46" class="edge">
<title>Node35&#45;&gt;Node22</title>
<path fill="none" stroke="midnightblue" d="M693.28,-440.22C691.8,-433.1 689.62,-422.58 687.74,-413.53"/>
<polygon fill="midnightblue" stroke="midnightblue" points="691.13,-412.63 685.67,-403.55 684.28,-414.05 691.13,-412.63"/>
</g>
<!-- Node36&#45;&gt;Node6 -->
<g id="edge49" class="edge">
<title>Node36&#45;&gt;Node6</title>
<path fill="none" stroke="midnightblue" d="M738.91,-221.74C736.24,-221.13 733.57,-220.54 731,-220 651.86,-203.45 557.93,-188.02 509.85,-180.43"/>
<polygon fill="midnightblue" stroke="midnightblue" points="510.17,-176.94 499.75,-178.84 509.09,-183.85 510.17,-176.94"/>
</g>
<!-- Node36&#45;&gt;Node19 -->
<g id="edge48" class="edge">
<title>Node36&#45;&gt;Node19</title>
<path fill="none" stroke="midnightblue" d="M738.9,-220.57C707.85,-211.47 656.77,-196.52 622.05,-186.35"/>
<polygon fill="midnightblue" stroke="midnightblue" points="622.86,-182.94 612.28,-183.49 620.9,-189.66 622.86,-182.94"/>
</g>
<!-- Node37&#45;&gt;Node5 -->
<g id="edge51" class="edge">
<title>Node37&#45;&gt;Node5</title>
<path fill="none" stroke="midnightblue" d="M392.47,-330.22C388.4,-322.79 382.31,-311.65 377.22,-302.34"/>
<polygon fill="midnightblue" stroke="midnightblue" points="380.28,-300.64 372.4,-293.55 374.13,-304 380.28,-300.64"/>
</g>
<!-- Node37&#45;&gt;Node13 -->
<g id="edge52" class="edge">
<title>Node37&#45;&gt;Node13</title>
<path fill="none" stroke="midnightblue" d="M398.35,-330.38C401.22,-313.18 407.97,-272.7 411.94,-248.89"/>
<polygon fill="midnightblue" stroke="midnightblue" points="415.44,-249.15 413.63,-238.71 408.53,-248 415.44,-249.15"/>
</g>
<!-- Node38&#45;&gt;Node10 -->
<g id="edge54" class="edge">
<title>Node38&#45;&gt;Node10</title>
<path fill="none" stroke="midnightblue" d="M486.03,-495.22C487.78,-488.1 490.36,-477.58 492.58,-468.53"/>
<polygon fill="midnightblue" stroke="midnightblue" points="496.04,-469.1 495.03,-458.55 489.24,-467.43 496.04,-469.1"/>
</g>
<!-- Node39 -->
<g id="node39" class="node">
<title>Node39</title>
<g id="a_node39"><a xlink:href="../../d3/d01/txeqtb_8h.html" target="_top" xlink:title=" ">
<polygon fill="none" stroke="black" points="416.21,-385.5 416.21,-403.5 467.79,-403.5 467.79,-385.5 416.21,-385.5"/>
<text text-anchor="middle" x="442" y="-391.5" font-family="Helvetica,sans-Serif" font-size="10.00">txeqtb.h</text>
</a>
</g>
</g>
<!-- Node38&#45;&gt;Node39 -->
<g id="edge55" class="edge">
<title>Node38&#45;&gt;Node39</title>
<path fill="none" stroke="midnightblue" d="M474.82,-495.32C466.25,-487.08 453.93,-473.54 448,-459 442.11,-444.57 440.89,-426.81 440.97,-413.74"/>
<polygon fill="midnightblue" stroke="midnightblue" points="444.48,-413.78 441.31,-403.67 437.48,-413.55 444.48,-413.78"/>
</g>
<!-- Node39&#45;&gt;Node13 -->
<g id="edge56" class="edge">
<title>Node39&#45;&gt;Node13</title>
<path fill="none" stroke="midnightblue" d="M440.93,-385.26C439.34,-373.14 436.19,-349.79 433,-330 428.4,-301.47 422.27,-268.49 418.49,-248.58"/>
<polygon fill="midnightblue" stroke="midnightblue" points="421.92,-247.9 416.6,-238.74 415.04,-249.22 421.92,-247.9"/>
</g>
<!-- Node40&#45;&gt;Node4 -->
<g id="edge58" class="edge">
<title>Node40&#45;&gt;Node4</title>
<path fill="none" stroke="midnightblue" d="M322.97,-330.19C325.9,-305.01 334.75,-229.11 338.86,-193.86"/>
<polygon fill="midnightblue" stroke="midnightblue" points="342.37,-193.94 340.06,-183.6 335.42,-193.12 342.37,-193.94"/>
</g>
<!-- Node40&#45;&gt;Node5 -->
<g id="edge59" class="edge">
<title>Node40&#45;&gt;Node5</title>
<path fill="none" stroke="midnightblue" d="M329.19,-330.22C335.91,-322.47 346.13,-310.7 354.39,-301.18"/>
<polygon fill="midnightblue" stroke="midnightblue" points="357.1,-303.4 361.01,-293.55 351.82,-298.81 357.1,-303.4"/>
</g>
<!-- Node42 -->
<g id="node42" class="node">
<title>Node42</title>
<g id="a_node42"><a xlink:href="../../d9/d1c/_xml_8h.html" target="_top" xlink:title=" ">
<polygon fill="none" stroke="black" points="528.77,-495.5 528.77,-513.5 599.23,-513.5 599.23,-495.5 528.77,-495.5"/>
<text text-anchor="middle" x="564" y="-501.5" font-family="Helvetica,sans-Serif" font-size="10.00">tralics/Xml.h</text>
</a>
</g>
</g>
<!-- Node41&#45;&gt;Node42 -->
<g id="edge62" class="edge">
<title>Node41&#45;&gt;Node42</title>
<path fill="none" stroke="midnightblue" d="M564,-550.22C564,-543.18 564,-532.81 564,-523.83"/>
<polygon fill="midnightblue" stroke="midnightblue" points="567.5,-523.55 564,-513.55 560.5,-523.55 567.5,-523.55"/>
</g>
<!-- Node44 -->
<g id="node44" class="node">
<title>Node44</title>
<g id="a_node44"><a xlink:href="../../d4/da4/txatt_8h.html" target="_top" xlink:title=" ">
<polygon fill="none" stroke="black" points="588.38,-385.5 588.38,-403.5 631.62,-403.5 631.62,-385.5 588.38,-385.5"/>
<text text-anchor="middle" x="610" y="-391.5" font-family="Helvetica,sans-Serif" font-size="10.00">txatt.h</text>
</a>
</g>
</g>
<!-- Node41&#45;&gt;Node44 -->
<g id="edge65" class="edge">
<title>Node41&#45;&gt;Node44</title>
<path fill="none" stroke="midnightblue" d="M576.3,-550.28C586.91,-542.39 601.51,-529.42 608,-514 621.99,-480.76 617.76,-437.5 613.7,-413.51"/>
<polygon fill="midnightblue" stroke="midnightblue" points="617.14,-412.87 611.86,-403.68 610.26,-414.16 617.14,-412.87"/>
</g>
<!-- Node42&#45;&gt;Node10 -->
<g id="edge63" class="edge">
<title>Node42&#45;&gt;Node10</title>
<path fill="none" stroke="midnightblue" d="M553.82,-495.45C543.59,-487.36 527.6,-474.7 515.18,-464.88"/>
<polygon fill="midnightblue" stroke="midnightblue" points="517.29,-462.08 507.27,-458.63 512.94,-467.57 517.29,-462.08"/>
</g>
<!-- Node43 -->
<g id="node43" class="node">
<title>Node43</title>
<g id="a_node43"><a xlink:title=" ">
<polygon fill="none" stroke="#bfbfbf" points="554.83,-440.5 554.83,-458.5 599.17,-458.5 599.17,-440.5 554.83,-440.5"/>
<text text-anchor="middle" x="577" y="-446.5" font-family="Helvetica,sans-Serif" font-size="10.00">gsl/gsl</text>
</a>
</g>
</g>
<!-- Node42&#45;&gt;Node43 -->
<g id="edge64" class="edge">
<title>Node42&#45;&gt;Node43</title>
<path fill="none" stroke="midnightblue" d="M566.03,-495.22C567.78,-488.1 570.36,-477.58 572.58,-468.53"/>
<polygon fill="midnightblue" stroke="midnightblue" points="576.04,-469.1 575.03,-458.55 569.24,-467.43 576.04,-469.1"/>
</g>
<!-- Node44&#45;&gt;Node13 -->
<g id="edge66" class="edge">
<title>Node44&#45;&gt;Node13</title>
<path fill="none" stroke="midnightblue" d="M600.79,-385.15C587.2,-372.89 560.92,-349.36 538,-330 501.37,-299.06 457.51,-264.05 433.3,-244.91"/>
<polygon fill="midnightblue" stroke="midnightblue" points="435.34,-242.06 425.33,-238.61 431.01,-247.55 435.34,-242.06"/>
</g>
</g>
</svg>
