<?xml version="1.0" encoding="UTF-8" standalone="no"?>
<!DOCTYPE svg PUBLIC "-//W3C//DTD SVG 1.1//EN"
 "http://www.w3.org/Graphics/SVG/1.1/DTD/svg11.dtd">
<!-- Generated by graphviz version 2.43.0 (0)
 -->
<!-- Title: txscan.C Pages: 1 -->
<svg width="764pt" height="687pt"
 viewBox="0.00 0.00 764.36 687.00" xmlns="http://www.w3.org/2000/svg" xmlns:xlink="http://www.w3.org/1999/xlink">
<g id="graph0" class="graph" transform="scale(1 1) rotate(0) translate(4 683)">
<title>txscan.C</title>
<polygon fill="white" stroke="transparent" points="-4,4 -4,-683 760.36,-683 760.36,4 -4,4"/>
<!-- Node1 -->
<g id="node1" class="node">
<title>Node1</title>
<g id="a_node1"><a xlink:title=" ">
<polygon fill="#bfbfbf" stroke="black" points="421.23,-660.5 421.23,-678.5 476.14,-678.5 476.14,-660.5 421.23,-660.5"/>
<text text-anchor="middle" x="448.68" y="-666.5" font-family="Helvetica,sans-Serif" font-size="10.00">txscan.C</text>
</a>
</g>
</g>
<!-- Node2 -->
<g id="node2" class="node">
<title>Node2</title>
<g id="a_node2"><a xlink:href="../../d7/d79/txinline_8h.html" target="_top" xlink:title=" ">
<polygon fill="white" stroke="black" points="147.95,-605.5 147.95,-623.5 203.42,-623.5 203.42,-605.5 147.95,-605.5"/>
<text text-anchor="middle" x="175.68" y="-611.5" font-family="Helvetica,sans-Serif" font-size="10.00">txinline.h</text>
</a>
</g>
</g>
<!-- Node1&#45;&gt;Node2 -->
<g id="edge1" class="edge">
<title>Node1&#45;&gt;Node2</title>
<path fill="none" stroke="midnightblue" d="M421.01,-663.13C371.85,-653.58 269.26,-633.67 213.59,-622.86"/>
<polygon fill="midnightblue" stroke="midnightblue" points="213.92,-619.36 203.44,-620.89 212.59,-626.23 213.92,-619.36"/>
</g>
<!-- Node28 -->
<g id="node28" class="node">
<title>Node28</title>
<g id="a_node28"><a xlink:href="../../df/d79/txmath_8h.html" target="_top" xlink:title=" ">
<polygon fill="white" stroke="black" points="605.51,-550.5 605.51,-568.5 659.86,-568.5 659.86,-550.5 605.51,-550.5"/>
<text text-anchor="middle" x="632.68" y="-556.5" font-family="Helvetica,sans-Serif" font-size="10.00">txmath.h</text>
</a>
</g>
</g>
<!-- Node1&#45;&gt;Node28 -->
<g id="edge35" class="edge">
<title>Node1&#45;&gt;Node28</title>
<path fill="none" stroke="midnightblue" d="M462.51,-660.38C493.95,-641.93 571.03,-596.69 609.73,-573.97"/>
<polygon fill="midnightblue" stroke="midnightblue" points="611.84,-576.79 618.69,-568.71 608.3,-570.76 611.84,-576.79"/>
</g>
<!-- Node30 -->
<g id="node30" class="node">
<title>Node30</title>
<g id="a_node30"><a xlink:href="../../d2/d1b/txparser_8h.html" target="_top" xlink:title=" ">
<polygon fill="white" stroke="black" points="418.73,-605.5 418.73,-623.5 478.64,-623.5 478.64,-605.5 418.73,-605.5"/>
<text text-anchor="middle" x="448.68" y="-611.5" font-family="Helvetica,sans-Serif" font-size="10.00">txparser.h</text>
</a>
</g>
</g>
<!-- Node1&#45;&gt;Node30 -->
<g id="edge38" class="edge">
<title>Node1&#45;&gt;Node30</title>
<path fill="none" stroke="midnightblue" d="M448.68,-660.22C448.68,-653.18 448.68,-642.81 448.68,-633.83"/>
<polygon fill="midnightblue" stroke="midnightblue" points="452.18,-633.55 448.68,-623.55 445.18,-633.55 452.18,-633.55"/>
</g>
<!-- Node3 -->
<g id="node3" class="node">
<title>Node3</title>
<g id="a_node3"><a xlink:href="../../d4/de9/_main_class_8h.html" target="_top" xlink:title=" ">
<polygon fill="white" stroke="black" points="193.73,-550.5 193.73,-568.5 293.64,-568.5 293.64,-550.5 193.73,-550.5"/>
<text text-anchor="middle" x="243.68" y="-556.5" font-family="Helvetica,sans-Serif" font-size="10.00">tralics/MainClass.h</text>
</a>
</g>
</g>
<!-- Node2&#45;&gt;Node3 -->
<g id="edge2" class="edge">
<title>Node2&#45;&gt;Node3</title>
<path fill="none" stroke="midnightblue" d="M186.01,-605.45C196.4,-597.36 212.63,-584.7 225.23,-574.88"/>
<polygon fill="midnightblue" stroke="midnightblue" points="227.52,-577.53 233.26,-568.63 223.22,-572.01 227.52,-577.53"/>
</g>
<!-- Node25 -->
<g id="node25" class="node">
<title>Node25</title>
<g id="a_node25"><a xlink:href="../../d2/d06/txlogger_8h.html" target="_top" xlink:title=" ">
<polygon fill="white" stroke="black" points="0,-550.5 0,-568.5 59.37,-568.5 59.37,-550.5 0,-550.5"/>
<text text-anchor="middle" x="29.68" y="-556.5" font-family="Helvetica,sans-Serif" font-size="10.00">txlogger.h</text>
</a>
</g>
</g>
<!-- Node2&#45;&gt;Node25 -->
<g id="edge30" class="edge">
<title>Node2&#45;&gt;Node25</title>
<path fill="none" stroke="midnightblue" d="M153.51,-605.45C129.07,-596.58 89.54,-582.23 61.73,-572.13"/>
<polygon fill="midnightblue" stroke="midnightblue" points="62.66,-568.75 52.07,-568.63 60.27,-575.33 62.66,-568.75"/>
</g>
<!-- Node27 -->
<g id="node27" class="node">
<title>Node27</title>
<g id="a_node27"><a xlink:href="../../d5/d08/txparam_8h.html" target="_top" xlink:title=" ">
<polygon fill="white" stroke="black" points="77.45,-550.5 77.45,-568.5 137.92,-568.5 137.92,-550.5 77.45,-550.5"/>
<text text-anchor="middle" x="107.68" y="-556.5" font-family="Helvetica,sans-Serif" font-size="10.00">txparam.h</text>
</a>
</g>
</g>
<!-- Node2&#45;&gt;Node27 -->
<g id="edge33" class="edge">
<title>Node2&#45;&gt;Node27</title>
<path fill="none" stroke="midnightblue" d="M165.36,-605.45C154.97,-597.36 138.74,-584.7 126.14,-574.88"/>
<polygon fill="midnightblue" stroke="midnightblue" points="128.15,-572.01 118.11,-568.63 123.85,-577.53 128.15,-572.01"/>
</g>
<!-- Node4 -->
<g id="node4" class="node">
<title>Node4</title>
<g id="a_node4"><a xlink:href="../../de/d29/txio_8h.html" target="_top" xlink:title=" ">
<polygon fill="white" stroke="black" points="141.57,-495.5 141.57,-513.5 189.8,-513.5 189.8,-495.5 141.57,-495.5"/>
<text text-anchor="middle" x="165.68" y="-501.5" font-family="Helvetica,sans-Serif" font-size="10.00">../txio.h</text>
</a>
</g>
</g>
<!-- Node3&#45;&gt;Node4 -->
<g id="edge3" class="edge">
<title>Node3&#45;&gt;Node4</title>
<path fill="none" stroke="midnightblue" d="M231.84,-550.45C219.7,-542.2 200.59,-529.22 186.02,-519.32"/>
<polygon fill="midnightblue" stroke="midnightblue" points="187.88,-516.35 177.64,-513.63 183.95,-522.14 187.88,-516.35"/>
</g>
<!-- Node24 -->
<g id="node24" class="node">
<title>Node24</title>
<g id="a_node24"><a xlink:href="../../dc/def/txstring_8h.html" target="_top" xlink:title=" ">
<polygon fill="white" stroke="black" points="394.23,-440.5 394.23,-458.5 459.14,-458.5 459.14,-440.5 394.23,-440.5"/>
<text text-anchor="middle" x="426.68" y="-446.5" font-family="Helvetica,sans-Serif" font-size="10.00">../txstring.h</text>
</a>
</g>
</g>
<!-- Node3&#45;&gt;Node24 -->
<g id="edge28" class="edge">
<title>Node3&#45;&gt;Node24</title>
<path fill="none" stroke="midnightblue" d="M255.53,-550.31C273.73,-537.85 309.82,-513.61 341.68,-495 361.16,-483.62 383.82,-471.83 400.84,-463.25"/>
<polygon fill="midnightblue" stroke="midnightblue" points="402.77,-466.19 410.14,-458.59 399.64,-459.93 402.77,-466.19"/>
</g>
<!-- Node5 -->
<g id="node5" class="node">
<title>Node5</title>
<g id="a_node5"><a xlink:href="../../dd/d74/txbuffer_8h.html" target="_top" xlink:title=" ">
<polygon fill="white" stroke="black" points="398.2,-385.5 398.2,-403.5 455.17,-403.5 455.17,-385.5 398.2,-385.5"/>
<text text-anchor="middle" x="426.68" y="-391.5" font-family="Helvetica,sans-Serif" font-size="10.00">txbuffer.h</text>
</a>
</g>
</g>
<!-- Node4&#45;&gt;Node5 -->
<g id="edge4" class="edge">
<title>Node4&#45;&gt;Node5</title>
<path fill="none" stroke="midnightblue" d="M185.3,-495.38C230.95,-476.49 344.45,-429.53 397.94,-407.4"/>
<polygon fill="midnightblue" stroke="midnightblue" points="399.29,-410.62 407.2,-403.56 396.62,-404.15 399.29,-410.62"/>
</g>
<!-- Node23 -->
<g id="node23" class="node">
<title>Node23</title>
<g id="a_node23"><a xlink:title=" ">
<polygon fill="white" stroke="#bfbfbf" points="94.01,-440.5 94.01,-458.5 143.35,-458.5 143.35,-440.5 94.01,-440.5"/>
<text text-anchor="middle" x="118.68" y="-446.5" font-family="Helvetica,sans-Serif" font-size="10.00">fstream</text>
</a>
</g>
</g>
<!-- Node4&#45;&gt;Node23 -->
<g id="edge27" class="edge">
<title>Node4&#45;&gt;Node23</title>
<path fill="none" stroke="midnightblue" d="M158.34,-495.22C151.47,-487.47 141.03,-475.7 132.59,-466.18"/>
<polygon fill="midnightblue" stroke="midnightblue" points="135.08,-463.71 125.82,-458.55 129.84,-468.35 135.08,-463.71"/>
</g>
<!-- Node6 -->
<g id="node6" class="node">
<title>Node6</title>
<g id="a_node6"><a xlink:href="../../d1/d9e/txid_8h.html" target="_top" xlink:title=" ">
<polygon fill="white" stroke="black" points="480.73,-275.5 480.73,-293.5 520.64,-293.5 520.64,-275.5 480.73,-275.5"/>
<text text-anchor="middle" x="500.68" y="-281.5" font-family="Helvetica,sans-Serif" font-size="10.00">txid.h</text>
</a>
</g>
</g>
<!-- Node5&#45;&gt;Node6 -->
<g id="edge5" class="edge">
<title>Node5&#45;&gt;Node6</title>
<path fill="none" stroke="midnightblue" d="M427.55,-385.43C429.24,-372.7 433.89,-347.59 445.68,-330 454,-317.6 466.81,-306.95 477.98,-299.18"/>
<polygon fill="midnightblue" stroke="midnightblue" points="480.04,-302.01 486.46,-293.58 476.19,-296.16 480.04,-302.01"/>
</g>
<!-- Node13 -->
<g id="node13" class="node">
<title>Node13</title>
<g id="a_node13"><a xlink:href="../../d9/d18/txscaled_8h.html" target="_top" xlink:title=" ">
<polygon fill="white" stroke="black" points="337.17,-330.5 337.17,-348.5 398.2,-348.5 398.2,-330.5 337.17,-330.5"/>
<text text-anchor="middle" x="367.68" y="-336.5" font-family="Helvetica,sans-Serif" font-size="10.00">txscaled.h</text>
</a>
</g>
</g>
<!-- Node5&#45;&gt;Node13 -->
<g id="edge12" class="edge">
<title>Node5&#45;&gt;Node13</title>
<path fill="none" stroke="midnightblue" d="M417.72,-385.45C408.89,-377.51 395.17,-365.19 384.33,-355.45"/>
<polygon fill="midnightblue" stroke="midnightblue" points="386.51,-352.7 376.73,-348.63 381.83,-357.91 386.51,-352.7"/>
</g>
<!-- Node21 -->
<g id="node21" class="node">
<title>Node21</title>
<g id="a_node21"><a xlink:title=" ">
<polygon fill="white" stroke="#bfbfbf" points="454.96,-330.5 454.96,-348.5 500.41,-348.5 500.41,-330.5 454.96,-330.5"/>
<text text-anchor="middle" x="477.68" y="-336.5" font-family="Helvetica,sans-Serif" font-size="10.00">cstring</text>
</a>
</g>
</g>
<!-- Node5&#45;&gt;Node21 -->
<g id="edge25" class="edge">
<title>Node5&#45;&gt;Node21</title>
<path fill="none" stroke="midnightblue" d="M434.65,-385.22C442.18,-377.39 453.66,-365.46 462.87,-355.89"/>
<polygon fill="midnightblue" stroke="midnightblue" points="465.53,-358.18 469.94,-348.55 460.48,-353.33 465.53,-358.18"/>
</g>
<!-- Node22 -->
<g id="node22" class="node">
<title>Node22</title>
<g id="a_node22"><a xlink:title=" ">
<polygon fill="white" stroke="#bfbfbf" points="518.07,-330.5 518.07,-348.5 561.3,-348.5 561.3,-330.5 518.07,-330.5"/>
<text text-anchor="middle" x="539.68" y="-336.5" font-family="Helvetica,sans-Serif" font-size="10.00">vector</text>
</a>
</g>
</g>
<!-- Node5&#45;&gt;Node22 -->
<g id="edge26" class="edge">
<title>Node5&#45;&gt;Node22</title>
<path fill="none" stroke="midnightblue" d="M443.85,-385.45C462.26,-376.81 491.75,-362.98 513.16,-352.94"/>
<polygon fill="midnightblue" stroke="midnightblue" points="514.79,-356.04 522.36,-348.63 511.82,-349.7 514.79,-356.04"/>
</g>
<!-- Node7 -->
<g id="node7" class="node">
<title>Node7</title>
<g id="a_node7"><a xlink:href="../../dc/de8/txvars_8h.html" target="_top" xlink:title=" ">
<polygon fill="white" stroke="black" points="475.18,-220.5 475.18,-238.5 526.19,-238.5 526.19,-220.5 475.18,-220.5"/>
<text text-anchor="middle" x="500.68" y="-226.5" font-family="Helvetica,sans-Serif" font-size="10.00">txvars.h</text>
</a>
</g>
</g>
<!-- Node6&#45;&gt;Node7 -->
<g id="edge6" class="edge">
<title>Node6&#45;&gt;Node7</title>
<path fill="none" stroke="midnightblue" d="M500.68,-275.22C500.68,-268.18 500.68,-257.81 500.68,-248.83"/>
<polygon fill="midnightblue" stroke="midnightblue" points="504.18,-248.55 500.68,-238.55 497.18,-248.55 504.18,-248.55"/>
</g>
<!-- Node12 -->
<g id="node12" class="node">
<title>Node12</title>
<g id="a_node12"><a xlink:title=" ">
<polygon fill="white" stroke="#bfbfbf" points="537.46,-165.5 537.46,-183.5 577.91,-183.5 577.91,-165.5 537.46,-165.5"/>
<text text-anchor="middle" x="557.68" y="-171.5" font-family="Helvetica,sans-Serif" font-size="10.00">string</text>
</a>
</g>
</g>
<!-- Node6&#45;&gt;Node12 -->
<g id="edge11" class="edge">
<title>Node6&#45;&gt;Node12</title>
<path fill="none" stroke="midnightblue" d="M508.58,-275.24C516.36,-266.73 528.15,-252.8 535.68,-239 543.64,-224.44 549.54,-206.47 553.22,-193.36"/>
<polygon fill="midnightblue" stroke="midnightblue" points="556.61,-194.24 555.78,-183.68 549.84,-192.45 556.61,-194.24"/>
</g>
<!-- Node8 -->
<g id="node8" class="node">
<title>Node8</title>
<g id="a_node8"><a xlink:href="../../d0/d0b/enums_8h.html" target="_top" xlink:title=" ">
<polygon fill="white" stroke="black" points="372.06,-110.5 372.06,-128.5 455.31,-128.5 455.31,-110.5 372.06,-110.5"/>
<text text-anchor="middle" x="413.68" y="-116.5" font-family="Helvetica,sans-Serif" font-size="10.00">tralics/enums.h</text>
</a>
</g>
</g>
<!-- Node7&#45;&gt;Node8 -->
<g id="edge7" class="edge">
<title>Node7&#45;&gt;Node8</title>
<path fill="none" stroke="midnightblue" d="M501.51,-220.27C502.39,-207.33 502.3,-181.93 490.68,-165 480.48,-150.14 463.57,-139.57 448.19,-132.48"/>
<polygon fill="midnightblue" stroke="midnightblue" points="449.45,-129.22 438.88,-128.51 446.7,-135.65 449.45,-129.22"/>
</g>
<!-- Node11 -->
<g id="node11" class="node">
<title>Node11</title>
<g id="a_node11"><a xlink:title=" ">
<polygon fill="white" stroke="#bfbfbf" points="443.29,-165.5 443.29,-183.5 482.08,-183.5 482.08,-165.5 443.29,-165.5"/>
<text text-anchor="middle" x="462.68" y="-171.5" font-family="Helvetica,sans-Serif" font-size="10.00">array</text>
</a>
</g>
</g>
<!-- Node7&#45;&gt;Node11 -->
<g id="edge10" class="edge">
<title>Node7&#45;&gt;Node11</title>
<path fill="none" stroke="midnightblue" d="M494.75,-220.22C489.31,-212.63 481.09,-201.18 474.34,-191.76"/>
<polygon fill="midnightblue" stroke="midnightblue" points="477.13,-189.64 468.46,-183.55 471.44,-193.72 477.13,-189.64"/>
</g>
<!-- Node9 -->
<g id="node9" class="node">
<title>Node9</title>
<g id="a_node9"><a xlink:href="../../d8/db5/consts_8h.html" target="_top" xlink:title=" ">
<polygon fill="white" stroke="black" points="385.06,-55.5 385.06,-73.5 438.31,-73.5 438.31,-55.5 385.06,-55.5"/>
<text text-anchor="middle" x="411.68" y="-61.5" font-family="Helvetica,sans-Serif" font-size="10.00">consts.h</text>
</a>
</g>
</g>
<!-- Node8&#45;&gt;Node9 -->
<g id="edge8" class="edge">
<title>Node8&#45;&gt;Node9</title>
<path fill="none" stroke="midnightblue" d="M413.37,-110.22C413.11,-103.18 412.72,-92.81 412.38,-83.83"/>
<polygon fill="midnightblue" stroke="midnightblue" points="415.86,-83.41 411.99,-73.55 408.87,-83.67 415.86,-83.41"/>
</g>
<!-- Node10 -->
<g id="node10" class="node">
<title>Node10</title>
<g id="a_node10"><a xlink:href="../../d9/d49/types_8h.html" target="_top" xlink:title=" ">
<polygon fill="white" stroke="black" points="345.56,-0.5 345.56,-18.5 393.81,-18.5 393.81,-0.5 345.56,-0.5"/>
<text text-anchor="middle" x="369.68" y="-6.5" font-family="Helvetica,sans-Serif" font-size="10.00">types.h</text>
</a>
</g>
</g>
<!-- Node9&#45;&gt;Node10 -->
<g id="edge9" class="edge">
<title>Node9&#45;&gt;Node10</title>
<path fill="none" stroke="midnightblue" d="M405.12,-55.22C399.05,-47.55 389.84,-35.94 382.34,-26.47"/>
<polygon fill="midnightblue" stroke="midnightblue" points="385.02,-24.21 376.06,-18.55 379.53,-28.56 385.02,-24.21"/>
</g>
<!-- Node14 -->
<g id="node14" class="node">
<title>Node14</title>
<g id="a_node14"><a xlink:href="../../dc/d91/txtokenlist_8h.html" target="_top" xlink:title=" ">
<polygon fill="white" stroke="black" points="382.28,-275.5 382.28,-293.5 451.09,-293.5 451.09,-275.5 382.28,-275.5"/>
<text text-anchor="middle" x="416.68" y="-281.5" font-family="Helvetica,sans-Serif" font-size="10.00">txtokenlist.h</text>
</a>
</g>
</g>
<!-- Node13&#45;&gt;Node14 -->
<g id="edge13" class="edge">
<title>Node13&#45;&gt;Node14</title>
<path fill="none" stroke="midnightblue" d="M375.34,-330.22C382.5,-322.47 393.39,-310.7 402.19,-301.18"/>
<polygon fill="midnightblue" stroke="midnightblue" points="405.02,-303.27 409.24,-293.55 399.88,-298.52 405.02,-303.27"/>
</g>
<!-- Node14&#45;&gt;Node7 -->
<g id="edge23" class="edge">
<title>Node14&#45;&gt;Node7</title>
<path fill="none" stroke="midnightblue" d="M429.44,-275.45C442.64,-267.12 463.49,-253.97 479.23,-244.04"/>
<polygon fill="midnightblue" stroke="midnightblue" points="481.22,-246.92 487.81,-238.63 477.48,-241 481.22,-246.92"/>
</g>
<!-- Node15 -->
<g id="node15" class="node">
<title>Node15</title>
<g id="a_node15"><a xlink:href="../../d5/daf/_istring_8h.html" target="_top" xlink:title=" ">
<polygon fill="white" stroke="black" points="376.45,-220.5 376.45,-238.5 456.92,-238.5 456.92,-220.5 376.45,-220.5"/>
<text text-anchor="middle" x="416.68" y="-226.5" font-family="Helvetica,sans-Serif" font-size="10.00">tralics/Istring.h</text>
</a>
</g>
</g>
<!-- Node14&#45;&gt;Node15 -->
<g id="edge14" class="edge">
<title>Node14&#45;&gt;Node15</title>
<path fill="none" stroke="midnightblue" d="M416.68,-275.22C416.68,-268.18 416.68,-257.81 416.68,-248.83"/>
<polygon fill="midnightblue" stroke="midnightblue" points="420.18,-248.55 416.68,-238.55 413.18,-248.55 420.18,-248.55"/>
</g>
<!-- Node16 -->
<g id="node16" class="node">
<title>Node16</title>
<g id="a_node16"><a xlink:href="../../dd/dcd/_token_8h.html" target="_top" xlink:title=" ">
<polygon fill="white" stroke="black" points="278.73,-220.5 278.73,-238.5 358.64,-238.5 358.64,-220.5 278.73,-220.5"/>
<text text-anchor="middle" x="318.68" y="-226.5" font-family="Helvetica,sans-Serif" font-size="10.00">tralics/Token.h</text>
</a>
</g>
</g>
<!-- Node14&#45;&gt;Node16 -->
<g id="edge17" class="edge">
<title>Node14&#45;&gt;Node16</title>
<path fill="none" stroke="midnightblue" d="M401.8,-275.45C386.12,-266.97 361.17,-253.48 342.7,-243.49"/>
<polygon fill="midnightblue" stroke="midnightblue" points="344.17,-240.3 333.71,-238.63 340.84,-246.46 344.17,-240.3"/>
</g>
<!-- Node20 -->
<g id="node20" class="node">
<title>Node20</title>
<g id="a_node20"><a xlink:title=" ">
<polygon fill="white" stroke="#bfbfbf" points="649.29,-220.5 649.29,-238.5 688.08,-238.5 688.08,-220.5 649.29,-220.5"/>
<text text-anchor="middle" x="668.68" y="-226.5" font-family="Helvetica,sans-Serif" font-size="10.00">utility</text>
</a>
</g>
</g>
<!-- Node14&#45;&gt;Node20 -->
<g id="edge24" class="edge">
<title>Node14&#45;&gt;Node20</title>
<path fill="none" stroke="midnightblue" d="M451.2,-276.24C501.07,-265.75 592.45,-246.53 639.29,-236.68"/>
<polygon fill="midnightblue" stroke="midnightblue" points="640.05,-240.1 649.12,-234.62 638.61,-233.25 640.05,-240.1"/>
</g>
<!-- Node15&#45;&gt;Node8 -->
<g id="edge15" class="edge">
<title>Node15&#45;&gt;Node8</title>
<path fill="none" stroke="midnightblue" d="M416.46,-220.38C415.98,-203.18 414.86,-162.7 414.2,-138.89"/>
<polygon fill="midnightblue" stroke="midnightblue" points="417.69,-138.61 413.91,-128.71 410.69,-138.81 417.69,-138.61"/>
</g>
<!-- Node15&#45;&gt;Node12 -->
<g id="edge16" class="edge">
<title>Node15&#45;&gt;Node12</title>
<path fill="none" stroke="midnightblue" d="M438.1,-220.45C462.01,-211.46 500.87,-196.86 527.77,-186.74"/>
<polygon fill="midnightblue" stroke="midnightblue" points="529.31,-189.9 537.44,-183.11 526.85,-183.35 529.31,-189.9"/>
</g>
<!-- Node17 -->
<g id="node17" class="node">
<title>Node17</title>
<g id="a_node17"><a xlink:href="../../d2/d68/_cmd_chr_8h.html" target="_top" xlink:title=" ">
<polygon fill="white" stroke="black" points="279.17,-165.5 279.17,-183.5 340.19,-183.5 340.19,-165.5 279.17,-165.5"/>
<text text-anchor="middle" x="309.68" y="-171.5" font-family="Helvetica,sans-Serif" font-size="10.00">CmdChr.h</text>
</a>
</g>
</g>
<!-- Node16&#45;&gt;Node17 -->
<g id="edge18" class="edge">
<title>Node16&#45;&gt;Node17</title>
<path fill="none" stroke="midnightblue" d="M317.28,-220.22C316.07,-213.1 314.28,-202.58 312.75,-193.53"/>
<polygon fill="midnightblue" stroke="midnightblue" points="316.18,-192.82 311.05,-183.55 309.28,-193.99 316.18,-192.82"/>
</g>
<!-- Node19 -->
<g id="node19" class="node">
<title>Node19</title>
<g id="a_node19"><a xlink:title=" ">
<polygon fill="white" stroke="#bfbfbf" points="358.18,-165.5 358.18,-183.5 387.18,-183.5 387.18,-165.5 358.18,-165.5"/>
<text text-anchor="middle" x="372.3" y="-171.5" font-family="Helvetica,sans-Serif" font-size="10.00">list</text>
</a>
</g>
</g>
<!-- Node16&#45;&gt;Node19 -->
<g id="edge22" class="edge">
<title>Node16&#45;&gt;Node19</title>
<path fill="none" stroke="midnightblue" d="M327.12,-220.22C335.17,-212.32 347.49,-200.22 357.29,-190.61"/>
<polygon fill="midnightblue" stroke="midnightblue" points="359.8,-193.05 364.48,-183.55 354.89,-188.06 359.8,-193.05"/>
</g>
<!-- Node17&#45;&gt;Node8 -->
<g id="edge21" class="edge">
<title>Node17&#45;&gt;Node8</title>
<path fill="none" stroke="midnightblue" d="M325.48,-165.45C342.28,-156.89 369.08,-143.23 388.74,-133.21"/>
<polygon fill="midnightblue" stroke="midnightblue" points="390.42,-136.28 397.74,-128.63 387.24,-130.05 390.42,-136.28"/>
</g>
<!-- Node18 -->
<g id="node18" class="node">
<title>Node18</title>
<g id="a_node18"><a xlink:href="../../d8/d47/codepoint_8h.html" target="_top" xlink:title=" ">
<polygon fill="white" stroke="black" points="296.83,-55.5 296.83,-73.5 364.54,-73.5 364.54,-55.5 296.83,-55.5"/>
<text text-anchor="middle" x="330.68" y="-61.5" font-family="Helvetica,sans-Serif" font-size="10.00">codepoint.h</text>
</a>
</g>
</g>
<!-- Node17&#45;&gt;Node18 -->
<g id="edge19" class="edge">
<title>Node17&#45;&gt;Node18</title>
<path fill="none" stroke="midnightblue" d="M311.26,-165.38C314.62,-148.1 322.55,-107.33 327.17,-83.56"/>
<polygon fill="midnightblue" stroke="midnightblue" points="330.61,-84.2 329.09,-73.71 323.74,-82.86 330.61,-84.2"/>
</g>
<!-- Node18&#45;&gt;Node10 -->
<g id="edge20" class="edge">
<title>Node18&#45;&gt;Node10</title>
<path fill="none" stroke="midnightblue" d="M336.78,-55.22C342.36,-47.63 350.79,-36.18 357.72,-26.76"/>
<polygon fill="midnightblue" stroke="midnightblue" points="360.65,-28.68 363.76,-18.55 355.02,-24.53 360.65,-28.68"/>
</g>
<!-- Node24&#45;&gt;Node5 -->
<g id="edge29" class="edge">
<title>Node24&#45;&gt;Node5</title>
<path fill="none" stroke="midnightblue" d="M426.68,-440.22C426.68,-433.18 426.68,-422.81 426.68,-413.83"/>
<polygon fill="midnightblue" stroke="midnightblue" points="430.18,-413.55 426.68,-403.55 423.18,-413.55 430.18,-413.55"/>
</g>
<!-- Node25&#45;&gt;Node23 -->
<g id="edge31" class="edge">
<title>Node25&#45;&gt;Node23</title>
<path fill="none" stroke="midnightblue" d="M30.32,-550.26C31.68,-537.3 35.91,-511.89 48.68,-495 59.13,-481.19 75.21,-470.53 89.32,-463.12"/>
<polygon fill="midnightblue" stroke="midnightblue" points="91.26,-466.06 98.69,-458.5 88.17,-459.78 91.26,-466.06"/>
</g>
<!-- Node26 -->
<g id="node26" class="node">
<title>Node26</title>
<g id="a_node26"><a xlink:title=" ">
<polygon fill="white" stroke="#bfbfbf" points="57.51,-495.5 57.51,-513.5 111.86,-513.5 111.86,-495.5 57.51,-495.5"/>
<text text-anchor="middle" x="84.68" y="-501.5" font-family="Helvetica,sans-Serif" font-size="10.00">iostream</text>
</a>
</g>
</g>
<!-- Node25&#45;&gt;Node26 -->
<g id="edge32" class="edge">
<title>Node25&#45;&gt;Node26</title>
<path fill="none" stroke="midnightblue" d="M38.28,-550.22C46.48,-542.32 59.03,-530.22 69.01,-520.61"/>
<polygon fill="midnightblue" stroke="midnightblue" points="71.56,-523.01 76.33,-513.55 66.7,-517.97 71.56,-523.01"/>
</g>
<!-- Node27&#45;&gt;Node4 -->
<g id="edge34" class="edge">
<title>Node27&#45;&gt;Node4</title>
<path fill="none" stroke="midnightblue" d="M116.75,-550.22C125.48,-542.24 138.89,-529.98 149.47,-520.32"/>
<polygon fill="midnightblue" stroke="midnightblue" points="151.85,-522.88 156.88,-513.55 147.13,-517.71 151.85,-522.88"/>
</g>
<!-- Node28&#45;&gt;Node20 -->
<g id="edge37" class="edge">
<title>Node28&#45;&gt;Node20</title>
<path fill="none" stroke="midnightblue" d="M637.39,-550.41C647.15,-532.84 668.68,-489.63 668.68,-450.5 668.68,-450.5 668.68,-450.5 668.68,-338.5 668.68,-307.02 668.68,-270.37 668.68,-248.88"/>
<polygon fill="midnightblue" stroke="midnightblue" points="672.18,-248.63 668.68,-238.63 665.18,-248.63 672.18,-248.63"/>
</g>
<!-- Node29 -->
<g id="node29" class="node">
<title>Node29</title>
<g id="a_node29"><a xlink:href="../../d1/d43/txxml_8h.html" target="_top" xlink:title=" ">
<polygon fill="white" stroke="black" points="592.85,-495.5 592.85,-513.5 640.52,-513.5 640.52,-495.5 592.85,-495.5"/>
<text text-anchor="middle" x="616.68" y="-501.5" font-family="Helvetica,sans-Serif" font-size="10.00">txxml.h</text>
</a>
</g>
</g>
<!-- Node28&#45;&gt;Node29 -->
<g id="edge36" class="edge">
<title>Node28&#45;&gt;Node29</title>
<path fill="none" stroke="midnightblue" d="M630.18,-550.22C628.01,-543.02 624.79,-532.35 622.04,-523.23"/>
<polygon fill="midnightblue" stroke="midnightblue" points="625.36,-522.11 619.11,-513.55 618.65,-524.13 625.36,-522.11"/>
</g>
<!-- Node30&#45;&gt;Node4 -->
<g id="edge49" class="edge">
<title>Node30&#45;&gt;Node4</title>
<path fill="none" stroke="midnightblue" d="M418.55,-612.33C356.84,-609.32 219,-599.31 184.68,-569 171.89,-557.7 167.54,-538.17 166.15,-523.75"/>
<polygon fill="midnightblue" stroke="midnightblue" points="169.63,-523.31 165.56,-513.53 162.64,-523.71 169.63,-523.31"/>
</g>
<!-- Node31 -->
<g id="node31" class="node">
<title>Node31</title>
<g id="a_node31"><a xlink:href="../../d3/d6b/txcond_8h.html" target="_top" xlink:title=" ">
<polygon fill="white" stroke="black" points="492.78,-385.5 492.78,-403.5 546.59,-403.5 546.59,-385.5 492.78,-385.5"/>
<text text-anchor="middle" x="519.68" y="-391.5" font-family="Helvetica,sans-Serif" font-size="10.00">txcond.h</text>
</a>
</g>
</g>
<!-- Node30&#45;&gt;Node31 -->
<g id="edge39" class="edge">
<title>Node30&#45;&gt;Node31</title>
<path fill="none" stroke="midnightblue" d="M457.22,-605.49C465.55,-597.17 477.92,-583.39 484.68,-569 509.49,-516.25 516.75,-446.41 518.85,-413.77"/>
<polygon fill="midnightblue" stroke="midnightblue" points="522.36,-413.7 519.41,-403.53 515.37,-413.32 522.36,-413.7"/>
</g>
<!-- Node32 -->
<g id="node32" class="node">
<title>Node32</title>
<g id="a_node32"><a xlink:href="../../d7/d4d/txfonts_8h.html" target="_top" xlink:title=" ">
<polygon fill="white" stroke="black" points="350.79,-495.5 350.79,-513.5 404.58,-513.5 404.58,-495.5 350.79,-495.5"/>
<text text-anchor="middle" x="377.68" y="-501.5" font-family="Helvetica,sans-Serif" font-size="10.00">txfonts.h</text>
</a>
</g>
</g>
<!-- Node30&#45;&gt;Node32 -->
<g id="edge41" class="edge">
<title>Node30&#45;&gt;Node32</title>
<path fill="none" stroke="midnightblue" d="M441.32,-605.31C433.7,-596.63 421.67,-582.36 412.68,-569 402.6,-554 392.81,-535.84 386.17,-522.8"/>
<polygon fill="midnightblue" stroke="midnightblue" points="389.16,-520.97 381.56,-513.58 382.9,-524.09 389.16,-520.97"/>
</g>
<!-- Node33 -->
<g id="node33" class="node">
<title>Node33</title>
<g id="a_node33"><a xlink:href="../../d7/d7e/txhash_8h.html" target="_top" xlink:title=" ">
<polygon fill="white" stroke="black" points="421.78,-550.5 421.78,-568.5 475.59,-568.5 475.59,-550.5 421.78,-550.5"/>
<text text-anchor="middle" x="448.68" y="-556.5" font-family="Helvetica,sans-Serif" font-size="10.00">txhash.h</text>
</a>
</g>
</g>
<!-- Node30&#45;&gt;Node33 -->
<g id="edge43" class="edge">
<title>Node30&#45;&gt;Node33</title>
<path fill="none" stroke="midnightblue" d="M448.68,-605.22C448.68,-598.18 448.68,-587.81 448.68,-578.83"/>
<polygon fill="midnightblue" stroke="midnightblue" points="452.18,-578.55 448.68,-568.55 445.18,-578.55 452.18,-578.55"/>
</g>
<!-- Node35 -->
<g id="node35" class="node">
<title>Node35</title>
<g id="a_node35"><a xlink:href="../../de/d7c/tximage_8h.html" target="_top" xlink:title=" ">
<polygon fill="white" stroke="black" points="697.01,-275.5 697.01,-293.5 756.36,-293.5 756.36,-275.5 697.01,-275.5"/>
<text text-anchor="middle" x="726.68" y="-281.5" font-family="Helvetica,sans-Serif" font-size="10.00">tximage.h</text>
</a>
</g>
</g>
<!-- Node30&#45;&gt;Node35 -->
<g id="edge46" class="edge">
<title>Node30&#45;&gt;Node35</title>
<path fill="none" stroke="midnightblue" d="M478.9,-613.95C523.73,-613.25 608.98,-606.56 668.68,-569 698.63,-550.16 716.68,-540.88 716.68,-505.5 716.68,-505.5 716.68,-505.5 716.68,-393.5 716.68,-361.74 721.03,-324.94 723.99,-303.54"/>
<polygon fill="midnightblue" stroke="midnightblue" points="727.46,-304 725.42,-293.61 720.53,-303 727.46,-304"/>
</g>
<!-- Node36 -->
<g id="node36" class="node">
<title>Node36</title>
<g id="a_node36"><a xlink:href="../../dc/d65/txstack_8h.html" target="_top" xlink:title=" ">
<polygon fill="white" stroke="black" points="531.96,-550.5 531.96,-568.5 587.41,-568.5 587.41,-550.5 531.96,-550.5"/>
<text text-anchor="middle" x="559.68" y="-556.5" font-family="Helvetica,sans-Serif" font-size="10.00">txstack.h</text>
</a>
</g>
</g>
<!-- Node30&#45;&gt;Node36 -->
<g id="edge50" class="edge">
<title>Node30&#45;&gt;Node36</title>
<path fill="none" stroke="midnightblue" d="M465.54,-605.45C483.64,-596.81 512.6,-582.98 533.63,-572.94"/>
<polygon fill="midnightblue" stroke="midnightblue" points="535.15,-576.09 542.67,-568.63 532.14,-569.78 535.15,-576.09"/>
</g>
<!-- Node38 -->
<g id="node38" class="node">
<title>Node38</title>
<g id="a_node38"><a xlink:href="../../d8/d3d/txstats_8h.html" target="_top" xlink:title=" ">
<polygon fill="white" stroke="black" points="312.07,-550.5 312.07,-568.5 365.3,-568.5 365.3,-550.5 312.07,-550.5"/>
<text text-anchor="middle" x="338.68" y="-556.5" font-family="Helvetica,sans-Serif" font-size="10.00">txstats.h</text>
</a>
</g>
</g>
<!-- Node30&#45;&gt;Node38 -->
<g id="edge54" class="edge">
<title>Node30&#45;&gt;Node38</title>
<path fill="none" stroke="midnightblue" d="M431.98,-605.45C414.13,-596.85 385.6,-583.1 364.78,-573.08"/>
<polygon fill="midnightblue" stroke="midnightblue" points="366.08,-569.81 355.55,-568.63 363.04,-576.12 366.08,-569.81"/>
</g>
<!-- Node31&#45;&gt;Node22 -->
<g id="edge40" class="edge">
<title>Node31&#45;&gt;Node22</title>
<path fill="none" stroke="midnightblue" d="M522.81,-385.22C525.56,-377.94 529.64,-367.11 533.11,-357.93"/>
<polygon fill="midnightblue" stroke="midnightblue" points="536.39,-359.14 536.65,-348.55 529.84,-356.67 536.39,-359.14"/>
</g>
<!-- Node32&#45;&gt;Node24 -->
<g id="edge42" class="edge">
<title>Node32&#45;&gt;Node24</title>
<path fill="none" stroke="midnightblue" d="M385.34,-495.22C392.5,-487.47 403.39,-475.7 412.19,-466.18"/>
<polygon fill="midnightblue" stroke="midnightblue" points="415.02,-468.27 419.24,-458.55 409.88,-463.52 415.02,-468.27"/>
</g>
<!-- Node34 -->
<g id="node34" class="node">
<title>Node34</title>
<g id="a_node34"><a xlink:href="../../d3/d01/txeqtb_8h.html" target="_top" xlink:title=" ">
<polygon fill="white" stroke="black" points="422.89,-495.5 422.89,-513.5 474.48,-513.5 474.48,-495.5 422.89,-495.5"/>
<text text-anchor="middle" x="448.68" y="-501.5" font-family="Helvetica,sans-Serif" font-size="10.00">txeqtb.h</text>
</a>
</g>
</g>
<!-- Node33&#45;&gt;Node34 -->
<g id="edge44" class="edge">
<title>Node33&#45;&gt;Node34</title>
<path fill="none" stroke="midnightblue" d="M448.68,-550.22C448.68,-543.18 448.68,-532.81 448.68,-523.83"/>
<polygon fill="midnightblue" stroke="midnightblue" points="452.18,-523.55 448.68,-513.55 445.18,-523.55 452.18,-523.55"/>
</g>
<!-- Node34&#45;&gt;Node24 -->
<g id="edge45" class="edge">
<title>Node34&#45;&gt;Node24</title>
<path fill="none" stroke="midnightblue" d="M445.25,-495.22C442.23,-487.94 437.73,-477.11 433.92,-467.93"/>
<polygon fill="midnightblue" stroke="midnightblue" points="437.09,-466.44 430.03,-458.55 430.63,-469.13 437.09,-466.44"/>
</g>
<!-- Node35&#45;&gt;Node12 -->
<g id="edge47" class="edge">
<title>Node35&#45;&gt;Node12</title>
<path fill="none" stroke="midnightblue" d="M725.01,-275.21C721.85,-261.7 713.74,-234.95 696.68,-220 666,-193.11 618.93,-182.44 588.22,-178.23"/>
<polygon fill="midnightblue" stroke="midnightblue" points="588.44,-174.73 578.09,-176.99 587.6,-181.68 588.44,-174.73"/>
</g>
<!-- Node35&#45;&gt;Node20 -->
<g id="edge48" class="edge">
<title>Node35&#45;&gt;Node20</title>
<path fill="none" stroke="midnightblue" d="M717.62,-275.22C708.89,-267.24 695.48,-254.98 684.9,-245.32"/>
<polygon fill="midnightblue" stroke="midnightblue" points="687.24,-242.71 677.49,-238.55 682.51,-247.88 687.24,-242.71"/>
</g>
<!-- Node36&#45;&gt;Node29 -->
<g id="edge53" class="edge">
<title>Node36&#45;&gt;Node29</title>
<path fill="none" stroke="midnightblue" d="M568.59,-550.22C577.09,-542.32 590.09,-530.22 600.44,-520.61"/>
<polygon fill="midnightblue" stroke="midnightblue" points="603.09,-522.92 608.03,-513.55 598.32,-517.8 603.09,-522.92"/>
</g>
<!-- Node37 -->
<g id="node37" class="node">
<title>Node37</title>
<g id="a_node37"><a xlink:href="../../d4/da4/txatt_8h.html" target="_top" xlink:title=" ">
<polygon fill="white" stroke="black" points="532.07,-495.5 532.07,-513.5 575.3,-513.5 575.3,-495.5 532.07,-495.5"/>
<text text-anchor="middle" x="553.68" y="-501.5" font-family="Helvetica,sans-Serif" font-size="10.00">txatt.h</text>
</a>
</g>
</g>
<!-- Node36&#45;&gt;Node37 -->
<g id="edge51" class="edge">
<title>Node36&#45;&gt;Node37</title>
<path fill="none" stroke="midnightblue" d="M558.75,-550.22C557.94,-543.1 556.75,-532.58 555.73,-523.53"/>
<polygon fill="midnightblue" stroke="midnightblue" points="559.2,-523.09 554.6,-513.55 552.24,-523.88 559.2,-523.09"/>
</g>
<!-- Node37&#45;&gt;Node24 -->
<g id="edge52" class="edge">
<title>Node37&#45;&gt;Node24</title>
<path fill="none" stroke="midnightblue" d="M534.4,-495.45C513.42,-486.7 479.65,-472.61 455.52,-462.53"/>
<polygon fill="midnightblue" stroke="midnightblue" points="456.73,-459.25 446.15,-458.63 454.04,-465.71 456.73,-459.25"/>
</g>
</g>
</svg>
