<?xml version="1.0" encoding="UTF-8" standalone="no"?>
<!DOCTYPE svg PUBLIC "-//W3C//DTD SVG 1.1//EN"
 "http://www.w3.org/Graphics/SVG/1.1/DTD/svg11.dtd">
<!-- Generated by graphviz version 2.42.3 (20191010.1750)
 -->
<!-- Title: txmathboot.cpp Pages: 1 -->
<svg width="860pt" height="742pt"
 viewBox="0.00 0.00 860.31 742.00" xmlns="http://www.w3.org/2000/svg" xmlns:xlink="http://www.w3.org/1999/xlink">
<g id="graph0" class="graph" transform="scale(1 1) rotate(0) translate(4 738)">
<title>txmathboot.cpp</title>
<!-- Node1 -->
<g id="node1" class="node">
<title>Node1</title>
<g id="a_node1"><a xlink:title=" ">
<polygon fill="#bfbfbf" stroke="black" points="408.5,-715.5 408.5,-733.5 492.87,-733.5 492.87,-715.5 408.5,-715.5"/>
<text text-anchor="middle" x="450.68" y="-721.5" font-family="Helvetica,sans-Serif" font-size="10.00">txmathboot.cpp</text>
</a>
</g>
</g>
<!-- Node2 -->
<g id="node2" class="node">
<title>Node2</title>
<g id="a_node2"><a xlink:href="../../d5/d87/globals_8h.html" target="_top" xlink:title=" ">
<polygon fill="none" stroke="black" points="687.22,-275.5 687.22,-293.5 772.15,-293.5 772.15,-275.5 687.22,-275.5"/>
<text text-anchor="middle" x="729.68" y="-281.5" font-family="Helvetica,sans-Serif" font-size="10.00">tralics/globals.h</text>
</a>
</g>
</g>
<!-- Node1&#45;&gt;Node2 -->
<g id="edge1" class="edge">
<title>Node1&#45;&gt;Node2</title>
<path fill="none" stroke="midnightblue" d="M493.06,-716.2C571.11,-701.55 729.68,-665.62 729.68,-615.5 729.68,-615.5 729.68,-615.5 729.68,-393.5 729.68,-362.02 729.68,-325.37 729.68,-303.88"/>
<polygon fill="midnightblue" stroke="midnightblue" points="733.18,-303.63 729.68,-293.63 726.18,-303.63 733.18,-303.63"/>
</g>
<!-- Node15 -->
<g id="node15" class="node">
<title>Node15</title>
<g id="a_node15"><a xlink:href="../../d7/d79/txinline_8h.html" target="_top" xlink:title=" ">
<polygon fill="none" stroke="black" points="147.95,-660.5 147.95,-678.5 203.42,-678.5 203.42,-660.5 147.95,-660.5"/>
<text text-anchor="middle" x="175.68" y="-666.5" font-family="Helvetica,sans-Serif" font-size="10.00">txinline.h</text>
</a>
</g>
</g>
<!-- Node1&#45;&gt;Node15 -->
<g id="edge15" class="edge">
<title>Node1&#45;&gt;Node15</title>
<path fill="none" stroke="midnightblue" d="M408.92,-715.45C355.78,-705.21 264.78,-687.67 213.57,-677.8"/>
<polygon fill="midnightblue" stroke="midnightblue" points="214.06,-674.33 203.58,-675.88 212.74,-681.21 214.06,-674.33"/>
</g>
<!-- Node34 -->
<g id="node34" class="node">
<title>Node34</title>
<g id="a_node34"><a xlink:href="../../df/d79/txmath_8h.html" target="_top" xlink:title=" ">
<polygon fill="none" stroke="black" points="359.51,-660.5 359.51,-678.5 413.86,-678.5 413.86,-660.5 359.51,-660.5"/>
<text text-anchor="middle" x="386.68" y="-666.5" font-family="Helvetica,sans-Serif" font-size="10.00">txmath.h</text>
</a>
</g>
</g>
<!-- Node1&#45;&gt;Node34 -->
<g id="edge45" class="edge">
<title>Node1&#45;&gt;Node34</title>
<path fill="none" stroke="midnightblue" d="M440.96,-715.45C431.28,-707.43 416.21,-694.95 404.39,-685.17"/>
<polygon fill="midnightblue" stroke="midnightblue" points="406.43,-682.31 396.5,-678.63 401.97,-687.7 406.43,-682.31"/>
</g>
<!-- Node36 -->
<g id="node36" class="node">
<title>Node36</title>
<g id="a_node36"><a xlink:href="../../d2/d1b/txparser_8h.html" target="_top" xlink:title=" ">
<polygon fill="none" stroke="black" points="458.73,-660.5 458.73,-678.5 518.64,-678.5 518.64,-660.5 458.73,-660.5"/>
<text text-anchor="middle" x="488.68" y="-666.5" font-family="Helvetica,sans-Serif" font-size="10.00">txparser.h</text>
</a>
</g>
</g>
<!-- Node1&#45;&gt;Node36 -->
<g id="edge48" class="edge">
<title>Node1&#45;&gt;Node36</title>
<path fill="none" stroke="midnightblue" d="M456.62,-715.22C462.06,-707.63 470.28,-696.18 477.03,-686.76"/>
<polygon fill="midnightblue" stroke="midnightblue" points="479.93,-688.72 482.91,-678.55 474.24,-684.64 479.93,-688.72"/>
</g>
<!-- Node3 -->
<g id="node3" class="node">
<title>Node3</title>
<g id="a_node3"><a xlink:href="../../d8/d47/codepoint_8h.html" target="_top" xlink:title=" ">
<polygon fill="none" stroke="black" points="563.83,-165.5 563.83,-183.5 631.54,-183.5 631.54,-165.5 563.83,-165.5"/>
<text text-anchor="middle" x="597.68" y="-171.5" font-family="Helvetica,sans-Serif" font-size="10.00">codepoint.h</text>
</a>
</g>
</g>
<!-- Node2&#45;&gt;Node3 -->
<g id="edge2" class="edge">
<title>Node2&#45;&gt;Node3</title>
<path fill="none" stroke="midnightblue" d="M731.67,-275.08C734.25,-261.87 737.1,-236.12 724.68,-220 705.13,-194.61 670.08,-183.65 641.74,-178.95"/>
<polygon fill="midnightblue" stroke="midnightblue" points="642.05,-175.46 631.65,-177.49 641.04,-182.39 642.05,-175.46"/>
</g>
<!-- Node9 -->
<g id="node9" class="node">
<title>Node9</title>
<g id="a_node9"><a xlink:href="../../d0/d0b/enums_8h.html" target="_top" xlink:title=" ">
<polygon fill="none" stroke="black" points="476.51,-165.5 476.51,-183.5 530.86,-183.5 530.86,-165.5 476.51,-165.5"/>
<text text-anchor="middle" x="503.68" y="-171.5" font-family="Helvetica,sans-Serif" font-size="10.00">enums.h</text>
</a>
</g>
</g>
<!-- Node2&#45;&gt;Node9 -->
<g id="edge8" class="edge">
<title>Node2&#45;&gt;Node9</title>
<path fill="none" stroke="midnightblue" d="M772.36,-275.98C815,-266.67 870.85,-248.47 845.68,-220 802.53,-171.18 619.17,-193.36 554.68,-184 550.22,-183.35 545.54,-182.63 540.9,-181.89"/>
<polygon fill="midnightblue" stroke="midnightblue" points="541.35,-178.42 530.91,-180.26 540.22,-185.32 541.35,-178.42"/>
</g>
<!-- Node11 -->
<g id="node11" class="node">
<title>Node11</title>
<g id="a_node11"><a xlink:title=" ">
<polygon fill="none" stroke="#bfbfbf" points="582.29,-220.5 582.29,-238.5 621.08,-238.5 621.08,-220.5 582.29,-220.5"/>
<text text-anchor="middle" x="601.68" y="-226.5" font-family="Helvetica,sans-Serif" font-size="10.00">array</text>
</a>
</g>
</g>
<!-- Node2&#45;&gt;Node11 -->
<g id="edge11" class="edge">
<title>Node2&#45;&gt;Node11</title>
<path fill="none" stroke="midnightblue" d="M710.24,-275.45C689.1,-266.7 655.07,-252.61 630.75,-242.53"/>
<polygon fill="midnightblue" stroke="midnightblue" points="631.89,-239.22 621.31,-238.63 629.21,-245.68 631.89,-239.22"/>
</g>
<!-- Node12 -->
<g id="node12" class="node">
<title>Node12</title>
<g id="a_node12"><a xlink:title=" ">
<polygon fill="none" stroke="#bfbfbf" points="776.46,-220.5 776.46,-238.5 836.91,-238.5 836.91,-220.5 776.46,-220.5"/>
<text text-anchor="middle" x="806.68" y="-226.5" font-family="Helvetica,sans-Serif" font-size="10.00">filesystem</text>
</a>
</g>
</g>
<!-- Node2&#45;&gt;Node12 -->
<g id="edge12" class="edge">
<title>Node2&#45;&gt;Node12</title>
<path fill="none" stroke="midnightblue" d="M741.38,-275.45C753.36,-267.2 772.23,-254.22 786.61,-244.32"/>
<polygon fill="midnightblue" stroke="midnightblue" points="788.63,-247.18 794.88,-238.63 784.66,-241.41 788.63,-247.18"/>
</g>
<!-- Node13 -->
<g id="node13" class="node">
<title>Node13</title>
<g id="a_node13"><a xlink:title=" ">
<polygon fill="none" stroke="#bfbfbf" points="307.46,-165.5 307.46,-183.5 347.91,-183.5 347.91,-165.5 307.46,-165.5"/>
<text text-anchor="middle" x="327.68" y="-171.5" font-family="Helvetica,sans-Serif" font-size="10.00">string</text>
</a>
</g>
</g>
<!-- Node2&#45;&gt;Node13 -->
<g id="edge13" class="edge">
<title>Node2&#45;&gt;Node13</title>
<path fill="none" stroke="midnightblue" d="M727.35,-275.23C722.94,-261.24 711.93,-233.17 691.68,-220 663.88,-201.92 440.19,-183.79 357.91,-177.67"/>
<polygon fill="midnightblue" stroke="midnightblue" points="358.17,-174.18 347.94,-176.94 357.65,-181.16 358.17,-174.18"/>
</g>
<!-- Node14 -->
<g id="node14" class="node">
<title>Node14</title>
<g id="a_node14"><a xlink:title=" ">
<polygon fill="none" stroke="#bfbfbf" points="639.07,-220.5 639.07,-238.5 682.3,-238.5 682.3,-220.5 639.07,-220.5"/>
<text text-anchor="middle" x="660.68" y="-226.5" font-family="Helvetica,sans-Serif" font-size="10.00">vector</text>
</a>
</g>
</g>
<!-- Node2&#45;&gt;Node14 -->
<g id="edge14" class="edge">
<title>Node2&#45;&gt;Node14</title>
<path fill="none" stroke="midnightblue" d="M719.2,-275.45C708.67,-267.36 692.2,-254.7 679.41,-244.88"/>
<polygon fill="midnightblue" stroke="midnightblue" points="681.33,-241.94 671.26,-238.63 677.06,-247.49 681.33,-241.94"/>
</g>
<!-- Node4 -->
<g id="node4" class="node">
<title>Node4</title>
<g id="a_node4"><a xlink:href="../../d9/d49/types_8h.html" target="_top" xlink:title=" ">
<polygon fill="none" stroke="black" points="506.56,-55.5 506.56,-73.5 554.81,-73.5 554.81,-55.5 506.56,-55.5"/>
<text text-anchor="middle" x="530.68" y="-61.5" font-family="Helvetica,sans-Serif" font-size="10.00">types.h</text>
</a>
</g>
</g>
<!-- Node3&#45;&gt;Node4 -->
<g id="edge3" class="edge">
<title>Node3&#45;&gt;Node4</title>
<path fill="none" stroke="midnightblue" d="M592.65,-165.38C581.74,-147.79 555.71,-105.85 541.1,-82.29"/>
<polygon fill="midnightblue" stroke="midnightblue" points="544.02,-80.36 535.78,-73.71 538.08,-84.05 544.02,-80.36"/>
</g>
<!-- Node8 -->
<g id="node8" class="node">
<title>Node8</title>
<g id="a_node8"><a xlink:title=" ">
<polygon fill="none" stroke="#bfbfbf" points="587.17,-110.5 587.17,-128.5 638.2,-128.5 638.2,-110.5 587.17,-110.5"/>
<text text-anchor="middle" x="612.68" y="-116.5" font-family="Helvetica,sans-Serif" font-size="10.00">optional</text>
</a>
</g>
</g>
<!-- Node3&#45;&gt;Node8 -->
<g id="edge7" class="edge">
<title>Node3&#45;&gt;Node8</title>
<path fill="none" stroke="midnightblue" d="M600.03,-165.22C602.07,-158.02 605.09,-147.35 607.67,-138.23"/>
<polygon fill="midnightblue" stroke="midnightblue" points="611.05,-139.12 610.41,-128.55 604.32,-137.22 611.05,-139.12"/>
</g>
<!-- Node5 -->
<g id="node5" class="node">
<title>Node5</title>
<g id="a_node5"><a xlink:title=" ">
<polygon fill="none" stroke="#bfbfbf" points="440.57,-0.5 440.57,-18.5 488.8,-18.5 488.8,-0.5 440.57,-0.5"/>
<text text-anchor="middle" x="464.68" y="-6.5" font-family="Helvetica,sans-Serif" font-size="10.00">cassert</text>
</a>
</g>
</g>
<!-- Node4&#45;&gt;Node5 -->
<g id="edge4" class="edge">
<title>Node4&#45;&gt;Node5</title>
<path fill="none" stroke="midnightblue" d="M520.66,-55.45C510.68,-47.43 495.13,-34.95 482.95,-25.17"/>
<polygon fill="midnightblue" stroke="midnightblue" points="484.79,-22.16 474.8,-18.63 480.41,-27.62 484.79,-22.16"/>
</g>
<!-- Node6 -->
<g id="node6" class="node">
<title>Node6</title>
<g id="a_node6"><a xlink:title=" ">
<polygon fill="none" stroke="#bfbfbf" points="506.56,-0.5 506.56,-18.5 554.81,-18.5 554.81,-0.5 506.56,-0.5"/>
<text text-anchor="middle" x="530.68" y="-6.5" font-family="Helvetica,sans-Serif" font-size="10.00">cstddef</text>
</a>
</g>
</g>
<!-- Node4&#45;&gt;Node6 -->
<g id="edge5" class="edge">
<title>Node4&#45;&gt;Node6</title>
<path fill="none" stroke="midnightblue" d="M530.68,-55.22C530.68,-48.18 530.68,-37.81 530.68,-28.83"/>
<polygon fill="midnightblue" stroke="midnightblue" points="534.18,-28.55 530.68,-18.55 527.18,-28.55 534.18,-28.55"/>
</g>
<!-- Node7 -->
<g id="node7" class="node">
<title>Node7</title>
<g id="a_node7"><a xlink:title=" ">
<polygon fill="none" stroke="#bfbfbf" points="572.62,-0.5 572.62,-18.5 634.75,-18.5 634.75,-0.5 572.62,-0.5"/>
<text text-anchor="middle" x="603.68" y="-6.5" font-family="Helvetica,sans-Serif" font-size="10.00">type_traits</text>
</a>
</g>
</g>
<!-- Node4&#45;&gt;Node7 -->
<g id="edge6" class="edge">
<title>Node4&#45;&gt;Node7</title>
<path fill="none" stroke="midnightblue" d="M541.77,-55.45C553.03,-47.28 570.68,-34.46 584.26,-24.6"/>
<polygon fill="midnightblue" stroke="midnightblue" points="586.46,-27.33 592.49,-18.63 582.34,-21.67 586.46,-27.33"/>
</g>
<!-- Node10 -->
<g id="node10" class="node">
<title>Node10</title>
<g id="a_node10"><a xlink:href="../../d8/db5/consts_8h.html" target="_top" xlink:title=" ">
<polygon fill="none" stroke="black" points="477.06,-110.5 477.06,-128.5 530.31,-128.5 530.31,-110.5 477.06,-110.5"/>
<text text-anchor="middle" x="503.68" y="-116.5" font-family="Helvetica,sans-Serif" font-size="10.00">consts.h</text>
</a>
</g>
</g>
<!-- Node9&#45;&gt;Node10 -->
<g id="edge9" class="edge">
<title>Node9&#45;&gt;Node10</title>
<path fill="none" stroke="midnightblue" d="M503.68,-165.22C503.68,-158.18 503.68,-147.81 503.68,-138.83"/>
<polygon fill="midnightblue" stroke="midnightblue" points="507.18,-138.55 503.68,-128.55 500.18,-138.55 507.18,-138.55"/>
</g>
<!-- Node10&#45;&gt;Node4 -->
<g id="edge10" class="edge">
<title>Node10&#45;&gt;Node4</title>
<path fill="none" stroke="midnightblue" d="M507.9,-110.22C511.65,-102.86 517.25,-91.88 521.95,-82.64"/>
<polygon fill="midnightblue" stroke="midnightblue" points="525.16,-84.05 526.58,-73.55 518.93,-80.87 525.16,-84.05"/>
</g>
<!-- Node16 -->
<g id="node16" class="node">
<title>Node16</title>
<g id="a_node16"><a xlink:href="../../d4/de9/_main_class_8h.html" target="_top" xlink:title=" ">
<polygon fill="none" stroke="black" points="193.73,-605.5 193.73,-623.5 293.64,-623.5 293.64,-605.5 193.73,-605.5"/>
<text text-anchor="middle" x="243.68" y="-611.5" font-family="Helvetica,sans-Serif" font-size="10.00">tralics/MainClass.h</text>
</a>
</g>
</g>
<!-- Node15&#45;&gt;Node16 -->
<g id="edge16" class="edge">
<title>Node15&#45;&gt;Node16</title>
<path fill="none" stroke="midnightblue" d="M186.01,-660.45C196.4,-652.36 212.63,-639.7 225.23,-629.88"/>
<polygon fill="midnightblue" stroke="midnightblue" points="227.52,-632.53 233.26,-623.63 223.22,-627.01 227.52,-632.53"/>
</g>
<!-- Node31 -->
<g id="node31" class="node">
<title>Node31</title>
<g id="a_node31"><a xlink:href="../../d2/d06/txlogger_8h.html" target="_top" xlink:title=" ">
<polygon fill="none" stroke="black" points="0,-605.5 0,-623.5 59.37,-623.5 59.37,-605.5 0,-605.5"/>
<text text-anchor="middle" x="29.68" y="-611.5" font-family="Helvetica,sans-Serif" font-size="10.00">txlogger.h</text>
</a>
</g>
</g>
<!-- Node15&#45;&gt;Node31 -->
<g id="edge40" class="edge">
<title>Node15&#45;&gt;Node31</title>
<path fill="none" stroke="midnightblue" d="M153.51,-660.45C129.07,-651.58 89.54,-637.23 61.73,-627.13"/>
<polygon fill="midnightblue" stroke="midnightblue" points="62.66,-623.75 52.07,-623.63 60.27,-630.33 62.66,-623.75"/>
</g>
<!-- Node33 -->
<g id="node33" class="node">
<title>Node33</title>
<g id="a_node33"><a xlink:href="../../d5/d08/txparam_8h.html" target="_top" xlink:title=" ">
<polygon fill="none" stroke="black" points="77.45,-605.5 77.45,-623.5 137.92,-623.5 137.92,-605.5 77.45,-605.5"/>
<text text-anchor="middle" x="107.68" y="-611.5" font-family="Helvetica,sans-Serif" font-size="10.00">txparam.h</text>
</a>
</g>
</g>
<!-- Node15&#45;&gt;Node33 -->
<g id="edge43" class="edge">
<title>Node15&#45;&gt;Node33</title>
<path fill="none" stroke="midnightblue" d="M165.36,-660.45C154.97,-652.36 138.74,-639.7 126.14,-629.88"/>
<polygon fill="midnightblue" stroke="midnightblue" points="128.15,-627.01 118.11,-623.63 123.85,-632.53 128.15,-627.01"/>
</g>
<!-- Node17 -->
<g id="node17" class="node">
<title>Node17</title>
<g id="a_node17"><a xlink:href="../../de/d29/txio_8h.html" target="_top" xlink:title=" ">
<polygon fill="none" stroke="black" points="141.57,-550.5 141.57,-568.5 189.8,-568.5 189.8,-550.5 141.57,-550.5"/>
<text text-anchor="middle" x="165.68" y="-556.5" font-family="Helvetica,sans-Serif" font-size="10.00">../txio.h</text>
</a>
</g>
</g>
<!-- Node16&#45;&gt;Node17 -->
<g id="edge17" class="edge">
<title>Node16&#45;&gt;Node17</title>
<path fill="none" stroke="midnightblue" d="M231.84,-605.45C219.7,-597.2 200.59,-584.22 186.02,-574.32"/>
<polygon fill="midnightblue" stroke="midnightblue" points="187.88,-571.35 177.64,-568.63 183.95,-577.14 187.88,-571.35"/>
</g>
<!-- Node30 -->
<g id="node30" class="node">
<title>Node30</title>
<g id="a_node30"><a xlink:href="../../dc/def/txstring_8h.html" target="_top" xlink:title=" ">
<polygon fill="none" stroke="black" points="401.23,-495.5 401.23,-513.5 466.14,-513.5 466.14,-495.5 401.23,-495.5"/>
<text text-anchor="middle" x="433.68" y="-501.5" font-family="Helvetica,sans-Serif" font-size="10.00">../txstring.h</text>
</a>
</g>
</g>
<!-- Node16&#45;&gt;Node30 -->
<g id="edge38" class="edge">
<title>Node16&#45;&gt;Node30</title>
<path fill="none" stroke="midnightblue" d="M250.67,-605.41C262.47,-592.19 287.6,-565.85 313.68,-550 338.19,-535.11 368.49,-523.92 392.51,-516.49"/>
<polygon fill="midnightblue" stroke="midnightblue" points="393.81,-519.76 402.38,-513.53 391.8,-513.05 393.81,-519.76"/>
</g>
<!-- Node18 -->
<g id="node18" class="node">
<title>Node18</title>
<g id="a_node18"><a xlink:href="../../d7/d1b/_buffer_8h.html" target="_top" xlink:title=" ">
<polygon fill="none" stroke="black" points="396.09,-440.5 396.09,-458.5 475.28,-458.5 475.28,-440.5 396.09,-440.5"/>
<text text-anchor="middle" x="435.68" y="-446.5" font-family="Helvetica,sans-Serif" font-size="10.00">tralics/Buffer.h</text>
</a>
</g>
</g>
<!-- Node17&#45;&gt;Node18 -->
<g id="edge18" class="edge">
<title>Node17&#45;&gt;Node18</title>
<path fill="none" stroke="midnightblue" d="M185.98,-550.38C233.2,-531.49 350.62,-484.53 405.95,-462.4"/>
<polygon fill="midnightblue" stroke="midnightblue" points="407.54,-465.53 415.52,-458.56 404.94,-459.03 407.54,-465.53"/>
</g>
<!-- Node29 -->
<g id="node29" class="node">
<title>Node29</title>
<g id="a_node29"><a xlink:title=" ">
<polygon fill="none" stroke="#bfbfbf" points="73.01,-495.5 73.01,-513.5 122.35,-513.5 122.35,-495.5 73.01,-495.5"/>
<text text-anchor="middle" x="97.68" y="-501.5" font-family="Helvetica,sans-Serif" font-size="10.00">fstream</text>
</a>
</g>
</g>
<!-- Node17&#45;&gt;Node29 -->
<g id="edge37" class="edge">
<title>Node17&#45;&gt;Node29</title>
<path fill="none" stroke="midnightblue" d="M155.36,-550.45C144.97,-542.36 128.74,-529.7 116.14,-519.88"/>
<polygon fill="midnightblue" stroke="midnightblue" points="118.15,-517.01 108.11,-513.63 113.85,-522.53 118.15,-517.01"/>
</g>
<!-- Node18&#45;&gt;Node14 -->
<g id="edge36" class="edge">
<title>Node18&#45;&gt;Node14</title>
<path fill="none" stroke="midnightblue" d="M452.56,-440.45C491.62,-420.95 588.87,-367.34 640.68,-294 650.27,-280.43 655.4,-262.08 658.05,-248.59"/>
<polygon fill="midnightblue" stroke="midnightblue" points="661.52,-249.07 659.74,-238.62 654.62,-247.9 661.52,-249.07"/>
</g>
<!-- Node19 -->
<g id="node19" class="node">
<title>Node19</title>
<g id="a_node19"><a xlink:href="../../d1/d9e/txid_8h.html" target="_top" xlink:title=" ">
<polygon fill="none" stroke="black" points="361.57,-330.5 361.57,-348.5 409.8,-348.5 409.8,-330.5 361.57,-330.5"/>
<text text-anchor="middle" x="385.68" y="-336.5" font-family="Helvetica,sans-Serif" font-size="10.00">../txid.h</text>
</a>
</g>
</g>
<!-- Node18&#45;&gt;Node19 -->
<g id="edge19" class="edge">
<title>Node18&#45;&gt;Node19</title>
<path fill="none" stroke="midnightblue" d="M428.9,-440.46C421.97,-431.91 411.31,-417.74 404.68,-404 397.64,-389.41 392.6,-371.67 389.49,-358.65"/>
<polygon fill="midnightblue" stroke="midnightblue" points="392.85,-357.62 387.25,-348.62 386.01,-359.14 392.85,-357.62"/>
</g>
<!-- Node22 -->
<g id="node22" class="node">
<title>Node22</title>
<g id="a_node22"><a xlink:href="../../d9/d18/txscaled_8h.html" target="_top" xlink:title=" ">
<polygon fill="none" stroke="black" points="591,-385.5 591,-403.5 660.36,-403.5 660.36,-385.5 591,-385.5"/>
<text text-anchor="middle" x="625.68" y="-391.5" font-family="Helvetica,sans-Serif" font-size="10.00">../txscaled.h</text>
</a>
</g>
</g>
<!-- Node18&#45;&gt;Node22 -->
<g id="edge26" class="edge">
<title>Node18&#45;&gt;Node22</title>
<path fill="none" stroke="midnightblue" d="M464.54,-440.45C497.28,-431.32 550.82,-416.38 587.12,-406.26"/>
<polygon fill="midnightblue" stroke="midnightblue" points="588.18,-409.6 596.87,-403.54 586.3,-402.85 588.18,-409.6"/>
</g>
<!-- Node28 -->
<g id="node28" class="node">
<title>Node28</title>
<g id="a_node28"><a xlink:title=" ">
<polygon fill="none" stroke="#bfbfbf" points="413.96,-385.5 413.96,-403.5 459.41,-403.5 459.41,-385.5 413.96,-385.5"/>
<text text-anchor="middle" x="436.68" y="-391.5" font-family="Helvetica,sans-Serif" font-size="10.00">cstring</text>
</a>
</g>
</g>
<!-- Node18&#45;&gt;Node28 -->
<g id="edge35" class="edge">
<title>Node18&#45;&gt;Node28</title>
<path fill="none" stroke="midnightblue" d="M435.84,-440.22C435.97,-433.18 436.17,-422.81 436.34,-413.83"/>
<polygon fill="midnightblue" stroke="midnightblue" points="439.84,-413.61 436.53,-403.55 432.84,-413.48 439.84,-413.61"/>
</g>
<!-- Node20 -->
<g id="node20" class="node">
<title>Node20</title>
<g id="a_node20"><a xlink:href="../../d5/daf/_istring_8h.html" target="_top" xlink:title=" ">
<polygon fill="none" stroke="black" points="345.45,-275.5 345.45,-293.5 425.92,-293.5 425.92,-275.5 345.45,-275.5"/>
<text text-anchor="middle" x="385.68" y="-281.5" font-family="Helvetica,sans-Serif" font-size="10.00">tralics/Istring.h</text>
</a>
</g>
</g>
<!-- Node19&#45;&gt;Node20 -->
<g id="edge20" class="edge">
<title>Node19&#45;&gt;Node20</title>
<path fill="none" stroke="midnightblue" d="M385.68,-330.22C385.68,-323.18 385.68,-312.81 385.68,-303.83"/>
<polygon fill="midnightblue" stroke="midnightblue" points="389.18,-303.55 385.68,-293.55 382.18,-303.55 389.18,-303.55"/>
</g>
<!-- Node20&#45;&gt;Node9 -->
<g id="edge21" class="edge">
<title>Node20&#45;&gt;Node9</title>
<path fill="none" stroke="midnightblue" d="M386.6,-275.47C388.5,-262.33 393.98,-236.1 408.68,-220 424.13,-203.09 447.32,-192.05 466.93,-185.2"/>
<polygon fill="midnightblue" stroke="midnightblue" points="468.08,-188.51 476.5,-182.08 465.91,-181.85 468.08,-188.51"/>
</g>
<!-- Node20&#45;&gt;Node11 -->
<g id="edge24" class="edge">
<title>Node20&#45;&gt;Node11</title>
<path fill="none" stroke="midnightblue" d="M422.6,-275.48C458.55,-267.5 514.95,-254.58 572.21,-239.28"/>
<polygon fill="midnightblue" stroke="midnightblue" points="573.4,-242.58 582.15,-236.6 571.58,-235.82 573.4,-242.58"/>
</g>
<!-- Node20&#45;&gt;Node13 -->
<g id="edge25" class="edge">
<title>Node20&#45;&gt;Node13</title>
<path fill="none" stroke="midnightblue" d="M381.33,-275.38C371.92,-257.87 349.55,-216.22 336.87,-192.6"/>
<polygon fill="midnightblue" stroke="midnightblue" points="339.91,-190.87 332.09,-183.71 333.74,-194.18 339.91,-190.87"/>
</g>
<!-- Node21 -->
<g id="node21" class="node">
<title>Node21</title>
<g id="a_node21"><a xlink:href="../../d8/d3c/util_8h.html" target="_top" xlink:title=" ">
<polygon fill="none" stroke="black" points="285.12,-220.5 285.12,-238.5 322.25,-238.5 322.25,-220.5 285.12,-220.5"/>
<text text-anchor="middle" x="303.68" y="-226.5" font-family="Helvetica,sans-Serif" font-size="10.00">util.h</text>
</a>
</g>
</g>
<!-- Node20&#45;&gt;Node21 -->
<g id="edge22" class="edge">
<title>Node20&#45;&gt;Node21</title>
<path fill="none" stroke="midnightblue" d="M373.23,-275.45C360.47,-267.2 340.38,-254.22 325.06,-244.32"/>
<polygon fill="midnightblue" stroke="midnightblue" points="326.55,-241.11 316.26,-238.63 322.75,-246.99 326.55,-241.11"/>
</g>
<!-- Node21&#45;&gt;Node13 -->
<g id="edge23" class="edge">
<title>Node21&#45;&gt;Node13</title>
<path fill="none" stroke="midnightblue" d="M307.43,-220.22C310.73,-212.94 315.63,-202.11 319.79,-192.93"/>
<polygon fill="midnightblue" stroke="midnightblue" points="323.1,-194.1 324.04,-183.55 316.73,-191.22 323.1,-194.1"/>
</g>
<!-- Node23 -->
<g id="node23" class="node">
<title>Node23</title>
<g id="a_node23"><a xlink:href="../../dc/d91/txtokenlist_8h.html" target="_top" xlink:title=" ">
<polygon fill="none" stroke="black" points="439.28,-330.5 439.28,-348.5 508.09,-348.5 508.09,-330.5 439.28,-330.5"/>
<text text-anchor="middle" x="473.68" y="-336.5" font-family="Helvetica,sans-Serif" font-size="10.00">txtokenlist.h</text>
</a>
</g>
</g>
<!-- Node22&#45;&gt;Node23 -->
<g id="edge27" class="edge">
<title>Node22&#45;&gt;Node23</title>
<path fill="none" stroke="midnightblue" d="M602.6,-385.45C577.04,-376.54 535.64,-362.1 506.67,-352"/>
<polygon fill="midnightblue" stroke="midnightblue" points="507.58,-348.61 496.99,-348.63 505.28,-355.22 507.58,-348.61"/>
</g>
<!-- Node23&#45;&gt;Node20 -->
<g id="edge28" class="edge">
<title>Node23&#45;&gt;Node20</title>
<path fill="none" stroke="midnightblue" d="M460.32,-330.45C446.49,-322.12 424.65,-308.97 408.17,-299.04"/>
<polygon fill="midnightblue" stroke="midnightblue" points="409.55,-295.79 399.18,-293.63 405.94,-301.78 409.55,-295.79"/>
</g>
<!-- Node24 -->
<g id="node24" class="node">
<title>Node24</title>
<g id="a_node24"><a xlink:href="../../dd/dcd/_token_8h.html" target="_top" xlink:title=" ">
<polygon fill="none" stroke="black" points="443.73,-275.5 443.73,-293.5 523.64,-293.5 523.64,-275.5 443.73,-275.5"/>
<text text-anchor="middle" x="483.68" y="-281.5" font-family="Helvetica,sans-Serif" font-size="10.00">tralics/Token.h</text>
</a>
</g>
</g>
<!-- Node23&#45;&gt;Node24 -->
<g id="edge29" class="edge">
<title>Node23&#45;&gt;Node24</title>
<path fill="none" stroke="midnightblue" d="M475.25,-330.22C476.59,-323.1 478.58,-312.58 480.28,-303.53"/>
<polygon fill="midnightblue" stroke="midnightblue" points="483.75,-304.03 482.17,-293.55 476.87,-302.73 483.75,-304.03"/>
</g>
<!-- Node27 -->
<g id="node27" class="node">
<title>Node27</title>
<g id="a_node27"><a xlink:title=" ">
<polygon fill="none" stroke="#bfbfbf" points="286.29,-275.5 286.29,-293.5 325.08,-293.5 325.08,-275.5 286.29,-275.5"/>
<text text-anchor="middle" x="305.68" y="-281.5" font-family="Helvetica,sans-Serif" font-size="10.00">utility</text>
</a>
</g>
</g>
<!-- Node23&#45;&gt;Node27 -->
<g id="edge34" class="edge">
<title>Node23&#45;&gt;Node27</title>
<path fill="none" stroke="midnightblue" d="M448.17,-330.45C417.69,-320.83 366.81,-304.78 334.82,-294.69"/>
<polygon fill="midnightblue" stroke="midnightblue" points="335.73,-291.31 325.14,-291.64 333.62,-297.98 335.73,-291.31"/>
</g>
<!-- Node25 -->
<g id="node25" class="node">
<title>Node25</title>
<g id="a_node25"><a xlink:href="../../d2/d68/_cmd_chr_8h.html" target="_top" xlink:title=" ">
<polygon fill="none" stroke="black" points="503.17,-220.5 503.17,-238.5 564.19,-238.5 564.19,-220.5 503.17,-220.5"/>
<text text-anchor="middle" x="533.68" y="-226.5" font-family="Helvetica,sans-Serif" font-size="10.00">CmdChr.h</text>
</a>
</g>
</g>
<!-- Node24&#45;&gt;Node25 -->
<g id="edge30" class="edge">
<title>Node24&#45;&gt;Node25</title>
<path fill="none" stroke="midnightblue" d="M491.5,-275.22C498.88,-267.39 510.13,-255.46 519.16,-245.89"/>
<polygon fill="midnightblue" stroke="midnightblue" points="521.77,-248.23 526.09,-238.55 516.68,-243.42 521.77,-248.23"/>
</g>
<!-- Node26 -->
<g id="node26" class="node">
<title>Node26</title>
<g id="a_node26"><a xlink:title=" ">
<polygon fill="none" stroke="#bfbfbf" points="417.18,-220.5 417.18,-238.5 446.18,-238.5 446.18,-220.5 417.18,-220.5"/>
<text text-anchor="middle" x="431.3" y="-226.5" font-family="Helvetica,sans-Serif" font-size="10.00">list</text>
</a>
</g>
</g>
<!-- Node24&#45;&gt;Node26 -->
<g id="edge33" class="edge">
<title>Node24&#45;&gt;Node26</title>
<path fill="none" stroke="midnightblue" d="M475.56,-275.22C467.88,-267.39 456.18,-255.46 446.79,-245.89"/>
<polygon fill="midnightblue" stroke="midnightblue" points="449.08,-243.24 439.58,-238.55 444.09,-248.14 449.08,-243.24"/>
</g>
<!-- Node25&#45;&gt;Node3 -->
<g id="edge31" class="edge">
<title>Node25&#45;&gt;Node3</title>
<path fill="none" stroke="midnightblue" d="M543.4,-220.45C553.08,-212.43 568.16,-199.95 579.97,-190.17"/>
<polygon fill="midnightblue" stroke="midnightblue" points="582.4,-192.7 587.87,-183.63 577.94,-187.31 582.4,-192.7"/>
</g>
<!-- Node25&#45;&gt;Node9 -->
<g id="edge32" class="edge">
<title>Node25&#45;&gt;Node9</title>
<path fill="none" stroke="midnightblue" d="M529,-220.22C524.79,-212.79 518.48,-201.65 513.22,-192.34"/>
<polygon fill="midnightblue" stroke="midnightblue" points="516.21,-190.53 508.24,-183.55 510.12,-193.98 516.21,-190.53"/>
</g>
<!-- Node30&#45;&gt;Node18 -->
<g id="edge39" class="edge">
<title>Node30&#45;&gt;Node18</title>
<path fill="none" stroke="midnightblue" d="M434,-495.22C434.26,-488.18 434.65,-477.81 434.99,-468.83"/>
<polygon fill="midnightblue" stroke="midnightblue" points="438.5,-468.67 435.38,-458.55 431.51,-468.41 438.5,-468.67"/>
</g>
<!-- Node31&#45;&gt;Node29 -->
<g id="edge41" class="edge">
<title>Node31&#45;&gt;Node29</title>
<path fill="none" stroke="midnightblue" d="M30.73,-605.09C32.63,-592.34 37.52,-567.72 48.68,-550 56.07,-538.27 67.38,-527.71 77.27,-519.83"/>
<polygon fill="midnightblue" stroke="midnightblue" points="79.61,-522.45 85.47,-513.62 75.38,-516.87 79.61,-522.45"/>
</g>
<!-- Node32 -->
<g id="node32" class="node">
<title>Node32</title>
<g id="a_node32"><a xlink:title=" ">
<polygon fill="none" stroke="#bfbfbf" points="57.51,-550.5 57.51,-568.5 111.86,-568.5 111.86,-550.5 57.51,-550.5"/>
<text text-anchor="middle" x="84.68" y="-556.5" font-family="Helvetica,sans-Serif" font-size="10.00">iostream</text>
</a>
</g>
</g>
<!-- Node31&#45;&gt;Node32 -->
<g id="edge42" class="edge">
<title>Node31&#45;&gt;Node32</title>
<path fill="none" stroke="midnightblue" d="M38.28,-605.22C46.48,-597.32 59.03,-585.22 69.01,-575.61"/>
<polygon fill="midnightblue" stroke="midnightblue" points="71.56,-578.01 76.33,-568.55 66.7,-572.97 71.56,-578.01"/>
</g>
<!-- Node33&#45;&gt;Node17 -->
<g id="edge44" class="edge">
<title>Node33&#45;&gt;Node17</title>
<path fill="none" stroke="midnightblue" d="M116.75,-605.22C125.48,-597.24 138.89,-584.98 149.47,-575.32"/>
<polygon fill="midnightblue" stroke="midnightblue" points="151.85,-577.88 156.88,-568.55 147.13,-572.71 151.85,-577.88"/>
</g>
<!-- Node35 -->
<g id="node35" class="node">
<title>Node35</title>
<g id="a_node35"><a xlink:href="../../d9/d1c/_xml_8h.html" target="_top" xlink:title=" ">
<polygon fill="none" stroke="black" points="322.46,-550.5 322.46,-568.5 392.91,-568.5 392.91,-550.5 322.46,-550.5"/>
<text text-anchor="middle" x="357.68" y="-556.5" font-family="Helvetica,sans-Serif" font-size="10.00">tralics/Xml.h</text>
</a>
</g>
</g>
<!-- Node34&#45;&gt;Node35 -->
<g id="edge46" class="edge">
<title>Node34&#45;&gt;Node35</title>
<path fill="none" stroke="midnightblue" d="M384.5,-660.38C379.87,-643.1 368.92,-602.33 362.53,-578.56"/>
<polygon fill="midnightblue" stroke="midnightblue" points="365.86,-577.46 359.89,-568.71 359.1,-579.28 365.86,-577.46"/>
</g>
<!-- Node35&#45;&gt;Node30 -->
<g id="edge47" class="edge">
<title>Node35&#45;&gt;Node30</title>
<path fill="none" stroke="midnightblue" d="M369.23,-550.45C380.95,-542.28 399.33,-529.46 413.47,-519.6"/>
<polygon fill="midnightblue" stroke="midnightblue" points="415.83,-522.22 422.03,-513.63 411.83,-516.47 415.83,-522.22"/>
</g>
<!-- Node36&#45;&gt;Node17 -->
<g id="edge62" class="edge">
<title>Node36&#45;&gt;Node17</title>
<path fill="none" stroke="midnightblue" d="M458.47,-664.51C382.62,-654.44 189.87,-628.48 184.68,-624 171.77,-612.84 167.44,-593.29 166.09,-578.82"/>
<polygon fill="midnightblue" stroke="midnightblue" points="169.57,-578.36 165.53,-568.57 162.58,-578.74 169.57,-578.36"/>
</g>
<!-- Node37 -->
<g id="node37" class="node">
<title>Node37</title>
<g id="a_node37"><a xlink:href="../../d8/dd6/_e_q_t_b_8h.html" target="_top" xlink:title=" ">
<polygon fill="none" stroke="black" points="583.46,-440.5 583.46,-458.5 663.91,-458.5 663.91,-440.5 583.46,-440.5"/>
<text text-anchor="middle" x="623.68" y="-446.5" font-family="Helvetica,sans-Serif" font-size="10.00">tralics/EQTB.h</text>
</a>
</g>
</g>
<!-- Node36&#45;&gt;Node37 -->
<g id="edge49" class="edge">
<title>Node36&#45;&gt;Node37</title>
<path fill="none" stroke="midnightblue" d="M503.88,-660.46C529.56,-645.99 581.04,-612.92 604.68,-569 622,-536.84 624.51,-493.15 624.37,-468.81"/>
<polygon fill="midnightblue" stroke="midnightblue" points="627.87,-468.47 624.15,-458.55 620.87,-468.62 627.87,-468.47"/>
</g>
<!-- Node38 -->
<g id="node38" class="node">
<title>Node38</title>
<g id="a_node38"><a xlink:href="../../d3/d6b/txcond_8h.html" target="_top" xlink:title=" ">
<polygon fill="none" stroke="black" points="577.78,-275.5 577.78,-293.5 631.59,-293.5 631.59,-275.5 577.78,-275.5"/>
<text text-anchor="middle" x="604.68" y="-281.5" font-family="Helvetica,sans-Serif" font-size="10.00">txcond.h</text>
</a>
</g>
</g>
<!-- Node36&#45;&gt;Node38 -->
<g id="edge51" class="edge">
<title>Node36&#45;&gt;Node38</title>
<path fill="none" stroke="midnightblue" d="M518.95,-664.86C565.29,-658.69 650.74,-644.8 672.68,-624 694.06,-603.73 691.68,-589.96 691.68,-560.5 691.68,-560.5 691.68,-560.5 691.68,-503.5 691.68,-449.93 689.61,-434.72 669.68,-385 656.83,-352.92 632.98,-320.23 618.02,-301.46"/>
<polygon fill="midnightblue" stroke="midnightblue" points="620.68,-299.19 611.66,-293.64 615.25,-303.61 620.68,-299.19"/>
</g>
<!-- Node39 -->
<g id="node39" class="node">
<title>Node39</title>
<g id="a_node39"><a xlink:href="../../d7/d4d/txfonts_8h.html" target="_top" xlink:title=" ">
<polygon fill="none" stroke="black" points="541.79,-550.5 541.79,-568.5 595.58,-568.5 595.58,-550.5 541.79,-550.5"/>
<text text-anchor="middle" x="568.68" y="-556.5" font-family="Helvetica,sans-Serif" font-size="10.00">txfonts.h</text>
</a>
</g>
</g>
<!-- Node36&#45;&gt;Node39 -->
<g id="edge54" class="edge">
<title>Node36&#45;&gt;Node39</title>
<path fill="none" stroke="midnightblue" d="M495.5,-660.44C502.89,-651.64 514.91,-637.04 524.68,-624 536.33,-608.45 548.89,-590.17 557.59,-577.23"/>
<polygon fill="midnightblue" stroke="midnightblue" points="560.54,-579.12 563.18,-568.86 554.72,-575.23 560.54,-579.12"/>
</g>
<!-- Node40 -->
<g id="node40" class="node">
<title>Node40</title>
<g id="a_node40"><a xlink:href="../../d7/d7e/txhash_8h.html" target="_top" xlink:title=" ">
<polygon fill="none" stroke="black" points="461.78,-605.5 461.78,-623.5 515.59,-623.5 515.59,-605.5 461.78,-605.5"/>
<text text-anchor="middle" x="488.68" y="-611.5" font-family="Helvetica,sans-Serif" font-size="10.00">txhash.h</text>
</a>
</g>
</g>
<!-- Node36&#45;&gt;Node40 -->
<g id="edge56" class="edge">
<title>Node36&#45;&gt;Node40</title>
<path fill="none" stroke="midnightblue" d="M488.68,-660.22C488.68,-653.18 488.68,-642.81 488.68,-633.83"/>
<polygon fill="midnightblue" stroke="midnightblue" points="492.18,-633.55 488.68,-623.55 485.18,-633.55 492.18,-633.55"/>
</g>
<!-- Node42 -->
<g id="node42" class="node">
<title>Node42</title>
<g id="a_node42"><a xlink:href="../../de/d7c/tximage_8h.html" target="_top" xlink:title=" ">
<polygon fill="none" stroke="black" points="227.01,-330.5 227.01,-348.5 286.36,-348.5 286.36,-330.5 227.01,-330.5"/>
<text text-anchor="middle" x="256.68" y="-336.5" font-family="Helvetica,sans-Serif" font-size="10.00">tximage.h</text>
</a>
</g>
</g>
<!-- Node36&#45;&gt;Node42 -->
<g id="edge59" class="edge">
<title>Node36&#45;&gt;Node42</title>
<path fill="none" stroke="midnightblue" d="M458.35,-662.2C395.47,-647.17 256.68,-602.97 256.68,-505.5 256.68,-505.5 256.68,-505.5 256.68,-448.5 256.68,-417.02 256.68,-380.37 256.68,-358.88"/>
<polygon fill="midnightblue" stroke="midnightblue" points="260.18,-358.63 256.68,-348.63 253.18,-358.63 260.18,-358.63"/>
</g>
<!-- Node43 -->
<g id="node43" class="node">
<title>Node43</title>
<g id="a_node43"><a xlink:href="../../dc/d65/txstack_8h.html" target="_top" xlink:title=" ">
<polygon fill="none" stroke="black" points="387.96,-605.5 387.96,-623.5 443.41,-623.5 443.41,-605.5 387.96,-605.5"/>
<text text-anchor="middle" x="415.68" y="-611.5" font-family="Helvetica,sans-Serif" font-size="10.00">txstack.h</text>
</a>
</g>
</g>
<!-- Node36&#45;&gt;Node43 -->
<g id="edge63" class="edge">
<title>Node36&#45;&gt;Node43</title>
<path fill="none" stroke="midnightblue" d="M477.6,-660.45C466.34,-652.28 448.69,-639.46 435.1,-629.6"/>
<polygon fill="midnightblue" stroke="midnightblue" points="437.02,-626.67 426.88,-623.63 432.91,-632.33 437.02,-626.67"/>
</g>
<!-- Node45 -->
<g id="node45" class="node">
<title>Node45</title>
<g id="a_node45"><a xlink:href="../../d8/d3d/txstats_8h.html" target="_top" xlink:title=" ">
<polygon fill="none" stroke="black" points="610.07,-605.5 610.07,-623.5 663.3,-623.5 663.3,-605.5 610.07,-605.5"/>
<text text-anchor="middle" x="636.68" y="-611.5" font-family="Helvetica,sans-Serif" font-size="10.00">txstats.h</text>
</a>
</g>
</g>
<!-- Node36&#45;&gt;Node45 -->
<g id="edge67" class="edge">
<title>Node36&#45;&gt;Node45</title>
<path fill="none" stroke="midnightblue" d="M511.16,-660.45C536.05,-651.54 576.36,-637.1 604.57,-627"/>
<polygon fill="midnightblue" stroke="midnightblue" points="605.76,-630.29 614,-623.63 603.4,-623.7 605.76,-630.29"/>
</g>
<!-- Node37&#45;&gt;Node22 -->
<g id="edge50" class="edge">
<title>Node37&#45;&gt;Node22</title>
<path fill="none" stroke="midnightblue" d="M624,-440.22C624.26,-433.18 624.65,-422.81 624.99,-413.83"/>
<polygon fill="midnightblue" stroke="midnightblue" points="628.5,-413.67 625.38,-403.55 621.51,-413.41 628.5,-413.67"/>
</g>
<!-- Node38&#45;&gt;Node9 -->
<g id="edge52" class="edge">
<title>Node38&#45;&gt;Node9</title>
<path fill="none" stroke="midnightblue" d="M577.42,-281.03C551,-277.02 512.3,-266.51 493.68,-239 484.52,-225.45 489.13,-206.59 494.75,-192.95"/>
<polygon fill="midnightblue" stroke="midnightblue" points="498,-194.25 499.03,-183.71 491.65,-191.31 498,-194.25"/>
</g>
<!-- Node38&#45;&gt;Node14 -->
<g id="edge53" class="edge">
<title>Node38&#45;&gt;Node14</title>
<path fill="none" stroke="midnightblue" d="M613.43,-275.22C621.78,-267.32 634.56,-255.22 644.72,-245.61"/>
<polygon fill="midnightblue" stroke="midnightblue" points="647.32,-247.97 652.18,-238.55 642.51,-242.88 647.32,-247.97"/>
</g>
<!-- Node39&#45;&gt;Node30 -->
<g id="edge55" class="edge">
<title>Node39&#45;&gt;Node30</title>
<path fill="none" stroke="midnightblue" d="M548.18,-550.45C525.78,-541.66 489.67,-527.48 464,-517.4"/>
<polygon fill="midnightblue" stroke="midnightblue" points="464.97,-514.02 454.38,-513.63 462.41,-520.54 464.97,-514.02"/>
</g>
<!-- Node41 -->
<g id="node41" class="node">
<title>Node41</title>
<g id="a_node41"><a xlink:href="../../d3/d01/txeqtb_8h.html" target="_top" xlink:title=" ">
<polygon fill="none" stroke="black" points="471.89,-550.5 471.89,-568.5 523.48,-568.5 523.48,-550.5 471.89,-550.5"/>
<text text-anchor="middle" x="497.68" y="-556.5" font-family="Helvetica,sans-Serif" font-size="10.00">txeqtb.h</text>
</a>
</g>
</g>
<!-- Node40&#45;&gt;Node41 -->
<g id="edge57" class="edge">
<title>Node40&#45;&gt;Node41</title>
<path fill="none" stroke="midnightblue" d="M490.09,-605.22C491.3,-598.1 493.09,-587.58 494.62,-578.53"/>
<polygon fill="midnightblue" stroke="midnightblue" points="498.09,-578.99 496.32,-568.55 491.19,-577.82 498.09,-578.99"/>
</g>
<!-- Node41&#45;&gt;Node30 -->
<g id="edge58" class="edge">
<title>Node41&#45;&gt;Node30</title>
<path fill="none" stroke="midnightblue" d="M487.96,-550.45C478.28,-542.43 463.21,-529.95 451.39,-520.17"/>
<polygon fill="midnightblue" stroke="midnightblue" points="453.43,-517.31 443.5,-513.63 448.97,-522.7 453.43,-517.31"/>
</g>
<!-- Node42&#45;&gt;Node13 -->
<g id="edge60" class="edge">
<title>Node42&#45;&gt;Node13</title>
<path fill="none" stroke="midnightblue" d="M256.15,-330.41C255.18,-310.31 254.9,-257.08 275.68,-220 282.58,-207.69 294.27,-197.23 304.82,-189.54"/>
<polygon fill="midnightblue" stroke="midnightblue" points="307,-192.3 313.28,-183.77 303.05,-186.51 307,-192.3"/>
</g>
<!-- Node42&#45;&gt;Node27 -->
<g id="edge61" class="edge">
<title>Node42&#45;&gt;Node27</title>
<path fill="none" stroke="midnightblue" d="M264.34,-330.22C271.5,-322.47 282.39,-310.7 291.19,-301.18"/>
<polygon fill="midnightblue" stroke="midnightblue" points="294.02,-303.27 298.24,-293.55 288.88,-298.52 294.02,-303.27"/>
</g>
<!-- Node43&#45;&gt;Node35 -->
<g id="edge64" class="edge">
<title>Node43&#45;&gt;Node35</title>
<path fill="none" stroke="midnightblue" d="M406.62,-605.22C397.89,-597.24 384.48,-584.98 373.9,-575.32"/>
<polygon fill="midnightblue" stroke="midnightblue" points="376.24,-572.71 366.49,-568.55 371.51,-577.88 376.24,-572.71"/>
</g>
<!-- Node44 -->
<g id="node44" class="node">
<title>Node44</title>
<g id="a_node44"><a xlink:href="../../d4/da4/txatt_8h.html" target="_top" xlink:title=" ">
<polygon fill="none" stroke="black" points="411.07,-550.5 411.07,-568.5 454.3,-568.5 454.3,-550.5 411.07,-550.5"/>
<text text-anchor="middle" x="432.68" y="-556.5" font-family="Helvetica,sans-Serif" font-size="10.00">txatt.h</text>
</a>
</g>
</g>
<!-- Node43&#45;&gt;Node44 -->
<g id="edge65" class="edge">
<title>Node43&#45;&gt;Node44</title>
<path fill="none" stroke="midnightblue" d="M418.34,-605.22C420.65,-598.02 424.07,-587.35 427,-578.23"/>
<polygon fill="midnightblue" stroke="midnightblue" points="430.38,-579.14 430.1,-568.55 423.72,-577 430.38,-579.14"/>
</g>
<!-- Node44&#45;&gt;Node30 -->
<g id="edge66" class="edge">
<title>Node44&#45;&gt;Node30</title>
<path fill="none" stroke="midnightblue" d="M432.84,-550.22C432.97,-543.18 433.17,-532.81 433.34,-523.83"/>
<polygon fill="midnightblue" stroke="midnightblue" points="436.84,-523.61 433.53,-513.55 429.84,-523.48 436.84,-523.61"/>
</g>
</g>
</svg>
