<?xml version="1.0" encoding="UTF-8" standalone="no"?>
<!DOCTYPE svg PUBLIC "-//W3C//DTD SVG 1.1//EN"
 "http://www.w3.org/Graphics/SVG/1.1/DTD/svg11.dtd">
<!-- Generated by graphviz version 2.42.3 (20191010.1750)
 -->
<!-- Title: txmathboot.cpp Pages: 1 -->
<svg width="743pt" height="742pt"
 viewBox="0.00 0.00 742.64 742.00" xmlns="http://www.w3.org/2000/svg" xmlns:xlink="http://www.w3.org/1999/xlink">
<g id="graph0" class="graph" transform="scale(1 1) rotate(0) translate(4 738)">
<title>txmathboot.cpp</title>
<!-- Node1 -->
<g id="node1" class="node">
<title>Node1</title>
<g id="a_node1"><a xlink:title=" ">
<polygon fill="#bfbfbf" stroke="black" points="308.99,-715.5 308.99,-733.5 393.36,-733.5 393.36,-715.5 308.99,-715.5"/>
<text text-anchor="middle" x="351.17" y="-721.5" font-family="Helvetica,sans-Serif" font-size="10.00">txmathboot.cpp</text>
</a>
</g>
</g>
<!-- Node2 -->
<g id="node2" class="node">
<title>Node2</title>
<g id="a_node2"><a xlink:href="../../d5/d87/globals_8h.html" target="_top" xlink:title=" ">
<polygon fill="none" stroke="black" points="649.71,-440.5 649.71,-458.5 734.64,-458.5 734.64,-440.5 649.71,-440.5"/>
<text text-anchor="middle" x="692.17" y="-446.5" font-family="Helvetica,sans-Serif" font-size="10.00">tralics/globals.h</text>
</a>
</g>
</g>
<!-- Node1&#45;&gt;Node2 -->
<g id="edge1" class="edge">
<title>Node1&#45;&gt;Node2</title>
<path fill="none" stroke="midnightblue" d="M393.46,-720.31C491.54,-711.75 726.17,-684.1 726.17,-615.5 726.17,-615.5 726.17,-615.5 726.17,-558.5 726.17,-525.2 711.29,-488.69 701.22,-467.79"/>
<polygon fill="midnightblue" stroke="midnightblue" points="704.23,-465.99 696.62,-458.63 697.98,-469.13 704.23,-465.99"/>
</g>
<!-- Node15 -->
<g id="node15" class="node">
<title>Node15</title>
<g id="a_node15"><a xlink:href="../../d7/d79/txinline_8h.html" target="_top" xlink:title=" ">
<polygon fill="none" stroke="black" points="201.44,-660.5 201.44,-678.5 256.91,-678.5 256.91,-660.5 201.44,-660.5"/>
<text text-anchor="middle" x="229.17" y="-666.5" font-family="Helvetica,sans-Serif" font-size="10.00">txinline.h</text>
</a>
</g>
</g>
<!-- Node1&#45;&gt;Node15 -->
<g id="edge15" class="edge">
<title>Node1&#45;&gt;Node15</title>
<path fill="none" stroke="midnightblue" d="M332.65,-715.45C312.58,-706.73 280.35,-692.73 257.19,-682.67"/>
<polygon fill="midnightblue" stroke="midnightblue" points="258.44,-679.4 247.88,-678.63 255.66,-685.82 258.44,-679.4"/>
</g>
<!-- Node33 -->
<g id="node33" class="node">
<title>Node33</title>
<g id="a_node33"><a xlink:href="../../df/d79/txmath_8h.html" target="_top" xlink:title=" ">
<polygon fill="none" stroke="black" points="0,-605.5 0,-623.5 54.35,-623.5 54.35,-605.5 0,-605.5"/>
<text text-anchor="middle" x="27.17" y="-611.5" font-family="Helvetica,sans-Serif" font-size="10.00">txmath.h</text>
</a>
</g>
</g>
<!-- Node1&#45;&gt;Node33 -->
<g id="edge44" class="edge">
<title>Node1&#45;&gt;Node33</title>
<path fill="none" stroke="midnightblue" d="M318.93,-715.43C286.61,-707.12 235.57,-693.39 192.17,-679 143.59,-662.89 88.29,-640.83 55.64,-627.4"/>
<polygon fill="midnightblue" stroke="midnightblue" points="56.85,-624.11 46.27,-623.53 54.17,-630.58 56.85,-624.11"/>
</g>
<!-- Node35 -->
<g id="node35" class="node">
<title>Node35</title>
<g id="a_node35"><a xlink:href="../../d2/d1b/txparser_8h.html" target="_top" xlink:title=" ">
<polygon fill="none" stroke="black" points="466.22,-660.5 466.22,-678.5 526.13,-678.5 526.13,-660.5 466.22,-660.5"/>
<text text-anchor="middle" x="496.17" y="-666.5" font-family="Helvetica,sans-Serif" font-size="10.00">txparser.h</text>
</a>
</g>
</g>
<!-- Node1&#45;&gt;Node35 -->
<g id="edge48" class="edge">
<title>Node1&#45;&gt;Node35</title>
<path fill="none" stroke="midnightblue" d="M373.2,-715.45C397.47,-706.58 436.73,-692.23 464.35,-682.13"/>
<polygon fill="midnightblue" stroke="midnightblue" points="465.75,-685.35 473.95,-678.63 463.35,-678.77 465.75,-685.35"/>
</g>
<!-- Node3 -->
<g id="node3" class="node">
<title>Node3</title>
<g id="a_node3"><a xlink:href="../../dc/de8/txvars_8h.html" target="_top" xlink:title=" ">
<polygon fill="none" stroke="black" points="374.5,-275.5 374.5,-293.5 433.85,-293.5 433.85,-275.5 374.5,-275.5"/>
<text text-anchor="middle" x="404.17" y="-281.5" font-family="Helvetica,sans-Serif" font-size="10.00">../txvars.h</text>
</a>
</g>
</g>
<!-- Node2&#45;&gt;Node3 -->
<g id="edge2" class="edge">
<title>Node2&#45;&gt;Node3</title>
<path fill="none" stroke="midnightblue" d="M682.38,-440.37C665.6,-426.84 629.8,-399.77 595.17,-385 529.73,-357.08 495.95,-391.89 439.17,-349 424.13,-337.63 414.7,-317.82 409.48,-303.35"/>
<polygon fill="midnightblue" stroke="midnightblue" points="412.71,-301.96 406.27,-293.54 406.05,-304.13 412.71,-301.96"/>
</g>
<!-- Node11 -->
<g id="node11" class="node">
<title>Node11</title>
<g id="a_node11"><a xlink:href="../../d8/d47/codepoint_8h.html" target="_top" xlink:title=" ">
<polygon fill="none" stroke="black" points="468.32,-165.5 468.32,-183.5 536.03,-183.5 536.03,-165.5 468.32,-165.5"/>
<text text-anchor="middle" x="502.17" y="-171.5" font-family="Helvetica,sans-Serif" font-size="10.00">codepoint.h</text>
</a>
</g>
</g>
<!-- Node2&#45;&gt;Node11 -->
<g id="edge10" class="edge">
<title>Node2&#45;&gt;Node11</title>
<path fill="none" stroke="midnightblue" d="M697.14,-440.44C707.44,-422.94 730.17,-379.86 730.17,-340.5 730.17,-340.5 730.17,-340.5 730.17,-283.5 730.17,-203.05 612.81,-182.45 546.49,-177.23"/>
<polygon fill="midnightblue" stroke="midnightblue" points="546.53,-173.72 536.31,-176.51 546.04,-180.7 546.53,-173.72"/>
</g>
<!-- Node13 -->
<g id="node13" class="node">
<title>Node13</title>
<g id="a_node13"><a xlink:title=" ">
<polygon fill="none" stroke="#bfbfbf" points="586.95,-220.5 586.95,-238.5 627.4,-238.5 627.4,-220.5 586.95,-220.5"/>
<text text-anchor="middle" x="607.17" y="-226.5" font-family="Helvetica,sans-Serif" font-size="10.00">string</text>
</a>
</g>
</g>
<!-- Node2&#45;&gt;Node13 -->
<g id="edge13" class="edge">
<title>Node2&#45;&gt;Node13</title>
<path fill="none" stroke="midnightblue" d="M691.62,-440.37C689.58,-414.6 680.85,-333.02 649.17,-275 643.08,-263.84 633.5,-253.38 625.03,-245.41"/>
<polygon fill="midnightblue" stroke="midnightblue" points="627.18,-242.65 617.39,-238.59 622.52,-247.87 627.18,-242.65"/>
</g>
<!-- Node14 -->
<g id="node14" class="node">
<title>Node14</title>
<g id="a_node14"><a xlink:title=" ">
<polygon fill="none" stroke="#bfbfbf" points="542.56,-385.5 542.56,-403.5 585.79,-403.5 585.79,-385.5 542.56,-385.5"/>
<text text-anchor="middle" x="564.17" y="-391.5" font-family="Helvetica,sans-Serif" font-size="10.00">vector</text>
</a>
</g>
</g>
<!-- Node2&#45;&gt;Node14 -->
<g id="edge14" class="edge">
<title>Node2&#45;&gt;Node14</title>
<path fill="none" stroke="midnightblue" d="M672.73,-440.45C651.59,-431.7 617.56,-417.61 593.24,-407.53"/>
<polygon fill="midnightblue" stroke="midnightblue" points="594.38,-404.22 583.8,-403.63 591.7,-410.68 594.38,-404.22"/>
</g>
<!-- Node4 -->
<g id="node4" class="node">
<title>Node4</title>
<g id="a_node4"><a xlink:href="../../d0/d0b/enums_8h.html" target="_top" xlink:title=" ">
<polygon fill="none" stroke="black" points="359.55,-165.5 359.55,-183.5 442.8,-183.5 442.8,-165.5 359.55,-165.5"/>
<text text-anchor="middle" x="401.17" y="-171.5" font-family="Helvetica,sans-Serif" font-size="10.00">tralics/enums.h</text>
</a>
</g>
</g>
<!-- Node3&#45;&gt;Node4 -->
<g id="edge3" class="edge">
<title>Node3&#45;&gt;Node4</title>
<path fill="none" stroke="midnightblue" d="M403.95,-275.38C403.47,-258.18 402.35,-217.7 401.69,-193.89"/>
<polygon fill="midnightblue" stroke="midnightblue" points="405.18,-193.61 401.4,-183.71 398.18,-193.81 405.18,-193.61"/>
</g>
<!-- Node10 -->
<g id="node10" class="node">
<title>Node10</title>
<g id="a_node10"><a xlink:title=" ">
<polygon fill="none" stroke="#bfbfbf" points="428.78,-220.5 428.78,-238.5 467.57,-238.5 467.57,-220.5 428.78,-220.5"/>
<text text-anchor="middle" x="448.17" y="-226.5" font-family="Helvetica,sans-Serif" font-size="10.00">array</text>
</a>
</g>
</g>
<!-- Node3&#45;&gt;Node10 -->
<g id="edge9" class="edge">
<title>Node3&#45;&gt;Node10</title>
<path fill="none" stroke="midnightblue" d="M411.05,-275.22C417.42,-267.55 427.06,-255.94 434.92,-246.47"/>
<polygon fill="midnightblue" stroke="midnightblue" points="437.8,-248.48 441.49,-238.55 432.41,-244.01 437.8,-248.48"/>
</g>
<!-- Node5 -->
<g id="node5" class="node">
<title>Node5</title>
<g id="a_node5"><a xlink:href="../../d8/db5/consts_8h.html" target="_top" xlink:title=" ">
<polygon fill="none" stroke="black" points="374.55,-110.5 374.55,-128.5 427.8,-128.5 427.8,-110.5 374.55,-110.5"/>
<text text-anchor="middle" x="401.17" y="-116.5" font-family="Helvetica,sans-Serif" font-size="10.00">consts.h</text>
</a>
</g>
</g>
<!-- Node4&#45;&gt;Node5 -->
<g id="edge4" class="edge">
<title>Node4&#45;&gt;Node5</title>
<path fill="none" stroke="midnightblue" d="M401.17,-165.22C401.17,-158.18 401.17,-147.81 401.17,-138.83"/>
<polygon fill="midnightblue" stroke="midnightblue" points="404.67,-138.55 401.17,-128.55 397.67,-138.55 404.67,-138.55"/>
</g>
<!-- Node6 -->
<g id="node6" class="node">
<title>Node6</title>
<g id="a_node6"><a xlink:href="../../d9/d49/types_8h.html" target="_top" xlink:title=" ">
<polygon fill="none" stroke="black" points="404.05,-55.5 404.05,-73.5 452.3,-73.5 452.3,-55.5 404.05,-55.5"/>
<text text-anchor="middle" x="428.17" y="-61.5" font-family="Helvetica,sans-Serif" font-size="10.00">types.h</text>
</a>
</g>
</g>
<!-- Node5&#45;&gt;Node6 -->
<g id="edge5" class="edge">
<title>Node5&#45;&gt;Node6</title>
<path fill="none" stroke="midnightblue" d="M405.39,-110.22C409.14,-102.86 414.74,-91.88 419.44,-82.64"/>
<polygon fill="midnightblue" stroke="midnightblue" points="422.65,-84.05 424.07,-73.55 416.42,-80.87 422.65,-84.05"/>
</g>
<!-- Node7 -->
<g id="node7" class="node">
<title>Node7</title>
<g id="a_node7"><a xlink:title=" ">
<polygon fill="none" stroke="#bfbfbf" points="336.06,-0.5 336.06,-18.5 384.29,-18.5 384.29,-0.5 336.06,-0.5"/>
<text text-anchor="middle" x="360.17" y="-6.5" font-family="Helvetica,sans-Serif" font-size="10.00">cassert</text>
</a>
</g>
</g>
<!-- Node6&#45;&gt;Node7 -->
<g id="edge6" class="edge">
<title>Node6&#45;&gt;Node7</title>
<path fill="none" stroke="midnightblue" d="M417.85,-55.45C407.46,-47.36 391.23,-34.7 378.63,-24.88"/>
<polygon fill="midnightblue" stroke="midnightblue" points="380.64,-22.01 370.6,-18.63 376.34,-27.53 380.64,-22.01"/>
</g>
<!-- Node8 -->
<g id="node8" class="node">
<title>Node8</title>
<g id="a_node8"><a xlink:title=" ">
<polygon fill="none" stroke="#bfbfbf" points="402.38,-0.5 402.38,-18.5 453.97,-18.5 453.97,-0.5 402.38,-0.5"/>
<text text-anchor="middle" x="428.17" y="-6.5" font-family="Helvetica,sans-Serif" font-size="10.00">stddef.h</text>
</a>
</g>
</g>
<!-- Node6&#45;&gt;Node8 -->
<g id="edge7" class="edge">
<title>Node6&#45;&gt;Node8</title>
<path fill="none" stroke="midnightblue" d="M428.17,-55.22C428.17,-48.18 428.17,-37.81 428.17,-28.83"/>
<polygon fill="midnightblue" stroke="midnightblue" points="431.67,-28.55 428.17,-18.55 424.67,-28.55 431.67,-28.55"/>
</g>
<!-- Node9 -->
<g id="node9" class="node">
<title>Node9</title>
<g id="a_node9"><a xlink:title=" ">
<polygon fill="none" stroke="#bfbfbf" points="472.11,-0.5 472.11,-18.5 534.24,-18.5 534.24,-0.5 472.11,-0.5"/>
<text text-anchor="middle" x="503.17" y="-6.5" font-family="Helvetica,sans-Serif" font-size="10.00">type_traits</text>
</a>
</g>
</g>
<!-- Node6&#45;&gt;Node9 -->
<g id="edge8" class="edge">
<title>Node6&#45;&gt;Node9</title>
<path fill="none" stroke="midnightblue" d="M439.57,-55.45C451.13,-47.28 469.27,-34.46 483.22,-24.6"/>
<polygon fill="midnightblue" stroke="midnightblue" points="485.53,-27.25 491.68,-18.63 481.49,-21.54 485.53,-27.25"/>
</g>
<!-- Node11&#45;&gt;Node6 -->
<g id="edge11" class="edge">
<title>Node11&#45;&gt;Node6</title>
<path fill="none" stroke="midnightblue" d="M496.61,-165.38C484.51,-147.71 455.56,-105.47 439.46,-81.98"/>
<polygon fill="midnightblue" stroke="midnightblue" points="442.34,-79.98 433.8,-73.71 436.57,-83.94 442.34,-79.98"/>
</g>
<!-- Node12 -->
<g id="node12" class="node">
<title>Node12</title>
<g id="a_node12"><a xlink:title=" ">
<polygon fill="none" stroke="#bfbfbf" points="484.66,-110.5 484.66,-128.5 535.69,-128.5 535.69,-110.5 484.66,-110.5"/>
<text text-anchor="middle" x="510.17" y="-116.5" font-family="Helvetica,sans-Serif" font-size="10.00">optional</text>
</a>
</g>
</g>
<!-- Node11&#45;&gt;Node12 -->
<g id="edge12" class="edge">
<title>Node11&#45;&gt;Node12</title>
<path fill="none" stroke="midnightblue" d="M503.42,-165.22C504.5,-158.1 506.09,-147.58 507.45,-138.53"/>
<polygon fill="midnightblue" stroke="midnightblue" points="510.93,-138.96 508.96,-128.55 504.01,-137.92 510.93,-138.96"/>
</g>
<!-- Node16 -->
<g id="node16" class="node">
<title>Node16</title>
<g id="a_node16"><a xlink:href="../../d4/de9/_main_class_8h.html" target="_top" xlink:title=" ">
<polygon fill="none" stroke="black" points="228.22,-605.5 228.22,-623.5 328.13,-623.5 328.13,-605.5 228.22,-605.5"/>
<text text-anchor="middle" x="278.17" y="-611.5" font-family="Helvetica,sans-Serif" font-size="10.00">tralics/MainClass.h</text>
</a>
</g>
</g>
<!-- Node15&#45;&gt;Node16 -->
<g id="edge16" class="edge">
<title>Node15&#45;&gt;Node16</title>
<path fill="none" stroke="midnightblue" d="M236.83,-660.22C243.99,-652.47 254.88,-640.7 263.68,-631.18"/>
<polygon fill="midnightblue" stroke="midnightblue" points="266.51,-633.27 270.73,-623.55 261.37,-628.52 266.51,-633.27"/>
</g>
<!-- Node30 -->
<g id="node30" class="node">
<title>Node30</title>
<g id="a_node30"><a xlink:href="../../d2/d06/txlogger_8h.html" target="_top" xlink:title=" ">
<polygon fill="none" stroke="black" points="72.49,-605.5 72.49,-623.5 131.86,-623.5 131.86,-605.5 72.49,-605.5"/>
<text text-anchor="middle" x="102.17" y="-611.5" font-family="Helvetica,sans-Serif" font-size="10.00">txlogger.h</text>
</a>
</g>
</g>
<!-- Node15&#45;&gt;Node30 -->
<g id="edge39" class="edge">
<title>Node15&#45;&gt;Node30</title>
<path fill="none" stroke="midnightblue" d="M209.89,-660.45C188.91,-651.7 155.14,-637.61 131.01,-627.53"/>
<polygon fill="midnightblue" stroke="midnightblue" points="132.22,-624.25 121.64,-623.63 129.53,-630.71 132.22,-624.25"/>
</g>
<!-- Node32 -->
<g id="node32" class="node">
<title>Node32</title>
<g id="a_node32"><a xlink:href="../../d5/d08/txparam_8h.html" target="_top" xlink:title=" ">
<polygon fill="none" stroke="black" points="149.94,-605.5 149.94,-623.5 210.41,-623.5 210.41,-605.5 149.94,-605.5"/>
<text text-anchor="middle" x="180.17" y="-611.5" font-family="Helvetica,sans-Serif" font-size="10.00">txparam.h</text>
</a>
</g>
</g>
<!-- Node15&#45;&gt;Node32 -->
<g id="edge42" class="edge">
<title>Node15&#45;&gt;Node32</title>
<path fill="none" stroke="midnightblue" d="M221.52,-660.22C214.36,-652.47 203.47,-640.7 194.67,-631.18"/>
<polygon fill="midnightblue" stroke="midnightblue" points="196.98,-628.52 187.62,-623.55 191.84,-633.27 196.98,-628.52"/>
</g>
<!-- Node17 -->
<g id="node17" class="node">
<title>Node17</title>
<g id="a_node17"><a xlink:href="../../de/d29/txio_8h.html" target="_top" xlink:title=" ">
<polygon fill="none" stroke="black" points="194.06,-550.5 194.06,-568.5 242.29,-568.5 242.29,-550.5 194.06,-550.5"/>
<text text-anchor="middle" x="218.17" y="-556.5" font-family="Helvetica,sans-Serif" font-size="10.00">../txio.h</text>
</a>
</g>
</g>
<!-- Node16&#45;&gt;Node17 -->
<g id="edge17" class="edge">
<title>Node16&#45;&gt;Node17</title>
<path fill="none" stroke="midnightblue" d="M269.06,-605.45C260.08,-597.51 246.12,-585.19 235.1,-575.45"/>
<polygon fill="midnightblue" stroke="midnightblue" points="237.19,-572.62 227.37,-568.63 232.55,-577.87 237.19,-572.62"/>
</g>
<!-- Node29 -->
<g id="node29" class="node">
<title>Node29</title>
<g id="a_node29"><a xlink:href="../../dc/def/txstring_8h.html" target="_top" xlink:title=" ">
<polygon fill="none" stroke="black" points="419.72,-495.5 419.72,-513.5 484.63,-513.5 484.63,-495.5 419.72,-495.5"/>
<text text-anchor="middle" x="452.17" y="-501.5" font-family="Helvetica,sans-Serif" font-size="10.00">../txstring.h</text>
</a>
</g>
</g>
<!-- Node16&#45;&gt;Node29 -->
<g id="edge37" class="edge">
<title>Node16&#45;&gt;Node29</title>
<path fill="none" stroke="midnightblue" d="M286.61,-605.27C300.2,-592.33 328.16,-566.93 355.17,-550 376.13,-536.87 401.59,-525.34 421.18,-517.3"/>
<polygon fill="midnightblue" stroke="midnightblue" points="422.57,-520.51 430.55,-513.54 419.96,-514.02 422.57,-520.51"/>
</g>
<!-- Node18 -->
<g id="node18" class="node">
<title>Node18</title>
<g id="a_node18"><a xlink:href="../../dd/d74/txbuffer_8h.html" target="_top" xlink:title=" ">
<polygon fill="none" stroke="black" points="424.69,-440.5 424.69,-458.5 481.66,-458.5 481.66,-440.5 424.69,-440.5"/>
<text text-anchor="middle" x="453.17" y="-446.5" font-family="Helvetica,sans-Serif" font-size="10.00">txbuffer.h</text>
</a>
</g>
</g>
<!-- Node17&#45;&gt;Node18 -->
<g id="edge18" class="edge">
<title>Node17&#45;&gt;Node18</title>
<path fill="none" stroke="midnightblue" d="M235.84,-550.38C276.68,-531.61 377.86,-485.11 426.39,-462.81"/>
<polygon fill="midnightblue" stroke="midnightblue" points="428,-465.92 435.63,-458.56 425.08,-459.56 428,-465.92"/>
</g>
<!-- Node28 -->
<g id="node28" class="node">
<title>Node28</title>
<g id="a_node28"><a xlink:title=" ">
<polygon fill="none" stroke="#bfbfbf" points="164.5,-495.5 164.5,-513.5 213.84,-513.5 213.84,-495.5 164.5,-495.5"/>
<text text-anchor="middle" x="189.17" y="-501.5" font-family="Helvetica,sans-Serif" font-size="10.00">fstream</text>
</a>
</g>
</g>
<!-- Node17&#45;&gt;Node28 -->
<g id="edge36" class="edge">
<title>Node17&#45;&gt;Node28</title>
<path fill="none" stroke="midnightblue" d="M213.64,-550.22C209.58,-542.79 203.48,-531.65 198.39,-522.34"/>
<polygon fill="midnightblue" stroke="midnightblue" points="201.45,-520.64 193.58,-513.55 195.31,-524 201.45,-520.64"/>
</g>
<!-- Node18&#45;&gt;Node14 -->
<g id="edge35" class="edge">
<title>Node18&#45;&gt;Node14</title>
<path fill="none" stroke="midnightblue" d="M470.03,-440.45C488.13,-431.81 517.09,-417.98 538.12,-407.94"/>
<polygon fill="midnightblue" stroke="midnightblue" points="539.64,-411.09 547.16,-403.63 536.63,-404.78 539.64,-411.09"/>
</g>
<!-- Node19 -->
<g id="node19" class="node">
<title>Node19</title>
<g id="a_node19"><a xlink:href="../../d1/d9e/txid_8h.html" target="_top" xlink:title=" ">
<polygon fill="none" stroke="black" points="534.22,-330.5 534.22,-348.5 574.13,-348.5 574.13,-330.5 534.22,-330.5"/>
<text text-anchor="middle" x="554.17" y="-336.5" font-family="Helvetica,sans-Serif" font-size="10.00">txid.h</text>
</a>
</g>
</g>
<!-- Node18&#45;&gt;Node19 -->
<g id="edge19" class="edge">
<title>Node18&#45;&gt;Node19</title>
<path fill="none" stroke="midnightblue" d="M460.93,-440.32C469.38,-431.4 483.27,-416.72 495.17,-404 510.36,-387.78 527.66,-369.15 539.58,-356.28"/>
<polygon fill="midnightblue" stroke="midnightblue" points="542.33,-358.46 546.56,-348.74 537.2,-353.7 542.33,-358.46"/>
</g>
<!-- Node20 -->
<g id="node20" class="node">
<title>Node20</title>
<g id="a_node20"><a xlink:href="../../d9/d18/txscaled_8h.html" target="_top" xlink:title=" ">
<polygon fill="none" stroke="black" points="424.66,-385.5 424.66,-403.5 485.69,-403.5 485.69,-385.5 424.66,-385.5"/>
<text text-anchor="middle" x="455.17" y="-391.5" font-family="Helvetica,sans-Serif" font-size="10.00">txscaled.h</text>
</a>
</g>
</g>
<!-- Node18&#45;&gt;Node20 -->
<g id="edge22" class="edge">
<title>Node18&#45;&gt;Node20</title>
<path fill="none" stroke="midnightblue" d="M453.49,-440.22C453.75,-433.18 454.14,-422.81 454.48,-413.83"/>
<polygon fill="midnightblue" stroke="midnightblue" points="457.99,-413.67 454.87,-403.55 451,-413.41 457.99,-413.67"/>
</g>
<!-- Node27 -->
<g id="node27" class="node">
<title>Node27</title>
<g id="a_node27"><a xlink:title=" ">
<polygon fill="none" stroke="#bfbfbf" points="361.45,-385.5 361.45,-403.5 406.9,-403.5 406.9,-385.5 361.45,-385.5"/>
<text text-anchor="middle" x="384.17" y="-391.5" font-family="Helvetica,sans-Serif" font-size="10.00">cstring</text>
</a>
</g>
</g>
<!-- Node18&#45;&gt;Node27 -->
<g id="edge34" class="edge">
<title>Node18&#45;&gt;Node27</title>
<path fill="none" stroke="midnightblue" d="M442.7,-440.45C432.16,-432.36 415.69,-419.7 402.9,-409.88"/>
<polygon fill="midnightblue" stroke="midnightblue" points="404.82,-406.94 394.75,-403.63 400.55,-412.49 404.82,-406.94"/>
</g>
<!-- Node19&#45;&gt;Node3 -->
<g id="edge20" class="edge">
<title>Node19&#45;&gt;Node3</title>
<path fill="none" stroke="midnightblue" d="M533.95,-331.35C508.94,-322.52 466.08,-307.37 436.5,-296.92"/>
<polygon fill="midnightblue" stroke="midnightblue" points="437.62,-293.6 427.02,-293.57 435.29,-300.2 437.62,-293.6"/>
</g>
<!-- Node19&#45;&gt;Node13 -->
<g id="edge21" class="edge">
<title>Node19&#45;&gt;Node13</title>
<path fill="none" stroke="midnightblue" d="M556.79,-330.47C560.91,-318.22 569.44,-294.24 579.17,-275 583.97,-265.52 590.2,-255.45 595.56,-247.3"/>
<polygon fill="midnightblue" stroke="midnightblue" points="598.63,-249 601.32,-238.76 592.83,-245.09 598.63,-249"/>
</g>
<!-- Node21 -->
<g id="node21" class="node">
<title>Node21</title>
<g id="a_node21"><a xlink:href="../../dc/d91/txtokenlist_8h.html" target="_top" xlink:title=" ">
<polygon fill="none" stroke="black" points="447.77,-330.5 447.77,-348.5 516.58,-348.5 516.58,-330.5 447.77,-330.5"/>
<text text-anchor="middle" x="482.17" y="-336.5" font-family="Helvetica,sans-Serif" font-size="10.00">txtokenlist.h</text>
</a>
</g>
</g>
<!-- Node20&#45;&gt;Node21 -->
<g id="edge23" class="edge">
<title>Node20&#45;&gt;Node21</title>
<path fill="none" stroke="midnightblue" d="M459.39,-385.22C463.14,-377.86 468.74,-366.88 473.44,-357.64"/>
<polygon fill="midnightblue" stroke="midnightblue" points="476.65,-359.05 478.07,-348.55 470.42,-355.87 476.65,-359.05"/>
</g>
<!-- Node21&#45;&gt;Node3 -->
<g id="edge32" class="edge">
<title>Node21&#45;&gt;Node3</title>
<path fill="none" stroke="midnightblue" d="M470.33,-330.45C458.19,-322.2 439.08,-309.22 424.51,-299.32"/>
<polygon fill="midnightblue" stroke="midnightblue" points="426.37,-296.35 416.13,-293.63 422.44,-302.14 426.37,-296.35"/>
</g>
<!-- Node22 -->
<g id="node22" class="node">
<title>Node22</title>
<g id="a_node22"><a xlink:href="../../d5/daf/_istring_8h.html" target="_top" xlink:title=" ">
<polygon fill="none" stroke="black" points="451.94,-275.5 451.94,-293.5 532.41,-293.5 532.41,-275.5 451.94,-275.5"/>
<text text-anchor="middle" x="492.17" y="-281.5" font-family="Helvetica,sans-Serif" font-size="10.00">tralics/Istring.h</text>
</a>
</g>
</g>
<!-- Node21&#45;&gt;Node22 -->
<g id="edge24" class="edge">
<title>Node21&#45;&gt;Node22</title>
<path fill="none" stroke="midnightblue" d="M483.74,-330.22C485.08,-323.1 487.07,-312.58 488.77,-303.53"/>
<polygon fill="midnightblue" stroke="midnightblue" points="492.24,-304.03 490.66,-293.55 485.36,-302.73 492.24,-304.03"/>
</g>
<!-- Node23 -->
<g id="node23" class="node">
<title>Node23</title>
<g id="a_node23"><a xlink:href="../../dd/dcd/_token_8h.html" target="_top" xlink:title=" ">
<polygon fill="none" stroke="black" points="259.22,-275.5 259.22,-293.5 339.13,-293.5 339.13,-275.5 259.22,-275.5"/>
<text text-anchor="middle" x="299.17" y="-281.5" font-family="Helvetica,sans-Serif" font-size="10.00">tralics/Token.h</text>
</a>
</g>
</g>
<!-- Node21&#45;&gt;Node23 -->
<g id="edge27" class="edge">
<title>Node21&#45;&gt;Node23</title>
<path fill="none" stroke="midnightblue" d="M454.38,-330.45C422.98,-321.36 371.72,-306.51 336.77,-296.39"/>
<polygon fill="midnightblue" stroke="midnightblue" points="337.51,-292.96 326.93,-293.54 335.56,-299.68 337.51,-292.96"/>
</g>
<!-- Node26 -->
<g id="node26" class="node">
<title>Node26</title>
<g id="a_node26"><a xlink:title=" ">
<polygon fill="none" stroke="#bfbfbf" points="587.78,-275.5 587.78,-293.5 626.57,-293.5 626.57,-275.5 587.78,-275.5"/>
<text text-anchor="middle" x="607.17" y="-281.5" font-family="Helvetica,sans-Serif" font-size="10.00">utility</text>
</a>
</g>
</g>
<!-- Node21&#45;&gt;Node26 -->
<g id="edge33" class="edge">
<title>Node21&#45;&gt;Node26</title>
<path fill="none" stroke="midnightblue" d="M501.16,-330.45C521.81,-321.7 555.04,-307.61 578.79,-297.53"/>
<polygon fill="midnightblue" stroke="midnightblue" points="580.17,-300.75 588.01,-293.63 577.44,-294.31 580.17,-300.75"/>
</g>
<!-- Node22&#45;&gt;Node4 -->
<g id="edge25" class="edge">
<title>Node22&#45;&gt;Node4</title>
<path fill="none" stroke="midnightblue" d="M492.06,-275.24C491.48,-262.23 488.69,-236.77 476.17,-220 465.48,-205.67 448.69,-195.09 433.7,-187.85"/>
<polygon fill="midnightblue" stroke="midnightblue" points="434.75,-184.48 424.19,-183.57 431.87,-190.86 434.75,-184.48"/>
</g>
<!-- Node22&#45;&gt;Node13 -->
<g id="edge26" class="edge">
<title>Node22&#45;&gt;Node13</title>
<path fill="none" stroke="midnightblue" d="M509.64,-275.45C528.38,-266.81 558.4,-252.98 580.18,-242.94"/>
<polygon fill="midnightblue" stroke="midnightblue" points="581.93,-245.99 589.54,-238.63 579,-239.63 581.93,-245.99"/>
</g>
<!-- Node24 -->
<g id="node24" class="node">
<title>Node24</title>
<g id="a_node24"><a xlink:href="../../d2/d68/_cmd_chr_8h.html" target="_top" xlink:title=" ">
<polygon fill="none" stroke="black" points="311.67,-220.5 311.67,-238.5 372.68,-238.5 372.68,-220.5 311.67,-220.5"/>
<text text-anchor="middle" x="342.17" y="-226.5" font-family="Helvetica,sans-Serif" font-size="10.00">CmdChr.h</text>
</a>
</g>
</g>
<!-- Node23&#45;&gt;Node24 -->
<g id="edge28" class="edge">
<title>Node23&#45;&gt;Node24</title>
<path fill="none" stroke="midnightblue" d="M305.89,-275.22C312.11,-267.55 321.54,-255.94 329.22,-246.47"/>
<polygon fill="midnightblue" stroke="midnightblue" points="332.06,-248.52 335.64,-238.55 326.63,-244.11 332.06,-248.52"/>
</g>
<!-- Node25 -->
<g id="node25" class="node">
<title>Node25</title>
<g id="a_node25"><a xlink:title=" ">
<polygon fill="none" stroke="#bfbfbf" points="264.67,-220.5 264.67,-238.5 293.67,-238.5 293.67,-220.5 264.67,-220.5"/>
<text text-anchor="middle" x="278.79" y="-226.5" font-family="Helvetica,sans-Serif" font-size="10.00">list</text>
</a>
</g>
</g>
<!-- Node23&#45;&gt;Node25 -->
<g id="edge31" class="edge">
<title>Node23&#45;&gt;Node25</title>
<path fill="none" stroke="midnightblue" d="M296.05,-275.22C293.3,-267.94 289.22,-257.11 285.75,-247.93"/>
<polygon fill="midnightblue" stroke="midnightblue" points="289.02,-246.67 282.21,-238.55 282.47,-249.14 289.02,-246.67"/>
</g>
<!-- Node24&#45;&gt;Node4 -->
<g id="edge30" class="edge">
<title>Node24&#45;&gt;Node4</title>
<path fill="none" stroke="midnightblue" d="M351.14,-220.45C359.97,-212.51 373.69,-200.19 384.53,-190.45"/>
<polygon fill="midnightblue" stroke="midnightblue" points="387.03,-192.91 392.13,-183.63 382.35,-187.7 387.03,-192.91"/>
</g>
<!-- Node24&#45;&gt;Node11 -->
<g id="edge29" class="edge">
<title>Node24&#45;&gt;Node11</title>
<path fill="none" stroke="midnightblue" d="M366.48,-220.45C393.57,-211.47 437.59,-196.89 468.12,-186.78"/>
<polygon fill="midnightblue" stroke="midnightblue" points="469.52,-190.01 477.91,-183.54 467.31,-183.36 469.52,-190.01"/>
</g>
<!-- Node29&#45;&gt;Node18 -->
<g id="edge38" class="edge">
<title>Node29&#45;&gt;Node18</title>
<path fill="none" stroke="midnightblue" d="M452.33,-495.22C452.46,-488.18 452.66,-477.81 452.83,-468.83"/>
<polygon fill="midnightblue" stroke="midnightblue" points="456.33,-468.61 453.02,-458.55 449.33,-468.48 456.33,-468.61"/>
</g>
<!-- Node30&#45;&gt;Node28 -->
<g id="edge40" class="edge">
<title>Node30&#45;&gt;Node28</title>
<path fill="none" stroke="midnightblue" d="M108.82,-605.31C116.05,-596.38 127.95,-581.69 138.17,-569 151.15,-552.9 165.95,-534.47 176.25,-521.63"/>
<polygon fill="midnightblue" stroke="midnightblue" points="179.06,-523.72 182.58,-513.73 173.6,-519.34 179.06,-523.72"/>
</g>
<!-- Node31 -->
<g id="node31" class="node">
<title>Node31</title>
<g id="a_node31"><a xlink:title=" ">
<polygon fill="none" stroke="#bfbfbf" points="75,-550.5 75,-568.5 129.35,-568.5 129.35,-550.5 75,-550.5"/>
<text text-anchor="middle" x="102.17" y="-556.5" font-family="Helvetica,sans-Serif" font-size="10.00">iostream</text>
</a>
</g>
</g>
<!-- Node30&#45;&gt;Node31 -->
<g id="edge41" class="edge">
<title>Node30&#45;&gt;Node31</title>
<path fill="none" stroke="midnightblue" d="M102.17,-605.22C102.17,-598.18 102.17,-587.81 102.17,-578.83"/>
<polygon fill="midnightblue" stroke="midnightblue" points="105.67,-578.55 102.17,-568.55 98.67,-578.55 105.67,-578.55"/>
</g>
<!-- Node32&#45;&gt;Node17 -->
<g id="edge43" class="edge">
<title>Node32&#45;&gt;Node17</title>
<path fill="none" stroke="midnightblue" d="M186.11,-605.22C191.55,-597.63 199.77,-586.18 206.52,-576.76"/>
<polygon fill="midnightblue" stroke="midnightblue" points="209.42,-578.72 212.4,-568.55 203.73,-574.64 209.42,-578.72"/>
</g>
<!-- Node33&#45;&gt;Node23 -->
<g id="edge45" class="edge">
<title>Node33&#45;&gt;Node23</title>
<path fill="none" stroke="midnightblue" d="M28.44,-605.39C31.13,-587.45 37.17,-542.97 37.17,-505.5 37.17,-505.5 37.17,-505.5 37.17,-393.5 37.17,-302.93 172.66,-286.77 248.77,-284.84"/>
<polygon fill="midnightblue" stroke="midnightblue" points="249.16,-288.33 259.1,-284.65 249.04,-281.33 249.16,-288.33"/>
</g>
<!-- Node34 -->
<g id="node34" class="node">
<title>Node34</title>
<g id="a_node34"><a xlink:href="../../d1/d43/txxml_8h.html" target="_top" xlink:title=" ">
<polygon fill="none" stroke="black" points="260.34,-550.5 260.34,-568.5 308.01,-568.5 308.01,-550.5 260.34,-550.5"/>
<text text-anchor="middle" x="284.17" y="-556.5" font-family="Helvetica,sans-Serif" font-size="10.00">txxml.h</text>
</a>
</g>
</g>
<!-- Node33&#45;&gt;Node34 -->
<g id="edge46" class="edge">
<title>Node33&#45;&gt;Node34</title>
<path fill="none" stroke="midnightblue" d="M54.66,-606.88C57.53,-606.23 60.41,-605.59 63.17,-605 143.28,-587.88 166.46,-587.61 250.12,-569.12"/>
<polygon fill="midnightblue" stroke="midnightblue" points="251.07,-572.49 260.07,-566.9 249.54,-565.66 251.07,-572.49"/>
</g>
<!-- Node34&#45;&gt;Node29 -->
<g id="edge47" class="edge">
<title>Node34&#45;&gt;Node29</title>
<path fill="none" stroke="midnightblue" d="M308.25,-550.91C336.78,-541.91 384.56,-526.83 417.18,-516.54"/>
<polygon fill="midnightblue" stroke="midnightblue" points="418.29,-519.86 426.77,-513.51 416.18,-513.18 418.29,-519.86"/>
</g>
<!-- Node35&#45;&gt;Node17 -->
<g id="edge59" class="edge">
<title>Node35&#45;&gt;Node17</title>
<path fill="none" stroke="midnightblue" d="M471.76,-660.41C447.09,-652.04 408.05,-638.21 375.17,-624 357.84,-616.51 354.49,-612.54 337.17,-605 308.86,-592.67 275.93,-580.52 251.89,-572.04"/>
<polygon fill="midnightblue" stroke="midnightblue" points="252.77,-568.63 242.18,-568.64 250.46,-575.24 252.77,-568.63"/>
</g>
<!-- Node36 -->
<g id="node36" class="node">
<title>Node36</title>
<g id="a_node36"><a xlink:href="../../d3/d6b/txcond_8h.html" target="_top" xlink:title=" ">
<polygon fill="none" stroke="black" points="534.27,-495.5 534.27,-513.5 588.08,-513.5 588.08,-495.5 534.27,-495.5"/>
<text text-anchor="middle" x="561.17" y="-501.5" font-family="Helvetica,sans-Serif" font-size="10.00">txcond.h</text>
</a>
</g>
</g>
<!-- Node35&#45;&gt;Node36 -->
<g id="edge49" class="edge">
<title>Node35&#45;&gt;Node36</title>
<path fill="none" stroke="midnightblue" d="M516.01,-660.49C530.83,-653.33 550.04,-641.28 559.17,-624 576.11,-591.97 570.69,-547.93 565.66,-523.56"/>
<polygon fill="midnightblue" stroke="midnightblue" points="569.02,-522.56 563.39,-513.59 562.2,-524.12 569.02,-522.56"/>
</g>
<!-- Node37 -->
<g id="node37" class="node">
<title>Node37</title>
<g id="a_node37"><a xlink:href="../../d7/d4d/txfonts_8h.html" target="_top" xlink:title=" ">
<polygon fill="none" stroke="black" points="426.28,-550.5 426.28,-568.5 480.07,-568.5 480.07,-550.5 426.28,-550.5"/>
<text text-anchor="middle" x="453.17" y="-556.5" font-family="Helvetica,sans-Serif" font-size="10.00">txfonts.h</text>
</a>
</g>
</g>
<!-- Node35&#45;&gt;Node37 -->
<g id="edge51" class="edge">
<title>Node35&#45;&gt;Node37</title>
<path fill="none" stroke="midnightblue" d="M492.94,-660.38C486.03,-643.03 469.68,-601.96 460.24,-578.24"/>
<polygon fill="midnightblue" stroke="midnightblue" points="463.4,-576.71 456.44,-568.71 456.89,-579.3 463.4,-576.71"/>
</g>
<!-- Node38 -->
<g id="node38" class="node">
<title>Node38</title>
<g id="a_node38"><a xlink:href="../../d7/d7e/txhash_8h.html" target="_top" xlink:title=" ">
<polygon fill="none" stroke="black" points="496.27,-605.5 496.27,-623.5 550.08,-623.5 550.08,-605.5 496.27,-605.5"/>
<text text-anchor="middle" x="523.17" y="-611.5" font-family="Helvetica,sans-Serif" font-size="10.00">txhash.h</text>
</a>
</g>
</g>
<!-- Node35&#45;&gt;Node38 -->
<g id="edge53" class="edge">
<title>Node35&#45;&gt;Node38</title>
<path fill="none" stroke="midnightblue" d="M500.39,-660.22C504.14,-652.86 509.74,-641.88 514.44,-632.64"/>
<polygon fill="midnightblue" stroke="midnightblue" points="517.65,-634.05 519.07,-623.55 511.42,-630.87 517.65,-634.05"/>
</g>
<!-- Node40 -->
<g id="node40" class="node">
<title>Node40</title>
<g id="a_node40"><a xlink:href="../../de/d7c/tximage_8h.html" target="_top" xlink:title=" ">
<polygon fill="none" stroke="black" points="592.5,-330.5 592.5,-348.5 651.85,-348.5 651.85,-330.5 592.5,-330.5"/>
<text text-anchor="middle" x="622.17" y="-336.5" font-family="Helvetica,sans-Serif" font-size="10.00">tximage.h</text>
</a>
</g>
</g>
<!-- Node35&#45;&gt;Node40 -->
<g id="edge56" class="edge">
<title>Node35&#45;&gt;Node40</title>
<path fill="none" stroke="midnightblue" d="M518.18,-660.38C552.83,-646.02 616.17,-612.63 616.17,-560.5 616.17,-560.5 616.17,-560.5 616.17,-448.5 616.17,-416.97 618.76,-380.34 620.53,-358.86"/>
<polygon fill="midnightblue" stroke="midnightblue" points="624.04,-358.88 621.41,-348.62 617.07,-358.28 624.04,-358.88"/>
</g>
<!-- Node41 -->
<g id="node41" class="node">
<title>Node41</title>
<g id="a_node41"><a xlink:href="../../dc/d65/txstack_8h.html" target="_top" xlink:title=" ">
<polygon fill="none" stroke="black" points="384.45,-605.5 384.45,-623.5 439.9,-623.5 439.9,-605.5 384.45,-605.5"/>
<text text-anchor="middle" x="412.17" y="-611.5" font-family="Helvetica,sans-Serif" font-size="10.00">txstack.h</text>
</a>
</g>
</g>
<!-- Node35&#45;&gt;Node41 -->
<g id="edge60" class="edge">
<title>Node35&#45;&gt;Node41</title>
<path fill="none" stroke="midnightblue" d="M483.42,-660.45C470.22,-652.12 449.37,-638.97 433.63,-629.04"/>
<polygon fill="midnightblue" stroke="midnightblue" points="435.38,-626 425.05,-623.63 431.64,-631.92 435.38,-626"/>
</g>
<!-- Node43 -->
<g id="node43" class="node">
<title>Node43</title>
<g id="a_node43"><a xlink:href="../../d8/d3d/txstats_8h.html" target="_top" xlink:title=" ">
<polygon fill="none" stroke="black" points="644.56,-605.5 644.56,-623.5 697.79,-623.5 697.79,-605.5 644.56,-605.5"/>
<text text-anchor="middle" x="671.17" y="-611.5" font-family="Helvetica,sans-Serif" font-size="10.00">txstats.h</text>
</a>
</g>
</g>
<!-- Node35&#45;&gt;Node43 -->
<g id="edge64" class="edge">
<title>Node35&#45;&gt;Node43</title>
<path fill="none" stroke="midnightblue" d="M522.75,-660.45C552.65,-651.4 601.38,-636.64 634.79,-626.52"/>
<polygon fill="midnightblue" stroke="midnightblue" points="636.08,-629.79 644.63,-623.54 634.05,-623.09 636.08,-629.79"/>
</g>
<!-- Node36&#45;&gt;Node14 -->
<g id="edge50" class="edge">
<title>Node36&#45;&gt;Node14</title>
<path fill="none" stroke="midnightblue" d="M561.4,-495.38C561.88,-478.18 563,-437.7 563.66,-413.89"/>
<polygon fill="midnightblue" stroke="midnightblue" points="567.17,-413.81 563.95,-403.71 560.17,-413.61 567.17,-413.81"/>
</g>
<!-- Node37&#45;&gt;Node29 -->
<g id="edge52" class="edge">
<title>Node37&#45;&gt;Node29</title>
<path fill="none" stroke="midnightblue" d="M453.02,-550.22C452.89,-543.18 452.69,-532.81 452.52,-523.83"/>
<polygon fill="midnightblue" stroke="midnightblue" points="456.01,-523.48 452.33,-513.55 449.02,-523.61 456.01,-523.48"/>
</g>
<!-- Node39 -->
<g id="node39" class="node">
<title>Node39</title>
<g id="a_node39"><a xlink:href="../../d3/d01/txeqtb_8h.html" target="_top" xlink:title=" ">
<polygon fill="none" stroke="black" points="498.38,-550.5 498.38,-568.5 549.97,-568.5 549.97,-550.5 498.38,-550.5"/>
<text text-anchor="middle" x="524.17" y="-556.5" font-family="Helvetica,sans-Serif" font-size="10.00">txeqtb.h</text>
</a>
</g>
</g>
<!-- Node38&#45;&gt;Node39 -->
<g id="edge54" class="edge">
<title>Node38&#45;&gt;Node39</title>
<path fill="none" stroke="midnightblue" d="M523.33,-605.22C523.46,-598.18 523.66,-587.81 523.83,-578.83"/>
<polygon fill="midnightblue" stroke="midnightblue" points="527.33,-578.61 524.02,-568.55 520.33,-578.48 527.33,-578.61"/>
</g>
<!-- Node39&#45;&gt;Node29 -->
<g id="edge55" class="edge">
<title>Node39&#45;&gt;Node29</title>
<path fill="none" stroke="midnightblue" d="M513.24,-550.45C502.14,-542.28 484.72,-529.46 471.33,-519.6"/>
<polygon fill="midnightblue" stroke="midnightblue" points="473.34,-516.73 463.21,-513.63 469.19,-522.37 473.34,-516.73"/>
</g>
<!-- Node40&#45;&gt;Node13 -->
<g id="edge57" class="edge">
<title>Node40&#45;&gt;Node13</title>
<path fill="none" stroke="midnightblue" d="M626.42,-330.18C632.08,-317.95 640.79,-294.46 635.17,-275 632.23,-264.8 626.19,-254.69 620.47,-246.69"/>
<polygon fill="midnightblue" stroke="midnightblue" points="623.18,-244.48 614.33,-238.66 617.62,-248.73 623.18,-244.48"/>
</g>
<!-- Node40&#45;&gt;Node26 -->
<g id="edge58" class="edge">
<title>Node40&#45;&gt;Node26</title>
<path fill="none" stroke="midnightblue" d="M619.83,-330.22C617.79,-323.02 614.77,-312.35 612.19,-303.23"/>
<polygon fill="midnightblue" stroke="midnightblue" points="615.54,-302.22 609.45,-293.55 608.81,-304.12 615.54,-302.22"/>
</g>
<!-- Node41&#45;&gt;Node34 -->
<g id="edge63" class="edge">
<title>Node41&#45;&gt;Node34</title>
<path fill="none" stroke="midnightblue" d="M392.73,-605.45C371.59,-596.7 337.56,-582.61 313.24,-572.53"/>
<polygon fill="midnightblue" stroke="midnightblue" points="314.38,-569.22 303.8,-568.63 311.7,-575.68 314.38,-569.22"/>
</g>
<!-- Node42 -->
<g id="node42" class="node">
<title>Node42</title>
<g id="a_node42"><a xlink:href="../../d4/da4/txatt_8h.html" target="_top" xlink:title=" ">
<polygon fill="none" stroke="black" points="364.56,-550.5 364.56,-568.5 407.79,-568.5 407.79,-550.5 364.56,-550.5"/>
<text text-anchor="middle" x="386.17" y="-556.5" font-family="Helvetica,sans-Serif" font-size="10.00">txatt.h</text>
</a>
</g>
</g>
<!-- Node41&#45;&gt;Node42 -->
<g id="edge61" class="edge">
<title>Node41&#45;&gt;Node42</title>
<path fill="none" stroke="midnightblue" d="M408.11,-605.22C404.5,-597.86 399.12,-586.88 394.58,-577.64"/>
<polygon fill="midnightblue" stroke="midnightblue" points="397.67,-575.99 390.12,-568.55 391.39,-579.07 397.67,-575.99"/>
</g>
<!-- Node42&#45;&gt;Node29 -->
<g id="edge62" class="edge">
<title>Node42&#45;&gt;Node29</title>
<path fill="none" stroke="midnightblue" d="M396.2,-550.45C406.18,-542.43 421.73,-529.95 433.91,-520.17"/>
<polygon fill="midnightblue" stroke="midnightblue" points="436.45,-522.62 442.06,-513.63 432.07,-517.16 436.45,-522.62"/>
</g>
</g>
</svg>
