<?xml version="1.0" encoding="UTF-8" standalone="no"?>
<!DOCTYPE svg PUBLIC "-//W3C//DTD SVG 1.1//EN"
 "http://www.w3.org/Graphics/SVG/1.1/DTD/svg11.dtd">
<!-- Generated by graphviz version 2.42.3 (20191010.1750)
 -->
<!-- Title: txmathboot.cpp Pages: 1 -->
<svg width="871pt" height="742pt"
 viewBox="0.00 0.00 871.28 742.00" xmlns="http://www.w3.org/2000/svg" xmlns:xlink="http://www.w3.org/1999/xlink">
<g id="graph0" class="graph" transform="scale(1 1) rotate(0) translate(4 738)">
<title>txmathboot.cpp</title>
<!-- Node1 -->
<g id="node1" class="node">
<title>Node1</title>
<g id="a_node1"><a xlink:title=" ">
<polygon fill="#bfbfbf" stroke="black" points="295.81,-715.5 295.81,-733.5 380.19,-733.5 380.19,-715.5 295.81,-715.5"/>
<text text-anchor="middle" x="338" y="-721.5" font-family="Helvetica,sans-Serif" font-size="10.00">txmathboot.cpp</text>
</a>
</g>
</g>
<!-- Node2 -->
<g id="node2" class="node">
<title>Node2</title>
<g id="a_node2"><a xlink:href="../../d5/d87/globals_8h.html" target="_top" xlink:title=" ">
<polygon fill="none" stroke="black" points="206.54,-440.5 206.54,-458.5 291.46,-458.5 291.46,-440.5 206.54,-440.5"/>
<text text-anchor="middle" x="249" y="-446.5" font-family="Helvetica,sans-Serif" font-size="10.00">tralics/globals.h</text>
</a>
</g>
</g>
<!-- Node1&#45;&gt;Node2 -->
<g id="edge1" class="edge">
<title>Node1&#45;&gt;Node2</title>
<path fill="none" stroke="midnightblue" d="M295.53,-718.98C204.75,-708.13 0,-676.87 0,-615.5 0,-615.5 0,-615.5 0,-558.5 0,-473.73 122.97,-454.77 196.07,-450.98"/>
<polygon fill="midnightblue" stroke="midnightblue" points="196.64,-454.46 206.48,-450.53 196.34,-447.47 196.64,-454.46"/>
</g>
<!-- Node14 -->
<g id="node14" class="node">
<title>Node14</title>
<g id="a_node14"><a xlink:href="../../d7/d79/txinline_8h.html" target="_top" xlink:title=" ">
<polygon fill="none" stroke="black" points="157.27,-660.5 157.27,-678.5 212.73,-678.5 212.73,-660.5 157.27,-660.5"/>
<text text-anchor="middle" x="185" y="-666.5" font-family="Helvetica,sans-Serif" font-size="10.00">txinline.h</text>
</a>
</g>
</g>
<!-- Node1&#45;&gt;Node14 -->
<g id="edge14" class="edge">
<title>Node1&#45;&gt;Node14</title>
<path fill="none" stroke="midnightblue" d="M314.76,-715.45C289.04,-706.54 247.36,-692.1 218.2,-682"/>
<polygon fill="midnightblue" stroke="midnightblue" points="219.05,-678.59 208.46,-678.63 216.76,-685.21 219.05,-678.59"/>
</g>
<!-- Node32 -->
<g id="node32" class="node">
<title>Node32</title>
<g id="a_node32"><a xlink:href="../../df/d79/txmath_8h.html" target="_top" xlink:title=" ">
<polygon fill="none" stroke="black" points="553.83,-660.5 553.83,-678.5 608.17,-678.5 608.17,-660.5 553.83,-660.5"/>
<text text-anchor="middle" x="581" y="-666.5" font-family="Helvetica,sans-Serif" font-size="10.00">txmath.h</text>
</a>
</g>
</g>
<!-- Node1&#45;&gt;Node32 -->
<g id="edge44" class="edge">
<title>Node1&#45;&gt;Node32</title>
<path fill="none" stroke="midnightblue" d="M374.91,-715.45C420.58,-705.49 497.91,-688.62 543.74,-678.63"/>
<polygon fill="midnightblue" stroke="midnightblue" points="544.55,-682.03 553.57,-676.48 543.06,-675.19 544.55,-682.03"/>
</g>
<!-- Node34 -->
<g id="node34" class="node">
<title>Node34</title>
<g id="a_node34"><a xlink:href="../../d2/d1b/txparser_8h.html" target="_top" xlink:title=" ">
<polygon fill="none" stroke="black" points="413.04,-660.5 413.04,-678.5 472.96,-678.5 472.96,-660.5 413.04,-660.5"/>
<text text-anchor="middle" x="443" y="-666.5" font-family="Helvetica,sans-Serif" font-size="10.00">txparser.h</text>
</a>
</g>
</g>
<!-- Node1&#45;&gt;Node34 -->
<g id="edge48" class="edge">
<title>Node1&#45;&gt;Node34</title>
<path fill="none" stroke="midnightblue" d="M353.95,-715.45C370.91,-706.89 397.97,-693.23 417.82,-683.21"/>
<polygon fill="midnightblue" stroke="midnightblue" points="419.55,-686.26 426.9,-678.63 416.4,-680.01 419.55,-686.26"/>
</g>
<!-- Node3 -->
<g id="node3" class="node">
<title>Node3</title>
<g id="a_node3"><a xlink:href="../../d8/d47/codepoint_8h.html" target="_top" xlink:title=" ">
<polygon fill="none" stroke="black" points="487.15,-165.5 487.15,-183.5 554.85,-183.5 554.85,-165.5 487.15,-165.5"/>
<text text-anchor="middle" x="521" y="-171.5" font-family="Helvetica,sans-Serif" font-size="10.00">codepoint.h</text>
</a>
</g>
</g>
<!-- Node2&#45;&gt;Node3 -->
<g id="edge2" class="edge">
<title>Node2&#45;&gt;Node3</title>
<path fill="none" stroke="midnightblue" d="M241.07,-440.33C225.41,-423.29 192,-382.05 192,-340.5 192,-340.5 192,-340.5 192,-283.5 192,-253.33 192.49,-238.9 216,-220 255.33,-188.38 402.29,-179.2 476.92,-176.55"/>
<polygon fill="midnightblue" stroke="midnightblue" points="477.07,-180.05 486.95,-176.22 476.84,-173.05 477.07,-180.05"/>
</g>
<!-- Node9 -->
<g id="node9" class="node">
<title>Node9</title>
<g id="a_node9"><a xlink:href="../../d0/d0b/enums_8h.html" target="_top" xlink:title=" ">
<polygon fill="none" stroke="black" points="584.82,-165.5 584.82,-183.5 639.18,-183.5 639.18,-165.5 584.82,-165.5"/>
<text text-anchor="middle" x="612" y="-171.5" font-family="Helvetica,sans-Serif" font-size="10.00">enums.h</text>
</a>
</g>
</g>
<!-- Node2&#45;&gt;Node9 -->
<g id="edge8" class="edge">
<title>Node2&#45;&gt;Node9</title>
<path fill="none" stroke="midnightblue" d="M246.59,-440.46C241.48,-422.63 230,-378.39 230,-340.5 230,-340.5 230,-340.5 230,-283.5 230,-241.17 262.57,-237.76 301,-220 408.1,-170.51 447.45,-202.29 564,-184 567.45,-183.46 571.03,-182.87 574.62,-182.27"/>
<polygon fill="midnightblue" stroke="midnightblue" points="575.36,-185.69 584.62,-180.54 574.17,-178.79 575.36,-185.69"/>
</g>
<!-- Node11 -->
<g id="node11" class="node">
<title>Node11</title>
<g id="a_node11"><a xlink:title=" ">
<polygon fill="none" stroke="#bfbfbf" points="309.61,-220.5 309.61,-238.5 348.39,-238.5 348.39,-220.5 309.61,-220.5"/>
<text text-anchor="middle" x="329" y="-226.5" font-family="Helvetica,sans-Serif" font-size="10.00">array</text>
</a>
</g>
</g>
<!-- Node2&#45;&gt;Node11 -->
<g id="edge11" class="edge">
<title>Node2&#45;&gt;Node11</title>
<path fill="none" stroke="midnightblue" d="M249.71,-440.45C252.21,-414.92 262.17,-333.98 292,-275 297.44,-264.24 305.91,-253.79 313.38,-245.72"/>
<polygon fill="midnightblue" stroke="midnightblue" points="315.9,-248.14 320.35,-238.53 310.88,-243.27 315.9,-248.14"/>
</g>
<!-- Node12 -->
<g id="node12" class="node">
<title>Node12</title>
<g id="a_node12"><a xlink:title=" ">
<polygon fill="none" stroke="#bfbfbf" points="417.77,-220.5 417.77,-238.5 458.23,-238.5 458.23,-220.5 417.77,-220.5"/>
<text text-anchor="middle" x="438" y="-226.5" font-family="Helvetica,sans-Serif" font-size="10.00">string</text>
</a>
</g>
</g>
<!-- Node2&#45;&gt;Node12 -->
<g id="edge12" class="edge">
<title>Node2&#45;&gt;Node12</title>
<path fill="none" stroke="midnightblue" d="M253.19,-440.33C269.06,-409.62 325.97,-301.47 354,-275 369.45,-260.41 390.6,-249.24 407.81,-241.74"/>
<polygon fill="midnightblue" stroke="midnightblue" points="409.53,-244.82 417.42,-237.75 406.84,-238.36 409.53,-244.82"/>
</g>
<!-- Node13 -->
<g id="node13" class="node">
<title>Node13</title>
<g id="a_node13"><a xlink:title=" ">
<polygon fill="none" stroke="#bfbfbf" points="564.38,-385.5 564.38,-403.5 607.62,-403.5 607.62,-385.5 564.38,-385.5"/>
<text text-anchor="middle" x="586" y="-391.5" font-family="Helvetica,sans-Serif" font-size="10.00">vector</text>
</a>
</g>
</g>
<!-- Node2&#45;&gt;Node13 -->
<g id="edge13" class="edge">
<title>Node2&#45;&gt;Node13</title>
<path fill="none" stroke="midnightblue" d="M291.68,-441.79C360.18,-431.01 493.15,-410.1 554.09,-400.52"/>
<polygon fill="midnightblue" stroke="midnightblue" points="554.92,-403.93 564.26,-398.92 553.83,-397.02 554.92,-403.93"/>
</g>
<!-- Node4 -->
<g id="node4" class="node">
<title>Node4</title>
<g id="a_node4"><a xlink:href="../../d9/d49/types_8h.html" target="_top" xlink:title=" ">
<polygon fill="none" stroke="black" points="536.88,-55.5 536.88,-73.5 585.12,-73.5 585.12,-55.5 536.88,-55.5"/>
<text text-anchor="middle" x="561" y="-61.5" font-family="Helvetica,sans-Serif" font-size="10.00">types.h</text>
</a>
</g>
</g>
<!-- Node3&#45;&gt;Node4 -->
<g id="edge3" class="edge">
<title>Node3&#45;&gt;Node4</title>
<path fill="none" stroke="midnightblue" d="M518.51,-165.32C515.16,-152.86 510.47,-128.62 518,-110 522.75,-98.26 532.24,-87.89 541.11,-80.12"/>
<polygon fill="midnightblue" stroke="midnightblue" points="543.37,-82.79 548.91,-73.76 538.95,-77.37 543.37,-82.79"/>
</g>
<!-- Node8 -->
<g id="node8" class="node">
<title>Node8</title>
<g id="a_node8"><a xlink:title=" ">
<polygon fill="none" stroke="#bfbfbf" points="527.49,-110.5 527.49,-128.5 578.51,-128.5 578.51,-110.5 527.49,-110.5"/>
<text text-anchor="middle" x="553" y="-116.5" font-family="Helvetica,sans-Serif" font-size="10.00">optional</text>
</a>
</g>
</g>
<!-- Node3&#45;&gt;Node8 -->
<g id="edge7" class="edge">
<title>Node3&#45;&gt;Node8</title>
<path fill="none" stroke="midnightblue" d="M526,-165.22C530.49,-157.79 537.21,-146.65 542.83,-137.34"/>
<polygon fill="midnightblue" stroke="midnightblue" points="545.97,-138.92 548.14,-128.55 539.97,-135.3 545.97,-138.92"/>
</g>
<!-- Node5 -->
<g id="node5" class="node">
<title>Node5</title>
<g id="a_node5"><a xlink:title=" ">
<polygon fill="none" stroke="#bfbfbf" points="470.88,-0.5 470.88,-18.5 519.12,-18.5 519.12,-0.5 470.88,-0.5"/>
<text text-anchor="middle" x="495" y="-6.5" font-family="Helvetica,sans-Serif" font-size="10.00">cassert</text>
</a>
</g>
</g>
<!-- Node4&#45;&gt;Node5 -->
<g id="edge4" class="edge">
<title>Node4&#45;&gt;Node5</title>
<path fill="none" stroke="midnightblue" d="M550.98,-55.45C540.99,-47.43 525.44,-34.95 513.26,-25.17"/>
<polygon fill="midnightblue" stroke="midnightblue" points="515.11,-22.16 505.12,-18.63 510.72,-27.62 515.11,-22.16"/>
</g>
<!-- Node6 -->
<g id="node6" class="node">
<title>Node6</title>
<g id="a_node6"><a xlink:title=" ">
<polygon fill="none" stroke="#bfbfbf" points="536.88,-0.5 536.88,-18.5 585.12,-18.5 585.12,-0.5 536.88,-0.5"/>
<text text-anchor="middle" x="561" y="-6.5" font-family="Helvetica,sans-Serif" font-size="10.00">cstddef</text>
</a>
</g>
</g>
<!-- Node4&#45;&gt;Node6 -->
<g id="edge5" class="edge">
<title>Node4&#45;&gt;Node6</title>
<path fill="none" stroke="midnightblue" d="M561,-55.22C561,-48.18 561,-37.81 561,-28.83"/>
<polygon fill="midnightblue" stroke="midnightblue" points="564.5,-28.55 561,-18.55 557.5,-28.55 564.5,-28.55"/>
</g>
<!-- Node7 -->
<g id="node7" class="node">
<title>Node7</title>
<g id="a_node7"><a xlink:title=" ">
<polygon fill="none" stroke="#bfbfbf" points="602.93,-0.5 602.93,-18.5 665.07,-18.5 665.07,-0.5 602.93,-0.5"/>
<text text-anchor="middle" x="634" y="-6.5" font-family="Helvetica,sans-Serif" font-size="10.00">type_traits</text>
</a>
</g>
</g>
<!-- Node4&#45;&gt;Node7 -->
<g id="edge6" class="edge">
<title>Node4&#45;&gt;Node7</title>
<path fill="none" stroke="midnightblue" d="M572.09,-55.45C583.34,-47.28 601,-34.46 614.58,-24.6"/>
<polygon fill="midnightblue" stroke="midnightblue" points="616.77,-27.33 622.81,-18.63 612.66,-21.67 616.77,-27.33"/>
</g>
<!-- Node10 -->
<g id="node10" class="node">
<title>Node10</title>
<g id="a_node10"><a xlink:href="../../d8/db5/consts_8h.html" target="_top" xlink:title=" ">
<polygon fill="none" stroke="black" points="596.38,-110.5 596.38,-128.5 649.62,-128.5 649.62,-110.5 596.38,-110.5"/>
<text text-anchor="middle" x="623" y="-116.5" font-family="Helvetica,sans-Serif" font-size="10.00">consts.h</text>
</a>
</g>
</g>
<!-- Node9&#45;&gt;Node10 -->
<g id="edge9" class="edge">
<title>Node9&#45;&gt;Node10</title>
<path fill="none" stroke="midnightblue" d="M613.72,-165.22C615.2,-158.1 617.38,-147.58 619.26,-138.53"/>
<polygon fill="midnightblue" stroke="midnightblue" points="622.72,-139.05 621.33,-128.55 615.87,-137.63 622.72,-139.05"/>
</g>
<!-- Node10&#45;&gt;Node4 -->
<g id="edge10" class="edge">
<title>Node10&#45;&gt;Node4</title>
<path fill="none" stroke="midnightblue" d="M613.58,-110.45C604.21,-102.43 589.6,-89.95 578.16,-80.17"/>
<polygon fill="midnightblue" stroke="midnightblue" points="580.38,-77.46 570.51,-73.63 575.83,-82.78 580.38,-77.46"/>
</g>
<!-- Node15 -->
<g id="node15" class="node">
<title>Node15</title>
<g id="a_node15"><a xlink:href="../../d4/de9/_main_class_8h.html" target="_top" xlink:title=" ">
<polygon fill="none" stroke="black" points="184.04,-605.5 184.04,-623.5 283.96,-623.5 283.96,-605.5 184.04,-605.5"/>
<text text-anchor="middle" x="234" y="-611.5" font-family="Helvetica,sans-Serif" font-size="10.00">tralics/MainClass.h</text>
</a>
</g>
</g>
<!-- Node14&#45;&gt;Node15 -->
<g id="edge15" class="edge">
<title>Node14&#45;&gt;Node15</title>
<path fill="none" stroke="midnightblue" d="M192.66,-660.22C199.82,-652.47 210.7,-640.7 219.5,-631.18"/>
<polygon fill="midnightblue" stroke="midnightblue" points="222.34,-633.27 226.56,-623.55 217.2,-628.52 222.34,-633.27"/>
</g>
<!-- Node29 -->
<g id="node29" class="node">
<title>Node29</title>
<g id="a_node29"><a xlink:href="../../d2/d06/txlogger_8h.html" target="_top" xlink:title=" ">
<polygon fill="none" stroke="black" points="28.32,-605.5 28.32,-623.5 87.68,-623.5 87.68,-605.5 28.32,-605.5"/>
<text text-anchor="middle" x="58" y="-611.5" font-family="Helvetica,sans-Serif" font-size="10.00">txlogger.h</text>
</a>
</g>
</g>
<!-- Node14&#45;&gt;Node29 -->
<g id="edge39" class="edge">
<title>Node14&#45;&gt;Node29</title>
<path fill="none" stroke="midnightblue" d="M165.71,-660.45C144.73,-651.7 110.97,-637.61 86.84,-627.53"/>
<polygon fill="midnightblue" stroke="midnightblue" points="88.05,-624.25 77.47,-623.63 85.35,-630.71 88.05,-624.25"/>
</g>
<!-- Node31 -->
<g id="node31" class="node">
<title>Node31</title>
<g id="a_node31"><a xlink:href="../../d5/d08/txparam_8h.html" target="_top" xlink:title=" ">
<polygon fill="none" stroke="black" points="105.77,-605.5 105.77,-623.5 166.23,-623.5 166.23,-605.5 105.77,-605.5"/>
<text text-anchor="middle" x="136" y="-611.5" font-family="Helvetica,sans-Serif" font-size="10.00">txparam.h</text>
</a>
</g>
</g>
<!-- Node14&#45;&gt;Node31 -->
<g id="edge42" class="edge">
<title>Node14&#45;&gt;Node31</title>
<path fill="none" stroke="midnightblue" d="M177.34,-660.22C170.18,-652.47 159.3,-640.7 150.5,-631.18"/>
<polygon fill="midnightblue" stroke="midnightblue" points="152.8,-628.52 143.44,-623.55 147.66,-633.27 152.8,-628.52"/>
</g>
<!-- Node16 -->
<g id="node16" class="node">
<title>Node16</title>
<g id="a_node16"><a xlink:href="../../de/d29/txio_8h.html" target="_top" xlink:title=" ">
<polygon fill="none" stroke="black" points="209.88,-550.5 209.88,-568.5 258.12,-568.5 258.12,-550.5 209.88,-550.5"/>
<text text-anchor="middle" x="234" y="-556.5" font-family="Helvetica,sans-Serif" font-size="10.00">../txio.h</text>
</a>
</g>
</g>
<!-- Node15&#45;&gt;Node16 -->
<g id="edge16" class="edge">
<title>Node15&#45;&gt;Node16</title>
<path fill="none" stroke="midnightblue" d="M234,-605.22C234,-598.18 234,-587.81 234,-578.83"/>
<polygon fill="midnightblue" stroke="midnightblue" points="237.5,-578.55 234,-568.55 230.5,-578.55 237.5,-578.55"/>
</g>
<!-- Node28 -->
<g id="node28" class="node">
<title>Node28</title>
<g id="a_node28"><a xlink:href="../../dc/def/txstring_8h.html" target="_top" xlink:title=" ">
<polygon fill="none" stroke="black" points="481.55,-495.5 481.55,-513.5 546.45,-513.5 546.45,-495.5 481.55,-495.5"/>
<text text-anchor="middle" x="514" y="-501.5" font-family="Helvetica,sans-Serif" font-size="10.00">../txstring.h</text>
</a>
</g>
</g>
<!-- Node15&#45;&gt;Node28 -->
<g id="edge37" class="edge">
<title>Node15&#45;&gt;Node28</title>
<path fill="none" stroke="midnightblue" d="M255.05,-605.38C304.12,-586.45 426.29,-539.33 483.52,-517.26"/>
<polygon fill="midnightblue" stroke="midnightblue" points="485.02,-520.43 493.09,-513.56 482.5,-513.9 485.02,-520.43"/>
</g>
<!-- Node17 -->
<g id="node17" class="node">
<title>Node17</title>
<g id="a_node17"><a xlink:href="../../dd/d74/txbuffer_8h.html" target="_top" xlink:title=" ">
<polygon fill="none" stroke="black" points="485.52,-440.5 485.52,-458.5 542.48,-458.5 542.48,-440.5 485.52,-440.5"/>
<text text-anchor="middle" x="514" y="-446.5" font-family="Helvetica,sans-Serif" font-size="10.00">txbuffer.h</text>
</a>
</g>
</g>
<!-- Node16&#45;&gt;Node17 -->
<g id="edge17" class="edge">
<title>Node16&#45;&gt;Node17</title>
<path fill="none" stroke="midnightblue" d="M255.05,-550.38C304.12,-531.45 426.29,-484.33 483.52,-462.26"/>
<polygon fill="midnightblue" stroke="midnightblue" points="485.02,-465.43 493.09,-458.56 482.5,-458.9 485.02,-465.43"/>
</g>
<!-- Node27 -->
<g id="node27" class="node">
<title>Node27</title>
<g id="a_node27"><a xlink:title=" ">
<polygon fill="none" stroke="#bfbfbf" points="121.33,-495.5 121.33,-513.5 170.67,-513.5 170.67,-495.5 121.33,-495.5"/>
<text text-anchor="middle" x="146" y="-501.5" font-family="Helvetica,sans-Serif" font-size="10.00">fstream</text>
</a>
</g>
</g>
<!-- Node16&#45;&gt;Node27 -->
<g id="edge36" class="edge">
<title>Node16&#45;&gt;Node27</title>
<path fill="none" stroke="midnightblue" d="M220.63,-550.45C206.81,-542.12 184.97,-528.97 168.48,-519.04"/>
<polygon fill="midnightblue" stroke="midnightblue" points="169.86,-515.79 159.49,-513.63 166.25,-521.78 169.86,-515.79"/>
</g>
<!-- Node17&#45;&gt;Node13 -->
<g id="edge35" class="edge">
<title>Node17&#45;&gt;Node13</title>
<path fill="none" stroke="midnightblue" d="M524.94,-440.45C536.04,-432.28 553.45,-419.46 566.85,-409.6"/>
<polygon fill="midnightblue" stroke="midnightblue" points="568.98,-412.37 574.96,-403.63 564.83,-406.73 568.98,-412.37"/>
</g>
<!-- Node18 -->
<g id="node18" class="node">
<title>Node18</title>
<g id="a_node18"><a xlink:href="../../dd/dcd/_token_8h.html" target="_top" xlink:title=" ">
<polygon fill="none" stroke="black" points="564.04,-275.5 564.04,-293.5 643.96,-293.5 643.96,-275.5 564.04,-275.5"/>
<text text-anchor="middle" x="604" y="-281.5" font-family="Helvetica,sans-Serif" font-size="10.00">tralics/Token.h</text>
</a>
</g>
</g>
<!-- Node17&#45;&gt;Node18 -->
<g id="edge18" class="edge">
<title>Node17&#45;&gt;Node18</title>
<path fill="none" stroke="midnightblue" d="M518.59,-440.19C532.67,-414.68 575.49,-337.13 594.61,-302.5"/>
<polygon fill="midnightblue" stroke="midnightblue" points="597.76,-304.04 599.53,-293.6 591.63,-300.66 597.76,-304.04"/>
</g>
<!-- Node21 -->
<g id="node21" class="node">
<title>Node21</title>
<g id="a_node21"><a xlink:href="../../d1/d9e/txid_8h.html" target="_top" xlink:title=" ">
<polygon fill="none" stroke="black" points="414.05,-330.5 414.05,-348.5 453.95,-348.5 453.95,-330.5 414.05,-330.5"/>
<text text-anchor="middle" x="434" y="-336.5" font-family="Helvetica,sans-Serif" font-size="10.00">txid.h</text>
</a>
</g>
</g>
<!-- Node17&#45;&gt;Node21 -->
<g id="edge23" class="edge">
<title>Node17&#45;&gt;Node21</title>
<path fill="none" stroke="midnightblue" d="M497.67,-440.49C483.85,-432.91 464.51,-420.27 453,-404 443.45,-390.5 438.63,-372.13 436.25,-358.63"/>
<polygon fill="midnightblue" stroke="midnightblue" points="439.69,-358.02 434.76,-348.64 432.77,-359.05 439.69,-358.02"/>
</g>
<!-- Node23 -->
<g id="node23" class="node">
<title>Node23</title>
<g id="a_node23"><a xlink:href="../../d9/d18/txscaled_8h.html" target="_top" xlink:title=" ">
<polygon fill="none" stroke="black" points="625.49,-385.5 625.49,-403.5 686.51,-403.5 686.51,-385.5 625.49,-385.5"/>
<text text-anchor="middle" x="656" y="-391.5" font-family="Helvetica,sans-Serif" font-size="10.00">txscaled.h</text>
</a>
</g>
</g>
<!-- Node17&#45;&gt;Node23 -->
<g id="edge29" class="edge">
<title>Node17&#45;&gt;Node23</title>
<path fill="none" stroke="midnightblue" d="M535.57,-440.45C559.34,-431.58 597.78,-417.23 624.83,-407.13"/>
<polygon fill="midnightblue" stroke="midnightblue" points="626.09,-410.4 634.23,-403.63 623.64,-403.84 626.09,-410.4"/>
</g>
<!-- Node26 -->
<g id="node26" class="node">
<title>Node26</title>
<g id="a_node26"><a xlink:title=" ">
<polygon fill="none" stroke="#bfbfbf" points="462.27,-385.5 462.27,-403.5 507.73,-403.5 507.73,-385.5 462.27,-385.5"/>
<text text-anchor="middle" x="485" y="-391.5" font-family="Helvetica,sans-Serif" font-size="10.00">cstring</text>
</a>
</g>
</g>
<!-- Node17&#45;&gt;Node26 -->
<g id="edge34" class="edge">
<title>Node17&#45;&gt;Node26</title>
<path fill="none" stroke="midnightblue" d="M509.47,-440.22C505.4,-432.79 499.31,-421.65 494.22,-412.34"/>
<polygon fill="midnightblue" stroke="midnightblue" points="497.28,-410.64 489.4,-403.55 491.13,-414 497.28,-410.64"/>
</g>
<!-- Node19 -->
<g id="node19" class="node">
<title>Node19</title>
<g id="a_node19"><a xlink:href="../../d2/d68/_cmd_chr_8h.html" target="_top" xlink:title=" ">
<polygon fill="none" stroke="black" points="581.49,-220.5 581.49,-238.5 642.51,-238.5 642.51,-220.5 581.49,-220.5"/>
<text text-anchor="middle" x="612" y="-226.5" font-family="Helvetica,sans-Serif" font-size="10.00">CmdChr.h</text>
</a>
</g>
</g>
<!-- Node18&#45;&gt;Node19 -->
<g id="edge19" class="edge">
<title>Node18&#45;&gt;Node19</title>
<path fill="none" stroke="midnightblue" d="M605.25,-275.22C606.32,-268.1 607.91,-257.58 609.28,-248.53"/>
<polygon fill="midnightblue" stroke="midnightblue" points="612.75,-248.96 610.78,-238.55 605.83,-247.92 612.75,-248.96"/>
</g>
<!-- Node20 -->
<g id="node20" class="node">
<title>Node20</title>
<g id="a_node20"><a xlink:title=" ">
<polygon fill="none" stroke="#bfbfbf" points="534.5,-220.5 534.5,-238.5 563.5,-238.5 563.5,-220.5 534.5,-220.5"/>
<text text-anchor="middle" x="548.61" y="-226.5" font-family="Helvetica,sans-Serif" font-size="10.00">list</text>
</a>
</g>
</g>
<!-- Node18&#45;&gt;Node20 -->
<g id="edge22" class="edge">
<title>Node18&#45;&gt;Node20</title>
<path fill="none" stroke="midnightblue" d="M595.41,-275.22C587.21,-267.32 574.66,-255.22 564.68,-245.61"/>
<polygon fill="midnightblue" stroke="midnightblue" points="566.98,-242.97 557.35,-238.55 562.13,-248.01 566.98,-242.97"/>
</g>
<!-- Node19&#45;&gt;Node3 -->
<g id="edge20" class="edge">
<title>Node19&#45;&gt;Node3</title>
<path fill="none" stroke="midnightblue" d="M598.18,-220.45C583.75,-212.05 560.88,-198.72 543.77,-188.76"/>
<polygon fill="midnightblue" stroke="midnightblue" points="545.35,-185.63 534.95,-183.63 541.83,-191.68 545.35,-185.63"/>
</g>
<!-- Node19&#45;&gt;Node9 -->
<g id="edge21" class="edge">
<title>Node19&#45;&gt;Node9</title>
<path fill="none" stroke="midnightblue" d="M612,-220.22C612,-213.18 612,-202.81 612,-193.83"/>
<polygon fill="midnightblue" stroke="midnightblue" points="615.5,-193.55 612,-183.55 608.5,-193.55 615.5,-193.55"/>
</g>
<!-- Node21&#45;&gt;Node12 -->
<g id="edge28" class="edge">
<title>Node21&#45;&gt;Node12</title>
<path fill="none" stroke="midnightblue" d="M434.3,-330.38C434.94,-313.18 436.44,-272.7 437.32,-248.89"/>
<polygon fill="midnightblue" stroke="midnightblue" points="440.82,-248.83 437.7,-238.71 433.83,-248.58 440.82,-248.83"/>
</g>
<!-- Node22 -->
<g id="node22" class="node">
<title>Node22</title>
<g id="a_node22"><a xlink:href="../../d5/daf/_istring_8h.html" target="_top" xlink:title=" ">
<polygon fill="none" stroke="black" points="465.77,-275.5 465.77,-293.5 546.23,-293.5 546.23,-275.5 465.77,-275.5"/>
<text text-anchor="middle" x="506" y="-281.5" font-family="Helvetica,sans-Serif" font-size="10.00">tralics/Istring.h</text>
</a>
</g>
</g>
<!-- Node21&#45;&gt;Node22 -->
<g id="edge24" class="edge">
<title>Node21&#45;&gt;Node22</title>
<path fill="none" stroke="midnightblue" d="M444.94,-330.45C456.04,-322.28 473.45,-309.46 486.85,-299.6"/>
<polygon fill="midnightblue" stroke="midnightblue" points="488.98,-302.37 494.96,-293.63 484.83,-296.73 488.98,-302.37"/>
</g>
<!-- Node22&#45;&gt;Node9 -->
<g id="edge25" class="edge">
<title>Node22&#45;&gt;Node9</title>
<path fill="none" stroke="midnightblue" d="M506.45,-275.12C507.56,-261.96 511.45,-236.27 525,-220 538.01,-204.38 557.9,-193.63 575.38,-186.62"/>
<polygon fill="midnightblue" stroke="midnightblue" points="576.64,-189.88 584.78,-183.1 574.19,-183.33 576.64,-189.88"/>
</g>
<!-- Node22&#45;&gt;Node11 -->
<g id="edge26" class="edge">
<title>Node22&#45;&gt;Node11</title>
<path fill="none" stroke="midnightblue" d="M479.12,-275.45C446.51,-265.69 391.76,-249.29 358.16,-239.23"/>
<polygon fill="midnightblue" stroke="midnightblue" points="359.05,-235.84 348.46,-236.33 357.04,-242.55 359.05,-235.84"/>
</g>
<!-- Node22&#45;&gt;Node12 -->
<g id="edge27" class="edge">
<title>Node22&#45;&gt;Node12</title>
<path fill="none" stroke="midnightblue" d="M495.67,-275.45C485.29,-267.36 469.05,-254.7 456.45,-244.88"/>
<polygon fill="midnightblue" stroke="midnightblue" points="458.46,-242.01 448.42,-238.63 454.16,-247.53 458.46,-242.01"/>
</g>
<!-- Node24 -->
<g id="node24" class="node">
<title>Node24</title>
<g id="a_node24"><a xlink:href="../../dc/d91/txtokenlist_8h.html" target="_top" xlink:title=" ">
<polygon fill="none" stroke="black" points="471.6,-330.5 471.6,-348.5 540.4,-348.5 540.4,-330.5 471.6,-330.5"/>
<text text-anchor="middle" x="506" y="-336.5" font-family="Helvetica,sans-Serif" font-size="10.00">txtokenlist.h</text>
</a>
</g>
</g>
<!-- Node23&#45;&gt;Node24 -->
<g id="edge30" class="edge">
<title>Node23&#45;&gt;Node24</title>
<path fill="none" stroke="midnightblue" d="M633.22,-385.45C608,-376.54 567.14,-362.1 538.55,-352"/>
<polygon fill="midnightblue" stroke="midnightblue" points="539.59,-348.66 529,-348.63 537.26,-355.26 539.59,-348.66"/>
</g>
<!-- Node24&#45;&gt;Node18 -->
<g id="edge32" class="edge">
<title>Node24&#45;&gt;Node18</title>
<path fill="none" stroke="midnightblue" d="M520.88,-330.45C536.57,-321.97 561.51,-308.48 579.99,-298.49"/>
<polygon fill="midnightblue" stroke="midnightblue" points="581.84,-301.46 588.98,-293.63 578.51,-295.3 581.84,-301.46"/>
</g>
<!-- Node24&#45;&gt;Node22 -->
<g id="edge31" class="edge">
<title>Node24&#45;&gt;Node22</title>
<path fill="none" stroke="midnightblue" d="M506,-330.22C506,-323.18 506,-312.81 506,-303.83"/>
<polygon fill="midnightblue" stroke="midnightblue" points="509.5,-303.55 506,-293.55 502.5,-303.55 509.5,-303.55"/>
</g>
<!-- Node25 -->
<g id="node25" class="node">
<title>Node25</title>
<g id="a_node25"><a xlink:title=" ">
<polygon fill="none" stroke="#bfbfbf" points="371.61,-275.5 371.61,-293.5 410.39,-293.5 410.39,-275.5 371.61,-275.5"/>
<text text-anchor="middle" x="391" y="-281.5" font-family="Helvetica,sans-Serif" font-size="10.00">utility</text>
</a>
</g>
</g>
<!-- Node24&#45;&gt;Node25 -->
<g id="edge33" class="edge">
<title>Node24&#45;&gt;Node25</title>
<path fill="none" stroke="midnightblue" d="M488.53,-330.45C469.79,-321.81 439.78,-307.98 417.99,-297.94"/>
<polygon fill="midnightblue" stroke="midnightblue" points="419.18,-294.63 408.63,-293.63 416.25,-300.99 419.18,-294.63"/>
</g>
<!-- Node28&#45;&gt;Node17 -->
<g id="edge38" class="edge">
<title>Node28&#45;&gt;Node17</title>
<path fill="none" stroke="midnightblue" d="M514,-495.22C514,-488.18 514,-477.81 514,-468.83"/>
<polygon fill="midnightblue" stroke="midnightblue" points="517.5,-468.55 514,-458.55 510.5,-468.55 517.5,-468.55"/>
</g>
<!-- Node29&#45;&gt;Node27 -->
<g id="edge40" class="edge">
<title>Node29&#45;&gt;Node27</title>
<path fill="none" stroke="midnightblue" d="M58.65,-605.27C60.03,-592.33 64.28,-566.93 77,-550 87.3,-536.3 103.14,-525.65 117.06,-518.21"/>
<polygon fill="midnightblue" stroke="midnightblue" points="118.92,-521.19 126.29,-513.57 115.78,-514.93 118.92,-521.19"/>
</g>
<!-- Node30 -->
<g id="node30" class="node">
<title>Node30</title>
<g id="a_node30"><a xlink:title=" ">
<polygon fill="none" stroke="#bfbfbf" points="85.83,-550.5 85.83,-568.5 140.17,-568.5 140.17,-550.5 85.83,-550.5"/>
<text text-anchor="middle" x="113" y="-556.5" font-family="Helvetica,sans-Serif" font-size="10.00">iostream</text>
</a>
</g>
</g>
<!-- Node29&#45;&gt;Node30 -->
<g id="edge41" class="edge">
<title>Node29&#45;&gt;Node30</title>
<path fill="none" stroke="midnightblue" d="M66.59,-605.22C74.79,-597.32 87.34,-585.22 97.32,-575.61"/>
<polygon fill="midnightblue" stroke="midnightblue" points="99.87,-578.01 104.65,-568.55 95.02,-572.97 99.87,-578.01"/>
</g>
<!-- Node31&#45;&gt;Node16 -->
<g id="edge43" class="edge">
<title>Node31&#45;&gt;Node16</title>
<path fill="none" stroke="midnightblue" d="M150.88,-605.45C166.57,-596.97 191.51,-583.48 209.99,-573.49"/>
<polygon fill="midnightblue" stroke="midnightblue" points="211.84,-576.46 218.98,-568.63 208.51,-570.3 211.84,-576.46"/>
</g>
<!-- Node33 -->
<g id="node33" class="node">
<title>Node33</title>
<g id="a_node33"><a xlink:href="../../d1/d43/txxml_8h.html" target="_top" xlink:title=" ">
<polygon fill="none" stroke="black" points="618.17,-550.5 618.17,-568.5 665.83,-568.5 665.83,-550.5 618.17,-550.5"/>
<text text-anchor="middle" x="642" y="-556.5" font-family="Helvetica,sans-Serif" font-size="10.00">txxml.h</text>
</a>
</g>
</g>
<!-- Node32&#45;&gt;Node33 -->
<g id="edge45" class="edge">
<title>Node32&#45;&gt;Node33</title>
<path fill="none" stroke="midnightblue" d="M591.65,-660.48C601.7,-652.35 616.46,-638.89 625,-624 632.99,-610.06 637.33,-592.25 639.63,-579.04"/>
<polygon fill="midnightblue" stroke="midnightblue" points="643.13,-579.24 641.15,-568.83 636.21,-578.21 643.13,-579.24"/>
</g>
<!-- Node33&#45;&gt;Node13 -->
<g id="edge47" class="edge">
<title>Node33&#45;&gt;Node13</title>
<path fill="none" stroke="midnightblue" d="M639.15,-550.19C630.46,-524.9 604.19,-448.45 592.15,-413.4"/>
<polygon fill="midnightblue" stroke="midnightblue" points="595.34,-411.92 588.78,-403.6 588.72,-414.19 595.34,-411.92"/>
</g>
<!-- Node33&#45;&gt;Node28 -->
<g id="edge46" class="edge">
<title>Node33&#45;&gt;Node28</title>
<path fill="none" stroke="midnightblue" d="M622.56,-550.45C601.41,-541.7 567.39,-527.61 543.06,-517.53"/>
<polygon fill="midnightblue" stroke="midnightblue" points="544.2,-514.22 533.62,-513.63 541.52,-520.68 544.2,-514.22"/>
</g>
<!-- Node34&#45;&gt;Node16 -->
<g id="edge65" class="edge">
<title>Node34&#45;&gt;Node16</title>
<path fill="none" stroke="midnightblue" d="M420.81,-660.48C398.83,-652.26 364.44,-638.64 336,-624 306.41,-608.76 274.08,-587.85 253.92,-574.26"/>
<polygon fill="midnightblue" stroke="midnightblue" points="255.81,-571.31 245.57,-568.57 251.87,-577.09 255.81,-571.31"/>
</g>
<!-- Node35 -->
<g id="node35" class="node">
<title>Node35</title>
<g id="a_node35"><a xlink:href="../../d8/dd6/_e_q_t_b_8h.html" target="_top" xlink:title=" ">
<polygon fill="none" stroke="black" points="671.77,-605.5 671.77,-623.5 752.23,-623.5 752.23,-605.5 671.77,-605.5"/>
<text text-anchor="middle" x="712" y="-611.5" font-family="Helvetica,sans-Serif" font-size="10.00">tralics/EQTB.h</text>
</a>
</g>
</g>
<!-- Node34&#45;&gt;Node35 -->
<g id="edge49" class="edge">
<title>Node34&#45;&gt;Node35</title>
<path fill="none" stroke="midnightblue" d="M473.07,-662.57C518.76,-653.57 606.2,-636.35 661.68,-625.41"/>
<polygon fill="midnightblue" stroke="midnightblue" points="662.51,-628.82 671.65,-623.45 661.16,-621.95 662.51,-628.82"/>
</g>
<!-- Node36 -->
<g id="node36" class="node">
<title>Node36</title>
<g id="a_node36"><a xlink:href="../../d3/d6b/txcond_8h.html" target="_top" xlink:title=" ">
<polygon fill="none" stroke="black" points="781.1,-440.5 781.1,-458.5 834.9,-458.5 834.9,-440.5 781.1,-440.5"/>
<text text-anchor="middle" x="808" y="-446.5" font-family="Helvetica,sans-Serif" font-size="10.00">txcond.h</text>
</a>
</g>
</g>
<!-- Node34&#45;&gt;Node36 -->
<g id="edge54" class="edge">
<title>Node34&#45;&gt;Node36</title>
<path fill="none" stroke="midnightblue" d="M473.14,-665.98C548.07,-659.49 738.38,-641.45 761,-624 809.17,-586.86 811.23,-505.7 809.48,-469.08"/>
<polygon fill="midnightblue" stroke="midnightblue" points="812.96,-468.63 808.83,-458.87 805.97,-469.07 812.96,-468.63"/>
</g>
<!-- Node37 -->
<g id="node37" class="node">
<title>Node37</title>
<g id="a_node37"><a xlink:href="../../d7/d4d/txfonts_8h.html" target="_top" xlink:title=" ">
<polygon fill="none" stroke="black" points="416.1,-550.5 416.1,-568.5 469.9,-568.5 469.9,-550.5 416.1,-550.5"/>
<text text-anchor="middle" x="443" y="-556.5" font-family="Helvetica,sans-Serif" font-size="10.00">txfonts.h</text>
</a>
</g>
</g>
<!-- Node34&#45;&gt;Node37 -->
<g id="edge57" class="edge">
<title>Node34&#45;&gt;Node37</title>
<path fill="none" stroke="midnightblue" d="M432.91,-660.33C419.82,-648.66 399.48,-626.27 407,-605 410.93,-593.9 418.93,-583.54 426.4,-575.61"/>
<polygon fill="midnightblue" stroke="midnightblue" points="428.88,-578.09 433.51,-568.56 423.95,-573.12 428.88,-578.09"/>
</g>
<!-- Node38 -->
<g id="node38" class="node">
<title>Node38</title>
<g id="a_node38"><a xlink:href="../../d7/d7e/txhash_8h.html" target="_top" xlink:title=" ">
<polygon fill="none" stroke="black" points="488.1,-605.5 488.1,-623.5 541.9,-623.5 541.9,-605.5 488.1,-605.5"/>
<text text-anchor="middle" x="515" y="-611.5" font-family="Helvetica,sans-Serif" font-size="10.00">txhash.h</text>
</a>
</g>
</g>
<!-- Node34&#45;&gt;Node38 -->
<g id="edge59" class="edge">
<title>Node34&#45;&gt;Node38</title>
<path fill="none" stroke="midnightblue" d="M453.94,-660.45C465.04,-652.28 482.45,-639.46 495.85,-629.6"/>
<polygon fill="midnightblue" stroke="midnightblue" points="497.98,-632.37 503.96,-623.63 493.83,-626.73 497.98,-632.37"/>
</g>
<!-- Node40 -->
<g id="node40" class="node">
<title>Node40</title>
<g id="a_node40"><a xlink:href="../../de/d7c/tximage_8h.html" target="_top" xlink:title=" ">
<polygon fill="none" stroke="black" points="334.32,-330.5 334.32,-348.5 393.68,-348.5 393.68,-330.5 334.32,-330.5"/>
<text text-anchor="middle" x="364" y="-336.5" font-family="Helvetica,sans-Serif" font-size="10.00">tximage.h</text>
</a>
</g>
</g>
<!-- Node34&#45;&gt;Node40 -->
<g id="edge62" class="edge">
<title>Node34&#45;&gt;Node40</title>
<path fill="none" stroke="midnightblue" d="M428.06,-660.29C401.77,-644.62 350,-607.76 350,-560.5 350,-560.5 350,-560.5 350,-448.5 350,-416.61 356.08,-379.85 360.22,-358.49"/>
<polygon fill="midnightblue" stroke="midnightblue" points="363.68,-359.08 362.23,-348.58 356.82,-357.69 363.68,-359.08"/>
</g>
<!-- Node41 -->
<g id="node41" class="node">
<title>Node41</title>
<g id="a_node41"><a xlink:href="../../dc/d65/txstack_8h.html" target="_top" xlink:title=" ">
<polygon fill="none" stroke="black" points="560.27,-605.5 560.27,-623.5 615.73,-623.5 615.73,-605.5 560.27,-605.5"/>
<text text-anchor="middle" x="588" y="-611.5" font-family="Helvetica,sans-Serif" font-size="10.00">txstack.h</text>
</a>
</g>
</g>
<!-- Node34&#45;&gt;Node41 -->
<g id="edge66" class="edge">
<title>Node34&#45;&gt;Node41</title>
<path fill="none" stroke="midnightblue" d="M465.02,-660.45C489.29,-651.58 528.55,-637.23 556.17,-627.13"/>
<polygon fill="midnightblue" stroke="midnightblue" points="557.58,-630.35 565.77,-623.63 555.18,-623.77 557.58,-630.35"/>
</g>
<!-- Node43 -->
<g id="node43" class="node">
<title>Node43</title>
<g id="a_node43"><a xlink:href="../../d8/d3d/txstats_8h.html" target="_top" xlink:title=" ">
<polygon fill="none" stroke="black" points="416.38,-605.5 416.38,-623.5 469.62,-623.5 469.62,-605.5 416.38,-605.5"/>
<text text-anchor="middle" x="443" y="-611.5" font-family="Helvetica,sans-Serif" font-size="10.00">txstats.h</text>
</a>
</g>
</g>
<!-- Node34&#45;&gt;Node43 -->
<g id="edge72" class="edge">
<title>Node34&#45;&gt;Node43</title>
<path fill="none" stroke="midnightblue" d="M443,-660.22C443,-653.18 443,-642.81 443,-633.83"/>
<polygon fill="midnightblue" stroke="midnightblue" points="446.5,-633.55 443,-623.55 439.5,-633.55 446.5,-633.55"/>
</g>
<!-- Node35&#45;&gt;Node12 -->
<g id="edge53" class="edge">
<title>Node35&#45;&gt;Node12</title>
<path fill="none" stroke="midnightblue" d="M716.88,-605.29C721.8,-596.59 729.2,-582.31 733,-569 754.29,-494.36 753,-473.12 753,-395.5 753,-395.5 753,-395.5 753,-338.5 753,-278.87 548.44,-245.21 469.01,-234.39"/>
<polygon fill="midnightblue" stroke="midnightblue" points="469.04,-230.86 458.67,-233.01 468.12,-237.8 469.04,-230.86"/>
</g>
<!-- Node35&#45;&gt;Node18 -->
<g id="edge52" class="edge">
<title>Node35&#45;&gt;Node18</title>
<path fill="none" stroke="midnightblue" d="M713.39,-605.12C718.13,-574.18 731.47,-464.11 696,-385 679.77,-348.8 645.01,-317.12 623.17,-299.71"/>
<polygon fill="midnightblue" stroke="midnightblue" points="625.27,-296.92 615.23,-293.56 620.99,-302.45 625.27,-296.92"/>
</g>
<!-- Node35&#45;&gt;Node23 -->
<g id="edge50" class="edge">
<title>Node35&#45;&gt;Node23</title>
<path fill="none" stroke="midnightblue" d="M709.94,-605.48C701.86,-574.04 672.23,-458.67 660.66,-413.66"/>
<polygon fill="midnightblue" stroke="midnightblue" points="664.02,-412.64 658.14,-403.82 657.24,-414.38 664.02,-412.64"/>
</g>
<!-- Node35&#45;&gt;Node33 -->
<g id="edge51" class="edge">
<title>Node35&#45;&gt;Node33</title>
<path fill="none" stroke="midnightblue" d="M701.37,-605.45C690.68,-597.36 673.97,-584.7 661,-574.88"/>
<polygon fill="midnightblue" stroke="midnightblue" points="662.82,-571.87 652.73,-568.63 658.59,-577.45 662.82,-571.87"/>
</g>
<!-- Node36&#45;&gt;Node9 -->
<g id="edge55" class="edge">
<title>Node36&#45;&gt;Node9</title>
<path fill="none" stroke="midnightblue" d="M806.86,-440.39C804.44,-422.43 799,-377.94 799,-340.5 799,-340.5 799,-340.5 799,-283.5 799,-215 703.73,-189.26 649.19,-180.14"/>
<polygon fill="midnightblue" stroke="midnightblue" points="649.61,-176.67 639.19,-178.58 648.53,-183.58 649.61,-176.67"/>
</g>
<!-- Node36&#45;&gt;Node13 -->
<g id="edge56" class="edge">
<title>Node36&#45;&gt;Node13</title>
<path fill="none" stroke="midnightblue" d="M780.87,-442.65C745.41,-434.9 681.16,-420.55 617.69,-404.35"/>
<polygon fill="midnightblue" stroke="midnightblue" points="618.48,-400.94 607.92,-401.84 616.74,-407.72 618.48,-400.94"/>
</g>
<!-- Node37&#45;&gt;Node28 -->
<g id="edge58" class="edge">
<title>Node37&#45;&gt;Node28</title>
<path fill="none" stroke="midnightblue" d="M453.78,-550.45C464.63,-542.36 481.58,-529.7 494.73,-519.88"/>
<polygon fill="midnightblue" stroke="midnightblue" points="497.2,-522.41 503.12,-513.63 493.01,-516.8 497.2,-522.41"/>
</g>
<!-- Node39 -->
<g id="node39" class="node">
<title>Node39</title>
<g id="a_node39"><a xlink:href="../../d3/d01/txeqtb_8h.html" target="_top" xlink:title=" ">
<polygon fill="none" stroke="black" points="488.21,-550.5 488.21,-568.5 539.79,-568.5 539.79,-550.5 488.21,-550.5"/>
<text text-anchor="middle" x="514" y="-556.5" font-family="Helvetica,sans-Serif" font-size="10.00">txeqtb.h</text>
</a>
</g>
</g>
<!-- Node38&#45;&gt;Node39 -->
<g id="edge60" class="edge">
<title>Node38&#45;&gt;Node39</title>
<path fill="none" stroke="midnightblue" d="M514.84,-605.22C514.71,-598.18 514.52,-587.81 514.35,-578.83"/>
<polygon fill="midnightblue" stroke="midnightblue" points="517.84,-578.48 514.15,-568.55 510.84,-578.61 517.84,-578.48"/>
</g>
<!-- Node39&#45;&gt;Node28 -->
<g id="edge61" class="edge">
<title>Node39&#45;&gt;Node28</title>
<path fill="none" stroke="midnightblue" d="M514,-550.22C514,-543.18 514,-532.81 514,-523.83"/>
<polygon fill="midnightblue" stroke="midnightblue" points="517.5,-523.55 514,-513.55 510.5,-523.55 517.5,-523.55"/>
</g>
<!-- Node40&#45;&gt;Node12 -->
<g id="edge63" class="edge">
<title>Node40&#45;&gt;Node12</title>
<path fill="none" stroke="midnightblue" d="M361.42,-330.44C357.87,-317.72 352.96,-292.63 363,-275 372.62,-258.11 391.45,-246.97 407.83,-240.06"/>
<polygon fill="midnightblue" stroke="midnightblue" points="409.54,-243.15 417.61,-236.29 407.02,-236.62 409.54,-243.15"/>
</g>
<!-- Node40&#45;&gt;Node25 -->
<g id="edge64" class="edge">
<title>Node40&#45;&gt;Node25</title>
<path fill="none" stroke="midnightblue" d="M368.22,-330.22C371.97,-322.86 377.56,-311.88 382.27,-302.64"/>
<polygon fill="midnightblue" stroke="midnightblue" points="385.48,-304.05 386.9,-293.55 379.24,-300.87 385.48,-304.05"/>
</g>
<!-- Node41&#45;&gt;Node33 -->
<g id="edge71" class="edge">
<title>Node41&#45;&gt;Node33</title>
<path fill="none" stroke="midnightblue" d="M596.44,-605.22C604.49,-597.32 616.81,-585.22 626.61,-575.61"/>
<polygon fill="midnightblue" stroke="midnightblue" points="629.11,-578.05 633.8,-568.55 624.21,-573.06 629.11,-578.05"/>
</g>
<!-- Node42 -->
<g id="node42" class="node">
<title>Node42</title>
<g id="a_node42"><a xlink:href="../../d4/da4/txatt_8h.html" target="_top" xlink:title=" ">
<polygon fill="none" stroke="black" points="557.38,-550.5 557.38,-568.5 600.62,-568.5 600.62,-550.5 557.38,-550.5"/>
<text text-anchor="middle" x="579" y="-556.5" font-family="Helvetica,sans-Serif" font-size="10.00">txatt.h</text>
</a>
</g>
</g>
<!-- Node41&#45;&gt;Node42 -->
<g id="edge67" class="edge">
<title>Node41&#45;&gt;Node42</title>
<path fill="none" stroke="midnightblue" d="M586.59,-605.22C585.38,-598.1 583.6,-587.58 582.06,-578.53"/>
<polygon fill="midnightblue" stroke="midnightblue" points="585.49,-577.82 580.37,-568.55 578.59,-578.99 585.49,-577.82"/>
</g>
<!-- Node42&#45;&gt;Node8 -->
<g id="edge69" class="edge">
<title>Node42&#45;&gt;Node8</title>
<path fill="none" stroke="midnightblue" d="M600.74,-551.57C660.94,-532.21 826.48,-477.77 844,-459 864.11,-437.47 863,-424.96 863,-395.5 863,-395.5 863,-395.5 863,-228.5 863,-214.1 669.79,-155.12 588.43,-130.93"/>
<polygon fill="midnightblue" stroke="midnightblue" points="589.21,-127.51 578.63,-128.02 587.22,-134.22 589.21,-127.51"/>
</g>
<!-- Node42&#45;&gt;Node13 -->
<g id="edge70" class="edge">
<title>Node42&#45;&gt;Node13</title>
<path fill="none" stroke="midnightblue" d="M579.36,-550.19C580.44,-525.01 583.7,-449.11 585.21,-413.86"/>
<polygon fill="midnightblue" stroke="midnightblue" points="588.72,-413.74 585.65,-403.6 581.73,-413.44 588.72,-413.74"/>
</g>
<!-- Node42&#45;&gt;Node28 -->
<g id="edge68" class="edge">
<title>Node42&#45;&gt;Node28</title>
<path fill="none" stroke="midnightblue" d="M569.13,-550.45C559.3,-542.43 543.98,-529.95 531.99,-520.17"/>
<polygon fill="midnightblue" stroke="midnightblue" points="533.93,-517.23 523.97,-513.63 529.5,-522.66 533.93,-517.23"/>
</g>
</g>
</svg>
