<?xml version="1.0" encoding="UTF-8" standalone="no"?>
<!DOCTYPE svg PUBLIC "-//W3C//DTD SVG 1.1//EN"
 "http://www.w3.org/Graphics/SVG/1.1/DTD/svg11.dtd">
<!-- Generated by graphviz version 2.42.3 (20191010.1750)
 -->
<!-- Title: txra.cpp Pages: 1 -->
<svg width="699pt" height="742pt"
 viewBox="0.00 0.00 698.68 742.00" xmlns="http://www.w3.org/2000/svg" xmlns:xlink="http://www.w3.org/1999/xlink">
<g id="graph0" class="graph" transform="scale(1 1) rotate(0) translate(4 738)">
<title>txra.cpp</title>
<!-- Node1 -->
<g id="node1" class="node">
<title>Node1</title>
<g id="a_node1"><a xlink:title=" ">
<polygon fill="#bfbfbf" stroke="black" points="252.9,-715.5 252.9,-733.5 304.47,-733.5 304.47,-715.5 252.9,-715.5"/>
<text text-anchor="middle" x="278.68" y="-721.5" font-family="Helvetica,sans-Serif" font-size="10.00">txra.cpp</text>
</a>
</g>
</g>
<!-- Node2 -->
<g id="node2" class="node">
<title>Node2</title>
<g id="a_node2"><a xlink:href="../../d7/d79/txinline_8h.html" target="_top" xlink:title=" ">
<polygon fill="none" stroke="black" points="147.95,-660.5 147.95,-678.5 203.42,-678.5 203.42,-660.5 147.95,-660.5"/>
<text text-anchor="middle" x="175.68" y="-666.5" font-family="Helvetica,sans-Serif" font-size="10.00">txinline.h</text>
</a>
</g>
</g>
<!-- Node1&#45;&gt;Node2 -->
<g id="edge1" class="edge">
<title>Node1&#45;&gt;Node2</title>
<path fill="none" stroke="midnightblue" d="M263.04,-715.45C246.4,-706.89 219.86,-693.23 200.39,-683.21"/>
<polygon fill="midnightblue" stroke="midnightblue" points="201.97,-680.09 191.48,-678.63 198.77,-686.31 201.97,-680.09"/>
</g>
<!-- Node31 -->
<g id="node31" class="node">
<title>Node31</title>
<g id="a_node31"><a xlink:href="../../d2/d1b/txparser_8h.html" target="_top" xlink:title=" ">
<polygon fill="none" stroke="black" points="419.73,-660.5 419.73,-678.5 479.64,-678.5 479.64,-660.5 419.73,-660.5"/>
<text text-anchor="middle" x="449.68" y="-666.5" font-family="Helvetica,sans-Serif" font-size="10.00">txparser.h</text>
</a>
</g>
</g>
<!-- Node1&#45;&gt;Node31 -->
<g id="edge36" class="edge">
<title>Node1&#45;&gt;Node31</title>
<path fill="none" stroke="midnightblue" d="M304.66,-715.45C333.87,-706.4 381.48,-691.64 414.13,-681.52"/>
<polygon fill="midnightblue" stroke="midnightblue" points="415.23,-684.84 423.75,-678.54 413.16,-678.16 415.23,-684.84"/>
</g>
<!-- Node3 -->
<g id="node3" class="node">
<title>Node3</title>
<g id="a_node3"><a xlink:href="../../d4/de9/_main_class_8h.html" target="_top" xlink:title=" ">
<polygon fill="none" stroke="black" points="193.73,-605.5 193.73,-623.5 293.64,-623.5 293.64,-605.5 193.73,-605.5"/>
<text text-anchor="middle" x="243.68" y="-611.5" font-family="Helvetica,sans-Serif" font-size="10.00">tralics/MainClass.h</text>
</a>
</g>
</g>
<!-- Node2&#45;&gt;Node3 -->
<g id="edge2" class="edge">
<title>Node2&#45;&gt;Node3</title>
<path fill="none" stroke="midnightblue" d="M186.01,-660.45C196.4,-652.36 212.63,-639.7 225.23,-629.88"/>
<polygon fill="midnightblue" stroke="midnightblue" points="227.52,-632.53 233.26,-623.63 223.22,-627.01 227.52,-632.53"/>
</g>
<!-- Node28 -->
<g id="node28" class="node">
<title>Node28</title>
<g id="a_node28"><a xlink:href="../../d2/d06/txlogger_8h.html" target="_top" xlink:title=" ">
<polygon fill="none" stroke="black" points="0,-605.5 0,-623.5 59.37,-623.5 59.37,-605.5 0,-605.5"/>
<text text-anchor="middle" x="29.68" y="-611.5" font-family="Helvetica,sans-Serif" font-size="10.00">txlogger.h</text>
</a>
</g>
</g>
<!-- Node2&#45;&gt;Node28 -->
<g id="edge31" class="edge">
<title>Node2&#45;&gt;Node28</title>
<path fill="none" stroke="midnightblue" d="M153.51,-660.45C129.07,-651.58 89.54,-637.23 61.73,-627.13"/>
<polygon fill="midnightblue" stroke="midnightblue" points="62.66,-623.75 52.07,-623.63 60.27,-630.33 62.66,-623.75"/>
</g>
<!-- Node30 -->
<g id="node30" class="node">
<title>Node30</title>
<g id="a_node30"><a xlink:href="../../d5/d08/txparam_8h.html" target="_top" xlink:title=" ">
<polygon fill="none" stroke="black" points="77.45,-605.5 77.45,-623.5 137.92,-623.5 137.92,-605.5 77.45,-605.5"/>
<text text-anchor="middle" x="107.68" y="-611.5" font-family="Helvetica,sans-Serif" font-size="10.00">txparam.h</text>
</a>
</g>
</g>
<!-- Node2&#45;&gt;Node30 -->
<g id="edge34" class="edge">
<title>Node2&#45;&gt;Node30</title>
<path fill="none" stroke="midnightblue" d="M165.36,-660.45C154.97,-652.36 138.74,-639.7 126.14,-629.88"/>
<polygon fill="midnightblue" stroke="midnightblue" points="128.15,-627.01 118.11,-623.63 123.85,-632.53 128.15,-627.01"/>
</g>
<!-- Node4 -->
<g id="node4" class="node">
<title>Node4</title>
<g id="a_node4"><a xlink:href="../../de/d29/txio_8h.html" target="_top" xlink:title=" ">
<polygon fill="none" stroke="black" points="141.57,-550.5 141.57,-568.5 189.8,-568.5 189.8,-550.5 141.57,-550.5"/>
<text text-anchor="middle" x="165.68" y="-556.5" font-family="Helvetica,sans-Serif" font-size="10.00">../txio.h</text>
</a>
</g>
</g>
<!-- Node3&#45;&gt;Node4 -->
<g id="edge3" class="edge">
<title>Node3&#45;&gt;Node4</title>
<path fill="none" stroke="midnightblue" d="M231.84,-605.45C219.7,-597.2 200.59,-584.22 186.02,-574.32"/>
<polygon fill="midnightblue" stroke="midnightblue" points="187.88,-571.35 177.64,-568.63 183.95,-577.14 187.88,-571.35"/>
</g>
<!-- Node27 -->
<g id="node27" class="node">
<title>Node27</title>
<g id="a_node27"><a xlink:href="../../dc/def/txstring_8h.html" target="_top" xlink:title=" ">
<polygon fill="none" stroke="black" points="381.23,-495.5 381.23,-513.5 446.14,-513.5 446.14,-495.5 381.23,-495.5"/>
<text text-anchor="middle" x="413.68" y="-501.5" font-family="Helvetica,sans-Serif" font-size="10.00">../txstring.h</text>
</a>
</g>
</g>
<!-- Node3&#45;&gt;Node27 -->
<g id="edge29" class="edge">
<title>Node3&#45;&gt;Node27</title>
<path fill="none" stroke="midnightblue" d="M244.35,-605.22C245.89,-591.73 250.86,-565 266.68,-550 294.89,-523.27 338.62,-512.55 371.06,-508.28"/>
<polygon fill="midnightblue" stroke="midnightblue" points="371.63,-511.73 381.16,-507.1 370.82,-504.78 371.63,-511.73"/>
</g>
<!-- Node5 -->
<g id="node5" class="node">
<title>Node5</title>
<g id="a_node5"><a xlink:href="../../dd/d74/txbuffer_8h.html" target="_top" xlink:title=" ">
<polygon fill="none" stroke="black" points="401.2,-440.5 401.2,-458.5 458.17,-458.5 458.17,-440.5 401.2,-440.5"/>
<text text-anchor="middle" x="429.68" y="-446.5" font-family="Helvetica,sans-Serif" font-size="10.00">txbuffer.h</text>
</a>
</g>
</g>
<!-- Node4&#45;&gt;Node5 -->
<g id="edge4" class="edge">
<title>Node4&#45;&gt;Node5</title>
<path fill="none" stroke="midnightblue" d="M185.53,-550.38C231.7,-531.49 346.51,-484.53 400.61,-462.4"/>
<polygon fill="midnightblue" stroke="midnightblue" points="402.04,-465.59 409.97,-458.56 399.39,-459.11 402.04,-465.59"/>
</g>
<!-- Node26 -->
<g id="node26" class="node">
<title>Node26</title>
<g id="a_node26"><a xlink:title=" ">
<polygon fill="none" stroke="#bfbfbf" points="73.01,-495.5 73.01,-513.5 122.35,-513.5 122.35,-495.5 73.01,-495.5"/>
<text text-anchor="middle" x="97.68" y="-501.5" font-family="Helvetica,sans-Serif" font-size="10.00">fstream</text>
</a>
</g>
</g>
<!-- Node4&#45;&gt;Node26 -->
<g id="edge28" class="edge">
<title>Node4&#45;&gt;Node26</title>
<path fill="none" stroke="midnightblue" d="M155.36,-550.45C144.97,-542.36 128.74,-529.7 116.14,-519.88"/>
<polygon fill="midnightblue" stroke="midnightblue" points="118.15,-517.01 108.11,-513.63 113.85,-522.53 118.15,-517.01"/>
</g>
<!-- Node6 -->
<g id="node6" class="node">
<title>Node6</title>
<g id="a_node6"><a xlink:href="../../d1/d9e/txid_8h.html" target="_top" xlink:title=" ">
<polygon fill="none" stroke="black" points="410.73,-330.5 410.73,-348.5 450.64,-348.5 450.64,-330.5 410.73,-330.5"/>
<text text-anchor="middle" x="430.68" y="-336.5" font-family="Helvetica,sans-Serif" font-size="10.00">txid.h</text>
</a>
</g>
</g>
<!-- Node5&#45;&gt;Node6 -->
<g id="edge5" class="edge">
<title>Node5&#45;&gt;Node6</title>
<path fill="none" stroke="midnightblue" d="M428.27,-440.28C426.37,-428.19 423.35,-404.86 424.68,-385 425.27,-376.33 426.48,-366.77 427.66,-358.75"/>
<polygon fill="midnightblue" stroke="midnightblue" points="431.15,-359.09 429.25,-348.67 424.24,-358 431.15,-359.09"/>
</g>
<!-- Node16 -->
<g id="node16" class="node">
<title>Node16</title>
<g id="a_node16"><a xlink:href="../../d9/d18/txscaled_8h.html" target="_top" xlink:title=" ">
<polygon fill="none" stroke="black" points="497.17,-385.5 497.17,-403.5 558.2,-403.5 558.2,-385.5 497.17,-385.5"/>
<text text-anchor="middle" x="527.68" y="-391.5" font-family="Helvetica,sans-Serif" font-size="10.00">txscaled.h</text>
</a>
</g>
</g>
<!-- Node5&#45;&gt;Node16 -->
<g id="edge15" class="edge">
<title>Node5&#45;&gt;Node16</title>
<path fill="none" stroke="midnightblue" d="M444.57,-440.45C460.25,-431.97 485.2,-418.48 503.67,-408.49"/>
<polygon fill="midnightblue" stroke="midnightblue" points="505.53,-411.46 512.66,-403.63 502.2,-405.3 505.53,-411.46"/>
</g>
<!-- Node24 -->
<g id="node24" class="node">
<title>Node24</title>
<g id="a_node24"><a xlink:title=" ">
<polygon fill="none" stroke="#bfbfbf" points="433.96,-385.5 433.96,-403.5 479.41,-403.5 479.41,-385.5 433.96,-385.5"/>
<text text-anchor="middle" x="456.68" y="-391.5" font-family="Helvetica,sans-Serif" font-size="10.00">cstring</text>
</a>
</g>
</g>
<!-- Node5&#45;&gt;Node24 -->
<g id="edge26" class="edge">
<title>Node5&#45;&gt;Node24</title>
<path fill="none" stroke="midnightblue" d="M433.9,-440.22C437.65,-432.86 443.25,-421.88 447.95,-412.64"/>
<polygon fill="midnightblue" stroke="midnightblue" points="451.16,-414.05 452.58,-403.55 444.93,-410.87 451.16,-414.05"/>
</g>
<!-- Node25 -->
<g id="node25" class="node">
<title>Node25</title>
<g id="a_node25"><a xlink:title=" ">
<polygon fill="none" stroke="#bfbfbf" points="576.07,-385.5 576.07,-403.5 619.3,-403.5 619.3,-385.5 576.07,-385.5"/>
<text text-anchor="middle" x="597.68" y="-391.5" font-family="Helvetica,sans-Serif" font-size="10.00">vector</text>
</a>
</g>
</g>
<!-- Node5&#45;&gt;Node25 -->
<g id="edge27" class="edge">
<title>Node5&#45;&gt;Node25</title>
<path fill="none" stroke="midnightblue" d="M455.2,-440.45C484.94,-431.07 534.08,-415.57 566.17,-405.44"/>
<polygon fill="midnightblue" stroke="midnightblue" points="567.46,-408.7 575.95,-402.36 565.36,-402.03 567.46,-408.7"/>
</g>
<!-- Node7 -->
<g id="node7" class="node">
<title>Node7</title>
<g id="a_node7"><a xlink:href="../../d5/daf/_istring_8h.html" target="_top" xlink:title=" ">
<polygon fill="none" stroke="black" points="487.45,-275.5 487.45,-293.5 567.92,-293.5 567.92,-275.5 487.45,-275.5"/>
<text text-anchor="middle" x="527.68" y="-281.5" font-family="Helvetica,sans-Serif" font-size="10.00">tralics/Istring.h</text>
</a>
</g>
</g>
<!-- Node6&#45;&gt;Node7 -->
<g id="edge6" class="edge">
<title>Node6&#45;&gt;Node7</title>
<path fill="none" stroke="midnightblue" d="M445.42,-330.45C460.94,-321.97 485.63,-308.48 503.92,-298.49"/>
<polygon fill="midnightblue" stroke="midnightblue" points="505.72,-301.49 512.81,-293.63 502.36,-295.35 505.72,-301.49"/>
</g>
<!-- Node8 -->
<g id="node8" class="node">
<title>Node8</title>
<g id="a_node8"><a xlink:href="../../d0/d0b/enums_8h.html" target="_top" xlink:title=" ">
<polygon fill="none" stroke="black" points="542.51,-165.5 542.51,-183.5 596.86,-183.5 596.86,-165.5 542.51,-165.5"/>
<text text-anchor="middle" x="569.68" y="-171.5" font-family="Helvetica,sans-Serif" font-size="10.00">enums.h</text>
</a>
</g>
</g>
<!-- Node7&#45;&gt;Node8 -->
<g id="edge7" class="edge">
<title>Node7&#45;&gt;Node8</title>
<path fill="none" stroke="midnightblue" d="M533.97,-275.44C540.35,-266.87 550.07,-252.68 555.68,-239 561.72,-224.3 565.35,-206.56 567.39,-193.58"/>
<polygon fill="midnightblue" stroke="midnightblue" points="570.87,-193.98 568.81,-183.59 563.94,-193 570.87,-193.98"/>
</g>
<!-- Node14 -->
<g id="node14" class="node">
<title>Node14</title>
<g id="a_node14"><a xlink:title=" ">
<polygon fill="none" stroke="#bfbfbf" points="508.29,-220.5 508.29,-238.5 547.08,-238.5 547.08,-220.5 508.29,-220.5"/>
<text text-anchor="middle" x="527.68" y="-226.5" font-family="Helvetica,sans-Serif" font-size="10.00">array</text>
</a>
</g>
</g>
<!-- Node7&#45;&gt;Node14 -->
<g id="edge13" class="edge">
<title>Node7&#45;&gt;Node14</title>
<path fill="none" stroke="midnightblue" d="M527.68,-275.22C527.68,-268.18 527.68,-257.81 527.68,-248.83"/>
<polygon fill="midnightblue" stroke="midnightblue" points="531.18,-248.55 527.68,-238.55 524.18,-248.55 531.18,-248.55"/>
</g>
<!-- Node15 -->
<g id="node15" class="node">
<title>Node15</title>
<g id="a_node15"><a xlink:title=" ">
<polygon fill="none" stroke="#bfbfbf" points="612.46,-220.5 612.46,-238.5 652.91,-238.5 652.91,-220.5 612.46,-220.5"/>
<text text-anchor="middle" x="632.68" y="-226.5" font-family="Helvetica,sans-Serif" font-size="10.00">string</text>
</a>
</g>
</g>
<!-- Node7&#45;&gt;Node15 -->
<g id="edge14" class="edge">
<title>Node7&#45;&gt;Node15</title>
<path fill="none" stroke="midnightblue" d="M543.63,-275.45C560.59,-266.89 587.66,-253.23 607.5,-243.21"/>
<polygon fill="midnightblue" stroke="midnightblue" points="609.24,-246.26 616.59,-238.63 606.08,-240.01 609.24,-246.26"/>
</g>
<!-- Node9 -->
<g id="node9" class="node">
<title>Node9</title>
<g id="a_node9"><a xlink:href="../../d8/db5/consts_8h.html" target="_top" xlink:title=" ">
<polygon fill="none" stroke="black" points="538.06,-110.5 538.06,-128.5 591.31,-128.5 591.31,-110.5 538.06,-110.5"/>
<text text-anchor="middle" x="564.68" y="-116.5" font-family="Helvetica,sans-Serif" font-size="10.00">consts.h</text>
</a>
</g>
</g>
<!-- Node8&#45;&gt;Node9 -->
<g id="edge8" class="edge">
<title>Node8&#45;&gt;Node9</title>
<path fill="none" stroke="midnightblue" d="M568.9,-165.22C568.23,-158.1 567.24,-147.58 566.39,-138.53"/>
<polygon fill="midnightblue" stroke="midnightblue" points="569.87,-138.18 565.44,-128.55 562.9,-138.83 569.87,-138.18"/>
</g>
<!-- Node10 -->
<g id="node10" class="node">
<title>Node10</title>
<g id="a_node10"><a xlink:href="../../d9/d49/types_8h.html" target="_top" xlink:title=" ">
<polygon fill="none" stroke="black" points="469.56,-55.5 469.56,-73.5 517.81,-73.5 517.81,-55.5 469.56,-55.5"/>
<text text-anchor="middle" x="493.68" y="-61.5" font-family="Helvetica,sans-Serif" font-size="10.00">types.h</text>
</a>
</g>
</g>
<!-- Node9&#45;&gt;Node10 -->
<g id="edge9" class="edge">
<title>Node9&#45;&gt;Node10</title>
<path fill="none" stroke="midnightblue" d="M553.9,-110.45C543.06,-102.36 526.11,-89.7 512.95,-79.88"/>
<polygon fill="midnightblue" stroke="midnightblue" points="514.68,-76.8 504.57,-73.63 510.49,-82.41 514.68,-76.8"/>
</g>
<!-- Node11 -->
<g id="node11" class="node">
<title>Node11</title>
<g id="a_node11"><a xlink:title=" ">
<polygon fill="none" stroke="#bfbfbf" points="403.57,-0.5 403.57,-18.5 451.8,-18.5 451.8,-0.5 403.57,-0.5"/>
<text text-anchor="middle" x="427.68" y="-6.5" font-family="Helvetica,sans-Serif" font-size="10.00">cassert</text>
</a>
</g>
</g>
<!-- Node10&#45;&gt;Node11 -->
<g id="edge10" class="edge">
<title>Node10&#45;&gt;Node11</title>
<path fill="none" stroke="midnightblue" d="M483.66,-55.45C473.68,-47.43 458.13,-34.95 445.95,-25.17"/>
<polygon fill="midnightblue" stroke="midnightblue" points="447.79,-22.16 437.8,-18.63 443.41,-27.62 447.79,-22.16"/>
</g>
<!-- Node12 -->
<g id="node12" class="node">
<title>Node12</title>
<g id="a_node12"><a xlink:title=" ">
<polygon fill="none" stroke="#bfbfbf" points="469.56,-0.5 469.56,-18.5 517.81,-18.5 517.81,-0.5 469.56,-0.5"/>
<text text-anchor="middle" x="493.68" y="-6.5" font-family="Helvetica,sans-Serif" font-size="10.00">cstddef</text>
</a>
</g>
</g>
<!-- Node10&#45;&gt;Node12 -->
<g id="edge11" class="edge">
<title>Node10&#45;&gt;Node12</title>
<path fill="none" stroke="midnightblue" d="M493.68,-55.22C493.68,-48.18 493.68,-37.81 493.68,-28.83"/>
<polygon fill="midnightblue" stroke="midnightblue" points="497.18,-28.55 493.68,-18.55 490.18,-28.55 497.18,-28.55"/>
</g>
<!-- Node13 -->
<g id="node13" class="node">
<title>Node13</title>
<g id="a_node13"><a xlink:title=" ">
<polygon fill="none" stroke="#bfbfbf" points="535.62,-0.5 535.62,-18.5 597.75,-18.5 597.75,-0.5 535.62,-0.5"/>
<text text-anchor="middle" x="566.68" y="-6.5" font-family="Helvetica,sans-Serif" font-size="10.00">type_traits</text>
</a>
</g>
</g>
<!-- Node10&#45;&gt;Node13 -->
<g id="edge12" class="edge">
<title>Node10&#45;&gt;Node13</title>
<path fill="none" stroke="midnightblue" d="M504.77,-55.45C516.03,-47.28 533.68,-34.46 547.26,-24.6"/>
<polygon fill="midnightblue" stroke="midnightblue" points="549.46,-27.33 555.49,-18.63 545.34,-21.67 549.46,-27.33"/>
</g>
<!-- Node17 -->
<g id="node17" class="node">
<title>Node17</title>
<g id="a_node17"><a xlink:href="../../dc/d91/txtokenlist_8h.html" target="_top" xlink:title=" ">
<polygon fill="none" stroke="black" points="493.28,-330.5 493.28,-348.5 562.09,-348.5 562.09,-330.5 493.28,-330.5"/>
<text text-anchor="middle" x="527.68" y="-336.5" font-family="Helvetica,sans-Serif" font-size="10.00">txtokenlist.h</text>
</a>
</g>
</g>
<!-- Node16&#45;&gt;Node17 -->
<g id="edge16" class="edge">
<title>Node16&#45;&gt;Node17</title>
<path fill="none" stroke="midnightblue" d="M527.68,-385.22C527.68,-378.18 527.68,-367.81 527.68,-358.83"/>
<polygon fill="midnightblue" stroke="midnightblue" points="531.18,-358.55 527.68,-348.55 524.18,-358.55 531.18,-358.55"/>
</g>
<!-- Node17&#45;&gt;Node7 -->
<g id="edge17" class="edge">
<title>Node17&#45;&gt;Node7</title>
<path fill="none" stroke="midnightblue" d="M527.68,-330.22C527.68,-323.18 527.68,-312.81 527.68,-303.83"/>
<polygon fill="midnightblue" stroke="midnightblue" points="531.18,-303.55 527.68,-293.55 524.18,-303.55 531.18,-303.55"/>
</g>
<!-- Node18 -->
<g id="node18" class="node">
<title>Node18</title>
<g id="a_node18"><a xlink:href="../../dd/dcd/_token_8h.html" target="_top" xlink:title=" ">
<polygon fill="none" stroke="black" points="389.73,-275.5 389.73,-293.5 469.64,-293.5 469.64,-275.5 389.73,-275.5"/>
<text text-anchor="middle" x="429.68" y="-281.5" font-family="Helvetica,sans-Serif" font-size="10.00">tralics/Token.h</text>
</a>
</g>
</g>
<!-- Node17&#45;&gt;Node18 -->
<g id="edge18" class="edge">
<title>Node17&#45;&gt;Node18</title>
<path fill="none" stroke="midnightblue" d="M512.8,-330.45C497.12,-321.97 472.17,-308.48 453.7,-298.49"/>
<polygon fill="midnightblue" stroke="midnightblue" points="455.17,-295.3 444.71,-293.63 451.84,-301.46 455.17,-295.3"/>
</g>
<!-- Node23 -->
<g id="node23" class="node">
<title>Node23</title>
<g id="a_node23"><a xlink:title=" ">
<polygon fill="none" stroke="#bfbfbf" points="586.29,-275.5 586.29,-293.5 625.08,-293.5 625.08,-275.5 586.29,-275.5"/>
<text text-anchor="middle" x="605.68" y="-281.5" font-family="Helvetica,sans-Serif" font-size="10.00">utility</text>
</a>
</g>
</g>
<!-- Node17&#45;&gt;Node23 -->
<g id="edge25" class="edge">
<title>Node17&#45;&gt;Node23</title>
<path fill="none" stroke="midnightblue" d="M539.53,-330.45C551.67,-322.2 570.78,-309.22 585.35,-299.32"/>
<polygon fill="midnightblue" stroke="midnightblue" points="587.42,-302.14 593.73,-293.63 583.49,-296.35 587.42,-302.14"/>
</g>
<!-- Node19 -->
<g id="node19" class="node">
<title>Node19</title>
<g id="a_node19"><a xlink:href="../../d2/d68/_cmd_chr_8h.html" target="_top" xlink:title=" ">
<polygon fill="none" stroke="black" points="382.17,-220.5 382.17,-238.5 443.19,-238.5 443.19,-220.5 382.17,-220.5"/>
<text text-anchor="middle" x="412.68" y="-226.5" font-family="Helvetica,sans-Serif" font-size="10.00">CmdChr.h</text>
</a>
</g>
</g>
<!-- Node18&#45;&gt;Node19 -->
<g id="edge19" class="edge">
<title>Node18&#45;&gt;Node19</title>
<path fill="none" stroke="midnightblue" d="M427.03,-275.22C424.72,-268.02 421.3,-257.35 418.37,-248.23"/>
<polygon fill="midnightblue" stroke="midnightblue" points="421.65,-247 415.27,-238.55 414.99,-249.14 421.65,-247"/>
</g>
<!-- Node22 -->
<g id="node22" class="node">
<title>Node22</title>
<g id="a_node22"><a xlink:title=" ">
<polygon fill="none" stroke="#bfbfbf" points="461.18,-220.5 461.18,-238.5 490.18,-238.5 490.18,-220.5 461.18,-220.5"/>
<text text-anchor="middle" x="475.3" y="-226.5" font-family="Helvetica,sans-Serif" font-size="10.00">list</text>
</a>
</g>
</g>
<!-- Node18&#45;&gt;Node22 -->
<g id="edge24" class="edge">
<title>Node18&#45;&gt;Node22</title>
<path fill="none" stroke="midnightblue" d="M436.87,-275.22C443.6,-267.47 453.81,-255.7 462.08,-246.18"/>
<polygon fill="midnightblue" stroke="midnightblue" points="464.79,-248.4 468.7,-238.55 459.5,-243.81 464.79,-248.4"/>
</g>
<!-- Node19&#45;&gt;Node8 -->
<g id="edge23" class="edge">
<title>Node19&#45;&gt;Node8</title>
<path fill="none" stroke="midnightblue" d="M436.53,-220.45C463.12,-211.47 506.32,-196.89 536.27,-186.78"/>
<polygon fill="midnightblue" stroke="midnightblue" points="537.52,-190.05 545.87,-183.54 535.28,-183.42 537.52,-190.05"/>
</g>
<!-- Node20 -->
<g id="node20" class="node">
<title>Node20</title>
<g id="a_node20"><a xlink:href="../../d8/d47/codepoint_8h.html" target="_top" xlink:title=" ">
<polygon fill="none" stroke="black" points="397.83,-165.5 397.83,-183.5 465.54,-183.5 465.54,-165.5 397.83,-165.5"/>
<text text-anchor="middle" x="431.68" y="-171.5" font-family="Helvetica,sans-Serif" font-size="10.00">codepoint.h</text>
</a>
</g>
</g>
<!-- Node19&#45;&gt;Node20 -->
<g id="edge20" class="edge">
<title>Node19&#45;&gt;Node20</title>
<path fill="none" stroke="midnightblue" d="M415.65,-220.22C418.23,-213.02 422.06,-202.35 425.33,-193.23"/>
<polygon fill="midnightblue" stroke="midnightblue" points="428.72,-194.14 428.8,-183.55 422.13,-191.78 428.72,-194.14"/>
</g>
<!-- Node20&#45;&gt;Node10 -->
<g id="edge21" class="edge">
<title>Node20&#45;&gt;Node10</title>
<path fill="none" stroke="midnightblue" d="M432.88,-165.18C434.97,-152.54 440.11,-128.08 450.68,-110 457.18,-98.9 467.01,-88.45 475.63,-80.47"/>
<polygon fill="midnightblue" stroke="midnightblue" points="478.19,-82.87 483.37,-73.63 473.56,-77.62 478.19,-82.87"/>
</g>
<!-- Node21 -->
<g id="node21" class="node">
<title>Node21</title>
<g id="a_node21"><a xlink:title=" ">
<polygon fill="none" stroke="#bfbfbf" points="460.17,-110.5 460.17,-128.5 511.2,-128.5 511.2,-110.5 460.17,-110.5"/>
<text text-anchor="middle" x="485.68" y="-116.5" font-family="Helvetica,sans-Serif" font-size="10.00">optional</text>
</a>
</g>
</g>
<!-- Node20&#45;&gt;Node21 -->
<g id="edge22" class="edge">
<title>Node20&#45;&gt;Node21</title>
<path fill="none" stroke="midnightblue" d="M440.12,-165.22C448.17,-157.32 460.49,-145.22 470.29,-135.61"/>
<polygon fill="midnightblue" stroke="midnightblue" points="472.8,-138.05 477.48,-128.55 467.89,-133.06 472.8,-138.05"/>
</g>
<!-- Node27&#45;&gt;Node5 -->
<g id="edge30" class="edge">
<title>Node27&#45;&gt;Node5</title>
<path fill="none" stroke="midnightblue" d="M416.18,-495.22C418.36,-488.02 421.58,-477.35 424.33,-468.23"/>
<polygon fill="midnightblue" stroke="midnightblue" points="427.72,-469.13 427.25,-458.55 421.01,-467.11 427.72,-469.13"/>
</g>
<!-- Node28&#45;&gt;Node26 -->
<g id="edge32" class="edge">
<title>Node28&#45;&gt;Node26</title>
<path fill="none" stroke="midnightblue" d="M30.73,-605.09C32.63,-592.34 37.52,-567.72 48.68,-550 56.07,-538.27 67.38,-527.71 77.27,-519.83"/>
<polygon fill="midnightblue" stroke="midnightblue" points="79.61,-522.45 85.47,-513.62 75.38,-516.87 79.61,-522.45"/>
</g>
<!-- Node29 -->
<g id="node29" class="node">
<title>Node29</title>
<g id="a_node29"><a xlink:title=" ">
<polygon fill="none" stroke="#bfbfbf" points="57.51,-550.5 57.51,-568.5 111.86,-568.5 111.86,-550.5 57.51,-550.5"/>
<text text-anchor="middle" x="84.68" y="-556.5" font-family="Helvetica,sans-Serif" font-size="10.00">iostream</text>
</a>
</g>
</g>
<!-- Node28&#45;&gt;Node29 -->
<g id="edge33" class="edge">
<title>Node28&#45;&gt;Node29</title>
<path fill="none" stroke="midnightblue" d="M38.28,-605.22C46.48,-597.32 59.03,-585.22 69.01,-575.61"/>
<polygon fill="midnightblue" stroke="midnightblue" points="71.56,-578.01 76.33,-568.55 66.7,-572.97 71.56,-578.01"/>
</g>
<!-- Node30&#45;&gt;Node4 -->
<g id="edge35" class="edge">
<title>Node30&#45;&gt;Node4</title>
<path fill="none" stroke="midnightblue" d="M116.75,-605.22C125.48,-597.24 138.89,-584.98 149.47,-575.32"/>
<polygon fill="midnightblue" stroke="midnightblue" points="151.85,-577.88 156.88,-568.55 147.13,-572.71 151.85,-577.88"/>
</g>
<!-- Node31&#45;&gt;Node4 -->
<g id="edge50" class="edge">
<title>Node31&#45;&gt;Node4</title>
<path fill="none" stroke="midnightblue" d="M419.43,-667.34C357.49,-664.37 219.13,-654.41 184.68,-624 171.89,-612.7 167.54,-593.18 166.15,-578.75"/>
<polygon fill="midnightblue" stroke="midnightblue" points="169.63,-578.31 165.56,-568.53 162.64,-578.71 169.63,-578.31"/>
</g>
<!-- Node32 -->
<g id="node32" class="node">
<title>Node32</title>
<g id="a_node32"><a xlink:href="../../d8/dd6/_e_q_t_b_8h.html" target="_top" xlink:title=" ">
<polygon fill="none" stroke="black" points="504.46,-495.5 504.46,-513.5 584.91,-513.5 584.91,-495.5 504.46,-495.5"/>
<text text-anchor="middle" x="544.68" y="-501.5" font-family="Helvetica,sans-Serif" font-size="10.00">tralics/EQTB.h</text>
</a>
</g>
</g>
<!-- Node31&#45;&gt;Node32 -->
<g id="edge37" class="edge">
<title>Node31&#45;&gt;Node32</title>
<path fill="none" stroke="midnightblue" d="M479.68,-665.21C505.22,-660.64 540.42,-649.78 557.68,-624 578.34,-593.15 563.67,-547.35 553.03,-522.7"/>
<polygon fill="midnightblue" stroke="midnightblue" points="556.18,-521.17 548.84,-513.54 549.82,-524.09 556.18,-521.17"/>
</g>
<!-- Node33 -->
<g id="node33" class="node">
<title>Node33</title>
<g id="a_node33"><a xlink:href="../../d3/d6b/txcond_8h.html" target="_top" xlink:title=" ">
<polygon fill="none" stroke="black" points="570.78,-440.5 570.78,-458.5 624.59,-458.5 624.59,-440.5 570.78,-440.5"/>
<text text-anchor="middle" x="597.68" y="-446.5" font-family="Helvetica,sans-Serif" font-size="10.00">txcond.h</text>
</a>
</g>
</g>
<!-- Node31&#45;&gt;Node33 -->
<g id="edge39" class="edge">
<title>Node31&#45;&gt;Node33</title>
<path fill="none" stroke="midnightblue" d="M479.78,-666.39C508.87,-662.67 551.94,-652.38 575.68,-624 613.32,-579.02 606.69,-503.14 601.16,-468.6"/>
<polygon fill="midnightblue" stroke="midnightblue" points="604.58,-467.81 599.4,-458.57 597.68,-469.03 604.58,-467.81"/>
</g>
<!-- Node34 -->
<g id="node34" class="node">
<title>Node34</title>
<g id="a_node34"><a xlink:href="../../d7/d4d/txfonts_8h.html" target="_top" xlink:title=" ">
<polygon fill="none" stroke="black" points="275.79,-550.5 275.79,-568.5 329.58,-568.5 329.58,-550.5 275.79,-550.5"/>
<text text-anchor="middle" x="302.68" y="-556.5" font-family="Helvetica,sans-Serif" font-size="10.00">txfonts.h</text>
</a>
</g>
</g>
<!-- Node31&#45;&gt;Node34 -->
<g id="edge42" class="edge">
<title>Node31&#45;&gt;Node34</title>
<path fill="none" stroke="midnightblue" d="M419.63,-661.81C396.04,-655.34 363.48,-643.58 340.68,-624 326.24,-611.59 315.78,-592.27 309.54,-578.19"/>
<polygon fill="midnightblue" stroke="midnightblue" points="312.65,-576.55 305.59,-568.65 306.18,-579.23 312.65,-576.55"/>
</g>
<!-- Node35 -->
<g id="node35" class="node">
<title>Node35</title>
<g id="a_node35"><a xlink:href="../../d7/d7e/txhash_8h.html" target="_top" xlink:title=" ">
<polygon fill="none" stroke="black" points="349.78,-605.5 349.78,-623.5 403.59,-623.5 403.59,-605.5 349.78,-605.5"/>
<text text-anchor="middle" x="376.68" y="-611.5" font-family="Helvetica,sans-Serif" font-size="10.00">txhash.h</text>
</a>
</g>
</g>
<!-- Node31&#45;&gt;Node35 -->
<g id="edge44" class="edge">
<title>Node31&#45;&gt;Node35</title>
<path fill="none" stroke="midnightblue" d="M438.6,-660.45C427.34,-652.28 409.69,-639.46 396.1,-629.6"/>
<polygon fill="midnightblue" stroke="midnightblue" points="398.02,-626.67 387.88,-623.63 393.91,-632.33 398.02,-626.67"/>
</g>
<!-- Node37 -->
<g id="node37" class="node">
<title>Node37</title>
<g id="a_node37"><a xlink:href="../../de/d7c/tximage_8h.html" target="_top" xlink:title=" ">
<polygon fill="none" stroke="black" points="603.01,-330.5 603.01,-348.5 662.36,-348.5 662.36,-330.5 603.01,-330.5"/>
<text text-anchor="middle" x="632.68" y="-336.5" font-family="Helvetica,sans-Serif" font-size="10.00">tximage.h</text>
</a>
</g>
</g>
<!-- Node31&#45;&gt;Node37 -->
<g id="edge47" class="edge">
<title>Node31&#45;&gt;Node37</title>
<path fill="none" stroke="midnightblue" d="M480.08,-666.14C536.71,-659.92 652.68,-637.75 652.68,-560.5 652.68,-560.5 652.68,-560.5 652.68,-448.5 652.68,-416.33 644,-379.67 638.08,-358.4"/>
<polygon fill="midnightblue" stroke="midnightblue" points="641.36,-357.16 635.22,-348.53 634.64,-359.11 641.36,-357.16"/>
</g>
<!-- Node38 -->
<g id="node38" class="node">
<title>Node38</title>
<g id="a_node38"><a xlink:href="../../dc/d65/txstack_8h.html" target="_top" xlink:title=" ">
<polygon fill="none" stroke="black" points="421.96,-605.5 421.96,-623.5 477.41,-623.5 477.41,-605.5 421.96,-605.5"/>
<text text-anchor="middle" x="449.68" y="-611.5" font-family="Helvetica,sans-Serif" font-size="10.00">txstack.h</text>
</a>
</g>
</g>
<!-- Node31&#45;&gt;Node38 -->
<g id="edge51" class="edge">
<title>Node31&#45;&gt;Node38</title>
<path fill="none" stroke="midnightblue" d="M449.68,-660.22C449.68,-653.18 449.68,-642.81 449.68,-633.83"/>
<polygon fill="midnightblue" stroke="midnightblue" points="453.18,-633.55 449.68,-623.55 446.18,-633.55 453.18,-633.55"/>
</g>
<!-- Node41 -->
<g id="node41" class="node">
<title>Node41</title>
<g id="a_node41"><a xlink:href="../../d8/d3d/txstats_8h.html" target="_top" xlink:title=" ">
<polygon fill="none" stroke="black" points="495.07,-605.5 495.07,-623.5 548.3,-623.5 548.3,-605.5 495.07,-605.5"/>
<text text-anchor="middle" x="521.68" y="-611.5" font-family="Helvetica,sans-Serif" font-size="10.00">txstats.h</text>
</a>
</g>
</g>
<!-- Node31&#45;&gt;Node41 -->
<g id="edge56" class="edge">
<title>Node31&#45;&gt;Node41</title>
<path fill="none" stroke="midnightblue" d="M460.62,-660.45C471.72,-652.28 489.13,-639.46 502.53,-629.6"/>
<polygon fill="midnightblue" stroke="midnightblue" points="504.67,-632.37 510.65,-623.63 500.52,-626.73 504.67,-632.37"/>
</g>
<!-- Node32&#45;&gt;Node16 -->
<g id="edge38" class="edge">
<title>Node32&#45;&gt;Node16</title>
<path fill="none" stroke="midnightblue" d="M543.41,-495.38C540.7,-478.18 534.33,-437.7 530.58,-413.89"/>
<polygon fill="midnightblue" stroke="midnightblue" points="533.99,-413.05 528.98,-403.71 527.07,-414.13 533.99,-413.05"/>
</g>
<!-- Node33&#45;&gt;Node8 -->
<g id="edge40" class="edge">
<title>Node33&#45;&gt;Node8</title>
<path fill="none" stroke="midnightblue" d="M612.63,-440.29C638.92,-424.62 690.68,-387.76 690.68,-340.5 690.68,-340.5 690.68,-340.5 690.68,-283.5 690.68,-252.47 683.38,-242.18 661.68,-220 646.65,-204.63 625.22,-193.83 606.83,-186.73"/>
<polygon fill="midnightblue" stroke="midnightblue" points="607.86,-183.38 597.27,-183.25 605.47,-189.96 607.86,-183.38"/>
</g>
<!-- Node33&#45;&gt;Node25 -->
<g id="edge41" class="edge">
<title>Node33&#45;&gt;Node25</title>
<path fill="none" stroke="midnightblue" d="M597.68,-440.22C597.68,-433.18 597.68,-422.81 597.68,-413.83"/>
<polygon fill="midnightblue" stroke="midnightblue" points="601.18,-413.55 597.68,-403.55 594.18,-413.55 601.18,-413.55"/>
</g>
<!-- Node34&#45;&gt;Node27 -->
<g id="edge43" class="edge">
<title>Node34&#45;&gt;Node27</title>
<path fill="none" stroke="midnightblue" d="M319.54,-550.45C337.64,-541.81 366.6,-527.98 387.63,-517.94"/>
<polygon fill="midnightblue" stroke="midnightblue" points="389.15,-521.09 396.67,-513.63 386.14,-514.78 389.15,-521.09"/>
</g>
<!-- Node36 -->
<g id="node36" class="node">
<title>Node36</title>
<g id="a_node36"><a xlink:href="../../d3/d01/txeqtb_8h.html" target="_top" xlink:title=" ">
<polygon fill="none" stroke="black" points="347.89,-550.5 347.89,-568.5 399.48,-568.5 399.48,-550.5 347.89,-550.5"/>
<text text-anchor="middle" x="373.68" y="-556.5" font-family="Helvetica,sans-Serif" font-size="10.00">txeqtb.h</text>
</a>
</g>
</g>
<!-- Node35&#45;&gt;Node36 -->
<g id="edge45" class="edge">
<title>Node35&#45;&gt;Node36</title>
<path fill="none" stroke="midnightblue" d="M376.22,-605.22C375.82,-598.18 375.23,-587.81 374.72,-578.83"/>
<polygon fill="midnightblue" stroke="midnightblue" points="378.2,-578.34 374.14,-568.55 371.21,-578.73 378.2,-578.34"/>
</g>
<!-- Node36&#45;&gt;Node27 -->
<g id="edge46" class="edge">
<title>Node36&#45;&gt;Node27</title>
<path fill="none" stroke="midnightblue" d="M379.93,-550.22C385.66,-542.63 394.31,-531.18 401.41,-521.76"/>
<polygon fill="midnightblue" stroke="midnightblue" points="404.38,-523.64 407.61,-513.55 398.79,-519.42 404.38,-523.64"/>
</g>
<!-- Node37&#45;&gt;Node15 -->
<g id="edge48" class="edge">
<title>Node37&#45;&gt;Node15</title>
<path fill="none" stroke="midnightblue" d="M632.96,-330.28C633.32,-318.18 633.91,-294.84 633.68,-275 633.59,-266.39 633.39,-256.84 633.19,-248.8"/>
<polygon fill="midnightblue" stroke="midnightblue" points="636.68,-248.61 632.92,-238.7 629.69,-248.79 636.68,-248.61"/>
</g>
<!-- Node37&#45;&gt;Node23 -->
<g id="edge49" class="edge">
<title>Node37&#45;&gt;Node23</title>
<path fill="none" stroke="midnightblue" d="M628.47,-330.22C624.72,-322.86 619.12,-311.88 614.42,-302.64"/>
<polygon fill="midnightblue" stroke="midnightblue" points="617.44,-300.87 609.79,-293.55 611.21,-304.05 617.44,-300.87"/>
</g>
<!-- Node39 -->
<g id="node39" class="node">
<title>Node39</title>
<g id="a_node39"><a xlink:href="../../d9/d1c/_xml_8h.html" target="_top" xlink:title=" ">
<polygon fill="none" stroke="black" points="478.46,-550.5 478.46,-568.5 548.91,-568.5 548.91,-550.5 478.46,-550.5"/>
<text text-anchor="middle" x="513.68" y="-556.5" font-family="Helvetica,sans-Serif" font-size="10.00">tralics/Xml.h</text>
</a>
</g>
</g>
<!-- Node38&#45;&gt;Node39 -->
<g id="edge52" class="edge">
<title>Node38&#45;&gt;Node39</title>
<path fill="none" stroke="midnightblue" d="M459.4,-605.45C469.08,-597.43 484.16,-584.95 495.97,-575.17"/>
<polygon fill="midnightblue" stroke="midnightblue" points="498.4,-577.7 503.87,-568.63 493.94,-572.31 498.4,-577.7"/>
</g>
<!-- Node40 -->
<g id="node40" class="node">
<title>Node40</title>
<g id="a_node40"><a xlink:href="../../d4/da4/txatt_8h.html" target="_top" xlink:title=" ">
<polygon fill="none" stroke="black" points="417.07,-550.5 417.07,-568.5 460.3,-568.5 460.3,-550.5 417.07,-550.5"/>
<text text-anchor="middle" x="438.68" y="-556.5" font-family="Helvetica,sans-Serif" font-size="10.00">txatt.h</text>
</a>
</g>
</g>
<!-- Node38&#45;&gt;Node40 -->
<g id="edge54" class="edge">
<title>Node38&#45;&gt;Node40</title>
<path fill="none" stroke="midnightblue" d="M447.97,-605.22C446.49,-598.1 444.3,-587.58 442.43,-578.53"/>
<polygon fill="midnightblue" stroke="midnightblue" points="445.81,-577.63 440.36,-568.55 438.96,-579.05 445.81,-577.63"/>
</g>
<!-- Node39&#45;&gt;Node27 -->
<g id="edge53" class="edge">
<title>Node39&#45;&gt;Node27</title>
<path fill="none" stroke="midnightblue" d="M498.5,-550.45C482.42,-541.93 456.8,-528.35 437.93,-518.35"/>
<polygon fill="midnightblue" stroke="midnightblue" points="439.49,-515.22 429.02,-513.63 436.21,-521.4 439.49,-515.22"/>
</g>
<!-- Node40&#45;&gt;Node27 -->
<g id="edge55" class="edge">
<title>Node40&#45;&gt;Node27</title>
<path fill="none" stroke="midnightblue" d="M434.78,-550.22C431.31,-542.86 426.13,-531.88 421.77,-522.64"/>
<polygon fill="midnightblue" stroke="midnightblue" points="424.91,-521.1 417.48,-513.55 418.58,-524.09 424.91,-521.1"/>
</g>
</g>
</svg>
