<?xml version="1.0" encoding="UTF-8" standalone="no"?>
<!DOCTYPE svg PUBLIC "-//W3C//DTD SVG 1.1//EN"
 "http://www.w3.org/Graphics/SVG/1.1/DTD/svg11.dtd">
<!-- Generated by graphviz version 2.42.3 (20191010.1750)
 -->
<!-- Title: txbib.h Pages: 1 -->
<svg width="368pt" height="687pt"
 viewBox="0.00 0.00 367.92 687.00" xmlns="http://www.w3.org/2000/svg" xmlns:xlink="http://www.w3.org/1999/xlink">
<g id="graph0" class="graph" transform="scale(1 1) rotate(0) translate(4 683)">
<title>txbib.h</title>
<!-- Node1 -->
<g id="node1" class="node">
<title>Node1</title>
<g id="a_node1"><a xlink:title=" ">
<polygon fill="#bfbfbf" stroke="black" points="140.01,-660.5 140.01,-678.5 185.48,-678.5 185.48,-660.5 140.01,-660.5"/>
<text text-anchor="middle" x="162.74" y="-666.5" font-family="Helvetica,sans-Serif" font-size="10.00">txbib.h</text>
</a>
</g>
</g>
<!-- Node2 -->
<g id="node2" class="node">
<title>Node2</title>
<g id="a_node2"><a xlink:href="../../d9/d1c/_xml_8h.html" target="_top" xlink:title=" ">
<polygon fill="none" stroke="black" points="87.52,-605.5 87.52,-623.5 157.97,-623.5 157.97,-605.5 87.52,-605.5"/>
<text text-anchor="middle" x="122.74" y="-611.5" font-family="Helvetica,sans-Serif" font-size="10.00">tralics/Xml.h</text>
</a>
</g>
</g>
<!-- Node1&#45;&gt;Node2 -->
<g id="edge1" class="edge">
<title>Node1&#45;&gt;Node2</title>
<path fill="none" stroke="midnightblue" d="M156.49,-660.22C150.77,-652.63 142.12,-641.18 135.02,-631.76"/>
<polygon fill="midnightblue" stroke="midnightblue" points="137.64,-629.42 128.82,-623.55 132.05,-633.64 137.64,-629.42"/>
</g>
<!-- Node25 -->
<g id="node25" class="node">
<title>Node25</title>
<g id="a_node25"><a xlink:href="../../d7/d79/txinline_8h.html" target="_top" xlink:title=" ">
<polygon fill="none" stroke="black" points="200.01,-605.5 200.01,-623.5 255.48,-623.5 255.48,-605.5 200.01,-605.5"/>
<text text-anchor="middle" x="227.74" y="-611.5" font-family="Helvetica,sans-Serif" font-size="10.00">txinline.h</text>
</a>
</g>
</g>
<!-- Node1&#45;&gt;Node25 -->
<g id="edge27" class="edge">
<title>Node1&#45;&gt;Node25</title>
<path fill="none" stroke="midnightblue" d="M172.62,-660.45C182.45,-652.43 197.76,-639.95 209.76,-630.17"/>
<polygon fill="midnightblue" stroke="midnightblue" points="212.24,-632.66 217.78,-623.63 207.82,-627.23 212.24,-632.66"/>
</g>
<!-- Node3 -->
<g id="node3" class="node">
<title>Node3</title>
<g id="a_node3"><a xlink:href="../../dc/def/txstring_8h.html" target="_top" xlink:title=" ">
<polygon fill="none" stroke="black" points="118.29,-495.5 118.29,-513.5 183.2,-513.5 183.2,-495.5 118.29,-495.5"/>
<text text-anchor="middle" x="150.74" y="-501.5" font-family="Helvetica,sans-Serif" font-size="10.00">../txstring.h</text>
</a>
</g>
</g>
<!-- Node2&#45;&gt;Node3 -->
<g id="edge2" class="edge">
<title>Node2&#45;&gt;Node3</title>
<path fill="none" stroke="midnightblue" d="M114.31,-605.2C102.99,-592.99 85.32,-569.53 94.74,-550 101.09,-536.85 113.42,-526.39 124.9,-518.93"/>
<polygon fill="midnightblue" stroke="midnightblue" points="127.02,-521.74 133.79,-513.59 123.41,-515.74 127.02,-521.74"/>
</g>
<!-- Node4 -->
<g id="node4" class="node">
<title>Node4</title>
<g id="a_node4"><a xlink:href="../../dd/d74/txbuffer_8h.html" target="_top" xlink:title=" ">
<polygon fill="none" stroke="black" points="150.26,-440.5 150.26,-458.5 207.23,-458.5 207.23,-440.5 150.26,-440.5"/>
<text text-anchor="middle" x="178.74" y="-446.5" font-family="Helvetica,sans-Serif" font-size="10.00">txbuffer.h</text>
</a>
</g>
</g>
<!-- Node3&#45;&gt;Node4 -->
<g id="edge3" class="edge">
<title>Node3&#45;&gt;Node4</title>
<path fill="none" stroke="midnightblue" d="M155.12,-495.22C159.01,-487.86 164.81,-476.88 169.69,-467.64"/>
<polygon fill="midnightblue" stroke="midnightblue" points="172.92,-469.03 174.49,-458.55 166.73,-465.76 172.92,-469.03"/>
</g>
<!-- Node5 -->
<g id="node5" class="node">
<title>Node5</title>
<g id="a_node5"><a xlink:href="../../d1/d9e/txid_8h.html" target="_top" xlink:title=" ">
<polygon fill="none" stroke="black" points="52.79,-330.5 52.79,-348.5 92.7,-348.5 92.7,-330.5 52.79,-330.5"/>
<text text-anchor="middle" x="72.74" y="-336.5" font-family="Helvetica,sans-Serif" font-size="10.00">txid.h</text>
</a>
</g>
</g>
<!-- Node4&#45;&gt;Node5 -->
<g id="edge4" class="edge">
<title>Node4&#45;&gt;Node5</title>
<path fill="none" stroke="midnightblue" d="M158.4,-440.37C141.93,-432.94 119.03,-420.59 103.74,-404 91.67,-390.9 83.32,-372.24 78.36,-358.53"/>
<polygon fill="midnightblue" stroke="midnightblue" points="81.59,-357.17 75.09,-348.8 74.95,-359.4 81.59,-357.17"/>
</g>
<!-- Node15 -->
<g id="node15" class="node">
<title>Node15</title>
<g id="a_node15"><a xlink:href="../../d9/d18/txscaled_8h.html" target="_top" xlink:title=" ">
<polygon fill="none" stroke="black" points="113.23,-385.5 113.23,-403.5 174.26,-403.5 174.26,-385.5 113.23,-385.5"/>
<text text-anchor="middle" x="143.74" y="-391.5" font-family="Helvetica,sans-Serif" font-size="10.00">txscaled.h</text>
</a>
</g>
</g>
<!-- Node4&#45;&gt;Node15 -->
<g id="edge14" class="edge">
<title>Node4&#45;&gt;Node15</title>
<path fill="none" stroke="midnightblue" d="M173.28,-440.22C168.32,-432.71 160.86,-421.41 154.67,-412.05"/>
<polygon fill="midnightblue" stroke="midnightblue" points="157.49,-409.97 149.06,-403.55 151.65,-413.82 157.49,-409.97"/>
</g>
<!-- Node23 -->
<g id="node23" class="node">
<title>Node23</title>
<g id="a_node23"><a xlink:title=" ">
<polygon fill="none" stroke="#bfbfbf" points="192.02,-385.5 192.02,-403.5 237.47,-403.5 237.47,-385.5 192.02,-385.5"/>
<text text-anchor="middle" x="214.74" y="-391.5" font-family="Helvetica,sans-Serif" font-size="10.00">cstring</text>
</a>
</g>
</g>
<!-- Node4&#45;&gt;Node23 -->
<g id="edge25" class="edge">
<title>Node4&#45;&gt;Node23</title>
<path fill="none" stroke="midnightblue" d="M184.37,-440.22C189.47,-432.71 197.14,-421.41 203.5,-412.05"/>
<polygon fill="midnightblue" stroke="midnightblue" points="206.55,-413.79 209.28,-403.55 200.76,-409.86 206.55,-413.79"/>
</g>
<!-- Node24 -->
<g id="node24" class="node">
<title>Node24</title>
<g id="a_node24"><a xlink:title=" ">
<polygon fill="none" stroke="#bfbfbf" points="255.13,-385.5 255.13,-403.5 298.36,-403.5 298.36,-385.5 255.13,-385.5"/>
<text text-anchor="middle" x="276.74" y="-391.5" font-family="Helvetica,sans-Serif" font-size="10.00">vector</text>
</a>
</g>
</g>
<!-- Node4&#45;&gt;Node24 -->
<g id="edge26" class="edge">
<title>Node4&#45;&gt;Node24</title>
<path fill="none" stroke="midnightblue" d="M193.63,-440.45C209.31,-431.97 234.26,-418.48 252.73,-408.49"/>
<polygon fill="midnightblue" stroke="midnightblue" points="254.59,-411.46 261.72,-403.63 251.26,-405.3 254.59,-411.46"/>
</g>
<!-- Node6 -->
<g id="node6" class="node">
<title>Node6</title>
<g id="a_node6"><a xlink:href="../../d5/daf/_istring_8h.html" target="_top" xlink:title=" ">
<polygon fill="none" stroke="black" points="19.51,-275.5 19.51,-293.5 99.98,-293.5 99.98,-275.5 19.51,-275.5"/>
<text text-anchor="middle" x="59.74" y="-281.5" font-family="Helvetica,sans-Serif" font-size="10.00">tralics/Istring.h</text>
</a>
</g>
</g>
<!-- Node5&#45;&gt;Node6 -->
<g id="edge5" class="edge">
<title>Node5&#45;&gt;Node6</title>
<path fill="none" stroke="midnightblue" d="M70.71,-330.22C68.97,-323.1 66.39,-312.58 64.17,-303.53"/>
<polygon fill="midnightblue" stroke="midnightblue" points="67.5,-302.43 61.72,-293.55 60.7,-304.1 67.5,-302.43"/>
</g>
<!-- Node7 -->
<g id="node7" class="node">
<title>Node7</title>
<g id="a_node7"><a xlink:href="../../d0/d0b/enums_8h.html" target="_top" xlink:title=" ">
<polygon fill="none" stroke="black" points="36.57,-165.5 36.57,-183.5 90.92,-183.5 90.92,-165.5 36.57,-165.5"/>
<text text-anchor="middle" x="63.74" y="-171.5" font-family="Helvetica,sans-Serif" font-size="10.00">enums.h</text>
</a>
</g>
</g>
<!-- Node6&#45;&gt;Node7 -->
<g id="edge6" class="edge">
<title>Node6&#45;&gt;Node7</title>
<path fill="none" stroke="midnightblue" d="M42.71,-275.39C21.95,-264.3 -9,-243.11 2.74,-220 9.72,-206.27 23.14,-195.77 35.62,-188.43"/>
<polygon fill="midnightblue" stroke="midnightblue" points="37.32,-191.49 44.44,-183.64 33.98,-185.34 37.32,-191.49"/>
</g>
<!-- Node13 -->
<g id="node13" class="node">
<title>Node13</title>
<g id="a_node13"><a xlink:title=" ">
<polygon fill="none" stroke="#bfbfbf" points="11.35,-220.5 11.35,-238.5 50.14,-238.5 50.14,-220.5 11.35,-220.5"/>
<text text-anchor="middle" x="30.74" y="-226.5" font-family="Helvetica,sans-Serif" font-size="10.00">array</text>
</a>
</g>
</g>
<!-- Node6&#45;&gt;Node13 -->
<g id="edge12" class="edge">
<title>Node6&#45;&gt;Node13</title>
<path fill="none" stroke="midnightblue" d="M55.21,-275.22C51.15,-267.79 45.05,-256.65 39.96,-247.34"/>
<polygon fill="midnightblue" stroke="midnightblue" points="43.02,-245.64 35.15,-238.55 36.88,-249 43.02,-245.64"/>
</g>
<!-- Node14 -->
<g id="node14" class="node">
<title>Node14</title>
<g id="a_node14"><a xlink:title=" ">
<polygon fill="none" stroke="#bfbfbf" points="68.52,-220.5 68.52,-238.5 108.97,-238.5 108.97,-220.5 68.52,-220.5"/>
<text text-anchor="middle" x="88.74" y="-226.5" font-family="Helvetica,sans-Serif" font-size="10.00">string</text>
</a>
</g>
</g>
<!-- Node6&#45;&gt;Node14 -->
<g id="edge13" class="edge">
<title>Node6&#45;&gt;Node14</title>
<path fill="none" stroke="midnightblue" d="M64.28,-275.22C68.34,-267.79 74.44,-256.65 79.53,-247.34"/>
<polygon fill="midnightblue" stroke="midnightblue" points="82.61,-249 84.34,-238.55 76.47,-245.64 82.61,-249"/>
</g>
<!-- Node8 -->
<g id="node8" class="node">
<title>Node8</title>
<g id="a_node8"><a xlink:href="../../d8/db5/consts_8h.html" target="_top" xlink:title=" ">
<polygon fill="none" stroke="black" points="37.12,-110.5 37.12,-128.5 90.37,-128.5 90.37,-110.5 37.12,-110.5"/>
<text text-anchor="middle" x="63.74" y="-116.5" font-family="Helvetica,sans-Serif" font-size="10.00">consts.h</text>
</a>
</g>
</g>
<!-- Node7&#45;&gt;Node8 -->
<g id="edge7" class="edge">
<title>Node7&#45;&gt;Node8</title>
<path fill="none" stroke="midnightblue" d="M63.74,-165.22C63.74,-158.18 63.74,-147.81 63.74,-138.83"/>
<polygon fill="midnightblue" stroke="midnightblue" points="67.24,-138.55 63.74,-128.55 60.24,-138.55 67.24,-138.55"/>
</g>
<!-- Node9 -->
<g id="node9" class="node">
<title>Node9</title>
<g id="a_node9"><a xlink:href="../../d9/d49/types_8h.html" target="_top" xlink:title=" ">
<polygon fill="none" stroke="black" points="66.62,-55.5 66.62,-73.5 114.87,-73.5 114.87,-55.5 66.62,-55.5"/>
<text text-anchor="middle" x="90.74" y="-61.5" font-family="Helvetica,sans-Serif" font-size="10.00">types.h</text>
</a>
</g>
</g>
<!-- Node8&#45;&gt;Node9 -->
<g id="edge8" class="edge">
<title>Node8&#45;&gt;Node9</title>
<path fill="none" stroke="midnightblue" d="M67.96,-110.22C71.71,-102.86 77.31,-91.88 82.01,-82.64"/>
<polygon fill="midnightblue" stroke="midnightblue" points="85.22,-84.05 86.64,-73.55 78.99,-80.87 85.22,-84.05"/>
</g>
<!-- Node10 -->
<g id="node10" class="node">
<title>Node10</title>
<g id="a_node10"><a xlink:title=" ">
<polygon fill="none" stroke="#bfbfbf" points="0.63,-0.5 0.63,-18.5 48.86,-18.5 48.86,-0.5 0.63,-0.5"/>
<text text-anchor="middle" x="24.74" y="-6.5" font-family="Helvetica,sans-Serif" font-size="10.00">cassert</text>
</a>
</g>
</g>
<!-- Node9&#45;&gt;Node10 -->
<g id="edge9" class="edge">
<title>Node9&#45;&gt;Node10</title>
<path fill="none" stroke="midnightblue" d="M80.72,-55.45C70.74,-47.43 55.19,-34.95 43.01,-25.17"/>
<polygon fill="midnightblue" stroke="midnightblue" points="44.85,-22.16 34.86,-18.63 40.47,-27.62 44.85,-22.16"/>
</g>
<!-- Node11 -->
<g id="node11" class="node">
<title>Node11</title>
<g id="a_node11"><a xlink:title=" ">
<polygon fill="none" stroke="#bfbfbf" points="66.62,-0.5 66.62,-18.5 114.87,-18.5 114.87,-0.5 66.62,-0.5"/>
<text text-anchor="middle" x="90.74" y="-6.5" font-family="Helvetica,sans-Serif" font-size="10.00">cstddef</text>
</a>
</g>
</g>
<!-- Node9&#45;&gt;Node11 -->
<g id="edge10" class="edge">
<title>Node9&#45;&gt;Node11</title>
<path fill="none" stroke="midnightblue" d="M90.74,-55.22C90.74,-48.18 90.74,-37.81 90.74,-28.83"/>
<polygon fill="midnightblue" stroke="midnightblue" points="94.24,-28.55 90.74,-18.55 87.24,-28.55 94.24,-28.55"/>
</g>
<!-- Node12 -->
<g id="node12" class="node">
<title>Node12</title>
<g id="a_node12"><a xlink:title=" ">
<polygon fill="none" stroke="#bfbfbf" points="132.68,-0.5 132.68,-18.5 194.81,-18.5 194.81,-0.5 132.68,-0.5"/>
<text text-anchor="middle" x="163.74" y="-6.5" font-family="Helvetica,sans-Serif" font-size="10.00">type_traits</text>
</a>
</g>
</g>
<!-- Node9&#45;&gt;Node12 -->
<g id="edge11" class="edge">
<title>Node9&#45;&gt;Node12</title>
<path fill="none" stroke="midnightblue" d="M101.83,-55.45C113.09,-47.28 130.74,-34.46 144.32,-24.6"/>
<polygon fill="midnightblue" stroke="midnightblue" points="146.52,-27.33 152.55,-18.63 142.4,-21.67 146.52,-27.33"/>
</g>
<!-- Node16 -->
<g id="node16" class="node">
<title>Node16</title>
<g id="a_node16"><a xlink:href="../../dc/d91/txtokenlist_8h.html" target="_top" xlink:title=" ">
<polygon fill="none" stroke="black" points="116.34,-330.5 116.34,-348.5 185.15,-348.5 185.15,-330.5 116.34,-330.5"/>
<text text-anchor="middle" x="150.74" y="-336.5" font-family="Helvetica,sans-Serif" font-size="10.00">txtokenlist.h</text>
</a>
</g>
</g>
<!-- Node15&#45;&gt;Node16 -->
<g id="edge15" class="edge">
<title>Node15&#45;&gt;Node16</title>
<path fill="none" stroke="midnightblue" d="M144.84,-385.22C145.78,-378.1 147.17,-367.58 148.36,-358.53"/>
<polygon fill="midnightblue" stroke="midnightblue" points="151.84,-358.92 149.68,-348.55 144.9,-358.01 151.84,-358.92"/>
</g>
<!-- Node16&#45;&gt;Node6 -->
<g id="edge16" class="edge">
<title>Node16&#45;&gt;Node6</title>
<path fill="none" stroke="midnightblue" d="M136.92,-330.45C122.49,-322.05 99.62,-308.72 82.51,-298.76"/>
<polygon fill="midnightblue" stroke="midnightblue" points="84.1,-295.63 73.7,-293.63 80.58,-301.68 84.1,-295.63"/>
</g>
<!-- Node17 -->
<g id="node17" class="node">
<title>Node17</title>
<g id="a_node17"><a xlink:href="../../dd/dcd/_token_8h.html" target="_top" xlink:title=" ">
<polygon fill="none" stroke="black" points="117.79,-275.5 117.79,-293.5 197.7,-293.5 197.7,-275.5 117.79,-275.5"/>
<text text-anchor="middle" x="157.74" y="-281.5" font-family="Helvetica,sans-Serif" font-size="10.00">tralics/Token.h</text>
</a>
</g>
</g>
<!-- Node16&#45;&gt;Node17 -->
<g id="edge17" class="edge">
<title>Node16&#45;&gt;Node17</title>
<path fill="none" stroke="midnightblue" d="M151.84,-330.22C152.78,-323.1 154.17,-312.58 155.36,-303.53"/>
<polygon fill="midnightblue" stroke="midnightblue" points="158.84,-303.92 156.68,-293.55 151.9,-303.01 158.84,-303.92"/>
</g>
<!-- Node22 -->
<g id="node22" class="node">
<title>Node22</title>
<g id="a_node22"><a xlink:title=" ">
<polygon fill="none" stroke="#bfbfbf" points="215.35,-275.5 215.35,-293.5 254.14,-293.5 254.14,-275.5 215.35,-275.5"/>
<text text-anchor="middle" x="234.74" y="-281.5" font-family="Helvetica,sans-Serif" font-size="10.00">utility</text>
</a>
</g>
</g>
<!-- Node16&#45;&gt;Node22 -->
<g id="edge24" class="edge">
<title>Node16&#45;&gt;Node22</title>
<path fill="none" stroke="midnightblue" d="M163.5,-330.45C176.7,-322.12 197.55,-308.97 213.29,-299.04"/>
<polygon fill="midnightblue" stroke="midnightblue" points="215.28,-301.92 221.87,-293.63 211.54,-296 215.28,-301.92"/>
</g>
<!-- Node18 -->
<g id="node18" class="node">
<title>Node18</title>
<g id="a_node18"><a xlink:href="../../d2/d68/_cmd_chr_8h.html" target="_top" xlink:title=" ">
<polygon fill="none" stroke="black" points="127.23,-220.5 127.23,-238.5 188.25,-238.5 188.25,-220.5 127.23,-220.5"/>
<text text-anchor="middle" x="157.74" y="-226.5" font-family="Helvetica,sans-Serif" font-size="10.00">CmdChr.h</text>
</a>
</g>
</g>
<!-- Node17&#45;&gt;Node18 -->
<g id="edge18" class="edge">
<title>Node17&#45;&gt;Node18</title>
<path fill="none" stroke="midnightblue" d="M157.74,-275.22C157.74,-268.18 157.74,-257.81 157.74,-248.83"/>
<polygon fill="midnightblue" stroke="midnightblue" points="161.24,-248.55 157.74,-238.55 154.24,-248.55 161.24,-248.55"/>
</g>
<!-- Node21 -->
<g id="node21" class="node">
<title>Node21</title>
<g id="a_node21"><a xlink:title=" ">
<polygon fill="none" stroke="#bfbfbf" points="206.24,-220.5 206.24,-238.5 235.24,-238.5 235.24,-220.5 206.24,-220.5"/>
<text text-anchor="middle" x="220.36" y="-226.5" font-family="Helvetica,sans-Serif" font-size="10.00">list</text>
</a>
</g>
</g>
<!-- Node17&#45;&gt;Node21 -->
<g id="edge23" class="edge">
<title>Node17&#45;&gt;Node21</title>
<path fill="none" stroke="midnightblue" d="M167.31,-275.45C176.84,-267.43 191.68,-254.95 203.31,-245.17"/>
<polygon fill="midnightblue" stroke="midnightblue" points="205.69,-247.74 211.09,-238.63 201.18,-242.38 205.69,-247.74"/>
</g>
<!-- Node18&#45;&gt;Node7 -->
<g id="edge22" class="edge">
<title>Node18&#45;&gt;Node7</title>
<path fill="none" stroke="midnightblue" d="M143.47,-220.45C128.56,-212.05 104.93,-198.72 87.27,-188.76"/>
<polygon fill="midnightblue" stroke="midnightblue" points="88.59,-185.49 78.16,-183.63 85.15,-191.59 88.59,-185.49"/>
</g>
<!-- Node19 -->
<g id="node19" class="node">
<title>Node19</title>
<g id="a_node19"><a xlink:href="../../d8/d47/codepoint_8h.html" target="_top" xlink:title=" ">
<polygon fill="none" stroke="black" points="123.89,-165.5 123.89,-183.5 191.6,-183.5 191.6,-165.5 123.89,-165.5"/>
<text text-anchor="middle" x="157.74" y="-171.5" font-family="Helvetica,sans-Serif" font-size="10.00">codepoint.h</text>
</a>
</g>
</g>
<!-- Node18&#45;&gt;Node19 -->
<g id="edge19" class="edge">
<title>Node18&#45;&gt;Node19</title>
<path fill="none" stroke="midnightblue" d="M157.74,-220.22C157.74,-213.18 157.74,-202.81 157.74,-193.83"/>
<polygon fill="midnightblue" stroke="midnightblue" points="161.24,-193.55 157.74,-183.55 154.24,-193.55 161.24,-193.55"/>
</g>
<!-- Node19&#45;&gt;Node9 -->
<g id="edge20" class="edge">
<title>Node19&#45;&gt;Node9</title>
<path fill="none" stroke="midnightblue" d="M152.71,-165.38C141.8,-147.79 115.77,-105.85 101.16,-82.29"/>
<polygon fill="midnightblue" stroke="midnightblue" points="104.08,-80.36 95.84,-73.71 98.14,-84.05 104.08,-80.36"/>
</g>
<!-- Node20 -->
<g id="node20" class="node">
<title>Node20</title>
<g id="a_node20"><a xlink:title=" ">
<polygon fill="none" stroke="#bfbfbf" points="147.23,-110.5 147.23,-128.5 198.26,-128.5 198.26,-110.5 147.23,-110.5"/>
<text text-anchor="middle" x="172.74" y="-116.5" font-family="Helvetica,sans-Serif" font-size="10.00">optional</text>
</a>
</g>
</g>
<!-- Node19&#45;&gt;Node20 -->
<g id="edge21" class="edge">
<title>Node19&#45;&gt;Node20</title>
<path fill="none" stroke="midnightblue" d="M160.09,-165.22C162.13,-158.02 165.15,-147.35 167.73,-138.23"/>
<polygon fill="midnightblue" stroke="midnightblue" points="171.11,-139.12 170.47,-128.55 164.38,-137.22 171.11,-139.12"/>
</g>
<!-- Node26 -->
<g id="node26" class="node">
<title>Node26</title>
<g id="a_node26"><a xlink:href="../../d4/de9/_main_class_8h.html" target="_top" xlink:title=" ">
<polygon fill="none" stroke="black" points="103.79,-550.5 103.79,-568.5 203.7,-568.5 203.7,-550.5 103.79,-550.5"/>
<text text-anchor="middle" x="153.74" y="-556.5" font-family="Helvetica,sans-Serif" font-size="10.00">tralics/MainClass.h</text>
</a>
</g>
</g>
<!-- Node25&#45;&gt;Node26 -->
<g id="edge28" class="edge">
<title>Node25&#45;&gt;Node26</title>
<path fill="none" stroke="midnightblue" d="M216.51,-605.45C205.1,-597.28 187.2,-584.46 173.43,-574.6"/>
<polygon fill="midnightblue" stroke="midnightblue" points="175.26,-571.6 165.09,-568.63 171.18,-577.29 175.26,-571.6"/>
</g>
<!-- Node29 -->
<g id="node29" class="node">
<title>Node29</title>
<g id="a_node29"><a xlink:href="../../d2/d06/txlogger_8h.html" target="_top" xlink:title=" ">
<polygon fill="none" stroke="black" points="300.06,-550.5 300.06,-568.5 359.43,-568.5 359.43,-550.5 300.06,-550.5"/>
<text text-anchor="middle" x="329.74" y="-556.5" font-family="Helvetica,sans-Serif" font-size="10.00">txlogger.h</text>
</a>
</g>
</g>
<!-- Node25&#45;&gt;Node29 -->
<g id="edge33" class="edge">
<title>Node25&#45;&gt;Node29</title>
<path fill="none" stroke="midnightblue" d="M243.24,-605.45C259.64,-596.93 285.76,-583.35 305.02,-573.35"/>
<polygon fill="midnightblue" stroke="midnightblue" points="306.85,-576.34 314.11,-568.63 303.62,-570.13 306.85,-576.34"/>
</g>
<!-- Node31 -->
<g id="node31" class="node">
<title>Node31</title>
<g id="a_node31"><a xlink:href="../../d5/d08/txparam_8h.html" target="_top" xlink:title=" ">
<polygon fill="none" stroke="black" points="221.51,-550.5 221.51,-568.5 281.98,-568.5 281.98,-550.5 221.51,-550.5"/>
<text text-anchor="middle" x="251.74" y="-556.5" font-family="Helvetica,sans-Serif" font-size="10.00">txparam.h</text>
</a>
</g>
</g>
<!-- Node25&#45;&gt;Node31 -->
<g id="edge36" class="edge">
<title>Node25&#45;&gt;Node31</title>
<path fill="none" stroke="midnightblue" d="M231.49,-605.22C234.79,-597.94 239.69,-587.11 243.85,-577.93"/>
<polygon fill="midnightblue" stroke="midnightblue" points="247.16,-579.1 248.1,-568.55 240.79,-576.22 247.16,-579.1"/>
</g>
<!-- Node26&#45;&gt;Node3 -->
<g id="edge32" class="edge">
<title>Node26&#45;&gt;Node3</title>
<path fill="none" stroke="midnightblue" d="M153.28,-550.22C152.88,-543.18 152.29,-532.81 151.78,-523.83"/>
<polygon fill="midnightblue" stroke="midnightblue" points="155.26,-523.34 151.2,-513.55 148.27,-523.73 155.26,-523.34"/>
</g>
<!-- Node27 -->
<g id="node27" class="node">
<title>Node27</title>
<g id="a_node27"><a xlink:href="../../de/d29/txio_8h.html" target="_top" xlink:title=" ">
<polygon fill="none" stroke="black" points="201.63,-495.5 201.63,-513.5 249.86,-513.5 249.86,-495.5 201.63,-495.5"/>
<text text-anchor="middle" x="225.74" y="-501.5" font-family="Helvetica,sans-Serif" font-size="10.00">../txio.h</text>
</a>
</g>
</g>
<!-- Node26&#45;&gt;Node27 -->
<g id="edge29" class="edge">
<title>Node26&#45;&gt;Node27</title>
<path fill="none" stroke="midnightblue" d="M164.68,-550.45C175.78,-542.28 193.19,-529.46 206.59,-519.6"/>
<polygon fill="midnightblue" stroke="midnightblue" points="208.73,-522.37 214.71,-513.63 204.58,-516.73 208.73,-522.37"/>
</g>
<!-- Node27&#45;&gt;Node4 -->
<g id="edge30" class="edge">
<title>Node27&#45;&gt;Node4</title>
<path fill="none" stroke="midnightblue" d="M218.4,-495.22C211.53,-487.47 201.09,-475.7 192.65,-466.18"/>
<polygon fill="midnightblue" stroke="midnightblue" points="195.14,-463.71 185.88,-458.55 189.9,-468.35 195.14,-463.71"/>
</g>
<!-- Node28 -->
<g id="node28" class="node">
<title>Node28</title>
<g id="a_node28"><a xlink:title=" ">
<polygon fill="none" stroke="#bfbfbf" points="227.07,-440.5 227.07,-458.5 276.41,-458.5 276.41,-440.5 227.07,-440.5"/>
<text text-anchor="middle" x="251.74" y="-446.5" font-family="Helvetica,sans-Serif" font-size="10.00">fstream</text>
</a>
</g>
</g>
<!-- Node27&#45;&gt;Node28 -->
<g id="edge31" class="edge">
<title>Node27&#45;&gt;Node28</title>
<path fill="none" stroke="midnightblue" d="M229.81,-495.22C233.42,-487.86 238.8,-476.88 243.34,-467.64"/>
<polygon fill="midnightblue" stroke="midnightblue" points="246.53,-469.07 247.8,-458.55 240.25,-465.99 246.53,-469.07"/>
</g>
<!-- Node29&#45;&gt;Node28 -->
<g id="edge34" class="edge">
<title>Node29&#45;&gt;Node28</title>
<path fill="none" stroke="midnightblue" d="M323.61,-550.34C316.94,-541.44 306,-526.77 296.74,-514 285.26,-498.15 272.36,-479.91 263.33,-467.06"/>
<polygon fill="midnightblue" stroke="midnightblue" points="266.12,-464.94 257.51,-458.76 260.39,-468.96 266.12,-464.94"/>
</g>
<!-- Node30 -->
<g id="node30" class="node">
<title>Node30</title>
<g id="a_node30"><a xlink:title=" ">
<polygon fill="none" stroke="#bfbfbf" points="305.57,-495.5 305.57,-513.5 359.92,-513.5 359.92,-495.5 305.57,-495.5"/>
<text text-anchor="middle" x="332.74" y="-501.5" font-family="Helvetica,sans-Serif" font-size="10.00">iostream</text>
</a>
</g>
</g>
<!-- Node29&#45;&gt;Node30 -->
<g id="edge35" class="edge">
<title>Node29&#45;&gt;Node30</title>
<path fill="none" stroke="midnightblue" d="M330.21,-550.22C330.61,-543.18 331.2,-532.81 331.71,-523.83"/>
<polygon fill="midnightblue" stroke="midnightblue" points="335.22,-523.73 332.29,-513.55 328.23,-523.34 335.22,-523.73"/>
</g>
<!-- Node31&#45;&gt;Node27 -->
<g id="edge37" class="edge">
<title>Node31&#45;&gt;Node27</title>
<path fill="none" stroke="midnightblue" d="M247.68,-550.22C244.07,-542.86 238.69,-531.88 234.15,-522.64"/>
<polygon fill="midnightblue" stroke="midnightblue" points="237.24,-520.99 229.69,-513.55 230.96,-524.07 237.24,-520.99"/>
</g>
</g>
</svg>
