<?xml version="1.0" encoding="UTF-8" standalone="no"?>
<!DOCTYPE svg PUBLIC "-//W3C//DTD SVG 1.1//EN"
 "http://www.w3.org/Graphics/SVG/1.1/DTD/svg11.dtd">
<!-- Generated by graphviz version 2.42.3 (20191010.1750)
 -->
<!-- Title: txbib.h Pages: 1 -->
<svg width="498pt" height="687pt"
 viewBox="0.00 0.00 498.40 687.00" xmlns="http://www.w3.org/2000/svg" xmlns:xlink="http://www.w3.org/1999/xlink">
<g id="graph0" class="graph" transform="scale(1 1) rotate(0) translate(4 683)">
<title>txbib.h</title>
<!-- Node1 -->
<g id="node1" class="node">
<title>Node1</title>
<g id="a_node1"><a xlink:title=" ">
<polygon fill="#bfbfbf" stroke="black" points="89.44,-660.5 89.44,-678.5 134.9,-678.5 134.9,-660.5 89.44,-660.5"/>
<text text-anchor="middle" x="112.17" y="-666.5" font-family="Helvetica,sans-Serif" font-size="10.00">txbib.h</text>
</a>
</g>
</g>
<!-- Node2 -->
<g id="node2" class="node">
<title>Node2</title>
<g id="a_node2"><a xlink:href="../../d9/d1c/_xml_8h.html" target="_top" xlink:title=" ">
<polygon fill="none" stroke="black" points="36.95,-605.5 36.95,-623.5 107.4,-623.5 107.4,-605.5 36.95,-605.5"/>
<text text-anchor="middle" x="72.17" y="-611.5" font-family="Helvetica,sans-Serif" font-size="10.00">tralics/Xml.h</text>
</a>
</g>
</g>
<!-- Node1&#45;&gt;Node2 -->
<g id="edge1" class="edge">
<title>Node1&#45;&gt;Node2</title>
<path fill="none" stroke="midnightblue" d="M105.92,-660.22C100.19,-652.63 91.55,-641.18 84.44,-631.76"/>
<polygon fill="midnightblue" stroke="midnightblue" points="87.07,-629.42 78.25,-623.55 81.48,-633.64 87.07,-629.42"/>
</g>
<!-- Node28 -->
<g id="node28" class="node">
<title>Node28</title>
<g id="a_node28"><a xlink:href="../../d7/d79/txinline_8h.html" target="_top" xlink:title=" ">
<polygon fill="none" stroke="black" points="172.44,-605.5 172.44,-623.5 227.91,-623.5 227.91,-605.5 172.44,-605.5"/>
<text text-anchor="middle" x="200.17" y="-611.5" font-family="Helvetica,sans-Serif" font-size="10.00">txinline.h</text>
</a>
</g>
</g>
<!-- Node1&#45;&gt;Node28 -->
<g id="edge33" class="edge">
<title>Node1&#45;&gt;Node28</title>
<path fill="none" stroke="midnightblue" d="M125.54,-660.45C139.36,-652.12 161.2,-638.97 177.69,-629.04"/>
<polygon fill="midnightblue" stroke="midnightblue" points="179.92,-631.78 186.68,-623.63 176.31,-625.79 179.92,-631.78"/>
</g>
<!-- Node3 -->
<g id="node3" class="node">
<title>Node3</title>
<g id="a_node3"><a xlink:href="../../d7/d1b/_buffer_8h.html" target="_top" xlink:title=" ">
<polygon fill="none" stroke="black" points="97.02,-440.5 97.02,-458.5 147.32,-458.5 147.32,-440.5 97.02,-440.5"/>
<text text-anchor="middle" x="122.17" y="-446.5" font-family="Helvetica,sans-Serif" font-size="10.00">Buffer.h</text>
</a>
</g>
</g>
<!-- Node2&#45;&gt;Node3 -->
<g id="edge2" class="edge">
<title>Node2&#45;&gt;Node3</title>
<path fill="none" stroke="midnightblue" d="M74.6,-605.27C78.19,-593.16 85.12,-569.81 91.17,-550 99.91,-521.38 110.3,-488.22 116.55,-468.32"/>
<polygon fill="midnightblue" stroke="midnightblue" points="119.9,-469.34 119.57,-458.75 113.23,-467.23 119.9,-469.34"/>
</g>
<!-- Node27 -->
<g id="node27" class="node">
<title>Node27</title>
<g id="a_node27"><a xlink:title=" ">
<polygon fill="none" stroke="#bfbfbf" points="0,-550.5 0,-568.5 44.34,-568.5 44.34,-550.5 0,-550.5"/>
<text text-anchor="middle" x="22.17" y="-556.5" font-family="Helvetica,sans-Serif" font-size="10.00">gsl/gsl</text>
</a>
</g>
</g>
<!-- Node2&#45;&gt;Node27 -->
<g id="edge32" class="edge">
<title>Node2&#45;&gt;Node27</title>
<path fill="none" stroke="midnightblue" d="M64.36,-605.22C56.98,-597.39 45.72,-585.46 36.69,-575.89"/>
<polygon fill="midnightblue" stroke="midnightblue" points="39.17,-573.42 29.77,-568.55 34.08,-578.23 39.17,-573.42"/>
</g>
<!-- Node4 -->
<g id="node4" class="node">
<title>Node4</title>
<g id="a_node4"><a xlink:href="../../d1/d9e/txid_8h.html" target="_top" xlink:title=" ">
<polygon fill="none" stroke="black" points="274.05,-385.5 274.05,-403.5 322.29,-403.5 322.29,-385.5 274.05,-385.5"/>
<text text-anchor="middle" x="298.17" y="-391.5" font-family="Helvetica,sans-Serif" font-size="10.00">../txid.h</text>
</a>
</g>
</g>
<!-- Node3&#45;&gt;Node4 -->
<g id="edge3" class="edge">
<title>Node3&#45;&gt;Node4</title>
<path fill="none" stroke="midnightblue" d="M147.39,-440.91C177.97,-431.7 229.65,-416.13 263.84,-405.84"/>
<polygon fill="midnightblue" stroke="midnightblue" points="265.29,-409.06 273.85,-402.82 263.27,-402.36 265.29,-409.06"/>
</g>
<!-- Node18 -->
<g id="node18" class="node">
<title>Node18</title>
<g id="a_node18"><a xlink:href="../../d9/d18/txscaled_8h.html" target="_top" xlink:title=" ">
<polygon fill="none" stroke="black" points="185.49,-385.5 185.49,-403.5 254.85,-403.5 254.85,-385.5 185.49,-385.5"/>
<text text-anchor="middle" x="220.17" y="-391.5" font-family="Helvetica,sans-Serif" font-size="10.00">../txscaled.h</text>
</a>
</g>
</g>
<!-- Node3&#45;&gt;Node18 -->
<g id="edge20" class="edge">
<title>Node3&#45;&gt;Node18</title>
<path fill="none" stroke="midnightblue" d="M137.06,-440.45C152.74,-431.97 177.69,-418.48 196.16,-408.49"/>
<polygon fill="midnightblue" stroke="midnightblue" points="198.02,-411.46 205.15,-403.63 194.69,-405.3 198.02,-411.46"/>
</g>
<!-- Node26 -->
<g id="node26" class="node">
<title>Node26</title>
<g id="a_node26"><a xlink:title=" ">
<polygon fill="none" stroke="#bfbfbf" points="99.45,-385.5 99.45,-403.5 144.9,-403.5 144.9,-385.5 99.45,-385.5"/>
<text text-anchor="middle" x="122.17" y="-391.5" font-family="Helvetica,sans-Serif" font-size="10.00">cstring</text>
</a>
</g>
</g>
<!-- Node3&#45;&gt;Node26 -->
<g id="edge31" class="edge">
<title>Node3&#45;&gt;Node26</title>
<path fill="none" stroke="midnightblue" d="M122.17,-440.22C122.17,-433.18 122.17,-422.81 122.17,-413.83"/>
<polygon fill="midnightblue" stroke="midnightblue" points="125.67,-413.55 122.17,-403.55 118.67,-413.55 125.67,-413.55"/>
</g>
<!-- Node5 -->
<g id="node5" class="node">
<title>Node5</title>
<g id="a_node5"><a xlink:href="../../d5/daf/_istring_8h.html" target="_top" xlink:title=" ">
<polygon fill="none" stroke="black" points="257.94,-275.5 257.94,-293.5 338.4,-293.5 338.4,-275.5 257.94,-275.5"/>
<text text-anchor="middle" x="298.17" y="-281.5" font-family="Helvetica,sans-Serif" font-size="10.00">tralics/Istring.h</text>
</a>
</g>
</g>
<!-- Node4&#45;&gt;Node5 -->
<g id="edge4" class="edge">
<title>Node4&#45;&gt;Node5</title>
<path fill="none" stroke="midnightblue" d="M298.17,-385.38C298.17,-368.18 298.17,-327.7 298.17,-303.89"/>
<polygon fill="midnightblue" stroke="midnightblue" points="301.67,-303.71 298.17,-293.71 294.67,-303.71 301.67,-303.71"/>
</g>
<!-- Node6 -->
<g id="node6" class="node">
<title>Node6</title>
<g id="a_node6"><a xlink:href="../../dd/d47/_str_hash_8h.html" target="_top" xlink:title=" ">
<polygon fill="none" stroke="black" points="329.94,-220.5 329.94,-238.5 390.4,-238.5 390.4,-220.5 329.94,-220.5"/>
<text text-anchor="middle" x="360.17" y="-226.5" font-family="Helvetica,sans-Serif" font-size="10.00">StrHash.h</text>
</a>
</g>
</g>
<!-- Node5&#45;&gt;Node6 -->
<g id="edge5" class="edge">
<title>Node5&#45;&gt;Node6</title>
<path fill="none" stroke="midnightblue" d="M307.59,-275.45C316.97,-267.43 331.57,-254.95 343.02,-245.17"/>
<polygon fill="midnightblue" stroke="midnightblue" points="345.34,-247.78 350.67,-238.63 340.79,-242.46 345.34,-247.78"/>
</g>
<!-- Node15 -->
<g id="node15" class="node">
<title>Node15</title>
<g id="a_node15"><a xlink:href="../../d0/d0b/enums_8h.html" target="_top" xlink:title=" ">
<polygon fill="none" stroke="black" points="174,-165.5 174,-183.5 228.35,-183.5 228.35,-165.5 174,-165.5"/>
<text text-anchor="middle" x="201.17" y="-171.5" font-family="Helvetica,sans-Serif" font-size="10.00">enums.h</text>
</a>
</g>
</g>
<!-- Node5&#45;&gt;Node15 -->
<g id="edge14" class="edge">
<title>Node5&#45;&gt;Node15</title>
<path fill="none" stroke="midnightblue" d="M290.88,-275.38C274.87,-257.56 236.4,-214.72 215.41,-191.36"/>
<polygon fill="midnightblue" stroke="midnightblue" points="217.83,-188.81 208.55,-183.71 212.63,-193.49 217.83,-188.81"/>
</g>
<!-- Node16 -->
<g id="node16" class="node">
<title>Node16</title>
<g id="a_node16"><a xlink:href="../../d8/d3c/util_8h.html" target="_top" xlink:title=" ">
<polygon fill="none" stroke="black" points="408.61,-220.5 408.61,-238.5 445.73,-238.5 445.73,-220.5 408.61,-220.5"/>
<text text-anchor="middle" x="427.17" y="-226.5" font-family="Helvetica,sans-Serif" font-size="10.00">util.h</text>
</a>
</g>
</g>
<!-- Node5&#45;&gt;Node16 -->
<g id="edge16" class="edge">
<title>Node5&#45;&gt;Node16</title>
<path fill="none" stroke="midnightblue" d="M317.76,-275.45C339.32,-266.59 374.17,-252.28 398.73,-242.18"/>
<polygon fill="midnightblue" stroke="midnightblue" points="400.32,-245.32 408.24,-238.28 397.66,-238.84 400.32,-245.32"/>
</g>
<!-- Node17 -->
<g id="node17" class="node">
<title>Node17</title>
<g id="a_node17"><a xlink:title=" ">
<polygon fill="none" stroke="#bfbfbf" points="272.78,-220.5 272.78,-238.5 311.56,-238.5 311.56,-220.5 272.78,-220.5"/>
<text text-anchor="middle" x="292.17" y="-226.5" font-family="Helvetica,sans-Serif" font-size="10.00">array</text>
</a>
</g>
</g>
<!-- Node5&#45;&gt;Node17 -->
<g id="edge19" class="edge">
<title>Node5&#45;&gt;Node17</title>
<path fill="none" stroke="midnightblue" d="M297.23,-275.22C296.43,-268.1 295.24,-257.58 294.21,-248.53"/>
<polygon fill="midnightblue" stroke="midnightblue" points="297.69,-248.09 293.08,-238.55 290.73,-248.88 297.69,-248.09"/>
</g>
<!-- Node7 -->
<g id="node7" class="node">
<title>Node7</title>
<g id="a_node7"><a xlink:href="../../d8/db5/consts_8h.html" target="_top" xlink:title=" ">
<polygon fill="none" stroke="black" points="189.55,-110.5 189.55,-128.5 242.79,-128.5 242.79,-110.5 189.55,-110.5"/>
<text text-anchor="middle" x="216.17" y="-116.5" font-family="Helvetica,sans-Serif" font-size="10.00">consts.h</text>
</a>
</g>
</g>
<!-- Node6&#45;&gt;Node7 -->
<g id="edge6" class="edge">
<title>Node6&#45;&gt;Node7</title>
<path fill="none" stroke="midnightblue" d="M359.99,-220.33C359.26,-207.01 355.91,-180.52 341.17,-165 318.1,-140.71 280.9,-129.66 253.08,-124.64"/>
<polygon fill="midnightblue" stroke="midnightblue" points="253.35,-121.14 242.92,-123 252.23,-128.05 253.35,-121.14"/>
</g>
<!-- Node12 -->
<g id="node12" class="node">
<title>Node12</title>
<g id="a_node12"><a xlink:title=" ">
<polygon fill="none" stroke="#bfbfbf" points="449.95,-165.5 449.95,-183.5 490.4,-183.5 490.4,-165.5 449.95,-165.5"/>
<text text-anchor="middle" x="470.17" y="-171.5" font-family="Helvetica,sans-Serif" font-size="10.00">string</text>
</a>
</g>
</g>
<!-- Node6&#45;&gt;Node12 -->
<g id="edge11" class="edge">
<title>Node6&#45;&gt;Node12</title>
<path fill="none" stroke="midnightblue" d="M376.88,-220.45C394.73,-211.85 423.26,-198.1 444.07,-188.08"/>
<polygon fill="midnightblue" stroke="midnightblue" points="445.82,-191.12 453.31,-183.63 442.78,-184.81 445.82,-191.12"/>
</g>
<!-- Node13 -->
<g id="node13" class="node">
<title>Node13</title>
<g id="a_node13"><a xlink:title=" ">
<polygon fill="none" stroke="#bfbfbf" points="245.87,-165.5 245.87,-183.5 332.48,-183.5 332.48,-165.5 245.87,-165.5"/>
<text text-anchor="middle" x="289.17" y="-171.5" font-family="Helvetica,sans-Serif" font-size="10.00">unordered_map</text>
</a>
</g>
</g>
<!-- Node6&#45;&gt;Node13 -->
<g id="edge12" class="edge">
<title>Node6&#45;&gt;Node13</title>
<path fill="none" stroke="midnightblue" d="M349.39,-220.45C338.55,-212.36 321.6,-199.7 308.44,-189.88"/>
<polygon fill="midnightblue" stroke="midnightblue" points="310.16,-186.8 300.06,-183.63 305.98,-192.41 310.16,-186.8"/>
</g>
<!-- Node14 -->
<g id="node14" class="node">
<title>Node14</title>
<g id="a_node14"><a xlink:title=" ">
<polygon fill="none" stroke="#bfbfbf" points="388.56,-165.5 388.56,-183.5 431.79,-183.5 431.79,-165.5 388.56,-165.5"/>
<text text-anchor="middle" x="410.17" y="-171.5" font-family="Helvetica,sans-Serif" font-size="10.00">vector</text>
</a>
</g>
</g>
<!-- Node6&#45;&gt;Node14 -->
<g id="edge13" class="edge">
<title>Node6&#45;&gt;Node14</title>
<path fill="none" stroke="midnightblue" d="M367.98,-220.22C375.37,-212.39 386.62,-200.46 395.65,-190.89"/>
<polygon fill="midnightblue" stroke="midnightblue" points="398.26,-193.23 402.58,-183.55 393.17,-188.42 398.26,-193.23"/>
</g>
<!-- Node8 -->
<g id="node8" class="node">
<title>Node8</title>
<g id="a_node8"><a xlink:href="../../d9/d49/types_8h.html" target="_top" xlink:title=" ">
<polygon fill="none" stroke="black" points="164.05,-55.5 164.05,-73.5 212.29,-73.5 212.29,-55.5 164.05,-55.5"/>
<text text-anchor="middle" x="188.17" y="-61.5" font-family="Helvetica,sans-Serif" font-size="10.00">types.h</text>
</a>
</g>
</g>
<!-- Node7&#45;&gt;Node8 -->
<g id="edge7" class="edge">
<title>Node7&#45;&gt;Node8</title>
<path fill="none" stroke="midnightblue" d="M211.8,-110.22C207.91,-102.86 202.11,-91.88 197.23,-82.64"/>
<polygon fill="midnightblue" stroke="midnightblue" points="200.19,-80.76 192.42,-73.55 194,-84.03 200.19,-80.76"/>
</g>
<!-- Node9 -->
<g id="node9" class="node">
<title>Node9</title>
<g id="a_node9"><a xlink:title=" ">
<polygon fill="none" stroke="#bfbfbf" points="98.06,-0.5 98.06,-18.5 146.29,-18.5 146.29,-0.5 98.06,-0.5"/>
<text text-anchor="middle" x="122.17" y="-6.5" font-family="Helvetica,sans-Serif" font-size="10.00">cassert</text>
</a>
</g>
</g>
<!-- Node8&#45;&gt;Node9 -->
<g id="edge8" class="edge">
<title>Node8&#45;&gt;Node9</title>
<path fill="none" stroke="midnightblue" d="M178.15,-55.45C168.17,-47.43 152.62,-34.95 140.44,-25.17"/>
<polygon fill="midnightblue" stroke="midnightblue" points="142.28,-22.16 132.29,-18.63 137.9,-27.62 142.28,-22.16"/>
</g>
<!-- Node10 -->
<g id="node10" class="node">
<title>Node10</title>
<g id="a_node10"><a xlink:title=" ">
<polygon fill="none" stroke="#bfbfbf" points="164.05,-0.5 164.05,-18.5 212.29,-18.5 212.29,-0.5 164.05,-0.5"/>
<text text-anchor="middle" x="188.17" y="-6.5" font-family="Helvetica,sans-Serif" font-size="10.00">cstddef</text>
</a>
</g>
</g>
<!-- Node8&#45;&gt;Node10 -->
<g id="edge9" class="edge">
<title>Node8&#45;&gt;Node10</title>
<path fill="none" stroke="midnightblue" d="M188.17,-55.22C188.17,-48.18 188.17,-37.81 188.17,-28.83"/>
<polygon fill="midnightblue" stroke="midnightblue" points="191.67,-28.55 188.17,-18.55 184.67,-28.55 191.67,-28.55"/>
</g>
<!-- Node11 -->
<g id="node11" class="node">
<title>Node11</title>
<g id="a_node11"><a xlink:title=" ">
<polygon fill="none" stroke="#bfbfbf" points="230.11,-0.5 230.11,-18.5 292.24,-18.5 292.24,-0.5 230.11,-0.5"/>
<text text-anchor="middle" x="261.17" y="-6.5" font-family="Helvetica,sans-Serif" font-size="10.00">type_traits</text>
</a>
</g>
</g>
<!-- Node8&#45;&gt;Node11 -->
<g id="edge10" class="edge">
<title>Node8&#45;&gt;Node11</title>
<path fill="none" stroke="midnightblue" d="M199.26,-55.45C210.51,-47.28 228.17,-34.46 241.75,-24.6"/>
<polygon fill="midnightblue" stroke="midnightblue" points="243.95,-27.33 249.98,-18.63 239.83,-21.67 243.95,-27.33"/>
</g>
<!-- Node15&#45;&gt;Node7 -->
<g id="edge15" class="edge">
<title>Node15&#45;&gt;Node7</title>
<path fill="none" stroke="midnightblue" d="M203.52,-165.22C205.55,-158.02 208.57,-147.35 211.15,-138.23"/>
<polygon fill="midnightblue" stroke="midnightblue" points="214.54,-139.12 213.89,-128.55 207.8,-137.22 214.54,-139.12"/>
</g>
<!-- Node16&#45;&gt;Node12 -->
<g id="edge17" class="edge">
<title>Node16&#45;&gt;Node12</title>
<path fill="none" stroke="midnightblue" d="M433.89,-220.22C440.11,-212.55 449.53,-200.94 457.22,-191.47"/>
<polygon fill="midnightblue" stroke="midnightblue" points="460.06,-193.52 463.64,-183.55 454.62,-189.11 460.06,-193.52"/>
</g>
<!-- Node16&#45;&gt;Node14 -->
<g id="edge18" class="edge">
<title>Node16&#45;&gt;Node14</title>
<path fill="none" stroke="midnightblue" d="M424.52,-220.22C422.21,-213.02 418.78,-202.35 415.86,-193.23"/>
<polygon fill="midnightblue" stroke="midnightblue" points="419.14,-192 412.75,-183.55 412.48,-194.14 419.14,-192"/>
</g>
<!-- Node19 -->
<g id="node19" class="node">
<title>Node19</title>
<g id="a_node19"><a xlink:href="../../dc/d91/txtokenlist_8h.html" target="_top" xlink:title=" ">
<polygon fill="none" stroke="black" points="185.77,-330.5 185.77,-348.5 254.57,-348.5 254.57,-330.5 185.77,-330.5"/>
<text text-anchor="middle" x="220.17" y="-336.5" font-family="Helvetica,sans-Serif" font-size="10.00">txtokenlist.h</text>
</a>
</g>
</g>
<!-- Node18&#45;&gt;Node19 -->
<g id="edge21" class="edge">
<title>Node18&#45;&gt;Node19</title>
<path fill="none" stroke="midnightblue" d="M220.17,-385.22C220.17,-378.18 220.17,-367.81 220.17,-358.83"/>
<polygon fill="midnightblue" stroke="midnightblue" points="223.67,-358.55 220.17,-348.55 216.67,-358.55 223.67,-358.55"/>
</g>
<!-- Node19&#45;&gt;Node5 -->
<g id="edge22" class="edge">
<title>Node19&#45;&gt;Node5</title>
<path fill="none" stroke="midnightblue" d="M232.02,-330.45C244.16,-322.2 263.27,-309.22 277.84,-299.32"/>
<polygon fill="midnightblue" stroke="midnightblue" points="279.91,-302.14 286.21,-293.63 275.98,-296.35 279.91,-302.14"/>
</g>
<!-- Node20 -->
<g id="node20" class="node">
<title>Node20</title>
<g id="a_node20"><a xlink:href="../../dd/dcd/_token_8h.html" target="_top" xlink:title=" ">
<polygon fill="none" stroke="black" points="103.21,-275.5 103.21,-293.5 183.13,-293.5 183.13,-275.5 103.21,-275.5"/>
<text text-anchor="middle" x="143.17" y="-281.5" font-family="Helvetica,sans-Serif" font-size="10.00">tralics/Token.h</text>
</a>
</g>
</g>
<!-- Node19&#45;&gt;Node20 -->
<g id="edge23" class="edge">
<title>Node19&#45;&gt;Node20</title>
<path fill="none" stroke="midnightblue" d="M208.48,-330.45C196.49,-322.2 177.63,-309.22 163.25,-299.32"/>
<polygon fill="midnightblue" stroke="midnightblue" points="165.2,-296.41 154.98,-293.63 161.23,-302.18 165.2,-296.41"/>
</g>
<!-- Node25 -->
<g id="node25" class="node">
<title>Node25</title>
<g id="a_node25"><a xlink:title=" ">
<polygon fill="none" stroke="#bfbfbf" points="200.78,-275.5 200.78,-293.5 239.56,-293.5 239.56,-275.5 200.78,-275.5"/>
<text text-anchor="middle" x="220.17" y="-281.5" font-family="Helvetica,sans-Serif" font-size="10.00">utility</text>
</a>
</g>
</g>
<!-- Node19&#45;&gt;Node25 -->
<g id="edge30" class="edge">
<title>Node19&#45;&gt;Node25</title>
<path fill="none" stroke="midnightblue" d="M220.17,-330.22C220.17,-323.18 220.17,-312.81 220.17,-303.83"/>
<polygon fill="midnightblue" stroke="midnightblue" points="223.67,-303.55 220.17,-293.55 216.67,-303.55 223.67,-303.55"/>
</g>
<!-- Node21 -->
<g id="node21" class="node">
<title>Node21</title>
<g id="a_node21"><a xlink:href="../../d2/d68/_cmd_chr_8h.html" target="_top" xlink:title=" ">
<polygon fill="none" stroke="black" points="119.66,-220.5 119.66,-238.5 180.68,-238.5 180.68,-220.5 119.66,-220.5"/>
<text text-anchor="middle" x="150.17" y="-226.5" font-family="Helvetica,sans-Serif" font-size="10.00">CmdChr.h</text>
</a>
</g>
</g>
<!-- Node20&#45;&gt;Node21 -->
<g id="edge24" class="edge">
<title>Node20&#45;&gt;Node21</title>
<path fill="none" stroke="midnightblue" d="M144.27,-275.22C145.21,-268.1 146.6,-257.58 147.79,-248.53"/>
<polygon fill="midnightblue" stroke="midnightblue" points="151.27,-248.92 149.11,-238.55 144.33,-248.01 151.27,-248.92"/>
</g>
<!-- Node24 -->
<g id="node24" class="node">
<title>Node24</title>
<g id="a_node24"><a xlink:title=" ">
<polygon fill="none" stroke="#bfbfbf" points="72.67,-220.5 72.67,-238.5 101.67,-238.5 101.67,-220.5 72.67,-220.5"/>
<text text-anchor="middle" x="86.78" y="-226.5" font-family="Helvetica,sans-Serif" font-size="10.00">list</text>
</a>
</g>
</g>
<!-- Node20&#45;&gt;Node24 -->
<g id="edge29" class="edge">
<title>Node20&#45;&gt;Node24</title>
<path fill="none" stroke="midnightblue" d="M134.42,-275.22C126.07,-267.32 113.3,-255.22 103.13,-245.61"/>
<polygon fill="midnightblue" stroke="midnightblue" points="105.35,-242.88 95.68,-238.55 100.53,-247.97 105.35,-242.88"/>
</g>
<!-- Node21&#45;&gt;Node15 -->
<g id="edge28" class="edge">
<title>Node21&#45;&gt;Node15</title>
<path fill="none" stroke="midnightblue" d="M158.14,-220.22C165.67,-212.39 177.15,-200.46 186.36,-190.89"/>
<polygon fill="midnightblue" stroke="midnightblue" points="189.01,-193.18 193.43,-183.55 183.97,-188.33 189.01,-193.18"/>
</g>
<!-- Node22 -->
<g id="node22" class="node">
<title>Node22</title>
<g id="a_node22"><a xlink:href="../../d8/d47/codepoint_8h.html" target="_top" xlink:title=" ">
<polygon fill="none" stroke="black" points="88.32,-165.5 88.32,-183.5 156.03,-183.5 156.03,-165.5 88.32,-165.5"/>
<text text-anchor="middle" x="122.17" y="-171.5" font-family="Helvetica,sans-Serif" font-size="10.00">codepoint.h</text>
</a>
</g>
</g>
<!-- Node21&#45;&gt;Node22 -->
<g id="edge25" class="edge">
<title>Node21&#45;&gt;Node22</title>
<path fill="none" stroke="midnightblue" d="M145.8,-220.22C141.91,-212.86 136.11,-201.88 131.23,-192.64"/>
<polygon fill="midnightblue" stroke="midnightblue" points="134.19,-190.76 126.42,-183.55 128,-194.03 134.19,-190.76"/>
</g>
<!-- Node22&#45;&gt;Node8 -->
<g id="edge26" class="edge">
<title>Node22&#45;&gt;Node8</title>
<path fill="none" stroke="midnightblue" d="M127.13,-165.38C137.88,-147.79 163.52,-105.85 177.91,-82.29"/>
<polygon fill="midnightblue" stroke="midnightblue" points="180.93,-84.07 183.15,-73.71 174.95,-80.42 180.93,-84.07"/>
</g>
<!-- Node23 -->
<g id="node23" class="node">
<title>Node23</title>
<g id="a_node23"><a xlink:title=" ">
<polygon fill="none" stroke="#bfbfbf" points="81.66,-110.5 81.66,-128.5 132.69,-128.5 132.69,-110.5 81.66,-110.5"/>
<text text-anchor="middle" x="107.17" y="-116.5" font-family="Helvetica,sans-Serif" font-size="10.00">optional</text>
</a>
</g>
</g>
<!-- Node22&#45;&gt;Node23 -->
<g id="edge27" class="edge">
<title>Node22&#45;&gt;Node23</title>
<path fill="none" stroke="midnightblue" d="M119.83,-165.22C117.79,-158.02 114.77,-147.35 112.19,-138.23"/>
<polygon fill="midnightblue" stroke="midnightblue" points="115.54,-137.22 109.45,-128.55 108.81,-139.12 115.54,-137.22"/>
</g>
<!-- Node29 -->
<g id="node29" class="node">
<title>Node29</title>
<g id="a_node29"><a xlink:href="../../d4/de9/_main_class_8h.html" target="_top" xlink:title=" ">
<polygon fill="none" stroke="black" points="100.22,-550.5 100.22,-568.5 200.13,-568.5 200.13,-550.5 100.22,-550.5"/>
<text text-anchor="middle" x="150.17" y="-556.5" font-family="Helvetica,sans-Serif" font-size="10.00">tralics/MainClass.h</text>
</a>
</g>
</g>
<!-- Node28&#45;&gt;Node29 -->
<g id="edge34" class="edge">
<title>Node28&#45;&gt;Node29</title>
<path fill="none" stroke="midnightblue" d="M192.36,-605.22C184.98,-597.39 173.72,-585.46 164.69,-575.89"/>
<polygon fill="midnightblue" stroke="midnightblue" points="167.17,-573.42 157.77,-568.55 162.08,-578.23 167.17,-573.42"/>
</g>
<!-- Node32 -->
<g id="node32" class="node">
<title>Node32</title>
<g id="a_node32"><a xlink:href="../../d2/d06/txlogger_8h.html" target="_top" xlink:title=" ">
<polygon fill="none" stroke="black" points="245.49,-495.5 245.49,-513.5 304.86,-513.5 304.86,-495.5 245.49,-495.5"/>
<text text-anchor="middle" x="275.17" y="-501.5" font-family="Helvetica,sans-Serif" font-size="10.00">txlogger.h</text>
</a>
</g>
</g>
<!-- Node28&#45;&gt;Node32 -->
<g id="edge38" class="edge">
<title>Node28&#45;&gt;Node32</title>
<path fill="none" stroke="midnightblue" d="M228.24,-607.37C248.49,-601.32 274.42,-589.84 287.17,-569 295.76,-554.97 290.57,-536.18 284.57,-522.68"/>
<polygon fill="midnightblue" stroke="midnightblue" points="287.63,-520.96 280.04,-513.56 281.36,-524.08 287.63,-520.96"/>
</g>
<!-- Node34 -->
<g id="node34" class="node">
<title>Node34</title>
<g id="a_node34"><a xlink:href="../../d5/d08/txparam_8h.html" target="_top" xlink:title=" ">
<polygon fill="none" stroke="black" points="217.94,-550.5 217.94,-568.5 278.4,-568.5 278.4,-550.5 217.94,-550.5"/>
<text text-anchor="middle" x="248.17" y="-556.5" font-family="Helvetica,sans-Serif" font-size="10.00">txparam.h</text>
</a>
</g>
</g>
<!-- Node28&#45;&gt;Node34 -->
<g id="edge44" class="edge">
<title>Node28&#45;&gt;Node34</title>
<path fill="none" stroke="midnightblue" d="M207.67,-605.22C214.69,-597.47 225.35,-585.7 233.97,-576.18"/>
<polygon fill="midnightblue" stroke="midnightblue" points="236.76,-578.31 240.88,-568.55 231.58,-573.61 236.76,-578.31"/>
</g>
<!-- Node30 -->
<g id="node30" class="node">
<title>Node30</title>
<g id="a_node30"><a xlink:href="../../de/d29/txio_8h.html" target="_top" xlink:title=" ">
<polygon fill="none" stroke="black" points="157.05,-495.5 157.05,-513.5 205.29,-513.5 205.29,-495.5 157.05,-495.5"/>
<text text-anchor="middle" x="181.17" y="-501.5" font-family="Helvetica,sans-Serif" font-size="10.00">../txio.h</text>
</a>
</g>
</g>
<!-- Node29&#45;&gt;Node30 -->
<g id="edge35" class="edge">
<title>Node29&#45;&gt;Node30</title>
<path fill="none" stroke="midnightblue" d="M155.02,-550.22C159.36,-542.79 165.88,-531.65 171.32,-522.34"/>
<polygon fill="midnightblue" stroke="midnightblue" points="174.44,-523.95 176.46,-513.55 168.39,-520.41 174.44,-523.95"/>
</g>
<!-- Node30&#45;&gt;Node3 -->
<g id="edge36" class="edge">
<title>Node30&#45;&gt;Node3</title>
<path fill="none" stroke="midnightblue" d="M172.21,-495.45C163.37,-487.51 149.66,-475.19 138.82,-465.45"/>
<polygon fill="midnightblue" stroke="midnightblue" points="141,-462.7 131.22,-458.63 136.32,-467.91 141,-462.7"/>
</g>
<!-- Node31 -->
<g id="node31" class="node">
<title>Node31</title>
<g id="a_node31"><a xlink:title=" ">
<polygon fill="none" stroke="#bfbfbf" points="165.5,-440.5 165.5,-458.5 214.84,-458.5 214.84,-440.5 165.5,-440.5"/>
<text text-anchor="middle" x="190.17" y="-446.5" font-family="Helvetica,sans-Serif" font-size="10.00">fstream</text>
</a>
</g>
</g>
<!-- Node30&#45;&gt;Node31 -->
<g id="edge37" class="edge">
<title>Node30&#45;&gt;Node31</title>
<path fill="none" stroke="midnightblue" d="M182.58,-495.22C183.79,-488.1 185.57,-477.58 187.11,-468.53"/>
<polygon fill="midnightblue" stroke="midnightblue" points="190.58,-468.99 188.81,-458.55 183.68,-467.82 190.58,-468.99"/>
</g>
<!-- Node32&#45;&gt;Node3 -->
<g id="edge39" class="edge">
<title>Node32&#45;&gt;Node3</title>
<path fill="none" stroke="midnightblue" d="M251.93,-495.45C226.21,-486.54 184.54,-472.1 155.37,-462"/>
<polygon fill="midnightblue" stroke="midnightblue" points="156.22,-458.59 145.63,-458.63 153.93,-465.21 156.22,-458.59"/>
</g>
<!-- Node32&#45;&gt;Node4 -->
<g id="edge40" class="edge">
<title>Node32&#45;&gt;Node4</title>
<path fill="none" stroke="midnightblue" d="M293.29,-495.5C307.31,-488.21 325.7,-476 334.17,-459 342.6,-442.09 329.01,-423.35 316.18,-410.63"/>
<polygon fill="midnightblue" stroke="midnightblue" points="318.23,-407.76 308.5,-403.57 313.49,-412.91 318.23,-407.76"/>
</g>
<!-- Node32&#45;&gt;Node18 -->
<g id="edge41" class="edge">
<title>Node32&#45;&gt;Node18</title>
<path fill="none" stroke="midnightblue" d="M271.04,-495.38C262.16,-477.95 241.1,-436.59 229.04,-412.92"/>
<polygon fill="midnightblue" stroke="midnightblue" points="232.01,-411.03 224.35,-403.71 225.77,-414.21 232.01,-411.03"/>
</g>
<!-- Node32&#45;&gt;Node31 -->
<g id="edge42" class="edge">
<title>Node32&#45;&gt;Node31</title>
<path fill="none" stroke="midnightblue" d="M262.26,-495.45C248.91,-487.12 227.81,-473.97 211.89,-464.04"/>
<polygon fill="midnightblue" stroke="midnightblue" points="213.54,-460.95 203.2,-458.63 209.84,-466.89 213.54,-460.95"/>
</g>
<!-- Node33 -->
<g id="node33" class="node">
<title>Node33</title>
<g id="a_node33"><a xlink:title=" ">
<polygon fill="none" stroke="#bfbfbf" points="271,-440.5 271,-458.5 325.34,-458.5 325.34,-440.5 271,-440.5"/>
<text text-anchor="middle" x="298.17" y="-446.5" font-family="Helvetica,sans-Serif" font-size="10.00">iostream</text>
</a>
</g>
</g>
<!-- Node32&#45;&gt;Node33 -->
<g id="edge43" class="edge">
<title>Node32&#45;&gt;Node33</title>
<path fill="none" stroke="midnightblue" d="M278.77,-495.22C281.92,-487.94 286.62,-477.11 290.61,-467.93"/>
<polygon fill="midnightblue" stroke="midnightblue" points="293.91,-469.12 294.68,-458.55 287.49,-466.33 293.91,-469.12"/>
</g>
<!-- Node34&#45;&gt;Node30 -->
<g id="edge45" class="edge">
<title>Node34&#45;&gt;Node30</title>
<path fill="none" stroke="midnightblue" d="M238,-550.45C227.76,-542.36 211.77,-529.7 199.35,-519.88"/>
<polygon fill="midnightblue" stroke="midnightblue" points="201.46,-517.08 191.44,-513.63 197.12,-522.57 201.46,-517.08"/>
</g>
</g>
</svg>
