<?xml version="1.0" encoding="UTF-8" standalone="no"?>
<!DOCTYPE svg PUBLIC "-//W3C//DTD SVG 1.1//EN"
 "http://www.w3.org/Graphics/SVG/1.1/DTD/svg11.dtd">
<!-- Generated by graphviz version 2.42.3 (20191010.1750)
 -->
<!-- Title: tralics/LabelInfo.h Pages: 1 -->
<svg width="246pt" height="302pt"
 viewBox="0.00 0.00 245.51 302.00" xmlns="http://www.w3.org/2000/svg" xmlns:xlink="http://www.w3.org/1999/xlink">
<g id="graph0" class="graph" transform="scale(1 1) rotate(0) translate(4 298)">
<title>tralics/LabelInfo.h</title>
<!-- Node1 -->
<g id="node1" class="node">
<title>Node1</title>
<g id="a_node1"><a xlink:title=" ">
<polygon fill="#bfbfbf" stroke="black" points="138.93,-275.5 138.93,-293.5 233.31,-293.5 233.31,-275.5 138.93,-275.5"/>
<text text-anchor="middle" x="186.12" y="-281.5" font-family="Helvetica,sans-Serif" font-size="10.00">tralics/LabelInfo.h</text>
</a>
</g>
</g>
<!-- Node2 -->
<g id="node2" class="node">
<title>Node2</title>
<g id="a_node2"><a xlink:href="../../d5/daf/_istring_8h.html" target="_top" xlink:title=" ">
<polygon fill="none" stroke="black" points="129.33,-220.5 129.33,-238.5 180.9,-238.5 180.9,-220.5 129.33,-220.5"/>
<text text-anchor="middle" x="155.12" y="-226.5" font-family="Helvetica,sans-Serif" font-size="10.00">Istring.h</text>
</a>
</g>
</g>
<!-- Node1&#45;&gt;Node2 -->
<g id="edge1" class="edge">
<title>Node1&#45;&gt;Node2</title>
<path fill="none" stroke="midnightblue" d="M181.27,-275.22C176.92,-267.79 170.41,-256.65 164.97,-247.34"/>
<polygon fill="midnightblue" stroke="midnightblue" points="167.89,-245.41 159.82,-238.55 161.85,-248.95 167.89,-245.41"/>
</g>
<!-- Node11 -->
<g id="node11" class="node">
<title>Node11</title>
<g id="a_node11"><a xlink:title=" ">
<polygon fill="none" stroke="#bfbfbf" points="198.72,-220.5 198.72,-238.5 237.51,-238.5 237.51,-220.5 198.72,-220.5"/>
<text text-anchor="middle" x="218.12" y="-226.5" font-family="Helvetica,sans-Serif" font-size="10.00">utility</text>
</a>
</g>
</g>
<!-- Node1&#45;&gt;Node11 -->
<g id="edge10" class="edge">
<title>Node1&#45;&gt;Node11</title>
<path fill="none" stroke="midnightblue" d="M191.12,-275.22C195.6,-267.79 202.33,-256.65 207.95,-247.34"/>
<polygon fill="midnightblue" stroke="midnightblue" points="211.08,-248.92 213.26,-238.55 205.09,-245.3 211.08,-248.92"/>
</g>
<!-- Node3 -->
<g id="node3" class="node">
<title>Node3</title>
<g id="a_node3"><a xlink:href="../../d0/d0b/enums_8h.html" target="_top" xlink:title=" ">
<polygon fill="none" stroke="black" points="62.94,-165.5 62.94,-183.5 117.29,-183.5 117.29,-165.5 62.94,-165.5"/>
<text text-anchor="middle" x="90.12" y="-171.5" font-family="Helvetica,sans-Serif" font-size="10.00">enums.h</text>
</a>
</g>
</g>
<!-- Node2&#45;&gt;Node3 -->
<g id="edge2" class="edge">
<title>Node2&#45;&gt;Node3</title>
<path fill="none" stroke="midnightblue" d="M145.24,-220.45C135.41,-212.43 120.1,-199.95 108.1,-190.17"/>
<polygon fill="midnightblue" stroke="midnightblue" points="110.04,-187.23 100.08,-183.63 105.62,-192.66 110.04,-187.23"/>
</g>
<!-- Node9 -->
<g id="node9" class="node">
<title>Node9</title>
<g id="a_node9"><a xlink:title=" ">
<polygon fill="none" stroke="#bfbfbf" points="135.72,-165.5 135.72,-183.5 174.51,-183.5 174.51,-165.5 135.72,-165.5"/>
<text text-anchor="middle" x="155.12" y="-171.5" font-family="Helvetica,sans-Serif" font-size="10.00">array</text>
</a>
</g>
</g>
<!-- Node2&#45;&gt;Node9 -->
<g id="edge8" class="edge">
<title>Node2&#45;&gt;Node9</title>
<path fill="none" stroke="midnightblue" d="M155.12,-220.22C155.12,-213.18 155.12,-202.81 155.12,-193.83"/>
<polygon fill="midnightblue" stroke="midnightblue" points="158.62,-193.55 155.12,-183.55 151.62,-193.55 158.62,-193.55"/>
</g>
<!-- Node10 -->
<g id="node10" class="node">
<title>Node10</title>
<g id="a_node10"><a xlink:title=" ">
<polygon fill="none" stroke="#bfbfbf" points="192.89,-165.5 192.89,-183.5 233.34,-183.5 233.34,-165.5 192.89,-165.5"/>
<text text-anchor="middle" x="213.12" y="-171.5" font-family="Helvetica,sans-Serif" font-size="10.00">string</text>
</a>
</g>
</g>
<!-- Node2&#45;&gt;Node10 -->
<g id="edge9" class="edge">
<title>Node2&#45;&gt;Node10</title>
<path fill="none" stroke="midnightblue" d="M164.18,-220.22C172.91,-212.24 186.32,-199.98 196.9,-190.32"/>
<polygon fill="midnightblue" stroke="midnightblue" points="199.29,-192.88 204.31,-183.55 194.56,-187.71 199.29,-192.88"/>
</g>
<!-- Node4 -->
<g id="node4" class="node">
<title>Node4</title>
<g id="a_node4"><a xlink:href="../../d8/db5/consts_8h.html" target="_top" xlink:title=" ">
<polygon fill="none" stroke="black" points="63.5,-110.5 63.5,-128.5 116.74,-128.5 116.74,-110.5 63.5,-110.5"/>
<text text-anchor="middle" x="90.12" y="-116.5" font-family="Helvetica,sans-Serif" font-size="10.00">consts.h</text>
</a>
</g>
</g>
<!-- Node3&#45;&gt;Node4 -->
<g id="edge3" class="edge">
<title>Node3&#45;&gt;Node4</title>
<path fill="none" stroke="midnightblue" d="M90.12,-165.22C90.12,-158.18 90.12,-147.81 90.12,-138.83"/>
<polygon fill="midnightblue" stroke="midnightblue" points="93.62,-138.55 90.12,-128.55 86.62,-138.55 93.62,-138.55"/>
</g>
<!-- Node5 -->
<g id="node5" class="node">
<title>Node5</title>
<g id="a_node5"><a xlink:href="../../d9/d49/types_8h.html" target="_top" xlink:title=" ">
<polygon fill="none" stroke="black" points="66,-55.5 66,-73.5 114.24,-73.5 114.24,-55.5 66,-55.5"/>
<text text-anchor="middle" x="90.12" y="-61.5" font-family="Helvetica,sans-Serif" font-size="10.00">types.h</text>
</a>
</g>
</g>
<!-- Node4&#45;&gt;Node5 -->
<g id="edge4" class="edge">
<title>Node4&#45;&gt;Node5</title>
<path fill="none" stroke="midnightblue" d="M90.12,-110.22C90.12,-103.18 90.12,-92.81 90.12,-83.83"/>
<polygon fill="midnightblue" stroke="midnightblue" points="93.62,-83.55 90.12,-73.55 86.62,-83.55 93.62,-83.55"/>
</g>
<!-- Node6 -->
<g id="node6" class="node">
<title>Node6</title>
<g id="a_node6"><a xlink:title=" ">
<polygon fill="none" stroke="#bfbfbf" points="0,-0.5 0,-18.5 48.23,-18.5 48.23,-0.5 0,-0.5"/>
<text text-anchor="middle" x="24.12" y="-6.5" font-family="Helvetica,sans-Serif" font-size="10.00">cassert</text>
</a>
</g>
</g>
<!-- Node5&#45;&gt;Node6 -->
<g id="edge5" class="edge">
<title>Node5&#45;&gt;Node6</title>
<path fill="none" stroke="midnightblue" d="M80.09,-55.45C70.11,-47.43 54.56,-34.95 42.38,-25.17"/>
<polygon fill="midnightblue" stroke="midnightblue" points="44.22,-22.16 34.23,-18.63 39.84,-27.62 44.22,-22.16"/>
</g>
<!-- Node7 -->
<g id="node7" class="node">
<title>Node7</title>
<g id="a_node7"><a xlink:title=" ">
<polygon fill="none" stroke="#bfbfbf" points="66,-0.5 66,-18.5 114.24,-18.5 114.24,-0.5 66,-0.5"/>
<text text-anchor="middle" x="90.12" y="-6.5" font-family="Helvetica,sans-Serif" font-size="10.00">cstddef</text>
</a>
</g>
</g>
<!-- Node5&#45;&gt;Node7 -->
<g id="edge6" class="edge">
<title>Node5&#45;&gt;Node7</title>
<path fill="none" stroke="midnightblue" d="M90.12,-55.22C90.12,-48.18 90.12,-37.81 90.12,-28.83"/>
<polygon fill="midnightblue" stroke="midnightblue" points="93.62,-28.55 90.12,-18.55 86.62,-28.55 93.62,-28.55"/>
</g>
<!-- Node8 -->
<g id="node8" class="node">
<title>Node8</title>
<g id="a_node8"><a xlink:title=" ">
<polygon fill="none" stroke="#bfbfbf" points="132.05,-0.5 132.05,-18.5 194.18,-18.5 194.18,-0.5 132.05,-0.5"/>
<text text-anchor="middle" x="163.12" y="-6.5" font-family="Helvetica,sans-Serif" font-size="10.00">type_traits</text>
</a>
</g>
</g>
<!-- Node5&#45;&gt;Node8 -->
<g id="edge7" class="edge">
<title>Node5&#45;&gt;Node8</title>
<path fill="none" stroke="midnightblue" d="M101.2,-55.45C112.46,-47.28 130.11,-34.46 143.7,-24.6"/>
<polygon fill="midnightblue" stroke="midnightblue" points="145.89,-27.33 151.92,-18.63 141.78,-21.67 145.89,-27.33"/>
</g>
</g>
</svg>
