<?xml version="1.0" encoding="UTF-8" standalone="no"?>
<!DOCTYPE svg PUBLIC "-//W3C//DTD SVG 1.1//EN"
 "http://www.w3.org/Graphics/SVG/1.1/DTD/svg11.dtd">
<!-- Generated by graphviz version 2.42.3 (20191010.1750)
 -->
<!-- Title: txtrees.h Pages: 1 -->
<svg width="122pt" height="82pt"
 viewBox="0.00 0.00 121.96 82.00" xmlns="http://www.w3.org/2000/svg" xmlns:xlink="http://www.w3.org/1999/xlink">
<g id="graph0" class="graph" transform="scale(1 1) rotate(0) translate(4 78)">
<title>txtrees.h</title>
<!-- Node1 -->
<g id="node1" class="node">
<title>Node1</title>
<g id="a_node1"><a xlink:title=" ">
<polygon fill="#bfbfbf" stroke="black" points="34.39,-55.5 34.39,-73.5 88.74,-73.5 88.74,-55.5 34.39,-55.5"/>
<text text-anchor="middle" x="61.56" y="-61.5" font-family="Helvetica,sans-Serif" font-size="10.00">txtrees.h</text>
</a>
</g>
</g>
<!-- Node2 -->
<g id="node2" class="node">
<title>Node2</title>
<g id="a_node2"><a xlink:title=" ">
<polygon fill="none" stroke="#bfbfbf" points="0,-0.5 0,-18.5 57.13,-18.5 57.13,-0.5 0,-0.5"/>
<text text-anchor="middle" x="28.56" y="-6.5" font-family="Helvetica,sans-Serif" font-size="10.00">algorithm</text>
</a>
</g>
</g>
<!-- Node1&#45;&gt;Node2 -->
<g id="edge1" class="edge">
<title>Node1&#45;&gt;Node2</title>
<path fill="none" stroke="midnightblue" d="M56.41,-55.22C51.73,-47.71 44.7,-36.41 38.87,-27.05"/>
<polygon fill="midnightblue" stroke="midnightblue" points="41.83,-25.19 33.58,-18.55 35.89,-28.89 41.83,-25.19"/>
</g>
<!-- Node3 -->
<g id="node3" class="node">
<title>Node3</title>
<g id="a_node3"><a xlink:title=" ">
<polygon fill="none" stroke="#bfbfbf" points="75.17,-0.5 75.17,-18.5 113.96,-18.5 113.96,-0.5 75.17,-0.5"/>
<text text-anchor="middle" x="94.56" y="-6.5" font-family="Helvetica,sans-Serif" font-size="10.00">utility</text>
</a>
</g>
</g>
<!-- Node1&#45;&gt;Node3 -->
<g id="edge2" class="edge">
<title>Node1&#45;&gt;Node3</title>
<path fill="none" stroke="midnightblue" d="M66.72,-55.22C71.4,-47.71 78.43,-36.41 84.26,-27.05"/>
<polygon fill="midnightblue" stroke="midnightblue" points="87.24,-28.89 89.55,-18.55 81.3,-25.19 87.24,-28.89"/>
</g>
</g>
</svg>
