<?xml version="1.0" encoding="UTF-8" standalone="no"?>
<!DOCTYPE svg PUBLIC "-//W3C//DTD SVG 1.1//EN"
 "http://www.w3.org/Graphics/SVG/1.1/DTD/svg11.dtd">
<!-- Generated by graphviz version 2.42.3 (20191010.1750)
 -->
<!-- Title: Cv3Helper Pages: 1 -->
<svg width="370pt" height="401pt"
 viewBox="0.00 0.00 370.11 401.00" xmlns="http://www.w3.org/2000/svg" xmlns:xlink="http://www.w3.org/1999/xlink">
<g id="graph0" class="graph" transform="scale(1 1) rotate(0) translate(4 397)">
<title>Cv3Helper</title>
<!-- Node1 -->
<g id="node1" class="node">
<title>Node1</title>
<g id="a_node1"><a xlink:title=" ">
<polygon fill="#bfbfbf" stroke="black" points="165.87,-0.5 165.87,-18.5 229.11,-18.5 229.11,-0.5 165.87,-0.5"/>
<text text-anchor="middle" x="197.49" y="-6.5" font-family="Helvetica,sans-Serif" font-size="10.00">Cv3Helper</text>
</a>
</g>
</g>
<!-- Node2 -->
<g id="node2" class="node">
<title>Node2</title>
<g id="a_node2"><a xlink:href="../../d6/d9a/class_xml.html" target="_top" xlink:title=" ">
<polygon fill="none" stroke="black" points="136.88,-85.5 136.88,-103.5 170.1,-103.5 170.1,-85.5 136.88,-85.5"/>
<text text-anchor="middle" x="153.49" y="-91.5" font-family="Helvetica,sans-Serif" font-size="10.00">Xml</text>
</a>
</g>
</g>
<!-- Node2&#45;&gt;Node1 -->
<g id="edge1" class="edge">
<title>Node2&#45;&gt;Node1</title>
<path fill="none" stroke="#9a32cd" stroke-dasharray="5,2" d="M159.26,-75.82C163.35,-64.37 169.37,-49.35 176.57,-37 180.35,-30.52 185.58,-23.89 189.87,-18.89"/>
<polygon fill="#9a32cd" stroke="#9a32cd" points="155.88,-74.9 155.97,-85.5 162.51,-77.16 155.88,-74.9"/>
<text text-anchor="middle" x="199.46" y="-59" font-family="Helvetica,sans-Serif" font-size="10.00"> exponent</text>
<text text-anchor="middle" x="199.46" y="-49" font-family="Helvetica,sans-Serif" font-size="10.00">p</text>
<text text-anchor="middle" x="199.46" y="-39" font-family="Helvetica,sans-Serif" font-size="10.00">index</text>
</g>
<!-- Node3 -->
<g id="node3" class="node">
<title>Node3</title>
<g id="a_node3"><a xlink:title="STL class.">
<polygon fill="none" stroke="#bfbfbf" points="0,-252.5 0,-280.5 102.99,-280.5 102.99,-252.5 0,-252.5"/>
<text text-anchor="start" x="8" y="-268.5" font-family="Helvetica,sans-Serif" font-size="10.00">std::vector&lt; gsl::not</text>
<text text-anchor="middle" x="51.49" y="-258.5" font-family="Helvetica,sans-Serif" font-size="10.00">_null&lt; Xml * &gt; &gt;</text>
</a>
</g>
</g>
<!-- Node3&#45;&gt;Node2 -->
<g id="edge2" class="edge">
<title>Node3&#45;&gt;Node2</title>
<path fill="none" stroke="midnightblue" d="M57.86,-242.42C65.23,-218.1 78.93,-179.34 98.49,-150 111.02,-131.21 130.8,-113.61 142.91,-103.73"/>
<polygon fill="midnightblue" stroke="midnightblue" points="54.45,-241.61 55,-252.19 61.17,-243.58 54.45,-241.61"/>
</g>
<!-- Node4 -->
<g id="node4" class="node">
<title>Node4</title>
<g id="a_node4"><a xlink:title=" ">
<polygon fill="none" stroke="#bfbfbf" points="51.99,-374.5 51.99,-392.5 80.99,-392.5 80.99,-374.5 51.99,-374.5"/>
<text text-anchor="middle" x="66.05" y="-380.5" font-family="Helvetica,sans-Serif" font-size="10.00">T</text>
</a>
</g>
</g>
<!-- Node4&#45;&gt;Node3 -->
<g id="edge3" class="edge">
<title>Node4&#45;&gt;Node3</title>
<path fill="none" stroke="#9a32cd" stroke-dasharray="5,2" d="M46.83,-367.41C43.7,-364.02 40.91,-360.18 39.14,-356 28.49,-330.86 38.32,-298.46 45.51,-280.66"/>
<polygon fill="#9a32cd" stroke="#9a32cd" points="44.72,-370.22 54.44,-374.42 49.46,-365.07 44.72,-370.22"/>
<text text-anchor="middle" x="61.17" y="-348" font-family="Helvetica,sans-Serif" font-size="10.00"> elements</text>
</g>
<!-- Node7 -->
<g id="node7" class="node">
<title>Node7</title>
<g id="a_node7"><a xlink:title="STL class.">
<polygon fill="none" stroke="#bfbfbf" points="61.06,-299.5 61.06,-327.5 167.93,-327.5 167.93,-299.5 61.06,-299.5"/>
<text text-anchor="start" x="69.06" y="-315.5" font-family="Helvetica,sans-Serif" font-size="10.00">std::vector&lt; StrHash</text>
<text text-anchor="middle" x="114.49" y="-305.5" font-family="Helvetica,sans-Serif" font-size="10.00">_record &gt;</text>
</a>
</g>
</g>
<!-- Node4&#45;&gt;Node7 -->
<g id="edge7" class="edge">
<title>Node4&#45;&gt;Node7</title>
<path fill="none" stroke="#9a32cd" stroke-dasharray="5,2" d="M78.15,-365.98C86.46,-354.22 97.47,-338.62 105.19,-327.69"/>
<polygon fill="#9a32cd" stroke="#9a32cd" points="75.1,-364.24 72.19,-374.43 80.81,-368.28 75.1,-364.24"/>
<text text-anchor="middle" x="114.17" y="-348" font-family="Helvetica,sans-Serif" font-size="10.00"> elements</text>
</g>
<!-- Node5 -->
<g id="node5" class="node">
<title>Node5</title>
<g id="a_node5"><a xlink:href="../../d9/d20/struct_istring.html" target="_top" xlink:title=" ">
<polygon fill="none" stroke="black" points="107.88,-150.5 107.88,-168.5 151.11,-168.5 151.11,-150.5 107.88,-150.5"/>
<text text-anchor="middle" x="129.49" y="-156.5" font-family="Helvetica,sans-Serif" font-size="10.00">Istring</text>
</a>
</g>
</g>
<!-- Node5&#45;&gt;Node2 -->
<g id="edge4" class="edge">
<title>Node5&#45;&gt;Node2</title>
<path fill="none" stroke="#9a32cd" stroke-dasharray="5,2" d="M130.41,-140.06C131.15,-134.14 132.45,-127.65 134.7,-122 137.37,-115.29 142.07,-108.67 146.1,-103.72"/>
<polygon fill="#9a32cd" stroke="#9a32cd" points="126.89,-140.14 129.56,-150.39 133.87,-140.71 126.89,-140.14"/>
<text text-anchor="middle" x="149.39" y="-124" font-family="Helvetica,sans-Serif" font-size="10.00"> name</text>
</g>
<!-- Node6 -->
<g id="node6" class="node">
<title>Node6</title>
<g id="a_node6"><a xlink:href="../../de/df7/class_str_hash.html" target="_top" xlink:title="The string_hash table.">
<polygon fill="none" stroke="black" points="103.43,-215.5 103.43,-233.5 155.56,-233.5 155.56,-215.5 103.43,-215.5"/>
<text text-anchor="middle" x="129.49" y="-221.5" font-family="Helvetica,sans-Serif" font-size="10.00">StrHash</text>
</a>
</g>
</g>
<!-- Node6&#45;&gt;Node5 -->
<g id="edge5" class="edge">
<title>Node6&#45;&gt;Node5</title>
<path fill="none" stroke="#9a32cd" stroke-dasharray="5,2" d="M129.49,-204.91C129.49,-192.81 129.49,-177.65 129.49,-168.54"/>
<polygon fill="#9a32cd" stroke="#9a32cd" points="125.99,-205.26 129.49,-215.26 132.99,-205.26 125.99,-205.26"/>
<text text-anchor="middle" x="137.83" y="-189" font-family="Helvetica,sans-Serif" font-size="10.00"> SH</text>
</g>
<!-- Node7&#45;&gt;Node6 -->
<g id="edge6" class="edge">
<title>Node7&#45;&gt;Node6</title>
<path fill="none" stroke="midnightblue" d="M118.49,-289.3C121.67,-270.88 125.93,-246.19 128.1,-233.61"/>
<polygon fill="midnightblue" stroke="midnightblue" points="115.02,-288.84 116.77,-299.29 121.92,-290.03 115.02,-288.84"/>
</g>
<!-- Node8 -->
<g id="node8" class="node">
<title>Node8</title>
<g id="a_node8"><a xlink:title=" ">
<polygon fill="none" stroke="#bfbfbf" points="185.75,-304.5 185.75,-322.5 291.24,-322.5 291.24,-304.5 185.75,-304.5"/>
<text text-anchor="middle" x="238.49" y="-310.5" font-family="Helvetica,sans-Serif" font-size="10.00">std::vector&lt; size_t &gt;</text>
</a>
</g>
</g>
<!-- Node8&#45;&gt;Node6 -->
<g id="edge8" class="edge">
<title>Node8&#45;&gt;Node6</title>
<path fill="none" stroke="#9a32cd" stroke-dasharray="5,2" d="M220.43,-298.08C197.27,-279.6 157.92,-248.19 139.53,-233.51"/>
<polygon fill="#9a32cd" stroke="#9a32cd" points="218.44,-300.97 228.43,-304.47 222.8,-295.5 218.44,-300.97"/>
<text text-anchor="middle" x="208.33" y="-263.5" font-family="Helvetica,sans-Serif" font-size="10.00"> next</text>
</g>
<!-- Node9 -->
<g id="node9" class="node">
<title>Node9</title>
<g id="a_node9"><a xlink:href="../../de/d3f/class_xid.html" target="_top" xlink:title=" ">
<polygon fill="none" stroke="black" points="169.27,-150.5 169.27,-168.5 199.72,-168.5 199.72,-150.5 169.27,-150.5"/>
<text text-anchor="middle" x="184.49" y="-156.5" font-family="Helvetica,sans-Serif" font-size="10.00">Xid</text>
</a>
</g>
</g>
<!-- Node9&#45;&gt;Node2 -->
<g id="edge9" class="edge">
<title>Node9&#45;&gt;Node2</title>
<path fill="none" stroke="#9a32cd" stroke-dasharray="5,2" d="M175.89,-141.02C169.86,-128.76 162.07,-112.93 157.45,-103.54"/>
<polygon fill="#9a32cd" stroke="#9a32cd" points="172.89,-142.84 180.44,-150.26 179.17,-139.75 172.89,-142.84"/>
<text text-anchor="middle" x="176.77" y="-124" font-family="Helvetica,sans-Serif" font-size="10.00"> id</text>
</g>
<!-- Node10 -->
<g id="node10" class="node">
<title>Node10</title>
<g id="a_node10"><a xlink:href="../../d4/d34/class_math.html" target="_top" xlink:title=" ">
<polygon fill="none" stroke="black" points="228.38,-85.5 228.38,-103.5 266.61,-103.5 266.61,-85.5 228.38,-85.5"/>
<text text-anchor="middle" x="247.49" y="-91.5" font-family="Helvetica,sans-Serif" font-size="10.00">Math</text>
</a>
</g>
</g>
<!-- Node10&#45;&gt;Node1 -->
<g id="edge10" class="edge">
<title>Node10&#45;&gt;Node1</title>
<path fill="none" stroke="#9a32cd" stroke-dasharray="5,2" d="M240.63,-76.12C235.74,-64.6 228.62,-49.39 220.49,-37 216.22,-30.48 210.47,-23.85 205.79,-18.86"/>
<polygon fill="#9a32cd" stroke="#9a32cd" points="237.43,-77.54 244.46,-85.47 243.91,-74.89 237.43,-77.54"/>
<text text-anchor="middle" x="250.84" y="-54" font-family="Helvetica,sans-Serif" font-size="10.00"> res</text>
<text text-anchor="middle" x="250.84" y="-44" font-family="Helvetica,sans-Serif" font-size="10.00">object</text>
</g>
<!-- Node11 -->
<g id="node11" class="node">
<title>Node11</title>
<g id="a_node11"><a xlink:title=" ">
<polygon fill="none" stroke="#bfbfbf" points="238.37,-150.5 238.37,-168.5 336.62,-168.5 336.62,-150.5 238.37,-150.5"/>
<text text-anchor="middle" x="287.49" y="-156.5" font-family="Helvetica,sans-Serif" font-size="10.00">std::list&lt; MathElt &gt;</text>
</a>
</g>
</g>
<!-- Node11&#45;&gt;Node10 -->
<g id="edge11" class="edge">
<title>Node11&#45;&gt;Node10</title>
<path fill="none" stroke="#9a32cd" stroke-dasharray="5,2" d="M276.86,-141.75C269.01,-129.39 258.68,-113.12 252.6,-103.54"/>
<polygon fill="#9a32cd" stroke="#9a32cd" points="273.95,-143.7 282.26,-150.26 279.86,-139.95 273.95,-143.7"/>
<text text-anchor="middle" x="283.84" y="-124" font-family="Helvetica,sans-Serif" font-size="10.00"> value</text>
</g>
<!-- Node12 -->
<g id="node12" class="node">
<title>Node12</title>
<g id="a_node12"><a xlink:href="../../d2/da0/class_math_elt.html" target="_top" xlink:title=" ">
<polygon fill="none" stroke="black" points="307.54,-215.5 307.54,-233.5 357.44,-233.5 357.44,-215.5 307.54,-215.5"/>
<text text-anchor="middle" x="332.49" y="-221.5" font-family="Helvetica,sans-Serif" font-size="10.00">MathElt</text>
</a>
</g>
</g>
<!-- Node12&#45;&gt;Node11 -->
<g id="edge12" class="edge">
<title>Node12&#45;&gt;Node11</title>
<path fill="none" stroke="#9a32cd" stroke-dasharray="5,2" d="M320.79,-207.11C311.93,-194.71 300.15,-178.22 293.24,-168.54"/>
<polygon fill="#9a32cd" stroke="#9a32cd" points="317.95,-209.16 326.61,-215.26 323.65,-205.09 317.95,-209.16"/>
<text text-anchor="middle" x="335.17" y="-189" font-family="Helvetica,sans-Serif" font-size="10.00"> elements</text>
</g>
<!-- Node13 -->
<g id="node13" class="node">
<title>Node13</title>
<g id="a_node13"><a xlink:href="../../de/d72/class_cmd_chr.html" target="_top" xlink:title=" ">
<polygon fill="none" stroke="black" points="308.88,-304.5 308.88,-322.5 362.11,-322.5 362.11,-304.5 308.88,-304.5"/>
<text text-anchor="middle" x="335.49" y="-310.5" font-family="Helvetica,sans-Serif" font-size="10.00">CmdChr</text>
</a>
</g>
</g>
<!-- Node13&#45;&gt;Node12 -->
<g id="edge13" class="edge">
<title>Node13&#45;&gt;Node12</title>
<path fill="none" stroke="#9a32cd" stroke-dasharray="5,2" d="M334.86,-294.26C334.22,-275.52 333.24,-247.22 332.77,-233.51"/>
<polygon fill="#9a32cd" stroke="#9a32cd" points="331.37,-294.6 335.22,-304.47 338.37,-294.36 331.37,-294.6"/>
<text text-anchor="middle" x="341.27" y="-263.5" font-family="Helvetica,sans-Serif" font-size="10.00"> val</text>
</g>
</g>
</svg>
