<?xml version="1.0" encoding="UTF-8" standalone="no"?>
<!DOCTYPE svg PUBLIC "-//W3C//DTD SVG 1.1//EN"
 "http://www.w3.org/Graphics/SVG/1.1/DTD/svg11.dtd">
<!-- Generated by graphviz version 2.42.3 (20191010.1750)
 -->
<!-- Title: tralics/EQTB.h Pages: 1 -->
<svg width="394pt" height="467pt"
 viewBox="0.00 0.00 394.13 467.00" xmlns="http://www.w3.org/2000/svg" xmlns:xlink="http://www.w3.org/1999/xlink">
<g id="graph0" class="graph" transform="scale(1 1) rotate(0) translate(4 463)">
<title>tralics/EQTB.h</title>
<!-- Node1 -->
<g id="node1" class="node">
<title>Node1</title>
<g id="a_node1"><a xlink:title=" ">
<polygon fill="#bfbfbf" stroke="black" points="168.39,-440.5 168.39,-458.5 248.84,-458.5 248.84,-440.5 168.39,-440.5"/>
<text text-anchor="middle" x="208.62" y="-446.5" font-family="Helvetica,sans-Serif" font-size="10.00">tralics/EQTB.h</text>
</a>
</g>
</g>
<!-- Node2 -->
<g id="node2" class="node">
<title>Node2</title>
<g id="a_node2"><a xlink:href="../../d9/d18/txscaled_8h.html" target="_top" xlink:title=" ">
<polygon fill="none" stroke="black" points="173.94,-385.5 173.94,-403.5 243.3,-403.5 243.3,-385.5 173.94,-385.5"/>
<text text-anchor="middle" x="208.62" y="-391.5" font-family="Helvetica,sans-Serif" font-size="10.00">../txscaled.h</text>
</a>
</g>
</g>
<!-- Node1&#45;&gt;Node2 -->
<g id="edge1" class="edge">
<title>Node1&#45;&gt;Node2</title>
<path fill="none" stroke="midnightblue" d="M208.62,-440.22C208.62,-433.18 208.62,-422.81 208.62,-413.83"/>
<polygon fill="midnightblue" stroke="midnightblue" points="212.12,-413.55 208.62,-403.55 205.12,-413.55 212.12,-413.55"/>
</g>
<!-- Node3 -->
<g id="node3" class="node">
<title>Node3</title>
<g id="a_node3"><a xlink:href="../../dc/d91/txtokenlist_8h.html" target="_top" xlink:title=" ">
<polygon fill="none" stroke="black" points="174.21,-330.5 174.21,-348.5 243.02,-348.5 243.02,-330.5 174.21,-330.5"/>
<text text-anchor="middle" x="208.62" y="-336.5" font-family="Helvetica,sans-Serif" font-size="10.00">txtokenlist.h</text>
</a>
</g>
</g>
<!-- Node2&#45;&gt;Node3 -->
<g id="edge2" class="edge">
<title>Node2&#45;&gt;Node3</title>
<path fill="none" stroke="midnightblue" d="M208.62,-385.22C208.62,-378.18 208.62,-367.81 208.62,-358.83"/>
<polygon fill="midnightblue" stroke="midnightblue" points="212.12,-358.55 208.62,-348.55 205.12,-358.55 212.12,-358.55"/>
</g>
<!-- Node4 -->
<g id="node4" class="node">
<title>Node4</title>
<g id="a_node4"><a xlink:href="../../d5/daf/_istring_8h.html" target="_top" xlink:title=" ">
<polygon fill="none" stroke="black" points="95.38,-220.5 95.38,-238.5 175.85,-238.5 175.85,-220.5 95.38,-220.5"/>
<text text-anchor="middle" x="135.62" y="-226.5" font-family="Helvetica,sans-Serif" font-size="10.00">tralics/Istring.h</text>
</a>
</g>
</g>
<!-- Node3&#45;&gt;Node4 -->
<g id="edge3" class="edge">
<title>Node3&#45;&gt;Node4</title>
<path fill="none" stroke="midnightblue" d="M196.64,-330.22C185.69,-322.1 169.7,-308.82 159.62,-294 150.19,-280.15 143.83,-262.09 140.04,-248.78"/>
<polygon fill="midnightblue" stroke="midnightblue" points="143.37,-247.69 137.45,-238.9 136.6,-249.47 143.37,-247.69"/>
</g>
<!-- Node17 -->
<g id="node17" class="node">
<title>Node17</title>
<g id="a_node17"><a xlink:href="../../dd/dcd/_token_8h.html" target="_top" xlink:title=" ">
<polygon fill="none" stroke="black" points="168.66,-275.5 168.66,-293.5 248.57,-293.5 248.57,-275.5 168.66,-275.5"/>
<text text-anchor="middle" x="208.62" y="-281.5" font-family="Helvetica,sans-Serif" font-size="10.00">tralics/Token.h</text>
</a>
</g>
</g>
<!-- Node3&#45;&gt;Node17 -->
<g id="edge19" class="edge">
<title>Node3&#45;&gt;Node17</title>
<path fill="none" stroke="midnightblue" d="M208.62,-330.22C208.62,-323.18 208.62,-312.81 208.62,-303.83"/>
<polygon fill="midnightblue" stroke="midnightblue" points="212.12,-303.55 208.62,-293.55 205.12,-303.55 212.12,-303.55"/>
</g>
<!-- Node22 -->
<g id="node22" class="node">
<title>Node22</title>
<g id="a_node22"><a xlink:title=" ">
<polygon fill="none" stroke="#bfbfbf" points="266.22,-275.5 266.22,-293.5 305.01,-293.5 305.01,-275.5 266.22,-275.5"/>
<text text-anchor="middle" x="285.62" y="-281.5" font-family="Helvetica,sans-Serif" font-size="10.00">utility</text>
</a>
</g>
</g>
<!-- Node3&#45;&gt;Node22 -->
<g id="edge26" class="edge">
<title>Node3&#45;&gt;Node22</title>
<path fill="none" stroke="midnightblue" d="M220.31,-330.45C232.3,-322.2 251.16,-309.22 265.54,-299.32"/>
<polygon fill="midnightblue" stroke="midnightblue" points="267.56,-302.18 273.81,-293.63 263.59,-296.41 267.56,-302.18"/>
</g>
<!-- Node5 -->
<g id="node5" class="node">
<title>Node5</title>
<g id="a_node5"><a xlink:href="../../dd/d47/_str_hash_8h.html" target="_top" xlink:title=" ">
<polygon fill="none" stroke="black" points="133.38,-165.5 133.38,-183.5 193.85,-183.5 193.85,-165.5 133.38,-165.5"/>
<text text-anchor="middle" x="163.62" y="-171.5" font-family="Helvetica,sans-Serif" font-size="10.00">StrHash.h</text>
</a>
</g>
</g>
<!-- Node4&#45;&gt;Node5 -->
<g id="edge4" class="edge">
<title>Node4&#45;&gt;Node5</title>
<path fill="none" stroke="midnightblue" d="M139.99,-220.22C143.88,-212.86 149.68,-201.88 154.56,-192.64"/>
<polygon fill="midnightblue" stroke="midnightblue" points="157.79,-194.03 159.36,-183.55 151.6,-190.76 157.79,-194.03"/>
</g>
<!-- Node14 -->
<g id="node14" class="node">
<title>Node14</title>
<g id="a_node14"><a xlink:href="../../d0/d0b/enums_8h.html" target="_top" xlink:title=" ">
<polygon fill="none" stroke="black" points="217.44,-165.5 217.44,-183.5 271.79,-183.5 271.79,-165.5 217.44,-165.5"/>
<text text-anchor="middle" x="244.62" y="-171.5" font-family="Helvetica,sans-Serif" font-size="10.00">enums.h</text>
</a>
</g>
</g>
<!-- Node4&#45;&gt;Node14 -->
<g id="edge13" class="edge">
<title>Node4&#45;&gt;Node14</title>
<path fill="none" stroke="midnightblue" d="M152.17,-220.45C169.86,-211.85 198.13,-198.1 218.75,-188.08"/>
<polygon fill="midnightblue" stroke="midnightblue" points="220.44,-191.15 227.91,-183.63 217.38,-184.85 220.44,-191.15"/>
</g>
<!-- Node15 -->
<g id="node15" class="node">
<title>Node15</title>
<g id="a_node15"><a xlink:href="../../d8/d3c/util_8h.html" target="_top" xlink:title=" ">
<polygon fill="none" stroke="black" points="21.05,-165.5 21.05,-183.5 58.18,-183.5 58.18,-165.5 21.05,-165.5"/>
<text text-anchor="middle" x="39.62" y="-171.5" font-family="Helvetica,sans-Serif" font-size="10.00">util.h</text>
</a>
</g>
</g>
<!-- Node4&#45;&gt;Node15 -->
<g id="edge15" class="edge">
<title>Node4&#45;&gt;Node15</title>
<path fill="none" stroke="midnightblue" d="M121.04,-220.45C105.67,-211.97 81.23,-198.48 63.14,-188.49"/>
<polygon fill="midnightblue" stroke="midnightblue" points="64.78,-185.39 54.33,-183.63 61.4,-191.52 64.78,-185.39"/>
</g>
<!-- Node16 -->
<g id="node16" class="node">
<title>Node16</title>
<g id="a_node16"><a xlink:title=" ">
<polygon fill="none" stroke="#bfbfbf" points="76.22,-165.5 76.22,-183.5 115.01,-183.5 115.01,-165.5 76.22,-165.5"/>
<text text-anchor="middle" x="95.62" y="-171.5" font-family="Helvetica,sans-Serif" font-size="10.00">array</text>
</a>
</g>
</g>
<!-- Node4&#45;&gt;Node16 -->
<g id="edge18" class="edge">
<title>Node4&#45;&gt;Node16</title>
<path fill="none" stroke="midnightblue" d="M129.37,-220.22C123.64,-212.63 114.99,-201.18 107.89,-191.76"/>
<polygon fill="midnightblue" stroke="midnightblue" points="110.51,-189.42 101.69,-183.55 104.92,-193.64 110.51,-189.42"/>
</g>
<!-- Node6 -->
<g id="node6" class="node">
<title>Node6</title>
<g id="a_node6"><a xlink:href="../../d8/db5/consts_8h.html" target="_top" xlink:title=" ">
<polygon fill="none" stroke="black" points="225,-110.5 225,-128.5 278.24,-128.5 278.24,-110.5 225,-110.5"/>
<text text-anchor="middle" x="251.62" y="-116.5" font-family="Helvetica,sans-Serif" font-size="10.00">consts.h</text>
</a>
</g>
</g>
<!-- Node5&#45;&gt;Node6 -->
<g id="edge5" class="edge">
<title>Node5&#45;&gt;Node6</title>
<path fill="none" stroke="midnightblue" d="M176.98,-165.45C190.81,-157.12 212.65,-143.97 229.14,-134.04"/>
<polygon fill="midnightblue" stroke="midnightblue" points="231.36,-136.78 238.12,-128.63 227.75,-130.79 231.36,-136.78"/>
</g>
<!-- Node11 -->
<g id="node11" class="node">
<title>Node11</title>
<g id="a_node11"><a xlink:title=" ">
<polygon fill="none" stroke="#bfbfbf" points="61.39,-110.5 61.39,-128.5 101.84,-128.5 101.84,-110.5 61.39,-110.5"/>
<text text-anchor="middle" x="81.62" y="-116.5" font-family="Helvetica,sans-Serif" font-size="10.00">string</text>
</a>
</g>
</g>
<!-- Node5&#45;&gt;Node11 -->
<g id="edge10" class="edge">
<title>Node5&#45;&gt;Node11</title>
<path fill="none" stroke="midnightblue" d="M151.16,-165.45C138.4,-157.2 118.31,-144.22 103,-134.32"/>
<polygon fill="midnightblue" stroke="midnightblue" points="104.49,-131.11 94.19,-128.63 100.69,-136.99 104.49,-131.11"/>
</g>
<!-- Node12 -->
<g id="node12" class="node">
<title>Node12</title>
<g id="a_node12"><a xlink:title=" ">
<polygon fill="none" stroke="#bfbfbf" points="120.31,-110.5 120.31,-128.5 206.92,-128.5 206.92,-110.5 120.31,-110.5"/>
<text text-anchor="middle" x="163.62" y="-116.5" font-family="Helvetica,sans-Serif" font-size="10.00">unordered_map</text>
</a>
</g>
</g>
<!-- Node5&#45;&gt;Node12 -->
<g id="edge11" class="edge">
<title>Node5&#45;&gt;Node12</title>
<path fill="none" stroke="midnightblue" d="M163.62,-165.22C163.62,-158.18 163.62,-147.81 163.62,-138.83"/>
<polygon fill="midnightblue" stroke="midnightblue" points="167.12,-138.55 163.62,-128.55 160.12,-138.55 167.12,-138.55"/>
</g>
<!-- Node13 -->
<g id="node13" class="node">
<title>Node13</title>
<g id="a_node13"><a xlink:title=" ">
<polygon fill="none" stroke="#bfbfbf" points="0,-110.5 0,-128.5 43.23,-128.5 43.23,-110.5 0,-110.5"/>
<text text-anchor="middle" x="21.62" y="-116.5" font-family="Helvetica,sans-Serif" font-size="10.00">vector</text>
</a>
</g>
</g>
<!-- Node5&#45;&gt;Node13 -->
<g id="edge12" class="edge">
<title>Node5&#45;&gt;Node13</title>
<path fill="none" stroke="midnightblue" d="M142.05,-165.45C118.28,-156.58 79.83,-142.23 52.79,-132.13"/>
<polygon fill="midnightblue" stroke="midnightblue" points="53.98,-128.84 43.39,-128.63 51.53,-135.4 53.98,-128.84"/>
</g>
<!-- Node7 -->
<g id="node7" class="node">
<title>Node7</title>
<g id="a_node7"><a xlink:href="../../d9/d49/types_8h.html" target="_top" xlink:title=" ">
<polygon fill="none" stroke="black" points="254.5,-55.5 254.5,-73.5 302.74,-73.5 302.74,-55.5 254.5,-55.5"/>
<text text-anchor="middle" x="278.62" y="-61.5" font-family="Helvetica,sans-Serif" font-size="10.00">types.h</text>
</a>
</g>
</g>
<!-- Node6&#45;&gt;Node7 -->
<g id="edge6" class="edge">
<title>Node6&#45;&gt;Node7</title>
<path fill="none" stroke="midnightblue" d="M255.83,-110.22C259.58,-102.86 265.18,-91.88 269.88,-82.64"/>
<polygon fill="midnightblue" stroke="midnightblue" points="273.09,-84.05 274.52,-73.55 266.86,-80.87 273.09,-84.05"/>
</g>
<!-- Node8 -->
<g id="node8" class="node">
<title>Node8</title>
<g id="a_node8"><a xlink:title=" ">
<polygon fill="none" stroke="#bfbfbf" points="188.5,-0.5 188.5,-18.5 236.73,-18.5 236.73,-0.5 188.5,-0.5"/>
<text text-anchor="middle" x="212.62" y="-6.5" font-family="Helvetica,sans-Serif" font-size="10.00">cassert</text>
</a>
</g>
</g>
<!-- Node7&#45;&gt;Node8 -->
<g id="edge7" class="edge">
<title>Node7&#45;&gt;Node8</title>
<path fill="none" stroke="midnightblue" d="M268.59,-55.45C258.61,-47.43 243.06,-34.95 230.88,-25.17"/>
<polygon fill="midnightblue" stroke="midnightblue" points="232.72,-22.16 222.73,-18.63 228.34,-27.62 232.72,-22.16"/>
</g>
<!-- Node9 -->
<g id="node9" class="node">
<title>Node9</title>
<g id="a_node9"><a xlink:title=" ">
<polygon fill="none" stroke="#bfbfbf" points="254.5,-0.5 254.5,-18.5 302.74,-18.5 302.74,-0.5 254.5,-0.5"/>
<text text-anchor="middle" x="278.62" y="-6.5" font-family="Helvetica,sans-Serif" font-size="10.00">cstddef</text>
</a>
</g>
</g>
<!-- Node7&#45;&gt;Node9 -->
<g id="edge8" class="edge">
<title>Node7&#45;&gt;Node9</title>
<path fill="none" stroke="midnightblue" d="M278.62,-55.22C278.62,-48.18 278.62,-37.81 278.62,-28.83"/>
<polygon fill="midnightblue" stroke="midnightblue" points="282.12,-28.55 278.62,-18.55 275.12,-28.55 282.12,-28.55"/>
</g>
<!-- Node10 -->
<g id="node10" class="node">
<title>Node10</title>
<g id="a_node10"><a xlink:title=" ">
<polygon fill="none" stroke="#bfbfbf" points="320.55,-0.5 320.55,-18.5 382.68,-18.5 382.68,-0.5 320.55,-0.5"/>
<text text-anchor="middle" x="351.62" y="-6.5" font-family="Helvetica,sans-Serif" font-size="10.00">type_traits</text>
</a>
</g>
</g>
<!-- Node7&#45;&gt;Node10 -->
<g id="edge9" class="edge">
<title>Node7&#45;&gt;Node10</title>
<path fill="none" stroke="midnightblue" d="M289.7,-55.45C300.96,-47.28 318.61,-34.46 332.2,-24.6"/>
<polygon fill="midnightblue" stroke="midnightblue" points="334.39,-27.33 340.42,-18.63 330.28,-21.67 334.39,-27.33"/>
</g>
<!-- Node14&#45;&gt;Node6 -->
<g id="edge14" class="edge">
<title>Node14&#45;&gt;Node6</title>
<path fill="none" stroke="midnightblue" d="M245.71,-165.22C246.65,-158.1 248.04,-147.58 249.23,-138.53"/>
<polygon fill="midnightblue" stroke="midnightblue" points="252.71,-138.92 250.55,-128.55 245.77,-138.01 252.71,-138.92"/>
</g>
<!-- Node15&#45;&gt;Node11 -->
<g id="edge16" class="edge">
<title>Node15&#45;&gt;Node11</title>
<path fill="none" stroke="midnightblue" d="M46.18,-165.22C52.25,-157.55 61.46,-145.94 68.96,-136.47"/>
<polygon fill="midnightblue" stroke="midnightblue" points="71.77,-138.56 75.24,-128.55 66.28,-134.21 71.77,-138.56"/>
</g>
<!-- Node15&#45;&gt;Node13 -->
<g id="edge17" class="edge">
<title>Node15&#45;&gt;Node13</title>
<path fill="none" stroke="midnightblue" d="M36.8,-165.22C34.36,-158.02 30.73,-147.35 27.64,-138.23"/>
<polygon fill="midnightblue" stroke="midnightblue" points="30.88,-136.89 24.35,-128.55 24.25,-139.14 30.88,-136.89"/>
</g>
<!-- Node18 -->
<g id="node18" class="node">
<title>Node18</title>
<g id="a_node18"><a xlink:href="../../d2/d68/_cmd_chr_8h.html" target="_top" xlink:title=" ">
<polygon fill="none" stroke="black" points="241.11,-220.5 241.11,-238.5 302.13,-238.5 302.13,-220.5 241.11,-220.5"/>
<text text-anchor="middle" x="271.62" y="-226.5" font-family="Helvetica,sans-Serif" font-size="10.00">CmdChr.h</text>
</a>
</g>
</g>
<!-- Node17&#45;&gt;Node18 -->
<g id="edge20" class="edge">
<title>Node17&#45;&gt;Node18</title>
<path fill="none" stroke="midnightblue" d="M218.18,-275.45C227.71,-267.43 242.56,-254.95 254.18,-245.17"/>
<polygon fill="midnightblue" stroke="midnightblue" points="256.56,-247.74 261.96,-238.63 252.05,-242.38 256.56,-247.74"/>
</g>
<!-- Node21 -->
<g id="node21" class="node">
<title>Node21</title>
<g id="a_node21"><a xlink:title=" ">
<polygon fill="none" stroke="#bfbfbf" points="194.12,-220.5 194.12,-238.5 223.12,-238.5 223.12,-220.5 194.12,-220.5"/>
<text text-anchor="middle" x="208.23" y="-226.5" font-family="Helvetica,sans-Serif" font-size="10.00">list</text>
</a>
</g>
</g>
<!-- Node17&#45;&gt;Node21 -->
<g id="edge25" class="edge">
<title>Node17&#45;&gt;Node21</title>
<path fill="none" stroke="midnightblue" d="M208.62,-275.22C208.62,-268.18 208.62,-257.81 208.62,-248.83"/>
<polygon fill="midnightblue" stroke="midnightblue" points="212.12,-248.55 208.62,-238.55 205.12,-248.55 212.12,-248.55"/>
</g>
<!-- Node18&#45;&gt;Node14 -->
<g id="edge24" class="edge">
<title>Node18&#45;&gt;Node14</title>
<path fill="none" stroke="midnightblue" d="M267.4,-220.22C263.65,-212.86 258.05,-201.88 253.35,-192.64"/>
<polygon fill="midnightblue" stroke="midnightblue" points="256.37,-190.87 248.72,-183.55 250.14,-194.05 256.37,-190.87"/>
</g>
<!-- Node19 -->
<g id="node19" class="node">
<title>Node19</title>
<g id="a_node19"><a xlink:href="../../d8/d47/codepoint_8h.html" target="_top" xlink:title=" ">
<polygon fill="none" stroke="black" points="289.76,-165.5 289.76,-183.5 357.47,-183.5 357.47,-165.5 289.76,-165.5"/>
<text text-anchor="middle" x="323.62" y="-171.5" font-family="Helvetica,sans-Serif" font-size="10.00">codepoint.h</text>
</a>
</g>
</g>
<!-- Node18&#45;&gt;Node19 -->
<g id="edge21" class="edge">
<title>Node18&#45;&gt;Node19</title>
<path fill="none" stroke="midnightblue" d="M279.74,-220.22C287.42,-212.39 299.12,-200.46 308.51,-190.89"/>
<polygon fill="midnightblue" stroke="midnightblue" points="311.21,-193.14 315.72,-183.55 306.22,-188.24 311.21,-193.14"/>
</g>
<!-- Node19&#45;&gt;Node7 -->
<g id="edge22" class="edge">
<title>Node19&#45;&gt;Node7</title>
<path fill="none" stroke="midnightblue" d="M320.23,-165.38C313,-148.03 295.89,-106.96 286.01,-83.24"/>
<polygon fill="midnightblue" stroke="midnightblue" points="289.11,-81.6 282.04,-73.71 282.65,-84.29 289.11,-81.6"/>
</g>
<!-- Node20 -->
<g id="node20" class="node">
<title>Node20</title>
<g id="a_node20"><a xlink:title=" ">
<polygon fill="none" stroke="#bfbfbf" points="335.1,-110.5 335.1,-128.5 386.13,-128.5 386.13,-110.5 335.1,-110.5"/>
<text text-anchor="middle" x="360.62" y="-116.5" font-family="Helvetica,sans-Serif" font-size="10.00">optional</text>
</a>
</g>
</g>
<!-- Node19&#45;&gt;Node20 -->
<g id="edge23" class="edge">
<title>Node19&#45;&gt;Node20</title>
<path fill="none" stroke="midnightblue" d="M329.4,-165.22C334.7,-157.63 342.69,-146.18 349.26,-136.76"/>
<polygon fill="midnightblue" stroke="midnightblue" points="352.14,-138.75 355,-128.55 346.4,-134.75 352.14,-138.75"/>
</g>
</g>
</svg>
