<?xml version="1.0" encoding="UTF-8" standalone="no"?>
<!DOCTYPE svg PUBLIC "-//W3C//DTD SVG 1.1//EN"
 "http://www.w3.org/Graphics/SVG/1.1/DTD/svg11.dtd">
<!-- Generated by graphviz version 2.43.0 (0)
 -->
<!-- Title: txio.h Pages: 1 -->
<svg width="2405pt" height="247pt"
 viewBox="0.00 0.00 2405.12 247.00" xmlns="http://www.w3.org/2000/svg" xmlns:xlink="http://www.w3.org/1999/xlink">
<g id="graph0" class="graph" transform="scale(1 1) rotate(0) translate(4 243)">
<title>txio.h</title>
<polygon fill="white" stroke="transparent" points="-4,4 -4,-243 2401.12,-243 2401.12,4 -4,4"/>
<!-- Node1 -->
<g id="node1" class="node">
<title>Node1</title>
<g id="a_node1"><a xlink:title=" ">
<polygon fill="#bfbfbf" stroke="black" points="1252.78,-220.5 1252.78,-238.5 1292.68,-238.5 1292.68,-220.5 1252.78,-220.5"/>
<text text-anchor="middle" x="1272.73" y="-226.5" font-family="Helvetica,sans-Serif" font-size="10.00">txio.h</text>
</a>
</g>
</g>
<!-- Node2 -->
<g id="node2" class="node">
<title>Node2</title>
<g id="a_node2"><a xlink:href="../../d5/d08/txparam_8h.html" target="_top" xlink:title=" ">
<polygon fill="white" stroke="black" points="1213.5,-165.5 1213.5,-183.5 1273.96,-183.5 1273.96,-165.5 1213.5,-165.5"/>
<text text-anchor="middle" x="1243.73" y="-171.5" font-family="Helvetica,sans-Serif" font-size="10.00">txparam.h</text>
</a>
</g>
</g>
<!-- Node1&#45;&gt;Node2 -->
<g id="edge1" class="edge">
<title>Node1&#45;&gt;Node2</title>
<path fill="none" stroke="midnightblue" d="M1263.35,-211.36C1258.24,-202.02 1252.16,-190.9 1248.14,-183.55"/>
<polygon fill="midnightblue" stroke="midnightblue" points="1260.33,-213.13 1268.2,-220.22 1266.47,-209.77 1260.33,-213.13"/>
</g>
<!-- Node37 -->
<g id="node37" class="node">
<title>Node37</title>
<g id="a_node37"><a xlink:href="../../d2/d1b/txparser_8h.html" target="_top" xlink:title=" ">
<polygon fill="white" stroke="black" points="1280.77,-110.5 1280.77,-128.5 1340.69,-128.5 1340.69,-110.5 1280.77,-110.5"/>
<text text-anchor="middle" x="1310.73" y="-116.5" font-family="Helvetica,sans-Serif" font-size="10.00">txparser.h</text>
</a>
</g>
</g>
<!-- Node1&#45;&gt;Node37 -->
<g id="edge36" class="edge">
<title>Node1&#45;&gt;Node37</title>
<path fill="none" stroke="midnightblue" d="M1278.93,-210.89C1287.25,-187.23 1301.71,-146.15 1307.84,-128.71"/>
<polygon fill="midnightblue" stroke="midnightblue" points="1275.61,-209.79 1275.59,-220.38 1282.21,-212.11 1275.61,-209.79"/>
</g>
<!-- Node3 -->
<g id="node3" class="node">
<title>Node3</title>
<g id="a_node3"><a xlink:href="../../d7/d79/txinline_8h.html" target="_top" xlink:title=" ">
<polygon fill="white" stroke="black" points="1207,-110.5 1207,-128.5 1262.47,-128.5 1262.47,-110.5 1207,-110.5"/>
<text text-anchor="middle" x="1234.73" y="-116.5" font-family="Helvetica,sans-Serif" font-size="10.00">txinline.h</text>
</a>
</g>
</g>
<!-- Node2&#45;&gt;Node3 -->
<g id="edge2" class="edge">
<title>Node2&#45;&gt;Node3</title>
<path fill="none" stroke="midnightblue" d="M1240.62,-155.17C1239.08,-146.09 1237.29,-135.59 1236.1,-128.55"/>
<polygon fill="midnightblue" stroke="midnightblue" points="1237.2,-155.95 1242.33,-165.22 1244.1,-154.77 1237.2,-155.95"/>
</g>
<!-- Node4 -->
<g id="node4" class="node">
<title>Node4</title>
<g id="a_node4"><a xlink:href="../../d4/dbc/_istring_8_c.html" target="_top" xlink:title=" ">
<polygon fill="white" stroke="black" points="63.12,-55.5 63.12,-73.5 116.35,-73.5 116.35,-55.5 63.12,-55.5"/>
<text text-anchor="middle" x="89.73" y="-61.5" font-family="Helvetica,sans-Serif" font-size="10.00">Istring.C</text>
</a>
</g>
</g>
<!-- Node3&#45;&gt;Node4 -->
<g id="edge3" class="edge">
<title>Node3&#45;&gt;Node4</title>
<path fill="none" stroke="midnightblue" d="M1196.43,-117.95C1026.44,-115.35 339.27,-103.22 125.73,-74 122.68,-73.58 119.5,-73.02 116.36,-72.39"/>
<polygon fill="midnightblue" stroke="midnightblue" points="1196.59,-121.45 1206.64,-118.1 1196.69,-114.45 1196.59,-121.45"/>
</g>
<!-- Node5 -->
<g id="node5" class="node">
<title>Node5</title>
<g id="a_node5"><a xlink:href="../../dc/d29/tralics_8_c.html" target="_top" xlink:title=" ">
<polygon fill="white" stroke="black" points="1057.67,-55.5 1057.67,-73.5 1109.79,-73.5 1109.79,-55.5 1057.67,-55.5"/>
<text text-anchor="middle" x="1083.73" y="-61.5" font-family="Helvetica,sans-Serif" font-size="10.00">tralics.C</text>
</a>
</g>
</g>
<!-- Node3&#45;&gt;Node5 -->
<g id="edge4" class="edge">
<title>Node3&#45;&gt;Node5</title>
<path fill="none" stroke="midnightblue" d="M1202.21,-107.08C1173.5,-97.01 1132.36,-82.57 1106.88,-73.63"/>
<polygon fill="midnightblue" stroke="midnightblue" points="1201.2,-110.44 1211.8,-110.45 1203.52,-103.84 1201.2,-110.44"/>
</g>
<!-- Node6 -->
<g id="node6" class="node">
<title>Node6</title>
<g id="a_node6"><a xlink:href="../../d5/d10/txaccent_8_c.html" target="_top" xlink:title=" ">
<polygon fill="white" stroke="black" points="1128.11,-55.5 1128.11,-73.5 1191.35,-73.5 1191.35,-55.5 1128.11,-55.5"/>
<text text-anchor="middle" x="1159.73" y="-61.5" font-family="Helvetica,sans-Serif" font-size="10.00">txaccent.C</text>
</a>
</g>
</g>
<!-- Node3&#45;&gt;Node6 -->
<g id="edge5" class="edge">
<title>Node3&#45;&gt;Node6</title>
<path fill="none" stroke="midnightblue" d="M1214.91,-104.49C1200.98,-94.65 1182.83,-81.83 1171.23,-73.63"/>
<polygon fill="midnightblue" stroke="midnightblue" points="1213.15,-107.54 1223.34,-110.45 1217.19,-101.82 1213.15,-107.54"/>
</g>
<!-- Node7 -->
<g id="node7" class="node">
<title>Node7</title>
<g id="a_node7"><a xlink:href="../../df/de6/txarray_8_c.html" target="_top" xlink:title=" ">
<polygon fill="white" stroke="black" points="1209.82,-55.5 1209.82,-73.5 1265.64,-73.5 1265.64,-55.5 1209.82,-55.5"/>
<text text-anchor="middle" x="1237.73" y="-61.5" font-family="Helvetica,sans-Serif" font-size="10.00">txarray.C</text>
</a>
</g>
</g>
<!-- Node3&#45;&gt;Node7 -->
<g id="edge6" class="edge">
<title>Node3&#45;&gt;Node7</title>
<path fill="none" stroke="midnightblue" d="M1235.77,-100.17C1236.28,-91.09 1236.88,-80.59 1237.28,-73.55"/>
<polygon fill="midnightblue" stroke="midnightblue" points="1232.27,-100.04 1235.2,-110.22 1239.26,-100.43 1232.27,-100.04"/>
</g>
<!-- Node8 -->
<g id="node8" class="node">
<title>Node8</title>
<g id="a_node8"><a xlink:href="../../db/df0/txatt_8_c.html" target="_top" xlink:title=" ">
<polygon fill="white" stroke="black" points="134.28,-55.5 134.28,-73.5 179.18,-73.5 179.18,-55.5 134.28,-55.5"/>
<text text-anchor="middle" x="156.73" y="-61.5" font-family="Helvetica,sans-Serif" font-size="10.00">txatt.C</text>
</a>
</g>
</g>
<!-- Node3&#45;&gt;Node8 -->
<g id="edge7" class="edge">
<title>Node3&#45;&gt;Node8</title>
<path fill="none" stroke="midnightblue" d="M1196.7,-118.03C1033.04,-115.83 388.03,-105.31 187.73,-74 184.97,-73.57 182.11,-72.98 179.29,-72.32"/>
<polygon fill="midnightblue" stroke="midnightblue" points="1196.73,-121.53 1206.77,-118.16 1196.82,-114.53 1196.73,-121.53"/>
</g>
<!-- Node9 -->
<g id="node9" class="node">
<title>Node9</title>
<g id="a_node9"><a xlink:href="../../dd/dce/txaux_8_c.html" target="_top" xlink:title=" ">
<polygon fill="white" stroke="black" points="1283.78,-55.5 1283.78,-73.5 1333.68,-73.5 1333.68,-55.5 1283.78,-55.5"/>
<text text-anchor="middle" x="1308.73" y="-61.5" font-family="Helvetica,sans-Serif" font-size="10.00">txaux.C</text>
</a>
</g>
</g>
<!-- Node3&#45;&gt;Node9 -->
<g id="edge8" class="edge">
<title>Node3&#45;&gt;Node9</title>
<path fill="none" stroke="midnightblue" d="M1254.29,-104.49C1268.03,-94.65 1285.94,-81.83 1297.39,-73.63"/>
<polygon fill="midnightblue" stroke="midnightblue" points="1252.06,-101.78 1245.97,-110.45 1256.14,-107.47 1252.06,-101.78"/>
</g>
<!-- Node10 -->
<g id="node10" class="node">
<title>Node10</title>
<g id="a_node10"><a xlink:href="../../d6/dcb/txbib_8h.html" target="_top" xlink:title=" ">
<polygon fill="white" stroke="black" points="0,-55.5 0,-73.5 45.46,-73.5 45.46,-55.5 0,-55.5"/>
<text text-anchor="middle" x="22.73" y="-61.5" font-family="Helvetica,sans-Serif" font-size="10.00">txbib.h</text>
</a>
</g>
</g>
<!-- Node3&#45;&gt;Node10 -->
<g id="edge9" class="edge">
<title>Node3&#45;&gt;Node10</title>
<path fill="none" stroke="midnightblue" d="M1196.79,-118.24C1020.66,-116.87 281.78,-109.08 53.73,-74 51.08,-73.59 48.34,-73.04 45.63,-72.41"/>
<polygon fill="midnightblue" stroke="midnightblue" points="1196.84,-121.74 1206.87,-118.32 1196.89,-114.74 1196.84,-121.74"/>
</g>
<!-- Node12 -->
<g id="node12" class="node">
<title>Node12</title>
<g id="a_node12"><a xlink:href="../../d4/df2/txbuffer_8_c.html" target="_top" xlink:title=" ">
<polygon fill="white" stroke="black" points="1351.42,-55.5 1351.42,-73.5 1410.04,-73.5 1410.04,-55.5 1351.42,-55.5"/>
<text text-anchor="middle" x="1380.73" y="-61.5" font-family="Helvetica,sans-Serif" font-size="10.00">txbuffer.C</text>
</a>
</g>
</g>
<!-- Node3&#45;&gt;Node12 -->
<g id="edge11" class="edge">
<title>Node3&#45;&gt;Node12</title>
<path fill="none" stroke="midnightblue" d="M1266.54,-106.95C1294.28,-96.88 1333.82,-82.53 1358.35,-73.63"/>
<polygon fill="midnightblue" stroke="midnightblue" points="1265.11,-103.75 1256.91,-110.45 1267.5,-110.33 1265.11,-103.75"/>
</g>
<!-- Node13 -->
<g id="node13" class="node">
<title>Node13</title>
<g id="a_node13"><a xlink:href="../../de/ddd/txclasses_8_c.html" target="_top" xlink:title=" ">
<polygon fill="white" stroke="black" points="1428.17,-55.5 1428.17,-73.5 1495.29,-73.5 1495.29,-55.5 1428.17,-55.5"/>
<text text-anchor="middle" x="1461.73" y="-61.5" font-family="Helvetica,sans-Serif" font-size="10.00">txclasses.C</text>
</a>
</g>
</g>
<!-- Node3&#45;&gt;Node13 -->
<g id="edge12" class="edge">
<title>Node3&#45;&gt;Node13</title>
<path fill="none" stroke="midnightblue" d="M1272.45,-109.69C1315.87,-99.55 1386.53,-83.06 1428.13,-73.35"/>
<polygon fill="midnightblue" stroke="midnightblue" points="1271.51,-106.32 1262.57,-112 1273.1,-113.14 1271.51,-106.32"/>
</g>
<!-- Node14 -->
<g id="node14" class="node">
<title>Node14</title>
<g id="a_node14"><a xlink:href="../../d4/d1e/txcommands_8_c.html" target="_top" xlink:title=" ">
<polygon fill="white" stroke="black" points="1513.39,-55.5 1513.39,-73.5 1596.07,-73.5 1596.07,-55.5 1513.39,-55.5"/>
<text text-anchor="middle" x="1554.73" y="-61.5" font-family="Helvetica,sans-Serif" font-size="10.00">txcommands.C</text>
</a>
</g>
</g>
<!-- Node3&#45;&gt;Node14 -->
<g id="edge13" class="edge">
<title>Node3&#45;&gt;Node14</title>
<path fill="none" stroke="midnightblue" d="M1272.51,-109.97C1376.32,-90.27 1404.43,-90.27 1504.73,-74 1507.51,-73.55 1510.38,-73.08 1513.27,-72.6"/>
<polygon fill="midnightblue" stroke="midnightblue" points="1271.73,-106.56 1262.57,-111.88 1273.05,-113.44 1271.73,-106.56"/>
</g>
<!-- Node15 -->
<g id="node15" class="node">
<title>Node15</title>
<g id="a_node15"><a xlink:href="../../d9/d64/txconfig_8_c.html" target="_top" xlink:title=" ">
<polygon fill="white" stroke="black" points="1614.5,-55.5 1614.5,-73.5 1674.96,-73.5 1674.96,-55.5 1614.5,-55.5"/>
<text text-anchor="middle" x="1644.73" y="-61.5" font-family="Helvetica,sans-Serif" font-size="10.00">txconfig.C</text>
</a>
</g>
</g>
<!-- Node3&#45;&gt;Node15 -->
<g id="edge14" class="edge">
<title>Node3&#45;&gt;Node15</title>
<path fill="none" stroke="midnightblue" d="M1272.44,-110.09C1420.26,-85.8 1460.89,-97 1604.73,-74 1607.82,-73.51 1611.02,-72.93 1614.22,-72.32"/>
<polygon fill="midnightblue" stroke="midnightblue" points="1271.83,-106.64 1262.54,-111.74 1272.98,-113.55 1271.83,-106.64"/>
</g>
<!-- Node16 -->
<g id="node16" class="node">
<title>Node16</title>
<g id="a_node16"><a xlink:href="../../d1/d79/txerr_8_c.html" target="_top" xlink:title=" ">
<polygon fill="white" stroke="black" points="1693,-55.5 1693,-73.5 1738.46,-73.5 1738.46,-55.5 1693,-55.5"/>
<text text-anchor="middle" x="1715.73" y="-61.5" font-family="Helvetica,sans-Serif" font-size="10.00">txerr.C</text>
</a>
</g>
</g>
<!-- Node3&#45;&gt;Node16 -->
<g id="edge15" class="edge">
<title>Node3&#45;&gt;Node16</title>
<path fill="none" stroke="midnightblue" d="M1272.46,-110.13C1455.07,-82.19 1505.86,-105.15 1683.73,-74 1686.68,-73.48 1689.74,-72.83 1692.76,-72.11"/>
<polygon fill="midnightblue" stroke="midnightblue" points="1271.87,-106.68 1262.53,-111.68 1272.95,-113.6 1271.87,-106.68"/>
</g>
<!-- Node17 -->
<g id="node17" class="node">
<title>Node17</title>
<g id="a_node17"><a xlink:href="../../d7/d0d/txfonts_8_c.html" target="_top" xlink:title=" ">
<polygon fill="white" stroke="black" points="1756,-55.5 1756,-73.5 1811.46,-73.5 1811.46,-55.5 1756,-55.5"/>
<text text-anchor="middle" x="1783.73" y="-61.5" font-family="Helvetica,sans-Serif" font-size="10.00">txfonts.C</text>
</a>
</g>
</g>
<!-- Node3&#45;&gt;Node17 -->
<g id="edge16" class="edge">
<title>Node3&#45;&gt;Node17</title>
<path fill="none" stroke="midnightblue" d="M1272.67,-110.12C1483.29,-79.03 1541.35,-105.97 1747.73,-74 1750.4,-73.59 1753.16,-73.08 1755.91,-72.52"/>
<polygon fill="midnightblue" stroke="midnightblue" points="1271.89,-106.7 1262.53,-111.64 1272.93,-113.62 1271.89,-106.7"/>
</g>
<!-- Node18 -->
<g id="node18" class="node">
<title>Node18</title>
<g id="a_node18"><a xlink:href="../../d1/dcd/txfp_8_c.html" target="_top" xlink:title=" ">
<polygon fill="white" stroke="black" points="1829.67,-55.5 1829.67,-73.5 1871.79,-73.5 1871.79,-55.5 1829.67,-55.5"/>
<text text-anchor="middle" x="1850.73" y="-61.5" font-family="Helvetica,sans-Serif" font-size="10.00">txfp.C</text>
</a>
</g>
</g>
<!-- Node3&#45;&gt;Node18 -->
<g id="edge17" class="edge">
<title>Node3&#45;&gt;Node18</title>
<path fill="none" stroke="midnightblue" d="M1272.72,-110.13C1515.51,-75.62 1583.06,-114.99 1820.73,-74 1823.61,-73.5 1826.61,-72.84 1829.55,-72.1"/>
<polygon fill="midnightblue" stroke="midnightblue" points="1271.92,-106.71 1262.52,-111.61 1272.92,-113.64 1271.92,-106.71"/>
</g>
<!-- Node19 -->
<g id="node19" class="node">
<title>Node19</title>
<g id="a_node19"><a xlink:href="../../d8/dc2/txio_8_c.html" target="_top" xlink:title=" ">
<polygon fill="white" stroke="black" points="1889.95,-55.5 1889.95,-73.5 1931.51,-73.5 1931.51,-55.5 1889.95,-55.5"/>
<text text-anchor="middle" x="1910.73" y="-61.5" font-family="Helvetica,sans-Serif" font-size="10.00">txio.C</text>
</a>
</g>
</g>
<!-- Node3&#45;&gt;Node19 -->
<g id="edge18" class="edge">
<title>Node3&#45;&gt;Node19</title>
<path fill="none" stroke="midnightblue" d="M1272.59,-110.16C1541.94,-72.66 1616.65,-118.67 1880.73,-74 1883.72,-73.49 1886.84,-72.8 1889.88,-72.03"/>
<polygon fill="midnightblue" stroke="midnightblue" points="1271.93,-106.72 1262.52,-111.59 1272.91,-113.65 1271.93,-106.72"/>
</g>
<!-- Node20 -->
<g id="node20" class="node">
<title>Node20</title>
<g id="a_node20"><a xlink:href="../../dc/dcd/txl3_8_c.html" target="_top" xlink:title=" ">
<polygon fill="white" stroke="black" points="1949.95,-55.5 1949.95,-73.5 1991.51,-73.5 1991.51,-55.5 1949.95,-55.5"/>
<text text-anchor="middle" x="1970.73" y="-61.5" font-family="Helvetica,sans-Serif" font-size="10.00">txl3.C</text>
</a>
</g>
</g>
<!-- Node3&#45;&gt;Node20 -->
<g id="edge19" class="edge">
<title>Node3&#45;&gt;Node20</title>
<path fill="none" stroke="midnightblue" d="M1272.68,-110.16C1568.42,-69.72 1650.31,-122.34 1940.73,-74 1943.72,-73.5 1946.84,-72.82 1949.89,-72.05"/>
<polygon fill="midnightblue" stroke="midnightblue" points="1271.94,-106.73 1262.52,-111.58 1272.9,-113.67 1271.94,-106.73"/>
</g>
<!-- Node21 -->
<g id="node21" class="node">
<title>Node21</title>
<g id="a_node21"><a xlink:href="../../d4/da2/txmain_8_c.html" target="_top" xlink:title=" ">
<polygon fill="white" stroke="black" points="2010,-55.5 2010,-73.5 2065.46,-73.5 2065.46,-55.5 2010,-55.5"/>
<text text-anchor="middle" x="2037.73" y="-61.5" font-family="Helvetica,sans-Serif" font-size="10.00">txmain.C</text>
</a>
</g>
</g>
<!-- Node3&#45;&gt;Node21 -->
<g id="edge20" class="edge">
<title>Node3&#45;&gt;Node21</title>
<path fill="none" stroke="midnightblue" d="M1272.61,-110.18C1594.86,-66.59 1682.7,-118.03 2000.73,-74 2003.73,-73.58 2006.85,-73.04 2009.95,-72.44"/>
<polygon fill="midnightblue" stroke="midnightblue" points="1271.95,-106.74 1262.51,-111.56 1272.9,-113.67 1271.95,-106.74"/>
</g>
<!-- Node22 -->
<g id="node22" class="node">
<title>Node22</title>
<g id="a_node22"><a xlink:href="../../db/d96/txmath_8_c.html" target="_top" xlink:title=" ">
<polygon fill="white" stroke="black" points="2083.73,-55.5 2083.73,-73.5 2139.74,-73.5 2139.74,-55.5 2083.73,-55.5"/>
<text text-anchor="middle" x="2111.73" y="-61.5" font-family="Helvetica,sans-Serif" font-size="10.00">txmath.C</text>
</a>
</g>
</g>
<!-- Node3&#45;&gt;Node22 -->
<g id="edge21" class="edge">
<title>Node3&#45;&gt;Node22</title>
<path fill="none" stroke="midnightblue" d="M1272.55,-110.19C1627.5,-62.92 1724.03,-121.74 2074.73,-74 2077.6,-73.61 2080.58,-73.1 2083.55,-72.53"/>
<polygon fill="midnightblue" stroke="midnightblue" points="1271.95,-106.74 1262.51,-111.55 1272.89,-113.68 1271.95,-106.74"/>
</g>
<!-- Node23 -->
<g id="node23" class="node">
<title>Node23</title>
<g id="a_node23"><a xlink:href="../../d8/dc6/txmath1_8_c.html" target="_top" xlink:title=" ">
<polygon fill="white" stroke="black" points="2157.95,-55.5 2157.95,-73.5 2219.52,-73.5 2219.52,-55.5 2157.95,-55.5"/>
<text text-anchor="middle" x="2188.73" y="-61.5" font-family="Helvetica,sans-Serif" font-size="10.00">txmath1.C</text>
</a>
</g>
</g>
<!-- Node3&#45;&gt;Node23 -->
<g id="edge22" class="edge">
<title>Node3&#45;&gt;Node23</title>
<path fill="none" stroke="midnightblue" d="M1272.59,-110.19C1660.16,-59.2 1764.99,-122.3 2148.73,-74 2151.69,-73.63 2154.75,-73.15 2157.81,-72.61"/>
<polygon fill="midnightblue" stroke="midnightblue" points="1271.96,-106.75 1262.51,-111.54 1272.89,-113.69 1271.96,-106.75"/>
</g>
<!-- Node24 -->
<g id="node24" class="node">
<title>Node24</title>
<g id="a_node24"><a xlink:href="../../d7/dd3/txmathboot_8_c.html" target="_top" xlink:title=" ">
<polygon fill="white" stroke="black" points="2238,-55.5 2238,-73.5 2313.47,-73.5 2313.47,-55.5 2238,-55.5"/>
<text text-anchor="middle" x="2275.73" y="-61.5" font-family="Helvetica,sans-Serif" font-size="10.00">txmathboot.C</text>
</a>
</g>
</g>
<!-- Node3&#45;&gt;Node24 -->
<g id="edge23" class="edge">
<title>Node3&#45;&gt;Node24</title>
<path fill="none" stroke="midnightblue" d="M1272.56,-110.21C1695.45,-55.13 1808.89,-119.63 2228.73,-74 2231.7,-73.68 2234.76,-73.28 2237.83,-72.83"/>
<polygon fill="midnightblue" stroke="midnightblue" points="1271.97,-106.75 1262.51,-111.53 1272.88,-113.69 1271.97,-106.75"/>
</g>
<!-- Node25 -->
<g id="node25" class="node">
<title>Node25</title>
<g id="a_node25"><a xlink:href="../../dd/d48/txmlio_8_c.html" target="_top" xlink:title=" ">
<polygon fill="white" stroke="black" points="2331.67,-55.5 2331.67,-73.5 2383.79,-73.5 2383.79,-55.5 2331.67,-55.5"/>
<text text-anchor="middle" x="2357.73" y="-61.5" font-family="Helvetica,sans-Serif" font-size="10.00">txmlio.C</text>
</a>
</g>
</g>
<!-- Node3&#45;&gt;Node25 -->
<g id="edge24" class="edge">
<title>Node3&#45;&gt;Node25</title>
<path fill="none" stroke="midnightblue" d="M1272.5,-110.22C1736.95,-50.64 1862.96,-137.03 2322.73,-74 2325.58,-73.61 2328.54,-73.08 2331.47,-72.49"/>
<polygon fill="midnightblue" stroke="midnightblue" points="1271.97,-106.76 1262.51,-111.52 1272.88,-113.7 1271.97,-106.76"/>
</g>
<!-- Node26 -->
<g id="node26" class="node">
<title>Node26</title>
<g id="a_node26"><a xlink:href="../../d7/dc3/txparser_8_c.html" target="_top" xlink:title=" ">
<polygon fill="white" stroke="black" points="196.94,-55.5 196.94,-73.5 258.52,-73.5 258.52,-55.5 196.94,-55.5"/>
<text text-anchor="middle" x="227.73" y="-61.5" font-family="Helvetica,sans-Serif" font-size="10.00">txparser.C</text>
</a>
</g>
</g>
<!-- Node3&#45;&gt;Node26 -->
<g id="edge25" class="edge">
<title>Node3&#45;&gt;Node26</title>
<path fill="none" stroke="midnightblue" d="M1196.65,-118.97C1066.4,-120.13 626.86,-120.11 267.73,-74 264.77,-73.62 261.71,-73.14 258.65,-72.59"/>
<polygon fill="midnightblue" stroke="midnightblue" points="1196.93,-122.47 1206.89,-118.88 1196.86,-115.47 1196.93,-122.47"/>
</g>
<!-- Node27 -->
<g id="node27" class="node">
<title>Node27</title>
<g id="a_node27"><a xlink:href="../../d5/d2e/txparser2_8_c.html" target="_top" xlink:title=" ">
<polygon fill="white" stroke="black" points="276.89,-55.5 276.89,-73.5 344.57,-73.5 344.57,-55.5 276.89,-55.5"/>
<text text-anchor="middle" x="310.73" y="-61.5" font-family="Helvetica,sans-Serif" font-size="10.00">txparser2.C</text>
</a>
</g>
</g>
<!-- Node3&#45;&gt;Node27 -->
<g id="edge26" class="edge">
<title>Node3&#45;&gt;Node27</title>
<path fill="none" stroke="midnightblue" d="M1196.83,-118.54C1074.34,-118.25 678.28,-114.06 353.73,-74 350.86,-73.65 347.9,-73.21 344.93,-72.72"/>
<polygon fill="midnightblue" stroke="midnightblue" points="1196.83,-122.04 1206.83,-118.56 1196.84,-115.04 1196.83,-122.04"/>
</g>
<!-- Node28 -->
<g id="node28" class="node">
<title>Node28</title>
<g id="a_node28"><a xlink:href="../../d4/d5c/txparser3_8_c.html" target="_top" xlink:title=" ">
<polygon fill="white" stroke="black" points="362.89,-55.5 362.89,-73.5 430.57,-73.5 430.57,-55.5 362.89,-55.5"/>
<text text-anchor="middle" x="396.73" y="-61.5" font-family="Helvetica,sans-Serif" font-size="10.00">txparser3.C</text>
</a>
</g>
</g>
<!-- Node3&#45;&gt;Node28 -->
<g id="edge27" class="edge">
<title>Node3&#45;&gt;Node28</title>
<path fill="none" stroke="midnightblue" d="M1196.76,-118.25C1082.07,-117.08 729.33,-110.55 439.73,-74 436.86,-73.64 433.9,-73.2 430.93,-72.71"/>
<polygon fill="midnightblue" stroke="midnightblue" points="1196.76,-121.75 1206.79,-118.34 1196.83,-114.75 1196.76,-121.75"/>
</g>
<!-- Node29 -->
<g id="node29" class="node">
<title>Node29</title>
<g id="a_node29"><a xlink:href="../../db/d66/txpost_8_c.html" target="_top" xlink:title=" ">
<polygon fill="white" stroke="black" points="448.39,-55.5 448.39,-73.5 501.07,-73.5 501.07,-55.5 448.39,-55.5"/>
<text text-anchor="middle" x="474.73" y="-61.5" font-family="Helvetica,sans-Serif" font-size="10.00">txpost.C</text>
</a>
</g>
</g>
<!-- Node3&#45;&gt;Node29 -->
<g id="edge28" class="edge">
<title>Node3&#45;&gt;Node29</title>
<path fill="none" stroke="midnightblue" d="M1196.87,-118.44C1089.02,-117.78 771.15,-112.46 510.73,-74 507.68,-73.55 504.51,-72.97 501.37,-72.32"/>
<polygon fill="midnightblue" stroke="midnightblue" points="1196.92,-121.94 1206.94,-118.49 1196.95,-114.94 1196.92,-121.94"/>
</g>
<!-- Node30 -->
<g id="node30" class="node">
<title>Node30</title>
<g id="a_node30"><a xlink:href="../../dc/d4c/txra_8_c.html" target="_top" xlink:title=" ">
<polygon fill="white" stroke="black" points="519.4,-55.5 519.4,-73.5 562.07,-73.5 562.07,-55.5 519.4,-55.5"/>
<text text-anchor="middle" x="540.73" y="-61.5" font-family="Helvetica,sans-Serif" font-size="10.00">txra.C</text>
</a>
</g>
</g>
<!-- Node3&#45;&gt;Node30 -->
<g id="edge29" class="edge">
<title>Node3&#45;&gt;Node30</title>
<path fill="none" stroke="midnightblue" d="M1196.58,-118.6C1094.48,-118.31 806.84,-113.71 571.73,-74 568.65,-73.48 565.43,-72.78 562.29,-72"/>
<polygon fill="midnightblue" stroke="midnightblue" points="1196.7,-122.1 1206.71,-118.62 1196.71,-115.1 1196.7,-122.1"/>
</g>
<!-- Node31 -->
<g id="node31" class="node">
<title>Node31</title>
<g id="a_node31"><a xlink:href="../../d2/dee/txscan_8_c.html" target="_top" xlink:title=" ">
<polygon fill="white" stroke="black" points="580.28,-55.5 580.28,-73.5 635.18,-73.5 635.18,-55.5 580.28,-55.5"/>
<text text-anchor="middle" x="607.73" y="-61.5" font-family="Helvetica,sans-Serif" font-size="10.00">txscan.C</text>
</a>
</g>
</g>
<!-- Node3&#45;&gt;Node31 -->
<g id="edge30" class="edge">
<title>Node3&#45;&gt;Node31</title>
<path fill="none" stroke="midnightblue" d="M1196.68,-117.7C1102.43,-115.27 850.81,-106.04 643.73,-74 641.07,-73.59 638.31,-73.08 635.55,-72.52"/>
<polygon fill="midnightblue" stroke="midnightblue" points="1196.78,-121.2 1206.86,-117.95 1196.95,-114.2 1196.78,-121.2"/>
</g>
<!-- Node32 -->
<g id="node32" class="node">
<title>Node32</title>
<g id="a_node32"><a xlink:href="../../d3/df2/txstack_8_c.html" target="_top" xlink:title=" ">
<polygon fill="white" stroke="black" points="653.17,-55.5 653.17,-73.5 710.29,-73.5 710.29,-55.5 653.17,-55.5"/>
<text text-anchor="middle" x="681.73" y="-61.5" font-family="Helvetica,sans-Serif" font-size="10.00">txstack.C</text>
</a>
</g>
</g>
<!-- Node3&#45;&gt;Node32 -->
<g id="edge31" class="edge">
<title>Node3&#45;&gt;Node32</title>
<path fill="none" stroke="midnightblue" d="M1196.85,-117.05C1111.21,-113.37 896.3,-101.91 718.73,-74 716,-73.57 713.16,-73.05 710.34,-72.49"/>
<polygon fill="midnightblue" stroke="midnightblue" points="1196.74,-120.55 1206.88,-117.47 1197.03,-113.55 1196.74,-120.55"/>
</g>
<!-- Node33 -->
<g id="node33" class="node">
<title>Node33</title>
<g id="a_node33"><a xlink:href="../../da/d89/txtitlepage_8_c.html" target="_top" xlink:title=" ">
<polygon fill="white" stroke="black" points="727.94,-55.5 727.94,-73.5 799.52,-73.5 799.52,-55.5 727.94,-55.5"/>
<text text-anchor="middle" x="763.73" y="-61.5" font-family="Helvetica,sans-Serif" font-size="10.00">txtitlepage.C</text>
</a>
</g>
</g>
<!-- Node3&#45;&gt;Node33 -->
<g id="edge32" class="edge">
<title>Node3&#45;&gt;Node33</title>
<path fill="none" stroke="midnightblue" d="M1196.67,-115.59C1122.02,-109.64 951.27,-94.87 808.73,-74 805.74,-73.56 802.65,-73.07 799.55,-72.54"/>
<polygon fill="midnightblue" stroke="midnightblue" points="1196.73,-119.1 1206.97,-116.4 1197.28,-112.12 1196.73,-119.1"/>
</g>
<!-- Node34 -->
<g id="node34" class="node">
<title>Node34</title>
<g id="a_node34"><a xlink:href="../../d9/d1e/txtoken_8_c.html" target="_top" xlink:title=" ">
<polygon fill="white" stroke="black" points="817.61,-55.5 817.61,-73.5 875.85,-73.5 875.85,-55.5 817.61,-55.5"/>
<text text-anchor="middle" x="846.73" y="-61.5" font-family="Helvetica,sans-Serif" font-size="10.00">txtoken.C</text>
</a>
</g>
</g>
<!-- Node3&#45;&gt;Node34 -->
<g id="edge33" class="edge">
<title>Node3&#45;&gt;Node34</title>
<path fill="none" stroke="midnightblue" d="M1196.84,-114.86C1132.43,-108.4 997.61,-93.76 884.73,-74 881.93,-73.51 879.03,-72.95 876.14,-72.36"/>
<polygon fill="midnightblue" stroke="midnightblue" points="1196.63,-118.35 1206.92,-115.86 1197.32,-111.39 1196.63,-118.35"/>
</g>
<!-- Node35 -->
<g id="node35" class="node">
<title>Node35</title>
<g id="a_node35"><a xlink:href="../../d5/dda/txtranslate_8_c.html" target="_top" xlink:title=" ">
<polygon fill="white" stroke="black" points="893.67,-55.5 893.67,-73.5 965.8,-73.5 965.8,-55.5 893.67,-55.5"/>
<text text-anchor="middle" x="929.73" y="-61.5" font-family="Helvetica,sans-Serif" font-size="10.00">txtranslate.C</text>
</a>
</g>
</g>
<!-- Node3&#45;&gt;Node35 -->
<g id="edge34" class="edge">
<title>Node3&#45;&gt;Node35</title>
<path fill="none" stroke="midnightblue" d="M1196.44,-112.16C1145.7,-103.71 1053.42,-88.16 974.73,-74 971.91,-73.49 969,-72.96 966.07,-72.42"/>
<polygon fill="midnightblue" stroke="midnightblue" points="1196.18,-115.66 1206.62,-113.85 1197.33,-108.76 1196.18,-115.66"/>
</g>
<!-- Node36 -->
<g id="node36" class="node">
<title>Node36</title>
<g id="a_node36"><a xlink:href="../../da/d9e/txtrees_8_c.html" target="_top" xlink:title=" ">
<polygon fill="white" stroke="black" points="983.73,-55.5 983.73,-73.5 1039.74,-73.5 1039.74,-55.5 983.73,-55.5"/>
<text text-anchor="middle" x="1011.73" y="-61.5" font-family="Helvetica,sans-Serif" font-size="10.00">txtrees.C</text>
</a>
</g>
</g>
<!-- Node3&#45;&gt;Node36 -->
<g id="edge35" class="edge">
<title>Node3&#45;&gt;Node36</title>
<path fill="none" stroke="midnightblue" d="M1197.1,-109.56C1152.64,-98.99 1079.71,-81.66 1039.87,-72.19"/>
<polygon fill="midnightblue" stroke="midnightblue" points="1196.4,-112.99 1206.94,-111.89 1198.02,-106.18 1196.4,-112.99"/>
</g>
<!-- Node11 -->
<g id="node11" class="node">
<title>Node11</title>
<g id="a_node11"><a xlink:href="../../d1/d56/txbib_8_c.html" target="_top" xlink:title=" ">
<polygon fill="white" stroke="black" points="1193.17,-0.5 1193.17,-18.5 1240.29,-18.5 1240.29,-0.5 1193.17,-0.5"/>
<text text-anchor="middle" x="1216.73" y="-6.5" font-family="Helvetica,sans-Serif" font-size="10.00">txbib.C</text>
</a>
</g>
</g>
<!-- Node10&#45;&gt;Node11 -->
<g id="edge10" class="edge">
<title>Node10&#45;&gt;Node11</title>
<path fill="none" stroke="midnightblue" d="M55.73,-55.08C305.66,-19.17 1050.99,-11.78 1193.17,-10.67"/>
<polygon fill="midnightblue" stroke="midnightblue" points="55,-51.65 45.63,-56.59 56.03,-58.58 55,-51.65"/>
</g>
<!-- Node37&#45;&gt;Node5 -->
<g id="edge37" class="edge">
<title>Node37&#45;&gt;Node5</title>
<path fill="none" stroke="midnightblue" d="M1270.57,-109.32C1231.7,-100.41 1171.14,-86.44 1118.73,-74 1115.93,-73.34 1113.01,-72.64 1110.1,-71.93"/>
<polygon fill="midnightblue" stroke="midnightblue" points="1269.92,-112.76 1280.45,-111.58 1271.48,-105.94 1269.92,-112.76"/>
</g>
<!-- Node37&#45;&gt;Node6 -->
<g id="edge38" class="edge">
<title>Node37&#45;&gt;Node6</title>
<path fill="none" stroke="midnightblue" d="M1278.21,-107.08C1249.5,-97.01 1208.36,-82.57 1182.88,-73.63"/>
<polygon fill="midnightblue" stroke="midnightblue" points="1277.2,-110.44 1287.8,-110.45 1279.52,-103.84 1277.2,-110.44"/>
</g>
<!-- Node37&#45;&gt;Node7 -->
<g id="edge39" class="edge">
<title>Node37&#45;&gt;Node7</title>
<path fill="none" stroke="midnightblue" d="M1291.44,-104.49C1277.88,-94.65 1260.22,-81.83 1248.92,-73.63"/>
<polygon fill="midnightblue" stroke="midnightblue" points="1289.5,-107.41 1299.64,-110.45 1293.61,-101.74 1289.5,-107.41"/>
</g>
<!-- Node37&#45;&gt;Node9 -->
<g id="edge40" class="edge">
<title>Node37&#45;&gt;Node9</title>
<path fill="none" stroke="midnightblue" d="M1310.04,-100.17C1309.7,-91.09 1309.3,-80.59 1309.04,-73.55"/>
<polygon fill="midnightblue" stroke="midnightblue" points="1306.54,-100.36 1310.42,-110.22 1313.54,-100.09 1306.54,-100.36"/>
</g>
<!-- Node37&#45;&gt;Node11 -->
<g id="edge41" class="edge">
<title>Node37&#45;&gt;Node11</title>
<path fill="none" stroke="midnightblue" d="M1350.99,-118.39C1542.78,-117.65 2356,-112.27 2392.73,-74 2398.58,-67.91 2398.59,-61.08 2392.73,-55 2351.28,-11.95 1403.05,-10.42 1240.38,-10.48"/>
<polygon fill="midnightblue" stroke="midnightblue" points="1350.78,-114.89 1340.79,-118.42 1350.8,-121.89 1350.78,-114.89"/>
</g>
<!-- Node37&#45;&gt;Node12 -->
<g id="edge42" class="edge">
<title>Node37&#45;&gt;Node12</title>
<path fill="none" stroke="midnightblue" d="M1329.61,-104.21C1342.55,-94.41 1359.27,-81.75 1370,-73.63"/>
<polygon fill="midnightblue" stroke="midnightblue" points="1327.22,-101.62 1321.36,-110.45 1331.45,-107.2 1327.22,-101.62"/>
</g>
<!-- Node37&#45;&gt;Node13 -->
<g id="edge43" class="edge">
<title>Node37&#45;&gt;Node13</title>
<path fill="none" stroke="midnightblue" d="M1343.26,-107.08C1371.97,-97.01 1413.11,-82.57 1438.58,-73.63"/>
<polygon fill="midnightblue" stroke="midnightblue" points="1341.94,-103.84 1333.67,-110.45 1344.26,-110.44 1341.94,-103.84"/>
</g>
<!-- Node37&#45;&gt;Node14 -->
<g id="edge44" class="edge">
<title>Node37&#45;&gt;Node14</title>
<path fill="none" stroke="midnightblue" d="M1351.12,-109.73C1397.41,-99.67 1472.64,-83.33 1517.54,-73.58"/>
<polygon fill="midnightblue" stroke="midnightblue" points="1350.17,-106.35 1341.14,-111.89 1351.66,-113.19 1350.17,-106.35"/>
</g>
<!-- Node37&#45;&gt;Node15 -->
<g id="edge45" class="edge">
<title>Node37&#45;&gt;Node15</title>
<path fill="none" stroke="midnightblue" d="M1350.87,-113.19C1407.59,-105.52 1514.36,-90.43 1604.73,-74 1607.8,-73.44 1611,-72.82 1614.19,-72.18"/>
<polygon fill="midnightblue" stroke="midnightblue" points="1350.32,-109.73 1340.88,-114.54 1351.26,-116.67 1350.32,-109.73"/>
</g>
<!-- Node37&#45;&gt;Node16 -->
<g id="edge46" class="edge">
<title>Node37&#45;&gt;Node16</title>
<path fill="none" stroke="midnightblue" d="M1351.32,-115.54C1420.14,-110.11 1563.96,-96.93 1683.73,-74 1686.67,-73.44 1689.73,-72.75 1692.75,-72.02"/>
<polygon fill="midnightblue" stroke="midnightblue" points="1350.63,-112.09 1340.93,-116.35 1351.17,-119.06 1350.63,-112.09"/>
</g>
<!-- Node37&#45;&gt;Node17 -->
<g id="edge47" class="edge">
<title>Node37&#45;&gt;Node17</title>
<path fill="none" stroke="midnightblue" d="M1351.11,-116.15C1428.48,-111.27 1602.82,-98.38 1747.73,-74 1750.39,-73.55 1753.15,-73.02 1755.9,-72.45"/>
<polygon fill="midnightblue" stroke="midnightblue" points="1350.61,-112.68 1340.85,-116.79 1351.04,-119.66 1350.61,-112.68"/>
</g>
<!-- Node37&#45;&gt;Node18 -->
<g id="edge48" class="edge">
<title>Node37&#45;&gt;Node18</title>
<path fill="none" stroke="midnightblue" d="M1351.08,-117.57C1437.74,-115 1647.86,-105.74 1820.73,-74 1823.61,-73.47 1826.6,-72.79 1829.54,-72.04"/>
<polygon fill="midnightblue" stroke="midnightblue" points="1350.79,-114.07 1340.89,-117.85 1350.98,-121.07 1350.79,-114.07"/>
</g>
<!-- Node37&#45;&gt;Node19 -->
<g id="edge49" class="edge">
<title>Node37&#45;&gt;Node19</title>
<path fill="none" stroke="midnightblue" d="M1351.16,-118.09C1444.95,-116.53 1684.33,-109.13 1880.73,-74 1883.72,-73.47 1886.83,-72.76 1889.87,-71.98"/>
<polygon fill="midnightblue" stroke="midnightblue" points="1350.92,-114.59 1340.97,-118.24 1351.02,-121.59 1350.92,-114.59"/>
</g>
<!-- Node37&#45;&gt;Node20 -->
<g id="edge50" class="edge">
<title>Node37&#45;&gt;Node20</title>
<path fill="none" stroke="midnightblue" d="M1351.14,-118.51C1451.63,-117.92 1720.59,-112.54 1940.73,-74 1943.72,-73.48 1946.83,-72.78 1949.88,-72"/>
<polygon fill="midnightblue" stroke="midnightblue" points="1350.82,-115.01 1340.84,-118.56 1350.85,-122.01 1350.82,-115.01"/>
</g>
<!-- Node37&#45;&gt;Node21 -->
<g id="edge51" class="edge">
<title>Node37&#45;&gt;Node21</title>
<path fill="none" stroke="midnightblue" d="M1351.15,-118.17C1457.87,-116.79 1755.85,-109.79 2000.73,-74 2003.73,-73.56 2006.85,-73.01 2009.94,-72.39"/>
<polygon fill="midnightblue" stroke="midnightblue" points="1350.8,-114.67 1340.84,-118.29 1350.88,-121.67 1350.8,-114.67"/>
</g>
<!-- Node37&#45;&gt;Node22 -->
<g id="edge52" class="edge">
<title>Node37&#45;&gt;Node22</title>
<path fill="none" stroke="midnightblue" d="M1350.77,-118.52C1464.65,-118.09 1799.87,-113.29 2074.73,-74 2077.6,-73.59 2080.58,-73.07 2083.54,-72.49"/>
<polygon fill="midnightblue" stroke="midnightblue" points="1350.75,-115.02 1340.76,-118.55 1350.77,-122.02 1350.75,-115.02"/>
</g>
<!-- Node37&#45;&gt;Node23 -->
<g id="edge53" class="edge">
<title>Node37&#45;&gt;Node23</title>
<path fill="none" stroke="midnightblue" d="M1351.26,-118.59C1472.71,-118.37 1844.13,-114.2 2148.73,-74 2151.69,-73.61 2154.75,-73.12 2157.81,-72.57"/>
<polygon fill="midnightblue" stroke="midnightblue" points="1350.95,-115.09 1340.95,-118.6 1350.95,-122.09 1350.95,-115.09"/>
</g>
<!-- Node37&#45;&gt;Node24 -->
<g id="edge54" class="edge">
<title>Node37&#45;&gt;Node24</title>
<path fill="none" stroke="midnightblue" d="M1351.13,-118.42C1479.74,-117.76 1891.04,-112.55 2228.73,-74 2231.7,-73.66 2234.76,-73.25 2237.83,-72.79"/>
<polygon fill="midnightblue" stroke="midnightblue" points="1350.94,-114.92 1340.96,-118.46 1350.98,-121.92 1350.94,-114.92"/>
</g>
<!-- Node37&#45;&gt;Node25 -->
<g id="edge55" class="edge">
<title>Node37&#45;&gt;Node25</title>
<path fill="none" stroke="midnightblue" d="M1351.2,-117.77C1515.12,-114.65 2130.21,-101.35 2322.73,-74 2325.58,-73.6 2328.53,-73.06 2331.46,-72.46"/>
<polygon fill="midnightblue" stroke="midnightblue" points="1350.99,-114.27 1341.06,-117.96 1351.13,-121.27 1350.99,-114.27"/>
</g>
<!-- Node37&#45;&gt;Node26 -->
<g id="edge56" class="edge">
<title>Node37&#45;&gt;Node26</title>
<path fill="none" stroke="midnightblue" d="M1270.39,-110.1C826.92,-55.35 707.53,-128.2 267.73,-74 264.77,-73.64 261.71,-73.16 258.65,-72.62"/>
<polygon fill="midnightblue" stroke="midnightblue" points="1270.23,-113.61 1280.59,-111.37 1271.1,-106.66 1270.23,-113.61"/>
</g>
<!-- Node37&#45;&gt;Node27 -->
<g id="edge57" class="edge">
<title>Node37&#45;&gt;Node27</title>
<path fill="none" stroke="midnightblue" d="M1270.64,-110.12C864.95,-59.34 755.98,-121.35 353.73,-74 350.86,-73.66 347.89,-73.24 344.92,-72.76"/>
<polygon fill="midnightblue" stroke="midnightblue" points="1270.23,-113.6 1280.59,-111.38 1271.11,-106.65 1270.23,-113.6"/>
</g>
<!-- Node37&#45;&gt;Node28 -->
<g id="edge58" class="edge">
<title>Node37&#45;&gt;Node28</title>
<path fill="none" stroke="midnightblue" d="M1270.47,-110.09C902.9,-63.41 803.91,-117.62 439.73,-74 436.86,-73.66 433.89,-73.23 430.92,-72.75"/>
<polygon fill="midnightblue" stroke="midnightblue" points="1270.22,-113.59 1280.59,-111.4 1271.12,-106.65 1270.22,-113.59"/>
</g>
<!-- Node37&#45;&gt;Node29 -->
<g id="edge59" class="edge">
<title>Node37&#45;&gt;Node29</title>
<path fill="none" stroke="midnightblue" d="M1270.56,-110.1C934.25,-66.86 842.76,-120.64 510.73,-74 507.68,-73.57 504.51,-73 501.36,-72.37"/>
<polygon fill="midnightblue" stroke="midnightblue" points="1270.22,-113.58 1280.59,-111.41 1271.12,-106.64 1270.22,-113.58"/>
</g>
<!-- Node37&#45;&gt;Node30 -->
<g id="edge60" class="edge">
<title>Node37&#45;&gt;Node30</title>
<path fill="none" stroke="midnightblue" d="M1270.43,-110.08C961.14,-69.86 876,-122.95 571.73,-74 568.65,-73.5 565.43,-72.82 562.28,-72.05"/>
<polygon fill="midnightblue" stroke="midnightblue" points="1270.21,-113.58 1280.58,-111.42 1271.13,-106.64 1270.21,-113.58"/>
</g>
<!-- Node37&#45;&gt;Node31 -->
<g id="edge61" class="edge">
<title>Node37&#45;&gt;Node31</title>
<path fill="none" stroke="midnightblue" d="M1270.62,-110.09C992.97,-73.09 917.14,-113.8 643.73,-74 641.06,-73.61 638.3,-73.12 635.55,-72.57"/>
<polygon fill="midnightblue" stroke="midnightblue" points="1270.2,-113.56 1280.58,-111.44 1271.14,-106.63 1270.2,-113.56"/>
</g>
<!-- Node37&#45;&gt;Node32 -->
<g id="edge62" class="edge">
<title>Node37&#45;&gt;Node32</title>
<path fill="none" stroke="midnightblue" d="M1270.32,-110.03C1026.01,-76.6 959.1,-109.2 718.73,-74 715.99,-73.6 713.16,-73.1 710.33,-72.55"/>
<polygon fill="midnightblue" stroke="midnightblue" points="1270.19,-113.55 1280.58,-111.46 1271.16,-106.62 1270.19,-113.55"/>
</g>
<!-- Node37&#45;&gt;Node33 -->
<g id="edge63" class="edge">
<title>Node37&#45;&gt;Node33</title>
<path fill="none" stroke="midnightblue" d="M1270.4,-110.02C1065.75,-80.63 1010.03,-100.76 808.73,-74 805.74,-73.6 802.64,-73.13 799.54,-72.63"/>
<polygon fill="midnightblue" stroke="midnightblue" points="1270.17,-113.52 1280.57,-111.5 1271.18,-106.59 1270.17,-113.52"/>
</g>
<!-- Node37&#45;&gt;Node34 -->
<g id="edge64" class="edge">
<title>Node37&#45;&gt;Node34</title>
<path fill="none" stroke="midnightblue" d="M1270.45,-110C1099.24,-84.2 1052.12,-100.4 884.73,-74 881.93,-73.56 879.02,-73.03 876.12,-72.46"/>
<polygon fill="midnightblue" stroke="midnightblue" points="1270.15,-113.49 1280.57,-111.55 1271.21,-106.57 1270.15,-113.49"/>
</g>
<!-- Node37&#45;&gt;Node35 -->
<g id="edge65" class="edge">
<title>Node37&#45;&gt;Node35</title>
<path fill="none" stroke="midnightblue" d="M1270.49,-109.94C1138.89,-88.12 1102.92,-93.85 974.73,-74 971.9,-73.56 968.98,-73.08 966.05,-72.57"/>
<polygon fill="midnightblue" stroke="midnightblue" points="1270.11,-113.42 1280.55,-111.63 1271.27,-106.52 1270.11,-113.42"/>
</g>
<!-- Node37&#45;&gt;Node36 -->
<g id="edge66" class="edge">
<title>Node37&#45;&gt;Node36</title>
<path fill="none" stroke="midnightblue" d="M1270.69,-109.9C1171.41,-91.4 1144.18,-92.65 1048.73,-74 1045.89,-73.44 1042.92,-72.83 1039.97,-72.19"/>
<polygon fill="midnightblue" stroke="midnightblue" points="1270.06,-113.34 1280.53,-111.75 1271.35,-106.46 1270.06,-113.34"/>
</g>
</g>
</svg>
