<?xml version="1.0" encoding="UTF-8" standalone="no"?>
<!DOCTYPE svg PUBLIC "-//W3C//DTD SVG 1.1//EN"
 "http://www.w3.org/Graphics/SVG/1.1/DTD/svg11.dtd">
<!-- Generated by graphviz version 2.43.0 (0)
 -->
<!-- Title: txio.h Pages: 1 -->
<svg width="2498pt" height="247pt"
 viewBox="0.00 0.00 2497.84 247.00" xmlns="http://www.w3.org/2000/svg" xmlns:xlink="http://www.w3.org/1999/xlink">
<g id="graph0" class="graph" transform="scale(1 1) rotate(0) translate(4 243)">
<title>txio.h</title>
<polygon fill="white" stroke="transparent" points="-4,4 -4,-243 2493.84,-243 2493.84,4 -4,4"/>
<!-- Node1 -->
<g id="node1" class="node">
<title>Node1</title>
<g id="a_node1"><a xlink:title=" ">
<polygon fill="#bfbfbf" stroke="black" points="1269.44,-220.5 1269.44,-238.5 1309.34,-238.5 1309.34,-220.5 1269.44,-220.5"/>
<text text-anchor="middle" x="1289.39" y="-226.5" font-family="Helvetica,sans-Serif" font-size="10.00">txio.h</text>
</a>
</g>
</g>
<!-- Node2 -->
<g id="node2" class="node">
<title>Node2</title>
<g id="a_node2"><a xlink:href="../../d2/d1b/txparser_8h.html" target="_top" xlink:title=" ">
<polygon fill="white" stroke="black" points="1133.43,-110.5 1133.43,-128.5 1193.35,-128.5 1193.35,-110.5 1133.43,-110.5"/>
<text text-anchor="middle" x="1163.39" y="-116.5" font-family="Helvetica,sans-Serif" font-size="10.00">txparser.h</text>
</a>
</g>
</g>
<!-- Node1&#45;&gt;Node2 -->
<g id="edge1" class="edge">
<title>Node1&#45;&gt;Node2</title>
<path fill="none" stroke="midnightblue" d="M1272.09,-213.68C1245.17,-190.6 1194.14,-146.86 1172.97,-128.71"/>
<polygon fill="midnightblue" stroke="midnightblue" points="1270.05,-216.53 1279.92,-220.38 1274.6,-211.22 1270.05,-216.53"/>
</g>
<!-- Node34 -->
<g id="node34" class="node">
<title>Node34</title>
<g id="a_node34"><a xlink:href="../../d4/de9/_main_class_8h.html" target="_top" xlink:title=" ">
<polygon fill="white" stroke="black" points="1337.43,-165.5 1337.43,-183.5 1437.35,-183.5 1437.35,-165.5 1337.43,-165.5"/>
<text text-anchor="middle" x="1387.39" y="-171.5" font-family="Helvetica,sans-Serif" font-size="10.00">tralics/MainClass.h</text>
</a>
</g>
</g>
<!-- Node1&#45;&gt;Node34 -->
<g id="edge33" class="edge">
<title>Node1&#45;&gt;Node34</title>
<path fill="none" stroke="midnightblue" d="M1313.24,-215.6C1331.67,-205.63 1356.63,-192.14 1372.37,-183.63"/>
<polygon fill="midnightblue" stroke="midnightblue" points="1311.41,-212.61 1304.27,-220.45 1314.74,-218.77 1311.41,-212.61"/>
</g>
<!-- Node39 -->
<g id="node39" class="node">
<title>Node39</title>
<g id="a_node39"><a xlink:href="../../d5/d08/txparam_8h.html" target="_top" xlink:title=" ">
<polygon fill="white" stroke="black" points="1259.16,-165.5 1259.16,-183.5 1319.62,-183.5 1319.62,-165.5 1259.16,-165.5"/>
<text text-anchor="middle" x="1289.39" y="-171.5" font-family="Helvetica,sans-Serif" font-size="10.00">txparam.h</text>
</a>
</g>
</g>
<!-- Node1&#45;&gt;Node39 -->
<g id="edge69" class="edge">
<title>Node1&#45;&gt;Node39</title>
<path fill="none" stroke="midnightblue" d="M1289.39,-210.17C1289.39,-201.09 1289.39,-190.59 1289.39,-183.55"/>
<polygon fill="midnightblue" stroke="midnightblue" points="1285.89,-210.22 1289.39,-220.22 1292.89,-210.22 1285.89,-210.22"/>
</g>
<!-- Node3 -->
<g id="node3" class="node">
<title>Node3</title>
<g id="a_node3"><a xlink:href="../../d2/dbb/globals_8_c.html" target="_top" xlink:title=" ">
<polygon fill="white" stroke="black" points="13.55,-55.5 13.55,-73.5 71.24,-73.5 71.24,-55.5 13.55,-55.5"/>
<text text-anchor="middle" x="42.39" y="-61.5" font-family="Helvetica,sans-Serif" font-size="10.00">globals.C</text>
</a>
</g>
</g>
<!-- Node2&#45;&gt;Node3 -->
<g id="edge2" class="edge">
<title>Node2&#45;&gt;Node3</title>
<path fill="none" stroke="midnightblue" d="M1122.91,-117.81C951.89,-114.73 287.81,-101.24 80.39,-74 77.44,-73.61 74.38,-73.11 71.34,-72.54"/>
<polygon fill="midnightblue" stroke="midnightblue" points="1122.94,-121.31 1133,-117.99 1123.06,-114.31 1122.94,-121.31"/>
</g>
<!-- Node4 -->
<g id="node4" class="node">
<title>Node4</title>
<g id="a_node4"><a xlink:href="../../de/dae/_main_class_8_c.html" target="_top" xlink:title=" ">
<polygon fill="white" stroke="black" points="2354.05,-55.5 2354.05,-73.5 2426.73,-73.5 2426.73,-55.5 2354.05,-55.5"/>
<text text-anchor="middle" x="2390.39" y="-61.5" font-family="Helvetica,sans-Serif" font-size="10.00">MainClass.C</text>
</a>
</g>
</g>
<!-- Node2&#45;&gt;Node4 -->
<g id="edge3" class="edge">
<title>Node2&#45;&gt;Node4</title>
<path fill="none" stroke="midnightblue" d="M1203.44,-115.43C1227.96,-113.64 1259.97,-111.45 1288.39,-110 1757.83,-86.05 1878.2,-125.77 2345.39,-74 2348.08,-73.7 2350.84,-73.33 2353.62,-72.92"/>
<polygon fill="midnightblue" stroke="midnightblue" points="1203.14,-111.94 1193.43,-116.17 1203.66,-118.92 1203.14,-111.94"/>
</g>
<!-- Node5 -->
<g id="node5" class="node">
<title>Node5</title>
<g id="a_node5"><a xlink:href="../../dc/d29/tralics_8_c.html" target="_top" xlink:title=" ">
<polygon fill="white" stroke="black" points="566.33,-55.5 566.33,-73.5 618.45,-73.5 618.45,-55.5 566.33,-55.5"/>
<text text-anchor="middle" x="592.39" y="-61.5" font-family="Helvetica,sans-Serif" font-size="10.00">tralics.C</text>
</a>
</g>
</g>
<!-- Node2&#45;&gt;Node5 -->
<g id="edge4" class="edge">
<title>Node2&#45;&gt;Node5</title>
<path fill="none" stroke="midnightblue" d="M1123.27,-117.3C1033.75,-114.15 811.15,-103.76 627.39,-74 624.55,-73.54 621.6,-72.97 618.67,-72.35"/>
<polygon fill="midnightblue" stroke="midnightblue" points="1123.15,-120.8 1133.26,-117.64 1123.39,-113.8 1123.15,-120.8"/>
</g>
<!-- Node6 -->
<g id="node6" class="node">
<title>Node6</title>
<g id="a_node6"><a xlink:href="../../d5/d10/txaccent_8_c.html" target="_top" xlink:title=" ">
<polygon fill="white" stroke="black" points="636.77,-55.5 636.77,-73.5 700.01,-73.5 700.01,-55.5 636.77,-55.5"/>
<text text-anchor="middle" x="668.39" y="-61.5" font-family="Helvetica,sans-Serif" font-size="10.00">txaccent.C</text>
</a>
</g>
</g>
<!-- Node2&#45;&gt;Node6 -->
<g id="edge5" class="edge">
<title>Node2&#45;&gt;Node6</title>
<path fill="none" stroke="midnightblue" d="M1123.18,-116.01C1043.76,-110.76 861.31,-97.13 709.39,-74 706.37,-73.54 703.24,-73 700.11,-72.43"/>
<polygon fill="midnightblue" stroke="midnightblue" points="1123.03,-119.5 1133.24,-116.66 1123.49,-112.52 1123.03,-119.5"/>
</g>
<!-- Node7 -->
<g id="node7" class="node">
<title>Node7</title>
<g id="a_node7"><a xlink:href="../../df/de6/txarray_8_c.html" target="_top" xlink:title=" ">
<polygon fill="white" stroke="black" points="718.48,-55.5 718.48,-73.5 774.3,-73.5 774.3,-55.5 718.48,-55.5"/>
<text text-anchor="middle" x="746.39" y="-61.5" font-family="Helvetica,sans-Serif" font-size="10.00">txarray.C</text>
</a>
</g>
</g>
<!-- Node2&#45;&gt;Node7 -->
<g id="edge6" class="edge">
<title>Node2&#45;&gt;Node7</title>
<path fill="none" stroke="midnightblue" d="M1123.09,-115.24C1053.47,-109.28 906.35,-95.26 783.39,-74 780.53,-73.51 777.56,-72.93 774.61,-72.32"/>
<polygon fill="midnightblue" stroke="midnightblue" points="1122.92,-118.74 1133.18,-116.09 1123.51,-111.76 1122.92,-118.74"/>
</g>
<!-- Node8 -->
<g id="node8" class="node">
<title>Node8</title>
<g id="a_node8"><a xlink:href="../../dd/dce/txaux_8_c.html" target="_top" xlink:title=" ">
<polygon fill="white" stroke="black" points="792.44,-55.5 792.44,-73.5 842.34,-73.5 842.34,-55.5 792.44,-55.5"/>
<text text-anchor="middle" x="817.39" y="-61.5" font-family="Helvetica,sans-Serif" font-size="10.00">txaux.C</text>
</a>
</g>
</g>
<!-- Node2&#45;&gt;Node8 -->
<g id="edge7" class="edge">
<title>Node2&#45;&gt;Node8</title>
<path fill="none" stroke="midnightblue" d="M1122.96,-114.09C1063.26,-107.26 948.14,-92.94 851.39,-74 848.52,-73.44 845.54,-72.79 842.58,-72.1"/>
<polygon fill="midnightblue" stroke="midnightblue" points="1122.77,-117.59 1133.1,-115.23 1123.55,-110.63 1122.77,-117.59"/>
</g>
<!-- Node9 -->
<g id="node9" class="node">
<title>Node9</title>
<g id="a_node9"><a xlink:href="../../d1/d56/txbib_8_c.html" target="_top" xlink:title=" ">
<polygon fill="white" stroke="black" points="1089.83,-0.5 1089.83,-18.5 1136.95,-18.5 1136.95,-0.5 1089.83,-0.5"/>
<text text-anchor="middle" x="1113.39" y="-6.5" font-family="Helvetica,sans-Serif" font-size="10.00">txbib.C</text>
</a>
</g>
</g>
<!-- Node2&#45;&gt;Node9 -->
<g id="edge8" class="edge">
<title>Node2&#45;&gt;Node9</title>
<path fill="none" stroke="midnightblue" d="M1123.18,-118.5C923.23,-118.31 43.98,-115.14 4.39,-74 -1.47,-67.92 -1.46,-61.09 4.39,-55 43.31,-14.49 931.96,-10.86 1089.59,-10.53"/>
<polygon fill="midnightblue" stroke="midnightblue" points="1123.25,-122 1133.25,-118.51 1123.26,-115 1123.25,-122"/>
</g>
<!-- Node10 -->
<g id="node10" class="node">
<title>Node10</title>
<g id="a_node10"><a xlink:href="../../d4/df2/txbuffer_8_c.html" target="_top" xlink:title=" ">
<polygon fill="white" stroke="black" points="860.08,-55.5 860.08,-73.5 918.7,-73.5 918.7,-55.5 860.08,-55.5"/>
<text text-anchor="middle" x="889.39" y="-61.5" font-family="Helvetica,sans-Serif" font-size="10.00">txbuffer.C</text>
</a>
</g>
</g>
<!-- Node2&#45;&gt;Node10 -->
<g id="edge9" class="edge">
<title>Node2&#45;&gt;Node10</title>
<path fill="none" stroke="midnightblue" d="M1123.06,-111.32C1076.01,-102.85 995.92,-88.12 927.39,-74 924.61,-73.43 921.72,-72.81 918.83,-72.19"/>
<polygon fill="midnightblue" stroke="midnightblue" points="1122.69,-114.81 1133.15,-113.13 1123.93,-107.92 1122.69,-114.81"/>
</g>
<!-- Node11 -->
<g id="node11" class="node">
<title>Node11</title>
<g id="a_node11"><a xlink:href="../../de/ddd/txclasses_8_c.html" target="_top" xlink:title=" ">
<polygon fill="white" stroke="black" points="936.83,-55.5 936.83,-73.5 1003.95,-73.5 1003.95,-55.5 936.83,-55.5"/>
<text text-anchor="middle" x="970.39" y="-61.5" font-family="Helvetica,sans-Serif" font-size="10.00">txclasses.C</text>
</a>
</g>
</g>
<!-- Node2&#45;&gt;Node11 -->
<g id="edge10" class="edge">
<title>Node2&#45;&gt;Node11</title>
<path fill="none" stroke="midnightblue" d="M1124.17,-107.73C1087.28,-97.6 1032.9,-82.67 999.66,-73.54"/>
<polygon fill="midnightblue" stroke="midnightblue" points="1123.51,-111.18 1134.08,-110.45 1125.36,-104.43 1123.51,-111.18"/>
</g>
<!-- Node12 -->
<g id="node12" class="node">
<title>Node12</title>
<g id="a_node12"><a xlink:href="../../d4/d1e/txcommands_8_c.html" target="_top" xlink:title=" ">
<polygon fill="white" stroke="black" points="1022.05,-55.5 1022.05,-73.5 1104.73,-73.5 1104.73,-55.5 1022.05,-55.5"/>
<text text-anchor="middle" x="1063.39" y="-61.5" font-family="Helvetica,sans-Serif" font-size="10.00">txcommands.C</text>
</a>
</g>
</g>
<!-- Node2&#45;&gt;Node12 -->
<g id="edge11" class="edge">
<title>Node2&#45;&gt;Node12</title>
<path fill="none" stroke="midnightblue" d="M1139.31,-105.74C1120.48,-95.76 1094.86,-82.18 1078.72,-73.63"/>
<polygon fill="midnightblue" stroke="midnightblue" points="1137.73,-108.86 1148.2,-110.45 1141.01,-102.67 1137.73,-108.86"/>
</g>
<!-- Node13 -->
<g id="node13" class="node">
<title>Node13</title>
<g id="a_node13"><a xlink:href="../../d9/d64/txconfig_8_c.html" target="_top" xlink:title=" ">
<polygon fill="white" stroke="black" points="1123.16,-55.5 1123.16,-73.5 1183.62,-73.5 1183.62,-55.5 1123.16,-55.5"/>
<text text-anchor="middle" x="1153.39" y="-61.5" font-family="Helvetica,sans-Serif" font-size="10.00">txconfig.C</text>
</a>
</g>
</g>
<!-- Node2&#45;&gt;Node13 -->
<g id="edge12" class="edge">
<title>Node2&#45;&gt;Node13</title>
<path fill="none" stroke="midnightblue" d="M1159.93,-100.17C1158.22,-91.09 1156.24,-80.59 1154.91,-73.55"/>
<polygon fill="midnightblue" stroke="midnightblue" points="1156.53,-101.04 1161.83,-110.22 1163.41,-99.74 1156.53,-101.04"/>
</g>
<!-- Node14 -->
<g id="node14" class="node">
<title>Node14</title>
<g id="a_node14"><a xlink:href="../../d1/d79/txerr_8_c.html" target="_top" xlink:title=" ">
<polygon fill="white" stroke="black" points="1201.66,-55.5 1201.66,-73.5 1247.12,-73.5 1247.12,-55.5 1201.66,-55.5"/>
<text text-anchor="middle" x="1224.39" y="-61.5" font-family="Helvetica,sans-Serif" font-size="10.00">txerr.C</text>
</a>
</g>
</g>
<!-- Node2&#45;&gt;Node14 -->
<g id="edge13" class="edge">
<title>Node2&#45;&gt;Node14</title>
<path fill="none" stroke="midnightblue" d="M1180.49,-103.64C1191.68,-93.92 1205.87,-81.59 1215.04,-73.63"/>
<polygon fill="midnightblue" stroke="midnightblue" points="1177.91,-101.25 1172.65,-110.45 1182.5,-106.53 1177.91,-101.25"/>
</g>
<!-- Node15 -->
<g id="node15" class="node">
<title>Node15</title>
<g id="a_node15"><a xlink:href="../../d7/d0d/txfonts_8_c.html" target="_top" xlink:title=" ">
<polygon fill="white" stroke="black" points="1264.66,-55.5 1264.66,-73.5 1320.12,-73.5 1320.12,-55.5 1264.66,-55.5"/>
<text text-anchor="middle" x="1292.39" y="-61.5" font-family="Helvetica,sans-Serif" font-size="10.00">txfonts.C</text>
</a>
</g>
</g>
<!-- Node2&#45;&gt;Node15 -->
<g id="edge14" class="edge">
<title>Node2&#45;&gt;Node15</title>
<path fill="none" stroke="midnightblue" d="M1192.47,-106.55C1216.93,-96.5 1251.23,-82.41 1272.61,-73.63"/>
<polygon fill="midnightblue" stroke="midnightblue" points="1190.9,-103.41 1182.98,-110.45 1193.56,-109.89 1190.9,-103.41"/>
</g>
<!-- Node16 -->
<g id="node16" class="node">
<title>Node16</title>
<g id="a_node16"><a xlink:href="../../d1/dcd/txfp_8_c.html" target="_top" xlink:title=" ">
<polygon fill="white" stroke="black" points="1338.33,-55.5 1338.33,-73.5 1380.45,-73.5 1380.45,-55.5 1338.33,-55.5"/>
<text text-anchor="middle" x="1359.39" y="-61.5" font-family="Helvetica,sans-Serif" font-size="10.00">txfp.C</text>
</a>
</g>
</g>
<!-- Node2&#45;&gt;Node16 -->
<g id="edge15" class="edge">
<title>Node2&#45;&gt;Node16</title>
<path fill="none" stroke="midnightblue" d="M1203.33,-107.96C1236.98,-99.05 1286.38,-85.86 1329.39,-74 1332.21,-73.22 1335.17,-72.4 1338.1,-71.57"/>
<polygon fill="midnightblue" stroke="midnightblue" points="1202.18,-104.65 1193.41,-110.59 1203.98,-111.41 1202.18,-104.65"/>
</g>
<!-- Node17 -->
<g id="node17" class="node">
<title>Node17</title>
<g id="a_node17"><a xlink:href="../../d8/dc2/txio_8_c.html" target="_top" xlink:title=" ">
<polygon fill="white" stroke="black" points="1398.61,-55.5 1398.61,-73.5 1440.17,-73.5 1440.17,-55.5 1398.61,-55.5"/>
<text text-anchor="middle" x="1419.39" y="-61.5" font-family="Helvetica,sans-Serif" font-size="10.00">txio.C</text>
</a>
</g>
</g>
<!-- Node2&#45;&gt;Node17 -->
<g id="edge16" class="edge">
<title>Node2&#45;&gt;Node17</title>
<path fill="none" stroke="midnightblue" d="M1203.56,-111.61C1248.92,-103.6 1324.81,-89.48 1389.39,-74 1392.34,-73.29 1395.43,-72.49 1398.47,-71.66"/>
<polygon fill="midnightblue" stroke="midnightblue" points="1202.78,-108.2 1193.54,-113.37 1203.99,-115.09 1202.78,-108.2"/>
</g>
<!-- Node18 -->
<g id="node18" class="node">
<title>Node18</title>
<g id="a_node18"><a xlink:href="../../dc/dcd/txl3_8_c.html" target="_top" xlink:title=" ">
<polygon fill="white" stroke="black" points="1458.61,-55.5 1458.61,-73.5 1500.17,-73.5 1500.17,-55.5 1458.61,-55.5"/>
<text text-anchor="middle" x="1479.39" y="-61.5" font-family="Helvetica,sans-Serif" font-size="10.00">txl3.C</text>
</a>
</g>
</g>
<!-- Node2&#45;&gt;Node18 -->
<g id="edge17" class="edge">
<title>Node2&#45;&gt;Node18</title>
<path fill="none" stroke="midnightblue" d="M1203.83,-113.78C1259.49,-106.94 1362.69,-92.95 1449.39,-74 1452.35,-73.35 1455.45,-72.58 1458.49,-71.77"/>
<polygon fill="midnightblue" stroke="midnightblue" points="1203.18,-110.34 1193.67,-115.02 1204.02,-117.29 1203.18,-110.34"/>
</g>
<!-- Node19 -->
<g id="node19" class="node">
<title>Node19</title>
<g id="a_node19"><a xlink:href="../../db/d96/txmath_8_c.html" target="_top" xlink:title=" ">
<polygon fill="white" stroke="black" points="1518.39,-55.5 1518.39,-73.5 1574.4,-73.5 1574.4,-55.5 1518.39,-55.5"/>
<text text-anchor="middle" x="1546.39" y="-61.5" font-family="Helvetica,sans-Serif" font-size="10.00">txmath.C</text>
</a>
</g>
</g>
<!-- Node2&#45;&gt;Node19 -->
<g id="edge18" class="edge">
<title>Node2&#45;&gt;Node19</title>
<path fill="none" stroke="midnightblue" d="M1203.81,-114.6C1268.59,-108.06 1399.55,-93.63 1509.39,-74 1512.25,-73.49 1515.21,-72.9 1518.17,-72.28"/>
<polygon fill="midnightblue" stroke="midnightblue" points="1203.23,-111.14 1193.62,-115.62 1203.92,-118.1 1203.23,-111.14"/>
</g>
<!-- Node20 -->
<g id="node20" class="node">
<title>Node20</title>
<g id="a_node20"><a xlink:href="../../d8/dc6/txmath1_8_c.html" target="_top" xlink:title=" ">
<polygon fill="white" stroke="black" points="1592.6,-55.5 1592.6,-73.5 1654.18,-73.5 1654.18,-55.5 1592.6,-55.5"/>
<text text-anchor="middle" x="1623.39" y="-61.5" font-family="Helvetica,sans-Serif" font-size="10.00">txmath1.C</text>
</a>
</g>
</g>
<!-- Node2&#45;&gt;Node20 -->
<g id="edge19" class="edge">
<title>Node2&#45;&gt;Node20</title>
<path fill="none" stroke="midnightblue" d="M1204,-115.61C1279.18,-109.94 1445,-95.97 1583.39,-74 1586.34,-73.53 1589.39,-72.99 1592.44,-72.41"/>
<polygon fill="midnightblue" stroke="midnightblue" points="1203.29,-112.15 1193.58,-116.38 1203.81,-119.13 1203.29,-112.15"/>
</g>
<!-- Node21 -->
<g id="node21" class="node">
<title>Node21</title>
<g id="a_node21"><a xlink:href="../../d7/dd3/txmathboot_8_c.html" target="_top" xlink:title=" ">
<polygon fill="white" stroke="black" points="1672.65,-55.5 1672.65,-73.5 1748.13,-73.5 1748.13,-55.5 1672.65,-55.5"/>
<text text-anchor="middle" x="1710.39" y="-61.5" font-family="Helvetica,sans-Serif" font-size="10.00">txmathboot.C</text>
</a>
</g>
</g>
<!-- Node2&#45;&gt;Node21 -->
<g id="edge20" class="edge">
<title>Node2&#45;&gt;Node21</title>
<path fill="none" stroke="midnightblue" d="M1203.76,-115.38C1306.24,-107.38 1574.66,-85.95 1663.39,-74 1666.35,-73.6 1669.4,-73.15 1672.47,-72.66"/>
<polygon fill="midnightblue" stroke="midnightblue" points="1203.21,-111.91 1193.51,-116.18 1203.76,-118.89 1203.21,-111.91"/>
</g>
<!-- Node22 -->
<g id="node22" class="node">
<title>Node22</title>
<g id="a_node22"><a xlink:href="../../dd/d48/txmlio_8_c.html" target="_top" xlink:title=" ">
<polygon fill="white" stroke="black" points="1766.33,-55.5 1766.33,-73.5 1818.45,-73.5 1818.45,-55.5 1766.33,-55.5"/>
<text text-anchor="middle" x="1792.39" y="-61.5" font-family="Helvetica,sans-Serif" font-size="10.00">txmlio.C</text>
</a>
</g>
</g>
<!-- Node2&#45;&gt;Node22 -->
<g id="edge21" class="edge">
<title>Node2&#45;&gt;Node22</title>
<path fill="none" stroke="midnightblue" d="M1203.93,-115.65C1333.4,-106.51 1730.07,-78.31 1757.39,-74 1760.23,-73.55 1763.18,-72.99 1766.11,-72.37"/>
<polygon fill="midnightblue" stroke="midnightblue" points="1203.39,-112.18 1193.66,-116.37 1203.88,-119.16 1203.39,-112.18"/>
</g>
<!-- Node23 -->
<g id="node23" class="node">
<title>Node23</title>
<g id="a_node23"><a xlink:href="../../d7/dc3/txparser_8_c.html" target="_top" xlink:title=" ">
<polygon fill="white" stroke="black" points="1836.6,-55.5 1836.6,-73.5 1898.18,-73.5 1898.18,-55.5 1836.6,-55.5"/>
<text text-anchor="middle" x="1867.39" y="-61.5" font-family="Helvetica,sans-Serif" font-size="10.00">txparser.C</text>
</a>
</g>
</g>
<!-- Node2&#45;&gt;Node23 -->
<g id="edge22" class="edge">
<title>Node2&#45;&gt;Node23</title>
<path fill="none" stroke="midnightblue" d="M1203.46,-115.76C1227.99,-114.09 1260,-111.91 1288.39,-110 1527.94,-93.86 1589.58,-107.04 1827.39,-74 1830.34,-73.59 1833.4,-73.09 1836.46,-72.53"/>
<polygon fill="midnightblue" stroke="midnightblue" points="1203.18,-112.27 1193.45,-116.45 1203.66,-119.26 1203.18,-112.27"/>
</g>
<!-- Node24 -->
<g id="node24" class="node">
<title>Node24</title>
<g id="a_node24"><a xlink:href="../../d5/d2e/txparser2_8_c.html" target="_top" xlink:title=" ">
<polygon fill="white" stroke="black" points="1916.55,-55.5 1916.55,-73.5 1984.23,-73.5 1984.23,-55.5 1916.55,-55.5"/>
<text text-anchor="middle" x="1950.39" y="-61.5" font-family="Helvetica,sans-Serif" font-size="10.00">txparser2.C</text>
</a>
</g>
</g>
<!-- Node2&#45;&gt;Node24 -->
<g id="edge23" class="edge">
<title>Node2&#45;&gt;Node24</title>
<path fill="none" stroke="midnightblue" d="M1203.46,-115.68C1227.98,-113.97 1259.99,-111.79 1288.39,-110 1563.42,-92.65 1634.02,-108.8 1907.39,-74 1910.26,-73.63 1913.22,-73.19 1916.19,-72.7"/>
<polygon fill="midnightblue" stroke="midnightblue" points="1203.17,-112.19 1193.44,-116.37 1203.66,-119.17 1203.17,-112.19"/>
</g>
<!-- Node25 -->
<g id="node25" class="node">
<title>Node25</title>
<g id="a_node25"><a xlink:href="../../d4/d5c/txparser3_8_c.html" target="_top" xlink:title=" ">
<polygon fill="white" stroke="black" points="2002.55,-55.5 2002.55,-73.5 2070.23,-73.5 2070.23,-55.5 2002.55,-55.5"/>
<text text-anchor="middle" x="2036.39" y="-61.5" font-family="Helvetica,sans-Serif" font-size="10.00">txparser3.C</text>
</a>
</g>
</g>
<!-- Node2&#45;&gt;Node25 -->
<g id="edge24" class="edge">
<title>Node2&#45;&gt;Node25</title>
<path fill="none" stroke="midnightblue" d="M1203.45,-115.6C1227.97,-113.87 1259.99,-111.69 1288.39,-110 1601.58,-91.36 1682.02,-112.52 1993.39,-74 1996.26,-73.64 1999.23,-73.21 2002.19,-72.72"/>
<polygon fill="midnightblue" stroke="midnightblue" points="1203.16,-112.11 1193.44,-116.31 1203.66,-119.1 1203.16,-112.11"/>
</g>
<!-- Node26 -->
<g id="node26" class="node">
<title>Node26</title>
<g id="a_node26"><a xlink:href="../../db/d66/txpost_8_c.html" target="_top" xlink:title=" ">
<polygon fill="white" stroke="black" points="2088.05,-55.5 2088.05,-73.5 2140.73,-73.5 2140.73,-55.5 2088.05,-55.5"/>
<text text-anchor="middle" x="2114.39" y="-61.5" font-family="Helvetica,sans-Serif" font-size="10.00">txpost.C</text>
</a>
</g>
</g>
<!-- Node2&#45;&gt;Node26 -->
<g id="edge25" class="edge">
<title>Node2&#45;&gt;Node26</title>
<path fill="none" stroke="midnightblue" d="M1203.45,-115.55C1227.97,-113.8 1259.98,-111.61 1288.39,-110 1639.74,-90.06 1731.01,-123.76 2079.39,-74 2082.11,-73.61 2084.94,-73.1 2087.74,-72.53"/>
<polygon fill="midnightblue" stroke="midnightblue" points="1203.16,-112.06 1193.43,-116.27 1203.66,-119.04 1203.16,-112.06"/>
</g>
<!-- Node27 -->
<g id="node27" class="node">
<title>Node27</title>
<g id="a_node27"><a xlink:href="../../dc/d4c/txra_8_c.html" target="_top" xlink:title=" ">
<polygon fill="white" stroke="black" points="2159.06,-55.5 2159.06,-73.5 2201.73,-73.5 2201.73,-55.5 2159.06,-55.5"/>
<text text-anchor="middle" x="2180.39" y="-61.5" font-family="Helvetica,sans-Serif" font-size="10.00">txra.C</text>
</a>
</g>
</g>
<!-- Node2&#45;&gt;Node27 -->
<g id="edge26" class="edge">
<title>Node2&#45;&gt;Node27</title>
<path fill="none" stroke="midnightblue" d="M1203.45,-115.51C1227.97,-113.74 1259.98,-111.56 1288.39,-110 1670.82,-89.01 1770.96,-133.01 2149.39,-74 2152.48,-73.52 2155.7,-72.84 2158.85,-72.08"/>
<polygon fill="midnightblue" stroke="midnightblue" points="1203.15,-112.02 1193.43,-116.24 1203.66,-119 1203.15,-112.02"/>
</g>
<!-- Node28 -->
<g id="node28" class="node">
<title>Node28</title>
<g id="a_node28"><a xlink:href="../../d2/dee/txscan_8_c.html" target="_top" xlink:title=" ">
<polygon fill="white" stroke="black" points="88.94,-55.5 88.94,-73.5 143.84,-73.5 143.84,-55.5 88.94,-55.5"/>
<text text-anchor="middle" x="116.39" y="-61.5" font-family="Helvetica,sans-Serif" font-size="10.00">txscan.C</text>
</a>
</g>
</g>
<!-- Node2&#45;&gt;Node28 -->
<g id="edge27" class="edge">
<title>Node2&#45;&gt;Node28</title>
<path fill="none" stroke="midnightblue" d="M1122.97,-117.74C959.23,-114.48 344.81,-100.71 152.39,-74 149.72,-73.63 146.95,-73.15 144.2,-72.61"/>
<polygon fill="midnightblue" stroke="midnightblue" points="1123.03,-121.24 1133.09,-117.93 1123.16,-114.24 1123.03,-121.24"/>
</g>
<!-- Node29 -->
<g id="node29" class="node">
<title>Node29</title>
<g id="a_node29"><a xlink:href="../../d3/df2/txstack_8_c.html" target="_top" xlink:title=" ">
<polygon fill="white" stroke="black" points="161.83,-55.5 161.83,-73.5 218.95,-73.5 218.95,-55.5 161.83,-55.5"/>
<text text-anchor="middle" x="190.39" y="-61.5" font-family="Helvetica,sans-Serif" font-size="10.00">txstack.C</text>
</a>
</g>
</g>
<!-- Node2&#45;&gt;Node29 -->
<g id="edge28" class="edge">
<title>Node2&#45;&gt;Node29</title>
<path fill="none" stroke="midnightblue" d="M1122.95,-117.54C966.98,-113.68 404.43,-98.35 227.39,-74 224.65,-73.62 221.81,-73.14 218.98,-72.6"/>
<polygon fill="midnightblue" stroke="midnightblue" points="1122.97,-121.04 1133.05,-117.79 1123.14,-114.04 1122.97,-121.04"/>
</g>
<!-- Node30 -->
<g id="node30" class="node">
<title>Node30</title>
<g id="a_node30"><a xlink:href="../../da/d89/txtitlepage_8_c.html" target="_top" xlink:title=" ">
<polygon fill="white" stroke="black" points="236.6,-55.5 236.6,-73.5 308.18,-73.5 308.18,-55.5 236.6,-55.5"/>
<text text-anchor="middle" x="272.39" y="-61.5" font-family="Helvetica,sans-Serif" font-size="10.00">txtitlepage.C</text>
</a>
</g>
</g>
<!-- Node2&#45;&gt;Node30 -->
<g id="edge29" class="edge">
<title>Node2&#45;&gt;Node30</title>
<path fill="none" stroke="midnightblue" d="M1122.94,-118.29C1000.89,-117.26 625.69,-111.06 317.39,-74 314.39,-73.64 311.29,-73.2 308.18,-72.71"/>
<polygon fill="midnightblue" stroke="midnightblue" points="1123.27,-121.8 1133.29,-118.37 1123.32,-114.8 1123.27,-121.8"/>
</g>
<!-- Node31 -->
<g id="node31" class="node">
<title>Node31</title>
<g id="a_node31"><a xlink:href="../../d9/d1e/txtoken_8_c.html" target="_top" xlink:title=" ">
<polygon fill="white" stroke="black" points="326.27,-55.5 326.27,-73.5 384.51,-73.5 384.51,-55.5 326.27,-55.5"/>
<text text-anchor="middle" x="355.39" y="-61.5" font-family="Helvetica,sans-Serif" font-size="10.00">txtoken.C</text>
</a>
</g>
</g>
<!-- Node2&#45;&gt;Node31 -->
<g id="edge30" class="edge">
<title>Node2&#45;&gt;Node31</title>
<path fill="none" stroke="midnightblue" d="M1123.05,-118.47C1008.3,-117.89 670.52,-112.74 393.39,-74 390.58,-73.61 387.67,-73.11 384.76,-72.56"/>
<polygon fill="midnightblue" stroke="midnightblue" points="1123.12,-121.97 1133.13,-118.51 1123.15,-114.97 1123.12,-121.97"/>
</g>
<!-- Node32 -->
<g id="node32" class="node">
<title>Node32</title>
<g id="a_node32"><a xlink:href="../../d5/dda/txtranslate_8_c.html" target="_top" xlink:title=" ">
<polygon fill="white" stroke="black" points="402.32,-55.5 402.32,-73.5 474.46,-73.5 474.46,-55.5 402.32,-55.5"/>
<text text-anchor="middle" x="438.39" y="-61.5" font-family="Helvetica,sans-Serif" font-size="10.00">txtranslate.C</text>
</a>
</g>
</g>
<!-- Node2&#45;&gt;Node32 -->
<g id="edge31" class="edge">
<title>Node2&#45;&gt;Node32</title>
<path fill="none" stroke="midnightblue" d="M1122.89,-117.56C1017.26,-114.75 724.8,-104.58 483.39,-74 480.55,-73.64 477.62,-73.21 474.68,-72.75"/>
<polygon fill="midnightblue" stroke="midnightblue" points="1123.02,-121.07 1133.1,-117.83 1123.2,-114.07 1123.02,-121.07"/>
</g>
<!-- Node33 -->
<g id="node33" class="node">
<title>Node33</title>
<g id="a_node33"><a xlink:href="../../da/d9e/txtrees_8_c.html" target="_top" xlink:title=" ">
<polygon fill="white" stroke="black" points="492.39,-55.5 492.39,-73.5 548.4,-73.5 548.4,-55.5 492.39,-55.5"/>
<text text-anchor="middle" x="520.39" y="-61.5" font-family="Helvetica,sans-Serif" font-size="10.00">txtrees.C</text>
</a>
</g>
</g>
<!-- Node2&#45;&gt;Node33 -->
<g id="edge32" class="edge">
<title>Node2&#45;&gt;Node33</title>
<path fill="none" stroke="midnightblue" d="M1123.25,-117.67C1025.77,-115.18 769,-105.89 557.39,-74 554.52,-73.57 551.55,-73.03 548.59,-72.44"/>
<polygon fill="midnightblue" stroke="midnightblue" points="1123.18,-121.16 1133.26,-117.91 1123.35,-114.17 1123.18,-121.16"/>
</g>
<!-- Node34&#45;&gt;Node4 -->
<g id="edge68" class="edge">
<title>Node34&#45;&gt;Node4</title>
<path fill="none" stroke="midnightblue" d="M1447.45,-169.01C1598.71,-157.32 2007.35,-123.39 2345.39,-74 2348.07,-73.61 2350.82,-73.17 2353.6,-72.71"/>
<polygon fill="midnightblue" stroke="midnightblue" points="1447.14,-165.52 1437.44,-169.78 1447.68,-172.5 1447.14,-165.52"/>
</g>
<!-- Node35 -->
<g id="node35" class="node">
<title>Node35</title>
<g id="a_node35"><a xlink:href="../../d7/d79/txinline_8h.html" target="_top" xlink:title=" ">
<polygon fill="white" stroke="black" points="1297.66,-110.5 1297.66,-128.5 1353.12,-128.5 1353.12,-110.5 1297.66,-110.5"/>
<text text-anchor="middle" x="1325.39" y="-116.5" font-family="Helvetica,sans-Serif" font-size="10.00">txinline.h</text>
</a>
</g>
</g>
<!-- Node34&#45;&gt;Node35 -->
<g id="edge34" class="edge">
<title>Node34&#45;&gt;Node35</title>
<path fill="none" stroke="midnightblue" d="M1370.34,-158.93C1358.92,-149.16 1344.31,-136.67 1334.9,-128.63"/>
<polygon fill="midnightblue" stroke="midnightblue" points="1368.1,-161.61 1377.97,-165.45 1372.65,-156.29 1368.1,-161.61"/>
</g>
<!-- Node35&#45;&gt;Node4 -->
<g id="edge36" class="edge">
<title>Node35&#45;&gt;Node4</title>
<path fill="none" stroke="midnightblue" d="M1363.36,-112.77C1371.6,-111.7 1380.27,-110.7 1388.39,-110 1812.46,-73.5 1922.43,-121.63 2345.39,-74 2348.08,-73.7 2350.84,-73.33 2353.62,-72.91"/>
<polygon fill="midnightblue" stroke="midnightblue" points="1362.67,-109.34 1353.24,-114.15 1363.62,-116.27 1362.67,-109.34"/>
</g>
<!-- Node35&#45;&gt;Node5 -->
<g id="edge37" class="edge">
<title>Node35&#45;&gt;Node5</title>
<path fill="none" stroke="midnightblue" d="M1287.32,-115.81C1263.02,-114.1 1230.86,-111.87 1202.39,-110 946.89,-93.17 880.56,-112.36 627.39,-74 624.55,-73.57 621.59,-73.02 618.67,-72.41"/>
<polygon fill="midnightblue" stroke="midnightblue" points="1287.33,-119.31 1297.55,-116.52 1287.82,-112.33 1287.33,-119.31"/>
</g>
<!-- Node35&#45;&gt;Node6 -->
<g id="edge38" class="edge">
<title>Node35&#45;&gt;Node6</title>
<path fill="none" stroke="midnightblue" d="M1287.19,-115.81C1154.93,-106.48 723.77,-76 709.39,-74 706.37,-73.58 703.23,-73.07 700.1,-72.51"/>
<polygon fill="midnightblue" stroke="midnightblue" points="1287.04,-119.31 1297.26,-116.52 1287.54,-112.32 1287.04,-119.31"/>
</g>
<!-- Node35&#45;&gt;Node7 -->
<g id="edge39" class="edge">
<title>Node35&#45;&gt;Node7</title>
<path fill="none" stroke="midnightblue" d="M1287.45,-115.7C1172.5,-107.18 832.87,-81.67 783.39,-74 780.52,-73.56 777.55,-73.01 774.59,-72.42"/>
<polygon fill="midnightblue" stroke="midnightblue" points="1287.31,-119.2 1297.54,-116.45 1287.83,-112.22 1287.31,-119.2"/>
</g>
<!-- Node35&#45;&gt;Node8 -->
<g id="edge41" class="edge">
<title>Node35&#45;&gt;Node8</title>
<path fill="none" stroke="midnightblue" d="M1287.17,-115.66C1189.97,-108.33 935.12,-88.31 851.39,-74 848.51,-73.51 845.52,-72.9 842.55,-72.24"/>
<polygon fill="midnightblue" stroke="midnightblue" points="1287.18,-119.17 1297.42,-116.43 1287.71,-112.19 1287.18,-119.17"/>
</g>
<!-- Node35&#45;&gt;Node10 -->
<g id="edge44" class="edge">
<title>Node35&#45;&gt;Node10</title>
<path fill="none" stroke="midnightblue" d="M1286.98,-115.6C1215.76,-109.92 1058.5,-95.93 927.39,-74 924.59,-73.53 921.69,-72.99 918.79,-72.41"/>
<polygon fill="midnightblue" stroke="midnightblue" points="1287.01,-119.12 1297.26,-116.41 1287.56,-112.14 1287.01,-119.12"/>
</g>
<!-- Node35&#45;&gt;Node11 -->
<g id="edge45" class="edge">
<title>Node35&#45;&gt;Node11</title>
<path fill="none" stroke="midnightblue" d="M1287.39,-113.75C1228.53,-106.23 1111.85,-90.74 1013.39,-74 1010.39,-73.49 1007.28,-72.93 1004.16,-72.35"/>
<polygon fill="midnightblue" stroke="midnightblue" points="1286.98,-117.22 1297.34,-115.01 1287.87,-110.28 1286.98,-117.22"/>
</g>
<!-- Node35&#45;&gt;Node12 -->
<g id="edge46" class="edge">
<title>Node35&#45;&gt;Node12</title>
<path fill="none" stroke="midnightblue" d="M1287.44,-110.82C1238.32,-100.89 1153.11,-83.65 1103.13,-73.54"/>
<polygon fill="midnightblue" stroke="midnightblue" points="1286.86,-114.28 1297.35,-112.83 1288.24,-107.41 1286.86,-114.28"/>
</g>
<!-- Node35&#45;&gt;Node13 -->
<g id="edge47" class="edge">
<title>Node35&#45;&gt;Node13</title>
<path fill="none" stroke="midnightblue" d="M1289.59,-107.47C1256.74,-97.35 1208.84,-82.59 1179.48,-73.54"/>
<polygon fill="midnightblue" stroke="midnightblue" points="1288.68,-110.85 1299.27,-110.45 1290.74,-104.16 1288.68,-110.85"/>
</g>
<!-- Node35&#45;&gt;Node14 -->
<g id="edge48" class="edge">
<title>Node35&#45;&gt;Node14</title>
<path fill="none" stroke="midnightblue" d="M1301.07,-105.74C1282.05,-95.76 1256.17,-82.18 1239.87,-73.63"/>
<polygon fill="midnightblue" stroke="midnightblue" points="1299.57,-108.9 1310.05,-110.45 1302.82,-102.7 1299.57,-108.9"/>
</g>
<!-- Node35&#45;&gt;Node15 -->
<g id="edge49" class="edge">
<title>Node35&#45;&gt;Node15</title>
<path fill="none" stroke="midnightblue" d="M1314.9,-101.66C1309.05,-92.26 1302.03,-80.98 1297.4,-73.55"/>
<polygon fill="midnightblue" stroke="midnightblue" points="1311.98,-103.58 1320.23,-110.22 1317.92,-99.88 1311.98,-103.58"/>
</g>
<!-- Node35&#45;&gt;Node16 -->
<g id="edge50" class="edge">
<title>Node35&#45;&gt;Node16</title>
<path fill="none" stroke="midnightblue" d="M1336.19,-101.66C1342.22,-92.26 1349.46,-80.98 1354.23,-73.55"/>
<polygon fill="midnightblue" stroke="midnightblue" points="1333.16,-99.91 1330.7,-110.22 1339.05,-103.69 1333.16,-99.91"/>
</g>
<!-- Node35&#45;&gt;Node17 -->
<g id="edge51" class="edge">
<title>Node35&#45;&gt;Node17</title>
<path fill="none" stroke="midnightblue" d="M1348.75,-105.33C1366.39,-95.39 1390.02,-82.06 1404.98,-73.63"/>
<polygon fill="midnightblue" stroke="midnightblue" points="1346.66,-102.49 1339.67,-110.45 1350.1,-108.59 1346.66,-102.49"/>
</g>
<!-- Node35&#45;&gt;Node18 -->
<g id="edge52" class="edge">
<title>Node35&#45;&gt;Node18</title>
<path fill="none" stroke="midnightblue" d="M1358.47,-107.12C1388.7,-96.71 1432.51,-81.63 1458.26,-72.77"/>
<polygon fill="midnightblue" stroke="midnightblue" points="1357.1,-103.89 1348.78,-110.45 1359.37,-110.51 1357.1,-103.89"/>
</g>
<!-- Node35&#45;&gt;Node19 -->
<g id="edge53" class="edge">
<title>Node35&#45;&gt;Node19</title>
<path fill="none" stroke="midnightblue" d="M1363.13,-109.45C1407.15,-98.89 1478.88,-81.69 1518.28,-72.24"/>
<polygon fill="midnightblue" stroke="midnightblue" points="1362.29,-106.05 1353.38,-111.79 1363.92,-112.86 1362.29,-106.05"/>
</g>
<!-- Node35&#45;&gt;Node20 -->
<g id="edge54" class="edge">
<title>Node35&#45;&gt;Node20</title>
<path fill="none" stroke="midnightblue" d="M1363.43,-112.41C1413.84,-104.23 1505.47,-88.99 1583.39,-74 1586.32,-73.44 1589.36,-72.83 1592.41,-72.21"/>
<polygon fill="midnightblue" stroke="midnightblue" points="1362.64,-108.99 1353.32,-114.04 1363.76,-115.9 1362.64,-108.99"/>
</g>
<!-- Node35&#45;&gt;Node21 -->
<g id="edge55" class="edge">
<title>Node35&#45;&gt;Node21</title>
<path fill="none" stroke="midnightblue" d="M1363.42,-113.34C1371.66,-112.23 1380.31,-111.07 1388.39,-110 1510.58,-93.76 1541.59,-92.97 1663.39,-74 1666.34,-73.54 1669.39,-73.04 1672.45,-72.52"/>
<polygon fill="midnightblue" stroke="midnightblue" points="1362.74,-109.9 1353.3,-114.71 1363.68,-116.84 1362.74,-109.9"/>
</g>
<!-- Node35&#45;&gt;Node22 -->
<g id="edge56" class="edge">
<title>Node35&#45;&gt;Node22</title>
<path fill="none" stroke="midnightblue" d="M1363.4,-113.14C1371.63,-112.05 1380.3,-110.94 1388.39,-110 1552.07,-90.98 1594.92,-101.51 1757.39,-74 1760.23,-73.52 1763.17,-72.94 1766.1,-72.31"/>
<polygon fill="midnightblue" stroke="midnightblue" points="1362.71,-109.7 1353.27,-114.51 1363.65,-116.64 1362.71,-109.7"/>
</g>
<!-- Node35&#45;&gt;Node23 -->
<g id="edge57" class="edge">
<title>Node35&#45;&gt;Node23</title>
<path fill="none" stroke="midnightblue" d="M1363.39,-113.05C1371.62,-111.96 1380.29,-110.88 1388.39,-110 1583.02,-88.9 1633.7,-102.4 1827.39,-74 1830.34,-73.57 1833.4,-73.05 1836.45,-72.48"/>
<polygon fill="midnightblue" stroke="midnightblue" points="1362.7,-109.61 1353.26,-114.42 1363.64,-116.54 1362.7,-109.61"/>
</g>
<!-- Node35&#45;&gt;Node24 -->
<g id="edge58" class="edge">
<title>Node35&#45;&gt;Node24</title>
<path fill="none" stroke="midnightblue" d="M1363.38,-112.97C1371.61,-111.88 1380.28,-110.83 1388.39,-110 1618.42,-86.53 1678.19,-104.48 1907.39,-74 1910.26,-73.62 1913.22,-73.16 1916.19,-72.66"/>
<polygon fill="midnightblue" stroke="midnightblue" points="1362.69,-109.53 1353.26,-114.34 1363.64,-116.47 1362.69,-109.53"/>
</g>
<!-- Node35&#45;&gt;Node25 -->
<g id="edge59" class="edge">
<title>Node35&#45;&gt;Node25</title>
<path fill="none" stroke="midnightblue" d="M1363.37,-112.91C1371.61,-111.83 1380.28,-110.79 1388.39,-110 1656.49,-83.97 1726.21,-108.2 1993.39,-74 1996.26,-73.63 1999.22,-73.19 2002.19,-72.7"/>
<polygon fill="midnightblue" stroke="midnightblue" points="1362.69,-109.47 1353.25,-114.29 1363.63,-116.41 1362.69,-109.47"/>
</g>
<!-- Node35&#45;&gt;Node26 -->
<g id="edge60" class="edge">
<title>Node35&#45;&gt;Node26</title>
<path fill="none" stroke="midnightblue" d="M1363.37,-112.86C1371.6,-111.78 1380.28,-110.76 1388.39,-110 1694.59,-81.42 1775.1,-118.48 2079.39,-74 2082.11,-73.6 2084.93,-73.09 2087.74,-72.51"/>
<polygon fill="midnightblue" stroke="midnightblue" points="1362.68,-109.42 1353.25,-114.24 1363.63,-116.36 1362.68,-109.42"/>
</g>
<!-- Node35&#45;&gt;Node27 -->
<g id="edge61" class="edge">
<title>Node35&#45;&gt;Node27</title>
<path fill="none" stroke="midnightblue" d="M1363.37,-112.83C1371.6,-111.76 1380.28,-110.74 1388.39,-110 1725.6,-79.33 1814.98,-127.09 2149.39,-74 2152.48,-73.51 2155.7,-72.83 2158.84,-72.06"/>
<polygon fill="midnightblue" stroke="midnightblue" points="1362.68,-109.4 1353.24,-114.21 1363.62,-116.33 1362.68,-109.4"/>
</g>
<!-- Node35&#45;&gt;Node28 -->
<g id="edge62" class="edge">
<title>Node35&#45;&gt;Node28</title>
<path fill="none" stroke="midnightblue" d="M1287.33,-115.53C1263.04,-113.72 1230.88,-111.47 1202.39,-110 736.07,-85.9 615.2,-135.95 152.39,-74 149.72,-73.64 146.95,-73.17 144.2,-72.64"/>
<polygon fill="midnightblue" stroke="midnightblue" points="1287.33,-119.04 1297.56,-116.3 1287.85,-112.06 1287.33,-119.04"/>
</g>
<!-- Node35&#45;&gt;Node29 -->
<g id="edge63" class="edge">
<title>Node35&#45;&gt;Node29</title>
<path fill="none" stroke="midnightblue" d="M1287.33,-115.55C1263.04,-113.75 1230.88,-111.51 1202.39,-110 769.37,-87.05 657.28,-130.8 227.39,-74 224.65,-73.64 221.81,-73.17 218.98,-72.63"/>
<polygon fill="midnightblue" stroke="midnightblue" points="1287.33,-119.06 1297.56,-116.32 1287.85,-112.08 1287.33,-119.06"/>
</g>
<!-- Node35&#45;&gt;Node30 -->
<g id="edge64" class="edge">
<title>Node35&#45;&gt;Node30</title>
<path fill="none" stroke="midnightblue" d="M1287.33,-115.59C1263.04,-113.8 1230.88,-111.56 1202.39,-110 809.32,-88.43 708.51,-118.65 317.39,-74 314.55,-73.68 311.61,-73.27 308.67,-72.82"/>
<polygon fill="midnightblue" stroke="midnightblue" points="1287.33,-119.1 1297.56,-116.35 1287.85,-112.12 1287.33,-119.1"/>
</g>
<!-- Node35&#45;&gt;Node31 -->
<g id="edge65" class="edge">
<title>Node35&#45;&gt;Node31</title>
<path fill="none" stroke="midnightblue" d="M1287.33,-115.63C1263.04,-113.85 1230.87,-111.62 1202.39,-110 843.06,-89.59 750.16,-121.47 393.39,-74 390.58,-73.63 387.66,-73.15 384.76,-72.6"/>
<polygon fill="midnightblue" stroke="midnightblue" points="1287.33,-119.14 1297.56,-116.38 1287.84,-112.16 1287.33,-119.14"/>
</g>
<!-- Node35&#45;&gt;Node32 -->
<g id="edge66" class="edge">
<title>Node35&#45;&gt;Node32</title>
<path fill="none" stroke="midnightblue" d="M1287.32,-115.68C1263.03,-113.93 1230.87,-111.7 1202.39,-110 883,-90.97 801.11,-111.78 483.39,-74 480.55,-73.66 477.62,-73.25 474.67,-72.79"/>
<polygon fill="midnightblue" stroke="midnightblue" points="1287.33,-119.19 1297.56,-116.43 1287.83,-112.21 1287.33,-119.19"/>
</g>
<!-- Node35&#45;&gt;Node33 -->
<g id="edge67" class="edge">
<title>Node35&#45;&gt;Node33</title>
<path fill="none" stroke="midnightblue" d="M1287.32,-115.74C1263.03,-114.01 1230.86,-111.78 1202.39,-110 915.84,-92.1 841.66,-114.29 557.39,-74 554.52,-73.59 551.54,-73.07 548.58,-72.5"/>
<polygon fill="midnightblue" stroke="midnightblue" points="1287.33,-119.25 1297.55,-116.47 1287.83,-112.27 1287.33,-119.25"/>
</g>
<!-- Node36 -->
<g id="node36" class="node">
<title>Node36</title>
<g id="a_node36"><a xlink:href="../../d4/dbc/_istring_8_c.html" target="_top" xlink:title=" ">
<polygon fill="white" stroke="black" points="2282.77,-55.5 2282.77,-73.5 2336.01,-73.5 2336.01,-55.5 2282.77,-55.5"/>
<text text-anchor="middle" x="2309.39" y="-61.5" font-family="Helvetica,sans-Serif" font-size="10.00">Istring.C</text>
</a>
</g>
</g>
<!-- Node35&#45;&gt;Node36 -->
<g id="edge35" class="edge">
<title>Node35&#45;&gt;Node36</title>
<path fill="none" stroke="midnightblue" d="M1363.36,-112.79C1371.6,-111.72 1380.27,-110.71 1388.39,-110 1780.99,-75.61 1884.11,-128.77 2274.39,-74 2277.11,-73.62 2279.94,-73.12 2282.74,-72.55"/>
<polygon fill="midnightblue" stroke="midnightblue" points="1362.68,-109.35 1353.24,-114.17 1363.62,-116.29 1362.68,-109.35"/>
</g>
<!-- Node37 -->
<g id="node37" class="node">
<title>Node37</title>
<g id="a_node37"><a xlink:href="../../db/df0/txatt_8_c.html" target="_top" xlink:title=" ">
<polygon fill="white" stroke="black" points="2444.94,-55.5 2444.94,-73.5 2489.84,-73.5 2489.84,-55.5 2444.94,-55.5"/>
<text text-anchor="middle" x="2467.39" y="-61.5" font-family="Helvetica,sans-Serif" font-size="10.00">txatt.C</text>
</a>
</g>
</g>
<!-- Node35&#45;&gt;Node37 -->
<g id="edge40" class="edge">
<title>Node35&#45;&gt;Node37</title>
<path fill="none" stroke="midnightblue" d="M1363.75,-118.09C1533.98,-116.11 2222.09,-106.2 2435.39,-74 2438.46,-73.54 2441.66,-72.89 2444.79,-72.16"/>
<polygon fill="midnightblue" stroke="midnightblue" points="1363.48,-114.59 1353.52,-118.21 1363.56,-121.59 1363.48,-114.59"/>
</g>
<!-- Node38 -->
<g id="node38" class="node">
<title>Node38</title>
<g id="a_node38"><a xlink:href="../../d6/dcb/txbib_8h.html" target="_top" xlink:title=" ">
<polygon fill="white" stroke="black" points="2219.66,-55.5 2219.66,-73.5 2265.12,-73.5 2265.12,-55.5 2219.66,-55.5"/>
<text text-anchor="middle" x="2242.39" y="-61.5" font-family="Helvetica,sans-Serif" font-size="10.00">txbib.h</text>
</a>
</g>
</g>
<!-- Node35&#45;&gt;Node38 -->
<g id="edge42" class="edge">
<title>Node35&#45;&gt;Node38</title>
<path fill="none" stroke="midnightblue" d="M1363.36,-112.81C1371.6,-111.74 1380.27,-110.72 1388.39,-110 1752.63,-77.52 1848.91,-129.26 2210.39,-74 2213.35,-73.55 2216.42,-72.93 2219.44,-72.23"/>
<polygon fill="midnightblue" stroke="midnightblue" points="1362.68,-109.37 1353.24,-114.19 1363.62,-116.31 1362.68,-109.37"/>
</g>
<!-- Node38&#45;&gt;Node9 -->
<g id="edge43" class="edge">
<title>Node38&#45;&gt;Node9</title>
<path fill="none" stroke="midnightblue" d="M2209.53,-55.3C1972.77,-21.84 1274.25,-12.34 1136.96,-10.75"/>
<polygon fill="midnightblue" stroke="midnightblue" points="2209.04,-58.77 2219.45,-56.76 2210.06,-51.84 2209.04,-58.77"/>
</g>
<!-- Node39&#45;&gt;Node35 -->
<g id="edge70" class="edge">
<title>Node39&#45;&gt;Node35</title>
<path fill="none" stroke="midnightblue" d="M1300.83,-156.66C1307.21,-147.26 1314.87,-135.98 1319.92,-128.55"/>
<polygon fill="midnightblue" stroke="midnightblue" points="1297.74,-154.98 1295.02,-165.22 1303.53,-158.91 1297.74,-154.98"/>
</g>
</g>
</svg>
