<?xml version="1.0" encoding="UTF-8" standalone="no"?>
<!DOCTYPE svg PUBLIC "-//W3C//DTD SVG 1.1//EN"
 "http://www.w3.org/Graphics/SVG/1.1/DTD/svg11.dtd">
<!-- Generated by graphviz version 2.42.3 (20191010.1750)
 -->
<!-- Title: Bibliography Pages: 1 -->
<svg width="552pt" height="253pt"
 viewBox="0.00 0.00 551.72 253.00" xmlns="http://www.w3.org/2000/svg" xmlns:xlink="http://www.w3.org/1999/xlink">
<g id="graph0" class="graph" transform="scale(1 1) rotate(0) translate(4 249)">
<title>Bibliography</title>
<!-- Node1 -->
<g id="node1" class="node">
<title>Node1</title>
<g id="a_node1"><a xlink:title=" ">
<polygon fill="#bfbfbf" stroke="black" points="229.84,-0.5 229.84,-18.5 300.88,-18.5 300.88,-0.5 229.84,-0.5"/>
<text text-anchor="middle" x="265.36" y="-6.5" font-family="Helvetica,sans-Serif" font-size="10.00">Bibliography</text>
</a>
</g>
</g>
<!-- Node2 -->
<g id="node2" class="node">
<title>Node2</title>
<g id="a_node2"><a xlink:href="../../d6/d9a/class_xml.html" target="_top" xlink:title=" ">
<polygon fill="none" stroke="black" points="183.75,-131.5 183.75,-149.5 216.97,-149.5 216.97,-131.5 183.75,-131.5"/>
<text text-anchor="middle" x="200.36" y="-137.5" font-family="Helvetica,sans-Serif" font-size="10.00">Xml</text>
</a>
</g>
</g>
<!-- Node2&#45;&gt;Node1 -->
<g id="edge1" class="edge">
<title>Node2&#45;&gt;Node1</title>
<path fill="none" stroke="#9a32cd" stroke-dasharray="5,2" d="M187.72,-122.63C177.66,-106.99 166.84,-83.42 177.11,-65 190.27,-41.41 218.31,-26.75 239.27,-18.66"/>
<polygon fill="#9a32cd" stroke="#9a32cd" points="185.11,-125.01 193.68,-131.23 190.86,-121.02 185.11,-125.01"/>
<text text-anchor="middle" x="195.98" y="-72" font-family="Helvetica,sans-Serif" font-size="10.00"> location</text>
</g>
<!-- Node3 -->
<g id="node3" class="node">
<title>Node3</title>
<g id="a_node3"><a xlink:title=" ">
<polygon fill="none" stroke="#bfbfbf" points="223.73,-66 223.73,-84 326.99,-84 326.99,-66 223.73,-66"/>
<text text-anchor="middle" x="275.36" y="-72" font-family="Helvetica,sans-Serif" font-size="10.00">std::vector&lt; Xml * &gt;</text>
</a>
</g>
</g>
<!-- Node2&#45;&gt;Node3 -->
<g id="edge3" class="edge">
<title>Node2&#45;&gt;Node3</title>
<path fill="none" stroke="#9a32cd" stroke-dasharray="5,2" d="M197.87,-121.02C197.96,-114.77 199.2,-108.08 203,-103 209.68,-94.09 219.63,-88.12 230.03,-84.12"/>
<polygon fill="#9a32cd" stroke="#9a32cd" points="194.4,-121.67 198.63,-131.38 201.38,-121.15 194.4,-121.67"/>
<text text-anchor="middle" x="225.04" y="-105" font-family="Helvetica,sans-Serif" font-size="10.00"> elements</text>
</g>
<!-- Node3&#45;&gt;Node2 -->
<g id="edge2" class="edge">
<title>Node3&#45;&gt;Node2</title>
<path fill="none" stroke="#9a32cd" stroke-dasharray="5,2" d="M266.14,-93.28C261.96,-100.01 256.56,-107.43 250.36,-113 240.71,-121.67 227.72,-128.44 217.4,-132.97"/>
<polygon fill="#9a32cd" stroke="#9a32cd" points="269.4,-94.63 271.34,-84.21 263.33,-91.14 269.4,-94.63"/>
<text text-anchor="middle" x="270.36" y="-105" font-family="Helvetica,sans-Serif" font-size="10.00"> tree</text>
</g>
<!-- Node4 -->
<g id="node4" class="node">
<title>Node4</title>
<g id="a_node4"><a xlink:href="../../d9/d20/struct_istring.html" target="_top" xlink:title=" ">
<polygon fill="none" stroke="black" points="154.74,-221.5 154.74,-239.5 197.98,-239.5 197.98,-221.5 154.74,-221.5"/>
<text text-anchor="middle" x="176.36" y="-227.5" font-family="Helvetica,sans-Serif" font-size="10.00">Istring</text>
</a>
</g>
</g>
<!-- Node4&#45;&gt;Node2 -->
<g id="edge4" class="edge">
<title>Node4&#45;&gt;Node2</title>
<path fill="none" stroke="#9a32cd" stroke-dasharray="5,2" d="M181.25,-211.58C186.41,-192.64 194.33,-163.6 198.15,-149.6"/>
<polygon fill="#9a32cd" stroke="#9a32cd" points="177.83,-210.81 178.57,-221.38 184.58,-212.65 177.83,-210.81"/>
<text text-anchor="middle" x="207.26" y="-180" font-family="Helvetica,sans-Serif" font-size="10.00"> name</text>
</g>
<!-- Node7 -->
<g id="node7" class="node">
<title>Node7</title>
<g id="a_node7"><a xlink:href="../../dc/d0f/class_citation_item.html" target="_top" xlink:title=" ">
<polygon fill="none" stroke="black" points="33.68,-131.5 33.68,-149.5 103.04,-149.5 103.04,-131.5 33.68,-131.5"/>
<text text-anchor="middle" x="68.36" y="-137.5" font-family="Helvetica,sans-Serif" font-size="10.00">CitationItem</text>
</a>
</g>
</g>
<!-- Node4&#45;&gt;Node7 -->
<g id="edge9" class="edge">
<title>Node4&#45;&gt;Node7</title>
<path fill="none" stroke="#9a32cd" stroke-dasharray="5,2" d="M168.32,-211.89C161.31,-198.28 149.99,-179.83 135.36,-168 125.05,-159.67 111.79,-153.69 99.79,-149.55"/>
<polygon fill="#9a32cd" stroke="#9a32cd" points="165.3,-213.69 172.81,-221.16 171.6,-210.64 165.3,-213.69"/>
<text text-anchor="middle" x="170.36" y="-190" font-family="Helvetica,sans-Serif" font-size="10.00"> bid</text>
<text text-anchor="middle" x="170.36" y="-180" font-family="Helvetica,sans-Serif" font-size="10.00">key</text>
<text text-anchor="middle" x="170.36" y="-170" font-family="Helvetica,sans-Serif" font-size="10.00">from</text>
</g>
<!-- Node5 -->
<g id="node5" class="node">
<title>Node5</title>
<g id="a_node5"><a xlink:href="../../de/d3f/class_xid.html" target="_top" xlink:title=" ">
<polygon fill="none" stroke="black" points="89.13,-221.5 89.13,-239.5 119.59,-239.5 119.59,-221.5 89.13,-221.5"/>
<text text-anchor="middle" x="104.36" y="-227.5" font-family="Helvetica,sans-Serif" font-size="10.00">Xid</text>
</a>
</g>
</g>
<!-- Node5&#45;&gt;Node2 -->
<g id="edge5" class="edge">
<title>Node5&#45;&gt;Node2</title>
<path fill="none" stroke="#9a32cd" stroke-dasharray="5,2" d="M106.16,-211.05C108.41,-197.5 113.46,-179.53 124.8,-168 140.59,-151.94 166.65,-145.6 183.67,-143.1"/>
<polygon fill="#9a32cd" stroke="#9a32cd" points="102.67,-210.78 104.85,-221.14 109.61,-211.68 102.67,-210.78"/>
<text text-anchor="middle" x="130.64" y="-180" font-family="Helvetica,sans-Serif" font-size="10.00"> id</text>
</g>
<!-- Node5&#45;&gt;Node7 -->
<g id="edge8" class="edge">
<title>Node5&#45;&gt;Node7</title>
<path fill="none" stroke="#9a32cd" stroke-dasharray="5,2" d="M83.12,-215.13C77.75,-210.36 72.67,-204.56 69.67,-198 62.42,-182.11 64.62,-161 66.63,-149.61"/>
<polygon fill="#9a32cd" stroke="#9a32cd" points="80.96,-217.89 90.97,-221.36 85.31,-212.4 80.96,-217.89"/>
<text text-anchor="middle" x="86.2" y="-180" font-family="Helvetica,sans-Serif" font-size="10.00"> solved</text>
</g>
<!-- Node6 -->
<g id="node6" class="node">
<title>Node6</title>
<g id="a_node6"><a xlink:title=" ">
<polygon fill="none" stroke="#bfbfbf" points="0,-66 0,-84 132.72,-84 132.72,-66 0,-66"/>
<text text-anchor="middle" x="66.36" y="-72" font-family="Helvetica,sans-Serif" font-size="10.00">std::vector&lt; CitationItem &gt;</text>
</a>
</g>
</g>
<!-- Node6&#45;&gt;Node1 -->
<g id="edge6" class="edge">
<title>Node6&#45;&gt;Node1</title>
<path fill="none" stroke="#9a32cd" stroke-dasharray="5,2" d="M74.74,-56.59C79.09,-49.4 85.09,-41.66 92.65,-37 114.98,-23.23 186.01,-15.97 229.71,-12.71"/>
<polygon fill="#9a32cd" stroke="#9a32cd" points="71.48,-55.26 69.84,-65.73 77.65,-58.57 71.48,-55.26"/>
<text text-anchor="middle" x="124.21" y="-39" font-family="Helvetica,sans-Serif" font-size="10.00"> citation_table</text>
</g>
<!-- Node7&#45;&gt;Node6 -->
<g id="edge7" class="edge">
<title>Node7&#45;&gt;Node6</title>
<path fill="none" stroke="#9a32cd" stroke-dasharray="5,2" d="M67.79,-121.42C67.4,-109.16 66.91,-93.54 66.62,-84.18"/>
<polygon fill="#9a32cd" stroke="#9a32cd" points="64.29,-121.57 68.11,-131.46 71.29,-121.35 64.29,-121.57"/>
<text text-anchor="middle" x="90.04" y="-105" font-family="Helvetica,sans-Serif" font-size="10.00"> elements</text>
</g>
<!-- Node8 -->
<g id="node8" class="node">
<title>Node8</title>
<g id="a_node8"><a xlink:title="STL class.">
<polygon fill="none" stroke="#bfbfbf" points="371.68,-131.5 371.68,-149.5 431.03,-149.5 431.03,-131.5 371.68,-131.5"/>
<text text-anchor="middle" x="401.36" y="-137.5" font-family="Helvetica,sans-Serif" font-size="10.00">std::string</text>
</a>
</g>
</g>
<!-- Node8&#45;&gt;Node1 -->
<g id="edge10" class="edge">
<title>Node8&#45;&gt;Node1</title>
<path fill="none" stroke="#9a32cd" stroke-dasharray="5,2" d="M388.57,-123.02C376.04,-107.34 356.02,-83.47 336.36,-65 316.99,-46.81 291.82,-28.6 277.24,-18.52"/>
<polygon fill="#9a32cd" stroke="#9a32cd" points="386.08,-125.51 395.02,-131.2 391.57,-121.18 386.08,-125.51"/>
<text text-anchor="middle" x="376.09" y="-77" font-family="Helvetica,sans-Serif" font-size="10.00"> cmd</text>
<text text-anchor="middle" x="376.09" y="-67" font-family="Helvetica,sans-Serif" font-size="10.00">bib_style</text>
</g>
<!-- Node10 -->
<g id="node10" class="node">
<title>Node10</title>
<g id="a_node10"><a xlink:title=" ">
<polygon fill="none" stroke="#bfbfbf" points="421,-66 421,-84 543.72,-84 543.72,-66 421,-66"/>
<text text-anchor="middle" x="482.36" y="-72" font-family="Helvetica,sans-Serif" font-size="10.00">std::vector&lt; std::string &gt;</text>
</a>
</g>
</g>
<!-- Node8&#45;&gt;Node10 -->
<g id="edge13" class="edge">
<title>Node8&#45;&gt;Node10</title>
<path fill="none" stroke="#9a32cd" stroke-dasharray="5,2" d="M419.78,-125.06C435.91,-112.41 458.77,-94.49 471.93,-84.18"/>
<polygon fill="#9a32cd" stroke="#9a32cd" points="417.33,-122.53 411.62,-131.46 421.65,-128.04 417.33,-122.53"/>
<text text-anchor="middle" x="468.04" y="-105" font-family="Helvetica,sans-Serif" font-size="10.00"> elements</text>
</g>
<!-- Node9 -->
<g id="node9" class="node">
<title>Node9</title>
<g id="a_node9"><a xlink:title="STL class.">
<polygon fill="none" stroke="#bfbfbf" points="354.31,-216.5 354.31,-244.5 448.41,-244.5 448.41,-216.5 354.31,-216.5"/>
<text text-anchor="start" x="362.31" y="-232.5" font-family="Helvetica,sans-Serif" font-size="10.00">std::basic_string&lt;</text>
<text text-anchor="middle" x="401.36" y="-222.5" font-family="Helvetica,sans-Serif" font-size="10.00"> char &gt;</text>
</a>
</g>
</g>
<!-- Node9&#45;&gt;Node8 -->
<g id="edge11" class="edge">
<title>Node9&#45;&gt;Node8</title>
<path fill="none" stroke="midnightblue" d="M401.36,-206.03C401.36,-187.4 401.36,-162.42 401.36,-149.7"/>
<polygon fill="midnightblue" stroke="midnightblue" points="397.86,-206.13 401.36,-216.13 404.86,-206.13 397.86,-206.13"/>
</g>
<!-- Node10&#45;&gt;Node1 -->
<g id="edge12" class="edge">
<title>Node10&#45;&gt;Node1</title>
<path fill="none" stroke="#9a32cd" stroke-dasharray="5,2" d="M452.08,-62.37C431.26,-54.6 402.86,-44.49 377.36,-37 352.05,-29.57 323.07,-22.76 300.92,-17.9"/>
<polygon fill="#9a32cd" stroke="#9a32cd" points="451.06,-65.72 461.65,-65.97 453.53,-59.17 451.06,-65.72"/>
<text text-anchor="middle" x="428.87" y="-39" font-family="Helvetica,sans-Serif" font-size="10.00"> biblio_src</text>
</g>
</g>
</svg>
