<?xml version="1.0" encoding="UTF-8" standalone="no"?>
<!DOCTYPE svg PUBLIC "-//W3C//DTD SVG 1.1//EN"
 "http://www.w3.org/Graphics/SVG/1.1/DTD/svg11.dtd">
<!-- Generated by graphviz version 2.42.3 (20191010.1750)
 -->
<!-- Title: Bibliography Pages: 1 -->
<svg width="458pt" height="542pt"
 viewBox="0.00 0.00 457.96 542.00" xmlns="http://www.w3.org/2000/svg" xmlns:xlink="http://www.w3.org/1999/xlink">
<g id="graph0" class="graph" transform="scale(1 1) rotate(0) translate(4 538)">
<title>Bibliography</title>
<!-- Node1 -->
<g id="node1" class="node">
<title>Node1</title>
<g id="a_node1"><a xlink:title=" ">
<polygon fill="#bfbfbf" stroke="black" points="259.98,-0.5 259.98,-18.5 331.01,-18.5 331.01,-0.5 259.98,-0.5"/>
<text text-anchor="middle" x="295.49" y="-6.5" font-family="Helvetica,sans-Serif" font-size="10.00">Bibliography</text>
</a>
</g>
</g>
<!-- Node2 -->
<g id="node2" class="node">
<title>Node2</title>
<g id="a_node2"><a xlink:href="../../d6/d9a/class_xml.html" target="_top" xlink:title=" ">
<polygon fill="none" stroke="black" points="97.88,-130.5 97.88,-148.5 131.1,-148.5 131.1,-130.5 97.88,-130.5"/>
<text text-anchor="middle" x="114.49" y="-136.5" font-family="Helvetica,sans-Serif" font-size="10.00">Xml</text>
</a>
</g>
</g>
<!-- Node2&#45;&gt;Node1 -->
<g id="edge1" class="edge">
<title>Node2&#45;&gt;Node1</title>
<path fill="none" stroke="#9a32cd" stroke-dasharray="5,2" d="M113.03,-120.07C112.75,-103.69 115.03,-80.06 128.25,-65 161.49,-27.13 221.36,-15.44 259.72,-11.91"/>
<polygon fill="#9a32cd" stroke="#9a32cd" points="109.53,-120.24 113.52,-130.06 116.52,-119.9 109.53,-120.24"/>
<text text-anchor="middle" x="147.12" y="-71.5" font-family="Helvetica,sans-Serif" font-size="10.00"> location</text>
</g>
<!-- Node3 -->
<g id="node3" class="node">
<title>Node3</title>
<g id="a_node3"><a xlink:title="STL class.">
<polygon fill="none" stroke="#bfbfbf" points="0,-327.5 0,-355.5 102.99,-355.5 102.99,-327.5 0,-327.5"/>
<text text-anchor="start" x="8" y="-343.5" font-family="Helvetica,sans-Serif" font-size="10.00">std::vector&lt; gsl::not</text>
<text text-anchor="middle" x="51.49" y="-333.5" font-family="Helvetica,sans-Serif" font-size="10.00">_null&lt; Xml * &gt; &gt;</text>
</a>
</g>
</g>
<!-- Node3&#45;&gt;Node2 -->
<g id="edge2" class="edge">
<title>Node3&#45;&gt;Node2</title>
<path fill="none" stroke="midnightblue" d="M58.65,-317.78C72.61,-273.46 102.9,-177.32 111.91,-148.7"/>
<polygon fill="midnightblue" stroke="midnightblue" points="55.29,-316.79 55.63,-327.38 61.97,-318.89 55.29,-316.79"/>
</g>
<!-- Node4 -->
<g id="node4" class="node">
<title>Node4</title>
<g id="a_node4"><a xlink:title=" ">
<polygon fill="none" stroke="#bfbfbf" points="67.99,-449.5 67.99,-467.5 96.99,-467.5 96.99,-449.5 67.99,-449.5"/>
<text text-anchor="middle" x="82.05" y="-455.5" font-family="Helvetica,sans-Serif" font-size="10.00">T</text>
</a>
</g>
</g>
<!-- Node4&#45;&gt;Node3 -->
<g id="edge3" class="edge">
<title>Node4&#45;&gt;Node3</title>
<path fill="none" stroke="#9a32cd" stroke-dasharray="5,2" d="M61.13,-443.09C57.49,-439.59 54.22,-435.53 52.14,-431 40.8,-406.28 44.83,-373.44 48.4,-355.52"/>
<polygon fill="#9a32cd" stroke="#9a32cd" points="58.92,-445.81 68.86,-449.47 63.37,-440.41 58.92,-445.81"/>
<text text-anchor="middle" x="74.17" y="-423" font-family="Helvetica,sans-Serif" font-size="10.00"> elements</text>
</g>
<!-- Node7 -->
<g id="node7" class="node">
<title>Node7</title>
<g id="a_node7"><a xlink:title="STL class.">
<polygon fill="none" stroke="#bfbfbf" points="70.06,-374.5 70.06,-402.5 176.93,-402.5 176.93,-374.5 70.06,-374.5"/>
<text text-anchor="start" x="78.06" y="-390.5" font-family="Helvetica,sans-Serif" font-size="10.00">std::vector&lt; StrHash</text>
<text text-anchor="middle" x="123.49" y="-380.5" font-family="Helvetica,sans-Serif" font-size="10.00">_record &gt;</text>
</a>
</g>
</g>
<!-- Node4&#45;&gt;Node7 -->
<g id="edge7" class="edge">
<title>Node4&#45;&gt;Node7</title>
<path fill="none" stroke="#9a32cd" stroke-dasharray="5,2" d="M92.66,-440.63C99.73,-428.91 109.02,-413.51 115.54,-402.69"/>
<polygon fill="#9a32cd" stroke="#9a32cd" points="89.52,-439.06 87.36,-449.43 95.52,-442.68 89.52,-439.06"/>
<text text-anchor="middle" x="126.17" y="-423" font-family="Helvetica,sans-Serif" font-size="10.00"> elements</text>
</g>
<!-- Node5 -->
<g id="node5" class="node">
<title>Node5</title>
<g id="a_node5"><a xlink:href="../../d9/d20/struct_istring.html" target="_top" xlink:title=" ">
<polygon fill="none" stroke="black" points="129.88,-216 129.88,-234 173.11,-234 173.11,-216 129.88,-216"/>
<text text-anchor="middle" x="151.49" y="-222" font-family="Helvetica,sans-Serif" font-size="10.00">Istring</text>
</a>
</g>
</g>
<!-- Node5&#45;&gt;Node2 -->
<g id="edge4" class="edge">
<title>Node5&#45;&gt;Node2</title>
<path fill="none" stroke="#9a32cd" stroke-dasharray="5,2" d="M125.9,-210.16C121.39,-206.5 117.31,-202.12 114.7,-197 106.78,-181.44 109.78,-160.2 112.33,-148.71"/>
<polygon fill="#9a32cd" stroke="#9a32cd" points="124.04,-213.14 134.26,-215.96 128.03,-207.38 124.04,-213.14"/>
<text text-anchor="middle" x="129.39" y="-179" font-family="Helvetica,sans-Serif" font-size="10.00"> name</text>
</g>
<!-- Node13 -->
<g id="node13" class="node">
<title>Node13</title>
<g id="a_node13"><a xlink:href="../../dc/d0f/class_citation_item.html" target="_top" xlink:title=" ">
<polygon fill="none" stroke="black" points="205.82,-130.5 205.82,-148.5 275.17,-148.5 275.17,-130.5 205.82,-130.5"/>
<text text-anchor="middle" x="240.49" y="-136.5" font-family="Helvetica,sans-Serif" font-size="10.00">CitationItem</text>
</a>
</g>
</g>
<!-- Node5&#45;&gt;Node13 -->
<g id="edge15" class="edge">
<title>Node5&#45;&gt;Node13</title>
<path fill="none" stroke="#9a32cd" stroke-dasharray="5,2" d="M151.63,-205.83C152.66,-193.48 155.96,-177.52 165.49,-167 175.78,-155.64 191.25,-149.15 205.47,-145.44"/>
<polygon fill="#9a32cd" stroke="#9a32cd" points="148.13,-205.77 151.21,-215.91 155.12,-206.07 148.13,-205.77"/>
<text text-anchor="middle" x="175.49" y="-189" font-family="Helvetica,sans-Serif" font-size="10.00"> bid</text>
<text text-anchor="middle" x="175.49" y="-179" font-family="Helvetica,sans-Serif" font-size="10.00">key</text>
<text text-anchor="middle" x="175.49" y="-169" font-family="Helvetica,sans-Serif" font-size="10.00">from</text>
</g>
<!-- Node6 -->
<g id="node6" class="node">
<title>Node6</title>
<g id="a_node6"><a xlink:href="../../de/df7/class_str_hash.html" target="_top" xlink:title=" ">
<polygon fill="none" stroke="black" points="125.43,-290.5 125.43,-308.5 177.56,-308.5 177.56,-290.5 125.43,-290.5"/>
<text text-anchor="middle" x="151.49" y="-296.5" font-family="Helvetica,sans-Serif" font-size="10.00">StrHash</text>
</a>
</g>
</g>
<!-- Node6&#45;&gt;Node5 -->
<g id="edge5" class="edge">
<title>Node6&#45;&gt;Node5</title>
<path fill="none" stroke="#9a32cd" stroke-dasharray="5,2" d="M151.49,-280.04C151.49,-265.31 151.49,-245.37 151.49,-234.29"/>
<polygon fill="#9a32cd" stroke="#9a32cd" points="147.99,-280.46 151.49,-290.46 154.99,-280.46 147.99,-280.46"/>
<text text-anchor="middle" x="159.83" y="-259.5" font-family="Helvetica,sans-Serif" font-size="10.00"> SH</text>
</g>
<!-- Node7&#45;&gt;Node6 -->
<g id="edge6" class="edge">
<title>Node7&#45;&gt;Node6</title>
<path fill="none" stroke="midnightblue" d="M130.88,-364.56C136.82,-346.11 144.82,-321.24 148.88,-308.61"/>
<polygon fill="midnightblue" stroke="midnightblue" points="127.48,-363.7 127.75,-374.29 134.14,-365.84 127.48,-363.7"/>
</g>
<!-- Node8 -->
<g id="node8" class="node">
<title>Node8</title>
<g id="a_node8"><a xlink:title=" ">
<polygon fill="none" stroke="#bfbfbf" points="195.36,-374.5 195.36,-402.5 303.63,-402.5 303.63,-374.5 195.36,-374.5"/>
<text text-anchor="start" x="203.36" y="-390.5" font-family="Helvetica,sans-Serif" font-size="10.00">std::unordered_map</text>
<text text-anchor="middle" x="249.49" y="-380.5" font-family="Helvetica,sans-Serif" font-size="10.00">&lt; std::string, size_t &gt;</text>
</a>
</g>
</g>
<!-- Node8&#45;&gt;Node6 -->
<g id="edge8" class="edge">
<title>Node8&#45;&gt;Node6</title>
<path fill="none" stroke="#9a32cd" stroke-dasharray="5,2" d="M227.06,-367.59C206.04,-348.92 175.66,-321.95 160.63,-308.61"/>
<polygon fill="#9a32cd" stroke="#9a32cd" points="224.81,-370.27 234.61,-374.29 229.45,-365.03 224.81,-370.27"/>
<text text-anchor="middle" x="227.23" y="-338.5" font-family="Helvetica,sans-Serif" font-size="10.00"> s_to_i</text>
</g>
<!-- Node9 -->
<g id="node9" class="node">
<title>Node9</title>
<g id="a_node9"><a xlink:title="STL class.">
<polygon fill="none" stroke="#bfbfbf" points="309.82,-449.5 309.82,-467.5 369.17,-467.5 369.17,-449.5 309.82,-449.5"/>
<text text-anchor="middle" x="339.49" y="-455.5" font-family="Helvetica,sans-Serif" font-size="10.00">std::string</text>
</a>
</g>
</g>
<!-- Node9&#45;&gt;Node1 -->
<g id="edge16" class="edge">
<title>Node9&#45;&gt;Node1</title>
<path fill="none" stroke="#9a32cd" stroke-dasharray="5,2" d="M366.98,-444.76C386.95,-433.39 410.49,-414.66 410.49,-389.5 410.49,-389.5 410.49,-389.5 410.49,-73.5 410.49,-36.85 365.01,-21.38 331.25,-14.95"/>
<polygon fill="#9a32cd" stroke="#9a32cd" points="365.33,-441.67 358.15,-449.46 368.62,-447.85 365.33,-441.67"/>
<text text-anchor="middle" x="430.23" y="-227" font-family="Helvetica,sans-Serif" font-size="10.00"> cmd</text>
<text text-anchor="middle" x="430.23" y="-217" font-family="Helvetica,sans-Serif" font-size="10.00">bib_style</text>
</g>
<!-- Node9&#45;&gt;Node8 -->
<g id="edge9" class="edge">
<title>Node9&#45;&gt;Node8</title>
<path fill="none" stroke="#9a32cd" stroke-dasharray="5,2" d="M319.33,-443.47C313.73,-439.49 307.67,-435.13 302.15,-431 289.85,-421.8 276.23,-411.05 265.93,-402.8"/>
<polygon fill="#9a32cd" stroke="#9a32cd" points="317.42,-446.4 327.61,-449.3 321.45,-440.68 317.42,-446.4"/>
<text text-anchor="middle" x="313.16" y="-423" font-family="Helvetica,sans-Serif" font-size="10.00"> keys</text>
</g>
<!-- Node14 -->
<g id="node14" class="node">
<title>Node14</title>
<g id="a_node14"><a xlink:title=" ">
<polygon fill="none" stroke="#bfbfbf" points="273.14,-253.5 273.14,-271.5 395.85,-271.5 395.85,-253.5 273.14,-253.5"/>
<text text-anchor="middle" x="334.49" y="-259.5" font-family="Helvetica,sans-Serif" font-size="10.00">std::vector&lt; std::string &gt;</text>
</a>
</g>
</g>
<!-- Node9&#45;&gt;Node14 -->
<g id="edge18" class="edge">
<title>Node9&#45;&gt;Node14</title>
<path fill="none" stroke="#9a32cd" stroke-dasharray="5,2" d="M339.02,-438.96C337.96,-397.82 335.44,-300.3 334.7,-271.59"/>
<polygon fill="#9a32cd" stroke="#9a32cd" points="335.52,-439.26 339.28,-449.16 342.52,-439.08 335.52,-439.26"/>
<text text-anchor="middle" x="359.17" y="-385.5" font-family="Helvetica,sans-Serif" font-size="10.00"> elements</text>
</g>
<!-- Node10 -->
<g id="node10" class="node">
<title>Node10</title>
<g id="a_node10"><a xlink:title="STL class.">
<polygon fill="none" stroke="#bfbfbf" points="292.45,-505.5 292.45,-533.5 386.54,-533.5 386.54,-505.5 292.45,-505.5"/>
<text text-anchor="start" x="300.45" y="-521.5" font-family="Helvetica,sans-Serif" font-size="10.00">std::basic_string&lt;</text>
<text text-anchor="middle" x="339.49" y="-511.5" font-family="Helvetica,sans-Serif" font-size="10.00"> char &gt;</text>
</a>
</g>
</g>
<!-- Node10&#45;&gt;Node9 -->
<g id="edge10" class="edge">
<title>Node10&#45;&gt;Node9</title>
<path fill="none" stroke="midnightblue" d="M339.49,-495.39C339.49,-485.59 339.49,-474.82 339.49,-467.65"/>
<polygon fill="midnightblue" stroke="midnightblue" points="335.99,-495.41 339.49,-505.41 342.99,-495.41 335.99,-495.41"/>
</g>
<!-- Node11 -->
<g id="node11" class="node">
<title>Node11</title>
<g id="a_node11"><a xlink:href="../../de/d3f/class_xid.html" target="_top" xlink:title=" ">
<polygon fill="none" stroke="black" points="205.27,-216 205.27,-234 235.72,-234 235.72,-216 205.27,-216"/>
<text text-anchor="middle" x="220.49" y="-222" font-family="Helvetica,sans-Serif" font-size="10.00">Xid</text>
</a>
</g>
</g>
<!-- Node11&#45;&gt;Node2 -->
<g id="edge11" class="edge">
<title>Node11&#45;&gt;Node2</title>
<path fill="none" stroke="#9a32cd" stroke-dasharray="5,2" d="M213.45,-206.44C207.63,-193.91 198.24,-177.49 185.49,-167 169.65,-153.96 146.75,-146.97 131.28,-143.5"/>
<polygon fill="#9a32cd" stroke="#9a32cd" points="210.33,-208.04 217.5,-215.83 216.75,-205.26 210.33,-208.04"/>
<text text-anchor="middle" x="214.77" y="-179" font-family="Helvetica,sans-Serif" font-size="10.00"> id</text>
</g>
<!-- Node11&#45;&gt;Node13 -->
<g id="edge14" class="edge">
<title>Node11&#45;&gt;Node13</title>
<path fill="none" stroke="#9a32cd" stroke-dasharray="5,2" d="M224.79,-206.06C229.03,-188.37 235.31,-162.13 238.49,-148.85"/>
<polygon fill="#9a32cd" stroke="#9a32cd" points="221.34,-205.45 222.41,-215.99 228.14,-207.08 221.34,-205.45"/>
<text text-anchor="middle" x="250.34" y="-179" font-family="Helvetica,sans-Serif" font-size="10.00"> solved</text>
</g>
<!-- Node12 -->
<g id="node12" class="node">
<title>Node12</title>
<g id="a_node12"><a xlink:title=" ">
<polygon fill="none" stroke="#bfbfbf" points="174.13,-65.5 174.13,-83.5 306.85,-83.5 306.85,-65.5 174.13,-65.5"/>
<text text-anchor="middle" x="240.49" y="-71.5" font-family="Helvetica,sans-Serif" font-size="10.00">std::vector&lt; CitationItem &gt;</text>
</a>
</g>
</g>
<!-- Node12&#45;&gt;Node1 -->
<g id="edge12" class="edge">
<title>Node12&#45;&gt;Node1</title>
<path fill="none" stroke="#9a32cd" stroke-dasharray="5,2" d="M247.16,-56.06C250.12,-49.65 254.02,-42.6 258.78,-37 265,-29.7 273.63,-23.34 280.96,-18.68"/>
<polygon fill="#9a32cd" stroke="#9a32cd" points="243.92,-54.72 243.29,-65.3 250.38,-57.42 243.92,-54.72"/>
<text text-anchor="middle" x="290.35" y="-39" font-family="Helvetica,sans-Serif" font-size="10.00"> citation_table</text>
</g>
<!-- Node13&#45;&gt;Node12 -->
<g id="edge13" class="edge">
<title>Node13&#45;&gt;Node12</title>
<path fill="none" stroke="#9a32cd" stroke-dasharray="5,2" d="M240.49,-119.91C240.49,-107.81 240.49,-92.65 240.49,-83.54"/>
<polygon fill="#9a32cd" stroke="#9a32cd" points="236.99,-120.26 240.49,-130.26 243.99,-120.26 236.99,-120.26"/>
<text text-anchor="middle" x="262.17" y="-104" font-family="Helvetica,sans-Serif" font-size="10.00"> elements</text>
</g>
<!-- Node14&#45;&gt;Node1 -->
<g id="edge17" class="edge">
<title>Node14&#45;&gt;Node1</title>
<path fill="none" stroke="#9a32cd" stroke-dasharray="5,2" d="M334.49,-243.19C334.49,-227.28 334.49,-203.62 334.49,-183 334.49,-183 334.49,-183 334.49,-73.5 334.49,-51.12 316.48,-30.06 304.93,-18.86"/>
<polygon fill="#9a32cd" stroke="#9a32cd" points="330.99,-243.25 334.49,-253.25 337.99,-243.25 330.99,-243.25"/>
<text text-anchor="middle" x="357" y="-136.5" font-family="Helvetica,sans-Serif" font-size="10.00"> biblio_src</text>
</g>
</g>
</svg>
