<?xml version="1.0" encoding="UTF-8" standalone="no"?>
<!DOCTYPE svg PUBLIC "-//W3C//DTD SVG 1.1//EN"
 "http://www.w3.org/Graphics/SVG/1.1/DTD/svg11.dtd">
<!-- Generated by graphviz version 2.42.3 (20191010.1750)
 -->
<!-- Title: txtitlepage.C Pages: 1 -->
<svg width="749pt" height="742pt"
 viewBox="0.00 0.00 748.96 742.00" xmlns="http://www.w3.org/2000/svg" xmlns:xlink="http://www.w3.org/1999/xlink">
<g id="graph0" class="graph" transform="scale(1 1) rotate(0) translate(4 738)">
<title>txtitlepage.C</title>
<polygon fill="white" stroke="transparent" points="-4,4 -4,-738 744.96,-738 744.96,4 -4,4"/>
<!-- Node1 -->
<g id="node1" class="node">
<title>Node1</title>
<g id="a_node1"><a xlink:title=" ">
<polygon fill="#bfbfbf" stroke="black" points="346.21,-715.5 346.21,-733.5 417.79,-733.5 417.79,-715.5 346.21,-715.5"/>
<text text-anchor="middle" x="382" y="-721.5" font-family="Helvetica,sans-Serif" font-size="10.00">txtitlepage.C</text>
</a>
</g>
</g>
<!-- Node2 -->
<g id="node2" class="node">
<title>Node2</title>
<g id="a_node2"><a xlink:href="../../d5/d87/globals_8h.html" target="_top" xlink:title=" ">
<polygon fill="white" stroke="black" points="185.54,-440.5 185.54,-458.5 270.46,-458.5 270.46,-440.5 185.54,-440.5"/>
<text text-anchor="middle" x="228" y="-446.5" font-family="Helvetica,sans-Serif" font-size="10.00">tralics/globals.h</text>
</a>
</g>
</g>
<!-- Node1&#45;&gt;Node2 -->
<g id="edge1" class="edge">
<title>Node1&#45;&gt;Node2</title>
<path fill="none" stroke="midnightblue" d="M346.06,-721.04C250.97,-713.55 0,-687 0,-615.5 0,-615.5 0,-615.5 0,-558.5 0,-481.32 108.02,-459.22 175.35,-452.94"/>
<polygon fill="midnightblue" stroke="midnightblue" points="175.71,-456.42 185.38,-452.1 175.12,-449.45 175.71,-456.42"/>
</g>
<!-- Node15 -->
<g id="node15" class="node">
<title>Node15</title>
<g id="a_node15"><a xlink:href="../../d7/d79/txinline_8h.html" target="_top" xlink:title=" ">
<polygon fill="white" stroke="black" points="194.27,-660.5 194.27,-678.5 249.73,-678.5 249.73,-660.5 194.27,-660.5"/>
<text text-anchor="middle" x="222" y="-666.5" font-family="Helvetica,sans-Serif" font-size="10.00">txinline.h</text>
</a>
</g>
</g>
<!-- Node1&#45;&gt;Node15 -->
<g id="edge15" class="edge">
<title>Node1&#45;&gt;Node15</title>
<path fill="none" stroke="midnightblue" d="M357.7,-715.45C330.6,-706.47 286.58,-691.89 256.06,-681.78"/>
<polygon fill="midnightblue" stroke="midnightblue" points="256.86,-678.36 246.27,-678.54 254.66,-685.01 256.86,-678.36"/>
</g>
<!-- Node33 -->
<g id="node33" class="node">
<title>Node33</title>
<g id="a_node33"><a xlink:href="../../d2/d1b/txparser_8h.html" target="_top" xlink:title=" ">
<polygon fill="white" stroke="black" points="419.04,-660.5 419.04,-678.5 478.96,-678.5 478.96,-660.5 419.04,-660.5"/>
<text text-anchor="middle" x="449" y="-666.5" font-family="Helvetica,sans-Serif" font-size="10.00">txparser.h</text>
</a>
</g>
</g>
<!-- Node1&#45;&gt;Node33 -->
<g id="edge45" class="edge">
<title>Node1&#45;&gt;Node33</title>
<path fill="none" stroke="midnightblue" d="M392.18,-715.45C402.41,-707.36 418.4,-694.7 430.82,-684.88"/>
<polygon fill="midnightblue" stroke="midnightblue" points="433.06,-687.57 438.73,-678.63 428.71,-682.08 433.06,-687.57"/>
</g>
<!-- Node43 -->
<g id="node43" class="node">
<title>Node43</title>
<g id="a_node43"><a xlink:href="../../d5/d7f/txtitlepage_8h.html" target="_top" xlink:title=" ">
<polygon fill="white" stroke="black" points="671.04,-495.5 671.04,-513.5 740.96,-513.5 740.96,-495.5 671.04,-495.5"/>
<text text-anchor="middle" x="706" y="-501.5" font-family="Helvetica,sans-Serif" font-size="10.00">txtitlepage.h</text>
</a>
</g>
</g>
<!-- Node1&#45;&gt;Node43 -->
<g id="edge62" class="edge">
<title>Node1&#45;&gt;Node43</title>
<path fill="none" stroke="midnightblue" d="M418.06,-719.76C475.73,-711.97 589.11,-688.91 657,-624 685.88,-596.39 698.35,-549.26 703.22,-523.55"/>
<polygon fill="midnightblue" stroke="midnightblue" points="706.68,-524.12 704.92,-513.67 699.78,-522.93 706.68,-524.12"/>
</g>
<!-- Node3 -->
<g id="node3" class="node">
<title>Node3</title>
<g id="a_node3"><a xlink:href="../../dc/de8/txvars_8h.html" target="_top" xlink:title=" ">
<polygon fill="white" stroke="black" points="271.33,-275.5 271.33,-293.5 330.67,-293.5 330.67,-275.5 271.33,-275.5"/>
<text text-anchor="middle" x="301" y="-281.5" font-family="Helvetica,sans-Serif" font-size="10.00">../txvars.h</text>
</a>
</g>
</g>
<!-- Node2&#45;&gt;Node3 -->
<g id="edge2" class="edge">
<title>Node2&#45;&gt;Node3</title>
<path fill="none" stroke="midnightblue" d="M235.96,-440.28C243.79,-431.8 255.62,-417.89 263,-404 280.76,-370.56 292.02,-327.38 297.35,-303.45"/>
<polygon fill="midnightblue" stroke="midnightblue" points="300.77,-304.16 299.43,-293.65 293.93,-302.7 300.77,-304.16"/>
</g>
<!-- Node10 -->
<g id="node10" class="node">
<title>Node10</title>
<g id="a_node10"><a xlink:href="../../d8/d47/codepoint_8h.html" target="_top" xlink:title=" ">
<polygon fill="white" stroke="black" points="301.15,-165.5 301.15,-183.5 368.85,-183.5 368.85,-165.5 301.15,-165.5"/>
<text text-anchor="middle" x="335" y="-171.5" font-family="Helvetica,sans-Serif" font-size="10.00">codepoint.h</text>
</a>
</g>
</g>
<!-- Node2&#45;&gt;Node10 -->
<g id="edge9" class="edge">
<title>Node2&#45;&gt;Node10</title>
<path fill="none" stroke="midnightblue" d="M213.62,-440.49C187.75,-424.9 136,-387.79 136,-340.5 136,-340.5 136,-340.5 136,-283.5 136,-213.6 232.02,-188.7 290.66,-180.01"/>
<polygon fill="midnightblue" stroke="midnightblue" points="291.36,-183.44 300.79,-178.61 290.41,-176.51 291.36,-183.44"/>
</g>
<!-- Node11 -->
<g id="node11" class="node">
<title>Node11</title>
<g id="a_node11"><a xlink:title=" ">
<polygon fill="white" stroke="#bfbfbf" points="371.49,-385.5 371.49,-403.5 422.51,-403.5 422.51,-385.5 371.49,-385.5"/>
<text text-anchor="middle" x="397" y="-391.5" font-family="Helvetica,sans-Serif" font-size="10.00">optional</text>
</a>
</g>
</g>
<!-- Node2&#45;&gt;Node11 -->
<g id="edge11" class="edge">
<title>Node2&#45;&gt;Node11</title>
<path fill="none" stroke="midnightblue" d="M253.67,-440.45C282.41,-431.44 329.19,-416.77 361.45,-406.65"/>
<polygon fill="midnightblue" stroke="midnightblue" points="362.87,-409.87 371.37,-403.54 360.78,-403.19 362.87,-409.87"/>
</g>
<!-- Node12 -->
<g id="node12" class="node">
<title>Node12</title>
<g id="a_node12"><a xlink:title=" ">
<polygon fill="white" stroke="#bfbfbf" points="338.77,-220.5 338.77,-238.5 379.23,-238.5 379.23,-220.5 338.77,-220.5"/>
<text text-anchor="middle" x="359" y="-226.5" font-family="Helvetica,sans-Serif" font-size="10.00">string</text>
</a>
</g>
</g>
<!-- Node2&#45;&gt;Node12 -->
<g id="edge12" class="edge">
<title>Node2&#45;&gt;Node12</title>
<path fill="none" stroke="midnightblue" d="M218.77,-440.38C210.22,-432.19 198.08,-418.68 193,-404 190.24,-396.02 190.67,-393.12 193,-385 208.96,-329.54 218.63,-313.07 262,-275 281.39,-257.99 308.37,-246.32 328.96,-239.21"/>
<polygon fill="midnightblue" stroke="midnightblue" points="330.08,-242.53 338.49,-236.08 327.9,-235.87 330.08,-242.53"/>
</g>
<!-- Node13 -->
<g id="node13" class="node">
<title>Node13</title>
<g id="a_node13"><a xlink:title=" ">
<polygon fill="white" stroke="#bfbfbf" points="310.38,-385.5 310.38,-403.5 353.62,-403.5 353.62,-385.5 310.38,-385.5"/>
<text text-anchor="middle" x="332" y="-391.5" font-family="Helvetica,sans-Serif" font-size="10.00">vector</text>
</a>
</g>
</g>
<!-- Node2&#45;&gt;Node13 -->
<g id="edge13" class="edge">
<title>Node2&#45;&gt;Node13</title>
<path fill="none" stroke="midnightblue" d="M243.8,-440.45C260.59,-431.89 287.4,-418.23 307.06,-408.21"/>
<polygon fill="midnightblue" stroke="midnightblue" points="308.74,-411.28 316.06,-403.63 305.56,-405.05 308.74,-411.28"/>
</g>
<!-- Node14 -->
<g id="node14" class="node">
<title>Node14</title>
<g id="a_node14"><a xlink:title=" ">
<polygon fill="white" stroke="#bfbfbf" points="202.49,-385.5 202.49,-403.5 253.51,-403.5 253.51,-385.5 202.49,-385.5"/>
<text text-anchor="middle" x="228" y="-391.5" font-family="Helvetica,sans-Serif" font-size="10.00">unistd.h</text>
</a>
</g>
</g>
<!-- Node2&#45;&gt;Node14 -->
<g id="edge14" class="edge">
<title>Node2&#45;&gt;Node14</title>
<path fill="none" stroke="midnightblue" d="M228,-440.22C228,-433.18 228,-422.81 228,-413.83"/>
<polygon fill="midnightblue" stroke="midnightblue" points="231.5,-413.55 228,-403.55 224.5,-413.55 231.5,-413.55"/>
</g>
<!-- Node4 -->
<g id="node4" class="node">
<title>Node4</title>
<g id="a_node4"><a xlink:href="../../d0/d0b/enums_8h.html" target="_top" xlink:title=" ">
<polygon fill="white" stroke="black" points="386.38,-165.5 386.38,-183.5 469.62,-183.5 469.62,-165.5 386.38,-165.5"/>
<text text-anchor="middle" x="428" y="-171.5" font-family="Helvetica,sans-Serif" font-size="10.00">tralics/enums.h</text>
</a>
</g>
</g>
<!-- Node3&#45;&gt;Node4 -->
<g id="edge3" class="edge">
<title>Node3&#45;&gt;Node4</title>
<path fill="none" stroke="midnightblue" d="M302.74,-275.42C305.96,-262.23 314.04,-235.92 330,-220 345.54,-204.49 367.47,-193.84 386.64,-186.86"/>
<polygon fill="midnightblue" stroke="midnightblue" points="388.03,-190.08 396.37,-183.54 385.77,-183.46 388.03,-190.08"/>
</g>
<!-- Node9 -->
<g id="node9" class="node">
<title>Node9</title>
<g id="a_node9"><a xlink:title=" ">
<polygon fill="white" stroke="#bfbfbf" points="244.61,-220.5 244.61,-238.5 283.39,-238.5 283.39,-220.5 244.61,-220.5"/>
<text text-anchor="middle" x="264" y="-226.5" font-family="Helvetica,sans-Serif" font-size="10.00">array</text>
</a>
</g>
</g>
<!-- Node3&#45;&gt;Node9 -->
<g id="edge8" class="edge">
<title>Node3&#45;&gt;Node9</title>
<path fill="none" stroke="midnightblue" d="M295.22,-275.22C289.92,-267.63 281.92,-256.18 275.35,-246.76"/>
<polygon fill="midnightblue" stroke="midnightblue" points="278.21,-244.75 269.62,-238.55 272.47,-248.75 278.21,-244.75"/>
</g>
<!-- Node5 -->
<g id="node5" class="node">
<title>Node5</title>
<g id="a_node5"><a xlink:href="../../d8/db5/consts_8h.html" target="_top" xlink:title=" ">
<polygon fill="white" stroke="black" points="391.38,-110.5 391.38,-128.5 444.62,-128.5 444.62,-110.5 391.38,-110.5"/>
<text text-anchor="middle" x="418" y="-116.5" font-family="Helvetica,sans-Serif" font-size="10.00">consts.h</text>
</a>
</g>
</g>
<!-- Node4&#45;&gt;Node5 -->
<g id="edge4" class="edge">
<title>Node4&#45;&gt;Node5</title>
<path fill="none" stroke="midnightblue" d="M426.44,-165.22C425.09,-158.1 423.11,-147.58 421.4,-138.53"/>
<polygon fill="midnightblue" stroke="midnightblue" points="424.81,-137.73 419.52,-128.55 417.93,-139.03 424.81,-137.73"/>
</g>
<!-- Node6 -->
<g id="node6" class="node">
<title>Node6</title>
<g id="a_node6"><a xlink:href="../../d9/d49/types_8h.html" target="_top" xlink:title=" ">
<polygon fill="white" stroke="black" points="356.88,-55.5 356.88,-73.5 405.12,-73.5 405.12,-55.5 356.88,-55.5"/>
<text text-anchor="middle" x="381" y="-61.5" font-family="Helvetica,sans-Serif" font-size="10.00">types.h</text>
</a>
</g>
</g>
<!-- Node5&#45;&gt;Node6 -->
<g id="edge5" class="edge">
<title>Node5&#45;&gt;Node6</title>
<path fill="none" stroke="midnightblue" d="M412.22,-110.22C406.92,-102.63 398.92,-91.18 392.35,-81.76"/>
<polygon fill="midnightblue" stroke="midnightblue" points="395.21,-79.75 386.62,-73.55 389.47,-83.75 395.21,-79.75"/>
</g>
<!-- Node7 -->
<g id="node7" class="node">
<title>Node7</title>
<g id="a_node7"><a xlink:title=" ">
<polygon fill="white" stroke="#bfbfbf" points="320.88,-0.5 320.88,-18.5 369.12,-18.5 369.12,-0.5 320.88,-0.5"/>
<text text-anchor="middle" x="345" y="-6.5" font-family="Helvetica,sans-Serif" font-size="10.00">cassert</text>
</a>
</g>
</g>
<!-- Node6&#45;&gt;Node7 -->
<g id="edge6" class="edge">
<title>Node6&#45;&gt;Node7</title>
<path fill="none" stroke="midnightblue" d="M375.38,-55.22C370.27,-47.71 362.6,-36.41 356.24,-27.05"/>
<polygon fill="midnightblue" stroke="midnightblue" points="358.98,-24.86 350.47,-18.55 353.19,-28.79 358.98,-24.86"/>
</g>
<!-- Node8 -->
<g id="node8" class="node">
<title>Node8</title>
<g id="a_node8"><a xlink:title=" ">
<polygon fill="white" stroke="#bfbfbf" points="386.93,-0.5 386.93,-18.5 449.07,-18.5 449.07,-0.5 386.93,-0.5"/>
<text text-anchor="middle" x="418" y="-6.5" font-family="Helvetica,sans-Serif" font-size="10.00">type_traits</text>
</a>
</g>
</g>
<!-- Node6&#45;&gt;Node8 -->
<g id="edge7" class="edge">
<title>Node6&#45;&gt;Node8</title>
<path fill="none" stroke="midnightblue" d="M386.78,-55.22C392.08,-47.63 400.08,-36.18 406.65,-26.76"/>
<polygon fill="midnightblue" stroke="midnightblue" points="409.53,-28.75 412.38,-18.55 403.79,-24.75 409.53,-28.75"/>
</g>
<!-- Node10&#45;&gt;Node6 -->
<g id="edge10" class="edge">
<title>Node10&#45;&gt;Node6</title>
<path fill="none" stroke="midnightblue" d="M338.46,-165.38C345.88,-147.95 363.5,-106.59 373.58,-82.92"/>
<polygon fill="midnightblue" stroke="midnightblue" points="376.8,-84.28 377.5,-73.71 370.36,-81.54 376.8,-84.28"/>
</g>
<!-- Node16 -->
<g id="node16" class="node">
<title>Node16</title>
<g id="a_node16"><a xlink:href="../../d4/de9/_main_class_8h.html" target="_top" xlink:title=" ">
<polygon fill="white" stroke="black" points="106.04,-605.5 106.04,-623.5 205.96,-623.5 205.96,-605.5 106.04,-605.5"/>
<text text-anchor="middle" x="156" y="-611.5" font-family="Helvetica,sans-Serif" font-size="10.00">tralics/MainClass.h</text>
</a>
</g>
</g>
<!-- Node15&#45;&gt;Node16 -->
<g id="edge16" class="edge">
<title>Node15&#45;&gt;Node16</title>
<path fill="none" stroke="midnightblue" d="M211.98,-660.45C201.99,-652.43 186.44,-639.95 174.26,-630.17"/>
<polygon fill="midnightblue" stroke="midnightblue" points="176.11,-627.16 166.12,-623.63 171.72,-632.62 176.11,-627.16"/>
</g>
<!-- Node30 -->
<g id="node30" class="node">
<title>Node30</title>
<g id="a_node30"><a xlink:href="../../d2/d06/txlogger_8h.html" target="_top" xlink:title=" ">
<polygon fill="white" stroke="black" points="262.32,-605.5 262.32,-623.5 321.68,-623.5 321.68,-605.5 262.32,-605.5"/>
<text text-anchor="middle" x="292" y="-611.5" font-family="Helvetica,sans-Serif" font-size="10.00">txlogger.h</text>
</a>
</g>
</g>
<!-- Node15&#45;&gt;Node30 -->
<g id="edge40" class="edge">
<title>Node15&#45;&gt;Node30</title>
<path fill="none" stroke="midnightblue" d="M232.63,-660.45C243.32,-652.36 260.03,-639.7 273,-629.88"/>
<polygon fill="midnightblue" stroke="midnightblue" points="275.41,-632.45 281.27,-623.63 271.18,-626.87 275.41,-632.45"/>
</g>
<!-- Node32 -->
<g id="node32" class="node">
<title>Node32</title>
<g id="a_node32"><a xlink:href="../../d5/d08/txparam_8h.html" target="_top" xlink:title=" ">
<polygon fill="white" stroke="black" points="27.77,-605.5 27.77,-623.5 88.23,-623.5 88.23,-605.5 27.77,-605.5"/>
<text text-anchor="middle" x="58" y="-611.5" font-family="Helvetica,sans-Serif" font-size="10.00">txparam.h</text>
</a>
</g>
</g>
<!-- Node15&#45;&gt;Node32 -->
<g id="edge43" class="edge">
<title>Node15&#45;&gt;Node32</title>
<path fill="none" stroke="midnightblue" d="M197.09,-660.45C169.2,-651.44 123.8,-636.77 92.5,-626.65"/>
<polygon fill="midnightblue" stroke="midnightblue" points="93.47,-623.28 82.87,-623.54 91.31,-629.94 93.47,-623.28"/>
</g>
<!-- Node17 -->
<g id="node17" class="node">
<title>Node17</title>
<g id="a_node17"><a xlink:href="../../de/d29/txio_8h.html" target="_top" xlink:title=" ">
<polygon fill="white" stroke="black" points="111.88,-550.5 111.88,-568.5 160.12,-568.5 160.12,-550.5 111.88,-550.5"/>
<text text-anchor="middle" x="136" y="-556.5" font-family="Helvetica,sans-Serif" font-size="10.00">../txio.h</text>
</a>
</g>
</g>
<!-- Node16&#45;&gt;Node17 -->
<g id="edge17" class="edge">
<title>Node16&#45;&gt;Node17</title>
<path fill="none" stroke="midnightblue" d="M152.88,-605.22C150.13,-597.94 146.04,-587.11 142.58,-577.93"/>
<polygon fill="midnightblue" stroke="midnightblue" points="145.84,-576.67 139.04,-568.55 139.29,-579.14 145.84,-576.67"/>
</g>
<!-- Node29 -->
<g id="node29" class="node">
<title>Node29</title>
<g id="a_node29"><a xlink:href="../../dc/def/txstring_8h.html" target="_top" xlink:title=" ">
<polygon fill="white" stroke="black" points="380.55,-495.5 380.55,-513.5 445.45,-513.5 445.45,-495.5 380.55,-495.5"/>
<text text-anchor="middle" x="413" y="-501.5" font-family="Helvetica,sans-Serif" font-size="10.00">../txstring.h</text>
</a>
</g>
</g>
<!-- Node16&#45;&gt;Node29 -->
<g id="edge38" class="edge">
<title>Node16&#45;&gt;Node29</title>
<path fill="none" stroke="midnightblue" d="M165.16,-605.22C180.54,-591.73 213.05,-565.02 245,-550 285.64,-530.9 335.8,-518.97 370.68,-512.33"/>
<polygon fill="midnightblue" stroke="midnightblue" points="371.34,-515.77 380.54,-510.51 370.07,-508.88 371.34,-515.77"/>
</g>
<!-- Node18 -->
<g id="node18" class="node">
<title>Node18</title>
<g id="a_node18"><a xlink:href="../../dd/d74/txbuffer_8h.html" target="_top" xlink:title=" ">
<polygon fill="white" stroke="black" points="384.52,-440.5 384.52,-458.5 441.48,-458.5 441.48,-440.5 384.52,-440.5"/>
<text text-anchor="middle" x="413" y="-446.5" font-family="Helvetica,sans-Serif" font-size="10.00">txbuffer.h</text>
</a>
</g>
</g>
<!-- Node17&#45;&gt;Node18 -->
<g id="edge18" class="edge">
<title>Node17&#45;&gt;Node18</title>
<path fill="none" stroke="midnightblue" d="M135.87,-550.46C136.12,-536.84 138.76,-509.29 155,-495 229.06,-429.85 277.11,-477.51 374,-459 374.21,-458.96 374.43,-458.92 374.64,-458.88"/>
<polygon fill="midnightblue" stroke="midnightblue" points="375.38,-462.3 384.49,-456.89 374,-455.44 375.38,-462.3"/>
</g>
<!-- Node28 -->
<g id="node28" class="node">
<title>Node28</title>
<g id="a_node28"><a xlink:title=" ">
<polygon fill="white" stroke="#bfbfbf" points="164.33,-495.5 164.33,-513.5 213.67,-513.5 213.67,-495.5 164.33,-495.5"/>
<text text-anchor="middle" x="189" y="-501.5" font-family="Helvetica,sans-Serif" font-size="10.00">fstream</text>
</a>
</g>
</g>
<!-- Node17&#45;&gt;Node28 -->
<g id="edge37" class="edge">
<title>Node17&#45;&gt;Node28</title>
<path fill="none" stroke="midnightblue" d="M144.28,-550.22C152.11,-542.39 164.04,-530.46 173.61,-520.89"/>
<polygon fill="midnightblue" stroke="midnightblue" points="176.35,-523.1 180.95,-513.55 171.4,-518.15 176.35,-523.1"/>
</g>
<!-- Node18&#45;&gt;Node11 -->
<g id="edge35" class="edge">
<title>Node18&#45;&gt;Node11</title>
<path fill="none" stroke="midnightblue" d="M410.5,-440.22C408.33,-433.02 405.1,-422.35 402.35,-413.23"/>
<polygon fill="midnightblue" stroke="midnightblue" points="405.67,-412.11 399.43,-403.55 398.97,-414.13 405.67,-412.11"/>
</g>
<!-- Node18&#45;&gt;Node13 -->
<g id="edge36" class="edge">
<title>Node18&#45;&gt;Node13</title>
<path fill="none" stroke="midnightblue" d="M400.7,-440.45C388.09,-432.2 368.24,-419.22 353.12,-409.32"/>
<polygon fill="midnightblue" stroke="midnightblue" points="354.7,-406.17 344.42,-403.63 350.87,-412.03 354.7,-406.17"/>
</g>
<!-- Node19 -->
<g id="node19" class="node">
<title>Node19</title>
<g id="a_node19"><a xlink:href="../../d1/d9e/txid_8h.html" target="_top" xlink:title=" ">
<polygon fill="white" stroke="black" points="339.05,-330.5 339.05,-348.5 378.95,-348.5 378.95,-330.5 339.05,-330.5"/>
<text text-anchor="middle" x="359" y="-336.5" font-family="Helvetica,sans-Serif" font-size="10.00">txid.h</text>
</a>
</g>
</g>
<!-- Node18&#45;&gt;Node19 -->
<g id="edge19" class="edge">
<title>Node18&#45;&gt;Node19</title>
<path fill="none" stroke="midnightblue" d="M419.42,-440.23C428.33,-427.65 442.25,-403.26 432,-385 422.73,-368.5 404.58,-357.39 388.7,-350.4"/>
<polygon fill="midnightblue" stroke="midnightblue" points="389.78,-347.07 379.2,-346.57 387.17,-353.56 389.78,-347.07"/>
</g>
<!-- Node20 -->
<g id="node20" class="node">
<title>Node20</title>
<g id="a_node20"><a xlink:href="../../d9/d18/txscaled_8h.html" target="_top" xlink:title=" ">
<polygon fill="white" stroke="black" points="542.49,-385.5 542.49,-403.5 603.51,-403.5 603.51,-385.5 542.49,-385.5"/>
<text text-anchor="middle" x="573" y="-391.5" font-family="Helvetica,sans-Serif" font-size="10.00">txscaled.h</text>
</a>
</g>
</g>
<!-- Node18&#45;&gt;Node20 -->
<g id="edge22" class="edge">
<title>Node18&#45;&gt;Node20</title>
<path fill="none" stroke="midnightblue" d="M437.3,-440.45C464.4,-431.47 508.42,-416.89 538.94,-406.78"/>
<polygon fill="midnightblue" stroke="midnightblue" points="540.34,-410.01 548.73,-403.54 538.14,-403.36 540.34,-410.01"/>
</g>
<!-- Node27 -->
<g id="node27" class="node">
<title>Node27</title>
<g id="a_node27"><a xlink:title=" ">
<polygon fill="white" stroke="#bfbfbf" points="479.27,-385.5 479.27,-403.5 524.73,-403.5 524.73,-385.5 479.27,-385.5"/>
<text text-anchor="middle" x="502" y="-391.5" font-family="Helvetica,sans-Serif" font-size="10.00">cstring</text>
</a>
</g>
</g>
<!-- Node18&#45;&gt;Node27 -->
<g id="edge34" class="edge">
<title>Node18&#45;&gt;Node27</title>
<path fill="none" stroke="midnightblue" d="M426.52,-440.45C440.63,-432.05 463,-418.72 479.73,-408.76"/>
<polygon fill="midnightblue" stroke="midnightblue" points="481.55,-411.75 488.36,-403.63 477.97,-405.73 481.55,-411.75"/>
</g>
<!-- Node19&#45;&gt;Node3 -->
<g id="edge20" class="edge">
<title>Node19&#45;&gt;Node3</title>
<path fill="none" stroke="midnightblue" d="M349.94,-330.22C341.2,-322.24 327.79,-309.98 317.22,-300.32"/>
<polygon fill="midnightblue" stroke="midnightblue" points="319.55,-297.71 309.81,-293.55 314.83,-302.88 319.55,-297.71"/>
</g>
<!-- Node19&#45;&gt;Node12 -->
<g id="edge21" class="edge">
<title>Node19&#45;&gt;Node12</title>
<path fill="none" stroke="midnightblue" d="M359,-330.38C359,-313.18 359,-272.7 359,-248.89"/>
<polygon fill="midnightblue" stroke="midnightblue" points="362.5,-248.71 359,-238.71 355.5,-248.71 362.5,-248.71"/>
</g>
<!-- Node21 -->
<g id="node21" class="node">
<title>Node21</title>
<g id="a_node21"><a xlink:href="../../dc/d91/txtokenlist_8h.html" target="_top" xlink:title=" ">
<polygon fill="white" stroke="black" points="526.6,-330.5 526.6,-348.5 595.4,-348.5 595.4,-330.5 526.6,-330.5"/>
<text text-anchor="middle" x="561" y="-336.5" font-family="Helvetica,sans-Serif" font-size="10.00">txtokenlist.h</text>
</a>
</g>
</g>
<!-- Node20&#45;&gt;Node21 -->
<g id="edge23" class="edge">
<title>Node20&#45;&gt;Node21</title>
<path fill="none" stroke="midnightblue" d="M571.12,-385.22C569.51,-378.1 567.13,-367.58 565.08,-358.53"/>
<polygon fill="midnightblue" stroke="midnightblue" points="568.44,-357.53 562.82,-348.55 561.62,-359.08 568.44,-357.53"/>
</g>
<!-- Node21&#45;&gt;Node3 -->
<g id="edge32" class="edge">
<title>Node21&#45;&gt;Node3</title>
<path fill="none" stroke="midnightblue" d="M526.47,-331.46C478.4,-321.66 391.5,-303.95 340.77,-293.61"/>
<polygon fill="midnightblue" stroke="midnightblue" points="341.33,-290.15 330.83,-291.58 339.93,-297.01 341.33,-290.15"/>
</g>
<!-- Node22 -->
<g id="node22" class="node">
<title>Node22</title>
<g id="a_node22"><a xlink:href="../../d5/daf/_istring_8h.html" target="_top" xlink:title=" ">
<polygon fill="white" stroke="black" points="386.77,-275.5 386.77,-293.5 467.23,-293.5 467.23,-275.5 386.77,-275.5"/>
<text text-anchor="middle" x="427" y="-281.5" font-family="Helvetica,sans-Serif" font-size="10.00">tralics/Istring.h</text>
</a>
</g>
</g>
<!-- Node21&#45;&gt;Node22 -->
<g id="edge24" class="edge">
<title>Node21&#45;&gt;Node22</title>
<path fill="none" stroke="midnightblue" d="M540.65,-330.45C518.41,-321.66 482.57,-307.48 457.09,-297.4"/>
<polygon fill="midnightblue" stroke="midnightblue" points="458.13,-294.05 447.54,-293.63 455.55,-300.56 458.13,-294.05"/>
</g>
<!-- Node23 -->
<g id="node23" class="node">
<title>Node23</title>
<g id="a_node23"><a xlink:href="../../dd/dcd/_token_8h.html" target="_top" xlink:title=" ">
<polygon fill="white" stroke="black" points="523.04,-275.5 523.04,-293.5 602.96,-293.5 602.96,-275.5 523.04,-275.5"/>
<text text-anchor="middle" x="563" y="-281.5" font-family="Helvetica,sans-Serif" font-size="10.00">tralics/Token.h</text>
</a>
</g>
</g>
<!-- Node21&#45;&gt;Node23 -->
<g id="edge27" class="edge">
<title>Node21&#45;&gt;Node23</title>
<path fill="none" stroke="midnightblue" d="M561.31,-330.22C561.58,-323.18 561.97,-312.81 562.31,-303.83"/>
<polygon fill="midnightblue" stroke="midnightblue" points="565.82,-303.67 562.7,-293.55 558.82,-303.41 565.82,-303.67"/>
</g>
<!-- Node26 -->
<g id="node26" class="node">
<title>Node26</title>
<g id="a_node26"><a xlink:title=" ">
<polygon fill="white" stroke="#bfbfbf" points="623.61,-275.5 623.61,-293.5 662.39,-293.5 662.39,-275.5 623.61,-275.5"/>
<text text-anchor="middle" x="643" y="-281.5" font-family="Helvetica,sans-Serif" font-size="10.00">utility</text>
</a>
</g>
</g>
<!-- Node21&#45;&gt;Node26 -->
<g id="edge33" class="edge">
<title>Node21&#45;&gt;Node26</title>
<path fill="none" stroke="midnightblue" d="M573.45,-330.45C586.22,-322.2 606.31,-309.22 621.62,-299.32"/>
<polygon fill="midnightblue" stroke="midnightblue" points="623.93,-301.99 630.43,-293.63 620.13,-296.11 623.93,-301.99"/>
</g>
<!-- Node22&#45;&gt;Node4 -->
<g id="edge25" class="edge">
<title>Node22&#45;&gt;Node4</title>
<path fill="none" stroke="midnightblue" d="M438.15,-275.42C448.12,-267.45 462.04,-254.27 468,-239 475.05,-220.94 460.39,-202.42 446.88,-190.08"/>
<polygon fill="midnightblue" stroke="midnightblue" points="449.11,-187.39 439.23,-183.58 444.58,-192.72 449.11,-187.39"/>
</g>
<!-- Node22&#45;&gt;Node12 -->
<g id="edge26" class="edge">
<title>Node22&#45;&gt;Node12</title>
<path fill="none" stroke="midnightblue" d="M416.67,-275.45C406.29,-267.36 390.05,-254.7 377.45,-244.88"/>
<polygon fill="midnightblue" stroke="midnightblue" points="379.46,-242.01 369.42,-238.63 375.16,-247.53 379.46,-242.01"/>
</g>
<!-- Node24 -->
<g id="node24" class="node">
<title>Node24</title>
<g id="a_node24"><a xlink:href="../../d2/d68/_cmd_chr_8h.html" target="_top" xlink:title=" ">
<polygon fill="white" stroke="black" points="397.49,-220.5 397.49,-238.5 458.51,-238.5 458.51,-220.5 397.49,-220.5"/>
<text text-anchor="middle" x="428" y="-226.5" font-family="Helvetica,sans-Serif" font-size="10.00">CmdChr.h</text>
</a>
</g>
</g>
<!-- Node23&#45;&gt;Node24 -->
<g id="edge28" class="edge">
<title>Node23&#45;&gt;Node24</title>
<path fill="none" stroke="midnightblue" d="M542.5,-275.45C520.1,-266.66 483.99,-252.48 458.31,-242.4"/>
<polygon fill="midnightblue" stroke="midnightblue" points="459.28,-239.02 448.7,-238.63 456.73,-245.54 459.28,-239.02"/>
</g>
<!-- Node25 -->
<g id="node25" class="node">
<title>Node25</title>
<g id="a_node25"><a xlink:title=" ">
<polygon fill="white" stroke="#bfbfbf" points="548.5,-220.5 548.5,-238.5 577.5,-238.5 577.5,-220.5 548.5,-220.5"/>
<text text-anchor="middle" x="562.61" y="-226.5" font-family="Helvetica,sans-Serif" font-size="10.00">list</text>
</a>
</g>
</g>
<!-- Node23&#45;&gt;Node25 -->
<g id="edge31" class="edge">
<title>Node23&#45;&gt;Node25</title>
<path fill="none" stroke="midnightblue" d="M563,-275.22C563,-268.18 563,-257.81 563,-248.83"/>
<polygon fill="midnightblue" stroke="midnightblue" points="566.5,-248.55 563,-238.55 559.5,-248.55 566.5,-248.55"/>
</g>
<!-- Node24&#45;&gt;Node4 -->
<g id="edge30" class="edge">
<title>Node24&#45;&gt;Node4</title>
<path fill="none" stroke="midnightblue" d="M428,-220.22C428,-213.18 428,-202.81 428,-193.83"/>
<polygon fill="midnightblue" stroke="midnightblue" points="431.5,-193.55 428,-183.55 424.5,-193.55 431.5,-193.55"/>
</g>
<!-- Node24&#45;&gt;Node10 -->
<g id="edge29" class="edge">
<title>Node24&#45;&gt;Node10</title>
<path fill="none" stroke="midnightblue" d="M413.88,-220.45C399.13,-212.05 375.75,-198.72 358.27,-188.76"/>
<polygon fill="midnightblue" stroke="midnightblue" points="359.68,-185.54 349.26,-183.63 356.21,-191.62 359.68,-185.54"/>
</g>
<!-- Node29&#45;&gt;Node18 -->
<g id="edge39" class="edge">
<title>Node29&#45;&gt;Node18</title>
<path fill="none" stroke="midnightblue" d="M413,-495.22C413,-488.18 413,-477.81 413,-468.83"/>
<polygon fill="midnightblue" stroke="midnightblue" points="416.5,-468.55 413,-458.55 409.5,-468.55 416.5,-468.55"/>
</g>
<!-- Node30&#45;&gt;Node28 -->
<g id="edge41" class="edge">
<title>Node30&#45;&gt;Node28</title>
<path fill="none" stroke="midnightblue" d="M282.76,-605.2C273.11,-596.44 257.64,-582.1 245,-569 229.76,-553.21 213.25,-534.24 202.13,-521.17"/>
<polygon fill="midnightblue" stroke="midnightblue" points="204.8,-518.91 195.68,-513.53 199.45,-523.42 204.8,-518.91"/>
</g>
<!-- Node31 -->
<g id="node31" class="node">
<title>Node31</title>
<g id="a_node31"><a xlink:title=" ">
<polygon fill="white" stroke="#bfbfbf" points="253.83,-550.5 253.83,-568.5 308.17,-568.5 308.17,-550.5 253.83,-550.5"/>
<text text-anchor="middle" x="281" y="-556.5" font-family="Helvetica,sans-Serif" font-size="10.00">iostream</text>
</a>
</g>
</g>
<!-- Node30&#45;&gt;Node31 -->
<g id="edge42" class="edge">
<title>Node30&#45;&gt;Node31</title>
<path fill="none" stroke="midnightblue" d="M290.28,-605.22C288.8,-598.1 286.62,-587.58 284.74,-578.53"/>
<polygon fill="midnightblue" stroke="midnightblue" points="288.13,-577.63 282.67,-568.55 281.28,-579.05 288.13,-577.63"/>
</g>
<!-- Node32&#45;&gt;Node17 -->
<g id="edge44" class="edge">
<title>Node32&#45;&gt;Node17</title>
<path fill="none" stroke="midnightblue" d="M69.85,-605.45C81.99,-597.2 101.1,-584.22 115.66,-574.32"/>
<polygon fill="midnightblue" stroke="midnightblue" points="117.74,-577.14 124.04,-568.63 113.8,-571.35 117.74,-577.14"/>
</g>
<!-- Node33&#45;&gt;Node17 -->
<g id="edge56" class="edge">
<title>Node33&#45;&gt;Node17</title>
<path fill="none" stroke="midnightblue" d="M418.7,-664.26C379.54,-658.19 309.65,-645.34 253,-624 243.4,-620.38 190.79,-591.21 159.48,-573.69"/>
<polygon fill="midnightblue" stroke="midnightblue" points="160.96,-570.51 150.52,-568.67 157.53,-576.61 160.96,-570.51"/>
</g>
<!-- Node34 -->
<g id="node34" class="node">
<title>Node34</title>
<g id="a_node34"><a xlink:href="../../d3/d6b/txcond_8h.html" target="_top" xlink:title=" ">
<polygon fill="white" stroke="black" points="311.1,-440.5 311.1,-458.5 364.9,-458.5 364.9,-440.5 311.1,-440.5"/>
<text text-anchor="middle" x="338" y="-446.5" font-family="Helvetica,sans-Serif" font-size="10.00">txcond.h</text>
</a>
</g>
</g>
<!-- Node33&#45;&gt;Node34 -->
<g id="edge46" class="edge">
<title>Node33&#45;&gt;Node34</title>
<path fill="none" stroke="midnightblue" d="M479.14,-668.3C511.54,-666.27 561.67,-657.48 586,-624 605.33,-597.39 604.24,-577.37 586,-550 561.68,-513.53 438.12,-476.68 375.09,-459.89"/>
<polygon fill="midnightblue" stroke="midnightblue" points="375.72,-456.43 365.16,-457.27 373.94,-463.2 375.72,-456.43"/>
</g>
<!-- Node35 -->
<g id="node35" class="node">
<title>Node35</title>
<g id="a_node35"><a xlink:href="../../d7/d4d/txfonts_8h.html" target="_top" xlink:title=" ">
<polygon fill="white" stroke="black" points="326.1,-550.5 326.1,-568.5 379.9,-568.5 379.9,-550.5 326.1,-550.5"/>
<text text-anchor="middle" x="353" y="-556.5" font-family="Helvetica,sans-Serif" font-size="10.00">txfonts.h</text>
</a>
</g>
</g>
<!-- Node33&#45;&gt;Node35 -->
<g id="edge48" class="edge">
<title>Node33&#45;&gt;Node35</title>
<path fill="none" stroke="midnightblue" d="M443.69,-660.29C435.44,-647.8 418.75,-623.51 402,-605 392.34,-594.32 380.4,-583.44 370.72,-575.1"/>
<polygon fill="midnightblue" stroke="midnightblue" points="372.81,-572.29 362.92,-568.51 368.3,-577.64 372.81,-572.29"/>
</g>
<!-- Node36 -->
<g id="node36" class="node">
<title>Node36</title>
<g id="a_node36"><a xlink:href="../../d7/d7e/txhash_8h.html" target="_top" xlink:title=" ">
<polygon fill="white" stroke="black" points="523.1,-605.5 523.1,-623.5 576.9,-623.5 576.9,-605.5 523.1,-605.5"/>
<text text-anchor="middle" x="550" y="-611.5" font-family="Helvetica,sans-Serif" font-size="10.00">txhash.h</text>
</a>
</g>
</g>
<!-- Node33&#45;&gt;Node36 -->
<g id="edge50" class="edge">
<title>Node33&#45;&gt;Node36</title>
<path fill="none" stroke="midnightblue" d="M464.34,-660.45C480.58,-651.93 506.45,-638.35 525.51,-628.35"/>
<polygon fill="midnightblue" stroke="midnightblue" points="527.29,-631.37 534.52,-623.63 524.03,-625.17 527.29,-631.37"/>
</g>
<!-- Node38 -->
<g id="node38" class="node">
<title>Node38</title>
<g id="a_node38"><a xlink:href="../../de/d7c/tximage_8h.html" target="_top" xlink:title=" ">
<polygon fill="white" stroke="black" points="613.32,-330.5 613.32,-348.5 672.68,-348.5 672.68,-330.5 613.32,-330.5"/>
<text text-anchor="middle" x="643" y="-336.5" font-family="Helvetica,sans-Serif" font-size="10.00">tximage.h</text>
</a>
</g>
</g>
<!-- Node33&#45;&gt;Node38 -->
<g id="edge53" class="edge">
<title>Node33&#45;&gt;Node38</title>
<path fill="none" stroke="midnightblue" d="M479.31,-665.5C533.88,-658.26 643,-634.51 643,-560.5 643,-560.5 643,-560.5 643,-448.5 643,-417.02 643,-380.37 643,-358.88"/>
<polygon fill="midnightblue" stroke="midnightblue" points="646.5,-358.63 643,-348.63 639.5,-358.63 646.5,-358.63"/>
</g>
<!-- Node39 -->
<g id="node39" class="node">
<title>Node39</title>
<g id="a_node39"><a xlink:href="../../dc/d65/txstack_8h.html" target="_top" xlink:title=" ">
<polygon fill="white" stroke="black" points="449.27,-605.5 449.27,-623.5 504.73,-623.5 504.73,-605.5 449.27,-605.5"/>
<text text-anchor="middle" x="477" y="-611.5" font-family="Helvetica,sans-Serif" font-size="10.00">txstack.h</text>
</a>
</g>
</g>
<!-- Node33&#45;&gt;Node39 -->
<g id="edge57" class="edge">
<title>Node33&#45;&gt;Node39</title>
<path fill="none" stroke="midnightblue" d="M453.38,-660.22C457.26,-652.86 463.06,-641.88 467.95,-632.64"/>
<polygon fill="midnightblue" stroke="midnightblue" points="471.17,-634.03 472.75,-623.55 464.98,-630.76 471.17,-634.03"/>
</g>
<!-- Node42 -->
<g id="node42" class="node">
<title>Node42</title>
<g id="a_node42"><a xlink:href="../../d8/d3d/txstats_8h.html" target="_top" xlink:title=" ">
<polygon fill="white" stroke="black" points="339.38,-605.5 339.38,-623.5 392.62,-623.5 392.62,-605.5 339.38,-605.5"/>
<text text-anchor="middle" x="366" y="-611.5" font-family="Helvetica,sans-Serif" font-size="10.00">txstats.h</text>
</a>
</g>
</g>
<!-- Node33&#45;&gt;Node42 -->
<g id="edge61" class="edge">
<title>Node33&#45;&gt;Node42</title>
<path fill="none" stroke="midnightblue" d="M436.39,-660.45C423.35,-652.12 402.76,-638.97 387.2,-629.04"/>
<polygon fill="midnightblue" stroke="midnightblue" points="389.04,-626.06 378.72,-623.63 385.27,-631.96 389.04,-626.06"/>
</g>
<!-- Node34&#45;&gt;Node13 -->
<g id="edge47" class="edge">
<title>Node34&#45;&gt;Node13</title>
<path fill="none" stroke="midnightblue" d="M337.06,-440.22C336.26,-433.1 335.07,-422.58 334.04,-413.53"/>
<polygon fill="midnightblue" stroke="midnightblue" points="337.51,-413.09 332.91,-403.55 330.56,-413.88 337.51,-413.09"/>
</g>
<!-- Node35&#45;&gt;Node29 -->
<g id="edge49" class="edge">
<title>Node35&#45;&gt;Node29</title>
<path fill="none" stroke="midnightblue" d="M362.11,-550.45C371.1,-542.51 385.05,-530.19 396.07,-520.45"/>
<polygon fill="midnightblue" stroke="midnightblue" points="398.62,-522.87 403.8,-513.63 393.99,-517.62 398.62,-522.87"/>
</g>
<!-- Node37 -->
<g id="node37" class="node">
<title>Node37</title>
<g id="a_node37"><a xlink:href="../../d3/d01/txeqtb_8h.html" target="_top" xlink:title=" ">
<polygon fill="white" stroke="black" points="525.21,-550.5 525.21,-568.5 576.79,-568.5 576.79,-550.5 525.21,-550.5"/>
<text text-anchor="middle" x="551" y="-556.5" font-family="Helvetica,sans-Serif" font-size="10.00">txeqtb.h</text>
</a>
</g>
</g>
<!-- Node36&#45;&gt;Node37 -->
<g id="edge51" class="edge">
<title>Node36&#45;&gt;Node37</title>
<path fill="none" stroke="midnightblue" d="M550.16,-605.22C550.29,-598.18 550.48,-587.81 550.65,-578.83"/>
<polygon fill="midnightblue" stroke="midnightblue" points="554.16,-578.61 550.85,-568.55 547.16,-578.48 554.16,-578.61"/>
</g>
<!-- Node37&#45;&gt;Node29 -->
<g id="edge52" class="edge">
<title>Node37&#45;&gt;Node29</title>
<path fill="none" stroke="midnightblue" d="M530.04,-550.45C507.04,-541.62 469.9,-527.35 443.64,-517.27"/>
<polygon fill="midnightblue" stroke="midnightblue" points="444.75,-513.94 434.16,-513.63 442.24,-520.48 444.75,-513.94"/>
</g>
<!-- Node38&#45;&gt;Node12 -->
<g id="edge54" class="edge">
<title>Node38&#45;&gt;Node12</title>
<path fill="none" stroke="midnightblue" d="M616.43,-330.46C590.08,-322.23 548.73,-308.6 514,-294 496.59,-286.68 493.29,-282.59 476,-275 446.92,-262.24 412.92,-249.55 389.09,-241"/>
<polygon fill="midnightblue" stroke="midnightblue" points="390.14,-237.66 379.54,-237.61 387.79,-244.26 390.14,-237.66"/>
</g>
<!-- Node38&#45;&gt;Node26 -->
<g id="edge55" class="edge">
<title>Node38&#45;&gt;Node26</title>
<path fill="none" stroke="midnightblue" d="M643,-330.22C643,-323.18 643,-312.81 643,-303.83"/>
<polygon fill="midnightblue" stroke="midnightblue" points="646.5,-303.55 643,-293.55 639.5,-303.55 646.5,-303.55"/>
</g>
<!-- Node40 -->
<g id="node40" class="node">
<title>Node40</title>
<g id="a_node40"><a xlink:href="../../d4/da4/txatt_8h.html" target="_top" xlink:title=" ">
<polygon fill="white" stroke="black" points="398.38,-550.5 398.38,-568.5 441.62,-568.5 441.62,-550.5 398.38,-550.5"/>
<text text-anchor="middle" x="420" y="-556.5" font-family="Helvetica,sans-Serif" font-size="10.00">txatt.h</text>
</a>
</g>
</g>
<!-- Node39&#45;&gt;Node40 -->
<g id="edge58" class="edge">
<title>Node39&#45;&gt;Node40</title>
<path fill="none" stroke="midnightblue" d="M468.09,-605.22C459.59,-597.32 446.59,-585.22 436.25,-575.61"/>
<polygon fill="midnightblue" stroke="midnightblue" points="438.36,-572.8 428.66,-568.55 433.6,-577.92 438.36,-572.8"/>
</g>
<!-- Node41 -->
<g id="node41" class="node">
<title>Node41</title>
<g id="a_node41"><a xlink:href="../../d1/d43/txxml_8h.html" target="_top" xlink:title=" ">
<polygon fill="white" stroke="black" points="459.17,-550.5 459.17,-568.5 506.83,-568.5 506.83,-550.5 459.17,-550.5"/>
<text text-anchor="middle" x="483" y="-556.5" font-family="Helvetica,sans-Serif" font-size="10.00">txxml.h</text>
</a>
</g>
</g>
<!-- Node39&#45;&gt;Node41 -->
<g id="edge60" class="edge">
<title>Node39&#45;&gt;Node41</title>
<path fill="none" stroke="midnightblue" d="M477.94,-605.22C478.74,-598.1 479.93,-587.58 480.96,-578.53"/>
<polygon fill="midnightblue" stroke="midnightblue" points="484.44,-578.88 482.09,-568.55 477.49,-578.09 484.44,-578.88"/>
</g>
<!-- Node40&#45;&gt;Node29 -->
<g id="edge59" class="edge">
<title>Node40&#45;&gt;Node29</title>
<path fill="none" stroke="midnightblue" d="M418.91,-550.22C417.97,-543.1 416.58,-532.58 415.38,-523.53"/>
<polygon fill="midnightblue" stroke="midnightblue" points="418.84,-523.01 414.06,-513.55 411.9,-523.92 418.84,-523.01"/>
</g>
<!-- Node43&#45;&gt;Node26 -->
<g id="edge63" class="edge">
<title>Node43&#45;&gt;Node26</title>
<path fill="none" stroke="midnightblue" d="M706.47,-495.45C707.66,-469.9 708.91,-388.91 682,-330 676.94,-318.93 668.21,-308.57 660.29,-300.64"/>
<polygon fill="midnightblue" stroke="midnightblue" points="662.48,-297.9 652.8,-293.58 657.68,-302.99 662.48,-297.9"/>
</g>
</g>
</svg>
