<?xml version="1.0" encoding="UTF-8" standalone="no"?>
<!DOCTYPE svg PUBLIC "-//W3C//DTD SVG 1.1//EN"
 "http://www.w3.org/Graphics/SVG/1.1/DTD/svg11.dtd">
<!-- Generated by graphviz version 2.43.0 (0)
 -->
<!-- Title: txtitlepage.C Pages: 1 -->
<svg width="676pt" height="742pt"
 viewBox="0.00 0.00 675.68 742.00" xmlns="http://www.w3.org/2000/svg" xmlns:xlink="http://www.w3.org/1999/xlink">
<g id="graph0" class="graph" transform="scale(1 1) rotate(0) translate(4 738)">
<title>txtitlepage.C</title>
<polygon fill="white" stroke="transparent" points="-4,4 -4,-738 671.68,-738 671.68,4 -4,4"/>
<!-- Node1 -->
<g id="node1" class="node">
<title>Node1</title>
<g id="a_node1"><a xlink:title=" ">
<polygon fill="#bfbfbf" stroke="black" points="329.21,-715.5 329.21,-733.5 400.79,-733.5 400.79,-715.5 329.21,-715.5"/>
<text text-anchor="middle" x="365" y="-721.5" font-family="Helvetica,sans-Serif" font-size="10.00">txtitlepage.C</text>
</a>
</g>
</g>
<!-- Node2 -->
<g id="node2" class="node">
<title>Node2</title>
<g id="a_node2"><a xlink:href="../../d5/d87/globals_8h.html" target="_top" xlink:title=" ">
<polygon fill="white" stroke="black" points="173.54,-440.5 173.54,-458.5 258.46,-458.5 258.46,-440.5 173.54,-440.5"/>
<text text-anchor="middle" x="216" y="-446.5" font-family="Helvetica,sans-Serif" font-size="10.00">tralics/globals.h</text>
</a>
</g>
</g>
<!-- Node1&#45;&gt;Node2 -->
<g id="edge1" class="edge">
<title>Node1&#45;&gt;Node2</title>
<path fill="none" stroke="midnightblue" d="M329,-720.57C236.92,-712.09 0,-683.65 0,-615.5 0,-615.5 0,-615.5 0,-558.5 0,-485.82 99.04,-462.05 162.99,-454.28"/>
<polygon fill="midnightblue" stroke="midnightblue" points="163.78,-457.71 173.33,-453.12 163,-450.75 163.78,-457.71"/>
</g>
<!-- Node14 -->
<g id="node14" class="node">
<title>Node14</title>
<g id="a_node14"><a xlink:href="../../d7/d79/txinline_8h.html" target="_top" xlink:title=" ">
<polygon fill="white" stroke="black" points="157.27,-660.5 157.27,-678.5 212.73,-678.5 212.73,-660.5 157.27,-660.5"/>
<text text-anchor="middle" x="185" y="-666.5" font-family="Helvetica,sans-Serif" font-size="10.00">txinline.h</text>
</a>
</g>
</g>
<!-- Node1&#45;&gt;Node14 -->
<g id="edge14" class="edge">
<title>Node1&#45;&gt;Node14</title>
<path fill="none" stroke="midnightblue" d="M337.66,-715.45C306.78,-706.36 256.36,-691.51 221.98,-681.39"/>
<polygon fill="midnightblue" stroke="midnightblue" points="222.88,-678.01 212.3,-678.54 220.9,-684.72 222.88,-678.01"/>
</g>
<!-- Node32 -->
<g id="node32" class="node">
<title>Node32</title>
<g id="a_node32"><a xlink:href="../../d2/d1b/txparser_8h.html" target="_top" xlink:title=" ">
<polygon fill="white" stroke="black" points="438.04,-660.5 438.04,-678.5 497.96,-678.5 497.96,-660.5 438.04,-660.5"/>
<text text-anchor="middle" x="468" y="-666.5" font-family="Helvetica,sans-Serif" font-size="10.00">txparser.h</text>
</a>
</g>
</g>
<!-- Node1&#45;&gt;Node32 -->
<g id="edge43" class="edge">
<title>Node1&#45;&gt;Node32</title>
<path fill="none" stroke="midnightblue" d="M380.64,-715.45C397.28,-706.89 423.83,-693.23 443.3,-683.21"/>
<polygon fill="midnightblue" stroke="midnightblue" points="444.92,-686.31 452.21,-678.63 441.72,-680.09 444.92,-686.31"/>
</g>
<!-- Node42 -->
<g id="node42" class="node">
<title>Node42</title>
<g id="a_node42"><a xlink:href="../../d5/d7f/txtitlepage_8h.html" target="_top" xlink:title=" ">
<polygon fill="white" stroke="black" points="546.04,-495.5 546.04,-513.5 615.96,-513.5 615.96,-495.5 546.04,-495.5"/>
<text text-anchor="middle" x="581" y="-501.5" font-family="Helvetica,sans-Serif" font-size="10.00">txtitlepage.h</text>
</a>
</g>
</g>
<!-- Node1&#45;&gt;Node42 -->
<g id="edge60" class="edge">
<title>Node1&#45;&gt;Node42</title>
<path fill="none" stroke="midnightblue" d="M401.2,-721.27C457.12,-715.6 562.37,-695.46 604,-624 622.83,-591.68 604.22,-546.82 591.22,-522.62"/>
<polygon fill="midnightblue" stroke="midnightblue" points="594.1,-520.59 586.13,-513.61 588.01,-524.04 594.1,-520.59"/>
</g>
<!-- Node3 -->
<g id="node3" class="node">
<title>Node3</title>
<g id="a_node3"><a xlink:href="../../dc/de8/txvars_8h.html" target="_top" xlink:title=" ">
<polygon fill="white" stroke="black" points="204.33,-275.5 204.33,-293.5 263.67,-293.5 263.67,-275.5 204.33,-275.5"/>
<text text-anchor="middle" x="234" y="-281.5" font-family="Helvetica,sans-Serif" font-size="10.00">../txvars.h</text>
</a>
</g>
</g>
<!-- Node2&#45;&gt;Node3 -->
<g id="edge2" class="edge">
<title>Node2&#45;&gt;Node3</title>
<path fill="none" stroke="midnightblue" d="M214.09,-440.36C212.11,-431.48 209.14,-416.82 208,-404 204.75,-367.6 217.85,-326.1 226.63,-303.14"/>
<polygon fill="midnightblue" stroke="midnightblue" points="229.94,-304.3 230.39,-293.72 223.43,-301.71 229.94,-304.3"/>
</g>
<!-- Node10 -->
<g id="node10" class="node">
<title>Node10</title>
<g id="a_node10"><a xlink:href="../../d8/d47/codepoint_8h.html" target="_top" xlink:title=" ">
<polygon fill="white" stroke="black" points="86.15,-165.5 86.15,-183.5 153.85,-183.5 153.85,-165.5 86.15,-165.5"/>
<text text-anchor="middle" x="120" y="-171.5" font-family="Helvetica,sans-Serif" font-size="10.00">codepoint.h</text>
</a>
</g>
</g>
<!-- Node2&#45;&gt;Node10 -->
<g id="edge9" class="edge">
<title>Node2&#45;&gt;Node10</title>
<path fill="none" stroke="midnightblue" d="M180.44,-440.47C134.68,-427.79 61,-398.39 61,-340.5 61,-340.5 61,-340.5 61,-283.5 61,-254.04 65.58,-245.69 80,-220 86.03,-209.27 95.04,-198.93 102.99,-190.93"/>
<polygon fill="midnightblue" stroke="midnightblue" points="105.65,-193.23 110.43,-183.78 100.8,-188.19 105.65,-193.23"/>
</g>
<!-- Node11 -->
<g id="node11" class="node">
<title>Node11</title>
<g id="a_node11"><a xlink:title=" ">
<polygon fill="white" stroke="#bfbfbf" points="389.77,-220.5 389.77,-238.5 430.23,-238.5 430.23,-220.5 389.77,-220.5"/>
<text text-anchor="middle" x="410" y="-226.5" font-family="Helvetica,sans-Serif" font-size="10.00">string</text>
</a>
</g>
</g>
<!-- Node2&#45;&gt;Node11 -->
<g id="edge11" class="edge">
<title>Node2&#45;&gt;Node11</title>
<path fill="none" stroke="midnightblue" d="M228.84,-440.49C262.97,-419.12 353.97,-361.54 364,-349 388.5,-318.36 401.16,-273.13 406.6,-248.35"/>
<polygon fill="midnightblue" stroke="midnightblue" points="410.04,-249.03 408.61,-238.53 403.18,-247.62 410.04,-249.03"/>
</g>
<!-- Node12 -->
<g id="node12" class="node">
<title>Node12</title>
<g id="a_node12"><a xlink:title=" ">
<polygon fill="white" stroke="#bfbfbf" points="325.38,-385.5 325.38,-403.5 368.62,-403.5 368.62,-385.5 325.38,-385.5"/>
<text text-anchor="middle" x="347" y="-391.5" font-family="Helvetica,sans-Serif" font-size="10.00">vector</text>
</a>
</g>
</g>
<!-- Node2&#45;&gt;Node12 -->
<g id="edge12" class="edge">
<title>Node2&#45;&gt;Node12</title>
<path fill="none" stroke="midnightblue" d="M235.9,-440.45C257.63,-431.66 292.67,-417.48 317.59,-407.4"/>
<polygon fill="midnightblue" stroke="midnightblue" points="318.96,-410.62 326.92,-403.63 316.33,-404.13 318.96,-410.62"/>
</g>
<!-- Node13 -->
<g id="node13" class="node">
<title>Node13</title>
<g id="a_node13"><a xlink:title=" ">
<polygon fill="white" stroke="#bfbfbf" points="217.49,-385.5 217.49,-403.5 268.51,-403.5 268.51,-385.5 217.49,-385.5"/>
<text text-anchor="middle" x="243" y="-391.5" font-family="Helvetica,sans-Serif" font-size="10.00">unistd.h</text>
</a>
</g>
</g>
<!-- Node2&#45;&gt;Node13 -->
<g id="edge13" class="edge">
<title>Node2&#45;&gt;Node13</title>
<path fill="none" stroke="midnightblue" d="M220.22,-440.22C223.97,-432.86 229.56,-421.88 234.27,-412.64"/>
<polygon fill="midnightblue" stroke="midnightblue" points="237.48,-414.05 238.9,-403.55 231.24,-410.87 237.48,-414.05"/>
</g>
<!-- Node4 -->
<g id="node4" class="node">
<title>Node4</title>
<g id="a_node4"><a xlink:href="../../d0/d0b/enums_8h.html" target="_top" xlink:title=" ">
<polygon fill="white" stroke="black" points="205.38,-165.5 205.38,-183.5 288.62,-183.5 288.62,-165.5 205.38,-165.5"/>
<text text-anchor="middle" x="247" y="-171.5" font-family="Helvetica,sans-Serif" font-size="10.00">tralics/enums.h</text>
</a>
</g>
</g>
<!-- Node3&#45;&gt;Node4 -->
<g id="edge3" class="edge">
<title>Node3&#45;&gt;Node4</title>
<path fill="none" stroke="midnightblue" d="M241.4,-275.39C248.52,-266.99 258.8,-253.14 263,-239 267.6,-223.52 262.17,-205.67 256.42,-192.85"/>
<polygon fill="midnightblue" stroke="midnightblue" points="259.51,-191.19 251.93,-183.78 253.24,-194.29 259.51,-191.19"/>
</g>
<!-- Node9 -->
<g id="node9" class="node">
<title>Node9</title>
<g id="a_node9"><a xlink:title=" ">
<polygon fill="white" stroke="#bfbfbf" points="215.61,-220.5 215.61,-238.5 254.39,-238.5 254.39,-220.5 215.61,-220.5"/>
<text text-anchor="middle" x="235" y="-226.5" font-family="Helvetica,sans-Serif" font-size="10.00">array</text>
</a>
</g>
</g>
<!-- Node3&#45;&gt;Node9 -->
<g id="edge8" class="edge">
<title>Node3&#45;&gt;Node9</title>
<path fill="none" stroke="midnightblue" d="M234.16,-275.22C234.29,-268.18 234.48,-257.81 234.65,-248.83"/>
<polygon fill="midnightblue" stroke="midnightblue" points="238.16,-248.61 234.85,-238.55 231.16,-248.48 238.16,-248.61"/>
</g>
<!-- Node5 -->
<g id="node5" class="node">
<title>Node5</title>
<g id="a_node5"><a xlink:href="../../d8/db5/consts_8h.html" target="_top" xlink:title=" ">
<polygon fill="white" stroke="black" points="176.38,-110.5 176.38,-128.5 229.62,-128.5 229.62,-110.5 176.38,-110.5"/>
<text text-anchor="middle" x="203" y="-116.5" font-family="Helvetica,sans-Serif" font-size="10.00">consts.h</text>
</a>
</g>
</g>
<!-- Node4&#45;&gt;Node5 -->
<g id="edge4" class="edge">
<title>Node4&#45;&gt;Node5</title>
<path fill="none" stroke="midnightblue" d="M240.12,-165.22C233.76,-157.55 224.12,-145.94 216.26,-136.47"/>
<polygon fill="midnightblue" stroke="midnightblue" points="218.76,-134.01 209.68,-128.55 213.38,-138.48 218.76,-134.01"/>
</g>
<!-- Node6 -->
<g id="node6" class="node">
<title>Node6</title>
<g id="a_node6"><a xlink:href="../../d9/d49/types_8h.html" target="_top" xlink:title=" ">
<polygon fill="white" stroke="black" points="141.88,-55.5 141.88,-73.5 190.12,-73.5 190.12,-55.5 141.88,-55.5"/>
<text text-anchor="middle" x="166" y="-61.5" font-family="Helvetica,sans-Serif" font-size="10.00">types.h</text>
</a>
</g>
</g>
<!-- Node5&#45;&gt;Node6 -->
<g id="edge5" class="edge">
<title>Node5&#45;&gt;Node6</title>
<path fill="none" stroke="midnightblue" d="M197.22,-110.22C191.92,-102.63 183.92,-91.18 177.35,-81.76"/>
<polygon fill="midnightblue" stroke="midnightblue" points="180.21,-79.75 171.62,-73.55 174.47,-83.75 180.21,-79.75"/>
</g>
<!-- Node7 -->
<g id="node7" class="node">
<title>Node7</title>
<g id="a_node7"><a xlink:title=" ">
<polygon fill="white" stroke="#bfbfbf" points="105.88,-0.5 105.88,-18.5 154.12,-18.5 154.12,-0.5 105.88,-0.5"/>
<text text-anchor="middle" x="130" y="-6.5" font-family="Helvetica,sans-Serif" font-size="10.00">cassert</text>
</a>
</g>
</g>
<!-- Node6&#45;&gt;Node7 -->
<g id="edge6" class="edge">
<title>Node6&#45;&gt;Node7</title>
<path fill="none" stroke="midnightblue" d="M160.38,-55.22C155.27,-47.71 147.6,-36.41 141.24,-27.05"/>
<polygon fill="midnightblue" stroke="midnightblue" points="143.98,-24.86 135.47,-18.55 138.19,-28.79 143.98,-24.86"/>
</g>
<!-- Node8 -->
<g id="node8" class="node">
<title>Node8</title>
<g id="a_node8"><a xlink:title=" ">
<polygon fill="white" stroke="#bfbfbf" points="171.93,-0.5 171.93,-18.5 234.07,-18.5 234.07,-0.5 171.93,-0.5"/>
<text text-anchor="middle" x="203" y="-6.5" font-family="Helvetica,sans-Serif" font-size="10.00">type_traits</text>
</a>
</g>
</g>
<!-- Node6&#45;&gt;Node8 -->
<g id="edge7" class="edge">
<title>Node6&#45;&gt;Node8</title>
<path fill="none" stroke="midnightblue" d="M171.78,-55.22C177.08,-47.63 185.08,-36.18 191.65,-26.76"/>
<polygon fill="midnightblue" stroke="midnightblue" points="194.53,-28.75 197.38,-18.55 188.79,-24.75 194.53,-28.75"/>
</g>
<!-- Node10&#45;&gt;Node6 -->
<g id="edge10" class="edge">
<title>Node10&#45;&gt;Node6</title>
<path fill="none" stroke="midnightblue" d="M123.46,-165.38C130.88,-147.95 148.5,-106.59 158.58,-82.92"/>
<polygon fill="midnightblue" stroke="midnightblue" points="161.8,-84.28 162.5,-73.71 155.36,-81.54 161.8,-84.28"/>
</g>
<!-- Node15 -->
<g id="node15" class="node">
<title>Node15</title>
<g id="a_node15"><a xlink:href="../../d4/de9/_main_class_8h.html" target="_top" xlink:title=" ">
<polygon fill="white" stroke="black" points="184.04,-605.5 184.04,-623.5 283.96,-623.5 283.96,-605.5 184.04,-605.5"/>
<text text-anchor="middle" x="234" y="-611.5" font-family="Helvetica,sans-Serif" font-size="10.00">tralics/MainClass.h</text>
</a>
</g>
</g>
<!-- Node14&#45;&gt;Node15 -->
<g id="edge15" class="edge">
<title>Node14&#45;&gt;Node15</title>
<path fill="none" stroke="midnightblue" d="M192.66,-660.22C199.82,-652.47 210.7,-640.7 219.5,-631.18"/>
<polygon fill="midnightblue" stroke="midnightblue" points="222.34,-633.27 226.56,-623.55 217.2,-628.52 222.34,-633.27"/>
</g>
<!-- Node29 -->
<g id="node29" class="node">
<title>Node29</title>
<g id="a_node29"><a xlink:href="../../d2/d06/txlogger_8h.html" target="_top" xlink:title=" ">
<polygon fill="white" stroke="black" points="28.32,-605.5 28.32,-623.5 87.68,-623.5 87.68,-605.5 28.32,-605.5"/>
<text text-anchor="middle" x="58" y="-611.5" font-family="Helvetica,sans-Serif" font-size="10.00">txlogger.h</text>
</a>
</g>
</g>
<!-- Node14&#45;&gt;Node29 -->
<g id="edge38" class="edge">
<title>Node14&#45;&gt;Node29</title>
<path fill="none" stroke="midnightblue" d="M165.71,-660.45C144.73,-651.7 110.97,-637.61 86.84,-627.53"/>
<polygon fill="midnightblue" stroke="midnightblue" points="88.05,-624.25 77.47,-623.63 85.35,-630.71 88.05,-624.25"/>
</g>
<!-- Node31 -->
<g id="node31" class="node">
<title>Node31</title>
<g id="a_node31"><a xlink:href="../../d5/d08/txparam_8h.html" target="_top" xlink:title=" ">
<polygon fill="white" stroke="black" points="105.77,-605.5 105.77,-623.5 166.23,-623.5 166.23,-605.5 105.77,-605.5"/>
<text text-anchor="middle" x="136" y="-611.5" font-family="Helvetica,sans-Serif" font-size="10.00">txparam.h</text>
</a>
</g>
</g>
<!-- Node14&#45;&gt;Node31 -->
<g id="edge41" class="edge">
<title>Node14&#45;&gt;Node31</title>
<path fill="none" stroke="midnightblue" d="M177.34,-660.22C170.18,-652.47 159.3,-640.7 150.5,-631.18"/>
<polygon fill="midnightblue" stroke="midnightblue" points="152.8,-628.52 143.44,-623.55 147.66,-633.27 152.8,-628.52"/>
</g>
<!-- Node16 -->
<g id="node16" class="node">
<title>Node16</title>
<g id="a_node16"><a xlink:href="../../de/d29/txio_8h.html" target="_top" xlink:title=" ">
<polygon fill="white" stroke="black" points="209.88,-550.5 209.88,-568.5 258.12,-568.5 258.12,-550.5 209.88,-550.5"/>
<text text-anchor="middle" x="234" y="-556.5" font-family="Helvetica,sans-Serif" font-size="10.00">../txio.h</text>
</a>
</g>
</g>
<!-- Node15&#45;&gt;Node16 -->
<g id="edge16" class="edge">
<title>Node15&#45;&gt;Node16</title>
<path fill="none" stroke="midnightblue" d="M234,-605.22C234,-598.18 234,-587.81 234,-578.83"/>
<polygon fill="midnightblue" stroke="midnightblue" points="237.5,-578.55 234,-568.55 230.5,-578.55 237.5,-578.55"/>
</g>
<!-- Node28 -->
<g id="node28" class="node">
<title>Node28</title>
<g id="a_node28"><a xlink:href="../../dc/def/txstring_8h.html" target="_top" xlink:title=" ">
<polygon fill="white" stroke="black" points="381.55,-495.5 381.55,-513.5 446.45,-513.5 446.45,-495.5 381.55,-495.5"/>
<text text-anchor="middle" x="414" y="-501.5" font-family="Helvetica,sans-Serif" font-size="10.00">../txstring.h</text>
</a>
</g>
</g>
<!-- Node15&#45;&gt;Node28 -->
<g id="edge36" class="edge">
<title>Node15&#45;&gt;Node28</title>
<path fill="none" stroke="midnightblue" d="M242.8,-605.27C256.98,-592.32 286.1,-566.91 314,-550 335.79,-536.8 362.18,-525.22 382.38,-517.18"/>
<polygon fill="midnightblue" stroke="midnightblue" points="383.7,-520.42 391.75,-513.53 381.16,-513.9 383.7,-520.42"/>
</g>
<!-- Node17 -->
<g id="node17" class="node">
<title>Node17</title>
<g id="a_node17"><a xlink:href="../../dd/d74/txbuffer_8h.html" target="_top" xlink:title=" ">
<polygon fill="white" stroke="black" points="389.52,-440.5 389.52,-458.5 446.48,-458.5 446.48,-440.5 389.52,-440.5"/>
<text text-anchor="middle" x="418" y="-446.5" font-family="Helvetica,sans-Serif" font-size="10.00">txbuffer.h</text>
</a>
</g>
</g>
<!-- Node16&#45;&gt;Node17 -->
<g id="edge17" class="edge">
<title>Node16&#45;&gt;Node17</title>
<path fill="none" stroke="midnightblue" d="M247.83,-550.38C279.27,-531.93 356.35,-486.69 395.05,-463.97"/>
<polygon fill="midnightblue" stroke="midnightblue" points="397.16,-466.79 404.01,-458.71 393.61,-460.76 397.16,-466.79"/>
</g>
<!-- Node27 -->
<g id="node27" class="node">
<title>Node27</title>
<g id="a_node27"><a xlink:title=" ">
<polygon fill="white" stroke="#bfbfbf" points="152.33,-495.5 152.33,-513.5 201.67,-513.5 201.67,-495.5 152.33,-495.5"/>
<text text-anchor="middle" x="177" y="-501.5" font-family="Helvetica,sans-Serif" font-size="10.00">fstream</text>
</a>
</g>
</g>
<!-- Node16&#45;&gt;Node27 -->
<g id="edge35" class="edge">
<title>Node16&#45;&gt;Node27</title>
<path fill="none" stroke="midnightblue" d="M225.09,-550.22C216.59,-542.32 203.59,-530.22 193.25,-520.61"/>
<polygon fill="midnightblue" stroke="midnightblue" points="195.36,-517.8 185.66,-513.55 190.6,-522.92 195.36,-517.8"/>
</g>
<!-- Node17&#45;&gt;Node12 -->
<g id="edge34" class="edge">
<title>Node17&#45;&gt;Node12</title>
<path fill="none" stroke="midnightblue" d="M407.22,-440.45C396.37,-432.36 379.42,-419.7 366.27,-409.88"/>
<polygon fill="midnightblue" stroke="midnightblue" points="367.99,-406.8 357.88,-403.63 363.8,-412.41 367.99,-406.8"/>
</g>
<!-- Node18 -->
<g id="node18" class="node">
<title>Node18</title>
<g id="a_node18"><a xlink:href="../../d1/d9e/txid_8h.html" target="_top" xlink:title=" ">
<polygon fill="white" stroke="black" points="411.05,-330.5 411.05,-348.5 450.95,-348.5 450.95,-330.5 411.05,-330.5"/>
<text text-anchor="middle" x="431" y="-336.5" font-family="Helvetica,sans-Serif" font-size="10.00">txid.h</text>
</a>
</g>
</g>
<!-- Node17&#45;&gt;Node18 -->
<g id="edge18" class="edge">
<title>Node17&#45;&gt;Node18</title>
<path fill="none" stroke="midnightblue" d="M428.62,-440.3C438.11,-432.24 451.36,-419 457,-404 463.08,-387.85 453.95,-369.65 444.88,-356.88"/>
<polygon fill="midnightblue" stroke="midnightblue" points="447.4,-354.42 438.51,-348.66 441.87,-358.71 447.4,-354.42"/>
</g>
<!-- Node19 -->
<g id="node19" class="node">
<title>Node19</title>
<g id="a_node19"><a xlink:href="../../d9/d18/txscaled_8h.html" target="_top" xlink:title=" ">
<polygon fill="white" stroke="black" points="386.49,-385.5 386.49,-403.5 447.51,-403.5 447.51,-385.5 386.49,-385.5"/>
<text text-anchor="middle" x="417" y="-391.5" font-family="Helvetica,sans-Serif" font-size="10.00">txscaled.h</text>
</a>
</g>
</g>
<!-- Node17&#45;&gt;Node19 -->
<g id="edge21" class="edge">
<title>Node17&#45;&gt;Node19</title>
<path fill="none" stroke="midnightblue" d="M417.84,-440.22C417.71,-433.18 417.52,-422.81 417.35,-413.83"/>
<polygon fill="midnightblue" stroke="midnightblue" points="420.84,-413.48 417.15,-403.55 413.84,-413.61 420.84,-413.48"/>
</g>
<!-- Node26 -->
<g id="node26" class="node">
<title>Node26</title>
<g id="a_node26"><a xlink:title=" ">
<polygon fill="white" stroke="#bfbfbf" points="504.27,-385.5 504.27,-403.5 549.73,-403.5 549.73,-385.5 504.27,-385.5"/>
<text text-anchor="middle" x="527" y="-391.5" font-family="Helvetica,sans-Serif" font-size="10.00">cstring</text>
</a>
</g>
</g>
<!-- Node17&#45;&gt;Node26 -->
<g id="edge33" class="edge">
<title>Node17&#45;&gt;Node26</title>
<path fill="none" stroke="midnightblue" d="M434.55,-440.45C452.24,-431.85 480.51,-418.1 501.14,-408.08"/>
<polygon fill="midnightblue" stroke="midnightblue" points="502.83,-411.15 510.29,-403.63 499.77,-404.85 502.83,-411.15"/>
</g>
<!-- Node18&#45;&gt;Node3 -->
<g id="edge19" class="edge">
<title>Node18&#45;&gt;Node3</title>
<path fill="none" stroke="midnightblue" d="M411.03,-333.13C378.95,-324.5 315.33,-307.38 273.74,-296.19"/>
<polygon fill="midnightblue" stroke="midnightblue" points="274.5,-292.77 263.93,-293.55 272.68,-299.53 274.5,-292.77"/>
</g>
<!-- Node18&#45;&gt;Node11 -->
<g id="edge20" class="edge">
<title>Node18&#45;&gt;Node11</title>
<path fill="none" stroke="midnightblue" d="M429.42,-330.38C426.06,-313.1 418.13,-272.33 413.51,-248.56"/>
<polygon fill="midnightblue" stroke="midnightblue" points="416.94,-247.86 411.6,-238.71 410.07,-249.2 416.94,-247.86"/>
</g>
<!-- Node20 -->
<g id="node20" class="node">
<title>Node20</title>
<g id="a_node20"><a xlink:href="../../dc/d91/txtokenlist_8h.html" target="_top" xlink:title=" ">
<polygon fill="white" stroke="black" points="286.6,-330.5 286.6,-348.5 355.4,-348.5 355.4,-330.5 286.6,-330.5"/>
<text text-anchor="middle" x="321" y="-336.5" font-family="Helvetica,sans-Serif" font-size="10.00">txtokenlist.h</text>
</a>
</g>
</g>
<!-- Node19&#45;&gt;Node20 -->
<g id="edge22" class="edge">
<title>Node19&#45;&gt;Node20</title>
<path fill="none" stroke="midnightblue" d="M402.42,-385.45C387.05,-376.97 362.62,-363.48 344.52,-353.49"/>
<polygon fill="midnightblue" stroke="midnightblue" points="346.16,-350.39 335.72,-348.63 342.78,-356.52 346.16,-350.39"/>
</g>
<!-- Node20&#45;&gt;Node3 -->
<g id="edge31" class="edge">
<title>Node20&#45;&gt;Node3</title>
<path fill="none" stroke="midnightblue" d="M307.79,-330.45C294.12,-322.12 272.53,-308.97 256.23,-299.04"/>
<polygon fill="midnightblue" stroke="midnightblue" points="257.7,-295.84 247.34,-293.63 254.06,-301.82 257.7,-295.84"/>
</g>
<!-- Node21 -->
<g id="node21" class="node">
<title>Node21</title>
<g id="a_node21"><a xlink:href="../../d5/daf/_istring_8h.html" target="_top" xlink:title=" ">
<polygon fill="white" stroke="black" points="281.77,-275.5 281.77,-293.5 362.23,-293.5 362.23,-275.5 281.77,-275.5"/>
<text text-anchor="middle" x="322" y="-281.5" font-family="Helvetica,sans-Serif" font-size="10.00">tralics/Istring.h</text>
</a>
</g>
</g>
<!-- Node20&#45;&gt;Node21 -->
<g id="edge23" class="edge">
<title>Node20&#45;&gt;Node21</title>
<path fill="none" stroke="midnightblue" d="M321.16,-330.22C321.29,-323.18 321.48,-312.81 321.65,-303.83"/>
<polygon fill="midnightblue" stroke="midnightblue" points="325.16,-303.61 321.85,-293.55 318.16,-303.48 325.16,-303.61"/>
</g>
<!-- Node22 -->
<g id="node22" class="node">
<title>Node22</title>
<g id="a_node22"><a xlink:href="../../dd/dcd/_token_8h.html" target="_top" xlink:title=" ">
<polygon fill="white" stroke="black" points="106.04,-275.5 106.04,-293.5 185.96,-293.5 185.96,-275.5 106.04,-275.5"/>
<text text-anchor="middle" x="146" y="-281.5" font-family="Helvetica,sans-Serif" font-size="10.00">tralics/Token.h</text>
</a>
</g>
</g>
<!-- Node20&#45;&gt;Node22 -->
<g id="edge26" class="edge">
<title>Node20&#45;&gt;Node22</title>
<path fill="none" stroke="midnightblue" d="M294.42,-330.45C264.53,-321.4 215.8,-306.64 182.38,-296.52"/>
<polygon fill="midnightblue" stroke="midnightblue" points="183.13,-293.09 172.54,-293.54 181.1,-299.79 183.13,-293.09"/>
</g>
<!-- Node25 -->
<g id="node25" class="node">
<title>Node25</title>
<g id="a_node25"><a xlink:title=" ">
<polygon fill="white" stroke="#bfbfbf" points="560.61,-275.5 560.61,-293.5 599.39,-293.5 599.39,-275.5 560.61,-275.5"/>
<text text-anchor="middle" x="580" y="-281.5" font-family="Helvetica,sans-Serif" font-size="10.00">utility</text>
</a>
</g>
</g>
<!-- Node20&#45;&gt;Node25 -->
<g id="edge32" class="edge">
<title>Node20&#45;&gt;Node25</title>
<path fill="none" stroke="midnightblue" d="M355.66,-331.41C407.03,-320.9 502.47,-301.37 550.61,-291.51"/>
<polygon fill="midnightblue" stroke="midnightblue" points="551.31,-294.94 560.41,-289.51 549.91,-288.09 551.31,-294.94"/>
</g>
<!-- Node21&#45;&gt;Node4 -->
<g id="edge24" class="edge">
<title>Node21&#45;&gt;Node4</title>
<path fill="none" stroke="midnightblue" d="M316.31,-275.28C307.93,-263.17 291.77,-239.83 278,-220 271.6,-210.79 264.44,-200.51 258.62,-192.15"/>
<polygon fill="midnightblue" stroke="midnightblue" points="261.31,-189.9 252.72,-183.7 255.57,-193.9 261.31,-189.9"/>
</g>
<!-- Node21&#45;&gt;Node11 -->
<g id="edge25" class="edge">
<title>Node21&#45;&gt;Node11</title>
<path fill="none" stroke="midnightblue" d="M335.37,-275.45C349.19,-267.12 371.03,-253.97 387.52,-244.04"/>
<polygon fill="midnightblue" stroke="midnightblue" points="389.75,-246.78 396.51,-238.63 386.14,-240.79 389.75,-246.78"/>
</g>
<!-- Node23 -->
<g id="node23" class="node">
<title>Node23</title>
<g id="a_node23"><a xlink:href="../../d2/d68/_cmd_chr_8h.html" target="_top" xlink:title=" ">
<polygon fill="white" stroke="black" points="89.49,-220.5 89.49,-238.5 150.51,-238.5 150.51,-220.5 89.49,-220.5"/>
<text text-anchor="middle" x="120" y="-226.5" font-family="Helvetica,sans-Serif" font-size="10.00">CmdChr.h</text>
</a>
</g>
</g>
<!-- Node22&#45;&gt;Node23 -->
<g id="edge27" class="edge">
<title>Node22&#45;&gt;Node23</title>
<path fill="none" stroke="midnightblue" d="M141.94,-275.22C138.33,-267.86 132.94,-256.88 128.41,-247.64"/>
<polygon fill="midnightblue" stroke="midnightblue" points="131.5,-245.99 123.95,-238.55 125.21,-249.07 131.5,-245.99"/>
</g>
<!-- Node24 -->
<g id="node24" class="node">
<title>Node24</title>
<g id="a_node24"><a xlink:title=" ">
<polygon fill="white" stroke="#bfbfbf" points="168.5,-220.5 168.5,-238.5 197.5,-238.5 197.5,-220.5 168.5,-220.5"/>
<text text-anchor="middle" x="182.61" y="-226.5" font-family="Helvetica,sans-Serif" font-size="10.00">list</text>
</a>
</g>
</g>
<!-- Node22&#45;&gt;Node24 -->
<g id="edge30" class="edge">
<title>Node22&#45;&gt;Node24</title>
<path fill="none" stroke="midnightblue" d="M151.78,-275.22C157.08,-267.63 165.08,-256.18 171.65,-246.76"/>
<polygon fill="midnightblue" stroke="midnightblue" points="174.53,-248.75 177.38,-238.55 168.79,-244.75 174.53,-248.75"/>
</g>
<!-- Node23&#45;&gt;Node4 -->
<g id="edge29" class="edge">
<title>Node23&#45;&gt;Node4</title>
<path fill="none" stroke="midnightblue" d="M139.29,-220.45C160.27,-211.7 194.03,-197.61 218.16,-187.53"/>
<polygon fill="midnightblue" stroke="midnightblue" points="219.65,-190.71 227.53,-183.63 216.95,-184.25 219.65,-190.71"/>
</g>
<!-- Node23&#45;&gt;Node10 -->
<g id="edge28" class="edge">
<title>Node23&#45;&gt;Node10</title>
<path fill="none" stroke="midnightblue" d="M120,-220.22C120,-213.18 120,-202.81 120,-193.83"/>
<polygon fill="midnightblue" stroke="midnightblue" points="123.5,-193.55 120,-183.55 116.5,-193.55 123.5,-193.55"/>
</g>
<!-- Node28&#45;&gt;Node17 -->
<g id="edge37" class="edge">
<title>Node28&#45;&gt;Node17</title>
<path fill="none" stroke="midnightblue" d="M414.62,-495.22C415.16,-488.1 415.96,-477.58 416.64,-468.53"/>
<polygon fill="midnightblue" stroke="midnightblue" points="420.13,-468.78 417.39,-458.55 413.15,-468.26 420.13,-468.78"/>
</g>
<!-- Node29&#45;&gt;Node27 -->
<g id="edge39" class="edge">
<title>Node29&#45;&gt;Node27</title>
<path fill="none" stroke="midnightblue" d="M58.31,-605.46C59.24,-592.31 62.86,-566.07 77,-550 93.9,-530.78 120.69,-519.47 142.29,-513.06"/>
<polygon fill="midnightblue" stroke="midnightblue" points="143.39,-516.39 152.11,-510.38 141.54,-509.64 143.39,-516.39"/>
</g>
<!-- Node30 -->
<g id="node30" class="node">
<title>Node30</title>
<g id="a_node30"><a xlink:title=" ">
<polygon fill="white" stroke="#bfbfbf" points="85.83,-550.5 85.83,-568.5 140.17,-568.5 140.17,-550.5 85.83,-550.5"/>
<text text-anchor="middle" x="113" y="-556.5" font-family="Helvetica,sans-Serif" font-size="10.00">iostream</text>
</a>
</g>
</g>
<!-- Node29&#45;&gt;Node30 -->
<g id="edge40" class="edge">
<title>Node29&#45;&gt;Node30</title>
<path fill="none" stroke="midnightblue" d="M66.59,-605.22C74.79,-597.32 87.34,-585.22 97.32,-575.61"/>
<polygon fill="midnightblue" stroke="midnightblue" points="99.87,-578.01 104.65,-568.55 95.02,-572.97 99.87,-578.01"/>
</g>
<!-- Node31&#45;&gt;Node16 -->
<g id="edge42" class="edge">
<title>Node31&#45;&gt;Node16</title>
<path fill="none" stroke="midnightblue" d="M150.88,-605.45C166.57,-596.97 191.51,-583.48 209.99,-573.49"/>
<polygon fill="midnightblue" stroke="midnightblue" points="211.84,-576.46 218.98,-568.63 208.51,-570.3 211.84,-576.46"/>
</g>
<!-- Node32&#45;&gt;Node16 -->
<g id="edge54" class="edge">
<title>Node32&#45;&gt;Node16</title>
<path fill="none" stroke="midnightblue" d="M438,-661.22C409.64,-653.78 366.29,-640.91 331,-624 301.85,-610.03 271.11,-588.61 252.24,-574.57"/>
<polygon fill="midnightblue" stroke="midnightblue" points="254.31,-571.75 244.22,-568.52 250.09,-577.34 254.31,-571.75"/>
</g>
<!-- Node33 -->
<g id="node33" class="node">
<title>Node33</title>
<g id="a_node33"><a xlink:href="../../d3/d6b/txcond_8h.html" target="_top" xlink:title=" ">
<polygon fill="white" stroke="black" points="318.1,-440.5 318.1,-458.5 371.9,-458.5 371.9,-440.5 318.1,-440.5"/>
<text text-anchor="middle" x="345" y="-446.5" font-family="Helvetica,sans-Serif" font-size="10.00">txcond.h</text>
</a>
</g>
</g>
<!-- Node32&#45;&gt;Node33 -->
<g id="edge44" class="edge">
<title>Node32&#45;&gt;Node33</title>
<path fill="none" stroke="midnightblue" d="M497.96,-666.55C526.2,-662.94 567.07,-652.73 587,-624 595.96,-611.09 600.6,-575.71 582,-550 557.52,-516.17 442.14,-478.62 381.87,-460.87"/>
<polygon fill="midnightblue" stroke="midnightblue" points="382.58,-457.43 372,-458 380.62,-464.15 382.58,-457.43"/>
</g>
<!-- Node34 -->
<g id="node34" class="node">
<title>Node34</title>
<g id="a_node34"><a xlink:href="../../d7/d4d/txfonts_8h.html" target="_top" xlink:title=" ">
<polygon fill="white" stroke="black" points="519.1,-550.5 519.1,-568.5 572.9,-568.5 572.9,-550.5 519.1,-550.5"/>
<text text-anchor="middle" x="546" y="-556.5" font-family="Helvetica,sans-Serif" font-size="10.00">txfonts.h</text>
</a>
</g>
</g>
<!-- Node32&#45;&gt;Node34 -->
<g id="edge46" class="edge">
<title>Node32&#45;&gt;Node34</title>
<path fill="none" stroke="midnightblue" d="M473.86,-660.38C486.62,-642.71 517.13,-600.47 534.1,-576.98"/>
<polygon fill="midnightblue" stroke="midnightblue" points="537.05,-578.87 540.07,-568.71 531.38,-574.77 537.05,-578.87"/>
</g>
<!-- Node35 -->
<g id="node35" class="node">
<title>Node35</title>
<g id="a_node35"><a xlink:href="../../d7/d7e/txhash_8h.html" target="_top" xlink:title=" ">
<polygon fill="white" stroke="black" points="340.1,-605.5 340.1,-623.5 393.9,-623.5 393.9,-605.5 340.1,-605.5"/>
<text text-anchor="middle" x="367" y="-611.5" font-family="Helvetica,sans-Serif" font-size="10.00">txhash.h</text>
</a>
</g>
</g>
<!-- Node32&#45;&gt;Node35 -->
<g id="edge48" class="edge">
<title>Node32&#45;&gt;Node35</title>
<path fill="none" stroke="midnightblue" d="M452.66,-660.45C436.42,-651.93 410.55,-638.35 391.49,-628.35"/>
<polygon fill="midnightblue" stroke="midnightblue" points="392.97,-625.17 382.48,-623.63 389.71,-631.37 392.97,-625.17"/>
</g>
<!-- Node37 -->
<g id="node37" class="node">
<title>Node37</title>
<g id="a_node37"><a xlink:href="../../de/d7c/tximage_8h.html" target="_top" xlink:title=" ">
<polygon fill="white" stroke="black" points="608.32,-330.5 608.32,-348.5 667.68,-348.5 667.68,-330.5 608.32,-330.5"/>
<text text-anchor="middle" x="638" y="-336.5" font-family="Helvetica,sans-Serif" font-size="10.00">tximage.h</text>
</a>
</g>
</g>
<!-- Node32&#45;&gt;Node37 -->
<g id="edge51" class="edge">
<title>Node32&#45;&gt;Node37</title>
<path fill="none" stroke="midnightblue" d="M498.26,-664.03C548.58,-654.69 644,-628.08 644,-560.5 644,-560.5 644,-560.5 644,-448.5 644,-416.97 641.42,-380.34 639.64,-358.86"/>
<polygon fill="midnightblue" stroke="midnightblue" points="643.11,-358.28 638.76,-348.62 636.13,-358.88 643.11,-358.28"/>
</g>
<!-- Node38 -->
<g id="node38" class="node">
<title>Node38</title>
<g id="a_node38"><a xlink:href="../../dc/d65/txstack_8h.html" target="_top" xlink:title=" ">
<polygon fill="white" stroke="black" points="412.27,-605.5 412.27,-623.5 467.73,-623.5 467.73,-605.5 412.27,-605.5"/>
<text text-anchor="middle" x="440" y="-611.5" font-family="Helvetica,sans-Serif" font-size="10.00">txstack.h</text>
</a>
</g>
</g>
<!-- Node32&#45;&gt;Node38 -->
<g id="edge55" class="edge">
<title>Node32&#45;&gt;Node38</title>
<path fill="none" stroke="midnightblue" d="M463.62,-660.22C459.74,-652.86 453.94,-641.88 449.05,-632.64"/>
<polygon fill="midnightblue" stroke="midnightblue" points="452.02,-630.76 444.25,-623.55 445.83,-634.03 452.02,-630.76"/>
</g>
<!-- Node41 -->
<g id="node41" class="node">
<title>Node41</title>
<g id="a_node41"><a xlink:href="../../d8/d3d/txstats_8h.html" target="_top" xlink:title=" ">
<polygon fill="white" stroke="black" points="524.38,-605.5 524.38,-623.5 577.62,-623.5 577.62,-605.5 524.38,-605.5"/>
<text text-anchor="middle" x="551" y="-611.5" font-family="Helvetica,sans-Serif" font-size="10.00">txstats.h</text>
</a>
</g>
</g>
<!-- Node32&#45;&gt;Node41 -->
<g id="edge59" class="edge">
<title>Node32&#45;&gt;Node41</title>
<path fill="none" stroke="midnightblue" d="M480.61,-660.45C493.65,-652.12 514.24,-638.97 529.8,-629.04"/>
<polygon fill="midnightblue" stroke="midnightblue" points="531.73,-631.96 538.28,-623.63 527.96,-626.06 531.73,-631.96"/>
</g>
<!-- Node33&#45;&gt;Node12 -->
<g id="edge45" class="edge">
<title>Node33&#45;&gt;Node12</title>
<path fill="none" stroke="midnightblue" d="M345.31,-440.22C345.58,-433.18 345.97,-422.81 346.31,-413.83"/>
<polygon fill="midnightblue" stroke="midnightblue" points="349.82,-413.67 346.7,-403.55 342.82,-413.41 349.82,-413.67"/>
</g>
<!-- Node34&#45;&gt;Node28 -->
<g id="edge47" class="edge">
<title>Node34&#45;&gt;Node28</title>
<path fill="none" stroke="midnightblue" d="M525.95,-550.45C504.05,-541.66 468.74,-527.48 443.64,-517.4"/>
<polygon fill="midnightblue" stroke="midnightblue" points="444.82,-514.1 434.24,-513.63 442.21,-520.6 444.82,-514.1"/>
</g>
<!-- Node36 -->
<g id="node36" class="node">
<title>Node36</title>
<g id="a_node36"><a xlink:href="../../d3/d01/txeqtb_8h.html" target="_top" xlink:title=" ">
<polygon fill="white" stroke="black" points="323.21,-550.5 323.21,-568.5 374.79,-568.5 374.79,-550.5 323.21,-550.5"/>
<text text-anchor="middle" x="349" y="-556.5" font-family="Helvetica,sans-Serif" font-size="10.00">txeqtb.h</text>
</a>
</g>
</g>
<!-- Node35&#45;&gt;Node36 -->
<g id="edge49" class="edge">
<title>Node35&#45;&gt;Node36</title>
<path fill="none" stroke="midnightblue" d="M364.19,-605.22C361.74,-598.02 358.12,-587.35 355.02,-578.23"/>
<polygon fill="midnightblue" stroke="midnightblue" points="358.26,-576.89 351.73,-568.55 351.64,-579.14 358.26,-576.89"/>
</g>
<!-- Node36&#45;&gt;Node28 -->
<g id="edge50" class="edge">
<title>Node36&#45;&gt;Node28</title>
<path fill="none" stroke="midnightblue" d="M358.87,-550.45C368.7,-542.43 384.02,-529.95 396.01,-520.17"/>
<polygon fill="midnightblue" stroke="midnightblue" points="398.5,-522.66 404.03,-513.63 394.07,-517.23 398.5,-522.66"/>
</g>
<!-- Node37&#45;&gt;Node11 -->
<g id="edge52" class="edge">
<title>Node37&#45;&gt;Node11</title>
<path fill="none" stroke="midnightblue" d="M636.56,-330.47C633.68,-316.86 625.89,-289.33 608,-275 582.38,-254.48 489.16,-240.26 440.32,-234.03"/>
<polygon fill="midnightblue" stroke="midnightblue" points="440.69,-230.55 430.33,-232.79 439.82,-237.5 440.69,-230.55"/>
</g>
<!-- Node37&#45;&gt;Node25 -->
<g id="edge53" class="edge">
<title>Node37&#45;&gt;Node25</title>
<path fill="none" stroke="midnightblue" d="M628.94,-330.22C620.2,-322.24 606.79,-309.98 596.22,-300.32"/>
<polygon fill="midnightblue" stroke="midnightblue" points="598.55,-297.71 588.81,-293.55 593.83,-302.88 598.55,-297.71"/>
</g>
<!-- Node39 -->
<g id="node39" class="node">
<title>Node39</title>
<g id="a_node39"><a xlink:href="../../d4/da4/txatt_8h.html" target="_top" xlink:title=" ">
<polygon fill="white" stroke="black" points="392.38,-550.5 392.38,-568.5 435.62,-568.5 435.62,-550.5 392.38,-550.5"/>
<text text-anchor="middle" x="414" y="-556.5" font-family="Helvetica,sans-Serif" font-size="10.00">txatt.h</text>
</a>
</g>
</g>
<!-- Node38&#45;&gt;Node39 -->
<g id="edge56" class="edge">
<title>Node38&#45;&gt;Node39</title>
<path fill="none" stroke="midnightblue" d="M435.94,-605.22C432.33,-597.86 426.94,-586.88 422.41,-577.64"/>
<polygon fill="midnightblue" stroke="midnightblue" points="425.5,-575.99 417.95,-568.55 419.21,-579.07 425.5,-575.99"/>
</g>
<!-- Node40 -->
<g id="node40" class="node">
<title>Node40</title>
<g id="a_node40"><a xlink:href="../../d1/d43/txxml_8h.html" target="_top" xlink:title=" ">
<polygon fill="white" stroke="black" points="453.17,-550.5 453.17,-568.5 500.83,-568.5 500.83,-550.5 453.17,-550.5"/>
<text text-anchor="middle" x="477" y="-556.5" font-family="Helvetica,sans-Serif" font-size="10.00">txxml.h</text>
</a>
</g>
</g>
<!-- Node38&#45;&gt;Node40 -->
<g id="edge58" class="edge">
<title>Node38&#45;&gt;Node40</title>
<path fill="none" stroke="midnightblue" d="M445.78,-605.22C451.08,-597.63 459.08,-586.18 465.65,-576.76"/>
<polygon fill="midnightblue" stroke="midnightblue" points="468.53,-578.75 471.38,-568.55 462.79,-574.75 468.53,-578.75"/>
</g>
<!-- Node39&#45;&gt;Node28 -->
<g id="edge57" class="edge">
<title>Node39&#45;&gt;Node28</title>
<path fill="none" stroke="midnightblue" d="M414,-550.22C414,-543.18 414,-532.81 414,-523.83"/>
<polygon fill="midnightblue" stroke="midnightblue" points="417.5,-523.55 414,-513.55 410.5,-523.55 417.5,-523.55"/>
</g>
<!-- Node42&#45;&gt;Node25 -->
<g id="edge61" class="edge">
<title>Node42&#45;&gt;Node25</title>
<path fill="none" stroke="midnightblue" d="M580.96,-495.48C580.82,-464.11 580.29,-349.16 580.08,-303.94"/>
<polygon fill="midnightblue" stroke="midnightblue" points="583.58,-303.81 580.04,-293.82 576.58,-303.84 583.58,-303.81"/>
</g>
</g>
</svg>
