<?xml version="1.0" encoding="UTF-8" standalone="no"?>
<!DOCTYPE svg PUBLIC "-//W3C//DTD SVG 1.1//EN"
 "http://www.w3.org/Graphics/SVG/1.1/DTD/svg11.dtd">
<!-- Generated by graphviz version 2.42.3 (20191010.1750)
 -->
<!-- Title: InputStack Pages: 1 -->
<svg width="426pt" height="232pt"
 viewBox="0.00 0.00 425.50 232.00" xmlns="http://www.w3.org/2000/svg" xmlns:xlink="http://www.w3.org/1999/xlink">
<g id="graph0" class="graph" transform="scale(1 1) rotate(0) translate(4 228)">
<title>InputStack</title>
<!-- Node1 -->
<g id="node1" class="node">
<title>Node1</title>
<g id="a_node1"><a xlink:title=" ">
<polygon fill="#bfbfbf" stroke="black" points="143.45,-0.5 143.45,-18.5 206.7,-18.5 206.7,-0.5 143.45,-0.5"/>
<text text-anchor="middle" x="175.07" y="-6.5" font-family="Helvetica,sans-Serif" font-size="10.00">InputStack</text>
</a>
</g>
</g>
<!-- Node2 -->
<g id="node2" class="node">
<title>Node2</title>
<g id="a_node2"><a xlink:href="../../d6/d5a/struct_line_ptr.html" target="_top" xlink:title=" ">
<polygon fill="none" stroke="black" points="55.23,-65.5 55.23,-83.5 102.91,-83.5 102.91,-65.5 55.23,-65.5"/>
<text text-anchor="middle" x="79.07" y="-71.5" font-family="Helvetica,sans-Serif" font-size="10.00">LinePtr</text>
</a>
</g>
</g>
<!-- Node2&#45;&gt;Node1 -->
<g id="edge1" class="edge">
<title>Node2&#45;&gt;Node1</title>
<path fill="none" stroke="#9a32cd" stroke-dasharray="5,2" d="M93.33,-57.89C100.24,-50.92 108.94,-42.95 117.73,-37 128.81,-29.5 142.35,-23.13 153.5,-18.52"/>
<polygon fill="#9a32cd" stroke="#9a32cd" points="90.51,-55.79 86.14,-65.44 95.57,-60.62 90.51,-55.79"/>
<text text-anchor="middle" x="122.24" y="-39" font-family="Helvetica,sans-Serif" font-size="10.00"> L</text>
</g>
<!-- Node3 -->
<g id="node3" class="node">
<title>Node3</title>
<g id="a_node3"><a xlink:title="STL class.">
<polygon fill="none" stroke="#bfbfbf" points="0,-130.5 0,-148.5 92.14,-148.5 92.14,-130.5 0,-130.5"/>
<text text-anchor="middle" x="46.07" y="-136.5" font-family="Helvetica,sans-Serif" font-size="10.00">std::list&lt; Clines &gt;</text>
</a>
</g>
</g>
<!-- Node3&#45;&gt;Node2 -->
<g id="edge2" class="edge">
<title>Node3&#45;&gt;Node2</title>
<path fill="none" stroke="midnightblue" d="M51.92,-120.55C54.15,-114.51 56.93,-107.83 60.07,-102 63.51,-95.62 68.26,-89 72.15,-83.97"/>
<polygon fill="midnightblue" stroke="midnightblue" points="48.47,-119.81 48.51,-130.41 55.08,-122.1 48.47,-119.81"/>
</g>
<!-- Node4 -->
<g id="node4" class="node">
<title>Node4</title>
<g id="a_node4"><a xlink:title=" ">
<polygon fill="none" stroke="#bfbfbf" points="31.57,-200.5 31.57,-218.5 60.57,-218.5 60.57,-200.5 31.57,-200.5"/>
<text text-anchor="middle" x="45.63" y="-206.5" font-family="Helvetica,sans-Serif" font-size="10.00">T</text>
</a>
</g>
</g>
<!-- Node4&#45;&gt;Node3 -->
<g id="edge3" class="edge">
<title>Node4&#45;&gt;Node3</title>
<path fill="none" stroke="#9a32cd" stroke-dasharray="5,2" d="M46.07,-190.3C46.07,-176.7 46.07,-158.78 46.07,-148.56"/>
<polygon fill="#9a32cd" stroke="#9a32cd" points="42.57,-190.43 46.07,-200.43 49.57,-190.43 42.57,-190.43"/>
<text text-anchor="middle" x="67.75" y="-169" font-family="Helvetica,sans-Serif" font-size="10.00"> elements</text>
</g>
<!-- Node5 -->
<g id="node5" class="node">
<title>Node5</title>
<g id="a_node5"><a xlink:title="STL class.">
<polygon fill="none" stroke="#bfbfbf" points="110.4,-130.5 110.4,-148.5 169.75,-148.5 169.75,-130.5 110.4,-130.5"/>
<text text-anchor="middle" x="140.07" y="-136.5" font-family="Helvetica,sans-Serif" font-size="10.00">std::string</text>
</a>
</g>
</g>
<!-- Node5&#45;&gt;Node1 -->
<g id="edge8" class="edge">
<title>Node5&#45;&gt;Node1</title>
<path fill="none" stroke="#9a32cd" stroke-dasharray="5,2" d="M140.76,-120.12C141.71,-105.05 143.95,-83.3 149.28,-65 154.31,-47.71 164.22,-29.05 170.19,-18.67"/>
<polygon fill="#9a32cd" stroke="#9a32cd" points="137.26,-120.01 140.26,-130.17 144.25,-120.36 137.26,-120.01"/>
<text text-anchor="middle" x="163.97" y="-71.5" font-family="Helvetica,sans-Serif" font-size="10.00"> name</text>
</g>
<!-- Node5&#45;&gt;Node2 -->
<g id="edge4" class="edge">
<title>Node5&#45;&gt;Node2</title>
<path fill="none" stroke="#9a32cd" stroke-dasharray="5,2" d="M100.83,-128.79C92.63,-124.91 84.96,-119.51 79.93,-112 74.36,-103.68 75.34,-91.72 76.91,-83.79"/>
<polygon fill="#9a32cd" stroke="#9a32cd" points="99.61,-132.07 110.2,-132.55 102.22,-125.57 99.61,-132.07"/>
<text text-anchor="middle" x="103.14" y="-104" font-family="Helvetica,sans-Serif" font-size="10.00"> file_name</text>
</g>
<!-- Node6 -->
<g id="node6" class="node">
<title>Node6</title>
<g id="a_node6"><a xlink:title="STL class.">
<polygon fill="none" stroke="#bfbfbf" points="93.02,-195.5 93.02,-223.5 187.12,-223.5 187.12,-195.5 93.02,-195.5"/>
<text text-anchor="start" x="101.02" y="-211.5" font-family="Helvetica,sans-Serif" font-size="10.00">std::basic_string&lt;</text>
<text text-anchor="middle" x="140.07" y="-201.5" font-family="Helvetica,sans-Serif" font-size="10.00"> char &gt;</text>
</a>
</g>
</g>
<!-- Node6&#45;&gt;Node5 -->
<g id="edge5" class="edge">
<title>Node6&#45;&gt;Node5</title>
<path fill="none" stroke="midnightblue" d="M140.07,-185.1C140.07,-172.55 140.07,-157.85 140.07,-148.86"/>
<polygon fill="midnightblue" stroke="midnightblue" points="136.57,-185.39 140.07,-195.39 143.57,-185.39 136.57,-185.39"/>
</g>
<!-- Node7 -->
<g id="node7" class="node">
<title>Node7</title>
<g id="a_node7"><a xlink:title=" ">
<polygon fill="none" stroke="#bfbfbf" points="185.7,-65.5 185.7,-83.5 308.44,-83.5 308.44,-65.5 185.7,-65.5"/>
<text text-anchor="middle" x="247.07" y="-71.5" font-family="Helvetica,sans-Serif" font-size="10.00">std::vector&lt; codepoint &gt;</text>
</a>
</g>
</g>
<!-- Node7&#45;&gt;Node1 -->
<g id="edge6" class="edge">
<title>Node7&#45;&gt;Node1</title>
<path fill="none" stroke="#9a32cd" stroke-dasharray="5,2" d="M229.97,-58.54C215.65,-46 195.75,-28.59 184.26,-18.54"/>
<polygon fill="#9a32cd" stroke="#9a32cd" points="227.83,-61.31 237.66,-65.26 232.44,-56.04 227.83,-61.31"/>
<text text-anchor="middle" x="225.24" y="-39" font-family="Helvetica,sans-Serif" font-size="10.00"> line</text>
</g>
<!-- Node8 -->
<g id="node8" class="node">
<title>Node8</title>
<g id="a_node8"><a xlink:href="../../d6/d10/structcodepoint.html" target="_top" xlink:title=" ">
<polygon fill="none" stroke="black" points="217.39,-130.5 217.39,-148.5 276.76,-148.5 276.76,-130.5 217.39,-130.5"/>
<text text-anchor="middle" x="247.07" y="-136.5" font-family="Helvetica,sans-Serif" font-size="10.00">codepoint</text>
</a>
</g>
</g>
<!-- Node8&#45;&gt;Node7 -->
<g id="edge7" class="edge">
<title>Node8&#45;&gt;Node7</title>
<path fill="none" stroke="#9a32cd" stroke-dasharray="5,2" d="M247.07,-119.91C247.07,-107.81 247.07,-92.65 247.07,-83.54"/>
<polygon fill="#9a32cd" stroke="#9a32cd" points="243.57,-120.26 247.07,-130.26 250.57,-120.26 243.57,-120.26"/>
<text text-anchor="middle" x="268.75" y="-104" font-family="Helvetica,sans-Serif" font-size="10.00"> elements</text>
</g>
<!-- Node9 -->
<g id="node9" class="node">
<title>Node9</title>
<g id="a_node9"><a xlink:title=" ">
<polygon fill="none" stroke="#bfbfbf" points="326.64,-65.5 326.64,-83.5 417.5,-83.5 417.5,-65.5 326.64,-65.5"/>
<text text-anchor="middle" x="372.07" y="-71.5" font-family="Helvetica,sans-Serif" font-size="10.00">std::list&lt; Token &gt;</text>
</a>
</g>
</g>
<!-- Node9&#45;&gt;Node1 -->
<g id="edge9" class="edge">
<title>Node9&#45;&gt;Node1</title>
<path fill="none" stroke="#9a32cd" stroke-dasharray="5,2" d="M337.03,-62.29C297.77,-49.74 235.07,-29.69 200.32,-18.58"/>
<polygon fill="#9a32cd" stroke="#9a32cd" points="336.13,-65.68 346.72,-65.39 338.26,-59.01 336.13,-65.68"/>
<text text-anchor="middle" x="293.21" y="-39" font-family="Helvetica,sans-Serif" font-size="10.00"> TL</text>
</g>
<!-- Node10 -->
<g id="node10" class="node">
<title>Node10</title>
<g id="a_node10"><a xlink:href="../../d9/d27/struct_token.html" target="_top" xlink:title=" ">
<polygon fill="none" stroke="black" points="350.73,-130.5 350.73,-148.5 393.41,-148.5 393.41,-130.5 350.73,-130.5"/>
<text text-anchor="middle" x="372.07" y="-136.5" font-family="Helvetica,sans-Serif" font-size="10.00">Token</text>
</a>
</g>
</g>
<!-- Node10&#45;&gt;Node9 -->
<g id="edge10" class="edge">
<title>Node10&#45;&gt;Node9</title>
<path fill="none" stroke="#9a32cd" stroke-dasharray="5,2" d="M372.07,-119.91C372.07,-107.81 372.07,-92.65 372.07,-83.54"/>
<polygon fill="#9a32cd" stroke="#9a32cd" points="368.57,-120.26 372.07,-130.26 375.57,-120.26 368.57,-120.26"/>
<text text-anchor="middle" x="393.75" y="-104" font-family="Helvetica,sans-Serif" font-size="10.00"> elements</text>
</g>
</g>
</svg>
