<?xml version="1.0" encoding="UTF-8" standalone="no"?>
<!DOCTYPE svg PUBLIC "-//W3C//DTD SVG 1.1//EN"
 "http://www.w3.org/Graphics/SVG/1.1/DTD/svg11.dtd">
<!-- Generated by graphviz version 2.42.3 (20191010.1750)
 -->
<!-- Title: txstack.h Pages: 1 -->
<svg width="348pt" height="577pt"
 viewBox="0.00 0.00 347.73 577.00" xmlns="http://www.w3.org/2000/svg" xmlns:xlink="http://www.w3.org/1999/xlink">
<g id="graph0" class="graph" transform="scale(1 1) rotate(0) translate(4 573)">
<title>txstack.h</title>
<!-- Node1 -->
<g id="node1" class="node">
<title>Node1</title>
<g id="a_node1"><a xlink:title=" ">
<polygon fill="#bfbfbf" stroke="black" points="249.77,-550.5 249.77,-568.5 305.23,-568.5 305.23,-550.5 249.77,-550.5"/>
<text text-anchor="middle" x="277.5" y="-556.5" font-family="Helvetica,sans-Serif" font-size="10.00">txstack.h</text>
</a>
</g>
</g>
<!-- Node2 -->
<g id="node2" class="node">
<title>Node2</title>
<g id="a_node2"><a xlink:href="../../d9/d1c/_xml_8h.html" target="_top" xlink:title=" ">
<polygon fill="none" stroke="black" points="198.27,-495.5 198.27,-513.5 268.73,-513.5 268.73,-495.5 198.27,-495.5"/>
<text text-anchor="middle" x="233.5" y="-501.5" font-family="Helvetica,sans-Serif" font-size="10.00">tralics/Xml.h</text>
</a>
</g>
</g>
<!-- Node1&#45;&gt;Node2 -->
<g id="edge1" class="edge">
<title>Node1&#45;&gt;Node2</title>
<path fill="none" stroke="midnightblue" d="M270.62,-550.22C264.26,-542.55 254.62,-530.94 246.76,-521.47"/>
<polygon fill="midnightblue" stroke="midnightblue" points="249.26,-519.01 240.18,-513.55 243.88,-523.48 249.26,-519.01"/>
</g>
<!-- Node27 -->
<g id="node27" class="node">
<title>Node27</title>
<g id="a_node27"><a xlink:href="../../d4/da4/txatt_8h.html" target="_top" xlink:title=" ">
<polygon fill="none" stroke="black" points="287.88,-330.5 287.88,-348.5 331.12,-348.5 331.12,-330.5 287.88,-330.5"/>
<text text-anchor="middle" x="309.5" y="-336.5" font-family="Helvetica,sans-Serif" font-size="10.00">txatt.h</text>
</a>
</g>
</g>
<!-- Node1&#45;&gt;Node27 -->
<g id="edge32" class="edge">
<title>Node1&#45;&gt;Node27</title>
<path fill="none" stroke="midnightblue" d="M278.68,-550.48C283.28,-519.11 300.16,-404.16 306.79,-358.94"/>
<polygon fill="midnightblue" stroke="midnightblue" points="310.29,-359.23 308.28,-348.82 303.36,-358.21 310.29,-359.23"/>
</g>
<!-- Node3 -->
<g id="node3" class="node">
<title>Node3</title>
<g id="a_node3"><a xlink:href="../../d7/d1b/_buffer_8h.html" target="_top" xlink:title=" ">
<polygon fill="none" stroke="black" points="208.35,-440.5 208.35,-458.5 258.65,-458.5 258.65,-440.5 208.35,-440.5"/>
<text text-anchor="middle" x="233.5" y="-446.5" font-family="Helvetica,sans-Serif" font-size="10.00">Buffer.h</text>
</a>
</g>
</g>
<!-- Node2&#45;&gt;Node3 -->
<g id="edge2" class="edge">
<title>Node2&#45;&gt;Node3</title>
<path fill="none" stroke="midnightblue" d="M233.5,-495.22C233.5,-488.18 233.5,-477.81 233.5,-468.83"/>
<polygon fill="midnightblue" stroke="midnightblue" points="237,-468.55 233.5,-458.55 230,-468.55 237,-468.55"/>
</g>
<!-- Node26 -->
<g id="node26" class="node">
<title>Node26</title>
<g id="a_node26"><a xlink:title=" ">
<polygon fill="none" stroke="#bfbfbf" points="146.33,-440.5 146.33,-458.5 190.67,-458.5 190.67,-440.5 146.33,-440.5"/>
<text text-anchor="middle" x="168.5" y="-446.5" font-family="Helvetica,sans-Serif" font-size="10.00">gsl/gsl</text>
</a>
</g>
</g>
<!-- Node2&#45;&gt;Node26 -->
<g id="edge31" class="edge">
<title>Node2&#45;&gt;Node26</title>
<path fill="none" stroke="midnightblue" d="M223.63,-495.45C213.8,-487.43 198.48,-474.95 186.49,-465.17"/>
<polygon fill="midnightblue" stroke="midnightblue" points="188.43,-462.23 178.47,-458.63 184,-467.66 188.43,-462.23"/>
</g>
<!-- Node4 -->
<g id="node4" class="node">
<title>Node4</title>
<g id="a_node4"><a xlink:href="../../d1/d9e/txid_8h.html" target="_top" xlink:title=" ">
<polygon fill="none" stroke="black" points="216.38,-330.5 216.38,-348.5 264.62,-348.5 264.62,-330.5 216.38,-330.5"/>
<text text-anchor="middle" x="240.5" y="-336.5" font-family="Helvetica,sans-Serif" font-size="10.00">../txid.h</text>
</a>
</g>
</g>
<!-- Node3&#45;&gt;Node4 -->
<g id="edge3" class="edge">
<title>Node3&#45;&gt;Node4</title>
<path fill="none" stroke="midnightblue" d="M238.2,-440.3C242.89,-431.61 249.77,-417.33 252.5,-404 255.66,-388.54 251.73,-370.91 247.54,-358.15"/>
<polygon fill="midnightblue" stroke="midnightblue" points="250.82,-356.93 244.11,-348.74 244.25,-359.33 250.82,-356.93"/>
</g>
<!-- Node17 -->
<g id="node17" class="node">
<title>Node17</title>
<g id="a_node17"><a xlink:href="../../d9/d18/txscaled_8h.html" target="_top" xlink:title=" ">
<polygon fill="none" stroke="black" points="110.82,-385.5 110.82,-403.5 180.18,-403.5 180.18,-385.5 110.82,-385.5"/>
<text text-anchor="middle" x="145.5" y="-391.5" font-family="Helvetica,sans-Serif" font-size="10.00">../txscaled.h</text>
</a>
</g>
</g>
<!-- Node3&#45;&gt;Node17 -->
<g id="edge19" class="edge">
<title>Node3&#45;&gt;Node17</title>
<path fill="none" stroke="midnightblue" d="M220.13,-440.45C206.31,-432.12 184.47,-418.97 167.98,-409.04"/>
<polygon fill="midnightblue" stroke="midnightblue" points="169.36,-405.79 158.99,-403.63 165.75,-411.78 169.36,-405.79"/>
</g>
<!-- Node25 -->
<g id="node25" class="node">
<title>Node25</title>
<g id="a_node25"><a xlink:title=" ">
<polygon fill="none" stroke="#bfbfbf" points="197.77,-385.5 197.77,-403.5 243.23,-403.5 243.23,-385.5 197.77,-385.5"/>
<text text-anchor="middle" x="220.5" y="-391.5" font-family="Helvetica,sans-Serif" font-size="10.00">cstring</text>
</a>
</g>
</g>
<!-- Node3&#45;&gt;Node25 -->
<g id="edge30" class="edge">
<title>Node3&#45;&gt;Node25</title>
<path fill="none" stroke="midnightblue" d="M231.47,-440.22C229.72,-433.1 227.14,-422.58 224.92,-413.53"/>
<polygon fill="midnightblue" stroke="midnightblue" points="228.26,-412.43 222.47,-403.55 221.46,-414.1 228.26,-412.43"/>
</g>
<!-- Node5 -->
<g id="node5" class="node">
<title>Node5</title>
<g id="a_node5"><a xlink:href="../../d5/daf/_istring_8h.html" target="_top" xlink:title=" ">
<polygon fill="none" stroke="black" points="196.27,-275.5 196.27,-293.5 276.73,-293.5 276.73,-275.5 196.27,-275.5"/>
<text text-anchor="middle" x="236.5" y="-281.5" font-family="Helvetica,sans-Serif" font-size="10.00">tralics/Istring.h</text>
</a>
</g>
</g>
<!-- Node4&#45;&gt;Node5 -->
<g id="edge4" class="edge">
<title>Node4&#45;&gt;Node5</title>
<path fill="none" stroke="midnightblue" d="M239.88,-330.22C239.34,-323.1 238.54,-312.58 237.86,-303.53"/>
<polygon fill="midnightblue" stroke="midnightblue" points="241.35,-303.26 237.11,-293.55 234.37,-303.78 241.35,-303.26"/>
</g>
<!-- Node6 -->
<g id="node6" class="node">
<title>Node6</title>
<g id="a_node6"><a xlink:href="../../dd/d47/_str_hash_8h.html" target="_top" xlink:title=" ">
<polygon fill="none" stroke="black" points="279.27,-220.5 279.27,-238.5 339.73,-238.5 339.73,-220.5 279.27,-220.5"/>
<text text-anchor="middle" x="309.5" y="-226.5" font-family="Helvetica,sans-Serif" font-size="10.00">StrHash.h</text>
</a>
</g>
</g>
<!-- Node5&#45;&gt;Node6 -->
<g id="edge5" class="edge">
<title>Node5&#45;&gt;Node6</title>
<path fill="none" stroke="midnightblue" d="M247.59,-275.45C258.84,-267.28 276.5,-254.46 290.08,-244.6"/>
<polygon fill="midnightblue" stroke="midnightblue" points="292.27,-247.33 298.31,-238.63 288.16,-241.67 292.27,-247.33"/>
</g>
<!-- Node14 -->
<g id="node14" class="node">
<title>Node14</title>
<g id="a_node14"><a xlink:href="../../d0/d0b/enums_8h.html" target="_top" xlink:title=" ">
<polygon fill="none" stroke="black" points="120.32,-165.5 120.32,-183.5 174.68,-183.5 174.68,-165.5 120.32,-165.5"/>
<text text-anchor="middle" x="147.5" y="-171.5" font-family="Helvetica,sans-Serif" font-size="10.00">enums.h</text>
</a>
</g>
</g>
<!-- Node5&#45;&gt;Node14 -->
<g id="edge13" class="edge">
<title>Node5&#45;&gt;Node14</title>
<path fill="none" stroke="midnightblue" d="M210.69,-275.37C193.19,-268.5 171.04,-256.87 158.5,-239 149.26,-225.84 146.93,-207.43 146.66,-193.83"/>
<polygon fill="midnightblue" stroke="midnightblue" points="150.16,-193.8 146.81,-183.74 143.16,-193.69 150.16,-193.8"/>
</g>
<!-- Node15 -->
<g id="node15" class="node">
<title>Node15</title>
<g id="a_node15"><a xlink:href="../../d8/d3c/util_8h.html" target="_top" xlink:title=" ">
<polygon fill="none" stroke="black" points="223.94,-220.5 223.94,-238.5 261.06,-238.5 261.06,-220.5 223.94,-220.5"/>
<text text-anchor="middle" x="242.5" y="-226.5" font-family="Helvetica,sans-Serif" font-size="10.00">util.h</text>
</a>
</g>
</g>
<!-- Node5&#45;&gt;Node15 -->
<g id="edge15" class="edge">
<title>Node5&#45;&gt;Node15</title>
<path fill="none" stroke="midnightblue" d="M237.44,-275.22C238.24,-268.1 239.43,-257.58 240.46,-248.53"/>
<polygon fill="midnightblue" stroke="midnightblue" points="243.94,-248.88 241.59,-238.55 236.99,-248.09 243.94,-248.88"/>
</g>
<!-- Node16 -->
<g id="node16" class="node">
<title>Node16</title>
<g id="a_node16"><a xlink:title=" ">
<polygon fill="none" stroke="#bfbfbf" points="167.11,-220.5 167.11,-238.5 205.89,-238.5 205.89,-220.5 167.11,-220.5"/>
<text text-anchor="middle" x="186.5" y="-226.5" font-family="Helvetica,sans-Serif" font-size="10.00">array</text>
</a>
</g>
</g>
<!-- Node5&#45;&gt;Node16 -->
<g id="edge18" class="edge">
<title>Node5&#45;&gt;Node16</title>
<path fill="none" stroke="midnightblue" d="M228.69,-275.22C221.31,-267.39 210.05,-255.46 201.02,-245.89"/>
<polygon fill="midnightblue" stroke="midnightblue" points="203.5,-243.42 194.09,-238.55 198.41,-248.23 203.5,-243.42"/>
</g>
<!-- Node7 -->
<g id="node7" class="node">
<title>Node7</title>
<g id="a_node7"><a xlink:href="../../d8/db5/consts_8h.html" target="_top" xlink:title=" ">
<polygon fill="none" stroke="black" points="135.88,-110.5 135.88,-128.5 189.12,-128.5 189.12,-110.5 135.88,-110.5"/>
<text text-anchor="middle" x="162.5" y="-116.5" font-family="Helvetica,sans-Serif" font-size="10.00">consts.h</text>
</a>
</g>
</g>
<!-- Node6&#45;&gt;Node7 -->
<g id="edge6" class="edge">
<title>Node6&#45;&gt;Node7</title>
<path fill="none" stroke="midnightblue" d="M314.98,-220.17C322.83,-207.08 335.03,-181.49 322.5,-165 307.63,-145.44 241.64,-132.2 199.18,-125.53"/>
<polygon fill="midnightblue" stroke="midnightblue" points="199.62,-122.06 189.21,-124.02 198.57,-128.98 199.62,-122.06"/>
</g>
<!-- Node12 -->
<g id="node12" class="node">
<title>Node12</title>
<g id="a_node12"><a xlink:title=" ">
<polygon fill="none" stroke="#bfbfbf" points="211.27,-165.5 211.27,-183.5 251.73,-183.5 251.73,-165.5 211.27,-165.5"/>
<text text-anchor="middle" x="231.5" y="-171.5" font-family="Helvetica,sans-Serif" font-size="10.00">string</text>
</a>
</g>
</g>
<!-- Node6&#45;&gt;Node12 -->
<g id="edge11" class="edge">
<title>Node6&#45;&gt;Node12</title>
<path fill="none" stroke="midnightblue" d="M297.65,-220.45C285.51,-212.2 266.4,-199.22 251.84,-189.32"/>
<polygon fill="midnightblue" stroke="midnightblue" points="253.7,-186.35 243.46,-183.63 249.76,-192.14 253.7,-186.35"/>
</g>
<!-- Node13 -->
<g id="node13" class="node">
<title>Node13</title>
<g id="a_node13"><a xlink:title=" ">
<polygon fill="none" stroke="#bfbfbf" points="269.88,-165.5 269.88,-183.5 313.12,-183.5 313.12,-165.5 269.88,-165.5"/>
<text text-anchor="middle" x="291.5" y="-171.5" font-family="Helvetica,sans-Serif" font-size="10.00">vector</text>
</a>
</g>
</g>
<!-- Node6&#45;&gt;Node13 -->
<g id="edge12" class="edge">
<title>Node6&#45;&gt;Node13</title>
<path fill="none" stroke="midnightblue" d="M306.69,-220.22C304.24,-213.02 300.62,-202.35 297.52,-193.23"/>
<polygon fill="midnightblue" stroke="midnightblue" points="300.76,-191.89 294.23,-183.55 294.14,-194.14 300.76,-191.89"/>
</g>
<!-- Node8 -->
<g id="node8" class="node">
<title>Node8</title>
<g id="a_node8"><a xlink:href="../../d9/d49/types_8h.html" target="_top" xlink:title=" ">
<polygon fill="none" stroke="black" points="110.38,-55.5 110.38,-73.5 158.62,-73.5 158.62,-55.5 110.38,-55.5"/>
<text text-anchor="middle" x="134.5" y="-61.5" font-family="Helvetica,sans-Serif" font-size="10.00">types.h</text>
</a>
</g>
</g>
<!-- Node7&#45;&gt;Node8 -->
<g id="edge7" class="edge">
<title>Node7&#45;&gt;Node8</title>
<path fill="none" stroke="midnightblue" d="M158.12,-110.22C154.24,-102.86 148.44,-91.88 143.55,-82.64"/>
<polygon fill="midnightblue" stroke="midnightblue" points="146.52,-80.76 138.75,-73.55 140.33,-84.03 146.52,-80.76"/>
</g>
<!-- Node9 -->
<g id="node9" class="node">
<title>Node9</title>
<g id="a_node9"><a xlink:title=" ">
<polygon fill="none" stroke="#bfbfbf" points="44.38,-0.5 44.38,-18.5 92.62,-18.5 92.62,-0.5 44.38,-0.5"/>
<text text-anchor="middle" x="68.5" y="-6.5" font-family="Helvetica,sans-Serif" font-size="10.00">cassert</text>
</a>
</g>
</g>
<!-- Node8&#45;&gt;Node9 -->
<g id="edge8" class="edge">
<title>Node8&#45;&gt;Node9</title>
<path fill="none" stroke="midnightblue" d="M124.48,-55.45C114.49,-47.43 98.94,-34.95 86.76,-25.17"/>
<polygon fill="midnightblue" stroke="midnightblue" points="88.61,-22.16 78.62,-18.63 84.22,-27.62 88.61,-22.16"/>
</g>
<!-- Node10 -->
<g id="node10" class="node">
<title>Node10</title>
<g id="a_node10"><a xlink:title=" ">
<polygon fill="none" stroke="#bfbfbf" points="110.38,-0.5 110.38,-18.5 158.62,-18.5 158.62,-0.5 110.38,-0.5"/>
<text text-anchor="middle" x="134.5" y="-6.5" font-family="Helvetica,sans-Serif" font-size="10.00">cstddef</text>
</a>
</g>
</g>
<!-- Node8&#45;&gt;Node10 -->
<g id="edge9" class="edge">
<title>Node8&#45;&gt;Node10</title>
<path fill="none" stroke="midnightblue" d="M134.5,-55.22C134.5,-48.18 134.5,-37.81 134.5,-28.83"/>
<polygon fill="midnightblue" stroke="midnightblue" points="138,-28.55 134.5,-18.55 131,-28.55 138,-28.55"/>
</g>
<!-- Node11 -->
<g id="node11" class="node">
<title>Node11</title>
<g id="a_node11"><a xlink:title=" ">
<polygon fill="none" stroke="#bfbfbf" points="176.43,-0.5 176.43,-18.5 238.57,-18.5 238.57,-0.5 176.43,-0.5"/>
<text text-anchor="middle" x="207.5" y="-6.5" font-family="Helvetica,sans-Serif" font-size="10.00">type_traits</text>
</a>
</g>
</g>
<!-- Node8&#45;&gt;Node11 -->
<g id="edge10" class="edge">
<title>Node8&#45;&gt;Node11</title>
<path fill="none" stroke="midnightblue" d="M145.59,-55.45C156.84,-47.28 174.5,-34.46 188.08,-24.6"/>
<polygon fill="midnightblue" stroke="midnightblue" points="190.27,-27.33 196.31,-18.63 186.16,-21.67 190.27,-27.33"/>
</g>
<!-- Node14&#45;&gt;Node7 -->
<g id="edge14" class="edge">
<title>Node14&#45;&gt;Node7</title>
<path fill="none" stroke="midnightblue" d="M149.84,-165.22C151.88,-158.02 154.9,-147.35 157.48,-138.23"/>
<polygon fill="midnightblue" stroke="midnightblue" points="160.87,-139.12 160.22,-128.55 154.13,-137.22 160.87,-139.12"/>
</g>
<!-- Node15&#45;&gt;Node12 -->
<g id="edge16" class="edge">
<title>Node15&#45;&gt;Node12</title>
<path fill="none" stroke="midnightblue" d="M240.78,-220.22C239.3,-213.1 237.12,-202.58 235.24,-193.53"/>
<polygon fill="midnightblue" stroke="midnightblue" points="238.63,-192.63 233.17,-183.55 231.78,-194.05 238.63,-192.63"/>
</g>
<!-- Node15&#45;&gt;Node13 -->
<g id="edge17" class="edge">
<title>Node15&#45;&gt;Node13</title>
<path fill="none" stroke="midnightblue" d="M250.16,-220.22C257.32,-212.47 268.2,-200.7 277,-191.18"/>
<polygon fill="midnightblue" stroke="midnightblue" points="279.84,-193.27 284.06,-183.55 274.7,-188.52 279.84,-193.27"/>
</g>
<!-- Node18 -->
<g id="node18" class="node">
<title>Node18</title>
<g id="a_node18"><a xlink:href="../../dc/d91/txtokenlist_8h.html" target="_top" xlink:title=" ">
<polygon fill="none" stroke="black" points="117.1,-330.5 117.1,-348.5 185.9,-348.5 185.9,-330.5 117.1,-330.5"/>
<text text-anchor="middle" x="151.5" y="-336.5" font-family="Helvetica,sans-Serif" font-size="10.00">txtokenlist.h</text>
</a>
</g>
</g>
<!-- Node17&#45;&gt;Node18 -->
<g id="edge20" class="edge">
<title>Node17&#45;&gt;Node18</title>
<path fill="none" stroke="midnightblue" d="M146.44,-385.22C147.24,-378.1 148.43,-367.58 149.46,-358.53"/>
<polygon fill="midnightblue" stroke="midnightblue" points="152.94,-358.88 150.59,-348.55 145.99,-358.09 152.94,-358.88"/>
</g>
<!-- Node18&#45;&gt;Node5 -->
<g id="edge21" class="edge">
<title>Node18&#45;&gt;Node5</title>
<path fill="none" stroke="midnightblue" d="M164.41,-330.45C177.76,-322.12 198.86,-308.97 214.79,-299.04"/>
<polygon fill="midnightblue" stroke="midnightblue" points="216.84,-301.89 223.47,-293.63 213.13,-295.95 216.84,-301.89"/>
</g>
<!-- Node19 -->
<g id="node19" class="node">
<title>Node19</title>
<g id="a_node19"><a xlink:href="../../dd/dcd/_token_8h.html" target="_top" xlink:title=" ">
<polygon fill="none" stroke="black" points="35.54,-275.5 35.54,-293.5 115.46,-293.5 115.46,-275.5 35.54,-275.5"/>
<text text-anchor="middle" x="75.5" y="-281.5" font-family="Helvetica,sans-Serif" font-size="10.00">tralics/Token.h</text>
</a>
</g>
</g>
<!-- Node18&#45;&gt;Node19 -->
<g id="edge22" class="edge">
<title>Node18&#45;&gt;Node19</title>
<path fill="none" stroke="midnightblue" d="M139.96,-330.45C128.24,-322.28 109.86,-309.46 95.72,-299.6"/>
<polygon fill="midnightblue" stroke="midnightblue" points="97.36,-296.47 87.15,-293.63 93.35,-302.22 97.36,-296.47"/>
</g>
<!-- Node24 -->
<g id="node24" class="node">
<title>Node24</title>
<g id="a_node24"><a xlink:title=" ">
<polygon fill="none" stroke="#bfbfbf" points="133.11,-275.5 133.11,-293.5 171.89,-293.5 171.89,-275.5 133.11,-275.5"/>
<text text-anchor="middle" x="152.5" y="-281.5" font-family="Helvetica,sans-Serif" font-size="10.00">utility</text>
</a>
</g>
</g>
<!-- Node18&#45;&gt;Node24 -->
<g id="edge29" class="edge">
<title>Node18&#45;&gt;Node24</title>
<path fill="none" stroke="midnightblue" d="M151.66,-330.22C151.79,-323.18 151.98,-312.81 152.15,-303.83"/>
<polygon fill="midnightblue" stroke="midnightblue" points="155.66,-303.61 152.35,-293.55 148.66,-303.48 155.66,-303.61"/>
</g>
<!-- Node20 -->
<g id="node20" class="node">
<title>Node20</title>
<g id="a_node20"><a xlink:href="../../d2/d68/_cmd_chr_8h.html" target="_top" xlink:title=" ">
<polygon fill="none" stroke="black" points="46.99,-220.5 46.99,-238.5 108.01,-238.5 108.01,-220.5 46.99,-220.5"/>
<text text-anchor="middle" x="77.5" y="-226.5" font-family="Helvetica,sans-Serif" font-size="10.00">CmdChr.h</text>
</a>
</g>
</g>
<!-- Node19&#45;&gt;Node20 -->
<g id="edge23" class="edge">
<title>Node19&#45;&gt;Node20</title>
<path fill="none" stroke="midnightblue" d="M75.81,-275.22C76.08,-268.18 76.47,-257.81 76.81,-248.83"/>
<polygon fill="midnightblue" stroke="midnightblue" points="80.32,-248.67 77.2,-238.55 73.32,-248.41 80.32,-248.67"/>
</g>
<!-- Node23 -->
<g id="node23" class="node">
<title>Node23</title>
<g id="a_node23"><a xlink:title=" ">
<polygon fill="none" stroke="#bfbfbf" points="0,-220.5 0,-238.5 29,-238.5 29,-220.5 0,-220.5"/>
<text text-anchor="middle" x="14.11" y="-226.5" font-family="Helvetica,sans-Serif" font-size="10.00">list</text>
</a>
</g>
</g>
<!-- Node19&#45;&gt;Node23 -->
<g id="edge28" class="edge">
<title>Node19&#45;&gt;Node23</title>
<path fill="none" stroke="midnightblue" d="M66.24,-275.45C57.1,-267.51 42.92,-255.19 31.71,-245.45"/>
<polygon fill="midnightblue" stroke="midnightblue" points="33.7,-242.54 23.85,-238.63 29.1,-247.83 33.7,-242.54"/>
</g>
<!-- Node20&#45;&gt;Node14 -->
<g id="edge27" class="edge">
<title>Node20&#45;&gt;Node14</title>
<path fill="none" stroke="midnightblue" d="M88.13,-220.45C98.82,-212.36 115.53,-199.7 128.5,-189.88"/>
<polygon fill="midnightblue" stroke="midnightblue" points="130.91,-192.45 136.77,-183.63 126.68,-186.87 130.91,-192.45"/>
</g>
<!-- Node21 -->
<g id="node21" class="node">
<title>Node21</title>
<g id="a_node21"><a xlink:href="../../d8/d47/codepoint_8h.html" target="_top" xlink:title=" ">
<polygon fill="none" stroke="black" points="34.65,-165.5 34.65,-183.5 102.35,-183.5 102.35,-165.5 34.65,-165.5"/>
<text text-anchor="middle" x="68.5" y="-171.5" font-family="Helvetica,sans-Serif" font-size="10.00">codepoint.h</text>
</a>
</g>
</g>
<!-- Node20&#45;&gt;Node21 -->
<g id="edge24" class="edge">
<title>Node20&#45;&gt;Node21</title>
<path fill="none" stroke="midnightblue" d="M76.09,-220.22C74.88,-213.1 73.1,-202.58 71.56,-193.53"/>
<polygon fill="midnightblue" stroke="midnightblue" points="74.99,-192.82 69.87,-183.55 68.09,-193.99 74.99,-192.82"/>
</g>
<!-- Node21&#45;&gt;Node8 -->
<g id="edge25" class="edge">
<title>Node21&#45;&gt;Node8</title>
<path fill="none" stroke="midnightblue" d="M73.46,-165.38C84.21,-147.79 109.84,-105.85 124.24,-82.29"/>
<polygon fill="midnightblue" stroke="midnightblue" points="127.25,-84.07 129.48,-73.71 121.28,-80.42 127.25,-84.07"/>
</g>
<!-- Node22 -->
<g id="node22" class="node">
<title>Node22</title>
<g id="a_node22"><a xlink:title=" ">
<polygon fill="none" stroke="#bfbfbf" points="27.99,-110.5 27.99,-128.5 79.01,-128.5 79.01,-110.5 27.99,-110.5"/>
<text text-anchor="middle" x="53.5" y="-116.5" font-family="Helvetica,sans-Serif" font-size="10.00">optional</text>
</a>
</g>
</g>
<!-- Node21&#45;&gt;Node22 -->
<g id="edge26" class="edge">
<title>Node21&#45;&gt;Node22</title>
<path fill="none" stroke="midnightblue" d="M66.16,-165.22C64.12,-158.02 61.1,-147.35 58.52,-138.23"/>
<polygon fill="midnightblue" stroke="midnightblue" points="61.87,-137.22 55.78,-128.55 55.13,-139.12 61.87,-137.22"/>
</g>
<!-- Node27&#45;&gt;Node6 -->
<g id="edge33" class="edge">
<title>Node27&#45;&gt;Node6</title>
<path fill="none" stroke="midnightblue" d="M309.5,-330.38C309.5,-313.18 309.5,-272.7 309.5,-248.89"/>
<polygon fill="midnightblue" stroke="midnightblue" points="313,-248.71 309.5,-238.71 306,-248.71 313,-248.71"/>
</g>
</g>
</svg>
