<?xml version="1.0" encoding="UTF-8" standalone="no"?>
<!DOCTYPE svg PUBLIC "-//W3C//DTD SVG 1.1//EN"
 "http://www.w3.org/Graphics/SVG/1.1/DTD/svg11.dtd">
<!-- Generated by graphviz version 2.42.3 (20191010.1750)
 -->
<!-- Title: txstack.h Pages: 1 -->
<svg width="344pt" height="632pt"
 viewBox="0.00 0.00 344.13 632.00" xmlns="http://www.w3.org/2000/svg" xmlns:xlink="http://www.w3.org/1999/xlink">
<g id="graph0" class="graph" transform="scale(1 1) rotate(0) translate(4 628)">
<title>txstack.h</title>
<!-- Node1 -->
<g id="node1" class="node">
<title>Node1</title>
<g id="a_node1"><a xlink:title=" ">
<polygon fill="#bfbfbf" stroke="black" points="238.79,-605.5 238.79,-623.5 294.24,-623.5 294.24,-605.5 238.79,-605.5"/>
<text text-anchor="middle" x="266.51" y="-611.5" font-family="Helvetica,sans-Serif" font-size="10.00">txstack.h</text>
</a>
</g>
</g>
<!-- Node2 -->
<g id="node2" class="node">
<title>Node2</title>
<g id="a_node2"><a xlink:href="../../d4/da4/txatt_8h.html" target="_top" xlink:title=" ">
<polygon fill="none" stroke="black" points="213.9,-550.5 213.9,-568.5 257.13,-568.5 257.13,-550.5 213.9,-550.5"/>
<text text-anchor="middle" x="235.51" y="-556.5" font-family="Helvetica,sans-Serif" font-size="10.00">txatt.h</text>
</a>
</g>
</g>
<!-- Node1&#45;&gt;Node2 -->
<g id="edge1" class="edge">
<title>Node1&#45;&gt;Node2</title>
<path fill="none" stroke="midnightblue" d="M261.67,-605.22C257.32,-597.79 250.81,-586.65 245.37,-577.34"/>
<polygon fill="midnightblue" stroke="midnightblue" points="248.29,-575.41 240.22,-568.55 242.25,-578.95 248.29,-575.41"/>
</g>
<!-- Node25 -->
<g id="node25" class="node">
<title>Node25</title>
<g id="a_node25"><a xlink:href="../../d1/d43/txxml_8h.html" target="_top" xlink:title=" ">
<polygon fill="none" stroke="black" points="274.68,-550.5 274.68,-568.5 322.35,-568.5 322.35,-550.5 274.68,-550.5"/>
<text text-anchor="middle" x="298.51" y="-556.5" font-family="Helvetica,sans-Serif" font-size="10.00">txxml.h</text>
</a>
</g>
</g>
<!-- Node1&#45;&gt;Node25 -->
<g id="edge31" class="edge">
<title>Node1&#45;&gt;Node25</title>
<path fill="none" stroke="midnightblue" d="M271.51,-605.22C276,-597.79 282.73,-586.65 288.34,-577.34"/>
<polygon fill="midnightblue" stroke="midnightblue" points="291.48,-578.92 293.65,-568.55 285.49,-575.3 291.48,-578.92"/>
</g>
<!-- Node3 -->
<g id="node3" class="node">
<title>Node3</title>
<g id="a_node3"><a xlink:href="../../dc/def/txstring_8h.html" target="_top" xlink:title=" ">
<polygon fill="none" stroke="black" points="263.23,-495.5 263.23,-513.5 319.8,-513.5 319.8,-495.5 263.23,-495.5"/>
<text text-anchor="middle" x="291.51" y="-501.5" font-family="Helvetica,sans-Serif" font-size="10.00">txstring.h</text>
</a>
</g>
</g>
<!-- Node2&#45;&gt;Node3 -->
<g id="edge2" class="edge">
<title>Node2&#45;&gt;Node3</title>
<path fill="none" stroke="midnightblue" d="M244.26,-550.22C252.61,-542.32 265.39,-530.22 275.55,-520.61"/>
<polygon fill="midnightblue" stroke="midnightblue" points="278.15,-522.97 283.01,-513.55 273.34,-517.88 278.15,-522.97"/>
</g>
<!-- Node12 -->
<g id="node12" class="node">
<title>Node12</title>
<g id="a_node12"><a xlink:title=" ">
<polygon fill="none" stroke="#bfbfbf" points="0,-110.5 0,-128.5 51.03,-128.5 51.03,-110.5 0,-110.5"/>
<text text-anchor="middle" x="25.51" y="-116.5" font-family="Helvetica,sans-Serif" font-size="10.00">optional</text>
</a>
</g>
</g>
<!-- Node2&#45;&gt;Node12 -->
<g id="edge29" class="edge">
<title>Node2&#45;&gt;Node12</title>
<path fill="none" stroke="midnightblue" d="M213.62,-557.78C157.97,-554.67 15.51,-538.15 15.51,-450.5 15.51,-450.5 15.51,-450.5 15.51,-228.5 15.51,-196.74 19.86,-159.94 22.82,-138.54"/>
<polygon fill="midnightblue" stroke="midnightblue" points="26.29,-139 24.25,-128.61 19.36,-138 26.29,-139"/>
</g>
<!-- Node24 -->
<g id="node24" class="node">
<title>Node24</title>
<g id="a_node24"><a xlink:title=" ">
<polygon fill="none" stroke="#bfbfbf" points="292.9,-385.5 292.9,-403.5 336.13,-403.5 336.13,-385.5 292.9,-385.5"/>
<text text-anchor="middle" x="314.51" y="-391.5" font-family="Helvetica,sans-Serif" font-size="10.00">vector</text>
</a>
</g>
</g>
<!-- Node2&#45;&gt;Node24 -->
<g id="edge30" class="edge">
<title>Node2&#45;&gt;Node24</title>
<path fill="none" stroke="midnightblue" d="M237.23,-550.45C240.01,-538.17 246.04,-514.15 254.51,-495 268.2,-464.09 289.68,-431.01 302.88,-411.85"/>
<polygon fill="midnightblue" stroke="midnightblue" points="305.77,-413.83 308.63,-403.63 300.03,-409.82 305.77,-413.83"/>
</g>
<!-- Node4 -->
<g id="node4" class="node">
<title>Node4</title>
<g id="a_node4"><a xlink:href="../../dd/d74/txbuffer_8h.html" target="_top" xlink:title=" ">
<polygon fill="none" stroke="black" points="151.03,-440.5 151.03,-458.5 208,-458.5 208,-440.5 151.03,-440.5"/>
<text text-anchor="middle" x="179.51" y="-446.5" font-family="Helvetica,sans-Serif" font-size="10.00">txbuffer.h</text>
</a>
</g>
</g>
<!-- Node3&#45;&gt;Node4 -->
<g id="edge3" class="edge">
<title>Node3&#45;&gt;Node4</title>
<path fill="none" stroke="midnightblue" d="M274.5,-495.45C256.25,-486.81 227.02,-472.98 205.8,-462.94"/>
<polygon fill="midnightblue" stroke="midnightblue" points="207.22,-459.74 196.69,-458.63 204.23,-466.07 207.22,-459.74"/>
</g>
<!-- Node5 -->
<g id="node5" class="node">
<title>Node5</title>
<g id="a_node5"><a xlink:href="../../dd/dcd/_token_8h.html" target="_top" xlink:title=" ">
<polygon fill="none" stroke="black" points="43.56,-275.5 43.56,-293.5 123.47,-293.5 123.47,-275.5 43.56,-275.5"/>
<text text-anchor="middle" x="83.51" y="-281.5" font-family="Helvetica,sans-Serif" font-size="10.00">tralics/Token.h</text>
</a>
</g>
</g>
<!-- Node4&#45;&gt;Node5 -->
<g id="edge4" class="edge">
<title>Node4&#45;&gt;Node5</title>
<path fill="none" stroke="midnightblue" d="M154.33,-440.48C136.96,-433.61 114.86,-421.93 102.51,-404 81.61,-373.63 80.53,-328.62 81.85,-303.72"/>
<polygon fill="midnightblue" stroke="midnightblue" points="85.36,-303.77 82.59,-293.55 78.38,-303.27 85.36,-303.77"/>
</g>
<!-- Node16 -->
<g id="node16" class="node">
<title>Node16</title>
<g id="a_node16"><a xlink:href="../../d1/d9e/txid_8h.html" target="_top" xlink:title=" ">
<polygon fill="none" stroke="black" points="244.56,-330.5 244.56,-348.5 284.47,-348.5 284.47,-330.5 244.56,-330.5"/>
<text text-anchor="middle" x="264.51" y="-336.5" font-family="Helvetica,sans-Serif" font-size="10.00">txid.h</text>
</a>
</g>
</g>
<!-- Node4&#45;&gt;Node16 -->
<g id="edge16" class="edge">
<title>Node4&#45;&gt;Node16</title>
<path fill="none" stroke="midnightblue" d="M198.07,-440.37C212.96,-432.94 233.31,-420.59 245.51,-404 255.32,-390.67 260.1,-372.29 262.41,-358.73"/>
<polygon fill="midnightblue" stroke="midnightblue" points="265.9,-359.09 263.83,-348.7 258.97,-358.11 265.9,-359.09"/>
</g>
<!-- Node20 -->
<g id="node20" class="node">
<title>Node20</title>
<g id="a_node20"><a xlink:href="../../d9/d18/txscaled_8h.html" target="_top" xlink:title=" ">
<polygon fill="none" stroke="black" points="112,-385.5 112,-403.5 173.03,-403.5 173.03,-385.5 112,-385.5"/>
<text text-anchor="middle" x="142.51" y="-391.5" font-family="Helvetica,sans-Serif" font-size="10.00">txscaled.h</text>
</a>
</g>
</g>
<!-- Node4&#45;&gt;Node20 -->
<g id="edge22" class="edge">
<title>Node4&#45;&gt;Node20</title>
<path fill="none" stroke="midnightblue" d="M173.73,-440.22C168.44,-432.63 160.44,-421.18 153.87,-411.76"/>
<polygon fill="midnightblue" stroke="midnightblue" points="156.73,-409.75 148.13,-403.55 150.99,-413.75 156.73,-409.75"/>
</g>
<!-- Node23 -->
<g id="node23" class="node">
<title>Node23</title>
<g id="a_node23"><a xlink:title=" ">
<polygon fill="none" stroke="#bfbfbf" points="190.79,-385.5 190.79,-403.5 236.24,-403.5 236.24,-385.5 190.79,-385.5"/>
<text text-anchor="middle" x="213.51" y="-391.5" font-family="Helvetica,sans-Serif" font-size="10.00">cstring</text>
</a>
</g>
</g>
<!-- Node4&#45;&gt;Node23 -->
<g id="edge27" class="edge">
<title>Node4&#45;&gt;Node23</title>
<path fill="none" stroke="midnightblue" d="M184.83,-440.22C189.65,-432.71 196.89,-421.41 202.9,-412.05"/>
<polygon fill="midnightblue" stroke="midnightblue" points="205.9,-413.86 208.35,-403.55 200.01,-410.08 205.9,-413.86"/>
</g>
<!-- Node4&#45;&gt;Node24 -->
<g id="edge28" class="edge">
<title>Node4&#45;&gt;Node24</title>
<path fill="none" stroke="midnightblue" d="M200.02,-440.45C222.42,-431.66 258.53,-417.48 284.2,-407.4"/>
<polygon fill="midnightblue" stroke="midnightblue" points="285.79,-410.54 293.82,-403.63 283.23,-404.02 285.79,-410.54"/>
</g>
<!-- Node6 -->
<g id="node6" class="node">
<title>Node6</title>
<g id="a_node6"><a xlink:href="../../d2/d68/_cmd_chr_8h.html" target="_top" xlink:title=" ">
<polygon fill="none" stroke="black" points="47,-220.5 47,-238.5 108.02,-238.5 108.02,-220.5 47,-220.5"/>
<text text-anchor="middle" x="77.51" y="-226.5" font-family="Helvetica,sans-Serif" font-size="10.00">CmdChr.h</text>
</a>
</g>
</g>
<!-- Node5&#45;&gt;Node6 -->
<g id="edge5" class="edge">
<title>Node5&#45;&gt;Node6</title>
<path fill="none" stroke="midnightblue" d="M82.58,-275.22C81.77,-268.1 80.58,-257.58 79.56,-248.53"/>
<polygon fill="midnightblue" stroke="midnightblue" points="83.03,-248.09 78.43,-238.55 76.07,-248.88 83.03,-248.09"/>
</g>
<!-- Node15 -->
<g id="node15" class="node">
<title>Node15</title>
<g id="a_node15"><a xlink:title=" ">
<polygon fill="none" stroke="#bfbfbf" points="126.01,-220.5 126.01,-238.5 155.01,-238.5 155.01,-220.5 126.01,-220.5"/>
<text text-anchor="middle" x="140.13" y="-226.5" font-family="Helvetica,sans-Serif" font-size="10.00">list</text>
</a>
</g>
</g>
<!-- Node5&#45;&gt;Node15 -->
<g id="edge15" class="edge">
<title>Node5&#45;&gt;Node15</title>
<path fill="none" stroke="midnightblue" d="M92.42,-275.22C100.92,-267.32 113.92,-255.22 124.27,-245.61"/>
<polygon fill="midnightblue" stroke="midnightblue" points="126.92,-247.92 131.86,-238.55 122.15,-242.8 126.92,-247.92"/>
</g>
<!-- Node7 -->
<g id="node7" class="node">
<title>Node7</title>
<g id="a_node7"><a xlink:href="../../d8/d47/codepoint_8h.html" target="_top" xlink:title=" ">
<polygon fill="none" stroke="black" points="43.66,-165.5 43.66,-183.5 111.37,-183.5 111.37,-165.5 43.66,-165.5"/>
<text text-anchor="middle" x="77.51" y="-171.5" font-family="Helvetica,sans-Serif" font-size="10.00">codepoint.h</text>
</a>
</g>
</g>
<!-- Node6&#45;&gt;Node7 -->
<g id="edge6" class="edge">
<title>Node6&#45;&gt;Node7</title>
<path fill="none" stroke="midnightblue" d="M77.51,-220.22C77.51,-213.18 77.51,-202.81 77.51,-193.83"/>
<polygon fill="midnightblue" stroke="midnightblue" points="81.01,-193.55 77.51,-183.55 74.01,-193.55 81.01,-193.55"/>
</g>
<!-- Node13 -->
<g id="node13" class="node">
<title>Node13</title>
<g id="a_node13"><a xlink:href="../../d0/d0b/enums_8h.html" target="_top" xlink:title=" ">
<polygon fill="none" stroke="black" points="129.34,-165.5 129.34,-183.5 183.69,-183.5 183.69,-165.5 129.34,-165.5"/>
<text text-anchor="middle" x="156.51" y="-171.5" font-family="Helvetica,sans-Serif" font-size="10.00">enums.h</text>
</a>
</g>
</g>
<!-- Node6&#45;&gt;Node13 -->
<g id="edge12" class="edge">
<title>Node6&#45;&gt;Node13</title>
<path fill="none" stroke="midnightblue" d="M89.51,-220.45C101.81,-212.2 121.16,-199.22 135.92,-189.32"/>
<polygon fill="midnightblue" stroke="midnightblue" points="138.05,-192.1 144.4,-183.63 134.15,-186.29 138.05,-192.1"/>
</g>
<!-- Node8 -->
<g id="node8" class="node">
<title>Node8</title>
<g id="a_node8"><a xlink:href="../../d9/d49/types_8h.html" target="_top" xlink:title=" ">
<polygon fill="none" stroke="black" points="92.39,-55.5 92.39,-73.5 140.64,-73.5 140.64,-55.5 92.39,-55.5"/>
<text text-anchor="middle" x="116.51" y="-61.5" font-family="Helvetica,sans-Serif" font-size="10.00">types.h</text>
</a>
</g>
</g>
<!-- Node7&#45;&gt;Node8 -->
<g id="edge7" class="edge">
<title>Node7&#45;&gt;Node8</title>
<path fill="none" stroke="midnightblue" d="M80.45,-165.38C86.71,-148.03 101.54,-106.96 110.11,-83.24"/>
<polygon fill="midnightblue" stroke="midnightblue" points="113.44,-84.31 113.55,-73.71 106.86,-81.93 113.44,-84.31"/>
</g>
<!-- Node7&#45;&gt;Node12 -->
<g id="edge11" class="edge">
<title>Node7&#45;&gt;Node12</title>
<path fill="none" stroke="midnightblue" d="M69.39,-165.22C61.71,-157.39 50.01,-145.46 40.62,-135.89"/>
<polygon fill="midnightblue" stroke="midnightblue" points="42.91,-133.24 33.41,-128.55 37.92,-138.14 42.91,-133.24"/>
</g>
<!-- Node9 -->
<g id="node9" class="node">
<title>Node9</title>
<g id="a_node9"><a xlink:title=" ">
<polygon fill="none" stroke="#bfbfbf" points="26.4,-0.5 26.4,-18.5 74.63,-18.5 74.63,-0.5 26.4,-0.5"/>
<text text-anchor="middle" x="50.51" y="-6.5" font-family="Helvetica,sans-Serif" font-size="10.00">cassert</text>
</a>
</g>
</g>
<!-- Node8&#45;&gt;Node9 -->
<g id="edge8" class="edge">
<title>Node8&#45;&gt;Node9</title>
<path fill="none" stroke="midnightblue" d="M106.49,-55.45C96.51,-47.43 80.96,-34.95 68.78,-25.17"/>
<polygon fill="midnightblue" stroke="midnightblue" points="70.62,-22.16 60.63,-18.63 66.24,-27.62 70.62,-22.16"/>
</g>
<!-- Node10 -->
<g id="node10" class="node">
<title>Node10</title>
<g id="a_node10"><a xlink:title=" ">
<polygon fill="none" stroke="#bfbfbf" points="92.39,-0.5 92.39,-18.5 140.64,-18.5 140.64,-0.5 92.39,-0.5"/>
<text text-anchor="middle" x="116.51" y="-6.5" font-family="Helvetica,sans-Serif" font-size="10.00">cstddef</text>
</a>
</g>
</g>
<!-- Node8&#45;&gt;Node10 -->
<g id="edge9" class="edge">
<title>Node8&#45;&gt;Node10</title>
<path fill="none" stroke="midnightblue" d="M116.51,-55.22C116.51,-48.18 116.51,-37.81 116.51,-28.83"/>
<polygon fill="midnightblue" stroke="midnightblue" points="120.01,-28.55 116.51,-18.55 113.01,-28.55 120.01,-28.55"/>
</g>
<!-- Node11 -->
<g id="node11" class="node">
<title>Node11</title>
<g id="a_node11"><a xlink:title=" ">
<polygon fill="none" stroke="#bfbfbf" points="158.45,-0.5 158.45,-18.5 220.58,-18.5 220.58,-0.5 158.45,-0.5"/>
<text text-anchor="middle" x="189.51" y="-6.5" font-family="Helvetica,sans-Serif" font-size="10.00">type_traits</text>
</a>
</g>
</g>
<!-- Node8&#45;&gt;Node11 -->
<g id="edge10" class="edge">
<title>Node8&#45;&gt;Node11</title>
<path fill="none" stroke="midnightblue" d="M127.6,-55.45C138.86,-47.28 156.51,-34.46 170.09,-24.6"/>
<polygon fill="midnightblue" stroke="midnightblue" points="172.29,-27.33 178.32,-18.63 168.17,-21.67 172.29,-27.33"/>
</g>
<!-- Node14 -->
<g id="node14" class="node">
<title>Node14</title>
<g id="a_node14"><a xlink:href="../../d8/db5/consts_8h.html" target="_top" xlink:title=" ">
<polygon fill="none" stroke="black" points="123.89,-110.5 123.89,-128.5 177.14,-128.5 177.14,-110.5 123.89,-110.5"/>
<text text-anchor="middle" x="150.51" y="-116.5" font-family="Helvetica,sans-Serif" font-size="10.00">consts.h</text>
</a>
</g>
</g>
<!-- Node13&#45;&gt;Node14 -->
<g id="edge13" class="edge">
<title>Node13&#45;&gt;Node14</title>
<path fill="none" stroke="midnightblue" d="M155.58,-165.22C154.77,-158.1 153.58,-147.58 152.56,-138.53"/>
<polygon fill="midnightblue" stroke="midnightblue" points="156.03,-138.09 151.43,-128.55 149.07,-138.88 156.03,-138.09"/>
</g>
<!-- Node14&#45;&gt;Node8 -->
<g id="edge14" class="edge">
<title>Node14&#45;&gt;Node8</title>
<path fill="none" stroke="midnightblue" d="M145.2,-110.22C140.38,-102.71 133.14,-91.41 127.13,-82.05"/>
<polygon fill="midnightblue" stroke="midnightblue" points="130.02,-80.08 121.68,-73.55 124.13,-83.86 130.02,-80.08"/>
</g>
<!-- Node17 -->
<g id="node17" class="node">
<title>Node17</title>
<g id="a_node17"><a xlink:href="../../d5/daf/_istring_8h.html" target="_top" xlink:title=" ">
<polygon fill="none" stroke="black" points="198.28,-275.5 198.28,-293.5 278.75,-293.5 278.75,-275.5 198.28,-275.5"/>
<text text-anchor="middle" x="238.51" y="-281.5" font-family="Helvetica,sans-Serif" font-size="10.00">tralics/Istring.h</text>
</a>
</g>
</g>
<!-- Node16&#45;&gt;Node17 -->
<g id="edge17" class="edge">
<title>Node16&#45;&gt;Node17</title>
<path fill="none" stroke="midnightblue" d="M260.45,-330.22C256.84,-322.86 251.46,-311.88 246.92,-302.64"/>
<polygon fill="midnightblue" stroke="midnightblue" points="250.01,-300.99 242.46,-293.55 243.73,-304.07 250.01,-300.99"/>
</g>
<!-- Node19 -->
<g id="node19" class="node">
<title>Node19</title>
<g id="a_node19"><a xlink:title=" ">
<polygon fill="none" stroke="#bfbfbf" points="276.29,-220.5 276.29,-238.5 316.74,-238.5 316.74,-220.5 276.29,-220.5"/>
<text text-anchor="middle" x="296.51" y="-226.5" font-family="Helvetica,sans-Serif" font-size="10.00">string</text>
</a>
</g>
</g>
<!-- Node16&#45;&gt;Node19 -->
<g id="edge21" class="edge">
<title>Node16&#45;&gt;Node19</title>
<path fill="none" stroke="midnightblue" d="M269.81,-330.34C275.16,-321.68 283.23,-307.42 287.51,-294 292.23,-279.22 294.48,-261.72 295.55,-248.83"/>
<polygon fill="midnightblue" stroke="midnightblue" points="299.06,-248.72 296.24,-238.51 292.08,-248.26 299.06,-248.72"/>
</g>
<!-- Node17&#45;&gt;Node13 -->
<g id="edge18" class="edge">
<title>Node17&#45;&gt;Node13</title>
<path fill="none" stroke="midnightblue" d="M237.95,-275.33C236.7,-262.46 232.76,-237.16 220.51,-220 211.03,-206.7 196.26,-196.05 183.3,-188.51"/>
<polygon fill="midnightblue" stroke="midnightblue" points="184.73,-185.3 174.28,-183.57 181.37,-191.44 184.73,-185.3"/>
</g>
<!-- Node18 -->
<g id="node18" class="node">
<title>Node18</title>
<g id="a_node18"><a xlink:title=" ">
<polygon fill="none" stroke="#bfbfbf" points="173.12,-220.5 173.12,-238.5 211.91,-238.5 211.91,-220.5 173.12,-220.5"/>
<text text-anchor="middle" x="192.51" y="-226.5" font-family="Helvetica,sans-Serif" font-size="10.00">array</text>
</a>
</g>
</g>
<!-- Node17&#45;&gt;Node18 -->
<g id="edge19" class="edge">
<title>Node17&#45;&gt;Node18</title>
<path fill="none" stroke="midnightblue" d="M231.33,-275.22C224.6,-267.47 214.39,-255.7 206.12,-246.18"/>
<polygon fill="midnightblue" stroke="midnightblue" points="208.7,-243.81 199.5,-238.55 203.41,-248.4 208.7,-243.81"/>
</g>
<!-- Node17&#45;&gt;Node19 -->
<g id="edge20" class="edge">
<title>Node17&#45;&gt;Node19</title>
<path fill="none" stroke="midnightblue" d="M247.58,-275.22C256.31,-267.24 269.72,-254.98 280.3,-245.32"/>
<polygon fill="midnightblue" stroke="midnightblue" points="282.68,-247.88 287.71,-238.55 277.96,-242.71 282.68,-247.88"/>
</g>
<!-- Node21 -->
<g id="node21" class="node">
<title>Node21</title>
<g id="a_node21"><a xlink:href="../../dc/d91/txtokenlist_8h.html" target="_top" xlink:title=" ">
<polygon fill="none" stroke="black" points="119.11,-330.5 119.11,-348.5 187.92,-348.5 187.92,-330.5 119.11,-330.5"/>
<text text-anchor="middle" x="153.51" y="-336.5" font-family="Helvetica,sans-Serif" font-size="10.00">txtokenlist.h</text>
</a>
</g>
</g>
<!-- Node20&#45;&gt;Node21 -->
<g id="edge23" class="edge">
<title>Node20&#45;&gt;Node21</title>
<path fill="none" stroke="midnightblue" d="M144.23,-385.22C145.71,-378.1 147.89,-367.58 149.77,-358.53"/>
<polygon fill="midnightblue" stroke="midnightblue" points="153.24,-359.05 151.84,-348.55 146.38,-357.63 153.24,-359.05"/>
</g>
<!-- Node21&#45;&gt;Node5 -->
<g id="edge25" class="edge">
<title>Node21&#45;&gt;Node5</title>
<path fill="none" stroke="midnightblue" d="M142.88,-330.45C132.19,-322.36 115.48,-309.7 102.51,-299.88"/>
<polygon fill="midnightblue" stroke="midnightblue" points="104.33,-296.87 94.25,-293.63 100.11,-302.45 104.33,-296.87"/>
</g>
<!-- Node21&#45;&gt;Node17 -->
<g id="edge24" class="edge">
<title>Node21&#45;&gt;Node17</title>
<path fill="none" stroke="midnightblue" d="M166.42,-330.45C179.78,-322.12 200.87,-308.97 216.8,-299.04"/>
<polygon fill="midnightblue" stroke="midnightblue" points="218.85,-301.89 225.48,-293.63 215.15,-295.95 218.85,-301.89"/>
</g>
<!-- Node22 -->
<g id="node22" class="node">
<title>Node22</title>
<g id="a_node22"><a xlink:title=" ">
<polygon fill="none" stroke="#bfbfbf" points="141.12,-275.5 141.12,-293.5 179.91,-293.5 179.91,-275.5 141.12,-275.5"/>
<text text-anchor="middle" x="160.51" y="-281.5" font-family="Helvetica,sans-Serif" font-size="10.00">utility</text>
</a>
</g>
</g>
<!-- Node21&#45;&gt;Node22 -->
<g id="edge26" class="edge">
<title>Node21&#45;&gt;Node22</title>
<path fill="none" stroke="midnightblue" d="M154.61,-330.22C155.55,-323.1 156.94,-312.58 158.13,-303.53"/>
<polygon fill="midnightblue" stroke="midnightblue" points="161.61,-303.92 159.45,-293.55 154.67,-303.01 161.61,-303.92"/>
</g>
<!-- Node25&#45;&gt;Node3 -->
<g id="edge32" class="edge">
<title>Node25&#45;&gt;Node3</title>
<path fill="none" stroke="midnightblue" d="M297.42,-550.22C296.48,-543.1 295.09,-532.58 293.9,-523.53"/>
<polygon fill="midnightblue" stroke="midnightblue" points="297.36,-523.01 292.58,-513.55 290.42,-523.92 297.36,-523.01"/>
</g>
<!-- Node25&#45;&gt;Node24 -->
<g id="edge33" class="edge">
<title>Node25&#45;&gt;Node24</title>
<path fill="none" stroke="midnightblue" d="M306.17,-550.43C313.53,-542.08 324.16,-528.26 328.51,-514 339.07,-479.45 328.75,-436.99 321.1,-413.42"/>
<polygon fill="midnightblue" stroke="midnightblue" points="324.33,-412.06 317.75,-403.75 317.71,-414.35 324.33,-412.06"/>
</g>
</g>
</svg>
