<?xml version="1.0" encoding="UTF-8" standalone="no"?>
<!DOCTYPE svg PUBLIC "-//W3C//DTD SVG 1.1//EN"
 "http://www.w3.org/Graphics/SVG/1.1/DTD/svg11.dtd">
<!-- Generated by graphviz version 2.42.3 (20191010.1750)
 -->
<!-- Title: Logger Pages: 1 -->
<svg width="229pt" height="336pt"
 viewBox="0.00 0.00 228.80 336.00" xmlns="http://www.w3.org/2000/svg" xmlns:xlink="http://www.w3.org/1999/xlink">
<g id="graph0" class="graph" transform="scale(1 1) rotate(0) translate(4 332)">
<title>Logger</title>
<!-- Node1 -->
<g id="node1" class="node">
<title>Node1</title>
<g id="a_node1"><a xlink:title=" ">
<polygon fill="#bfbfbf" stroke="black" points="80.48,-0.5 80.48,-18.5 127.62,-18.5 127.62,-0.5 80.48,-0.5"/>
<text text-anchor="middle" x="104.05" y="-6.5" font-family="Helvetica,sans-Serif" font-size="10.00">Logger</text>
</a>
</g>
</g>
<!-- Node2 -->
<g id="node2" class="node">
<title>Node2</title>
<g id="a_node2"><a xlink:title="STL class.">
<polygon fill="none" stroke="#bfbfbf" points="32.37,-65.5 32.37,-83.5 91.72,-83.5 91.72,-65.5 32.37,-65.5"/>
<text text-anchor="middle" x="62.05" y="-71.5" font-family="Helvetica,sans-Serif" font-size="10.00">std::string</text>
</a>
</g>
</g>
<!-- Node2&#45;&gt;Node1 -->
<g id="edge1" class="edge">
<title>Node2&#45;&gt;Node1</title>
<path fill="none" stroke="#9a32cd" stroke-dasharray="5,2" d="M70.77,-56.49C74.19,-50.22 78.29,-43.15 82.47,-37 86.87,-30.52 92.47,-23.68 96.86,-18.57"/>
<polygon fill="#9a32cd" stroke="#9a32cd" points="67.62,-54.95 66.05,-65.43 73.81,-58.22 67.62,-54.95"/>
<text text-anchor="middle" x="102.34" y="-39" font-family="Helvetica,sans-Serif" font-size="10.00"> filename</text>
</g>
<!-- Node3 -->
<g id="node3" class="node">
<title>Node3</title>
<g id="a_node3"><a xlink:title="STL class.">
<polygon fill="none" stroke="#bfbfbf" points="0,-121.5 0,-149.5 94.1,-149.5 94.1,-121.5 0,-121.5"/>
<text text-anchor="start" x="8" y="-137.5" font-family="Helvetica,sans-Serif" font-size="10.00">std::basic_string&lt;</text>
<text text-anchor="middle" x="47.05" y="-127.5" font-family="Helvetica,sans-Serif" font-size="10.00"> char &gt;</text>
</a>
</g>
</g>
<!-- Node3&#45;&gt;Node2 -->
<g id="edge2" class="edge">
<title>Node3&#45;&gt;Node2</title>
<path fill="none" stroke="midnightblue" d="M52.85,-111.7C55.36,-101.82 58.13,-90.89 59.97,-83.65"/>
<polygon fill="midnightblue" stroke="midnightblue" points="49.45,-110.85 50.38,-121.41 56.23,-112.58 49.45,-110.85"/>
</g>
<!-- Node4 -->
<g id="node4" class="node">
<title>Node4</title>
<g id="a_node4"><a xlink:title="STL class.">
<polygon fill="none" stroke="#bfbfbf" points="118.15,-65.5 118.15,-83.5 191.95,-83.5 191.95,-65.5 118.15,-65.5"/>
<text text-anchor="middle" x="155.05" y="-71.5" font-family="Helvetica,sans-Serif" font-size="10.00">std::ofstream</text>
</a>
</g>
</g>
<!-- Node4&#45;&gt;Node1 -->
<g id="edge3" class="edge">
<title>Node4&#45;&gt;Node1</title>
<path fill="none" stroke="#9a32cd" stroke-dasharray="5,2" d="M142.07,-57.47C132,-45.03 118.47,-28.31 110.56,-18.54"/>
<polygon fill="#9a32cd" stroke="#9a32cd" points="139.37,-59.69 148.38,-65.26 144.81,-55.29 139.37,-59.69"/>
<text text-anchor="middle" x="137.61" y="-39" font-family="Helvetica,sans-Serif" font-size="10.00"> fp</text>
</g>
<!-- Node5 -->
<g id="node5" class="node">
<title>Node5</title>
<g id="a_node5"><a xlink:title="STL class.">
<polygon fill="none" stroke="#bfbfbf" points="111.7,-121.5 111.7,-149.5 214.4,-149.5 214.4,-121.5 111.7,-121.5"/>
<text text-anchor="start" x="119.7" y="-137.5" font-family="Helvetica,sans-Serif" font-size="10.00">std::basic_ofstream</text>
<text text-anchor="middle" x="163.05" y="-127.5" font-family="Helvetica,sans-Serif" font-size="10.00">&lt; char &gt;</text>
</a>
</g>
</g>
<!-- Node5&#45;&gt;Node4 -->
<g id="edge4" class="edge">
<title>Node5&#45;&gt;Node4</title>
<path fill="none" stroke="midnightblue" d="M159.91,-111.39C158.59,-101.59 157.12,-90.82 156.15,-83.65"/>
<polygon fill="midnightblue" stroke="midnightblue" points="156.46,-111.97 161.27,-121.41 163.4,-111.03 156.46,-111.97"/>
</g>
<!-- Node6 -->
<g id="node6" class="node">
<title>Node6</title>
<g id="a_node6"><a xlink:title="STL class.">
<polygon fill="none" stroke="#bfbfbf" points="113.08,-187.5 113.08,-215.5 213.01,-215.5 213.01,-187.5 113.08,-187.5"/>
<text text-anchor="start" x="121.08" y="-203.5" font-family="Helvetica,sans-Serif" font-size="10.00">std::basic_ostream</text>
<text text-anchor="middle" x="163.05" y="-193.5" font-family="Helvetica,sans-Serif" font-size="10.00">&lt; Char &gt;</text>
</a>
</g>
</g>
<!-- Node6&#45;&gt;Node5 -->
<g id="edge5" class="edge">
<title>Node6&#45;&gt;Node5</title>
<path fill="none" stroke="midnightblue" d="M163.05,-177.09C163.05,-167.88 163.05,-157.64 163.05,-149.74"/>
<polygon fill="midnightblue" stroke="midnightblue" points="159.55,-177.24 163.05,-187.24 166.55,-177.24 159.55,-177.24"/>
</g>
<!-- Node7 -->
<g id="node7" class="node">
<title>Node7</title>
<g id="a_node7"><a xlink:title="STL class.">
<polygon fill="none" stroke="#bfbfbf" points="105.3,-253.5 105.3,-271.5 220.8,-271.5 220.8,-253.5 105.3,-253.5"/>
<text text-anchor="middle" x="163.05" y="-259.5" font-family="Helvetica,sans-Serif" font-size="10.00">std::basic_ios&lt; Char &gt;</text>
</a>
</g>
</g>
<!-- Node7&#45;&gt;Node6 -->
<g id="edge6" class="edge">
<title>Node7&#45;&gt;Node6</title>
<path fill="none" stroke="midnightblue" d="M163.05,-243.15C163.05,-234.24 163.05,-223.72 163.05,-215.62"/>
<polygon fill="midnightblue" stroke="midnightblue" points="159.55,-243.3 163.05,-253.3 166.55,-243.3 159.55,-243.3"/>
</g>
<!-- Node8 -->
<g id="node8" class="node">
<title>Node8</title>
<g id="a_node8"><a xlink:title="STL class.">
<polygon fill="none" stroke="#bfbfbf" points="125.58,-309.5 125.58,-327.5 200.51,-327.5 200.51,-309.5 125.58,-309.5"/>
<text text-anchor="middle" x="163.05" y="-315.5" font-family="Helvetica,sans-Serif" font-size="10.00">std::ios_base</text>
</a>
</g>
</g>
<!-- Node8&#45;&gt;Node7 -->
<g id="edge7" class="edge">
<title>Node8&#45;&gt;Node7</title>
<path fill="none" stroke="midnightblue" d="M163.05,-298.83C163.05,-289.58 163.05,-278.88 163.05,-271.7"/>
<polygon fill="midnightblue" stroke="midnightblue" points="159.55,-299.06 163.05,-309.06 166.55,-299.06 159.55,-299.06"/>
</g>
</g>
</svg>
