<?xml version="1.0" encoding="UTF-8" standalone="no"?>
<!DOCTYPE svg PUBLIC "-//W3C//DTD SVG 1.1//EN"
 "http://www.w3.org/Graphics/SVG/1.1/DTD/svg11.dtd">
<!-- Generated by graphviz version 2.42.3 (20191010.1750)
 -->
<!-- Title: txatt.cpp Pages: 1 -->
<svg width="415pt" height="687pt"
 viewBox="0.00 0.00 414.62 687.00" xmlns="http://www.w3.org/2000/svg" xmlns:xlink="http://www.w3.org/1999/xlink">
<g id="graph0" class="graph" transform="scale(1 1) rotate(0) translate(4 683)">
<title>txatt.cpp</title>
<polygon fill="white" stroke="transparent" points="-4,4 -4,-683 410.62,-683 410.62,4 -4,4"/>
<!-- Node1 -->
<g id="node1" class="node">
<title>Node1</title>
<g id="a_node1"><a xlink:title=" ">
<polygon fill="#bfbfbf" stroke="black" points="200.1,-660.5 200.1,-678.5 253.9,-678.5 253.9,-660.5 200.1,-660.5"/>
<text text-anchor="middle" x="227" y="-666.5" font-family="Helvetica,sans-Serif" font-size="10.00">txatt.cpp</text>
</a>
</g>
</g>
<!-- Node2 -->
<g id="node2" class="node">
<title>Node2</title>
<g id="a_node2"><a xlink:href="../../d7/d79/txinline_8h.html" target="_top" xlink:title=" ">
<polygon fill="white" stroke="black" points="153.27,-605.5 153.27,-623.5 208.73,-623.5 208.73,-605.5 153.27,-605.5"/>
<text text-anchor="middle" x="181" y="-611.5" font-family="Helvetica,sans-Serif" font-size="10.00">txinline.h</text>
</a>
</g>
</g>
<!-- Node1&#45;&gt;Node2 -->
<g id="edge1" class="edge">
<title>Node1&#45;&gt;Node2</title>
<path fill="none" stroke="midnightblue" d="M219.81,-660.22C213.09,-652.47 202.87,-640.7 194.61,-631.18"/>
<polygon fill="midnightblue" stroke="midnightblue" points="197.18,-628.81 187.99,-623.55 191.9,-633.4 197.18,-628.81"/>
</g>
<!-- Node32 -->
<g id="node32" class="node">
<title>Node32</title>
<g id="a_node32"><a xlink:href="../../dc/d65/txstack_8h.html" target="_top" xlink:title=" ">
<polygon fill="white" stroke="black" points="294.27,-605.5 294.27,-623.5 349.73,-623.5 349.73,-605.5 294.27,-605.5"/>
<text text-anchor="middle" x="322" y="-611.5" font-family="Helvetica,sans-Serif" font-size="10.00">txstack.h</text>
</a>
</g>
</g>
<!-- Node1&#45;&gt;Node32 -->
<g id="edge40" class="edge">
<title>Node1&#45;&gt;Node32</title>
<path fill="none" stroke="midnightblue" d="M241.43,-660.45C256.49,-652.05 280.37,-638.72 298.23,-628.76"/>
<polygon fill="midnightblue" stroke="midnightblue" points="300.41,-631.55 307.44,-623.63 297,-625.44 300.41,-631.55"/>
</g>
<!-- Node3 -->
<g id="node3" class="node">
<title>Node3</title>
<g id="a_node3"><a xlink:href="../../d4/de9/_main_class_8h.html" target="_top" xlink:title=" ">
<polygon fill="white" stroke="black" points="180.04,-550.5 180.04,-568.5 279.96,-568.5 279.96,-550.5 180.04,-550.5"/>
<text text-anchor="middle" x="230" y="-556.5" font-family="Helvetica,sans-Serif" font-size="10.00">tralics/MainClass.h</text>
</a>
</g>
</g>
<!-- Node2&#45;&gt;Node3 -->
<g id="edge2" class="edge">
<title>Node2&#45;&gt;Node3</title>
<path fill="none" stroke="midnightblue" d="M188.66,-605.22C195.82,-597.47 206.7,-585.7 215.5,-576.18"/>
<polygon fill="midnightblue" stroke="midnightblue" points="218.34,-578.27 222.56,-568.55 213.2,-573.52 218.34,-578.27"/>
</g>
<!-- Node29 -->
<g id="node29" class="node">
<title>Node29</title>
<g id="a_node29"><a xlink:href="../../d2/d06/txlogger_8h.html" target="_top" xlink:title=" ">
<polygon fill="white" stroke="black" points="24.32,-550.5 24.32,-568.5 83.68,-568.5 83.68,-550.5 24.32,-550.5"/>
<text text-anchor="middle" x="54" y="-556.5" font-family="Helvetica,sans-Serif" font-size="10.00">txlogger.h</text>
</a>
</g>
</g>
<!-- Node2&#45;&gt;Node29 -->
<g id="edge35" class="edge">
<title>Node2&#45;&gt;Node29</title>
<path fill="none" stroke="midnightblue" d="M161.71,-605.45C140.73,-596.7 106.97,-582.61 82.84,-572.53"/>
<polygon fill="midnightblue" stroke="midnightblue" points="84.05,-569.25 73.47,-568.63 81.35,-575.71 84.05,-569.25"/>
</g>
<!-- Node31 -->
<g id="node31" class="node">
<title>Node31</title>
<g id="a_node31"><a xlink:href="../../d5/d08/txparam_8h.html" target="_top" xlink:title=" ">
<polygon fill="white" stroke="black" points="101.77,-550.5 101.77,-568.5 162.23,-568.5 162.23,-550.5 101.77,-550.5"/>
<text text-anchor="middle" x="132" y="-556.5" font-family="Helvetica,sans-Serif" font-size="10.00">txparam.h</text>
</a>
</g>
</g>
<!-- Node2&#45;&gt;Node31 -->
<g id="edge38" class="edge">
<title>Node2&#45;&gt;Node31</title>
<path fill="none" stroke="midnightblue" d="M173.34,-605.22C166.18,-597.47 155.3,-585.7 146.5,-576.18"/>
<polygon fill="midnightblue" stroke="midnightblue" points="148.8,-573.52 139.44,-568.55 143.66,-578.27 148.8,-573.52"/>
</g>
<!-- Node4 -->
<g id="node4" class="node">
<title>Node4</title>
<g id="a_node4"><a xlink:href="../../de/d29/txio_8h.html" target="_top" xlink:title=" ">
<polygon fill="white" stroke="black" points="142.88,-495.5 142.88,-513.5 191.12,-513.5 191.12,-495.5 142.88,-495.5"/>
<text text-anchor="middle" x="167" y="-501.5" font-family="Helvetica,sans-Serif" font-size="10.00">../txio.h</text>
</a>
</g>
</g>
<!-- Node3&#45;&gt;Node4 -->
<g id="edge3" class="edge">
<title>Node3&#45;&gt;Node4</title>
<path fill="none" stroke="midnightblue" d="M220.43,-550.45C210.9,-542.43 196.06,-529.95 184.43,-520.17"/>
<polygon fill="midnightblue" stroke="midnightblue" points="186.56,-517.38 176.66,-513.63 182.06,-522.74 186.56,-517.38"/>
</g>
<!-- Node28 -->
<g id="node28" class="node">
<title>Node28</title>
<g id="a_node28"><a xlink:href="../../dc/def/txstring_8h.html" target="_top" xlink:title=" ">
<polygon fill="white" stroke="black" points="209.55,-495.5 209.55,-513.5 274.45,-513.5 274.45,-495.5 209.55,-495.5"/>
<text text-anchor="middle" x="242" y="-501.5" font-family="Helvetica,sans-Serif" font-size="10.00">../txstring.h</text>
</a>
</g>
</g>
<!-- Node3&#45;&gt;Node28 -->
<g id="edge33" class="edge">
<title>Node3&#45;&gt;Node28</title>
<path fill="none" stroke="midnightblue" d="M231.88,-550.22C233.49,-543.1 235.87,-532.58 237.92,-523.53"/>
<polygon fill="midnightblue" stroke="midnightblue" points="241.38,-524.08 240.18,-513.55 234.56,-522.53 241.38,-524.08"/>
</g>
<!-- Node5 -->
<g id="node5" class="node">
<title>Node5</title>
<g id="a_node5"><a xlink:href="../../dd/d74/txbuffer_8h.html" target="_top" xlink:title=" ">
<polygon fill="white" stroke="black" points="175.52,-440.5 175.52,-458.5 232.48,-458.5 232.48,-440.5 175.52,-440.5"/>
<text text-anchor="middle" x="204" y="-446.5" font-family="Helvetica,sans-Serif" font-size="10.00">txbuffer.h</text>
</a>
</g>
</g>
<!-- Node4&#45;&gt;Node5 -->
<g id="edge4" class="edge">
<title>Node4&#45;&gt;Node5</title>
<path fill="none" stroke="midnightblue" d="M172.78,-495.22C178.08,-487.63 186.08,-476.18 192.65,-466.76"/>
<polygon fill="midnightblue" stroke="midnightblue" points="195.53,-468.75 198.38,-458.55 189.79,-464.75 195.53,-468.75"/>
</g>
<!-- Node27 -->
<g id="node27" class="node">
<title>Node27</title>
<g id="a_node27"><a xlink:title=" ">
<polygon fill="white" stroke="#bfbfbf" points="82.33,-440.5 82.33,-458.5 131.67,-458.5 131.67,-440.5 82.33,-440.5"/>
<text text-anchor="middle" x="107" y="-446.5" font-family="Helvetica,sans-Serif" font-size="10.00">fstream</text>
</a>
</g>
</g>
<!-- Node4&#45;&gt;Node27 -->
<g id="edge32" class="edge">
<title>Node4&#45;&gt;Node27</title>
<path fill="none" stroke="midnightblue" d="M157.89,-495.45C148.9,-487.51 134.95,-475.19 123.93,-465.45"/>
<polygon fill="midnightblue" stroke="midnightblue" points="126.01,-462.62 116.2,-458.63 121.38,-467.87 126.01,-462.62"/>
</g>
<!-- Node6 -->
<g id="node6" class="node">
<title>Node6</title>
<g id="a_node6"><a xlink:href="../../d1/d9e/txid_8h.html" target="_top" xlink:title=" ">
<polygon fill="white" stroke="black" points="197.05,-330.5 197.05,-348.5 236.95,-348.5 236.95,-330.5 197.05,-330.5"/>
<text text-anchor="middle" x="217" y="-336.5" font-family="Helvetica,sans-Serif" font-size="10.00">txid.h</text>
</a>
</g>
</g>
<!-- Node5&#45;&gt;Node6 -->
<g id="edge5" class="edge">
<title>Node5&#45;&gt;Node6</title>
<path fill="none" stroke="midnightblue" d="M204.98,-440.38C207.05,-423.18 211.92,-382.7 214.79,-358.89"/>
<polygon fill="midnightblue" stroke="midnightblue" points="218.29,-359.06 216.01,-348.71 211.34,-358.22 218.29,-359.06"/>
</g>
<!-- Node16 -->
<g id="node16" class="node">
<title>Node16</title>
<g id="a_node16"><a xlink:href="../../d9/d18/txscaled_8h.html" target="_top" xlink:title=" ">
<polygon fill="white" stroke="black" points="114.49,-385.5 114.49,-403.5 175.51,-403.5 175.51,-385.5 114.49,-385.5"/>
<text text-anchor="middle" x="145" y="-391.5" font-family="Helvetica,sans-Serif" font-size="10.00">txscaled.h</text>
</a>
</g>
</g>
<!-- Node5&#45;&gt;Node16 -->
<g id="edge15" class="edge">
<title>Node5&#45;&gt;Node16</title>
<path fill="none" stroke="midnightblue" d="M195.04,-440.45C186.2,-432.51 172.48,-420.19 161.64,-410.45"/>
<polygon fill="midnightblue" stroke="midnightblue" points="163.82,-407.7 154.05,-403.63 159.15,-412.91 163.82,-407.7"/>
</g>
<!-- Node22 -->
<g id="node22" class="node">
<title>Node22</title>
<g id="a_node22"><a xlink:title=" ">
<polygon fill="white" stroke="#bfbfbf" points="7.49,-110.5 7.49,-128.5 58.51,-128.5 58.51,-110.5 7.49,-110.5"/>
<text text-anchor="middle" x="33" y="-116.5" font-family="Helvetica,sans-Serif" font-size="10.00">optional</text>
</a>
</g>
</g>
<!-- Node5&#45;&gt;Node22 -->
<g id="edge30" class="edge">
<title>Node5&#45;&gt;Node22</title>
<path fill="none" stroke="midnightblue" d="M177.33,-440.49C122.03,-423.08 0,-380.17 0,-340.5 0,-340.5 0,-340.5 0,-228.5 0,-195.29 14.45,-158.75 24.22,-137.82"/>
<polygon fill="midnightblue" stroke="midnightblue" points="27.46,-139.17 28.69,-128.64 21.17,-136.1 27.46,-139.17"/>
</g>
<!-- Node25 -->
<g id="node25" class="node">
<title>Node25</title>
<g id="a_node25"><a xlink:title=" ">
<polygon fill="white" stroke="#bfbfbf" points="232.27,-385.5 232.27,-403.5 277.73,-403.5 277.73,-385.5 232.27,-385.5"/>
<text text-anchor="middle" x="255" y="-391.5" font-family="Helvetica,sans-Serif" font-size="10.00">cstring</text>
</a>
</g>
</g>
<!-- Node5&#45;&gt;Node25 -->
<g id="edge29" class="edge">
<title>Node5&#45;&gt;Node25</title>
<path fill="none" stroke="midnightblue" d="M211.97,-440.22C219.5,-432.39 230.98,-420.46 240.19,-410.89"/>
<polygon fill="midnightblue" stroke="midnightblue" points="242.84,-413.18 247.25,-403.55 237.8,-408.33 242.84,-413.18"/>
</g>
<!-- Node26 -->
<g id="node26" class="node">
<title>Node26</title>
<g id="a_node26"><a xlink:title=" ">
<polygon fill="white" stroke="#bfbfbf" points="295.38,-385.5 295.38,-403.5 338.62,-403.5 338.62,-385.5 295.38,-385.5"/>
<text text-anchor="middle" x="317" y="-391.5" font-family="Helvetica,sans-Serif" font-size="10.00">vector</text>
</a>
</g>
</g>
<!-- Node5&#45;&gt;Node26 -->
<g id="edge31" class="edge">
<title>Node5&#45;&gt;Node26</title>
<path fill="none" stroke="midnightblue" d="M221.16,-440.45C239.58,-431.81 269.07,-417.98 290.48,-407.94"/>
<polygon fill="midnightblue" stroke="midnightblue" points="292.11,-411.04 299.68,-403.63 289.14,-404.7 292.11,-411.04"/>
</g>
<!-- Node7 -->
<g id="node7" class="node">
<title>Node7</title>
<g id="a_node7"><a xlink:href="../../dc/de8/txvars_8h.html" target="_top" xlink:title=" ">
<polygon fill="white" stroke="black" points="182.5,-275.5 182.5,-293.5 233.5,-293.5 233.5,-275.5 182.5,-275.5"/>
<text text-anchor="middle" x="208" y="-281.5" font-family="Helvetica,sans-Serif" font-size="10.00">txvars.h</text>
</a>
</g>
</g>
<!-- Node6&#45;&gt;Node7 -->
<g id="edge6" class="edge">
<title>Node6&#45;&gt;Node7</title>
<path fill="none" stroke="midnightblue" d="M215.59,-330.22C214.38,-323.1 212.6,-312.58 211.06,-303.53"/>
<polygon fill="midnightblue" stroke="midnightblue" points="214.49,-302.82 209.37,-293.55 207.59,-303.99 214.49,-302.82"/>
</g>
<!-- Node15 -->
<g id="node15" class="node">
<title>Node15</title>
<g id="a_node15"><a xlink:title=" ">
<polygon fill="white" stroke="#bfbfbf" points="322.77,-220.5 322.77,-238.5 363.23,-238.5 363.23,-220.5 322.77,-220.5"/>
<text text-anchor="middle" x="343" y="-226.5" font-family="Helvetica,sans-Serif" font-size="10.00">string</text>
</a>
</g>
</g>
<!-- Node6&#45;&gt;Node15 -->
<g id="edge14" class="edge">
<title>Node6&#45;&gt;Node15</title>
<path fill="none" stroke="midnightblue" d="M237.37,-337.83C265.89,-335.67 316.92,-327.11 341,-294 350.33,-281.18 349.81,-262.73 347.56,-249.02"/>
<polygon fill="midnightblue" stroke="midnightblue" points="350.91,-247.93 345.45,-238.85 344.06,-249.35 350.91,-247.93"/>
</g>
<!-- Node8 -->
<g id="node8" class="node">
<title>Node8</title>
<g id="a_node8"><a xlink:href="../../d0/d0b/enums_8h.html" target="_top" xlink:title=" ">
<polygon fill="white" stroke="black" points="150.38,-165.5 150.38,-183.5 233.62,-183.5 233.62,-165.5 150.38,-165.5"/>
<text text-anchor="middle" x="192" y="-171.5" font-family="Helvetica,sans-Serif" font-size="10.00">tralics/enums.h</text>
</a>
</g>
</g>
<!-- Node7&#45;&gt;Node8 -->
<g id="edge7" class="edge">
<title>Node7&#45;&gt;Node8</title>
<path fill="none" stroke="midnightblue" d="M208.9,-275.2C210.02,-263 211.41,-239.55 208,-220 206.41,-210.89 203.12,-201.18 199.94,-193.16"/>
<polygon fill="midnightblue" stroke="midnightblue" points="203.09,-191.63 195.96,-183.79 196.65,-194.37 203.09,-191.63"/>
</g>
<!-- Node14 -->
<g id="node14" class="node">
<title>Node14</title>
<g id="a_node14"><a xlink:title=" ">
<polygon fill="white" stroke="#bfbfbf" points="160.61,-220.5 160.61,-238.5 199.39,-238.5 199.39,-220.5 160.61,-220.5"/>
<text text-anchor="middle" x="180" y="-226.5" font-family="Helvetica,sans-Serif" font-size="10.00">array</text>
</a>
</g>
</g>
<!-- Node7&#45;&gt;Node14 -->
<g id="edge13" class="edge">
<title>Node7&#45;&gt;Node14</title>
<path fill="none" stroke="midnightblue" d="M203.62,-275.22C199.74,-267.86 193.94,-256.88 189.05,-247.64"/>
<polygon fill="midnightblue" stroke="midnightblue" points="192.02,-245.76 184.25,-238.55 185.83,-249.03 192.02,-245.76"/>
</g>
<!-- Node9 -->
<g id="node9" class="node">
<title>Node9</title>
<g id="a_node9"><a xlink:href="../../d8/db5/consts_8h.html" target="_top" xlink:title=" ">
<polygon fill="white" stroke="black" points="138.38,-110.5 138.38,-128.5 191.62,-128.5 191.62,-110.5 138.38,-110.5"/>
<text text-anchor="middle" x="165" y="-116.5" font-family="Helvetica,sans-Serif" font-size="10.00">consts.h</text>
</a>
</g>
</g>
<!-- Node8&#45;&gt;Node9 -->
<g id="edge8" class="edge">
<title>Node8&#45;&gt;Node9</title>
<path fill="none" stroke="midnightblue" d="M187.78,-165.22C184.03,-157.86 178.44,-146.88 173.73,-137.64"/>
<polygon fill="midnightblue" stroke="midnightblue" points="176.76,-135.87 169.1,-128.55 170.52,-139.05 176.76,-135.87"/>
</g>
<!-- Node10 -->
<g id="node10" class="node">
<title>Node10</title>
<g id="a_node10"><a xlink:href="../../d9/d49/types_8h.html" target="_top" xlink:title=" ">
<polygon fill="white" stroke="black" points="103.88,-55.5 103.88,-73.5 152.12,-73.5 152.12,-55.5 103.88,-55.5"/>
<text text-anchor="middle" x="128" y="-61.5" font-family="Helvetica,sans-Serif" font-size="10.00">types.h</text>
</a>
</g>
</g>
<!-- Node9&#45;&gt;Node10 -->
<g id="edge9" class="edge">
<title>Node9&#45;&gt;Node10</title>
<path fill="none" stroke="midnightblue" d="M159.22,-110.22C153.92,-102.63 145.92,-91.18 139.35,-81.76"/>
<polygon fill="midnightblue" stroke="midnightblue" points="142.21,-79.75 133.62,-73.55 136.47,-83.75 142.21,-79.75"/>
</g>
<!-- Node11 -->
<g id="node11" class="node">
<title>Node11</title>
<g id="a_node11"><a xlink:title=" ">
<polygon fill="white" stroke="#bfbfbf" points="35.88,-0.5 35.88,-18.5 84.12,-18.5 84.12,-0.5 35.88,-0.5"/>
<text text-anchor="middle" x="60" y="-6.5" font-family="Helvetica,sans-Serif" font-size="10.00">cassert</text>
</a>
</g>
</g>
<!-- Node10&#45;&gt;Node11 -->
<g id="edge10" class="edge">
<title>Node10&#45;&gt;Node11</title>
<path fill="none" stroke="midnightblue" d="M117.67,-55.45C107.29,-47.36 91.05,-34.7 78.45,-24.88"/>
<polygon fill="midnightblue" stroke="midnightblue" points="80.46,-22.01 70.42,-18.63 76.16,-27.53 80.46,-22.01"/>
</g>
<!-- Node12 -->
<g id="node12" class="node">
<title>Node12</title>
<g id="a_node12"><a xlink:title=" ">
<polygon fill="white" stroke="#bfbfbf" points="102.21,-0.5 102.21,-18.5 153.79,-18.5 153.79,-0.5 102.21,-0.5"/>
<text text-anchor="middle" x="128" y="-6.5" font-family="Helvetica,sans-Serif" font-size="10.00">stddef.h</text>
</a>
</g>
</g>
<!-- Node10&#45;&gt;Node12 -->
<g id="edge11" class="edge">
<title>Node10&#45;&gt;Node12</title>
<path fill="none" stroke="midnightblue" d="M128,-55.22C128,-48.18 128,-37.81 128,-28.83"/>
<polygon fill="midnightblue" stroke="midnightblue" points="131.5,-28.55 128,-18.55 124.5,-28.55 131.5,-28.55"/>
</g>
<!-- Node13 -->
<g id="node13" class="node">
<title>Node13</title>
<g id="a_node13"><a xlink:title=" ">
<polygon fill="white" stroke="#bfbfbf" points="171.93,-0.5 171.93,-18.5 234.07,-18.5 234.07,-0.5 171.93,-0.5"/>
<text text-anchor="middle" x="203" y="-6.5" font-family="Helvetica,sans-Serif" font-size="10.00">type_traits</text>
</a>
</g>
</g>
<!-- Node10&#45;&gt;Node13 -->
<g id="edge12" class="edge">
<title>Node10&#45;&gt;Node13</title>
<path fill="none" stroke="midnightblue" d="M139.39,-55.45C150.95,-47.28 169.09,-34.46 183.05,-24.6"/>
<polygon fill="midnightblue" stroke="midnightblue" points="185.36,-27.25 191.5,-18.63 181.32,-21.54 185.36,-27.25"/>
</g>
<!-- Node17 -->
<g id="node17" class="node">
<title>Node17</title>
<g id="a_node17"><a xlink:href="../../dc/d91/txtokenlist_8h.html" target="_top" xlink:title=" ">
<polygon fill="white" stroke="black" points="110.6,-330.5 110.6,-348.5 179.4,-348.5 179.4,-330.5 110.6,-330.5"/>
<text text-anchor="middle" x="145" y="-336.5" font-family="Helvetica,sans-Serif" font-size="10.00">txtokenlist.h</text>
</a>
</g>
</g>
<!-- Node16&#45;&gt;Node17 -->
<g id="edge16" class="edge">
<title>Node16&#45;&gt;Node17</title>
<path fill="none" stroke="midnightblue" d="M145,-385.22C145,-378.18 145,-367.81 145,-358.83"/>
<polygon fill="midnightblue" stroke="midnightblue" points="148.5,-358.55 145,-348.55 141.5,-358.55 148.5,-358.55"/>
</g>
<!-- Node17&#45;&gt;Node7 -->
<g id="edge27" class="edge">
<title>Node17&#45;&gt;Node7</title>
<path fill="none" stroke="midnightblue" d="M154.57,-330.45C164.1,-322.43 178.94,-309.95 190.57,-300.17"/>
<polygon fill="midnightblue" stroke="midnightblue" points="192.94,-302.74 198.34,-293.63 188.44,-297.38 192.94,-302.74"/>
</g>
<!-- Node18 -->
<g id="node18" class="node">
<title>Node18</title>
<g id="a_node18"><a xlink:href="../../d5/daf/_istring_8h.html" target="_top" xlink:title=" ">
<polygon fill="white" stroke="black" points="251.77,-275.5 251.77,-293.5 332.23,-293.5 332.23,-275.5 251.77,-275.5"/>
<text text-anchor="middle" x="292" y="-281.5" font-family="Helvetica,sans-Serif" font-size="10.00">tralics/Istring.h</text>
</a>
</g>
</g>
<!-- Node17&#45;&gt;Node18 -->
<g id="edge17" class="edge">
<title>Node17&#45;&gt;Node18</title>
<path fill="none" stroke="midnightblue" d="M167.33,-330.45C191.93,-321.58 231.73,-307.23 259.73,-297.13"/>
<polygon fill="midnightblue" stroke="midnightblue" points="261.24,-300.31 269.46,-293.63 258.87,-293.72 261.24,-300.31"/>
</g>
<!-- Node19 -->
<g id="node19" class="node">
<title>Node19</title>
<g id="a_node19"><a xlink:href="../../dd/dcd/_token_8h.html" target="_top" xlink:title=" ">
<polygon fill="white" stroke="black" points="28.04,-275.5 28.04,-293.5 107.96,-293.5 107.96,-275.5 28.04,-275.5"/>
<text text-anchor="middle" x="68" y="-281.5" font-family="Helvetica,sans-Serif" font-size="10.00">tralics/Token.h</text>
</a>
</g>
</g>
<!-- Node17&#45;&gt;Node19 -->
<g id="edge20" class="edge">
<title>Node17&#45;&gt;Node19</title>
<path fill="none" stroke="midnightblue" d="M133.31,-330.45C121.32,-322.2 102.46,-309.22 88.08,-299.32"/>
<polygon fill="midnightblue" stroke="midnightblue" points="90.03,-296.41 79.8,-293.63 86.06,-302.18 90.03,-296.41"/>
</g>
<!-- Node24 -->
<g id="node24" class="node">
<title>Node24</title>
<g id="a_node24"><a xlink:title=" ">
<polygon fill="white" stroke="#bfbfbf" points="125.61,-275.5 125.61,-293.5 164.39,-293.5 164.39,-275.5 125.61,-275.5"/>
<text text-anchor="middle" x="145" y="-281.5" font-family="Helvetica,sans-Serif" font-size="10.00">utility</text>
</a>
</g>
</g>
<!-- Node17&#45;&gt;Node24 -->
<g id="edge28" class="edge">
<title>Node17&#45;&gt;Node24</title>
<path fill="none" stroke="midnightblue" d="M145,-330.22C145,-323.18 145,-312.81 145,-303.83"/>
<polygon fill="midnightblue" stroke="midnightblue" points="148.5,-303.55 145,-293.55 141.5,-303.55 148.5,-303.55"/>
</g>
<!-- Node18&#45;&gt;Node8 -->
<g id="edge18" class="edge">
<title>Node18&#45;&gt;Node8</title>
<path fill="none" stroke="midnightblue" d="M284.48,-275.38C267.91,-257.48 227.97,-214.35 206.4,-191.05"/>
<polygon fill="midnightblue" stroke="midnightblue" points="208.97,-188.67 199.6,-183.71 203.83,-193.43 208.97,-188.67"/>
</g>
<!-- Node18&#45;&gt;Node15 -->
<g id="edge19" class="edge">
<title>Node18&#45;&gt;Node15</title>
<path fill="none" stroke="midnightblue" d="M299.97,-275.22C307.5,-267.39 318.98,-255.46 328.19,-245.89"/>
<polygon fill="midnightblue" stroke="midnightblue" points="330.84,-248.18 335.25,-238.55 325.8,-243.33 330.84,-248.18"/>
</g>
<!-- Node20 -->
<g id="node20" class="node">
<title>Node20</title>
<g id="a_node20"><a xlink:href="../../d2/d68/_cmd_chr_8h.html" target="_top" xlink:title=" ">
<polygon fill="white" stroke="black" points="34.49,-220.5 34.49,-238.5 95.51,-238.5 95.51,-220.5 34.49,-220.5"/>
<text text-anchor="middle" x="65" y="-226.5" font-family="Helvetica,sans-Serif" font-size="10.00">CmdChr.h</text>
</a>
</g>
</g>
<!-- Node19&#45;&gt;Node20 -->
<g id="edge21" class="edge">
<title>Node19&#45;&gt;Node20</title>
<path fill="none" stroke="midnightblue" d="M67.53,-275.22C67.13,-268.18 66.55,-257.81 66.04,-248.83"/>
<polygon fill="midnightblue" stroke="midnightblue" points="69.52,-248.34 65.46,-238.55 62.53,-248.73 69.52,-248.34"/>
</g>
<!-- Node23 -->
<g id="node23" class="node">
<title>Node23</title>
<g id="a_node23"><a xlink:title=" ">
<polygon fill="white" stroke="#bfbfbf" points="113.5,-220.5 113.5,-238.5 142.5,-238.5 142.5,-220.5 113.5,-220.5"/>
<text text-anchor="middle" x="127.61" y="-226.5" font-family="Helvetica,sans-Serif" font-size="10.00">list</text>
</a>
</g>
</g>
<!-- Node19&#45;&gt;Node23 -->
<g id="edge26" class="edge">
<title>Node19&#45;&gt;Node23</title>
<path fill="none" stroke="midnightblue" d="M77.11,-275.45C86.1,-267.51 100.05,-255.19 111.07,-245.45"/>
<polygon fill="midnightblue" stroke="midnightblue" points="113.62,-247.87 118.8,-238.63 108.99,-242.62 113.62,-247.87"/>
</g>
<!-- Node20&#45;&gt;Node8 -->
<g id="edge25" class="edge">
<title>Node20&#45;&gt;Node8</title>
<path fill="none" stroke="midnightblue" d="M84.29,-220.45C105.27,-211.7 139.03,-197.61 163.16,-187.53"/>
<polygon fill="midnightblue" stroke="midnightblue" points="164.65,-190.71 172.53,-183.63 161.95,-184.25 164.65,-190.71"/>
</g>
<!-- Node21 -->
<g id="node21" class="node">
<title>Node21</title>
<g id="a_node21"><a xlink:href="../../d8/d47/codepoint_8h.html" target="_top" xlink:title=" ">
<polygon fill="white" stroke="black" points="31.15,-165.5 31.15,-183.5 98.85,-183.5 98.85,-165.5 31.15,-165.5"/>
<text text-anchor="middle" x="65" y="-171.5" font-family="Helvetica,sans-Serif" font-size="10.00">codepoint.h</text>
</a>
</g>
</g>
<!-- Node20&#45;&gt;Node21 -->
<g id="edge22" class="edge">
<title>Node20&#45;&gt;Node21</title>
<path fill="none" stroke="midnightblue" d="M65,-220.22C65,-213.18 65,-202.81 65,-193.83"/>
<polygon fill="midnightblue" stroke="midnightblue" points="68.5,-193.55 65,-183.55 61.5,-193.55 68.5,-193.55"/>
</g>
<!-- Node21&#45;&gt;Node10 -->
<g id="edge23" class="edge">
<title>Node21&#45;&gt;Node10</title>
<path fill="none" stroke="midnightblue" d="M69.74,-165.38C79.95,-147.87 104.25,-106.22 118.02,-82.6"/>
<polygon fill="midnightblue" stroke="midnightblue" points="121.19,-84.11 123.21,-73.71 115.15,-80.59 121.19,-84.11"/>
</g>
<!-- Node21&#45;&gt;Node22 -->
<g id="edge24" class="edge">
<title>Node21&#45;&gt;Node22</title>
<path fill="none" stroke="midnightblue" d="M60,-165.22C55.51,-157.79 48.79,-146.65 43.17,-137.34"/>
<polygon fill="midnightblue" stroke="midnightblue" points="46.03,-135.3 37.86,-128.55 40.03,-138.92 46.03,-135.3"/>
</g>
<!-- Node28&#45;&gt;Node5 -->
<g id="edge34" class="edge">
<title>Node28&#45;&gt;Node5</title>
<path fill="none" stroke="midnightblue" d="M236.06,-495.22C230.62,-487.63 222.41,-476.18 215.66,-466.76"/>
<polygon fill="midnightblue" stroke="midnightblue" points="218.44,-464.64 209.77,-458.55 212.75,-468.72 218.44,-464.64"/>
</g>
<!-- Node29&#45;&gt;Node27 -->
<g id="edge36" class="edge">
<title>Node29&#45;&gt;Node27</title>
<path fill="none" stroke="midnightblue" d="M53.38,-550.2C52.79,-537.58 53.06,-513.14 62,-495 67.8,-483.23 77.99,-472.76 87.2,-464.93"/>
<polygon fill="midnightblue" stroke="midnightblue" points="89.6,-467.5 95.24,-458.53 85.23,-462.02 89.6,-467.5"/>
</g>
<!-- Node30 -->
<g id="node30" class="node">
<title>Node30</title>
<g id="a_node30"><a xlink:title=" ">
<polygon fill="white" stroke="#bfbfbf" points="70.83,-495.5 70.83,-513.5 125.17,-513.5 125.17,-495.5 70.83,-495.5"/>
<text text-anchor="middle" x="98" y="-501.5" font-family="Helvetica,sans-Serif" font-size="10.00">iostream</text>
</a>
</g>
</g>
<!-- Node29&#45;&gt;Node30 -->
<g id="edge37" class="edge">
<title>Node29&#45;&gt;Node30</title>
<path fill="none" stroke="midnightblue" d="M60.88,-550.22C67.24,-542.55 76.88,-530.94 84.74,-521.47"/>
<polygon fill="midnightblue" stroke="midnightblue" points="87.62,-523.48 91.32,-513.55 82.24,-519.01 87.62,-523.48"/>
</g>
<!-- Node31&#45;&gt;Node4 -->
<g id="edge39" class="edge">
<title>Node31&#45;&gt;Node4</title>
<path fill="none" stroke="midnightblue" d="M137.47,-550.22C142.43,-542.71 149.89,-531.41 156.07,-522.05"/>
<polygon fill="midnightblue" stroke="midnightblue" points="159.09,-523.82 161.68,-513.55 153.25,-519.97 159.09,-523.82"/>
</g>
<!-- Node33 -->
<g id="node33" class="node">
<title>Node33</title>
<g id="a_node33"><a xlink:href="../../d4/da4/txatt_8h.html" target="_top" xlink:title=" ">
<polygon fill="white" stroke="black" points="363.38,-550.5 363.38,-568.5 406.62,-568.5 406.62,-550.5 363.38,-550.5"/>
<text text-anchor="middle" x="385" y="-556.5" font-family="Helvetica,sans-Serif" font-size="10.00">txatt.h</text>
</a>
</g>
</g>
<!-- Node32&#45;&gt;Node33 -->
<g id="edge41" class="edge">
<title>Node32&#45;&gt;Node33</title>
<path fill="none" stroke="midnightblue" d="M331.57,-605.45C341.1,-597.43 355.94,-584.95 367.57,-575.17"/>
<polygon fill="midnightblue" stroke="midnightblue" points="369.94,-577.74 375.34,-568.63 365.44,-572.38 369.94,-577.74"/>
</g>
<!-- Node34 -->
<g id="node34" class="node">
<title>Node34</title>
<g id="a_node34"><a xlink:href="../../d1/d43/txxml_8h.html" target="_top" xlink:title=" ">
<polygon fill="white" stroke="black" points="298.17,-550.5 298.17,-568.5 345.83,-568.5 345.83,-550.5 298.17,-550.5"/>
<text text-anchor="middle" x="322" y="-556.5" font-family="Helvetica,sans-Serif" font-size="10.00">txxml.h</text>
</a>
</g>
</g>
<!-- Node32&#45;&gt;Node34 -->
<g id="edge43" class="edge">
<title>Node32&#45;&gt;Node34</title>
<path fill="none" stroke="midnightblue" d="M322,-605.22C322,-598.18 322,-587.81 322,-578.83"/>
<polygon fill="midnightblue" stroke="midnightblue" points="325.5,-578.55 322,-568.55 318.5,-578.55 325.5,-578.55"/>
</g>
<!-- Node33&#45;&gt;Node28 -->
<g id="edge42" class="edge">
<title>Node33&#45;&gt;Node28</title>
<path fill="none" stroke="midnightblue" d="M363.28,-550.45C339.34,-541.58 300.63,-527.23 273.39,-517.13"/>
<polygon fill="midnightblue" stroke="midnightblue" points="274.52,-513.82 263.92,-513.63 272.08,-520.38 274.52,-513.82"/>
</g>
</g>
</svg>
