<?xml version="1.0" encoding="UTF-8" standalone="no"?>
<!DOCTYPE svg PUBLIC "-//W3C//DTD SVG 1.1//EN"
 "http://www.w3.org/Graphics/SVG/1.1/DTD/svg11.dtd">
<!-- Generated by graphviz version 2.43.0 (0)
 -->
<!-- Title: LatexPackage Pages: 1 -->
<svg width="330pt" height="187pt"
 viewBox="0.00 0.00 329.78 187.00" xmlns="http://www.w3.org/2000/svg" xmlns:xlink="http://www.w3.org/1999/xlink">
<g id="graph0" class="graph" transform="scale(1 1) rotate(0) translate(4 183)">
<title>LatexPackage</title>
<polygon fill="white" stroke="transparent" points="-4,4 -4,-183 325.78,-183 325.78,4 -4,4"/>
<!-- Node1 -->
<g id="node1" class="node">
<title>Node1</title>
<g id="a_node1"><a xlink:title=" ">
<polygon fill="#bfbfbf" stroke="black" points="136.36,-0.5 136.36,-18.5 215.74,-18.5 215.74,-0.5 136.36,-0.5"/>
<text text-anchor="middle" x="176.05" y="-6.5" font-family="Helvetica,sans-Serif" font-size="10.00">LatexPackage</text>
</a>
</g>
</g>
<!-- Node2 -->
<g id="node2" class="node">
<title>Node2</title>
<g id="a_node2"><a xlink:title=" ">
<polygon fill="white" stroke="#bfbfbf" points="0,-85.5 0,-103.5 128.1,-103.5 128.1,-85.5 0,-85.5"/>
<text text-anchor="middle" x="64.05" y="-91.5" font-family="Helvetica,sans-Serif" font-size="10.00">std::vector&lt; KeyAndVal &gt;</text>
</a>
</g>
</g>
<!-- Node2&#45;&gt;Node1 -->
<g id="edge1" class="edge">
<title>Node2&#45;&gt;Node1</title>
<path fill="none" stroke="#9a32cd" stroke-dasharray="5,2" d="M80.1,-78.2C92.99,-66.28 111.86,-49.68 129.81,-37 139.48,-30.17 151.04,-23.54 160.18,-18.62"/>
<polygon fill="#9a32cd" stroke="#9a32cd" points="77.45,-75.87 72.55,-85.27 82.24,-80.98 77.45,-75.87"/>
<text text-anchor="middle" x="151.18" y="-54" font-family="Helvetica,sans-Serif" font-size="10.00"> Uoptions</text>
<text text-anchor="middle" x="151.18" y="-44" font-family="Helvetica,sans-Serif" font-size="10.00">Poptions</text>
</g>
<!-- Node3 -->
<g id="node3" class="node">
<title>Node3</title>
<g id="a_node3"><a xlink:href="../../d9/de8/class_key_and_val.html" target="_top" xlink:title=" ">
<polygon fill="white" stroke="black" points="31.68,-155.5 31.68,-173.5 96.42,-173.5 96.42,-155.5 31.68,-155.5"/>
<text text-anchor="middle" x="64.05" y="-161.5" font-family="Helvetica,sans-Serif" font-size="10.00">KeyAndVal</text>
</a>
</g>
</g>
<!-- Node3&#45;&gt;Node2 -->
<g id="edge2" class="edge">
<title>Node3&#45;&gt;Node2</title>
<path fill="none" stroke="#9a32cd" stroke-dasharray="5,2" d="M64.05,-145.3C64.05,-131.7 64.05,-113.78 64.05,-103.56"/>
<polygon fill="#9a32cd" stroke="#9a32cd" points="60.55,-145.43 64.05,-155.43 67.55,-145.43 60.55,-145.43"/>
<text text-anchor="middle" x="85.73" y="-124" font-family="Helvetica,sans-Serif" font-size="10.00"> elements</text>
</g>
<!-- Node4 -->
<g id="node4" class="node">
<title>Node4</title>
<g id="a_node4"><a xlink:title="STL class.">
<polygon fill="white" stroke="#bfbfbf" points="146.38,-85.5 146.38,-103.5 205.73,-103.5 205.73,-85.5 146.38,-85.5"/>
<text text-anchor="middle" x="176.05" y="-91.5" font-family="Helvetica,sans-Serif" font-size="10.00">std::string</text>
</a>
</g>
</g>
<!-- Node4&#45;&gt;Node1 -->
<g id="edge3" class="edge">
<title>Node4&#45;&gt;Node1</title>
<path fill="none" stroke="#9a32cd" stroke-dasharray="5,2" d="M176.05,-75.06C176.05,-57.46 176.05,-31.76 176.05,-18.73"/>
<polygon fill="#9a32cd" stroke="#9a32cd" points="172.55,-75.24 176.05,-85.24 179.55,-75.24 172.55,-75.24"/>
<text text-anchor="middle" x="197.18" y="-59" font-family="Helvetica,sans-Serif" font-size="10.00"> req_date</text>
<text text-anchor="middle" x="197.18" y="-49" font-family="Helvetica,sans-Serif" font-size="10.00">name</text>
<text text-anchor="middle" x="197.18" y="-39" font-family="Helvetica,sans-Serif" font-size="10.00">date</text>
</g>
<!-- Node5 -->
<g id="node5" class="node">
<title>Node5</title>
<g id="a_node5"><a xlink:title="STL class.">
<polygon fill="white" stroke="#bfbfbf" points="129,-150.5 129,-178.5 223.1,-178.5 223.1,-150.5 129,-150.5"/>
<text text-anchor="start" x="137" y="-166.5" font-family="Helvetica,sans-Serif" font-size="10.00">std::basic_string&lt;</text>
<text text-anchor="middle" x="176.05" y="-156.5" font-family="Helvetica,sans-Serif" font-size="10.00"> char &gt;</text>
</a>
</g>
</g>
<!-- Node5&#45;&gt;Node4 -->
<g id="edge4" class="edge">
<title>Node5&#45;&gt;Node4</title>
<path fill="none" stroke="midnightblue" d="M176.05,-140.1C176.05,-127.55 176.05,-112.85 176.05,-103.86"/>
<polygon fill="midnightblue" stroke="midnightblue" points="172.55,-140.39 176.05,-150.39 179.55,-140.39 172.55,-140.39"/>
</g>
<!-- Node6 -->
<g id="node6" class="node">
<title>Node6</title>
<g id="a_node6"><a xlink:title=" ">
<polygon fill="white" stroke="#bfbfbf" points="223.62,-85.5 223.62,-103.5 314.48,-103.5 314.48,-85.5 223.62,-85.5"/>
<text text-anchor="middle" x="269.05" y="-91.5" font-family="Helvetica,sans-Serif" font-size="10.00">std::list&lt; Token &gt;</text>
</a>
</g>
</g>
<!-- Node6&#45;&gt;Node1 -->
<g id="edge5" class="edge">
<title>Node6&#45;&gt;Node1</title>
<path fill="none" stroke="#9a32cd" stroke-dasharray="5,2" d="M257.9,-77.17C249.12,-65.1 236.05,-48.79 222.05,-37 213.31,-29.64 202.24,-23.19 193.16,-18.5"/>
<polygon fill="#9a32cd" stroke="#9a32cd" points="255.1,-79.28 263.73,-85.43 260.82,-75.24 255.1,-79.28"/>
<text text-anchor="middle" x="285.91" y="-54" font-family="Helvetica,sans-Serif" font-size="10.00"> default_handler</text>
<text text-anchor="middle" x="285.91" y="-44" font-family="Helvetica,sans-Serif" font-size="10.00">hook</text>
</g>
<!-- Node7 -->
<g id="node7" class="node">
<title>Node7</title>
<g id="a_node7"><a xlink:href="../../d9/d27/struct_token.html" target="_top" xlink:title=" ">
<polygon fill="white" stroke="black" points="247.71,-155.5 247.71,-173.5 290.39,-173.5 290.39,-155.5 247.71,-155.5"/>
<text text-anchor="middle" x="269.05" y="-161.5" font-family="Helvetica,sans-Serif" font-size="10.00">Token</text>
</a>
</g>
</g>
<!-- Node7&#45;&gt;Node6 -->
<g id="edge6" class="edge">
<title>Node7&#45;&gt;Node6</title>
<path fill="none" stroke="#9a32cd" stroke-dasharray="5,2" d="M269.05,-145.3C269.05,-131.7 269.05,-113.78 269.05,-103.56"/>
<polygon fill="#9a32cd" stroke="#9a32cd" points="265.55,-145.43 269.05,-155.43 272.55,-145.43 265.55,-145.43"/>
<text text-anchor="middle" x="290.73" y="-124" font-family="Helvetica,sans-Serif" font-size="10.00"> elements</text>
</g>
</g>
</svg>
