<?xml version="1.0" encoding="UTF-8" standalone="no"?>
<!DOCTYPE svg PUBLIC "-//W3C//DTD SVG 1.1//EN"
 "http://www.w3.org/Graphics/SVG/1.1/DTD/svg11.dtd">
<!-- Generated by graphviz version 2.42.3 (20191010.1750)
 -->
<!-- Title: tralics/Saver.h Pages: 1 -->
<svg width="699pt" height="687pt"
 viewBox="0.00 0.00 699.30 687.00" xmlns="http://www.w3.org/2000/svg" xmlns:xlink="http://www.w3.org/1999/xlink">
<g id="graph0" class="graph" transform="scale(1 1) rotate(0) translate(4 683)">
<title>tralics/Saver.h</title>
<!-- Node1 -->
<g id="node1" class="node">
<title>Node1</title>
<g id="a_node1"><a xlink:title=" ">
<polygon fill="#bfbfbf" stroke="black" points="133.6,-660.5 133.6,-678.5 212.4,-678.5 212.4,-660.5 133.6,-660.5"/>
<text text-anchor="middle" x="173" y="-666.5" font-family="Helvetica,sans-Serif" font-size="10.00">tralics/Saver.h</text>
</a>
</g>
</g>
<!-- Node2 -->
<g id="node2" class="node">
<title>Node2</title>
<g id="a_node2"><a xlink:href="../../d2/d1b/txparser_8h.html" target="_top" xlink:title=" ">
<polygon fill="none" stroke="black" points="339.87,-605.5 339.87,-623.5 408.13,-623.5 408.13,-605.5 339.87,-605.5"/>
<text text-anchor="middle" x="374" y="-611.5" font-family="Helvetica,sans-Serif" font-size="10.00">../txparser.h</text>
</a>
</g>
</g>
<!-- Node1&#45;&gt;Node2 -->
<g id="edge1" class="edge">
<title>Node1&#45;&gt;Node2</title>
<path fill="none" stroke="midnightblue" d="M203.53,-660.45C238.31,-651.28 295.29,-636.26 333.69,-626.13"/>
<polygon fill="midnightblue" stroke="midnightblue" points="334.74,-629.47 343.52,-623.54 332.95,-622.7 334.74,-629.47"/>
</g>
<!-- Node41 -->
<g id="node41" class="node">
<title>Node41</title>
<g id="a_node41"><a xlink:href="../../d5/d87/globals_8h.html" target="_top" xlink:title=" ">
<polygon fill="none" stroke="black" points="44.99,-330.5 44.99,-348.5 101.01,-348.5 101.01,-330.5 44.99,-330.5"/>
<text text-anchor="middle" x="73" y="-336.5" font-family="Helvetica,sans-Serif" font-size="10.00">globals.h</text>
</a>
</g>
</g>
<!-- Node1&#45;&gt;Node41 -->
<g id="edge61" class="edge">
<title>Node1&#45;&gt;Node41</title>
<path fill="none" stroke="midnightblue" d="M133.31,-661.8C82.23,-650.65 0,-622.99 0,-560.5 0,-560.5 0,-560.5 0,-448.5 0,-409.57 32.96,-374.19 54.59,-355.17"/>
<polygon fill="midnightblue" stroke="midnightblue" points="56.85,-357.84 62.23,-348.71 52.33,-352.5 56.85,-357.84"/>
</g>
<!-- Node3 -->
<g id="node3" class="node">
<title>Node3</title>
<g id="a_node3"><a xlink:href="../../d8/dd6/_e_q_t_b_8h.html" target="_top" xlink:title=" ">
<polygon fill="none" stroke="black" points="392.77,-440.5 392.77,-458.5 473.23,-458.5 473.23,-440.5 392.77,-440.5"/>
<text text-anchor="middle" x="433" y="-446.5" font-family="Helvetica,sans-Serif" font-size="10.00">tralics/EQTB.h</text>
</a>
</g>
</g>
<!-- Node2&#45;&gt;Node3 -->
<g id="edge2" class="edge">
<title>Node2&#45;&gt;Node3</title>
<path fill="none" stroke="midnightblue" d="M379.49,-605.45C387.98,-593.16 404.98,-569.14 421,-550 435.13,-533.13 446.87,-534.45 455,-514 461.24,-498.3 453.38,-480.03 445.37,-467.14"/>
<polygon fill="midnightblue" stroke="midnightblue" points="448.23,-465.11 439.72,-458.81 442.44,-469.05 448.23,-465.11"/>
</g>
<!-- Node25 -->
<g id="node25" class="node">
<title>Node25</title>
<g id="a_node25"><a xlink:href="../../da/d27/_hashtab_8h.html" target="_top" xlink:title=" ">
<polygon fill="none" stroke="black" points="99.76,-495.5 99.76,-513.5 190.24,-513.5 190.24,-495.5 99.76,-495.5"/>
<text text-anchor="middle" x="145" y="-501.5" font-family="Helvetica,sans-Serif" font-size="10.00">tralics/Hashtab.h</text>
</a>
</g>
</g>
<!-- Node2&#45;&gt;Node25 -->
<g id="edge29" class="edge">
<title>Node2&#45;&gt;Node25</title>
<path fill="none" stroke="midnightblue" d="M342.98,-605.47C315.66,-597.83 275.17,-585.12 242,-569 213.09,-554.95 182.5,-533.72 163.58,-519.73"/>
<polygon fill="midnightblue" stroke="midnightblue" points="165.62,-516.89 155.52,-513.69 161.42,-522.49 165.62,-516.89"/>
</g>
<!-- Node30 -->
<g id="node30" class="node">
<title>Node30</title>
<g id="a_node30"><a xlink:href="../../d3/d6b/txcond_8h.html" target="_top" xlink:title=" ">
<polygon fill="none" stroke="black" points="393.1,-220.5 393.1,-238.5 446.9,-238.5 446.9,-220.5 393.1,-220.5"/>
<text text-anchor="middle" x="420" y="-226.5" font-family="Helvetica,sans-Serif" font-size="10.00">txcond.h</text>
</a>
</g>
</g>
<!-- Node2&#45;&gt;Node30 -->
<g id="edge40" class="edge">
<title>Node2&#45;&gt;Node30</title>
<path fill="none" stroke="midnightblue" d="M408.33,-610.95C436.28,-606.86 474.08,-596.28 493,-569 530.17,-515.41 451.9,-309.5 427.16,-247.97"/>
<polygon fill="midnightblue" stroke="midnightblue" points="430.33,-246.46 423.33,-238.51 423.84,-249.09 430.33,-246.46"/>
</g>
<!-- Node31 -->
<g id="node31" class="node">
<title>Node31</title>
<g id="a_node31"><a xlink:href="../../d7/d4d/txfonts_8h.html" target="_top" xlink:title=" ">
<polygon fill="none" stroke="black" points="561.1,-330.5 561.1,-348.5 614.9,-348.5 614.9,-330.5 561.1,-330.5"/>
<text text-anchor="middle" x="588" y="-336.5" font-family="Helvetica,sans-Serif" font-size="10.00">txfonts.h</text>
</a>
</g>
</g>
<!-- Node2&#45;&gt;Node31 -->
<g id="edge43" class="edge">
<title>Node2&#45;&gt;Node31</title>
<path fill="none" stroke="midnightblue" d="M408.38,-611.52C468.88,-605.98 588,-584.99 588,-505.5 588,-505.5 588,-505.5 588,-448.5 588,-417.02 588,-380.37 588,-358.88"/>
<polygon fill="midnightblue" stroke="midnightblue" points="591.5,-358.63 588,-348.63 584.5,-358.63 591.5,-358.63"/>
</g>
<!-- Node32 -->
<g id="node32" class="node">
<title>Node32</title>
<g id="a_node32"><a xlink:href="../../d7/d7e/txhash_8h.html" target="_top" xlink:title=" ">
<polygon fill="none" stroke="black" points="28.1,-495.5 28.1,-513.5 81.9,-513.5 81.9,-495.5 28.1,-495.5"/>
<text text-anchor="middle" x="55" y="-501.5" font-family="Helvetica,sans-Serif" font-size="10.00">txhash.h</text>
</a>
</g>
</g>
<!-- Node2&#45;&gt;Node32 -->
<g id="edge46" class="edge">
<title>Node2&#45;&gt;Node32</title>
<path fill="none" stroke="midnightblue" d="M339.7,-606.08C305.05,-598.23 250.19,-584.79 204,-569 159.78,-553.88 110.17,-531.63 80.81,-517.88"/>
<polygon fill="midnightblue" stroke="midnightblue" points="82.2,-514.66 71.67,-513.56 79.22,-520.99 82.2,-514.66"/>
</g>
<!-- Node33 -->
<g id="node33" class="node">
<title>Node33</title>
<g id="a_node33"><a xlink:href="../../de/d7c/tximage_8h.html" target="_top" xlink:title=" ">
<polygon fill="none" stroke="black" points="483.32,-330.5 483.32,-348.5 542.68,-348.5 542.68,-330.5 483.32,-330.5"/>
<text text-anchor="middle" x="513" y="-336.5" font-family="Helvetica,sans-Serif" font-size="10.00">tximage.h</text>
</a>
</g>
</g>
<!-- Node2&#45;&gt;Node33 -->
<g id="edge49" class="edge">
<title>Node2&#45;&gt;Node33</title>
<path fill="none" stroke="midnightblue" d="M408.16,-612.06C442.1,-608.87 493.62,-598.99 526,-569 548.13,-548.5 550,-535.67 550,-505.5 550,-505.5 550,-505.5 550,-448.5 550,-414.78 533.65,-378.17 522.69,-357.41"/>
<polygon fill="midnightblue" stroke="midnightblue" points="525.72,-355.66 517.84,-348.58 519.58,-359.03 525.72,-355.66"/>
</g>
<!-- Node34 -->
<g id="node34" class="node">
<title>Node34</title>
<g id="a_node34"><a xlink:href="../../de/d29/txio_8h.html" target="_top" xlink:title=" ">
<polygon fill="none" stroke="black" points="251.05,-550.5 251.05,-568.5 290.95,-568.5 290.95,-550.5 251.05,-550.5"/>
<text text-anchor="middle" x="271" y="-556.5" font-family="Helvetica,sans-Serif" font-size="10.00">txio.h</text>
</a>
</g>
</g>
<!-- Node2&#45;&gt;Node34 -->
<g id="edge52" class="edge">
<title>Node2&#45;&gt;Node34</title>
<path fill="none" stroke="midnightblue" d="M358.36,-605.45C341.72,-596.89 315.17,-583.23 295.7,-573.21"/>
<polygon fill="midnightblue" stroke="midnightblue" points="297.28,-570.09 286.79,-568.63 294.08,-576.31 297.28,-570.09"/>
</g>
<!-- Node36 -->
<g id="node36" class="node">
<title>Node36</title>
<g id="a_node36"><a xlink:href="../../dc/d65/txstack_8h.html" target="_top" xlink:title=" ">
<polygon fill="none" stroke="black" points="318.27,-550.5 318.27,-568.5 373.73,-568.5 373.73,-550.5 318.27,-550.5"/>
<text text-anchor="middle" x="346" y="-556.5" font-family="Helvetica,sans-Serif" font-size="10.00">txstack.h</text>
</a>
</g>
</g>
<!-- Node2&#45;&gt;Node36 -->
<g id="edge55" class="edge">
<title>Node2&#45;&gt;Node36</title>
<path fill="none" stroke="midnightblue" d="M369.62,-605.22C365.74,-597.86 359.94,-586.88 355.05,-577.64"/>
<polygon fill="midnightblue" stroke="midnightblue" points="358.02,-575.76 350.25,-568.55 351.83,-579.03 358.02,-575.76"/>
</g>
<!-- Node40 -->
<g id="node40" class="node">
<title>Node40</title>
<g id="a_node40"><a xlink:href="../../d8/d3d/txstats_8h.html" target="_top" xlink:title=" ">
<polygon fill="none" stroke="black" points="430.38,-550.5 430.38,-568.5 483.62,-568.5 483.62,-550.5 430.38,-550.5"/>
<text text-anchor="middle" x="457" y="-556.5" font-family="Helvetica,sans-Serif" font-size="10.00">txstats.h</text>
</a>
</g>
</g>
<!-- Node2&#45;&gt;Node40 -->
<g id="edge60" class="edge">
<title>Node2&#45;&gt;Node40</title>
<path fill="none" stroke="midnightblue" d="M386.61,-605.45C399.65,-597.12 420.24,-583.97 435.8,-574.04"/>
<polygon fill="midnightblue" stroke="midnightblue" points="437.73,-576.96 444.28,-568.63 433.96,-571.06 437.73,-576.96"/>
</g>
<!-- Node4 -->
<g id="node4" class="node">
<title>Node4</title>
<g id="a_node4"><a xlink:href="../../d9/d18/txscaled_8h.html" target="_top" xlink:title=" ">
<polygon fill="none" stroke="black" points="289.32,-385.5 289.32,-403.5 358.68,-403.5 358.68,-385.5 289.32,-385.5"/>
<text text-anchor="middle" x="324" y="-391.5" font-family="Helvetica,sans-Serif" font-size="10.00">../txscaled.h</text>
</a>
</g>
</g>
<!-- Node3&#45;&gt;Node4 -->
<g id="edge3" class="edge">
<title>Node3&#45;&gt;Node4</title>
<path fill="none" stroke="midnightblue" d="M416.45,-440.45C398.76,-431.85 370.49,-418.1 349.86,-408.08"/>
<polygon fill="midnightblue" stroke="midnightblue" points="351.23,-404.85 340.71,-403.63 348.17,-411.15 351.23,-404.85"/>
</g>
<!-- Node5 -->
<g id="node5" class="node">
<title>Node5</title>
<g id="a_node5"><a xlink:href="../../dc/d91/txtokenlist_8h.html" target="_top" xlink:title=" ">
<polygon fill="none" stroke="black" points="293.6,-330.5 293.6,-348.5 362.4,-348.5 362.4,-330.5 293.6,-330.5"/>
<text text-anchor="middle" x="328" y="-336.5" font-family="Helvetica,sans-Serif" font-size="10.00">txtokenlist.h</text>
</a>
</g>
</g>
<!-- Node4&#45;&gt;Node5 -->
<g id="edge4" class="edge">
<title>Node4&#45;&gt;Node5</title>
<path fill="none" stroke="midnightblue" d="M324.62,-385.22C325.16,-378.1 325.96,-367.58 326.64,-358.53"/>
<polygon fill="midnightblue" stroke="midnightblue" points="330.13,-358.78 327.39,-348.55 323.15,-358.26 330.13,-358.78"/>
</g>
<!-- Node6 -->
<g id="node6" class="node">
<title>Node6</title>
<g id="a_node6"><a xlink:href="../../d5/daf/_istring_8h.html" target="_top" xlink:title=" ">
<polygon fill="none" stroke="black" points="315.77,-275.5 315.77,-293.5 396.23,-293.5 396.23,-275.5 315.77,-275.5"/>
<text text-anchor="middle" x="356" y="-281.5" font-family="Helvetica,sans-Serif" font-size="10.00">tralics/Istring.h</text>
</a>
</g>
</g>
<!-- Node5&#45;&gt;Node6 -->
<g id="edge5" class="edge">
<title>Node5&#45;&gt;Node6</title>
<path fill="none" stroke="midnightblue" d="M332.38,-330.22C336.26,-322.86 342.06,-311.88 346.95,-302.64"/>
<polygon fill="midnightblue" stroke="midnightblue" points="350.17,-304.03 351.75,-293.55 343.98,-300.76 350.17,-304.03"/>
</g>
<!-- Node19 -->
<g id="node19" class="node">
<title>Node19</title>
<g id="a_node19"><a xlink:href="../../dd/dcd/_token_8h.html" target="_top" xlink:title=" ">
<polygon fill="none" stroke="black" points="209.04,-275.5 209.04,-293.5 288.96,-293.5 288.96,-275.5 209.04,-275.5"/>
<text text-anchor="middle" x="249" y="-281.5" font-family="Helvetica,sans-Serif" font-size="10.00">tralics/Token.h</text>
</a>
</g>
</g>
<!-- Node5&#45;&gt;Node19 -->
<g id="edge21" class="edge">
<title>Node5&#45;&gt;Node19</title>
<path fill="none" stroke="midnightblue" d="M316,-330.45C303.71,-322.2 284.35,-309.22 269.6,-299.32"/>
<polygon fill="midnightblue" stroke="midnightblue" points="271.37,-296.29 261.11,-293.63 267.47,-302.1 271.37,-296.29"/>
</g>
<!-- Node24 -->
<g id="node24" class="node">
<title>Node24</title>
<g id="a_node24"><a xlink:title=" ">
<polygon fill="none" stroke="#bfbfbf" points="463.61,-275.5 463.61,-293.5 502.39,-293.5 502.39,-275.5 463.61,-275.5"/>
<text text-anchor="middle" x="483" y="-281.5" font-family="Helvetica,sans-Serif" font-size="10.00">utility</text>
</a>
</g>
</g>
<!-- Node5&#45;&gt;Node24 -->
<g id="edge28" class="edge">
<title>Node5&#45;&gt;Node24</title>
<path fill="none" stroke="midnightblue" d="M351.54,-330.45C378.81,-321.13 423.78,-305.75 453.4,-295.62"/>
<polygon fill="midnightblue" stroke="midnightblue" points="454.85,-298.82 463.18,-292.28 452.59,-292.2 454.85,-298.82"/>
</g>
<!-- Node7 -->
<g id="node7" class="node">
<title>Node7</title>
<g id="a_node7"><a xlink:href="../../dd/d47/_str_hash_8h.html" target="_top" xlink:title=" ">
<polygon fill="none" stroke="black" points="557.77,-220.5 557.77,-238.5 618.23,-238.5 618.23,-220.5 557.77,-220.5"/>
<text text-anchor="middle" x="588" y="-226.5" font-family="Helvetica,sans-Serif" font-size="10.00">StrHash.h</text>
</a>
</g>
</g>
<!-- Node6&#45;&gt;Node7 -->
<g id="edge6" class="edge">
<title>Node6&#45;&gt;Node7</title>
<path fill="none" stroke="midnightblue" d="M391.24,-275.45C433.34,-265.83 503.61,-249.78 547.8,-239.68"/>
<polygon fill="midnightblue" stroke="midnightblue" points="548.65,-243.08 557.62,-237.44 547.09,-236.25 548.65,-243.08"/>
</g>
<!-- Node16 -->
<g id="node16" class="node">
<title>Node16</title>
<g id="a_node16"><a xlink:href="../../d0/d0b/enums_8h.html" target="_top" xlink:title=" ">
<polygon fill="none" stroke="black" points="281.82,-165.5 281.82,-183.5 336.18,-183.5 336.18,-165.5 281.82,-165.5"/>
<text text-anchor="middle" x="309" y="-171.5" font-family="Helvetica,sans-Serif" font-size="10.00">enums.h</text>
</a>
</g>
</g>
<!-- Node6&#45;&gt;Node16 -->
<g id="edge15" class="edge">
<title>Node6&#45;&gt;Node16</title>
<path fill="none" stroke="midnightblue" d="M349.92,-275.35C343.7,-266.71 334.11,-252.46 328,-239 321.3,-224.25 316.23,-206.52 313.01,-193.55"/>
<polygon fill="midnightblue" stroke="midnightblue" points="316.36,-192.51 310.67,-183.57 309.55,-194.1 316.36,-192.51"/>
</g>
<!-- Node17 -->
<g id="node17" class="node">
<title>Node17</title>
<g id="a_node17"><a xlink:href="../../d8/d3c/util_8h.html" target="_top" xlink:title=" ">
<polygon fill="none" stroke="black" points="464.44,-220.5 464.44,-238.5 501.56,-238.5 501.56,-220.5 464.44,-220.5"/>
<text text-anchor="middle" x="483" y="-226.5" font-family="Helvetica,sans-Serif" font-size="10.00">util.h</text>
</a>
</g>
</g>
<!-- Node6&#45;&gt;Node17 -->
<g id="edge17" class="edge">
<title>Node6&#45;&gt;Node17</title>
<path fill="none" stroke="midnightblue" d="M375.29,-275.45C396.51,-266.59 430.82,-252.28 455,-242.18"/>
<polygon fill="midnightblue" stroke="midnightblue" points="456.48,-245.36 464.36,-238.28 453.78,-238.9 456.48,-245.36"/>
</g>
<!-- Node18 -->
<g id="node18" class="node">
<title>Node18</title>
<g id="a_node18"><a xlink:title=" ">
<polygon fill="none" stroke="#bfbfbf" points="336.61,-220.5 336.61,-238.5 375.39,-238.5 375.39,-220.5 336.61,-220.5"/>
<text text-anchor="middle" x="356" y="-226.5" font-family="Helvetica,sans-Serif" font-size="10.00">array</text>
</a>
</g>
</g>
<!-- Node6&#45;&gt;Node18 -->
<g id="edge20" class="edge">
<title>Node6&#45;&gt;Node18</title>
<path fill="none" stroke="midnightblue" d="M356,-275.22C356,-268.18 356,-257.81 356,-248.83"/>
<polygon fill="midnightblue" stroke="midnightblue" points="359.5,-248.55 356,-238.55 352.5,-248.55 359.5,-248.55"/>
</g>
<!-- Node8 -->
<g id="node8" class="node">
<title>Node8</title>
<g id="a_node8"><a xlink:href="../../d8/db5/consts_8h.html" target="_top" xlink:title=" ">
<polygon fill="none" stroke="black" points="282.38,-110.5 282.38,-128.5 335.62,-128.5 335.62,-110.5 282.38,-110.5"/>
<text text-anchor="middle" x="309" y="-116.5" font-family="Helvetica,sans-Serif" font-size="10.00">consts.h</text>
</a>
</g>
</g>
<!-- Node7&#45;&gt;Node8 -->
<g id="edge7" class="edge">
<title>Node7&#45;&gt;Node8</title>
<path fill="none" stroke="midnightblue" d="M586.63,-220.39C583.85,-206.65 576.2,-178.93 558,-165 525.28,-139.96 406.75,-127.72 345.78,-122.97"/>
<polygon fill="midnightblue" stroke="midnightblue" points="346.04,-119.48 335.8,-122.22 345.51,-126.46 346.04,-119.48"/>
</g>
<!-- Node13 -->
<g id="node13" class="node">
<title>Node13</title>
<g id="a_node13"><a xlink:title=" ">
<polygon fill="none" stroke="#bfbfbf" points="508.77,-165.5 508.77,-183.5 549.23,-183.5 549.23,-165.5 508.77,-165.5"/>
<text text-anchor="middle" x="529" y="-171.5" font-family="Helvetica,sans-Serif" font-size="10.00">string</text>
</a>
</g>
</g>
<!-- Node7&#45;&gt;Node13 -->
<g id="edge12" class="edge">
<title>Node7&#45;&gt;Node13</title>
<path fill="none" stroke="midnightblue" d="M579.04,-220.45C570.2,-212.51 556.48,-200.19 545.64,-190.45"/>
<polygon fill="midnightblue" stroke="midnightblue" points="547.82,-187.7 538.05,-183.63 543.15,-192.91 547.82,-187.7"/>
</g>
<!-- Node14 -->
<g id="node14" class="node">
<title>Node14</title>
<g id="a_node14"><a xlink:title=" ">
<polygon fill="none" stroke="#bfbfbf" points="604.7,-165.5 604.7,-183.5 691.3,-183.5 691.3,-165.5 604.7,-165.5"/>
<text text-anchor="middle" x="648" y="-171.5" font-family="Helvetica,sans-Serif" font-size="10.00">unordered_map</text>
</a>
</g>
</g>
<!-- Node7&#45;&gt;Node14 -->
<g id="edge13" class="edge">
<title>Node7&#45;&gt;Node14</title>
<path fill="none" stroke="midnightblue" d="M597.11,-220.45C606.1,-212.51 620.05,-200.19 631.07,-190.45"/>
<polygon fill="midnightblue" stroke="midnightblue" points="633.62,-192.87 638.8,-183.63 628.99,-187.62 633.62,-192.87"/>
</g>
<!-- Node15 -->
<g id="node15" class="node">
<title>Node15</title>
<g id="a_node15"><a xlink:title=" ">
<polygon fill="none" stroke="#bfbfbf" points="447.38,-165.5 447.38,-183.5 490.62,-183.5 490.62,-165.5 447.38,-165.5"/>
<text text-anchor="middle" x="469" y="-171.5" font-family="Helvetica,sans-Serif" font-size="10.00">vector</text>
</a>
</g>
</g>
<!-- Node7&#45;&gt;Node15 -->
<g id="edge14" class="edge">
<title>Node7&#45;&gt;Node15</title>
<path fill="none" stroke="midnightblue" d="M569.93,-220.45C550.44,-211.77 519.19,-197.86 496.63,-187.8"/>
<polygon fill="midnightblue" stroke="midnightblue" points="497.8,-184.5 487.24,-183.63 494.95,-190.89 497.8,-184.5"/>
</g>
<!-- Node9 -->
<g id="node9" class="node">
<title>Node9</title>
<g id="a_node9"><a xlink:href="../../d9/d49/types_8h.html" target="_top" xlink:title=" ">
<polygon fill="none" stroke="black" points="256.88,-55.5 256.88,-73.5 305.12,-73.5 305.12,-55.5 256.88,-55.5"/>
<text text-anchor="middle" x="281" y="-61.5" font-family="Helvetica,sans-Serif" font-size="10.00">types.h</text>
</a>
</g>
</g>
<!-- Node8&#45;&gt;Node9 -->
<g id="edge8" class="edge">
<title>Node8&#45;&gt;Node9</title>
<path fill="none" stroke="midnightblue" d="M304.62,-110.22C300.74,-102.86 294.94,-91.88 290.05,-82.64"/>
<polygon fill="midnightblue" stroke="midnightblue" points="293.02,-80.76 285.25,-73.55 286.83,-84.03 293.02,-80.76"/>
</g>
<!-- Node10 -->
<g id="node10" class="node">
<title>Node10</title>
<g id="a_node10"><a xlink:title=" ">
<polygon fill="none" stroke="#bfbfbf" points="190.88,-0.5 190.88,-18.5 239.12,-18.5 239.12,-0.5 190.88,-0.5"/>
<text text-anchor="middle" x="215" y="-6.5" font-family="Helvetica,sans-Serif" font-size="10.00">cassert</text>
</a>
</g>
</g>
<!-- Node9&#45;&gt;Node10 -->
<g id="edge9" class="edge">
<title>Node9&#45;&gt;Node10</title>
<path fill="none" stroke="midnightblue" d="M270.98,-55.45C260.99,-47.43 245.44,-34.95 233.26,-25.17"/>
<polygon fill="midnightblue" stroke="midnightblue" points="235.11,-22.16 225.12,-18.63 230.72,-27.62 235.11,-22.16"/>
</g>
<!-- Node11 -->
<g id="node11" class="node">
<title>Node11</title>
<g id="a_node11"><a xlink:title=" ">
<polygon fill="none" stroke="#bfbfbf" points="256.88,-0.5 256.88,-18.5 305.12,-18.5 305.12,-0.5 256.88,-0.5"/>
<text text-anchor="middle" x="281" y="-6.5" font-family="Helvetica,sans-Serif" font-size="10.00">cstddef</text>
</a>
</g>
</g>
<!-- Node9&#45;&gt;Node11 -->
<g id="edge10" class="edge">
<title>Node9&#45;&gt;Node11</title>
<path fill="none" stroke="midnightblue" d="M281,-55.22C281,-48.18 281,-37.81 281,-28.83"/>
<polygon fill="midnightblue" stroke="midnightblue" points="284.5,-28.55 281,-18.55 277.5,-28.55 284.5,-28.55"/>
</g>
<!-- Node12 -->
<g id="node12" class="node">
<title>Node12</title>
<g id="a_node12"><a xlink:title=" ">
<polygon fill="none" stroke="#bfbfbf" points="322.93,-0.5 322.93,-18.5 385.07,-18.5 385.07,-0.5 322.93,-0.5"/>
<text text-anchor="middle" x="354" y="-6.5" font-family="Helvetica,sans-Serif" font-size="10.00">type_traits</text>
</a>
</g>
</g>
<!-- Node9&#45;&gt;Node12 -->
<g id="edge11" class="edge">
<title>Node9&#45;&gt;Node12</title>
<path fill="none" stroke="midnightblue" d="M292.09,-55.45C303.34,-47.28 321,-34.46 334.58,-24.6"/>
<polygon fill="midnightblue" stroke="midnightblue" points="336.77,-27.33 342.81,-18.63 332.66,-21.67 336.77,-27.33"/>
</g>
<!-- Node16&#45;&gt;Node8 -->
<g id="edge16" class="edge">
<title>Node16&#45;&gt;Node8</title>
<path fill="none" stroke="midnightblue" d="M309,-165.22C309,-158.18 309,-147.81 309,-138.83"/>
<polygon fill="midnightblue" stroke="midnightblue" points="312.5,-138.55 309,-128.55 305.5,-138.55 312.5,-138.55"/>
</g>
<!-- Node17&#45;&gt;Node13 -->
<g id="edge18" class="edge">
<title>Node17&#45;&gt;Node13</title>
<path fill="none" stroke="midnightblue" d="M490.19,-220.22C496.91,-212.47 507.13,-200.7 515.39,-191.18"/>
<polygon fill="midnightblue" stroke="midnightblue" points="518.1,-193.4 522.01,-183.55 512.82,-188.81 518.1,-193.4"/>
</g>
<!-- Node17&#45;&gt;Node15 -->
<g id="edge19" class="edge">
<title>Node17&#45;&gt;Node15</title>
<path fill="none" stroke="midnightblue" d="M480.81,-220.22C478.91,-213.02 476.09,-202.35 473.68,-193.23"/>
<polygon fill="midnightblue" stroke="midnightblue" points="477.06,-192.32 471.13,-183.55 470.3,-194.11 477.06,-192.32"/>
</g>
<!-- Node20 -->
<g id="node20" class="node">
<title>Node20</title>
<g id="a_node20"><a xlink:href="../../d2/d68/_cmd_chr_8h.html" target="_top" xlink:title=" ">
<polygon fill="none" stroke="black" points="166.49,-220.5 166.49,-238.5 227.51,-238.5 227.51,-220.5 166.49,-220.5"/>
<text text-anchor="middle" x="197" y="-226.5" font-family="Helvetica,sans-Serif" font-size="10.00">CmdChr.h</text>
</a>
</g>
</g>
<!-- Node19&#45;&gt;Node20 -->
<g id="edge22" class="edge">
<title>Node19&#45;&gt;Node20</title>
<path fill="none" stroke="midnightblue" d="M240.88,-275.22C233.2,-267.39 221.49,-255.46 212.1,-245.89"/>
<polygon fill="midnightblue" stroke="midnightblue" points="214.4,-243.24 204.9,-238.55 209.4,-248.14 214.4,-243.24"/>
</g>
<!-- Node23 -->
<g id="node23" class="node">
<title>Node23</title>
<g id="a_node23"><a xlink:title=" ">
<polygon fill="none" stroke="#bfbfbf" points="245.5,-220.5 245.5,-238.5 274.5,-238.5 274.5,-220.5 245.5,-220.5"/>
<text text-anchor="middle" x="259.61" y="-226.5" font-family="Helvetica,sans-Serif" font-size="10.00">list</text>
</a>
</g>
</g>
<!-- Node19&#45;&gt;Node23 -->
<g id="edge27" class="edge">
<title>Node19&#45;&gt;Node23</title>
<path fill="none" stroke="midnightblue" d="M250.72,-275.22C252.2,-268.1 254.38,-257.58 256.26,-248.53"/>
<polygon fill="midnightblue" stroke="midnightblue" points="259.72,-249.05 258.33,-238.55 252.87,-247.63 259.72,-249.05"/>
</g>
<!-- Node20&#45;&gt;Node16 -->
<g id="edge26" class="edge">
<title>Node20&#45;&gt;Node16</title>
<path fill="none" stroke="midnightblue" d="M214.01,-220.45C232.27,-211.81 261.49,-197.98 282.71,-187.94"/>
<polygon fill="midnightblue" stroke="midnightblue" points="284.29,-191.07 291.83,-183.63 281.29,-184.74 284.29,-191.07"/>
</g>
<!-- Node21 -->
<g id="node21" class="node">
<title>Node21</title>
<g id="a_node21"><a xlink:href="../../d8/d47/codepoint_8h.html" target="_top" xlink:title=" ">
<polygon fill="none" stroke="black" points="163.15,-165.5 163.15,-183.5 230.85,-183.5 230.85,-165.5 163.15,-165.5"/>
<text text-anchor="middle" x="197" y="-171.5" font-family="Helvetica,sans-Serif" font-size="10.00">codepoint.h</text>
</a>
</g>
</g>
<!-- Node20&#45;&gt;Node21 -->
<g id="edge23" class="edge">
<title>Node20&#45;&gt;Node21</title>
<path fill="none" stroke="midnightblue" d="M197,-220.22C197,-213.18 197,-202.81 197,-193.83"/>
<polygon fill="midnightblue" stroke="midnightblue" points="200.5,-193.55 197,-183.55 193.5,-193.55 200.5,-193.55"/>
</g>
<!-- Node21&#45;&gt;Node9 -->
<g id="edge24" class="edge">
<title>Node21&#45;&gt;Node9</title>
<path fill="none" stroke="midnightblue" d="M203.47,-165.32C210.52,-156.4 222.09,-141.72 232,-129 244.4,-113.09 258.45,-94.85 268.32,-82.02"/>
<polygon fill="midnightblue" stroke="midnightblue" points="271.36,-83.8 274.68,-73.74 265.81,-79.54 271.36,-83.8"/>
</g>
<!-- Node22 -->
<g id="node22" class="node">
<title>Node22</title>
<g id="a_node22"><a xlink:title=" ">
<polygon fill="none" stroke="#bfbfbf" points="171.49,-110.5 171.49,-128.5 222.51,-128.5 222.51,-110.5 171.49,-110.5"/>
<text text-anchor="middle" x="197" y="-116.5" font-family="Helvetica,sans-Serif" font-size="10.00">optional</text>
</a>
</g>
</g>
<!-- Node21&#45;&gt;Node22 -->
<g id="edge25" class="edge">
<title>Node21&#45;&gt;Node22</title>
<path fill="none" stroke="midnightblue" d="M197,-165.22C197,-158.18 197,-147.81 197,-138.83"/>
<polygon fill="midnightblue" stroke="midnightblue" points="200.5,-138.55 197,-128.55 193.5,-138.55 200.5,-138.55"/>
</g>
<!-- Node25&#45;&gt;Node14 -->
<g id="edge39" class="edge">
<title>Node25&#45;&gt;Node14</title>
<path fill="none" stroke="midnightblue" d="M190.44,-498.84C269.19,-490.55 427.81,-472.8 482,-459 558.15,-439.61 647,-474.08 647,-395.5 647,-395.5 647,-395.5 647,-283.5 647,-252.02 647.43,-215.37 647.73,-193.88"/>
<polygon fill="midnightblue" stroke="midnightblue" points="651.23,-193.68 647.87,-183.63 644.23,-193.58 651.23,-193.68"/>
</g>
<!-- Node26 -->
<g id="node26" class="node">
<title>Node26</title>
<g id="a_node26"><a xlink:href="../../d3/d01/txeqtb_8h.html" target="_top" xlink:title=" ">
<polygon fill="none" stroke="black" points="130.04,-440.5 130.04,-458.5 189.96,-458.5 189.96,-440.5 130.04,-440.5"/>
<text text-anchor="middle" x="160" y="-446.5" font-family="Helvetica,sans-Serif" font-size="10.00">../txeqtb.h</text>
</a>
</g>
</g>
<!-- Node25&#45;&gt;Node26 -->
<g id="edge30" class="edge">
<title>Node25&#45;&gt;Node26</title>
<path fill="none" stroke="midnightblue" d="M147.34,-495.22C149.38,-488.02 152.4,-477.35 154.98,-468.23"/>
<polygon fill="midnightblue" stroke="midnightblue" points="158.37,-469.12 157.72,-458.55 151.63,-467.22 158.37,-469.12"/>
</g>
<!-- Node27 -->
<g id="node27" class="node">
<title>Node27</title>
<g id="a_node27"><a xlink:href="../../d7/d1b/_buffer_8h.html" target="_top" xlink:title=" ">
<polygon fill="none" stroke="black" points="223.85,-440.5 223.85,-458.5 274.15,-458.5 274.15,-440.5 223.85,-440.5"/>
<text text-anchor="middle" x="249" y="-446.5" font-family="Helvetica,sans-Serif" font-size="10.00">Buffer.h</text>
</a>
</g>
</g>
<!-- Node25&#45;&gt;Node27 -->
<g id="edge34" class="edge">
<title>Node25&#45;&gt;Node27</title>
<path fill="none" stroke="midnightblue" d="M160.8,-495.45C177.59,-486.89 204.4,-473.23 224.06,-463.21"/>
<polygon fill="midnightblue" stroke="midnightblue" points="225.74,-466.28 233.06,-458.63 222.56,-460.05 225.74,-466.28"/>
</g>
<!-- Node26&#45;&gt;Node4 -->
<g id="edge33" class="edge">
<title>Node26&#45;&gt;Node4</title>
<path fill="none" stroke="midnightblue" d="M184.91,-440.45C212.8,-431.44 258.2,-416.77 289.5,-406.65"/>
<polygon fill="midnightblue" stroke="midnightblue" points="290.69,-409.94 299.13,-403.54 288.53,-403.28 290.69,-409.94"/>
</g>
<!-- Node26&#45;&gt;Node19 -->
<g id="edge32" class="edge">
<title>Node26&#45;&gt;Node19</title>
<path fill="none" stroke="midnightblue" d="M164.54,-440.19C178.46,-414.68 220.81,-337.13 239.72,-302.5"/>
<polygon fill="midnightblue" stroke="midnightblue" points="242.86,-304.05 244.58,-293.6 236.71,-300.7 242.86,-304.05"/>
</g>
<!-- Node26&#45;&gt;Node20 -->
<g id="edge31" class="edge">
<title>Node26&#45;&gt;Node20</title>
<path fill="none" stroke="midnightblue" d="M161.36,-440.48C166.69,-409.11 186.2,-294.16 193.87,-248.94"/>
<polygon fill="midnightblue" stroke="midnightblue" points="197.36,-249.27 195.59,-238.82 190.46,-248.1 197.36,-249.27"/>
</g>
<!-- Node27&#45;&gt;Node4 -->
<g id="edge37" class="edge">
<title>Node27&#45;&gt;Node4</title>
<path fill="none" stroke="midnightblue" d="M260.39,-440.45C271.95,-432.28 290.09,-419.46 304.05,-409.6"/>
<polygon fill="midnightblue" stroke="midnightblue" points="306.36,-412.25 312.5,-403.63 302.32,-406.54 306.36,-412.25"/>
</g>
<!-- Node28 -->
<g id="node28" class="node">
<title>Node28</title>
<g id="a_node28"><a xlink:href="../../d1/d9e/txid_8h.html" target="_top" xlink:title=" ">
<polygon fill="none" stroke="black" points="376.88,-385.5 376.88,-403.5 425.12,-403.5 425.12,-385.5 376.88,-385.5"/>
<text text-anchor="middle" x="401" y="-391.5" font-family="Helvetica,sans-Serif" font-size="10.00">../txid.h</text>
</a>
</g>
</g>
<!-- Node27&#45;&gt;Node28 -->
<g id="edge35" class="edge">
<title>Node27&#45;&gt;Node28</title>
<path fill="none" stroke="midnightblue" d="M272.09,-440.45C297.64,-431.54 339.04,-417.1 368.01,-407"/>
<polygon fill="midnightblue" stroke="midnightblue" points="369.41,-410.22 377.7,-403.63 367.1,-403.61 369.41,-410.22"/>
</g>
<!-- Node29 -->
<g id="node29" class="node">
<title>Node29</title>
<g id="a_node29"><a xlink:title=" ">
<polygon fill="none" stroke="#bfbfbf" points="226.27,-385.5 226.27,-403.5 271.73,-403.5 271.73,-385.5 226.27,-385.5"/>
<text text-anchor="middle" x="249" y="-391.5" font-family="Helvetica,sans-Serif" font-size="10.00">cstring</text>
</a>
</g>
</g>
<!-- Node27&#45;&gt;Node29 -->
<g id="edge38" class="edge">
<title>Node27&#45;&gt;Node29</title>
<path fill="none" stroke="midnightblue" d="M249,-440.22C249,-433.18 249,-422.81 249,-413.83"/>
<polygon fill="midnightblue" stroke="midnightblue" points="252.5,-413.55 249,-403.55 245.5,-413.55 252.5,-413.55"/>
</g>
<!-- Node28&#45;&gt;Node6 -->
<g id="edge36" class="edge">
<title>Node28&#45;&gt;Node6</title>
<path fill="none" stroke="midnightblue" d="M397.62,-385.38C390.39,-368.03 373.27,-326.96 363.39,-303.24"/>
<polygon fill="midnightblue" stroke="midnightblue" points="366.5,-301.6 359.42,-293.71 360.04,-304.29 366.5,-301.6"/>
</g>
<!-- Node30&#45;&gt;Node15 -->
<g id="edge42" class="edge">
<title>Node30&#45;&gt;Node15</title>
<path fill="none" stroke="midnightblue" d="M427.66,-220.22C434.82,-212.47 445.7,-200.7 454.5,-191.18"/>
<polygon fill="midnightblue" stroke="midnightblue" points="457.34,-193.27 461.56,-183.55 452.2,-188.52 457.34,-193.27"/>
</g>
<!-- Node30&#45;&gt;Node16 -->
<g id="edge41" class="edge">
<title>Node30&#45;&gt;Node16</title>
<path fill="none" stroke="midnightblue" d="M403.14,-220.45C385.05,-211.81 356.08,-197.98 335.05,-187.94"/>
<polygon fill="midnightblue" stroke="midnightblue" points="336.55,-184.78 326.02,-183.63 333.53,-191.09 336.55,-184.78"/>
</g>
<!-- Node31&#45;&gt;Node7 -->
<g id="edge45" class="edge">
<title>Node31&#45;&gt;Node7</title>
<path fill="none" stroke="midnightblue" d="M588,-330.38C588,-313.18 588,-272.7 588,-248.89"/>
<polygon fill="midnightblue" stroke="midnightblue" points="591.5,-248.71 588,-238.71 584.5,-248.71 591.5,-248.71"/>
</g>
<!-- Node31&#45;&gt;Node24 -->
<g id="edge44" class="edge">
<title>Node31&#45;&gt;Node24</title>
<path fill="none" stroke="midnightblue" d="M572.05,-330.45C555.09,-321.89 528.03,-308.23 508.18,-298.21"/>
<polygon fill="midnightblue" stroke="midnightblue" points="509.6,-295.01 499.1,-293.63 506.45,-301.26 509.6,-295.01"/>
</g>
<!-- Node32&#45;&gt;Node26 -->
<g id="edge48" class="edge">
<title>Node32&#45;&gt;Node26</title>
<path fill="none" stroke="midnightblue" d="M70.95,-495.45C87.91,-486.89 114.97,-473.23 134.82,-463.21"/>
<polygon fill="midnightblue" stroke="midnightblue" points="136.55,-466.26 143.9,-458.63 133.4,-460.01 136.55,-466.26"/>
</g>
<!-- Node32&#45;&gt;Node27 -->
<g id="edge47" class="edge">
<title>Node32&#45;&gt;Node27</title>
<path fill="none" stroke="midnightblue" d="M81.97,-496.13C116.33,-486.74 175.78,-470.5 213.71,-460.14"/>
<polygon fill="midnightblue" stroke="midnightblue" points="215.07,-463.4 223.79,-457.39 213.22,-456.65 215.07,-463.4"/>
</g>
<!-- Node33&#45;&gt;Node13 -->
<g id="edge50" class="edge">
<title>Node33&#45;&gt;Node13</title>
<path fill="none" stroke="midnightblue" d="M513.82,-330.19C516.29,-305.01 523.74,-229.11 527.2,-193.86"/>
<polygon fill="midnightblue" stroke="midnightblue" points="530.71,-193.89 528.21,-183.6 523.74,-193.21 530.71,-193.89"/>
</g>
<!-- Node33&#45;&gt;Node24 -->
<g id="edge51" class="edge">
<title>Node33&#45;&gt;Node24</title>
<path fill="none" stroke="midnightblue" d="M508.31,-330.22C504.11,-322.79 497.8,-311.65 492.53,-302.34"/>
<polygon fill="midnightblue" stroke="midnightblue" points="495.53,-300.53 487.56,-293.55 489.44,-303.98 495.53,-300.53"/>
</g>
<!-- Node34&#45;&gt;Node27 -->
<g id="edge53" class="edge">
<title>Node34&#45;&gt;Node27</title>
<path fill="none" stroke="midnightblue" d="M262.03,-550.33C253.72,-542.09 241.92,-528.55 237,-514 231.89,-498.89 236.16,-480.97 240.96,-468.03"/>
<polygon fill="midnightblue" stroke="midnightblue" points="244.32,-469.08 244.93,-458.5 237.86,-466.39 244.32,-469.08"/>
</g>
<!-- Node35 -->
<g id="node35" class="node">
<title>Node35</title>
<g id="a_node35"><a xlink:title=" ">
<polygon fill="none" stroke="#bfbfbf" points="246.33,-495.5 246.33,-513.5 295.67,-513.5 295.67,-495.5 246.33,-495.5"/>
<text text-anchor="middle" x="271" y="-501.5" font-family="Helvetica,sans-Serif" font-size="10.00">fstream</text>
</a>
</g>
</g>
<!-- Node34&#45;&gt;Node35 -->
<g id="edge54" class="edge">
<title>Node34&#45;&gt;Node35</title>
<path fill="none" stroke="midnightblue" d="M271,-550.22C271,-543.18 271,-532.81 271,-523.83"/>
<polygon fill="midnightblue" stroke="midnightblue" points="274.5,-523.55 271,-513.55 267.5,-523.55 274.5,-523.55"/>
</g>
<!-- Node37 -->
<g id="node37" class="node">
<title>Node37</title>
<g id="a_node37"><a xlink:href="../../d9/d1c/_xml_8h.html" target="_top" xlink:title=" ">
<polygon fill="none" stroke="black" points="313.77,-495.5 313.77,-513.5 384.23,-513.5 384.23,-495.5 313.77,-495.5"/>
<text text-anchor="middle" x="349" y="-501.5" font-family="Helvetica,sans-Serif" font-size="10.00">tralics/Xml.h</text>
</a>
</g>
</g>
<!-- Node36&#45;&gt;Node37 -->
<g id="edge56" class="edge">
<title>Node36&#45;&gt;Node37</title>
<path fill="none" stroke="midnightblue" d="M346.47,-550.22C346.87,-543.18 347.45,-532.81 347.96,-523.83"/>
<polygon fill="midnightblue" stroke="midnightblue" points="351.47,-523.73 348.54,-513.55 344.48,-523.34 351.47,-523.73"/>
</g>
<!-- Node39 -->
<g id="node39" class="node">
<title>Node39</title>
<g id="a_node39"><a xlink:href="../../d4/da4/txatt_8h.html" target="_top" xlink:title=" ">
<polygon fill="none" stroke="black" points="402.38,-495.5 402.38,-513.5 445.62,-513.5 445.62,-495.5 402.38,-495.5"/>
<text text-anchor="middle" x="424" y="-501.5" font-family="Helvetica,sans-Serif" font-size="10.00">txatt.h</text>
</a>
</g>
</g>
<!-- Node36&#45;&gt;Node39 -->
<g id="edge59" class="edge">
<title>Node36&#45;&gt;Node39</title>
<path fill="none" stroke="midnightblue" d="M357.85,-550.45C369.99,-542.2 389.1,-529.22 403.66,-519.32"/>
<polygon fill="midnightblue" stroke="midnightblue" points="405.74,-522.14 412.04,-513.63 401.8,-516.35 405.74,-522.14"/>
</g>
<!-- Node37&#45;&gt;Node27 -->
<g id="edge57" class="edge">
<title>Node37&#45;&gt;Node27</title>
<path fill="none" stroke="midnightblue" d="M333.81,-495.45C317.73,-486.93 292.12,-473.35 273.24,-463.35"/>
<polygon fill="midnightblue" stroke="midnightblue" points="274.81,-460.22 264.33,-458.63 271.53,-466.4 274.81,-460.22"/>
</g>
<!-- Node38 -->
<g id="node38" class="node">
<title>Node38</title>
<g id="a_node38"><a xlink:title=" ">
<polygon fill="none" stroke="#bfbfbf" points="326.83,-440.5 326.83,-458.5 371.17,-458.5 371.17,-440.5 326.83,-440.5"/>
<text text-anchor="middle" x="349" y="-446.5" font-family="Helvetica,sans-Serif" font-size="10.00">gsl/gsl</text>
</a>
</g>
</g>
<!-- Node37&#45;&gt;Node38 -->
<g id="edge58" class="edge">
<title>Node37&#45;&gt;Node38</title>
<path fill="none" stroke="midnightblue" d="M349,-495.22C349,-488.18 349,-477.81 349,-468.83"/>
<polygon fill="midnightblue" stroke="midnightblue" points="352.5,-468.55 349,-458.55 345.5,-468.55 352.5,-468.55"/>
</g>
<!-- Node41&#45;&gt;Node6 -->
<g id="edge62" class="edge">
<title>Node41&#45;&gt;Node6</title>
<path fill="none" stroke="midnightblue" d="M101.17,-333.22C148.88,-324.29 246.2,-306.06 305.8,-294.9"/>
<polygon fill="midnightblue" stroke="midnightblue" points="306.56,-298.32 315.75,-293.04 305.28,-291.44 306.56,-298.32"/>
</g>
<!-- Node41&#45;&gt;Node21 -->
<g id="edge63" class="edge">
<title>Node41&#45;&gt;Node21</title>
<path fill="none" stroke="midnightblue" d="M68.69,-330.2C62.78,-317.59 53.87,-293.15 63,-275 84.59,-232.07 134.45,-203 166.88,-187.86"/>
<polygon fill="midnightblue" stroke="midnightblue" points="168.65,-190.9 176.34,-183.6 165.78,-184.51 168.65,-190.9"/>
</g>
<!-- Node42 -->
<g id="node42" class="node">
<title>Node42</title>
<g id="a_node42"><a xlink:title=" ">
<polygon fill="none" stroke="#bfbfbf" points="71.77,-275.5 71.77,-293.5 132.23,-293.5 132.23,-275.5 71.77,-275.5"/>
<text text-anchor="middle" x="102" y="-281.5" font-family="Helvetica,sans-Serif" font-size="10.00">filesystem</text>
</a>
</g>
</g>
<!-- Node41&#45;&gt;Node42 -->
<g id="edge64" class="edge">
<title>Node41&#45;&gt;Node42</title>
<path fill="none" stroke="midnightblue" d="M77.53,-330.22C81.6,-322.79 87.69,-311.65 92.78,-302.34"/>
<polygon fill="midnightblue" stroke="midnightblue" points="95.87,-304 97.6,-293.55 89.72,-300.64 95.87,-304"/>
</g>
</g>
</svg>
