<?xml version="1.0" encoding="UTF-8" standalone="no"?>
<!DOCTYPE svg PUBLIC "-//W3C//DTD SVG 1.1//EN"
 "http://www.w3.org/Graphics/SVG/1.1/DTD/svg11.dtd">
<!-- Generated by graphviz version 2.43.0 (0)
 -->
<!-- Title: tralics/globals.h Pages: 1 -->
<svg width="879pt" height="82pt"
 viewBox="0.00 0.00 878.91 82.00" xmlns="http://www.w3.org/2000/svg" xmlns:xlink="http://www.w3.org/1999/xlink">
<g id="graph0" class="graph" transform="scale(1 1) rotate(0) translate(4 78)">
<title>tralics/globals.h</title>
<polygon fill="white" stroke="transparent" points="-4,4 -4,-78 874.91,-78 874.91,4 -4,4"/>
<!-- Node1 -->
<g id="node1" class="node">
<title>Node1</title>
<g id="a_node1"><a xlink:title=" ">
<polygon fill="#bfbfbf" stroke="black" points="390.38,-55.5 390.38,-73.5 475.31,-73.5 475.31,-55.5 390.38,-55.5"/>
<text text-anchor="middle" x="432.84" y="-61.5" font-family="Helvetica,sans-Serif" font-size="10.00">tralics/globals.h</text>
</a>
</g>
</g>
<!-- Node2 -->
<g id="node2" class="node">
<title>Node2</title>
<g id="a_node2"><a xlink:href="../../d2/dbb/globals_8_c.html" target="_top" xlink:title=" ">
<polygon fill="white" stroke="black" points="0,-0.5 0,-18.5 57.69,-18.5 57.69,-0.5 0,-0.5"/>
<text text-anchor="middle" x="28.84" y="-6.5" font-family="Helvetica,sans-Serif" font-size="10.00">globals.C</text>
</a>
</g>
</g>
<!-- Node1&#45;&gt;Node2 -->
<g id="edge1" class="edge">
<title>Node1&#45;&gt;Node2</title>
<path fill="none" stroke="midnightblue" d="M380.3,-58.76C309,-51.96 177.77,-38.1 66.84,-19 63.91,-18.5 60.87,-17.91 57.83,-17.29"/>
<polygon fill="midnightblue" stroke="midnightblue" points="380.09,-62.26 390.38,-59.72 380.75,-55.29 380.09,-62.26"/>
</g>
<!-- Node3 -->
<g id="node3" class="node">
<title>Node3</title>
<g id="a_node3"><a xlink:href="../../de/dae/_main_class_8_c.html" target="_top" xlink:title=" ">
<polygon fill="white" stroke="black" points="75.5,-0.5 75.5,-18.5 148.18,-18.5 148.18,-0.5 75.5,-0.5"/>
<text text-anchor="middle" x="111.84" y="-6.5" font-family="Helvetica,sans-Serif" font-size="10.00">MainClass.C</text>
</a>
</g>
</g>
<!-- Node1&#45;&gt;Node3 -->
<g id="edge2" class="edge">
<title>Node1&#45;&gt;Node3</title>
<path fill="none" stroke="midnightblue" d="M380.27,-55.45C324.68,-46.84 234.48,-32.59 156.84,-19 154.18,-18.53 151.43,-18.04 148.67,-17.54"/>
<polygon fill="midnightblue" stroke="midnightblue" points="379.81,-58.92 390.23,-56.99 380.88,-52.01 379.81,-58.92"/>
</g>
<!-- Node4 -->
<g id="node4" class="node">
<title>Node4</title>
<g id="a_node4"><a xlink:href="../../dc/d29/tralics_8_c.html" target="_top" xlink:title=" ">
<polygon fill="white" stroke="black" points="165.79,-0.5 165.79,-18.5 217.9,-18.5 217.9,-0.5 165.79,-0.5"/>
<text text-anchor="middle" x="191.84" y="-6.5" font-family="Helvetica,sans-Serif" font-size="10.00">tralics.C</text>
</a>
</g>
</g>
<!-- Node1&#45;&gt;Node4 -->
<g id="edge3" class="edge">
<title>Node1&#45;&gt;Node4</title>
<path fill="none" stroke="midnightblue" d="M384.14,-53.34C342.35,-44.54 280.55,-31.32 226.84,-19 224.04,-18.36 221.12,-17.67 218.2,-16.98"/>
<polygon fill="midnightblue" stroke="midnightblue" points="383.55,-56.8 394.05,-55.43 384.99,-49.95 383.55,-56.8"/>
</g>
<!-- Node5 -->
<g id="node5" class="node">
<title>Node5</title>
<g id="a_node5"><a xlink:href="../../d1/d56/txbib_8_c.html" target="_top" xlink:title=" ">
<polygon fill="white" stroke="black" points="236.28,-0.5 236.28,-18.5 283.41,-18.5 283.41,-0.5 236.28,-0.5"/>
<text text-anchor="middle" x="259.84" y="-6.5" font-family="Helvetica,sans-Serif" font-size="10.00">txbib.C</text>
</a>
</g>
</g>
<!-- Node1&#45;&gt;Node5 -->
<g id="edge4" class="edge">
<title>Node1&#45;&gt;Node5</title>
<path fill="none" stroke="midnightblue" d="M397.01,-52.52C363.01,-42.11 312.88,-26.75 283.58,-17.77"/>
<polygon fill="midnightblue" stroke="midnightblue" points="395.98,-55.87 406.57,-55.45 398.03,-49.17 395.98,-55.87"/>
</g>
<!-- Node6 -->
<g id="node6" class="node">
<title>Node6</title>
<g id="a_node6"><a xlink:href="../../d4/d1e/txcommands_8_c.html" target="_top" xlink:title=" ">
<polygon fill="white" stroke="black" points="301.5,-0.5 301.5,-18.5 384.19,-18.5 384.19,-0.5 301.5,-0.5"/>
<text text-anchor="middle" x="342.84" y="-6.5" font-family="Helvetica,sans-Serif" font-size="10.00">txcommands.C</text>
</a>
</g>
</g>
<!-- Node1&#45;&gt;Node6 -->
<g id="edge5" class="edge">
<title>Node1&#45;&gt;Node6</title>
<path fill="none" stroke="midnightblue" d="M410.48,-50.33C393.59,-40.39 370.97,-27.06 356.64,-18.63"/>
<polygon fill="midnightblue" stroke="midnightblue" points="408.78,-53.39 419.18,-55.45 412.33,-47.36 408.78,-53.39"/>
</g>
<!-- Node7 -->
<g id="node7" class="node">
<title>Node7</title>
<g id="a_node7"><a xlink:href="../../d9/d64/txconfig_8_c.html" target="_top" xlink:title=" ">
<polygon fill="white" stroke="black" points="402.61,-0.5 402.61,-18.5 463.08,-18.5 463.08,-0.5 402.61,-0.5"/>
<text text-anchor="middle" x="432.84" y="-6.5" font-family="Helvetica,sans-Serif" font-size="10.00">txconfig.C</text>
</a>
</g>
</g>
<!-- Node1&#45;&gt;Node7 -->
<g id="edge6" class="edge">
<title>Node1&#45;&gt;Node7</title>
<path fill="none" stroke="midnightblue" d="M432.84,-45.17C432.84,-36.09 432.84,-25.59 432.84,-18.55"/>
<polygon fill="midnightblue" stroke="midnightblue" points="429.34,-45.22 432.84,-55.22 436.34,-45.22 429.34,-45.22"/>
</g>
<!-- Node8 -->
<g id="node8" class="node">
<title>Node8</title>
<g id="a_node8"><a xlink:href="../../d8/dc2/txio_8_c.html" target="_top" xlink:title=" ">
<polygon fill="white" stroke="black" points="481.06,-0.5 481.06,-18.5 522.63,-18.5 522.63,-0.5 481.06,-0.5"/>
<text text-anchor="middle" x="501.84" y="-6.5" font-family="Helvetica,sans-Serif" font-size="10.00">txio.C</text>
</a>
</g>
</g>
<!-- Node1&#45;&gt;Node8 -->
<g id="edge7" class="edge">
<title>Node1&#45;&gt;Node8</title>
<path fill="none" stroke="midnightblue" d="M451.45,-49.21C464.21,-39.41 480.69,-26.75 491.27,-18.63"/>
<polygon fill="midnightblue" stroke="midnightblue" points="449.12,-46.58 443.32,-55.45 453.39,-52.13 449.12,-46.58"/>
</g>
<!-- Node9 -->
<g id="node9" class="node">
<title>Node9</title>
<g id="a_node9"><a xlink:href="../../db/d96/txmath_8_c.html" target="_top" xlink:title=" ">
<polygon fill="white" stroke="black" points="540.84,-0.5 540.84,-18.5 596.85,-18.5 596.85,-0.5 540.84,-0.5"/>
<text text-anchor="middle" x="568.84" y="-6.5" font-family="Helvetica,sans-Serif" font-size="10.00">txmath.C</text>
</a>
</g>
</g>
<!-- Node1&#45;&gt;Node9 -->
<g id="edge8" class="edge">
<title>Node1&#45;&gt;Node9</title>
<path fill="none" stroke="midnightblue" d="M462.82,-51.82C488.64,-41.76 525.25,-27.49 547.99,-18.63"/>
<polygon fill="midnightblue" stroke="midnightblue" points="461.55,-48.56 453.5,-55.45 464.09,-55.08 461.55,-48.56"/>
</g>
<!-- Node10 -->
<g id="node10" class="node">
<title>Node10</title>
<g id="a_node10"><a xlink:href="../../d7/dd3/txmathboot_8_c.html" target="_top" xlink:title=" ">
<polygon fill="white" stroke="black" points="615.11,-0.5 615.11,-18.5 690.58,-18.5 690.58,-0.5 615.11,-0.5"/>
<text text-anchor="middle" x="652.84" y="-6.5" font-family="Helvetica,sans-Serif" font-size="10.00">txmathboot.C</text>
</a>
</g>
</g>
<!-- Node1&#45;&gt;Node10 -->
<g id="edge9" class="edge">
<title>Node1&#45;&gt;Node10</title>
<path fill="none" stroke="midnightblue" d="M476.21,-53.05C518.27,-42.92 581.19,-27.76 619.48,-18.54"/>
<polygon fill="midnightblue" stroke="midnightblue" points="475.16,-49.71 466.26,-55.45 476.8,-56.51 475.16,-49.71"/>
</g>
<!-- Node11 -->
<g id="node11" class="node">
<title>Node11</title>
<g id="a_node11"><a xlink:href="../../da/d89/txtitlepage_8_c.html" target="_top" xlink:title=" ">
<polygon fill="white" stroke="black" points="709.05,-0.5 709.05,-18.5 780.64,-18.5 780.64,-0.5 709.05,-0.5"/>
<text text-anchor="middle" x="744.84" y="-6.5" font-family="Helvetica,sans-Serif" font-size="10.00">txtitlepage.C</text>
</a>
</g>
</g>
<!-- Node1&#45;&gt;Node11 -->
<g id="edge10" class="edge">
<title>Node1&#45;&gt;Node11</title>
<path fill="none" stroke="midnightblue" d="M485.44,-55.08C539.33,-46.37 625.52,-32.21 699.84,-19 702.82,-18.47 705.9,-17.91 709,-17.34"/>
<polygon fill="midnightblue" stroke="midnightblue" points="484.75,-51.64 475.44,-56.69 485.87,-58.55 484.75,-51.64"/>
</g>
<!-- Node12 -->
<g id="node12" class="node">
<title>Node12</title>
<g id="a_node12"><a xlink:href="../../d5/dda/txtranslate_8_c.html" target="_top" xlink:title=" ">
<polygon fill="white" stroke="black" points="798.78,-0.5 798.78,-18.5 870.91,-18.5 870.91,-0.5 798.78,-0.5"/>
<text text-anchor="middle" x="834.84" y="-6.5" font-family="Helvetica,sans-Serif" font-size="10.00">txtranslate.C</text>
</a>
</g>
</g>
<!-- Node1&#45;&gt;Node12 -->
<g id="edge11" class="edge">
<title>Node1&#45;&gt;Node12</title>
<path fill="none" stroke="midnightblue" d="M485.85,-57.94C555.7,-50.38 682.29,-35.84 789.84,-19 792.67,-18.56 795.59,-18.07 798.53,-17.56"/>
<polygon fill="midnightblue" stroke="midnightblue" points="485.12,-54.5 475.55,-59.05 485.87,-61.46 485.12,-54.5"/>
</g>
</g>
</svg>
