<?xml version="1.0" encoding="UTF-8" standalone="no"?>
<!DOCTYPE svg PUBLIC "-//W3C//DTD SVG 1.1//EN"
 "http://www.w3.org/Graphics/SVG/1.1/DTD/svg11.dtd">
<!-- Generated by graphviz version 2.43.0 (0)
 -->
<!-- Title: tralics/globals.h Pages: 1 -->
<svg width="394pt" height="82pt"
 viewBox="0.00 0.00 393.64 82.00" xmlns="http://www.w3.org/2000/svg" xmlns:xlink="http://www.w3.org/1999/xlink">
<g id="graph0" class="graph" transform="scale(1 1) rotate(0) translate(4 78)">
<title>tralics/globals.h</title>
<polygon fill="white" stroke="transparent" points="-4,4 -4,-78 389.64,-78 389.64,4 -4,4"/>
<!-- Node1 -->
<g id="node1" class="node">
<title>Node1</title>
<g id="a_node1"><a xlink:title=" ">
<polygon fill="#bfbfbf" stroke="black" points="149.38,-55.5 149.38,-73.5 234.31,-73.5 234.31,-55.5 149.38,-55.5"/>
<text text-anchor="middle" x="191.84" y="-61.5" font-family="Helvetica,sans-Serif" font-size="10.00">tralics/globals.h</text>
</a>
</g>
</g>
<!-- Node2 -->
<g id="node2" class="node">
<title>Node2</title>
<g id="a_node2"><a xlink:href="../../d2/dbb/globals_8_c.html" target="_top" xlink:title=" ">
<polygon fill="white" stroke="black" points="0,-0.5 0,-18.5 57.69,-18.5 57.69,-0.5 0,-0.5"/>
<text text-anchor="middle" x="28.84" y="-6.5" font-family="Helvetica,sans-Serif" font-size="10.00">globals.C</text>
</a>
</g>
</g>
<!-- Node1&#45;&gt;Node2 -->
<g id="edge1" class="edge">
<title>Node1&#45;&gt;Node2</title>
<path fill="none" stroke="midnightblue" d="M157.52,-52.34C126.39,-42.22 81.28,-27.55 53.57,-18.54"/>
<polygon fill="midnightblue" stroke="midnightblue" points="156.5,-55.69 167.09,-55.45 158.66,-49.03 156.5,-55.69"/>
</g>
<!-- Node3 -->
<g id="node3" class="node">
<title>Node3</title>
<g id="a_node3"><a xlink:href="../../de/dae/_main_class_8_c.html" target="_top" xlink:title=" ">
<polygon fill="white" stroke="black" points="75.5,-0.5 75.5,-18.5 148.18,-18.5 148.18,-0.5 75.5,-0.5"/>
<text text-anchor="middle" x="111.84" y="-6.5" font-family="Helvetica,sans-Serif" font-size="10.00">MainClass.C</text>
</a>
</g>
</g>
<!-- Node1&#45;&gt;Node3 -->
<g id="edge2" class="edge">
<title>Node1&#45;&gt;Node3</title>
<path fill="none" stroke="midnightblue" d="M171.12,-49.77C156.21,-39.89 136.6,-26.9 124.11,-18.63"/>
<polygon fill="midnightblue" stroke="midnightblue" points="169.42,-52.85 179.69,-55.45 173.29,-47.01 169.42,-52.85"/>
</g>
<!-- Node4 -->
<g id="node4" class="node">
<title>Node4</title>
<g id="a_node4"><a xlink:href="../../dc/d29/tralics_8_c.html" target="_top" xlink:title=" ">
<polygon fill="white" stroke="black" points="165.79,-0.5 165.79,-18.5 217.9,-18.5 217.9,-0.5 165.79,-0.5"/>
<text text-anchor="middle" x="191.84" y="-6.5" font-family="Helvetica,sans-Serif" font-size="10.00">tralics.C</text>
</a>
</g>
</g>
<!-- Node1&#45;&gt;Node4 -->
<g id="edge3" class="edge">
<title>Node1&#45;&gt;Node4</title>
<path fill="none" stroke="midnightblue" d="M191.84,-45.17C191.84,-36.09 191.84,-25.59 191.84,-18.55"/>
<polygon fill="midnightblue" stroke="midnightblue" points="188.34,-45.22 191.84,-55.22 195.34,-45.22 188.34,-45.22"/>
</g>
<!-- Node5 -->
<g id="node5" class="node">
<title>Node5</title>
<g id="a_node5"><a xlink:href="../../d9/d64/txconfig_8_c.html" target="_top" xlink:title=" ">
<polygon fill="white" stroke="black" points="235.61,-0.5 235.61,-18.5 296.08,-18.5 296.08,-0.5 235.61,-0.5"/>
<text text-anchor="middle" x="265.84" y="-6.5" font-family="Helvetica,sans-Serif" font-size="10.00">txconfig.C</text>
</a>
</g>
</g>
<!-- Node1&#45;&gt;Node5 -->
<g id="edge4" class="edge">
<title>Node1&#45;&gt;Node5</title>
<path fill="none" stroke="midnightblue" d="M211.4,-49.49C225.15,-39.65 243.05,-26.83 254.5,-18.63"/>
<polygon fill="midnightblue" stroke="midnightblue" points="209.18,-46.78 203.08,-55.45 213.25,-52.47 209.18,-46.78"/>
</g>
<!-- Node6 -->
<g id="node6" class="node">
<title>Node6</title>
<g id="a_node6"><a xlink:href="../../da/d89/txtitlepage_8_c.html" target="_top" xlink:title=" ">
<polygon fill="white" stroke="black" points="314.05,-0.5 314.05,-18.5 385.64,-18.5 385.64,-0.5 314.05,-0.5"/>
<text text-anchor="middle" x="349.84" y="-6.5" font-family="Helvetica,sans-Serif" font-size="10.00">txtitlepage.C</text>
</a>
</g>
</g>
<!-- Node1&#45;&gt;Node6 -->
<g id="edge5" class="edge">
<title>Node1&#45;&gt;Node6</title>
<path fill="none" stroke="midnightblue" d="M225.51,-52.21C255.67,-42.09 299.14,-27.51 325.88,-18.54"/>
<polygon fill="midnightblue" stroke="midnightblue" points="224.21,-48.95 215.84,-55.45 226.44,-55.59 224.21,-48.95"/>
</g>
</g>
</svg>
