<?xml version="1.0" encoding="UTF-8" standalone="no"?>
<!DOCTYPE svg PUBLIC "-//W3C//DTD SVG 1.1//EN"
 "http://www.w3.org/Graphics/SVG/1.1/DTD/svg11.dtd">
<!-- Generated by graphviz version 2.42.3 (20191010.1750)
 -->
<!-- Title: tralics/globals.h Pages: 1 -->
<svg width="1245pt" height="137pt"
 viewBox="0.00 0.00 1244.54 137.00" xmlns="http://www.w3.org/2000/svg" xmlns:xlink="http://www.w3.org/1999/xlink">
<g id="graph0" class="graph" transform="scale(1 1) rotate(0) translate(4 133)">
<title>tralics/globals.h</title>
<!-- Node1 -->
<g id="node1" class="node">
<title>Node1</title>
<g id="a_node1"><a xlink:title=" ">
<polygon fill="#bfbfbf" stroke="black" points="560.83,-110.5 560.83,-128.5 645.76,-128.5 645.76,-110.5 560.83,-110.5"/>
<text text-anchor="middle" x="603.3" y="-116.5" font-family="Helvetica,sans-Serif" font-size="10.00">tralics/globals.h</text>
</a>
</g>
</g>
<!-- Node2 -->
<g id="node2" class="node">
<title>Node2</title>
<g id="a_node2"><a xlink:href="../../da/d77/globals_8cpp.html" target="_top" xlink:title=" ">
<polygon fill="none" stroke="black" points="0,-55.5 0,-73.5 66.59,-73.5 66.59,-55.5 0,-55.5"/>
<text text-anchor="middle" x="33.3" y="-61.5" font-family="Helvetica,sans-Serif" font-size="10.00">globals.cpp</text>
</a>
</g>
</g>
<!-- Node1&#45;&gt;Node2 -->
<g id="edge1" class="edge">
<title>Node1&#45;&gt;Node2</title>
<path fill="none" stroke="midnightblue" d="M550.43,-116.07C455.1,-111.24 248.22,-98.7 75.3,-74 72.5,-73.6 69.6,-73.13 66.71,-72.62"/>
<polygon fill="midnightblue" stroke="midnightblue" points="550.51,-119.58 560.67,-116.58 550.86,-112.59 550.51,-119.58"/>
</g>
<!-- Node3 -->
<g id="node3" class="node">
<title>Node3</title>
<g id="a_node3"><a xlink:href="../../de/d27/_logger_8cpp.html" target="_top" xlink:title=" ">
<polygon fill="none" stroke="black" points="84.55,-55.5 84.55,-73.5 150.04,-73.5 150.04,-55.5 84.55,-55.5"/>
<text text-anchor="middle" x="117.3" y="-61.5" font-family="Helvetica,sans-Serif" font-size="10.00">Logger.cpp</text>
</a>
</g>
</g>
<!-- Node1&#45;&gt;Node3 -->
<g id="edge2" class="edge">
<title>Node1&#45;&gt;Node3</title>
<path fill="none" stroke="midnightblue" d="M550.58,-114.93C467.21,-108.89 299.93,-95.22 159.3,-74 156.35,-73.56 153.3,-73.04 150.26,-72.49"/>
<polygon fill="midnightblue" stroke="midnightblue" points="550.34,-118.42 560.57,-115.64 550.84,-111.44 550.34,-118.42"/>
</g>
<!-- Node4 -->
<g id="node4" class="node">
<title>Node4</title>
<g id="a_node4"><a xlink:href="../../df/d37/_main_class_8cpp.html" target="_top" xlink:title=" ">
<polygon fill="none" stroke="black" points="168.5,-55.5 168.5,-73.5 250.09,-73.5 250.09,-55.5 168.5,-55.5"/>
<text text-anchor="middle" x="209.3" y="-61.5" font-family="Helvetica,sans-Serif" font-size="10.00">MainClass.cpp</text>
</a>
</g>
</g>
<!-- Node1&#45;&gt;Node4 -->
<g id="edge3" class="edge">
<title>Node1&#45;&gt;Node4</title>
<path fill="none" stroke="midnightblue" d="M550.61,-112.34C483.03,-104.3 362.25,-89.4 259.3,-74 256.33,-73.56 253.28,-73.08 250.2,-72.59"/>
<polygon fill="midnightblue" stroke="midnightblue" points="550.24,-115.83 560.58,-113.53 551.07,-108.87 550.24,-115.83"/>
</g>
<!-- Node5 -->
<g id="node5" class="node">
<title>Node5</title>
<g id="a_node5"><a xlink:href="../../de/df6/_parser_8cpp.html" target="_top" xlink:title=" ">
<polygon fill="none" stroke="black" points="268.39,-55.5 268.39,-73.5 332.2,-73.5 332.2,-55.5 268.39,-55.5"/>
<text text-anchor="middle" x="300.3" y="-61.5" font-family="Helvetica,sans-Serif" font-size="10.00">Parser.cpp</text>
</a>
</g>
</g>
<!-- Node1&#45;&gt;Node5 -->
<g id="edge4" class="edge">
<title>Node1&#45;&gt;Node5</title>
<path fill="none" stroke="midnightblue" d="M550.38,-110.09C497.39,-101.53 413.55,-87.62 341.3,-74 338.44,-73.46 335.47,-72.88 332.5,-72.29"/>
<polygon fill="midnightblue" stroke="midnightblue" points="550.12,-113.59 560.55,-111.73 551.24,-106.68 550.12,-113.59"/>
</g>
<!-- Node6 -->
<g id="node6" class="node">
<title>Node6</title>
<g id="a_node6"><a xlink:href="../../db/d59/_saver_8h.html" target="_top" xlink:title=" ">
<polygon fill="none" stroke="black" points="349.89,-55.5 349.89,-73.5 428.7,-73.5 428.7,-55.5 349.89,-55.5"/>
<text text-anchor="middle" x="389.3" y="-61.5" font-family="Helvetica,sans-Serif" font-size="10.00">tralics/Saver.h</text>
</a>
</g>
</g>
<!-- Node1&#45;&gt;Node6 -->
<g id="edge5" class="edge">
<title>Node1&#45;&gt;Node6</title>
<path fill="none" stroke="midnightblue" d="M560.85,-107.99C519.94,-97.86 458.92,-82.74 421.75,-73.54"/>
<polygon fill="midnightblue" stroke="midnightblue" points="560.25,-111.44 570.79,-110.45 561.93,-104.65 560.25,-111.44"/>
</g>
<!-- Node13 -->
<g id="node13" class="node">
<title>Node13</title>
<g id="a_node13"><a xlink:href="../../d5/ddd/tralics_8cpp.html" target="_top" xlink:title=" ">
<polygon fill="none" stroke="black" points="446.79,-55.5 446.79,-73.5 507.8,-73.5 507.8,-55.5 446.79,-55.5"/>
<text text-anchor="middle" x="477.3" y="-61.5" font-family="Helvetica,sans-Serif" font-size="10.00">tralics.cpp</text>
</a>
</g>
</g>
<!-- Node1&#45;&gt;Node13 -->
<g id="edge12" class="edge">
<title>Node1&#45;&gt;Node13</title>
<path fill="none" stroke="midnightblue" d="M574.89,-106.55C551,-96.5 517.5,-82.41 496.61,-73.63"/>
<polygon fill="midnightblue" stroke="midnightblue" points="573.58,-109.8 584.16,-110.45 576.3,-103.35 573.58,-109.8"/>
</g>
<!-- Node14 -->
<g id="node14" class="node">
<title>Node14</title>
<g id="a_node14"><a xlink:href="../../dd/dce/txaccent_8cpp.html" target="_top" xlink:title=" ">
<polygon fill="none" stroke="black" points="526.22,-55.5 526.22,-73.5 598.37,-73.5 598.37,-55.5 526.22,-55.5"/>
<text text-anchor="middle" x="562.3" y="-61.5" font-family="Helvetica,sans-Serif" font-size="10.00">txaccent.cpp</text>
</a>
</g>
</g>
<!-- Node1&#45;&gt;Node14 -->
<g id="edge13" class="edge">
<title>Node1&#45;&gt;Node14</title>
<path fill="none" stroke="midnightblue" d="M590.72,-102.24C583.36,-92.73 574.39,-81.14 568.52,-73.55"/>
<polygon fill="midnightblue" stroke="midnightblue" points="588,-104.45 596.89,-110.22 593.54,-100.17 588,-104.45"/>
</g>
<!-- Node15 -->
<g id="node15" class="node">
<title>Node15</title>
<g id="a_node15"><a xlink:href="../../d1/ddd/txbib_8cpp.html" target="_top" xlink:title=" ">
<polygon fill="none" stroke="black" points="616.28,-55.5 616.28,-73.5 672.31,-73.5 672.31,-55.5 616.28,-55.5"/>
<text text-anchor="middle" x="644.3" y="-61.5" font-family="Helvetica,sans-Serif" font-size="10.00">txbib.cpp</text>
</a>
</g>
</g>
<!-- Node1&#45;&gt;Node15 -->
<g id="edge14" class="edge">
<title>Node1&#45;&gt;Node15</title>
<path fill="none" stroke="midnightblue" d="M615.87,-102.24C623.23,-92.73 632.2,-81.14 638.07,-73.55"/>
<polygon fill="midnightblue" stroke="midnightblue" points="613.05,-100.17 609.7,-110.22 618.59,-104.45 613.05,-100.17"/>
</g>
<!-- Node16 -->
<g id="node16" class="node">
<title>Node16</title>
<g id="a_node16"><a xlink:href="../../df/d9e/txcommands_8cpp.html" target="_top" xlink:title=" ">
<polygon fill="none" stroke="black" points="690.5,-55.5 690.5,-73.5 782.09,-73.5 782.09,-55.5 690.5,-55.5"/>
<text text-anchor="middle" x="736.3" y="-61.5" font-family="Helvetica,sans-Serif" font-size="10.00">txcommands.cpp</text>
</a>
</g>
</g>
<!-- Node1&#45;&gt;Node16 -->
<g id="edge15" class="edge">
<title>Node1&#45;&gt;Node16</title>
<path fill="none" stroke="midnightblue" d="M632.94,-106.69C658.18,-96.63 693.76,-82.45 715.91,-73.63"/>
<polygon fill="midnightblue" stroke="midnightblue" points="631.49,-103.5 623.5,-110.45 634.08,-110 631.49,-103.5"/>
</g>
<!-- Node17 -->
<g id="node17" class="node">
<title>Node17</title>
<g id="a_node17"><a xlink:href="../../df/d98/txconfig_8cpp.html" target="_top" xlink:title=" ">
<polygon fill="none" stroke="black" points="799.61,-55.5 799.61,-73.5 868.98,-73.5 868.98,-55.5 799.61,-55.5"/>
<text text-anchor="middle" x="834.3" y="-61.5" font-family="Helvetica,sans-Serif" font-size="10.00">txconfig.cpp</text>
</a>
</g>
</g>
<!-- Node1&#45;&gt;Node17 -->
<g id="edge16" class="edge">
<title>Node1&#45;&gt;Node17</title>
<path fill="none" stroke="midnightblue" d="M648.27,-108.18C692.43,-98.05 758.88,-82.8 799.26,-73.54"/>
<polygon fill="midnightblue" stroke="midnightblue" points="647.34,-104.8 638.38,-110.45 648.91,-111.63 647.34,-104.8"/>
</g>
<!-- Node18 -->
<g id="node18" class="node">
<title>Node18</title>
<g id="a_node18"><a xlink:href="../../d4/dd9/txmath_8cpp.html" target="_top" xlink:title=" ">
<polygon fill="none" stroke="black" points="886.84,-55.5 886.84,-73.5 951.75,-73.5 951.75,-55.5 886.84,-55.5"/>
<text text-anchor="middle" x="919.3" y="-61.5" font-family="Helvetica,sans-Serif" font-size="10.00">txmath.cpp</text>
</a>
</g>
</g>
<!-- Node1&#45;&gt;Node18 -->
<g id="edge17" class="edge">
<title>Node1&#45;&gt;Node18</title>
<path fill="none" stroke="midnightblue" d="M655.73,-110.72C711.15,-102.33 801.06,-88.25 878.3,-74 881.01,-73.5 883.83,-72.96 886.65,-72.4"/>
<polygon fill="midnightblue" stroke="midnightblue" points="655.16,-107.26 645.79,-112.22 656.21,-114.18 655.16,-107.26"/>
</g>
<!-- Node19 -->
<g id="node19" class="node">
<title>Node19</title>
<g id="a_node19"><a xlink:href="../../d9/d59/txmathboot_8cpp.html" target="_top" xlink:title=" ">
<polygon fill="none" stroke="black" points="970.11,-55.5 970.11,-73.5 1054.48,-73.5 1054.48,-55.5 970.11,-55.5"/>
<text text-anchor="middle" x="1012.3" y="-61.5" font-family="Helvetica,sans-Serif" font-size="10.00">txmathboot.cpp</text>
</a>
</g>
</g>
<!-- Node1&#45;&gt;Node19 -->
<g id="edge18" class="edge">
<title>Node1&#45;&gt;Node19</title>
<path fill="none" stroke="midnightblue" d="M656.24,-112.54C726.02,-104.53 852.54,-89.52 960.3,-74 963.46,-73.54 966.74,-73.05 970.03,-72.55"/>
<polygon fill="midnightblue" stroke="midnightblue" points="655.49,-109.1 645.95,-113.71 656.29,-116.05 655.49,-109.1"/>
</g>
<!-- Node20 -->
<g id="node20" class="node">
<title>Node20</title>
<g id="a_node20"><a xlink:href="../../d5/dbc/txstack_8cpp.html" target="_top" xlink:title=" ">
<polygon fill="none" stroke="black" points="1072.29,-55.5 1072.29,-73.5 1138.31,-73.5 1138.31,-55.5 1072.29,-55.5"/>
<text text-anchor="middle" x="1105.3" y="-61.5" font-family="Helvetica,sans-Serif" font-size="10.00">txstack.cpp</text>
</a>
</g>
</g>
<!-- Node1&#45;&gt;Node20 -->
<g id="edge19" class="edge">
<title>Node1&#45;&gt;Node20</title>
<path fill="none" stroke="midnightblue" d="M655.97,-115.18C741.67,-109.38 916.5,-95.89 1063.3,-74 1066.09,-73.58 1068.98,-73.1 1071.88,-72.59"/>
<polygon fill="midnightblue" stroke="midnightblue" points="655.71,-111.69 645.97,-115.85 656.18,-118.67 655.71,-111.69"/>
</g>
<!-- Node21 -->
<g id="node21" class="node">
<title>Node21</title>
<g id="a_node21"><a xlink:href="../../d1/dc8/txtitlepage_8cpp.html" target="_top" xlink:title=" ">
<polygon fill="none" stroke="black" points="1156.05,-55.5 1156.05,-73.5 1236.54,-73.5 1236.54,-55.5 1156.05,-55.5"/>
<text text-anchor="middle" x="1196.3" y="-61.5" font-family="Helvetica,sans-Serif" font-size="10.00">txtitlepage.cpp</text>
</a>
</g>
</g>
<!-- Node1&#45;&gt;Node21 -->
<g id="edge20" class="edge">
<title>Node1&#45;&gt;Node21</title>
<path fill="none" stroke="midnightblue" d="M656.28,-115.76C753.76,-110.36 967.94,-96.84 1147.3,-74 1150.12,-73.64 1153.03,-73.23 1155.96,-72.79"/>
<polygon fill="midnightblue" stroke="midnightblue" points="655.89,-112.27 646.1,-116.31 656.28,-119.26 655.89,-112.27"/>
</g>
<!-- Node7 -->
<g id="node7" class="node">
<title>Node7</title>
<g id="a_node7"><a xlink:href="../../d7/de8/txarray_8cpp.html" target="_top" xlink:title=" ">
<polygon fill="none" stroke="black" points="156.93,-0.5 156.93,-18.5 221.66,-18.5 221.66,-0.5 156.93,-0.5"/>
<text text-anchor="middle" x="189.3" y="-6.5" font-family="Helvetica,sans-Serif" font-size="10.00">txarray.cpp</text>
</a>
</g>
</g>
<!-- Node6&#45;&gt;Node7 -->
<g id="edge6" class="edge">
<title>Node6&#45;&gt;Node7</title>
<path fill="none" stroke="midnightblue" d="M349.14,-52.86C310.91,-42.73 254.22,-27.7 219.63,-18.54"/>
<polygon fill="midnightblue" stroke="midnightblue" points="348.36,-56.27 358.92,-55.45 350.15,-49.51 348.36,-56.27"/>
</g>
<!-- Node8 -->
<g id="node8" class="node">
<title>Node8</title>
<g id="a_node8"><a xlink:href="../../d0/d1f/txio_8cpp.html" target="_top" xlink:title=" ">
<polygon fill="none" stroke="black" points="240.06,-0.5 240.06,-18.5 290.53,-18.5 290.53,-0.5 240.06,-0.5"/>
<text text-anchor="middle" x="265.3" y="-6.5" font-family="Helvetica,sans-Serif" font-size="10.00">txio.cpp</text>
</a>
</g>
</g>
<!-- Node6&#45;&gt;Node8 -->
<g id="edge7" class="edge">
<title>Node6&#45;&gt;Node8</title>
<path fill="none" stroke="midnightblue" d="M361.03,-51.42C337.54,-41.38 304.77,-27.37 284.31,-18.63"/>
<polygon fill="midnightblue" stroke="midnightblue" points="359.89,-54.74 370.46,-55.45 362.64,-48.3 359.89,-54.74"/>
</g>
<!-- Node9 -->
<g id="node9" class="node">
<title>Node9</title>
<g id="a_node9"><a xlink:href="../../df/da9/txparser_8cpp.html" target="_top" xlink:title=" ">
<polygon fill="none" stroke="black" points="308.06,-0.5 308.06,-18.5 378.53,-18.5 378.53,-0.5 308.06,-0.5"/>
<text text-anchor="middle" x="343.3" y="-6.5" font-family="Helvetica,sans-Serif" font-size="10.00">txparser.cpp</text>
</a>
</g>
</g>
<!-- Node6&#45;&gt;Node9 -->
<g id="edge8" class="edge">
<title>Node6&#45;&gt;Node9</title>
<path fill="none" stroke="midnightblue" d="M375.44,-47.53C367.13,-37.97 356.93,-26.21 350.28,-18.55"/>
<polygon fill="midnightblue" stroke="midnightblue" points="372.91,-49.96 382.11,-55.22 378.2,-45.37 372.91,-49.96"/>
</g>
<!-- Node10 -->
<g id="node10" class="node">
<title>Node10</title>
<g id="a_node10"><a xlink:href="../../d0/d24/txparser2_8cpp.html" target="_top" xlink:title=" ">
<polygon fill="none" stroke="black" points="397,-0.5 397,-18.5 473.59,-18.5 473.59,-0.5 397,-0.5"/>
<text text-anchor="middle" x="435.3" y="-6.5" font-family="Helvetica,sans-Serif" font-size="10.00">txparser2.cpp</text>
</a>
</g>
</g>
<!-- Node6&#45;&gt;Node10 -->
<g id="edge9" class="edge">
<title>Node6&#45;&gt;Node10</title>
<path fill="none" stroke="midnightblue" d="M403.15,-47.53C411.46,-37.97 421.66,-26.21 428.31,-18.55"/>
<polygon fill="midnightblue" stroke="midnightblue" points="400.39,-45.37 396.48,-55.22 405.68,-49.96 400.39,-45.37"/>
</g>
<!-- Node11 -->
<g id="node11" class="node">
<title>Node11</title>
<g id="a_node11"><a xlink:href="../../df/d8f/txscan_8cpp.html" target="_top" xlink:title=" ">
<polygon fill="none" stroke="black" points="491.39,-0.5 491.39,-18.5 555.2,-18.5 555.2,-0.5 491.39,-0.5"/>
<text text-anchor="middle" x="523.3" y="-6.5" font-family="Helvetica,sans-Serif" font-size="10.00">txscan.cpp</text>
</a>
</g>
</g>
<!-- Node6&#45;&gt;Node11 -->
<g id="edge10" class="edge">
<title>Node6&#45;&gt;Node11</title>
<path fill="none" stroke="midnightblue" d="M419.16,-51.69C444.59,-41.63 480.44,-27.45 502.75,-18.63"/>
<polygon fill="midnightblue" stroke="midnightblue" points="417.66,-48.52 409.65,-55.45 420.23,-55.03 417.66,-48.52"/>
</g>
<!-- Node12 -->
<g id="node12" class="node">
<title>Node12</title>
<g id="a_node12"><a xlink:href="../../dd/da4/txtranslate_8cpp.html" target="_top" xlink:title=" ">
<polygon fill="none" stroke="black" points="572.78,-0.5 572.78,-18.5 653.81,-18.5 653.81,-0.5 572.78,-0.5"/>
<text text-anchor="middle" x="613.3" y="-6.5" font-family="Helvetica,sans-Serif" font-size="10.00">txtranslate.cpp</text>
</a>
</g>
</g>
<!-- Node6&#45;&gt;Node12 -->
<g id="edge11" class="edge">
<title>Node6&#45;&gt;Node12</title>
<path fill="none" stroke="midnightblue" d="M433.18,-53.12C476,-42.98 540.25,-27.78 579.32,-18.54"/>
<polygon fill="midnightblue" stroke="midnightblue" points="432.24,-49.74 423.32,-55.45 433.85,-56.55 432.24,-49.74"/>
</g>
</g>
</svg>
