<?xml version="1.0" encoding="UTF-8" standalone="no"?>
<!DOCTYPE svg PUBLIC "-//W3C//DTD SVG 1.1//EN"
 "http://www.w3.org/Graphics/SVG/1.1/DTD/svg11.dtd">
<!-- Generated by graphviz version 2.43.0 (0)
 -->
<!-- Title: ParamDataList Pages: 1 -->
<svg width="215pt" height="298pt"
 viewBox="0.00 0.00 214.63 298.00" xmlns="http://www.w3.org/2000/svg" xmlns:xlink="http://www.w3.org/1999/xlink">
<g id="graph0" class="graph" transform="scale(1 1) rotate(0) translate(4 294)">
<title>ParamDataList</title>
<polygon fill="white" stroke="transparent" points="-4,4 -4,-294 210.63,-294 210.63,4 -4,4"/>
<!-- Node1 -->
<g id="node1" class="node">
<title>Node1</title>
<g id="a_node1"><a xlink:title=" ">
<polygon fill="#bfbfbf" stroke="black" points="5.98,-0.5 5.98,-18.5 88.12,-18.5 88.12,-0.5 5.98,-0.5"/>
<text text-anchor="middle" x="47.05" y="-6.5" font-family="Helvetica,sans-Serif" font-size="10.00">ParamDataList</text>
</a>
</g>
</g>
<!-- Node2 -->
<g id="node2" class="node">
<title>Node2</title>
<g id="a_node2"><a xlink:title="STL class.">
<polygon fill="white" stroke="#bfbfbf" points="17.37,-205.5 17.37,-223.5 76.72,-223.5 76.72,-205.5 17.37,-205.5"/>
<text text-anchor="middle" x="47.05" y="-211.5" font-family="Helvetica,sans-Serif" font-size="10.00">std::string</text>
</a>
</g>
</g>
<!-- Node2&#45;&gt;Node1 -->
<g id="edge1" class="edge">
<title>Node2&#45;&gt;Node1</title>
<path fill="none" stroke="#9a32cd" stroke-dasharray="5,2" d="M47.05,-195.26C47.05,-152.75 47.05,-48.42 47.05,-18.59"/>
<polygon fill="#9a32cd" stroke="#9a32cd" points="43.55,-195.29 47.05,-205.29 50.55,-195.29 43.55,-195.29"/>
<text text-anchor="middle" x="60.94" y="-104" font-family="Helvetica,sans-Serif" font-size="10.00"> name</text>
</g>
<!-- Node5 -->
<g id="node5" class="node">
<title>Node5</title>
<g id="a_node5"><a xlink:href="../../d1/d2a/class_param_data_slot.html" target="_top" xlink:title=" ">
<polygon fill="white" stroke="black" points="75.14,-130.5 75.14,-148.5 158.95,-148.5 158.95,-130.5 75.14,-130.5"/>
<text text-anchor="middle" x="117.05" y="-136.5" font-family="Helvetica,sans-Serif" font-size="10.00">ParamDataSlot</text>
</a>
</g>
</g>
<!-- Node2&#45;&gt;Node5 -->
<g id="edge5" class="edge">
<title>Node2&#45;&gt;Node5</title>
<path fill="none" stroke="#9a32cd" stroke-dasharray="5,2" d="M61.99,-197.91C76.38,-182.91 97.6,-160.78 109.04,-148.85"/>
<polygon fill="#9a32cd" stroke="#9a32cd" points="59.2,-195.77 54.81,-205.41 64.25,-200.61 59.2,-195.77"/>
<text text-anchor="middle" x="102" y="-179" font-family="Helvetica,sans-Serif" font-size="10.00"> key</text>
<text text-anchor="middle" x="102" y="-169" font-family="Helvetica,sans-Serif" font-size="10.00">value</text>
</g>
<!-- Node3 -->
<g id="node3" class="node">
<title>Node3</title>
<g id="a_node3"><a xlink:title="STL class.">
<polygon fill="white" stroke="#bfbfbf" points="0,-261.5 0,-289.5 94.1,-289.5 94.1,-261.5 0,-261.5"/>
<text text-anchor="start" x="8" y="-277.5" font-family="Helvetica,sans-Serif" font-size="10.00">std::basic_string&lt;</text>
<text text-anchor="middle" x="47.05" y="-267.5" font-family="Helvetica,sans-Serif" font-size="10.00"> char &gt;</text>
</a>
</g>
</g>
<!-- Node3&#45;&gt;Node2 -->
<g id="edge2" class="edge">
<title>Node3&#45;&gt;Node2</title>
<path fill="none" stroke="midnightblue" d="M47.05,-251.39C47.05,-241.59 47.05,-230.82 47.05,-223.65"/>
<polygon fill="midnightblue" stroke="midnightblue" points="43.55,-251.41 47.05,-261.41 50.55,-251.41 43.55,-251.41"/>
</g>
<!-- Node4 -->
<g id="node4" class="node">
<title>Node4</title>
<g id="a_node4"><a xlink:title=" ">
<polygon fill="white" stroke="#bfbfbf" points="59.46,-65.5 59.46,-83.5 206.63,-83.5 206.63,-65.5 59.46,-65.5"/>
<text text-anchor="middle" x="133.05" y="-71.5" font-family="Helvetica,sans-Serif" font-size="10.00">std::vector&lt; ParamDataSlot &gt;</text>
</a>
</g>
</g>
<!-- Node4&#45;&gt;Node1 -->
<g id="edge3" class="edge">
<title>Node4&#45;&gt;Node1</title>
<path fill="none" stroke="#9a32cd" stroke-dasharray="5,2" d="M113.58,-59.24C96.41,-46.66 72,-28.78 58.02,-18.54"/>
<polygon fill="#9a32cd" stroke="#9a32cd" points="111.67,-62.18 121.8,-65.26 115.81,-56.53 111.67,-62.18"/>
<text text-anchor="middle" x="106.17" y="-39" font-family="Helvetica,sans-Serif" font-size="10.00"> data</text>
</g>
<!-- Node5&#45;&gt;Node4 -->
<g id="edge4" class="edge">
<title>Node5&#45;&gt;Node4</title>
<path fill="none" stroke="#9a32cd" stroke-dasharray="5,2" d="M121.68,-120.28C124.76,-108.13 128.67,-92.75 131.01,-83.54"/>
<polygon fill="#9a32cd" stroke="#9a32cd" points="118.21,-119.71 119.14,-130.26 124.99,-121.43 118.21,-119.71"/>
<text text-anchor="middle" x="146.73" y="-104" font-family="Helvetica,sans-Serif" font-size="10.00"> elements</text>
</g>
</g>
</svg>
