<?xml version="1.0" encoding="UTF-8" standalone="no"?>
<!DOCTYPE svg PUBLIC "-//W3C//DTD SVG 1.1//EN"
 "http://www.w3.org/Graphics/SVG/1.1/DTD/svg11.dtd">
<!-- Generated by graphviz version 2.43.0 (0)
 -->
<!-- Title: StrHash Pages: 1 -->
<svg width="262pt" height="242pt"
 viewBox="0.00 0.00 262.46 242.00" xmlns="http://www.w3.org/2000/svg" xmlns:xlink="http://www.w3.org/1999/xlink">
<g id="graph0" class="graph" transform="scale(1 1) rotate(0) translate(4 238)">
<title>StrHash</title>
<polygon fill="white" stroke="transparent" points="-4,4 -4,-238 258.46,-238 258.46,4 -4,4"/>
<!-- Node1 -->
<g id="node1" class="node">
<title>Node1</title>
<g id="a_node1"><a xlink:title=" ">
<polygon fill="#bfbfbf" stroke="black" points="122.99,-0.5 122.99,-18.5 175.11,-18.5 175.11,-0.5 122.99,-0.5"/>
<text text-anchor="middle" x="149.05" y="-6.5" font-family="Helvetica,sans-Serif" font-size="10.00">StrHash</text>
</a>
</g>
</g>
<!-- Node2 -->
<g id="node2" class="node">
<title>Node2</title>
<g id="a_node2"><a xlink:href="../../dc/df1/class_label_info.html" target="_top" xlink:title=" ">
<polygon fill="white" stroke="black" points="87.47,-65.5 87.47,-83.5 144.62,-83.5 144.62,-65.5 87.47,-65.5"/>
<text text-anchor="middle" x="116.05" y="-71.5" font-family="Helvetica,sans-Serif" font-size="10.00">LabelInfo</text>
</a>
</g>
</g>
<!-- Node2&#45;&gt;Node1 -->
<g id="edge1" class="edge">
<title>Node2&#45;&gt;Node1</title>
<path fill="none" stroke="#9a32cd" stroke-dasharray="5,2" d="M119.59,-55.36C121.19,-49.31 123.43,-42.66 126.46,-37 130.12,-30.18 135.76,-23.55 140.5,-18.63"/>
<polygon fill="#9a32cd" stroke="#9a32cd" points="116.14,-54.77 117.35,-65.29 122.97,-56.31 116.14,-54.77"/>
<text text-anchor="middle" x="144.84" y="-39" font-family="Helvetica,sans-Serif" font-size="10.00"> Labinfo</text>
</g>
<!-- Node3 -->
<g id="node3" class="node">
<title>Node3</title>
<g id="a_node3"><a xlink:title="STL class.">
<polygon fill="white" stroke="#bfbfbf" points="17.37,-140.5 17.37,-158.5 76.72,-158.5 76.72,-140.5 17.37,-140.5"/>
<text text-anchor="middle" x="47.05" y="-146.5" font-family="Helvetica,sans-Serif" font-size="10.00">std::string</text>
</a>
</g>
</g>
<!-- Node3&#45;&gt;Node2 -->
<g id="edge2" class="edge">
<title>Node3&#45;&gt;Node2</title>
<path fill="none" stroke="#9a32cd" stroke-dasharray="5,2" d="M51.17,-130.47C54.04,-121.11 58.69,-109.99 65.91,-102 73.24,-93.89 83.64,-87.83 93.07,-83.57"/>
<polygon fill="#9a32cd" stroke="#9a32cd" points="47.73,-129.79 48.56,-140.36 54.5,-131.58 47.73,-129.79"/>
<text text-anchor="middle" x="89.12" y="-109" font-family="Helvetica,sans-Serif" font-size="10.00"> file_name</text>
</g>
<!-- Node4 -->
<g id="node4" class="node">
<title>Node4</title>
<g id="a_node4"><a xlink:title="STL class.">
<polygon fill="white" stroke="#bfbfbf" points="0,-205.5 0,-233.5 94.1,-233.5 94.1,-205.5 0,-205.5"/>
<text text-anchor="start" x="8" y="-221.5" font-family="Helvetica,sans-Serif" font-size="10.00">std::basic_string&lt;</text>
<text text-anchor="middle" x="47.05" y="-211.5" font-family="Helvetica,sans-Serif" font-size="10.00"> char &gt;</text>
</a>
</g>
</g>
<!-- Node4&#45;&gt;Node3 -->
<g id="edge3" class="edge">
<title>Node4&#45;&gt;Node3</title>
<path fill="none" stroke="midnightblue" d="M47.05,-195.1C47.05,-182.55 47.05,-167.85 47.05,-158.86"/>
<polygon fill="midnightblue" stroke="midnightblue" points="43.55,-195.39 47.05,-205.39 50.55,-195.39 43.55,-195.39"/>
</g>
<!-- Node5 -->
<g id="node5" class="node">
<title>Node5</title>
<g id="a_node5"><a xlink:href="../../dd/d4f/class_istring.html" target="_top" xlink:title=" ">
<polygon fill="white" stroke="black" points="94.43,-140.5 94.43,-158.5 137.66,-158.5 137.66,-140.5 94.43,-140.5"/>
<text text-anchor="middle" x="116.05" y="-146.5" font-family="Helvetica,sans-Serif" font-size="10.00">Istring</text>
</a>
</g>
</g>
<!-- Node5&#45;&gt;Node2 -->
<g id="edge4" class="edge">
<title>Node5&#45;&gt;Node2</title>
<path fill="none" stroke="#9a32cd" stroke-dasharray="5,2" d="M116.05,-130.35C116.05,-115.48 116.05,-95.12 116.05,-83.85"/>
<polygon fill="#9a32cd" stroke="#9a32cd" points="112.55,-130.41 116.05,-140.41 119.55,-130.41 112.55,-130.41"/>
<text text-anchor="middle" x="128.56" y="-114" font-family="Helvetica,sans-Serif" font-size="10.00"> id</text>
<text text-anchor="middle" x="128.56" y="-104" font-family="Helvetica,sans-Serif" font-size="10.00">name</text>
</g>
<!-- Node6 -->
<g id="node6" class="node">
<title>Node6</title>
<g id="a_node6"><a xlink:href="../../d5/d2a/class_buffer.html" target="_top" xlink:title="a big structure">
<polygon fill="white" stroke="black" points="167.8,-65.5 167.8,-83.5 210.3,-83.5 210.3,-65.5 167.8,-65.5"/>
<text text-anchor="middle" x="189.05" y="-71.5" font-family="Helvetica,sans-Serif" font-size="10.00">Buffer</text>
</a>
</g>
</g>
<!-- Node6&#45;&gt;Node1 -->
<g id="edge5" class="edge">
<title>Node6&#45;&gt;Node1</title>
<path fill="none" stroke="#9a32cd" stroke-dasharray="5,2" d="M178.41,-56.75C170.57,-44.39 160.24,-28.12 154.15,-18.54"/>
<polygon fill="#9a32cd" stroke="#9a32cd" points="175.5,-58.7 183.82,-65.26 181.41,-54.95 175.5,-58.7"/>
<text text-anchor="middle" x="187.05" y="-39" font-family="Helvetica,sans-Serif" font-size="10.00"> mybuf</text>
</g>
<!-- Node7 -->
<g id="node7" class="node">
<title>Node7</title>
<g id="a_node7"><a xlink:title="STL class.">
<polygon fill="white" stroke="#bfbfbf" points="155.64,-140.5 155.64,-158.5 254.46,-158.5 254.46,-140.5 155.64,-140.5"/>
<text text-anchor="middle" x="205.05" y="-146.5" font-family="Helvetica,sans-Serif" font-size="10.00">std::vector&lt; char &gt;</text>
</a>
</g>
</g>
<!-- Node7&#45;&gt;Node6 -->
<g id="edge6" class="edge">
<title>Node7&#45;&gt;Node6</title>
<path fill="none" stroke="midnightblue" d="M201.07,-130.35C197.81,-115.48 193.35,-95.12 190.88,-83.85"/>
<polygon fill="midnightblue" stroke="midnightblue" points="197.71,-131.39 203.27,-140.41 204.55,-129.89 197.71,-131.39"/>
</g>
<!-- Node8 -->
<g id="node8" class="node">
<title>Node8</title>
<g id="a_node8"><a xlink:title=" ">
<polygon fill="white" stroke="#bfbfbf" points="190.55,-210.5 190.55,-228.5 219.55,-228.5 219.55,-210.5 190.55,-210.5"/>
<text text-anchor="middle" x="204.6" y="-216.5" font-family="Helvetica,sans-Serif" font-size="10.00">T</text>
</a>
</g>
</g>
<!-- Node8&#45;&gt;Node7 -->
<g id="edge7" class="edge">
<title>Node8&#45;&gt;Node7</title>
<path fill="none" stroke="#9a32cd" stroke-dasharray="5,2" d="M205.05,-200.3C205.05,-186.7 205.05,-168.78 205.05,-158.56"/>
<polygon fill="#9a32cd" stroke="#9a32cd" points="201.55,-200.43 205.05,-210.43 208.55,-200.43 201.55,-200.43"/>
<text text-anchor="middle" x="226.73" y="-179" font-family="Helvetica,sans-Serif" font-size="10.00"> elements</text>
</g>
</g>
</svg>
