<?xml version="1.0" encoding="UTF-8" standalone="no"?>
<!DOCTYPE svg PUBLIC "-//W3C//DTD SVG 1.1//EN"
 "http://www.w3.org/Graphics/SVG/1.1/DTD/svg11.dtd">
<!-- Generated by graphviz version 2.42.3 (20191010.1750)
 -->
<!-- Title: Istring Pages: 1 -->
<svg width="242pt" height="298pt"
 viewBox="0.00 0.00 241.57 298.00" xmlns="http://www.w3.org/2000/svg" xmlns:xlink="http://www.w3.org/1999/xlink">
<g id="graph0" class="graph" transform="scale(1 1) rotate(0) translate(4 294)">
<title>Istring</title>
<!-- Node1 -->
<g id="node1" class="node">
<title>Node1</title>
<g id="a_node1"><a xlink:title=" ">
<polygon fill="#bfbfbf" stroke="black" points="93.82,-0.5 93.82,-18.5 137.05,-18.5 137.05,-0.5 93.82,-0.5"/>
<text text-anchor="middle" x="115.43" y="-6.5" font-family="Helvetica,sans-Serif" font-size="10.00">Istring</text>
</a>
</g>
</g>
<!-- Node2 -->
<g id="node2" class="node">
<title>Node2</title>
<g id="a_node2"><a xlink:href="../../de/df7/class_str_hash.html" target="_top" xlink:title=" ">
<polygon fill="none" stroke="black" points="89.37,-65.5 89.37,-83.5 141.5,-83.5 141.5,-65.5 89.37,-65.5"/>
<text text-anchor="middle" x="115.43" y="-71.5" font-family="Helvetica,sans-Serif" font-size="10.00">StrHash</text>
</a>
</g>
</g>
<!-- Node2&#45;&gt;Node1 -->
<g id="edge1" class="edge">
<title>Node2&#45;&gt;Node1</title>
<path fill="none" stroke="#9a32cd" stroke-dasharray="5,2" d="M115.43,-54.91C115.43,-42.81 115.43,-27.65 115.43,-18.54"/>
<polygon fill="#9a32cd" stroke="#9a32cd" points="111.93,-55.26 115.43,-65.26 118.93,-55.26 111.93,-55.26"/>
<text text-anchor="middle" x="123.77" y="-39" font-family="Helvetica,sans-Serif" font-size="10.00"> SH</text>
</g>
<!-- Node3 -->
<g id="node3" class="node">
<title>Node3</title>
<g id="a_node3"><a xlink:title="STL class.">
<polygon fill="none" stroke="#bfbfbf" points="0,-130.5 0,-158.5 106.87,-158.5 106.87,-130.5 0,-130.5"/>
<text text-anchor="start" x="8" y="-146.5" font-family="Helvetica,sans-Serif" font-size="10.00">std::vector&lt; StrHash</text>
<text text-anchor="middle" x="53.43" y="-136.5" font-family="Helvetica,sans-Serif" font-size="10.00">_record &gt;</text>
</a>
</g>
</g>
<!-- Node3&#45;&gt;Node2 -->
<g id="edge2" class="edge">
<title>Node3&#45;&gt;Node2</title>
<path fill="none" stroke="midnightblue" d="M72.37,-122.73C84.29,-109.65 99.04,-93.48 107.82,-83.86"/>
<polygon fill="midnightblue" stroke="midnightblue" points="69.54,-120.64 65.39,-130.39 74.71,-125.36 69.54,-120.64"/>
</g>
<!-- Node4 -->
<g id="node4" class="node">
<title>Node4</title>
<g id="a_node4"><a xlink:title=" ">
<polygon fill="none" stroke="#bfbfbf" points="38.93,-205.5 38.93,-223.5 67.93,-223.5 67.93,-205.5 38.93,-205.5"/>
<text text-anchor="middle" x="52.99" y="-211.5" font-family="Helvetica,sans-Serif" font-size="10.00">T</text>
</a>
</g>
</g>
<!-- Node4&#45;&gt;Node3 -->
<g id="edge3" class="edge">
<title>Node4&#45;&gt;Node3</title>
<path fill="none" stroke="#9a32cd" stroke-dasharray="5,2" d="M53.43,-195.21C53.43,-183.69 53.43,-169.08 53.43,-158.69"/>
<polygon fill="#9a32cd" stroke="#9a32cd" points="49.93,-195.43 53.43,-205.43 56.93,-195.43 49.93,-195.43"/>
<text text-anchor="middle" x="75.11" y="-179" font-family="Helvetica,sans-Serif" font-size="10.00"> elements</text>
</g>
<!-- Node5 -->
<g id="node5" class="node">
<title>Node5</title>
<g id="a_node5"><a xlink:title=" ">
<polygon fill="none" stroke="#bfbfbf" points="125.3,-130.5 125.3,-158.5 233.57,-158.5 233.57,-130.5 125.3,-130.5"/>
<text text-anchor="start" x="133.3" y="-146.5" font-family="Helvetica,sans-Serif" font-size="10.00">std::unordered_map</text>
<text text-anchor="middle" x="179.43" y="-136.5" font-family="Helvetica,sans-Serif" font-size="10.00">&lt; std::string, size_t &gt;</text>
</a>
</g>
</g>
<!-- Node5&#45;&gt;Node2 -->
<g id="edge4" class="edge">
<title>Node5&#45;&gt;Node2</title>
<path fill="none" stroke="#9a32cd" stroke-dasharray="5,2" d="M160.24,-123.1C147.87,-109.96 132.44,-93.57 123.3,-83.86"/>
<polygon fill="#9a32cd" stroke="#9a32cd" points="157.69,-125.51 167.09,-130.39 162.79,-120.71 157.69,-125.51"/>
<text text-anchor="middle" x="164.17" y="-104" font-family="Helvetica,sans-Serif" font-size="10.00"> s_to_i</text>
</g>
<!-- Node6 -->
<g id="node6" class="node">
<title>Node6</title>
<g id="a_node6"><a xlink:title="STL class.">
<polygon fill="none" stroke="#bfbfbf" points="149.76,-205.5 149.76,-223.5 209.11,-223.5 209.11,-205.5 149.76,-205.5"/>
<text text-anchor="middle" x="179.43" y="-211.5" font-family="Helvetica,sans-Serif" font-size="10.00">std::string</text>
</a>
</g>
</g>
<!-- Node6&#45;&gt;Node5 -->
<g id="edge5" class="edge">
<title>Node6&#45;&gt;Node5</title>
<path fill="none" stroke="#9a32cd" stroke-dasharray="5,2" d="M179.43,-195.21C179.43,-183.69 179.43,-169.08 179.43,-158.69"/>
<polygon fill="#9a32cd" stroke="#9a32cd" points="175.93,-195.43 179.43,-205.43 182.93,-195.43 175.93,-195.43"/>
<text text-anchor="middle" x="191.1" y="-179" font-family="Helvetica,sans-Serif" font-size="10.00"> keys</text>
</g>
<!-- Node7 -->
<g id="node7" class="node">
<title>Node7</title>
<g id="a_node7"><a xlink:title="STL class.">
<polygon fill="none" stroke="#bfbfbf" points="132.39,-261.5 132.39,-289.5 226.48,-289.5 226.48,-261.5 132.39,-261.5"/>
<text text-anchor="start" x="140.39" y="-277.5" font-family="Helvetica,sans-Serif" font-size="10.00">std::basic_string&lt;</text>
<text text-anchor="middle" x="179.43" y="-267.5" font-family="Helvetica,sans-Serif" font-size="10.00"> char &gt;</text>
</a>
</g>
</g>
<!-- Node7&#45;&gt;Node6 -->
<g id="edge6" class="edge">
<title>Node7&#45;&gt;Node6</title>
<path fill="none" stroke="midnightblue" d="M179.43,-251.39C179.43,-241.59 179.43,-230.82 179.43,-223.65"/>
<polygon fill="midnightblue" stroke="midnightblue" points="175.93,-251.41 179.43,-261.41 182.93,-251.41 175.93,-251.41"/>
</g>
</g>
</svg>
