<?xml version="1.0" encoding="UTF-8" standalone="no"?>
<!DOCTYPE svg PUBLIC "-//W3C//DTD SVG 1.1//EN"
 "http://www.w3.org/Graphics/SVG/1.1/DTD/svg11.dtd">
<!-- Generated by graphviz version 2.43.0 (0)
 -->
<!-- Title: MainClass.C Pages: 1 -->
<svg width="781pt" height="687pt"
 viewBox="0.00 0.00 780.68 687.00" xmlns="http://www.w3.org/2000/svg" xmlns:xlink="http://www.w3.org/1999/xlink">
<g id="graph0" class="graph" transform="scale(1 1) rotate(0) translate(4 683)">
<title>MainClass.C</title>
<polygon fill="white" stroke="transparent" points="-4,4 -4,-683 776.68,-683 776.68,4 -4,4"/>
<!-- Node1 -->
<g id="node1" class="node">
<title>Node1</title>
<g id="a_node1"><a xlink:title=" ">
<polygon fill="#bfbfbf" stroke="black" points="292.34,-660.5 292.34,-678.5 365.02,-678.5 365.02,-660.5 292.34,-660.5"/>
<text text-anchor="middle" x="328.68" y="-666.5" font-family="Helvetica,sans-Serif" font-size="10.00">MainClass.C</text>
</a>
</g>
</g>
<!-- Node2 -->
<g id="node2" class="node">
<title>Node2</title>
<g id="a_node2"><a xlink:href="../../d4/de9/_main_class_8h.html" target="_top" xlink:title=" ">
<polygon fill="white" stroke="black" points="155.73,-550.5 155.73,-568.5 255.64,-568.5 255.64,-550.5 155.73,-550.5"/>
<text text-anchor="middle" x="205.68" y="-556.5" font-family="Helvetica,sans-Serif" font-size="10.00">tralics/MainClass.h</text>
</a>
</g>
</g>
<!-- Node1&#45;&gt;Node2 -->
<g id="edge1" class="edge">
<title>Node1&#45;&gt;Node2</title>
<path fill="none" stroke="midnightblue" d="M319.44,-660.38C298.87,-642.32 249.07,-598.59 222.71,-575.44"/>
<polygon fill="midnightblue" stroke="midnightblue" points="224.86,-572.68 215.04,-568.71 220.24,-577.94 224.86,-572.68"/>
</g>
<!-- Node24 -->
<g id="node24" class="node">
<title>Node24</title>
<g id="a_node24"><a xlink:href="../../d5/d87/globals_8h.html" target="_top" xlink:title=" ">
<polygon fill="white" stroke="black" points="604.22,-275.5 604.22,-293.5 689.15,-293.5 689.15,-275.5 604.22,-275.5"/>
<text text-anchor="middle" x="646.68" y="-281.5" font-family="Helvetica,sans-Serif" font-size="10.00">tralics/globals.h</text>
</a>
</g>
</g>
<!-- Node1&#45;&gt;Node24 -->
<g id="edge29" class="edge">
<title>Node1&#45;&gt;Node24</title>
<path fill="none" stroke="midnightblue" d="M365.16,-663.66C447.1,-651.77 638.68,-617.85 638.68,-560.5 638.68,-560.5 638.68,-560.5 638.68,-393.5 638.68,-361.79 642.16,-324.97 644.53,-303.55"/>
<polygon fill="midnightblue" stroke="midnightblue" points="648,-303.95 645.67,-293.61 641.05,-303.15 648,-303.95"/>
</g>
<!-- Node26 -->
<g id="node26" class="node">
<title>Node26</title>
<g id="a_node26"><a xlink:href="../../d7/d79/txinline_8h.html" target="_top" xlink:title=" ">
<polygon fill="white" stroke="black" points="138.95,-605.5 138.95,-623.5 194.42,-623.5 194.42,-605.5 138.95,-605.5"/>
<text text-anchor="middle" x="166.68" y="-611.5" font-family="Helvetica,sans-Serif" font-size="10.00">txinline.h</text>
</a>
</g>
</g>
<!-- Node1&#45;&gt;Node26 -->
<g id="edge36" class="edge">
<title>Node1&#45;&gt;Node26</title>
<path fill="none" stroke="midnightblue" d="M304.08,-660.45C276.53,-651.44 231.68,-636.77 200.76,-626.65"/>
<polygon fill="midnightblue" stroke="midnightblue" points="201.85,-623.32 191.25,-623.54 199.67,-629.97 201.85,-623.32"/>
</g>
<!-- Node31 -->
<g id="node31" class="node">
<title>Node31</title>
<g id="a_node31"><a xlink:href="../../d2/d1b/txparser_8h.html" target="_top" xlink:title=" ">
<polygon fill="white" stroke="black" points="346.73,-605.5 346.73,-623.5 406.64,-623.5 406.64,-605.5 346.73,-605.5"/>
<text text-anchor="middle" x="376.68" y="-611.5" font-family="Helvetica,sans-Serif" font-size="10.00">txparser.h</text>
</a>
</g>
</g>
<!-- Node1&#45;&gt;Node31 -->
<g id="edge45" class="edge">
<title>Node1&#45;&gt;Node31</title>
<path fill="none" stroke="midnightblue" d="M336.18,-660.22C343.2,-652.47 353.86,-640.7 362.48,-631.18"/>
<polygon fill="midnightblue" stroke="midnightblue" points="365.28,-633.31 369.39,-623.55 360.09,-628.61 365.28,-633.31"/>
</g>
<!-- Node3 -->
<g id="node3" class="node">
<title>Node3</title>
<g id="a_node3"><a xlink:href="../../de/d29/txio_8h.html" target="_top" xlink:title=" ">
<polygon fill="white" stroke="black" points="191.57,-495.5 191.57,-513.5 239.8,-513.5 239.8,-495.5 191.57,-495.5"/>
<text text-anchor="middle" x="215.68" y="-501.5" font-family="Helvetica,sans-Serif" font-size="10.00">../txio.h</text>
</a>
</g>
</g>
<!-- Node2&#45;&gt;Node3 -->
<g id="edge2" class="edge">
<title>Node2&#45;&gt;Node3</title>
<path fill="none" stroke="midnightblue" d="M207.25,-550.22C208.59,-543.1 210.58,-532.58 212.28,-523.53"/>
<polygon fill="midnightblue" stroke="midnightblue" points="215.75,-524.03 214.17,-513.55 208.87,-522.73 215.75,-524.03"/>
</g>
<!-- Node23 -->
<g id="node23" class="node">
<title>Node23</title>
<g id="a_node23"><a xlink:href="../../dc/def/txstring_8h.html" target="_top" xlink:title=" ">
<polygon fill="white" stroke="black" points="346.23,-440.5 346.23,-458.5 411.14,-458.5 411.14,-440.5 346.23,-440.5"/>
<text text-anchor="middle" x="378.68" y="-446.5" font-family="Helvetica,sans-Serif" font-size="10.00">../txstring.h</text>
</a>
</g>
</g>
<!-- Node2&#45;&gt;Node23 -->
<g id="edge27" class="edge">
<title>Node2&#45;&gt;Node23</title>
<path fill="none" stroke="midnightblue" d="M218.69,-550.38C248.12,-532.01 320.11,-487.07 356.64,-464.26"/>
<polygon fill="midnightblue" stroke="midnightblue" points="358.9,-466.98 365.53,-458.71 355.19,-461.04 358.9,-466.98"/>
</g>
<!-- Node4 -->
<g id="node4" class="node">
<title>Node4</title>
<g id="a_node4"><a xlink:href="../../dd/d74/txbuffer_8h.html" target="_top" xlink:title=" ">
<polygon fill="white" stroke="black" points="385.2,-385.5 385.2,-403.5 442.17,-403.5 442.17,-385.5 385.2,-385.5"/>
<text text-anchor="middle" x="413.68" y="-391.5" font-family="Helvetica,sans-Serif" font-size="10.00">txbuffer.h</text>
</a>
</g>
</g>
<!-- Node3&#45;&gt;Node4 -->
<g id="edge3" class="edge">
<title>Node3&#45;&gt;Node4</title>
<path fill="none" stroke="midnightblue" d="M230.57,-495.38C264.69,-476.77 348.81,-430.89 390.08,-408.38"/>
<polygon fill="midnightblue" stroke="midnightblue" points="391.8,-411.43 398.9,-403.56 388.44,-405.28 391.8,-411.43"/>
</g>
<!-- Node22 -->
<g id="node22" class="node">
<title>Node22</title>
<g id="a_node22"><a xlink:title=" ">
<polygon fill="white" stroke="#bfbfbf" points="93.01,-440.5 93.01,-458.5 142.35,-458.5 142.35,-440.5 93.01,-440.5"/>
<text text-anchor="middle" x="117.68" y="-446.5" font-family="Helvetica,sans-Serif" font-size="10.00">fstream</text>
</a>
</g>
</g>
<!-- Node3&#45;&gt;Node22 -->
<g id="edge26" class="edge">
<title>Node3&#45;&gt;Node22</title>
<path fill="none" stroke="midnightblue" d="M200.8,-495.45C185.12,-486.97 160.17,-473.48 141.7,-463.49"/>
<polygon fill="midnightblue" stroke="midnightblue" points="143.17,-460.3 132.71,-458.63 139.84,-466.46 143.17,-460.3"/>
</g>
<!-- Node5 -->
<g id="node5" class="node">
<title>Node5</title>
<g id="a_node5"><a xlink:href="../../d1/d9e/txid_8h.html" target="_top" xlink:title=" ">
<polygon fill="white" stroke="black" points="470.73,-275.5 470.73,-293.5 510.64,-293.5 510.64,-275.5 470.73,-275.5"/>
<text text-anchor="middle" x="490.68" y="-281.5" font-family="Helvetica,sans-Serif" font-size="10.00">txid.h</text>
</a>
</g>
</g>
<!-- Node4&#45;&gt;Node5 -->
<g id="edge4" class="edge">
<title>Node4&#45;&gt;Node5</title>
<path fill="none" stroke="midnightblue" d="M434.07,-385.42C449.43,-378.22 469.68,-366.16 480.68,-349 489.26,-335.63 491.39,-317.5 491.59,-304.04"/>
<polygon fill="midnightblue" stroke="midnightblue" points="495.08,-303.57 491.39,-293.64 488.09,-303.71 495.08,-303.57"/>
</g>
<!-- Node12 -->
<g id="node12" class="node">
<title>Node12</title>
<g id="a_node12"><a xlink:href="../../d9/d18/txscaled_8h.html" target="_top" xlink:title=" ">
<polygon fill="white" stroke="black" points="347.17,-330.5 347.17,-348.5 408.2,-348.5 408.2,-330.5 347.17,-330.5"/>
<text text-anchor="middle" x="377.68" y="-336.5" font-family="Helvetica,sans-Serif" font-size="10.00">txscaled.h</text>
</a>
</g>
</g>
<!-- Node4&#45;&gt;Node12 -->
<g id="edge11" class="edge">
<title>Node4&#45;&gt;Node12</title>
<path fill="none" stroke="midnightblue" d="M408.06,-385.22C402.96,-377.71 395.28,-366.41 388.93,-357.05"/>
<polygon fill="midnightblue" stroke="midnightblue" points="391.67,-354.86 383.15,-348.55 385.88,-358.79 391.67,-354.86"/>
</g>
<!-- Node20 -->
<g id="node20" class="node">
<title>Node20</title>
<g id="a_node20"><a xlink:title=" ">
<polygon fill="white" stroke="#bfbfbf" points="425.96,-330.5 425.96,-348.5 471.41,-348.5 471.41,-330.5 425.96,-330.5"/>
<text text-anchor="middle" x="448.68" y="-336.5" font-family="Helvetica,sans-Serif" font-size="10.00">cstring</text>
</a>
</g>
</g>
<!-- Node4&#45;&gt;Node20 -->
<g id="edge24" class="edge">
<title>Node4&#45;&gt;Node20</title>
<path fill="none" stroke="midnightblue" d="M419.15,-385.22C424.11,-377.71 431.57,-366.41 437.75,-357.05"/>
<polygon fill="midnightblue" stroke="midnightblue" points="440.78,-358.82 443.37,-348.55 434.94,-354.97 440.78,-358.82"/>
</g>
<!-- Node21 -->
<g id="node21" class="node">
<title>Node21</title>
<g id="a_node21"><a xlink:title=" ">
<polygon fill="white" stroke="#bfbfbf" points="555.07,-220.5 555.07,-238.5 598.3,-238.5 598.3,-220.5 555.07,-220.5"/>
<text text-anchor="middle" x="576.68" y="-226.5" font-family="Helvetica,sans-Serif" font-size="10.00">vector</text>
</a>
</g>
</g>
<!-- Node4&#45;&gt;Node21 -->
<g id="edge25" class="edge">
<title>Node4&#45;&gt;Node21</title>
<path fill="none" stroke="midnightblue" d="M436.17,-385.4C454.51,-377.99 480.28,-365.65 498.68,-349 531.44,-319.36 556.59,-273.08 568.71,-248.03"/>
<polygon fill="midnightblue" stroke="midnightblue" points="572.01,-249.24 573.09,-238.7 565.67,-246.27 572.01,-249.24"/>
</g>
<!-- Node6 -->
<g id="node6" class="node">
<title>Node6</title>
<g id="a_node6"><a xlink:href="../../dc/de8/txvars_8h.html" target="_top" xlink:title=" ">
<polygon fill="white" stroke="black" points="486.18,-220.5 486.18,-238.5 537.19,-238.5 537.19,-220.5 486.18,-220.5"/>
<text text-anchor="middle" x="511.68" y="-226.5" font-family="Helvetica,sans-Serif" font-size="10.00">txvars.h</text>
</a>
</g>
</g>
<!-- Node5&#45;&gt;Node6 -->
<g id="edge5" class="edge">
<title>Node5&#45;&gt;Node6</title>
<path fill="none" stroke="midnightblue" d="M493.97,-275.22C496.85,-267.94 501.14,-257.11 504.78,-247.93"/>
<polygon fill="midnightblue" stroke="midnightblue" points="508.07,-249.14 508.5,-238.55 501.56,-246.56 508.07,-249.14"/>
</g>
<!-- Node11 -->
<g id="node11" class="node">
<title>Node11</title>
<g id="a_node11"><a xlink:title=" ">
<polygon fill="white" stroke="#bfbfbf" points="437.46,-165.5 437.46,-183.5 477.91,-183.5 477.91,-165.5 437.46,-165.5"/>
<text text-anchor="middle" x="457.68" y="-171.5" font-family="Helvetica,sans-Serif" font-size="10.00">string</text>
</a>
</g>
</g>
<!-- Node5&#45;&gt;Node11 -->
<g id="edge10" class="edge">
<title>Node5&#45;&gt;Node11</title>
<path fill="none" stroke="midnightblue" d="M488.07,-275.31C485.23,-266.39 480.58,-251.7 476.68,-239 471.98,-223.68 466.78,-206.25 463,-193.53"/>
<polygon fill="midnightblue" stroke="midnightblue" points="466.3,-192.33 460.11,-183.73 459.59,-194.31 466.3,-192.33"/>
</g>
<!-- Node7 -->
<g id="node7" class="node">
<title>Node7</title>
<g id="a_node7"><a xlink:href="../../d0/d0b/enums_8h.html" target="_top" xlink:title=" ">
<polygon fill="white" stroke="black" points="416.06,-110.5 416.06,-128.5 499.31,-128.5 499.31,-110.5 416.06,-110.5"/>
<text text-anchor="middle" x="457.68" y="-116.5" font-family="Helvetica,sans-Serif" font-size="10.00">tralics/enums.h</text>
</a>
</g>
</g>
<!-- Node6&#45;&gt;Node7 -->
<g id="edge6" class="edge">
<title>Node6&#45;&gt;Node7</title>
<path fill="none" stroke="midnightblue" d="M509.1,-220.45C505.04,-208.17 496.57,-184.16 486.68,-165 481.71,-155.35 475.18,-145.17 469.57,-136.98"/>
<polygon fill="midnightblue" stroke="midnightblue" points="472.38,-134.9 463.77,-128.72 466.66,-138.92 472.38,-134.9"/>
</g>
<!-- Node10 -->
<g id="node10" class="node">
<title>Node10</title>
<g id="a_node10"><a xlink:title=" ">
<polygon fill="white" stroke="#bfbfbf" points="533.29,-165.5 533.29,-183.5 572.08,-183.5 572.08,-165.5 533.29,-165.5"/>
<text text-anchor="middle" x="552.68" y="-171.5" font-family="Helvetica,sans-Serif" font-size="10.00">array</text>
</a>
</g>
</g>
<!-- Node6&#45;&gt;Node10 -->
<g id="edge9" class="edge">
<title>Node6&#45;&gt;Node10</title>
<path fill="none" stroke="midnightblue" d="M518.09,-220.22C524.02,-212.55 533.01,-200.94 540.33,-191.47"/>
<polygon fill="midnightblue" stroke="midnightblue" points="543.11,-193.6 546.46,-183.55 537.57,-189.32 543.11,-193.6"/>
</g>
<!-- Node8 -->
<g id="node8" class="node">
<title>Node8</title>
<g id="a_node8"><a xlink:href="../../d8/db5/consts_8h.html" target="_top" xlink:title=" ">
<polygon fill="white" stroke="black" points="526.06,-55.5 526.06,-73.5 579.31,-73.5 579.31,-55.5 526.06,-55.5"/>
<text text-anchor="middle" x="552.68" y="-61.5" font-family="Helvetica,sans-Serif" font-size="10.00">consts.h</text>
</a>
</g>
</g>
<!-- Node7&#45;&gt;Node8 -->
<g id="edge7" class="edge">
<title>Node7&#45;&gt;Node8</title>
<path fill="none" stroke="midnightblue" d="M472.11,-110.45C487.18,-102.05 511.06,-88.72 528.91,-78.76"/>
<polygon fill="midnightblue" stroke="midnightblue" points="531.09,-81.55 538.12,-73.63 527.68,-75.44 531.09,-81.55"/>
</g>
<!-- Node9 -->
<g id="node9" class="node">
<title>Node9</title>
<g id="a_node9"><a xlink:href="../../d9/d49/types_8h.html" target="_top" xlink:title=" ">
<polygon fill="white" stroke="black" points="630.56,-0.5 630.56,-18.5 678.81,-18.5 678.81,-0.5 630.56,-0.5"/>
<text text-anchor="middle" x="654.68" y="-6.5" font-family="Helvetica,sans-Serif" font-size="10.00">types.h</text>
</a>
</g>
</g>
<!-- Node8&#45;&gt;Node9 -->
<g id="edge8" class="edge">
<title>Node8&#45;&gt;Node9</title>
<path fill="none" stroke="midnightblue" d="M568.18,-55.45C584.58,-46.93 610.7,-33.35 629.96,-23.35"/>
<polygon fill="midnightblue" stroke="midnightblue" points="631.79,-26.34 639.05,-18.63 628.56,-20.13 631.79,-26.34"/>
</g>
<!-- Node13 -->
<g id="node13" class="node">
<title>Node13</title>
<g id="a_node13"><a xlink:href="../../dc/d91/txtokenlist_8h.html" target="_top" xlink:title=" ">
<polygon fill="white" stroke="black" points="343.28,-275.5 343.28,-293.5 412.09,-293.5 412.09,-275.5 343.28,-275.5"/>
<text text-anchor="middle" x="377.68" y="-281.5" font-family="Helvetica,sans-Serif" font-size="10.00">txtokenlist.h</text>
</a>
</g>
</g>
<!-- Node12&#45;&gt;Node13 -->
<g id="edge12" class="edge">
<title>Node12&#45;&gt;Node13</title>
<path fill="none" stroke="midnightblue" d="M377.68,-330.22C377.68,-323.18 377.68,-312.81 377.68,-303.83"/>
<polygon fill="midnightblue" stroke="midnightblue" points="381.18,-303.55 377.68,-293.55 374.18,-303.55 381.18,-303.55"/>
</g>
<!-- Node13&#45;&gt;Node6 -->
<g id="edge22" class="edge">
<title>Node13&#45;&gt;Node6</title>
<path fill="none" stroke="midnightblue" d="M398.04,-275.45C420.27,-266.66 456.11,-252.48 481.6,-242.4"/>
<polygon fill="midnightblue" stroke="midnightblue" points="483.13,-245.56 491.14,-238.63 480.55,-239.05 483.13,-245.56"/>
</g>
<!-- Node14 -->
<g id="node14" class="node">
<title>Node14</title>
<g id="a_node14"><a xlink:href="../../d5/daf/_istring_8h.html" target="_top" xlink:title=" ">
<polygon fill="white" stroke="black" points="349.45,-220.5 349.45,-238.5 429.92,-238.5 429.92,-220.5 349.45,-220.5"/>
<text text-anchor="middle" x="389.68" y="-226.5" font-family="Helvetica,sans-Serif" font-size="10.00">tralics/Istring.h</text>
</a>
</g>
</g>
<!-- Node13&#45;&gt;Node14 -->
<g id="edge13" class="edge">
<title>Node13&#45;&gt;Node14</title>
<path fill="none" stroke="midnightblue" d="M379.56,-275.22C381.17,-268.1 383.55,-257.58 385.6,-248.53"/>
<polygon fill="midnightblue" stroke="midnightblue" points="389.07,-249.08 387.86,-238.55 382.24,-247.53 389.07,-249.08"/>
</g>
<!-- Node15 -->
<g id="node15" class="node">
<title>Node15</title>
<g id="a_node15"><a xlink:href="../../dd/dcd/_token_8h.html" target="_top" xlink:title=" ">
<polygon fill="white" stroke="black" points="251.73,-220.5 251.73,-238.5 331.64,-238.5 331.64,-220.5 251.73,-220.5"/>
<text text-anchor="middle" x="291.68" y="-226.5" font-family="Helvetica,sans-Serif" font-size="10.00">tralics/Token.h</text>
</a>
</g>
</g>
<!-- Node13&#45;&gt;Node15 -->
<g id="edge16" class="edge">
<title>Node13&#45;&gt;Node15</title>
<path fill="none" stroke="midnightblue" d="M364.62,-275.45C351.11,-267.12 329.77,-253.97 313.65,-244.04"/>
<polygon fill="midnightblue" stroke="midnightblue" points="315.22,-240.89 304.87,-238.63 311.55,-246.85 315.22,-240.89"/>
</g>
<!-- Node19 -->
<g id="node19" class="node">
<title>Node19</title>
<g id="a_node19"><a xlink:title=" ">
<polygon fill="white" stroke="#bfbfbf" points="195.29,-220.5 195.29,-238.5 234.08,-238.5 234.08,-220.5 195.29,-220.5"/>
<text text-anchor="middle" x="214.68" y="-226.5" font-family="Helvetica,sans-Serif" font-size="10.00">utility</text>
</a>
</g>
</g>
<!-- Node13&#45;&gt;Node19 -->
<g id="edge23" class="edge">
<title>Node13&#45;&gt;Node19</title>
<path fill="none" stroke="midnightblue" d="M352.93,-275.45C323.8,-265.98 275.48,-250.27 244.37,-240.15"/>
<polygon fill="midnightblue" stroke="midnightblue" points="245.13,-236.72 234.53,-236.95 242.96,-243.37 245.13,-236.72"/>
</g>
<!-- Node14&#45;&gt;Node7 -->
<g id="edge14" class="edge">
<title>Node14&#45;&gt;Node7</title>
<path fill="none" stroke="midnightblue" d="M394.66,-220.24C402.01,-208.08 416.23,-184.68 428.68,-165 434.56,-155.71 441.25,-145.43 446.72,-137.09"/>
<polygon fill="midnightblue" stroke="midnightblue" points="449.7,-138.94 452.27,-128.66 443.85,-135.09 449.7,-138.94"/>
</g>
<!-- Node14&#45;&gt;Node11 -->
<g id="edge15" class="edge">
<title>Node14&#45;&gt;Node11</title>
<path fill="none" stroke="midnightblue" d="M400.01,-220.45C410.4,-212.36 426.63,-199.7 439.23,-189.88"/>
<polygon fill="midnightblue" stroke="midnightblue" points="441.52,-192.53 447.26,-183.63 437.22,-187.01 441.52,-192.53"/>
</g>
<!-- Node16 -->
<g id="node16" class="node">
<title>Node16</title>
<g id="a_node16"><a xlink:href="../../d2/d68/_cmd_chr_8h.html" target="_top" xlink:title=" ">
<polygon fill="white" stroke="black" points="320.17,-165.5 320.17,-183.5 381.19,-183.5 381.19,-165.5 320.17,-165.5"/>
<text text-anchor="middle" x="350.68" y="-171.5" font-family="Helvetica,sans-Serif" font-size="10.00">CmdChr.h</text>
</a>
</g>
</g>
<!-- Node15&#45;&gt;Node16 -->
<g id="edge17" class="edge">
<title>Node15&#45;&gt;Node16</title>
<path fill="none" stroke="midnightblue" d="M300.65,-220.45C309.48,-212.51 323.2,-200.19 334.04,-190.45"/>
<polygon fill="midnightblue" stroke="midnightblue" points="336.54,-192.91 341.64,-183.63 331.86,-187.7 336.54,-192.91"/>
</g>
<!-- Node18 -->
<g id="node18" class="node">
<title>Node18</title>
<g id="a_node18"><a xlink:title=" ">
<polygon fill="white" stroke="#bfbfbf" points="273.18,-165.5 273.18,-183.5 302.18,-183.5 302.18,-165.5 273.18,-165.5"/>
<text text-anchor="middle" x="287.3" y="-171.5" font-family="Helvetica,sans-Serif" font-size="10.00">list</text>
</a>
</g>
</g>
<!-- Node15&#45;&gt;Node18 -->
<g id="edge21" class="edge">
<title>Node15&#45;&gt;Node18</title>
<path fill="none" stroke="midnightblue" d="M291.06,-220.22C290.52,-213.1 289.73,-202.58 289.05,-193.53"/>
<polygon fill="midnightblue" stroke="midnightblue" points="292.53,-193.26 288.29,-183.55 285.55,-193.78 292.53,-193.26"/>
</g>
<!-- Node16&#45;&gt;Node7 -->
<g id="edge20" class="edge">
<title>Node16&#45;&gt;Node7</title>
<path fill="none" stroke="midnightblue" d="M366.94,-165.45C384.3,-156.85 412.05,-143.1 432.3,-133.08"/>
<polygon fill="midnightblue" stroke="midnightblue" points="433.87,-136.2 441.28,-128.63 430.77,-129.93 433.87,-136.2"/>
</g>
<!-- Node17 -->
<g id="node17" class="node">
<title>Node17</title>
<g id="a_node17"><a xlink:href="../../d8/d47/codepoint_8h.html" target="_top" xlink:title=" ">
<polygon fill="white" stroke="black" points="620.83,-110.5 620.83,-128.5 688.54,-128.5 688.54,-110.5 620.83,-110.5"/>
<text text-anchor="middle" x="654.68" y="-116.5" font-family="Helvetica,sans-Serif" font-size="10.00">codepoint.h</text>
</a>
</g>
</g>
<!-- Node16&#45;&gt;Node17 -->
<g id="edge18" class="edge">
<title>Node16&#45;&gt;Node17</title>
<path fill="none" stroke="midnightblue" d="M381.23,-168.18C435.28,-158.75 547.98,-139.1 610.51,-128.2"/>
<polygon fill="midnightblue" stroke="midnightblue" points="611.22,-131.63 620.47,-126.47 610.01,-124.74 611.22,-131.63"/>
</g>
<!-- Node17&#45;&gt;Node9 -->
<g id="edge19" class="edge">
<title>Node17&#45;&gt;Node9</title>
<path fill="none" stroke="midnightblue" d="M654.68,-110.38C654.68,-93.18 654.68,-52.7 654.68,-28.89"/>
<polygon fill="midnightblue" stroke="midnightblue" points="658.18,-28.71 654.68,-18.71 651.18,-28.71 658.18,-28.71"/>
</g>
<!-- Node23&#45;&gt;Node4 -->
<g id="edge28" class="edge">
<title>Node23&#45;&gt;Node4</title>
<path fill="none" stroke="midnightblue" d="M384.15,-440.22C389.11,-432.71 396.57,-421.41 402.75,-412.05"/>
<polygon fill="midnightblue" stroke="midnightblue" points="405.78,-413.82 408.37,-403.55 399.94,-409.97 405.78,-413.82"/>
</g>
<!-- Node24&#45;&gt;Node6 -->
<g id="edge30" class="edge">
<title>Node24&#45;&gt;Node6</title>
<path fill="none" stroke="midnightblue" d="M626.18,-275.45C603.78,-266.66 567.67,-252.48 542,-242.4"/>
<polygon fill="midnightblue" stroke="midnightblue" points="542.97,-239.02 532.38,-238.63 540.41,-245.54 542.97,-239.02"/>
</g>
<!-- Node24&#45;&gt;Node9 -->
<g id="edge32" class="edge">
<title>Node24&#45;&gt;Node9</title>
<path fill="none" stroke="midnightblue" d="M670.38,-275.49C706.88,-261.47 772.68,-228.8 772.68,-175.5 772.68,-175.5 772.68,-175.5 772.68,-118.5 772.68,-71.16 720.36,-38.98 685.4,-22.76"/>
<polygon fill="midnightblue" stroke="midnightblue" points="686.61,-19.47 676.05,-18.61 683.77,-25.86 686.61,-19.47"/>
</g>
<!-- Node24&#45;&gt;Node11 -->
<g id="edge33" class="edge">
<title>Node24&#45;&gt;Node11</title>
<path fill="none" stroke="midnightblue" d="M643.81,-275.14C638.72,-261.53 626.78,-234.64 607.68,-220 572.34,-192.9 520.74,-182.26 488.2,-178.11"/>
<polygon fill="midnightblue" stroke="midnightblue" points="488.28,-174.6 477.95,-176.94 487.49,-181.55 488.28,-174.6"/>
</g>
<!-- Node24&#45;&gt;Node17 -->
<g id="edge31" class="edge">
<title>Node24&#45;&gt;Node17</title>
<path fill="none" stroke="midnightblue" d="M669.78,-275.46C685.83,-268.52 706,-256.77 715.68,-239 735.78,-202.13 696.73,-157.98 672.29,-135.4"/>
<polygon fill="midnightblue" stroke="midnightblue" points="674.46,-132.65 664.67,-128.62 669.81,-137.88 674.46,-132.65"/>
</g>
<!-- Node24&#45;&gt;Node21 -->
<g id="edge34" class="edge">
<title>Node24&#45;&gt;Node21</title>
<path fill="none" stroke="midnightblue" d="M636.05,-275.45C625.36,-267.36 608.65,-254.7 595.68,-244.88"/>
<polygon fill="midnightblue" stroke="midnightblue" points="597.5,-241.87 587.42,-238.63 593.28,-247.45 597.5,-241.87"/>
</g>
<!-- Node25 -->
<g id="node25" class="node">
<title>Node25</title>
<g id="a_node25"><a xlink:title=" ">
<polygon fill="white" stroke="#bfbfbf" points="655.17,-220.5 655.17,-238.5 706.2,-238.5 706.2,-220.5 655.17,-220.5"/>
<text text-anchor="middle" x="680.68" y="-226.5" font-family="Helvetica,sans-Serif" font-size="10.00">unistd.h</text>
</a>
</g>
</g>
<!-- Node24&#45;&gt;Node25 -->
<g id="edge35" class="edge">
<title>Node24&#45;&gt;Node25</title>
<path fill="none" stroke="midnightblue" d="M652,-275.22C656.82,-267.71 664.06,-256.41 670.07,-247.05"/>
<polygon fill="midnightblue" stroke="midnightblue" points="673.07,-248.86 675.52,-238.55 667.18,-245.08 673.07,-248.86"/>
</g>
<!-- Node26&#45;&gt;Node2 -->
<g id="edge37" class="edge">
<title>Node26&#45;&gt;Node2</title>
<path fill="none" stroke="midnightblue" d="M172.78,-605.22C178.36,-597.63 186.79,-586.18 193.72,-576.76"/>
<polygon fill="midnightblue" stroke="midnightblue" points="196.65,-578.68 199.76,-568.55 191.02,-574.53 196.65,-578.68"/>
</g>
<!-- Node27 -->
<g id="node27" class="node">
<title>Node27</title>
<g id="a_node27"><a xlink:href="../../d2/d06/txlogger_8h.html" target="_top" xlink:title=" ">
<polygon fill="white" stroke="black" points="0,-550.5 0,-568.5 59.37,-568.5 59.37,-550.5 0,-550.5"/>
<text text-anchor="middle" x="29.68" y="-556.5" font-family="Helvetica,sans-Serif" font-size="10.00">txlogger.h</text>
</a>
</g>
</g>
<!-- Node26&#45;&gt;Node27 -->
<g id="edge38" class="edge">
<title>Node26&#45;&gt;Node27</title>
<path fill="none" stroke="midnightblue" d="M145.88,-605.45C123.04,-596.62 86.18,-582.35 60.1,-572.27"/>
<polygon fill="midnightblue" stroke="midnightblue" points="61.28,-568.97 50.69,-568.63 58.75,-575.5 61.28,-568.97"/>
</g>
<!-- Node30 -->
<g id="node30" class="node">
<title>Node30</title>
<g id="a_node30"><a xlink:href="../../d5/d08/txparam_8h.html" target="_top" xlink:title=" ">
<polygon fill="white" stroke="black" points="77.45,-550.5 77.45,-568.5 137.92,-568.5 137.92,-550.5 77.45,-550.5"/>
<text text-anchor="middle" x="107.68" y="-556.5" font-family="Helvetica,sans-Serif" font-size="10.00">txparam.h</text>
</a>
</g>
</g>
<!-- Node26&#45;&gt;Node30 -->
<g id="edge43" class="edge">
<title>Node26&#45;&gt;Node30</title>
<path fill="none" stroke="midnightblue" d="M157.72,-605.45C148.89,-597.51 135.17,-585.19 124.33,-575.45"/>
<polygon fill="midnightblue" stroke="midnightblue" points="126.51,-572.7 116.73,-568.63 121.83,-577.91 126.51,-572.7"/>
</g>
<!-- Node27&#45;&gt;Node22 -->
<g id="edge41" class="edge">
<title>Node27&#45;&gt;Node22</title>
<path fill="none" stroke="midnightblue" d="M28.68,-550.27C27.53,-537.32 27.13,-511.92 38.68,-495 49.27,-479.5 67.14,-468.78 83.2,-461.76"/>
<polygon fill="midnightblue" stroke="midnightblue" points="84.93,-464.84 92.89,-457.85 82.31,-458.35 84.93,-464.84"/>
</g>
<!-- Node28 -->
<g id="node28" class="node">
<title>Node28</title>
<g id="a_node28"><a xlink:href="../../d7/d4d/txfonts_8h.html" target="_top" xlink:title=" ">
<polygon fill="white" stroke="black" points="119.79,-495.5 119.79,-513.5 173.58,-513.5 173.58,-495.5 119.79,-495.5"/>
<text text-anchor="middle" x="146.68" y="-501.5" font-family="Helvetica,sans-Serif" font-size="10.00">txfonts.h</text>
</a>
</g>
</g>
<!-- Node27&#45;&gt;Node28 -->
<g id="edge39" class="edge">
<title>Node27&#45;&gt;Node28</title>
<path fill="none" stroke="midnightblue" d="M47.45,-550.45C66.61,-541.77 97.33,-527.86 119.52,-517.8"/>
<polygon fill="midnightblue" stroke="midnightblue" points="121.08,-520.94 128.75,-513.63 118.19,-514.56 121.08,-520.94"/>
</g>
<!-- Node29 -->
<g id="node29" class="node">
<title>Node29</title>
<g id="a_node29"><a xlink:title=" ">
<polygon fill="white" stroke="#bfbfbf" points="47.51,-495.5 47.51,-513.5 101.86,-513.5 101.86,-495.5 47.51,-495.5"/>
<text text-anchor="middle" x="74.68" y="-501.5" font-family="Helvetica,sans-Serif" font-size="10.00">iostream</text>
</a>
</g>
</g>
<!-- Node27&#45;&gt;Node29 -->
<g id="edge42" class="edge">
<title>Node27&#45;&gt;Node29</title>
<path fill="none" stroke="midnightblue" d="M36.72,-550.22C43.29,-542.47 53.29,-530.7 61.37,-521.18"/>
<polygon fill="midnightblue" stroke="midnightblue" points="64.05,-523.44 67.85,-513.55 58.71,-518.91 64.05,-523.44"/>
</g>
<!-- Node28&#45;&gt;Node23 -->
<g id="edge40" class="edge">
<title>Node28&#45;&gt;Node23</title>
<path fill="none" stroke="midnightblue" d="M173.81,-497.07C176.8,-496.37 179.81,-495.67 182.68,-495 235.53,-482.76 296.48,-468.98 336.2,-460.04"/>
<polygon fill="midnightblue" stroke="midnightblue" points="337.08,-463.43 346.07,-457.82 335.54,-456.6 337.08,-463.43"/>
</g>
<!-- Node30&#45;&gt;Node3 -->
<g id="edge44" class="edge">
<title>Node30&#45;&gt;Node3</title>
<path fill="none" stroke="midnightblue" d="M124.09,-550.45C141.61,-541.85 169.62,-528.1 190.06,-518.08"/>
<polygon fill="midnightblue" stroke="midnightblue" points="191.69,-521.17 199.13,-513.63 188.61,-514.89 191.69,-521.17"/>
</g>
<!-- Node31&#45;&gt;Node3 -->
<g id="edge54" class="edge">
<title>Node31&#45;&gt;Node3</title>
<path fill="none" stroke="midnightblue" d="M363.89,-605.42C349.98,-596.59 327.13,-581.98 307.68,-569 282.57,-552.24 254.01,-532.41 235.47,-519.42"/>
<polygon fill="midnightblue" stroke="midnightblue" points="237.42,-516.51 227.22,-513.64 233.4,-522.24 237.42,-516.51"/>
</g>
<!-- Node32 -->
<g id="node32" class="node">
<title>Node32</title>
<g id="a_node32"><a xlink:href="../../d3/d6b/txcond_8h.html" target="_top" xlink:title=" ">
<polygon fill="white" stroke="black" points="549.78,-385.5 549.78,-403.5 603.59,-403.5 603.59,-385.5 549.78,-385.5"/>
<text text-anchor="middle" x="576.68" y="-391.5" font-family="Helvetica,sans-Serif" font-size="10.00">txcond.h</text>
</a>
</g>
</g>
<!-- Node31&#45;&gt;Node32 -->
<g id="edge46" class="edge">
<title>Node31&#45;&gt;Node32</title>
<path fill="none" stroke="midnightblue" d="M406.93,-610.23C453.15,-604.59 538.07,-591.39 557.68,-569 596.25,-524.97 587.44,-448.61 580.78,-413.77"/>
<polygon fill="midnightblue" stroke="midnightblue" points="584.14,-412.73 578.68,-403.65 577.29,-414.16 584.14,-412.73"/>
</g>
<!-- Node33 -->
<g id="node33" class="node">
<title>Node33</title>
<g id="a_node33"><a xlink:href="../../d7/d7e/txhash_8h.html" target="_top" xlink:title=" ">
<polygon fill="white" stroke="black" points="349.78,-550.5 349.78,-568.5 403.59,-568.5 403.59,-550.5 349.78,-550.5"/>
<text text-anchor="middle" x="376.68" y="-556.5" font-family="Helvetica,sans-Serif" font-size="10.00">txhash.h</text>
</a>
</g>
</g>
<!-- Node31&#45;&gt;Node33 -->
<g id="edge48" class="edge">
<title>Node31&#45;&gt;Node33</title>
<path fill="none" stroke="midnightblue" d="M376.68,-605.22C376.68,-598.18 376.68,-587.81 376.68,-578.83"/>
<polygon fill="midnightblue" stroke="midnightblue" points="380.18,-578.55 376.68,-568.55 373.18,-578.55 380.18,-578.55"/>
</g>
<!-- Node35 -->
<g id="node35" class="node">
<title>Node35</title>
<g id="a_node35"><a xlink:href="../../de/d7c/tximage_8h.html" target="_top" xlink:title=" ">
<polygon fill="white" stroke="black" points="185.01,-275.5 185.01,-293.5 244.36,-293.5 244.36,-275.5 185.01,-275.5"/>
<text text-anchor="middle" x="214.68" y="-281.5" font-family="Helvetica,sans-Serif" font-size="10.00">tximage.h</text>
</a>
</g>
</g>
<!-- Node31&#45;&gt;Node35 -->
<g id="edge51" class="edge">
<title>Node31&#45;&gt;Node35</title>
<path fill="none" stroke="midnightblue" d="M369.09,-605.46C361.27,-596.9 349.09,-582.73 340.68,-569 283.02,-474.78 236.88,-349.57 220.81,-303.5"/>
<polygon fill="midnightblue" stroke="midnightblue" points="224.03,-302.09 217.46,-293.78 217.41,-304.37 224.03,-302.09"/>
</g>
<!-- Node36 -->
<g id="node36" class="node">
<title>Node36</title>
<g id="a_node36"><a xlink:href="../../dc/d65/txstack_8h.html" target="_top" xlink:title=" ">
<polygon fill="white" stroke="black" points="421.96,-550.5 421.96,-568.5 477.41,-568.5 477.41,-550.5 421.96,-550.5"/>
<text text-anchor="middle" x="449.68" y="-556.5" font-family="Helvetica,sans-Serif" font-size="10.00">txstack.h</text>
</a>
</g>
</g>
<!-- Node31&#45;&gt;Node36 -->
<g id="edge55" class="edge">
<title>Node31&#45;&gt;Node36</title>
<path fill="none" stroke="midnightblue" d="M387.77,-605.45C399.03,-597.28 416.68,-584.46 430.26,-574.6"/>
<polygon fill="midnightblue" stroke="midnightblue" points="432.46,-577.33 438.49,-568.63 428.34,-571.67 432.46,-577.33"/>
</g>
<!-- Node39 -->
<g id="node39" class="node">
<title>Node39</title>
<g id="a_node39"><a xlink:href="../../d8/d3d/txstats_8h.html" target="_top" xlink:title=" ">
<polygon fill="white" stroke="black" points="495.07,-550.5 495.07,-568.5 548.3,-568.5 548.3,-550.5 495.07,-550.5"/>
<text text-anchor="middle" x="521.68" y="-556.5" font-family="Helvetica,sans-Serif" font-size="10.00">txstats.h</text>
</a>
</g>
</g>
<!-- Node31&#45;&gt;Node39 -->
<g id="edge59" class="edge">
<title>Node31&#45;&gt;Node39</title>
<path fill="none" stroke="midnightblue" d="M398.71,-605.45C422.98,-596.58 462.24,-582.23 489.86,-572.13"/>
<polygon fill="midnightblue" stroke="midnightblue" points="491.26,-575.35 499.45,-568.63 488.86,-568.77 491.26,-575.35"/>
</g>
<!-- Node32&#45;&gt;Node21 -->
<g id="edge47" class="edge">
<title>Node32&#45;&gt;Node21</title>
<path fill="none" stroke="midnightblue" d="M576.68,-385.19C576.68,-360.01 576.68,-284.11 576.68,-248.86"/>
<polygon fill="midnightblue" stroke="midnightblue" points="580.18,-248.6 576.68,-238.6 573.18,-248.6 580.18,-248.6"/>
</g>
<!-- Node34 -->
<g id="node34" class="node">
<title>Node34</title>
<g id="a_node34"><a xlink:href="../../d3/d01/txeqtb_8h.html" target="_top" xlink:title=" ">
<polygon fill="white" stroke="black" points="350.89,-495.5 350.89,-513.5 402.48,-513.5 402.48,-495.5 350.89,-495.5"/>
<text text-anchor="middle" x="376.68" y="-501.5" font-family="Helvetica,sans-Serif" font-size="10.00">txeqtb.h</text>
</a>
</g>
</g>
<!-- Node33&#45;&gt;Node34 -->
<g id="edge49" class="edge">
<title>Node33&#45;&gt;Node34</title>
<path fill="none" stroke="midnightblue" d="M376.68,-550.22C376.68,-543.18 376.68,-532.81 376.68,-523.83"/>
<polygon fill="midnightblue" stroke="midnightblue" points="380.18,-523.55 376.68,-513.55 373.18,-523.55 380.18,-523.55"/>
</g>
<!-- Node34&#45;&gt;Node23 -->
<g id="edge50" class="edge">
<title>Node34&#45;&gt;Node23</title>
<path fill="none" stroke="midnightblue" d="M377,-495.22C377.26,-488.18 377.65,-477.81 377.99,-468.83"/>
<polygon fill="midnightblue" stroke="midnightblue" points="381.5,-468.67 378.38,-458.55 374.51,-468.41 381.5,-468.67"/>
</g>
<!-- Node35&#45;&gt;Node11 -->
<g id="edge52" class="edge">
<title>Node35&#45;&gt;Node11</title>
<path fill="none" stroke="midnightblue" d="M205.88,-275.27C193.08,-262.31 172.33,-236.9 186.68,-220 194.45,-210.86 357.46,-188.59 426.85,-179.48"/>
<polygon fill="midnightblue" stroke="midnightblue" points="427.68,-182.9 437.14,-178.14 426.78,-175.96 427.68,-182.9"/>
</g>
<!-- Node35&#45;&gt;Node19 -->
<g id="edge53" class="edge">
<title>Node35&#45;&gt;Node19</title>
<path fill="none" stroke="midnightblue" d="M214.68,-275.22C214.68,-268.18 214.68,-257.81 214.68,-248.83"/>
<polygon fill="midnightblue" stroke="midnightblue" points="218.18,-248.55 214.68,-238.55 211.18,-248.55 218.18,-248.55"/>
</g>
<!-- Node37 -->
<g id="node37" class="node">
<title>Node37</title>
<g id="a_node37"><a xlink:href="../../d4/da4/txatt_8h.html" target="_top" xlink:title=" ">
<polygon fill="white" stroke="black" points="486.07,-495.5 486.07,-513.5 529.3,-513.5 529.3,-495.5 486.07,-495.5"/>
<text text-anchor="middle" x="507.68" y="-501.5" font-family="Helvetica,sans-Serif" font-size="10.00">txatt.h</text>
</a>
</g>
</g>
<!-- Node36&#45;&gt;Node37 -->
<g id="edge56" class="edge">
<title>Node36&#45;&gt;Node37</title>
<path fill="none" stroke="midnightblue" d="M458.75,-550.22C467.48,-542.24 480.89,-529.98 491.47,-520.32"/>
<polygon fill="midnightblue" stroke="midnightblue" points="493.85,-522.88 498.88,-513.55 489.13,-517.71 493.85,-522.88"/>
</g>
<!-- Node38 -->
<g id="node38" class="node">
<title>Node38</title>
<g id="a_node38"><a xlink:href="../../d1/d43/txxml_8h.html" target="_top" xlink:title=" ">
<polygon fill="white" stroke="black" points="420.85,-495.5 420.85,-513.5 468.52,-513.5 468.52,-495.5 420.85,-495.5"/>
<text text-anchor="middle" x="444.68" y="-501.5" font-family="Helvetica,sans-Serif" font-size="10.00">txxml.h</text>
</a>
</g>
</g>
<!-- Node36&#45;&gt;Node38 -->
<g id="edge58" class="edge">
<title>Node36&#45;&gt;Node38</title>
<path fill="none" stroke="midnightblue" d="M448.9,-550.22C448.23,-543.1 447.24,-532.58 446.39,-523.53"/>
<polygon fill="midnightblue" stroke="midnightblue" points="449.87,-523.18 445.44,-513.55 442.9,-523.83 449.87,-523.18"/>
</g>
<!-- Node37&#45;&gt;Node23 -->
<g id="edge57" class="edge">
<title>Node37&#45;&gt;Node23</title>
<path fill="none" stroke="midnightblue" d="M488.09,-495.45C466.78,-486.7 432.49,-472.61 407.98,-462.53"/>
<polygon fill="midnightblue" stroke="midnightblue" points="409.04,-459.19 398.46,-458.63 406.38,-465.66 409.04,-459.19"/>
</g>
</g>
</svg>
