<?xml version="1.0" encoding="UTF-8" standalone="no"?>
<!DOCTYPE svg PUBLIC "-//W3C//DTD SVG 1.1//EN"
 "http://www.w3.org/Graphics/SVG/1.1/DTD/svg11.dtd">
<!-- Generated by graphviz version 2.42.3 (20191010.1750)
 -->
<!-- Title: Logger.cpp Pages: 1 -->
<svg width="725pt" height="852pt"
 viewBox="0.00 0.00 724.79 852.00" xmlns="http://www.w3.org/2000/svg" xmlns:xlink="http://www.w3.org/1999/xlink">
<g id="graph0" class="graph" transform="scale(1 1) rotate(0) translate(4 848)">
<title>Logger.cpp</title>
<!-- Node1 -->
<g id="node1" class="node">
<title>Node1</title>
<g id="a_node1"><a xlink:title=" ">
<polygon fill="#bfbfbf" stroke="black" points="402.04,-825.5 402.04,-843.5 467.53,-843.5 467.53,-825.5 402.04,-825.5"/>
<text text-anchor="middle" x="434.79" y="-831.5" font-family="Helvetica,sans-Serif" font-size="10.00">Logger.cpp</text>
</a>
</g>
</g>
<!-- Node2 -->
<g id="node2" class="node">
<title>Node2</title>
<g id="a_node2"><a xlink:href="../../d6/dec/_logger_8h.html" target="_top" xlink:title=" ">
<polygon fill="none" stroke="black" points="293.87,-660.5 293.87,-678.5 377.7,-678.5 377.7,-660.5 293.87,-660.5"/>
<text text-anchor="middle" x="335.79" y="-666.5" font-family="Helvetica,sans-Serif" font-size="10.00">tralics/Logger.h</text>
</a>
</g>
</g>
<!-- Node1&#45;&gt;Node2 -->
<g id="edge1" class="edge">
<title>Node1&#45;&gt;Node2</title>
<path fill="none" stroke="midnightblue" d="M429.74,-825.19C414.25,-799.68 367.14,-722.13 346.11,-687.5"/>
<polygon fill="midnightblue" stroke="midnightblue" points="348.89,-685.33 340.7,-678.6 342.9,-688.96 348.89,-685.33"/>
</g>
<!-- Node31 -->
<g id="node31" class="node">
<title>Node31</title>
<g id="a_node31"><a xlink:title=" ">
<polygon fill="none" stroke="#bfbfbf" points="385.76,-605.5 385.76,-623.5 471.81,-623.5 471.81,-605.5 385.76,-605.5"/>
<text text-anchor="middle" x="428.79" y="-611.5" font-family="Helvetica,sans-Serif" font-size="10.00">spdlog/spdlog.h</text>
</a>
</g>
</g>
<!-- Node1&#45;&gt;Node31 -->
<g id="edge70" class="edge">
<title>Node1&#45;&gt;Node31</title>
<path fill="none" stroke="midnightblue" d="M434.56,-825.48C433.7,-794.11 430.54,-679.16 429.29,-633.94"/>
<polygon fill="midnightblue" stroke="midnightblue" points="432.79,-633.72 429.01,-623.82 425.79,-633.92 432.79,-633.72"/>
</g>
<!-- Node32 -->
<g id="node32" class="node">
<title>Node32</title>
<g id="a_node32"><a xlink:href="../../de/d40/_parser_8h.html" target="_top" xlink:title=" ">
<polygon fill="none" stroke="black" points="180.72,-770.5 180.72,-788.5 262.85,-788.5 262.85,-770.5 180.72,-770.5"/>
<text text-anchor="middle" x="221.79" y="-776.5" font-family="Helvetica,sans-Serif" font-size="10.00">tralics/Parser.h</text>
</a>
</g>
</g>
<!-- Node1&#45;&gt;Node32 -->
<g id="edge36" class="edge">
<title>Node1&#45;&gt;Node32</title>
<path fill="none" stroke="midnightblue" d="M402.44,-825.45C365.42,-816.24 304.69,-801.13 263.98,-791"/>
<polygon fill="midnightblue" stroke="midnightblue" points="264.64,-787.56 254.09,-788.54 262.95,-794.35 264.64,-787.56"/>
</g>
<!-- Node46 -->
<g id="node46" class="node">
<title>Node46</title>
<g id="a_node46"><a xlink:href="../../d5/d87/globals_8h.html" target="_top" xlink:title=" ">
<polygon fill="none" stroke="black" points="515.33,-330.5 515.33,-348.5 600.25,-348.5 600.25,-330.5 515.33,-330.5"/>
<text text-anchor="middle" x="557.79" y="-336.5" font-family="Helvetica,sans-Serif" font-size="10.00">tralics/globals.h</text>
</a>
</g>
</g>
<!-- Node1&#45;&gt;Node46 -->
<g id="edge65" class="edge">
<title>Node1&#45;&gt;Node46</title>
<path fill="none" stroke="midnightblue" d="M467.69,-828.08C542.08,-814.9 716.79,-778.32 716.79,-725.5 716.79,-725.5 716.79,-725.5 716.79,-448.5 716.79,-393.98 652.03,-365.06 605.16,-351.27"/>
<polygon fill="midnightblue" stroke="midnightblue" points="606.04,-347.88 595.47,-348.56 604.15,-354.62 606.04,-347.88"/>
</g>
<!-- Node3 -->
<g id="node3" class="node">
<title>Node3</title>
<g id="a_node3"><a xlink:href="../../d7/d79/txinline_8h.html" target="_top" xlink:title=" ">
<polygon fill="none" stroke="black" points="303.88,-605.5 303.88,-623.5 367.69,-623.5 367.69,-605.5 303.88,-605.5"/>
<text text-anchor="middle" x="335.79" y="-611.5" font-family="Helvetica,sans-Serif" font-size="10.00">../txinline.h</text>
</a>
</g>
</g>
<!-- Node2&#45;&gt;Node3 -->
<g id="edge2" class="edge">
<title>Node2&#45;&gt;Node3</title>
<path fill="none" stroke="midnightblue" d="M335.79,-660.22C335.79,-653.18 335.79,-642.81 335.79,-633.83"/>
<polygon fill="midnightblue" stroke="midnightblue" points="339.29,-633.55 335.79,-623.55 332.29,-633.55 339.29,-633.55"/>
</g>
<!-- Node30 -->
<g id="node30" class="node">
<title>Node30</title>
<g id="a_node30"><a xlink:title=" ">
<polygon fill="none" stroke="#bfbfbf" points="233.73,-605.5 233.73,-623.5 285.84,-623.5 285.84,-605.5 233.73,-605.5"/>
<text text-anchor="middle" x="259.79" y="-611.5" font-family="Helvetica,sans-Serif" font-size="10.00">memory</text>
</a>
</g>
</g>
<!-- Node2&#45;&gt;Node30 -->
<g id="edge34" class="edge">
<title>Node2&#45;&gt;Node30</title>
<path fill="none" stroke="midnightblue" d="M324.24,-660.45C312.53,-652.28 294.14,-639.46 280,-629.6"/>
<polygon fill="midnightblue" stroke="midnightblue" points="281.64,-626.47 271.44,-623.63 277.64,-632.22 281.64,-626.47"/>
</g>
<!-- Node2&#45;&gt;Node31 -->
<g id="edge35" class="edge">
<title>Node2&#45;&gt;Node31</title>
<path fill="none" stroke="midnightblue" d="M349.91,-660.45C364.66,-652.05 388.03,-638.72 405.51,-628.76"/>
<polygon fill="midnightblue" stroke="midnightblue" points="407.57,-631.62 414.53,-623.63 404.11,-625.54 407.57,-631.62"/>
</g>
<!-- Node4 -->
<g id="node4" class="node">
<title>Node4</title>
<g id="a_node4"><a xlink:href="../../d4/de9/_main_class_8h.html" target="_top" xlink:title=" ">
<polygon fill="none" stroke="black" points="233.83,-550.5 233.83,-568.5 333.74,-568.5 333.74,-550.5 233.83,-550.5"/>
<text text-anchor="middle" x="283.79" y="-556.5" font-family="Helvetica,sans-Serif" font-size="10.00">tralics/MainClass.h</text>
</a>
</g>
</g>
<!-- Node3&#45;&gt;Node4 -->
<g id="edge3" class="edge">
<title>Node3&#45;&gt;Node4</title>
<path fill="none" stroke="midnightblue" d="M327.66,-605.22C319.98,-597.39 308.28,-585.46 298.89,-575.89"/>
<polygon fill="midnightblue" stroke="midnightblue" points="301.19,-573.24 291.68,-568.55 296.19,-578.14 301.19,-573.24"/>
</g>
<!-- Node29 -->
<g id="node29" class="node">
<title>Node29</title>
<g id="a_node29"><a xlink:href="../../d5/d08/txparam_8h.html" target="_top" xlink:title=" ">
<polygon fill="none" stroke="black" points="351.55,-550.5 351.55,-568.5 412.02,-568.5 412.02,-550.5 351.55,-550.5"/>
<text text-anchor="middle" x="381.79" y="-556.5" font-family="Helvetica,sans-Serif" font-size="10.00">txparam.h</text>
</a>
</g>
</g>
<!-- Node3&#45;&gt;Node29 -->
<g id="edge32" class="edge">
<title>Node3&#45;&gt;Node29</title>
<path fill="none" stroke="midnightblue" d="M342.97,-605.22C349.7,-597.47 359.91,-585.7 368.18,-576.18"/>
<polygon fill="midnightblue" stroke="midnightblue" points="370.89,-578.4 374.8,-568.55 365.6,-573.81 370.89,-578.4"/>
</g>
<!-- Node5 -->
<g id="node5" class="node">
<title>Node5</title>
<g id="a_node5"><a xlink:href="../../de/d29/txio_8h.html" target="_top" xlink:title=" ">
<polygon fill="none" stroke="black" points="260.67,-495.5 260.67,-513.5 308.9,-513.5 308.9,-495.5 260.67,-495.5"/>
<text text-anchor="middle" x="284.79" y="-501.5" font-family="Helvetica,sans-Serif" font-size="10.00">../txio.h</text>
</a>
</g>
</g>
<!-- Node4&#45;&gt;Node5 -->
<g id="edge4" class="edge">
<title>Node4&#45;&gt;Node5</title>
<path fill="none" stroke="midnightblue" d="M283.94,-550.22C284.07,-543.18 284.27,-532.81 284.44,-523.83"/>
<polygon fill="midnightblue" stroke="midnightblue" points="287.94,-523.61 284.63,-513.55 280.95,-523.48 287.94,-523.61"/>
</g>
<!-- Node6 -->
<g id="node6" class="node">
<title>Node6</title>
<g id="a_node6"><a xlink:href="../../d7/d1b/_buffer_8h.html" target="_top" xlink:title=" ">
<polygon fill="none" stroke="black" points="505.19,-440.5 505.19,-458.5 584.38,-458.5 584.38,-440.5 505.19,-440.5"/>
<text text-anchor="middle" x="544.79" y="-446.5" font-family="Helvetica,sans-Serif" font-size="10.00">tralics/Buffer.h</text>
</a>
</g>
</g>
<!-- Node5&#45;&gt;Node6 -->
<g id="edge5" class="edge">
<title>Node5&#45;&gt;Node6</title>
<path fill="none" stroke="midnightblue" d="M309.25,-498.51C351.73,-489.85 439.93,-471.87 495.52,-460.54"/>
<polygon fill="midnightblue" stroke="midnightblue" points="496.4,-463.93 505.5,-458.51 495.01,-457.08 496.4,-463.93"/>
</g>
<!-- Node28 -->
<g id="node28" class="node">
<title>Node28</title>
<g id="a_node28"><a xlink:title=" ">
<polygon fill="none" stroke="#bfbfbf" points="259.12,-440.5 259.12,-458.5 308.46,-458.5 308.46,-440.5 259.12,-440.5"/>
<text text-anchor="middle" x="283.79" y="-446.5" font-family="Helvetica,sans-Serif" font-size="10.00">fstream</text>
</a>
</g>
</g>
<!-- Node5&#45;&gt;Node28 -->
<g id="edge31" class="edge">
<title>Node5&#45;&gt;Node28</title>
<path fill="none" stroke="midnightblue" d="M284.63,-495.22C284.5,-488.18 284.3,-477.81 284.13,-468.83"/>
<polygon fill="midnightblue" stroke="midnightblue" points="287.63,-468.48 283.94,-458.55 280.63,-468.61 287.63,-468.48"/>
</g>
<!-- Node7 -->
<g id="node7" class="node">
<title>Node7</title>
<g id="a_node7"><a xlink:href="../../d1/d9e/txid_8h.html" target="_top" xlink:title=" ">
<polygon fill="none" stroke="black" points="308.67,-385.5 308.67,-403.5 356.9,-403.5 356.9,-385.5 308.67,-385.5"/>
<text text-anchor="middle" x="332.79" y="-391.5" font-family="Helvetica,sans-Serif" font-size="10.00">../txid.h</text>
</a>
</g>
</g>
<!-- Node6&#45;&gt;Node7 -->
<g id="edge6" class="edge">
<title>Node6&#45;&gt;Node7</title>
<path fill="none" stroke="midnightblue" d="M512.59,-440.45C473.27,-430.62 407.05,-414.07 366.89,-404.03"/>
<polygon fill="midnightblue" stroke="midnightblue" points="367.58,-400.59 357.03,-401.56 365.88,-407.38 367.58,-400.59"/>
</g>
<!-- Node17 -->
<g id="node17" class="node">
<title>Node17</title>
<g id="a_node17"><a xlink:href="../../d9/d18/txscaled_8h.html" target="_top" xlink:title=" ">
<polygon fill="none" stroke="black" points="221.11,-385.5 221.11,-403.5 290.47,-403.5 290.47,-385.5 221.11,-385.5"/>
<text text-anchor="middle" x="255.79" y="-391.5" font-family="Helvetica,sans-Serif" font-size="10.00">../txscaled.h</text>
</a>
</g>
</g>
<!-- Node6&#45;&gt;Node17 -->
<g id="edge16" class="edge">
<title>Node6&#45;&gt;Node17</title>
<path fill="none" stroke="midnightblue" d="M504.87,-441.39C458.35,-433.07 378.88,-418.77 300.85,-404.18"/>
<polygon fill="midnightblue" stroke="midnightblue" points="301.32,-400.71 290.84,-402.31 300.03,-407.59 301.32,-400.71"/>
</g>
<!-- Node25 -->
<g id="node25" class="node">
<title>Node25</title>
<g id="a_node25"><a xlink:title=" ">
<polygon fill="none" stroke="#bfbfbf" points="519.06,-385.5 519.06,-403.5 564.51,-403.5 564.51,-385.5 519.06,-385.5"/>
<text text-anchor="middle" x="541.79" y="-391.5" font-family="Helvetica,sans-Serif" font-size="10.00">cstring</text>
</a>
</g>
</g>
<!-- Node6&#45;&gt;Node25 -->
<g id="edge28" class="edge">
<title>Node6&#45;&gt;Node25</title>
<path fill="none" stroke="midnightblue" d="M544.32,-440.22C543.92,-433.18 543.33,-422.81 542.82,-413.83"/>
<polygon fill="midnightblue" stroke="midnightblue" points="546.3,-413.34 542.24,-403.55 539.31,-413.73 546.3,-413.34"/>
</g>
<!-- Node26 -->
<g id="node26" class="node">
<title>Node26</title>
<g id="a_node26"><a xlink:title=" ">
<polygon fill="none" stroke="#bfbfbf" points="582.61,-385.5 582.61,-403.5 636.96,-403.5 636.96,-385.5 582.61,-385.5"/>
<text text-anchor="middle" x="609.79" y="-391.5" font-family="Helvetica,sans-Serif" font-size="10.00">iostream</text>
</a>
</g>
</g>
<!-- Node6&#45;&gt;Node26 -->
<g id="edge29" class="edge">
<title>Node6&#45;&gt;Node26</title>
<path fill="none" stroke="midnightblue" d="M554.66,-440.45C564.49,-432.43 579.8,-419.95 591.8,-410.17"/>
<polygon fill="midnightblue" stroke="midnightblue" points="594.28,-412.66 599.82,-403.63 589.86,-407.23 594.28,-412.66"/>
</g>
<!-- Node27 -->
<g id="node27" class="node">
<title>Node27</title>
<g id="a_node27"><a xlink:title=" ">
<polygon fill="none" stroke="#bfbfbf" points="466.17,-275.5 466.17,-293.5 509.4,-293.5 509.4,-275.5 466.17,-275.5"/>
<text text-anchor="middle" x="487.79" y="-281.5" font-family="Helvetica,sans-Serif" font-size="10.00">vector</text>
</a>
</g>
</g>
<!-- Node6&#45;&gt;Node27 -->
<g id="edge30" class="edge">
<title>Node6&#45;&gt;Node27</title>
<path fill="none" stroke="midnightblue" d="M536.45,-440.46C528.32,-432.13 516.27,-418.33 509.79,-404 494.73,-370.74 489.98,-327.78 488.48,-303.79"/>
<polygon fill="midnightblue" stroke="midnightblue" points="491.97,-303.47 487.97,-293.66 484.98,-303.82 491.97,-303.47"/>
</g>
<!-- Node8 -->
<g id="node8" class="node">
<title>Node8</title>
<g id="a_node8"><a xlink:href="../../d5/daf/_istring_8h.html" target="_top" xlink:title=" ">
<polygon fill="none" stroke="black" points="206.55,-275.5 206.55,-293.5 287.02,-293.5 287.02,-275.5 206.55,-275.5"/>
<text text-anchor="middle" x="246.79" y="-281.5" font-family="Helvetica,sans-Serif" font-size="10.00">tralics/Istring.h</text>
</a>
</g>
</g>
<!-- Node7&#45;&gt;Node8 -->
<g id="edge7" class="edge">
<title>Node7&#45;&gt;Node8</title>
<path fill="none" stroke="midnightblue" d="M343.39,-385.39C358.23,-373.02 382.01,-348.9 368.79,-330 359.54,-316.79 322.55,-304.45 291.7,-296.13"/>
<polygon fill="midnightblue" stroke="midnightblue" points="292.5,-292.72 281.94,-293.58 290.73,-299.5 292.5,-292.72"/>
</g>
<!-- Node9 -->
<g id="node9" class="node">
<title>Node9</title>
<g id="a_node9"><a xlink:href="../../d0/d0b/enums_8h.html" target="_top" xlink:title=" ">
<polygon fill="none" stroke="black" points="189.61,-165.5 189.61,-183.5 243.96,-183.5 243.96,-165.5 189.61,-165.5"/>
<text text-anchor="middle" x="216.79" y="-171.5" font-family="Helvetica,sans-Serif" font-size="10.00">enums.h</text>
</a>
</g>
</g>
<!-- Node8&#45;&gt;Node9 -->
<g id="edge8" class="edge">
<title>Node8&#45;&gt;Node9</title>
<path fill="none" stroke="midnightblue" d="M244.53,-275.38C239.73,-258.1 228.4,-217.33 221.8,-193.56"/>
<polygon fill="midnightblue" stroke="midnightblue" points="225.12,-192.41 219.07,-183.71 218.37,-194.28 225.12,-192.41"/>
</g>
<!-- Node15 -->
<g id="node15" class="node">
<title>Node15</title>
<g id="a_node15"><a xlink:title=" ">
<polygon fill="none" stroke="#bfbfbf" points="244.39,-220.5 244.39,-238.5 283.18,-238.5 283.18,-220.5 244.39,-220.5"/>
<text text-anchor="middle" x="263.79" y="-226.5" font-family="Helvetica,sans-Serif" font-size="10.00">array</text>
</a>
</g>
</g>
<!-- Node8&#45;&gt;Node15 -->
<g id="edge14" class="edge">
<title>Node8&#45;&gt;Node15</title>
<path fill="none" stroke="midnightblue" d="M249.44,-275.22C251.75,-268.02 255.17,-257.35 258.1,-248.23"/>
<polygon fill="midnightblue" stroke="midnightblue" points="261.48,-249.14 261.2,-238.55 254.82,-247 261.48,-249.14"/>
</g>
<!-- Node16 -->
<g id="node16" class="node">
<title>Node16</title>
<g id="a_node16"><a xlink:title=" ">
<polygon fill="none" stroke="#bfbfbf" points="87.56,-220.5 87.56,-238.5 128.01,-238.5 128.01,-220.5 87.56,-220.5"/>
<text text-anchor="middle" x="107.79" y="-226.5" font-family="Helvetica,sans-Serif" font-size="10.00">string</text>
</a>
</g>
</g>
<!-- Node8&#45;&gt;Node16 -->
<g id="edge15" class="edge">
<title>Node8&#45;&gt;Node16</title>
<path fill="none" stroke="midnightblue" d="M225.67,-275.45C202.24,-266.51 164.23,-252.02 137.73,-241.92"/>
<polygon fill="midnightblue" stroke="midnightblue" points="138.78,-238.57 128.19,-238.28 136.29,-245.11 138.78,-238.57"/>
</g>
<!-- Node10 -->
<g id="node10" class="node">
<title>Node10</title>
<g id="a_node10"><a xlink:href="../../d8/db5/consts_8h.html" target="_top" xlink:title=" ">
<polygon fill="none" stroke="black" points="190.17,-110.5 190.17,-128.5 243.41,-128.5 243.41,-110.5 190.17,-110.5"/>
<text text-anchor="middle" x="216.79" y="-116.5" font-family="Helvetica,sans-Serif" font-size="10.00">consts.h</text>
</a>
</g>
</g>
<!-- Node9&#45;&gt;Node10 -->
<g id="edge9" class="edge">
<title>Node9&#45;&gt;Node10</title>
<path fill="none" stroke="midnightblue" d="M216.79,-165.22C216.79,-158.18 216.79,-147.81 216.79,-138.83"/>
<polygon fill="midnightblue" stroke="midnightblue" points="220.29,-138.55 216.79,-128.55 213.29,-138.55 220.29,-138.55"/>
</g>
<!-- Node11 -->
<g id="node11" class="node">
<title>Node11</title>
<g id="a_node11"><a xlink:href="../../d9/d49/types_8h.html" target="_top" xlink:title=" ">
<polygon fill="none" stroke="black" points="192.67,-55.5 192.67,-73.5 240.91,-73.5 240.91,-55.5 192.67,-55.5"/>
<text text-anchor="middle" x="216.79" y="-61.5" font-family="Helvetica,sans-Serif" font-size="10.00">types.h</text>
</a>
</g>
</g>
<!-- Node10&#45;&gt;Node11 -->
<g id="edge10" class="edge">
<title>Node10&#45;&gt;Node11</title>
<path fill="none" stroke="midnightblue" d="M216.79,-110.22C216.79,-103.18 216.79,-92.81 216.79,-83.83"/>
<polygon fill="midnightblue" stroke="midnightblue" points="220.29,-83.55 216.79,-73.55 213.29,-83.55 220.29,-83.55"/>
</g>
<!-- Node12 -->
<g id="node12" class="node">
<title>Node12</title>
<g id="a_node12"><a xlink:title=" ">
<polygon fill="none" stroke="#bfbfbf" points="249.67,-0.5 249.67,-18.5 297.9,-18.5 297.9,-0.5 249.67,-0.5"/>
<text text-anchor="middle" x="273.79" y="-6.5" font-family="Helvetica,sans-Serif" font-size="10.00">cassert</text>
</a>
</g>
</g>
<!-- Node11&#45;&gt;Node12 -->
<g id="edge11" class="edge">
<title>Node11&#45;&gt;Node12</title>
<path fill="none" stroke="midnightblue" d="M225.69,-55.22C234.19,-47.32 247.2,-35.22 257.54,-25.61"/>
<polygon fill="midnightblue" stroke="midnightblue" points="260.19,-27.92 265.13,-18.55 255.42,-22.8 260.19,-27.92"/>
</g>
<!-- Node13 -->
<g id="node13" class="node">
<title>Node13</title>
<g id="a_node13"><a xlink:title=" ">
<polygon fill="none" stroke="#bfbfbf" points="71.67,-0.5 71.67,-18.5 119.91,-18.5 119.91,-0.5 71.67,-0.5"/>
<text text-anchor="middle" x="95.79" y="-6.5" font-family="Helvetica,sans-Serif" font-size="10.00">cstddef</text>
</a>
</g>
</g>
<!-- Node11&#45;&gt;Node13 -->
<g id="edge12" class="edge">
<title>Node11&#45;&gt;Node13</title>
<path fill="none" stroke="midnightblue" d="M198.41,-55.45C178.51,-46.73 146.54,-32.73 123.57,-22.67"/>
<polygon fill="midnightblue" stroke="midnightblue" points="124.9,-19.43 114.34,-18.63 122.09,-25.84 124.9,-19.43"/>
</g>
<!-- Node14 -->
<g id="node14" class="node">
<title>Node14</title>
<g id="a_node14"><a xlink:title=" ">
<polygon fill="none" stroke="#bfbfbf" points="169.72,-0.5 169.72,-18.5 231.85,-18.5 231.85,-0.5 169.72,-0.5"/>
<text text-anchor="middle" x="200.79" y="-6.5" font-family="Helvetica,sans-Serif" font-size="10.00">type_traits</text>
</a>
</g>
</g>
<!-- Node11&#45;&gt;Node14 -->
<g id="edge13" class="edge">
<title>Node11&#45;&gt;Node14</title>
<path fill="none" stroke="midnightblue" d="M214.29,-55.22C212.11,-48.02 208.89,-37.35 206.14,-28.23"/>
<polygon fill="midnightblue" stroke="midnightblue" points="209.46,-27.11 203.22,-18.55 202.76,-29.13 209.46,-27.11"/>
</g>
<!-- Node18 -->
<g id="node18" class="node">
<title>Node18</title>
<g id="a_node18"><a xlink:href="../../dc/d91/txtokenlist_8h.html" target="_top" xlink:title=" ">
<polygon fill="none" stroke="black" points="211.38,-330.5 211.38,-348.5 280.19,-348.5 280.19,-330.5 211.38,-330.5"/>
<text text-anchor="middle" x="245.79" y="-336.5" font-family="Helvetica,sans-Serif" font-size="10.00">txtokenlist.h</text>
</a>
</g>
</g>
<!-- Node17&#45;&gt;Node18 -->
<g id="edge17" class="edge">
<title>Node17&#45;&gt;Node18</title>
<path fill="none" stroke="midnightblue" d="M254.22,-385.22C252.88,-378.1 250.89,-367.58 249.19,-358.53"/>
<polygon fill="midnightblue" stroke="midnightblue" points="252.6,-357.73 247.3,-348.55 245.72,-359.03 252.6,-357.73"/>
</g>
<!-- Node18&#45;&gt;Node8 -->
<g id="edge18" class="edge">
<title>Node18&#45;&gt;Node8</title>
<path fill="none" stroke="midnightblue" d="M245.94,-330.22C246.07,-323.18 246.27,-312.81 246.44,-303.83"/>
<polygon fill="midnightblue" stroke="midnightblue" points="249.94,-303.61 246.63,-293.55 242.95,-303.48 249.94,-303.61"/>
</g>
<!-- Node19 -->
<g id="node19" class="node">
<title>Node19</title>
<g id="a_node19"><a xlink:href="../../dd/dcd/_token_8h.html" target="_top" xlink:title=" ">
<polygon fill="none" stroke="black" points="304.83,-275.5 304.83,-293.5 384.74,-293.5 384.74,-275.5 304.83,-275.5"/>
<text text-anchor="middle" x="344.79" y="-281.5" font-family="Helvetica,sans-Serif" font-size="10.00">tralics/Token.h</text>
</a>
</g>
</g>
<!-- Node18&#45;&gt;Node19 -->
<g id="edge19" class="edge">
<title>Node18&#45;&gt;Node19</title>
<path fill="none" stroke="midnightblue" d="M260.82,-330.45C276.74,-321.93 302.1,-308.35 320.79,-298.35"/>
<polygon fill="midnightblue" stroke="midnightblue" points="322.44,-301.43 329.61,-293.63 319.14,-295.26 322.44,-301.43"/>
</g>
<!-- Node24 -->
<g id="node24" class="node">
<title>Node24</title>
<g id="a_node24"><a xlink:title=" ">
<polygon fill="none" stroke="#bfbfbf" points="112.39,-275.5 112.39,-293.5 151.18,-293.5 151.18,-275.5 112.39,-275.5"/>
<text text-anchor="middle" x="131.79" y="-281.5" font-family="Helvetica,sans-Serif" font-size="10.00">utility</text>
</a>
</g>
</g>
<!-- Node18&#45;&gt;Node24 -->
<g id="edge27" class="edge">
<title>Node18&#45;&gt;Node24</title>
<path fill="none" stroke="midnightblue" d="M228.47,-330.45C209.89,-321.81 180.14,-307.98 158.54,-297.94"/>
<polygon fill="midnightblue" stroke="midnightblue" points="159.81,-294.67 149.26,-293.63 156.86,-301.01 159.81,-294.67"/>
</g>
<!-- Node19&#45;&gt;Node15 -->
<g id="edge25" class="edge">
<title>Node19&#45;&gt;Node15</title>
<path fill="none" stroke="midnightblue" d="M332.48,-275.45C319.88,-267.2 300.03,-254.22 284.9,-244.32"/>
<polygon fill="midnightblue" stroke="midnightblue" points="286.49,-241.17 276.2,-238.63 282.66,-247.03 286.49,-241.17"/>
</g>
<!-- Node20 -->
<g id="node20" class="node">
<title>Node20</title>
<g id="a_node20"><a xlink:href="../../d2/d68/_cmd_chr_8h.html" target="_top" xlink:title=" ">
<polygon fill="none" stroke="black" points="348.28,-220.5 348.28,-238.5 409.3,-238.5 409.3,-220.5 348.28,-220.5"/>
<text text-anchor="middle" x="378.79" y="-226.5" font-family="Helvetica,sans-Serif" font-size="10.00">CmdChr.h</text>
</a>
</g>
</g>
<!-- Node19&#45;&gt;Node20 -->
<g id="edge20" class="edge">
<title>Node19&#45;&gt;Node20</title>
<path fill="none" stroke="midnightblue" d="M350.1,-275.22C354.92,-267.71 362.16,-256.41 368.17,-247.05"/>
<polygon fill="midnightblue" stroke="midnightblue" points="371.17,-248.86 373.62,-238.55 365.28,-245.08 371.17,-248.86"/>
</g>
<!-- Node23 -->
<g id="node23" class="node">
<title>Node23</title>
<g id="a_node23"><a xlink:title=" ">
<polygon fill="none" stroke="#bfbfbf" points="301.29,-220.5 301.29,-238.5 330.29,-238.5 330.29,-220.5 301.29,-220.5"/>
<text text-anchor="middle" x="315.4" y="-226.5" font-family="Helvetica,sans-Serif" font-size="10.00">list</text>
</a>
</g>
</g>
<!-- Node19&#45;&gt;Node23 -->
<g id="edge26" class="edge">
<title>Node19&#45;&gt;Node23</title>
<path fill="none" stroke="midnightblue" d="M340.25,-275.22C336.19,-267.79 330.09,-256.65 325,-247.34"/>
<polygon fill="midnightblue" stroke="midnightblue" points="328.06,-245.64 320.19,-238.55 321.92,-249 328.06,-245.64"/>
</g>
<!-- Node20&#45;&gt;Node9 -->
<g id="edge24" class="edge">
<title>Node20&#45;&gt;Node9</title>
<path fill="none" stroke="midnightblue" d="M354.18,-220.45C326.63,-211.44 281.79,-196.77 250.87,-186.65"/>
<polygon fill="midnightblue" stroke="midnightblue" points="251.95,-183.32 241.36,-183.54 249.77,-189.97 251.95,-183.32"/>
</g>
<!-- Node21 -->
<g id="node21" class="node">
<title>Node21</title>
<g id="a_node21"><a xlink:href="../../d8/d47/codepoint_8h.html" target="_top" xlink:title=" ">
<polygon fill="none" stroke="black" points="465.93,-165.5 465.93,-183.5 533.64,-183.5 533.64,-165.5 465.93,-165.5"/>
<text text-anchor="middle" x="499.79" y="-171.5" font-family="Helvetica,sans-Serif" font-size="10.00">codepoint.h</text>
</a>
</g>
</g>
<!-- Node20&#45;&gt;Node21 -->
<g id="edge21" class="edge">
<title>Node20&#45;&gt;Node21</title>
<path fill="none" stroke="midnightblue" d="M397.16,-220.45C417.06,-211.73 449.03,-197.73 472,-187.67"/>
<polygon fill="midnightblue" stroke="midnightblue" points="473.48,-190.84 481.24,-183.63 470.67,-184.43 473.48,-190.84"/>
</g>
<!-- Node21&#45;&gt;Node11 -->
<g id="edge22" class="edge">
<title>Node21&#45;&gt;Node11</title>
<path fill="none" stroke="midnightblue" d="M499.09,-165.42C497.45,-151.72 492.06,-124.06 474.79,-110 441.05,-82.53 313.51,-71.26 251.31,-67.32"/>
<polygon fill="midnightblue" stroke="midnightblue" points="251.4,-63.82 241.2,-66.71 250.97,-70.81 251.4,-63.82"/>
</g>
<!-- Node22 -->
<g id="node22" class="node">
<title>Node22</title>
<g id="a_node22"><a xlink:title=" ">
<polygon fill="none" stroke="#bfbfbf" points="414.27,-110.5 414.27,-128.5 465.3,-128.5 465.3,-110.5 414.27,-110.5"/>
<text text-anchor="middle" x="439.79" y="-116.5" font-family="Helvetica,sans-Serif" font-size="10.00">optional</text>
</a>
</g>
</g>
<!-- Node21&#45;&gt;Node22 -->
<g id="edge23" class="edge">
<title>Node21&#45;&gt;Node22</title>
<path fill="none" stroke="midnightblue" d="M490.67,-165.45C481.69,-157.51 467.74,-145.19 456.71,-135.45"/>
<polygon fill="midnightblue" stroke="midnightblue" points="458.8,-132.62 448.98,-128.63 454.16,-137.87 458.8,-132.62"/>
</g>
<!-- Node29&#45;&gt;Node5 -->
<g id="edge33" class="edge">
<title>Node29&#45;&gt;Node5</title>
<path fill="none" stroke="midnightblue" d="M367.05,-550.45C351.53,-541.97 326.84,-528.48 308.55,-518.49"/>
<polygon fill="midnightblue" stroke="midnightblue" points="310.11,-515.35 299.66,-513.63 306.75,-521.49 310.11,-515.35"/>
</g>
<!-- Node33 -->
<g id="node33" class="node">
<title>Node33</title>
<g id="a_node33"><a xlink:href="../../d3/d6b/txcond_8h.html" target="_top" xlink:title=" ">
<polygon fill="none" stroke="black" points="297.72,-330.5 297.72,-348.5 359.85,-348.5 359.85,-330.5 297.72,-330.5"/>
<text text-anchor="middle" x="328.79" y="-336.5" font-family="Helvetica,sans-Serif" font-size="10.00">../txcond.h</text>
</a>
</g>
</g>
<!-- Node32&#45;&gt;Node33 -->
<g id="edge37" class="edge">
<title>Node32&#45;&gt;Node33</title>
<path fill="none" stroke="midnightblue" d="M220.35,-770.49C211.56,-720.41 166.79,-450.26 211.79,-385 220.82,-371.9 257.8,-359.23 287.81,-350.78"/>
<polygon fill="midnightblue" stroke="midnightblue" points="288.94,-354.09 297.66,-348.08 287.09,-347.34 288.94,-354.09"/>
</g>
<!-- Node34 -->
<g id="node34" class="node">
<title>Node34</title>
<g id="a_node34"><a xlink:href="../../d7/d4d/txfonts_8h.html" target="_top" xlink:title=" ">
<polygon fill="none" stroke="black" points="260.72,-715.5 260.72,-733.5 322.85,-733.5 322.85,-715.5 260.72,-715.5"/>
<text text-anchor="middle" x="291.79" y="-721.5" font-family="Helvetica,sans-Serif" font-size="10.00">../txfonts.h</text>
</a>
</g>
</g>
<!-- Node32&#45;&gt;Node34 -->
<g id="edge40" class="edge">
<title>Node32&#45;&gt;Node34</title>
<path fill="none" stroke="midnightblue" d="M232.42,-770.45C243.11,-762.36 259.82,-749.7 272.79,-739.88"/>
<polygon fill="midnightblue" stroke="midnightblue" points="275.19,-742.45 281.05,-733.63 270.97,-736.87 275.19,-742.45"/>
</g>
<!-- Node35 -->
<g id="node35" class="node">
<title>Node35</title>
<g id="a_node35"><a xlink:href="../../de/d7c/tximage_8h.html" target="_top" xlink:title=" ">
<polygon fill="none" stroke="black" points="41.94,-330.5 41.94,-348.5 109.63,-348.5 109.63,-330.5 41.94,-330.5"/>
<text text-anchor="middle" x="75.79" y="-336.5" font-family="Helvetica,sans-Serif" font-size="10.00">../tximage.h</text>
</a>
</g>
</g>
<!-- Node32&#45;&gt;Node35 -->
<g id="edge42" class="edge">
<title>Node32&#45;&gt;Node35</title>
<path fill="none" stroke="midnightblue" d="M190.46,-770.49C147.57,-757.42 75.79,-727.09 75.79,-670.5 75.79,-670.5 75.79,-670.5 75.79,-448.5 75.79,-417.02 75.79,-380.37 75.79,-358.88"/>
<polygon fill="midnightblue" stroke="midnightblue" points="79.29,-358.63 75.79,-348.63 72.29,-358.63 79.29,-358.63"/>
</g>
<!-- Node36 -->
<g id="node36" class="node">
<title>Node36</title>
<g id="a_node36"><a xlink:href="../../dc/d65/txstack_8h.html" target="_top" xlink:title=" ">
<polygon fill="none" stroke="black" points="429.89,-550.5 429.89,-568.5 493.68,-568.5 493.68,-550.5 429.89,-550.5"/>
<text text-anchor="middle" x="461.79" y="-556.5" font-family="Helvetica,sans-Serif" font-size="10.00">../txstack.h</text>
</a>
</g>
</g>
<!-- Node32&#45;&gt;Node36 -->
<g id="edge45" class="edge">
<title>Node32&#45;&gt;Node36</title>
<path fill="none" stroke="midnightblue" d="M256.56,-770.44C316.28,-754.45 436.2,-712.34 480.79,-624 488.38,-608.96 481.07,-590.34 473.42,-577.17"/>
<polygon fill="midnightblue" stroke="midnightblue" points="476.32,-575.21 468,-568.66 470.42,-578.98 476.32,-575.21"/>
</g>
<!-- Node40 -->
<g id="node40" class="node">
<title>Node40</title>
<g id="a_node40"><a xlink:href="../../d8/d3d/txstats_8h.html" target="_top" xlink:title=" ">
<polygon fill="none" stroke="black" points="0,-55.5 0,-73.5 61.57,-73.5 61.57,-55.5 0,-55.5"/>
<text text-anchor="middle" x="30.79" y="-61.5" font-family="Helvetica,sans-Serif" font-size="10.00">../txstats.h</text>
</a>
</g>
</g>
<!-- Node32&#45;&gt;Node40 -->
<g id="edge53" class="edge">
<title>Node32&#45;&gt;Node40</title>
<path fill="none" stroke="midnightblue" d="M180.69,-775.33C120.07,-768.15 13.79,-744.96 13.79,-670.5 13.79,-670.5 13.79,-670.5 13.79,-173.5 13.79,-141.48 21.17,-104.77 26.2,-83.45"/>
<polygon fill="midnightblue" stroke="midnightblue" points="29.64,-84.11 28.63,-73.56 22.85,-82.44 29.64,-84.11"/>
</g>
<!-- Node41 -->
<g id="node41" class="node">
<title>Node41</title>
<g id="a_node41"><a xlink:href="../../d8/dd6/_e_q_t_b_8h.html" target="_top" xlink:title=" ">
<polygon fill="none" stroke="black" points="142,-660.5 142,-678.5 193.57,-678.5 193.57,-660.5 142,-660.5"/>
<text text-anchor="middle" x="167.79" y="-666.5" font-family="Helvetica,sans-Serif" font-size="10.00">EQTB.h</text>
</a>
</g>
</g>
<!-- Node32&#45;&gt;Node41 -->
<g id="edge55" class="edge">
<title>Node32&#45;&gt;Node41</title>
<path fill="none" stroke="midnightblue" d="M217.73,-770.38C209.01,-752.95 188.33,-711.59 176.5,-687.92"/>
<polygon fill="midnightblue" stroke="midnightblue" points="179.49,-686.09 171.89,-678.71 173.23,-689.22 179.49,-686.09"/>
</g>
<!-- Node42 -->
<g id="node42" class="node">
<title>Node42</title>
<g id="a_node42"><a xlink:href="../../da/d27/_hashtab_8h.html" target="_top" xlink:title=" ">
<polygon fill="none" stroke="black" points="513.99,-495.5 513.99,-513.5 575.58,-513.5 575.58,-495.5 513.99,-495.5"/>
<text text-anchor="middle" x="544.79" y="-501.5" font-family="Helvetica,sans-Serif" font-size="10.00">Hashtab.h</text>
</a>
</g>
</g>
<!-- Node32&#45;&gt;Node42 -->
<g id="edge57" class="edge">
<title>Node32&#45;&gt;Node42</title>
<path fill="none" stroke="midnightblue" d="M263.16,-773.34C349.48,-761.42 540.79,-728.46 540.79,-670.5 540.79,-670.5 540.79,-670.5 540.79,-613.5 540.79,-582 542.51,-545.36 543.69,-523.87"/>
<polygon fill="midnightblue" stroke="midnightblue" points="547.2,-523.81 544.28,-513.63 540.21,-523.41 547.2,-523.81"/>
</g>
<!-- Node45 -->
<g id="node45" class="node">
<title>Node45</title>
<g id="a_node45"><a xlink:href="../../d9/dba/_label_info_8h.html" target="_top" xlink:title=" ">
<polygon fill="none" stroke="black" points="128.04,-330.5 128.04,-348.5 193.53,-348.5 193.53,-330.5 128.04,-330.5"/>
<text text-anchor="middle" x="160.79" y="-336.5" font-family="Helvetica,sans-Serif" font-size="10.00">LabelInfo.h</text>
</a>
</g>
</g>
<!-- Node32&#45;&gt;Node45 -->
<g id="edge62" class="edge">
<title>Node32&#45;&gt;Node45</title>
<path fill="none" stroke="midnightblue" d="M203.46,-770.48C172.65,-755.6 113.79,-720.62 113.79,-670.5 113.79,-670.5 113.79,-670.5 113.79,-448.5 113.79,-413.57 134.72,-377.16 148.64,-356.81"/>
<polygon fill="midnightblue" stroke="midnightblue" points="151.5,-358.82 154.45,-348.65 145.8,-354.77 151.5,-358.82"/>
</g>
<!-- Node33&#45;&gt;Node9 -->
<g id="edge38" class="edge">
<title>Node33&#45;&gt;Node9</title>
<path fill="none" stroke="midnightblue" d="M299.26,-330.43C262.54,-320.1 203.89,-302.52 197.79,-294 175.92,-263.48 194.25,-217.22 207.02,-192.5"/>
<polygon fill="midnightblue" stroke="midnightblue" points="210.15,-194.06 211.86,-183.6 204.01,-190.71 210.15,-194.06"/>
</g>
<!-- Node33&#45;&gt;Node27 -->
<g id="edge39" class="edge">
<title>Node33&#45;&gt;Node27</title>
<path fill="none" stroke="midnightblue" d="M352.93,-330.45C380.56,-321.24 425.9,-306.13 456.29,-296"/>
<polygon fill="midnightblue" stroke="midnightblue" points="457.59,-299.25 465.97,-292.77 455.38,-292.61 457.59,-299.25"/>
</g>
<!-- Node34&#45;&gt;Node2 -->
<g id="edge41" class="edge">
<title>Node34&#45;&gt;Node2</title>
<path fill="none" stroke="midnightblue" d="M298.66,-715.22C305.03,-707.55 314.67,-695.94 322.53,-686.47"/>
<polygon fill="midnightblue" stroke="midnightblue" points="325.41,-688.48 329.1,-678.55 320.02,-684.01 325.41,-688.48"/>
</g>
<!-- Node35&#45;&gt;Node16 -->
<g id="edge43" class="edge">
<title>Node35&#45;&gt;Node16</title>
<path fill="none" stroke="midnightblue" d="M78.19,-330.38C83.31,-313.1 95.39,-272.33 102.43,-248.56"/>
<polygon fill="midnightblue" stroke="midnightblue" points="105.87,-249.29 105.35,-238.71 99.16,-247.31 105.87,-249.29"/>
</g>
<!-- Node35&#45;&gt;Node24 -->
<g id="edge44" class="edge">
<title>Node35&#45;&gt;Node24</title>
<path fill="none" stroke="midnightblue" d="M84.54,-330.22C92.89,-322.32 105.66,-310.22 115.82,-300.61"/>
<polygon fill="midnightblue" stroke="midnightblue" points="118.42,-302.97 123.28,-293.55 113.61,-297.88 118.42,-302.97"/>
</g>
<!-- Node37 -->
<g id="node37" class="node">
<title>Node37</title>
<g id="a_node37"><a xlink:href="../../d9/d1c/_xml_8h.html" target="_top" xlink:title=" ">
<polygon fill="none" stroke="black" points="425.56,-495.5 425.56,-513.5 496.01,-513.5 496.01,-495.5 425.56,-495.5"/>
<text text-anchor="middle" x="460.79" y="-501.5" font-family="Helvetica,sans-Serif" font-size="10.00">tralics/Xml.h</text>
</a>
</g>
</g>
<!-- Node36&#45;&gt;Node37 -->
<g id="edge46" class="edge">
<title>Node36&#45;&gt;Node37</title>
<path fill="none" stroke="midnightblue" d="M461.63,-550.22C461.5,-543.18 461.3,-532.81 461.13,-523.83"/>
<polygon fill="midnightblue" stroke="midnightblue" points="464.63,-523.48 460.94,-513.55 457.63,-523.61 464.63,-523.48"/>
</g>
<!-- Node39 -->
<g id="node39" class="node">
<title>Node39</title>
<g id="a_node39"><a xlink:href="../../d4/da4/txatt_8h.html" target="_top" xlink:title=" ">
<polygon fill="none" stroke="black" points="416.17,-330.5 416.17,-348.5 459.4,-348.5 459.4,-330.5 416.17,-330.5"/>
<text text-anchor="middle" x="437.79" y="-336.5" font-family="Helvetica,sans-Serif" font-size="10.00">txatt.h</text>
</a>
</g>
</g>
<!-- Node36&#45;&gt;Node39 -->
<g id="edge49" class="edge">
<title>Node36&#45;&gt;Node39</title>
<path fill="none" stroke="midnightblue" d="M447.31,-550.39C422.97,-535.8 374.64,-502.55 355.79,-459 352.43,-451.25 352.93,-447.95 355.79,-440 368.42,-404.79 399.51,-373.15 419.57,-355.42"/>
<polygon fill="midnightblue" stroke="midnightblue" points="422.09,-357.87 427.4,-348.7 417.53,-352.55 422.09,-357.87"/>
</g>
<!-- Node37&#45;&gt;Node6 -->
<g id="edge47" class="edge">
<title>Node37&#45;&gt;Node6</title>
<path fill="none" stroke="midnightblue" d="M473.54,-495.45C486.74,-487.12 507.59,-473.97 523.33,-464.04"/>
<polygon fill="midnightblue" stroke="midnightblue" points="525.32,-466.92 531.91,-458.63 521.58,-461 525.32,-466.92"/>
</g>
<!-- Node38 -->
<g id="node38" class="node">
<title>Node38</title>
<g id="a_node38"><a xlink:title=" ">
<polygon fill="none" stroke="#bfbfbf" points="364.61,-440.5 364.61,-458.5 408.96,-458.5 408.96,-440.5 364.61,-440.5"/>
<text text-anchor="middle" x="386.79" y="-446.5" font-family="Helvetica,sans-Serif" font-size="10.00">gsl/gsl</text>
</a>
</g>
</g>
<!-- Node37&#45;&gt;Node38 -->
<g id="edge48" class="edge">
<title>Node37&#45;&gt;Node38</title>
<path fill="none" stroke="midnightblue" d="M449.55,-495.45C438.14,-487.28 420.24,-474.46 406.47,-464.6"/>
<polygon fill="midnightblue" stroke="midnightblue" points="408.3,-461.6 398.13,-458.63 404.22,-467.29 408.3,-461.6"/>
</g>
<!-- Node39&#45;&gt;Node8 -->
<g id="edge50" class="edge">
<title>Node39&#45;&gt;Node8</title>
<path fill="none" stroke="midnightblue" d="M415.88,-332.42C384.15,-323.62 324.92,-307.18 285.66,-296.29"/>
<polygon fill="midnightblue" stroke="midnightblue" points="286.47,-292.88 275.9,-293.58 284.6,-299.62 286.47,-292.88"/>
</g>
<!-- Node39&#45;&gt;Node22 -->
<g id="edge51" class="edge">
<title>Node39&#45;&gt;Node22</title>
<path fill="none" stroke="midnightblue" d="M437.86,-330.48C438.15,-299.11 439.2,-184.16 439.62,-138.94"/>
<polygon fill="midnightblue" stroke="midnightblue" points="443.12,-138.85 439.71,-128.82 436.12,-138.79 443.12,-138.85"/>
</g>
<!-- Node39&#45;&gt;Node27 -->
<g id="edge52" class="edge">
<title>Node39&#45;&gt;Node27</title>
<path fill="none" stroke="midnightblue" d="M445.6,-330.22C452.98,-322.39 464.24,-310.46 473.26,-300.89"/>
<polygon fill="midnightblue" stroke="midnightblue" points="475.88,-303.23 480.19,-293.55 470.78,-298.42 475.88,-303.23"/>
</g>
<!-- Node40&#45;&gt;Node13 -->
<g id="edge54" class="edge">
<title>Node40&#45;&gt;Node13</title>
<path fill="none" stroke="midnightblue" d="M40.66,-55.45C50.49,-47.43 65.8,-34.95 77.8,-25.17"/>
<polygon fill="midnightblue" stroke="midnightblue" points="80.28,-27.66 85.82,-18.63 75.86,-22.23 80.28,-27.66"/>
</g>
<!-- Node41&#45;&gt;Node17 -->
<g id="edge56" class="edge">
<title>Node41&#45;&gt;Node17</title>
<path fill="none" stroke="midnightblue" d="M170.42,-660.33C182.51,-622.81 232.87,-466.58 250.03,-413.35"/>
<polygon fill="midnightblue" stroke="midnightblue" points="253.43,-414.23 253.16,-403.64 246.76,-412.08 253.43,-414.23"/>
</g>
<!-- Node42&#45;&gt;Node6 -->
<g id="edge60" class="edge">
<title>Node42&#45;&gt;Node6</title>
<path fill="none" stroke="midnightblue" d="M544.79,-495.22C544.79,-488.18 544.79,-477.81 544.79,-468.83"/>
<polygon fill="midnightblue" stroke="midnightblue" points="548.29,-468.55 544.79,-458.55 541.29,-468.55 548.29,-468.55"/>
</g>
<!-- Node43 -->
<g id="node43" class="node">
<title>Node43</title>
<g id="a_node43"><a xlink:href="../../d3/d01/txeqtb_8h.html" target="_top" xlink:title=" ">
<polygon fill="none" stroke="black" points="426.83,-440.5 426.83,-458.5 486.74,-458.5 486.74,-440.5 426.83,-440.5"/>
<text text-anchor="middle" x="456.79" y="-446.5" font-family="Helvetica,sans-Serif" font-size="10.00">../txeqtb.h</text>
</a>
</g>
</g>
<!-- Node42&#45;&gt;Node43 -->
<g id="edge58" class="edge">
<title>Node42&#45;&gt;Node43</title>
<path fill="none" stroke="midnightblue" d="M531.42,-495.45C517.59,-487.12 495.76,-473.97 479.27,-464.04"/>
<polygon fill="midnightblue" stroke="midnightblue" points="480.65,-460.79 470.28,-458.63 477.04,-466.78 480.65,-460.79"/>
</g>
<!-- Node44 -->
<g id="node44" class="node">
<title>Node44</title>
<g id="a_node44"><a xlink:title=" ">
<polygon fill="none" stroke="#bfbfbf" points="602.48,-440.5 602.48,-458.5 689.09,-458.5 689.09,-440.5 602.48,-440.5"/>
<text text-anchor="middle" x="645.79" y="-446.5" font-family="Helvetica,sans-Serif" font-size="10.00">unordered_map</text>
</a>
</g>
</g>
<!-- Node42&#45;&gt;Node44 -->
<g id="edge61" class="edge">
<title>Node42&#45;&gt;Node44</title>
<path fill="none" stroke="midnightblue" d="M560.13,-495.45C576.37,-486.93 602.24,-473.35 621.3,-463.35"/>
<polygon fill="midnightblue" stroke="midnightblue" points="623.07,-466.37 630.3,-458.63 619.82,-460.17 623.07,-466.37"/>
</g>
<!-- Node43&#45;&gt;Node17 -->
<g id="edge59" class="edge">
<title>Node43&#45;&gt;Node17</title>
<path fill="none" stroke="midnightblue" d="M426.69,-440.57C392.01,-431.42 334.84,-416.35 296.28,-406.18"/>
<polygon fill="midnightblue" stroke="midnightblue" points="296.98,-402.74 286.41,-403.58 295.19,-409.51 296.98,-402.74"/>
</g>
<!-- Node45&#45;&gt;Node8 -->
<g id="edge63" class="edge">
<title>Node45&#45;&gt;Node8</title>
<path fill="none" stroke="midnightblue" d="M173.85,-330.45C187.36,-322.12 208.7,-308.97 224.82,-299.04"/>
<polygon fill="midnightblue" stroke="midnightblue" points="226.92,-301.85 233.6,-293.63 223.25,-295.89 226.92,-301.85"/>
</g>
<!-- Node45&#45;&gt;Node24 -->
<g id="edge64" class="edge">
<title>Node45&#45;&gt;Node24</title>
<path fill="none" stroke="midnightblue" d="M156.25,-330.22C152.19,-322.79 146.09,-311.65 141,-302.34"/>
<polygon fill="midnightblue" stroke="midnightblue" points="144.06,-300.64 136.19,-293.55 137.92,-304 144.06,-300.64"/>
</g>
<!-- Node46&#45;&gt;Node8 -->
<g id="edge66" class="edge">
<title>Node46&#45;&gt;Node8</title>
<path fill="none" stroke="midnightblue" d="M515.12,-331.3C465.29,-322.88 380.07,-308.45 297.25,-294.25"/>
<polygon fill="midnightblue" stroke="midnightblue" points="297.61,-290.76 287.16,-292.52 296.42,-297.66 297.61,-290.76"/>
</g>
<!-- Node46&#45;&gt;Node21 -->
<g id="edge67" class="edge">
<title>Node46&#45;&gt;Node21</title>
<path fill="none" stroke="midnightblue" d="M554.83,-330.19C545.83,-304.9 518.63,-228.45 506.16,-193.4"/>
<polygon fill="midnightblue" stroke="midnightblue" points="509.32,-191.85 502.67,-183.6 502.72,-194.19 509.32,-191.85"/>
</g>
<!-- Node46&#45;&gt;Node27 -->
<g id="edge69" class="edge">
<title>Node46&#45;&gt;Node27</title>
<path fill="none" stroke="midnightblue" d="M547.15,-330.45C536.46,-322.36 519.75,-309.7 506.78,-299.88"/>
<polygon fill="midnightblue" stroke="midnightblue" points="508.6,-296.87 498.52,-293.63 504.38,-302.45 508.6,-296.87"/>
</g>
<!-- Node47 -->
<g id="node47" class="node">
<title>Node47</title>
<g id="a_node47"><a xlink:title=" ">
<polygon fill="none" stroke="#bfbfbf" points="565.56,-275.5 565.56,-293.5 626.01,-293.5 626.01,-275.5 565.56,-275.5"/>
<text text-anchor="middle" x="595.79" y="-281.5" font-family="Helvetica,sans-Serif" font-size="10.00">filesystem</text>
</a>
</g>
</g>
<!-- Node46&#45;&gt;Node47 -->
<g id="edge68" class="edge">
<title>Node46&#45;&gt;Node47</title>
<path fill="none" stroke="midnightblue" d="M563.72,-330.22C569.16,-322.63 577.38,-311.18 584.13,-301.76"/>
<polygon fill="midnightblue" stroke="midnightblue" points="587.03,-303.72 590.01,-293.55 581.34,-299.64 587.03,-303.72"/>
</g>
</g>
</svg>
