<?xml version="1.0" encoding="UTF-8" standalone="no"?>
<!DOCTYPE svg PUBLIC "-//W3C//DTD SVG 1.1//EN"
 "http://www.w3.org/Graphics/SVG/1.1/DTD/svg11.dtd">
<!-- Generated by graphviz version 2.42.3 (20191010.1750)
 -->
<!-- Title: txhash.h Pages: 1 -->
<svg width="2608pt" height="192pt"
 viewBox="0.00 0.00 2607.88 192.00" xmlns="http://www.w3.org/2000/svg" xmlns:xlink="http://www.w3.org/1999/xlink">
<g id="graph0" class="graph" transform="scale(1 1) rotate(0) translate(4 188)">
<title>txhash.h</title>
<!-- Node1 -->
<g id="node1" class="node">
<title>Node1</title>
<g id="a_node1"><a xlink:title=" ">
<polygon fill="#bfbfbf" stroke="black" points="1288.53,-165.5 1288.53,-183.5 1342.33,-183.5 1342.33,-165.5 1288.53,-165.5"/>
<text text-anchor="middle" x="1315.43" y="-171.5" font-family="Helvetica,sans-Serif" font-size="10.00">txhash.h</text>
</a>
</g>
</g>
<!-- Node2 -->
<g id="node2" class="node">
<title>Node2</title>
<g id="a_node2"><a xlink:href="../../d2/d1b/txparser_8h.html" target="_top" xlink:title=" ">
<polygon fill="none" stroke="black" points="1243.47,-110.5 1243.47,-128.5 1303.39,-128.5 1303.39,-110.5 1243.47,-110.5"/>
<text text-anchor="middle" x="1273.43" y="-116.5" font-family="Helvetica,sans-Serif" font-size="10.00">txparser.h</text>
</a>
</g>
</g>
<!-- Node1&#45;&gt;Node2 -->
<g id="edge1" class="edge">
<title>Node1&#45;&gt;Node2</title>
<path fill="none" stroke="midnightblue" d="M1302.55,-157.24C1295.01,-147.73 1285.82,-136.14 1279.81,-128.55"/>
<polygon fill="midnightblue" stroke="midnightblue" points="1299.91,-159.56 1308.87,-165.22 1305.4,-155.21 1299.91,-159.56"/>
</g>
<!-- Node35 -->
<g id="node35" class="node">
<title>Node35</title>
<g id="a_node35"><a xlink:href="../../d9/d80/txtoken2_8cpp.html" target="_top" xlink:title=" ">
<polygon fill="none" stroke="black" points="1321.08,-110.5 1321.08,-128.5 1393.78,-128.5 1393.78,-110.5 1321.08,-110.5"/>
<text text-anchor="middle" x="1357.43" y="-116.5" font-family="Helvetica,sans-Serif" font-size="10.00">txtoken2.cpp</text>
</a>
</g>
</g>
<!-- Node1&#45;&gt;Node35 -->
<g id="edge34" class="edge">
<title>Node1&#45;&gt;Node35</title>
<path fill="none" stroke="midnightblue" d="M1328.31,-157.24C1335.85,-147.73 1345.04,-136.14 1351.05,-128.55"/>
<polygon fill="midnightblue" stroke="midnightblue" points="1325.46,-155.21 1321.99,-165.22 1330.95,-159.56 1325.46,-155.21"/>
</g>
<!-- Node3 -->
<g id="node3" class="node">
<title>Node3</title>
<g id="a_node3"><a xlink:href="../../dc/dcf/_buffer_8cpp.html" target="_top" xlink:title=" ">
<polygon fill="none" stroke="black" points="0,-55.5 0,-73.5 60.86,-73.5 60.86,-55.5 0,-55.5"/>
<text text-anchor="middle" x="30.43" y="-61.5" font-family="Helvetica,sans-Serif" font-size="10.00">Buffer.cpp</text>
</a>
</g>
</g>
<!-- Node2&#45;&gt;Node3 -->
<g id="edge2" class="edge">
<title>Node2&#45;&gt;Node3</title>
<path fill="none" stroke="midnightblue" d="M1233.02,-117.94C1050.62,-115.28 302.9,-102.78 70.43,-74 67.33,-73.62 64.11,-73.11 60.91,-72.54"/>
<polygon fill="midnightblue" stroke="midnightblue" points="1233.19,-121.44 1243.24,-118.09 1233.29,-114.45 1233.19,-121.44"/>
</g>
<!-- Node4 -->
<g id="node4" class="node">
<title>Node4</title>
<g id="a_node4"><a xlink:href="../../da/d77/globals_8cpp.html" target="_top" xlink:title=" ">
<polygon fill="none" stroke="black" points="79.13,-55.5 79.13,-73.5 145.72,-73.5 145.72,-55.5 79.13,-55.5"/>
<text text-anchor="middle" x="112.43" y="-61.5" font-family="Helvetica,sans-Serif" font-size="10.00">globals.cpp</text>
</a>
</g>
</g>
<!-- Node2&#45;&gt;Node4 -->
<g id="edge3" class="edge">
<title>Node2&#45;&gt;Node4</title>
<path fill="none" stroke="midnightblue" d="M1233.33,-117.77C1059.44,-114.45 369.73,-99.9 154.43,-74 151.62,-73.66 148.72,-73.24 145.82,-72.76"/>
<polygon fill="midnightblue" stroke="midnightblue" points="1233.27,-121.27 1243.33,-117.96 1233.4,-114.27 1233.27,-121.27"/>
</g>
<!-- Node5 -->
<g id="node5" class="node">
<title>Node5</title>
<g id="a_node5"><a xlink:href="../../df/d37/_main_class_8cpp.html" target="_top" xlink:title=" ">
<polygon fill="none" stroke="black" points="163.64,-55.5 163.64,-73.5 245.22,-73.5 245.22,-55.5 163.64,-55.5"/>
<text text-anchor="middle" x="204.43" y="-61.5" font-family="Helvetica,sans-Serif" font-size="10.00">MainClass.cpp</text>
</a>
</g>
</g>
<!-- Node2&#45;&gt;Node5 -->
<g id="edge4" class="edge">
<title>Node2&#45;&gt;Node5</title>
<path fill="none" stroke="midnightblue" d="M1233.22,-118.59C1095.91,-118.52 633,-115.03 253.43,-74 250.77,-73.71 248.03,-73.37 245.28,-72.99"/>
<polygon fill="midnightblue" stroke="midnightblue" points="1233.28,-122.09 1243.28,-118.59 1233.28,-115.09 1233.28,-122.09"/>
</g>
<!-- Node6 -->
<g id="node6" class="node">
<title>Node6</title>
<g id="a_node6"><a xlink:href="../../d5/ddd/tralics_8cpp.html" target="_top" xlink:title=" ">
<polygon fill="none" stroke="black" points="262.92,-55.5 262.92,-73.5 323.94,-73.5 323.94,-55.5 262.92,-55.5"/>
<text text-anchor="middle" x="293.43" y="-61.5" font-family="Helvetica,sans-Serif" font-size="10.00">tralics.cpp</text>
</a>
</g>
</g>
<!-- Node2&#45;&gt;Node6 -->
<g id="edge5" class="edge">
<title>Node2&#45;&gt;Node6</title>
<path fill="none" stroke="midnightblue" d="M1232.91,-118.92C1102.08,-119.77 679.37,-118.64 333.43,-74 330.47,-73.62 327.41,-73.13 324.35,-72.59"/>
<polygon fill="midnightblue" stroke="midnightblue" points="1233.27,-122.42 1243.24,-118.84 1233.22,-115.42 1233.27,-122.42"/>
</g>
<!-- Node7 -->
<g id="node7" class="node">
<title>Node7</title>
<g id="a_node7"><a xlink:href="../../dd/dce/txaccent_8cpp.html" target="_top" xlink:title=" ">
<polygon fill="none" stroke="black" points="342.36,-55.5 342.36,-73.5 414.5,-73.5 414.5,-55.5 342.36,-55.5"/>
<text text-anchor="middle" x="378.43" y="-61.5" font-family="Helvetica,sans-Serif" font-size="10.00">txaccent.cpp</text>
</a>
</g>
</g>
<!-- Node2&#45;&gt;Node7 -->
<g id="edge6" class="edge">
<title>Node2&#45;&gt;Node7</title>
<path fill="none" stroke="midnightblue" d="M1233.16,-118.31C1110.92,-117.32 733.5,-111.23 423.43,-74 420.59,-73.66 417.65,-73.25 414.71,-72.79"/>
<polygon fill="midnightblue" stroke="midnightblue" points="1233.16,-121.81 1243.19,-118.38 1233.22,-114.81 1233.16,-121.81"/>
</g>
<!-- Node8 -->
<g id="node8" class="node">
<title>Node8</title>
<g id="a_node8"><a xlink:href="../../d7/de8/txarray_8cpp.html" target="_top" xlink:title=" ">
<polygon fill="none" stroke="black" points="432.07,-55.5 432.07,-73.5 496.79,-73.5 496.79,-55.5 432.07,-55.5"/>
<text text-anchor="middle" x="464.43" y="-61.5" font-family="Helvetica,sans-Serif" font-size="10.00">txarray.cpp</text>
</a>
</g>
</g>
<!-- Node2&#45;&gt;Node8 -->
<g id="edge7" class="edge">
<title>Node2&#45;&gt;Node8</title>
<path fill="none" stroke="midnightblue" d="M1233.28,-118.17C1119.09,-116.81 782.86,-109.81 506.43,-74 503.33,-73.6 500.12,-73.1 496.91,-72.55"/>
<polygon fill="midnightblue" stroke="midnightblue" points="1233.28,-121.67 1243.32,-118.28 1233.36,-114.67 1233.28,-121.67"/>
</g>
<!-- Node9 -->
<g id="node9" class="node">
<title>Node9</title>
<g id="a_node9"><a xlink:href="../../d1/daa/txaux_8cpp.html" target="_top" xlink:title=" ">
<polygon fill="none" stroke="black" points="515.03,-55.5 515.03,-73.5 573.83,-73.5 573.83,-55.5 515.03,-55.5"/>
<text text-anchor="middle" x="544.43" y="-61.5" font-family="Helvetica,sans-Serif" font-size="10.00">txaux.cpp</text>
</a>
</g>
</g>
<!-- Node2&#45;&gt;Node9 -->
<g id="edge8" class="edge">
<title>Node2&#45;&gt;Node9</title>
<path fill="none" stroke="midnightblue" d="M1232.97,-118.09C1126.12,-116.53 827.77,-109.12 582.43,-74 579.75,-73.62 576.98,-73.15 574.22,-72.62"/>
<polygon fill="midnightblue" stroke="midnightblue" points="1233.24,-121.59 1243.29,-118.23 1233.34,-114.59 1233.24,-121.59"/>
</g>
<!-- Node10 -->
<g id="node10" class="node">
<title>Node10</title>
<g id="a_node10"><a xlink:href="../../d1/ddd/txbib_8cpp.html" target="_top" xlink:title=" ">
<polygon fill="none" stroke="black" points="591.42,-55.5 591.42,-73.5 647.44,-73.5 647.44,-55.5 591.42,-55.5"/>
<text text-anchor="middle" x="619.43" y="-61.5" font-family="Helvetica,sans-Serif" font-size="10.00">txbib.cpp</text>
</a>
</g>
</g>
<!-- Node2&#45;&gt;Node10 -->
<g id="edge9" class="edge">
<title>Node2&#45;&gt;Node10</title>
<path fill="none" stroke="midnightblue" d="M1233.26,-117.74C1134.55,-115.4 872.39,-106.4 656.43,-74 653.56,-73.57 650.59,-73.04 647.63,-72.45"/>
<polygon fill="midnightblue" stroke="midnightblue" points="1233.32,-121.24 1243.39,-117.97 1233.47,-114.24 1233.32,-121.24"/>
</g>
<!-- Node11 -->
<g id="node11" class="node">
<title>Node11</title>
<g id="a_node11"><a xlink:href="../../d4/dee/txclasses_8cpp.html" target="_top" xlink:title=" ">
<polygon fill="none" stroke="black" points="665.42,-55.5 665.42,-73.5 741.44,-73.5 741.44,-55.5 665.42,-55.5"/>
<text text-anchor="middle" x="703.43" y="-61.5" font-family="Helvetica,sans-Serif" font-size="10.00">txclasses.cpp</text>
</a>
</g>
</g>
<!-- Node2&#45;&gt;Node11 -->
<g id="edge10" class="edge">
<title>Node2&#45;&gt;Node11</title>
<path fill="none" stroke="midnightblue" d="M1233.18,-116.37C1145.28,-111.43 929.68,-97.78 750.43,-74 747.55,-73.62 744.58,-73.18 741.6,-72.71"/>
<polygon fill="midnightblue" stroke="midnightblue" points="1233.07,-119.87 1243.25,-116.93 1233.46,-112.88 1233.07,-119.87"/>
</g>
<!-- Node12 -->
<g id="node12" class="node">
<title>Node12</title>
<g id="a_node12"><a xlink:href="../../df/d9e/txcommands_8cpp.html" target="_top" xlink:title=" ">
<polygon fill="none" stroke="black" points="759.64,-55.5 759.64,-73.5 851.22,-73.5 851.22,-55.5 759.64,-55.5"/>
<text text-anchor="middle" x="805.43" y="-61.5" font-family="Helvetica,sans-Serif" font-size="10.00">txcommands.cpp</text>
</a>
</g>
</g>
<!-- Node2&#45;&gt;Node12 -->
<g id="edge11" class="edge">
<title>Node2&#45;&gt;Node12</title>
<path fill="none" stroke="midnightblue" d="M1232.95,-114.81C1158.75,-107.91 996.04,-92.08 859.43,-74 856.79,-73.65 854.09,-73.28 851.36,-72.89"/>
<polygon fill="midnightblue" stroke="midnightblue" points="1232.96,-118.33 1243.24,-115.77 1233.61,-111.36 1232.96,-118.33"/>
</g>
<!-- Node13 -->
<g id="node13" class="node">
<title>Node13</title>
<g id="a_node13"><a xlink:href="../../df/d98/txconfig_8cpp.html" target="_top" xlink:title=" ">
<polygon fill="none" stroke="black" points="868.75,-55.5 868.75,-73.5 938.11,-73.5 938.11,-55.5 868.75,-55.5"/>
<text text-anchor="middle" x="903.43" y="-61.5" font-family="Helvetica,sans-Serif" font-size="10.00">txconfig.cpp</text>
</a>
</g>
</g>
<!-- Node2&#45;&gt;Node13 -->
<g id="edge12" class="edge">
<title>Node2&#45;&gt;Node13</title>
<path fill="none" stroke="midnightblue" d="M1233.14,-113.73C1171.47,-106.26 1049.99,-90.89 947.43,-74 944.51,-73.52 941.49,-72.99 938.46,-72.45"/>
<polygon fill="midnightblue" stroke="midnightblue" points="1232.89,-117.22 1243.23,-114.94 1233.72,-110.27 1232.89,-117.22"/>
</g>
<!-- Node14 -->
<g id="node14" class="node">
<title>Node14</title>
<g id="a_node14"><a xlink:href="../../d8/d02/txerr_8cpp.html" target="_top" xlink:title=" ">
<polygon fill="none" stroke="black" points="956.25,-55.5 956.25,-73.5 1010.61,-73.5 1010.61,-55.5 956.25,-55.5"/>
<text text-anchor="middle" x="983.43" y="-61.5" font-family="Helvetica,sans-Serif" font-size="10.00">txerr.cpp</text>
</a>
</g>
</g>
<!-- Node2&#45;&gt;Node14 -->
<g id="edge13" class="edge">
<title>Node2&#45;&gt;Node14</title>
<path fill="none" stroke="midnightblue" d="M1233.1,-112.18C1182.88,-104.14 1094.56,-89.44 1019.43,-74 1016.66,-73.43 1013.78,-72.81 1010.91,-72.16"/>
<polygon fill="midnightblue" stroke="midnightblue" points="1232.79,-115.68 1243.21,-113.79 1233.89,-108.76 1232.79,-115.68"/>
</g>
<!-- Node15 -->
<g id="node15" class="node">
<title>Node15</title>
<g id="a_node15"><a xlink:href="../../d6/dc0/txfonts_8cpp.html" target="_top" xlink:title=" ">
<polygon fill="none" stroke="black" points="1028.25,-55.5 1028.25,-73.5 1092.61,-73.5 1092.61,-55.5 1028.25,-55.5"/>
<text text-anchor="middle" x="1060.43" y="-61.5" font-family="Helvetica,sans-Serif" font-size="10.00">txfonts.cpp</text>
</a>
</g>
</g>
<!-- Node2&#45;&gt;Node15 -->
<g id="edge14" class="edge">
<title>Node2&#45;&gt;Node15</title>
<path fill="none" stroke="midnightblue" d="M1233.51,-108.57C1192.83,-98.44 1130.49,-82.93 1092.78,-73.55"/>
<polygon fill="midnightblue" stroke="midnightblue" points="1232.81,-112 1243.36,-111.02 1234.5,-105.21 1232.81,-112"/>
</g>
<!-- Node16 -->
<g id="node16" class="node">
<title>Node16</title>
<g id="a_node16"><a xlink:href="../../d7/d80/txfp_8cpp.html" target="_top" xlink:title=" ">
<polygon fill="none" stroke="black" points="1110.92,-55.5 1110.92,-73.5 1161.94,-73.5 1161.94,-55.5 1110.92,-55.5"/>
<text text-anchor="middle" x="1136.43" y="-61.5" font-family="Helvetica,sans-Serif" font-size="10.00">txfp.cpp</text>
</a>
</g>
</g>
<!-- Node2&#45;&gt;Node16 -->
<g id="edge15" class="edge">
<title>Node2&#45;&gt;Node16</title>
<path fill="none" stroke="midnightblue" d="M1243.24,-106.82C1217.22,-96.76 1180.35,-82.49 1157.43,-73.63"/>
<polygon fill="midnightblue" stroke="midnightblue" points="1242.03,-110.11 1252.62,-110.45 1244.56,-103.58 1242.03,-110.11"/>
</g>
<!-- Node17 -->
<g id="node17" class="node">
<title>Node17</title>
<g id="a_node17"><a xlink:href="../../d0/d1f/txio_8cpp.html" target="_top" xlink:title=" ">
<polygon fill="none" stroke="black" points="1180.2,-55.5 1180.2,-73.5 1230.66,-73.5 1230.66,-55.5 1180.2,-55.5"/>
<text text-anchor="middle" x="1205.43" y="-61.5" font-family="Helvetica,sans-Serif" font-size="10.00">txio.cpp</text>
</a>
</g>
</g>
<!-- Node2&#45;&gt;Node17 -->
<g id="edge16" class="edge">
<title>Node2&#45;&gt;Node17</title>
<path fill="none" stroke="midnightblue" d="M1255.09,-104.21C1242.52,-94.41 1226.27,-81.75 1215.85,-73.63"/>
<polygon fill="midnightblue" stroke="midnightblue" points="1253.06,-107.06 1263.1,-110.45 1257.37,-101.54 1253.06,-107.06"/>
</g>
<!-- Node18 -->
<g id="node18" class="node">
<title>Node18</title>
<g id="a_node18"><a xlink:href="../../d0/dc3/txl3_8cpp.html" target="_top" xlink:title=" ">
<polygon fill="none" stroke="black" points="1248.2,-55.5 1248.2,-73.5 1298.66,-73.5 1298.66,-55.5 1248.2,-55.5"/>
<text text-anchor="middle" x="1273.43" y="-61.5" font-family="Helvetica,sans-Serif" font-size="10.00">txl3.cpp</text>
</a>
</g>
</g>
<!-- Node2&#45;&gt;Node18 -->
<g id="edge17" class="edge">
<title>Node2&#45;&gt;Node18</title>
<path fill="none" stroke="midnightblue" d="M1273.43,-100.17C1273.43,-91.09 1273.43,-80.59 1273.43,-73.55"/>
<polygon fill="midnightblue" stroke="midnightblue" points="1269.93,-100.22 1273.43,-110.22 1276.93,-100.22 1269.93,-100.22"/>
</g>
<!-- Node19 -->
<g id="node19" class="node">
<title>Node19</title>
<g id="a_node19"><a xlink:href="../../d4/dd9/txmath_8cpp.html" target="_top" xlink:title=" ">
<polygon fill="none" stroke="black" points="1316.97,-55.5 1316.97,-73.5 1381.88,-73.5 1381.88,-55.5 1316.97,-55.5"/>
<text text-anchor="middle" x="1349.43" y="-61.5" font-family="Helvetica,sans-Serif" font-size="10.00">txmath.cpp</text>
</a>
</g>
</g>
<!-- Node2&#45;&gt;Node19 -->
<g id="edge18" class="edge">
<title>Node2&#45;&gt;Node19</title>
<path fill="none" stroke="midnightblue" d="M1293.52,-104.49C1307.63,-94.65 1326.02,-81.83 1337.78,-73.63"/>
<polygon fill="midnightblue" stroke="midnightblue" points="1291.17,-101.86 1284.97,-110.45 1295.18,-107.6 1291.17,-101.86"/>
</g>
<!-- Node20 -->
<g id="node20" class="node">
<title>Node20</title>
<g id="a_node20"><a xlink:href="../../dc/d78/txmath1_8cpp.html" target="_top" xlink:title=" ">
<polygon fill="none" stroke="black" points="1400.19,-55.5 1400.19,-73.5 1470.67,-73.5 1470.67,-55.5 1400.19,-55.5"/>
<text text-anchor="middle" x="1435.43" y="-61.5" font-family="Helvetica,sans-Serif" font-size="10.00">txmath1.cpp</text>
</a>
</g>
</g>
<!-- Node2&#45;&gt;Node20 -->
<g id="edge19" class="edge">
<title>Node2&#45;&gt;Node20</title>
<path fill="none" stroke="midnightblue" d="M1307.55,-107.34C1338.48,-97.22 1383.32,-82.55 1410.86,-73.54"/>
<polygon fill="midnightblue" stroke="midnightblue" points="1306.45,-104.01 1298.03,-110.45 1308.63,-110.67 1306.45,-104.01"/>
</g>
<!-- Node21 -->
<g id="node21" class="node">
<title>Node21</title>
<g id="a_node21"><a xlink:href="../../d9/d59/txmathboot_8cpp.html" target="_top" xlink:title=" ">
<polygon fill="none" stroke="black" points="1488.24,-55.5 1488.24,-73.5 1572.62,-73.5 1572.62,-55.5 1488.24,-55.5"/>
<text text-anchor="middle" x="1530.43" y="-61.5" font-family="Helvetica,sans-Serif" font-size="10.00">txmathboot.cpp</text>
</a>
</g>
</g>
<!-- Node2&#45;&gt;Node21 -->
<g id="edge20" class="edge">
<title>Node2&#45;&gt;Node21</title>
<path fill="none" stroke="midnightblue" d="M1313.61,-109.77C1381.1,-95.57 1448.5,-81.92 1490.22,-73.54"/>
<polygon fill="midnightblue" stroke="midnightblue" points="1312.72,-106.38 1303.65,-111.87 1314.16,-113.23 1312.72,-106.38"/>
</g>
<!-- Node22 -->
<g id="node22" class="node">
<title>Node22</title>
<g id="a_node22"><a xlink:href="../../de/de4/txmlio_8cpp.html" target="_top" xlink:title=" ">
<polygon fill="none" stroke="black" points="1590.92,-55.5 1590.92,-73.5 1651.94,-73.5 1651.94,-55.5 1590.92,-55.5"/>
<text text-anchor="middle" x="1621.43" y="-61.5" font-family="Helvetica,sans-Serif" font-size="10.00">txmlio.cpp</text>
</a>
</g>
</g>
<!-- Node2&#45;&gt;Node22 -->
<g id="edge21" class="edge">
<title>Node2&#45;&gt;Node22</title>
<path fill="none" stroke="midnightblue" d="M1313.51,-109.94C1432.95,-89.41 1465.71,-94.01 1581.43,-74 1584.51,-73.47 1587.71,-72.87 1590.9,-72.24"/>
<polygon fill="midnightblue" stroke="midnightblue" points="1312.87,-106.5 1303.61,-111.67 1314.07,-113.4 1312.87,-106.5"/>
</g>
<!-- Node23 -->
<g id="node23" class="node">
<title>Node23</title>
<g id="a_node23"><a xlink:href="../../df/da9/txparser_8cpp.html" target="_top" xlink:title=" ">
<polygon fill="none" stroke="black" points="1670.19,-55.5 1670.19,-73.5 1740.67,-73.5 1740.67,-55.5 1670.19,-55.5"/>
<text text-anchor="middle" x="1705.43" y="-61.5" font-family="Helvetica,sans-Serif" font-size="10.00">txparser.cpp</text>
</a>
</g>
</g>
<!-- Node2&#45;&gt;Node23 -->
<g id="edge22" class="edge">
<title>Node2&#45;&gt;Node23</title>
<path fill="none" stroke="midnightblue" d="M1313.93,-109.94C1468.21,-85.83 1510.49,-96.32 1661.43,-74 1664.2,-73.59 1667.06,-73.13 1669.93,-72.64"/>
<polygon fill="midnightblue" stroke="midnightblue" points="1312.93,-106.55 1303.6,-111.58 1314.02,-113.47 1312.93,-106.55"/>
</g>
<!-- Node24 -->
<g id="node24" class="node">
<title>Node24</title>
<g id="a_node24"><a xlink:href="../../da/d5e/txparser2_8h.html" target="_top" xlink:title=" ">
<polygon fill="none" stroke="black" points="1758.42,-55.5 1758.42,-73.5 1824.44,-73.5 1824.44,-55.5 1758.42,-55.5"/>
<text text-anchor="middle" x="1791.43" y="-61.5" font-family="Helvetica,sans-Serif" font-size="10.00">txparser2.h</text>
</a>
</g>
</g>
<!-- Node2&#45;&gt;Node24 -->
<g id="edge23" class="edge">
<title>Node2&#45;&gt;Node24</title>
<path fill="none" stroke="midnightblue" d="M1313.51,-110.04C1506.91,-81.84 1559.68,-100.92 1749.43,-74 1752.23,-73.6 1755.12,-73.14 1758.02,-72.63"/>
<polygon fill="midnightblue" stroke="midnightblue" points="1312.97,-106.59 1303.59,-111.51 1313.99,-113.51 1312.97,-106.59"/>
</g>
<!-- Node26 -->
<g id="node26" class="node">
<title>Node26</title>
<g id="a_node26"><a xlink:href="../../de/da4/txparser3_8cpp.html" target="_top" xlink:title=" ">
<polygon fill="none" stroke="black" points="1842.14,-55.5 1842.14,-73.5 1918.72,-73.5 1918.72,-55.5 1842.14,-55.5"/>
<text text-anchor="middle" x="1880.43" y="-61.5" font-family="Helvetica,sans-Serif" font-size="10.00">txparser3.cpp</text>
</a>
</g>
</g>
<!-- Node2&#45;&gt;Node26 -->
<g id="edge25" class="edge">
<title>Node2&#45;&gt;Node26</title>
<path fill="none" stroke="midnightblue" d="M1313.62,-110.05C1543.97,-77.91 1606.36,-102.29 1833.43,-74 1836.23,-73.65 1839.11,-73.25 1842.01,-72.8"/>
<polygon fill="midnightblue" stroke="midnightblue" points="1312.99,-106.61 1303.58,-111.47 1313.98,-113.54 1312.99,-106.61"/>
</g>
<!-- Node27 -->
<g id="node27" class="node">
<title>Node27</title>
<g id="a_node27"><a xlink:href="../../d6/d4a/txpost_8cpp.html" target="_top" xlink:title=" ">
<polygon fill="none" stroke="black" points="1936.64,-55.5 1936.64,-73.5 1998.22,-73.5 1998.22,-55.5 1936.64,-55.5"/>
<text text-anchor="middle" x="1967.43" y="-61.5" font-family="Helvetica,sans-Serif" font-size="10.00">txpost.cpp</text>
</a>
</g>
</g>
<!-- Node2&#45;&gt;Node27 -->
<g id="edge26" class="edge">
<title>Node2&#45;&gt;Node27</title>
<path fill="none" stroke="midnightblue" d="M1313.75,-110.06C1585.48,-73.65 1659.39,-110.11 1927.43,-74 1930.38,-73.6 1933.45,-73.11 1936.5,-72.55"/>
<polygon fill="midnightblue" stroke="midnightblue" points="1313.02,-106.63 1303.58,-111.44 1313.96,-113.56 1313.02,-106.63"/>
</g>
<!-- Node28 -->
<g id="node28" class="node">
<title>Node28</title>
<g id="a_node28"><a xlink:href="../../d3/dd3/txra_8cpp.html" target="_top" xlink:title=" ">
<polygon fill="none" stroke="black" points="2016.64,-55.5 2016.64,-73.5 2068.21,-73.5 2068.21,-55.5 2016.64,-55.5"/>
<text text-anchor="middle" x="2042.43" y="-61.5" font-family="Helvetica,sans-Serif" font-size="10.00">txra.cpp</text>
</a>
</g>
</g>
<!-- Node2&#45;&gt;Node28 -->
<g id="edge27" class="edge">
<title>Node2&#45;&gt;Node28</title>
<path fill="none" stroke="midnightblue" d="M1313.66,-110.08C1620.79,-69.99 1704.66,-118.21 2007.43,-74 2010.4,-73.57 2013.49,-73 2016.54,-72.36"/>
<polygon fill="midnightblue" stroke="midnightblue" points="1313.03,-106.64 1303.58,-111.42 1313.95,-113.58 1313.03,-106.64"/>
</g>
<!-- Node29 -->
<g id="node29" class="node">
<title>Node29</title>
<g id="a_node29"><a xlink:href="../../df/d8f/txscan_8cpp.html" target="_top" xlink:title=" ">
<polygon fill="none" stroke="black" points="2086.53,-55.5 2086.53,-73.5 2150.33,-73.5 2150.33,-55.5 2086.53,-55.5"/>
<text text-anchor="middle" x="2118.43" y="-61.5" font-family="Helvetica,sans-Serif" font-size="10.00">txscan.cpp</text>
</a>
</g>
</g>
<!-- Node2&#45;&gt;Node29 -->
<g id="edge28" class="edge">
<title>Node2&#45;&gt;Node29</title>
<path fill="none" stroke="midnightblue" d="M1313.65,-110.09C1651.68,-66.59 1743.04,-116.26 2077.43,-74 2080.31,-73.64 2083.3,-73.18 2086.28,-72.66"/>
<polygon fill="midnightblue" stroke="midnightblue" points="1313.04,-106.64 1303.58,-111.41 1313.94,-113.58 1313.04,-106.64"/>
</g>
<!-- Node30 -->
<g id="node30" class="node">
<title>Node30</title>
<g id="a_node30"><a xlink:href="../../d5/dbc/txstack_8cpp.html" target="_top" xlink:title=" ">
<polygon fill="none" stroke="black" points="2168.42,-55.5 2168.42,-73.5 2234.44,-73.5 2234.44,-55.5 2168.42,-55.5"/>
<text text-anchor="middle" x="2201.43" y="-61.5" font-family="Helvetica,sans-Serif" font-size="10.00">txstack.cpp</text>
</a>
</g>
</g>
<!-- Node2&#45;&gt;Node30 -->
<g id="edge29" class="edge">
<title>Node2&#45;&gt;Node30</title>
<path fill="none" stroke="midnightblue" d="M1313.59,-110.11C1687.87,-62.71 1788.69,-119.11 2159.43,-74 2162.24,-73.66 2165.13,-73.23 2168.04,-72.75"/>
<polygon fill="midnightblue" stroke="midnightblue" points="1313.05,-106.65 1303.57,-111.39 1313.94,-113.59 1313.05,-106.65"/>
</g>
<!-- Node31 -->
<g id="node31" class="node">
<title>Node31</title>
<g id="a_node31"><a xlink:href="../../d1/dc8/txtitlepage_8cpp.html" target="_top" xlink:title=" ">
<polygon fill="none" stroke="black" points="2252.19,-55.5 2252.19,-73.5 2332.67,-73.5 2332.67,-55.5 2252.19,-55.5"/>
<text text-anchor="middle" x="2292.43" y="-61.5" font-family="Helvetica,sans-Serif" font-size="10.00">txtitlepage.cpp</text>
</a>
</g>
</g>
<!-- Node2&#45;&gt;Node31 -->
<g id="edge30" class="edge">
<title>Node2&#45;&gt;Node31</title>
<path fill="none" stroke="midnightblue" d="M1313.65,-110.11C1724.97,-58.66 1834.95,-117.13 2243.43,-74 2246.26,-73.7 2249.18,-73.34 2252.11,-72.93"/>
<polygon fill="midnightblue" stroke="midnightblue" points="1313.05,-106.65 1303.57,-111.38 1313.93,-113.6 1313.05,-106.65"/>
</g>
<!-- Node32 -->
<g id="node32" class="node">
<title>Node32</title>
<g id="a_node32"><a xlink:href="../../d7/d6c/txtoken_8cpp.html" target="_top" xlink:title=" ">
<polygon fill="none" stroke="black" points="2350.86,-55.5 2350.86,-73.5 2418,-73.5 2418,-55.5 2350.86,-55.5"/>
<text text-anchor="middle" x="2384.43" y="-61.5" font-family="Helvetica,sans-Serif" font-size="10.00">txtoken.cpp</text>
</a>
</g>
</g>
<!-- Node2&#45;&gt;Node32 -->
<g id="edge31" class="edge">
<title>Node2&#45;&gt;Node32</title>
<path fill="none" stroke="midnightblue" d="M1313.69,-110.11C1768.27,-54.12 1890.17,-126.15 2341.43,-74 2344.45,-73.65 2347.58,-73.2 2350.71,-72.7"/>
<polygon fill="midnightblue" stroke="midnightblue" points="1313.06,-106.66 1303.57,-111.37 1313.93,-113.61 1313.06,-106.66"/>
</g>
<!-- Node33 -->
<g id="node33" class="node">
<title>Node33</title>
<g id="a_node33"><a xlink:href="../../dd/da4/txtranslate_8cpp.html" target="_top" xlink:title=" ">
<polygon fill="none" stroke="black" points="2435.91,-55.5 2435.91,-73.5 2516.95,-73.5 2516.95,-55.5 2435.91,-55.5"/>
<text text-anchor="middle" x="2476.43" y="-61.5" font-family="Helvetica,sans-Serif" font-size="10.00">txtranslate.cpp</text>
</a>
</g>
</g>
<!-- Node2&#45;&gt;Node33 -->
<g id="edge32" class="edge">
<title>Node2&#45;&gt;Node33</title>
<path fill="none" stroke="midnightblue" d="M1313.79,-110.1C1806.26,-49.98 1937.57,-124.15 2427.43,-74 2430.18,-73.72 2433,-73.37 2435.85,-72.99"/>
<polygon fill="midnightblue" stroke="midnightblue" points="1313.07,-106.66 1303.57,-111.36 1313.92,-113.61 1313.07,-106.66"/>
</g>
<!-- Node34 -->
<g id="node34" class="node">
<title>Node34</title>
<g id="a_node34"><a xlink:href="../../d0/d93/txtrees_8cpp.html" target="_top" xlink:title=" ">
<polygon fill="none" stroke="black" points="2534.97,-55.5 2534.97,-73.5 2599.88,-73.5 2599.88,-55.5 2534.97,-55.5"/>
<text text-anchor="middle" x="2567.43" y="-61.5" font-family="Helvetica,sans-Serif" font-size="10.00">txtrees.cpp</text>
</a>
</g>
</g>
<!-- Node2&#45;&gt;Node34 -->
<g id="edge33" class="edge">
<title>Node2&#45;&gt;Node34</title>
<path fill="none" stroke="midnightblue" d="M1313.5,-110.14C1849.95,-45.37 1993.6,-136.64 2526.43,-74 2529.17,-73.68 2532.01,-73.26 2534.84,-72.79"/>
<polygon fill="midnightblue" stroke="midnightblue" points="1313.07,-106.67 1303.57,-111.35 1313.92,-113.62 1313.07,-106.67"/>
</g>
<!-- Node25 -->
<g id="node25" class="node">
<title>Node25</title>
<g id="a_node25"><a xlink:href="../../d0/d24/txparser2_8cpp.html" target="_top" xlink:title=" ">
<polygon fill="none" stroke="black" points="1753.14,-0.5 1753.14,-18.5 1829.72,-18.5 1829.72,-0.5 1753.14,-0.5"/>
<text text-anchor="middle" x="1791.43" y="-6.5" font-family="Helvetica,sans-Serif" font-size="10.00">txparser2.cpp</text>
</a>
</g>
</g>
<!-- Node24&#45;&gt;Node25 -->
<g id="edge24" class="edge">
<title>Node24&#45;&gt;Node25</title>
<path fill="none" stroke="midnightblue" d="M1791.43,-45.17C1791.43,-36.09 1791.43,-25.59 1791.43,-18.55"/>
<polygon fill="midnightblue" stroke="midnightblue" points="1787.93,-45.22 1791.43,-55.22 1794.93,-45.22 1787.93,-45.22"/>
</g>
</g>
</svg>
