<?xml version="1.0" encoding="UTF-8" standalone="no"?>
<!DOCTYPE svg PUBLIC "-//W3C//DTD SVG 1.1//EN"
 "http://www.w3.org/Graphics/SVG/1.1/DTD/svg11.dtd">
<!-- Generated by graphviz version 2.42.3 (20191010.1750)
 -->
<!-- Title: CitationKey Pages: 1 -->
<svg width="121pt" height="178pt"
 viewBox="0.00 0.00 121.19 178.00" xmlns="http://www.w3.org/2000/svg" xmlns:xlink="http://www.w3.org/1999/xlink">
<g id="graph0" class="graph" transform="scale(1 1) rotate(0) translate(4 174)">
<title>CitationKey</title>
<!-- Node1 -->
<g id="node1" class="node">
<title>Node1</title>
<g id="a_node1"><a xlink:title=" ">
<polygon fill="#bfbfbf" stroke="black" points="13.48,-0.5 13.48,-18.5 80.62,-18.5 80.62,-0.5 13.48,-0.5"/>
<text text-anchor="middle" x="47.05" y="-6.5" font-family="Helvetica,sans-Serif" font-size="10.00">CitationKey</text>
</a>
</g>
</g>
<!-- Node2 -->
<g id="node2" class="node">
<title>Node2</title>
<g id="a_node2"><a xlink:title="STL class.">
<polygon fill="none" stroke="#bfbfbf" points="17.37,-85.5 17.37,-103.5 76.72,-103.5 76.72,-85.5 17.37,-85.5"/>
<text text-anchor="middle" x="47.05" y="-91.5" font-family="Helvetica,sans-Serif" font-size="10.00">std::string</text>
</a>
</g>
</g>
<!-- Node2&#45;&gt;Node1 -->
<g id="edge1" class="edge">
<title>Node2&#45;&gt;Node1</title>
<path fill="none" stroke="#9a32cd" stroke-dasharray="5,2" d="M47.05,-75.06C47.05,-57.46 47.05,-31.76 47.05,-18.73"/>
<polygon fill="#9a32cd" stroke="#9a32cd" points="43.55,-75.24 47.05,-85.24 50.55,-75.24 43.55,-75.24"/>
<text text-anchor="middle" x="80.12" y="-59" font-family="Helvetica,sans-Serif" font-size="10.00"> full_key</text>
<text text-anchor="middle" x="80.12" y="-49" font-family="Helvetica,sans-Serif" font-size="10.00">cite_key</text>
<text text-anchor="middle" x="80.12" y="-39" font-family="Helvetica,sans-Serif" font-size="10.00">lower_cite_key</text>
</g>
<!-- Node3 -->
<g id="node3" class="node">
<title>Node3</title>
<g id="a_node3"><a xlink:title="STL class.">
<polygon fill="none" stroke="#bfbfbf" points="0,-141.5 0,-169.5 94.1,-169.5 94.1,-141.5 0,-141.5"/>
<text text-anchor="start" x="8" y="-157.5" font-family="Helvetica,sans-Serif" font-size="10.00">std::basic_string&lt;</text>
<text text-anchor="middle" x="47.05" y="-147.5" font-family="Helvetica,sans-Serif" font-size="10.00"> char &gt;</text>
</a>
</g>
</g>
<!-- Node3&#45;&gt;Node2 -->
<g id="edge2" class="edge">
<title>Node3&#45;&gt;Node2</title>
<path fill="none" stroke="midnightblue" d="M47.05,-131.39C47.05,-121.59 47.05,-110.82 47.05,-103.65"/>
<polygon fill="midnightblue" stroke="midnightblue" points="43.55,-131.41 47.05,-141.41 50.55,-131.41 43.55,-131.41"/>
</g>
</g>
</svg>
