<?xml version="1.0" encoding="UTF-8" standalone="no"?>
<!DOCTYPE svg PUBLIC "-//W3C//DTD SVG 1.1//EN"
 "http://www.w3.org/Graphics/SVG/1.1/DTD/svg11.dtd">
<!-- Generated by graphviz version 2.42.3 (20191010.1750)
 -->
<!-- Title: txarray.cpp Pages: 1 -->
<svg width="719pt" height="742pt"
 viewBox="0.00 0.00 719.36 742.00" xmlns="http://www.w3.org/2000/svg" xmlns:xlink="http://www.w3.org/1999/xlink">
<g id="graph0" class="graph" transform="scale(1 1) rotate(0) translate(4 738)">
<title>txarray.cpp</title>
<!-- Node1 -->
<g id="node1" class="node">
<title>Node1</title>
<g id="a_node1"><a xlink:title=" ">
<polygon fill="#bfbfbf" stroke="black" points="343.32,-715.5 343.32,-733.5 408.05,-733.5 408.05,-715.5 343.32,-715.5"/>
<text text-anchor="middle" x="375.68" y="-721.5" font-family="Helvetica,sans-Serif" font-size="10.00">txarray.cpp</text>
</a>
</g>
</g>
<!-- Node2 -->
<g id="node2" class="node">
<title>Node2</title>
<g id="a_node2"><a xlink:href="../../d8/d6d/txarray_8h.html" target="_top" xlink:title=" ">
<polygon fill="none" stroke="black" points="348.6,-660.5 348.6,-678.5 402.77,-678.5 402.77,-660.5 348.6,-660.5"/>
<text text-anchor="middle" x="375.68" y="-666.5" font-family="Helvetica,sans-Serif" font-size="10.00">txarray.h</text>
</a>
</g>
</g>
<!-- Node1&#45;&gt;Node2 -->
<g id="edge1" class="edge">
<title>Node1&#45;&gt;Node2</title>
<path fill="none" stroke="midnightblue" d="M375.68,-715.22C375.68,-708.18 375.68,-697.81 375.68,-688.83"/>
<polygon fill="midnightblue" stroke="midnightblue" points="379.18,-688.55 375.68,-678.55 372.18,-688.55 379.18,-688.55"/>
</g>
<!-- Node28 -->
<g id="node28" class="node">
<title>Node28</title>
<g id="a_node28"><a xlink:href="../../d7/d79/txinline_8h.html" target="_top" xlink:title=" ">
<polygon fill="none" stroke="black" points="147.95,-660.5 147.95,-678.5 203.42,-678.5 203.42,-660.5 147.95,-660.5"/>
<text text-anchor="middle" x="175.68" y="-666.5" font-family="Helvetica,sans-Serif" font-size="10.00">txinline.h</text>
</a>
</g>
</g>
<!-- Node1&#45;&gt;Node28 -->
<g id="edge31" class="edge">
<title>Node1&#45;&gt;Node28</title>
<path fill="none" stroke="midnightblue" d="M345.31,-715.45C309.9,-706.07 251.37,-690.56 213.16,-680.43"/>
<polygon fill="midnightblue" stroke="midnightblue" points="214,-677.03 203.44,-677.86 212.21,-683.8 214,-677.03"/>
</g>
<!-- Node35 -->
<g id="node35" class="node">
<title>Node35</title>
<g id="a_node35"><a xlink:href="../../d2/d1b/txparser_8h.html" target="_top" xlink:title=" ">
<polygon fill="none" stroke="black" points="420.73,-660.5 420.73,-678.5 480.64,-678.5 480.64,-660.5 420.73,-660.5"/>
<text text-anchor="middle" x="450.68" y="-666.5" font-family="Helvetica,sans-Serif" font-size="10.00">txparser.h</text>
</a>
</g>
</g>
<!-- Node1&#45;&gt;Node35 -->
<g id="edge42" class="edge">
<title>Node1&#45;&gt;Node35</title>
<path fill="none" stroke="midnightblue" d="M387.08,-715.45C398.64,-707.28 416.78,-694.46 430.73,-684.6"/>
<polygon fill="midnightblue" stroke="midnightblue" points="433.04,-687.25 439.19,-678.63 429,-681.54 433.04,-687.25"/>
</g>
<!-- Node3 -->
<g id="node3" class="node">
<title>Node3</title>
<g id="a_node3"><a xlink:href="../../dc/d65/txstack_8h.html" target="_top" xlink:title=" ">
<polygon fill="none" stroke="black" points="349.96,-605.5 349.96,-623.5 405.41,-623.5 405.41,-605.5 349.96,-605.5"/>
<text text-anchor="middle" x="377.68" y="-611.5" font-family="Helvetica,sans-Serif" font-size="10.00">txstack.h</text>
</a>
</g>
</g>
<!-- Node2&#45;&gt;Node3 -->
<g id="edge2" class="edge">
<title>Node2&#45;&gt;Node3</title>
<path fill="none" stroke="midnightblue" d="M376,-660.22C376.26,-653.18 376.65,-642.81 376.99,-633.83"/>
<polygon fill="midnightblue" stroke="midnightblue" points="380.5,-633.67 377.38,-623.55 373.51,-633.41 380.5,-633.67"/>
</g>
<!-- Node4 -->
<g id="node4" class="node">
<title>Node4</title>
<g id="a_node4"><a xlink:href="../../d9/d1c/_xml_8h.html" target="_top" xlink:title=" ">
<polygon fill="none" stroke="black" points="403.46,-550.5 403.46,-568.5 473.91,-568.5 473.91,-550.5 403.46,-550.5"/>
<text text-anchor="middle" x="438.68" y="-556.5" font-family="Helvetica,sans-Serif" font-size="10.00">tralics/Xml.h</text>
</a>
</g>
</g>
<!-- Node3&#45;&gt;Node4 -->
<g id="edge3" class="edge">
<title>Node3&#45;&gt;Node4</title>
<path fill="none" stroke="midnightblue" d="M386.95,-605.45C396.09,-597.51 410.27,-585.19 421.48,-575.45"/>
<polygon fill="midnightblue" stroke="midnightblue" points="424.08,-577.83 429.33,-568.63 419.49,-572.54 424.08,-577.83"/>
</g>
<!-- Node27 -->
<g id="node27" class="node">
<title>Node27</title>
<g id="a_node27"><a xlink:href="../../d4/da4/txatt_8h.html" target="_top" xlink:title=" ">
<polygon fill="none" stroke="black" points="342.07,-550.5 342.07,-568.5 385.3,-568.5 385.3,-550.5 342.07,-550.5"/>
<text text-anchor="middle" x="363.68" y="-556.5" font-family="Helvetica,sans-Serif" font-size="10.00">txatt.h</text>
</a>
</g>
</g>
<!-- Node3&#45;&gt;Node27 -->
<g id="edge29" class="edge">
<title>Node3&#45;&gt;Node27</title>
<path fill="none" stroke="midnightblue" d="M375.5,-605.22C373.6,-598.02 370.78,-587.35 368.37,-578.23"/>
<polygon fill="midnightblue" stroke="midnightblue" points="371.75,-577.32 365.81,-568.55 364.98,-579.11 371.75,-577.32"/>
</g>
<!-- Node5 -->
<g id="node5" class="node">
<title>Node5</title>
<g id="a_node5"><a xlink:href="../../dc/def/txstring_8h.html" target="_top" xlink:title=" ">
<polygon fill="none" stroke="black" points="391.23,-495.5 391.23,-513.5 456.14,-513.5 456.14,-495.5 391.23,-495.5"/>
<text text-anchor="middle" x="423.68" y="-501.5" font-family="Helvetica,sans-Serif" font-size="10.00">../txstring.h</text>
</a>
</g>
</g>
<!-- Node4&#45;&gt;Node5 -->
<g id="edge4" class="edge">
<title>Node4&#45;&gt;Node5</title>
<path fill="none" stroke="midnightblue" d="M436.34,-550.22C434.3,-543.02 431.28,-532.35 428.7,-523.23"/>
<polygon fill="midnightblue" stroke="midnightblue" points="432.05,-522.22 425.96,-513.55 425.32,-524.12 432.05,-522.22"/>
</g>
<!-- Node6 -->
<g id="node6" class="node">
<title>Node6</title>
<g id="a_node6"><a xlink:href="../../d7/d1b/_buffer_8h.html" target="_top" xlink:title=" ">
<polygon fill="none" stroke="black" points="380.09,-440.5 380.09,-458.5 459.28,-458.5 459.28,-440.5 380.09,-440.5"/>
<text text-anchor="middle" x="419.68" y="-446.5" font-family="Helvetica,sans-Serif" font-size="10.00">tralics/Buffer.h</text>
</a>
</g>
</g>
<!-- Node5&#45;&gt;Node6 -->
<g id="edge5" class="edge">
<title>Node5&#45;&gt;Node6</title>
<path fill="none" stroke="midnightblue" d="M423.06,-495.22C422.52,-488.1 421.73,-477.58 421.05,-468.53"/>
<polygon fill="midnightblue" stroke="midnightblue" points="424.53,-468.26 420.29,-458.55 417.55,-468.78 424.53,-468.26"/>
</g>
<!-- Node7 -->
<g id="node7" class="node">
<title>Node7</title>
<g id="a_node7"><a xlink:href="../../d1/d9e/txid_8h.html" target="_top" xlink:title=" ">
<polygon fill="none" stroke="black" points="437.57,-330.5 437.57,-348.5 485.8,-348.5 485.8,-330.5 437.57,-330.5"/>
<text text-anchor="middle" x="461.68" y="-336.5" font-family="Helvetica,sans-Serif" font-size="10.00">../txid.h</text>
</a>
</g>
</g>
<!-- Node6&#45;&gt;Node7 -->
<g id="edge6" class="edge">
<title>Node6&#45;&gt;Node7</title>
<path fill="none" stroke="midnightblue" d="M426.79,-440.24C433.72,-431.72 444.02,-417.79 449.68,-404 455.69,-389.39 458.72,-371.65 460.23,-358.64"/>
<polygon fill="midnightblue" stroke="midnightblue" points="463.72,-358.91 461.2,-348.62 456.75,-358.23 463.72,-358.91"/>
</g>
<!-- Node17 -->
<g id="node17" class="node">
<title>Node17</title>
<g id="a_node17"><a xlink:href="../../d9/d18/txscaled_8h.html" target="_top" xlink:title=" ">
<polygon fill="none" stroke="black" points="524,-385.5 524,-403.5 593.36,-403.5 593.36,-385.5 524,-385.5"/>
<text text-anchor="middle" x="558.68" y="-391.5" font-family="Helvetica,sans-Serif" font-size="10.00">../txscaled.h</text>
</a>
</g>
</g>
<!-- Node6&#45;&gt;Node17 -->
<g id="edge16" class="edge">
<title>Node6&#45;&gt;Node17</title>
<path fill="none" stroke="midnightblue" d="M440.8,-440.45C463.96,-431.62 501.37,-417.35 527.82,-407.27"/>
<polygon fill="midnightblue" stroke="midnightblue" points="529.28,-410.46 537.37,-403.63 526.78,-403.92 529.28,-410.46"/>
</g>
<!-- Node25 -->
<g id="node25" class="node">
<title>Node25</title>
<g id="a_node25"><a xlink:title=" ">
<polygon fill="none" stroke="#bfbfbf" points="394.96,-385.5 394.96,-403.5 440.41,-403.5 440.41,-385.5 394.96,-385.5"/>
<text text-anchor="middle" x="417.68" y="-391.5" font-family="Helvetica,sans-Serif" font-size="10.00">cstring</text>
</a>
</g>
</g>
<!-- Node6&#45;&gt;Node25 -->
<g id="edge27" class="edge">
<title>Node6&#45;&gt;Node25</title>
<path fill="none" stroke="midnightblue" d="M419.37,-440.22C419.11,-433.18 418.72,-422.81 418.38,-413.83"/>
<polygon fill="midnightblue" stroke="midnightblue" points="421.86,-413.41 417.99,-403.55 414.87,-413.67 421.86,-413.41"/>
</g>
<!-- Node26 -->
<g id="node26" class="node">
<title>Node26</title>
<g id="a_node26"><a xlink:title=" ">
<polygon fill="none" stroke="#bfbfbf" points="334.07,-385.5 334.07,-403.5 377.3,-403.5 377.3,-385.5 334.07,-385.5"/>
<text text-anchor="middle" x="355.68" y="-391.5" font-family="Helvetica,sans-Serif" font-size="10.00">vector</text>
</a>
</g>
</g>
<!-- Node6&#45;&gt;Node26 -->
<g id="edge28" class="edge">
<title>Node6&#45;&gt;Node26</title>
<path fill="none" stroke="midnightblue" d="M409.96,-440.45C400.28,-432.43 385.21,-419.95 373.39,-410.17"/>
<polygon fill="midnightblue" stroke="midnightblue" points="375.43,-407.31 365.5,-403.63 370.97,-412.7 375.43,-407.31"/>
</g>
<!-- Node8 -->
<g id="node8" class="node">
<title>Node8</title>
<g id="a_node8"><a xlink:href="../../d5/daf/_istring_8h.html" target="_top" xlink:title=" ">
<polygon fill="none" stroke="black" points="420.45,-275.5 420.45,-293.5 500.92,-293.5 500.92,-275.5 420.45,-275.5"/>
<text text-anchor="middle" x="460.68" y="-281.5" font-family="Helvetica,sans-Serif" font-size="10.00">tralics/Istring.h</text>
</a>
</g>
</g>
<!-- Node7&#45;&gt;Node8 -->
<g id="edge7" class="edge">
<title>Node7&#45;&gt;Node8</title>
<path fill="none" stroke="midnightblue" d="M461.53,-330.22C461.4,-323.18 461.2,-312.81 461.03,-303.83"/>
<polygon fill="midnightblue" stroke="midnightblue" points="464.52,-303.48 460.84,-293.55 457.53,-303.61 464.52,-303.48"/>
</g>
<!-- Node9 -->
<g id="node9" class="node">
<title>Node9</title>
<g id="a_node9"><a xlink:href="../../d0/d0b/enums_8h.html" target="_top" xlink:title=" ">
<polygon fill="none" stroke="black" points="450.51,-165.5 450.51,-183.5 504.86,-183.5 504.86,-165.5 450.51,-165.5"/>
<text text-anchor="middle" x="477.68" y="-171.5" font-family="Helvetica,sans-Serif" font-size="10.00">enums.h</text>
</a>
</g>
</g>
<!-- Node8&#45;&gt;Node9 -->
<g id="edge8" class="edge">
<title>Node8&#45;&gt;Node9</title>
<path fill="none" stroke="midnightblue" d="M461.96,-275.38C464.67,-258.18 471.04,-217.7 474.79,-193.89"/>
<polygon fill="midnightblue" stroke="midnightblue" points="478.29,-194.13 476.39,-183.71 471.38,-193.05 478.29,-194.13"/>
</g>
<!-- Node15 -->
<g id="node15" class="node">
<title>Node15</title>
<g id="a_node15"><a xlink:title=" ">
<polygon fill="none" stroke="#bfbfbf" points="391.29,-220.5 391.29,-238.5 430.08,-238.5 430.08,-220.5 391.29,-220.5"/>
<text text-anchor="middle" x="410.68" y="-226.5" font-family="Helvetica,sans-Serif" font-size="10.00">array</text>
</a>
</g>
</g>
<!-- Node8&#45;&gt;Node15 -->
<g id="edge14" class="edge">
<title>Node8&#45;&gt;Node15</title>
<path fill="none" stroke="midnightblue" d="M452.87,-275.22C445.49,-267.39 434.23,-255.46 425.21,-245.89"/>
<polygon fill="midnightblue" stroke="midnightblue" points="427.69,-243.42 418.28,-238.55 422.59,-248.23 427.69,-243.42"/>
</g>
<!-- Node16 -->
<g id="node16" class="node">
<title>Node16</title>
<g id="a_node16"><a xlink:title=" ">
<polygon fill="none" stroke="#bfbfbf" points="485.46,-220.5 485.46,-238.5 525.91,-238.5 525.91,-220.5 485.46,-220.5"/>
<text text-anchor="middle" x="505.68" y="-226.5" font-family="Helvetica,sans-Serif" font-size="10.00">string</text>
</a>
</g>
</g>
<!-- Node8&#45;&gt;Node16 -->
<g id="edge15" class="edge">
<title>Node8&#45;&gt;Node16</title>
<path fill="none" stroke="midnightblue" d="M467.72,-275.22C474.29,-267.47 484.29,-255.7 492.37,-246.18"/>
<polygon fill="midnightblue" stroke="midnightblue" points="495.05,-248.44 498.85,-238.55 489.71,-243.91 495.05,-248.44"/>
</g>
<!-- Node10 -->
<g id="node10" class="node">
<title>Node10</title>
<g id="a_node10"><a xlink:href="../../d8/db5/consts_8h.html" target="_top" xlink:title=" ">
<polygon fill="none" stroke="black" points="461.06,-110.5 461.06,-128.5 514.31,-128.5 514.31,-110.5 461.06,-110.5"/>
<text text-anchor="middle" x="487.68" y="-116.5" font-family="Helvetica,sans-Serif" font-size="10.00">consts.h</text>
</a>
</g>
</g>
<!-- Node9&#45;&gt;Node10 -->
<g id="edge9" class="edge">
<title>Node9&#45;&gt;Node10</title>
<path fill="none" stroke="midnightblue" d="M479.25,-165.22C480.59,-158.1 482.58,-147.58 484.28,-138.53"/>
<polygon fill="midnightblue" stroke="midnightblue" points="487.75,-139.03 486.17,-128.55 480.87,-137.73 487.75,-139.03"/>
</g>
<!-- Node11 -->
<g id="node11" class="node">
<title>Node11</title>
<g id="a_node11"><a xlink:href="../../d9/d49/types_8h.html" target="_top" xlink:title=" ">
<polygon fill="none" stroke="black" points="525.56,-55.5 525.56,-73.5 573.81,-73.5 573.81,-55.5 525.56,-55.5"/>
<text text-anchor="middle" x="549.68" y="-61.5" font-family="Helvetica,sans-Serif" font-size="10.00">types.h</text>
</a>
</g>
</g>
<!-- Node10&#45;&gt;Node11 -->
<g id="edge10" class="edge">
<title>Node10&#45;&gt;Node11</title>
<path fill="none" stroke="midnightblue" d="M497.1,-110.45C506.48,-102.43 521.09,-89.95 532.53,-80.17"/>
<polygon fill="midnightblue" stroke="midnightblue" points="534.85,-82.78 540.18,-73.63 530.3,-77.46 534.85,-82.78"/>
</g>
<!-- Node12 -->
<g id="node12" class="node">
<title>Node12</title>
<g id="a_node12"><a xlink:title=" ">
<polygon fill="none" stroke="#bfbfbf" points="459.57,-0.5 459.57,-18.5 507.8,-18.5 507.8,-0.5 459.57,-0.5"/>
<text text-anchor="middle" x="483.68" y="-6.5" font-family="Helvetica,sans-Serif" font-size="10.00">cassert</text>
</a>
</g>
</g>
<!-- Node11&#45;&gt;Node12 -->
<g id="edge11" class="edge">
<title>Node11&#45;&gt;Node12</title>
<path fill="none" stroke="midnightblue" d="M539.66,-55.45C529.68,-47.43 514.13,-34.95 501.95,-25.17"/>
<polygon fill="midnightblue" stroke="midnightblue" points="503.79,-22.16 493.8,-18.63 499.41,-27.62 503.79,-22.16"/>
</g>
<!-- Node13 -->
<g id="node13" class="node">
<title>Node13</title>
<g id="a_node13"><a xlink:title=" ">
<polygon fill="none" stroke="#bfbfbf" points="525.56,-0.5 525.56,-18.5 573.81,-18.5 573.81,-0.5 525.56,-0.5"/>
<text text-anchor="middle" x="549.68" y="-6.5" font-family="Helvetica,sans-Serif" font-size="10.00">cstddef</text>
</a>
</g>
</g>
<!-- Node11&#45;&gt;Node13 -->
<g id="edge12" class="edge">
<title>Node11&#45;&gt;Node13</title>
<path fill="none" stroke="midnightblue" d="M549.68,-55.22C549.68,-48.18 549.68,-37.81 549.68,-28.83"/>
<polygon fill="midnightblue" stroke="midnightblue" points="553.18,-28.55 549.68,-18.55 546.18,-28.55 553.18,-28.55"/>
</g>
<!-- Node14 -->
<g id="node14" class="node">
<title>Node14</title>
<g id="a_node14"><a xlink:title=" ">
<polygon fill="none" stroke="#bfbfbf" points="591.62,-0.5 591.62,-18.5 653.75,-18.5 653.75,-0.5 591.62,-0.5"/>
<text text-anchor="middle" x="622.68" y="-6.5" font-family="Helvetica,sans-Serif" font-size="10.00">type_traits</text>
</a>
</g>
</g>
<!-- Node11&#45;&gt;Node14 -->
<g id="edge13" class="edge">
<title>Node11&#45;&gt;Node14</title>
<path fill="none" stroke="midnightblue" d="M560.77,-55.45C572.03,-47.28 589.68,-34.46 603.26,-24.6"/>
<polygon fill="midnightblue" stroke="midnightblue" points="605.46,-27.33 611.49,-18.63 601.34,-21.67 605.46,-27.33"/>
</g>
<!-- Node18 -->
<g id="node18" class="node">
<title>Node18</title>
<g id="a_node18"><a xlink:href="../../dc/d91/txtokenlist_8h.html" target="_top" xlink:title=" ">
<polygon fill="none" stroke="black" points="524.28,-330.5 524.28,-348.5 593.09,-348.5 593.09,-330.5 524.28,-330.5"/>
<text text-anchor="middle" x="558.68" y="-336.5" font-family="Helvetica,sans-Serif" font-size="10.00">txtokenlist.h</text>
</a>
</g>
</g>
<!-- Node17&#45;&gt;Node18 -->
<g id="edge17" class="edge">
<title>Node17&#45;&gt;Node18</title>
<path fill="none" stroke="midnightblue" d="M558.68,-385.22C558.68,-378.18 558.68,-367.81 558.68,-358.83"/>
<polygon fill="midnightblue" stroke="midnightblue" points="562.18,-358.55 558.68,-348.55 555.18,-358.55 562.18,-358.55"/>
</g>
<!-- Node18&#45;&gt;Node8 -->
<g id="edge18" class="edge">
<title>Node18&#45;&gt;Node8</title>
<path fill="none" stroke="midnightblue" d="M543.8,-330.45C528.12,-321.97 503.17,-308.48 484.7,-298.49"/>
<polygon fill="midnightblue" stroke="midnightblue" points="486.17,-295.3 475.71,-293.63 482.84,-301.46 486.17,-295.3"/>
</g>
<!-- Node19 -->
<g id="node19" class="node">
<title>Node19</title>
<g id="a_node19"><a xlink:href="../../dd/dcd/_token_8h.html" target="_top" xlink:title=" ">
<polygon fill="none" stroke="black" points="518.73,-275.5 518.73,-293.5 598.64,-293.5 598.64,-275.5 518.73,-275.5"/>
<text text-anchor="middle" x="558.68" y="-281.5" font-family="Helvetica,sans-Serif" font-size="10.00">tralics/Token.h</text>
</a>
</g>
</g>
<!-- Node18&#45;&gt;Node19 -->
<g id="edge19" class="edge">
<title>Node18&#45;&gt;Node19</title>
<path fill="none" stroke="midnightblue" d="M558.68,-330.22C558.68,-323.18 558.68,-312.81 558.68,-303.83"/>
<polygon fill="midnightblue" stroke="midnightblue" points="562.18,-303.55 558.68,-293.55 555.18,-303.55 562.18,-303.55"/>
</g>
<!-- Node24 -->
<g id="node24" class="node">
<title>Node24</title>
<g id="a_node24"><a xlink:title=" ">
<polygon fill="none" stroke="#bfbfbf" points="616.29,-275.5 616.29,-293.5 655.08,-293.5 655.08,-275.5 616.29,-275.5"/>
<text text-anchor="middle" x="635.68" y="-281.5" font-family="Helvetica,sans-Serif" font-size="10.00">utility</text>
</a>
</g>
</g>
<!-- Node18&#45;&gt;Node24 -->
<g id="edge26" class="edge">
<title>Node18&#45;&gt;Node24</title>
<path fill="none" stroke="midnightblue" d="M570.38,-330.45C582.36,-322.2 601.23,-309.22 615.61,-299.32"/>
<polygon fill="midnightblue" stroke="midnightblue" points="617.63,-302.18 623.88,-293.63 613.66,-296.41 617.63,-302.18"/>
</g>
<!-- Node20 -->
<g id="node20" class="node">
<title>Node20</title>
<g id="a_node20"><a xlink:href="../../d2/d68/_cmd_chr_8h.html" target="_top" xlink:title=" ">
<polygon fill="none" stroke="black" points="591.17,-220.5 591.17,-238.5 652.19,-238.5 652.19,-220.5 591.17,-220.5"/>
<text text-anchor="middle" x="621.68" y="-226.5" font-family="Helvetica,sans-Serif" font-size="10.00">CmdChr.h</text>
</a>
</g>
</g>
<!-- Node19&#45;&gt;Node20 -->
<g id="edge20" class="edge">
<title>Node19&#45;&gt;Node20</title>
<path fill="none" stroke="midnightblue" d="M568.25,-275.45C577.78,-267.43 592.62,-254.95 604.25,-245.17"/>
<polygon fill="midnightblue" stroke="midnightblue" points="606.63,-247.74 612.03,-238.63 602.12,-242.38 606.63,-247.74"/>
</g>
<!-- Node23 -->
<g id="node23" class="node">
<title>Node23</title>
<g id="a_node23"><a xlink:title=" ">
<polygon fill="none" stroke="#bfbfbf" points="544.18,-220.5 544.18,-238.5 573.18,-238.5 573.18,-220.5 544.18,-220.5"/>
<text text-anchor="middle" x="558.3" y="-226.5" font-family="Helvetica,sans-Serif" font-size="10.00">list</text>
</a>
</g>
</g>
<!-- Node19&#45;&gt;Node23 -->
<g id="edge25" class="edge">
<title>Node19&#45;&gt;Node23</title>
<path fill="none" stroke="midnightblue" d="M558.68,-275.22C558.68,-268.18 558.68,-257.81 558.68,-248.83"/>
<polygon fill="midnightblue" stroke="midnightblue" points="562.18,-248.55 558.68,-238.55 555.18,-248.55 562.18,-248.55"/>
</g>
<!-- Node20&#45;&gt;Node9 -->
<g id="edge24" class="edge">
<title>Node20&#45;&gt;Node9</title>
<path fill="none" stroke="midnightblue" d="M599.81,-220.45C575.71,-211.58 536.72,-197.23 509.29,-187.13"/>
<polygon fill="midnightblue" stroke="midnightblue" points="510.35,-183.79 499.76,-183.63 507.94,-190.36 510.35,-183.79"/>
</g>
<!-- Node21 -->
<g id="node21" class="node">
<title>Node21</title>
<g id="a_node21"><a xlink:href="../../d8/d47/codepoint_8h.html" target="_top" xlink:title=" ">
<polygon fill="none" stroke="black" points="582.83,-165.5 582.83,-183.5 650.54,-183.5 650.54,-165.5 582.83,-165.5"/>
<text text-anchor="middle" x="616.68" y="-171.5" font-family="Helvetica,sans-Serif" font-size="10.00">codepoint.h</text>
</a>
</g>
</g>
<!-- Node20&#45;&gt;Node21 -->
<g id="edge21" class="edge">
<title>Node20&#45;&gt;Node21</title>
<path fill="none" stroke="midnightblue" d="M620.9,-220.22C620.23,-213.1 619.24,-202.58 618.39,-193.53"/>
<polygon fill="midnightblue" stroke="midnightblue" points="621.87,-193.18 617.44,-183.55 614.9,-193.83 621.87,-193.18"/>
</g>
<!-- Node21&#45;&gt;Node11 -->
<g id="edge22" class="edge">
<title>Node21&#45;&gt;Node11</title>
<path fill="none" stroke="midnightblue" d="M615.61,-165.11C613.69,-152.37 608.76,-127.78 597.68,-110 590.44,-98.36 579.36,-87.81 569.67,-79.9"/>
<polygon fill="midnightblue" stroke="midnightblue" points="571.69,-77.04 561.65,-73.68 567.4,-82.57 571.69,-77.04"/>
</g>
<!-- Node22 -->
<g id="node22" class="node">
<title>Node22</title>
<g id="a_node22"><a xlink:title=" ">
<polygon fill="none" stroke="#bfbfbf" points="537.17,-110.5 537.17,-128.5 588.2,-128.5 588.2,-110.5 537.17,-110.5"/>
<text text-anchor="middle" x="562.68" y="-116.5" font-family="Helvetica,sans-Serif" font-size="10.00">optional</text>
</a>
</g>
</g>
<!-- Node21&#45;&gt;Node22 -->
<g id="edge23" class="edge">
<title>Node21&#45;&gt;Node22</title>
<path fill="none" stroke="midnightblue" d="M608.25,-165.22C600.2,-157.32 587.88,-145.22 578.08,-135.61"/>
<polygon fill="midnightblue" stroke="midnightblue" points="580.47,-133.06 570.89,-128.55 575.57,-138.05 580.47,-133.06"/>
</g>
<!-- Node27&#45;&gt;Node5 -->
<g id="edge30" class="edge">
<title>Node27&#45;&gt;Node5</title>
<path fill="none" stroke="midnightblue" d="M372.8,-550.45C381.78,-542.51 395.73,-530.19 406.76,-520.45"/>
<polygon fill="midnightblue" stroke="midnightblue" points="409.31,-522.87 414.49,-513.63 404.67,-517.62 409.31,-522.87"/>
</g>
<!-- Node29 -->
<g id="node29" class="node">
<title>Node29</title>
<g id="a_node29"><a xlink:href="../../d4/de9/_main_class_8h.html" target="_top" xlink:title=" ">
<polygon fill="none" stroke="black" points="193.73,-605.5 193.73,-623.5 293.64,-623.5 293.64,-605.5 193.73,-605.5"/>
<text text-anchor="middle" x="243.68" y="-611.5" font-family="Helvetica,sans-Serif" font-size="10.00">tralics/MainClass.h</text>
</a>
</g>
</g>
<!-- Node28&#45;&gt;Node29 -->
<g id="edge32" class="edge">
<title>Node28&#45;&gt;Node29</title>
<path fill="none" stroke="midnightblue" d="M186.01,-660.45C196.4,-652.36 212.63,-639.7 225.23,-629.88"/>
<polygon fill="midnightblue" stroke="midnightblue" points="227.52,-632.53 233.26,-623.63 223.22,-627.01 227.52,-632.53"/>
</g>
<!-- Node32 -->
<g id="node32" class="node">
<title>Node32</title>
<g id="a_node32"><a xlink:href="../../d2/d06/txlogger_8h.html" target="_top" xlink:title=" ">
<polygon fill="none" stroke="black" points="0,-605.5 0,-623.5 59.37,-623.5 59.37,-605.5 0,-605.5"/>
<text text-anchor="middle" x="29.68" y="-611.5" font-family="Helvetica,sans-Serif" font-size="10.00">txlogger.h</text>
</a>
</g>
</g>
<!-- Node28&#45;&gt;Node32 -->
<g id="edge37" class="edge">
<title>Node28&#45;&gt;Node32</title>
<path fill="none" stroke="midnightblue" d="M153.51,-660.45C129.07,-651.58 89.54,-637.23 61.73,-627.13"/>
<polygon fill="midnightblue" stroke="midnightblue" points="62.66,-623.75 52.07,-623.63 60.27,-630.33 62.66,-623.75"/>
</g>
<!-- Node34 -->
<g id="node34" class="node">
<title>Node34</title>
<g id="a_node34"><a xlink:href="../../d5/d08/txparam_8h.html" target="_top" xlink:title=" ">
<polygon fill="none" stroke="black" points="77.45,-605.5 77.45,-623.5 137.92,-623.5 137.92,-605.5 77.45,-605.5"/>
<text text-anchor="middle" x="107.68" y="-611.5" font-family="Helvetica,sans-Serif" font-size="10.00">txparam.h</text>
</a>
</g>
</g>
<!-- Node28&#45;&gt;Node34 -->
<g id="edge40" class="edge">
<title>Node28&#45;&gt;Node34</title>
<path fill="none" stroke="midnightblue" d="M165.36,-660.45C154.97,-652.36 138.74,-639.7 126.14,-629.88"/>
<polygon fill="midnightblue" stroke="midnightblue" points="128.15,-627.01 118.11,-623.63 123.85,-632.53 128.15,-627.01"/>
</g>
<!-- Node29&#45;&gt;Node5 -->
<g id="edge36" class="edge">
<title>Node29&#45;&gt;Node5</title>
<path fill="none" stroke="midnightblue" d="M253.72,-605.5C269.83,-592.86 302.68,-567.87 332.68,-550 353.18,-537.79 377.5,-526.03 395.84,-517.67"/>
<polygon fill="midnightblue" stroke="midnightblue" points="397.41,-520.8 405.09,-513.5 394.53,-514.42 397.41,-520.8"/>
</g>
<!-- Node30 -->
<g id="node30" class="node">
<title>Node30</title>
<g id="a_node30"><a xlink:href="../../de/d29/txio_8h.html" target="_top" xlink:title=" ">
<polygon fill="none" stroke="black" points="141.57,-550.5 141.57,-568.5 189.8,-568.5 189.8,-550.5 141.57,-550.5"/>
<text text-anchor="middle" x="165.68" y="-556.5" font-family="Helvetica,sans-Serif" font-size="10.00">../txio.h</text>
</a>
</g>
</g>
<!-- Node29&#45;&gt;Node30 -->
<g id="edge33" class="edge">
<title>Node29&#45;&gt;Node30</title>
<path fill="none" stroke="midnightblue" d="M231.84,-605.45C219.7,-597.2 200.59,-584.22 186.02,-574.32"/>
<polygon fill="midnightblue" stroke="midnightblue" points="187.88,-571.35 177.64,-568.63 183.95,-577.14 187.88,-571.35"/>
</g>
<!-- Node30&#45;&gt;Node6 -->
<g id="edge34" class="edge">
<title>Node30&#45;&gt;Node6</title>
<path fill="none" stroke="midnightblue" d="M184.78,-550.38C229.11,-531.53 339.2,-484.72 391.38,-462.53"/>
<polygon fill="midnightblue" stroke="midnightblue" points="392.89,-465.7 400.72,-458.56 390.15,-459.26 392.89,-465.7"/>
</g>
<!-- Node31 -->
<g id="node31" class="node">
<title>Node31</title>
<g id="a_node31"><a xlink:title=" ">
<polygon fill="none" stroke="#bfbfbf" points="73.01,-495.5 73.01,-513.5 122.35,-513.5 122.35,-495.5 73.01,-495.5"/>
<text text-anchor="middle" x="97.68" y="-501.5" font-family="Helvetica,sans-Serif" font-size="10.00">fstream</text>
</a>
</g>
</g>
<!-- Node30&#45;&gt;Node31 -->
<g id="edge35" class="edge">
<title>Node30&#45;&gt;Node31</title>
<path fill="none" stroke="midnightblue" d="M155.36,-550.45C144.97,-542.36 128.74,-529.7 116.14,-519.88"/>
<polygon fill="midnightblue" stroke="midnightblue" points="118.15,-517.01 108.11,-513.63 113.85,-522.53 118.15,-517.01"/>
</g>
<!-- Node32&#45;&gt;Node31 -->
<g id="edge38" class="edge">
<title>Node32&#45;&gt;Node31</title>
<path fill="none" stroke="midnightblue" d="M30.73,-605.09C32.63,-592.34 37.52,-567.72 48.68,-550 56.07,-538.27 67.38,-527.71 77.27,-519.83"/>
<polygon fill="midnightblue" stroke="midnightblue" points="79.61,-522.45 85.47,-513.62 75.38,-516.87 79.61,-522.45"/>
</g>
<!-- Node33 -->
<g id="node33" class="node">
<title>Node33</title>
<g id="a_node33"><a xlink:title=" ">
<polygon fill="none" stroke="#bfbfbf" points="57.51,-550.5 57.51,-568.5 111.86,-568.5 111.86,-550.5 57.51,-550.5"/>
<text text-anchor="middle" x="84.68" y="-556.5" font-family="Helvetica,sans-Serif" font-size="10.00">iostream</text>
</a>
</g>
</g>
<!-- Node32&#45;&gt;Node33 -->
<g id="edge39" class="edge">
<title>Node32&#45;&gt;Node33</title>
<path fill="none" stroke="midnightblue" d="M38.28,-605.22C46.48,-597.32 59.03,-585.22 69.01,-575.61"/>
<polygon fill="midnightblue" stroke="midnightblue" points="71.56,-578.01 76.33,-568.55 66.7,-572.97 71.56,-578.01"/>
</g>
<!-- Node34&#45;&gt;Node30 -->
<g id="edge41" class="edge">
<title>Node34&#45;&gt;Node30</title>
<path fill="none" stroke="midnightblue" d="M116.75,-605.22C125.48,-597.24 138.89,-584.98 149.47,-575.32"/>
<polygon fill="midnightblue" stroke="midnightblue" points="151.85,-577.88 156.88,-568.55 147.13,-572.71 151.85,-577.88"/>
</g>
<!-- Node35&#45;&gt;Node3 -->
<g id="edge57" class="edge">
<title>Node35&#45;&gt;Node3</title>
<path fill="none" stroke="midnightblue" d="M439.6,-660.45C428.34,-652.28 410.69,-639.46 397.1,-629.6"/>
<polygon fill="midnightblue" stroke="midnightblue" points="399.02,-626.67 388.88,-623.63 394.91,-632.33 399.02,-626.67"/>
</g>
<!-- Node35&#45;&gt;Node30 -->
<g id="edge56" class="edge">
<title>Node35&#45;&gt;Node30</title>
<path fill="none" stroke="midnightblue" d="M420.49,-661.74C417.52,-661.13 414.54,-660.54 411.68,-660 361.49,-650.56 223.13,-657.63 184.68,-624 171.84,-612.76 167.5,-593.23 166.12,-578.78"/>
<polygon fill="midnightblue" stroke="midnightblue" points="169.6,-578.33 165.55,-568.55 162.61,-578.73 169.6,-578.33"/>
</g>
<!-- Node36 -->
<g id="node36" class="node">
<title>Node36</title>
<g id="a_node36"><a xlink:href="../../d8/dd6/_e_q_t_b_8h.html" target="_top" xlink:title=" ">
<polygon fill="none" stroke="black" points="559.46,-495.5 559.46,-513.5 639.91,-513.5 639.91,-495.5 559.46,-495.5"/>
<text text-anchor="middle" x="599.68" y="-501.5" font-family="Helvetica,sans-Serif" font-size="10.00">tralics/EQTB.h</text>
</a>
</g>
</g>
<!-- Node35&#45;&gt;Node36 -->
<g id="edge43" class="edge">
<title>Node35&#45;&gt;Node36</title>
<path fill="none" stroke="midnightblue" d="M480.72,-662.86C508.08,-656.67 548.68,-644.72 578.68,-624 604.91,-605.89 613.81,-598.95 624.68,-569 630.54,-552.87 621.77,-534.66 613.04,-521.9"/>
<polygon fill="midnightblue" stroke="midnightblue" points="615.69,-519.59 606.91,-513.67 610.08,-523.78 615.69,-519.59"/>
</g>
<!-- Node37 -->
<g id="node37" class="node">
<title>Node37</title>
<g id="a_node37"><a xlink:href="../../d3/d6b/txcond_8h.html" target="_top" xlink:title=" ">
<polygon fill="none" stroke="black" points="278.78,-440.5 278.78,-458.5 332.59,-458.5 332.59,-440.5 278.78,-440.5"/>
<text text-anchor="middle" x="305.68" y="-446.5" font-family="Helvetica,sans-Serif" font-size="10.00">txcond.h</text>
</a>
</g>
</g>
<!-- Node35&#45;&gt;Node37 -->
<g id="edge45" class="edge">
<title>Node35&#45;&gt;Node37</title>
<path fill="none" stroke="midnightblue" d="M422.46,-660.43C393.58,-651.61 351.47,-637 340.68,-624 302.94,-578.52 302.16,-503.45 304.1,-468.92"/>
<polygon fill="midnightblue" stroke="midnightblue" points="307.62,-468.74 304.84,-458.51 300.64,-468.24 307.62,-468.74"/>
</g>
<!-- Node38 -->
<g id="node38" class="node">
<title>Node38</title>
<g id="a_node38"><a xlink:href="../../d7/d4d/txfonts_8h.html" target="_top" xlink:title=" ">
<polygon fill="none" stroke="black" points="561.79,-550.5 561.79,-568.5 615.58,-568.5 615.58,-550.5 561.79,-550.5"/>
<text text-anchor="middle" x="588.68" y="-556.5" font-family="Helvetica,sans-Serif" font-size="10.00">txfonts.h</text>
</a>
</g>
</g>
<!-- Node35&#45;&gt;Node38 -->
<g id="edge48" class="edge">
<title>Node35&#45;&gt;Node38</title>
<path fill="none" stroke="midnightblue" d="M480.65,-662.19C504.07,-655.94 536.15,-644.28 557.68,-624 570.79,-611.66 579.06,-592.6 583.73,-578.58"/>
<polygon fill="midnightblue" stroke="midnightblue" points="587.19,-579.22 586.72,-568.64 580.49,-577.2 587.19,-579.22"/>
</g>
<!-- Node39 -->
<g id="node39" class="node">
<title>Node39</title>
<g id="a_node39"><a xlink:href="../../d7/d7e/txhash_8h.html" target="_top" xlink:title=" ">
<polygon fill="none" stroke="black" points="494.78,-605.5 494.78,-623.5 548.59,-623.5 548.59,-605.5 494.78,-605.5"/>
<text text-anchor="middle" x="521.68" y="-611.5" font-family="Helvetica,sans-Serif" font-size="10.00">txhash.h</text>
</a>
</g>
</g>
<!-- Node35&#45;&gt;Node39 -->
<g id="edge50" class="edge">
<title>Node35&#45;&gt;Node39</title>
<path fill="none" stroke="midnightblue" d="M461.47,-660.45C472.31,-652.36 489.26,-639.7 502.42,-629.88"/>
<polygon fill="midnightblue" stroke="midnightblue" points="504.88,-632.41 510.8,-623.63 500.69,-626.8 504.88,-632.41"/>
</g>
<!-- Node41 -->
<g id="node41" class="node">
<title>Node41</title>
<g id="a_node41"><a xlink:href="../../de/d7c/tximage_8h.html" target="_top" xlink:title=" ">
<polygon fill="none" stroke="black" points="652.01,-330.5 652.01,-348.5 711.36,-348.5 711.36,-330.5 652.01,-330.5"/>
<text text-anchor="middle" x="681.68" y="-336.5" font-family="Helvetica,sans-Serif" font-size="10.00">tximage.h</text>
</a>
</g>
</g>
<!-- Node35&#45;&gt;Node41 -->
<g id="edge53" class="edge">
<title>Node35&#45;&gt;Node41</title>
<path fill="none" stroke="midnightblue" d="M480.88,-667.88C543.5,-664.83 681.68,-648.16 681.68,-560.5 681.68,-560.5 681.68,-560.5 681.68,-448.5 681.68,-417.02 681.68,-380.37 681.68,-358.88"/>
<polygon fill="midnightblue" stroke="midnightblue" points="685.18,-358.63 681.68,-348.63 678.18,-358.63 685.18,-358.63"/>
</g>
<!-- Node42 -->
<g id="node42" class="node">
<title>Node42</title>
<g id="a_node42"><a xlink:href="../../d8/d3d/txstats_8h.html" target="_top" xlink:title=" ">
<polygon fill="none" stroke="black" points="423.07,-605.5 423.07,-623.5 476.3,-623.5 476.3,-605.5 423.07,-605.5"/>
<text text-anchor="middle" x="449.68" y="-611.5" font-family="Helvetica,sans-Serif" font-size="10.00">txstats.h</text>
</a>
</g>
</g>
<!-- Node35&#45;&gt;Node42 -->
<g id="edge58" class="edge">
<title>Node35&#45;&gt;Node42</title>
<path fill="none" stroke="midnightblue" d="M450.53,-660.22C450.4,-653.18 450.2,-642.81 450.03,-633.83"/>
<polygon fill="midnightblue" stroke="midnightblue" points="453.52,-633.48 449.84,-623.55 446.53,-633.61 453.52,-633.48"/>
</g>
<!-- Node36&#45;&gt;Node17 -->
<g id="edge44" class="edge">
<title>Node36&#45;&gt;Node17</title>
<path fill="none" stroke="midnightblue" d="M596.6,-495.38C590.01,-478.03 574.42,-436.96 565.42,-413.24"/>
<polygon fill="midnightblue" stroke="midnightblue" points="568.62,-411.82 561.8,-403.71 562.08,-414.3 568.62,-411.82"/>
</g>
<!-- Node37&#45;&gt;Node9 -->
<g id="edge46" class="edge">
<title>Node37&#45;&gt;Node9</title>
<path fill="none" stroke="midnightblue" d="M305.68,-440.37C305.68,-422.38 305.68,-377.81 305.68,-340.5 305.68,-340.5 305.68,-340.5 305.68,-283.5 305.68,-220.33 389.92,-192.68 440.5,-181.78"/>
<polygon fill="midnightblue" stroke="midnightblue" points="441.33,-185.18 450.43,-179.75 439.93,-178.32 441.33,-185.18"/>
</g>
<!-- Node37&#45;&gt;Node26 -->
<g id="edge47" class="edge">
<title>Node37&#45;&gt;Node26</title>
<path fill="none" stroke="midnightblue" d="M313.5,-440.22C320.88,-432.39 332.13,-420.46 341.16,-410.89"/>
<polygon fill="midnightblue" stroke="midnightblue" points="343.77,-413.23 348.09,-403.55 338.68,-408.42 343.77,-413.23"/>
</g>
<!-- Node38&#45;&gt;Node5 -->
<g id="edge49" class="edge">
<title>Node38&#45;&gt;Node5</title>
<path fill="none" stroke="midnightblue" d="M563.62,-550.45C535.56,-541.44 489.89,-526.77 458.4,-516.65"/>
<polygon fill="midnightblue" stroke="midnightblue" points="459.3,-513.26 448.71,-513.54 457.16,-519.93 459.3,-513.26"/>
</g>
<!-- Node40 -->
<g id="node40" class="node">
<title>Node40</title>
<g id="a_node40"><a xlink:href="../../d3/d01/txeqtb_8h.html" target="_top" xlink:title=" ">
<polygon fill="none" stroke="black" points="491.89,-550.5 491.89,-568.5 543.48,-568.5 543.48,-550.5 491.89,-550.5"/>
<text text-anchor="middle" x="517.68" y="-556.5" font-family="Helvetica,sans-Serif" font-size="10.00">txeqtb.h</text>
</a>
</g>
</g>
<!-- Node39&#45;&gt;Node40 -->
<g id="edge51" class="edge">
<title>Node39&#45;&gt;Node40</title>
<path fill="none" stroke="midnightblue" d="M521.06,-605.22C520.52,-598.1 519.73,-587.58 519.05,-578.53"/>
<polygon fill="midnightblue" stroke="midnightblue" points="522.53,-578.26 518.29,-568.55 515.55,-578.78 522.53,-578.26"/>
</g>
<!-- Node40&#45;&gt;Node5 -->
<g id="edge52" class="edge">
<title>Node40&#45;&gt;Node5</title>
<path fill="none" stroke="midnightblue" d="M503.41,-550.45C488.5,-542.05 464.87,-528.72 447.21,-518.76"/>
<polygon fill="midnightblue" stroke="midnightblue" points="448.53,-515.49 438.1,-513.63 445.09,-521.59 448.53,-515.49"/>
</g>
<!-- Node41&#45;&gt;Node16 -->
<g id="edge54" class="edge">
<title>Node41&#45;&gt;Node16</title>
<path fill="none" stroke="midnightblue" d="M681.77,-330.23C681.44,-316.75 678.77,-290.06 663.68,-275 621.85,-233.26 592.56,-255.05 535.68,-239 535.59,-238.97 535.49,-238.94 535.39,-238.92"/>
<polygon fill="midnightblue" stroke="midnightblue" points="536.59,-235.62 526.02,-236.27 534.69,-242.36 536.59,-235.62"/>
</g>
<!-- Node41&#45;&gt;Node24 -->
<g id="edge55" class="edge">
<title>Node41&#45;&gt;Node24</title>
<path fill="none" stroke="midnightblue" d="M674.5,-330.22C667.77,-322.47 657.56,-310.7 649.29,-301.18"/>
<polygon fill="midnightblue" stroke="midnightblue" points="651.87,-298.81 642.67,-293.55 646.58,-303.4 651.87,-298.81"/>
</g>
</g>
</svg>
