<?xml version="1.0" encoding="UTF-8" standalone="no"?>
<!DOCTYPE svg PUBLIC "-//W3C//DTD SVG 1.1//EN"
 "http://www.w3.org/Graphics/SVG/1.1/DTD/svg11.dtd">
<!-- Generated by graphviz version 2.42.3 (20191010.1750)
 -->
<!-- Title: txarray.cpp Pages: 1 -->
<svg width="689pt" height="742pt"
 viewBox="0.00 0.00 688.76 742.00" xmlns="http://www.w3.org/2000/svg" xmlns:xlink="http://www.w3.org/1999/xlink">
<g id="graph0" class="graph" transform="scale(1 1) rotate(0) translate(4 738)">
<title>txarray.cpp</title>
<!-- Node1 -->
<g id="node1" class="node">
<title>Node1</title>
<g id="a_node1"><a xlink:title=" ">
<polygon fill="#bfbfbf" stroke="black" points="180.72,-715.5 180.72,-733.5 245.45,-733.5 245.45,-715.5 180.72,-715.5"/>
<text text-anchor="middle" x="213.08" y="-721.5" font-family="Helvetica,sans-Serif" font-size="10.00">txarray.cpp</text>
</a>
</g>
</g>
<!-- Node2 -->
<g id="node2" class="node">
<title>Node2</title>
<g id="a_node2"><a xlink:href="../../d8/d6d/txarray_8h.html" target="_top" xlink:title=" ">
<polygon fill="none" stroke="black" points="63,-660.5 63,-678.5 117.17,-678.5 117.17,-660.5 63,-660.5"/>
<text text-anchor="middle" x="90.08" y="-666.5" font-family="Helvetica,sans-Serif" font-size="10.00">txarray.h</text>
</a>
</g>
</g>
<!-- Node1&#45;&gt;Node2 -->
<g id="edge1" class="edge">
<title>Node1&#45;&gt;Node2</title>
<path fill="none" stroke="midnightblue" d="M194.4,-715.45C174.17,-706.73 141.68,-692.73 118.33,-682.67"/>
<polygon fill="midnightblue" stroke="midnightblue" points="119.51,-679.37 108.94,-678.63 116.74,-685.8 119.51,-679.37"/>
</g>
<!-- Node8 -->
<g id="node8" class="node">
<title>Node8</title>
<g id="a_node8"><a xlink:href="../../d5/daf/_istring_8h.html" target="_top" xlink:title=" ">
<polygon fill="none" stroke="black" points="461.85,-275.5 461.85,-293.5 542.32,-293.5 542.32,-275.5 461.85,-275.5"/>
<text text-anchor="middle" x="502.08" y="-281.5" font-family="Helvetica,sans-Serif" font-size="10.00">tralics/Istring.h</text>
</a>
</g>
</g>
<!-- Node1&#45;&gt;Node8 -->
<g id="edge34" class="edge">
<title>Node1&#45;&gt;Node8</title>
<path fill="none" stroke="midnightblue" d="M245.48,-721.2C335.35,-714.02 583.97,-688.55 626.08,-624 699.14,-512.04 563.95,-351.24 517.17,-301.06"/>
<polygon fill="midnightblue" stroke="midnightblue" points="519.65,-298.59 510.23,-293.74 514.57,-303.4 519.65,-298.59"/>
</g>
<!-- Node27 -->
<g id="node27" class="node">
<title>Node27</title>
<g id="a_node27"><a xlink:href="../../d1/d43/txxml_8h.html" target="_top" xlink:title=" ">
<polygon fill="none" stroke="black" points="81.25,-550.5 81.25,-568.5 128.92,-568.5 128.92,-550.5 81.25,-550.5"/>
<text text-anchor="middle" x="105.08" y="-556.5" font-family="Helvetica,sans-Serif" font-size="10.00">txxml.h</text>
</a>
</g>
</g>
<!-- Node1&#45;&gt;Node27 -->
<g id="edge64" class="edge">
<title>Node1&#45;&gt;Node27</title>
<path fill="none" stroke="midnightblue" d="M180.71,-720.92C128.93,-714.73 30.49,-693.86 3.08,-624 -0,-616.14 -1.54,-612.06 3.08,-605 11.01,-592.89 44.61,-579.71 71.11,-570.86"/>
<polygon fill="midnightblue" stroke="midnightblue" points="72.42,-574.11 80.85,-567.69 70.26,-567.46 72.42,-574.11"/>
</g>
<!-- Node28 -->
<g id="node28" class="node">
<title>Node28</title>
<g id="a_node28"><a xlink:href="../../d7/d79/txinline_8h.html" target="_top" xlink:title=" ">
<polygon fill="none" stroke="black" points="185.35,-660.5 185.35,-678.5 240.82,-678.5 240.82,-660.5 185.35,-660.5"/>
<text text-anchor="middle" x="213.08" y="-666.5" font-family="Helvetica,sans-Serif" font-size="10.00">txinline.h</text>
</a>
</g>
</g>
<!-- Node1&#45;&gt;Node28 -->
<g id="edge35" class="edge">
<title>Node1&#45;&gt;Node28</title>
<path fill="none" stroke="midnightblue" d="M213.08,-715.22C213.08,-708.18 213.08,-697.81 213.08,-688.83"/>
<polygon fill="midnightblue" stroke="midnightblue" points="216.58,-688.55 213.08,-678.55 209.58,-688.55 216.58,-688.55"/>
</g>
<!-- Node35 -->
<g id="node35" class="node">
<title>Node35</title>
<g id="a_node35"><a xlink:href="../../d2/d1b/txparser_8h.html" target="_top" xlink:title=" ">
<polygon fill="none" stroke="black" points="432.13,-660.5 432.13,-678.5 492.04,-678.5 492.04,-660.5 432.13,-660.5"/>
<text text-anchor="middle" x="462.08" y="-666.5" font-family="Helvetica,sans-Serif" font-size="10.00">txparser.h</text>
</a>
</g>
</g>
<!-- Node1&#45;&gt;Node35 -->
<g id="edge46" class="edge">
<title>Node1&#45;&gt;Node35</title>
<path fill="none" stroke="midnightblue" d="M245.64,-716.57C290.93,-706.93 372.89,-689.48 421.93,-679.05"/>
<polygon fill="midnightblue" stroke="midnightblue" points="422.81,-682.44 431.86,-676.93 421.35,-675.59 422.81,-682.44"/>
</g>
<!-- Node3 -->
<g id="node3" class="node">
<title>Node3</title>
<g id="a_node3"><a xlink:href="../../dc/d65/txstack_8h.html" target="_top" xlink:title=" ">
<polygon fill="none" stroke="black" points="12.35,-605.5 12.35,-623.5 67.81,-623.5 67.81,-605.5 12.35,-605.5"/>
<text text-anchor="middle" x="40.08" y="-611.5" font-family="Helvetica,sans-Serif" font-size="10.00">txstack.h</text>
</a>
</g>
</g>
<!-- Node2&#45;&gt;Node3 -->
<g id="edge2" class="edge">
<title>Node2&#45;&gt;Node3</title>
<path fill="none" stroke="midnightblue" d="M82.27,-660.22C74.89,-652.39 63.63,-640.46 54.6,-630.89"/>
<polygon fill="midnightblue" stroke="midnightblue" points="57.09,-628.42 47.68,-623.55 51.99,-633.23 57.09,-628.42"/>
</g>
<!-- Node4 -->
<g id="node4" class="node">
<title>Node4</title>
<g id="a_node4"><a xlink:href="../../d4/da4/txatt_8h.html" target="_top" xlink:title=" ">
<polygon fill="none" stroke="black" points="20.47,-550.5 20.47,-568.5 63.7,-568.5 63.7,-550.5 20.47,-550.5"/>
<text text-anchor="middle" x="42.08" y="-556.5" font-family="Helvetica,sans-Serif" font-size="10.00">txatt.h</text>
</a>
</g>
</g>
<!-- Node3&#45;&gt;Node4 -->
<g id="edge3" class="edge">
<title>Node3&#45;&gt;Node4</title>
<path fill="none" stroke="midnightblue" d="M40.4,-605.22C40.66,-598.18 41.05,-587.81 41.39,-578.83"/>
<polygon fill="midnightblue" stroke="midnightblue" points="44.9,-578.67 41.78,-568.55 37.91,-578.41 44.9,-578.67"/>
</g>
<!-- Node3&#45;&gt;Node27 -->
<g id="edge31" class="edge">
<title>Node3&#45;&gt;Node27</title>
<path fill="none" stroke="midnightblue" d="M49.96,-605.45C59.79,-597.43 75.1,-584.95 87.1,-575.17"/>
<polygon fill="midnightblue" stroke="midnightblue" points="89.58,-577.66 95.12,-568.63 85.16,-572.23 89.58,-577.66"/>
</g>
<!-- Node5 -->
<g id="node5" class="node">
<title>Node5</title>
<g id="a_node5"><a xlink:href="../../dc/def/txstring_8h.html" target="_top" xlink:title=" ">
<polygon fill="none" stroke="black" points="252.8,-495.5 252.8,-513.5 309.37,-513.5 309.37,-495.5 252.8,-495.5"/>
<text text-anchor="middle" x="281.08" y="-501.5" font-family="Helvetica,sans-Serif" font-size="10.00">txstring.h</text>
</a>
</g>
</g>
<!-- Node4&#45;&gt;Node5 -->
<g id="edge4" class="edge">
<title>Node4&#45;&gt;Node5</title>
<path fill="none" stroke="midnightblue" d="M63.99,-552.11C66.71,-551.37 69.46,-550.65 72.08,-550 131.3,-535.32 200.68,-521.14 242.73,-512.87"/>
<polygon fill="midnightblue" stroke="midnightblue" points="243.41,-516.31 252.55,-510.95 242.06,-509.44 243.41,-516.31"/>
</g>
<!-- Node22 -->
<g id="node22" class="node">
<title>Node22</title>
<g id="a_node22"><a xlink:title=" ">
<polygon fill="none" stroke="#bfbfbf" points="135.57,-110.5 135.57,-128.5 186.6,-128.5 186.6,-110.5 135.57,-110.5"/>
<text text-anchor="middle" x="161.08" y="-116.5" font-family="Helvetica,sans-Serif" font-size="10.00">optional</text>
</a>
</g>
</g>
<!-- Node4&#45;&gt;Node22 -->
<g id="edge29" class="edge">
<title>Node4&#45;&gt;Node22</title>
<path fill="none" stroke="midnightblue" d="M45.35,-550.25C52.13,-532.37 67.08,-488.61 67.08,-450.5 67.08,-450.5 67.08,-450.5 67.08,-228.5 67.08,-185.84 109.32,-151.85 137.17,-134.07"/>
<polygon fill="midnightblue" stroke="midnightblue" points="139.28,-136.88 145.98,-128.67 135.63,-130.91 139.28,-136.88"/>
</g>
<!-- Node26 -->
<g id="node26" class="node">
<title>Node26</title>
<g id="a_node26"><a xlink:title=" ">
<polygon fill="none" stroke="#bfbfbf" points="200.47,-385.5 200.47,-403.5 243.7,-403.5 243.7,-385.5 200.47,-385.5"/>
<text text-anchor="middle" x="222.08" y="-391.5" font-family="Helvetica,sans-Serif" font-size="10.00">vector</text>
</a>
</g>
</g>
<!-- Node4&#45;&gt;Node26 -->
<g id="edge30" class="edge">
<title>Node4&#45;&gt;Node26</title>
<path fill="none" stroke="midnightblue" d="M51.26,-550.19C80.03,-524.14 168.78,-443.77 205.7,-410.33"/>
<polygon fill="midnightblue" stroke="midnightblue" points="208.08,-412.9 213.14,-403.6 203.38,-407.72 208.08,-412.9"/>
</g>
<!-- Node6 -->
<g id="node6" class="node">
<title>Node6</title>
<g id="a_node6"><a xlink:href="../../dd/d74/txbuffer_8h.html" target="_top" xlink:title=" ">
<polygon fill="none" stroke="black" points="367.6,-440.5 367.6,-458.5 424.57,-458.5 424.57,-440.5 367.6,-440.5"/>
<text text-anchor="middle" x="396.08" y="-446.5" font-family="Helvetica,sans-Serif" font-size="10.00">txbuffer.h</text>
</a>
</g>
</g>
<!-- Node5&#45;&gt;Node6 -->
<g id="edge5" class="edge">
<title>Node5&#45;&gt;Node6</title>
<path fill="none" stroke="midnightblue" d="M298.55,-495.45C317.29,-486.81 347.31,-472.98 369.09,-462.94"/>
<polygon fill="midnightblue" stroke="midnightblue" points="370.84,-465.99 378.45,-458.63 367.91,-459.63 370.84,-465.99"/>
</g>
<!-- Node7 -->
<g id="node7" class="node">
<title>Node7</title>
<g id="a_node7"><a xlink:href="../../d1/d9e/txid_8h.html" target="_top" xlink:title=" ">
<polygon fill="none" stroke="black" points="401.13,-330.5 401.13,-348.5 441.03,-348.5 441.03,-330.5 401.13,-330.5"/>
<text text-anchor="middle" x="421.08" y="-336.5" font-family="Helvetica,sans-Serif" font-size="10.00">txid.h</text>
</a>
</g>
</g>
<!-- Node6&#45;&gt;Node7 -->
<g id="edge6" class="edge">
<title>Node6&#45;&gt;Node7</title>
<path fill="none" stroke="midnightblue" d="M397.96,-440.38C401.96,-423.1 411.4,-382.33 416.9,-358.56"/>
<polygon fill="midnightblue" stroke="midnightblue" points="420.34,-359.24 419.18,-348.71 413.52,-357.66 420.34,-359.24"/>
</g>
<!-- Node17 -->
<g id="node17" class="node">
<title>Node17</title>
<g id="a_node17"><a xlink:href="../../d9/d18/txscaled_8h.html" target="_top" xlink:title=" ">
<polygon fill="none" stroke="black" points="462.57,-385.5 462.57,-403.5 523.6,-403.5 523.6,-385.5 462.57,-385.5"/>
<text text-anchor="middle" x="493.08" y="-391.5" font-family="Helvetica,sans-Serif" font-size="10.00">txscaled.h</text>
</a>
</g>
</g>
<!-- Node6&#45;&gt;Node17 -->
<g id="edge16" class="edge">
<title>Node6&#45;&gt;Node17</title>
<path fill="none" stroke="midnightblue" d="M410.82,-440.45C426.34,-431.97 451.03,-418.48 469.32,-408.49"/>
<polygon fill="midnightblue" stroke="midnightblue" points="471.12,-411.49 478.21,-403.63 467.76,-405.35 471.12,-411.49"/>
</g>
<!-- Node25 -->
<g id="node25" class="node">
<title>Node25</title>
<g id="a_node25"><a xlink:title=" ">
<polygon fill="none" stroke="#bfbfbf" points="347.36,-385.5 347.36,-403.5 392.81,-403.5 392.81,-385.5 347.36,-385.5"/>
<text text-anchor="middle" x="370.08" y="-391.5" font-family="Helvetica,sans-Serif" font-size="10.00">cstring</text>
</a>
</g>
</g>
<!-- Node6&#45;&gt;Node25 -->
<g id="edge27" class="edge">
<title>Node6&#45;&gt;Node25</title>
<path fill="none" stroke="midnightblue" d="M392.02,-440.22C388.41,-432.86 383.02,-421.88 378.49,-412.64"/>
<polygon fill="midnightblue" stroke="midnightblue" points="381.58,-410.99 374.03,-403.55 375.29,-414.07 381.58,-410.99"/>
</g>
<!-- Node6&#45;&gt;Node26 -->
<g id="edge28" class="edge">
<title>Node6&#45;&gt;Node26</title>
<path fill="none" stroke="midnightblue" d="M369.66,-440.45C338.47,-430.95 286.66,-415.17 253.46,-405.06"/>
<polygon fill="midnightblue" stroke="midnightblue" points="254.39,-401.68 243.8,-402.11 252.35,-408.38 254.39,-401.68"/>
</g>
<!-- Node7&#45;&gt;Node8 -->
<g id="edge7" class="edge">
<title>Node7&#45;&gt;Node8</title>
<path fill="none" stroke="midnightblue" d="M433.39,-330.45C445.99,-322.2 465.84,-309.22 480.96,-299.32"/>
<polygon fill="midnightblue" stroke="midnightblue" points="483.21,-302.03 489.67,-293.63 479.38,-296.17 483.21,-302.03"/>
</g>
<!-- Node9 -->
<g id="node9" class="node">
<title>Node9</title>
<g id="a_node9"><a xlink:href="../../d0/d0b/enums_8h.html" target="_top" xlink:title=" ">
<polygon fill="none" stroke="black" points="312.91,-165.5 312.91,-183.5 367.26,-183.5 367.26,-165.5 312.91,-165.5"/>
<text text-anchor="middle" x="340.08" y="-171.5" font-family="Helvetica,sans-Serif" font-size="10.00">enums.h</text>
</a>
</g>
</g>
<!-- Node8&#45;&gt;Node9 -->
<g id="edge8" class="edge">
<title>Node8&#45;&gt;Node9</title>
<path fill="none" stroke="midnightblue" d="M501.98,-275.27C501.35,-261.84 498.14,-235.22 483.08,-220 455.24,-191.85 409.92,-181.44 377.77,-177.63"/>
<polygon fill="midnightblue" stroke="midnightblue" points="377.72,-174.11 367.41,-176.58 377.01,-181.07 377.72,-174.11"/>
</g>
<!-- Node15 -->
<g id="node15" class="node">
<title>Node15</title>
<g id="a_node15"><a xlink:title=" ">
<polygon fill="none" stroke="#bfbfbf" points="435.69,-220.5 435.69,-238.5 474.48,-238.5 474.48,-220.5 435.69,-220.5"/>
<text text-anchor="middle" x="455.08" y="-226.5" font-family="Helvetica,sans-Serif" font-size="10.00">array</text>
</a>
</g>
</g>
<!-- Node8&#45;&gt;Node15 -->
<g id="edge14" class="edge">
<title>Node8&#45;&gt;Node15</title>
<path fill="none" stroke="midnightblue" d="M494.74,-275.22C487.87,-267.47 477.43,-255.7 468.99,-246.18"/>
<polygon fill="midnightblue" stroke="midnightblue" points="471.48,-243.71 462.22,-238.55 466.24,-248.35 471.48,-243.71"/>
</g>
<!-- Node16 -->
<g id="node16" class="node">
<title>Node16</title>
<g id="a_node16"><a xlink:title=" ">
<polygon fill="none" stroke="#bfbfbf" points="584.86,-220.5 584.86,-238.5 625.31,-238.5 625.31,-220.5 584.86,-220.5"/>
<text text-anchor="middle" x="605.08" y="-226.5" font-family="Helvetica,sans-Serif" font-size="10.00">string</text>
</a>
</g>
</g>
<!-- Node8&#45;&gt;Node16 -->
<g id="edge15" class="edge">
<title>Node8&#45;&gt;Node16</title>
<path fill="none" stroke="midnightblue" d="M517.73,-275.45C534.36,-266.89 560.91,-253.23 580.38,-243.21"/>
<polygon fill="midnightblue" stroke="midnightblue" points="582,-246.31 589.29,-238.63 578.8,-240.09 582,-246.31"/>
</g>
<!-- Node10 -->
<g id="node10" class="node">
<title>Node10</title>
<g id="a_node10"><a xlink:href="../../d8/db5/consts_8h.html" target="_top" xlink:title=" ">
<polygon fill="none" stroke="black" points="307.46,-110.5 307.46,-128.5 360.7,-128.5 360.7,-110.5 307.46,-110.5"/>
<text text-anchor="middle" x="334.08" y="-116.5" font-family="Helvetica,sans-Serif" font-size="10.00">consts.h</text>
</a>
</g>
</g>
<!-- Node9&#45;&gt;Node10 -->
<g id="edge9" class="edge">
<title>Node9&#45;&gt;Node10</title>
<path fill="none" stroke="midnightblue" d="M339.15,-165.22C338.34,-158.1 337.15,-147.58 336.12,-138.53"/>
<polygon fill="midnightblue" stroke="midnightblue" points="339.6,-138.09 335,-128.55 332.64,-138.88 339.6,-138.09"/>
</g>
<!-- Node11 -->
<g id="node11" class="node">
<title>Node11</title>
<g id="a_node11"><a xlink:href="../../d9/d49/types_8h.html" target="_top" xlink:title=" ">
<polygon fill="none" stroke="black" points="275.96,-55.5 275.96,-73.5 324.2,-73.5 324.2,-55.5 275.96,-55.5"/>
<text text-anchor="middle" x="300.08" y="-61.5" font-family="Helvetica,sans-Serif" font-size="10.00">types.h</text>
</a>
</g>
</g>
<!-- Node10&#45;&gt;Node11 -->
<g id="edge10" class="edge">
<title>Node10&#45;&gt;Node11</title>
<path fill="none" stroke="midnightblue" d="M328.77,-110.22C323.95,-102.71 316.71,-91.41 310.7,-82.05"/>
<polygon fill="midnightblue" stroke="midnightblue" points="313.59,-80.08 305.25,-73.55 307.7,-83.86 313.59,-80.08"/>
</g>
<!-- Node12 -->
<g id="node12" class="node">
<title>Node12</title>
<g id="a_node12"><a xlink:title=" ">
<polygon fill="none" stroke="#bfbfbf" points="209.97,-0.5 209.97,-18.5 258.2,-18.5 258.2,-0.5 209.97,-0.5"/>
<text text-anchor="middle" x="234.08" y="-6.5" font-family="Helvetica,sans-Serif" font-size="10.00">cassert</text>
</a>
</g>
</g>
<!-- Node11&#45;&gt;Node12 -->
<g id="edge11" class="edge">
<title>Node11&#45;&gt;Node12</title>
<path fill="none" stroke="midnightblue" d="M290.06,-55.45C280.08,-47.43 264.53,-34.95 252.35,-25.17"/>
<polygon fill="midnightblue" stroke="midnightblue" points="254.19,-22.16 244.2,-18.63 249.81,-27.62 254.19,-22.16"/>
</g>
<!-- Node13 -->
<g id="node13" class="node">
<title>Node13</title>
<g id="a_node13"><a xlink:title=" ">
<polygon fill="none" stroke="#bfbfbf" points="275.96,-0.5 275.96,-18.5 324.2,-18.5 324.2,-0.5 275.96,-0.5"/>
<text text-anchor="middle" x="300.08" y="-6.5" font-family="Helvetica,sans-Serif" font-size="10.00">cstddef</text>
</a>
</g>
</g>
<!-- Node11&#45;&gt;Node13 -->
<g id="edge12" class="edge">
<title>Node11&#45;&gt;Node13</title>
<path fill="none" stroke="midnightblue" d="M300.08,-55.22C300.08,-48.18 300.08,-37.81 300.08,-28.83"/>
<polygon fill="midnightblue" stroke="midnightblue" points="303.58,-28.55 300.08,-18.55 296.58,-28.55 303.58,-28.55"/>
</g>
<!-- Node14 -->
<g id="node14" class="node">
<title>Node14</title>
<g id="a_node14"><a xlink:title=" ">
<polygon fill="none" stroke="#bfbfbf" points="342.02,-0.5 342.02,-18.5 404.15,-18.5 404.15,-0.5 342.02,-0.5"/>
<text text-anchor="middle" x="373.08" y="-6.5" font-family="Helvetica,sans-Serif" font-size="10.00">type_traits</text>
</a>
</g>
</g>
<!-- Node11&#45;&gt;Node14 -->
<g id="edge13" class="edge">
<title>Node11&#45;&gt;Node14</title>
<path fill="none" stroke="midnightblue" d="M311.17,-55.45C322.43,-47.28 340.08,-34.46 353.66,-24.6"/>
<polygon fill="midnightblue" stroke="midnightblue" points="355.86,-27.33 361.89,-18.63 351.74,-21.67 355.86,-27.33"/>
</g>
<!-- Node18 -->
<g id="node18" class="node">
<title>Node18</title>
<g id="a_node18"><a xlink:href="../../dc/d91/txtokenlist_8h.html" target="_top" xlink:title=" ">
<polygon fill="none" stroke="black" points="458.68,-330.5 458.68,-348.5 527.49,-348.5 527.49,-330.5 458.68,-330.5"/>
<text text-anchor="middle" x="493.08" y="-336.5" font-family="Helvetica,sans-Serif" font-size="10.00">txtokenlist.h</text>
</a>
</g>
</g>
<!-- Node17&#45;&gt;Node18 -->
<g id="edge17" class="edge">
<title>Node17&#45;&gt;Node18</title>
<path fill="none" stroke="midnightblue" d="M493.08,-385.22C493.08,-378.18 493.08,-367.81 493.08,-358.83"/>
<polygon fill="midnightblue" stroke="midnightblue" points="496.58,-358.55 493.08,-348.55 489.58,-358.55 496.58,-358.55"/>
</g>
<!-- Node18&#45;&gt;Node8 -->
<g id="edge18" class="edge">
<title>Node18&#45;&gt;Node8</title>
<path fill="none" stroke="midnightblue" d="M494.49,-330.22C495.7,-323.1 497.49,-312.58 499.02,-303.53"/>
<polygon fill="midnightblue" stroke="midnightblue" points="502.49,-303.99 500.72,-293.55 495.59,-302.82 502.49,-303.99"/>
</g>
<!-- Node19 -->
<g id="node19" class="node">
<title>Node19</title>
<g id="a_node19"><a xlink:href="../../dd/dcd/_token_8h.html" target="_top" xlink:title=" ">
<polygon fill="none" stroke="black" points="363.13,-275.5 363.13,-293.5 443.04,-293.5 443.04,-275.5 363.13,-275.5"/>
<text text-anchor="middle" x="403.08" y="-281.5" font-family="Helvetica,sans-Serif" font-size="10.00">tralics/Token.h</text>
</a>
</g>
</g>
<!-- Node18&#45;&gt;Node19 -->
<g id="edge19" class="edge">
<title>Node18&#45;&gt;Node19</title>
<path fill="none" stroke="midnightblue" d="M479.41,-330.45C465.14,-322.05 442.52,-308.72 425.6,-298.76"/>
<polygon fill="midnightblue" stroke="midnightblue" points="427.27,-295.68 416.88,-293.63 423.72,-301.72 427.27,-295.68"/>
</g>
<!-- Node24 -->
<g id="node24" class="node">
<title>Node24</title>
<g id="a_node24"><a xlink:title=" ">
<polygon fill="none" stroke="#bfbfbf" points="573.69,-275.5 573.69,-293.5 612.48,-293.5 612.48,-275.5 573.69,-275.5"/>
<text text-anchor="middle" x="593.08" y="-281.5" font-family="Helvetica,sans-Serif" font-size="10.00">utility</text>
</a>
</g>
</g>
<!-- Node18&#45;&gt;Node24 -->
<g id="edge26" class="edge">
<title>Node18&#45;&gt;Node24</title>
<path fill="none" stroke="midnightblue" d="M508.27,-330.45C524.35,-321.93 549.96,-308.35 568.84,-298.35"/>
<polygon fill="midnightblue" stroke="midnightblue" points="570.56,-301.4 577.75,-293.63 567.28,-295.22 570.56,-301.4"/>
</g>
<!-- Node20 -->
<g id="node20" class="node">
<title>Node20</title>
<g id="a_node20"><a xlink:href="../../d2/d68/_cmd_chr_8h.html" target="_top" xlink:title=" ">
<polygon fill="none" stroke="black" points="309.57,-220.5 309.57,-238.5 370.59,-238.5 370.59,-220.5 309.57,-220.5"/>
<text text-anchor="middle" x="340.08" y="-226.5" font-family="Helvetica,sans-Serif" font-size="10.00">CmdChr.h</text>
</a>
</g>
</g>
<!-- Node19&#45;&gt;Node20 -->
<g id="edge20" class="edge">
<title>Node19&#45;&gt;Node20</title>
<path fill="none" stroke="midnightblue" d="M393.52,-275.45C383.99,-267.43 369.14,-254.95 357.52,-245.17"/>
<polygon fill="midnightblue" stroke="midnightblue" points="359.65,-242.38 349.74,-238.63 355.14,-247.74 359.65,-242.38"/>
</g>
<!-- Node23 -->
<g id="node23" class="node">
<title>Node23</title>
<g id="a_node23"><a xlink:title=" ">
<polygon fill="none" stroke="#bfbfbf" points="388.58,-220.5 388.58,-238.5 417.58,-238.5 417.58,-220.5 388.58,-220.5"/>
<text text-anchor="middle" x="402.69" y="-226.5" font-family="Helvetica,sans-Serif" font-size="10.00">list</text>
</a>
</g>
</g>
<!-- Node19&#45;&gt;Node23 -->
<g id="edge25" class="edge">
<title>Node19&#45;&gt;Node23</title>
<path fill="none" stroke="midnightblue" d="M403.08,-275.22C403.08,-268.18 403.08,-257.81 403.08,-248.83"/>
<polygon fill="midnightblue" stroke="midnightblue" points="406.58,-248.55 403.08,-238.55 399.58,-248.55 406.58,-248.55"/>
</g>
<!-- Node20&#45;&gt;Node9 -->
<g id="edge24" class="edge">
<title>Node20&#45;&gt;Node9</title>
<path fill="none" stroke="midnightblue" d="M340.08,-220.22C340.08,-213.18 340.08,-202.81 340.08,-193.83"/>
<polygon fill="midnightblue" stroke="midnightblue" points="343.58,-193.55 340.08,-183.55 336.58,-193.55 343.58,-193.55"/>
</g>
<!-- Node21 -->
<g id="node21" class="node">
<title>Node21</title>
<g id="a_node21"><a xlink:href="../../d8/d47/codepoint_8h.html" target="_top" xlink:title=" ">
<polygon fill="none" stroke="black" points="227.23,-165.5 227.23,-183.5 294.94,-183.5 294.94,-165.5 227.23,-165.5"/>
<text text-anchor="middle" x="261.08" y="-171.5" font-family="Helvetica,sans-Serif" font-size="10.00">codepoint.h</text>
</a>
</g>
</g>
<!-- Node20&#45;&gt;Node21 -->
<g id="edge21" class="edge">
<title>Node20&#45;&gt;Node21</title>
<path fill="none" stroke="midnightblue" d="M328.09,-220.45C315.79,-212.2 296.43,-199.22 281.68,-189.32"/>
<polygon fill="midnightblue" stroke="midnightblue" points="283.45,-186.29 273.2,-183.63 279.55,-192.1 283.45,-186.29"/>
</g>
<!-- Node21&#45;&gt;Node11 -->
<g id="edge22" class="edge">
<title>Node21&#45;&gt;Node11</title>
<path fill="none" stroke="midnightblue" d="M264.02,-165.38C270.28,-148.03 285.11,-106.96 293.68,-83.24"/>
<polygon fill="midnightblue" stroke="midnightblue" points="297.01,-84.31 297.12,-73.71 290.43,-81.93 297.01,-84.31"/>
</g>
<!-- Node21&#45;&gt;Node22 -->
<g id="edge23" class="edge">
<title>Node21&#45;&gt;Node22</title>
<path fill="none" stroke="midnightblue" d="M245.9,-165.45C229.82,-156.93 204.2,-143.35 185.33,-133.35"/>
<polygon fill="midnightblue" stroke="midnightblue" points="186.89,-130.22 176.41,-128.63 183.61,-136.4 186.89,-130.22"/>
</g>
<!-- Node27&#45;&gt;Node5 -->
<g id="edge32" class="edge">
<title>Node27&#45;&gt;Node5</title>
<path fill="none" stroke="midnightblue" d="M129.19,-551.24C159.01,-542.26 210.06,-526.89 244.67,-516.47"/>
<polygon fill="midnightblue" stroke="midnightblue" points="245.83,-519.77 254.4,-513.54 243.81,-513.07 245.83,-519.77"/>
</g>
<!-- Node27&#45;&gt;Node26 -->
<g id="edge33" class="edge">
<title>Node27&#45;&gt;Node26</title>
<path fill="none" stroke="midnightblue" d="M112.68,-550.22C120.58,-541.46 133.16,-527.13 143.08,-514 169.44,-479.14 197.06,-435.93 211.64,-412.52"/>
<polygon fill="midnightblue" stroke="midnightblue" points="214.76,-414.12 217.04,-403.78 208.81,-410.44 214.76,-414.12"/>
</g>
<!-- Node29 -->
<g id="node29" class="node">
<title>Node29</title>
<g id="a_node29"><a xlink:href="../../d4/de9/_main_class_8h.html" target="_top" xlink:title=" ">
<polygon fill="none" stroke="black" points="163.13,-605.5 163.13,-623.5 263.04,-623.5 263.04,-605.5 163.13,-605.5"/>
<text text-anchor="middle" x="213.08" y="-611.5" font-family="Helvetica,sans-Serif" font-size="10.00">tralics/MainClass.h</text>
</a>
</g>
</g>
<!-- Node28&#45;&gt;Node29 -->
<g id="edge36" class="edge">
<title>Node28&#45;&gt;Node29</title>
<path fill="none" stroke="midnightblue" d="M213.08,-660.22C213.08,-653.18 213.08,-642.81 213.08,-633.83"/>
<polygon fill="midnightblue" stroke="midnightblue" points="216.58,-633.55 213.08,-623.55 209.58,-633.55 216.58,-633.55"/>
</g>
<!-- Node32 -->
<g id="node32" class="node">
<title>Node32</title>
<g id="a_node32"><a xlink:href="../../d2/d06/txlogger_8h.html" target="_top" xlink:title=" ">
<polygon fill="none" stroke="black" points="85.4,-605.5 85.4,-623.5 144.77,-623.5 144.77,-605.5 85.4,-605.5"/>
<text text-anchor="middle" x="115.08" y="-611.5" font-family="Helvetica,sans-Serif" font-size="10.00">txlogger.h</text>
</a>
</g>
</g>
<!-- Node28&#45;&gt;Node32 -->
<g id="edge41" class="edge">
<title>Node28&#45;&gt;Node32</title>
<path fill="none" stroke="midnightblue" d="M198.2,-660.45C182.51,-651.97 157.57,-638.48 139.1,-628.49"/>
<polygon fill="midnightblue" stroke="midnightblue" points="140.57,-625.3 130.11,-623.63 137.24,-631.46 140.57,-625.3"/>
</g>
<!-- Node34 -->
<g id="node34" class="node">
<title>Node34</title>
<g id="a_node34"><a xlink:href="../../d5/d08/txparam_8h.html" target="_top" xlink:title=" ">
<polygon fill="none" stroke="black" points="280.85,-605.5 280.85,-623.5 341.32,-623.5 341.32,-605.5 280.85,-605.5"/>
<text text-anchor="middle" x="311.08" y="-611.5" font-family="Helvetica,sans-Serif" font-size="10.00">txparam.h</text>
</a>
</g>
</g>
<!-- Node28&#45;&gt;Node34 -->
<g id="edge44" class="edge">
<title>Node28&#45;&gt;Node34</title>
<path fill="none" stroke="midnightblue" d="M227.97,-660.45C243.65,-651.97 268.6,-638.48 287.07,-628.49"/>
<polygon fill="midnightblue" stroke="midnightblue" points="288.93,-631.46 296.06,-623.63 285.6,-625.3 288.93,-631.46"/>
</g>
<!-- Node29&#45;&gt;Node5 -->
<g id="edge40" class="edge">
<title>Node29&#45;&gt;Node5</title>
<path fill="none" stroke="midnightblue" d="M218.19,-605.38C229.27,-587.79 255.68,-545.85 270.51,-522.29"/>
<polygon fill="midnightblue" stroke="midnightblue" points="273.55,-524.04 275.91,-513.71 267.62,-520.31 273.55,-524.04"/>
</g>
<!-- Node30 -->
<g id="node30" class="node">
<title>Node30</title>
<g id="a_node30"><a xlink:href="../../de/d29/txio_8h.html" target="_top" xlink:title=" ">
<polygon fill="none" stroke="black" points="366.97,-550.5 366.97,-568.5 415.2,-568.5 415.2,-550.5 366.97,-550.5"/>
<text text-anchor="middle" x="391.08" y="-556.5" font-family="Helvetica,sans-Serif" font-size="10.00">../txio.h</text>
</a>
</g>
</g>
<!-- Node29&#45;&gt;Node30 -->
<g id="edge37" class="edge">
<title>Node29&#45;&gt;Node30</title>
<path fill="none" stroke="midnightblue" d="M240.12,-605.45C271.41,-596.13 322.98,-580.78 356.99,-570.65"/>
<polygon fill="midnightblue" stroke="midnightblue" points="358.36,-573.9 366.94,-567.69 356.36,-567.19 358.36,-573.9"/>
</g>
<!-- Node30&#45;&gt;Node6 -->
<g id="edge38" class="edge">
<title>Node30&#45;&gt;Node6</title>
<path fill="none" stroke="midnightblue" d="M391.46,-550.38C392.26,-533.18 394.13,-492.7 395.23,-468.89"/>
<polygon fill="midnightblue" stroke="midnightblue" points="398.74,-468.86 395.7,-458.71 391.74,-468.54 398.74,-468.86"/>
</g>
<!-- Node31 -->
<g id="node31" class="node">
<title>Node31</title>
<g id="a_node31"><a xlink:title=" ">
<polygon fill="none" stroke="#bfbfbf" points="332.41,-495.5 332.41,-513.5 381.75,-513.5 381.75,-495.5 332.41,-495.5"/>
<text text-anchor="middle" x="357.08" y="-501.5" font-family="Helvetica,sans-Serif" font-size="10.00">fstream</text>
</a>
</g>
</g>
<!-- Node30&#45;&gt;Node31 -->
<g id="edge39" class="edge">
<title>Node30&#45;&gt;Node31</title>
<path fill="none" stroke="midnightblue" d="M385.77,-550.22C380.95,-542.71 373.71,-531.41 367.7,-522.05"/>
<polygon fill="midnightblue" stroke="midnightblue" points="370.59,-520.08 362.25,-513.55 364.7,-523.86 370.59,-520.08"/>
</g>
<!-- Node32&#45;&gt;Node31 -->
<g id="edge42" class="edge">
<title>Node32&#45;&gt;Node31</title>
<path fill="none" stroke="midnightblue" d="M133.27,-605.38C175.42,-586.57 279.96,-539.92 329.81,-517.67"/>
<polygon fill="midnightblue" stroke="midnightblue" points="331.31,-520.84 339.01,-513.56 328.46,-514.44 331.31,-520.84"/>
</g>
<!-- Node33 -->
<g id="node33" class="node">
<title>Node33</title>
<g id="a_node33"><a xlink:title=" ">
<polygon fill="none" stroke="#bfbfbf" points="146.91,-550.5 146.91,-568.5 201.26,-568.5 201.26,-550.5 146.91,-550.5"/>
<text text-anchor="middle" x="174.08" y="-556.5" font-family="Helvetica,sans-Serif" font-size="10.00">iostream</text>
</a>
</g>
</g>
<!-- Node32&#45;&gt;Node33 -->
<g id="edge43" class="edge">
<title>Node32&#45;&gt;Node33</title>
<path fill="none" stroke="midnightblue" d="M124.04,-605.45C132.88,-597.51 146.6,-585.19 157.44,-575.45"/>
<polygon fill="midnightblue" stroke="midnightblue" points="159.94,-577.91 165.04,-568.63 155.26,-572.7 159.94,-577.91"/>
</g>
<!-- Node34&#45;&gt;Node30 -->
<g id="edge45" class="edge">
<title>Node34&#45;&gt;Node30</title>
<path fill="none" stroke="midnightblue" d="M323.23,-605.45C335.69,-597.2 355.29,-584.22 370.23,-574.32"/>
<polygon fill="midnightblue" stroke="midnightblue" points="372.42,-577.07 378.82,-568.63 368.55,-571.23 372.42,-577.07"/>
</g>
<!-- Node35&#45;&gt;Node3 -->
<g id="edge62" class="edge">
<title>Node35&#45;&gt;Node3</title>
<path fill="none" stroke="midnightblue" d="M431.88,-666.23C368.14,-661.18 215.05,-647.69 77.78,-624.13"/>
<polygon fill="midnightblue" stroke="midnightblue" points="78.38,-620.68 67.93,-622.41 77.18,-627.58 78.38,-620.68"/>
</g>
<!-- Node35&#45;&gt;Node30 -->
<g id="edge61" class="edge">
<title>Node35&#45;&gt;Node30</title>
<path fill="none" stroke="midnightblue" d="M454.72,-660.31C447.1,-651.63 435.07,-637.36 426.08,-624 416,-609 406.21,-590.84 399.57,-577.8"/>
<polygon fill="midnightblue" stroke="midnightblue" points="402.56,-575.97 394.96,-568.58 396.3,-579.09 402.56,-575.97"/>
</g>
<!-- Node36 -->
<g id="node36" class="node">
<title>Node36</title>
<g id="a_node36"><a xlink:href="../../d8/dd6/_e_q_t_b_8h.html" target="_top" xlink:title=" ">
<polygon fill="none" stroke="black" points="480.85,-495.5 480.85,-513.5 561.31,-513.5 561.31,-495.5 480.85,-495.5"/>
<text text-anchor="middle" x="521.08" y="-501.5" font-family="Helvetica,sans-Serif" font-size="10.00">tralics/EQTB.h</text>
</a>
</g>
</g>
<!-- Node35&#45;&gt;Node36 -->
<g id="edge47" class="edge">
<title>Node35&#45;&gt;Node36</title>
<path fill="none" stroke="midnightblue" d="M492.28,-669.03C526.67,-667.81 581.51,-659.88 608.08,-624 636.25,-585.97 577.97,-540.86 543.69,-518.88"/>
<polygon fill="midnightblue" stroke="midnightblue" points="545.5,-515.88 535.16,-513.56 541.8,-521.82 545.5,-515.88"/>
</g>
<!-- Node37 -->
<g id="node37" class="node">
<title>Node37</title>
<g id="a_node37"><a xlink:href="../../d3/d6b/txcond_8h.html" target="_top" xlink:title=" ">
<polygon fill="none" stroke="black" points="254.18,-440.5 254.18,-458.5 307.99,-458.5 307.99,-440.5 254.18,-440.5"/>
<text text-anchor="middle" x="281.08" y="-446.5" font-family="Helvetica,sans-Serif" font-size="10.00">txcond.h</text>
</a>
</g>
</g>
<!-- Node35&#45;&gt;Node37 -->
<g id="edge49" class="edge">
<title>Node35&#45;&gt;Node37</title>
<path fill="none" stroke="midnightblue" d="M471.57,-660.44C480.36,-652.28 492.85,-638.8 498.08,-624 503.56,-608.54 506.49,-567.81 495.08,-550 455.9,-488.79 368.27,-464.63 318.15,-455.57"/>
<polygon fill="midnightblue" stroke="midnightblue" points="318.5,-452.08 308.05,-453.86 317.33,-458.98 318.5,-452.08"/>
</g>
<!-- Node38 -->
<g id="node38" class="node">
<title>Node38</title>
<g id="a_node38"><a xlink:href="../../d7/d4d/txfonts_8h.html" target="_top" xlink:title=" ">
<polygon fill="none" stroke="black" points="295.18,-550.5 295.18,-568.5 348.98,-568.5 348.98,-550.5 295.18,-550.5"/>
<text text-anchor="middle" x="322.08" y="-556.5" font-family="Helvetica,sans-Serif" font-size="10.00">txfonts.h</text>
</a>
</g>
</g>
<!-- Node35&#45;&gt;Node38 -->
<g id="edge52" class="edge">
<title>Node35&#45;&gt;Node38</title>
<path fill="none" stroke="midnightblue" d="M451.56,-660.38C427.95,-642.17 370.48,-597.83 340.68,-574.85"/>
<polygon fill="midnightblue" stroke="midnightblue" points="342.78,-572.05 332.73,-568.71 338.51,-577.59 342.78,-572.05"/>
</g>
<!-- Node39 -->
<g id="node39" class="node">
<title>Node39</title>
<g id="a_node39"><a xlink:href="../../d7/d7e/txhash_8h.html" target="_top" xlink:title=" ">
<polygon fill="none" stroke="black" points="435.18,-605.5 435.18,-623.5 488.99,-623.5 488.99,-605.5 435.18,-605.5"/>
<text text-anchor="middle" x="462.08" y="-611.5" font-family="Helvetica,sans-Serif" font-size="10.00">txhash.h</text>
</a>
</g>
</g>
<!-- Node35&#45;&gt;Node39 -->
<g id="edge54" class="edge">
<title>Node35&#45;&gt;Node39</title>
<path fill="none" stroke="midnightblue" d="M462.08,-660.22C462.08,-653.18 462.08,-642.81 462.08,-633.83"/>
<polygon fill="midnightblue" stroke="midnightblue" points="465.58,-633.55 462.08,-623.55 458.58,-633.55 465.58,-633.55"/>
</g>
<!-- Node41 -->
<g id="node41" class="node">
<title>Node41</title>
<g id="a_node41"><a xlink:href="../../de/d7c/tximage_8h.html" target="_top" xlink:title=" ">
<polygon fill="none" stroke="black" points="621.41,-330.5 621.41,-348.5 680.76,-348.5 680.76,-330.5 621.41,-330.5"/>
<text text-anchor="middle" x="651.08" y="-336.5" font-family="Helvetica,sans-Serif" font-size="10.00">tximage.h</text>
</a>
</g>
</g>
<!-- Node35&#45;&gt;Node41 -->
<g id="edge58" class="edge">
<title>Node35&#45;&gt;Node41</title>
<path fill="none" stroke="midnightblue" d="M492.47,-666.14C549.11,-659.92 665.08,-637.75 665.08,-560.5 665.08,-560.5 665.08,-560.5 665.08,-448.5 665.08,-416.61 659.01,-379.85 654.86,-358.49"/>
<polygon fill="midnightblue" stroke="midnightblue" points="658.27,-357.69 652.86,-348.58 651.41,-359.08 658.27,-357.69"/>
</g>
<!-- Node42 -->
<g id="node42" class="node">
<title>Node42</title>
<g id="a_node42"><a xlink:href="../../d8/d3d/txstats_8h.html" target="_top" xlink:title=" ">
<polygon fill="none" stroke="black" points="545.47,-605.5 545.47,-623.5 598.7,-623.5 598.7,-605.5 545.47,-605.5"/>
<text text-anchor="middle" x="572.08" y="-611.5" font-family="Helvetica,sans-Serif" font-size="10.00">txstats.h</text>
</a>
</g>
</g>
<!-- Node35&#45;&gt;Node42 -->
<g id="edge63" class="edge">
<title>Node35&#45;&gt;Node42</title>
<path fill="none" stroke="midnightblue" d="M478.79,-660.45C496.64,-651.85 525.17,-638.1 545.98,-628.08"/>
<polygon fill="midnightblue" stroke="midnightblue" points="547.73,-631.12 555.22,-623.63 544.69,-624.81 547.73,-631.12"/>
</g>
<!-- Node36&#45;&gt;Node17 -->
<g id="edge48" class="edge">
<title>Node36&#45;&gt;Node17</title>
<path fill="none" stroke="midnightblue" d="M518.98,-495.38C514.5,-478.1 503.93,-437.33 497.77,-413.56"/>
<polygon fill="midnightblue" stroke="midnightblue" points="501.11,-412.51 495.21,-403.71 494.33,-414.27 501.11,-412.51"/>
</g>
<!-- Node37&#45;&gt;Node9 -->
<g id="edge50" class="edge">
<title>Node37&#45;&gt;Node9</title>
<path fill="none" stroke="midnightblue" d="M281.08,-440.37C281.08,-422.38 281.08,-377.81 281.08,-340.5 281.08,-340.5 281.08,-340.5 281.08,-283.5 281.08,-254.04 285.67,-245.69 300.08,-220 306.11,-209.27 315.13,-198.93 323.08,-190.93"/>
<polygon fill="midnightblue" stroke="midnightblue" points="325.73,-193.23 330.52,-183.78 320.88,-188.19 325.73,-193.23"/>
</g>
<!-- Node37&#45;&gt;Node26 -->
<g id="edge51" class="edge">
<title>Node37&#45;&gt;Node26</title>
<path fill="none" stroke="midnightblue" d="M272.12,-440.45C263.29,-432.51 249.57,-420.19 238.73,-410.45"/>
<polygon fill="midnightblue" stroke="midnightblue" points="240.91,-407.7 231.13,-403.63 236.23,-412.91 240.91,-407.7"/>
</g>
<!-- Node38&#45;&gt;Node5 -->
<g id="edge53" class="edge">
<title>Node38&#45;&gt;Node5</title>
<path fill="none" stroke="midnightblue" d="M315.68,-550.22C309.75,-542.55 300.76,-530.94 293.44,-521.47"/>
<polygon fill="midnightblue" stroke="midnightblue" points="296.2,-519.32 287.31,-513.55 290.66,-523.6 296.2,-519.32"/>
</g>
<!-- Node39&#45;&gt;Node24 -->
<g id="edge57" class="edge">
<title>Node39&#45;&gt;Node24</title>
<path fill="none" stroke="midnightblue" d="M475.98,-605.48C499.95,-590.8 548.55,-557.1 570.08,-514 605.6,-442.91 599.75,-344 595.42,-303.69"/>
<polygon fill="midnightblue" stroke="midnightblue" points="598.87,-303.07 594.23,-293.54 591.92,-303.89 598.87,-303.07"/>
</g>
<!-- Node40 -->
<g id="node40" class="node">
<title>Node40</title>
<g id="a_node40"><a xlink:href="../../d3/d01/txeqtb_8h.html" target="_top" xlink:title=" ">
<polygon fill="none" stroke="black" points="434.29,-550.5 434.29,-568.5 485.87,-568.5 485.87,-550.5 434.29,-550.5"/>
<text text-anchor="middle" x="460.08" y="-556.5" font-family="Helvetica,sans-Serif" font-size="10.00">txeqtb.h</text>
</a>
</g>
</g>
<!-- Node39&#45;&gt;Node40 -->
<g id="edge55" class="edge">
<title>Node39&#45;&gt;Node40</title>
<path fill="none" stroke="midnightblue" d="M461.77,-605.22C461.51,-598.18 461.11,-587.81 460.78,-578.83"/>
<polygon fill="midnightblue" stroke="midnightblue" points="464.26,-578.41 460.39,-568.55 457.27,-578.67 464.26,-578.41"/>
</g>
<!-- Node40&#45;&gt;Node5 -->
<g id="edge56" class="edge">
<title>Node40&#45;&gt;Node5</title>
<path fill="none" stroke="midnightblue" d="M434.06,-550.79C403.52,-541.75 352.68,-526.7 318.06,-516.45"/>
<polygon fill="midnightblue" stroke="midnightblue" points="318.9,-513.05 308.32,-513.56 316.91,-519.76 318.9,-513.05"/>
</g>
<!-- Node41&#45;&gt;Node16 -->
<g id="edge59" class="edge">
<title>Node41&#45;&gt;Node16</title>
<path fill="none" stroke="midnightblue" d="M647.63,-330.38C640.2,-312.95 622.58,-271.59 612.5,-247.92"/>
<polygon fill="midnightblue" stroke="midnightblue" points="615.72,-246.54 608.58,-238.71 609.28,-249.28 615.72,-246.54"/>
</g>
<!-- Node41&#45;&gt;Node24 -->
<g id="edge60" class="edge">
<title>Node41&#45;&gt;Node24</title>
<path fill="none" stroke="midnightblue" d="M642.02,-330.22C633.29,-322.24 619.88,-309.98 609.3,-300.32"/>
<polygon fill="midnightblue" stroke="midnightblue" points="611.64,-297.71 601.89,-293.55 606.91,-302.88 611.64,-297.71"/>
</g>
</g>
</svg>
