<?xml version="1.0" encoding="UTF-8" standalone="no"?>
<!DOCTYPE svg PUBLIC "-//W3C//DTD SVG 1.1//EN"
 "http://www.w3.org/Graphics/SVG/1.1/DTD/svg11.dtd">
<!-- Generated by graphviz version 2.42.3 (20191010.1750)
 -->
<!-- Title: txarray.cpp Pages: 1 -->
<svg width="653pt" height="742pt"
 viewBox="0.00 0.00 653.36 742.00" xmlns="http://www.w3.org/2000/svg" xmlns:xlink="http://www.w3.org/1999/xlink">
<g id="graph0" class="graph" transform="scale(1 1) rotate(0) translate(4 738)">
<title>txarray.cpp</title>
<!-- Node1 -->
<g id="node1" class="node">
<title>Node1</title>
<g id="a_node1"><a xlink:title=" ">
<polygon fill="#bfbfbf" stroke="black" points="307.32,-715.5 307.32,-733.5 372.05,-733.5 372.05,-715.5 307.32,-715.5"/>
<text text-anchor="middle" x="339.68" y="-721.5" font-family="Helvetica,sans-Serif" font-size="10.00">txarray.cpp</text>
</a>
</g>
</g>
<!-- Node2 -->
<g id="node2" class="node">
<title>Node2</title>
<g id="a_node2"><a xlink:href="../../d8/d6d/txarray_8h.html" target="_top" xlink:title=" ">
<polygon fill="none" stroke="black" points="312.6,-660.5 312.6,-678.5 366.77,-678.5 366.77,-660.5 312.6,-660.5"/>
<text text-anchor="middle" x="339.68" y="-666.5" font-family="Helvetica,sans-Serif" font-size="10.00">txarray.h</text>
</a>
</g>
</g>
<!-- Node1&#45;&gt;Node2 -->
<g id="edge1" class="edge">
<title>Node1&#45;&gt;Node2</title>
<path fill="none" stroke="midnightblue" d="M339.68,-715.22C339.68,-708.18 339.68,-697.81 339.68,-688.83"/>
<polygon fill="midnightblue" stroke="midnightblue" points="343.18,-688.55 339.68,-678.55 336.18,-688.55 343.18,-688.55"/>
</g>
<!-- Node29 -->
<g id="node29" class="node">
<title>Node29</title>
<g id="a_node29"><a xlink:href="../../d7/d79/txinline_8h.html" target="_top" xlink:title=" ">
<polygon fill="none" stroke="black" points="128.95,-660.5 128.95,-678.5 184.42,-678.5 184.42,-660.5 128.95,-660.5"/>
<text text-anchor="middle" x="156.68" y="-666.5" font-family="Helvetica,sans-Serif" font-size="10.00">txinline.h</text>
</a>
</g>
</g>
<!-- Node1&#45;&gt;Node29 -->
<g id="edge34" class="edge">
<title>Node1&#45;&gt;Node29</title>
<path fill="none" stroke="midnightblue" d="M311.89,-715.45C280.49,-706.36 229.23,-691.51 194.28,-681.39"/>
<polygon fill="midnightblue" stroke="midnightblue" points="195.02,-677.96 184.44,-678.54 193.07,-684.68 195.02,-677.96"/>
</g>
<!-- Node36 -->
<g id="node36" class="node">
<title>Node36</title>
<g id="a_node36"><a xlink:href="../../d2/d1b/txparser_8h.html" target="_top" xlink:title=" ">
<polygon fill="none" stroke="black" points="402.73,-660.5 402.73,-678.5 462.64,-678.5 462.64,-660.5 402.73,-660.5"/>
<text text-anchor="middle" x="432.68" y="-666.5" font-family="Helvetica,sans-Serif" font-size="10.00">txparser.h</text>
</a>
</g>
</g>
<!-- Node1&#45;&gt;Node36 -->
<g id="edge45" class="edge">
<title>Node1&#45;&gt;Node36</title>
<path fill="none" stroke="midnightblue" d="M353.81,-715.45C368.56,-707.05 391.93,-693.72 409.41,-683.76"/>
<polygon fill="midnightblue" stroke="midnightblue" points="411.47,-686.62 418.43,-678.63 408.01,-680.54 411.47,-686.62"/>
</g>
<!-- Node3 -->
<g id="node3" class="node">
<title>Node3</title>
<g id="a_node3"><a xlink:href="../../dc/d65/txstack_8h.html" target="_top" xlink:title=" ">
<polygon fill="none" stroke="black" points="311.96,-605.5 311.96,-623.5 367.41,-623.5 367.41,-605.5 311.96,-605.5"/>
<text text-anchor="middle" x="339.68" y="-611.5" font-family="Helvetica,sans-Serif" font-size="10.00">txstack.h</text>
</a>
</g>
</g>
<!-- Node2&#45;&gt;Node3 -->
<g id="edge2" class="edge">
<title>Node2&#45;&gt;Node3</title>
<path fill="none" stroke="midnightblue" d="M339.68,-660.22C339.68,-653.18 339.68,-642.81 339.68,-633.83"/>
<polygon fill="midnightblue" stroke="midnightblue" points="343.18,-633.55 339.68,-623.55 336.18,-633.55 343.18,-633.55"/>
</g>
<!-- Node4 -->
<g id="node4" class="node">
<title>Node4</title>
<g id="a_node4"><a xlink:href="../../d4/da4/txatt_8h.html" target="_top" xlink:title=" ">
<polygon fill="none" stroke="black" points="314.07,-550.5 314.07,-568.5 357.3,-568.5 357.3,-550.5 314.07,-550.5"/>
<text text-anchor="middle" x="335.68" y="-556.5" font-family="Helvetica,sans-Serif" font-size="10.00">txatt.h</text>
</a>
</g>
</g>
<!-- Node3&#45;&gt;Node4 -->
<g id="edge3" class="edge">
<title>Node3&#45;&gt;Node4</title>
<path fill="none" stroke="midnightblue" d="M339.06,-605.22C338.52,-598.1 337.73,-587.58 337.05,-578.53"/>
<polygon fill="midnightblue" stroke="midnightblue" points="340.53,-578.26 336.29,-568.55 333.55,-578.78 340.53,-578.26"/>
</g>
<!-- Node28 -->
<g id="node28" class="node">
<title>Node28</title>
<g id="a_node28"><a xlink:href="../../d1/d43/txxml_8h.html" target="_top" xlink:title=" ">
<polygon fill="none" stroke="black" points="248.85,-550.5 248.85,-568.5 296.52,-568.5 296.52,-550.5 248.85,-550.5"/>
<text text-anchor="middle" x="272.68" y="-556.5" font-family="Helvetica,sans-Serif" font-size="10.00">txxml.h</text>
</a>
</g>
</g>
<!-- Node3&#45;&gt;Node28 -->
<g id="edge32" class="edge">
<title>Node3&#45;&gt;Node28</title>
<path fill="none" stroke="midnightblue" d="M329.51,-605.45C319.28,-597.36 303.28,-584.7 290.87,-574.88"/>
<polygon fill="midnightblue" stroke="midnightblue" points="292.97,-572.08 282.96,-568.63 288.63,-577.57 292.97,-572.08"/>
</g>
<!-- Node5 -->
<g id="node5" class="node">
<title>Node5</title>
<g id="a_node5"><a xlink:href="../../dc/def/txstring_8h.html" target="_top" xlink:title=" ">
<polygon fill="none" stroke="black" points="307.4,-495.5 307.4,-513.5 363.97,-513.5 363.97,-495.5 307.4,-495.5"/>
<text text-anchor="middle" x="335.68" y="-501.5" font-family="Helvetica,sans-Serif" font-size="10.00">txstring.h</text>
</a>
</g>
</g>
<!-- Node4&#45;&gt;Node5 -->
<g id="edge4" class="edge">
<title>Node4&#45;&gt;Node5</title>
<path fill="none" stroke="midnightblue" d="M335.68,-550.22C335.68,-543.18 335.68,-532.81 335.68,-523.83"/>
<polygon fill="midnightblue" stroke="midnightblue" points="339.18,-523.55 335.68,-513.55 332.18,-523.55 339.18,-523.55"/>
</g>
<!-- Node6 -->
<g id="node6" class="node">
<title>Node6</title>
<g id="a_node6"><a xlink:href="../../dd/d74/txbuffer_8h.html" target="_top" xlink:title=" ">
<polygon fill="none" stroke="black" points="307.2,-440.5 307.2,-458.5 364.17,-458.5 364.17,-440.5 307.2,-440.5"/>
<text text-anchor="middle" x="335.68" y="-446.5" font-family="Helvetica,sans-Serif" font-size="10.00">txbuffer.h</text>
</a>
</g>
</g>
<!-- Node5&#45;&gt;Node6 -->
<g id="edge5" class="edge">
<title>Node5&#45;&gt;Node6</title>
<path fill="none" stroke="midnightblue" d="M335.68,-495.22C335.68,-488.18 335.68,-477.81 335.68,-468.83"/>
<polygon fill="midnightblue" stroke="midnightblue" points="339.18,-468.55 335.68,-458.55 332.18,-468.55 339.18,-468.55"/>
</g>
<!-- Node7 -->
<g id="node7" class="node">
<title>Node7</title>
<g id="a_node7"><a xlink:href="../../d1/d9e/txid_8h.html" target="_top" xlink:title=" ">
<polygon fill="none" stroke="black" points="264.73,-330.5 264.73,-348.5 304.64,-348.5 304.64,-330.5 264.73,-330.5"/>
<text text-anchor="middle" x="284.68" y="-336.5" font-family="Helvetica,sans-Serif" font-size="10.00">txid.h</text>
</a>
</g>
</g>
<!-- Node6&#45;&gt;Node7 -->
<g id="edge6" class="edge">
<title>Node6&#45;&gt;Node7</title>
<path fill="none" stroke="midnightblue" d="M328.39,-440.18C321.22,-431.63 310.4,-417.66 303.68,-404 296.54,-389.46 291.5,-371.71 288.42,-358.68"/>
<polygon fill="midnightblue" stroke="midnightblue" points="291.78,-357.65 286.21,-348.64 284.94,-359.16 291.78,-357.65"/>
</g>
<!-- Node17 -->
<g id="node17" class="node">
<title>Node17</title>
<g id="a_node17"><a xlink:href="../../d9/d18/txscaled_8h.html" target="_top" xlink:title=" ">
<polygon fill="none" stroke="black" points="376.17,-385.5 376.17,-403.5 437.2,-403.5 437.2,-385.5 376.17,-385.5"/>
<text text-anchor="middle" x="406.68" y="-391.5" font-family="Helvetica,sans-Serif" font-size="10.00">txscaled.h</text>
</a>
</g>
</g>
<!-- Node6&#45;&gt;Node17 -->
<g id="edge16" class="edge">
<title>Node6&#45;&gt;Node17</title>
<path fill="none" stroke="midnightblue" d="M346.47,-440.45C357.31,-432.36 374.26,-419.7 387.42,-409.88"/>
<polygon fill="midnightblue" stroke="midnightblue" points="389.88,-412.41 395.8,-403.63 385.69,-406.8 389.88,-412.41"/>
</g>
<!-- Node26 -->
<g id="node26" class="node">
<title>Node26</title>
<g id="a_node26"><a xlink:title=" ">
<polygon fill="none" stroke="#bfbfbf" points="312.96,-385.5 312.96,-403.5 358.41,-403.5 358.41,-385.5 312.96,-385.5"/>
<text text-anchor="middle" x="335.68" y="-391.5" font-family="Helvetica,sans-Serif" font-size="10.00">cstring</text>
</a>
</g>
</g>
<!-- Node6&#45;&gt;Node26 -->
<g id="edge30" class="edge">
<title>Node6&#45;&gt;Node26</title>
<path fill="none" stroke="midnightblue" d="M335.68,-440.22C335.68,-433.18 335.68,-422.81 335.68,-413.83"/>
<polygon fill="midnightblue" stroke="midnightblue" points="339.18,-413.55 335.68,-403.55 332.18,-413.55 339.18,-413.55"/>
</g>
<!-- Node27 -->
<g id="node27" class="node">
<title>Node27</title>
<g id="a_node27"><a xlink:title=" ">
<polygon fill="none" stroke="#bfbfbf" points="479.07,-385.5 479.07,-403.5 522.3,-403.5 522.3,-385.5 479.07,-385.5"/>
<text text-anchor="middle" x="500.68" y="-391.5" font-family="Helvetica,sans-Serif" font-size="10.00">vector</text>
</a>
</g>
</g>
<!-- Node6&#45;&gt;Node27 -->
<g id="edge31" class="edge">
<title>Node6&#45;&gt;Node27</title>
<path fill="none" stroke="midnightblue" d="M360.74,-440.45C389.79,-431.12 437.68,-415.74 469.21,-405.61"/>
<polygon fill="midnightblue" stroke="midnightblue" points="470.37,-408.91 478.82,-402.52 468.23,-402.25 470.37,-408.91"/>
</g>
<!-- Node8 -->
<g id="node8" class="node">
<title>Node8</title>
<g id="a_node8"><a xlink:href="../../dc/de8/txvars_8h.html" target="_top" xlink:title=" ">
<polygon fill="none" stroke="black" points="251.18,-275.5 251.18,-293.5 302.19,-293.5 302.19,-275.5 251.18,-275.5"/>
<text text-anchor="middle" x="276.68" y="-281.5" font-family="Helvetica,sans-Serif" font-size="10.00">txvars.h</text>
</a>
</g>
</g>
<!-- Node7&#45;&gt;Node8 -->
<g id="edge7" class="edge">
<title>Node7&#45;&gt;Node8</title>
<path fill="none" stroke="midnightblue" d="M283.43,-330.22C282.36,-323.1 280.77,-312.58 279.41,-303.53"/>
<polygon fill="midnightblue" stroke="midnightblue" points="282.85,-302.92 277.9,-293.55 275.93,-303.96 282.85,-302.92"/>
</g>
<!-- Node16 -->
<g id="node16" class="node">
<title>Node16</title>
<g id="a_node16"><a xlink:title=" ">
<polygon fill="none" stroke="#bfbfbf" points="484.46,-220.5 484.46,-238.5 524.91,-238.5 524.91,-220.5 484.46,-220.5"/>
<text text-anchor="middle" x="504.68" y="-226.5" font-family="Helvetica,sans-Serif" font-size="10.00">string</text>
</a>
</g>
</g>
<!-- Node7&#45;&gt;Node16 -->
<g id="edge15" class="edge">
<title>Node7&#45;&gt;Node16</title>
<path fill="none" stroke="midnightblue" d="M305.05,-332.83C330.14,-325.49 373.72,-311.52 408.68,-294 437.09,-279.77 467.24,-258.72 486.01,-244.82"/>
<polygon fill="midnightblue" stroke="midnightblue" points="488.36,-247.43 494.25,-238.62 484.16,-241.83 488.36,-247.43"/>
</g>
<!-- Node9 -->
<g id="node9" class="node">
<title>Node9</title>
<g id="a_node9"><a xlink:href="../../d0/d0b/enums_8h.html" target="_top" xlink:title=" ">
<polygon fill="none" stroke="black" points="355.06,-165.5 355.06,-183.5 438.31,-183.5 438.31,-165.5 355.06,-165.5"/>
<text text-anchor="middle" x="396.68" y="-171.5" font-family="Helvetica,sans-Serif" font-size="10.00">tralics/enums.h</text>
</a>
</g>
</g>
<!-- Node8&#45;&gt;Node9 -->
<g id="edge8" class="edge">
<title>Node8&#45;&gt;Node9</title>
<path fill="none" stroke="midnightblue" d="M279.35,-275.09C283.9,-261.89 294.3,-236.16 310.68,-220 325.29,-205.59 345.52,-194.81 362.69,-187.47"/>
<polygon fill="midnightblue" stroke="midnightblue" points="364.42,-190.54 372.38,-183.54 361.79,-184.05 364.42,-190.54"/>
</g>
<!-- Node15 -->
<g id="node15" class="node">
<title>Node15</title>
<g id="a_node15"><a xlink:title=" ">
<polygon fill="none" stroke="#bfbfbf" points="225.29,-220.5 225.29,-238.5 264.08,-238.5 264.08,-220.5 225.29,-220.5"/>
<text text-anchor="middle" x="244.68" y="-226.5" font-family="Helvetica,sans-Serif" font-size="10.00">array</text>
</a>
</g>
</g>
<!-- Node8&#45;&gt;Node15 -->
<g id="edge14" class="edge">
<title>Node8&#45;&gt;Node15</title>
<path fill="none" stroke="midnightblue" d="M271.68,-275.22C267.2,-267.79 260.47,-256.65 254.85,-247.34"/>
<polygon fill="midnightblue" stroke="midnightblue" points="257.71,-245.3 249.54,-238.55 251.72,-248.92 257.71,-245.3"/>
</g>
<!-- Node10 -->
<g id="node10" class="node">
<title>Node10</title>
<g id="a_node10"><a xlink:href="../../d8/db5/consts_8h.html" target="_top" xlink:title=" ">
<polygon fill="none" stroke="black" points="370.06,-110.5 370.06,-128.5 423.31,-128.5 423.31,-110.5 370.06,-110.5"/>
<text text-anchor="middle" x="396.68" y="-116.5" font-family="Helvetica,sans-Serif" font-size="10.00">consts.h</text>
</a>
</g>
</g>
<!-- Node9&#45;&gt;Node10 -->
<g id="edge9" class="edge">
<title>Node9&#45;&gt;Node10</title>
<path fill="none" stroke="midnightblue" d="M396.68,-165.22C396.68,-158.18 396.68,-147.81 396.68,-138.83"/>
<polygon fill="midnightblue" stroke="midnightblue" points="400.18,-138.55 396.68,-128.55 393.18,-138.55 400.18,-138.55"/>
</g>
<!-- Node11 -->
<g id="node11" class="node">
<title>Node11</title>
<g id="a_node11"><a xlink:href="../../d9/d49/types_8h.html" target="_top" xlink:title=" ">
<polygon fill="none" stroke="black" points="344.56,-55.5 344.56,-73.5 392.81,-73.5 392.81,-55.5 344.56,-55.5"/>
<text text-anchor="middle" x="368.68" y="-61.5" font-family="Helvetica,sans-Serif" font-size="10.00">types.h</text>
</a>
</g>
</g>
<!-- Node10&#45;&gt;Node11 -->
<g id="edge10" class="edge">
<title>Node10&#45;&gt;Node11</title>
<path fill="none" stroke="midnightblue" d="M392.31,-110.22C388.42,-102.86 382.62,-91.88 377.74,-82.64"/>
<polygon fill="midnightblue" stroke="midnightblue" points="380.7,-80.76 372.94,-73.55 374.51,-84.03 380.7,-80.76"/>
</g>
<!-- Node12 -->
<g id="node12" class="node">
<title>Node12</title>
<g id="a_node12"><a xlink:title=" ">
<polygon fill="none" stroke="#bfbfbf" points="276.57,-0.5 276.57,-18.5 324.8,-18.5 324.8,-0.5 276.57,-0.5"/>
<text text-anchor="middle" x="300.68" y="-6.5" font-family="Helvetica,sans-Serif" font-size="10.00">cassert</text>
</a>
</g>
</g>
<!-- Node11&#45;&gt;Node12 -->
<g id="edge11" class="edge">
<title>Node11&#45;&gt;Node12</title>
<path fill="none" stroke="midnightblue" d="M358.36,-55.45C347.97,-47.36 331.74,-34.7 319.14,-24.88"/>
<polygon fill="midnightblue" stroke="midnightblue" points="321.15,-22.01 311.11,-18.63 316.85,-27.53 321.15,-22.01"/>
</g>
<!-- Node13 -->
<g id="node13" class="node">
<title>Node13</title>
<g id="a_node13"><a xlink:title=" ">
<polygon fill="none" stroke="#bfbfbf" points="342.89,-0.5 342.89,-18.5 394.48,-18.5 394.48,-0.5 342.89,-0.5"/>
<text text-anchor="middle" x="368.68" y="-6.5" font-family="Helvetica,sans-Serif" font-size="10.00">stddef.h</text>
</a>
</g>
</g>
<!-- Node11&#45;&gt;Node13 -->
<g id="edge12" class="edge">
<title>Node11&#45;&gt;Node13</title>
<path fill="none" stroke="midnightblue" d="M368.68,-55.22C368.68,-48.18 368.68,-37.81 368.68,-28.83"/>
<polygon fill="midnightblue" stroke="midnightblue" points="372.18,-28.55 368.68,-18.55 365.18,-28.55 372.18,-28.55"/>
</g>
<!-- Node14 -->
<g id="node14" class="node">
<title>Node14</title>
<g id="a_node14"><a xlink:title=" ">
<polygon fill="none" stroke="#bfbfbf" points="412.62,-0.5 412.62,-18.5 474.75,-18.5 474.75,-0.5 412.62,-0.5"/>
<text text-anchor="middle" x="443.68" y="-6.5" font-family="Helvetica,sans-Serif" font-size="10.00">type_traits</text>
</a>
</g>
</g>
<!-- Node11&#45;&gt;Node14 -->
<g id="edge13" class="edge">
<title>Node11&#45;&gt;Node14</title>
<path fill="none" stroke="midnightblue" d="M380.08,-55.45C391.64,-47.28 409.78,-34.46 423.73,-24.6"/>
<polygon fill="midnightblue" stroke="midnightblue" points="426.04,-27.25 432.19,-18.63 422,-21.54 426.04,-27.25"/>
</g>
<!-- Node18 -->
<g id="node18" class="node">
<title>Node18</title>
<g id="a_node18"><a xlink:href="../../dc/d91/txtokenlist_8h.html" target="_top" xlink:title=" ">
<polygon fill="none" stroke="black" points="372.28,-330.5 372.28,-348.5 441.09,-348.5 441.09,-330.5 372.28,-330.5"/>
<text text-anchor="middle" x="406.68" y="-336.5" font-family="Helvetica,sans-Serif" font-size="10.00">txtokenlist.h</text>
</a>
</g>
</g>
<!-- Node17&#45;&gt;Node18 -->
<g id="edge17" class="edge">
<title>Node17&#45;&gt;Node18</title>
<path fill="none" stroke="midnightblue" d="M406.68,-385.22C406.68,-378.18 406.68,-367.81 406.68,-358.83"/>
<polygon fill="midnightblue" stroke="midnightblue" points="410.18,-358.55 406.68,-348.55 403.18,-358.55 410.18,-358.55"/>
</g>
<!-- Node18&#45;&gt;Node8 -->
<g id="edge28" class="edge">
<title>Node18&#45;&gt;Node8</title>
<path fill="none" stroke="midnightblue" d="M386.94,-330.45C365.37,-321.66 330.6,-307.48 305.87,-297.4"/>
<polygon fill="midnightblue" stroke="midnightblue" points="307.2,-294.16 296.61,-293.63 304.55,-300.64 307.2,-294.16"/>
</g>
<!-- Node19 -->
<g id="node19" class="node">
<title>Node19</title>
<g id="a_node19"><a xlink:href="../../d5/daf/_istring_8h.html" target="_top" xlink:title=" ">
<polygon fill="none" stroke="black" points="455.45,-275.5 455.45,-293.5 535.92,-293.5 535.92,-275.5 455.45,-275.5"/>
<text text-anchor="middle" x="495.68" y="-281.5" font-family="Helvetica,sans-Serif" font-size="10.00">tralics/Istring.h</text>
</a>
</g>
</g>
<!-- Node18&#45;&gt;Node19 -->
<g id="edge18" class="edge">
<title>Node18&#45;&gt;Node19</title>
<path fill="none" stroke="midnightblue" d="M420.2,-330.45C434.32,-322.05 456.69,-308.72 473.41,-298.76"/>
<polygon fill="midnightblue" stroke="midnightblue" points="475.24,-301.75 482.04,-293.63 471.66,-295.73 475.24,-301.75"/>
</g>
<!-- Node20 -->
<g id="node20" class="node">
<title>Node20</title>
<g id="a_node20"><a xlink:href="../../dd/dcd/_token_8h.html" target="_top" xlink:title=" ">
<polygon fill="none" stroke="black" points="319.73,-275.5 319.73,-293.5 399.64,-293.5 399.64,-275.5 319.73,-275.5"/>
<text text-anchor="middle" x="359.68" y="-281.5" font-family="Helvetica,sans-Serif" font-size="10.00">tralics/Token.h</text>
</a>
</g>
</g>
<!-- Node18&#45;&gt;Node20 -->
<g id="edge21" class="edge">
<title>Node18&#45;&gt;Node20</title>
<path fill="none" stroke="midnightblue" d="M399.34,-330.22C392.47,-322.47 382.03,-310.7 373.59,-301.18"/>
<polygon fill="midnightblue" stroke="midnightblue" points="376.08,-298.71 366.82,-293.55 370.84,-303.35 376.08,-298.71"/>
</g>
<!-- Node25 -->
<g id="node25" class="node">
<title>Node25</title>
<g id="a_node25"><a xlink:title=" ">
<polygon fill="none" stroke="#bfbfbf" points="554.29,-275.5 554.29,-293.5 593.08,-293.5 593.08,-275.5 554.29,-275.5"/>
<text text-anchor="middle" x="573.68" y="-281.5" font-family="Helvetica,sans-Serif" font-size="10.00">utility</text>
</a>
</g>
</g>
<!-- Node18&#45;&gt;Node25 -->
<g id="edge29" class="edge">
<title>Node18&#45;&gt;Node25</title>
<path fill="none" stroke="midnightblue" d="M432.05,-330.45C462.27,-320.86 512.65,-304.87 544.47,-294.77"/>
<polygon fill="midnightblue" stroke="midnightblue" points="545.62,-298.08 554.1,-291.72 543.51,-291.41 545.62,-298.08"/>
</g>
<!-- Node19&#45;&gt;Node9 -->
<g id="edge19" class="edge">
<title>Node19&#45;&gt;Node9</title>
<path fill="none" stroke="midnightblue" d="M488.19,-275.27C477.15,-263.15 455.85,-239.8 437.68,-220 428.86,-210.38 418.94,-199.61 411.07,-191.08"/>
<polygon fill="midnightblue" stroke="midnightblue" points="413.61,-188.67 404.25,-183.69 408.46,-193.41 413.61,-188.67"/>
</g>
<!-- Node19&#45;&gt;Node16 -->
<g id="edge20" class="edge">
<title>Node19&#45;&gt;Node16</title>
<path fill="none" stroke="midnightblue" d="M497.09,-275.22C498.3,-268.1 500.09,-257.58 501.62,-248.53"/>
<polygon fill="midnightblue" stroke="midnightblue" points="505.09,-248.99 503.32,-238.55 498.19,-247.82 505.09,-248.99"/>
</g>
<!-- Node21 -->
<g id="node21" class="node">
<title>Node21</title>
<g id="a_node21"><a xlink:href="../../d2/d68/_cmd_chr_8h.html" target="_top" xlink:title=" ">
<polygon fill="none" stroke="black" points="320.17,-220.5 320.17,-238.5 381.19,-238.5 381.19,-220.5 320.17,-220.5"/>
<text text-anchor="middle" x="350.68" y="-226.5" font-family="Helvetica,sans-Serif" font-size="10.00">CmdChr.h</text>
</a>
</g>
</g>
<!-- Node20&#45;&gt;Node21 -->
<g id="edge22" class="edge">
<title>Node20&#45;&gt;Node21</title>
<path fill="none" stroke="midnightblue" d="M358.28,-275.22C357.07,-268.1 355.28,-257.58 353.75,-248.53"/>
<polygon fill="midnightblue" stroke="midnightblue" points="357.18,-247.82 352.05,-238.55 350.28,-248.99 357.18,-247.82"/>
</g>
<!-- Node24 -->
<g id="node24" class="node">
<title>Node24</title>
<g id="a_node24"><a xlink:title=" ">
<polygon fill="none" stroke="#bfbfbf" points="399.18,-220.5 399.18,-238.5 428.18,-238.5 428.18,-220.5 399.18,-220.5"/>
<text text-anchor="middle" x="413.3" y="-226.5" font-family="Helvetica,sans-Serif" font-size="10.00">list</text>
</a>
</g>
</g>
<!-- Node20&#45;&gt;Node24 -->
<g id="edge27" class="edge">
<title>Node20&#45;&gt;Node24</title>
<path fill="none" stroke="midnightblue" d="M368.12,-275.22C376.17,-267.32 388.49,-255.22 398.29,-245.61"/>
<polygon fill="midnightblue" stroke="midnightblue" points="400.8,-248.05 405.48,-238.55 395.89,-243.06 400.8,-248.05"/>
</g>
<!-- Node21&#45;&gt;Node9 -->
<g id="edge26" class="edge">
<title>Node21&#45;&gt;Node9</title>
<path fill="none" stroke="midnightblue" d="M357.87,-220.22C364.6,-212.47 374.81,-200.7 383.08,-191.18"/>
<polygon fill="midnightblue" stroke="midnightblue" points="385.79,-193.4 389.7,-183.55 380.5,-188.81 385.79,-193.4"/>
</g>
<!-- Node22 -->
<g id="node22" class="node">
<title>Node22</title>
<g id="a_node22"><a xlink:href="../../d8/d47/codepoint_8h.html" target="_top" xlink:title=" ">
<polygon fill="none" stroke="black" points="269.83,-165.5 269.83,-183.5 337.54,-183.5 337.54,-165.5 269.83,-165.5"/>
<text text-anchor="middle" x="303.68" y="-171.5" font-family="Helvetica,sans-Serif" font-size="10.00">codepoint.h</text>
</a>
</g>
</g>
<!-- Node21&#45;&gt;Node22 -->
<g id="edge23" class="edge">
<title>Node21&#45;&gt;Node22</title>
<path fill="none" stroke="midnightblue" d="M343.34,-220.22C336.47,-212.47 326.03,-200.7 317.59,-191.18"/>
<polygon fill="midnightblue" stroke="midnightblue" points="320.08,-188.71 310.82,-183.55 314.84,-193.35 320.08,-188.71"/>
</g>
<!-- Node22&#45;&gt;Node11 -->
<g id="edge24" class="edge">
<title>Node22&#45;&gt;Node11</title>
<path fill="none" stroke="midnightblue" d="M308.57,-165.38C319.16,-147.79 344.4,-105.85 358.58,-82.29"/>
<polygon fill="midnightblue" stroke="midnightblue" points="361.58,-84.08 363.74,-73.71 355.59,-80.47 361.58,-84.08"/>
</g>
<!-- Node23 -->
<g id="node23" class="node">
<title>Node23</title>
<g id="a_node23"><a xlink:title=" ">
<polygon fill="none" stroke="#bfbfbf" points="262.17,-110.5 262.17,-128.5 313.2,-128.5 313.2,-110.5 262.17,-110.5"/>
<text text-anchor="middle" x="287.68" y="-116.5" font-family="Helvetica,sans-Serif" font-size="10.00">optional</text>
</a>
</g>
</g>
<!-- Node22&#45;&gt;Node23 -->
<g id="edge25" class="edge">
<title>Node22&#45;&gt;Node23</title>
<path fill="none" stroke="midnightblue" d="M301.18,-165.22C299.01,-158.02 295.79,-147.35 293.04,-138.23"/>
<polygon fill="midnightblue" stroke="midnightblue" points="296.36,-137.11 290.11,-128.55 289.65,-139.13 296.36,-137.11"/>
</g>
<!-- Node28&#45;&gt;Node5 -->
<g id="edge33" class="edge">
<title>Node28&#45;&gt;Node5</title>
<path fill="none" stroke="midnightblue" d="M282.25,-550.45C291.78,-542.43 306.62,-529.95 318.25,-520.17"/>
<polygon fill="midnightblue" stroke="midnightblue" points="320.63,-522.74 326.03,-513.63 316.12,-517.38 320.63,-522.74"/>
</g>
<!-- Node30 -->
<g id="node30" class="node">
<title>Node30</title>
<g id="a_node30"><a xlink:href="../../d4/de9/_main_class_8h.html" target="_top" xlink:title=" ">
<polygon fill="none" stroke="black" points="155.73,-605.5 155.73,-623.5 255.64,-623.5 255.64,-605.5 155.73,-605.5"/>
<text text-anchor="middle" x="205.68" y="-611.5" font-family="Helvetica,sans-Serif" font-size="10.00">tralics/MainClass.h</text>
</a>
</g>
</g>
<!-- Node29&#45;&gt;Node30 -->
<g id="edge35" class="edge">
<title>Node29&#45;&gt;Node30</title>
<path fill="none" stroke="midnightblue" d="M164.34,-660.22C171.5,-652.47 182.39,-640.7 191.19,-631.18"/>
<polygon fill="midnightblue" stroke="midnightblue" points="194.02,-633.27 198.24,-623.55 188.88,-628.52 194.02,-633.27"/>
</g>
<!-- Node33 -->
<g id="node33" class="node">
<title>Node33</title>
<g id="a_node33"><a xlink:href="../../d2/d06/txlogger_8h.html" target="_top" xlink:title=" ">
<polygon fill="none" stroke="black" points="0,-605.5 0,-623.5 59.37,-623.5 59.37,-605.5 0,-605.5"/>
<text text-anchor="middle" x="29.68" y="-611.5" font-family="Helvetica,sans-Serif" font-size="10.00">txlogger.h</text>
</a>
</g>
</g>
<!-- Node29&#45;&gt;Node33 -->
<g id="edge40" class="edge">
<title>Node29&#45;&gt;Node33</title>
<path fill="none" stroke="midnightblue" d="M137.4,-660.45C116.42,-651.7 82.65,-637.61 58.52,-627.53"/>
<polygon fill="midnightblue" stroke="midnightblue" points="59.73,-624.25 49.15,-623.63 57.04,-630.71 59.73,-624.25"/>
</g>
<!-- Node35 -->
<g id="node35" class="node">
<title>Node35</title>
<g id="a_node35"><a xlink:href="../../d5/d08/txparam_8h.html" target="_top" xlink:title=" ">
<polygon fill="none" stroke="black" points="77.45,-605.5 77.45,-623.5 137.92,-623.5 137.92,-605.5 77.45,-605.5"/>
<text text-anchor="middle" x="107.68" y="-611.5" font-family="Helvetica,sans-Serif" font-size="10.00">txparam.h</text>
</a>
</g>
</g>
<!-- Node29&#45;&gt;Node35 -->
<g id="edge43" class="edge">
<title>Node29&#45;&gt;Node35</title>
<path fill="none" stroke="midnightblue" d="M149.03,-660.22C141.87,-652.47 130.98,-640.7 122.18,-631.18"/>
<polygon fill="midnightblue" stroke="midnightblue" points="124.49,-628.52 115.13,-623.55 119.35,-633.27 124.49,-628.52"/>
</g>
<!-- Node30&#45;&gt;Node5 -->
<g id="edge39" class="edge">
<title>Node30&#45;&gt;Node5</title>
<path fill="none" stroke="midnightblue" d="M208.13,-605.43C212.49,-592.25 222.77,-565.97 239.68,-550 255.95,-534.64 278.46,-523.83 297.6,-516.71"/>
<polygon fill="midnightblue" stroke="midnightblue" points="298.98,-519.93 307.25,-513.32 296.65,-513.33 298.98,-519.93"/>
</g>
<!-- Node31 -->
<g id="node31" class="node">
<title>Node31</title>
<g id="a_node31"><a xlink:href="../../de/d29/txio_8h.html" target="_top" xlink:title=" ">
<polygon fill="none" stroke="black" points="144.57,-550.5 144.57,-568.5 192.8,-568.5 192.8,-550.5 144.57,-550.5"/>
<text text-anchor="middle" x="168.68" y="-556.5" font-family="Helvetica,sans-Serif" font-size="10.00">../txio.h</text>
</a>
</g>
</g>
<!-- Node30&#45;&gt;Node31 -->
<g id="edge36" class="edge">
<title>Node30&#45;&gt;Node31</title>
<path fill="none" stroke="midnightblue" d="M199.9,-605.22C194.6,-597.63 186.61,-586.18 180.04,-576.76"/>
<polygon fill="midnightblue" stroke="midnightblue" points="182.9,-574.75 174.3,-568.55 177.16,-578.75 182.9,-574.75"/>
</g>
<!-- Node31&#45;&gt;Node6 -->
<g id="edge37" class="edge">
<title>Node31&#45;&gt;Node6</title>
<path fill="none" stroke="midnightblue" d="M181.24,-550.38C209.65,-532.01 279.14,-487.07 314.41,-464.26"/>
<polygon fill="midnightblue" stroke="midnightblue" points="316.49,-467.08 322.99,-458.71 312.69,-461.2 316.49,-467.08"/>
</g>
<!-- Node32 -->
<g id="node32" class="node">
<title>Node32</title>
<g id="a_node32"><a xlink:title=" ">
<polygon fill="none" stroke="#bfbfbf" points="95.01,-495.5 95.01,-513.5 144.35,-513.5 144.35,-495.5 95.01,-495.5"/>
<text text-anchor="middle" x="119.68" y="-501.5" font-family="Helvetica,sans-Serif" font-size="10.00">fstream</text>
</a>
</g>
</g>
<!-- Node31&#45;&gt;Node32 -->
<g id="edge38" class="edge">
<title>Node31&#45;&gt;Node32</title>
<path fill="none" stroke="midnightblue" d="M161.03,-550.22C153.87,-542.47 142.98,-530.7 134.18,-521.18"/>
<polygon fill="midnightblue" stroke="midnightblue" points="136.49,-518.52 127.13,-513.55 131.35,-523.27 136.49,-518.52"/>
</g>
<!-- Node33&#45;&gt;Node32 -->
<g id="edge41" class="edge">
<title>Node33&#45;&gt;Node32</title>
<path fill="none" stroke="midnightblue" d="M30.3,-605.25C31.65,-592.28 35.86,-566.85 48.68,-550 59.31,-536.04 75.68,-525.36 90.02,-517.97"/>
<polygon fill="midnightblue" stroke="midnightblue" points="91.6,-521.09 99.08,-513.58 88.55,-514.79 91.6,-521.09"/>
</g>
<!-- Node34 -->
<g id="node34" class="node">
<title>Node34</title>
<g id="a_node34"><a xlink:title=" ">
<polygon fill="none" stroke="#bfbfbf" points="57.51,-550.5 57.51,-568.5 111.86,-568.5 111.86,-550.5 57.51,-550.5"/>
<text text-anchor="middle" x="84.68" y="-556.5" font-family="Helvetica,sans-Serif" font-size="10.00">iostream</text>
</a>
</g>
</g>
<!-- Node33&#45;&gt;Node34 -->
<g id="edge42" class="edge">
<title>Node33&#45;&gt;Node34</title>
<path fill="none" stroke="midnightblue" d="M38.28,-605.22C46.48,-597.32 59.03,-585.22 69.01,-575.61"/>
<polygon fill="midnightblue" stroke="midnightblue" points="71.56,-578.01 76.33,-568.55 66.7,-572.97 71.56,-578.01"/>
</g>
<!-- Node35&#45;&gt;Node31 -->
<g id="edge44" class="edge">
<title>Node35&#45;&gt;Node31</title>
<path fill="none" stroke="midnightblue" d="M116.95,-605.45C126.09,-597.51 140.27,-585.19 151.48,-575.45"/>
<polygon fill="midnightblue" stroke="midnightblue" points="154.08,-577.83 159.33,-568.63 149.49,-572.54 154.08,-577.83"/>
</g>
<!-- Node36&#45;&gt;Node3 -->
<g id="edge57" class="edge">
<title>Node36&#45;&gt;Node3</title>
<path fill="none" stroke="midnightblue" d="M418.56,-660.45C403.81,-652.05 380.44,-638.72 362.96,-628.76"/>
<polygon fill="midnightblue" stroke="midnightblue" points="364.36,-625.54 353.94,-623.63 360.9,-631.62 364.36,-625.54"/>
</g>
<!-- Node36&#45;&gt;Node31 -->
<g id="edge56" class="edge">
<title>Node36&#45;&gt;Node31</title>
<path fill="none" stroke="midnightblue" d="M405.9,-660.49C379.34,-652.27 337.67,-638.66 302.68,-624 285.27,-616.7 281.7,-613.19 264.68,-605 241.46,-593.82 214.86,-581.53 195.56,-572.7"/>
<polygon fill="midnightblue" stroke="midnightblue" points="197,-569.51 186.45,-568.55 194.1,-575.88 197,-569.51"/>
</g>
<!-- Node37 -->
<g id="node37" class="node">
<title>Node37</title>
<g id="a_node37"><a xlink:href="../../d3/d6b/txcond_8h.html" target="_top" xlink:title=" ">
<polygon fill="none" stroke="black" points="493.78,-440.5 493.78,-458.5 547.59,-458.5 547.59,-440.5 493.78,-440.5"/>
<text text-anchor="middle" x="520.68" y="-446.5" font-family="Helvetica,sans-Serif" font-size="10.00">txcond.h</text>
</a>
</g>
</g>
<!-- Node36&#45;&gt;Node37 -->
<g id="edge46" class="edge">
<title>Node36&#45;&gt;Node37</title>
<path fill="none" stroke="midnightblue" d="M462.67,-667.29C492.56,-664.29 537.05,-654.59 558.68,-624 593.37,-574.97 553.28,-500.11 532.12,-467.11"/>
<polygon fill="midnightblue" stroke="midnightblue" points="534.94,-465.03 526.49,-458.63 529.1,-468.9 534.94,-465.03"/>
</g>
<!-- Node38 -->
<g id="node38" class="node">
<title>Node38</title>
<g id="a_node38"><a xlink:href="../../d7/d4d/txfonts_8h.html" target="_top" xlink:title=" ">
<polygon fill="none" stroke="black" points="375.79,-550.5 375.79,-568.5 429.58,-568.5 429.58,-550.5 375.79,-550.5"/>
<text text-anchor="middle" x="402.68" y="-556.5" font-family="Helvetica,sans-Serif" font-size="10.00">txfonts.h</text>
</a>
</g>
</g>
<!-- Node36&#45;&gt;Node38 -->
<g id="edge48" class="edge">
<title>Node36&#45;&gt;Node38</title>
<path fill="none" stroke="midnightblue" d="M428.87,-660.47C424.84,-651.69 418.53,-637.11 414.68,-624 410.33,-609.16 407.19,-591.9 405.21,-579.12"/>
<polygon fill="midnightblue" stroke="midnightblue" points="408.62,-578.24 403.73,-568.84 401.69,-579.24 408.62,-578.24"/>
</g>
<!-- Node39 -->
<g id="node39" class="node">
<title>Node39</title>
<g id="a_node39"><a xlink:href="../../d7/d7e/txhash_8h.html" target="_top" xlink:title=" ">
<polygon fill="none" stroke="black" points="423.78,-605.5 423.78,-623.5 477.59,-623.5 477.59,-605.5 423.78,-605.5"/>
<text text-anchor="middle" x="450.68" y="-611.5" font-family="Helvetica,sans-Serif" font-size="10.00">txhash.h</text>
</a>
</g>
</g>
<!-- Node36&#45;&gt;Node39 -->
<g id="edge50" class="edge">
<title>Node36&#45;&gt;Node39</title>
<path fill="none" stroke="midnightblue" d="M435.5,-660.22C437.94,-653.02 441.57,-642.35 444.66,-633.23"/>
<polygon fill="midnightblue" stroke="midnightblue" points="448.05,-634.14 447.95,-623.55 441.42,-631.89 448.05,-634.14"/>
</g>
<!-- Node41 -->
<g id="node41" class="node">
<title>Node41</title>
<g id="a_node41"><a xlink:href="../../de/d7c/tximage_8h.html" target="_top" xlink:title=" ">
<polygon fill="none" stroke="black" points="586.01,-330.5 586.01,-348.5 645.36,-348.5 645.36,-330.5 586.01,-330.5"/>
<text text-anchor="middle" x="615.68" y="-336.5" font-family="Helvetica,sans-Serif" font-size="10.00">tximage.h</text>
</a>
</g>
</g>
<!-- Node36&#45;&gt;Node41 -->
<g id="edge53" class="edge">
<title>Node36&#45;&gt;Node41</title>
<path fill="none" stroke="midnightblue" d="M462.9,-664.64C514.88,-656.13 615.68,-630.59 615.68,-560.5 615.68,-560.5 615.68,-560.5 615.68,-448.5 615.68,-417.02 615.68,-380.37 615.68,-358.88"/>
<polygon fill="midnightblue" stroke="midnightblue" points="619.18,-358.63 615.68,-348.63 612.18,-358.63 619.18,-358.63"/>
</g>
<!-- Node42 -->
<g id="node42" class="node">
<title>Node42</title>
<g id="a_node42"><a xlink:href="../../d8/d3d/txstats_8h.html" target="_top" xlink:title=" ">
<polygon fill="none" stroke="black" points="496.07,-605.5 496.07,-623.5 549.3,-623.5 549.3,-605.5 496.07,-605.5"/>
<text text-anchor="middle" x="522.68" y="-611.5" font-family="Helvetica,sans-Serif" font-size="10.00">txstats.h</text>
</a>
</g>
</g>
<!-- Node36&#45;&gt;Node42 -->
<g id="edge58" class="edge">
<title>Node36&#45;&gt;Node42</title>
<path fill="none" stroke="midnightblue" d="M446.35,-660.45C460.63,-652.05 483.25,-638.72 500.16,-628.76"/>
<polygon fill="midnightblue" stroke="midnightblue" points="502.05,-631.72 508.89,-623.63 498.49,-625.68 502.05,-631.72"/>
</g>
<!-- Node37&#45;&gt;Node27 -->
<g id="edge47" class="edge">
<title>Node37&#45;&gt;Node27</title>
<path fill="none" stroke="midnightblue" d="M517.56,-440.22C514.81,-432.94 510.73,-422.11 507.26,-412.93"/>
<polygon fill="midnightblue" stroke="midnightblue" points="510.53,-411.67 503.72,-403.55 503.98,-414.14 510.53,-411.67"/>
</g>
<!-- Node38&#45;&gt;Node5 -->
<g id="edge49" class="edge">
<title>Node38&#45;&gt;Node5</title>
<path fill="none" stroke="midnightblue" d="M392.51,-550.45C382.28,-542.36 366.28,-529.7 353.87,-519.88"/>
<polygon fill="midnightblue" stroke="midnightblue" points="355.97,-517.08 345.96,-513.63 351.63,-522.57 355.97,-517.08"/>
</g>
<!-- Node40 -->
<g id="node40" class="node">
<title>Node40</title>
<g id="a_node40"><a xlink:href="../../d3/d01/txeqtb_8h.html" target="_top" xlink:title=" ">
<polygon fill="none" stroke="black" points="447.89,-550.5 447.89,-568.5 499.48,-568.5 499.48,-550.5 447.89,-550.5"/>
<text text-anchor="middle" x="473.68" y="-556.5" font-family="Helvetica,sans-Serif" font-size="10.00">txeqtb.h</text>
</a>
</g>
</g>
<!-- Node39&#45;&gt;Node40 -->
<g id="edge51" class="edge">
<title>Node39&#45;&gt;Node40</title>
<path fill="none" stroke="midnightblue" d="M454.28,-605.22C457.44,-597.94 462.14,-587.11 466.12,-577.93"/>
<polygon fill="midnightblue" stroke="midnightblue" points="469.42,-579.12 470.19,-568.55 463,-576.33 469.42,-579.12"/>
</g>
<!-- Node40&#45;&gt;Node5 -->
<g id="edge52" class="edge">
<title>Node40&#45;&gt;Node5</title>
<path fill="none" stroke="midnightblue" d="M452.73,-550.45C429.73,-541.62 392.59,-527.35 366.32,-517.27"/>
<polygon fill="midnightblue" stroke="midnightblue" points="367.43,-513.94 356.84,-513.63 364.92,-520.48 367.43,-513.94"/>
</g>
<!-- Node41&#45;&gt;Node16 -->
<g id="edge54" class="edge">
<title>Node41&#45;&gt;Node16</title>
<path fill="none" stroke="midnightblue" d="M616.08,-330.09C616.25,-316.9 614.73,-291.17 601.68,-275 585.01,-254.34 556.61,-242.86 534.84,-236.76"/>
<polygon fill="midnightblue" stroke="midnightblue" points="535.62,-233.35 525.06,-234.26 533.88,-240.13 535.62,-233.35"/>
</g>
<!-- Node41&#45;&gt;Node25 -->
<g id="edge55" class="edge">
<title>Node41&#45;&gt;Node25</title>
<path fill="none" stroke="midnightblue" d="M609.12,-330.22C603.05,-322.55 593.84,-310.94 586.34,-301.47"/>
<polygon fill="midnightblue" stroke="midnightblue" points="589.02,-299.21 580.06,-293.55 583.53,-303.56 589.02,-299.21"/>
</g>
</g>
</svg>
