<?xml version="1.0" encoding="UTF-8" standalone="no"?>
<!DOCTYPE svg PUBLIC "-//W3C//DTD SVG 1.1//EN"
 "http://www.w3.org/Graphics/SVG/1.1/DTD/svg11.dtd">
<!-- Generated by graphviz version 2.42.3 (20191010.1750)
 -->
<!-- Title: MathDataP Pages: 1 -->
<svg width="1295pt" height="330pt"
 viewBox="0.00 0.00 1294.72 330.00" xmlns="http://www.w3.org/2000/svg" xmlns:xlink="http://www.w3.org/1999/xlink">
<g id="graph0" class="graph" transform="scale(1 1) rotate(0) translate(4 326)">
<title>MathDataP</title>
<!-- Node1 -->
<g id="node1" class="node">
<title>Node1</title>
<g id="a_node1"><a xlink:title=" ">
<polygon fill="#bfbfbf" stroke="black" points="1220.69,-151.5 1220.69,-169.5 1286.72,-169.5 1286.72,-151.5 1220.69,-151.5"/>
<text text-anchor="middle" x="1253.7" y="-157.5" font-family="Helvetica,sans-Serif" font-size="10.00">MathDataP</text>
</a>
</g>
</g>
<!-- Node2 -->
<g id="node2" class="node">
<title>Node2</title>
<g id="a_node2"><a xlink:title=" ">
<polygon fill="none" stroke="#bfbfbf" points="868.46,-272.5 868.46,-300.5 964.77,-300.5 964.77,-272.5 868.46,-272.5"/>
<text text-anchor="start" x="876.46" y="-288.5" font-family="Helvetica,sans-Serif" font-size="10.00">std::array&lt; Istring,</text>
<text text-anchor="middle" x="916.61" y="-278.5" font-family="Helvetica,sans-Serif" font-size="10.00"> del_tablesize &gt;</text>
</a>
</g>
</g>
<!-- Node2&#45;&gt;Node1 -->
<g id="edge1" class="edge">
<title>Node2&#45;&gt;Node1</title>
<path fill="none" stroke="#9a32cd" stroke-dasharray="5,2" d="M974.81,-299.93C1036.94,-311.04 1136.21,-318.19 1202.69,-270.5 1237.29,-245.68 1248.47,-191.05 1251.61,-169.5"/>
<polygon fill="#9a32cd" stroke="#9a32cd" points="975.26,-296.46 964.79,-298.05 973.97,-303.34 975.26,-296.46"/>
<text text-anchor="middle" x="1043.15" y="-309.5" font-family="Helvetica,sans-Serif" font-size="10.00"> xml_lr_ptable</text>
</g>
<!-- Node3 -->
<g id="node3" class="node">
<title>Node3</title>
<g id="a_node3"><a xlink:href="../../d9/d20/struct_istring.html" target="_top" xlink:title=" ">
<polygon fill="none" stroke="black" points="626.28,-267.5 626.28,-285.5 669.52,-285.5 669.52,-267.5 626.28,-267.5"/>
<text text-anchor="middle" x="647.9" y="-273.5" font-family="Helvetica,sans-Serif" font-size="10.00">Istring</text>
</a>
</g>
</g>
<!-- Node3&#45;&gt;Node2 -->
<g id="edge2" class="edge">
<title>Node3&#45;&gt;Node2</title>
<path fill="none" stroke="#9a32cd" stroke-dasharray="5,2" d="M679.86,-277.66C726.18,-279.4 813.86,-282.69 868.26,-284.72"/>
<polygon fill="#9a32cd" stroke="#9a32cd" points="679.95,-274.16 669.83,-277.28 679.69,-281.16 679.95,-274.16"/>
<text text-anchor="middle" x="712.53" y="-281.5" font-family="Helvetica,sans-Serif" font-size="10.00"> elements</text>
</g>
<!-- Node11 -->
<g id="node11" class="node">
<title>Node11</title>
<g id="a_node11"><a xlink:href="../../d6/d9a/class_xml.html" target="_top" xlink:title=" ">
<polygon fill="none" stroke="black" points="784.72,-205.5 784.72,-223.5 817.94,-223.5 817.94,-205.5 784.72,-205.5"/>
<text text-anchor="middle" x="801.33" y="-211.5" font-family="Helvetica,sans-Serif" font-size="10.00">Xml</text>
</a>
</g>
</g>
<!-- Node3&#45;&gt;Node11 -->
<g id="edge13" class="edge">
<title>Node3&#45;&gt;Node11</title>
<path fill="none" stroke="#9a32cd" stroke-dasharray="5,2" d="M673.85,-262.72C679.38,-259.86 685.26,-256.97 690.85,-254.5 723.42,-240.09 762.95,-226.59 784.48,-219.55"/>
<polygon fill="#9a32cd" stroke="#9a32cd" points="672.19,-259.65 664.99,-267.42 675.46,-265.83 672.19,-259.65"/>
<text text-anchor="middle" x="712.53" y="-256.5" font-family="Helvetica,sans-Serif" font-size="10.00"> name</text>
</g>
<!-- Node4 -->
<g id="node4" class="node">
<title>Node4</title>
<g id="a_node4"><a xlink:href="../../de/df7/class_str_hash.html" target="_top" xlink:title=" ">
<polygon fill="none" stroke="black" points="517.6,-267.5 517.6,-285.5 569.73,-285.5 569.73,-267.5 517.6,-267.5"/>
<text text-anchor="middle" x="543.67" y="-273.5" font-family="Helvetica,sans-Serif" font-size="10.00">StrHash</text>
</a>
</g>
</g>
<!-- Node4&#45;&gt;Node3 -->
<g id="edge3" class="edge">
<title>Node4&#45;&gt;Node3</title>
<path fill="none" stroke="#9a32cd" stroke-dasharray="5,2" d="M580.14,-276.5C595.46,-276.5 612.85,-276.5 626.05,-276.5"/>
<polygon fill="#9a32cd" stroke="#9a32cd" points="579.94,-273 569.94,-276.5 579.94,-280 579.94,-273"/>
<text text-anchor="middle" x="596.61" y="-278.5" font-family="Helvetica,sans-Serif" font-size="10.00"> SH</text>
</g>
<!-- Node5 -->
<g id="node5" class="node">
<title>Node5</title>
<g id="a_node5"><a xlink:title="STL class.">
<polygon fill="none" stroke="#bfbfbf" points="270.5,-246.5 270.5,-274.5 377.37,-274.5 377.37,-246.5 270.5,-246.5"/>
<text text-anchor="start" x="278.5" y="-262.5" font-family="Helvetica,sans-Serif" font-size="10.00">std::vector&lt; StrHash</text>
<text text-anchor="middle" x="323.93" y="-252.5" font-family="Helvetica,sans-Serif" font-size="10.00">_record &gt;</text>
</a>
</g>
</g>
<!-- Node5&#45;&gt;Node4 -->
<g id="edge4" class="edge">
<title>Node5&#45;&gt;Node4</title>
<path fill="none" stroke="midnightblue" d="M387.77,-265.12C430.9,-268.29 485.86,-272.33 517.37,-274.64"/>
<polygon fill="midnightblue" stroke="midnightblue" points="387.87,-261.62 377.64,-264.37 387.36,-268.6 387.87,-261.62"/>
</g>
<!-- Node6 -->
<g id="node6" class="node">
<title>Node6</title>
<g id="a_node6"><a xlink:title=" ">
<polygon fill="none" stroke="#bfbfbf" points="146.27,-227.5 146.27,-245.5 175.27,-245.5 175.27,-227.5 146.27,-227.5"/>
<text text-anchor="middle" x="160.77" y="-233.5" font-family="Helvetica,sans-Serif" font-size="10.00">T</text>
</a>
</g>
</g>
<!-- Node6&#45;&gt;Node5 -->
<g id="edge5" class="edge">
<title>Node6&#45;&gt;Node5</title>
<path fill="none" stroke="#9a32cd" stroke-dasharray="5,2" d="M185.68,-240.06C207.86,-243.36 241.64,-248.39 270.14,-252.64"/>
<polygon fill="#9a32cd" stroke="#9a32cd" points="185.92,-236.56 175.51,-238.55 184.89,-243.48 185.92,-236.56"/>
<text text-anchor="middle" x="230.12" y="-250.5" font-family="Helvetica,sans-Serif" font-size="10.00"> elements</text>
</g>
<!-- Node12 -->
<g id="node12" class="node">
<title>Node12</title>
<g id="a_node12"><a xlink:title="STL class.">
<polygon fill="none" stroke="#bfbfbf" points="396.07,-203.5 396.07,-231.5 499.05,-231.5 499.05,-203.5 396.07,-203.5"/>
<text text-anchor="start" x="404.07" y="-219.5" font-family="Helvetica,sans-Serif" font-size="10.00">std::vector&lt; gsl::not</text>
<text text-anchor="middle" x="447.56" y="-209.5" font-family="Helvetica,sans-Serif" font-size="10.00">_null&lt; Xml * &gt; &gt;</text>
</a>
</g>
</g>
<!-- Node6&#45;&gt;Node12 -->
<g id="edge12" class="edge">
<title>Node6&#45;&gt;Node12</title>
<path fill="none" stroke="#9a32cd" stroke-dasharray="5,2" d="M185.61,-232.46C192.92,-231.35 201,-230.24 208.45,-229.5 272.9,-223.06 347.54,-220.01 395.82,-218.61"/>
<polygon fill="#9a32cd" stroke="#9a32cd" points="184.94,-229.03 175.61,-234.06 186.04,-235.94 184.94,-229.03"/>
<text text-anchor="middle" x="230.12" y="-231.5" font-family="Helvetica,sans-Serif" font-size="10.00"> elements</text>
</g>
<!-- Node7 -->
<g id="node7" class="node">
<title>Node7</title>
<g id="a_node7"><a xlink:title=" ">
<polygon fill="none" stroke="#bfbfbf" points="269.8,-293.5 269.8,-321.5 378.07,-321.5 378.07,-293.5 269.8,-293.5"/>
<text text-anchor="start" x="277.8" y="-309.5" font-family="Helvetica,sans-Serif" font-size="10.00">std::unordered_map</text>
<text text-anchor="middle" x="323.93" y="-299.5" font-family="Helvetica,sans-Serif" font-size="10.00">&lt; std::string, size_t &gt;</text>
</a>
</g>
</g>
<!-- Node7&#45;&gt;Node4 -->
<g id="edge6" class="edge">
<title>Node7&#45;&gt;Node4</title>
<path fill="none" stroke="#9a32cd" stroke-dasharray="5,2" d="M388.32,-298.47C431.43,-292.34 486.15,-284.55 517.5,-280.08"/>
<polygon fill="#9a32cd" stroke="#9a32cd" points="387.6,-295.04 378.2,-299.92 388.59,-301.97 387.6,-295.04"/>
<text text-anchor="middle" x="447.56" y="-298.5" font-family="Helvetica,sans-Serif" font-size="10.00"> s_to_i</text>
</g>
<!-- Node8 -->
<g id="node8" class="node">
<title>Node8</title>
<g id="a_node8"><a xlink:title="STL class.">
<polygon fill="none" stroke="#bfbfbf" points="131.1,-298.5 131.1,-316.5 190.45,-316.5 190.45,-298.5 131.1,-298.5"/>
<text text-anchor="middle" x="160.77" y="-304.5" font-family="Helvetica,sans-Serif" font-size="10.00">std::string</text>
</a>
</g>
</g>
<!-- Node8&#45;&gt;Node7 -->
<g id="edge7" class="edge">
<title>Node8&#45;&gt;Node7</title>
<path fill="none" stroke="#9a32cd" stroke-dasharray="5,2" d="M200.6,-307.5C221.29,-307.5 247.07,-307.5 269.61,-307.5"/>
<polygon fill="#9a32cd" stroke="#9a32cd" points="200.58,-304 190.58,-307.5 200.58,-311 200.58,-304"/>
<text text-anchor="middle" x="230.12" y="-309.5" font-family="Helvetica,sans-Serif" font-size="10.00"> keys</text>
</g>
<!-- Node9 -->
<g id="node9" class="node">
<title>Node9</title>
<g id="a_node9"><a xlink:title="STL class.">
<polygon fill="none" stroke="#bfbfbf" points="0,-293.5 0,-321.5 94.1,-321.5 94.1,-293.5 0,-293.5"/>
<text text-anchor="start" x="8" y="-309.5" font-family="Helvetica,sans-Serif" font-size="10.00">std::basic_string&lt;</text>
<text text-anchor="middle" x="47.05" y="-299.5" font-family="Helvetica,sans-Serif" font-size="10.00"> char &gt;</text>
</a>
</g>
</g>
<!-- Node9&#45;&gt;Node8 -->
<g id="edge8" class="edge">
<title>Node9&#45;&gt;Node8</title>
<path fill="none" stroke="midnightblue" d="M104.19,-307.5C113.5,-307.5 122.8,-307.5 131.05,-307.5"/>
<polygon fill="midnightblue" stroke="midnightblue" points="104.13,-304 94.13,-307.5 104.13,-311 104.13,-304"/>
</g>
<!-- Node10 -->
<g id="node10" class="node">
<title>Node10</title>
<g id="a_node10"><a xlink:title=" ">
<polygon fill="none" stroke="#bfbfbf" points="991.53,-168.5 991.53,-186.5 1094.78,-186.5 1094.78,-168.5 991.53,-168.5"/>
<text text-anchor="middle" x="1043.15" y="-174.5" font-family="Helvetica,sans-Serif" font-size="10.00">std::vector&lt; Xml * &gt;</text>
</a>
</g>
</g>
<!-- Node10&#45;&gt;Node1 -->
<g id="edge9" class="edge">
<title>Node10&#45;&gt;Node1</title>
<path fill="none" stroke="#9a32cd" stroke-dasharray="5,2" d="M1105.29,-172.52C1143.06,-169.44 1189.99,-165.61 1220.61,-163.12"/>
<polygon fill="#9a32cd" stroke="#9a32cd" points="1104.59,-169.06 1094.9,-173.36 1105.16,-176.04 1104.59,-169.06"/>
<text text-anchor="middle" x="1162.12" y="-172.5" font-family="Helvetica,sans-Serif" font-size="10.00"> xml_math_table</text>
</g>
<!-- Node11&#45;&gt;Node10 -->
<g id="edge10" class="edge">
<title>Node11&#45;&gt;Node10</title>
<path fill="none" stroke="#9a32cd" stroke-dasharray="5,2" d="M827.99,-208.59C840.21,-205.9 855.04,-202.81 868.46,-200.5 909.68,-193.42 956.73,-187.31 991.46,-183.17"/>
<polygon fill="#9a32cd" stroke="#9a32cd" points="827.03,-205.22 818.03,-210.82 828.56,-212.05 827.03,-205.22"/>
<text text-anchor="middle" x="916.61" y="-202.5" font-family="Helvetica,sans-Serif" font-size="10.00"> elements</text>
</g>
<!-- Node15 -->
<g id="node15" class="node">
<title>Node15</title>
<g id="a_node15"><a xlink:title=" ">
<polygon fill="none" stroke="#bfbfbf" points="995.55,-121.5 995.55,-149.5 1090.76,-149.5 1090.76,-121.5 995.55,-121.5"/>
<text text-anchor="start" x="1003.55" y="-137.5" font-family="Helvetica,sans-Serif" font-size="10.00">std::array&lt; Xml *,</text>
<text text-anchor="middle" x="1043.15" y="-127.5" font-family="Helvetica,sans-Serif" font-size="10.00"> nb_simplemath &gt;</text>
</a>
</g>
</g>
<!-- Node11&#45;&gt;Node15 -->
<g id="edge17" class="edge">
<title>Node11&#45;&gt;Node15</title>
<path fill="none" stroke="#9a32cd" stroke-dasharray="5,2" d="M822.16,-199.26C834.79,-190.24 851.85,-179.29 868.46,-172.5 909.7,-155.65 959.73,-146.03 995.48,-140.85"/>
<polygon fill="#9a32cd" stroke="#9a32cd" points="819.8,-196.65 813.82,-205.39 823.95,-202.29 819.8,-196.65"/>
<text text-anchor="middle" x="916.61" y="-174.5" font-family="Helvetica,sans-Serif" font-size="10.00"> elements</text>
</g>
<!-- Node16 -->
<g id="node16" class="node">
<title>Node16</title>
<g id="a_node16"><a xlink:title=" ">
<polygon fill="none" stroke="#bfbfbf" points="996.67,-242.5 996.67,-270.5 1089.64,-270.5 1089.64,-242.5 996.67,-242.5"/>
<text text-anchor="start" x="1004.67" y="-258.5" font-family="Helvetica,sans-Serif" font-size="10.00">std::array&lt; Xml *,</text>
<text text-anchor="middle" x="1043.15" y="-248.5" font-family="Helvetica,sans-Serif" font-size="10.00"> last_math_loc &gt;</text>
</a>
</g>
</g>
<!-- Node11&#45;&gt;Node16 -->
<g id="edge19" class="edge">
<title>Node11&#45;&gt;Node16</title>
<path fill="none" stroke="#9a32cd" stroke-dasharray="5,2" d="M828.02,-220.24C840.24,-222.9 855.08,-226.01 868.46,-228.5 911.7,-236.56 961.25,-244.41 996.34,-249.74"/>
<polygon fill="#9a32cd" stroke="#9a32cd" points="828.57,-216.78 818.06,-218.05 827.07,-223.62 828.57,-216.78"/>
<text text-anchor="middle" x="916.61" y="-246.5" font-family="Helvetica,sans-Serif" font-size="10.00"> elements</text>
</g>
<!-- Node22 -->
<g id="node22" class="node">
<title>Node22</title>
<g id="a_node22"><a xlink:title=" ">
<polygon fill="none" stroke="#bfbfbf" points="985.41,-205.5 985.41,-223.5 1100.9,-223.5 1100.9,-205.5 985.41,-205.5"/>
<text text-anchor="middle" x="1043.15" y="-211.5" font-family="Helvetica,sans-Serif" font-size="10.00">std::array&lt; Xml *, 29 &gt;</text>
</a>
</g>
</g>
<!-- Node11&#45;&gt;Node22 -->
<g id="edge26" class="edge">
<title>Node11&#45;&gt;Node22</title>
<path fill="none" stroke="#9a32cd" stroke-dasharray="5,2" d="M828.12,-214.5C865.45,-214.5 935.53,-214.5 985.32,-214.5"/>
<polygon fill="#9a32cd" stroke="#9a32cd" points="828.07,-211 818.07,-214.5 828.07,-218 828.07,-211"/>
<text text-anchor="middle" x="916.61" y="-216.5" font-family="Helvetica,sans-Serif" font-size="10.00"> elements</text>
</g>
<!-- Node12&#45;&gt;Node11 -->
<g id="edge11" class="edge">
<title>Node12&#45;&gt;Node11</title>
<path fill="none" stroke="midnightblue" d="M509.41,-216.98C592.6,-216.27 736.92,-215.04 784.57,-214.63"/>
<polygon fill="midnightblue" stroke="midnightblue" points="509.3,-213.48 499.33,-217.07 509.36,-220.48 509.3,-213.48"/>
</g>
<!-- Node13 -->
<g id="node13" class="node">
<title>Node13</title>
<g id="a_node13"><a xlink:href="../../de/d3f/class_xid.html" target="_top" xlink:title=" ">
<polygon fill="none" stroke="black" points="632.67,-170.5 632.67,-188.5 663.13,-188.5 663.13,-170.5 632.67,-170.5"/>
<text text-anchor="middle" x="647.9" y="-176.5" font-family="Helvetica,sans-Serif" font-size="10.00">Xid</text>
</a>
</g>
</g>
<!-- Node13&#45;&gt;Node11 -->
<g id="edge14" class="edge">
<title>Node13&#45;&gt;Node11</title>
<path fill="none" stroke="#9a32cd" stroke-dasharray="5,2" d="M673.49,-182.57C690.64,-184.95 713.97,-188.65 734.21,-193.5 751.66,-197.68 771.2,-204.11 784.48,-208.75"/>
<polygon fill="#9a32cd" stroke="#9a32cd" points="673.59,-179.06 663.21,-181.2 672.66,-185.99 673.59,-179.06"/>
<text text-anchor="middle" x="712.53" y="-195.5" font-family="Helvetica,sans-Serif" font-size="10.00"> id</text>
</g>
<!-- Node14 -->
<g id="node14" class="node">
<title>Node14</title>
<g id="a_node14"><a xlink:href="../../d9/d27/struct_token.html" target="_top" xlink:title=" ">
<polygon fill="none" stroke="black" points="1021.81,-84.5 1021.81,-102.5 1064.5,-102.5 1064.5,-84.5 1021.81,-84.5"/>
<text text-anchor="middle" x="1043.15" y="-90.5" font-family="Helvetica,sans-Serif" font-size="10.00">Token</text>
</a>
</g>
</g>
<!-- Node14&#45;&gt;Node1 -->
<g id="edge15" class="edge">
<title>Node14&#45;&gt;Node1</title>
<path fill="none" stroke="#9a32cd" stroke-dasharray="5,2" d="M1075.08,-93.2C1108.12,-93.99 1161.32,-98.52 1202.69,-117.5 1219.97,-125.43 1235.87,-141.15 1244.91,-151.23"/>
<polygon fill="#9a32cd" stroke="#9a32cd" points="1074.74,-89.7 1064.69,-93.06 1074.64,-96.7 1074.74,-89.7"/>
<text text-anchor="middle" x="1162.12" y="-129.5" font-family="Helvetica,sans-Serif" font-size="10.00"> nomathsw0</text>
<text text-anchor="middle" x="1162.12" y="-119.5" font-family="Helvetica,sans-Serif" font-size="10.00">nomathsw1</text>
</g>
<!-- Node15&#45;&gt;Node1 -->
<g id="edge16" class="edge">
<title>Node15&#45;&gt;Node1</title>
<path fill="none" stroke="#9a32cd" stroke-dasharray="5,2" d="M1100.76,-139.43C1131.08,-141.9 1169.02,-145.55 1202.69,-150.5 1208.47,-151.35 1214.6,-152.43 1220.5,-153.55"/>
<polygon fill="#9a32cd" stroke="#9a32cd" points="1101.03,-135.94 1090.78,-138.64 1100.48,-142.92 1101.03,-135.94"/>
<text text-anchor="middle" x="1162.12" y="-152.5" font-family="Helvetica,sans-Serif" font-size="10.00"> simplemath_table</text>
</g>
<!-- Node16&#45;&gt;Node1 -->
<g id="edge18" class="edge">
<title>Node16&#45;&gt;Node1</title>
<path fill="none" stroke="#9a32cd" stroke-dasharray="5,2" d="M1099.73,-251.2C1131.69,-246.18 1171.54,-236.42 1202.69,-217.5 1222.72,-205.33 1239.07,-182.53 1247.18,-169.76"/>
<polygon fill="#9a32cd" stroke="#9a32cd" points="1099.04,-247.76 1089.65,-252.67 1100.05,-254.69 1099.04,-247.76"/>
<text text-anchor="middle" x="1162.12" y="-258.5" font-family="Helvetica,sans-Serif" font-size="10.00"> built_in_table</text>
<text text-anchor="middle" x="1162.12" y="-248.5" font-family="Helvetica,sans-Serif" font-size="10.00">built_in_table_alt</text>
</g>
<!-- Node17 -->
<g id="node17" class="node">
<title>Node17</title>
<g id="a_node17"><a xlink:title=" ">
<polygon fill="none" stroke="#bfbfbf" points="982.77,-37.5 982.77,-65.5 1103.54,-65.5 1103.54,-37.5 982.77,-37.5"/>
<text text-anchor="start" x="990.77" y="-53.5" font-family="Helvetica,sans-Serif" font-size="10.00">std::array&lt; math_types,</text>
<text text-anchor="middle" x="1043.15" y="-43.5" font-family="Helvetica,sans-Serif" font-size="10.00"> nb_mathchars &gt;</text>
</a>
</g>
</g>
<!-- Node17&#45;&gt;Node1 -->
<g id="edge20" class="edge">
<title>Node17&#45;&gt;Node1</title>
<path fill="none" stroke="#9a32cd" stroke-dasharray="5,2" d="M1114.05,-53.19C1143.5,-56.8 1176.86,-64.94 1202.69,-82.5 1228.1,-99.77 1243.44,-134.69 1249.58,-151.31"/>
<polygon fill="#9a32cd" stroke="#9a32cd" points="1114.13,-49.68 1103.81,-52.1 1113.38,-56.64 1114.13,-49.68"/>
<text text-anchor="middle" x="1162.12" y="-84.5" font-family="Helvetica,sans-Serif" font-size="10.00"> math_char_type</text>
</g>
<!-- Node18 -->
<g id="node18" class="node">
<title>Node18</title>
<g id="a_node18"><a xlink:href="../../d4/d34/class_math.html" target="_top" xlink:title=" ">
<polygon fill="none" stroke="black" points="1024.04,-0.5 1024.04,-18.5 1062.27,-18.5 1062.27,-0.5 1024.04,-0.5"/>
<text text-anchor="middle" x="1043.15" y="-6.5" font-family="Helvetica,sans-Serif" font-size="10.00">Math</text>
</a>
</g>
</g>
<!-- Node18&#45;&gt;Node1 -->
<g id="edge21" class="edge">
<title>Node18&#45;&gt;Node1</title>
<path fill="none" stroke="#9a32cd" stroke-dasharray="5,2" d="M1072.7,-7.45C1107.29,-6.53 1165.54,-10.18 1202.69,-40.5 1238.36,-69.61 1248.94,-128.53 1251.77,-151.26"/>
<polygon fill="#9a32cd" stroke="#9a32cd" points="1072.2,-3.97 1062.35,-7.89 1072.49,-10.97 1072.2,-3.97"/>
<text text-anchor="middle" x="1162.12" y="-42.5" font-family="Helvetica,sans-Serif" font-size="10.00"> math_table</text>
</g>
<!-- Node19 -->
<g id="node19" class="node">
<title>Node19</title>
<g id="a_node19"><a xlink:title=" ">
<polygon fill="none" stroke="#bfbfbf" points="752.21,-0.5 752.21,-18.5 850.46,-18.5 850.46,-0.5 752.21,-0.5"/>
<text text-anchor="middle" x="801.33" y="-6.5" font-family="Helvetica,sans-Serif" font-size="10.00">std::list&lt; MathElt &gt;</text>
</a>
</g>
</g>
<!-- Node19&#45;&gt;Node18 -->
<g id="edge22" class="edge">
<title>Node19&#45;&gt;Node18</title>
<path fill="none" stroke="#9a32cd" stroke-dasharray="5,2" d="M860.58,-9.5C913.83,-9.5 989.37,-9.5 1023.79,-9.5"/>
<polygon fill="#9a32cd" stroke="#9a32cd" points="860.58,-6 850.58,-9.5 860.58,-13 860.58,-6"/>
<text text-anchor="middle" x="916.61" y="-11.5" font-family="Helvetica,sans-Serif" font-size="10.00"> value</text>
</g>
<!-- Node20 -->
<g id="node20" class="node">
<title>Node20</title>
<g id="a_node20"><a xlink:href="../../d2/da0/class_math_elt.html" target="_top" xlink:title=" ">
<polygon fill="none" stroke="black" points="622.95,-0.5 622.95,-18.5 672.85,-18.5 672.85,-0.5 622.95,-0.5"/>
<text text-anchor="middle" x="647.9" y="-6.5" font-family="Helvetica,sans-Serif" font-size="10.00">MathElt</text>
</a>
</g>
</g>
<!-- Node20&#45;&gt;Node19 -->
<g id="edge23" class="edge">
<title>Node20&#45;&gt;Node19</title>
<path fill="none" stroke="#9a32cd" stroke-dasharray="5,2" d="M682.96,-9.5C703.33,-9.5 729.53,-9.5 752,-9.5"/>
<polygon fill="#9a32cd" stroke="#9a32cd" points="682.89,-6 672.89,-9.5 682.89,-13 682.89,-6"/>
<text text-anchor="middle" x="712.53" y="-11.5" font-family="Helvetica,sans-Serif" font-size="10.00"> elements</text>
</g>
<!-- Node21 -->
<g id="node21" class="node">
<title>Node21</title>
<g id="a_node21"><a xlink:href="../../de/d72/class_cmd_chr.html" target="_top" xlink:title=" ">
<polygon fill="none" stroke="black" points="517.05,-0.5 517.05,-18.5 570.28,-18.5 570.28,-0.5 517.05,-0.5"/>
<text text-anchor="middle" x="543.67" y="-6.5" font-family="Helvetica,sans-Serif" font-size="10.00">CmdChr</text>
</a>
</g>
</g>
<!-- Node21&#45;&gt;Node20 -->
<g id="edge24" class="edge">
<title>Node21&#45;&gt;Node20</title>
<path fill="none" stroke="#9a32cd" stroke-dasharray="5,2" d="M580.74,-9.5C594.71,-9.5 610.32,-9.5 622.87,-9.5"/>
<polygon fill="#9a32cd" stroke="#9a32cd" points="580.46,-6 570.46,-9.5 580.46,-13 580.46,-6"/>
<text text-anchor="middle" x="596.61" y="-11.5" font-family="Helvetica,sans-Serif" font-size="10.00"> val</text>
</g>
<!-- Node22&#45;&gt;Node1 -->
<g id="edge25" class="edge">
<title>Node22&#45;&gt;Node1</title>
<path fill="none" stroke="#9a32cd" stroke-dasharray="5,2" d="M1111.1,-205.8C1139.74,-201.06 1173.29,-194.15 1202.69,-184.5 1214.4,-180.65 1226.91,-174.65 1236.48,-169.62"/>
<polygon fill="#9a32cd" stroke="#9a32cd" points="1110.51,-202.35 1101.19,-207.38 1111.61,-209.26 1110.51,-202.35"/>
<text text-anchor="middle" x="1162.12" y="-205.5" font-family="Helvetica,sans-Serif" font-size="10.00"> mc_table</text>
</g>
</g>
</svg>
