<?xml version="1.0" encoding="UTF-8" standalone="no"?>
<!DOCTYPE svg PUBLIC "-//W3C//DTD SVG 1.1//EN"
 "http://www.w3.org/Graphics/SVG/1.1/DTD/svg11.dtd">
<!-- Generated by graphviz version 2.43.0 (0)
 -->
<!-- Title: globals.C Pages: 1 -->
<svg width="767pt" height="687pt"
 viewBox="0.00 0.00 767.18 687.00" xmlns="http://www.w3.org/2000/svg" xmlns:xlink="http://www.w3.org/1999/xlink">
<g id="graph0" class="graph" transform="scale(1 1) rotate(0) translate(4 683)">
<title>globals.C</title>
<polygon fill="white" stroke="transparent" points="-4,4 -4,-683 763.18,-683 763.18,4 -4,4"/>
<!-- Node1 -->
<g id="node1" class="node">
<title>Node1</title>
<g id="a_node1"><a xlink:title=" ">
<polygon fill="#bfbfbf" stroke="black" points="216.67,-660.5 216.67,-678.5 274.36,-678.5 274.36,-660.5 216.67,-660.5"/>
<text text-anchor="middle" x="245.51" y="-666.5" font-family="Helvetica,sans-Serif" font-size="10.00">globals.C</text>
</a>
</g>
</g>
<!-- Node2 -->
<g id="node2" class="node">
<title>Node2</title>
<g id="a_node2"><a xlink:href="../../d5/d87/globals_8h.html" target="_top" xlink:title=" ">
<polygon fill="white" stroke="black" points="46.05,-385.5 46.05,-403.5 130.97,-403.5 130.97,-385.5 46.05,-385.5"/>
<text text-anchor="middle" x="88.51" y="-391.5" font-family="Helvetica,sans-Serif" font-size="10.00">tralics/globals.h</text>
</a>
</g>
</g>
<!-- Node1&#45;&gt;Node2 -->
<g id="edge1" class="edge">
<title>Node1&#45;&gt;Node2</title>
<path fill="none" stroke="midnightblue" d="M216.55,-662.97C169.95,-652.2 83.51,-623.71 83.51,-560.5 83.51,-560.5 83.51,-560.5 83.51,-503.5 83.51,-471.98 85.66,-435.35 87.14,-413.87"/>
<polygon fill="midnightblue" stroke="midnightblue" points="90.65,-413.85 87.88,-403.62 83.67,-413.35 90.65,-413.85"/>
</g>
<!-- Node12 -->
<g id="node12" class="node">
<title>Node12</title>
<g id="a_node12"><a xlink:href="../../d7/d79/txinline_8h.html" target="_top" xlink:title=" ">
<polygon fill="white" stroke="black" points="232.78,-605.5 232.78,-623.5 288.25,-623.5 288.25,-605.5 232.78,-605.5"/>
<text text-anchor="middle" x="260.51" y="-611.5" font-family="Helvetica,sans-Serif" font-size="10.00">txinline.h</text>
</a>
</g>
</g>
<!-- Node1&#45;&gt;Node12 -->
<g id="edge12" class="edge">
<title>Node1&#45;&gt;Node12</title>
<path fill="none" stroke="midnightblue" d="M247.86,-660.22C249.89,-653.02 252.91,-642.35 255.49,-633.23"/>
<polygon fill="midnightblue" stroke="midnightblue" points="258.88,-634.12 258.23,-623.55 252.14,-632.22 258.88,-634.12"/>
</g>
<!-- Node27 -->
<g id="node27" class="node">
<title>Node27</title>
<g id="a_node27"><a xlink:href="../../d2/d06/txlogger_8h.html" target="_top" xlink:title=" ">
<polygon fill="white" stroke="black" points="143.83,-550.5 143.83,-568.5 203.2,-568.5 203.2,-550.5 143.83,-550.5"/>
<text text-anchor="middle" x="173.51" y="-556.5" font-family="Helvetica,sans-Serif" font-size="10.00">txlogger.h</text>
</a>
</g>
</g>
<!-- Node1&#45;&gt;Node27 -->
<g id="edge41" class="edge">
<title>Node1&#45;&gt;Node27</title>
<path fill="none" stroke="midnightblue" d="M240.1,-660.38C228.37,-642.79 200.41,-600.85 184.71,-577.29"/>
<polygon fill="midnightblue" stroke="midnightblue" points="187.45,-575.09 178.99,-568.71 181.62,-578.97 187.45,-575.09"/>
</g>
<!-- Node30 -->
<g id="node30" class="node">
<title>Node30</title>
<g id="a_node30"><a xlink:href="../../d2/d1b/txparser_8h.html" target="_top" xlink:title=" ">
<polygon fill="white" stroke="black" points="500.55,-605.5 500.55,-623.5 560.47,-623.5 560.47,-605.5 500.55,-605.5"/>
<text text-anchor="middle" x="530.51" y="-611.5" font-family="Helvetica,sans-Serif" font-size="10.00">txparser.h</text>
</a>
</g>
</g>
<!-- Node1&#45;&gt;Node30 -->
<g id="edge42" class="edge">
<title>Node1&#45;&gt;Node30</title>
<path fill="none" stroke="midnightblue" d="M274.41,-663.13C325.54,-653.62 432.04,-633.81 490.3,-622.98"/>
<polygon fill="midnightblue" stroke="midnightblue" points="491.06,-626.4 500.25,-621.13 489.78,-619.51 491.06,-626.4"/>
</g>
<!-- Node3 -->
<g id="node3" class="node">
<title>Node3</title>
<g id="a_node3"><a xlink:href="../../dc/de8/txvars_8h.html" target="_top" xlink:title=" ">
<polygon fill="white" stroke="black" points="183.84,-220.5 183.84,-238.5 243.18,-238.5 243.18,-220.5 183.84,-220.5"/>
<text text-anchor="middle" x="213.51" y="-226.5" font-family="Helvetica,sans-Serif" font-size="10.00">../txvars.h</text>
</a>
</g>
</g>
<!-- Node2&#45;&gt;Node3 -->
<g id="edge2" class="edge">
<title>Node2&#45;&gt;Node3</title>
<path fill="none" stroke="midnightblue" d="M100.64,-385.44C122.63,-370.21 169.16,-335 194.51,-294 203.12,-280.08 208.03,-262.04 210.69,-248.74"/>
<polygon fill="midnightblue" stroke="midnightblue" points="214.14,-249.34 212.43,-238.89 207.24,-248.12 214.14,-249.34"/>
</g>
<!-- Node8 -->
<g id="node8" class="node">
<title>Node8</title>
<g id="a_node8"><a xlink:href="../../d8/d47/codepoint_8h.html" target="_top" xlink:title=" ">
<polygon fill="white" stroke="black" points="207.66,-110.5 207.66,-128.5 275.37,-128.5 275.37,-110.5 207.66,-110.5"/>
<text text-anchor="middle" x="241.51" y="-116.5" font-family="Helvetica,sans-Serif" font-size="10.00">codepoint.h</text>
</a>
</g>
</g>
<!-- Node2&#45;&gt;Node8 -->
<g id="edge7" class="edge">
<title>Node2&#45;&gt;Node8</title>
<path fill="none" stroke="midnightblue" d="M87.37,-385.39C84.95,-367.43 79.51,-322.94 79.51,-285.5 79.51,-285.5 79.51,-285.5 79.51,-228.5 79.51,-171.54 149.71,-142.77 197.68,-129.76"/>
<polygon fill="midnightblue" stroke="midnightblue" points="198.74,-133.1 207.55,-127.22 196.99,-126.32 198.74,-133.1"/>
</g>
<!-- Node9 -->
<g id="node9" class="node">
<title>Node9</title>
<g id="a_node9"><a xlink:title=" ">
<polygon fill="white" stroke="#bfbfbf" points="129.29,-165.5 129.29,-183.5 169.74,-183.5 169.74,-165.5 129.29,-165.5"/>
<text text-anchor="middle" x="149.51" y="-171.5" font-family="Helvetica,sans-Serif" font-size="10.00">string</text>
</a>
</g>
</g>
<!-- Node2&#45;&gt;Node9 -->
<g id="edge9" class="edge">
<title>Node2&#45;&gt;Node9</title>
<path fill="none" stroke="midnightblue" d="M90.76,-385.48C99.55,-354.04 131.84,-238.67 144.43,-193.66"/>
<polygon fill="midnightblue" stroke="midnightblue" points="147.86,-194.4 147.18,-183.82 141.12,-192.51 147.86,-194.4"/>
</g>
<!-- Node10 -->
<g id="node10" class="node">
<title>Node10</title>
<g id="a_node10"><a xlink:title=" ">
<polygon fill="white" stroke="#bfbfbf" points="231.9,-330.5 231.9,-348.5 275.13,-348.5 275.13,-330.5 231.9,-330.5"/>
<text text-anchor="middle" x="253.51" y="-336.5" font-family="Helvetica,sans-Serif" font-size="10.00">vector</text>
</a>
</g>
</g>
<!-- Node2&#45;&gt;Node10 -->
<g id="edge10" class="edge">
<title>Node2&#45;&gt;Node10</title>
<path fill="none" stroke="midnightblue" d="M113.57,-385.45C142.61,-376.12 190.51,-360.74 222.03,-350.61"/>
<polygon fill="midnightblue" stroke="midnightblue" points="223.2,-353.91 231.65,-347.52 221.06,-347.25 223.2,-353.91"/>
</g>
<!-- Node11 -->
<g id="node11" class="node">
<title>Node11</title>
<g id="a_node11"><a xlink:title=" ">
<polygon fill="white" stroke="#bfbfbf" points="0,-330.5 0,-348.5 51.02,-348.5 51.02,-330.5 0,-330.5"/>
<text text-anchor="middle" x="25.51" y="-336.5" font-family="Helvetica,sans-Serif" font-size="10.00">unistd.h</text>
</a>
</g>
</g>
<!-- Node2&#45;&gt;Node11 -->
<g id="edge11" class="edge">
<title>Node2&#45;&gt;Node11</title>
<path fill="none" stroke="midnightblue" d="M78.94,-385.45C69.42,-377.43 54.57,-364.95 42.95,-355.17"/>
<polygon fill="midnightblue" stroke="midnightblue" points="45.08,-352.38 35.17,-348.63 40.57,-357.74 45.08,-352.38"/>
</g>
<!-- Node4 -->
<g id="node4" class="node">
<title>Node4</title>
<g id="a_node4"><a xlink:href="../../d0/d0b/enums_8h.html" target="_top" xlink:title=" ">
<polygon fill="white" stroke="black" points="292.89,-110.5 292.89,-128.5 376.14,-128.5 376.14,-110.5 292.89,-110.5"/>
<text text-anchor="middle" x="334.51" y="-116.5" font-family="Helvetica,sans-Serif" font-size="10.00">tralics/enums.h</text>
</a>
</g>
</g>
<!-- Node3&#45;&gt;Node4 -->
<g id="edge3" class="edge">
<title>Node3&#45;&gt;Node4</title>
<path fill="none" stroke="midnightblue" d="M243.46,-222.61C266.26,-216.62 296.81,-205.11 315.51,-184 326.6,-171.48 331.22,-152.72 333.15,-138.83"/>
<polygon fill="midnightblue" stroke="midnightblue" points="336.66,-138.86 334.21,-128.55 329.7,-138.14 336.66,-138.86"/>
</g>
<!-- Node7 -->
<g id="node7" class="node">
<title>Node7</title>
<g id="a_node7"><a xlink:title=" ">
<polygon fill="white" stroke="#bfbfbf" points="188.12,-165.5 188.12,-183.5 226.9,-183.5 226.9,-165.5 188.12,-165.5"/>
<text text-anchor="middle" x="207.51" y="-171.5" font-family="Helvetica,sans-Serif" font-size="10.00">array</text>
</a>
</g>
</g>
<!-- Node3&#45;&gt;Node7 -->
<g id="edge6" class="edge">
<title>Node3&#45;&gt;Node7</title>
<path fill="none" stroke="midnightblue" d="M212.57,-220.22C211.77,-213.1 210.58,-202.58 209.55,-193.53"/>
<polygon fill="midnightblue" stroke="midnightblue" points="213.03,-193.09 208.42,-183.55 206.07,-193.88 213.03,-193.09"/>
</g>
<!-- Node5 -->
<g id="node5" class="node">
<title>Node5</title>
<g id="a_node5"><a xlink:href="../../d8/db5/consts_8h.html" target="_top" xlink:title=" ">
<polygon fill="white" stroke="black" points="297.89,-55.5 297.89,-73.5 351.13,-73.5 351.13,-55.5 297.89,-55.5"/>
<text text-anchor="middle" x="324.51" y="-61.5" font-family="Helvetica,sans-Serif" font-size="10.00">consts.h</text>
</a>
</g>
</g>
<!-- Node4&#45;&gt;Node5 -->
<g id="edge4" class="edge">
<title>Node4&#45;&gt;Node5</title>
<path fill="none" stroke="midnightblue" d="M332.95,-110.22C331.61,-103.1 329.62,-92.58 327.91,-83.53"/>
<polygon fill="midnightblue" stroke="midnightblue" points="331.32,-82.73 326.03,-73.55 324.45,-84.03 331.32,-82.73"/>
</g>
<!-- Node6 -->
<g id="node6" class="node">
<title>Node6</title>
<g id="a_node6"><a xlink:href="../../d9/d49/types_8h.html" target="_top" xlink:title=" ">
<polygon fill="white" stroke="black" points="263.39,-0.5 263.39,-18.5 311.63,-18.5 311.63,-0.5 263.39,-0.5"/>
<text text-anchor="middle" x="287.51" y="-6.5" font-family="Helvetica,sans-Serif" font-size="10.00">types.h</text>
</a>
</g>
</g>
<!-- Node5&#45;&gt;Node6 -->
<g id="edge5" class="edge">
<title>Node5&#45;&gt;Node6</title>
<path fill="none" stroke="midnightblue" d="M318.73,-55.22C313.43,-47.63 305.44,-36.18 298.86,-26.76"/>
<polygon fill="midnightblue" stroke="midnightblue" points="301.73,-24.75 293.13,-18.55 295.99,-28.75 301.73,-24.75"/>
</g>
<!-- Node8&#45;&gt;Node6 -->
<g id="edge8" class="edge">
<title>Node8&#45;&gt;Node6</title>
<path fill="none" stroke="midnightblue" d="M244.97,-110.38C252.4,-92.95 270.01,-51.59 280.09,-27.92"/>
<polygon fill="midnightblue" stroke="midnightblue" points="283.32,-29.28 284.01,-18.71 276.88,-26.54 283.32,-29.28"/>
</g>
<!-- Node13 -->
<g id="node13" class="node">
<title>Node13</title>
<g id="a_node13"><a xlink:href="../../d4/de9/_main_class_8h.html" target="_top" xlink:title=" ">
<polygon fill="white" stroke="black" points="375.56,-550.5 375.56,-568.5 475.47,-568.5 475.47,-550.5 375.56,-550.5"/>
<text text-anchor="middle" x="425.51" y="-556.5" font-family="Helvetica,sans-Serif" font-size="10.00">tralics/MainClass.h</text>
</a>
</g>
</g>
<!-- Node12&#45;&gt;Node13 -->
<g id="edge13" class="edge">
<title>Node12&#45;&gt;Node13</title>
<path fill="none" stroke="midnightblue" d="M285.57,-605.45C313.64,-596.44 359.31,-581.77 390.8,-571.65"/>
<polygon fill="midnightblue" stroke="midnightblue" points="392.04,-574.93 400.49,-568.54 389.9,-568.26 392.04,-574.93"/>
</g>
<!-- Node12&#45;&gt;Node27 -->
<g id="edge36" class="edge">
<title>Node12&#45;&gt;Node27</title>
<path fill="none" stroke="midnightblue" d="M247.3,-605.45C233.63,-597.12 212.04,-583.97 195.74,-574.04"/>
<polygon fill="midnightblue" stroke="midnightblue" points="197.21,-570.84 186.85,-568.63 193.57,-576.82 197.21,-570.84"/>
</g>
<!-- Node29 -->
<g id="node29" class="node">
<title>Node29</title>
<g id="a_node29"><a xlink:href="../../d5/d08/txparam_8h.html" target="_top" xlink:title=" ">
<polygon fill="white" stroke="black" points="259.28,-550.5 259.28,-568.5 319.74,-568.5 319.74,-550.5 259.28,-550.5"/>
<text text-anchor="middle" x="289.51" y="-556.5" font-family="Helvetica,sans-Serif" font-size="10.00">txparam.h</text>
</a>
</g>
</g>
<!-- Node12&#45;&gt;Node29 -->
<g id="edge39" class="edge">
<title>Node12&#45;&gt;Node29</title>
<path fill="none" stroke="midnightblue" d="M265.04,-605.22C269.11,-597.79 275.21,-586.65 280.3,-577.34"/>
<polygon fill="midnightblue" stroke="midnightblue" points="283.38,-579 285.11,-568.55 277.24,-575.64 283.38,-579"/>
</g>
<!-- Node14 -->
<g id="node14" class="node">
<title>Node14</title>
<g id="a_node14"><a xlink:href="../../de/d29/txio_8h.html" target="_top" xlink:title=" ">
<polygon fill="white" stroke="black" points="323.39,-495.5 323.39,-513.5 371.63,-513.5 371.63,-495.5 323.39,-495.5"/>
<text text-anchor="middle" x="347.51" y="-501.5" font-family="Helvetica,sans-Serif" font-size="10.00">../txio.h</text>
</a>
</g>
</g>
<!-- Node13&#45;&gt;Node14 -->
<g id="edge14" class="edge">
<title>Node13&#45;&gt;Node14</title>
<path fill="none" stroke="midnightblue" d="M413.67,-550.45C401.52,-542.2 382.41,-529.22 367.85,-519.32"/>
<polygon fill="midnightblue" stroke="midnightblue" points="369.71,-516.35 359.47,-513.63 365.77,-522.14 369.71,-516.35"/>
</g>
<!-- Node26 -->
<g id="node26" class="node">
<title>Node26</title>
<g id="a_node26"><a xlink:href="../../dc/def/txstring_8h.html" target="_top" xlink:title=" ">
<polygon fill="white" stroke="black" points="469.06,-440.5 469.06,-458.5 533.97,-458.5 533.97,-440.5 469.06,-440.5"/>
<text text-anchor="middle" x="501.51" y="-446.5" font-family="Helvetica,sans-Serif" font-size="10.00">../txstring.h</text>
</a>
</g>
</g>
<!-- Node13&#45;&gt;Node26 -->
<g id="edge34" class="edge">
<title>Node13&#45;&gt;Node26</title>
<path fill="none" stroke="midnightblue" d="M430.15,-550.48C437.32,-538.24 451.71,-514.28 465.51,-495 472.47,-485.28 480.83,-474.88 487.74,-466.57"/>
<polygon fill="midnightblue" stroke="midnightblue" points="490.53,-468.7 494.3,-458.8 485.18,-464.18 490.53,-468.7"/>
</g>
<!-- Node15 -->
<g id="node15" class="node">
<title>Node15</title>
<g id="a_node15"><a xlink:href="../../dd/d74/txbuffer_8h.html" target="_top" xlink:title=" ">
<polygon fill="white" stroke="black" points="326.03,-385.5 326.03,-403.5 383,-403.5 383,-385.5 326.03,-385.5"/>
<text text-anchor="middle" x="354.51" y="-391.5" font-family="Helvetica,sans-Serif" font-size="10.00">txbuffer.h</text>
</a>
</g>
</g>
<!-- Node14&#45;&gt;Node15 -->
<g id="edge15" class="edge">
<title>Node14&#45;&gt;Node15</title>
<path fill="none" stroke="midnightblue" d="M348.04,-495.38C349.15,-478.18 351.78,-437.7 353.32,-413.89"/>
<polygon fill="midnightblue" stroke="midnightblue" points="356.83,-413.92 353.98,-403.71 349.84,-413.46 356.83,-413.92"/>
</g>
<!-- Node25 -->
<g id="node25" class="node">
<title>Node25</title>
<g id="a_node25"><a xlink:title=" ">
<polygon fill="white" stroke="#bfbfbf" points="276.84,-440.5 276.84,-458.5 326.18,-458.5 326.18,-440.5 276.84,-440.5"/>
<text text-anchor="middle" x="301.51" y="-446.5" font-family="Helvetica,sans-Serif" font-size="10.00">fstream</text>
</a>
</g>
</g>
<!-- Node14&#45;&gt;Node25 -->
<g id="edge33" class="edge">
<title>Node14&#45;&gt;Node25</title>
<path fill="none" stroke="midnightblue" d="M340.32,-495.22C333.6,-487.47 323.39,-475.7 315.12,-466.18"/>
<polygon fill="midnightblue" stroke="midnightblue" points="317.7,-463.81 308.5,-458.55 312.41,-468.4 317.7,-463.81"/>
</g>
<!-- Node15&#45;&gt;Node10 -->
<g id="edge32" class="edge">
<title>Node15&#45;&gt;Node10</title>
<path fill="none" stroke="midnightblue" d="M339.17,-385.45C322.93,-376.93 297.06,-363.35 278,-353.35"/>
<polygon fill="midnightblue" stroke="midnightblue" points="279.48,-350.17 269,-348.63 276.22,-356.37 279.48,-350.17"/>
</g>
<!-- Node16 -->
<g id="node16" class="node">
<title>Node16</title>
<g id="a_node16"><a xlink:href="../../d1/d9e/txid_8h.html" target="_top" xlink:title=" ">
<polygon fill="white" stroke="black" points="145.56,-275.5 145.56,-293.5 185.46,-293.5 185.46,-275.5 145.56,-275.5"/>
<text text-anchor="middle" x="165.51" y="-281.5" font-family="Helvetica,sans-Serif" font-size="10.00">txid.h</text>
</a>
</g>
</g>
<!-- Node15&#45;&gt;Node16 -->
<g id="edge16" class="edge">
<title>Node15&#45;&gt;Node16</title>
<path fill="none" stroke="midnightblue" d="M347.52,-385.42C335.72,-372.21 310.57,-345.88 284.51,-330 256.2,-312.75 220.12,-300.42 195.15,-293.17"/>
<polygon fill="midnightblue" stroke="midnightblue" points="196.08,-289.8 185.51,-290.47 194.19,-296.54 196.08,-289.8"/>
</g>
<!-- Node17 -->
<g id="node17" class="node">
<title>Node17</title>
<g id="a_node17"><a xlink:href="../../d9/d18/txscaled_8h.html" target="_top" xlink:title=" ">
<polygon fill="white" stroke="black" points="395,-330.5 395,-348.5 456.02,-348.5 456.02,-330.5 395,-330.5"/>
<text text-anchor="middle" x="425.51" y="-336.5" font-family="Helvetica,sans-Serif" font-size="10.00">txscaled.h</text>
</a>
</g>
</g>
<!-- Node15&#45;&gt;Node17 -->
<g id="edge19" class="edge">
<title>Node15&#45;&gt;Node17</title>
<path fill="none" stroke="midnightblue" d="M365.3,-385.45C376.14,-377.36 393.09,-364.7 406.25,-354.88"/>
<polygon fill="midnightblue" stroke="midnightblue" points="408.71,-357.41 414.63,-348.63 404.52,-351.8 408.71,-357.41"/>
</g>
<!-- Node24 -->
<g id="node24" class="node">
<title>Node24</title>
<g id="a_node24"><a xlink:title=" ">
<polygon fill="white" stroke="#bfbfbf" points="331.79,-330.5 331.79,-348.5 377.24,-348.5 377.24,-330.5 331.79,-330.5"/>
<text text-anchor="middle" x="354.51" y="-336.5" font-family="Helvetica,sans-Serif" font-size="10.00">cstring</text>
</a>
</g>
</g>
<!-- Node15&#45;&gt;Node24 -->
<g id="edge31" class="edge">
<title>Node15&#45;&gt;Node24</title>
<path fill="none" stroke="midnightblue" d="M354.51,-385.22C354.51,-378.18 354.51,-367.81 354.51,-358.83"/>
<polygon fill="midnightblue" stroke="midnightblue" points="358.01,-358.55 354.51,-348.55 351.01,-358.55 358.01,-358.55"/>
</g>
<!-- Node16&#45;&gt;Node3 -->
<g id="edge17" class="edge">
<title>Node16&#45;&gt;Node3</title>
<path fill="none" stroke="midnightblue" d="M173.01,-275.22C180.03,-267.47 190.69,-255.7 199.31,-246.18"/>
<polygon fill="midnightblue" stroke="midnightblue" points="202.1,-248.31 206.22,-238.55 196.91,-243.61 202.1,-248.31"/>
</g>
<!-- Node16&#45;&gt;Node9 -->
<g id="edge18" class="edge">
<title>Node16&#45;&gt;Node9</title>
<path fill="none" stroke="midnightblue" d="M164.31,-275.38C161.76,-258.18 155.76,-217.7 152.24,-193.89"/>
<polygon fill="midnightblue" stroke="midnightblue" points="155.66,-193.09 150.73,-183.71 148.73,-194.12 155.66,-193.09"/>
</g>
<!-- Node18 -->
<g id="node18" class="node">
<title>Node18</title>
<g id="a_node18"><a xlink:href="../../dc/d91/txtokenlist_8h.html" target="_top" xlink:title=" ">
<polygon fill="white" stroke="black" points="376.11,-275.5 376.11,-293.5 444.91,-293.5 444.91,-275.5 376.11,-275.5"/>
<text text-anchor="middle" x="410.51" y="-281.5" font-family="Helvetica,sans-Serif" font-size="10.00">txtokenlist.h</text>
</a>
</g>
</g>
<!-- Node17&#45;&gt;Node18 -->
<g id="edge20" class="edge">
<title>Node17&#45;&gt;Node18</title>
<path fill="none" stroke="midnightblue" d="M423.17,-330.22C421.13,-323.02 418.11,-312.35 415.53,-303.23"/>
<polygon fill="midnightblue" stroke="midnightblue" points="418.88,-302.22 412.79,-293.55 412.15,-304.12 418.88,-302.22"/>
</g>
<!-- Node18&#45;&gt;Node3 -->
<g id="edge29" class="edge">
<title>Node18&#45;&gt;Node3</title>
<path fill="none" stroke="midnightblue" d="M380.59,-275.45C346.65,-266.32 291.13,-251.38 253.5,-241.26"/>
<polygon fill="midnightblue" stroke="midnightblue" points="253.96,-237.76 243.39,-238.54 252.14,-244.52 253.96,-237.76"/>
</g>
<!-- Node19 -->
<g id="node19" class="node">
<title>Node19</title>
<g id="a_node19"><a xlink:href="../../d5/daf/_istring_8h.html" target="_top" xlink:title=" ">
<polygon fill="white" stroke="black" points="272.28,-220.5 272.28,-238.5 352.74,-238.5 352.74,-220.5 272.28,-220.5"/>
<text text-anchor="middle" x="312.51" y="-226.5" font-family="Helvetica,sans-Serif" font-size="10.00">tralics/Istring.h</text>
</a>
</g>
</g>
<!-- Node18&#45;&gt;Node19 -->
<g id="edge21" class="edge">
<title>Node18&#45;&gt;Node19</title>
<path fill="none" stroke="midnightblue" d="M395.63,-275.45C379.94,-266.97 355,-253.48 336.52,-243.49"/>
<polygon fill="midnightblue" stroke="midnightblue" points="338,-240.3 327.54,-238.63 334.67,-246.46 338,-240.3"/>
</g>
<!-- Node20 -->
<g id="node20" class="node">
<title>Node20</title>
<g id="a_node20"><a xlink:href="../../dd/dcd/_token_8h.html" target="_top" xlink:title=" ">
<polygon fill="white" stroke="black" points="370.55,-220.5 370.55,-238.5 450.47,-238.5 450.47,-220.5 370.55,-220.5"/>
<text text-anchor="middle" x="410.51" y="-226.5" font-family="Helvetica,sans-Serif" font-size="10.00">tralics/Token.h</text>
</a>
</g>
</g>
<!-- Node18&#45;&gt;Node20 -->
<g id="edge24" class="edge">
<title>Node18&#45;&gt;Node20</title>
<path fill="none" stroke="midnightblue" d="M410.51,-275.22C410.51,-268.18 410.51,-257.81 410.51,-248.83"/>
<polygon fill="midnightblue" stroke="midnightblue" points="414.01,-248.55 410.51,-238.55 407.01,-248.55 414.01,-248.55"/>
</g>
<!-- Node23 -->
<g id="node23" class="node">
<title>Node23</title>
<g id="a_node23"><a xlink:title=" ">
<polygon fill="white" stroke="#bfbfbf" points="468.12,-220.5 468.12,-238.5 506.9,-238.5 506.9,-220.5 468.12,-220.5"/>
<text text-anchor="middle" x="487.51" y="-226.5" font-family="Helvetica,sans-Serif" font-size="10.00">utility</text>
</a>
</g>
</g>
<!-- Node18&#45;&gt;Node23 -->
<g id="edge30" class="edge">
<title>Node18&#45;&gt;Node23</title>
<path fill="none" stroke="midnightblue" d="M422.21,-275.45C434.19,-267.2 453.06,-254.22 467.44,-244.32"/>
<polygon fill="midnightblue" stroke="midnightblue" points="469.45,-247.18 475.71,-238.63 465.49,-241.41 469.45,-247.18"/>
</g>
<!-- Node19&#45;&gt;Node4 -->
<g id="edge22" class="edge">
<title>Node19&#45;&gt;Node4</title>
<path fill="none" stroke="midnightblue" d="M322,-220.44C330.79,-212.28 343.27,-198.8 348.51,-184 353.86,-168.88 348.97,-151 343.55,-138.06"/>
<polygon fill="midnightblue" stroke="midnightblue" points="346.67,-136.49 339.27,-128.9 340.33,-139.44 346.67,-136.49"/>
</g>
<!-- Node19&#45;&gt;Node9 -->
<g id="edge23" class="edge">
<title>Node19&#45;&gt;Node9</title>
<path fill="none" stroke="midnightblue" d="M287.76,-220.45C258.79,-211.03 210.84,-195.44 179.71,-185.32"/>
<polygon fill="midnightblue" stroke="midnightblue" points="180.45,-181.88 169.85,-182.11 178.28,-188.54 180.45,-181.88"/>
</g>
<!-- Node21 -->
<g id="node21" class="node">
<title>Node21</title>
<g id="a_node21"><a xlink:href="../../d2/d68/_cmd_chr_8h.html" target="_top" xlink:title=" ">
<polygon fill="white" stroke="black" points="245,-165.5 245,-183.5 306.02,-183.5 306.02,-165.5 245,-165.5"/>
<text text-anchor="middle" x="275.51" y="-171.5" font-family="Helvetica,sans-Serif" font-size="10.00">CmdChr.h</text>
</a>
</g>
</g>
<!-- Node20&#45;&gt;Node21 -->
<g id="edge25" class="edge">
<title>Node20&#45;&gt;Node21</title>
<path fill="none" stroke="midnightblue" d="M390.01,-220.45C367.61,-211.66 331.5,-197.48 305.83,-187.4"/>
<polygon fill="midnightblue" stroke="midnightblue" points="306.8,-184.02 296.21,-183.63 304.24,-190.54 306.8,-184.02"/>
</g>
<!-- Node22 -->
<g id="node22" class="node">
<title>Node22</title>
<g id="a_node22"><a xlink:title=" ">
<polygon fill="white" stroke="#bfbfbf" points="401.01,-165.5 401.01,-183.5 430.01,-183.5 430.01,-165.5 401.01,-165.5"/>
<text text-anchor="middle" x="415.12" y="-171.5" font-family="Helvetica,sans-Serif" font-size="10.00">list</text>
</a>
</g>
</g>
<!-- Node20&#45;&gt;Node22 -->
<g id="edge28" class="edge">
<title>Node20&#45;&gt;Node22</title>
<path fill="none" stroke="midnightblue" d="M411.29,-220.22C411.97,-213.1 412.96,-202.58 413.81,-193.53"/>
<polygon fill="midnightblue" stroke="midnightblue" points="417.3,-193.83 414.75,-183.55 410.33,-193.18 417.3,-193.83"/>
</g>
<!-- Node21&#45;&gt;Node4 -->
<g id="edge27" class="edge">
<title>Node21&#45;&gt;Node4</title>
<path fill="none" stroke="midnightblue" d="M284.47,-165.45C293.31,-157.51 307.03,-145.19 317.87,-135.45"/>
<polygon fill="midnightblue" stroke="midnightblue" points="320.37,-137.91 325.47,-128.63 315.69,-132.7 320.37,-137.91"/>
</g>
<!-- Node21&#45;&gt;Node8 -->
<g id="edge26" class="edge">
<title>Node21&#45;&gt;Node8</title>
<path fill="none" stroke="midnightblue" d="M270.2,-165.22C265.38,-157.71 258.13,-146.41 252.13,-137.05"/>
<polygon fill="midnightblue" stroke="midnightblue" points="255.02,-135.08 246.68,-128.55 249.13,-138.86 255.02,-135.08"/>
</g>
<!-- Node26&#45;&gt;Node15 -->
<g id="edge35" class="edge">
<title>Node26&#45;&gt;Node15</title>
<path fill="none" stroke="midnightblue" d="M479.19,-440.45C454.58,-431.58 414.78,-417.23 386.78,-407.13"/>
<polygon fill="midnightblue" stroke="midnightblue" points="387.64,-403.72 377.05,-403.63 385.27,-410.31 387.64,-403.72"/>
</g>
<!-- Node27&#45;&gt;Node25 -->
<g id="edge37" class="edge">
<title>Node27&#45;&gt;Node25</title>
<path fill="none" stroke="midnightblue" d="M163.4,-550.16C149.27,-537.5 126.82,-512.99 140.51,-495 142.48,-492.42 220.3,-471.72 267.01,-459.48"/>
<polygon fill="midnightblue" stroke="midnightblue" points="267.96,-462.85 276.75,-456.93 266.19,-456.08 267.96,-462.85"/>
</g>
<!-- Node28 -->
<g id="node28" class="node">
<title>Node28</title>
<g id="a_node28"><a xlink:title=" ">
<polygon fill="white" stroke="#bfbfbf" points="149.34,-495.5 149.34,-513.5 203.68,-513.5 203.68,-495.5 149.34,-495.5"/>
<text text-anchor="middle" x="176.51" y="-501.5" font-family="Helvetica,sans-Serif" font-size="10.00">iostream</text>
</a>
</g>
</g>
<!-- Node27&#45;&gt;Node28 -->
<g id="edge38" class="edge">
<title>Node27&#45;&gt;Node28</title>
<path fill="none" stroke="midnightblue" d="M173.98,-550.22C174.38,-543.18 174.97,-532.81 175.47,-523.83"/>
<polygon fill="midnightblue" stroke="midnightblue" points="178.99,-523.73 176.06,-513.55 172,-523.34 178.99,-523.73"/>
</g>
<!-- Node29&#45;&gt;Node14 -->
<g id="edge40" class="edge">
<title>Node29&#45;&gt;Node14</title>
<path fill="none" stroke="midnightblue" d="M298.57,-550.22C307.31,-542.24 320.72,-529.98 331.29,-520.32"/>
<polygon fill="midnightblue" stroke="midnightblue" points="333.68,-522.88 338.7,-513.55 328.96,-517.71 333.68,-522.88"/>
</g>
<!-- Node30&#45;&gt;Node14 -->
<g id="edge53" class="edge">
<title>Node30&#45;&gt;Node14</title>
<path fill="none" stroke="midnightblue" d="M500.55,-613.7C464.04,-612.28 402.75,-604.31 366.51,-569 354.42,-557.21 349.95,-538.07 348.33,-523.88"/>
<polygon fill="midnightblue" stroke="midnightblue" points="351.81,-523.5 347.56,-513.8 344.83,-524.03 351.81,-523.5"/>
</g>
<!-- Node31 -->
<g id="node31" class="node">
<title>Node31</title>
<g id="a_node31"><a xlink:href="../../d3/d6b/txcond_8h.html" target="_top" xlink:title=" ">
<polygon fill="white" stroke="black" points="204.61,-440.5 204.61,-458.5 258.41,-458.5 258.41,-440.5 204.61,-440.5"/>
<text text-anchor="middle" x="231.51" y="-446.5" font-family="Helvetica,sans-Serif" font-size="10.00">txcond.h</text>
</a>
</g>
</g>
<!-- Node30&#45;&gt;Node31 -->
<g id="edge43" class="edge">
<title>Node30&#45;&gt;Node31</title>
<path fill="none" stroke="midnightblue" d="M500.2,-613.01C435.14,-611.3 285.17,-603.61 250.51,-569 223.93,-542.45 225.37,-494.51 228.54,-468.49"/>
<polygon fill="midnightblue" stroke="midnightblue" points="232.02,-468.91 229.98,-458.51 225.09,-467.91 232.02,-468.91"/>
</g>
<!-- Node32 -->
<g id="node32" class="node">
<title>Node32</title>
<g id="a_node32"><a xlink:href="../../d7/d4d/txfonts_8h.html" target="_top" xlink:title=" ">
<polygon fill="white" stroke="black" points="474.61,-495.5 474.61,-513.5 528.41,-513.5 528.41,-495.5 474.61,-495.5"/>
<text text-anchor="middle" x="501.51" y="-501.5" font-family="Helvetica,sans-Serif" font-size="10.00">txfonts.h</text>
</a>
</g>
</g>
<!-- Node30&#45;&gt;Node32 -->
<g id="edge45" class="edge">
<title>Node30&#45;&gt;Node32</title>
<path fill="none" stroke="midnightblue" d="M528.33,-605.38C523.69,-588.1 512.74,-547.33 506.36,-523.56"/>
<polygon fill="midnightblue" stroke="midnightblue" points="509.69,-522.46 503.72,-513.71 502.93,-524.28 509.69,-522.46"/>
</g>
<!-- Node33 -->
<g id="node33" class="node">
<title>Node33</title>
<g id="a_node33"><a xlink:href="../../d7/d7e/txhash_8h.html" target="_top" xlink:title=" ">
<polygon fill="white" stroke="black" points="676.61,-550.5 676.61,-568.5 730.41,-568.5 730.41,-550.5 676.61,-550.5"/>
<text text-anchor="middle" x="703.51" y="-556.5" font-family="Helvetica,sans-Serif" font-size="10.00">txhash.h</text>
</a>
</g>
</g>
<!-- Node30&#45;&gt;Node33 -->
<g id="edge47" class="edge">
<title>Node30&#45;&gt;Node33</title>
<path fill="none" stroke="midnightblue" d="M556.79,-605.45C586.34,-596.4 634.51,-581.64 667.55,-571.52"/>
<polygon fill="midnightblue" stroke="midnightblue" points="668.74,-574.81 677.27,-568.54 666.69,-568.12 668.74,-574.81"/>
</g>
<!-- Node35 -->
<g id="node35" class="node">
<title>Node35</title>
<g id="a_node35"><a xlink:href="../../de/d7c/tximage_8h.html" target="_top" xlink:title=" ">
<polygon fill="white" stroke="black" points="504.83,-275.5 504.83,-293.5 564.19,-293.5 564.19,-275.5 504.83,-275.5"/>
<text text-anchor="middle" x="534.51" y="-281.5" font-family="Helvetica,sans-Serif" font-size="10.00">tximage.h</text>
</a>
</g>
</g>
<!-- Node30&#45;&gt;Node35 -->
<g id="edge50" class="edge">
<title>Node30&#45;&gt;Node35</title>
<path fill="none" stroke="midnightblue" d="M560.67,-610.83C612.1,-605.7 713.74,-592.77 739.51,-569 761.17,-549.03 758.51,-534.96 758.51,-505.5 758.51,-505.5 758.51,-505.5 758.51,-393.5 758.51,-312.73 638.88,-292.33 574.47,-287.21"/>
<polygon fill="midnightblue" stroke="midnightblue" points="574.48,-283.7 564.26,-286.48 573.99,-290.68 574.48,-283.7"/>
</g>
<!-- Node36 -->
<g id="node36" class="node">
<title>Node36</title>
<g id="a_node36"><a xlink:href="../../dc/d65/txstack_8h.html" target="_top" xlink:title=" ">
<polygon fill="white" stroke="black" points="602.78,-550.5 602.78,-568.5 658.24,-568.5 658.24,-550.5 602.78,-550.5"/>
<text text-anchor="middle" x="630.51" y="-556.5" font-family="Helvetica,sans-Serif" font-size="10.00">txstack.h</text>
</a>
</g>
</g>
<!-- Node30&#45;&gt;Node36 -->
<g id="edge54" class="edge">
<title>Node30&#45;&gt;Node36</title>
<path fill="none" stroke="midnightblue" d="M545.7,-605.45C561.78,-596.93 587.39,-583.35 606.27,-573.35"/>
<polygon fill="midnightblue" stroke="midnightblue" points="607.98,-576.4 615.18,-568.63 604.71,-570.22 607.98,-576.4"/>
</g>
<!-- Node39 -->
<g id="node39" class="node">
<title>Node39</title>
<g id="a_node39"><a xlink:href="../../d8/d3d/txstats_8h.html" target="_top" xlink:title=" ">
<polygon fill="white" stroke="black" points="531.89,-550.5 531.89,-568.5 585.13,-568.5 585.13,-550.5 531.89,-550.5"/>
<text text-anchor="middle" x="558.51" y="-556.5" font-family="Helvetica,sans-Serif" font-size="10.00">txstats.h</text>
</a>
</g>
</g>
<!-- Node30&#45;&gt;Node39 -->
<g id="edge58" class="edge">
<title>Node30&#45;&gt;Node39</title>
<path fill="none" stroke="midnightblue" d="M534.89,-605.22C538.77,-597.86 544.58,-586.88 549.46,-577.64"/>
<polygon fill="midnightblue" stroke="midnightblue" points="552.68,-579.03 554.26,-568.55 546.49,-575.76 552.68,-579.03"/>
</g>
<!-- Node31&#45;&gt;Node10 -->
<g id="edge44" class="edge">
<title>Node31&#45;&gt;Node10</title>
<path fill="none" stroke="midnightblue" d="M233.17,-440.38C236.69,-423.1 244.99,-382.33 249.83,-358.56"/>
<polygon fill="midnightblue" stroke="midnightblue" points="253.27,-359.21 251.84,-348.71 246.41,-357.81 253.27,-359.21"/>
</g>
<!-- Node32&#45;&gt;Node26 -->
<g id="edge46" class="edge">
<title>Node32&#45;&gt;Node26</title>
<path fill="none" stroke="midnightblue" d="M501.51,-495.22C501.51,-488.18 501.51,-477.81 501.51,-468.83"/>
<polygon fill="midnightblue" stroke="midnightblue" points="505.01,-468.55 501.51,-458.55 498.01,-468.55 505.01,-468.55"/>
</g>
<!-- Node34 -->
<g id="node34" class="node">
<title>Node34</title>
<g id="a_node34"><a xlink:href="../../d3/d01/txeqtb_8h.html" target="_top" xlink:title=" ">
<polygon fill="white" stroke="black" points="676.72,-495.5 676.72,-513.5 728.3,-513.5 728.3,-495.5 676.72,-495.5"/>
<text text-anchor="middle" x="702.51" y="-501.5" font-family="Helvetica,sans-Serif" font-size="10.00">txeqtb.h</text>
</a>
</g>
</g>
<!-- Node33&#45;&gt;Node34 -->
<g id="edge48" class="edge">
<title>Node33&#45;&gt;Node34</title>
<path fill="none" stroke="midnightblue" d="M703.36,-550.22C703.22,-543.18 703.03,-532.81 702.86,-523.83"/>
<polygon fill="midnightblue" stroke="midnightblue" points="706.35,-523.48 702.66,-513.55 699.35,-523.61 706.35,-523.48"/>
</g>
<!-- Node34&#45;&gt;Node26 -->
<g id="edge49" class="edge">
<title>Node34&#45;&gt;Node26</title>
<path fill="none" stroke="midnightblue" d="M676.65,-496.68C642.44,-487.66 581.79,-471.67 541.62,-461.07"/>
<polygon fill="midnightblue" stroke="midnightblue" points="542.43,-457.67 531.87,-458.51 540.65,-464.44 542.43,-457.67"/>
</g>
<!-- Node35&#45;&gt;Node9 -->
<g id="edge51" class="edge">
<title>Node35&#45;&gt;Node9</title>
<path fill="none" stroke="midnightblue" d="M534.72,-275.37C534.6,-261.59 532.15,-233.83 515.51,-220 459.96,-173.83 268.6,-196.39 180.08,-183.52"/>
<polygon fill="midnightblue" stroke="midnightblue" points="180.5,-180.04 170.06,-181.82 179.33,-186.94 180.5,-180.04"/>
</g>
<!-- Node35&#45;&gt;Node23 -->
<g id="edge52" class="edge">
<title>Node35&#45;&gt;Node23</title>
<path fill="none" stroke="midnightblue" d="M527.17,-275.22C520.3,-267.47 509.86,-255.7 501.42,-246.18"/>
<polygon fill="midnightblue" stroke="midnightblue" points="503.9,-243.71 494.65,-238.55 498.67,-248.35 503.9,-243.71"/>
</g>
<!-- Node37 -->
<g id="node37" class="node">
<title>Node37</title>
<g id="a_node37"><a xlink:href="../../d4/da4/txatt_8h.html" target="_top" xlink:title=" ">
<polygon fill="white" stroke="black" points="611.89,-495.5 611.89,-513.5 655.13,-513.5 655.13,-495.5 611.89,-495.5"/>
<text text-anchor="middle" x="633.51" y="-501.5" font-family="Helvetica,sans-Serif" font-size="10.00">txatt.h</text>
</a>
</g>
</g>
<!-- Node36&#45;&gt;Node37 -->
<g id="edge55" class="edge">
<title>Node36&#45;&gt;Node37</title>
<path fill="none" stroke="midnightblue" d="M630.98,-550.22C631.38,-543.18 631.97,-532.81 632.47,-523.83"/>
<polygon fill="midnightblue" stroke="midnightblue" points="635.99,-523.73 633.06,-513.55 629,-523.34 635.99,-523.73"/>
</g>
<!-- Node38 -->
<g id="node38" class="node">
<title>Node38</title>
<g id="a_node38"><a xlink:href="../../d1/d43/txxml_8h.html" target="_top" xlink:title=" ">
<polygon fill="white" stroke="black" points="546.68,-495.5 546.68,-513.5 594.35,-513.5 594.35,-495.5 546.68,-495.5"/>
<text text-anchor="middle" x="570.51" y="-501.5" font-family="Helvetica,sans-Serif" font-size="10.00">txxml.h</text>
</a>
</g>
</g>
<!-- Node36&#45;&gt;Node38 -->
<g id="edge57" class="edge">
<title>Node36&#45;&gt;Node38</title>
<path fill="none" stroke="midnightblue" d="M621.4,-550.45C612.41,-542.51 598.46,-530.19 587.44,-520.45"/>
<polygon fill="midnightblue" stroke="midnightblue" points="589.52,-517.62 579.71,-513.63 584.89,-522.87 589.52,-517.62"/>
</g>
<!-- Node37&#45;&gt;Node26 -->
<g id="edge56" class="edge">
<title>Node37&#45;&gt;Node26</title>
<path fill="none" stroke="midnightblue" d="M613.46,-495.45C591.56,-486.66 556.26,-472.48 531.15,-462.4"/>
<polygon fill="midnightblue" stroke="midnightblue" points="532.33,-459.1 521.75,-458.63 529.72,-465.6 532.33,-459.1"/>
</g>
</g>
</svg>
