<?xml version="1.0" encoding="UTF-8" standalone="no"?>
<!DOCTYPE svg PUBLIC "-//W3C//DTD SVG 1.1//EN"
 "http://www.w3.org/Graphics/SVG/1.1/DTD/svg11.dtd">
<!-- Generated by graphviz version 2.43.0 (0)
 -->
<!-- Title: FpNum Pages: 1 -->
<svg width="115pt" height="102pt"
 viewBox="0.00 0.00 114.89 102.00" xmlns="http://www.w3.org/2000/svg" xmlns:xlink="http://www.w3.org/1999/xlink">
<g id="graph0" class="graph" transform="scale(1 1) rotate(0) translate(4 98)">
<title>FpNum</title>
<polygon fill="white" stroke="transparent" points="-4,4 -4,-98 110.89,-98 110.89,4 -4,4"/>
<!-- Node1 -->
<g id="node1" class="node">
<title>Node1</title>
<g id="a_node1"><a xlink:title=" ">
<polygon fill="#bfbfbf" stroke="black" points="29.05,-0.5 29.05,-18.5 77.84,-18.5 77.84,-0.5 29.05,-0.5"/>
<text text-anchor="middle" x="53.44" y="-6.5" font-family="Helvetica,sans-Serif" font-size="10.00">FpNum</text>
</a>
</g>
</g>
<!-- Node2 -->
<g id="node2" class="node">
<title>Node2</title>
<g id="a_node2"><a xlink:title=" ">
<polygon fill="white" stroke="#bfbfbf" points="0,-65.5 0,-93.5 106.89,-93.5 106.89,-65.5 0,-65.5"/>
<text text-anchor="start" x="8" y="-81.5" font-family="Helvetica,sans-Serif" font-size="10.00">std::array&lt; unsigned</text>
<text text-anchor="middle" x="53.44" y="-71.5" font-family="Helvetica,sans-Serif" font-size="10.00"> int, 4 &gt;</text>
</a>
</g>
</g>
<!-- Node2&#45;&gt;Node1 -->
<g id="edge1" class="edge">
<title>Node2&#45;&gt;Node1</title>
<path fill="none" stroke="#9a32cd" stroke-dasharray="5,2" d="M53.44,-55.1C53.44,-42.55 53.44,-27.85 53.44,-18.86"/>
<polygon fill="#9a32cd" stroke="#9a32cd" points="49.94,-55.39 53.44,-65.39 56.94,-55.39 49.94,-55.39"/>
<text text-anchor="middle" x="64.56" y="-39" font-family="Helvetica,sans-Serif" font-size="10.00"> data</text>
</g>
</g>
</svg>
