<?xml version="1.0" encoding="UTF-8" standalone="no"?>
<!DOCTYPE svg PUBLIC "-//W3C//DTD SVG 1.1//EN"
 "http://www.w3.org/Graphics/SVG/1.1/DTD/svg11.dtd">
<!-- Generated by graphviz version 2.43.0 (0)
 -->
<!-- Title: FullLogger Pages: 1 -->
<svg width="274pt" height="467pt"
 viewBox="0.00 0.00 274.34 467.00" xmlns="http://www.w3.org/2000/svg" xmlns:xlink="http://www.w3.org/1999/xlink">
<g id="graph0" class="graph" transform="scale(1 1) rotate(0) translate(4 463)">
<title>FullLogger</title>
<polygon fill="white" stroke="transparent" points="-4,4 -4,-463 270.34,-463 270.34,4 -4,4"/>
<!-- Node1 -->
<g id="node1" class="node">
<title>Node1</title>
<g id="a_node1"><a xlink:title=" ">
<polygon fill="#bfbfbf" stroke="black" points="134.67,-0.5 134.67,-18.5 197.92,-18.5 197.92,-0.5 134.67,-0.5"/>
<text text-anchor="middle" x="166.29" y="-6.5" font-family="Helvetica,sans-Serif" font-size="10.00">FullLogger</text>
</a>
</g>
</g>
<!-- Node2 -->
<g id="node2" class="node">
<title>Node2</title>
<g id="a_node2"><a xlink:href="../../d3/d42/class_logger.html" target="_top" xlink:title=" ">
<polygon fill="white" stroke="black" points="142.72,-65.5 142.72,-83.5 189.86,-83.5 189.86,-65.5 142.72,-65.5"/>
<text text-anchor="middle" x="166.29" y="-71.5" font-family="Helvetica,sans-Serif" font-size="10.00">Logger</text>
</a>
</g>
</g>
<!-- Node2&#45;&gt;Node1 -->
<g id="edge1" class="edge">
<title>Node2&#45;&gt;Node1</title>
<path fill="none" stroke="#9a32cd" stroke-dasharray="5,2" d="M166.29,-54.91C166.29,-42.81 166.29,-27.65 166.29,-18.54"/>
<polygon fill="#9a32cd" stroke="#9a32cd" points="162.79,-55.26 166.29,-65.26 169.79,-55.26 162.79,-55.26"/>
<text text-anchor="middle" x="170.46" y="-39" font-family="Helvetica,sans-Serif" font-size="10.00"> L</text>
</g>
<!-- Node3 -->
<g id="node3" class="node">
<title>Node3</title>
<g id="a_node3"><a xlink:title="STL class.">
<polygon fill="white" stroke="#bfbfbf" points="91.17,-130.5 91.17,-148.5 159.41,-148.5 159.41,-130.5 91.17,-130.5"/>
<text text-anchor="middle" x="125.29" y="-136.5" font-family="Helvetica,sans-Serif" font-size="10.00">std::fstream</text>
</a>
</g>
</g>
<!-- Node3&#45;&gt;Node2 -->
<g id="edge2" class="edge">
<title>Node3&#45;&gt;Node2</title>
<path fill="none" stroke="#9a32cd" stroke-dasharray="5,2" d="M136.19,-121.75C144.24,-109.39 154.82,-93.12 161.06,-83.54"/>
<polygon fill="#9a32cd" stroke="#9a32cd" points="133.17,-119.97 130.65,-130.26 139.04,-123.79 133.17,-119.97"/>
<text text-anchor="middle" x="153.85" y="-104" font-family="Helvetica,sans-Serif" font-size="10.00"> fp</text>
</g>
<!-- Node4 -->
<g id="node4" class="node">
<title>Node4</title>
<g id="a_node4"><a xlink:title="STL class.">
<polygon fill="white" stroke="#bfbfbf" points="56.72,-186.5 56.72,-214.5 153.86,-214.5 153.86,-186.5 56.72,-186.5"/>
<text text-anchor="start" x="64.72" y="-202.5" font-family="Helvetica,sans-Serif" font-size="10.00">std::basic_fstream</text>
<text text-anchor="middle" x="105.29" y="-192.5" font-family="Helvetica,sans-Serif" font-size="10.00">&lt; char &gt;</text>
</a>
</g>
</g>
<!-- Node4&#45;&gt;Node3 -->
<g id="edge3" class="edge">
<title>Node4&#45;&gt;Node3</title>
<path fill="none" stroke="midnightblue" d="M113.02,-176.7C116.37,-166.82 120.08,-155.89 122.53,-148.65"/>
<polygon fill="midnightblue" stroke="midnightblue" points="109.63,-175.81 109.73,-186.41 116.26,-178.06 109.63,-175.81"/>
</g>
<!-- Node5 -->
<g id="node5" class="node">
<title>Node5</title>
<g id="a_node5"><a xlink:title="STL class.">
<polygon fill="white" stroke="#bfbfbf" points="54.22,-252.5 54.22,-280.5 156.37,-280.5 156.37,-252.5 54.22,-252.5"/>
<text text-anchor="start" x="62.22" y="-268.5" font-family="Helvetica,sans-Serif" font-size="10.00">std::basic_iostream</text>
<text text-anchor="middle" x="105.29" y="-258.5" font-family="Helvetica,sans-Serif" font-size="10.00">&lt; Char &gt;</text>
</a>
</g>
</g>
<!-- Node5&#45;&gt;Node4 -->
<g id="edge4" class="edge">
<title>Node5&#45;&gt;Node4</title>
<path fill="none" stroke="midnightblue" d="M105.29,-242.09C105.29,-232.88 105.29,-222.64 105.29,-214.74"/>
<polygon fill="midnightblue" stroke="midnightblue" points="101.79,-242.24 105.29,-252.24 108.79,-242.24 101.79,-242.24"/>
</g>
<!-- Node6 -->
<g id="node6" class="node">
<title>Node6</title>
<g id="a_node6"><a xlink:title="STL class.">
<polygon fill="white" stroke="#bfbfbf" points="0,-318.5 0,-346.5 96.59,-346.5 96.59,-318.5 0,-318.5"/>
<text text-anchor="start" x="8" y="-334.5" font-family="Helvetica,sans-Serif" font-size="10.00">std::basic_istream</text>
<text text-anchor="middle" x="48.29" y="-324.5" font-family="Helvetica,sans-Serif" font-size="10.00">&lt; Char &gt;</text>
</a>
</g>
</g>
<!-- Node6&#45;&gt;Node5 -->
<g id="edge5" class="edge">
<title>Node6&#45;&gt;Node5</title>
<path fill="none" stroke="midnightblue" d="M66.76,-310.77C75.54,-300.91 85.78,-289.41 93.5,-280.74"/>
<polygon fill="midnightblue" stroke="midnightblue" points="64.14,-308.44 60.1,-318.24 69.37,-313.1 64.14,-308.44"/>
</g>
<!-- Node7 -->
<g id="node7" class="node">
<title>Node7</title>
<g id="a_node7"><a xlink:title="STL class.">
<polygon fill="white" stroke="#bfbfbf" points="47.54,-384.5 47.54,-402.5 163.04,-402.5 163.04,-384.5 47.54,-384.5"/>
<text text-anchor="middle" x="105.29" y="-390.5" font-family="Helvetica,sans-Serif" font-size="10.00">std::basic_ios&lt; Char &gt;</text>
</a>
</g>
</g>
<!-- Node7&#45;&gt;Node6 -->
<g id="edge6" class="edge">
<title>Node7&#45;&gt;Node6</title>
<path fill="none" stroke="midnightblue" d="M90.38,-377.06C81.24,-367.6 69.67,-355.62 60.97,-346.62"/>
<polygon fill="midnightblue" stroke="midnightblue" points="87.9,-379.54 97.37,-384.3 92.94,-374.67 87.9,-379.54"/>
</g>
<!-- Node9 -->
<g id="node9" class="node">
<title>Node9</title>
<g id="a_node9"><a xlink:title="STL class.">
<polygon fill="white" stroke="#bfbfbf" points="114.33,-318.5 114.33,-346.5 214.26,-346.5 214.26,-318.5 114.33,-318.5"/>
<text text-anchor="start" x="122.33" y="-334.5" font-family="Helvetica,sans-Serif" font-size="10.00">std::basic_ostream</text>
<text text-anchor="middle" x="164.29" y="-324.5" font-family="Helvetica,sans-Serif" font-size="10.00">&lt; Char &gt;</text>
</a>
</g>
</g>
<!-- Node7&#45;&gt;Node9 -->
<g id="edge9" class="edge">
<title>Node7&#45;&gt;Node9</title>
<path fill="none" stroke="midnightblue" d="M120.73,-377.06C130.19,-367.6 142.17,-355.62 151.17,-346.62"/>
<polygon fill="midnightblue" stroke="midnightblue" points="118.09,-374.75 113.5,-384.3 123.04,-379.7 118.09,-374.75"/>
</g>
<!-- Node8 -->
<g id="node8" class="node">
<title>Node8</title>
<g id="a_node8"><a xlink:title="STL class.">
<polygon fill="white" stroke="#bfbfbf" points="67.83,-440.5 67.83,-458.5 142.76,-458.5 142.76,-440.5 67.83,-440.5"/>
<text text-anchor="middle" x="105.29" y="-446.5" font-family="Helvetica,sans-Serif" font-size="10.00">std::ios_base</text>
</a>
</g>
</g>
<!-- Node8&#45;&gt;Node7 -->
<g id="edge7" class="edge">
<title>Node8&#45;&gt;Node7</title>
<path fill="none" stroke="midnightblue" d="M105.29,-429.83C105.29,-420.58 105.29,-409.88 105.29,-402.7"/>
<polygon fill="midnightblue" stroke="midnightblue" points="101.79,-430.06 105.29,-440.06 108.79,-430.06 101.79,-430.06"/>
</g>
<!-- Node9&#45;&gt;Node5 -->
<g id="edge8" class="edge">
<title>Node9&#45;&gt;Node5</title>
<path fill="none" stroke="midnightblue" d="M145.18,-310.77C136.09,-300.91 125.49,-289.41 117.5,-280.74"/>
<polygon fill="midnightblue" stroke="midnightblue" points="142.72,-313.26 152.07,-318.24 147.86,-308.51 142.72,-313.26"/>
</g>
<!-- Node10 -->
<g id="node10" class="node">
<title>Node10</title>
<g id="a_node10"><a xlink:title="STL class.">
<polygon fill="white" stroke="#bfbfbf" points="185.62,-130.5 185.62,-148.5 244.97,-148.5 244.97,-130.5 185.62,-130.5"/>
<text text-anchor="middle" x="215.29" y="-136.5" font-family="Helvetica,sans-Serif" font-size="10.00">std::string</text>
</a>
</g>
</g>
<!-- Node10&#45;&gt;Node2 -->
<g id="edge10" class="edge">
<title>Node10&#45;&gt;Node2</title>
<path fill="none" stroke="#9a32cd" stroke-dasharray="5,2" d="M202.55,-122.11C192.9,-109.71 180.07,-93.22 172.55,-83.54"/>
<polygon fill="#9a32cd" stroke="#9a32cd" points="199.98,-124.52 208.89,-130.26 205.51,-120.22 199.98,-124.52"/>
<text text-anchor="middle" x="214.58" y="-104" font-family="Helvetica,sans-Serif" font-size="10.00"> filename</text>
</g>
<!-- Node11 -->
<g id="node11" class="node">
<title>Node11</title>
<g id="a_node11"><a xlink:title="STL class.">
<polygon fill="white" stroke="#bfbfbf" points="172.25,-186.5 172.25,-214.5 266.34,-214.5 266.34,-186.5 172.25,-186.5"/>
<text text-anchor="start" x="180.25" y="-202.5" font-family="Helvetica,sans-Serif" font-size="10.00">std::basic_string&lt;</text>
<text text-anchor="middle" x="219.29" y="-192.5" font-family="Helvetica,sans-Serif" font-size="10.00"> char &gt;</text>
</a>
</g>
</g>
<!-- Node11&#45;&gt;Node10 -->
<g id="edge11" class="edge">
<title>Node11&#45;&gt;Node10</title>
<path fill="none" stroke="midnightblue" d="M217.73,-176.39C217.06,-166.59 216.33,-155.82 215.85,-148.65"/>
<polygon fill="midnightblue" stroke="midnightblue" points="214.24,-176.67 218.41,-186.41 221.22,-176.19 214.24,-176.67"/>
</g>
</g>
</svg>
