<?xml version="1.0" encoding="UTF-8" standalone="no"?>
<!DOCTYPE svg PUBLIC "-//W3C//DTD SVG 1.1//EN"
 "http://www.w3.org/Graphics/SVG/1.1/DTD/svg11.dtd">
<!-- Generated by graphviz version 2.43.0 (0)
 -->
<!-- Title: txtrees.h Pages: 1 -->
<svg width="134pt" height="82pt"
 viewBox="0.00 0.00 134.34 82.00" xmlns="http://www.w3.org/2000/svg" xmlns:xlink="http://www.w3.org/1999/xlink">
<g id="graph0" class="graph" transform="scale(1 1) rotate(0) translate(4 78)">
<title>txtrees.h</title>
<polygon fill="white" stroke="transparent" points="-4,4 -4,-78 130.34,-78 130.34,4 -4,4"/>
<!-- Node1 -->
<g id="node1" class="node">
<title>Node1</title>
<g id="a_node1"><a xlink:title=" ">
<polygon fill="#bfbfbf" stroke="black" points="35.17,-55.5 35.17,-73.5 89.51,-73.5 89.51,-55.5 35.17,-55.5"/>
<text text-anchor="middle" x="62.34" y="-61.5" font-family="Helvetica,sans-Serif" font-size="10.00">txtrees.h</text>
</a>
</g>
</g>
<!-- Node2 -->
<g id="node2" class="node">
<title>Node2</title>
<g id="a_node2"><a xlink:href="../../db/d66/txpost_8_c.html" target="_top" xlink:title=" ">
<polygon fill="white" stroke="black" points="0,-0.5 0,-18.5 52.68,-18.5 52.68,-0.5 0,-0.5"/>
<text text-anchor="middle" x="26.34" y="-6.5" font-family="Helvetica,sans-Serif" font-size="10.00">txpost.C</text>
</a>
</g>
</g>
<!-- Node1&#45;&gt;Node2 -->
<g id="edge1" class="edge">
<title>Node1&#45;&gt;Node2</title>
<path fill="none" stroke="midnightblue" d="M50.9,-46.66C44.52,-37.26 36.86,-25.98 31.81,-18.55"/>
<polygon fill="midnightblue" stroke="midnightblue" points="48.2,-48.91 56.71,-55.22 53.99,-44.98 48.2,-48.91"/>
</g>
<!-- Node3 -->
<g id="node3" class="node">
<title>Node3</title>
<g id="a_node3"><a xlink:href="../../da/d9e/txtrees_8_c.html" target="_top" xlink:title=" ">
<polygon fill="white" stroke="black" points="70.33,-0.5 70.33,-18.5 126.34,-18.5 126.34,-0.5 70.33,-0.5"/>
<text text-anchor="middle" x="98.34" y="-6.5" font-family="Helvetica,sans-Serif" font-size="10.00">txtrees.C</text>
</a>
</g>
</g>
<!-- Node1&#45;&gt;Node3 -->
<g id="edge2" class="edge">
<title>Node1&#45;&gt;Node3</title>
<path fill="none" stroke="midnightblue" d="M73.78,-46.66C80.16,-37.26 87.82,-25.98 92.87,-18.55"/>
<polygon fill="midnightblue" stroke="midnightblue" points="70.69,-44.98 67.96,-55.22 76.48,-48.91 70.69,-44.98"/>
</g>
</g>
</svg>
