<?xml version="1.0" encoding="UTF-8" standalone="no"?>
<!DOCTYPE svg PUBLIC "-//W3C//DTD SVG 1.1//EN"
 "http://www.w3.org/Graphics/SVG/1.1/DTD/svg11.dtd">
<!-- Generated by graphviz version 2.42.3 (20191010.1750)
 -->
<!-- Title: txparam.h Pages: 1 -->
<svg width="2560pt" height="192pt"
 viewBox="0.00 0.00 2559.88 192.00" xmlns="http://www.w3.org/2000/svg" xmlns:xlink="http://www.w3.org/1999/xlink">
<g id="graph0" class="graph" transform="scale(1 1) rotate(0) translate(4 188)">
<title>txparam.h</title>
<!-- Node1 -->
<g id="node1" class="node">
<title>Node1</title>
<g id="a_node1"><a xlink:title=" ">
<polygon fill="#bfbfbf" stroke="black" points="1195.2,-165.5 1195.2,-183.5 1255.66,-183.5 1255.66,-165.5 1195.2,-165.5"/>
<text text-anchor="middle" x="1225.43" y="-171.5" font-family="Helvetica,sans-Serif" font-size="10.00">txparam.h</text>
</a>
</g>
</g>
<!-- Node2 -->
<g id="node2" class="node">
<title>Node2</title>
<g id="a_node2"><a xlink:href="../../d7/d79/txinline_8h.html" target="_top" xlink:title=" ">
<polygon fill="none" stroke="black" points="1197.7,-110.5 1197.7,-128.5 1253.16,-128.5 1253.16,-110.5 1197.7,-110.5"/>
<text text-anchor="middle" x="1225.43" y="-116.5" font-family="Helvetica,sans-Serif" font-size="10.00">txinline.h</text>
</a>
</g>
</g>
<!-- Node1&#45;&gt;Node2 -->
<g id="edge1" class="edge">
<title>Node1&#45;&gt;Node2</title>
<path fill="none" stroke="midnightblue" d="M1225.43,-155.17C1225.43,-146.09 1225.43,-135.59 1225.43,-128.55"/>
<polygon fill="midnightblue" stroke="midnightblue" points="1221.93,-155.22 1225.43,-165.22 1228.93,-155.22 1221.93,-155.22"/>
</g>
<!-- Node3 -->
<g id="node3" class="node">
<title>Node3</title>
<g id="a_node3"><a xlink:href="../../dc/dcf/_buffer_8cpp.html" target="_top" xlink:title=" ">
<polygon fill="none" stroke="black" points="0,-55.5 0,-73.5 60.86,-73.5 60.86,-55.5 0,-55.5"/>
<text text-anchor="middle" x="30.43" y="-61.5" font-family="Helvetica,sans-Serif" font-size="10.00">Buffer.cpp</text>
</a>
</g>
</g>
<!-- Node2&#45;&gt;Node3 -->
<g id="edge2" class="edge">
<title>Node2&#45;&gt;Node3</title>
<path fill="none" stroke="midnightblue" d="M1186.97,-117.9C1012.43,-115.05 293.76,-101.82 70.43,-74 67.33,-73.61 64.11,-73.11 60.91,-72.54"/>
<polygon fill="midnightblue" stroke="midnightblue" points="1187.15,-121.41 1197.2,-118.07 1187.26,-114.41 1187.15,-121.41"/>
</g>
<!-- Node4 -->
<g id="node4" class="node">
<title>Node4</title>
<g id="a_node4"><a xlink:href="../../da/d77/globals_8cpp.html" target="_top" xlink:title=" ">
<polygon fill="none" stroke="black" points="79.13,-55.5 79.13,-73.5 145.72,-73.5 145.72,-55.5 79.13,-55.5"/>
<text text-anchor="middle" x="112.43" y="-61.5" font-family="Helvetica,sans-Serif" font-size="10.00">globals.cpp</text>
</a>
</g>
</g>
<!-- Node2&#45;&gt;Node4 -->
<g id="edge3" class="edge">
<title>Node2&#45;&gt;Node4</title>
<path fill="none" stroke="midnightblue" d="M1187.12,-117.72C1020.82,-114.22 360.51,-98.98 154.43,-74 151.62,-73.66 148.72,-73.23 145.82,-72.75"/>
<polygon fill="midnightblue" stroke="midnightblue" points="1187.28,-121.23 1197.35,-117.94 1187.43,-114.23 1187.28,-121.23"/>
</g>
<!-- Node5 -->
<g id="node5" class="node">
<title>Node5</title>
<g id="a_node5"><a xlink:href="../../df/d37/_main_class_8cpp.html" target="_top" xlink:title=" ">
<polygon fill="none" stroke="black" points="163.64,-55.5 163.64,-73.5 245.22,-73.5 245.22,-55.5 163.64,-55.5"/>
<text text-anchor="middle" x="204.43" y="-61.5" font-family="Helvetica,sans-Serif" font-size="10.00">MainClass.cpp</text>
</a>
</g>
</g>
<!-- Node2&#45;&gt;Node5 -->
<g id="edge4" class="edge">
<title>Node2&#45;&gt;Node5</title>
<path fill="none" stroke="midnightblue" d="M1187.21,-118.48C1056.48,-118.03 615.22,-113.5 253.43,-74 250.77,-73.71 248.03,-73.36 245.28,-72.98"/>
<polygon fill="midnightblue" stroke="midnightblue" points="1187.48,-121.98 1197.49,-118.51 1187.5,-114.98 1187.48,-121.98"/>
</g>
<!-- Node6 -->
<g id="node6" class="node">
<title>Node6</title>
<g id="a_node6"><a xlink:href="../../d5/ddd/tralics_8cpp.html" target="_top" xlink:title=" ">
<polygon fill="none" stroke="black" points="262.92,-55.5 262.92,-73.5 323.94,-73.5 323.94,-55.5 262.92,-55.5"/>
<text text-anchor="middle" x="293.43" y="-61.5" font-family="Helvetica,sans-Serif" font-size="10.00">tralics.cpp</text>
</a>
</g>
</g>
<!-- Node2&#45;&gt;Node6 -->
<g id="edge5" class="edge">
<title>Node2&#45;&gt;Node6</title>
<path fill="none" stroke="midnightblue" d="M1187.45,-118.76C1063.85,-119.16 662.11,-116.84 333.43,-74 330.47,-73.61 327.41,-73.13 324.35,-72.58"/>
<polygon fill="midnightblue" stroke="midnightblue" points="1187.55,-122.26 1197.54,-118.72 1187.52,-115.26 1187.55,-122.26"/>
</g>
<!-- Node7 -->
<g id="node7" class="node">
<title>Node7</title>
<g id="a_node7"><a xlink:href="../../dd/dce/txaccent_8cpp.html" target="_top" xlink:title=" ">
<polygon fill="none" stroke="black" points="342.36,-55.5 342.36,-73.5 414.5,-73.5 414.5,-55.5 342.36,-55.5"/>
<text text-anchor="middle" x="378.43" y="-61.5" font-family="Helvetica,sans-Serif" font-size="10.00">txaccent.cpp</text>
</a>
</g>
</g>
<!-- Node2&#45;&gt;Node7 -->
<g id="edge6" class="edge">
<title>Node2&#45;&gt;Node7</title>
<path fill="none" stroke="midnightblue" d="M1187.53,-118.16C1072.29,-116.75 716.07,-109.6 423.43,-74 420.59,-73.65 417.66,-73.24 414.71,-72.78"/>
<polygon fill="midnightblue" stroke="midnightblue" points="1187.57,-121.66 1197.61,-118.28 1187.65,-114.66 1187.57,-121.66"/>
</g>
<!-- Node8 -->
<g id="node8" class="node">
<title>Node8</title>
<g id="a_node8"><a xlink:href="../../d7/de8/txarray_8cpp.html" target="_top" xlink:title=" ">
<polygon fill="none" stroke="black" points="432.07,-55.5 432.07,-73.5 496.79,-73.5 496.79,-55.5 432.07,-55.5"/>
<text text-anchor="middle" x="464.43" y="-61.5" font-family="Helvetica,sans-Serif" font-size="10.00">txarray.cpp</text>
</a>
</g>
</g>
<!-- Node2&#45;&gt;Node8 -->
<g id="edge7" class="edge">
<title>Node2&#45;&gt;Node8</title>
<path fill="none" stroke="midnightblue" d="M1187.46,-118.06C1079.97,-116.4 764.61,-108.7 505.43,-74 502.69,-73.63 499.86,-73.19 497.03,-72.7"/>
<polygon fill="midnightblue" stroke="midnightblue" points="1187.44,-121.56 1197.49,-118.2 1187.54,-114.56 1187.44,-121.56"/>
</g>
<!-- Node9 -->
<g id="node9" class="node">
<title>Node9</title>
<g id="a_node9"><a xlink:href="../../d5/d6d/txatt_8cpp.html" target="_top" xlink:title=" ">
<polygon fill="none" stroke="black" points="514.53,-55.5 514.53,-73.5 568.33,-73.5 568.33,-55.5 514.53,-55.5"/>
<text text-anchor="middle" x="541.43" y="-61.5" font-family="Helvetica,sans-Serif" font-size="10.00">txatt.cpp</text>
</a>
</g>
</g>
<!-- Node2&#45;&gt;Node9 -->
<g id="edge8" class="edge">
<title>Node2&#45;&gt;Node9</title>
<path fill="none" stroke="midnightblue" d="M1187.2,-118.05C1086.73,-116.39 807.1,-108.76 577.43,-74 574.51,-73.56 571.47,-73 568.46,-72.38"/>
<polygon fill="midnightblue" stroke="midnightblue" points="1187.41,-121.55 1197.46,-118.21 1187.52,-114.55 1187.41,-121.55"/>
</g>
<!-- Node10 -->
<g id="node10" class="node">
<title>Node10</title>
<g id="a_node10"><a xlink:href="../../d1/daa/txaux_8cpp.html" target="_top" xlink:title=" ">
<polygon fill="none" stroke="black" points="586.03,-55.5 586.03,-73.5 644.83,-73.5 644.83,-55.5 586.03,-55.5"/>
<text text-anchor="middle" x="615.43" y="-61.5" font-family="Helvetica,sans-Serif" font-size="10.00">txaux.cpp</text>
</a>
</g>
</g>
<!-- Node2&#45;&gt;Node10 -->
<g id="edge9" class="edge">
<title>Node2&#45;&gt;Node10</title>
<path fill="none" stroke="midnightblue" d="M1187.37,-117.41C1095.24,-114.37 853.12,-103.95 653.43,-74 650.75,-73.6 647.99,-73.12 645.22,-72.59"/>
<polygon fill="midnightblue" stroke="midnightblue" points="1187.48,-120.92 1197.59,-117.74 1187.71,-113.92 1187.48,-120.92"/>
</g>
<!-- Node11 -->
<g id="node11" class="node">
<title>Node11</title>
<g id="a_node11"><a xlink:href="../../d6/dcb/txbib_8h.html" target="_top" xlink:title=" ">
<polygon fill="none" stroke="black" points="662.7,-55.5 662.7,-73.5 708.16,-73.5 708.16,-55.5 662.7,-55.5"/>
<text text-anchor="middle" x="685.43" y="-61.5" font-family="Helvetica,sans-Serif" font-size="10.00">txbib.h</text>
</a>
</g>
</g>
<!-- Node2&#45;&gt;Node11 -->
<g id="edge10" class="edge">
<title>Node2&#45;&gt;Node11</title>
<path fill="none" stroke="midnightblue" d="M1187.5,-117.41C1102.66,-114.48 891.37,-104.49 717.43,-74 714.49,-73.48 711.42,-72.83 708.4,-72.11"/>
<polygon fill="midnightblue" stroke="midnightblue" points="1187.57,-120.91 1197.68,-117.75 1187.8,-113.92 1187.57,-120.91"/>
</g>
<!-- Node14 -->
<g id="node14" class="node">
<title>Node14</title>
<g id="a_node14"><a xlink:href="../../d4/dee/txclasses_8cpp.html" target="_top" xlink:title=" ">
<polygon fill="none" stroke="black" points="726.42,-55.5 726.42,-73.5 802.44,-73.5 802.44,-55.5 726.42,-55.5"/>
<text text-anchor="middle" x="764.43" y="-61.5" font-family="Helvetica,sans-Serif" font-size="10.00">txclasses.cpp</text>
</a>
</g>
</g>
<!-- Node2&#45;&gt;Node14 -->
<g id="edge13" class="edge">
<title>Node2&#45;&gt;Node14</title>
<path fill="none" stroke="midnightblue" d="M1187.11,-115.31C1113.9,-109 949.19,-93.83 811.43,-74 808.56,-73.59 805.59,-73.13 802.61,-72.64"/>
<polygon fill="midnightblue" stroke="midnightblue" points="1186.97,-118.81 1197.23,-116.17 1187.57,-111.83 1186.97,-118.81"/>
</g>
<!-- Node15 -->
<g id="node15" class="node">
<title>Node15</title>
<g id="a_node15"><a xlink:href="../../df/d98/txconfig_8cpp.html" target="_top" xlink:title=" ">
<polygon fill="none" stroke="black" points="820.75,-55.5 820.75,-73.5 890.11,-73.5 890.11,-55.5 820.75,-55.5"/>
<text text-anchor="middle" x="855.43" y="-61.5" font-family="Helvetica,sans-Serif" font-size="10.00">txconfig.cpp</text>
</a>
</g>
</g>
<!-- Node2&#45;&gt;Node15 -->
<g id="edge14" class="edge">
<title>Node2&#45;&gt;Node15</title>
<path fill="none" stroke="midnightblue" d="M1187.14,-113.97C1126.12,-106.59 1003.11,-91.08 899.43,-74 896.51,-73.52 893.49,-72.99 890.46,-72.45"/>
<polygon fill="midnightblue" stroke="midnightblue" points="1187.1,-117.49 1197.44,-115.21 1187.93,-110.54 1187.1,-117.49"/>
</g>
<!-- Node16 -->
<g id="node16" class="node">
<title>Node16</title>
<g id="a_node16"><a xlink:href="../../d8/d02/txerr_8cpp.html" target="_top" xlink:title=" ">
<polygon fill="none" stroke="black" points="908.25,-55.5 908.25,-73.5 962.61,-73.5 962.61,-55.5 908.25,-55.5"/>
<text text-anchor="middle" x="935.43" y="-61.5" font-family="Helvetica,sans-Serif" font-size="10.00">txerr.cpp</text>
</a>
</g>
</g>
<!-- Node2&#45;&gt;Node16 -->
<g id="edge15" class="edge">
<title>Node2&#45;&gt;Node16</title>
<path fill="none" stroke="midnightblue" d="M1187.53,-112.57C1137.77,-104.62 1047.78,-89.69 971.43,-74 968.66,-73.43 965.78,-72.81 962.91,-72.16"/>
<polygon fill="midnightblue" stroke="midnightblue" points="1187.09,-116.04 1197.52,-114.16 1188.19,-109.13 1187.09,-116.04"/>
</g>
<!-- Node17 -->
<g id="node17" class="node">
<title>Node17</title>
<g id="a_node17"><a xlink:href="../../d6/dc0/txfonts_8cpp.html" target="_top" xlink:title=" ">
<polygon fill="none" stroke="black" points="980.25,-55.5 980.25,-73.5 1044.61,-73.5 1044.61,-55.5 980.25,-55.5"/>
<text text-anchor="middle" x="1012.43" y="-61.5" font-family="Helvetica,sans-Serif" font-size="10.00">txfonts.cpp</text>
</a>
</g>
</g>
<!-- Node2&#45;&gt;Node17 -->
<g id="edge16" class="edge">
<title>Node2&#45;&gt;Node17</title>
<path fill="none" stroke="midnightblue" d="M1187.8,-109.14C1147.2,-99.04 1083.24,-83.12 1044.81,-73.56"/>
<polygon fill="midnightblue" stroke="midnightblue" points="1187.03,-112.55 1197.58,-111.57 1188.72,-105.76 1187.03,-112.55"/>
</g>
<!-- Node18 -->
<g id="node18" class="node">
<title>Node18</title>
<g id="a_node18"><a xlink:href="../../d7/d80/txfp_8cpp.html" target="_top" xlink:title=" ">
<polygon fill="none" stroke="black" points="1062.92,-55.5 1062.92,-73.5 1113.94,-73.5 1113.94,-55.5 1062.92,-55.5"/>
<text text-anchor="middle" x="1088.43" y="-61.5" font-family="Helvetica,sans-Serif" font-size="10.00">txfp.cpp</text>
</a>
</g>
</g>
<!-- Node2&#45;&gt;Node18 -->
<g id="edge17" class="edge">
<title>Node2&#45;&gt;Node18</title>
<path fill="none" stroke="midnightblue" d="M1195.24,-106.82C1169.22,-96.76 1132.35,-82.49 1109.43,-73.63"/>
<polygon fill="midnightblue" stroke="midnightblue" points="1194.03,-110.11 1204.62,-110.45 1196.56,-103.58 1194.03,-110.11"/>
</g>
<!-- Node19 -->
<g id="node19" class="node">
<title>Node19</title>
<g id="a_node19"><a xlink:href="../../d0/d1f/txio_8cpp.html" target="_top" xlink:title=" ">
<polygon fill="none" stroke="black" points="1132.2,-55.5 1132.2,-73.5 1182.66,-73.5 1182.66,-55.5 1132.2,-55.5"/>
<text text-anchor="middle" x="1157.43" y="-61.5" font-family="Helvetica,sans-Serif" font-size="10.00">txio.cpp</text>
</a>
</g>
</g>
<!-- Node2&#45;&gt;Node19 -->
<g id="edge18" class="edge">
<title>Node2&#45;&gt;Node19</title>
<path fill="none" stroke="midnightblue" d="M1207.09,-104.21C1194.52,-94.41 1178.27,-81.75 1167.85,-73.63"/>
<polygon fill="midnightblue" stroke="midnightblue" points="1205.06,-107.06 1215.1,-110.45 1209.37,-101.54 1205.06,-107.06"/>
</g>
<!-- Node20 -->
<g id="node20" class="node">
<title>Node20</title>
<g id="a_node20"><a xlink:href="../../d0/dc3/txl3_8cpp.html" target="_top" xlink:title=" ">
<polygon fill="none" stroke="black" points="1200.2,-55.5 1200.2,-73.5 1250.66,-73.5 1250.66,-55.5 1200.2,-55.5"/>
<text text-anchor="middle" x="1225.43" y="-61.5" font-family="Helvetica,sans-Serif" font-size="10.00">txl3.cpp</text>
</a>
</g>
</g>
<!-- Node2&#45;&gt;Node20 -->
<g id="edge19" class="edge">
<title>Node2&#45;&gt;Node20</title>
<path fill="none" stroke="midnightblue" d="M1225.43,-100.17C1225.43,-91.09 1225.43,-80.59 1225.43,-73.55"/>
<polygon fill="midnightblue" stroke="midnightblue" points="1221.93,-100.22 1225.43,-110.22 1228.93,-100.22 1221.93,-100.22"/>
</g>
<!-- Node21 -->
<g id="node21" class="node">
<title>Node21</title>
<g id="a_node21"><a xlink:href="../../d4/dd9/txmath_8cpp.html" target="_top" xlink:title=" ">
<polygon fill="none" stroke="black" points="1268.97,-55.5 1268.97,-73.5 1333.88,-73.5 1333.88,-55.5 1268.97,-55.5"/>
<text text-anchor="middle" x="1301.43" y="-61.5" font-family="Helvetica,sans-Serif" font-size="10.00">txmath.cpp</text>
</a>
</g>
</g>
<!-- Node2&#45;&gt;Node21 -->
<g id="edge20" class="edge">
<title>Node2&#45;&gt;Node21</title>
<path fill="none" stroke="midnightblue" d="M1245.52,-104.49C1259.63,-94.65 1278.02,-81.83 1289.78,-73.63"/>
<polygon fill="midnightblue" stroke="midnightblue" points="1243.17,-101.86 1236.97,-110.45 1247.18,-107.6 1243.17,-101.86"/>
</g>
<!-- Node22 -->
<g id="node22" class="node">
<title>Node22</title>
<g id="a_node22"><a xlink:href="../../dc/d78/txmath1_8cpp.html" target="_top" xlink:title=" ">
<polygon fill="none" stroke="black" points="1352.19,-55.5 1352.19,-73.5 1422.67,-73.5 1422.67,-55.5 1352.19,-55.5"/>
<text text-anchor="middle" x="1387.43" y="-61.5" font-family="Helvetica,sans-Serif" font-size="10.00">txmath1.cpp</text>
</a>
</g>
</g>
<!-- Node2&#45;&gt;Node22 -->
<g id="edge21" class="edge">
<title>Node2&#45;&gt;Node22</title>
<path fill="none" stroke="midnightblue" d="M1259.55,-107.34C1290.48,-97.22 1335.32,-82.55 1362.86,-73.54"/>
<polygon fill="midnightblue" stroke="midnightblue" points="1258.45,-104.01 1250.03,-110.45 1260.63,-110.67 1258.45,-104.01"/>
</g>
<!-- Node23 -->
<g id="node23" class="node">
<title>Node23</title>
<g id="a_node23"><a xlink:href="../../d9/d59/txmathboot_8cpp.html" target="_top" xlink:title=" ">
<polygon fill="none" stroke="black" points="1440.24,-55.5 1440.24,-73.5 1524.62,-73.5 1524.62,-55.5 1440.24,-55.5"/>
<text text-anchor="middle" x="1482.43" y="-61.5" font-family="Helvetica,sans-Serif" font-size="10.00">txmathboot.cpp</text>
</a>
</g>
</g>
<!-- Node2&#45;&gt;Node23 -->
<g id="edge22" class="edge">
<title>Node2&#45;&gt;Node23</title>
<path fill="none" stroke="midnightblue" d="M1263.48,-110.65C1311.85,-100.68 1394.9,-83.55 1443.62,-73.5"/>
<polygon fill="midnightblue" stroke="midnightblue" points="1262.51,-107.28 1253.42,-112.73 1263.92,-114.14 1262.51,-107.28"/>
</g>
<!-- Node24 -->
<g id="node24" class="node">
<title>Node24</title>
<g id="a_node24"><a xlink:href="../../de/de4/txmlio_8cpp.html" target="_top" xlink:title=" ">
<polygon fill="none" stroke="black" points="1542.92,-55.5 1542.92,-73.5 1603.94,-73.5 1603.94,-55.5 1542.92,-55.5"/>
<text text-anchor="middle" x="1573.43" y="-61.5" font-family="Helvetica,sans-Serif" font-size="10.00">txmlio.cpp</text>
</a>
</g>
</g>
<!-- Node2&#45;&gt;Node24 -->
<g id="edge23" class="edge">
<title>Node2&#45;&gt;Node24</title>
<path fill="none" stroke="midnightblue" d="M1263.79,-113.78C1322.18,-106.42 1436.79,-91.23 1533.43,-74 1536.5,-73.45 1539.7,-72.84 1542.89,-72.2"/>
<polygon fill="midnightblue" stroke="midnightblue" points="1263.04,-110.35 1253.56,-115.07 1263.91,-117.3 1263.04,-110.35"/>
</g>
<!-- Node25 -->
<g id="node25" class="node">
<title>Node25</title>
<g id="a_node25"><a xlink:href="../../df/da9/txparser_8cpp.html" target="_top" xlink:title=" ">
<polygon fill="none" stroke="black" points="1622.19,-55.5 1622.19,-73.5 1692.67,-73.5 1692.67,-55.5 1622.19,-55.5"/>
<text text-anchor="middle" x="1657.43" y="-61.5" font-family="Helvetica,sans-Serif" font-size="10.00">txparser.cpp</text>
</a>
</g>
</g>
<!-- Node2&#45;&gt;Node25 -->
<g id="edge24" class="edge">
<title>Node2&#45;&gt;Node25</title>
<path fill="none" stroke="midnightblue" d="M1263.33,-115.13C1332.91,-108.72 1485.62,-93.64 1613.43,-74 1616.2,-73.57 1619.06,-73.1 1621.93,-72.6"/>
<polygon fill="midnightblue" stroke="midnightblue" points="1262.92,-111.65 1253.29,-116.04 1263.56,-118.62 1262.92,-111.65"/>
</g>
<!-- Node26 -->
<g id="node26" class="node">
<title>Node26</title>
<g id="a_node26"><a xlink:href="../../da/d5e/txparser2_8h.html" target="_top" xlink:title=" ">
<polygon fill="none" stroke="black" points="1710.42,-55.5 1710.42,-73.5 1776.44,-73.5 1776.44,-55.5 1710.42,-55.5"/>
<text text-anchor="middle" x="1743.43" y="-61.5" font-family="Helvetica,sans-Serif" font-size="10.00">txparser2.h</text>
</a>
</g>
</g>
<!-- Node2&#45;&gt;Node26 -->
<g id="edge25" class="edge">
<title>Node2&#45;&gt;Node26</title>
<path fill="none" stroke="midnightblue" d="M1263.37,-116.33C1344.23,-111.4 1539.35,-97.91 1701.43,-74 1704.23,-73.59 1707.12,-73.11 1710.01,-72.6"/>
<polygon fill="midnightblue" stroke="midnightblue" points="1262.96,-112.85 1253.18,-116.94 1263.38,-119.84 1262.96,-112.85"/>
</g>
<!-- Node28 -->
<g id="node28" class="node">
<title>Node28</title>
<g id="a_node28"><a xlink:href="../../de/da4/txparser3_8cpp.html" target="_top" xlink:title=" ">
<polygon fill="none" stroke="black" points="1794.14,-55.5 1794.14,-73.5 1870.72,-73.5 1870.72,-55.5 1794.14,-55.5"/>
<text text-anchor="middle" x="1832.43" y="-61.5" font-family="Helvetica,sans-Serif" font-size="10.00">txparser3.cpp</text>
</a>
</g>
</g>
<!-- Node2&#45;&gt;Node28 -->
<g id="edge27" class="edge">
<title>Node2&#45;&gt;Node28</title>
<path fill="none" stroke="midnightblue" d="M1263.26,-116.8C1353.78,-112.44 1589.83,-99.4 1785.43,-74 1788.23,-73.64 1791.11,-73.22 1794,-72.77"/>
<polygon fill="midnightblue" stroke="midnightblue" points="1263.03,-113.3 1253.21,-117.27 1263.36,-120.3 1263.03,-113.3"/>
</g>
<!-- Node29 -->
<g id="node29" class="node">
<title>Node29</title>
<g id="a_node29"><a xlink:href="../../d6/d4a/txpost_8cpp.html" target="_top" xlink:title=" ">
<polygon fill="none" stroke="black" points="1888.64,-55.5 1888.64,-73.5 1950.22,-73.5 1950.22,-55.5 1888.64,-55.5"/>
<text text-anchor="middle" x="1919.43" y="-61.5" font-family="Helvetica,sans-Serif" font-size="10.00">txpost.cpp</text>
</a>
</g>
</g>
<!-- Node2&#45;&gt;Node29 -->
<g id="edge28" class="edge">
<title>Node2&#45;&gt;Node29</title>
<path fill="none" stroke="midnightblue" d="M1263.3,-117.79C1364.04,-115.51 1646.74,-106.47 1879.43,-74 1882.38,-73.59 1885.44,-73.08 1888.5,-72.52"/>
<polygon fill="midnightblue" stroke="midnightblue" points="1263.22,-114.29 1253.3,-118.01 1263.38,-121.29 1263.22,-114.29"/>
</g>
<!-- Node30 -->
<g id="node30" class="node">
<title>Node30</title>
<g id="a_node30"><a xlink:href="../../d3/dd3/txra_8cpp.html" target="_top" xlink:title=" ">
<polygon fill="none" stroke="black" points="1968.64,-55.5 1968.64,-73.5 2020.21,-73.5 2020.21,-55.5 1968.64,-55.5"/>
<text text-anchor="middle" x="1994.43" y="-61.5" font-family="Helvetica,sans-Serif" font-size="10.00">txra.cpp</text>
</a>
</g>
</g>
<!-- Node2&#45;&gt;Node30 -->
<g id="edge29" class="edge">
<title>Node2&#45;&gt;Node30</title>
<path fill="none" stroke="midnightblue" d="M1263.45,-118.57C1372.46,-118.25 1695.23,-113.77 1959.43,-74 1962.4,-73.55 1965.48,-72.98 1968.54,-72.33"/>
<polygon fill="midnightblue" stroke="midnightblue" points="1263.27,-115.07 1253.28,-118.59 1263.28,-122.07 1263.27,-115.07"/>
</g>
<!-- Node31 -->
<g id="node31" class="node">
<title>Node31</title>
<g id="a_node31"><a xlink:href="../../df/d8f/txscan_8cpp.html" target="_top" xlink:title=" ">
<polygon fill="none" stroke="black" points="2038.53,-55.5 2038.53,-73.5 2102.33,-73.5 2102.33,-55.5 2038.53,-55.5"/>
<text text-anchor="middle" x="2070.43" y="-61.5" font-family="Helvetica,sans-Serif" font-size="10.00">txscan.cpp</text>
</a>
</g>
</g>
<!-- Node2&#45;&gt;Node31 -->
<g id="edge30" class="edge">
<title>Node2&#45;&gt;Node31</title>
<path fill="none" stroke="midnightblue" d="M1263.45,-118.4C1379.06,-117.68 1736.39,-112.27 2029.43,-74 2032.31,-73.62 2035.3,-73.16 2038.28,-72.64"/>
<polygon fill="midnightblue" stroke="midnightblue" points="1263.32,-114.9 1253.34,-118.46 1263.36,-121.9 1263.32,-114.9"/>
</g>
<!-- Node32 -->
<g id="node32" class="node">
<title>Node32</title>
<g id="a_node32"><a xlink:href="../../d5/dbc/txstack_8cpp.html" target="_top" xlink:title=" ">
<polygon fill="none" stroke="black" points="2120.42,-55.5 2120.42,-73.5 2186.44,-73.5 2186.44,-55.5 2120.42,-55.5"/>
<text text-anchor="middle" x="2153.43" y="-61.5" font-family="Helvetica,sans-Serif" font-size="10.00">txstack.cpp</text>
</a>
</g>
</g>
<!-- Node2&#45;&gt;Node32 -->
<g id="edge31" class="edge">
<title>Node2&#45;&gt;Node32</title>
<path fill="none" stroke="midnightblue" d="M1263.56,-118.62C1386.76,-118.56 1785.13,-114.98 2111.43,-74 2114.23,-73.65 2117.13,-73.21 2120.03,-72.73"/>
<polygon fill="midnightblue" stroke="midnightblue" points="1263.49,-115.12 1253.49,-118.61 1263.49,-122.12 1263.49,-115.12"/>
</g>
<!-- Node33 -->
<g id="node33" class="node">
<title>Node33</title>
<g id="a_node33"><a xlink:href="../../d1/dc8/txtitlepage_8cpp.html" target="_top" xlink:title=" ">
<polygon fill="none" stroke="black" points="2204.19,-55.5 2204.19,-73.5 2284.67,-73.5 2284.67,-55.5 2204.19,-55.5"/>
<text text-anchor="middle" x="2244.43" y="-61.5" font-family="Helvetica,sans-Serif" font-size="10.00">txtitlepage.cpp</text>
</a>
</g>
</g>
<!-- Node2&#45;&gt;Node33 -->
<g id="edge32" class="edge">
<title>Node2&#45;&gt;Node33</title>
<path fill="none" stroke="midnightblue" d="M1263.57,-118.47C1394.03,-118.01 1834.38,-113.44 2195.43,-74 2198.26,-73.69 2201.18,-73.32 2204.11,-72.91"/>
<polygon fill="midnightblue" stroke="midnightblue" points="1263.3,-114.97 1253.31,-118.5 1263.32,-121.97 1263.3,-114.97"/>
</g>
<!-- Node34 -->
<g id="node34" class="node">
<title>Node34</title>
<g id="a_node34"><a xlink:href="../../d7/d6c/txtoken_8cpp.html" target="_top" xlink:title=" ">
<polygon fill="none" stroke="black" points="2302.86,-55.5 2302.86,-73.5 2370,-73.5 2370,-55.5 2302.86,-55.5"/>
<text text-anchor="middle" x="2336.43" y="-61.5" font-family="Helvetica,sans-Serif" font-size="10.00">txtoken.cpp</text>
</a>
</g>
</g>
<!-- Node2&#45;&gt;Node34 -->
<g id="edge33" class="edge">
<title>Node2&#45;&gt;Node34</title>
<path fill="none" stroke="midnightblue" d="M1263.28,-119.02C1401.59,-120.46 1892.47,-121.7 2293.43,-74 2296.45,-73.64 2299.58,-73.19 2302.71,-72.67"/>
<polygon fill="midnightblue" stroke="midnightblue" points="1263.23,-115.52 1253.19,-118.9 1263.16,-122.52 1263.23,-115.52"/>
</g>
<!-- Node35 -->
<g id="node35" class="node">
<title>Node35</title>
<g id="a_node35"><a xlink:href="../../dd/da4/txtranslate_8cpp.html" target="_top" xlink:title=" ">
<polygon fill="none" stroke="black" points="2387.91,-55.5 2387.91,-73.5 2468.95,-73.5 2468.95,-55.5 2387.91,-55.5"/>
<text text-anchor="middle" x="2428.43" y="-61.5" font-family="Helvetica,sans-Serif" font-size="10.00">txtranslate.cpp</text>
</a>
</g>
</g>
<!-- Node2&#45;&gt;Node35 -->
<g id="edge34" class="edge">
<title>Node2&#45;&gt;Node35</title>
<path fill="none" stroke="midnightblue" d="M1263.38,-118.87C1408.59,-119.89 1942.73,-120.09 2379.43,-74 2382.18,-73.71 2385,-73.36 2387.85,-72.97"/>
<polygon fill="midnightblue" stroke="midnightblue" points="1263.24,-115.37 1253.21,-118.79 1263.19,-122.37 1263.24,-115.37"/>
</g>
<!-- Node36 -->
<g id="node36" class="node">
<title>Node36</title>
<g id="a_node36"><a xlink:href="../../d0/d93/txtrees_8cpp.html" target="_top" xlink:title=" ">
<polygon fill="none" stroke="black" points="2486.97,-55.5 2486.97,-73.5 2551.88,-73.5 2551.88,-55.5 2486.97,-55.5"/>
<text text-anchor="middle" x="2519.43" y="-61.5" font-family="Helvetica,sans-Serif" font-size="10.00">txtrees.cpp</text>
</a>
</g>
</g>
<!-- Node2&#45;&gt;Node36 -->
<g id="edge35" class="edge">
<title>Node2&#45;&gt;Node36</title>
<path fill="none" stroke="midnightblue" d="M1263.56,-118.01C1446.38,-115.55 2234.49,-103.4 2478.43,-74 2481.17,-73.67 2484,-73.25 2486.84,-72.77"/>
<polygon fill="midnightblue" stroke="midnightblue" points="1263.31,-114.52 1253.36,-118.15 1263.4,-121.52 1263.31,-114.52"/>
</g>
<!-- Node12 -->
<g id="node12" class="node">
<title>Node12</title>
<g id="a_node12"><a xlink:href="../../d1/ddd/txbib_8cpp.html" target="_top" xlink:title=" ">
<polygon fill="none" stroke="black" points="611.42,-0.5 611.42,-18.5 667.44,-18.5 667.44,-0.5 611.42,-0.5"/>
<text text-anchor="middle" x="639.43" y="-6.5" font-family="Helvetica,sans-Serif" font-size="10.00">txbib.cpp</text>
</a>
</g>
</g>
<!-- Node11&#45;&gt;Node12 -->
<g id="edge11" class="edge">
<title>Node11&#45;&gt;Node12</title>
<path fill="none" stroke="midnightblue" d="M671.57,-47.53C663.27,-37.97 653.07,-26.21 646.42,-18.55"/>
<polygon fill="midnightblue" stroke="midnightblue" points="669.04,-49.96 678.24,-55.22 674.33,-45.37 669.04,-49.96"/>
</g>
<!-- Node13 -->
<g id="node13" class="node">
<title>Node13</title>
<g id="a_node13"><a xlink:href="../../df/d9e/txcommands_8cpp.html" target="_top" xlink:title=" ">
<polygon fill="none" stroke="black" points="685.64,-0.5 685.64,-18.5 777.22,-18.5 777.22,-0.5 685.64,-0.5"/>
<text text-anchor="middle" x="731.43" y="-6.5" font-family="Helvetica,sans-Serif" font-size="10.00">txcommands.cpp</text>
</a>
</g>
</g>
<!-- Node11&#45;&gt;Node13 -->
<g id="edge12" class="edge">
<title>Node11&#45;&gt;Node13</title>
<path fill="none" stroke="midnightblue" d="M699.29,-47.53C707.59,-37.97 717.79,-26.21 724.44,-18.55"/>
<polygon fill="midnightblue" stroke="midnightblue" points="696.53,-45.37 692.62,-55.22 701.81,-49.96 696.53,-45.37"/>
</g>
<!-- Node27 -->
<g id="node27" class="node">
<title>Node27</title>
<g id="a_node27"><a xlink:href="../../d0/d24/txparser2_8cpp.html" target="_top" xlink:title=" ">
<polygon fill="none" stroke="black" points="1705.14,-0.5 1705.14,-18.5 1781.72,-18.5 1781.72,-0.5 1705.14,-0.5"/>
<text text-anchor="middle" x="1743.43" y="-6.5" font-family="Helvetica,sans-Serif" font-size="10.00">txparser2.cpp</text>
</a>
</g>
</g>
<!-- Node26&#45;&gt;Node27 -->
<g id="edge26" class="edge">
<title>Node26&#45;&gt;Node27</title>
<path fill="none" stroke="midnightblue" d="M1743.43,-45.17C1743.43,-36.09 1743.43,-25.59 1743.43,-18.55"/>
<polygon fill="midnightblue" stroke="midnightblue" points="1739.93,-45.22 1743.43,-55.22 1746.93,-45.22 1739.93,-45.22"/>
</g>
</g>
</svg>
