<?xml version="1.0" encoding="UTF-8" standalone="no"?>
<!DOCTYPE svg PUBLIC "-//W3C//DTD SVG 1.1//EN"
 "http://www.w3.org/Graphics/SVG/1.1/DTD/svg11.dtd">
<!-- Generated by graphviz version 2.42.3 (20191010.1750)
 -->
<!-- Title: txparser2.h Pages: 1 -->
<svg width="867pt" height="687pt"
 viewBox="0.00 0.00 866.64 687.00" xmlns="http://www.w3.org/2000/svg" xmlns:xlink="http://www.w3.org/1999/xlink">
<g id="graph0" class="graph" transform="scale(1 1) rotate(0) translate(4 683)">
<title>txparser2.h</title>
<!-- Node1 -->
<g id="node1" class="node">
<title>Node1</title>
<g id="a_node1"><a xlink:title=" ">
<polygon fill="#bfbfbf" stroke="black" points="391.67,-660.5 391.67,-678.5 457.7,-678.5 457.7,-660.5 391.67,-660.5"/>
<text text-anchor="middle" x="424.68" y="-666.5" font-family="Helvetica,sans-Serif" font-size="10.00">txparser2.h</text>
</a>
</g>
</g>
<!-- Node2 -->
<g id="node2" class="node">
<title>Node2</title>
<g id="a_node2"><a xlink:href="../../dc/dd7/txclasses_8h.html" target="_top" xlink:title=" ">
<polygon fill="none" stroke="black" points="542.95,-605.5 542.95,-623.5 608.42,-623.5 608.42,-605.5 542.95,-605.5"/>
<text text-anchor="middle" x="575.68" y="-611.5" font-family="Helvetica,sans-Serif" font-size="10.00">txclasses.h</text>
</a>
</g>
</g>
<!-- Node1&#45;&gt;Node2 -->
<g id="edge1" class="edge">
<title>Node1&#45;&gt;Node2</title>
<path fill="none" stroke="midnightblue" d="M447.62,-660.45C473.01,-651.54 514.14,-637.1 542.92,-627"/>
<polygon fill="midnightblue" stroke="midnightblue" points="544.26,-630.24 552.54,-623.63 541.94,-623.63 544.26,-630.24"/>
</g>
<!-- Node26 -->
<g id="node26" class="node">
<title>Node26</title>
<g id="a_node26"><a xlink:href="../../d7/d79/txinline_8h.html" target="_top" xlink:title=" ">
<polygon fill="none" stroke="black" points="147.95,-605.5 147.95,-623.5 203.42,-623.5 203.42,-605.5 147.95,-605.5"/>
<text text-anchor="middle" x="175.68" y="-611.5" font-family="Helvetica,sans-Serif" font-size="10.00">txinline.h</text>
</a>
</g>
</g>
<!-- Node1&#45;&gt;Node26 -->
<g id="edge31" class="edge">
<title>Node1&#45;&gt;Node26</title>
<path fill="none" stroke="midnightblue" d="M391.62,-661.46C345.43,-651.63 261.81,-633.83 213.3,-623.51"/>
<polygon fill="midnightblue" stroke="midnightblue" points="214.02,-620.08 203.51,-621.42 212.56,-626.93 214.02,-620.08"/>
</g>
<!-- Node33 -->
<g id="node33" class="node">
<title>Node33</title>
<g id="a_node33"><a xlink:href="../../d2/d1b/txparser_8h.html" target="_top" xlink:title=" ">
<polygon fill="none" stroke="black" points="394.73,-605.5 394.73,-623.5 454.64,-623.5 454.64,-605.5 394.73,-605.5"/>
<text text-anchor="middle" x="424.68" y="-611.5" font-family="Helvetica,sans-Serif" font-size="10.00">txparser.h</text>
</a>
</g>
</g>
<!-- Node1&#45;&gt;Node33 -->
<g id="edge41" class="edge">
<title>Node1&#45;&gt;Node33</title>
<path fill="none" stroke="midnightblue" d="M424.68,-660.22C424.68,-653.18 424.68,-642.81 424.68,-633.83"/>
<polygon fill="midnightblue" stroke="midnightblue" points="428.18,-633.55 424.68,-623.55 421.18,-633.55 428.18,-633.55"/>
</g>
<!-- Node3 -->
<g id="node3" class="node">
<title>Node3</title>
<g id="a_node3"><a xlink:href="../../d7/d1b/_buffer_8h.html" target="_top" xlink:title=" ">
<polygon fill="none" stroke="black" points="483.09,-440.5 483.09,-458.5 562.28,-458.5 562.28,-440.5 483.09,-440.5"/>
<text text-anchor="middle" x="522.68" y="-446.5" font-family="Helvetica,sans-Serif" font-size="10.00">tralics/Buffer.h</text>
</a>
</g>
</g>
<!-- Node2&#45;&gt;Node3 -->
<g id="edge2" class="edge">
<title>Node2&#45;&gt;Node3</title>
<path fill="none" stroke="midnightblue" d="M577.61,-605.24C581.85,-585.2 590.27,-532.9 572.68,-495 566.88,-482.48 555.7,-472 545.38,-464.36"/>
<polygon fill="midnightblue" stroke="midnightblue" points="547.28,-461.42 537.05,-458.63 543.31,-467.19 547.28,-461.42"/>
</g>
<!-- Node4 -->
<g id="node4" class="node">
<title>Node4</title>
<g id="a_node4"><a xlink:href="../../d1/d9e/txid_8h.html" target="_top" xlink:title=" ">
<polygon fill="none" stroke="black" points="563.57,-385.5 563.57,-403.5 611.8,-403.5 611.8,-385.5 563.57,-385.5"/>
<text text-anchor="middle" x="587.68" y="-391.5" font-family="Helvetica,sans-Serif" font-size="10.00">../txid.h</text>
</a>
</g>
</g>
<!-- Node3&#45;&gt;Node4 -->
<g id="edge3" class="edge">
<title>Node3&#45;&gt;Node4</title>
<path fill="none" stroke="midnightblue" d="M532.56,-440.45C542.39,-432.43 557.7,-419.95 569.7,-410.17"/>
<polygon fill="midnightblue" stroke="midnightblue" points="572.18,-412.66 577.72,-403.63 567.76,-407.23 572.18,-412.66"/>
</g>
<!-- Node17 -->
<g id="node17" class="node">
<title>Node17</title>
<g id="a_node17"><a xlink:href="../../d9/d18/txscaled_8h.html" target="_top" xlink:title=" ">
<polygon fill="none" stroke="black" points="630,-385.5 630,-403.5 699.36,-403.5 699.36,-385.5 630,-385.5"/>
<text text-anchor="middle" x="664.68" y="-391.5" font-family="Helvetica,sans-Serif" font-size="10.00">../txscaled.h</text>
</a>
</g>
</g>
<!-- Node3&#45;&gt;Node17 -->
<g id="edge19" class="edge">
<title>Node3&#45;&gt;Node17</title>
<path fill="none" stroke="midnightblue" d="M544.25,-440.45C568.02,-431.58 606.47,-417.23 633.51,-407.13"/>
<polygon fill="midnightblue" stroke="midnightblue" points="634.77,-410.4 642.91,-403.63 632.32,-403.84 634.77,-410.4"/>
</g>
<!-- Node25 -->
<g id="node25" class="node">
<title>Node25</title>
<g id="a_node25"><a xlink:title=" ">
<polygon fill="none" stroke="#bfbfbf" points="499.96,-385.5 499.96,-403.5 545.41,-403.5 545.41,-385.5 499.96,-385.5"/>
<text text-anchor="middle" x="522.68" y="-391.5" font-family="Helvetica,sans-Serif" font-size="10.00">cstring</text>
</a>
</g>
</g>
<!-- Node3&#45;&gt;Node25 -->
<g id="edge30" class="edge">
<title>Node3&#45;&gt;Node25</title>
<path fill="none" stroke="midnightblue" d="M522.68,-440.22C522.68,-433.18 522.68,-422.81 522.68,-413.83"/>
<polygon fill="midnightblue" stroke="midnightblue" points="526.18,-413.55 522.68,-403.55 519.18,-413.55 526.18,-413.55"/>
</g>
<!-- Node5 -->
<g id="node5" class="node">
<title>Node5</title>
<g id="a_node5"><a xlink:href="../../d5/daf/_istring_8h.html" target="_top" xlink:title=" ">
<polygon fill="none" stroke="black" points="552.45,-275.5 552.45,-293.5 632.92,-293.5 632.92,-275.5 552.45,-275.5"/>
<text text-anchor="middle" x="592.68" y="-281.5" font-family="Helvetica,sans-Serif" font-size="10.00">tralics/Istring.h</text>
</a>
</g>
</g>
<!-- Node4&#45;&gt;Node5 -->
<g id="edge4" class="edge">
<title>Node4&#45;&gt;Node5</title>
<path fill="none" stroke="midnightblue" d="M588.06,-385.38C588.86,-368.18 590.73,-327.7 591.83,-303.89"/>
<polygon fill="midnightblue" stroke="midnightblue" points="595.34,-303.86 592.3,-293.71 588.35,-303.54 595.34,-303.86"/>
</g>
<!-- Node6 -->
<g id="node6" class="node">
<title>Node6</title>
<g id="a_node6"><a xlink:href="../../dd/d47/_str_hash_8h.html" target="_top" xlink:title=" ">
<polygon fill="none" stroke="black" points="441.45,-220.5 441.45,-238.5 501.92,-238.5 501.92,-220.5 441.45,-220.5"/>
<text text-anchor="middle" x="471.68" y="-226.5" font-family="Helvetica,sans-Serif" font-size="10.00">StrHash.h</text>
</a>
</g>
</g>
<!-- Node5&#45;&gt;Node6 -->
<g id="edge5" class="edge">
<title>Node5&#45;&gt;Node6</title>
<path fill="none" stroke="midnightblue" d="M574.31,-275.45C554.41,-266.73 522.44,-252.73 499.47,-242.67"/>
<polygon fill="midnightblue" stroke="midnightblue" points="500.8,-239.43 490.23,-238.63 497.99,-245.84 500.8,-239.43"/>
</g>
<!-- Node14 -->
<g id="node14" class="node">
<title>Node14</title>
<g id="a_node14"><a xlink:href="../../d0/d0b/enums_8h.html" target="_top" xlink:title=" ">
<polygon fill="none" stroke="black" points="669.51,-165.5 669.51,-183.5 723.86,-183.5 723.86,-165.5 669.51,-165.5"/>
<text text-anchor="middle" x="696.68" y="-171.5" font-family="Helvetica,sans-Serif" font-size="10.00">enums.h</text>
</a>
</g>
</g>
<!-- Node5&#45;&gt;Node14 -->
<g id="edge13" class="edge">
<title>Node5&#45;&gt;Node14</title>
<path fill="none" stroke="midnightblue" d="M600.5,-275.38C617.74,-257.48 659.28,-214.35 681.71,-191.05"/>
<polygon fill="midnightblue" stroke="midnightblue" points="684.36,-193.34 688.78,-183.71 679.32,-188.49 684.36,-193.34"/>
</g>
<!-- Node15 -->
<g id="node15" class="node">
<title>Node15</title>
<g id="a_node15"><a xlink:href="../../d8/d3c/util_8h.html" target="_top" xlink:title=" ">
<polygon fill="none" stroke="black" points="520.12,-220.5 520.12,-238.5 557.25,-238.5 557.25,-220.5 520.12,-220.5"/>
<text text-anchor="middle" x="538.68" y="-226.5" font-family="Helvetica,sans-Serif" font-size="10.00">util.h</text>
</a>
</g>
</g>
<!-- Node5&#45;&gt;Node15 -->
<g id="edge15" class="edge">
<title>Node5&#45;&gt;Node15</title>
<path fill="none" stroke="midnightblue" d="M584.25,-275.22C576.2,-267.32 563.88,-255.22 554.08,-245.61"/>
<polygon fill="midnightblue" stroke="midnightblue" points="556.47,-243.06 546.89,-238.55 551.57,-248.05 556.47,-243.06"/>
</g>
<!-- Node16 -->
<g id="node16" class="node">
<title>Node16</title>
<g id="a_node16"><a xlink:title=" ">
<polygon fill="none" stroke="#bfbfbf" points="575.29,-220.5 575.29,-238.5 614.08,-238.5 614.08,-220.5 575.29,-220.5"/>
<text text-anchor="middle" x="594.68" y="-226.5" font-family="Helvetica,sans-Serif" font-size="10.00">array</text>
</a>
</g>
</g>
<!-- Node5&#45;&gt;Node16 -->
<g id="edge18" class="edge">
<title>Node5&#45;&gt;Node16</title>
<path fill="none" stroke="midnightblue" d="M593,-275.22C593.26,-268.18 593.65,-257.81 593.99,-248.83"/>
<polygon fill="midnightblue" stroke="midnightblue" points="597.5,-248.67 594.38,-238.55 590.51,-248.41 597.5,-248.67"/>
</g>
<!-- Node7 -->
<g id="node7" class="node">
<title>Node7</title>
<g id="a_node7"><a xlink:href="../../d8/db5/consts_8h.html" target="_top" xlink:title=" ">
<polygon fill="none" stroke="black" points="670.06,-110.5 670.06,-128.5 723.31,-128.5 723.31,-110.5 670.06,-110.5"/>
<text text-anchor="middle" x="696.68" y="-116.5" font-family="Helvetica,sans-Serif" font-size="10.00">consts.h</text>
</a>
</g>
</g>
<!-- Node6&#45;&gt;Node7 -->
<g id="edge6" class="edge">
<title>Node6&#45;&gt;Node7</title>
<path fill="none" stroke="midnightblue" d="M475.96,-220.49C483.65,-206.9 501.11,-179.42 523.68,-165 565.56,-138.27 622.76,-127.57 659.72,-123.3"/>
<polygon fill="midnightblue" stroke="midnightblue" points="660.46,-126.74 670.04,-122.22 659.73,-119.78 660.46,-126.74"/>
</g>
<!-- Node12 -->
<g id="node12" class="node">
<title>Node12</title>
<g id="a_node12"><a xlink:title=" ">
<polygon fill="none" stroke="#bfbfbf" points="436.46,-165.5 436.46,-183.5 476.91,-183.5 476.91,-165.5 436.46,-165.5"/>
<text text-anchor="middle" x="456.68" y="-171.5" font-family="Helvetica,sans-Serif" font-size="10.00">string</text>
</a>
</g>
</g>
<!-- Node6&#45;&gt;Node12 -->
<g id="edge11" class="edge">
<title>Node6&#45;&gt;Node12</title>
<path fill="none" stroke="midnightblue" d="M469.34,-220.22C467.3,-213.02 464.28,-202.35 461.7,-193.23"/>
<polygon fill="midnightblue" stroke="midnightblue" points="465.05,-192.22 458.96,-183.55 458.32,-194.12 465.05,-192.22"/>
</g>
<!-- Node13 -->
<g id="node13" class="node">
<title>Node13</title>
<g id="a_node13"><a xlink:title=" ">
<polygon fill="none" stroke="#bfbfbf" points="533.07,-165.5 533.07,-183.5 576.3,-183.5 576.3,-165.5 533.07,-165.5"/>
<text text-anchor="middle" x="554.68" y="-171.5" font-family="Helvetica,sans-Serif" font-size="10.00">vector</text>
</a>
</g>
</g>
<!-- Node6&#45;&gt;Node13 -->
<g id="edge12" class="edge">
<title>Node6&#45;&gt;Node13</title>
<path fill="none" stroke="midnightblue" d="M484.29,-220.45C497.33,-212.12 517.93,-198.97 533.48,-189.04"/>
<polygon fill="midnightblue" stroke="midnightblue" points="535.42,-191.96 541.96,-183.63 531.65,-186.06 535.42,-191.96"/>
</g>
<!-- Node8 -->
<g id="node8" class="node">
<title>Node8</title>
<g id="a_node8"><a xlink:href="../../d9/d49/types_8h.html" target="_top" xlink:title=" ">
<polygon fill="none" stroke="black" points="699.56,-55.5 699.56,-73.5 747.81,-73.5 747.81,-55.5 699.56,-55.5"/>
<text text-anchor="middle" x="723.68" y="-61.5" font-family="Helvetica,sans-Serif" font-size="10.00">types.h</text>
</a>
</g>
</g>
<!-- Node7&#45;&gt;Node8 -->
<g id="edge7" class="edge">
<title>Node7&#45;&gt;Node8</title>
<path fill="none" stroke="midnightblue" d="M700.9,-110.22C704.65,-102.86 710.25,-91.88 714.95,-82.64"/>
<polygon fill="midnightblue" stroke="midnightblue" points="718.16,-84.05 719.58,-73.55 711.93,-80.87 718.16,-84.05"/>
</g>
<!-- Node9 -->
<g id="node9" class="node">
<title>Node9</title>
<g id="a_node9"><a xlink:title=" ">
<polygon fill="none" stroke="#bfbfbf" points="633.57,-0.5 633.57,-18.5 681.8,-18.5 681.8,-0.5 633.57,-0.5"/>
<text text-anchor="middle" x="657.68" y="-6.5" font-family="Helvetica,sans-Serif" font-size="10.00">cassert</text>
</a>
</g>
</g>
<!-- Node8&#45;&gt;Node9 -->
<g id="edge8" class="edge">
<title>Node8&#45;&gt;Node9</title>
<path fill="none" stroke="midnightblue" d="M713.66,-55.45C703.68,-47.43 688.13,-34.95 675.95,-25.17"/>
<polygon fill="midnightblue" stroke="midnightblue" points="677.79,-22.16 667.8,-18.63 673.41,-27.62 677.79,-22.16"/>
</g>
<!-- Node10 -->
<g id="node10" class="node">
<title>Node10</title>
<g id="a_node10"><a xlink:title=" ">
<polygon fill="none" stroke="#bfbfbf" points="699.56,-0.5 699.56,-18.5 747.81,-18.5 747.81,-0.5 699.56,-0.5"/>
<text text-anchor="middle" x="723.68" y="-6.5" font-family="Helvetica,sans-Serif" font-size="10.00">cstddef</text>
</a>
</g>
</g>
<!-- Node8&#45;&gt;Node10 -->
<g id="edge9" class="edge">
<title>Node8&#45;&gt;Node10</title>
<path fill="none" stroke="midnightblue" d="M723.68,-55.22C723.68,-48.18 723.68,-37.81 723.68,-28.83"/>
<polygon fill="midnightblue" stroke="midnightblue" points="727.18,-28.55 723.68,-18.55 720.18,-28.55 727.18,-28.55"/>
</g>
<!-- Node11 -->
<g id="node11" class="node">
<title>Node11</title>
<g id="a_node11"><a xlink:title=" ">
<polygon fill="none" stroke="#bfbfbf" points="765.62,-0.5 765.62,-18.5 827.75,-18.5 827.75,-0.5 765.62,-0.5"/>
<text text-anchor="middle" x="796.68" y="-6.5" font-family="Helvetica,sans-Serif" font-size="10.00">type_traits</text>
</a>
</g>
</g>
<!-- Node8&#45;&gt;Node11 -->
<g id="edge10" class="edge">
<title>Node8&#45;&gt;Node11</title>
<path fill="none" stroke="midnightblue" d="M734.77,-55.45C746.03,-47.28 763.68,-34.46 777.26,-24.6"/>
<polygon fill="midnightblue" stroke="midnightblue" points="779.46,-27.33 785.49,-18.63 775.34,-21.67 779.46,-27.33"/>
</g>
<!-- Node14&#45;&gt;Node7 -->
<g id="edge14" class="edge">
<title>Node14&#45;&gt;Node7</title>
<path fill="none" stroke="midnightblue" d="M696.68,-165.22C696.68,-158.18 696.68,-147.81 696.68,-138.83"/>
<polygon fill="midnightblue" stroke="midnightblue" points="700.18,-138.55 696.68,-128.55 693.18,-138.55 700.18,-138.55"/>
</g>
<!-- Node15&#45;&gt;Node12 -->
<g id="edge16" class="edge">
<title>Node15&#45;&gt;Node12</title>
<path fill="none" stroke="midnightblue" d="M526.23,-220.45C513.47,-212.2 493.38,-199.22 478.06,-189.32"/>
<polygon fill="midnightblue" stroke="midnightblue" points="479.55,-186.11 469.26,-183.63 475.75,-191.99 479.55,-186.11"/>
</g>
<!-- Node15&#45;&gt;Node13 -->
<g id="edge17" class="edge">
<title>Node15&#45;&gt;Node13</title>
<path fill="none" stroke="midnightblue" d="M541.18,-220.22C543.36,-213.02 546.58,-202.35 549.33,-193.23"/>
<polygon fill="midnightblue" stroke="midnightblue" points="552.72,-194.13 552.25,-183.55 546.01,-192.11 552.72,-194.13"/>
</g>
<!-- Node18 -->
<g id="node18" class="node">
<title>Node18</title>
<g id="a_node18"><a xlink:href="../../dc/d91/txtokenlist_8h.html" target="_top" xlink:title=" ">
<polygon fill="none" stroke="black" points="626.28,-330.5 626.28,-348.5 695.09,-348.5 695.09,-330.5 626.28,-330.5"/>
<text text-anchor="middle" x="660.68" y="-336.5" font-family="Helvetica,sans-Serif" font-size="10.00">txtokenlist.h</text>
</a>
</g>
</g>
<!-- Node17&#45;&gt;Node18 -->
<g id="edge20" class="edge">
<title>Node17&#45;&gt;Node18</title>
<path fill="none" stroke="midnightblue" d="M664.06,-385.22C663.52,-378.1 662.73,-367.58 662.05,-358.53"/>
<polygon fill="midnightblue" stroke="midnightblue" points="665.53,-358.26 661.29,-348.55 658.55,-358.78 665.53,-358.26"/>
</g>
<!-- Node18&#45;&gt;Node5 -->
<g id="edge21" class="edge">
<title>Node18&#45;&gt;Node5</title>
<path fill="none" stroke="midnightblue" d="M650.36,-330.45C639.97,-322.36 623.74,-309.7 611.14,-299.88"/>
<polygon fill="midnightblue" stroke="midnightblue" points="613.15,-297.01 603.11,-293.63 608.85,-302.53 613.15,-297.01"/>
</g>
<!-- Node19 -->
<g id="node19" class="node">
<title>Node19</title>
<g id="a_node19"><a xlink:href="../../dd/dcd/_token_8h.html" target="_top" xlink:title=" ">
<polygon fill="none" stroke="black" points="778.73,-275.5 778.73,-293.5 858.64,-293.5 858.64,-275.5 778.73,-275.5"/>
<text text-anchor="middle" x="818.68" y="-281.5" font-family="Helvetica,sans-Serif" font-size="10.00">tralics/Token.h</text>
</a>
</g>
</g>
<!-- Node18&#45;&gt;Node19 -->
<g id="edge22" class="edge">
<title>Node18&#45;&gt;Node19</title>
<path fill="none" stroke="midnightblue" d="M684.68,-330.45C711.44,-321.47 754.91,-306.89 785.05,-296.78"/>
<polygon fill="midnightblue" stroke="midnightblue" points="786.35,-300.04 794.72,-293.54 784.13,-293.4 786.35,-300.04"/>
</g>
<!-- Node24 -->
<g id="node24" class="node">
<title>Node24</title>
<g id="a_node24"><a xlink:title=" ">
<polygon fill="none" stroke="#bfbfbf" points="376.29,-275.5 376.29,-293.5 415.08,-293.5 415.08,-275.5 376.29,-275.5"/>
<text text-anchor="middle" x="395.68" y="-281.5" font-family="Helvetica,sans-Serif" font-size="10.00">utility</text>
</a>
</g>
</g>
<!-- Node18&#45;&gt;Node24 -->
<g id="edge29" class="edge">
<title>Node18&#45;&gt;Node24</title>
<path fill="none" stroke="midnightblue" d="M626.04,-331.57C573.5,-321.06 474.57,-301.28 425.23,-291.41"/>
<polygon fill="midnightblue" stroke="midnightblue" points="425.7,-287.93 415.2,-289.4 424.32,-294.8 425.7,-287.93"/>
</g>
<!-- Node20 -->
<g id="node20" class="node">
<title>Node20</title>
<g id="a_node20"><a xlink:href="../../d2/d68/_cmd_chr_8h.html" target="_top" xlink:title=" ">
<polygon fill="none" stroke="black" points="788.17,-220.5 788.17,-238.5 849.19,-238.5 849.19,-220.5 788.17,-220.5"/>
<text text-anchor="middle" x="818.68" y="-226.5" font-family="Helvetica,sans-Serif" font-size="10.00">CmdChr.h</text>
</a>
</g>
</g>
<!-- Node19&#45;&gt;Node20 -->
<g id="edge23" class="edge">
<title>Node19&#45;&gt;Node20</title>
<path fill="none" stroke="midnightblue" d="M818.68,-275.22C818.68,-268.18 818.68,-257.81 818.68,-248.83"/>
<polygon fill="midnightblue" stroke="midnightblue" points="822.18,-248.55 818.68,-238.55 815.18,-248.55 822.18,-248.55"/>
</g>
<!-- Node23 -->
<g id="node23" class="node">
<title>Node23</title>
<g id="a_node23"><a xlink:title=" ">
<polygon fill="none" stroke="#bfbfbf" points="741.18,-220.5 741.18,-238.5 770.18,-238.5 770.18,-220.5 741.18,-220.5"/>
<text text-anchor="middle" x="755.3" y="-226.5" font-family="Helvetica,sans-Serif" font-size="10.00">list</text>
</a>
</g>
</g>
<!-- Node19&#45;&gt;Node23 -->
<g id="edge28" class="edge">
<title>Node19&#45;&gt;Node23</title>
<path fill="none" stroke="midnightblue" d="M809.12,-275.45C799.59,-267.43 784.74,-254.95 773.12,-245.17"/>
<polygon fill="midnightblue" stroke="midnightblue" points="775.25,-242.38 765.34,-238.63 770.74,-247.74 775.25,-242.38"/>
</g>
<!-- Node20&#45;&gt;Node14 -->
<g id="edge27" class="edge">
<title>Node20&#45;&gt;Node14</title>
<path fill="none" stroke="midnightblue" d="M800.16,-220.45C780.09,-211.73 747.86,-197.73 724.7,-187.67"/>
<polygon fill="midnightblue" stroke="midnightblue" points="725.95,-184.4 715.39,-183.63 723.17,-190.82 725.95,-184.4"/>
</g>
<!-- Node21 -->
<g id="node21" class="node">
<title>Node21</title>
<g id="a_node21"><a xlink:href="../../d8/d47/codepoint_8h.html" target="_top" xlink:title=" ">
<polygon fill="none" stroke="black" points="780.83,-165.5 780.83,-183.5 848.54,-183.5 848.54,-165.5 780.83,-165.5"/>
<text text-anchor="middle" x="814.68" y="-171.5" font-family="Helvetica,sans-Serif" font-size="10.00">codepoint.h</text>
</a>
</g>
</g>
<!-- Node20&#45;&gt;Node21 -->
<g id="edge24" class="edge">
<title>Node20&#45;&gt;Node21</title>
<path fill="none" stroke="midnightblue" d="M818.06,-220.22C817.52,-213.1 816.73,-202.58 816.05,-193.53"/>
<polygon fill="midnightblue" stroke="midnightblue" points="819.53,-193.26 815.29,-183.55 812.55,-193.78 819.53,-193.26"/>
</g>
<!-- Node21&#45;&gt;Node8 -->
<g id="edge25" class="edge">
<title>Node21&#45;&gt;Node8</title>
<path fill="none" stroke="midnightblue" d="M807.84,-165.38C792.89,-147.63 757.05,-105.1 737.31,-81.67"/>
<polygon fill="midnightblue" stroke="midnightblue" points="739.72,-79.1 730.6,-73.71 734.37,-83.61 739.72,-79.1"/>
</g>
<!-- Node22 -->
<g id="node22" class="node">
<title>Node22</title>
<g id="a_node22"><a xlink:title=" ">
<polygon fill="none" stroke="#bfbfbf" points="789.17,-110.5 789.17,-128.5 840.2,-128.5 840.2,-110.5 789.17,-110.5"/>
<text text-anchor="middle" x="814.68" y="-116.5" font-family="Helvetica,sans-Serif" font-size="10.00">optional</text>
</a>
</g>
</g>
<!-- Node21&#45;&gt;Node22 -->
<g id="edge26" class="edge">
<title>Node21&#45;&gt;Node22</title>
<path fill="none" stroke="midnightblue" d="M814.68,-165.22C814.68,-158.18 814.68,-147.81 814.68,-138.83"/>
<polygon fill="midnightblue" stroke="midnightblue" points="818.18,-138.55 814.68,-128.55 811.18,-138.55 818.18,-138.55"/>
</g>
<!-- Node27 -->
<g id="node27" class="node">
<title>Node27</title>
<g id="a_node27"><a xlink:href="../../d4/de9/_main_class_8h.html" target="_top" xlink:title=" ">
<polygon fill="none" stroke="black" points="193.73,-550.5 193.73,-568.5 293.64,-568.5 293.64,-550.5 193.73,-550.5"/>
<text text-anchor="middle" x="243.68" y="-556.5" font-family="Helvetica,sans-Serif" font-size="10.00">tralics/MainClass.h</text>
</a>
</g>
</g>
<!-- Node26&#45;&gt;Node27 -->
<g id="edge32" class="edge">
<title>Node26&#45;&gt;Node27</title>
<path fill="none" stroke="midnightblue" d="M186.01,-605.45C196.4,-597.36 212.63,-584.7 225.23,-574.88"/>
<polygon fill="midnightblue" stroke="midnightblue" points="227.52,-577.53 233.26,-568.63 223.22,-572.01 227.52,-577.53"/>
</g>
<!-- Node30 -->
<g id="node30" class="node">
<title>Node30</title>
<g id="a_node30"><a xlink:href="../../d2/d06/txlogger_8h.html" target="_top" xlink:title=" ">
<polygon fill="none" stroke="black" points="0,-550.5 0,-568.5 59.37,-568.5 59.37,-550.5 0,-550.5"/>
<text text-anchor="middle" x="29.68" y="-556.5" font-family="Helvetica,sans-Serif" font-size="10.00">txlogger.h</text>
</a>
</g>
</g>
<!-- Node26&#45;&gt;Node30 -->
<g id="edge36" class="edge">
<title>Node26&#45;&gt;Node30</title>
<path fill="none" stroke="midnightblue" d="M153.51,-605.45C129.07,-596.58 89.54,-582.23 61.73,-572.13"/>
<polygon fill="midnightblue" stroke="midnightblue" points="62.66,-568.75 52.07,-568.63 60.27,-575.33 62.66,-568.75"/>
</g>
<!-- Node32 -->
<g id="node32" class="node">
<title>Node32</title>
<g id="a_node32"><a xlink:href="../../d5/d08/txparam_8h.html" target="_top" xlink:title=" ">
<polygon fill="none" stroke="black" points="77.45,-550.5 77.45,-568.5 137.92,-568.5 137.92,-550.5 77.45,-550.5"/>
<text text-anchor="middle" x="107.68" y="-556.5" font-family="Helvetica,sans-Serif" font-size="10.00">txparam.h</text>
</a>
</g>
</g>
<!-- Node26&#45;&gt;Node32 -->
<g id="edge39" class="edge">
<title>Node26&#45;&gt;Node32</title>
<path fill="none" stroke="midnightblue" d="M165.36,-605.45C154.97,-597.36 138.74,-584.7 126.14,-574.88"/>
<polygon fill="midnightblue" stroke="midnightblue" points="128.15,-572.01 118.11,-568.63 123.85,-577.53 128.15,-572.01"/>
</g>
<!-- Node28 -->
<g id="node28" class="node">
<title>Node28</title>
<g id="a_node28"><a xlink:href="../../de/d29/txio_8h.html" target="_top" xlink:title=" ">
<polygon fill="none" stroke="black" points="219.57,-495.5 219.57,-513.5 267.8,-513.5 267.8,-495.5 219.57,-495.5"/>
<text text-anchor="middle" x="243.68" y="-501.5" font-family="Helvetica,sans-Serif" font-size="10.00">../txio.h</text>
</a>
</g>
</g>
<!-- Node27&#45;&gt;Node28 -->
<g id="edge33" class="edge">
<title>Node27&#45;&gt;Node28</title>
<path fill="none" stroke="midnightblue" d="M243.68,-550.22C243.68,-543.18 243.68,-532.81 243.68,-523.83"/>
<polygon fill="midnightblue" stroke="midnightblue" points="247.18,-523.55 243.68,-513.55 240.18,-523.55 247.18,-523.55"/>
</g>
<!-- Node28&#45;&gt;Node3 -->
<g id="edge34" class="edge">
<title>Node28&#45;&gt;Node3</title>
<path fill="none" stroke="midnightblue" d="M267.96,-498.89C313.45,-490.25 412.38,-471.45 472.69,-460"/>
<polygon fill="midnightblue" stroke="midnightblue" points="473.58,-463.39 482.75,-458.09 472.27,-456.51 473.58,-463.39"/>
</g>
<!-- Node29 -->
<g id="node29" class="node">
<title>Node29</title>
<g id="a_node29"><a xlink:title=" ">
<polygon fill="none" stroke="#bfbfbf" points="207.01,-440.5 207.01,-458.5 256.35,-458.5 256.35,-440.5 207.01,-440.5"/>
<text text-anchor="middle" x="231.68" y="-446.5" font-family="Helvetica,sans-Serif" font-size="10.00">fstream</text>
</a>
</g>
</g>
<!-- Node28&#45;&gt;Node29 -->
<g id="edge35" class="edge">
<title>Node28&#45;&gt;Node29</title>
<path fill="none" stroke="midnightblue" d="M241.81,-495.22C240.2,-488.1 237.82,-477.58 235.77,-468.53"/>
<polygon fill="midnightblue" stroke="midnightblue" points="239.13,-467.53 233.51,-458.55 232.3,-469.08 239.13,-467.53"/>
</g>
<!-- Node30&#45;&gt;Node29 -->
<g id="edge37" class="edge">
<title>Node30&#45;&gt;Node29</title>
<path fill="none" stroke="midnightblue" d="M29.69,-550.16C30.16,-536.58 33.16,-509.73 48.68,-495 69.8,-474.96 150.05,-461.27 196.98,-454.79"/>
<polygon fill="midnightblue" stroke="midnightblue" points="197.57,-458.25 207.01,-453.45 196.64,-451.31 197.57,-458.25"/>
</g>
<!-- Node31 -->
<g id="node31" class="node">
<title>Node31</title>
<g id="a_node31"><a xlink:title=" ">
<polygon fill="none" stroke="#bfbfbf" points="57.51,-495.5 57.51,-513.5 111.86,-513.5 111.86,-495.5 57.51,-495.5"/>
<text text-anchor="middle" x="84.68" y="-501.5" font-family="Helvetica,sans-Serif" font-size="10.00">iostream</text>
</a>
</g>
</g>
<!-- Node30&#45;&gt;Node31 -->
<g id="edge38" class="edge">
<title>Node30&#45;&gt;Node31</title>
<path fill="none" stroke="midnightblue" d="M38.28,-550.22C46.48,-542.32 59.03,-530.22 69.01,-520.61"/>
<polygon fill="midnightblue" stroke="midnightblue" points="71.56,-523.01 76.33,-513.55 66.7,-517.97 71.56,-523.01"/>
</g>
<!-- Node32&#45;&gt;Node28 -->
<g id="edge40" class="edge">
<title>Node32&#45;&gt;Node28</title>
<path fill="none" stroke="midnightblue" d="M128.34,-550.45C151.01,-541.62 187.6,-527.35 213.49,-517.27"/>
<polygon fill="midnightblue" stroke="midnightblue" points="214.79,-520.52 222.83,-513.63 212.25,-514 214.79,-520.52"/>
</g>
<!-- Node33&#45;&gt;Node28 -->
<g id="edge57" class="edge">
<title>Node33&#45;&gt;Node28</title>
<path fill="none" stroke="midnightblue" d="M410.01,-605.49C394.07,-596.72 367.89,-582.16 345.68,-569 317.52,-552.31 285.55,-532.21 265.02,-519.16"/>
<polygon fill="midnightblue" stroke="midnightblue" points="266.77,-516.13 256.46,-513.7 263.01,-522.03 266.77,-516.13"/>
</g>
<!-- Node34 -->
<g id="node34" class="node">
<title>Node34</title>
<g id="a_node34"><a xlink:href="../../d8/dd6/_e_q_t_b_8h.html" target="_top" xlink:title=" ">
<polygon fill="none" stroke="black" points="642.46,-440.5 642.46,-458.5 722.91,-458.5 722.91,-440.5 642.46,-440.5"/>
<text text-anchor="middle" x="682.68" y="-446.5" font-family="Helvetica,sans-Serif" font-size="10.00">tralics/EQTB.h</text>
</a>
</g>
</g>
<!-- Node33&#45;&gt;Node34 -->
<g id="edge42" class="edge">
<title>Node33&#45;&gt;Node34</title>
<path fill="none" stroke="midnightblue" d="M454.68,-607.93C483.62,-601.62 527.89,-589.47 561.68,-569 607.83,-541.06 649.98,-492.3 670.16,-466.92"/>
<polygon fill="midnightblue" stroke="midnightblue" points="673.18,-468.74 676.57,-458.7 667.66,-464.44 673.18,-468.74"/>
</g>
<!-- Node35 -->
<g id="node35" class="node">
<title>Node35</title>
<g id="a_node35"><a xlink:href="../../d3/d6b/txcond_8h.html" target="_top" xlink:title=" ">
<polygon fill="none" stroke="black" points="669.78,-220.5 669.78,-238.5 723.59,-238.5 723.59,-220.5 669.78,-220.5"/>
<text text-anchor="middle" x="696.68" y="-226.5" font-family="Helvetica,sans-Serif" font-size="10.00">txcond.h</text>
</a>
</g>
</g>
<!-- Node33&#45;&gt;Node35 -->
<g id="edge44" class="edge">
<title>Node33&#45;&gt;Node35</title>
<path fill="none" stroke="midnightblue" d="M454.77,-610.07C535.47,-600.05 750.68,-567.51 750.68,-505.5 750.68,-505.5 750.68,-505.5 750.68,-338.5 750.68,-302.71 726.67,-266.62 710.67,-246.55"/>
<polygon fill="midnightblue" stroke="midnightblue" points="713.27,-244.21 704.19,-238.75 707.88,-248.68 713.27,-244.21"/>
</g>
<!-- Node36 -->
<g id="node36" class="node">
<title>Node36</title>
<g id="a_node36"><a xlink:href="../../d7/d4d/txfonts_8h.html" target="_top" xlink:title=" ">
<polygon fill="none" stroke="black" points="328.79,-330.5 328.79,-348.5 382.58,-348.5 382.58,-330.5 328.79,-330.5"/>
<text text-anchor="middle" x="355.68" y="-336.5" font-family="Helvetica,sans-Serif" font-size="10.00">txfonts.h</text>
</a>
</g>
</g>
<!-- Node33&#45;&gt;Node36 -->
<g id="edge47" class="edge">
<title>Node33&#45;&gt;Node36</title>
<path fill="none" stroke="midnightblue" d="M419.34,-605.4C408.79,-588.96 385.37,-550.15 374.68,-514 358.47,-459.13 355.84,-390.82 355.57,-358.74"/>
<polygon fill="midnightblue" stroke="midnightblue" points="359.07,-358.65 355.56,-348.65 352.07,-358.66 359.07,-358.65"/>
</g>
<!-- Node37 -->
<g id="node37" class="node">
<title>Node37</title>
<g id="a_node37"><a xlink:href="../../d7/d7e/txhash_8h.html" target="_top" xlink:title=" ">
<polygon fill="none" stroke="black" points="383.78,-495.5 383.78,-513.5 437.59,-513.5 437.59,-495.5 383.78,-495.5"/>
<text text-anchor="middle" x="410.68" y="-501.5" font-family="Helvetica,sans-Serif" font-size="10.00">txhash.h</text>
</a>
</g>
</g>
<!-- Node33&#45;&gt;Node37 -->
<g id="edge50" class="edge">
<title>Node33&#45;&gt;Node37</title>
<path fill="none" stroke="midnightblue" d="M423,-605.33C421.22,-596.43 418.43,-581.75 416.68,-569 414.61,-553.88 413.03,-536.64 412.02,-523.94"/>
<polygon fill="midnightblue" stroke="midnightblue" points="415.49,-523.45 411.24,-513.75 408.51,-523.98 415.49,-523.45"/>
</g>
<!-- Node39 -->
<g id="node39" class="node">
<title>Node39</title>
<g id="a_node39"><a xlink:href="../../de/d7c/tximage_8h.html" target="_top" xlink:title=" ">
<polygon fill="none" stroke="black" points="251.01,-330.5 251.01,-348.5 310.36,-348.5 310.36,-330.5 251.01,-330.5"/>
<text text-anchor="middle" x="280.68" y="-336.5" font-family="Helvetica,sans-Serif" font-size="10.00">tximage.h</text>
</a>
</g>
</g>
<!-- Node33&#45;&gt;Node39 -->
<g id="edge54" class="edge">
<title>Node33&#45;&gt;Node39</title>
<path fill="none" stroke="midnightblue" d="M394.65,-611.77C337.33,-607.86 215.27,-596.46 184.68,-569 162.77,-549.32 165.68,-534.96 165.68,-505.5 165.68,-505.5 165.68,-505.5 165.68,-448.5 165.68,-401.56 217.23,-369.06 251.3,-352.71"/>
<polygon fill="midnightblue" stroke="midnightblue" points="252.77,-355.89 260.39,-348.53 249.84,-349.53 252.77,-355.89"/>
</g>
<!-- Node40 -->
<g id="node40" class="node">
<title>Node40</title>
<g id="a_node40"><a xlink:href="../../dc/d65/txstack_8h.html" target="_top" xlink:title=" ">
<polygon fill="none" stroke="black" points="496.96,-550.5 496.96,-568.5 552.41,-568.5 552.41,-550.5 496.96,-550.5"/>
<text text-anchor="middle" x="524.68" y="-556.5" font-family="Helvetica,sans-Serif" font-size="10.00">txstack.h</text>
</a>
</g>
</g>
<!-- Node33&#45;&gt;Node40 -->
<g id="edge58" class="edge">
<title>Node33&#45;&gt;Node40</title>
<path fill="none" stroke="midnightblue" d="M439.87,-605.45C455.95,-596.93 481.57,-583.35 500.44,-573.35"/>
<polygon fill="midnightblue" stroke="midnightblue" points="502.16,-576.4 509.35,-568.63 498.88,-570.22 502.16,-576.4"/>
</g>
<!-- Node44 -->
<g id="node44" class="node">
<title>Node44</title>
<g id="a_node44"><a xlink:href="../../d8/d3d/txstats_8h.html" target="_top" xlink:title=" ">
<polygon fill="none" stroke="black" points="426.07,-550.5 426.07,-568.5 479.3,-568.5 479.3,-550.5 426.07,-550.5"/>
<text text-anchor="middle" x="452.68" y="-556.5" font-family="Helvetica,sans-Serif" font-size="10.00">txstats.h</text>
</a>
</g>
</g>
<!-- Node33&#45;&gt;Node44 -->
<g id="edge64" class="edge">
<title>Node33&#45;&gt;Node44</title>
<path fill="none" stroke="midnightblue" d="M429.06,-605.22C432.95,-597.86 438.75,-586.88 443.63,-577.64"/>
<polygon fill="midnightblue" stroke="midnightblue" points="446.86,-579.03 448.43,-568.55 440.67,-575.76 446.86,-579.03"/>
</g>
<!-- Node34&#45;&gt;Node17 -->
<g id="edge43" class="edge">
<title>Node34&#45;&gt;Node17</title>
<path fill="none" stroke="midnightblue" d="M679.87,-440.22C677.43,-433.02 673.8,-422.35 670.71,-413.23"/>
<polygon fill="midnightblue" stroke="midnightblue" points="673.95,-411.89 667.42,-403.55 667.32,-414.14 673.95,-411.89"/>
</g>
<!-- Node35&#45;&gt;Node13 -->
<g id="edge46" class="edge">
<title>Node35&#45;&gt;Node13</title>
<path fill="none" stroke="midnightblue" d="M675.12,-220.45C651.35,-211.58 612.9,-197.23 585.85,-187.13"/>
<polygon fill="midnightblue" stroke="midnightblue" points="587.05,-183.84 576.45,-183.63 584.6,-190.4 587.05,-183.84"/>
</g>
<!-- Node35&#45;&gt;Node14 -->
<g id="edge45" class="edge">
<title>Node35&#45;&gt;Node14</title>
<path fill="none" stroke="midnightblue" d="M696.68,-220.22C696.68,-213.18 696.68,-202.81 696.68,-193.83"/>
<polygon fill="midnightblue" stroke="midnightblue" points="700.18,-193.55 696.68,-183.55 693.18,-193.55 700.18,-193.55"/>
</g>
<!-- Node36&#45;&gt;Node6 -->
<g id="edge49" class="edge">
<title>Node36&#45;&gt;Node6</title>
<path fill="none" stroke="midnightblue" d="M354.93,-330.08C354.21,-316.86 354.76,-291.1 367.68,-275 383.36,-255.48 409.21,-244.37 431.22,-238.13"/>
<polygon fill="midnightblue" stroke="midnightblue" points="432.21,-241.49 441.01,-235.59 430.45,-234.71 432.21,-241.49"/>
</g>
<!-- Node36&#45;&gt;Node24 -->
<g id="edge48" class="edge">
<title>Node36&#45;&gt;Node24</title>
<path fill="none" stroke="midnightblue" d="M361.93,-330.22C367.66,-322.63 376.31,-311.18 383.41,-301.76"/>
<polygon fill="midnightblue" stroke="midnightblue" points="386.38,-303.64 389.61,-293.55 380.79,-299.42 386.38,-303.64"/>
</g>
<!-- Node37&#45;&gt;Node3 -->
<g id="edge51" class="edge">
<title>Node37&#45;&gt;Node3</title>
<path fill="none" stroke="midnightblue" d="M427.69,-495.45C445.95,-486.81 475.18,-472.98 496.4,-462.94"/>
<polygon fill="midnightblue" stroke="midnightblue" points="497.97,-466.07 505.51,-458.63 494.98,-459.74 497.97,-466.07"/>
</g>
<!-- Node38 -->
<g id="node38" class="node">
<title>Node38</title>
<g id="a_node38"><a xlink:href="../../d3/d01/txeqtb_8h.html" target="_top" xlink:title=" ">
<polygon fill="none" stroke="black" points="400.89,-330.5 400.89,-348.5 452.48,-348.5 452.48,-330.5 400.89,-330.5"/>
<text text-anchor="middle" x="426.68" y="-336.5" font-family="Helvetica,sans-Serif" font-size="10.00">txeqtb.h</text>
</a>
</g>
</g>
<!-- Node37&#45;&gt;Node38 -->
<g id="edge52" class="edge">
<title>Node37&#45;&gt;Node38</title>
<path fill="none" stroke="midnightblue" d="M411.5,-495.19C413.97,-470.01 421.42,-394.11 424.88,-358.86"/>
<polygon fill="midnightblue" stroke="midnightblue" points="428.4,-358.89 425.89,-348.6 421.43,-358.21 428.4,-358.89"/>
</g>
<!-- Node38&#45;&gt;Node6 -->
<g id="edge53" class="edge">
<title>Node38&#45;&gt;Node6</title>
<path fill="none" stroke="midnightblue" d="M430.07,-330.38C437.3,-313.03 454.41,-271.96 464.29,-248.24"/>
<polygon fill="midnightblue" stroke="midnightblue" points="467.65,-249.29 468.26,-238.71 461.19,-246.6 467.65,-249.29"/>
</g>
<!-- Node39&#45;&gt;Node12 -->
<g id="edge55" class="edge">
<title>Node39&#45;&gt;Node12</title>
<path fill="none" stroke="midnightblue" d="M289.65,-330.19C317.67,-304.25 403.83,-224.45 440.21,-190.76"/>
<polygon fill="midnightblue" stroke="midnightblue" points="442.98,-192.96 447.94,-183.6 438.23,-187.82 442.98,-192.96"/>
</g>
<!-- Node39&#45;&gt;Node24 -->
<g id="edge56" class="edge">
<title>Node39&#45;&gt;Node24</title>
<path fill="none" stroke="midnightblue" d="M298.15,-330.45C316.89,-321.81 346.91,-307.98 368.69,-297.94"/>
<polygon fill="midnightblue" stroke="midnightblue" points="370.44,-300.99 378.05,-293.63 367.51,-294.63 370.44,-300.99"/>
</g>
<!-- Node41 -->
<g id="node41" class="node">
<title>Node41</title>
<g id="a_node41"><a xlink:href="../../d9/d1c/_xml_8h.html" target="_top" xlink:title=" ">
<polygon fill="none" stroke="black" points="493.46,-495.5 493.46,-513.5 563.91,-513.5 563.91,-495.5 493.46,-495.5"/>
<text text-anchor="middle" x="528.68" y="-501.5" font-family="Helvetica,sans-Serif" font-size="10.00">tralics/Xml.h</text>
</a>
</g>
</g>
<!-- Node40&#45;&gt;Node41 -->
<g id="edge59" class="edge">
<title>Node40&#45;&gt;Node41</title>
<path fill="none" stroke="midnightblue" d="M525.31,-550.22C525.85,-543.1 526.64,-532.58 527.32,-523.53"/>
<polygon fill="midnightblue" stroke="midnightblue" points="530.81,-523.78 528.08,-513.55 523.83,-523.26 530.81,-523.78"/>
</g>
<!-- Node43 -->
<g id="node43" class="node">
<title>Node43</title>
<g id="a_node43"><a xlink:href="../../d4/da4/txatt_8h.html" target="_top" xlink:title=" ">
<polygon fill="none" stroke="black" points="439.07,-385.5 439.07,-403.5 482.3,-403.5 482.3,-385.5 439.07,-385.5"/>
<text text-anchor="middle" x="460.68" y="-391.5" font-family="Helvetica,sans-Serif" font-size="10.00">txatt.h</text>
</a>
</g>
</g>
<!-- Node40&#45;&gt;Node43 -->
<g id="edge62" class="edge">
<title>Node40&#45;&gt;Node43</title>
<path fill="none" stroke="midnightblue" d="M514.83,-550.38C505.57,-542.18 492.06,-528.66 484.68,-514 468.23,-481.29 463.06,-438.13 461.43,-413.95"/>
<polygon fill="midnightblue" stroke="midnightblue" points="464.91,-413.54 460.88,-403.74 457.92,-413.91 464.91,-413.54"/>
</g>
<!-- Node41&#45;&gt;Node3 -->
<g id="edge60" class="edge">
<title>Node41&#45;&gt;Node3</title>
<path fill="none" stroke="midnightblue" d="M527.75,-495.22C526.94,-488.1 525.75,-477.58 524.73,-468.53"/>
<polygon fill="midnightblue" stroke="midnightblue" points="528.2,-468.09 523.6,-458.55 521.24,-468.88 528.2,-468.09"/>
</g>
<!-- Node42 -->
<g id="node42" class="node">
<title>Node42</title>
<g id="a_node42"><a xlink:title=" ">
<polygon fill="none" stroke="#bfbfbf" points="580.51,-440.5 580.51,-458.5 624.86,-458.5 624.86,-440.5 580.51,-440.5"/>
<text text-anchor="middle" x="602.68" y="-446.5" font-family="Helvetica,sans-Serif" font-size="10.00">gsl/gsl</text>
</a>
</g>
</g>
<!-- Node41&#45;&gt;Node42 -->
<g id="edge61" class="edge">
<title>Node41&#45;&gt;Node42</title>
<path fill="none" stroke="midnightblue" d="M539.92,-495.45C551.33,-487.28 569.23,-474.46 583,-464.6"/>
<polygon fill="midnightblue" stroke="midnightblue" points="585.25,-467.29 591.34,-458.63 581.17,-461.6 585.25,-467.29"/>
</g>
<!-- Node43&#45;&gt;Node6 -->
<g id="edge63" class="edge">
<title>Node43&#45;&gt;Node6</title>
<path fill="none" stroke="midnightblue" d="M461.25,-385.19C462.94,-360.01 468.07,-284.11 470.45,-248.86"/>
<polygon fill="midnightblue" stroke="midnightblue" points="473.96,-248.81 471.14,-238.6 466.97,-248.34 473.96,-248.81"/>
</g>
</g>
</svg>
