<?xml version="1.0" encoding="UTF-8" standalone="no"?>
<!DOCTYPE svg PUBLIC "-//W3C//DTD SVG 1.1//EN"
 "http://www.w3.org/Graphics/SVG/1.1/DTD/svg11.dtd">
<!-- Generated by graphviz version 2.43.0 (0)
 -->
<!-- Title: EqtbGlue Pages: 1 -->
<svg width="67pt" height="177pt"
 viewBox="0.00 0.00 66.86 177.00" xmlns="http://www.w3.org/2000/svg" xmlns:xlink="http://www.w3.org/1999/xlink">
<g id="graph0" class="graph" transform="scale(1 1) rotate(0) translate(4 173)">
<title>EqtbGlue</title>
<polygon fill="white" stroke="transparent" points="-4,4 -4,-173 62.86,-173 62.86,4 -4,4"/>
<!-- Node1 -->
<g id="node1" class="node">
<title>Node1</title>
<g id="a_node1"><a xlink:title=" ">
<polygon fill="#bfbfbf" stroke="black" points="0,-0.5 0,-18.5 57.69,-18.5 57.69,-0.5 0,-0.5"/>
<text text-anchor="middle" x="28.85" y="-6.5" font-family="Helvetica,sans-Serif" font-size="10.00">EqtbGlue</text>
</a>
</g>
</g>
<!-- Node2 -->
<g id="node2" class="node">
<title>Node2</title>
<g id="a_node2"><a xlink:href="../../d2/da4/class_glue.html" target="_top" xlink:title=" ">
<polygon fill="white" stroke="black" points="10.29,-65.5 10.29,-83.5 47.41,-83.5 47.41,-65.5 10.29,-65.5"/>
<text text-anchor="middle" x="28.85" y="-71.5" font-family="Helvetica,sans-Serif" font-size="10.00">Glue</text>
</a>
</g>
</g>
<!-- Node2&#45;&gt;Node1 -->
<g id="edge1" class="edge">
<title>Node2&#45;&gt;Node1</title>
<path fill="none" stroke="#9a32cd" stroke-dasharray="5,2" d="M28.85,-54.91C28.85,-42.81 28.85,-27.65 28.85,-18.54"/>
<polygon fill="#9a32cd" stroke="#9a32cd" points="25.35,-55.26 28.85,-65.26 32.35,-55.26 25.35,-55.26"/>
<text text-anchor="middle" x="36.63" y="-39" font-family="Helvetica,sans-Serif" font-size="10.00"> val</text>
</g>
<!-- Node3 -->
<g id="node3" class="node">
<title>Node3</title>
<g id="a_node3"><a xlink:href="../../de/d34/class_scaled_int.html" target="_top" xlink:title=" ">
<polygon fill="white" stroke="black" points="0,-150.5 0,-168.5 57.69,-168.5 57.69,-150.5 0,-150.5"/>
<text text-anchor="middle" x="28.85" y="-156.5" font-family="Helvetica,sans-Serif" font-size="10.00">ScaledInt</text>
</a>
</g>
</g>
<!-- Node3&#45;&gt;Node2 -->
<g id="edge2" class="edge">
<title>Node3&#45;&gt;Node2</title>
<path fill="none" stroke="#9a32cd" stroke-dasharray="5,2" d="M28.85,-140.06C28.85,-122.46 28.85,-96.76 28.85,-83.73"/>
<polygon fill="#9a32cd" stroke="#9a32cd" points="25.35,-140.24 28.85,-150.24 32.35,-140.24 25.35,-140.24"/>
<text text-anchor="middle" x="43.85" y="-124" font-family="Helvetica,sans-Serif" font-size="10.00"> width</text>
<text text-anchor="middle" x="43.85" y="-114" font-family="Helvetica,sans-Serif" font-size="10.00">shrink</text>
<text text-anchor="middle" x="43.85" y="-104" font-family="Helvetica,sans-Serif" font-size="10.00">stretch</text>
</g>
</g>
</svg>
