<?xml version="1.0" encoding="UTF-8" standalone="no"?>
<!DOCTYPE svg PUBLIC "-//W3C//DTD SVG 1.1//EN"
 "http://www.w3.org/Graphics/SVG/1.1/DTD/svg11.dtd">
<!-- Generated by graphviz version 2.43.0 (0)
 -->
<!-- Title: AllIndex Pages: 1 -->
<svg width="350pt" height="447pt"
 viewBox="0.00 0.00 349.68 447.00" xmlns="http://www.w3.org/2000/svg" xmlns:xlink="http://www.w3.org/1999/xlink">
<g id="graph0" class="graph" transform="scale(1 1) rotate(0) translate(4 443)">
<title>AllIndex</title>
<polygon fill="white" stroke="transparent" points="-4,4 -4,-443 345.68,-443 345.68,4 -4,4"/>
<!-- Node1 -->
<g id="node1" class="node">
<title>Node1</title>
<g id="a_node1"><a xlink:title=" ">
<polygon fill="#bfbfbf" stroke="black" points="87.26,-0.5 87.26,-18.5 138.84,-18.5 138.84,-0.5 87.26,-0.5"/>
<text text-anchor="middle" x="113.05" y="-6.5" font-family="Helvetica,sans-Serif" font-size="10.00">AllIndex</text>
</a>
</g>
</g>
<!-- Node2 -->
<g id="node2" class="node">
<title>Node2</title>
<g id="a_node2"><a xlink:title=" ">
<polygon fill="white" stroke="#bfbfbf" points="48.35,-65.5 48.35,-83.5 177.75,-83.5 177.75,-65.5 48.35,-65.5"/>
<text text-anchor="middle" x="113.05" y="-71.5" font-family="Helvetica,sans-Serif" font-size="10.00">std::vector&lt; OneIndex * &gt;</text>
</a>
</g>
</g>
<!-- Node2&#45;&gt;Node1 -->
<g id="edge1" class="edge">
<title>Node2&#45;&gt;Node1</title>
<path fill="none" stroke="#9a32cd" stroke-dasharray="5,2" d="M113.05,-54.91C113.05,-42.81 113.05,-27.65 113.05,-18.54"/>
<polygon fill="#9a32cd" stroke="#9a32cd" points="109.55,-55.26 113.05,-65.26 116.55,-55.26 109.55,-55.26"/>
<text text-anchor="middle" x="126.39" y="-39" font-family="Helvetica,sans-Serif" font-size="10.00"> value</text>
</g>
<!-- Node3 -->
<g id="node3" class="node">
<title>Node3</title>
<g id="a_node3"><a xlink:href="../../dc/d37/class_one_index.html" target="_top" xlink:title=" ">
<polygon fill="white" stroke="black" points="83.37,-130.5 83.37,-148.5 142.73,-148.5 142.73,-130.5 83.37,-130.5"/>
<text text-anchor="middle" x="113.05" y="-136.5" font-family="Helvetica,sans-Serif" font-size="10.00">OneIndex</text>
</a>
</g>
</g>
<!-- Node3&#45;&gt;Node2 -->
<g id="edge2" class="edge">
<title>Node3&#45;&gt;Node2</title>
<path fill="none" stroke="#9a32cd" stroke-dasharray="5,2" d="M113.05,-119.91C113.05,-107.81 113.05,-92.65 113.05,-83.54"/>
<polygon fill="#9a32cd" stroke="#9a32cd" points="109.55,-120.26 113.05,-130.26 116.55,-120.26 109.55,-120.26"/>
<text text-anchor="middle" x="134.73" y="-104" font-family="Helvetica,sans-Serif" font-size="10.00"> elements</text>
</g>
<!-- Node4 -->
<g id="node4" class="node">
<title>Node4</title>
<g id="a_node4"><a xlink:href="../../d6/d9a/class_xml.html" target="_top" xlink:title=" ">
<polygon fill="white" stroke="black" points="200.44,-345.5 200.44,-363.5 233.66,-363.5 233.66,-345.5 200.44,-345.5"/>
<text text-anchor="middle" x="217.05" y="-351.5" font-family="Helvetica,sans-Serif" font-size="10.00">Xml</text>
</a>
</g>
</g>
<!-- Node4&#45;&gt;Node3 -->
<g id="edge3" class="edge">
<title>Node4&#45;&gt;Node3</title>
<path fill="none" stroke="#9a32cd" stroke-dasharray="5,2" d="M216.89,-334.94C215.81,-303.71 210.05,-239.68 182.05,-195 168.83,-173.92 144.47,-157.59 128.52,-148.5"/>
<polygon fill="#9a32cd" stroke="#9a32cd" points="213.4,-335.28 217.11,-345.2 220.4,-335.13 213.4,-335.28"/>
<text text-anchor="middle" x="224.67" y="-239" font-family="Helvetica,sans-Serif" font-size="10.00"> position</text>
</g>
<!-- Node5 -->
<g id="node5" class="node">
<title>Node5</title>
<g id="a_node5"><a xlink:title=" ">
<polygon fill="white" stroke="#bfbfbf" points="238.42,-270.5 238.42,-288.5 341.68,-288.5 341.68,-270.5 238.42,-270.5"/>
<text text-anchor="middle" x="290.05" y="-276.5" font-family="Helvetica,sans-Serif" font-size="10.00">std::vector&lt; Xml * &gt;</text>
</a>
</g>
</g>
<!-- Node4&#45;&gt;Node5 -->
<g id="edge5" class="edge">
<title>Node4&#45;&gt;Node5</title>
<path fill="none" stroke="#9a32cd" stroke-dasharray="5,2" d="M218.73,-335.34C220.43,-325.94 223.85,-314.83 230.69,-307 238.12,-298.5 248.8,-292.6 259.06,-288.56"/>
<polygon fill="#9a32cd" stroke="#9a32cd" points="215.26,-334.91 217.42,-345.29 222.2,-335.83 215.26,-334.91"/>
<text text-anchor="middle" x="251.73" y="-314" font-family="Helvetica,sans-Serif" font-size="10.00"> elements</text>
</g>
<!-- Node11 -->
<g id="node11" class="node">
<title>Node11</title>
<g id="a_node11"><a xlink:href="../../d6/d1f/class_indexer.html" target="_top" xlink:title=" ">
<polygon fill="white" stroke="black" points="88.37,-270.5 88.37,-288.5 137.73,-288.5 137.73,-270.5 88.37,-270.5"/>
<text text-anchor="middle" x="113.05" y="-276.5" font-family="Helvetica,sans-Serif" font-size="10.00">Indexer</text>
</a>
</g>
</g>
<!-- Node4&#45;&gt;Node11 -->
<g id="edge12" class="edge">
<title>Node4&#45;&gt;Node11</title>
<path fill="none" stroke="#9a32cd" stroke-dasharray="5,2" d="M190.04,-349.59C173.53,-346.04 152.82,-339.37 138.13,-327 125.93,-316.72 118.72,-298.93 115.36,-288.59"/>
<polygon fill="#9a32cd" stroke="#9a32cd" points="189.71,-353.09 200.18,-351.51 191.01,-346.21 189.71,-353.09"/>
<text text-anchor="middle" x="163.51" y="-314" font-family="Helvetica,sans-Serif" font-size="10.00"> translation</text>
</g>
<!-- Node5&#45;&gt;Node4 -->
<g id="edge4" class="edge">
<title>Node5&#45;&gt;Node4</title>
<path fill="none" stroke="#9a32cd" stroke-dasharray="5,2" d="M289.06,-298.96C287.7,-308.29 284.67,-319.25 278.05,-327 266.73,-340.26 247.54,-347.1 233.7,-350.47"/>
<polygon fill="#9a32cd" stroke="#9a32cd" points="292.58,-298.99 290.03,-288.71 285.61,-298.34 292.58,-298.99"/>
<text text-anchor="middle" x="297.05" y="-314" font-family="Helvetica,sans-Serif" font-size="10.00"> tree</text>
</g>
<!-- Node6 -->
<g id="node6" class="node">
<title>Node6</title>
<g id="a_node6"><a xlink:href="../../dd/d4f/class_istring.html" target="_top" xlink:title=" ">
<polygon fill="white" stroke="black" points="172.43,-415.5 172.43,-433.5 215.66,-433.5 215.66,-415.5 172.43,-415.5"/>
<text text-anchor="middle" x="194.05" y="-421.5" font-family="Helvetica,sans-Serif" font-size="10.00">Istring</text>
</a>
</g>
</g>
<!-- Node6&#45;&gt;Node4 -->
<g id="edge6" class="edge">
<title>Node6&#45;&gt;Node4</title>
<path fill="none" stroke="#9a32cd" stroke-dasharray="5,2" d="M194.51,-405.2C195.16,-397.81 196.52,-389.32 199.25,-382 201.74,-375.36 206.19,-368.73 210.02,-363.77"/>
<polygon fill="#9a32cd" stroke="#9a32cd" points="191.01,-405.11 193.97,-415.28 198,-405.48 191.01,-405.11"/>
<text text-anchor="middle" x="213.94" y="-384" font-family="Helvetica,sans-Serif" font-size="10.00"> name</text>
</g>
<!-- Node7 -->
<g id="node7" class="node">
<title>Node7</title>
<g id="a_node7"><a xlink:href="../../de/d3f/class_xid.html" target="_top" xlink:title=" ">
<polygon fill="white" stroke="black" points="233.82,-415.5 233.82,-433.5 264.27,-433.5 264.27,-415.5 233.82,-415.5"/>
<text text-anchor="middle" x="249.05" y="-421.5" font-family="Helvetica,sans-Serif" font-size="10.00">Xid</text>
</a>
</g>
</g>
<!-- Node7&#45;&gt;Node4 -->
<g id="edge7" class="edge">
<title>Node7&#45;&gt;Node4</title>
<path fill="none" stroke="#9a32cd" stroke-dasharray="5,2" d="M240.86,-406.11C234.42,-392.42 225.74,-373.98 220.84,-363.56"/>
<polygon fill="#9a32cd" stroke="#9a32cd" points="237.83,-407.87 245.25,-415.43 244.16,-404.89 237.83,-407.87"/>
<text text-anchor="middle" x="238.33" y="-384" font-family="Helvetica,sans-Serif" font-size="10.00"> id</text>
</g>
<!-- Node8 -->
<g id="node8" class="node">
<title>Node8</title>
<g id="a_node8"><a xlink:title="STL class.">
<polygon fill="white" stroke="#bfbfbf" points="17.37,-345.5 17.37,-363.5 76.72,-363.5 76.72,-345.5 17.37,-345.5"/>
<text text-anchor="middle" x="47.05" y="-351.5" font-family="Helvetica,sans-Serif" font-size="10.00">std::string</text>
</a>
</g>
</g>
<!-- Node8&#45;&gt;Node3 -->
<g id="edge8" class="edge">
<title>Node8&#45;&gt;Node3</title>
<path fill="none" stroke="#9a32cd" stroke-dasharray="5,2" d="M41.74,-335.71C33.67,-305.16 21.5,-241.55 44.05,-195 54.63,-173.16 78.68,-157.42 95.39,-148.64"/>
<polygon fill="#9a32cd" stroke="#9a32cd" points="38.38,-336.69 44.46,-345.37 45.12,-334.8 38.38,-336.69"/>
<text text-anchor="middle" x="45.56" y="-244" font-family="Helvetica,sans-Serif" font-size="10.00"> title</text>
<text text-anchor="middle" x="45.56" y="-234" font-family="Helvetica,sans-Serif" font-size="10.00">name</text>
</g>
<!-- Node8&#45;&gt;Node11 -->
<g id="edge13" class="edge">
<title>Node8&#45;&gt;Node11</title>
<path fill="none" stroke="#9a32cd" stroke-dasharray="5,2" d="M60.84,-337.38C68.63,-328.35 78.6,-316.96 87.71,-307 93.38,-300.8 99.94,-293.95 104.96,-288.76"/>
<polygon fill="#9a32cd" stroke="#9a32cd" points="58,-335.31 54.14,-345.17 63.31,-339.87 58,-335.31"/>
<text text-anchor="middle" x="97.22" y="-319" font-family="Helvetica,sans-Serif" font-size="10.00"> key</text>
<text text-anchor="middle" x="97.22" y="-309" font-family="Helvetica,sans-Serif" font-size="10.00">aux</text>
</g>
<!-- Node9 -->
<g id="node9" class="node">
<title>Node9</title>
<g id="a_node9"><a xlink:title="STL class.">
<polygon fill="white" stroke="#bfbfbf" points="0,-410.5 0,-438.5 94.1,-438.5 94.1,-410.5 0,-410.5"/>
<text text-anchor="start" x="8" y="-426.5" font-family="Helvetica,sans-Serif" font-size="10.00">std::basic_string&lt;</text>
<text text-anchor="middle" x="47.05" y="-416.5" font-family="Helvetica,sans-Serif" font-size="10.00"> char &gt;</text>
</a>
</g>
</g>
<!-- Node9&#45;&gt;Node8 -->
<g id="edge9" class="edge">
<title>Node9&#45;&gt;Node8</title>
<path fill="none" stroke="midnightblue" d="M47.05,-400.1C47.05,-387.55 47.05,-372.85 47.05,-363.86"/>
<polygon fill="midnightblue" stroke="midnightblue" points="43.55,-400.39 47.05,-410.39 50.55,-400.39 43.55,-400.39"/>
</g>
<!-- Node10 -->
<g id="node10" class="node">
<title>Node10</title>
<g id="a_node10"><a xlink:title=" ">
<polygon fill="white" stroke="#bfbfbf" points="53.35,-195.5 53.35,-213.5 172.74,-213.5 172.74,-195.5 53.35,-195.5"/>
<text text-anchor="middle" x="113.05" y="-201.5" font-family="Helvetica,sans-Serif" font-size="10.00">std::vector&lt; Indexer * &gt;</text>
</a>
</g>
</g>
<!-- Node10&#45;&gt;Node3 -->
<g id="edge10" class="edge">
<title>Node10&#45;&gt;Node3</title>
<path fill="none" stroke="#9a32cd" stroke-dasharray="5,2" d="M113.05,-184.91C113.05,-172.81 113.05,-157.65 113.05,-148.54"/>
<polygon fill="#9a32cd" stroke="#9a32cd" points="109.55,-185.26 113.05,-195.26 116.55,-185.26 109.55,-185.26"/>
<text text-anchor="middle" x="126.39" y="-169" font-family="Helvetica,sans-Serif" font-size="10.00"> value</text>
</g>
<!-- Node11&#45;&gt;Node10 -->
<g id="edge11" class="edge">
<title>Node11&#45;&gt;Node10</title>
<path fill="none" stroke="#9a32cd" stroke-dasharray="5,2" d="M113.05,-260.35C113.05,-245.48 113.05,-225.12 113.05,-213.85"/>
<polygon fill="#9a32cd" stroke="#9a32cd" points="109.55,-260.41 113.05,-270.41 116.55,-260.41 109.55,-260.41"/>
<text text-anchor="middle" x="134.73" y="-239" font-family="Helvetica,sans-Serif" font-size="10.00"> elements</text>
</g>
</g>
</svg>
