<?xml version="1.0" encoding="UTF-8" standalone="no"?>
<!DOCTYPE svg PUBLIC "-//W3C//DTD SVG 1.1//EN"
 "http://www.w3.org/Graphics/SVG/1.1/DTD/svg11.dtd">
<!-- Generated by graphviz version 2.42.3 (20191010.1750)
 -->
<!-- Title: txbib.cpp Pages: 1 -->
<svg width="1043pt" height="742pt"
 viewBox="0.00 0.00 1042.67 742.00" xmlns="http://www.w3.org/2000/svg" xmlns:xlink="http://www.w3.org/1999/xlink">
<g id="graph0" class="graph" transform="scale(1 1) rotate(0) translate(4 738)">
<title>txbib.cpp</title>
<!-- Node1 -->
<g id="node1" class="node">
<title>Node1</title>
<g id="a_node1"><a xlink:title=" ">
<polygon fill="#bfbfbf" stroke="black" points="766.99,-715.5 766.99,-733.5 823.01,-733.5 823.01,-715.5 766.99,-715.5"/>
<text text-anchor="middle" x="795" y="-721.5" font-family="Helvetica,sans-Serif" font-size="10.00">txbib.cpp</text>
</a>
</g>
</g>
<!-- Node2 -->
<g id="node2" class="node">
<title>Node2</title>
<g id="a_node2"><a xlink:href="../../d6/dcb/txbib_8h.html" target="_top" xlink:title=" ">
<polygon fill="none" stroke="black" points="374.27,-660.5 374.27,-678.5 419.73,-678.5 419.73,-660.5 374.27,-660.5"/>
<text text-anchor="middle" x="397" y="-666.5" font-family="Helvetica,sans-Serif" font-size="10.00">txbib.h</text>
</a>
</g>
</g>
<!-- Node1&#45;&gt;Node2 -->
<g id="edge1" class="edge">
<title>Node1&#45;&gt;Node2</title>
<path fill="none" stroke="midnightblue" d="M766.7,-719.73C694.95,-710.18 506.25,-685.05 429.83,-674.87"/>
<polygon fill="midnightblue" stroke="midnightblue" points="430.19,-671.39 419.82,-673.54 429.27,-678.33 430.19,-671.39"/>
</g>
<!-- Node17 -->
<g id="node17" class="node">
<title>Node17</title>
<g id="a_node17"><a xlink:href="../../d8/d3c/util_8h.html" target="_top" xlink:title=" ">
<polygon fill="none" stroke="black" points="418.44,-220.5 418.44,-238.5 455.56,-238.5 455.56,-220.5 418.44,-220.5"/>
<text text-anchor="middle" x="437" y="-226.5" font-family="Helvetica,sans-Serif" font-size="10.00">util.h</text>
</a>
</g>
</g>
<!-- Node1&#45;&gt;Node17 -->
<g id="edge51" class="edge">
<title>Node1&#45;&gt;Node17</title>
<path fill="none" stroke="midnightblue" d="M766.71,-722.7C625.08,-718.33 0,-694.55 0,-615.5 0,-615.5 0,-615.5 0,-338.5 0,-254.13 310.84,-235.25 408.2,-231.41"/>
<polygon fill="midnightblue" stroke="midnightblue" points="408.36,-234.91 418.22,-231.04 408.1,-227.91 408.36,-234.91"/>
</g>
<!-- Node36 -->
<g id="node36" class="node">
<title>Node36</title>
<g id="a_node36"><a xlink:href="../../d5/d87/globals_8h.html" target="_top" xlink:title=" ">
<polygon fill="none" stroke="black" points="851.54,-330.5 851.54,-348.5 936.46,-348.5 936.46,-330.5 851.54,-330.5"/>
<text text-anchor="middle" x="894" y="-336.5" font-family="Helvetica,sans-Serif" font-size="10.00">tralics/globals.h</text>
</a>
</g>
</g>
<!-- Node1&#45;&gt;Node36 -->
<g id="edge47" class="edge">
<title>Node1&#45;&gt;Node36</title>
<path fill="none" stroke="midnightblue" d="M804.6,-715.36C823.13,-698.67 862,-658.53 862,-615.5 862,-615.5 862,-615.5 862,-448.5 862,-415.38 876.01,-378.8 885.49,-357.85"/>
<polygon fill="midnightblue" stroke="midnightblue" points="888.72,-359.19 889.82,-348.66 882.39,-356.21 888.72,-359.19"/>
</g>
<!-- Node38 -->
<g id="node38" class="node">
<title>Node38</title>
<g id="a_node38"><a xlink:href="../../d2/d1b/txparser_8h.html" target="_top" xlink:title=" ">
<polygon fill="none" stroke="black" points="537.04,-605.5 537.04,-623.5 596.96,-623.5 596.96,-605.5 537.04,-605.5"/>
<text text-anchor="middle" x="567" y="-611.5" font-family="Helvetica,sans-Serif" font-size="10.00">txparser.h</text>
</a>
</g>
</g>
<!-- Node1&#45;&gt;Node38 -->
<g id="edge52" class="edge">
<title>Node1&#45;&gt;Node38</title>
<path fill="none" stroke="midnightblue" d="M777.86,-715.38C738.32,-696.65 640.48,-650.31 593.29,-627.95"/>
<polygon fill="midnightblue" stroke="midnightblue" points="594.56,-624.68 584.02,-623.56 591.56,-631.01 594.56,-624.68"/>
</g>
<!-- Node49 -->
<g id="node49" class="node">
<title>Node49</title>
<g id="a_node49"><a xlink:title=" ">
<polygon fill="none" stroke="#bfbfbf" points="890.44,-660.5 890.44,-678.5 947.56,-678.5 947.56,-660.5 890.44,-660.5"/>
<text text-anchor="middle" x="919" y="-666.5" font-family="Helvetica,sans-Serif" font-size="10.00">algorithm</text>
</a>
</g>
</g>
<!-- Node1&#45;&gt;Node49 -->
<g id="edge79" class="edge">
<title>Node1&#45;&gt;Node49</title>
<path fill="none" stroke="midnightblue" d="M813.83,-715.45C834.23,-706.73 866.99,-692.73 890.53,-682.67"/>
<polygon fill="midnightblue" stroke="midnightblue" points="892.17,-685.77 899.99,-678.63 889.42,-679.34 892.17,-685.77"/>
</g>
<!-- Node50 -->
<g id="node50" class="node">
<title>Node50</title>
<g id="a_node50"><a xlink:title=" ">
<polygon fill="none" stroke="#bfbfbf" points="965.33,-660.5 965.33,-678.5 1034.67,-678.5 1034.67,-660.5 965.33,-660.5"/>
<text text-anchor="middle" x="1000" y="-666.5" font-family="Helvetica,sans-Serif" font-size="10.00">fmt/format.h</text>
</a>
</g>
</g>
<!-- Node1&#45;&gt;Node50 -->
<g id="edge80" class="edge">
<title>Node1&#45;&gt;Node50</title>
<path fill="none" stroke="midnightblue" d="M823.07,-716.24C858.25,-707.15 918.81,-691.49 959.13,-681.07"/>
<polygon fill="midnightblue" stroke="midnightblue" points="960.11,-684.43 968.92,-678.54 958.36,-677.65 960.11,-684.43"/>
</g>
<!-- Node3 -->
<g id="node3" class="node">
<title>Node3</title>
<g id="a_node3"><a xlink:href="../../d9/d1c/_xml_8h.html" target="_top" xlink:title=" ">
<polygon fill="none" stroke="black" points="417.77,-495.5 417.77,-513.5 488.23,-513.5 488.23,-495.5 417.77,-495.5"/>
<text text-anchor="middle" x="453" y="-501.5" font-family="Helvetica,sans-Serif" font-size="10.00">tralics/Xml.h</text>
</a>
</g>
</g>
<!-- Node2&#45;&gt;Node3 -->
<g id="edge2" class="edge">
<title>Node2&#45;&gt;Node3</title>
<path fill="none" stroke="midnightblue" d="M396.86,-660.32C396.81,-640.46 398.51,-588.51 416,-550 420.92,-539.16 429.22,-528.82 436.71,-520.84"/>
<polygon fill="midnightblue" stroke="midnightblue" points="439.21,-523.28 443.77,-513.72 434.24,-518.35 439.21,-523.28"/>
</g>
<!-- Node29 -->
<g id="node29" class="node">
<title>Node29</title>
<g id="a_node29"><a xlink:href="../../d7/d79/txinline_8h.html" target="_top" xlink:title=" ">
<polygon fill="none" stroke="black" points="196.27,-605.5 196.27,-623.5 251.73,-623.5 251.73,-605.5 196.27,-605.5"/>
<text text-anchor="middle" x="224" y="-611.5" font-family="Helvetica,sans-Serif" font-size="10.00">txinline.h</text>
</a>
</g>
</g>
<!-- Node2&#45;&gt;Node29 -->
<g id="edge34" class="edge">
<title>Node2&#45;&gt;Node29</title>
<path fill="none" stroke="midnightblue" d="M374.03,-661.46C344.83,-652.52 294.12,-636.98 259.82,-626.47"/>
<polygon fill="midnightblue" stroke="midnightblue" points="260.77,-623.1 250.18,-623.52 258.72,-629.8 260.77,-623.1"/>
</g>
<!-- Node4 -->
<g id="node4" class="node">
<title>Node4</title>
<g id="a_node4"><a xlink:href="../../d7/d1b/_buffer_8h.html" target="_top" xlink:title=" ">
<polygon fill="none" stroke="black" points="478.85,-440.5 478.85,-458.5 529.15,-458.5 529.15,-440.5 478.85,-440.5"/>
<text text-anchor="middle" x="504" y="-446.5" font-family="Helvetica,sans-Serif" font-size="10.00">Buffer.h</text>
</a>
</g>
</g>
<!-- Node3&#45;&gt;Node4 -->
<g id="edge3" class="edge">
<title>Node3&#45;&gt;Node4</title>
<path fill="none" stroke="midnightblue" d="M460.97,-495.22C468.5,-487.39 479.98,-475.46 489.19,-465.89"/>
<polygon fill="midnightblue" stroke="midnightblue" points="491.84,-468.18 496.25,-458.55 486.8,-463.33 491.84,-468.18"/>
</g>
<!-- Node28 -->
<g id="node28" class="node">
<title>Node28</title>
<g id="a_node28"><a xlink:title=" ">
<polygon fill="none" stroke="#bfbfbf" points="546.83,-440.5 546.83,-458.5 591.17,-458.5 591.17,-440.5 546.83,-440.5"/>
<text text-anchor="middle" x="569" y="-446.5" font-family="Helvetica,sans-Serif" font-size="10.00">gsl/gsl</text>
</a>
</g>
</g>
<!-- Node3&#45;&gt;Node28 -->
<g id="edge33" class="edge">
<title>Node3&#45;&gt;Node28</title>
<path fill="none" stroke="midnightblue" d="M470.62,-495.45C489.61,-486.77 520.07,-472.86 542.07,-462.8"/>
<polygon fill="midnightblue" stroke="midnightblue" points="543.58,-465.96 551.22,-458.63 540.67,-459.6 543.58,-465.96"/>
</g>
<!-- Node5 -->
<g id="node5" class="node">
<title>Node5</title>
<g id="a_node5"><a xlink:href="../../d1/d9e/txid_8h.html" target="_top" xlink:title=" ">
<polygon fill="none" stroke="black" points="414.88,-385.5 414.88,-403.5 463.12,-403.5 463.12,-385.5 414.88,-385.5"/>
<text text-anchor="middle" x="439" y="-391.5" font-family="Helvetica,sans-Serif" font-size="10.00">../txid.h</text>
</a>
</g>
</g>
<!-- Node4&#45;&gt;Node5 -->
<g id="edge4" class="edge">
<title>Node4&#45;&gt;Node5</title>
<path fill="none" stroke="midnightblue" d="M494.13,-440.45C484.3,-432.43 468.98,-419.95 456.99,-410.17"/>
<polygon fill="midnightblue" stroke="midnightblue" points="458.93,-407.23 448.97,-403.63 454.5,-412.66 458.93,-407.23"/>
</g>
<!-- Node19 -->
<g id="node19" class="node">
<title>Node19</title>
<g id="a_node19"><a xlink:href="../../d9/d18/txscaled_8h.html" target="_top" xlink:title=" ">
<polygon fill="none" stroke="black" points="544.32,-385.5 544.32,-403.5 613.68,-403.5 613.68,-385.5 544.32,-385.5"/>
<text text-anchor="middle" x="579" y="-391.5" font-family="Helvetica,sans-Serif" font-size="10.00">../txscaled.h</text>
</a>
</g>
</g>
<!-- Node4&#45;&gt;Node19 -->
<g id="edge21" class="edge">
<title>Node4&#45;&gt;Node19</title>
<path fill="none" stroke="midnightblue" d="M515.39,-440.45C526.95,-432.28 545.09,-419.46 559.05,-409.6"/>
<polygon fill="midnightblue" stroke="midnightblue" points="561.36,-412.25 567.5,-403.63 557.32,-406.54 561.36,-412.25"/>
</g>
<!-- Node27 -->
<g id="node27" class="node">
<title>Node27</title>
<g id="a_node27"><a xlink:title=" ">
<polygon fill="none" stroke="#bfbfbf" points="481.27,-385.5 481.27,-403.5 526.73,-403.5 526.73,-385.5 481.27,-385.5"/>
<text text-anchor="middle" x="504" y="-391.5" font-family="Helvetica,sans-Serif" font-size="10.00">cstring</text>
</a>
</g>
</g>
<!-- Node4&#45;&gt;Node27 -->
<g id="edge32" class="edge">
<title>Node4&#45;&gt;Node27</title>
<path fill="none" stroke="midnightblue" d="M504,-440.22C504,-433.18 504,-422.81 504,-413.83"/>
<polygon fill="midnightblue" stroke="midnightblue" points="507.5,-413.55 504,-403.55 500.5,-413.55 507.5,-413.55"/>
</g>
<!-- Node6 -->
<g id="node6" class="node">
<title>Node6</title>
<g id="a_node6"><a xlink:href="../../d5/daf/_istring_8h.html" target="_top" xlink:title=" ">
<polygon fill="none" stroke="black" points="528.77,-275.5 528.77,-293.5 609.23,-293.5 609.23,-275.5 528.77,-275.5"/>
<text text-anchor="middle" x="569" y="-281.5" font-family="Helvetica,sans-Serif" font-size="10.00">tralics/Istring.h</text>
</a>
</g>
</g>
<!-- Node5&#45;&gt;Node6 -->
<g id="edge5" class="edge">
<title>Node5&#45;&gt;Node6</title>
<path fill="none" stroke="midnightblue" d="M448.77,-385.38C470.6,-367.24 523.61,-323.21 551.37,-300.15"/>
<polygon fill="midnightblue" stroke="midnightblue" points="553.66,-302.79 559.12,-293.71 549.19,-297.41 553.66,-302.79"/>
</g>
<!-- Node7 -->
<g id="node7" class="node">
<title>Node7</title>
<g id="a_node7"><a xlink:href="../../dd/d47/_str_hash_8h.html" target="_top" xlink:title=" ">
<polygon fill="none" stroke="black" points="473.77,-220.5 473.77,-238.5 534.23,-238.5 534.23,-220.5 473.77,-220.5"/>
<text text-anchor="middle" x="504" y="-226.5" font-family="Helvetica,sans-Serif" font-size="10.00">StrHash.h</text>
</a>
</g>
</g>
<!-- Node6&#45;&gt;Node7 -->
<g id="edge6" class="edge">
<title>Node6&#45;&gt;Node7</title>
<path fill="none" stroke="midnightblue" d="M559.13,-275.45C549.3,-267.43 533.98,-254.95 521.99,-245.17"/>
<polygon fill="midnightblue" stroke="midnightblue" points="523.93,-242.23 513.97,-238.63 519.5,-247.66 523.93,-242.23"/>
</g>
<!-- Node16 -->
<g id="node16" class="node">
<title>Node16</title>
<g id="a_node16"><a xlink:href="../../d0/d0b/enums_8h.html" target="_top" xlink:title=" ">
<polygon fill="none" stroke="black" points="727.82,-165.5 727.82,-183.5 782.18,-183.5 782.18,-165.5 727.82,-165.5"/>
<text text-anchor="middle" x="755" y="-171.5" font-family="Helvetica,sans-Serif" font-size="10.00">enums.h</text>
</a>
</g>
</g>
<!-- Node6&#45;&gt;Node16 -->
<g id="edge15" class="edge">
<title>Node6&#45;&gt;Node16</title>
<path fill="none" stroke="midnightblue" d="M575.88,-275.42C587.49,-262.23 612.24,-235.92 638,-220 662.91,-204.6 694.01,-193.08 717.89,-185.63"/>
<polygon fill="midnightblue" stroke="midnightblue" points="719.08,-188.93 727.64,-182.68 717.05,-182.22 719.08,-188.93"/>
</g>
<!-- Node6&#45;&gt;Node17 -->
<g id="edge17" class="edge">
<title>Node6&#45;&gt;Node17</title>
<path fill="none" stroke="midnightblue" d="M548.95,-275.45C526.67,-266.5 490.51,-251.98 465.34,-241.88"/>
<polygon fill="midnightblue" stroke="midnightblue" points="466.53,-238.59 455.95,-238.11 463.93,-245.08 466.53,-238.59"/>
</g>
<!-- Node18 -->
<g id="node18" class="node">
<title>Node18</title>
<g id="a_node18"><a xlink:title=" ">
<polygon fill="none" stroke="#bfbfbf" points="552.61,-220.5 552.61,-238.5 591.39,-238.5 591.39,-220.5 552.61,-220.5"/>
<text text-anchor="middle" x="572" y="-226.5" font-family="Helvetica,sans-Serif" font-size="10.00">array</text>
</a>
</g>
</g>
<!-- Node6&#45;&gt;Node18 -->
<g id="edge20" class="edge">
<title>Node6&#45;&gt;Node18</title>
<path fill="none" stroke="midnightblue" d="M569.47,-275.22C569.87,-268.18 570.45,-257.81 570.96,-248.83"/>
<polygon fill="midnightblue" stroke="midnightblue" points="574.47,-248.73 571.54,-238.55 567.48,-248.34 574.47,-248.73"/>
</g>
<!-- Node8 -->
<g id="node8" class="node">
<title>Node8</title>
<g id="a_node8"><a xlink:href="../../d8/db5/consts_8h.html" target="_top" xlink:title=" ">
<polygon fill="none" stroke="black" points="715.38,-110.5 715.38,-128.5 768.62,-128.5 768.62,-110.5 715.38,-110.5"/>
<text text-anchor="middle" x="742" y="-116.5" font-family="Helvetica,sans-Serif" font-size="10.00">consts.h</text>
</a>
</g>
</g>
<!-- Node7&#45;&gt;Node8 -->
<g id="edge7" class="edge">
<title>Node7&#45;&gt;Node8</title>
<path fill="none" stroke="midnightblue" d="M514.57,-220.5C532.27,-207.41 569.37,-181.25 604,-165 637.08,-149.47 677.02,-137.25 705.4,-129.57"/>
<polygon fill="midnightblue" stroke="midnightblue" points="706.53,-132.89 715.3,-126.95 704.74,-126.12 706.53,-132.89"/>
</g>
<!-- Node13 -->
<g id="node13" class="node">
<title>Node13</title>
<g id="a_node13"><a xlink:title=" ">
<polygon fill="none" stroke="#bfbfbf" points="416.77,-165.5 416.77,-183.5 457.23,-183.5 457.23,-165.5 416.77,-165.5"/>
<text text-anchor="middle" x="437" y="-171.5" font-family="Helvetica,sans-Serif" font-size="10.00">string</text>
</a>
</g>
</g>
<!-- Node7&#45;&gt;Node13 -->
<g id="edge12" class="edge">
<title>Node7&#45;&gt;Node13</title>
<path fill="none" stroke="midnightblue" d="M493.82,-220.45C483.59,-212.36 467.6,-199.7 455.18,-189.88"/>
<polygon fill="midnightblue" stroke="midnightblue" points="457.29,-187.08 447.27,-183.63 452.94,-192.57 457.29,-187.08"/>
</g>
<!-- Node14 -->
<g id="node14" class="node">
<title>Node14</title>
<g id="a_node14"><a xlink:title=" ">
<polygon fill="none" stroke="#bfbfbf" points="612.7,-165.5 612.7,-183.5 699.3,-183.5 699.3,-165.5 612.7,-165.5"/>
<text text-anchor="middle" x="656" y="-171.5" font-family="Helvetica,sans-Serif" font-size="10.00">unordered_map</text>
</a>
</g>
</g>
<!-- Node7&#45;&gt;Node14 -->
<g id="edge13" class="edge">
<title>Node7&#45;&gt;Node14</title>
<path fill="none" stroke="midnightblue" d="M527.09,-220.45C552.64,-211.54 594.04,-197.1 623.01,-187"/>
<polygon fill="midnightblue" stroke="midnightblue" points="624.41,-190.22 632.7,-183.63 622.1,-183.61 624.41,-190.22"/>
</g>
<!-- Node15 -->
<g id="node15" class="node">
<title>Node15</title>
<g id="a_node15"><a xlink:title=" ">
<polygon fill="none" stroke="#bfbfbf" points="482.38,-165.5 482.38,-183.5 525.62,-183.5 525.62,-165.5 482.38,-165.5"/>
<text text-anchor="middle" x="504" y="-171.5" font-family="Helvetica,sans-Serif" font-size="10.00">vector</text>
</a>
</g>
</g>
<!-- Node7&#45;&gt;Node15 -->
<g id="edge14" class="edge">
<title>Node7&#45;&gt;Node15</title>
<path fill="none" stroke="midnightblue" d="M504,-220.22C504,-213.18 504,-202.81 504,-193.83"/>
<polygon fill="midnightblue" stroke="midnightblue" points="507.5,-193.55 504,-183.55 500.5,-193.55 507.5,-193.55"/>
</g>
<!-- Node9 -->
<g id="node9" class="node">
<title>Node9</title>
<g id="a_node9"><a xlink:href="../../d9/d49/types_8h.html" target="_top" xlink:title=" ">
<polygon fill="none" stroke="black" points="744.88,-55.5 744.88,-73.5 793.12,-73.5 793.12,-55.5 744.88,-55.5"/>
<text text-anchor="middle" x="769" y="-61.5" font-family="Helvetica,sans-Serif" font-size="10.00">types.h</text>
</a>
</g>
</g>
<!-- Node8&#45;&gt;Node9 -->
<g id="edge8" class="edge">
<title>Node8&#45;&gt;Node9</title>
<path fill="none" stroke="midnightblue" d="M746.22,-110.22C749.97,-102.86 755.56,-91.88 760.27,-82.64"/>
<polygon fill="midnightblue" stroke="midnightblue" points="763.48,-84.05 764.9,-73.55 757.24,-80.87 763.48,-84.05"/>
</g>
<!-- Node10 -->
<g id="node10" class="node">
<title>Node10</title>
<g id="a_node10"><a xlink:title=" ">
<polygon fill="none" stroke="#bfbfbf" points="678.88,-0.5 678.88,-18.5 727.12,-18.5 727.12,-0.5 678.88,-0.5"/>
<text text-anchor="middle" x="703" y="-6.5" font-family="Helvetica,sans-Serif" font-size="10.00">cassert</text>
</a>
</g>
</g>
<!-- Node9&#45;&gt;Node10 -->
<g id="edge9" class="edge">
<title>Node9&#45;&gt;Node10</title>
<path fill="none" stroke="midnightblue" d="M758.98,-55.45C748.99,-47.43 733.44,-34.95 721.26,-25.17"/>
<polygon fill="midnightblue" stroke="midnightblue" points="723.11,-22.16 713.12,-18.63 718.72,-27.62 723.11,-22.16"/>
</g>
<!-- Node11 -->
<g id="node11" class="node">
<title>Node11</title>
<g id="a_node11"><a xlink:title=" ">
<polygon fill="none" stroke="#bfbfbf" points="744.88,-0.5 744.88,-18.5 793.12,-18.5 793.12,-0.5 744.88,-0.5"/>
<text text-anchor="middle" x="769" y="-6.5" font-family="Helvetica,sans-Serif" font-size="10.00">cstddef</text>
</a>
</g>
</g>
<!-- Node9&#45;&gt;Node11 -->
<g id="edge10" class="edge">
<title>Node9&#45;&gt;Node11</title>
<path fill="none" stroke="midnightblue" d="M769,-55.22C769,-48.18 769,-37.81 769,-28.83"/>
<polygon fill="midnightblue" stroke="midnightblue" points="772.5,-28.55 769,-18.55 765.5,-28.55 772.5,-28.55"/>
</g>
<!-- Node12 -->
<g id="node12" class="node">
<title>Node12</title>
<g id="a_node12"><a xlink:title=" ">
<polygon fill="none" stroke="#bfbfbf" points="810.93,-0.5 810.93,-18.5 873.07,-18.5 873.07,-0.5 810.93,-0.5"/>
<text text-anchor="middle" x="842" y="-6.5" font-family="Helvetica,sans-Serif" font-size="10.00">type_traits</text>
</a>
</g>
</g>
<!-- Node9&#45;&gt;Node12 -->
<g id="edge11" class="edge">
<title>Node9&#45;&gt;Node12</title>
<path fill="none" stroke="midnightblue" d="M780.09,-55.45C791.34,-47.28 809,-34.46 822.58,-24.6"/>
<polygon fill="midnightblue" stroke="midnightblue" points="824.77,-27.33 830.81,-18.63 820.66,-21.67 824.77,-27.33"/>
</g>
<!-- Node16&#45;&gt;Node8 -->
<g id="edge16" class="edge">
<title>Node16&#45;&gt;Node8</title>
<path fill="none" stroke="midnightblue" d="M752.97,-165.22C751.22,-158.1 748.64,-147.58 746.42,-138.53"/>
<polygon fill="midnightblue" stroke="midnightblue" points="749.76,-137.43 743.97,-128.55 742.96,-139.1 749.76,-137.43"/>
</g>
<!-- Node17&#45;&gt;Node13 -->
<g id="edge18" class="edge">
<title>Node17&#45;&gt;Node13</title>
<path fill="none" stroke="midnightblue" d="M437,-220.22C437,-213.18 437,-202.81 437,-193.83"/>
<polygon fill="midnightblue" stroke="midnightblue" points="440.5,-193.55 437,-183.55 433.5,-193.55 440.5,-193.55"/>
</g>
<!-- Node17&#45;&gt;Node15 -->
<g id="edge19" class="edge">
<title>Node17&#45;&gt;Node15</title>
<path fill="none" stroke="midnightblue" d="M447.18,-220.45C457.41,-212.36 473.4,-199.7 485.82,-189.88"/>
<polygon fill="midnightblue" stroke="midnightblue" points="488.06,-192.57 493.73,-183.63 483.71,-187.08 488.06,-192.57"/>
</g>
<!-- Node20 -->
<g id="node20" class="node">
<title>Node20</title>
<g id="a_node20"><a xlink:href="../../dc/d91/txtokenlist_8h.html" target="_top" xlink:title=" ">
<polygon fill="none" stroke="black" points="543.6,-330.5 543.6,-348.5 612.4,-348.5 612.4,-330.5 543.6,-330.5"/>
<text text-anchor="middle" x="578" y="-336.5" font-family="Helvetica,sans-Serif" font-size="10.00">txtokenlist.h</text>
</a>
</g>
</g>
<!-- Node19&#45;&gt;Node20 -->
<g id="edge22" class="edge">
<title>Node19&#45;&gt;Node20</title>
<path fill="none" stroke="midnightblue" d="M578.84,-385.22C578.71,-378.18 578.52,-367.81 578.35,-358.83"/>
<polygon fill="midnightblue" stroke="midnightblue" points="581.84,-358.48 578.15,-348.55 574.84,-358.61 581.84,-358.48"/>
</g>
<!-- Node20&#45;&gt;Node6 -->
<g id="edge23" class="edge">
<title>Node20&#45;&gt;Node6</title>
<path fill="none" stroke="midnightblue" d="M576.59,-330.22C575.38,-323.1 573.6,-312.58 572.06,-303.53"/>
<polygon fill="midnightblue" stroke="midnightblue" points="575.49,-302.82 570.37,-293.55 568.59,-303.99 575.49,-302.82"/>
</g>
<!-- Node21 -->
<g id="node21" class="node">
<title>Node21</title>
<g id="a_node21"><a xlink:href="../../dd/dcd/_token_8h.html" target="_top" xlink:title=" ">
<polygon fill="none" stroke="black" points="627.04,-275.5 627.04,-293.5 706.96,-293.5 706.96,-275.5 627.04,-275.5"/>
<text text-anchor="middle" x="667" y="-281.5" font-family="Helvetica,sans-Serif" font-size="10.00">tralics/Token.h</text>
</a>
</g>
</g>
<!-- Node20&#45;&gt;Node21 -->
<g id="edge24" class="edge">
<title>Node20&#45;&gt;Node21</title>
<path fill="none" stroke="midnightblue" d="M591.52,-330.45C605.63,-322.05 628,-308.72 644.73,-298.76"/>
<polygon fill="midnightblue" stroke="midnightblue" points="646.55,-301.75 653.36,-293.63 642.97,-295.73 646.55,-301.75"/>
</g>
<!-- Node26 -->
<g id="node26" class="node">
<title>Node26</title>
<g id="a_node26"><a xlink:title=" ">
<polygon fill="none" stroke="#bfbfbf" points="434.61,-275.5 434.61,-293.5 473.39,-293.5 473.39,-275.5 434.61,-275.5"/>
<text text-anchor="middle" x="454" y="-281.5" font-family="Helvetica,sans-Serif" font-size="10.00">utility</text>
</a>
</g>
</g>
<!-- Node20&#45;&gt;Node26 -->
<g id="edge31" class="edge">
<title>Node20&#45;&gt;Node26</title>
<path fill="none" stroke="midnightblue" d="M559.17,-330.45C538.77,-321.73 506.01,-307.73 482.47,-297.67"/>
<polygon fill="midnightblue" stroke="midnightblue" points="483.58,-294.34 473.01,-293.63 480.83,-300.77 483.58,-294.34"/>
</g>
<!-- Node22 -->
<g id="node22" class="node">
<title>Node22</title>
<g id="a_node22"><a xlink:href="../../d2/d68/_cmd_chr_8h.html" target="_top" xlink:title=" ">
<polygon fill="none" stroke="black" points="804.49,-220.5 804.49,-238.5 865.51,-238.5 865.51,-220.5 804.49,-220.5"/>
<text text-anchor="middle" x="835" y="-226.5" font-family="Helvetica,sans-Serif" font-size="10.00">CmdChr.h</text>
</a>
</g>
</g>
<!-- Node21&#45;&gt;Node22 -->
<g id="edge25" class="edge">
<title>Node21&#45;&gt;Node22</title>
<path fill="none" stroke="midnightblue" d="M692.52,-275.45C721.09,-266.44 767.59,-251.77 799.66,-241.65"/>
<polygon fill="midnightblue" stroke="midnightblue" points="801.04,-244.88 809.52,-238.54 798.93,-238.21 801.04,-244.88"/>
</g>
<!-- Node25 -->
<g id="node25" class="node">
<title>Node25</title>
<g id="a_node25"><a xlink:title=" ">
<polygon fill="none" stroke="#bfbfbf" points="647.5,-220.5 647.5,-238.5 676.5,-238.5 676.5,-220.5 647.5,-220.5"/>
<text text-anchor="middle" x="661.61" y="-226.5" font-family="Helvetica,sans-Serif" font-size="10.00">list</text>
</a>
</g>
</g>
<!-- Node21&#45;&gt;Node25 -->
<g id="edge30" class="edge">
<title>Node21&#45;&gt;Node25</title>
<path fill="none" stroke="midnightblue" d="M666.22,-275.22C665.55,-268.1 664.55,-257.58 663.7,-248.53"/>
<polygon fill="midnightblue" stroke="midnightblue" points="667.18,-248.18 662.76,-238.55 660.21,-248.83 667.18,-248.18"/>
</g>
<!-- Node22&#45;&gt;Node16 -->
<g id="edge29" class="edge">
<title>Node22&#45;&gt;Node16</title>
<path fill="none" stroke="midnightblue" d="M822.85,-220.45C810.4,-212.2 790.8,-199.22 775.86,-189.32"/>
<polygon fill="midnightblue" stroke="midnightblue" points="777.53,-186.23 767.26,-183.63 773.67,-192.07 777.53,-186.23"/>
</g>
<!-- Node23 -->
<g id="node23" class="node">
<title>Node23</title>
<g id="a_node23"><a xlink:href="../../d8/d47/codepoint_8h.html" target="_top" xlink:title=" ">
<polygon fill="none" stroke="black" points="805.15,-165.5 805.15,-183.5 872.85,-183.5 872.85,-165.5 805.15,-165.5"/>
<text text-anchor="middle" x="839" y="-171.5" font-family="Helvetica,sans-Serif" font-size="10.00">codepoint.h</text>
</a>
</g>
</g>
<!-- Node22&#45;&gt;Node23 -->
<g id="edge26" class="edge">
<title>Node22&#45;&gt;Node23</title>
<path fill="none" stroke="midnightblue" d="M835.62,-220.22C836.16,-213.1 836.96,-202.58 837.64,-193.53"/>
<polygon fill="midnightblue" stroke="midnightblue" points="841.13,-193.78 838.39,-183.55 834.15,-193.26 841.13,-193.78"/>
</g>
<!-- Node23&#45;&gt;Node9 -->
<g id="edge27" class="edge">
<title>Node23&#45;&gt;Node9</title>
<path fill="none" stroke="midnightblue" d="M833.74,-165.38C822.34,-147.79 795.15,-105.85 779.88,-82.29"/>
<polygon fill="midnightblue" stroke="midnightblue" points="782.7,-80.2 774.32,-73.71 776.82,-84.01 782.7,-80.2"/>
</g>
<!-- Node24 -->
<g id="node24" class="node">
<title>Node24</title>
<g id="a_node24"><a xlink:title=" ">
<polygon fill="none" stroke="#bfbfbf" points="825.49,-110.5 825.49,-128.5 876.51,-128.5 876.51,-110.5 825.49,-110.5"/>
<text text-anchor="middle" x="851" y="-116.5" font-family="Helvetica,sans-Serif" font-size="10.00">optional</text>
</a>
</g>
</g>
<!-- Node23&#45;&gt;Node24 -->
<g id="edge28" class="edge">
<title>Node23&#45;&gt;Node24</title>
<path fill="none" stroke="midnightblue" d="M840.88,-165.22C842.49,-158.1 844.87,-147.58 846.92,-138.53"/>
<polygon fill="midnightblue" stroke="midnightblue" points="850.38,-139.08 849.18,-128.55 843.56,-137.53 850.38,-139.08"/>
</g>
<!-- Node30 -->
<g id="node30" class="node">
<title>Node30</title>
<g id="a_node30"><a xlink:href="../../d4/de9/_main_class_8h.html" target="_top" xlink:title=" ">
<polygon fill="none" stroke="black" points="28.04,-550.5 28.04,-568.5 127.96,-568.5 127.96,-550.5 28.04,-550.5"/>
<text text-anchor="middle" x="78" y="-556.5" font-family="Helvetica,sans-Serif" font-size="10.00">tralics/MainClass.h</text>
</a>
</g>
</g>
<!-- Node29&#45;&gt;Node30 -->
<g id="edge35" class="edge">
<title>Node29&#45;&gt;Node30</title>
<path fill="none" stroke="midnightblue" d="M201.83,-605.45C177.39,-596.58 137.86,-582.23 110.05,-572.13"/>
<polygon fill="midnightblue" stroke="midnightblue" points="110.98,-568.75 100.38,-568.63 108.59,-575.33 110.98,-568.75"/>
</g>
<!-- Node33 -->
<g id="node33" class="node">
<title>Node33</title>
<g id="a_node33"><a xlink:href="../../d2/d06/txlogger_8h.html" target="_top" xlink:title=" ">
<polygon fill="none" stroke="black" points="340.32,-495.5 340.32,-513.5 399.68,-513.5 399.68,-495.5 340.32,-495.5"/>
<text text-anchor="middle" x="370" y="-501.5" font-family="Helvetica,sans-Serif" font-size="10.00">txlogger.h</text>
</a>
</g>
</g>
<!-- Node29&#45;&gt;Node33 -->
<g id="edge39" class="edge">
<title>Node29&#45;&gt;Node33</title>
<path fill="none" stroke="midnightblue" d="M234.97,-605.38C259.6,-587.17 319.53,-542.83 350.6,-519.85"/>
<polygon fill="midnightblue" stroke="midnightblue" points="352.94,-522.47 358.9,-513.71 348.78,-516.84 352.94,-522.47"/>
</g>
<!-- Node35 -->
<g id="node35" class="node">
<title>Node35</title>
<g id="a_node35"><a xlink:href="../../d5/d08/txparam_8h.html" target="_top" xlink:title=" ">
<polygon fill="none" stroke="black" points="145.77,-550.5 145.77,-568.5 206.23,-568.5 206.23,-550.5 145.77,-550.5"/>
<text text-anchor="middle" x="176" y="-556.5" font-family="Helvetica,sans-Serif" font-size="10.00">txparam.h</text>
</a>
</g>
</g>
<!-- Node29&#45;&gt;Node35 -->
<g id="edge45" class="edge">
<title>Node29&#45;&gt;Node35</title>
<path fill="none" stroke="midnightblue" d="M216.5,-605.22C209.48,-597.47 198.82,-585.7 190.2,-576.18"/>
<polygon fill="midnightblue" stroke="midnightblue" points="192.6,-573.61 183.29,-568.55 187.41,-578.31 192.6,-573.61"/>
</g>
<!-- Node31 -->
<g id="node31" class="node">
<title>Node31</title>
<g id="a_node31"><a xlink:href="../../de/d29/txio_8h.html" target="_top" xlink:title=" ">
<polygon fill="none" stroke="black" points="197.88,-495.5 197.88,-513.5 246.12,-513.5 246.12,-495.5 197.88,-495.5"/>
<text text-anchor="middle" x="222" y="-501.5" font-family="Helvetica,sans-Serif" font-size="10.00">../txio.h</text>
</a>
</g>
</g>
<!-- Node30&#45;&gt;Node31 -->
<g id="edge36" class="edge">
<title>Node30&#45;&gt;Node31</title>
<path fill="none" stroke="midnightblue" d="M99.87,-550.45C123.98,-541.58 162.96,-527.23 190.39,-517.13"/>
<polygon fill="midnightblue" stroke="midnightblue" points="191.75,-520.36 199.92,-513.63 189.33,-513.79 191.75,-520.36"/>
</g>
<!-- Node31&#45;&gt;Node4 -->
<g id="edge37" class="edge">
<title>Node31&#45;&gt;Node4</title>
<path fill="none" stroke="midnightblue" d="M246.53,-498.89C296.49,-489.5 410.19,-468.13 468.33,-457.2"/>
<polygon fill="midnightblue" stroke="midnightblue" points="469.33,-460.58 478.51,-455.29 468.04,-453.7 469.33,-460.58"/>
</g>
<!-- Node32 -->
<g id="node32" class="node">
<title>Node32</title>
<g id="a_node32"><a xlink:title=" ">
<polygon fill="none" stroke="#bfbfbf" points="263.33,-440.5 263.33,-458.5 312.67,-458.5 312.67,-440.5 263.33,-440.5"/>
<text text-anchor="middle" x="288" y="-446.5" font-family="Helvetica,sans-Serif" font-size="10.00">fstream</text>
</a>
</g>
</g>
<!-- Node31&#45;&gt;Node32 -->
<g id="edge38" class="edge">
<title>Node31&#45;&gt;Node32</title>
<path fill="none" stroke="midnightblue" d="M232.02,-495.45C242.01,-487.43 257.56,-474.95 269.74,-465.17"/>
<polygon fill="midnightblue" stroke="midnightblue" points="272.28,-467.62 277.88,-458.63 267.89,-462.16 272.28,-467.62"/>
</g>
<!-- Node33&#45;&gt;Node4 -->
<g id="edge40" class="edge">
<title>Node33&#45;&gt;Node4</title>
<path fill="none" stroke="midnightblue" d="M390.35,-495.45C412.59,-486.66 448.43,-472.48 473.91,-462.4"/>
<polygon fill="midnightblue" stroke="midnightblue" points="475.45,-465.56 483.46,-458.63 472.87,-459.05 475.45,-465.56"/>
</g>
<!-- Node33&#45;&gt;Node5 -->
<g id="edge41" class="edge">
<title>Node33&#45;&gt;Node5</title>
<path fill="none" stroke="midnightblue" d="M375.19,-495.38C386.43,-477.79 413.22,-435.85 428.27,-412.29"/>
<polygon fill="midnightblue" stroke="midnightblue" points="431.32,-414.02 433.75,-403.71 425.42,-410.25 431.32,-414.02"/>
</g>
<!-- Node33&#45;&gt;Node19 -->
<g id="edge42" class="edge">
<title>Node33&#45;&gt;Node19</title>
<path fill="none" stroke="midnightblue" d="M381.3,-495.38C399.43,-482.57 436.38,-457.36 470,-440 494.88,-427.15 524.36,-415.31 546.37,-407.08"/>
<polygon fill="midnightblue" stroke="midnightblue" points="547.75,-410.3 555.92,-403.56 545.33,-403.73 547.75,-410.3"/>
</g>
<!-- Node33&#45;&gt;Node32 -->
<g id="edge43" class="edge">
<title>Node33&#45;&gt;Node32</title>
<path fill="none" stroke="midnightblue" d="M357.55,-495.45C344.78,-487.2 324.69,-474.22 309.38,-464.32"/>
<polygon fill="midnightblue" stroke="midnightblue" points="310.87,-461.11 300.57,-458.63 307.07,-466.99 310.87,-461.11"/>
</g>
<!-- Node34 -->
<g id="node34" class="node">
<title>Node34</title>
<g id="a_node34"><a xlink:title=" ">
<polygon fill="none" stroke="#bfbfbf" points="330.83,-440.5 330.83,-458.5 385.17,-458.5 385.17,-440.5 330.83,-440.5"/>
<text text-anchor="middle" x="358" y="-446.5" font-family="Helvetica,sans-Serif" font-size="10.00">iostream</text>
</a>
</g>
</g>
<!-- Node33&#45;&gt;Node34 -->
<g id="edge44" class="edge">
<title>Node33&#45;&gt;Node34</title>
<path fill="none" stroke="midnightblue" d="M368.12,-495.22C366.51,-488.1 364.13,-477.58 362.08,-468.53"/>
<polygon fill="midnightblue" stroke="midnightblue" points="365.44,-467.53 359.82,-458.55 358.62,-469.08 365.44,-467.53"/>
</g>
<!-- Node35&#45;&gt;Node31 -->
<g id="edge46" class="edge">
<title>Node35&#45;&gt;Node31</title>
<path fill="none" stroke="midnightblue" d="M183.19,-550.22C189.91,-542.47 200.13,-530.7 208.39,-521.18"/>
<polygon fill="midnightblue" stroke="midnightblue" points="211.1,-523.4 215.01,-513.55 205.82,-518.81 211.1,-523.4"/>
</g>
<!-- Node36&#45;&gt;Node6 -->
<g id="edge48" class="edge">
<title>Node36&#45;&gt;Node6</title>
<path fill="none" stroke="midnightblue" d="M851.42,-331.8C799.14,-323.53 707.5,-308.92 619.28,-294.2"/>
<polygon fill="midnightblue" stroke="midnightblue" points="619.81,-290.74 609.37,-292.54 618.66,-297.64 619.81,-290.74"/>
</g>
<!-- Node36&#45;&gt;Node23 -->
<g id="edge49" class="edge">
<title>Node36&#45;&gt;Node23</title>
<path fill="none" stroke="midnightblue" d="M894.11,-330.33C894.08,-310.51 892.23,-258.63 875,-220 870.25,-209.36 862.3,-199.13 855.08,-191.17"/>
<polygon fill="midnightblue" stroke="midnightblue" points="857.43,-188.56 847.98,-183.77 852.37,-193.41 857.43,-188.56"/>
</g>
<!-- Node37 -->
<g id="node37" class="node">
<title>Node37</title>
<g id="a_node37"><a xlink:title=" ">
<polygon fill="none" stroke="#bfbfbf" points="921.77,-275.5 921.77,-293.5 982.23,-293.5 982.23,-275.5 921.77,-275.5"/>
<text text-anchor="middle" x="952" y="-281.5" font-family="Helvetica,sans-Serif" font-size="10.00">filesystem</text>
</a>
</g>
</g>
<!-- Node36&#45;&gt;Node37 -->
<g id="edge50" class="edge">
<title>Node36&#45;&gt;Node37</title>
<path fill="none" stroke="midnightblue" d="M903.06,-330.22C911.8,-322.24 925.21,-309.98 935.78,-300.32"/>
<polygon fill="midnightblue" stroke="midnightblue" points="938.17,-302.88 943.19,-293.55 933.45,-297.71 938.17,-302.88"/>
</g>
<!-- Node38&#45;&gt;Node31 -->
<g id="edge74" class="edge">
<title>Node38&#45;&gt;Node31</title>
<path fill="none" stroke="midnightblue" d="M536.99,-613.76C485.32,-613.11 377.25,-606.85 296,-569 271.88,-557.77 249.49,-536.39 235.79,-521.56"/>
<polygon fill="midnightblue" stroke="midnightblue" points="238.05,-518.84 228.78,-513.72 232.83,-523.51 238.05,-518.84"/>
</g>
<!-- Node39 -->
<g id="node39" class="node">
<title>Node39</title>
<g id="a_node39"><a xlink:href="../../d8/dd6/_e_q_t_b_8h.html" target="_top" xlink:title=" ">
<polygon fill="none" stroke="black" points="569.77,-550.5 569.77,-568.5 650.23,-568.5 650.23,-550.5 569.77,-550.5"/>
<text text-anchor="middle" x="610" y="-556.5" font-family="Helvetica,sans-Serif" font-size="10.00">tralics/EQTB.h</text>
</a>
</g>
</g>
<!-- Node38&#45;&gt;Node39 -->
<g id="edge53" class="edge">
<title>Node38&#45;&gt;Node39</title>
<path fill="none" stroke="midnightblue" d="M573.72,-605.22C579.94,-597.55 589.36,-585.94 597.04,-576.47"/>
<polygon fill="midnightblue" stroke="midnightblue" points="599.89,-578.52 603.47,-568.55 594.45,-574.11 599.89,-578.52"/>
</g>
<!-- Node40 -->
<g id="node40" class="node">
<title>Node40</title>
<g id="a_node40"><a xlink:href="../../da/d27/_hashtab_8h.html" target="_top" xlink:title=" ">
<polygon fill="none" stroke="black" points="677.76,-495.5 677.76,-513.5 768.24,-513.5 768.24,-495.5 677.76,-495.5"/>
<text text-anchor="middle" x="723" y="-501.5" font-family="Helvetica,sans-Serif" font-size="10.00">tralics/Hashtab.h</text>
</a>
</g>
</g>
<!-- Node38&#45;&gt;Node40 -->
<g id="edge55" class="edge">
<title>Node38&#45;&gt;Node40</title>
<path fill="none" stroke="midnightblue" d="M597.18,-605.79C620.16,-598.85 651.72,-586.96 675,-569 691.53,-556.24 705.28,-536.42 713.76,-522.32"/>
<polygon fill="midnightblue" stroke="midnightblue" points="716.81,-524.04 718.76,-513.62 710.74,-520.55 716.81,-524.04"/>
</g>
<!-- Node42 -->
<g id="node42" class="node">
<title>Node42</title>
<g id="a_node42"><a xlink:href="../../d3/d6b/txcond_8h.html" target="_top" xlink:title=" ">
<polygon fill="none" stroke="black" points="733.1,-220.5 733.1,-238.5 786.9,-238.5 786.9,-220.5 733.1,-220.5"/>
<text text-anchor="middle" x="760" y="-226.5" font-family="Helvetica,sans-Serif" font-size="10.00">txcond.h</text>
</a>
</g>
</g>
<!-- Node38&#45;&gt;Node42 -->
<g id="edge62" class="edge">
<title>Node38&#45;&gt;Node42</title>
<path fill="none" stroke="midnightblue" d="M596.98,-610.31C646.23,-603.2 742.27,-580.98 777,-514 823.85,-423.63 784.08,-294.64 766.93,-248.09"/>
<polygon fill="midnightblue" stroke="midnightblue" points="770.13,-246.65 763.3,-238.55 763.58,-249.14 770.13,-246.65"/>
</g>
<!-- Node43 -->
<g id="node43" class="node">
<title>Node43</title>
<g id="a_node43"><a xlink:href="../../d7/d4d/txfonts_8h.html" target="_top" xlink:title=" ">
<polygon fill="none" stroke="black" points="429.1,-330.5 429.1,-348.5 482.9,-348.5 482.9,-330.5 429.1,-330.5"/>
<text text-anchor="middle" x="456" y="-336.5" font-family="Helvetica,sans-Serif" font-size="10.00">txfonts.h</text>
</a>
</g>
</g>
<!-- Node38&#45;&gt;Node43 -->
<g id="edge65" class="edge">
<title>Node38&#45;&gt;Node43</title>
<path fill="none" stroke="midnightblue" d="M536.86,-607.31C505.71,-600.31 456.11,-587.42 416,-569 376.45,-550.84 273.91,-497.69 254,-459 250.14,-451.49 249.54,-447.17 254,-440 273.16,-409.21 370.66,-370.78 422.87,-351.96"/>
<polygon fill="midnightblue" stroke="midnightblue" points="424.13,-355.23 432.37,-348.58 421.78,-348.64 424.13,-355.23"/>
</g>
<!-- Node44 -->
<g id="node44" class="node">
<title>Node44</title>
<g id="a_node44"><a xlink:href="../../d7/d7e/txhash_8h.html" target="_top" xlink:title=" ">
<polygon fill="none" stroke="black" points="606.1,-495.5 606.1,-513.5 659.9,-513.5 659.9,-495.5 606.1,-495.5"/>
<text text-anchor="middle" x="633" y="-501.5" font-family="Helvetica,sans-Serif" font-size="10.00">txhash.h</text>
</a>
</g>
</g>
<!-- Node38&#45;&gt;Node44 -->
<g id="edge68" class="edge">
<title>Node38&#45;&gt;Node44</title>
<path fill="none" stroke="midnightblue" d="M597.07,-607.71C618.39,-601.86 645.52,-590.49 659,-569 668.45,-553.93 658.03,-534.84 647.71,-521.55"/>
<polygon fill="midnightblue" stroke="midnightblue" points="650.26,-519.15 641.15,-513.75 644.91,-523.65 650.26,-519.15"/>
</g>
<!-- Node45 -->
<g id="node45" class="node">
<title>Node45</title>
<g id="a_node45"><a xlink:href="../../de/d7c/tximage_8h.html" target="_top" xlink:title=" ">
<polygon fill="none" stroke="black" points="351.32,-330.5 351.32,-348.5 410.68,-348.5 410.68,-330.5 351.32,-330.5"/>
<text text-anchor="middle" x="381" y="-336.5" font-family="Helvetica,sans-Serif" font-size="10.00">tximage.h</text>
</a>
</g>
</g>
<!-- Node38&#45;&gt;Node45 -->
<g id="edge71" class="edge">
<title>Node38&#45;&gt;Node45</title>
<path fill="none" stroke="midnightblue" d="M536.87,-611.68C464.98,-605.43 286.48,-578.01 247,-459 229.56,-406.41 301.51,-369.57 346.73,-352.07"/>
<polygon fill="midnightblue" stroke="midnightblue" points="348.06,-355.3 356.2,-348.53 345.61,-348.75 348.06,-355.3"/>
</g>
<!-- Node46 -->
<g id="node46" class="node">
<title>Node46</title>
<g id="a_node46"><a xlink:href="../../dc/d65/txstack_8h.html" target="_top" xlink:title=" ">
<polygon fill="none" stroke="black" points="425.27,-550.5 425.27,-568.5 480.73,-568.5 480.73,-550.5 425.27,-550.5"/>
<text text-anchor="middle" x="453" y="-556.5" font-family="Helvetica,sans-Serif" font-size="10.00">txstack.h</text>
</a>
</g>
</g>
<!-- Node38&#45;&gt;Node46 -->
<g id="edge75" class="edge">
<title>Node38&#45;&gt;Node46</title>
<path fill="none" stroke="midnightblue" d="M549.69,-605.45C531.1,-596.81 501.35,-582.98 479.76,-572.94"/>
<polygon fill="midnightblue" stroke="midnightblue" points="481.02,-569.67 470.48,-568.63 478.07,-576.01 481.02,-569.67"/>
</g>
<!-- Node48 -->
<g id="node48" class="node">
<title>Node48</title>
<g id="a_node48"><a xlink:href="../../d8/d3d/txstats_8h.html" target="_top" xlink:title=" ">
<polygon fill="none" stroke="black" points="498.38,-550.5 498.38,-568.5 551.62,-568.5 551.62,-550.5 498.38,-550.5"/>
<text text-anchor="middle" x="525" y="-556.5" font-family="Helvetica,sans-Serif" font-size="10.00">txstats.h</text>
</a>
</g>
</g>
<!-- Node38&#45;&gt;Node48 -->
<g id="edge78" class="edge">
<title>Node38&#45;&gt;Node48</title>
<path fill="none" stroke="midnightblue" d="M560.44,-605.22C554.36,-597.55 545.16,-585.94 537.65,-576.47"/>
<polygon fill="midnightblue" stroke="midnightblue" points="540.33,-574.21 531.38,-568.55 534.85,-578.56 540.33,-574.21"/>
</g>
<!-- Node39&#45;&gt;Node19 -->
<g id="edge54" class="edge">
<title>Node39&#45;&gt;Node19</title>
<path fill="none" stroke="midnightblue" d="M606.89,-550.45C603.68,-541.65 598.87,-527.07 597,-514 592.34,-481.42 607.2,-472.12 600,-440 597.85,-430.4 593.38,-420.43 589.12,-412.37"/>
<polygon fill="midnightblue" stroke="midnightblue" points="592.15,-410.62 584.19,-403.63 586.06,-414.06 592.15,-410.62"/>
</g>
<!-- Node40&#45;&gt;Node4 -->
<g id="edge60" class="edge">
<title>Node40&#45;&gt;Node4</title>
<path fill="none" stroke="midnightblue" d="M689.22,-495.47C654.07,-487.09 597.18,-473.48 538.97,-459.22"/>
<polygon fill="midnightblue" stroke="midnightblue" points="539.79,-455.82 529.24,-456.84 538.12,-462.62 539.79,-455.82"/>
</g>
<!-- Node40&#45;&gt;Node14 -->
<g id="edge61" class="edge">
<title>Node40&#45;&gt;Node14</title>
<path fill="none" stroke="midnightblue" d="M724.52,-495.41C727.75,-477.48 735,-433.04 735,-395.5 735,-395.5 735,-395.5 735,-338.5 735,-279.48 692.54,-219.39 669.87,-191.52"/>
<polygon fill="midnightblue" stroke="midnightblue" points="672.39,-189.07 663.29,-183.64 667.02,-193.56 672.39,-189.07"/>
</g>
<!-- Node41 -->
<g id="node41" class="node">
<title>Node41</title>
<g id="a_node41"><a xlink:href="../../d3/d01/txeqtb_8h.html" target="_top" xlink:title=" ">
<polygon fill="none" stroke="black" points="647.04,-440.5 647.04,-458.5 706.96,-458.5 706.96,-440.5 647.04,-440.5"/>
<text text-anchor="middle" x="677" y="-446.5" font-family="Helvetica,sans-Serif" font-size="10.00">../txeqtb.h</text>
</a>
</g>
</g>
<!-- Node40&#45;&gt;Node41 -->
<g id="edge56" class="edge">
<title>Node40&#45;&gt;Node41</title>
<path fill="none" stroke="midnightblue" d="M715.81,-495.22C709.09,-487.47 698.87,-475.7 690.61,-466.18"/>
<polygon fill="midnightblue" stroke="midnightblue" points="693.18,-463.81 683.99,-458.55 687.9,-468.4 693.18,-463.81"/>
</g>
<!-- Node41&#45;&gt;Node19 -->
<g id="edge59" class="edge">
<title>Node41&#45;&gt;Node19</title>
<path fill="none" stroke="midnightblue" d="M662.12,-440.45C646.43,-431.97 621.49,-418.48 603.01,-408.49"/>
<polygon fill="midnightblue" stroke="midnightblue" points="604.49,-405.3 594.02,-403.63 601.16,-411.46 604.49,-405.3"/>
</g>
<!-- Node41&#45;&gt;Node21 -->
<g id="edge58" class="edge">
<title>Node41&#45;&gt;Node21</title>
<path fill="none" stroke="midnightblue" d="M676.49,-440.19C674.95,-415.01 670.29,-339.11 668.13,-303.86"/>
<polygon fill="midnightblue" stroke="midnightblue" points="671.6,-303.36 667.5,-293.6 664.62,-303.79 671.6,-303.36"/>
</g>
<!-- Node41&#45;&gt;Node22 -->
<g id="edge57" class="edge">
<title>Node41&#45;&gt;Node22</title>
<path fill="none" stroke="midnightblue" d="M684.18,-440.5C703.97,-418.24 760.44,-353.33 800,-294 810.03,-278.96 819.82,-260.81 826.48,-247.77"/>
<polygon fill="midnightblue" stroke="midnightblue" points="829.74,-249.08 831.1,-238.57 823.49,-245.94 829.74,-249.08"/>
</g>
<!-- Node42&#45;&gt;Node15 -->
<g id="edge64" class="edge">
<title>Node42&#45;&gt;Node15</title>
<path fill="none" stroke="midnightblue" d="M733.09,-222.93C685.51,-213.08 586.76,-192.63 535.87,-182.1"/>
<polygon fill="midnightblue" stroke="midnightblue" points="536.27,-178.61 525.77,-180.01 534.85,-185.46 536.27,-178.61"/>
</g>
<!-- Node42&#45;&gt;Node16 -->
<g id="edge63" class="edge">
<title>Node42&#45;&gt;Node16</title>
<path fill="none" stroke="midnightblue" d="M759.22,-220.22C758.55,-213.1 757.55,-202.58 756.7,-193.53"/>
<polygon fill="midnightblue" stroke="midnightblue" points="760.18,-193.18 755.76,-183.55 753.21,-193.83 760.18,-193.18"/>
</g>
<!-- Node43&#45;&gt;Node7 -->
<g id="edge67" class="edge">
<title>Node43&#45;&gt;Node7</title>
<path fill="none" stroke="midnightblue" d="M461.49,-330.23C467.14,-321.49 475.94,-307.17 482,-294 488.86,-279.08 494.83,-261.37 498.81,-248.45"/>
<polygon fill="midnightblue" stroke="midnightblue" points="502.27,-249.1 501.77,-238.51 495.56,-247.1 502.27,-249.1"/>
</g>
<!-- Node43&#45;&gt;Node26 -->
<g id="edge66" class="edge">
<title>Node43&#45;&gt;Node26</title>
<path fill="none" stroke="midnightblue" d="M455.69,-330.22C455.42,-323.18 455.03,-312.81 454.69,-303.83"/>
<polygon fill="midnightblue" stroke="midnightblue" points="458.18,-303.41 454.3,-293.55 451.18,-303.67 458.18,-303.41"/>
</g>
<!-- Node44&#45;&gt;Node4 -->
<g id="edge69" class="edge">
<title>Node44&#45;&gt;Node4</title>
<path fill="none" stroke="midnightblue" d="M613.41,-495.45C592.1,-486.7 557.8,-472.61 533.29,-462.53"/>
<polygon fill="midnightblue" stroke="midnightblue" points="534.36,-459.19 523.78,-458.63 531.7,-465.66 534.36,-459.19"/>
</g>
<!-- Node44&#45;&gt;Node41 -->
<g id="edge70" class="edge">
<title>Node44&#45;&gt;Node41</title>
<path fill="none" stroke="midnightblue" d="M639.88,-495.22C646.24,-487.55 655.88,-475.94 663.74,-466.47"/>
<polygon fill="midnightblue" stroke="midnightblue" points="666.62,-468.48 670.32,-458.55 661.24,-464.01 666.62,-468.48"/>
</g>
<!-- Node45&#45;&gt;Node13 -->
<g id="edge72" class="edge">
<title>Node45&#45;&gt;Node13</title>
<path fill="none" stroke="midnightblue" d="M381.97,-330.45C384.53,-310.9 392.41,-259.58 409,-220 413.15,-210.09 419.41,-199.89 424.95,-191.75"/>
<polygon fill="midnightblue" stroke="midnightblue" points="427.82,-193.76 430.76,-183.58 422.11,-189.7 427.82,-193.76"/>
</g>
<!-- Node45&#45;&gt;Node26 -->
<g id="edge73" class="edge">
<title>Node45&#45;&gt;Node26</title>
<path fill="none" stroke="midnightblue" d="M392.09,-330.45C403.34,-322.28 421,-309.46 434.58,-299.6"/>
<polygon fill="midnightblue" stroke="midnightblue" points="436.77,-302.33 442.81,-293.63 432.66,-296.67 436.77,-302.33"/>
</g>
<!-- Node46&#45;&gt;Node3 -->
<g id="edge76" class="edge">
<title>Node46&#45;&gt;Node3</title>
<path fill="none" stroke="midnightblue" d="M453,-550.22C453,-543.18 453,-532.81 453,-523.83"/>
<polygon fill="midnightblue" stroke="midnightblue" points="456.5,-523.55 453,-513.55 449.5,-523.55 456.5,-523.55"/>
</g>
<!-- Node47 -->
<g id="node47" class="node">
<title>Node47</title>
<g id="a_node47"><a xlink:href="../../d4/da4/txatt_8h.html" target="_top" xlink:title=" ">
<polygon fill="none" stroke="black" points="506.38,-495.5 506.38,-513.5 549.62,-513.5 549.62,-495.5 506.38,-495.5"/>
<text text-anchor="middle" x="528" y="-501.5" font-family="Helvetica,sans-Serif" font-size="10.00">txatt.h</text>
</a>
</g>
</g>
<!-- Node46&#45;&gt;Node47 -->
<g id="edge77" class="edge">
<title>Node46&#45;&gt;Node47</title>
<path fill="none" stroke="midnightblue" d="M464.39,-550.45C475.95,-542.28 494.09,-529.46 508.05,-519.6"/>
<polygon fill="midnightblue" stroke="midnightblue" points="510.36,-522.25 516.5,-513.63 506.32,-516.54 510.36,-522.25"/>
</g>
</g>
</svg>
