<?xml version="1.0" encoding="UTF-8" standalone="no"?>
<!DOCTYPE svg PUBLIC "-//W3C//DTD SVG 1.1//EN"
 "http://www.w3.org/Graphics/SVG/1.1/DTD/svg11.dtd">
<!-- Generated by graphviz version 2.42.3 (20191010.1750)
 -->
<!-- Title: txbib.cpp Pages: 1 -->
<svg width="1048pt" height="852pt"
 viewBox="0.00 0.00 1047.56 852.00" xmlns="http://www.w3.org/2000/svg" xmlns:xlink="http://www.w3.org/1999/xlink">
<g id="graph0" class="graph" transform="scale(1 1) rotate(0) translate(4 848)">
<title>txbib.cpp</title>
<!-- Node1 -->
<g id="node1" class="node">
<title>Node1</title>
<g id="a_node1"><a xlink:title=" ">
<polygon fill="#bfbfbf" stroke="black" points="743.99,-825.5 743.99,-843.5 800.01,-843.5 800.01,-825.5 743.99,-825.5"/>
<text text-anchor="middle" x="772" y="-831.5" font-family="Helvetica,sans-Serif" font-size="10.00">txbib.cpp</text>
</a>
</g>
</g>
<!-- Node2 -->
<g id="node2" class="node">
<title>Node2</title>
<g id="a_node2"><a xlink:href="../../d6/dcb/txbib_8h.html" target="_top" xlink:title=" ">
<polygon fill="none" stroke="black" points="189.27,-660.5 189.27,-678.5 234.73,-678.5 234.73,-660.5 189.27,-660.5"/>
<text text-anchor="middle" x="212" y="-666.5" font-family="Helvetica,sans-Serif" font-size="10.00">txbib.h</text>
</a>
</g>
</g>
<!-- Node1&#45;&gt;Node2 -->
<g id="edge1" class="edge">
<title>Node1&#45;&gt;Node2</title>
<path fill="none" stroke="midnightblue" d="M743.94,-832.08C687.41,-828.68 556.14,-818.08 450,-789 389.1,-772.31 375.4,-762.4 319,-734 288.08,-718.43 253.93,-697.46 232.72,-683.96"/>
<polygon fill="midnightblue" stroke="midnightblue" points="234.51,-680.95 224.21,-678.5 230.73,-686.85 234.51,-680.95"/>
</g>
<!-- Node32 -->
<g id="node32" class="node">
<title>Node32</title>
<g id="a_node32"><a xlink:href="../../de/d40/_parser_8h.html" target="_top" xlink:title=" ">
<polygon fill="none" stroke="black" points="458.93,-770.5 458.93,-788.5 541.07,-788.5 541.07,-770.5 458.93,-770.5"/>
<text text-anchor="middle" x="500" y="-776.5" font-family="Helvetica,sans-Serif" font-size="10.00">tralics/Parser.h</text>
</a>
</g>
</g>
<!-- Node1&#45;&gt;Node32 -->
<g id="edge37" class="edge">
<title>Node1&#45;&gt;Node32</title>
<path fill="none" stroke="midnightblue" d="M743.92,-828.03C698.46,-819.17 608.11,-801.57 551.05,-790.45"/>
<polygon fill="midnightblue" stroke="midnightblue" points="551.63,-786.99 541.15,-788.52 550.29,-793.87 551.63,-786.99"/>
</g>
<!-- Node47 -->
<g id="node47" class="node">
<title>Node47</title>
<g id="a_node47"><a xlink:href="../../d5/d87/globals_8h.html" target="_top" xlink:title=" ">
<polygon fill="none" stroke="black" points="729.54,-330.5 729.54,-348.5 814.46,-348.5 814.46,-330.5 729.54,-330.5"/>
<text text-anchor="middle" x="772" y="-336.5" font-family="Helvetica,sans-Serif" font-size="10.00">tralics/globals.h</text>
</a>
</g>
</g>
<!-- Node1&#45;&gt;Node47 -->
<g id="edge67" class="edge">
<title>Node1&#45;&gt;Node47</title>
<path fill="none" stroke="midnightblue" d="M772,-825.37C772,-807.38 772,-762.81 772,-725.5 772,-725.5 772,-725.5 772,-448.5 772,-417.02 772,-380.37 772,-358.88"/>
<polygon fill="midnightblue" stroke="midnightblue" points="775.5,-358.63 772,-348.63 768.5,-358.63 775.5,-358.63"/>
</g>
<!-- Node49 -->
<g id="node49" class="node">
<title>Node49</title>
<g id="a_node49"><a xlink:href="../../d8/d3c/util_8h.html" target="_top" xlink:title=" ">
<polygon fill="none" stroke="black" points="645.99,-330.5 645.99,-348.5 712.01,-348.5 712.01,-330.5 645.99,-330.5"/>
<text text-anchor="middle" x="679" y="-336.5" font-family="Helvetica,sans-Serif" font-size="10.00">tralics/util.h</text>
</a>
</g>
</g>
<!-- Node1&#45;&gt;Node49 -->
<g id="edge72" class="edge">
<title>Node1&#45;&gt;Node49</title>
<path fill="none" stroke="midnightblue" d="M767.03,-825.44C756.73,-807.94 734,-764.86 734,-725.5 734,-725.5 734,-725.5 734,-448.5 734,-412.58 709.54,-376.53 693.24,-356.51"/>
<polygon fill="midnightblue" stroke="midnightblue" points="695.78,-354.09 686.65,-348.72 690.44,-358.61 695.78,-354.09"/>
</g>
<!-- Node50 -->
<g id="node50" class="node">
<title>Node50</title>
<g id="a_node50"><a xlink:title=" ">
<polygon fill="none" stroke="#bfbfbf" points="800.44,-770.5 800.44,-788.5 857.56,-788.5 857.56,-770.5 800.44,-770.5"/>
<text text-anchor="middle" x="829" y="-776.5" font-family="Helvetica,sans-Serif" font-size="10.00">algorithm</text>
</a>
</g>
</g>
<!-- Node1&#45;&gt;Node50 -->
<g id="edge76" class="edge">
<title>Node1&#45;&gt;Node50</title>
<path fill="none" stroke="midnightblue" d="M780.91,-825.22C789.41,-817.32 802.41,-805.22 812.75,-795.61"/>
<polygon fill="midnightblue" stroke="midnightblue" points="815.4,-797.92 820.34,-788.55 810.64,-792.8 815.4,-797.92"/>
</g>
<!-- Node51 -->
<g id="node51" class="node">
<title>Node51</title>
<g id="a_node51"><a xlink:title=" ">
<polygon fill="none" stroke="#bfbfbf" points="875.33,-770.5 875.33,-788.5 944.67,-788.5 944.67,-770.5 875.33,-770.5"/>
<text text-anchor="middle" x="910" y="-776.5" font-family="Helvetica,sans-Serif" font-size="10.00">fmt/format.h</text>
</a>
</g>
</g>
<!-- Node1&#45;&gt;Node51 -->
<g id="edge77" class="edge">
<title>Node1&#45;&gt;Node51</title>
<path fill="none" stroke="midnightblue" d="M792.96,-825.45C815.96,-816.62 853.1,-802.35 879.36,-792.27"/>
<polygon fill="midnightblue" stroke="midnightblue" points="880.76,-795.48 888.84,-788.63 878.25,-788.94 880.76,-795.48"/>
</g>
<!-- Node52 -->
<g id="node52" class="node">
<title>Node52</title>
<g id="a_node52"><a xlink:title=" ">
<polygon fill="none" stroke="#bfbfbf" points="962.44,-770.5 962.44,-788.5 1039.56,-788.5 1039.56,-770.5 962.44,-770.5"/>
<text text-anchor="middle" x="1001" y="-776.5" font-family="Helvetica,sans-Serif" font-size="10.00">fmt/ostream.h</text>
</a>
</g>
</g>
<!-- Node1&#45;&gt;Node52 -->
<g id="edge78" class="edge">
<title>Node1&#45;&gt;Node52</title>
<path fill="none" stroke="midnightblue" d="M800.08,-827C839.14,-817.96 910.26,-801.5 956.56,-790.79"/>
<polygon fill="midnightblue" stroke="midnightblue" points="957.38,-794.19 966.33,-788.52 955.8,-787.37 957.38,-794.19"/>
</g>
<!-- Node3 -->
<g id="node3" class="node">
<title>Node3</title>
<g id="a_node3"><a xlink:href="../../d9/d1c/_xml_8h.html" target="_top" xlink:title=" ">
<polygon fill="none" stroke="black" points="216.77,-495.5 216.77,-513.5 287.23,-513.5 287.23,-495.5 216.77,-495.5"/>
<text text-anchor="middle" x="252" y="-501.5" font-family="Helvetica,sans-Serif" font-size="10.00">tralics/Xml.h</text>
</a>
</g>
</g>
<!-- Node2&#45;&gt;Node3 -->
<g id="edge2" class="edge">
<title>Node2&#45;&gt;Node3</title>
<path fill="none" stroke="midnightblue" d="M214.04,-660.19C220.24,-634.9 239.01,-558.45 247.61,-523.4"/>
<polygon fill="midnightblue" stroke="midnightblue" points="251.03,-524.14 250.01,-513.6 244.23,-522.47 251.03,-524.14"/>
</g>
<!-- Node27 -->
<g id="node27" class="node">
<title>Node27</title>
<g id="a_node27"><a xlink:href="../../d7/d79/txinline_8h.html" target="_top" xlink:title=" ">
<polygon fill="none" stroke="black" points="128.27,-605.5 128.27,-623.5 183.73,-623.5 183.73,-605.5 128.27,-605.5"/>
<text text-anchor="middle" x="156" y="-611.5" font-family="Helvetica,sans-Serif" font-size="10.00">txinline.h</text>
</a>
</g>
</g>
<!-- Node2&#45;&gt;Node27 -->
<g id="edge30" class="edge">
<title>Node2&#45;&gt;Node27</title>
<path fill="none" stroke="midnightblue" d="M203.25,-660.22C194.9,-652.32 182.12,-640.22 171.96,-630.61"/>
<polygon fill="midnightblue" stroke="midnightblue" points="174.17,-627.88 164.51,-623.55 169.36,-632.97 174.17,-627.88"/>
</g>
<!-- Node4 -->
<g id="node4" class="node">
<title>Node4</title>
<g id="a_node4"><a xlink:href="../../d7/d1b/_buffer_8h.html" target="_top" xlink:title=" ">
<polygon fill="none" stroke="black" points="279.85,-440.5 279.85,-458.5 330.15,-458.5 330.15,-440.5 279.85,-440.5"/>
<text text-anchor="middle" x="305" y="-446.5" font-family="Helvetica,sans-Serif" font-size="10.00">Buffer.h</text>
</a>
</g>
</g>
<!-- Node3&#45;&gt;Node4 -->
<g id="edge3" class="edge">
<title>Node3&#45;&gt;Node4</title>
<path fill="none" stroke="midnightblue" d="M260.28,-495.22C268.11,-487.39 280.04,-475.46 289.61,-465.89"/>
<polygon fill="midnightblue" stroke="midnightblue" points="292.35,-468.1 296.95,-458.55 287.4,-463.15 292.35,-468.1"/>
</g>
<!-- Node26 -->
<g id="node26" class="node">
<title>Node26</title>
<g id="a_node26"><a xlink:title=" ">
<polygon fill="none" stroke="#bfbfbf" points="139.83,-440.5 139.83,-458.5 184.17,-458.5 184.17,-440.5 139.83,-440.5"/>
<text text-anchor="middle" x="162" y="-446.5" font-family="Helvetica,sans-Serif" font-size="10.00">gsl/gsl</text>
</a>
</g>
</g>
<!-- Node3&#45;&gt;Node26 -->
<g id="edge29" class="edge">
<title>Node3&#45;&gt;Node26</title>
<path fill="none" stroke="midnightblue" d="M238.33,-495.45C224.06,-487.05 201.44,-473.72 184.52,-463.76"/>
<polygon fill="midnightblue" stroke="midnightblue" points="186.19,-460.68 175.8,-458.63 182.64,-466.72 186.19,-460.68"/>
</g>
<!-- Node5 -->
<g id="node5" class="node">
<title>Node5</title>
<g id="a_node5"><a xlink:href="../../d1/d9e/txid_8h.html" target="_top" xlink:title=" ">
<polygon fill="none" stroke="black" points="365.88,-385.5 365.88,-403.5 414.12,-403.5 414.12,-385.5 365.88,-385.5"/>
<text text-anchor="middle" x="390" y="-391.5" font-family="Helvetica,sans-Serif" font-size="10.00">../txid.h</text>
</a>
</g>
</g>
<!-- Node4&#45;&gt;Node5 -->
<g id="edge4" class="edge">
<title>Node4&#45;&gt;Node5</title>
<path fill="none" stroke="midnightblue" d="M317.91,-440.45C331.26,-432.12 352.36,-418.97 368.29,-409.04"/>
<polygon fill="midnightblue" stroke="midnightblue" points="370.34,-411.89 376.97,-403.63 366.63,-405.95 370.34,-411.89"/>
</g>
<!-- Node15 -->
<g id="node15" class="node">
<title>Node15</title>
<g id="a_node15"><a xlink:href="../../d9/d18/txscaled_8h.html" target="_top" xlink:title=" ">
<polygon fill="none" stroke="black" points="142.32,-385.5 142.32,-403.5 211.68,-403.5 211.68,-385.5 142.32,-385.5"/>
<text text-anchor="middle" x="177" y="-391.5" font-family="Helvetica,sans-Serif" font-size="10.00">../txscaled.h</text>
</a>
</g>
</g>
<!-- Node4&#45;&gt;Node15 -->
<g id="edge14" class="edge">
<title>Node4&#45;&gt;Node15</title>
<path fill="none" stroke="midnightblue" d="M285.56,-440.45C264.41,-431.7 230.39,-417.61 206.06,-407.53"/>
<polygon fill="midnightblue" stroke="midnightblue" points="207.2,-404.22 196.62,-403.63 204.52,-410.68 207.2,-404.22"/>
</g>
<!-- Node23 -->
<g id="node23" class="node">
<title>Node23</title>
<g id="a_node23"><a xlink:title=" ">
<polygon fill="none" stroke="#bfbfbf" points="302.27,-385.5 302.27,-403.5 347.73,-403.5 347.73,-385.5 302.27,-385.5"/>
<text text-anchor="middle" x="325" y="-391.5" font-family="Helvetica,sans-Serif" font-size="10.00">cstring</text>
</a>
</g>
</g>
<!-- Node4&#45;&gt;Node23 -->
<g id="edge26" class="edge">
<title>Node4&#45;&gt;Node23</title>
<path fill="none" stroke="midnightblue" d="M308.12,-440.22C310.87,-432.94 314.96,-422.11 318.42,-412.93"/>
<polygon fill="midnightblue" stroke="midnightblue" points="321.71,-414.14 321.96,-403.55 315.16,-411.67 321.71,-414.14"/>
</g>
<!-- Node24 -->
<g id="node24" class="node">
<title>Node24</title>
<g id="a_node24"><a xlink:title=" ">
<polygon fill="none" stroke="#bfbfbf" points="229.83,-385.5 229.83,-403.5 284.17,-403.5 284.17,-385.5 229.83,-385.5"/>
<text text-anchor="middle" x="257" y="-391.5" font-family="Helvetica,sans-Serif" font-size="10.00">iostream</text>
</a>
</g>
</g>
<!-- Node4&#45;&gt;Node24 -->
<g id="edge27" class="edge">
<title>Node4&#45;&gt;Node24</title>
<path fill="none" stroke="midnightblue" d="M297.5,-440.22C290.48,-432.47 279.82,-420.7 271.2,-411.18"/>
<polygon fill="midnightblue" stroke="midnightblue" points="273.6,-408.61 264.29,-403.55 268.41,-413.31 273.6,-408.61"/>
</g>
<!-- Node25 -->
<g id="node25" class="node">
<title>Node25</title>
<g id="a_node25"><a xlink:title=" ">
<polygon fill="none" stroke="#bfbfbf" points="530.38,-275.5 530.38,-293.5 573.62,-293.5 573.62,-275.5 530.38,-275.5"/>
<text text-anchor="middle" x="552" y="-281.5" font-family="Helvetica,sans-Serif" font-size="10.00">vector</text>
</a>
</g>
</g>
<!-- Node4&#45;&gt;Node25 -->
<g id="edge28" class="edge">
<title>Node4&#45;&gt;Node25</title>
<path fill="none" stroke="midnightblue" d="M329.88,-440.41C354.09,-432.24 391.71,-418.75 423,-404 467.48,-383.04 484.95,-384.48 519,-349 531.49,-335.99 540.43,-317.31 545.82,-303.58"/>
<polygon fill="midnightblue" stroke="midnightblue" points="549.24,-304.42 549.39,-293.83 542.67,-302.02 549.24,-304.42"/>
</g>
<!-- Node6 -->
<g id="node6" class="node">
<title>Node6</title>
<g id="a_node6"><a xlink:href="../../d5/daf/_istring_8h.html" target="_top" xlink:title=" ">
<polygon fill="none" stroke="black" points="355.77,-275.5 355.77,-293.5 436.23,-293.5 436.23,-275.5 355.77,-275.5"/>
<text text-anchor="middle" x="396" y="-281.5" font-family="Helvetica,sans-Serif" font-size="10.00">tralics/Istring.h</text>
</a>
</g>
</g>
<!-- Node5&#45;&gt;Node6 -->
<g id="edge5" class="edge">
<title>Node5&#45;&gt;Node6</title>
<path fill="none" stroke="midnightblue" d="M365.76,-386.31C338.53,-377.68 296.94,-362.66 288,-349 283.37,-341.94 283.3,-337.02 288,-330 296.14,-317.84 329.41,-305.25 356.9,-296.58"/>
<polygon fill="midnightblue" stroke="midnightblue" points="358.17,-299.85 366.71,-293.57 356.12,-293.16 358.17,-299.85"/>
</g>
<!-- Node7 -->
<g id="node7" class="node">
<title>Node7</title>
<g id="a_node7"><a xlink:href="../../d0/d0b/enums_8h.html" target="_top" xlink:title=" ">
<polygon fill="none" stroke="black" points="437.82,-165.5 437.82,-183.5 492.18,-183.5 492.18,-165.5 437.82,-165.5"/>
<text text-anchor="middle" x="465" y="-171.5" font-family="Helvetica,sans-Serif" font-size="10.00">enums.h</text>
</a>
</g>
</g>
<!-- Node6&#45;&gt;Node7 -->
<g id="edge6" class="edge">
<title>Node6&#45;&gt;Node7</title>
<path fill="none" stroke="midnightblue" d="M401.19,-275.38C412.43,-257.79 439.22,-215.85 454.27,-192.29"/>
<polygon fill="midnightblue" stroke="midnightblue" points="457.32,-194.02 459.75,-183.71 451.42,-190.25 457.32,-194.02"/>
</g>
<!-- Node13 -->
<g id="node13" class="node">
<title>Node13</title>
<g id="a_node13"><a xlink:title=" ">
<polygon fill="none" stroke="#bfbfbf" points="364.61,-220.5 364.61,-238.5 403.39,-238.5 403.39,-220.5 364.61,-220.5"/>
<text text-anchor="middle" x="384" y="-226.5" font-family="Helvetica,sans-Serif" font-size="10.00">array</text>
</a>
</g>
</g>
<!-- Node6&#45;&gt;Node13 -->
<g id="edge12" class="edge">
<title>Node6&#45;&gt;Node13</title>
<path fill="none" stroke="midnightblue" d="M394.12,-275.22C392.51,-268.1 390.13,-257.58 388.08,-248.53"/>
<polygon fill="midnightblue" stroke="midnightblue" points="391.44,-247.53 385.82,-238.55 384.62,-249.08 391.44,-247.53"/>
</g>
<!-- Node14 -->
<g id="node14" class="node">
<title>Node14</title>
<g id="a_node14"><a xlink:title=" ">
<polygon fill="none" stroke="#bfbfbf" points="458.77,-220.5 458.77,-238.5 499.23,-238.5 499.23,-220.5 458.77,-220.5"/>
<text text-anchor="middle" x="479" y="-226.5" font-family="Helvetica,sans-Serif" font-size="10.00">string</text>
</a>
</g>
</g>
<!-- Node6&#45;&gt;Node14 -->
<g id="edge13" class="edge">
<title>Node6&#45;&gt;Node14</title>
<path fill="none" stroke="midnightblue" d="M408.61,-275.45C421.65,-267.12 442.24,-253.97 457.8,-244.04"/>
<polygon fill="midnightblue" stroke="midnightblue" points="459.73,-246.96 466.28,-238.63 455.96,-241.06 459.73,-246.96"/>
</g>
<!-- Node8 -->
<g id="node8" class="node">
<title>Node8</title>
<g id="a_node8"><a xlink:href="../../d8/db5/consts_8h.html" target="_top" xlink:title=" ">
<polygon fill="none" stroke="black" points="450.38,-110.5 450.38,-128.5 503.62,-128.5 503.62,-110.5 450.38,-110.5"/>
<text text-anchor="middle" x="477" y="-116.5" font-family="Helvetica,sans-Serif" font-size="10.00">consts.h</text>
</a>
</g>
</g>
<!-- Node7&#45;&gt;Node8 -->
<g id="edge7" class="edge">
<title>Node7&#45;&gt;Node8</title>
<path fill="none" stroke="midnightblue" d="M466.88,-165.22C468.49,-158.1 470.87,-147.58 472.92,-138.53"/>
<polygon fill="midnightblue" stroke="midnightblue" points="476.38,-139.08 475.18,-128.55 469.56,-137.53 476.38,-139.08"/>
</g>
<!-- Node9 -->
<g id="node9" class="node">
<title>Node9</title>
<g id="a_node9"><a xlink:href="../../d9/d49/types_8h.html" target="_top" xlink:title=" ">
<polygon fill="none" stroke="black" points="519.88,-55.5 519.88,-73.5 568.12,-73.5 568.12,-55.5 519.88,-55.5"/>
<text text-anchor="middle" x="544" y="-61.5" font-family="Helvetica,sans-Serif" font-size="10.00">types.h</text>
</a>
</g>
</g>
<!-- Node8&#45;&gt;Node9 -->
<g id="edge8" class="edge">
<title>Node8&#45;&gt;Node9</title>
<path fill="none" stroke="midnightblue" d="M487.18,-110.45C497.41,-102.36 513.4,-89.7 525.82,-79.88"/>
<polygon fill="midnightblue" stroke="midnightblue" points="528.06,-82.57 533.73,-73.63 523.71,-77.08 528.06,-82.57"/>
</g>
<!-- Node10 -->
<g id="node10" class="node">
<title>Node10</title>
<g id="a_node10"><a xlink:title=" ">
<polygon fill="none" stroke="#bfbfbf" points="538.88,-0.5 538.88,-18.5 587.12,-18.5 587.12,-0.5 538.88,-0.5"/>
<text text-anchor="middle" x="563" y="-6.5" font-family="Helvetica,sans-Serif" font-size="10.00">cassert</text>
</a>
</g>
</g>
<!-- Node9&#45;&gt;Node10 -->
<g id="edge9" class="edge">
<title>Node9&#45;&gt;Node10</title>
<path fill="none" stroke="midnightblue" d="M546.97,-55.22C549.55,-48.02 553.38,-37.35 556.64,-28.23"/>
<polygon fill="midnightblue" stroke="midnightblue" points="560.03,-29.14 560.11,-18.55 553.44,-26.78 560.03,-29.14"/>
</g>
<!-- Node11 -->
<g id="node11" class="node">
<title>Node11</title>
<g id="a_node11"><a xlink:title=" ">
<polygon fill="none" stroke="#bfbfbf" points="607.88,-0.5 607.88,-18.5 656.12,-18.5 656.12,-0.5 607.88,-0.5"/>
<text text-anchor="middle" x="632" y="-6.5" font-family="Helvetica,sans-Serif" font-size="10.00">cstddef</text>
</a>
</g>
</g>
<!-- Node9&#45;&gt;Node11 -->
<g id="edge10" class="edge">
<title>Node9&#45;&gt;Node11</title>
<path fill="none" stroke="midnightblue" d="M557.37,-55.45C571.19,-47.12 593.03,-33.97 609.52,-24.04"/>
<polygon fill="midnightblue" stroke="midnightblue" points="611.75,-26.78 618.51,-18.63 608.14,-20.79 611.75,-26.78"/>
</g>
<!-- Node12 -->
<g id="node12" class="node">
<title>Node12</title>
<g id="a_node12"><a xlink:title=" ">
<polygon fill="none" stroke="#bfbfbf" points="458.93,-0.5 458.93,-18.5 521.07,-18.5 521.07,-0.5 458.93,-0.5"/>
<text text-anchor="middle" x="490" y="-6.5" font-family="Helvetica,sans-Serif" font-size="10.00">type_traits</text>
</a>
</g>
</g>
<!-- Node9&#45;&gt;Node12 -->
<g id="edge11" class="edge">
<title>Node9&#45;&gt;Node12</title>
<path fill="none" stroke="midnightblue" d="M535.56,-55.22C527.51,-47.32 515.19,-35.22 505.39,-25.61"/>
<polygon fill="midnightblue" stroke="midnightblue" points="507.79,-23.06 498.2,-18.55 502.89,-28.05 507.79,-23.06"/>
</g>
<!-- Node16 -->
<g id="node16" class="node">
<title>Node16</title>
<g id="a_node16"><a xlink:href="../../dc/d91/txtokenlist_8h.html" target="_top" xlink:title=" ">
<polygon fill="none" stroke="black" points="172.6,-330.5 172.6,-348.5 241.4,-348.5 241.4,-330.5 172.6,-330.5"/>
<text text-anchor="middle" x="207" y="-336.5" font-family="Helvetica,sans-Serif" font-size="10.00">txtokenlist.h</text>
</a>
</g>
</g>
<!-- Node15&#45;&gt;Node16 -->
<g id="edge15" class="edge">
<title>Node15&#45;&gt;Node16</title>
<path fill="none" stroke="midnightblue" d="M181.69,-385.22C185.89,-377.79 192.2,-366.65 197.47,-357.34"/>
<polygon fill="midnightblue" stroke="midnightblue" points="200.56,-358.98 202.44,-348.55 194.47,-355.53 200.56,-358.98"/>
</g>
<!-- Node16&#45;&gt;Node6 -->
<g id="edge16" class="edge">
<title>Node16&#45;&gt;Node6</title>
<path fill="none" stroke="midnightblue" d="M235.71,-330.45C268.27,-321.32 321.53,-306.38 357.64,-296.26"/>
<polygon fill="midnightblue" stroke="midnightblue" points="358.65,-299.61 367.34,-293.54 356.76,-292.87 358.65,-299.61"/>
</g>
<!-- Node17 -->
<g id="node17" class="node">
<title>Node17</title>
<g id="a_node17"><a xlink:href="../../dd/dcd/_token_8h.html" target="_top" xlink:title=" ">
<polygon fill="none" stroke="black" points="201.04,-275.5 201.04,-293.5 280.96,-293.5 280.96,-275.5 201.04,-275.5"/>
<text text-anchor="middle" x="241" y="-281.5" font-family="Helvetica,sans-Serif" font-size="10.00">tralics/Token.h</text>
</a>
</g>
</g>
<!-- Node16&#45;&gt;Node17 -->
<g id="edge17" class="edge">
<title>Node16&#45;&gt;Node17</title>
<path fill="none" stroke="midnightblue" d="M212.31,-330.22C217.13,-322.71 224.38,-311.41 230.38,-302.05"/>
<polygon fill="midnightblue" stroke="midnightblue" points="233.38,-303.86 235.84,-293.55 227.49,-300.08 233.38,-303.86"/>
</g>
<!-- Node22 -->
<g id="node22" class="node">
<title>Node22</title>
<g id="a_node22"><a xlink:title=" ">
<polygon fill="none" stroke="#bfbfbf" points="298.61,-275.5 298.61,-293.5 337.39,-293.5 337.39,-275.5 298.61,-275.5"/>
<text text-anchor="middle" x="318" y="-281.5" font-family="Helvetica,sans-Serif" font-size="10.00">utility</text>
</a>
</g>
</g>
<!-- Node16&#45;&gt;Node22 -->
<g id="edge25" class="edge">
<title>Node16&#45;&gt;Node22</title>
<path fill="none" stroke="midnightblue" d="M223.86,-330.45C241.95,-321.81 270.92,-307.98 291.95,-297.94"/>
<polygon fill="midnightblue" stroke="midnightblue" points="293.47,-301.09 300.98,-293.63 290.45,-294.78 293.47,-301.09"/>
</g>
<!-- Node17&#45;&gt;Node13 -->
<g id="edge23" class="edge">
<title>Node17&#45;&gt;Node13</title>
<path fill="none" stroke="midnightblue" d="M262.72,-275.45C287.35,-266.32 327.64,-251.39 354.96,-241.26"/>
<polygon fill="midnightblue" stroke="midnightblue" points="356.22,-244.53 364.38,-237.77 353.79,-237.96 356.22,-244.53"/>
</g>
<!-- Node18 -->
<g id="node18" class="node">
<title>Node18</title>
<g id="a_node18"><a xlink:href="../../d2/d68/_cmd_chr_8h.html" target="_top" xlink:title=" ">
<polygon fill="none" stroke="black" points="285.49,-220.5 285.49,-238.5 346.51,-238.5 346.51,-220.5 285.49,-220.5"/>
<text text-anchor="middle" x="316" y="-226.5" font-family="Helvetica,sans-Serif" font-size="10.00">CmdChr.h</text>
</a>
</g>
</g>
<!-- Node17&#45;&gt;Node18 -->
<g id="edge18" class="edge">
<title>Node17&#45;&gt;Node18</title>
<path fill="none" stroke="midnightblue" d="M252.39,-275.45C263.95,-267.28 282.09,-254.46 296.05,-244.6"/>
<polygon fill="midnightblue" stroke="midnightblue" points="298.36,-247.25 304.5,-238.63 294.32,-241.54 298.36,-247.25"/>
</g>
<!-- Node21 -->
<g id="node21" class="node">
<title>Node21</title>
<g id="a_node21"><a xlink:title=" ">
<polygon fill="none" stroke="#bfbfbf" points="226.5,-220.5 226.5,-238.5 255.5,-238.5 255.5,-220.5 226.5,-220.5"/>
<text text-anchor="middle" x="240.61" y="-226.5" font-family="Helvetica,sans-Serif" font-size="10.00">list</text>
</a>
</g>
</g>
<!-- Node17&#45;&gt;Node21 -->
<g id="edge24" class="edge">
<title>Node17&#45;&gt;Node21</title>
<path fill="none" stroke="midnightblue" d="M241,-275.22C241,-268.18 241,-257.81 241,-248.83"/>
<polygon fill="midnightblue" stroke="midnightblue" points="244.5,-248.55 241,-238.55 237.5,-248.55 244.5,-248.55"/>
</g>
<!-- Node18&#45;&gt;Node7 -->
<g id="edge22" class="edge">
<title>Node18&#45;&gt;Node7</title>
<path fill="none" stroke="midnightblue" d="M338.63,-220.45C363.68,-211.54 404.27,-197.1 432.67,-187"/>
<polygon fill="midnightblue" stroke="midnightblue" points="433.91,-190.27 442.16,-183.63 431.56,-183.68 433.91,-190.27"/>
</g>
<!-- Node19 -->
<g id="node19" class="node">
<title>Node19</title>
<g id="a_node19"><a xlink:href="../../d8/d47/codepoint_8h.html" target="_top" xlink:title=" ">
<polygon fill="none" stroke="black" points="510.15,-165.5 510.15,-183.5 577.85,-183.5 577.85,-165.5 510.15,-165.5"/>
<text text-anchor="middle" x="544" y="-171.5" font-family="Helvetica,sans-Serif" font-size="10.00">codepoint.h</text>
</a>
</g>
</g>
<!-- Node18&#45;&gt;Node19 -->
<g id="edge19" class="edge">
<title>Node18&#45;&gt;Node19</title>
<path fill="none" stroke="midnightblue" d="M346.75,-221.35C386.3,-212.16 455.25,-196.13 500.25,-185.67"/>
<polygon fill="midnightblue" stroke="midnightblue" points="501.08,-189.07 510.03,-183.4 499.5,-182.25 501.08,-189.07"/>
</g>
<!-- Node19&#45;&gt;Node9 -->
<g id="edge20" class="edge">
<title>Node19&#45;&gt;Node9</title>
<path fill="none" stroke="midnightblue" d="M544,-165.38C544,-148.18 544,-107.7 544,-83.89"/>
<polygon fill="midnightblue" stroke="midnightblue" points="547.5,-83.71 544,-73.71 540.5,-83.71 547.5,-83.71"/>
</g>
<!-- Node20 -->
<g id="node20" class="node">
<title>Node20</title>
<g id="a_node20"><a xlink:title=" ">
<polygon fill="none" stroke="#bfbfbf" points="576.49,-110.5 576.49,-128.5 627.51,-128.5 627.51,-110.5 576.49,-110.5"/>
<text text-anchor="middle" x="602" y="-116.5" font-family="Helvetica,sans-Serif" font-size="10.00">optional</text>
</a>
</g>
</g>
<!-- Node19&#45;&gt;Node20 -->
<g id="edge21" class="edge">
<title>Node19&#45;&gt;Node20</title>
<path fill="none" stroke="midnightblue" d="M553.06,-165.22C561.8,-157.24 575.21,-144.98 585.78,-135.32"/>
<polygon fill="midnightblue" stroke="midnightblue" points="588.17,-137.88 593.19,-128.55 583.45,-132.71 588.17,-137.88"/>
</g>
<!-- Node28 -->
<g id="node28" class="node">
<title>Node28</title>
<g id="a_node28"><a xlink:href="../../d4/de9/_main_class_8h.html" target="_top" xlink:title=" ">
<polygon fill="none" stroke="black" points="106.04,-550.5 106.04,-568.5 205.96,-568.5 205.96,-550.5 106.04,-550.5"/>
<text text-anchor="middle" x="156" y="-556.5" font-family="Helvetica,sans-Serif" font-size="10.00">tralics/MainClass.h</text>
</a>
</g>
</g>
<!-- Node27&#45;&gt;Node28 -->
<g id="edge31" class="edge">
<title>Node27&#45;&gt;Node28</title>
<path fill="none" stroke="midnightblue" d="M156,-605.22C156,-598.18 156,-587.81 156,-578.83"/>
<polygon fill="midnightblue" stroke="midnightblue" points="159.5,-578.55 156,-568.55 152.5,-578.55 159.5,-578.55"/>
</g>
<!-- Node31 -->
<g id="node31" class="node">
<title>Node31</title>
<g id="a_node31"><a xlink:href="../../d5/d08/txparam_8h.html" target="_top" xlink:title=" ">
<polygon fill="none" stroke="black" points="27.77,-550.5 27.77,-568.5 88.23,-568.5 88.23,-550.5 27.77,-550.5"/>
<text text-anchor="middle" x="58" y="-556.5" font-family="Helvetica,sans-Serif" font-size="10.00">txparam.h</text>
</a>
</g>
</g>
<!-- Node27&#45;&gt;Node31 -->
<g id="edge35" class="edge">
<title>Node27&#45;&gt;Node31</title>
<path fill="none" stroke="midnightblue" d="M141.12,-605.45C125.43,-596.97 100.49,-583.48 82.01,-573.49"/>
<polygon fill="midnightblue" stroke="midnightblue" points="83.49,-570.3 73.02,-568.63 80.16,-576.46 83.49,-570.3"/>
</g>
<!-- Node29 -->
<g id="node29" class="node">
<title>Node29</title>
<g id="a_node29"><a xlink:href="../../de/d29/txio_8h.html" target="_top" xlink:title=" ">
<polygon fill="none" stroke="black" points="101.88,-495.5 101.88,-513.5 150.12,-513.5 150.12,-495.5 101.88,-495.5"/>
<text text-anchor="middle" x="126" y="-501.5" font-family="Helvetica,sans-Serif" font-size="10.00">../txio.h</text>
</a>
</g>
</g>
<!-- Node28&#45;&gt;Node29 -->
<g id="edge32" class="edge">
<title>Node28&#45;&gt;Node29</title>
<path fill="none" stroke="midnightblue" d="M151.31,-550.22C147.11,-542.79 140.8,-531.65 135.53,-522.34"/>
<polygon fill="midnightblue" stroke="midnightblue" points="138.53,-520.53 130.56,-513.55 132.44,-523.98 138.53,-520.53"/>
</g>
<!-- Node29&#45;&gt;Node4 -->
<g id="edge33" class="edge">
<title>Node29&#45;&gt;Node4</title>
<path fill="none" stroke="midnightblue" d="M150.14,-496.35C180.97,-487.22 234.56,-471.36 269.91,-460.89"/>
<polygon fill="midnightblue" stroke="midnightblue" points="271.21,-464.16 279.8,-457.96 269.22,-457.44 271.21,-464.16"/>
</g>
<!-- Node30 -->
<g id="node30" class="node">
<title>Node30</title>
<g id="a_node30"><a xlink:title=" ">
<polygon fill="none" stroke="#bfbfbf" points="72.33,-440.5 72.33,-458.5 121.67,-458.5 121.67,-440.5 72.33,-440.5"/>
<text text-anchor="middle" x="97" y="-446.5" font-family="Helvetica,sans-Serif" font-size="10.00">fstream</text>
</a>
</g>
</g>
<!-- Node29&#45;&gt;Node30 -->
<g id="edge34" class="edge">
<title>Node29&#45;&gt;Node30</title>
<path fill="none" stroke="midnightblue" d="M121.47,-495.22C117.4,-487.79 111.31,-476.65 106.22,-467.34"/>
<polygon fill="midnightblue" stroke="midnightblue" points="109.28,-465.64 101.4,-458.55 103.13,-469 109.28,-465.64"/>
</g>
<!-- Node31&#45;&gt;Node29 -->
<g id="edge36" class="edge">
<title>Node31&#45;&gt;Node29</title>
<path fill="none" stroke="midnightblue" d="M68.33,-550.45C78.71,-542.36 94.95,-529.7 107.55,-519.88"/>
<polygon fill="midnightblue" stroke="midnightblue" points="109.84,-522.53 115.58,-513.63 105.54,-517.01 109.84,-522.53"/>
</g>
<!-- Node33 -->
<g id="node33" class="node">
<title>Node33</title>
<g id="a_node33"><a xlink:href="../../d3/d6b/txcond_8h.html" target="_top" xlink:title=" ">
<polygon fill="none" stroke="black" points="565.93,-330.5 565.93,-348.5 628.07,-348.5 628.07,-330.5 565.93,-330.5"/>
<text text-anchor="middle" x="597" y="-336.5" font-family="Helvetica,sans-Serif" font-size="10.00">../txcond.h</text>
</a>
</g>
</g>
<!-- Node32&#45;&gt;Node33 -->
<g id="edge38" class="edge">
<title>Node32&#45;&gt;Node33</title>
<path fill="none" stroke="midnightblue" d="M522.01,-770.38C556.65,-756.02 620,-722.63 620,-670.5 620,-670.5 620,-670.5 620,-448.5 620,-416.01 609.92,-379.21 603.11,-358.04"/>
<polygon fill="midnightblue" stroke="midnightblue" points="606.41,-356.88 599.91,-348.5 599.77,-359.1 606.41,-356.88"/>
</g>
<!-- Node34 -->
<g id="node34" class="node">
<title>Node34</title>
<g id="a_node34"><a xlink:href="../../d7/d4d/txfonts_8h.html" target="_top" xlink:title=" ">
<polygon fill="none" stroke="black" points="327.93,-715.5 327.93,-733.5 390.07,-733.5 390.07,-715.5 327.93,-715.5"/>
<text text-anchor="middle" x="359" y="-721.5" font-family="Helvetica,sans-Serif" font-size="10.00">../txfonts.h</text>
</a>
</g>
</g>
<!-- Node32&#45;&gt;Node34 -->
<g id="edge41" class="edge">
<title>Node32&#45;&gt;Node34</title>
<path fill="none" stroke="midnightblue" d="M478.59,-770.45C455.09,-761.62 417.14,-747.35 390.3,-737.27"/>
<polygon fill="midnightblue" stroke="midnightblue" points="391.21,-733.87 380.62,-733.63 388.75,-740.42 391.21,-733.87"/>
</g>
<!-- Node38 -->
<g id="node38" class="node">
<title>Node38</title>
<g id="a_node38"><a xlink:href="../../de/d7c/tximage_8h.html" target="_top" xlink:title=" ">
<polygon fill="none" stroke="black" points="381.16,-330.5 381.16,-348.5 448.84,-348.5 448.84,-330.5 381.16,-330.5"/>
<text text-anchor="middle" x="415" y="-336.5" font-family="Helvetica,sans-Serif" font-size="10.00">../tximage.h</text>
</a>
</g>
</g>
<!-- Node32&#45;&gt;Node38 -->
<g id="edge46" class="edge">
<title>Node32&#45;&gt;Node38</title>
<path fill="none" stroke="midnightblue" d="M500,-770.37C500,-752.38 500,-707.81 500,-670.5 500,-670.5 500,-670.5 500,-448.5 500,-418.33 494.28,-409 476,-385 466.32,-372.29 452.02,-361.59 439.7,-353.87"/>
<polygon fill="midnightblue" stroke="midnightblue" points="441.16,-350.67 430.78,-348.57 437.58,-356.68 441.16,-350.67"/>
</g>
<!-- Node39 -->
<g id="node39" class="node">
<title>Node39</title>
<g id="a_node39"><a xlink:href="../../dc/d65/txstack_8h.html" target="_top" xlink:title=" ">
<polygon fill="none" stroke="black" points="528.1,-550.5 528.1,-568.5 591.9,-568.5 591.9,-550.5 528.1,-550.5"/>
<text text-anchor="middle" x="560" y="-556.5" font-family="Helvetica,sans-Serif" font-size="10.00">../txstack.h</text>
</a>
</g>
</g>
<!-- Node32&#45;&gt;Node39 -->
<g id="edge49" class="edge">
<title>Node32&#45;&gt;Node39</title>
<path fill="none" stroke="midnightblue" d="M502.69,-770.33C505.6,-761.43 510.3,-746.76 514,-734 530.3,-677.75 547.45,-610.59 555.43,-578.85"/>
<polygon fill="midnightblue" stroke="midnightblue" points="558.9,-579.39 557.93,-568.84 552.11,-577.7 558.9,-579.39"/>
</g>
<!-- Node41 -->
<g id="node41" class="node">
<title>Node41</title>
<g id="a_node41"><a xlink:href="../../d8/d3d/txstats_8h.html" target="_top" xlink:title=" ">
<polygon fill="none" stroke="black" points="620.21,-55.5 620.21,-73.5 681.79,-73.5 681.79,-55.5 620.21,-55.5"/>
<text text-anchor="middle" x="651" y="-61.5" font-family="Helvetica,sans-Serif" font-size="10.00">../txstats.h</text>
</a>
</g>
</g>
<!-- Node32&#45;&gt;Node41 -->
<g id="edge55" class="edge">
<title>Node32&#45;&gt;Node41</title>
<path fill="none" stroke="midnightblue" d="M541.09,-774.16C598.56,-765.55 696,-740.63 696,-670.5 696,-670.5 696,-670.5 696,-503.5 696,-414.61 781.22,-427.45 823,-349 836.85,-323 842,-314.96 842,-285.5 842,-285.5 842,-285.5 842,-173.5 842,-105.18 748.27,-79.58 692.13,-70.38"/>
<polygon fill="midnightblue" stroke="midnightblue" points="692.53,-66.9 682.11,-68.84 691.47,-73.82 692.53,-66.9"/>
</g>
<!-- Node42 -->
<g id="node42" class="node">
<title>Node42</title>
<g id="a_node42"><a xlink:href="../../d8/dd6/_e_q_t_b_8h.html" target="_top" xlink:title=" ">
<polygon fill="none" stroke="black" points="46.22,-660.5 46.22,-678.5 97.78,-678.5 97.78,-660.5 46.22,-660.5"/>
<text text-anchor="middle" x="72" y="-666.5" font-family="Helvetica,sans-Serif" font-size="10.00">EQTB.h</text>
</a>
</g>
</g>
<!-- Node32&#45;&gt;Node42 -->
<g id="edge57" class="edge">
<title>Node32&#45;&gt;Node42</title>
<path fill="none" stroke="midnightblue" d="M466.95,-770.48C430.64,-761.65 370.62,-746.98 319,-734 243.79,-715.09 155.88,-692.33 107.84,-679.84"/>
<polygon fill="midnightblue" stroke="midnightblue" points="108.5,-676.39 97.94,-677.26 106.73,-683.17 108.5,-676.39"/>
</g>
<!-- Node43 -->
<g id="node43" class="node">
<title>Node43</title>
<g id="a_node43"><a xlink:href="../../da/d27/_hashtab_8h.html" target="_top" xlink:title=" ">
<polygon fill="none" stroke="black" points="341.21,-495.5 341.21,-513.5 402.79,-513.5 402.79,-495.5 341.21,-495.5"/>
<text text-anchor="middle" x="372" y="-501.5" font-family="Helvetica,sans-Serif" font-size="10.00">Hashtab.h</text>
</a>
</g>
</g>
<!-- Node32&#45;&gt;Node43 -->
<g id="edge59" class="edge">
<title>Node32&#45;&gt;Node43</title>
<path fill="none" stroke="midnightblue" d="M496.17,-770.33C478.54,-732.73 405.02,-575.93 380.21,-523.02"/>
<polygon fill="midnightblue" stroke="midnightblue" points="383.23,-521.21 375.82,-513.64 376.89,-524.18 383.23,-521.21"/>
</g>
<!-- Node46 -->
<g id="node46" class="node">
<title>Node46</title>
<g id="a_node46"><a xlink:href="../../d9/dba/_label_info_8h.html" target="_top" xlink:title=" ">
<polygon fill="none" stroke="black" points="297.26,-330.5 297.26,-348.5 362.74,-348.5 362.74,-330.5 297.26,-330.5"/>
<text text-anchor="middle" x="330" y="-336.5" font-family="Helvetica,sans-Serif" font-size="10.00">LabelInfo.h</text>
</a>
</g>
</g>
<!-- Node32&#45;&gt;Node46 -->
<g id="edge64" class="edge">
<title>Node32&#45;&gt;Node46</title>
<path fill="none" stroke="midnightblue" d="M497.51,-770.27C489.05,-741.63 462,-643.48 462,-560.5 462,-560.5 462,-560.5 462,-448.5 462,-398.41 404.36,-367.36 365.26,-352.06"/>
<polygon fill="midnightblue" stroke="midnightblue" points="366.36,-348.73 355.76,-348.51 363.9,-355.29 366.36,-348.73"/>
</g>
<!-- Node33&#45;&gt;Node7 -->
<g id="edge39" class="edge">
<title>Node33&#45;&gt;Node7</title>
<path fill="none" stroke="midnightblue" d="M596.85,-330.48C596.28,-317.8 593.74,-292.78 583,-275 559.69,-236.43 516.08,-205.6 488.91,-188.98"/>
<polygon fill="midnightblue" stroke="midnightblue" points="490.42,-185.81 480.04,-183.71 486.84,-191.83 490.42,-185.81"/>
</g>
<!-- Node33&#45;&gt;Node25 -->
<g id="edge40" class="edge">
<title>Node33&#45;&gt;Node25</title>
<path fill="none" stroke="midnightblue" d="M589.97,-330.22C583.39,-322.47 573.4,-310.7 565.31,-301.18"/>
<polygon fill="midnightblue" stroke="midnightblue" points="567.97,-298.91 558.83,-293.55 562.64,-303.44 567.97,-298.91"/>
</g>
<!-- Node35 -->
<g id="node35" class="node">
<title>Node35</title>
<g id="a_node35"><a xlink:href="../../d6/dec/_logger_8h.html" target="_top" xlink:title=" ">
<polygon fill="none" stroke="black" points="282.09,-660.5 282.09,-678.5 365.91,-678.5 365.91,-660.5 282.09,-660.5"/>
<text text-anchor="middle" x="324" y="-666.5" font-family="Helvetica,sans-Serif" font-size="10.00">tralics/Logger.h</text>
</a>
</g>
</g>
<!-- Node34&#45;&gt;Node35 -->
<g id="edge42" class="edge">
<title>Node34&#45;&gt;Node35</title>
<path fill="none" stroke="midnightblue" d="M353.53,-715.22C348.57,-707.71 341.11,-696.41 334.93,-687.05"/>
<polygon fill="midnightblue" stroke="midnightblue" points="337.75,-684.97 329.32,-678.55 331.91,-688.82 337.75,-684.97"/>
</g>
<!-- Node35&#45;&gt;Node27 -->
<g id="edge43" class="edge">
<title>Node35&#45;&gt;Node27</title>
<path fill="none" stroke="midnightblue" d="M298.48,-660.45C269.91,-651.44 223.41,-636.77 191.34,-626.65"/>
<polygon fill="midnightblue" stroke="midnightblue" points="192.07,-623.21 181.48,-623.54 189.96,-629.88 192.07,-623.21"/>
</g>
<!-- Node36 -->
<g id="node36" class="node">
<title>Node36</title>
<g id="a_node36"><a xlink:title=" ">
<polygon fill="none" stroke="#bfbfbf" points="239.94,-605.5 239.94,-623.5 292.06,-623.5 292.06,-605.5 239.94,-605.5"/>
<text text-anchor="middle" x="266" y="-611.5" font-family="Helvetica,sans-Serif" font-size="10.00">memory</text>
</a>
</g>
</g>
<!-- Node35&#45;&gt;Node36 -->
<g id="edge44" class="edge">
<title>Node35&#45;&gt;Node36</title>
<path fill="none" stroke="midnightblue" d="M314.94,-660.22C306.2,-652.24 292.79,-639.98 282.22,-630.32"/>
<polygon fill="midnightblue" stroke="midnightblue" points="284.55,-627.71 274.81,-623.55 279.83,-632.88 284.55,-627.71"/>
</g>
<!-- Node37 -->
<g id="node37" class="node">
<title>Node37</title>
<g id="a_node37"><a xlink:title=" ">
<polygon fill="none" stroke="#bfbfbf" points="309.97,-605.5 309.97,-623.5 396.03,-623.5 396.03,-605.5 309.97,-605.5"/>
<text text-anchor="middle" x="353" y="-611.5" font-family="Helvetica,sans-Serif" font-size="10.00">spdlog/spdlog.h</text>
</a>
</g>
</g>
<!-- Node35&#45;&gt;Node37 -->
<g id="edge45" class="edge">
<title>Node35&#45;&gt;Node37</title>
<path fill="none" stroke="midnightblue" d="M328.53,-660.22C332.6,-652.79 338.69,-641.65 343.78,-632.34"/>
<polygon fill="midnightblue" stroke="midnightblue" points="346.87,-634 348.6,-623.55 340.72,-630.64 346.87,-634"/>
</g>
<!-- Node38&#45;&gt;Node14 -->
<g id="edge47" class="edge">
<title>Node38&#45;&gt;Node14</title>
<path fill="none" stroke="midnightblue" d="M420.78,-330.46C427.02,-321.67 437.11,-307.09 445,-294 454.17,-278.79 463.63,-260.91 470.24,-248.01"/>
<polygon fill="midnightblue" stroke="midnightblue" points="473.47,-249.37 474.86,-238.87 467.22,-246.21 473.47,-249.37"/>
</g>
<!-- Node38&#45;&gt;Node22 -->
<g id="edge48" class="edge">
<title>Node38&#45;&gt;Node22</title>
<path fill="none" stroke="midnightblue" d="M400.27,-330.45C384.74,-321.97 360.05,-308.48 341.77,-298.49"/>
<polygon fill="midnightblue" stroke="midnightblue" points="343.32,-295.35 332.87,-293.63 339.97,-301.49 343.32,-295.35"/>
</g>
<!-- Node39&#45;&gt;Node3 -->
<g id="edge50" class="edge">
<title>Node39&#45;&gt;Node3</title>
<path fill="none" stroke="midnightblue" d="M527.91,-552.98C472.89,-543.51 360.39,-524.15 297.36,-513.31"/>
<polygon fill="midnightblue" stroke="midnightblue" points="297.76,-509.82 287.32,-511.58 296.58,-516.72 297.76,-509.82"/>
</g>
<!-- Node40 -->
<g id="node40" class="node">
<title>Node40</title>
<g id="a_node40"><a xlink:href="../../d4/da4/txatt_8h.html" target="_top" xlink:title=" ">
<polygon fill="none" stroke="black" points="466.38,-330.5 466.38,-348.5 509.62,-348.5 509.62,-330.5 466.38,-330.5"/>
<text text-anchor="middle" x="488" y="-336.5" font-family="Helvetica,sans-Serif" font-size="10.00">txatt.h</text>
</a>
</g>
</g>
<!-- Node39&#45;&gt;Node40 -->
<g id="edge51" class="edge">
<title>Node39&#45;&gt;Node40</title>
<path fill="none" stroke="midnightblue" d="M558.64,-550.29C554.26,-524.95 539.36,-446 514,-385 510,-375.38 504.26,-365.3 499.19,-357.18"/>
<polygon fill="midnightblue" stroke="midnightblue" points="502.06,-355.17 493.69,-348.68 496.19,-358.98 502.06,-355.17"/>
</g>
<!-- Node40&#45;&gt;Node6 -->
<g id="edge52" class="edge">
<title>Node40&#45;&gt;Node6</title>
<path fill="none" stroke="midnightblue" d="M474.03,-330.45C459.44,-322.05 436.31,-308.72 419.02,-298.76"/>
<polygon fill="midnightblue" stroke="midnightblue" points="420.52,-295.58 410.1,-293.63 417.02,-301.65 420.52,-295.58"/>
</g>
<!-- Node40&#45;&gt;Node20 -->
<g id="edge53" class="edge">
<title>Node40&#45;&gt;Node20</title>
<path fill="none" stroke="midnightblue" d="M491.7,-330.47C497.45,-318.22 509.12,-294.24 521,-275 547.26,-232.49 566.18,-229.42 587,-184 593.64,-169.5 597.52,-151.75 599.66,-138.7"/>
<polygon fill="midnightblue" stroke="midnightblue" points="603.14,-139.05 601.12,-128.65 596.22,-138.04 603.14,-139.05"/>
</g>
<!-- Node40&#45;&gt;Node25 -->
<g id="edge54" class="edge">
<title>Node40&#45;&gt;Node25</title>
<path fill="none" stroke="midnightblue" d="M497.72,-330.45C507.4,-322.43 522.48,-309.95 534.29,-300.17"/>
<polygon fill="midnightblue" stroke="midnightblue" points="536.72,-302.7 542.19,-293.63 532.25,-297.31 536.72,-302.7"/>
</g>
<!-- Node41&#45;&gt;Node11 -->
<g id="edge56" class="edge">
<title>Node41&#45;&gt;Node11</title>
<path fill="none" stroke="midnightblue" d="M648.03,-55.22C645.45,-48.02 641.62,-37.35 638.36,-28.23"/>
<polygon fill="midnightblue" stroke="midnightblue" points="641.56,-26.78 634.89,-18.55 634.97,-29.14 641.56,-26.78"/>
</g>
<!-- Node42&#45;&gt;Node15 -->
<g id="edge58" class="edge">
<title>Node42&#45;&gt;Node15</title>
<path fill="none" stroke="midnightblue" d="M61.38,-660.26C41.35,-643.7 0,-604.22 0,-560.5 0,-560.5 0,-560.5 0,-503.5 0,-441.74 79.49,-414.25 131.93,-402.84"/>
<polygon fill="midnightblue" stroke="midnightblue" points="132.94,-406.21 142.03,-400.77 131.53,-399.35 132.94,-406.21"/>
</g>
<!-- Node43&#45;&gt;Node4 -->
<g id="edge62" class="edge">
<title>Node43&#45;&gt;Node4</title>
<path fill="none" stroke="midnightblue" d="M361.82,-495.45C351.59,-487.36 335.6,-474.7 323.18,-464.88"/>
<polygon fill="midnightblue" stroke="midnightblue" points="325.29,-462.08 315.27,-458.63 320.94,-467.57 325.29,-462.08"/>
</g>
<!-- Node44 -->
<g id="node44" class="node">
<title>Node44</title>
<g id="a_node44"><a xlink:href="../../d3/d01/txeqtb_8h.html" target="_top" xlink:title=" ">
<polygon fill="none" stroke="black" points="202.04,-440.5 202.04,-458.5 261.96,-458.5 261.96,-440.5 202.04,-440.5"/>
<text text-anchor="middle" x="232" y="-446.5" font-family="Helvetica,sans-Serif" font-size="10.00">../txeqtb.h</text>
</a>
</g>
</g>
<!-- Node43&#45;&gt;Node44 -->
<g id="edge60" class="edge">
<title>Node43&#45;&gt;Node44</title>
<path fill="none" stroke="midnightblue" d="M350.74,-495.45C327.4,-486.62 289.73,-472.35 263.08,-462.27"/>
<polygon fill="midnightblue" stroke="midnightblue" points="264.05,-458.89 253.46,-458.63 261.58,-465.44 264.05,-458.89"/>
</g>
<!-- Node45 -->
<g id="node45" class="node">
<title>Node45</title>
<g id="a_node45"><a xlink:title=" ">
<polygon fill="none" stroke="#bfbfbf" points="347.7,-440.5 347.7,-458.5 434.3,-458.5 434.3,-440.5 347.7,-440.5"/>
<text text-anchor="middle" x="391" y="-446.5" font-family="Helvetica,sans-Serif" font-size="10.00">unordered_map</text>
</a>
</g>
</g>
<!-- Node43&#45;&gt;Node45 -->
<g id="edge63" class="edge">
<title>Node43&#45;&gt;Node45</title>
<path fill="none" stroke="midnightblue" d="M374.97,-495.22C377.55,-488.02 381.38,-477.35 384.64,-468.23"/>
<polygon fill="midnightblue" stroke="midnightblue" points="388.03,-469.14 388.11,-458.55 381.44,-466.78 388.03,-469.14"/>
</g>
<!-- Node44&#45;&gt;Node15 -->
<g id="edge61" class="edge">
<title>Node44&#45;&gt;Node15</title>
<path fill="none" stroke="midnightblue" d="M223.41,-440.22C215.21,-432.32 202.66,-420.22 192.68,-410.61"/>
<polygon fill="midnightblue" stroke="midnightblue" points="194.98,-407.97 185.35,-403.55 190.13,-413.01 194.98,-407.97"/>
</g>
<!-- Node46&#45;&gt;Node6 -->
<g id="edge65" class="edge">
<title>Node46&#45;&gt;Node6</title>
<path fill="none" stroke="midnightblue" d="M340.02,-330.45C350.01,-322.43 365.56,-309.95 377.74,-300.17"/>
<polygon fill="midnightblue" stroke="midnightblue" points="380.28,-302.62 385.88,-293.63 375.89,-297.16 380.28,-302.62"/>
</g>
<!-- Node46&#45;&gt;Node22 -->
<g id="edge66" class="edge">
<title>Node46&#45;&gt;Node22</title>
<path fill="none" stroke="midnightblue" d="M328.12,-330.22C326.51,-323.1 324.13,-312.58 322.08,-303.53"/>
<polygon fill="midnightblue" stroke="midnightblue" points="325.44,-302.53 319.82,-293.55 318.62,-304.08 325.44,-302.53"/>
</g>
<!-- Node47&#45;&gt;Node6 -->
<g id="edge68" class="edge">
<title>Node47&#45;&gt;Node6</title>
<path fill="none" stroke="midnightblue" d="M729.44,-331.31C726.58,-330.86 723.75,-330.42 721,-330 624.06,-315.29 510.52,-300.24 446.55,-291.96"/>
<polygon fill="midnightblue" stroke="midnightblue" points="446.7,-288.45 436.33,-290.64 445.8,-295.39 446.7,-288.45"/>
</g>
<!-- Node47&#45;&gt;Node19 -->
<g id="edge69" class="edge">
<title>Node47&#45;&gt;Node19</title>
<path fill="none" stroke="midnightblue" d="M760.69,-330.42C724.3,-304.4 609.9,-222.61 563.67,-189.56"/>
<polygon fill="midnightblue" stroke="midnightblue" points="565.55,-186.6 555.37,-183.63 561.47,-192.3 565.55,-186.6"/>
</g>
<!-- Node47&#45;&gt;Node25 -->
<g id="edge71" class="edge">
<title>Node47&#45;&gt;Node25</title>
<path fill="none" stroke="midnightblue" d="M738.59,-330.45C696.48,-320.31 624.64,-303 583.47,-293.08"/>
<polygon fill="midnightblue" stroke="midnightblue" points="584.24,-289.67 573.7,-290.73 582.6,-296.47 584.24,-289.67"/>
</g>
<!-- Node48 -->
<g id="node48" class="node">
<title>Node48</title>
<g id="a_node48"><a xlink:title=" ">
<polygon fill="none" stroke="#bfbfbf" points="743.77,-275.5 743.77,-293.5 804.23,-293.5 804.23,-275.5 743.77,-275.5"/>
<text text-anchor="middle" x="774" y="-281.5" font-family="Helvetica,sans-Serif" font-size="10.00">filesystem</text>
</a>
</g>
</g>
<!-- Node47&#45;&gt;Node48 -->
<g id="edge70" class="edge">
<title>Node47&#45;&gt;Node48</title>
<path fill="none" stroke="midnightblue" d="M772.31,-330.22C772.58,-323.18 772.97,-312.81 773.31,-303.83"/>
<polygon fill="midnightblue" stroke="midnightblue" points="776.82,-303.67 773.7,-293.55 769.82,-303.41 776.82,-303.67"/>
</g>
<!-- Node49&#45;&gt;Node7 -->
<g id="edge73" class="edge">
<title>Node49&#45;&gt;Node7</title>
<path fill="none" stroke="midnightblue" d="M672.31,-330.4C654.99,-309.82 606.59,-254.71 557,-220 538.03,-206.72 514.48,-195.41 495.96,-187.52"/>
<polygon fill="midnightblue" stroke="midnightblue" points="497.09,-184.2 486.52,-183.6 494.41,-190.67 497.09,-184.2"/>
</g>
<!-- Node49&#45;&gt;Node14 -->
<g id="edge74" class="edge">
<title>Node49&#45;&gt;Node14</title>
<path fill="none" stroke="midnightblue" d="M668.17,-330.4C650.8,-317.62 615.37,-292.45 583,-275 558.82,-261.97 530.02,-249.89 508.87,-241.62"/>
<polygon fill="midnightblue" stroke="midnightblue" points="510.03,-238.32 499.44,-237.99 507.51,-244.85 510.03,-238.32"/>
</g>
<!-- Node49&#45;&gt;Node25 -->
<g id="edge75" class="edge">
<title>Node49&#45;&gt;Node25</title>
<path fill="none" stroke="midnightblue" d="M659.71,-330.45C638.73,-321.7 604.97,-307.61 580.84,-297.53"/>
<polygon fill="midnightblue" stroke="midnightblue" points="582.05,-294.25 571.47,-293.63 579.35,-300.71 582.05,-294.25"/>
</g>
</g>
</svg>
