<?xml version="1.0" encoding="UTF-8" standalone="no"?>
<!DOCTYPE svg PUBLIC "-//W3C//DTD SVG 1.1//EN"
 "http://www.w3.org/Graphics/SVG/1.1/DTD/svg11.dtd">
<!-- Generated by graphviz version 2.42.3 (20191010.1750)
 -->
<!-- Title: txbib.cpp Pages: 1 -->
<svg width="1006pt" height="742pt"
 viewBox="0.00 0.00 1006.36 742.00" xmlns="http://www.w3.org/2000/svg" xmlns:xlink="http://www.w3.org/1999/xlink">
<g id="graph0" class="graph" transform="scale(1 1) rotate(0) translate(4 738)">
<title>txbib.cpp</title>
<!-- Node1 -->
<g id="node1" class="node">
<title>Node1</title>
<g id="a_node1"><a xlink:title=" ">
<polygon fill="#bfbfbf" stroke="black" points="704.67,-715.5 704.67,-733.5 760.7,-733.5 760.7,-715.5 704.67,-715.5"/>
<text text-anchor="middle" x="732.68" y="-721.5" font-family="Helvetica,sans-Serif" font-size="10.00">txbib.cpp</text>
</a>
</g>
</g>
<!-- Node2 -->
<g id="node2" class="node">
<title>Node2</title>
<g id="a_node2"><a xlink:href="../../d6/dcb/txbib_8h.html" target="_top" xlink:title=" ">
<polygon fill="none" stroke="black" points="363.95,-660.5 363.95,-678.5 409.42,-678.5 409.42,-660.5 363.95,-660.5"/>
<text text-anchor="middle" x="386.68" y="-666.5" font-family="Helvetica,sans-Serif" font-size="10.00">txbib.h</text>
</a>
</g>
</g>
<!-- Node1&#45;&gt;Node2 -->
<g id="edge1" class="edge">
<title>Node1&#45;&gt;Node2</title>
<path fill="none" stroke="midnightblue" d="M704.66,-719.21C641.44,-709.52 487.95,-686.01 420,-675.6"/>
<polygon fill="midnightblue" stroke="midnightblue" points="420.27,-672.1 409.85,-674.05 419.21,-679.02 420.27,-672.1"/>
</g>
<!-- Node16 -->
<g id="node16" class="node">
<title>Node16</title>
<g id="a_node16"><a xlink:href="../../d8/d3c/util_8h.html" target="_top" xlink:title=" ">
<polygon fill="none" stroke="black" points="658.12,-220.5 658.12,-238.5 695.25,-238.5 695.25,-220.5 658.12,-220.5"/>
<text text-anchor="middle" x="676.68" y="-226.5" font-family="Helvetica,sans-Serif" font-size="10.00">util.h</text>
</a>
</g>
</g>
<!-- Node1&#45;&gt;Node16 -->
<g id="edge47" class="edge">
<title>Node1&#45;&gt;Node16</title>
<path fill="none" stroke="midnightblue" d="M747.63,-715.29C773.92,-699.62 825.68,-662.76 825.68,-615.5 825.68,-615.5 825.68,-615.5 825.68,-338.5 825.68,-279.49 748.13,-249.41 704.93,-237.24"/>
<polygon fill="midnightblue" stroke="midnightblue" points="705.82,-233.85 695.25,-234.65 704.01,-240.61 705.82,-233.85"/>
</g>
<!-- Node35 -->
<g id="node35" class="node">
<title>Node35</title>
<g id="a_node35"><a xlink:href="../../d5/d87/globals_8h.html" target="_top" xlink:title=" ">
<polygon fill="none" stroke="black" points="220.22,-330.5 220.22,-348.5 305.15,-348.5 305.15,-330.5 220.22,-330.5"/>
<text text-anchor="middle" x="262.68" y="-336.5" font-family="Helvetica,sans-Serif" font-size="10.00">tralics/globals.h</text>
</a>
</g>
</g>
<!-- Node1&#45;&gt;Node35 -->
<g id="edge43" class="edge">
<title>Node1&#45;&gt;Node35</title>
<path fill="none" stroke="midnightblue" d="M704.47,-724.06C625.98,-725.04 407.39,-723.61 354.68,-679 255.54,-595.07 257.74,-416 261.23,-358.6"/>
<polygon fill="midnightblue" stroke="midnightblue" points="264.73,-358.76 261.94,-348.54 257.75,-358.27 264.73,-358.76"/>
</g>
<!-- Node37 -->
<g id="node37" class="node">
<title>Node37</title>
<g id="a_node37"><a xlink:href="../../d2/d1b/txparser_8h.html" target="_top" xlink:title=" ">
<polygon fill="none" stroke="black" points="609.73,-605.5 609.73,-623.5 669.64,-623.5 669.64,-605.5 609.73,-605.5"/>
<text text-anchor="middle" x="639.68" y="-611.5" font-family="Helvetica,sans-Serif" font-size="10.00">txparser.h</text>
</a>
</g>
</g>
<!-- Node1&#45;&gt;Node37 -->
<g id="edge48" class="edge">
<title>Node1&#45;&gt;Node37</title>
<path fill="none" stroke="midnightblue" d="M725.69,-715.38C710.34,-697.56 673.46,-654.72 653.34,-631.36"/>
<polygon fill="midnightblue" stroke="midnightblue" points="655.93,-629.01 646.76,-623.71 650.63,-633.57 655.93,-629.01"/>
</g>
<!-- Node47 -->
<g id="node47" class="node">
<title>Node47</title>
<g id="a_node47"><a xlink:title=" ">
<polygon fill="none" stroke="#bfbfbf" points="854.12,-660.5 854.12,-678.5 911.25,-678.5 911.25,-660.5 854.12,-660.5"/>
<text text-anchor="middle" x="882.68" y="-666.5" font-family="Helvetica,sans-Serif" font-size="10.00">algorithm</text>
</a>
</g>
</g>
<!-- Node1&#45;&gt;Node47 -->
<g id="edge70" class="edge">
<title>Node1&#45;&gt;Node47</title>
<path fill="none" stroke="midnightblue" d="M755.47,-715.45C780.69,-706.54 821.54,-692.1 850.13,-682"/>
<polygon fill="midnightblue" stroke="midnightblue" points="851.43,-685.26 859.69,-678.63 849.09,-678.66 851.43,-685.26"/>
</g>
<!-- Node48 -->
<g id="node48" class="node">
<title>Node48</title>
<g id="a_node48"><a xlink:title=" ">
<polygon fill="none" stroke="#bfbfbf" points="929.01,-660.5 929.01,-678.5 998.36,-678.5 998.36,-660.5 929.01,-660.5"/>
<text text-anchor="middle" x="963.68" y="-666.5" font-family="Helvetica,sans-Serif" font-size="10.00">fmt/format.h</text>
</a>
</g>
</g>
<!-- Node1&#45;&gt;Node48 -->
<g id="edge71" class="edge">
<title>Node1&#45;&gt;Node48</title>
<path fill="none" stroke="midnightblue" d="M761.01,-717C800.41,-707.96 872.15,-691.5 918.86,-680.79"/>
<polygon fill="midnightblue" stroke="midnightblue" points="919.75,-684.17 928.71,-678.52 918.18,-677.35 919.75,-684.17"/>
</g>
<!-- Node3 -->
<g id="node3" class="node">
<title>Node3</title>
<g id="a_node3"><a xlink:href="../../d9/d1c/_xml_8h.html" target="_top" xlink:title=" ">
<polygon fill="none" stroke="black" points="351.46,-495.5 351.46,-513.5 421.91,-513.5 421.91,-495.5 351.46,-495.5"/>
<text text-anchor="middle" x="386.68" y="-501.5" font-family="Helvetica,sans-Serif" font-size="10.00">tralics/Xml.h</text>
</a>
</g>
</g>
<!-- Node2&#45;&gt;Node3 -->
<g id="edge2" class="edge">
<title>Node2&#45;&gt;Node3</title>
<path fill="none" stroke="midnightblue" d="M386.68,-660.19C386.68,-635.01 386.68,-559.11 386.68,-523.86"/>
<polygon fill="midnightblue" stroke="midnightblue" points="390.18,-523.6 386.68,-513.6 383.18,-523.6 390.18,-523.6"/>
</g>
<!-- Node28 -->
<g id="node28" class="node">
<title>Node28</title>
<g id="a_node28"><a xlink:href="../../d7/d79/txinline_8h.html" target="_top" xlink:title=" ">
<polygon fill="none" stroke="black" points="148.95,-605.5 148.95,-623.5 204.42,-623.5 204.42,-605.5 148.95,-605.5"/>
<text text-anchor="middle" x="176.68" y="-611.5" font-family="Helvetica,sans-Serif" font-size="10.00">txinline.h</text>
</a>
</g>
</g>
<!-- Node2&#45;&gt;Node28 -->
<g id="edge33" class="edge">
<title>Node2&#45;&gt;Node28</title>
<path fill="none" stroke="midnightblue" d="M363.81,-662.73C327.89,-653.66 257.88,-635.99 214.42,-625.02"/>
<polygon fill="midnightblue" stroke="midnightblue" points="215.06,-621.58 204.51,-622.52 213.35,-628.36 215.06,-621.58"/>
</g>
<!-- Node4 -->
<g id="node4" class="node">
<title>Node4</title>
<g id="a_node4"><a xlink:href="../../d7/d1b/_buffer_8h.html" target="_top" xlink:title=" ">
<polygon fill="none" stroke="black" points="361.54,-440.5 361.54,-458.5 411.83,-458.5 411.83,-440.5 361.54,-440.5"/>
<text text-anchor="middle" x="386.68" y="-446.5" font-family="Helvetica,sans-Serif" font-size="10.00">Buffer.h</text>
</a>
</g>
</g>
<!-- Node3&#45;&gt;Node4 -->
<g id="edge3" class="edge">
<title>Node3&#45;&gt;Node4</title>
<path fill="none" stroke="midnightblue" d="M386.68,-495.22C386.68,-488.18 386.68,-477.81 386.68,-468.83"/>
<polygon fill="midnightblue" stroke="midnightblue" points="390.18,-468.55 386.68,-458.55 383.18,-468.55 390.18,-468.55"/>
</g>
<!-- Node27 -->
<g id="node27" class="node">
<title>Node27</title>
<g id="a_node27"><a xlink:title=" ">
<polygon fill="none" stroke="#bfbfbf" points="299.51,-440.5 299.51,-458.5 343.86,-458.5 343.86,-440.5 299.51,-440.5"/>
<text text-anchor="middle" x="321.68" y="-446.5" font-family="Helvetica,sans-Serif" font-size="10.00">gsl/gsl</text>
</a>
</g>
</g>
<!-- Node3&#45;&gt;Node27 -->
<g id="edge32" class="edge">
<title>Node3&#45;&gt;Node27</title>
<path fill="none" stroke="midnightblue" d="M376.81,-495.45C366.98,-487.43 351.67,-474.95 339.67,-465.17"/>
<polygon fill="midnightblue" stroke="midnightblue" points="341.61,-462.23 331.65,-458.63 337.19,-467.66 341.61,-462.23"/>
</g>
<!-- Node5 -->
<g id="node5" class="node">
<title>Node5</title>
<g id="a_node5"><a xlink:href="../../d1/d9e/txid_8h.html" target="_top" xlink:title=" ">
<polygon fill="none" stroke="black" points="337.57,-330.5 337.57,-348.5 385.8,-348.5 385.8,-330.5 337.57,-330.5"/>
<text text-anchor="middle" x="361.68" y="-336.5" font-family="Helvetica,sans-Serif" font-size="10.00">../txid.h</text>
</a>
</g>
</g>
<!-- Node4&#45;&gt;Node5 -->
<g id="edge4" class="edge">
<title>Node4&#45;&gt;Node5</title>
<path fill="none" stroke="midnightblue" d="M372.78,-440.27C361.22,-432.55 345.6,-419.83 338.68,-404 331.89,-388.44 340.15,-370.16 348.6,-357.22"/>
<polygon fill="midnightblue" stroke="midnightblue" points="351.61,-359.02 354.57,-348.85 345.91,-354.95 351.61,-359.02"/>
</g>
<!-- Node18 -->
<g id="node18" class="node">
<title>Node18</title>
<g id="a_node18"><a xlink:href="../../d9/d18/txscaled_8h.html" target="_top" xlink:title=" ">
<polygon fill="none" stroke="black" points="411,-385.5 411,-403.5 480.36,-403.5 480.36,-385.5 411,-385.5"/>
<text text-anchor="middle" x="445.68" y="-391.5" font-family="Helvetica,sans-Serif" font-size="10.00">../txscaled.h</text>
</a>
</g>
</g>
<!-- Node4&#45;&gt;Node18 -->
<g id="edge20" class="edge">
<title>Node4&#45;&gt;Node18</title>
<path fill="none" stroke="midnightblue" d="M395.65,-440.45C404.48,-432.51 418.2,-420.19 429.04,-410.45"/>
<polygon fill="midnightblue" stroke="midnightblue" points="431.54,-412.91 436.64,-403.63 426.86,-407.7 431.54,-412.91"/>
</g>
<!-- Node26 -->
<g id="node26" class="node">
<title>Node26</title>
<g id="a_node26"><a xlink:title=" ">
<polygon fill="none" stroke="#bfbfbf" points="347.96,-385.5 347.96,-403.5 393.41,-403.5 393.41,-385.5 347.96,-385.5"/>
<text text-anchor="middle" x="370.68" y="-391.5" font-family="Helvetica,sans-Serif" font-size="10.00">cstring</text>
</a>
</g>
</g>
<!-- Node4&#45;&gt;Node26 -->
<g id="edge31" class="edge">
<title>Node4&#45;&gt;Node26</title>
<path fill="none" stroke="midnightblue" d="M384.18,-440.22C382.01,-433.02 378.79,-422.35 376.04,-413.23"/>
<polygon fill="midnightblue" stroke="midnightblue" points="379.36,-412.11 373.11,-403.55 372.65,-414.13 379.36,-412.11"/>
</g>
<!-- Node6 -->
<g id="node6" class="node">
<title>Node6</title>
<g id="a_node6"><a xlink:href="../../d5/daf/_istring_8h.html" target="_top" xlink:title=" ">
<polygon fill="none" stroke="black" points="400.45,-275.5 400.45,-293.5 480.92,-293.5 480.92,-275.5 400.45,-275.5"/>
<text text-anchor="middle" x="440.68" y="-281.5" font-family="Helvetica,sans-Serif" font-size="10.00">tralics/Istring.h</text>
</a>
</g>
</g>
<!-- Node5&#45;&gt;Node6 -->
<g id="edge5" class="edge">
<title>Node5&#45;&gt;Node6</title>
<path fill="none" stroke="midnightblue" d="M373.68,-330.45C385.98,-322.2 405.33,-309.22 420.09,-299.32"/>
<polygon fill="midnightblue" stroke="midnightblue" points="422.22,-302.1 428.57,-293.63 418.32,-296.29 422.22,-302.1"/>
</g>
<!-- Node7 -->
<g id="node7" class="node">
<title>Node7</title>
<g id="a_node7"><a xlink:href="../../dd/d47/_str_hash_8h.html" target="_top" xlink:title=" ">
<polygon fill="none" stroke="black" points="579.45,-220.5 579.45,-238.5 639.92,-238.5 639.92,-220.5 579.45,-220.5"/>
<text text-anchor="middle" x="609.68" y="-226.5" font-family="Helvetica,sans-Serif" font-size="10.00">StrHash.h</text>
</a>
</g>
</g>
<!-- Node6&#45;&gt;Node7 -->
<g id="edge6" class="edge">
<title>Node6&#45;&gt;Node7</title>
<path fill="none" stroke="midnightblue" d="M466.35,-275.45C495.1,-266.44 541.88,-251.77 574.13,-241.65"/>
<polygon fill="midnightblue" stroke="midnightblue" points="575.56,-244.87 584.05,-238.54 573.46,-238.19 575.56,-244.87"/>
</g>
<!-- Node15 -->
<g id="node15" class="node">
<title>Node15</title>
<g id="a_node15"><a xlink:href="../../d0/d0b/enums_8h.html" target="_top" xlink:title=" ">
<polygon fill="none" stroke="black" points="452.51,-165.5 452.51,-183.5 506.86,-183.5 506.86,-165.5 452.51,-165.5"/>
<text text-anchor="middle" x="479.68" y="-171.5" font-family="Helvetica,sans-Serif" font-size="10.00">enums.h</text>
</a>
</g>
</g>
<!-- Node6&#45;&gt;Node15 -->
<g id="edge14" class="edge">
<title>Node6&#45;&gt;Node15</title>
<path fill="none" stroke="midnightblue" d="M444.7,-275.43C448.99,-266.62 455.84,-252.02 460.68,-239 466.28,-223.99 471.41,-206.52 474.92,-193.71"/>
<polygon fill="midnightblue" stroke="midnightblue" points="478.36,-194.4 477.57,-183.83 471.6,-192.59 478.36,-194.4"/>
</g>
<!-- Node6&#45;&gt;Node16 -->
<g id="edge16" class="edge">
<title>Node6&#45;&gt;Node16</title>
<path fill="none" stroke="midnightblue" d="M481.18,-275.88C521.22,-268.12 584.39,-255.25 648.24,-238.93"/>
<polygon fill="midnightblue" stroke="midnightblue" points="649.26,-242.28 658.07,-236.39 647.51,-235.5 649.26,-242.28"/>
</g>
<!-- Node17 -->
<g id="node17" class="node">
<title>Node17</title>
<g id="a_node17"><a xlink:title=" ">
<polygon fill="none" stroke="#bfbfbf" points="413.29,-220.5 413.29,-238.5 452.08,-238.5 452.08,-220.5 413.29,-220.5"/>
<text text-anchor="middle" x="432.68" y="-226.5" font-family="Helvetica,sans-Serif" font-size="10.00">array</text>
</a>
</g>
</g>
<!-- Node6&#45;&gt;Node17 -->
<g id="edge19" class="edge">
<title>Node6&#45;&gt;Node17</title>
<path fill="none" stroke="midnightblue" d="M439.43,-275.22C438.36,-268.1 436.77,-257.58 435.41,-248.53"/>
<polygon fill="midnightblue" stroke="midnightblue" points="438.85,-247.92 433.9,-238.55 431.93,-248.96 438.85,-247.92"/>
</g>
<!-- Node8 -->
<g id="node8" class="node">
<title>Node8</title>
<g id="a_node8"><a xlink:href="../../d8/db5/consts_8h.html" target="_top" xlink:title=" ">
<polygon fill="none" stroke="black" points="453.06,-110.5 453.06,-128.5 506.31,-128.5 506.31,-110.5 453.06,-110.5"/>
<text text-anchor="middle" x="479.68" y="-116.5" font-family="Helvetica,sans-Serif" font-size="10.00">consts.h</text>
</a>
</g>
</g>
<!-- Node7&#45;&gt;Node8 -->
<g id="edge7" class="edge">
<title>Node7&#45;&gt;Node8</title>
<path fill="none" stroke="midnightblue" d="M609.44,-220.4C608.61,-207.16 605.12,-180.8 590.68,-165 571.45,-143.94 540.9,-132.67 516.71,-126.74"/>
<polygon fill="midnightblue" stroke="midnightblue" points="517.31,-123.29 506.78,-124.52 515.78,-130.12 517.31,-123.29"/>
</g>
<!-- Node13 -->
<g id="node13" class="node">
<title>Node13</title>
<g id="a_node13"><a xlink:title=" ">
<polygon fill="none" stroke="#bfbfbf" points="656.46,-165.5 656.46,-183.5 696.91,-183.5 696.91,-165.5 656.46,-165.5"/>
<text text-anchor="middle" x="676.68" y="-171.5" font-family="Helvetica,sans-Serif" font-size="10.00">string</text>
</a>
</g>
</g>
<!-- Node7&#45;&gt;Node13 -->
<g id="edge12" class="edge">
<title>Node7&#45;&gt;Node13</title>
<path fill="none" stroke="midnightblue" d="M619.86,-220.45C630.09,-212.36 646.09,-199.7 658.5,-189.88"/>
<polygon fill="midnightblue" stroke="midnightblue" points="660.74,-192.57 666.41,-183.63 656.4,-187.08 660.74,-192.57"/>
</g>
<!-- Node14 -->
<g id="node14" class="node">
<title>Node14</title>
<g id="a_node14"><a xlink:title=" ">
<polygon fill="none" stroke="#bfbfbf" points="538.07,-165.5 538.07,-183.5 581.3,-183.5 581.3,-165.5 538.07,-165.5"/>
<text text-anchor="middle" x="559.68" y="-171.5" font-family="Helvetica,sans-Serif" font-size="10.00">vector</text>
</a>
</g>
</g>
<!-- Node7&#45;&gt;Node14 -->
<g id="edge13" class="edge">
<title>Node7&#45;&gt;Node14</title>
<path fill="none" stroke="midnightblue" d="M601.87,-220.22C594.49,-212.39 583.23,-200.46 574.21,-190.89"/>
<polygon fill="midnightblue" stroke="midnightblue" points="576.69,-188.42 567.28,-183.55 571.59,-193.23 576.69,-188.42"/>
</g>
<!-- Node9 -->
<g id="node9" class="node">
<title>Node9</title>
<g id="a_node9"><a xlink:href="../../d9/d49/types_8h.html" target="_top" xlink:title=" ">
<polygon fill="none" stroke="black" points="414.56,-55.5 414.56,-73.5 462.81,-73.5 462.81,-55.5 414.56,-55.5"/>
<text text-anchor="middle" x="438.68" y="-61.5" font-family="Helvetica,sans-Serif" font-size="10.00">types.h</text>
</a>
</g>
</g>
<!-- Node8&#45;&gt;Node9 -->
<g id="edge8" class="edge">
<title>Node8&#45;&gt;Node9</title>
<path fill="none" stroke="midnightblue" d="M473.28,-110.22C467.35,-102.55 458.36,-90.94 451.04,-81.47"/>
<polygon fill="midnightblue" stroke="midnightblue" points="453.8,-79.32 444.91,-73.55 448.26,-83.6 453.8,-79.32"/>
</g>
<!-- Node10 -->
<g id="node10" class="node">
<title>Node10</title>
<g id="a_node10"><a xlink:title=" ">
<polygon fill="none" stroke="#bfbfbf" points="348.57,-0.5 348.57,-18.5 396.8,-18.5 396.8,-0.5 348.57,-0.5"/>
<text text-anchor="middle" x="372.68" y="-6.5" font-family="Helvetica,sans-Serif" font-size="10.00">cassert</text>
</a>
</g>
</g>
<!-- Node9&#45;&gt;Node10 -->
<g id="edge9" class="edge">
<title>Node9&#45;&gt;Node10</title>
<path fill="none" stroke="midnightblue" d="M428.66,-55.45C418.68,-47.43 403.13,-34.95 390.95,-25.17"/>
<polygon fill="midnightblue" stroke="midnightblue" points="392.79,-22.16 382.8,-18.63 388.41,-27.62 392.79,-22.16"/>
</g>
<!-- Node11 -->
<g id="node11" class="node">
<title>Node11</title>
<g id="a_node11"><a xlink:title=" ">
<polygon fill="none" stroke="#bfbfbf" points="414.56,-0.5 414.56,-18.5 462.81,-18.5 462.81,-0.5 414.56,-0.5"/>
<text text-anchor="middle" x="438.68" y="-6.5" font-family="Helvetica,sans-Serif" font-size="10.00">cstddef</text>
</a>
</g>
</g>
<!-- Node9&#45;&gt;Node11 -->
<g id="edge10" class="edge">
<title>Node9&#45;&gt;Node11</title>
<path fill="none" stroke="midnightblue" d="M438.68,-55.22C438.68,-48.18 438.68,-37.81 438.68,-28.83"/>
<polygon fill="midnightblue" stroke="midnightblue" points="442.18,-28.55 438.68,-18.55 435.18,-28.55 442.18,-28.55"/>
</g>
<!-- Node12 -->
<g id="node12" class="node">
<title>Node12</title>
<g id="a_node12"><a xlink:title=" ">
<polygon fill="none" stroke="#bfbfbf" points="480.62,-0.5 480.62,-18.5 542.75,-18.5 542.75,-0.5 480.62,-0.5"/>
<text text-anchor="middle" x="511.68" y="-6.5" font-family="Helvetica,sans-Serif" font-size="10.00">type_traits</text>
</a>
</g>
</g>
<!-- Node9&#45;&gt;Node12 -->
<g id="edge11" class="edge">
<title>Node9&#45;&gt;Node12</title>
<path fill="none" stroke="midnightblue" d="M449.77,-55.45C461.03,-47.28 478.68,-34.46 492.26,-24.6"/>
<polygon fill="midnightblue" stroke="midnightblue" points="494.46,-27.33 500.49,-18.63 490.34,-21.67 494.46,-27.33"/>
</g>
<!-- Node15&#45;&gt;Node8 -->
<g id="edge15" class="edge">
<title>Node15&#45;&gt;Node8</title>
<path fill="none" stroke="midnightblue" d="M479.68,-165.22C479.68,-158.18 479.68,-147.81 479.68,-138.83"/>
<polygon fill="midnightblue" stroke="midnightblue" points="483.18,-138.55 479.68,-128.55 476.18,-138.55 483.18,-138.55"/>
</g>
<!-- Node16&#45;&gt;Node13 -->
<g id="edge17" class="edge">
<title>Node16&#45;&gt;Node13</title>
<path fill="none" stroke="midnightblue" d="M676.68,-220.22C676.68,-213.18 676.68,-202.81 676.68,-193.83"/>
<polygon fill="midnightblue" stroke="midnightblue" points="680.18,-193.55 676.68,-183.55 673.18,-193.55 680.18,-193.55"/>
</g>
<!-- Node16&#45;&gt;Node14 -->
<g id="edge18" class="edge">
<title>Node16&#45;&gt;Node14</title>
<path fill="none" stroke="midnightblue" d="M658.91,-220.45C639.76,-211.77 609.04,-197.86 586.85,-187.8"/>
<polygon fill="midnightblue" stroke="midnightblue" points="588.17,-184.56 577.62,-183.63 585.29,-190.94 588.17,-184.56"/>
</g>
<!-- Node19 -->
<g id="node19" class="node">
<title>Node19</title>
<g id="a_node19"><a xlink:href="../../dc/d91/txtokenlist_8h.html" target="_top" xlink:title=" ">
<polygon fill="none" stroke="black" points="409.28,-330.5 409.28,-348.5 478.09,-348.5 478.09,-330.5 409.28,-330.5"/>
<text text-anchor="middle" x="443.68" y="-336.5" font-family="Helvetica,sans-Serif" font-size="10.00">txtokenlist.h</text>
</a>
</g>
</g>
<!-- Node18&#45;&gt;Node19 -->
<g id="edge21" class="edge">
<title>Node18&#45;&gt;Node19</title>
<path fill="none" stroke="midnightblue" d="M445.37,-385.22C445.11,-378.18 444.72,-367.81 444.38,-358.83"/>
<polygon fill="midnightblue" stroke="midnightblue" points="447.86,-358.41 443.99,-348.55 440.87,-358.67 447.86,-358.41"/>
</g>
<!-- Node19&#45;&gt;Node6 -->
<g id="edge22" class="edge">
<title>Node19&#45;&gt;Node6</title>
<path fill="none" stroke="midnightblue" d="M443.22,-330.22C442.82,-323.18 442.23,-312.81 441.72,-303.83"/>
<polygon fill="midnightblue" stroke="midnightblue" points="445.2,-303.34 441.14,-293.55 438.21,-303.73 445.2,-303.34"/>
</g>
<!-- Node20 -->
<g id="node20" class="node">
<title>Node20</title>
<g id="a_node20"><a xlink:href="../../dd/dcd/_token_8h.html" target="_top" xlink:title=" ">
<polygon fill="none" stroke="black" points="302.73,-275.5 302.73,-293.5 382.64,-293.5 382.64,-275.5 302.73,-275.5"/>
<text text-anchor="middle" x="342.68" y="-281.5" font-family="Helvetica,sans-Serif" font-size="10.00">tralics/Token.h</text>
</a>
</g>
</g>
<!-- Node19&#45;&gt;Node20 -->
<g id="edge23" class="edge">
<title>Node19&#45;&gt;Node20</title>
<path fill="none" stroke="midnightblue" d="M428.34,-330.45C412.11,-321.93 386.23,-308.35 367.17,-298.35"/>
<polygon fill="midnightblue" stroke="midnightblue" points="368.65,-295.17 358.17,-293.63 365.4,-301.37 368.65,-295.17"/>
</g>
<!-- Node25 -->
<g id="node25" class="node">
<title>Node25</title>
<g id="a_node25"><a xlink:title=" ">
<polygon fill="none" stroke="#bfbfbf" points="628.29,-275.5 628.29,-293.5 667.08,-293.5 667.08,-275.5 628.29,-275.5"/>
<text text-anchor="middle" x="647.68" y="-281.5" font-family="Helvetica,sans-Serif" font-size="10.00">utility</text>
</a>
</g>
</g>
<!-- Node19&#45;&gt;Node25 -->
<g id="edge30" class="edge">
<title>Node19&#45;&gt;Node25</title>
<path fill="none" stroke="midnightblue" d="M474.67,-330.45C513.59,-320.34 579.89,-303.11 618.13,-293.18"/>
<polygon fill="midnightblue" stroke="midnightblue" points="619.32,-296.48 628.12,-290.58 617.56,-289.71 619.32,-296.48"/>
</g>
<!-- Node21 -->
<g id="node21" class="node">
<title>Node21</title>
<g id="a_node21"><a xlink:href="../../d2/d68/_cmd_chr_8h.html" target="_top" xlink:title=" ">
<polygon fill="none" stroke="black" points="287.17,-220.5 287.17,-238.5 348.19,-238.5 348.19,-220.5 287.17,-220.5"/>
<text text-anchor="middle" x="317.68" y="-226.5" font-family="Helvetica,sans-Serif" font-size="10.00">CmdChr.h</text>
</a>
</g>
</g>
<!-- Node20&#45;&gt;Node21 -->
<g id="edge24" class="edge">
<title>Node20&#45;&gt;Node21</title>
<path fill="none" stroke="midnightblue" d="M338.78,-275.22C335.31,-267.86 330.13,-256.88 325.77,-247.64"/>
<polygon fill="midnightblue" stroke="midnightblue" points="328.91,-246.1 321.48,-238.55 322.58,-249.09 328.91,-246.1"/>
</g>
<!-- Node24 -->
<g id="node24" class="node">
<title>Node24</title>
<g id="a_node24"><a xlink:title=" ">
<polygon fill="none" stroke="#bfbfbf" points="366.18,-220.5 366.18,-238.5 395.18,-238.5 395.18,-220.5 366.18,-220.5"/>
<text text-anchor="middle" x="380.3" y="-226.5" font-family="Helvetica,sans-Serif" font-size="10.00">list</text>
</a>
</g>
</g>
<!-- Node20&#45;&gt;Node24 -->
<g id="edge29" class="edge">
<title>Node20&#45;&gt;Node24</title>
<path fill="none" stroke="midnightblue" d="M348.62,-275.22C354.06,-267.63 362.28,-256.18 369.03,-246.76"/>
<polygon fill="midnightblue" stroke="midnightblue" points="371.93,-248.72 374.91,-238.55 366.24,-244.64 371.93,-248.72"/>
</g>
<!-- Node21&#45;&gt;Node15 -->
<g id="edge28" class="edge">
<title>Node21&#45;&gt;Node15</title>
<path fill="none" stroke="midnightblue" d="M342.29,-220.45C369.84,-211.44 414.69,-196.77 445.6,-186.65"/>
<polygon fill="midnightblue" stroke="midnightblue" points="446.7,-189.97 455.11,-183.54 444.52,-183.32 446.7,-189.97"/>
</g>
<!-- Node22 -->
<g id="node22" class="node">
<title>Node22</title>
<g id="a_node22"><a xlink:href="../../d8/d47/codepoint_8h.html" target="_top" xlink:title=" ">
<polygon fill="none" stroke="black" points="283.83,-165.5 283.83,-183.5 351.54,-183.5 351.54,-165.5 283.83,-165.5"/>
<text text-anchor="middle" x="317.68" y="-171.5" font-family="Helvetica,sans-Serif" font-size="10.00">codepoint.h</text>
</a>
</g>
</g>
<!-- Node21&#45;&gt;Node22 -->
<g id="edge25" class="edge">
<title>Node21&#45;&gt;Node22</title>
<path fill="none" stroke="midnightblue" d="M317.68,-220.22C317.68,-213.18 317.68,-202.81 317.68,-193.83"/>
<polygon fill="midnightblue" stroke="midnightblue" points="321.18,-193.55 317.68,-183.55 314.18,-193.55 321.18,-193.55"/>
</g>
<!-- Node22&#45;&gt;Node9 -->
<g id="edge26" class="edge">
<title>Node22&#45;&gt;Node9</title>
<path fill="none" stroke="midnightblue" d="M326.78,-165.38C347.01,-147.32 396.01,-103.59 421.94,-80.44"/>
<polygon fill="midnightblue" stroke="midnightblue" points="424.35,-82.98 429.48,-73.71 419.69,-77.76 424.35,-82.98"/>
</g>
<!-- Node23 -->
<g id="node23" class="node">
<title>Node23</title>
<g id="a_node23"><a xlink:title=" ">
<polygon fill="none" stroke="#bfbfbf" points="292.17,-110.5 292.17,-128.5 343.2,-128.5 343.2,-110.5 292.17,-110.5"/>
<text text-anchor="middle" x="317.68" y="-116.5" font-family="Helvetica,sans-Serif" font-size="10.00">optional</text>
</a>
</g>
</g>
<!-- Node22&#45;&gt;Node23 -->
<g id="edge27" class="edge">
<title>Node22&#45;&gt;Node23</title>
<path fill="none" stroke="midnightblue" d="M317.68,-165.22C317.68,-158.18 317.68,-147.81 317.68,-138.83"/>
<polygon fill="midnightblue" stroke="midnightblue" points="321.18,-138.55 317.68,-128.55 314.18,-138.55 321.18,-138.55"/>
</g>
<!-- Node29 -->
<g id="node29" class="node">
<title>Node29</title>
<g id="a_node29"><a xlink:href="../../d4/de9/_main_class_8h.html" target="_top" xlink:title=" ">
<polygon fill="none" stroke="black" points="77.73,-550.5 77.73,-568.5 177.64,-568.5 177.64,-550.5 77.73,-550.5"/>
<text text-anchor="middle" x="127.68" y="-556.5" font-family="Helvetica,sans-Serif" font-size="10.00">tralics/MainClass.h</text>
</a>
</g>
</g>
<!-- Node28&#45;&gt;Node29 -->
<g id="edge34" class="edge">
<title>Node28&#45;&gt;Node29</title>
<path fill="none" stroke="midnightblue" d="M169.03,-605.22C161.87,-597.47 150.98,-585.7 142.18,-576.18"/>
<polygon fill="midnightblue" stroke="midnightblue" points="144.49,-573.52 135.13,-568.55 139.35,-578.27 144.49,-573.52"/>
</g>
<!-- Node32 -->
<g id="node32" class="node">
<title>Node32</title>
<g id="a_node32"><a xlink:href="../../d2/d06/txlogger_8h.html" target="_top" xlink:title=" ">
<polygon fill="none" stroke="black" points="0,-550.5 0,-568.5 59.37,-568.5 59.37,-550.5 0,-550.5"/>
<text text-anchor="middle" x="29.68" y="-556.5" font-family="Helvetica,sans-Serif" font-size="10.00">txlogger.h</text>
</a>
</g>
</g>
<!-- Node28&#45;&gt;Node32 -->
<g id="edge38" class="edge">
<title>Node28&#45;&gt;Node32</title>
<path fill="none" stroke="midnightblue" d="M154.36,-605.45C129.75,-596.58 89.95,-582.23 61.95,-572.13"/>
<polygon fill="midnightblue" stroke="midnightblue" points="62.82,-568.72 52.22,-568.63 60.44,-575.31 62.82,-568.72"/>
</g>
<!-- Node34 -->
<g id="node34" class="node">
<title>Node34</title>
<g id="a_node34"><a xlink:href="../../d5/d08/txparam_8h.html" target="_top" xlink:title=" ">
<polygon fill="none" stroke="black" points="195.45,-550.5 195.45,-568.5 255.92,-568.5 255.92,-550.5 195.45,-550.5"/>
<text text-anchor="middle" x="225.68" y="-556.5" font-family="Helvetica,sans-Serif" font-size="10.00">txparam.h</text>
</a>
</g>
</g>
<!-- Node28&#45;&gt;Node34 -->
<g id="edge41" class="edge">
<title>Node28&#45;&gt;Node34</title>
<path fill="none" stroke="midnightblue" d="M184.34,-605.22C191.5,-597.47 202.39,-585.7 211.19,-576.18"/>
<polygon fill="midnightblue" stroke="midnightblue" points="214.02,-578.27 218.24,-568.55 208.88,-573.52 214.02,-578.27"/>
</g>
<!-- Node30 -->
<g id="node30" class="node">
<title>Node30</title>
<g id="a_node30"><a xlink:href="../../de/d29/txio_8h.html" target="_top" xlink:title=" ">
<polygon fill="none" stroke="black" points="201.57,-495.5 201.57,-513.5 249.8,-513.5 249.8,-495.5 201.57,-495.5"/>
<text text-anchor="middle" x="225.68" y="-501.5" font-family="Helvetica,sans-Serif" font-size="10.00">../txio.h</text>
</a>
</g>
</g>
<!-- Node29&#45;&gt;Node30 -->
<g id="edge35" class="edge">
<title>Node29&#45;&gt;Node30</title>
<path fill="none" stroke="midnightblue" d="M142.57,-550.45C158.25,-541.97 183.2,-528.48 201.67,-518.49"/>
<polygon fill="midnightblue" stroke="midnightblue" points="203.53,-521.46 210.66,-513.63 200.2,-515.3 203.53,-521.46"/>
</g>
<!-- Node30&#45;&gt;Node4 -->
<g id="edge36" class="edge">
<title>Node30&#45;&gt;Node4</title>
<path fill="none" stroke="midnightblue" d="M250.14,-495.45C277.4,-486.47 321.7,-471.89 352.42,-461.78"/>
<polygon fill="midnightblue" stroke="midnightblue" points="353.86,-464.99 362.27,-458.54 351.67,-458.34 353.86,-464.99"/>
</g>
<!-- Node31 -->
<g id="node31" class="node">
<title>Node31</title>
<g id="a_node31"><a xlink:title=" ">
<polygon fill="none" stroke="#bfbfbf" points="113.01,-440.5 113.01,-458.5 162.35,-458.5 162.35,-440.5 113.01,-440.5"/>
<text text-anchor="middle" x="137.68" y="-446.5" font-family="Helvetica,sans-Serif" font-size="10.00">fstream</text>
</a>
</g>
</g>
<!-- Node30&#45;&gt;Node31 -->
<g id="edge37" class="edge">
<title>Node30&#45;&gt;Node31</title>
<path fill="none" stroke="midnightblue" d="M212.32,-495.45C198.49,-487.12 176.65,-473.97 160.17,-464.04"/>
<polygon fill="midnightblue" stroke="midnightblue" points="161.55,-460.79 151.18,-458.63 157.94,-466.78 161.55,-460.79"/>
</g>
<!-- Node32&#45;&gt;Node31 -->
<g id="edge39" class="edge">
<title>Node32&#45;&gt;Node31</title>
<path fill="none" stroke="midnightblue" d="M30.12,-550.1C31.21,-536.92 35.06,-511.21 48.68,-495 62.72,-478.3 84.57,-467.24 103.11,-460.33"/>
<polygon fill="midnightblue" stroke="midnightblue" points="104.42,-463.58 112.72,-457 102.12,-456.97 104.42,-463.58"/>
</g>
<!-- Node33 -->
<g id="node33" class="node">
<title>Node33</title>
<g id="a_node33"><a xlink:title=" ">
<polygon fill="none" stroke="#bfbfbf" points="57.51,-495.5 57.51,-513.5 111.86,-513.5 111.86,-495.5 57.51,-495.5"/>
<text text-anchor="middle" x="84.68" y="-501.5" font-family="Helvetica,sans-Serif" font-size="10.00">iostream</text>
</a>
</g>
</g>
<!-- Node32&#45;&gt;Node33 -->
<g id="edge40" class="edge">
<title>Node32&#45;&gt;Node33</title>
<path fill="none" stroke="midnightblue" d="M38.28,-550.22C46.48,-542.32 59.03,-530.22 69.01,-520.61"/>
<polygon fill="midnightblue" stroke="midnightblue" points="71.56,-523.01 76.33,-513.55 66.7,-517.97 71.56,-523.01"/>
</g>
<!-- Node34&#45;&gt;Node30 -->
<g id="edge42" class="edge">
<title>Node34&#45;&gt;Node30</title>
<path fill="none" stroke="midnightblue" d="M225.68,-550.22C225.68,-543.18 225.68,-532.81 225.68,-523.83"/>
<polygon fill="midnightblue" stroke="midnightblue" points="229.18,-523.55 225.68,-513.55 222.18,-523.55 229.18,-523.55"/>
</g>
<!-- Node35&#45;&gt;Node6 -->
<g id="edge44" class="edge">
<title>Node35&#45;&gt;Node6</title>
<path fill="none" stroke="midnightblue" d="M289.72,-330.45C320.13,-321.4 369.69,-306.64 403.68,-296.52"/>
<polygon fill="midnightblue" stroke="midnightblue" points="405.1,-299.75 413.69,-293.54 403.1,-293.04 405.1,-299.75"/>
</g>
<!-- Node35&#45;&gt;Node22 -->
<g id="edge45" class="edge">
<title>Node35&#45;&gt;Node22</title>
<path fill="none" stroke="midnightblue" d="M262.1,-330.29C261,-310.36 260.17,-258.28 277.68,-220 282.86,-208.69 291.94,-198.22 300.15,-190.29"/>
<polygon fill="midnightblue" stroke="midnightblue" points="302.55,-192.83 307.59,-183.51 297.84,-187.66 302.55,-192.83"/>
</g>
<!-- Node36 -->
<g id="node36" class="node">
<title>Node36</title>
<g id="a_node36"><a xlink:title=" ">
<polygon fill="none" stroke="#bfbfbf" points="170.46,-275.5 170.46,-293.5 230.91,-293.5 230.91,-275.5 170.46,-275.5"/>
<text text-anchor="middle" x="200.68" y="-281.5" font-family="Helvetica,sans-Serif" font-size="10.00">filesystem</text>
</a>
</g>
</g>
<!-- Node35&#45;&gt;Node36 -->
<g id="edge46" class="edge">
<title>Node35&#45;&gt;Node36</title>
<path fill="none" stroke="midnightblue" d="M253.27,-330.45C243.89,-322.43 229.28,-309.95 217.84,-300.17"/>
<polygon fill="midnightblue" stroke="midnightblue" points="220.07,-297.46 210.19,-293.63 215.52,-302.78 220.07,-297.46"/>
</g>
<!-- Node37&#45;&gt;Node30 -->
<g id="edge64" class="edge">
<title>Node37&#45;&gt;Node30</title>
<path fill="none" stroke="midnightblue" d="M609.5,-606.45C573.17,-597.9 510.34,-582.89 456.68,-569 386.46,-550.81 304.7,-527.93 259.72,-515.2"/>
<polygon fill="midnightblue" stroke="midnightblue" points="260.47,-511.77 249.9,-512.41 258.56,-518.51 260.47,-511.77"/>
</g>
<!-- Node38 -->
<g id="node38" class="node">
<title>Node38</title>
<g id="a_node38"><a xlink:href="../../d8/dd6/_e_q_t_b_8h.html" target="_top" xlink:title=" ">
<polygon fill="none" stroke="black" points="429.46,-440.5 429.46,-458.5 509.91,-458.5 509.91,-440.5 429.46,-440.5"/>
<text text-anchor="middle" x="469.68" y="-446.5" font-family="Helvetica,sans-Serif" font-size="10.00">tralics/EQTB.h</text>
</a>
</g>
</g>
<!-- Node37&#45;&gt;Node38 -->
<g id="edge49" class="edge">
<title>Node37&#45;&gt;Node38</title>
<path fill="none" stroke="midnightblue" d="M609.42,-605.91C586.38,-599.04 554.8,-587.18 531.68,-569 498.63,-543 481.31,-494.47 474.01,-468.31"/>
<polygon fill="midnightblue" stroke="midnightblue" points="477.39,-467.39 471.48,-458.6 470.61,-469.16 477.39,-467.39"/>
</g>
<!-- Node39 -->
<g id="node39" class="node">
<title>Node39</title>
<g id="a_node39"><a xlink:href="../../d3/d6b/txcond_8h.html" target="_top" xlink:title=" ">
<polygon fill="none" stroke="black" points="507.78,-220.5 507.78,-238.5 561.59,-238.5 561.59,-220.5 507.78,-220.5"/>
<text text-anchor="middle" x="534.68" y="-226.5" font-family="Helvetica,sans-Serif" font-size="10.00">txcond.h</text>
</a>
</g>
</g>
<!-- Node37&#45;&gt;Node39 -->
<g id="edge51" class="edge">
<title>Node37&#45;&gt;Node39</title>
<path fill="none" stroke="midnightblue" d="M638.02,-605.42C635.32,-593.11 629.4,-569.05 620.68,-550 588.69,-480.04 549.21,-477.86 527.68,-404 511.76,-349.35 523.13,-280.94 530.2,-248.79"/>
<polygon fill="midnightblue" stroke="midnightblue" points="533.7,-249.21 532.55,-238.68 526.88,-247.62 533.7,-249.21"/>
</g>
<!-- Node40 -->
<g id="node40" class="node">
<title>Node40</title>
<g id="a_node40"><a xlink:href="../../d7/d4d/txfonts_8h.html" target="_top" xlink:title=" ">
<polygon fill="none" stroke="black" points="629.79,-330.5 629.79,-348.5 683.58,-348.5 683.58,-330.5 629.79,-330.5"/>
<text text-anchor="middle" x="656.68" y="-336.5" font-family="Helvetica,sans-Serif" font-size="10.00">txfonts.h</text>
</a>
</g>
</g>
<!-- Node37&#45;&gt;Node40 -->
<g id="edge54" class="edge">
<title>Node37&#45;&gt;Node40</title>
<path fill="none" stroke="midnightblue" d="M644.65,-605.44C654.95,-587.94 677.68,-544.86 677.68,-505.5 677.68,-505.5 677.68,-505.5 677.68,-448.5 677.68,-416.28 668.57,-379.63 662.35,-358.38"/>
<polygon fill="midnightblue" stroke="midnightblue" points="665.61,-357.07 659.34,-348.52 658.91,-359.11 665.61,-357.07"/>
</g>
<!-- Node41 -->
<g id="node41" class="node">
<title>Node41</title>
<g id="a_node41"><a xlink:href="../../d7/d7e/txhash_8h.html" target="_top" xlink:title=" ">
<polygon fill="none" stroke="black" points="500.78,-495.5 500.78,-513.5 554.59,-513.5 554.59,-495.5 500.78,-495.5"/>
<text text-anchor="middle" x="527.68" y="-501.5" font-family="Helvetica,sans-Serif" font-size="10.00">txhash.h</text>
</a>
</g>
</g>
<!-- Node37&#45;&gt;Node41 -->
<g id="edge57" class="edge">
<title>Node37&#45;&gt;Node41</title>
<path fill="none" stroke="midnightblue" d="M609.3,-605.96C588.88,-599.4 562.86,-587.91 546.68,-569 535.93,-556.43 531.26,-537.95 529.24,-524.17"/>
<polygon fill="midnightblue" stroke="midnightblue" points="532.68,-523.47 528.08,-513.93 525.73,-524.25 532.68,-523.47"/>
</g>
<!-- Node43 -->
<g id="node43" class="node">
<title>Node43</title>
<g id="a_node43"><a xlink:href="../../de/d7c/tximage_8h.html" target="_top" xlink:title=" ">
<polygon fill="none" stroke="black" points="702.01,-330.5 702.01,-348.5 761.36,-348.5 761.36,-330.5 702.01,-330.5"/>
<text text-anchor="middle" x="731.68" y="-336.5" font-family="Helvetica,sans-Serif" font-size="10.00">tximage.h</text>
</a>
</g>
</g>
<!-- Node37&#45;&gt;Node43 -->
<g id="edge61" class="edge">
<title>Node37&#45;&gt;Node43</title>
<path fill="none" stroke="midnightblue" d="M650.9,-605.39C672.04,-589.07 715.68,-549.98 715.68,-505.5 715.68,-505.5 715.68,-505.5 715.68,-448.5 715.68,-416.53 722.63,-379.8 727.37,-358.46"/>
<polygon fill="midnightblue" stroke="midnightblue" points="730.82,-359.1 729.66,-348.57 724,-357.52 730.82,-359.1"/>
</g>
<!-- Node44 -->
<g id="node44" class="node">
<title>Node44</title>
<g id="a_node44"><a xlink:href="../../dc/d65/txstack_8h.html" target="_top" xlink:title=" ">
<polygon fill="none" stroke="black" points="555.96,-550.5 555.96,-568.5 611.41,-568.5 611.41,-550.5 555.96,-550.5"/>
<text text-anchor="middle" x="583.68" y="-556.5" font-family="Helvetica,sans-Serif" font-size="10.00">txstack.h</text>
</a>
</g>
</g>
<!-- Node37&#45;&gt;Node44 -->
<g id="edge65" class="edge">
<title>Node37&#45;&gt;Node44</title>
<path fill="none" stroke="midnightblue" d="M630.93,-605.22C622.58,-597.32 609.81,-585.22 599.65,-575.61"/>
<polygon fill="midnightblue" stroke="midnightblue" points="601.86,-572.88 592.19,-568.55 597.05,-577.97 601.86,-572.88"/>
</g>
<!-- Node46 -->
<g id="node46" class="node">
<title>Node46</title>
<g id="a_node46"><a xlink:href="../../d8/d3d/txstats_8h.html" target="_top" xlink:title=" ">
<polygon fill="none" stroke="black" points="744.07,-550.5 744.07,-568.5 797.3,-568.5 797.3,-550.5 744.07,-550.5"/>
<text text-anchor="middle" x="770.68" y="-556.5" font-family="Helvetica,sans-Serif" font-size="10.00">txstats.h</text>
</a>
</g>
</g>
<!-- Node37&#45;&gt;Node46 -->
<g id="edge69" class="edge">
<title>Node37&#45;&gt;Node46</title>
<path fill="none" stroke="midnightblue" d="M659.58,-605.45C681.32,-596.66 716.36,-582.48 741.27,-572.4"/>
<polygon fill="midnightblue" stroke="midnightblue" points="742.64,-575.62 750.6,-568.63 740.02,-569.13 742.64,-575.62"/>
</g>
<!-- Node38&#45;&gt;Node18 -->
<g id="edge50" class="edge">
<title>Node38&#45;&gt;Node18</title>
<path fill="none" stroke="midnightblue" d="M465.93,-440.22C462.64,-432.94 457.74,-422.11 453.58,-412.93"/>
<polygon fill="midnightblue" stroke="midnightblue" points="456.64,-411.22 449.33,-403.55 450.27,-414.1 456.64,-411.22"/>
</g>
<!-- Node39&#45;&gt;Node14 -->
<g id="edge53" class="edge">
<title>Node39&#45;&gt;Node14</title>
<path fill="none" stroke="midnightblue" d="M538.59,-220.22C542.06,-212.86 547.24,-201.88 551.6,-192.64"/>
<polygon fill="midnightblue" stroke="midnightblue" points="554.79,-194.09 555.89,-183.55 548.46,-191.1 554.79,-194.09"/>
</g>
<!-- Node39&#45;&gt;Node15 -->
<g id="edge52" class="edge">
<title>Node39&#45;&gt;Node15</title>
<path fill="none" stroke="midnightblue" d="M526.09,-220.22C517.89,-212.32 505.34,-200.22 495.36,-190.61"/>
<polygon fill="midnightblue" stroke="midnightblue" points="497.67,-187.97 488.04,-183.55 492.81,-193.01 497.67,-187.97"/>
</g>
<!-- Node40&#45;&gt;Node7 -->
<g id="edge56" class="edge">
<title>Node40&#45;&gt;Node7</title>
<path fill="none" stroke="midnightblue" d="M662.99,-330.28C671.77,-317.78 685.52,-293.49 675.68,-275 668.09,-260.72 653.65,-250.2 640.21,-242.99"/>
<polygon fill="midnightblue" stroke="midnightblue" points="641.68,-239.81 631.16,-238.51 638.58,-246.08 641.68,-239.81"/>
</g>
<!-- Node40&#45;&gt;Node25 -->
<g id="edge55" class="edge">
<title>Node40&#45;&gt;Node25</title>
<path fill="none" stroke="midnightblue" d="M655.28,-330.22C654.07,-323.1 652.28,-312.58 650.75,-303.53"/>
<polygon fill="midnightblue" stroke="midnightblue" points="654.18,-302.82 649.05,-293.55 647.28,-303.99 654.18,-302.82"/>
</g>
<!-- Node41&#45;&gt;Node4 -->
<g id="edge58" class="edge">
<title>Node41&#45;&gt;Node4</title>
<path fill="none" stroke="midnightblue" d="M506.27,-495.45C482.77,-486.62 444.83,-472.35 417.99,-462.27"/>
<polygon fill="midnightblue" stroke="midnightblue" points="418.89,-458.87 408.3,-458.63 416.43,-465.42 418.89,-458.87"/>
</g>
<!-- Node42 -->
<g id="node42" class="node">
<title>Node42</title>
<g id="a_node42"><a xlink:href="../../d3/d01/txeqtb_8h.html" target="_top" xlink:title=" ">
<polygon fill="none" stroke="black" points="536.89,-385.5 536.89,-403.5 588.48,-403.5 588.48,-385.5 536.89,-385.5"/>
<text text-anchor="middle" x="562.68" y="-391.5" font-family="Helvetica,sans-Serif" font-size="10.00">txeqtb.h</text>
</a>
</g>
</g>
<!-- Node41&#45;&gt;Node42 -->
<g id="edge59" class="edge">
<title>Node41&#45;&gt;Node42</title>
<path fill="none" stroke="midnightblue" d="M530.32,-495.38C535.94,-478.03 549.25,-436.96 556.94,-413.24"/>
<polygon fill="midnightblue" stroke="midnightblue" points="560.27,-414.3 560.02,-403.71 553.61,-412.15 560.27,-414.3"/>
</g>
<!-- Node42&#45;&gt;Node7 -->
<g id="edge60" class="edge">
<title>Node42&#45;&gt;Node7</title>
<path fill="none" stroke="midnightblue" d="M565.08,-385.19C572.37,-359.9 594.42,-283.45 604.52,-248.4"/>
<polygon fill="midnightblue" stroke="midnightblue" points="607.94,-249.18 607.35,-238.6 601.22,-247.24 607.94,-249.18"/>
</g>
<!-- Node43&#45;&gt;Node13 -->
<g id="edge62" class="edge">
<title>Node43&#45;&gt;Node13</title>
<path fill="none" stroke="midnightblue" d="M730.8,-330.45C728.45,-310.9 721.08,-259.57 704.68,-220 700.57,-210.07 694.32,-199.87 688.77,-191.74"/>
<polygon fill="midnightblue" stroke="midnightblue" points="691.6,-189.68 682.95,-183.57 685.9,-193.74 691.6,-189.68"/>
</g>
<!-- Node43&#45;&gt;Node25 -->
<g id="edge63" class="edge">
<title>Node43&#45;&gt;Node25</title>
<path fill="none" stroke="midnightblue" d="M718.93,-330.45C705.73,-322.12 684.88,-308.97 669.14,-299.04"/>
<polygon fill="midnightblue" stroke="midnightblue" points="670.89,-296 660.56,-293.63 667.15,-301.92 670.89,-296"/>
</g>
<!-- Node44&#45;&gt;Node3 -->
<g id="edge66" class="edge">
<title>Node44&#45;&gt;Node3</title>
<path fill="none" stroke="midnightblue" d="M555.88,-551.02C522.09,-541.93 464.86,-526.53 426.43,-516.19"/>
<polygon fill="midnightblue" stroke="midnightblue" points="427.17,-512.77 416.61,-513.55 425.35,-519.53 427.17,-512.77"/>
</g>
<!-- Node45 -->
<g id="node45" class="node">
<title>Node45</title>
<g id="a_node45"><a xlink:href="../../d4/da4/txatt_8h.html" target="_top" xlink:title=" ">
<polygon fill="none" stroke="black" points="606.07,-385.5 606.07,-403.5 649.3,-403.5 649.3,-385.5 606.07,-385.5"/>
<text text-anchor="middle" x="627.68" y="-391.5" font-family="Helvetica,sans-Serif" font-size="10.00">txatt.h</text>
</a>
</g>
</g>
<!-- Node44&#45;&gt;Node45 -->
<g id="edge67" class="edge">
<title>Node44&#45;&gt;Node45</title>
<path fill="none" stroke="midnightblue" d="M585.93,-550.19C592.75,-524.9 613.39,-448.45 622.85,-413.4"/>
<polygon fill="midnightblue" stroke="midnightblue" points="626.27,-414.16 625.5,-403.6 619.51,-412.34 626.27,-414.16"/>
</g>
<!-- Node45&#45;&gt;Node7 -->
<g id="edge68" class="edge">
<title>Node45&#45;&gt;Node7</title>
<path fill="none" stroke="midnightblue" d="M626.24,-385.32C624.7,-376.41 622.27,-361.73 620.68,-349 616.26,-313.57 612.8,-271.98 611.01,-248.69"/>
<polygon fill="midnightblue" stroke="midnightblue" points="614.49,-248.28 610.26,-238.57 607.51,-248.8 614.49,-248.28"/>
</g>
</g>
</svg>
