<?xml version="1.0" encoding="UTF-8" standalone="no"?>
<!DOCTYPE svg PUBLIC "-//W3C//DTD SVG 1.1//EN"
 "http://www.w3.org/Graphics/SVG/1.1/DTD/svg11.dtd">
<!-- Generated by graphviz version 2.43.0 (0)
 -->
<!-- Title: txbib.C Pages: 1 -->
<svg width="847pt" height="687pt"
 viewBox="0.00 0.00 847.36 687.00" xmlns="http://www.w3.org/2000/svg" xmlns:xlink="http://www.w3.org/1999/xlink">
<g id="graph0" class="graph" transform="scale(1 1) rotate(0) translate(4 683)">
<title>txbib.C</title>
<polygon fill="white" stroke="transparent" points="-4,4 -4,-683 843.36,-683 843.36,4 -4,4"/>
<!-- Node1 -->
<g id="node1" class="node">
<title>Node1</title>
<g id="a_node1"><a xlink:title=" ">
<polygon fill="#bfbfbf" stroke="black" points="643.12,-660.5 643.12,-678.5 690.25,-678.5 690.25,-660.5 643.12,-660.5"/>
<text text-anchor="middle" x="666.68" y="-666.5" font-family="Helvetica,sans-Serif" font-size="10.00">txbib.C</text>
</a>
</g>
</g>
<!-- Node2 -->
<g id="node2" class="node">
<title>Node2</title>
<g id="a_node2"><a xlink:href="../../d5/d87/globals_8h.html" target="_top" xlink:title=" ">
<polygon fill="white" stroke="black" points="622.22,-385.5 622.22,-403.5 707.15,-403.5 707.15,-385.5 622.22,-385.5"/>
<text text-anchor="middle" x="664.68" y="-391.5" font-family="Helvetica,sans-Serif" font-size="10.00">tralics/globals.h</text>
</a>
</g>
</g>
<!-- Node1&#45;&gt;Node2 -->
<g id="edge1" class="edge">
<title>Node1&#45;&gt;Node2</title>
<path fill="none" stroke="midnightblue" d="M666.68,-660.37C666.68,-642.38 666.68,-597.81 666.68,-560.5 666.68,-560.5 666.68,-560.5 666.68,-503.5 666.68,-472.01 665.82,-435.37 665.23,-413.88"/>
<polygon fill="midnightblue" stroke="midnightblue" points="668.72,-413.52 664.94,-403.63 661.73,-413.72 668.72,-413.52"/>
</g>
<!-- Node12 -->
<g id="node12" class="node">
<title>Node12</title>
<g id="a_node12"><a xlink:href="../../d6/dcb/txbib_8h.html" target="_top" xlink:title=" ">
<polygon fill="white" stroke="black" points="85.95,-605.5 85.95,-623.5 131.42,-623.5 131.42,-605.5 85.95,-605.5"/>
<text text-anchor="middle" x="108.68" y="-611.5" font-family="Helvetica,sans-Serif" font-size="10.00">txbib.h</text>
</a>
</g>
</g>
<!-- Node1&#45;&gt;Node12 -->
<g id="edge12" class="edge">
<title>Node1&#45;&gt;Node12</title>
<path fill="none" stroke="midnightblue" d="M643.06,-666.26C554.81,-657.87 244.25,-628.38 141.77,-618.64"/>
<polygon fill="midnightblue" stroke="midnightblue" points="141.98,-615.15 131.69,-617.69 141.32,-622.12 141.98,-615.15"/>
</g>
<!-- Node32 -->
<g id="node32" class="node">
<title>Node32</title>
<g id="a_node32"><a xlink:href="../../d2/d1b/txparser_8h.html" target="_top" xlink:title=" ">
<polygon fill="white" stroke="black" points="443.73,-605.5 443.73,-623.5 503.64,-623.5 503.64,-605.5 443.73,-605.5"/>
<text text-anchor="middle" x="473.68" y="-611.5" font-family="Helvetica,sans-Serif" font-size="10.00">txparser.h</text>
</a>
</g>
</g>
<!-- Node1&#45;&gt;Node32 -->
<g id="edge43" class="edge">
<title>Node1&#45;&gt;Node32</title>
<path fill="none" stroke="midnightblue" d="M643.02,-662C610.59,-653.09 551.91,-636.98 512.87,-626.26"/>
<polygon fill="midnightblue" stroke="midnightblue" points="513.48,-622.8 502.91,-623.52 511.62,-629.55 513.48,-622.8"/>
</g>
<!-- Node42 -->
<g id="node42" class="node">
<title>Node42</title>
<g id="a_node42"><a xlink:title=" ">
<polygon fill="white" stroke="#bfbfbf" points="695.12,-605.5 695.12,-623.5 752.25,-623.5 752.25,-605.5 695.12,-605.5"/>
<text text-anchor="middle" x="723.68" y="-611.5" font-family="Helvetica,sans-Serif" font-size="10.00">algorithm</text>
</a>
</g>
</g>
<!-- Node1&#45;&gt;Node42 -->
<g id="edge60" class="edge">
<title>Node1&#45;&gt;Node42</title>
<path fill="none" stroke="midnightblue" d="M675.59,-660.22C684.09,-652.32 697.09,-640.22 707.44,-630.61"/>
<polygon fill="midnightblue" stroke="midnightblue" points="710.09,-632.92 715.03,-623.55 705.32,-627.8 710.09,-632.92"/>
</g>
<!-- Node43 -->
<g id="node43" class="node">
<title>Node43</title>
<g id="a_node43"><a xlink:title=" ">
<polygon fill="white" stroke="#bfbfbf" points="770.01,-605.5 770.01,-623.5 839.36,-623.5 839.36,-605.5 770.01,-605.5"/>
<text text-anchor="middle" x="804.68" y="-611.5" font-family="Helvetica,sans-Serif" font-size="10.00">fmt/format.h</text>
</a>
</g>
</g>
<!-- Node1&#45;&gt;Node43 -->
<g id="edge61" class="edge">
<title>Node1&#45;&gt;Node43</title>
<path fill="none" stroke="midnightblue" d="M687.64,-660.45C710.64,-651.62 747.78,-637.35 774.05,-627.27"/>
<polygon fill="midnightblue" stroke="midnightblue" points="775.45,-630.48 783.53,-623.63 772.94,-623.94 775.45,-630.48"/>
</g>
<!-- Node3 -->
<g id="node3" class="node">
<title>Node3</title>
<g id="a_node3"><a xlink:href="../../dc/de8/txvars_8h.html" target="_top" xlink:title=" ">
<polygon fill="white" stroke="black" points="688.01,-220.5 688.01,-238.5 747.36,-238.5 747.36,-220.5 688.01,-220.5"/>
<text text-anchor="middle" x="717.68" y="-226.5" font-family="Helvetica,sans-Serif" font-size="10.00">../txvars.h</text>
</a>
</g>
</g>
<!-- Node2&#45;&gt;Node3 -->
<g id="edge2" class="edge">
<title>Node2&#45;&gt;Node3</title>
<path fill="none" stroke="midnightblue" d="M672.85,-385.45C680.8,-377.1 692.55,-363.29 698.68,-349 713.03,-315.6 716.65,-272.69 717.5,-248.75"/>
<polygon fill="midnightblue" stroke="midnightblue" points="721,-248.71 717.73,-238.64 714,-248.56 721,-248.71"/>
</g>
<!-- Node8 -->
<g id="node8" class="node">
<title>Node8</title>
<g id="a_node8"><a xlink:href="../../d8/d47/codepoint_8h.html" target="_top" xlink:title=" ">
<polygon fill="white" stroke="black" points="684.83,-110.5 684.83,-128.5 752.54,-128.5 752.54,-110.5 684.83,-110.5"/>
<text text-anchor="middle" x="718.68" y="-116.5" font-family="Helvetica,sans-Serif" font-size="10.00">codepoint.h</text>
</a>
</g>
</g>
<!-- Node2&#45;&gt;Node8 -->
<g id="edge7" class="edge">
<title>Node2&#45;&gt;Node8</title>
<path fill="none" stroke="midnightblue" d="M684.8,-385.42C717.53,-370.79 778.68,-336.62 778.68,-285.5 778.68,-285.5 778.68,-285.5 778.68,-228.5 778.68,-199.04 774.26,-190.6 759.68,-165 753.46,-154.07 744.09,-143.63 735.88,-135.61"/>
<polygon fill="midnightblue" stroke="midnightblue" points="738.2,-132.99 728.5,-128.73 733.42,-138.11 738.2,-132.99"/>
</g>
<!-- Node9 -->
<g id="node9" class="node">
<title>Node9</title>
<g id="a_node9"><a xlink:title=" ">
<polygon fill="white" stroke="#bfbfbf" points="488.46,-165.5 488.46,-183.5 528.91,-183.5 528.91,-165.5 488.46,-165.5"/>
<text text-anchor="middle" x="508.68" y="-171.5" font-family="Helvetica,sans-Serif" font-size="10.00">string</text>
</a>
</g>
</g>
<!-- Node2&#45;&gt;Node9 -->
<g id="edge9" class="edge">
<title>Node2&#45;&gt;Node9</title>
<path fill="none" stroke="midnightblue" d="M654.47,-385.31C625.49,-362.03 544.66,-296.99 542.68,-294 521.93,-262.53 513.64,-218.28 510.49,-193.73"/>
<polygon fill="midnightblue" stroke="midnightblue" points="513.95,-193.21 509.35,-183.67 507,-194 513.95,-193.21"/>
</g>
<!-- Node10 -->
<g id="node10" class="node">
<title>Node10</title>
<g id="a_node10"><a xlink:title=" ">
<polygon fill="white" stroke="#bfbfbf" points="533.07,-330.5 533.07,-348.5 576.3,-348.5 576.3,-330.5 533.07,-330.5"/>
<text text-anchor="middle" x="554.68" y="-336.5" font-family="Helvetica,sans-Serif" font-size="10.00">vector</text>
</a>
</g>
</g>
<!-- Node2&#45;&gt;Node10 -->
<g id="edge10" class="edge">
<title>Node2&#45;&gt;Node10</title>
<path fill="none" stroke="midnightblue" d="M647.98,-385.45C630.13,-376.85 601.6,-363.1 580.78,-353.08"/>
<polygon fill="midnightblue" stroke="midnightblue" points="582.08,-349.81 571.55,-348.63 579.04,-356.12 582.08,-349.81"/>
</g>
<!-- Node11 -->
<g id="node11" class="node">
<title>Node11</title>
<g id="a_node11"><a xlink:title=" ">
<polygon fill="white" stroke="#bfbfbf" points="638.17,-330.5 638.17,-348.5 689.2,-348.5 689.2,-330.5 638.17,-330.5"/>
<text text-anchor="middle" x="663.68" y="-336.5" font-family="Helvetica,sans-Serif" font-size="10.00">unistd.h</text>
</a>
</g>
</g>
<!-- Node2&#45;&gt;Node11 -->
<g id="edge11" class="edge">
<title>Node2&#45;&gt;Node11</title>
<path fill="none" stroke="midnightblue" d="M664.53,-385.22C664.4,-378.18 664.2,-367.81 664.03,-358.83"/>
<polygon fill="midnightblue" stroke="midnightblue" points="667.52,-358.48 663.84,-348.55 660.53,-358.61 667.52,-358.48"/>
</g>
<!-- Node4 -->
<g id="node4" class="node">
<title>Node4</title>
<g id="a_node4"><a xlink:href="../../d0/d0b/enums_8h.html" target="_top" xlink:title=" ">
<polygon fill="white" stroke="black" points="584.06,-110.5 584.06,-128.5 667.31,-128.5 667.31,-110.5 584.06,-110.5"/>
<text text-anchor="middle" x="625.68" y="-116.5" font-family="Helvetica,sans-Serif" font-size="10.00">tralics/enums.h</text>
</a>
</g>
</g>
<!-- Node3&#45;&gt;Node4 -->
<g id="edge3" class="edge">
<title>Node3&#45;&gt;Node4</title>
<path fill="none" stroke="midnightblue" d="M711.07,-220.18C701.31,-207.95 682.39,-184.46 665.68,-165 657.36,-155.3 647.8,-144.65 640.12,-136.2"/>
<polygon fill="midnightblue" stroke="midnightblue" points="642.5,-133.62 633.17,-128.6 637.33,-138.34 642.5,-133.62"/>
</g>
<!-- Node7 -->
<g id="node7" class="node">
<title>Node7</title>
<g id="a_node7"><a xlink:title=" ">
<polygon fill="white" stroke="#bfbfbf" points="712.29,-165.5 712.29,-183.5 751.08,-183.5 751.08,-165.5 712.29,-165.5"/>
<text text-anchor="middle" x="731.68" y="-171.5" font-family="Helvetica,sans-Serif" font-size="10.00">array</text>
</a>
</g>
</g>
<!-- Node3&#45;&gt;Node7 -->
<g id="edge6" class="edge">
<title>Node3&#45;&gt;Node7</title>
<path fill="none" stroke="midnightblue" d="M719.87,-220.22C721.77,-213.02 724.59,-202.35 727,-193.23"/>
<polygon fill="midnightblue" stroke="midnightblue" points="730.39,-194.11 729.56,-183.55 723.62,-192.32 730.39,-194.11"/>
</g>
<!-- Node5 -->
<g id="node5" class="node">
<title>Node5</title>
<g id="a_node5"><a xlink:href="../../d8/db5/consts_8h.html" target="_top" xlink:title=" ">
<polygon fill="white" stroke="black" points="618.06,-55.5 618.06,-73.5 671.31,-73.5 671.31,-55.5 618.06,-55.5"/>
<text text-anchor="middle" x="644.68" y="-61.5" font-family="Helvetica,sans-Serif" font-size="10.00">consts.h</text>
</a>
</g>
</g>
<!-- Node4&#45;&gt;Node5 -->
<g id="edge4" class="edge">
<title>Node4&#45;&gt;Node5</title>
<path fill="none" stroke="midnightblue" d="M628.65,-110.22C631.23,-103.02 635.06,-92.35 638.33,-83.23"/>
<polygon fill="midnightblue" stroke="midnightblue" points="641.72,-84.14 641.8,-73.55 635.13,-81.78 641.72,-84.14"/>
</g>
<!-- Node6 -->
<g id="node6" class="node">
<title>Node6</title>
<g id="a_node6"><a xlink:href="../../d9/d49/types_8h.html" target="_top" xlink:title=" ">
<polygon fill="white" stroke="black" points="647.56,-0.5 647.56,-18.5 695.81,-18.5 695.81,-0.5 647.56,-0.5"/>
<text text-anchor="middle" x="671.68" y="-6.5" font-family="Helvetica,sans-Serif" font-size="10.00">types.h</text>
</a>
</g>
</g>
<!-- Node5&#45;&gt;Node6 -->
<g id="edge5" class="edge">
<title>Node5&#45;&gt;Node6</title>
<path fill="none" stroke="midnightblue" d="M648.9,-55.22C652.65,-47.86 658.25,-36.88 662.95,-27.64"/>
<polygon fill="midnightblue" stroke="midnightblue" points="666.16,-29.05 667.58,-18.55 659.93,-25.87 666.16,-29.05"/>
</g>
<!-- Node8&#45;&gt;Node6 -->
<g id="edge8" class="edge">
<title>Node8&#45;&gt;Node6</title>
<path fill="none" stroke="midnightblue" d="M715.15,-110.38C707.56,-92.95 689.57,-51.59 679.27,-27.92"/>
<polygon fill="midnightblue" stroke="midnightblue" points="682.46,-26.48 675.26,-18.71 676.04,-29.28 682.46,-26.48"/>
</g>
<!-- Node13 -->
<g id="node13" class="node">
<title>Node13</title>
<g id="a_node13"><a xlink:href="../../d7/d79/txinline_8h.html" target="_top" xlink:title=" ">
<polygon fill="white" stroke="black" points="80.95,-550.5 80.95,-568.5 136.42,-568.5 136.42,-550.5 80.95,-550.5"/>
<text text-anchor="middle" x="108.68" y="-556.5" font-family="Helvetica,sans-Serif" font-size="10.00">txinline.h</text>
</a>
</g>
</g>
<!-- Node12&#45;&gt;Node13 -->
<g id="edge13" class="edge">
<title>Node12&#45;&gt;Node13</title>
<path fill="none" stroke="midnightblue" d="M108.68,-605.22C108.68,-598.18 108.68,-587.81 108.68,-578.83"/>
<polygon fill="midnightblue" stroke="midnightblue" points="112.18,-578.55 108.68,-568.55 105.18,-578.55 112.18,-578.55"/>
</g>
<!-- Node31 -->
<g id="node31" class="node">
<title>Node31</title>
<g id="a_node31"><a xlink:title=" ">
<polygon fill="white" stroke="#bfbfbf" points="12.17,-550.5 12.17,-568.5 63.2,-568.5 63.2,-550.5 12.17,-550.5"/>
<text text-anchor="middle" x="37.68" y="-556.5" font-family="Helvetica,sans-Serif" font-size="10.00">optional</text>
</a>
</g>
</g>
<!-- Node12&#45;&gt;Node31 -->
<g id="edge42" class="edge">
<title>Node12&#45;&gt;Node31</title>
<path fill="none" stroke="midnightblue" d="M97.9,-605.45C87.06,-597.36 70.11,-584.7 56.95,-574.88"/>
<polygon fill="midnightblue" stroke="midnightblue" points="58.68,-571.8 48.57,-568.63 54.49,-577.41 58.68,-571.8"/>
</g>
<!-- Node14 -->
<g id="node14" class="node">
<title>Node14</title>
<g id="a_node14"><a xlink:href="../../d4/de9/_main_class_8h.html" target="_top" xlink:title=" ">
<polygon fill="white" stroke="black" points="193.73,-495.5 193.73,-513.5 293.64,-513.5 293.64,-495.5 193.73,-495.5"/>
<text text-anchor="middle" x="243.68" y="-501.5" font-family="Helvetica,sans-Serif" font-size="10.00">tralics/MainClass.h</text>
</a>
</g>
</g>
<!-- Node13&#45;&gt;Node14 -->
<g id="edge14" class="edge">
<title>Node13&#45;&gt;Node14</title>
<path fill="none" stroke="midnightblue" d="M129.19,-550.45C151.59,-541.66 187.7,-527.48 213.37,-517.4"/>
<polygon fill="midnightblue" stroke="midnightblue" points="214.96,-520.54 222.99,-513.63 212.4,-514.02 214.96,-520.54"/>
</g>
<!-- Node28 -->
<g id="node28" class="node">
<title>Node28</title>
<g id="a_node28"><a xlink:href="../../d2/d06/txlogger_8h.html" target="_top" xlink:title=" ">
<polygon fill="white" stroke="black" points="0,-495.5 0,-513.5 59.37,-513.5 59.37,-495.5 0,-495.5"/>
<text text-anchor="middle" x="29.68" y="-501.5" font-family="Helvetica,sans-Serif" font-size="10.00">txlogger.h</text>
</a>
</g>
</g>
<!-- Node13&#45;&gt;Node28 -->
<g id="edge37" class="edge">
<title>Node13&#45;&gt;Node28</title>
<path fill="none" stroke="midnightblue" d="M96.69,-550.45C84.39,-542.2 65.03,-529.22 50.28,-519.32"/>
<polygon fill="midnightblue" stroke="midnightblue" points="52.05,-516.29 41.8,-513.63 48.15,-522.1 52.05,-516.29"/>
</g>
<!-- Node30 -->
<g id="node30" class="node">
<title>Node30</title>
<g id="a_node30"><a xlink:href="../../d5/d08/txparam_8h.html" target="_top" xlink:title=" ">
<polygon fill="white" stroke="black" points="77.45,-495.5 77.45,-513.5 137.92,-513.5 137.92,-495.5 77.45,-495.5"/>
<text text-anchor="middle" x="107.68" y="-501.5" font-family="Helvetica,sans-Serif" font-size="10.00">txparam.h</text>
</a>
</g>
</g>
<!-- Node13&#45;&gt;Node30 -->
<g id="edge40" class="edge">
<title>Node13&#45;&gt;Node30</title>
<path fill="none" stroke="midnightblue" d="M108.53,-550.22C108.4,-543.18 108.2,-532.81 108.03,-523.83"/>
<polygon fill="midnightblue" stroke="midnightblue" points="111.52,-523.48 107.84,-513.55 104.53,-523.61 111.52,-523.48"/>
</g>
<!-- Node15 -->
<g id="node15" class="node">
<title>Node15</title>
<g id="a_node15"><a xlink:href="../../de/d29/txio_8h.html" target="_top" xlink:title=" ">
<polygon fill="white" stroke="black" points="141.57,-440.5 141.57,-458.5 189.8,-458.5 189.8,-440.5 141.57,-440.5"/>
<text text-anchor="middle" x="165.68" y="-446.5" font-family="Helvetica,sans-Serif" font-size="10.00">../txio.h</text>
</a>
</g>
</g>
<!-- Node14&#45;&gt;Node15 -->
<g id="edge15" class="edge">
<title>Node14&#45;&gt;Node15</title>
<path fill="none" stroke="midnightblue" d="M231.84,-495.45C219.7,-487.2 200.59,-474.22 186.02,-464.32"/>
<polygon fill="midnightblue" stroke="midnightblue" points="187.88,-461.35 177.64,-458.63 183.95,-467.14 187.88,-461.35"/>
</g>
<!-- Node27 -->
<g id="node27" class="node">
<title>Node27</title>
<g id="a_node27"><a xlink:href="../../dc/def/txstring_8h.html" target="_top" xlink:title=" ">
<polygon fill="white" stroke="black" points="421.23,-440.5 421.23,-458.5 486.14,-458.5 486.14,-440.5 421.23,-440.5"/>
<text text-anchor="middle" x="453.68" y="-446.5" font-family="Helvetica,sans-Serif" font-size="10.00">../txstring.h</text>
</a>
</g>
</g>
<!-- Node14&#45;&gt;Node27 -->
<g id="edge35" class="edge">
<title>Node14&#45;&gt;Node27</title>
<path fill="none" stroke="midnightblue" d="M275.58,-495.45C312.07,-486.24 371.95,-471.13 412.08,-461"/>
<polygon fill="midnightblue" stroke="midnightblue" points="413,-464.38 421.83,-458.54 411.28,-457.59 413,-464.38"/>
</g>
<!-- Node16 -->
<g id="node16" class="node">
<title>Node16</title>
<g id="a_node16"><a xlink:href="../../dd/d74/txbuffer_8h.html" target="_top" xlink:title=" ">
<polygon fill="white" stroke="black" points="425.2,-385.5 425.2,-403.5 482.17,-403.5 482.17,-385.5 425.2,-385.5"/>
<text text-anchor="middle" x="453.68" y="-391.5" font-family="Helvetica,sans-Serif" font-size="10.00">txbuffer.h</text>
</a>
</g>
</g>
<!-- Node15&#45;&gt;Node16 -->
<g id="edge16" class="edge">
<title>Node15&#45;&gt;Node16</title>
<path fill="none" stroke="midnightblue" d="M190.24,-443.98C240.39,-434.75 354.91,-413.68 415.1,-402.6"/>
<polygon fill="midnightblue" stroke="midnightblue" points="415.77,-406.04 424.98,-400.78 414.51,-399.15 415.77,-406.04"/>
</g>
<!-- Node26 -->
<g id="node26" class="node">
<title>Node26</title>
<g id="a_node26"><a xlink:title=" ">
<polygon fill="white" stroke="#bfbfbf" points="115.01,-385.5 115.01,-403.5 164.35,-403.5 164.35,-385.5 115.01,-385.5"/>
<text text-anchor="middle" x="139.68" y="-391.5" font-family="Helvetica,sans-Serif" font-size="10.00">fstream</text>
</a>
</g>
</g>
<!-- Node15&#45;&gt;Node26 -->
<g id="edge34" class="edge">
<title>Node15&#45;&gt;Node26</title>
<path fill="none" stroke="midnightblue" d="M161.62,-440.22C158.01,-432.86 152.63,-421.88 148.09,-412.64"/>
<polygon fill="midnightblue" stroke="midnightblue" points="151.18,-410.99 143.63,-403.55 144.9,-414.07 151.18,-410.99"/>
</g>
<!-- Node16&#45;&gt;Node10 -->
<g id="edge33" class="edge">
<title>Node16&#45;&gt;Node10</title>
<path fill="none" stroke="midnightblue" d="M469.02,-385.45C485.26,-376.93 511.13,-363.35 530.2,-353.35"/>
<polygon fill="midnightblue" stroke="midnightblue" points="531.97,-356.37 539.2,-348.63 528.72,-350.17 531.97,-356.37"/>
</g>
<!-- Node17 -->
<g id="node17" class="node">
<title>Node17</title>
<g id="a_node17"><a xlink:href="../../d1/d9e/txid_8h.html" target="_top" xlink:title=" ">
<polygon fill="white" stroke="black" points="551.73,-275.5 551.73,-293.5 591.64,-293.5 591.64,-275.5 551.73,-275.5"/>
<text text-anchor="middle" x="571.68" y="-281.5" font-family="Helvetica,sans-Serif" font-size="10.00">txid.h</text>
</a>
</g>
</g>
<!-- Node16&#45;&gt;Node17 -->
<g id="edge17" class="edge">
<title>Node16&#45;&gt;Node17</title>
<path fill="none" stroke="midnightblue" d="M462.55,-385.38C482.2,-367.4 529.65,-323.97 555.03,-300.75"/>
<polygon fill="midnightblue" stroke="midnightblue" points="557.7,-303.05 562.71,-293.71 552.97,-297.88 557.7,-303.05"/>
</g>
<!-- Node18 -->
<g id="node18" class="node">
<title>Node18</title>
<g id="a_node18"><a xlink:href="../../d9/d18/txscaled_8h.html" target="_top" xlink:title=" ">
<polygon fill="white" stroke="black" points="352.17,-330.5 352.17,-348.5 413.2,-348.5 413.2,-330.5 352.17,-330.5"/>
<text text-anchor="middle" x="382.68" y="-336.5" font-family="Helvetica,sans-Serif" font-size="10.00">txscaled.h</text>
</a>
</g>
</g>
<!-- Node16&#45;&gt;Node18 -->
<g id="edge20" class="edge">
<title>Node16&#45;&gt;Node18</title>
<path fill="none" stroke="midnightblue" d="M442.9,-385.45C432.06,-377.36 415.11,-364.7 401.95,-354.88"/>
<polygon fill="midnightblue" stroke="midnightblue" points="403.68,-351.8 393.57,-348.63 399.49,-357.41 403.68,-351.8"/>
</g>
<!-- Node25 -->
<g id="node25" class="node">
<title>Node25</title>
<g id="a_node25"><a xlink:title=" ">
<polygon fill="white" stroke="#bfbfbf" points="430.96,-330.5 430.96,-348.5 476.41,-348.5 476.41,-330.5 430.96,-330.5"/>
<text text-anchor="middle" x="453.68" y="-336.5" font-family="Helvetica,sans-Serif" font-size="10.00">cstring</text>
</a>
</g>
</g>
<!-- Node16&#45;&gt;Node25 -->
<g id="edge32" class="edge">
<title>Node16&#45;&gt;Node25</title>
<path fill="none" stroke="midnightblue" d="M453.68,-385.22C453.68,-378.18 453.68,-367.81 453.68,-358.83"/>
<polygon fill="midnightblue" stroke="midnightblue" points="457.18,-358.55 453.68,-348.55 450.18,-358.55 457.18,-358.55"/>
</g>
<!-- Node17&#45;&gt;Node3 -->
<g id="edge18" class="edge">
<title>Node17&#45;&gt;Node3</title>
<path fill="none" stroke="midnightblue" d="M591.68,-276.24C615.99,-267.42 657.32,-252.41 685.98,-242.01"/>
<polygon fill="midnightblue" stroke="midnightblue" points="687.34,-245.24 695.55,-238.54 684.95,-238.66 687.34,-245.24"/>
</g>
<!-- Node17&#45;&gt;Node9 -->
<g id="edge19" class="edge">
<title>Node17&#45;&gt;Node9</title>
<path fill="none" stroke="midnightblue" d="M567.51,-275.15C561.3,-262.89 549.15,-239.37 537.68,-220 532.09,-210.55 525.42,-200.25 519.89,-191.95"/>
<polygon fill="midnightblue" stroke="midnightblue" points="522.73,-189.91 514.24,-183.57 516.93,-193.82 522.73,-189.91"/>
</g>
<!-- Node19 -->
<g id="node19" class="node">
<title>Node19</title>
<g id="a_node19"><a xlink:href="../../dc/d91/txtokenlist_8h.html" target="_top" xlink:title=" ">
<polygon fill="white" stroke="black" points="421.28,-275.5 421.28,-293.5 490.09,-293.5 490.09,-275.5 421.28,-275.5"/>
<text text-anchor="middle" x="455.68" y="-281.5" font-family="Helvetica,sans-Serif" font-size="10.00">txtokenlist.h</text>
</a>
</g>
</g>
<!-- Node18&#45;&gt;Node19 -->
<g id="edge21" class="edge">
<title>Node18&#45;&gt;Node19</title>
<path fill="none" stroke="midnightblue" d="M393.77,-330.45C405.03,-322.28 422.68,-309.46 436.26,-299.6"/>
<polygon fill="midnightblue" stroke="midnightblue" points="438.46,-302.33 444.49,-293.63 434.34,-296.67 438.46,-302.33"/>
</g>
<!-- Node19&#45;&gt;Node3 -->
<g id="edge30" class="edge">
<title>Node19&#45;&gt;Node3</title>
<path fill="none" stroke="midnightblue" d="M490.1,-276.83C531.98,-268.67 605.08,-254.28 677.65,-239.19"/>
<polygon fill="midnightblue" stroke="midnightblue" points="678.81,-242.52 687.89,-237.05 677.38,-235.67 678.81,-242.52"/>
</g>
<!-- Node20 -->
<g id="node20" class="node">
<title>Node20</title>
<g id="a_node20"><a xlink:href="../../d5/daf/_istring_8h.html" target="_top" xlink:title=" ">
<polygon fill="white" stroke="black" points="415.45,-220.5 415.45,-238.5 495.92,-238.5 495.92,-220.5 415.45,-220.5"/>
<text text-anchor="middle" x="455.68" y="-226.5" font-family="Helvetica,sans-Serif" font-size="10.00">tralics/Istring.h</text>
</a>
</g>
</g>
<!-- Node19&#45;&gt;Node20 -->
<g id="edge22" class="edge">
<title>Node19&#45;&gt;Node20</title>
<path fill="none" stroke="midnightblue" d="M455.68,-275.22C455.68,-268.18 455.68,-257.81 455.68,-248.83"/>
<polygon fill="midnightblue" stroke="midnightblue" points="459.18,-248.55 455.68,-238.55 452.18,-248.55 459.18,-248.55"/>
</g>
<!-- Node21 -->
<g id="node21" class="node">
<title>Node21</title>
<g id="a_node21"><a xlink:href="../../dd/dcd/_token_8h.html" target="_top" xlink:title=" ">
<polygon fill="white" stroke="black" points="589.73,-220.5 589.73,-238.5 669.64,-238.5 669.64,-220.5 589.73,-220.5"/>
<text text-anchor="middle" x="629.68" y="-226.5" font-family="Helvetica,sans-Serif" font-size="10.00">tralics/Token.h</text>
</a>
</g>
</g>
<!-- Node19&#45;&gt;Node21 -->
<g id="edge25" class="edge">
<title>Node19&#45;&gt;Node21</title>
<path fill="none" stroke="midnightblue" d="M482.11,-275.45C511.84,-266.4 560.29,-251.64 593.51,-241.52"/>
<polygon fill="midnightblue" stroke="midnightblue" points="594.75,-244.8 603.29,-238.54 592.71,-238.1 594.75,-244.8"/>
</g>
<!-- Node24 -->
<g id="node24" class="node">
<title>Node24</title>
<g id="a_node24"><a xlink:title=" ">
<polygon fill="white" stroke="#bfbfbf" points="358.29,-220.5 358.29,-238.5 397.08,-238.5 397.08,-220.5 358.29,-220.5"/>
<text text-anchor="middle" x="377.68" y="-226.5" font-family="Helvetica,sans-Serif" font-size="10.00">utility</text>
</a>
</g>
</g>
<!-- Node19&#45;&gt;Node24 -->
<g id="edge31" class="edge">
<title>Node19&#45;&gt;Node24</title>
<path fill="none" stroke="midnightblue" d="M443.84,-275.45C431.7,-267.2 412.59,-254.22 398.02,-244.32"/>
<polygon fill="midnightblue" stroke="midnightblue" points="399.88,-241.35 389.64,-238.63 395.95,-247.14 399.88,-241.35"/>
</g>
<!-- Node20&#45;&gt;Node4 -->
<g id="edge23" class="edge">
<title>Node20&#45;&gt;Node4</title>
<path fill="none" stroke="midnightblue" d="M456.5,-220.21C458.27,-206.72 463.68,-179.98 479.68,-165 505.14,-141.16 543.02,-130.07 573.81,-124.92"/>
<polygon fill="midnightblue" stroke="midnightblue" points="574.59,-128.35 583.95,-123.39 573.54,-121.42 574.59,-128.35"/>
</g>
<!-- Node20&#45;&gt;Node9 -->
<g id="edge24" class="edge">
<title>Node20&#45;&gt;Node9</title>
<path fill="none" stroke="midnightblue" d="M463.97,-220.22C471.79,-212.39 483.72,-200.46 493.29,-190.89"/>
<polygon fill="midnightblue" stroke="midnightblue" points="496.04,-193.1 500.64,-183.55 491.09,-188.15 496.04,-193.1"/>
</g>
<!-- Node22 -->
<g id="node22" class="node">
<title>Node22</title>
<g id="a_node22"><a xlink:href="../../d2/d68/_cmd_chr_8h.html" target="_top" xlink:title=" ">
<polygon fill="white" stroke="black" points="595.17,-165.5 595.17,-183.5 656.19,-183.5 656.19,-165.5 595.17,-165.5"/>
<text text-anchor="middle" x="625.68" y="-171.5" font-family="Helvetica,sans-Serif" font-size="10.00">CmdChr.h</text>
</a>
</g>
</g>
<!-- Node21&#45;&gt;Node22 -->
<g id="edge26" class="edge">
<title>Node21&#45;&gt;Node22</title>
<path fill="none" stroke="midnightblue" d="M629.06,-220.22C628.52,-213.1 627.73,-202.58 627.05,-193.53"/>
<polygon fill="midnightblue" stroke="midnightblue" points="630.53,-193.26 626.29,-183.55 623.55,-193.78 630.53,-193.26"/>
</g>
<!-- Node23 -->
<g id="node23" class="node">
<title>Node23</title>
<g id="a_node23"><a xlink:title=" ">
<polygon fill="white" stroke="#bfbfbf" points="548.18,-165.5 548.18,-183.5 577.18,-183.5 577.18,-165.5 548.18,-165.5"/>
<text text-anchor="middle" x="562.3" y="-171.5" font-family="Helvetica,sans-Serif" font-size="10.00">list</text>
</a>
</g>
</g>
<!-- Node21&#45;&gt;Node23 -->
<g id="edge29" class="edge">
<title>Node21&#45;&gt;Node23</title>
<path fill="none" stroke="midnightblue" d="M619.51,-220.45C609.28,-212.36 593.28,-199.7 580.87,-189.88"/>
<polygon fill="midnightblue" stroke="midnightblue" points="582.97,-187.08 572.96,-183.63 578.63,-192.57 582.97,-187.08"/>
</g>
<!-- Node22&#45;&gt;Node4 -->
<g id="edge28" class="edge">
<title>Node22&#45;&gt;Node4</title>
<path fill="none" stroke="midnightblue" d="M625.68,-165.22C625.68,-158.18 625.68,-147.81 625.68,-138.83"/>
<polygon fill="midnightblue" stroke="midnightblue" points="629.18,-138.55 625.68,-128.55 622.18,-138.55 629.18,-138.55"/>
</g>
<!-- Node22&#45;&gt;Node8 -->
<g id="edge27" class="edge">
<title>Node22&#45;&gt;Node8</title>
<path fill="none" stroke="midnightblue" d="M639.81,-165.45C654.56,-157.05 677.93,-143.72 695.41,-133.76"/>
<polygon fill="midnightblue" stroke="midnightblue" points="697.47,-136.62 704.43,-128.63 694.01,-130.54 697.47,-136.62"/>
</g>
<!-- Node27&#45;&gt;Node16 -->
<g id="edge36" class="edge">
<title>Node27&#45;&gt;Node16</title>
<path fill="none" stroke="midnightblue" d="M453.68,-440.22C453.68,-433.18 453.68,-422.81 453.68,-413.83"/>
<polygon fill="midnightblue" stroke="midnightblue" points="457.18,-413.55 453.68,-403.55 450.18,-413.55 457.18,-413.55"/>
</g>
<!-- Node28&#45;&gt;Node26 -->
<g id="edge38" class="edge">
<title>Node28&#45;&gt;Node26</title>
<path fill="none" stroke="midnightblue" d="M37.95,-495.38C56.27,-477.4 100.5,-433.97 124.16,-410.75"/>
<polygon fill="midnightblue" stroke="midnightblue" points="126.64,-413.22 131.32,-403.71 121.73,-408.22 126.64,-413.22"/>
</g>
<!-- Node29 -->
<g id="node29" class="node">
<title>Node29</title>
<g id="a_node29"><a xlink:title=" ">
<polygon fill="white" stroke="#bfbfbf" points="2.51,-440.5 2.51,-458.5 56.86,-458.5 56.86,-440.5 2.51,-440.5"/>
<text text-anchor="middle" x="29.68" y="-446.5" font-family="Helvetica,sans-Serif" font-size="10.00">iostream</text>
</a>
</g>
</g>
<!-- Node28&#45;&gt;Node29 -->
<g id="edge39" class="edge">
<title>Node28&#45;&gt;Node29</title>
<path fill="none" stroke="midnightblue" d="M29.68,-495.22C29.68,-488.18 29.68,-477.81 29.68,-468.83"/>
<polygon fill="midnightblue" stroke="midnightblue" points="33.18,-468.55 29.68,-458.55 26.18,-468.55 33.18,-468.55"/>
</g>
<!-- Node30&#45;&gt;Node15 -->
<g id="edge41" class="edge">
<title>Node30&#45;&gt;Node15</title>
<path fill="none" stroke="midnightblue" d="M116.75,-495.22C125.48,-487.24 138.89,-474.98 149.47,-465.32"/>
<polygon fill="midnightblue" stroke="midnightblue" points="151.85,-467.88 156.88,-458.55 147.13,-462.71 151.85,-467.88"/>
</g>
<!-- Node32&#45;&gt;Node15 -->
<g id="edge54" class="edge">
<title>Node32&#45;&gt;Node15</title>
<path fill="none" stroke="midnightblue" d="M443.45,-612.46C384.23,-608.7 252.78,-591.56 184.68,-514 173.65,-501.43 169.02,-482.67 167.08,-468.8"/>
<polygon fill="midnightblue" stroke="midnightblue" points="170.53,-468.12 166,-458.54 163.57,-468.85 170.53,-468.12"/>
</g>
<!-- Node33 -->
<g id="node33" class="node">
<title>Node33</title>
<g id="a_node33"><a xlink:href="../../d3/d6b/txcond_8h.html" target="_top" xlink:title=" ">
<polygon fill="white" stroke="black" points="557.78,-440.5 557.78,-458.5 611.59,-458.5 611.59,-440.5 557.78,-440.5"/>
<text text-anchor="middle" x="584.68" y="-446.5" font-family="Helvetica,sans-Serif" font-size="10.00">txcond.h</text>
</a>
</g>
</g>
<!-- Node32&#45;&gt;Node33 -->
<g id="edge44" class="edge">
<title>Node32&#45;&gt;Node33</title>
<path fill="none" stroke="midnightblue" d="M503.9,-613.21C536.08,-611.08 585.63,-602.19 609.68,-569 632.02,-538.19 610.28,-491.72 595.62,-467.13"/>
<polygon fill="midnightblue" stroke="midnightblue" points="598.55,-465.2 590.28,-458.58 592.61,-468.92 598.55,-465.2"/>
</g>
<!-- Node34 -->
<g id="node34" class="node">
<title>Node34</title>
<g id="a_node34"><a xlink:href="../../d7/d4d/txfonts_8h.html" target="_top" xlink:title=" ">
<polygon fill="white" stroke="black" points="476.79,-495.5 476.79,-513.5 530.58,-513.5 530.58,-495.5 476.79,-495.5"/>
<text text-anchor="middle" x="503.68" y="-501.5" font-family="Helvetica,sans-Serif" font-size="10.00">txfonts.h</text>
</a>
</g>
</g>
<!-- Node32&#45;&gt;Node34 -->
<g id="edge46" class="edge">
<title>Node32&#45;&gt;Node34</title>
<path fill="none" stroke="midnightblue" d="M470.31,-605.41C465.68,-593.06 458.69,-568.97 465.68,-550 469.8,-538.85 478.09,-528.59 485.88,-520.75"/>
<polygon fill="midnightblue" stroke="midnightblue" points="488.43,-523.15 493.33,-513.76 483.64,-518.05 488.43,-523.15"/>
</g>
<!-- Node35 -->
<g id="node35" class="node">
<title>Node35</title>
<g id="a_node35"><a xlink:href="../../d7/d7e/txhash_8h.html" target="_top" xlink:title=" ">
<polygon fill="white" stroke="black" points="546.78,-550.5 546.78,-568.5 600.59,-568.5 600.59,-550.5 546.78,-550.5"/>
<text text-anchor="middle" x="573.68" y="-556.5" font-family="Helvetica,sans-Serif" font-size="10.00">txhash.h</text>
</a>
</g>
</g>
<!-- Node32&#45;&gt;Node35 -->
<g id="edge48" class="edge">
<title>Node32&#45;&gt;Node35</title>
<path fill="none" stroke="midnightblue" d="M488.87,-605.45C504.95,-596.93 530.57,-583.35 549.44,-573.35"/>
<polygon fill="midnightblue" stroke="midnightblue" points="551.16,-576.4 558.35,-568.63 547.88,-570.22 551.16,-576.4"/>
</g>
<!-- Node37 -->
<g id="node37" class="node">
<title>Node37</title>
<g id="a_node37"><a xlink:href="../../de/d7c/tximage_8h.html" target="_top" xlink:title=" ">
<polygon fill="white" stroke="black" points="301.01,-275.5 301.01,-293.5 360.36,-293.5 360.36,-275.5 301.01,-275.5"/>
<text text-anchor="middle" x="330.68" y="-281.5" font-family="Helvetica,sans-Serif" font-size="10.00">tximage.h</text>
</a>
</g>
</g>
<!-- Node32&#45;&gt;Node37 -->
<g id="edge51" class="edge">
<title>Node32&#45;&gt;Node37</title>
<path fill="none" stroke="midnightblue" d="M443.61,-608.74C417.19,-603.2 379.11,-591.73 353.68,-569 330.13,-547.94 321.68,-537.1 321.68,-505.5 321.68,-505.5 321.68,-505.5 321.68,-393.5 321.68,-361.76 325.59,-324.96 328.26,-303.55"/>
<polygon fill="midnightblue" stroke="midnightblue" points="331.73,-303.98 329.54,-293.61 324.79,-303.08 331.73,-303.98"/>
</g>
<!-- Node38 -->
<g id="node38" class="node">
<title>Node38</title>
<g id="a_node38"><a xlink:href="../../dc/d65/txstack_8h.html" target="_top" xlink:title=" ">
<polygon fill="white" stroke="black" points="362.96,-550.5 362.96,-568.5 418.41,-568.5 418.41,-550.5 362.96,-550.5"/>
<text text-anchor="middle" x="390.68" y="-556.5" font-family="Helvetica,sans-Serif" font-size="10.00">txstack.h</text>
</a>
</g>
</g>
<!-- Node32&#45;&gt;Node38 -->
<g id="edge55" class="edge">
<title>Node32&#45;&gt;Node38</title>
<path fill="none" stroke="midnightblue" d="M461.08,-605.45C448.04,-597.12 427.44,-583.97 411.89,-574.04"/>
<polygon fill="midnightblue" stroke="midnightblue" points="413.72,-571.06 403.41,-568.63 409.95,-576.96 413.72,-571.06"/>
</g>
<!-- Node41 -->
<g id="node41" class="node">
<title>Node41</title>
<g id="a_node41"><a xlink:href="../../d8/d3d/txstats_8h.html" target="_top" xlink:title=" ">
<polygon fill="white" stroke="black" points="475.07,-550.5 475.07,-568.5 528.3,-568.5 528.3,-550.5 475.07,-550.5"/>
<text text-anchor="middle" x="501.68" y="-556.5" font-family="Helvetica,sans-Serif" font-size="10.00">txstats.h</text>
</a>
</g>
</g>
<!-- Node32&#45;&gt;Node41 -->
<g id="edge59" class="edge">
<title>Node32&#45;&gt;Node41</title>
<path fill="none" stroke="midnightblue" d="M478.06,-605.22C481.95,-597.86 487.75,-586.88 492.63,-577.64"/>
<polygon fill="midnightblue" stroke="midnightblue" points="495.86,-579.03 497.43,-568.55 489.67,-575.76 495.86,-579.03"/>
</g>
<!-- Node33&#45;&gt;Node10 -->
<g id="edge45" class="edge">
<title>Node33&#45;&gt;Node10</title>
<path fill="none" stroke="midnightblue" d="M582.43,-440.38C577.63,-423.1 566.3,-382.33 559.7,-358.56"/>
<polygon fill="midnightblue" stroke="midnightblue" points="563.01,-357.41 556.97,-348.71 556.27,-359.28 563.01,-357.41"/>
</g>
<!-- Node34&#45;&gt;Node27 -->
<g id="edge47" class="edge">
<title>Node34&#45;&gt;Node27</title>
<path fill="none" stroke="midnightblue" d="M495.87,-495.22C488.49,-487.39 477.23,-475.46 468.21,-465.89"/>
<polygon fill="midnightblue" stroke="midnightblue" points="470.69,-463.42 461.28,-458.55 465.59,-468.23 470.69,-463.42"/>
</g>
<!-- Node36 -->
<g id="node36" class="node">
<title>Node36</title>
<g id="a_node36"><a xlink:href="../../d3/d01/txeqtb_8h.html" target="_top" xlink:title=" ">
<polygon fill="white" stroke="black" points="548.89,-495.5 548.89,-513.5 600.48,-513.5 600.48,-495.5 548.89,-495.5"/>
<text text-anchor="middle" x="574.68" y="-501.5" font-family="Helvetica,sans-Serif" font-size="10.00">txeqtb.h</text>
</a>
</g>
</g>
<!-- Node35&#45;&gt;Node36 -->
<g id="edge49" class="edge">
<title>Node35&#45;&gt;Node36</title>
<path fill="none" stroke="midnightblue" d="M573.84,-550.22C573.97,-543.18 574.17,-532.81 574.34,-523.83"/>
<polygon fill="midnightblue" stroke="midnightblue" points="577.84,-523.61 574.53,-513.55 570.84,-523.48 577.84,-523.61"/>
</g>
<!-- Node36&#45;&gt;Node27 -->
<g id="edge50" class="edge">
<title>Node36&#45;&gt;Node27</title>
<path fill="none" stroke="midnightblue" d="M556.31,-495.45C536.41,-486.73 504.44,-472.73 481.47,-462.67"/>
<polygon fill="midnightblue" stroke="midnightblue" points="482.8,-459.43 472.23,-458.63 479.99,-465.84 482.8,-459.43"/>
</g>
<!-- Node37&#45;&gt;Node9 -->
<g id="edge52" class="edge">
<title>Node37&#45;&gt;Node9</title>
<path fill="none" stroke="midnightblue" d="M330.74,-275.22C331.3,-261.72 334.42,-235 349.68,-220 384.25,-186.05 442.48,-177.53 478.06,-175.66"/>
<polygon fill="midnightblue" stroke="midnightblue" points="478.46,-179.15 488.32,-175.28 478.2,-172.15 478.46,-179.15"/>
</g>
<!-- Node37&#45;&gt;Node24 -->
<g id="edge53" class="edge">
<title>Node37&#45;&gt;Node24</title>
<path fill="none" stroke="midnightblue" d="M338.03,-275.22C344.9,-267.47 355.34,-255.7 363.78,-246.18"/>
<polygon fill="midnightblue" stroke="midnightblue" points="366.53,-248.35 370.55,-238.55 361.29,-243.71 366.53,-248.35"/>
</g>
<!-- Node39 -->
<g id="node39" class="node">
<title>Node39</title>
<g id="a_node39"><a xlink:href="../../d4/da4/txatt_8h.html" target="_top" xlink:title=" ">
<polygon fill="white" stroke="black" points="415.07,-495.5 415.07,-513.5 458.3,-513.5 458.3,-495.5 415.07,-495.5"/>
<text text-anchor="middle" x="436.68" y="-501.5" font-family="Helvetica,sans-Serif" font-size="10.00">txatt.h</text>
</a>
</g>
</g>
<!-- Node38&#45;&gt;Node39 -->
<g id="edge56" class="edge">
<title>Node38&#45;&gt;Node39</title>
<path fill="none" stroke="midnightblue" d="M397.87,-550.22C404.6,-542.47 414.81,-530.7 423.08,-521.18"/>
<polygon fill="midnightblue" stroke="midnightblue" points="425.79,-523.4 429.7,-513.55 420.5,-518.81 425.79,-523.4"/>
</g>
<!-- Node40 -->
<g id="node40" class="node">
<title>Node40</title>
<g id="a_node40"><a xlink:href="../../d1/d43/txxml_8h.html" target="_top" xlink:title=" ">
<polygon fill="white" stroke="black" points="349.85,-495.5 349.85,-513.5 397.52,-513.5 397.52,-495.5 349.85,-495.5"/>
<text text-anchor="middle" x="373.68" y="-501.5" font-family="Helvetica,sans-Serif" font-size="10.00">txxml.h</text>
</a>
</g>
</g>
<!-- Node38&#45;&gt;Node40 -->
<g id="edge58" class="edge">
<title>Node38&#45;&gt;Node40</title>
<path fill="none" stroke="midnightblue" d="M388.03,-550.22C385.72,-543.02 382.3,-532.35 379.37,-523.23"/>
<polygon fill="midnightblue" stroke="midnightblue" points="382.65,-522 376.27,-513.55 375.99,-524.14 382.65,-522"/>
</g>
<!-- Node39&#45;&gt;Node27 -->
<g id="edge57" class="edge">
<title>Node39&#45;&gt;Node27</title>
<path fill="none" stroke="midnightblue" d="M439.34,-495.22C441.65,-488.02 445.07,-477.35 448,-468.23"/>
<polygon fill="midnightblue" stroke="midnightblue" points="451.38,-469.14 451.1,-458.55 444.72,-467 451.38,-469.14"/>
</g>
</g>
</svg>
