<?xml version="1.0" encoding="UTF-8" standalone="no"?>
<!DOCTYPE svg PUBLIC "-//W3C//DTD SVG 1.1//EN"
 "http://www.w3.org/Graphics/SVG/1.1/DTD/svg11.dtd">
<!-- Generated by graphviz version 2.43.0 (0)
 -->
<!-- Title: Istring.C Pages: 1 -->
<svg width="426pt" height="687pt"
 viewBox="0.00 0.00 426.35 687.00" xmlns="http://www.w3.org/2000/svg" xmlns:xlink="http://www.w3.org/1999/xlink">
<g id="graph0" class="graph" transform="scale(1 1) rotate(0) translate(4 683)">
<title>Istring.C</title>
<polygon fill="white" stroke="transparent" points="-4,4 -4,-683 422.35,-683 422.35,4 -4,4"/>
<!-- Node1 -->
<g id="node1" class="node">
<title>Node1</title>
<g id="a_node1"><a xlink:title=" ">
<polygon fill="#bfbfbf" stroke="black" points="62.78,-660.5 62.78,-678.5 116.01,-678.5 116.01,-660.5 62.78,-660.5"/>
<text text-anchor="middle" x="89.39" y="-666.5" font-family="Helvetica,sans-Serif" font-size="10.00">Istring.C</text>
</a>
</g>
</g>
<!-- Node2 -->
<g id="node2" class="node">
<title>Node2</title>
<g id="a_node2"><a xlink:href="../../d7/d79/txinline_8h.html" target="_top" xlink:title=" ">
<polygon fill="white" stroke="black" points="61.66,-605.5 61.66,-623.5 117.13,-623.5 117.13,-605.5 61.66,-605.5"/>
<text text-anchor="middle" x="89.39" y="-611.5" font-family="Helvetica,sans-Serif" font-size="10.00">txinline.h</text>
</a>
</g>
</g>
<!-- Node1&#45;&gt;Node2 -->
<g id="edge1" class="edge">
<title>Node1&#45;&gt;Node2</title>
<path fill="none" stroke="midnightblue" d="M89.39,-660.22C89.39,-653.18 89.39,-642.81 89.39,-633.83"/>
<polygon fill="midnightblue" stroke="midnightblue" points="92.89,-633.55 89.39,-623.55 85.89,-633.55 92.89,-633.55"/>
</g>
<!-- Node3 -->
<g id="node3" class="node">
<title>Node3</title>
<g id="a_node3"><a xlink:href="../../d2/d06/txlogger_8h.html" target="_top" xlink:title=" ">
<polygon fill="white" stroke="black" points="109.71,-550.5 109.71,-568.5 169.08,-568.5 169.08,-550.5 109.71,-550.5"/>
<text text-anchor="middle" x="139.39" y="-556.5" font-family="Helvetica,sans-Serif" font-size="10.00">txlogger.h</text>
</a>
</g>
</g>
<!-- Node2&#45;&gt;Node3 -->
<g id="edge2" class="edge">
<title>Node2&#45;&gt;Node3</title>
<path fill="none" stroke="midnightblue" d="M97.2,-605.22C104.59,-597.39 115.84,-585.46 124.87,-575.89"/>
<polygon fill="midnightblue" stroke="midnightblue" points="127.48,-578.23 131.8,-568.55 122.39,-573.42 127.48,-578.23"/>
</g>
<!-- Node26 -->
<g id="node26" class="node">
<title>Node26</title>
<g id="a_node26"><a xlink:href="../../d5/d08/txparam_8h.html" target="_top" xlink:title=" ">
<polygon fill="white" stroke="black" points="20.16,-550.5 20.16,-568.5 80.62,-568.5 80.62,-550.5 20.16,-550.5"/>
<text text-anchor="middle" x="50.39" y="-556.5" font-family="Helvetica,sans-Serif" font-size="10.00">txparam.h</text>
</a>
</g>
</g>
<!-- Node2&#45;&gt;Node26 -->
<g id="edge30" class="edge">
<title>Node2&#45;&gt;Node26</title>
<path fill="none" stroke="midnightblue" d="M83.3,-605.22C77.71,-597.63 69.28,-586.18 62.36,-576.76"/>
<polygon fill="midnightblue" stroke="midnightblue" points="65.06,-574.53 56.31,-568.55 59.42,-578.68 65.06,-574.53"/>
</g>
<!-- Node4 -->
<g id="node4" class="node">
<title>Node4</title>
<g id="a_node4"><a xlink:href="../../d7/d4d/txfonts_8h.html" target="_top" xlink:title=" ">
<polygon fill="white" stroke="black" points="196.49,-495.5 196.49,-513.5 250.29,-513.5 250.29,-495.5 196.49,-495.5"/>
<text text-anchor="middle" x="223.39" y="-501.5" font-family="Helvetica,sans-Serif" font-size="10.00">txfonts.h</text>
</a>
</g>
</g>
<!-- Node3&#45;&gt;Node4 -->
<g id="edge3" class="edge">
<title>Node3&#45;&gt;Node4</title>
<path fill="none" stroke="midnightblue" d="M152.15,-550.45C165.35,-542.12 186.19,-528.97 201.93,-519.04"/>
<polygon fill="midnightblue" stroke="midnightblue" points="203.92,-521.92 210.51,-513.63 200.19,-516 203.92,-521.92"/>
</g>
<!-- Node24 -->
<g id="node24" class="node">
<title>Node24</title>
<g id="a_node24"><a xlink:title=" ">
<polygon fill="white" stroke="#bfbfbf" points="56.72,-495.5 56.72,-513.5 106.06,-513.5 106.06,-495.5 56.72,-495.5"/>
<text text-anchor="middle" x="81.39" y="-501.5" font-family="Helvetica,sans-Serif" font-size="10.00">fstream</text>
</a>
</g>
</g>
<!-- Node3&#45;&gt;Node24 -->
<g id="edge28" class="edge">
<title>Node3&#45;&gt;Node24</title>
<path fill="none" stroke="midnightblue" d="M130.33,-550.22C121.6,-542.24 108.19,-529.98 97.61,-520.32"/>
<polygon fill="midnightblue" stroke="midnightblue" points="99.94,-517.71 90.2,-513.55 95.22,-522.88 99.94,-517.71"/>
</g>
<!-- Node25 -->
<g id="node25" class="node">
<title>Node25</title>
<g id="a_node25"><a xlink:title=" ">
<polygon fill="white" stroke="#bfbfbf" points="124.22,-495.5 124.22,-513.5 178.56,-513.5 178.56,-495.5 124.22,-495.5"/>
<text text-anchor="middle" x="151.39" y="-501.5" font-family="Helvetica,sans-Serif" font-size="10.00">iostream</text>
</a>
</g>
</g>
<!-- Node3&#45;&gt;Node25 -->
<g id="edge29" class="edge">
<title>Node3&#45;&gt;Node25</title>
<path fill="none" stroke="midnightblue" d="M141.27,-550.22C142.88,-543.1 145.26,-532.58 147.31,-523.53"/>
<polygon fill="midnightblue" stroke="midnightblue" points="150.77,-524.08 149.57,-513.55 143.95,-522.53 150.77,-524.08"/>
</g>
<!-- Node5 -->
<g id="node5" class="node">
<title>Node5</title>
<g id="a_node5"><a xlink:href="../../dc/def/txstring_8h.html" target="_top" xlink:title=" ">
<polygon fill="white" stroke="black" points="192.11,-440.5 192.11,-458.5 248.68,-458.5 248.68,-440.5 192.11,-440.5"/>
<text text-anchor="middle" x="220.39" y="-446.5" font-family="Helvetica,sans-Serif" font-size="10.00">txstring.h</text>
</a>
</g>
</g>
<!-- Node4&#45;&gt;Node5 -->
<g id="edge4" class="edge">
<title>Node4&#45;&gt;Node5</title>
<path fill="none" stroke="midnightblue" d="M222.92,-495.22C222.52,-488.18 221.94,-477.81 221.43,-468.83"/>
<polygon fill="midnightblue" stroke="midnightblue" points="224.91,-468.34 220.85,-458.55 217.92,-468.73 224.91,-468.34"/>
</g>
<!-- Node6 -->
<g id="node6" class="node">
<title>Node6</title>
<g id="a_node6"><a xlink:href="../../dd/d74/txbuffer_8h.html" target="_top" xlink:title=" ">
<polygon fill="white" stroke="black" points="188.91,-385.5 188.91,-403.5 245.88,-403.5 245.88,-385.5 188.91,-385.5"/>
<text text-anchor="middle" x="217.39" y="-391.5" font-family="Helvetica,sans-Serif" font-size="10.00">txbuffer.h</text>
</a>
</g>
</g>
<!-- Node5&#45;&gt;Node6 -->
<g id="edge5" class="edge">
<title>Node5&#45;&gt;Node6</title>
<path fill="none" stroke="midnightblue" d="M219.92,-440.22C219.52,-433.18 218.94,-422.81 218.43,-413.83"/>
<polygon fill="midnightblue" stroke="midnightblue" points="221.91,-413.34 217.85,-403.55 214.92,-413.73 221.91,-413.34"/>
</g>
<!-- Node7 -->
<g id="node7" class="node">
<title>Node7</title>
<g id="a_node7"><a xlink:href="../../d1/d9e/txid_8h.html" target="_top" xlink:title=" ">
<polygon fill="white" stroke="black" points="84.44,-275.5 84.44,-293.5 124.34,-293.5 124.34,-275.5 84.44,-275.5"/>
<text text-anchor="middle" x="104.39" y="-281.5" font-family="Helvetica,sans-Serif" font-size="10.00">txid.h</text>
</a>
</g>
</g>
<!-- Node6&#45;&gt;Node7 -->
<g id="edge6" class="edge">
<title>Node6&#45;&gt;Node7</title>
<path fill="none" stroke="midnightblue" d="M188.89,-386.73C167.96,-380.34 140.33,-368.72 123.39,-349 112.5,-336.32 107.85,-317.57 105.87,-303.73"/>
<polygon fill="midnightblue" stroke="midnightblue" points="109.31,-303.07 104.75,-293.51 102.35,-303.83 109.31,-303.07"/>
</g>
<!-- Node14 -->
<g id="node14" class="node">
<title>Node14</title>
<g id="a_node14"><a xlink:href="../../d9/d18/txscaled_8h.html" target="_top" xlink:title=" ">
<polygon fill="white" stroke="black" points="256.88,-330.5 256.88,-348.5 317.9,-348.5 317.9,-330.5 256.88,-330.5"/>
<text text-anchor="middle" x="287.39" y="-336.5" font-family="Helvetica,sans-Serif" font-size="10.00">txscaled.h</text>
</a>
</g>
</g>
<!-- Node6&#45;&gt;Node14 -->
<g id="edge13" class="edge">
<title>Node6&#45;&gt;Node14</title>
<path fill="none" stroke="midnightblue" d="M228.02,-385.45C238.71,-377.36 255.42,-364.7 268.4,-354.88"/>
<polygon fill="midnightblue" stroke="midnightblue" points="270.8,-357.45 276.66,-348.63 266.57,-351.87 270.8,-357.45"/>
</g>
<!-- Node22 -->
<g id="node22" class="node">
<title>Node22</title>
<g id="a_node22"><a xlink:title=" ">
<polygon fill="white" stroke="#bfbfbf" points="132.67,-330.5 132.67,-348.5 178.12,-348.5 178.12,-330.5 132.67,-330.5"/>
<text text-anchor="middle" x="155.39" y="-336.5" font-family="Helvetica,sans-Serif" font-size="10.00">cstring</text>
</a>
</g>
</g>
<!-- Node6&#45;&gt;Node22 -->
<g id="edge26" class="edge">
<title>Node6&#45;&gt;Node22</title>
<path fill="none" stroke="midnightblue" d="M207.98,-385.45C198.6,-377.43 183.99,-364.95 172.55,-355.17"/>
<polygon fill="midnightblue" stroke="midnightblue" points="174.77,-352.46 164.9,-348.63 170.22,-357.78 174.77,-352.46"/>
</g>
<!-- Node23 -->
<g id="node23" class="node">
<title>Node23</title>
<g id="a_node23"><a xlink:title=" ">
<polygon fill="white" stroke="#bfbfbf" points="195.78,-330.5 195.78,-348.5 239.01,-348.5 239.01,-330.5 195.78,-330.5"/>
<text text-anchor="middle" x="217.39" y="-336.5" font-family="Helvetica,sans-Serif" font-size="10.00">vector</text>
</a>
</g>
</g>
<!-- Node6&#45;&gt;Node23 -->
<g id="edge27" class="edge">
<title>Node6&#45;&gt;Node23</title>
<path fill="none" stroke="midnightblue" d="M217.39,-385.22C217.39,-378.18 217.39,-367.81 217.39,-358.83"/>
<polygon fill="midnightblue" stroke="midnightblue" points="220.89,-358.55 217.39,-348.55 213.89,-358.55 220.89,-358.55"/>
</g>
<!-- Node8 -->
<g id="node8" class="node">
<title>Node8</title>
<g id="a_node8"><a xlink:href="../../dc/de8/txvars_8h.html" target="_top" xlink:title=" ">
<polygon fill="white" stroke="black" points="170.89,-220.5 170.89,-238.5 221.9,-238.5 221.9,-220.5 170.89,-220.5"/>
<text text-anchor="middle" x="196.39" y="-226.5" font-family="Helvetica,sans-Serif" font-size="10.00">txvars.h</text>
</a>
</g>
</g>
<!-- Node7&#45;&gt;Node8 -->
<g id="edge7" class="edge">
<title>Node7&#45;&gt;Node8</title>
<path fill="none" stroke="midnightblue" d="M118.36,-275.45C132.95,-267.05 156.08,-253.72 173.37,-243.76"/>
<polygon fill="midnightblue" stroke="midnightblue" points="175.37,-246.65 182.29,-238.63 171.88,-240.58 175.37,-246.65"/>
</g>
<!-- Node13 -->
<g id="node13" class="node">
<title>Node13</title>
<g id="a_node13"><a xlink:title=" ">
<polygon fill="white" stroke="#bfbfbf" points="66.17,-165.5 66.17,-183.5 106.62,-183.5 106.62,-165.5 66.17,-165.5"/>
<text text-anchor="middle" x="86.39" y="-171.5" font-family="Helvetica,sans-Serif" font-size="10.00">string</text>
</a>
</g>
</g>
<!-- Node7&#45;&gt;Node13 -->
<g id="edge12" class="edge">
<title>Node7&#45;&gt;Node13</title>
<path fill="none" stroke="midnightblue" d="M103.04,-275.38C100.17,-258.18 93.42,-217.7 89.46,-193.89"/>
<polygon fill="midnightblue" stroke="midnightblue" points="92.86,-193 87.76,-183.71 85.95,-194.15 92.86,-193"/>
</g>
<!-- Node9 -->
<g id="node9" class="node">
<title>Node9</title>
<g id="a_node9"><a xlink:href="../../d0/d0b/enums_8h.html" target="_top" xlink:title=" ">
<polygon fill="white" stroke="black" points="248.77,-110.5 248.77,-128.5 332.01,-128.5 332.01,-110.5 248.77,-110.5"/>
<text text-anchor="middle" x="290.39" y="-116.5" font-family="Helvetica,sans-Serif" font-size="10.00">tralics/enums.h</text>
</a>
</g>
</g>
<!-- Node8&#45;&gt;Node9 -->
<g id="edge8" class="edge">
<title>Node8&#45;&gt;Node9</title>
<path fill="none" stroke="midnightblue" d="M203.46,-220.38C218.97,-202.56 256.25,-159.72 276.59,-136.36"/>
<polygon fill="midnightblue" stroke="midnightblue" points="279.32,-138.55 283.24,-128.71 274.04,-133.96 279.32,-138.55"/>
</g>
<!-- Node12 -->
<g id="node12" class="node">
<title>Node12</title>
<g id="a_node12"><a xlink:title=" ">
<polygon fill="white" stroke="#bfbfbf" points="0,-165.5 0,-183.5 38.78,-183.5 38.78,-165.5 0,-165.5"/>
<text text-anchor="middle" x="19.39" y="-171.5" font-family="Helvetica,sans-Serif" font-size="10.00">array</text>
</a>
</g>
</g>
<!-- Node8&#45;&gt;Node12 -->
<g id="edge11" class="edge">
<title>Node8&#45;&gt;Node12</title>
<path fill="none" stroke="midnightblue" d="M170.65,-220.79C138.24,-211.09 82.7,-194.46 48.69,-184.27"/>
<polygon fill="midnightblue" stroke="midnightblue" points="49.46,-180.85 38.88,-181.33 47.45,-187.56 49.46,-180.85"/>
</g>
<!-- Node10 -->
<g id="node10" class="node">
<title>Node10</title>
<g id="a_node10"><a xlink:href="../../d8/db5/consts_8h.html" target="_top" xlink:title=" ">
<polygon fill="white" stroke="black" points="270.77,-55.5 270.77,-73.5 324.01,-73.5 324.01,-55.5 270.77,-55.5"/>
<text text-anchor="middle" x="297.39" y="-61.5" font-family="Helvetica,sans-Serif" font-size="10.00">consts.h</text>
</a>
</g>
</g>
<!-- Node9&#45;&gt;Node10 -->
<g id="edge9" class="edge">
<title>Node9&#45;&gt;Node10</title>
<path fill="none" stroke="midnightblue" d="M291.49,-110.22C292.43,-103.1 293.82,-92.58 295.01,-83.53"/>
<polygon fill="midnightblue" stroke="midnightblue" points="298.49,-83.92 296.33,-73.55 291.55,-83.01 298.49,-83.92"/>
</g>
<!-- Node11 -->
<g id="node11" class="node">
<title>Node11</title>
<g id="a_node11"><a xlink:href="../../d9/d49/types_8h.html" target="_top" xlink:title=" ">
<polygon fill="white" stroke="black" points="312.27,-0.5 312.27,-18.5 360.51,-18.5 360.51,-0.5 312.27,-0.5"/>
<text text-anchor="middle" x="336.39" y="-6.5" font-family="Helvetica,sans-Serif" font-size="10.00">types.h</text>
</a>
</g>
</g>
<!-- Node10&#45;&gt;Node11 -->
<g id="edge10" class="edge">
<title>Node10&#45;&gt;Node11</title>
<path fill="none" stroke="midnightblue" d="M303.49,-55.22C309.07,-47.63 317.5,-36.18 324.43,-26.76"/>
<polygon fill="midnightblue" stroke="midnightblue" points="327.36,-28.68 330.47,-18.55 321.72,-24.53 327.36,-28.68"/>
</g>
<!-- Node15 -->
<g id="node15" class="node">
<title>Node15</title>
<g id="a_node15"><a xlink:href="../../dc/d91/txtokenlist_8h.html" target="_top" xlink:title=" ">
<polygon fill="white" stroke="black" points="245.99,-275.5 245.99,-293.5 314.79,-293.5 314.79,-275.5 245.99,-275.5"/>
<text text-anchor="middle" x="280.39" y="-281.5" font-family="Helvetica,sans-Serif" font-size="10.00">txtokenlist.h</text>
</a>
</g>
</g>
<!-- Node14&#45;&gt;Node15 -->
<g id="edge14" class="edge">
<title>Node14&#45;&gt;Node15</title>
<path fill="none" stroke="midnightblue" d="M286.3,-330.22C285.36,-323.1 283.97,-312.58 282.77,-303.53"/>
<polygon fill="midnightblue" stroke="midnightblue" points="286.23,-303.01 281.45,-293.55 279.29,-303.92 286.23,-303.01"/>
</g>
<!-- Node15&#45;&gt;Node8 -->
<g id="edge24" class="edge">
<title>Node15&#45;&gt;Node8</title>
<path fill="none" stroke="midnightblue" d="M267.63,-275.45C254.44,-267.12 233.59,-253.97 217.85,-244.04"/>
<polygon fill="midnightblue" stroke="midnightblue" points="219.59,-241 209.27,-238.63 215.86,-246.92 219.59,-241"/>
</g>
<!-- Node16 -->
<g id="node16" class="node">
<title>Node16</title>
<g id="a_node16"><a xlink:href="../../d5/daf/_istring_8h.html" target="_top" xlink:title=" ">
<polygon fill="white" stroke="black" points="240.16,-220.5 240.16,-238.5 320.62,-238.5 320.62,-220.5 240.16,-220.5"/>
<text text-anchor="middle" x="280.39" y="-226.5" font-family="Helvetica,sans-Serif" font-size="10.00">tralics/Istring.h</text>
</a>
</g>
</g>
<!-- Node15&#45;&gt;Node16 -->
<g id="edge15" class="edge">
<title>Node15&#45;&gt;Node16</title>
<path fill="none" stroke="midnightblue" d="M280.39,-275.22C280.39,-268.18 280.39,-257.81 280.39,-248.83"/>
<polygon fill="midnightblue" stroke="midnightblue" points="283.89,-248.55 280.39,-238.55 276.89,-248.55 283.89,-248.55"/>
</g>
<!-- Node17 -->
<g id="node17" class="node">
<title>Node17</title>
<g id="a_node17"><a xlink:href="../../dd/dcd/_token_8h.html" target="_top" xlink:title=" ">
<polygon fill="white" stroke="black" points="338.43,-220.5 338.43,-238.5 418.35,-238.5 418.35,-220.5 338.43,-220.5"/>
<text text-anchor="middle" x="378.39" y="-226.5" font-family="Helvetica,sans-Serif" font-size="10.00">tralics/Token.h</text>
</a>
</g>
</g>
<!-- Node15&#45;&gt;Node17 -->
<g id="edge18" class="edge">
<title>Node15&#45;&gt;Node17</title>
<path fill="none" stroke="midnightblue" d="M295.28,-275.45C310.96,-266.97 335.91,-253.48 354.38,-243.49"/>
<polygon fill="midnightblue" stroke="midnightblue" points="356.24,-246.46 363.37,-238.63 352.91,-240.3 356.24,-246.46"/>
</g>
<!-- Node21 -->
<g id="node21" class="node">
<title>Node21</title>
<g id="a_node21"><a xlink:title=" ">
<polygon fill="white" stroke="#bfbfbf" points="114,-220.5 114,-238.5 152.78,-238.5 152.78,-220.5 114,-220.5"/>
<text text-anchor="middle" x="133.39" y="-226.5" font-family="Helvetica,sans-Serif" font-size="10.00">utility</text>
</a>
</g>
</g>
<!-- Node15&#45;&gt;Node21 -->
<g id="edge25" class="edge">
<title>Node15&#45;&gt;Node21</title>
<path fill="none" stroke="midnightblue" d="M258.07,-275.45C232.6,-266.27 190.86,-251.22 162.77,-241.09"/>
<polygon fill="midnightblue" stroke="midnightblue" points="163.69,-237.7 153.1,-237.6 161.32,-244.29 163.69,-237.7"/>
</g>
<!-- Node16&#45;&gt;Node9 -->
<g id="edge16" class="edge">
<title>Node16&#45;&gt;Node9</title>
<path fill="none" stroke="midnightblue" d="M281.14,-220.38C282.74,-203.18 286.48,-162.7 288.69,-138.89"/>
<polygon fill="midnightblue" stroke="midnightblue" points="292.19,-138.99 289.63,-128.71 285.22,-138.35 292.19,-138.99"/>
</g>
<!-- Node16&#45;&gt;Node13 -->
<g id="edge17" class="edge">
<title>Node16&#45;&gt;Node13</title>
<path fill="none" stroke="midnightblue" d="M250.93,-220.45C214.75,-210.57 153.69,-193.89 117,-183.86"/>
<polygon fill="midnightblue" stroke="midnightblue" points="117.46,-180.36 106.89,-181.1 115.61,-187.11 117.46,-180.36"/>
</g>
<!-- Node18 -->
<g id="node18" class="node">
<title>Node18</title>
<g id="a_node18"><a xlink:href="../../d2/d68/_cmd_chr_8h.html" target="_top" xlink:title=" ">
<polygon fill="white" stroke="black" points="351.88,-165.5 351.88,-183.5 412.9,-183.5 412.9,-165.5 351.88,-165.5"/>
<text text-anchor="middle" x="382.39" y="-171.5" font-family="Helvetica,sans-Serif" font-size="10.00">CmdChr.h</text>
</a>
</g>
</g>
<!-- Node17&#45;&gt;Node18 -->
<g id="edge19" class="edge">
<title>Node17&#45;&gt;Node18</title>
<path fill="none" stroke="midnightblue" d="M379.02,-220.22C379.55,-213.1 380.35,-202.58 381.03,-193.53"/>
<polygon fill="midnightblue" stroke="midnightblue" points="384.52,-193.78 381.78,-183.55 377.54,-193.26 384.52,-193.78"/>
</g>
<!-- Node20 -->
<g id="node20" class="node">
<title>Node20</title>
<g id="a_node20"><a xlink:title=" ">
<polygon fill="white" stroke="#bfbfbf" points="304.89,-165.5 304.89,-183.5 333.89,-183.5 333.89,-165.5 304.89,-165.5"/>
<text text-anchor="middle" x="319" y="-171.5" font-family="Helvetica,sans-Serif" font-size="10.00">list</text>
</a>
</g>
</g>
<!-- Node17&#45;&gt;Node20 -->
<g id="edge23" class="edge">
<title>Node17&#45;&gt;Node20</title>
<path fill="none" stroke="midnightblue" d="M369.43,-220.45C360.59,-212.51 346.88,-200.19 336.04,-190.45"/>
<polygon fill="midnightblue" stroke="midnightblue" points="338.21,-187.7 328.44,-183.63 333.54,-192.91 338.21,-187.7"/>
</g>
<!-- Node18&#45;&gt;Node9 -->
<g id="edge22" class="edge">
<title>Node18&#45;&gt;Node9</title>
<path fill="none" stroke="midnightblue" d="M368.42,-165.45C353.83,-157.05 330.71,-143.72 313.41,-133.76"/>
<polygon fill="midnightblue" stroke="midnightblue" points="314.91,-130.58 304.5,-128.63 311.41,-136.65 314.91,-130.58"/>
</g>
<!-- Node19 -->
<g id="node19" class="node">
<title>Node19</title>
<g id="a_node19"><a xlink:href="../../d8/d47/codepoint_8h.html" target="_top" xlink:title=" ">
<polygon fill="white" stroke="black" points="344.54,-55.5 344.54,-73.5 412.25,-73.5 412.25,-55.5 344.54,-55.5"/>
<text text-anchor="middle" x="378.39" y="-61.5" font-family="Helvetica,sans-Serif" font-size="10.00">codepoint.h</text>
</a>
</g>
</g>
<!-- Node18&#45;&gt;Node19 -->
<g id="edge20" class="edge">
<title>Node18&#45;&gt;Node19</title>
<path fill="none" stroke="midnightblue" d="M382.09,-165.38C381.45,-148.18 379.95,-107.7 379.07,-83.89"/>
<polygon fill="midnightblue" stroke="midnightblue" points="382.56,-83.58 378.7,-73.71 375.57,-83.83 382.56,-83.58"/>
</g>
<!-- Node19&#45;&gt;Node11 -->
<g id="edge21" class="edge">
<title>Node19&#45;&gt;Node11</title>
<path fill="none" stroke="midnightblue" d="M371.83,-55.22C365.75,-47.55 356.55,-35.94 349.05,-26.47"/>
<polygon fill="midnightblue" stroke="midnightblue" points="351.72,-24.21 342.77,-18.55 346.24,-28.56 351.72,-24.21"/>
</g>
<!-- Node27 -->
<g id="node27" class="node">
<title>Node27</title>
<g id="a_node27"><a xlink:href="../../de/d29/txio_8h.html" target="_top" xlink:title=" ">
<polygon fill="white" stroke="black" points="20.44,-275.5 20.44,-293.5 60.34,-293.5 60.34,-275.5 20.44,-275.5"/>
<text text-anchor="middle" x="40.39" y="-281.5" font-family="Helvetica,sans-Serif" font-size="10.00">txio.h</text>
</a>
</g>
</g>
<!-- Node26&#45;&gt;Node27 -->
<g id="edge31" class="edge">
<title>Node26&#45;&gt;Node27</title>
<path fill="none" stroke="midnightblue" d="M47.61,-550.49C41.69,-532.72 28.39,-488.58 28.39,-450.5 28.39,-450.5 28.39,-450.5 28.39,-393.5 28.39,-361.68 33.6,-324.9 37.16,-303.52"/>
<polygon fill="midnightblue" stroke="midnightblue" points="40.62,-304.04 38.87,-293.59 33.72,-302.85 40.62,-304.04"/>
</g>
<!-- Node27&#45;&gt;Node12 -->
<g id="edge32" class="edge">
<title>Node27&#45;&gt;Node12</title>
<path fill="none" stroke="midnightblue" d="M38.81,-275.38C35.45,-258.1 27.53,-217.33 22.9,-193.56"/>
<polygon fill="midnightblue" stroke="midnightblue" points="26.33,-192.86 20.99,-183.71 19.46,-194.2 26.33,-192.86"/>
</g>
<!-- Node27&#45;&gt;Node13 -->
<g id="edge33" class="edge">
<title>Node27&#45;&gt;Node13</title>
<path fill="none" stroke="midnightblue" d="M43.85,-275.38C51.28,-257.95 68.89,-216.59 78.97,-192.92"/>
<polygon fill="midnightblue" stroke="midnightblue" points="82.2,-194.28 82.89,-183.71 75.76,-191.54 82.2,-194.28"/>
</g>
<!-- Node27&#45;&gt;Node21 -->
<g id="edge34" class="edge">
<title>Node27&#45;&gt;Node21</title>
<path fill="none" stroke="midnightblue" d="M54.52,-275.45C69.26,-267.05 92.64,-253.72 110.12,-243.76"/>
<polygon fill="midnightblue" stroke="midnightblue" points="112.18,-246.62 119.13,-238.63 108.71,-240.54 112.18,-246.62"/>
</g>
</g>
</svg>
