<?xml version="1.0" encoding="UTF-8" standalone="no"?>
<!DOCTYPE svg PUBLIC "-//W3C//DTD SVG 1.1//EN"
 "http://www.w3.org/Graphics/SVG/1.1/DTD/svg11.dtd">
<!-- Generated by graphviz version 2.43.0 (0)
 -->
<!-- Title: BibEntry Pages: 1 -->
<svg width="295pt" height="335pt"
 viewBox="0.00 0.00 295.35 335.00" xmlns="http://www.w3.org/2000/svg" xmlns:xlink="http://www.w3.org/1999/xlink">
<g id="graph0" class="graph" transform="scale(1 1) rotate(0) translate(4 331)">
<title>BibEntry</title>
<polygon fill="white" stroke="transparent" points="-4,4 -4,-331 291.35,-331 291.35,4 -4,4"/>
<!-- Node1 -->
<g id="node1" class="node">
<title>Node1</title>
<g id="a_node1"><a xlink:title=" ">
<polygon fill="#bfbfbf" stroke="black" points="119.84,-1 119.84,-19 173.63,-19 173.63,-1 119.84,-1"/>
<text text-anchor="middle" x="146.73" y="-7" font-family="Helvetica,sans-Serif" font-size="10.00">BibEntry</text>
</a>
</g>
</g>
<!-- Node1&#45;&gt;Node1 -->
<g id="edge1" class="edge">
<title>Node1&#45;&gt;Node1</title>
<path fill="none" stroke="#9a32cd" stroke-dasharray="5,2" d="M184.16,-16.14C188.67,-15.03 191.63,-12.98 191.63,-10 191.63,-5.1 183.67,-2.73 173.91,-2.88"/>
<polygon fill="#9a32cd" stroke="#9a32cd" points="183.53,-12.68 173.91,-17.12 184.2,-19.65 183.53,-12.68"/>
<text text-anchor="middle" x="222.19" y="-12" font-family="Helvetica,sans-Serif" font-size="10.00"> crossref</text>
<text text-anchor="middle" x="222.19" y="-2" font-family="Helvetica,sans-Serif" font-size="10.00">crossref_from</text>
</g>
<!-- Node2 -->
<g id="node2" class="node">
<title>Node2</title>
<g id="a_node2"><a xlink:title="STL class.">
<polygon fill="white" stroke="#bfbfbf" points="72.06,-242.5 72.06,-260.5 131.41,-260.5 131.41,-242.5 72.06,-242.5"/>
<text text-anchor="middle" x="101.73" y="-248.5" font-family="Helvetica,sans-Serif" font-size="10.00">std::string</text>
</a>
</g>
</g>
<!-- Node2&#45;&gt;Node1 -->
<g id="edge2" class="edge">
<title>Node2&#45;&gt;Node1</title>
<path fill="none" stroke="#9a32cd" stroke-dasharray="5,2" d="M81.2,-236.36C59.38,-219.95 26.17,-190.67 12.37,-156 -0.77,-122.96 -6.52,-106.12 12.37,-76 35.84,-38.57 87.65,-22.17 119.64,-15.38"/>
<polygon fill="#9a32cd" stroke="#9a32cd" points="79.34,-239.34 89.49,-242.39 83.46,-233.68 79.34,-239.34"/>
<text text-anchor="middle" x="36.91" y="-148" font-family="Helvetica,sans-Serif" font-size="10.00"> sort_label</text>
<text text-anchor="middle" x="36.91" y="-138" font-family="Helvetica,sans-Serif" font-size="10.00">user_fields</text>
<text text-anchor="middle" x="36.91" y="-128" font-family="Helvetica,sans-Serif" font-size="10.00">lab1</text>
<text text-anchor="middle" x="36.91" y="-118" font-family="Helvetica,sans-Serif" font-size="10.00">lab2</text>
<text text-anchor="middle" x="36.91" y="-108" font-family="Helvetica,sans-Serif" font-size="10.00">lab3</text>
<text text-anchor="middle" x="36.91" y="-98" font-family="Helvetica,sans-Serif" font-size="10.00">all_fields</text>
<text text-anchor="middle" x="36.91" y="-88" font-family="Helvetica,sans-Serif" font-size="10.00">aux_label</text>
<text text-anchor="middle" x="36.91" y="-78" font-family="Helvetica,sans-Serif" font-size="10.00">label</text>
</g>
<!-- Node4 -->
<g id="node4" class="node">
<title>Node4</title>
<g id="a_node4"><a xlink:href="../../d1/d59/class_citation_key.html" target="_top" xlink:title=" ">
<polygon fill="white" stroke="black" points="70.16,-107 70.16,-125 137.3,-125 137.3,-107 70.16,-107"/>
<text text-anchor="middle" x="103.73" y="-113" font-family="Helvetica,sans-Serif" font-size="10.00">CitationKey</text>
</a>
</g>
</g>
<!-- Node2&#45;&gt;Node4 -->
<g id="edge5" class="edge">
<title>Node2&#45;&gt;Node4</title>
<path fill="none" stroke="#9a32cd" stroke-dasharray="5,2" d="M101.89,-232.2C102.04,-216.7 102.28,-193.9 102.59,-174 102.86,-156.58 103.3,-136.17 103.55,-125.12"/>
<polygon fill="#9a32cd" stroke="#9a32cd" points="98.39,-232.43 101.8,-242.46 105.39,-232.49 98.39,-232.43"/>
<text text-anchor="middle" x="134.8" y="-206" font-family="Helvetica,sans-Serif" font-size="10.00"> full_key</text>
<text text-anchor="middle" x="134.8" y="-196" font-family="Helvetica,sans-Serif" font-size="10.00">cite_key</text>
<text text-anchor="middle" x="134.8" y="-186" font-family="Helvetica,sans-Serif" font-size="10.00">lower_cite_key</text>
</g>
<!-- Node6 -->
<g id="node6" class="node">
<title>Node6</title>
<g id="a_node6"><a xlink:href="../../de/d3a/class_bibtex_name.html" target="_top" xlink:title=" ">
<polygon fill="white" stroke="black" points="155.5,-107 155.5,-125 225.97,-125 225.97,-107 155.5,-107"/>
<text text-anchor="middle" x="190.73" y="-113" font-family="Helvetica,sans-Serif" font-size="10.00">BibtexName</text>
</a>
</g>
</g>
<!-- Node2&#45;&gt;Node6 -->
<g id="edge8" class="edge">
<title>Node2&#45;&gt;Node6</title>
<path fill="none" stroke="#9a32cd" stroke-dasharray="5,2" d="M141.31,-242.12C151.55,-238.18 161.66,-232.42 168.73,-224 193.49,-194.52 192.82,-144.51 191.48,-125.07"/>
<polygon fill="#9a32cd" stroke="#9a32cd" points="139.94,-238.89 131.56,-245.36 142.15,-245.53 139.94,-238.89"/>
<text text-anchor="middle" x="213.19" y="-216" font-family="Helvetica,sans-Serif" font-size="10.00"> name_key</text>
<text text-anchor="middle" x="213.19" y="-206" font-family="Helvetica,sans-Serif" font-size="10.00">short_key</text>
<text text-anchor="middle" x="213.19" y="-196" font-family="Helvetica,sans-Serif" font-size="10.00">cnrs_key</text>
<text text-anchor="middle" x="213.19" y="-186" font-family="Helvetica,sans-Serif" font-size="10.00">long_key</text>
<text text-anchor="middle" x="213.19" y="-176" font-family="Helvetica,sans-Serif" font-size="10.00">value</text>
</g>
<!-- Node3 -->
<g id="node3" class="node">
<title>Node3</title>
<g id="a_node3"><a xlink:title="STL class.">
<polygon fill="white" stroke="#bfbfbf" points="54.68,-298.5 54.68,-326.5 148.78,-326.5 148.78,-298.5 54.68,-298.5"/>
<text text-anchor="start" x="62.68" y="-314.5" font-family="Helvetica,sans-Serif" font-size="10.00">std::basic_string&lt;</text>
<text text-anchor="middle" x="101.73" y="-304.5" font-family="Helvetica,sans-Serif" font-size="10.00"> char &gt;</text>
</a>
</g>
</g>
<!-- Node3&#45;&gt;Node2 -->
<g id="edge3" class="edge">
<title>Node3&#45;&gt;Node2</title>
<path fill="none" stroke="midnightblue" d="M101.73,-288.39C101.73,-278.59 101.73,-267.82 101.73,-260.65"/>
<polygon fill="midnightblue" stroke="midnightblue" points="98.23,-288.41 101.73,-298.41 105.23,-288.41 98.23,-288.41"/>
</g>
<!-- Node4&#45;&gt;Node1 -->
<g id="edge4" class="edge">
<title>Node4&#45;&gt;Node1</title>
<path fill="none" stroke="#9a32cd" stroke-dasharray="5,2" d="M103.33,-96.42C103.75,-80.08 106.28,-56.14 116.27,-38 120.5,-30.32 127.78,-23.75 134.16,-19.01"/>
<polygon fill="#9a32cd" stroke="#9a32cd" points="99.83,-96.78 103.33,-106.78 106.83,-96.78 99.83,-96.78"/>
<text text-anchor="middle" x="135.46" y="-45" font-family="Helvetica,sans-Serif" font-size="10.00"> cite_key</text>
</g>
<!-- Node5 -->
<g id="node5" class="node">
<title>Node5</title>
<g id="a_node5"><a xlink:href="../../dd/d4f/class_istring.html" target="_top" xlink:title=" ">
<polygon fill="white" stroke="black" points="244.12,-107 244.12,-125 287.35,-125 287.35,-107 244.12,-107"/>
<text text-anchor="middle" x="265.73" y="-113" font-family="Helvetica,sans-Serif" font-size="10.00">Istring</text>
</a>
</g>
</g>
<!-- Node5&#45;&gt;Node1 -->
<g id="edge6" class="edge">
<title>Node5&#45;&gt;Node1</title>
<path fill="none" stroke="#9a32cd" stroke-dasharray="5,2" d="M259.9,-96.98C253.41,-79.61 241.33,-53.71 222.73,-38 208.83,-26.25 189.44,-19.47 173.74,-15.65"/>
<polygon fill="#9a32cd" stroke="#9a32cd" points="256.63,-98.23 263.22,-106.53 263.24,-95.93 256.63,-98.23"/>
<text text-anchor="middle" x="262.81" y="-45" font-family="Helvetica,sans-Serif" font-size="10.00"> unique_id</text>
</g>
<!-- Node6&#45;&gt;Node1 -->
<g id="edge7" class="edge">
<title>Node6&#45;&gt;Node1</title>
<path fill="none" stroke="#9a32cd" stroke-dasharray="5,2" d="M183.27,-97.37C173.63,-74.59 157.25,-35.87 150.17,-19.12"/>
<polygon fill="#9a32cd" stroke="#9a32cd" points="180.16,-98.99 187.28,-106.84 186.61,-96.27 180.16,-98.99"/>
<text text-anchor="middle" x="192.42" y="-50" font-family="Helvetica,sans-Serif" font-size="10.00"> editor_data</text>
<text text-anchor="middle" x="192.42" y="-40" font-family="Helvetica,sans-Serif" font-size="10.00">author_data</text>
</g>
</g>
</svg>
