<?xml version="1.0" encoding="UTF-8" standalone="no"?>
<!DOCTYPE svg PUBLIC "-//W3C//DTD SVG 1.1//EN"
 "http://www.w3.org/Graphics/SVG/1.1/DTD/svg11.dtd">
<!-- Generated by graphviz version 2.42.3 (20191010.1750)
 -->
<!-- Title: BibEntry Pages: 1 -->
<svg width="426pt" height="325pt"
 viewBox="0.00 0.00 425.85 325.00" xmlns="http://www.w3.org/2000/svg" xmlns:xlink="http://www.w3.org/1999/xlink">
<g id="graph0" class="graph" transform="scale(1 1) rotate(0) translate(4 321)">
<title>BibEntry</title>
<!-- Node1 -->
<g id="node1" class="node">
<title>Node1</title>
<g id="a_node1"><a xlink:title=" ">
<polygon fill="#bfbfbf" stroke="black" points="207.33,-1 207.33,-19 261.13,-19 261.13,-1 207.33,-1"/>
<text text-anchor="middle" x="234.23" y="-7" font-family="Helvetica,sans-Serif" font-size="10.00">BibEntry</text>
</a>
</g>
</g>
<!-- Node1&#45;&gt;Node1 -->
<g id="edge1" class="edge">
<title>Node1&#45;&gt;Node1</title>
<path fill="none" stroke="#9a32cd" stroke-dasharray="5,2" d="M271.66,-16.14C276.17,-15.03 279.13,-12.98 279.13,-10 279.13,-5.1 271.17,-2.73 261.41,-2.88"/>
<polygon fill="#9a32cd" stroke="#9a32cd" points="271.03,-12.68 261.41,-17.12 271.7,-19.65 271.03,-12.68"/>
<text text-anchor="middle" x="309.69" y="-12" font-family="Helvetica,sans-Serif" font-size="10.00"> crossref</text>
<text text-anchor="middle" x="309.69" y="-2" font-family="Helvetica,sans-Serif" font-size="10.00">crossref_from</text>
</g>
<!-- Node2 -->
<g id="node2" class="node">
<title>Node2</title>
<g id="a_node2"><a xlink:title="STL class.">
<polygon fill="none" stroke="#bfbfbf" points="134.56,-232.5 134.56,-250.5 193.91,-250.5 193.91,-232.5 134.56,-232.5"/>
<text text-anchor="middle" x="164.23" y="-238.5" font-family="Helvetica,sans-Serif" font-size="10.00">std::string</text>
</a>
</g>
</g>
<!-- Node2&#45;&gt;Node1 -->
<g id="edge2" class="edge">
<title>Node2&#45;&gt;Node1</title>
<path fill="none" stroke="#9a32cd" stroke-dasharray="5,2" d="M126.77,-228.99C90.3,-215.56 36.97,-189.46 12.87,-146 -2.22,-118.79 -5.77,-100.91 12.87,-76 36.39,-44.58 153.65,-23.17 207.33,-14.86"/>
<polygon fill="#9a32cd" stroke="#9a32cd" points="125.97,-232.42 136.57,-232.45 128.3,-225.82 125.97,-232.42"/>
<text text-anchor="middle" x="37.41" y="-138" font-family="Helvetica,sans-Serif" font-size="10.00"> sort_label</text>
<text text-anchor="middle" x="37.41" y="-128" font-family="Helvetica,sans-Serif" font-size="10.00">user_fields</text>
<text text-anchor="middle" x="37.41" y="-118" font-family="Helvetica,sans-Serif" font-size="10.00">lab1</text>
<text text-anchor="middle" x="37.41" y="-108" font-family="Helvetica,sans-Serif" font-size="10.00">lab2</text>
<text text-anchor="middle" x="37.41" y="-98" font-family="Helvetica,sans-Serif" font-size="10.00">lab3</text>
<text text-anchor="middle" x="37.41" y="-88" font-family="Helvetica,sans-Serif" font-size="10.00">aux_label</text>
<text text-anchor="middle" x="37.41" y="-78" font-family="Helvetica,sans-Serif" font-size="10.00">label</text>
</g>
<!-- Node4 -->
<g id="node4" class="node">
<title>Node4</title>
<g id="a_node4"><a xlink:title=" ">
<polygon fill="none" stroke="#bfbfbf" points="70.02,-97 70.02,-125 182.44,-125 182.44,-97 70.02,-97"/>
<text text-anchor="start" x="78.02" y="-113" font-family="Helvetica,sans-Serif" font-size="10.00">std::array&lt; std::string,</text>
<text text-anchor="middle" x="126.23" y="-103" font-family="Helvetica,sans-Serif" font-size="10.00"> fp_unknown &gt;</text>
</a>
</g>
</g>
<!-- Node2&#45;&gt;Node4 -->
<g id="edge5" class="edge">
<title>Node2&#45;&gt;Node4</title>
<path fill="none" stroke="#9a32cd" stroke-dasharray="5,2" d="M155.51,-223C154.19,-220.04 152.93,-216.96 151.88,-214 140.82,-182.86 132.58,-144.76 128.7,-125.12"/>
<polygon fill="#9a32cd" stroke="#9a32cd" points="152.48,-224.78 159.92,-232.32 158.8,-221.78 152.48,-224.78"/>
<text text-anchor="middle" x="173.91" y="-186" font-family="Helvetica,sans-Serif" font-size="10.00"> elements</text>
</g>
<!-- Node5 -->
<g id="node5" class="node">
<title>Node5</title>
<g id="a_node5"><a xlink:href="../../d1/d59/class_citation_key.html" target="_top" xlink:title=" ">
<polygon fill="none" stroke="black" points="200.66,-102 200.66,-120 267.8,-120 267.8,-102 200.66,-102"/>
<text text-anchor="middle" x="234.23" y="-108" font-family="Helvetica,sans-Serif" font-size="10.00">CitationKey</text>
</a>
</g>
</g>
<!-- Node2&#45;&gt;Node5 -->
<g id="edge7" class="edge">
<title>Node2&#45;&gt;Node5</title>
<path fill="none" stroke="#9a32cd" stroke-dasharray="5,2" d="M184.44,-225.8C188.39,-222.26 192.23,-218.26 195.23,-214 217.09,-183.02 228.6,-138.19 232.59,-120.06"/>
<polygon fill="#9a32cd" stroke="#9a32cd" points="181.95,-223.31 176.42,-232.35 186.38,-228.73 181.95,-223.31"/>
<text text-anchor="middle" x="251.3" y="-196" font-family="Helvetica,sans-Serif" font-size="10.00"> full_key</text>
<text text-anchor="middle" x="251.3" y="-186" font-family="Helvetica,sans-Serif" font-size="10.00">cite_key</text>
<text text-anchor="middle" x="251.3" y="-176" font-family="Helvetica,sans-Serif" font-size="10.00">lower_cite_key</text>
</g>
<!-- Node7 -->
<g id="node7" class="node">
<title>Node7</title>
<g id="a_node7"><a xlink:href="../../de/d3a/class_bibtex_name.html" target="_top" xlink:title=" ">
<polygon fill="none" stroke="black" points="286,-102 286,-120 356.47,-120 356.47,-102 286,-102"/>
<text text-anchor="middle" x="321.23" y="-108" font-family="Helvetica,sans-Serif" font-size="10.00">BibtexName</text>
</a>
</g>
</g>
<!-- Node2&#45;&gt;Node7 -->
<g id="edge10" class="edge">
<title>Node2&#45;&gt;Node7</title>
<path fill="none" stroke="#9a32cd" stroke-dasharray="5,2" d="M204.36,-236.29C235.73,-232.22 276.01,-225.03 288.23,-214 316.28,-188.69 320.6,-139.38 321.18,-120.05"/>
<polygon fill="#9a32cd" stroke="#9a32cd" points="203.61,-232.85 194.11,-237.55 204.47,-239.8 203.61,-232.85"/>
<text text-anchor="middle" x="338.69" y="-206" font-family="Helvetica,sans-Serif" font-size="10.00"> name_key</text>
<text text-anchor="middle" x="338.69" y="-196" font-family="Helvetica,sans-Serif" font-size="10.00">short_key</text>
<text text-anchor="middle" x="338.69" y="-186" font-family="Helvetica,sans-Serif" font-size="10.00">cnrs_key</text>
<text text-anchor="middle" x="338.69" y="-176" font-family="Helvetica,sans-Serif" font-size="10.00">long_key</text>
<text text-anchor="middle" x="338.69" y="-166" font-family="Helvetica,sans-Serif" font-size="10.00">value</text>
</g>
<!-- Node3 -->
<g id="node3" class="node">
<title>Node3</title>
<g id="a_node3"><a xlink:title="STL class.">
<polygon fill="none" stroke="#bfbfbf" points="117.18,-288.5 117.18,-316.5 211.28,-316.5 211.28,-288.5 117.18,-288.5"/>
<text text-anchor="start" x="125.18" y="-304.5" font-family="Helvetica,sans-Serif" font-size="10.00">std::basic_string&lt;</text>
<text text-anchor="middle" x="164.23" y="-294.5" font-family="Helvetica,sans-Serif" font-size="10.00"> char &gt;</text>
</a>
</g>
</g>
<!-- Node3&#45;&gt;Node2 -->
<g id="edge3" class="edge">
<title>Node3&#45;&gt;Node2</title>
<path fill="none" stroke="midnightblue" d="M164.23,-278.39C164.23,-268.59 164.23,-257.82 164.23,-250.65"/>
<polygon fill="midnightblue" stroke="midnightblue" points="160.73,-278.41 164.23,-288.41 167.73,-278.41 160.73,-278.41"/>
</g>
<!-- Node4&#45;&gt;Node1 -->
<g id="edge4" class="edge">
<title>Node4&#45;&gt;Node1</title>
<path fill="none" stroke="#9a32cd" stroke-dasharray="5,2" d="M141.76,-88.6C153.5,-73.34 170.61,-52.97 188.54,-38 197.45,-30.56 208.66,-23.9 217.75,-19.06"/>
<polygon fill="#9a32cd" stroke="#9a32cd" points="138.72,-86.81 135.5,-96.91 144.31,-91.02 138.72,-86.81"/>
<text text-anchor="middle" x="209.08" y="-45" font-family="Helvetica,sans-Serif" font-size="10.00"> all_fields</text>
</g>
<!-- Node5&#45;&gt;Node1 -->
<g id="edge6" class="edge">
<title>Node5&#45;&gt;Node1</title>
<path fill="none" stroke="#9a32cd" stroke-dasharray="5,2" d="M234.23,-91.73C234.23,-70.11 234.23,-35.04 234.23,-19.21"/>
<polygon fill="#9a32cd" stroke="#9a32cd" points="230.73,-91.9 234.23,-101.9 237.73,-91.9 230.73,-91.9"/>
<text text-anchor="middle" x="253.96" y="-45" font-family="Helvetica,sans-Serif" font-size="10.00"> cite_key</text>
</g>
<!-- Node6 -->
<g id="node6" class="node">
<title>Node6</title>
<g id="a_node6"><a xlink:href="../../d9/d20/struct_istring.html" target="_top" xlink:title=" ">
<polygon fill="none" stroke="black" points="374.62,-102 374.62,-120 417.85,-120 417.85,-102 374.62,-102"/>
<text text-anchor="middle" x="396.23" y="-108" font-family="Helvetica,sans-Serif" font-size="10.00">Istring</text>
</a>
</g>
</g>
<!-- Node6&#45;&gt;Node1 -->
<g id="edge8" class="edge">
<title>Node6&#45;&gt;Node1</title>
<path fill="none" stroke="#9a32cd" stroke-dasharray="5,2" d="M389.51,-92.22C382.32,-75.63 369.31,-51.49 350.23,-38 323.89,-19.38 286.58,-13.42 261.45,-11.62"/>
<polygon fill="#9a32cd" stroke="#9a32cd" points="386.41,-93.88 393.4,-101.83 392.9,-91.25 386.41,-93.88"/>
<text text-anchor="middle" x="392.31" y="-45" font-family="Helvetica,sans-Serif" font-size="10.00"> unique_id</text>
</g>
<!-- Node7&#45;&gt;Node1 -->
<g id="edge9" class="edge">
<title>Node7&#45;&gt;Node1</title>
<path fill="none" stroke="#9a32cd" stroke-dasharray="5,2" d="M313.43,-92.53C305.82,-76.91 293.11,-54.07 277.23,-38 269.67,-30.35 259.55,-23.86 251.03,-19.16"/>
<polygon fill="#9a32cd" stroke="#9a32cd" points="310.26,-94.03 317.66,-101.61 316.6,-91.06 310.26,-94.03"/>
<text text-anchor="middle" x="319.92" y="-50" font-family="Helvetica,sans-Serif" font-size="10.00"> editor_data</text>
<text text-anchor="middle" x="319.92" y="-40" font-family="Helvetica,sans-Serif" font-size="10.00">author_data</text>
</g>
</g>
</svg>
