<?xml version="1.0" encoding="UTF-8" standalone="no"?>
<!DOCTYPE svg PUBLIC "-//W3C//DTD SVG 1.1//EN"
 "http://www.w3.org/Graphics/SVG/1.1/DTD/svg11.dtd">
<!-- Generated by graphviz version 2.42.3 (20191010.1750)
 -->
<!-- Title: globals.cpp Pages: 1 -->
<svg width="752pt" height="742pt"
 viewBox="0.00 0.00 751.90 742.00" xmlns="http://www.w3.org/2000/svg" xmlns:xlink="http://www.w3.org/1999/xlink">
<g id="graph0" class="graph" transform="scale(1 1) rotate(0) translate(4 738)">
<title>globals.cpp</title>
<!-- Node1 -->
<g id="node1" class="node">
<title>Node1</title>
<g id="a_node1"><a xlink:title=" ">
<polygon fill="#bfbfbf" stroke="black" points="102.7,-715.5 102.7,-733.5 169.3,-733.5 169.3,-715.5 102.7,-715.5"/>
<text text-anchor="middle" x="136" y="-721.5" font-family="Helvetica,sans-Serif" font-size="10.00">globals.cpp</text>
</a>
</g>
</g>
<!-- Node2 -->
<g id="node2" class="node">
<title>Node2</title>
<g id="a_node2"><a xlink:href="../../d5/d87/globals_8h.html" target="_top" xlink:title=" ">
<polygon fill="none" stroke="black" points="345.54,-275.5 345.54,-293.5 430.46,-293.5 430.46,-275.5 345.54,-275.5"/>
<text text-anchor="middle" x="388" y="-281.5" font-family="Helvetica,sans-Serif" font-size="10.00">tralics/globals.h</text>
</a>
</g>
</g>
<!-- Node1&#45;&gt;Node2 -->
<g id="edge1" class="edge">
<title>Node1&#45;&gt;Node2</title>
<path fill="none" stroke="midnightblue" d="M108.48,-715.4C68.74,-701.81 0,-670.37 0,-615.5 0,-615.5 0,-615.5 0,-393.5 0,-359.08 229.53,-313.72 335.51,-294.61"/>
<polygon fill="midnightblue" stroke="midnightblue" points="336.14,-298.05 345.37,-292.84 334.91,-291.16 336.14,-298.05"/>
</g>
<!-- Node14 -->
<g id="node14" class="node">
<title>Node14</title>
<g id="a_node14"><a xlink:href="../../d7/d79/txinline_8h.html" target="_top" xlink:title=" ">
<polygon fill="none" stroke="black" points="108.27,-660.5 108.27,-678.5 163.73,-678.5 163.73,-660.5 108.27,-660.5"/>
<text text-anchor="middle" x="136" y="-666.5" font-family="Helvetica,sans-Serif" font-size="10.00">txinline.h</text>
</a>
</g>
</g>
<!-- Node1&#45;&gt;Node14 -->
<g id="edge14" class="edge">
<title>Node1&#45;&gt;Node14</title>
<path fill="none" stroke="midnightblue" d="M136,-715.22C136,-708.18 136,-697.81 136,-688.83"/>
<polygon fill="midnightblue" stroke="midnightblue" points="139.5,-688.55 136,-678.55 132.5,-688.55 139.5,-688.55"/>
</g>
<!-- Node32 -->
<g id="node32" class="node">
<title>Node32</title>
<g id="a_node32"><a xlink:href="../../d2/d1b/txparser_8h.html" target="_top" xlink:title=" ">
<polygon fill="none" stroke="black" points="430.04,-660.5 430.04,-678.5 489.96,-678.5 489.96,-660.5 430.04,-660.5"/>
<text text-anchor="middle" x="460" y="-666.5" font-family="Helvetica,sans-Serif" font-size="10.00">txparser.h</text>
</a>
</g>
</g>
<!-- Node1&#45;&gt;Node32 -->
<g id="edge42" class="edge">
<title>Node1&#45;&gt;Node32</title>
<path fill="none" stroke="midnightblue" d="M169.45,-718.03C229.34,-708.23 354.63,-687.74 419.35,-677.15"/>
<polygon fill="midnightblue" stroke="midnightblue" points="420.28,-680.54 429.58,-675.48 419.15,-673.64 420.28,-680.54"/>
</g>
<!-- Node3 -->
<g id="node3" class="node">
<title>Node3</title>
<g id="a_node3"><a xlink:href="../../d8/d47/codepoint_8h.html" target="_top" xlink:title=" ">
<polygon fill="none" stroke="black" points="284.15,-165.5 284.15,-183.5 351.85,-183.5 351.85,-165.5 284.15,-165.5"/>
<text text-anchor="middle" x="318" y="-171.5" font-family="Helvetica,sans-Serif" font-size="10.00">codepoint.h</text>
</a>
</g>
</g>
<!-- Node2&#45;&gt;Node3 -->
<g id="edge2" class="edge">
<title>Node2&#45;&gt;Node3</title>
<path fill="none" stroke="midnightblue" d="M350.11,-275.38C330.35,-269.02 307.88,-257.94 296,-239 286.83,-224.38 295.6,-205.47 304.64,-192.09"/>
<polygon fill="midnightblue" stroke="midnightblue" points="307.6,-193.97 310.72,-183.84 301.97,-189.81 307.6,-193.97"/>
</g>
<!-- Node9 -->
<g id="node9" class="node">
<title>Node9</title>
<g id="a_node9"><a xlink:href="../../d0/d0b/enums_8h.html" target="_top" xlink:title=" ">
<polygon fill="none" stroke="black" points="384.82,-165.5 384.82,-183.5 439.18,-183.5 439.18,-165.5 384.82,-165.5"/>
<text text-anchor="middle" x="412" y="-171.5" font-family="Helvetica,sans-Serif" font-size="10.00">enums.h</text>
</a>
</g>
</g>
<!-- Node2&#45;&gt;Node9 -->
<g id="edge8" class="edge">
<title>Node2&#45;&gt;Node9</title>
<path fill="none" stroke="midnightblue" d="M389.8,-275.38C393.64,-258.1 402.7,-217.33 407.99,-193.56"/>
<polygon fill="midnightblue" stroke="midnightblue" points="411.42,-194.23 410.18,-183.71 404.59,-192.71 411.42,-194.23"/>
</g>
<!-- Node11 -->
<g id="node11" class="node">
<title>Node11</title>
<g id="a_node11"><a xlink:title=" ">
<polygon fill="none" stroke="#bfbfbf" points="422.61,-220.5 422.61,-238.5 461.39,-238.5 461.39,-220.5 422.61,-220.5"/>
<text text-anchor="middle" x="442" y="-226.5" font-family="Helvetica,sans-Serif" font-size="10.00">array</text>
</a>
</g>
</g>
<!-- Node2&#45;&gt;Node11 -->
<g id="edge11" class="edge">
<title>Node2&#45;&gt;Node11</title>
<path fill="none" stroke="midnightblue" d="M396.44,-275.22C404.49,-267.32 416.81,-255.22 426.61,-245.61"/>
<polygon fill="midnightblue" stroke="midnightblue" points="429.11,-248.05 433.8,-238.55 424.21,-243.06 429.11,-248.05"/>
</g>
<!-- Node12 -->
<g id="node12" class="node">
<title>Node12</title>
<g id="a_node12"><a xlink:title=" ">
<polygon fill="none" stroke="#bfbfbf" points="516.77,-220.5 516.77,-238.5 557.23,-238.5 557.23,-220.5 516.77,-220.5"/>
<text text-anchor="middle" x="537" y="-226.5" font-family="Helvetica,sans-Serif" font-size="10.00">string</text>
</a>
</g>
</g>
<!-- Node2&#45;&gt;Node12 -->
<g id="edge12" class="edge">
<title>Node2&#45;&gt;Node12</title>
<path fill="none" stroke="midnightblue" d="M410.63,-275.45C436.41,-266.28 478.64,-251.26 507.11,-241.13"/>
<polygon fill="midnightblue" stroke="midnightblue" points="508.31,-244.42 516.56,-237.77 505.96,-237.83 508.31,-244.42"/>
</g>
<!-- Node13 -->
<g id="node13" class="node">
<title>Node13</title>
<g id="a_node13"><a xlink:title=" ">
<polygon fill="none" stroke="#bfbfbf" points="640.38,-220.5 640.38,-238.5 683.62,-238.5 683.62,-220.5 640.38,-220.5"/>
<text text-anchor="middle" x="662" y="-226.5" font-family="Helvetica,sans-Serif" font-size="10.00">vector</text>
</a>
</g>
</g>
<!-- Node2&#45;&gt;Node13 -->
<g id="edge13" class="edge">
<title>Node2&#45;&gt;Node13</title>
<path fill="none" stroke="midnightblue" d="M429.61,-275.45C484.68,-264.8 580.57,-246.25 630.2,-236.65"/>
<polygon fill="midnightblue" stroke="midnightblue" points="630.91,-240.08 640.06,-234.74 629.58,-233.21 630.91,-240.08"/>
</g>
<!-- Node4 -->
<g id="node4" class="node">
<title>Node4</title>
<g id="a_node4"><a xlink:href="../../d9/d49/types_8h.html" target="_top" xlink:title=" ">
<polygon fill="none" stroke="black" points="359.88,-55.5 359.88,-73.5 408.12,-73.5 408.12,-55.5 359.88,-55.5"/>
<text text-anchor="middle" x="384" y="-61.5" font-family="Helvetica,sans-Serif" font-size="10.00">types.h</text>
</a>
</g>
</g>
<!-- Node3&#45;&gt;Node4 -->
<g id="edge3" class="edge">
<title>Node3&#45;&gt;Node4</title>
<path fill="none" stroke="midnightblue" d="M322.96,-165.38C333.71,-147.79 359.34,-105.85 373.74,-82.29"/>
<polygon fill="midnightblue" stroke="midnightblue" points="376.75,-84.07 378.98,-73.71 370.78,-80.42 376.75,-84.07"/>
</g>
<!-- Node8 -->
<g id="node8" class="node">
<title>Node8</title>
<g id="a_node8"><a xlink:title=" ">
<polygon fill="none" stroke="#bfbfbf" points="277.49,-110.5 277.49,-128.5 328.51,-128.5 328.51,-110.5 277.49,-110.5"/>
<text text-anchor="middle" x="303" y="-116.5" font-family="Helvetica,sans-Serif" font-size="10.00">optional</text>
</a>
</g>
</g>
<!-- Node3&#45;&gt;Node8 -->
<g id="edge7" class="edge">
<title>Node3&#45;&gt;Node8</title>
<path fill="none" stroke="midnightblue" d="M315.66,-165.22C313.62,-158.02 310.6,-147.35 308.02,-138.23"/>
<polygon fill="midnightblue" stroke="midnightblue" points="311.37,-137.22 305.28,-128.55 304.63,-139.12 311.37,-137.22"/>
</g>
<!-- Node5 -->
<g id="node5" class="node">
<title>Node5</title>
<g id="a_node5"><a xlink:title=" ">
<polygon fill="none" stroke="#bfbfbf" points="293.88,-0.5 293.88,-18.5 342.12,-18.5 342.12,-0.5 293.88,-0.5"/>
<text text-anchor="middle" x="318" y="-6.5" font-family="Helvetica,sans-Serif" font-size="10.00">cassert</text>
</a>
</g>
</g>
<!-- Node4&#45;&gt;Node5 -->
<g id="edge4" class="edge">
<title>Node4&#45;&gt;Node5</title>
<path fill="none" stroke="midnightblue" d="M373.98,-55.45C363.99,-47.43 348.44,-34.95 336.26,-25.17"/>
<polygon fill="midnightblue" stroke="midnightblue" points="338.11,-22.16 328.12,-18.63 333.72,-27.62 338.11,-22.16"/>
</g>
<!-- Node6 -->
<g id="node6" class="node">
<title>Node6</title>
<g id="a_node6"><a xlink:title=" ">
<polygon fill="none" stroke="#bfbfbf" points="359.88,-0.5 359.88,-18.5 408.12,-18.5 408.12,-0.5 359.88,-0.5"/>
<text text-anchor="middle" x="384" y="-6.5" font-family="Helvetica,sans-Serif" font-size="10.00">cstddef</text>
</a>
</g>
</g>
<!-- Node4&#45;&gt;Node6 -->
<g id="edge5" class="edge">
<title>Node4&#45;&gt;Node6</title>
<path fill="none" stroke="midnightblue" d="M384,-55.22C384,-48.18 384,-37.81 384,-28.83"/>
<polygon fill="midnightblue" stroke="midnightblue" points="387.5,-28.55 384,-18.55 380.5,-28.55 387.5,-28.55"/>
</g>
<!-- Node7 -->
<g id="node7" class="node">
<title>Node7</title>
<g id="a_node7"><a xlink:title=" ">
<polygon fill="none" stroke="#bfbfbf" points="425.93,-0.5 425.93,-18.5 488.07,-18.5 488.07,-0.5 425.93,-0.5"/>
<text text-anchor="middle" x="457" y="-6.5" font-family="Helvetica,sans-Serif" font-size="10.00">type_traits</text>
</a>
</g>
</g>
<!-- Node4&#45;&gt;Node7 -->
<g id="edge6" class="edge">
<title>Node4&#45;&gt;Node7</title>
<path fill="none" stroke="midnightblue" d="M395.09,-55.45C406.34,-47.28 424,-34.46 437.58,-24.6"/>
<polygon fill="midnightblue" stroke="midnightblue" points="439.77,-27.33 445.81,-18.63 435.66,-21.67 439.77,-27.33"/>
</g>
<!-- Node10 -->
<g id="node10" class="node">
<title>Node10</title>
<g id="a_node10"><a xlink:href="../../d8/db5/consts_8h.html" target="_top" xlink:title=" ">
<polygon fill="none" stroke="black" points="385.38,-110.5 385.38,-128.5 438.62,-128.5 438.62,-110.5 385.38,-110.5"/>
<text text-anchor="middle" x="412" y="-116.5" font-family="Helvetica,sans-Serif" font-size="10.00">consts.h</text>
</a>
</g>
</g>
<!-- Node9&#45;&gt;Node10 -->
<g id="edge9" class="edge">
<title>Node9&#45;&gt;Node10</title>
<path fill="none" stroke="midnightblue" d="M412,-165.22C412,-158.18 412,-147.81 412,-138.83"/>
<polygon fill="midnightblue" stroke="midnightblue" points="415.5,-138.55 412,-128.55 408.5,-138.55 415.5,-138.55"/>
</g>
<!-- Node10&#45;&gt;Node4 -->
<g id="edge10" class="edge">
<title>Node10&#45;&gt;Node4</title>
<path fill="none" stroke="midnightblue" d="M407.62,-110.22C403.74,-102.86 397.94,-91.88 393.05,-82.64"/>
<polygon fill="midnightblue" stroke="midnightblue" points="396.02,-80.76 388.25,-73.55 389.83,-84.03 396.02,-80.76"/>
</g>
<!-- Node15 -->
<g id="node15" class="node">
<title>Node15</title>
<g id="a_node15"><a xlink:href="../../d4/de9/_main_class_8h.html" target="_top" xlink:title=" ">
<polygon fill="none" stroke="black" points="222.04,-605.5 222.04,-623.5 321.96,-623.5 321.96,-605.5 222.04,-605.5"/>
<text text-anchor="middle" x="272" y="-611.5" font-family="Helvetica,sans-Serif" font-size="10.00">tralics/MainClass.h</text>
</a>
</g>
</g>
<!-- Node14&#45;&gt;Node15 -->
<g id="edge15" class="edge">
<title>Node14&#45;&gt;Node15</title>
<path fill="none" stroke="midnightblue" d="M156.66,-660.45C179.32,-651.62 215.92,-637.35 241.81,-627.27"/>
<polygon fill="midnightblue" stroke="midnightblue" points="243.1,-630.52 251.15,-623.63 240.56,-624 243.1,-630.52"/>
</g>
<!-- Node29 -->
<g id="node29" class="node">
<title>Node29</title>
<g id="a_node29"><a xlink:href="../../d2/d06/txlogger_8h.html" target="_top" xlink:title=" ">
<polygon fill="none" stroke="black" points="28.32,-605.5 28.32,-623.5 87.68,-623.5 87.68,-605.5 28.32,-605.5"/>
<text text-anchor="middle" x="58" y="-611.5" font-family="Helvetica,sans-Serif" font-size="10.00">txlogger.h</text>
</a>
</g>
</g>
<!-- Node14&#45;&gt;Node29 -->
<g id="edge37" class="edge">
<title>Node14&#45;&gt;Node29</title>
<path fill="none" stroke="midnightblue" d="M124.15,-660.45C112.01,-652.2 92.9,-639.22 78.34,-629.32"/>
<polygon fill="midnightblue" stroke="midnightblue" points="80.2,-626.35 69.96,-623.63 76.26,-632.14 80.2,-626.35"/>
</g>
<!-- Node31 -->
<g id="node31" class="node">
<title>Node31</title>
<g id="a_node31"><a xlink:href="../../d5/d08/txparam_8h.html" target="_top" xlink:title=" ">
<polygon fill="none" stroke="black" points="105.77,-605.5 105.77,-623.5 166.23,-623.5 166.23,-605.5 105.77,-605.5"/>
<text text-anchor="middle" x="136" y="-611.5" font-family="Helvetica,sans-Serif" font-size="10.00">txparam.h</text>
</a>
</g>
</g>
<!-- Node14&#45;&gt;Node31 -->
<g id="edge40" class="edge">
<title>Node14&#45;&gt;Node31</title>
<path fill="none" stroke="midnightblue" d="M136,-660.22C136,-653.18 136,-642.81 136,-633.83"/>
<polygon fill="midnightblue" stroke="midnightblue" points="139.5,-633.55 136,-623.55 132.5,-633.55 139.5,-633.55"/>
</g>
<!-- Node16 -->
<g id="node16" class="node">
<title>Node16</title>
<g id="a_node16"><a xlink:href="../../de/d29/txio_8h.html" target="_top" xlink:title=" ">
<polygon fill="none" stroke="black" points="169.88,-550.5 169.88,-568.5 218.12,-568.5 218.12,-550.5 169.88,-550.5"/>
<text text-anchor="middle" x="194" y="-556.5" font-family="Helvetica,sans-Serif" font-size="10.00">../txio.h</text>
</a>
</g>
</g>
<!-- Node15&#45;&gt;Node16 -->
<g id="edge16" class="edge">
<title>Node15&#45;&gt;Node16</title>
<path fill="none" stroke="midnightblue" d="M260.15,-605.45C248.01,-597.2 228.9,-584.22 214.34,-574.32"/>
<polygon fill="midnightblue" stroke="midnightblue" points="216.2,-571.35 205.96,-568.63 212.26,-577.14 216.2,-571.35"/>
</g>
<!-- Node28 -->
<g id="node28" class="node">
<title>Node28</title>
<g id="a_node28"><a xlink:href="../../dc/def/txstring_8h.html" target="_top" xlink:title=" ">
<polygon fill="none" stroke="black" points="405.55,-495.5 405.55,-513.5 470.45,-513.5 470.45,-495.5 405.55,-495.5"/>
<text text-anchor="middle" x="438" y="-501.5" font-family="Helvetica,sans-Serif" font-size="10.00">../txstring.h</text>
</a>
</g>
</g>
<!-- Node15&#45;&gt;Node28 -->
<g id="edge35" class="edge">
<title>Node15&#45;&gt;Node28</title>
<path fill="none" stroke="midnightblue" d="M277.8,-605.46C287.64,-592.3 308.81,-566.06 332,-550 352.97,-535.48 379.41,-524.37 400.64,-516.88"/>
<polygon fill="midnightblue" stroke="midnightblue" points="401.95,-520.13 410.29,-513.6 399.69,-513.51 401.95,-520.13"/>
</g>
<!-- Node17 -->
<g id="node17" class="node">
<title>Node17</title>
<g id="a_node17"><a xlink:href="../../dd/d74/txbuffer_8h.html" target="_top" xlink:title=" ">
<polygon fill="none" stroke="black" points="409.52,-440.5 409.52,-458.5 466.48,-458.5 466.48,-440.5 409.52,-440.5"/>
<text text-anchor="middle" x="438" y="-446.5" font-family="Helvetica,sans-Serif" font-size="10.00">txbuffer.h</text>
</a>
</g>
</g>
<!-- Node16&#45;&gt;Node17 -->
<g id="edge17" class="edge">
<title>Node16&#45;&gt;Node17</title>
<path fill="none" stroke="midnightblue" d="M212.34,-550.38C254.84,-531.57 360.24,-484.92 410.5,-462.67"/>
<polygon fill="midnightblue" stroke="midnightblue" points="412.05,-465.81 419.78,-458.56 409.22,-459.41 412.05,-465.81"/>
</g>
<!-- Node27 -->
<g id="node27" class="node">
<title>Node27</title>
<g id="a_node27"><a xlink:title=" ">
<polygon fill="none" stroke="#bfbfbf" points="101.33,-495.5 101.33,-513.5 150.67,-513.5 150.67,-495.5 101.33,-495.5"/>
<text text-anchor="middle" x="126" y="-501.5" font-family="Helvetica,sans-Serif" font-size="10.00">fstream</text>
</a>
</g>
</g>
<!-- Node16&#45;&gt;Node27 -->
<g id="edge34" class="edge">
<title>Node16&#45;&gt;Node27</title>
<path fill="none" stroke="midnightblue" d="M183.67,-550.45C173.29,-542.36 157.05,-529.7 144.45,-519.88"/>
<polygon fill="midnightblue" stroke="midnightblue" points="146.46,-517.01 136.42,-513.63 142.16,-522.53 146.46,-517.01"/>
</g>
<!-- Node17&#45;&gt;Node13 -->
<g id="edge33" class="edge">
<title>Node17&#45;&gt;Node13</title>
<path fill="none" stroke="midnightblue" d="M466.49,-443.34C511.73,-433.55 599.35,-407.75 643,-349 664.99,-319.4 665.66,-274.09 663.97,-248.94"/>
<polygon fill="midnightblue" stroke="midnightblue" points="667.43,-248.31 663.07,-238.65 660.46,-248.92 667.43,-248.31"/>
</g>
<!-- Node18 -->
<g id="node18" class="node">
<title>Node18</title>
<g id="a_node18"><a xlink:href="../../d1/d9e/txid_8h.html" target="_top" xlink:title=" ">
<polygon fill="none" stroke="black" points="469.05,-330.5 469.05,-348.5 508.95,-348.5 508.95,-330.5 469.05,-330.5"/>
<text text-anchor="middle" x="489" y="-336.5" font-family="Helvetica,sans-Serif" font-size="10.00">txid.h</text>
</a>
</g>
</g>
<!-- Node17&#45;&gt;Node18 -->
<g id="edge18" class="edge">
<title>Node17&#45;&gt;Node18</title>
<path fill="none" stroke="midnightblue" d="M445.29,-440.18C452.46,-431.63 463.28,-417.66 470,-404 477.15,-389.46 482.18,-371.71 485.26,-358.68"/>
<polygon fill="midnightblue" stroke="midnightblue" points="488.74,-359.16 487.47,-348.64 481.9,-357.65 488.74,-359.16"/>
</g>
<!-- Node20 -->
<g id="node20" class="node">
<title>Node20</title>
<g id="a_node20"><a xlink:href="../../d9/d18/txscaled_8h.html" target="_top" xlink:title=" ">
<polygon fill="none" stroke="black" points="336.49,-385.5 336.49,-403.5 397.51,-403.5 397.51,-385.5 336.49,-385.5"/>
<text text-anchor="middle" x="367" y="-391.5" font-family="Helvetica,sans-Serif" font-size="10.00">txscaled.h</text>
</a>
</g>
</g>
<!-- Node17&#45;&gt;Node20 -->
<g id="edge23" class="edge">
<title>Node17&#45;&gt;Node20</title>
<path fill="none" stroke="midnightblue" d="M427.22,-440.45C416.37,-432.36 399.42,-419.7 386.27,-409.88"/>
<polygon fill="midnightblue" stroke="midnightblue" points="387.99,-406.8 377.88,-403.63 383.8,-412.41 387.99,-406.8"/>
</g>
<!-- Node26 -->
<g id="node26" class="node">
<title>Node26</title>
<g id="a_node26"><a xlink:title=" ">
<polygon fill="none" stroke="#bfbfbf" points="415.27,-385.5 415.27,-403.5 460.73,-403.5 460.73,-385.5 415.27,-385.5"/>
<text text-anchor="middle" x="438" y="-391.5" font-family="Helvetica,sans-Serif" font-size="10.00">cstring</text>
</a>
</g>
</g>
<!-- Node17&#45;&gt;Node26 -->
<g id="edge32" class="edge">
<title>Node17&#45;&gt;Node26</title>
<path fill="none" stroke="midnightblue" d="M438,-440.22C438,-433.18 438,-422.81 438,-413.83"/>
<polygon fill="midnightblue" stroke="midnightblue" points="441.5,-413.55 438,-403.55 434.5,-413.55 441.5,-413.55"/>
</g>
<!-- Node19 -->
<g id="node19" class="node">
<title>Node19</title>
<g id="a_node19"><a xlink:href="../../d5/daf/_istring_8h.html" target="_top" xlink:title=" ">
<polygon fill="none" stroke="black" points="448.77,-275.5 448.77,-293.5 529.23,-293.5 529.23,-275.5 448.77,-275.5"/>
<text text-anchor="middle" x="489" y="-281.5" font-family="Helvetica,sans-Serif" font-size="10.00">tralics/Istring.h</text>
</a>
</g>
</g>
<!-- Node18&#45;&gt;Node19 -->
<g id="edge19" class="edge">
<title>Node18&#45;&gt;Node19</title>
<path fill="none" stroke="midnightblue" d="M489,-330.22C489,-323.18 489,-312.81 489,-303.83"/>
<polygon fill="midnightblue" stroke="midnightblue" points="492.5,-303.55 489,-293.55 485.5,-303.55 492.5,-303.55"/>
</g>
<!-- Node19&#45;&gt;Node9 -->
<g id="edge20" class="edge">
<title>Node19&#45;&gt;Node9</title>
<path fill="none" stroke="midnightblue" d="M488.19,-275.39C486.58,-262.61 482.02,-237.43 470,-220 461.22,-207.26 447.64,-196.56 435.84,-188.85"/>
<polygon fill="midnightblue" stroke="midnightblue" points="437.61,-185.83 427.26,-183.55 433.93,-191.78 437.61,-185.83"/>
</g>
<!-- Node19&#45;&gt;Node11 -->
<g id="edge21" class="edge">
<title>Node19&#45;&gt;Node11</title>
<path fill="none" stroke="midnightblue" d="M481.66,-275.22C474.79,-267.47 464.35,-255.7 455.9,-246.18"/>
<polygon fill="midnightblue" stroke="midnightblue" points="458.39,-243.71 449.14,-238.55 453.15,-248.35 458.39,-243.71"/>
</g>
<!-- Node19&#45;&gt;Node12 -->
<g id="edge22" class="edge">
<title>Node19&#45;&gt;Node12</title>
<path fill="none" stroke="midnightblue" d="M496.5,-275.22C503.52,-267.47 514.18,-255.7 522.8,-246.18"/>
<polygon fill="midnightblue" stroke="midnightblue" points="525.59,-248.31 529.71,-238.55 520.4,-243.61 525.59,-248.31"/>
</g>
<!-- Node21 -->
<g id="node21" class="node">
<title>Node21</title>
<g id="a_node21"><a xlink:href="../../dc/d91/txtokenlist_8h.html" target="_top" xlink:title=" ">
<polygon fill="none" stroke="black" points="357.6,-330.5 357.6,-348.5 426.4,-348.5 426.4,-330.5 357.6,-330.5"/>
<text text-anchor="middle" x="392" y="-336.5" font-family="Helvetica,sans-Serif" font-size="10.00">txtokenlist.h</text>
</a>
</g>
</g>
<!-- Node20&#45;&gt;Node21 -->
<g id="edge24" class="edge">
<title>Node20&#45;&gt;Node21</title>
<path fill="none" stroke="midnightblue" d="M370.91,-385.22C374.38,-377.86 379.56,-366.88 383.92,-357.64"/>
<polygon fill="midnightblue" stroke="midnightblue" points="387.1,-359.09 388.2,-348.55 380.77,-356.1 387.1,-359.09"/>
</g>
<!-- Node21&#45;&gt;Node19 -->
<g id="edge25" class="edge">
<title>Node21&#45;&gt;Node19</title>
<path fill="none" stroke="midnightblue" d="M406.73,-330.45C422.26,-321.97 446.95,-308.48 465.23,-298.49"/>
<polygon fill="midnightblue" stroke="midnightblue" points="467.03,-301.49 474.13,-293.63 463.68,-295.35 467.03,-301.49"/>
</g>
<!-- Node22 -->
<g id="node22" class="node">
<title>Node22</title>
<g id="a_node22"><a xlink:href="../../dd/dcd/_token_8h.html" target="_top" xlink:title=" ">
<polygon fill="none" stroke="black" points="248.04,-275.5 248.04,-293.5 327.96,-293.5 327.96,-275.5 248.04,-275.5"/>
<text text-anchor="middle" x="288" y="-281.5" font-family="Helvetica,sans-Serif" font-size="10.00">tralics/Token.h</text>
</a>
</g>
</g>
<!-- Node21&#45;&gt;Node22 -->
<g id="edge26" class="edge">
<title>Node21&#45;&gt;Node22</title>
<path fill="none" stroke="midnightblue" d="M376.2,-330.45C359.41,-321.89 332.6,-308.23 312.94,-298.21"/>
<polygon fill="midnightblue" stroke="midnightblue" points="314.44,-295.05 303.94,-293.63 311.26,-301.28 314.44,-295.05"/>
</g>
<!-- Node25 -->
<g id="node25" class="node">
<title>Node25</title>
<g id="a_node25"><a xlink:title=" ">
<polygon fill="none" stroke="#bfbfbf" points="547.61,-275.5 547.61,-293.5 586.39,-293.5 586.39,-275.5 547.61,-275.5"/>
<text text-anchor="middle" x="567" y="-281.5" font-family="Helvetica,sans-Serif" font-size="10.00">utility</text>
</a>
</g>
</g>
<!-- Node21&#45;&gt;Node25 -->
<g id="edge31" class="edge">
<title>Node21&#45;&gt;Node25</title>
<path fill="none" stroke="midnightblue" d="M418.58,-330.45C450.73,-320.71 504.66,-304.38 537.9,-294.31"/>
<polygon fill="midnightblue" stroke="midnightblue" points="538.95,-297.65 547.5,-291.41 536.92,-290.95 538.95,-297.65"/>
</g>
<!-- Node23 -->
<g id="node23" class="node">
<title>Node23</title>
<g id="a_node23"><a xlink:href="../../d2/d68/_cmd_chr_8h.html" target="_top" xlink:title=" ">
<polygon fill="none" stroke="black" points="305.49,-220.5 305.49,-238.5 366.51,-238.5 366.51,-220.5 305.49,-220.5"/>
<text text-anchor="middle" x="336" y="-226.5" font-family="Helvetica,sans-Serif" font-size="10.00">CmdChr.h</text>
</a>
</g>
</g>
<!-- Node22&#45;&gt;Node23 -->
<g id="edge27" class="edge">
<title>Node22&#45;&gt;Node23</title>
<path fill="none" stroke="midnightblue" d="M295.5,-275.22C302.52,-267.47 313.18,-255.7 321.8,-246.18"/>
<polygon fill="midnightblue" stroke="midnightblue" points="324.59,-248.31 328.71,-238.55 319.4,-243.61 324.59,-248.31"/>
</g>
<!-- Node24 -->
<g id="node24" class="node">
<title>Node24</title>
<g id="a_node24"><a xlink:title=" ">
<polygon fill="none" stroke="#bfbfbf" points="219.5,-220.5 219.5,-238.5 248.5,-238.5 248.5,-220.5 219.5,-220.5"/>
<text text-anchor="middle" x="233.61" y="-226.5" font-family="Helvetica,sans-Serif" font-size="10.00">list</text>
</a>
</g>
</g>
<!-- Node22&#45;&gt;Node24 -->
<g id="edge30" class="edge">
<title>Node22&#45;&gt;Node24</title>
<path fill="none" stroke="midnightblue" d="M279.56,-275.22C271.51,-267.32 259.19,-255.22 249.39,-245.61"/>
<polygon fill="midnightblue" stroke="midnightblue" points="251.79,-243.06 242.2,-238.55 246.89,-248.05 251.79,-243.06"/>
</g>
<!-- Node23&#45;&gt;Node3 -->
<g id="edge28" class="edge">
<title>Node23&#45;&gt;Node3</title>
<path fill="none" stroke="midnightblue" d="M333.19,-220.22C330.74,-213.02 327.12,-202.35 324.02,-193.23"/>
<polygon fill="midnightblue" stroke="midnightblue" points="327.26,-191.89 320.73,-183.55 320.64,-194.14 327.26,-191.89"/>
</g>
<!-- Node23&#45;&gt;Node9 -->
<g id="edge29" class="edge">
<title>Node23&#45;&gt;Node9</title>
<path fill="none" stroke="midnightblue" d="M347.54,-220.45C359.26,-212.28 377.64,-199.46 391.78,-189.6"/>
<polygon fill="midnightblue" stroke="midnightblue" points="394.15,-192.22 400.35,-183.63 390.14,-186.47 394.15,-192.22"/>
</g>
<!-- Node28&#45;&gt;Node17 -->
<g id="edge36" class="edge">
<title>Node28&#45;&gt;Node17</title>
<path fill="none" stroke="midnightblue" d="M438,-495.22C438,-488.18 438,-477.81 438,-468.83"/>
<polygon fill="midnightblue" stroke="midnightblue" points="441.5,-468.55 438,-458.55 434.5,-468.55 441.5,-468.55"/>
</g>
<!-- Node29&#45;&gt;Node27 -->
<g id="edge38" class="edge">
<title>Node29&#45;&gt;Node27</title>
<path fill="none" stroke="midnightblue" d="M59.05,-605.09C60.94,-592.34 65.84,-567.72 77,-550 84.39,-538.27 95.7,-527.71 105.59,-519.83"/>
<polygon fill="midnightblue" stroke="midnightblue" points="107.92,-522.45 113.78,-513.62 103.7,-516.87 107.92,-522.45"/>
</g>
<!-- Node30 -->
<g id="node30" class="node">
<title>Node30</title>
<g id="a_node30"><a xlink:title=" ">
<polygon fill="none" stroke="#bfbfbf" points="85.83,-550.5 85.83,-568.5 140.17,-568.5 140.17,-550.5 85.83,-550.5"/>
<text text-anchor="middle" x="113" y="-556.5" font-family="Helvetica,sans-Serif" font-size="10.00">iostream</text>
</a>
</g>
</g>
<!-- Node29&#45;&gt;Node30 -->
<g id="edge39" class="edge">
<title>Node29&#45;&gt;Node30</title>
<path fill="none" stroke="midnightblue" d="M66.59,-605.22C74.79,-597.32 87.34,-585.22 97.32,-575.61"/>
<polygon fill="midnightblue" stroke="midnightblue" points="99.87,-578.01 104.65,-568.55 95.02,-572.97 99.87,-578.01"/>
</g>
<!-- Node31&#45;&gt;Node16 -->
<g id="edge41" class="edge">
<title>Node31&#45;&gt;Node16</title>
<path fill="none" stroke="midnightblue" d="M145.06,-605.22C153.8,-597.24 167.21,-584.98 177.78,-575.32"/>
<polygon fill="midnightblue" stroke="midnightblue" points="180.17,-577.88 185.19,-568.55 175.45,-572.71 180.17,-577.88"/>
</g>
<!-- Node32&#45;&gt;Node16 -->
<g id="edge56" class="edge">
<title>Node32&#45;&gt;Node16</title>
<path fill="none" stroke="midnightblue" d="M430.01,-666.95C371.41,-663.31 244.68,-652.3 213,-624 200.27,-612.63 195.91,-593.11 194.5,-578.71"/>
<polygon fill="midnightblue" stroke="midnightblue" points="197.98,-578.28 193.89,-568.51 190.99,-578.7 197.98,-578.28"/>
</g>
<!-- Node33 -->
<g id="node33" class="node">
<title>Node33</title>
<g id="a_node33"><a xlink:href="../../d8/dd6/_e_q_t_b_8h.html" target="_top" xlink:title=" ">
<polygon fill="none" stroke="black" points="272.77,-440.5 272.77,-458.5 353.23,-458.5 353.23,-440.5 272.77,-440.5"/>
<text text-anchor="middle" x="313" y="-446.5" font-family="Helvetica,sans-Serif" font-size="10.00">tralics/EQTB.h</text>
</a>
</g>
</g>
<!-- Node32&#45;&gt;Node33 -->
<g id="edge43" class="edge">
<title>Node32&#45;&gt;Node33</title>
<path fill="none" stroke="midnightblue" d="M435.16,-660.4C415.6,-653.13 388.49,-640.98 369,-624 346.79,-604.65 342.81,-596.41 332,-569 318.67,-535.19 314.68,-492.43 313.5,-468.62"/>
<polygon fill="midnightblue" stroke="midnightblue" points="316.99,-468.43 313.11,-458.57 310,-468.7 316.99,-468.43"/>
</g>
<!-- Node34 -->
<g id="node34" class="node">
<title>Node34</title>
<g id="a_node34"><a xlink:href="../../d3/d6b/txcond_8h.html" target="_top" xlink:title=" ">
<polygon fill="none" stroke="black" points="690.1,-275.5 690.1,-293.5 743.9,-293.5 743.9,-275.5 690.1,-275.5"/>
<text text-anchor="middle" x="717" y="-281.5" font-family="Helvetica,sans-Serif" font-size="10.00">txcond.h</text>
</a>
</g>
</g>
<!-- Node32&#45;&gt;Node34 -->
<g id="edge45" class="edge">
<title>Node32&#45;&gt;Node34</title>
<path fill="none" stroke="midnightblue" d="M490.41,-668.74C556.63,-667.51 708,-654.42 708,-560.5 708,-560.5 708,-560.5 708,-393.5 708,-361.76 711.91,-324.96 714.57,-303.55"/>
<polygon fill="midnightblue" stroke="midnightblue" points="718.05,-303.98 715.86,-293.61 711.1,-303.08 718.05,-303.98"/>
</g>
<!-- Node35 -->
<g id="node35" class="node">
<title>Node35</title>
<g id="a_node35"><a xlink:href="../../d7/d4d/txfonts_8h.html" target="_top" xlink:title=" ">
<polygon fill="none" stroke="black" points="411.1,-550.5 411.1,-568.5 464.9,-568.5 464.9,-550.5 411.1,-550.5"/>
<text text-anchor="middle" x="438" y="-556.5" font-family="Helvetica,sans-Serif" font-size="10.00">txfonts.h</text>
</a>
</g>
</g>
<!-- Node32&#45;&gt;Node35 -->
<g id="edge48" class="edge">
<title>Node32&#45;&gt;Node35</title>
<path fill="none" stroke="midnightblue" d="M458.35,-660.38C454.83,-643.1 446.52,-602.33 441.68,-578.56"/>
<polygon fill="midnightblue" stroke="midnightblue" points="445.1,-577.81 439.67,-568.71 438.24,-579.21 445.1,-577.81"/>
</g>
<!-- Node36 -->
<g id="node36" class="node">
<title>Node36</title>
<g id="a_node36"><a xlink:href="../../d7/d7e/txhash_8h.html" target="_top" xlink:title=" ">
<polygon fill="none" stroke="black" points="378.1,-605.5 378.1,-623.5 431.9,-623.5 431.9,-605.5 378.1,-605.5"/>
<text text-anchor="middle" x="405" y="-611.5" font-family="Helvetica,sans-Serif" font-size="10.00">txhash.h</text>
</a>
</g>
</g>
<!-- Node32&#45;&gt;Node36 -->
<g id="edge50" class="edge">
<title>Node32&#45;&gt;Node36</title>
<path fill="none" stroke="midnightblue" d="M451.41,-660.22C443.21,-652.32 430.66,-640.22 420.68,-630.61"/>
<polygon fill="midnightblue" stroke="midnightblue" points="422.98,-627.97 413.35,-623.55 418.13,-633.01 422.98,-627.97"/>
</g>
<!-- Node38 -->
<g id="node38" class="node">
<title>Node38</title>
<g id="a_node38"><a xlink:href="../../de/d7c/tximage_8h.html" target="_top" xlink:title=" ">
<polygon fill="none" stroke="black" points="574.32,-330.5 574.32,-348.5 633.68,-348.5 633.68,-330.5 574.32,-330.5"/>
<text text-anchor="middle" x="604" y="-336.5" font-family="Helvetica,sans-Serif" font-size="10.00">tximage.h</text>
</a>
</g>
</g>
<!-- Node32&#45;&gt;Node38 -->
<g id="edge53" class="edge">
<title>Node32&#45;&gt;Node38</title>
<path fill="none" stroke="midnightblue" d="M490.16,-664.69C532.93,-658.6 607.82,-645.15 624,-624 686.42,-542.38 634.05,-405.95 612.34,-357.89"/>
<polygon fill="midnightblue" stroke="midnightblue" points="615.4,-356.16 608.01,-348.57 609.05,-359.11 615.4,-356.16"/>
</g>
<!-- Node39 -->
<g id="node39" class="node">
<title>Node39</title>
<g id="a_node39"><a xlink:href="../../dc/d65/txstack_8h.html" target="_top" xlink:title=" ">
<polygon fill="none" stroke="black" points="488.27,-605.5 488.27,-623.5 543.73,-623.5 543.73,-605.5 488.27,-605.5"/>
<text text-anchor="middle" x="516" y="-611.5" font-family="Helvetica,sans-Serif" font-size="10.00">txstack.h</text>
</a>
</g>
</g>
<!-- Node32&#45;&gt;Node39 -->
<g id="edge57" class="edge">
<title>Node32&#45;&gt;Node39</title>
<path fill="none" stroke="midnightblue" d="M468.75,-660.22C477.1,-652.32 489.88,-640.22 500.04,-630.61"/>
<polygon fill="midnightblue" stroke="midnightblue" points="502.64,-632.97 507.49,-623.55 497.83,-627.88 502.64,-632.97"/>
</g>
<!-- Node42 -->
<g id="node42" class="node">
<title>Node42</title>
<g id="a_node42"><a xlink:href="../../d8/d3d/txstats_8h.html" target="_top" xlink:title=" ">
<polygon fill="none" stroke="black" points="561.38,-605.5 561.38,-623.5 614.62,-623.5 614.62,-605.5 561.38,-605.5"/>
<text text-anchor="middle" x="588" y="-611.5" font-family="Helvetica,sans-Serif" font-size="10.00">txstats.h</text>
</a>
</g>
</g>
<!-- Node32&#45;&gt;Node42 -->
<g id="edge62" class="edge">
<title>Node32&#45;&gt;Node42</title>
<path fill="none" stroke="midnightblue" d="M479.44,-660.45C500.59,-651.7 534.61,-637.61 558.94,-627.53"/>
<polygon fill="midnightblue" stroke="midnightblue" points="560.48,-630.68 568.38,-623.63 557.8,-624.22 560.48,-630.68"/>
</g>
<!-- Node33&#45;&gt;Node20 -->
<g id="edge44" class="edge">
<title>Node33&#45;&gt;Node20</title>
<path fill="none" stroke="midnightblue" d="M321.44,-440.22C329.49,-432.32 341.81,-420.22 351.61,-410.61"/>
<polygon fill="midnightblue" stroke="midnightblue" points="354.11,-413.05 358.8,-403.55 349.21,-408.06 354.11,-413.05"/>
</g>
<!-- Node34&#45;&gt;Node9 -->
<g id="edge46" class="edge">
<title>Node34&#45;&gt;Node9</title>
<path fill="none" stroke="midnightblue" d="M716.46,-275.4C715.07,-261.68 710.18,-233.99 693,-220 656.37,-190.18 517.62,-180.08 449.79,-176.88"/>
<polygon fill="midnightblue" stroke="midnightblue" points="449.68,-173.37 439.54,-176.42 449.37,-180.36 449.68,-173.37"/>
</g>
<!-- Node34&#45;&gt;Node13 -->
<g id="edge47" class="edge">
<title>Node34&#45;&gt;Node13</title>
<path fill="none" stroke="midnightblue" d="M708.41,-275.22C700.21,-267.32 687.66,-255.22 677.68,-245.61"/>
<polygon fill="midnightblue" stroke="midnightblue" points="679.98,-242.97 670.35,-238.55 675.13,-248.01 679.98,-242.97"/>
</g>
<!-- Node35&#45;&gt;Node28 -->
<g id="edge49" class="edge">
<title>Node35&#45;&gt;Node28</title>
<path fill="none" stroke="midnightblue" d="M438,-550.22C438,-543.18 438,-532.81 438,-523.83"/>
<polygon fill="midnightblue" stroke="midnightblue" points="441.5,-523.55 438,-513.55 434.5,-523.55 441.5,-523.55"/>
</g>
<!-- Node37 -->
<g id="node37" class="node">
<title>Node37</title>
<g id="a_node37"><a xlink:href="../../d3/d01/txeqtb_8h.html" target="_top" xlink:title=" ">
<polygon fill="none" stroke="black" points="341.21,-550.5 341.21,-568.5 392.79,-568.5 392.79,-550.5 341.21,-550.5"/>
<text text-anchor="middle" x="367" y="-556.5" font-family="Helvetica,sans-Serif" font-size="10.00">txeqtb.h</text>
</a>
</g>
</g>
<!-- Node36&#45;&gt;Node37 -->
<g id="edge51" class="edge">
<title>Node36&#45;&gt;Node37</title>
<path fill="none" stroke="midnightblue" d="M399.06,-605.22C393.62,-597.63 385.41,-586.18 378.66,-576.76"/>
<polygon fill="midnightblue" stroke="midnightblue" points="381.44,-574.64 372.77,-568.55 375.75,-578.72 381.44,-574.64"/>
</g>
<!-- Node37&#45;&gt;Node28 -->
<g id="edge52" class="edge">
<title>Node37&#45;&gt;Node28</title>
<path fill="none" stroke="midnightblue" d="M377.78,-550.45C388.63,-542.36 405.58,-529.7 418.73,-519.88"/>
<polygon fill="midnightblue" stroke="midnightblue" points="421.2,-522.41 427.12,-513.63 417.01,-516.8 421.2,-522.41"/>
</g>
<!-- Node38&#45;&gt;Node12 -->
<g id="edge54" class="edge">
<title>Node38&#45;&gt;Node12</title>
<path fill="none" stroke="midnightblue" d="M604.72,-330.45C605.46,-317.76 605.33,-292.69 595,-275 587.35,-261.9 574.2,-251.33 562.35,-243.79"/>
<polygon fill="midnightblue" stroke="midnightblue" points="564.04,-240.72 553.66,-238.61 560.46,-246.74 564.04,-240.72"/>
</g>
<!-- Node38&#45;&gt;Node25 -->
<g id="edge55" class="edge">
<title>Node38&#45;&gt;Node25</title>
<path fill="none" stroke="midnightblue" d="M598.22,-330.22C592.92,-322.63 584.92,-311.18 578.35,-301.76"/>
<polygon fill="midnightblue" stroke="midnightblue" points="581.21,-299.75 572.62,-293.55 575.47,-303.75 581.21,-299.75"/>
</g>
<!-- Node40 -->
<g id="node40" class="node">
<title>Node40</title>
<g id="a_node40"><a xlink:href="../../d9/d1c/_xml_8h.html" target="_top" xlink:title=" ">
<polygon fill="none" stroke="black" points="482.77,-550.5 482.77,-568.5 553.23,-568.5 553.23,-550.5 482.77,-550.5"/>
<text text-anchor="middle" x="518" y="-556.5" font-family="Helvetica,sans-Serif" font-size="10.00">tralics/Xml.h</text>
</a>
</g>
</g>
<!-- Node39&#45;&gt;Node40 -->
<g id="edge58" class="edge">
<title>Node39&#45;&gt;Node40</title>
<path fill="none" stroke="midnightblue" d="M516.31,-605.22C516.58,-598.18 516.97,-587.81 517.31,-578.83"/>
<polygon fill="midnightblue" stroke="midnightblue" points="520.82,-578.67 517.7,-568.55 513.82,-578.41 520.82,-578.67"/>
</g>
<!-- Node41 -->
<g id="node41" class="node">
<title>Node41</title>
<g id="a_node41"><a xlink:href="../../d4/da4/txatt_8h.html" target="_top" xlink:title=" ">
<polygon fill="none" stroke="black" points="571.38,-550.5 571.38,-568.5 614.62,-568.5 614.62,-550.5 571.38,-550.5"/>
<text text-anchor="middle" x="593" y="-556.5" font-family="Helvetica,sans-Serif" font-size="10.00">txatt.h</text>
</a>
</g>
</g>
<!-- Node39&#45;&gt;Node41 -->
<g id="edge60" class="edge">
<title>Node39&#45;&gt;Node41</title>
<path fill="none" stroke="midnightblue" d="M527.69,-605.45C539.68,-597.2 558.54,-584.22 572.92,-574.32"/>
<polygon fill="midnightblue" stroke="midnightblue" points="574.94,-577.18 581.2,-568.63 570.97,-571.41 574.94,-577.18"/>
</g>
<!-- Node40&#45;&gt;Node28 -->
<g id="edge59" class="edge">
<title>Node40&#45;&gt;Node28</title>
<path fill="none" stroke="midnightblue" d="M505.85,-550.45C493.4,-542.2 473.8,-529.22 458.86,-519.32"/>
<polygon fill="midnightblue" stroke="midnightblue" points="460.53,-516.23 450.26,-513.63 456.67,-522.07 460.53,-516.23"/>
</g>
<!-- Node41&#45;&gt;Node28 -->
<g id="edge61" class="edge">
<title>Node41&#45;&gt;Node28</title>
<path fill="none" stroke="midnightblue" d="M571.12,-551.02C545.11,-542.12 501.42,-527.18 471.22,-516.86"/>
<polygon fill="midnightblue" stroke="midnightblue" points="472.14,-513.47 461.54,-513.55 469.87,-520.1 472.14,-513.47"/>
</g>
</g>
</svg>
