<?xml version="1.0" encoding="UTF-8" standalone="no"?>
<!DOCTYPE svg PUBLIC "-//W3C//DTD SVG 1.1//EN"
 "http://www.w3.org/Graphics/SVG/1.1/DTD/svg11.dtd">
<!-- Generated by graphviz version 2.43.0 (0)
 -->
<!-- Title: Buffer Pages: 1 -->
<svg width="107pt" height="148pt"
 viewBox="0.00 0.00 106.82 148.00" xmlns="http://www.w3.org/2000/svg" xmlns:xlink="http://www.w3.org/1999/xlink">
<g id="graph0" class="graph" transform="scale(1 1) rotate(0) translate(4 144)">
<title>Buffer</title>
<polygon fill="white" stroke="transparent" points="-4,4 -4,-144 102.82,-144 102.82,4 -4,4"/>
<!-- Node1 -->
<g id="node1" class="node">
<title>Node1</title>
<g id="a_node1"><a xlink:title=" ">
<polygon fill="#bfbfbf" stroke="black" points="28.16,-0.5 28.16,-18.5 70.66,-18.5 70.66,-0.5 28.16,-0.5"/>
<text text-anchor="middle" x="49.41" y="-6.5" font-family="Helvetica,sans-Serif" font-size="10.00">Buffer</text>
</a>
</g>
</g>
<!-- Node2 -->
<g id="node2" class="node">
<title>Node2</title>
<g id="a_node2"><a xlink:title="STL class.">
<polygon fill="white" stroke="#bfbfbf" points="0,-56.5 0,-74.5 98.82,-74.5 98.82,-56.5 0,-56.5"/>
<text text-anchor="middle" x="49.41" y="-62.5" font-family="Helvetica,sans-Serif" font-size="10.00">std::vector&lt; char &gt;</text>
</a>
</g>
</g>
<!-- Node2&#45;&gt;Node1 -->
<g id="edge1" class="edge">
<title>Node2&#45;&gt;Node1</title>
<path fill="none" stroke="midnightblue" d="M49.41,-45.83C49.41,-36.58 49.41,-25.88 49.41,-18.7"/>
<polygon fill="midnightblue" stroke="midnightblue" points="45.91,-46.06 49.41,-56.06 52.91,-46.06 45.91,-46.06"/>
</g>
<!-- Node3 -->
<g id="node3" class="node">
<title>Node3</title>
<g id="a_node3"><a xlink:title=" ">
<polygon fill="white" stroke="#bfbfbf" points="34.91,-121.5 34.91,-139.5 63.91,-139.5 63.91,-121.5 34.91,-121.5"/>
<text text-anchor="middle" x="48.96" y="-127.5" font-family="Helvetica,sans-Serif" font-size="10.00">T</text>
</a>
</g>
</g>
<!-- Node3&#45;&gt;Node2 -->
<g id="edge2" class="edge">
<title>Node3&#45;&gt;Node2</title>
<path fill="none" stroke="#9a32cd" stroke-dasharray="5,2" d="M49.41,-110.91C49.41,-98.81 49.41,-83.65 49.41,-74.54"/>
<polygon fill="#9a32cd" stroke="#9a32cd" points="45.91,-111.26 49.41,-121.26 52.91,-111.26 45.91,-111.26"/>
<text text-anchor="middle" x="71.09" y="-95" font-family="Helvetica,sans-Serif" font-size="10.00"> elements</text>
</g>
</g>
</svg>
