<?xml version="1.0" encoding="UTF-8" standalone="no"?>
<!DOCTYPE svg PUBLIC "-//W3C//DTD SVG 1.1//EN"
 "http://www.w3.org/Graphics/SVG/1.1/DTD/svg11.dtd">
<!-- Generated by graphviz version 2.43.0 (0)
 -->
<!-- Title: txinline.h Pages: 1 -->
<svg width="2409pt" height="137pt"
 viewBox="0.00 0.00 2408.62 137.00" xmlns="http://www.w3.org/2000/svg" xmlns:xlink="http://www.w3.org/1999/xlink">
<g id="graph0" class="graph" transform="scale(1 1) rotate(0) translate(4 133)">
<title>txinline.h</title>
<polygon fill="white" stroke="transparent" points="-4,4 -4,-133 2404.62,-133 2404.62,4 -4,4"/>
<!-- Node1 -->
<g id="node1" class="node">
<title>Node1</title>
<g id="a_node1"><a xlink:title=" ">
<polygon fill="#bfbfbf" stroke="black" points="1142.88,-110.5 1142.88,-128.5 1198.35,-128.5 1198.35,-110.5 1142.88,-110.5"/>
<text text-anchor="middle" x="1170.62" y="-116.5" font-family="Helvetica,sans-Serif" font-size="10.00">txinline.h</text>
</a>
</g>
</g>
<!-- Node2 -->
<g id="node2" class="node">
<title>Node2</title>
<g id="a_node2"><a xlink:href="../../d4/dbc/_istring_8_c.html" target="_top" xlink:title=" ">
<polygon fill="white" stroke="black" points="0,-55.5 0,-73.5 53.23,-73.5 53.23,-55.5 0,-55.5"/>
<text text-anchor="middle" x="26.62" y="-61.5" font-family="Helvetica,sans-Serif" font-size="10.00">Istring.C</text>
</a>
</g>
</g>
<!-- Node1&#45;&gt;Node2 -->
<g id="edge1" class="edge">
<title>Node1&#45;&gt;Node2</title>
<path fill="none" stroke="midnightblue" d="M1132.35,-117.95C962.51,-115.35 275.96,-103.2 62.62,-74 59.56,-73.58 56.39,-73.02 53.25,-72.39"/>
<polygon fill="midnightblue" stroke="midnightblue" points="1132.5,-121.45 1142.55,-118.1 1132.6,-114.45 1132.5,-121.45"/>
</g>
<!-- Node3 -->
<g id="node3" class="node">
<title>Node3</title>
<g id="a_node3"><a xlink:href="../../de/dae/_main_class_8_c.html" target="_top" xlink:title=" ">
<polygon fill="white" stroke="black" points="71.28,-55.5 71.28,-73.5 143.96,-73.5 143.96,-55.5 71.28,-55.5"/>
<text text-anchor="middle" x="107.62" y="-61.5" font-family="Helvetica,sans-Serif" font-size="10.00">MainClass.C</text>
</a>
</g>
</g>
<!-- Node1&#45;&gt;Node3 -->
<g id="edge2" class="edge">
<title>Node1&#45;&gt;Node3</title>
<path fill="none" stroke="midnightblue" d="M1132.35,-118.79C997.64,-119.41 532.88,-118 152.62,-74 149.93,-73.69 147.16,-73.31 144.39,-72.89"/>
<polygon fill="midnightblue" stroke="midnightblue" points="1132.58,-122.29 1142.57,-118.74 1132.55,-115.29 1132.58,-122.29"/>
</g>
<!-- Node4 -->
<g id="node4" class="node">
<title>Node4</title>
<g id="a_node4"><a xlink:href="../../dc/d29/tralics_8_c.html" target="_top" xlink:title=" ">
<polygon fill="white" stroke="black" points="161.56,-55.5 161.56,-73.5 213.67,-73.5 213.67,-55.5 161.56,-55.5"/>
<text text-anchor="middle" x="187.62" y="-61.5" font-family="Helvetica,sans-Serif" font-size="10.00">tralics.C</text>
</a>
</g>
</g>
<!-- Node1&#45;&gt;Node4 -->
<g id="edge3" class="edge">
<title>Node1&#45;&gt;Node4</title>
<path fill="none" stroke="midnightblue" d="M1132.3,-117.68C978.12,-114.23 402.79,-99.86 222.62,-74 219.77,-73.59 216.81,-73.06 213.88,-72.45"/>
<polygon fill="midnightblue" stroke="midnightblue" points="1132.58,-121.19 1142.66,-117.91 1132.74,-114.19 1132.58,-121.19"/>
</g>
<!-- Node5 -->
<g id="node5" class="node">
<title>Node5</title>
<g id="a_node5"><a xlink:href="../../d5/d10/txaccent_8_c.html" target="_top" xlink:title=" ">
<polygon fill="white" stroke="black" points="232,-55.5 232,-73.5 295.24,-73.5 295.24,-55.5 232,-55.5"/>
<text text-anchor="middle" x="263.62" y="-61.5" font-family="Helvetica,sans-Serif" font-size="10.00">txaccent.C</text>
</a>
</g>
</g>
<!-- Node1&#45;&gt;Node5 -->
<g id="edge4" class="edge">
<title>Node1&#45;&gt;Node5</title>
<path fill="none" stroke="midnightblue" d="M1132.56,-118.62C1011.22,-118.55 622.76,-114.91 304.62,-74 301.59,-73.61 298.45,-73.12 295.32,-72.57"/>
<polygon fill="midnightblue" stroke="midnightblue" points="1132.81,-122.12 1142.81,-118.61 1132.81,-115.12 1132.81,-122.12"/>
</g>
<!-- Node6 -->
<g id="node6" class="node">
<title>Node6</title>
<g id="a_node6"><a xlink:href="../../df/de6/txarray_8_c.html" target="_top" xlink:title=" ">
<polygon fill="white" stroke="black" points="313.7,-55.5 313.7,-73.5 369.53,-73.5 369.53,-55.5 313.7,-55.5"/>
<text text-anchor="middle" x="341.62" y="-61.5" font-family="Helvetica,sans-Serif" font-size="10.00">txarray.C</text>
</a>
</g>
</g>
<!-- Node1&#45;&gt;Node6 -->
<g id="edge5" class="edge">
<title>Node1&#45;&gt;Node6</title>
<path fill="none" stroke="midnightblue" d="M1132.73,-118.64C1018.32,-118.59 666.53,-114.86 378.62,-74 375.74,-73.59 372.77,-73.07 369.81,-72.49"/>
<polygon fill="midnightblue" stroke="midnightblue" points="1132.74,-122.14 1142.74,-118.64 1132.74,-115.14 1132.74,-122.14"/>
</g>
<!-- Node7 -->
<g id="node7" class="node">
<title>Node7</title>
<g id="a_node7"><a xlink:href="../../db/df0/txatt_8_c.html" target="_top" xlink:title=" ">
<polygon fill="white" stroke="black" points="387.17,-55.5 387.17,-73.5 432.06,-73.5 432.06,-55.5 387.17,-55.5"/>
<text text-anchor="middle" x="409.62" y="-61.5" font-family="Helvetica,sans-Serif" font-size="10.00">txatt.C</text>
</a>
</g>
</g>
<!-- Node1&#45;&gt;Node7 -->
<g id="edge6" class="edge">
<title>Node1&#45;&gt;Node7</title>
<path fill="none" stroke="midnightblue" d="M1132.74,-118.94C1024.17,-119.6 702.77,-117.45 440.62,-74 437.86,-73.54 435,-72.94 432.18,-72.27"/>
<polygon fill="midnightblue" stroke="midnightblue" points="1132.9,-122.44 1142.87,-118.86 1132.85,-115.44 1132.9,-122.44"/>
</g>
<!-- Node8 -->
<g id="node8" class="node">
<title>Node8</title>
<g id="a_node8"><a xlink:href="../../dd/dce/txaux_8_c.html" target="_top" xlink:title=" ">
<polygon fill="white" stroke="black" points="449.67,-55.5 449.67,-73.5 499.57,-73.5 499.57,-55.5 449.67,-55.5"/>
<text text-anchor="middle" x="474.62" y="-61.5" font-family="Helvetica,sans-Serif" font-size="10.00">txaux.C</text>
</a>
</g>
</g>
<!-- Node1&#45;&gt;Node8 -->
<g id="edge7" class="edge">
<title>Node1&#45;&gt;Node8</title>
<path fill="none" stroke="midnightblue" d="M1132.57,-118.3C1030.74,-117.26 743.8,-111 508.62,-74 505.73,-73.55 502.73,-72.96 499.76,-72.32"/>
<polygon fill="midnightblue" stroke="midnightblue" points="1132.64,-121.8 1142.67,-118.39 1132.7,-114.8 1132.64,-121.8"/>
</g>
<!-- Node9 -->
<g id="node9" class="node">
<title>Node9</title>
<g id="a_node9"><a xlink:href="../../d6/dcb/txbib_8h.html" target="_top" xlink:title=" ">
<polygon fill="white" stroke="black" points="517.88,-55.5 517.88,-73.5 563.35,-73.5 563.35,-55.5 517.88,-55.5"/>
<text text-anchor="middle" x="540.62" y="-61.5" font-family="Helvetica,sans-Serif" font-size="10.00">txbib.h</text>
</a>
</g>
</g>
<!-- Node1&#45;&gt;Node9 -->
<g id="edge8" class="edge">
<title>Node1&#45;&gt;Node9</title>
<path fill="none" stroke="midnightblue" d="M1132.39,-118.1C1037.16,-116.59 781.93,-109.27 572.62,-74 569.67,-73.5 566.6,-72.86 563.58,-72.14"/>
<polygon fill="midnightblue" stroke="midnightblue" points="1132.63,-121.61 1142.68,-118.25 1132.73,-114.61 1132.63,-121.61"/>
</g>
<!-- Node11 -->
<g id="node11" class="node">
<title>Node11</title>
<g id="a_node11"><a xlink:href="../../d4/df2/txbuffer_8_c.html" target="_top" xlink:title=" ">
<polygon fill="white" stroke="black" points="581.3,-55.5 581.3,-73.5 639.93,-73.5 639.93,-55.5 581.3,-55.5"/>
<text text-anchor="middle" x="610.62" y="-61.5" font-family="Helvetica,sans-Serif" font-size="10.00">txbuffer.C</text>
</a>
</g>
</g>
<!-- Node1&#45;&gt;Node11 -->
<g id="edge10" class="edge">
<title>Node1&#45;&gt;Node11</title>
<path fill="none" stroke="midnightblue" d="M1132.62,-117.02C1046.21,-113.27 828.55,-101.66 648.62,-74 645.81,-73.57 642.9,-73.05 640,-72.48"/>
<polygon fill="midnightblue" stroke="midnightblue" points="1132.59,-120.52 1142.73,-117.45 1132.89,-113.53 1132.59,-120.52"/>
</g>
<!-- Node12 -->
<g id="node12" class="node">
<title>Node12</title>
<g id="a_node12"><a xlink:href="../../de/ddd/txclasses_8_c.html" target="_top" xlink:title=" ">
<polygon fill="white" stroke="black" points="658.05,-55.5 658.05,-73.5 725.18,-73.5 725.18,-55.5 658.05,-55.5"/>
<text text-anchor="middle" x="691.62" y="-61.5" font-family="Helvetica,sans-Serif" font-size="10.00">txclasses.C</text>
</a>
</g>
</g>
<!-- Node1&#45;&gt;Node12 -->
<g id="edge11" class="edge">
<title>Node1&#45;&gt;Node12</title>
<path fill="none" stroke="midnightblue" d="M1132.67,-115.83C1056.79,-110.22 881.05,-95.9 734.62,-74 731.61,-73.55 728.49,-73.03 725.36,-72.48"/>
<polygon fill="midnightblue" stroke="midnightblue" points="1132.47,-119.32 1142.7,-116.56 1132.99,-112.34 1132.47,-119.32"/>
</g>
<!-- Node13 -->
<g id="node13" class="node">
<title>Node13</title>
<g id="a_node13"><a xlink:href="../../d4/d1e/txcommands_8_c.html" target="_top" xlink:title=" ">
<polygon fill="white" stroke="black" points="743.27,-55.5 743.27,-73.5 825.96,-73.5 825.96,-55.5 743.27,-55.5"/>
<text text-anchor="middle" x="784.62" y="-61.5" font-family="Helvetica,sans-Serif" font-size="10.00">txcommands.C</text>
</a>
</g>
</g>
<!-- Node1&#45;&gt;Node13 -->
<g id="edge12" class="edge">
<title>Node1&#45;&gt;Node13</title>
<path fill="none" stroke="midnightblue" d="M1132.66,-113.87C1070.49,-106.2 943.12,-90.09 835.62,-74 832.51,-73.53 829.3,-73.04 826.07,-72.53"/>
<polygon fill="midnightblue" stroke="midnightblue" points="1132.42,-117.37 1142.78,-115.12 1133.28,-110.42 1132.42,-117.37"/>
</g>
<!-- Node14 -->
<g id="node14" class="node">
<title>Node14</title>
<g id="a_node14"><a xlink:href="../../d9/d64/txconfig_8_c.html" target="_top" xlink:title=" ">
<polygon fill="white" stroke="black" points="844.38,-55.5 844.38,-73.5 904.85,-73.5 904.85,-55.5 844.38,-55.5"/>
<text text-anchor="middle" x="874.62" y="-61.5" font-family="Helvetica,sans-Serif" font-size="10.00">txconfig.C</text>
</a>
</g>
</g>
<!-- Node1&#45;&gt;Node14 -->
<g id="edge13" class="edge">
<title>Node1&#45;&gt;Node14</title>
<path fill="none" stroke="midnightblue" d="M1132.71,-112.46C1082.49,-104.34 991.2,-89.16 913.62,-74 910.9,-73.47 908.07,-72.9 905.25,-72.31"/>
<polygon fill="midnightblue" stroke="midnightblue" points="1132.35,-115.95 1142.78,-114.08 1133.47,-109.04 1132.35,-115.95"/>
</g>
<!-- Node15 -->
<g id="node15" class="node">
<title>Node15</title>
<g id="a_node15"><a xlink:href="../../d1/d79/txerr_8_c.html" target="_top" xlink:title=" ">
<polygon fill="white" stroke="black" points="922.89,-55.5 922.89,-73.5 968.34,-73.5 968.34,-55.5 922.89,-55.5"/>
<text text-anchor="middle" x="945.62" y="-61.5" font-family="Helvetica,sans-Serif" font-size="10.00">txerr.C</text>
</a>
</g>
</g>
<!-- Node1&#45;&gt;Node15 -->
<g id="edge14" class="edge">
<title>Node1&#45;&gt;Node15</title>
<path fill="none" stroke="midnightblue" d="M1132.66,-110.29C1093.47,-101.7 1030.6,-87.59 976.62,-74 974.02,-73.35 971.3,-72.64 968.61,-71.92"/>
<polygon fill="midnightblue" stroke="midnightblue" points="1132.06,-113.74 1142.58,-112.46 1133.56,-106.9 1132.06,-113.74"/>
</g>
<!-- Node16 -->
<g id="node16" class="node">
<title>Node16</title>
<g id="a_node16"><a xlink:href="../../d7/d0d/txfonts_8_c.html" target="_top" xlink:title=" ">
<polygon fill="white" stroke="black" points="985.89,-55.5 985.89,-73.5 1041.34,-73.5 1041.34,-55.5 985.89,-55.5"/>
<text text-anchor="middle" x="1013.62" y="-61.5" font-family="Helvetica,sans-Serif" font-size="10.00">txfonts.C</text>
</a>
</g>
</g>
<!-- Node1&#45;&gt;Node16 -->
<g id="edge15" class="edge">
<title>Node1&#45;&gt;Node16</title>
<path fill="none" stroke="midnightblue" d="M1137.16,-107.21C1107.2,-97.09 1064,-82.51 1037.43,-73.54"/>
<polygon fill="midnightblue" stroke="midnightblue" points="1136.18,-110.57 1146.77,-110.45 1138.42,-103.94 1136.18,-110.57"/>
</g>
<!-- Node17 -->
<g id="node17" class="node">
<title>Node17</title>
<g id="a_node17"><a xlink:href="../../d1/dcd/txfp_8_c.html" target="_top" xlink:title=" ">
<polygon fill="white" stroke="black" points="1059.56,-55.5 1059.56,-73.5 1101.67,-73.5 1101.67,-55.5 1059.56,-55.5"/>
<text text-anchor="middle" x="1080.62" y="-61.5" font-family="Helvetica,sans-Serif" font-size="10.00">txfp.C</text>
</a>
</g>
</g>
<!-- Node1&#45;&gt;Node17 -->
<g id="edge16" class="edge">
<title>Node1&#45;&gt;Node17</title>
<path fill="none" stroke="midnightblue" d="M1148.25,-105.33C1131.36,-95.39 1108.74,-82.06 1094.41,-73.63"/>
<polygon fill="midnightblue" stroke="midnightblue" points="1146.55,-108.39 1156.95,-110.45 1150.11,-102.36 1146.55,-108.39"/>
</g>
<!-- Node18 -->
<g id="node18" class="node">
<title>Node18</title>
<g id="a_node18"><a xlink:href="../../d8/dc2/txio_8_c.html" target="_top" xlink:title=" ">
<polygon fill="white" stroke="black" points="1119.83,-55.5 1119.83,-73.5 1161.4,-73.5 1161.4,-55.5 1119.83,-55.5"/>
<text text-anchor="middle" x="1140.62" y="-61.5" font-family="Helvetica,sans-Serif" font-size="10.00">txio.C</text>
</a>
</g>
</g>
<!-- Node1&#45;&gt;Node18 -->
<g id="edge17" class="edge">
<title>Node1&#45;&gt;Node18</title>
<path fill="none" stroke="midnightblue" d="M1160.92,-101.36C1155.63,-92.02 1149.34,-80.9 1145.17,-73.55"/>
<polygon fill="midnightblue" stroke="midnightblue" points="1157.96,-103.24 1165.93,-110.22 1164.05,-99.79 1157.96,-103.24"/>
</g>
<!-- Node19 -->
<g id="node19" class="node">
<title>Node19</title>
<g id="a_node19"><a xlink:href="../../dc/dcd/txl3_8_c.html" target="_top" xlink:title=" ">
<polygon fill="white" stroke="black" points="1179.83,-55.5 1179.83,-73.5 1221.4,-73.5 1221.4,-55.5 1179.83,-55.5"/>
<text text-anchor="middle" x="1200.62" y="-61.5" font-family="Helvetica,sans-Serif" font-size="10.00">txl3.C</text>
</a>
</g>
</g>
<!-- Node1&#45;&gt;Node19 -->
<g id="edge18" class="edge">
<title>Node1&#45;&gt;Node19</title>
<path fill="none" stroke="midnightblue" d="M1180.32,-101.36C1185.6,-92.02 1191.9,-80.9 1196.06,-73.55"/>
<polygon fill="midnightblue" stroke="midnightblue" points="1177.18,-99.79 1175.3,-110.22 1183.28,-103.24 1177.18,-99.79"/>
</g>
<!-- Node20 -->
<g id="node20" class="node">
<title>Node20</title>
<g id="a_node20"><a xlink:href="../../db/d96/txmath_8_c.html" target="_top" xlink:title=" ">
<polygon fill="white" stroke="black" points="1239.61,-55.5 1239.61,-73.5 1295.62,-73.5 1295.62,-55.5 1239.61,-55.5"/>
<text text-anchor="middle" x="1267.62" y="-61.5" font-family="Helvetica,sans-Serif" font-size="10.00">txmath.C</text>
</a>
</g>
</g>
<!-- Node1&#45;&gt;Node20 -->
<g id="edge19" class="edge">
<title>Node1&#45;&gt;Node20</title>
<path fill="none" stroke="midnightblue" d="M1194.22,-105.6C1212.47,-95.63 1237.17,-82.14 1252.74,-73.63"/>
<polygon fill="midnightblue" stroke="midnightblue" points="1192.45,-102.58 1185.35,-110.45 1195.8,-108.73 1192.45,-102.58"/>
</g>
<!-- Node21 -->
<g id="node21" class="node">
<title>Node21</title>
<g id="a_node21"><a xlink:href="../../d8/dc6/txmath1_8_c.html" target="_top" xlink:title=" ">
<polygon fill="white" stroke="black" points="1313.83,-55.5 1313.83,-73.5 1375.4,-73.5 1375.4,-55.5 1313.83,-55.5"/>
<text text-anchor="middle" x="1344.62" y="-61.5" font-family="Helvetica,sans-Serif" font-size="10.00">txmath1.C</text>
</a>
</g>
</g>
<!-- Node1&#45;&gt;Node21 -->
<g id="edge20" class="edge">
<title>Node1&#45;&gt;Node21</title>
<path fill="none" stroke="midnightblue" d="M1206.83,-107.47C1240.07,-97.35 1288.52,-82.59 1318.23,-73.54"/>
<polygon fill="midnightblue" stroke="midnightblue" points="1205.59,-104.19 1197.04,-110.45 1207.63,-110.88 1205.59,-104.19"/>
</g>
<!-- Node22 -->
<g id="node22" class="node">
<title>Node22</title>
<g id="a_node22"><a xlink:href="../../d7/dd3/txmathboot_8_c.html" target="_top" xlink:title=" ">
<polygon fill="white" stroke="black" points="1393.88,-55.5 1393.88,-73.5 1469.35,-73.5 1469.35,-55.5 1393.88,-55.5"/>
<text text-anchor="middle" x="1431.62" y="-61.5" font-family="Helvetica,sans-Serif" font-size="10.00">txmathboot.C</text>
</a>
</g>
</g>
<!-- Node1&#45;&gt;Node22 -->
<g id="edge21" class="edge">
<title>Node1&#45;&gt;Node22</title>
<path fill="none" stroke="midnightblue" d="M1208.54,-110.8C1258.08,-100.74 1344.34,-83.22 1393.82,-73.17"/>
<polygon fill="midnightblue" stroke="midnightblue" points="1207.65,-107.41 1198.55,-112.83 1209.04,-114.27 1207.65,-107.41"/>
</g>
<!-- Node23 -->
<g id="node23" class="node">
<title>Node23</title>
<g id="a_node23"><a xlink:href="../../dd/d48/txmlio_8_c.html" target="_top" xlink:title=" ">
<polygon fill="white" stroke="black" points="1487.56,-55.5 1487.56,-73.5 1539.67,-73.5 1539.67,-55.5 1487.56,-55.5"/>
<text text-anchor="middle" x="1513.62" y="-61.5" font-family="Helvetica,sans-Serif" font-size="10.00">txmlio.C</text>
</a>
</g>
</g>
<!-- Node1&#45;&gt;Node23 -->
<g id="edge22" class="edge">
<title>Node1&#45;&gt;Node23</title>
<path fill="none" stroke="midnightblue" d="M1208.59,-114.19C1266.92,-107.3 1381.99,-92.67 1478.62,-74 1481.44,-73.45 1484.38,-72.83 1487.3,-72.17"/>
<polygon fill="midnightblue" stroke="midnightblue" points="1207.9,-110.75 1198.37,-115.38 1208.71,-117.7 1207.9,-110.75"/>
</g>
<!-- Node24 -->
<g id="node24" class="node">
<title>Node24</title>
<g id="a_node24"><a xlink:href="../../d7/dc3/txparser_8_c.html" target="_top" xlink:title=" ">
<polygon fill="white" stroke="black" points="1557.83,-55.5 1557.83,-73.5 1619.4,-73.5 1619.4,-55.5 1557.83,-55.5"/>
<text text-anchor="middle" x="1588.62" y="-61.5" font-family="Helvetica,sans-Serif" font-size="10.00">txparser.C</text>
</a>
</g>
</g>
<!-- Node1&#45;&gt;Node24 -->
<g id="edge23" class="edge">
<title>Node1&#45;&gt;Node24</title>
<path fill="none" stroke="midnightblue" d="M1209.01,-115.16C1277.51,-108.94 1425.15,-94.34 1548.62,-74 1551.56,-73.52 1554.61,-72.96 1557.66,-72.37"/>
<polygon fill="midnightblue" stroke="midnightblue" points="1208.36,-111.7 1198.72,-116.09 1208.99,-118.68 1208.36,-111.7"/>
</g>
<!-- Node25 -->
<g id="node25" class="node">
<title>Node25</title>
<g id="a_node25"><a xlink:href="../../d5/d2e/txparser2_8_c.html" target="_top" xlink:title=" ">
<polygon fill="white" stroke="black" points="1637.77,-55.5 1637.77,-73.5 1705.46,-73.5 1705.46,-55.5 1637.77,-55.5"/>
<text text-anchor="middle" x="1671.62" y="-61.5" font-family="Helvetica,sans-Serif" font-size="10.00">txparser2.C</text>
</a>
</g>
</g>
<!-- Node1&#45;&gt;Node25 -->
<g id="edge24" class="edge">
<title>Node1&#45;&gt;Node25</title>
<path fill="none" stroke="midnightblue" d="M1208.73,-116.07C1287.47,-110.77 1473.68,-96.78 1628.62,-74 1631.48,-73.58 1634.44,-73.1 1637.4,-72.58"/>
<polygon fill="midnightblue" stroke="midnightblue" points="1208.1,-112.6 1198.35,-116.76 1208.56,-119.59 1208.1,-112.6"/>
</g>
<!-- Node26 -->
<g id="node26" class="node">
<title>Node26</title>
<g id="a_node26"><a xlink:href="../../d4/d5c/txparser3_8_c.html" target="_top" xlink:title=" ">
<polygon fill="white" stroke="black" points="1723.77,-55.5 1723.77,-73.5 1791.46,-73.5 1791.46,-55.5 1723.77,-55.5"/>
<text text-anchor="middle" x="1757.62" y="-61.5" font-family="Helvetica,sans-Serif" font-size="10.00">txparser3.C</text>
</a>
</g>
</g>
<!-- Node1&#45;&gt;Node26 -->
<g id="edge25" class="edge">
<title>Node1&#45;&gt;Node26</title>
<path fill="none" stroke="midnightblue" d="M1208.61,-116.88C1297.48,-112.76 1525.67,-100.32 1714.62,-74 1717.48,-73.6 1720.44,-73.13 1723.41,-72.63"/>
<polygon fill="midnightblue" stroke="midnightblue" points="1208.31,-113.39 1198.48,-117.34 1208.63,-120.38 1208.31,-113.39"/>
</g>
<!-- Node27 -->
<g id="node27" class="node">
<title>Node27</title>
<g id="a_node27"><a xlink:href="../../db/d66/txpost_8_c.html" target="_top" xlink:title=" ">
<polygon fill="white" stroke="black" points="1809.28,-55.5 1809.28,-73.5 1861.96,-73.5 1861.96,-55.5 1809.28,-55.5"/>
<text text-anchor="middle" x="1835.62" y="-61.5" font-family="Helvetica,sans-Serif" font-size="10.00">txpost.C</text>
</a>
</g>
</g>
<!-- Node1&#45;&gt;Node27 -->
<g id="edge26" class="edge">
<title>Node1&#45;&gt;Node27</title>
<path fill="none" stroke="midnightblue" d="M1208.48,-118.03C1306.78,-116.35 1577.96,-108.65 1800.62,-74 1803.33,-73.58 1806.15,-73.05 1808.96,-72.46"/>
<polygon fill="midnightblue" stroke="midnightblue" points="1208.38,-114.53 1198.44,-118.19 1208.49,-121.53 1208.38,-114.53"/>
</g>
<!-- Node28 -->
<g id="node28" class="node">
<title>Node28</title>
<g id="a_node28"><a xlink:href="../../dc/d4c/txra_8_c.html" target="_top" xlink:title=" ">
<polygon fill="white" stroke="black" points="1880.28,-55.5 1880.28,-73.5 1922.95,-73.5 1922.95,-55.5 1880.28,-55.5"/>
<text text-anchor="middle" x="1901.62" y="-61.5" font-family="Helvetica,sans-Serif" font-size="10.00">txra.C</text>
</a>
</g>
</g>
<!-- Node1&#45;&gt;Node28 -->
<g id="edge27" class="edge">
<title>Node1&#45;&gt;Node28</title>
<path fill="none" stroke="midnightblue" d="M1208.71,-118.8C1314.52,-119.03 1620.67,-115.76 1870.62,-74 1873.7,-73.48 1876.92,-72.79 1880.06,-72.01"/>
<polygon fill="midnightblue" stroke="midnightblue" points="1208.54,-115.29 1198.53,-118.76 1208.51,-122.29 1208.54,-115.29"/>
</g>
<!-- Node29 -->
<g id="node29" class="node">
<title>Node29</title>
<g id="a_node29"><a xlink:href="../../d2/dee/txscan_8_c.html" target="_top" xlink:title=" ">
<polygon fill="white" stroke="black" points="1941.17,-55.5 1941.17,-73.5 1996.07,-73.5 1996.07,-55.5 1941.17,-55.5"/>
<text text-anchor="middle" x="1968.62" y="-61.5" font-family="Helvetica,sans-Serif" font-size="10.00">txscan.C</text>
</a>
</g>
</g>
<!-- Node1&#45;&gt;Node29 -->
<g id="edge28" class="edge">
<title>Node1&#45;&gt;Node29</title>
<path fill="none" stroke="midnightblue" d="M1208.5,-118.52C1319.96,-118.1 1656.21,-113.4 1931.62,-74 1934.62,-73.57 1937.73,-73.02 1940.83,-72.41"/>
<polygon fill="midnightblue" stroke="midnightblue" points="1208.42,-115.02 1198.43,-118.55 1208.44,-122.02 1208.42,-115.02"/>
</g>
<!-- Node30 -->
<g id="node30" class="node">
<title>Node30</title>
<g id="a_node30"><a xlink:href="../../d3/df2/txstack_8_c.html" target="_top" xlink:title=" ">
<polygon fill="white" stroke="black" points="2014.06,-55.5 2014.06,-73.5 2071.17,-73.5 2071.17,-55.5 2014.06,-55.5"/>
<text text-anchor="middle" x="2042.62" y="-61.5" font-family="Helvetica,sans-Serif" font-size="10.00">txstack.C</text>
</a>
</g>
</g>
<!-- Node1&#45;&gt;Node30 -->
<g id="edge29" class="edge">
<title>Node1&#45;&gt;Node30</title>
<path fill="none" stroke="midnightblue" d="M1208.5,-118.72C1326.79,-118.93 1699.6,-115.95 2004.62,-74 2007.56,-73.59 2010.62,-73.08 2013.66,-72.5"/>
<polygon fill="midnightblue" stroke="midnightblue" points="1208.5,-115.22 1198.49,-118.69 1208.48,-122.22 1208.5,-115.22"/>
</g>
<!-- Node31 -->
<g id="node31" class="node">
<title>Node31</title>
<g id="a_node31"><a xlink:href="../../da/d89/txtitlepage_8_c.html" target="_top" xlink:title=" ">
<polygon fill="white" stroke="black" points="2088.82,-55.5 2088.82,-73.5 2160.41,-73.5 2160.41,-55.5 2088.82,-55.5"/>
<text text-anchor="middle" x="2124.62" y="-61.5" font-family="Helvetica,sans-Serif" font-size="10.00">txtitlepage.C</text>
</a>
</g>
</g>
<!-- Node1&#45;&gt;Node31 -->
<g id="edge30" class="edge">
<title>Node1&#45;&gt;Node31</title>
<path fill="none" stroke="midnightblue" d="M1208.9,-118.57C1334.4,-118.38 1744.53,-114.47 2080.62,-74 2083.24,-73.68 2085.95,-73.3 2088.66,-72.88"/>
<polygon fill="midnightblue" stroke="midnightblue" points="1208.66,-115.07 1198.66,-118.58 1208.67,-122.07 1208.66,-115.07"/>
</g>
<!-- Node32 -->
<g id="node32" class="node">
<title>Node32</title>
<g id="a_node32"><a xlink:href="../../d9/d1e/txtoken_8_c.html" target="_top" xlink:title=" ">
<polygon fill="white" stroke="black" points="2178.5,-55.5 2178.5,-73.5 2236.74,-73.5 2236.74,-55.5 2178.5,-55.5"/>
<text text-anchor="middle" x="2207.62" y="-61.5" font-family="Helvetica,sans-Serif" font-size="10.00">txtoken.C</text>
</a>
</g>
</g>
<!-- Node1&#45;&gt;Node32 -->
<g id="edge31" class="edge">
<title>Node1&#45;&gt;Node32</title>
<path fill="none" stroke="midnightblue" d="M1208.9,-117.69C1368.16,-114.2 1978.68,-99.41 2169.62,-74 2172.43,-73.63 2175.34,-73.15 2178.25,-72.6"/>
<polygon fill="midnightblue" stroke="midnightblue" points="1208.57,-114.2 1198.65,-117.92 1208.72,-121.2 1208.57,-114.2"/>
</g>
<!-- Node33 -->
<g id="node33" class="node">
<title>Node33</title>
<g id="a_node33"><a xlink:href="../../d5/dda/txtranslate_8_c.html" target="_top" xlink:title=" ">
<polygon fill="white" stroke="black" points="2254.55,-55.5 2254.55,-73.5 2326.68,-73.5 2326.68,-55.5 2254.55,-55.5"/>
<text text-anchor="middle" x="2290.62" y="-61.5" font-family="Helvetica,sans-Serif" font-size="10.00">txtranslate.C</text>
</a>
</g>
</g>
<!-- Node1&#45;&gt;Node33 -->
<g id="edge32" class="edge">
<title>Node1&#45;&gt;Node33</title>
<path fill="none" stroke="midnightblue" d="M1208.7,-118.92C1347.87,-120.03 1841.83,-120.24 2245.62,-74 2248.46,-73.67 2251.39,-73.27 2254.34,-72.82"/>
<polygon fill="midnightblue" stroke="midnightblue" points="1208.58,-115.42 1198.55,-118.83 1208.52,-122.42 1208.58,-115.42"/>
</g>
<!-- Node34 -->
<g id="node34" class="node">
<title>Node34</title>
<g id="a_node34"><a xlink:href="../../da/d9e/txtrees_8_c.html" target="_top" xlink:title=" ">
<polygon fill="white" stroke="black" points="2344.61,-55.5 2344.61,-73.5 2400.62,-73.5 2400.62,-55.5 2344.61,-55.5"/>
<text text-anchor="middle" x="2372.62" y="-61.5" font-family="Helvetica,sans-Serif" font-size="10.00">txtrees.C</text>
</a>
</g>
</g>
<!-- Node1&#45;&gt;Node34 -->
<g id="edge33" class="edge">
<title>Node1&#45;&gt;Node34</title>
<path fill="none" stroke="midnightblue" d="M1208.59,-118.01C1383.21,-115.6 2110.23,-103.92 2335.62,-74 2338.49,-73.62 2341.47,-73.12 2344.43,-72.55"/>
<polygon fill="midnightblue" stroke="midnightblue" points="1208.54,-114.51 1198.58,-118.14 1208.63,-121.51 1208.54,-114.51"/>
</g>
<!-- Node10 -->
<g id="node10" class="node">
<title>Node10</title>
<g id="a_node10"><a xlink:href="../../d1/d56/txbib_8_c.html" target="_top" xlink:title=" ">
<polygon fill="white" stroke="black" points="517.05,-0.5 517.05,-18.5 564.18,-18.5 564.18,-0.5 517.05,-0.5"/>
<text text-anchor="middle" x="540.62" y="-6.5" font-family="Helvetica,sans-Serif" font-size="10.00">txbib.C</text>
</a>
</g>
</g>
<!-- Node9&#45;&gt;Node10 -->
<g id="edge9" class="edge">
<title>Node9&#45;&gt;Node10</title>
<path fill="none" stroke="midnightblue" d="M540.62,-45.17C540.62,-36.09 540.62,-25.59 540.62,-18.55"/>
<polygon fill="midnightblue" stroke="midnightblue" points="537.12,-45.22 540.62,-55.22 544.12,-45.22 537.12,-45.22"/>
</g>
</g>
</svg>
