<?xml version="1.0" encoding="UTF-8" standalone="no"?>
<!DOCTYPE svg PUBLIC "-//W3C//DTD SVG 1.1//EN"
 "http://www.w3.org/Graphics/SVG/1.1/DTD/svg11.dtd">
<!-- Generated by graphviz version 2.43.0 (0)
 -->
<!-- Title: txcommands.C Pages: 1 -->
<svg width="933pt" height="742pt"
 viewBox="0.00 0.00 933.13 742.00" xmlns="http://www.w3.org/2000/svg" xmlns:xlink="http://www.w3.org/1999/xlink">
<g id="graph0" class="graph" transform="scale(1 1) rotate(0) translate(4 738)">
<title>txcommands.C</title>
<polygon fill="white" stroke="transparent" points="-4,4 -4,-738 929.13,-738 929.13,4 -4,4"/>
<!-- Node1 -->
<g id="node1" class="node">
<title>Node1</title>
<g id="a_node1"><a xlink:title=" ">
<polygon fill="#bfbfbf" stroke="black" points="306.17,-715.5 306.17,-733.5 388.85,-733.5 388.85,-715.5 306.17,-715.5"/>
<text text-anchor="middle" x="347.51" y="-721.5" font-family="Helvetica,sans-Serif" font-size="10.00">txcommands.C</text>
</a>
</g>
</g>
<!-- Node2 -->
<g id="node2" class="node">
<title>Node2</title>
<g id="a_node2"><a xlink:href="../../d5/d87/globals_8h.html" target="_top" xlink:title=" ">
<polygon fill="white" stroke="black" points="205.05,-440.5 205.05,-458.5 289.97,-458.5 289.97,-440.5 205.05,-440.5"/>
<text text-anchor="middle" x="247.51" y="-446.5" font-family="Helvetica,sans-Serif" font-size="10.00">tralics/globals.h</text>
</a>
</g>
</g>
<!-- Node1&#45;&gt;Node2 -->
<g id="edge1" class="edge">
<title>Node1&#45;&gt;Node2</title>
<path fill="none" stroke="midnightblue" d="M329.7,-715.34C299.74,-700.24 242.51,-664.93 242.51,-615.5 242.51,-615.5 242.51,-615.5 242.51,-558.5 242.51,-526.98 244.66,-490.35 246.14,-468.87"/>
<polygon fill="midnightblue" stroke="midnightblue" points="249.65,-468.85 246.88,-458.62 242.67,-468.35 249.65,-468.85"/>
</g>
<!-- Node14 -->
<g id="node14" class="node">
<title>Node14</title>
<g id="a_node14"><a xlink:href="../../dc/dd7/txclasses_8h.html" target="_top" xlink:title=" ">
<polygon fill="white" stroke="black" points="315.78,-495.5 315.78,-513.5 381.24,-513.5 381.24,-495.5 315.78,-495.5"/>
<text text-anchor="middle" x="348.51" y="-501.5" font-family="Helvetica,sans-Serif" font-size="10.00">txclasses.h</text>
</a>
</g>
</g>
<!-- Node1&#45;&gt;Node14 -->
<g id="edge14" class="edge">
<title>Node1&#45;&gt;Node14</title>
<path fill="none" stroke="midnightblue" d="M346.06,-715.47C342.77,-696.35 335.22,-646.64 337.51,-605 339.08,-576.57 343.15,-543.77 345.87,-523.85"/>
<polygon fill="midnightblue" stroke="midnightblue" points="349.37,-524.12 347.29,-513.73 342.43,-523.15 349.37,-524.12"/>
</g>
<!-- Node25 -->
<g id="node25" class="node">
<title>Node25</title>
<g id="a_node25"><a xlink:href="../../d7/d79/txinline_8h.html" target="_top" xlink:title=" ">
<polygon fill="white" stroke="black" points="387.78,-660.5 387.78,-678.5 443.25,-678.5 443.25,-660.5 387.78,-660.5"/>
<text text-anchor="middle" x="415.51" y="-666.5" font-family="Helvetica,sans-Serif" font-size="10.00">txinline.h</text>
</a>
</g>
</g>
<!-- Node1&#45;&gt;Node25 -->
<g id="edge33" class="edge">
<title>Node1&#45;&gt;Node25</title>
<path fill="none" stroke="midnightblue" d="M357.84,-715.45C368.22,-707.36 384.46,-694.7 397.06,-684.88"/>
<polygon fill="midnightblue" stroke="midnightblue" points="399.35,-687.53 405.09,-678.63 395.05,-682.01 399.35,-687.53"/>
</g>
<!-- Node33 -->
<g id="node33" class="node">
<title>Node33</title>
<g id="a_node33"><a xlink:href="../../d2/d1b/txparser_8h.html" target="_top" xlink:title=" ">
<polygon fill="white" stroke="black" points="682.55,-660.5 682.55,-678.5 742.47,-678.5 742.47,-660.5 682.55,-660.5"/>
<text text-anchor="middle" x="712.51" y="-666.5" font-family="Helvetica,sans-Serif" font-size="10.00">txparser.h</text>
</a>
</g>
</g>
<!-- Node1&#45;&gt;Node33 -->
<g id="edge45" class="edge">
<title>Node1&#45;&gt;Node33</title>
<path fill="none" stroke="midnightblue" d="M389.03,-717.47C459.58,-707.23 602.02,-686.54 671.94,-676.39"/>
<polygon fill="midnightblue" stroke="midnightblue" points="672.72,-679.82 682.11,-674.91 671.71,-672.89 672.72,-679.82"/>
</g>
<!-- Node3 -->
<g id="node3" class="node">
<title>Node3</title>
<g id="a_node3"><a xlink:href="../../dc/de8/txvars_8h.html" target="_top" xlink:title=" ">
<polygon fill="white" stroke="black" points="220.84,-275.5 220.84,-293.5 280.18,-293.5 280.18,-275.5 220.84,-275.5"/>
<text text-anchor="middle" x="250.51" y="-281.5" font-family="Helvetica,sans-Serif" font-size="10.00">../txvars.h</text>
</a>
</g>
</g>
<!-- Node2&#45;&gt;Node3 -->
<g id="edge2" class="edge">
<title>Node2&#45;&gt;Node3</title>
<path fill="none" stroke="midnightblue" d="M247.67,-440.19C248.13,-415.01 249.53,-339.11 250.17,-303.86"/>
<polygon fill="midnightblue" stroke="midnightblue" points="253.68,-303.66 250.36,-293.6 246.68,-303.53 253.68,-303.66"/>
</g>
<!-- Node10 -->
<g id="node10" class="node">
<title>Node10</title>
<g id="a_node10"><a xlink:href="../../d8/d47/codepoint_8h.html" target="_top" xlink:title=" ">
<polygon fill="white" stroke="black" points="104.66,-165.5 104.66,-183.5 172.37,-183.5 172.37,-165.5 104.66,-165.5"/>
<text text-anchor="middle" x="138.51" y="-171.5" font-family="Helvetica,sans-Serif" font-size="10.00">codepoint.h</text>
</a>
</g>
</g>
<!-- Node2&#45;&gt;Node10 -->
<g id="edge9" class="edge">
<title>Node2&#45;&gt;Node10</title>
<path fill="none" stroke="midnightblue" d="M204.68,-440.4C154.91,-428.23 79.51,-399.97 79.51,-340.5 79.51,-340.5 79.51,-340.5 79.51,-283.5 79.51,-254.04 84.09,-245.69 98.51,-220 104.54,-209.27 113.56,-198.93 121.5,-190.93"/>
<polygon fill="midnightblue" stroke="midnightblue" points="124.16,-193.23 128.95,-183.78 119.31,-188.19 124.16,-193.23"/>
</g>
<!-- Node11 -->
<g id="node11" class="node">
<title>Node11</title>
<g id="a_node11"><a xlink:title=" ">
<polygon fill="white" stroke="#bfbfbf" points="433.29,-220.5 433.29,-238.5 473.74,-238.5 473.74,-220.5 433.29,-220.5"/>
<text text-anchor="middle" x="453.51" y="-226.5" font-family="Helvetica,sans-Serif" font-size="10.00">string</text>
</a>
</g>
</g>
<!-- Node2&#45;&gt;Node11 -->
<g id="edge11" class="edge">
<title>Node2&#45;&gt;Node11</title>
<path fill="none" stroke="midnightblue" d="M259.83,-440.28C289.09,-420.61 361.81,-370.83 381.51,-349 407.15,-320.6 405.54,-307.64 425.51,-275 431.13,-265.82 437.51,-255.66 442.76,-247.37"/>
<polygon fill="midnightblue" stroke="midnightblue" points="445.88,-248.98 448.29,-238.66 439.97,-245.23 445.88,-248.98"/>
</g>
<!-- Node12 -->
<g id="node12" class="node">
<title>Node12</title>
<g id="a_node12"><a xlink:title=" ">
<polygon fill="white" stroke="#bfbfbf" points="347.9,-385.5 347.9,-403.5 391.13,-403.5 391.13,-385.5 347.9,-385.5"/>
<text text-anchor="middle" x="369.51" y="-391.5" font-family="Helvetica,sans-Serif" font-size="10.00">vector</text>
</a>
</g>
</g>
<!-- Node2&#45;&gt;Node12 -->
<g id="edge12" class="edge">
<title>Node2&#45;&gt;Node12</title>
<path fill="none" stroke="midnightblue" d="M266.04,-440.45C286.11,-431.73 318.34,-417.73 341.5,-407.67"/>
<polygon fill="midnightblue" stroke="midnightblue" points="343.03,-410.82 350.81,-403.63 340.24,-404.4 343.03,-410.82"/>
</g>
<!-- Node13 -->
<g id="node13" class="node">
<title>Node13</title>
<g id="a_node13"><a xlink:title=" ">
<polygon fill="white" stroke="#bfbfbf" points="0,-385.5 0,-403.5 51.02,-403.5 51.02,-385.5 0,-385.5"/>
<text text-anchor="middle" x="25.51" y="-391.5" font-family="Helvetica,sans-Serif" font-size="10.00">unistd.h</text>
</a>
</g>
</g>
<!-- Node2&#45;&gt;Node13 -->
<g id="edge13" class="edge">
<title>Node2&#45;&gt;Node13</title>
<path fill="none" stroke="midnightblue" d="M213.8,-440.45C172.56,-430.61 103.07,-414.02 61.03,-403.98"/>
<polygon fill="midnightblue" stroke="midnightblue" points="61.76,-400.56 51.22,-401.64 60.14,-407.36 61.76,-400.56"/>
</g>
<!-- Node4 -->
<g id="node4" class="node">
<title>Node4</title>
<g id="a_node4"><a xlink:href="../../d0/d0b/enums_8h.html" target="_top" xlink:title=" ">
<polygon fill="white" stroke="black" points="223.89,-165.5 223.89,-183.5 307.14,-183.5 307.14,-165.5 223.89,-165.5"/>
<text text-anchor="middle" x="265.51" y="-171.5" font-family="Helvetica,sans-Serif" font-size="10.00">tralics/enums.h</text>
</a>
</g>
</g>
<!-- Node3&#45;&gt;Node4 -->
<g id="edge3" class="edge">
<title>Node3&#45;&gt;Node4</title>
<path fill="none" stroke="midnightblue" d="M258.42,-275.48C266.02,-267.16 277,-253.37 281.51,-239 286.35,-223.59 280.89,-205.74 275.08,-192.89"/>
<polygon fill="midnightblue" stroke="midnightblue" points="278.13,-191.18 270.53,-183.8 271.88,-194.31 278.13,-191.18"/>
</g>
<!-- Node9 -->
<g id="node9" class="node">
<title>Node9</title>
<g id="a_node9"><a xlink:title=" ">
<polygon fill="white" stroke="#bfbfbf" points="234.12,-220.5 234.12,-238.5 272.9,-238.5 272.9,-220.5 234.12,-220.5"/>
<text text-anchor="middle" x="253.51" y="-226.5" font-family="Helvetica,sans-Serif" font-size="10.00">array</text>
</a>
</g>
</g>
<!-- Node3&#45;&gt;Node9 -->
<g id="edge8" class="edge">
<title>Node3&#45;&gt;Node9</title>
<path fill="none" stroke="midnightblue" d="M250.98,-275.22C251.38,-268.18 251.97,-257.81 252.47,-248.83"/>
<polygon fill="midnightblue" stroke="midnightblue" points="255.99,-248.73 253.06,-238.55 249,-248.34 255.99,-248.73"/>
</g>
<!-- Node5 -->
<g id="node5" class="node">
<title>Node5</title>
<g id="a_node5"><a xlink:href="../../d8/db5/consts_8h.html" target="_top" xlink:title=" ">
<polygon fill="white" stroke="black" points="194.89,-110.5 194.89,-128.5 248.13,-128.5 248.13,-110.5 194.89,-110.5"/>
<text text-anchor="middle" x="221.51" y="-116.5" font-family="Helvetica,sans-Serif" font-size="10.00">consts.h</text>
</a>
</g>
</g>
<!-- Node4&#45;&gt;Node5 -->
<g id="edge4" class="edge">
<title>Node4&#45;&gt;Node5</title>
<path fill="none" stroke="midnightblue" d="M258.64,-165.22C252.27,-157.55 242.63,-145.94 234.77,-136.47"/>
<polygon fill="midnightblue" stroke="midnightblue" points="237.28,-134.01 228.19,-128.55 231.89,-138.48 237.28,-134.01"/>
</g>
<!-- Node6 -->
<g id="node6" class="node">
<title>Node6</title>
<g id="a_node6"><a xlink:href="../../d9/d49/types_8h.html" target="_top" xlink:title=" ">
<polygon fill="white" stroke="black" points="160.39,-55.5 160.39,-73.5 208.63,-73.5 208.63,-55.5 160.39,-55.5"/>
<text text-anchor="middle" x="184.51" y="-61.5" font-family="Helvetica,sans-Serif" font-size="10.00">types.h</text>
</a>
</g>
</g>
<!-- Node5&#45;&gt;Node6 -->
<g id="edge5" class="edge">
<title>Node5&#45;&gt;Node6</title>
<path fill="none" stroke="midnightblue" d="M215.73,-110.22C210.43,-102.63 202.44,-91.18 195.86,-81.76"/>
<polygon fill="midnightblue" stroke="midnightblue" points="198.73,-79.75 190.13,-73.55 192.99,-83.75 198.73,-79.75"/>
</g>
<!-- Node7 -->
<g id="node7" class="node">
<title>Node7</title>
<g id="a_node7"><a xlink:title=" ">
<polygon fill="white" stroke="#bfbfbf" points="124.4,-0.5 124.4,-18.5 172.63,-18.5 172.63,-0.5 124.4,-0.5"/>
<text text-anchor="middle" x="148.51" y="-6.5" font-family="Helvetica,sans-Serif" font-size="10.00">cassert</text>
</a>
</g>
</g>
<!-- Node6&#45;&gt;Node7 -->
<g id="edge6" class="edge">
<title>Node6&#45;&gt;Node7</title>
<path fill="none" stroke="midnightblue" d="M178.89,-55.22C173.79,-47.71 166.11,-36.41 159.75,-27.05"/>
<polygon fill="midnightblue" stroke="midnightblue" points="162.49,-24.86 153.98,-18.55 156.7,-28.79 162.49,-24.86"/>
</g>
<!-- Node8 -->
<g id="node8" class="node">
<title>Node8</title>
<g id="a_node8"><a xlink:title=" ">
<polygon fill="white" stroke="#bfbfbf" points="190.45,-0.5 190.45,-18.5 252.58,-18.5 252.58,-0.5 190.45,-0.5"/>
<text text-anchor="middle" x="221.51" y="-6.5" font-family="Helvetica,sans-Serif" font-size="10.00">type_traits</text>
</a>
</g>
</g>
<!-- Node6&#45;&gt;Node8 -->
<g id="edge7" class="edge">
<title>Node6&#45;&gt;Node8</title>
<path fill="none" stroke="midnightblue" d="M190.29,-55.22C195.59,-47.63 203.59,-36.18 210.16,-26.76"/>
<polygon fill="midnightblue" stroke="midnightblue" points="213.04,-28.75 215.89,-18.55 207.3,-24.75 213.04,-28.75"/>
</g>
<!-- Node10&#45;&gt;Node6 -->
<g id="edge10" class="edge">
<title>Node10&#45;&gt;Node6</title>
<path fill="none" stroke="midnightblue" d="M141.97,-165.38C149.4,-147.95 167.01,-106.59 177.09,-82.92"/>
<polygon fill="midnightblue" stroke="midnightblue" points="180.32,-84.28 181.01,-73.71 173.88,-81.54 180.32,-84.28"/>
</g>
<!-- Node15 -->
<g id="node15" class="node">
<title>Node15</title>
<g id="a_node15"><a xlink:href="../../dd/d74/txbuffer_8h.html" target="_top" xlink:title=" ">
<polygon fill="white" stroke="black" points="470.03,-440.5 470.03,-458.5 527,-458.5 527,-440.5 470.03,-440.5"/>
<text text-anchor="middle" x="498.51" y="-446.5" font-family="Helvetica,sans-Serif" font-size="10.00">txbuffer.h</text>
</a>
</g>
</g>
<!-- Node14&#45;&gt;Node15 -->
<g id="edge15" class="edge">
<title>Node14&#45;&gt;Node15</title>
<path fill="none" stroke="midnightblue" d="M371.29,-495.45C396.51,-486.54 437.37,-472.1 465.96,-462"/>
<polygon fill="midnightblue" stroke="midnightblue" points="467.25,-465.26 475.52,-458.63 464.92,-458.66 467.25,-465.26"/>
</g>
<!-- Node15&#45;&gt;Node12 -->
<g id="edge32" class="edge">
<title>Node15&#45;&gt;Node12</title>
<path fill="none" stroke="midnightblue" d="M478.92,-440.45C457.61,-431.7 423.32,-417.61 398.8,-407.53"/>
<polygon fill="midnightblue" stroke="midnightblue" points="399.87,-404.19 389.29,-403.63 397.21,-410.66 399.87,-404.19"/>
</g>
<!-- Node16 -->
<g id="node16" class="node">
<title>Node16</title>
<g id="a_node16"><a xlink:href="../../d1/d9e/txid_8h.html" target="_top" xlink:title=" ">
<polygon fill="white" stroke="black" points="459.56,-330.5 459.56,-348.5 499.46,-348.5 499.46,-330.5 459.56,-330.5"/>
<text text-anchor="middle" x="479.51" y="-336.5" font-family="Helvetica,sans-Serif" font-size="10.00">txid.h</text>
</a>
</g>
</g>
<!-- Node15&#45;&gt;Node16 -->
<g id="edge16" class="edge">
<title>Node15&#45;&gt;Node16</title>
<path fill="none" stroke="midnightblue" d="M497.08,-440.38C494.04,-423.1 486.87,-382.33 482.69,-358.56"/>
<polygon fill="midnightblue" stroke="midnightblue" points="486.14,-357.95 480.96,-348.71 479.24,-359.17 486.14,-357.95"/>
</g>
<!-- Node17 -->
<g id="node17" class="node">
<title>Node17</title>
<g id="a_node17"><a xlink:href="../../d9/d18/txscaled_8h.html" target="_top" xlink:title=" ">
<polygon fill="white" stroke="black" points="409,-385.5 409,-403.5 470.02,-403.5 470.02,-385.5 409,-385.5"/>
<text text-anchor="middle" x="439.51" y="-391.5" font-family="Helvetica,sans-Serif" font-size="10.00">txscaled.h</text>
</a>
</g>
</g>
<!-- Node15&#45;&gt;Node17 -->
<g id="edge19" class="edge">
<title>Node15&#45;&gt;Node17</title>
<path fill="none" stroke="midnightblue" d="M489.55,-440.45C480.71,-432.51 467,-420.19 456.16,-410.45"/>
<polygon fill="midnightblue" stroke="midnightblue" points="458.34,-407.7 448.56,-403.63 453.66,-412.91 458.34,-407.7"/>
</g>
<!-- Node24 -->
<g id="node24" class="node">
<title>Node24</title>
<g id="a_node24"><a xlink:title=" ">
<polygon fill="white" stroke="#bfbfbf" points="526.79,-385.5 526.79,-403.5 572.24,-403.5 572.24,-385.5 526.79,-385.5"/>
<text text-anchor="middle" x="549.51" y="-391.5" font-family="Helvetica,sans-Serif" font-size="10.00">cstring</text>
</a>
</g>
</g>
<!-- Node15&#45;&gt;Node24 -->
<g id="edge31" class="edge">
<title>Node15&#45;&gt;Node24</title>
<path fill="none" stroke="midnightblue" d="M506.48,-440.22C514.01,-432.39 525.49,-420.46 534.7,-410.89"/>
<polygon fill="midnightblue" stroke="midnightblue" points="537.35,-413.18 541.77,-403.55 532.31,-408.33 537.35,-413.18"/>
</g>
<!-- Node16&#45;&gt;Node3 -->
<g id="edge17" class="edge">
<title>Node16&#45;&gt;Node3</title>
<path fill="none" stroke="midnightblue" d="M459.19,-333.8C421.38,-325.05 339.6,-306.12 290.4,-294.73"/>
<polygon fill="midnightblue" stroke="midnightblue" points="290.95,-291.27 280.42,-292.42 289.37,-298.09 290.95,-291.27"/>
</g>
<!-- Node16&#45;&gt;Node11 -->
<g id="edge18" class="edge">
<title>Node16&#45;&gt;Node11</title>
<path fill="none" stroke="midnightblue" d="M481.31,-330.48C483.72,-318.25 487.08,-294.29 481.51,-275 478.57,-264.8 472.53,-254.69 466.81,-246.69"/>
<polygon fill="midnightblue" stroke="midnightblue" points="469.52,-244.48 460.66,-238.66 463.96,-248.73 469.52,-244.48"/>
</g>
<!-- Node18 -->
<g id="node18" class="node">
<title>Node18</title>
<g id="a_node18"><a xlink:href="../../dc/d91/txtokenlist_8h.html" target="_top" xlink:title=" ">
<polygon fill="white" stroke="black" points="304.11,-330.5 304.11,-348.5 372.91,-348.5 372.91,-330.5 304.11,-330.5"/>
<text text-anchor="middle" x="338.51" y="-336.5" font-family="Helvetica,sans-Serif" font-size="10.00">txtokenlist.h</text>
</a>
</g>
</g>
<!-- Node17&#45;&gt;Node18 -->
<g id="edge20" class="edge">
<title>Node17&#45;&gt;Node18</title>
<path fill="none" stroke="midnightblue" d="M424.17,-385.45C407.93,-376.93 382.06,-363.35 363,-353.35"/>
<polygon fill="midnightblue" stroke="midnightblue" points="364.48,-350.17 354,-348.63 361.22,-356.37 364.48,-350.17"/>
</g>
<!-- Node18&#45;&gt;Node3 -->
<g id="edge29" class="edge">
<title>Node18&#45;&gt;Node3</title>
<path fill="none" stroke="midnightblue" d="M325.15,-330.45C311.32,-322.12 289.48,-308.97 272.99,-299.04"/>
<polygon fill="midnightblue" stroke="midnightblue" points="274.38,-295.79 264,-293.63 270.76,-301.78 274.38,-295.79"/>
</g>
<!-- Node19 -->
<g id="node19" class="node">
<title>Node19</title>
<g id="a_node19"><a xlink:href="../../d5/daf/_istring_8h.html" target="_top" xlink:title=" ">
<polygon fill="white" stroke="black" points="298.28,-275.5 298.28,-293.5 378.74,-293.5 378.74,-275.5 298.28,-275.5"/>
<text text-anchor="middle" x="338.51" y="-281.5" font-family="Helvetica,sans-Serif" font-size="10.00">tralics/Istring.h</text>
</a>
</g>
</g>
<!-- Node18&#45;&gt;Node19 -->
<g id="edge21" class="edge">
<title>Node18&#45;&gt;Node19</title>
<path fill="none" stroke="midnightblue" d="M338.51,-330.22C338.51,-323.18 338.51,-312.81 338.51,-303.83"/>
<polygon fill="midnightblue" stroke="midnightblue" points="342.01,-303.55 338.51,-293.55 335.01,-303.55 342.01,-303.55"/>
</g>
<!-- Node20 -->
<g id="node20" class="node">
<title>Node20</title>
<g id="a_node20"><a xlink:href="../../dd/dcd/_token_8h.html" target="_top" xlink:title=" ">
<polygon fill="white" stroke="black" points="122.55,-275.5 122.55,-293.5 202.47,-293.5 202.47,-275.5 122.55,-275.5"/>
<text text-anchor="middle" x="162.51" y="-281.5" font-family="Helvetica,sans-Serif" font-size="10.00">tralics/Token.h</text>
</a>
</g>
</g>
<!-- Node18&#45;&gt;Node20 -->
<g id="edge24" class="edge">
<title>Node18&#45;&gt;Node20</title>
<path fill="none" stroke="midnightblue" d="M311.78,-330.45C281.72,-321.4 232.71,-306.64 199.1,-296.52"/>
<polygon fill="midnightblue" stroke="midnightblue" points="199.79,-293.07 189.21,-293.54 197.77,-299.77 199.79,-293.07"/>
</g>
<!-- Node23 -->
<g id="node23" class="node">
<title>Node23</title>
<g id="a_node23"><a xlink:title=" ">
<polygon fill="white" stroke="#bfbfbf" points="434.12,-275.5 434.12,-293.5 472.9,-293.5 472.9,-275.5 434.12,-275.5"/>
<text text-anchor="middle" x="453.51" y="-281.5" font-family="Helvetica,sans-Serif" font-size="10.00">utility</text>
</a>
</g>
</g>
<!-- Node18&#45;&gt;Node23 -->
<g id="edge30" class="edge">
<title>Node18&#45;&gt;Node23</title>
<path fill="none" stroke="midnightblue" d="M355.98,-330.45C374.72,-321.81 404.73,-307.98 426.52,-297.94"/>
<polygon fill="midnightblue" stroke="midnightblue" points="428.26,-300.99 435.88,-293.63 425.33,-294.63 428.26,-300.99"/>
</g>
<!-- Node19&#45;&gt;Node4 -->
<g id="edge22" class="edge">
<title>Node19&#45;&gt;Node4</title>
<path fill="none" stroke="midnightblue" d="M333.14,-275.24C325.21,-263.08 309.88,-239.68 296.51,-220 290.21,-210.72 283.06,-200.44 277.21,-192.1"/>
<polygon fill="midnightblue" stroke="midnightblue" points="279.9,-189.83 271.29,-183.66 274.17,-193.85 279.9,-189.83"/>
</g>
<!-- Node19&#45;&gt;Node11 -->
<g id="edge23" class="edge">
<title>Node19&#45;&gt;Node11</title>
<path fill="none" stroke="midnightblue" d="M355.98,-275.45C374.72,-266.81 404.73,-252.98 426.52,-242.94"/>
<polygon fill="midnightblue" stroke="midnightblue" points="428.26,-245.99 435.88,-238.63 425.33,-239.63 428.26,-245.99"/>
</g>
<!-- Node21 -->
<g id="node21" class="node">
<title>Node21</title>
<g id="a_node21"><a xlink:href="../../d2/d68/_cmd_chr_8h.html" target="_top" xlink:title=" ">
<polygon fill="white" stroke="black" points="108,-220.5 108,-238.5 169.02,-238.5 169.02,-220.5 108,-220.5"/>
<text text-anchor="middle" x="138.51" y="-226.5" font-family="Helvetica,sans-Serif" font-size="10.00">CmdChr.h</text>
</a>
</g>
</g>
<!-- Node20&#45;&gt;Node21 -->
<g id="edge25" class="edge">
<title>Node20&#45;&gt;Node21</title>
<path fill="none" stroke="midnightblue" d="M158.76,-275.22C155.47,-267.94 150.56,-257.11 146.41,-247.93"/>
<polygon fill="midnightblue" stroke="midnightblue" points="149.47,-246.22 142.16,-238.55 143.09,-249.1 149.47,-246.22"/>
</g>
<!-- Node22 -->
<g id="node22" class="node">
<title>Node22</title>
<g id="a_node22"><a xlink:title=" ">
<polygon fill="white" stroke="#bfbfbf" points="187.01,-220.5 187.01,-238.5 216.01,-238.5 216.01,-220.5 187.01,-220.5"/>
<text text-anchor="middle" x="201.12" y="-226.5" font-family="Helvetica,sans-Serif" font-size="10.00">list</text>
</a>
</g>
</g>
<!-- Node20&#45;&gt;Node22 -->
<g id="edge28" class="edge">
<title>Node20&#45;&gt;Node22</title>
<path fill="none" stroke="midnightblue" d="M168.61,-275.22C174.19,-267.63 182.62,-256.18 189.55,-246.76"/>
<polygon fill="midnightblue" stroke="midnightblue" points="192.48,-248.68 195.59,-238.55 186.84,-244.53 192.48,-248.68"/>
</g>
<!-- Node21&#45;&gt;Node4 -->
<g id="edge27" class="edge">
<title>Node21&#45;&gt;Node4</title>
<path fill="none" stroke="midnightblue" d="M157.8,-220.45C178.78,-211.7 212.54,-197.61 236.67,-187.53"/>
<polygon fill="midnightblue" stroke="midnightblue" points="238.16,-190.71 246.04,-183.63 235.47,-184.25 238.16,-190.71"/>
</g>
<!-- Node21&#45;&gt;Node10 -->
<g id="edge26" class="edge">
<title>Node21&#45;&gt;Node10</title>
<path fill="none" stroke="midnightblue" d="M138.51,-220.22C138.51,-213.18 138.51,-202.81 138.51,-193.83"/>
<polygon fill="midnightblue" stroke="midnightblue" points="142.01,-193.55 138.51,-183.55 135.01,-193.55 142.01,-193.55"/>
</g>
<!-- Node26 -->
<g id="node26" class="node">
<title>Node26</title>
<g id="a_node26"><a xlink:href="../../d4/de9/_main_class_8h.html" target="_top" xlink:title=" ">
<polygon fill="white" stroke="black" points="502.56,-605.5 502.56,-623.5 602.47,-623.5 602.47,-605.5 502.56,-605.5"/>
<text text-anchor="middle" x="552.51" y="-611.5" font-family="Helvetica,sans-Serif" font-size="10.00">tralics/MainClass.h</text>
</a>
</g>
</g>
<!-- Node25&#45;&gt;Node26 -->
<g id="edge34" class="edge">
<title>Node25&#45;&gt;Node26</title>
<path fill="none" stroke="midnightblue" d="M436.32,-660.45C459.15,-651.62 496.02,-637.35 522.1,-627.27"/>
<polygon fill="midnightblue" stroke="midnightblue" points="523.45,-630.5 531.51,-623.63 520.92,-623.97 523.45,-630.5"/>
</g>
<!-- Node30 -->
<g id="node30" class="node">
<title>Node30</title>
<g id="a_node30"><a xlink:href="../../d2/d06/txlogger_8h.html" target="_top" xlink:title=" ">
<polygon fill="white" stroke="black" points="346.83,-605.5 346.83,-623.5 406.2,-623.5 406.2,-605.5 346.83,-605.5"/>
<text text-anchor="middle" x="376.51" y="-611.5" font-family="Helvetica,sans-Serif" font-size="10.00">txlogger.h</text>
</a>
</g>
</g>
<!-- Node25&#45;&gt;Node30 -->
<g id="edge40" class="edge">
<title>Node25&#45;&gt;Node30</title>
<path fill="none" stroke="midnightblue" d="M409.42,-660.22C403.83,-652.63 395.41,-641.18 388.48,-631.76"/>
<polygon fill="midnightblue" stroke="midnightblue" points="391.18,-629.53 382.44,-623.55 385.54,-633.68 391.18,-629.53"/>
</g>
<!-- Node32 -->
<g id="node32" class="node">
<title>Node32</title>
<g id="a_node32"><a xlink:href="../../d5/d08/txparam_8h.html" target="_top" xlink:title=" ">
<polygon fill="white" stroke="black" points="424.28,-605.5 424.28,-623.5 484.74,-623.5 484.74,-605.5 424.28,-605.5"/>
<text text-anchor="middle" x="454.51" y="-611.5" font-family="Helvetica,sans-Serif" font-size="10.00">txparam.h</text>
</a>
</g>
</g>
<!-- Node25&#45;&gt;Node32 -->
<g id="edge43" class="edge">
<title>Node25&#45;&gt;Node32</title>
<path fill="none" stroke="midnightblue" d="M421.61,-660.22C427.19,-652.63 435.62,-641.18 442.55,-631.76"/>
<polygon fill="midnightblue" stroke="midnightblue" points="445.48,-633.68 448.59,-623.55 439.84,-629.53 445.48,-633.68"/>
</g>
<!-- Node27 -->
<g id="node27" class="node">
<title>Node27</title>
<g id="a_node27"><a xlink:href="../../de/d29/txio_8h.html" target="_top" xlink:title=" ">
<polygon fill="white" stroke="black" points="476.39,-550.5 476.39,-568.5 524.63,-568.5 524.63,-550.5 476.39,-550.5"/>
<text text-anchor="middle" x="500.51" y="-556.5" font-family="Helvetica,sans-Serif" font-size="10.00">../txio.h</text>
</a>
</g>
</g>
<!-- Node26&#45;&gt;Node27 -->
<g id="edge35" class="edge">
<title>Node26&#45;&gt;Node27</title>
<path fill="none" stroke="midnightblue" d="M544.39,-605.22C536.71,-597.39 525,-585.46 515.61,-575.89"/>
<polygon fill="midnightblue" stroke="midnightblue" points="517.91,-573.24 508.41,-568.55 512.91,-578.14 517.91,-573.24"/>
</g>
<!-- Node29 -->
<g id="node29" class="node">
<title>Node29</title>
<g id="a_node29"><a xlink:href="../../dc/def/txstring_8h.html" target="_top" xlink:title=" ">
<polygon fill="white" stroke="black" points="634.06,-495.5 634.06,-513.5 698.97,-513.5 698.97,-495.5 634.06,-495.5"/>
<text text-anchor="middle" x="666.51" y="-501.5" font-family="Helvetica,sans-Serif" font-size="10.00">../txstring.h</text>
</a>
</g>
</g>
<!-- Node26&#45;&gt;Node29 -->
<g id="edge38" class="edge">
<title>Node26&#45;&gt;Node29</title>
<path fill="none" stroke="midnightblue" d="M561.08,-605.38C580.06,-587.4 625.91,-543.97 650.42,-520.75"/>
<polygon fill="midnightblue" stroke="midnightblue" points="652.99,-523.13 657.84,-513.71 648.18,-518.05 652.99,-523.13"/>
</g>
<!-- Node27&#45;&gt;Node15 -->
<g id="edge36" class="edge">
<title>Node27&#45;&gt;Node15</title>
<path fill="none" stroke="midnightblue" d="M500.36,-550.38C500.04,-533.18 499.29,-492.7 498.85,-468.89"/>
<polygon fill="midnightblue" stroke="midnightblue" points="502.35,-468.65 498.66,-458.71 495.35,-468.77 502.35,-468.65"/>
</g>
<!-- Node28 -->
<g id="node28" class="node">
<title>Node28</title>
<g id="a_node28"><a xlink:title=" ">
<polygon fill="white" stroke="#bfbfbf" points="413.84,-495.5 413.84,-513.5 463.18,-513.5 463.18,-495.5 413.84,-495.5"/>
<text text-anchor="middle" x="438.51" y="-501.5" font-family="Helvetica,sans-Serif" font-size="10.00">fstream</text>
</a>
</g>
</g>
<!-- Node27&#45;&gt;Node28 -->
<g id="edge37" class="edge">
<title>Node27&#45;&gt;Node28</title>
<path fill="none" stroke="midnightblue" d="M491.1,-550.45C481.72,-542.43 467.11,-529.95 455.67,-520.17"/>
<polygon fill="midnightblue" stroke="midnightblue" points="457.89,-517.46 448.02,-513.63 453.34,-522.78 457.89,-517.46"/>
</g>
<!-- Node29&#45;&gt;Node15 -->
<g id="edge39" class="edge">
<title>Node29&#45;&gt;Node15</title>
<path fill="none" stroke="midnightblue" d="M641,-495.45C612.42,-486.44 565.92,-471.77 533.85,-461.65"/>
<polygon fill="midnightblue" stroke="midnightblue" points="534.58,-458.21 523.99,-458.54 532.48,-464.88 534.58,-458.21"/>
</g>
<!-- Node30&#45;&gt;Node28 -->
<g id="edge41" class="edge">
<title>Node30&#45;&gt;Node28</title>
<path fill="none" stroke="midnightblue" d="M377.71,-605.18C379.79,-592.54 384.93,-568.08 395.51,-550 402.01,-538.9 411.84,-528.45 420.46,-520.47"/>
<polygon fill="midnightblue" stroke="midnightblue" points="423.02,-522.87 428.2,-513.63 418.39,-517.62 423.02,-522.87"/>
</g>
<!-- Node31 -->
<g id="node31" class="node">
<title>Node31</title>
<g id="a_node31"><a xlink:title=" ">
<polygon fill="white" stroke="#bfbfbf" points="404.34,-550.5 404.34,-568.5 458.68,-568.5 458.68,-550.5 404.34,-550.5"/>
<text text-anchor="middle" x="431.51" y="-556.5" font-family="Helvetica,sans-Serif" font-size="10.00">iostream</text>
</a>
</g>
</g>
<!-- Node30&#45;&gt;Node31 -->
<g id="edge42" class="edge">
<title>Node30&#45;&gt;Node31</title>
<path fill="none" stroke="midnightblue" d="M385.11,-605.22C393.31,-597.32 405.86,-585.22 415.84,-575.61"/>
<polygon fill="midnightblue" stroke="midnightblue" points="418.39,-578.01 423.16,-568.55 413.53,-572.97 418.39,-578.01"/>
</g>
<!-- Node32&#45;&gt;Node27 -->
<g id="edge44" class="edge">
<title>Node32&#45;&gt;Node27</title>
<path fill="none" stroke="midnightblue" d="M461.7,-605.22C468.42,-597.47 478.64,-585.7 486.9,-576.18"/>
<polygon fill="midnightblue" stroke="midnightblue" points="489.61,-578.4 493.53,-568.55 484.33,-573.81 489.61,-578.4"/>
</g>
<!-- Node33&#45;&gt;Node27 -->
<g id="edge56" class="edge">
<title>Node33&#45;&gt;Node27</title>
<path fill="none" stroke="midnightblue" d="M701.1,-660.36C682.79,-647.54 645.47,-622.3 611.51,-605 586.05,-592.03 555.88,-580.14 533.43,-571.92"/>
<polygon fill="midnightblue" stroke="midnightblue" points="534.6,-568.62 524.01,-568.52 532.23,-575.21 534.6,-568.62"/>
</g>
<!-- Node34 -->
<g id="node34" class="node">
<title>Node34</title>
<g id="a_node34"><a xlink:href="../../d3/d6b/txcond_8h.html" target="_top" xlink:title=" ">
<polygon fill="white" stroke="black" points="325.61,-440.5 325.61,-458.5 379.41,-458.5 379.41,-440.5 325.61,-440.5"/>
<text text-anchor="middle" x="352.51" y="-446.5" font-family="Helvetica,sans-Serif" font-size="10.00">txcond.h</text>
</a>
</g>
</g>
<!-- Node33&#45;&gt;Node34 -->
<g id="edge46" class="edge">
<title>Node33&#45;&gt;Node34</title>
<path fill="none" stroke="midnightblue" d="M682.51,-669.07C602.96,-669.97 389.16,-668.13 337.51,-624 292.68,-585.69 283.5,-549.29 306.51,-495 311.68,-482.82 321.99,-472.34 331.55,-464.61"/>
<polygon fill="midnightblue" stroke="midnightblue" points="333.71,-467.37 339.6,-458.56 329.51,-461.77 333.71,-467.37"/>
</g>
<!-- Node35 -->
<g id="node35" class="node">
<title>Node35</title>
<g id="a_node35"><a xlink:href="../../d7/d4d/txfonts_8h.html" target="_top" xlink:title=" ">
<polygon fill="white" stroke="black" points="639.61,-550.5 639.61,-568.5 693.41,-568.5 693.41,-550.5 639.61,-550.5"/>
<text text-anchor="middle" x="666.51" y="-556.5" font-family="Helvetica,sans-Serif" font-size="10.00">txfonts.h</text>
</a>
</g>
</g>
<!-- Node33&#45;&gt;Node35 -->
<g id="edge48" class="edge">
<title>Node33&#45;&gt;Node35</title>
<path fill="none" stroke="midnightblue" d="M716.52,-660.23C722.01,-647.67 730.24,-623.29 721.51,-605 715.25,-591.88 703.02,-581.38 691.68,-573.88"/>
<polygon fill="midnightblue" stroke="midnightblue" points="693.27,-570.75 682.91,-568.52 689.62,-576.72 693.27,-570.75"/>
</g>
<!-- Node36 -->
<g id="node36" class="node">
<title>Node36</title>
<g id="a_node36"><a xlink:href="../../d7/d7e/txhash_8h.html" target="_top" xlink:title=" ">
<polygon fill="white" stroke="black" points="842.61,-605.5 842.61,-623.5 896.41,-623.5 896.41,-605.5 842.61,-605.5"/>
<text text-anchor="middle" x="869.51" y="-611.5" font-family="Helvetica,sans-Serif" font-size="10.00">txhash.h</text>
</a>
</g>
</g>
<!-- Node33&#45;&gt;Node36 -->
<g id="edge50" class="edge">
<title>Node33&#45;&gt;Node36</title>
<path fill="none" stroke="midnightblue" d="M736.36,-660.45C762.95,-651.47 806.14,-636.89 836.09,-626.78"/>
<polygon fill="midnightblue" stroke="midnightblue" points="837.35,-630.05 845.7,-623.54 835.11,-623.42 837.35,-630.05"/>
</g>
<!-- Node38 -->
<g id="node38" class="node">
<title>Node38</title>
<g id="a_node38"><a xlink:href="../../de/d7c/tximage_8h.html" target="_top" xlink:title=" ">
<polygon fill="white" stroke="black" points="517.83,-330.5 517.83,-348.5 577.19,-348.5 577.19,-330.5 517.83,-330.5"/>
<text text-anchor="middle" x="547.51" y="-336.5" font-family="Helvetica,sans-Serif" font-size="10.00">tximage.h</text>
</a>
</g>
</g>
<!-- Node33&#45;&gt;Node38 -->
<g id="edge53" class="edge">
<title>Node33&#45;&gt;Node38</title>
<path fill="none" stroke="midnightblue" d="M742.68,-665.24C790.87,-659.45 882.19,-645.88 905.51,-624 927,-603.85 924.51,-589.96 924.51,-560.5 924.51,-560.5 924.51,-560.5 924.51,-448.5 924.51,-378.95 684.4,-351.62 587.42,-343.43"/>
<polygon fill="midnightblue" stroke="midnightblue" points="587.66,-339.93 577.41,-342.6 587.09,-346.91 587.66,-339.93"/>
</g>
<!-- Node39 -->
<g id="node39" class="node">
<title>Node39</title>
<g id="a_node39"><a xlink:href="../../dc/d65/txstack_8h.html" target="_top" xlink:title=" ">
<polygon fill="white" stroke="black" points="768.78,-605.5 768.78,-623.5 824.24,-623.5 824.24,-605.5 768.78,-605.5"/>
<text text-anchor="middle" x="796.51" y="-611.5" font-family="Helvetica,sans-Serif" font-size="10.00">txstack.h</text>
</a>
</g>
</g>
<!-- Node33&#45;&gt;Node39 -->
<g id="edge57" class="edge">
<title>Node33&#45;&gt;Node39</title>
<path fill="none" stroke="midnightblue" d="M725.27,-660.45C738.47,-652.12 759.31,-638.97 775.05,-629.04"/>
<polygon fill="midnightblue" stroke="midnightblue" points="777.04,-631.92 783.63,-623.63 773.31,-626 777.04,-631.92"/>
</g>
<!-- Node42 -->
<g id="node42" class="node">
<title>Node42</title>
<g id="a_node42"><a xlink:href="../../d8/d3d/txstats_8h.html" target="_top" xlink:title=" ">
<polygon fill="white" stroke="black" points="658.89,-605.5 658.89,-623.5 712.13,-623.5 712.13,-605.5 658.89,-605.5"/>
<text text-anchor="middle" x="685.51" y="-611.5" font-family="Helvetica,sans-Serif" font-size="10.00">txstats.h</text>
</a>
</g>
</g>
<!-- Node33&#45;&gt;Node42 -->
<g id="edge61" class="edge">
<title>Node33&#45;&gt;Node42</title>
<path fill="none" stroke="midnightblue" d="M708.29,-660.22C704.55,-652.86 698.95,-641.88 694.24,-632.64"/>
<polygon fill="midnightblue" stroke="midnightblue" points="697.27,-630.87 689.61,-623.55 691.03,-634.05 697.27,-630.87"/>
</g>
<!-- Node34&#45;&gt;Node12 -->
<g id="edge47" class="edge">
<title>Node34&#45;&gt;Node12</title>
<path fill="none" stroke="midnightblue" d="M355.17,-440.22C357.48,-433.02 360.9,-422.35 363.82,-413.23"/>
<polygon fill="midnightblue" stroke="midnightblue" points="367.21,-414.14 366.93,-403.55 360.54,-412 367.21,-414.14"/>
</g>
<!-- Node35&#45;&gt;Node29 -->
<g id="edge49" class="edge">
<title>Node35&#45;&gt;Node29</title>
<path fill="none" stroke="midnightblue" d="M666.51,-550.22C666.51,-543.18 666.51,-532.81 666.51,-523.83"/>
<polygon fill="midnightblue" stroke="midnightblue" points="670.01,-523.55 666.51,-513.55 663.01,-523.55 670.01,-523.55"/>
</g>
<!-- Node37 -->
<g id="node37" class="node">
<title>Node37</title>
<g id="a_node37"><a xlink:href="../../d3/d01/txeqtb_8h.html" target="_top" xlink:title=" ">
<polygon fill="white" stroke="black" points="839.72,-550.5 839.72,-568.5 891.3,-568.5 891.3,-550.5 839.72,-550.5"/>
<text text-anchor="middle" x="865.51" y="-556.5" font-family="Helvetica,sans-Serif" font-size="10.00">txeqtb.h</text>
</a>
</g>
</g>
<!-- Node36&#45;&gt;Node37 -->
<g id="edge51" class="edge">
<title>Node36&#45;&gt;Node37</title>
<path fill="none" stroke="midnightblue" d="M868.89,-605.22C868.35,-598.1 867.56,-587.58 866.87,-578.53"/>
<polygon fill="midnightblue" stroke="midnightblue" points="870.36,-578.26 866.12,-568.55 863.38,-578.78 870.36,-578.26"/>
</g>
<!-- Node37&#45;&gt;Node29 -->
<g id="edge52" class="edge">
<title>Node37&#45;&gt;Node29</title>
<path fill="none" stroke="midnightblue" d="M839.5,-551.57C805.67,-542.56 746.25,-526.74 706.63,-516.19"/>
<polygon fill="midnightblue" stroke="midnightblue" points="707.33,-512.75 696.77,-513.56 705.53,-519.51 707.33,-512.75"/>
</g>
<!-- Node38&#45;&gt;Node11 -->
<g id="edge54" class="edge">
<title>Node38&#45;&gt;Node11</title>
<path fill="none" stroke="midnightblue" d="M541.46,-330.49C532.13,-318.26 513.53,-294.31 496.51,-275 487.79,-265.11 477.55,-254.47 469.24,-246.07"/>
<polygon fill="midnightblue" stroke="midnightblue" points="471.54,-243.42 461.99,-238.81 466.58,-248.36 471.54,-243.42"/>
</g>
<!-- Node38&#45;&gt;Node23 -->
<g id="edge55" class="edge">
<title>Node38&#45;&gt;Node23</title>
<path fill="none" stroke="midnightblue" d="M533.24,-330.45C518.33,-322.05 494.7,-308.72 477.03,-298.76"/>
<polygon fill="midnightblue" stroke="midnightblue" points="478.35,-295.49 467.92,-293.63 474.91,-301.59 478.35,-295.49"/>
</g>
<!-- Node40 -->
<g id="node40" class="node">
<title>Node40</title>
<g id="a_node40"><a xlink:href="../../d4/da4/txatt_8h.html" target="_top" xlink:title=" ">
<polygon fill="white" stroke="black" points="776.89,-550.5 776.89,-568.5 820.13,-568.5 820.13,-550.5 776.89,-550.5"/>
<text text-anchor="middle" x="798.51" y="-556.5" font-family="Helvetica,sans-Serif" font-size="10.00">txatt.h</text>
</a>
</g>
</g>
<!-- Node39&#45;&gt;Node40 -->
<g id="edge58" class="edge">
<title>Node39&#45;&gt;Node40</title>
<path fill="none" stroke="midnightblue" d="M796.82,-605.22C797.09,-598.18 797.48,-587.81 797.82,-578.83"/>
<polygon fill="midnightblue" stroke="midnightblue" points="801.33,-578.67 798.21,-568.55 794.33,-578.41 801.33,-578.67"/>
</g>
<!-- Node41 -->
<g id="node41" class="node">
<title>Node41</title>
<g id="a_node41"><a xlink:href="../../d1/d43/txxml_8h.html" target="_top" xlink:title=" ">
<polygon fill="white" stroke="black" points="711.68,-550.5 711.68,-568.5 759.35,-568.5 759.35,-550.5 711.68,-550.5"/>
<text text-anchor="middle" x="735.51" y="-556.5" font-family="Helvetica,sans-Serif" font-size="10.00">txxml.h</text>
</a>
</g>
</g>
<!-- Node39&#45;&gt;Node41 -->
<g id="edge60" class="edge">
<title>Node39&#45;&gt;Node41</title>
<path fill="none" stroke="midnightblue" d="M787.25,-605.45C778.11,-597.51 763.93,-585.19 752.72,-575.45"/>
<polygon fill="midnightblue" stroke="midnightblue" points="754.71,-572.54 744.86,-568.63 750.12,-577.83 754.71,-572.54"/>
</g>
<!-- Node40&#45;&gt;Node29 -->
<g id="edge59" class="edge">
<title>Node40&#45;&gt;Node29</title>
<path fill="none" stroke="midnightblue" d="M778.46,-550.45C756.56,-541.66 721.26,-527.48 696.15,-517.4"/>
<polygon fill="midnightblue" stroke="midnightblue" points="697.33,-514.1 686.75,-513.63 694.72,-520.6 697.33,-514.1"/>
</g>
</g>
</svg>
