<?xml version="1.0" encoding="UTF-8" standalone="no"?>
<!DOCTYPE svg PUBLIC "-//W3C//DTD SVG 1.1//EN"
 "http://www.w3.org/Graphics/SVG/1.1/DTD/svg11.dtd">
<!-- Generated by graphviz version 2.43.0 (0)
 -->
<!-- Title: txcommands.C Pages: 1 -->
<svg width="666pt" height="687pt"
 viewBox="0.00 0.00 665.65 687.00" xmlns="http://www.w3.org/2000/svg" xmlns:xlink="http://www.w3.org/1999/xlink">
<g id="graph0" class="graph" transform="scale(1 1) rotate(0) translate(4 683)">
<title>txcommands.C</title>
<polygon fill="white" stroke="transparent" points="-4,4 -4,-683 661.65,-683 661.65,4 -4,4"/>
<!-- Node1 -->
<g id="node1" class="node">
<title>Node1</title>
<g id="a_node1"><a xlink:title=" ">
<polygon fill="#bfbfbf" stroke="black" points="296.66,-660.5 296.66,-678.5 379.34,-678.5 379.34,-660.5 296.66,-660.5"/>
<text text-anchor="middle" x="338" y="-666.5" font-family="Helvetica,sans-Serif" font-size="10.00">txcommands.C</text>
</a>
</g>
</g>
<!-- Node2 -->
<g id="node2" class="node">
<title>Node2</title>
<g id="a_node2"><a xlink:href="../../d5/d87/globals_8h.html" target="_top" xlink:title=" ">
<polygon fill="white" stroke="black" points="108.54,-275.5 108.54,-293.5 193.46,-293.5 193.46,-275.5 108.54,-275.5"/>
<text text-anchor="middle" x="151" y="-281.5" font-family="Helvetica,sans-Serif" font-size="10.00">tralics/globals.h</text>
</a>
</g>
</g>
<!-- Node1&#45;&gt;Node2 -->
<g id="edge1" class="edge">
<title>Node1&#45;&gt;Node2</title>
<path fill="none" stroke="midnightblue" d="M296.55,-664.1C206.3,-653.37 0,-622.1 0,-560.5 0,-560.5 0,-560.5 0,-393.5 0,-340.31 62.74,-310.82 107.34,-296.57"/>
<polygon fill="midnightblue" stroke="midnightblue" points="108.57,-299.86 117.11,-293.6 106.53,-293.16 108.57,-299.86"/>
</g>
<!-- Node12 -->
<g id="node12" class="node">
<title>Node12</title>
<g id="a_node12"><a xlink:href="../../dc/dd7/txclasses_8h.html" target="_top" xlink:title=" ">
<polygon fill="white" stroke="black" points="471.27,-440.5 471.27,-458.5 536.73,-458.5 536.73,-440.5 471.27,-440.5"/>
<text text-anchor="middle" x="504" y="-446.5" font-family="Helvetica,sans-Serif" font-size="10.00">txclasses.h</text>
</a>
</g>
</g>
<!-- Node1&#45;&gt;Node12 -->
<g id="edge13" class="edge">
<title>Node1&#45;&gt;Node12</title>
<path fill="none" stroke="midnightblue" d="M379.35,-665.64C437.15,-659.15 540.27,-637.99 587,-569 612.88,-530.79 558.86,-486.39 526.3,-464.37"/>
<polygon fill="midnightblue" stroke="midnightblue" points="528.05,-461.33 517.77,-458.77 524.21,-467.18 528.05,-461.33"/>
</g>
<!-- Node23 -->
<g id="node23" class="node">
<title>Node23</title>
<g id="a_node23"><a xlink:href="../../d7/d79/txinline_8h.html" target="_top" xlink:title=" ">
<polygon fill="white" stroke="black" points="175.27,-605.5 175.27,-623.5 230.73,-623.5 230.73,-605.5 175.27,-605.5"/>
<text text-anchor="middle" x="203" y="-611.5" font-family="Helvetica,sans-Serif" font-size="10.00">txinline.h</text>
</a>
</g>
</g>
<!-- Node1&#45;&gt;Node23 -->
<g id="edge32" class="edge">
<title>Node1&#45;&gt;Node23</title>
<path fill="none" stroke="midnightblue" d="M317.5,-660.45C295.1,-651.66 258.99,-637.48 233.31,-627.4"/>
<polygon fill="midnightblue" stroke="midnightblue" points="234.28,-624.02 223.7,-623.63 231.73,-630.54 234.28,-624.02"/>
</g>
<!-- Node32 -->
<g id="node32" class="node">
<title>Node32</title>
<g id="a_node32"><a xlink:href="../../d2/d1b/txparser_8h.html" target="_top" xlink:title=" ">
<polygon fill="white" stroke="black" points="376.04,-605.5 376.04,-623.5 435.96,-623.5 435.96,-605.5 376.04,-605.5"/>
<text text-anchor="middle" x="406" y="-611.5" font-family="Helvetica,sans-Serif" font-size="10.00">txparser.h</text>
</a>
</g>
</g>
<!-- Node1&#45;&gt;Node32 -->
<g id="edge46" class="edge">
<title>Node1&#45;&gt;Node32</title>
<path fill="none" stroke="midnightblue" d="M348.33,-660.45C358.71,-652.36 374.95,-639.7 387.55,-629.88"/>
<polygon fill="midnightblue" stroke="midnightblue" points="389.84,-632.53 395.58,-623.63 385.54,-627.01 389.84,-632.53"/>
</g>
<!-- Node3 -->
<g id="node3" class="node">
<title>Node3</title>
<g id="a_node3"><a xlink:href="../../dc/de8/txvars_8h.html" target="_top" xlink:title=" ">
<polygon fill="white" stroke="black" points="255.33,-220.5 255.33,-238.5 314.67,-238.5 314.67,-220.5 255.33,-220.5"/>
<text text-anchor="middle" x="285" y="-226.5" font-family="Helvetica,sans-Serif" font-size="10.00">../txvars.h</text>
</a>
</g>
</g>
<!-- Node2&#45;&gt;Node3 -->
<g id="edge2" class="edge">
<title>Node2&#45;&gt;Node3</title>
<path fill="none" stroke="midnightblue" d="M171.35,-275.45C193.59,-266.66 229.43,-252.48 254.91,-242.4"/>
<polygon fill="midnightblue" stroke="midnightblue" points="256.45,-245.56 264.46,-238.63 253.87,-239.05 256.45,-245.56"/>
</g>
<!-- Node6 -->
<g id="node6" class="node">
<title>Node6</title>
<g id="a_node6"><a xlink:href="../../d9/d49/types_8h.html" target="_top" xlink:title=" ">
<polygon fill="white" stroke="black" points="146.88,-0.5 146.88,-18.5 195.12,-18.5 195.12,-0.5 146.88,-0.5"/>
<text text-anchor="middle" x="171" y="-6.5" font-family="Helvetica,sans-Serif" font-size="10.00">types.h</text>
</a>
</g>
</g>
<!-- Node2&#45;&gt;Node6 -->
<g id="edge9" class="edge">
<title>Node2&#45;&gt;Node6</title>
<path fill="none" stroke="midnightblue" d="M136.62,-275.49C110.75,-259.9 59,-222.79 59,-175.5 59,-175.5 59,-175.5 59,-118.5 59,-72.28 109.04,-39.6 142.22,-23"/>
<polygon fill="midnightblue" stroke="midnightblue" points="143.98,-26.04 151.49,-18.56 140.96,-19.73 143.98,-26.04"/>
</g>
<!-- Node8 -->
<g id="node8" class="node">
<title>Node8</title>
<g id="a_node8"><a xlink:href="../../d8/d47/codepoint_8h.html" target="_top" xlink:title=" ">
<polygon fill="white" stroke="black" points="137.15,-110.5 137.15,-128.5 204.85,-128.5 204.85,-110.5 137.15,-110.5"/>
<text text-anchor="middle" x="171" y="-116.5" font-family="Helvetica,sans-Serif" font-size="10.00">codepoint.h</text>
</a>
</g>
</g>
<!-- Node2&#45;&gt;Node8 -->
<g id="edge7" class="edge">
<title>Node2&#45;&gt;Node8</title>
<path fill="none" stroke="midnightblue" d="M141.77,-275.38C133.22,-267.19 121.08,-253.68 116,-239 113.24,-231.02 113.89,-228.18 116,-220 124.22,-188.14 145.06,-155.58 158.6,-136.74"/>
<polygon fill="midnightblue" stroke="midnightblue" points="161.44,-138.78 164.57,-128.66 155.81,-134.62 161.44,-138.78"/>
</g>
<!-- Node9 -->
<g id="node9" class="node">
<title>Node9</title>
<g id="a_node9"><a xlink:title=" ">
<polygon fill="white" stroke="#bfbfbf" points="463.77,-165.5 463.77,-183.5 504.23,-183.5 504.23,-165.5 463.77,-165.5"/>
<text text-anchor="middle" x="484" y="-171.5" font-family="Helvetica,sans-Serif" font-size="10.00">string</text>
</a>
</g>
</g>
<!-- Node2&#45;&gt;Node9 -->
<g id="edge10" class="edge">
<title>Node2&#45;&gt;Node9</title>
<path fill="none" stroke="midnightblue" d="M193.48,-279.78C259.45,-273.46 382.99,-259.31 422,-239 443.28,-227.92 461.61,-206.83 472.7,-192.01"/>
<polygon fill="midnightblue" stroke="midnightblue" points="475.65,-193.9 478.64,-183.73 469.97,-189.82 475.65,-193.9"/>
</g>
<!-- Node10 -->
<g id="node10" class="node">
<title>Node10</title>
<g id="a_node10"><a xlink:title=" ">
<polygon fill="white" stroke="#bfbfbf" points="194.38,-220.5 194.38,-238.5 237.62,-238.5 237.62,-220.5 194.38,-220.5"/>
<text text-anchor="middle" x="216" y="-226.5" font-family="Helvetica,sans-Serif" font-size="10.00">vector</text>
</a>
</g>
</g>
<!-- Node2&#45;&gt;Node10 -->
<g id="edge11" class="edge">
<title>Node2&#45;&gt;Node10</title>
<path fill="none" stroke="midnightblue" d="M160.87,-275.45C170.7,-267.43 186.02,-254.95 198.01,-245.17"/>
<polygon fill="midnightblue" stroke="midnightblue" points="200.5,-247.66 206.03,-238.63 196.07,-242.23 200.5,-247.66"/>
</g>
<!-- Node11 -->
<g id="node11" class="node">
<title>Node11</title>
<g id="a_node11"><a xlink:title=" ">
<polygon fill="white" stroke="#bfbfbf" points="125.49,-220.5 125.49,-238.5 176.51,-238.5 176.51,-220.5 125.49,-220.5"/>
<text text-anchor="middle" x="151" y="-226.5" font-family="Helvetica,sans-Serif" font-size="10.00">unistd.h</text>
</a>
</g>
</g>
<!-- Node2&#45;&gt;Node11 -->
<g id="edge12" class="edge">
<title>Node2&#45;&gt;Node11</title>
<path fill="none" stroke="midnightblue" d="M151,-275.22C151,-268.18 151,-257.81 151,-248.83"/>
<polygon fill="midnightblue" stroke="midnightblue" points="154.5,-248.55 151,-238.55 147.5,-248.55 154.5,-248.55"/>
</g>
<!-- Node4 -->
<g id="node4" class="node">
<title>Node4</title>
<g id="a_node4"><a xlink:href="../../d0/d0b/enums_8h.html" target="_top" xlink:title=" ">
<polygon fill="white" stroke="black" points="272.38,-110.5 272.38,-128.5 355.62,-128.5 355.62,-110.5 272.38,-110.5"/>
<text text-anchor="middle" x="314" y="-116.5" font-family="Helvetica,sans-Serif" font-size="10.00">tralics/enums.h</text>
</a>
</g>
</g>
<!-- Node3&#45;&gt;Node4 -->
<g id="edge3" class="edge">
<title>Node3&#45;&gt;Node4</title>
<path fill="none" stroke="midnightblue" d="M287.18,-220.38C291.82,-203.1 302.77,-162.33 309.15,-138.56"/>
<polygon fill="midnightblue" stroke="midnightblue" points="312.58,-139.28 311.79,-128.71 305.82,-137.46 312.58,-139.28"/>
</g>
<!-- Node7 -->
<g id="node7" class="node">
<title>Node7</title>
<g id="a_node7"><a xlink:title=" ">
<polygon fill="white" stroke="#bfbfbf" points="218.61,-165.5 218.61,-183.5 257.39,-183.5 257.39,-165.5 218.61,-165.5"/>
<text text-anchor="middle" x="238" y="-171.5" font-family="Helvetica,sans-Serif" font-size="10.00">array</text>
</a>
</g>
</g>
<!-- Node3&#45;&gt;Node7 -->
<g id="edge6" class="edge">
<title>Node3&#45;&gt;Node7</title>
<path fill="none" stroke="midnightblue" d="M277.66,-220.22C270.79,-212.47 260.35,-200.7 251.9,-191.18"/>
<polygon fill="midnightblue" stroke="midnightblue" points="254.39,-188.71 245.14,-183.55 249.15,-193.35 254.39,-188.71"/>
</g>
<!-- Node5 -->
<g id="node5" class="node">
<title>Node5</title>
<g id="a_node5"><a xlink:href="../../d8/db5/consts_8h.html" target="_top" xlink:title=" ">
<polygon fill="white" stroke="black" points="243.38,-55.5 243.38,-73.5 296.62,-73.5 296.62,-55.5 243.38,-55.5"/>
<text text-anchor="middle" x="270" y="-61.5" font-family="Helvetica,sans-Serif" font-size="10.00">consts.h</text>
</a>
</g>
</g>
<!-- Node4&#45;&gt;Node5 -->
<g id="edge4" class="edge">
<title>Node4&#45;&gt;Node5</title>
<path fill="none" stroke="midnightblue" d="M307.12,-110.22C300.76,-102.55 291.12,-90.94 283.26,-81.47"/>
<polygon fill="midnightblue" stroke="midnightblue" points="285.76,-79.01 276.68,-73.55 280.38,-83.48 285.76,-79.01"/>
</g>
<!-- Node5&#45;&gt;Node6 -->
<g id="edge5" class="edge">
<title>Node5&#45;&gt;Node6</title>
<path fill="none" stroke="midnightblue" d="M254.96,-55.45C239.05,-46.93 213.69,-33.35 195,-23.35"/>
<polygon fill="midnightblue" stroke="midnightblue" points="196.65,-20.26 186.18,-18.63 193.34,-26.43 196.65,-20.26"/>
</g>
<!-- Node8&#45;&gt;Node6 -->
<g id="edge8" class="edge">
<title>Node8&#45;&gt;Node6</title>
<path fill="none" stroke="midnightblue" d="M171,-110.38C171,-93.18 171,-52.7 171,-28.89"/>
<polygon fill="midnightblue" stroke="midnightblue" points="174.5,-28.71 171,-18.71 167.5,-28.71 174.5,-28.71"/>
</g>
<!-- Node13 -->
<g id="node13" class="node">
<title>Node13</title>
<g id="a_node13"><a xlink:href="../../dd/d74/txbuffer_8h.html" target="_top" xlink:title=" ">
<polygon fill="white" stroke="black" points="348.52,-385.5 348.52,-403.5 405.48,-403.5 405.48,-385.5 348.52,-385.5"/>
<text text-anchor="middle" x="377" y="-391.5" font-family="Helvetica,sans-Serif" font-size="10.00">txbuffer.h</text>
</a>
</g>
</g>
<!-- Node12&#45;&gt;Node13 -->
<g id="edge14" class="edge">
<title>Node12&#45;&gt;Node13</title>
<path fill="none" stroke="midnightblue" d="M484.71,-440.45C463.73,-431.7 429.97,-417.61 405.84,-407.53"/>
<polygon fill="midnightblue" stroke="midnightblue" points="407.05,-404.25 396.47,-403.63 404.35,-410.71 407.05,-404.25"/>
</g>
<!-- Node13&#45;&gt;Node10 -->
<g id="edge31" class="edge">
<title>Node13&#45;&gt;Node10</title>
<path fill="none" stroke="midnightblue" d="M355.41,-385.44C337.49,-377.98 312.1,-365.54 294,-349 285.26,-341.02 245.68,-278.23 226.49,-247.42"/>
<polygon fill="midnightblue" stroke="midnightblue" points="229.29,-245.3 221.04,-238.66 223.35,-249 229.29,-245.3"/>
</g>
<!-- Node14 -->
<g id="node14" class="node">
<title>Node14</title>
<g id="a_node14"><a xlink:href="../../d1/d9e/txid_8h.html" target="_top" xlink:title=" ">
<polygon fill="white" stroke="black" points="351.05,-275.5 351.05,-293.5 390.95,-293.5 390.95,-275.5 351.05,-275.5"/>
<text text-anchor="middle" x="371" y="-281.5" font-family="Helvetica,sans-Serif" font-size="10.00">txid.h</text>
</a>
</g>
</g>
<!-- Node13&#45;&gt;Node14 -->
<g id="edge15" class="edge">
<title>Node13&#45;&gt;Node14</title>
<path fill="none" stroke="midnightblue" d="M376.55,-385.38C375.59,-368.18 373.34,-327.7 372.02,-303.89"/>
<polygon fill="midnightblue" stroke="midnightblue" points="375.51,-303.5 371.46,-293.71 368.52,-303.89 375.51,-303.5"/>
</g>
<!-- Node15 -->
<g id="node15" class="node">
<title>Node15</title>
<g id="a_node15"><a xlink:href="../../d9/d18/txscaled_8h.html" target="_top" xlink:title=" ">
<polygon fill="white" stroke="black" points="409.49,-330.5 409.49,-348.5 470.51,-348.5 470.51,-330.5 409.49,-330.5"/>
<text text-anchor="middle" x="440" y="-336.5" font-family="Helvetica,sans-Serif" font-size="10.00">txscaled.h</text>
</a>
</g>
</g>
<!-- Node13&#45;&gt;Node15 -->
<g id="edge18" class="edge">
<title>Node13&#45;&gt;Node15</title>
<path fill="none" stroke="midnightblue" d="M386.57,-385.45C396.1,-377.43 410.94,-364.95 422.57,-355.17"/>
<polygon fill="midnightblue" stroke="midnightblue" points="424.94,-357.74 430.34,-348.63 420.44,-352.38 424.94,-357.74"/>
</g>
<!-- Node22 -->
<g id="node22" class="node">
<title>Node22</title>
<g id="a_node22"><a xlink:title=" ">
<polygon fill="white" stroke="#bfbfbf" points="303.27,-330.5 303.27,-348.5 348.73,-348.5 348.73,-330.5 303.27,-330.5"/>
<text text-anchor="middle" x="326" y="-336.5" font-family="Helvetica,sans-Serif" font-size="10.00">cstring</text>
</a>
</g>
</g>
<!-- Node13&#45;&gt;Node22 -->
<g id="edge30" class="edge">
<title>Node13&#45;&gt;Node22</title>
<path fill="none" stroke="midnightblue" d="M369.03,-385.22C361.5,-377.39 350.02,-365.46 340.81,-355.89"/>
<polygon fill="midnightblue" stroke="midnightblue" points="343.2,-353.33 333.75,-348.55 338.16,-358.18 343.2,-353.33"/>
</g>
<!-- Node14&#45;&gt;Node3 -->
<g id="edge16" class="edge">
<title>Node14&#45;&gt;Node3</title>
<path fill="none" stroke="midnightblue" d="M357.94,-275.45C344.43,-267.12 323.08,-253.97 306.97,-244.04"/>
<polygon fill="midnightblue" stroke="midnightblue" points="308.53,-240.89 298.18,-238.63 304.86,-246.85 308.53,-240.89"/>
</g>
<!-- Node14&#45;&gt;Node9 -->
<g id="edge17" class="edge">
<title>Node14&#45;&gt;Node9</title>
<path fill="none" stroke="midnightblue" d="M391,-277.14C409.66,-270.32 437.22,-257.85 455,-239 467.07,-226.2 474.78,-207.49 479.19,-193.7"/>
<polygon fill="midnightblue" stroke="midnightblue" points="482.61,-194.47 482.04,-183.89 475.89,-192.52 482.61,-194.47"/>
</g>
<!-- Node16 -->
<g id="node16" class="node">
<title>Node16</title>
<g id="a_node16"><a xlink:href="../../dc/d91/txtokenlist_8h.html" target="_top" xlink:title=" ">
<polygon fill="white" stroke="black" points="408.6,-275.5 408.6,-293.5 477.4,-293.5 477.4,-275.5 408.6,-275.5"/>
<text text-anchor="middle" x="443" y="-281.5" font-family="Helvetica,sans-Serif" font-size="10.00">txtokenlist.h</text>
</a>
</g>
</g>
<!-- Node15&#45;&gt;Node16 -->
<g id="edge19" class="edge">
<title>Node15&#45;&gt;Node16</title>
<path fill="none" stroke="midnightblue" d="M440.47,-330.22C440.87,-323.18 441.45,-312.81 441.96,-303.83"/>
<polygon fill="midnightblue" stroke="midnightblue" points="445.47,-303.73 442.54,-293.55 438.48,-303.34 445.47,-303.73"/>
</g>
<!-- Node16&#45;&gt;Node3 -->
<g id="edge28" class="edge">
<title>Node16&#45;&gt;Node3</title>
<path fill="none" stroke="midnightblue" d="M419,-275.45C392.24,-266.47 348.77,-251.89 318.63,-241.78"/>
<polygon fill="midnightblue" stroke="midnightblue" points="319.56,-238.4 308.96,-238.54 317.33,-245.04 319.56,-238.4"/>
</g>
<!-- Node17 -->
<g id="node17" class="node">
<title>Node17</title>
<g id="a_node17"><a xlink:href="../../d5/daf/_istring_8h.html" target="_top" xlink:title=" ">
<polygon fill="white" stroke="black" points="506.77,-220.5 506.77,-238.5 587.23,-238.5 587.23,-220.5 506.77,-220.5"/>
<text text-anchor="middle" x="547" y="-226.5" font-family="Helvetica,sans-Serif" font-size="10.00">tralics/Istring.h</text>
</a>
</g>
</g>
<!-- Node16&#45;&gt;Node17 -->
<g id="edge20" class="edge">
<title>Node16&#45;&gt;Node17</title>
<path fill="none" stroke="midnightblue" d="M458.8,-275.45C475.59,-266.89 502.4,-253.23 522.06,-243.21"/>
<polygon fill="midnightblue" stroke="midnightblue" points="523.74,-246.28 531.06,-238.63 520.56,-240.05 523.74,-246.28"/>
</g>
<!-- Node18 -->
<g id="node18" class="node">
<title>Node18</title>
<g id="a_node18"><a xlink:href="../../dd/dcd/_token_8h.html" target="_top" xlink:title=" ">
<polygon fill="white" stroke="black" points="333.04,-220.5 333.04,-238.5 412.96,-238.5 412.96,-220.5 333.04,-220.5"/>
<text text-anchor="middle" x="373" y="-226.5" font-family="Helvetica,sans-Serif" font-size="10.00">tralics/Token.h</text>
</a>
</g>
</g>
<!-- Node16&#45;&gt;Node18 -->
<g id="edge23" class="edge">
<title>Node16&#45;&gt;Node18</title>
<path fill="none" stroke="midnightblue" d="M432.37,-275.45C421.68,-267.36 404.97,-254.7 392,-244.88"/>
<polygon fill="midnightblue" stroke="midnightblue" points="393.82,-241.87 383.73,-238.63 389.59,-247.45 393.82,-241.87"/>
</g>
<!-- Node21 -->
<g id="node21" class="node">
<title>Node21</title>
<g id="a_node21"><a xlink:title=" ">
<polygon fill="white" stroke="#bfbfbf" points="605.61,-220.5 605.61,-238.5 644.39,-238.5 644.39,-220.5 605.61,-220.5"/>
<text text-anchor="middle" x="625" y="-226.5" font-family="Helvetica,sans-Serif" font-size="10.00">utility</text>
</a>
</g>
</g>
<!-- Node16&#45;&gt;Node21 -->
<g id="edge29" class="edge">
<title>Node16&#45;&gt;Node21</title>
<path fill="none" stroke="midnightblue" d="M470.64,-275.48C499.44,-267.12 546.1,-253.56 595.72,-239.08"/>
<polygon fill="midnightblue" stroke="midnightblue" points="596.73,-242.43 605.35,-236.27 594.77,-235.71 596.73,-242.43"/>
</g>
<!-- Node17&#45;&gt;Node4 -->
<g id="edge21" class="edge">
<title>Node17&#45;&gt;Node4</title>
<path fill="none" stroke="midnightblue" d="M545.04,-220.45C541.28,-206.8 531.72,-179.22 513,-165 470.59,-132.79 409.3,-123.07 365.97,-120.53"/>
<polygon fill="midnightblue" stroke="midnightblue" points="366.07,-117.03 355.91,-120.05 365.74,-124.02 366.07,-117.03"/>
</g>
<!-- Node17&#45;&gt;Node9 -->
<g id="edge22" class="edge">
<title>Node17&#45;&gt;Node9</title>
<path fill="none" stroke="midnightblue" d="M537.43,-220.45C527.9,-212.43 513.06,-199.95 501.43,-190.17"/>
<polygon fill="midnightblue" stroke="midnightblue" points="503.56,-187.38 493.66,-183.63 499.06,-192.74 503.56,-187.38"/>
</g>
<!-- Node19 -->
<g id="node19" class="node">
<title>Node19</title>
<g id="a_node19"><a xlink:href="../../d2/d68/_cmd_chr_8h.html" target="_top" xlink:title=" ">
<polygon fill="white" stroke="black" points="313.49,-165.5 313.49,-183.5 374.51,-183.5 374.51,-165.5 313.49,-165.5"/>
<text text-anchor="middle" x="344" y="-171.5" font-family="Helvetica,sans-Serif" font-size="10.00">CmdChr.h</text>
</a>
</g>
</g>
<!-- Node18&#45;&gt;Node19 -->
<g id="edge24" class="edge">
<title>Node18&#45;&gt;Node19</title>
<path fill="none" stroke="midnightblue" d="M368.47,-220.22C364.4,-212.79 358.31,-201.65 353.22,-192.34"/>
<polygon fill="midnightblue" stroke="midnightblue" points="356.28,-190.64 348.4,-183.55 350.13,-194 356.28,-190.64"/>
</g>
<!-- Node20 -->
<g id="node20" class="node">
<title>Node20</title>
<g id="a_node20"><a xlink:title=" ">
<polygon fill="white" stroke="#bfbfbf" points="392.5,-165.5 392.5,-183.5 421.5,-183.5 421.5,-165.5 392.5,-165.5"/>
<text text-anchor="middle" x="406.61" y="-171.5" font-family="Helvetica,sans-Serif" font-size="10.00">list</text>
</a>
</g>
</g>
<!-- Node18&#45;&gt;Node20 -->
<g id="edge27" class="edge">
<title>Node18&#45;&gt;Node20</title>
<path fill="none" stroke="midnightblue" d="M378.31,-220.22C383.13,-212.71 390.38,-201.41 396.38,-192.05"/>
<polygon fill="midnightblue" stroke="midnightblue" points="399.38,-193.86 401.84,-183.55 393.49,-190.08 399.38,-193.86"/>
</g>
<!-- Node19&#45;&gt;Node4 -->
<g id="edge26" class="edge">
<title>Node19&#45;&gt;Node4</title>
<path fill="none" stroke="midnightblue" d="M339.31,-165.22C335.11,-157.79 328.8,-146.65 323.53,-137.34"/>
<polygon fill="midnightblue" stroke="midnightblue" points="326.53,-135.53 318.56,-128.55 320.44,-138.98 326.53,-135.53"/>
</g>
<!-- Node19&#45;&gt;Node8 -->
<g id="edge25" class="edge">
<title>Node19&#45;&gt;Node8</title>
<path fill="none" stroke="midnightblue" d="M317.73,-165.45C288.17,-156.4 240,-141.64 206.97,-131.52"/>
<polygon fill="midnightblue" stroke="midnightblue" points="207.82,-128.12 197.24,-128.54 205.77,-134.81 207.82,-128.12"/>
</g>
<!-- Node24 -->
<g id="node24" class="node">
<title>Node24</title>
<g id="a_node24"><a xlink:href="../../d4/de9/_main_class_8h.html" target="_top" xlink:title=" ">
<polygon fill="white" stroke="black" points="222.04,-550.5 222.04,-568.5 321.96,-568.5 321.96,-550.5 222.04,-550.5"/>
<text text-anchor="middle" x="272" y="-556.5" font-family="Helvetica,sans-Serif" font-size="10.00">tralics/MainClass.h</text>
</a>
</g>
</g>
<!-- Node23&#45;&gt;Node24 -->
<g id="edge33" class="edge">
<title>Node23&#45;&gt;Node24</title>
<path fill="none" stroke="midnightblue" d="M213.48,-605.45C224.02,-597.36 240.49,-584.7 253.28,-574.88"/>
<polygon fill="midnightblue" stroke="midnightblue" points="255.62,-577.49 261.42,-568.63 251.36,-571.94 255.62,-577.49"/>
</g>
<!-- Node28 -->
<g id="node28" class="node">
<title>Node28</title>
<g id="a_node28"><a xlink:href="../../d2/d06/txlogger_8h.html" target="_top" xlink:title=" ">
<polygon fill="white" stroke="black" points="28.32,-550.5 28.32,-568.5 87.68,-568.5 87.68,-550.5 28.32,-550.5"/>
<text text-anchor="middle" x="58" y="-556.5" font-family="Helvetica,sans-Serif" font-size="10.00">txlogger.h</text>
</a>
</g>
</g>
<!-- Node23&#45;&gt;Node28 -->
<g id="edge39" class="edge">
<title>Node23&#45;&gt;Node28</title>
<path fill="none" stroke="midnightblue" d="M180.98,-605.45C156.71,-596.58 117.45,-582.23 89.83,-572.13"/>
<polygon fill="midnightblue" stroke="midnightblue" points="90.82,-568.77 80.23,-568.63 88.42,-575.35 90.82,-568.77"/>
</g>
<!-- Node31 -->
<g id="node31" class="node">
<title>Node31</title>
<g id="a_node31"><a xlink:href="../../d5/d08/txparam_8h.html" target="_top" xlink:title=" ">
<polygon fill="white" stroke="black" points="105.77,-550.5 105.77,-568.5 166.23,-568.5 166.23,-550.5 105.77,-550.5"/>
<text text-anchor="middle" x="136" y="-556.5" font-family="Helvetica,sans-Serif" font-size="10.00">txparam.h</text>
</a>
</g>
</g>
<!-- Node23&#45;&gt;Node31 -->
<g id="edge44" class="edge">
<title>Node23&#45;&gt;Node31</title>
<path fill="none" stroke="midnightblue" d="M192.82,-605.45C182.59,-597.36 166.6,-584.7 154.18,-574.88"/>
<polygon fill="midnightblue" stroke="midnightblue" points="156.29,-572.08 146.27,-568.63 151.94,-577.57 156.29,-572.08"/>
</g>
<!-- Node25 -->
<g id="node25" class="node">
<title>Node25</title>
<g id="a_node25"><a xlink:href="../../de/d29/txio_8h.html" target="_top" xlink:title=" ">
<polygon fill="white" stroke="black" points="209.88,-495.5 209.88,-513.5 258.12,-513.5 258.12,-495.5 209.88,-495.5"/>
<text text-anchor="middle" x="234" y="-501.5" font-family="Helvetica,sans-Serif" font-size="10.00">../txio.h</text>
</a>
</g>
</g>
<!-- Node24&#45;&gt;Node25 -->
<g id="edge34" class="edge">
<title>Node24&#45;&gt;Node25</title>
<path fill="none" stroke="midnightblue" d="M266.06,-550.22C260.62,-542.63 252.41,-531.18 245.66,-521.76"/>
<polygon fill="midnightblue" stroke="midnightblue" points="248.44,-519.64 239.77,-513.55 242.75,-523.72 248.44,-519.64"/>
</g>
<!-- Node27 -->
<g id="node27" class="node">
<title>Node27</title>
<g id="a_node27"><a xlink:href="../../dc/def/txstring_8h.html" target="_top" xlink:title=" ">
<polygon fill="white" stroke="black" points="346.55,-440.5 346.55,-458.5 411.45,-458.5 411.45,-440.5 346.55,-440.5"/>
<text text-anchor="middle" x="379" y="-446.5" font-family="Helvetica,sans-Serif" font-size="10.00">../txstring.h</text>
</a>
</g>
</g>
<!-- Node24&#45;&gt;Node27 -->
<g id="edge37" class="edge">
<title>Node24&#45;&gt;Node27</title>
<path fill="none" stroke="midnightblue" d="M280.04,-550.38C297.78,-532.48 340.51,-489.35 363.59,-466.05"/>
<polygon fill="midnightblue" stroke="midnightblue" points="366.31,-468.28 370.86,-458.71 361.34,-463.35 366.31,-468.28"/>
</g>
<!-- Node25&#45;&gt;Node13 -->
<g id="edge35" class="edge">
<title>Node25&#45;&gt;Node13</title>
<path fill="none" stroke="midnightblue" d="M244.75,-495.38C268.87,-477.17 327.57,-432.83 358,-409.85"/>
<polygon fill="midnightblue" stroke="midnightblue" points="360.26,-412.53 366.13,-403.71 356.04,-406.95 360.26,-412.53"/>
</g>
<!-- Node26 -->
<g id="node26" class="node">
<title>Node26</title>
<g id="a_node26"><a xlink:title=" ">
<polygon fill="white" stroke="#bfbfbf" points="113.33,-440.5 113.33,-458.5 162.67,-458.5 162.67,-440.5 113.33,-440.5"/>
<text text-anchor="middle" x="138" y="-446.5" font-family="Helvetica,sans-Serif" font-size="10.00">fstream</text>
</a>
</g>
</g>
<!-- Node25&#45;&gt;Node26 -->
<g id="edge36" class="edge">
<title>Node25&#45;&gt;Node26</title>
<path fill="none" stroke="midnightblue" d="M219.42,-495.45C204.05,-486.97 179.62,-473.48 161.52,-463.49"/>
<polygon fill="midnightblue" stroke="midnightblue" points="163.16,-460.39 152.72,-458.63 159.78,-466.52 163.16,-460.39"/>
</g>
<!-- Node27&#45;&gt;Node13 -->
<g id="edge38" class="edge">
<title>Node27&#45;&gt;Node13</title>
<path fill="none" stroke="midnightblue" d="M378.69,-440.22C378.42,-433.18 378.03,-422.81 377.69,-413.83"/>
<polygon fill="midnightblue" stroke="midnightblue" points="381.18,-413.41 377.3,-403.55 374.18,-413.67 381.18,-413.41"/>
</g>
<!-- Node28&#45;&gt;Node26 -->
<g id="edge42" class="edge">
<title>Node28&#45;&gt;Node26</title>
<path fill="none" stroke="midnightblue" d="M55.36,-550.4C51.71,-537.63 46.67,-512.46 57,-495 67.04,-478.03 86.1,-467.1 103.22,-460.32"/>
<polygon fill="midnightblue" stroke="midnightblue" points="104.77,-463.48 112.98,-456.79 102.39,-456.9 104.77,-463.48"/>
</g>
<!-- Node29 -->
<g id="node29" class="node">
<title>Node29</title>
<g id="a_node29"><a xlink:href="../../d7/d4d/txfonts_8h.html" target="_top" xlink:title=" ">
<polygon fill="white" stroke="black" points="138.1,-495.5 138.1,-513.5 191.9,-513.5 191.9,-495.5 138.1,-495.5"/>
<text text-anchor="middle" x="165" y="-501.5" font-family="Helvetica,sans-Serif" font-size="10.00">txfonts.h</text>
</a>
</g>
</g>
<!-- Node28&#45;&gt;Node29 -->
<g id="edge40" class="edge">
<title>Node28&#45;&gt;Node29</title>
<path fill="none" stroke="midnightblue" d="M74.25,-550.45C91.61,-541.85 119.36,-528.1 139.61,-518.08"/>
<polygon fill="midnightblue" stroke="midnightblue" points="141.19,-521.2 148.6,-513.63 138.08,-514.93 141.19,-521.2"/>
</g>
<!-- Node30 -->
<g id="node30" class="node">
<title>Node30</title>
<g id="a_node30"><a xlink:title=" ">
<polygon fill="white" stroke="#bfbfbf" points="65.83,-495.5 65.83,-513.5 120.17,-513.5 120.17,-495.5 65.83,-495.5"/>
<text text-anchor="middle" x="93" y="-501.5" font-family="Helvetica,sans-Serif" font-size="10.00">iostream</text>
</a>
</g>
</g>
<!-- Node28&#45;&gt;Node30 -->
<g id="edge43" class="edge">
<title>Node28&#45;&gt;Node30</title>
<path fill="none" stroke="midnightblue" d="M63.47,-550.22C68.43,-542.71 75.89,-531.41 82.07,-522.05"/>
<polygon fill="midnightblue" stroke="midnightblue" points="85.09,-523.82 87.68,-513.55 79.25,-519.97 85.09,-523.82"/>
</g>
<!-- Node29&#45;&gt;Node27 -->
<g id="edge41" class="edge">
<title>Node29&#45;&gt;Node27</title>
<path fill="none" stroke="midnightblue" d="M192.1,-496.79C228.55,-487.76 293.72,-471.62 336.66,-460.99"/>
<polygon fill="midnightblue" stroke="midnightblue" points="337.67,-464.34 346.53,-458.54 335.98,-457.55 337.67,-464.34"/>
</g>
<!-- Node31&#45;&gt;Node25 -->
<g id="edge45" class="edge">
<title>Node31&#45;&gt;Node25</title>
<path fill="none" stroke="midnightblue" d="M150.88,-550.45C166.57,-541.97 191.51,-528.48 209.99,-518.49"/>
<polygon fill="midnightblue" stroke="midnightblue" points="211.84,-521.46 218.98,-513.63 208.51,-515.3 211.84,-521.46"/>
</g>
<!-- Node32&#45;&gt;Node25 -->
<g id="edge55" class="edge">
<title>Node32&#45;&gt;Node25</title>
<path fill="none" stroke="midnightblue" d="M375.86,-611.03C326.77,-606.31 233.02,-594.16 213,-569 202.09,-555.29 211.34,-535.67 220.78,-521.88"/>
<polygon fill="midnightblue" stroke="midnightblue" points="223.64,-523.89 226.79,-513.78 218.02,-519.72 223.64,-523.89"/>
</g>
<!-- Node33 -->
<g id="node33" class="node">
<title>Node33</title>
<g id="a_node33"><a xlink:href="../../d3/d6b/txcond_8h.html" target="_top" xlink:title=" ">
<polygon fill="white" stroke="black" points="228.1,-385.5 228.1,-403.5 281.9,-403.5 281.9,-385.5 228.1,-385.5"/>
<text text-anchor="middle" x="255" y="-391.5" font-family="Helvetica,sans-Serif" font-size="10.00">txcond.h</text>
</a>
</g>
</g>
<!-- Node32&#45;&gt;Node33 -->
<g id="edge47" class="edge">
<title>Node32&#45;&gt;Node33</title>
<path fill="none" stroke="midnightblue" d="M398.62,-605.2C390.93,-596.43 378.69,-582.08 369,-569 327.96,-513.59 284.6,-444.11 265.3,-412.53"/>
<polygon fill="midnightblue" stroke="midnightblue" points="268.1,-410.4 259.92,-403.67 262.12,-414.04 268.1,-410.4"/>
</g>
<!-- Node34 -->
<g id="node34" class="node">
<title>Node34</title>
<g id="a_node34"><a xlink:href="../../d7/d7e/txhash_8h.html" target="_top" xlink:title=" ">
<polygon fill="white" stroke="black" points="452.1,-550.5 452.1,-568.5 505.9,-568.5 505.9,-550.5 452.1,-550.5"/>
<text text-anchor="middle" x="479" y="-556.5" font-family="Helvetica,sans-Serif" font-size="10.00">txhash.h</text>
</a>
</g>
</g>
<!-- Node32&#45;&gt;Node34 -->
<g id="edge49" class="edge">
<title>Node32&#45;&gt;Node34</title>
<path fill="none" stroke="midnightblue" d="M417.09,-605.45C428.34,-597.28 446,-584.46 459.58,-574.6"/>
<polygon fill="midnightblue" stroke="midnightblue" points="461.77,-577.33 467.81,-568.63 457.66,-571.67 461.77,-577.33"/>
</g>
<!-- Node36 -->
<g id="node36" class="node">
<title>Node36</title>
<g id="a_node36"><a xlink:href="../../de/d7c/tximage_8h.html" target="_top" xlink:title=" ">
<polygon fill="white" stroke="black" points="595.32,-275.5 595.32,-293.5 654.68,-293.5 654.68,-275.5 595.32,-275.5"/>
<text text-anchor="middle" x="625" y="-281.5" font-family="Helvetica,sans-Serif" font-size="10.00">tximage.h</text>
</a>
</g>
</g>
<!-- Node32&#45;&gt;Node36 -->
<g id="edge52" class="edge">
<title>Node32&#45;&gt;Node36</title>
<path fill="none" stroke="midnightblue" d="M436.05,-610.06C482,-604.17 566.56,-590.65 587,-569 623.77,-530.05 609,-504.07 609,-450.5 609,-450.5 609,-450.5 609,-393.5 609,-361.53 615.95,-324.8 620.69,-303.46"/>
<polygon fill="midnightblue" stroke="midnightblue" points="624.13,-304.1 622.97,-293.57 617.31,-302.52 624.13,-304.1"/>
</g>
<!-- Node37 -->
<g id="node37" class="node">
<title>Node37</title>
<g id="a_node37"><a xlink:href="../../dc/d65/txstack_8h.html" target="_top" xlink:title=" ">
<polygon fill="white" stroke="black" points="378.27,-550.5 378.27,-568.5 433.73,-568.5 433.73,-550.5 378.27,-550.5"/>
<text text-anchor="middle" x="406" y="-556.5" font-family="Helvetica,sans-Serif" font-size="10.00">txstack.h</text>
</a>
</g>
</g>
<!-- Node32&#45;&gt;Node37 -->
<g id="edge56" class="edge">
<title>Node32&#45;&gt;Node37</title>
<path fill="none" stroke="midnightblue" d="M406,-605.22C406,-598.18 406,-587.81 406,-578.83"/>
<polygon fill="midnightblue" stroke="midnightblue" points="409.5,-578.55 406,-568.55 402.5,-578.55 409.5,-578.55"/>
</g>
<!-- Node40 -->
<g id="node40" class="node">
<title>Node40</title>
<g id="a_node40"><a xlink:href="../../d8/d3d/txstats_8h.html" target="_top" xlink:title=" ">
<polygon fill="white" stroke="black" points="524.38,-550.5 524.38,-568.5 577.62,-568.5 577.62,-550.5 524.38,-550.5"/>
<text text-anchor="middle" x="551" y="-556.5" font-family="Helvetica,sans-Serif" font-size="10.00">txstats.h</text>
</a>
</g>
</g>
<!-- Node32&#45;&gt;Node40 -->
<g id="edge60" class="edge">
<title>Node32&#45;&gt;Node40</title>
<path fill="none" stroke="midnightblue" d="M428.02,-605.45C452.29,-596.58 491.55,-582.23 519.17,-572.13"/>
<polygon fill="midnightblue" stroke="midnightblue" points="520.58,-575.35 528.77,-568.63 518.18,-568.77 520.58,-575.35"/>
</g>
<!-- Node33&#45;&gt;Node10 -->
<g id="edge48" class="edge">
<title>Node33&#45;&gt;Node10</title>
<path fill="none" stroke="midnightblue" d="M253.01,-385.19C246.96,-359.9 228.67,-283.45 220.28,-248.4"/>
<polygon fill="midnightblue" stroke="midnightblue" points="223.67,-247.51 217.94,-238.6 216.86,-249.14 223.67,-247.51"/>
</g>
<!-- Node35 -->
<g id="node35" class="node">
<title>Node35</title>
<g id="a_node35"><a xlink:href="../../d3/d01/txeqtb_8h.html" target="_top" xlink:title=" ">
<polygon fill="white" stroke="black" points="479.21,-495.5 479.21,-513.5 530.79,-513.5 530.79,-495.5 479.21,-495.5"/>
<text text-anchor="middle" x="505" y="-501.5" font-family="Helvetica,sans-Serif" font-size="10.00">txeqtb.h</text>
</a>
</g>
</g>
<!-- Node34&#45;&gt;Node35 -->
<g id="edge50" class="edge">
<title>Node34&#45;&gt;Node35</title>
<path fill="none" stroke="midnightblue" d="M483.06,-550.22C486.67,-542.86 492.06,-531.88 496.59,-522.64"/>
<polygon fill="midnightblue" stroke="midnightblue" points="499.79,-524.07 501.05,-513.55 493.5,-520.99 499.79,-524.07"/>
</g>
<!-- Node35&#45;&gt;Node27 -->
<g id="edge51" class="edge">
<title>Node35&#45;&gt;Node27</title>
<path fill="none" stroke="midnightblue" d="M485.86,-495.45C465.05,-486.7 431.55,-472.61 407.61,-462.53"/>
<polygon fill="midnightblue" stroke="midnightblue" points="408.89,-459.28 398.32,-458.63 406.18,-465.73 408.89,-459.28"/>
</g>
<!-- Node36&#45;&gt;Node9 -->
<g id="edge53" class="edge">
<title>Node36&#45;&gt;Node9</title>
<path fill="none" stroke="midnightblue" d="M633.61,-275.42C646.15,-262.68 666.53,-237.56 653,-220 636.23,-198.24 558.64,-185 514.65,-179.11"/>
<polygon fill="midnightblue" stroke="midnightblue" points="514.87,-175.61 504.51,-177.81 513.98,-182.56 514.87,-175.61"/>
</g>
<!-- Node36&#45;&gt;Node21 -->
<g id="edge54" class="edge">
<title>Node36&#45;&gt;Node21</title>
<path fill="none" stroke="midnightblue" d="M625,-275.22C625,-268.18 625,-257.81 625,-248.83"/>
<polygon fill="midnightblue" stroke="midnightblue" points="628.5,-248.55 625,-238.55 621.5,-248.55 628.5,-248.55"/>
</g>
<!-- Node38 -->
<g id="node38" class="node">
<title>Node38</title>
<g id="a_node38"><a xlink:href="../../d4/da4/txatt_8h.html" target="_top" xlink:title=" ">
<polygon fill="white" stroke="black" points="352.38,-495.5 352.38,-513.5 395.62,-513.5 395.62,-495.5 352.38,-495.5"/>
<text text-anchor="middle" x="374" y="-501.5" font-family="Helvetica,sans-Serif" font-size="10.00">txatt.h</text>
</a>
</g>
</g>
<!-- Node37&#45;&gt;Node38 -->
<g id="edge57" class="edge">
<title>Node37&#45;&gt;Node38</title>
<path fill="none" stroke="midnightblue" d="M401,-550.22C396.51,-542.79 389.79,-531.65 384.17,-522.34"/>
<polygon fill="midnightblue" stroke="midnightblue" points="387.03,-520.3 378.86,-513.55 381.03,-523.92 387.03,-520.3"/>
</g>
<!-- Node39 -->
<g id="node39" class="node">
<title>Node39</title>
<g id="a_node39"><a xlink:href="../../d1/d43/txxml_8h.html" target="_top" xlink:title=" ">
<polygon fill="white" stroke="black" points="413.17,-495.5 413.17,-513.5 460.83,-513.5 460.83,-495.5 413.17,-495.5"/>
<text text-anchor="middle" x="437" y="-501.5" font-family="Helvetica,sans-Serif" font-size="10.00">txxml.h</text>
</a>
</g>
</g>
<!-- Node37&#45;&gt;Node39 -->
<g id="edge59" class="edge">
<title>Node37&#45;&gt;Node39</title>
<path fill="none" stroke="midnightblue" d="M410.84,-550.22C415.19,-542.79 421.71,-531.65 427.15,-522.34"/>
<polygon fill="midnightblue" stroke="midnightblue" points="430.26,-523.95 432.29,-513.55 424.22,-520.41 430.26,-523.95"/>
</g>
<!-- Node38&#45;&gt;Node27 -->
<g id="edge58" class="edge">
<title>Node38&#45;&gt;Node27</title>
<path fill="none" stroke="midnightblue" d="M374.78,-495.22C375.45,-488.1 376.45,-477.58 377.3,-468.53"/>
<polygon fill="midnightblue" stroke="midnightblue" points="380.79,-468.83 378.24,-458.55 373.82,-468.18 380.79,-468.83"/>
</g>
</g>
</svg>
