<?xml version="1.0" encoding="UTF-8" standalone="no"?>
<!DOCTYPE svg PUBLIC "-//W3C//DTD SVG 1.1//EN"
 "http://www.w3.org/Graphics/SVG/1.1/DTD/svg11.dtd">
<!-- Generated by graphviz version 2.42.3 (20191010.1750)
 -->
<!-- Title: readline.cpp Pages: 1 -->
<svg width="901pt" height="192pt"
 viewBox="0.00 0.00 900.68 192.00" xmlns="http://www.w3.org/2000/svg" xmlns:xlink="http://www.w3.org/1999/xlink">
<g id="graph0" class="graph" transform="scale(1 1) rotate(0) translate(4 188)">
<title>readline.cpp</title>
<polygon fill="white" stroke="transparent" points="-4,4 -4,-188 896.68,-188 896.68,4 -4,4"/>
<!-- Node1 -->
<g id="node1" class="node">
<title>Node1</title>
<g id="a_node1"><a xlink:title=" ">
<polygon fill="#bfbfbf" stroke="black" points="461.87,-165.5 461.87,-183.5 532.36,-183.5 532.36,-165.5 461.87,-165.5"/>
<text text-anchor="middle" x="497.12" y="-171.5" font-family="Helvetica,sans-Serif" font-size="10.00">readline.cpp</text>
</a>
</g>
</g>
<!-- Node2 -->
<g id="node2" class="node">
<title>Node2</title>
<g id="a_node2"><a xlink:href="../../d8/d47/codepoint_8h.html" target="_top" xlink:title=" ">
<polygon fill="white" stroke="black" points="77.82,-110.5 77.82,-128.5 174.42,-128.5 174.42,-110.5 77.82,-110.5"/>
<text text-anchor="middle" x="126.12" y="-116.5" font-family="Helvetica,sans-Serif" font-size="10.00">tralics/codepoint.h</text>
</a>
</g>
</g>
<!-- Node1&#45;&gt;Node2 -->
<g id="edge1" class="edge">
<title>Node1&#45;&gt;Node2</title>
<path fill="none" stroke="midnightblue" d="M461.43,-168.48C405.08,-160.53 291.75,-144.52 184.55,-129.06"/>
<polygon fill="midnightblue" stroke="midnightblue" points="184.93,-125.58 174.53,-127.61 183.93,-132.5 184.93,-125.58"/>
</g>
<!-- Node8 -->
<g id="node8" class="node">
<title>Node8</title>
<g id="a_node8"><a xlink:title=" ">
<polygon fill="white" stroke="#bfbfbf" points="192.72,-110.5 192.72,-128.5 231.51,-128.5 231.51,-110.5 192.72,-110.5"/>
<text text-anchor="middle" x="212.12" y="-116.5" font-family="Helvetica,sans-Serif" font-size="10.00">array</text>
</a>
</g>
</g>
<!-- Node1&#45;&gt;Node8 -->
<g id="edge7" class="edge">
<title>Node1&#45;&gt;Node8</title>
<path fill="none" stroke="midnightblue" d="M461.66,-168.63C413.86,-161.79 325.94,-148.2 241.44,-128.83"/>
<polygon fill="midnightblue" stroke="midnightblue" points="242.22,-125.42 231.69,-126.56 240.64,-132.24 242.22,-125.42"/>
</g>
<!-- Node9 -->
<g id="node9" class="node">
<title>Node9</title>
<g id="a_node9"><a xlink:title=" ">
<polygon fill="white" stroke="#bfbfbf" points="249.67,-110.5 249.67,-128.5 294.57,-128.5 294.57,-110.5 249.67,-110.5"/>
<text text-anchor="middle" x="272.12" y="-116.5" font-family="Helvetica,sans-Serif" font-size="10.00">cctype</text>
</a>
</g>
</g>
<!-- Node1&#45;&gt;Node9 -->
<g id="edge8" class="edge">
<title>Node1&#45;&gt;Node9</title>
<path fill="none" stroke="midnightblue" d="M461.61,-165.83C424.68,-157.74 364.96,-144.38 304.82,-129.35"/>
<polygon fill="midnightblue" stroke="midnightblue" points="305.33,-125.87 294.77,-126.83 303.62,-132.66 305.33,-125.87"/>
</g>
<!-- Node10 -->
<g id="node10" class="node">
<title>Node10</title>
<g id="a_node10"><a xlink:title=" ">
<polygon fill="white" stroke="#bfbfbf" points="312.55,-110.5 312.55,-128.5 359.68,-128.5 359.68,-110.5 312.55,-110.5"/>
<text text-anchor="middle" x="336.12" y="-116.5" font-family="Helvetica,sans-Serif" font-size="10.00">csignal</text>
</a>
</g>
</g>
<!-- Node1&#45;&gt;Node10 -->
<g id="edge9" class="edge">
<title>Node1&#45;&gt;Node10</title>
<path fill="none" stroke="midnightblue" d="M472.66,-165.45C445.16,-156.4 400.33,-141.64 369.59,-131.52"/>
<polygon fill="midnightblue" stroke="midnightblue" points="370.34,-128.08 359.75,-128.28 368.15,-134.73 370.34,-128.08"/>
</g>
<!-- Node11 -->
<g id="node11" class="node">
<title>Node11</title>
<g id="a_node11"><a xlink:title=" ">
<polygon fill="white" stroke="#bfbfbf" points="377.94,-110.5 377.94,-128.5 422.29,-128.5 422.29,-110.5 377.94,-110.5"/>
<text text-anchor="middle" x="400.12" y="-116.5" font-family="Helvetica,sans-Serif" font-size="10.00">cstdlib</text>
</a>
</g>
</g>
<!-- Node1&#45;&gt;Node11 -->
<g id="edge10" class="edge">
<title>Node1&#45;&gt;Node11</title>
<path fill="none" stroke="midnightblue" d="M482.38,-165.45C466.86,-156.97 442.17,-143.48 423.88,-133.49"/>
<polygon fill="midnightblue" stroke="midnightblue" points="425.44,-130.35 414.99,-128.63 422.08,-136.49 425.44,-130.35"/>
</g>
<!-- Node12 -->
<g id="node12" class="node">
<title>Node12</title>
<g id="a_node12"><a xlink:title=" ">
<polygon fill="white" stroke="#bfbfbf" points="440.39,-110.5 440.39,-128.5 485.84,-128.5 485.84,-110.5 440.39,-110.5"/>
<text text-anchor="middle" x="463.12" y="-116.5" font-family="Helvetica,sans-Serif" font-size="10.00">cstring</text>
</a>
</g>
</g>
<!-- Node1&#45;&gt;Node12 -->
<g id="edge11" class="edge">
<title>Node1&#45;&gt;Node12</title>
<path fill="none" stroke="midnightblue" d="M491.8,-165.22C486.98,-157.71 479.74,-146.41 473.73,-137.05"/>
<polygon fill="midnightblue" stroke="midnightblue" points="476.63,-135.08 468.28,-128.55 470.73,-138.86 476.63,-135.08"/>
</g>
<!-- Node13 -->
<g id="node13" class="node">
<title>Node13</title>
<g id="a_node13"><a xlink:title=" ">
<polygon fill="white" stroke="#bfbfbf" points="503.94,-110.5 503.94,-128.5 558.29,-128.5 558.29,-110.5 503.94,-110.5"/>
<text text-anchor="middle" x="531.12" y="-116.5" font-family="Helvetica,sans-Serif" font-size="10.00">iostream</text>
</a>
</g>
</g>
<!-- Node1&#45;&gt;Node13 -->
<g id="edge12" class="edge">
<title>Node1&#45;&gt;Node13</title>
<path fill="none" stroke="midnightblue" d="M502.43,-165.22C507.25,-157.71 514.49,-146.41 520.5,-137.05"/>
<polygon fill="midnightblue" stroke="midnightblue" points="523.5,-138.86 525.95,-128.55 517.61,-135.08 523.5,-138.86"/>
</g>
<!-- Node14 -->
<g id="node14" class="node">
<title>Node14</title>
<g id="a_node14"><a xlink:title=" ">
<polygon fill="white" stroke="#bfbfbf" points="575.89,-110.5 575.89,-128.5 616.34,-128.5 616.34,-110.5 575.89,-110.5"/>
<text text-anchor="middle" x="596.12" y="-116.5" font-family="Helvetica,sans-Serif" font-size="10.00">string</text>
</a>
</g>
</g>
<!-- Node1&#45;&gt;Node14 -->
<g id="edge13" class="edge">
<title>Node1&#45;&gt;Node14</title>
<path fill="none" stroke="midnightblue" d="M512.15,-165.45C528.07,-156.93 553.43,-143.35 572.12,-133.35"/>
<polygon fill="midnightblue" stroke="midnightblue" points="573.77,-136.43 580.94,-128.63 570.47,-130.26 573.77,-136.43"/>
</g>
<!-- Node15 -->
<g id="node15" class="node">
<title>Node15</title>
<g id="a_node15"><a xlink:title=" ">
<polygon fill="white" stroke="#bfbfbf" points="634.11,-110.5 634.11,-128.5 700.13,-128.5 700.13,-110.5 634.11,-110.5"/>
<text text-anchor="middle" x="667.12" y="-116.5" font-family="Helvetica,sans-Serif" font-size="10.00">sys/types.h</text>
</a>
</g>
</g>
<!-- Node1&#45;&gt;Node15 -->
<g id="edge14" class="edge">
<title>Node1&#45;&gt;Node15</title>
<path fill="none" stroke="midnightblue" d="M522.94,-165.45C551.98,-156.4 599.31,-141.64 631.77,-131.52"/>
<polygon fill="midnightblue" stroke="midnightblue" points="632.83,-134.86 641.33,-128.54 630.74,-128.17 632.83,-134.86"/>
</g>
<!-- Node16 -->
<g id="node16" class="node">
<title>Node16</title>
<g id="a_node16"><a xlink:title=" ">
<polygon fill="white" stroke="#bfbfbf" points="717.72,-110.5 717.72,-128.5 756.51,-128.5 756.51,-110.5 717.72,-110.5"/>
<text text-anchor="middle" x="737.12" y="-116.5" font-family="Helvetica,sans-Serif" font-size="10.00">utility</text>
</a>
</g>
</g>
<!-- Node1&#45;&gt;Node16 -->
<g id="edge15" class="edge">
<title>Node1&#45;&gt;Node16</title>
<path fill="none" stroke="midnightblue" d="M532.6,-167.04C572.9,-159.49 640.8,-146.1 707.73,-129.19"/>
<polygon fill="midnightblue" stroke="midnightblue" points="708.77,-132.53 717.6,-126.66 707.04,-125.75 708.77,-132.53"/>
</g>
<!-- Node17 -->
<g id="node17" class="node">
<title>Node17</title>
<g id="a_node17"><a xlink:title=" ">
<polygon fill="white" stroke="#bfbfbf" points="774.5,-110.5 774.5,-128.5 817.73,-128.5 817.73,-110.5 774.5,-110.5"/>
<text text-anchor="middle" x="796.12" y="-116.5" font-family="Helvetica,sans-Serif" font-size="10.00">vector</text>
</a>
</g>
</g>
<!-- Node1&#45;&gt;Node17 -->
<g id="edge16" class="edge">
<title>Node1&#45;&gt;Node17</title>
<path fill="none" stroke="midnightblue" d="M532.46,-168.82C582.07,-161.98 675.37,-148.19 764.2,-129"/>
<polygon fill="midnightblue" stroke="midnightblue" points="765.15,-132.37 774.17,-126.82 763.65,-125.54 765.15,-132.37"/>
</g>
<!-- Node18 -->
<g id="node18" class="node">
<title>Node18</title>
<g id="a_node18"><a xlink:title=" ">
<polygon fill="white" stroke="#bfbfbf" points="835.55,-110.5 835.55,-128.5 892.68,-128.5 892.68,-110.5 835.55,-110.5"/>
<text text-anchor="middle" x="864.12" y="-116.5" font-family="Helvetica,sans-Serif" font-size="10.00">termios.h</text>
</a>
</g>
</g>
<!-- Node1&#45;&gt;Node18 -->
<g id="edge17" class="edge">
<title>Node1&#45;&gt;Node18</title>
<path fill="none" stroke="midnightblue" d="M532.45,-169.81C591.24,-163.44 713.06,-149.26 825.35,-129.18"/>
<polygon fill="midnightblue" stroke="midnightblue" points="826.27,-132.57 835.49,-127.35 825.02,-125.69 826.27,-132.57"/>
</g>
<!-- Node3 -->
<g id="node3" class="node">
<title>Node3</title>
<g id="a_node3"><a xlink:href="../../d9/d49/types_8h.html" target="_top" xlink:title=" ">
<polygon fill="white" stroke="black" points="68,-55.5 68,-73.5 116.24,-73.5 116.24,-55.5 68,-55.5"/>
<text text-anchor="middle" x="92.12" y="-61.5" font-family="Helvetica,sans-Serif" font-size="10.00">types.h</text>
</a>
</g>
</g>
<!-- Node2&#45;&gt;Node3 -->
<g id="edge2" class="edge">
<title>Node2&#45;&gt;Node3</title>
<path fill="none" stroke="midnightblue" d="M120.8,-110.22C115.98,-102.71 108.74,-91.41 102.73,-82.05"/>
<polygon fill="midnightblue" stroke="midnightblue" points="105.63,-80.08 97.28,-73.55 99.73,-83.86 105.63,-80.08"/>
</g>
<!-- Node7 -->
<g id="node7" class="node">
<title>Node7</title>
<g id="a_node7"><a xlink:title=" ">
<polygon fill="white" stroke="#bfbfbf" points="134.6,-55.5 134.6,-73.5 185.63,-73.5 185.63,-55.5 134.6,-55.5"/>
<text text-anchor="middle" x="160.12" y="-61.5" font-family="Helvetica,sans-Serif" font-size="10.00">optional</text>
</a>
</g>
</g>
<!-- Node2&#45;&gt;Node7 -->
<g id="edge6" class="edge">
<title>Node2&#45;&gt;Node7</title>
<path fill="none" stroke="midnightblue" d="M131.43,-110.22C136.25,-102.71 143.49,-91.41 149.5,-82.05"/>
<polygon fill="midnightblue" stroke="midnightblue" points="152.5,-83.86 154.95,-73.55 146.61,-80.08 152.5,-83.86"/>
</g>
<!-- Node4 -->
<g id="node4" class="node">
<title>Node4</title>
<g id="a_node4"><a xlink:title=" ">
<polygon fill="white" stroke="#bfbfbf" points="0,-0.5 0,-18.5 48.23,-18.5 48.23,-0.5 0,-0.5"/>
<text text-anchor="middle" x="24.12" y="-6.5" font-family="Helvetica,sans-Serif" font-size="10.00">cassert</text>
</a>
</g>
</g>
<!-- Node3&#45;&gt;Node4 -->
<g id="edge3" class="edge">
<title>Node3&#45;&gt;Node4</title>
<path fill="none" stroke="midnightblue" d="M81.79,-55.45C71.4,-47.36 55.17,-34.7 42.57,-24.88"/>
<polygon fill="midnightblue" stroke="midnightblue" points="44.58,-22.01 34.54,-18.63 40.28,-27.53 44.58,-22.01"/>
</g>
<!-- Node5 -->
<g id="node5" class="node">
<title>Node5</title>
<g id="a_node5"><a xlink:title=" ">
<polygon fill="white" stroke="#bfbfbf" points="66.33,-0.5 66.33,-18.5 117.91,-18.5 117.91,-0.5 66.33,-0.5"/>
<text text-anchor="middle" x="92.12" y="-6.5" font-family="Helvetica,sans-Serif" font-size="10.00">stddef.h</text>
</a>
</g>
</g>
<!-- Node3&#45;&gt;Node5 -->
<g id="edge4" class="edge">
<title>Node3&#45;&gt;Node5</title>
<path fill="none" stroke="midnightblue" d="M92.12,-55.22C92.12,-48.18 92.12,-37.81 92.12,-28.83"/>
<polygon fill="midnightblue" stroke="midnightblue" points="95.62,-28.55 92.12,-18.55 88.62,-28.55 95.62,-28.55"/>
</g>
<!-- Node6 -->
<g id="node6" class="node">
<title>Node6</title>
<g id="a_node6"><a xlink:title=" ">
<polygon fill="white" stroke="#bfbfbf" points="136.05,-0.5 136.05,-18.5 198.18,-18.5 198.18,-0.5 136.05,-0.5"/>
<text text-anchor="middle" x="167.12" y="-6.5" font-family="Helvetica,sans-Serif" font-size="10.00">type_traits</text>
</a>
</g>
</g>
<!-- Node3&#45;&gt;Node6 -->
<g id="edge5" class="edge">
<title>Node3&#45;&gt;Node6</title>
<path fill="none" stroke="midnightblue" d="M103.51,-55.45C115.07,-47.28 133.21,-34.46 147.16,-24.6"/>
<polygon fill="midnightblue" stroke="midnightblue" points="149.47,-27.25 155.62,-18.63 145.43,-21.54 149.47,-27.25"/>
</g>
</g>
</svg>
