<?xml version="1.0" encoding="UTF-8" standalone="no"?>
<!DOCTYPE svg PUBLIC "-//W3C//DTD SVG 1.1//EN"
 "http://www.w3.org/Graphics/SVG/1.1/DTD/svg11.dtd">
<!-- Generated by graphviz version 2.42.3 (20191010.1750)
 -->
<!-- Title: BblAndTty Pages: 1 -->
<svg width="474pt" height="485pt"
 viewBox="0.00 0.00 474.37 485.00" xmlns="http://www.w3.org/2000/svg" xmlns:xlink="http://www.w3.org/1999/xlink">
<g id="graph0" class="graph" transform="scale(1 1) rotate(0) translate(4 481)">
<title>BblAndTty</title>
<!-- Node1 -->
<g id="node1" class="node">
<title>Node1</title>
<g id="a_node1"><a xlink:title=" ">
<polygon fill="#bfbfbf" stroke="black" points="124.34,-0.5 124.34,-18.5 186.48,-18.5 186.48,-0.5 124.34,-0.5"/>
<text text-anchor="middle" x="155.41" y="-6.5" font-family="Helvetica,sans-Serif" font-size="10.00">BblAndTty</text>
</a>
</g>
</g>
<!-- Node2 -->
<g id="node2" class="node">
<title>Node2</title>
<g id="a_node2"><a xlink:href="../../d2/d56/class_bbl.html" target="_top" xlink:title=" ">
<polygon fill="none" stroke="black" points="181.18,-65.5 181.18,-83.5 211.64,-83.5 211.64,-65.5 181.18,-65.5"/>
<text text-anchor="middle" x="196.41" y="-71.5" font-family="Helvetica,sans-Serif" font-size="10.00">Bbl</text>
</a>
</g>
</g>
<!-- Node2&#45;&gt;Node1 -->
<g id="edge1" class="edge">
<title>Node2&#45;&gt;Node1</title>
<path fill="none" stroke="#9a32cd" stroke-dasharray="5,2" d="M185.51,-56.75C177.47,-44.39 166.88,-28.12 160.64,-18.54"/>
<polygon fill="#9a32cd" stroke="#9a32cd" points="182.66,-58.79 191.05,-65.26 188.53,-54.97 182.66,-58.79"/>
<text text-anchor="middle" x="183.13" y="-39" font-family="Helvetica,sans-Serif" font-size="10.00"> X</text>
</g>
<!-- Node3 -->
<g id="node3" class="node">
<title>Node3</title>
<g id="a_node3"><a xlink:title="STL class.">
<polygon fill="none" stroke="#bfbfbf" points="312.29,-130.5 312.29,-148.5 380.53,-148.5 380.53,-130.5 312.29,-130.5"/>
<text text-anchor="middle" x="346.41" y="-136.5" font-family="Helvetica,sans-Serif" font-size="10.00">std::fstream</text>
</a>
</g>
</g>
<!-- Node3&#45;&gt;Node2 -->
<g id="edge2" class="edge">
<title>Node3&#45;&gt;Node2</title>
<path fill="none" stroke="#9a32cd" stroke-dasharray="5,2" d="M321.93,-125.94C307.17,-118.58 287.91,-109.31 270.41,-102 250.51,-93.69 226.99,-85.54 211.89,-80.52"/>
<polygon fill="#9a32cd" stroke="#9a32cd" points="320.4,-129.09 330.9,-130.47 323.55,-122.84 320.4,-129.09"/>
<text text-anchor="middle" x="300.19" y="-104" font-family="Helvetica,sans-Serif" font-size="10.00"> file</text>
</g>
<!-- Node4 -->
<g id="node4" class="node">
<title>Node4</title>
<g id="a_node4"><a xlink:title="STL class.">
<polygon fill="none" stroke="#bfbfbf" points="308.84,-195.5 308.84,-223.5 405.98,-223.5 405.98,-195.5 308.84,-195.5"/>
<text text-anchor="start" x="316.84" y="-211.5" font-family="Helvetica,sans-Serif" font-size="10.00">std::basic_fstream</text>
<text text-anchor="middle" x="357.41" y="-201.5" font-family="Helvetica,sans-Serif" font-size="10.00">&lt; char &gt;</text>
</a>
</g>
</g>
<!-- Node4&#45;&gt;Node3 -->
<g id="edge3" class="edge">
<title>Node4&#45;&gt;Node3</title>
<path fill="none" stroke="midnightblue" d="M353.69,-185.48C351.64,-172.84 349.23,-157.94 347.76,-148.86"/>
<polygon fill="midnightblue" stroke="midnightblue" points="350.24,-186.08 355.29,-195.39 357.15,-184.96 350.24,-186.08"/>
</g>
<!-- Node5 -->
<g id="node5" class="node">
<title>Node5</title>
<g id="a_node5"><a xlink:title="STL class.">
<polygon fill="none" stroke="#bfbfbf" points="318.33,-270.5 318.33,-298.5 420.48,-298.5 420.48,-270.5 318.33,-270.5"/>
<text text-anchor="start" x="326.33" y="-286.5" font-family="Helvetica,sans-Serif" font-size="10.00">std::basic_iostream</text>
<text text-anchor="middle" x="369.41" y="-276.5" font-family="Helvetica,sans-Serif" font-size="10.00">&lt; Char &gt;</text>
</a>
</g>
</g>
<!-- Node5&#45;&gt;Node4 -->
<g id="edge4" class="edge">
<title>Node5&#45;&gt;Node4</title>
<path fill="none" stroke="midnightblue" d="M365.59,-260.24C363.62,-248.26 361.29,-234.08 359.62,-223.93"/>
<polygon fill="midnightblue" stroke="midnightblue" points="362.19,-261.15 367.26,-270.45 369.09,-260.01 362.19,-261.15"/>
</g>
<!-- Node6 -->
<g id="node6" class="node">
<title>Node6</title>
<g id="a_node6"><a xlink:title="STL class.">
<polygon fill="none" stroke="#bfbfbf" points="252.12,-336.5 252.12,-364.5 348.7,-364.5 348.7,-336.5 252.12,-336.5"/>
<text text-anchor="start" x="260.12" y="-352.5" font-family="Helvetica,sans-Serif" font-size="10.00">std::basic_istream</text>
<text text-anchor="middle" x="300.41" y="-342.5" font-family="Helvetica,sans-Serif" font-size="10.00">&lt; Char &gt;</text>
</a>
</g>
</g>
<!-- Node6&#45;&gt;Node5 -->
<g id="edge5" class="edge">
<title>Node6&#45;&gt;Node5</title>
<path fill="none" stroke="midnightblue" d="M322.13,-329.35C332.9,-319.36 345.61,-307.58 355.13,-298.74"/>
<polygon fill="midnightblue" stroke="midnightblue" points="319.66,-326.87 314.71,-336.24 324.42,-332 319.66,-326.87"/>
</g>
<!-- Node7 -->
<g id="node7" class="node">
<title>Node7</title>
<g id="a_node7"><a xlink:title="STL class.">
<polygon fill="none" stroke="#bfbfbf" points="299.66,-402.5 299.66,-420.5 415.16,-420.5 415.16,-402.5 299.66,-402.5"/>
<text text-anchor="middle" x="357.41" y="-408.5" font-family="Helvetica,sans-Serif" font-size="10.00">std::basic_ios&lt; Char &gt;</text>
</a>
</g>
</g>
<!-- Node7&#45;&gt;Node6 -->
<g id="edge6" class="edge">
<title>Node7&#45;&gt;Node6</title>
<path fill="none" stroke="midnightblue" d="M342.49,-395.06C333.35,-385.6 321.78,-373.62 313.09,-364.62"/>
<polygon fill="midnightblue" stroke="midnightblue" points="340.02,-397.54 349.48,-402.3 345.05,-392.67 340.02,-397.54"/>
</g>
<!-- Node9 -->
<g id="node9" class="node">
<title>Node9</title>
<g id="a_node9"><a xlink:title="STL class.">
<polygon fill="none" stroke="#bfbfbf" points="366.45,-336.5 366.45,-364.5 466.37,-364.5 466.37,-336.5 366.45,-336.5"/>
<text text-anchor="start" x="374.45" y="-352.5" font-family="Helvetica,sans-Serif" font-size="10.00">std::basic_ostream</text>
<text text-anchor="middle" x="416.41" y="-342.5" font-family="Helvetica,sans-Serif" font-size="10.00">&lt; Char &gt;</text>
</a>
</g>
</g>
<!-- Node7&#45;&gt;Node9 -->
<g id="edge9" class="edge">
<title>Node7&#45;&gt;Node9</title>
<path fill="none" stroke="midnightblue" d="M372.85,-395.06C382.31,-385.6 394.29,-373.62 403.29,-364.62"/>
<polygon fill="midnightblue" stroke="midnightblue" points="370.21,-392.75 365.61,-402.3 375.16,-397.7 370.21,-392.75"/>
</g>
<!-- Node8 -->
<g id="node8" class="node">
<title>Node8</title>
<g id="a_node8"><a xlink:title="STL class.">
<polygon fill="none" stroke="#bfbfbf" points="319.95,-458.5 319.95,-476.5 394.87,-476.5 394.87,-458.5 319.95,-458.5"/>
<text text-anchor="middle" x="357.41" y="-464.5" font-family="Helvetica,sans-Serif" font-size="10.00">std::ios_base</text>
</a>
</g>
</g>
<!-- Node8&#45;&gt;Node7 -->
<g id="edge7" class="edge">
<title>Node8&#45;&gt;Node7</title>
<path fill="none" stroke="midnightblue" d="M357.41,-447.83C357.41,-438.58 357.41,-427.88 357.41,-420.7"/>
<polygon fill="midnightblue" stroke="midnightblue" points="353.91,-448.06 357.41,-458.06 360.91,-448.06 353.91,-448.06"/>
</g>
<!-- Node9&#45;&gt;Node5 -->
<g id="edge8" class="edge">
<title>Node9&#45;&gt;Node5</title>
<path fill="none" stroke="midnightblue" d="M400.75,-328.18C393.61,-318.45 385.37,-307.24 379.13,-298.74"/>
<polygon fill="midnightblue" stroke="midnightblue" points="397.93,-330.25 406.67,-336.24 403.57,-326.11 397.93,-330.25"/>
</g>
<!-- Node10 -->
<g id="node10" class="node">
<title>Node10</title>
<g id="a_node10"><a xlink:href="../../d6/d5a/struct_line_ptr.html" target="_top" xlink:title=" ">
<polygon fill="none" stroke="black" points="171.57,-130.5 171.57,-148.5 219.25,-148.5 219.25,-130.5 171.57,-130.5"/>
<text text-anchor="middle" x="195.41" y="-136.5" font-family="Helvetica,sans-Serif" font-size="10.00">LinePtr</text>
</a>
</g>
</g>
<!-- Node10&#45;&gt;Node2 -->
<g id="edge10" class="edge">
<title>Node10&#45;&gt;Node2</title>
<path fill="none" stroke="#9a32cd" stroke-dasharray="5,2" d="M195.7,-119.91C195.9,-107.81 196.14,-92.65 196.28,-83.54"/>
<polygon fill="#9a32cd" stroke="#9a32cd" points="192.2,-120.21 195.54,-130.26 199.2,-120.32 192.2,-120.21"/>
<text text-anchor="middle" x="208.08" y="-104" font-family="Helvetica,sans-Serif" font-size="10.00"> lines</text>
</g>
<!-- Node11 -->
<g id="node11" class="node">
<title>Node11</title>
<g id="a_node11"><a xlink:title="STL class.">
<polygon fill="none" stroke="#bfbfbf" points="116.34,-200.5 116.34,-218.5 208.48,-218.5 208.48,-200.5 116.34,-200.5"/>
<text text-anchor="middle" x="162.41" y="-206.5" font-family="Helvetica,sans-Serif" font-size="10.00">std::list&lt; Clines &gt;</text>
</a>
</g>
</g>
<!-- Node11&#45;&gt;Node10 -->
<g id="edge11" class="edge">
<title>Node11&#45;&gt;Node10</title>
<path fill="none" stroke="midnightblue" d="M167.23,-190.43C169.54,-182.97 172.63,-174.36 176.41,-167 179.71,-160.55 184.46,-153.93 188.39,-148.91"/>
<polygon fill="midnightblue" stroke="midnightblue" points="163.8,-189.68 164.41,-200.26 170.53,-191.61 163.8,-189.68"/>
</g>
<!-- Node12 -->
<g id="node12" class="node">
<title>Node12</title>
<g id="a_node12"><a xlink:title=" ">
<polygon fill="none" stroke="#bfbfbf" points="127.91,-275.5 127.91,-293.5 156.91,-293.5 156.91,-275.5 127.91,-275.5"/>
<text text-anchor="middle" x="141.96" y="-281.5" font-family="Helvetica,sans-Serif" font-size="10.00">T</text>
</a>
</g>
</g>
<!-- Node12&#45;&gt;Node11 -->
<g id="edge12" class="edge">
<title>Node12&#45;&gt;Node11</title>
<path fill="none" stroke="#9a32cd" stroke-dasharray="5,2" d="M147.38,-265.35C151.46,-250.48 157.03,-230.12 160.12,-218.85"/>
<polygon fill="#9a32cd" stroke="#9a32cd" points="143.89,-264.84 144.63,-275.41 150.64,-266.69 143.89,-264.84"/>
<text text-anchor="middle" x="176.09" y="-244" font-family="Helvetica,sans-Serif" font-size="10.00"> elements</text>
</g>
<!-- Node16 -->
<g id="node16" class="node">
<title>Node16</title>
<g id="a_node16"><a xlink:title="STL class.">
<polygon fill="none" stroke="#bfbfbf" points="0,-200.5 0,-218.5 98.82,-218.5 98.82,-200.5 0,-200.5"/>
<text text-anchor="middle" x="49.41" y="-206.5" font-family="Helvetica,sans-Serif" font-size="10.00">std::vector&lt; char &gt;</text>
</a>
</g>
</g>
<!-- Node12&#45;&gt;Node16 -->
<g id="edge18" class="edge">
<title>Node12&#45;&gt;Node16</title>
<path fill="none" stroke="#9a32cd" stroke-dasharray="5,2" d="M124.08,-269.11C104.84,-254.01 75.29,-230.82 59.76,-218.63"/>
<polygon fill="#9a32cd" stroke="#9a32cd" points="122.07,-271.99 132.1,-275.41 126.4,-266.48 122.07,-271.99"/>
<text text-anchor="middle" x="124.09" y="-244" font-family="Helvetica,sans-Serif" font-size="10.00"> elements</text>
</g>
<!-- Node13 -->
<g id="node13" class="node">
<title>Node13</title>
<g id="a_node13"><a xlink:title="STL class.">
<polygon fill="none" stroke="#bfbfbf" points="226.73,-200.5 226.73,-218.5 286.08,-218.5 286.08,-200.5 226.73,-200.5"/>
<text text-anchor="middle" x="256.41" y="-206.5" font-family="Helvetica,sans-Serif" font-size="10.00">std::string</text>
</a>
</g>
</g>
<!-- Node13&#45;&gt;Node2 -->
<g id="edge15" class="edge">
<title>Node13&#45;&gt;Node2</title>
<path fill="none" stroke="#9a32cd" stroke-dasharray="5,2" d="M253.62,-190.48C249.59,-168.36 240.66,-130.29 223.41,-102 219.1,-94.93 212.49,-88.4 206.89,-83.59"/>
<polygon fill="#9a32cd" stroke="#9a32cd" points="250.19,-191.18 255.3,-200.46 257.09,-190.02 250.19,-191.18"/>
<text text-anchor="middle" x="258.31" y="-136.5" font-family="Helvetica,sans-Serif" font-size="10.00"> name</text>
</g>
<!-- Node13&#45;&gt;Node10 -->
<g id="edge13" class="edge">
<title>Node13&#45;&gt;Node10</title>
<path fill="none" stroke="#9a32cd" stroke-dasharray="5,2" d="M226.38,-196.22C213.25,-190.19 199.97,-182.96 196.27,-177 190.99,-168.49 191.9,-156.58 193.37,-148.71"/>
<polygon fill="#9a32cd" stroke="#9a32cd" points="225.23,-199.54 235.79,-200.37 228.05,-193.13 225.23,-199.54"/>
<text text-anchor="middle" x="219.48" y="-169" font-family="Helvetica,sans-Serif" font-size="10.00"> file_name</text>
</g>
<!-- Node14 -->
<g id="node14" class="node">
<title>Node14</title>
<g id="a_node14"><a xlink:title="STL class.">
<polygon fill="none" stroke="#bfbfbf" points="206.36,-270.5 206.36,-298.5 300.46,-298.5 300.46,-270.5 206.36,-270.5"/>
<text text-anchor="start" x="214.36" y="-286.5" font-family="Helvetica,sans-Serif" font-size="10.00">std::basic_string&lt;</text>
<text text-anchor="middle" x="253.41" y="-276.5" font-family="Helvetica,sans-Serif" font-size="10.00"> char &gt;</text>
</a>
</g>
</g>
<!-- Node14&#45;&gt;Node13 -->
<g id="edge14" class="edge">
<title>Node14&#45;&gt;Node13</title>
<path fill="none" stroke="midnightblue" d="M254.36,-260.4C254.94,-246.24 255.65,-228.95 256.06,-218.89"/>
<polygon fill="midnightblue" stroke="midnightblue" points="250.86,-260.31 253.95,-270.45 257.85,-260.6 250.86,-260.31"/>
</g>
<!-- Node15 -->
<g id="node15" class="node">
<title>Node15</title>
<g id="a_node15"><a xlink:href="../../d5/d2a/class_buffer.html" target="_top" xlink:title="a big structure">
<polygon fill="none" stroke="black" points="110.16,-130.5 110.16,-148.5 152.66,-148.5 152.66,-130.5 110.16,-130.5"/>
<text text-anchor="middle" x="131.41" y="-136.5" font-family="Helvetica,sans-Serif" font-size="10.00">Buffer</text>
</a>
</g>
</g>
<!-- Node15&#45;&gt;Node1 -->
<g id="edge19" class="edge">
<title>Node15&#45;&gt;Node1</title>
<path fill="none" stroke="#9a32cd" stroke-dasharray="5,2" d="M134.8,-120.4C140.1,-92.15 150.12,-38.7 153.91,-18.5"/>
<polygon fill="#9a32cd" stroke="#9a32cd" points="131.31,-120.02 132.91,-130.49 138.19,-121.31 131.31,-120.02"/>
<text text-anchor="middle" x="150.69" y="-71.5" font-family="Helvetica,sans-Serif" font-size="10.00"> lb</text>
</g>
<!-- Node15&#45;&gt;Node2 -->
<g id="edge16" class="edge">
<title>Node15&#45;&gt;Node2</title>
<path fill="none" stroke="#9a32cd" stroke-dasharray="5,2" d="M147.21,-123.19C160.11,-110.68 177.84,-93.5 188.11,-83.54"/>
<polygon fill="#9a32cd" stroke="#9a32cd" points="144.65,-120.79 139.91,-130.26 149.52,-125.82 144.65,-120.79"/>
<text text-anchor="middle" x="173.13" y="-104" font-family="Helvetica,sans-Serif" font-size="10.00"> B</text>
</g>
<!-- Node16&#45;&gt;Node15 -->
<g id="edge17" class="edge">
<title>Node16&#45;&gt;Node15</title>
<path fill="none" stroke="midnightblue" d="M67.07,-193.85C83.79,-179.99 108.26,-159.7 121.69,-148.56"/>
<polygon fill="midnightblue" stroke="midnightblue" points="64.6,-191.35 59.14,-200.43 69.07,-196.74 64.6,-191.35"/>
</g>
</g>
</svg>
