<?xml version="1.0" encoding="UTF-8" standalone="no"?>
<!DOCTYPE svg PUBLIC "-//W3C//DTD SVG 1.1//EN"
 "http://www.w3.org/Graphics/SVG/1.1/DTD/svg11.dtd">
<!-- Generated by graphviz version 2.42.3 (20191010.1750)
 -->
<!-- Title: BblAndTty Pages: 1 -->
<svg width="528pt" height="504pt"
 viewBox="0.00 0.00 527.70 504.00" xmlns="http://www.w3.org/2000/svg" xmlns:xlink="http://www.w3.org/1999/xlink">
<g id="graph0" class="graph" transform="scale(1 1) rotate(0) translate(4 500)">
<title>BblAndTty</title>
<!-- Node1 -->
<g id="node1" class="node">
<title>Node1</title>
<g id="a_node1"><a xlink:title=" ">
<polygon fill="#bfbfbf" stroke="black" points="283.23,-0.5 283.23,-18.5 345.36,-18.5 345.36,-0.5 283.23,-0.5"/>
<text text-anchor="middle" x="314.29" y="-6.5" font-family="Helvetica,sans-Serif" font-size="10.00">BblAndTty</text>
</a>
</g>
</g>
<!-- Node2 -->
<g id="node2" class="node">
<title>Node2</title>
<g id="a_node2"><a xlink:href="../../d2/d56/class_bbl.html" target="_top" xlink:title=" ">
<polygon fill="none" stroke="black" points="264.07,-65.5 264.07,-83.5 294.52,-83.5 294.52,-65.5 264.07,-65.5"/>
<text text-anchor="middle" x="279.29" y="-71.5" font-family="Helvetica,sans-Serif" font-size="10.00">Bbl</text>
</a>
</g>
</g>
<!-- Node2&#45;&gt;Node1 -->
<g id="edge1" class="edge">
<title>Node2&#45;&gt;Node1</title>
<path fill="none" stroke="#9a32cd" stroke-dasharray="5,2" d="M288.8,-56.39C295.64,-44.08 304.55,-28.03 309.83,-18.54"/>
<polygon fill="#9a32cd" stroke="#9a32cd" points="285.67,-54.82 283.87,-65.26 291.78,-58.22 285.67,-54.82"/>
<text text-anchor="middle" x="304.02" y="-39" font-family="Helvetica,sans-Serif" font-size="10.00"> X</text>
</g>
<!-- Node3 -->
<g id="node3" class="node">
<title>Node3</title>
<g id="a_node3"><a xlink:title="STL class.">
<polygon fill="none" stroke="#bfbfbf" points="125.17,-130.5 125.17,-148.5 193.41,-148.5 193.41,-130.5 125.17,-130.5"/>
<text text-anchor="middle" x="159.29" y="-136.5" font-family="Helvetica,sans-Serif" font-size="10.00">std::fstream</text>
</a>
</g>
</g>
<!-- Node3&#45;&gt;Node2 -->
<g id="edge2" class="edge">
<title>Node3&#45;&gt;Node2</title>
<path fill="none" stroke="#9a32cd" stroke-dasharray="5,2" d="M172.9,-122.67C179.74,-115.53 188.52,-107.48 197.73,-102 218.97,-89.36 246.96,-81.97 264.01,-78.34"/>
<polygon fill="#9a32cd" stroke="#9a32cd" points="169.98,-120.68 165.85,-130.43 175.17,-125.38 169.98,-120.68"/>
<text text-anchor="middle" x="206.07" y="-104" font-family="Helvetica,sans-Serif" font-size="10.00"> file</text>
</g>
<!-- Node4 -->
<g id="node4" class="node">
<title>Node4</title>
<g id="a_node4"><a xlink:title="STL class.">
<polygon fill="none" stroke="#bfbfbf" points="93.72,-195.5 93.72,-223.5 190.86,-223.5 190.86,-195.5 93.72,-195.5"/>
<text text-anchor="start" x="101.72" y="-211.5" font-family="Helvetica,sans-Serif" font-size="10.00">std::basic_fstream</text>
<text text-anchor="middle" x="142.29" y="-201.5" font-family="Helvetica,sans-Serif" font-size="10.00">&lt; char &gt;</text>
</a>
</g>
</g>
<!-- Node4&#45;&gt;Node3 -->
<g id="edge3" class="edge">
<title>Node4&#45;&gt;Node3</title>
<path fill="none" stroke="midnightblue" d="M148.05,-185.48C151.21,-172.84 154.93,-157.94 157.2,-148.86"/>
<polygon fill="midnightblue" stroke="midnightblue" points="144.6,-184.84 145.57,-195.39 151.39,-186.54 144.6,-184.84"/>
</g>
<!-- Node5 -->
<g id="node5" class="node">
<title>Node5</title>
<g id="a_node5"><a xlink:title="STL class.">
<polygon fill="none" stroke="#bfbfbf" points="91.22,-270.5 91.22,-298.5 193.37,-298.5 193.37,-270.5 91.22,-270.5"/>
<text text-anchor="start" x="99.22" y="-286.5" font-family="Helvetica,sans-Serif" font-size="10.00">std::basic_iostream</text>
<text text-anchor="middle" x="142.29" y="-276.5" font-family="Helvetica,sans-Serif" font-size="10.00">&lt; Char &gt;</text>
</a>
</g>
</g>
<!-- Node5&#45;&gt;Node4 -->
<g id="edge4" class="edge">
<title>Node5&#45;&gt;Node4</title>
<path fill="none" stroke="midnightblue" d="M142.29,-260.24C142.29,-248.26 142.29,-234.08 142.29,-223.93"/>
<polygon fill="midnightblue" stroke="midnightblue" points="138.79,-260.45 142.29,-270.45 145.79,-260.45 138.79,-260.45"/>
</g>
<!-- Node6 -->
<g id="node6" class="node">
<title>Node6</title>
<g id="a_node6"><a xlink:title="STL class.">
<polygon fill="none" stroke="#bfbfbf" points="0,-345.5 0,-373.5 96.59,-373.5 96.59,-345.5 0,-345.5"/>
<text text-anchor="start" x="8" y="-361.5" font-family="Helvetica,sans-Serif" font-size="10.00">std::basic_istream</text>
<text text-anchor="middle" x="48.29" y="-351.5" font-family="Helvetica,sans-Serif" font-size="10.00">&lt; Char &gt;</text>
</a>
</g>
</g>
<!-- Node6&#45;&gt;Node5 -->
<g id="edge5" class="edge">
<title>Node6&#45;&gt;Node5</title>
<path fill="none" stroke="midnightblue" d="M73.22,-339.15C89.67,-326.37 110.78,-309.97 125.32,-298.68"/>
<polygon fill="midnightblue" stroke="midnightblue" points="70.85,-336.55 65.1,-345.45 75.14,-342.08 70.85,-336.55"/>
</g>
<!-- Node7 -->
<g id="node7" class="node">
<title>Node7</title>
<g id="a_node7"><a xlink:title="STL class.">
<polygon fill="none" stroke="#bfbfbf" points="79.54,-416.5 79.54,-434.5 195.04,-434.5 195.04,-416.5 79.54,-416.5"/>
<text text-anchor="middle" x="137.29" y="-422.5" font-family="Helvetica,sans-Serif" font-size="10.00">std::basic_ios&lt; Char &gt;</text>
</a>
</g>
</g>
<!-- Node7&#45;&gt;Node6 -->
<g id="edge6" class="edge">
<title>Node7&#45;&gt;Node6</title>
<path fill="none" stroke="midnightblue" d="M117.8,-410.48C102.55,-399.52 81.5,-384.38 66.57,-373.64"/>
<polygon fill="midnightblue" stroke="midnightblue" points="115.86,-413.4 126.02,-416.39 119.95,-407.71 115.86,-413.4"/>
</g>
<!-- Node9 -->
<g id="node9" class="node">
<title>Node9</title>
<g id="a_node9"><a xlink:title="STL class.">
<polygon fill="none" stroke="#bfbfbf" points="114.33,-345.5 114.33,-373.5 214.26,-373.5 214.26,-345.5 114.33,-345.5"/>
<text text-anchor="start" x="122.33" y="-361.5" font-family="Helvetica,sans-Serif" font-size="10.00">std::basic_ostream</text>
<text text-anchor="middle" x="164.29" y="-351.5" font-family="Helvetica,sans-Serif" font-size="10.00">&lt; Char &gt;</text>
</a>
</g>
</g>
<!-- Node7&#45;&gt;Node9 -->
<g id="edge9" class="edge">
<title>Node7&#45;&gt;Node9</title>
<path fill="none" stroke="midnightblue" d="M144.68,-406.98C149.13,-396.45 154.68,-383.28 158.75,-373.64"/>
<polygon fill="midnightblue" stroke="midnightblue" points="141.37,-405.82 140.71,-416.39 147.82,-408.54 141.37,-405.82"/>
</g>
<!-- Node8 -->
<g id="node8" class="node">
<title>Node8</title>
<g id="a_node8"><a xlink:title="STL class.">
<polygon fill="none" stroke="#bfbfbf" points="99.83,-477.5 99.83,-495.5 174.76,-495.5 174.76,-477.5 99.83,-477.5"/>
<text text-anchor="middle" x="137.29" y="-483.5" font-family="Helvetica,sans-Serif" font-size="10.00">std::ios_base</text>
</a>
</g>
</g>
<!-- Node8&#45;&gt;Node7 -->
<g id="edge7" class="edge">
<title>Node8&#45;&gt;Node7</title>
<path fill="none" stroke="midnightblue" d="M137.29,-467.11C137.29,-456.22 137.29,-442.97 137.29,-434.63"/>
<polygon fill="midnightblue" stroke="midnightblue" points="133.79,-467.3 137.29,-477.3 140.79,-467.3 133.79,-467.3"/>
</g>
<!-- Node9&#45;&gt;Node5 -->
<g id="edge8" class="edge">
<title>Node9&#45;&gt;Node5</title>
<path fill="none" stroke="midnightblue" d="M157.39,-335.61C153.76,-323.55 149.43,-309.19 146.34,-298.93"/>
<polygon fill="midnightblue" stroke="midnightblue" points="154.12,-336.88 160.36,-345.45 160.83,-334.86 154.12,-336.88"/>
</g>
<!-- Node10 -->
<g id="node10" class="node">
<title>Node10</title>
<g id="a_node10"><a xlink:href="../../d0/dbb/class_line_ptr.html" target="_top" xlink:title=" ">
<polygon fill="none" stroke="black" points="259.45,-130.5 259.45,-148.5 307.14,-148.5 307.14,-130.5 259.45,-130.5"/>
<text text-anchor="middle" x="283.29" y="-136.5" font-family="Helvetica,sans-Serif" font-size="10.00">LinePtr</text>
</a>
</g>
</g>
<!-- Node10&#45;&gt;Node2 -->
<g id="edge10" class="edge">
<title>Node10&#45;&gt;Node2</title>
<path fill="none" stroke="#9a32cd" stroke-dasharray="5,2" d="M280.73,-120.24C280.42,-117.49 280.14,-114.67 279.95,-112 279.25,-102.26 279.15,-91.03 279.19,-83.63"/>
<polygon fill="#9a32cd" stroke="#9a32cd" points="277.26,-120.7 282.01,-130.17 284.2,-119.8 277.26,-120.7"/>
<text text-anchor="middle" x="291.97" y="-104" font-family="Helvetica,sans-Serif" font-size="10.00"> lines</text>
</g>
<!-- Node11 -->
<g id="node11" class="node">
<title>Node11</title>
<g id="a_node11"><a xlink:title=" ">
<polygon fill="none" stroke="#bfbfbf" points="311.22,-200.5 311.22,-218.5 403.36,-218.5 403.36,-200.5 311.22,-200.5"/>
<text text-anchor="middle" x="357.29" y="-206.5" font-family="Helvetica,sans-Serif" font-size="10.00">std::list&lt; Clines &gt;</text>
</a>
</g>
</g>
<!-- Node11&#45;&gt;Node10 -->
<g id="edge11" class="edge">
<title>Node11&#45;&gt;Node10</title>
<path fill="none" stroke="#9a32cd" stroke-dasharray="5,2" d="M340.94,-193.47C325.86,-179.62 304.07,-159.59 292.06,-148.56"/>
<polygon fill="#9a32cd" stroke="#9a32cd" points="338.78,-196.24 348.51,-200.43 343.52,-191.09 338.78,-196.24"/>
<text text-anchor="middle" x="336.64" y="-169" font-family="Helvetica,sans-Serif" font-size="10.00"> value</text>
</g>
<!-- Node12 -->
<g id="node12" class="node">
<title>Node12</title>
<g id="a_node12"><a xlink:href="../../da/dc9/class_clines.html" target="_top" xlink:title=" ">
<polygon fill="none" stroke="black" points="324.4,-275.5 324.4,-293.5 368.19,-293.5 368.19,-275.5 324.4,-275.5"/>
<text text-anchor="middle" x="346.29" y="-281.5" font-family="Helvetica,sans-Serif" font-size="10.00">Clines</text>
</a>
</g>
</g>
<!-- Node12&#45;&gt;Node11 -->
<g id="edge12" class="edge">
<title>Node12&#45;&gt;Node11</title>
<path fill="none" stroke="#9a32cd" stroke-dasharray="5,2" d="M349.03,-265.35C351.27,-250.48 354.34,-230.12 356.03,-218.85"/>
<polygon fill="#9a32cd" stroke="#9a32cd" points="345.54,-265 347.51,-275.41 352.46,-266.04 345.54,-265"/>
<text text-anchor="middle" x="374.97" y="-244" font-family="Helvetica,sans-Serif" font-size="10.00"> elements</text>
</g>
<!-- Node13 -->
<g id="node13" class="node">
<title>Node13</title>
<g id="a_node13"><a xlink:title="STL class.">
<polygon fill="none" stroke="#bfbfbf" points="253.62,-350.5 253.62,-368.5 312.97,-368.5 312.97,-350.5 253.62,-350.5"/>
<text text-anchor="middle" x="283.29" y="-356.5" font-family="Helvetica,sans-Serif" font-size="10.00">std::string</text>
</a>
</g>
</g>
<!-- Node13&#45;&gt;Node2 -->
<g id="edge16" class="edge">
<title>Node13&#45;&gt;Node2</title>
<path fill="none" stroke="#9a32cd" stroke-dasharray="5,2" d="M263.21,-344.28C247.15,-331.08 227.29,-309.85 227.29,-285.5 227.29,-285.5 227.29,-285.5 227.29,-138.5 227.29,-114.11 250.77,-94.05 266.17,-83.52"/>
<polygon fill="#9a32cd" stroke="#9a32cd" points="261.09,-347.06 271.14,-350.42 265.38,-341.53 261.09,-347.06"/>
<text text-anchor="middle" x="241.19" y="-206.5" font-family="Helvetica,sans-Serif" font-size="10.00"> name</text>
</g>
<!-- Node13&#45;&gt;Node10 -->
<g id="edge15" class="edge">
<title>Node13&#45;&gt;Node10</title>
<path fill="none" stroke="#9a32cd" stroke-dasharray="5,2" d="M283.29,-340.2C283.29,-295.24 283.29,-180.67 283.29,-148.82"/>
<polygon fill="#9a32cd" stroke="#9a32cd" points="279.79,-340.48 283.29,-350.48 286.79,-340.48 279.79,-340.48"/>
<text text-anchor="middle" x="306.36" y="-244" font-family="Helvetica,sans-Serif" font-size="10.00"> file_name</text>
</g>
<!-- Node13&#45;&gt;Node12 -->
<g id="edge13" class="edge">
<title>Node13&#45;&gt;Node12</title>
<path fill="none" stroke="#9a32cd" stroke-dasharray="5,2" d="M297.11,-342.49C310.05,-327.5 328.89,-305.67 339.09,-293.85"/>
<polygon fill="#9a32cd" stroke="#9a32cd" points="294.16,-340.55 290.28,-350.41 299.46,-345.12 294.16,-340.55"/>
<text text-anchor="middle" x="332.91" y="-319" font-family="Helvetica,sans-Serif" font-size="10.00"> chars</text>
</g>
<!-- Node14 -->
<g id="node14" class="node">
<title>Node14</title>
<g id="a_node14"><a xlink:title="STL class.">
<polygon fill="none" stroke="#bfbfbf" points="236.25,-411.5 236.25,-439.5 330.34,-439.5 330.34,-411.5 236.25,-411.5"/>
<text text-anchor="start" x="244.25" y="-427.5" font-family="Helvetica,sans-Serif" font-size="10.00">std::basic_string&lt;</text>
<text text-anchor="middle" x="283.29" y="-417.5" font-family="Helvetica,sans-Serif" font-size="10.00"> char &gt;</text>
</a>
</g>
</g>
<!-- Node14&#45;&gt;Node13 -->
<g id="edge14" class="edge">
<title>Node14&#45;&gt;Node13</title>
<path fill="none" stroke="midnightblue" d="M283.29,-401.11C283.29,-389.84 283.29,-377.03 283.29,-368.86"/>
<polygon fill="midnightblue" stroke="midnightblue" points="279.79,-401.24 283.29,-411.24 286.79,-401.24 279.79,-401.24"/>
</g>
<!-- Node15 -->
<g id="node15" class="node">
<title>Node15</title>
<g id="a_node15"><a xlink:href="../../d5/d2a/class_buffer.html" target="_top" xlink:title="a big structure">
<polygon fill="none" stroke="black" points="328.04,-130.5 328.04,-148.5 370.54,-148.5 370.54,-130.5 328.04,-130.5"/>
<text text-anchor="middle" x="349.29" y="-136.5" font-family="Helvetica,sans-Serif" font-size="10.00">Buffer</text>
</a>
</g>
</g>
<!-- Node15&#45;&gt;Node1 -->
<g id="edge20" class="edge">
<title>Node15&#45;&gt;Node1</title>
<path fill="none" stroke="#9a32cd" stroke-dasharray="5,2" d="M344.45,-120.78C336.75,-92.62 322.03,-38.79 316.48,-18.5"/>
<polygon fill="#9a32cd" stroke="#9a32cd" points="341.09,-121.77 347.1,-130.49 347.84,-119.92 341.09,-121.77"/>
<text text-anchor="middle" x="339.57" y="-71.5" font-family="Helvetica,sans-Serif" font-size="10.00"> lb</text>
</g>
<!-- Node15&#45;&gt;Node2 -->
<g id="edge17" class="edge">
<title>Node15&#45;&gt;Node2</title>
<path fill="none" stroke="#9a32cd" stroke-dasharray="5,2" d="M332.67,-123.54C318.74,-111 299.4,-93.59 288.23,-83.54"/>
<polygon fill="#9a32cd" stroke="#9a32cd" points="330.37,-126.18 340.14,-130.26 335.05,-120.97 330.37,-126.18"/>
<text text-anchor="middle" x="324.02" y="-104" font-family="Helvetica,sans-Serif" font-size="10.00"> B</text>
</g>
<!-- Node16 -->
<g id="node16" class="node">
<title>Node16</title>
<g id="a_node16"><a xlink:title="STL class.">
<polygon fill="none" stroke="#bfbfbf" points="420.88,-200.5 420.88,-218.5 519.7,-218.5 519.7,-200.5 420.88,-200.5"/>
<text text-anchor="middle" x="470.29" y="-206.5" font-family="Helvetica,sans-Serif" font-size="10.00">std::vector&lt; char &gt;</text>
</a>
</g>
</g>
<!-- Node16&#45;&gt;Node15 -->
<g id="edge18" class="edge">
<title>Node16&#45;&gt;Node15</title>
<path fill="none" stroke="midnightblue" d="M446.9,-195.35C422.24,-181.49 384.18,-160.1 363.63,-148.56"/>
<polygon fill="midnightblue" stroke="midnightblue" points="445.51,-198.58 455.94,-200.43 448.93,-192.48 445.51,-198.58"/>
</g>
<!-- Node17 -->
<g id="node17" class="node">
<title>Node17</title>
<g id="a_node17"><a xlink:title=" ">
<polygon fill="none" stroke="#bfbfbf" points="455.79,-275.5 455.79,-293.5 484.79,-293.5 484.79,-275.5 455.79,-275.5"/>
<text text-anchor="middle" x="469.85" y="-281.5" font-family="Helvetica,sans-Serif" font-size="10.00">T</text>
</a>
</g>
</g>
<!-- Node17&#45;&gt;Node16 -->
<g id="edge19" class="edge">
<title>Node17&#45;&gt;Node16</title>
<path fill="none" stroke="#9a32cd" stroke-dasharray="5,2" d="M470.29,-265.35C470.29,-250.48 470.29,-230.12 470.29,-218.85"/>
<polygon fill="#9a32cd" stroke="#9a32cd" points="466.79,-265.41 470.29,-275.41 473.79,-265.41 466.79,-265.41"/>
<text text-anchor="middle" x="491.97" y="-244" font-family="Helvetica,sans-Serif" font-size="10.00"> elements</text>
</g>
</g>
</svg>
