<?xml version="1.0" encoding="UTF-8" standalone="no"?>
<!DOCTYPE svg PUBLIC "-//W3C//DTD SVG 1.1//EN"
 "http://www.w3.org/Graphics/SVG/1.1/DTD/svg11.dtd">
<!-- Generated by graphviz version 2.42.3 (20191010.1750)
 -->
<!-- Title: MathF Pages: 1 -->
<svg width="338pt" height="222pt"
 viewBox="0.00 0.00 337.76 222.00" xmlns="http://www.w3.org/2000/svg" xmlns:xlink="http://www.w3.org/1999/xlink">
<g id="graph0" class="graph" transform="scale(1 1) rotate(0) translate(4 218)">
<title>MathF</title>
<!-- Node1 -->
<g id="node1" class="node">
<title>Node1</title>
<g id="a_node1"><a xlink:title=" ">
<polygon fill="#bfbfbf" stroke="black" points="144.46,-0.5 144.46,-18.5 188.8,-18.5 188.8,-0.5 144.46,-0.5"/>
<text text-anchor="middle" x="166.63" y="-6.5" font-family="Helvetica,sans-Serif" font-size="10.00">MathF</text>
</a>
</g>
</g>
<!-- Node2 -->
<g id="node2" class="node">
<title>Node2</title>
<g id="a_node2"><a xlink:href="../../d6/d9a/class_xml.html" target="_top" xlink:title=" ">
<polygon fill="none" stroke="black" points="68.02,-65.5 68.02,-83.5 101.24,-83.5 101.24,-65.5 68.02,-65.5"/>
<text text-anchor="middle" x="84.63" y="-71.5" font-family="Helvetica,sans-Serif" font-size="10.00">Xml</text>
</a>
</g>
</g>
<!-- Node2&#45;&gt;Node1 -->
<g id="edge1" class="edge">
<title>Node2&#45;&gt;Node1</title>
<path fill="none" stroke="#9a32cd" stroke-dasharray="5,2" d="M103.64,-58.89C119.99,-46.33 142.96,-28.69 156.16,-18.54"/>
<polygon fill="#9a32cd" stroke="#9a32cd" points="101.15,-56.4 95.35,-65.26 105.41,-61.95 101.15,-56.4"/>
<text text-anchor="middle" x="133.41" y="-39" font-family="Helvetica,sans-Serif" font-size="10.00"> t</text>
</g>
<!-- Node3 -->
<g id="node3" class="node">
<title>Node3</title>
<g id="a_node3"><a xlink:title=" ">
<polygon fill="none" stroke="#bfbfbf" points="0,-0.5 0,-18.5 103.26,-18.5 103.26,-0.5 0,-0.5"/>
<text text-anchor="middle" x="51.63" y="-6.5" font-family="Helvetica,sans-Serif" font-size="10.00">std::vector&lt; Xml * &gt;</text>
</a>
</g>
</g>
<!-- Node2&#45;&gt;Node3 -->
<g id="edge3" class="edge">
<title>Node2&#45;&gt;Node3</title>
<path fill="none" stroke="#9a32cd" stroke-dasharray="5,2" d="M57.84,-70.04C43.54,-66.68 27.12,-60.06 18.27,-47 11.05,-36.34 23.74,-25.64 35.49,-18.61"/>
<polygon fill="#9a32cd" stroke="#9a32cd" points="57.25,-73.49 67.73,-71.96 58.58,-66.62 57.25,-73.49"/>
<text text-anchor="middle" x="40.31" y="-39" font-family="Helvetica,sans-Serif" font-size="10.00"> elements</text>
</g>
<!-- Node3&#45;&gt;Node2 -->
<g id="edge2" class="edge">
<title>Node3&#45;&gt;Node2</title>
<path fill="none" stroke="#9a32cd" stroke-dasharray="5,2" d="M60.84,-27.89C62.44,-30.93 64.08,-34.05 65.63,-37 70.74,-46.74 76.58,-57.97 80.42,-65.37"/>
<polygon fill="#9a32cd" stroke="#9a32cd" points="63.82,-26.05 56.05,-18.85 57.63,-29.32 63.82,-26.05"/>
<text text-anchor="middle" x="80.63" y="-39" font-family="Helvetica,sans-Serif" font-size="10.00"> tree</text>
</g>
<!-- Node4 -->
<g id="node4" class="node">
<title>Node4</title>
<g id="a_node4"><a xlink:href="../../d9/d20/struct_istring.html" target="_top" xlink:title=" ">
<polygon fill="none" stroke="black" points="21.01,-130.5 21.01,-148.5 64.24,-148.5 64.24,-130.5 21.01,-130.5"/>
<text text-anchor="middle" x="42.63" y="-136.5" font-family="Helvetica,sans-Serif" font-size="10.00">Istring</text>
</a>
</g>
</g>
<!-- Node4&#45;&gt;Node2 -->
<g id="edge4" class="edge">
<title>Node4&#45;&gt;Node2</title>
<path fill="none" stroke="#9a32cd" stroke-dasharray="5,2" d="M49.02,-120.74C51.63,-114.56 54.95,-107.74 58.83,-102 63.44,-95.19 69.89,-88.57 75.19,-83.65"/>
<polygon fill="#9a32cd" stroke="#9a32cd" points="45.69,-119.65 45.34,-130.24 52.22,-122.19 45.69,-119.65"/>
<text text-anchor="middle" x="73.52" y="-104" font-family="Helvetica,sans-Serif" font-size="10.00"> name</text>
</g>
<!-- Node5 -->
<g id="node5" class="node">
<title>Node5</title>
<g id="a_node5"><a xlink:href="../../de/d3f/class_xid.html" target="_top" xlink:title=" ">
<polygon fill="none" stroke="black" points="82.4,-130.5 82.4,-148.5 112.85,-148.5 112.85,-130.5 82.4,-130.5"/>
<text text-anchor="middle" x="97.63" y="-136.5" font-family="Helvetica,sans-Serif" font-size="10.00">Xid</text>
</a>
</g>
</g>
<!-- Node5&#45;&gt;Node2 -->
<g id="edge5" class="edge">
<title>Node5&#45;&gt;Node2</title>
<path fill="none" stroke="#9a32cd" stroke-dasharray="5,2" d="M93.87,-120.28C91.36,-108.13 88.19,-92.75 86.29,-83.54"/>
<polygon fill="#9a32cd" stroke="#9a32cd" points="90.48,-121.18 95.93,-130.26 97.34,-119.76 90.48,-121.18"/>
<text text-anchor="middle" x="97.91" y="-104" font-family="Helvetica,sans-Serif" font-size="10.00"> id</text>
</g>
<!-- Node6 -->
<g id="node6" class="node">
<title>Node6</title>
<g id="a_node6"><a xlink:title=" ">
<polygon fill="none" stroke="#bfbfbf" points="119.45,-65.5 119.45,-83.5 213.81,-83.5 213.81,-65.5 119.45,-65.5"/>
<text text-anchor="middle" x="166.63" y="-71.5" font-family="Helvetica,sans-Serif" font-size="10.00">std::list&lt; MathQ &gt;</text>
</a>
</g>
</g>
<!-- Node6&#45;&gt;Node1 -->
<g id="edge6" class="edge">
<title>Node6&#45;&gt;Node1</title>
<path fill="none" stroke="#9a32cd" stroke-dasharray="5,2" d="M166.63,-54.91C166.63,-42.81 166.63,-27.65 166.63,-18.54"/>
<polygon fill="#9a32cd" stroke="#9a32cd" points="163.13,-55.26 166.63,-65.26 170.13,-55.26 163.13,-55.26"/>
<text text-anchor="middle" x="176.08" y="-39" font-family="Helvetica,sans-Serif" font-size="10.00"> aux</text>
</g>
<!-- Node7 -->
<g id="node7" class="node">
<title>Node7</title>
<g id="a_node7"><a xlink:href="../../dc/d6e/class_math_q.html" target="_top" xlink:title=" ">
<polygon fill="none" stroke="black" points="143.62,-130.5 143.62,-148.5 189.63,-148.5 189.63,-130.5 143.62,-130.5"/>
<text text-anchor="middle" x="166.63" y="-136.5" font-family="Helvetica,sans-Serif" font-size="10.00">MathQ</text>
</a>
</g>
</g>
<!-- Node7&#45;&gt;Node6 -->
<g id="edge7" class="edge">
<title>Node7&#45;&gt;Node6</title>
<path fill="none" stroke="#9a32cd" stroke-dasharray="5,2" d="M166.63,-119.91C166.63,-107.81 166.63,-92.65 166.63,-83.54"/>
<polygon fill="#9a32cd" stroke="#9a32cd" points="163.13,-120.26 166.63,-130.26 170.13,-120.26 163.13,-120.26"/>
<text text-anchor="middle" x="188.31" y="-104" font-family="Helvetica,sans-Serif" font-size="10.00"> elements</text>
</g>
<!-- Node8 -->
<g id="node8" class="node">
<title>Node8</title>
<g id="a_node8"><a xlink:title=" ">
<polygon fill="none" stroke="#bfbfbf" points="231.5,-65.5 231.5,-83.5 329.76,-83.5 329.76,-65.5 231.5,-65.5"/>
<text text-anchor="middle" x="280.63" y="-71.5" font-family="Helvetica,sans-Serif" font-size="10.00">std::list&lt; MathElt &gt;</text>
</a>
</g>
</g>
<!-- Node8&#45;&gt;Node1 -->
<g id="edge8" class="edge">
<title>Node8&#45;&gt;Node1</title>
<path fill="none" stroke="#9a32cd" stroke-dasharray="5,2" d="M256.68,-60.26C233.85,-47.65 200.22,-29.06 181.17,-18.54"/>
<polygon fill="#9a32cd" stroke="#9a32cd" points="255.28,-63.49 265.72,-65.26 258.66,-57.36 255.28,-63.49"/>
<text text-anchor="middle" x="238.96" y="-39" font-family="Helvetica,sans-Serif" font-size="10.00"> res</text>
</g>
<!-- Node9 -->
<g id="node9" class="node">
<title>Node9</title>
<g id="a_node9"><a xlink:href="../../d2/da0/class_math_elt.html" target="_top" xlink:title=" ">
<polygon fill="none" stroke="black" points="255.68,-130.5 255.68,-148.5 305.58,-148.5 305.58,-130.5 255.68,-130.5"/>
<text text-anchor="middle" x="280.63" y="-136.5" font-family="Helvetica,sans-Serif" font-size="10.00">MathElt</text>
</a>
</g>
</g>
<!-- Node9&#45;&gt;Node8 -->
<g id="edge9" class="edge">
<title>Node9&#45;&gt;Node8</title>
<path fill="none" stroke="#9a32cd" stroke-dasharray="5,2" d="M280.63,-119.91C280.63,-107.81 280.63,-92.65 280.63,-83.54"/>
<polygon fill="#9a32cd" stroke="#9a32cd" points="277.13,-120.26 280.63,-130.26 284.13,-120.26 277.13,-120.26"/>
<text text-anchor="middle" x="302.31" y="-104" font-family="Helvetica,sans-Serif" font-size="10.00"> elements</text>
</g>
<!-- Node10 -->
<g id="node10" class="node">
<title>Node10</title>
<g id="a_node10"><a xlink:href="../../de/d72/class_cmd_chr.html" target="_top" xlink:title=" ">
<polygon fill="none" stroke="black" points="254.01,-195.5 254.01,-213.5 307.24,-213.5 307.24,-195.5 254.01,-195.5"/>
<text text-anchor="middle" x="280.63" y="-201.5" font-family="Helvetica,sans-Serif" font-size="10.00">CmdChr</text>
</a>
</g>
</g>
<!-- Node10&#45;&gt;Node9 -->
<g id="edge10" class="edge">
<title>Node10&#45;&gt;Node9</title>
<path fill="none" stroke="#9a32cd" stroke-dasharray="5,2" d="M280.63,-184.91C280.63,-172.81 280.63,-157.65 280.63,-148.54"/>
<polygon fill="#9a32cd" stroke="#9a32cd" points="277.13,-185.26 280.63,-195.26 284.13,-185.26 277.13,-185.26"/>
<text text-anchor="middle" x="288.41" y="-169" font-family="Helvetica,sans-Serif" font-size="10.00"> val</text>
</g>
</g>
</svg>
