<?xml version="1.0" encoding="UTF-8" standalone="no"?>
<!DOCTYPE svg PUBLIC "-//W3C//DTD SVG 1.1//EN"
 "http://www.w3.org/Graphics/SVG/1.1/DTD/svg11.dtd">
<!-- Generated by graphviz version 2.42.3 (20191010.1750)
 -->
<!-- Title: MathF Pages: 1 -->
<svg width="396pt" height="381pt"
 viewBox="0.00 0.00 395.62 381.00" xmlns="http://www.w3.org/2000/svg" xmlns:xlink="http://www.w3.org/1999/xlink">
<g id="graph0" class="graph" transform="scale(1 1) rotate(0) translate(4 377)">
<title>MathF</title>
<!-- Node1 -->
<g id="node1" class="node">
<title>Node1</title>
<g id="a_node1"><a xlink:title=" ">
<polygon fill="#bfbfbf" stroke="black" points="202.32,-0.5 202.32,-18.5 246.66,-18.5 246.66,-0.5 202.32,-0.5"/>
<text text-anchor="middle" x="224.49" y="-6.5" font-family="Helvetica,sans-Serif" font-size="10.00">MathF</text>
</a>
</g>
</g>
<!-- Node2 -->
<g id="node2" class="node">
<title>Node2</title>
<g id="a_node2"><a xlink:href="../../d6/d9a/class_xml.html" target="_top" xlink:title=" ">
<polygon fill="none" stroke="black" points="118.88,-65.5 118.88,-83.5 152.1,-83.5 152.1,-65.5 118.88,-65.5"/>
<text text-anchor="middle" x="135.49" y="-71.5" font-family="Helvetica,sans-Serif" font-size="10.00">Xml</text>
</a>
</g>
</g>
<!-- Node2&#45;&gt;Node1 -->
<g id="edge1" class="edge">
<title>Node2&#45;&gt;Node1</title>
<path fill="none" stroke="#9a32cd" stroke-dasharray="5,2" d="M155.64,-59.24C173.41,-46.66 198.67,-28.78 213.14,-18.54"/>
<polygon fill="#9a32cd" stroke="#9a32cd" points="153.27,-56.63 147.13,-65.26 157.31,-62.34 153.27,-56.63"/>
<text text-anchor="middle" x="188.27" y="-39" font-family="Helvetica,sans-Serif" font-size="10.00"> t</text>
</g>
<!-- Node3 -->
<g id="node3" class="node">
<title>Node3</title>
<g id="a_node3"><a xlink:title="STL class.">
<polygon fill="none" stroke="#bfbfbf" points="0,-232.5 0,-260.5 102.99,-260.5 102.99,-232.5 0,-232.5"/>
<text text-anchor="start" x="8" y="-248.5" font-family="Helvetica,sans-Serif" font-size="10.00">std::vector&lt; gsl::not</text>
<text text-anchor="middle" x="51.49" y="-238.5" font-family="Helvetica,sans-Serif" font-size="10.00">_null&lt; Xml * &gt; &gt;</text>
</a>
</g>
</g>
<!-- Node3&#45;&gt;Node2 -->
<g id="edge2" class="edge">
<title>Node3&#45;&gt;Node2</title>
<path fill="none" stroke="midnightblue" d="M56.03,-222.33C61.41,-198.18 71.8,-159.79 88.49,-130 98.88,-111.47 116.2,-93.52 126.66,-83.55"/>
<polygon fill="midnightblue" stroke="midnightblue" points="52.56,-221.83 53.91,-232.34 59.41,-223.28 52.56,-221.83"/>
</g>
<!-- Node4 -->
<g id="node4" class="node">
<title>Node4</title>
<g id="a_node4"><a xlink:title=" ">
<polygon fill="none" stroke="#bfbfbf" points="62.99,-354.5 62.99,-372.5 91.99,-372.5 91.99,-354.5 62.99,-354.5"/>
<text text-anchor="middle" x="77.05" y="-360.5" font-family="Helvetica,sans-Serif" font-size="10.00">T</text>
</a>
</g>
</g>
<!-- Node4&#45;&gt;Node3 -->
<g id="edge3" class="edge">
<title>Node4&#45;&gt;Node3</title>
<path fill="none" stroke="#9a32cd" stroke-dasharray="5,2" d="M57.83,-347.41C54.7,-344.02 51.91,-340.18 50.14,-336 39.59,-311.1 44.19,-278.61 48.09,-260.73"/>
<polygon fill="#9a32cd" stroke="#9a32cd" points="55.72,-350.22 65.44,-354.42 60.46,-345.07 55.72,-350.22"/>
<text text-anchor="middle" x="72.17" y="-328" font-family="Helvetica,sans-Serif" font-size="10.00"> elements</text>
</g>
<!-- Node7 -->
<g id="node7" class="node">
<title>Node7</title>
<g id="a_node7"><a xlink:title="STL class.">
<polygon fill="none" stroke="#bfbfbf" points="72.06,-279.5 72.06,-307.5 178.93,-307.5 178.93,-279.5 72.06,-279.5"/>
<text text-anchor="start" x="80.06" y="-295.5" font-family="Helvetica,sans-Serif" font-size="10.00">std::vector&lt; StrHash</text>
<text text-anchor="middle" x="125.49" y="-285.5" font-family="Helvetica,sans-Serif" font-size="10.00">_record &gt;</text>
</a>
</g>
</g>
<!-- Node4&#45;&gt;Node7 -->
<g id="edge7" class="edge">
<title>Node4&#45;&gt;Node7</title>
<path fill="none" stroke="#9a32cd" stroke-dasharray="5,2" d="M89.15,-345.98C97.46,-334.22 108.47,-318.62 116.19,-307.69"/>
<polygon fill="#9a32cd" stroke="#9a32cd" points="86.1,-344.24 83.19,-354.43 91.81,-348.28 86.1,-344.24"/>
<text text-anchor="middle" x="125.17" y="-328" font-family="Helvetica,sans-Serif" font-size="10.00"> elements</text>
</g>
<!-- Node5 -->
<g id="node5" class="node">
<title>Node5</title>
<g id="a_node5"><a xlink:href="../../d9/d20/struct_istring.html" target="_top" xlink:title=" ">
<polygon fill="none" stroke="black" points="97.88,-130.5 97.88,-148.5 141.11,-148.5 141.11,-130.5 97.88,-130.5"/>
<text text-anchor="middle" x="119.49" y="-136.5" font-family="Helvetica,sans-Serif" font-size="10.00">Istring</text>
</a>
</g>
</g>
<!-- Node5&#45;&gt;Node2 -->
<g id="edge4" class="edge">
<title>Node5&#45;&gt;Node2</title>
<path fill="none" stroke="#9a32cd" stroke-dasharray="5,2" d="M121.23,-120.1C122.01,-114.25 123.13,-107.8 124.7,-102 126.41,-95.67 129.23,-88.82 131.56,-83.67"/>
<polygon fill="#9a32cd" stroke="#9a32cd" points="117.72,-119.94 120.09,-130.27 124.68,-120.72 117.72,-119.94"/>
<text text-anchor="middle" x="139.39" y="-104" font-family="Helvetica,sans-Serif" font-size="10.00"> name</text>
</g>
<!-- Node6 -->
<g id="node6" class="node">
<title>Node6</title>
<g id="a_node6"><a xlink:href="../../de/df7/class_str_hash.html" target="_top" xlink:title="The string_hash table.">
<polygon fill="none" stroke="black" points="99.43,-195.5 99.43,-213.5 151.56,-213.5 151.56,-195.5 99.43,-195.5"/>
<text text-anchor="middle" x="125.49" y="-201.5" font-family="Helvetica,sans-Serif" font-size="10.00">StrHash</text>
</a>
</g>
</g>
<!-- Node6&#45;&gt;Node5 -->
<g id="edge5" class="edge">
<title>Node6&#45;&gt;Node5</title>
<path fill="none" stroke="#9a32cd" stroke-dasharray="5,2" d="M123.76,-185.28C122.6,-173.13 121.14,-157.75 120.26,-148.54"/>
<polygon fill="#9a32cd" stroke="#9a32cd" points="120.28,-185.64 124.71,-195.26 127.25,-184.98 120.28,-185.64"/>
<text text-anchor="middle" x="131.83" y="-169" font-family="Helvetica,sans-Serif" font-size="10.00"> SH</text>
</g>
<!-- Node7&#45;&gt;Node6 -->
<g id="edge6" class="edge">
<title>Node7&#45;&gt;Node6</title>
<path fill="none" stroke="midnightblue" d="M125.49,-269.04C125.49,-250.64 125.49,-226.13 125.49,-213.61"/>
<polygon fill="midnightblue" stroke="midnightblue" points="121.99,-269.29 125.49,-279.29 128.99,-269.29 121.99,-269.29"/>
</g>
<!-- Node8 -->
<g id="node8" class="node">
<title>Node8</title>
<g id="a_node8"><a xlink:title=" ">
<polygon fill="none" stroke="#bfbfbf" points="196.75,-284.5 196.75,-302.5 302.24,-302.5 302.24,-284.5 196.75,-284.5"/>
<text text-anchor="middle" x="249.49" y="-290.5" font-family="Helvetica,sans-Serif" font-size="10.00">std::vector&lt; size_t &gt;</text>
</a>
</g>
</g>
<!-- Node8&#45;&gt;Node6 -->
<g id="edge8" class="edge">
<title>Node8&#45;&gt;Node6</title>
<path fill="none" stroke="#9a32cd" stroke-dasharray="5,2" d="M229.64,-278.57C203.39,-260.15 158.02,-228.32 136.91,-213.51"/>
<polygon fill="#9a32cd" stroke="#9a32cd" points="227.85,-281.59 238.05,-284.47 231.87,-275.86 227.85,-281.59"/>
<text text-anchor="middle" x="213.33" y="-243.5" font-family="Helvetica,sans-Serif" font-size="10.00"> next</text>
</g>
<!-- Node9 -->
<g id="node9" class="node">
<title>Node9</title>
<g id="a_node9"><a xlink:href="../../de/d3f/class_xid.html" target="_top" xlink:title=" ">
<polygon fill="none" stroke="black" points="159.27,-130.5 159.27,-148.5 189.72,-148.5 189.72,-130.5 159.27,-130.5"/>
<text text-anchor="middle" x="174.49" y="-136.5" font-family="Helvetica,sans-Serif" font-size="10.00">Xid</text>
</a>
</g>
</g>
<!-- Node9&#45;&gt;Node2 -->
<g id="edge9" class="edge">
<title>Node9&#45;&gt;Node2</title>
<path fill="none" stroke="#9a32cd" stroke-dasharray="5,2" d="M164.41,-121.55C160.7,-115.37 156.44,-108.35 152.49,-102 148.68,-95.87 144.28,-89.02 140.91,-83.82"/>
<polygon fill="#9a32cd" stroke="#9a32cd" points="161.53,-123.55 169.67,-130.34 167.54,-119.96 161.53,-123.55"/>
<text text-anchor="middle" x="164.77" y="-104" font-family="Helvetica,sans-Serif" font-size="10.00"> id</text>
</g>
<!-- Node10 -->
<g id="node10" class="node">
<title>Node10</title>
<g id="a_node10"><a xlink:title=" ">
<polygon fill="none" stroke="#bfbfbf" points="177.31,-65.5 177.31,-83.5 271.68,-83.5 271.68,-65.5 177.31,-65.5"/>
<text text-anchor="middle" x="224.49" y="-71.5" font-family="Helvetica,sans-Serif" font-size="10.00">std::list&lt; MathQ &gt;</text>
</a>
</g>
</g>
<!-- Node10&#45;&gt;Node1 -->
<g id="edge10" class="edge">
<title>Node10&#45;&gt;Node1</title>
<path fill="none" stroke="#9a32cd" stroke-dasharray="5,2" d="M224.49,-54.91C224.49,-42.81 224.49,-27.65 224.49,-18.54"/>
<polygon fill="#9a32cd" stroke="#9a32cd" points="220.99,-55.26 224.49,-65.26 227.99,-55.26 220.99,-55.26"/>
<text text-anchor="middle" x="233.94" y="-39" font-family="Helvetica,sans-Serif" font-size="10.00"> aux</text>
</g>
<!-- Node11 -->
<g id="node11" class="node">
<title>Node11</title>
<g id="a_node11"><a xlink:href="../../dc/d6e/class_math_q.html" target="_top" xlink:title=" ">
<polygon fill="none" stroke="black" points="207.49,-130.5 207.49,-148.5 253.5,-148.5 253.5,-130.5 207.49,-130.5"/>
<text text-anchor="middle" x="230.49" y="-136.5" font-family="Helvetica,sans-Serif" font-size="10.00">MathQ</text>
</a>
</g>
</g>
<!-- Node11&#45;&gt;Node10 -->
<g id="edge11" class="edge">
<title>Node11&#45;&gt;Node10</title>
<path fill="none" stroke="#9a32cd" stroke-dasharray="5,2" d="M228.76,-120.28C227.6,-108.13 226.14,-92.75 225.26,-83.54"/>
<polygon fill="#9a32cd" stroke="#9a32cd" points="225.28,-120.64 229.71,-130.26 232.25,-119.98 225.28,-120.64"/>
<text text-anchor="middle" x="250.17" y="-104" font-family="Helvetica,sans-Serif" font-size="10.00"> elements</text>
</g>
<!-- Node12 -->
<g id="node12" class="node">
<title>Node12</title>
<g id="a_node12"><a xlink:title=" ">
<polygon fill="none" stroke="#bfbfbf" points="289.37,-65.5 289.37,-83.5 387.62,-83.5 387.62,-65.5 289.37,-65.5"/>
<text text-anchor="middle" x="338.49" y="-71.5" font-family="Helvetica,sans-Serif" font-size="10.00">std::list&lt; MathElt &gt;</text>
</a>
</g>
</g>
<!-- Node12&#45;&gt;Node1 -->
<g id="edge12" class="edge">
<title>Node12&#45;&gt;Node1</title>
<path fill="none" stroke="#9a32cd" stroke-dasharray="5,2" d="M314.54,-60.26C291.71,-47.65 258.08,-29.06 239.04,-18.54"/>
<polygon fill="#9a32cd" stroke="#9a32cd" points="313.14,-63.49 323.59,-65.26 316.53,-57.36 313.14,-63.49"/>
<text text-anchor="middle" x="296.83" y="-39" font-family="Helvetica,sans-Serif" font-size="10.00"> res</text>
</g>
<!-- Node13 -->
<g id="node13" class="node">
<title>Node13</title>
<g id="a_node13"><a xlink:href="../../d2/da0/class_math_elt.html" target="_top" xlink:title=" ">
<polygon fill="none" stroke="black" points="313.54,-130.5 313.54,-148.5 363.44,-148.5 363.44,-130.5 313.54,-130.5"/>
<text text-anchor="middle" x="338.49" y="-136.5" font-family="Helvetica,sans-Serif" font-size="10.00">MathElt</text>
</a>
</g>
</g>
<!-- Node13&#45;&gt;Node12 -->
<g id="edge13" class="edge">
<title>Node13&#45;&gt;Node12</title>
<path fill="none" stroke="#9a32cd" stroke-dasharray="5,2" d="M338.49,-119.91C338.49,-107.81 338.49,-92.65 338.49,-83.54"/>
<polygon fill="#9a32cd" stroke="#9a32cd" points="334.99,-120.26 338.49,-130.26 341.99,-120.26 334.99,-120.26"/>
<text text-anchor="middle" x="360.17" y="-104" font-family="Helvetica,sans-Serif" font-size="10.00"> elements</text>
</g>
<!-- Node14 -->
<g id="node14" class="node">
<title>Node14</title>
<g id="a_node14"><a xlink:href="../../de/d72/class_cmd_chr.html" target="_top" xlink:title=" ">
<polygon fill="none" stroke="black" points="311.88,-195.5 311.88,-213.5 365.11,-213.5 365.11,-195.5 311.88,-195.5"/>
<text text-anchor="middle" x="338.49" y="-201.5" font-family="Helvetica,sans-Serif" font-size="10.00">CmdChr</text>
</a>
</g>
</g>
<!-- Node14&#45;&gt;Node13 -->
<g id="edge14" class="edge">
<title>Node14&#45;&gt;Node13</title>
<path fill="none" stroke="#9a32cd" stroke-dasharray="5,2" d="M338.49,-184.91C338.49,-172.81 338.49,-157.65 338.49,-148.54"/>
<polygon fill="#9a32cd" stroke="#9a32cd" points="334.99,-185.26 338.49,-195.26 341.99,-185.26 334.99,-185.26"/>
<text text-anchor="middle" x="346.27" y="-169" font-family="Helvetica,sans-Serif" font-size="10.00"> val</text>
</g>
</g>
</svg>
