<?xml version="1.0" encoding="UTF-8" standalone="no"?>
<!DOCTYPE svg PUBLIC "-//W3C//DTD SVG 1.1//EN"
 "http://www.w3.org/Graphics/SVG/1.1/DTD/svg11.dtd">
<!-- Generated by graphviz version 2.42.3 (20191010.1750)
 -->
<!-- Title: txatt.h Pages: 1 -->
<svg width="329pt" height="577pt"
 viewBox="0.00 0.00 328.62 577.00" xmlns="http://www.w3.org/2000/svg" xmlns:xlink="http://www.w3.org/1999/xlink">
<g id="graph0" class="graph" transform="scale(1 1) rotate(0) translate(4 573)">
<title>txatt.h</title>
<!-- Node1 -->
<g id="node1" class="node">
<title>Node1</title>
<g id="a_node1"><a xlink:title=" ">
<polygon fill="#bfbfbf" stroke="black" points="176.38,-550.5 176.38,-568.5 219.62,-568.5 219.62,-550.5 176.38,-550.5"/>
<text text-anchor="middle" x="198" y="-556.5" font-family="Helvetica,sans-Serif" font-size="10.00">txatt.h</text>
</a>
</g>
</g>
<!-- Node2 -->
<g id="node2" class="node">
<title>Node2</title>
<g id="a_node2"><a xlink:href="../../dc/def/txstring_8h.html" target="_top" xlink:title=" ">
<polygon fill="none" stroke="black" points="169.71,-495.5 169.71,-513.5 226.29,-513.5 226.29,-495.5 169.71,-495.5"/>
<text text-anchor="middle" x="198" y="-501.5" font-family="Helvetica,sans-Serif" font-size="10.00">txstring.h</text>
</a>
</g>
</g>
<!-- Node1&#45;&gt;Node2 -->
<g id="edge1" class="edge">
<title>Node1&#45;&gt;Node2</title>
<path fill="none" stroke="midnightblue" d="M198,-550.22C198,-543.18 198,-532.81 198,-523.83"/>
<polygon fill="midnightblue" stroke="midnightblue" points="201.5,-523.55 198,-513.55 194.5,-523.55 201.5,-523.55"/>
</g>
<!-- Node11 -->
<g id="node11" class="node">
<title>Node11</title>
<g id="a_node11"><a xlink:title=" ">
<polygon fill="none" stroke="#bfbfbf" points="7.49,-110.5 7.49,-128.5 58.51,-128.5 58.51,-110.5 7.49,-110.5"/>
<text text-anchor="middle" x="33" y="-116.5" font-family="Helvetica,sans-Serif" font-size="10.00">optional</text>
</a>
</g>
</g>
<!-- Node1&#45;&gt;Node11 -->
<g id="edge28" class="edge">
<title>Node1&#45;&gt;Node11</title>
<path fill="none" stroke="midnightblue" d="M176.05,-556.75C124.5,-551.32 0,-529.99 0,-450.5 0,-450.5 0,-450.5 0,-228.5 0,-195.29 14.45,-158.75 24.22,-137.82"/>
<polygon fill="midnightblue" stroke="midnightblue" points="27.46,-139.17 28.69,-128.64 21.17,-136.1 27.46,-139.17"/>
</g>
<!-- Node23 -->
<g id="node23" class="node">
<title>Node23</title>
<g id="a_node23"><a xlink:title=" ">
<polygon fill="none" stroke="#bfbfbf" points="277.38,-385.5 277.38,-403.5 320.62,-403.5 320.62,-385.5 277.38,-385.5"/>
<text text-anchor="middle" x="299" y="-391.5" font-family="Helvetica,sans-Serif" font-size="10.00">vector</text>
</a>
</g>
</g>
<!-- Node1&#45;&gt;Node23 -->
<g id="edge29" class="edge">
<title>Node1&#45;&gt;Node23</title>
<path fill="none" stroke="midnightblue" d="M205.62,-550.36C213.49,-541.72 225.88,-527.48 235,-514 258.15,-479.75 279.86,-436.27 291.07,-412.66"/>
<polygon fill="midnightblue" stroke="midnightblue" points="294.25,-414.12 295.32,-403.58 287.91,-411.15 294.25,-414.12"/>
</g>
<!-- Node3 -->
<g id="node3" class="node">
<title>Node3</title>
<g id="a_node3"><a xlink:href="../../dd/d74/txbuffer_8h.html" target="_top" xlink:title=" ">
<polygon fill="none" stroke="black" points="169.52,-440.5 169.52,-458.5 226.48,-458.5 226.48,-440.5 169.52,-440.5"/>
<text text-anchor="middle" x="198" y="-446.5" font-family="Helvetica,sans-Serif" font-size="10.00">txbuffer.h</text>
</a>
</g>
</g>
<!-- Node2&#45;&gt;Node3 -->
<g id="edge2" class="edge">
<title>Node2&#45;&gt;Node3</title>
<path fill="none" stroke="midnightblue" d="M198,-495.22C198,-488.18 198,-477.81 198,-468.83"/>
<polygon fill="midnightblue" stroke="midnightblue" points="201.5,-468.55 198,-458.55 194.5,-468.55 201.5,-468.55"/>
</g>
<!-- Node4 -->
<g id="node4" class="node">
<title>Node4</title>
<g id="a_node4"><a xlink:href="../../dd/dcd/_token_8h.html" target="_top" xlink:title=" ">
<polygon fill="none" stroke="black" points="28.04,-275.5 28.04,-293.5 107.96,-293.5 107.96,-275.5 28.04,-275.5"/>
<text text-anchor="middle" x="68" y="-281.5" font-family="Helvetica,sans-Serif" font-size="10.00">tralics/Token.h</text>
</a>
</g>
</g>
<!-- Node3&#45;&gt;Node4 -->
<g id="edge3" class="edge">
<title>Node3&#45;&gt;Node4</title>
<path fill="none" stroke="midnightblue" d="M169.18,-444.92C143.54,-440.15 107.09,-429.14 87,-404 63.88,-375.06 63.71,-329.17 65.76,-303.83"/>
<polygon fill="midnightblue" stroke="midnightblue" points="69.25,-304.07 66.79,-293.76 62.29,-303.36 69.25,-304.07"/>
</g>
<!-- Node15 -->
<g id="node15" class="node">
<title>Node15</title>
<g id="a_node15"><a xlink:href="../../d1/d9e/txid_8h.html" target="_top" xlink:title=" ">
<polygon fill="none" stroke="black" points="229.05,-330.5 229.05,-348.5 268.95,-348.5 268.95,-330.5 229.05,-330.5"/>
<text text-anchor="middle" x="249" y="-336.5" font-family="Helvetica,sans-Serif" font-size="10.00">txid.h</text>
</a>
</g>
</g>
<!-- Node3&#45;&gt;Node15 -->
<g id="edge15" class="edge">
<title>Node3&#45;&gt;Node15</title>
<path fill="none" stroke="midnightblue" d="M205.29,-440.18C212.46,-431.63 223.28,-417.66 230,-404 237.15,-389.46 242.18,-371.71 245.26,-358.68"/>
<polygon fill="midnightblue" stroke="midnightblue" points="248.74,-359.16 247.47,-348.64 241.9,-357.65 248.74,-359.16"/>
</g>
<!-- Node19 -->
<g id="node19" class="node">
<title>Node19</title>
<g id="a_node19"><a xlink:href="../../d9/d18/txscaled_8h.html" target="_top" xlink:title=" ">
<polygon fill="none" stroke="black" points="96.49,-385.5 96.49,-403.5 157.51,-403.5 157.51,-385.5 96.49,-385.5"/>
<text text-anchor="middle" x="127" y="-391.5" font-family="Helvetica,sans-Serif" font-size="10.00">txscaled.h</text>
</a>
</g>
</g>
<!-- Node3&#45;&gt;Node19 -->
<g id="edge21" class="edge">
<title>Node3&#45;&gt;Node19</title>
<path fill="none" stroke="midnightblue" d="M187.22,-440.45C176.37,-432.36 159.42,-419.7 146.27,-409.88"/>
<polygon fill="midnightblue" stroke="midnightblue" points="147.99,-406.8 137.88,-403.63 143.8,-412.41 147.99,-406.8"/>
</g>
<!-- Node22 -->
<g id="node22" class="node">
<title>Node22</title>
<g id="a_node22"><a xlink:title=" ">
<polygon fill="none" stroke="#bfbfbf" points="175.27,-385.5 175.27,-403.5 220.73,-403.5 220.73,-385.5 175.27,-385.5"/>
<text text-anchor="middle" x="198" y="-391.5" font-family="Helvetica,sans-Serif" font-size="10.00">cstring</text>
</a>
</g>
</g>
<!-- Node3&#45;&gt;Node22 -->
<g id="edge26" class="edge">
<title>Node3&#45;&gt;Node22</title>
<path fill="none" stroke="midnightblue" d="M198,-440.22C198,-433.18 198,-422.81 198,-413.83"/>
<polygon fill="midnightblue" stroke="midnightblue" points="201.5,-413.55 198,-403.55 194.5,-413.55 201.5,-413.55"/>
</g>
<!-- Node3&#45;&gt;Node23 -->
<g id="edge27" class="edge">
<title>Node3&#45;&gt;Node23</title>
<path fill="none" stroke="midnightblue" d="M213.34,-440.45C229.58,-431.93 255.45,-418.35 274.51,-408.35"/>
<polygon fill="midnightblue" stroke="midnightblue" points="276.29,-411.37 283.52,-403.63 273.03,-405.17 276.29,-411.37"/>
</g>
<!-- Node5 -->
<g id="node5" class="node">
<title>Node5</title>
<g id="a_node5"><a xlink:href="../../d2/d68/_cmd_chr_8h.html" target="_top" xlink:title=" ">
<polygon fill="none" stroke="black" points="76.49,-220.5 76.49,-238.5 137.51,-238.5 137.51,-220.5 76.49,-220.5"/>
<text text-anchor="middle" x="107" y="-226.5" font-family="Helvetica,sans-Serif" font-size="10.00">CmdChr.h</text>
</a>
</g>
</g>
<!-- Node4&#45;&gt;Node5 -->
<g id="edge4" class="edge">
<title>Node4&#45;&gt;Node5</title>
<path fill="none" stroke="midnightblue" d="M74.09,-275.22C79.68,-267.63 88.11,-256.18 95.04,-246.76"/>
<polygon fill="midnightblue" stroke="midnightblue" points="97.97,-248.68 101.08,-238.55 92.33,-244.53 97.97,-248.68"/>
</g>
<!-- Node14 -->
<g id="node14" class="node">
<title>Node14</title>
<g id="a_node14"><a xlink:title=" ">
<polygon fill="none" stroke="#bfbfbf" points="29.5,-220.5 29.5,-238.5 58.5,-238.5 58.5,-220.5 29.5,-220.5"/>
<text text-anchor="middle" x="43.61" y="-226.5" font-family="Helvetica,sans-Serif" font-size="10.00">list</text>
</a>
</g>
</g>
<!-- Node4&#45;&gt;Node14 -->
<g id="edge14" class="edge">
<title>Node4&#45;&gt;Node14</title>
<path fill="none" stroke="midnightblue" d="M64.25,-275.22C60.95,-267.94 56.05,-257.11 51.89,-247.93"/>
<polygon fill="midnightblue" stroke="midnightblue" points="54.96,-246.22 47.65,-238.55 48.58,-249.1 54.96,-246.22"/>
</g>
<!-- Node6 -->
<g id="node6" class="node">
<title>Node6</title>
<g id="a_node6"><a xlink:href="../../d8/d47/codepoint_8h.html" target="_top" xlink:title=" ">
<polygon fill="none" stroke="black" points="51.15,-165.5 51.15,-183.5 118.85,-183.5 118.85,-165.5 51.15,-165.5"/>
<text text-anchor="middle" x="85" y="-171.5" font-family="Helvetica,sans-Serif" font-size="10.00">codepoint.h</text>
</a>
</g>
</g>
<!-- Node5&#45;&gt;Node6 -->
<g id="edge5" class="edge">
<title>Node5&#45;&gt;Node6</title>
<path fill="none" stroke="midnightblue" d="M103.56,-220.22C100.54,-212.94 96.05,-202.11 92.24,-192.93"/>
<polygon fill="midnightblue" stroke="midnightblue" points="95.41,-191.44 88.34,-183.55 88.94,-194.13 95.41,-191.44"/>
</g>
<!-- Node12 -->
<g id="node12" class="node">
<title>Node12</title>
<g id="a_node12"><a xlink:href="../../d0/d0b/enums_8h.html" target="_top" xlink:title=" ">
<polygon fill="none" stroke="black" points="136.82,-165.5 136.82,-183.5 191.18,-183.5 191.18,-165.5 136.82,-165.5"/>
<text text-anchor="middle" x="164" y="-171.5" font-family="Helvetica,sans-Serif" font-size="10.00">enums.h</text>
</a>
</g>
</g>
<!-- Node5&#45;&gt;Node12 -->
<g id="edge11" class="edge">
<title>Node5&#45;&gt;Node12</title>
<path fill="none" stroke="midnightblue" d="M115.91,-220.22C124.41,-212.32 137.41,-200.22 147.75,-190.61"/>
<polygon fill="midnightblue" stroke="midnightblue" points="150.4,-192.92 155.34,-183.55 145.64,-187.8 150.4,-192.92"/>
</g>
<!-- Node7 -->
<g id="node7" class="node">
<title>Node7</title>
<g id="a_node7"><a xlink:href="../../d9/d49/types_8h.html" target="_top" xlink:title=" ">
<polygon fill="none" stroke="black" points="99.88,-55.5 99.88,-73.5 148.12,-73.5 148.12,-55.5 99.88,-55.5"/>
<text text-anchor="middle" x="124" y="-61.5" font-family="Helvetica,sans-Serif" font-size="10.00">types.h</text>
</a>
</g>
</g>
<!-- Node6&#45;&gt;Node7 -->
<g id="edge6" class="edge">
<title>Node6&#45;&gt;Node7</title>
<path fill="none" stroke="midnightblue" d="M87.93,-165.38C94.2,-148.03 109.03,-106.96 117.59,-83.24"/>
<polygon fill="midnightblue" stroke="midnightblue" points="120.93,-84.31 121.03,-73.71 114.35,-81.93 120.93,-84.31"/>
</g>
<!-- Node6&#45;&gt;Node11 -->
<g id="edge10" class="edge">
<title>Node6&#45;&gt;Node11</title>
<path fill="none" stroke="midnightblue" d="M76.88,-165.22C69.2,-157.39 57.49,-145.46 48.1,-135.89"/>
<polygon fill="midnightblue" stroke="midnightblue" points="50.4,-133.24 40.9,-128.55 45.4,-138.14 50.4,-133.24"/>
</g>
<!-- Node8 -->
<g id="node8" class="node">
<title>Node8</title>
<g id="a_node8"><a xlink:title=" ">
<polygon fill="none" stroke="#bfbfbf" points="33.88,-0.5 33.88,-18.5 82.12,-18.5 82.12,-0.5 33.88,-0.5"/>
<text text-anchor="middle" x="58" y="-6.5" font-family="Helvetica,sans-Serif" font-size="10.00">cassert</text>
</a>
</g>
</g>
<!-- Node7&#45;&gt;Node8 -->
<g id="edge7" class="edge">
<title>Node7&#45;&gt;Node8</title>
<path fill="none" stroke="midnightblue" d="M113.98,-55.45C103.99,-47.43 88.44,-34.95 76.26,-25.17"/>
<polygon fill="midnightblue" stroke="midnightblue" points="78.11,-22.16 68.12,-18.63 73.72,-27.62 78.11,-22.16"/>
</g>
<!-- Node9 -->
<g id="node9" class="node">
<title>Node9</title>
<g id="a_node9"><a xlink:title=" ">
<polygon fill="none" stroke="#bfbfbf" points="99.88,-0.5 99.88,-18.5 148.12,-18.5 148.12,-0.5 99.88,-0.5"/>
<text text-anchor="middle" x="124" y="-6.5" font-family="Helvetica,sans-Serif" font-size="10.00">cstddef</text>
</a>
</g>
</g>
<!-- Node7&#45;&gt;Node9 -->
<g id="edge8" class="edge">
<title>Node7&#45;&gt;Node9</title>
<path fill="none" stroke="midnightblue" d="M124,-55.22C124,-48.18 124,-37.81 124,-28.83"/>
<polygon fill="midnightblue" stroke="midnightblue" points="127.5,-28.55 124,-18.55 120.5,-28.55 127.5,-28.55"/>
</g>
<!-- Node10 -->
<g id="node10" class="node">
<title>Node10</title>
<g id="a_node10"><a xlink:title=" ">
<polygon fill="none" stroke="#bfbfbf" points="165.93,-0.5 165.93,-18.5 228.07,-18.5 228.07,-0.5 165.93,-0.5"/>
<text text-anchor="middle" x="197" y="-6.5" font-family="Helvetica,sans-Serif" font-size="10.00">type_traits</text>
</a>
</g>
</g>
<!-- Node7&#45;&gt;Node10 -->
<g id="edge9" class="edge">
<title>Node7&#45;&gt;Node10</title>
<path fill="none" stroke="midnightblue" d="M135.09,-55.45C146.34,-47.28 164,-34.46 177.58,-24.6"/>
<polygon fill="midnightblue" stroke="midnightblue" points="179.77,-27.33 185.81,-18.63 175.66,-21.67 179.77,-27.33"/>
</g>
<!-- Node13 -->
<g id="node13" class="node">
<title>Node13</title>
<g id="a_node13"><a xlink:href="../../d8/db5/consts_8h.html" target="_top" xlink:title=" ">
<polygon fill="none" stroke="black" points="131.38,-110.5 131.38,-128.5 184.62,-128.5 184.62,-110.5 131.38,-110.5"/>
<text text-anchor="middle" x="158" y="-116.5" font-family="Helvetica,sans-Serif" font-size="10.00">consts.h</text>
</a>
</g>
</g>
<!-- Node12&#45;&gt;Node13 -->
<g id="edge12" class="edge">
<title>Node12&#45;&gt;Node13</title>
<path fill="none" stroke="midnightblue" d="M163.06,-165.22C162.26,-158.1 161.07,-147.58 160.04,-138.53"/>
<polygon fill="midnightblue" stroke="midnightblue" points="163.51,-138.09 158.91,-128.55 156.56,-138.88 163.51,-138.09"/>
</g>
<!-- Node13&#45;&gt;Node7 -->
<g id="edge13" class="edge">
<title>Node13&#45;&gt;Node7</title>
<path fill="none" stroke="midnightblue" d="M152.69,-110.22C147.87,-102.71 140.62,-91.41 134.62,-82.05"/>
<polygon fill="midnightblue" stroke="midnightblue" points="137.51,-80.08 129.16,-73.55 131.62,-83.86 137.51,-80.08"/>
</g>
<!-- Node16 -->
<g id="node16" class="node">
<title>Node16</title>
<g id="a_node16"><a xlink:href="../../d5/daf/_istring_8h.html" target="_top" xlink:title=" ">
<polygon fill="none" stroke="black" points="182.77,-275.5 182.77,-293.5 263.23,-293.5 263.23,-275.5 182.77,-275.5"/>
<text text-anchor="middle" x="223" y="-281.5" font-family="Helvetica,sans-Serif" font-size="10.00">tralics/Istring.h</text>
</a>
</g>
</g>
<!-- Node15&#45;&gt;Node16 -->
<g id="edge16" class="edge">
<title>Node15&#45;&gt;Node16</title>
<path fill="none" stroke="midnightblue" d="M244.94,-330.22C241.33,-322.86 235.94,-311.88 231.41,-302.64"/>
<polygon fill="midnightblue" stroke="midnightblue" points="234.5,-300.99 226.95,-293.55 228.21,-304.07 234.5,-300.99"/>
</g>
<!-- Node18 -->
<g id="node18" class="node">
<title>Node18</title>
<g id="a_node18"><a xlink:title=" ">
<polygon fill="none" stroke="#bfbfbf" points="260.77,-220.5 260.77,-238.5 301.23,-238.5 301.23,-220.5 260.77,-220.5"/>
<text text-anchor="middle" x="281" y="-226.5" font-family="Helvetica,sans-Serif" font-size="10.00">string</text>
</a>
</g>
</g>
<!-- Node15&#45;&gt;Node18 -->
<g id="edge20" class="edge">
<title>Node15&#45;&gt;Node18</title>
<path fill="none" stroke="midnightblue" d="M254.29,-330.34C259.64,-321.68 267.72,-307.42 272,-294 276.72,-279.22 278.97,-261.72 280.04,-248.83"/>
<polygon fill="midnightblue" stroke="midnightblue" points="283.55,-248.72 280.72,-238.51 276.57,-248.26 283.55,-248.72"/>
</g>
<!-- Node16&#45;&gt;Node12 -->
<g id="edge17" class="edge">
<title>Node16&#45;&gt;Node12</title>
<path fill="none" stroke="midnightblue" d="M221.72,-275.23C219.53,-262.65 214.25,-238.26 204,-220 197.97,-209.27 188.96,-198.93 181.01,-190.93"/>
<polygon fill="midnightblue" stroke="midnightblue" points="183.2,-188.19 173.57,-183.78 178.35,-193.23 183.2,-188.19"/>
</g>
<!-- Node17 -->
<g id="node17" class="node">
<title>Node17</title>
<g id="a_node17"><a xlink:title=" ">
<polygon fill="none" stroke="#bfbfbf" points="156.61,-220.5 156.61,-238.5 195.39,-238.5 195.39,-220.5 156.61,-220.5"/>
<text text-anchor="middle" x="176" y="-226.5" font-family="Helvetica,sans-Serif" font-size="10.00">array</text>
</a>
</g>
</g>
<!-- Node16&#45;&gt;Node17 -->
<g id="edge18" class="edge">
<title>Node16&#45;&gt;Node17</title>
<path fill="none" stroke="midnightblue" d="M215.66,-275.22C208.79,-267.47 198.35,-255.7 189.9,-246.18"/>
<polygon fill="midnightblue" stroke="midnightblue" points="192.39,-243.71 183.14,-238.55 187.15,-248.35 192.39,-243.71"/>
</g>
<!-- Node16&#45;&gt;Node18 -->
<g id="edge19" class="edge">
<title>Node16&#45;&gt;Node18</title>
<path fill="none" stroke="midnightblue" d="M232.06,-275.22C240.8,-267.24 254.21,-254.98 264.78,-245.32"/>
<polygon fill="midnightblue" stroke="midnightblue" points="267.17,-247.88 272.19,-238.55 262.45,-242.71 267.17,-247.88"/>
</g>
<!-- Node20 -->
<g id="node20" class="node">
<title>Node20</title>
<g id="a_node20"><a xlink:href="../../dc/d91/txtokenlist_8h.html" target="_top" xlink:title=" ">
<polygon fill="none" stroke="black" points="103.6,-330.5 103.6,-348.5 172.4,-348.5 172.4,-330.5 103.6,-330.5"/>
<text text-anchor="middle" x="138" y="-336.5" font-family="Helvetica,sans-Serif" font-size="10.00">txtokenlist.h</text>
</a>
</g>
</g>
<!-- Node19&#45;&gt;Node20 -->
<g id="edge22" class="edge">
<title>Node19&#45;&gt;Node20</title>
<path fill="none" stroke="midnightblue" d="M128.72,-385.22C130.2,-378.1 132.38,-367.58 134.26,-358.53"/>
<polygon fill="midnightblue" stroke="midnightblue" points="137.72,-359.05 136.33,-348.55 130.87,-357.63 137.72,-359.05"/>
</g>
<!-- Node20&#45;&gt;Node4 -->
<g id="edge24" class="edge">
<title>Node20&#45;&gt;Node4</title>
<path fill="none" stroke="midnightblue" d="M127.37,-330.45C116.68,-322.36 99.97,-309.7 87,-299.88"/>
<polygon fill="midnightblue" stroke="midnightblue" points="88.82,-296.87 78.73,-293.63 84.59,-302.45 88.82,-296.87"/>
</g>
<!-- Node20&#45;&gt;Node16 -->
<g id="edge23" class="edge">
<title>Node20&#45;&gt;Node16</title>
<path fill="none" stroke="midnightblue" d="M150.91,-330.45C164.26,-322.12 185.36,-308.97 201.29,-299.04"/>
<polygon fill="midnightblue" stroke="midnightblue" points="203.34,-301.89 209.97,-293.63 199.63,-295.95 203.34,-301.89"/>
</g>
<!-- Node21 -->
<g id="node21" class="node">
<title>Node21</title>
<g id="a_node21"><a xlink:title=" ">
<polygon fill="none" stroke="#bfbfbf" points="125.61,-275.5 125.61,-293.5 164.39,-293.5 164.39,-275.5 125.61,-275.5"/>
<text text-anchor="middle" x="145" y="-281.5" font-family="Helvetica,sans-Serif" font-size="10.00">utility</text>
</a>
</g>
</g>
<!-- Node20&#45;&gt;Node21 -->
<g id="edge25" class="edge">
<title>Node20&#45;&gt;Node21</title>
<path fill="none" stroke="midnightblue" d="M139.09,-330.22C140.03,-323.1 141.42,-312.58 142.62,-303.53"/>
<polygon fill="midnightblue" stroke="midnightblue" points="146.1,-303.92 143.94,-293.55 139.16,-303.01 146.1,-303.92"/>
</g>
</g>
</svg>
