<?xml version="1.0" encoding="UTF-8" standalone="no"?>
<!DOCTYPE svg PUBLIC "-//W3C//DTD SVG 1.1//EN"
 "http://www.w3.org/Graphics/SVG/1.1/DTD/svg11.dtd">
<!-- Generated by graphviz version 2.43.0 (0)
 -->
<!-- Title: ScanSlot Pages: 1 -->
<svg width="96pt" height="102pt"
 viewBox="0.00 0.00 95.77 102.00" xmlns="http://www.w3.org/2000/svg" xmlns:xlink="http://www.w3.org/1999/xlink">
<g id="graph0" class="graph" transform="scale(1 1) rotate(0) translate(4 98)">
<title>ScanSlot</title>
<polygon fill="white" stroke="transparent" points="-4,4 -4,-98 91.77,-98 91.77,4 -4,4"/>
<!-- Node1 -->
<g id="node1" class="node">
<title>Node1</title>
<g id="a_node1"><a xlink:title=" ">
<polygon fill="#bfbfbf" stroke="black" points="4.17,-0.5 4.17,-18.5 60.19,-18.5 60.19,-0.5 4.17,-0.5"/>
<text text-anchor="middle" x="32.18" y="-6.5" font-family="Helvetica,sans-Serif" font-size="10.00">ScanSlot</text>
</a>
</g>
</g>
<!-- Node2 -->
<g id="node2" class="node">
<title>Node2</title>
<g id="a_node2"><a xlink:href="../../d2/db5/class_sth_internal.html" target="_top" xlink:title=" ">
<polygon fill="white" stroke="black" points="0,-75.5 0,-93.5 64.36,-93.5 64.36,-75.5 0,-75.5"/>
<text text-anchor="middle" x="32.18" y="-81.5" font-family="Helvetica,sans-Serif" font-size="10.00">SthInternal</text>
</a>
</g>
</g>
<!-- Node2&#45;&gt;Node1 -->
<g id="edge1" class="edge">
<title>Node2&#45;&gt;Node1</title>
<path fill="none" stroke="#9a32cd" stroke-dasharray="5,2" d="M32.18,-65.35C32.18,-50.48 32.18,-30.12 32.18,-18.85"/>
<polygon fill="#9a32cd" stroke="#9a32cd" points="28.68,-65.41 32.18,-75.41 35.68,-65.41 28.68,-65.41"/>
<text text-anchor="middle" x="59.98" y="-49" font-family="Helvetica,sans-Serif" font-size="10.00"> expr_so_far</text>
<text text-anchor="middle" x="59.98" y="-39" font-family="Helvetica,sans-Serif" font-size="10.00">term_so_far</text>
</g>
</g>
</svg>
