<?xml version="1.0" encoding="UTF-8" standalone="no"?>
<!DOCTYPE svg PUBLIC "-//W3C//DTD SVG 1.1//EN"
 "http://www.w3.org/Graphics/SVG/1.1/DTD/svg11.dtd">
<!-- Generated by graphviz version 2.42.3 (20191010.1750)
 -->
<!-- Title: txtoken.cpp Pages: 1 -->
<svg width="652pt" height="742pt"
 viewBox="0.00 0.00 652.36 742.00" xmlns="http://www.w3.org/2000/svg" xmlns:xlink="http://www.w3.org/1999/xlink">
<g id="graph0" class="graph" transform="scale(1 1) rotate(0) translate(4 738)">
<title>txtoken.cpp</title>
<polygon fill="white" stroke="transparent" points="-4,4 -4,-738 648.36,-738 648.36,4 -4,4"/>
<!-- Node1 -->
<g id="node1" class="node">
<title>Node1</title>
<g id="a_node1"><a xlink:title=" ">
<polygon fill="#bfbfbf" stroke="black" points="217.11,-715.5 217.11,-733.5 284.26,-733.5 284.26,-715.5 217.11,-715.5"/>
<text text-anchor="middle" x="250.68" y="-721.5" font-family="Helvetica,sans-Serif" font-size="10.00">txtoken.cpp</text>
</a>
</g>
</g>
<!-- Node2 -->
<g id="node2" class="node">
<title>Node2</title>
<g id="a_node2"><a xlink:href="../../d7/d79/txinline_8h.html" target="_top" xlink:title=" ">
<polygon fill="white" stroke="black" points="128.95,-660.5 128.95,-678.5 184.42,-678.5 184.42,-660.5 128.95,-660.5"/>
<text text-anchor="middle" x="156.68" y="-666.5" font-family="Helvetica,sans-Serif" font-size="10.00">txinline.h</text>
</a>
</g>
</g>
<!-- Node1&#45;&gt;Node2 -->
<g id="edge1" class="edge">
<title>Node1&#45;&gt;Node2</title>
<path fill="none" stroke="midnightblue" d="M236.41,-715.45C221.5,-707.05 197.87,-693.72 180.21,-683.76"/>
<polygon fill="midnightblue" stroke="midnightblue" points="181.53,-680.49 171.1,-678.63 178.09,-686.59 181.53,-680.49"/>
</g>
<!-- Node32 -->
<g id="node32" class="node">
<title>Node32</title>
<g id="a_node32"><a xlink:href="../../d2/d1b/txparser_8h.html" target="_top" xlink:title=" ">
<polygon fill="white" stroke="black" points="391.73,-660.5 391.73,-678.5 451.64,-678.5 451.64,-660.5 391.73,-660.5"/>
<text text-anchor="middle" x="421.68" y="-666.5" font-family="Helvetica,sans-Serif" font-size="10.00">txparser.h</text>
</a>
</g>
</g>
<!-- Node1&#45;&gt;Node32 -->
<g id="edge40" class="edge">
<title>Node1&#45;&gt;Node32</title>
<path fill="none" stroke="midnightblue" d="M276.66,-715.45C305.87,-706.4 353.48,-691.64 386.13,-681.52"/>
<polygon fill="midnightblue" stroke="midnightblue" points="387.23,-684.84 395.75,-678.54 385.16,-678.16 387.23,-684.84"/>
</g>
<!-- Node3 -->
<g id="node3" class="node">
<title>Node3</title>
<g id="a_node3"><a xlink:href="../../d4/de9/_main_class_8h.html" target="_top" xlink:title=" ">
<polygon fill="white" stroke="black" points="155.73,-605.5 155.73,-623.5 255.64,-623.5 255.64,-605.5 155.73,-605.5"/>
<text text-anchor="middle" x="205.68" y="-611.5" font-family="Helvetica,sans-Serif" font-size="10.00">tralics/MainClass.h</text>
</a>
</g>
</g>
<!-- Node2&#45;&gt;Node3 -->
<g id="edge2" class="edge">
<title>Node2&#45;&gt;Node3</title>
<path fill="none" stroke="midnightblue" d="M164.34,-660.22C171.5,-652.47 182.39,-640.7 191.19,-631.18"/>
<polygon fill="midnightblue" stroke="midnightblue" points="194.02,-633.27 198.24,-623.55 188.88,-628.52 194.02,-633.27"/>
</g>
<!-- Node29 -->
<g id="node29" class="node">
<title>Node29</title>
<g id="a_node29"><a xlink:href="../../d2/d06/txlogger_8h.html" target="_top" xlink:title=" ">
<polygon fill="white" stroke="black" points="0,-605.5 0,-623.5 59.37,-623.5 59.37,-605.5 0,-605.5"/>
<text text-anchor="middle" x="29.68" y="-611.5" font-family="Helvetica,sans-Serif" font-size="10.00">txlogger.h</text>
</a>
</g>
</g>
<!-- Node2&#45;&gt;Node29 -->
<g id="edge35" class="edge">
<title>Node2&#45;&gt;Node29</title>
<path fill="none" stroke="midnightblue" d="M137.4,-660.45C116.42,-651.7 82.65,-637.61 58.52,-627.53"/>
<polygon fill="midnightblue" stroke="midnightblue" points="59.73,-624.25 49.15,-623.63 57.04,-630.71 59.73,-624.25"/>
</g>
<!-- Node31 -->
<g id="node31" class="node">
<title>Node31</title>
<g id="a_node31"><a xlink:href="../../d5/d08/txparam_8h.html" target="_top" xlink:title=" ">
<polygon fill="white" stroke="black" points="77.45,-605.5 77.45,-623.5 137.92,-623.5 137.92,-605.5 77.45,-605.5"/>
<text text-anchor="middle" x="107.68" y="-611.5" font-family="Helvetica,sans-Serif" font-size="10.00">txparam.h</text>
</a>
</g>
</g>
<!-- Node2&#45;&gt;Node31 -->
<g id="edge38" class="edge">
<title>Node2&#45;&gt;Node31</title>
<path fill="none" stroke="midnightblue" d="M149.03,-660.22C141.87,-652.47 130.98,-640.7 122.18,-631.18"/>
<polygon fill="midnightblue" stroke="midnightblue" points="124.49,-628.52 115.13,-623.55 119.35,-633.27 124.49,-628.52"/>
</g>
<!-- Node4 -->
<g id="node4" class="node">
<title>Node4</title>
<g id="a_node4"><a xlink:href="../../de/d29/txio_8h.html" target="_top" xlink:title=" ">
<polygon fill="white" stroke="black" points="181.57,-550.5 181.57,-568.5 229.8,-568.5 229.8,-550.5 181.57,-550.5"/>
<text text-anchor="middle" x="205.68" y="-556.5" font-family="Helvetica,sans-Serif" font-size="10.00">../txio.h</text>
</a>
</g>
</g>
<!-- Node3&#45;&gt;Node4 -->
<g id="edge3" class="edge">
<title>Node3&#45;&gt;Node4</title>
<path fill="none" stroke="midnightblue" d="M205.68,-605.22C205.68,-598.18 205.68,-587.81 205.68,-578.83"/>
<polygon fill="midnightblue" stroke="midnightblue" points="209.18,-578.55 205.68,-568.55 202.18,-578.55 209.18,-578.55"/>
</g>
<!-- Node28 -->
<g id="node28" class="node">
<title>Node28</title>
<g id="a_node28"><a xlink:href="../../dc/def/txstring_8h.html" target="_top" xlink:title=" ">
<polygon fill="white" stroke="black" points="287.23,-495.5 287.23,-513.5 352.14,-513.5 352.14,-495.5 287.23,-495.5"/>
<text text-anchor="middle" x="319.68" y="-501.5" font-family="Helvetica,sans-Serif" font-size="10.00">../txstring.h</text>
</a>
</g>
</g>
<!-- Node3&#45;&gt;Node28 -->
<g id="edge33" class="edge">
<title>Node3&#45;&gt;Node28</title>
<path fill="none" stroke="midnightblue" d="M214.25,-605.38C233.23,-587.4 279.08,-543.97 303.59,-520.75"/>
<polygon fill="midnightblue" stroke="midnightblue" points="306.16,-523.13 311.02,-513.71 301.35,-518.05 306.16,-523.13"/>
</g>
<!-- Node5 -->
<g id="node5" class="node">
<title>Node5</title>
<g id="a_node5"><a xlink:href="../../dd/d74/txbuffer_8h.html" target="_top" xlink:title=" ">
<polygon fill="white" stroke="black" points="291.2,-440.5 291.2,-458.5 348.17,-458.5 348.17,-440.5 291.2,-440.5"/>
<text text-anchor="middle" x="319.68" y="-446.5" font-family="Helvetica,sans-Serif" font-size="10.00">txbuffer.h</text>
</a>
</g>
</g>
<!-- Node4&#45;&gt;Node5 -->
<g id="edge4" class="edge">
<title>Node4&#45;&gt;Node5</title>
<path fill="none" stroke="midnightblue" d="M214.25,-550.38C233.23,-532.4 279.08,-488.97 303.59,-465.75"/>
<polygon fill="midnightblue" stroke="midnightblue" points="306.16,-468.13 311.02,-458.71 301.35,-463.05 306.16,-468.13"/>
</g>
<!-- Node27 -->
<g id="node27" class="node">
<title>Node27</title>
<g id="a_node27"><a xlink:title=" ">
<polygon fill="white" stroke="#bfbfbf" points="149.01,-495.5 149.01,-513.5 198.35,-513.5 198.35,-495.5 149.01,-495.5"/>
<text text-anchor="middle" x="173.68" y="-501.5" font-family="Helvetica,sans-Serif" font-size="10.00">fstream</text>
</a>
</g>
</g>
<!-- Node4&#45;&gt;Node27 -->
<g id="edge32" class="edge">
<title>Node4&#45;&gt;Node27</title>
<path fill="none" stroke="midnightblue" d="M200.68,-550.22C196.2,-542.79 189.47,-531.65 183.85,-522.34"/>
<polygon fill="midnightblue" stroke="midnightblue" points="186.71,-520.3 178.54,-513.55 180.72,-523.92 186.71,-520.3"/>
</g>
<!-- Node6 -->
<g id="node6" class="node">
<title>Node6</title>
<g id="a_node6"><a xlink:href="../../d1/d9e/txid_8h.html" target="_top" xlink:title=" ">
<polygon fill="white" stroke="black" points="454.73,-330.5 454.73,-348.5 494.64,-348.5 494.64,-330.5 454.73,-330.5"/>
<text text-anchor="middle" x="474.68" y="-336.5" font-family="Helvetica,sans-Serif" font-size="10.00">txid.h</text>
</a>
</g>
</g>
<!-- Node5&#45;&gt;Node6 -->
<g id="edge5" class="edge">
<title>Node5&#45;&gt;Node6</title>
<path fill="none" stroke="midnightblue" d="M348.49,-441.92C372.41,-435.35 406.33,-423.41 430.68,-404 446.38,-391.49 458.76,-371.9 466.34,-357.79"/>
<polygon fill="midnightblue" stroke="midnightblue" points="469.57,-359.16 470.99,-348.66 463.33,-355.98 469.57,-359.16"/>
</g>
<!-- Node16 -->
<g id="node16" class="node">
<title>Node16</title>
<g id="a_node16"><a xlink:href="../../d9/d18/txscaled_8h.html" target="_top" xlink:title=" ">
<polygon fill="white" stroke="black" points="360.17,-385.5 360.17,-403.5 421.2,-403.5 421.2,-385.5 360.17,-385.5"/>
<text text-anchor="middle" x="390.68" y="-391.5" font-family="Helvetica,sans-Serif" font-size="10.00">txscaled.h</text>
</a>
</g>
</g>
<!-- Node5&#45;&gt;Node16 -->
<g id="edge15" class="edge">
<title>Node5&#45;&gt;Node16</title>
<path fill="none" stroke="midnightblue" d="M330.47,-440.45C341.31,-432.36 358.26,-419.7 371.42,-409.88"/>
<polygon fill="midnightblue" stroke="midnightblue" points="373.88,-412.41 379.8,-403.63 369.69,-406.8 373.88,-412.41"/>
</g>
<!-- Node22 -->
<g id="node22" class="node">
<title>Node22</title>
<g id="a_node22"><a xlink:title=" ">
<polygon fill="white" stroke="#bfbfbf" points="217.17,-110.5 217.17,-128.5 268.2,-128.5 268.2,-110.5 217.17,-110.5"/>
<text text-anchor="middle" x="242.68" y="-116.5" font-family="Helvetica,sans-Serif" font-size="10.00">optional</text>
</a>
</g>
</g>
<!-- Node5&#45;&gt;Node22 -->
<g id="edge30" class="edge">
<title>Node5&#45;&gt;Node22</title>
<path fill="none" stroke="midnightblue" d="M304.42,-440.37C277.57,-424.84 224.68,-388.2 224.68,-340.5 224.68,-340.5 224.68,-340.5 224.68,-228.5 224.68,-196.44 232.5,-159.74 237.83,-138.43"/>
<polygon fill="midnightblue" stroke="midnightblue" points="241.27,-139.11 240.4,-128.55 234.5,-137.35 241.27,-139.11"/>
</g>
<!-- Node25 -->
<g id="node25" class="node">
<title>Node25</title>
<g id="a_node25"><a xlink:title=" ">
<polygon fill="white" stroke="#bfbfbf" points="296.96,-385.5 296.96,-403.5 342.41,-403.5 342.41,-385.5 296.96,-385.5"/>
<text text-anchor="middle" x="319.68" y="-391.5" font-family="Helvetica,sans-Serif" font-size="10.00">cstring</text>
</a>
</g>
</g>
<!-- Node5&#45;&gt;Node25 -->
<g id="edge29" class="edge">
<title>Node5&#45;&gt;Node25</title>
<path fill="none" stroke="midnightblue" d="M319.68,-440.22C319.68,-433.18 319.68,-422.81 319.68,-413.83"/>
<polygon fill="midnightblue" stroke="midnightblue" points="323.18,-413.55 319.68,-403.55 316.18,-413.55 323.18,-413.55"/>
</g>
<!-- Node26 -->
<g id="node26" class="node">
<title>Node26</title>
<g id="a_node26"><a xlink:title=" ">
<polygon fill="white" stroke="#bfbfbf" points="500.07,-385.5 500.07,-403.5 543.3,-403.5 543.3,-385.5 500.07,-385.5"/>
<text text-anchor="middle" x="521.68" y="-391.5" font-family="Helvetica,sans-Serif" font-size="10.00">vector</text>
</a>
</g>
</g>
<!-- Node5&#45;&gt;Node26 -->
<g id="edge31" class="edge">
<title>Node5&#45;&gt;Node26</title>
<path fill="none" stroke="midnightblue" d="M348.2,-441.02C385.63,-431.2 451.15,-414.01 490.07,-403.79"/>
<polygon fill="midnightblue" stroke="midnightblue" points="491.04,-407.16 499.83,-401.23 489.27,-400.39 491.04,-407.16"/>
</g>
<!-- Node7 -->
<g id="node7" class="node">
<title>Node7</title>
<g id="a_node7"><a xlink:href="../../dc/de8/txvars_8h.html" target="_top" xlink:title=" ">
<polygon fill="white" stroke="black" points="449.18,-275.5 449.18,-293.5 500.19,-293.5 500.19,-275.5 449.18,-275.5"/>
<text text-anchor="middle" x="474.68" y="-281.5" font-family="Helvetica,sans-Serif" font-size="10.00">txvars.h</text>
</a>
</g>
</g>
<!-- Node6&#45;&gt;Node7 -->
<g id="edge6" class="edge">
<title>Node6&#45;&gt;Node7</title>
<path fill="none" stroke="midnightblue" d="M474.68,-330.22C474.68,-323.18 474.68,-312.81 474.68,-303.83"/>
<polygon fill="midnightblue" stroke="midnightblue" points="478.18,-303.55 474.68,-293.55 471.18,-303.55 478.18,-303.55"/>
</g>
<!-- Node15 -->
<g id="node15" class="node">
<title>Node15</title>
<g id="a_node15"><a xlink:title=" ">
<polygon fill="white" stroke="#bfbfbf" points="511.46,-220.5 511.46,-238.5 551.91,-238.5 551.91,-220.5 511.46,-220.5"/>
<text text-anchor="middle" x="531.68" y="-226.5" font-family="Helvetica,sans-Serif" font-size="10.00">string</text>
</a>
</g>
</g>
<!-- Node6&#45;&gt;Node15 -->
<g id="edge14" class="edge">
<title>Node6&#45;&gt;Node15</title>
<path fill="none" stroke="midnightblue" d="M482.58,-330.24C490.36,-321.73 502.15,-307.8 509.68,-294 517.64,-279.44 523.54,-261.47 527.22,-248.36"/>
<polygon fill="midnightblue" stroke="midnightblue" points="530.61,-249.24 529.78,-238.68 523.84,-247.45 530.61,-249.24"/>
</g>
<!-- Node8 -->
<g id="node8" class="node">
<title>Node8</title>
<g id="a_node8"><a xlink:href="../../d0/d0b/enums_8h.html" target="_top" xlink:title=" ">
<polygon fill="white" stroke="black" points="348.06,-165.5 348.06,-183.5 431.31,-183.5 431.31,-165.5 348.06,-165.5"/>
<text text-anchor="middle" x="389.68" y="-171.5" font-family="Helvetica,sans-Serif" font-size="10.00">tralics/enums.h</text>
</a>
</g>
</g>
<!-- Node7&#45;&gt;Node8 -->
<g id="edge7" class="edge">
<title>Node7&#45;&gt;Node8</title>
<path fill="none" stroke="midnightblue" d="M475.49,-275.29C476.33,-262.37 476.21,-237 464.68,-220 454.79,-205.4 438.37,-194.88 423.41,-187.74"/>
<polygon fill="midnightblue" stroke="midnightblue" points="424.44,-184.37 413.88,-183.53 421.61,-190.77 424.44,-184.37"/>
</g>
<!-- Node14 -->
<g id="node14" class="node">
<title>Node14</title>
<g id="a_node14"><a xlink:title=" ">
<polygon fill="white" stroke="#bfbfbf" points="417.29,-220.5 417.29,-238.5 456.08,-238.5 456.08,-220.5 417.29,-220.5"/>
<text text-anchor="middle" x="436.68" y="-226.5" font-family="Helvetica,sans-Serif" font-size="10.00">array</text>
</a>
</g>
</g>
<!-- Node7&#45;&gt;Node14 -->
<g id="edge13" class="edge">
<title>Node7&#45;&gt;Node14</title>
<path fill="none" stroke="midnightblue" d="M468.75,-275.22C463.31,-267.63 455.09,-256.18 448.34,-246.76"/>
<polygon fill="midnightblue" stroke="midnightblue" points="451.13,-244.64 442.46,-238.55 445.44,-248.72 451.13,-244.64"/>
</g>
<!-- Node9 -->
<g id="node9" class="node">
<title>Node9</title>
<g id="a_node9"><a xlink:href="../../d8/db5/consts_8h.html" target="_top" xlink:title=" ">
<polygon fill="white" stroke="black" points="353.06,-110.5 353.06,-128.5 406.31,-128.5 406.31,-110.5 353.06,-110.5"/>
<text text-anchor="middle" x="379.68" y="-116.5" font-family="Helvetica,sans-Serif" font-size="10.00">consts.h</text>
</a>
</g>
</g>
<!-- Node8&#45;&gt;Node9 -->
<g id="edge8" class="edge">
<title>Node8&#45;&gt;Node9</title>
<path fill="none" stroke="midnightblue" d="M388.12,-165.22C386.78,-158.1 384.79,-147.58 383.09,-138.53"/>
<polygon fill="midnightblue" stroke="midnightblue" points="386.5,-137.73 381.2,-128.55 379.62,-139.03 386.5,-137.73"/>
</g>
<!-- Node10 -->
<g id="node10" class="node">
<title>Node10</title>
<g id="a_node10"><a xlink:href="../../d9/d49/types_8h.html" target="_top" xlink:title=" ">
<polygon fill="white" stroke="black" points="318.56,-55.5 318.56,-73.5 366.81,-73.5 366.81,-55.5 318.56,-55.5"/>
<text text-anchor="middle" x="342.68" y="-61.5" font-family="Helvetica,sans-Serif" font-size="10.00">types.h</text>
</a>
</g>
</g>
<!-- Node9&#45;&gt;Node10 -->
<g id="edge9" class="edge">
<title>Node9&#45;&gt;Node10</title>
<path fill="none" stroke="midnightblue" d="M373.9,-110.22C368.6,-102.63 360.61,-91.18 354.04,-81.76"/>
<polygon fill="midnightblue" stroke="midnightblue" points="356.9,-79.75 348.3,-73.55 351.16,-83.75 356.9,-79.75"/>
</g>
<!-- Node11 -->
<g id="node11" class="node">
<title>Node11</title>
<g id="a_node11"><a xlink:title=" ">
<polygon fill="white" stroke="#bfbfbf" points="250.57,-0.5 250.57,-18.5 298.8,-18.5 298.8,-0.5 250.57,-0.5"/>
<text text-anchor="middle" x="274.68" y="-6.5" font-family="Helvetica,sans-Serif" font-size="10.00">cassert</text>
</a>
</g>
</g>
<!-- Node10&#45;&gt;Node11 -->
<g id="edge10" class="edge">
<title>Node10&#45;&gt;Node11</title>
<path fill="none" stroke="midnightblue" d="M332.36,-55.45C321.97,-47.36 305.74,-34.7 293.14,-24.88"/>
<polygon fill="midnightblue" stroke="midnightblue" points="295.15,-22.01 285.11,-18.63 290.85,-27.53 295.15,-22.01"/>
</g>
<!-- Node12 -->
<g id="node12" class="node">
<title>Node12</title>
<g id="a_node12"><a xlink:title=" ">
<polygon fill="white" stroke="#bfbfbf" points="316.89,-0.5 316.89,-18.5 368.48,-18.5 368.48,-0.5 316.89,-0.5"/>
<text text-anchor="middle" x="342.68" y="-6.5" font-family="Helvetica,sans-Serif" font-size="10.00">stddef.h</text>
</a>
</g>
</g>
<!-- Node10&#45;&gt;Node12 -->
<g id="edge11" class="edge">
<title>Node10&#45;&gt;Node12</title>
<path fill="none" stroke="midnightblue" d="M342.68,-55.22C342.68,-48.18 342.68,-37.81 342.68,-28.83"/>
<polygon fill="midnightblue" stroke="midnightblue" points="346.18,-28.55 342.68,-18.55 339.18,-28.55 346.18,-28.55"/>
</g>
<!-- Node13 -->
<g id="node13" class="node">
<title>Node13</title>
<g id="a_node13"><a xlink:title=" ">
<polygon fill="white" stroke="#bfbfbf" points="386.62,-0.5 386.62,-18.5 448.75,-18.5 448.75,-0.5 386.62,-0.5"/>
<text text-anchor="middle" x="417.68" y="-6.5" font-family="Helvetica,sans-Serif" font-size="10.00">type_traits</text>
</a>
</g>
</g>
<!-- Node10&#45;&gt;Node13 -->
<g id="edge12" class="edge">
<title>Node10&#45;&gt;Node13</title>
<path fill="none" stroke="midnightblue" d="M354.08,-55.45C365.64,-47.28 383.78,-34.46 397.73,-24.6"/>
<polygon fill="midnightblue" stroke="midnightblue" points="400.04,-27.25 406.19,-18.63 396,-21.54 400.04,-27.25"/>
</g>
<!-- Node17 -->
<g id="node17" class="node">
<title>Node17</title>
<g id="a_node17"><a xlink:href="../../dc/d91/txtokenlist_8h.html" target="_top" xlink:title=" ">
<polygon fill="white" stroke="black" points="356.28,-330.5 356.28,-348.5 425.09,-348.5 425.09,-330.5 356.28,-330.5"/>
<text text-anchor="middle" x="390.68" y="-336.5" font-family="Helvetica,sans-Serif" font-size="10.00">txtokenlist.h</text>
</a>
</g>
</g>
<!-- Node16&#45;&gt;Node17 -->
<g id="edge16" class="edge">
<title>Node16&#45;&gt;Node17</title>
<path fill="none" stroke="midnightblue" d="M390.68,-385.22C390.68,-378.18 390.68,-367.81 390.68,-358.83"/>
<polygon fill="midnightblue" stroke="midnightblue" points="394.18,-358.55 390.68,-348.55 387.18,-358.55 394.18,-358.55"/>
</g>
<!-- Node17&#45;&gt;Node7 -->
<g id="edge27" class="edge">
<title>Node17&#45;&gt;Node7</title>
<path fill="none" stroke="midnightblue" d="M403.44,-330.45C416.64,-322.12 437.49,-308.97 453.23,-299.04"/>
<polygon fill="midnightblue" stroke="midnightblue" points="455.22,-301.92 461.81,-293.63 451.48,-296 455.22,-301.92"/>
</g>
<!-- Node18 -->
<g id="node18" class="node">
<title>Node18</title>
<g id="a_node18"><a xlink:href="../../d5/daf/_istring_8h.html" target="_top" xlink:title=" ">
<polygon fill="white" stroke="black" points="350.45,-275.5 350.45,-293.5 430.92,-293.5 430.92,-275.5 350.45,-275.5"/>
<text text-anchor="middle" x="390.68" y="-281.5" font-family="Helvetica,sans-Serif" font-size="10.00">tralics/Istring.h</text>
</a>
</g>
</g>
<!-- Node17&#45;&gt;Node18 -->
<g id="edge17" class="edge">
<title>Node17&#45;&gt;Node18</title>
<path fill="none" stroke="midnightblue" d="M390.68,-330.22C390.68,-323.18 390.68,-312.81 390.68,-303.83"/>
<polygon fill="midnightblue" stroke="midnightblue" points="394.18,-303.55 390.68,-293.55 387.18,-303.55 394.18,-303.55"/>
</g>
<!-- Node19 -->
<g id="node19" class="node">
<title>Node19</title>
<g id="a_node19"><a xlink:href="../../dd/dcd/_token_8h.html" target="_top" xlink:title=" ">
<polygon fill="white" stroke="black" points="252.73,-275.5 252.73,-293.5 332.64,-293.5 332.64,-275.5 252.73,-275.5"/>
<text text-anchor="middle" x="292.68" y="-281.5" font-family="Helvetica,sans-Serif" font-size="10.00">tralics/Token.h</text>
</a>
</g>
</g>
<!-- Node17&#45;&gt;Node19 -->
<g id="edge20" class="edge">
<title>Node17&#45;&gt;Node19</title>
<path fill="none" stroke="midnightblue" d="M375.8,-330.45C360.12,-321.97 335.17,-308.48 316.7,-298.49"/>
<polygon fill="midnightblue" stroke="midnightblue" points="318.17,-295.3 307.71,-293.63 314.84,-301.46 318.17,-295.3"/>
</g>
<!-- Node24 -->
<g id="node24" class="node">
<title>Node24</title>
<g id="a_node24"><a xlink:title=" ">
<polygon fill="white" stroke="#bfbfbf" points="556.29,-275.5 556.29,-293.5 595.08,-293.5 595.08,-275.5 556.29,-275.5"/>
<text text-anchor="middle" x="575.68" y="-281.5" font-family="Helvetica,sans-Serif" font-size="10.00">utility</text>
</a>
</g>
</g>
<!-- Node17&#45;&gt;Node24 -->
<g id="edge28" class="edge">
<title>Node17&#45;&gt;Node24</title>
<path fill="none" stroke="midnightblue" d="M418.78,-330.45C453.28,-320.57 511.51,-303.89 546.5,-293.86"/>
<polygon fill="midnightblue" stroke="midnightblue" points="547.49,-297.22 556.14,-291.1 545.56,-290.49 547.49,-297.22"/>
</g>
<!-- Node18&#45;&gt;Node8 -->
<g id="edge18" class="edge">
<title>Node18&#45;&gt;Node8</title>
<path fill="none" stroke="midnightblue" d="M390.61,-275.38C390.45,-258.18 390.08,-217.7 389.85,-193.89"/>
<polygon fill="midnightblue" stroke="midnightblue" points="393.35,-193.68 389.76,-183.71 386.35,-193.74 393.35,-193.68"/>
</g>
<!-- Node18&#45;&gt;Node15 -->
<g id="edge19" class="edge">
<title>Node18&#45;&gt;Node15</title>
<path fill="none" stroke="midnightblue" d="M412.1,-275.45C436.01,-266.46 474.87,-251.86 501.77,-241.74"/>
<polygon fill="midnightblue" stroke="midnightblue" points="503.31,-244.9 511.44,-238.11 500.85,-238.35 503.31,-244.9"/>
</g>
<!-- Node20 -->
<g id="node20" class="node">
<title>Node20</title>
<g id="a_node20"><a xlink:href="../../d2/d68/_cmd_chr_8h.html" target="_top" xlink:title=" ">
<polygon fill="white" stroke="black" points="300.17,-220.5 300.17,-238.5 361.19,-238.5 361.19,-220.5 300.17,-220.5"/>
<text text-anchor="middle" x="330.68" y="-226.5" font-family="Helvetica,sans-Serif" font-size="10.00">CmdChr.h</text>
</a>
</g>
</g>
<!-- Node19&#45;&gt;Node20 -->
<g id="edge21" class="edge">
<title>Node19&#45;&gt;Node20</title>
<path fill="none" stroke="midnightblue" d="M298.62,-275.22C304.06,-267.63 312.28,-256.18 319.03,-246.76"/>
<polygon fill="midnightblue" stroke="midnightblue" points="321.93,-248.72 324.91,-238.55 316.24,-244.64 321.93,-248.72"/>
</g>
<!-- Node23 -->
<g id="node23" class="node">
<title>Node23</title>
<g id="a_node23"><a xlink:title=" ">
<polygon fill="white" stroke="#bfbfbf" points="253.18,-220.5 253.18,-238.5 282.18,-238.5 282.18,-220.5 253.18,-220.5"/>
<text text-anchor="middle" x="267.3" y="-226.5" font-family="Helvetica,sans-Serif" font-size="10.00">list</text>
</a>
</g>
</g>
<!-- Node19&#45;&gt;Node23 -->
<g id="edge26" class="edge">
<title>Node19&#45;&gt;Node23</title>
<path fill="none" stroke="midnightblue" d="M288.78,-275.22C285.31,-267.86 280.13,-256.88 275.77,-247.64"/>
<polygon fill="midnightblue" stroke="midnightblue" points="278.91,-246.1 271.48,-238.55 272.58,-249.09 278.91,-246.1"/>
</g>
<!-- Node20&#45;&gt;Node8 -->
<g id="edge25" class="edge">
<title>Node20&#45;&gt;Node8</title>
<path fill="none" stroke="midnightblue" d="M339.65,-220.45C348.48,-212.51 362.2,-200.19 373.04,-190.45"/>
<polygon fill="midnightblue" stroke="midnightblue" points="375.54,-192.91 380.64,-183.63 370.86,-187.7 375.54,-192.91"/>
</g>
<!-- Node21 -->
<g id="node21" class="node">
<title>Node21</title>
<g id="a_node21"><a xlink:href="../../d8/d47/codepoint_8h.html" target="_top" xlink:title=" ">
<polygon fill="white" stroke="black" points="262.83,-165.5 262.83,-183.5 330.54,-183.5 330.54,-165.5 262.83,-165.5"/>
<text text-anchor="middle" x="296.68" y="-171.5" font-family="Helvetica,sans-Serif" font-size="10.00">codepoint.h</text>
</a>
</g>
</g>
<!-- Node20&#45;&gt;Node21 -->
<g id="edge22" class="edge">
<title>Node20&#45;&gt;Node21</title>
<path fill="none" stroke="midnightblue" d="M325.37,-220.22C320.55,-212.71 313.31,-201.41 307.3,-192.05"/>
<polygon fill="midnightblue" stroke="midnightblue" points="310.19,-190.08 301.85,-183.55 304.3,-193.86 310.19,-190.08"/>
</g>
<!-- Node21&#45;&gt;Node10 -->
<g id="edge23" class="edge">
<title>Node21&#45;&gt;Node10</title>
<path fill="none" stroke="midnightblue" d="M300.14,-165.38C307.57,-147.95 325.18,-106.59 335.26,-82.92"/>
<polygon fill="midnightblue" stroke="midnightblue" points="338.49,-84.28 339.19,-73.71 332.05,-81.54 338.49,-84.28"/>
</g>
<!-- Node21&#45;&gt;Node22 -->
<g id="edge24" class="edge">
<title>Node21&#45;&gt;Node22</title>
<path fill="none" stroke="midnightblue" d="M288.25,-165.22C280.2,-157.32 267.88,-145.22 258.08,-135.61"/>
<polygon fill="midnightblue" stroke="midnightblue" points="260.47,-133.06 250.89,-128.55 255.57,-138.05 260.47,-133.06"/>
</g>
<!-- Node28&#45;&gt;Node5 -->
<g id="edge34" class="edge">
<title>Node28&#45;&gt;Node5</title>
<path fill="none" stroke="midnightblue" d="M319.68,-495.22C319.68,-488.18 319.68,-477.81 319.68,-468.83"/>
<polygon fill="midnightblue" stroke="midnightblue" points="323.18,-468.55 319.68,-458.55 316.18,-468.55 323.18,-468.55"/>
</g>
<!-- Node29&#45;&gt;Node27 -->
<g id="edge36" class="edge">
<title>Node29&#45;&gt;Node27</title>
<path fill="none" stroke="midnightblue" d="M40.51,-605.38C64.8,-587.17 123.91,-542.83 154.55,-519.85"/>
<polygon fill="midnightblue" stroke="midnightblue" points="156.84,-522.51 162.74,-513.71 152.64,-516.91 156.84,-522.51"/>
</g>
<!-- Node30 -->
<g id="node30" class="node">
<title>Node30</title>
<g id="a_node30"><a xlink:title=" ">
<polygon fill="white" stroke="#bfbfbf" points="2.51,-550.5 2.51,-568.5 56.86,-568.5 56.86,-550.5 2.51,-550.5"/>
<text text-anchor="middle" x="29.68" y="-556.5" font-family="Helvetica,sans-Serif" font-size="10.00">iostream</text>
</a>
</g>
</g>
<!-- Node29&#45;&gt;Node30 -->
<g id="edge37" class="edge">
<title>Node29&#45;&gt;Node30</title>
<path fill="none" stroke="midnightblue" d="M29.68,-605.22C29.68,-598.18 29.68,-587.81 29.68,-578.83"/>
<polygon fill="midnightblue" stroke="midnightblue" points="33.18,-578.55 29.68,-568.55 26.18,-578.55 33.18,-578.55"/>
</g>
<!-- Node31&#45;&gt;Node4 -->
<g id="edge39" class="edge">
<title>Node31&#45;&gt;Node4</title>
<path fill="none" stroke="midnightblue" d="M122.57,-605.45C138.25,-596.97 163.2,-583.48 181.67,-573.49"/>
<polygon fill="midnightblue" stroke="midnightblue" points="183.53,-576.46 190.66,-568.63 180.2,-570.3 183.53,-576.46"/>
</g>
<!-- Node32&#45;&gt;Node4 -->
<g id="edge51" class="edge">
<title>Node32&#45;&gt;Node4</title>
<path fill="none" stroke="midnightblue" d="M394.97,-660.4C370.38,-652.5 333.19,-639.44 302.68,-624 274.01,-609.48 243.36,-588.36 224.36,-574.53"/>
<polygon fill="midnightblue" stroke="midnightblue" points="226.39,-571.68 216.26,-568.56 222.24,-577.31 226.39,-571.68"/>
</g>
<!-- Node33 -->
<g id="node33" class="node">
<title>Node33</title>
<g id="a_node33"><a xlink:href="../../d3/d6b/txcond_8h.html" target="_top" xlink:title=" ">
<polygon fill="white" stroke="black" points="511.78,-440.5 511.78,-458.5 565.59,-458.5 565.59,-440.5 511.78,-440.5"/>
<text text-anchor="middle" x="538.68" y="-446.5" font-family="Helvetica,sans-Serif" font-size="10.00">txcond.h</text>
</a>
</g>
</g>
<!-- Node32&#45;&gt;Node33 -->
<g id="edge41" class="edge">
<title>Node32&#45;&gt;Node33</title>
<path fill="none" stroke="midnightblue" d="M451.9,-668.21C484.08,-666.08 533.63,-657.19 557.68,-624 592.18,-576.42 563.5,-501.36 547.57,-467.76"/>
<polygon fill="midnightblue" stroke="midnightblue" points="550.69,-466.16 543.12,-458.74 544.41,-469.25 550.69,-466.16"/>
</g>
<!-- Node34 -->
<g id="node34" class="node">
<title>Node34</title>
<g id="a_node34"><a xlink:href="../../d7/d4d/txfonts_8h.html" target="_top" xlink:title=" ">
<polygon fill="white" stroke="black" points="355.79,-550.5 355.79,-568.5 409.58,-568.5 409.58,-550.5 355.79,-550.5"/>
<text text-anchor="middle" x="382.68" y="-556.5" font-family="Helvetica,sans-Serif" font-size="10.00">txfonts.h</text>
</a>
</g>
</g>
<!-- Node32&#45;&gt;Node34 -->
<g id="edge43" class="edge">
<title>Node32&#45;&gt;Node34</title>
<path fill="none" stroke="midnightblue" d="M418.75,-660.38C412.49,-643.03 397.66,-601.96 389.09,-578.24"/>
<polygon fill="midnightblue" stroke="midnightblue" points="392.34,-576.93 385.65,-568.71 385.75,-579.31 392.34,-576.93"/>
</g>
<!-- Node35 -->
<g id="node35" class="node">
<title>Node35</title>
<g id="a_node35"><a xlink:href="../../d7/d7e/txhash_8h.html" target="_top" xlink:title=" ">
<polygon fill="white" stroke="black" points="311.78,-605.5 311.78,-623.5 365.59,-623.5 365.59,-605.5 311.78,-605.5"/>
<text text-anchor="middle" x="338.68" y="-611.5" font-family="Helvetica,sans-Serif" font-size="10.00">txhash.h</text>
</a>
</g>
</g>
<!-- Node32&#45;&gt;Node35 -->
<g id="edge45" class="edge">
<title>Node32&#45;&gt;Node35</title>
<path fill="none" stroke="midnightblue" d="M409.08,-660.45C396.04,-652.12 375.44,-638.97 359.89,-629.04"/>
<polygon fill="midnightblue" stroke="midnightblue" points="361.72,-626.06 351.41,-623.63 357.95,-631.96 361.72,-626.06"/>
</g>
<!-- Node37 -->
<g id="node37" class="node">
<title>Node37</title>
<g id="a_node37"><a xlink:href="../../de/d7c/tximage_8h.html" target="_top" xlink:title=" ">
<polygon fill="white" stroke="black" points="585.01,-330.5 585.01,-348.5 644.36,-348.5 644.36,-330.5 585.01,-330.5"/>
<text text-anchor="middle" x="614.68" y="-336.5" font-family="Helvetica,sans-Serif" font-size="10.00">tximage.h</text>
</a>
</g>
</g>
<!-- Node32&#45;&gt;Node37 -->
<g id="edge48" class="edge">
<title>Node32&#45;&gt;Node37</title>
<path fill="none" stroke="midnightblue" d="M451.84,-665.45C506.12,-658.11 614.68,-634.22 614.68,-560.5 614.68,-560.5 614.68,-560.5 614.68,-448.5 614.68,-417.02 614.68,-380.37 614.68,-358.88"/>
<polygon fill="midnightblue" stroke="midnightblue" points="618.18,-358.63 614.68,-348.63 611.18,-358.63 618.18,-358.63"/>
</g>
<!-- Node38 -->
<g id="node38" class="node">
<title>Node38</title>
<g id="a_node38"><a xlink:href="../../dc/d65/txstack_8h.html" target="_top" xlink:title=" ">
<polygon fill="white" stroke="black" points="421.96,-605.5 421.96,-623.5 477.41,-623.5 477.41,-605.5 421.96,-605.5"/>
<text text-anchor="middle" x="449.68" y="-611.5" font-family="Helvetica,sans-Serif" font-size="10.00">txstack.h</text>
</a>
</g>
</g>
<!-- Node32&#45;&gt;Node38 -->
<g id="edge52" class="edge">
<title>Node32&#45;&gt;Node38</title>
<path fill="none" stroke="midnightblue" d="M426.06,-660.22C429.95,-652.86 435.75,-641.88 440.63,-632.64"/>
<polygon fill="midnightblue" stroke="midnightblue" points="443.86,-634.03 445.43,-623.55 437.67,-630.76 443.86,-634.03"/>
</g>
<!-- Node41 -->
<g id="node41" class="node">
<title>Node41</title>
<g id="a_node41"><a xlink:href="../../d8/d3d/txstats_8h.html" target="_top" xlink:title=" ">
<polygon fill="white" stroke="black" points="495.07,-605.5 495.07,-623.5 548.3,-623.5 548.3,-605.5 495.07,-605.5"/>
<text text-anchor="middle" x="521.68" y="-611.5" font-family="Helvetica,sans-Serif" font-size="10.00">txstats.h</text>
</a>
</g>
</g>
<!-- Node32&#45;&gt;Node41 -->
<g id="edge56" class="edge">
<title>Node32&#45;&gt;Node41</title>
<path fill="none" stroke="midnightblue" d="M436.87,-660.45C452.95,-651.93 478.57,-638.35 497.44,-628.35"/>
<polygon fill="midnightblue" stroke="midnightblue" points="499.16,-631.4 506.35,-623.63 495.88,-625.22 499.16,-631.4"/>
</g>
<!-- Node33&#45;&gt;Node26 -->
<g id="edge42" class="edge">
<title>Node33&#45;&gt;Node26</title>
<path fill="none" stroke="midnightblue" d="M536.03,-440.22C533.72,-433.02 530.3,-422.35 527.37,-413.23"/>
<polygon fill="midnightblue" stroke="midnightblue" points="530.65,-412 524.27,-403.55 523.99,-414.14 530.65,-412"/>
</g>
<!-- Node34&#45;&gt;Node28 -->
<g id="edge44" class="edge">
<title>Node34&#45;&gt;Node28</title>
<path fill="none" stroke="midnightblue" d="M373.12,-550.45C363.59,-542.43 348.74,-529.95 337.12,-520.17"/>
<polygon fill="midnightblue" stroke="midnightblue" points="339.25,-517.38 329.34,-513.63 334.74,-522.74 339.25,-517.38"/>
</g>
<!-- Node36 -->
<g id="node36" class="node">
<title>Node36</title>
<g id="a_node36"><a xlink:href="../../d3/d01/txeqtb_8h.html" target="_top" xlink:title=" ">
<polygon fill="white" stroke="black" points="285.89,-550.5 285.89,-568.5 337.48,-568.5 337.48,-550.5 285.89,-550.5"/>
<text text-anchor="middle" x="311.68" y="-556.5" font-family="Helvetica,sans-Serif" font-size="10.00">txeqtb.h</text>
</a>
</g>
</g>
<!-- Node35&#45;&gt;Node36 -->
<g id="edge46" class="edge">
<title>Node35&#45;&gt;Node36</title>
<path fill="none" stroke="midnightblue" d="M334.47,-605.22C330.72,-597.86 325.12,-586.88 320.42,-577.64"/>
<polygon fill="midnightblue" stroke="midnightblue" points="323.44,-575.87 315.79,-568.55 317.21,-579.05 323.44,-575.87"/>
</g>
<!-- Node36&#45;&gt;Node28 -->
<g id="edge47" class="edge">
<title>Node36&#45;&gt;Node28</title>
<path fill="none" stroke="midnightblue" d="M312.93,-550.22C314.01,-543.1 315.6,-532.58 316.96,-523.53"/>
<polygon fill="midnightblue" stroke="midnightblue" points="320.44,-523.96 318.47,-513.55 313.52,-522.92 320.44,-523.96"/>
</g>
<!-- Node37&#45;&gt;Node15 -->
<g id="edge49" class="edge">
<title>Node37&#45;&gt;Node15</title>
<path fill="none" stroke="midnightblue" d="M615.3,-330.3C615.85,-317.4 615.21,-292.06 603.68,-275 593.56,-260.02 576.53,-249.16 561.58,-241.92"/>
<polygon fill="midnightblue" stroke="midnightblue" points="562.7,-238.59 552.15,-237.68 559.83,-244.97 562.7,-238.59"/>
</g>
<!-- Node37&#45;&gt;Node24 -->
<g id="edge50" class="edge">
<title>Node37&#45;&gt;Node24</title>
<path fill="none" stroke="midnightblue" d="M608.59,-330.22C603.01,-322.63 594.58,-311.18 587.65,-301.76"/>
<polygon fill="midnightblue" stroke="midnightblue" points="590.35,-299.53 581.61,-293.55 584.72,-303.68 590.35,-299.53"/>
</g>
<!-- Node39 -->
<g id="node39" class="node">
<title>Node39</title>
<g id="a_node39"><a xlink:href="../../d4/da4/txatt_8h.html" target="_top" xlink:title=" ">
<polygon fill="white" stroke="black" points="428.07,-550.5 428.07,-568.5 471.3,-568.5 471.3,-550.5 428.07,-550.5"/>
<text text-anchor="middle" x="449.68" y="-556.5" font-family="Helvetica,sans-Serif" font-size="10.00">txatt.h</text>
</a>
</g>
</g>
<!-- Node38&#45;&gt;Node39 -->
<g id="edge53" class="edge">
<title>Node38&#45;&gt;Node39</title>
<path fill="none" stroke="midnightblue" d="M449.68,-605.22C449.68,-598.18 449.68,-587.81 449.68,-578.83"/>
<polygon fill="midnightblue" stroke="midnightblue" points="453.18,-578.55 449.68,-568.55 446.18,-578.55 453.18,-578.55"/>
</g>
<!-- Node40 -->
<g id="node40" class="node">
<title>Node40</title>
<g id="a_node40"><a xlink:href="../../d1/d43/txxml_8h.html" target="_top" xlink:title=" ">
<polygon fill="white" stroke="black" points="488.85,-550.5 488.85,-568.5 536.52,-568.5 536.52,-550.5 488.85,-550.5"/>
<text text-anchor="middle" x="512.68" y="-556.5" font-family="Helvetica,sans-Serif" font-size="10.00">txxml.h</text>
</a>
</g>
</g>
<!-- Node38&#45;&gt;Node40 -->
<g id="edge55" class="edge">
<title>Node38&#45;&gt;Node40</title>
<path fill="none" stroke="midnightblue" d="M459.25,-605.45C468.78,-597.43 483.62,-584.95 495.25,-575.17"/>
<polygon fill="midnightblue" stroke="midnightblue" points="497.63,-577.74 503.03,-568.63 493.12,-572.38 497.63,-577.74"/>
</g>
<!-- Node39&#45;&gt;Node28 -->
<g id="edge54" class="edge">
<title>Node39&#45;&gt;Node28</title>
<path fill="none" stroke="midnightblue" d="M429.94,-550.45C408.37,-541.66 373.6,-527.48 348.87,-517.4"/>
<polygon fill="midnightblue" stroke="midnightblue" points="350.2,-514.16 339.61,-513.63 347.55,-520.64 350.2,-514.16"/>
</g>
</g>
</svg>
