<?xml version="1.0" encoding="UTF-8" standalone="no"?>
<!DOCTYPE svg PUBLIC "-//W3C//DTD SVG 1.1//EN"
 "http://www.w3.org/Graphics/SVG/1.1/DTD/svg11.dtd">
<!-- Generated by graphviz version 2.43.0 (0)
 -->
<!-- Title: ClassesData Pages: 1 -->
<svg width="393pt" height="327pt"
 viewBox="0.00 0.00 392.78 327.00" xmlns="http://www.w3.org/2000/svg" xmlns:xlink="http://www.w3.org/1999/xlink">
<g id="graph0" class="graph" transform="scale(1 1) rotate(0) translate(4 323)">
<title>ClassesData</title>
<polygon fill="white" stroke="transparent" points="-4,4 -4,-323 388.78,-323 388.78,4 -4,4"/>
<!-- Node1 -->
<g id="node1" class="node">
<title>Node1</title>
<g id="a_node1"><a xlink:title=" ">
<polygon fill="#bfbfbf" stroke="black" points="130.71,-0.5 130.71,-18.5 203.4,-18.5 203.4,-0.5 130.71,-0.5"/>
<text text-anchor="middle" x="167.05" y="-6.5" font-family="Helvetica,sans-Serif" font-size="10.00">ClassesData</text>
</a>
</g>
</g>
<!-- Node2 -->
<g id="node2" class="node">
<title>Node2</title>
<g id="a_node2"><a xlink:title=" ">
<polygon fill="white" stroke="#bfbfbf" points="92.35,-65.5 92.35,-83.5 241.76,-83.5 241.76,-65.5 92.35,-65.5"/>
<text text-anchor="middle" x="167.05" y="-71.5" font-family="Helvetica,sans-Serif" font-size="10.00">std::vector&lt; LatexPackage * &gt;</text>
</a>
</g>
</g>
<!-- Node2&#45;&gt;Node1 -->
<g id="edge1" class="edge">
<title>Node2&#45;&gt;Node1</title>
<path fill="none" stroke="#9a32cd" stroke-dasharray="5,2" d="M167.05,-54.91C167.05,-42.81 167.05,-27.65 167.05,-18.54"/>
<polygon fill="#9a32cd" stroke="#9a32cd" points="163.55,-55.26 167.05,-65.26 170.55,-55.26 163.55,-55.26"/>
<text text-anchor="middle" x="189.85" y="-39" font-family="Helvetica,sans-Serif" font-size="10.00"> packages</text>
</g>
<!-- Node3 -->
<g id="node3" class="node">
<title>Node3</title>
<g id="a_node3"><a xlink:href="../../d5/dc4/class_latex_package.html" target="_top" xlink:title=" ">
<polygon fill="white" stroke="black" points="125.36,-140.5 125.36,-158.5 204.74,-158.5 204.74,-140.5 125.36,-140.5"/>
<text text-anchor="middle" x="165.05" y="-146.5" font-family="Helvetica,sans-Serif" font-size="10.00">LatexPackage</text>
</a>
</g>
</g>
<!-- Node3&#45;&gt;Node2 -->
<g id="edge2" class="edge">
<title>Node3&#45;&gt;Node2</title>
<path fill="none" stroke="#9a32cd" stroke-dasharray="5,2" d="M165.55,-130.35C165.96,-115.48 166.51,-95.12 166.82,-83.85"/>
<polygon fill="#9a32cd" stroke="#9a32cd" points="162.05,-130.32 165.27,-140.41 169.05,-130.51 162.05,-130.32"/>
<text text-anchor="middle" x="188.73" y="-109" font-family="Helvetica,sans-Serif" font-size="10.00"> elements</text>
</g>
<!-- Node4 -->
<g id="node4" class="node">
<title>Node4</title>
<g id="a_node4"><a xlink:title=" ">
<polygon fill="white" stroke="#bfbfbf" points="0,-225.5 0,-243.5 128.1,-243.5 128.1,-225.5 0,-225.5"/>
<text text-anchor="middle" x="64.05" y="-231.5" font-family="Helvetica,sans-Serif" font-size="10.00">std::vector&lt; KeyAndVal &gt;</text>
</a>
</g>
</g>
<!-- Node4&#45;&gt;Node1 -->
<g id="edge9" class="edge">
<title>Node4&#45;&gt;Node1</title>
<path fill="none" stroke="#9a32cd" stroke-dasharray="5,2" d="M61.31,-215.01C57.41,-182.13 53.68,-112.5 83.05,-65 97.22,-42.08 125.03,-26.94 144.76,-18.55"/>
<polygon fill="#9a32cd" stroke="#9a32cd" points="57.89,-215.9 62.69,-225.35 64.83,-214.97 57.89,-215.9"/>
<text text-anchor="middle" x="103.36" y="-114" font-family="Helvetica,sans-Serif" font-size="10.00"> global_options</text>
<text text-anchor="middle" x="103.36" y="-104" font-family="Helvetica,sans-Serif" font-size="10.00">unused_options</text>
</g>
<!-- Node4&#45;&gt;Node3 -->
<g id="edge3" class="edge">
<title>Node4&#45;&gt;Node3</title>
<path fill="none" stroke="#9a32cd" stroke-dasharray="5,2" d="M76.9,-217.6C87.15,-205.54 102.32,-189.03 117.81,-177 127.01,-169.84 138.39,-163.4 147.67,-158.66"/>
<polygon fill="#9a32cd" stroke="#9a32cd" points="74.06,-215.54 70.36,-225.47 79.44,-220.01 74.06,-215.54"/>
<text text-anchor="middle" x="139.18" y="-194" font-family="Helvetica,sans-Serif" font-size="10.00"> Uoptions</text>
<text text-anchor="middle" x="139.18" y="-184" font-family="Helvetica,sans-Serif" font-size="10.00">Poptions</text>
</g>
<!-- Node5 -->
<g id="node5" class="node">
<title>Node5</title>
<g id="a_node5"><a xlink:href="../../d9/de8/class_key_and_val.html" target="_top" xlink:title=" ">
<polygon fill="white" stroke="black" points="31.68,-295.5 31.68,-313.5 96.42,-313.5 96.42,-295.5 31.68,-295.5"/>
<text text-anchor="middle" x="64.05" y="-301.5" font-family="Helvetica,sans-Serif" font-size="10.00">KeyAndVal</text>
</a>
</g>
</g>
<!-- Node5&#45;&gt;Node4 -->
<g id="edge4" class="edge">
<title>Node5&#45;&gt;Node4</title>
<path fill="none" stroke="#9a32cd" stroke-dasharray="5,2" d="M64.05,-285.3C64.05,-271.7 64.05,-253.78 64.05,-243.56"/>
<polygon fill="#9a32cd" stroke="#9a32cd" points="60.55,-285.43 64.05,-295.43 67.55,-285.43 60.55,-285.43"/>
<text text-anchor="middle" x="85.73" y="-264" font-family="Helvetica,sans-Serif" font-size="10.00"> elements</text>
</g>
<!-- Node6 -->
<g id="node6" class="node">
<title>Node6</title>
<g id="a_node6"><a xlink:title="STL class.">
<polygon fill="white" stroke="#bfbfbf" points="146.38,-225.5 146.38,-243.5 205.73,-243.5 205.73,-225.5 146.38,-225.5"/>
<text text-anchor="middle" x="176.05" y="-231.5" font-family="Helvetica,sans-Serif" font-size="10.00">std::string</text>
</a>
</g>
</g>
<!-- Node6&#45;&gt;Node3 -->
<g id="edge5" class="edge">
<title>Node6&#45;&gt;Node3</title>
<path fill="none" stroke="#9a32cd" stroke-dasharray="5,2" d="M168.3,-216.07C167.28,-213.09 166.38,-210 165.8,-207 162.52,-190.05 163.39,-169.7 164.26,-158.64"/>
<polygon fill="#9a32cd" stroke="#9a32cd" points="165.07,-217.39 172.04,-225.37 171.56,-214.79 165.07,-217.39"/>
<text text-anchor="middle" x="187.18" y="-199" font-family="Helvetica,sans-Serif" font-size="10.00"> req_date</text>
<text text-anchor="middle" x="187.18" y="-189" font-family="Helvetica,sans-Serif" font-size="10.00">name</text>
<text text-anchor="middle" x="187.18" y="-179" font-family="Helvetica,sans-Serif" font-size="10.00">date</text>
</g>
<!-- Node7 -->
<g id="node7" class="node">
<title>Node7</title>
<g id="a_node7"><a xlink:title="STL class.">
<polygon fill="white" stroke="#bfbfbf" points="129,-290.5 129,-318.5 223.1,-318.5 223.1,-290.5 129,-290.5"/>
<text text-anchor="start" x="137" y="-306.5" font-family="Helvetica,sans-Serif" font-size="10.00">std::basic_string&lt;</text>
<text text-anchor="middle" x="176.05" y="-296.5" font-family="Helvetica,sans-Serif" font-size="10.00"> char &gt;</text>
</a>
</g>
</g>
<!-- Node7&#45;&gt;Node6 -->
<g id="edge6" class="edge">
<title>Node7&#45;&gt;Node6</title>
<path fill="none" stroke="midnightblue" d="M176.05,-280.1C176.05,-267.55 176.05,-252.85 176.05,-243.86"/>
<polygon fill="midnightblue" stroke="midnightblue" points="172.55,-280.39 176.05,-290.39 179.55,-280.39 172.55,-280.39"/>
</g>
<!-- Node8 -->
<g id="node8" class="node">
<title>Node8</title>
<g id="a_node8"><a xlink:title=" ">
<polygon fill="white" stroke="#bfbfbf" points="245.62,-225.5 245.62,-243.5 336.48,-243.5 336.48,-225.5 245.62,-225.5"/>
<text text-anchor="middle" x="291.05" y="-231.5" font-family="Helvetica,sans-Serif" font-size="10.00">std::list&lt; Token &gt;</text>
</a>
</g>
</g>
<!-- Node8&#45;&gt;Node1 -->
<g id="edge10" class="edge">
<title>Node8&#45;&gt;Node1</title>
<path fill="none" stroke="#9a32cd" stroke-dasharray="5,2" d="M300.15,-216.17C301.35,-213.18 302.39,-210.05 303.05,-207 305.87,-193.97 305.93,-190.02 303.05,-177 291.22,-123.41 284.63,-108.41 251.05,-65 234.14,-43.14 205.83,-27.41 186.81,-18.63"/>
<polygon fill="#9a32cd" stroke="#9a32cd" points="296.87,-214.92 295.78,-225.46 303.2,-217.9 296.87,-214.92"/>
<text text-anchor="middle" x="336.41" y="-109" font-family="Helvetica,sans-Serif" font-size="10.00"> documentclass_hook</text>
</g>
<!-- Node8&#45;&gt;Node3 -->
<g id="edge7" class="edge">
<title>Node8&#45;&gt;Node3</title>
<path fill="none" stroke="#9a32cd" stroke-dasharray="5,2" d="M256.47,-221.6C247.78,-217.71 238.81,-212.85 231.33,-207 218.04,-196.6 220.61,-188.27 208.05,-177 199.96,-169.74 189.62,-163.29 181.11,-158.58"/>
<polygon fill="#9a32cd" stroke="#9a32cd" points="255.13,-224.84 265.71,-225.44 257.82,-218.37 255.13,-224.84"/>
<text text-anchor="middle" x="267.91" y="-194" font-family="Helvetica,sans-Serif" font-size="10.00"> default_handler</text>
<text text-anchor="middle" x="267.91" y="-184" font-family="Helvetica,sans-Serif" font-size="10.00">hook</text>
</g>
<!-- Node9 -->
<g id="node9" class="node">
<title>Node9</title>
<g id="a_node9"><a xlink:href="../../d9/d27/struct_token.html" target="_top" xlink:title=" ">
<polygon fill="white" stroke="black" points="269.71,-295.5 269.71,-313.5 312.39,-313.5 312.39,-295.5 269.71,-295.5"/>
<text text-anchor="middle" x="291.05" y="-301.5" font-family="Helvetica,sans-Serif" font-size="10.00">Token</text>
</a>
</g>
</g>
<!-- Node9&#45;&gt;Node8 -->
<g id="edge8" class="edge">
<title>Node9&#45;&gt;Node8</title>
<path fill="none" stroke="#9a32cd" stroke-dasharray="5,2" d="M291.05,-285.3C291.05,-271.7 291.05,-253.78 291.05,-243.56"/>
<polygon fill="#9a32cd" stroke="#9a32cd" points="287.55,-285.43 291.05,-295.43 294.55,-285.43 287.55,-285.43"/>
<text text-anchor="middle" x="312.73" y="-264" font-family="Helvetica,sans-Serif" font-size="10.00"> elements</text>
</g>
</g>
</svg>
