<?xml version="1.0" encoding="UTF-8" standalone="no"?>
<!DOCTYPE svg PUBLIC "-//W3C//DTD SVG 1.1//EN"
 "http://www.w3.org/Graphics/SVG/1.1/DTD/svg11.dtd">
<!-- Generated by graphviz version 2.42.3 (20191010.1750)
 -->
<!-- Title: txtitlepage.cpp Pages: 1 -->
<svg width="689pt" height="852pt"
 viewBox="0.00 0.00 689.46 852.00" xmlns="http://www.w3.org/2000/svg" xmlns:xlink="http://www.w3.org/1999/xlink">
<g id="graph0" class="graph" transform="scale(1 1) rotate(0) translate(4 848)">
<title>txtitlepage.cpp</title>
<!-- Node1 -->
<g id="node1" class="node">
<title>Node1</title>
<g id="a_node1"><a xlink:title=" ">
<polygon fill="#bfbfbf" stroke="black" points="411.76,-825.5 411.76,-843.5 492.24,-843.5 492.24,-825.5 411.76,-825.5"/>
<text text-anchor="middle" x="452" y="-831.5" font-family="Helvetica,sans-Serif" font-size="10.00">txtitlepage.cpp</text>
</a>
</g>
</g>
<!-- Node2 -->
<g id="node2" class="node">
<title>Node2</title>
<g id="a_node2"><a xlink:href="../../d5/d7f/txtitlepage_8h.html" target="_top" xlink:title=" ">
<polygon fill="none" stroke="black" points="362.04,-660.5 362.04,-678.5 431.96,-678.5 431.96,-660.5 362.04,-660.5"/>
<text text-anchor="middle" x="397" y="-666.5" font-family="Helvetica,sans-Serif" font-size="10.00">txtitlepage.h</text>
</a>
</g>
</g>
<!-- Node1&#45;&gt;Node2 -->
<g id="edge1" class="edge">
<title>Node1&#45;&gt;Node2</title>
<path fill="none" stroke="midnightblue" d="M452.11,-825.33C452.08,-805.51 450.23,-753.63 433,-715 428.25,-704.36 420.3,-694.13 413.08,-686.17"/>
<polygon fill="midnightblue" stroke="midnightblue" points="415.43,-683.56 405.98,-678.77 410.37,-688.41 415.43,-683.56"/>
</g>
<!-- Node27 -->
<g id="node27" class="node">
<title>Node27</title>
<g id="a_node27"><a xlink:href="../../de/d40/_parser_8h.html" target="_top" xlink:title=" ">
<polygon fill="none" stroke="black" points="164.93,-770.5 164.93,-788.5 247.07,-788.5 247.07,-770.5 164.93,-770.5"/>
<text text-anchor="middle" x="206" y="-776.5" font-family="Helvetica,sans-Serif" font-size="10.00">tralics/Parser.h</text>
</a>
</g>
</g>
<!-- Node1&#45;&gt;Node27 -->
<g id="edge30" class="edge">
<title>Node1&#45;&gt;Node27</title>
<path fill="none" stroke="midnightblue" d="M414.64,-825.45C371.44,-816.14 300.25,-800.81 253.25,-790.68"/>
<polygon fill="midnightblue" stroke="midnightblue" points="253.82,-787.22 243.31,-788.54 252.35,-794.07 253.82,-787.22"/>
</g>
<!-- Node47 -->
<g id="node47" class="node">
<title>Node47</title>
<g id="a_node47"><a xlink:href="../../d5/d87/globals_8h.html" target="_top" xlink:title=" ">
<polygon fill="none" stroke="black" points="596.54,-330.5 596.54,-348.5 681.46,-348.5 681.46,-330.5 596.54,-330.5"/>
<text text-anchor="middle" x="639" y="-336.5" font-family="Helvetica,sans-Serif" font-size="10.00">tralics/globals.h</text>
</a>
</g>
</g>
<!-- Node1&#45;&gt;Node47 -->
<g id="edge66" class="edge">
<title>Node1&#45;&gt;Node47</title>
<path fill="none" stroke="midnightblue" d="M492.34,-829.37C549.98,-820.99 649,-796.29 649,-725.5 649,-725.5 649,-725.5 649,-448.5 649,-416.74 644.66,-379.94 641.7,-358.54"/>
<polygon fill="midnightblue" stroke="midnightblue" points="645.16,-358 640.27,-348.61 638.23,-359 645.16,-358"/>
</g>
<!-- Node3 -->
<g id="node3" class="node">
<title>Node3</title>
<g id="a_node3"><a xlink:href="../../d9/d1c/_xml_8h.html" target="_top" xlink:title=" ">
<polygon fill="none" stroke="black" points="216.77,-495.5 216.77,-513.5 287.23,-513.5 287.23,-495.5 216.77,-495.5"/>
<text text-anchor="middle" x="252" y="-501.5" font-family="Helvetica,sans-Serif" font-size="10.00">tralics/Xml.h</text>
</a>
</g>
</g>
<!-- Node2&#45;&gt;Node3 -->
<g id="edge2" class="edge">
<title>Node2&#45;&gt;Node3</title>
<path fill="none" stroke="midnightblue" d="M389.61,-660.19C366.63,-634.36 296.14,-555.12 265.96,-521.19"/>
<polygon fill="midnightblue" stroke="midnightblue" points="268.46,-518.74 259.2,-513.6 263.23,-523.39 268.46,-518.74"/>
</g>
<!-- Node4 -->
<g id="node4" class="node">
<title>Node4</title>
<g id="a_node4"><a xlink:href="../../d7/d1b/_buffer_8h.html" target="_top" xlink:title=" ">
<polygon fill="none" stroke="black" points="341.85,-440.5 341.85,-458.5 392.15,-458.5 392.15,-440.5 341.85,-440.5"/>
<text text-anchor="middle" x="367" y="-446.5" font-family="Helvetica,sans-Serif" font-size="10.00">Buffer.h</text>
</a>
</g>
</g>
<!-- Node3&#45;&gt;Node4 -->
<g id="edge3" class="edge">
<title>Node3&#45;&gt;Node4</title>
<path fill="none" stroke="midnightblue" d="M269.47,-495.45C288.21,-486.81 318.22,-472.98 340.01,-462.94"/>
<polygon fill="midnightblue" stroke="midnightblue" points="341.75,-465.99 349.37,-458.63 338.82,-459.63 341.75,-465.99"/>
</g>
<!-- Node26 -->
<g id="node26" class="node">
<title>Node26</title>
<g id="a_node26"><a xlink:title=" ">
<polygon fill="none" stroke="#bfbfbf" points="201.83,-440.5 201.83,-458.5 246.17,-458.5 246.17,-440.5 201.83,-440.5"/>
<text text-anchor="middle" x="224" y="-446.5" font-family="Helvetica,sans-Serif" font-size="10.00">gsl/gsl</text>
</a>
</g>
</g>
<!-- Node3&#45;&gt;Node26 -->
<g id="edge29" class="edge">
<title>Node3&#45;&gt;Node26</title>
<path fill="none" stroke="midnightblue" d="M247.62,-495.22C243.74,-487.86 237.94,-476.88 233.05,-467.64"/>
<polygon fill="midnightblue" stroke="midnightblue" points="236.02,-465.76 228.25,-458.55 229.83,-469.03 236.02,-465.76"/>
</g>
<!-- Node5 -->
<g id="node5" class="node">
<title>Node5</title>
<g id="a_node5"><a xlink:href="../../d1/d9e/txid_8h.html" target="_top" xlink:title=" ">
<polygon fill="none" stroke="black" points="277.88,-385.5 277.88,-403.5 326.12,-403.5 326.12,-385.5 277.88,-385.5"/>
<text text-anchor="middle" x="302" y="-391.5" font-family="Helvetica,sans-Serif" font-size="10.00">../txid.h</text>
</a>
</g>
</g>
<!-- Node4&#45;&gt;Node5 -->
<g id="edge4" class="edge">
<title>Node4&#45;&gt;Node5</title>
<path fill="none" stroke="midnightblue" d="M357.13,-440.45C347.3,-432.43 331.98,-419.95 319.99,-410.17"/>
<polygon fill="midnightblue" stroke="midnightblue" points="321.93,-407.23 311.97,-403.63 317.5,-412.66 321.93,-407.23"/>
</g>
<!-- Node15 -->
<g id="node15" class="node">
<title>Node15</title>
<g id="a_node15"><a xlink:href="../../d9/d18/txscaled_8h.html" target="_top" xlink:title=" ">
<polygon fill="none" stroke="black" points="190.32,-385.5 190.32,-403.5 259.68,-403.5 259.68,-385.5 190.32,-385.5"/>
<text text-anchor="middle" x="225" y="-391.5" font-family="Helvetica,sans-Serif" font-size="10.00">../txscaled.h</text>
</a>
</g>
</g>
<!-- Node4&#45;&gt;Node15 -->
<g id="edge14" class="edge">
<title>Node4&#45;&gt;Node15</title>
<path fill="none" stroke="midnightblue" d="M345.43,-440.45C321.66,-431.58 283.22,-417.23 256.17,-407.13"/>
<polygon fill="midnightblue" stroke="midnightblue" points="257.36,-403.84 246.77,-403.63 254.91,-410.4 257.36,-403.84"/>
</g>
<!-- Node23 -->
<g id="node23" class="node">
<title>Node23</title>
<g id="a_node23"><a xlink:title=" ">
<polygon fill="none" stroke="#bfbfbf" points="344.27,-385.5 344.27,-403.5 389.73,-403.5 389.73,-385.5 344.27,-385.5"/>
<text text-anchor="middle" x="367" y="-391.5" font-family="Helvetica,sans-Serif" font-size="10.00">cstring</text>
</a>
</g>
</g>
<!-- Node4&#45;&gt;Node23 -->
<g id="edge26" class="edge">
<title>Node4&#45;&gt;Node23</title>
<path fill="none" stroke="midnightblue" d="M367,-440.22C367,-433.18 367,-422.81 367,-413.83"/>
<polygon fill="midnightblue" stroke="midnightblue" points="370.5,-413.55 367,-403.55 363.5,-413.55 370.5,-413.55"/>
</g>
<!-- Node24 -->
<g id="node24" class="node">
<title>Node24</title>
<g id="a_node24"><a xlink:title=" ">
<polygon fill="none" stroke="#bfbfbf" points="407.83,-385.5 407.83,-403.5 462.17,-403.5 462.17,-385.5 407.83,-385.5"/>
<text text-anchor="middle" x="435" y="-391.5" font-family="Helvetica,sans-Serif" font-size="10.00">iostream</text>
</a>
</g>
</g>
<!-- Node4&#45;&gt;Node24 -->
<g id="edge27" class="edge">
<title>Node4&#45;&gt;Node24</title>
<path fill="none" stroke="midnightblue" d="M377.33,-440.45C387.71,-432.36 403.95,-419.7 416.55,-409.88"/>
<polygon fill="midnightblue" stroke="midnightblue" points="418.84,-412.53 424.58,-403.63 414.54,-407.01 418.84,-412.53"/>
</g>
<!-- Node25 -->
<g id="node25" class="node">
<title>Node25</title>
<g id="a_node25"><a xlink:title=" ">
<polygon fill="none" stroke="#bfbfbf" points="467.38,-275.5 467.38,-293.5 510.62,-293.5 510.62,-275.5 467.38,-275.5"/>
<text text-anchor="middle" x="489" y="-281.5" font-family="Helvetica,sans-Serif" font-size="10.00">vector</text>
</a>
</g>
</g>
<!-- Node4&#45;&gt;Node25 -->
<g id="edge28" class="edge">
<title>Node4&#45;&gt;Node25</title>
<path fill="none" stroke="midnightblue" d="M392.33,-440.81C419.76,-431.95 460.96,-416.97 471,-404 493.64,-374.74 493.52,-328.98 491.33,-303.74"/>
<polygon fill="midnightblue" stroke="midnightblue" points="494.8,-303.29 490.25,-293.72 487.84,-304.04 494.8,-303.29"/>
</g>
<!-- Node6 -->
<g id="node6" class="node">
<title>Node6</title>
<g id="a_node6"><a xlink:href="../../d5/daf/_istring_8h.html" target="_top" xlink:title=" ">
<polygon fill="none" stroke="black" points="265.77,-275.5 265.77,-293.5 346.23,-293.5 346.23,-275.5 265.77,-275.5"/>
<text text-anchor="middle" x="306" y="-281.5" font-family="Helvetica,sans-Serif" font-size="10.00">tralics/Istring.h</text>
</a>
</g>
</g>
<!-- Node5&#45;&gt;Node6 -->
<g id="edge5" class="edge">
<title>Node5&#45;&gt;Node6</title>
<path fill="none" stroke="midnightblue" d="M311.23,-385.38C319.78,-377.19 331.92,-363.68 337,-349 342.8,-332.23 332.16,-314.14 321.79,-301.58"/>
<polygon fill="midnightblue" stroke="midnightblue" points="324.15,-298.96 314.87,-293.85 318.93,-303.63 324.15,-298.96"/>
</g>
<!-- Node7 -->
<g id="node7" class="node">
<title>Node7</title>
<g id="a_node7"><a xlink:href="../../d0/d0b/enums_8h.html" target="_top" xlink:title=" ">
<polygon fill="none" stroke="black" points="339.82,-165.5 339.82,-183.5 394.18,-183.5 394.18,-165.5 339.82,-165.5"/>
<text text-anchor="middle" x="367" y="-171.5" font-family="Helvetica,sans-Serif" font-size="10.00">enums.h</text>
</a>
</g>
</g>
<!-- Node6&#45;&gt;Node7 -->
<g id="edge6" class="edge">
<title>Node6&#45;&gt;Node7</title>
<path fill="none" stroke="midnightblue" d="M307.22,-275.2C309.34,-262.58 314.53,-238.14 325,-220 331.36,-208.98 340.96,-198.54 349.37,-190.54"/>
<polygon fill="midnightblue" stroke="midnightblue" points="351.88,-192.99 356.94,-183.68 347.18,-187.81 351.88,-192.99"/>
</g>
<!-- Node13 -->
<g id="node13" class="node">
<title>Node13</title>
<g id="a_node13"><a xlink:title=" ">
<polygon fill="none" stroke="#bfbfbf" points="333.61,-220.5 333.61,-238.5 372.39,-238.5 372.39,-220.5 333.61,-220.5"/>
<text text-anchor="middle" x="353" y="-226.5" font-family="Helvetica,sans-Serif" font-size="10.00">array</text>
</a>
</g>
</g>
<!-- Node6&#45;&gt;Node13 -->
<g id="edge12" class="edge">
<title>Node6&#45;&gt;Node13</title>
<path fill="none" stroke="midnightblue" d="M313.34,-275.22C320.21,-267.47 330.65,-255.7 339.1,-246.18"/>
<polygon fill="midnightblue" stroke="midnightblue" points="341.85,-248.35 345.86,-238.55 336.61,-243.71 341.85,-248.35"/>
</g>
<!-- Node14 -->
<g id="node14" class="node">
<title>Node14</title>
<g id="a_node14"><a xlink:title=" ">
<polygon fill="none" stroke="#bfbfbf" points="237.77,-220.5 237.77,-238.5 278.23,-238.5 278.23,-220.5 237.77,-220.5"/>
<text text-anchor="middle" x="258" y="-226.5" font-family="Helvetica,sans-Serif" font-size="10.00">string</text>
</a>
</g>
</g>
<!-- Node6&#45;&gt;Node14 -->
<g id="edge13" class="edge">
<title>Node6&#45;&gt;Node14</title>
<path fill="none" stroke="midnightblue" d="M298.5,-275.22C291.48,-267.47 280.82,-255.7 272.2,-246.18"/>
<polygon fill="midnightblue" stroke="midnightblue" points="274.6,-243.61 265.29,-238.55 269.41,-248.31 274.6,-243.61"/>
</g>
<!-- Node8 -->
<g id="node8" class="node">
<title>Node8</title>
<g id="a_node8"><a xlink:href="../../d8/db5/consts_8h.html" target="_top" xlink:title=" ">
<polygon fill="none" stroke="black" points="317.38,-110.5 317.38,-128.5 370.62,-128.5 370.62,-110.5 317.38,-110.5"/>
<text text-anchor="middle" x="344" y="-116.5" font-family="Helvetica,sans-Serif" font-size="10.00">consts.h</text>
</a>
</g>
</g>
<!-- Node7&#45;&gt;Node8 -->
<g id="edge7" class="edge">
<title>Node7&#45;&gt;Node8</title>
<path fill="none" stroke="midnightblue" d="M363.41,-165.22C360.25,-157.94 355.55,-147.11 351.57,-137.93"/>
<polygon fill="midnightblue" stroke="midnightblue" points="354.68,-136.33 347.49,-128.55 348.26,-139.12 354.68,-136.33"/>
</g>
<!-- Node9 -->
<g id="node9" class="node">
<title>Node9</title>
<g id="a_node9"><a xlink:href="../../d9/d49/types_8h.html" target="_top" xlink:title=" ">
<polygon fill="none" stroke="black" points="319.88,-55.5 319.88,-73.5 368.12,-73.5 368.12,-55.5 319.88,-55.5"/>
<text text-anchor="middle" x="344" y="-61.5" font-family="Helvetica,sans-Serif" font-size="10.00">types.h</text>
</a>
</g>
</g>
<!-- Node8&#45;&gt;Node9 -->
<g id="edge8" class="edge">
<title>Node8&#45;&gt;Node9</title>
<path fill="none" stroke="midnightblue" d="M344,-110.22C344,-103.18 344,-92.81 344,-83.83"/>
<polygon fill="midnightblue" stroke="midnightblue" points="347.5,-83.55 344,-73.55 340.5,-83.55 347.5,-83.55"/>
</g>
<!-- Node10 -->
<g id="node10" class="node">
<title>Node10</title>
<g id="a_node10"><a xlink:title=" ">
<polygon fill="none" stroke="#bfbfbf" points="355.88,-0.5 355.88,-18.5 404.12,-18.5 404.12,-0.5 355.88,-0.5"/>
<text text-anchor="middle" x="380" y="-6.5" font-family="Helvetica,sans-Serif" font-size="10.00">cassert</text>
</a>
</g>
</g>
<!-- Node9&#45;&gt;Node10 -->
<g id="edge9" class="edge">
<title>Node9&#45;&gt;Node10</title>
<path fill="none" stroke="midnightblue" d="M349.62,-55.22C354.73,-47.71 362.4,-36.41 368.76,-27.05"/>
<polygon fill="midnightblue" stroke="midnightblue" points="371.81,-28.79 374.53,-18.55 366.02,-24.86 371.81,-28.79"/>
</g>
<!-- Node11 -->
<g id="node11" class="node">
<title>Node11</title>
<g id="a_node11"><a xlink:title=" ">
<polygon fill="none" stroke="#bfbfbf" points="160.88,-0.5 160.88,-18.5 209.12,-18.5 209.12,-0.5 160.88,-0.5"/>
<text text-anchor="middle" x="185" y="-6.5" font-family="Helvetica,sans-Serif" font-size="10.00">cstddef</text>
</a>
</g>
</g>
<!-- Node9&#45;&gt;Node11 -->
<g id="edge10" class="edge">
<title>Node9&#45;&gt;Node11</title>
<path fill="none" stroke="midnightblue" d="M319.85,-55.45C292.92,-46.47 249.18,-31.89 218.84,-21.78"/>
<polygon fill="midnightblue" stroke="midnightblue" points="219.71,-18.38 209.11,-18.54 217.49,-25.02 219.71,-18.38"/>
</g>
<!-- Node12 -->
<g id="node12" class="node">
<title>Node12</title>
<g id="a_node12"><a xlink:title=" ">
<polygon fill="none" stroke="#bfbfbf" points="275.93,-0.5 275.93,-18.5 338.07,-18.5 338.07,-0.5 275.93,-0.5"/>
<text text-anchor="middle" x="307" y="-6.5" font-family="Helvetica,sans-Serif" font-size="10.00">type_traits</text>
</a>
</g>
</g>
<!-- Node9&#45;&gt;Node12 -->
<g id="edge11" class="edge">
<title>Node9&#45;&gt;Node12</title>
<path fill="none" stroke="midnightblue" d="M338.22,-55.22C332.92,-47.63 324.92,-36.18 318.35,-26.76"/>
<polygon fill="midnightblue" stroke="midnightblue" points="321.21,-24.75 312.62,-18.55 315.47,-28.75 321.21,-24.75"/>
</g>
<!-- Node16 -->
<g id="node16" class="node">
<title>Node16</title>
<g id="a_node16"><a xlink:href="../../dc/d91/txtokenlist_8h.html" target="_top" xlink:title=" ">
<polygon fill="none" stroke="black" points="197.6,-330.5 197.6,-348.5 266.4,-348.5 266.4,-330.5 197.6,-330.5"/>
<text text-anchor="middle" x="232" y="-336.5" font-family="Helvetica,sans-Serif" font-size="10.00">txtokenlist.h</text>
</a>
</g>
</g>
<!-- Node15&#45;&gt;Node16 -->
<g id="edge15" class="edge">
<title>Node15&#45;&gt;Node16</title>
<path fill="none" stroke="midnightblue" d="M226.09,-385.22C227.03,-378.1 228.42,-367.58 229.62,-358.53"/>
<polygon fill="midnightblue" stroke="midnightblue" points="233.1,-358.92 230.94,-348.55 226.16,-358.01 233.1,-358.92"/>
</g>
<!-- Node16&#45;&gt;Node6 -->
<g id="edge16" class="edge">
<title>Node16&#45;&gt;Node6</title>
<path fill="none" stroke="midnightblue" d="M243.24,-330.45C254.65,-322.28 272.55,-309.46 286.31,-299.6"/>
<polygon fill="midnightblue" stroke="midnightblue" points="288.56,-302.29 294.66,-293.63 284.49,-296.6 288.56,-302.29"/>
</g>
<!-- Node17 -->
<g id="node17" class="node">
<title>Node17</title>
<g id="a_node17"><a xlink:href="../../dd/dcd/_token_8h.html" target="_top" xlink:title=" ">
<polygon fill="none" stroke="black" points="364.04,-275.5 364.04,-293.5 443.96,-293.5 443.96,-275.5 364.04,-275.5"/>
<text text-anchor="middle" x="404" y="-281.5" font-family="Helvetica,sans-Serif" font-size="10.00">tralics/Token.h</text>
</a>
</g>
</g>
<!-- Node16&#45;&gt;Node17 -->
<g id="edge17" class="edge">
<title>Node16&#45;&gt;Node17</title>
<path fill="none" stroke="midnightblue" d="M258.12,-330.45C287.51,-321.4 335.4,-306.64 368.24,-296.52"/>
<polygon fill="midnightblue" stroke="midnightblue" points="369.39,-299.83 377.91,-293.54 367.33,-293.14 369.39,-299.83"/>
</g>
<!-- Node22 -->
<g id="node22" class="node">
<title>Node22</title>
<g id="a_node22"><a xlink:title=" ">
<polygon fill="none" stroke="#bfbfbf" points="127.61,-275.5 127.61,-293.5 166.39,-293.5 166.39,-275.5 127.61,-275.5"/>
<text text-anchor="middle" x="147" y="-281.5" font-family="Helvetica,sans-Serif" font-size="10.00">utility</text>
</a>
</g>
</g>
<!-- Node16&#45;&gt;Node22 -->
<g id="edge25" class="edge">
<title>Node16&#45;&gt;Node22</title>
<path fill="none" stroke="midnightblue" d="M219.09,-330.45C205.74,-322.12 184.64,-308.97 168.71,-299.04"/>
<polygon fill="midnightblue" stroke="midnightblue" points="170.37,-295.95 160.03,-293.63 166.66,-301.89 170.37,-295.95"/>
</g>
<!-- Node17&#45;&gt;Node13 -->
<g id="edge23" class="edge">
<title>Node17&#45;&gt;Node13</title>
<path fill="none" stroke="midnightblue" d="M396.03,-275.22C388.5,-267.39 377.02,-255.46 367.81,-245.89"/>
<polygon fill="midnightblue" stroke="midnightblue" points="370.2,-243.33 360.75,-238.55 365.16,-248.18 370.2,-243.33"/>
</g>
<!-- Node18 -->
<g id="node18" class="node">
<title>Node18</title>
<g id="a_node18"><a xlink:href="../../d2/d68/_cmd_chr_8h.html" target="_top" xlink:title=" ">
<polygon fill="none" stroke="black" points="437.49,-220.5 437.49,-238.5 498.51,-238.5 498.51,-220.5 437.49,-220.5"/>
<text text-anchor="middle" x="468" y="-226.5" font-family="Helvetica,sans-Serif" font-size="10.00">CmdChr.h</text>
</a>
</g>
</g>
<!-- Node17&#45;&gt;Node18 -->
<g id="edge18" class="edge">
<title>Node17&#45;&gt;Node18</title>
<path fill="none" stroke="midnightblue" d="M413.72,-275.45C423.4,-267.43 438.48,-254.95 450.29,-245.17"/>
<polygon fill="midnightblue" stroke="midnightblue" points="452.72,-247.7 458.19,-238.63 448.25,-242.31 452.72,-247.7"/>
</g>
<!-- Node21 -->
<g id="node21" class="node">
<title>Node21</title>
<g id="a_node21"><a xlink:title=" ">
<polygon fill="none" stroke="#bfbfbf" points="390.5,-220.5 390.5,-238.5 419.5,-238.5 419.5,-220.5 390.5,-220.5"/>
<text text-anchor="middle" x="404.61" y="-226.5" font-family="Helvetica,sans-Serif" font-size="10.00">list</text>
</a>
</g>
</g>
<!-- Node17&#45;&gt;Node21 -->
<g id="edge24" class="edge">
<title>Node17&#45;&gt;Node21</title>
<path fill="none" stroke="midnightblue" d="M404.16,-275.22C404.29,-268.18 404.48,-257.81 404.65,-248.83"/>
<polygon fill="midnightblue" stroke="midnightblue" points="408.16,-248.61 404.85,-238.55 401.16,-248.48 408.16,-248.61"/>
</g>
<!-- Node18&#45;&gt;Node7 -->
<g id="edge22" class="edge">
<title>Node18&#45;&gt;Node7</title>
<path fill="none" stroke="midnightblue" d="M452.66,-220.45C436.42,-211.93 410.55,-198.35 391.49,-188.35"/>
<polygon fill="midnightblue" stroke="midnightblue" points="392.97,-185.17 382.48,-183.63 389.71,-191.37 392.97,-185.17"/>
</g>
<!-- Node19 -->
<g id="node19" class="node">
<title>Node19</title>
<g id="a_node19"><a xlink:href="../../d8/d47/codepoint_8h.html" target="_top" xlink:title=" ">
<polygon fill="none" stroke="black" points="434.15,-165.5 434.15,-183.5 501.85,-183.5 501.85,-165.5 434.15,-165.5"/>
<text text-anchor="middle" x="468" y="-171.5" font-family="Helvetica,sans-Serif" font-size="10.00">codepoint.h</text>
</a>
</g>
</g>
<!-- Node18&#45;&gt;Node19 -->
<g id="edge19" class="edge">
<title>Node18&#45;&gt;Node19</title>
<path fill="none" stroke="midnightblue" d="M468,-220.22C468,-213.18 468,-202.81 468,-193.83"/>
<polygon fill="midnightblue" stroke="midnightblue" points="471.5,-193.55 468,-183.55 464.5,-193.55 471.5,-193.55"/>
</g>
<!-- Node19&#45;&gt;Node9 -->
<g id="edge20" class="edge">
<title>Node19&#45;&gt;Node9</title>
<path fill="none" stroke="midnightblue" d="M467.72,-165.43C466.84,-152.24 463.28,-125.94 449,-110 430.59,-89.44 401.1,-78.08 378.06,-71.99"/>
<polygon fill="midnightblue" stroke="midnightblue" points="378.85,-68.58 368.31,-69.62 377.2,-75.39 378.85,-68.58"/>
</g>
<!-- Node20 -->
<g id="node20" class="node">
<title>Node20</title>
<g id="a_node20"><a xlink:title=" ">
<polygon fill="none" stroke="#bfbfbf" points="388.49,-110.5 388.49,-128.5 439.51,-128.5 439.51,-110.5 388.49,-110.5"/>
<text text-anchor="middle" x="414" y="-116.5" font-family="Helvetica,sans-Serif" font-size="10.00">optional</text>
</a>
</g>
</g>
<!-- Node19&#45;&gt;Node20 -->
<g id="edge21" class="edge">
<title>Node19&#45;&gt;Node20</title>
<path fill="none" stroke="midnightblue" d="M459.56,-165.22C451.51,-157.32 439.19,-145.22 429.39,-135.61"/>
<polygon fill="midnightblue" stroke="midnightblue" points="431.79,-133.06 422.2,-128.55 426.89,-138.05 431.79,-133.06"/>
</g>
<!-- Node28 -->
<g id="node28" class="node">
<title>Node28</title>
<g id="a_node28"><a xlink:href="../../d3/d6b/txcond_8h.html" target="_top" xlink:title=" ">
<polygon fill="none" stroke="black" points="515.93,-330.5 515.93,-348.5 578.07,-348.5 578.07,-330.5 515.93,-330.5"/>
<text text-anchor="middle" x="547" y="-336.5" font-family="Helvetica,sans-Serif" font-size="10.00">../txcond.h</text>
</a>
</g>
</g>
<!-- Node27&#45;&gt;Node28 -->
<g id="edge31" class="edge">
<title>Node27&#45;&gt;Node28</title>
<path fill="none" stroke="midnightblue" d="M214.42,-770.43C223.12,-761.85 236.84,-747.65 247,-734 303.74,-657.74 289.24,-617.66 356,-550 410.5,-494.76 456.11,-519.26 505,-459 529.45,-428.87 540.19,-383.44 544.48,-358.49"/>
<polygon fill="midnightblue" stroke="midnightblue" points="547.94,-359.02 546.02,-348.6 541.02,-357.94 547.94,-359.02"/>
</g>
<!-- Node29 -->
<g id="node29" class="node">
<title>Node29</title>
<g id="a_node29"><a xlink:href="../../d7/d4d/txfonts_8h.html" target="_top" xlink:title=" ">
<polygon fill="none" stroke="black" points="361.93,-715.5 361.93,-733.5 424.07,-733.5 424.07,-715.5 361.93,-715.5"/>
<text text-anchor="middle" x="393" y="-721.5" font-family="Helvetica,sans-Serif" font-size="10.00">../txfonts.h</text>
</a>
</g>
</g>
<!-- Node27&#45;&gt;Node29 -->
<g id="edge34" class="edge">
<title>Node27&#45;&gt;Node29</title>
<path fill="none" stroke="midnightblue" d="M234.4,-770.45C266.48,-761.36 318.87,-746.51 354.58,-736.39"/>
<polygon fill="midnightblue" stroke="midnightblue" points="355.97,-739.63 364.64,-733.54 354.06,-732.9 355.97,-739.63"/>
</g>
<!-- Node38 -->
<g id="node38" class="node">
<title>Node38</title>
<g id="a_node38"><a xlink:href="../../de/d7c/tximage_8h.html" target="_top" xlink:title=" ">
<polygon fill="none" stroke="black" points="28.16,-330.5 28.16,-348.5 95.84,-348.5 95.84,-330.5 28.16,-330.5"/>
<text text-anchor="middle" x="62" y="-336.5" font-family="Helvetica,sans-Serif" font-size="10.00">../tximage.h</text>
</a>
</g>
</g>
<!-- Node27&#45;&gt;Node38 -->
<g id="edge45" class="edge">
<title>Node27&#45;&gt;Node38</title>
<path fill="none" stroke="midnightblue" d="M174.68,-770.49C131.78,-757.42 60,-727.09 60,-670.5 60,-670.5 60,-670.5 60,-448.5 60,-417.01 60.86,-380.37 61.45,-358.88"/>
<polygon fill="midnightblue" stroke="midnightblue" points="64.96,-358.72 61.75,-348.63 57.96,-358.52 64.96,-358.72"/>
</g>
<!-- Node39 -->
<g id="node39" class="node">
<title>Node39</title>
<g id="a_node39"><a xlink:href="../../dc/d65/txstack_8h.html" target="_top" xlink:title=" ">
<polygon fill="none" stroke="black" points="169.1,-550.5 169.1,-568.5 232.9,-568.5 232.9,-550.5 169.1,-550.5"/>
<text text-anchor="middle" x="201" y="-556.5" font-family="Helvetica,sans-Serif" font-size="10.00">../txstack.h</text>
</a>
</g>
</g>
<!-- Node27&#45;&gt;Node39 -->
<g id="edge48" class="edge">
<title>Node27&#45;&gt;Node39</title>
<path fill="none" stroke="midnightblue" d="M205.82,-770.48C205.1,-739.11 202.46,-624.16 201.42,-578.94"/>
<polygon fill="midnightblue" stroke="midnightblue" points="204.92,-578.74 201.19,-568.82 197.92,-578.9 204.92,-578.74"/>
</g>
<!-- Node41 -->
<g id="node41" class="node">
<title>Node41</title>
<g id="a_node41"><a xlink:href="../../d8/d3d/txstats_8h.html" target="_top" xlink:title=" ">
<polygon fill="none" stroke="black" points="55.21,-55.5 55.21,-73.5 116.79,-73.5 116.79,-55.5 55.21,-55.5"/>
<text text-anchor="middle" x="86" y="-61.5" font-family="Helvetica,sans-Serif" font-size="10.00">../txstats.h</text>
</a>
</g>
</g>
<!-- Node27&#45;&gt;Node41 -->
<g id="edge54" class="edge">
<title>Node27&#45;&gt;Node41</title>
<path fill="none" stroke="midnightblue" d="M164.81,-775.13C104.69,-767.7 0,-744.2 0,-670.5 0,-670.5 0,-670.5 0,-173.5 0,-132.33 38.71,-97.79 64.19,-79.52"/>
<polygon fill="midnightblue" stroke="midnightblue" points="66.31,-82.3 72.56,-73.75 62.34,-76.54 66.31,-82.3"/>
</g>
<!-- Node42 -->
<g id="node42" class="node">
<title>Node42</title>
<g id="a_node42"><a xlink:href="../../d8/dd6/_e_q_t_b_8h.html" target="_top" xlink:title=" ">
<polygon fill="none" stroke="black" points="126.22,-715.5 126.22,-733.5 177.78,-733.5 177.78,-715.5 126.22,-715.5"/>
<text text-anchor="middle" x="152" y="-721.5" font-family="Helvetica,sans-Serif" font-size="10.00">EQTB.h</text>
</a>
</g>
</g>
<!-- Node27&#45;&gt;Node42 -->
<g id="edge56" class="edge">
<title>Node27&#45;&gt;Node42</title>
<path fill="none" stroke="midnightblue" d="M197.56,-770.22C189.51,-762.32 177.19,-750.22 167.39,-740.61"/>
<polygon fill="midnightblue" stroke="midnightblue" points="169.79,-738.06 160.2,-733.55 164.89,-743.05 169.79,-738.06"/>
</g>
<!-- Node43 -->
<g id="node43" class="node">
<title>Node43</title>
<g id="a_node43"><a xlink:href="../../da/d27/_hashtab_8h.html" target="_top" xlink:title=" ">
<polygon fill="none" stroke="black" points="318.21,-495.5 318.21,-513.5 379.79,-513.5 379.79,-495.5 318.21,-495.5"/>
<text text-anchor="middle" x="349" y="-501.5" font-family="Helvetica,sans-Serif" font-size="10.00">Hashtab.h</text>
</a>
</g>
</g>
<!-- Node27&#45;&gt;Node43 -->
<g id="edge58" class="edge">
<title>Node27&#45;&gt;Node43</title>
<path fill="none" stroke="midnightblue" d="M210.08,-770.11C224.78,-740.03 276.55,-634.83 323,-550 328.07,-540.75 333.98,-530.58 338.88,-522.31"/>
<polygon fill="midnightblue" stroke="midnightblue" points="341.95,-524 344.07,-513.62 335.94,-520.41 341.95,-524"/>
</g>
<!-- Node46 -->
<g id="node46" class="node">
<title>Node46</title>
<g id="a_node46"><a xlink:href="../../d9/dba/_label_info_8h.html" target="_top" xlink:title=" ">
<polygon fill="none" stroke="black" points="114.26,-330.5 114.26,-348.5 179.74,-348.5 179.74,-330.5 114.26,-330.5"/>
<text text-anchor="middle" x="147" y="-336.5" font-family="Helvetica,sans-Serif" font-size="10.00">LabelInfo.h</text>
</a>
</g>
</g>
<!-- Node27&#45;&gt;Node46 -->
<g id="edge63" class="edge">
<title>Node27&#45;&gt;Node46</title>
<path fill="none" stroke="midnightblue" d="M176.48,-770.48C157,-763.76 132.34,-752.25 117,-734 98.05,-711.45 98,-699.96 98,-670.5 98,-670.5 98,-670.5 98,-448.5 98,-413.33 119.82,-377 134.34,-356.73"/>
<polygon fill="midnightblue" stroke="midnightblue" points="137.22,-358.71 140.39,-348.6 131.61,-354.53 137.22,-358.71"/>
</g>
<!-- Node28&#45;&gt;Node7 -->
<g id="edge32" class="edge">
<title>Node28&#45;&gt;Node7</title>
<path fill="none" stroke="midnightblue" d="M546.75,-330.29C545.65,-308.98 539.74,-251.35 508,-220 493.23,-205.41 440.81,-191.49 404.23,-183.22"/>
<polygon fill="midnightblue" stroke="midnightblue" points="404.9,-179.78 394.38,-181.04 403.39,-186.61 404.9,-179.78"/>
</g>
<!-- Node28&#45;&gt;Node25 -->
<g id="edge33" class="edge">
<title>Node28&#45;&gt;Node25</title>
<path fill="none" stroke="midnightblue" d="M537.94,-330.22C529.2,-322.24 515.79,-309.98 505.22,-300.32"/>
<polygon fill="midnightblue" stroke="midnightblue" points="507.55,-297.71 497.81,-293.55 502.83,-302.88 507.55,-297.71"/>
</g>
<!-- Node30 -->
<g id="node30" class="node">
<title>Node30</title>
<g id="a_node30"><a xlink:href="../../d6/dec/_logger_8h.html" target="_top" xlink:title=" ">
<polygon fill="none" stroke="black" points="450.09,-660.5 450.09,-678.5 533.91,-678.5 533.91,-660.5 450.09,-660.5"/>
<text text-anchor="middle" x="492" y="-666.5" font-family="Helvetica,sans-Serif" font-size="10.00">tralics/Logger.h</text>
</a>
</g>
</g>
<!-- Node29&#45;&gt;Node30 -->
<g id="edge35" class="edge">
<title>Node29&#45;&gt;Node30</title>
<path fill="none" stroke="midnightblue" d="M408.04,-715.45C423.95,-706.93 449.31,-693.35 468,-683.35"/>
<polygon fill="midnightblue" stroke="midnightblue" points="469.66,-686.43 476.82,-678.63 466.35,-680.26 469.66,-686.43"/>
</g>
<!-- Node31 -->
<g id="node31" class="node">
<title>Node31</title>
<g id="a_node31"><a xlink:href="../../d7/d79/txinline_8h.html" target="_top" xlink:title=" ">
<polygon fill="none" stroke="black" points="383.1,-605.5 383.1,-623.5 446.9,-623.5 446.9,-605.5 383.1,-605.5"/>
<text text-anchor="middle" x="415" y="-611.5" font-family="Helvetica,sans-Serif" font-size="10.00">../txinline.h</text>
</a>
</g>
</g>
<!-- Node30&#45;&gt;Node31 -->
<g id="edge36" class="edge">
<title>Node30&#45;&gt;Node31</title>
<path fill="none" stroke="midnightblue" d="M480.31,-660.45C468.32,-652.2 449.46,-639.22 435.08,-629.32"/>
<polygon fill="midnightblue" stroke="midnightblue" points="437.03,-626.41 426.8,-623.63 433.06,-632.18 437.03,-626.41"/>
</g>
<!-- Node36 -->
<g id="node36" class="node">
<title>Node36</title>
<g id="a_node36"><a xlink:title=" ">
<polygon fill="none" stroke="#bfbfbf" points="464.94,-605.5 464.94,-623.5 517.06,-623.5 517.06,-605.5 464.94,-605.5"/>
<text text-anchor="middle" x="491" y="-611.5" font-family="Helvetica,sans-Serif" font-size="10.00">memory</text>
</a>
</g>
</g>
<!-- Node30&#45;&gt;Node36 -->
<g id="edge43" class="edge">
<title>Node30&#45;&gt;Node36</title>
<path fill="none" stroke="midnightblue" d="M491.84,-660.22C491.71,-653.18 491.52,-642.81 491.35,-633.83"/>
<polygon fill="midnightblue" stroke="midnightblue" points="494.84,-633.48 491.15,-623.55 487.84,-633.61 494.84,-633.48"/>
</g>
<!-- Node37 -->
<g id="node37" class="node">
<title>Node37</title>
<g id="a_node37"><a xlink:title=" ">
<polygon fill="none" stroke="#bfbfbf" points="534.97,-605.5 534.97,-623.5 621.03,-623.5 621.03,-605.5 534.97,-605.5"/>
<text text-anchor="middle" x="578" y="-611.5" font-family="Helvetica,sans-Serif" font-size="10.00">spdlog/spdlog.h</text>
</a>
</g>
</g>
<!-- Node30&#45;&gt;Node37 -->
<g id="edge44" class="edge">
<title>Node30&#45;&gt;Node37</title>
<path fill="none" stroke="midnightblue" d="M505.06,-660.45C518.57,-652.12 539.92,-638.97 556.03,-629.04"/>
<polygon fill="midnightblue" stroke="midnightblue" points="558.14,-631.85 564.82,-623.63 554.47,-625.89 558.14,-631.85"/>
</g>
<!-- Node32 -->
<g id="node32" class="node">
<title>Node32</title>
<g id="a_node32"><a xlink:href="../../d4/de9/_main_class_8h.html" target="_top" xlink:title=" ">
<polygon fill="none" stroke="black" points="365.04,-550.5 365.04,-568.5 464.96,-568.5 464.96,-550.5 365.04,-550.5"/>
<text text-anchor="middle" x="415" y="-556.5" font-family="Helvetica,sans-Serif" font-size="10.00">tralics/MainClass.h</text>
</a>
</g>
</g>
<!-- Node31&#45;&gt;Node32 -->
<g id="edge37" class="edge">
<title>Node31&#45;&gt;Node32</title>
<path fill="none" stroke="midnightblue" d="M415,-605.22C415,-598.18 415,-587.81 415,-578.83"/>
<polygon fill="midnightblue" stroke="midnightblue" points="418.5,-578.55 415,-568.55 411.5,-578.55 418.5,-578.55"/>
</g>
<!-- Node35 -->
<g id="node35" class="node">
<title>Node35</title>
<g id="a_node35"><a xlink:href="../../d5/d08/txparam_8h.html" target="_top" xlink:title=" ">
<polygon fill="none" stroke="black" points="482.77,-550.5 482.77,-568.5 543.23,-568.5 543.23,-550.5 482.77,-550.5"/>
<text text-anchor="middle" x="513" y="-556.5" font-family="Helvetica,sans-Serif" font-size="10.00">txparam.h</text>
</a>
</g>
</g>
<!-- Node31&#45;&gt;Node35 -->
<g id="edge41" class="edge">
<title>Node31&#45;&gt;Node35</title>
<path fill="none" stroke="midnightblue" d="M429.88,-605.45C445.57,-596.97 470.51,-583.48 488.99,-573.49"/>
<polygon fill="midnightblue" stroke="midnightblue" points="490.84,-576.46 497.98,-568.63 487.51,-570.3 490.84,-576.46"/>
</g>
<!-- Node33 -->
<g id="node33" class="node">
<title>Node33</title>
<g id="a_node33"><a xlink:href="../../de/d29/txio_8h.html" target="_top" xlink:title=" ">
<polygon fill="none" stroke="black" points="471.88,-495.5 471.88,-513.5 520.12,-513.5 520.12,-495.5 471.88,-495.5"/>
<text text-anchor="middle" x="496" y="-501.5" font-family="Helvetica,sans-Serif" font-size="10.00">../txio.h</text>
</a>
</g>
</g>
<!-- Node32&#45;&gt;Node33 -->
<g id="edge38" class="edge">
<title>Node32&#45;&gt;Node33</title>
<path fill="none" stroke="midnightblue" d="M427.3,-550.45C439.91,-542.2 459.76,-529.22 474.88,-519.32"/>
<polygon fill="midnightblue" stroke="midnightblue" points="477.13,-522.03 483.58,-513.63 473.3,-516.17 477.13,-522.03"/>
</g>
<!-- Node33&#45;&gt;Node4 -->
<g id="edge39" class="edge">
<title>Node33&#45;&gt;Node4</title>
<path fill="none" stroke="midnightblue" d="M476.41,-495.45C455.1,-486.7 420.8,-472.61 396.29,-462.53"/>
<polygon fill="midnightblue" stroke="midnightblue" points="397.36,-459.19 386.78,-458.63 394.7,-465.66 397.36,-459.19"/>
</g>
<!-- Node34 -->
<g id="node34" class="node">
<title>Node34</title>
<g id="a_node34"><a xlink:title=" ">
<polygon fill="none" stroke="#bfbfbf" points="552.33,-440.5 552.33,-458.5 601.67,-458.5 601.67,-440.5 552.33,-440.5"/>
<text text-anchor="middle" x="577" y="-446.5" font-family="Helvetica,sans-Serif" font-size="10.00">fstream</text>
</a>
</g>
</g>
<!-- Node33&#45;&gt;Node34 -->
<g id="edge40" class="edge">
<title>Node33&#45;&gt;Node34</title>
<path fill="none" stroke="midnightblue" d="M508.3,-495.45C520.91,-487.2 540.76,-474.22 555.88,-464.32"/>
<polygon fill="midnightblue" stroke="midnightblue" points="558.13,-467.03 564.58,-458.63 554.3,-461.17 558.13,-467.03"/>
</g>
<!-- Node35&#45;&gt;Node33 -->
<g id="edge42" class="edge">
<title>Node35&#45;&gt;Node33</title>
<path fill="none" stroke="midnightblue" d="M510.34,-550.22C508.03,-543.02 504.61,-532.35 501.69,-523.23"/>
<polygon fill="midnightblue" stroke="midnightblue" points="504.97,-522 498.58,-513.55 498.3,-524.14 504.97,-522"/>
</g>
<!-- Node38&#45;&gt;Node14 -->
<g id="edge46" class="edge">
<title>Node38&#45;&gt;Node14</title>
<path fill="none" stroke="midnightblue" d="M67.27,-330.21C76.26,-316.71 95.87,-289.97 119,-275 152.72,-253.17 197.98,-241.31 227.56,-235.45"/>
<polygon fill="midnightblue" stroke="midnightblue" points="228.51,-238.83 237.7,-233.55 227.22,-231.95 228.51,-238.83"/>
</g>
<!-- Node38&#45;&gt;Node22 -->
<g id="edge47" class="edge">
<title>Node38&#45;&gt;Node22</title>
<path fill="none" stroke="midnightblue" d="M74.91,-330.45C88.26,-322.12 109.36,-308.97 125.29,-299.04"/>
<polygon fill="midnightblue" stroke="midnightblue" points="127.34,-301.89 133.97,-293.63 123.63,-295.95 127.34,-301.89"/>
</g>
<!-- Node39&#45;&gt;Node3 -->
<g id="edge49" class="edge">
<title>Node39&#45;&gt;Node3</title>
<path fill="none" stroke="midnightblue" d="M208.97,-550.22C216.5,-542.39 227.98,-530.46 237.19,-520.89"/>
<polygon fill="midnightblue" stroke="midnightblue" points="239.84,-523.18 244.25,-513.55 234.8,-518.33 239.84,-523.18"/>
</g>
<!-- Node40 -->
<g id="node40" class="node">
<title>Node40</title>
<g id="a_node40"><a xlink:href="../../d4/da4/txatt_8h.html" target="_top" xlink:title=" ">
<polygon fill="none" stroke="black" points="284.38,-330.5 284.38,-348.5 327.62,-348.5 327.62,-330.5 284.38,-330.5"/>
<text text-anchor="middle" x="306" y="-336.5" font-family="Helvetica,sans-Serif" font-size="10.00">txatt.h</text>
</a>
</g>
</g>
<!-- Node39&#45;&gt;Node40 -->
<g id="edge50" class="edge">
<title>Node39&#45;&gt;Node40</title>
<path fill="none" stroke="midnightblue" d="M196.54,-550.3C182.7,-523.64 143.6,-438.02 181,-385 186.6,-377.06 239.19,-360.23 274.34,-349.7"/>
<polygon fill="midnightblue" stroke="midnightblue" points="275.59,-352.98 284.18,-346.78 273.6,-346.27 275.59,-352.98"/>
</g>
<!-- Node40&#45;&gt;Node6 -->
<g id="edge51" class="edge">
<title>Node40&#45;&gt;Node6</title>
<path fill="none" stroke="midnightblue" d="M306,-330.22C306,-323.18 306,-312.81 306,-303.83"/>
<polygon fill="midnightblue" stroke="midnightblue" points="309.5,-303.55 306,-293.55 302.5,-303.55 309.5,-303.55"/>
</g>
<!-- Node40&#45;&gt;Node20 -->
<g id="edge52" class="edge">
<title>Node40&#45;&gt;Node20</title>
<path fill="none" stroke="midnightblue" d="M293.36,-330.3C265.61,-311.25 203.72,-262.34 229,-220 246.32,-190.98 335.51,-151.84 383.44,-132.43"/>
<polygon fill="midnightblue" stroke="midnightblue" points="385.02,-135.57 393,-128.6 382.42,-129.07 385.02,-135.57"/>
</g>
<!-- Node40&#45;&gt;Node25 -->
<g id="edge53" class="edge">
<title>Node40&#45;&gt;Node25</title>
<path fill="none" stroke="midnightblue" d="M327.71,-332.21C359.9,-322.89 420.48,-305.35 457.53,-294.61"/>
<polygon fill="midnightblue" stroke="midnightblue" points="458.69,-297.92 467.32,-291.78 456.74,-291.2 458.69,-297.92"/>
</g>
<!-- Node41&#45;&gt;Node11 -->
<g id="edge55" class="edge">
<title>Node41&#45;&gt;Node11</title>
<path fill="none" stroke="midnightblue" d="M101.04,-55.45C116.95,-46.93 142.31,-33.35 161,-23.35"/>
<polygon fill="midnightblue" stroke="midnightblue" points="162.66,-26.43 169.82,-18.63 159.35,-20.26 162.66,-26.43"/>
</g>
<!-- Node42&#45;&gt;Node15 -->
<g id="edge57" class="edge">
<title>Node42&#45;&gt;Node15</title>
<path fill="none" stroke="midnightblue" d="M149.97,-715.43C145.67,-697.56 136,-653.22 136,-615.5 136,-615.5 136,-615.5 136,-503.5 136,-461.77 176.06,-427.42 202.43,-409.33"/>
<polygon fill="midnightblue" stroke="midnightblue" points="204.67,-412.05 211.09,-403.63 200.82,-406.2 204.67,-412.05"/>
</g>
<!-- Node43&#45;&gt;Node4 -->
<g id="edge61" class="edge">
<title>Node43&#45;&gt;Node4</title>
<path fill="none" stroke="midnightblue" d="M351.81,-495.22C354.26,-488.02 357.88,-477.35 360.98,-468.23"/>
<polygon fill="midnightblue" stroke="midnightblue" points="364.36,-469.14 364.27,-458.55 357.74,-466.89 364.36,-469.14"/>
</g>
<!-- Node44 -->
<g id="node44" class="node">
<title>Node44</title>
<g id="a_node44"><a xlink:href="../../d3/d01/txeqtb_8h.html" target="_top" xlink:title=" ">
<polygon fill="none" stroke="black" points="264.04,-440.5 264.04,-458.5 323.96,-458.5 323.96,-440.5 264.04,-440.5"/>
<text text-anchor="middle" x="294" y="-446.5" font-family="Helvetica,sans-Serif" font-size="10.00">../txeqtb.h</text>
</a>
</g>
</g>
<!-- Node43&#45;&gt;Node44 -->
<g id="edge59" class="edge">
<title>Node43&#45;&gt;Node44</title>
<path fill="none" stroke="midnightblue" d="M340.41,-495.22C332.21,-487.32 319.66,-475.22 309.68,-465.61"/>
<polygon fill="midnightblue" stroke="midnightblue" points="311.98,-462.97 302.35,-458.55 307.13,-468.01 311.98,-462.97"/>
</g>
<!-- Node45 -->
<g id="node45" class="node">
<title>Node45</title>
<g id="a_node45"><a xlink:title=" ">
<polygon fill="none" stroke="#bfbfbf" points="409.7,-440.5 409.7,-458.5 496.3,-458.5 496.3,-440.5 409.7,-440.5"/>
<text text-anchor="middle" x="453" y="-446.5" font-family="Helvetica,sans-Serif" font-size="10.00">unordered_map</text>
</a>
</g>
</g>
<!-- Node43&#45;&gt;Node45 -->
<g id="edge62" class="edge">
<title>Node43&#45;&gt;Node45</title>
<path fill="none" stroke="midnightblue" d="M364.8,-495.45C381.59,-486.89 408.4,-473.23 428.06,-463.21"/>
<polygon fill="midnightblue" stroke="midnightblue" points="429.74,-466.28 437.06,-458.63 426.56,-460.05 429.74,-466.28"/>
</g>
<!-- Node44&#45;&gt;Node15 -->
<g id="edge60" class="edge">
<title>Node44&#45;&gt;Node15</title>
<path fill="none" stroke="midnightblue" d="M283.52,-440.45C272.98,-432.36 256.51,-419.7 243.72,-409.88"/>
<polygon fill="midnightblue" stroke="midnightblue" points="245.64,-406.94 235.58,-403.63 241.38,-412.49 245.64,-406.94"/>
</g>
<!-- Node46&#45;&gt;Node6 -->
<g id="edge64" class="edge">
<title>Node46&#45;&gt;Node6</title>
<path fill="none" stroke="midnightblue" d="M171.15,-330.45C198.08,-321.47 241.82,-306.89 272.16,-296.78"/>
<polygon fill="midnightblue" stroke="midnightblue" points="273.51,-300.02 281.89,-293.54 271.29,-293.38 273.51,-300.02"/>
</g>
<!-- Node46&#45;&gt;Node22 -->
<g id="edge65" class="edge">
<title>Node46&#45;&gt;Node22</title>
<path fill="none" stroke="midnightblue" d="M147,-330.22C147,-323.18 147,-312.81 147,-303.83"/>
<polygon fill="midnightblue" stroke="midnightblue" points="150.5,-303.55 147,-293.55 143.5,-303.55 150.5,-303.55"/>
</g>
<!-- Node47&#45;&gt;Node6 -->
<g id="edge67" class="edge">
<title>Node47&#45;&gt;Node6</title>
<path fill="none" stroke="midnightblue" d="M596.44,-331.51C593.24,-331 590.07,-330.49 587,-330 487.07,-314.08 459.61,-311.09 356.27,-294.19"/>
<polygon fill="midnightblue" stroke="midnightblue" points="356.8,-290.73 346.37,-292.56 355.67,-297.63 356.8,-290.73"/>
</g>
<!-- Node47&#45;&gt;Node19 -->
<g id="edge68" class="edge">
<title>Node47&#45;&gt;Node19</title>
<path fill="none" stroke="midnightblue" d="M631.1,-330.31C622.9,-321.64 609.91,-307.37 600,-294 576.94,-262.89 582.44,-246.29 554,-220 538.73,-205.88 518.13,-195.02 500.92,-187.56"/>
<polygon fill="midnightblue" stroke="midnightblue" points="501.83,-184.14 491.25,-183.56 499.15,-190.61 501.83,-184.14"/>
</g>
<!-- Node47&#45;&gt;Node25 -->
<g id="edge70" class="edge">
<title>Node47&#45;&gt;Node25</title>
<path fill="none" stroke="midnightblue" d="M616.22,-330.45C590.71,-321.44 549.19,-306.77 520.56,-296.65"/>
<polygon fill="midnightblue" stroke="midnightblue" points="521.61,-293.31 511.02,-293.28 519.28,-299.91 521.61,-293.31"/>
</g>
<!-- Node48 -->
<g id="node48" class="node">
<title>Node48</title>
<g id="a_node48"><a xlink:title=" ">
<polygon fill="none" stroke="#bfbfbf" points="608.77,-275.5 608.77,-293.5 669.23,-293.5 669.23,-275.5 608.77,-275.5"/>
<text text-anchor="middle" x="639" y="-281.5" font-family="Helvetica,sans-Serif" font-size="10.00">filesystem</text>
</a>
</g>
</g>
<!-- Node47&#45;&gt;Node48 -->
<g id="edge69" class="edge">
<title>Node47&#45;&gt;Node48</title>
<path fill="none" stroke="midnightblue" d="M639,-330.22C639,-323.18 639,-312.81 639,-303.83"/>
<polygon fill="midnightblue" stroke="midnightblue" points="642.5,-303.55 639,-293.55 635.5,-303.55 642.5,-303.55"/>
</g>
</g>
</svg>
