<?xml version="1.0" encoding="UTF-8" standalone="no"?>
<!DOCTYPE svg PUBLIC "-//W3C//DTD SVG 1.1//EN"
 "http://www.w3.org/Graphics/SVG/1.1/DTD/svg11.dtd">
<!-- Generated by graphviz version 2.42.3 (20191010.1750)
 -->
<!-- Title: txtitlepage.cpp Pages: 1 -->
<svg width="862pt" height="687pt"
 viewBox="0.00 0.00 862.30 687.00" xmlns="http://www.w3.org/2000/svg" xmlns:xlink="http://www.w3.org/1999/xlink">
<g id="graph0" class="graph" transform="scale(1 1) rotate(0) translate(4 683)">
<title>txtitlepage.cpp</title>
<!-- Node1 -->
<g id="node1" class="node">
<title>Node1</title>
<g id="a_node1"><a xlink:title=" ">
<polygon fill="#bfbfbf" stroke="black" points="220.76,-660.5 220.76,-678.5 301.24,-678.5 301.24,-660.5 220.76,-660.5"/>
<text text-anchor="middle" x="261" y="-666.5" font-family="Helvetica,sans-Serif" font-size="10.00">txtitlepage.cpp</text>
</a>
</g>
</g>
<!-- Node2 -->
<g id="node2" class="node">
<title>Node2</title>
<g id="a_node2"><a xlink:href="../../d5/d7f/txtitlepage_8h.html" target="_top" xlink:title=" ">
<polygon fill="none" stroke="black" points="251.04,-605.5 251.04,-623.5 320.96,-623.5 320.96,-605.5 251.04,-605.5"/>
<text text-anchor="middle" x="286" y="-611.5" font-family="Helvetica,sans-Serif" font-size="10.00">txtitlepage.h</text>
</a>
</g>
</g>
<!-- Node1&#45;&gt;Node2 -->
<g id="edge1" class="edge">
<title>Node1&#45;&gt;Node2</title>
<path fill="none" stroke="midnightblue" d="M264.91,-660.22C268.38,-652.86 273.56,-641.88 277.92,-632.64"/>
<polygon fill="midnightblue" stroke="midnightblue" points="281.1,-634.09 282.2,-623.55 274.77,-631.1 281.1,-634.09"/>
</g>
<!-- Node29 -->
<g id="node29" class="node">
<title>Node29</title>
<g id="a_node29"><a xlink:href="../../d5/d87/globals_8h.html" target="_top" xlink:title=" ">
<polygon fill="none" stroke="black" points="232.54,-330.5 232.54,-348.5 317.46,-348.5 317.46,-330.5 232.54,-330.5"/>
<text text-anchor="middle" x="275" y="-336.5" font-family="Helvetica,sans-Serif" font-size="10.00">tralics/globals.h</text>
</a>
</g>
</g>
<!-- Node1&#45;&gt;Node29 -->
<g id="edge34" class="edge">
<title>Node1&#45;&gt;Node29</title>
<path fill="none" stroke="midnightblue" d="M220.51,-669.28C147.2,-668.36 0,-654.78 0,-560.5 0,-560.5 0,-560.5 0,-448.5 0,-401.22 142.63,-366.02 222.45,-350.03"/>
<polygon fill="midnightblue" stroke="midnightblue" points="223.2,-353.45 232.33,-348.08 221.85,-346.58 223.2,-353.45"/>
</g>
<!-- Node31 -->
<g id="node31" class="node">
<title>Node31</title>
<g id="a_node31"><a xlink:href="../../d7/d79/txinline_8h.html" target="_top" xlink:title=" ">
<polygon fill="none" stroke="black" points="136.27,-605.5 136.27,-623.5 191.73,-623.5 191.73,-605.5 136.27,-605.5"/>
<text text-anchor="middle" x="164" y="-611.5" font-family="Helvetica,sans-Serif" font-size="10.00">txinline.h</text>
</a>
</g>
</g>
<!-- Node1&#45;&gt;Node31 -->
<g id="edge38" class="edge">
<title>Node1&#45;&gt;Node31</title>
<path fill="none" stroke="midnightblue" d="M246.27,-660.45C230.74,-651.97 206.05,-638.48 187.77,-628.49"/>
<polygon fill="midnightblue" stroke="midnightblue" points="189.32,-625.35 178.87,-623.63 185.97,-631.49 189.32,-625.35"/>
</g>
<!-- Node38 -->
<g id="node38" class="node">
<title>Node38</title>
<g id="a_node38"><a xlink:href="../../d2/d1b/txparser_8h.html" target="_top" xlink:title=" ">
<polygon fill="none" stroke="black" points="488.04,-605.5 488.04,-623.5 547.96,-623.5 547.96,-605.5 488.04,-605.5"/>
<text text-anchor="middle" x="518" y="-611.5" font-family="Helvetica,sans-Serif" font-size="10.00">txparser.h</text>
</a>
</g>
</g>
<!-- Node1&#45;&gt;Node38 -->
<g id="edge51" class="edge">
<title>Node1&#45;&gt;Node38</title>
<path fill="none" stroke="midnightblue" d="M300.03,-660.45C348.14,-650.53 429.47,-633.76 478.02,-623.75"/>
<polygon fill="midnightblue" stroke="midnightblue" points="478.77,-627.16 487.86,-621.72 477.36,-620.31 478.77,-627.16"/>
</g>
<!-- Node3 -->
<g id="node3" class="node">
<title>Node3</title>
<g id="a_node3"><a xlink:href="../../d9/d1c/_xml_8h.html" target="_top" xlink:title=" ">
<polygon fill="none" stroke="black" points="356.77,-495.5 356.77,-513.5 427.23,-513.5 427.23,-495.5 356.77,-495.5"/>
<text text-anchor="middle" x="392" y="-501.5" font-family="Helvetica,sans-Serif" font-size="10.00">tralics/Xml.h</text>
</a>
</g>
</g>
<!-- Node2&#45;&gt;Node3 -->
<g id="edge2" class="edge">
<title>Node2&#45;&gt;Node3</title>
<path fill="none" stroke="midnightblue" d="M293.97,-605.38C311.54,-587.48 353.87,-544.35 376.74,-521.05"/>
<polygon fill="midnightblue" stroke="midnightblue" points="379.43,-523.3 383.94,-513.71 374.44,-518.4 379.43,-523.3"/>
</g>
<!-- Node4 -->
<g id="node4" class="node">
<title>Node4</title>
<g id="a_node4"><a xlink:href="../../d7/d1b/_buffer_8h.html" target="_top" xlink:title=" ">
<polygon fill="none" stroke="black" points="425.85,-440.5 425.85,-458.5 476.15,-458.5 476.15,-440.5 425.85,-440.5"/>
<text text-anchor="middle" x="451" y="-446.5" font-family="Helvetica,sans-Serif" font-size="10.00">Buffer.h</text>
</a>
</g>
</g>
<!-- Node3&#45;&gt;Node4 -->
<g id="edge3" class="edge">
<title>Node3&#45;&gt;Node4</title>
<path fill="none" stroke="midnightblue" d="M400.96,-495.45C409.8,-487.51 423.52,-475.19 434.36,-465.45"/>
<polygon fill="midnightblue" stroke="midnightblue" points="436.85,-467.91 441.95,-458.63 432.18,-462.7 436.85,-467.91"/>
</g>
<!-- Node28 -->
<g id="node28" class="node">
<title>Node28</title>
<g id="a_node28"><a xlink:title=" ">
<polygon fill="none" stroke="#bfbfbf" points="363.83,-440.5 363.83,-458.5 408.17,-458.5 408.17,-440.5 363.83,-440.5"/>
<text text-anchor="middle" x="386" y="-446.5" font-family="Helvetica,sans-Serif" font-size="10.00">gsl/gsl</text>
</a>
</g>
</g>
<!-- Node3&#45;&gt;Node28 -->
<g id="edge33" class="edge">
<title>Node3&#45;&gt;Node28</title>
<path fill="none" stroke="midnightblue" d="M391.06,-495.22C390.26,-488.1 389.07,-477.58 388.04,-468.53"/>
<polygon fill="midnightblue" stroke="midnightblue" points="391.51,-468.09 386.91,-458.55 384.56,-468.88 391.51,-468.09"/>
</g>
<!-- Node5 -->
<g id="node5" class="node">
<title>Node5</title>
<g id="a_node5"><a xlink:href="../../d1/d9e/txid_8h.html" target="_top" xlink:title=" ">
<polygon fill="none" stroke="black" points="263.88,-385.5 263.88,-403.5 312.12,-403.5 312.12,-385.5 263.88,-385.5"/>
<text text-anchor="middle" x="288" y="-391.5" font-family="Helvetica,sans-Serif" font-size="10.00">../txid.h</text>
</a>
</g>
</g>
<!-- Node4&#45;&gt;Node5 -->
<g id="edge4" class="edge">
<title>Node4&#45;&gt;Node5</title>
<path fill="none" stroke="midnightblue" d="M426.24,-440.45C398.36,-431.38 352.88,-416.59 321.75,-406.47"/>
<polygon fill="midnightblue" stroke="midnightblue" points="322.78,-403.13 312.19,-403.37 320.62,-409.79 322.78,-403.13"/>
</g>
<!-- Node19 -->
<g id="node19" class="node">
<title>Node19</title>
<g id="a_node19"><a xlink:href="../../d9/d18/txscaled_8h.html" target="_top" xlink:title=" ">
<polygon fill="none" stroke="black" points="431.32,-385.5 431.32,-403.5 500.68,-403.5 500.68,-385.5 431.32,-385.5"/>
<text text-anchor="middle" x="466" y="-391.5" font-family="Helvetica,sans-Serif" font-size="10.00">../txscaled.h</text>
</a>
</g>
</g>
<!-- Node4&#45;&gt;Node19 -->
<g id="edge21" class="edge">
<title>Node4&#45;&gt;Node19</title>
<path fill="none" stroke="midnightblue" d="M453.34,-440.22C455.38,-433.02 458.4,-422.35 460.98,-413.23"/>
<polygon fill="midnightblue" stroke="midnightblue" points="464.37,-414.12 463.72,-403.55 457.63,-412.22 464.37,-414.12"/>
</g>
<!-- Node27 -->
<g id="node27" class="node">
<title>Node27</title>
<g id="a_node27"><a xlink:title=" ">
<polygon fill="none" stroke="#bfbfbf" points="368.27,-385.5 368.27,-403.5 413.73,-403.5 413.73,-385.5 368.27,-385.5"/>
<text text-anchor="middle" x="391" y="-391.5" font-family="Helvetica,sans-Serif" font-size="10.00">cstring</text>
</a>
</g>
</g>
<!-- Node4&#45;&gt;Node27 -->
<g id="edge32" class="edge">
<title>Node4&#45;&gt;Node27</title>
<path fill="none" stroke="midnightblue" d="M441.89,-440.45C432.9,-432.51 418.95,-420.19 407.93,-410.45"/>
<polygon fill="midnightblue" stroke="midnightblue" points="410.01,-407.62 400.2,-403.63 405.38,-412.87 410.01,-407.62"/>
</g>
<!-- Node6 -->
<g id="node6" class="node">
<title>Node6</title>
<g id="a_node6"><a xlink:href="../../d5/daf/_istring_8h.html" target="_top" xlink:title=" ">
<polygon fill="none" stroke="black" points="393.77,-275.5 393.77,-293.5 474.23,-293.5 474.23,-275.5 393.77,-275.5"/>
<text text-anchor="middle" x="434" y="-281.5" font-family="Helvetica,sans-Serif" font-size="10.00">tralics/Istring.h</text>
</a>
</g>
</g>
<!-- Node5&#45;&gt;Node6 -->
<g id="edge5" class="edge">
<title>Node5&#45;&gt;Node6</title>
<path fill="none" stroke="midnightblue" d="M298.97,-385.38C323.6,-367.17 383.53,-322.83 414.6,-299.85"/>
<polygon fill="midnightblue" stroke="midnightblue" points="416.94,-302.47 422.9,-293.71 412.78,-296.84 416.94,-302.47"/>
</g>
<!-- Node7 -->
<g id="node7" class="node">
<title>Node7</title>
<g id="a_node7"><a xlink:href="../../dd/d47/_str_hash_8h.html" target="_top" xlink:title=" ">
<polygon fill="none" stroke="black" points="721.77,-220.5 721.77,-238.5 782.23,-238.5 782.23,-220.5 721.77,-220.5"/>
<text text-anchor="middle" x="752" y="-226.5" font-family="Helvetica,sans-Serif" font-size="10.00">StrHash.h</text>
</a>
</g>
</g>
<!-- Node6&#45;&gt;Node7 -->
<g id="edge6" class="edge">
<title>Node6&#45;&gt;Node7</title>
<path fill="none" stroke="midnightblue" d="M474.27,-276.79C535.26,-266.62 650.38,-247.44 711.5,-237.25"/>
<polygon fill="midnightblue" stroke="midnightblue" points="712.25,-240.67 721.54,-235.58 711.1,-233.77 712.25,-240.67"/>
</g>
<!-- Node16 -->
<g id="node16" class="node">
<title>Node16</title>
<g id="a_node16"><a xlink:href="../../d0/d0b/enums_8h.html" target="_top" xlink:title=" ">
<polygon fill="none" stroke="black" points="453.82,-165.5 453.82,-183.5 508.18,-183.5 508.18,-165.5 453.82,-165.5"/>
<text text-anchor="middle" x="481" y="-171.5" font-family="Helvetica,sans-Serif" font-size="10.00">enums.h</text>
</a>
</g>
</g>
<!-- Node6&#45;&gt;Node16 -->
<g id="edge15" class="edge">
<title>Node6&#45;&gt;Node16</title>
<path fill="none" stroke="midnightblue" d="M440.08,-275.35C446.3,-266.71 455.89,-252.46 462,-239 468.7,-224.25 473.77,-206.52 476.99,-193.55"/>
<polygon fill="midnightblue" stroke="midnightblue" points="480.45,-194.1 479.33,-183.57 473.64,-192.51 480.45,-194.1"/>
</g>
<!-- Node17 -->
<g id="node17" class="node">
<title>Node17</title>
<g id="a_node17"><a xlink:href="../../d8/d3c/util_8h.html" target="_top" xlink:title=" ">
<polygon fill="none" stroke="black" points="580.44,-220.5 580.44,-238.5 617.56,-238.5 617.56,-220.5 580.44,-220.5"/>
<text text-anchor="middle" x="599" y="-226.5" font-family="Helvetica,sans-Serif" font-size="10.00">util.h</text>
</a>
</g>
</g>
<!-- Node6&#45;&gt;Node17 -->
<g id="edge17" class="edge">
<title>Node6&#45;&gt;Node17</title>
<path fill="none" stroke="midnightblue" d="M459.06,-275.45C489.03,-265.82 539.07,-249.75 570.49,-239.66"/>
<polygon fill="midnightblue" stroke="midnightblue" points="571.93,-242.87 580.38,-236.48 569.78,-236.21 571.93,-242.87"/>
</g>
<!-- Node18 -->
<g id="node18" class="node">
<title>Node18</title>
<g id="a_node18"><a xlink:title=" ">
<polygon fill="none" stroke="#bfbfbf" points="414.61,-220.5 414.61,-238.5 453.39,-238.5 453.39,-220.5 414.61,-220.5"/>
<text text-anchor="middle" x="434" y="-226.5" font-family="Helvetica,sans-Serif" font-size="10.00">array</text>
</a>
</g>
</g>
<!-- Node6&#45;&gt;Node18 -->
<g id="edge20" class="edge">
<title>Node6&#45;&gt;Node18</title>
<path fill="none" stroke="midnightblue" d="M434,-275.22C434,-268.18 434,-257.81 434,-248.83"/>
<polygon fill="midnightblue" stroke="midnightblue" points="437.5,-248.55 434,-238.55 430.5,-248.55 437.5,-248.55"/>
</g>
<!-- Node8 -->
<g id="node8" class="node">
<title>Node8</title>
<g id="a_node8"><a xlink:href="../../d8/db5/consts_8h.html" target="_top" xlink:title=" ">
<polygon fill="none" stroke="black" points="454.38,-110.5 454.38,-128.5 507.62,-128.5 507.62,-110.5 454.38,-110.5"/>
<text text-anchor="middle" x="481" y="-116.5" font-family="Helvetica,sans-Serif" font-size="10.00">consts.h</text>
</a>
</g>
</g>
<!-- Node7&#45;&gt;Node8 -->
<g id="edge7" class="edge">
<title>Node7&#45;&gt;Node8</title>
<path fill="none" stroke="midnightblue" d="M750.49,-220.39C747.47,-206.66 739.36,-178.96 721,-165 689.57,-141.11 576.77,-128.42 517.68,-123.29"/>
<polygon fill="midnightblue" stroke="midnightblue" points="517.91,-119.79 507.65,-122.44 517.32,-126.77 517.91,-119.79"/>
</g>
<!-- Node13 -->
<g id="node13" class="node">
<title>Node13</title>
<g id="a_node13"><a xlink:title=" ">
<polygon fill="none" stroke="#bfbfbf" points="671.77,-165.5 671.77,-183.5 712.23,-183.5 712.23,-165.5 671.77,-165.5"/>
<text text-anchor="middle" x="692" y="-171.5" font-family="Helvetica,sans-Serif" font-size="10.00">string</text>
</a>
</g>
</g>
<!-- Node7&#45;&gt;Node13 -->
<g id="edge12" class="edge">
<title>Node7&#45;&gt;Node13</title>
<path fill="none" stroke="midnightblue" d="M742.89,-220.45C733.9,-212.51 719.95,-200.19 708.93,-190.45"/>
<polygon fill="midnightblue" stroke="midnightblue" points="711.01,-187.62 701.2,-183.63 706.38,-192.87 711.01,-187.62"/>
</g>
<!-- Node14 -->
<g id="node14" class="node">
<title>Node14</title>
<g id="a_node14"><a xlink:title=" ">
<polygon fill="none" stroke="#bfbfbf" points="767.7,-165.5 767.7,-183.5 854.3,-183.5 854.3,-165.5 767.7,-165.5"/>
<text text-anchor="middle" x="811" y="-171.5" font-family="Helvetica,sans-Serif" font-size="10.00">unordered_map</text>
</a>
</g>
</g>
<!-- Node7&#45;&gt;Node14 -->
<g id="edge13" class="edge">
<title>Node7&#45;&gt;Node14</title>
<path fill="none" stroke="midnightblue" d="M760.96,-220.45C769.8,-212.51 783.52,-200.19 794.36,-190.45"/>
<polygon fill="midnightblue" stroke="midnightblue" points="796.85,-192.91 801.95,-183.63 792.18,-187.7 796.85,-192.91"/>
</g>
<!-- Node15 -->
<g id="node15" class="node">
<title>Node15</title>
<g id="a_node15"><a xlink:title=" ">
<polygon fill="none" stroke="#bfbfbf" points="577.38,-165.5 577.38,-183.5 620.62,-183.5 620.62,-165.5 577.38,-165.5"/>
<text text-anchor="middle" x="599" y="-171.5" font-family="Helvetica,sans-Serif" font-size="10.00">vector</text>
</a>
</g>
</g>
<!-- Node7&#45;&gt;Node15 -->
<g id="edge14" class="edge">
<title>Node7&#45;&gt;Node15</title>
<path fill="none" stroke="midnightblue" d="M728.76,-220.45C702.59,-211.38 659.9,-196.6 630.69,-186.48"/>
<polygon fill="midnightblue" stroke="midnightblue" points="631.56,-183.07 620.96,-183.11 629.27,-189.69 631.56,-183.07"/>
</g>
<!-- Node9 -->
<g id="node9" class="node">
<title>Node9</title>
<g id="a_node9"><a xlink:href="../../d9/d49/types_8h.html" target="_top" xlink:title=" ">
<polygon fill="none" stroke="black" points="427.88,-55.5 427.88,-73.5 476.12,-73.5 476.12,-55.5 427.88,-55.5"/>
<text text-anchor="middle" x="452" y="-61.5" font-family="Helvetica,sans-Serif" font-size="10.00">types.h</text>
</a>
</g>
</g>
<!-- Node8&#45;&gt;Node9 -->
<g id="edge8" class="edge">
<title>Node8&#45;&gt;Node9</title>
<path fill="none" stroke="midnightblue" d="M476.47,-110.22C472.4,-102.79 466.31,-91.65 461.22,-82.34"/>
<polygon fill="midnightblue" stroke="midnightblue" points="464.28,-80.64 456.4,-73.55 458.13,-84 464.28,-80.64"/>
</g>
<!-- Node10 -->
<g id="node10" class="node">
<title>Node10</title>
<g id="a_node10"><a xlink:title=" ">
<polygon fill="none" stroke="#bfbfbf" points="361.88,-0.5 361.88,-18.5 410.12,-18.5 410.12,-0.5 361.88,-0.5"/>
<text text-anchor="middle" x="386" y="-6.5" font-family="Helvetica,sans-Serif" font-size="10.00">cassert</text>
</a>
</g>
</g>
<!-- Node9&#45;&gt;Node10 -->
<g id="edge9" class="edge">
<title>Node9&#45;&gt;Node10</title>
<path fill="none" stroke="midnightblue" d="M441.98,-55.45C431.99,-47.43 416.44,-34.95 404.26,-25.17"/>
<polygon fill="midnightblue" stroke="midnightblue" points="406.11,-22.16 396.12,-18.63 401.72,-27.62 406.11,-22.16"/>
</g>
<!-- Node11 -->
<g id="node11" class="node">
<title>Node11</title>
<g id="a_node11"><a xlink:title=" ">
<polygon fill="none" stroke="#bfbfbf" points="427.88,-0.5 427.88,-18.5 476.12,-18.5 476.12,-0.5 427.88,-0.5"/>
<text text-anchor="middle" x="452" y="-6.5" font-family="Helvetica,sans-Serif" font-size="10.00">cstddef</text>
</a>
</g>
</g>
<!-- Node9&#45;&gt;Node11 -->
<g id="edge10" class="edge">
<title>Node9&#45;&gt;Node11</title>
<path fill="none" stroke="midnightblue" d="M452,-55.22C452,-48.18 452,-37.81 452,-28.83"/>
<polygon fill="midnightblue" stroke="midnightblue" points="455.5,-28.55 452,-18.55 448.5,-28.55 455.5,-28.55"/>
</g>
<!-- Node12 -->
<g id="node12" class="node">
<title>Node12</title>
<g id="a_node12"><a xlink:title=" ">
<polygon fill="none" stroke="#bfbfbf" points="493.93,-0.5 493.93,-18.5 556.07,-18.5 556.07,-0.5 493.93,-0.5"/>
<text text-anchor="middle" x="525" y="-6.5" font-family="Helvetica,sans-Serif" font-size="10.00">type_traits</text>
</a>
</g>
</g>
<!-- Node9&#45;&gt;Node12 -->
<g id="edge11" class="edge">
<title>Node9&#45;&gt;Node12</title>
<path fill="none" stroke="midnightblue" d="M463.09,-55.45C474.34,-47.28 492,-34.46 505.58,-24.6"/>
<polygon fill="midnightblue" stroke="midnightblue" points="507.77,-27.33 513.81,-18.63 503.66,-21.67 507.77,-27.33"/>
</g>
<!-- Node16&#45;&gt;Node8 -->
<g id="edge16" class="edge">
<title>Node16&#45;&gt;Node8</title>
<path fill="none" stroke="midnightblue" d="M481,-165.22C481,-158.18 481,-147.81 481,-138.83"/>
<polygon fill="midnightblue" stroke="midnightblue" points="484.5,-138.55 481,-128.55 477.5,-138.55 484.5,-138.55"/>
</g>
<!-- Node17&#45;&gt;Node13 -->
<g id="edge18" class="edge">
<title>Node17&#45;&gt;Node13</title>
<path fill="none" stroke="midnightblue" d="M613.12,-220.45C627.87,-212.05 651.25,-198.72 668.73,-188.76"/>
<polygon fill="midnightblue" stroke="midnightblue" points="670.79,-191.62 677.74,-183.63 667.32,-185.54 670.79,-191.62"/>
</g>
<!-- Node17&#45;&gt;Node15 -->
<g id="edge19" class="edge">
<title>Node17&#45;&gt;Node15</title>
<path fill="none" stroke="midnightblue" d="M599,-220.22C599,-213.18 599,-202.81 599,-193.83"/>
<polygon fill="midnightblue" stroke="midnightblue" points="602.5,-193.55 599,-183.55 595.5,-193.55 602.5,-193.55"/>
</g>
<!-- Node20 -->
<g id="node20" class="node">
<title>Node20</title>
<g id="a_node20"><a xlink:href="../../dc/d91/txtokenlist_8h.html" target="_top" xlink:title=" ">
<polygon fill="none" stroke="black" points="472.6,-330.5 472.6,-348.5 541.4,-348.5 541.4,-330.5 472.6,-330.5"/>
<text text-anchor="middle" x="507" y="-336.5" font-family="Helvetica,sans-Serif" font-size="10.00">txtokenlist.h</text>
</a>
</g>
</g>
<!-- Node19&#45;&gt;Node20 -->
<g id="edge22" class="edge">
<title>Node19&#45;&gt;Node20</title>
<path fill="none" stroke="midnightblue" d="M472.41,-385.22C478.34,-377.55 487.32,-365.94 494.65,-356.47"/>
<polygon fill="midnightblue" stroke="midnightblue" points="497.42,-358.6 500.77,-348.55 491.89,-354.32 497.42,-358.6"/>
</g>
<!-- Node20&#45;&gt;Node6 -->
<g id="edge23" class="edge">
<title>Node20&#45;&gt;Node6</title>
<path fill="none" stroke="midnightblue" d="M495.91,-330.45C484.66,-322.28 467,-309.46 453.42,-299.6"/>
<polygon fill="midnightblue" stroke="midnightblue" points="455.34,-296.67 445.19,-293.63 451.23,-302.33 455.34,-296.67"/>
</g>
<!-- Node21 -->
<g id="node21" class="node">
<title>Node21</title>
<g id="a_node21"><a xlink:href="../../dd/dcd/_token_8h.html" target="_top" xlink:title=" ">
<polygon fill="none" stroke="black" points="530.04,-275.5 530.04,-293.5 609.96,-293.5 609.96,-275.5 530.04,-275.5"/>
<text text-anchor="middle" x="570" y="-281.5" font-family="Helvetica,sans-Serif" font-size="10.00">tralics/Token.h</text>
</a>
</g>
</g>
<!-- Node20&#45;&gt;Node21 -->
<g id="edge24" class="edge">
<title>Node20&#45;&gt;Node21</title>
<path fill="none" stroke="midnightblue" d="M516.57,-330.45C526.1,-322.43 540.94,-309.95 552.57,-300.17"/>
<polygon fill="midnightblue" stroke="midnightblue" points="554.94,-302.74 560.34,-293.63 550.44,-297.38 554.94,-302.74"/>
</g>
<!-- Node26 -->
<g id="node26" class="node">
<title>Node26</title>
<g id="a_node26"><a xlink:title=" ">
<polygon fill="none" stroke="#bfbfbf" points="627.61,-275.5 627.61,-293.5 666.39,-293.5 666.39,-275.5 627.61,-275.5"/>
<text text-anchor="middle" x="647" y="-281.5" font-family="Helvetica,sans-Serif" font-size="10.00">utility</text>
</a>
</g>
</g>
<!-- Node20&#45;&gt;Node26 -->
<g id="edge31" class="edge">
<title>Node20&#45;&gt;Node26</title>
<path fill="none" stroke="midnightblue" d="M528.26,-330.45C552.14,-321.41 591.03,-306.69 617.76,-296.57"/>
<polygon fill="midnightblue" stroke="midnightblue" points="619.24,-299.75 627.35,-292.94 616.76,-293.21 619.24,-299.75"/>
</g>
<!-- Node22 -->
<g id="node22" class="node">
<title>Node22</title>
<g id="a_node22"><a xlink:href="../../d2/d68/_cmd_chr_8h.html" target="_top" xlink:title=" ">
<polygon fill="none" stroke="black" points="335.49,-220.5 335.49,-238.5 396.51,-238.5 396.51,-220.5 335.49,-220.5"/>
<text text-anchor="middle" x="366" y="-226.5" font-family="Helvetica,sans-Serif" font-size="10.00">CmdChr.h</text>
</a>
</g>
</g>
<!-- Node21&#45;&gt;Node22 -->
<g id="edge25" class="edge">
<title>Node21&#45;&gt;Node22</title>
<path fill="none" stroke="midnightblue" d="M539.02,-275.45C503.61,-266.25 445.55,-251.17 406.57,-241.04"/>
<polygon fill="midnightblue" stroke="midnightblue" points="407.17,-237.58 396.61,-238.45 405.4,-244.35 407.17,-237.58"/>
</g>
<!-- Node25 -->
<g id="node25" class="node">
<title>Node25</title>
<g id="a_node25"><a xlink:title=" ">
<polygon fill="none" stroke="#bfbfbf" points="635.5,-220.5 635.5,-238.5 664.5,-238.5 664.5,-220.5 635.5,-220.5"/>
<text text-anchor="middle" x="649.61" y="-226.5" font-family="Helvetica,sans-Serif" font-size="10.00">list</text>
</a>
</g>
</g>
<!-- Node21&#45;&gt;Node25 -->
<g id="edge30" class="edge">
<title>Node21&#45;&gt;Node25</title>
<path fill="none" stroke="midnightblue" d="M582.15,-275.45C594.6,-267.2 614.2,-254.22 629.14,-244.32"/>
<polygon fill="midnightblue" stroke="midnightblue" points="631.33,-247.07 637.74,-238.63 627.47,-241.23 631.33,-247.07"/>
</g>
<!-- Node22&#45;&gt;Node16 -->
<g id="edge29" class="edge">
<title>Node22&#45;&gt;Node16</title>
<path fill="none" stroke="midnightblue" d="M383.47,-220.45C402.21,-211.81 432.22,-197.98 454.01,-187.94"/>
<polygon fill="midnightblue" stroke="midnightblue" points="455.75,-190.99 463.37,-183.63 452.82,-184.63 455.75,-190.99"/>
</g>
<!-- Node23 -->
<g id="node23" class="node">
<title>Node23</title>
<g id="a_node23"><a xlink:href="../../d8/d47/codepoint_8h.html" target="_top" xlink:title=" ">
<polygon fill="none" stroke="black" points="332.15,-165.5 332.15,-183.5 399.85,-183.5 399.85,-165.5 332.15,-165.5"/>
<text text-anchor="middle" x="366" y="-171.5" font-family="Helvetica,sans-Serif" font-size="10.00">codepoint.h</text>
</a>
</g>
</g>
<!-- Node22&#45;&gt;Node23 -->
<g id="edge26" class="edge">
<title>Node22&#45;&gt;Node23</title>
<path fill="none" stroke="midnightblue" d="M366,-220.22C366,-213.18 366,-202.81 366,-193.83"/>
<polygon fill="midnightblue" stroke="midnightblue" points="369.5,-193.55 366,-183.55 362.5,-193.55 369.5,-193.55"/>
</g>
<!-- Node23&#45;&gt;Node9 -->
<g id="edge27" class="edge">
<title>Node23&#45;&gt;Node9</title>
<path fill="none" stroke="midnightblue" d="M372.46,-165.38C386.6,-147.63 420.47,-105.1 439.13,-81.67"/>
<polygon fill="midnightblue" stroke="midnightblue" points="441.97,-83.71 445.46,-73.71 436.49,-79.35 441.97,-83.71"/>
</g>
<!-- Node24 -->
<g id="node24" class="node">
<title>Node24</title>
<g id="a_node24"><a xlink:title=" ">
<polygon fill="none" stroke="#bfbfbf" points="340.49,-110.5 340.49,-128.5 391.51,-128.5 391.51,-110.5 340.49,-110.5"/>
<text text-anchor="middle" x="366" y="-116.5" font-family="Helvetica,sans-Serif" font-size="10.00">optional</text>
</a>
</g>
</g>
<!-- Node23&#45;&gt;Node24 -->
<g id="edge28" class="edge">
<title>Node23&#45;&gt;Node24</title>
<path fill="none" stroke="midnightblue" d="M366,-165.22C366,-158.18 366,-147.81 366,-138.83"/>
<polygon fill="midnightblue" stroke="midnightblue" points="369.5,-138.55 366,-128.55 362.5,-138.55 369.5,-138.55"/>
</g>
<!-- Node29&#45;&gt;Node6 -->
<g id="edge35" class="edge">
<title>Node29&#45;&gt;Node6</title>
<path fill="none" stroke="midnightblue" d="M299.15,-330.45C326.08,-321.47 369.82,-306.89 400.16,-296.78"/>
<polygon fill="midnightblue" stroke="midnightblue" points="401.51,-300.02 409.89,-293.54 399.29,-293.38 401.51,-300.02"/>
</g>
<!-- Node29&#45;&gt;Node23 -->
<g id="edge36" class="edge">
<title>Node29&#45;&gt;Node23</title>
<path fill="none" stroke="midnightblue" d="M271.88,-330.33C267.64,-317.89 261.41,-293.67 269,-275 284.23,-237.55 321.09,-206.49 344.73,-189.5"/>
<polygon fill="midnightblue" stroke="midnightblue" points="346.87,-192.29 353.08,-183.7 342.87,-186.54 346.87,-192.29"/>
</g>
<!-- Node30 -->
<g id="node30" class="node">
<title>Node30</title>
<g id="a_node30"><a xlink:title=" ">
<polygon fill="none" stroke="#bfbfbf" points="277.77,-275.5 277.77,-293.5 338.23,-293.5 338.23,-275.5 277.77,-275.5"/>
<text text-anchor="middle" x="308" y="-281.5" font-family="Helvetica,sans-Serif" font-size="10.00">filesystem</text>
</a>
</g>
</g>
<!-- Node29&#45;&gt;Node30 -->
<g id="edge37" class="edge">
<title>Node29&#45;&gt;Node30</title>
<path fill="none" stroke="midnightblue" d="M280.16,-330.22C284.83,-322.71 291.87,-311.41 297.69,-302.05"/>
<polygon fill="midnightblue" stroke="midnightblue" points="300.67,-303.89 302.99,-293.55 294.73,-300.19 300.67,-303.89"/>
</g>
<!-- Node32 -->
<g id="node32" class="node">
<title>Node32</title>
<g id="a_node32"><a xlink:href="../../d4/de9/_main_class_8h.html" target="_top" xlink:title=" ">
<polygon fill="none" stroke="black" points="66.04,-550.5 66.04,-568.5 165.96,-568.5 165.96,-550.5 66.04,-550.5"/>
<text text-anchor="middle" x="116" y="-556.5" font-family="Helvetica,sans-Serif" font-size="10.00">tralics/MainClass.h</text>
</a>
</g>
</g>
<!-- Node31&#45;&gt;Node32 -->
<g id="edge39" class="edge">
<title>Node31&#45;&gt;Node32</title>
<path fill="none" stroke="midnightblue" d="M156.5,-605.22C149.48,-597.47 138.82,-585.7 130.2,-576.18"/>
<polygon fill="midnightblue" stroke="midnightblue" points="132.6,-573.61 123.29,-568.55 127.41,-578.31 132.6,-573.61"/>
</g>
<!-- Node35 -->
<g id="node35" class="node">
<title>Node35</title>
<g id="a_node35"><a xlink:href="../../d2/d06/txlogger_8h.html" target="_top" xlink:title=" ">
<polygon fill="none" stroke="black" points="157.32,-495.5 157.32,-513.5 216.68,-513.5 216.68,-495.5 157.32,-495.5"/>
<text text-anchor="middle" x="187" y="-501.5" font-family="Helvetica,sans-Serif" font-size="10.00">txlogger.h</text>
</a>
</g>
</g>
<!-- Node31&#45;&gt;Node35 -->
<g id="edge43" class="edge">
<title>Node31&#45;&gt;Node35</title>
<path fill="none" stroke="midnightblue" d="M135.98,-608.53C97.17,-600.38 34.27,-581.81 57,-550 77.29,-521.61 116.82,-511.14 147,-507.37"/>
<polygon fill="midnightblue" stroke="midnightblue" points="147.65,-510.82 157.23,-506.3 146.92,-503.86 147.65,-510.82"/>
</g>
<!-- Node37 -->
<g id="node37" class="node">
<title>Node37</title>
<g id="a_node37"><a xlink:href="../../d5/d08/txparam_8h.html" target="_top" xlink:title=" ">
<polygon fill="none" stroke="black" points="183.77,-550.5 183.77,-568.5 244.23,-568.5 244.23,-550.5 183.77,-550.5"/>
<text text-anchor="middle" x="214" y="-556.5" font-family="Helvetica,sans-Serif" font-size="10.00">txparam.h</text>
</a>
</g>
</g>
<!-- Node31&#45;&gt;Node37 -->
<g id="edge49" class="edge">
<title>Node31&#45;&gt;Node37</title>
<path fill="none" stroke="midnightblue" d="M171.81,-605.22C179.19,-597.39 190.45,-585.46 199.48,-575.89"/>
<polygon fill="midnightblue" stroke="midnightblue" points="202.09,-578.23 206.41,-568.55 197,-573.42 202.09,-578.23"/>
</g>
<!-- Node33 -->
<g id="node33" class="node">
<title>Node33</title>
<g id="a_node33"><a xlink:href="../../de/d29/txio_8h.html" target="_top" xlink:title=" ">
<polygon fill="none" stroke="black" points="247.88,-495.5 247.88,-513.5 296.12,-513.5 296.12,-495.5 247.88,-495.5"/>
<text text-anchor="middle" x="272" y="-501.5" font-family="Helvetica,sans-Serif" font-size="10.00">../txio.h</text>
</a>
</g>
</g>
<!-- Node32&#45;&gt;Node33 -->
<g id="edge40" class="edge">
<title>Node32&#45;&gt;Node33</title>
<path fill="none" stroke="midnightblue" d="M139.69,-550.45C166.11,-541.47 209.03,-526.89 238.79,-516.78"/>
<polygon fill="midnightblue" stroke="midnightblue" points="240,-520.07 248.34,-513.54 237.75,-513.44 240,-520.07"/>
</g>
<!-- Node33&#45;&gt;Node4 -->
<g id="edge41" class="edge">
<title>Node33&#45;&gt;Node4</title>
<path fill="none" stroke="midnightblue" d="M296.14,-496.35C326.97,-487.22 380.56,-471.36 415.91,-460.89"/>
<polygon fill="midnightblue" stroke="midnightblue" points="417.21,-464.16 425.8,-457.96 415.22,-457.44 417.21,-464.16"/>
</g>
<!-- Node34 -->
<g id="node34" class="node">
<title>Node34</title>
<g id="a_node34"><a xlink:title=" ">
<polygon fill="none" stroke="#bfbfbf" points="258.33,-440.5 258.33,-458.5 307.67,-458.5 307.67,-440.5 258.33,-440.5"/>
<text text-anchor="middle" x="283" y="-446.5" font-family="Helvetica,sans-Serif" font-size="10.00">fstream</text>
</a>
</g>
</g>
<!-- Node33&#45;&gt;Node34 -->
<g id="edge42" class="edge">
<title>Node33&#45;&gt;Node34</title>
<path fill="none" stroke="midnightblue" d="M273.72,-495.22C275.2,-488.1 277.38,-477.58 279.26,-468.53"/>
<polygon fill="midnightblue" stroke="midnightblue" points="282.72,-469.05 281.33,-458.55 275.87,-467.63 282.72,-469.05"/>
</g>
<!-- Node35&#45;&gt;Node4 -->
<g id="edge44" class="edge">
<title>Node35&#45;&gt;Node4</title>
<path fill="none" stroke="midnightblue" d="M216.88,-498.25C259.05,-490.72 338.65,-476.1 415.89,-459.15"/>
<polygon fill="midnightblue" stroke="midnightblue" points="416.78,-462.54 425.78,-456.96 415.27,-455.71 416.78,-462.54"/>
</g>
<!-- Node35&#45;&gt;Node5 -->
<g id="edge45" class="edge">
<title>Node35&#45;&gt;Node5</title>
<path fill="none" stroke="midnightblue" d="M172.89,-495.31C153.91,-483.24 124.14,-459.95 139,-440 165.24,-404.78 218.29,-396.35 253.49,-394.89"/>
<polygon fill="midnightblue" stroke="midnightblue" points="253.88,-398.38 263.79,-394.64 253.71,-391.38 253.88,-398.38"/>
</g>
<!-- Node35&#45;&gt;Node19 -->
<g id="edge46" class="edge">
<title>Node35&#45;&gt;Node19</title>
<path fill="none" stroke="midnightblue" d="M192.42,-495.38C202.06,-481.62 223.58,-453.88 249,-440 250.9,-438.96 357.95,-417.28 420.96,-404.57"/>
<polygon fill="midnightblue" stroke="midnightblue" points="421.94,-407.94 431.05,-402.53 420.55,-401.08 421.94,-407.94"/>
</g>
<!-- Node35&#45;&gt;Node34 -->
<g id="edge47" class="edge">
<title>Node35&#45;&gt;Node34</title>
<path fill="none" stroke="midnightblue" d="M201.58,-495.45C216.95,-486.97 241.38,-473.48 259.48,-463.49"/>
<polygon fill="midnightblue" stroke="midnightblue" points="261.22,-466.52 268.28,-458.63 257.84,-460.39 261.22,-466.52"/>
</g>
<!-- Node36 -->
<g id="node36" class="node">
<title>Node36</title>
<g id="a_node36"><a xlink:title=" ">
<polygon fill="none" stroke="#bfbfbf" points="147.83,-440.5 147.83,-458.5 202.17,-458.5 202.17,-440.5 147.83,-440.5"/>
<text text-anchor="middle" x="175" y="-446.5" font-family="Helvetica,sans-Serif" font-size="10.00">iostream</text>
</a>
</g>
</g>
<!-- Node35&#45;&gt;Node36 -->
<g id="edge48" class="edge">
<title>Node35&#45;&gt;Node36</title>
<path fill="none" stroke="midnightblue" d="M185.12,-495.22C183.51,-488.1 181.13,-477.58 179.08,-468.53"/>
<polygon fill="midnightblue" stroke="midnightblue" points="182.44,-467.53 176.82,-458.55 175.62,-469.08 182.44,-467.53"/>
</g>
<!-- Node37&#45;&gt;Node33 -->
<g id="edge50" class="edge">
<title>Node37&#45;&gt;Node33</title>
<path fill="none" stroke="midnightblue" d="M223.06,-550.22C231.8,-542.24 245.21,-529.98 255.78,-520.32"/>
<polygon fill="midnightblue" stroke="midnightblue" points="258.17,-522.88 263.19,-513.55 253.45,-517.71 258.17,-522.88"/>
</g>
<!-- Node38&#45;&gt;Node33 -->
<g id="edge73" class="edge">
<title>Node38&#45;&gt;Node33</title>
<path fill="none" stroke="midnightblue" d="M487.77,-611.33C449.69,-607.5 383.27,-597.04 334,-569 313.15,-557.14 294.73,-536.22 283.49,-521.64"/>
<polygon fill="midnightblue" stroke="midnightblue" points="286.24,-519.47 277.47,-513.53 280.62,-523.64 286.24,-519.47"/>
</g>
<!-- Node39 -->
<g id="node39" class="node">
<title>Node39</title>
<g id="a_node39"><a xlink:href="../../d8/dd6/_e_q_t_b_8h.html" target="_top" xlink:title=" ">
<polygon fill="none" stroke="black" points="520.77,-550.5 520.77,-568.5 601.23,-568.5 601.23,-550.5 520.77,-550.5"/>
<text text-anchor="middle" x="561" y="-556.5" font-family="Helvetica,sans-Serif" font-size="10.00">tralics/EQTB.h</text>
</a>
</g>
</g>
<!-- Node38&#45;&gt;Node39 -->
<g id="edge52" class="edge">
<title>Node38&#45;&gt;Node39</title>
<path fill="none" stroke="midnightblue" d="M524.72,-605.22C530.94,-597.55 540.36,-585.94 548.04,-576.47"/>
<polygon fill="midnightblue" stroke="midnightblue" points="550.89,-578.52 554.47,-568.55 545.45,-574.11 550.89,-578.52"/>
</g>
<!-- Node40 -->
<g id="node40" class="node">
<title>Node40</title>
<g id="a_node40"><a xlink:href="../../da/d27/_hashtab_8h.html" target="_top" xlink:title=" ">
<polygon fill="none" stroke="black" points="616.76,-495.5 616.76,-513.5 707.24,-513.5 707.24,-495.5 616.76,-495.5"/>
<text text-anchor="middle" x="662" y="-501.5" font-family="Helvetica,sans-Serif" font-size="10.00">tralics/Hashtab.h</text>
</a>
</g>
</g>
<!-- Node38&#45;&gt;Node40 -->
<g id="edge54" class="edge">
<title>Node38&#45;&gt;Node40</title>
<path fill="none" stroke="midnightblue" d="M548.04,-606.62C571.2,-600.09 602.89,-588.34 625,-569 639.23,-556.55 649.39,-537.23 655.42,-523.17"/>
<polygon fill="midnightblue" stroke="midnightblue" points="658.76,-524.23 659.22,-513.64 652.26,-521.63 658.76,-524.23"/>
</g>
<!-- Node42 -->
<g id="node42" class="node">
<title>Node42</title>
<g id="a_node42"><a xlink:href="../../d3/d6b/txcond_8h.html" target="_top" xlink:title=" ">
<polygon fill="none" stroke="black" points="509.1,-220.5 509.1,-238.5 562.9,-238.5 562.9,-220.5 509.1,-220.5"/>
<text text-anchor="middle" x="536" y="-226.5" font-family="Helvetica,sans-Serif" font-size="10.00">txcond.h</text>
</a>
</g>
</g>
<!-- Node38&#45;&gt;Node42 -->
<g id="edge61" class="edge">
<title>Node38&#45;&gt;Node42</title>
<path fill="none" stroke="midnightblue" d="M487.91,-612.53C454.21,-609.85 400.01,-600.52 367,-569 342.44,-545.55 346.31,-528.91 348,-495 350.45,-445.93 334.64,-427.67 359,-385 392.89,-325.63 433.18,-340.81 483,-294 498.48,-279.46 513.76,-260.53 523.9,-247.13"/>
<polygon fill="midnightblue" stroke="midnightblue" points="526.89,-248.98 530.05,-238.86 521.28,-244.8 526.89,-248.98"/>
</g>
<!-- Node43 -->
<g id="node43" class="node">
<title>Node43</title>
<g id="a_node43"><a xlink:href="../../d7/d4d/txfonts_8h.html" target="_top" xlink:title=" ">
<polygon fill="none" stroke="black" points="727.1,-330.5 727.1,-348.5 780.9,-348.5 780.9,-330.5 727.1,-330.5"/>
<text text-anchor="middle" x="754" y="-336.5" font-family="Helvetica,sans-Serif" font-size="10.00">txfonts.h</text>
</a>
</g>
</g>
<!-- Node38&#45;&gt;Node43 -->
<g id="edge64" class="edge">
<title>Node38&#45;&gt;Node43</title>
<path fill="none" stroke="midnightblue" d="M548,-614.07C615.41,-613.63 773,-602.26 773,-505.5 773,-505.5 773,-505.5 773,-448.5 773,-416.39 764.75,-379.7 759.12,-358.41"/>
<polygon fill="midnightblue" stroke="midnightblue" points="762.43,-357.26 756.41,-348.54 755.69,-359.11 762.43,-357.26"/>
</g>
<!-- Node44 -->
<g id="node44" class="node">
<title>Node44</title>
<g id="a_node44"><a xlink:href="../../d7/d7e/txhash_8h.html" target="_top" xlink:title=" ">
<polygon fill="none" stroke="black" points="545.1,-495.5 545.1,-513.5 598.9,-513.5 598.9,-495.5 545.1,-495.5"/>
<text text-anchor="middle" x="572" y="-501.5" font-family="Helvetica,sans-Serif" font-size="10.00">txhash.h</text>
</a>
</g>
</g>
<!-- Node38&#45;&gt;Node44 -->
<g id="edge67" class="edge">
<title>Node38&#45;&gt;Node44</title>
<path fill="none" stroke="midnightblue" d="M548.07,-607.71C569.39,-601.86 596.52,-590.49 610,-569 620.33,-552.53 605.17,-533.35 591.05,-520.41"/>
<polygon fill="midnightblue" stroke="midnightblue" points="592.93,-517.42 583.05,-513.58 588.39,-522.74 592.93,-517.42"/>
</g>
<!-- Node45 -->
<g id="node45" class="node">
<title>Node45</title>
<g id="a_node45"><a xlink:href="../../de/d7c/tximage_8h.html" target="_top" xlink:title=" ">
<polygon fill="none" stroke="black" points="649.32,-330.5 649.32,-348.5 708.68,-348.5 708.68,-330.5 649.32,-330.5"/>
<text text-anchor="middle" x="679" y="-336.5" font-family="Helvetica,sans-Serif" font-size="10.00">tximage.h</text>
</a>
</g>
</g>
<!-- Node38&#45;&gt;Node45 -->
<g id="edge70" class="edge">
<title>Node38&#45;&gt;Node45</title>
<path fill="none" stroke="midnightblue" d="M548.17,-612.08C607.8,-607.47 735,-587.98 735,-505.5 735,-505.5 735,-505.5 735,-448.5 735,-412.44 710.09,-376.44 693.5,-356.46"/>
<polygon fill="midnightblue" stroke="midnightblue" points="695.97,-353.97 686.79,-348.69 690.68,-358.55 695.97,-353.97"/>
</g>
<!-- Node46 -->
<g id="node46" class="node">
<title>Node46</title>
<g id="a_node46"><a xlink:href="../../dc/d65/txstack_8h.html" target="_top" xlink:title=" ">
<polygon fill="none" stroke="black" points="376.27,-550.5 376.27,-568.5 431.73,-568.5 431.73,-550.5 376.27,-550.5"/>
<text text-anchor="middle" x="404" y="-556.5" font-family="Helvetica,sans-Serif" font-size="10.00">txstack.h</text>
</a>
</g>
</g>
<!-- Node38&#45;&gt;Node46 -->
<g id="edge74" class="edge">
<title>Node38&#45;&gt;Node46</title>
<path fill="none" stroke="midnightblue" d="M500.69,-605.45C482.1,-596.81 452.35,-582.98 430.76,-572.94"/>
<polygon fill="midnightblue" stroke="midnightblue" points="432.02,-569.67 421.48,-568.63 429.07,-576.01 432.02,-569.67"/>
</g>
<!-- Node48 -->
<g id="node48" class="node">
<title>Node48</title>
<g id="a_node48"><a xlink:href="../../d8/d3d/txstats_8h.html" target="_top" xlink:title=" ">
<polygon fill="none" stroke="black" points="449.38,-550.5 449.38,-568.5 502.62,-568.5 502.62,-550.5 449.38,-550.5"/>
<text text-anchor="middle" x="476" y="-556.5" font-family="Helvetica,sans-Serif" font-size="10.00">txstats.h</text>
</a>
</g>
</g>
<!-- Node38&#45;&gt;Node48 -->
<g id="edge77" class="edge">
<title>Node38&#45;&gt;Node48</title>
<path fill="none" stroke="midnightblue" d="M511.44,-605.22C505.36,-597.55 496.16,-585.94 488.65,-576.47"/>
<polygon fill="midnightblue" stroke="midnightblue" points="491.33,-574.21 482.38,-568.55 485.85,-578.56 491.33,-574.21"/>
</g>
<!-- Node39&#45;&gt;Node19 -->
<g id="edge53" class="edge">
<title>Node39&#45;&gt;Node19</title>
<path fill="none" stroke="midnightblue" d="M556.16,-550.19C541.29,-524.68 496.09,-447.13 475.91,-412.5"/>
<polygon fill="midnightblue" stroke="midnightblue" points="478.78,-410.47 470.72,-403.6 472.73,-414 478.78,-410.47"/>
</g>
<!-- Node40&#45;&gt;Node4 -->
<g id="edge59" class="edge">
<title>Node40&#45;&gt;Node4</title>
<path fill="none" stroke="midnightblue" d="M629.95,-495.45C591.24,-485.73 526.34,-469.42 486.25,-459.35"/>
<polygon fill="midnightblue" stroke="midnightblue" points="486.93,-455.92 476.38,-456.87 485.22,-462.71 486.93,-455.92"/>
</g>
<!-- Node40&#45;&gt;Node14 -->
<g id="edge60" class="edge">
<title>Node40&#45;&gt;Node14</title>
<path fill="none" stroke="midnightblue" d="M694.7,-495.48C738.56,-482.54 811,-452.53 811,-395.5 811,-395.5 811,-395.5 811,-283.5 811,-252.02 811,-215.37 811,-193.88"/>
<polygon fill="midnightblue" stroke="midnightblue" points="814.5,-193.63 811,-183.63 807.5,-193.63 814.5,-193.63"/>
</g>
<!-- Node41 -->
<g id="node41" class="node">
<title>Node41</title>
<g id="a_node41"><a xlink:href="../../d3/d01/txeqtb_8h.html" target="_top" xlink:title=" ">
<polygon fill="none" stroke="black" points="544.04,-440.5 544.04,-458.5 603.96,-458.5 603.96,-440.5 544.04,-440.5"/>
<text text-anchor="middle" x="574" y="-446.5" font-family="Helvetica,sans-Serif" font-size="10.00">../txeqtb.h</text>
</a>
</g>
</g>
<!-- Node40&#45;&gt;Node41 -->
<g id="edge55" class="edge">
<title>Node40&#45;&gt;Node41</title>
<path fill="none" stroke="midnightblue" d="M648.63,-495.45C634.81,-487.12 612.97,-473.97 596.48,-464.04"/>
<polygon fill="midnightblue" stroke="midnightblue" points="597.86,-460.79 587.49,-458.63 594.25,-466.78 597.86,-460.79"/>
</g>
<!-- Node41&#45;&gt;Node19 -->
<g id="edge58" class="edge">
<title>Node41&#45;&gt;Node19</title>
<path fill="none" stroke="midnightblue" d="M557.6,-440.45C540.07,-431.85 512.06,-418.1 491.63,-408.08"/>
<polygon fill="midnightblue" stroke="midnightblue" points="493.08,-404.89 482.56,-403.63 489.99,-411.17 493.08,-404.89"/>
</g>
<!-- Node41&#45;&gt;Node21 -->
<g id="edge57" class="edge">
<title>Node41&#45;&gt;Node21</title>
<path fill="none" stroke="midnightblue" d="M573.8,-440.19C573.18,-415.01 571.32,-339.11 570.45,-303.86"/>
<polygon fill="midnightblue" stroke="midnightblue" points="573.94,-303.51 570.2,-293.6 566.95,-303.68 573.94,-303.51"/>
</g>
<!-- Node41&#45;&gt;Node22 -->
<g id="edge56" class="edge">
<title>Node41&#45;&gt;Node22</title>
<path fill="none" stroke="midnightblue" d="M566.49,-440.28C554.89,-427.77 531.69,-403.47 510,-385 457.68,-340.45 424.71,-350.08 385,-294 375.44,-280.5 370.63,-262.14 368.24,-248.63"/>
<polygon fill="midnightblue" stroke="midnightblue" points="371.69,-248.02 366.76,-238.64 364.77,-249.05 371.69,-248.02"/>
</g>
<!-- Node42&#45;&gt;Node15 -->
<g id="edge63" class="edge">
<title>Node42&#45;&gt;Node15</title>
<path fill="none" stroke="midnightblue" d="M545.57,-220.45C555.1,-212.43 569.94,-199.95 581.57,-190.17"/>
<polygon fill="midnightblue" stroke="midnightblue" points="583.94,-192.74 589.34,-183.63 579.44,-187.38 583.94,-192.74"/>
</g>
<!-- Node42&#45;&gt;Node16 -->
<g id="edge62" class="edge">
<title>Node42&#45;&gt;Node16</title>
<path fill="none" stroke="midnightblue" d="M527.41,-220.22C519.21,-212.32 506.66,-200.22 496.68,-190.61"/>
<polygon fill="midnightblue" stroke="midnightblue" points="498.98,-187.97 489.35,-183.55 494.13,-193.01 498.98,-187.97"/>
</g>
<!-- Node43&#45;&gt;Node7 -->
<g id="edge66" class="edge">
<title>Node43&#45;&gt;Node7</title>
<path fill="none" stroke="midnightblue" d="M753.85,-330.38C753.53,-313.18 752.78,-272.7 752.34,-248.89"/>
<polygon fill="midnightblue" stroke="midnightblue" points="755.84,-248.65 752.15,-238.71 748.84,-248.77 755.84,-248.65"/>
</g>
<!-- Node43&#45;&gt;Node26 -->
<g id="edge65" class="edge">
<title>Node43&#45;&gt;Node26</title>
<path fill="none" stroke="midnightblue" d="M737.75,-330.45C720.39,-321.85 692.64,-308.1 672.39,-298.08"/>
<polygon fill="midnightblue" stroke="midnightblue" points="673.92,-294.93 663.4,-293.63 670.81,-301.2 673.92,-294.93"/>
</g>
<!-- Node44&#45;&gt;Node4 -->
<g id="edge68" class="edge">
<title>Node44&#45;&gt;Node4</title>
<path fill="none" stroke="midnightblue" d="M553.62,-495.45C533.72,-486.73 501.75,-472.73 478.78,-462.67"/>
<polygon fill="midnightblue" stroke="midnightblue" points="480.11,-459.43 469.55,-458.63 477.31,-465.84 480.11,-459.43"/>
</g>
<!-- Node44&#45;&gt;Node41 -->
<g id="edge69" class="edge">
<title>Node44&#45;&gt;Node41</title>
<path fill="none" stroke="midnightblue" d="M572.31,-495.22C572.58,-488.18 572.97,-477.81 573.31,-468.83"/>
<polygon fill="midnightblue" stroke="midnightblue" points="576.82,-468.67 573.7,-458.55 569.82,-468.41 576.82,-468.67"/>
</g>
<!-- Node45&#45;&gt;Node13 -->
<g id="edge71" class="edge">
<title>Node45&#45;&gt;Node13</title>
<path fill="none" stroke="midnightblue" d="M679.66,-330.19C681.67,-305.01 687.72,-229.11 690.54,-193.86"/>
<polygon fill="midnightblue" stroke="midnightblue" points="694.05,-193.84 691.35,-183.6 687.07,-193.29 694.05,-193.84"/>
</g>
<!-- Node45&#45;&gt;Node26 -->
<g id="edge72" class="edge">
<title>Node45&#45;&gt;Node26</title>
<path fill="none" stroke="midnightblue" d="M674,-330.22C669.51,-322.79 662.79,-311.65 657.17,-302.34"/>
<polygon fill="midnightblue" stroke="midnightblue" points="660.03,-300.3 651.86,-293.55 654.03,-303.92 660.03,-300.3"/>
</g>
<!-- Node46&#45;&gt;Node3 -->
<g id="edge75" class="edge">
<title>Node46&#45;&gt;Node3</title>
<path fill="none" stroke="midnightblue" d="M402.12,-550.22C400.51,-543.1 398.13,-532.58 396.08,-523.53"/>
<polygon fill="midnightblue" stroke="midnightblue" points="399.44,-522.53 393.82,-513.55 392.62,-524.08 399.44,-522.53"/>
</g>
<!-- Node47 -->
<g id="node47" class="node">
<title>Node47</title>
<g id="a_node47"><a xlink:href="../../d4/da4/txatt_8h.html" target="_top" xlink:title=" ">
<polygon fill="none" stroke="black" points="445.38,-495.5 445.38,-513.5 488.62,-513.5 488.62,-495.5 445.38,-495.5"/>
<text text-anchor="middle" x="467" y="-501.5" font-family="Helvetica,sans-Serif" font-size="10.00">txatt.h</text>
</a>
</g>
</g>
<!-- Node46&#45;&gt;Node47 -->
<g id="edge76" class="edge">
<title>Node46&#45;&gt;Node47</title>
<path fill="none" stroke="midnightblue" d="M413.57,-550.45C423.1,-542.43 437.94,-529.95 449.57,-520.17"/>
<polygon fill="midnightblue" stroke="midnightblue" points="451.94,-522.74 457.34,-513.63 447.44,-517.38 451.94,-522.74"/>
</g>
</g>
</svg>
