<?xml version="1.0" encoding="UTF-8" standalone="no"?>
<!DOCTYPE svg PUBLIC "-//W3C//DTD SVG 1.1//EN"
 "http://www.w3.org/Graphics/SVG/1.1/DTD/svg11.dtd">
<!-- Generated by graphviz version 2.42.3 (20191010.1750)
 -->
<!-- Title: txtitlepage.cpp Pages: 1 -->
<svg width="947pt" height="742pt"
 viewBox="0.00 0.00 946.65 742.00" xmlns="http://www.w3.org/2000/svg" xmlns:xlink="http://www.w3.org/1999/xlink">
<g id="graph0" class="graph" transform="scale(1 1) rotate(0) translate(4 738)">
<title>txtitlepage.cpp</title>
<!-- Node1 -->
<g id="node1" class="node">
<title>Node1</title>
<g id="a_node1"><a xlink:title=" ">
<polygon fill="#bfbfbf" stroke="black" points="409.44,-715.5 409.44,-733.5 489.93,-733.5 489.93,-715.5 409.44,-715.5"/>
<text text-anchor="middle" x="449.68" y="-721.5" font-family="Helvetica,sans-Serif" font-size="10.00">txtitlepage.cpp</text>
</a>
</g>
</g>
<!-- Node2 -->
<g id="node2" class="node">
<title>Node2</title>
<g id="a_node2"><a xlink:href="../../d5/d87/globals_8h.html" target="_top" xlink:title=" ">
<polygon fill="none" stroke="black" points="251.22,-440.5 251.22,-458.5 336.15,-458.5 336.15,-440.5 251.22,-440.5"/>
<text text-anchor="middle" x="293.68" y="-446.5" font-family="Helvetica,sans-Serif" font-size="10.00">tralics/globals.h</text>
</a>
</g>
</g>
<!-- Node1&#45;&gt;Node2 -->
<g id="edge1" class="edge">
<title>Node1&#45;&gt;Node2</title>
<path fill="none" stroke="midnightblue" d="M425.31,-715.49C388.17,-701.56 321.68,-669.14 321.68,-615.5 321.68,-615.5 321.68,-615.5 321.68,-558.5 321.68,-525.84 309.54,-489.35 301.25,-468.25"/>
<polygon fill="midnightblue" stroke="midnightblue" points="304.37,-466.64 297.35,-458.71 297.89,-469.29 304.37,-466.64"/>
</g>
<!-- Node14 -->
<g id="node14" class="node">
<title>Node14</title>
<g id="a_node14"><a xlink:href="../../d7/d79/txinline_8h.html" target="_top" xlink:title=" ">
<polygon fill="none" stroke="black" points="128.95,-660.5 128.95,-678.5 184.42,-678.5 184.42,-660.5 128.95,-660.5"/>
<text text-anchor="middle" x="156.68" y="-666.5" font-family="Helvetica,sans-Serif" font-size="10.00">txinline.h</text>
</a>
</g>
</g>
<!-- Node1&#45;&gt;Node14 -->
<g id="edge14" class="edge">
<title>Node1&#45;&gt;Node14</title>
<path fill="none" stroke="midnightblue" d="M409.25,-716.19C352.47,-705.92 249.87,-687.36 194.53,-677.35"/>
<polygon fill="midnightblue" stroke="midnightblue" points="194.9,-673.86 184.44,-675.52 193.66,-680.74 194.9,-673.86"/>
</g>
<!-- Node32 -->
<g id="node32" class="node">
<title>Node32</title>
<g id="a_node32"><a xlink:href="../../d2/d1b/txparser_8h.html" target="_top" xlink:title=" ">
<polygon fill="none" stroke="black" points="518.73,-660.5 518.73,-678.5 578.64,-678.5 578.64,-660.5 518.73,-660.5"/>
<text text-anchor="middle" x="548.68" y="-666.5" font-family="Helvetica,sans-Serif" font-size="10.00">txparser.h</text>
</a>
</g>
</g>
<!-- Node1&#45;&gt;Node32 -->
<g id="edge42" class="edge">
<title>Node1&#45;&gt;Node32</title>
<path fill="none" stroke="midnightblue" d="M464.72,-715.45C480.64,-706.93 506,-693.35 524.68,-683.35"/>
<polygon fill="midnightblue" stroke="midnightblue" points="526.34,-686.43 533.51,-678.63 523.04,-680.26 526.34,-686.43"/>
</g>
<!-- Node43 -->
<g id="node43" class="node">
<title>Node43</title>
<g id="a_node43"><a xlink:href="../../d5/d7f/txtitlepage_8h.html" target="_top" xlink:title=" ">
<polygon fill="none" stroke="black" points="868.72,-495.5 868.72,-513.5 938.65,-513.5 938.65,-495.5 868.72,-495.5"/>
<text text-anchor="middle" x="903.68" y="-501.5" font-family="Helvetica,sans-Serif" font-size="10.00">txtitlepage.h</text>
</a>
</g>
</g>
<!-- Node1&#45;&gt;Node43 -->
<g id="edge67" class="edge">
<title>Node1&#45;&gt;Node43</title>
<path fill="none" stroke="midnightblue" d="M490.09,-719.61C558.74,-711.44 700.43,-687.66 800.68,-624 842.92,-597.18 877.54,-547.9 893.75,-522.16"/>
<polygon fill="midnightblue" stroke="midnightblue" points="896.8,-523.89 899.04,-513.54 890.83,-520.23 896.8,-523.89"/>
</g>
<!-- Node3 -->
<g id="node3" class="node">
<title>Node3</title>
<g id="a_node3"><a xlink:href="../../d8/d47/codepoint_8h.html" target="_top" xlink:title=" ">
<polygon fill="none" stroke="black" points="463.83,-165.5 463.83,-183.5 531.54,-183.5 531.54,-165.5 463.83,-165.5"/>
<text text-anchor="middle" x="497.68" y="-171.5" font-family="Helvetica,sans-Serif" font-size="10.00">codepoint.h</text>
</a>
</g>
</g>
<!-- Node2&#45;&gt;Node3 -->
<g id="edge2" class="edge">
<title>Node2&#45;&gt;Node3</title>
<path fill="none" stroke="midnightblue" d="M293.94,-440.37C294.48,-422.38 295.68,-377.82 295.68,-340.5 295.68,-340.5 295.68,-340.5 295.68,-283.5 295.68,-253.17 297.9,-240.02 320.68,-220 340.27,-202.79 407.81,-189.32 453.56,-181.89"/>
<polygon fill="midnightblue" stroke="midnightblue" points="454.21,-185.33 463.54,-180.31 453.11,-178.42 454.21,-185.33"/>
</g>
<!-- Node9 -->
<g id="node9" class="node">
<title>Node9</title>
<g id="a_node9"><a xlink:href="../../d0/d0b/enums_8h.html" target="_top" xlink:title=" ">
<polygon fill="none" stroke="black" points="372.51,-165.5 372.51,-183.5 426.86,-183.5 426.86,-165.5 372.51,-165.5"/>
<text text-anchor="middle" x="399.68" y="-171.5" font-family="Helvetica,sans-Serif" font-size="10.00">enums.h</text>
</a>
</g>
</g>
<!-- Node2&#45;&gt;Node9 -->
<g id="edge8" class="edge">
<title>Node2&#45;&gt;Node9</title>
<path fill="none" stroke="midnightblue" d="M282.77,-440.32C262.18,-423.88 219.68,-384.59 219.68,-340.5 219.68,-340.5 219.68,-340.5 219.68,-283.5 219.68,-217.56 309.6,-190.88 362.33,-180.9"/>
<polygon fill="midnightblue" stroke="midnightblue" points="363.11,-184.32 372.35,-179.12 361.89,-177.43 363.11,-184.32"/>
</g>
<!-- Node11 -->
<g id="node11" class="node">
<title>Node11</title>
<g id="a_node11"><a xlink:title=" ">
<polygon fill="none" stroke="#bfbfbf" points="329.29,-220.5 329.29,-238.5 368.08,-238.5 368.08,-220.5 329.29,-220.5"/>
<text text-anchor="middle" x="348.68" y="-226.5" font-family="Helvetica,sans-Serif" font-size="10.00">array</text>
</a>
</g>
</g>
<!-- Node2&#45;&gt;Node11 -->
<g id="edge11" class="edge">
<title>Node2&#45;&gt;Node11</title>
<path fill="none" stroke="midnightblue" d="M296.94,-440.4C300.41,-431.55 305.92,-416.93 309.68,-404 325.97,-348.03 339.45,-280.24 345.4,-248.51"/>
<polygon fill="midnightblue" stroke="midnightblue" points="348.87,-249.01 347.24,-238.54 341.98,-247.74 348.87,-249.01"/>
</g>
<!-- Node12 -->
<g id="node12" class="node">
<title>Node12</title>
<g id="a_node12"><a xlink:title=" ">
<polygon fill="none" stroke="#bfbfbf" points="427.46,-220.5 427.46,-238.5 467.91,-238.5 467.91,-220.5 427.46,-220.5"/>
<text text-anchor="middle" x="447.68" y="-226.5" font-family="Helvetica,sans-Serif" font-size="10.00">string</text>
</a>
</g>
</g>
<!-- Node2&#45;&gt;Node12 -->
<g id="edge12" class="edge">
<title>Node2&#45;&gt;Node12</title>
<path fill="none" stroke="midnightblue" d="M307.71,-440.29C340.34,-420.25 420.84,-365.25 450.68,-294 456.69,-279.67 455.18,-261.9 452.61,-248.81"/>
<polygon fill="midnightblue" stroke="midnightblue" points="455.93,-247.64 450.24,-238.71 449.12,-249.24 455.93,-247.64"/>
</g>
<!-- Node13 -->
<g id="node13" class="node">
<title>Node13</title>
<g id="a_node13"><a xlink:title=" ">
<polygon fill="none" stroke="#bfbfbf" points="402.07,-385.5 402.07,-403.5 445.3,-403.5 445.3,-385.5 402.07,-385.5"/>
<text text-anchor="middle" x="423.68" y="-391.5" font-family="Helvetica,sans-Serif" font-size="10.00">vector</text>
</a>
</g>
</g>
<!-- Node2&#45;&gt;Node13 -->
<g id="edge13" class="edge">
<title>Node2&#45;&gt;Node13</title>
<path fill="none" stroke="midnightblue" d="M313.43,-440.45C335,-431.66 369.77,-417.48 394.49,-407.4"/>
<polygon fill="midnightblue" stroke="midnightblue" points="395.82,-410.64 403.75,-403.63 393.17,-404.16 395.82,-410.64"/>
</g>
<!-- Node4 -->
<g id="node4" class="node">
<title>Node4</title>
<g id="a_node4"><a xlink:href="../../d9/d49/types_8h.html" target="_top" xlink:title=" ">
<polygon fill="none" stroke="black" points="406.56,-55.5 406.56,-73.5 454.81,-73.5 454.81,-55.5 406.56,-55.5"/>
<text text-anchor="middle" x="430.68" y="-61.5" font-family="Helvetica,sans-Serif" font-size="10.00">types.h</text>
</a>
</g>
</g>
<!-- Node3&#45;&gt;Node4 -->
<g id="edge3" class="edge">
<title>Node3&#45;&gt;Node4</title>
<path fill="none" stroke="midnightblue" d="M492.65,-165.38C481.74,-147.79 455.71,-105.85 441.1,-82.29"/>
<polygon fill="midnightblue" stroke="midnightblue" points="444.02,-80.36 435.78,-73.71 438.08,-84.05 444.02,-80.36"/>
</g>
<!-- Node8 -->
<g id="node8" class="node">
<title>Node8</title>
<g id="a_node8"><a xlink:title=" ">
<polygon fill="none" stroke="#bfbfbf" points="490.17,-110.5 490.17,-128.5 541.2,-128.5 541.2,-110.5 490.17,-110.5"/>
<text text-anchor="middle" x="515.68" y="-116.5" font-family="Helvetica,sans-Serif" font-size="10.00">optional</text>
</a>
</g>
</g>
<!-- Node3&#45;&gt;Node8 -->
<g id="edge7" class="edge">
<title>Node3&#45;&gt;Node8</title>
<path fill="none" stroke="midnightblue" d="M500.5,-165.22C502.94,-158.02 506.57,-147.35 509.66,-138.23"/>
<polygon fill="midnightblue" stroke="midnightblue" points="513.05,-139.14 512.95,-128.55 506.42,-136.89 513.05,-139.14"/>
</g>
<!-- Node5 -->
<g id="node5" class="node">
<title>Node5</title>
<g id="a_node5"><a xlink:title=" ">
<polygon fill="none" stroke="#bfbfbf" points="340.57,-0.5 340.57,-18.5 388.8,-18.5 388.8,-0.5 340.57,-0.5"/>
<text text-anchor="middle" x="364.68" y="-6.5" font-family="Helvetica,sans-Serif" font-size="10.00">cassert</text>
</a>
</g>
</g>
<!-- Node4&#45;&gt;Node5 -->
<g id="edge4" class="edge">
<title>Node4&#45;&gt;Node5</title>
<path fill="none" stroke="midnightblue" d="M420.66,-55.45C410.68,-47.43 395.13,-34.95 382.95,-25.17"/>
<polygon fill="midnightblue" stroke="midnightblue" points="384.79,-22.16 374.8,-18.63 380.41,-27.62 384.79,-22.16"/>
</g>
<!-- Node6 -->
<g id="node6" class="node">
<title>Node6</title>
<g id="a_node6"><a xlink:title=" ">
<polygon fill="none" stroke="#bfbfbf" points="406.56,-0.5 406.56,-18.5 454.81,-18.5 454.81,-0.5 406.56,-0.5"/>
<text text-anchor="middle" x="430.68" y="-6.5" font-family="Helvetica,sans-Serif" font-size="10.00">cstddef</text>
</a>
</g>
</g>
<!-- Node4&#45;&gt;Node6 -->
<g id="edge5" class="edge">
<title>Node4&#45;&gt;Node6</title>
<path fill="none" stroke="midnightblue" d="M430.68,-55.22C430.68,-48.18 430.68,-37.81 430.68,-28.83"/>
<polygon fill="midnightblue" stroke="midnightblue" points="434.18,-28.55 430.68,-18.55 427.18,-28.55 434.18,-28.55"/>
</g>
<!-- Node7 -->
<g id="node7" class="node">
<title>Node7</title>
<g id="a_node7"><a xlink:title=" ">
<polygon fill="none" stroke="#bfbfbf" points="472.62,-0.5 472.62,-18.5 534.75,-18.5 534.75,-0.5 472.62,-0.5"/>
<text text-anchor="middle" x="503.68" y="-6.5" font-family="Helvetica,sans-Serif" font-size="10.00">type_traits</text>
</a>
</g>
</g>
<!-- Node4&#45;&gt;Node7 -->
<g id="edge6" class="edge">
<title>Node4&#45;&gt;Node7</title>
<path fill="none" stroke="midnightblue" d="M441.77,-55.45C453.03,-47.28 470.68,-34.46 484.26,-24.6"/>
<polygon fill="midnightblue" stroke="midnightblue" points="486.46,-27.33 492.49,-18.63 482.34,-21.67 486.46,-27.33"/>
</g>
<!-- Node10 -->
<g id="node10" class="node">
<title>Node10</title>
<g id="a_node10"><a xlink:href="../../d8/db5/consts_8h.html" target="_top" xlink:title=" ">
<polygon fill="none" stroke="black" points="377.06,-110.5 377.06,-128.5 430.31,-128.5 430.31,-110.5 377.06,-110.5"/>
<text text-anchor="middle" x="403.68" y="-116.5" font-family="Helvetica,sans-Serif" font-size="10.00">consts.h</text>
</a>
</g>
</g>
<!-- Node9&#45;&gt;Node10 -->
<g id="edge9" class="edge">
<title>Node9&#45;&gt;Node10</title>
<path fill="none" stroke="midnightblue" d="M400.31,-165.22C400.85,-158.1 401.64,-147.58 402.32,-138.53"/>
<polygon fill="midnightblue" stroke="midnightblue" points="405.81,-138.78 403.08,-128.55 398.83,-138.26 405.81,-138.78"/>
</g>
<!-- Node10&#45;&gt;Node4 -->
<g id="edge10" class="edge">
<title>Node10&#45;&gt;Node4</title>
<path fill="none" stroke="midnightblue" d="M407.9,-110.22C411.65,-102.86 417.25,-91.88 421.95,-82.64"/>
<polygon fill="midnightblue" stroke="midnightblue" points="425.16,-84.05 426.58,-73.55 418.93,-80.87 425.16,-84.05"/>
</g>
<!-- Node15 -->
<g id="node15" class="node">
<title>Node15</title>
<g id="a_node15"><a xlink:href="../../d4/de9/_main_class_8h.html" target="_top" xlink:title=" ">
<polygon fill="none" stroke="black" points="155.73,-605.5 155.73,-623.5 255.64,-623.5 255.64,-605.5 155.73,-605.5"/>
<text text-anchor="middle" x="205.68" y="-611.5" font-family="Helvetica,sans-Serif" font-size="10.00">tralics/MainClass.h</text>
</a>
</g>
</g>
<!-- Node14&#45;&gt;Node15 -->
<g id="edge15" class="edge">
<title>Node14&#45;&gt;Node15</title>
<path fill="none" stroke="midnightblue" d="M164.34,-660.22C171.5,-652.47 182.39,-640.7 191.19,-631.18"/>
<polygon fill="midnightblue" stroke="midnightblue" points="194.02,-633.27 198.24,-623.55 188.88,-628.52 194.02,-633.27"/>
</g>
<!-- Node29 -->
<g id="node29" class="node">
<title>Node29</title>
<g id="a_node29"><a xlink:href="../../d2/d06/txlogger_8h.html" target="_top" xlink:title=" ">
<polygon fill="none" stroke="black" points="0,-605.5 0,-623.5 59.37,-623.5 59.37,-605.5 0,-605.5"/>
<text text-anchor="middle" x="29.68" y="-611.5" font-family="Helvetica,sans-Serif" font-size="10.00">txlogger.h</text>
</a>
</g>
</g>
<!-- Node14&#45;&gt;Node29 -->
<g id="edge37" class="edge">
<title>Node14&#45;&gt;Node29</title>
<path fill="none" stroke="midnightblue" d="M137.4,-660.45C116.42,-651.7 82.65,-637.61 58.52,-627.53"/>
<polygon fill="midnightblue" stroke="midnightblue" points="59.73,-624.25 49.15,-623.63 57.04,-630.71 59.73,-624.25"/>
</g>
<!-- Node31 -->
<g id="node31" class="node">
<title>Node31</title>
<g id="a_node31"><a xlink:href="../../d5/d08/txparam_8h.html" target="_top" xlink:title=" ">
<polygon fill="none" stroke="black" points="77.45,-605.5 77.45,-623.5 137.92,-623.5 137.92,-605.5 77.45,-605.5"/>
<text text-anchor="middle" x="107.68" y="-611.5" font-family="Helvetica,sans-Serif" font-size="10.00">txparam.h</text>
</a>
</g>
</g>
<!-- Node14&#45;&gt;Node31 -->
<g id="edge40" class="edge">
<title>Node14&#45;&gt;Node31</title>
<path fill="none" stroke="midnightblue" d="M149.03,-660.22C141.87,-652.47 130.98,-640.7 122.18,-631.18"/>
<polygon fill="midnightblue" stroke="midnightblue" points="124.49,-628.52 115.13,-623.55 119.35,-633.27 124.49,-628.52"/>
</g>
<!-- Node16 -->
<g id="node16" class="node">
<title>Node16</title>
<g id="a_node16"><a xlink:href="../../de/d29/txio_8h.html" target="_top" xlink:title=" ">
<polygon fill="none" stroke="black" points="181.57,-550.5 181.57,-568.5 229.8,-568.5 229.8,-550.5 181.57,-550.5"/>
<text text-anchor="middle" x="205.68" y="-556.5" font-family="Helvetica,sans-Serif" font-size="10.00">../txio.h</text>
</a>
</g>
</g>
<!-- Node15&#45;&gt;Node16 -->
<g id="edge16" class="edge">
<title>Node15&#45;&gt;Node16</title>
<path fill="none" stroke="midnightblue" d="M205.68,-605.22C205.68,-598.18 205.68,-587.81 205.68,-578.83"/>
<polygon fill="midnightblue" stroke="midnightblue" points="209.18,-578.55 205.68,-568.55 202.18,-578.55 209.18,-578.55"/>
</g>
<!-- Node28 -->
<g id="node28" class="node">
<title>Node28</title>
<g id="a_node28"><a xlink:href="../../dc/def/txstring_8h.html" target="_top" xlink:title=" ">
<polygon fill="none" stroke="black" points="463.23,-495.5 463.23,-513.5 528.14,-513.5 528.14,-495.5 463.23,-495.5"/>
<text text-anchor="middle" x="495.68" y="-501.5" font-family="Helvetica,sans-Serif" font-size="10.00">../txstring.h</text>
</a>
</g>
</g>
<!-- Node15&#45;&gt;Node28 -->
<g id="edge35" class="edge">
<title>Node15&#45;&gt;Node28</title>
<path fill="none" stroke="midnightblue" d="M255.9,-614.08C306.87,-612.49 386.37,-603.88 444.68,-569 463.22,-557.91 477.79,-537.45 486.53,-522.75"/>
<polygon fill="midnightblue" stroke="midnightblue" points="489.78,-524.11 491.63,-513.67 483.68,-520.68 489.78,-524.11"/>
</g>
<!-- Node17 -->
<g id="node17" class="node">
<title>Node17</title>
<g id="a_node17"><a xlink:href="../../dd/d74/txbuffer_8h.html" target="_top" xlink:title=" ">
<polygon fill="none" stroke="black" points="501.2,-440.5 501.2,-458.5 558.17,-458.5 558.17,-440.5 501.2,-440.5"/>
<text text-anchor="middle" x="529.68" y="-446.5" font-family="Helvetica,sans-Serif" font-size="10.00">txbuffer.h</text>
</a>
</g>
</g>
<!-- Node16&#45;&gt;Node17 -->
<g id="edge17" class="edge">
<title>Node16&#45;&gt;Node17</title>
<path fill="none" stroke="midnightblue" d="M229.77,-550.47C286.71,-531.49 429.74,-483.82 495.56,-461.87"/>
<polygon fill="midnightblue" stroke="midnightblue" points="497.06,-465.06 505.44,-458.58 494.84,-458.42 497.06,-465.06"/>
</g>
<!-- Node27 -->
<g id="node27" class="node">
<title>Node27</title>
<g id="a_node27"><a xlink:title=" ">
<polygon fill="none" stroke="#bfbfbf" points="93.01,-495.5 93.01,-513.5 142.35,-513.5 142.35,-495.5 93.01,-495.5"/>
<text text-anchor="middle" x="117.68" y="-501.5" font-family="Helvetica,sans-Serif" font-size="10.00">fstream</text>
</a>
</g>
</g>
<!-- Node16&#45;&gt;Node27 -->
<g id="edge34" class="edge">
<title>Node16&#45;&gt;Node27</title>
<path fill="none" stroke="midnightblue" d="M192.32,-550.45C178.49,-542.12 156.65,-528.97 140.17,-519.04"/>
<polygon fill="midnightblue" stroke="midnightblue" points="141.55,-515.79 131.18,-513.63 137.94,-521.78 141.55,-515.79"/>
</g>
<!-- Node17&#45;&gt;Node13 -->
<g id="edge33" class="edge">
<title>Node17&#45;&gt;Node13</title>
<path fill="none" stroke="midnightblue" d="M513.59,-440.45C496.46,-431.89 469.14,-418.23 449.11,-408.21"/>
<polygon fill="midnightblue" stroke="midnightblue" points="450.44,-404.97 439.94,-403.63 447.31,-411.23 450.44,-404.97"/>
</g>
<!-- Node18 -->
<g id="node18" class="node">
<title>Node18</title>
<g id="a_node18"><a xlink:href="../../d1/d9e/txid_8h.html" target="_top" xlink:title=" ">
<polygon fill="none" stroke="black" points="440.73,-330.5 440.73,-348.5 480.64,-348.5 480.64,-330.5 440.73,-330.5"/>
<text text-anchor="middle" x="460.68" y="-336.5" font-family="Helvetica,sans-Serif" font-size="10.00">txid.h</text>
</a>
</g>
</g>
<!-- Node17&#45;&gt;Node18 -->
<g id="edge18" class="edge">
<title>Node17&#45;&gt;Node18</title>
<path fill="none" stroke="midnightblue" d="M521.99,-440.41C514.05,-431.82 501.61,-417.61 492.68,-404 482.97,-389.17 474.08,-371 468.15,-357.9"/>
<polygon fill="midnightblue" stroke="midnightblue" points="471.31,-356.38 464.07,-348.64 464.9,-359.2 471.31,-356.38"/>
</g>
<!-- Node20 -->
<g id="node20" class="node">
<title>Node20</title>
<g id="a_node20"><a xlink:href="../../d9/d18/txscaled_8h.html" target="_top" xlink:title=" ">
<polygon fill="none" stroke="black" points="565.17,-385.5 565.17,-403.5 626.2,-403.5 626.2,-385.5 565.17,-385.5"/>
<text text-anchor="middle" x="595.68" y="-391.5" font-family="Helvetica,sans-Serif" font-size="10.00">txscaled.h</text>
</a>
</g>
</g>
<!-- Node17&#45;&gt;Node20 -->
<g id="edge23" class="edge">
<title>Node17&#45;&gt;Node20</title>
<path fill="none" stroke="midnightblue" d="M539.71,-440.45C549.69,-432.43 565.24,-419.95 577.42,-410.17"/>
<polygon fill="midnightblue" stroke="midnightblue" points="579.96,-412.62 585.57,-403.63 575.58,-407.16 579.96,-412.62"/>
</g>
<!-- Node26 -->
<g id="node26" class="node">
<title>Node26</title>
<g id="a_node26"><a xlink:title=" ">
<polygon fill="none" stroke="#bfbfbf" points="501.96,-385.5 501.96,-403.5 547.41,-403.5 547.41,-385.5 501.96,-385.5"/>
<text text-anchor="middle" x="524.68" y="-391.5" font-family="Helvetica,sans-Serif" font-size="10.00">cstring</text>
</a>
</g>
</g>
<!-- Node17&#45;&gt;Node26 -->
<g id="edge32" class="edge">
<title>Node17&#45;&gt;Node26</title>
<path fill="none" stroke="midnightblue" d="M528.9,-440.22C528.23,-433.1 527.24,-422.58 526.39,-413.53"/>
<polygon fill="midnightblue" stroke="midnightblue" points="529.87,-413.18 525.44,-403.55 522.9,-413.83 529.87,-413.18"/>
</g>
<!-- Node19 -->
<g id="node19" class="node">
<title>Node19</title>
<g id="a_node19"><a xlink:href="../../d5/daf/_istring_8h.html" target="_top" xlink:title=" ">
<polygon fill="none" stroke="black" points="361.45,-275.5 361.45,-293.5 441.92,-293.5 441.92,-275.5 361.45,-275.5"/>
<text text-anchor="middle" x="401.68" y="-281.5" font-family="Helvetica,sans-Serif" font-size="10.00">tralics/Istring.h</text>
</a>
</g>
</g>
<!-- Node18&#45;&gt;Node19 -->
<g id="edge19" class="edge">
<title>Node18&#45;&gt;Node19</title>
<path fill="none" stroke="midnightblue" d="M451.72,-330.45C442.89,-322.51 429.17,-310.19 418.33,-300.45"/>
<polygon fill="midnightblue" stroke="midnightblue" points="420.51,-297.7 410.73,-293.63 415.83,-302.91 420.51,-297.7"/>
</g>
<!-- Node19&#45;&gt;Node9 -->
<g id="edge20" class="edge">
<title>Node19&#45;&gt;Node9</title>
<path fill="none" stroke="midnightblue" d="M401.53,-275.38C401.22,-258.18 400.47,-217.7 400.03,-193.89"/>
<polygon fill="midnightblue" stroke="midnightblue" points="403.52,-193.65 399.84,-183.71 396.52,-193.77 403.52,-193.65"/>
</g>
<!-- Node19&#45;&gt;Node11 -->
<g id="edge21" class="edge">
<title>Node19&#45;&gt;Node11</title>
<path fill="none" stroke="midnightblue" d="M393.4,-275.22C385.58,-267.39 373.65,-255.46 364.08,-245.89"/>
<polygon fill="midnightblue" stroke="midnightblue" points="366.28,-243.15 356.73,-238.55 361.33,-248.1 366.28,-243.15"/>
</g>
<!-- Node19&#45;&gt;Node12 -->
<g id="edge22" class="edge">
<title>Node19&#45;&gt;Node12</title>
<path fill="none" stroke="midnightblue" d="M408.87,-275.22C415.6,-267.47 425.81,-255.7 434.08,-246.18"/>
<polygon fill="midnightblue" stroke="midnightblue" points="436.79,-248.4 440.7,-238.55 431.5,-243.81 436.79,-248.4"/>
</g>
<!-- Node21 -->
<g id="node21" class="node">
<title>Node21</title>
<g id="a_node21"><a xlink:href="../../dc/d91/txtokenlist_8h.html" target="_top" xlink:title=" ">
<polygon fill="none" stroke="black" points="546.28,-330.5 546.28,-348.5 615.09,-348.5 615.09,-330.5 546.28,-330.5"/>
<text text-anchor="middle" x="580.68" y="-336.5" font-family="Helvetica,sans-Serif" font-size="10.00">txtokenlist.h</text>
</a>
</g>
</g>
<!-- Node20&#45;&gt;Node21 -->
<g id="edge24" class="edge">
<title>Node20&#45;&gt;Node21</title>
<path fill="none" stroke="midnightblue" d="M593.34,-385.22C591.3,-378.02 588.28,-367.35 585.7,-358.23"/>
<polygon fill="midnightblue" stroke="midnightblue" points="589.05,-357.22 582.96,-348.55 582.32,-359.12 589.05,-357.22"/>
</g>
<!-- Node21&#45;&gt;Node19 -->
<g id="edge25" class="edge">
<title>Node21&#45;&gt;Node19</title>
<path fill="none" stroke="midnightblue" d="M553.5,-330.45C522.79,-321.36 472.65,-306.51 438.46,-296.39"/>
<polygon fill="midnightblue" stroke="midnightblue" points="439.42,-293.02 428.83,-293.54 437.43,-299.73 439.42,-293.02"/>
</g>
<!-- Node22 -->
<g id="node22" class="node">
<title>Node22</title>
<g id="a_node22"><a xlink:href="../../dd/dcd/_token_8h.html" target="_top" xlink:title=" ">
<polygon fill="none" stroke="black" points="537.73,-275.5 537.73,-293.5 617.64,-293.5 617.64,-275.5 537.73,-275.5"/>
<text text-anchor="middle" x="577.68" y="-281.5" font-family="Helvetica,sans-Serif" font-size="10.00">tralics/Token.h</text>
</a>
</g>
</g>
<!-- Node21&#45;&gt;Node22 -->
<g id="edge26" class="edge">
<title>Node21&#45;&gt;Node22</title>
<path fill="none" stroke="midnightblue" d="M580.22,-330.22C579.82,-323.18 579.23,-312.81 578.72,-303.83"/>
<polygon fill="midnightblue" stroke="midnightblue" points="582.2,-303.34 578.14,-293.55 575.21,-303.73 582.2,-303.34"/>
</g>
<!-- Node25 -->
<g id="node25" class="node">
<title>Node25</title>
<g id="a_node25"><a xlink:title=" ">
<polygon fill="none" stroke="#bfbfbf" points="713.29,-275.5 713.29,-293.5 752.08,-293.5 752.08,-275.5 713.29,-275.5"/>
<text text-anchor="middle" x="732.68" y="-281.5" font-family="Helvetica,sans-Serif" font-size="10.00">utility</text>
</a>
</g>
</g>
<!-- Node21&#45;&gt;Node25 -->
<g id="edge31" class="edge">
<title>Node21&#45;&gt;Node25</title>
<path fill="none" stroke="midnightblue" d="M603.77,-330.45C630.51,-321.13 674.61,-305.75 703.66,-295.62"/>
<polygon fill="midnightblue" stroke="midnightblue" points="704.96,-298.87 713.25,-292.28 702.66,-292.26 704.96,-298.87"/>
</g>
<!-- Node23 -->
<g id="node23" class="node">
<title>Node23</title>
<g id="a_node23"><a xlink:href="../../d2/d68/_cmd_chr_8h.html" target="_top" xlink:title=" ">
<polygon fill="none" stroke="black" points="486.17,-220.5 486.17,-238.5 547.19,-238.5 547.19,-220.5 486.17,-220.5"/>
<text text-anchor="middle" x="516.68" y="-226.5" font-family="Helvetica,sans-Serif" font-size="10.00">CmdChr.h</text>
</a>
</g>
</g>
<!-- Node22&#45;&gt;Node23 -->
<g id="edge27" class="edge">
<title>Node22&#45;&gt;Node23</title>
<path fill="none" stroke="midnightblue" d="M568.42,-275.45C559.28,-267.51 545.1,-255.19 533.89,-245.45"/>
<polygon fill="midnightblue" stroke="midnightblue" points="535.88,-242.54 526.04,-238.63 531.29,-247.83 535.88,-242.54"/>
</g>
<!-- Node24 -->
<g id="node24" class="node">
<title>Node24</title>
<g id="a_node24"><a xlink:title=" ">
<polygon fill="none" stroke="#bfbfbf" points="565.18,-220.5 565.18,-238.5 594.18,-238.5 594.18,-220.5 565.18,-220.5"/>
<text text-anchor="middle" x="579.3" y="-226.5" font-family="Helvetica,sans-Serif" font-size="10.00">list</text>
</a>
</g>
</g>
<!-- Node22&#45;&gt;Node24 -->
<g id="edge30" class="edge">
<title>Node22&#45;&gt;Node24</title>
<path fill="none" stroke="midnightblue" d="M578,-275.22C578.26,-268.18 578.65,-257.81 578.99,-248.83"/>
<polygon fill="midnightblue" stroke="midnightblue" points="582.5,-248.67 579.38,-238.55 575.51,-248.41 582.5,-248.67"/>
</g>
<!-- Node23&#45;&gt;Node3 -->
<g id="edge28" class="edge">
<title>Node23&#45;&gt;Node3</title>
<path fill="none" stroke="midnightblue" d="M513.72,-220.22C511.14,-213.02 507.31,-202.35 504.04,-193.23"/>
<polygon fill="midnightblue" stroke="midnightblue" points="507.24,-191.78 500.57,-183.55 500.65,-194.14 507.24,-191.78"/>
</g>
<!-- Node23&#45;&gt;Node9 -->
<g id="edge29" class="edge">
<title>Node23&#45;&gt;Node9</title>
<path fill="none" stroke="midnightblue" d="M498.91,-220.45C479.76,-211.77 449.04,-197.86 426.85,-187.8"/>
<polygon fill="midnightblue" stroke="midnightblue" points="428.17,-184.56 417.62,-183.63 425.29,-190.94 428.17,-184.56"/>
</g>
<!-- Node28&#45;&gt;Node17 -->
<g id="edge36" class="edge">
<title>Node28&#45;&gt;Node17</title>
<path fill="none" stroke="midnightblue" d="M501,-495.22C505.82,-487.71 513.06,-476.41 519.07,-467.05"/>
<polygon fill="midnightblue" stroke="midnightblue" points="522.07,-468.86 524.52,-458.55 516.18,-465.08 522.07,-468.86"/>
</g>
<!-- Node29&#45;&gt;Node27 -->
<g id="edge38" class="edge">
<title>Node29&#45;&gt;Node27</title>
<path fill="none" stroke="midnightblue" d="M30.33,-605.27C31.71,-592.33 35.97,-566.93 48.68,-550 58.98,-536.3 74.83,-525.65 88.74,-518.21"/>
<polygon fill="midnightblue" stroke="midnightblue" points="90.61,-521.19 97.97,-513.57 87.46,-514.93 90.61,-521.19"/>
</g>
<!-- Node30 -->
<g id="node30" class="node">
<title>Node30</title>
<g id="a_node30"><a xlink:title=" ">
<polygon fill="none" stroke="#bfbfbf" points="57.51,-550.5 57.51,-568.5 111.86,-568.5 111.86,-550.5 57.51,-550.5"/>
<text text-anchor="middle" x="84.68" y="-556.5" font-family="Helvetica,sans-Serif" font-size="10.00">iostream</text>
</a>
</g>
</g>
<!-- Node29&#45;&gt;Node30 -->
<g id="edge39" class="edge">
<title>Node29&#45;&gt;Node30</title>
<path fill="none" stroke="midnightblue" d="M38.28,-605.22C46.48,-597.32 59.03,-585.22 69.01,-575.61"/>
<polygon fill="midnightblue" stroke="midnightblue" points="71.56,-578.01 76.33,-568.55 66.7,-572.97 71.56,-578.01"/>
</g>
<!-- Node31&#45;&gt;Node16 -->
<g id="edge41" class="edge">
<title>Node31&#45;&gt;Node16</title>
<path fill="none" stroke="midnightblue" d="M122.57,-605.45C138.25,-596.97 163.2,-583.48 181.67,-573.49"/>
<polygon fill="midnightblue" stroke="midnightblue" points="183.53,-576.46 190.66,-568.63 180.2,-570.3 183.53,-576.46"/>
</g>
<!-- Node32&#45;&gt;Node16 -->
<g id="edge57" class="edge">
<title>Node32&#45;&gt;Node16</title>
<path fill="none" stroke="midnightblue" d="M518.57,-663.93C478.46,-657.39 405.6,-643.91 345.68,-624 303.73,-610.06 257.45,-587.57 230.01,-573.43"/>
<polygon fill="midnightblue" stroke="midnightblue" points="231.28,-570.15 220.8,-568.64 228.05,-576.36 231.28,-570.15"/>
</g>
<!-- Node33 -->
<g id="node33" class="node">
<title>Node33</title>
<g id="a_node33"><a xlink:href="../../d8/dd6/_e_q_t_b_8h.html" target="_top" xlink:title=" ">
<polygon fill="none" stroke="black" points="770.46,-495.5 770.46,-513.5 850.91,-513.5 850.91,-495.5 770.46,-495.5"/>
<text text-anchor="middle" x="810.68" y="-501.5" font-family="Helvetica,sans-Serif" font-size="10.00">tralics/EQTB.h</text>
</a>
</g>
</g>
<!-- Node32&#45;&gt;Node33 -->
<g id="edge43" class="edge">
<title>Node32&#45;&gt;Node33</title>
<path fill="none" stroke="midnightblue" d="M578.83,-666.56C634.41,-662.39 750.02,-650.66 778.68,-624 806.82,-597.83 811.2,-549.74 811.33,-523.59"/>
<polygon fill="midnightblue" stroke="midnightblue" points="814.83,-523.5 811.17,-513.56 807.83,-523.62 814.83,-523.5"/>
</g>
<!-- Node34 -->
<g id="node34" class="node">
<title>Node34</title>
<g id="a_node34"><a xlink:href="../../d3/d6b/txcond_8h.html" target="_top" xlink:title=" ">
<polygon fill="none" stroke="black" points="353.78,-440.5 353.78,-458.5 407.59,-458.5 407.59,-440.5 353.78,-440.5"/>
<text text-anchor="middle" x="380.68" y="-446.5" font-family="Helvetica,sans-Serif" font-size="10.00">txcond.h</text>
</a>
</g>
</g>
<!-- Node32&#45;&gt;Node34 -->
<g id="edge45" class="edge">
<title>Node32&#45;&gt;Node34</title>
<path fill="none" stroke="midnightblue" d="M518.71,-661.49C477.85,-650.09 406.54,-623.13 378.68,-569 362.1,-536.78 369.28,-492.81 375.38,-468.51"/>
<polygon fill="midnightblue" stroke="midnightblue" points="378.83,-469.13 378.09,-458.56 372.08,-467.29 378.83,-469.13"/>
</g>
<!-- Node35 -->
<g id="node35" class="node">
<title>Node35</title>
<g id="a_node35"><a xlink:href="../../d7/d4d/txfonts_8h.html" target="_top" xlink:title=" ">
<polygon fill="none" stroke="black" points="491.79,-550.5 491.79,-568.5 545.58,-568.5 545.58,-550.5 491.79,-550.5"/>
<text text-anchor="middle" x="518.68" y="-556.5" font-family="Helvetica,sans-Serif" font-size="10.00">txfonts.h</text>
</a>
</g>
</g>
<!-- Node32&#45;&gt;Node35 -->
<g id="edge48" class="edge">
<title>Node32&#45;&gt;Node35</title>
<path fill="none" stroke="midnightblue" d="M546.43,-660.38C541.63,-643.1 530.3,-602.33 523.7,-578.56"/>
<polygon fill="midnightblue" stroke="midnightblue" points="527.01,-577.41 520.97,-568.71 520.27,-579.28 527.01,-577.41"/>
</g>
<!-- Node36 -->
<g id="node36" class="node">
<title>Node36</title>
<g id="a_node36"><a xlink:href="../../d7/d7e/txhash_8h.html" target="_top" xlink:title=" ">
<polygon fill="none" stroke="black" points="715.78,-605.5 715.78,-623.5 769.59,-623.5 769.59,-605.5 715.78,-605.5"/>
<text text-anchor="middle" x="742.68" y="-611.5" font-family="Helvetica,sans-Serif" font-size="10.00">txhash.h</text>
</a>
</g>
</g>
<!-- Node32&#45;&gt;Node36 -->
<g id="edge50" class="edge">
<title>Node32&#45;&gt;Node36</title>
<path fill="none" stroke="midnightblue" d="M578.15,-660.45C612.35,-651.11 668.79,-635.69 705.86,-625.56"/>
<polygon fill="midnightblue" stroke="midnightblue" points="707.04,-628.87 715.76,-622.86 705.19,-622.11 707.04,-628.87"/>
</g>
<!-- Node38 -->
<g id="node38" class="node">
<title>Node38</title>
<g id="a_node38"><a xlink:href="../../de/d7c/tximage_8h.html" target="_top" xlink:title=" ">
<polygon fill="none" stroke="black" points="674.01,-330.5 674.01,-348.5 733.36,-348.5 733.36,-330.5 674.01,-330.5"/>
<text text-anchor="middle" x="703.68" y="-336.5" font-family="Helvetica,sans-Serif" font-size="10.00">tximage.h</text>
</a>
</g>
</g>
<!-- Node32&#45;&gt;Node38 -->
<g id="edge54" class="edge">
<title>Node32&#45;&gt;Node38</title>
<path fill="none" stroke="midnightblue" d="M559.49,-660.41C575.74,-648.27 607.45,-624.66 634.68,-605 657.18,-588.76 669.49,-591.53 685.68,-569 702.88,-545.08 704.68,-534.96 704.68,-505.5 704.68,-505.5 704.68,-505.5 704.68,-448.5 704.68,-417.02 704.25,-380.37 703.96,-358.88"/>
<polygon fill="midnightblue" stroke="midnightblue" points="707.45,-358.58 703.81,-348.63 700.46,-358.68 707.45,-358.58"/>
</g>
<!-- Node39 -->
<g id="node39" class="node">
<title>Node39</title>
<g id="a_node39"><a xlink:href="../../dc/d65/txstack_8h.html" target="_top" xlink:title=" ">
<polygon fill="none" stroke="black" points="464.96,-605.5 464.96,-623.5 520.41,-623.5 520.41,-605.5 464.96,-605.5"/>
<text text-anchor="middle" x="492.68" y="-611.5" font-family="Helvetica,sans-Serif" font-size="10.00">txstack.h</text>
</a>
</g>
</g>
<!-- Node32&#45;&gt;Node39 -->
<g id="edge58" class="edge">
<title>Node32&#45;&gt;Node39</title>
<path fill="none" stroke="midnightblue" d="M539.93,-660.22C531.58,-652.32 518.81,-640.22 508.65,-630.61"/>
<polygon fill="midnightblue" stroke="midnightblue" points="510.86,-627.88 501.19,-623.55 506.05,-632.97 510.86,-627.88"/>
</g>
<!-- Node42 -->
<g id="node42" class="node">
<title>Node42</title>
<g id="a_node42"><a xlink:href="../../d8/d3d/txstats_8h.html" target="_top" xlink:title=" ">
<polygon fill="none" stroke="black" points="644.07,-605.5 644.07,-623.5 697.3,-623.5 697.3,-605.5 644.07,-605.5"/>
<text text-anchor="middle" x="670.68" y="-611.5" font-family="Helvetica,sans-Serif" font-size="10.00">txstats.h</text>
</a>
</g>
</g>
<!-- Node32&#45;&gt;Node42 -->
<g id="edge66" class="edge">
<title>Node32&#45;&gt;Node42</title>
<path fill="none" stroke="midnightblue" d="M567.21,-660.45C587.28,-651.73 619.51,-637.73 642.67,-627.67"/>
<polygon fill="midnightblue" stroke="midnightblue" points="644.2,-630.82 651.98,-623.63 641.41,-624.4 644.2,-630.82"/>
</g>
<!-- Node33&#45;&gt;Node20 -->
<g id="edge44" class="edge">
<title>Node33&#45;&gt;Node20</title>
<path fill="none" stroke="midnightblue" d="M794.52,-495.38C757.31,-476.69 665.36,-430.5 620.75,-408.09"/>
<polygon fill="midnightblue" stroke="midnightblue" points="622.25,-404.93 611.74,-403.56 619.1,-411.18 622.25,-404.93"/>
</g>
<!-- Node34&#45;&gt;Node9 -->
<g id="edge46" class="edge">
<title>Node34&#45;&gt;Node9</title>
<path fill="none" stroke="midnightblue" d="M357.84,-440.43C322.27,-426.24 257.68,-393.21 257.68,-340.5 257.68,-340.5 257.68,-340.5 257.68,-283.5 257.68,-253.33 260.34,-241.33 281.68,-220 303.33,-198.37 336.5,-187.1 362.17,-181.32"/>
<polygon fill="midnightblue" stroke="midnightblue" points="363.22,-184.67 372.31,-179.23 361.8,-177.82 363.22,-184.67"/>
</g>
<!-- Node34&#45;&gt;Node13 -->
<g id="edge47" class="edge">
<title>Node34&#45;&gt;Node13</title>
<path fill="none" stroke="midnightblue" d="M387.4,-440.22C393.62,-432.55 403.05,-420.94 410.73,-411.47"/>
<polygon fill="midnightblue" stroke="midnightblue" points="413.57,-413.52 417.15,-403.55 408.14,-409.11 413.57,-413.52"/>
</g>
<!-- Node35&#45;&gt;Node28 -->
<g id="edge49" class="edge">
<title>Node35&#45;&gt;Node28</title>
<path fill="none" stroke="midnightblue" d="M515.09,-550.22C511.93,-542.94 507.23,-532.11 503.25,-522.93"/>
<polygon fill="midnightblue" stroke="midnightblue" points="506.37,-521.33 499.18,-513.55 499.95,-524.12 506.37,-521.33"/>
</g>
<!-- Node36&#45;&gt;Node25 -->
<g id="edge53" class="edge">
<title>Node36&#45;&gt;Node25</title>
<path fill="none" stroke="midnightblue" d="M743.36,-605.11C745.97,-570.84 754.68,-438.11 742.68,-330 741.7,-321.13 739.64,-311.44 737.65,-303.37"/>
<polygon fill="midnightblue" stroke="midnightblue" points="741.01,-302.39 735.08,-293.61 734.24,-304.17 741.01,-302.39"/>
</g>
<!-- Node37 -->
<g id="node37" class="node">
<title>Node37</title>
<g id="a_node37"><a xlink:href="../../d3/d01/txeqtb_8h.html" target="_top" xlink:title=" ">
<polygon fill="none" stroke="black" points="563.89,-550.5 563.89,-568.5 615.48,-568.5 615.48,-550.5 563.89,-550.5"/>
<text text-anchor="middle" x="589.68" y="-556.5" font-family="Helvetica,sans-Serif" font-size="10.00">txeqtb.h</text>
</a>
</g>
</g>
<!-- Node36&#45;&gt;Node37 -->
<g id="edge51" class="edge">
<title>Node36&#45;&gt;Node37</title>
<path fill="none" stroke="midnightblue" d="M719.45,-605.45C693.72,-596.54 652.05,-582.1 622.89,-572"/>
<polygon fill="midnightblue" stroke="midnightblue" points="623.74,-568.59 613.14,-568.63 621.44,-575.21 623.74,-568.59"/>
</g>
<!-- Node37&#45;&gt;Node28 -->
<g id="edge52" class="edge">
<title>Node37&#45;&gt;Node28</title>
<path fill="none" stroke="midnightblue" d="M575.41,-550.45C560.5,-542.05 536.87,-528.72 519.21,-518.76"/>
<polygon fill="midnightblue" stroke="midnightblue" points="520.53,-515.49 510.1,-513.63 517.09,-521.59 520.53,-515.49"/>
</g>
<!-- Node38&#45;&gt;Node12 -->
<g id="edge55" class="edge">
<title>Node38&#45;&gt;Node12</title>
<path fill="none" stroke="midnightblue" d="M673.9,-334.77C637.99,-329.42 576.51,-317.51 528.68,-294 503.52,-281.63 478.77,-260.56 463.38,-246.11"/>
<polygon fill="midnightblue" stroke="midnightblue" points="465.48,-243.27 455.85,-238.86 460.63,-248.32 465.48,-243.27"/>
</g>
<!-- Node38&#45;&gt;Node25 -->
<g id="edge56" class="edge">
<title>Node38&#45;&gt;Node25</title>
<path fill="none" stroke="midnightblue" d="M708.22,-330.22C712.28,-322.79 718.38,-311.65 723.47,-302.34"/>
<polygon fill="midnightblue" stroke="midnightblue" points="726.55,-304 728.28,-293.55 720.41,-300.64 726.55,-304"/>
</g>
<!-- Node40 -->
<g id="node40" class="node">
<title>Node40</title>
<g id="a_node40"><a xlink:href="../../d4/da4/txatt_8h.html" target="_top" xlink:title=" ">
<polygon fill="none" stroke="black" points="633.07,-550.5 633.07,-568.5 676.3,-568.5 676.3,-550.5 633.07,-550.5"/>
<text text-anchor="middle" x="654.68" y="-556.5" font-family="Helvetica,sans-Serif" font-size="10.00">txatt.h</text>
</a>
</g>
</g>
<!-- Node39&#45;&gt;Node40 -->
<g id="edge59" class="edge">
<title>Node39&#45;&gt;Node40</title>
<path fill="none" stroke="midnightblue" d="M517.29,-605.45C545.6,-596.19 592.16,-580.96 623.12,-570.83"/>
<polygon fill="midnightblue" stroke="midnightblue" points="624.55,-574.04 632.97,-567.6 622.38,-567.39 624.55,-574.04"/>
</g>
<!-- Node41 -->
<g id="node41" class="node">
<title>Node41</title>
<g id="a_node41"><a xlink:href="../../d1/d43/txxml_8h.html" target="_top" xlink:title=" ">
<polygon fill="none" stroke="black" points="387.85,-550.5 387.85,-568.5 435.52,-568.5 435.52,-550.5 387.85,-550.5"/>
<text text-anchor="middle" x="411.68" y="-556.5" font-family="Helvetica,sans-Serif" font-size="10.00">txxml.h</text>
</a>
</g>
</g>
<!-- Node39&#45;&gt;Node41 -->
<g id="edge63" class="edge">
<title>Node39&#45;&gt;Node41</title>
<path fill="none" stroke="midnightblue" d="M480.38,-605.45C467.77,-597.2 447.93,-584.22 432.8,-574.32"/>
<polygon fill="midnightblue" stroke="midnightblue" points="434.39,-571.17 424.1,-568.63 430.55,-577.03 434.39,-571.17"/>
</g>
<!-- Node40&#45;&gt;Node8 -->
<g id="edge61" class="edge">
<title>Node40&#45;&gt;Node8</title>
<path fill="none" stroke="midnightblue" d="M654.23,-550.46C652.39,-517.61 645.68,-390.3 645.68,-285.5 645.68,-285.5 645.68,-285.5 645.68,-228.5 645.68,-178.73 588.61,-147.5 550.1,-132.09"/>
<polygon fill="midnightblue" stroke="midnightblue" points="551.34,-128.82 540.75,-128.51 548.84,-135.36 551.34,-128.82"/>
</g>
<!-- Node40&#45;&gt;Node13 -->
<g id="edge62" class="edge">
<title>Node40&#45;&gt;Node13</title>
<path fill="none" stroke="midnightblue" d="M639.31,-550.37C609.77,-534.46 543.5,-497.42 492.68,-459 472.93,-444.06 452.28,-424.45 438.78,-411"/>
<polygon fill="midnightblue" stroke="midnightblue" points="441.25,-408.51 431.72,-403.87 436.27,-413.44 441.25,-408.51"/>
</g>
<!-- Node40&#45;&gt;Node28 -->
<g id="edge60" class="edge">
<title>Node40&#45;&gt;Node28</title>
<path fill="none" stroke="midnightblue" d="M632.91,-551.24C606.2,-542.34 560.64,-527.15 529.39,-516.74"/>
<polygon fill="midnightblue" stroke="midnightblue" points="530.39,-513.38 519.79,-513.54 528.17,-520.02 530.39,-513.38"/>
</g>
<!-- Node41&#45;&gt;Node13 -->
<g id="edge65" class="edge">
<title>Node41&#45;&gt;Node13</title>
<path fill="none" stroke="midnightblue" d="M412.3,-550.19C414.15,-525.01 419.74,-449.11 422.33,-413.86"/>
<polygon fill="midnightblue" stroke="midnightblue" points="425.84,-413.83 423.09,-403.6 418.86,-413.31 425.84,-413.83"/>
</g>
<!-- Node41&#45;&gt;Node28 -->
<g id="edge64" class="edge">
<title>Node41&#45;&gt;Node28</title>
<path fill="none" stroke="midnightblue" d="M424.44,-550.45C437.64,-542.12 458.49,-528.97 474.23,-519.04"/>
<polygon fill="midnightblue" stroke="midnightblue" points="476.22,-521.92 482.81,-513.63 472.48,-516 476.22,-521.92"/>
</g>
<!-- Node43&#45;&gt;Node25 -->
<g id="edge68" class="edge">
<title>Node43&#45;&gt;Node25</title>
<path fill="none" stroke="midnightblue" d="M898.18,-495.26C881.08,-469.81 826.92,-390.6 775.68,-330 767.17,-319.93 756.93,-309.28 748.58,-300.93"/>
<polygon fill="midnightblue" stroke="midnightblue" points="750.85,-298.25 741.27,-293.72 745.93,-303.23 750.85,-298.25"/>
</g>
</g>
</svg>
