<?xml version="1.0" encoding="UTF-8" standalone="no"?>
<!DOCTYPE svg PUBLIC "-//W3C//DTD SVG 1.1//EN"
 "http://www.w3.org/Graphics/SVG/1.1/DTD/svg11.dtd">
<!-- Generated by graphviz version 2.42.3 (20191010.1750)
 -->
<!-- Title: txtitlepage.cpp Pages: 1 -->
<svg width="752pt" height="742pt"
 viewBox="0.00 0.00 751.68 742.00" xmlns="http://www.w3.org/2000/svg" xmlns:xlink="http://www.w3.org/1999/xlink">
<g id="graph0" class="graph" transform="scale(1 1) rotate(0) translate(4 738)">
<title>txtitlepage.cpp</title>
<!-- Node1 -->
<g id="node1" class="node">
<title>Node1</title>
<g id="a_node1"><a xlink:title=" ">
<polygon fill="#bfbfbf" stroke="black" points="529.44,-715.5 529.44,-733.5 609.93,-733.5 609.93,-715.5 529.44,-715.5"/>
<text text-anchor="middle" x="569.68" y="-721.5" font-family="Helvetica,sans-Serif" font-size="10.00">txtitlepage.cpp</text>
</a>
</g>
</g>
<!-- Node2 -->
<g id="node2" class="node">
<title>Node2</title>
<g id="a_node2"><a xlink:href="../../d5/d87/globals_8h.html" target="_top" xlink:title=" ">
<polygon fill="none" stroke="black" points="648.22,-440.5 648.22,-458.5 733.15,-458.5 733.15,-440.5 648.22,-440.5"/>
<text text-anchor="middle" x="690.68" y="-446.5" font-family="Helvetica,sans-Serif" font-size="10.00">tralics/globals.h</text>
</a>
</g>
</g>
<!-- Node1&#45;&gt;Node2 -->
<g id="edge1" class="edge">
<title>Node1&#45;&gt;Node2</title>
<path fill="none" stroke="midnightblue" d="M591.88,-715.44C626.81,-701.15 690.68,-667.87 690.68,-615.5 690.68,-615.5 690.68,-615.5 690.68,-558.5 690.68,-527.02 690.68,-490.37 690.68,-468.88"/>
<polygon fill="midnightblue" stroke="midnightblue" points="694.18,-468.63 690.68,-458.63 687.18,-468.63 694.18,-468.63"/>
</g>
<!-- Node13 -->
<g id="node13" class="node">
<title>Node13</title>
<g id="a_node13"><a xlink:href="../../d7/d79/txinline_8h.html" target="_top" xlink:title=" ">
<polygon fill="none" stroke="black" points="128.95,-660.5 128.95,-678.5 184.42,-678.5 184.42,-660.5 128.95,-660.5"/>
<text text-anchor="middle" x="156.68" y="-666.5" font-family="Helvetica,sans-Serif" font-size="10.00">txinline.h</text>
</a>
</g>
</g>
<!-- Node1&#45;&gt;Node13 -->
<g id="edge13" class="edge">
<title>Node1&#45;&gt;Node13</title>
<path fill="none" stroke="midnightblue" d="M529.33,-718.32C449.56,-708.08 272.68,-685.39 194.78,-675.39"/>
<polygon fill="midnightblue" stroke="midnightblue" points="194.83,-671.87 184.47,-674.07 193.94,-678.81 194.83,-671.87"/>
</g>
<!-- Node32 -->
<g id="node32" class="node">
<title>Node32</title>
<g id="a_node32"><a xlink:href="../../d2/d1b/txparser_8h.html" target="_top" xlink:title=" ">
<polygon fill="none" stroke="black" points="420.73,-660.5 420.73,-678.5 480.64,-678.5 480.64,-660.5 420.73,-660.5"/>
<text text-anchor="middle" x="450.68" y="-666.5" font-family="Helvetica,sans-Serif" font-size="10.00">txparser.h</text>
</a>
</g>
</g>
<!-- Node1&#45;&gt;Node32 -->
<g id="edge42" class="edge">
<title>Node1&#45;&gt;Node32</title>
<path fill="none" stroke="midnightblue" d="M551.61,-715.45C532.13,-706.77 500.88,-692.86 478.31,-682.8"/>
<polygon fill="midnightblue" stroke="midnightblue" points="479.49,-679.5 468.93,-678.63 476.64,-685.89 479.49,-679.5"/>
</g>
<!-- Node42 -->
<g id="node42" class="node">
<title>Node42</title>
<g id="a_node42"><a xlink:href="../../d5/d7f/txtitlepage_8h.html" target="_top" xlink:title=" ">
<polygon fill="none" stroke="black" points="516.72,-495.5 516.72,-513.5 586.65,-513.5 586.65,-495.5 516.72,-495.5"/>
<text text-anchor="middle" x="551.68" y="-501.5" font-family="Helvetica,sans-Serif" font-size="10.00">txtitlepage.h</text>
</a>
</g>
</g>
<!-- Node1&#45;&gt;Node42 -->
<g id="edge62" class="edge">
<title>Node1&#45;&gt;Node42</title>
<path fill="none" stroke="midnightblue" d="M573.4,-715.27C581.61,-696.14 600.22,-647.09 595.68,-605 593,-580.12 593.87,-572.85 583.68,-550 579.13,-539.79 572.02,-529.57 565.65,-521.51"/>
<polygon fill="midnightblue" stroke="midnightblue" points="568.27,-519.18 559.2,-513.71 562.88,-523.65 568.27,-519.18"/>
</g>
<!-- Node3 -->
<g id="node3" class="node">
<title>Node3</title>
<g id="a_node3"><a xlink:href="../../d8/d47/codepoint_8h.html" target="_top" xlink:title=" ">
<polygon fill="none" stroke="black" points="512.83,-165.5 512.83,-183.5 580.54,-183.5 580.54,-165.5 512.83,-165.5"/>
<text text-anchor="middle" x="546.68" y="-171.5" font-family="Helvetica,sans-Serif" font-size="10.00">codepoint.h</text>
</a>
</g>
</g>
<!-- Node2&#45;&gt;Node3 -->
<g id="edge2" class="edge">
<title>Node2&#45;&gt;Node3</title>
<path fill="none" stroke="midnightblue" d="M697.83,-440.49C712.3,-423.42 743.68,-381.65 743.68,-340.5 743.68,-340.5 743.68,-340.5 743.68,-283.5 743.68,-253.33 742.15,-240.13 719.68,-220 684.32,-188.31 629.38,-178.61 590.92,-175.93"/>
<polygon fill="midnightblue" stroke="midnightblue" points="590.73,-172.42 580.54,-175.35 590.33,-179.4 590.73,-172.42"/>
</g>
<!-- Node9 -->
<g id="node9" class="node">
<title>Node9</title>
<g id="a_node9"><a xlink:href="../../d0/d0b/enums_8h.html" target="_top" xlink:title=" ">
<polygon fill="none" stroke="black" points="418.51,-165.5 418.51,-183.5 472.86,-183.5 472.86,-165.5 418.51,-165.5"/>
<text text-anchor="middle" x="445.68" y="-171.5" font-family="Helvetica,sans-Serif" font-size="10.00">enums.h</text>
</a>
</g>
</g>
<!-- Node2&#45;&gt;Node9 -->
<g id="edge8" class="edge">
<title>Node2&#45;&gt;Node9</title>
<path fill="none" stroke="midnightblue" d="M692.58,-440.42C696.62,-422.54 705.68,-378.17 705.68,-340.5 705.68,-340.5 705.68,-340.5 705.68,-283.5 705.68,-242.47 674.83,-239.4 638.68,-220 612.08,-205.72 531.15,-190.09 482.95,-181.68"/>
<polygon fill="midnightblue" stroke="midnightblue" points="483.36,-178.2 472.91,-179.95 482.17,-185.1 483.36,-178.2"/>
</g>
<!-- Node11 -->
<g id="node11" class="node">
<title>Node11</title>
<g id="a_node11"><a xlink:title=" ">
<polygon fill="none" stroke="#bfbfbf" points="589.46,-220.5 589.46,-238.5 629.91,-238.5 629.91,-220.5 589.46,-220.5"/>
<text text-anchor="middle" x="609.68" y="-226.5" font-family="Helvetica,sans-Serif" font-size="10.00">string</text>
</a>
</g>
</g>
<!-- Node2&#45;&gt;Node11 -->
<g id="edge11" class="edge">
<title>Node2&#45;&gt;Node11</title>
<path fill="none" stroke="midnightblue" d="M687.92,-440.42C681.34,-421.21 664.1,-371.31 648.68,-330 637.96,-301.25 624.82,-268.12 616.85,-248.27"/>
<polygon fill="midnightblue" stroke="midnightblue" points="619.99,-246.69 613.01,-238.72 613.5,-249.3 619.99,-246.69"/>
</g>
<!-- Node12 -->
<g id="node12" class="node">
<title>Node12</title>
<g id="a_node12"><a xlink:title=" ">
<polygon fill="none" stroke="#bfbfbf" points="480.07,-385.5 480.07,-403.5 523.3,-403.5 523.3,-385.5 480.07,-385.5"/>
<text text-anchor="middle" x="501.68" y="-391.5" font-family="Helvetica,sans-Serif" font-size="10.00">vector</text>
</a>
</g>
</g>
<!-- Node2&#45;&gt;Node12 -->
<g id="edge12" class="edge">
<title>Node2&#45;&gt;Node12</title>
<path fill="none" stroke="midnightblue" d="M661.98,-440.45C627.39,-430.75 569.46,-414.51 533.53,-404.43"/>
<polygon fill="midnightblue" stroke="midnightblue" points="534.15,-400.97 523.57,-401.64 532.26,-407.71 534.15,-400.97"/>
</g>
<!-- Node4 -->
<g id="node4" class="node">
<title>Node4</title>
<g id="a_node4"><a xlink:href="../../d9/d49/types_8h.html" target="_top" xlink:title=" ">
<polygon fill="none" stroke="black" points="483.56,-55.5 483.56,-73.5 531.81,-73.5 531.81,-55.5 483.56,-55.5"/>
<text text-anchor="middle" x="507.68" y="-61.5" font-family="Helvetica,sans-Serif" font-size="10.00">types.h</text>
</a>
</g>
</g>
<!-- Node3&#45;&gt;Node4 -->
<g id="edge3" class="edge">
<title>Node3&#45;&gt;Node4</title>
<path fill="none" stroke="midnightblue" d="M549.38,-165.32C553.02,-152.87 558.22,-128.64 550.68,-110 545.94,-98.26 536.44,-87.89 527.58,-80.12"/>
<polygon fill="midnightblue" stroke="midnightblue" points="529.73,-77.37 519.77,-73.76 525.31,-82.79 529.73,-77.37"/>
</g>
<!-- Node8 -->
<g id="node8" class="node">
<title>Node8</title>
<g id="a_node8"><a xlink:title=" ">
<polygon fill="none" stroke="#bfbfbf" points="490.17,-110.5 490.17,-128.5 541.2,-128.5 541.2,-110.5 490.17,-110.5"/>
<text text-anchor="middle" x="515.68" y="-116.5" font-family="Helvetica,sans-Serif" font-size="10.00">optional</text>
</a>
</g>
</g>
<!-- Node3&#45;&gt;Node8 -->
<g id="edge7" class="edge">
<title>Node3&#45;&gt;Node8</title>
<path fill="none" stroke="midnightblue" d="M541.84,-165.22C537.49,-157.79 530.98,-146.65 525.54,-137.34"/>
<polygon fill="midnightblue" stroke="midnightblue" points="528.46,-135.41 520.39,-128.55 522.42,-138.95 528.46,-135.41"/>
</g>
<!-- Node5 -->
<g id="node5" class="node">
<title>Node5</title>
<g id="a_node5"><a xlink:title=" ">
<polygon fill="none" stroke="#bfbfbf" points="415.57,-0.5 415.57,-18.5 463.8,-18.5 463.8,-0.5 415.57,-0.5"/>
<text text-anchor="middle" x="439.68" y="-6.5" font-family="Helvetica,sans-Serif" font-size="10.00">cassert</text>
</a>
</g>
</g>
<!-- Node4&#45;&gt;Node5 -->
<g id="edge4" class="edge">
<title>Node4&#45;&gt;Node5</title>
<path fill="none" stroke="midnightblue" d="M497.36,-55.45C486.97,-47.36 470.74,-34.7 458.14,-24.88"/>
<polygon fill="midnightblue" stroke="midnightblue" points="460.15,-22.01 450.11,-18.63 455.85,-27.53 460.15,-22.01"/>
</g>
<!-- Node6 -->
<g id="node6" class="node">
<title>Node6</title>
<g id="a_node6"><a xlink:title=" ">
<polygon fill="none" stroke="#bfbfbf" points="481.89,-0.5 481.89,-18.5 533.48,-18.5 533.48,-0.5 481.89,-0.5"/>
<text text-anchor="middle" x="507.68" y="-6.5" font-family="Helvetica,sans-Serif" font-size="10.00">stddef.h</text>
</a>
</g>
</g>
<!-- Node4&#45;&gt;Node6 -->
<g id="edge5" class="edge">
<title>Node4&#45;&gt;Node6</title>
<path fill="none" stroke="midnightblue" d="M507.68,-55.22C507.68,-48.18 507.68,-37.81 507.68,-28.83"/>
<polygon fill="midnightblue" stroke="midnightblue" points="511.18,-28.55 507.68,-18.55 504.18,-28.55 511.18,-28.55"/>
</g>
<!-- Node7 -->
<g id="node7" class="node">
<title>Node7</title>
<g id="a_node7"><a xlink:title=" ">
<polygon fill="none" stroke="#bfbfbf" points="551.62,-0.5 551.62,-18.5 613.75,-18.5 613.75,-0.5 551.62,-0.5"/>
<text text-anchor="middle" x="582.68" y="-6.5" font-family="Helvetica,sans-Serif" font-size="10.00">type_traits</text>
</a>
</g>
</g>
<!-- Node4&#45;&gt;Node7 -->
<g id="edge6" class="edge">
<title>Node4&#45;&gt;Node7</title>
<path fill="none" stroke="midnightblue" d="M519.08,-55.45C530.64,-47.28 548.78,-34.46 562.73,-24.6"/>
<polygon fill="midnightblue" stroke="midnightblue" points="565.04,-27.25 571.19,-18.63 561,-21.54 565.04,-27.25"/>
</g>
<!-- Node10 -->
<g id="node10" class="node">
<title>Node10</title>
<g id="a_node10"><a xlink:href="../../d8/db5/consts_8h.html" target="_top" xlink:title=" ">
<polygon fill="none" stroke="black" points="419.06,-110.5 419.06,-128.5 472.31,-128.5 472.31,-110.5 419.06,-110.5"/>
<text text-anchor="middle" x="445.68" y="-116.5" font-family="Helvetica,sans-Serif" font-size="10.00">consts.h</text>
</a>
</g>
</g>
<!-- Node9&#45;&gt;Node10 -->
<g id="edge9" class="edge">
<title>Node9&#45;&gt;Node10</title>
<path fill="none" stroke="midnightblue" d="M445.68,-165.22C445.68,-158.18 445.68,-147.81 445.68,-138.83"/>
<polygon fill="midnightblue" stroke="midnightblue" points="449.18,-138.55 445.68,-128.55 442.18,-138.55 449.18,-138.55"/>
</g>
<!-- Node10&#45;&gt;Node4 -->
<g id="edge10" class="edge">
<title>Node10&#45;&gt;Node4</title>
<path fill="none" stroke="midnightblue" d="M455.1,-110.45C464.48,-102.43 479.09,-89.95 490.53,-80.17"/>
<polygon fill="midnightblue" stroke="midnightblue" points="492.85,-82.78 498.18,-73.63 488.3,-77.46 492.85,-82.78"/>
</g>
<!-- Node14 -->
<g id="node14" class="node">
<title>Node14</title>
<g id="a_node14"><a xlink:href="../../d4/de9/_main_class_8h.html" target="_top" xlink:title=" ">
<polygon fill="none" stroke="black" points="155.73,-605.5 155.73,-623.5 255.64,-623.5 255.64,-605.5 155.73,-605.5"/>
<text text-anchor="middle" x="205.68" y="-611.5" font-family="Helvetica,sans-Serif" font-size="10.00">tralics/MainClass.h</text>
</a>
</g>
</g>
<!-- Node13&#45;&gt;Node14 -->
<g id="edge14" class="edge">
<title>Node13&#45;&gt;Node14</title>
<path fill="none" stroke="midnightblue" d="M164.34,-660.22C171.5,-652.47 182.39,-640.7 191.19,-631.18"/>
<polygon fill="midnightblue" stroke="midnightblue" points="194.02,-633.27 198.24,-623.55 188.88,-628.52 194.02,-633.27"/>
</g>
<!-- Node29 -->
<g id="node29" class="node">
<title>Node29</title>
<g id="a_node29"><a xlink:href="../../d2/d06/txlogger_8h.html" target="_top" xlink:title=" ">
<polygon fill="none" stroke="black" points="0,-605.5 0,-623.5 59.37,-623.5 59.37,-605.5 0,-605.5"/>
<text text-anchor="middle" x="29.68" y="-611.5" font-family="Helvetica,sans-Serif" font-size="10.00">txlogger.h</text>
</a>
</g>
</g>
<!-- Node13&#45;&gt;Node29 -->
<g id="edge37" class="edge">
<title>Node13&#45;&gt;Node29</title>
<path fill="none" stroke="midnightblue" d="M137.4,-660.45C116.42,-651.7 82.65,-637.61 58.52,-627.53"/>
<polygon fill="midnightblue" stroke="midnightblue" points="59.73,-624.25 49.15,-623.63 57.04,-630.71 59.73,-624.25"/>
</g>
<!-- Node31 -->
<g id="node31" class="node">
<title>Node31</title>
<g id="a_node31"><a xlink:href="../../d5/d08/txparam_8h.html" target="_top" xlink:title=" ">
<polygon fill="none" stroke="black" points="77.45,-605.5 77.45,-623.5 137.92,-623.5 137.92,-605.5 77.45,-605.5"/>
<text text-anchor="middle" x="107.68" y="-611.5" font-family="Helvetica,sans-Serif" font-size="10.00">txparam.h</text>
</a>
</g>
</g>
<!-- Node13&#45;&gt;Node31 -->
<g id="edge40" class="edge">
<title>Node13&#45;&gt;Node31</title>
<path fill="none" stroke="midnightblue" d="M149.03,-660.22C141.87,-652.47 130.98,-640.7 122.18,-631.18"/>
<polygon fill="midnightblue" stroke="midnightblue" points="124.49,-628.52 115.13,-623.55 119.35,-633.27 124.49,-628.52"/>
</g>
<!-- Node15 -->
<g id="node15" class="node">
<title>Node15</title>
<g id="a_node15"><a xlink:href="../../de/d29/txio_8h.html" target="_top" xlink:title=" ">
<polygon fill="none" stroke="black" points="181.57,-550.5 181.57,-568.5 229.8,-568.5 229.8,-550.5 181.57,-550.5"/>
<text text-anchor="middle" x="205.68" y="-556.5" font-family="Helvetica,sans-Serif" font-size="10.00">../txio.h</text>
</a>
</g>
</g>
<!-- Node14&#45;&gt;Node15 -->
<g id="edge15" class="edge">
<title>Node14&#45;&gt;Node15</title>
<path fill="none" stroke="midnightblue" d="M205.68,-605.22C205.68,-598.18 205.68,-587.81 205.68,-578.83"/>
<polygon fill="midnightblue" stroke="midnightblue" points="209.18,-578.55 205.68,-568.55 202.18,-578.55 209.18,-578.55"/>
</g>
<!-- Node28 -->
<g id="node28" class="node">
<title>Node28</title>
<g id="a_node28"><a xlink:href="../../dc/def/txstring_8h.html" target="_top" xlink:title=" ">
<polygon fill="none" stroke="black" points="382.23,-495.5 382.23,-513.5 447.14,-513.5 447.14,-495.5 382.23,-495.5"/>
<text text-anchor="middle" x="414.68" y="-501.5" font-family="Helvetica,sans-Serif" font-size="10.00">../txstring.h</text>
</a>
</g>
</g>
<!-- Node14&#45;&gt;Node28 -->
<g id="edge35" class="edge">
<title>Node14&#45;&gt;Node28</title>
<path fill="none" stroke="midnightblue" d="M218.65,-605.44C238.99,-592.93 279.76,-568.38 315.68,-550 338.79,-538.18 365.69,-526.19 385.61,-517.65"/>
<polygon fill="midnightblue" stroke="midnightblue" points="387.23,-520.76 395.06,-513.63 384.49,-514.32 387.23,-520.76"/>
</g>
<!-- Node16 -->
<g id="node16" class="node">
<title>Node16</title>
<g id="a_node16"><a xlink:href="../../dd/d74/txbuffer_8h.html" target="_top" xlink:title=" ">
<polygon fill="none" stroke="black" points="371.2,-440.5 371.2,-458.5 428.17,-458.5 428.17,-440.5 371.2,-440.5"/>
<text text-anchor="middle" x="399.68" y="-446.5" font-family="Helvetica,sans-Serif" font-size="10.00">txbuffer.h</text>
</a>
</g>
</g>
<!-- Node15&#45;&gt;Node16 -->
<g id="edge16" class="edge">
<title>Node15&#45;&gt;Node16</title>
<path fill="none" stroke="midnightblue" d="M220.27,-550.38C253.63,-531.81 335.77,-486.08 376.3,-463.52"/>
<polygon fill="midnightblue" stroke="midnightblue" points="378.16,-466.49 385.2,-458.56 374.76,-460.37 378.16,-466.49"/>
</g>
<!-- Node27 -->
<g id="node27" class="node">
<title>Node27</title>
<g id="a_node27"><a xlink:title=" ">
<polygon fill="none" stroke="#bfbfbf" points="93.01,-495.5 93.01,-513.5 142.35,-513.5 142.35,-495.5 93.01,-495.5"/>
<text text-anchor="middle" x="117.68" y="-501.5" font-family="Helvetica,sans-Serif" font-size="10.00">fstream</text>
</a>
</g>
</g>
<!-- Node15&#45;&gt;Node27 -->
<g id="edge34" class="edge">
<title>Node15&#45;&gt;Node27</title>
<path fill="none" stroke="midnightblue" d="M192.32,-550.45C178.49,-542.12 156.65,-528.97 140.17,-519.04"/>
<polygon fill="midnightblue" stroke="midnightblue" points="141.55,-515.79 131.18,-513.63 137.94,-521.78 141.55,-515.79"/>
</g>
<!-- Node16&#45;&gt;Node12 -->
<g id="edge33" class="edge">
<title>Node16&#45;&gt;Node12</title>
<path fill="none" stroke="midnightblue" d="M415.18,-440.45C431.58,-431.93 457.7,-418.35 476.96,-408.35"/>
<polygon fill="midnightblue" stroke="midnightblue" points="478.79,-411.34 486.05,-403.63 475.56,-405.13 478.79,-411.34"/>
</g>
<!-- Node17 -->
<g id="node17" class="node">
<title>Node17</title>
<g id="a_node17"><a xlink:href="../../d1/d9e/txid_8h.html" target="_top" xlink:title=" ">
<polygon fill="none" stroke="black" points="444.73,-330.5 444.73,-348.5 484.64,-348.5 484.64,-330.5 444.73,-330.5"/>
<text text-anchor="middle" x="464.68" y="-336.5" font-family="Helvetica,sans-Serif" font-size="10.00">txid.h</text>
</a>
</g>
</g>
<!-- Node16&#45;&gt;Node17 -->
<g id="edge17" class="edge">
<title>Node16&#45;&gt;Node17</title>
<path fill="none" stroke="midnightblue" d="M406.46,-440.27C413.46,-431.56 424.51,-417.26 432.68,-404 441.99,-388.91 450.92,-370.77 456.98,-357.74"/>
<polygon fill="midnightblue" stroke="midnightblue" points="460.2,-359.11 461.16,-348.56 453.83,-356.2 460.2,-359.11"/>
</g>
<!-- Node20 -->
<g id="node20" class="node">
<title>Node20</title>
<g id="a_node20"><a xlink:href="../../d9/d18/txscaled_8h.html" target="_top" xlink:title=" ">
<polygon fill="none" stroke="black" points="362.17,-385.5 362.17,-403.5 423.2,-403.5 423.2,-385.5 362.17,-385.5"/>
<text text-anchor="middle" x="392.68" y="-391.5" font-family="Helvetica,sans-Serif" font-size="10.00">txscaled.h</text>
</a>
</g>
</g>
<!-- Node16&#45;&gt;Node20 -->
<g id="edge23" class="edge">
<title>Node16&#45;&gt;Node20</title>
<path fill="none" stroke="midnightblue" d="M398.59,-440.22C397.65,-433.1 396.26,-422.58 395.07,-413.53"/>
<polygon fill="midnightblue" stroke="midnightblue" points="398.53,-413.01 393.75,-403.55 391.59,-413.92 398.53,-413.01"/>
</g>
<!-- Node26 -->
<g id="node26" class="node">
<title>Node26</title>
<g id="a_node26"><a xlink:title=" ">
<polygon fill="none" stroke="#bfbfbf" points="298.96,-385.5 298.96,-403.5 344.41,-403.5 344.41,-385.5 298.96,-385.5"/>
<text text-anchor="middle" x="321.68" y="-391.5" font-family="Helvetica,sans-Serif" font-size="10.00">cstring</text>
</a>
</g>
</g>
<!-- Node16&#45;&gt;Node26 -->
<g id="edge32" class="edge">
<title>Node16&#45;&gt;Node26</title>
<path fill="none" stroke="midnightblue" d="M387.84,-440.45C375.7,-432.2 356.59,-419.22 342.02,-409.32"/>
<polygon fill="midnightblue" stroke="midnightblue" points="343.88,-406.35 333.64,-403.63 339.95,-412.14 343.88,-406.35"/>
</g>
<!-- Node17&#45;&gt;Node11 -->
<g id="edge22" class="edge">
<title>Node17&#45;&gt;Node11</title>
<path fill="none" stroke="midnightblue" d="M474.05,-330.37C488.47,-317.99 517.09,-293.85 542.68,-275 557.58,-264.03 574.99,-252.5 588.33,-243.93"/>
<polygon fill="midnightblue" stroke="midnightblue" points="590.29,-246.83 596.84,-238.51 586.52,-240.93 590.29,-246.83"/>
</g>
<!-- Node18 -->
<g id="node18" class="node">
<title>Node18</title>
<g id="a_node18"><a xlink:href="../../d5/daf/_istring_8h.html" target="_top" xlink:title=" ">
<polygon fill="none" stroke="black" points="415.45,-275.5 415.45,-293.5 495.92,-293.5 495.92,-275.5 415.45,-275.5"/>
<text text-anchor="middle" x="455.68" y="-281.5" font-family="Helvetica,sans-Serif" font-size="10.00">tralics/Istring.h</text>
</a>
</g>
</g>
<!-- Node17&#45;&gt;Node18 -->
<g id="edge18" class="edge">
<title>Node17&#45;&gt;Node18</title>
<path fill="none" stroke="midnightblue" d="M463.28,-330.22C462.07,-323.1 460.28,-312.58 458.75,-303.53"/>
<polygon fill="midnightblue" stroke="midnightblue" points="462.18,-302.82 457.05,-293.55 455.28,-303.99 462.18,-302.82"/>
</g>
<!-- Node18&#45;&gt;Node9 -->
<g id="edge19" class="edge">
<title>Node18&#45;&gt;Node9</title>
<path fill="none" stroke="midnightblue" d="M450.74,-275.33C445.81,-266.67 438.56,-252.42 435.68,-239 432.43,-223.81 435.67,-206.36 439.31,-193.6"/>
<polygon fill="midnightblue" stroke="midnightblue" points="442.74,-194.36 442.45,-183.77 436.07,-192.23 442.74,-194.36"/>
</g>
<!-- Node18&#45;&gt;Node11 -->
<g id="edge21" class="edge">
<title>Node18&#45;&gt;Node11</title>
<path fill="none" stroke="midnightblue" d="M479.07,-275.45C505.87,-266.23 549.86,-251.09 579.29,-240.96"/>
<polygon fill="midnightblue" stroke="midnightblue" points="580.72,-244.17 589.04,-237.6 578.45,-237.55 580.72,-244.17"/>
</g>
<!-- Node19 -->
<g id="node19" class="node">
<title>Node19</title>
<g id="a_node19"><a xlink:title=" ">
<polygon fill="none" stroke="#bfbfbf" points="524.29,-220.5 524.29,-238.5 563.08,-238.5 563.08,-220.5 524.29,-220.5"/>
<text text-anchor="middle" x="543.68" y="-226.5" font-family="Helvetica,sans-Serif" font-size="10.00">array</text>
</a>
</g>
</g>
<!-- Node18&#45;&gt;Node19 -->
<g id="edge20" class="edge">
<title>Node18&#45;&gt;Node19</title>
<path fill="none" stroke="midnightblue" d="M469.05,-275.45C482.88,-267.12 504.71,-253.97 521.2,-244.04"/>
<polygon fill="midnightblue" stroke="midnightblue" points="523.43,-246.78 530.19,-238.63 519.82,-240.79 523.43,-246.78"/>
</g>
<!-- Node21 -->
<g id="node21" class="node">
<title>Node21</title>
<g id="a_node21"><a xlink:href="../../dc/d91/txtokenlist_8h.html" target="_top" xlink:title=" ">
<polygon fill="none" stroke="black" points="358.28,-330.5 358.28,-348.5 427.09,-348.5 427.09,-330.5 358.28,-330.5"/>
<text text-anchor="middle" x="392.68" y="-336.5" font-family="Helvetica,sans-Serif" font-size="10.00">txtokenlist.h</text>
</a>
</g>
</g>
<!-- Node20&#45;&gt;Node21 -->
<g id="edge24" class="edge">
<title>Node20&#45;&gt;Node21</title>
<path fill="none" stroke="midnightblue" d="M392.68,-385.22C392.68,-378.18 392.68,-367.81 392.68,-358.83"/>
<polygon fill="midnightblue" stroke="midnightblue" points="396.18,-358.55 392.68,-348.55 389.18,-358.55 396.18,-358.55"/>
</g>
<!-- Node21&#45;&gt;Node18 -->
<g id="edge25" class="edge">
<title>Node21&#45;&gt;Node18</title>
<path fill="none" stroke="midnightblue" d="M402.25,-330.45C411.78,-322.43 426.62,-309.95 438.25,-300.17"/>
<polygon fill="midnightblue" stroke="midnightblue" points="440.63,-302.74 446.03,-293.63 436.12,-297.38 440.63,-302.74"/>
</g>
<!-- Node22 -->
<g id="node22" class="node">
<title>Node22</title>
<g id="a_node22"><a xlink:href="../../dd/dcd/_token_8h.html" target="_top" xlink:title=" ">
<polygon fill="none" stroke="black" points="317.73,-275.5 317.73,-293.5 397.64,-293.5 397.64,-275.5 317.73,-275.5"/>
<text text-anchor="middle" x="357.68" y="-281.5" font-family="Helvetica,sans-Serif" font-size="10.00">tralics/Token.h</text>
</a>
</g>
</g>
<!-- Node21&#45;&gt;Node22 -->
<g id="edge26" class="edge">
<title>Node21&#45;&gt;Node22</title>
<path fill="none" stroke="midnightblue" d="M387.22,-330.22C382.26,-322.71 374.8,-311.41 368.61,-302.05"/>
<polygon fill="midnightblue" stroke="midnightblue" points="371.43,-299.97 363,-293.55 365.59,-303.82 371.43,-299.97"/>
</g>
<!-- Node25 -->
<g id="node25" class="node">
<title>Node25</title>
<g id="a_node25"><a xlink:title=" ">
<polygon fill="none" stroke="#bfbfbf" points="551.29,-275.5 551.29,-293.5 590.08,-293.5 590.08,-275.5 551.29,-275.5"/>
<text text-anchor="middle" x="570.68" y="-281.5" font-family="Helvetica,sans-Serif" font-size="10.00">utility</text>
</a>
</g>
</g>
<!-- Node21&#45;&gt;Node25 -->
<g id="edge31" class="edge">
<title>Node21&#45;&gt;Node25</title>
<path fill="none" stroke="midnightblue" d="M419.72,-330.45C452.51,-320.69 507.57,-304.29 541.36,-294.23"/>
<polygon fill="midnightblue" stroke="midnightblue" points="542.52,-297.54 551.11,-291.33 540.53,-290.83 542.52,-297.54"/>
</g>
<!-- Node23 -->
<g id="node23" class="node">
<title>Node23</title>
<g id="a_node23"><a xlink:href="../../d2/d68/_cmd_chr_8h.html" target="_top" xlink:title=" ">
<polygon fill="none" stroke="black" points="445.17,-220.5 445.17,-238.5 506.19,-238.5 506.19,-220.5 445.17,-220.5"/>
<text text-anchor="middle" x="475.68" y="-226.5" font-family="Helvetica,sans-Serif" font-size="10.00">CmdChr.h</text>
</a>
</g>
</g>
<!-- Node22&#45;&gt;Node23 -->
<g id="edge27" class="edge">
<title>Node22&#45;&gt;Node23</title>
<path fill="none" stroke="midnightblue" d="M375.61,-275.45C394.93,-266.77 425.91,-252.86 448.29,-242.8"/>
<polygon fill="midnightblue" stroke="midnightblue" points="449.91,-245.92 457.59,-238.63 447.04,-239.53 449.91,-245.92"/>
</g>
<!-- Node24 -->
<g id="node24" class="node">
<title>Node24</title>
<g id="a_node24"><a xlink:title=" ">
<polygon fill="none" stroke="#bfbfbf" points="343.18,-220.5 343.18,-238.5 372.18,-238.5 372.18,-220.5 343.18,-220.5"/>
<text text-anchor="middle" x="357.3" y="-226.5" font-family="Helvetica,sans-Serif" font-size="10.00">list</text>
</a>
</g>
</g>
<!-- Node22&#45;&gt;Node24 -->
<g id="edge30" class="edge">
<title>Node22&#45;&gt;Node24</title>
<path fill="none" stroke="midnightblue" d="M357.68,-275.22C357.68,-268.18 357.68,-257.81 357.68,-248.83"/>
<polygon fill="midnightblue" stroke="midnightblue" points="361.18,-248.55 357.68,-238.55 354.18,-248.55 361.18,-248.55"/>
</g>
<!-- Node23&#45;&gt;Node3 -->
<g id="edge28" class="edge">
<title>Node23&#45;&gt;Node3</title>
<path fill="none" stroke="midnightblue" d="M486.47,-220.45C497.31,-212.36 514.26,-199.7 527.42,-189.88"/>
<polygon fill="midnightblue" stroke="midnightblue" points="529.88,-192.41 535.8,-183.63 525.69,-186.8 529.88,-192.41"/>
</g>
<!-- Node23&#45;&gt;Node9 -->
<g id="edge29" class="edge">
<title>Node23&#45;&gt;Node9</title>
<path fill="none" stroke="midnightblue" d="M471,-220.22C466.79,-212.79 460.48,-201.65 455.22,-192.34"/>
<polygon fill="midnightblue" stroke="midnightblue" points="458.21,-190.53 450.24,-183.55 452.12,-193.98 458.21,-190.53"/>
</g>
<!-- Node28&#45;&gt;Node16 -->
<g id="edge36" class="edge">
<title>Node28&#45;&gt;Node16</title>
<path fill="none" stroke="midnightblue" d="M412.34,-495.22C410.3,-488.02 407.28,-477.35 404.7,-468.23"/>
<polygon fill="midnightblue" stroke="midnightblue" points="408.05,-467.22 401.96,-458.55 401.32,-469.12 408.05,-467.22"/>
</g>
<!-- Node29&#45;&gt;Node27 -->
<g id="edge38" class="edge">
<title>Node29&#45;&gt;Node27</title>
<path fill="none" stroke="midnightblue" d="M30.33,-605.27C31.71,-592.33 35.97,-566.93 48.68,-550 58.98,-536.3 74.83,-525.65 88.74,-518.21"/>
<polygon fill="midnightblue" stroke="midnightblue" points="90.61,-521.19 97.97,-513.57 87.46,-514.93 90.61,-521.19"/>
</g>
<!-- Node30 -->
<g id="node30" class="node">
<title>Node30</title>
<g id="a_node30"><a xlink:title=" ">
<polygon fill="none" stroke="#bfbfbf" points="57.51,-550.5 57.51,-568.5 111.86,-568.5 111.86,-550.5 57.51,-550.5"/>
<text text-anchor="middle" x="84.68" y="-556.5" font-family="Helvetica,sans-Serif" font-size="10.00">iostream</text>
</a>
</g>
</g>
<!-- Node29&#45;&gt;Node30 -->
<g id="edge39" class="edge">
<title>Node29&#45;&gt;Node30</title>
<path fill="none" stroke="midnightblue" d="M38.28,-605.22C46.48,-597.32 59.03,-585.22 69.01,-575.61"/>
<polygon fill="midnightblue" stroke="midnightblue" points="71.56,-578.01 76.33,-568.55 66.7,-572.97 71.56,-578.01"/>
</g>
<!-- Node31&#45;&gt;Node15 -->
<g id="edge41" class="edge">
<title>Node31&#45;&gt;Node15</title>
<path fill="none" stroke="midnightblue" d="M122.57,-605.45C138.25,-596.97 163.2,-583.48 181.67,-573.49"/>
<polygon fill="midnightblue" stroke="midnightblue" points="183.53,-576.46 190.66,-568.63 180.2,-570.3 183.53,-576.46"/>
</g>
<!-- Node32&#45;&gt;Node15 -->
<g id="edge54" class="edge">
<title>Node32&#45;&gt;Node15</title>
<path fill="none" stroke="midnightblue" d="M420.56,-661.52C391.04,-654.12 345.16,-641.15 307.68,-624 277.09,-610 244.56,-588.43 224.67,-574.39"/>
<polygon fill="midnightblue" stroke="midnightblue" points="226.65,-571.5 216.48,-568.52 222.57,-577.19 226.65,-571.5"/>
</g>
<!-- Node33 -->
<g id="node33" class="node">
<title>Node33</title>
<g id="a_node33"><a xlink:href="../../d3/d6b/txcond_8h.html" target="_top" xlink:title=" ">
<polygon fill="none" stroke="black" points="269.78,-440.5 269.78,-458.5 323.59,-458.5 323.59,-440.5 269.78,-440.5"/>
<text text-anchor="middle" x="296.68" y="-446.5" font-family="Helvetica,sans-Serif" font-size="10.00">txcond.h</text>
</a>
</g>
</g>
<!-- Node32&#45;&gt;Node33 -->
<g id="edge43" class="edge">
<title>Node32&#45;&gt;Node33</title>
<path fill="none" stroke="midnightblue" d="M429.05,-660.39C410.33,-652.75 383.15,-640.08 362.68,-624 337.4,-604.14 329.18,-598.19 315.68,-569 300.43,-536.01 297.14,-492.95 296.6,-468.87"/>
<polygon fill="midnightblue" stroke="midnightblue" points="300.1,-468.67 296.51,-458.7 293.1,-468.73 300.1,-468.67"/>
</g>
<!-- Node34 -->
<g id="node34" class="node">
<title>Node34</title>
<g id="a_node34"><a xlink:href="../../d7/d4d/txfonts_8h.html" target="_top" xlink:title=" ">
<polygon fill="none" stroke="black" points="324.79,-550.5 324.79,-568.5 378.58,-568.5 378.58,-550.5 324.79,-550.5"/>
<text text-anchor="middle" x="351.68" y="-556.5" font-family="Helvetica,sans-Serif" font-size="10.00">txfonts.h</text>
</a>
</g>
</g>
<!-- Node32&#45;&gt;Node34 -->
<g id="edge46" class="edge">
<title>Node32&#45;&gt;Node34</title>
<path fill="none" stroke="midnightblue" d="M430.94,-660.38C415,-652.96 392.95,-640.61 378.68,-624 367.35,-610.81 360.19,-592.15 356.11,-578.48"/>
<polygon fill="midnightblue" stroke="midnightblue" points="359.48,-577.51 353.48,-568.78 352.72,-579.34 359.48,-577.51"/>
</g>
<!-- Node35 -->
<g id="node35" class="node">
<title>Node35</title>
<g id="a_node35"><a xlink:href="../../d7/d7e/txhash_8h.html" target="_top" xlink:title=" ">
<polygon fill="none" stroke="black" points="387.78,-605.5 387.78,-623.5 441.59,-623.5 441.59,-605.5 387.78,-605.5"/>
<text text-anchor="middle" x="414.68" y="-611.5" font-family="Helvetica,sans-Serif" font-size="10.00">txhash.h</text>
</a>
</g>
</g>
<!-- Node32&#45;&gt;Node35 -->
<g id="edge48" class="edge">
<title>Node32&#45;&gt;Node35</title>
<path fill="none" stroke="midnightblue" d="M445.06,-660.22C439.96,-652.71 432.28,-641.41 425.93,-632.05"/>
<polygon fill="midnightblue" stroke="midnightblue" points="428.67,-629.86 420.15,-623.55 422.88,-633.79 428.67,-629.86"/>
</g>
<!-- Node37 -->
<g id="node37" class="node">
<title>Node37</title>
<g id="a_node37"><a xlink:href="../../de/d7c/tximage_8h.html" target="_top" xlink:title=" ">
<polygon fill="none" stroke="black" points="580.01,-330.5 580.01,-348.5 639.36,-348.5 639.36,-330.5 580.01,-330.5"/>
<text text-anchor="middle" x="609.68" y="-336.5" font-family="Helvetica,sans-Serif" font-size="10.00">tximage.h</text>
</a>
</g>
</g>
<!-- Node32&#45;&gt;Node37 -->
<g id="edge51" class="edge">
<title>Node32&#45;&gt;Node37</title>
<path fill="none" stroke="midnightblue" d="M480.72,-667.34C513.37,-664.46 564.98,-654.92 595.68,-624 616.44,-603.1 614.68,-589.96 614.68,-560.5 614.68,-560.5 614.68,-560.5 614.68,-448.5 614.68,-416.98 612.53,-380.35 611.05,-358.87"/>
<polygon fill="midnightblue" stroke="midnightblue" points="614.52,-358.35 610.32,-348.62 607.54,-358.85 614.52,-358.35"/>
</g>
<!-- Node38 -->
<g id="node38" class="node">
<title>Node38</title>
<g id="a_node38"><a xlink:href="../../dc/d65/txstack_8h.html" target="_top" xlink:title=" ">
<polygon fill="none" stroke="black" points="459.96,-605.5 459.96,-623.5 515.41,-623.5 515.41,-605.5 459.96,-605.5"/>
<text text-anchor="middle" x="487.68" y="-611.5" font-family="Helvetica,sans-Serif" font-size="10.00">txstack.h</text>
</a>
</g>
</g>
<!-- Node32&#45;&gt;Node38 -->
<g id="edge55" class="edge">
<title>Node32&#45;&gt;Node38</title>
<path fill="none" stroke="midnightblue" d="M456.47,-660.22C461.76,-652.63 469.76,-641.18 476.33,-631.76"/>
<polygon fill="midnightblue" stroke="midnightblue" points="479.21,-633.75 482.07,-623.55 473.47,-629.75 479.21,-633.75"/>
</g>
<!-- Node41 -->
<g id="node41" class="node">
<title>Node41</title>
<g id="a_node41"><a xlink:href="../../d8/d3d/txstats_8h.html" target="_top" xlink:title=" ">
<polygon fill="none" stroke="black" points="533.07,-605.5 533.07,-623.5 586.3,-623.5 586.3,-605.5 533.07,-605.5"/>
<text text-anchor="middle" x="559.68" y="-611.5" font-family="Helvetica,sans-Serif" font-size="10.00">txstats.h</text>
</a>
</g>
</g>
<!-- Node32&#45;&gt;Node41 -->
<g id="edge61" class="edge">
<title>Node32&#45;&gt;Node41</title>
<path fill="none" stroke="midnightblue" d="M467.24,-660.45C484.93,-651.85 513.2,-638.1 533.82,-628.08"/>
<polygon fill="midnightblue" stroke="midnightblue" points="535.51,-631.15 542.97,-623.63 532.45,-624.85 535.51,-631.15"/>
</g>
<!-- Node33&#45;&gt;Node9 -->
<g id="edge44" class="edge">
<title>Node33&#45;&gt;Node9</title>
<path fill="none" stroke="midnightblue" d="M293.29,-440.26C286.24,-422.41 270.68,-378.69 270.68,-340.5 270.68,-340.5 270.68,-340.5 270.68,-283.5 270.68,-219.37 356.84,-192.06 408.25,-181.48"/>
<polygon fill="midnightblue" stroke="midnightblue" points="409.19,-184.86 418.34,-179.52 407.86,-177.99 409.19,-184.86"/>
</g>
<!-- Node33&#45;&gt;Node12 -->
<g id="edge45" class="edge">
<title>Node33&#45;&gt;Node12</title>
<path fill="none" stroke="midnightblue" d="M323.91,-441.46C361.78,-431.67 430.21,-413.98 470.22,-403.63"/>
<polygon fill="midnightblue" stroke="midnightblue" points="471.18,-407 479.99,-401.11 469.43,-400.22 471.18,-407"/>
</g>
<!-- Node34&#45;&gt;Node28 -->
<g id="edge47" class="edge">
<title>Node34&#45;&gt;Node28</title>
<path fill="none" stroke="midnightblue" d="M361.25,-550.45C370.78,-542.43 385.62,-529.95 397.25,-520.17"/>
<polygon fill="midnightblue" stroke="midnightblue" points="399.63,-522.74 405.03,-513.63 395.12,-517.38 399.63,-522.74"/>
</g>
<!-- Node36 -->
<g id="node36" class="node">
<title>Node36</title>
<g id="a_node36"><a xlink:href="../../d3/d01/txeqtb_8h.html" target="_top" xlink:title=" ">
<polygon fill="none" stroke="black" points="396.89,-550.5 396.89,-568.5 448.48,-568.5 448.48,-550.5 396.89,-550.5"/>
<text text-anchor="middle" x="422.68" y="-556.5" font-family="Helvetica,sans-Serif" font-size="10.00">txeqtb.h</text>
</a>
</g>
</g>
<!-- Node35&#45;&gt;Node36 -->
<g id="edge49" class="edge">
<title>Node35&#45;&gt;Node36</title>
<path fill="none" stroke="midnightblue" d="M415.93,-605.22C417.01,-598.1 418.6,-587.58 419.96,-578.53"/>
<polygon fill="midnightblue" stroke="midnightblue" points="423.44,-578.96 421.47,-568.55 416.52,-577.92 423.44,-578.96"/>
</g>
<!-- Node36&#45;&gt;Node28 -->
<g id="edge50" class="edge">
<title>Node36&#45;&gt;Node28</title>
<path fill="none" stroke="midnightblue" d="M421.43,-550.22C420.36,-543.1 418.77,-532.58 417.41,-523.53"/>
<polygon fill="midnightblue" stroke="midnightblue" points="420.85,-522.92 415.9,-513.55 413.93,-523.96 420.85,-522.92"/>
</g>
<!-- Node37&#45;&gt;Node11 -->
<g id="edge52" class="edge">
<title>Node37&#45;&gt;Node11</title>
<path fill="none" stroke="midnightblue" d="M609.68,-330.38C609.68,-313.18 609.68,-272.7 609.68,-248.89"/>
<polygon fill="midnightblue" stroke="midnightblue" points="613.18,-248.71 609.68,-238.71 606.18,-248.71 613.18,-248.71"/>
</g>
<!-- Node37&#45;&gt;Node25 -->
<g id="edge53" class="edge">
<title>Node37&#45;&gt;Node25</title>
<path fill="none" stroke="midnightblue" d="M603.59,-330.22C598.01,-322.63 589.58,-311.18 582.65,-301.76"/>
<polygon fill="midnightblue" stroke="midnightblue" points="585.35,-299.53 576.61,-293.55 579.72,-303.68 585.35,-299.53"/>
</g>
<!-- Node39 -->
<g id="node39" class="node">
<title>Node39</title>
<g id="a_node39"><a xlink:href="../../d4/da4/txatt_8h.html" target="_top" xlink:title=" ">
<polygon fill="none" stroke="black" points="466.07,-550.5 466.07,-568.5 509.3,-568.5 509.3,-550.5 466.07,-550.5"/>
<text text-anchor="middle" x="487.68" y="-556.5" font-family="Helvetica,sans-Serif" font-size="10.00">txatt.h</text>
</a>
</g>
</g>
<!-- Node38&#45;&gt;Node39 -->
<g id="edge56" class="edge">
<title>Node38&#45;&gt;Node39</title>
<path fill="none" stroke="midnightblue" d="M487.68,-605.22C487.68,-598.18 487.68,-587.81 487.68,-578.83"/>
<polygon fill="midnightblue" stroke="midnightblue" points="491.18,-578.55 487.68,-568.55 484.18,-578.55 491.18,-578.55"/>
</g>
<!-- Node40 -->
<g id="node40" class="node">
<title>Node40</title>
<g id="a_node40"><a xlink:href="../../d1/d43/txxml_8h.html" target="_top" xlink:title=" ">
<polygon fill="none" stroke="black" points="526.85,-550.5 526.85,-568.5 574.52,-568.5 574.52,-550.5 526.85,-550.5"/>
<text text-anchor="middle" x="550.68" y="-556.5" font-family="Helvetica,sans-Serif" font-size="10.00">txxml.h</text>
</a>
</g>
</g>
<!-- Node38&#45;&gt;Node40 -->
<g id="edge58" class="edge">
<title>Node38&#45;&gt;Node40</title>
<path fill="none" stroke="midnightblue" d="M497.25,-605.45C506.78,-597.43 521.62,-584.95 533.25,-575.17"/>
<polygon fill="midnightblue" stroke="midnightblue" points="535.63,-577.74 541.03,-568.63 531.12,-572.38 535.63,-577.74"/>
</g>
<!-- Node39&#45;&gt;Node28 -->
<g id="edge57" class="edge">
<title>Node39&#45;&gt;Node28</title>
<path fill="none" stroke="midnightblue" d="M476.6,-550.45C465.34,-542.28 447.69,-529.46 434.1,-519.6"/>
<polygon fill="midnightblue" stroke="midnightblue" points="436.02,-516.67 425.88,-513.63 431.91,-522.33 436.02,-516.67"/>
</g>
<!-- Node40&#45;&gt;Node12 -->
<g id="edge60" class="edge">
<title>Node40&#45;&gt;Node12</title>
<path fill="none" stroke="midnightblue" d="M539.18,-550.47C528.86,-542.54 514.36,-529.37 507.68,-514 493.38,-481.03 495.78,-437.97 498.77,-413.88"/>
<polygon fill="midnightblue" stroke="midnightblue" points="502.27,-414.09 500.21,-403.7 495.34,-413.11 502.27,-414.09"/>
</g>
<!-- Node40&#45;&gt;Node28 -->
<g id="edge59" class="edge">
<title>Node40&#45;&gt;Node28</title>
<path fill="none" stroke="midnightblue" d="M530.03,-550.45C507.36,-541.62 470.76,-527.35 444.88,-517.27"/>
<polygon fill="midnightblue" stroke="midnightblue" points="446.12,-514 435.53,-513.63 443.58,-520.52 446.12,-514"/>
</g>
<!-- Node42&#45;&gt;Node25 -->
<g id="edge63" class="edge">
<title>Node42&#45;&gt;Node25</title>
<path fill="none" stroke="midnightblue" d="M552.38,-495.48C555.12,-464.11 565.14,-349.16 569.08,-303.94"/>
<polygon fill="midnightblue" stroke="midnightblue" points="572.58,-304.09 569.96,-293.82 565.6,-303.48 572.58,-304.09"/>
</g>
</g>
</svg>
