<?xml version="1.0" encoding="UTF-8" standalone="no"?>
<!DOCTYPE svg PUBLIC "-//W3C//DTD SVG 1.1//EN"
 "http://www.w3.org/Graphics/SVG/1.1/DTD/svg11.dtd">
<!-- Generated by graphviz version 2.42.3 (20191010.1750)
 -->
<!-- Title: Xml Pages: 1 -->
<svg width="313pt" height="382pt"
 viewBox="0.00 0.00 312.63 382.00" xmlns="http://www.w3.org/2000/svg" xmlns:xlink="http://www.w3.org/1999/xlink">
<g id="graph0" class="graph" transform="scale(1 1) rotate(0) translate(4 378)">
<title>Xml</title>
<!-- Node1 -->
<g id="node1" class="node">
<title>Node1</title>
<g id="a_node1"><a xlink:title=" ">
<polygon fill="#bfbfbf" stroke="black" points="100.88,-0.5 100.88,-18.5 134.1,-18.5 134.1,-0.5 100.88,-0.5"/>
<text text-anchor="middle" x="117.49" y="-6.5" font-family="Helvetica,sans-Serif" font-size="10.00">Xml</text>
</a>
</g>
</g>
<!-- Node2 -->
<g id="node2" class="node">
<title>Node2</title>
<g id="a_node2"><a xlink:title="STL class.">
<polygon fill="none" stroke="#bfbfbf" points="0,-167.5 0,-195.5 102.99,-195.5 102.99,-167.5 0,-167.5"/>
<text text-anchor="start" x="8" y="-183.5" font-family="Helvetica,sans-Serif" font-size="10.00">std::vector&lt; gsl::not</text>
<text text-anchor="middle" x="51.49" y="-173.5" font-family="Helvetica,sans-Serif" font-size="10.00">_null&lt; Xml * &gt; &gt;</text>
</a>
</g>
</g>
<!-- Node2&#45;&gt;Node1 -->
<g id="edge1" class="edge">
<title>Node2&#45;&gt;Node1</title>
<path fill="none" stroke="midnightblue" d="M56.84,-157.52C62.73,-133.83 73.16,-96.05 86.49,-65 93.88,-47.8 105.34,-29.11 112.06,-18.7"/>
<polygon fill="midnightblue" stroke="midnightblue" points="53.42,-156.8 54.46,-167.35 60.22,-158.45 53.42,-156.8"/>
</g>
<!-- Node3 -->
<g id="node3" class="node">
<title>Node3</title>
<g id="a_node3"><a xlink:title=" ">
<polygon fill="none" stroke="#bfbfbf" points="62.99,-289.5 62.99,-307.5 91.99,-307.5 91.99,-289.5 62.99,-289.5"/>
<text text-anchor="middle" x="77.05" y="-295.5" font-family="Helvetica,sans-Serif" font-size="10.00">T</text>
</a>
</g>
</g>
<!-- Node3&#45;&gt;Node2 -->
<g id="edge2" class="edge">
<title>Node3&#45;&gt;Node2</title>
<path fill="none" stroke="#9a32cd" stroke-dasharray="5,2" d="M57.23,-282.62C53.94,-279.2 51,-275.29 49.14,-271 38.37,-246.19 43.52,-213.66 47.79,-195.76"/>
<polygon fill="#9a32cd" stroke="#9a32cd" points="54.92,-285.25 64.72,-289.29 59.57,-280.02 54.92,-285.25"/>
<text text-anchor="middle" x="71.17" y="-263" font-family="Helvetica,sans-Serif" font-size="10.00"> elements</text>
</g>
<!-- Node6 -->
<g id="node6" class="node">
<title>Node6</title>
<g id="a_node6"><a xlink:title="STL class.">
<polygon fill="none" stroke="#bfbfbf" points="71.06,-214.5 71.06,-242.5 177.93,-242.5 177.93,-214.5 71.06,-214.5"/>
<text text-anchor="start" x="79.06" y="-230.5" font-family="Helvetica,sans-Serif" font-size="10.00">std::vector&lt; StrHash</text>
<text text-anchor="middle" x="124.49" y="-220.5" font-family="Helvetica,sans-Serif" font-size="10.00">_record &gt;</text>
</a>
</g>
</g>
<!-- Node3&#45;&gt;Node6 -->
<g id="edge6" class="edge">
<title>Node3&#45;&gt;Node6</title>
<path fill="none" stroke="#9a32cd" stroke-dasharray="5,2" d="M88.91,-280.98C97.04,-269.22 107.82,-253.62 115.38,-242.69"/>
<polygon fill="#9a32cd" stroke="#9a32cd" points="85.88,-279.22 83.07,-289.43 91.63,-283.2 85.88,-279.22"/>
<text text-anchor="middle" x="123.17" y="-263" font-family="Helvetica,sans-Serif" font-size="10.00"> elements</text>
</g>
<!-- Node4 -->
<g id="node4" class="node">
<title>Node4</title>
<g id="a_node4"><a xlink:href="../../d9/d20/struct_istring.html" target="_top" xlink:title=" ">
<polygon fill="none" stroke="black" points="95.88,-65.5 95.88,-83.5 139.11,-83.5 139.11,-65.5 95.88,-65.5"/>
<text text-anchor="middle" x="117.49" y="-71.5" font-family="Helvetica,sans-Serif" font-size="10.00">Istring</text>
</a>
</g>
</g>
<!-- Node4&#45;&gt;Node1 -->
<g id="edge3" class="edge">
<title>Node4&#45;&gt;Node1</title>
<path fill="none" stroke="#9a32cd" stroke-dasharray="5,2" d="M117.49,-54.91C117.49,-42.81 117.49,-27.65 117.49,-18.54"/>
<polygon fill="#9a32cd" stroke="#9a32cd" points="113.99,-55.26 117.49,-65.26 120.99,-55.26 113.99,-55.26"/>
<text text-anchor="middle" x="131.39" y="-39" font-family="Helvetica,sans-Serif" font-size="10.00"> name</text>
</g>
<!-- Node5 -->
<g id="node5" class="node">
<title>Node5</title>
<g id="a_node5"><a xlink:href="../../de/df7/class_str_hash.html" target="_top" xlink:title=" ">
<polygon fill="none" stroke="black" points="98.43,-130.5 98.43,-148.5 150.56,-148.5 150.56,-130.5 98.43,-130.5"/>
<text text-anchor="middle" x="124.49" y="-136.5" font-family="Helvetica,sans-Serif" font-size="10.00">StrHash</text>
</a>
</g>
</g>
<!-- Node5&#45;&gt;Node4 -->
<g id="edge4" class="edge">
<title>Node5&#45;&gt;Node4</title>
<path fill="none" stroke="#9a32cd" stroke-dasharray="5,2" d="M122.47,-120.28C121.12,-108.13 119.41,-92.75 118.39,-83.54"/>
<polygon fill="#9a32cd" stroke="#9a32cd" points="119,-120.71 123.58,-130.26 125.95,-119.94 119,-120.71"/>
<text text-anchor="middle" x="128.83" y="-104" font-family="Helvetica,sans-Serif" font-size="10.00"> SH</text>
</g>
<!-- Node6&#45;&gt;Node5 -->
<g id="edge5" class="edge">
<title>Node6&#45;&gt;Node5</title>
<path fill="none" stroke="midnightblue" d="M124.49,-204.04C124.49,-185.64 124.49,-161.13 124.49,-148.61"/>
<polygon fill="midnightblue" stroke="midnightblue" points="120.99,-204.29 124.49,-214.29 127.99,-204.29 120.99,-204.29"/>
</g>
<!-- Node7 -->
<g id="node7" class="node">
<title>Node7</title>
<g id="a_node7"><a xlink:title=" ">
<polygon fill="none" stroke="#bfbfbf" points="196.36,-214.5 196.36,-242.5 304.63,-242.5 304.63,-214.5 196.36,-214.5"/>
<text text-anchor="start" x="204.36" y="-230.5" font-family="Helvetica,sans-Serif" font-size="10.00">std::unordered_map</text>
<text text-anchor="middle" x="250.49" y="-220.5" font-family="Helvetica,sans-Serif" font-size="10.00">&lt; std::string, size_t &gt;</text>
</a>
</g>
</g>
<!-- Node7&#45;&gt;Node5 -->
<g id="edge7" class="edge">
<title>Node7&#45;&gt;Node5</title>
<path fill="none" stroke="#9a32cd" stroke-dasharray="5,2" d="M223.36,-208.76C196.31,-190.09 156.05,-162.29 136.29,-148.65"/>
<polygon fill="#9a32cd" stroke="#9a32cd" points="221.41,-211.67 231.63,-214.48 225.39,-205.91 221.41,-211.67"/>
<text text-anchor="middle" x="216.23" y="-178.5" font-family="Helvetica,sans-Serif" font-size="10.00"> s_to_i</text>
</g>
<!-- Node8 -->
<g id="node8" class="node">
<title>Node8</title>
<g id="a_node8"><a xlink:title="STL class.">
<polygon fill="none" stroke="#bfbfbf" points="220.82,-289.5 220.82,-307.5 280.17,-307.5 280.17,-289.5 220.82,-289.5"/>
<text text-anchor="middle" x="250.49" y="-295.5" font-family="Helvetica,sans-Serif" font-size="10.00">std::string</text>
</a>
</g>
</g>
<!-- Node8&#45;&gt;Node7 -->
<g id="edge8" class="edge">
<title>Node8&#45;&gt;Node7</title>
<path fill="none" stroke="#9a32cd" stroke-dasharray="5,2" d="M250.49,-279.21C250.49,-267.69 250.49,-253.08 250.49,-242.69"/>
<polygon fill="#9a32cd" stroke="#9a32cd" points="246.99,-279.43 250.49,-289.43 253.99,-279.43 246.99,-279.43"/>
<text text-anchor="middle" x="262.16" y="-263" font-family="Helvetica,sans-Serif" font-size="10.00"> keys</text>
</g>
<!-- Node9 -->
<g id="node9" class="node">
<title>Node9</title>
<g id="a_node9"><a xlink:title="STL class.">
<polygon fill="none" stroke="#bfbfbf" points="203.45,-345.5 203.45,-373.5 297.54,-373.5 297.54,-345.5 203.45,-345.5"/>
<text text-anchor="start" x="211.45" y="-361.5" font-family="Helvetica,sans-Serif" font-size="10.00">std::basic_string&lt;</text>
<text text-anchor="middle" x="250.49" y="-351.5" font-family="Helvetica,sans-Serif" font-size="10.00"> char &gt;</text>
</a>
</g>
</g>
<!-- Node9&#45;&gt;Node8 -->
<g id="edge9" class="edge">
<title>Node9&#45;&gt;Node8</title>
<path fill="none" stroke="midnightblue" d="M250.49,-335.39C250.49,-325.59 250.49,-314.82 250.49,-307.65"/>
<polygon fill="midnightblue" stroke="midnightblue" points="246.99,-335.41 250.49,-345.41 253.99,-335.41 246.99,-335.41"/>
</g>
<!-- Node10 -->
<g id="node10" class="node">
<title>Node10</title>
<g id="a_node10"><a xlink:href="../../de/d3f/class_xid.html" target="_top" xlink:title=" ">
<polygon fill="none" stroke="black" points="157.27,-65.5 157.27,-83.5 187.72,-83.5 187.72,-65.5 157.27,-65.5"/>
<text text-anchor="middle" x="172.49" y="-71.5" font-family="Helvetica,sans-Serif" font-size="10.00">Xid</text>
</a>
</g>
</g>
<!-- Node10&#45;&gt;Node1 -->
<g id="edge10" class="edge">
<title>Node10&#45;&gt;Node1</title>
<path fill="none" stroke="#9a32cd" stroke-dasharray="5,2" d="M163.2,-56.31C159.37,-49.93 154.62,-42.83 149.49,-37 143.4,-30.06 135.4,-23.44 128.92,-18.55"/>
<polygon fill="#9a32cd" stroke="#9a32cd" points="160.41,-58.49 168.4,-65.46 166.5,-55.03 160.41,-58.49"/>
<text text-anchor="middle" x="161.77" y="-39" font-family="Helvetica,sans-Serif" font-size="10.00"> id</text>
</g>
</g>
</svg>
