<?xml version="1.0" encoding="UTF-8" standalone="no"?>
<!DOCTYPE svg PUBLIC "-//W3C//DTD SVG 1.1//EN"
 "http://www.w3.org/Graphics/SVG/1.1/DTD/svg11.dtd">
<!-- Generated by graphviz version 2.42.3 (20191010.1750)
 -->
<!-- Title: txmath1.C Pages: 1 -->
<svg width="724pt" height="742pt"
 viewBox="0.00 0.00 724.36 742.00" xmlns="http://www.w3.org/2000/svg" xmlns:xlink="http://www.w3.org/1999/xlink">
<g id="graph0" class="graph" transform="scale(1 1) rotate(0) translate(4 738)">
<title>txmath1.C</title>
<polygon fill="white" stroke="transparent" points="-4,4 -4,-738 720.36,-738 720.36,4 -4,4"/>
<!-- Node1 -->
<g id="node1" class="node">
<title>Node1</title>
<g id="a_node1"><a xlink:title=" ">
<polygon fill="#bfbfbf" stroke="black" points="441.9,-715.5 441.9,-733.5 503.47,-733.5 503.47,-715.5 441.9,-715.5"/>
<text text-anchor="middle" x="472.68" y="-721.5" font-family="Helvetica,sans-Serif" font-size="10.00">txmath1.C</text>
</a>
</g>
</g>
<!-- Node2 -->
<g id="node2" class="node">
<title>Node2</title>
<g id="a_node2"><a xlink:href="../../d7/d79/txinline_8h.html" target="_top" xlink:title=" ">
<polygon fill="white" stroke="black" points="147.95,-660.5 147.95,-678.5 203.42,-678.5 203.42,-660.5 147.95,-660.5"/>
<text text-anchor="middle" x="175.68" y="-666.5" font-family="Helvetica,sans-Serif" font-size="10.00">txinline.h</text>
</a>
</g>
</g>
<!-- Node1&#45;&gt;Node2 -->
<g id="edge1" class="edge">
<title>Node1&#45;&gt;Node2</title>
<path fill="none" stroke="midnightblue" d="M441.74,-717.98C386.94,-708.2 273.01,-687.87 213.59,-677.27"/>
<polygon fill="midnightblue" stroke="midnightblue" points="213.97,-673.78 203.51,-675.46 212.74,-680.67 213.97,-673.78"/>
</g>
<!-- Node31 -->
<g id="node31" class="node">
<title>Node31</title>
<g id="a_node31"><a xlink:href="../../df/d79/txmath_8h.html" target="_top" xlink:title=" ">
<polygon fill="white" stroke="black" points="604.51,-605.5 604.51,-623.5 658.86,-623.5 658.86,-605.5 604.51,-605.5"/>
<text text-anchor="middle" x="631.68" y="-611.5" font-family="Helvetica,sans-Serif" font-size="10.00">txmath.h</text>
</a>
</g>
</g>
<!-- Node1&#45;&gt;Node31 -->
<g id="edge38" class="edge">
<title>Node1&#45;&gt;Node31</title>
<path fill="none" stroke="midnightblue" d="M472.8,-715.28C473.45,-701.87 476.68,-675.26 491.68,-660 499.09,-652.47 555.56,-636.04 594.48,-625.39"/>
<polygon fill="midnightblue" stroke="midnightblue" points="595.71,-628.69 604.44,-622.69 593.87,-621.93 595.71,-628.69"/>
</g>
<!-- Node33 -->
<g id="node33" class="node">
<title>Node33</title>
<g id="a_node33"><a xlink:href="../../db/dd3/txmath1_8h.html" target="_top" xlink:title=" ">
<polygon fill="white" stroke="black" points="500.73,-660.5 500.73,-678.5 560.64,-678.5 560.64,-660.5 500.73,-660.5"/>
<text text-anchor="middle" x="530.68" y="-666.5" font-family="Helvetica,sans-Serif" font-size="10.00">txmath1.h</text>
</a>
</g>
</g>
<!-- Node1&#45;&gt;Node33 -->
<g id="edge41" class="edge">
<title>Node1&#45;&gt;Node33</title>
<path fill="none" stroke="midnightblue" d="M481.75,-715.22C490.48,-707.24 503.89,-694.98 514.47,-685.32"/>
<polygon fill="midnightblue" stroke="midnightblue" points="516.85,-687.88 521.88,-678.55 512.13,-682.71 516.85,-687.88"/>
</g>
<!-- Node34 -->
<g id="node34" class="node">
<title>Node34</title>
<g id="a_node34"><a xlink:href="../../d2/d1b/txparser_8h.html" target="_top" xlink:title=" ">
<polygon fill="white" stroke="black" points="384.73,-660.5 384.73,-678.5 444.64,-678.5 444.64,-660.5 384.73,-660.5"/>
<text text-anchor="middle" x="414.68" y="-666.5" font-family="Helvetica,sans-Serif" font-size="10.00">txparser.h</text>
</a>
</g>
</g>
<!-- Node1&#45;&gt;Node34 -->
<g id="edge42" class="edge">
<title>Node1&#45;&gt;Node34</title>
<path fill="none" stroke="midnightblue" d="M463.62,-715.22C454.89,-707.24 441.48,-694.98 430.9,-685.32"/>
<polygon fill="midnightblue" stroke="midnightblue" points="433.24,-682.71 423.49,-678.55 428.51,-687.88 433.24,-682.71"/>
</g>
<!-- Node43 -->
<g id="node43" class="node">
<title>Node43</title>
<g id="a_node43"><a xlink:title=" ">
<polygon fill="white" stroke="#bfbfbf" points="579.12,-660.5 579.12,-678.5 636.25,-678.5 636.25,-660.5 579.12,-660.5"/>
<text text-anchor="middle" x="607.68" y="-666.5" font-family="Helvetica,sans-Serif" font-size="10.00">algorithm</text>
</a>
</g>
</g>
<!-- Node1&#45;&gt;Node43 -->
<g id="edge59" class="edge">
<title>Node1&#45;&gt;Node43</title>
<path fill="none" stroke="midnightblue" d="M493.19,-715.45C515.59,-706.66 551.7,-692.48 577.37,-682.4"/>
<polygon fill="midnightblue" stroke="midnightblue" points="578.96,-685.54 586.99,-678.63 576.4,-679.02 578.96,-685.54"/>
</g>
<!-- Node3 -->
<g id="node3" class="node">
<title>Node3</title>
<g id="a_node3"><a xlink:href="../../d4/de9/_main_class_8h.html" target="_top" xlink:title=" ">
<polygon fill="white" stroke="black" points="193.73,-605.5 193.73,-623.5 293.64,-623.5 293.64,-605.5 193.73,-605.5"/>
<text text-anchor="middle" x="243.68" y="-611.5" font-family="Helvetica,sans-Serif" font-size="10.00">tralics/MainClass.h</text>
</a>
</g>
</g>
<!-- Node2&#45;&gt;Node3 -->
<g id="edge2" class="edge">
<title>Node2&#45;&gt;Node3</title>
<path fill="none" stroke="midnightblue" d="M186.01,-660.45C196.4,-652.36 212.63,-639.7 225.23,-629.88"/>
<polygon fill="midnightblue" stroke="midnightblue" points="227.52,-632.53 233.26,-623.63 223.22,-627.01 227.52,-632.53"/>
</g>
<!-- Node28 -->
<g id="node28" class="node">
<title>Node28</title>
<g id="a_node28"><a xlink:href="../../d2/d06/txlogger_8h.html" target="_top" xlink:title=" ">
<polygon fill="white" stroke="black" points="0,-605.5 0,-623.5 59.37,-623.5 59.37,-605.5 0,-605.5"/>
<text text-anchor="middle" x="29.68" y="-611.5" font-family="Helvetica,sans-Serif" font-size="10.00">txlogger.h</text>
</a>
</g>
</g>
<!-- Node2&#45;&gt;Node28 -->
<g id="edge33" class="edge">
<title>Node2&#45;&gt;Node28</title>
<path fill="none" stroke="midnightblue" d="M153.51,-660.45C129.07,-651.58 89.54,-637.23 61.73,-627.13"/>
<polygon fill="midnightblue" stroke="midnightblue" points="62.66,-623.75 52.07,-623.63 60.27,-630.33 62.66,-623.75"/>
</g>
<!-- Node30 -->
<g id="node30" class="node">
<title>Node30</title>
<g id="a_node30"><a xlink:href="../../d5/d08/txparam_8h.html" target="_top" xlink:title=" ">
<polygon fill="white" stroke="black" points="77.45,-605.5 77.45,-623.5 137.92,-623.5 137.92,-605.5 77.45,-605.5"/>
<text text-anchor="middle" x="107.68" y="-611.5" font-family="Helvetica,sans-Serif" font-size="10.00">txparam.h</text>
</a>
</g>
</g>
<!-- Node2&#45;&gt;Node30 -->
<g id="edge36" class="edge">
<title>Node2&#45;&gt;Node30</title>
<path fill="none" stroke="midnightblue" d="M165.36,-660.45C154.97,-652.36 138.74,-639.7 126.14,-629.88"/>
<polygon fill="midnightblue" stroke="midnightblue" points="128.15,-627.01 118.11,-623.63 123.85,-632.53 128.15,-627.01"/>
</g>
<!-- Node4 -->
<g id="node4" class="node">
<title>Node4</title>
<g id="a_node4"><a xlink:href="../../de/d29/txio_8h.html" target="_top" xlink:title=" ">
<polygon fill="white" stroke="black" points="141.57,-550.5 141.57,-568.5 189.8,-568.5 189.8,-550.5 141.57,-550.5"/>
<text text-anchor="middle" x="165.68" y="-556.5" font-family="Helvetica,sans-Serif" font-size="10.00">../txio.h</text>
</a>
</g>
</g>
<!-- Node3&#45;&gt;Node4 -->
<g id="edge3" class="edge">
<title>Node3&#45;&gt;Node4</title>
<path fill="none" stroke="midnightblue" d="M231.84,-605.45C219.7,-597.2 200.59,-584.22 186.02,-574.32"/>
<polygon fill="midnightblue" stroke="midnightblue" points="187.88,-571.35 177.64,-568.63 183.95,-577.14 187.88,-571.35"/>
</g>
<!-- Node27 -->
<g id="node27" class="node">
<title>Node27</title>
<g id="a_node27"><a xlink:href="../../dc/def/txstring_8h.html" target="_top" xlink:title=" ">
<polygon fill="white" stroke="black" points="391.23,-495.5 391.23,-513.5 456.14,-513.5 456.14,-495.5 391.23,-495.5"/>
<text text-anchor="middle" x="423.68" y="-501.5" font-family="Helvetica,sans-Serif" font-size="10.00">../txstring.h</text>
</a>
</g>
</g>
<!-- Node3&#45;&gt;Node27 -->
<g id="edge31" class="edge">
<title>Node3&#45;&gt;Node27</title>
<path fill="none" stroke="midnightblue" d="M255.56,-605.37C273.81,-592.99 309.96,-568.85 341.68,-550 360.66,-538.73 382.67,-526.85 399.1,-518.2"/>
<polygon fill="midnightblue" stroke="midnightblue" points="400.83,-521.25 408.07,-513.51 397.58,-515.04 400.83,-521.25"/>
</g>
<!-- Node5 -->
<g id="node5" class="node">
<title>Node5</title>
<g id="a_node5"><a xlink:href="../../dd/d74/txbuffer_8h.html" target="_top" xlink:title=" ">
<polygon fill="white" stroke="black" points="395.2,-440.5 395.2,-458.5 452.17,-458.5 452.17,-440.5 395.2,-440.5"/>
<text text-anchor="middle" x="423.68" y="-446.5" font-family="Helvetica,sans-Serif" font-size="10.00">txbuffer.h</text>
</a>
</g>
</g>
<!-- Node4&#45;&gt;Node5 -->
<g id="edge4" class="edge">
<title>Node4&#45;&gt;Node5</title>
<path fill="none" stroke="midnightblue" d="M185.08,-550.38C230.1,-531.53 341.93,-484.72 394.94,-462.53"/>
<polygon fill="midnightblue" stroke="midnightblue" points="396.55,-465.65 404.42,-458.56 393.84,-459.2 396.55,-465.65"/>
</g>
<!-- Node26 -->
<g id="node26" class="node">
<title>Node26</title>
<g id="a_node26"><a xlink:title=" ">
<polygon fill="white" stroke="#bfbfbf" points="115.01,-495.5 115.01,-513.5 164.35,-513.5 164.35,-495.5 115.01,-495.5"/>
<text text-anchor="middle" x="139.68" y="-501.5" font-family="Helvetica,sans-Serif" font-size="10.00">fstream</text>
</a>
</g>
</g>
<!-- Node4&#45;&gt;Node26 -->
<g id="edge30" class="edge">
<title>Node4&#45;&gt;Node26</title>
<path fill="none" stroke="midnightblue" d="M161.62,-550.22C158.01,-542.86 152.63,-531.88 148.09,-522.64"/>
<polygon fill="midnightblue" stroke="midnightblue" points="151.18,-520.99 143.63,-513.55 144.9,-524.07 151.18,-520.99"/>
</g>
<!-- Node6 -->
<g id="node6" class="node">
<title>Node6</title>
<g id="a_node6"><a xlink:href="../../d1/d9e/txid_8h.html" target="_top" xlink:title=" ">
<polygon fill="white" stroke="black" points="467.73,-330.5 467.73,-348.5 507.64,-348.5 507.64,-330.5 467.73,-330.5"/>
<text text-anchor="middle" x="487.68" y="-336.5" font-family="Helvetica,sans-Serif" font-size="10.00">txid.h</text>
</a>
</g>
</g>
<!-- Node5&#45;&gt;Node6 -->
<g id="edge5" class="edge">
<title>Node5&#45;&gt;Node6</title>
<path fill="none" stroke="midnightblue" d="M434.2,-440.39C444.14,-432.21 458.82,-418.7 467.68,-404 476.17,-389.92 481.4,-371.9 484.37,-358.65"/>
<polygon fill="midnightblue" stroke="midnightblue" points="487.8,-359.33 486.36,-348.83 480.94,-357.94 487.8,-359.33"/>
</g>
<!-- Node15 -->
<g id="node15" class="node">
<title>Node15</title>
<g id="a_node15"><a xlink:href="../../d9/d18/txscaled_8h.html" target="_top" xlink:title=" ">
<polygon fill="white" stroke="black" points="328.17,-385.5 328.17,-403.5 389.2,-403.5 389.2,-385.5 328.17,-385.5"/>
<text text-anchor="middle" x="358.68" y="-391.5" font-family="Helvetica,sans-Serif" font-size="10.00">txscaled.h</text>
</a>
</g>
</g>
<!-- Node5&#45;&gt;Node15 -->
<g id="edge14" class="edge">
<title>Node5&#45;&gt;Node15</title>
<path fill="none" stroke="midnightblue" d="M413.81,-440.45C403.98,-432.43 388.67,-419.95 376.67,-410.17"/>
<polygon fill="midnightblue" stroke="midnightblue" points="378.61,-407.23 368.65,-403.63 374.19,-412.66 378.61,-407.23"/>
</g>
<!-- Node23 -->
<g id="node23" class="node">
<title>Node23</title>
<g id="a_node23"><a xlink:title=" ">
<polygon fill="white" stroke="#bfbfbf" points="514.96,-385.5 514.96,-403.5 560.41,-403.5 560.41,-385.5 514.96,-385.5"/>
<text text-anchor="middle" x="537.68" y="-391.5" font-family="Helvetica,sans-Serif" font-size="10.00">cstring</text>
</a>
</g>
</g>
<!-- Node5&#45;&gt;Node23 -->
<g id="edge27" class="edge">
<title>Node5&#45;&gt;Node23</title>
<path fill="none" stroke="midnightblue" d="M441,-440.45C459.58,-431.81 489.33,-417.98 510.93,-407.94"/>
<polygon fill="midnightblue" stroke="midnightblue" points="512.62,-411.01 520.21,-403.63 509.66,-404.67 512.62,-411.01"/>
</g>
<!-- Node24 -->
<g id="node24" class="node">
<title>Node24</title>
<g id="a_node24"><a xlink:title=" ">
<polygon fill="white" stroke="#bfbfbf" points="407.17,-385.5 407.17,-403.5 458.2,-403.5 458.2,-385.5 407.17,-385.5"/>
<text text-anchor="middle" x="432.68" y="-391.5" font-family="Helvetica,sans-Serif" font-size="10.00">optional</text>
</a>
</g>
</g>
<!-- Node5&#45;&gt;Node24 -->
<g id="edge28" class="edge">
<title>Node5&#45;&gt;Node24</title>
<path fill="none" stroke="midnightblue" d="M425.09,-440.22C426.3,-433.1 428.09,-422.58 429.62,-413.53"/>
<polygon fill="midnightblue" stroke="midnightblue" points="433.09,-413.99 431.32,-403.55 426.19,-412.82 433.09,-413.99"/>
</g>
<!-- Node25 -->
<g id="node25" class="node">
<title>Node25</title>
<g id="a_node25"><a xlink:title=" ">
<polygon fill="white" stroke="#bfbfbf" points="266.07,-385.5 266.07,-403.5 309.3,-403.5 309.3,-385.5 266.07,-385.5"/>
<text text-anchor="middle" x="287.68" y="-391.5" font-family="Helvetica,sans-Serif" font-size="10.00">vector</text>
</a>
</g>
</g>
<!-- Node5&#45;&gt;Node25 -->
<g id="edge29" class="edge">
<title>Node5&#45;&gt;Node25</title>
<path fill="none" stroke="midnightblue" d="M403.03,-440.45C380.36,-431.62 343.76,-417.35 317.88,-407.27"/>
<polygon fill="midnightblue" stroke="midnightblue" points="319.12,-404 308.53,-403.63 316.58,-410.52 319.12,-404"/>
</g>
<!-- Node7 -->
<g id="node7" class="node">
<title>Node7</title>
<g id="a_node7"><a xlink:href="../../dc/de8/txvars_8h.html" target="_top" xlink:title=" ">
<polygon fill="white" stroke="black" points="399.18,-275.5 399.18,-293.5 450.19,-293.5 450.19,-275.5 399.18,-275.5"/>
<text text-anchor="middle" x="424.68" y="-281.5" font-family="Helvetica,sans-Serif" font-size="10.00">txvars.h</text>
</a>
</g>
</g>
<!-- Node6&#45;&gt;Node7 -->
<g id="edge6" class="edge">
<title>Node6&#45;&gt;Node7</title>
<path fill="none" stroke="midnightblue" d="M478.12,-330.45C468.59,-322.43 453.74,-309.95 442.12,-300.17"/>
<polygon fill="midnightblue" stroke="midnightblue" points="444.25,-297.38 434.34,-293.63 439.74,-302.74 444.25,-297.38"/>
</g>
<!-- Node14 -->
<g id="node14" class="node">
<title>Node14</title>
<g id="a_node14"><a xlink:title=" ">
<polygon fill="white" stroke="#bfbfbf" points="556.46,-220.5 556.46,-238.5 596.91,-238.5 596.91,-220.5 556.46,-220.5"/>
<text text-anchor="middle" x="576.68" y="-226.5" font-family="Helvetica,sans-Serif" font-size="10.00">string</text>
</a>
</g>
</g>
<!-- Node6&#45;&gt;Node14 -->
<g id="edge13" class="edge">
<title>Node6&#45;&gt;Node14</title>
<path fill="none" stroke="midnightblue" d="M507.68,-330.5C523.44,-323.21 544.83,-311 557.68,-294 567.66,-280.81 572.43,-262.41 574.69,-248.81"/>
<polygon fill="midnightblue" stroke="midnightblue" points="578.18,-249.12 576.05,-238.74 571.24,-248.17 578.18,-249.12"/>
</g>
<!-- Node8 -->
<g id="node8" class="node">
<title>Node8</title>
<g id="a_node8"><a xlink:href="../../d0/d0b/enums_8h.html" target="_top" xlink:title=" ">
<polygon fill="white" stroke="black" points="423.06,-165.5 423.06,-183.5 506.31,-183.5 506.31,-165.5 423.06,-165.5"/>
<text text-anchor="middle" x="464.68" y="-171.5" font-family="Helvetica,sans-Serif" font-size="10.00">tralics/enums.h</text>
</a>
</g>
</g>
<!-- Node7&#45;&gt;Node8 -->
<g id="edge7" class="edge">
<title>Node7&#45;&gt;Node8</title>
<path fill="none" stroke="midnightblue" d="M430.77,-275.42C436.95,-266.83 446.34,-252.63 451.68,-239 457.47,-224.25 460.82,-206.52 462.67,-193.55"/>
<polygon fill="midnightblue" stroke="midnightblue" points="466.15,-193.93 463.93,-183.57 459.2,-193.05 466.15,-193.93"/>
</g>
<!-- Node13 -->
<g id="node13" class="node">
<title>Node13</title>
<g id="a_node13"><a xlink:title=" ">
<polygon fill="white" stroke="#bfbfbf" points="404.29,-220.5 404.29,-238.5 443.08,-238.5 443.08,-220.5 404.29,-220.5"/>
<text text-anchor="middle" x="423.68" y="-226.5" font-family="Helvetica,sans-Serif" font-size="10.00">array</text>
</a>
</g>
</g>
<!-- Node7&#45;&gt;Node13 -->
<g id="edge12" class="edge">
<title>Node7&#45;&gt;Node13</title>
<path fill="none" stroke="midnightblue" d="M424.53,-275.22C424.4,-268.18 424.2,-257.81 424.03,-248.83"/>
<polygon fill="midnightblue" stroke="midnightblue" points="427.52,-248.48 423.84,-238.55 420.53,-248.61 427.52,-248.48"/>
</g>
<!-- Node9 -->
<g id="node9" class="node">
<title>Node9</title>
<g id="a_node9"><a xlink:href="../../d8/db5/consts_8h.html" target="_top" xlink:title=" ">
<polygon fill="white" stroke="black" points="433.06,-110.5 433.06,-128.5 486.31,-128.5 486.31,-110.5 433.06,-110.5"/>
<text text-anchor="middle" x="459.68" y="-116.5" font-family="Helvetica,sans-Serif" font-size="10.00">consts.h</text>
</a>
</g>
</g>
<!-- Node8&#45;&gt;Node9 -->
<g id="edge8" class="edge">
<title>Node8&#45;&gt;Node9</title>
<path fill="none" stroke="midnightblue" d="M463.9,-165.22C463.23,-158.1 462.24,-147.58 461.39,-138.53"/>
<polygon fill="midnightblue" stroke="midnightblue" points="464.87,-138.18 460.44,-128.55 457.9,-138.83 464.87,-138.18"/>
</g>
<!-- Node10 -->
<g id="node10" class="node">
<title>Node10</title>
<g id="a_node10"><a xlink:href="../../d9/d49/types_8h.html" target="_top" xlink:title=" ">
<polygon fill="white" stroke="black" points="386.56,-55.5 386.56,-73.5 434.81,-73.5 434.81,-55.5 386.56,-55.5"/>
<text text-anchor="middle" x="410.68" y="-61.5" font-family="Helvetica,sans-Serif" font-size="10.00">types.h</text>
</a>
</g>
</g>
<!-- Node9&#45;&gt;Node10 -->
<g id="edge9" class="edge">
<title>Node9&#45;&gt;Node10</title>
<path fill="none" stroke="midnightblue" d="M452.03,-110.22C444.87,-102.47 433.98,-90.7 425.18,-81.18"/>
<polygon fill="midnightblue" stroke="midnightblue" points="427.49,-78.52 418.13,-73.55 422.35,-83.27 427.49,-78.52"/>
</g>
<!-- Node11 -->
<g id="node11" class="node">
<title>Node11</title>
<g id="a_node11"><a xlink:title=" ">
<polygon fill="white" stroke="#bfbfbf" points="350.57,-0.5 350.57,-18.5 398.8,-18.5 398.8,-0.5 350.57,-0.5"/>
<text text-anchor="middle" x="374.68" y="-6.5" font-family="Helvetica,sans-Serif" font-size="10.00">cassert</text>
</a>
</g>
</g>
<!-- Node10&#45;&gt;Node11 -->
<g id="edge10" class="edge">
<title>Node10&#45;&gt;Node11</title>
<path fill="none" stroke="midnightblue" d="M405.06,-55.22C399.96,-47.71 392.28,-36.41 385.93,-27.05"/>
<polygon fill="midnightblue" stroke="midnightblue" points="388.67,-24.86 380.15,-18.55 382.88,-28.79 388.67,-24.86"/>
</g>
<!-- Node12 -->
<g id="node12" class="node">
<title>Node12</title>
<g id="a_node12"><a xlink:title=" ">
<polygon fill="white" stroke="#bfbfbf" points="416.62,-0.5 416.62,-18.5 478.75,-18.5 478.75,-0.5 416.62,-0.5"/>
<text text-anchor="middle" x="447.68" y="-6.5" font-family="Helvetica,sans-Serif" font-size="10.00">type_traits</text>
</a>
</g>
</g>
<!-- Node10&#45;&gt;Node12 -->
<g id="edge11" class="edge">
<title>Node10&#45;&gt;Node12</title>
<path fill="none" stroke="midnightblue" d="M416.47,-55.22C421.76,-47.63 429.76,-36.18 436.33,-26.76"/>
<polygon fill="midnightblue" stroke="midnightblue" points="439.21,-28.75 442.07,-18.55 433.47,-24.75 439.21,-28.75"/>
</g>
<!-- Node16 -->
<g id="node16" class="node">
<title>Node16</title>
<g id="a_node16"><a xlink:href="../../dc/d91/txtokenlist_8h.html" target="_top" xlink:title=" ">
<polygon fill="white" stroke="black" points="381.28,-330.5 381.28,-348.5 450.09,-348.5 450.09,-330.5 381.28,-330.5"/>
<text text-anchor="middle" x="415.68" y="-336.5" font-family="Helvetica,sans-Serif" font-size="10.00">txtokenlist.h</text>
</a>
</g>
</g>
<!-- Node15&#45;&gt;Node16 -->
<g id="edge15" class="edge">
<title>Node15&#45;&gt;Node16</title>
<path fill="none" stroke="midnightblue" d="M367.59,-385.22C376.09,-377.32 389.09,-365.22 399.44,-355.61"/>
<polygon fill="midnightblue" stroke="midnightblue" points="402.09,-357.92 407.03,-348.55 397.32,-352.8 402.09,-357.92"/>
</g>
<!-- Node16&#45;&gt;Node7 -->
<g id="edge25" class="edge">
<title>Node16&#45;&gt;Node7</title>
<path fill="none" stroke="midnightblue" d="M417.09,-330.22C418.3,-323.1 420.09,-312.58 421.62,-303.53"/>
<polygon fill="midnightblue" stroke="midnightblue" points="425.09,-303.99 423.32,-293.55 418.19,-302.82 425.09,-303.99"/>
</g>
<!-- Node17 -->
<g id="node17" class="node">
<title>Node17</title>
<g id="a_node17"><a xlink:href="../../d5/daf/_istring_8h.html" target="_top" xlink:title=" ">
<polygon fill="white" stroke="black" points="468.45,-275.5 468.45,-293.5 548.92,-293.5 548.92,-275.5 468.45,-275.5"/>
<text text-anchor="middle" x="508.68" y="-281.5" font-family="Helvetica,sans-Serif" font-size="10.00">tralics/Istring.h</text>
</a>
</g>
</g>
<!-- Node16&#45;&gt;Node17 -->
<g id="edge16" class="edge">
<title>Node16&#45;&gt;Node17</title>
<path fill="none" stroke="midnightblue" d="M429.81,-330.45C444.56,-322.05 467.93,-308.72 485.41,-298.76"/>
<polygon fill="midnightblue" stroke="midnightblue" points="487.47,-301.62 494.43,-293.63 484.01,-295.54 487.47,-301.62"/>
</g>
<!-- Node18 -->
<g id="node18" class="node">
<title>Node18</title>
<g id="a_node18"><a xlink:href="../../dd/dcd/_token_8h.html" target="_top" xlink:title=" ">
<polygon fill="white" stroke="black" points="301.73,-275.5 301.73,-293.5 381.64,-293.5 381.64,-275.5 301.73,-275.5"/>
<text text-anchor="middle" x="341.68" y="-281.5" font-family="Helvetica,sans-Serif" font-size="10.00">tralics/Token.h</text>
</a>
</g>
</g>
<!-- Node16&#45;&gt;Node18 -->
<g id="edge19" class="edge">
<title>Node16&#45;&gt;Node18</title>
<path fill="none" stroke="midnightblue" d="M404.45,-330.45C393.04,-322.28 375.14,-309.46 361.37,-299.6"/>
<polygon fill="midnightblue" stroke="midnightblue" points="363.2,-296.6 353.03,-293.63 359.12,-302.29 363.2,-296.6"/>
</g>
<!-- Node22 -->
<g id="node22" class="node">
<title>Node22</title>
<g id="a_node22"><a xlink:title=" ">
<polygon fill="white" stroke="#bfbfbf" points="609.29,-275.5 609.29,-293.5 648.08,-293.5 648.08,-275.5 609.29,-275.5"/>
<text text-anchor="middle" x="628.68" y="-281.5" font-family="Helvetica,sans-Serif" font-size="10.00">utility</text>
</a>
</g>
</g>
<!-- Node16&#45;&gt;Node22 -->
<g id="edge26" class="edge">
<title>Node16&#45;&gt;Node22</title>
<path fill="none" stroke="midnightblue" d="M448.03,-330.45C489.17,-320.22 559.59,-302.69 599.27,-292.82"/>
<polygon fill="midnightblue" stroke="midnightblue" points="600.27,-296.18 609.12,-290.37 598.58,-289.39 600.27,-296.18"/>
</g>
<!-- Node17&#45;&gt;Node8 -->
<g id="edge17" class="edge">
<title>Node17&#45;&gt;Node8</title>
<path fill="none" stroke="midnightblue" d="M505.38,-275.38C498.31,-258.03 481.58,-216.96 471.91,-193.24"/>
<polygon fill="midnightblue" stroke="midnightblue" points="475.04,-191.65 468.03,-183.71 468.56,-194.29 475.04,-191.65"/>
</g>
<!-- Node17&#45;&gt;Node14 -->
<g id="edge18" class="edge">
<title>Node17&#45;&gt;Node14</title>
<path fill="none" stroke="midnightblue" d="M519.01,-275.45C529.4,-267.36 545.63,-254.7 558.23,-244.88"/>
<polygon fill="midnightblue" stroke="midnightblue" points="560.52,-247.53 566.26,-238.63 556.22,-242.01 560.52,-247.53"/>
</g>
<!-- Node19 -->
<g id="node19" class="node">
<title>Node19</title>
<g id="a_node19"><a xlink:href="../../d2/d68/_cmd_chr_8h.html" target="_top" xlink:title=" ">
<polygon fill="white" stroke="black" points="278.17,-220.5 278.17,-238.5 339.19,-238.5 339.19,-220.5 278.17,-220.5"/>
<text text-anchor="middle" x="308.68" y="-226.5" font-family="Helvetica,sans-Serif" font-size="10.00">CmdChr.h</text>
</a>
</g>
</g>
<!-- Node18&#45;&gt;Node19 -->
<g id="edge20" class="edge">
<title>Node18&#45;&gt;Node19</title>
<path fill="none" stroke="midnightblue" d="M336.53,-275.22C331.85,-267.71 324.82,-256.41 318.99,-247.05"/>
<polygon fill="midnightblue" stroke="midnightblue" points="321.95,-245.19 313.7,-238.55 316.01,-248.89 321.95,-245.19"/>
</g>
<!-- Node21 -->
<g id="node21" class="node">
<title>Node21</title>
<g id="a_node21"><a xlink:title=" ">
<polygon fill="white" stroke="#bfbfbf" points="357.18,-220.5 357.18,-238.5 386.18,-238.5 386.18,-220.5 357.18,-220.5"/>
<text text-anchor="middle" x="371.3" y="-226.5" font-family="Helvetica,sans-Serif" font-size="10.00">list</text>
</a>
</g>
</g>
<!-- Node18&#45;&gt;Node21 -->
<g id="edge24" class="edge">
<title>Node18&#45;&gt;Node21</title>
<path fill="none" stroke="midnightblue" d="M346.37,-275.22C350.58,-267.79 356.88,-256.65 362.15,-247.34"/>
<polygon fill="midnightblue" stroke="midnightblue" points="365.25,-248.98 367.13,-238.55 359.16,-245.53 365.25,-248.98"/>
</g>
<!-- Node19&#45;&gt;Node8 -->
<g id="edge23" class="edge">
<title>Node19&#45;&gt;Node8</title>
<path fill="none" stroke="midnightblue" d="M332.38,-220.45C358.8,-211.47 401.72,-196.89 431.48,-186.78"/>
<polygon fill="midnightblue" stroke="midnightblue" points="432.68,-190.07 441.02,-183.54 430.43,-183.44 432.68,-190.07"/>
</g>
<!-- Node20 -->
<g id="node20" class="node">
<title>Node20</title>
<g id="a_node20"><a xlink:href="../../d8/d47/codepoint_8h.html" target="_top" xlink:title=" ">
<polygon fill="white" stroke="black" points="337.83,-110.5 337.83,-128.5 405.54,-128.5 405.54,-110.5 337.83,-110.5"/>
<text text-anchor="middle" x="371.68" y="-116.5" font-family="Helvetica,sans-Serif" font-size="10.00">codepoint.h</text>
</a>
</g>
</g>
<!-- Node19&#45;&gt;Node20 -->
<g id="edge21" class="edge">
<title>Node19&#45;&gt;Node20</title>
<path fill="none" stroke="midnightblue" d="M313.42,-220.38C323.64,-202.87 347.93,-161.22 361.71,-137.6"/>
<polygon fill="midnightblue" stroke="midnightblue" points="364.88,-139.11 366.89,-128.71 358.83,-135.59 364.88,-139.11"/>
</g>
<!-- Node20&#45;&gt;Node10 -->
<g id="edge22" class="edge">
<title>Node20&#45;&gt;Node10</title>
<path fill="none" stroke="midnightblue" d="M377.78,-110.22C383.36,-102.63 391.79,-91.18 398.72,-81.76"/>
<polygon fill="midnightblue" stroke="midnightblue" points="401.65,-83.68 404.76,-73.55 396.02,-79.53 401.65,-83.68"/>
</g>
<!-- Node27&#45;&gt;Node5 -->
<g id="edge32" class="edge">
<title>Node27&#45;&gt;Node5</title>
<path fill="none" stroke="midnightblue" d="M423.68,-495.22C423.68,-488.18 423.68,-477.81 423.68,-468.83"/>
<polygon fill="midnightblue" stroke="midnightblue" points="427.18,-468.55 423.68,-458.55 420.18,-468.55 427.18,-468.55"/>
</g>
<!-- Node28&#45;&gt;Node26 -->
<g id="edge34" class="edge">
<title>Node28&#45;&gt;Node26</title>
<path fill="none" stroke="midnightblue" d="M37.95,-605.38C56.27,-587.4 100.5,-543.97 124.16,-520.75"/>
<polygon fill="midnightblue" stroke="midnightblue" points="126.64,-523.22 131.32,-513.71 121.73,-518.22 126.64,-523.22"/>
</g>
<!-- Node29 -->
<g id="node29" class="node">
<title>Node29</title>
<g id="a_node29"><a xlink:title=" ">
<polygon fill="white" stroke="#bfbfbf" points="2.51,-550.5 2.51,-568.5 56.86,-568.5 56.86,-550.5 2.51,-550.5"/>
<text text-anchor="middle" x="29.68" y="-556.5" font-family="Helvetica,sans-Serif" font-size="10.00">iostream</text>
</a>
</g>
</g>
<!-- Node28&#45;&gt;Node29 -->
<g id="edge35" class="edge">
<title>Node28&#45;&gt;Node29</title>
<path fill="none" stroke="midnightblue" d="M29.68,-605.22C29.68,-598.18 29.68,-587.81 29.68,-578.83"/>
<polygon fill="midnightblue" stroke="midnightblue" points="33.18,-578.55 29.68,-568.55 26.18,-578.55 33.18,-578.55"/>
</g>
<!-- Node30&#45;&gt;Node4 -->
<g id="edge37" class="edge">
<title>Node30&#45;&gt;Node4</title>
<path fill="none" stroke="midnightblue" d="M116.75,-605.22C125.48,-597.24 138.89,-584.98 149.47,-575.32"/>
<polygon fill="midnightblue" stroke="midnightblue" points="151.85,-577.88 156.88,-568.55 147.13,-572.71 151.85,-577.88"/>
</g>
<!-- Node31&#45;&gt;Node22 -->
<g id="edge40" class="edge">
<title>Node31&#45;&gt;Node22</title>
<path fill="none" stroke="midnightblue" d="M631.3,-605.37C630.5,-587.38 628.68,-542.83 628.68,-505.5 628.68,-505.5 628.68,-505.5 628.68,-393.5 628.68,-362.02 628.68,-325.37 628.68,-303.88"/>
<polygon fill="midnightblue" stroke="midnightblue" points="632.18,-303.63 628.68,-293.63 625.18,-303.63 632.18,-303.63"/>
</g>
<!-- Node32 -->
<g id="node32" class="node">
<title>Node32</title>
<g id="a_node32"><a xlink:href="../../d1/d43/txxml_8h.html" target="_top" xlink:title=" ">
<polygon fill="white" stroke="black" points="552.85,-550.5 552.85,-568.5 600.52,-568.5 600.52,-550.5 552.85,-550.5"/>
<text text-anchor="middle" x="576.68" y="-556.5" font-family="Helvetica,sans-Serif" font-size="10.00">txxml.h</text>
</a>
</g>
</g>
<!-- Node31&#45;&gt;Node32 -->
<g id="edge39" class="edge">
<title>Node31&#45;&gt;Node32</title>
<path fill="none" stroke="midnightblue" d="M623.09,-605.22C614.89,-597.32 602.34,-585.22 592.36,-575.61"/>
<polygon fill="midnightblue" stroke="midnightblue" points="594.67,-572.97 585.04,-568.55 589.81,-578.01 594.67,-572.97"/>
</g>
<!-- Node34&#45;&gt;Node4 -->
<g id="edge53" class="edge">
<title>Node34&#45;&gt;Node4</title>
<path fill="none" stroke="midnightblue" d="M384.61,-666.49C329.13,-662.19 213.71,-650.27 184.68,-624 172.16,-612.67 167.75,-593.46 166.27,-579.13"/>
<polygon fill="midnightblue" stroke="midnightblue" points="169.75,-578.68 165.61,-568.93 162.76,-579.13 169.75,-578.68"/>
</g>
<!-- Node35 -->
<g id="node35" class="node">
<title>Node35</title>
<g id="a_node35"><a xlink:href="../../d3/d6b/txcond_8h.html" target="_top" xlink:title=" ">
<polygon fill="white" stroke="black" points="258.78,-440.5 258.78,-458.5 312.59,-458.5 312.59,-440.5 258.78,-440.5"/>
<text text-anchor="middle" x="285.68" y="-446.5" font-family="Helvetica,sans-Serif" font-size="10.00">txcond.h</text>
</a>
</g>
</g>
<!-- Node34&#45;&gt;Node35 -->
<g id="edge43" class="edge">
<title>Node34&#45;&gt;Node35</title>
<path fill="none" stroke="midnightblue" d="M405.1,-660.33C395.58,-651.9 380.96,-638.02 370.68,-624 332.74,-572.23 304.03,-500.91 291.95,-468.19"/>
<polygon fill="midnightblue" stroke="midnightblue" points="295.19,-466.88 288.5,-458.66 288.61,-469.26 295.19,-466.88"/>
</g>
<!-- Node36 -->
<g id="node36" class="node">
<title>Node36</title>
<g id="a_node36"><a xlink:href="../../d7/d4d/txfonts_8h.html" target="_top" xlink:title=" ">
<polygon fill="white" stroke="black" points="350.79,-550.5 350.79,-568.5 404.58,-568.5 404.58,-550.5 350.79,-550.5"/>
<text text-anchor="middle" x="377.68" y="-556.5" font-family="Helvetica,sans-Serif" font-size="10.00">txfonts.h</text>
</a>
</g>
</g>
<!-- Node34&#45;&gt;Node36 -->
<g id="edge45" class="edge">
<title>Node34&#45;&gt;Node36</title>
<path fill="none" stroke="midnightblue" d="M405.25,-660.42C396.5,-652.25 384.04,-638.76 378.68,-624 373.39,-609.41 373.62,-591.67 374.89,-578.65"/>
<polygon fill="midnightblue" stroke="midnightblue" points="378.38,-578.98 376.17,-568.62 371.43,-578.1 378.38,-578.98"/>
</g>
<!-- Node37 -->
<g id="node37" class="node">
<title>Node37</title>
<g id="a_node37"><a xlink:href="../../d7/d7e/txhash_8h.html" target="_top" xlink:title=" ">
<polygon fill="white" stroke="black" points="387.78,-605.5 387.78,-623.5 441.59,-623.5 441.59,-605.5 387.78,-605.5"/>
<text text-anchor="middle" x="414.68" y="-611.5" font-family="Helvetica,sans-Serif" font-size="10.00">txhash.h</text>
</a>
</g>
</g>
<!-- Node34&#45;&gt;Node37 -->
<g id="edge47" class="edge">
<title>Node34&#45;&gt;Node37</title>
<path fill="none" stroke="midnightblue" d="M414.68,-660.22C414.68,-653.18 414.68,-642.81 414.68,-633.83"/>
<polygon fill="midnightblue" stroke="midnightblue" points="418.18,-633.55 414.68,-623.55 411.18,-633.55 418.18,-633.55"/>
</g>
<!-- Node39 -->
<g id="node39" class="node">
<title>Node39</title>
<g id="a_node39"><a xlink:href="../../de/d7c/tximage_8h.html" target="_top" xlink:title=" ">
<polygon fill="white" stroke="black" points="657.01,-330.5 657.01,-348.5 716.36,-348.5 716.36,-330.5 657.01,-330.5"/>
<text text-anchor="middle" x="686.68" y="-336.5" font-family="Helvetica,sans-Serif" font-size="10.00">tximage.h</text>
</a>
</g>
</g>
<!-- Node34&#45;&gt;Node39 -->
<g id="edge50" class="edge">
<title>Node34&#45;&gt;Node39</title>
<path fill="none" stroke="midnightblue" d="M444.74,-665C508.15,-657.36 651.15,-638.71 667.68,-624 689.69,-604.42 686.68,-589.96 686.68,-560.5 686.68,-560.5 686.68,-560.5 686.68,-448.5 686.68,-417.02 686.68,-380.37 686.68,-358.88"/>
<polygon fill="midnightblue" stroke="midnightblue" points="690.18,-358.63 686.68,-348.63 683.18,-358.63 690.18,-358.63"/>
</g>
<!-- Node40 -->
<g id="node40" class="node">
<title>Node40</title>
<g id="a_node40"><a xlink:href="../../dc/d65/txstack_8h.html" target="_top" xlink:title=" ">
<polygon fill="white" stroke="black" points="459.96,-605.5 459.96,-623.5 515.41,-623.5 515.41,-605.5 459.96,-605.5"/>
<text text-anchor="middle" x="487.68" y="-611.5" font-family="Helvetica,sans-Serif" font-size="10.00">txstack.h</text>
</a>
</g>
</g>
<!-- Node34&#45;&gt;Node40 -->
<g id="edge54" class="edge">
<title>Node34&#45;&gt;Node40</title>
<path fill="none" stroke="midnightblue" d="M425.77,-660.45C437.03,-652.28 454.68,-639.46 468.26,-629.6"/>
<polygon fill="midnightblue" stroke="midnightblue" points="470.46,-632.33 476.49,-623.63 466.34,-626.67 470.46,-632.33"/>
</g>
<!-- Node42 -->
<g id="node42" class="node">
<title>Node42</title>
<g id="a_node42"><a xlink:href="../../d8/d3d/txstats_8h.html" target="_top" xlink:title=" ">
<polygon fill="white" stroke="black" points="533.07,-605.5 533.07,-623.5 586.3,-623.5 586.3,-605.5 533.07,-605.5"/>
<text text-anchor="middle" x="559.68" y="-611.5" font-family="Helvetica,sans-Serif" font-size="10.00">txstats.h</text>
</a>
</g>
</g>
<!-- Node34&#45;&gt;Node42 -->
<g id="edge58" class="edge">
<title>Node34&#45;&gt;Node42</title>
<path fill="none" stroke="midnightblue" d="M436.71,-660.45C460.98,-651.58 500.24,-637.23 527.86,-627.13"/>
<polygon fill="midnightblue" stroke="midnightblue" points="529.26,-630.35 537.45,-623.63 526.86,-623.77 529.26,-630.35"/>
</g>
<!-- Node35&#45;&gt;Node25 -->
<g id="edge44" class="edge">
<title>Node35&#45;&gt;Node25</title>
<path fill="none" stroke="midnightblue" d="M286,-440.22C286.26,-433.18 286.65,-422.81 286.99,-413.83"/>
<polygon fill="midnightblue" stroke="midnightblue" points="290.5,-413.67 287.38,-403.55 283.51,-413.41 290.5,-413.67"/>
</g>
<!-- Node36&#45;&gt;Node27 -->
<g id="edge46" class="edge">
<title>Node36&#45;&gt;Node27</title>
<path fill="none" stroke="midnightblue" d="M384.87,-550.22C391.6,-542.47 401.81,-530.7 410.08,-521.18"/>
<polygon fill="midnightblue" stroke="midnightblue" points="412.79,-523.4 416.7,-513.55 407.5,-518.81 412.79,-523.4"/>
</g>
<!-- Node38 -->
<g id="node38" class="node">
<title>Node38</title>
<g id="a_node38"><a xlink:href="../../d3/d01/txeqtb_8h.html" target="_top" xlink:title=" ">
<polygon fill="white" stroke="black" points="422.89,-550.5 422.89,-568.5 474.48,-568.5 474.48,-550.5 422.89,-550.5"/>
<text text-anchor="middle" x="448.68" y="-556.5" font-family="Helvetica,sans-Serif" font-size="10.00">txeqtb.h</text>
</a>
</g>
</g>
<!-- Node37&#45;&gt;Node38 -->
<g id="edge48" class="edge">
<title>Node37&#45;&gt;Node38</title>
<path fill="none" stroke="midnightblue" d="M420,-605.22C424.82,-597.71 432.06,-586.41 438.07,-577.05"/>
<polygon fill="midnightblue" stroke="midnightblue" points="441.07,-578.86 443.52,-568.55 435.18,-575.08 441.07,-578.86"/>
</g>
<!-- Node38&#45;&gt;Node27 -->
<g id="edge49" class="edge">
<title>Node38&#45;&gt;Node27</title>
<path fill="none" stroke="midnightblue" d="M444.78,-550.22C441.31,-542.86 436.13,-531.88 431.77,-522.64"/>
<polygon fill="midnightblue" stroke="midnightblue" points="434.91,-521.1 427.48,-513.55 428.58,-524.09 434.91,-521.1"/>
</g>
<!-- Node39&#45;&gt;Node14 -->
<g id="edge51" class="edge">
<title>Node39&#45;&gt;Node14</title>
<path fill="none" stroke="midnightblue" d="M684.54,-330.14C680.81,-317.02 672.01,-291.38 656.68,-275 642.8,-260.16 622.82,-249.04 606.3,-241.63"/>
<polygon fill="midnightblue" stroke="midnightblue" points="607.62,-238.39 597.05,-237.69 604.88,-244.83 607.62,-238.39"/>
</g>
<!-- Node39&#45;&gt;Node22 -->
<g id="edge52" class="edge">
<title>Node39&#45;&gt;Node22</title>
<path fill="none" stroke="midnightblue" d="M677.62,-330.22C668.89,-322.24 655.48,-309.98 644.9,-300.32"/>
<polygon fill="midnightblue" stroke="midnightblue" points="647.24,-297.71 637.49,-293.55 642.51,-302.88 647.24,-297.71"/>
</g>
<!-- Node40&#45;&gt;Node32 -->
<g id="edge57" class="edge">
<title>Node40&#45;&gt;Node32</title>
<path fill="none" stroke="midnightblue" d="M501.2,-605.45C515.32,-597.05 537.69,-583.72 554.41,-573.76"/>
<polygon fill="midnightblue" stroke="midnightblue" points="556.24,-576.75 563.04,-568.63 552.66,-570.73 556.24,-576.75"/>
</g>
<!-- Node41 -->
<g id="node41" class="node">
<title>Node41</title>
<g id="a_node41"><a xlink:href="../../d4/da4/txatt_8h.html" target="_top" xlink:title=" ">
<polygon fill="white" stroke="black" points="492.07,-550.5 492.07,-568.5 535.3,-568.5 535.3,-550.5 492.07,-550.5"/>
<text text-anchor="middle" x="513.68" y="-556.5" font-family="Helvetica,sans-Serif" font-size="10.00">txatt.h</text>
</a>
</g>
</g>
<!-- Node40&#45;&gt;Node41 -->
<g id="edge55" class="edge">
<title>Node40&#45;&gt;Node41</title>
<path fill="none" stroke="midnightblue" d="M491.75,-605.22C495.36,-597.86 500.74,-586.88 505.28,-577.64"/>
<polygon fill="midnightblue" stroke="midnightblue" points="508.47,-579.07 509.74,-568.55 502.19,-575.99 508.47,-579.07"/>
</g>
<!-- Node41&#45;&gt;Node27 -->
<g id="edge56" class="edge">
<title>Node41&#45;&gt;Node27</title>
<path fill="none" stroke="midnightblue" d="M500.02,-550.45C485.74,-542.05 463.12,-528.72 446.2,-518.76"/>
<polygon fill="midnightblue" stroke="midnightblue" points="447.88,-515.68 437.48,-513.63 444.32,-521.72 447.88,-515.68"/>
</g>
</g>
</svg>
