<?xml version="1.0" encoding="UTF-8" standalone="no"?>
<!DOCTYPE svg PUBLIC "-//W3C//DTD SVG 1.1//EN"
 "http://www.w3.org/Graphics/SVG/1.1/DTD/svg11.dtd">
<!-- Generated by graphviz version 2.43.0 (0)
 -->
<!-- Title: txmlio.C Pages: 1 -->
<svg width="680pt" height="687pt"
 viewBox="0.00 0.00 680.46 687.00" xmlns="http://www.w3.org/2000/svg" xmlns:xlink="http://www.w3.org/1999/xlink">
<g id="graph0" class="graph" transform="scale(1 1) rotate(0) translate(4 683)">
<title>txmlio.C</title>
<polygon fill="white" stroke="transparent" points="-4,4 -4,-683 676.46,-683 676.46,4 -4,4"/>
<!-- Node1 -->
<g id="node1" class="node">
<title>Node1</title>
<g id="a_node1"><a xlink:title=" ">
<polygon fill="#bfbfbf" stroke="black" points="438.17,-660.5 438.17,-678.5 490.29,-678.5 490.29,-660.5 438.17,-660.5"/>
<text text-anchor="middle" x="464.23" y="-666.5" font-family="Helvetica,sans-Serif" font-size="10.00">txmlio.C</text>
</a>
</g>
</g>
<!-- Node2 -->
<g id="node2" class="node">
<title>Node2</title>
<g id="a_node2"><a xlink:href="../../d7/d79/txinline_8h.html" target="_top" xlink:title=" ">
<polygon fill="white" stroke="black" points="187.5,-605.5 187.5,-623.5 242.97,-623.5 242.97,-605.5 187.5,-605.5"/>
<text text-anchor="middle" x="215.23" y="-611.5" font-family="Helvetica,sans-Serif" font-size="10.00">txinline.h</text>
</a>
</g>
</g>
<!-- Node1&#45;&gt;Node2 -->
<g id="edge1" class="edge">
<title>Node1&#45;&gt;Node2</title>
<path fill="none" stroke="midnightblue" d="M438.05,-662.93C393.9,-653.53 304.44,-634.49 253.32,-623.61"/>
<polygon fill="midnightblue" stroke="midnightblue" points="253.84,-620.14 243.33,-621.48 252.38,-626.99 253.84,-620.14"/>
</g>
<!-- Node29 -->
<g id="node29" class="node">
<title>Node29</title>
<g id="a_node29"><a xlink:href="../../dc/d84/txmlio_8h.html" target="_top" xlink:title=" ">
<polygon fill="white" stroke="black" points="622,-385.5 622,-403.5 672.46,-403.5 672.46,-385.5 622,-385.5"/>
<text text-anchor="middle" x="647.23" y="-391.5" font-family="Helvetica,sans-Serif" font-size="10.00">txmlio.h</text>
</a>
</g>
</g>
<!-- Node1&#45;&gt;Node29 -->
<g id="edge37" class="edge">
<title>Node1&#45;&gt;Node29</title>
<path fill="none" stroke="midnightblue" d="M490.43,-664.68C539.25,-655.93 639.23,-629.58 639.23,-560.5 639.23,-560.5 639.23,-560.5 639.23,-503.5 639.23,-471.79 642.7,-434.97 645.07,-413.55"/>
<polygon fill="midnightblue" stroke="midnightblue" points="648.55,-413.95 646.22,-403.61 641.6,-413.15 648.55,-413.95"/>
</g>
<!-- Node30 -->
<g id="node30" class="node">
<title>Node30</title>
<g id="a_node30"><a xlink:href="../../d2/d1b/txparser_8h.html" target="_top" xlink:title=" ">
<polygon fill="white" stroke="black" points="434.27,-605.5 434.27,-623.5 494.19,-623.5 494.19,-605.5 434.27,-605.5"/>
<text text-anchor="middle" x="464.23" y="-611.5" font-family="Helvetica,sans-Serif" font-size="10.00">txparser.h</text>
</a>
</g>
</g>
<!-- Node1&#45;&gt;Node30 -->
<g id="edge39" class="edge">
<title>Node1&#45;&gt;Node30</title>
<path fill="none" stroke="midnightblue" d="M464.23,-660.22C464.23,-653.18 464.23,-642.81 464.23,-633.83"/>
<polygon fill="midnightblue" stroke="midnightblue" points="467.73,-633.55 464.23,-623.55 460.73,-633.55 467.73,-633.55"/>
</g>
<!-- Node3 -->
<g id="node3" class="node">
<title>Node3</title>
<g id="a_node3"><a xlink:href="../../d4/de9/_main_class_8h.html" target="_top" xlink:title=" ">
<polygon fill="white" stroke="black" points="116.28,-550.5 116.28,-568.5 216.19,-568.5 216.19,-550.5 116.28,-550.5"/>
<text text-anchor="middle" x="166.23" y="-556.5" font-family="Helvetica,sans-Serif" font-size="10.00">tralics/MainClass.h</text>
</a>
</g>
</g>
<!-- Node2&#45;&gt;Node3 -->
<g id="edge2" class="edge">
<title>Node2&#45;&gt;Node3</title>
<path fill="none" stroke="midnightblue" d="M207.58,-605.22C200.41,-597.47 189.53,-585.7 180.73,-576.18"/>
<polygon fill="midnightblue" stroke="midnightblue" points="183.03,-573.52 173.67,-568.55 177.89,-578.27 183.03,-573.52"/>
</g>
<!-- Node25 -->
<g id="node25" class="node">
<title>Node25</title>
<g id="a_node25"><a xlink:href="../../d2/d06/txlogger_8h.html" target="_top" xlink:title=" ">
<polygon fill="white" stroke="black" points="234.55,-550.5 234.55,-568.5 293.92,-568.5 293.92,-550.5 234.55,-550.5"/>
<text text-anchor="middle" x="264.23" y="-556.5" font-family="Helvetica,sans-Serif" font-size="10.00">txlogger.h</text>
</a>
</g>
</g>
<!-- Node2&#45;&gt;Node25 -->
<g id="edge30" class="edge">
<title>Node2&#45;&gt;Node25</title>
<path fill="none" stroke="midnightblue" d="M222.89,-605.22C230.05,-597.47 240.93,-585.7 249.73,-576.18"/>
<polygon fill="midnightblue" stroke="midnightblue" points="252.57,-578.27 256.79,-568.55 247.43,-573.52 252.57,-578.27"/>
</g>
<!-- Node28 -->
<g id="node28" class="node">
<title>Node28</title>
<g id="a_node28"><a xlink:href="../../d5/d08/txparam_8h.html" target="_top" xlink:title=" ">
<polygon fill="white" stroke="black" points="0,-550.5 0,-568.5 60.46,-568.5 60.46,-550.5 0,-550.5"/>
<text text-anchor="middle" x="30.23" y="-556.5" font-family="Helvetica,sans-Serif" font-size="10.00">txparam.h</text>
</a>
</g>
</g>
<!-- Node2&#45;&gt;Node28 -->
<g id="edge35" class="edge">
<title>Node2&#45;&gt;Node28</title>
<path fill="none" stroke="midnightblue" d="M187.13,-605.45C155.39,-596.36 103.57,-581.51 68.24,-571.39"/>
<polygon fill="midnightblue" stroke="midnightblue" points="68.87,-567.93 58.29,-568.54 66.94,-574.66 68.87,-567.93"/>
</g>
<!-- Node4 -->
<g id="node4" class="node">
<title>Node4</title>
<g id="a_node4"><a xlink:href="../../de/d29/txio_8h.html" target="_top" xlink:title=" ">
<polygon fill="white" stroke="black" points="64.11,-495.5 64.11,-513.5 112.35,-513.5 112.35,-495.5 64.11,-495.5"/>
<text text-anchor="middle" x="88.23" y="-501.5" font-family="Helvetica,sans-Serif" font-size="10.00">../txio.h</text>
</a>
</g>
</g>
<!-- Node3&#45;&gt;Node4 -->
<g id="edge3" class="edge">
<title>Node3&#45;&gt;Node4</title>
<path fill="none" stroke="midnightblue" d="M154.38,-550.45C142.24,-542.2 123.13,-529.22 108.57,-519.32"/>
<polygon fill="midnightblue" stroke="midnightblue" points="110.43,-516.35 100.19,-513.63 106.49,-522.14 110.43,-516.35"/>
</g>
<!-- Node24 -->
<g id="node24" class="node">
<title>Node24</title>
<g id="a_node24"><a xlink:href="../../dc/def/txstring_8h.html" target="_top" xlink:title=" ">
<polygon fill="white" stroke="black" points="343.78,-440.5 343.78,-458.5 408.68,-458.5 408.68,-440.5 343.78,-440.5"/>
<text text-anchor="middle" x="376.23" y="-446.5" font-family="Helvetica,sans-Serif" font-size="10.00">../txstring.h</text>
</a>
</g>
</g>
<!-- Node3&#45;&gt;Node24 -->
<g id="edge28" class="edge">
<title>Node3&#45;&gt;Node24</title>
<path fill="none" stroke="midnightblue" d="M167.94,-550.07C171.16,-536.37 179.49,-509.35 197.23,-495 236.08,-463.57 294.08,-453.92 333.45,-451.18"/>
<polygon fill="midnightblue" stroke="midnightblue" points="333.75,-454.67 343.53,-450.6 333.35,-447.68 333.75,-454.67"/>
</g>
<!-- Node5 -->
<g id="node5" class="node">
<title>Node5</title>
<g id="a_node5"><a xlink:href="../../dd/d74/txbuffer_8h.html" target="_top" xlink:title=" ">
<polygon fill="white" stroke="black" points="349.75,-385.5 349.75,-403.5 406.71,-403.5 406.71,-385.5 349.75,-385.5"/>
<text text-anchor="middle" x="378.23" y="-391.5" font-family="Helvetica,sans-Serif" font-size="10.00">txbuffer.h</text>
</a>
</g>
</g>
<!-- Node4&#45;&gt;Node5 -->
<g id="edge4" class="edge">
<title>Node4&#45;&gt;Node5</title>
<path fill="none" stroke="midnightblue" d="M90.64,-495.34C95.17,-481.52 106.34,-453.7 126.23,-440 160.21,-416.59 277.56,-403.73 339.4,-398.43"/>
<polygon fill="midnightblue" stroke="midnightblue" points="339.87,-401.9 349.55,-397.58 339.29,-394.92 339.87,-401.9"/>
</g>
<!-- Node23 -->
<g id="node23" class="node">
<title>Node23</title>
<g id="a_node23"><a xlink:title=" ">
<polygon fill="white" stroke="#bfbfbf" points="135.56,-440.5 135.56,-458.5 184.9,-458.5 184.9,-440.5 135.56,-440.5"/>
<text text-anchor="middle" x="160.23" y="-446.5" font-family="Helvetica,sans-Serif" font-size="10.00">fstream</text>
</a>
</g>
</g>
<!-- Node4&#45;&gt;Node23 -->
<g id="edge27" class="edge">
<title>Node4&#45;&gt;Node23</title>
<path fill="none" stroke="midnightblue" d="M99.17,-495.45C110.27,-487.28 127.68,-474.46 141.08,-464.6"/>
<polygon fill="midnightblue" stroke="midnightblue" points="143.21,-467.37 149.19,-458.63 139.07,-461.73 143.21,-467.37"/>
</g>
<!-- Node6 -->
<g id="node6" class="node">
<title>Node6</title>
<g id="a_node6"><a xlink:href="../../d1/d9e/txid_8h.html" target="_top" xlink:title=" ">
<polygon fill="white" stroke="black" points="306.28,-275.5 306.28,-293.5 346.18,-293.5 346.18,-275.5 306.28,-275.5"/>
<text text-anchor="middle" x="326.23" y="-281.5" font-family="Helvetica,sans-Serif" font-size="10.00">txid.h</text>
</a>
</g>
</g>
<!-- Node5&#45;&gt;Node6 -->
<g id="edge5" class="edge">
<title>Node5&#45;&gt;Node6</title>
<path fill="none" stroke="midnightblue" d="M370.7,-385.22C363.29,-376.7 352.12,-362.76 345.23,-349 337.98,-334.52 332.96,-316.76 329.9,-303.71"/>
<polygon fill="midnightblue" stroke="midnightblue" points="333.26,-302.69 327.72,-293.66 326.42,-304.17 333.26,-302.69"/>
</g>
<!-- Node13 -->
<g id="node13" class="node">
<title>Node13</title>
<g id="a_node13"><a xlink:href="../../d9/d18/txscaled_8h.html" target="_top" xlink:title=" ">
<polygon fill="white" stroke="black" points="354.72,-330.5 354.72,-348.5 415.74,-348.5 415.74,-330.5 354.72,-330.5"/>
<text text-anchor="middle" x="385.23" y="-336.5" font-family="Helvetica,sans-Serif" font-size="10.00">txscaled.h</text>
</a>
</g>
</g>
<!-- Node5&#45;&gt;Node13 -->
<g id="edge12" class="edge">
<title>Node5&#45;&gt;Node13</title>
<path fill="none" stroke="midnightblue" d="M379.33,-385.22C380.27,-378.1 381.66,-367.58 382.85,-358.53"/>
<polygon fill="midnightblue" stroke="midnightblue" points="386.33,-358.92 384.17,-348.55 379.39,-358.01 386.33,-358.92"/>
</g>
<!-- Node21 -->
<g id="node21" class="node">
<title>Node21</title>
<g id="a_node21"><a xlink:title=" ">
<polygon fill="white" stroke="#bfbfbf" points="433.5,-330.5 433.5,-348.5 478.96,-348.5 478.96,-330.5 433.5,-330.5"/>
<text text-anchor="middle" x="456.23" y="-336.5" font-family="Helvetica,sans-Serif" font-size="10.00">cstring</text>
</a>
</g>
</g>
<!-- Node5&#45;&gt;Node21 -->
<g id="edge25" class="edge">
<title>Node5&#45;&gt;Node21</title>
<path fill="none" stroke="midnightblue" d="M390.08,-385.45C402.22,-377.2 421.33,-364.22 435.89,-354.32"/>
<polygon fill="midnightblue" stroke="midnightblue" points="437.97,-357.14 444.27,-348.63 434.04,-351.35 437.97,-357.14"/>
</g>
<!-- Node22 -->
<g id="node22" class="node">
<title>Node22</title>
<g id="a_node22"><a xlink:title=" ">
<polygon fill="white" stroke="#bfbfbf" points="500.62,-330.5 500.62,-348.5 543.85,-348.5 543.85,-330.5 500.62,-330.5"/>
<text text-anchor="middle" x="522.23" y="-336.5" font-family="Helvetica,sans-Serif" font-size="10.00">vector</text>
</a>
</g>
</g>
<!-- Node5&#45;&gt;Node22 -->
<g id="edge26" class="edge">
<title>Node5&#45;&gt;Node22</title>
<path fill="none" stroke="midnightblue" d="M400.1,-385.45C424.21,-376.58 463.19,-362.23 490.62,-352.13"/>
<polygon fill="midnightblue" stroke="midnightblue" points="491.98,-355.36 500.16,-348.63 489.56,-348.79 491.98,-355.36"/>
</g>
<!-- Node7 -->
<g id="node7" class="node">
<title>Node7</title>
<g id="a_node7"><a xlink:href="../../dc/de8/txvars_8h.html" target="_top" xlink:title=" ">
<polygon fill="white" stroke="black" points="268.73,-220.5 268.73,-238.5 319.74,-238.5 319.74,-220.5 268.73,-220.5"/>
<text text-anchor="middle" x="294.23" y="-226.5" font-family="Helvetica,sans-Serif" font-size="10.00">txvars.h</text>
</a>
</g>
</g>
<!-- Node6&#45;&gt;Node7 -->
<g id="edge6" class="edge">
<title>Node6&#45;&gt;Node7</title>
<path fill="none" stroke="midnightblue" d="M321.23,-275.22C316.74,-267.79 310.02,-256.65 304.4,-247.34"/>
<polygon fill="midnightblue" stroke="midnightblue" points="307.26,-245.3 299.09,-238.55 301.26,-248.92 307.26,-245.3"/>
</g>
<!-- Node12 -->
<g id="node12" class="node">
<title>Node12</title>
<g id="a_node12"><a xlink:title=" ">
<polygon fill="white" stroke="#bfbfbf" points="371,-165.5 371,-183.5 411.46,-183.5 411.46,-165.5 371,-165.5"/>
<text text-anchor="middle" x="391.23" y="-171.5" font-family="Helvetica,sans-Serif" font-size="10.00">string</text>
</a>
</g>
</g>
<!-- Node6&#45;&gt;Node12 -->
<g id="edge11" class="edge">
<title>Node6&#45;&gt;Node12</title>
<path fill="none" stroke="midnightblue" d="M331.12,-275.38C341.7,-257.79 366.95,-215.85 381.13,-192.29"/>
<polygon fill="midnightblue" stroke="midnightblue" points="384.13,-194.08 386.29,-183.71 378.13,-190.47 384.13,-194.08"/>
</g>
<!-- Node8 -->
<g id="node8" class="node">
<title>Node8</title>
<g id="a_node8"><a xlink:href="../../d0/d0b/enums_8h.html" target="_top" xlink:title=" ">
<polygon fill="white" stroke="black" points="393.61,-110.5 393.61,-128.5 476.85,-128.5 476.85,-110.5 393.61,-110.5"/>
<text text-anchor="middle" x="435.23" y="-116.5" font-family="Helvetica,sans-Serif" font-size="10.00">tralics/enums.h</text>
</a>
</g>
</g>
<!-- Node7&#45;&gt;Node8 -->
<g id="edge7" class="edge">
<title>Node7&#45;&gt;Node8</title>
<path fill="none" stroke="midnightblue" d="M293.22,-220.4C292.04,-207.18 291.73,-180.83 305.23,-165 324.59,-142.31 356.05,-131.17 383.17,-125.71"/>
<polygon fill="midnightblue" stroke="midnightblue" points="384.09,-129.1 393.32,-123.88 382.85,-122.21 384.09,-129.1"/>
</g>
<!-- Node11 -->
<g id="node11" class="node">
<title>Node11</title>
<g id="a_node11"><a xlink:title=" ">
<polygon fill="white" stroke="#bfbfbf" points="313.84,-165.5 313.84,-183.5 352.62,-183.5 352.62,-165.5 313.84,-165.5"/>
<text text-anchor="middle" x="333.23" y="-171.5" font-family="Helvetica,sans-Serif" font-size="10.00">array</text>
</a>
</g>
</g>
<!-- Node7&#45;&gt;Node11 -->
<g id="edge10" class="edge">
<title>Node7&#45;&gt;Node11</title>
<path fill="none" stroke="midnightblue" d="M300.33,-220.22C305.91,-212.63 314.34,-201.18 321.27,-191.76"/>
<polygon fill="midnightblue" stroke="midnightblue" points="324.2,-193.68 327.31,-183.55 318.56,-189.53 324.2,-193.68"/>
</g>
<!-- Node9 -->
<g id="node9" class="node">
<title>Node9</title>
<g id="a_node9"><a xlink:href="../../d8/db5/consts_8h.html" target="_top" xlink:title=" ">
<polygon fill="white" stroke="black" points="404.61,-55.5 404.61,-73.5 457.85,-73.5 457.85,-55.5 404.61,-55.5"/>
<text text-anchor="middle" x="431.23" y="-61.5" font-family="Helvetica,sans-Serif" font-size="10.00">consts.h</text>
</a>
</g>
</g>
<!-- Node8&#45;&gt;Node9 -->
<g id="edge8" class="edge">
<title>Node8&#45;&gt;Node9</title>
<path fill="none" stroke="midnightblue" d="M434.61,-110.22C434.07,-103.1 433.28,-92.58 432.59,-83.53"/>
<polygon fill="midnightblue" stroke="midnightblue" points="436.08,-83.26 431.84,-73.55 429.1,-83.78 436.08,-83.26"/>
</g>
<!-- Node10 -->
<g id="node10" class="node">
<title>Node10</title>
<g id="a_node10"><a xlink:href="../../d9/d49/types_8h.html" target="_top" xlink:title=" ">
<polygon fill="white" stroke="black" points="446.11,-0.5 446.11,-18.5 494.35,-18.5 494.35,-0.5 446.11,-0.5"/>
<text text-anchor="middle" x="470.23" y="-6.5" font-family="Helvetica,sans-Serif" font-size="10.00">types.h</text>
</a>
</g>
</g>
<!-- Node9&#45;&gt;Node10 -->
<g id="edge9" class="edge">
<title>Node9&#45;&gt;Node10</title>
<path fill="none" stroke="midnightblue" d="M437.33,-55.22C442.91,-47.63 451.34,-36.18 458.27,-26.76"/>
<polygon fill="midnightblue" stroke="midnightblue" points="461.2,-28.68 464.31,-18.55 455.56,-24.53 461.2,-28.68"/>
</g>
<!-- Node14 -->
<g id="node14" class="node">
<title>Node14</title>
<g id="a_node14"><a xlink:href="../../dc/d91/txtokenlist_8h.html" target="_top" xlink:title=" ">
<polygon fill="white" stroke="black" points="381.83,-275.5 381.83,-293.5 450.63,-293.5 450.63,-275.5 381.83,-275.5"/>
<text text-anchor="middle" x="416.23" y="-281.5" font-family="Helvetica,sans-Serif" font-size="10.00">txtokenlist.h</text>
</a>
</g>
</g>
<!-- Node13&#45;&gt;Node14 -->
<g id="edge13" class="edge">
<title>Node13&#45;&gt;Node14</title>
<path fill="none" stroke="midnightblue" d="M390.08,-330.22C394.42,-322.79 400.94,-311.65 406.38,-302.34"/>
<polygon fill="midnightblue" stroke="midnightblue" points="409.5,-303.95 411.52,-293.55 403.45,-300.41 409.5,-303.95"/>
</g>
<!-- Node14&#45;&gt;Node7 -->
<g id="edge23" class="edge">
<title>Node14&#45;&gt;Node7</title>
<path fill="none" stroke="midnightblue" d="M397.7,-275.45C377.64,-266.73 345.4,-252.73 322.24,-242.67"/>
<polygon fill="midnightblue" stroke="midnightblue" points="323.5,-239.4 312.93,-238.63 320.71,-245.82 323.5,-239.4"/>
</g>
<!-- Node15 -->
<g id="node15" class="node">
<title>Node15</title>
<g id="a_node15"><a xlink:href="../../d5/daf/_istring_8h.html" target="_top" xlink:title=" ">
<polygon fill="white" stroke="black" points="376,-220.5 376,-238.5 456.46,-238.5 456.46,-220.5 376,-220.5"/>
<text text-anchor="middle" x="416.23" y="-226.5" font-family="Helvetica,sans-Serif" font-size="10.00">tralics/Istring.h</text>
</a>
</g>
</g>
<!-- Node14&#45;&gt;Node15 -->
<g id="edge14" class="edge">
<title>Node14&#45;&gt;Node15</title>
<path fill="none" stroke="midnightblue" d="M416.23,-275.22C416.23,-268.18 416.23,-257.81 416.23,-248.83"/>
<polygon fill="midnightblue" stroke="midnightblue" points="419.73,-248.55 416.23,-238.55 412.73,-248.55 419.73,-248.55"/>
</g>
<!-- Node16 -->
<g id="node16" class="node">
<title>Node16</title>
<g id="a_node16"><a xlink:href="../../dd/dcd/_token_8h.html" target="_top" xlink:title=" ">
<polygon fill="white" stroke="black" points="512.27,-220.5 512.27,-238.5 592.19,-238.5 592.19,-220.5 512.27,-220.5"/>
<text text-anchor="middle" x="552.23" y="-226.5" font-family="Helvetica,sans-Serif" font-size="10.00">tralics/Token.h</text>
</a>
</g>
</g>
<!-- Node14&#45;&gt;Node16 -->
<g id="edge17" class="edge">
<title>Node14&#45;&gt;Node16</title>
<path fill="none" stroke="midnightblue" d="M436.89,-275.45C459.55,-266.62 496.15,-252.35 522.04,-242.27"/>
<polygon fill="midnightblue" stroke="midnightblue" points="523.34,-245.52 531.38,-238.63 520.79,-239 523.34,-245.52"/>
</g>
<!-- Node20 -->
<g id="node20" class="node">
<title>Node20</title>
<g id="a_node20"><a xlink:title=" ">
<polygon fill="white" stroke="#bfbfbf" points="609.84,-220.5 609.84,-238.5 648.62,-238.5 648.62,-220.5 609.84,-220.5"/>
<text text-anchor="middle" x="629.23" y="-226.5" font-family="Helvetica,sans-Serif" font-size="10.00">utility</text>
</a>
</g>
</g>
<!-- Node14&#45;&gt;Node20 -->
<g id="edge24" class="edge">
<title>Node14&#45;&gt;Node20</title>
<path fill="none" stroke="midnightblue" d="M450.82,-275.82C486.07,-267.85 542.51,-254.7 599.75,-239.29"/>
<polygon fill="midnightblue" stroke="midnightblue" points="600.96,-242.59 609.69,-236.59 599.12,-235.83 600.96,-242.59"/>
</g>
<!-- Node15&#45;&gt;Node8 -->
<g id="edge15" class="edge">
<title>Node15&#45;&gt;Node8</title>
<path fill="none" stroke="midnightblue" d="M417.66,-220.38C420.7,-203.1 427.87,-162.33 432.05,-138.56"/>
<polygon fill="midnightblue" stroke="midnightblue" points="435.5,-139.17 433.79,-128.71 428.61,-137.95 435.5,-139.17"/>
</g>
<!-- Node15&#45;&gt;Node12 -->
<g id="edge16" class="edge">
<title>Node15&#45;&gt;Node12</title>
<path fill="none" stroke="midnightblue" d="M412.33,-220.22C408.86,-212.86 403.67,-201.88 399.32,-192.64"/>
<polygon fill="midnightblue" stroke="midnightblue" points="402.46,-191.1 395.03,-183.55 396.13,-194.09 402.46,-191.1"/>
</g>
<!-- Node17 -->
<g id="node17" class="node">
<title>Node17</title>
<g id="a_node17"><a xlink:href="../../d2/d68/_cmd_chr_8h.html" target="_top" xlink:title=" ">
<polygon fill="white" stroke="black" points="473.72,-165.5 473.72,-183.5 534.74,-183.5 534.74,-165.5 473.72,-165.5"/>
<text text-anchor="middle" x="504.23" y="-171.5" font-family="Helvetica,sans-Serif" font-size="10.00">CmdChr.h</text>
</a>
</g>
</g>
<!-- Node16&#45;&gt;Node17 -->
<g id="edge18" class="edge">
<title>Node16&#45;&gt;Node17</title>
<path fill="none" stroke="midnightblue" d="M544.73,-220.22C537.72,-212.47 527.06,-200.7 518.43,-191.18"/>
<polygon fill="midnightblue" stroke="midnightblue" points="520.83,-188.61 511.52,-183.55 515.64,-193.31 520.83,-188.61"/>
</g>
<!-- Node19 -->
<g id="node19" class="node">
<title>Node19</title>
<g id="a_node19"><a xlink:title=" ">
<polygon fill="white" stroke="#bfbfbf" points="552.73,-165.5 552.73,-183.5 581.73,-183.5 581.73,-165.5 552.73,-165.5"/>
<text text-anchor="middle" x="566.84" y="-171.5" font-family="Helvetica,sans-Serif" font-size="10.00">list</text>
</a>
</g>
</g>
<!-- Node16&#45;&gt;Node19 -->
<g id="edge22" class="edge">
<title>Node16&#45;&gt;Node19</title>
<path fill="none" stroke="midnightblue" d="M554.58,-220.22C556.61,-213.02 559.63,-202.35 562.21,-193.23"/>
<polygon fill="midnightblue" stroke="midnightblue" points="565.6,-194.12 564.95,-183.55 558.86,-192.22 565.6,-194.12"/>
</g>
<!-- Node17&#45;&gt;Node8 -->
<g id="edge21" class="edge">
<title>Node17&#45;&gt;Node8</title>
<path fill="none" stroke="midnightblue" d="M493.75,-165.45C483.21,-157.36 466.74,-144.7 453.96,-134.88"/>
<polygon fill="midnightblue" stroke="midnightblue" points="455.87,-131.94 445.81,-128.63 451.61,-137.49 455.87,-131.94"/>
</g>
<!-- Node18 -->
<g id="node18" class="node">
<title>Node18</title>
<g id="a_node18"><a xlink:href="../../d8/d47/codepoint_8h.html" target="_top" xlink:title=" ">
<polygon fill="white" stroke="black" points="475.38,-55.5 475.38,-73.5 543.09,-73.5 543.09,-55.5 475.38,-55.5"/>
<text text-anchor="middle" x="509.23" y="-61.5" font-family="Helvetica,sans-Serif" font-size="10.00">codepoint.h</text>
</a>
</g>
</g>
<!-- Node17&#45;&gt;Node18 -->
<g id="edge19" class="edge">
<title>Node17&#45;&gt;Node18</title>
<path fill="none" stroke="midnightblue" d="M504.61,-165.38C505.4,-148.18 507.28,-107.7 508.38,-83.89"/>
<polygon fill="midnightblue" stroke="midnightblue" points="511.88,-83.86 508.85,-73.71 504.89,-83.54 511.88,-83.86"/>
</g>
<!-- Node18&#45;&gt;Node10 -->
<g id="edge20" class="edge">
<title>Node18&#45;&gt;Node10</title>
<path fill="none" stroke="midnightblue" d="M503.14,-55.22C497.55,-47.63 489.12,-36.18 482.2,-26.76"/>
<polygon fill="midnightblue" stroke="midnightblue" points="484.9,-24.53 476.15,-18.55 479.26,-28.68 484.9,-24.53"/>
</g>
<!-- Node24&#45;&gt;Node5 -->
<g id="edge29" class="edge">
<title>Node24&#45;&gt;Node5</title>
<path fill="none" stroke="midnightblue" d="M376.54,-440.22C376.81,-433.18 377.2,-422.81 377.54,-413.83"/>
<polygon fill="midnightblue" stroke="midnightblue" points="381.05,-413.67 377.93,-403.55 374.05,-413.41 381.05,-413.67"/>
</g>
<!-- Node25&#45;&gt;Node23 -->
<g id="edge33" class="edge">
<title>Node25&#45;&gt;Node23</title>
<path fill="none" stroke="midnightblue" d="M247.82,-550.39C233.23,-542.57 211.98,-529.65 197.23,-514 184.4,-500.39 174.13,-481.54 167.69,-467.92"/>
<polygon fill="midnightblue" stroke="midnightblue" points="170.84,-466.37 163.54,-458.69 164.45,-469.25 170.84,-466.37"/>
</g>
<!-- Node26 -->
<g id="node26" class="node">
<title>Node26</title>
<g id="a_node26"><a xlink:href="../../d7/d4d/txfonts_8h.html" target="_top" xlink:title=" ">
<polygon fill="white" stroke="black" points="278.33,-495.5 278.33,-513.5 332.13,-513.5 332.13,-495.5 278.33,-495.5"/>
<text text-anchor="middle" x="305.23" y="-501.5" font-family="Helvetica,sans-Serif" font-size="10.00">txfonts.h</text>
</a>
</g>
</g>
<!-- Node25&#45;&gt;Node26 -->
<g id="edge31" class="edge">
<title>Node25&#45;&gt;Node26</title>
<path fill="none" stroke="midnightblue" d="M270.64,-550.22C276.57,-542.55 285.55,-530.94 292.88,-521.47"/>
<polygon fill="midnightblue" stroke="midnightblue" points="295.65,-523.6 299,-513.55 290.12,-519.32 295.65,-523.6"/>
</g>
<!-- Node27 -->
<g id="node27" class="node">
<title>Node27</title>
<g id="a_node27"><a xlink:title=" ">
<polygon fill="white" stroke="#bfbfbf" points="206.06,-495.5 206.06,-513.5 260.4,-513.5 260.4,-495.5 206.06,-495.5"/>
<text text-anchor="middle" x="233.23" y="-501.5" font-family="Helvetica,sans-Serif" font-size="10.00">iostream</text>
</a>
</g>
</g>
<!-- Node25&#45;&gt;Node27 -->
<g id="edge34" class="edge">
<title>Node25&#45;&gt;Node27</title>
<path fill="none" stroke="midnightblue" d="M259.39,-550.22C255.04,-542.79 248.52,-531.65 243.08,-522.34"/>
<polygon fill="midnightblue" stroke="midnightblue" points="246.01,-520.41 237.94,-513.55 239.97,-523.95 246.01,-520.41"/>
</g>
<!-- Node26&#45;&gt;Node24 -->
<g id="edge32" class="edge">
<title>Node26&#45;&gt;Node24</title>
<path fill="none" stroke="midnightblue" d="M316.01,-495.45C326.86,-487.36 343.81,-474.7 356.96,-464.88"/>
<polygon fill="midnightblue" stroke="midnightblue" points="359.43,-467.41 365.35,-458.63 355.24,-461.8 359.43,-467.41"/>
</g>
<!-- Node28&#45;&gt;Node4 -->
<g id="edge36" class="edge">
<title>Node28&#45;&gt;Node4</title>
<path fill="none" stroke="midnightblue" d="M39.29,-550.22C48.03,-542.24 61.44,-529.98 72.01,-520.32"/>
<polygon fill="midnightblue" stroke="midnightblue" points="74.4,-522.88 79.42,-513.55 69.68,-517.71 74.4,-522.88"/>
</g>
<!-- Node29&#45;&gt;Node20 -->
<g id="edge38" class="edge">
<title>Node29&#45;&gt;Node20</title>
<path fill="none" stroke="midnightblue" d="M646.31,-385.19C643.53,-360.01 635.15,-284.11 631.26,-248.86"/>
<polygon fill="midnightblue" stroke="midnightblue" points="634.7,-248.15 630.13,-238.6 627.74,-248.92 634.7,-248.15"/>
</g>
<!-- Node30&#45;&gt;Node4 -->
<g id="edge48" class="edge">
<title>Node30&#45;&gt;Node4</title>
<path fill="none" stroke="midnightblue" d="M434.2,-611.62C352.74,-606.28 132.06,-590 107.23,-569 94.2,-557.98 89.89,-538.41 88.57,-523.9"/>
<polygon fill="midnightblue" stroke="midnightblue" points="92.05,-523.41 88.04,-513.6 85.06,-523.77 92.05,-523.41"/>
</g>
<!-- Node31 -->
<g id="node31" class="node">
<title>Node31</title>
<g id="a_node31"><a xlink:href="../../d3/d6b/txcond_8h.html" target="_top" xlink:title=" ">
<polygon fill="white" stroke="black" points="511.33,-440.5 511.33,-458.5 565.13,-458.5 565.13,-440.5 511.33,-440.5"/>
<text text-anchor="middle" x="538.23" y="-446.5" font-family="Helvetica,sans-Serif" font-size="10.00">txcond.h</text>
</a>
</g>
</g>
<!-- Node30&#45;&gt;Node31 -->
<g id="edge40" class="edge">
<title>Node30&#45;&gt;Node31</title>
<path fill="none" stroke="midnightblue" d="M489.66,-605.36C506.41,-598.52 527.05,-586.95 537.23,-569 555.19,-537.34 548.8,-492.85 543.15,-468.38"/>
<polygon fill="midnightblue" stroke="midnightblue" points="546.53,-467.5 540.69,-458.66 539.75,-469.22 546.53,-467.5"/>
</g>
<!-- Node32 -->
<g id="node32" class="node">
<title>Node32</title>
<g id="a_node32"><a xlink:href="../../d7/d7e/txhash_8h.html" target="_top" xlink:title=" ">
<polygon fill="white" stroke="black" points="329.33,-550.5 329.33,-568.5 383.13,-568.5 383.13,-550.5 329.33,-550.5"/>
<text text-anchor="middle" x="356.23" y="-556.5" font-family="Helvetica,sans-Serif" font-size="10.00">txhash.h</text>
</a>
</g>
</g>
<!-- Node30&#45;&gt;Node32 -->
<g id="edge42" class="edge">
<title>Node30&#45;&gt;Node32</title>
<path fill="none" stroke="midnightblue" d="M447.83,-605.45C430.3,-596.85 402.29,-583.1 381.86,-573.08"/>
<polygon fill="midnightblue" stroke="midnightblue" points="383.31,-569.89 372.79,-568.63 380.22,-576.17 383.31,-569.89"/>
</g>
<!-- Node34 -->
<g id="node34" class="node">
<title>Node34</title>
<g id="a_node34"><a xlink:href="../../de/d7c/tximage_8h.html" target="_top" xlink:title=" ">
<polygon fill="white" stroke="black" points="559.55,-275.5 559.55,-293.5 618.91,-293.5 618.91,-275.5 559.55,-275.5"/>
<text text-anchor="middle" x="589.23" y="-281.5" font-family="Helvetica,sans-Serif" font-size="10.00">tximage.h</text>
</a>
</g>
</g>
<!-- Node30&#45;&gt;Node34 -->
<g id="edge45" class="edge">
<title>Node30&#45;&gt;Node34</title>
<path fill="none" stroke="midnightblue" d="M489.3,-605.49C527.07,-591.66 594.23,-559.49 594.23,-505.5 594.23,-505.5 594.23,-505.5 594.23,-393.5 594.23,-361.98 592.08,-325.35 590.6,-303.87"/>
<polygon fill="midnightblue" stroke="midnightblue" points="594.07,-303.35 589.86,-293.62 587.09,-303.85 594.07,-303.35"/>
</g>
<!-- Node35 -->
<g id="node35" class="node">
<title>Node35</title>
<g id="a_node35"><a xlink:href="../../dc/d65/txstack_8h.html" target="_top" xlink:title=" ">
<polygon fill="white" stroke="black" points="472.5,-550.5 472.5,-568.5 527.96,-568.5 527.96,-550.5 472.5,-550.5"/>
<text text-anchor="middle" x="500.23" y="-556.5" font-family="Helvetica,sans-Serif" font-size="10.00">txstack.h</text>
</a>
</g>
</g>
<!-- Node30&#45;&gt;Node35 -->
<g id="edge49" class="edge">
<title>Node30&#45;&gt;Node35</title>
<path fill="none" stroke="midnightblue" d="M469.86,-605.22C474.96,-597.71 482.63,-586.41 488.99,-577.05"/>
<polygon fill="midnightblue" stroke="midnightblue" points="492.04,-578.79 494.76,-568.55 486.25,-574.86 492.04,-578.79"/>
</g>
<!-- Node38 -->
<g id="node38" class="node">
<title>Node38</title>
<g id="a_node38"><a xlink:href="../../d8/d3d/txstats_8h.html" target="_top" xlink:title=" ">
<polygon fill="white" stroke="black" points="401.61,-550.5 401.61,-568.5 454.85,-568.5 454.85,-550.5 401.61,-550.5"/>
<text text-anchor="middle" x="428.23" y="-556.5" font-family="Helvetica,sans-Serif" font-size="10.00">txstats.h</text>
</a>
</g>
</g>
<!-- Node30&#45;&gt;Node38 -->
<g id="edge53" class="edge">
<title>Node30&#45;&gt;Node38</title>
<path fill="none" stroke="midnightblue" d="M458.61,-605.22C453.5,-597.71 445.83,-586.41 439.47,-577.05"/>
<polygon fill="midnightblue" stroke="midnightblue" points="442.21,-574.86 433.7,-568.55 436.42,-578.79 442.21,-574.86"/>
</g>
<!-- Node31&#45;&gt;Node22 -->
<g id="edge41" class="edge">
<title>Node31&#45;&gt;Node22</title>
<path fill="none" stroke="midnightblue" d="M537.03,-440.38C534.48,-423.18 528.48,-382.7 524.96,-358.89"/>
<polygon fill="midnightblue" stroke="midnightblue" points="528.38,-358.09 523.45,-348.71 521.45,-359.12 528.38,-358.09"/>
</g>
<!-- Node33 -->
<g id="node33" class="node">
<title>Node33</title>
<g id="a_node33"><a xlink:href="../../d3/d01/txeqtb_8h.html" target="_top" xlink:title=" ">
<polygon fill="white" stroke="black" points="350.44,-495.5 350.44,-513.5 402.02,-513.5 402.02,-495.5 350.44,-495.5"/>
<text text-anchor="middle" x="376.23" y="-501.5" font-family="Helvetica,sans-Serif" font-size="10.00">txeqtb.h</text>
</a>
</g>
</g>
<!-- Node32&#45;&gt;Node33 -->
<g id="edge43" class="edge">
<title>Node32&#45;&gt;Node33</title>
<path fill="none" stroke="midnightblue" d="M359.36,-550.22C362.1,-542.94 366.19,-532.11 369.65,-522.93"/>
<polygon fill="midnightblue" stroke="midnightblue" points="372.94,-524.14 373.19,-513.55 366.39,-521.67 372.94,-524.14"/>
</g>
<!-- Node33&#45;&gt;Node24 -->
<g id="edge44" class="edge">
<title>Node33&#45;&gt;Node24</title>
<path fill="none" stroke="midnightblue" d="M376.23,-495.22C376.23,-488.18 376.23,-477.81 376.23,-468.83"/>
<polygon fill="midnightblue" stroke="midnightblue" points="379.73,-468.55 376.23,-458.55 372.73,-468.55 379.73,-468.55"/>
</g>
<!-- Node34&#45;&gt;Node12 -->
<g id="edge46" class="edge">
<title>Node34&#45;&gt;Node12</title>
<path fill="none" stroke="midnightblue" d="M573.29,-275.48C555.95,-266.7 527.47,-252.14 503.23,-239 472.11,-222.13 436.63,-201.83 414.09,-188.8"/>
<polygon fill="midnightblue" stroke="midnightblue" points="415.69,-185.68 405.28,-183.69 412.18,-191.74 415.69,-185.68"/>
</g>
<!-- Node34&#45;&gt;Node20 -->
<g id="edge47" class="edge">
<title>Node34&#45;&gt;Node20</title>
<path fill="none" stroke="midnightblue" d="M595.48,-275.22C601.21,-267.63 609.85,-256.18 616.96,-246.76"/>
<polygon fill="midnightblue" stroke="midnightblue" points="619.93,-248.64 623.16,-238.55 614.34,-244.42 619.93,-248.64"/>
</g>
<!-- Node36 -->
<g id="node36" class="node">
<title>Node36</title>
<g id="a_node36"><a xlink:href="../../d4/da4/txatt_8h.html" target="_top" xlink:title=" ">
<polygon fill="white" stroke="black" points="419.61,-495.5 419.61,-513.5 462.85,-513.5 462.85,-495.5 419.61,-495.5"/>
<text text-anchor="middle" x="441.23" y="-501.5" font-family="Helvetica,sans-Serif" font-size="10.00">txatt.h</text>
</a>
</g>
</g>
<!-- Node35&#45;&gt;Node36 -->
<g id="edge50" class="edge">
<title>Node35&#45;&gt;Node36</title>
<path fill="none" stroke="midnightblue" d="M491.27,-550.45C482.43,-542.51 468.72,-530.19 457.88,-520.45"/>
<polygon fill="midnightblue" stroke="midnightblue" points="460.05,-517.7 450.28,-513.63 455.38,-522.91 460.05,-517.7"/>
</g>
<!-- Node37 -->
<g id="node37" class="node">
<title>Node37</title>
<g id="a_node37"><a xlink:href="../../d1/d43/txxml_8h.html" target="_top" xlink:title=" ">
<polygon fill="white" stroke="black" points="480.4,-495.5 480.4,-513.5 528.07,-513.5 528.07,-495.5 480.4,-495.5"/>
<text text-anchor="middle" x="504.23" y="-501.5" font-family="Helvetica,sans-Serif" font-size="10.00">txxml.h</text>
</a>
</g>
</g>
<!-- Node35&#45;&gt;Node37 -->
<g id="edge52" class="edge">
<title>Node35&#45;&gt;Node37</title>
<path fill="none" stroke="midnightblue" d="M500.86,-550.22C501.39,-543.1 502.19,-532.58 502.87,-523.53"/>
<polygon fill="midnightblue" stroke="midnightblue" points="506.36,-523.78 503.62,-513.55 499.38,-523.26 506.36,-523.78"/>
</g>
<!-- Node36&#45;&gt;Node24 -->
<g id="edge51" class="edge">
<title>Node36&#45;&gt;Node24</title>
<path fill="none" stroke="midnightblue" d="M431.36,-495.45C421.53,-487.43 406.21,-474.95 394.22,-465.17"/>
<polygon fill="midnightblue" stroke="midnightblue" points="396.16,-462.23 386.2,-458.63 391.73,-467.66 396.16,-462.23"/>
</g>
</g>
</svg>
