<?xml version="1.0" encoding="UTF-8" standalone="no"?>
<!DOCTYPE svg PUBLIC "-//W3C//DTD SVG 1.1//EN"
 "http://www.w3.org/Graphics/SVG/1.1/DTD/svg11.dtd">
<!-- Generated by graphviz version 2.42.3 (20191010.1750)
 -->
<!-- Title: FileForInput Pages: 1 -->
<svg width="311pt" height="232pt"
 viewBox="0.00 0.00 311.46 232.00" xmlns="http://www.w3.org/2000/svg" xmlns:xlink="http://www.w3.org/1999/xlink">
<g id="graph0" class="graph" transform="scale(1 1) rotate(0) translate(4 228)">
<title>FileForInput</title>
<!-- Node1 -->
<g id="node1" class="node">
<title>Node1</title>
<g id="a_node1"><a xlink:title=" ">
<polygon fill="#bfbfbf" stroke="black" points="86.73,-0.5 86.73,-18.5 156.09,-18.5 156.09,-0.5 86.73,-0.5"/>
<text text-anchor="middle" x="121.41" y="-6.5" font-family="Helvetica,sans-Serif" font-size="10.00">FileForInput</text>
</a>
</g>
</g>
<!-- Node2 -->
<g id="node2" class="node">
<title>Node2</title>
<g id="a_node2"><a xlink:href="../../d6/d5a/struct_line_ptr.html" target="_top" xlink:title=" ">
<polygon fill="none" stroke="black" points="138.57,-65.5 138.57,-83.5 186.25,-83.5 186.25,-65.5 138.57,-65.5"/>
<text text-anchor="middle" x="162.41" y="-71.5" font-family="Helvetica,sans-Serif" font-size="10.00">LinePtr</text>
</a>
</g>
</g>
<!-- Node2&#45;&gt;Node1 -->
<g id="edge1" class="edge">
<title>Node2&#45;&gt;Node1</title>
<path fill="none" stroke="#9a32cd" stroke-dasharray="5,2" d="M151.51,-56.75C143.47,-44.39 132.88,-28.12 126.64,-18.54"/>
<polygon fill="#9a32cd" stroke="#9a32cd" points="148.66,-58.79 157.05,-65.26 154.53,-54.97 148.66,-58.79"/>
<text text-anchor="middle" x="165.81" y="-39" font-family="Helvetica,sans-Serif" font-size="10.00"> the_lines</text>
</g>
<!-- Node3 -->
<g id="node3" class="node">
<title>Node3</title>
<g id="a_node3"><a xlink:title="STL class.">
<polygon fill="none" stroke="#bfbfbf" points="116.34,-130.5 116.34,-148.5 208.48,-148.5 208.48,-130.5 116.34,-130.5"/>
<text text-anchor="middle" x="162.41" y="-136.5" font-family="Helvetica,sans-Serif" font-size="10.00">std::list&lt; Clines &gt;</text>
</a>
</g>
</g>
<!-- Node3&#45;&gt;Node2 -->
<g id="edge2" class="edge">
<title>Node3&#45;&gt;Node2</title>
<path fill="none" stroke="midnightblue" d="M162.41,-119.91C162.41,-107.81 162.41,-92.65 162.41,-83.54"/>
<polygon fill="midnightblue" stroke="midnightblue" points="158.91,-120.26 162.41,-130.26 165.91,-120.26 158.91,-120.26"/>
</g>
<!-- Node4 -->
<g id="node4" class="node">
<title>Node4</title>
<g id="a_node4"><a xlink:title=" ">
<polygon fill="none" stroke="#bfbfbf" points="85.91,-200.5 85.91,-218.5 114.91,-218.5 114.91,-200.5 85.91,-200.5"/>
<text text-anchor="middle" x="99.96" y="-206.5" font-family="Helvetica,sans-Serif" font-size="10.00">T</text>
</a>
</g>
</g>
<!-- Node4&#45;&gt;Node3 -->
<g id="edge3" class="edge">
<title>Node4&#45;&gt;Node3</title>
<path fill="none" stroke="#9a32cd" stroke-dasharray="5,2" d="M114.82,-192.69C127.41,-178.88 145.19,-159.39 155.06,-148.56"/>
<polygon fill="#9a32cd" stroke="#9a32cd" points="111.92,-190.68 107.76,-200.43 117.09,-195.4 111.92,-190.68"/>
<text text-anchor="middle" x="159.09" y="-169" font-family="Helvetica,sans-Serif" font-size="10.00"> elements</text>
</g>
<!-- Node8 -->
<g id="node8" class="node">
<title>Node8</title>
<g id="a_node8"><a xlink:title="STL class.">
<polygon fill="none" stroke="#bfbfbf" points="0,-130.5 0,-148.5 98.82,-148.5 98.82,-130.5 0,-130.5"/>
<text text-anchor="middle" x="49.41" y="-136.5" font-family="Helvetica,sans-Serif" font-size="10.00">std::vector&lt; char &gt;</text>
</a>
</g>
</g>
<!-- Node4&#45;&gt;Node8 -->
<g id="edge8" class="edge">
<title>Node4&#45;&gt;Node8</title>
<path fill="none" stroke="#9a32cd" stroke-dasharray="5,2" d="M86.71,-192.77C82.54,-187.81 78.01,-182.26 74.05,-177 66.97,-167.59 59.49,-156.3 54.66,-148.79"/>
<polygon fill="#9a32cd" stroke="#9a32cd" points="84.07,-195.08 93.24,-200.4 89.39,-190.52 84.07,-195.08"/>
<text text-anchor="middle" x="96.09" y="-169" font-family="Helvetica,sans-Serif" font-size="10.00"> elements</text>
</g>
<!-- Node5 -->
<g id="node5" class="node">
<title>Node5</title>
<g id="a_node5"><a xlink:title="STL class.">
<polygon fill="none" stroke="#bfbfbf" points="226.73,-130.5 226.73,-148.5 286.08,-148.5 286.08,-130.5 226.73,-130.5"/>
<text text-anchor="middle" x="256.41" y="-136.5" font-family="Helvetica,sans-Serif" font-size="10.00">std::string</text>
</a>
</g>
</g>
<!-- Node5&#45;&gt;Node2 -->
<g id="edge4" class="edge">
<title>Node5&#45;&gt;Node2</title>
<path fill="none" stroke="#9a32cd" stroke-dasharray="5,2" d="M235.64,-124.58C216.85,-111.99 189.82,-93.87 174.4,-83.54"/>
<polygon fill="#9a32cd" stroke="#9a32cd" points="233.86,-127.6 244.12,-130.26 237.76,-121.79 233.86,-127.6"/>
<text text-anchor="middle" x="238.48" y="-104" font-family="Helvetica,sans-Serif" font-size="10.00"> file_name</text>
</g>
<!-- Node6 -->
<g id="node6" class="node">
<title>Node6</title>
<g id="a_node6"><a xlink:title="STL class.">
<polygon fill="none" stroke="#bfbfbf" points="209.36,-195.5 209.36,-223.5 303.46,-223.5 303.46,-195.5 209.36,-195.5"/>
<text text-anchor="start" x="217.36" y="-211.5" font-family="Helvetica,sans-Serif" font-size="10.00">std::basic_string&lt;</text>
<text text-anchor="middle" x="256.41" y="-201.5" font-family="Helvetica,sans-Serif" font-size="10.00"> char &gt;</text>
</a>
</g>
</g>
<!-- Node6&#45;&gt;Node5 -->
<g id="edge5" class="edge">
<title>Node6&#45;&gt;Node5</title>
<path fill="none" stroke="midnightblue" d="M256.41,-185.1C256.41,-172.55 256.41,-157.85 256.41,-148.86"/>
<polygon fill="midnightblue" stroke="midnightblue" points="252.91,-185.39 256.41,-195.39 259.91,-185.39 252.91,-185.39"/>
</g>
<!-- Node7 -->
<g id="node7" class="node">
<title>Node7</title>
<g id="a_node7"><a xlink:href="../../d5/d2a/class_buffer.html" target="_top" xlink:title="a big structure">
<polygon fill="none" stroke="black" points="66.16,-65.5 66.16,-83.5 108.66,-83.5 108.66,-65.5 66.16,-65.5"/>
<text text-anchor="middle" x="87.41" y="-71.5" font-family="Helvetica,sans-Serif" font-size="10.00">Buffer</text>
</a>
</g>
</g>
<!-- Node7&#45;&gt;Node1 -->
<g id="edge6" class="edge">
<title>Node7&#45;&gt;Node1</title>
<path fill="none" stroke="#9a32cd" stroke-dasharray="5,2" d="M89.48,-55.25C90.69,-49.19 92.59,-42.57 95.61,-37 99.46,-29.89 105.77,-23.36 111.19,-18.56"/>
<polygon fill="#9a32cd" stroke="#9a32cd" points="86.01,-54.81 87.98,-65.22 92.93,-55.85 86.01,-54.81"/>
<text text-anchor="middle" x="115.31" y="-39" font-family="Helvetica,sans-Serif" font-size="10.00"> cur_line</text>
</g>
<!-- Node8&#45;&gt;Node7 -->
<g id="edge7" class="edge">
<title>Node8&#45;&gt;Node7</title>
<path fill="none" stroke="midnightblue" d="M59.73,-121.39C67.16,-109.08 76.84,-93.03 82.56,-83.54"/>
<polygon fill="midnightblue" stroke="midnightblue" points="56.54,-119.89 54.38,-130.26 62.54,-123.51 56.54,-119.89"/>
</g>
</g>
</svg>
