<?xml version="1.0" encoding="UTF-8" standalone="no"?>
<!DOCTYPE svg PUBLIC "-//W3C//DTD SVG 1.1//EN"
 "http://www.w3.org/Graphics/SVG/1.1/DTD/svg11.dtd">
<!-- Generated by graphviz version 2.42.3 (20191010.1750)
 -->
<!-- Title: txmath.cpp Pages: 1 -->
<svg width="711pt" height="742pt"
 viewBox="0.00 0.00 710.90 742.00" xmlns="http://www.w3.org/2000/svg" xmlns:xlink="http://www.w3.org/1999/xlink">
<g id="graph0" class="graph" transform="scale(1 1) rotate(0) translate(4 738)">
<title>txmath.cpp</title>
<!-- Node1 -->
<g id="node1" class="node">
<title>Node1</title>
<g id="a_node1"><a xlink:title=" ">
<polygon fill="#bfbfbf" stroke="black" points="399.54,-715.5 399.54,-733.5 464.46,-733.5 464.46,-715.5 399.54,-715.5"/>
<text text-anchor="middle" x="432" y="-721.5" font-family="Helvetica,sans-Serif" font-size="10.00">txmath.cpp</text>
</a>
</g>
</g>
<!-- Node2 -->
<g id="node2" class="node">
<title>Node2</title>
<g id="a_node2"><a xlink:href="../../df/d79/txmath_8h.html" target="_top" xlink:title=" ">
<polygon fill="none" stroke="black" points="479.83,-660.5 479.83,-678.5 534.17,-678.5 534.17,-660.5 479.83,-660.5"/>
<text text-anchor="middle" x="507" y="-666.5" font-family="Helvetica,sans-Serif" font-size="10.00">txmath.h</text>
</a>
</g>
</g>
<!-- Node1&#45;&gt;Node2 -->
<g id="edge1" class="edge">
<title>Node1&#45;&gt;Node2</title>
<path fill="none" stroke="midnightblue" d="M443.39,-715.45C454.95,-707.28 473.09,-694.46 487.05,-684.6"/>
<polygon fill="midnightblue" stroke="midnightblue" points="489.36,-687.25 495.5,-678.63 485.32,-681.54 489.36,-687.25"/>
</g>
<!-- Node26 -->
<g id="node26" class="node">
<title>Node26</title>
<g id="a_node26"><a xlink:href="../../d5/d87/globals_8h.html" target="_top" xlink:title=" ">
<polygon fill="none" stroke="black" points="141.54,-275.5 141.54,-293.5 226.46,-293.5 226.46,-275.5 141.54,-275.5"/>
<text text-anchor="middle" x="184" y="-281.5" font-family="Helvetica,sans-Serif" font-size="10.00">tralics/globals.h</text>
</a>
</g>
</g>
<!-- Node1&#45;&gt;Node26 -->
<g id="edge30" class="edge">
<title>Node1&#45;&gt;Node26</title>
<path fill="none" stroke="midnightblue" d="M399.53,-722.35C299.06,-717.92 0,-697.83 0,-615.5 0,-615.5 0,-615.5 0,-393.5 0,-332.13 77.08,-304.96 131.46,-293.43"/>
<polygon fill="midnightblue" stroke="midnightblue" points="132.21,-296.85 141.32,-291.45 130.83,-289.98 132.21,-296.85"/>
</g>
<!-- Node27 -->
<g id="node27" class="node">
<title>Node27</title>
<g id="a_node27"><a xlink:href="../../d7/d79/txinline_8h.html" target="_top" xlink:title=" ">
<polygon fill="none" stroke="black" points="176.27,-660.5 176.27,-678.5 231.73,-678.5 231.73,-660.5 176.27,-660.5"/>
<text text-anchor="middle" x="204" y="-666.5" font-family="Helvetica,sans-Serif" font-size="10.00">txinline.h</text>
</a>
</g>
</g>
<!-- Node1&#45;&gt;Node27 -->
<g id="edge36" class="edge">
<title>Node1&#45;&gt;Node27</title>
<path fill="none" stroke="midnightblue" d="M399.33,-715.91C357.73,-706.23 285.96,-689.55 241.96,-679.32"/>
<polygon fill="midnightblue" stroke="midnightblue" points="242.48,-675.85 231.94,-677 240.89,-682.67 242.48,-675.85"/>
</g>
<!-- Node34 -->
<g id="node34" class="node">
<title>Node34</title>
<g id="a_node34"><a xlink:href="../../d2/d1b/txparser_8h.html" target="_top" xlink:title=" ">
<polygon fill="none" stroke="black" points="402.04,-660.5 402.04,-678.5 461.96,-678.5 461.96,-660.5 402.04,-660.5"/>
<text text-anchor="middle" x="432" y="-666.5" font-family="Helvetica,sans-Serif" font-size="10.00">txparser.h</text>
</a>
</g>
</g>
<!-- Node1&#45;&gt;Node34 -->
<g id="edge47" class="edge">
<title>Node1&#45;&gt;Node34</title>
<path fill="none" stroke="midnightblue" d="M432,-715.22C432,-708.18 432,-697.81 432,-688.83"/>
<polygon fill="midnightblue" stroke="midnightblue" points="435.5,-688.55 432,-678.55 428.5,-688.55 435.5,-688.55"/>
</g>
<!-- Node43 -->
<g id="node43" class="node">
<title>Node43</title>
<g id="a_node43"><a xlink:title=" ">
<polygon fill="none" stroke="#bfbfbf" points="552.44,-660.5 552.44,-678.5 609.56,-678.5 609.56,-660.5 552.44,-660.5"/>
<text text-anchor="middle" x="581" y="-666.5" font-family="Helvetica,sans-Serif" font-size="10.00">algorithm</text>
</a>
</g>
</g>
<!-- Node1&#45;&gt;Node43 -->
<g id="edge65" class="edge">
<title>Node1&#45;&gt;Node43</title>
<path fill="none" stroke="midnightblue" d="M454.63,-715.45C479.68,-706.54 520.27,-692.1 548.67,-682"/>
<polygon fill="midnightblue" stroke="midnightblue" points="549.91,-685.27 558.16,-678.63 547.56,-678.68 549.91,-685.27"/>
</g>
<!-- Node3 -->
<g id="node3" class="node">
<title>Node3</title>
<g id="a_node3"><a xlink:href="../../d1/d43/txxml_8h.html" target="_top" xlink:title=" ">
<polygon fill="none" stroke="black" points="587.17,-550.5 587.17,-568.5 634.83,-568.5 634.83,-550.5 587.17,-550.5"/>
<text text-anchor="middle" x="611" y="-556.5" font-family="Helvetica,sans-Serif" font-size="10.00">txxml.h</text>
</a>
</g>
</g>
<!-- Node2&#45;&gt;Node3 -->
<g id="edge2" class="edge">
<title>Node2&#45;&gt;Node3</title>
<path fill="none" stroke="midnightblue" d="M534.19,-661.96C565.36,-653.84 613.51,-639.21 624,-624 633.46,-610.28 627.63,-591.19 621.03,-577.53"/>
<polygon fill="midnightblue" stroke="midnightblue" points="624.1,-575.86 616.3,-568.7 617.93,-579.17 624.1,-575.86"/>
</g>
<!-- Node4 -->
<g id="node4" class="node">
<title>Node4</title>
<g id="a_node4"><a xlink:href="../../dc/def/txstring_8h.html" target="_top" xlink:title=" ">
<polygon fill="none" stroke="black" points="437.71,-495.5 437.71,-513.5 494.29,-513.5 494.29,-495.5 437.71,-495.5"/>
<text text-anchor="middle" x="466" y="-501.5" font-family="Helvetica,sans-Serif" font-size="10.00">txstring.h</text>
</a>
</g>
</g>
<!-- Node3&#45;&gt;Node4 -->
<g id="edge3" class="edge">
<title>Node3&#45;&gt;Node4</title>
<path fill="none" stroke="midnightblue" d="M588.98,-550.45C564.71,-541.58 525.45,-527.23 497.83,-517.13"/>
<polygon fill="midnightblue" stroke="midnightblue" points="498.82,-513.77 488.23,-513.63 496.42,-520.35 498.82,-513.77"/>
</g>
<!-- Node25 -->
<g id="node25" class="node">
<title>Node25</title>
<g id="a_node25"><a xlink:title=" ">
<polygon fill="none" stroke="#bfbfbf" points="572.38,-220.5 572.38,-238.5 615.62,-238.5 615.62,-220.5 572.38,-220.5"/>
<text text-anchor="middle" x="594" y="-226.5" font-family="Helvetica,sans-Serif" font-size="10.00">vector</text>
</a>
</g>
</g>
<!-- Node3&#45;&gt;Node25 -->
<g id="edge29" class="edge">
<title>Node3&#45;&gt;Node25</title>
<path fill="none" stroke="midnightblue" d="M612.27,-550.39C614.96,-532.45 621,-487.97 621,-450.5 621,-450.5 621,-450.5 621,-338.5 621,-305.91 609.29,-269.4 601.29,-248.27"/>
<polygon fill="midnightblue" stroke="midnightblue" points="604.45,-246.75 597.53,-238.73 597.94,-249.31 604.45,-246.75"/>
</g>
<!-- Node5 -->
<g id="node5" class="node">
<title>Node5</title>
<g id="a_node5"><a xlink:href="../../dd/d74/txbuffer_8h.html" target="_top" xlink:title=" ">
<polygon fill="none" stroke="black" points="427.52,-440.5 427.52,-458.5 484.48,-458.5 484.48,-440.5 427.52,-440.5"/>
<text text-anchor="middle" x="456" y="-446.5" font-family="Helvetica,sans-Serif" font-size="10.00">txbuffer.h</text>
</a>
</g>
</g>
<!-- Node4&#45;&gt;Node5 -->
<g id="edge4" class="edge">
<title>Node4&#45;&gt;Node5</title>
<path fill="none" stroke="midnightblue" d="M464.44,-495.22C463.09,-488.1 461.11,-477.58 459.4,-468.53"/>
<polygon fill="midnightblue" stroke="midnightblue" points="462.81,-467.73 457.52,-458.55 455.93,-469.03 462.81,-467.73"/>
</g>
<!-- Node6 -->
<g id="node6" class="node">
<title>Node6</title>
<g id="a_node6"><a xlink:href="../../d1/d9e/txid_8h.html" target="_top" xlink:title=" ">
<polygon fill="none" stroke="black" points="431.05,-330.5 431.05,-348.5 470.95,-348.5 470.95,-330.5 431.05,-330.5"/>
<text text-anchor="middle" x="451" y="-336.5" font-family="Helvetica,sans-Serif" font-size="10.00">txid.h</text>
</a>
</g>
</g>
<!-- Node5&#45;&gt;Node6 -->
<g id="edge5" class="edge">
<title>Node5&#45;&gt;Node6</title>
<path fill="none" stroke="midnightblue" d="M455.62,-440.38C454.83,-423.18 452.95,-382.7 451.85,-358.89"/>
<polygon fill="midnightblue" stroke="midnightblue" points="455.34,-358.54 451.38,-348.71 448.35,-358.86 455.34,-358.54"/>
</g>
<!-- Node16 -->
<g id="node16" class="node">
<title>Node16</title>
<g id="a_node16"><a xlink:href="../../d9/d18/txscaled_8h.html" target="_top" xlink:title=" ">
<polygon fill="none" stroke="black" points="355.49,-385.5 355.49,-403.5 416.51,-403.5 416.51,-385.5 355.49,-385.5"/>
<text text-anchor="middle" x="386" y="-391.5" font-family="Helvetica,sans-Serif" font-size="10.00">txscaled.h</text>
</a>
</g>
</g>
<!-- Node5&#45;&gt;Node16 -->
<g id="edge16" class="edge">
<title>Node5&#45;&gt;Node16</title>
<path fill="none" stroke="midnightblue" d="M445.37,-440.45C434.68,-432.36 417.97,-419.7 405,-409.88"/>
<polygon fill="midnightblue" stroke="midnightblue" points="406.82,-406.87 396.73,-403.63 402.59,-412.45 406.82,-406.87"/>
</g>
<!-- Node24 -->
<g id="node24" class="node">
<title>Node24</title>
<g id="a_node24"><a xlink:title=" ">
<polygon fill="none" stroke="#bfbfbf" points="479.27,-385.5 479.27,-403.5 524.73,-403.5 524.73,-385.5 479.27,-385.5"/>
<text text-anchor="middle" x="502" y="-391.5" font-family="Helvetica,sans-Serif" font-size="10.00">cstring</text>
</a>
</g>
</g>
<!-- Node5&#45;&gt;Node24 -->
<g id="edge27" class="edge">
<title>Node5&#45;&gt;Node24</title>
<path fill="none" stroke="midnightblue" d="M463.19,-440.22C469.91,-432.47 480.13,-420.7 488.39,-411.18"/>
<polygon fill="midnightblue" stroke="midnightblue" points="491.1,-413.4 495.01,-403.55 485.82,-408.81 491.1,-413.4"/>
</g>
<!-- Node5&#45;&gt;Node25 -->
<g id="edge28" class="edge">
<title>Node5&#45;&gt;Node25</title>
<path fill="none" stroke="midnightblue" d="M479.13,-440.47C496.46,-433.36 519.56,-421.4 534,-404 572.96,-357.05 587.2,-283.3 591.91,-249.08"/>
<polygon fill="midnightblue" stroke="midnightblue" points="595.44,-249.1 593.2,-238.74 588.49,-248.23 595.44,-249.1"/>
</g>
<!-- Node7 -->
<g id="node7" class="node">
<title>Node7</title>
<g id="a_node7"><a xlink:href="../../d5/daf/_istring_8h.html" target="_top" xlink:title=" ">
<polygon fill="none" stroke="black" points="338.77,-275.5 338.77,-293.5 419.23,-293.5 419.23,-275.5 338.77,-275.5"/>
<text text-anchor="middle" x="379" y="-281.5" font-family="Helvetica,sans-Serif" font-size="10.00">tralics/Istring.h</text>
</a>
</g>
</g>
<!-- Node6&#45;&gt;Node7 -->
<g id="edge6" class="edge">
<title>Node6&#45;&gt;Node7</title>
<path fill="none" stroke="midnightblue" d="M440.06,-330.45C428.96,-322.28 411.55,-309.46 398.15,-299.6"/>
<polygon fill="midnightblue" stroke="midnightblue" points="400.17,-296.73 390.04,-293.63 396.02,-302.37 400.17,-296.73"/>
</g>
<!-- Node15 -->
<g id="node15" class="node">
<title>Node15</title>
<g id="a_node15"><a xlink:title=" ">
<polygon fill="none" stroke="#bfbfbf" points="306.77,-220.5 306.77,-238.5 347.23,-238.5 347.23,-220.5 306.77,-220.5"/>
<text text-anchor="middle" x="327" y="-226.5" font-family="Helvetica,sans-Serif" font-size="10.00">string</text>
</a>
</g>
</g>
<!-- Node6&#45;&gt;Node15 -->
<g id="edge15" class="edge">
<title>Node6&#45;&gt;Node15</title>
<path fill="none" stroke="midnightblue" d="M450.12,-330.43C448.29,-317.23 442.89,-290.93 428,-275 417.85,-264.14 382.89,-250.09 356.94,-240.72"/>
<polygon fill="midnightblue" stroke="midnightblue" points="358.09,-237.41 347.5,-237.37 355.75,-244.01 358.09,-237.41"/>
</g>
<!-- Node8 -->
<g id="node8" class="node">
<title>Node8</title>
<g id="a_node8"><a xlink:href="../../d0/d0b/enums_8h.html" target="_top" xlink:title=" ">
<polygon fill="none" stroke="black" points="397.82,-165.5 397.82,-183.5 452.18,-183.5 452.18,-165.5 397.82,-165.5"/>
<text text-anchor="middle" x="425" y="-171.5" font-family="Helvetica,sans-Serif" font-size="10.00">enums.h</text>
</a>
</g>
</g>
<!-- Node7&#45;&gt;Node8 -->
<g id="edge7" class="edge">
<title>Node7&#45;&gt;Node8</title>
<path fill="none" stroke="midnightblue" d="M396.25,-275.49C409.83,-268.13 427.8,-255.81 436,-239 443.05,-224.56 438.73,-206.34 433.57,-193.12"/>
<polygon fill="midnightblue" stroke="midnightblue" points="436.69,-191.51 429.46,-183.76 430.28,-194.33 436.69,-191.51"/>
</g>
<!-- Node14 -->
<g id="node14" class="node">
<title>Node14</title>
<g id="a_node14"><a xlink:title=" ">
<polygon fill="none" stroke="#bfbfbf" points="249.61,-220.5 249.61,-238.5 288.39,-238.5 288.39,-220.5 249.61,-220.5"/>
<text text-anchor="middle" x="269" y="-226.5" font-family="Helvetica,sans-Serif" font-size="10.00">array</text>
</a>
</g>
</g>
<!-- Node7&#45;&gt;Node14 -->
<g id="edge13" class="edge">
<title>Node7&#45;&gt;Node14</title>
<path fill="none" stroke="midnightblue" d="M362.29,-275.45C344.44,-266.85 315.92,-253.1 295.1,-243.08"/>
<polygon fill="midnightblue" stroke="midnightblue" points="296.39,-239.81 285.86,-238.63 293.35,-246.12 296.39,-239.81"/>
</g>
<!-- Node7&#45;&gt;Node15 -->
<g id="edge14" class="edge">
<title>Node7&#45;&gt;Node15</title>
<path fill="none" stroke="midnightblue" d="M370.88,-275.22C363.2,-267.39 351.49,-255.46 342.1,-245.89"/>
<polygon fill="midnightblue" stroke="midnightblue" points="344.4,-243.24 334.9,-238.55 339.4,-248.14 344.4,-243.24"/>
</g>
<!-- Node9 -->
<g id="node9" class="node">
<title>Node9</title>
<g id="a_node9"><a xlink:href="../../d8/db5/consts_8h.html" target="_top" xlink:title=" ">
<polygon fill="none" stroke="black" points="398.38,-110.5 398.38,-128.5 451.62,-128.5 451.62,-110.5 398.38,-110.5"/>
<text text-anchor="middle" x="425" y="-116.5" font-family="Helvetica,sans-Serif" font-size="10.00">consts.h</text>
</a>
</g>
</g>
<!-- Node8&#45;&gt;Node9 -->
<g id="edge8" class="edge">
<title>Node8&#45;&gt;Node9</title>
<path fill="none" stroke="midnightblue" d="M425,-165.22C425,-158.18 425,-147.81 425,-138.83"/>
<polygon fill="midnightblue" stroke="midnightblue" points="428.5,-138.55 425,-128.55 421.5,-138.55 428.5,-138.55"/>
</g>
<!-- Node10 -->
<g id="node10" class="node">
<title>Node10</title>
<g id="a_node10"><a xlink:href="../../d9/d49/types_8h.html" target="_top" xlink:title=" ">
<polygon fill="none" stroke="black" points="372.88,-55.5 372.88,-73.5 421.12,-73.5 421.12,-55.5 372.88,-55.5"/>
<text text-anchor="middle" x="397" y="-61.5" font-family="Helvetica,sans-Serif" font-size="10.00">types.h</text>
</a>
</g>
</g>
<!-- Node9&#45;&gt;Node10 -->
<g id="edge9" class="edge">
<title>Node9&#45;&gt;Node10</title>
<path fill="none" stroke="midnightblue" d="M420.62,-110.22C416.74,-102.86 410.94,-91.88 406.05,-82.64"/>
<polygon fill="midnightblue" stroke="midnightblue" points="409.02,-80.76 401.25,-73.55 402.83,-84.03 409.02,-80.76"/>
</g>
<!-- Node11 -->
<g id="node11" class="node">
<title>Node11</title>
<g id="a_node11"><a xlink:title=" ">
<polygon fill="none" stroke="#bfbfbf" points="306.88,-0.5 306.88,-18.5 355.12,-18.5 355.12,-0.5 306.88,-0.5"/>
<text text-anchor="middle" x="331" y="-6.5" font-family="Helvetica,sans-Serif" font-size="10.00">cassert</text>
</a>
</g>
</g>
<!-- Node10&#45;&gt;Node11 -->
<g id="edge10" class="edge">
<title>Node10&#45;&gt;Node11</title>
<path fill="none" stroke="midnightblue" d="M386.98,-55.45C376.99,-47.43 361.44,-34.95 349.26,-25.17"/>
<polygon fill="midnightblue" stroke="midnightblue" points="351.11,-22.16 341.12,-18.63 346.72,-27.62 351.11,-22.16"/>
</g>
<!-- Node12 -->
<g id="node12" class="node">
<title>Node12</title>
<g id="a_node12"><a xlink:title=" ">
<polygon fill="none" stroke="#bfbfbf" points="372.88,-0.5 372.88,-18.5 421.12,-18.5 421.12,-0.5 372.88,-0.5"/>
<text text-anchor="middle" x="397" y="-6.5" font-family="Helvetica,sans-Serif" font-size="10.00">cstddef</text>
</a>
</g>
</g>
<!-- Node10&#45;&gt;Node12 -->
<g id="edge11" class="edge">
<title>Node10&#45;&gt;Node12</title>
<path fill="none" stroke="midnightblue" d="M397,-55.22C397,-48.18 397,-37.81 397,-28.83"/>
<polygon fill="midnightblue" stroke="midnightblue" points="400.5,-28.55 397,-18.55 393.5,-28.55 400.5,-28.55"/>
</g>
<!-- Node13 -->
<g id="node13" class="node">
<title>Node13</title>
<g id="a_node13"><a xlink:title=" ">
<polygon fill="none" stroke="#bfbfbf" points="438.93,-0.5 438.93,-18.5 501.07,-18.5 501.07,-0.5 438.93,-0.5"/>
<text text-anchor="middle" x="470" y="-6.5" font-family="Helvetica,sans-Serif" font-size="10.00">type_traits</text>
</a>
</g>
</g>
<!-- Node10&#45;&gt;Node13 -->
<g id="edge12" class="edge">
<title>Node10&#45;&gt;Node13</title>
<path fill="none" stroke="midnightblue" d="M408.09,-55.45C419.34,-47.28 437,-34.46 450.58,-24.6"/>
<polygon fill="midnightblue" stroke="midnightblue" points="452.77,-27.33 458.81,-18.63 448.66,-21.67 452.77,-27.33"/>
</g>
<!-- Node17 -->
<g id="node17" class="node">
<title>Node17</title>
<g id="a_node17"><a xlink:href="../../dc/d91/txtokenlist_8h.html" target="_top" xlink:title=" ">
<polygon fill="none" stroke="black" points="344.6,-330.5 344.6,-348.5 413.4,-348.5 413.4,-330.5 344.6,-330.5"/>
<text text-anchor="middle" x="379" y="-336.5" font-family="Helvetica,sans-Serif" font-size="10.00">txtokenlist.h</text>
</a>
</g>
</g>
<!-- Node16&#45;&gt;Node17 -->
<g id="edge17" class="edge">
<title>Node16&#45;&gt;Node17</title>
<path fill="none" stroke="midnightblue" d="M384.91,-385.22C383.97,-378.1 382.58,-367.58 381.38,-358.53"/>
<polygon fill="midnightblue" stroke="midnightblue" points="384.84,-358.01 380.06,-348.55 377.9,-358.92 384.84,-358.01"/>
</g>
<!-- Node17&#45;&gt;Node7 -->
<g id="edge18" class="edge">
<title>Node17&#45;&gt;Node7</title>
<path fill="none" stroke="midnightblue" d="M379,-330.22C379,-323.18 379,-312.81 379,-303.83"/>
<polygon fill="midnightblue" stroke="midnightblue" points="382.5,-303.55 379,-293.55 375.5,-303.55 382.5,-303.55"/>
</g>
<!-- Node18 -->
<g id="node18" class="node">
<title>Node18</title>
<g id="a_node18"><a xlink:href="../../dd/dcd/_token_8h.html" target="_top" xlink:title=" ">
<polygon fill="none" stroke="black" points="475.04,-275.5 475.04,-293.5 554.96,-293.5 554.96,-275.5 475.04,-275.5"/>
<text text-anchor="middle" x="515" y="-281.5" font-family="Helvetica,sans-Serif" font-size="10.00">tralics/Token.h</text>
</a>
</g>
</g>
<!-- Node17&#45;&gt;Node18 -->
<g id="edge19" class="edge">
<title>Node17&#45;&gt;Node18</title>
<path fill="none" stroke="midnightblue" d="M399.66,-330.45C422.32,-321.62 458.92,-307.35 484.81,-297.27"/>
<polygon fill="midnightblue" stroke="midnightblue" points="486.1,-300.52 494.15,-293.63 483.56,-294 486.1,-300.52"/>
</g>
<!-- Node23 -->
<g id="node23" class="node">
<title>Node23</title>
<g id="a_node23"><a xlink:title=" ">
<polygon fill="none" stroke="#bfbfbf" points="281.61,-275.5 281.61,-293.5 320.39,-293.5 320.39,-275.5 281.61,-275.5"/>
<text text-anchor="middle" x="301" y="-281.5" font-family="Helvetica,sans-Serif" font-size="10.00">utility</text>
</a>
</g>
</g>
<!-- Node17&#45;&gt;Node23 -->
<g id="edge26" class="edge">
<title>Node17&#45;&gt;Node23</title>
<path fill="none" stroke="midnightblue" d="M367.15,-330.45C355.01,-322.2 335.9,-309.22 321.34,-299.32"/>
<polygon fill="midnightblue" stroke="midnightblue" points="323.2,-296.35 312.96,-293.63 319.26,-302.14 323.2,-296.35"/>
</g>
<!-- Node19 -->
<g id="node19" class="node">
<title>Node19</title>
<g id="a_node19"><a xlink:href="../../d2/d68/_cmd_chr_8h.html" target="_top" xlink:title=" ">
<polygon fill="none" stroke="black" points="365.49,-220.5 365.49,-238.5 426.51,-238.5 426.51,-220.5 365.49,-220.5"/>
<text text-anchor="middle" x="396" y="-226.5" font-family="Helvetica,sans-Serif" font-size="10.00">CmdChr.h</text>
</a>
</g>
</g>
<!-- Node18&#45;&gt;Node19 -->
<g id="edge20" class="edge">
<title>Node18&#45;&gt;Node19</title>
<path fill="none" stroke="midnightblue" d="M496.93,-275.45C477.44,-266.77 446.19,-252.86 423.63,-242.8"/>
<polygon fill="midnightblue" stroke="midnightblue" points="424.8,-239.5 414.24,-238.63 421.95,-245.89 424.8,-239.5"/>
</g>
<!-- Node22 -->
<g id="node22" class="node">
<title>Node22</title>
<g id="a_node22"><a xlink:title=" ">
<polygon fill="none" stroke="#bfbfbf" points="500.5,-220.5 500.5,-238.5 529.5,-238.5 529.5,-220.5 500.5,-220.5"/>
<text text-anchor="middle" x="514.61" y="-226.5" font-family="Helvetica,sans-Serif" font-size="10.00">list</text>
</a>
</g>
</g>
<!-- Node18&#45;&gt;Node22 -->
<g id="edge25" class="edge">
<title>Node18&#45;&gt;Node22</title>
<path fill="none" stroke="midnightblue" d="M515,-275.22C515,-268.18 515,-257.81 515,-248.83"/>
<polygon fill="midnightblue" stroke="midnightblue" points="518.5,-248.55 515,-238.55 511.5,-248.55 518.5,-248.55"/>
</g>
<!-- Node19&#45;&gt;Node8 -->
<g id="edge24" class="edge">
<title>Node19&#45;&gt;Node8</title>
<path fill="none" stroke="midnightblue" d="M400.53,-220.22C404.6,-212.79 410.69,-201.65 415.78,-192.34"/>
<polygon fill="midnightblue" stroke="midnightblue" points="418.87,-194 420.6,-183.55 412.72,-190.64 418.87,-194"/>
</g>
<!-- Node20 -->
<g id="node20" class="node">
<title>Node20</title>
<g id="a_node20"><a xlink:href="../../d8/d47/codepoint_8h.html" target="_top" xlink:title=" ">
<polygon fill="none" stroke="black" points="297.15,-165.5 297.15,-183.5 364.85,-183.5 364.85,-165.5 297.15,-165.5"/>
<text text-anchor="middle" x="331" y="-171.5" font-family="Helvetica,sans-Serif" font-size="10.00">codepoint.h</text>
</a>
</g>
</g>
<!-- Node19&#45;&gt;Node20 -->
<g id="edge21" class="edge">
<title>Node19&#45;&gt;Node20</title>
<path fill="none" stroke="midnightblue" d="M386.13,-220.45C376.3,-212.43 360.98,-199.95 348.99,-190.17"/>
<polygon fill="midnightblue" stroke="midnightblue" points="350.93,-187.23 340.97,-183.63 346.5,-192.66 350.93,-187.23"/>
</g>
<!-- Node20&#45;&gt;Node10 -->
<g id="edge22" class="edge">
<title>Node20&#45;&gt;Node10</title>
<path fill="none" stroke="midnightblue" d="M335.96,-165.38C346.71,-147.79 372.34,-105.85 386.74,-82.29"/>
<polygon fill="midnightblue" stroke="midnightblue" points="389.75,-84.07 391.98,-73.71 383.78,-80.42 389.75,-84.07"/>
</g>
<!-- Node21 -->
<g id="node21" class="node">
<title>Node21</title>
<g id="a_node21"><a xlink:title=" ">
<polygon fill="none" stroke="#bfbfbf" points="290.49,-110.5 290.49,-128.5 341.51,-128.5 341.51,-110.5 290.49,-110.5"/>
<text text-anchor="middle" x="316" y="-116.5" font-family="Helvetica,sans-Serif" font-size="10.00">optional</text>
</a>
</g>
</g>
<!-- Node20&#45;&gt;Node21 -->
<g id="edge23" class="edge">
<title>Node20&#45;&gt;Node21</title>
<path fill="none" stroke="midnightblue" d="M328.66,-165.22C326.62,-158.02 323.6,-147.35 321.02,-138.23"/>
<polygon fill="midnightblue" stroke="midnightblue" points="324.37,-137.22 318.28,-128.55 317.63,-139.12 324.37,-137.22"/>
</g>
<!-- Node26&#45;&gt;Node8 -->
<g id="edge32" class="edge">
<title>Node26&#45;&gt;Node8</title>
<path fill="none" stroke="midnightblue" d="M188.87,-275.46C197.56,-261.83 217.09,-234.28 241,-220 265.46,-205.39 341.19,-190.16 387.52,-181.85"/>
<polygon fill="midnightblue" stroke="midnightblue" points="388.26,-185.27 397.5,-180.08 387.04,-178.38 388.26,-185.27"/>
</g>
<!-- Node26&#45;&gt;Node14 -->
<g id="edge33" class="edge">
<title>Node26&#45;&gt;Node14</title>
<path fill="none" stroke="midnightblue" d="M196.91,-275.45C210.26,-267.12 231.36,-253.97 247.29,-244.04"/>
<polygon fill="midnightblue" stroke="midnightblue" points="249.34,-246.89 255.97,-238.63 245.63,-240.95 249.34,-246.89"/>
</g>
<!-- Node26&#45;&gt;Node15 -->
<g id="edge34" class="edge">
<title>Node26&#45;&gt;Node15</title>
<path fill="none" stroke="midnightblue" d="M205.72,-275.45C230.07,-266.42 269.73,-251.73 297.02,-241.61"/>
<polygon fill="midnightblue" stroke="midnightblue" points="298.31,-244.87 306.47,-238.11 295.88,-238.3 298.31,-244.87"/>
</g>
<!-- Node26&#45;&gt;Node20 -->
<g id="edge31" class="edge">
<title>Node26&#45;&gt;Node20</title>
<path fill="none" stroke="midnightblue" d="M184.9,-275.31C186.79,-261.94 192.39,-235.39 208,-220 229.27,-199.03 261.16,-187.86 287.13,-181.96"/>
<polygon fill="midnightblue" stroke="midnightblue" points="288.05,-185.34 297.13,-179.87 286.62,-178.49 288.05,-185.34"/>
</g>
<!-- Node26&#45;&gt;Node25 -->
<g id="edge35" class="edge">
<title>Node26&#45;&gt;Node25</title>
<path fill="none" stroke="midnightblue" d="M226.68,-278.55C293.39,-270.72 426.43,-254.75 539,-239 546.57,-237.94 554.7,-236.73 562.34,-235.55"/>
<polygon fill="midnightblue" stroke="midnightblue" points="563,-238.99 572.34,-233.99 561.92,-232.07 563,-238.99"/>
</g>
<!-- Node28 -->
<g id="node28" class="node">
<title>Node28</title>
<g id="a_node28"><a xlink:href="../../d4/de9/_main_class_8h.html" target="_top" xlink:title=" ">
<polygon fill="none" stroke="black" points="222.04,-605.5 222.04,-623.5 321.96,-623.5 321.96,-605.5 222.04,-605.5"/>
<text text-anchor="middle" x="272" y="-611.5" font-family="Helvetica,sans-Serif" font-size="10.00">tralics/MainClass.h</text>
</a>
</g>
</g>
<!-- Node27&#45;&gt;Node28 -->
<g id="edge37" class="edge">
<title>Node27&#45;&gt;Node28</title>
<path fill="none" stroke="midnightblue" d="M214.33,-660.45C224.71,-652.36 240.95,-639.7 253.55,-629.88"/>
<polygon fill="midnightblue" stroke="midnightblue" points="255.84,-632.53 261.58,-623.63 251.54,-627.01 255.84,-632.53"/>
</g>
<!-- Node31 -->
<g id="node31" class="node">
<title>Node31</title>
<g id="a_node31"><a xlink:href="../../d2/d06/txlogger_8h.html" target="_top" xlink:title=" ">
<polygon fill="none" stroke="black" points="28.32,-605.5 28.32,-623.5 87.68,-623.5 87.68,-605.5 28.32,-605.5"/>
<text text-anchor="middle" x="58" y="-611.5" font-family="Helvetica,sans-Serif" font-size="10.00">txlogger.h</text>
</a>
</g>
</g>
<!-- Node27&#45;&gt;Node31 -->
<g id="edge42" class="edge">
<title>Node27&#45;&gt;Node31</title>
<path fill="none" stroke="midnightblue" d="M181.83,-660.45C157.39,-651.58 117.86,-637.23 90.05,-627.13"/>
<polygon fill="midnightblue" stroke="midnightblue" points="90.98,-623.75 80.38,-623.63 88.59,-630.33 90.98,-623.75"/>
</g>
<!-- Node33 -->
<g id="node33" class="node">
<title>Node33</title>
<g id="a_node33"><a xlink:href="../../d5/d08/txparam_8h.html" target="_top" xlink:title=" ">
<polygon fill="none" stroke="black" points="105.77,-605.5 105.77,-623.5 166.23,-623.5 166.23,-605.5 105.77,-605.5"/>
<text text-anchor="middle" x="136" y="-611.5" font-family="Helvetica,sans-Serif" font-size="10.00">txparam.h</text>
</a>
</g>
</g>
<!-- Node27&#45;&gt;Node33 -->
<g id="edge45" class="edge">
<title>Node27&#45;&gt;Node33</title>
<path fill="none" stroke="midnightblue" d="M193.67,-660.45C183.29,-652.36 167.05,-639.7 154.45,-629.88"/>
<polygon fill="midnightblue" stroke="midnightblue" points="156.46,-627.01 146.42,-623.63 152.16,-632.53 156.46,-627.01"/>
</g>
<!-- Node28&#45;&gt;Node4 -->
<g id="edge41" class="edge">
<title>Node28&#45;&gt;Node4</title>
<path fill="none" stroke="midnightblue" d="M283.44,-605.33C301.4,-592.68 337.52,-567.93 370,-550 392.01,-537.85 417.93,-525.97 437.28,-517.54"/>
<polygon fill="midnightblue" stroke="midnightblue" points="438.68,-520.75 446.48,-513.59 435.91,-514.32 438.68,-520.75"/>
</g>
<!-- Node29 -->
<g id="node29" class="node">
<title>Node29</title>
<g id="a_node29"><a xlink:href="../../de/d29/txio_8h.html" target="_top" xlink:title=" ">
<polygon fill="none" stroke="black" points="169.88,-550.5 169.88,-568.5 218.12,-568.5 218.12,-550.5 169.88,-550.5"/>
<text text-anchor="middle" x="194" y="-556.5" font-family="Helvetica,sans-Serif" font-size="10.00">../txio.h</text>
</a>
</g>
</g>
<!-- Node28&#45;&gt;Node29 -->
<g id="edge38" class="edge">
<title>Node28&#45;&gt;Node29</title>
<path fill="none" stroke="midnightblue" d="M260.15,-605.45C248.01,-597.2 228.9,-584.22 214.34,-574.32"/>
<polygon fill="midnightblue" stroke="midnightblue" points="216.2,-571.35 205.96,-568.63 212.26,-577.14 216.2,-571.35"/>
</g>
<!-- Node29&#45;&gt;Node5 -->
<g id="edge39" class="edge">
<title>Node29&#45;&gt;Node5</title>
<path fill="none" stroke="midnightblue" d="M213.69,-550.38C259.51,-531.49 373.45,-484.53 427.14,-462.4"/>
<polygon fill="midnightblue" stroke="midnightblue" points="428.52,-465.61 436.44,-458.56 425.86,-459.14 428.52,-465.61"/>
</g>
<!-- Node30 -->
<g id="node30" class="node">
<title>Node30</title>
<g id="a_node30"><a xlink:title=" ">
<polygon fill="none" stroke="#bfbfbf" points="101.33,-495.5 101.33,-513.5 150.67,-513.5 150.67,-495.5 101.33,-495.5"/>
<text text-anchor="middle" x="126" y="-501.5" font-family="Helvetica,sans-Serif" font-size="10.00">fstream</text>
</a>
</g>
</g>
<!-- Node29&#45;&gt;Node30 -->
<g id="edge40" class="edge">
<title>Node29&#45;&gt;Node30</title>
<path fill="none" stroke="midnightblue" d="M183.67,-550.45C173.29,-542.36 157.05,-529.7 144.45,-519.88"/>
<polygon fill="midnightblue" stroke="midnightblue" points="146.46,-517.01 136.42,-513.63 142.16,-522.53 146.46,-517.01"/>
</g>
<!-- Node31&#45;&gt;Node30 -->
<g id="edge43" class="edge">
<title>Node31&#45;&gt;Node30</title>
<path fill="none" stroke="midnightblue" d="M59.05,-605.09C60.94,-592.34 65.84,-567.72 77,-550 84.39,-538.27 95.7,-527.71 105.59,-519.83"/>
<polygon fill="midnightblue" stroke="midnightblue" points="107.92,-522.45 113.78,-513.62 103.7,-516.87 107.92,-522.45"/>
</g>
<!-- Node32 -->
<g id="node32" class="node">
<title>Node32</title>
<g id="a_node32"><a xlink:title=" ">
<polygon fill="none" stroke="#bfbfbf" points="85.83,-550.5 85.83,-568.5 140.17,-568.5 140.17,-550.5 85.83,-550.5"/>
<text text-anchor="middle" x="113" y="-556.5" font-family="Helvetica,sans-Serif" font-size="10.00">iostream</text>
</a>
</g>
</g>
<!-- Node31&#45;&gt;Node32 -->
<g id="edge44" class="edge">
<title>Node31&#45;&gt;Node32</title>
<path fill="none" stroke="midnightblue" d="M66.59,-605.22C74.79,-597.32 87.34,-585.22 97.32,-575.61"/>
<polygon fill="midnightblue" stroke="midnightblue" points="99.87,-578.01 104.65,-568.55 95.02,-572.97 99.87,-578.01"/>
</g>
<!-- Node33&#45;&gt;Node29 -->
<g id="edge46" class="edge">
<title>Node33&#45;&gt;Node29</title>
<path fill="none" stroke="midnightblue" d="M145.06,-605.22C153.8,-597.24 167.21,-584.98 177.78,-575.32"/>
<polygon fill="midnightblue" stroke="midnightblue" points="180.17,-577.88 185.19,-568.55 175.45,-572.71 180.17,-577.88"/>
</g>
<!-- Node34&#45;&gt;Node29 -->
<g id="edge59" class="edge">
<title>Node34&#45;&gt;Node29</title>
<path fill="none" stroke="midnightblue" d="M401.68,-666.15C348.23,-661.4 240.28,-648.93 213,-624 200.53,-612.61 196.11,-593.41 194.62,-579.1"/>
<polygon fill="midnightblue" stroke="midnightblue" points="198.09,-578.66 193.94,-568.91 191.11,-579.12 198.09,-578.66"/>
</g>
<!-- Node35 -->
<g id="node35" class="node">
<title>Node35</title>
<g id="a_node35"><a xlink:href="../../d3/d6b/txcond_8h.html" target="_top" xlink:title=" ">
<polygon fill="none" stroke="black" points="649.1,-275.5 649.1,-293.5 702.9,-293.5 702.9,-275.5 649.1,-275.5"/>
<text text-anchor="middle" x="676" y="-281.5" font-family="Helvetica,sans-Serif" font-size="10.00">txcond.h</text>
</a>
</g>
</g>
<!-- Node34&#45;&gt;Node35 -->
<g id="edge48" class="edge">
<title>Node34&#45;&gt;Node35</title>
<path fill="none" stroke="midnightblue" d="M462.17,-661.75C515.34,-649.83 620.48,-626.08 624,-624 656.65,-604.71 681,-598.42 681,-560.5 681,-560.5 681,-560.5 681,-393.5 681,-361.98 678.85,-325.35 677.37,-303.87"/>
<polygon fill="midnightblue" stroke="midnightblue" points="680.84,-303.35 676.63,-293.62 673.86,-303.85 680.84,-303.35"/>
</g>
<!-- Node36 -->
<g id="node36" class="node">
<title>Node36</title>
<g id="a_node36"><a xlink:href="../../d7/d4d/txfonts_8h.html" target="_top" xlink:title=" ">
<polygon fill="none" stroke="black" points="449.1,-550.5 449.1,-568.5 502.9,-568.5 502.9,-550.5 449.1,-550.5"/>
<text text-anchor="middle" x="476" y="-556.5" font-family="Helvetica,sans-Serif" font-size="10.00">txfonts.h</text>
</a>
</g>
</g>
<!-- Node34&#45;&gt;Node36 -->
<g id="edge51" class="edge">
<title>Node34&#45;&gt;Node36</title>
<path fill="none" stroke="midnightblue" d="M435.31,-660.38C442.38,-643.03 459.11,-601.96 468.77,-578.24"/>
<polygon fill="midnightblue" stroke="midnightblue" points="472.12,-579.29 472.65,-568.71 465.64,-576.65 472.12,-579.29"/>
</g>
<!-- Node37 -->
<g id="node37" class="node">
<title>Node37</title>
<g id="a_node37"><a xlink:href="../../d7/d7e/txhash_8h.html" target="_top" xlink:title=" ">
<polygon fill="none" stroke="black" points="378.1,-605.5 378.1,-623.5 431.9,-623.5 431.9,-605.5 378.1,-605.5"/>
<text text-anchor="middle" x="405" y="-611.5" font-family="Helvetica,sans-Serif" font-size="10.00">txhash.h</text>
</a>
</g>
</g>
<!-- Node34&#45;&gt;Node37 -->
<g id="edge53" class="edge">
<title>Node34&#45;&gt;Node37</title>
<path fill="none" stroke="midnightblue" d="M427.78,-660.22C424.03,-652.86 418.44,-641.88 413.73,-632.64"/>
<polygon fill="midnightblue" stroke="midnightblue" points="416.76,-630.87 409.1,-623.55 410.52,-634.05 416.76,-630.87"/>
</g>
<!-- Node39 -->
<g id="node39" class="node">
<title>Node39</title>
<g id="a_node39"><a xlink:href="../../de/d7c/tximage_8h.html" target="_top" xlink:title=" ">
<polygon fill="none" stroke="black" points="267.32,-330.5 267.32,-348.5 326.68,-348.5 326.68,-330.5 267.32,-330.5"/>
<text text-anchor="middle" x="297" y="-336.5" font-family="Helvetica,sans-Serif" font-size="10.00">tximage.h</text>
</a>
</g>
</g>
<!-- Node34&#45;&gt;Node39 -->
<g id="edge56" class="edge">
<title>Node34&#45;&gt;Node39</title>
<path fill="none" stroke="midnightblue" d="M416.28,-660.46C402.37,-652.69 382.26,-639.79 369,-624 331.53,-579.4 313,-563.75 313,-505.5 313,-505.5 313,-505.5 313,-448.5 313,-416.53 306.05,-379.8 301.31,-358.46"/>
<polygon fill="midnightblue" stroke="midnightblue" points="304.69,-357.52 299.03,-348.57 297.87,-359.1 304.69,-357.52"/>
</g>
<!-- Node40 -->
<g id="node40" class="node">
<title>Node40</title>
<g id="a_node40"><a xlink:href="../../dc/d65/txstack_8h.html" target="_top" xlink:title=" ">
<polygon fill="none" stroke="black" points="488.27,-605.5 488.27,-623.5 543.73,-623.5 543.73,-605.5 488.27,-605.5"/>
<text text-anchor="middle" x="516" y="-611.5" font-family="Helvetica,sans-Serif" font-size="10.00">txstack.h</text>
</a>
</g>
</g>
<!-- Node34&#45;&gt;Node40 -->
<g id="edge60" class="edge">
<title>Node34&#45;&gt;Node40</title>
<path fill="none" stroke="midnightblue" d="M444.76,-660.45C457.96,-652.12 478.8,-638.97 494.54,-629.04"/>
<polygon fill="midnightblue" stroke="midnightblue" points="496.53,-631.92 503.12,-623.63 492.8,-626 496.53,-631.92"/>
</g>
<!-- Node42 -->
<g id="node42" class="node">
<title>Node42</title>
<g id="a_node42"><a xlink:href="../../d8/d3d/txstats_8h.html" target="_top" xlink:title=" ">
<polygon fill="none" stroke="black" points="561.38,-605.5 561.38,-623.5 614.62,-623.5 614.62,-605.5 561.38,-605.5"/>
<text text-anchor="middle" x="588" y="-611.5" font-family="Helvetica,sans-Serif" font-size="10.00">txstats.h</text>
</a>
</g>
</g>
<!-- Node34&#45;&gt;Node42 -->
<g id="edge64" class="edge">
<title>Node34&#45;&gt;Node42</title>
<path fill="none" stroke="midnightblue" d="M455.69,-660.45C482.11,-651.47 525.03,-636.89 554.79,-626.78"/>
<polygon fill="midnightblue" stroke="midnightblue" points="556,-630.07 564.34,-623.54 553.75,-623.44 556,-630.07"/>
</g>
<!-- Node35&#45;&gt;Node8 -->
<g id="edge49" class="edge">
<title>Node35&#45;&gt;Node8</title>
<path fill="none" stroke="midnightblue" d="M671.89,-275.41C664.5,-261.71 647.57,-234.04 625,-220 574.6,-188.65 504.94,-179.26 462.53,-176.52"/>
<polygon fill="midnightblue" stroke="midnightblue" points="462.54,-173.02 452.36,-175.96 462.16,-180.01 462.54,-173.02"/>
</g>
<!-- Node35&#45;&gt;Node25 -->
<g id="edge50" class="edge">
<title>Node35&#45;&gt;Node25</title>
<path fill="none" stroke="midnightblue" d="M663.55,-275.45C650.78,-267.2 630.69,-254.22 615.38,-244.32"/>
<polygon fill="midnightblue" stroke="midnightblue" points="616.87,-241.11 606.57,-238.63 613.07,-246.99 616.87,-241.11"/>
</g>
<!-- Node36&#45;&gt;Node4 -->
<g id="edge52" class="edge">
<title>Node36&#45;&gt;Node4</title>
<path fill="none" stroke="midnightblue" d="M474.44,-550.22C473.09,-543.1 471.11,-532.58 469.4,-523.53"/>
<polygon fill="midnightblue" stroke="midnightblue" points="472.81,-522.73 467.52,-513.55 465.93,-524.03 472.81,-522.73"/>
</g>
<!-- Node38 -->
<g id="node38" class="node">
<title>Node38</title>
<g id="a_node38"><a xlink:href="../../d3/d01/txeqtb_8h.html" target="_top" xlink:title=" ">
<polygon fill="none" stroke="black" points="379.21,-550.5 379.21,-568.5 430.79,-568.5 430.79,-550.5 379.21,-550.5"/>
<text text-anchor="middle" x="405" y="-556.5" font-family="Helvetica,sans-Serif" font-size="10.00">txeqtb.h</text>
</a>
</g>
</g>
<!-- Node37&#45;&gt;Node38 -->
<g id="edge54" class="edge">
<title>Node37&#45;&gt;Node38</title>
<path fill="none" stroke="midnightblue" d="M405,-605.22C405,-598.18 405,-587.81 405,-578.83"/>
<polygon fill="midnightblue" stroke="midnightblue" points="408.5,-578.55 405,-568.55 401.5,-578.55 408.5,-578.55"/>
</g>
<!-- Node38&#45;&gt;Node4 -->
<g id="edge55" class="edge">
<title>Node38&#45;&gt;Node4</title>
<path fill="none" stroke="midnightblue" d="M414.26,-550.45C423.4,-542.51 437.58,-530.19 448.79,-520.45"/>
<polygon fill="midnightblue" stroke="midnightblue" points="451.4,-522.83 456.65,-513.63 446.8,-517.54 451.4,-522.83"/>
</g>
<!-- Node39&#45;&gt;Node15 -->
<g id="edge57" class="edge">
<title>Node39&#45;&gt;Node15</title>
<path fill="none" stroke="midnightblue" d="M289.52,-330.11C279.49,-317.79 263.95,-294.19 273,-275 279.13,-262 291.14,-251.5 302.28,-243.98"/>
<polygon fill="midnightblue" stroke="midnightblue" points="304.27,-246.86 310.89,-238.59 300.56,-240.93 304.27,-246.86"/>
</g>
<!-- Node39&#45;&gt;Node23 -->
<g id="edge58" class="edge">
<title>Node39&#45;&gt;Node23</title>
<path fill="none" stroke="midnightblue" d="M297.62,-330.22C298.16,-323.1 298.96,-312.58 299.64,-303.53"/>
<polygon fill="midnightblue" stroke="midnightblue" points="303.13,-303.78 300.39,-293.55 296.15,-303.26 303.13,-303.78"/>
</g>
<!-- Node40&#45;&gt;Node3 -->
<g id="edge63" class="edge">
<title>Node40&#45;&gt;Node3</title>
<path fill="none" stroke="midnightblue" d="M530.43,-605.45C545.49,-597.05 569.37,-583.72 587.23,-573.76"/>
<polygon fill="midnightblue" stroke="midnightblue" points="589.41,-576.55 596.44,-568.63 586,-570.44 589.41,-576.55"/>
</g>
<!-- Node41 -->
<g id="node41" class="node">
<title>Node41</title>
<g id="a_node41"><a xlink:href="../../d4/da4/txatt_8h.html" target="_top" xlink:title=" ">
<polygon fill="none" stroke="black" points="521.38,-550.5 521.38,-568.5 564.62,-568.5 564.62,-550.5 521.38,-550.5"/>
<text text-anchor="middle" x="543" y="-556.5" font-family="Helvetica,sans-Serif" font-size="10.00">txatt.h</text>
</a>
</g>
</g>
<!-- Node40&#45;&gt;Node41 -->
<g id="edge61" class="edge">
<title>Node40&#45;&gt;Node41</title>
<path fill="none" stroke="midnightblue" d="M520.22,-605.22C523.97,-597.86 529.56,-586.88 534.27,-577.64"/>
<polygon fill="midnightblue" stroke="midnightblue" points="537.48,-579.05 538.9,-568.55 531.24,-575.87 537.48,-579.05"/>
</g>
<!-- Node41&#45;&gt;Node4 -->
<g id="edge62" class="edge">
<title>Node41&#45;&gt;Node4</title>
<path fill="none" stroke="midnightblue" d="M531.31,-550.45C519.32,-542.2 500.46,-529.22 486.08,-519.32"/>
<polygon fill="midnightblue" stroke="midnightblue" points="488.03,-516.41 477.8,-513.63 484.06,-522.18 488.03,-516.41"/>
</g>
</g>
</svg>
