<?xml version="1.0" encoding="UTF-8" standalone="no"?>
<!DOCTYPE svg PUBLIC "-//W3C//DTD SVG 1.1//EN"
 "http://www.w3.org/Graphics/SVG/1.1/DTD/svg11.dtd">
<!-- Generated by graphviz version 2.42.3 (20191010.1750)
 -->
<!-- Title: txmath.cpp Pages: 1 -->
<svg width="932pt" height="742pt"
 viewBox="0.00 0.00 932.32 742.00" xmlns="http://www.w3.org/2000/svg" xmlns:xlink="http://www.w3.org/1999/xlink">
<g id="graph0" class="graph" transform="scale(1 1) rotate(0) translate(4 738)">
<title>txmath.cpp</title>
<!-- Node1 -->
<g id="node1" class="node">
<title>Node1</title>
<g id="a_node1"><a xlink:title=" ">
<polygon fill="#bfbfbf" stroke="black" points="670.3,-715.5 670.3,-733.5 735.21,-733.5 735.21,-715.5 670.3,-715.5"/>
<text text-anchor="middle" x="702.75" y="-721.5" font-family="Helvetica,sans-Serif" font-size="10.00">txmath.cpp</text>
</a>
</g>
</g>
<!-- Node2 -->
<g id="node2" class="node">
<title>Node2</title>
<g id="a_node2"><a xlink:href="../../df/d79/txmath_8h.html" target="_top" xlink:title=" ">
<polygon fill="none" stroke="black" points="486.58,-660.5 486.58,-678.5 540.93,-678.5 540.93,-660.5 486.58,-660.5"/>
<text text-anchor="middle" x="513.75" y="-666.5" font-family="Helvetica,sans-Serif" font-size="10.00">txmath.h</text>
</a>
</g>
</g>
<!-- Node1&#45;&gt;Node2 -->
<g id="edge1" class="edge">
<title>Node1&#45;&gt;Node2</title>
<path fill="none" stroke="midnightblue" d="M674.05,-715.45C641.11,-706.21 586.99,-691.04 550.87,-680.91"/>
<polygon fill="midnightblue" stroke="midnightblue" points="551.76,-677.52 541.19,-678.19 549.87,-684.26 551.76,-677.52"/>
</g>
<!-- Node26 -->
<g id="node26" class="node">
<title>Node26</title>
<g id="a_node26"><a xlink:href="../../d5/d87/globals_8h.html" target="_top" xlink:title=" ">
<polygon fill="none" stroke="black" points="496.29,-440.5 496.29,-458.5 581.21,-458.5 581.21,-440.5 496.29,-440.5"/>
<text text-anchor="middle" x="538.75" y="-446.5" font-family="Helvetica,sans-Serif" font-size="10.00">tralics/globals.h</text>
</a>
</g>
</g>
<!-- Node1&#45;&gt;Node26 -->
<g id="edge31" class="edge">
<title>Node1&#45;&gt;Node26</title>
<path fill="none" stroke="midnightblue" d="M730.28,-715.4C770.02,-701.81 838.75,-670.37 838.75,-615.5 838.75,-615.5 838.75,-615.5 838.75,-558.5 838.75,-514.14 801.83,-514.03 761.75,-495 707.21,-469.1 638.25,-458.27 591.57,-453.74"/>
<polygon fill="midnightblue" stroke="midnightblue" points="591.65,-450.23 581.37,-452.82 591.01,-457.2 591.65,-450.23"/>
</g>
<!-- Node27 -->
<g id="node27" class="node">
<title>Node27</title>
<g id="a_node27"><a xlink:href="../../d7/d79/txinline_8h.html" target="_top" xlink:title=" ">
<polygon fill="none" stroke="black" points="675.02,-660.5 675.02,-678.5 730.49,-678.5 730.49,-660.5 675.02,-660.5"/>
<text text-anchor="middle" x="702.75" y="-666.5" font-family="Helvetica,sans-Serif" font-size="10.00">txinline.h</text>
</a>
</g>
</g>
<!-- Node1&#45;&gt;Node27 -->
<g id="edge37" class="edge">
<title>Node1&#45;&gt;Node27</title>
<path fill="none" stroke="midnightblue" d="M702.75,-715.22C702.75,-708.18 702.75,-697.81 702.75,-688.83"/>
<polygon fill="midnightblue" stroke="midnightblue" points="706.25,-688.55 702.75,-678.55 699.25,-688.55 706.25,-688.55"/>
</g>
<!-- Node34 -->
<g id="node34" class="node">
<title>Node34</title>
<g id="a_node34"><a xlink:href="../../d2/d1b/txparser_8h.html" target="_top" xlink:title=" ">
<polygon fill="none" stroke="black" points="291.8,-660.5 291.8,-678.5 351.71,-678.5 351.71,-660.5 291.8,-660.5"/>
<text text-anchor="middle" x="321.75" y="-666.5" font-family="Helvetica,sans-Serif" font-size="10.00">txparser.h</text>
</a>
</g>
</g>
<!-- Node1&#45;&gt;Node34 -->
<g id="edge48" class="edge">
<title>Node1&#45;&gt;Node34</title>
<path fill="none" stroke="midnightblue" d="M670.27,-718.98C600.75,-709.31 437.72,-686.63 361.87,-676.08"/>
<polygon fill="midnightblue" stroke="midnightblue" points="362.15,-672.59 351.77,-674.68 361.19,-679.52 362.15,-672.59"/>
</g>
<!-- Node44 -->
<g id="node44" class="node">
<title>Node44</title>
<g id="a_node44"><a xlink:title=" ">
<polygon fill="none" stroke="#bfbfbf" points="867.19,-660.5 867.19,-678.5 924.32,-678.5 924.32,-660.5 867.19,-660.5"/>
<text text-anchor="middle" x="895.75" y="-666.5" font-family="Helvetica,sans-Serif" font-size="10.00">algorithm</text>
</a>
</g>
</g>
<!-- Node1&#45;&gt;Node44 -->
<g id="edge73" class="edge">
<title>Node1&#45;&gt;Node44</title>
<path fill="none" stroke="midnightblue" d="M732.07,-715.45C765.51,-706.27 820.34,-691.21 857.22,-681.08"/>
<polygon fill="midnightblue" stroke="midnightblue" points="858.4,-684.39 867.11,-678.37 856.54,-677.64 858.4,-684.39"/>
</g>
<!-- Node3 -->
<g id="node3" class="node">
<title>Node3</title>
<g id="a_node3"><a xlink:href="../../d1/d43/txxml_8h.html" target="_top" xlink:title=" ">
<polygon fill="none" stroke="black" points="312.92,-550.5 312.92,-568.5 360.59,-568.5 360.59,-550.5 312.92,-550.5"/>
<text text-anchor="middle" x="336.75" y="-556.5" font-family="Helvetica,sans-Serif" font-size="10.00">txxml.h</text>
</a>
</g>
</g>
<!-- Node2&#45;&gt;Node3 -->
<g id="edge2" class="edge">
<title>Node2&#45;&gt;Node3</title>
<path fill="none" stroke="midnightblue" d="M486.3,-662.02C461.24,-655.24 423.93,-642.92 395.75,-624 376.69,-611.2 359.39,-591.1 348.53,-576.95"/>
<polygon fill="midnightblue" stroke="midnightblue" points="351.14,-574.59 342.36,-568.65 345.52,-578.76 351.14,-574.59"/>
</g>
<!-- Node4 -->
<g id="node4" class="node">
<title>Node4</title>
<g id="a_node4"><a xlink:href="../../dc/def/txstring_8h.html" target="_top" xlink:title=" ">
<polygon fill="none" stroke="black" points="269.47,-495.5 269.47,-513.5 326.04,-513.5 326.04,-495.5 269.47,-495.5"/>
<text text-anchor="middle" x="297.75" y="-501.5" font-family="Helvetica,sans-Serif" font-size="10.00">txstring.h</text>
</a>
</g>
</g>
<!-- Node3&#45;&gt;Node4 -->
<g id="edge3" class="edge">
<title>Node3&#45;&gt;Node4</title>
<path fill="none" stroke="midnightblue" d="M330.66,-550.22C325.08,-542.63 316.65,-531.18 309.72,-521.76"/>
<polygon fill="midnightblue" stroke="midnightblue" points="312.42,-519.53 303.68,-513.55 306.79,-523.68 312.42,-519.53"/>
</g>
<!-- Node25 -->
<g id="node25" class="node">
<title>Node25</title>
<g id="a_node25"><a xlink:title=" ">
<polygon fill="none" stroke="#bfbfbf" points="359.14,-385.5 359.14,-403.5 402.37,-403.5 402.37,-385.5 359.14,-385.5"/>
<text text-anchor="middle" x="380.75" y="-391.5" font-family="Helvetica,sans-Serif" font-size="10.00">vector</text>
</a>
</g>
</g>
<!-- Node3&#45;&gt;Node25 -->
<g id="edge30" class="edge">
<title>Node3&#45;&gt;Node25</title>
<path fill="none" stroke="midnightblue" d="M339,-550.19C345.82,-524.9 366.46,-448.45 375.92,-413.4"/>
<polygon fill="midnightblue" stroke="midnightblue" points="379.34,-414.16 378.57,-403.6 372.58,-412.34 379.34,-414.16"/>
</g>
<!-- Node5 -->
<g id="node5" class="node">
<title>Node5</title>
<g id="a_node5"><a xlink:href="../../dd/d74/txbuffer_8h.html" target="_top" xlink:title=" ">
<polygon fill="none" stroke="black" points="269.27,-440.5 269.27,-458.5 326.24,-458.5 326.24,-440.5 269.27,-440.5"/>
<text text-anchor="middle" x="297.75" y="-446.5" font-family="Helvetica,sans-Serif" font-size="10.00">txbuffer.h</text>
</a>
</g>
</g>
<!-- Node4&#45;&gt;Node5 -->
<g id="edge4" class="edge">
<title>Node4&#45;&gt;Node5</title>
<path fill="none" stroke="midnightblue" d="M297.75,-495.22C297.75,-488.18 297.75,-477.81 297.75,-468.83"/>
<polygon fill="midnightblue" stroke="midnightblue" points="301.25,-468.55 297.75,-458.55 294.25,-468.55 301.25,-468.55"/>
</g>
<!-- Node6 -->
<g id="node6" class="node">
<title>Node6</title>
<g id="a_node6"><a xlink:href="../../dd/dcd/_token_8h.html" target="_top" xlink:title=" ">
<polygon fill="none" stroke="black" points="140.8,-275.5 140.8,-293.5 220.71,-293.5 220.71,-275.5 140.8,-275.5"/>
<text text-anchor="middle" x="180.75" y="-281.5" font-family="Helvetica,sans-Serif" font-size="10.00">tralics/Token.h</text>
</a>
</g>
</g>
<!-- Node5&#45;&gt;Node6 -->
<g id="edge5" class="edge">
<title>Node5&#45;&gt;Node6</title>
<path fill="none" stroke="midnightblue" d="M291.79,-440.19C273.4,-414.58 217.33,-336.46 192.64,-302.06"/>
<polygon fill="midnightblue" stroke="midnightblue" points="195.24,-299.68 186.57,-293.6 189.55,-303.76 195.24,-299.68"/>
</g>
<!-- Node17 -->
<g id="node17" class="node">
<title>Node17</title>
<g id="a_node17"><a xlink:href="../../d1/d9e/txid_8h.html" target="_top" xlink:title=" ">
<polygon fill="none" stroke="black" points="257.8,-330.5 257.8,-348.5 297.7,-348.5 297.7,-330.5 257.8,-330.5"/>
<text text-anchor="middle" x="277.75" y="-336.5" font-family="Helvetica,sans-Serif" font-size="10.00">txid.h</text>
</a>
</g>
</g>
<!-- Node5&#45;&gt;Node17 -->
<g id="edge17" class="edge">
<title>Node5&#45;&gt;Node17</title>
<path fill="none" stroke="midnightblue" d="M295.48,-440.35C293.05,-431.47 289.24,-416.81 286.75,-404 283.83,-388.94 281.45,-371.69 279.87,-358.97"/>
<polygon fill="midnightblue" stroke="midnightblue" points="283.31,-358.28 278.65,-348.76 276.36,-359.11 283.31,-358.28"/>
</g>
<!-- Node21 -->
<g id="node21" class="node">
<title>Node21</title>
<g id="a_node21"><a xlink:href="../../d9/d18/txscaled_8h.html" target="_top" xlink:title=" ">
<polygon fill="none" stroke="black" points="137.24,-385.5 137.24,-403.5 198.27,-403.5 198.27,-385.5 137.24,-385.5"/>
<text text-anchor="middle" x="167.75" y="-391.5" font-family="Helvetica,sans-Serif" font-size="10.00">txscaled.h</text>
</a>
</g>
</g>
<!-- Node5&#45;&gt;Node21 -->
<g id="edge23" class="edge">
<title>Node5&#45;&gt;Node21</title>
<path fill="none" stroke="midnightblue" d="M278.01,-440.45C256.44,-431.66 221.67,-417.48 196.94,-407.4"/>
<polygon fill="midnightblue" stroke="midnightblue" points="198.27,-404.16 187.68,-403.63 195.62,-410.64 198.27,-404.16"/>
</g>
<!-- Node24 -->
<g id="node24" class="node">
<title>Node24</title>
<g id="a_node24"><a xlink:title=" ">
<polygon fill="none" stroke="#bfbfbf" points="296.03,-385.5 296.03,-403.5 341.48,-403.5 341.48,-385.5 296.03,-385.5"/>
<text text-anchor="middle" x="318.75" y="-391.5" font-family="Helvetica,sans-Serif" font-size="10.00">cstring</text>
</a>
</g>
</g>
<!-- Node5&#45;&gt;Node24 -->
<g id="edge28" class="edge">
<title>Node5&#45;&gt;Node24</title>
<path fill="none" stroke="midnightblue" d="M301.04,-440.22C303.92,-432.94 308.21,-422.11 311.85,-412.93"/>
<polygon fill="midnightblue" stroke="midnightblue" points="315.13,-414.14 315.56,-403.55 308.63,-411.56 315.13,-414.14"/>
</g>
<!-- Node5&#45;&gt;Node25 -->
<g id="edge29" class="edge">
<title>Node5&#45;&gt;Node25</title>
<path fill="none" stroke="midnightblue" d="M310.36,-440.45C323.4,-432.12 344,-418.97 359.55,-409.04"/>
<polygon fill="midnightblue" stroke="midnightblue" points="361.49,-411.96 368.03,-403.63 357.72,-406.06 361.49,-411.96"/>
</g>
<!-- Node7 -->
<g id="node7" class="node">
<title>Node7</title>
<g id="a_node7"><a xlink:href="../../d2/d68/_cmd_chr_8h.html" target="_top" xlink:title=" ">
<polygon fill="none" stroke="black" points="214.24,-220.5 214.24,-238.5 275.26,-238.5 275.26,-220.5 214.24,-220.5"/>
<text text-anchor="middle" x="244.75" y="-226.5" font-family="Helvetica,sans-Serif" font-size="10.00">CmdChr.h</text>
</a>
</g>
</g>
<!-- Node6&#45;&gt;Node7 -->
<g id="edge6" class="edge">
<title>Node6&#45;&gt;Node7</title>
<path fill="none" stroke="midnightblue" d="M190.47,-275.45C200.15,-267.43 215.23,-254.95 227.04,-245.17"/>
<polygon fill="midnightblue" stroke="midnightblue" points="229.47,-247.7 234.94,-238.63 225.01,-242.31 229.47,-247.7"/>
</g>
<!-- Node16 -->
<g id="node16" class="node">
<title>Node16</title>
<g id="a_node16"><a xlink:title=" ">
<polygon fill="none" stroke="#bfbfbf" points="166.25,-220.5 166.25,-238.5 195.25,-238.5 195.25,-220.5 166.25,-220.5"/>
<text text-anchor="middle" x="180.37" y="-226.5" font-family="Helvetica,sans-Serif" font-size="10.00">list</text>
</a>
</g>
</g>
<!-- Node6&#45;&gt;Node16 -->
<g id="edge16" class="edge">
<title>Node6&#45;&gt;Node16</title>
<path fill="none" stroke="midnightblue" d="M180.75,-275.22C180.75,-268.18 180.75,-257.81 180.75,-248.83"/>
<polygon fill="midnightblue" stroke="midnightblue" points="184.25,-248.55 180.75,-238.55 177.25,-248.55 184.25,-248.55"/>
</g>
<!-- Node8 -->
<g id="node8" class="node">
<title>Node8</title>
<g id="a_node8"><a xlink:href="../../d8/d47/codepoint_8h.html" target="_top" xlink:title=" ">
<polygon fill="none" stroke="black" points="517.9,-165.5 517.9,-183.5 585.61,-183.5 585.61,-165.5 517.9,-165.5"/>
<text text-anchor="middle" x="551.75" y="-171.5" font-family="Helvetica,sans-Serif" font-size="10.00">codepoint.h</text>
</a>
</g>
</g>
<!-- Node7&#45;&gt;Node8 -->
<g id="edge7" class="edge">
<title>Node7&#45;&gt;Node8</title>
<path fill="none" stroke="midnightblue" d="M275.3,-221.86C278.49,-221.21 281.69,-220.58 284.75,-220 362.89,-205.2 454.39,-190.52 507.45,-182.27"/>
<polygon fill="midnightblue" stroke="midnightblue" points="508.18,-185.7 517.53,-180.71 507.11,-178.78 508.18,-185.7"/>
</g>
<!-- Node14 -->
<g id="node14" class="node">
<title>Node14</title>
<g id="a_node14"><a xlink:href="../../d0/d0b/enums_8h.html" target="_top" xlink:title=" ">
<polygon fill="none" stroke="black" points="422.58,-165.5 422.58,-183.5 476.93,-183.5 476.93,-165.5 422.58,-165.5"/>
<text text-anchor="middle" x="449.75" y="-171.5" font-family="Helvetica,sans-Serif" font-size="10.00">enums.h</text>
</a>
</g>
</g>
<!-- Node7&#45;&gt;Node14 -->
<g id="edge13" class="edge">
<title>Node7&#45;&gt;Node14</title>
<path fill="none" stroke="midnightblue" d="M275.44,-220.57C312.13,-211.08 373.47,-195.22 412.74,-185.07"/>
<polygon fill="midnightblue" stroke="midnightblue" points="413.66,-188.45 422.46,-182.56 411.91,-181.67 413.66,-188.45"/>
</g>
<!-- Node9 -->
<g id="node9" class="node">
<title>Node9</title>
<g id="a_node9"><a xlink:href="../../d9/d49/types_8h.html" target="_top" xlink:title=" ">
<polygon fill="none" stroke="black" points="478.63,-55.5 478.63,-73.5 526.87,-73.5 526.87,-55.5 478.63,-55.5"/>
<text text-anchor="middle" x="502.75" y="-61.5" font-family="Helvetica,sans-Serif" font-size="10.00">types.h</text>
</a>
</g>
</g>
<!-- Node8&#45;&gt;Node9 -->
<g id="edge8" class="edge">
<title>Node8&#45;&gt;Node9</title>
<path fill="none" stroke="midnightblue" d="M548.07,-165.38C540.16,-147.95 521.4,-106.59 510.66,-82.92"/>
<polygon fill="midnightblue" stroke="midnightblue" points="513.8,-81.37 506.48,-73.71 507.42,-84.26 513.8,-81.37"/>
</g>
<!-- Node13 -->
<g id="node13" class="node">
<title>Node13</title>
<g id="a_node13"><a xlink:title=" ">
<polygon fill="none" stroke="#bfbfbf" points="583.24,-110.5 583.24,-128.5 634.27,-128.5 634.27,-110.5 583.24,-110.5"/>
<text text-anchor="middle" x="608.75" y="-116.5" font-family="Helvetica,sans-Serif" font-size="10.00">optional</text>
</a>
</g>
</g>
<!-- Node8&#45;&gt;Node13 -->
<g id="edge12" class="edge">
<title>Node8&#45;&gt;Node13</title>
<path fill="none" stroke="midnightblue" d="M560.66,-165.22C569.16,-157.32 582.16,-145.22 592.51,-135.61"/>
<polygon fill="midnightblue" stroke="midnightblue" points="595.16,-137.92 600.1,-128.55 590.39,-132.8 595.16,-137.92"/>
</g>
<!-- Node10 -->
<g id="node10" class="node">
<title>Node10</title>
<g id="a_node10"><a xlink:title=" ">
<polygon fill="none" stroke="#bfbfbf" points="412.64,-0.5 412.64,-18.5 460.87,-18.5 460.87,-0.5 412.64,-0.5"/>
<text text-anchor="middle" x="436.75" y="-6.5" font-family="Helvetica,sans-Serif" font-size="10.00">cassert</text>
</a>
</g>
</g>
<!-- Node9&#45;&gt;Node10 -->
<g id="edge9" class="edge">
<title>Node9&#45;&gt;Node10</title>
<path fill="none" stroke="midnightblue" d="M492.73,-55.45C482.75,-47.43 467.2,-34.95 455.02,-25.17"/>
<polygon fill="midnightblue" stroke="midnightblue" points="456.86,-22.16 446.87,-18.63 452.48,-27.62 456.86,-22.16"/>
</g>
<!-- Node11 -->
<g id="node11" class="node">
<title>Node11</title>
<g id="a_node11"><a xlink:title=" ">
<polygon fill="none" stroke="#bfbfbf" points="478.63,-0.5 478.63,-18.5 526.87,-18.5 526.87,-0.5 478.63,-0.5"/>
<text text-anchor="middle" x="502.75" y="-6.5" font-family="Helvetica,sans-Serif" font-size="10.00">cstddef</text>
</a>
</g>
</g>
<!-- Node9&#45;&gt;Node11 -->
<g id="edge10" class="edge">
<title>Node9&#45;&gt;Node11</title>
<path fill="none" stroke="midnightblue" d="M502.75,-55.22C502.75,-48.18 502.75,-37.81 502.75,-28.83"/>
<polygon fill="midnightblue" stroke="midnightblue" points="506.25,-28.55 502.75,-18.55 499.25,-28.55 506.25,-28.55"/>
</g>
<!-- Node12 -->
<g id="node12" class="node">
<title>Node12</title>
<g id="a_node12"><a xlink:title=" ">
<polygon fill="none" stroke="#bfbfbf" points="544.69,-0.5 544.69,-18.5 606.82,-18.5 606.82,-0.5 544.69,-0.5"/>
<text text-anchor="middle" x="575.75" y="-6.5" font-family="Helvetica,sans-Serif" font-size="10.00">type_traits</text>
</a>
</g>
</g>
<!-- Node9&#45;&gt;Node12 -->
<g id="edge11" class="edge">
<title>Node9&#45;&gt;Node12</title>
<path fill="none" stroke="midnightblue" d="M513.84,-55.45C525.1,-47.28 542.75,-34.46 556.33,-24.6"/>
<polygon fill="midnightblue" stroke="midnightblue" points="558.53,-27.33 564.56,-18.63 554.41,-21.67 558.53,-27.33"/>
</g>
<!-- Node15 -->
<g id="node15" class="node">
<title>Node15</title>
<g id="a_node15"><a xlink:href="../../d8/db5/consts_8h.html" target="_top" xlink:title=" ">
<polygon fill="none" stroke="black" points="449.13,-110.5 449.13,-128.5 502.37,-128.5 502.37,-110.5 449.13,-110.5"/>
<text text-anchor="middle" x="475.75" y="-116.5" font-family="Helvetica,sans-Serif" font-size="10.00">consts.h</text>
</a>
</g>
</g>
<!-- Node14&#45;&gt;Node15 -->
<g id="edge14" class="edge">
<title>Node14&#45;&gt;Node15</title>
<path fill="none" stroke="midnightblue" d="M453.82,-165.22C457.42,-157.86 462.81,-146.88 467.35,-137.64"/>
<polygon fill="midnightblue" stroke="midnightblue" points="470.54,-139.07 471.81,-128.55 464.26,-135.99 470.54,-139.07"/>
</g>
<!-- Node15&#45;&gt;Node9 -->
<g id="edge15" class="edge">
<title>Node15&#45;&gt;Node9</title>
<path fill="none" stroke="midnightblue" d="M479.97,-110.22C483.72,-102.86 489.32,-91.88 494.02,-82.64"/>
<polygon fill="midnightblue" stroke="midnightblue" points="497.23,-84.05 498.65,-73.55 491,-80.87 497.23,-84.05"/>
</g>
<!-- Node18 -->
<g id="node18" class="node">
<title>Node18</title>
<g id="a_node18"><a xlink:href="../../d5/daf/_istring_8h.html" target="_top" xlink:title=" ">
<polygon fill="none" stroke="black" points="341.52,-275.5 341.52,-293.5 421.99,-293.5 421.99,-275.5 341.52,-275.5"/>
<text text-anchor="middle" x="381.75" y="-281.5" font-family="Helvetica,sans-Serif" font-size="10.00">tralics/Istring.h</text>
</a>
</g>
</g>
<!-- Node17&#45;&gt;Node18 -->
<g id="edge18" class="edge">
<title>Node17&#45;&gt;Node18</title>
<path fill="none" stroke="midnightblue" d="M293.55,-330.45C310.35,-321.89 337.15,-308.23 356.81,-298.21"/>
<polygon fill="midnightblue" stroke="midnightblue" points="358.49,-301.28 365.81,-293.63 355.31,-295.05 358.49,-301.28"/>
</g>
<!-- Node20 -->
<g id="node20" class="node">
<title>Node20</title>
<g id="a_node20"><a xlink:title=" ">
<polygon fill="none" stroke="#bfbfbf" points="293.53,-220.5 293.53,-238.5 333.98,-238.5 333.98,-220.5 293.53,-220.5"/>
<text text-anchor="middle" x="313.75" y="-226.5" font-family="Helvetica,sans-Serif" font-size="10.00">string</text>
</a>
</g>
</g>
<!-- Node17&#45;&gt;Node20 -->
<g id="edge22" class="edge">
<title>Node17&#45;&gt;Node20</title>
<path fill="none" stroke="midnightblue" d="M280.46,-330.38C286.25,-313.03 299.93,-271.96 307.84,-248.24"/>
<polygon fill="midnightblue" stroke="midnightblue" points="311.18,-249.31 311.02,-238.71 304.53,-247.09 311.18,-249.31"/>
</g>
<!-- Node18&#45;&gt;Node14 -->
<g id="edge19" class="edge">
<title>Node18&#45;&gt;Node14</title>
<path fill="none" stroke="midnightblue" d="M386.87,-275.38C397.94,-257.79 424.35,-215.85 439.18,-192.29"/>
<polygon fill="midnightblue" stroke="midnightblue" points="442.22,-194.04 444.58,-183.71 436.29,-190.31 442.22,-194.04"/>
</g>
<!-- Node19 -->
<g id="node19" class="node">
<title>Node19</title>
<g id="a_node19"><a xlink:title=" ">
<polygon fill="none" stroke="#bfbfbf" points="478.36,-220.5 478.36,-238.5 517.15,-238.5 517.15,-220.5 478.36,-220.5"/>
<text text-anchor="middle" x="497.75" y="-226.5" font-family="Helvetica,sans-Serif" font-size="10.00">array</text>
</a>
</g>
</g>
<!-- Node18&#45;&gt;Node19 -->
<g id="edge20" class="edge">
<title>Node18&#45;&gt;Node19</title>
<path fill="none" stroke="midnightblue" d="M399.37,-275.45C418.36,-266.77 448.83,-252.86 470.82,-242.8"/>
<polygon fill="midnightblue" stroke="midnightblue" points="472.33,-245.96 479.97,-238.63 469.42,-239.6 472.33,-245.96"/>
</g>
<!-- Node18&#45;&gt;Node20 -->
<g id="edge21" class="edge">
<title>Node18&#45;&gt;Node20</title>
<path fill="none" stroke="midnightblue" d="M371.43,-275.45C361.04,-267.36 344.81,-254.7 332.21,-244.88"/>
<polygon fill="midnightblue" stroke="midnightblue" points="334.22,-242.01 324.18,-238.63 329.91,-247.53 334.22,-242.01"/>
</g>
<!-- Node22 -->
<g id="node22" class="node">
<title>Node22</title>
<g id="a_node22"><a xlink:href="../../dc/d91/txtokenlist_8h.html" target="_top" xlink:title=" ">
<polygon fill="none" stroke="black" points="133.35,-330.5 133.35,-348.5 202.16,-348.5 202.16,-330.5 133.35,-330.5"/>
<text text-anchor="middle" x="167.75" y="-336.5" font-family="Helvetica,sans-Serif" font-size="10.00">txtokenlist.h</text>
</a>
</g>
</g>
<!-- Node21&#45;&gt;Node22 -->
<g id="edge24" class="edge">
<title>Node21&#45;&gt;Node22</title>
<path fill="none" stroke="midnightblue" d="M167.75,-385.22C167.75,-378.18 167.75,-367.81 167.75,-358.83"/>
<polygon fill="midnightblue" stroke="midnightblue" points="171.25,-358.55 167.75,-348.55 164.25,-358.55 171.25,-358.55"/>
</g>
<!-- Node22&#45;&gt;Node6 -->
<g id="edge26" class="edge">
<title>Node22&#45;&gt;Node6</title>
<path fill="none" stroke="midnightblue" d="M169.79,-330.22C171.53,-323.1 174.11,-312.58 176.33,-303.53"/>
<polygon fill="midnightblue" stroke="midnightblue" points="179.8,-304.1 178.78,-293.55 173,-302.43 179.8,-304.1"/>
</g>
<!-- Node22&#45;&gt;Node18 -->
<g id="edge25" class="edge">
<title>Node22&#45;&gt;Node18</title>
<path fill="none" stroke="midnightblue" d="M200.26,-330.45C237.44,-321.24 298.47,-306.13 339.36,-296"/>
<polygon fill="midnightblue" stroke="midnightblue" points="340.43,-299.34 349.3,-293.54 338.75,-292.55 340.43,-299.34"/>
</g>
<!-- Node23 -->
<g id="node23" class="node">
<title>Node23</title>
<g id="a_node23"><a xlink:title=" ">
<polygon fill="none" stroke="#bfbfbf" points="81.36,-275.5 81.36,-293.5 120.15,-293.5 120.15,-275.5 81.36,-275.5"/>
<text text-anchor="middle" x="100.75" y="-281.5" font-family="Helvetica,sans-Serif" font-size="10.00">utility</text>
</a>
</g>
</g>
<!-- Node22&#45;&gt;Node23 -->
<g id="edge27" class="edge">
<title>Node22&#45;&gt;Node23</title>
<path fill="none" stroke="midnightblue" d="M157.58,-330.45C147.35,-322.36 131.35,-309.7 118.94,-299.88"/>
<polygon fill="midnightblue" stroke="midnightblue" points="121.04,-297.08 111.03,-293.63 116.7,-302.57 121.04,-297.08"/>
</g>
<!-- Node26&#45;&gt;Node8 -->
<g id="edge32" class="edge">
<title>Node26&#45;&gt;Node8</title>
<path fill="none" stroke="midnightblue" d="M544.69,-440.29C556.7,-422.84 582.75,-380.39 582.75,-340.5 582.75,-340.5 582.75,-340.5 582.75,-283.5 582.75,-250.46 569.18,-213.86 560,-192.88"/>
<polygon fill="midnightblue" stroke="midnightblue" points="563.14,-191.32 555.81,-183.67 556.77,-194.22 563.14,-191.32"/>
</g>
<!-- Node26&#45;&gt;Node14 -->
<g id="edge33" class="edge">
<title>Node26&#45;&gt;Node14</title>
<path fill="none" stroke="midnightblue" d="M539.51,-440.38C541.13,-422.4 544.75,-377.87 544.75,-340.5 544.75,-340.5 544.75,-340.5 544.75,-283.5 544.75,-254.04 543.95,-243.16 525.75,-220 514.41,-205.56 496.99,-194.88 481.69,-187.6"/>
<polygon fill="midnightblue" stroke="midnightblue" points="483.06,-184.39 472.5,-183.51 480.21,-190.78 483.06,-184.39"/>
</g>
<!-- Node26&#45;&gt;Node19 -->
<g id="edge34" class="edge">
<title>Node26&#45;&gt;Node19</title>
<path fill="none" stroke="midnightblue" d="M537.25,-440.48C531.33,-409.04 509.63,-293.67 501.17,-248.66"/>
<polygon fill="midnightblue" stroke="midnightblue" points="504.61,-248 499.32,-238.82 497.73,-249.3 504.61,-248"/>
</g>
<!-- Node26&#45;&gt;Node20 -->
<g id="edge35" class="edge">
<title>Node26&#45;&gt;Node20</title>
<path fill="none" stroke="midnightblue" d="M521.43,-440.38C481.83,-420.91 384.16,-367.7 332.75,-294 323.29,-280.43 318.46,-262.08 316.05,-248.59"/>
<polygon fill="midnightblue" stroke="midnightblue" points="319.5,-247.99 314.54,-238.62 312.58,-249.03 319.5,-247.99"/>
</g>
<!-- Node26&#45;&gt;Node25 -->
<g id="edge36" class="edge">
<title>Node26&#45;&gt;Node25</title>
<path fill="none" stroke="midnightblue" d="M514.76,-440.45C487.3,-431.24 442.25,-416.13 412.05,-406"/>
<polygon fill="midnightblue" stroke="midnightblue" points="413.02,-402.63 402.43,-402.77 410.8,-409.27 413.02,-402.63"/>
</g>
<!-- Node28 -->
<g id="node28" class="node">
<title>Node28</title>
<g id="a_node28"><a xlink:href="../../d4/de9/_main_class_8h.html" target="_top" xlink:title=" ">
<polygon fill="none" stroke="black" points="554.8,-605.5 554.8,-623.5 654.71,-623.5 654.71,-605.5 554.8,-605.5"/>
<text text-anchor="middle" x="604.75" y="-611.5" font-family="Helvetica,sans-Serif" font-size="10.00">tralics/MainClass.h</text>
</a>
</g>
</g>
<!-- Node27&#45;&gt;Node28 -->
<g id="edge38" class="edge">
<title>Node27&#45;&gt;Node28</title>
<path fill="none" stroke="midnightblue" d="M687.87,-660.45C672.18,-651.97 647.24,-638.48 628.77,-628.49"/>
<polygon fill="midnightblue" stroke="midnightblue" points="630.24,-625.3 619.78,-623.63 626.91,-631.46 630.24,-625.3"/>
</g>
<!-- Node31 -->
<g id="node31" class="node">
<title>Node31</title>
<g id="a_node31"><a xlink:href="../../d2/d06/txlogger_8h.html" target="_top" xlink:title=" ">
<polygon fill="none" stroke="black" points="751.07,-605.5 751.07,-623.5 810.44,-623.5 810.44,-605.5 751.07,-605.5"/>
<text text-anchor="middle" x="780.75" y="-611.5" font-family="Helvetica,sans-Serif" font-size="10.00">txlogger.h</text>
</a>
</g>
</g>
<!-- Node27&#45;&gt;Node31 -->
<g id="edge43" class="edge">
<title>Node27&#45;&gt;Node31</title>
<path fill="none" stroke="midnightblue" d="M714.6,-660.45C726.74,-652.2 745.85,-639.22 760.42,-629.32"/>
<polygon fill="midnightblue" stroke="midnightblue" points="762.49,-632.14 768.8,-623.63 758.56,-626.35 762.49,-632.14"/>
</g>
<!-- Node33 -->
<g id="node33" class="node">
<title>Node33</title>
<g id="a_node33"><a xlink:href="../../d5/d08/txparam_8h.html" target="_top" xlink:title=" ">
<polygon fill="none" stroke="black" points="672.52,-605.5 672.52,-623.5 732.99,-623.5 732.99,-605.5 672.52,-605.5"/>
<text text-anchor="middle" x="702.75" y="-611.5" font-family="Helvetica,sans-Serif" font-size="10.00">txparam.h</text>
</a>
</g>
</g>
<!-- Node27&#45;&gt;Node33 -->
<g id="edge46" class="edge">
<title>Node27&#45;&gt;Node33</title>
<path fill="none" stroke="midnightblue" d="M702.75,-660.22C702.75,-653.18 702.75,-642.81 702.75,-633.83"/>
<polygon fill="midnightblue" stroke="midnightblue" points="706.25,-633.55 702.75,-623.55 699.25,-633.55 706.25,-633.55"/>
</g>
<!-- Node28&#45;&gt;Node4 -->
<g id="edge42" class="edge">
<title>Node28&#45;&gt;Node4</title>
<path fill="none" stroke="midnightblue" d="M554.54,-606.45C513.98,-599.74 455.92,-587.84 407.75,-569 390.03,-562.07 346.18,-535.6 319.51,-519.11"/>
<polygon fill="midnightblue" stroke="midnightblue" points="321.2,-516.04 310.86,-513.74 317.51,-521.99 321.2,-516.04"/>
</g>
<!-- Node29 -->
<g id="node29" class="node">
<title>Node29</title>
<g id="a_node29"><a xlink:href="../../de/d29/txio_8h.html" target="_top" xlink:title=" ">
<polygon fill="none" stroke="black" points="580.64,-550.5 580.64,-568.5 628.87,-568.5 628.87,-550.5 580.64,-550.5"/>
<text text-anchor="middle" x="604.75" y="-556.5" font-family="Helvetica,sans-Serif" font-size="10.00">../txio.h</text>
</a>
</g>
</g>
<!-- Node28&#45;&gt;Node29 -->
<g id="edge39" class="edge">
<title>Node28&#45;&gt;Node29</title>
<path fill="none" stroke="midnightblue" d="M604.75,-605.22C604.75,-598.18 604.75,-587.81 604.75,-578.83"/>
<polygon fill="midnightblue" stroke="midnightblue" points="608.25,-578.55 604.75,-568.55 601.25,-578.55 608.25,-578.55"/>
</g>
<!-- Node29&#45;&gt;Node5 -->
<g id="edge40" class="edge">
<title>Node29&#45;&gt;Node5</title>
<path fill="none" stroke="midnightblue" d="M581.93,-550.47C528.09,-531.53 393.01,-484.01 330.47,-462.01"/>
<polygon fill="midnightblue" stroke="midnightblue" points="331.32,-458.6 320.73,-458.58 329,-465.2 331.32,-458.6"/>
</g>
<!-- Node30 -->
<g id="node30" class="node">
<title>Node30</title>
<g id="a_node30"><a xlink:title=" ">
<polygon fill="none" stroke="#bfbfbf" points="703.08,-495.5 703.08,-513.5 752.42,-513.5 752.42,-495.5 703.08,-495.5"/>
<text text-anchor="middle" x="727.75" y="-501.5" font-family="Helvetica,sans-Serif" font-size="10.00">fstream</text>
</a>
</g>
</g>
<!-- Node29&#45;&gt;Node30 -->
<g id="edge41" class="edge">
<title>Node29&#45;&gt;Node30</title>
<path fill="none" stroke="midnightblue" d="M623.44,-550.45C643.66,-541.73 676.16,-527.73 699.51,-517.67"/>
<polygon fill="midnightblue" stroke="midnightblue" points="701.1,-520.8 708.9,-513.63 698.33,-514.37 701.1,-520.8"/>
</g>
<!-- Node31&#45;&gt;Node30 -->
<g id="edge44" class="edge">
<title>Node31&#45;&gt;Node30</title>
<path fill="none" stroke="midnightblue" d="M779.29,-605.33C776.86,-592.88 771.27,-568.66 761.75,-550 756.56,-539.82 748.98,-529.61 742.28,-521.55"/>
<polygon fill="midnightblue" stroke="midnightblue" points="744.72,-519.01 735.53,-513.73 739.42,-523.59 744.72,-519.01"/>
</g>
<!-- Node32 -->
<g id="node32" class="node">
<title>Node32</title>
<g id="a_node32"><a xlink:title=" ">
<polygon fill="none" stroke="#bfbfbf" points="698.58,-550.5 698.58,-568.5 752.93,-568.5 752.93,-550.5 698.58,-550.5"/>
<text text-anchor="middle" x="725.75" y="-556.5" font-family="Helvetica,sans-Serif" font-size="10.00">iostream</text>
</a>
</g>
</g>
<!-- Node31&#45;&gt;Node32 -->
<g id="edge45" class="edge">
<title>Node31&#45;&gt;Node32</title>
<path fill="none" stroke="midnightblue" d="M772.16,-605.22C763.96,-597.32 751.41,-585.22 741.43,-575.61"/>
<polygon fill="midnightblue" stroke="midnightblue" points="743.74,-572.97 734.11,-568.55 738.88,-578.01 743.74,-572.97"/>
</g>
<!-- Node33&#45;&gt;Node29 -->
<g id="edge47" class="edge">
<title>Node33&#45;&gt;Node29</title>
<path fill="none" stroke="midnightblue" d="M687.87,-605.45C672.18,-596.97 647.24,-583.48 628.77,-573.49"/>
<polygon fill="midnightblue" stroke="midnightblue" points="630.24,-570.3 619.78,-568.63 626.91,-576.46 630.24,-570.3"/>
</g>
<!-- Node34&#45;&gt;Node29 -->
<g id="edge65" class="edge">
<title>Node34&#45;&gt;Node29</title>
<path fill="none" stroke="midnightblue" d="M351.82,-664.1C388.51,-658.06 451.91,-645.43 502.75,-624 533.92,-610.86 566.53,-588.89 586.25,-574.54"/>
<polygon fill="midnightblue" stroke="midnightblue" points="588.4,-577.31 594.35,-568.55 584.23,-571.68 588.4,-577.31"/>
</g>
<!-- Node35 -->
<g id="node35" class="node">
<title>Node35</title>
<g id="a_node35"><a xlink:href="../../d8/dd6/_e_q_t_b_8h.html" target="_top" xlink:title=" ">
<polygon fill="none" stroke="black" points="86.53,-605.5 86.53,-623.5 166.98,-623.5 166.98,-605.5 86.53,-605.5"/>
<text text-anchor="middle" x="126.75" y="-611.5" font-family="Helvetica,sans-Serif" font-size="10.00">tralics/EQTB.h</text>
</a>
</g>
</g>
<!-- Node34&#45;&gt;Node35 -->
<g id="edge49" class="edge">
<title>Node34&#45;&gt;Node35</title>
<path fill="none" stroke="midnightblue" d="M292.14,-660.45C258.54,-651.32 203.59,-636.38 166.33,-626.26"/>
<polygon fill="midnightblue" stroke="midnightblue" points="166.9,-622.78 156.33,-623.54 165.06,-629.54 166.9,-622.78"/>
</g>
<!-- Node36 -->
<g id="node36" class="node">
<title>Node36</title>
<g id="a_node36"><a xlink:href="../../d3/d6b/txcond_8h.html" target="_top" xlink:title=" ">
<polygon fill="none" stroke="black" points="419.85,-440.5 419.85,-458.5 473.66,-458.5 473.66,-440.5 419.85,-440.5"/>
<text text-anchor="middle" x="446.75" y="-446.5" font-family="Helvetica,sans-Serif" font-size="10.00">txcond.h</text>
</a>
</g>
</g>
<!-- Node34&#45;&gt;Node36 -->
<g id="edge54" class="edge">
<title>Node34&#45;&gt;Node36</title>
<path fill="none" stroke="midnightblue" d="M351.73,-669.19C386.53,-668.17 442.62,-660.5 469.75,-624 504.92,-576.71 473.6,-501.5 456.35,-467.81"/>
<polygon fill="midnightblue" stroke="midnightblue" points="459.33,-465.95 451.54,-458.76 453.15,-469.24 459.33,-465.95"/>
</g>
<!-- Node37 -->
<g id="node37" class="node">
<title>Node37</title>
<g id="a_node37"><a xlink:href="../../d7/d4d/txfonts_8h.html" target="_top" xlink:title=" ">
<polygon fill="none" stroke="black" points="170.86,-550.5 170.86,-568.5 224.65,-568.5 224.65,-550.5 170.86,-550.5"/>
<text text-anchor="middle" x="197.75" y="-556.5" font-family="Helvetica,sans-Serif" font-size="10.00">txfonts.h</text>
</a>
</g>
</g>
<!-- Node34&#45;&gt;Node37 -->
<g id="edge57" class="edge">
<title>Node34&#45;&gt;Node37</title>
<path fill="none" stroke="midnightblue" d="M291.78,-663.76C267.32,-658.33 233.66,-647 213.75,-624 202.94,-611.51 199.25,-592.74 198.08,-578.84"/>
<polygon fill="midnightblue" stroke="midnightblue" points="201.56,-578.38 197.58,-568.56 194.57,-578.72 201.56,-578.38"/>
</g>
<!-- Node38 -->
<g id="node38" class="node">
<title>Node38</title>
<g id="a_node38"><a xlink:href="../../d7/d7e/txhash_8h.html" target="_top" xlink:title=" ">
<polygon fill="none" stroke="black" points="222.85,-605.5 222.85,-623.5 276.66,-623.5 276.66,-605.5 222.85,-605.5"/>
<text text-anchor="middle" x="249.75" y="-611.5" font-family="Helvetica,sans-Serif" font-size="10.00">txhash.h</text>
</a>
</g>
</g>
<!-- Node34&#45;&gt;Node38 -->
<g id="edge59" class="edge">
<title>Node34&#45;&gt;Node38</title>
<path fill="none" stroke="midnightblue" d="M310.82,-660.45C299.72,-652.28 282.3,-639.46 268.91,-629.6"/>
<polygon fill="midnightblue" stroke="midnightblue" points="270.92,-626.73 260.79,-623.63 266.77,-632.37 270.92,-626.73"/>
</g>
<!-- Node40 -->
<g id="node40" class="node">
<title>Node40</title>
<g id="a_node40"><a xlink:href="../../de/d7c/tximage_8h.html" target="_top" xlink:title=" ">
<polygon fill="none" stroke="black" points="18.08,-330.5 18.08,-348.5 77.43,-348.5 77.43,-330.5 18.08,-330.5"/>
<text text-anchor="middle" x="47.75" y="-336.5" font-family="Helvetica,sans-Serif" font-size="10.00">tximage.h</text>
</a>
</g>
</g>
<!-- Node34&#45;&gt;Node40 -->
<g id="edge62" class="edge">
<title>Node34&#45;&gt;Node40</title>
<path fill="none" stroke="midnightblue" d="M291.61,-665.68C234.58,-659.92 113.44,-645.49 77.75,-624 46.98,-605.47 27.75,-596.42 27.75,-560.5 27.75,-560.5 27.75,-560.5 27.75,-448.5 27.75,-416.33 36.44,-379.67 42.36,-358.4"/>
<polygon fill="midnightblue" stroke="midnightblue" points="45.8,-359.11 45.22,-348.53 39.07,-357.16 45.8,-359.11"/>
</g>
<!-- Node41 -->
<g id="node41" class="node">
<title>Node41</title>
<g id="a_node41"><a xlink:href="../../dc/d65/txstack_8h.html" target="_top" xlink:title=" ">
<polygon fill="none" stroke="black" points="405.03,-605.5 405.03,-623.5 460.48,-623.5 460.48,-605.5 405.03,-605.5"/>
<text text-anchor="middle" x="432.75" y="-611.5" font-family="Helvetica,sans-Serif" font-size="10.00">txstack.h</text>
</a>
</g>
</g>
<!-- Node34&#45;&gt;Node41 -->
<g id="edge66" class="edge">
<title>Node34&#45;&gt;Node41</title>
<path fill="none" stroke="midnightblue" d="M338.61,-660.45C356.7,-651.81 385.67,-637.98 406.7,-627.94"/>
<polygon fill="midnightblue" stroke="midnightblue" points="408.22,-631.09 415.74,-623.63 405.2,-624.78 408.22,-631.09"/>
</g>
<!-- Node43 -->
<g id="node43" class="node">
<title>Node43</title>
<g id="a_node43"><a xlink:href="../../d8/d3d/txstats_8h.html" target="_top" xlink:title=" ">
<polygon fill="none" stroke="black" points="295.14,-605.5 295.14,-623.5 348.37,-623.5 348.37,-605.5 295.14,-605.5"/>
<text text-anchor="middle" x="321.75" y="-611.5" font-family="Helvetica,sans-Serif" font-size="10.00">txstats.h</text>
</a>
</g>
</g>
<!-- Node34&#45;&gt;Node43 -->
<g id="edge72" class="edge">
<title>Node34&#45;&gt;Node43</title>
<path fill="none" stroke="midnightblue" d="M321.75,-660.22C321.75,-653.18 321.75,-642.81 321.75,-633.83"/>
<polygon fill="midnightblue" stroke="midnightblue" points="325.25,-633.55 321.75,-623.55 318.25,-633.55 325.25,-633.55"/>
</g>
<!-- Node35&#45;&gt;Node3 -->
<g id="edge51" class="edge">
<title>Node35&#45;&gt;Node3</title>
<path fill="none" stroke="midnightblue" d="M159.07,-605.44C192.62,-597.05 246.89,-583.45 302.88,-569.21"/>
<polygon fill="midnightblue" stroke="midnightblue" points="303.78,-572.59 312.61,-566.74 302.05,-565.81 303.78,-572.59"/>
</g>
<!-- Node35&#45;&gt;Node6 -->
<g id="edge52" class="edge">
<title>Node35&#45;&gt;Node6</title>
<path fill="none" stroke="midnightblue" d="M123.97,-605.49C118.05,-587.72 104.75,-543.58 104.75,-505.5 104.75,-505.5 104.75,-505.5 104.75,-448.5 104.75,-395.09 97.6,-376 124.75,-330 132.33,-317.17 145.09,-306.6 156.53,-298.98"/>
<polygon fill="midnightblue" stroke="midnightblue" points="158.65,-301.78 165.29,-293.52 154.95,-295.84 158.65,-301.78"/>
</g>
<!-- Node35&#45;&gt;Node20 -->
<g id="edge53" class="edge">
<title>Node35&#45;&gt;Node20</title>
<path fill="none" stroke="midnightblue" d="M118.49,-605.26C85.7,-571.56 -31.45,-440.75 8.75,-330 19.63,-300.05 27.02,-290.69 54.75,-275 142,-225.65 181.3,-259.34 283.19,-239.01"/>
<polygon fill="midnightblue" stroke="midnightblue" points="284.19,-242.37 293.25,-236.87 282.74,-235.53 284.19,-242.37"/>
</g>
<!-- Node35&#45;&gt;Node21 -->
<g id="edge50" class="edge">
<title>Node35&#45;&gt;Node21</title>
<path fill="none" stroke="midnightblue" d="M128.26,-605.48C134.18,-574.04 155.87,-458.67 164.34,-413.66"/>
<polygon fill="midnightblue" stroke="midnightblue" points="167.78,-414.3 166.19,-403.82 160.9,-413 167.78,-414.3"/>
</g>
<!-- Node36&#45;&gt;Node14 -->
<g id="edge55" class="edge">
<title>Node36&#45;&gt;Node14</title>
<path fill="none" stroke="midnightblue" d="M446.84,-440.33C447.26,-402.89 448.97,-247.23 449.55,-193.69"/>
<polygon fill="midnightblue" stroke="midnightblue" points="453.05,-193.68 449.66,-183.64 446.06,-193.6 453.05,-193.68"/>
</g>
<!-- Node36&#45;&gt;Node25 -->
<g id="edge56" class="edge">
<title>Node36&#45;&gt;Node25</title>
<path fill="none" stroke="midnightblue" d="M436.73,-440.45C426.75,-432.43 411.2,-419.95 399.02,-410.17"/>
<polygon fill="midnightblue" stroke="midnightblue" points="400.86,-407.16 390.87,-403.63 396.48,-412.62 400.86,-407.16"/>
</g>
<!-- Node37&#45;&gt;Node4 -->
<g id="edge58" class="edge">
<title>Node37&#45;&gt;Node4</title>
<path fill="none" stroke="midnightblue" d="M212.94,-550.45C229.02,-541.93 254.64,-528.35 273.51,-518.35"/>
<polygon fill="midnightblue" stroke="midnightblue" points="275.23,-521.4 282.42,-513.63 271.95,-515.22 275.23,-521.4"/>
</g>
<!-- Node39 -->
<g id="node39" class="node">
<title>Node39</title>
<g id="a_node39"><a xlink:href="../../d3/d01/txeqtb_8h.html" target="_top" xlink:title=" ">
<polygon fill="none" stroke="black" points="242.96,-550.5 242.96,-568.5 294.54,-568.5 294.54,-550.5 242.96,-550.5"/>
<text text-anchor="middle" x="268.75" y="-556.5" font-family="Helvetica,sans-Serif" font-size="10.00">txeqtb.h</text>
</a>
</g>
</g>
<!-- Node38&#45;&gt;Node39 -->
<g id="edge60" class="edge">
<title>Node38&#45;&gt;Node39</title>
<path fill="none" stroke="midnightblue" d="M252.72,-605.22C255.3,-598.02 259.13,-587.35 262.4,-578.23"/>
<polygon fill="midnightblue" stroke="midnightblue" points="265.79,-579.14 265.87,-568.55 259.2,-576.78 265.79,-579.14"/>
</g>
<!-- Node39&#45;&gt;Node4 -->
<g id="edge61" class="edge">
<title>Node39&#45;&gt;Node4</title>
<path fill="none" stroke="midnightblue" d="M273.29,-550.22C277.35,-542.79 283.45,-531.65 288.54,-522.34"/>
<polygon fill="midnightblue" stroke="midnightblue" points="291.62,-524 293.35,-513.55 285.48,-520.64 291.62,-524"/>
</g>
<!-- Node40&#45;&gt;Node20 -->
<g id="edge63" class="edge">
<title>Node40&#45;&gt;Node20</title>
<path fill="none" stroke="midnightblue" d="M48.45,-330.41C50.09,-316.7 55.46,-289.04 72.75,-275 144.49,-216.76 188.63,-257.56 283.3,-238.97"/>
<polygon fill="midnightblue" stroke="midnightblue" points="284.19,-242.36 293.24,-236.84 282.73,-235.51 284.19,-242.36"/>
</g>
<!-- Node40&#45;&gt;Node23 -->
<g id="edge64" class="edge">
<title>Node40&#45;&gt;Node23</title>
<path fill="none" stroke="midnightblue" d="M56.04,-330.22C63.86,-322.39 75.79,-310.46 85.36,-300.89"/>
<polygon fill="midnightblue" stroke="midnightblue" points="88.11,-303.1 92.7,-293.55 83.16,-298.15 88.11,-303.1"/>
</g>
<!-- Node41&#45;&gt;Node3 -->
<g id="edge71" class="edge">
<title>Node41&#45;&gt;Node3</title>
<path fill="none" stroke="midnightblue" d="M418.17,-605.45C402.81,-596.97 378.37,-583.48 360.28,-573.49"/>
<polygon fill="midnightblue" stroke="midnightblue" points="361.92,-570.39 351.47,-568.63 358.53,-576.52 361.92,-570.39"/>
</g>
<!-- Node42 -->
<g id="node42" class="node">
<title>Node42</title>
<g id="a_node42"><a xlink:href="../../d4/da4/txatt_8h.html" target="_top" xlink:title=" ">
<polygon fill="none" stroke="black" points="417.14,-550.5 417.14,-568.5 460.37,-568.5 460.37,-550.5 417.14,-550.5"/>
<text text-anchor="middle" x="438.75" y="-556.5" font-family="Helvetica,sans-Serif" font-size="10.00">txatt.h</text>
</a>
</g>
</g>
<!-- Node41&#45;&gt;Node42 -->
<g id="edge67" class="edge">
<title>Node41&#45;&gt;Node42</title>
<path fill="none" stroke="midnightblue" d="M433.69,-605.22C434.5,-598.1 435.69,-587.58 436.71,-578.53"/>
<polygon fill="midnightblue" stroke="midnightblue" points="440.2,-578.88 437.84,-568.55 433.24,-578.09 440.2,-578.88"/>
</g>
<!-- Node42&#45;&gt;Node4 -->
<g id="edge68" class="edge">
<title>Node42&#45;&gt;Node4</title>
<path fill="none" stroke="midnightblue" d="M417.34,-550.45C393.84,-541.62 355.9,-527.35 329.06,-517.27"/>
<polygon fill="midnightblue" stroke="midnightblue" points="329.96,-513.87 319.37,-513.63 327.5,-520.42 329.96,-513.87"/>
</g>
<!-- Node42&#45;&gt;Node13 -->
<g id="edge69" class="edge">
<title>Node42&#45;&gt;Node13</title>
<path fill="none" stroke="midnightblue" d="M460.71,-555.86C509.11,-548.69 620.75,-524.17 620.75,-450.5 620.75,-450.5 620.75,-450.5 620.75,-228.5 620.75,-196.68 615.54,-159.9 611.99,-138.52"/>
<polygon fill="midnightblue" stroke="midnightblue" points="615.43,-137.85 610.27,-128.59 608.53,-139.04 615.43,-137.85"/>
</g>
<!-- Node42&#45;&gt;Node25 -->
<g id="edge70" class="edge">
<title>Node42&#45;&gt;Node25</title>
<path fill="none" stroke="midnightblue" d="M435.8,-550.19C426.8,-524.9 399.6,-448.45 387.13,-413.4"/>
<polygon fill="midnightblue" stroke="midnightblue" points="390.29,-411.85 383.64,-403.6 383.69,-414.19 390.29,-411.85"/>
</g>
</g>
</svg>
